<?xml version="1.0" encoding="UTF-8"?>
<svg version="1.1" xmlns="http://www.w3.org/2000/svg" width="150" height="150">
<path d="M0 0 C3.3 0 6.6 0 10 0 C10 1.98 10 3.96 10 6 C15.55493924 7.02703748 15.55493924 7.02703748 21 6 C21.433125 7.134375 21.86625 8.26875 22.3125 9.4375 C23.3061169 11.45153786 23.3061169 11.45153786 25 13 C27.93713773 13.71501749 30.6179844 13.87371097 33.63671875 13.9296875 C36 14 36 14 37 15 C37.15806531 16.92478813 37.251135 18.8549921 37.31640625 20.78515625 C37.35830078 21.95498047 37.40019531 23.12480469 37.44335938 24.33007812 C37.48267578 25.56177734 37.52199219 26.79347656 37.5625 28.0625 C37.60568359 29.29806641 37.64886719 30.53363281 37.69335938 31.80664062 C37.79984198 34.87097335 37.90185424 37.93539073 38 41 C39.65 41 41.3 41 43 41 C44.125 43.25 44.125 43.25 45 46 C44.34964186 47.34136367 43.6837045 48.67532254 43 50 C43.78309467 52.23470405 43.78309467 52.23470405 45 54 C44.34 54.99 43.68 55.98 43 57 C41.68 56.67 40.36 56.34 39 56 C38.34 57.32 37.68 58.64 37 60 C35.02 60 33.04 60 31 60 C30.773125 59.360625 30.54625 58.72125 30.3125 58.0625 C29.14749104 55.72806339 29.14749104 55.72806339 26.375 55.25 C25.59125 55.1675 24.8075 55.085 24 55 C23.505 53.02 23.505 53.02 23 51 C23.66 51 24.32 51 25 51 C24.39816251 48.97954558 23.72693904 46.97888961 23 45 C22.34 44.67 21.68 44.34 21 44 C21 50.6 21 57.2 21 64 C23.31 64 25.62 64 28 64 C29 65 29 65 29.11352539 68.96899414 C29.1133662 70.74105607 29.10766785 72.5131226 29.09765625 74.28515625 C29.0962413 75.21597519 29.09482635 76.14679413 29.09336853 77.1058197 C29.08775172 80.09141191 29.0751964 83.07693029 29.0625 86.0625 C29.05748716 88.08137913 29.05292388 90.10025943 29.04882812 92.11914062 C29.03777683 97.07945572 29.02050095 102.03971532 29 107 C31.31 107.66 33.62 108.32 36 109 C35 111 35 111 33.34521484 111.61450195 C28.49200924 112.41225457 23.54404055 112.18590312 18.63769531 112.18530273 C16.63863013 112.18748512 14.63960468 112.20599143 12.640625 112.22460938 C11.36960937 112.22654297 10.09859375 112.22847656 8.7890625 112.23046875 C7.63100098 112.23457764 6.47293945 112.23868652 5.27978516 112.24291992 C1.88689046 111.99162245 -0.83332989 111.21173908 -4 110 C-3.67 109.34 -3.34 108.68 -3 108 C-0.4375 107.375 -0.4375 107.375 2 107 C1.32142944 106.99191315 0.64285889 106.98382629 -0.05627441 106.97549438 C-7.19572947 106.88863335 -14.33493245 106.7891071 -21.47412109 106.68261719 C-24.12938188 106.64363425 -26.7845665 106.60971702 -29.43994141 106.578125 C-67.93926359 106.11445232 -67.93926359 106.11445232 -75 102 C-74.505 101.01 -74.505 101.01 -74 100 C-73.34 100 -72.68 100 -72 100 C-72.495 99.01 -72.495 99.01 -73 98 C-75.92713788 97.05065798 -77.42831368 96.76823527 -80.3125 97.9375 C-80.869375 98.288125 -81.42625 98.63875 -82 99 C-84.0625 96.875 -84.0625 96.875 -86 94 C-85.75 90.8125 -85.75 90.8125 -85 88 C-85 87.34 -85 86.68 -85 86 C-86.32 86 -87.64 86 -89 86 C-88.67 83.36 -88.34 80.72 -88 78 C-86.824375 78.0928125 -86.824375 78.0928125 -85.625 78.1875 C-84.75875 78.125625 -83.8925 78.06375 -83 78 C-80.69328085 75.28450846 -80.69328085 75.28450846 -81.375 72.8125 C-81.58125 72.214375 -81.7875 71.61625 -82 71 C-79.09399739 69.74335022 -77.20395416 69 -74 69 C-73.67 69.99 -73.34 70.98 -73 72 C-72.67 68.37 -72.34 64.74 -72 61 C-76.29 61 -80.58 61 -85 61 C-85.02683436 57.68744674 -85.0467578 54.37510817 -85.0625 51.0625 C-85.07087891 50.11697266 -85.07925781 49.17144531 -85.08789062 48.19726562 C-85.09111328 47.29814453 -85.09433594 46.39902344 -85.09765625 45.47265625 C-85.10289307 44.64000244 -85.10812988 43.80734863 -85.11352539 42.94946289 C-85 41 -85 41 -84 40 C-81.98035801 39.92755947 -79.95832876 39.91622812 -77.9375 39.9375 C-76.28041016 39.95103516 -76.28041016 39.95103516 -74.58984375 39.96484375 C-73.73519531 39.97644531 -72.88054687 39.98804688 -72 40 C-72.061875 38.906875 -72.12375 37.81375 -72.1875 36.6875 C-72 33 -72 33 -70.875 31.28125 C-68.1629604 29.42802294 -66.05676436 29.70784631 -62.8125 29.8125 C-61.72582031 29.83957031 -60.63914062 29.86664063 -59.51953125 29.89453125 C-58.27236328 29.94673828 -58.27236328 29.94673828 -57 30 C-56.67 28.68 -56.34 27.36 -56 26 C-54.17625854 25.970271 -54.17625854 25.970271 -52.31567383 25.93994141 C-47.79609802 25.86375305 -43.2768386 25.77505595 -38.75756836 25.68261719 C-36.80320491 25.64438211 -34.84877241 25.60951973 -32.89428711 25.578125 C-30.08161778 25.53235565 -27.26942161 25.47438077 -24.45703125 25.4140625 C-23.58601273 25.40251129 -22.7149942 25.39096008 -21.81758118 25.37905884 C-17.45198405 25.27333562 -13.97438372 25.02810986 -10 23 C-10.185625 22.401875 -10.37125 21.80375 -10.5625 21.1875 C-11 19 -11 19 -10 16 C-11.65 15.34 -13.3 14.68 -15 14 C-13.87548273 11.0280615 -12.77706209 8.66559313 -11 6 C-9.906875 6.20625 -8.81375 6.4125 -7.6875 6.625 C-3.9161599 7.40346525 -3.9161599 7.40346525 -1 5 C-0.27034634 2.43717258 -0.27034634 2.43717258 0 0 Z M-2 13 C-4.2084626 16.31269391 -4.80664241 18.14978851 -4.5546875 22.0625 C-3.4812192 25.81207941 -1.28696911 27.01541488 2 29 C4.63836977 29.1672392 4.63836977 29.1672392 7 29 C7.03738281 28.01257813 7.07476562 27.02515625 7.11328125 26.0078125 C7.17902344 24.72648437 7.24476562 23.44515625 7.3125 22.125 C7.37050781 20.84882812 7.42851563 19.57265625 7.48828125 18.2578125 C7.65714844 17.18273437 7.82601562 16.10765625 8 15 C8.99 14.34 9.98 13.68 11 13 C9.01607489 10.60148679 9.01607489 10.60148679 5.1875 10.5625 C1.82266671 10.66669338 0.95629969 11.02913354 -2 13 Z M29 46 C28.6366844 48.83386167 28.6431329 50.40522151 30.125 52.875 C32.92151052 54.55290631 34.93690532 53.74875648 38 53 C38.67673447 49.59679066 38.67673447 49.59679066 39 46 C37.11499729 43.68436913 37.11499729 43.68436913 34 43.75 C30.88500271 43.68436913 30.88500271 43.68436913 29 46 Z M-78.25 79.625 C-80.21985834 81.92308586 -80.21985834 81.92308586 -80.5 85 C-80.21376982 88.06575838 -80.21376982 88.06575838 -78.3125 90.375 C-75.61209763 92.27258004 -74.22939919 92.35882213 -71 92 C-70.85024761 84.94348748 -70.85024761 84.94348748 -72 78 C-75.92212225 77.60967296 -75.92212225 77.60967296 -78.25 79.625 Z M-65 94 C-64.67 95.65 -64.34 97.3 -64 99 C-51.13 98.01 -51.13 98.01 -38 97 C-37.67 96.01 -37.34 95.02 -37 94 C-46.24 94 -55.48 94 -65 94 Z M-13 94 C-13 94.99 -13 95.98 -13 97 C-7.72 97.33 -2.44 97.66 3 98 C3 96.68 3 95.36 3 94 C-2.28 94 -7.56 94 -13 94 Z " fill="#5F4DFE" transform="translate(98,19)"/>
<path d="M0 0 C3.3 0 6.6 0 10 0 C10 1.98 10 3.96 10 6 C15.55493924 7.02703748 15.55493924 7.02703748 21 6 C21.433125 7.134375 21.86625 8.26875 22.3125 9.4375 C23.3061169 11.45153786 23.3061169 11.45153786 25 13 C27.93713773 13.71501749 30.6179844 13.87371097 33.63671875 13.9296875 C36 14 36 14 37 15 C37.15806531 16.92478813 37.251135 18.8549921 37.31640625 20.78515625 C37.35830078 21.95498047 37.40019531 23.12480469 37.44335938 24.33007812 C37.48267578 25.56177734 37.52199219 26.79347656 37.5625 28.0625 C37.60568359 29.29806641 37.64886719 30.53363281 37.69335938 31.80664062 C37.79984198 34.87097335 37.90185424 37.93539073 38 41 C39.65 41 41.3 41 43 41 C44.125 43.25 44.125 43.25 45 46 C44.34964186 47.34136367 43.6837045 48.67532254 43 50 C43.78309467 52.23470405 43.78309467 52.23470405 45 54 C44.34 54.99 43.68 55.98 43 57 C41.02 56.505 41.02 56.505 39 56 C38.34 57.32 37.68 58.64 37 60 C35.02 60 33.04 60 31 60 C30.773125 59.360625 30.54625 58.72125 30.3125 58.0625 C29.14749104 55.72806339 29.14749104 55.72806339 26.375 55.25 C25.59125 55.1675 24.8075 55.085 24 55 C23.505 53.02 23.505 53.02 23 51 C23.66 51 24.32 51 25 51 C24.01 48.03 24.01 48.03 23 45 C17.72 44.67 12.44 44.34 7 44 C7 41.03 7 38.06 7 35 C4.69 35 2.38 35 0 35 C0.020625 35.969375 0.04125 36.93875 0.0625 37.9375 C0 41 0 41 -1 42 C-2.67708424 42.10397018 -4.35852791 42.13852909 -6.03881836 42.14526367 C-7.11340805 42.15164352 -8.18799774 42.15802338 -9.29515076 42.16459656 C-11.04977379 42.16626579 -11.04977379 42.16626579 -12.83984375 42.16796875 C-14.03227188 42.17129715 -15.22470001 42.17462555 -16.45326233 42.17805481 C-18.98112603 42.18312916 -21.50899645 42.18546298 -24.03686523 42.18530273 C-27.91726654 42.1874886 -31.79738346 42.20563757 -35.67773438 42.22460938 C-38.12760319 42.22754323 -40.57747336 42.22952808 -43.02734375 42.23046875 C-44.77893044 42.24124702 -44.77893044 42.24124702 -46.56590271 42.25224304 C-48.18251549 42.2476281 -48.18251549 42.2476281 -49.83178711 42.24291992 C-51.25955727 42.24505745 -51.25955727 42.24505745 -52.71617126 42.24723816 C-55 42 -55 42 -57 40 C-57.23046875 37.25 -57.23046875 37.25 -57.1875 34 C-57.17783203 32.39125 -57.17783203 32.39125 -57.16796875 30.75 C-57 28 -57 28 -56 26 C-54.78417236 25.98018066 -53.56834473 25.96036133 -52.31567383 25.93994141 C-47.79609802 25.86375305 -43.2768386 25.77505595 -38.75756836 25.68261719 C-36.80320491 25.64438211 -34.84877241 25.60951973 -32.89428711 25.578125 C-30.08161778 25.53235565 -27.26942161 25.47438077 -24.45703125 25.4140625 C-23.58601273 25.40251129 -22.7149942 25.39096008 -21.81758118 25.37905884 C-17.45198405 25.27333562 -13.97438372 25.02810986 -10 23 C-10.185625 22.401875 -10.37125 21.80375 -10.5625 21.1875 C-11 19 -11 19 -10 16 C-12.475 15.01 -12.475 15.01 -15 14 C-13.87548273 11.0280615 -12.77706209 8.66559313 -11 6 C-9.906875 6.20625 -8.81375 6.4125 -7.6875 6.625 C-3.9161599 7.40346525 -3.9161599 7.40346525 -1 5 C-0.27034634 2.43717258 -0.27034634 2.43717258 0 0 Z M-2 13 C-4.2084626 16.31269391 -4.80664241 18.14978851 -4.5546875 22.0625 C-3.4812192 25.81207941 -1.28696911 27.01541488 2 29 C4.63836977 29.1672392 4.63836977 29.1672392 7 29 C7.03738281 28.01257813 7.07476562 27.02515625 7.11328125 26.0078125 C7.17902344 24.72648437 7.24476562 23.44515625 7.3125 22.125 C7.37050781 20.84882812 7.42851563 19.57265625 7.48828125 18.2578125 C7.65714844 17.18273437 7.82601562 16.10765625 8 15 C8.99 14.34 9.98 13.68 11 13 C9.01607489 10.60148679 9.01607489 10.60148679 5.1875 10.5625 C1.82266671 10.66669338 0.95629969 11.02913354 -2 13 Z M29 46 C28.6366844 48.83386167 28.6431329 50.40522151 30.125 52.875 C32.92151052 54.55290631 34.93690532 53.74875648 38 53 C38.67673447 49.59679066 38.67673447 49.59679066 39 46 C37.11499729 43.68436913 37.11499729 43.68436913 34 43.75 C30.88500271 43.68436913 30.88500271 43.68436913 29 46 Z " fill="#38D5D0" transform="translate(98,19)"/>
<path d="M0 0 C2.31 0 4.62 0 7 0 C7 2.97 7 5.94 7 9 C10.3 9 13.6 9 17 9 C17 15.6 17 22.2 17 29 C12.71 29 8.42 29 4 29 C3.67 33.62 3.34 38.24 3 43 C-10.53 43 -24.06 43 -38 43 C-38.495 38.05 -38.495 38.05 -39 33 C-44.94 32.67 -50.88 32.34 -57 32 C-58 28 -58 28 -58 26 C-56.02 26 -54.04 26 -52 26 C-52.33 25.67 -52.66 25.34 -53 25 C-52.071875 24.690625 -52.071875 24.690625 -51.125 24.375 C-48.15346355 22.45224112 -47.86975341 20.33405473 -47 17 C-45.68 17.66 -44.36 18.32 -43 19 C-42.6596875 17.8553125 -42.6596875 17.8553125 -42.3125 16.6875 C-40.71467735 13.41576791 -39.13326678 12.72329673 -36 11 C-35.34 10.01 -34.68 9.02 -34 8 C-33.34 8.33 -32.68 8.66 -32 9 C-31.67 8.34 -31.34 7.68 -31 7 C-21.1 6.67 -11.2 6.34 -1 6 C-0.67 4.02 -0.34 2.04 0 0 Z " fill="#6B71FE" transform="translate(98,54)"/>
<path d="M0 0 C1.85776765 3.13498292 2.20140476 5.37471432 2 9 C1.030625 9.28875 0.06125 9.5775 -0.9375 9.875 C-4.10664203 10.64214682 -4.10664203 10.64214682 -5 13 C-5.0689472 14.37342831 -5.08467708 15.75002102 -5.0625 17.125 C-5.041875 18.40375 -5.02125 19.6825 -5 21 C-2.36 21.66 0.28 22.32 3 23 C3 20.03 3 17.06 3 14 C4.98 14 6.96 14 9 14 C9.33 14.66 9.66 15.32 10 16 C18.25 16 26.5 16 35 16 C35.33 15.34 35.66 14.68 36 14 C49.53 14 63.06 14 77 14 C77 17.63 77 21.26 77 25 C71.72 25 66.44 25 61 25 C61 25.99 61 26.98 61 28 C61.56847656 27.98839844 62.13695313 27.97679688 62.72265625 27.96484375 C67.60670484 27.90776806 72.18503965 28.18043228 77 29 C77 31.64 77 34.28 77 37 C69.71409984 37.04682155 62.42823335 37.08211748 55.14221191 37.10362434 C51.75718789 37.11395864 48.37226851 37.12792229 44.98730469 37.15087891 C6.5625541 37.39227608 6.5625541 37.39227608 -1 33 C-0.67 32.34 -0.34 31.68 0 31 C0.66 31 1.32 31 2 31 C1.67 30.34 1.34 29.68 1 29 C-1.92713788 28.05065798 -3.42831368 27.76823527 -6.3125 28.9375 C-6.869375 29.288125 -7.42625 29.63875 -8 30 C-10.0625 27.875 -10.0625 27.875 -12 25 C-11.75 21.8125 -11.75 21.8125 -11 19 C-11 18.34 -11 17.68 -11 17 C-12.32 17 -13.64 17 -15 17 C-14.67 14.36 -14.34 11.72 -14 9 C-13.21625 9.061875 -12.4325 9.12375 -11.625 9.1875 C-10.75875 9.125625 -9.8925 9.06375 -9 9 C-6.69328085 6.28450846 -6.69328085 6.28450846 -7.375 3.8125 C-7.58125 3.214375 -7.7875 2.61625 -8 2 C-5.09399739 0.74335022 -3.20395416 0 0 0 Z M9 25 C9.33 26.65 9.66 28.3 10 30 C22.87 29.01 22.87 29.01 36 28 C36.33 27.01 36.66 26.02 37 25 C27.76 25 18.52 25 9 25 Z " fill="#B2CFFE" transform="translate(24,88)"/>
<path d="M0 0 C1.32 0 2.64 0 4 0 C4 6.6 4 13.2 4 20 C6.31 20 8.62 20 11 20 C12 21 12 21 12.11352539 24.96899414 C12.1133662 26.74105607 12.10766785 28.5131226 12.09765625 30.28515625 C12.0962413 31.21597519 12.09482635 32.14679413 12.09336853 33.1058197 C12.08775172 36.09141191 12.0751964 39.07693029 12.0625 42.0625 C12.05748716 44.08137913 12.05292388 46.10025943 12.04882812 48.11914062 C12.03777683 53.07945572 12.02050095 58.03971532 12 63 C14.31 63.66 16.62 64.32 19 65 C18 67 18 67 16.34521484 67.61450195 C11.49200924 68.41225457 6.54404055 68.18590312 1.63769531 68.18530273 C-0.36136987 68.18748512 -2.36039532 68.20599143 -4.359375 68.22460938 C-5.63039062 68.22654297 -6.90140625 68.22847656 -8.2109375 68.23046875 C-9.36899902 68.23457764 -10.52706055 68.23868652 -11.72021484 68.24291992 C-15.11310954 67.99162245 -17.83332989 67.21173908 -21 66 C-20 64 -20 64 -14 62 C-14 54.41 -14 46.82 -14 39 C-27.53 39 -41.06 39 -55 39 C-55 37.35 -55 35.7 -55 34 C-41.47 34 -27.94 34 -14 34 C-14 30.04 -14 26.08 -14 22 C-13.67 21.34 -13.34 20.68 -13 20 C-8.71 20 -4.42 20 0 20 C0 13.4 0 6.8 0 0 Z " fill="#5E4DF3" transform="translate(115,63)"/>
<path d="M0 0 C3.3 0 6.6 0 10 0 C10 1.98 10 3.96 10 6 C14.20594226 6.72795155 16.80104745 7.04973814 21 6 C22.32 8.64 23.64 11.28 25 14 C24.0409375 14.6496875 24.0409375 14.6496875 23.0625 15.3125 C20.73253997 16.91239177 20.73253997 16.91239177 20 20 C20.9075 19.773125 21.815 19.54625 22.75 19.3125 C26 19 26 19 28.375 20.3125 C30 22 30 22 30 24 C31.65 24 33.3 24 35 24 C35.495 25.98 35.495 25.98 36 28 C31.71 28 27.42 28 23 28 C23 30.31 23 32.62 23 35 C23.66 35.33 24.32 35.66 25 36 C23.02 36.99 23.02 36.99 21 38 C19 35 19 35 18 31 C11.07 30.67 4.14 30.34 -3 30 C-3 29.34 -3 28.68 -3 28 C-19.83 28 -36.66 28 -54 28 C-54 28.66 -54 29.32 -54 30 C-54.99 30 -55.98 30 -57 30 C-56.67 28.68 -56.34 27.36 -56 26 C-54.78417236 25.98018066 -53.56834473 25.96036133 -52.31567383 25.93994141 C-47.79609802 25.86375305 -43.2768386 25.77505595 -38.75756836 25.68261719 C-36.80320491 25.64438211 -34.84877241 25.60951973 -32.89428711 25.578125 C-30.08161778 25.53235565 -27.26942161 25.47438077 -24.45703125 25.4140625 C-23.58601273 25.40251129 -22.7149942 25.39096008 -21.81758118 25.37905884 C-17.45198405 25.27333562 -13.97438372 25.02810986 -10 23 C-10.185625 22.401875 -10.37125 21.80375 -10.5625 21.1875 C-11 19 -11 19 -10 16 C-12.475 15.01 -12.475 15.01 -15 14 C-13.87548273 11.0280615 -12.77706209 8.66559313 -11 6 C-9.906875 6.20625 -8.81375 6.4125 -7.6875 6.625 C-3.9161599 7.40346525 -3.9161599 7.40346525 -1 5 C-0.27034634 2.43717258 -0.27034634 2.43717258 0 0 Z M-2 13 C-4.2084626 16.31269391 -4.80664241 18.14978851 -4.5546875 22.0625 C-3.4812192 25.81207941 -1.28696911 27.01541488 2 29 C4.63836977 29.1672392 4.63836977 29.1672392 7 29 C7.03738281 28.01257813 7.07476562 27.02515625 7.11328125 26.0078125 C7.17902344 24.72648437 7.24476562 23.44515625 7.3125 22.125 C7.37050781 20.84882812 7.42851563 19.57265625 7.48828125 18.2578125 C7.65714844 17.18273437 7.82601562 16.10765625 8 15 C8.99 14.34 9.98 13.68 11 13 C9.01607489 10.60148679 9.01607489 10.60148679 5.1875 10.5625 C1.82266671 10.66669338 0.95629969 11.02913354 -2 13 Z " fill="#6FD5E3" transform="translate(98,19)"/>
<path d="M0 0 C0 6.6 0 13.2 0 20 C-4.29 20 -8.58 20 -13 20 C-13.33 24.62 -13.66 29.24 -14 34 C-23.24 34 -32.48 34 -42 34 C-42 29 -42 29 -40 26 C-37.20799443 23.59309865 -34.45744426 22.24852154 -31 21 C-31.33 20.34 -31.66 19.68 -32 19 C-30.02 18.01 -28.04 17.02 -26 16 C-26 14.35 -26 12.7 -26 11 C-24.68 10.67 -23.36 10.34 -22 10 C-22.66 9.01 -23.32 8.02 -24 7 C-22.125 6.375 -22.125 6.375 -20 6 C-19.34 6.66 -18.68 7.32 -18 8 C-17.401875 6.865625 -16.80375 5.73125 -16.1875 4.5625 C-12.84187434 -1.78265212 -6.36909838 -0.07493057 0 0 Z " fill="#7183FD" transform="translate(115,63)"/>
<path d="M0 0 C1.85776765 3.13498292 2.20140476 5.37471432 2 9 C1.030625 9.28875 0.06125 9.5775 -0.9375 9.875 C-4.10664203 10.64214682 -4.10664203 10.64214682 -5 13 C-5.0689472 14.37342831 -5.08467708 15.75002102 -5.0625 17.125 C-5.041875 18.40375 -5.02125 19.6825 -5 21 C1.88824069 23.40990104 1.88824069 23.40990104 9 25 C9.33 26.32 9.66 27.64 10 29 C18.58 28.67 27.16 28.34 36 28 C35.67 28.66 35.34 29.32 35 30 C32.35139573 30.59355614 29.70802678 30.74209269 27 31 C27 31.66 27 32.32 27 33 C41.19 33 55.38 33 70 33 C69.67 32.34 69.34 31.68 69 31 C67.845 30.835 66.69 30.67 65.5 30.5 C64.345 30.335 63.19 30.17 62 30 C61.505 29.01 61.505 29.01 61 28 C66.45769811 27.88861841 71.61509359 28.08342019 77 29 C77 31.64 77 34.28 77 37 C69.71409984 37.04682155 62.42823335 37.08211748 55.14221191 37.10362434 C51.75718789 37.11395864 48.37226851 37.12792229 44.98730469 37.15087891 C6.5625541 37.39227608 6.5625541 37.39227608 -1 33 C-0.67 32.34 -0.34 31.68 0 31 C0.66 31 1.32 31 2 31 C1.67 30.34 1.34 29.68 1 29 C-1.92713788 28.05065798 -3.42831368 27.76823527 -6.3125 28.9375 C-6.869375 29.288125 -7.42625 29.63875 -8 30 C-10.0625 27.875 -10.0625 27.875 -12 25 C-11.75 21.8125 -11.75 21.8125 -11 19 C-11 18.34 -11 17.68 -11 17 C-12.32 17 -13.64 17 -15 17 C-14.67 14.36 -14.34 11.72 -14 9 C-13.21625 9.061875 -12.4325 9.12375 -11.625 9.1875 C-10.75875 9.125625 -9.8925 9.06375 -9 9 C-6.69328085 6.28450846 -6.69328085 6.28450846 -7.375 3.8125 C-7.58125 3.214375 -7.7875 2.61625 -8 2 C-5.09399739 0.74335022 -3.20395416 0 0 0 Z " fill="#EAEBF2" transform="translate(24,88)"/>
<path d="M0 0 C0.33 0 0.66 0 1 0 C1 10.23 1 20.46 1 31 C-7.25 31 -15.5 31 -24 31 C-24.25 17.375 -24.25 17.375 -22 14 C-21.58073551 11.52375646 -21.58073551 11.52375646 -21.4375 8.875 C-21.09828393 4.09828393 -21.09828393 4.09828393 -20 3 C-16.17466217 2.76256524 -12.35580771 2.60332034 -8.52539062 2.48242188 C-7.72423828 2.44826172 -6.92308594 2.41410156 -6.09765625 2.37890625 C-4.99176147 2.34132202 -4.99176147 2.34132202 -3.86352539 2.30297852 C-1.75720731 2.14685298 -1.75720731 2.14685298 0 0 Z " fill="#707FFE" transform="translate(126,93)"/>
<path d="M0 0 C5.94 0 11.88 0 18 0 C18 0.66 18 1.32 18 2 C17.34 2 16.68 2 16 2 C15.9071875 2.928125 15.9071875 2.928125 15.8125 3.875 C15.544375 4.57625 15.27625 5.2775 15 6 C13.34795544 6.70211894 11.68076231 7.36971413 10 8 C9.67 8.99 9.34 9.98 9 11 C8.34 11.33 7.68 11.66 7 12 C5.90963072 14.9737344 5.96135834 15.88407501 7 19 C4.50935112 19.68707555 2.62113708 20 0 20 C-0.4640625 20.928125 -0.4640625 20.928125 -0.9375 21.875 C-1.625 23.25 -2.3125 24.625 -3 26 C-3.94939453 25.75443359 -3.94939453 25.75443359 -4.91796875 25.50390625 C-9.06751093 24.82546399 -13.11641498 24.89444625 -17.3125 24.9375 C-18.14845703 24.94201172 -18.98441406 24.94652344 -19.84570312 24.95117188 C-21.89716649 24.96289452 -23.94859273 24.98082797 -26 25 C-26.5534764 22.92446352 -27 21.15634036 -27 19 C-25.02 19 -23.04 19 -21 19 C-21.33 18.67 -21.66 18.34 -22 18 C-21.071875 17.690625 -21.071875 17.690625 -20.125 17.375 C-17.15346355 15.45224112 -16.86975341 13.33405473 -16 10 C-14.68 10.66 -13.36 11.32 -12 12 C-11.773125 11.236875 -11.54625 10.47375 -11.3125 9.6875 C-9.71467735 6.41576791 -8.13326678 5.72329673 -5 4 C-4.34 3.01 -3.68 2.02 -3 1 C-2.34 1.33 -1.68 1.66 -1 2 C-0.67 1.34 -0.34 0.68 0 0 Z " fill="#655CFE" transform="translate(67,61)"/>
<path d="M0 0 C1.12019531 -0.00128906 2.24039063 -0.00257812 3.39453125 -0.00390625 C4.57402344 -0.00003906 5.75351562 0.00382812 6.96875 0.0078125 C8.73798828 0.00201172 8.73798828 0.00201172 10.54296875 -0.00390625 C12.22326172 -0.00197266 12.22326172 -0.00197266 13.9375 0 C14.97326172 0.00112793 16.00902344 0.00225586 17.07617188 0.00341797 C19.46875 0.1328125 19.46875 0.1328125 20.46875 1.1328125 C20.56861975 3.97616298 20.60752881 6.78978413 20.59375 9.6328125 C20.59955078 10.82970703 20.59955078 10.82970703 20.60546875 12.05078125 C20.59535767 18.00620483 20.59535767 18.00620483 19.46875 19.1328125 C17.62715977 19.23240871 15.78178033 19.26361661 13.9375 19.265625 C12.81730469 19.26691406 11.69710937 19.26820312 10.54296875 19.26953125 C9.36347656 19.26566406 8.18398438 19.26179688 6.96875 19.2578125 C5.19951172 19.26361328 5.19951172 19.26361328 3.39453125 19.26953125 C1.71423828 19.26759766 1.71423828 19.26759766 0 19.265625 C-1.03576172 19.26449707 -2.07152344 19.26336914 -3.13867188 19.26220703 C-5.53125 19.1328125 -5.53125 19.1328125 -6.53125 18.1328125 C-6.63111975 15.28946202 -6.67002881 12.47584087 -6.65625 9.6328125 C-6.66011719 8.83488281 -6.66398437 8.03695312 -6.66796875 7.21484375 C-6.65573175 0.007248 -6.65573175 0.007248 0 0 Z " fill="#3BD3CB" transform="translate(39.53125,85.8671875)"/>
<path d="M0 0 C1.98 0 3.96 0 6 0 C6.33 0.66 6.66 1.32 7 2 C15.25 2 23.5 2 32 2 C32.33 1.34 32.66 0.68 33 0 C38.94 0 44.88 0 51 0 C52 4 52 4 51 6 C51.99 6.66 52.98 7.32 54 8 C53.67 8.99 53.34 9.98 53 11 C49.625 11.125 49.625 11.125 46 11 C45.34 10.34 44.68 9.68 44 9 C43.34 9.66 42.68 10.32 42 11 C38.92648065 11.18783562 35.94457522 11.25546922 32.87109375 11.23046875 C31.96625748 11.23001053 31.0614212 11.22955231 30.12916565 11.2290802 C28.21508473 11.2260567 26.30100631 11.2181675 24.38696289 11.20581055 C21.44603835 11.18755301 18.50542842 11.18530083 15.56445312 11.18554688 C13.70833059 11.18063186 11.85221021 11.17480362 9.99609375 11.16796875 C8.66800941 11.16629951 8.66800941 11.16629951 7.31309509 11.16459656 C1.11604529 11.11604529 1.11604529 11.11604529 0 10 C-0.07205511 8.31391034 -0.08386068 6.62499341 -0.0625 4.9375 C-0.05347656 4.01839844 -0.04445313 3.09929687 -0.03515625 2.15234375 C-0.02355469 1.44207031 -0.01195313 0.73179688 0 0 Z " fill="#BED7FE" transform="translate(27,102)"/>
<path d="M0 0 C16.83 0 33.66 0 51 0 C51 2.97 51 5.94 51 9 C34.17 9 17.34 9 0 9 C0 6.03 0 3.06 0 0 Z " fill="#424287" transform="translate(44,47)"/>
<path d="M0 0 C0.83265381 0.00523682 1.66530762 0.01047363 2.52319336 0.01586914 C3.42231445 0.0190918 4.32143555 0.02231445 5.24780273 0.02563477 C6.66609375 0.03820313 6.66609375 0.03820313 8.11303711 0.05102539 C9.06243164 0.05553711 10.01182617 0.06004883 10.98999023 0.06469727 C13.34356776 0.07652429 15.69702188 0.09300514 18.05053711 0.11352539 C18.07941525 3.5926748 18.09729398 7.0717937 18.11303711 10.55102539 C18.12141602 11.54424805 18.12979492 12.5374707 18.13842773 13.56079102 C18.14326172 14.97714844 18.14326172 14.97714844 18.14819336 16.42211914 C18.15604858 17.73394165 18.15604858 17.73394165 18.1640625 19.07226562 C18.05053711 21.11352539 18.05053711 21.11352539 17.05053711 22.11352539 C15.55919801 22.1301477 14.06692906 22.07671739 12.57788086 21.99243164 C11.67875977 21.9440918 10.77963867 21.89575195 9.85327148 21.84594727 C8.90774414 21.78987305 7.9622168 21.73379883 6.98803711 21.67602539 C6.03864258 21.62381836 5.08924805 21.57161133 4.11108398 21.51782227 C1.75726759 21.38771181 -0.59616988 21.25273427 -2.94946289 21.11352539 C-2.97834436 17.80104352 -2.99622088 14.48859372 -3.01196289 11.17602539 C-3.0203418 10.23049805 -3.0287207 9.2849707 -3.03735352 8.31079102 C-3.04057617 7.41166992 -3.04379883 6.51254883 -3.04711914 5.58618164 C-3.05235596 4.75352783 -3.05759277 3.92087402 -3.06298828 3.06298828 C-2.90876673 0.41468917 -2.64829911 0.15422155 0 0 Z " fill="#38CFD3" transform="translate(15.949462890625,58.886474609375)"/>
<path d="M0 0 C0.99 0 1.98 0 3 0 C3 2.31 3 4.62 3 7 C19.83 7 36.66 7 54 7 C54 4.69 54 2.38 54 0 C60.93 0 67.86 0 75 0 C75.99 1.98 75.99 1.98 77 4 C74.703463 5.1482685 73.41686833 5.11561175 70.8671875 5.09765625 C70.06152344 5.09443359 69.25585938 5.09121094 68.42578125 5.08789062 C67.58402344 5.07951172 66.74226563 5.07113281 65.875 5.0625 C65.02550781 5.05798828 64.17601563 5.05347656 63.30078125 5.04882812 C61.20049091 5.03702874 59.1002367 5.01909306 57 5 C57.020625 5.969375 57.04125 6.93875 57.0625 7.9375 C57 11 57 11 56 12 C54.32291576 12.10397018 52.64147209 12.13852909 50.96118164 12.14526367 C49.88659195 12.15164352 48.81200226 12.15802338 47.70484924 12.16459656 C45.95022621 12.16626579 45.95022621 12.16626579 44.16015625 12.16796875 C42.96772812 12.17129715 41.77529999 12.17462555 40.54673767 12.17805481 C38.01887397 12.18312916 35.49100355 12.18546298 32.96313477 12.18530273 C29.08273346 12.1874886 25.20261654 12.20563757 21.32226562 12.22460938 C18.87239681 12.22754323 16.42252664 12.22952808 13.97265625 12.23046875 C12.22106956 12.24124702 12.22106956 12.24124702 10.43409729 12.25224304 C8.81748451 12.2476281 8.81748451 12.2476281 7.16821289 12.24291992 C5.74044273 12.24505745 5.74044273 12.24505745 4.28382874 12.24723816 C2 12 2 12 0 10 C-0.1953125 7.6171875 -0.1953125 7.6171875 -0.125 4.875 C-0.10695312 3.96492188 -0.08890625 3.05484375 -0.0703125 2.1171875 C-0.04710937 1.41851562 -0.02390625 0.71984375 0 0 Z " fill="#3DBBDB" transform="translate(41,49)"/>
<path d="M0 0 C3.3 0 6.6 0 10 0 C10 1.98 10 3.96 10 6 C14.20594226 6.72795155 16.80104745 7.04973814 21 6 C22.32 8.64 23.64 11.28 25 14 C22.70858714 14.05384521 20.41681812 14.09272087 18.125 14.125 C16.21074219 14.15980469 16.21074219 14.15980469 14.2578125 14.1953125 C11 14 11 14 9 12 C3.45764755 11.42765564 3.45764755 11.42765564 -1.5 13.5 C-3.71177972 17.18629954 -3.34421275 19.73176192 -3 24 C-2.67 24.66 -2.34 25.32 -2 26 C-6.29 26 -10.58 26 -15 26 C-14.01 25.01 -13.02 24.02 -12 23 C-11.34 23 -10.68 23 -10 23 C-10.185625 22.401875 -10.37125 21.80375 -10.5625 21.1875 C-11 19 -11 19 -10 16 C-12.475 15.01 -12.475 15.01 -15 14 C-13.87548273 11.0280615 -12.77706209 8.66559313 -11 6 C-9.906875 6.20625 -8.81375 6.4125 -7.6875 6.625 C-3.9161599 7.40346525 -3.9161599 7.40346525 -1 5 C-0.27034634 2.43717258 -0.27034634 2.43717258 0 0 Z " fill="#E8EAF1" transform="translate(98,19)"/>
<path d="M0 0 C1.58206422 0.00574487 3.16410406 0.01876032 4.74609375 0.03515625 C7.53046875 0.05578125 10.31484375 0.07640625 13.18359375 0.09765625 C13.18359375 6.03765625 13.18359375 11.97765625 13.18359375 18.09765625 C10.39921875 18.11828125 7.61484375 18.13890625 4.74609375 18.16015625 C3.86767822 18.16926025 2.9892627 18.17836426 2.08422852 18.18774414 C0.11713401 18.19488716 -1.84994246 18.14797518 -3.81640625 18.09765625 C-5.63756628 16.27649622 -4.94875705 13.79093861 -4.953125 11.37109375 C-4.94925781 10.62085937 -4.94539063 9.870625 -4.94140625 9.09765625 C-4.94527344 8.34742187 -4.94914062 7.5971875 -4.953125 6.82421875 C-4.94103514 0.12643386 -4.94103514 0.12643386 0 0 Z " fill="#3DCFE5" transform="translate(109.81640625,95.90234375)"/>
<path d="M0 0 C1.5631897 0.00785522 1.5631897 0.00785522 3.15795898 0.01586914 C4.28266602 0.0190918 5.40737305 0.02231445 6.56616211 0.02563477 C7.75016602 0.03401367 8.93416992 0.04239258 10.15405273 0.05102539 C11.34192383 0.05553711 12.52979492 0.06004883 13.75366211 0.06469727 C16.69967499 0.07652864 19.64558954 0.09301252 22.59155273 0.11352539 C22.92155273 1.10352539 23.25155273 2.09352539 23.59155273 3.11352539 C22.60155273 3.77352539 21.61155273 4.43352539 20.59155273 5.11352539 C19.5550825 6.41871014 18.54732331 7.74813886 17.59155273 9.11352539 C13.71655273 6.48852539 13.71655273 6.48852539 12.59155273 3.11352539 C11.60155273 3.60852539 11.60155273 3.60852539 10.59155273 4.11352539 C9.86079625 6.42758759 9.19017016 8.76181408 8.59155273 11.11352539 C7.93155273 10.78352539 7.27155273 10.45352539 6.59155273 10.11352539 C5.96655273 8.05102539 5.96655273 8.05102539 5.59155273 6.11352539 C3.61155273 7.10352539 3.61155273 7.10352539 1.59155273 8.11352539 C3.45721761 11.74146537 3.45721761 11.74146537 6.59155273 14.11352539 C6.59155273 14.77352539 6.59155273 15.43352539 6.59155273 16.11352539 C3.29155273 16.11352539 -0.00844727 16.11352539 -3.40844727 16.11352539 C-3.43529822 13.63428738 -3.45521274 11.15533699 -3.47094727 8.67602539 C-3.48351563 7.61544922 -3.48351563 7.61544922 -3.49633789 6.53344727 C-3.50498314 4.7265898 -3.46064738 2.91964936 -3.40844727 1.11352539 C-2.40844727 0.11352539 -2.40844727 0.11352539 0 0 Z " fill="#42AFE3" transform="translate(36.408447265625,85.886474609375)"/>
<path d="M0 0 C0.83265381 0.00523682 1.66530762 0.01047363 2.52319336 0.01586914 C3.42231445 0.0190918 4.32143555 0.02231445 5.24780273 0.02563477 C6.66609375 0.03820312 6.66609375 0.03820312 8.11303711 0.05102539 C9.06243164 0.05553711 10.01182617 0.06004883 10.98999023 0.06469727 C13.34356776 0.07652429 15.69702188 0.09300514 18.05053711 0.11352539 C18.07741862 1.75927105 18.09687834 3.40513952 18.11303711 5.05102539 C18.12463867 5.96754883 18.13624023 6.88407227 18.14819336 7.82836914 C18.05053711 10.11352539 18.05053711 10.11352539 17.05053711 11.11352539 C14.06187069 11.21363835 11.10143258 11.25226514 8.11303711 11.23852539 C7.27579102 11.24239258 6.43854492 11.24625977 5.57592773 11.25024414 C4.77477539 11.24895508 3.97362305 11.24766602 3.14819336 11.24633789 C2.41093018 11.24520996 1.67366699 11.24408203 0.9140625 11.24291992 C-0.94946289 11.11352539 -0.94946289 11.11352539 -2.94946289 10.11352539 C-2.97635505 8.63445647 -2.99580911 7.15525056 -3.01196289 5.67602539 C-3.02356445 4.85231445 -3.03516602 4.02860352 -3.04711914 3.17993164 C-2.91831818 0.45450326 -2.72456284 0.15866271 0 0 Z " fill="#33CBDA" transform="translate(15.949462890625,31.886474609375)"/>
<path d="M0 0 C13.53 0 27.06 0 41 0 C41 1.65 41 3.3 41 5 C27.47 5 13.94 5 0 5 C0 3.35 0 1.7 0 0 Z " fill="#3C3D89" transform="translate(60,97)"/>
<path d="M0 0 C1.98 0 3.96 0 6 0 C7.125 2.25 7.125 2.25 8 5 C7.34964186 6.34136367 6.6837045 7.67532254 6 9 C6.78309467 11.23470405 6.78309467 11.23470405 8 13 C7.01 14.485 7.01 14.485 6 16 C4.68 15.67 3.36 15.34 2 15 C1.34 16.32 0.68 17.64 0 19 C-1.98 19 -3.96 19 -6 19 C-6.226875 18.360625 -6.45375 17.72125 -6.6875 17.0625 C-7.85250896 14.72806339 -7.85250896 14.72806339 -10.625 14.25 C-11.40875 14.1675 -12.1925 14.085 -13 14 C-13.33 12.68 -13.66 11.36 -14 10 C-13.34 10 -12.68 10 -12 10 C-12.66 7.69 -13.32 5.38 -14 3 C-11.36 3 -8.72 3 -6 3 C-6.20625 4.11375 -6.4125 5.2275 -6.625 6.375 C-6.74875 7.57125 -6.8725 8.7675 -7 10 C-5.10244856 12.34973818 -5.10244856 12.34973818 -1.875 12.125 C-0.451875 12.063125 -0.451875 12.063125 1 12 C1.29562367 6.67829506 1.29562367 6.67829506 -1 2 C-0.67 1.34 -0.34 0.68 0 0 Z " fill="#EAEBF2" transform="translate(135,60)"/>
<path d="M0 0 C1.08667969 0.02707031 2.17335938 0.05414063 3.29296875 0.08203125 C4.54013672 0.13423828 4.54013672 0.13423828 5.8125 0.1875 C5.98070551 2.12486701 6.14701095 4.06239906 6.3125 6 C6.4053125 7.07894531 6.498125 8.15789063 6.59375 9.26953125 C6.8125 12.1875 6.8125 12.1875 6.8125 15.1875 C4.5025 15.1875 2.1925 15.1875 -0.1875 15.1875 C-0.5175 13.5375 -0.8475 11.8875 -1.1875 10.1875 C-3.8275 10.1875 -6.4675 10.1875 -9.1875 10.1875 C-9.55218886 3.74466353 -9.55218886 3.74466353 -8.0625 1.46875 C-5.3504604 -0.38447706 -3.24426436 -0.10465369 0 0 Z " fill="#5833FF" transform="translate(35.1875,48.8125)"/>
<path d="M0 0 C0 10.23 0 20.46 0 31 C-4.62 31 -9.24 31 -14 31 C-14 30.34 -14 29.68 -14 29 C-12.02 28.67 -10.04 28.34 -8 28 C-9.32 27.34 -10.64 26.68 -12 26 C-6 22 -6 22 -4 22 C-4.01571045 21.44014404 -4.0314209 20.88028809 -4.04760742 20.3034668 C-4.10999848 17.7649141 -4.14900218 15.22652271 -4.1875 12.6875 C-4.21263672 11.80642578 -4.23777344 10.92535156 -4.26367188 10.01757812 C-4.27333984 9.17001953 -4.28300781 8.32246094 -4.29296875 7.44921875 C-4.31653442 6.27879028 -4.31653442 6.27879028 -4.34057617 5.0847168 C-3.96438924 2.78202132 -2.72737557 0 0 0 Z " fill="#7691FE" transform="translate(127,93)"/>
<path d="M0 0 C2.875 1 2.875 1 4.25 3.0625 C4.45625 3.701875 4.6625 4.34125 4.875 5 C6.525 5 8.175 5 9.875 5 C10.205 6.32 10.535 7.64 10.875 9 C6.585 9 2.295 9 -2.125 9 C-2.125 11.31 -2.125 13.62 -2.125 16 C-1.465 16.33 -0.805 16.66 -0.125 17 C-2.105 17.99 -2.105 17.99 -4.125 19 C-6.69187367 15.1496895 -5.95788724 13.41430237 -5.125 9 C-7.435 9 -9.745 9 -12.125 9 C-11.795 7.68 -11.465 6.36 -11.125 5 C-10.25875 4.87625 -10.25875 4.87625 -9.375 4.75 C-6.93844271 4.14703737 -6.93844271 4.14703737 -5.25 1.875 C-3.125 0 -3.125 0 0 0 Z " fill="#F8FDFD" transform="translate(123.125,38)"/>
<path d="M0 0 C1.32 0 2.64 0 4 0 C4 6.6 4 13.2 4 20 C6.31 20 8.62 20 11 20 C11.33 20.99 11.66 21.98 12 23 C3.12538721 24.29085277 -5.11021981 24.12886098 -14 23 C-13.505 21.515 -13.505 21.515 -13 20 C-8.71 20 -4.42 20 0 20 C0 13.4 0 6.8 0 0 Z " fill="#4C4CA1" transform="translate(115,63)"/>
<path d="M0 0 C0.61488281 0.0721875 1.22976562 0.144375 1.86328125 0.21875 C3.07564453 0.35796875 3.07564453 0.35796875 4.3125 0.5 C5.11300781 0.5928125 5.91351563 0.685625 6.73828125 0.78125 C9.11896555 1.04813463 9.11896555 1.04813463 12 1 C11 3 11 3 10 4 C21.385 4.99 21.385 4.99 33 6 C33 6.66 33 7.32 33 8 C18.81 8 4.62 8 -10 8 C-10 7.34 -10 6.68 -10 6 C-7.98177083 5.609375 -5.96354167 5.21875 -3.9453125 4.828125 C-1.80995329 4.14287884 -1.80995329 4.14287884 -0.7421875 1.921875 C-0.49726562 1.28765625 -0.25234375 0.6534375 0 0 Z " fill="#9EC3FE" transform="translate(61,113)"/>
<path d="M0 0 C0.02685412 2.31243792 0.04632841 4.6249627 0.0625 6.9375 C0.07410156 8.22527344 0.08570313 9.51304688 0.09765625 10.83984375 C0 14 0 14 -1 15 C-3.53049402 15.07313567 -6.03304837 15.09247527 -8.5625 15.0625 C-9.62887695 15.05573242 -9.62887695 15.05573242 -10.71679688 15.04882812 C-12.47790013 15.03700864 -14.23896036 15.01907263 -16 15 C-16.1484375 12.6015625 -16.1484375 12.6015625 -16 10 C-13.625 8.375 -13.625 8.375 -11 7 C-10.34 6.01 -9.68 5.02 -9 4 C-7.08984375 2.83203125 -7.08984375 2.83203125 -4.9375 1.8125 C-4.22464844 1.46832031 -3.51179687 1.12414063 -2.77734375 0.76953125 C-1 0 -1 0 0 0 Z " fill="#36DDC5" transform="translate(135,48)"/>
<path d="M0 0 C0.99 0 1.98 0 3 0 C3 2.31 3 4.62 3 7 C10.59 7 18.18 7 26 7 C26.33 7.66 26.66 8.32 27 9 C26.01 9.33 25.02 9.66 24 10 C28.95 10.33 33.9 10.66 39 11 C39 11.33 39 11.66 39 12 C33.76726669 12.04935824 28.53466824 12.08569949 23.30175781 12.10986328 C21.52080933 12.11993431 19.73987743 12.13359185 17.95898438 12.15087891 C15.40230217 12.17507913 12.84583815 12.18647184 10.2890625 12.1953125 C9.49005524 12.20563507 8.69104797 12.21595764 7.86782837 12.22659302 C5.9104278 12.22699226 3.95356923 12.12241069 2 12 C0 10 0 10 -0.1953125 7.6171875 C-0.17210937 6.71226563 -0.14890625 5.80734375 -0.125 4.875 C-0.10695312 3.96492188 -0.08890625 3.05484375 -0.0703125 2.1171875 C-0.04710937 1.41851562 -0.02390625 0.71984375 0 0 Z " fill="#4098E2" transform="translate(41,49)"/>
<path d="M0 0 C1.31871094 -0.01224609 2.63742188 -0.02449219 3.99609375 -0.03710938 C5.90068359 -0.04000977 5.90068359 -0.04000977 7.84375 -0.04296875 C9.00068359 -0.04707764 10.15761719 -0.05118652 11.34960938 -0.05541992 C14.47736509 0.18575467 16.680892 0.85423629 19.5 2.1875 C18.5 4.1875 18.5 4.1875 16.84521484 4.80200195 C11.99200924 5.59975457 7.04404055 5.37340312 2.13769531 5.37280273 C0.13863013 5.37498512 -1.86039532 5.39349143 -3.859375 5.41210938 C-5.13039063 5.41404297 -6.40140625 5.41597656 -7.7109375 5.41796875 C-8.86899902 5.42207764 -10.02706055 5.42618652 -11.22021484 5.43041992 C-14.61310954 5.17912245 -17.33332989 4.39923908 -20.5 3.1875 C-20.17 2.5275 -19.84 1.8675 -19.5 1.1875 C-13.23640183 -0.60566158 -6.45139424 0.00315317 0 0 Z " fill="#EAEBF2" transform="translate(114.5,125.8125)"/>
<path d="M0 0 C1 2 1 2 1 9 C-3.62 9 -8.24 9 -13 9 C-13 6.03 -13 3.06 -13 0 C-11.20909747 -0.19466332 -9.41723495 -0.38051213 -7.625 -0.5625 C-6.12839844 -0.71912109 -6.12839844 -0.71912109 -4.6015625 -0.87890625 C-2 -1 -2 -1 0 0 Z " fill="#38C6D2" transform="translate(118,54)"/>
<path d="M0 0 C0.33 0 0.66 0 1 0 C1 4.95 1 9.9 1 15 C-3.95 15 -8.9 15 -14 15 C-13.34 14.01 -12.68 13.02 -12 12 C-11.34 12 -10.68 12 -10 12 C-9.95875 11.443125 -9.9175 10.88625 -9.875 10.3125 C-8.54848726 6.80671632 -5.90873056 5.26880984 -3 3 C-2.401875 2.401875 -1.80375 1.80375 -1.1875 1.1875 C-0.795625 0.795625 -0.40375 0.40375 0 0 Z " fill="#38D8D8" transform="translate(122,99)"/>
<path d="M0 0 C0.99 0 1.98 0 3 0 C3.33 0.66 3.66 1.32 4 2 C6.02463255 2.65213292 6.02463255 2.65213292 8 3 C8 5.64 8 8.28 8 11 C7.360625 11.12375 6.72125 11.2475 6.0625 11.375 C5.381875 11.58125 4.70125 11.7875 4 12 C3.67 12.66 3.34 13.32 3 14 C2.01 14 1.02 14 0 14 C0 13.01 0 12.02 0 11 C-1.65 10.67 -3.3 10.34 -5 10 C-5 7.69 -5 5.38 -5 3 C-3.35 2.67 -1.7 2.34 0 2 C0 1.34 0 0.68 0 0 Z " fill="#ECF9FA" transform="translate(22,63)"/>
<path d="M0 0 C0.66 0.33 1.32 0.66 2 1 C3.53668865 1.22467831 5.07968054 1.40796805 6.625 1.5625 C7.44226562 1.64628906 8.25953125 1.73007812 9.1015625 1.81640625 C9.72804688 1.87699219 10.35453125 1.93757813 11 2 C11 2.33 11 2.66 11 3 C9.35 3.33 7.7 3.66 6 4 C7.32 4 8.64 4 10 4 C10 4.66 10 5.32 10 6 C9.360625 6.12375 8.72125 6.2475 8.0625 6.375 C7.381875 6.58125 6.70125 6.7875 6 7 C5.67 7.66 5.34 8.32 5 9 C2.9375 9.625 2.9375 9.625 1 10 C1.99 10 2.98 10 4 10 C4.33 10.99 4.66 11.98 5 13 C1.37 13 -2.26 13 -6 13 C-6 10.36 -6 7.72 -6 5 C-2.535 4.505 -2.535 4.505 1 4 C0.67 2.68 0.34 1.36 0 0 Z " fill="#5C40FE" transform="translate(41,59)"/>
<path d="M0 0 C2 0 2 0 4.5625 2.3125 C7 5 7 5 8 8 C5.525 9.485 5.525 9.485 3 11 C3 10.01 3 9.02 3 8 C2.01 8 1.02 8 0 8 C-0.33 9.65 -0.66 11.3 -1 13 C-4.32310483 11.83242263 -6.83361132 10.85051143 -9 8 C-9 7.01 -9 6.02 -9 5 C-6.5 3.3125 -6.5 3.3125 -4 2 C-3.67 3.65 -3.34 5.3 -3 7 C-2.01 4.69 -1.02 2.38 0 0 Z " fill="#9DDBEA" transform="translate(47,89)"/>
<path d="M0 0 C1.65322266 0.01740234 1.65322266 0.01740234 3.33984375 0.03515625 C4.99693359 0.04869141 4.99693359 0.04869141 6.6875 0.0625 C7.54214844 0.07410156 8.39679687 0.08570313 9.27734375 0.09765625 C9.27734375 2.07765625 9.27734375 4.05765625 9.27734375 6.09765625 C8.94734375 5.43765625 8.61734375 4.77765625 8.27734375 4.09765625 C7.28734375 4.09765625 6.29734375 4.09765625 5.27734375 4.09765625 C5.27734375 4.75765625 5.27734375 5.41765625 5.27734375 6.09765625 C3.95734375 6.42765625 2.63734375 6.75765625 1.27734375 7.09765625 C1.27734375 8.08765625 1.27734375 9.07765625 1.27734375 10.09765625 C0.61734375 10.09765625 -0.04265625 10.09765625 -0.72265625 10.09765625 C-1.38265625 12.73765625 -2.04265625 15.37765625 -2.72265625 18.09765625 C-3.05265625 18.09765625 -3.38265625 18.09765625 -3.72265625 18.09765625 C-3.74949937 15.28509344 -3.76941813 12.47278384 -3.78515625 9.66015625 C-3.79353516 8.85771484 -3.80191406 8.05527344 -3.81054688 7.22851562 C-3.81917055 5.18470404 -3.77493775 3.14081723 -3.72265625 1.09765625 C-2.72265625 0.09765625 -2.72265625 0.09765625 0 0 Z " fill="#31C5DF" transform="translate(16.72265625,58.90234375)"/>
<path d="M0 0 C1.32 0 2.64 0 4 0 C4 5.28 4 10.56 4 16 C4.99 16 5.98 16 7 16 C7 17.65 7 19.3 7 21 C4.69 21 2.38 21 0 21 C0 14.07 0 7.14 0 0 Z " fill="#41428D" transform="translate(26,81)"/>
<path d="M0 0 C0.33 0 0.66 0 1 0 C1 4.29 1 8.58 1 13 C-2.3 13 -5.6 13 -9 13 C-9.33 12.34 -9.66 11.68 -10 11 C-10.66 10.01 -11.32 9.02 -12 8 C-11.01 7.34 -10.02 6.68 -9 6 C-9.99 5.67 -10.98 5.34 -12 5 C-12 4.67 -12 4.34 -12 4 C-8.37 4 -4.74 4 -1 4 C-0.67 2.68 -0.34 1.36 0 0 Z " fill="#7890FE" transform="translate(114,69)"/>
<path d="M0 0 C2.64 0 5.28 0 8 0 C8.36386139 6.42821782 8.36386139 6.42821782 6.90625 8.71875 C4.05864657 10.63271296 1.69628509 10.28800847 -1.6875 10.1875 C-3.45673828 10.14689453 -3.45673828 10.14689453 -5.26171875 10.10546875 C-6.16535156 10.07066406 -7.06898437 10.03585938 -8 10 C-7.37480469 9.72027344 -6.74960938 9.44054687 -6.10546875 9.15234375 C-2.45333797 7.15349666 -1.27347839 3.82043518 0 0 Z " fill="#645AFE" transform="translate(119,86)"/>
<path d="M0 0 C5.94 0 11.88 0 18 0 C18.66 1.32 19.32 2.64 20 4 C17.703463 5.1482685 16.41686833 5.11561175 13.8671875 5.09765625 C13.06152344 5.09443359 12.25585938 5.09121094 11.42578125 5.08789062 C10.58402344 5.07951172 9.74226563 5.07113281 8.875 5.0625 C8.02550781 5.05798828 7.17601563 5.05347656 6.30078125 5.04882812 C4.20049091 5.03702874 2.1002367 5.01909306 0 5 C0 3.35 0 1.7 0 0 Z " fill="#34AEC6" transform="translate(98,49)"/>
<path d="M0 0 C1.08667969 0.02707031 2.17335938 0.05414063 3.29296875 0.08203125 C4.54013672 0.13423828 4.54013672 0.13423828 5.8125 0.1875 C5.8125 1.8375 5.8125 3.4875 5.8125 5.1875 C2.1825 5.1875 -1.4475 5.1875 -5.1875 5.1875 C-5.1875 6.8375 -5.1875 8.4875 -5.1875 10.1875 C-6.5075 10.1875 -7.8275 10.1875 -9.1875 10.1875 C-9.55218886 3.74466353 -9.55218886 3.74466353 -8.0625 1.46875 C-5.3504604 -0.38447706 -3.24426436 -0.10465369 0 0 Z " fill="#3C3D89" transform="translate(35.1875,48.8125)"/>
<path d="M0 0 C13.53 0 27.06 0 41 0 C41.495 0.99 41.495 0.99 42 2 C28.8 2 15.6 2 2 2 C2 2.66 2 3.32 2 4 C1.01 4 0.02 4 -1 4 C-0.67 2.68 -0.34 1.36 0 0 Z " fill="#33CFD6" transform="translate(42,45)"/>
<path d="M0 0 C0.33 0 0.66 0 1 0 C1.33 1.98 1.66 3.96 2 6 C4.64 6.33 7.28 6.66 10 7 C9.67 7.66 9.34 8.32 9 9 C8.34 9 7.68 9 7 9 C6.67 10.98 6.34 12.96 6 15 C3.66666667 15 1.33333333 15 -1 15 C-1.33 15.66 -1.66 16.32 -2 17 C-2.05398987 14.72942623 -2.09278742 12.45848712 -2.125 10.1875 C-2.14820312 8.92292969 -2.17140625 7.65835938 -2.1953125 6.35546875 C-2 3 -2 3 0 0 Z " fill="#6B70FE" transform="translate(104,107)"/>
<path d="M0 0 C1.93166016 0.01740234 1.93166016 0.01740234 3.90234375 0.03515625 C5.19269531 0.04417969 6.48304687 0.05320312 7.8125 0.0625 C8.81152344 0.07410156 9.81054688 0.08570312 10.83984375 0.09765625 C10.24429688 0.54367188 9.64875 0.9896875 9.03515625 1.44921875 C2.45644496 6.1303687 2.45644496 6.1303687 -1.16015625 13.09765625 C-2.15015625 13.09765625 -3.14015625 13.09765625 -4.16015625 13.09765625 C-4.18702178 11.11856227 -4.20649 9.13936654 -4.22265625 7.16015625 C-4.23425781 6.05800781 -4.24585937 4.95585938 -4.2578125 3.8203125 C-4.11749553 -0.09172464 -3.97435676 0.12281696 0 0 Z " fill="#42BEF2" transform="translate(109.16015625,95.90234375)"/>
<path d="M0 0 C5.61 0 11.22 0 17 0 C17 1.65 17 3.3 17 5 C11.39 5 5.78 5 0 5 C0 3.35 0 1.7 0 0 Z " fill="#3E3F8B" transform="translate(15,34)"/>
<path d="M0 0 C1.32 0 2.64 0 4 0 C4 6.6 4 13.2 4 20 C2.68 19.67 1.36 19.34 0 19 C0 12.73 0 6.46 0 0 Z " fill="#3E3E8B" transform="translate(115,63)"/>
<path d="M0 0 C1.67542976 0.28604898 3.34385343 0.61781233 5 1 C5.97477898 4.72188336 6.12816587 6.64248468 4.8125 10.3125 C3 13 3 13 0.88671875 13.66796875 C0.26410156 13.77753906 -0.35851562 13.88710938 -1 14 C-1.02685938 11.85423363 -1.04633088 9.70837355 -1.0625 7.5625 C-1.07410156 6.36753906 -1.08570312 5.17257813 -1.09765625 3.94140625 C-1 1 -1 1 0 0 Z " fill="#32C7DF" transform="translate(106,33)"/>
<path d="M0 0 C0.99 0 1.98 0 3 0 C3 3.63 3 7.26 3 11 C-1.95 11 -6.9 11 -12 11 C-12.33 10.34 -12.66 9.68 -13 9 C-9.93753253 7.21590198 -7.77920727 6.77119979 -4.25 6.875 C-3.45078125 6.89304687 -2.6515625 6.91109375 -1.828125 6.9296875 C-1.22484375 6.95289063 -0.6215625 6.97609375 0 7 C0 4.69 0 2.38 0 0 Z " fill="#38CBCD" transform="translate(95,49)"/>
<path d="M0 0 C8.58 0 17.16 0 26 0 C25.67 0.99 25.34 1.98 25 3 C17.08 3 9.16 3 1 3 C0.67 2.01 0.34 1.02 0 0 Z " fill="#4C4CA0" transform="translate(101,124)"/>
<path d="M0 0 C0.05390357 2.93774463 0.0936255 5.87450232 0.125 8.8125 C0.14175781 9.64587891 0.15851563 10.47925781 0.17578125 11.33789062 C0.18222656 12.14033203 0.18867187 12.94277344 0.1953125 13.76953125 C0.20578613 14.50792236 0.21625977 15.24631348 0.22705078 16.00708008 C0 18 0 18 -2 21 C-2.66 21 -3.32 21 -4 21 C-4.08086376 18.06195004 -4.1404283 15.12611925 -4.1875 12.1875 C-4.21263672 11.35412109 -4.23777344 10.52074219 -4.26367188 9.66210938 C-4.27333984 8.85966797 -4.28300781 8.05722656 -4.29296875 7.23046875 C-4.3086792 6.49207764 -4.32438965 5.75368652 -4.34057617 4.99291992 C-3.95360485 2.72851351 -2.66126154 0 0 0 Z " fill="#7080FE" transform="translate(127,93)"/>
<path d="M0 0 C5.94 0 11.88 0 18 0 C18.33 0.66 18.66 1.32 19 2 C15.1584024 4.56780471 11.1860825 4.22688882 6.75 4.125 C6.00492188 4.11597656 5.25984375 4.10695313 4.4921875 4.09765625 C2.66131941 4.07418358 0.83061762 4.03831525 -1 4 C-0.67 2.68 -0.34 1.36 0 0 Z " fill="#3DA8E4" transform="translate(49,56)"/>
<path d="M0 0 C2.27057377 -0.05398987 4.54151288 -0.09278742 6.8125 -0.125 C8.07707031 -0.14820313 9.34164062 -0.17140625 10.64453125 -0.1953125 C14 0 14 0 17 2 C19.02921669 2.27401018 19.02921669 2.27401018 21.23046875 2.1953125 C22.03291016 2.18886719 22.83535156 2.18242188 23.66210938 2.17578125 C24.91217773 2.15064453 24.91217773 2.15064453 26.1875 2.125 C27.03248047 2.11597656 27.87746094 2.10695312 28.74804688 2.09765625 C30.83215243 2.07410703 32.91611217 2.03823647 35 2 C34.67 3.32 34.34 4.64 34 6 C33.505 5.505 33.505 5.505 33 5 C31.44051458 4.84313751 29.87457332 4.74923361 28.30859375 4.68359375 C27.36435547 4.64169922 26.42011719 4.59980469 25.44726562 4.55664062 C24.45404297 4.51732422 23.46082031 4.47800781 22.4375 4.4375 C21.44041016 4.39431641 20.44332031 4.35113281 19.41601562 4.30664062 C16.9441585 4.20019702 14.4721969 4.09818072 12 4 C12 3.34 12 2.68 12 2 C8.37 2 4.74 2 1 2 C0.67 1.34 0.34 0.68 0 0 Z " fill="#73CCDC" transform="translate(83,45)"/>
<path d="M0 0 C2.64 0 5.28 0 8 0 C8 2.97 8 5.94 8 9 C6.68 9 5.36 9 4 9 C3.34 8.34 2.68 7.68 2 7 C1.34 7 0.68 7 0 7 C0 4.69 0 2.38 0 0 Z " fill="#3CBADC" transform="translate(26,59)"/>
<path d="M0 0 C1.24716797 0.00322266 2.49433594 0.00644531 3.77929688 0.00976562 C5.07287109 0.01814453 6.36644531 0.02652344 7.69921875 0.03515625 C9.66858398 0.04192383 9.66858398 0.04192383 11.67773438 0.04882812 C14.91410885 0.06059676 18.15039053 0.07703865 21.38671875 0.09765625 C21.05671875 0.75765625 20.72671875 1.41765625 20.38671875 2.09765625 C19.73074707 2.11747559 19.07477539 2.13729492 18.39892578 2.15771484 C15.43610806 2.25278132 12.47401343 2.36253377 9.51171875 2.47265625 C7.96291016 2.5190625 7.96291016 2.5190625 6.3828125 2.56640625 C4.90361328 2.62441406 4.90361328 2.62441406 3.39453125 2.68359375 C2.4833252 2.71501465 1.57211914 2.74643555 0.63330078 2.77880859 C-1.81259311 2.89648136 -1.81259311 2.89648136 -3.61328125 5.09765625 C-6.34197532 5.06478042 -8.90994305 4.53367854 -11.61328125 4.09765625 C-11.61328125 3.10765625 -11.61328125 2.11765625 -11.61328125 1.09765625 C-7.68039761 0.16677716 -4.03673962 -0.0184326 0 0 Z " fill="#D9D9E8" transform="translate(106.61328125,125.90234375)"/>
<path d="M0 0 C7.59 0 15.18 0 23 0 C23 0.33 23 0.66 23 1 C18.71 1 14.42 1 10 1 C10 3.31 10 5.62 10 8 C10.66 8.33 11.32 8.66 12 9 C10.02 9.99 10.02 9.99 8 11 C5.43312633 7.1496895 6.16711276 5.41430237 7 1 C4.69 1 2.38 1 0 1 C0 0.67 0 0.34 0 0 Z " fill="#9EE6E9" transform="translate(111,46)"/>
<path d="M0 0 C0.66 0 1.32 0 2 0 C2 2.97 2 5.94 2 9 C-1.3 9 -4.6 9 -8 9 C-7.34 8.67 -6.68 8.34 -6 8 C-5.87625 7.360625 -5.7525 6.72125 -5.625 6.0625 C-5 4 -5 4 -3 2.875 C-2.34 2.58625 -1.68 2.2975 -1 2 C-0.67 1.34 -0.34 0.68 0 0 Z " fill="#38DCC8" transform="translate(121,105)"/>
<path d="M0 0 C1.21236328 0.02707031 1.21236328 0.02707031 2.44921875 0.0546875 C3.37154297 0.08949219 3.37154297 0.08949219 4.3125 0.125 C4.3125 0.785 4.3125 1.445 4.3125 2.125 C3.6525 2.125 2.9925 2.125 2.3125 2.125 C1.9825 3.115 1.6525 4.105 1.3125 5.125 C-1.9875 5.455 -5.2875 5.785 -8.6875 6.125 C-7.3081398 0.60755919 -5.31956018 -0.15419015 0 0 Z " fill="#34CFD6" transform="translate(126.6875,32.875)"/>
<path d="M0 0 C1.98 0 3.96 0 6 0 C6.33 0.99 6.66 1.98 7 3 C6.01 3.66 5.02 4.32 4 5 C2.96352976 6.30518475 1.95577057 7.63461347 1 9 C-2.875 6.375 -2.875 6.375 -4 3 C-3.01 2.67 -2.02 2.34 -1 2 C-0.67 1.34 -0.34 0.68 0 0 Z " fill="#3FC1DA" transform="translate(53,86)"/>
<path d="M0 0 C1.23556641 0.01740234 1.23556641 0.01740234 2.49609375 0.03515625 C3.32238281 0.04417969 4.14867187 0.05320312 5 0.0625 C5.63808594 0.07410156 6.27617188 0.08570312 6.93359375 0.09765625 C6.60359375 0.75765625 6.27359375 1.41765625 5.93359375 2.09765625 C3.37109375 2.72265625 3.37109375 2.72265625 0.93359375 3.09765625 C1.26359375 4.08765625 1.59359375 5.07765625 1.93359375 6.09765625 C1.27359375 6.09765625 0.61359375 6.09765625 -0.06640625 6.09765625 C-0.39640625 7.74765625 -0.72640625 9.39765625 -1.06640625 11.09765625 C-1.72640625 11.09765625 -2.38640625 11.09765625 -3.06640625 11.09765625 C-3.09328776 9.45191059 -3.11274748 7.80604212 -3.12890625 6.16015625 C-3.14050781 5.24363281 -3.15210938 4.32710938 -3.1640625 3.3828125 C-3.03823137 0.4383641 -2.94124983 0.13900046 0 0 Z " fill="#409CE9" transform="translate(36.06640625,85.90234375)"/>
<path d="M0 0 C1.65 0 3.3 0 5 0 C5.02688151 1.64574566 5.04634123 3.29161413 5.0625 4.9375 C5.07410156 5.85402344 5.08570313 6.77054688 5.09765625 7.71484375 C5 10 5 10 4 11 C2.48071962 11.07179964 0.95832518 11.08392007 -0.5625 11.0625 C-1.38878906 11.05347656 -2.21507812 11.04445313 -3.06640625 11.03515625 C-3.70449219 11.02355469 -4.34257812 11.01195312 -5 11 C-3 8 -3 8 0.125 7.3125 C1.07375 7.209375 2.0225 7.10625 3 7 C3 5.35 3 3.7 3 2 C2.01 1.67 1.02 1.34 0 1 C0 0.67 0 0.34 0 0 Z " fill="#34D6CE" transform="translate(29,32)"/>
<path d="M0 0 C3.3 0 6.6 0 10 0 C9.67 0.66 9.34 1.32 9 2 C8.01 2 7.02 2 6 2 C5.7525 2.78375 5.505 3.5675 5.25 4.375 C4 7 4 7 0 9 C0 6.03 0 3.06 0 0 Z " fill="#3DBBDD" transform="translate(105,54)"/>
<path d="M0 0 C2.31 0 4.62 0 7 0 C7 1.65 7 3.3 7 5 C5.68 5 4.36 5 3 5 C3 5.99 3 6.98 3 8 C2.34 8 1.68 8 1 8 C0.67 8.99 0.34 9.98 0 11 C0 7.37 0 3.74 0 0 Z " fill="#5935FF" transform="translate(102,86)"/>
<path d="M0 0 C3.3 0 6.6 0 10 0 C10 1.98 10 3.96 10 6 C9.67 5.34 9.34 4.68 9 4 C8.01 4 7.02 4 6 4 C6 4.66 6 5.32 6 6 C4.35 6.33 2.7 6.66 1 7 C1.33 5.02 1.66 3.04 2 1 C1.34 0.67 0.68 0.34 0 0 Z " fill="#33CADB" transform="translate(16,59)"/>
<path d="M0 0 C-0.99 0.33 -1.98 0.66 -3 1 C-3 1.66 -3 2.32 -3 3 C-7.29 3 -11.58 3 -16 3 C-16.33 2.01 -16.66 1.02 -17 0 C-11.0885256 -0.77313045 -5.8685408 -1.14819277 0 0 Z " fill="#50CFDA" transform="translate(50,102)"/>
<path d="M0 0 C0.66 0.33 1.32 0.66 2 1 C2.04241723 3.33294775 2.04092937 5.66702567 2 8 C1 9 1 9 -2.5625 9.0625 C-3.696875 9.041875 -4.83125 9.02125 -6 9 C-4.25 5.125 -4.25 5.125 -2 4 C-0.86649466 1.98330173 -0.86649466 1.98330173 0 0 Z " fill="#37DDC3" transform="translate(58,96)"/>
<path d="M0 0 C3.36704285 -0.2295711 5.41370268 -0.33943529 8.375 1.375 C8.91125 1.91125 9.4475 2.4475 10 3 C10 3.66 10 4.32 10 5 C6.7 5 3.4 5 0 5 C0 3.35 0 1.7 0 0 Z " fill="#34ABC6" transform="translate(33,97)"/>
<path d="M0 0 C1.7074998 1.28062485 3.37373596 2.61767557 5 4 C5 4.66 5 5.32 5 6 C2.5 7.625 2.5 7.625 0 9 C0 8.01 0 7.02 0 6 C-0.66 6 -1.32 6 -2 6 C-2 4.35 -2 2.7 -2 1 C-1.34 0.67 -0.68 0.34 0 0 Z " fill="#94DEE9" transform="translate(50,91)"/>
<path d="M0 0 C0 3.3 0 6.6 0 10 C-1.32 10.33 -2.64 10.66 -4 11 C-4.3682455 3.51234156 -4.3682455 3.51234156 -2.5625 1 C-1 0 -1 0 0 0 Z " fill="#6C71FE" transform="translate(127,93)"/>
<path d="M0 0 C2.31 0 4.62 0 7 0 C7 1.65 7 3.3 7 5 C4.69 5 2.38 5 0 5 C0 3.35 0 1.7 0 0 Z " fill="#3C3E8A" transform="translate(98,49)"/>
<path d="M0 0 C4.62 0 9.24 0 14 0 C14.33 1.32 14.66 2.64 15 4 C14.01 4 13.02 4 12 4 C12 3.34 12 2.68 12 2 C8.37 2 4.74 2 1 2 C0.67 1.34 0.34 0.68 0 0 Z " fill="#58DAD4" transform="translate(83,45)"/>
<path d="M0 0 C0.66 0 1.32 0 2 0 C1.69128878 1.79232337 1.37790936 3.58384321 1.0625 5.375 C0.88847656 6.37273437 0.71445312 7.37046875 0.53515625 8.3984375 C0 11 0 11 -1 13 C-1.66 13 -2.32 13 -3 13 C-2.52060632 8.28596212 -2.03165952 4.33420699 0 0 Z " fill="#D5F1F6" transform="translate(47,89)"/>
<path d="M0 0 C1.67542976 0.28604898 3.34385343 0.61781233 5 1 C4.67 2.32 4.34 3.64 4 5 C2.68 5.33 1.36 5.66 0 6 C-0.38218767 4.34385343 -0.71395102 2.67542976 -1 1 C-0.67 0.67 -0.34 0.34 0 0 Z " fill="#49CFDB" transform="translate(22,67)"/>
<path d="M0 0 C1.65 0 3.3 0 5 0 C4.67 0.66 4.34 1.32 4 2 C3.34 2 2.68 2 2 2 C1.67 3.32 1.34 4.64 1 6 C2.32 6.33 3.64 6.66 5 7 C3.68 8.32 2.36 9.64 1 11 C0.01 10.67 -0.98 10.34 -2 10 C-1.01 9.34 -0.02 8.68 1 8 C0.67 7.67 0.34 7.34 0 7 C-0.04092937 4.66702567 -0.04241723 2.33294775 0 0 Z " fill="#58DAD6" transform="translate(121,47)"/>
<path d="M0 0 C0.33 0 0.66 0 1 0 C2.125 7.75 2.125 7.75 1 10 C0.01 10 -0.98 10 -2 10 C-2.25 3.375 -2.25 3.375 0 0 Z " fill="#6761FE" transform="translate(104,107)"/>
<path d="M0 0 C-0.54269531 0.33773437 -1.08539063 0.67546875 -1.64453125 1.0234375 C-2.71767578 1.69246094 -2.71767578 1.69246094 -3.8125 2.375 C-4.87404297 3.03628906 -4.87404297 3.03628906 -5.95703125 3.7109375 C-7.65432039 4.78188476 -9.33014358 5.88676239 -11 7 C-10.67 5.02 -10.34 3.04 -10 1 C-6.16112237 -0.48320272 -3.93795909 -1.22419163 0 0 Z " fill="#40C3ED" transform="translate(120,97)"/>
<path d="M0 0 C0.99 0 1.98 0 3 0 C3.33 0.66 3.66 1.32 4 2 C6.02463255 2.65213292 6.02463255 2.65213292 8 3 C7.67 4.65 7.34 6.3 7 8 C6.34 8 5.68 8 5 8 C4.731875 7.360625 4.46375 6.72125 4.1875 6.0625 C3.11332248 3.66868314 3.11332248 3.66868314 0 3 C0 2.01 0 1.02 0 0 Z " fill="#F3FBFC" transform="translate(22,63)"/>
<path d="M0 0 C1.32 0 2.64 0 4 0 C4 1.98 4 3.96 4 6 C2.68 6.33 1.36 6.66 0 7 C0 4.69 0 2.38 0 0 Z " fill="#39B0C7" transform="translate(26,59)"/>
<path d="M0 0 C0.33 0.99 0.66 1.98 1 3 C-1.64 3 -4.28 3 -7 3 C-7.33 2.01 -7.66 1.02 -8 0 C-4.71303767 -0.79953138 -3.28976808 -1.09658936 0 0 Z " fill="#35D8CB" transform="translate(28,77)"/>
<path d="M0 0 C2.875 0.1875 2.875 0.1875 6 1 C7.375 3.5625 7.375 3.5625 8 6 C5.69 6 3.38 6 1 6 C1.66 5.34 2.32 4.68 3 4 C2.01 2.68 1.02 1.36 0 0 Z " fill="#37BAC5" transform="translate(25,75)"/>
<path d="M0 0 C2.33944736 0.28730055 4.6739143 0.61936779 7 1 C6.01 1.66 5.02 2.32 4 3 C3.01 4.485 3.01 4.485 2 6 C1.34 6 0.68 6 0 6 C-0.38218767 4.34385343 -0.71395102 2.67542976 -1 1 C-0.67 0.67 -0.34 0.34 0 0 Z " fill="#DCF3F8" transform="translate(18,65)"/>
<path d="M0 0 C3.96 0.33 7.92 0.66 12 1 C12 1.33 12 1.66 12 2 C8.7 2 5.4 2 2 2 C2 2.66 2 3.32 2 4 C1.01 4 0.02 4 -1 4 C-0.67 2.68 -0.34 1.36 0 0 Z " fill="#32C4DF" transform="translate(42,45)"/>
<path d="M0 0 C0.66 0 1.32 0 2 0 C2 1.65 2 3.3 2 5 C2.66 5.33 3.32 5.66 4 6 C2.02 6.99 2.02 6.99 0 8 C-0.66 7.01 -1.32 6.02 -2 5 C-1.125 2.3125 -1.125 2.3125 0 0 Z " fill="#FDFEFE" transform="translate(119,49)"/>
<path d="M0 0 C3.3 0 6.6 0 10 0 C9.67 0.66 9.34 1.32 9 2 C7.02 2 5.04 2 3 2 C2.67 2.66 2.34 3.32 2 4 C1.01 4 0.02 4 -1 4 C-0.67 2.68 -0.34 1.36 0 0 Z " fill="#46B0F5" transform="translate(106,96)"/>
<path d="M0 0 C2.31 0.33 4.62 0.66 7 1 C6.01 1.33 5.02 1.66 4 2 C4 2.66 4 3.32 4 4 C1.69 4 -0.62 4 -3 4 C-2.34 3.67 -1.68 3.34 -1 3 C-0.67 2.01 -0.34 1.02 0 0 Z " fill="#48D7D1" transform="translate(43,101)"/>
<path d="M0 0 C0 2.31 0 4.62 0 7 C-0.99 6.67 -1.98 6.34 -3 6 C-3.66666667 4.66666667 -4.33333333 3.33333333 -5 2 C-1.125 0 -1.125 0 0 0 Z " fill="#37DDC7" transform="translate(34,73)"/>
<path d="M0 0 C0.66 0.33 1.32 0.66 2 1 C2.625 3.5625 2.625 3.5625 3 6 C1.68 6.33 0.36 6.66 -1 7 C-1 4.37886292 -0.68707555 2.49064888 0 0 Z " fill="#49C5CC" transform="translate(116,53)"/>
<path d="M0 0 C2.97 0 5.94 0 9 0 C8 2 8 2 6.25 2.6875 C3.60760177 3.05449975 1.57327078 2.64331769 -1 2 C-0.67 1.34 -0.34 0.68 0 0 Z " fill="#4693EB" transform="translate(34,86)"/>
<path d="M0 0 C1.65 0 3.3 0 5 0 C4.67 1.32 4.34 2.64 4 4 C2.68 4.33 1.36 4.66 0 5 C0 3.35 0 1.7 0 0 Z " fill="#5C3FFF" transform="translate(35,73)"/>
<path d="M0 0 C1.98 0.66 3.96 1.32 6 2 C6 2.99 6 3.98 6 5 C4.35 5 2.7 5 1 5 C0.67 3.35 0.34 1.7 0 0 Z " fill="#42CEDC" transform="translate(16,72)"/>
<path d="M0 0 C0.99 0 1.98 0 3 0 C3.33 1.32 3.66 2.64 4 4 C2.35 4.33 0.7 4.66 -1 5 C-0.67 3.35 -0.34 1.7 0 0 Z " fill="#35C1C5" transform="translate(47,97)"/>
<path d="M0 0 C0.99 0 1.98 0 3 0 C3 1.98 3 3.96 3 6 C2.67 5.34 2.34 4.68 2 4 C1.01 4 0.02 4 -1 4 C-0.67 2.68 -0.34 1.36 0 0 Z " fill="#45D0DC" transform="translate(23,59)"/>
</svg>
