<?xml version="1.0" encoding="UTF-8"?>
<svg version="1.1" xmlns="http://www.w3.org/2000/svg" width="150" height="150">
<path d="M0 0 C0.495 2.97 0.495 2.97 1 6 C3.85078091 6.76716851 3.85078091 6.76716851 7 7 C8.77190909 5.64555699 8.77190909 5.64555699 10 4 C10.66 4 11.32 4 12 4 C14.6875 6.8125 14.6875 6.8125 17 10 C16 13 16 13 14 14 C15.14339844 14.06058594 16.28679687 14.12117188 17.46484375 14.18359375 C18.95574305 14.26798428 20.44662775 14.35263302 21.9375 14.4375 C23.06961914 14.49647461 23.06961914 14.49647461 24.22460938 14.55664062 C29.88671875 14.88671875 29.88671875 14.88671875 31 16 C31.08713831 17.70772358 31.10700007 19.41898649 31.09765625 21.12890625 C31.09443359 22.16337891 31.09121094 23.19785156 31.08789062 24.26367188 C31.07951172 25.35228516 31.07113281 26.44089844 31.0625 27.5625 C31.05798828 28.65498047 31.05347656 29.74746094 31.04882812 30.87304688 C31.03699826 33.58208495 31.02051543 36.29101599 31 39 C31.99 39.33 32.98 39.66 34 40 C34.6875 42.0625 34.6875 42.0625 35 44 C36.32 44.33 37.64 44.66 39 45 C39.33 46.65 39.66 48.3 40 50 C39.01 50.33 38.02 50.66 37 51 C37.33 52.98 37.66 54.96 38 57 C34.21812119 58.83691257 32.05431692 59.15837626 28 58 C28 58.99 28 59.98 28 61 C26.02 60.67 24.04 60.34 22 60 C21.67 58.35 21.34 56.7 21 55 C19.68 55 18.36 55 17 55 C16.67 53.35 16.34 51.7 16 50 C17.32 49.67 18.64 49.34 20 49 C20 47.68 20 46.36 20 45 C18.35 45 16.7 45 15 45 C15 51.6 15 58.2 15 65 C17.31 65 19.62 65 22 65 C23 66 23 66 23.11352539 69.96899414 C23.1133662 71.74105607 23.10766785 73.5131226 23.09765625 75.28515625 C23.0962413 76.21597519 23.09482635 77.14679413 23.09336853 78.1058197 C23.08775172 81.09141191 23.0751964 84.07693029 23.0625 87.0625 C23.05748716 89.08137913 23.05292388 91.10025943 23.04882812 93.11914062 C23.03777683 98.07945572 23.02050095 103.03971532 23 108 C25.31 108.66 27.62 109.32 30 110 C29 112 29 112 27.34521484 112.61450195 C22.49200924 113.41225457 17.54404055 113.18590312 12.63769531 113.18530273 C10.63863013 113.18748512 8.63960468 113.20599143 6.640625 113.22460938 C5.36960937 113.22654297 4.09859375 113.22847656 2.7890625 113.23046875 C1.63100098 113.23457764 0.47293945 113.23868652 -0.72021484 113.24291992 C-4.11310954 112.99162245 -6.83332989 112.21173908 -10 111 C-9.67 110.34 -9.34 109.68 -9 109 C-6.4375 108.375 -6.4375 108.375 -4 108 C-4.67857056 107.99191315 -5.35714111 107.98382629 -6.05627441 107.97549438 C-13.19572947 107.88863335 -20.33493245 107.7891071 -27.47412109 107.68261719 C-30.12938188 107.64363425 -32.7845665 107.60971702 -35.43994141 107.578125 C-75.21071061 107.09913945 -75.21071061 107.09913945 -88 100 C-88 98.02 -88 96.04 -88 94 C-90.33214148 92.79371992 -92.49642139 91.8345262 -95 91 C-95 88.69 -95 86.38 -95 84 C-93.02 83.505 -93.02 83.505 -91 83 C-90.29925156 79.846632 -90 77.27275026 -90 74 C-87.5 72.25 -87.5 72.25 -85 71 C-84.5875 71.495 -84.175 71.99 -83.75 72.5 C-81.87797662 74.43386092 -81.87797662 74.43386092 -78 74 C-78 70.04 -78 66.08 -78 62 C-82.29 62 -86.58 62 -91 62 C-91 61.01 -91 60.02 -91 59 C-92.98 59 -94.96 59 -97 59 C-97 58.34 -97 57.68 -97 57 C-95.02 57 -93.04 57 -91 57 C-91 55.68 -91 54.36 -91 53 C-92.98 53 -94.96 53 -97 53 C-97 52.34 -97 51.68 -97 51 C-95.02 51 -93.04 51 -91 51 C-91 49.68 -91 48.36 -91 47 C-92.98 47 -94.96 47 -97 47 C-97 46.34 -97 45.68 -97 45 C-95.02 45 -93.04 45 -91 45 C-91 44.01 -91 43.02 -91 42 C-92.98 41.67 -94.96 41.34 -97 41 C-97 40.67 -97 40.34 -97 40 C-90.73 40 -84.46 40 -78 40 C-78 38.35 -78 36.7 -78 35 C-84.27 35 -90.54 35 -97 35 C-97 34.67 -97 34.34 -97 34 C-94.525 33.505 -94.525 33.505 -92 33 C-91.67 31.68 -91.34 30.36 -91 29 C-92.98 29 -94.96 29 -97 29 C-97 28.67 -97 28.34 -97 28 C-95.35 27.67 -93.7 27.34 -92 27 C-91.67 25.68 -91.34 24.36 -91 23 C-92.98 23 -94.96 23 -97 23 C-97 22.67 -97 22.34 -97 22 C-95.35 21.67 -93.7 21.34 -92 21 C-91.67 19.68 -91.34 18.36 -91 17 C-92.98 17 -94.96 17 -97 17 C-97 16.67 -97 16.34 -97 16 C-91.11060037 13.95887931 -85.8280285 13.72721958 -79.625 13.8125 C-78.25408203 13.8134668 -78.25408203 13.8134668 -76.85546875 13.81445312 C-70.14064837 13.85935163 -70.14064837 13.85935163 -69 15 C-66.19023482 15.16017166 -63.40226404 15.25950534 -60.58984375 15.31640625 C-59.74780899 15.33718735 -58.90577423 15.35796844 -58.03822327 15.37937927 C-55.33806821 15.44496812 -52.63781283 15.50380276 -49.9375 15.5625 C-48.11131759 15.60567637 -46.28514546 15.64929036 -44.45898438 15.69335938 C-39.97276008 15.80065894 -35.4864345 15.90189966 -31 16 C-31 16.33 -31 16.66 -31 17 C-43.87 17 -56.74 17 -70 17 C-69.67 18.32 -69.34 19.64 -69 21 C-56.46 21.33 -43.92 21.66 -31 22 C-31 22.33 -31 22.66 -31 23 C-43.87 23 -56.74 23 -70 23 C-69.67 24.32 -69.34 25.64 -69 27 C-51.51 27 -34.02 27 -16 27 C-16.495 23.535 -16.495 23.535 -17 20 C-18.65 19.67 -20.3 19.34 -22 19 C-21.01 16.03 -20.02 13.06 -19 10 C-17.329375 10.061875 -17.329375 10.061875 -15.625 10.125 C-11.95633975 10.41121859 -11.95633975 10.41121859 -10 8 C-9.83318891 4.91652174 -9.83318891 4.91652174 -10 2 C-3.375 0 -3.375 0 0 0 Z M-8 14 C-10.2084626 17.31269391 -10.80664241 19.14978851 -10.5546875 23.0625 C-9.4812192 26.81207941 -7.28696911 28.01541488 -4 30 C-1.36163023 30.1672392 -1.36163023 30.1672392 1 30 C1.03738281 29.01257813 1.07476562 28.02515625 1.11328125 27.0078125 C1.17902344 25.72648437 1.24476562 24.44515625 1.3125 23.125 C1.37050781 21.84882812 1.42851563 20.57265625 1.48828125 19.2578125 C1.65714844 18.18273437 1.82601562 17.10765625 2 16 C2.99 15.34 3.98 14.68 5 14 C3.01607489 11.60148679 3.01607489 11.60148679 -0.8125 11.5625 C-4.17733329 11.66669338 -5.04370031 12.02913354 -8 14 Z M-70 29 C-70 29.66 -70 30.32 -70 31 C-67.69 31 -65.38 31 -63 31 C-63 30.34 -63 29.68 -63 29 C-65.31 29 -67.62 29 -70 29 Z M23 47 C22.6366844 49.83386167 22.6431329 51.40522151 24.125 53.875 C26.92151052 55.55290631 28.93690532 54.74875648 32 54 C32.67673447 50.59679066 32.67673447 50.59679066 33 47 C31.11499729 44.68436913 31.11499729 44.68436913 28 44.75 C24.88500271 44.68436913 24.88500271 44.68436913 23 47 Z M-84.25 80.625 C-86.21985834 82.92308586 -86.21985834 82.92308586 -86.5 86 C-86.21376982 89.06575838 -86.21376982 89.06575838 -84.3125 91.375 C-81.61209763 93.27258004 -80.22939919 93.35882213 -77 93 C-76.85024761 85.94348748 -76.85024761 85.94348748 -78 79 C-81.92212225 78.60967296 -81.92212225 78.60967296 -84.25 80.625 Z M-67 95 C-68.485 97.475 -68.485 97.475 -70 100 C-57.13 99.01 -57.13 99.01 -44 98 C-43.67 97.01 -43.34 96.02 -43 95 C-46.93711437 94.85507281 -50.87354625 94.76605463 -54.8125 94.6875 C-55.93205078 94.64560547 -57.05160156 94.60371094 -58.20507812 94.56054688 C-59.81479492 94.53637695 -59.81479492 94.53637695 -61.45703125 94.51171875 C-62.44678955 94.48553467 -63.43654785 94.45935059 -64.45629883 94.43237305 C-65.29572021 94.61968994 -66.1351416 94.80700684 -67 95 Z M-19 95 C-19 95.99 -19 96.98 -19 98 C-13.72 98.33 -8.44 98.66 -3 99 C-3 97.68 -3 96.36 -3 95 C-8.28 95 -13.56 95 -19 95 Z M-76 97 C-77.65 97.66 -79.3 98.32 -81 99 C-80.67 99.99 -80.34 100.98 -80 102 C-77.69 101.34 -75.38 100.68 -73 100 C-73.99 99.01 -74.98 98.02 -76 97 Z " fill="#3AC5D7" transform="translate(104,18)"/>
<path d="M0 0 C2.31 0 4.62 0 7 0 C7 2.97 7 5.94 7 9 C10.3 9 13.6 9 17 9 C17 15.6 17 22.2 17 29 C12.71 29 8.42 29 4 29 C4 32.96 4 36.92 4 41 C7.4082323 41.85205807 9.37515984 42.07451001 12.765625 41.87890625 C13.65507813 41.83056641 14.54453125 41.78222656 15.4609375 41.73242188 C16.84152344 41.64831055 16.84152344 41.64831055 18.25 41.5625 C19.18585938 41.51029297 20.12171875 41.45808594 21.0859375 41.40429688 C23.39098887 41.27493175 25.69557289 41.13997966 28 41 C29.11911712 44.35735137 29.11365586 46.88205386 29.09765625 50.41796875 C29.09282227 52.29838867 29.09282227 52.29838867 29.08789062 54.21679688 C29.07532227 56.18229492 29.07532227 56.18229492 29.0625 58.1875 C29.05748317 59.52278481 29.05292059 60.85807141 29.04882812 62.19335938 C29.03702695 65.46228473 29.02056297 68.73111991 29 72 C31.31 72.66 33.62 73.32 36 74 C35 76 35 76 33.34521484 76.61450195 C28.49200924 77.41225457 23.54404055 77.18590312 18.63769531 77.18530273 C16.63863013 77.18748512 14.63960468 77.20599143 12.640625 77.22460938 C11.36960937 77.22654297 10.09859375 77.22847656 8.7890625 77.23046875 C7.63100098 77.23457764 6.47293945 77.23868652 5.27978516 77.24291992 C1.88689046 76.99162245 -0.83332989 76.21173908 -4 75 C-3.67 74.34 -3.34 73.68 -3 73 C-0.4375 72.375 -0.4375 72.375 2 72 C1.32142944 71.99191315 0.64285889 71.98382629 -0.05627441 71.97549438 C-7.19572947 71.88863335 -14.33493245 71.7891071 -21.47412109 71.68261719 C-24.12938188 71.64363425 -26.7845665 71.60971702 -29.43994141 71.578125 C-69.21071061 71.09913945 -69.21071061 71.09913945 -82 64 C-82 62.02 -82 60.04 -82 58 C-84.33214148 56.79371992 -86.49642139 55.8345262 -89 55 C-89 52.69 -89 50.38 -89 48 C-87.02 47.505 -87.02 47.505 -85 47 C-84.29925156 43.846632 -84 41.27275026 -84 38 C-81.5 36.25 -81.5 36.25 -79 35 C-78.5875 35.495 -78.175 35.99 -77.75 36.5 C-75.87797662 38.43386092 -75.87797662 38.43386092 -72 38 C-72 39.65 -72 41.3 -72 43 C-72.969375 43.28875 -73.93875 43.5775 -74.9375 43.875 C-78.10664203 44.64214682 -78.10664203 44.64214682 -79 47 C-79.40270732 51.1283652 -79.40270732 51.1283652 -77.8125 54.8125 C-75.57968261 56.27538036 -73.62655933 56.64505955 -71 57 C-71 54.03 -71 51.06 -71 48 C-69.02 48 -67.04 48 -65 48 C-64.67 48.66 -64.34 49.32 -64 50 C-55.75 50 -47.5 50 -39 50 C-38.505 49.01 -38.505 49.01 -38 48 C-24.47 48 -10.94 48 3 48 C3 46.35 3 44.7 3 43 C-10.53 43 -24.06 43 -38 43 C-38.33 39.7 -38.66 36.4 -39 33 C-41.64 33 -44.28 33 -47 33 C-48.10836423 34.88316159 -48.10836423 34.88316159 -49 37 C-48.67 37.66 -48.34 38.32 -48 39 C-47.01 38.34 -46.02 37.68 -45 37 C-43.68 38.65 -42.36 40.3 -41 42 C-42.65 43.32 -44.3 44.64 -46 46 C-46 45.01 -46 44.02 -46 43 C-48.475 43.495 -48.475 43.495 -51 44 C-51.33 44.99 -51.66 45.98 -52 47 C-52.66 47 -53.32 47 -54 47 C-54 45.68 -54 44.36 -54 43 C-54.99 43 -55.98 43 -57 43 C-57.33 43.99 -57.66 44.98 -58 46 C-60.31 45.01 -62.62 44.02 -65 43 C-65 39.7 -65 36.4 -65 33 C-63.02 32.01 -61.04 31.02 -59 30 C-59 29.34 -59 28.68 -59 28 C-53.12241802 26.74996212 -47.273904 26.79382811 -41.29296875 26.71875 C-40.17183182 26.70034058 -39.05069489 26.68193115 -37.89558411 26.66296387 C-33.10895147 26.58440048 -28.32218641 26.51623256 -23.53540039 26.44775391 C-20.0378484 26.39621153 -16.5404241 26.33892541 -13.04296875 26.28125 C-11.40560005 26.26088684 -11.40560005 26.26088684 -9.7351532 26.2401123 C-8.73353653 26.22339478 -7.73191986 26.20667725 -6.69995117 26.18945312 C-5.81425949 26.17692505 -4.92856781 26.16439697 -4.01603699 26.15148926 C-2.00322242 26.22060068 -2.00322242 26.22060068 -1 25 C-0.84213692 23.14825294 -0.74892644 21.2909089 -0.68359375 19.43359375 C-0.64169922 18.30888672 -0.59980469 17.18417969 -0.55664062 16.02539062 C-0.51732422 14.84138672 -0.47800781 13.65738281 -0.4375 12.4375 C-0.37272461 10.65569336 -0.37272461 10.65569336 -0.30664062 8.83789062 C-0.20016454 5.89205216 -0.09815159 2.9461257 0 0 Z M-61 59 C-62.485 61.475 -62.485 61.475 -64 64 C-51.13 63.01 -51.13 63.01 -38 62 C-37.67 61.01 -37.34 60.02 -37 59 C-40.93711437 58.85507281 -44.87354625 58.76605463 -48.8125 58.6875 C-49.93205078 58.64560547 -51.05160156 58.60371094 -52.20507812 58.56054688 C-53.81479492 58.53637695 -53.81479492 58.53637695 -55.45703125 58.51171875 C-56.44678955 58.48553467 -57.43654785 58.45935059 -58.45629883 58.43237305 C-59.29572021 58.61968994 -60.1351416 58.80700684 -61 59 Z M-13 59 C-13 59.99 -13 60.98 -13 62 C-7.72 62.33 -2.44 62.66 3 63 C3 61.68 3 60.36 3 59 C-2.28 59 -7.56 59 -13 59 Z M-70 61 C-71.65 61.66 -73.3 62.32 -75 63 C-74.67 63.99 -74.34 64.98 -74 66 C-71.69 65.34 -69.38 64.68 -67 64 C-67.99 63.01 -68.98 62.02 -70 61 Z " fill="#7489FD" transform="translate(98,54)"/>
<path d="M0 0 C0.5775 0.495 1.155 0.99 1.75 1.5 C4.10400629 3.36980013 4.10400629 3.36980013 8 3 C8 4.65 8 6.3 8 8 C7.030625 8.28875 6.06125 8.5775 5.0625 8.875 C1.89335797 9.64214682 1.89335797 9.64214682 1 12 C0.59729268 16.1283652 0.59729268 16.1283652 2.1875 19.8125 C4.42031739 21.27538036 6.37344067 21.64505955 9 22 C9 19.03 9 16.06 9 13 C10.98 13 12.96 13 15 13 C15.33 13.66 15.66 14.32 16 15 C24.25 15 32.5 15 41 15 C41.33 14.34 41.66 13.68 42 13 C55.53 13 69.06 13 83 13 C83 16.63 83 20.26 83 24 C77.72 24 72.44 24 67 24 C67 24.99 67 25.98 67 27 C67.56847656 26.98839844 68.13695313 26.97679688 68.72265625 26.96484375 C73.60670484 26.90776806 78.18503965 27.18043228 83 28 C83 30.64 83 33.28 83 36 C75.71409984 36.04682155 68.42823335 36.08211748 61.14221191 36.10362434 C57.75718789 36.11395864 54.37226851 36.12792229 50.98730469 36.15087891 C11.33131775 36.40001112 11.33131775 36.40001112 -2 29 C-2 27.02 -2 25.04 -2 23 C-4.33214148 21.79371992 -6.49642139 20.8345262 -9 20 C-9 17.69 -9 15.38 -9 13 C-7.68 12.67 -6.36 12.34 -5 12 C-4.29925156 8.846632 -4 6.27275026 -4 3 C-2 1.25 -2 1.25 0 0 Z M19 24 C17.515 26.475 17.515 26.475 16 29 C28.87 28.01 28.87 28.01 42 27 C42.33 26.01 42.66 25.02 43 24 C39.06288563 23.85507281 35.12645375 23.76605463 31.1875 23.6875 C30.06794922 23.64560547 28.94839844 23.60371094 27.79492188 23.56054688 C26.18520508 23.53637695 26.18520508 23.53637695 24.54296875 23.51171875 C23.55321045 23.48553467 22.56345215 23.45935059 21.54370117 23.43237305 C20.70427979 23.61968994 19.8648584 23.80700684 19 24 Z M10 26 C8.35 26.66 6.7 27.32 5 28 C5.33 28.99 5.66 29.98 6 31 C8.31 30.34 10.62 29.68 13 29 C12.01 28.01 11.02 27.02 10 26 Z " fill="#B5D1FE" transform="translate(18,89)"/>
<path d="M0 0 C16.83 0 33.66 0 51 0 C51 10.23 51 20.46 51 31 C34.17 31 17.34 31 0 31 C0 20.77 0 10.54 0 0 Z " fill="#474E93" transform="translate(44,47)"/>
<path d="M0 0 C0.33 1.98 0.66 3.96 1 6 C3.85078091 6.76716851 3.85078091 6.76716851 7 7 C8.77190909 5.64555699 8.77190909 5.64555699 10 4 C10.66 4 11.32 4 12 4 C14.6875 6.8125 14.6875 6.8125 17 10 C16 13 16 13 14 14 C15.14339844 14.06058594 16.28679687 14.12117188 17.46484375 14.18359375 C18.95574305 14.26798428 20.44662775 14.35263302 21.9375 14.4375 C23.06961914 14.49647461 23.06961914 14.49647461 24.22460938 14.55664062 C29.88671875 14.88671875 29.88671875 14.88671875 31 16 C31.08713831 17.70772358 31.10700007 19.41898649 31.09765625 21.12890625 C31.09443359 22.16337891 31.09121094 23.19785156 31.08789062 24.26367188 C31.07532227 25.8965918 31.07532227 25.8965918 31.0625 27.5625 C31.05798828 28.65498047 31.05347656 29.74746094 31.04882812 30.87304688 C31.03699826 33.58208495 31.02051543 36.29101599 31 39 C31.99 39.33 32.98 39.66 34 40 C34.6875 42.0625 34.6875 42.0625 35 44 C36.32 44.33 37.64 44.66 39 45 C39.495 47.475 39.495 47.475 40 50 C39.01 50.33 38.02 50.66 37 51 C37.495 53.97 37.495 53.97 38 57 C34.21812119 58.83691257 32.05431692 59.15837626 28 58 C28 58.99 28 59.98 28 61 C25.03 60.505 25.03 60.505 22 60 C21.67 58.35 21.34 56.7 21 55 C19.68 55 18.36 55 17 55 C16.67 53.35 16.34 51.7 16 50 C17.98 49.505 17.98 49.505 20 49 C20 47.68 20 46.36 20 45 C19.236875 45.103125 18.47375 45.20625 17.6875 45.3125 C16.800625 45.209375 15.91375 45.10625 15 45 C13.18116991 42.6167054 12 41.04181663 12 38 C12.66 38 13.32 38 14 38 C13.505 35.03 13.505 35.03 13 32 C5.74 31.67 -1.52 31.34 -9 31 C-9 30.34 -9 29.68 -9 29 C-11.31 29 -13.62 29 -16 29 C-16.33 26.03 -16.66 23.06 -17 20 C-18.65 19.67 -20.3 19.34 -22 19 C-21.01 16.03 -20.02 13.06 -19 10 C-17.329375 10.061875 -17.329375 10.061875 -15.625 10.125 C-11.95633975 10.41121859 -11.95633975 10.41121859 -10 8 C-9.83318891 4.91652174 -9.83318891 4.91652174 -10 2 C-3.375 0 -3.375 0 0 0 Z M-8 14 C-10.2084626 17.31269391 -10.80664241 19.14978851 -10.5546875 23.0625 C-9.4812192 26.81207941 -7.28696911 28.01541488 -4 30 C-1.36163023 30.1672392 -1.36163023 30.1672392 1 30 C1.03738281 29.01257813 1.07476562 28.02515625 1.11328125 27.0078125 C1.17902344 25.72648437 1.24476562 24.44515625 1.3125 23.125 C1.37050781 21.84882812 1.42851563 20.57265625 1.48828125 19.2578125 C1.65714844 18.18273437 1.82601562 17.10765625 2 16 C2.99 15.34 3.98 14.68 5 14 C3.01607489 11.60148679 3.01607489 11.60148679 -0.8125 11.5625 C-4.17733329 11.66669338 -5.04370031 12.02913354 -8 14 Z M23 47 C22.6366844 49.83386167 22.6431329 51.40522151 24.125 53.875 C26.92151052 55.55290631 28.93690532 54.74875648 32 54 C32.67673447 50.59679066 32.67673447 50.59679066 33 47 C31.11499729 44.68436913 31.11499729 44.68436913 28 44.75 C24.88500271 44.68436913 24.88500271 44.68436913 23 47 Z " fill="#35DCC6" transform="translate(104,18)"/>
<path d="M0 0 C0.5775 0.495 1.155 0.99 1.75 1.5 C4.10400629 3.36980013 4.10400629 3.36980013 8 3 C8 4.65 8 6.3 8 8 C7.030625 8.28875 6.06125 8.5775 5.0625 8.875 C1.89335797 9.64214682 1.89335797 9.64214682 1 12 C0.59694805 16.08388307 0.59694805 16.08388307 2.125 19.75 C7.22242182 23.14828121 13.0594145 23.49835056 19 24 C18.67 25.32 18.34 26.64 18 28 C25.92 27.67 33.84 27.34 42 27 C41.67 27.66 41.34 28.32 41 29 C38.35139573 29.59355614 35.70802678 29.74209269 33 30 C33 30.66 33 31.32 33 32 C47.19 32 61.38 32 76 32 C75.505 31.01 75.505 31.01 75 30 C73.845 29.835 72.69 29.67 71.5 29.5 C70.345 29.335 69.19 29.17 68 29 C67.505 28.01 67.505 28.01 67 27 C72.45769811 26.88861841 77.61509359 27.08342019 83 28 C83 30.64 83 33.28 83 36 C75.71409984 36.04682155 68.42823335 36.08211748 61.14221191 36.10362434 C57.75718789 36.11395864 54.37226851 36.12792229 50.98730469 36.15087891 C11.33131775 36.40001112 11.33131775 36.40001112 -2 29 C-2 27.02 -2 25.04 -2 23 C-4.33214148 21.79371992 -6.49642139 20.8345262 -9 20 C-9 17.69 -9 15.38 -9 13 C-7.68 12.67 -6.36 12.34 -5 12 C-4.29925156 8.846632 -4 6.27275026 -4 3 C-2 1.25 -2 1.25 0 0 Z M10 26 C8.35 26.66 6.7 27.32 5 28 C5.33 28.99 5.66 29.98 6 31 C8.31 30.34 10.62 29.68 13 29 C12.01 28.01 11.02 27.02 10 26 Z " fill="#EAEBF2" transform="translate(18,89)"/>
<path d="M0 0 C0.9237442 0.00141495 1.8474884 0.0028299 2.79922485 0.00428772 C5.73337112 0.00986016 8.66743951 0.02240756 11.6015625 0.03515625 C13.59765514 0.04017481 15.59374899 0.0447371 17.58984375 0.04882812 C22.46877975 0.05982056 27.34765795 0.07706615 32.2265625 0.09765625 C31.2265625 3.09765625 31.2265625 3.09765625 29.2265625 4.09765625 C27.68632254 4.16716166 26.14321262 4.18217982 24.6015625 4.16015625 C23.37566406 4.14662109 23.37566406 4.14662109 22.125 4.1328125 C21.49851563 4.12121094 20.87203125 4.10960938 20.2265625 4.09765625 C20.2265625 6.40765625 20.2265625 8.71765625 20.2265625 11.09765625 C24.8465625 11.09765625 29.4665625 11.09765625 34.2265625 11.09765625 C33.5665625 12.74765625 32.9065625 14.39765625 32.2265625 16.09765625 C23.3165625 16.09765625 14.4065625 16.09765625 5.2265625 16.09765625 C4.7315625 11.14765625 4.7315625 11.14765625 4.2265625 6.09765625 C1.5865625 6.09765625 -1.0534375 6.09765625 -3.7734375 6.09765625 C-4.88180173 7.98081784 -4.88180173 7.98081784 -5.7734375 10.09765625 C-5.4434375 10.75765625 -5.1134375 11.41765625 -4.7734375 12.09765625 C-3.7834375 11.43765625 -2.7934375 10.77765625 -1.7734375 10.09765625 C-0.4534375 11.74765625 0.8665625 13.39765625 2.2265625 15.09765625 C0.5765625 16.41765625 -1.0734375 17.73765625 -2.7734375 19.09765625 C-2.7734375 18.10765625 -2.7734375 17.11765625 -2.7734375 16.09765625 C-4.4234375 16.42765625 -6.0734375 16.75765625 -7.7734375 17.09765625 C-8.1034375 18.08765625 -8.4334375 19.07765625 -8.7734375 20.09765625 C-9.4334375 20.09765625 -10.0934375 20.09765625 -10.7734375 20.09765625 C-10.7734375 18.77765625 -10.7734375 17.45765625 -10.7734375 16.09765625 C-11.7634375 16.09765625 -12.7534375 16.09765625 -13.7734375 16.09765625 C-14.1034375 17.08765625 -14.4334375 18.07765625 -14.7734375 19.09765625 C-17.0834375 18.10765625 -19.3934375 17.11765625 -21.7734375 16.09765625 C-21.7734375 12.79765625 -21.7734375 9.49765625 -21.7734375 6.09765625 C-19.7934375 5.10765625 -17.8134375 4.11765625 -15.7734375 3.09765625 C-15.7734375 2.43765625 -15.7734375 1.77765625 -15.7734375 1.09765625 C-10.4761582 0.00258206 -5.3801258 -0.03128016 0 0 Z " fill="#6C72FE" transform="translate(54.7734375,80.90234375)"/>
<path d="M0 0 C1.37091797 0.0009668 1.37091797 0.0009668 2.76953125 0.00195312 C9.48435163 0.04685163 9.48435163 0.04685163 10.625 1.1875 C13.43476518 1.34767166 16.22273596 1.44700534 19.03515625 1.50390625 C19.87719101 1.52468735 20.71922577 1.54546844 21.58677673 1.56687927 C24.28693179 1.63246812 26.98718717 1.69130276 29.6875 1.75 C31.51368241 1.79317637 33.33985454 1.83679036 35.16601562 1.88085938 C39.65223992 1.98815894 44.1385655 2.08939966 48.625 2.1875 C48.625 2.5175 48.625 2.8475 48.625 3.1875 C35.755 3.1875 22.885 3.1875 9.625 3.1875 C9.955 4.5075 10.285 5.8275 10.625 7.1875 C23.165 7.5175 35.705 7.8475 48.625 8.1875 C48.625 8.5175 48.625 8.8475 48.625 9.1875 C35.755 9.1875 22.885 9.1875 9.625 9.1875 C9.955 10.5075 10.285 11.8275 10.625 13.1875 C28.445 13.1875 46.265 13.1875 64.625 13.1875 C64.295 13.8475 63.965 14.5075 63.625 15.1875 C49.105 15.1875 34.585 15.1875 19.625 15.1875 C19.625 15.8475 19.625 16.5075 19.625 17.1875 C18.635 17.1875 17.645 17.1875 16.625 17.1875 C16.625 16.5275 16.625 15.8675 16.625 15.1875 C14.315 15.1875 12.005 15.1875 9.625 15.1875 C9.625 17.1675 9.625 19.1475 9.625 21.1875 C0.715 21.1875 -8.195 21.1875 -17.375 21.1875 C-17.375 20.8575 -17.375 20.5275 -17.375 20.1875 C-15.725 19.8575 -14.075 19.5275 -12.375 19.1875 C-12.045 17.8675 -11.715 16.5475 -11.375 15.1875 C-13.355 15.1875 -15.335 15.1875 -17.375 15.1875 C-17.375 14.8575 -17.375 14.5275 -17.375 14.1875 C-15.725 13.8575 -14.075 13.5275 -12.375 13.1875 C-12.045 11.8675 -11.715 10.5475 -11.375 9.1875 C-13.355 9.1875 -15.335 9.1875 -17.375 9.1875 C-17.375 8.8575 -17.375 8.5275 -17.375 8.1875 C-15.725 7.8575 -14.075 7.5275 -12.375 7.1875 C-12.045 5.8675 -11.715 4.5475 -11.375 3.1875 C-13.355 3.1875 -15.335 3.1875 -17.375 3.1875 C-17.375 2.8575 -17.375 2.5275 -17.375 2.1875 C-11.48560037 0.14637931 -6.2030285 -0.08528042 0 0 Z " fill="#81DDDE" transform="translate(24.375,31.8125)"/>
<path d="M0 0 C0.33 1.98 0.66 3.96 1 6 C3.85078091 6.76716851 3.85078091 6.76716851 7 7 C8.77190909 5.64555699 8.77190909 5.64555699 10 4 C10.66 4 11.32 4 12 4 C14.6875 6.8125 14.6875 6.8125 17 10 C16 13 16 13 13 15 C10.23979004 15.37167184 7.81147524 15.17850636 5 15 C4.34 14.34 3.68 13.68 3 13 C-2.54235245 12.42765564 -2.54235245 12.42765564 -7.5 14.5 C-9.61452102 18.0242017 -9.93350908 20.99573739 -9 25 C-7.08817732 27.74612994 -7.08817732 27.74612994 -4 29 C-0.03460165 29 2.11974569 28.77669498 5.125 26.125 C5.74375 25.42375 6.3625 24.7225 7 24 C8.64605826 22.96642853 10.30963442 21.95939668 12 21 C12.495 20.505 12.495 20.505 13 20 C15.92728993 19.69186422 17.42560445 19.56425165 19.8125 21.375 C21 23 21 23 21 25 C22.65 25 24.3 25 26 25 C26.66 26.32 27.32 27.64 28 29 C24.37 29 20.74 29 17 29 C17 32.3 17 35.6 17 39 C17.66 39 18.32 39 19 39 C18.34 40.32 17.68 41.64 17 43 C15.0625 42.1875 15.0625 42.1875 13 41 C12.67 40.01 12.34 39.02 12 38 C12.66 38 13.32 38 14 38 C13.505 35.03 13.505 35.03 13 32 C5.74 31.67 -1.52 31.34 -9 31 C-9 30.34 -9 29.68 -9 29 C-11.31 29 -13.62 29 -16 29 C-16.33 26.03 -16.66 23.06 -17 20 C-18.65 19.67 -20.3 19.34 -22 19 C-21.01 16.03 -20.02 13.06 -19 10 C-17.329375 10.061875 -17.329375 10.061875 -15.625 10.125 C-11.95633975 10.41121859 -11.95633975 10.41121859 -10 8 C-9.83318891 4.91652174 -9.83318891 4.91652174 -10 2 C-3.375 0 -3.375 0 0 0 Z " fill="#E9EBF1" transform="translate(104,18)"/>
<path d="M0 0 C3.0000624 -0.02721831 5.99987256 -0.04694378 9 -0.0625 C9.83917969 -0.07087891 10.67835937 -0.07925781 11.54296875 -0.08789062 C12.79013672 -0.09272461 12.79013672 -0.09272461 14.0625 -0.09765625 C15.19365234 -0.10551147 15.19365234 -0.10551147 16.34765625 -0.11352539 C19.91451913 0.03914317 23.45744034 0.55718004 27 1 C27 7.93 27 14.86 27 22 C20.07 22 13.14 22 6 22 C6 21.01 6 20.02 6 19 C4.02 19 2.04 19 0 19 C0 18.34 0 17.68 0 17 C1.98 17 3.96 17 6 17 C6 15.68 6 14.36 6 13 C4.02 13 2.04 13 0 13 C0 12.34 0 11.68 0 11 C1.98 11 3.96 11 6 11 C6 9.68 6 8.36 6 7 C4.02 7 2.04 7 0 7 C0 6.34 0 5.68 0 5 C1.98 5 3.96 5 6 5 C6 4.01 6 3.02 6 2 C3.03 1.505 3.03 1.505 0 1 C0 0.67 0 0.34 0 0 Z " fill="#3DCDCE" transform="translate(7,58)"/>
<path d="M0 0 C2.60341656 2.60341656 1 7.31821299 1 11 C14.53 11 28.06 11 42 11 C42 12.65 42 14.3 42 16 C28.47 16 14.94 16 1 16 C0.67 16.99 0.34 17.98 0 19 C-4.14581887 19.02886751 -8.29161216 19.04675327 -12.4375 19.0625 C-14.21350586 19.07506836 -14.21350586 19.07506836 -16.02539062 19.08789062 C-17.15009766 19.09111328 -18.27480469 19.09433594 -19.43359375 19.09765625 C-20.99678345 19.10551147 -20.99678345 19.10551147 -22.59155273 19.11352539 C-25 19 -25 19 -26 18 C-26.04092937 15.66702567 -26.04241723 13.33294775 -26 11 C-20.125 11.875 -20.125 11.875 -19 13 C-18.67 12.34 -18.34 11.68 -18 11 C-17.01 11 -16.02 11 -15 11 C-15 12.32 -15 13.64 -15 15 C-14.34 15 -13.68 15 -13 15 C-12.67 13.68 -12.34 12.36 -12 11 C-10.35 11 -8.7 11 -7 11 C-6.67 11.66 -6.34 12.32 -6 13 C-5.01 11.68 -4.02 10.36 -3 9 C-4.32 8.01 -5.64 7.02 -7 6 C-7.99 6.66 -8.98 7.32 -10 8 C-10 7.01 -10 6.02 -10 5 C-10.66 4.67 -11.32 4.34 -12 4 C-8.41466389 -0.78044814 -5.59074961 -0.45825816 0 0 Z " fill="#35DCC2" transform="translate(59,86)"/>
<path d="M0 0 C2.31 0 4.62 0 7 0 C7.01458252 0.89307861 7.02916504 1.78615723 7.04418945 2.70629883 C7.10527077 6.02217278 7.17942478 9.33721899 7.26245117 12.65258789 C7.29569001 14.08704628 7.32372535 15.52163513 7.34643555 16.95629883 C7.38000271 19.01960807 7.43231413 21.08172303 7.48828125 23.14453125 C7.51446533 24.38565674 7.54064941 25.62678223 7.56762695 26.90551758 C7.73288164 29.99878317 7.73288164 29.99878317 9.53198242 31.9284668 C10.25865112 32.45887573 10.25865112 32.45887573 11 33 C7.893533 36.106467 4.16532512 36.69089782 0 38 C-0.33 42.95 -0.66 47.9 -1 53 C-3.31 53 -5.62 53 -8 53 C-8 45.74 -8 38.48 -8 31 C-5.36 31 -2.72 31 0 31 C0 24.07 0 17.14 0 10 C-2.64 10 -5.28 10 -8 10 C-8 8.02 -8 6.04 -8 4 C-5.36 4 -2.72 4 0 4 C0 2.68 0 1.36 0 0 Z " fill="#5D51FC" transform="translate(34,49)"/>
<path d="M0 0 C1.32 0 2.64 0 4 0 C4 6.6 4 13.2 4 20 C6.31 20 8.62 20 11 20 C12 21 12 21 12.09765625 24.16015625 C12.08605469 25.44792969 12.07445313 26.73570313 12.0625 28.0625 C12.05347656 29.35285156 12.04445313 30.64320312 12.03515625 31.97265625 C12.02355469 32.97167969 12.01195313 33.97070312 12 35 C11.67 34.01 11.34 33.02 11 32 C10.34257813 32.15082031 9.68515625 32.30164063 9.0078125 32.45703125 C5.30953843 33.12464176 1.61898457 33.43176335 -2.125 33.6875 C-2.84042969 33.74744141 -3.55585937 33.80738281 -4.29296875 33.86914062 C-8.16304467 34.13317384 -9.67940233 34.21373178 -13 32 C-13.546875 29.6875 -13.546875 29.6875 -13.75 27 C-13.82734375 26.113125 -13.9046875 25.22625 -13.984375 24.3125 C-14 22 -14 22 -13 20 C-8.71 20 -4.42 20 0 20 C0 13.4 0 6.8 0 0 Z " fill="#604EFC" transform="translate(115,63)"/>
<path d="M0 0 C1.65 0 3.3 0 5 0 C6.07917226 3.23751678 6.11425601 5.57751771 6.09765625 8.98046875 C6.09443359 10.14384766 6.09121094 11.30722656 6.08789062 12.50585938 C6.07951172 13.72080078 6.07113281 14.93574219 6.0625 16.1875 C6.05798828 17.41404297 6.05347656 18.64058594 6.04882812 19.90429688 C6.03703076 22.93621865 6.01909514 25.9681154 6 29 C-2.25 29 -10.5 29 -19 29 C-19.29296875 19.0390625 -19.29296875 19.0390625 -19 16 C-18.01 15.34 -17.02 14.68 -16 14 C-15.67 15.32 -15.34 16.64 -15 18 C-9.39 18.33 -3.78 18.66 2 19 C2 13.06 2 7.12 2 1 C1.34 0.67 0.68 0.34 0 0 Z " fill="#7284FE" transform="translate(121,95)"/>
<path d="M0 0 C1.98 0 3.96 0 6 0 C6.33 0.66 6.66 1.32 7 2 C15.25 2 23.5 2 32 2 C32.33 1.34 32.66 0.68 33 0 C36.96 0 40.92 0 45 0 C45 0.99 45 1.98 45 3 C44.34 3 43.68 3 43 3 C42.67 3.99 42.34 4.98 42 6 C39.10441559 7.4477922 37.25811062 8 34 8 C33.505 7.01 33.505 7.01 33 6 C32.54625 6.495 32.0925 6.99 31.625 7.5 C30 9 30 9 28 9 C28.33 9.66 28.66 10.32 29 11 C25.03069011 11.02465881 21.06140966 11.04284023 17.09204102 11.05493164 C15.74079614 11.05997057 14.38955674 11.06680177 13.03833008 11.07543945 C11.09979566 11.08752419 9.161222 11.09269828 7.22265625 11.09765625 C5.47094116 11.10551147 5.47094116 11.10551147 3.68383789 11.11352539 C1 11 1 11 0 10 C-0.07205511 8.31391034 -0.08386068 6.62499341 -0.0625 4.9375 C-0.05347656 4.01839844 -0.04445313 3.09929687 -0.03515625 2.15234375 C-0.02355469 1.44207031 -0.01195313 0.73179688 0 0 Z " fill="#C0D8FE" transform="translate(27,102)"/>
<path d="M0 0 C1.58206422 0.00574487 3.16410406 0.01876032 4.74609375 0.03515625 C7.53046875 0.05578125 10.31484375 0.07640625 13.18359375 0.09765625 C13.18359375 6.03765625 13.18359375 11.97765625 13.18359375 18.09765625 C10.39921875 18.11828125 7.61484375 18.13890625 4.74609375 18.16015625 C3.86767822 18.16926025 2.9892627 18.17836426 2.08422852 18.18774414 C0.11713401 18.19488716 -1.84994246 18.14797518 -3.81640625 18.09765625 C-5.63756628 16.27649622 -4.94875705 13.79093861 -4.953125 11.37109375 C-4.94925781 10.62085937 -4.94539063 9.870625 -4.94140625 9.09765625 C-4.94527344 8.34742187 -4.94914062 7.5971875 -4.953125 6.82421875 C-4.94103514 0.12643386 -4.94103514 0.12643386 0 0 Z " fill="#3DCFE4" transform="translate(109.81640625,95.90234375)"/>
<path d="M0 0 C0.33 0 0.66 0 1 0 C1 2.97 1 5.94 1 9 C1.99 9.33 2.98 9.66 4 10 C4.05386629 12.12472576 4.09273071 14.24983652 4.125 16.375 C4.14820312 17.55835937 4.17140625 18.74171875 4.1953125 19.9609375 C4 23 4 23 2 25 C1.53513282 28.12196336 1.53513282 28.12196336 1.375 31.625 C1.25125 33.72875 1.1275 35.8325 1 38 C9.25 38 17.5 38 26 38 C26 38.66 26 39.32 26 40 C28.31 40.66 30.62 41.32 33 42 C32 44 32 44 30.34521484 44.61450195 C25.49200924 45.41225457 20.54404055 45.18590312 15.63769531 45.18530273 C13.63863013 45.18748512 11.63960468 45.20599143 9.640625 45.22460938 C8.36960937 45.22654297 7.09859375 45.22847656 5.7890625 45.23046875 C4.63100098 45.23457764 3.47293945 45.23868652 2.27978516 45.24291992 C-1.11310954 44.99162245 -3.83332989 44.21173908 -7 43 C-6 41 -6 41 0 39 C0 26.13 0 13.26 0 0 Z " fill="#5F52EA" transform="translate(101,86)"/>
<path d="M0 0 C5.61 0 11.22 0 17 0 C17 5.61 17 11.22 17 17 C11.39 17 5.78 17 0 17 C0 11.39 0 5.78 0 0 Z " fill="#3E4E9A" transform="translate(15,34)"/>
<path d="M0 0 C2.625 0.25 2.625 0.25 4.4375 1.625 C5.625 3.25 5.625 3.25 5.625 5.25 C7.275 5.25 8.925 5.25 10.625 5.25 C11.285 6.57 11.945 7.89 12.625 9.25 C8.995 9.25 5.365 9.25 1.625 9.25 C1.625 12.55 1.625 15.85 1.625 19.25 C2.285 19.25 2.945 19.25 3.625 19.25 C2.965 20.57 2.305 21.89 1.625 23.25 C-0.3125 22.4375 -0.3125 22.4375 -2.375 21.25 C-2.705 20.26 -3.035 19.27 -3.375 18.25 C-2.715 18.25 -2.055 18.25 -1.375 18.25 C-1.705 16.27 -2.035 14.29 -2.375 12.25 C-9.635 11.92 -16.895 11.59 -24.375 11.25 C-24.375 10.59 -24.375 9.93 -24.375 9.25 C-26.685 9.25 -28.995 9.25 -31.375 9.25 C-31.045 8.59 -30.715 7.93 -30.375 7.25 C-29.116875 7.20875 -27.85875 7.1675 -26.5625 7.125 C-25.85480469 7.10179687 -25.14710937 7.07859375 -24.41796875 7.0546875 C-22.375 7.25 -22.375 7.25 -19.375 9.25 C-15.51551758 9.10965518 -13.19080844 8.96983098 -10.25 6.375 C-9.63125 5.67375 -9.0125 4.9725 -8.375 4.25 C-6.72894174 3.21642853 -5.06536558 2.20939668 -3.375 1.25 C-2.375 0.25 -2.375 0.25 0 0 Z " fill="#7ADDE1" transform="translate(119.375,37.75)"/>
<path d="M0 0 C2.31 0 4.62 0 7 0 C7.14541967 4.22880411 7.23411527 8.45696413 7.3125 12.6875 C7.3753418 14.48477539 7.3753418 14.48477539 7.43945312 16.31835938 C7.5608921 25.03767802 7.5608921 25.03767802 5.86474609 27.94775391 C4.48046875 29.33203125 4.48046875 29.33203125 2 31 C0.41596476 29.41596476 0.78025065 27.7228362 0.68359375 25.52734375 C0.64169922 24.62822266 0.59980469 23.72910156 0.55664062 22.80273438 C0.51732422 21.85720703 0.47800781 20.91167969 0.4375 19.9375 C0.39431641 18.98810547 0.35113281 18.03871094 0.30664062 17.06054688 C0.20020724 14.70718647 0.09818992 12.35371646 0 10 C-2.64 10 -5.28 10 -8 10 C-8 8.02 -8 6.04 -8 4 C-5.36 4 -2.72 4 0 4 C0 2.68 0 1.36 0 0 Z " fill="#5A38FF" transform="translate(34,49)"/>
<path d="M0 0 C0.8971875 1.2684375 0.8971875 1.2684375 1.8125 2.5625 C4.60635272 3.37307441 4.60635272 3.37307441 7.5625 3.375 C9.03976563 3.44654297 9.03976563 3.44654297 10.546875 3.51953125 C11.29453125 3.53371094 12.0421875 3.54789062 12.8125 3.5625 C13.3075 5.0475 13.3075 5.0475 13.8125 6.5625 C-0.3775 6.5625 -14.5675 6.5625 -29.1875 6.5625 C-29.1875 5.9025 -29.1875 5.2425 -29.1875 4.5625 C-27.16927083 4.171875 -25.15104167 3.78125 -23.1328125 3.390625 C-20.99745329 2.70537884 -20.99745329 2.70537884 -19.9296875 0.484375 C-19.68476562 -0.14984375 -19.43984375 -0.7840625 -19.1875 -1.4375 C-16.43761792 -1.74070752 -13.69271342 -2.00583881 -10.9375 -2.25 C-9.77154297 -2.38438477 -9.77154297 -2.38438477 -8.58203125 -2.52148438 C-2.69206494 -2.9997295 -2.69206494 -2.9997295 0 0 Z " fill="#A3C6FE" transform="translate(80.1875,114.4375)"/>
<path d="M0 0 C1.58206057 0.00667536 3.16410534 0.0186375 4.74609375 0.03515625 C5.55240234 0.03966797 6.35871094 0.04417969 7.18945312 0.04882812 C9.18753131 0.06065107 11.18557158 0.07858711 13.18359375 0.09765625 C12.65765625 1.27328125 12.65765625 1.27328125 12.12109375 2.47265625 C11.81171875 3.33890625 11.50234375 4.20515625 11.18359375 5.09765625 C11.51359375 5.75765625 11.84359375 6.41765625 12.18359375 7.09765625 C13.17359375 6.43765625 14.16359375 5.77765625 15.18359375 5.09765625 C16.50359375 6.74765625 17.82359375 8.39765625 19.18359375 10.09765625 C17.53359375 11.41765625 15.88359375 12.73765625 14.18359375 14.09765625 C14.18359375 13.10765625 14.18359375 12.11765625 14.18359375 11.09765625 C12.53359375 11.42765625 10.88359375 11.75765625 9.18359375 12.09765625 C8.85359375 13.08765625 8.52359375 14.07765625 8.18359375 15.09765625 C7.52359375 15.09765625 6.86359375 15.09765625 6.18359375 15.09765625 C6.18359375 13.77765625 6.18359375 12.45765625 6.18359375 11.09765625 C5.19359375 11.09765625 4.20359375 11.09765625 3.18359375 11.09765625 C2.85359375 12.08765625 2.52359375 13.07765625 2.18359375 14.09765625 C-0.12640625 13.10765625 -2.43640625 12.11765625 -4.81640625 11.09765625 C-4.84328776 9.45191059 -4.86274748 7.80604212 -4.87890625 6.16015625 C-4.89050781 5.24363281 -4.90210938 4.32710938 -4.9140625 3.3828125 C-4.74806315 -0.5015722 -4.08167578 0.10444411 0 0 Z " fill="#46B3E2" transform="translate(37.81640625,85.90234375)"/>
<path d="M0 0 C13.53 0 27.06 0 41 0 C41 1.65 41 3.3 41 5 C27.47 5 13.94 5 0 5 C0 3.35 0 1.7 0 0 Z " fill="#3C3D89" transform="translate(60,97)"/>
<path d="M0 0 C0.99 0 1.98 0 3 0 C3 9.57 3 19.14 3 29 C12.24 29 21.48 29 31 29 C31 29.33 31 29.66 31 30 C38.92 30.33 46.84 30.66 55 31 C55 31.33 55 31.66 55 32 C47.48863592 32.05057965 39.97731551 32.08568257 32.46582031 32.10986328 C29.90883747 32.11994038 27.35186621 32.13360226 24.79492188 32.15087891 C21.12627308 32.17505217 17.45777621 32.18646585 13.7890625 32.1953125 C12.0655809 32.21079636 12.0655809 32.21079636 10.30728149 32.22659302 C9.2463327 32.22674408 8.18538391 32.22689514 7.09228516 32.22705078 C6.15518707 32.231492 5.21808899 32.23593323 4.25259399 32.24050903 C2 32 2 32 0 30 C-0.22705078 27.01904297 -0.22705078 27.01904297 -0.1953125 23.2421875 C-0.1924826 22.57913605 -0.18965271 21.91608459 -0.18673706 21.23294067 C-0.17553435 19.11344417 -0.15043051 16.99436896 -0.125 14.875 C-0.11497028 13.43880818 -0.10584441 12.00260975 -0.09765625 10.56640625 C-0.075595 7.04413372 -0.04106494 3.52210797 0 0 Z " fill="#42ABE3" transform="translate(41,49)"/>
<path d="M0 0 C0.99 0.33 1.98 0.66 3 1 C3.6875 3.0625 3.6875 3.0625 4 5 C5.32 5.33 6.64 5.66 8 6 C8.33 7.65 8.66 9.3 9 11 C8.01 11.33 7.02 11.66 6 12 C6.33 13.98 6.66 15.96 7 18 C3.21812119 19.83691257 1.05431692 20.15837626 -3 19 C-3 19.99 -3 20.98 -3 22 C-4.98 21.67 -6.96 21.34 -9 21 C-9.33 19.35 -9.66 17.7 -10 16 C-11.32 16 -12.64 16 -14 16 C-14.33 14.35 -14.66 12.7 -15 11 C-13.68 10.67 -12.36 10.34 -11 10 C-11 8.68 -11 7.36 -11 6 C-9.35 6 -7.7 6 -6 6 C-6.20625 7.11375 -6.4125 8.2275 -6.625 9.375 C-6.74875 10.57125 -6.8725 11.7675 -7 13 C-5.10244856 15.34973818 -5.10244856 15.34973818 -1.875 15.125 C-0.451875 15.063125 -0.451875 15.063125 1 15 C1.29562367 9.67829506 1.29562367 9.67829506 -1 5 C-0.625 2.3125 -0.625 2.3125 0 0 Z " fill="#EAEBF2" transform="translate(135,57)"/>
<path d="M0 0 C1.18613892 0.00785522 1.18613892 0.00785522 2.39624023 0.01586914 C3.67724609 0.02070312 3.67724609 0.02070312 4.98413086 0.02563477 C5.88196289 0.03401367 6.77979492 0.04239258 7.70483398 0.05102539 C8.6065332 0.05553711 9.50823242 0.06004883 10.43725586 0.06469727 C12.67234712 0.07652315 14.90730835 0.09300319 17.14233398 0.11352539 C17.14233398 0.77352539 17.14233398 1.43352539 17.14233398 2.11352539 C19.12233398 2.11352539 21.10233398 2.11352539 23.14233398 2.11352539 C22.15233398 2.60852539 22.15233398 2.60852539 21.14233398 3.11352539 C21.14233398 4.10352539 21.14233398 5.09352539 21.14233398 6.11352539 C20.31088867 6.0787207 19.47944336 6.04391602 18.62280273 6.00805664 C17.53612305 5.98098633 16.44944336 5.95391602 15.32983398 5.92602539 C14.25088867 5.8912207 13.17194336 5.85641602 12.06030273 5.82055664 C8.77754082 6.15015121 8.16538171 6.64987524 6.14233398 9.11352539 C4.87389648 9.60852539 4.87389648 9.60852539 3.57983398 10.11352539 C0.82995076 10.97624948 0.82995076 10.97624948 -0.85766602 14.11352539 C-1.51766602 14.11352539 -2.17766602 14.11352539 -2.85766602 14.11352539 C-2.8845254 11.96775903 -2.90399689 9.82189894 -2.92016602 7.67602539 C-2.93176758 6.48106445 -2.94336914 5.28610352 -2.95532227 4.05493164 C-2.82643106 0.17272841 -2.82643106 0.17272841 0 0 Z " fill="#34CED8" transform="translate(107.857666015625,32.886474609375)"/>
<path d="M0 0 C7.26 0 14.52 0 22 0 C22 2.64 22 5.28 22 8 C19.525 7.505 19.525 7.505 17 7 C17.33 8.65 17.66 10.3 18 12 C16.02 12 14.04 12 12 12 C12.33 10.68 12.66 9.36 13 8 C8.71 7.67 4.42 7.34 0 7 C0 4.69 0 2.38 0 0 Z " fill="#7E95FE" transform="translate(75,85)"/>
<path d="M0 0 C1.32 0 2.64 0 4 0 C4 6.6 4 13.2 4 20 C6.31 20 8.62 20 11 20 C11.33 20.99 11.66 21.98 12 23 C3.19039858 24.30512614 -5.19039858 24.30512614 -14 23 C-13.505 21.515 -13.505 21.515 -13 20 C-8.71 20 -4.42 20 0 20 C0 13.4 0 6.8 0 0 Z " fill="#4C4CA1" transform="translate(115,63)"/>
<path d="M0 0 C2.31 0 4.62 0 7 0 C7 2.97 7 5.94 7 9 C10.3 9 13.6 9 17 9 C17 10.98 17 12.96 17 15 C16.34 15 15.68 15 15 15 C14.67 15.66 14.34 16.32 14 17 C11.03 16.67 8.06 16.34 5 16 C5 15.67 5 15.34 5 15 C7.97 15 10.94 15 14 15 C14 14.34 14 13.68 14 13 C10.7 13 7.4 13 4 13 C3.67 14.32 3.34 15.64 3 17 C2.34 17 1.68 17 1 17 C0.67 17.66 0.34 18.32 0 19 C0 12.73 0 6.46 0 0 Z " fill="#6E79FE" transform="translate(98,54)"/>
<path d="M0 0 C1.31871094 -0.01224609 2.63742188 -0.02449219 3.99609375 -0.03710938 C5.90068359 -0.04000977 5.90068359 -0.04000977 7.84375 -0.04296875 C9.00068359 -0.04707764 10.15761719 -0.05118652 11.34960938 -0.05541992 C14.47736509 0.18575467 16.680892 0.85423629 19.5 2.1875 C18.5 4.1875 18.5 4.1875 16.84521484 4.80200195 C11.99200924 5.59975457 7.04404055 5.37340312 2.13769531 5.37280273 C0.13863013 5.37498512 -1.86039532 5.39349143 -3.859375 5.41210938 C-5.13039063 5.41404297 -6.40140625 5.41597656 -7.7109375 5.41796875 C-8.86899902 5.42207764 -10.02706055 5.42618652 -11.22021484 5.43041992 C-14.61310954 5.17912245 -17.33332989 4.39923908 -20.5 3.1875 C-20.17 2.5275 -19.84 1.8675 -19.5 1.1875 C-13.23640183 -0.60566158 -6.45139424 0.00315317 0 0 Z " fill="#EAEBF2" transform="translate(114.5,125.8125)"/>
<path d="M0 0 C6.6 0 13.2 0 20 0 C20.33 0.99 20.66 1.98 21 3 C22.49985609 4.66710346 22.49985609 4.66710346 24 6 C23.01 6.495 23.01 6.495 22 7 C22 8.65 22 10.3 22 12 C18.94152152 12.54372951 16.11227195 13 13 13 C12.67 12.01 12.34 11.02 12 10 C11.34 9.67 10.68 9.34 10 9 C10 8.01 10 7.02 10 6 C10.66 6 11.32 6 12 6 C11.67 5.01 11.34 4.02 11 3 C7.37 2.67 3.74 2.34 0 2 C0 1.34 0 0.68 0 0 Z " fill="#C8EDF2" transform="translate(7,63)"/>
<path d="M0 0 C0.99 0 1.98 0 3 0 C3.02465622 4.25414623 3.04283899 8.50825498 3.05493164 12.76245117 C3.05997101 14.21070073 3.06680253 15.65894517 3.07543945 17.10717773 C3.08752247 19.18474588 3.09323211 21.26224697 3.09765625 23.33984375 C3.10551147 25.21724243 3.10551147 25.21724243 3.11352539 27.13256836 C3 30 3 30 2 31 C0.07332493 31.08748207 -1.85651861 31.10697334 -3.78515625 31.09765625 C-4.95498047 31.09443359 -6.12480469 31.09121094 -7.33007812 31.08789062 C-9.17762695 31.07532227 -9.17762695 31.07532227 -11.0625 31.0625 C-12.91584961 31.05573242 -12.91584961 31.05573242 -14.80664062 31.04882812 C-17.87114117 31.03699608 -20.93554721 31.02051173 -24 31 C-23.67 30.34 -23.34 29.68 -23 29 C-15.41 29 -7.82 29 0 29 C0 19.43 0 9.86 0 0 Z " fill="#36D7C7" transform="translate(95,49)"/>
<path d="M0 0 C0.92683594 0.00451172 1.85367188 0.00902344 2.80859375 0.01367188 C5.08079709 0.02538426 7.35286388 0.04178628 9.625 0.0625 C9.3702486 1.37821603 9.09565859 2.69010376 8.8125 4 C8.66167969 4.73089844 8.51085937 5.46179688 8.35546875 6.21484375 C8.11441406 6.82457031 7.87335937 7.43429688 7.625 8.0625 C6.635 8.3925 5.645 8.7225 4.625 9.0625 C4.295 8.0725 3.965 7.0825 3.625 6.0625 C-3.305 5.7325 -10.235 5.4025 -17.375 5.0625 C-17.045 3.7425 -16.715 2.4225 -16.375 1.0625 C-10.89230931 -0.09414737 -5.57160726 -0.05166255 0 0 Z " fill="#655DFF" transform="translate(55.375,80.9375)"/>
<path d="M0 0 C0 4.95 0 9.9 0 15 C-4.95 15 -9.9 15 -15 15 C-13.68 13.35 -12.36 11.7 -11 10 C-10.67 9.01 -10.34 8.02 -10 7 C-9.01 6.67 -8.02 6.34 -7 6 C-5.64172029 4.35360035 -4.30745749 2.68704193 -3 1 C-1 0 -1 0 0 0 Z " fill="#3ADBD7" transform="translate(123,99)"/>
<path d="M0 0 C1.65 0 3.3 0 5 0 C5.33 1.32 5.66 2.64 6 4 C5.34 4 4.68 4 4 4 C4 4.99 4 5.98 4 7 C4.99 7.33 5.98 7.66 7 8 C7.38133299 9.9914056 7.71325582 11.99279077 8 14 C7 15 7 15 3.4375 15.0625 C2.303125 15.041875 1.16875 15.02125 0 15 C0 14.01 0 13.02 0 12 C-1.98 12 -3.96 12 -6 12 C-6 11.34 -6 10.68 -6 10 C-4.02 10 -2.04 10 0 10 C0 8.68 0 7.36 0 6 C-1.98 6 -3.96 6 -6 6 C-6 5.34 -6 4.68 -6 4 C-4.02 4 -2.04 4 0 4 C0 2.68 0 1.36 0 0 Z " fill="#65D9DB" transform="translate(13,65)"/>
<path d="M0 0 C2.5625 0.3125 2.5625 0.3125 4.375 1.6875 C5.5625 3.3125 5.5625 3.3125 5.5625 5.3125 C7.2125 5.3125 8.8625 5.3125 10.5625 5.3125 C10.8925 6.3025 11.2225 7.2925 11.5625 8.3125 C3.9725 8.3125 -3.6175 8.3125 -11.4375 8.3125 C-10.4375 5.3125 -10.4375 5.3125 -7.5 3.75 C-6.489375 3.275625 -5.47875 2.80125 -4.4375 2.3125 C-2.4375 0.3125 -2.4375 0.3125 0 0 Z " fill="#F7FCFD" transform="translate(119.4375,37.6875)"/>
<path d="M0 0 C3.14581423 -0.02888514 6.29159469 -0.04675923 9.4375 -0.0625 C10.33533203 -0.07087891 11.23316406 -0.07925781 12.15820312 -0.08789062 C13.01220703 -0.09111328 13.86621094 -0.09433594 14.74609375 -0.09765625 C15.93223267 -0.10551147 15.93223267 -0.10551147 17.14233398 -0.11352539 C19 0 19 0 20 1 C20.04080783 2.99958364 20.04254356 5.00045254 20 7 C19.01 7 18.02 7 17 7 C17 6.34 17 5.68 17 5 C11.39 5 5.78 5 0 5 C0 3.35 0 1.7 0 0 Z " fill="#34B1C5" transform="translate(98,49)"/>
<path d="M0 0 C1.32 0 2.64 0 4 0 C4 5.61 4 11.22 4 17 C4.99 17 5.98 17 7 17 C7 18.65 7 20.3 7 22 C4.69 22 2.38 22 0 22 C0 14.74 0 7.48 0 0 Z " fill="#41468F" transform="translate(26,80)"/>
<path d="M0 0 C1.47906892 -0.02689216 2.95827483 -0.04634621 4.4375 -0.0625 C5.26121094 -0.07410156 6.08492187 -0.08570313 6.93359375 -0.09765625 C9 0 9 0 10 1 C10.07244053 3.01964199 10.08377188 5.04167124 10.0625 7.0625 C10.05347656 8.16722656 10.04445312 9.27195312 10.03515625 10.41015625 C10.02355469 11.26480469 10.01195312 12.11945312 10 13 C9.01 13.33 8.02 13.66 7 14 C6.34 13.01 5.68 12.02 5 11 C4.175 10.855625 3.35 10.71125 2.5 10.5625 C0 10 0 10 -1.3125 7.9375 C-1.539375 7.298125 -1.76625 6.65875 -2 6 C0.49092811 4.75453595 1.41080733 5.2232422 4 6 C4 5.01 4 4.02 4 3 C2.68 2.67 1.36 2.34 0 2 C0 1.34 0 0.68 0 0 Z " fill="#3AD5D1" transform="translate(125,33)"/>
<path d="M0 0 C0.165 0.639375 0.33 1.27875 0.5 1.9375 C1.781786 4.16119241 1.781786 4.16119241 3.9140625 4.48828125 C5.93575155 4.7275978 7.96841939 4.86893028 10 5 C9.34 6.65 8.68 8.3 8 10 C7.01 10 6.02 10 5 10 C5.33 10.99 5.66 11.98 6 13 C5.01 13 4.02 13 3 13 C2.67 13.66 2.34 14.32 2 15 C0.68 15 -0.64 15 -2 15 C-2.05386629 12.87527424 -2.09273071 10.75016348 -2.125 8.625 C-2.14820312 7.44164063 -2.17140625 6.25828125 -2.1953125 5.0390625 C-2 2 -2 2 0 0 Z " fill="#6B6EFE" transform="translate(104,109)"/>
<path d="M0 0 C1.93166016 0.01740234 1.93166016 0.01740234 3.90234375 0.03515625 C5.19269531 0.04417969 6.48304687 0.05320312 7.8125 0.0625 C8.81152344 0.07410156 9.81054688 0.08570312 10.83984375 0.09765625 C9.94652344 0.76474609 9.94652344 0.76474609 9.03515625 1.4453125 C2.94102566 5.92588795 2.94102566 5.92588795 -1.16015625 12.09765625 C-2.15015625 12.42765625 -3.14015625 12.75765625 -4.16015625 13.09765625 C-4.18702178 11.11856227 -4.20649 9.13936654 -4.22265625 7.16015625 C-4.23425781 6.05800781 -4.24585937 4.95585938 -4.2578125 3.8203125 C-4.11749553 -0.09172464 -3.97435676 0.12281696 0 0 Z " fill="#42BEF1" transform="translate(109.16015625,95.90234375)"/>
<path d="M0 0 C1.32 0 2.64 0 4 0 C4 6.6 4 13.2 4 20 C2.68 19.67 1.36 19.34 0 19 C0 12.73 0 6.46 0 0 Z " fill="#3E3E8B" transform="translate(115,63)"/>
<path d="M0 0 C5.875 0.875 5.875 0.875 7 2 C7.33 1.34 7.66 0.68 8 0 C8.99 0 9.98 0 11 0 C11 1.32 11 2.64 11 4 C11.66 4 12.32 4 13 4 C13.33 2.68 13.66 1.36 14 0 C15.65 0 17.3 0 19 0 C18.67 1.65 18.34 3.3 18 5 C12.06 5 6.12 5 0 5 C0 3.35 0 1.7 0 0 Z " fill="#37AEC6" transform="translate(33,97)"/>
<path d="M0 0 C8.58 0 17.16 0 26 0 C25.67 0.99 25.34 1.98 25 3 C17.08 3 9.16 3 1 3 C0.67 2.01 0.34 1.02 0 0 Z " fill="#4C4CA0" transform="translate(101,124)"/>
<path d="M0 0 C5.19209404 -0.21192221 9.126739 0.4087311 14 2 C12.35 3.65 10.7 5.3 9 7 C9.33 6.01 9.66 5.02 10 4 C9.34 4 8.68 4 8 4 C7.3503125 5.2375 7.3503125 5.2375 6.6875 6.5 C6.130625 7.325 5.57375 8.15 5 9 C2.3125 9.3125 2.3125 9.3125 0 9 C0 6.03 0 3.06 0 0 Z " fill="#5A3AFF" transform="translate(102,86)"/>
<path d="M0 0 C1.67542976 0.28604898 3.34385343 0.61781233 5 1 C6.125 6.625 6.125 6.625 5 10 C3.0625 12.1875 3.0625 12.1875 1 14 C0.34 14 -0.32 14 -1 14 C-1.02685938 11.85423363 -1.04633088 9.70837355 -1.0625 7.5625 C-1.07410156 6.36753906 -1.08570312 5.17257813 -1.09765625 3.94140625 C-1 1 -1 1 0 0 Z " fill="#32C6DF" transform="translate(106,33)"/>
<path d="M0 0 C1 1 1 1 1.25 3.4375 C1.1675 4.283125 1.085 5.12875 1 6 C0.01 6.66 -0.98 7.32 -2 8 C-3.66666667 7.33333333 -5.33333333 6.66666667 -7 6 C-7.99 6.66 -8.98 7.32 -10 8 C-10 7.01 -10 6.02 -10 5 C-10.66 4.67 -11.32 4.34 -12 4 C-8.41466389 -0.78044814 -5.59074961 -0.45825816 0 0 Z " fill="#3BC5D6" transform="translate(59,86)"/>
<path d="M0 0 C6.27 0 12.54 0 19 0 C19 1.65 19 3.3 19 5 C14.71 5 10.42 5 6 5 C6 4.01 6 3.02 6 2 C3.03 1.505 3.03 1.505 0 1 C0 0.67 0 0.34 0 0 Z " fill="#7BD8E3" transform="translate(7,58)"/>
<path d="M0 0 C0.99 0 1.98 0 3 0 C3.33 0.66 3.66 1.32 4 2 C4.99 1.34 5.98 0.68 7 0 C8.32 1.65 9.64 3.3 11 5 C9.35 6.32 7.7 7.64 6 9 C6 8.01 6 7.02 6 6 C4.35 6.33 2.7 6.66 1 7 C0.67 7.99 0.34 8.98 0 10 C-0.66 10 -1.32 10 -2 10 C-1.54177532 6.53058454 -1.10868317 3.32604951 0 0 Z " fill="#4AC9DB" transform="translate(46,91)"/>
<path d="M0 0 C1.65 0 3.3 0 5 0 C6.14077657 3.42232972 6.09815117 6.08673217 6.0625 9.6875 C6.05347656 10.86699219 6.04445313 12.04648438 6.03515625 13.26171875 C6.02355469 14.16535156 6.01195313 15.06898437 6 16 C4.68 16.33 3.36 16.66 2 17 C2 11.72 2 6.44 2 1 C1.34 0.67 0.68 0.34 0 0 Z " fill="#707FFE" transform="translate(121,95)"/>
<path d="M0 0 C4.62 0 9.24 0 14 0 C13.34 1.65 12.68 3.3 12 5 C7.38 5 2.76 5 -2 5 C-1.34 4.01 -0.68 3.02 0 2 C0 1.34 0 0.68 0 0 Z " fill="#7080FE" transform="translate(75,92)"/>
<path d="M0 0 C2.31 0 4.62 0 7 0 C7 1.65 7 3.3 7 5 C3.37 5 -0.26 5 -4 5 C-4 6.65 -4 8.3 -4 10 C-5.32 10 -6.64 10 -8 10 C-8 8.02 -8 6.04 -8 4 C-5.36 4 -2.72 4 0 4 C0 2.68 0 1.36 0 0 Z " fill="#3D418D" transform="translate(34,49)"/>
<path d="M0 0 C0 3.3 0 6.6 0 10 C-0.33 9.01 -0.66 8.02 -1 7 C-4.3 7.33 -7.6 7.66 -11 8 C-11.33 7.01 -11.66 6.02 -12 5 C-11.236875 4.731875 -10.47375 4.46375 -9.6875 4.1875 C-6.99574277 3.2011342 -6.99574277 3.2011342 -5.4375 1.375 C-4 0 -4 0 0 0 Z " fill="#6660FF" transform="translate(127,88)"/>
<path d="M0 0 C1.24716797 0.00322266 2.49433594 0.00644531 3.77929688 0.00976562 C5.07287109 0.01814453 6.36644531 0.02652344 7.69921875 0.03515625 C9.66858398 0.04192383 9.66858398 0.04192383 11.67773438 0.04882812 C14.91410885 0.06059676 18.15039053 0.07703865 21.38671875 0.09765625 C21.05671875 0.75765625 20.72671875 1.41765625 20.38671875 2.09765625 C19.73074707 2.11747559 19.07477539 2.13729492 18.39892578 2.15771484 C15.43610806 2.25278132 12.47401343 2.36253377 9.51171875 2.47265625 C7.96291016 2.5190625 7.96291016 2.5190625 6.3828125 2.56640625 C4.90361328 2.62441406 4.90361328 2.62441406 3.39453125 2.68359375 C2.4833252 2.71501465 1.57211914 2.74643555 0.63330078 2.77880859 C-1.81259311 2.89648136 -1.81259311 2.89648136 -3.61328125 5.09765625 C-6.34197532 5.06478042 -8.90994305 4.53367854 -11.61328125 4.09765625 C-11.61328125 3.10765625 -11.61328125 2.11765625 -11.61328125 1.09765625 C-7.68039761 0.16677716 -4.03673962 -0.0184326 0 0 Z " fill="#D9D9E8" transform="translate(106.61328125,125.90234375)"/>
<path d="M0 0 C0.33 0 0.66 0 1 0 C1 1.65 1 3.3 1 5 C-4.94 5 -10.88 5 -17 5 C-17.33 4.01 -17.66 3.02 -18 2 C-12.06 2 -6.12 2 0 2 C0 1.34 0 0.68 0 0 Z " fill="#42D8CF" transform="translate(51,100)"/>
<path d="M0 0 C2.64 0 5.28 0 8 0 C8 1.98 8 3.96 8 6 C6.68 6 5.36 6 4 6 C4 6.66 4 7.32 4 8 C3.01 7.67 2.02 7.34 1 7 C0.67 4.69 0.34 2.38 0 0 Z " fill="#3CB6D8" transform="translate(26,59)"/>
<path d="M0 0 C2.31 0 4.62 0 7 0 C7.75 2.25 7.75 2.25 8 5 C6.25 7.3125 6.25 7.3125 4 9 C3.01 9 2.02 9 1 9 C0.67 6.03 0.34 3.06 0 0 Z " fill="#6DD4E3" transform="translate(110,33)"/>
<path d="M0 0 C1.23556641 0.01740234 1.23556641 0.01740234 2.49609375 0.03515625 C3.32238281 0.04417969 4.14867187 0.05320312 5 0.0625 C5.63808594 0.07410156 6.27617188 0.08570312 6.93359375 0.09765625 C6.60359375 0.75765625 6.27359375 1.41765625 5.93359375 2.09765625 C5.27359375 2.09765625 4.61359375 2.09765625 3.93359375 2.09765625 C3.93359375 2.75765625 3.93359375 3.41765625 3.93359375 4.09765625 C2.12109375 6.22265625 2.12109375 6.22265625 -0.06640625 8.09765625 C-1.05640625 8.09765625 -2.04640625 8.09765625 -3.06640625 8.09765625 C-3.10882348 5.7647085 -3.10733562 3.43063058 -3.06640625 1.09765625 C-2.06640625 0.09765625 -2.06640625 0.09765625 0 0 Z " fill="#4A93EC" transform="translate(36.06640625,85.90234375)"/>
<path d="M0 0 C0.33 0 0.66 0 1 0 C1 2.97 1 5.94 1 9 C-2.96 9 -6.92 9 -11 9 C-10 7 -10 7 -7.125 6 C-6.09375 5.67 -5.0625 5.34 -4 5 C-0.75150023 3.27773504 -0.75150023 3.27773504 0 0 Z " fill="#7895FE" transform="translate(126,115)"/>
<path d="M0 0 C2.31 0 4.62 0 7 0 C6.01 0.495 6.01 0.495 5 1 C4.27840576 2.64363134 3.60648579 4.31050386 3 6 C3.99 6 4.98 6 6 6 C6 7.32 6 8.64 6 10 C2.25 11.125 2.25 11.125 0 10 C-0.77811718 6.18015204 -1.24386556 3.73159669 0 0 Z " fill="#35D5CF" transform="translate(121,47)"/>
<path d="M0 0 C0.66 0 1.32 0 2 0 C2 1.65 2 3.3 2 5 C-2.62 5 -7.24 5 -12 5 C-11.67 4.01 -11.34 3.02 -11 2 C-7.37 2 -3.74 2 0 2 C0 1.34 0 0.68 0 0 Z " fill="#35DBC5" transform="translate(32,75)"/>
<path d="M0 0 C1.65 0 3.3 0 5 0 C5.33 1.32 5.66 2.64 6 4 C5.34 4 4.68 4 4 4 C4 4.66 4 5.32 4 6 C0.7 6 -2.6 6 -6 6 C-6 5.34 -6 4.68 -6 4 C-4.02 4 -2.04 4 0 4 C0 2.68 0 1.36 0 0 Z " fill="#72D4E4" transform="translate(13,65)"/>
<path d="M0 0 C3.3 0 6.6 0 10 0 C9 2 9 2 6.5 2.875 C5.675 3.24625 4.85 3.6175 4 4 C3.34786708 6.02463255 3.34786708 6.02463255 3 8 C2.01 8.33 1.02 8.66 0 9 C0 6.03 0 3.06 0 0 Z " fill="#3DBBDD" transform="translate(105,54)"/>
<path d="M0 0 C2.31 0 4.62 0 7 0 C7 1.98 7 3.96 7 6 C4.69 6 2.38 6 0 6 C0 4.02 0 2.04 0 0 Z " fill="#A2C2FF" transform="translate(90,85)"/>
<path d="M0 0 C0.99 1.32 1.98 2.64 3 4 C5.16874252 3.49396008 6.99967627 3.00016187 9 2 C9.33 3.65 9.66 5.3 10 7 C6.94152152 7.54372951 4.11227195 8 1 8 C0.67 7.01 0.34 6.02 0 5 C-0.66 4.67 -1.32 4.34 -2 4 C-2 3.01 -2 2.02 -2 1 C-1.34 0.67 -0.68 0.34 0 0 Z " fill="#F5FBFD" transform="translate(19,68)"/>
<path d="M0 0 C15.84 0.495 15.84 0.495 32 1 C32 1.33 32 1.66 32 2 C24.74 2 17.48 2 10 2 C10 2.66 10 3.32 10 4 C9.01 4 8.02 4 7 4 C7 3.34 7 2.68 7 2 C4.69 2 2.38 2 0 2 C0 1.34 0 0.68 0 0 Z " fill="#86D6E6" transform="translate(34,45)"/>
<path d="M0 0 C0.33 0 0.66 0 1 0 C1 2.97 1 5.94 1 9 C-1.64 9 -4.28 9 -7 9 C-7 8.34 -7 7.68 -7 7 C-6.34 7 -5.68 7 -5 7 C-4.67 6.01 -4.34 5.02 -4 4 C-3.01 3.67 -2.02 3.34 -1 3 C-0.67 2.01 -0.34 1.02 0 0 Z " fill="#35DAC6" transform="translate(122,105)"/>
<path d="M0 0 C0 0.33 0 0.66 0 1 C-1.98 1 -3.96 1 -6 1 C-6 3.64 -6 6.28 -6 9 C-8.64 8.67 -11.28 8.34 -14 8 C-14 7.67 -14 7.34 -14 7 C-12.35 6.67 -10.7 6.34 -9 6 C-8.67 4.68 -8.34 3.36 -8 2 C-9.98 2 -11.96 2 -14 2 C-14 1.67 -14 1.34 -14 1 C-9.32798795 -0.20568053 -4.78503708 -0.09382426 0 0 Z " fill="#7CD6E6" transform="translate(21,33)"/>
<path d="M0 0 C1.98 0 3.96 0 6 0 C6 1.98 6 3.96 6 6 C4.02 6 2.04 6 0 6 C0 4.02 0 2.04 0 0 Z " fill="#A6C7FF" transform="translate(83,85)"/>
<path d="M0 0 C1.98 0 3.96 0 6 0 C6 1.98 6 3.96 6 6 C4.02 6 2.04 6 0 6 C0 4.02 0 2.04 0 0 Z " fill="#A6C7FF" transform="translate(75,85)"/>
<path d="M0 0 C0.99 0 1.98 0 3 0 C3.08121924 1.60332791 3.13929134 3.20784026 3.1875 4.8125 C3.23970703 6.15248047 3.23970703 6.15248047 3.29296875 7.51953125 C3 10 3 10 0 13 C0 8.71 0 4.42 0 0 Z " fill="#3B96D8" transform="translate(41,49)"/>
<path d="M0 0 C2.31 0 4.62 0 7 0 C7 1.65 7 3.3 7 5 C4.69 5 2.38 5 0 5 C0 3.35 0 1.7 0 0 Z " fill="#3C3E8A" transform="translate(98,49)"/>
<path d="M0 0 C6.6 0 13.2 0 20 0 C20 0.99 20 1.98 20 3 C13.4 2.34 6.8 1.68 0 1 C0 0.67 0 0.34 0 0 Z " fill="#41D1D8" transform="translate(14,32)"/>
<path d="M0 0 C2.75 0.25 2.75 0.25 5 1 C3.54744301 4.82946843 1.57104439 6.12050295 -2 8 C-2 7.01 -2 6.02 -2 5 C-2.66 4.67 -3.32 4.34 -4 4 C-2.3125 1.9375 -2.3125 1.9375 0 0 Z " fill="#40BCDC" transform="translate(51,86)"/>
<path d="M0 0 C1.4606285 2.64738916 2 3.89448334 2 7 C1.67 7.66 1.34 8.32 1 9 C-0.98 8.34 -2.96 7.68 -5 7 C-5 6.01 -5 5.02 -5 4 C-4.01 4 -3.02 4 -2 4 C-1.34 2.68 -0.68 1.36 0 0 Z " fill="#95D0EF" transform="translate(38,90)"/>
<path d="M0 0 C1.65 0 3.3 0 5 0 C5.33 2.31 5.66 4.62 6 7 C4.68 7.33 3.36 7.66 2 8 C2 5.69 2 3.38 2 1 C1.34 0.67 0.68 0.34 0 0 Z " fill="#6C71FE" transform="translate(121,95)"/>
<path d="M0 0 C2.97 0.495 2.97 0.495 6 1 C6.33 2.65 6.66 4.3 7 6 C6.34 5.67 5.68 5.34 5 5 C4.01 5.33 3.02 5.66 2 6 C2 5.34 2 4.68 2 4 C1.34 4 0.68 4 0 4 C0 2.68 0 1.36 0 0 Z " fill="#3BCCDC" transform="translate(13,71)"/>
<path d="M0 0 C0.66 0 1.32 0 2 0 C1.34 1.32 0.68 2.64 0 4 C-3.63 3.34 -7.26 2.68 -11 2 C-11 1.67 -11 1.34 -11 1 C-10.28972656 1.01160156 -9.57945313 1.02320312 -8.84765625 1.03515625 C-7.92855469 1.04417969 -7.00945312 1.05320312 -6.0625 1.0625 C-4.68771484 1.07990234 -4.68771484 1.07990234 -3.28515625 1.09765625 C-1.03406673 1.25949049 -1.03406673 1.25949049 0 0 Z M-9 4 C-6.69 4 -4.38 4 -2 4 C-2 4.33 -2 4.66 -2 5 C-4.31 5 -6.62 5 -9 5 C-9 4.67 -9 4.34 -9 4 Z " fill="#859FFE" transform="translate(113,69)"/>
<path d="M0 0 C0.66 0 1.32 0 2 0 C2 1.65 2 3.3 2 5 C2.66 5 3.32 5 4 5 C3.34 6.32 2.68 7.64 2 9 C0.68 8.34 -0.64 7.68 -2 7 C-2 6.34 -2 5.68 -2 5 C-1.34 5 -0.68 5 0 5 C0 3.35 0 1.7 0 0 Z " fill="#EEFAFA" transform="translate(119,52)"/>
<path d="M0 0 C-0.54269531 0.33773437 -1.08539063 0.67546875 -1.64453125 1.0234375 C-2.71767578 1.69246094 -2.71767578 1.69246094 -3.8125 2.375 C-4.87404297 3.03628906 -4.87404297 3.03628906 -5.95703125 3.7109375 C-7.65432039 4.78188476 -9.33014358 5.88676239 -11 7 C-10.67 5.02 -10.34 3.04 -10 1 C-6.16112237 -0.48320272 -3.93795909 -1.22419163 0 0 Z " fill="#40C3ED" transform="translate(120,97)"/>
<path d="M0 0 C1.65 0 3.3 0 5 0 C4.67 1.65 4.34 3.3 4 5 C2.35 5 0.7 5 -1 5 C-0.67 3.35 -0.34 1.7 0 0 Z " fill="#39C3C6" transform="translate(47,97)"/>
<path d="M0 0 C1.98 0.495 1.98 0.495 4 1 C3.67 2.65 3.34 4.3 3 6 C1.68 5.67 0.36 5.34 -1 5 C-0.67 3.35 -0.34 1.7 0 0 Z " fill="#47CEDB" transform="translate(22,67)"/>
<path d="M0 0 C2.97 0 5.94 0 9 0 C9 0.66 9 1.32 9 2 C6.29120665 3.35439668 3.99066732 3.06501451 1 3 C0.67 2.01 0.34 1.02 0 0 Z " fill="#4FD2DA" transform="translate(33,102)"/>
<path d="M0 0 C2.64 0 5.28 0 8 0 C8.33 1.32 8.66 2.64 9 4 C8.01 4 7.02 4 6 4 C6 3.34 6 2.68 6 2 C3.69 2 1.38 2 -1 2 C-0.67 1.34 -0.34 0.68 0 0 Z " fill="#55D9D5" transform="translate(89,45)"/>
<path d="M0 0 C0.99 0.33 1.98 0.66 3 1 C2.01 3.97 1.02 6.94 0 10 C-0.66 10 -1.32 10 -2 10 C-1.54177532 6.53058454 -1.10868317 3.32604951 0 0 Z " fill="#D9F3F5" transform="translate(46,91)"/>
<path d="M0 0 C1.65 0.33 3.3 0.66 5 1 C5 1.99 5 2.98 5 4 C3.02 4 1.04 4 -1 4 C-0.67 2.68 -0.34 1.36 0 0 Z " fill="#31C7DF" transform="translate(14,59)"/>
<path d="M0 0 C3.3 0 6.6 0 10 0 C9.67 0.66 9.34 1.32 9 2 C7.02 2 5.04 2 3 2 C2.67 2.66 2.34 3.32 2 4 C1.01 4 0.02 4 -1 4 C-0.67 2.68 -0.34 1.36 0 0 Z " fill="#46B0F5" transform="translate(106,96)"/>
<path d="M0 0 C0 2 0 2 -1.8125 4.125 C-4 6 -4 6 -7 6 C-6.67 4.35 -6.34 2.7 -6 1 C-3.92446352 0.4465236 -2.15634036 0 0 0 Z " fill="#3F9CE9" transform="translate(40,88)"/>
<path d="M0 0 C1.32 0 2.64 0 4 0 C3.25 4.75 3.25 4.75 1 7 C0.34 6.34 -0.32 5.68 -1 5 C-0.625 2.375 -0.625 2.375 0 0 Z " fill="#42C8D7" transform="translate(30,65)"/>
<path d="M0 0 C0.33 0 0.66 0 1 0 C1 2.64 1 5.28 1 8 C0.01 8.33 -0.98 8.66 -2 9 C-2.25 3.375 -2.25 3.375 0 0 Z " fill="#409AE9" transform="translate(43,59)"/>
<path d="M0 0 C1.65 1.65 3.3 3.3 5 5 C3.35 6.32 1.7 7.64 0 9 C0 8.01 0 7.02 0 6 C0.66 6 1.32 6 2 6 C1.34 5.01 0.68 4.02 0 3 C0 2.01 0 1.02 0 0 Z " fill="#DBF4F7" transform="translate(52,91)"/>
<path d="M0 0 C0 1.65 0 3.3 0 5 C-1.98 5.66 -3.96 6.32 -6 7 C-5.649375 6.38125 -5.29875 5.7625 -4.9375 5.125 C-4.628125 4.42375 -4.31875 3.7225 -4 3 C-4.33 2.34 -4.66 1.68 -5 1 C-1.125 0 -1.125 0 0 0 Z " fill="#47D6CE" transform="translate(60,92)"/>
<path d="M0 0 C0.99 0.33 1.98 0.66 3 1 C3 1.66 3 2.32 3 3 C-0.96 3 -4.92 3 -9 3 C-9 2.34 -9 1.68 -9 1 C-7.88625 1.020625 -6.7725 1.04125 -5.625 1.0625 C-2.16784079 1.26380718 -2.16784079 1.26380718 0 0 Z " fill="#8CCCDD" transform="translate(107,46)"/>
<path d="M0 0 C0.66 0.66 1.32 1.32 2 2 C4.10820797 1.6814823 4.10820797 1.6814823 6 1 C6 2.32 6 3.64 6 5 C2.25 6.125 2.25 6.125 0 5 C0 3.35 0 1.7 0 0 Z " fill="#54DDD2" transform="translate(121,52)"/>
<path d="M0 0 C0 0.33 0 0.66 0 1 C-1.98 1 -3.96 1 -6 1 C-6 1.66 -6 2.32 -6 3 C-8.64 2.67 -11.28 2.34 -14 2 C-14 1.67 -14 1.34 -14 1 C-9.32798795 -0.20568053 -4.78503708 -0.09382426 0 0 Z " fill="#92DAE9" transform="translate(21,33)"/>
<path d="M0 0 C1.32 0 2.64 0 4 0 C3.67 1.65 3.34 3.3 3 5 C2.01 4.67 1.02 4.34 0 4 C0 2.68 0 1.36 0 0 Z " fill="#35ADC6" transform="translate(26,59)"/>
<path d="M0 0 C2 1.3125 2 1.3125 4 3 C4 3.99 4 4.98 4 6 C2.68 5.67 1.36 5.34 0 5 C0 3.35 0 1.7 0 0 Z " fill="#34C2C4" transform="translate(115,57)"/>
</svg>
