<?xml version="1.0" encoding="UTF-8"?>
<svg version="1.1" xmlns="http://www.w3.org/2000/svg" width="150" height="150">
<path d="M0 0 C1.4800841 0.11362262 2.95910074 0.24122908 4.4375 0.375 C5.26121094 0.44460937 6.08492188 0.51421875 6.93359375 0.5859375 C7.95646484 0.79089844 7.95646484 0.79089844 9 1 C10.33332095 3.6666419 9.67102033 5.16680303 9 8 C13.94749352 9.95031608 13.94749352 9.95031608 19 9 C19.99 11.97 19.99 11.97 21 15 C21.85464844 14.98839844 22.70929688 14.97679687 23.58984375 14.96484375 C24.69457031 14.95582031 25.79929687 14.94679688 26.9375 14.9375 C28.03964844 14.92589844 29.14179688 14.91429687 30.27734375 14.90234375 C33 15 33 15 34 16 C34.08713831 17.70772358 34.10700007 19.41898649 34.09765625 21.12890625 C34.09443359 22.16337891 34.09121094 23.19785156 34.08789062 24.26367188 C34.07951172 25.35228516 34.07113281 26.44089844 34.0625 27.5625 C34.05798828 28.65498047 34.05347656 29.74746094 34.04882812 30.87304688 C34.03699826 33.58208495 34.02051543 36.29101599 34 39 C34.66 39 35.32 39 36 39 C36.2475 39.804375 36.495 40.60875 36.75 41.4375 C37.72238859 44.171081 37.72238859 44.171081 40.125 44.8125 C40.74375 44.874375 41.3625 44.93625 42 45 C42.33 46.32 42.66 47.64 43 49 C42.01 49.66 41.02 50.32 40 51 C40.3403125 52.1446875 40.3403125 52.1446875 40.6875 53.3125 C41 56 41 56 39.9375 57.8125 C37.24448045 59.46306037 35.09429572 59.20628638 32 59 C31.505 59.99 31.505 59.99 31 61 C29.35 60.67 27.7 60.34 26 60 C25.505 58.02 25.505 58.02 25 56 C23.35 55.67 21.7 55.34 20 55 C19.67 53.35 19.34 51.7 19 50 C19.99 50 20.98 50 22 50 C22.33 48.35 22.66 46.7 23 45 C21.35 45 19.7 45 18 45 C18 51.6 18 58.2 18 65 C20.31 65 22.62 65 25 65 C26 66 26 66 26.11352539 69.96899414 C26.1133662 71.74105607 26.10766785 73.5131226 26.09765625 75.28515625 C26.0962413 76.21597519 26.09482635 77.14679413 26.09336853 78.1058197 C26.08775172 81.09141191 26.0751964 84.07693029 26.0625 87.0625 C26.05748716 89.08137913 26.05292388 91.10025943 26.04882812 93.11914062 C26.03777683 98.07945572 26.02050095 103.03971532 26 108 C28.31 108.66 30.62 109.32 33 110 C32 112 32 112 30.34521484 112.61450195 C25.49200924 113.41225457 20.54404055 113.18590312 15.63769531 113.18530273 C13.63863013 113.18748512 11.63960468 113.20599143 9.640625 113.22460938 C8.36960937 113.22654297 7.09859375 113.22847656 5.7890625 113.23046875 C4.63100098 113.23457764 3.47293945 113.23868652 2.27978516 113.24291992 C-1.11310954 112.99162245 -3.83332989 112.21173908 -7 111 C-6.67 110.34 -6.34 109.68 -6 109 C-3.4375 108.375 -3.4375 108.375 -1 108 C-1.67857056 107.99191315 -2.35714111 107.98382629 -3.05627441 107.97549438 C-10.19572947 107.88863335 -17.33493245 107.7891071 -24.47412109 107.68261719 C-27.12938188 107.64363425 -29.7845665 107.60971702 -32.43994141 107.578125 C-71.83630137 107.1036487 -71.83630137 107.1036487 -78 103 C-78.75 100.375 -78.75 100.375 -79 98 C-82.153368 97.29925156 -84.72724974 97 -88 97 C-89.75 94.5 -89.75 94.5 -91 92 C-90.484375 91.5875 -89.96875 91.175 -89.4375 90.75 C-87.76446258 89.11863842 -87.76446258 89.11863842 -88.125 87 C-89.09056431 84.79299586 -90.19372753 83.57067171 -92 82 C-91.01 80.02 -90.02 78.04 -89 76 C-88.21625 76.20625 -87.4325 76.4125 -86.625 76.625 C-85.75875 76.74875 -84.8925 76.8725 -84 77 C-83.01 76.01 -83.01 76.01 -82 75 C-82 73.68 -82 72.36 -82 71 C-78.535 70.505 -78.535 70.505 -75 70 C-75 68.35 -75 66.7 -75 65 C-81.27 65 -87.54 65 -94 65 C-94 64.34 -94 63.68 -94 63 C-91.03 62.505 -91.03 62.505 -88 62 C-88 61.01 -88 60.02 -88 59 C-89.98 59 -91.96 59 -94 59 C-94 58.34 -94 57.68 -94 57 C-92.02 57 -90.04 57 -88 57 C-88 55.68 -88 54.36 -88 53 C-89.98 53 -91.96 53 -94 53 C-94 52.34 -94 51.68 -94 51 C-92.02 51 -90.04 51 -88 51 C-88 49.68 -88 48.36 -88 47 C-89.98 47 -91.96 47 -94 47 C-94 46.34 -94 45.68 -94 45 C-92.02 45 -90.04 45 -88 45 C-88 44.01 -88 43.02 -88 42 C-89.98 41.67 -91.96 41.34 -94 41 C-94 40.67 -94 40.34 -94 40 C-87.73 40 -81.46 40 -75 40 C-75 38.35 -75 36.7 -75 35 C-81.27 35 -87.54 35 -94 35 C-94 34.67 -94 34.34 -94 34 C-91.525 33.505 -91.525 33.505 -89 33 C-88.67 31.68 -88.34 30.36 -88 29 C-89.98 29 -91.96 29 -94 29 C-94 28.67 -94 28.34 -94 28 C-92.35 27.67 -90.7 27.34 -89 27 C-88.67 25.68 -88.34 24.36 -88 23 C-89.98 23 -91.96 23 -94 23 C-94 22.67 -94 22.34 -94 22 C-92.35 21.67 -90.7 21.34 -89 21 C-88.67 19.68 -88.34 18.36 -88 17 C-89.98 17 -91.96 17 -94 17 C-94 16.67 -94 16.34 -94 16 C-88.11060037 13.95887931 -82.8280285 13.72721958 -76.625 13.8125 C-75.25408203 13.8134668 -75.25408203 13.8134668 -73.85546875 13.81445312 C-67.14064837 13.85935163 -67.14064837 13.85935163 -66 15 C-63.19023482 15.16017166 -60.40226404 15.25950534 -57.58984375 15.31640625 C-56.74780899 15.33718735 -55.90577423 15.35796844 -55.03822327 15.37937927 C-52.33806821 15.44496812 -49.63781283 15.50380276 -46.9375 15.5625 C-45.11131759 15.60567637 -43.28514546 15.64929036 -41.45898438 15.69335938 C-36.97276008 15.80065894 -32.4864345 15.90189966 -28 16 C-28 16.33 -28 16.66 -28 17 C-40.87 17 -53.74 17 -67 17 C-66.67 18.32 -66.34 19.64 -66 21 C-53.46 21.33 -40.92 21.66 -28 22 C-28 22.33 -28 22.66 -28 23 C-40.87 23 -53.74 23 -67 23 C-66.67 24.32 -66.34 25.64 -66 27 C-50.16 27 -34.32 27 -18 27 C-18.495 25.02 -18.495 25.02 -19 23 C-17.35 22.67 -15.7 22.34 -14 22 C-13.64393187 17.03448675 -13.64393187 17.03448675 -15.5 12.5625 C-15.995 12.046875 -16.49 11.53125 -17 11 C-15.35 9.02 -13.7 7.04 -12 5 C-11.113125 5.350625 -10.22625 5.70125 -9.3125 6.0625 C-5.93796874 7.01755602 -4.30313848 6.97151132 -1 6 C-0.67 4.02 -0.34 2.04 0 0 Z M-5 14 C-7.2084626 17.31269391 -7.80664241 19.14978851 -7.5546875 23.0625 C-6.4812192 26.81207941 -4.28696911 28.01541488 -1 30 C1.63836977 30.1672392 1.63836977 30.1672392 4 30 C4.03738281 29.01257813 4.07476562 28.02515625 4.11328125 27.0078125 C4.17902344 25.72648437 4.24476562 24.44515625 4.3125 23.125 C4.37050781 21.84882812 4.42851563 20.57265625 4.48828125 19.2578125 C4.65714844 18.18273437 4.82601562 17.10765625 5 16 C5.99 15.34 6.98 14.68 8 14 C6.01607489 11.60148679 6.01607489 11.60148679 2.1875 11.5625 C-1.17733329 11.66669338 -2.04370031 12.02913354 -5 14 Z M-67 29 C-67 29.66 -67 30.32 -67 31 C-64.69 31 -62.38 31 -60 31 C-60 30.34 -60 29.68 -60 29 C-62.31 29 -64.62 29 -67 29 Z M26 47 C25.6366844 49.83386167 25.6431329 51.40522151 27.125 53.875 C29.92151052 55.55290631 31.93690532 54.74875648 35 54 C35.67673447 50.59679066 35.67673447 50.59679066 36 47 C34.11499729 44.68436913 34.11499729 44.68436913 31 44.75 C27.88500271 44.68436913 27.88500271 44.68436913 26 47 Z M-81.25 80.625 C-83.21985834 82.92308586 -83.21985834 82.92308586 -83.5 86 C-83.21376982 89.06575838 -83.21376982 89.06575838 -81.3125 91.375 C-78.61209763 93.27258004 -77.22939919 93.35882213 -74 93 C-73.85024761 85.94348748 -73.85024761 85.94348748 -75 79 C-78.92212225 78.60967296 -78.92212225 78.60967296 -81.25 80.625 Z M-71 97 C-71 97.99 -71 98.98 -71 100 C-67.68727224 99.85908107 -64.37488029 99.71134606 -61.0625 99.5625 C-60.13630859 99.52318359 -59.21011719 99.48386719 -58.25585938 99.44335938 C-52.46486581 99.17920879 -46.75460497 98.70235691 -41 98 C-40.67 97.01 -40.34 96.02 -40 95 C-44.09338652 94.95060885 -48.18665798 94.91428499 -52.28027344 94.89013672 C-53.67320781 94.88007123 -55.06612102 94.86641766 -56.45898438 94.84912109 C-58.4595436 94.8248978 -60.46025615 94.81459186 -62.4609375 94.8046875 C-63.66540527 94.79421387 -64.86987305 94.78374023 -66.11083984 94.77294922 C-69.12841495 94.69539186 -69.12841495 94.69539186 -71 97 Z M-16 95 C-16 95.99 -16 96.98 -16 98 C-10.72 98.33 -5.44 98.66 0 99 C0 97.68 0 96.36 0 95 C-5.28 95 -10.56 95 -16 95 Z " fill="#5E52FD" transform="translate(101,18)"/>
<path d="M0 0 C2.31 0 4.62 0 7 0 C7 2.97 7 5.94 7 9 C10.3 9 13.6 9 17 9 C17 15.6 17 22.2 17 29 C12.71 29 8.42 29 4 29 C4 29.66 4 30.32 4 31 C12.79133718 32.42426407 12.79133718 32.42426407 29 32 C29 45.2 29 58.4 29 72 C31.31 72.66 33.62 73.32 36 74 C35 76 35 76 33.34521484 76.61450195 C28.49200924 77.41225457 23.54404055 77.18590312 18.63769531 77.18530273 C16.63863013 77.18748512 14.63960468 77.20599143 12.640625 77.22460938 C11.36960937 77.22654297 10.09859375 77.22847656 8.7890625 77.23046875 C7.63100098 77.23457764 6.47293945 77.23868652 5.27978516 77.24291992 C1.88689046 76.99162245 -0.83332989 76.21173908 -4 75 C-3.67 74.34 -3.34 73.68 -3 73 C-0.4375 72.375 -0.4375 72.375 2 72 C1.32142944 71.99191315 0.64285889 71.98382629 -0.05627441 71.97549438 C-7.19572947 71.88863335 -14.33493245 71.7891071 -21.47412109 71.68261719 C-24.12938188 71.64363425 -26.7845665 71.60971702 -29.43994141 71.578125 C-68.83630137 71.1036487 -68.83630137 71.1036487 -75 67 C-75.75 64.375 -75.75 64.375 -76 62 C-79.153368 61.29925156 -81.72724974 61 -85 61 C-86.75 58.5 -86.75 58.5 -88 56 C-87.484375 55.5875 -86.96875 55.175 -86.4375 54.75 C-84.76446258 53.11863842 -84.76446258 53.11863842 -85.125 51 C-86.09056431 48.79299586 -87.19372753 47.57067171 -89 46 C-88.01 44.02 -87.02 42.04 -86 40 C-85.21625 40.20625 -84.4325 40.4125 -83.625 40.625 C-82.75875 40.74875 -81.8925 40.8725 -81 41 C-80.34 40.34 -79.68 39.68 -79 39 C-79 37.68 -79 36.36 -79 35 C-75.535 34.505 -75.535 34.505 -72 34 C-72 36.97 -72 39.94 -72 43 C-72.969375 43.28875 -73.93875 43.5775 -74.9375 43.875 C-78.10664203 44.64214682 -78.10664203 44.64214682 -79 47 C-79.40270732 51.1283652 -79.40270732 51.1283652 -77.8125 54.8125 C-75.57968261 56.27538036 -73.62655933 56.64505955 -71 57 C-71 54.03 -71 51.06 -71 48 C-69.02 48 -67.04 48 -65 48 C-64.67 48.66 -64.34 49.32 -64 50 C-55.75 50 -47.5 50 -39 50 C-38.505 49.01 -38.505 49.01 -38 48 C-24.47 48 -10.94 48 3 48 C3 46.35 3 44.7 3 43 C2.34926514 43.01571045 1.69853027 43.0314209 1.02807617 43.04760742 C-1.91869424 43.10994649 -4.86532598 43.14898684 -7.8125 43.1875 C-8.83666016 43.21263672 -9.86082031 43.23777344 -10.91601562 43.26367188 C-12.39038086 43.27817383 -12.39038086 43.27817383 -13.89453125 43.29296875 C-14.80050049 43.3086792 -15.70646973 43.32438965 -16.63989258 43.34057617 C-19.4686014 42.9323783 -20.18949196 42.13351263 -22 40 C-22.70125 39.649375 -23.4025 39.29875 -24.125 38.9375 C-26 38 -26 38 -27 36 C-26.01 36 -25.02 36 -24 36 C-24 34.35 -24 32.7 -24 31 C-19.05 31 -14.1 31 -9 31 C-8.34 29.68 -7.68 28.36 -7 27 C-5.02 26.34 -3.04 25.68 -1 25 C-0.67 16.75 -0.34 8.5 0 0 Z M-68 61 C-68 61.99 -68 62.98 -68 64 C-64.68727224 63.85908107 -61.37488029 63.71134606 -58.0625 63.5625 C-57.13630859 63.52318359 -56.21011719 63.48386719 -55.25585938 63.44335938 C-49.46486581 63.17920879 -43.75460497 62.70235691 -38 62 C-37.67 61.01 -37.34 60.02 -37 59 C-41.09338652 58.95060885 -45.18665798 58.91428499 -49.28027344 58.89013672 C-50.67320781 58.88007123 -52.06612102 58.86641766 -53.45898438 58.84912109 C-55.4595436 58.8248978 -57.46025615 58.81459186 -59.4609375 58.8046875 C-60.66540527 58.79421387 -61.86987305 58.78374023 -63.11083984 58.77294922 C-66.12841495 58.69539186 -66.12841495 58.69539186 -68 61 Z M-13 59 C-13 59.99 -13 60.98 -13 62 C-7.72 62.33 -2.44 62.66 3 63 C3 61.68 3 60.36 3 59 C-2.28 59 -7.56 59 -13 59 Z " fill="#5F4EF3" transform="translate(98,54)"/>
<path d="M0 0 C0 2.97 0 5.94 0 9 C-0.969375 9.28875 -1.93875 9.5775 -2.9375 9.875 C-6.10664203 10.64214682 -6.10664203 10.64214682 -7 13 C-7.40270732 17.1283652 -7.40270732 17.1283652 -5.8125 20.8125 C-3.57968261 22.27538036 -1.62655933 22.64505955 1 23 C1 20.03 1 17.06 1 14 C2.98 14 4.96 14 7 14 C7.33 14.66 7.66 15.32 8 16 C16.25 16 24.5 16 33 16 C33.33 15.34 33.66 14.68 34 14 C47.53 14 61.06 14 75 14 C75 17.63 75 21.26 75 25 C69.72 25 64.44 25 59 25 C59 25.99 59 26.98 59 28 C59.56847656 27.98839844 60.13695313 27.97679688 60.72265625 27.96484375 C65.60670484 27.90776806 70.18503965 28.18043228 75 29 C75 31.64 75 34.28 75 37 C67.71409984 37.04682155 60.42823335 37.08211748 53.14221191 37.10362434 C49.75718789 37.11395864 46.37226851 37.12792229 42.98730469 37.15087891 C3.62570011 37.39816171 3.62570011 37.39816171 -3 33 C-3.75 30.375 -3.75 30.375 -4 28 C-7.153368 27.29925156 -9.72724974 27 -13 27 C-14.75 24.5 -14.75 24.5 -16 22 C-15.484375 21.5875 -14.96875 21.175 -14.4375 20.75 C-12.76446258 19.11863842 -12.76446258 19.11863842 -13.125 17 C-14.09056431 14.79299586 -15.19372753 13.57067171 -17 12 C-16.01 10.02 -15.02 8.04 -14 6 C-12.824375 6.309375 -12.824375 6.309375 -11.625 6.625 C-10.75875 6.74875 -9.8925 6.8725 -9 7 C-8.34 6.34 -7.68 5.68 -7 5 C-7 3.68 -7 2.36 -7 1 C-4.53721199 -0.231394 -2.7204945 -0.07159196 0 0 Z M4 27 C4 27.99 4 28.98 4 30 C7.31272776 29.85908107 10.62511971 29.71134606 13.9375 29.5625 C14.86369141 29.52318359 15.78988281 29.48386719 16.74414062 29.44335938 C22.53513419 29.17920879 28.24539503 28.70235691 34 28 C34.33 27.01 34.66 26.02 35 25 C30.90661348 24.95060885 26.81334202 24.91428499 22.71972656 24.89013672 C21.32679219 24.88007123 19.93387898 24.86641766 18.54101562 24.84912109 C16.5404564 24.8248978 14.53974385 24.81459186 12.5390625 24.8046875 C11.33459473 24.79421387 10.13012695 24.78374023 8.88916016 24.77294922 C5.87158505 24.69539186 5.87158505 24.69539186 4 27 Z " fill="#B2D0FE" transform="translate(26,88)"/>
<path d="M0 0 C16.83 0 33.66 0 51 0 C51 10.23 51 20.46 51 31 C34.17 31 17.34 31 0 31 C0 20.77 0 10.54 0 0 Z " fill="#474E94" transform="translate(44,47)"/>
<path d="M0 0 C1.4800841 0.11362262 2.95910074 0.24122908 4.4375 0.375 C5.26121094 0.44460937 6.08492187 0.51421875 6.93359375 0.5859375 C7.61550781 0.72257812 8.29742187 0.85921875 9 1 C10.33332095 3.6666419 9.67102033 5.16680303 9 8 C13.94749352 9.95031608 13.94749352 9.95031608 19 9 C19.66 10.98 20.32 12.96 21 15 C22.28197266 14.98259766 22.28197266 14.98259766 23.58984375 14.96484375 C24.69457031 14.95582031 25.79929688 14.94679688 26.9375 14.9375 C28.03964844 14.92589844 29.14179688 14.91429687 30.27734375 14.90234375 C33 15 33 15 34 16 C34.08713831 17.70772358 34.10700007 19.41898649 34.09765625 21.12890625 C34.09443359 22.16337891 34.09121094 23.19785156 34.08789062 24.26367188 C34.07532227 25.8965918 34.07532227 25.8965918 34.0625 27.5625 C34.05798828 28.65498047 34.05347656 29.74746094 34.04882812 30.87304688 C34.03699826 33.58208495 34.02051543 36.29101599 34 39 C34.66 39 35.32 39 36 39 C36.2475 39.804375 36.495 40.60875 36.75 41.4375 C37.72238859 44.171081 37.72238859 44.171081 40.125 44.8125 C41.053125 44.9053125 41.053125 44.9053125 42 45 C42.495 46.98 42.495 46.98 43 49 C42.01 49.66 41.02 50.32 40 51 C40.226875 51.763125 40.45375 52.52625 40.6875 53.3125 C41 56 41 56 39.9375 57.8125 C37.24448045 59.46306037 35.09429572 59.20628638 32 59 C31.505 59.99 31.505 59.99 31 61 C29.35 60.67 27.7 60.34 26 60 C25.505 58.02 25.505 58.02 25 56 C23.35 55.67 21.7 55.34 20 55 C19.67 53.35 19.34 51.7 19 50 C19.99 50 20.98 50 22 50 C22.33 48.35 22.66 46.7 23 45 C21.35 45 19.7 45 18 45 C17.690625 43.88625 17.38125 42.7725 17.0625 41.625 C16.17673517 38.2054845 16.17673517 38.2054845 15 36 C15.66 36 16.32 36 17 36 C17 34.35 17 32.7 17 31 C10.4 31 3.8 31 -3 31 C-3 30.34 -3 29.68 -3 29 C-0.69 29.33 1.62 29.66 4 30 C3.94779297 28.51886719 3.94779297 28.51886719 3.89453125 27.0078125 C3.86746094 25.72648437 3.84039062 24.44515625 3.8125 23.125 C3.76029297 21.21074219 3.76029297 21.21074219 3.70703125 19.2578125 C3.80371094 18.18273437 3.90039062 17.10765625 4 16 C4.99 15.34 5.98 14.68 7 14 C5.78410016 12.56844101 5.78410016 12.56844101 2.1875 12.6875 C-0.78617685 12.74622611 -1.87751147 12.92650688 -4.5 14.5 C-6.71177972 18.18629954 -6.34421275 20.73176192 -6 25 C-5.67 25.66 -5.34 26.32 -5 27 C-9.29 27 -13.58 27 -18 27 C-18.33 25.68 -18.66 24.36 -19 23 C-17.35 22.67 -15.7 22.34 -14 22 C-13.64393187 17.03448675 -13.64393187 17.03448675 -15.5 12.5625 C-15.995 12.046875 -16.49 11.53125 -17 11 C-15.35 9.02 -13.7 7.04 -12 5 C-10.6696875 5.5259375 -10.6696875 5.5259375 -9.3125 6.0625 C-5.93796874 7.01755602 -4.30313848 6.97151132 -1 6 C-0.67 4.02 -0.34 2.04 0 0 Z M26 47 C25.6366844 49.83386167 25.6431329 51.40522151 27.125 53.875 C29.92151052 55.55290631 31.93690532 54.74875648 35 54 C35.67673447 50.59679066 35.67673447 50.59679066 36 47 C34.11499729 44.68436913 34.11499729 44.68436913 31 44.75 C27.88500271 44.68436913 27.88500271 44.68436913 26 47 Z " fill="#36DBC7" transform="translate(101,18)"/>
<path d="M0 0 C7.92 0 15.84 0 24 0 C24.495 1.98 24.495 1.98 25 4 C31.6 4 38.2 4 45 4 C45 6.33333333 45 8.66666667 45 11 C45.495 11.495 45.495 11.495 46 12 C46.08748207 13.92667507 46.10697334 15.85651861 46.09765625 17.78515625 C46.09282227 19.53989258 46.09282227 19.53989258 46.08789062 21.33007812 C46.07532227 23.17762695 46.07532227 23.17762695 46.0625 25.0625 C46.05798828 26.29806641 46.05347656 27.53363281 46.04882812 28.80664062 C46.03699608 31.87114117 46.02051173 34.93554721 46 38 C48.31 38 50.62 38 53 38 C53.33 38.99 53.66 39.98 54 41 C45.19039858 42.30512614 36.80960142 42.30512614 28 41 C28.33 40.01 28.66 39.02 29 38 C33.29 38 37.58 38 42 38 C42 31.4 42 24.8 42 18 C38.7 18 35.4 18 32 18 C32 15.03 32 12.06 32 9 C29.69 9 27.38 9 25 9 C25.01571045 10.12027588 25.01571045 10.12027588 25.03173828 11.26318359 C25.0732077 14.63375508 25.09929729 18.004273 25.125 21.375 C25.14175781 22.550625 25.15851563 23.72625 25.17578125 24.9375 C25.18544922 26.61972656 25.18544922 26.61972656 25.1953125 28.3359375 C25.21102295 29.89127197 25.21102295 29.89127197 25.22705078 31.47802734 C25 34 25 34 23 36 C20.76086426 36.25396729 20.76086426 36.25396729 17.93945312 36.25878906 C16.35771301 36.26824554 16.35771301 36.26824554 14.74401855 36.27789307 C13.60130493 36.2738446 12.45859131 36.26979614 11.28125 36.265625 C9.52802429 36.26849518 9.52802429 36.26849518 7.73937988 36.27142334 C5.26456487 36.27278626 2.78974274 36.26908241 0.31494141 36.26074219 C-3.48421205 36.25004446 -7.28289259 36.26063418 -11.08203125 36.2734375 C-13.48177188 36.27211592 -15.88151222 36.26955357 -18.28125 36.265625 C-19.99532043 36.27169769 -19.99532043 36.27169769 -21.74401855 36.27789307 C-22.79851196 36.27158875 -23.85300537 36.26528442 -24.93945312 36.25878906 C-25.8705188 36.25719788 -26.80158447 36.25560669 -27.76086426 36.25396729 C-30 36 -30 36 -32 34 C-32.22705078 31.01904297 -32.22705078 31.01904297 -32.1953125 27.2421875 C-32.1924826 26.57913605 -32.18965271 25.91608459 -32.18673706 25.23294067 C-32.17553435 23.11344417 -32.15043051 20.99436896 -32.125 18.875 C-32.11497028 17.43880818 -32.10584441 16.00260975 -32.09765625 14.56640625 C-32.075595 11.04413372 -32.04106494 7.52210797 -32 4 C-31.01 4 -30.02 4 -29 4 C-29 13.57 -29 23.14 -29 33 C-12.17 33 4.66 33 22 33 C22 22.77 22 12.54 22 2 C14.74 2 7.48 2 0 2 C0 1.34 0 0.68 0 0 Z " fill="#37D7C7" transform="translate(73,45)"/>
<path d="M0 0 C2.31 0 4.62 0 7 0 C7 2.97 7 5.94 7 9 C10.3 9 13.6 9 17 9 C17 15.6 17 22.2 17 29 C12.71 29 8.42 29 4 29 C3.67 33.62 3.34 38.24 3 43 C-0.60461295 43.08076726 -4.20742563 43.14038951 -7.8125 43.1875 C-8.83666016 43.21263672 -9.86082031 43.23777344 -10.91601562 43.26367188 C-12.39038086 43.27817383 -12.39038086 43.27817383 -13.89453125 43.29296875 C-14.80050049 43.3086792 -15.70646973 43.32438965 -16.63989258 43.34057617 C-19.4686014 42.9323783 -20.18949196 42.13351263 -22 40 C-23.051875 39.4740625 -23.051875 39.4740625 -24.125 38.9375 C-26 38 -26 38 -27 36 C-26.01 36 -25.02 36 -24 36 C-24 34.35 -24 32.7 -24 31 C-19.05 31 -14.1 31 -9 31 C-8.34 29.68 -7.68 28.36 -7 27 C-5.02 26.34 -3.04 25.68 -1 25 C-0.67 16.75 -0.34 8.5 0 0 Z " fill="#7286FD" transform="translate(98,54)"/>
<path d="M0 0 C0 2.97 0 5.94 0 9 C-0.969375 9.28875 -1.93875 9.5775 -2.9375 9.875 C-6.10664203 10.64214682 -6.10664203 10.64214682 -7 13 C-7.45565588 17.050918 -7.45565588 17.050918 -5.80859375 20.5859375 C-3.56396384 22.34091812 -1.55436719 22.93971804 1.1875 23.6875 C2.08855469 23.93886719 2.98960938 24.19023438 3.91796875 24.44921875 C4.60503906 24.63097656 5.29210937 24.81273438 6 25 C5.01 27.475 5.01 27.475 4 30 C4.88353149 29.90912109 4.88353149 29.90912109 5.78491211 29.81640625 C8.50198983 29.5396151 11.21971686 29.26977324 13.9375 29 C14.86369141 28.90460938 15.78988281 28.80921875 16.74414062 28.7109375 C22.52911107 28.14258953 28.18730276 27.90461215 34 28 C33.67 28.66 33.34 29.32 33 30 C30.35139573 30.59355614 27.70802678 30.74209269 25 31 C25 31.66 25 32.32 25 33 C39.19 33 53.38 33 68 33 C67.67 32.34 67.34 31.68 67 31 C65.845 30.835 64.69 30.67 63.5 30.5 C62.345 30.335 61.19 30.17 60 30 C59.505 29.01 59.505 29.01 59 28 C64.45769811 27.88861841 69.61509359 28.08342019 75 29 C75 31.64 75 34.28 75 37 C67.71409984 37.04682155 60.42823335 37.08211748 53.14221191 37.10362434 C49.75718789 37.11395864 46.37226851 37.12792229 42.98730469 37.15087891 C3.62570011 37.39816171 3.62570011 37.39816171 -3 33 C-3.75 30.375 -3.75 30.375 -4 28 C-7.153368 27.29925156 -9.72724974 27 -13 27 C-14.75 24.5 -14.75 24.5 -16 22 C-15.484375 21.5875 -14.96875 21.175 -14.4375 20.75 C-12.76446258 19.11863842 -12.76446258 19.11863842 -13.125 17 C-14.09056431 14.79299586 -15.19372753 13.57067171 -17 12 C-16.01 10.02 -15.02 8.04 -14 6 C-12.824375 6.309375 -12.824375 6.309375 -11.625 6.625 C-10.75875 6.74875 -9.8925 6.8725 -9 7 C-8.34 6.34 -7.68 5.68 -7 5 C-7 3.68 -7 2.36 -7 1 C-4.53721199 -0.231394 -2.7204945 -0.07159196 0 0 Z " fill="#EAEBF2" transform="translate(26,88)"/>
<path d="M0 0 C1.37091797 0.0009668 1.37091797 0.0009668 2.76953125 0.00195312 C9.48435163 0.04685163 9.48435163 0.04685163 10.625 1.1875 C13.43476518 1.34767166 16.22273596 1.44700534 19.03515625 1.50390625 C19.87719101 1.52468735 20.71922577 1.54546844 21.58677673 1.56687927 C24.28693179 1.63246812 26.98718717 1.69130276 29.6875 1.75 C31.51368241 1.79317637 33.33985454 1.83679036 35.16601562 1.88085938 C39.65223992 1.98815894 44.1385655 2.08939966 48.625 2.1875 C48.625 2.5175 48.625 2.8475 48.625 3.1875 C35.755 3.1875 22.885 3.1875 9.625 3.1875 C9.955 4.5075 10.285 5.8275 10.625 7.1875 C23.165 7.5175 35.705 7.8475 48.625 8.1875 C48.625 8.5175 48.625 8.8475 48.625 9.1875 C35.755 9.1875 22.885 9.1875 9.625 9.1875 C9.955 10.5075 10.285 11.8275 10.625 13.1875 C23.165 13.1875 35.705 13.1875 48.625 13.1875 C48.625 13.8475 48.625 14.5075 48.625 15.1875 C39.055 15.1875 29.485 15.1875 19.625 15.1875 C19.625 15.8475 19.625 16.5075 19.625 17.1875 C18.635 17.1875 17.645 17.1875 16.625 17.1875 C16.625 16.5275 16.625 15.8675 16.625 15.1875 C14.315 15.1875 12.005 15.1875 9.625 15.1875 C9.625 17.1675 9.625 19.1475 9.625 21.1875 C0.715 21.1875 -8.195 21.1875 -17.375 21.1875 C-17.375 20.8575 -17.375 20.5275 -17.375 20.1875 C-15.725 19.8575 -14.075 19.5275 -12.375 19.1875 C-12.045 17.8675 -11.715 16.5475 -11.375 15.1875 C-13.355 15.1875 -15.335 15.1875 -17.375 15.1875 C-17.375 14.8575 -17.375 14.5275 -17.375 14.1875 C-15.725 13.8575 -14.075 13.5275 -12.375 13.1875 C-12.045 11.8675 -11.715 10.5475 -11.375 9.1875 C-13.355 9.1875 -15.335 9.1875 -17.375 9.1875 C-17.375 8.8575 -17.375 8.5275 -17.375 8.1875 C-15.725 7.8575 -14.075 7.5275 -12.375 7.1875 C-12.045 5.8675 -11.715 4.5475 -11.375 3.1875 C-13.355 3.1875 -15.335 3.1875 -17.375 3.1875 C-17.375 2.8575 -17.375 2.5275 -17.375 2.1875 C-11.48560037 0.14637931 -6.2030285 -0.08528042 0 0 Z " fill="#92E1E0" transform="translate(24.375,31.8125)"/>
<path d="M0 0 C1.12019531 -0.00128906 2.24039063 -0.00257812 3.39453125 -0.00390625 C4.57402344 -0.00003906 5.75351562 0.00382812 6.96875 0.0078125 C8.73798828 0.00201172 8.73798828 0.00201172 10.54296875 -0.00390625 C12.22326172 -0.00197266 12.22326172 -0.00197266 13.9375 0 C14.97326172 0.00112793 16.00902344 0.00225586 17.07617188 0.00341797 C19.46875 0.1328125 19.46875 0.1328125 20.46875 1.1328125 C20.56861975 3.97616298 20.60752881 6.78978413 20.59375 9.6328125 C20.59955078 10.82970703 20.59955078 10.82970703 20.60546875 12.05078125 C20.59535767 18.00620483 20.59535767 18.00620483 19.46875 19.1328125 C17.62715977 19.23240871 15.78178033 19.26361661 13.9375 19.265625 C12.81730469 19.26691406 11.69710937 19.26820312 10.54296875 19.26953125 C9.36347656 19.26566406 8.18398438 19.26179688 6.96875 19.2578125 C5.19951172 19.26361328 5.19951172 19.26361328 3.39453125 19.26953125 C1.71423828 19.26759766 1.71423828 19.26759766 0 19.265625 C-1.03576172 19.26449707 -2.07152344 19.26336914 -3.13867188 19.26220703 C-5.53125 19.1328125 -5.53125 19.1328125 -6.53125 18.1328125 C-6.63111975 15.28946202 -6.67002881 12.47584087 -6.65625 9.6328125 C-6.66011719 8.83488281 -6.66398437 8.03695312 -6.66796875 7.21484375 C-6.65573175 0.007248 -6.65573175 0.007248 0 0 Z " fill="#3CD7CA" transform="translate(39.53125,85.8671875)"/>
<path d="M0 0 C3.0000624 -0.02721831 5.99987256 -0.04694378 9 -0.0625 C9.83917969 -0.07087891 10.67835937 -0.07925781 11.54296875 -0.08789062 C12.79013672 -0.09272461 12.79013672 -0.09272461 14.0625 -0.09765625 C15.19365234 -0.10551147 15.19365234 -0.10551147 16.34765625 -0.11352539 C19.91451913 0.03914317 23.45744034 0.55718004 27 1 C27 7.93 27 14.86 27 22 C20.07 22 13.14 22 6 22 C6 21.01 6 20.02 6 19 C4.02 19 2.04 19 0 19 C0 18.34 0 17.68 0 17 C1.98 17 3.96 17 6 17 C6 15.68 6 14.36 6 13 C4.02 13 2.04 13 0 13 C0 12.34 0 11.68 0 11 C1.98 11 3.96 11 6 11 C6 9.68 6 8.36 6 7 C4.02 7 2.04 7 0 7 C0 6.34 0 5.68 0 5 C1.98 5 3.96 5 6 5 C6 4.01 6 3.02 6 2 C3.03 1.505 3.03 1.505 0 1 C0 0.67 0 0.34 0 0 Z " fill="#36CECB" transform="translate(7,58)"/>
<path d="M0 0 C1.03165283 0.02094727 2.06330566 0.04189453 3.1262207 0.06347656 C4.80361328 0.0828125 4.80361328 0.0828125 6.51489258 0.10253906 C7.68213867 0.13605469 8.84938477 0.16957031 10.05200195 0.20410156 C11.23084961 0.22214844 12.40969727 0.24019531 13.62426758 0.25878906 C16.53849121 0.30598297 19.45109226 0.37181079 22.36450195 0.45410156 C21.70450195 1.77410156 21.04450195 3.09410156 20.36450195 4.45410156 C18.05450195 4.45410156 15.74450195 4.45410156 13.36450195 4.45410156 C13.36450195 6.43410156 13.36450195 8.41410156 13.36450195 10.45410156 C13.03450195 10.45410156 12.70450195 10.45410156 12.36450195 10.45410156 C12.36450195 8.47410156 12.36450195 6.49410156 12.36450195 4.45410156 C10.05450195 4.45410156 7.74450195 4.45410156 5.36450195 4.45410156 C5.36450195 6.10410156 5.36450195 7.75410156 5.36450195 9.45410156 C4.37450195 9.94910156 4.37450195 9.94910156 3.36450195 10.45410156 C4.26168945 10.88722656 4.26168945 10.88722656 5.17700195 11.32910156 C7.36450195 12.45410156 7.36450195 12.45410156 10.36450195 14.45410156 C10.36450195 15.11410156 10.36450195 15.77410156 10.36450195 16.45410156 C17.62450195 16.45410156 24.88450195 16.45410156 32.36450195 16.45410156 C32.36450195 18.10410156 32.36450195 19.75410156 32.36450195 21.45410156 C18.83450195 21.45410156 5.30450195 21.45410156 -8.63549805 21.45410156 C-8.96549805 16.17410156 -9.29549805 10.89410156 -9.63549805 5.45410156 C-8.31549805 5.12410156 -6.99549805 4.79410156 -5.63549805 4.45410156 C-5.1768335 3.7815332 -4.71816895 3.10896484 -4.24560547 2.41601562 C-2.63549805 0.45410156 -2.63549805 0.45410156 0 0 Z " fill="#6C73FE" transform="translate(68.635498046875,80.5458984375)"/>
<path d="M0 0 C2.64 0 5.28 0 8 0 C8 12.54 8 25.08 8 38 C-0.25 38 -8.5 38 -17 38 C-17 26 -17 26 -16 22 C-15.34 22 -14.68 22 -14 22 C-13.67 23.65 -13.34 25.3 -13 27 C-7.72 27 -2.44 27 3 27 C3.33 21.39 3.66 15.78 4 10 C0.7 10 -2.6 10 -6 10 C-5.34 9.34 -4.68 8.68 -4 8 C-3.34 8.33 -2.68 8.66 -2 9 C-2.33 8.01 -2.66 7.02 -3 6 C-2.34 5.34 -1.68 4.68 -1 4 C-0.3574765 1.93125966 -0.3574765 1.93125966 0 0 Z " fill="#6F7CFE" transform="translate(119,86)"/>
<path d="M0 0 C1.4800841 0.11362262 2.95910074 0.24122908 4.4375 0.375 C5.26121094 0.44460937 6.08492187 0.51421875 6.93359375 0.5859375 C7.61550781 0.72257812 8.29742187 0.85921875 9 1 C10.33332095 3.6666419 9.67102033 5.16680303 9 8 C13.94749352 9.95031608 13.94749352 9.95031608 19 9 C19.66 10.98 20.32 12.96 21 15 C18.87527424 15.05386629 16.75016348 15.09273071 14.625 15.125 C12.84996094 15.15980469 12.84996094 15.15980469 11.0390625 15.1953125 C8 15 8 15 6 13 C0.45764755 12.42765564 0.45764755 12.42765564 -4.5 14.5 C-6.71177972 18.18629954 -6.34421275 20.73176192 -6 25 C-5.67 25.66 -5.34 26.32 -5 27 C-9.29 27 -13.58 27 -18 27 C-18.33 25.68 -18.66 24.36 -19 23 C-17.35 22.67 -15.7 22.34 -14 22 C-13.64393187 17.03448675 -13.64393187 17.03448675 -15.5 12.5625 C-15.995 12.046875 -16.49 11.53125 -17 11 C-15.35 9.02 -13.7 7.04 -12 5 C-10.6696875 5.5259375 -10.6696875 5.5259375 -9.3125 6.0625 C-5.93796874 7.01755602 -4.30313848 6.97151132 -1 6 C-0.67 4.02 -0.34 2.04 0 0 Z " fill="#E8EAF1" transform="translate(101,18)"/>
<path d="M0 0 C6.6 0 13.2 0 20 0 C20 2.33333333 20 4.66666667 20 7 C20.33 7.33 20.66 7.66 21 8 C21.08748207 9.92667507 21.10697334 11.85651861 21.09765625 13.78515625 C21.09443359 14.95498047 21.09121094 16.12480469 21.08789062 17.33007812 C21.07951172 18.56177734 21.07113281 19.79347656 21.0625 21.0625 C21.05798828 22.29806641 21.05347656 23.53363281 21.04882812 24.80664062 C21.03699608 27.87114117 21.02051173 30.93554721 21 34 C23.31 34 25.62 34 28 34 C28.33 34.99 28.66 35.98 29 37 C20.19039858 38.30512614 11.80960142 38.30512614 3 37 C3.33 36.01 3.66 35.02 4 34 C8.29 34 12.58 34 17 34 C17 27.4 17 20.8 17 14 C13.7 14 10.4 14 7 14 C7 11.03 7 8.06 7 5 C4.69 5 2.38 5 0 5 C0 3.35 0 1.7 0 0 Z " fill="#39C5D7" transform="translate(98,49)"/>
<path d="M0 0 C1.58206057 0.00667536 3.16410534 0.0186375 4.74609375 0.03515625 C5.55240234 0.03966797 6.35871094 0.04417969 7.18945312 0.04882812 C9.18753131 0.06065107 11.18557158 0.07858711 13.18359375 0.09765625 C13.21043687 2.91021906 13.23035563 5.72252866 13.24609375 8.53515625 C13.25447266 9.33759766 13.26285156 10.14003906 13.27148438 10.96679688 C13.28010805 13.01060846 13.23587525 15.05449527 13.18359375 17.09765625 C11.36243372 18.91881628 8.87687611 18.23000705 6.45703125 18.234375 C5.70679687 18.23050781 4.9565625 18.22664063 4.18359375 18.22265625 C3.05824219 18.22845703 3.05824219 18.22845703 1.91015625 18.234375 C-3.68979572 18.22426678 -3.68979572 18.22426678 -4.81640625 17.09765625 C-4.91621839 14.42034245 -4.955205 11.7746145 -4.94140625 9.09765625 C-4.94527344 8.34742187 -4.94914062 7.5971875 -4.953125 6.82421875 C-4.94103514 0.12643386 -4.94103514 0.12643386 0 0 Z " fill="#40C7E9" transform="translate(109.81640625,95.90234375)"/>
<path d="M0 0 C1.98 0 3.96 0 6 0 C6.33 0.66 6.66 1.32 7 2 C15.25 2 23.5 2 32 2 C32.33 1.34 32.66 0.68 33 0 C35.64 0 38.28 0 41 0 C40.34 0.33 39.68 0.66 39 1 C39 1.66 39 2.32 39 3 C38.0409375 3.928125 38.0409375 3.928125 37.0625 4.875 C34.90713052 7.09568371 34.5813632 8.07482517 34 11 C30.18801888 11.19920413 26.37541851 11.38220438 22.5625 11.5625 C21.49322266 11.61857422 20.42394531 11.67464844 19.32226562 11.73242188 C13.07356604 12.01905947 7.18785317 11.96625215 1 11 C0 10 0 10 -0.09765625 7.71484375 C-0.08605469 6.79832031 -0.07445313 5.88179688 -0.0625 4.9375 C-0.05347656 4.01839844 -0.04445313 3.09929687 -0.03515625 2.15234375 C-0.02355469 1.44207031 -0.01195313 0.73179688 0 0 Z " fill="#C0D9FE" transform="translate(27,102)"/>
<path d="M0 0 C5.61 0 11.22 0 17 0 C17 5.61 17 11.22 17 17 C11.39 17 5.78 17 0 17 C0 11.39 0 5.78 0 0 Z " fill="#3E4E9A" transform="translate(15,34)"/>
<path d="M0 0 C7.92 0 15.84 0 24 0 C24 2.31 24 4.62 24 7 C22.35 7.33 20.7 7.66 19 8 C19 9.32 19 10.64 19 12 C16.72975032 12.08097324 14.45867925 12.13917704 12.1875 12.1875 C10.29064453 12.23970703 10.29064453 12.23970703 8.35546875 12.29296875 C5 12 5 12 3.18359375 10.5546875 C2.59771484 9.78511719 2.59771484 9.78511719 2 9 C1.29875 8.649375 0.5975 8.29875 -0.125 7.9375 C-2 7 -2 7 -3 5 C-2.01 5 -1.02 5 0 5 C0 3.35 0 1.7 0 0 Z " fill="#7689FE" transform="translate(74,85)"/>
<path d="M0 0 C2.31 0 4.62 0 7 0 C7.14509751 4.41632177 7.23400818 8.83203193 7.3125 13.25 C7.3753418 15.13138672 7.3753418 15.13138672 7.43945312 17.05078125 C7.45556641 18.25605469 7.47167969 19.46132812 7.48828125 20.703125 C7.51446533 21.81333008 7.54064941 22.92353516 7.56762695 24.06738281 C7 27 7 27 4.46948242 29.39355469 C3.65455322 29.92368164 2.83962402 30.45380859 2 31 C0.41596476 29.41596476 0.78025065 27.7228362 0.68359375 25.52734375 C0.64169922 24.62822266 0.59980469 23.72910156 0.55664062 22.80273438 C0.51732422 21.85720703 0.47800781 20.91167969 0.4375 19.9375 C0.39431641 18.98810547 0.35113281 18.03871094 0.30664062 17.06054688 C0.20020724 14.70718647 0.09818992 12.35371646 0 10 C-2.64 10 -5.28 10 -8 10 C-8 8.02 -8 6.04 -8 4 C-5.36 4 -2.72 4 0 4 C0 2.68 0 1.36 0 0 Z " fill="#5A38FF" transform="translate(34,49)"/>
<path d="M0 0 C2.875 1 2.875 1 4.25 3.0625 C4.45625 3.701875 4.6625 4.34125 4.875 5 C6.525 5 8.175 5 9.875 5 C10.37 6.98 10.37 6.98 10.875 9 C4.935 9.495 4.935 9.495 -1.125 10 C-1.125 11.65 -1.125 13.3 -1.125 15 C-0.465 15 0.195 15 0.875 15 C0.875 17 0.875 17 -0.625 18.625 C-1.12 19.07875 -1.615 19.5325 -2.125 20 C-6 18.25 -6 18.25 -7.125 16 C-6.465 16 -5.805 16 -5.125 16 C-5.125 14.35 -5.125 12.7 -5.125 11 C-11.725 11 -18.325 11 -25.125 11 C-25.125 10.34 -25.125 9.68 -25.125 9 C-24.073125 9.0825 -23.02125 9.165 -21.9375 9.25 C-17.52688337 8.96077924 -16.19724165 8.07224165 -13.125 5 C-12.465 4.01 -11.805 3.02 -11.125 2 C-10.795 2.66 -10.465 3.32 -10.125 4 C-9.135 4 -8.145 4 -7.125 4 C-6.526875 3.319375 -5.92875 2.63875 -5.3125 1.9375 C-3.125 0 -3.125 0 0 0 Z " fill="#7DDCE5" transform="translate(123.125,38)"/>
<path d="M0 0 C13.53 0 27.06 0 41 0 C41 1.65 41 3.3 41 5 C27.47 5 13.94 5 0 5 C0 3.35 0 1.7 0 0 Z " fill="#3C3D89" transform="translate(60,97)"/>
<path d="M0 0 C0.66 0 1.32 0 2 0 C2.2475 0.804375 2.495 1.60875 2.75 2.4375 C3.72238859 5.171081 3.72238859 5.171081 6.125 5.8125 C6.74375 5.874375 7.3625 5.93625 8 6 C8.33 7.32 8.66 8.64 9 10 C8.01 10.66 7.02 11.32 6 12 C6.3403125 13.1446875 6.3403125 13.1446875 6.6875 14.3125 C7 17 7 17 5.9375 18.8125 C3.24448045 20.46306037 1.09429572 20.20628638 -2 20 C-2.33 20.66 -2.66 21.32 -3 22 C-4.65 21.67 -6.3 21.34 -8 21 C-8.33 19.68 -8.66 18.36 -9 17 C-10.65 16.67 -12.3 16.34 -14 16 C-14.33 14.35 -14.66 12.7 -15 11 C-14.01 11 -13.02 11 -12 11 C-11.67 9.35 -11.34 7.7 -11 6 C-9.35 6 -7.7 6 -6 6 C-6.20625 7.11375 -6.4125 8.2275 -6.625 9.375 C-6.74875 10.57125 -6.8725 11.7675 -7 13 C-5.10244856 15.34973818 -5.10244856 15.34973818 -1.875 15.125 C-0.451875 15.063125 -0.451875 15.063125 1 15 C1.29562367 9.67829506 1.29562367 9.67829506 -1 5 C-0.625 2.3125 -0.625 2.3125 0 0 Z " fill="#E9EAF1" transform="translate(135,57)"/>
<path d="M0 0 C0.99 0 1.98 0 3 0 C3 9.57 3 19.14 3 29 C9.5370285 28.96041741 9.5370285 28.96041741 16.07397461 28.90991211 C17.28839233 28.90616577 17.28839233 28.90616577 18.52734375 28.90234375 C19.77632446 28.89448853 19.77632446 28.89448853 21.05053711 28.88647461 C23 29 23 29 24 30 C26.28988781 30.15888092 28.58443441 30.25138073 30.87890625 30.31640625 C31.5655687 30.33718735 32.25223114 30.35796844 32.95970154 30.37937927 C35.16052935 30.44494143 37.36147975 30.50379015 39.5625 30.5625 C41.05144514 30.60567892 42.54037773 30.649293 44.02929688 30.69335938 C47.68606553 30.8006293 51.34297318 30.90187772 55 31 C55 31.33 55 31.66 55 32 C47.48863592 32.05057965 39.97731551 32.08568257 32.46582031 32.10986328 C29.90883747 32.11994038 27.35186621 32.13360226 24.79492188 32.15087891 C21.12627308 32.17505217 17.45777621 32.18646585 13.7890625 32.1953125 C12.0655809 32.21079636 12.0655809 32.21079636 10.30728149 32.22659302 C9.2463327 32.22674408 8.18538391 32.22689514 7.09228516 32.22705078 C6.15518707 32.231492 5.21808899 32.23593323 4.25259399 32.24050903 C2 32 2 32 0 30 C-0.22705078 27.01904297 -0.22705078 27.01904297 -0.1953125 23.2421875 C-0.1924826 22.57913605 -0.18965271 21.91608459 -0.18673706 21.23294067 C-0.17553435 19.11344417 -0.15043051 16.99436896 -0.125 14.875 C-0.11497028 13.43880818 -0.10584441 12.00260975 -0.09765625 10.56640625 C-0.075595 7.04413372 -0.04106494 3.52210797 0 0 Z " fill="#42A8E4" transform="translate(41,49)"/>
<path d="M0 0 C1.58206057 0.00667536 3.16410534 0.0186375 4.74609375 0.03515625 C5.55240234 0.03966797 6.35871094 0.04417969 7.18945312 0.04882812 C9.18753131 0.06065107 11.18557158 0.07858711 13.18359375 0.09765625 C12.19359375 1.58265625 12.19359375 1.58265625 11.18359375 3.09765625 C10.52359375 3.09765625 9.86359375 3.09765625 9.18359375 3.09765625 C8.85359375 4.74765625 8.52359375 6.39765625 8.18359375 8.09765625 C7.19359375 8.09765625 6.20359375 8.09765625 5.18359375 8.09765625 C5.18359375 7.10765625 5.18359375 6.11765625 5.18359375 5.09765625 C4.52359375 5.09765625 3.86359375 5.09765625 3.18359375 5.09765625 C2.85359375 6.08765625 2.52359375 7.07765625 2.18359375 8.09765625 C1.52359375 8.75765625 0.86359375 9.41765625 0.18359375 10.09765625 C1.00859375 10.71640625 1.83359375 11.33515625 2.68359375 11.97265625 C3.50859375 12.67390625 4.33359375 13.37515625 5.18359375 14.09765625 C5.18359375 14.75765625 5.18359375 15.41765625 5.18359375 16.09765625 C1.88359375 16.09765625 -1.41640625 16.09765625 -4.81640625 16.09765625 C-4.8432572 13.61841824 -4.86317172 11.13946785 -4.87890625 8.66015625 C-4.89147461 7.59958008 -4.89147461 7.59958008 -4.90429688 6.51757812 C-4.91294213 4.71072066 -4.86860636 2.90378022 -4.81640625 1.09765625 C-3.81640625 0.09765625 -3.81640625 0.09765625 0 0 Z " fill="#42ADE3" transform="translate(37.81640625,85.90234375)"/>
<path d="M0 0 C1.32 0 2.64 0 4 0 C4 6.6 4 13.2 4 20 C6.31 20 8.62 20 11 20 C11.33 20.99 11.66 21.98 12 23 C3.19039858 24.30512614 -5.19039858 24.30512614 -14 23 C-13.505 21.515 -13.505 21.515 -13 20 C-8.71 20 -4.42 20 0 20 C0 13.4 0 6.8 0 0 Z " fill="#4C4CA1" transform="translate(115,63)"/>
<path d="M0 0 C6.27 0 12.54 0 19 0 C19.33 2.64 19.66 5.28 20 8 C20.99 8 21.98 8 23 8 C22.67 10.97 22.34 13.94 22 17 C20.35 17 18.7 17 17 17 C17 17.66 17 18.32 17 19 C15.68 18.67 14.36 18.34 13 18 C13 17.34 13 16.68 13 16 C12.01 15.67 11.02 15.34 10 15 C10.5859375 8.84765625 10.5859375 8.84765625 11 7 C11.66 6.67 12.32 6.34 13 6 C13.99 6.33 14.98 6.66 16 7 C15.67 5.68 15.34 4.36 15 3 C7.575 2.01 7.575 2.01 0 1 C0 0.67 0 0.34 0 0 Z " fill="#E2F6F8" transform="translate(7,58)"/>
<path d="M0 0 C1.58206057 0.00667536 3.16410534 0.0186375 4.74609375 0.03515625 C5.55240234 0.03966797 6.35871094 0.04417969 7.18945312 0.04882812 C9.18753131 0.06065107 11.18557158 0.07858711 13.18359375 0.09765625 C12.85359375 1.41765625 12.52359375 2.73765625 12.18359375 4.09765625 C11.52359375 4.09765625 10.86359375 4.09765625 10.18359375 4.09765625 C10.18359375 4.75765625 10.18359375 5.41765625 10.18359375 6.09765625 C8.43359375 8.28515625 8.43359375 8.28515625 6.18359375 10.09765625 C5.54421875 9.91203125 4.90484375 9.72640625 4.24609375 9.53515625 C3.22515625 9.31859375 3.22515625 9.31859375 2.18359375 9.09765625 C-0.46227859 11.49350911 -0.46227859 11.49350911 -2.81640625 14.09765625 C-3.47640625 14.09765625 -4.13640625 14.09765625 -4.81640625 14.09765625 C-4.84326563 11.95188988 -4.86273713 9.8060298 -4.87890625 7.66015625 C-4.89050781 6.46519531 -4.90210937 5.27023438 -4.9140625 4.0390625 C-4.76748251 -0.37592684 -4.58410302 0.11730049 0 0 Z " fill="#74D6E4" transform="translate(109.81640625,32.90234375)"/>
<path d="M0 0 C2.97 0.33 5.94 0.66 9 1 C9 2.65 9 4.3 9 6 C7.68 6 6.36 6 5 6 C4.855625 6.763125 4.71125 7.52625 4.5625 8.3125 C4 11 4 11 3 14 C4.32 14.33 5.64 14.66 7 15 C7 15.99 7 16.98 7 18 C2.38 18 -2.24 18 -7 18 C-7 17.34 -7 16.68 -7 16 C-5.02 16 -3.04 16 -1 16 C-1 14.68 -1 13.36 -1 12 C-2.98 12 -4.96 12 -7 12 C-7 11.34 -7 10.68 -7 10 C-5.02 10 -3.04 10 -1 10 C-1 8.68 -1 7.36 -1 6 C-2.98 6 -4.96 6 -7 6 C-7 5.34 -7 4.68 -7 4 C-5.02 4 -3.04 4 -1 4 C-0.67 2.68 -0.34 1.36 0 0 Z " fill="#9DDDE8" transform="translate(14,59)"/>
<path d="M0 0 C1.31871094 -0.01224609 2.63742188 -0.02449219 3.99609375 -0.03710938 C5.90068359 -0.04000977 5.90068359 -0.04000977 7.84375 -0.04296875 C9.00068359 -0.04707764 10.15761719 -0.05118652 11.34960938 -0.05541992 C14.47736509 0.18575467 16.680892 0.85423629 19.5 2.1875 C18.5 4.1875 18.5 4.1875 16.84521484 4.80200195 C11.99200924 5.59975457 7.04404055 5.37340312 2.13769531 5.37280273 C0.13863013 5.37498512 -1.86039532 5.39349143 -3.859375 5.41210938 C-5.13039063 5.41404297 -6.40140625 5.41597656 -7.7109375 5.41796875 C-8.86899902 5.42207764 -10.02706055 5.42618652 -11.22021484 5.43041992 C-14.61310954 5.17912245 -17.33332989 4.39923908 -20.5 3.1875 C-20.17 2.5275 -19.84 1.8675 -19.5 1.1875 C-13.23640183 -0.60566158 -6.45139424 0.00315317 0 0 Z " fill="#EAEBF2" transform="translate(114.5,125.8125)"/>
<path d="M0 0 C0 5.61 0 11.22 0 17 C0.99 17 1.98 17 3 17 C3 18.65 3 20.3 3 22 C0.69 22 -1.62 22 -4 22 C-4 15.73 -4 9.46 -4 3 C-10.27 3 -16.54 3 -23 3 C-23 2.34 -23 1.68 -23 1 C-19.91675903 0.83159521 -16.83339379 0.66558138 -13.75 0.5 C-12.87730469 0.45230469 -12.00460938 0.40460938 -11.10546875 0.35546875 C-10.26113281 0.31035156 -9.41679687 0.26523438 -8.546875 0.21875 C-7.38430176 0.1559082 -7.38430176 0.1559082 -6.19824219 0.09179688 C-4.13373418 0.00558463 -2.0663073 0 0 0 Z " fill="#6F72AA" transform="translate(30,80)"/>
<path d="M0 0 C0.66 0 1.32 0 2 0 C2.33 1.65 2.66 3.3 3 5 C3.33 3.35 3.66 1.7 4 0 C4.66 0 5.32 0 6 0 C6.66 2.64 7.32 5.28 8 8 C7.01 8.33 6.02 8.66 5 9 C5 9.66 5 10.32 5 11 C4.34 11 3.68 11 3 11 C3 10.01 3 9.02 3 8 C2.01 8 1.02 8 0 8 C-0.33 9.65 -0.66 11.3 -1 13 C-1.66 13 -2.32 13 -3 13 C-3 12.34 -3 11.68 -3 11 C-3.598125 10.9175 -4.19625 10.835 -4.8125 10.75 C-7.5966296 9.79544128 -8.43311142 8.42867729 -10 6 C-8.71034824 4.62437146 -7.37310707 3.29233607 -6 2 C-5.34 2 -4.68 2 -4 2 C-4 2.99 -4 3.98 -4 5 C-3.01 5 -2.02 5 -1 5 C-0.67 3.35 -0.34 1.7 0 0 Z " fill="#4FBDDB" transform="translate(47,89)"/>
<path d="M0 0 C2.31 0 4.62 0 7 0 C7 2.97 7 5.94 7 9 C8.65 9 10.3 9 12 9 C11.01 9.33 10.02 9.66 9 10 C8.67 10.66 8.34 11.32 8 12 C7.67 12.66 7.34 13.32 7 14 C6.01 14.33 5.02 14.66 4 15 C4 15.66 4 16.32 4 17 C3.34 17 2.68 17 2 17 C1.67 17.66 1.34 18.32 1 19 C-0.65497356 15.69005287 -0.10084335 12.00877 -0.0625 8.375 C-0.05798828 7.57320312 -0.05347656 6.77140625 -0.04882812 5.9453125 C-0.03703168 3.96350994 -0.01909605 1.98174567 0 0 Z " fill="#6C75FE" transform="translate(98,54)"/>
<path d="M0 0 C2.875 1 2.875 1 4.25 3.0625 C4.45625 3.701875 4.6625 4.34125 4.875 5 C6.525 5 8.175 5 9.875 5 C10.205 5.99 10.535 6.98 10.875 8 C3.285 8 -4.305 8 -12.125 8 C-11.795 7.01 -11.465 6.02 -11.125 5 C-10.526875 4.855625 -9.92875 4.71125 -9.3125 4.5625 C-6.9166207 4.1646438 -6.9166207 4.1646438 -5.25 1.875 C-3.125 0 -3.125 0 0 0 Z " fill="#F8FDFD" transform="translate(123.125,38)"/>
<path d="M0 0 C0.02685938 2.14576637 0.04633088 4.29162645 0.0625 6.4375 C0.07410156 7.63246094 0.08570312 8.82742187 0.09765625 10.05859375 C0 13 0 13 -1 14 C-3.69654854 14.07319621 -6.36691458 14.09242537 -9.0625 14.0625 C-10.20041992 14.05573242 -10.20041992 14.05573242 -11.36132812 14.04882812 C-13.24091871 14.0370068 -15.12046899 14.01907078 -17 14 C-17 13.34 -17 12.68 -17 12 C-15.68 12 -14.36 12 -13 12 C-13 11.01 -13 10.02 -13 9 C-12.05125 9.04125 -11.1025 9.0825 -10.125 9.125 C-6.89755144 9.34973818 -6.89755144 9.34973818 -5 7 C-4.835 5.989375 -4.67 4.97875 -4.5 3.9375 C-4.335 2.968125 -4.17 1.99875 -4 1 C-2 0 -2 0 0 0 Z " fill="#38DDC9" transform="translate(123,100)"/>
<path d="M0 0 C1.81242052 -0.02687279 3.62495233 -0.04633715 5.4375 -0.0625 C6.44683594 -0.07410156 7.45617187 -0.08570313 8.49609375 -0.09765625 C11 0 11 0 12 1 C12.1328125 2.8125 12.1328125 2.8125 12.125 5 C12.12757813 5.721875 12.13015625 6.44375 12.1328125 7.1875 C12 9 12 9 11 10 C8.1875 10.3125 8.1875 10.3125 5 10 C2.875 8.125 2.875 8.125 1 6 C-1.13309192 4.76487921 -1.13309192 4.76487921 -3 4 C-2.34 3.67 -1.68 3.34 -1 3 C-0.67 2.01 -0.34 1.02 0 0 Z " fill="#39D3D3" transform="translate(123,33)"/>
<path d="M0 0 C2.64 0 5.28 0 8 0 C8 2.64 8 5.28 8 8 C7.34 8 6.68 8 6 8 C5.67 8.66 5.34 9.32 5 10 C1.37 10 -2.26 10 -6 10 C-5.34 9.34 -4.68 8.68 -4 8 C-3.34 8.33 -2.68 8.66 -2 9 C-2.33 8.01 -2.66 7.02 -3 6 C-2.34 5.34 -1.68 4.68 -1 4 C-0.3574765 1.93125966 -0.3574765 1.93125966 0 0 Z " fill="#645BFE" transform="translate(119,86)"/>
<path d="M0 0 C5.94 0 11.88 0 18 0 C18 3 18 3 17 5 C11.39 5 5.78 5 0 5 C0 3.35 0 1.7 0 0 Z " fill="#34ACC5" transform="translate(98,49)"/>
<path d="M0 0 C0 1.98 0 3.96 0 6 C-6.93 6 -13.86 6 -21 6 C-21 5.01 -21 4.02 -21 3 C-17.37 3 -13.74 3 -10 3 C-10 2.34 -10 1.68 -10 1 C-8.5209084 0.83266843 -7.04172444 0.66615314 -5.5625 0.5 C-4.73878906 0.4071875 -3.91507813 0.314375 -3.06640625 0.21875 C-1 0 -1 0 0 0 Z " fill="#37D2D0" transform="translate(34,74)"/>
<path d="M0 0 C1.32 0 2.64 0 4 0 C4 6.6 4 13.2 4 20 C2.68 19.67 1.36 19.34 0 19 C0 12.73 0 6.46 0 0 Z " fill="#3E3E8B" transform="translate(115,63)"/>
<path d="M0 0 C12.87 0 25.74 0 39 0 C39 0.66 39 1.32 39 2 C29.43 2 19.86 2 10 2 C10 2.66 10 3.32 10 4 C9.01 4 8.02 4 7 4 C7 3.34 7 2.68 7 2 C4.69 2 2.38 2 0 2 C0 1.34 0 0.68 0 0 Z " fill="#66D4E1" transform="translate(34,45)"/>
<path d="M0 0 C8.58 0 17.16 0 26 0 C25.67 0.99 25.34 1.98 25 3 C17.08 3 9.16 3 1 3 C0.67 2.01 0.34 1.02 0 0 Z " fill="#4C4CA0" transform="translate(101,124)"/>
<path d="M0 0 C0.66 0.33 1.32 0.66 2 1 C2 7.27 2 13.54 2 20 C0.68 20 -0.64 20 -2 20 C-2.05392397 17.22890693 -2.09363455 14.45886182 -2.125 11.6875 C-2.14175781 10.90181641 -2.15851563 10.11613281 -2.17578125 9.30664062 C-2.18544922 8.1706543 -2.18544922 8.1706543 -2.1953125 7.01171875 C-2.20578613 6.31522217 -2.21625977 5.61872559 -2.22705078 4.90112305 C-2 3 -2 3 0 0 Z " fill="#6C71FE" transform="translate(125,93)"/>
<path d="M0 0 C1.67542976 0.28604898 3.34385343 0.61781233 5 1 C5.89577032 4.50164762 6.26716699 6.38129749 4.8125 9.75 C2.94600088 12.06703339 1.64936088 12.79325177 -1 14 C-1.02685938 11.85423363 -1.04633088 9.70837355 -1.0625 7.5625 C-1.07410156 6.36753906 -1.08570312 5.17257813 -1.09765625 3.94140625 C-1 1 -1 1 0 0 Z " fill="#32C6E0" transform="translate(106,33)"/>
<path d="M0 0 C4.29 0 8.58 0 13 0 C11 5 11 5 9 8 C9 7.01 9 6.02 9 5 C3.72 5 -1.56 5 -7 5 C-6.34 4.34 -5.68 3.68 -5 3 C-3.68 3 -2.36 3 -1 3 C-0.67 2.01 -0.34 1.02 0 0 Z " fill="#6660FF" transform="translate(53,81)"/>
<path d="M0 0 C0.66305145 0.02361099 1.32610291 0.04722198 2.00924683 0.07154846 C4.12877879 0.14817441 6.24794435 0.23220268 8.3671875 0.31640625 C9.80336744 0.36962806 11.2395653 0.42236845 12.67578125 0.47460938 C16.19814186 0.60378769 19.72021102 0.73960655 23.2421875 0.87890625 C23.2421875 1.53890625 23.2421875 2.19890625 23.2421875 2.87890625 C12.0221875 2.87890625 0.8021875 2.87890625 -10.7578125 2.87890625 C-7.2277257 -0.65118055 -4.88047604 -0.18455582 0 0 Z " fill="#87B4FE" transform="translate(70.7578125,118.12109375)"/>
<path d="M0 0 C3.125 0.375 3.125 0.375 6 1 C6.6875 3.3125 6.6875 3.3125 7 6 C5.875 7.875 5.875 7.875 4 9 C1.3125 8.6875 1.3125 8.6875 -1 8 C-1.625 5.125 -1.625 5.125 -2 2 C-1.34 1.34 -0.68 0.68 0 0 Z " fill="#69D8E4" transform="translate(112,101)"/>
<path d="M0 0 C2.31 0 4.62 0 7 0 C7 1.65 7 3.3 7 5 C3.37 5 -0.26 5 -4 5 C-4 6.65 -4 8.3 -4 10 C-5.32 10 -6.64 10 -8 10 C-8 8.02 -8 6.04 -8 4 C-5.36 4 -2.72 4 0 4 C0 2.68 0 1.36 0 0 Z " fill="#3D418D" transform="translate(34,49)"/>
<path d="M0 0 C2.05078125 0.03255208 4.1015625 0.06510417 6.15234375 0.09765625 C7.08299508 2.70347996 7.30151782 3.73963849 6.21484375 6.34765625 C5.86421875 6.92515625 5.51359375 7.50265625 5.15234375 8.09765625 C3.83234375 8.09765625 2.51234375 8.09765625 1.15234375 8.09765625 C0.82234375 6.44765625 0.49234375 4.79765625 0.15234375 3.09765625 C-0.50765625 3.09765625 -1.16765625 3.09765625 -1.84765625 3.09765625 C-2.17765625 4.74765625 -2.50765625 6.39765625 -2.84765625 8.09765625 C-3.50765625 7.76765625 -4.16765625 7.43765625 -4.84765625 7.09765625 C-2.62675581 0.13883487 -2.62675581 0.13883487 0 0 Z " fill="#3DBDDA" transform="translate(52.84765625,85.90234375)"/>
<path d="M0 0 C1.32 0.66 2.64 1.32 4 2 C3.67 3.98 3.34 5.96 3 8 C4.98 7.67 6.96 7.34 9 7 C9.33 8.32 9.66 9.64 10 11 C8.35 11 6.7 11 5 11 C5 11.66 5 12.32 5 13 C3.68 12.67 2.36 12.34 1 12 C1 11.34 1 10.68 1 10 C0.01 9.67 -0.98 9.34 -2 9 C-1.125 1.125 -1.125 1.125 0 0 Z " fill="#E6F7F9" transform="translate(19,64)"/>
<path d="M0 0 C1.24716797 0.00322266 2.49433594 0.00644531 3.77929688 0.00976562 C5.07287109 0.01814453 6.36644531 0.02652344 7.69921875 0.03515625 C9.66858398 0.04192383 9.66858398 0.04192383 11.67773438 0.04882812 C14.91410885 0.06059676 18.15039053 0.07703865 21.38671875 0.09765625 C21.05671875 0.75765625 20.72671875 1.41765625 20.38671875 2.09765625 C19.73074707 2.11747559 19.07477539 2.13729492 18.39892578 2.15771484 C15.43610806 2.25278132 12.47401343 2.36253377 9.51171875 2.47265625 C7.96291016 2.5190625 7.96291016 2.5190625 6.3828125 2.56640625 C4.90361328 2.62441406 4.90361328 2.62441406 3.39453125 2.68359375 C2.4833252 2.71501465 1.57211914 2.74643555 0.63330078 2.77880859 C-1.81259311 2.89648136 -1.81259311 2.89648136 -3.61328125 5.09765625 C-6.34197532 5.06478042 -8.90994305 4.53367854 -11.61328125 4.09765625 C-11.61328125 3.10765625 -11.61328125 2.11765625 -11.61328125 1.09765625 C-7.68039761 0.16677716 -4.03673962 -0.0184326 0 0 Z " fill="#D9D9E8" transform="translate(106.61328125,125.90234375)"/>
<path d="M0 0 C3.375 -0.1875 3.375 -0.1875 7 0 C7.66 0.99 8.32 1.98 9 3 C8.38125 3.2475 7.7625 3.495 7.125 3.75 C4.64931313 5.20628639 4.04874998 6.37812506 3 9 C2.34 9 1.68 9 1 9 C0.67 9.66 0.34 10.32 0 11 C0 7.37 0 3.74 0 0 Z " fill="#5935FF" transform="translate(102,86)"/>
<path d="M0 0 C7.92 0 15.84 0 24 0 C24.33 1.32 24.66 2.64 25 4 C24.01 4 23.02 4 22 4 C22 3.34 22 2.68 22 2 C14.74 2 7.48 2 0 2 C0 1.34 0 0.68 0 0 Z " fill="#49D7D3" transform="translate(73,45)"/>
<path d="M0 0 C1.65 0 3.3 0 5 0 C5 3.63 5 7.26 5 11 C2.69 11 0.38 11 -2 11 C-1.34 10.34 -0.68 9.68 0 9 C-0.33 8.01 -0.66 7.02 -1 6 C-0.34 6 0.32 6 1 6 C0.67 4.02 0.34 2.04 0 0 Z " fill="#7591FD" transform="translate(122,113)"/>
<path d="M0 0 C2.31 0 4.62 0 7 0 C7 2.31 7 4.62 7 7 C4.69 7 2.38 7 0 7 C0 4.69 0 2.38 0 0 Z " fill="#9FBEFE" transform="translate(91,85)"/>
<path d="M0 0 C2.64 0 5.28 0 8 0 C8 1.98 8 3.96 8 6 C5.69 6.33 3.38 6.66 1 7 C0.67 4.69 0.34 2.38 0 0 Z " fill="#34ADC5" transform="translate(26,59)"/>
<path d="M0 0 C1.23556641 0.01740234 1.23556641 0.01740234 2.49609375 0.03515625 C3.32238281 0.04417969 4.14867187 0.05320312 5 0.0625 C5.63808594 0.07410156 6.27617188 0.08570312 6.93359375 0.09765625 C6.93359375 0.75765625 6.93359375 1.41765625 6.93359375 2.09765625 C5.94359375 2.09765625 4.95359375 2.09765625 3.93359375 2.09765625 C3.93359375 2.75765625 3.93359375 3.41765625 3.93359375 4.09765625 C3.29421875 4.20078125 2.65484375 4.30390625 1.99609375 4.41015625 C1.31546875 4.63703125 0.63484375 4.86390625 -0.06640625 5.09765625 C-0.39640625 6.08765625 -0.72640625 7.07765625 -1.06640625 8.09765625 C-1.72640625 8.09765625 -2.38640625 8.09765625 -3.06640625 8.09765625 C-3.10882348 5.7647085 -3.10733562 3.43063058 -3.06640625 1.09765625 C-2.06640625 0.09765625 -2.06640625 0.09765625 0 0 Z " fill="#4697EB" transform="translate(36.06640625,85.90234375)"/>
<path d="M0 0 C0.66 0 1.32 0 2 0 C2.66 2.64 3.32 5.28 4 8 C3.01 8.33 2.02 8.66 1 9 C1 9.66 1 10.32 1 11 C0.34 11 -0.32 11 -1 11 C-1 10.01 -1 9.02 -1 8 C-1.99 7.67 -2.98 7.34 -4 7 C-3.67 6.34 -3.34 5.68 -3 5 C-2.34 5 -1.68 5 -1 5 C-0.67 3.35 -0.34 1.7 0 0 Z " fill="#86DBE6" transform="translate(51,89)"/>
<path d="M0 0 C1.32 0 2.64 0 4 0 C4.04241723 2.33294775 4.04092937 4.66702567 4 7 C3 8 3 8 -0.5625 8.0625 C-1.696875 8.041875 -2.83125 8.02125 -4 8 C-3.505 7.401875 -3.01 6.80375 -2.5 6.1875 C-0.71723582 4.02970006 -0.71723582 4.02970006 -1 1 C-0.67 0.67 -0.34 0.34 0 0 Z " fill="#35DBC1" transform="translate(56,97)"/>
<path d="M0 0 C0.66 0 1.32 0 2 0 C2 2.33333333 2 4.66666667 2 7 C2.33 7.33 2.66 7.66 3 8 C3.04080783 9.99958364 3.04254356 12.00045254 3 14 C1.68 14 0.36 14 -1 14 C-1.22151549 12.20991533 -1.42682213 10.41781838 -1.625 8.625 C-1.74101563 7.62726562 -1.85703125 6.62953125 -1.9765625 5.6015625 C-1.98429687 4.74304687 -1.99203125 3.88453125 -2 3 C-1.34 2.34 -0.68 1.68 0 1 C0 0.67 0 0.34 0 0 Z " fill="#37C1C7" transform="translate(116,49)"/>
<path d="M0 0 C3.36704285 -0.2295711 5.41370268 -0.33943529 8.375 1.375 C8.91125 1.91125 9.4475 2.4475 10 3 C10 3.66 10 4.32 10 5 C6.7 5 3.4 5 0 5 C0 3.35 0 1.7 0 0 Z " fill="#34AAC5" transform="translate(33,97)"/>
<path d="M0 0 C3.3 0 6.6 0 10 0 C9 2 9 2 6.5 2.875 C5.675 3.24625 4.85 3.6175 4 4 C3.34786708 6.02463255 3.34786708 6.02463255 3 8 C2.01 8.33 1.02 8.66 0 9 C0 6.03 0 3.06 0 0 Z " fill="#3EBBDD" transform="translate(105,54)"/>
<path d="M0 0 C1.37478516 0.01740234 1.37478516 0.01740234 2.77734375 0.03515625 C3.69644531 0.04417969 4.61554688 0.05320312 5.5625 0.0625 C6.27277344 0.07410156 6.98304687 0.08570312 7.71484375 0.09765625 C4.71484375 2.09765625 4.71484375 2.09765625 1.71484375 2.09765625 C1.71484375 2.75765625 1.71484375 3.41765625 1.71484375 4.09765625 C0.04817708 5.76432292 -1.61848958 7.43098958 -3.28515625 9.09765625 C-3.3828125 2.9453125 -3.3828125 2.9453125 -3.28515625 1.09765625 C-2.28515625 0.09765625 -2.28515625 0.09765625 0 0 Z " fill="#45B4F5" transform="translate(108.28515625,95.90234375)"/>
<path d="M0 0 C6.27 0 12.54 0 19 0 C19 1.65 19 3.3 19 5 C18.01 5 17.02 5 16 5 C15.67 4.34 15.34 3.68 15 3 C12.45975996 2.52425562 9.99948536 2.15992453 7.4375 1.875 C6.37112305 1.74544922 6.37112305 1.74544922 5.28320312 1.61328125 C3.52310688 1.40065217 1.76165836 1.19927303 0 1 C0 0.67 0 0.34 0 0 Z " fill="#8DDCE4" transform="translate(7,58)"/>
<path d="M0 0 C0 0.33 0 0.66 0 1 C-1.98 1 -3.96 1 -6 1 C-6 3.64 -6 6.28 -6 9 C-8.64 8.67 -11.28 8.34 -14 8 C-14 7.67 -14 7.34 -14 7 C-12.35 6.67 -10.7 6.34 -9 6 C-8.67 4.68 -8.34 3.36 -8 2 C-9.98 2 -11.96 2 -14 2 C-14 1.67 -14 1.34 -14 1 C-9.32798795 -0.20568053 -4.78503708 -0.09382426 0 0 Z " fill="#88D8E8" transform="translate(21,33)"/>
<path d="M0 0 C2 2 2 2 2.1953125 4.1640625 C2.17210938 4.97617188 2.14890625 5.78828125 2.125 6.625 C2.10695313 7.44226563 2.08890625 8.25953125 2.0703125 9.1015625 C2.03550781 10.04128906 2.03550781 10.04128906 2 11 C0.68 11 -0.64 11 -2 11 C-2.05399736 9.54207116 -2.09279177 8.08357288 -2.125 6.625 C-2.15980469 5.40683594 -2.15980469 5.40683594 -2.1953125 4.1640625 C-2 2 -2 2 0 0 Z " fill="#7181FE" transform="translate(125,102)"/>
<path d="M0 0 C1.98 0 3.96 0 6 0 C6 1.98 6 3.96 6 6 C4.02 6 2.04 6 0 6 C0 4.02 0 2.04 0 0 Z " fill="#A6C7FF" transform="translate(83,85)"/>
<path d="M0 0 C1.98 0 3.96 0 6 0 C6 1.98 6 3.96 6 6 C4.02 6 2.04 6 0 6 C0 4.02 0 2.04 0 0 Z " fill="#A6C7FF" transform="translate(74,85)"/>
<path d="M0 0 C2.31 0 4.62 0 7 0 C7 1.65 7 3.3 7 5 C4.69 5 2.38 5 0 5 C0 3.35 0 1.7 0 0 Z " fill="#3C3E8A" transform="translate(98,49)"/>
<path d="M0 0 C6.6 0 13.2 0 20 0 C20 0.99 20 1.98 20 3 C13.4 2.34 6.8 1.68 0 1 C0 0.67 0 0.34 0 0 Z " fill="#41D1D8" transform="translate(14,32)"/>
<path d="M0 0 C0 1.98 0 3.96 0 6 C-2.64 6 -5.28 6 -8 6 C-7 3 -7 3 -5 1 C-1.7 0 -1.7 0 0 0 Z " fill="#35DBC3" transform="translate(34,74)"/>
<path d="M0 0 C2.97 0.33 5.94 0.66 9 1 C8.67 2.32 8.34 3.64 8 5 C5.03 4.67 2.06 4.34 -1 4 C-0.67 2.68 -0.34 1.36 0 0 Z " fill="#32C6DF" transform="translate(14,59)"/>
<path d="M0 0 C0.99 0 1.98 0 3 0 C3 3.96 3 7.92 3 12 C2.01 11.67 1.02 11.34 0 11 C0 7.37 0 3.74 0 0 Z " fill="#3B95D7" transform="translate(41,49)"/>
<path d="M0 0 C7.92 0.33 15.84 0.66 24 1 C24 1.33 24 1.66 24 2 C19.38 2 14.76 2 10 2 C10 2.66 10 3.32 10 4 C9.01 4 8.02 4 7 4 C7 3.34 7 2.68 7 2 C4.69 2 2.38 2 0 2 C0 1.34 0 0.68 0 0 Z " fill="#8CD7E7" transform="translate(34,45)"/>
<path d="M0 0 C0.33 0.66 0.66 1.32 1 2 C1.66 2.33 2.32 2.66 3 3 C-1.17737474 4.59138085 -4.53160785 5.21278058 -9 5 C-9.33 4.01 -9.66 3.02 -10 2 C-6.7 2 -3.4 2 0 2 C0 1.34 0 0.68 0 0 Z " fill="#4DD1D8" transform="translate(43,100)"/>
<path d="M0 0 C0.66 0 1.32 0 2 0 C1.45144652 4.571279 0.58255197 8.67435795 -1 13 C-1.66 13 -2.32 13 -3 13 C-2.52060632 8.28596212 -2.03165952 4.33420699 0 0 Z " fill="#D8F1F6" transform="translate(47,89)"/>
<path d="M0 0 C0.33 0.99 0.66 1.98 1 3 C0.01 3.33 -0.98 3.66 -2 4 C-2 4.66 -2 5.32 -2 6 C-3.3125 7.625 -3.3125 7.625 -5 9 C-5.99 9 -6.98 9 -8 9 C-7.34 7.02 -6.68 5.04 -6 3 C-5.34 3 -4.68 3 -4 3 C-3.67 2.34 -3.34 1.68 -3 1 C-2.01 0.67 -1.02 0.34 0 0 Z " fill="#60D3E0" transform="translate(122,33)"/>
<path d="M0 0 C0 0.66 0 1.32 0 2 C-4.62 2 -9.24 2 -14 2 C-14 1.34 -14 0.68 -14 0 C-12.41773035 -0.19627391 -10.83410729 -0.38165538 -9.25 -0.5625 C-8.36828125 -0.66691406 -7.4865625 -0.77132812 -6.578125 -0.87890625 C-4.11567549 -0.99456676 -2.33461936 -0.73638695 0 0 Z " fill="#88DBE3" transform="translate(21,75)"/>
<path d="M0 0 C2.97 0.495 2.97 0.495 6 1 C5 4 5 4 3 5 C0.6670134 5.04022391 -1.66706666 5.04320247 -4 5 C-4 4.34 -4 3.68 -4 3 C-2.68 3 -1.36 3 0 3 C0 2.01 0 1.02 0 0 Z " fill="#39D6DA" transform="translate(110,109)"/>
<path d="M0 0 C1.67542976 0.28604898 3.34385343 0.61781233 5 1 C4.67 2.32 4.34 3.64 4 5 C2.68 5.33 1.36 5.66 0 6 C-0.38218767 4.34385343 -0.71395102 2.67542976 -1 1 C-0.67 0.67 -0.34 0.34 0 0 Z " fill="#52D1DD" transform="translate(22,67)"/>
<path d="M0 0 C1.5625 1.1875 1.5625 1.1875 3 3 C2.6875 5.6875 2.6875 5.6875 2 8 C0.35 8.33 -1.3 8.66 -3 9 C-3 7.68 -3 6.36 -3 5 C-2.34 5 -1.68 5 -1 5 C-0.67 3.35 -0.34 1.7 0 0 Z " fill="#3ECEE5" transform="translate(108,104)"/>
<path d="M0 0 C0.91007812 0.10183594 1.82015625 0.20367187 2.7578125 0.30859375 C3.45648438 0.39238281 4.15515625 0.47617188 4.875 0.5625 C4.875 1.2225 4.875 1.8825 4.875 2.5625 C0.255 2.5625 -4.365 2.5625 -9.125 2.5625 C-5.92868638 -0.63381362 -4.35745525 -0.5027833 0 0 Z " fill="#98BFFE" transform="translate(69.125,118.4375)"/>
<path d="M0 0 C0.66 0 1.32 0 2 0 C2 1.65 2 3.3 2 5 C2.66 5.33 3.32 5.66 4 6 C3.01 7.485 3.01 7.485 2 9 C-1.875 7.25 -1.875 7.25 -3 5 C-2.01 5 -1.02 5 0 5 C0 3.35 0 1.7 0 0 Z " fill="#EFFAFA" transform="translate(119,49)"/>
<path d="M0 0 C-0.33 2.64 -0.66 5.28 -1 8 C-2.32 7.67 -3.64 7.34 -5 7 C-4.625 4.0625 -4.625 4.0625 -4 1 C-2 0 -2 0 0 0 Z " fill="#36D7D5" transform="translate(123,100)"/>
<path d="M0 0 C1.32 0 2.64 0 4 0 C4 1.98 4 3.96 4 6 C3.01 6 2.02 6 1 6 C0.67 4.02 0.34 2.04 0 0 Z " fill="#3DB3DF" transform="translate(30,59)"/>
<path d="M0 0 C2.475 0.495 2.475 0.495 5 1 C5 2.65 5 4.3 5 6 C5.66 6 6.32 6 7 6 C6.67 6.66 6.34 7.32 6 8 C5.34 7.67 4.68 7.34 4 7 C4 5.35 4 3.7 4 2 C3.34 2 2.68 2 2 2 C2 3.65 2 5.3 2 7 C1.67 7 1.34 7 1 7 C0.67 4.69 0.34 2.38 0 0 Z " fill="#7CDDE1" transform="translate(117,47)"/>
<path d="M0 0 C2.97 0 5.94 0 9 0 C8.67 1.32 8.34 2.64 8 4 C6.68 3.67 5.36 3.34 4 3 C4.33 2.34 4.66 1.68 5 1 C3.35 1 1.7 1 0 1 C0 0.67 0 0.34 0 0 Z " fill="#5C4BF4" transform="translate(110,87)"/>
<path d="M0 0 C0.99 0 1.98 0 3 0 C3.33 1.98 3.66 3.96 4 6 C2.35 5.67 0.7 5.34 -1 5 C-0.67 3.35 -0.34 1.7 0 0 Z " fill="#35C2C5" transform="translate(47,97)"/>
<path d="M0 0 C0.33 0.66 0.66 1.32 1 2 C1.99 2 2.98 2 4 2 C4 2.66 4 3.32 4 4 C3.01 4.495 3.01 4.495 2 5 C1.27306096 6.97888961 0.60183749 8.97954558 0 11 C-0.66 10.01 -1.32 9.02 -2 8 C-1.67 7.67 -1.34 7.34 -1 7 C-0.63239269 4.67182036 -0.29758419 2.3381615 0 0 Z " fill="#49C9D7" transform="translate(30,63)"/>
<path d="M0 0 C0.66 0.66 1.32 1.32 2 2 C1.625 5.625 1.625 5.625 1 9 C0.34 9 -0.32 9 -1 9 C-1.09765625 2.84765625 -1.09765625 2.84765625 -1 1 C-0.67 0.67 -0.34 0.34 0 0 Z " fill="#3E9BE9" transform="translate(42,59)"/>
<path d="M0 0 C0 0.66 0 1.32 0 2 C-3.3 2 -6.6 2 -10 2 C-3.75 -1.125 -3.75 -1.125 0 0 Z " fill="#43D8D0" transform="translate(50,103)"/>
<path d="M0 0 C1.32 0.66 2.64 1.32 4 2 C3.67 2.66 3.34 3.32 3 4 C2.34 4 1.68 4 1 4 C0.34 5.32 -0.32 6.64 -1 8 C-1 5.16032769 -0.59732819 2.76264289 0 0 Z " fill="#F5FBFC" transform="translate(19,64)"/>
<path d="M0 0 C0.99 0.99 1.98 1.98 3 3 C-0.96 3 -4.92 3 -9 3 C-9 2.34 -9 1.68 -9 1 C-7.88625 1.020625 -6.7725 1.04125 -5.625 1.0625 C-2.16784079 1.26380718 -2.16784079 1.26380718 0 0 Z " fill="#8DCBDD" transform="translate(107,46)"/>
<path d="M0 0 C2.96175123 0.61277612 4.38058783 1.25372522 7 3 C4.69 3.33 2.38 3.66 0 4 C0 2.68 0 1.36 0 0 Z " fill="#32C8DC" transform="translate(13,71)"/>
<path d="M0 0 C1.32 0.33 2.64 0.66 4 1 C4 1.99 4 2.98 4 4 C1.69 4 -0.62 4 -3 4 C-2.01 2.68 -1.02 1.36 0 0 Z " fill="#7A9CFE" transform="translate(123,120)"/>
<path d="M0 0 C0.66 0 1.32 0 2 0 C1.25 6.75 1.25 6.75 -1 9 C-0.67 6.03 -0.34 3.06 0 0 Z " fill="#665FFF" transform="translate(103,108)"/>
<path d="M0 0 C0 0.99 0 1.98 0 3 C0.3062434 4.33981486 0.63451555 5.67511887 1 7 C-0.32 6.34 -1.64 5.68 -3 5 C-3 4.01 -3 3.02 -3 2 C-2.01 1.34 -1.02 0.68 0 0 Z " fill="#E8F6F9" transform="translate(41,92)"/>
<path d="M0 0 C0 3 0 3 -1 6 C-2.32 6 -3.64 6 -5 6 C-3.63016497 2.83884224 -3.0109362 2.0072908 0 0 Z " fill="#38C7D2" transform="translate(59,88)"/>
<path d="M0 0 C1.65 0 3.3 0 5 0 C5 0.99 5 1.98 5 3 C3.35 3.33 1.7 3.66 0 4 C0 2.68 0 1.36 0 0 Z " fill="#34C6DF" transform="translate(13,65)"/>
</svg>
