<?xml version="1.0" encoding="UTF-8"?>
<svg version="1.1" xmlns="http://www.w3.org/2000/svg" width="150" height="150">
<path d="M0 0 C0.495 2.97 0.495 2.97 1 6 C5.41062136 7.0257259 7.92630576 7.03684712 12 5 C14.0625 7.25 14.0625 7.25 16 10 C15.62109375 12.171875 15.62109375 12.171875 15 14 C15.99902344 14.06058594 16.99804688 14.12117188 18.02734375 14.18359375 C19.96287109 14.30927734 19.96287109 14.30927734 21.9375 14.4375 C23.22527344 14.51871094 24.51304687 14.59992187 25.83984375 14.68359375 C29 15 29 15 30 16 C30.08748207 17.92667507 30.10697334 19.85651861 30.09765625 21.78515625 C30.09443359 22.95498047 30.09121094 24.12480469 30.08789062 25.33007812 C30.07951172 26.56177734 30.07113281 27.79347656 30.0625 29.0625 C30.05798828 30.29806641 30.05347656 31.53363281 30.04882812 32.80664062 C30.03699608 35.87114117 30.02051173 38.93554721 30 42 C32.475 41.505 32.475 41.505 35 41 C36.0625 42.8125 36.0625 42.8125 37 45 C36.67 45.99 36.34 46.98 36 48 C37.37168238 50.19038423 37.37168238 50.19038423 39 52 C38.3125 53.9375 38.3125 53.9375 37 56 C34.375 56.75 34.375 56.75 32 57 C31.67 58.32 31.34 59.64 31 61 C29.35 61 27.7 61 26 61 C26 60.01 26 59.02 26 58 C22.535 58.495 22.535 58.495 19 59 C17.16308743 55.21812119 16.84162374 53.05431692 18 49 C17.34 49 16.68 49 16 49 C16 47.68 16 46.36 16 45 C15.34 45 14.68 45 14 45 C14 51.6 14 58.2 14 65 C16.31 65 18.62 65 21 65 C22 66 22 66 22.11352539 69.96899414 C22.1133662 71.74105607 22.10766785 73.5131226 22.09765625 75.28515625 C22.0962413 76.21597519 22.09482635 77.14679413 22.09336853 78.1058197 C22.08775172 81.09141191 22.0751964 84.07693029 22.0625 87.0625 C22.05748716 89.08137913 22.05292388 91.10025943 22.04882812 93.11914062 C22.03777683 98.07945572 22.02050095 103.03971532 22 108 C24.31 108.66 26.62 109.32 29 110 C28 112 28 112 26.34521484 112.61450195 C21.49200924 113.41225457 16.54404055 113.18590312 11.63769531 113.18530273 C9.63863013 113.18748512 7.63960468 113.20599143 5.640625 113.22460938 C4.36960937 113.22654297 3.09859375 113.22847656 1.7890625 113.23046875 C0.63100098 113.23457764 -0.52706055 113.23868652 -1.72021484 113.24291992 C-5.11310954 112.99162245 -7.83332989 112.21173908 -11 111 C-10.67 110.34 -10.34 109.68 -10 109 C-7.4375 108.375 -7.4375 108.375 -5 108 C-5.67857056 107.99191315 -6.35714111 107.98382629 -7.05627441 107.97549438 C-14.19572947 107.88863335 -21.33493245 107.7891071 -28.47412109 107.68261719 C-31.12938188 107.64363425 -33.7845665 107.60971702 -36.43994141 107.578125 C-74.93926359 107.11445232 -74.93926359 107.11445232 -82 103 C-80.74458443 100.48916886 -79.49936512 100.12874554 -77 99 C-78.98 98.67 -80.96 98.34 -83 98 C-83.33 98.99 -83.66 99.98 -84 101 C-86.35964273 100.59316505 -87.85934088 100.10185661 -89.8125 98.6875 C-90.204375 98.130625 -90.59625 97.57375 -91 97 C-90.625 95 -90.625 95 -90 93 C-90.33 92.01 -90.66 91.02 -91 90 C-92.65 90 -94.3 90 -96 90 C-96 87.69 -96 85.38 -96 83 C-95.38125 82.938125 -94.7625 82.87625 -94.125 82.8125 C-91.77107651 82.1770915 -91.77107651 82.1770915 -90.75 79.6875 C-89.82080069 76.82290068 -89.82080069 76.82290068 -90 73 C-87 71 -87 71 -84 71 C-83.67 71.66 -83.34 72.32 -83 73 C-81.68 73.33 -80.36 73.66 -79 74 C-79 71.03 -79 68.06 -79 65 C-85.27 65 -91.54 65 -98 65 C-98 64.34 -98 63.68 -98 63 C-95.03 62.505 -95.03 62.505 -92 62 C-92 61.01 -92 60.02 -92 59 C-93.98 59 -95.96 59 -98 59 C-98 58.34 -98 57.68 -98 57 C-96.02 57 -94.04 57 -92 57 C-92 55.68 -92 54.36 -92 53 C-93.98 53 -95.96 53 -98 53 C-98 52.34 -98 51.68 -98 51 C-96.02 51 -94.04 51 -92 51 C-92 49.68 -92 48.36 -92 47 C-93.98 47 -95.96 47 -98 47 C-98 46.34 -98 45.68 -98 45 C-96.02 45 -94.04 45 -92 45 C-92 44.01 -92 43.02 -92 42 C-93.98 41.67 -95.96 41.34 -98 41 C-98 40.67 -98 40.34 -98 40 C-91.73 40 -85.46 40 -79 40 C-79 38.35 -79 36.7 -79 35 C-85.27 35 -91.54 35 -98 35 C-98 34.67 -98 34.34 -98 34 C-95.525 33.505 -95.525 33.505 -93 33 C-92.67 31.68 -92.34 30.36 -92 29 C-93.98 29 -95.96 29 -98 29 C-98 28.67 -98 28.34 -98 28 C-96.35 27.67 -94.7 27.34 -93 27 C-92.67 25.68 -92.34 24.36 -92 23 C-93.98 23 -95.96 23 -98 23 C-98 22.67 -98 22.34 -98 22 C-96.35 21.67 -94.7 21.34 -93 21 C-92.67 19.68 -92.34 18.36 -92 17 C-93.98 17 -95.96 17 -98 17 C-98 16.67 -98 16.34 -98 16 C-92.11060037 13.95887931 -86.8280285 13.72721958 -80.625 13.8125 C-79.25408203 13.8134668 -79.25408203 13.8134668 -77.85546875 13.81445312 C-71.14064837 13.85935163 -71.14064837 13.85935163 -70 15 C-67.48119483 15.15988491 -64.98657734 15.25934225 -62.46484375 15.31640625 C-61.71159317 15.33718735 -60.95834259 15.35796844 -60.18226624 15.37937927 C-57.7674401 15.44495425 -55.35250202 15.50379621 -52.9375 15.5625 C-51.30402471 15.6056777 -49.6705609 15.64929173 -48.03710938 15.69335938 C-44.02485536 15.80064362 -40.01248836 15.90188821 -36 16 C-36 16.33 -36 16.66 -36 17 C-47.55 17 -59.1 17 -71 17 C-70.67 18.32 -70.34 19.64 -70 21 C-58.78 21.33 -47.56 21.66 -36 22 C-36 22.33 -36 22.66 -36 23 C-47.55 23 -59.1 23 -71 23 C-70.67 24.32 -70.34 25.64 -70 27 C-52.84 26.67 -35.68 26.34 -18 26 C-18 23.69 -18 21.38 -18 19 C-19.32 18.67 -20.64 18.34 -22 18 C-21.51421457 14.87709365 -21.0013988 12.00419641 -20 9 C-18.906875 9.226875 -17.81375 9.45375 -16.6875 9.6875 C-13.17871443 10.33441419 -13.17871443 10.33441419 -11.125 8.9375 C-9.62467313 6.35360372 -9.32735528 3.94619748 -9 1 C-5.94152152 0.45627049 -3.11227195 0 0 0 Z M-9 14 C-11.2084626 17.31269391 -11.80664241 19.14978851 -11.5546875 23.0625 C-10.4812192 26.81207941 -8.28696911 28.01541488 -5 30 C-2.36163023 30.1672392 -2.36163023 30.1672392 0 30 C0.03738281 29.01257813 0.07476562 28.02515625 0.11328125 27.0078125 C0.17902344 25.72648437 0.24476562 24.44515625 0.3125 23.125 C0.37050781 21.84882812 0.42851563 20.57265625 0.48828125 19.2578125 C0.65714844 18.18273437 0.82601562 17.10765625 1 16 C1.99 15.34 2.98 14.68 4 14 C2.01607489 11.60148679 2.01607489 11.60148679 -1.8125 11.5625 C-5.17733329 11.66669338 -6.04370031 12.02913354 -9 14 Z M-71 29 C-71 29.66 -71 30.32 -71 31 C-68.69 31 -66.38 31 -64 31 C-64 30.34 -64 29.68 -64 29 C-66.31 29 -68.62 29 -71 29 Z M22 47 C21.6366844 49.83386167 21.6431329 51.40522151 23.125 53.875 C25.92151052 55.55290631 27.93690532 54.74875648 31 54 C31.67673447 50.59679066 31.67673447 50.59679066 32 47 C30.11499729 44.68436913 30.11499729 44.68436913 27 44.75 C23.88500271 44.68436913 23.88500271 44.68436913 22 47 Z M-85.25 80.625 C-87.21985834 82.92308586 -87.21985834 82.92308586 -87.5 86 C-87.21376982 89.06575838 -87.21376982 89.06575838 -85.3125 91.375 C-82.61209763 93.27258004 -81.22939919 93.35882213 -78 93 C-77.85024761 85.94348748 -77.85024761 85.94348748 -79 79 C-82.92212225 78.60967296 -82.92212225 78.60967296 -85.25 80.625 Z M-70 95 C-70.33 96.65 -70.66 98.3 -71 100 C-58.13 99.01 -58.13 99.01 -45 98 C-44.67 97.01 -44.34 96.02 -44 95 C-52.58 95 -61.16 95 -70 95 Z M-20 95 C-20 95.99 -20 96.98 -20 98 C-14.72 98.33 -9.44 98.66 -4 99 C-4 97.68 -4 96.36 -4 95 C-9.28 95 -14.56 95 -20 95 Z " fill="#5E52FD" transform="translate(105,18)"/>
<path d="M0 0 C2.31 0 4.62 0 7 0 C7 2.97 7 5.94 7 9 C10.3 9 13.6 9 17 9 C17 15.6 17 22.2 17 29 C12.71 29 8.42 29 4 29 C4 29.66 4 30.32 4 31 C12.79133718 32.42426407 12.79133718 32.42426407 29 32 C29 45.2 29 58.4 29 72 C31.31 72.66 33.62 73.32 36 74 C35 76 35 76 33.34521484 76.61450195 C28.49200924 77.41225457 23.54404055 77.18590312 18.63769531 77.18530273 C16.63863013 77.18748512 14.63960468 77.20599143 12.640625 77.22460938 C11.36960937 77.22654297 10.09859375 77.22847656 8.7890625 77.23046875 C7.63100098 77.23457764 6.47293945 77.23868652 5.27978516 77.24291992 C1.88689046 76.99162245 -0.83332989 76.21173908 -4 75 C-3.67 74.34 -3.34 73.68 -3 73 C-0.4375 72.375 -0.4375 72.375 2 72 C1.32142944 71.99191315 0.64285889 71.98382629 -0.05627441 71.97549438 C-7.19572947 71.88863335 -14.33493245 71.7891071 -21.47412109 71.68261719 C-24.12938188 71.64363425 -26.7845665 71.60971702 -29.43994141 71.578125 C-67.93926359 71.11445232 -67.93926359 71.11445232 -75 67 C-73.74458443 64.48916886 -72.49936512 64.12874554 -70 63 C-71.98 62.67 -73.96 62.34 -76 62 C-76.33 62.99 -76.66 63.98 -77 65 C-79.35964273 64.59316505 -80.85934088 64.10185661 -82.8125 62.6875 C-83.204375 62.130625 -83.59625 61.57375 -84 61 C-83.625 59 -83.625 59 -83 57 C-83.495 55.515 -83.495 55.515 -84 54 C-85.65 54 -87.3 54 -89 54 C-89 51.69 -89 49.38 -89 47 C-88.38125 46.938125 -87.7625 46.87625 -87.125 46.8125 C-84.77107651 46.1770915 -84.77107651 46.1770915 -83.75 43.6875 C-82.82080069 40.82290068 -82.82080069 40.82290068 -83 37 C-80 35 -80 35 -77 35 C-76.67 35.66 -76.34 36.32 -76 37 C-73.97536745 37.65213292 -73.97536745 37.65213292 -72 38 C-72 39.65 -72 41.3 -72 43 C-72.969375 43.28875 -73.93875 43.5775 -74.9375 43.875 C-78.10664203 44.64214682 -78.10664203 44.64214682 -79 47 C-79.14375422 50.37822416 -79.07536348 52.77390955 -78 56 C-75.69 56.33 -73.38 56.66 -71 57 C-71 54.03 -71 51.06 -71 48 C-69.02 48 -67.04 48 -65 48 C-64.67 48.66 -64.34 49.32 -64 50 C-55.75 50 -47.5 50 -39 50 C-38.505 49.01 -38.505 49.01 -38 48 C-24.47 48 -10.94 48 3 48 C3 46.35 3 44.7 3 43 C2.02389771 43.01571045 2.02389771 43.01571045 1.02807617 43.03173828 C-1.9187433 43.07329835 -4.86550111 43.09932608 -7.8125 43.125 C-8.83666016 43.14175781 -9.86082031 43.15851563 -10.91601562 43.17578125 C-11.89892578 43.18222656 -12.88183594 43.18867187 -13.89453125 43.1953125 C-14.80050049 43.20578613 -15.70646973 43.21625977 -16.63989258 43.22705078 C-19 43 -19 43 -22 41 C-22 40.34 -22 39.68 -22 39 C-23.98 38.505 -23.98 38.505 -26 38 C-21.375 35 -21.375 35 -18 35 C-15.8480563 31.77208445 -15.79913557 30.71599191 -16 27 C-15.00097656 26.93941406 -14.00195312 26.87882812 -12.97265625 26.81640625 C-11.68230469 26.73261719 -10.39195313 26.64882812 -9.0625 26.5625 C-7.77472656 26.48128906 -6.48695312 26.40007812 -5.16015625 26.31640625 C-2.13976043 26.35080812 -2.13976043 26.35080812 -1 25 C-0.84213692 23.14825294 -0.74892644 21.2909089 -0.68359375 19.43359375 C-0.64169922 18.30888672 -0.59980469 17.18417969 -0.55664062 16.02539062 C-0.51732422 14.84138672 -0.47800781 13.65738281 -0.4375 12.4375 C-0.37272461 10.65569336 -0.37272461 10.65569336 -0.30664062 8.83789062 C-0.20016454 5.89205216 -0.09815159 2.9461257 0 0 Z M-63 59 C-63.33 60.65 -63.66 62.3 -64 64 C-51.13 63.01 -51.13 63.01 -38 62 C-37.67 61.01 -37.34 60.02 -37 59 C-45.58 59 -54.16 59 -63 59 Z M-13 59 C-13 59.99 -13 60.98 -13 62 C-7.72 62.33 -2.44 62.66 3 63 C3 61.68 3 60.36 3 59 C-2.28 59 -7.56 59 -13 59 Z " fill="#5F4FEF" transform="translate(98,54)"/>
<path d="M0 0 C0.33 0.66 0.66 1.32 1 2 C3.02463255 2.65213292 3.02463255 2.65213292 5 3 C5 4.65 5 6.3 5 8 C4.030625 8.28875 3.06125 8.5775 2.0625 8.875 C-1.10664203 9.64214682 -1.10664203 9.64214682 -2 12 C-2.14375422 15.37822416 -2.07536348 17.77390955 -1 21 C1.31 21.33 3.62 21.66 6 22 C6 19.03 6 16.06 6 13 C7.98 13 9.96 13 12 13 C12.33 13.66 12.66 14.32 13 15 C21.25 15 29.5 15 38 15 C38.33 14.34 38.66 13.68 39 13 C52.53 13 66.06 13 80 13 C80 16.63 80 20.26 80 24 C74.72 24 69.44 24 64 24 C64 24.99 64 25.98 64 27 C64.56847656 26.98839844 65.13695313 26.97679688 65.72265625 26.96484375 C70.60670484 26.90776806 75.18503965 27.18043228 80 28 C80 30.64 80 33.28 80 36 C72.71409984 36.04682155 65.42823335 36.08211748 58.14221191 36.10362434 C54.75718789 36.11395864 51.37226851 36.12792229 47.98730469 36.15087891 C9.5625541 36.39227608 9.5625541 36.39227608 2 32 C3.25541557 29.48916886 4.50063488 29.12874554 7 28 C5.02 27.67 3.04 27.34 1 27 C0.67 27.99 0.34 28.98 0 30 C-2.35964273 29.59316505 -3.85934088 29.10185661 -5.8125 27.6875 C-6.204375 27.130625 -6.59625 26.57375 -7 26 C-6.625 24 -6.625 24 -6 22 C-6.33 21.01 -6.66 20.02 -7 19 C-8.65 19 -10.3 19 -12 19 C-12 16.69 -12 14.38 -12 12 C-11.38125 11.938125 -10.7625 11.87625 -10.125 11.8125 C-7.77107651 11.1770915 -7.77107651 11.1770915 -6.75 8.6875 C-5.82080069 5.82290068 -5.82080069 5.82290068 -6 2 C-3 0 -3 0 0 0 Z M14 24 C13.67 25.65 13.34 27.3 13 29 C25.87 28.01 25.87 28.01 39 27 C39.33 26.01 39.66 25.02 40 24 C31.42 24 22.84 24 14 24 Z " fill="#B3D0FE" transform="translate(21,89)"/>
<path d="M0 0 C16.83 0 33.66 0 51 0 C51 10.23 51 20.46 51 31 C34.17 31 17.34 31 0 31 C0 20.77 0 10.54 0 0 Z " fill="#474E94" transform="translate(44,47)"/>
<path d="M0 0 C0.33 1.98 0.66 3.96 1 6 C5.41062136 7.0257259 7.92630576 7.03684712 12 5 C14.0625 7.25 14.0625 7.25 16 10 C15.62109375 12.171875 15.62109375 12.171875 15 14 C15.99902344 14.06058594 16.99804688 14.12117188 18.02734375 14.18359375 C19.31769531 14.26738281 20.60804687 14.35117187 21.9375 14.4375 C23.86916016 14.55931641 23.86916016 14.55931641 25.83984375 14.68359375 C29 15 29 15 30 16 C30.08748207 17.92667507 30.10697334 19.85651861 30.09765625 21.78515625 C30.09443359 22.95498047 30.09121094 24.12480469 30.08789062 25.33007812 C30.07532227 27.17762695 30.07532227 27.17762695 30.0625 29.0625 C30.05798828 30.29806641 30.05347656 31.53363281 30.04882812 32.80664062 C30.03699608 35.87114117 30.02051173 38.93554721 30 42 C32.475 41.505 32.475 41.505 35 41 C36.0625 42.8125 36.0625 42.8125 37 45 C36.67 45.99 36.34 46.98 36 48 C37.37168238 50.19038423 37.37168238 50.19038423 39 52 C38.3125 53.9375 38.3125 53.9375 37 56 C34.375 56.75 34.375 56.75 32 57 C31.67 58.32 31.34 59.64 31 61 C29.35 61 27.7 61 26 61 C26 60.01 26 59.02 26 58 C22.535 58.495 22.535 58.495 19 59 C17.16308743 55.21812119 16.84162374 53.05431692 18 49 C17.34 49 16.68 49 16 49 C16 47.68 16 46.36 16 45 C15.34 45 14.68 45 14 45 C13.01 43.02 12.02 41.04 11 39 C11.66 39 12.32 39 13 39 C13 36.69 13 34.38 13 32 C6.4 31.67 -0.2 31.34 -7 31 C-7 30.34 -7 29.68 -7 29 C-4.69 29.33 -2.38 29.66 0 30 C-0.05220703 28.51886719 -0.05220703 28.51886719 -0.10546875 27.0078125 C-0.13253906 25.72648437 -0.15960938 24.44515625 -0.1875 23.125 C-0.23970703 21.21074219 -0.23970703 21.21074219 -0.29296875 19.2578125 C-0.19628906 18.18273437 -0.09960938 17.10765625 0 16 C0.99 15.34 1.98 14.68 3 14 C1.78410016 12.56844101 1.78410016 12.56844101 -1.8125 12.6875 C-4.78617685 12.74622611 -5.87751147 12.92650688 -8.5 14.5 C-10.71177972 18.18629954 -10.34421275 20.73176192 -10 25 C-9.67 25.66 -9.34 26.32 -9 27 C-11.97 27 -14.94 27 -18 27 C-18 24.36 -18 21.72 -18 19 C-19.32 18.67 -20.64 18.34 -22 18 C-21.51421457 14.87709365 -21.0013988 12.00419641 -20 9 C-18.906875 9.226875 -17.81375 9.45375 -16.6875 9.6875 C-13.17871443 10.33441419 -13.17871443 10.33441419 -11.125 8.9375 C-9.62467313 6.35360372 -9.32735528 3.94619748 -9 1 C-5.94152152 0.45627049 -3.11227195 0 0 0 Z M22 47 C21.6366844 49.83386167 21.6431329 51.40522151 23.125 53.875 C25.92151052 55.55290631 27.93690532 54.74875648 31 54 C31.67673447 50.59679066 31.67673447 50.59679066 32 47 C30.11499729 44.68436913 30.11499729 44.68436913 27 44.75 C23.88500271 44.68436913 23.88500271 44.68436913 22 47 Z " fill="#35DBC6" transform="translate(105,18)"/>
<path d="M0 0 C9.24 0 18.48 0 28 0 C28.495 1.98 28.495 1.98 29 4 C30.27617188 3.98839844 31.55234375 3.97679687 32.8671875 3.96484375 C34.53645687 3.95546583 36.20572783 3.94636563 37.875 3.9375 C39.13763672 3.92493164 39.13763672 3.92493164 40.42578125 3.91210938 C41.23144531 3.90888672 42.03710938 3.90566406 42.8671875 3.90234375 C43.98262939 3.89448853 43.98262939 3.89448853 45.12060547 3.88647461 C47 4 47 4 49 5 C49 8 49 11 49 14 C49.495 14.495 49.495 14.495 50 15 C50.08713831 16.70772358 50.10700007 18.41898649 50.09765625 20.12890625 C50.09282227 21.68061523 50.09282227 21.68061523 50.08789062 23.26367188 C50.07532227 24.8965918 50.07532227 24.8965918 50.0625 26.5625 C50.05798828 27.65498047 50.05347656 28.74746094 50.04882812 29.87304688 C50.03699826 32.58208495 50.02051543 35.29101599 50 38 C52.31 38 54.62 38 57 38 C57.33 38.99 57.66 39.98 58 41 C49.19039858 42.30512614 40.80960142 42.30512614 32 41 C32.33 40.01 32.66 39.02 33 38 C37.29 38 41.58 38 46 38 C46 31.4 46 24.8 46 18 C42.7 18 39.4 18 36 18 C36 15.03 36 12.06 36 9 C33.69 9 31.38 9 29 9 C29.01571045 10.12027588 29.01571045 10.12027588 29.03173828 11.26318359 C29.0732077 14.63375508 29.09929729 18.004273 29.125 21.375 C29.14175781 22.550625 29.15851563 23.72625 29.17578125 24.9375 C29.18544922 26.61972656 29.18544922 26.61972656 29.1953125 28.3359375 C29.21102295 29.89127197 29.21102295 29.89127197 29.22705078 31.47802734 C29 34 29 34 27 36 C24.76086426 36.25396729 24.76086426 36.25396729 21.93945312 36.25878906 C20.35771301 36.26824554 20.35771301 36.26824554 18.74401855 36.27789307 C17.60130493 36.2738446 16.45859131 36.26979614 15.28125 36.265625 C13.52802429 36.26849518 13.52802429 36.26849518 11.73937988 36.27142334 C9.26456487 36.27278626 6.78974274 36.26908241 4.31494141 36.26074219 C0.51578795 36.25004446 -3.28289259 36.26063418 -7.08203125 36.2734375 C-9.48177188 36.27211592 -11.88151222 36.26955357 -14.28125 36.265625 C-15.99532043 36.27169769 -15.99532043 36.27169769 -17.74401855 36.27789307 C-18.79851196 36.27158875 -19.85300537 36.26528442 -20.93945312 36.25878906 C-21.8705188 36.25719788 -22.80158447 36.25560669 -23.76086426 36.25396729 C-26 36 -26 36 -28 34 C-28.22705078 31.01904297 -28.22705078 31.01904297 -28.1953125 27.2421875 C-28.1924826 26.57913605 -28.18965271 25.91608459 -28.18673706 25.23294067 C-28.17553435 23.11344417 -28.15043051 20.99436896 -28.125 18.875 C-28.11497028 17.43880818 -28.10584441 16.00260975 -28.09765625 14.56640625 C-28.075595 11.04413372 -28.04106494 7.52210797 -28 4 C-27.01 4 -26.02 4 -25 4 C-25 13.57 -25 23.14 -25 33 C-8.17 33 8.66 33 26 33 C26 22.77 26 12.54 26 2 C17.42 2 8.84 2 0 2 C0 1.34 0 0.68 0 0 Z " fill="#38D2CB" transform="translate(69,45)"/>
<path d="M0 0 C2.31 0 4.62 0 7 0 C7 2.97 7 5.94 7 9 C10.3 9 13.6 9 17 9 C17 15.6 17 22.2 17 29 C12.71 29 8.42 29 4 29 C3.67 33.62 3.34 38.24 3 43 C-0.60436513 43.05384114 -4.20792978 43.0935974 -7.8125 43.125 C-8.83666016 43.14175781 -9.86082031 43.15851563 -10.91601562 43.17578125 C-11.89892578 43.18222656 -12.88183594 43.18867187 -13.89453125 43.1953125 C-14.80050049 43.20578613 -15.70646973 43.21625977 -16.63989258 43.22705078 C-19 43 -19 43 -22 41 C-22 40.34 -22 39.68 -22 39 C-23.32 38.67 -24.64 38.34 -26 38 C-21.375 35 -21.375 35 -18 35 C-15.8480563 31.77208445 -15.79913557 30.71599191 -16 27 C-15.00097656 26.93941406 -14.00195312 26.87882812 -12.97265625 26.81640625 C-11.68230469 26.73261719 -10.39195313 26.64882812 -9.0625 26.5625 C-7.77472656 26.48128906 -6.48695312 26.40007812 -5.16015625 26.31640625 C-2.13976043 26.35080812 -2.13976043 26.35080812 -1 25 C-0.84213692 23.14825294 -0.74892644 21.2909089 -0.68359375 19.43359375 C-0.64169922 18.30888672 -0.59980469 17.18417969 -0.55664062 16.02539062 C-0.51732422 14.84138672 -0.47800781 13.65738281 -0.4375 12.4375 C-0.39431641 11.24962891 -0.35113281 10.06175781 -0.30664062 8.83789062 C-0.20016454 5.89205216 -0.09815159 2.9461257 0 0 Z " fill="#7286FE" transform="translate(98,54)"/>
<path d="M0 0 C0.33 0.66 0.66 1.32 1 2 C3.02463255 2.65213292 3.02463255 2.65213292 5 3 C5 4.65 5 6.3 5 8 C4.030625 8.28875 3.06125 8.5775 2.0625 8.875 C-1.10664203 9.64214682 -1.10664203 9.64214682 -2 12 C-2.14375422 15.37822416 -2.07536348 17.77390955 -1 21 C0.134375 21.144375 1.26875 21.28875 2.4375 21.4375 C6 22 6 22 7 23 C9.32817964 23.36760731 11.6618385 23.70241581 14 24 C14.33 25.32 14.66 26.64 15 28 C22.92 27.67 30.84 27.34 39 27 C38.67 27.66 38.34 28.32 38 29 C35.35139573 29.59355614 32.70802678 29.74209269 30 30 C30 30.66 30 31.32 30 32 C44.19 32 58.38 32 73 32 C72.505 31.01 72.505 31.01 72 30 C70.845 29.835 69.69 29.67 68.5 29.5 C67.345 29.335 66.19 29.17 65 29 C64.505 28.01 64.505 28.01 64 27 C69.45769811 26.88861841 74.61509359 27.08342019 80 28 C80 30.64 80 33.28 80 36 C72.71409984 36.04682155 65.42823335 36.08211748 58.14221191 36.10362434 C54.75718789 36.11395864 51.37226851 36.12792229 47.98730469 36.15087891 C9.5625541 36.39227608 9.5625541 36.39227608 2 32 C3.25541557 29.48916886 4.50063488 29.12874554 7 28 C5.02 27.67 3.04 27.34 1 27 C0.67 27.99 0.34 28.98 0 30 C-2.35964273 29.59316505 -3.85934088 29.10185661 -5.8125 27.6875 C-6.204375 27.130625 -6.59625 26.57375 -7 26 C-6.625 24 -6.625 24 -6 22 C-6.33 21.01 -6.66 20.02 -7 19 C-8.65 19 -10.3 19 -12 19 C-12 16.69 -12 14.38 -12 12 C-11.38125 11.938125 -10.7625 11.87625 -10.125 11.8125 C-7.77107651 11.1770915 -7.77107651 11.1770915 -6.75 8.6875 C-5.82080069 5.82290068 -5.82080069 5.82290068 -6 2 C-3 0 -3 0 0 0 Z " fill="#EAEBF2" transform="translate(21,89)"/>
<path d="M0 0 C1.37091797 0.0009668 1.37091797 0.0009668 2.76953125 0.00195312 C9.48435163 0.04685163 9.48435163 0.04685163 10.625 1.1875 C13.14380517 1.34738491 15.63842266 1.44684225 18.16015625 1.50390625 C19.29003212 1.5350779 19.29003212 1.5350779 20.44273376 1.56687927 C22.8575599 1.63245425 25.27249798 1.69129621 27.6875 1.75 C29.32097529 1.7931777 30.9544391 1.83679173 32.58789062 1.88085938 C36.60014464 1.98814362 40.61251164 2.08938821 44.625 2.1875 C44.625 2.5175 44.625 2.8475 44.625 3.1875 C33.075 3.1875 21.525 3.1875 9.625 3.1875 C9.955 4.5075 10.285 5.8275 10.625 7.1875 C21.845 7.5175 33.065 7.8475 44.625 8.1875 C44.625 8.5175 44.625 8.8475 44.625 9.1875 C33.075 9.1875 21.525 9.1875 9.625 9.1875 C9.955 10.5075 10.285 11.8275 10.625 13.1875 C21.845 13.1875 33.065 13.1875 44.625 13.1875 C44.625 13.8475 44.625 14.5075 44.625 15.1875 C36.375 15.1875 28.125 15.1875 19.625 15.1875 C19.625 15.8475 19.625 16.5075 19.625 17.1875 C18.635 17.1875 17.645 17.1875 16.625 17.1875 C16.625 16.5275 16.625 15.8675 16.625 15.1875 C14.315 15.1875 12.005 15.1875 9.625 15.1875 C9.625 17.1675 9.625 19.1475 9.625 21.1875 C0.715 21.1875 -8.195 21.1875 -17.375 21.1875 C-17.375 20.8575 -17.375 20.5275 -17.375 20.1875 C-15.725 19.8575 -14.075 19.5275 -12.375 19.1875 C-12.045 17.8675 -11.715 16.5475 -11.375 15.1875 C-13.355 15.1875 -15.335 15.1875 -17.375 15.1875 C-17.375 14.8575 -17.375 14.5275 -17.375 14.1875 C-15.725 13.8575 -14.075 13.5275 -12.375 13.1875 C-12.045 11.8675 -11.715 10.5475 -11.375 9.1875 C-13.355 9.1875 -15.335 9.1875 -17.375 9.1875 C-17.375 8.8575 -17.375 8.5275 -17.375 8.1875 C-15.725 7.8575 -14.075 7.5275 -12.375 7.1875 C-12.045 5.8675 -11.715 4.5475 -11.375 3.1875 C-13.355 3.1875 -15.335 3.1875 -17.375 3.1875 C-17.375 2.8575 -17.375 2.5275 -17.375 2.1875 C-11.48560037 0.14637931 -6.2030285 -0.08528042 0 0 Z " fill="#8DDFE1" transform="translate(24.375,31.8125)"/>
<path d="M0 0 C1.12019531 -0.00128906 2.24039063 -0.00257812 3.39453125 -0.00390625 C4.57402344 -0.00003906 5.75351562 0.00382812 6.96875 0.0078125 C8.73798828 0.00201172 8.73798828 0.00201172 10.54296875 -0.00390625 C12.22326172 -0.00197266 12.22326172 -0.00197266 13.9375 0 C14.97326172 0.00112793 16.00902344 0.00225586 17.07617188 0.00341797 C19.46875 0.1328125 19.46875 0.1328125 20.46875 1.1328125 C20.56861975 3.97616298 20.60752881 6.78978413 20.59375 9.6328125 C20.59955078 10.82970703 20.59955078 10.82970703 20.60546875 12.05078125 C20.59535767 18.00620483 20.59535767 18.00620483 19.46875 19.1328125 C17.62715977 19.23240871 15.78178033 19.26361661 13.9375 19.265625 C12.81730469 19.26691406 11.69710937 19.26820312 10.54296875 19.26953125 C9.36347656 19.26566406 8.18398438 19.26179688 6.96875 19.2578125 C5.19951172 19.26361328 5.19951172 19.26361328 3.39453125 19.26953125 C1.71423828 19.26759766 1.71423828 19.26759766 0 19.265625 C-1.03576172 19.26449707 -2.07152344 19.26336914 -3.13867188 19.26220703 C-5.53125 19.1328125 -5.53125 19.1328125 -6.53125 18.1328125 C-6.63111975 15.28946202 -6.67002881 12.47584087 -6.65625 9.6328125 C-6.66011719 8.83488281 -6.66398437 8.03695312 -6.66796875 7.21484375 C-6.65573175 0.007248 -6.65573175 0.007248 0 0 Z " fill="#49B9E1" transform="translate(39.53125,85.8671875)"/>
<path d="M0 0 C3.0000624 -0.02721831 5.99987256 -0.04694378 9 -0.0625 C9.83917969 -0.07087891 10.67835937 -0.07925781 11.54296875 -0.08789062 C12.79013672 -0.09272461 12.79013672 -0.09272461 14.0625 -0.09765625 C15.19365234 -0.10551147 15.19365234 -0.10551147 16.34765625 -0.11352539 C19.91451913 0.03914317 23.45744034 0.55718004 27 1 C27 7.93 27 14.86 27 22 C20.07 22 13.14 22 6 22 C6 21.01 6 20.02 6 19 C4.02 19 2.04 19 0 19 C0 18.34 0 17.68 0 17 C1.98 17 3.96 17 6 17 C6 15.68 6 14.36 6 13 C4.02 13 2.04 13 0 13 C0 12.34 0 11.68 0 11 C1.98 11 3.96 11 6 11 C6 9.68 6 8.36 6 7 C4.02 7 2.04 7 0 7 C0 6.34 0 5.68 0 5 C1.98 5 3.96 5 6 5 C6 4.01 6 3.02 6 2 C3.03 1.505 3.03 1.505 0 1 C0 0.67 0 0.34 0 0 Z " fill="#9DDDE9" transform="translate(7,58)"/>
<path d="M0 0 C1.4539304 0.03304387 2.90746075 0.09241162 4.359375 0.17578125 C5.10445312 0.19833984 5.84953125 0.22089844 6.6171875 0.24414062 C8.448784 0.30284564 10.27934153 0.39252368 12.109375 0.48828125 C12.439375 2.46828125 12.769375 4.44828125 13.109375 6.48828125 C12.449375 6.48828125 11.789375 6.48828125 11.109375 6.48828125 C11.109375 7.80828125 11.109375 9.12828125 11.109375 10.48828125 C8.634375 9.99328125 8.634375 9.99328125 6.109375 9.48828125 C6.109375 10.47828125 6.109375 11.46828125 6.109375 12.48828125 C6.769375 13.14828125 7.429375 13.80828125 8.109375 14.48828125 C8.439375 15.14828125 8.769375 15.80828125 9.109375 16.48828125 C16.369375 16.48828125 23.629375 16.48828125 31.109375 16.48828125 C31.109375 18.13828125 31.109375 19.78828125 31.109375 21.48828125 C17.579375 21.48828125 4.049375 21.48828125 -9.890625 21.48828125 C-9.890625 8.48828125 -9.890625 8.48828125 -7.890625 5.48828125 C-7.09398437 4.16763672 -7.09398437 4.16763672 -6.28125 2.8203125 C-3.890625 0.48828125 -3.890625 0.48828125 0 0 Z " fill="#6C73FE" transform="translate(69.890625,80.51171875)"/>
<path d="M0 0 C1.98 0 3.96 0 6 0 C6 12.54 6 25.08 6 38 C-2.25 38 -10.5 38 -19 38 C-19.13392857 24.74107143 -19.13392857 24.74107143 -18 20 C-17.34 20 -16.68 20 -16 20 C-15.67 22.31 -15.34 24.62 -15 27 C-9.39 27.33 -3.78 27.66 2 28 C2 22.06 2 16.12 2 10 C-2.29 10 -6.58 10 -11 10 C-10.34 9.34 -9.68 8.68 -9 8 C-8.01 8 -7.02 8 -6 8 C-6.33 7.01 -6.66 6.02 -7 5 C-5 3 -5 3 -2.9375 2.5 C-2.298125 2.335 -1.65875 2.17 -1 2 C-0.67 1.34 -0.34 0.68 0 0 Z " fill="#7389FE" transform="translate(121,86)"/>
<path d="M0 0 C0.33 1.98 0.66 3.96 1 6 C5.41062136 7.0257259 7.92630576 7.03684712 12 5 C14.0625 7.25 14.0625 7.25 16 10 C15.81190541 12.25713514 15.60454441 13.39545559 14 15 C12.35769636 15.1245486 10.70947724 15.17568524 9.0625 15.1875 C8.16660156 15.20167969 7.27070312 15.21585938 6.34765625 15.23046875 C4 15 4 15 2 13 C-3.54235245 12.42765564 -3.54235245 12.42765564 -8.5 14.5 C-10.71177972 18.18629954 -10.34421275 20.73176192 -10 25 C-9.67 25.66 -9.34 26.32 -9 27 C-11.97 27 -14.94 27 -18 27 C-18 24.36 -18 21.72 -18 19 C-19.32 18.67 -20.64 18.34 -22 18 C-21.51421457 14.87709365 -21.0013988 12.00419641 -20 9 C-18.906875 9.226875 -17.81375 9.45375 -16.6875 9.6875 C-13.17871443 10.33441419 -13.17871443 10.33441419 -11.125 8.9375 C-9.62467313 6.35360372 -9.32735528 3.94619748 -9 1 C-5.94152152 0.45627049 -3.11227195 0 0 0 Z " fill="#E9EBF1" transform="translate(105,18)"/>
<path d="M0 0 C2.95839355 -0.02689449 5.91654427 -0.04678741 8.875 -0.0625 C9.71675781 -0.07087891 10.55851562 -0.07925781 11.42578125 -0.08789062 C12.23144531 -0.09111328 13.03710938 -0.09433594 13.8671875 -0.09765625 C14.98262939 -0.10551147 14.98262939 -0.10551147 16.12060547 -0.11352539 C18 0 18 0 20 1 C20 4 20 7 20 10 C20.33 10.33 20.66 10.66 21 11 C21.08713831 12.70772358 21.10700007 14.41898649 21.09765625 16.12890625 C21.09443359 17.16337891 21.09121094 18.19785156 21.08789062 19.26367188 C21.07951172 20.35228516 21.07113281 21.44089844 21.0625 22.5625 C21.05798828 23.65498047 21.05347656 24.74746094 21.04882812 25.87304688 C21.03699826 28.58208495 21.02051543 31.29101599 21 34 C23.31 34 25.62 34 28 34 C28.33 34.99 28.66 35.98 29 37 C20.19039858 38.30512614 11.80960142 38.30512614 3 37 C3.33 36.01 3.66 35.02 4 34 C8.29 34 12.58 34 17 34 C17 27.4 17 20.8 17 14 C13.7 14 10.4 14 7 14 C7 11.03 7 8.06 7 5 C4.69 5 2.38 5 0 5 C0 3.35 0 1.7 0 0 Z " fill="#38C5D2" transform="translate(98,49)"/>
<path d="M0 0 C1.98 0 3.96 0 6 0 C6.33 0.66 6.66 1.32 7 2 C15.25 2 23.5 2 32 2 C32.33 1.34 32.66 0.68 33 0 C35.64 0 38.28 0 41 0 C40.34 0.33 39.68 0.66 39 1 C39 1.66 39 2.32 39 3 C38.34 3 37.68 3 37 3 C37.66 4.65 38.32 6.3 39 8 C38.34 8.33 37.68 8.66 37 9 C37 9.66 37 10.32 37 11 C31.89136104 11.0246501 26.78275641 11.04283607 21.67407227 11.05493164 C19.93480832 11.05997204 18.19554864 11.0668043 16.45629883 11.07543945 C13.96174063 11.08751792 11.46723827 11.09323108 8.97265625 11.09765625 C8.19036148 11.10281754 7.40806671 11.10797882 6.60206604 11.11329651 C4.73432886 11.11349226 2.86670796 11.06199694 1 11 C0 10 0 10 -0.09765625 7.71484375 C-0.08605469 6.79832031 -0.07445313 5.88179688 -0.0625 4.9375 C-0.05347656 4.01839844 -0.04445313 3.09929687 -0.03515625 2.15234375 C-0.02355469 1.44207031 -0.01195313 0.73179688 0 0 Z " fill="#C5DCFE" transform="translate(27,102)"/>
<path d="M0 0 C1.58206422 0.00574487 3.16410406 0.01876032 4.74609375 0.03515625 C7.53046875 0.05578125 10.31484375 0.07640625 13.18359375 0.09765625 C13.18359375 6.03765625 13.18359375 11.97765625 13.18359375 18.09765625 C10.39921875 18.11828125 7.61484375 18.13890625 4.74609375 18.16015625 C3.86767822 18.16926025 2.9892627 18.17836426 2.08422852 18.18774414 C0.11713401 18.19488716 -1.84994246 18.14797518 -3.81640625 18.09765625 C-5.63756628 16.27649622 -4.94875705 13.79093861 -4.953125 11.37109375 C-4.94925781 10.62085937 -4.94539063 9.870625 -4.94140625 9.09765625 C-4.94527344 8.34742187 -4.94914062 7.5971875 -4.953125 6.82421875 C-4.94103514 0.12643386 -4.94103514 0.12643386 0 0 Z " fill="#99E4F0" transform="translate(109.81640625,95.90234375)"/>
<path d="M0 0 C5.61 0 11.22 0 17 0 C17 5.61 17 11.22 17 17 C11.39 17 5.78 17 0 17 C0 11.39 0 5.78 0 0 Z " fill="#3E4E9A" transform="translate(15,34)"/>
<path d="M0 0 C2.31 0 4.62 0 7 0 C7 7.92 7 15.84 7 24 C6.67 24 6.34 24 6 24 C5.34 25.98 4.68 27.96 4 30 C3.01 30 2.02 30 1 30 C0.67 23.4 0.34 16.8 0 10 C-2.64 10 -5.28 10 -8 10 C-8 8.02 -8 6.04 -8 4 C-5.36 4 -2.72 4 0 4 C0 2.68 0 1.36 0 0 Z " fill="#5A38FF" transform="translate(34,49)"/>
<path d="M0 0 C2.625 0.25 2.625 0.25 4.4375 1.625 C5.625 3.25 5.625 3.25 5.625 5.25 C7.275 5.25 8.925 5.25 10.625 5.25 C11.285 6.57 11.945 7.89 12.625 9.25 C9.325 9.58 6.025 9.91 2.625 10.25 C2.625 13.22 2.625 16.19 2.625 19.25 C3.615 19.58 4.605 19.91 5.625 20.25 C4.635 21.24 3.645 22.23 2.625 23.25 C-1.25 21.5 -1.25 21.5 -2.375 19.25 C-1.715 19.25 -1.055 19.25 -0.375 19.25 C-0.375 16.94 -0.375 14.63 -0.375 12.25 C-6.975 11.92 -13.575 11.59 -20.375 11.25 C-20.375 10.59 -20.375 9.93 -20.375 9.25 C-17.405 9.25 -14.435 9.25 -11.375 9.25 C-11.045 7.93 -10.715 6.61 -10.375 5.25 C-8.725 5.25 -7.075 5.25 -5.375 5.25 C-5.065625 4.610625 -4.75625 3.97125 -4.4375 3.3125 C-2.88764755 0.3039629 -2.88764755 0.3039629 0 0 Z " fill="#82D9E1" transform="translate(118.375,37.75)"/>
<path d="M0 0 C13.53 0 27.06 0 41 0 C41 1.65 41 3.3 41 5 C27.47 5 13.94 5 0 5 C0 3.35 0 1.7 0 0 Z " fill="#3C3D89" transform="translate(60,97)"/>
<path d="M0 0 C0.8971875 0.5259375 0.8971875 0.5259375 1.8125 1.0625 C1.585625 1.805 1.35875 2.5475 1.125 3.3125 C0.51773302 6.12164993 0.51773302 6.12164993 2.25 8.375 C2.765625 8.931875 3.28125 9.48875 3.8125 10.0625 C3.125 12 3.125 12 1.8125 14.0625 C-0.8125 14.8125 -0.8125 14.8125 -3.1875 15.0625 C-3.5175 16.3825 -3.8475 17.7025 -4.1875 19.0625 C-5.8375 19.0625 -7.4875 19.0625 -9.1875 19.0625 C-9.1875 18.0725 -9.1875 17.0825 -9.1875 16.0625 C-11.4975 16.3925 -13.8075 16.7225 -16.1875 17.0625 C-18.02441257 13.28062119 -18.34587626 11.11681692 -17.1875 7.0625 C-17.8475 7.0625 -18.5075 7.0625 -19.1875 7.0625 C-19.1875 5.7425 -19.1875 4.4225 -19.1875 3.0625 C-16.5475 3.0625 -13.9075 3.0625 -11.1875 3.0625 C-11.39375 4.17625 -11.6 5.29 -11.8125 6.4375 C-11.998125 8.231875 -11.998125 8.231875 -12.1875 10.0625 C-10.28994856 12.41223818 -10.28994856 12.41223818 -7.0625 12.1875 C-5.639375 12.125625 -5.639375 12.125625 -4.1875 12.0625 C-3.89187633 6.74079506 -3.89187633 6.74079506 -6.1875 2.0625 C-4.66896708 -0.97456585 -3.05066334 -1.30742714 0 0 Z " fill="#EAEBF2" transform="translate(140.1875,59.9375)"/>
<path d="M0 0 C2.64 0 5.28 0 8 0 C8 6.93 8 13.86 8 21 C1.07 21 -5.86 21 -13 21 C-13 20.01 -13 19.02 -13 18 C-11.73542969 17.94392578 -11.73542969 17.94392578 -10.4453125 17.88671875 C-8.80175781 17.78810547 -8.80175781 17.78810547 -7.125 17.6875 C-6.03445312 17.62949219 -4.94390625 17.57148437 -3.8203125 17.51171875 C-2.88960937 17.34285156 -1.95890625 17.17398438 -1 17 C-0.34 16.01 0.32 15.02 1 14 C1.99 14 2.98 14 4 14 C3.67 11.69 3.34 9.38 3 7 C2.01 6.67 1.02 6.34 0 6 C0 4.02 0 2.04 0 0 Z " fill="#35DBC5" transform="translate(26,59)"/>
<path d="M0 0 C0.83265381 0.00523682 1.66530762 0.01047363 2.52319336 0.01586914 C3.42231445 0.0190918 4.32143555 0.02231445 5.24780273 0.02563477 C6.66609375 0.03820313 6.66609375 0.03820313 8.11303711 0.05102539 C9.06243164 0.05553711 10.01182617 0.06004883 10.98999023 0.06469727 C13.34356776 0.07652429 15.69702188 0.09300514 18.05053711 0.11352539 C18.38053711 1.10352539 18.71053711 2.09352539 19.05053711 3.11352539 C18.06053711 3.44352539 17.07053711 3.77352539 16.05053711 4.11352539 C16.05053711 5.10352539 16.05053711 6.09352539 16.05053711 7.11352539 C17.04053711 7.44352539 18.03053711 7.77352539 19.05053711 8.11352539 C19.38053711 8.77352539 19.71053711 9.43352539 20.05053711 10.11352539 C18.73053711 10.11352539 17.41053711 10.11352539 16.05053711 10.11352539 C15.57616211 9.45352539 15.10178711 8.79352539 14.61303711 8.11352539 C13.2037231 5.8616363 13.2037231 5.8616363 10.55053711 5.61352539 C7.30934221 6.26176437 6.94351587 7.5106796 5.05053711 10.11352539 C2.36303711 10.86352539 2.36303711 10.86352539 0.05053711 11.11352539 C-0.27946289 12.10352539 -0.60946289 13.09352539 -0.94946289 14.11352539 C-1.60946289 14.11352539 -2.26946289 14.11352539 -2.94946289 14.11352539 C-2.97632227 11.96775903 -2.99579377 9.82189894 -3.01196289 7.67602539 C-3.02356445 6.48106445 -3.03516602 5.28610352 -3.04711914 4.05493164 C-2.9181352 0.16993524 -2.9181352 0.16993524 0 0 Z " fill="#40D0DB" transform="translate(107.949462890625,32.886474609375)"/>
<path d="M0 0 C1.32 0 2.64 0 4 0 C4 6.6 4 13.2 4 20 C6.31 20 8.62 20 11 20 C11.33 20.99 11.66 21.98 12 23 C3.19039858 24.30512614 -5.19039858 24.30512614 -14 23 C-13.505 21.515 -13.505 21.515 -13 20 C-8.71 20 -4.42 20 0 20 C0 13.4 0 6.8 0 0 Z " fill="#4C4CA1" transform="translate(115,63)"/>
<path d="M0 0 C2.64 0 5.28 0 8 0 C7.01 0.495 7.01 0.495 6 1 C6 1.66 6 2.32 6 3 C5.34 3 4.68 3 4 3 C4.66 4.65 5.32 6.3 6 8 C5.01 8.495 5.01 8.495 4 9 C4 9.66 4 10.32 4 11 C-3.26 11 -10.52 11 -18 11 C-18 10.01 -18 9.02 -18 8 C-14.68885166 6.87119943 -11.41021743 5.78697325 -8 5 C-8 4.34 -8 3.68 -8 3 C-6.865625 2.87625 -5.73125 2.7525 -4.5625 2.625 C-3.386875 2.41875 -2.21125 2.2125 -1 2 C-0.67 1.34 -0.34 0.68 0 0 Z " fill="#BBD5FE" transform="translate(60,102)"/>
<path d="M0 0 C1.31871094 -0.01224609 2.63742188 -0.02449219 3.99609375 -0.03710938 C5.90068359 -0.04000977 5.90068359 -0.04000977 7.84375 -0.04296875 C9.00068359 -0.04707764 10.15761719 -0.05118652 11.34960938 -0.05541992 C14.47736509 0.18575467 16.680892 0.85423629 19.5 2.1875 C18.5 4.1875 18.5 4.1875 16.84521484 4.80200195 C11.99200924 5.59975457 7.04404055 5.37340312 2.13769531 5.37280273 C0.13863013 5.37498512 -1.86039532 5.39349143 -3.859375 5.41210938 C-5.13039063 5.41404297 -6.40140625 5.41597656 -7.7109375 5.41796875 C-8.86899902 5.42207764 -10.02706055 5.42618652 -11.22021484 5.43041992 C-14.61310954 5.17912245 -17.33332989 4.39923908 -20.5 3.1875 C-20.17 2.5275 -19.84 1.8675 -19.5 1.1875 C-13.23640183 -0.60566158 -6.45139424 0.00315317 0 0 Z " fill="#EAEBF2" transform="translate(114.5,125.8125)"/>
<path d="M0 0 C0.99 0 1.98 0 3 0 C3.02505615 0.87325928 3.0501123 1.74651855 3.07592773 2.64624023 C3.17087709 5.87602552 3.27012029 9.10564154 3.37231445 12.33520508 C3.41571434 13.73489199 3.45738564 15.13463359 3.49731445 16.53442383 C3.55489445 18.54261495 3.61914 20.55061149 3.68359375 22.55859375 C3.72025146 23.76829834 3.75690918 24.97800293 3.79467773 26.22436523 C3.68938266 28.90705456 3.68938266 28.90705456 5 30 C6.56448383 30.12263388 8.13432772 30.17779522 9.70336914 30.20532227 C11.20481224 30.2352401 11.20481224 30.2352401 12.73658752 30.26576233 C14.36937904 30.29083107 14.36937904 30.29083107 16.03515625 30.31640625 C17.14354355 30.33718735 18.25193085 30.35796844 19.39390564 30.37937927 C22.95003808 30.44499623 26.50624703 30.50381596 30.0625 30.5625 C32.46680493 30.60567368 34.87110199 30.64928758 37.27539062 30.69335938 C43.18351185 30.80068992 49.09170991 30.90243331 55 31 C55 31.33 55 31.66 55 32 C47.48863592 32.05057965 39.97731551 32.08568257 32.46582031 32.10986328 C29.90883747 32.11994038 27.35186621 32.13360226 24.79492188 32.15087891 C21.12627308 32.17505217 17.45777621 32.18646585 13.7890625 32.1953125 C12.0655809 32.21079636 12.0655809 32.21079636 10.30728149 32.22659302 C9.2463327 32.22674408 8.18538391 32.22689514 7.09228516 32.22705078 C6.15518707 32.231492 5.21808899 32.23593323 4.25259399 32.24050903 C2 32 2 32 0 30 C-0.22705078 27.01904297 -0.22705078 27.01904297 -0.1953125 23.2421875 C-0.1924826 22.57913605 -0.18965271 21.91608459 -0.18673706 21.23294067 C-0.17553435 19.11344417 -0.15043051 16.99436896 -0.125 14.875 C-0.11497028 13.43880818 -0.10584441 12.00260975 -0.09765625 10.56640625 C-0.075595 7.04413372 -0.04106494 3.52210797 0 0 Z " fill="#48A2E8" transform="translate(41,49)"/>
<path d="M0 0 C1.98 0 3.96 0 6 0 C6 6.27 6 12.54 6 19 C5.01 19.33 4.02 19.66 3 20 C2 19 2 19 1.90234375 16.93359375 C1.95117188 13.46679688 1.95117188 13.46679688 2 10 C-2.29 10 -6.58 10 -11 10 C-10.34 9.34 -9.68 8.68 -9 8 C-8.01 8 -7.02 8 -6 8 C-6.33 7.01 -6.66 6.02 -7 5 C-5 3 -5 3 -2.9375 2.5 C-2.298125 2.335 -1.65875 2.17 -1 2 C-0.67 1.34 -0.34 0.68 0 0 Z " fill="#645AFE" transform="translate(121,86)"/>
<path d="M0 0 C0 5.61 0 11.22 0 17 C0.99 17 1.98 17 3 17 C3 18.65 3 20.3 3 22 C0.69 22 -1.62 22 -4 22 C-4 15.73 -4 9.46 -4 3 C-10.27 3 -16.54 3 -23 3 C-23 2.34 -23 1.68 -23 1 C-19.91675903 0.83159521 -16.83339379 0.66558138 -13.75 0.5 C-12.87730469 0.45230469 -12.00460938 0.40460938 -11.10546875 0.35546875 C-10.26113281 0.31035156 -9.41679687 0.26523438 -8.546875 0.21875 C-7.38430176 0.1559082 -7.38430176 0.1559082 -6.19824219 0.09179688 C-4.13373418 0.00558463 -2.0663073 0 0 0 Z " fill="#6E72A9" transform="translate(30,80)"/>
<path d="M0 0 C1.58206422 0.00574487 3.16410406 0.01876032 4.74609375 0.03515625 C7.53046875 0.05578125 10.31484375 0.07640625 13.18359375 0.09765625 C13.18359375 6.03765625 13.18359375 11.97765625 13.18359375 18.09765625 C10.39921875 18.11828125 7.61484375 18.13890625 4.74609375 18.16015625 C3.86767822 18.16926025 2.9892627 18.17836426 2.08422852 18.18774414 C0.11713401 18.19488716 -1.84994246 18.14797518 -3.81640625 18.09765625 C-5.63756628 16.27649622 -4.94875705 13.79093861 -4.953125 11.37109375 C-4.94925781 10.62085937 -4.94539063 9.870625 -4.94140625 9.09765625 C-4.94527344 8.34742187 -4.94914062 7.5971875 -4.953125 6.82421875 C-4.94103514 0.12643386 -4.94103514 0.12643386 0 0 Z M-1.25390625 3.66015625 C-3.42036653 7.03983429 -3.37928627 9.15749612 -2.81640625 13.09765625 C-1.33647469 15.66104314 -1.33647469 15.66104314 1.18359375 17.09765625 C4.14051084 17.8478082 4.14051084 17.8478082 7.18359375 17.09765625 C10.54703864 14.61163176 11.98417124 13.18340102 12.74609375 9.03515625 C12.3684543 6.04873369 12.3684543 6.04873369 10.62109375 3.72265625 C6.53362403 0.99767644 2.87655597 1.01242406 -1.25390625 3.66015625 Z " fill="#46B5F4" transform="translate(109.81640625,95.90234375)"/>
<path d="M0 0 C0.66 0 1.32 0 2 0 C2.02685095 2.47923801 2.04676547 4.9581884 2.0625 7.4375 C2.07087891 8.14455078 2.07925781 8.85160156 2.08789062 9.58007812 C2.09653588 11.38693559 2.05220011 13.19387603 2 15 C1 16 1 16 -1.94140625 16.09765625 C-3.13636719 16.08605469 -4.33132812 16.07445313 -5.5625 16.0625 C-7.35880859 16.04896484 -7.35880859 16.04896484 -9.19140625 16.03515625 C-10.11824219 16.02355469 -11.04507813 16.01195313 -12 16 C-12.33 15.34 -12.66 14.68 -13 14 C-12.34 14 -11.68 14 -11 14 C-11 12.02 -11 10.04 -11 8 C-9.35 8 -7.7 8 -6 8 C-5.67 8.66 -5.34 9.32 -5 10 C-2.41222792 6.94419026 -2.41222792 6.94419026 -2 3 C-1.34 2.01 -0.68 1.02 0 0 Z " fill="#38DBC5" transform="translate(58,89)"/>
<path d="M0 0 C1.5631897 0.00785522 1.5631897 0.00785522 3.15795898 0.01586914 C4.28266602 0.0190918 5.40737305 0.02231445 6.56616211 0.02563477 C7.75016602 0.03401367 8.93416992 0.04239258 10.15405273 0.05102539 C11.34192383 0.05553711 12.52979492 0.06004883 13.75366211 0.06469727 C16.69967499 0.07652864 19.64558954 0.09301252 22.59155273 0.11352539 C22.92155273 1.10352539 23.25155273 2.09352539 23.59155273 3.11352539 C22.93155273 3.11352539 22.27155273 3.11352539 21.59155273 3.11352539 C20.93155273 4.43352539 20.27155273 5.75352539 19.59155273 7.11352539 C17.1635989 6.16932112 14.81813309 5.23711468 12.52905273 3.98852539 C10.33829215 2.83913424 10.33829215 2.83913424 6.59155273 3.11352539 C4.84039544 4.53020009 4.84039544 4.53020009 3.59155273 6.11352539 C2.93155273 5.78352539 2.27155273 5.45352539 1.59155273 5.11352539 C1.13780273 5.60852539 0.68405273 6.10352539 0.21655273 6.61352539 C-1.40844727 8.11352539 -1.40844727 8.11352539 -3.40844727 8.11352539 C-3.4508645 5.78057764 -3.44937664 3.44649972 -3.40844727 1.11352539 C-2.40844727 0.11352539 -2.40844727 0.11352539 0 0 Z " fill="#3CC1D8" transform="translate(36.408447265625,85.886474609375)"/>
<path d="M0 0 C0.99 0 1.98 0 3 0 C3 0.66 3 1.32 3 2 C4.32 1.67 5.64 1.34 7 1 C9.29013653 4.4352048 9.17842973 5.985331 9 10 C8.01 10.33 7.02 10.66 6 11 C5.01 12.485 5.01 12.485 4 14 C3.34 14 2.68 14 2 14 C1.67 13.34 1.34 12.68 1 12 C-1.02463255 11.34786708 -1.02463255 11.34786708 -3 11 C-3.33 8.36 -3.66 5.72 -4 3 C-2.68 3 -1.36 3 0 3 C0 2.01 0 1.02 0 0 Z " fill="#EDF8FB" transform="translate(21,63)"/>
<path d="M0 0 C2.31 0 4.62 0 7 0 C7 2.97 7 5.94 7 9 C7.99 9 8.98 9 10 9 C9.67 10.32 9.34 11.64 9 13 C8.13375 13.12375 8.13375 13.12375 7.25 13.25 C4.3840696 14.20531013 3.0009236 15.78469173 1 18 C0 17 0 17 -0.09765625 13.18359375 C-0.09098089 11.60153318 -0.07901875 10.01948841 -0.0625 8.4375 C-0.05798828 7.63119141 -0.05347656 6.82488281 -0.04882812 5.99414062 C-0.03700518 3.99606244 -0.01906914 1.99802217 0 0 Z " fill="#6C75FE" transform="translate(98,54)"/>
<path d="M0 0 C1.67542976 0.28604898 3.34385343 0.61781233 5 1 C4.34 2.32 3.68 3.64 3 5 C4.918125 4.9690625 4.918125 4.9690625 6.875 4.9375 C11.96207017 4.92941245 16.9516147 5.40979211 22 6 C22 6.66 22 7.32 22 8 C10.12 8 -1.76 8 -14 8 C-14.33 7.34 -14.66 6.68 -15 6 C-13.63875 6.0309375 -13.63875 6.0309375 -12.25 6.0625 C-9.15743185 6.13158993 -9.15743185 6.13158993 -6.875 5.4375 C-4.6142431 4.90999006 -3.18484708 5.29772772 -1 6 C-1.020625 5.195625 -1.04125 4.39125 -1.0625 3.5625 C-1 1 -1 1 0 0 Z " fill="#96BEFE" transform="translate(72,113)"/>
<path d="M0 0 C2.625 0.25 2.625 0.25 4.4375 1.625 C5.625 3.25 5.625 3.25 5.625 5.25 C7.275 5.25 8.925 5.25 10.625 5.25 C10.955 6.24 11.285 7.23 11.625 8.25 C4.365 8.25 -2.895 8.25 -10.375 8.25 C-10.375 7.26 -10.375 6.27 -10.375 5.25 C-8.725 5.25 -7.075 5.25 -5.375 5.25 C-5.065625 4.610625 -4.75625 3.97125 -4.4375 3.3125 C-2.88764755 0.3039629 -2.88764755 0.3039629 0 0 Z " fill="#FAFDFD" transform="translate(118.375,37.75)"/>
<path d="M0 0 C2.95839355 -0.02689449 5.91654427 -0.04678741 8.875 -0.0625 C9.71675781 -0.07087891 10.55851562 -0.07925781 11.42578125 -0.08789062 C12.23144531 -0.09111328 13.03710938 -0.09433594 13.8671875 -0.09765625 C14.98262939 -0.10551147 14.98262939 -0.10551147 16.12060547 -0.11352539 C18 0 18 0 20 1 C20 3.31 20 5.62 20 8 C19.01 8 18.02 8 17 8 C17 7.01 17 6.02 17 5 C11.39 5 5.78 5 0 5 C0 3.35 0 1.7 0 0 Z " fill="#34B0C6" transform="translate(98,49)"/>
<path d="M0 0 C0.66 0 1.32 0 2 0 C2.33 2.31 2.66 4.62 3 7 C5.97 7.33 8.94 7.66 12 8 C11.01 8.495 11.01 8.495 10 9 C10 9.66 10 10.32 10 11 C10.66 11 11.32 11 12 11 C12 11.66 12 12.32 12 13 C10.35 13.33 8.7 13.66 7 14 C7 14.66 7 15.32 7 16 C4.66666667 16 2.33333333 16 0 16 C-0.33 16.66 -0.66 17.32 -1 18 C-1.02717692 15.93757383 -1.0464758 13.87504297 -1.0625 11.8125 C-1.07410156 10.66394531 -1.08570312 9.51539062 -1.09765625 8.33203125 C-1.01192832 5.40699414 -0.67849023 2.83683709 0 0 Z " fill="#6B70FE" transform="translate(103,106)"/>
<path d="M0 0 C6.15234375 -0.09765625 6.15234375 -0.09765625 8 0 C9 1 9 1 9.25 4.375 C9 8 9 8 7.75 10 C6 11 6 11 4 10.8125 C2 10 2 10 -1 8 C-1.8125 6 -1.8125 6 -2 4 C-1.34 3.34 -0.68 2.68 0 2 C0 1.34 0 0.68 0 0 Z " fill="#34D3D2" transform="translate(126,33)"/>
<path d="M0 0 C1.32 0 2.64 0 4 0 C4 6.6 4 13.2 4 20 C2.68 19.67 1.36 19.34 0 19 C0 12.73 0 6.46 0 0 Z " fill="#3E3E8B" transform="translate(115,63)"/>
<path d="M0 0 C4.29 0 8.58 0 13 0 C11.6875 3.4375 11.6875 3.4375 10 7 C9.01 7.33 8.02 7.66 7 8 C6.67 7.34 6.34 6.68 6 6 C2.95418731 5.53045739 2.95418731 5.53045739 -0.5625 5.375 C-1.76003906 5.30023438 -2.95757812 5.22546875 -4.19140625 5.1484375 C-5.11824219 5.09945312 -6.04507813 5.05046875 -7 5 C-6.34 4.34 -5.68 3.68 -5 3 C-3.68 3 -2.36 3 -1 3 C-0.67 2.01 -0.34 1.02 0 0 Z " fill="#6660FE" transform="translate(53,81)"/>
<path d="M0 0 C8.58 0 17.16 0 26 0 C25.67 0.99 25.34 1.98 25 3 C17.08 3 9.16 3 1 3 C0.67 2.01 0.34 1.02 0 0 Z " fill="#4C4CA0" transform="translate(101,124)"/>
<path d="M0 0 C6.27 0 12.54 0 19 0 C19 2.31 19 4.62 19 7 C18.34 7 17.68 7 17 7 C17 6.34 17 5.68 17 5 C13.37 5 9.74 5 6 5 C6 4.01 6 3.02 6 2 C3.03 1.505 3.03 1.505 0 1 C0 0.67 0 0.34 0 0 Z " fill="#81DAE3" transform="translate(7,58)"/>
<path d="M0 0 C2.64 0 5.28 0 8 0 C8 3.63 8 7.26 8 11 C6.35 11 4.7 11 3 11 C2.67 9.35 2.34 7.7 2 6 C1.34 6 0.68 6 0 6 C0 4.02 0 2.04 0 0 Z " fill="#3AC2D4" transform="translate(26,59)"/>
<path d="M0 0 C11.55 0 23.1 0 35 0 C35 0.66 35 1.32 35 2 C26.75 2 18.5 2 10 2 C10 2.66 10 3.32 10 4 C9.01 4 8.02 4 7 4 C7 3.34 7 2.68 7 2 C4.69 2 2.38 2 0 2 C0 1.34 0 0.68 0 0 Z " fill="#6BD3E3" transform="translate(34,45)"/>
<path d="M0 0 C1.67542976 0.28604898 3.34385343 0.61781233 5 1 C5.75 3.75 5.75 3.75 6 7 C4.125 9.1875 4.125 9.1875 2 11 C1.67 11.99 1.34 12.98 1 14 C0.34 14 -0.32 14 -1 14 C-1.02685938 11.85423363 -1.04633088 9.70837355 -1.0625 7.5625 C-1.07410156 6.36753906 -1.08570312 5.17257813 -1.09765625 3.94140625 C-1 1 -1 1 0 0 Z " fill="#31C6DF" transform="translate(106,33)"/>
<path d="M0 0 C0.99 0.33 1.98 0.66 3 1 C2.88490339 2.41750563 2.75746342 3.83401169 2.625 5.25 C2.55539063 6.03890625 2.48578125 6.8278125 2.4140625 7.640625 C2 10 2 10 0 14 C-3.96 14 -7.92 14 -12 14 C-12.33 13.01 -12.66 12.02 -13 11 C-7.555 10.505 -7.555 10.505 -2 10 C-1.855625 8.906875 -1.71125 7.81375 -1.5625 6.6875 C-1 3 -1 3 0 0 Z " fill="#4FD3D8" transform="translate(46,91)"/>
<path d="M0 0 C2.31 0 4.62 0 7 0 C7 1.65 7 3.3 7 5 C3.37 5 -0.26 5 -4 5 C-4 6.65 -4 8.3 -4 10 C-5.32 10 -6.64 10 -8 10 C-8 8.02 -8 6.04 -8 4 C-5.36 4 -2.72 4 0 4 C0 2.68 0 1.36 0 0 Z " fill="#3D418D" transform="translate(34,49)"/>
<path d="M0 0 C9.24 0 18.48 0 28 0 C28.33 1.32 28.66 2.64 29 4 C28.01 4 27.02 4 26 4 C26 3.34 26 2.68 26 2 C17.42 2 8.84 2 0 2 C0 1.34 0 0.68 0 0 Z " fill="#34D2D2" transform="translate(69,45)"/>
<path d="M0 0 C1.24716797 0.00322266 2.49433594 0.00644531 3.77929688 0.00976562 C5.07287109 0.01814453 6.36644531 0.02652344 7.69921875 0.03515625 C9.66858398 0.04192383 9.66858398 0.04192383 11.67773438 0.04882812 C14.91410885 0.06059676 18.15039053 0.07703865 21.38671875 0.09765625 C21.05671875 0.75765625 20.72671875 1.41765625 20.38671875 2.09765625 C19.73074707 2.11747559 19.07477539 2.13729492 18.39892578 2.15771484 C15.43610806 2.25278132 12.47401343 2.36253377 9.51171875 2.47265625 C7.96291016 2.5190625 7.96291016 2.5190625 6.3828125 2.56640625 C4.90361328 2.62441406 4.90361328 2.62441406 3.39453125 2.68359375 C2.4833252 2.71501465 1.57211914 2.74643555 0.63330078 2.77880859 C-1.81259311 2.89648136 -1.81259311 2.89648136 -3.61328125 5.09765625 C-6.34197532 5.06478042 -8.90994305 4.53367854 -11.61328125 4.09765625 C-11.61328125 3.10765625 -11.61328125 2.11765625 -11.61328125 1.09765625 C-7.68039761 0.16677716 -4.03673962 -0.0184326 0 0 Z " fill="#D9D9E8" transform="translate(106.61328125,125.90234375)"/>
<path d="M0 0 C3.375 -0.1875 3.375 -0.1875 7 0 C7.66 0.99 8.32 1.98 9 3 C7.71034824 4.37562854 6.37310707 5.70766393 5 7 C4.34 7 3.68 7 3 7 C3 7.66 3 8.32 3 9 C2.01 9.33 1.02 9.66 0 10 C0 6.7 0 3.4 0 0 Z " fill="#5935FF" transform="translate(102,86)"/>
<path d="M0 0 C2.375 -0.1875 2.375 -0.1875 5 0 C5.66 0.99 6.32 1.98 7 3 C7.99 3.33 8.98 3.66 10 4 C9.67 4.66 9.34 5.32 9 6 C4.05 6 -0.9 6 -6 6 C-6 5.34 -6 4.68 -6 4 C-4.02 4 -2.04 4 0 4 C0 2.68 0 1.36 0 0 Z " fill="#8BDAE4" transform="translate(13,71)"/>
<path d="M0 0 C1.23556641 0.01740234 1.23556641 0.01740234 2.49609375 0.03515625 C3.32238281 0.04417969 4.14867187 0.05320312 5 0.0625 C5.63808594 0.07410156 6.27617188 0.08570312 6.93359375 0.09765625 C6.60359375 1.74765625 6.27359375 3.39765625 5.93359375 5.09765625 C2.93359375 6.09765625 2.93359375 6.09765625 -0.06640625 6.09765625 C-0.39640625 6.75765625 -0.72640625 7.41765625 -1.06640625 8.09765625 C-1.72640625 8.09765625 -2.38640625 8.09765625 -3.06640625 8.09765625 C-3.10882348 5.7647085 -3.10733562 3.43063058 -3.06640625 1.09765625 C-2.06640625 0.09765625 -2.06640625 0.09765625 0 0 Z " fill="#4796EB" transform="translate(36.06640625,85.90234375)"/>
<path d="M0 0 C2.375 -0.125 2.375 -0.125 5 0 C5.66 0.66 6.32 1.32 7 2 C7.33 1.34 7.66 0.68 8 0 C8.99 0 9.98 0 11 0 C11 1.32 11 2.64 11 4 C11.66 4.33 12.32 4.66 13 5 C8.71 5 4.42 5 0 5 C0 3.35 0 1.7 0 0 Z " fill="#38B0C7" transform="translate(33,97)"/>
<path d="M0 0 C2.64 0 5.28 0 8 0 C8.3125 2.1875 8.3125 2.1875 8 5 C5.75 7.875 5.75 7.875 3 10 C0.6875 9.8125 0.6875 9.8125 -1 9 C-0.34 9 0.32 9 1 9 C0.67 6.03 0.34 3.06 0 0 Z " fill="#71D5E4" transform="translate(110,33)"/>
<path d="M0 0 C0.33 0 0.66 0 1 0 C1 4.95 1 9.9 1 15 C-4.61 15 -10.22 15 -16 15 C-16 14.34 -16 13.68 -16 13 C-15.25234375 13.04640625 -14.5046875 13.0928125 -13.734375 13.140625 C-7.78198457 13.45936352 -7.78198457 13.45936352 -2.3125 11.5 C-0.4070418 7.8705558 -0.79950612 5.07670881 -1 1 C-0.67 0.67 -0.34 0.34 0 0 Z " fill="#3BD9CF" transform="translate(122,99)"/>
<path d="M0 0 C0.66 0.33 1.32 0.66 2 1 C2 4.63 2 8.26 2 12 C1.01 12.33 0.02 12.66 -1 13 C-2.57960269 11.42039731 -2.16986544 9.80463184 -2.1875 7.625 C-2.20167969 6.83351563 -2.21585937 6.04203125 -2.23046875 5.2265625 C-2 3 -2 3 0 0 Z " fill="#6C71FE" transform="translate(125,93)"/>
<path d="M0 0 C2.05078125 0.03255208 4.1015625 0.06510417 6.15234375 0.09765625 C5.82234375 1.08765625 5.49234375 2.07765625 5.15234375 3.09765625 C3.83234375 3.09765625 2.51234375 3.09765625 1.15234375 3.09765625 C1.21421875 3.88140625 1.27609375 4.66515625 1.33984375 5.47265625 C1.27796875 6.33890625 1.21609375 7.20515625 1.15234375 8.09765625 C0.16234375 8.75765625 -0.82765625 9.41765625 -1.84765625 10.09765625 C-2.04177806 8.61934404 -2.22777756 7.13996309 -2.41015625 5.66015625 C-2.51457031 4.83644531 -2.61898437 4.01273438 -2.7265625 3.1640625 C-2.76652344 2.48214844 -2.80648437 1.80023438 -2.84765625 1.09765625 C-1.84765625 0.09765625 -1.84765625 0.09765625 0 0 Z " fill="#3CD6D0" transform="translate(122.84765625,46.90234375)"/>
<path d="M0 0 C3.3 0 6.6 0 10 0 C9 2 9 2 6.5 2.875 C5.675 3.24625 4.85 3.6175 4 4 C3.34786708 6.02463255 3.34786708 6.02463255 3 8 C2.01 8.33 1.02 8.66 0 9 C0 6.03 0 3.06 0 0 Z " fill="#3EBBDD" transform="translate(105,54)"/>
<path d="M0 0 C0.33 0.66 0.66 1.32 1 2 C1.66 2 2.32 2 3 2 C3 2.99 3 3.98 3 5 C2.01 5.33 1.02 5.66 0 6 C-0.99 7.485 -0.99 7.485 -2 9 C-2.66 9 -3.32 9 -4 9 C-4.33 8.34 -4.66 7.68 -5 7 C-7.02463255 6.34786708 -7.02463255 6.34786708 -9 6 C-8.34 4.68 -7.68 3.36 -7 2 C-6.34 2.66 -5.68 3.32 -5 4 C-2.90708843 3.91428339 -2.90708843 3.91428339 -1 3 C-0.67 2.01 -0.34 1.02 0 0 Z " fill="#F6FCFD" transform="translate(27,68)"/>
<path d="M0 0 C0.33 0 0.66 0 1 0 C1.36 5.4 1.36 5.4 -0.125 7.875 C-2.78034983 9.4682099 -4.96789518 9.20214032 -8 9 C-8.33 8.34 -8.66 7.68 -9 7 C-7.88625 6.6596875 -7.88625 6.6596875 -6.75 6.3125 C-3.48914416 4.75618244 -2.11850413 2.87511275 0 0 Z " fill="#42D8DA" transform="translate(119,102)"/>
<path d="M0 0 C-1 3 -1 3 -3 5 C-5.33333333 5 -7.66666667 5 -10 5 C-12.35369807 5.88064927 -12.35369807 5.88064927 -14 7 C-13.505 6.195625 -13.01 5.39125 -12.5 4.5625 C-10.91580347 2.35103815 -10.91580347 2.35103815 -11 1 C-9.54182203 0.83197949 -8.0834516 0.66562857 -6.625 0.5 C-5.81289062 0.4071875 -5.00078125 0.314375 -4.1640625 0.21875 C-2 0 -2 0 0 0 Z " fill="#5D47F9" transform="translate(121,86)"/>
<path d="M0 0 C1.85776765 3.13498292 2.20140476 5.37471432 2 9 C-0.31 8.34 -2.62 7.68 -5 7 C-5 4 -5 4 -3 2 C-2.01 1.34 -1.02 0.68 0 0 Z " fill="#8DCCEE" transform="translate(38,90)"/>
<path d="M0 0 C2.31 0 4.62 0 7 0 C7 1.65 7 3.3 7 5 C4.69 5 2.38 5 0 5 C0 3.35 0 1.7 0 0 Z " fill="#3C3E8A" transform="translate(98,49)"/>
<path d="M0 0 C6.6 0 13.2 0 20 0 C20 0.99 20 1.98 20 3 C13.4 2.34 6.8 1.68 0 1 C0 0.67 0 0.34 0 0 Z " fill="#41D1D8" transform="translate(14,32)"/>
<path d="M0 0 C2.64 0 5.28 0 8 0 C7.67 1.32 7.34 2.64 7 4 C4.69 4.66 2.38 5.32 0 6 C0 4.02 0 2.04 0 0 Z " fill="#38AED0" transform="translate(26,59)"/>
<path d="M0 0 C2.03125 0.05078125 2.03125 0.05078125 4.5 0.3125 C5.3146875 0.39113281 6.129375 0.46976562 6.96875 0.55078125 C7.97421875 0.77314453 7.97421875 0.77314453 9 1 C9.33 1.66 9.66 2.32 10 3 C4.72 3 -0.56 3 -6 3 C-6.33 2.34 -6.66 1.68 -7 1 C-5.5459375 1.0309375 -5.5459375 1.0309375 -4.0625 1.0625 C-1.12534105 1.35618499 -1.12534105 1.35618499 0 0 Z " fill="#9AC0FE" transform="translate(64,118)"/>
<path d="M0 0 C0.99 0 1.98 0 3 0 C3 3.96 3 7.92 3 12 C2.01 11.67 1.02 11.34 0 11 C0 7.37 0 3.74 0 0 Z " fill="#3B95D7" transform="translate(41,49)"/>
<path d="M0 0 C-0.33 1.32 -0.66 2.64 -1 4 C-1.99 4 -2.98 4 -4 4 C-4.33 3.67 -4.66 3.34 -5 3 C-7.67058851 2.85884839 -10.32432238 2.95752893 -13 3 C-13 2.34 -13 1.68 -13 1 C-8.60563789 0.14256349 -4.47427924 -0.08948558 0 0 Z " fill="#50CBE8" transform="translate(123,96)"/>
<path d="M0 0 C0.66 0 1.32 0 2 0 C2 1.65 2 3.3 2 5 C2.99 5.33 3.98 5.66 5 6 C4.01 6.99 3.02 7.98 2 9 C-1.875 7.25 -1.875 7.25 -3 5 C-2.01 5 -1.02 5 0 5 C0 3.35 0 1.7 0 0 Z " fill="#F5FCFD" transform="translate(119,52)"/>
<path d="M0 0 C3.63 0 7.26 0 11 0 C11.33 1.32 11.66 2.64 12 4 C11.01 4 10.02 4 9 4 C9 3.34 9 2.68 9 2 C5.7 2 2.4 2 -1 2 C-0.67 1.34 -0.34 0.68 0 0 Z " fill="#56D9D5" transform="translate(86,45)"/>
<path d="M0 0 C0.66 0 1.32 0 2 0 C2 2.64 2 5.28 2 8 C0.35 8.33 -1.3 8.66 -3 9 C-2.67 8.01 -2.34 7.02 -2 6 C-2 5.01 -2 4.02 -2 3 C-1.34 2.01 -0.68 1.02 0 0 Z " fill="#3FD2D1" transform="translate(58,89)"/>
<path d="M0 0 C3.3 0 6.6 0 10 0 C9.34 1.32 8.68 2.64 8 4 C5.36 3.67 2.72 3.34 0 3 C0 2.01 0 1.02 0 0 Z " fill="#40ADE1" transform="translate(43,86)"/>
<path d="M0 0 C2.97 0 5.94 0 9 0 C9.33 0.99 9.66 1.98 10 3 C6.7 3 3.4 3 0 3 C0 2.01 0 1.02 0 0 Z " fill="#33D3D1" transform="translate(13,77)"/>
<path d="M0 0 C2.0625 0.4375 2.0625 0.4375 4 1 C4 2.32 4 3.64 4 5 C2.68 5.33 1.36 5.66 0 6 C-0.38218767 4.34385343 -0.71395102 2.67542976 -1 1 C-0.67 0.67 -0.34 0.34 0 0 Z " fill="#4CCFDC" transform="translate(22,67)"/>
<path d="M0 0 C-0.66 0 -1.32 0 -2 0 C-1.67 1.98 -1.34 3.96 -1 6 C-1.66 6 -2.32 6 -3 6 C-3 5.34 -3 4.68 -3 4 C-4.65 4 -6.3 4 -8 4 C-7.1875 2.0625 -7.1875 2.0625 -6 0 C-3 -1 -3 -1 0 0 Z " fill="#44CFCE" transform="translate(33,73)"/>
<path d="M0 0 C0.99 0 1.98 0 3 0 C3 0.66 3 1.32 3 2 C4.65 2 6.3 2 8 2 C8.33 2.66 8.66 3.32 9 4 C5.7 4 2.4 4 -1 4 C-0.67 2.68 -0.34 1.36 0 0 Z " fill="#31C6DF" transform="translate(14,59)"/>
<path d="M0 0 C1.32 0 2.64 0 4 0 C3.67 2.31 3.34 4.62 3 7 C2.01 7 1.02 7 0 7 C0 4.69 0 2.38 0 0 Z " fill="#7183FE" transform="translate(123,105)"/>
<path d="M0 0 C-0.33 0.66 -0.66 1.32 -1 2 C-4.63 1.67 -8.26 1.34 -12 1 C-12 0.34 -12 -0.32 -12 -1 C-10.56465159 -1.2226746 -9.12654475 -1.42761906 -7.6875 -1.625 C-6.48673828 -1.79902344 -6.48673828 -1.79902344 -5.26171875 -1.9765625 C-3 -2 -3 -2 0 0 Z " fill="#A5DEEA" transform="translate(19,70)"/>
<path d="M0 0 C1.32 0 2.64 0 4 0 C4 2.64 4 5.28 4 8 C2.68 7.34 1.36 6.68 0 6 C0 4 0 2 0 0 Z " fill="#3BD7CC" transform="translate(30,70)"/>
<path d="M0 0 C9.41002278 -0.18451025 9.41002278 -0.18451025 14 1 C12.68 1.33 11.36 1.66 10 2 C10 2.66 10 3.32 10 4 C9.01 4 8.02 4 7 4 C7 3.34 7 2.68 7 2 C4.69 2 2.38 2 0 2 C0 1.34 0 0.68 0 0 Z " fill="#96D9E8" transform="translate(34,45)"/>
<path d="M0 0 C1.65 0 3.3 0 5 0 C4.67 1.65 4.34 3.3 4 5 C2.68 4.67 1.36 4.34 0 4 C0 2.68 0 1.36 0 0 Z " fill="#34C1C4" transform="translate(47,97)"/>
<path d="M0 0 C1.65 0 3.3 0 5 0 C5.33 1.65 5.66 3.3 6 5 C3.03 4.505 3.03 4.505 0 4 C0 2.68 0 1.36 0 0 Z " fill="#3ECEDC" transform="translate(13,71)"/>
<path d="M0 0 C0.66 0.66 1.32 1.32 2 2 C1.7578125 4.1640625 1.7578125 4.1640625 1.125 6.625 C0.92132813 7.44226563 0.71765625 8.25953125 0.5078125 9.1015625 C0.34023438 9.72804688 0.17265625 10.35453125 0 11 C-0.33 11 -0.66 11 -1 11 C-1.02688151 9.35425434 -1.04634123 7.70838587 -1.0625 6.0625 C-1.07410156 5.14597656 -1.08570313 4.22945312 -1.09765625 3.28515625 C-1 1 -1 1 0 0 Z " fill="#3E9BE9" transform="translate(42,59)"/>
<path d="M0 0 C0.66 0 1.32 0 2 0 C2.30466674 5.28089024 2.317124 6.577168 -1 11 C-0.67 7.37 -0.34 3.74 0 0 Z " fill="#655EFE" transform="translate(103,106)"/>
<path d="M0 0 C1.65 1.65 3.3 3.3 5 5 C3.35 6.32 1.7 7.64 0 9 C0.185625 8.2575 0.37125 7.515 0.5625 6.75 C0.99203108 4.05009037 0.85122974 2.55368923 0 0 Z " fill="#D7F4F6" transform="translate(52,91)"/>
<path d="M0 0 C0.99 0.33 1.98 0.66 3 1 C1.515 4.96 1.515 4.96 0 9 C-0.66 9 -1.32 9 -2 9 C-1.34 6.03 -0.68 3.06 0 0 Z " fill="#E1F5F7" transform="translate(46,91)"/>
<path d="M0 0 C0.99 1.32 1.98 2.64 3 4 C2 5 2 5 -1.0625 5.0625 C-2.5165625 5.0315625 -2.5165625 5.0315625 -4 5 C-3 2 -3 2 0 0 Z " fill="#42C7D9" transform="translate(51,92)"/>
<path d="M0 0 C0.33 0 0.66 0 1 0 C1.309375 0.94875 1.61875 1.8975 1.9375 2.875 C2.87394742 5.86080408 2.87394742 5.86080408 4 8 C2.35 8.33 0.7 8.66 -1 9 C-0.67 6.03 -0.34 3.06 0 0 Z " fill="#47CCE8" transform="translate(106,104)"/>
<path d="M0 0 C0.99 0.99 1.98 1.98 3 3 C2.01 4.485 2.01 4.485 1 6 C-0.98 5.01 -2.96 4.02 -5 3 C-2 1 -2 1 0 0 Z " fill="#E1F5F9" transform="translate(27,64)"/>
<path d="M0 0 C0.66 0.33 1.32 0.66 2 1 C0.68 2.65 -0.64 4.3 -2 6 C-3.65 5.67 -5.3 5.34 -7 5 C-6.67 4.34 -6.34 3.68 -6 3 C-4.66923011 2.65657551 -3.33568021 2.32380126 -2 2 C-1.34 1.34 -0.68 0.68 0 0 Z " fill="#CBF0F5" transform="translate(117,102)"/>
<path d="M0 0 C1.98 0 3.96 0 6 0 C6 0.99 6 1.98 6 3 C4.02 3 2.04 3 0 3 C0 2.01 0 1.02 0 0 Z " fill="#A1C1FF" transform="translate(83,81)"/>
<path d="M0 0 C2.31 0 4.62 0 7 0 C6.01 0.33 5.02 0.66 4 1 C3.67 1.99 3.34 2.98 3 4 C2.01 4 1.02 4 0 4 C0 2.68 0 1.36 0 0 Z " fill="#31C7DF" transform="translate(13,65)"/>
<path d="M0 0 C0 0.99 0 1.98 0 3 C-3 4 -3 4 -5.1875 3.0625 C-5.785625 2.711875 -6.38375 2.36125 -7 2 C-4 0 -4 0 0 0 Z " fill="#40A1E8" transform="translate(42,88)"/>
</svg>
