<?xml version="1.0" encoding="UTF-8"?>
<svg version="1.1" xmlns="http://www.w3.org/2000/svg" width="150" height="150">
<path d="M0 0 C4.455 0.99 4.455 0.99 9 2 C8.9071875 3.3921875 8.9071875 3.3921875 8.8125 4.8125 C8.74760199 7.90747504 8.74760199 7.90747504 10.125 9.875 C12.78034983 11.4682099 14.96789518 11.20214032 18 11 C18.495 12.98 18.495 12.98 19 15 C19.85464844 14.98839844 20.70929688 14.97679687 21.58984375 14.96484375 C22.69457031 14.95582031 23.79929687 14.94679688 24.9375 14.9375 C26.03964844 14.92589844 27.14179688 14.91429687 28.27734375 14.90234375 C31 15 31 15 32 16 C32.09676233 17.67233812 32.13200373 19.34832454 32.140625 21.0234375 C32.15996094 22.044375 32.17929688 23.0653125 32.19921875 24.1171875 C32.23294824 26.28106391 32.25129256 28.4452373 32.25390625 30.609375 C32.3228597 33.49090339 32.42012033 36.17568568 33 39 C35.33189606 41.33918124 35.33189606 41.33918124 38 42 C37.67 43.98 37.34 45.96 37 48 C38.32 48.33 39.64 48.66 41 49 C40.67 50.65 40.34 52.3 40 54 C38.68 54.33 37.36 54.66 36 55 C35.67 56.65 35.34 58.3 35 60 C33.68 60.33 32.36 60.66 31 61 C30.67 60.01 30.34 59.02 30 58 C27.69 58.66 25.38 59.32 23 60 C22.01 59.01 21.02 58.02 20 57 C20.33 56.01 20.66 55.02 21 54 C20.67 53.34 20.34 52.68 20 52 C18.515 51.505 18.515 51.505 17 51 C17.33 49.35 17.66 47.7 18 46 C17.34 45.67 16.68 45.34 16 45 C16 51.6 16 58.2 16 65 C18.31 65 20.62 65 23 65 C24 66 24 66 24.11352539 69.96899414 C24.1133662 71.74105607 24.10766785 73.5131226 24.09765625 75.28515625 C24.0962413 76.21597519 24.09482635 77.14679413 24.09336853 78.1058197 C24.08775172 81.09141191 24.0751964 84.07693029 24.0625 87.0625 C24.05748716 89.08137913 24.05292388 91.10025943 24.04882812 93.11914062 C24.03777683 98.07945572 24.02050095 103.03971532 24 108 C26.31 108.66 28.62 109.32 31 110 C30 112 30 112 28.34521484 112.61450195 C23.49200924 113.41225457 18.54404055 113.18590312 13.63769531 113.18530273 C11.63863013 113.18748512 9.63960468 113.20599143 7.640625 113.22460938 C6.36960937 113.22654297 5.09859375 113.22847656 3.7890625 113.23046875 C2.63100098 113.23457764 1.47293945 113.23868652 0.27978516 113.24291992 C-3.11310954 112.99162245 -5.83332989 112.21173908 -9 111 C-8.67 110.34 -8.34 109.68 -8 109 C-5.4375 108.375 -5.4375 108.375 -3 108 C-3.67857056 107.99191315 -4.35714111 107.98382629 -5.05627441 107.97549438 C-12.19572947 107.88863335 -19.33493245 107.7891071 -26.47412109 107.68261719 C-29.12938188 107.64363425 -31.7845665 107.60971702 -34.43994141 107.578125 C-72.93926359 107.11445232 -72.93926359 107.11445232 -80 103 C-79.67 102.34 -79.34 101.68 -79 101 C-78.34 101 -77.68 101 -77 101 C-77 100.01 -77 99.02 -77 98 C-80.94727588 97.82057837 -83.5980513 97.90649311 -87 100 C-88.32 98.35 -89.64 96.7 -91 95 C-90.34 94.01 -89.68 93.02 -89 92 C-89.79117904 90.00016466 -89.79117904 90.00016466 -91 88 C-91.99 87.67 -92.98 87.34 -94 87 C-93.67 84.69 -93.34 82.38 -93 80 C-90.03 79.01 -90.03 79.01 -87 78 C-87 76.02 -87 74.04 -87 72 C-83.535 71.01 -83.535 71.01 -80 70 C-79.67 71.32 -79.34 72.64 -79 74 C-78.34 74 -77.68 74 -77 74 C-77 70.04 -77 66.08 -77 62 C-81.29 62 -85.58 62 -90 62 C-90 57.05 -90 52.1 -90 47 C-91.98 47 -93.96 47 -96 47 C-96 46.34 -96 45.68 -96 45 C-94.02 45 -92.04 45 -90 45 C-90 44.01 -90 43.02 -90 42 C-91.98 41.67 -93.96 41.34 -96 41 C-96 40.67 -96 40.34 -96 40 C-89.73 40 -83.46 40 -77 40 C-77 38.35 -77 36.7 -77 35 C-83.27 35 -89.54 35 -96 35 C-96 34.67 -96 34.34 -96 34 C-93.525 33.505 -93.525 33.505 -91 33 C-90.67 31.68 -90.34 30.36 -90 29 C-91.98 29 -93.96 29 -96 29 C-96 28.67 -96 28.34 -96 28 C-94.35 27.67 -92.7 27.34 -91 27 C-90.67 25.68 -90.34 24.36 -90 23 C-91.98 23 -93.96 23 -96 23 C-96 22.67 -96 22.34 -96 22 C-94.35 21.67 -92.7 21.34 -91 21 C-90.67 19.68 -90.34 18.36 -90 17 C-91.98 17 -93.96 17 -96 17 C-96 16.67 -96 16.34 -96 16 C-90.11060037 13.95887931 -84.8280285 13.72721958 -78.625 13.8125 C-77.25408203 13.8134668 -77.25408203 13.8134668 -75.85546875 13.81445312 C-69.14064837 13.85935163 -69.14064837 13.85935163 -68 15 C-65.19023482 15.16017166 -62.40226404 15.25950534 -59.58984375 15.31640625 C-58.74780899 15.33718735 -57.90577423 15.35796844 -57.03822327 15.37937927 C-54.33806821 15.44496812 -51.63781283 15.50380276 -48.9375 15.5625 C-47.11131759 15.60567637 -45.28514546 15.64929036 -43.45898438 15.69335938 C-38.97276008 15.80065894 -34.4864345 15.90189966 -30 16 C-30 16.33 -30 16.66 -30 17 C-42.87 17 -55.74 17 -69 17 C-68.67 18.32 -68.34 19.64 -68 21 C-55.46 21.33 -42.92 21.66 -30 22 C-30 22.33 -30 22.66 -30 23 C-42.87 23 -55.74 23 -69 23 C-68.67 24.32 -68.34 25.64 -68 27 C-52.16 27 -36.32 27 -20 27 C-20.495 24.03 -20.495 24.03 -21 21 C-19.02 20.67 -17.04 20.34 -15 20 C-14.64393187 15.03448675 -14.64393187 15.03448675 -16.5 10.5625 C-16.995 10.046875 -17.49 9.53125 -18 9 C-15.69 7.02 -13.38 5.04 -11 3 C-10.01 3.99 -9.02 4.98 -8 6 C-4.37464024 6.2503577 -4.37464024 6.2503577 -1 6 C-0.67 4.02 -0.34 2.04 0 0 Z M-7 14 C-9.2084626 17.31269391 -9.80664241 19.14978851 -9.5546875 23.0625 C-8.4812192 26.81207941 -6.28696911 28.01541488 -3 30 C-0.36163023 30.1672392 -0.36163023 30.1672392 2 30 C2.03738281 29.01257813 2.07476562 28.02515625 2.11328125 27.0078125 C2.17902344 25.72648437 2.24476562 24.44515625 2.3125 23.125 C2.37050781 21.84882812 2.42851563 20.57265625 2.48828125 19.2578125 C2.65714844 18.18273437 2.82601562 17.10765625 3 16 C3.99 15.34 4.98 14.68 6 14 C4.01607489 11.60148679 4.01607489 11.60148679 0.1875 11.5625 C-3.17733329 11.66669338 -4.04370031 12.02913354 -7 14 Z M-69 29 C-69 29.66 -69 30.32 -69 31 C-66.69 31 -64.38 31 -62 31 C-62 30.34 -62 29.68 -62 29 C-64.31 29 -66.62 29 -69 29 Z M24 47 C23.6366844 49.83386167 23.6431329 51.40522151 25.125 53.875 C27.92151052 55.55290631 29.93690532 54.74875648 33 54 C33.67673447 50.59679066 33.67673447 50.59679066 34 47 C32.11499729 44.68436913 32.11499729 44.68436913 29 44.75 C25.88500271 44.68436913 25.88500271 44.68436913 24 47 Z M-83.25 80.625 C-85.21985834 82.92308586 -85.21985834 82.92308586 -85.5 86 C-85.21376982 89.06575838 -85.21376982 89.06575838 -83.3125 91.375 C-80.61209763 93.27258004 -79.22939919 93.35882213 -76 93 C-75.85024761 85.94348748 -75.85024761 85.94348748 -77 79 C-80.92212225 78.60967296 -80.92212225 78.60967296 -83.25 80.625 Z M-70 95 C-69.67 96.65 -69.34 98.3 -69 100 C-56.13 99.01 -56.13 99.01 -43 98 C-42.67 97.01 -42.34 96.02 -42 95 C-51.24 95 -60.48 95 -70 95 Z M-18 95 C-18 95.99 -18 96.98 -18 98 C-12.72 98.33 -7.44 98.66 -2 99 C-2 97.68 -2 96.36 -2 95 C-7.28 95 -12.56 95 -18 95 Z " fill="#5D51FC" transform="translate(103,18)"/>
<path d="M0 0 C2.31 0 4.62 0 7 0 C7 2.97 7 5.94 7 9 C10.3 9 13.6 9 17 9 C17 15.6 17 22.2 17 29 C12.71 29 8.42 29 4 29 C4 29.66 4 30.32 4 31 C12.79133718 32.42426407 12.79133718 32.42426407 29 32 C29 45.2 29 58.4 29 72 C31.31 72.66 33.62 73.32 36 74 C35 76 35 76 33.34521484 76.61450195 C28.49200924 77.41225457 23.54404055 77.18590312 18.63769531 77.18530273 C16.63863013 77.18748512 14.63960468 77.20599143 12.640625 77.22460938 C11.36960937 77.22654297 10.09859375 77.22847656 8.7890625 77.23046875 C7.63100098 77.23457764 6.47293945 77.23868652 5.27978516 77.24291992 C1.88689046 76.99162245 -0.83332989 76.21173908 -4 75 C-3.67 74.34 -3.34 73.68 -3 73 C-0.4375 72.375 -0.4375 72.375 2 72 C1.32142944 71.99191315 0.64285889 71.98382629 -0.05627441 71.97549438 C-7.19572947 71.88863335 -14.33493245 71.7891071 -21.47412109 71.68261719 C-24.12938188 71.64363425 -26.7845665 71.60971702 -29.43994141 71.578125 C-67.93926359 71.11445232 -67.93926359 71.11445232 -75 67 C-74.505 66.01 -74.505 66.01 -74 65 C-73.34 65 -72.68 65 -72 65 C-72 64.01 -72 63.02 -72 62 C-75.94727588 61.82057837 -78.5980513 61.90649311 -82 64 C-83.32 62.35 -84.64 60.7 -86 59 C-85.34 58.01 -84.68 57.02 -84 56 C-84.79117904 54.00016466 -84.79117904 54.00016466 -86 52 C-86.99 51.67 -87.98 51.34 -89 51 C-88.67 48.69 -88.34 46.38 -88 44 C-86.02 43.34 -84.04 42.68 -82 42 C-82 40.02 -82 38.04 -82 36 C-79.69 35.34 -77.38 34.68 -75 34 C-74.67 35.32 -74.34 36.64 -74 38 C-73.34 38 -72.68 38 -72 38 C-72 39.65 -72 41.3 -72 43 C-72.969375 43.28875 -73.93875 43.5775 -74.9375 43.875 C-78.10664203 44.64214682 -78.10664203 44.64214682 -79 47 C-79.40270732 51.1283652 -79.40270732 51.1283652 -77.8125 54.8125 C-75.57968261 56.27538036 -73.62655933 56.64505955 -71 57 C-71 54.03 -71 51.06 -71 48 C-69.02 48 -67.04 48 -65 48 C-64.67 48.66 -64.34 49.32 -64 50 C-55.75 50 -47.5 50 -39 50 C-38.505 49.01 -38.505 49.01 -38 48 C-24.47 48 -10.94 48 3 48 C3 46.35 3 44.7 3 43 C-5.58 43 -14.16 43 -23 43 C-22.01 40.03 -22.01 40.03 -21 37 C-20.34 37 -19.68 37 -19 37 C-19 35.02 -19 33.04 -19 31 C-14.71 30.67 -10.42 30.34 -6 30 C-5.505 28.515 -5.505 28.515 -5 27 C-3.68 26.34 -2.36 25.68 -1 25 C-0.67 16.75 -0.34 8.5 0 0 Z M-65 59 C-64.67 60.65 -64.34 62.3 -64 64 C-51.13 63.01 -51.13 63.01 -38 62 C-37.67 61.01 -37.34 60.02 -37 59 C-46.24 59 -55.48 59 -65 59 Z M-13 59 C-13 59.99 -13 60.98 -13 62 C-7.72 62.33 -2.44 62.66 3 63 C3 61.68 3 60.36 3 59 C-2.28 59 -7.56 59 -13 59 Z " fill="#5E4EF3" transform="translate(98,54)"/>
<path d="M0 0 C0 0.99 0 1.98 0 3 C0.66 3 1.32 3 2 3 C2 4.65 2 6.3 2 8 C1.030625 8.28875 0.06125 8.5775 -0.9375 8.875 C-4.10664203 9.64214682 -4.10664203 9.64214682 -5 12 C-5.40270732 16.1283652 -5.40270732 16.1283652 -3.8125 19.8125 C-1.57968261 21.27538036 0.37344067 21.64505955 3 22 C3 19.03 3 16.06 3 13 C4.98 13 6.96 13 9 13 C9.33 13.66 9.66 14.32 10 15 C18.25 15 26.5 15 35 15 C35.33 14.34 35.66 13.68 36 13 C49.53 13 63.06 13 77 13 C77 16.63 77 20.26 77 24 C71.72 24 66.44 24 61 24 C61 24.99 61 25.98 61 27 C61.56847656 26.98839844 62.13695313 26.97679688 62.72265625 26.96484375 C67.60670484 26.90776806 72.18503965 27.18043228 77 28 C77 30.64 77 33.28 77 36 C69.71409984 36.04682155 62.42823335 36.08211748 55.14221191 36.10362434 C51.75718789 36.11395864 48.37226851 36.12792229 44.98730469 36.15087891 C6.5625541 36.39227608 6.5625541 36.39227608 -1 32 C-0.67 31.34 -0.34 30.68 0 30 C0.66 30 1.32 30 2 30 C2 29.01 2 28.02 2 27 C-1.94727588 26.82057837 -4.5980513 26.90649311 -8 29 C-9.32 27.35 -10.64 25.7 -12 24 C-11.34 23.01 -10.68 22.02 -10 21 C-10.79117904 19.00016466 -10.79117904 19.00016466 -12 17 C-12.99 16.67 -13.98 16.34 -15 16 C-14.67 13.69 -14.34 11.38 -14 9 C-12.02 8.34 -10.04 7.68 -8 7 C-8 5.02 -8 3.04 -8 1 C-3.375 -1.125 -3.375 -1.125 0 0 Z M9 24 C9.33 25.65 9.66 27.3 10 29 C22.87 28.01 22.87 28.01 36 27 C36.33 26.01 36.66 25.02 37 24 C27.76 24 18.52 24 9 24 Z " fill="#BBD5FE" transform="translate(24,89)"/>
<path d="M0 0 C16.83 0 33.66 0 51 0 C51 10.23 51 20.46 51 31 C34.17 31 17.34 31 0 31 C0 20.77 0 10.54 0 0 Z " fill="#474E94" transform="translate(44,47)"/>
<path d="M0 0 C2.97 0.66 5.94 1.32 9 2 C8.9071875 3.3921875 8.9071875 3.3921875 8.8125 4.8125 C8.74760199 7.90747504 8.74760199 7.90747504 10.125 9.875 C12.78034983 11.4682099 14.96789518 11.20214032 18 11 C18.495 12.98 18.495 12.98 19 15 C20.28197266 14.98259766 20.28197266 14.98259766 21.58984375 14.96484375 C22.69457031 14.95582031 23.79929688 14.94679688 24.9375 14.9375 C26.03964844 14.92589844 27.14179688 14.91429687 28.27734375 14.90234375 C31 15 31 15 32 16 C32.09676233 17.67233812 32.13200373 19.34832454 32.140625 21.0234375 C32.15996094 22.044375 32.17929688 23.0653125 32.19921875 24.1171875 C32.23294824 26.28106391 32.25129256 28.4452373 32.25390625 30.609375 C32.3228597 33.49090339 32.42012033 36.17568568 33 39 C35.33189606 41.33918124 35.33189606 41.33918124 38 42 C37.67 43.98 37.34 45.96 37 48 C38.32 48.33 39.64 48.66 41 49 C40.67 50.65 40.34 52.3 40 54 C38.02 54.495 38.02 54.495 36 55 C35.67 56.65 35.34 58.3 35 60 C33.02 60.495 33.02 60.495 31 61 C30.67 60.01 30.34 59.02 30 58 C27.69 58.66 25.38 59.32 23 60 C22.01 59.01 21.02 58.02 20 57 C20.33 56.01 20.66 55.02 21 54 C20.67 53.34 20.34 52.68 20 52 C19.01 51.67 18.02 51.34 17 51 C17.33 49.35 17.66 47.7 18 46 C17.01 45.505 17.01 45.505 16 45 C15.28293018 43.01751285 14.61709587 41.01584651 14 39 C13.67 38.34 13.34 37.68 13 37 C13.66 37 14.32 37 15 37 C15 35.02 15 33.04 15 31 C8.4 31 1.8 31 -5 31 C-5 30.34 -5 29.68 -5 29 C-2.69 29.33 -0.38 29.66 2 30 C1.94779297 28.51886719 1.94779297 28.51886719 1.89453125 27.0078125 C1.86746094 25.72648437 1.84039062 24.44515625 1.8125 23.125 C1.76029297 21.21074219 1.76029297 21.21074219 1.70703125 19.2578125 C1.80371094 18.18273437 1.90039062 17.10765625 2 16 C2.99 15.34 3.98 14.68 5 14 C3.78410016 12.56844101 3.78410016 12.56844101 0.1875 12.6875 C-2.78617685 12.74622611 -3.87751147 12.92650688 -6.5 14.5 C-8.71177972 18.18629954 -8.34421275 20.73176192 -8 25 C-7.67 25.66 -7.34 26.32 -7 27 C-11.29 27 -15.58 27 -20 27 C-20.33 25.02 -20.66 23.04 -21 21 C-19.02 20.67 -17.04 20.34 -15 20 C-14.64393187 15.03448675 -14.64393187 15.03448675 -16.5 10.5625 C-16.995 10.046875 -17.49 9.53125 -18 9 C-15.69 7.02 -13.38 5.04 -11 3 C-10.01 3.99 -9.02 4.98 -8 6 C-4.37464024 6.2503577 -4.37464024 6.2503577 -1 6 C-0.67 4.02 -0.34 2.04 0 0 Z M24 47 C23.6366844 49.83386167 23.6431329 51.40522151 25.125 53.875 C27.92151052 55.55290631 29.93690532 54.74875648 33 54 C33.67673447 50.59679066 33.67673447 50.59679066 34 47 C32.11499729 44.68436913 32.11499729 44.68436913 29 44.75 C25.88500271 44.68436913 25.88500271 44.68436913 24 47 Z " fill="#35DCC4" transform="translate(103,18)"/>
<path d="M0 0 C9.57 0 19.14 0 29 0 C29.495 1.98 29.495 1.98 30 4 C36.6 4 43.2 4 50 4 C50 6.66666667 50 9.33333333 50 12 C50.495 12.495 50.495 12.495 51 13 C51.08737645 14.85369611 51.10698153 16.71067541 51.09765625 18.56640625 C51.09282227 20.2534668 51.09282227 20.2534668 51.08789062 21.97460938 C51.07532227 23.75061523 51.07532227 23.75061523 51.0625 25.5625 C51.05798828 26.75037109 51.05347656 27.93824219 51.04882812 29.16210938 C51.03699675 32.10812226 51.02051287 35.05403681 51 38 C53.31 38 55.62 38 58 38 C58.33 38.99 58.66 39.98 59 41 C50.19039858 42.30512614 41.80960142 42.30512614 33 41 C33.33 40.01 33.66 39.02 34 38 C38.29 38 42.58 38 47 38 C47 31.4 47 24.8 47 18 C43.7 18 40.4 18 37 18 C37 15.03 37 12.06 37 9 C34.69 9 32.38 9 30 9 C30.01571045 10.12027588 30.01571045 10.12027588 30.03173828 11.26318359 C30.0732077 14.63375508 30.09929729 18.004273 30.125 21.375 C30.14175781 22.550625 30.15851563 23.72625 30.17578125 24.9375 C30.18544922 26.61972656 30.18544922 26.61972656 30.1953125 28.3359375 C30.21102295 29.89127197 30.21102295 29.89127197 30.22705078 31.47802734 C30 34 30 34 28 36 C25.76086426 36.25396729 25.76086426 36.25396729 22.93945312 36.25878906 C21.35771301 36.26824554 21.35771301 36.26824554 19.74401855 36.27789307 C18.60130493 36.2738446 17.45859131 36.26979614 16.28125 36.265625 C14.52802429 36.26849518 14.52802429 36.26849518 12.73937988 36.27142334 C10.26456487 36.27278626 7.78974274 36.26908241 5.31494141 36.26074219 C1.51578795 36.25004446 -2.28289259 36.26063418 -6.08203125 36.2734375 C-8.48177188 36.27211592 -10.88151222 36.26955357 -13.28125 36.265625 C-14.99532043 36.27169769 -14.99532043 36.27169769 -16.74401855 36.27789307 C-17.79851196 36.27158875 -18.85300537 36.26528442 -19.93945312 36.25878906 C-20.8705188 36.25719788 -21.80158447 36.25560669 -22.76086426 36.25396729 C-25 36 -25 36 -27 34 C-27.22705078 31.01904297 -27.22705078 31.01904297 -27.1953125 27.2421875 C-27.1924826 26.57913605 -27.18965271 25.91608459 -27.18673706 25.23294067 C-27.17553435 23.11344417 -27.15043051 20.99436896 -27.125 18.875 C-27.11497028 17.43880818 -27.10584441 16.00260975 -27.09765625 14.56640625 C-27.075595 11.04413372 -27.04106494 7.52210797 -27 4 C-26.01 4 -25.02 4 -24 4 C-24 13.57 -24 23.14 -24 33 C-7.17 33 9.66 33 27 33 C27 22.77 27 12.54 27 2 C18.09 2 9.18 2 0 2 C0 1.34 0 0.68 0 0 Z " fill="#36D7C7" transform="translate(68,45)"/>
<path d="M0 0 C0 0.99 0 1.98 0 3 C0.66 3 1.32 3 2 3 C2 4.65 2 6.3 2 8 C1.030625 8.28875 0.06125 8.5775 -0.9375 8.875 C-4.10664203 9.64214682 -4.10664203 9.64214682 -5 12 C-5.44881256 16.03878466 -5.44881256 16.03878466 -3.83984375 19.5859375 C-1.44171248 21.42908722 0.76026058 21.96429967 3.6875 22.6875 C4.68136719 22.93886719 5.67523437 23.19023438 6.69921875 23.44921875 C7.45847656 23.63097656 8.21773437 23.81273438 9 24 C9.33 25.65 9.66 27.3 10 29 C10.66 28.67 11.32 28.34 12 28 C13.81171098 27.84693099 15.6283794 27.75053339 17.4453125 27.68359375 C18.52167969 27.64169922 19.59804688 27.59980469 20.70703125 27.55664062 C21.83496094 27.51732422 22.96289062 27.47800781 24.125 27.4375 C25.26066406 27.39431641 26.39632812 27.35113281 27.56640625 27.30664062 C30.37747768 27.2003396 33.18863945 27.09830595 36 27 C35.67 27.66 35.34 28.32 35 29 C32.35139573 29.59355614 29.70802678 29.74209269 27 30 C27 30.66 27 31.32 27 32 C41.19 32 55.38 32 70 32 C69.67 31.34 69.34 30.68 69 30 C67.845 29.835 66.69 29.67 65.5 29.5 C64.345 29.335 63.19 29.17 62 29 C61.505 28.01 61.505 28.01 61 27 C66.45769811 26.88861841 71.61509359 27.08342019 77 28 C77 30.64 77 33.28 77 36 C69.71409984 36.04682155 62.42823335 36.08211748 55.14221191 36.10362434 C51.75718789 36.11395864 48.37226851 36.12792229 44.98730469 36.15087891 C6.5625541 36.39227608 6.5625541 36.39227608 -1 32 C-0.67 31.34 -0.34 30.68 0 30 C0.66 30 1.32 30 2 30 C2 29.01 2 28.02 2 27 C-1.94727588 26.82057837 -4.5980513 26.90649311 -8 29 C-9.32 27.35 -10.64 25.7 -12 24 C-11.34 23.01 -10.68 22.02 -10 21 C-10.79117904 19.00016466 -10.79117904 19.00016466 -12 17 C-12.99 16.67 -13.98 16.34 -15 16 C-14.67 13.69 -14.34 11.38 -14 9 C-12.02 8.34 -10.04 7.68 -8 7 C-8 5.02 -8 3.04 -8 1 C-3.375 -1.125 -3.375 -1.125 0 0 Z " fill="#E9EBF2" transform="translate(24,89)"/>
<path d="M0 0 C2.31 0 4.62 0 7 0 C7 2.97 7 5.94 7 9 C10.3 9 13.6 9 17 9 C17 15.6 17 22.2 17 29 C12.71 29 8.42 29 4 29 C3.67 33.62 3.34 38.24 3 43 C-5.58 43 -14.16 43 -23 43 C-22.01 40.03 -22.01 40.03 -21 37 C-20.34 37 -19.68 37 -19 37 C-19 35.02 -19 33.04 -19 31 C-12.565 30.505 -12.565 30.505 -6 30 C-5.67 29.01 -5.34 28.02 -5 27 C-3.68 26.34 -2.36 25.68 -1 25 C-0.67 16.75 -0.34 8.5 0 0 Z " fill="#7184FC" transform="translate(98,54)"/>
<path d="M0 0 C1.05692047 0.00141495 2.11384094 0.0028299 3.20278931 0.00428772 C6.56490966 0.00986685 9.92696241 0.02241556 13.2890625 0.03515625 C15.57421779 0.04017394 17.85937412 0.04473638 20.14453125 0.04882812 C25.7343979 0.05982946 31.32422537 0.07654681 36.9140625 0.09765625 C36.9140625 1.41765625 36.9140625 2.73765625 36.9140625 4.09765625 C32.2940625 4.09765625 27.6740625 4.09765625 22.9140625 4.09765625 C22.9140625 6.07765625 22.9140625 8.05765625 22.9140625 10.09765625 C22.2540625 10.42765625 21.5940625 10.75765625 20.9140625 11.09765625 C20.5840625 12.41765625 20.2540625 13.73765625 19.9140625 15.09765625 C28.1640625 15.42765625 36.4140625 15.75765625 44.9140625 16.09765625 C44.9140625 17.74765625 44.9140625 19.39765625 44.9140625 21.09765625 C31.3840625 21.09765625 17.8540625 21.09765625 3.9140625 21.09765625 C3.5840625 16.14765625 3.2540625 11.19765625 2.9140625 6.09765625 C-3.6859375 5.76765625 -10.2859375 5.43765625 -17.0859375 5.09765625 C-17.0859375 3.77765625 -17.0859375 2.45765625 -17.0859375 1.09765625 C-11.38582812 -0.12258939 -5.79721825 -0.02936396 0 0 Z " fill="#6C75FE" transform="translate(56.0859375,80.90234375)"/>
<path d="M0 0 C1.37091797 0.0009668 1.37091797 0.0009668 2.76953125 0.00195312 C9.48435163 0.04685163 9.48435163 0.04685163 10.625 1.1875 C13.43476518 1.34767166 16.22273596 1.44700534 19.03515625 1.50390625 C19.87719101 1.52468735 20.71922577 1.54546844 21.58677673 1.56687927 C24.28693179 1.63246812 26.98718717 1.69130276 29.6875 1.75 C31.51368241 1.79317637 33.33985454 1.83679036 35.16601562 1.88085938 C39.65223992 1.98815894 44.1385655 2.08939966 48.625 2.1875 C48.625 2.5175 48.625 2.8475 48.625 3.1875 C35.755 3.1875 22.885 3.1875 9.625 3.1875 C9.955 4.5075 10.285 5.8275 10.625 7.1875 C23.165 7.5175 35.705 7.8475 48.625 8.1875 C48.625 8.5175 48.625 8.8475 48.625 9.1875 C35.755 9.1875 22.885 9.1875 9.625 9.1875 C9.955 10.5075 10.285 11.8275 10.625 13.1875 C21.515 13.1875 32.405 13.1875 43.625 13.1875 C43.625 13.8475 43.625 14.5075 43.625 15.1875 C35.705 15.1875 27.785 15.1875 19.625 15.1875 C19.625 15.8475 19.625 16.5075 19.625 17.1875 C18.635 17.1875 17.645 17.1875 16.625 17.1875 C16.625 16.5275 16.625 15.8675 16.625 15.1875 C14.315 15.1875 12.005 15.1875 9.625 15.1875 C9.625 17.1675 9.625 19.1475 9.625 21.1875 C0.715 21.1875 -8.195 21.1875 -17.375 21.1875 C-17.375 20.8575 -17.375 20.5275 -17.375 20.1875 C-15.725 19.8575 -14.075 19.5275 -12.375 19.1875 C-12.045 17.8675 -11.715 16.5475 -11.375 15.1875 C-13.355 15.1875 -15.335 15.1875 -17.375 15.1875 C-17.375 14.8575 -17.375 14.5275 -17.375 14.1875 C-15.725 13.8575 -14.075 13.5275 -12.375 13.1875 C-12.045 11.8675 -11.715 10.5475 -11.375 9.1875 C-13.355 9.1875 -15.335 9.1875 -17.375 9.1875 C-17.375 8.8575 -17.375 8.5275 -17.375 8.1875 C-15.725 7.8575 -14.075 7.5275 -12.375 7.1875 C-12.045 5.8675 -11.715 4.5475 -11.375 3.1875 C-13.355 3.1875 -15.335 3.1875 -17.375 3.1875 C-17.375 2.8575 -17.375 2.5275 -17.375 2.1875 C-11.48560037 0.14637931 -6.2030285 -0.08528042 0 0 Z " fill="#92E1E0" transform="translate(24.375,31.8125)"/>
<path d="M0 0 C1.12019531 -0.00128906 2.24039063 -0.00257812 3.39453125 -0.00390625 C4.57402344 -0.00003906 5.75351562 0.00382812 6.96875 0.0078125 C8.73798828 0.00201172 8.73798828 0.00201172 10.54296875 -0.00390625 C12.22326172 -0.00197266 12.22326172 -0.00197266 13.9375 0 C14.97326172 0.00112793 16.00902344 0.00225586 17.07617188 0.00341797 C19.46875 0.1328125 19.46875 0.1328125 20.46875 1.1328125 C20.56861975 3.97616298 20.60752881 6.78978413 20.59375 9.6328125 C20.59955078 10.82970703 20.59955078 10.82970703 20.60546875 12.05078125 C20.59535767 18.00620483 20.59535767 18.00620483 19.46875 19.1328125 C17.62715977 19.23240871 15.78178033 19.26361661 13.9375 19.265625 C12.81730469 19.26691406 11.69710937 19.26820312 10.54296875 19.26953125 C9.36347656 19.26566406 8.18398438 19.26179688 6.96875 19.2578125 C5.19951172 19.26361328 5.19951172 19.26361328 3.39453125 19.26953125 C1.71423828 19.26759766 1.71423828 19.26759766 0 19.265625 C-1.03576172 19.26449707 -2.07152344 19.26336914 -3.13867188 19.26220703 C-5.53125 19.1328125 -5.53125 19.1328125 -6.53125 18.1328125 C-6.63111975 15.28946202 -6.67002881 12.47584087 -6.65625 9.6328125 C-6.66011719 8.83488281 -6.66398437 8.03695312 -6.66796875 7.21484375 C-6.65573175 0.007248 -6.65573175 0.007248 0 0 Z " fill="#3EC1D9" transform="translate(39.53125,85.8671875)"/>
<path d="M0 0 C2.62697064 -0.22137393 5.00893964 -0.28162025 7.625 -0.1875 C8.33140625 -0.17396484 9.0378125 -0.16042969 9.765625 -0.14648438 C11.51074128 -0.1111104 13.25546608 -0.05730221 15 0 C15 3.63 15 7.26 15 11 C9.72 11 4.44 11 -1 11 C-0.505 12.98 -0.505 12.98 0 15 C2.31 15.33 4.62 15.66 7 16 C7.495 17.485 7.495 17.485 8 19 C-6.19 19 -20.38 19 -35 19 C-35 18.34 -35 17.68 -35 17 C-32.98177083 16.609375 -30.96354167 16.21875 -28.9453125 15.828125 C-26.47178598 15.02322581 -26.47178598 15.02322581 -25 11 C-21.37 11 -17.74 11 -14 11 C-14 10.01 -14 9.02 -14 8 C-11.36 8 -8.72 8 -6 8 C-5.71125 7.360625 -5.4225 6.72125 -5.125 6.0625 C-4 4 -4 4 -2 3 C-1.34 2.01 -0.68 1.02 0 0 Z " fill="#B1CFFE" transform="translate(86,102)"/>
<path d="M0 0 C3.0000624 -0.02721831 5.99987256 -0.04694378 9 -0.0625 C9.83917969 -0.07087891 10.67835937 -0.07925781 11.54296875 -0.08789062 C12.79013672 -0.09272461 12.79013672 -0.09272461 14.0625 -0.09765625 C15.19365234 -0.10551147 15.19365234 -0.10551147 16.34765625 -0.11352539 C19.91451913 0.03914317 23.45744034 0.55718004 27 1 C27 7.93 27 14.86 27 22 C20.07 22 13.14 22 6 22 C6 17.05 6 12.1 6 7 C4.02 7 2.04 7 0 7 C0 6.34 0 5.68 0 5 C1.98 5 3.96 5 6 5 C6 4.01 6 3.02 6 2 C3.03 1.505 3.03 1.505 0 1 C0 0.67 0 0.34 0 0 Z " fill="#3DB8DB" transform="translate(7,58)"/>
<path d="M0 0 C2.64 0 5.28 0 8 0 C8 12.54 8 25.08 8 38 C-0.25 38 -8.5 38 -17 38 C-17.29296875 28.0390625 -17.29296875 28.0390625 -17 25 C-16.01 24.34 -15.02 23.68 -14 23 C-13.67 24.32 -13.34 25.64 -13 27 C-7.72 27 -2.44 27 3 27 C3.33 21.39 3.66 15.78 4 10 C1.03 10 -1.94 10 -5 10 C-1.25 4.25 -1.25 4.25 1 2 C0.67 1.34 0.34 0.68 0 0 Z " fill="#707FFE" transform="translate(119,86)"/>
<path d="M0 0 C2.97 0.66 5.94 1.32 9 2 C8.9071875 3.3921875 8.9071875 3.3921875 8.8125 4.8125 C8.74760199 7.90747504 8.74760199 7.90747504 10.125 9.875 C12.78034983 11.4682099 14.96789518 11.20214032 18 11 C18.495 12.98 18.495 12.98 19 15 C16.87527424 15.05386629 14.75016348 15.09273071 12.625 15.125 C10.84996094 15.15980469 10.84996094 15.15980469 9.0390625 15.1953125 C6 15 6 15 4 13 C-1.54235245 12.42765564 -1.54235245 12.42765564 -6.5 14.5 C-8.71177972 18.18629954 -8.34421275 20.73176192 -8 25 C-7.67 25.66 -7.34 26.32 -7 27 C-11.29 27 -15.58 27 -20 27 C-20.33 25.02 -20.66 23.04 -21 21 C-19.02 20.67 -17.04 20.34 -15 20 C-14.64393187 15.03448675 -14.64393187 15.03448675 -16.5 10.5625 C-16.995 10.046875 -17.49 9.53125 -18 9 C-15.69 7.02 -13.38 5.04 -11 3 C-10.01 3.99 -9.02 4.98 -8 6 C-4.37464024 6.2503577 -4.37464024 6.2503577 -1 6 C-0.67 4.02 -0.34 2.04 0 0 Z " fill="#E8EAF1" transform="translate(103,18)"/>
<path d="M0 0 C6.6 0 13.2 0 20 0 C20 2.66666667 20 5.33333333 20 8 C20.33 8.33 20.66 8.66 21 9 C21.08737645 10.85369611 21.10698153 12.71067541 21.09765625 14.56640625 C21.09443359 15.69111328 21.09121094 16.81582031 21.08789062 17.97460938 C21.07951172 19.15861328 21.07113281 20.34261719 21.0625 21.5625 C21.05798828 22.75037109 21.05347656 23.93824219 21.04882812 25.16210938 C21.03699675 28.10812226 21.02051287 31.05403681 21 34 C23.31 34 25.62 34 28 34 C28.33 34.99 28.66 35.98 29 37 C20.19039858 38.30512614 11.80960142 38.30512614 3 37 C3.33 36.01 3.66 35.02 4 34 C8.29 34 12.58 34 17 34 C17 27.4 17 20.8 17 14 C13.7 14 10.4 14 7 14 C7 11.03 7 8.06 7 5 C4.69 5 2.38 5 0 5 C0 3.35 0 1.7 0 0 Z " fill="#3AC5D7" transform="translate(98,49)"/>
<path d="M0 0 C1.58206057 0.00667536 3.16410534 0.0186375 4.74609375 0.03515625 C5.55240234 0.03966797 6.35871094 0.04417969 7.18945312 0.04882812 C9.18753131 0.06065107 11.18557158 0.07858711 13.18359375 0.09765625 C13.3626123 0.6911084 13.54163086 1.28456055 13.72607422 1.89599609 C14.40397458 4.0785171 15.12406201 6.07036323 16.18359375 8.09765625 C18.67393761 9.39426059 18.67393761 9.39426059 21.18359375 10.09765625 C21.84359375 11.41765625 22.50359375 12.73765625 23.18359375 14.09765625 C18.56359375 14.09765625 13.94359375 14.09765625 9.18359375 14.09765625 C10.17359375 15.58265625 10.17359375 15.58265625 11.18359375 17.09765625 C11.30859375 19.78515625 11.30859375 19.78515625 11.18359375 22.09765625 C12.17359375 22.42765625 13.16359375 22.75765625 14.18359375 23.09765625 C13.19359375 24.08765625 12.20359375 25.07765625 11.18359375 26.09765625 C7.30859375 24.34765625 7.30859375 24.34765625 6.18359375 22.09765625 C6.84359375 22.09765625 7.50359375 22.09765625 8.18359375 22.09765625 C8.18359375 20.11765625 8.18359375 18.13765625 8.18359375 16.09765625 C1.58359375 16.09765625 -5.01640625 16.09765625 -11.81640625 16.09765625 C-11.81640625 15.43765625 -11.81640625 14.77765625 -11.81640625 14.09765625 C-9.50640625 14.42765625 -7.19640625 14.75765625 -4.81640625 15.09765625 C-4.82800781 14.09863281 -4.83960937 13.09960938 -4.8515625 12.0703125 C-4.86058594 10.77996094 -4.86960937 9.48960938 -4.87890625 8.16015625 C-4.89050781 6.87238281 -4.90210937 5.58460937 -4.9140625 4.2578125 C-4.77221615 -0.33233549 -4.72778272 0.12097704 0 0 Z " fill="#60D2E1" transform="translate(109.81640625,32.90234375)"/>
<path d="M0 0 C1.58206057 0.00667536 3.16410534 0.0186375 4.74609375 0.03515625 C5.55240234 0.03966797 6.35871094 0.04417969 7.18945312 0.04882812 C9.18753131 0.06065107 11.18557158 0.07858711 13.18359375 0.09765625 C13.21043687 2.91021906 13.23035563 5.72252866 13.24609375 8.53515625 C13.25447266 9.33759766 13.26285156 10.14003906 13.27148438 10.96679688 C13.28010805 13.01060846 13.23587525 15.05449527 13.18359375 17.09765625 C11.36243372 18.91881628 8.87687611 18.23000705 6.45703125 18.234375 C5.70679687 18.23050781 4.9565625 18.22664063 4.18359375 18.22265625 C3.05824219 18.22845703 3.05824219 18.22845703 1.91015625 18.234375 C-3.68979572 18.22426678 -3.68979572 18.22426678 -4.81640625 17.09765625 C-4.91621839 14.42034245 -4.955205 11.7746145 -4.94140625 9.09765625 C-4.94527344 8.34742187 -4.94914062 7.5971875 -4.953125 6.82421875 C-4.94103514 0.12643386 -4.94103514 0.12643386 0 0 Z " fill="#5AD3E2" transform="translate(109.81640625,95.90234375)"/>
<path d="M0 0 C5.61 0 11.22 0 17 0 C17 5.61 17 11.22 17 17 C11.39 17 5.78 17 0 17 C0 11.39 0 5.78 0 0 Z " fill="#3E4E9A" transform="translate(15,34)"/>
<path d="M0 0 C4.62 0 9.24 0 14 0 C14.33 1.65 14.66 3.3 15 5 C16.65 4.67 18.3 4.34 20 4 C20 3.34 20 2.68 20 2 C20.66 2 21.32 2 22 2 C22 5.3 22 8.6 22 12 C13.42 12 4.84 12 -4 12 C-3.34 10.02 -2.68 8.04 -2 6 C-1.34 6 -0.68 6 0 6 C0 4.02 0 2.04 0 0 Z " fill="#7389FE" transform="translate(79,85)"/>
<path d="M0 0 C2.31 0 4.62 0 7 0 C7.14541967 4.22880411 7.23411527 8.45696413 7.3125 12.6875 C7.3753418 14.48477539 7.3753418 14.48477539 7.43945312 16.31835938 C7.5608921 25.03767802 7.5608921 25.03767802 5.86474609 27.94775391 C4.48046875 29.33203125 4.48046875 29.33203125 2 31 C0.41596476 29.41596476 0.78025065 27.7228362 0.68359375 25.52734375 C0.64169922 24.62822266 0.59980469 23.72910156 0.55664062 22.80273438 C0.51732422 21.85720703 0.47800781 20.91167969 0.4375 19.9375 C0.39431641 18.98810547 0.35113281 18.03871094 0.30664062 17.06054688 C0.20020724 14.70718647 0.09818992 12.35371646 0 10 C-2.64 10 -5.28 10 -8 10 C-8 8.02 -8 6.04 -8 4 C-5.36 4 -2.72 4 0 4 C0 2.68 0 1.36 0 0 Z " fill="#5A38FF" transform="translate(34,49)"/>
<path d="M0 0 C13.53 0 27.06 0 41 0 C41 1.65 41 3.3 41 5 C27.47 5 13.94 5 0 5 C0 3.35 0 1.7 0 0 Z " fill="#3C3D89" transform="translate(60,97)"/>
<path d="M0 0 C2.475 1.485 2.475 1.485 5 3 C4.67 4.98 4.34 6.96 4 9 C5.32 9.33 6.64 9.66 8 10 C7.67 11.65 7.34 13.3 7 15 C5.68 15.33 4.36 15.66 3 16 C2.67 17.65 2.34 19.3 2 21 C0.68 21.33 -0.64 21.66 -2 22 C-2.33 21.01 -2.66 20.02 -3 19 C-5.31 19.66 -7.62 20.32 -10 21 C-10.99 20.01 -11.98 19.02 -13 18 C-12.67 17.01 -12.34 16.02 -12 15 C-12.33 14.34 -12.66 13.68 -13 13 C-13.99 12.67 -14.98 12.34 -16 12 C-15.67 10.35 -15.34 8.7 -15 7 C-12.36 6.67 -9.72 6.34 -7 6 C-7.20625 7.11375 -7.4125 8.2275 -7.625 9.375 C-7.74875 10.57125 -7.8725 11.7675 -8 13 C-6.10244856 15.34973818 -6.10244856 15.34973818 -2.875 15.125 C-1.451875 15.063125 -1.451875 15.063125 0 15 C0.29562367 9.67829506 0.29562367 9.67829506 -2 5 C-1.125 2.3125 -1.125 2.3125 0 0 Z " fill="#E9EAF2" transform="translate(136,57)"/>
<path d="M0 0 C0.99 0 1.98 0 3 0 C3 9.57 3 19.14 3 29 C11.58 29 20.16 29 29 29 C29 29.33 29 29.66 29 30 C41.87 30.495 41.87 30.495 55 31 C55 31.33 55 31.66 55 32 C47.48863592 32.05057965 39.97731551 32.08568257 32.46582031 32.10986328 C29.90883747 32.11994038 27.35186621 32.13360226 24.79492188 32.15087891 C21.12627308 32.17505217 17.45777621 32.18646585 13.7890625 32.1953125 C12.0655809 32.21079636 12.0655809 32.21079636 10.30728149 32.22659302 C9.2463327 32.22674408 8.18538391 32.22689514 7.09228516 32.22705078 C6.15518707 32.231492 5.21808899 32.23593323 4.25259399 32.24050903 C2 32 2 32 0 30 C-0.22705078 27.01904297 -0.22705078 27.01904297 -0.1953125 23.2421875 C-0.1924826 22.57913605 -0.18965271 21.91608459 -0.18673706 21.23294067 C-0.17553435 19.11344417 -0.15043051 16.99436896 -0.125 14.875 C-0.11497028 13.43880818 -0.10584441 12.00260975 -0.09765625 10.56640625 C-0.075595 7.04413372 -0.04106494 3.52210797 0 0 Z " fill="#42AAE3" transform="translate(41,49)"/>
<path d="M0 0 C3.3 0 6.6 0 10 0 C10 6.27 10 12.54 10 19 C6.04 19 2.08 19 -2 19 C-1.34 17.35 -0.68 15.7 0 14 C0.66 14 1.32 14 2 14 C2 13.34 2 12.68 2 12 C0.68 11.34 -0.64 10.68 -2 10 C-0.35 9.67 1.3 9.34 3 9 C0.03 8.505 0.03 8.505 -3 8 C-3 6.68 -3 5.36 -3 4 C-2.01 3.67 -1.02 3.34 0 3 C0 2.01 0 1.02 0 0 Z " fill="#788EFE" transform="translate(105,63)"/>
<path d="M0 0 C4.95 0 9.9 0 15 0 C14.34 1.65 13.68 3.3 13 5 C19.6 5.33 26.2 5.66 33 6 C33 6.66 33 7.32 33 8 C18.81 8 4.62 8 -10 8 C-10 7.34 -10 6.68 -10 6 C-7.98177083 5.609375 -5.96354167 5.21875 -3.9453125 4.828125 C-1.47178598 4.02322581 -1.47178598 4.02322581 0 0 Z " fill="#9FC3FE" transform="translate(61,113)"/>
<path d="M0 0 C1.32 0 2.64 0 4 0 C4 6.6 4 13.2 4 20 C6.31 20 8.62 20 11 20 C11.33 20.99 11.66 21.98 12 23 C3.19039858 24.30512614 -5.19039858 24.30512614 -14 23 C-13.505 21.515 -13.505 21.515 -13 20 C-8.71 20 -4.42 20 0 20 C0 13.4 0 6.8 0 0 Z " fill="#4C4CA1" transform="translate(115,63)"/>
<path d="M0 0 C2.31 0 4.62 0 7 0 C7 0.66 7 1.32 7 2 C6.01 2 5.02 2 4 2 C5.26974972 6.41522109 5.26974972 6.41522109 8 10 C9.98821313 10.39764263 11.98944339 10.73775349 14 11 C14 10.01 14 9.02 14 8 C19.875 8.875 19.875 8.875 21 10 C21 11.65 21 13.3 21 15 C14.07 15 7.14 15 0 15 C0 10.05 0 5.1 0 0 Z " fill="#38D2D4" transform="translate(13,65)"/>
<path d="M0 0 C1.31871094 -0.01224609 2.63742188 -0.02449219 3.99609375 -0.03710938 C5.90068359 -0.04000977 5.90068359 -0.04000977 7.84375 -0.04296875 C9.00068359 -0.04707764 10.15761719 -0.05118652 11.34960938 -0.05541992 C14.47736509 0.18575467 16.680892 0.85423629 19.5 2.1875 C18.5 4.1875 18.5 4.1875 16.84521484 4.80200195 C11.99200924 5.59975457 7.04404055 5.37340312 2.13769531 5.37280273 C0.13863013 5.37498512 -1.86039532 5.39349143 -3.859375 5.41210938 C-5.13039063 5.41404297 -6.40140625 5.41597656 -7.7109375 5.41796875 C-8.86899902 5.42207764 -10.02706055 5.42618652 -11.22021484 5.43041992 C-14.61310954 5.17912245 -17.33332989 4.39923908 -20.5 3.1875 C-20.17 2.5275 -19.84 1.8675 -19.5 1.1875 C-13.23640183 -0.60566158 -6.45139424 0.00315317 0 0 Z " fill="#EAEBF2" transform="translate(114.5,125.8125)"/>
<path d="M0 0 C2.5419589 -0.05434116 5.08273682 -0.0938339 7.625 -0.125 C8.33785156 -0.14175781 9.05070312 -0.15851562 9.78515625 -0.17578125 C14.2612164 -0.21684602 17.77949278 0.30913433 22 2 C22.33 4.31 22.66 6.62 23 9 C22.01 9.495 22.01 9.495 21 10 C20.67 10.99 20.34 11.98 20 13 C16.625 13.1875 16.625 13.1875 13 13 C10.87491756 9.81237635 10.4979837 7.73487777 10 4 C10.99 4 11.98 4 13 4 C13 3.34 13 2.68 13 2 C8.71 2 4.42 2 0 2 C0 1.34 0 0.68 0 0 Z " fill="#D3EFF5" transform="translate(7,63)"/>
<path d="M0 0 C1.98 0 3.96 0 6 0 C6.33 0.66 6.66 1.32 7 2 C8.89533342 2.46523063 8.89533342 2.46523063 11.0625 2.625 C12.361875 2.74875 13.66125 2.8725 15 3 C15 4.65 15 6.3 15 8 C14.01 8.33 13.02 8.66 12 9 C12 9.66 12 10.32 12 11 C10.18757948 11.02687279 8.37504767 11.04633715 6.5625 11.0625 C5.55316406 11.07410156 4.54382813 11.08570312 3.50390625 11.09765625 C1 11 1 11 0 10 C-0.07205511 8.31391034 -0.08386068 6.62499341 -0.0625 4.9375 C-0.05347656 4.01839844 -0.04445313 3.09929687 -0.03515625 2.15234375 C-0.02355469 1.44207031 -0.01195313 0.73179688 0 0 Z " fill="#C5DCFE" transform="translate(27,102)"/>
<path d="M0 0 C0.02686553 1.97909398 0.04633375 3.95828971 0.0625 5.9375 C0.07410156 7.03964844 0.08570313 8.14179687 0.09765625 9.27734375 C0 12 0 12 -1 13 C-3.35313555 13.07271741 -5.70833668 13.08370868 -8.0625 13.0625 C-9.35285156 13.05347656 -10.64320312 13.04445313 -11.97265625 13.03515625 C-12.97167969 13.02355469 -13.97070312 13.01195313 -15 13 C-14.67 12.01 -14.34 11.02 -14 10 C-11.9375 9.3125 -11.9375 9.3125 -10 9 C-9.67 7.68 -9.34 6.36 -9 5 C-8.34 5 -7.68 5 -7 5 C-7.66 3.35 -8.32 1.7 -9 0 C-2.25 -1.125 -2.25 -1.125 0 0 Z " fill="#34DCC1" transform="translate(60,92)"/>
<path d="M0 0 C0.92683594 0.00451172 1.85367188 0.00902344 2.80859375 0.01367188 C5.08079709 0.02538426 7.35286388 0.04178628 9.625 0.0625 C8.965 2.7025 8.305 5.3425 7.625 8.0625 C7.295 7.0725 6.965 6.0825 6.625 5.0625 C-0.965 5.0625 -8.555 5.0625 -16.375 5.0625 C-16.375 3.7425 -16.375 2.4225 -16.375 1.0625 C-10.89230931 -0.09414737 -5.57160726 -0.05166255 0 0 Z " fill="#655CFF" transform="translate(55.375,80.9375)"/>
<path d="M0 0 C1.81242052 -0.02687279 3.62495233 -0.04633715 5.4375 -0.0625 C6.44683594 -0.07410156 7.45617187 -0.08570313 8.49609375 -0.09765625 C11 0 11 0 12 1 C12.12487758 2.80927281 12.17570846 4.62396107 12.1875 6.4375 C12.20167969 7.42621094 12.21585938 8.41492188 12.23046875 9.43359375 C12 12 12 12 10 14 C9.608125 13.38125 9.21625 12.7625 8.8125 12.125 C7.14203942 9.81393332 7.14203942 9.81393332 4.4375 9.0625 C2 8 2 8 0.6875 5.5625 C0 3 0 3 0 0 Z " fill="#36D4D2" transform="translate(123,33)"/>
<path d="M0 0 C3.15973987 0.30092761 3.54183127 0.99323388 5.625 3.25 C6.49125 3.58 7.3575 3.91 8.25 4.25 C9.03375 4.58 9.8175 4.91 10.625 5.25 C10.955 6.24 11.285 7.23 11.625 8.25 C4.365 8.25 -2.895 8.25 -10.375 8.25 C-10.375 7.26 -10.375 6.27 -10.375 5.25 C-8.725 5.25 -7.075 5.25 -5.375 5.25 C-5.065625 4.610625 -4.75625 3.97125 -4.4375 3.3125 C-2.88764755 0.3039629 -2.88764755 0.3039629 0 0 Z " fill="#F6FCFD" transform="translate(120.375,37.75)"/>
<path d="M0 0 C2.31 0 4.62 0 7 0 C7.33 4.29 7.66 8.58 8 13 C6.68 13 5.36 13 4 13 C3.34 14.98 2.68 16.96 2 19 C1.34 19 0.68 19 0 19 C0 12.73 0 6.46 0 0 Z " fill="#6C76FE" transform="translate(98,54)"/>
<path d="M0 0 C1.32 0 2.64 0 4 0 C4 5.61 4 11.22 4 17 C4.99 17 5.98 17 7 17 C7 18.65 7 20.3 7 22 C4.69 22 2.38 22 0 22 C0 14.74 0 7.48 0 0 Z " fill="#41458F" transform="translate(26,80)"/>
<path d="M0 0 C6.6 0 13.2 0 20 0 C20 1.98 20 3.96 20 6 C13.4 5.67 6.8 5.34 0 5 C0 3.35 0 1.7 0 0 Z " fill="#34B0C6" transform="translate(98,49)"/>
<path d="M0 0 C0.33 0.66 0.66 1.32 1 2 C8.59 1.67 16.18 1.34 24 1 C24 1.66 24 2.32 24 3 C19.38 3 14.76 3 10 3 C10.99 4.485 10.99 4.485 12 6 C12.125 8.6875 12.125 8.6875 12 11 C12.99 11.33 13.98 11.66 15 12 C14.01 12.99 13.02 13.98 12 15 C8.125 13.25 8.125 13.25 7 11 C7.66 11 8.32 11 9 11 C9 9.02 9 7.04 9 5 C2.4 5 -4.2 5 -11 5 C-11 4.34 -11 3.68 -11 3 C-9.9275 3.020625 -8.855 3.04125 -7.75 3.0625 C-4.85209576 3.0142016 -2.71387859 2.86844115 0 2 C0 1.34 0 0.68 0 0 Z " fill="#86D9E3" transform="translate(109,44)"/>
<path d="M0 0 C4.62 0 9.24 0 14 0 C14 2.31 14 4.62 14 7 C9.38 7 4.76 7 0 7 C0 4.69 0 2.38 0 0 Z " fill="#A3C3FF" transform="translate(79,85)"/>
<path d="M0 0 C1.58206057 0.00667536 3.16410534 0.0186375 4.74609375 0.03515625 C5.55240234 0.03966797 6.35871094 0.04417969 7.18945312 0.04882812 C9.18753131 0.06065107 11.18557158 0.07858711 13.18359375 0.09765625 C12.57773437 0.39414063 11.971875 0.690625 11.34765625 0.99609375 C9.06915319 2.11804899 9.06915319 2.11804899 6.55859375 3.72265625 C4.18359375 5.09765625 4.18359375 5.09765625 2.18359375 5.09765625 C1.87421875 5.71640625 1.56484375 6.33515625 1.24609375 6.97265625 C0.55859375 8.34765625 -0.12890625 9.72265625 -0.81640625 11.09765625 C-2.13640625 11.09765625 -3.45640625 11.09765625 -4.81640625 11.09765625 C-4.84328776 9.45191059 -4.86274748 7.80604212 -4.87890625 6.16015625 C-4.89050781 5.24363281 -4.90210938 4.32710938 -4.9140625 3.3828125 C-4.74806315 -0.5015722 -4.08167578 0.10444411 0 0 Z " fill="#45AAE6" transform="translate(37.81640625,85.90234375)"/>
<path d="M0 0 C0.99 0.33 1.98 0.66 3 1 C2.57835981 2.98260599 2.13721222 4.96107245 1.6875 6.9375 C1.44386719 8.03964844 1.20023438 9.14179687 0.94921875 10.27734375 C0.63597656 11.17582031 0.32273437 12.07429688 0 13 C-0.99 13.33 -1.98 13.66 -3 14 C-3 12.68 -3 11.36 -3 10 C-3.66 10 -4.32 10 -5 10 C-5.33 10.99 -5.66 11.98 -6 13 C-7.32 12.01 -8.64 11.02 -10 10 C-7.78033137 5.04843152 -4.86798616 2.43399308 0 0 Z " fill="#6FC6E7" transform="translate(47,87)"/>
<path d="M0 0 C2.64 0 5.28 0 8 0 C8.31068741 3.41756151 8.3625104 5.40106977 6.5625 8.375 C2.79880462 10.76173366 -0.65956893 10.33387931 -5 10 C-1.25 4.25 -1.25 4.25 1 2 C0.67 1.34 0.34 0.68 0 0 Z " fill="#655BFE" transform="translate(119,86)"/>
<path d="M0 0 C1.32 0 2.64 0 4 0 C4 6.6 4 13.2 4 20 C2.68 19.67 1.36 19.34 0 19 C0 12.73 0 6.46 0 0 Z " fill="#3E3E8B" transform="translate(115,63)"/>
<path d="M0 0 C6.27 0 12.54 0 19 0 C19.33 1.98 19.66 3.96 20 6 C16.83772601 6 13.88359512 5.82985212 10.75 5.5 C9.85796875 5.4071875 8.9659375 5.314375 8.046875 5.21875 C7.37140625 5.1465625 6.6959375 5.074375 6 5 C6 4.01 6 3.02 6 2 C3.03 1.505 3.03 1.505 0 1 C0 0.67 0 0.34 0 0 Z " fill="#7FDAE2" transform="translate(7,58)"/>
<path d="M0 0 C1.67542976 0.28604898 3.34385343 0.61781233 5 1 C5.97477898 4.72188336 6.12816587 6.64248468 4.8125 10.3125 C3 13 3 13 0.88671875 13.66796875 C0.26410156 13.77753906 -0.35851562 13.88710938 -1 14 C-1.02685938 11.85423363 -1.04633088 9.70837355 -1.0625 7.5625 C-1.07410156 6.36753906 -1.08570312 5.17257813 -1.09765625 3.94140625 C-1 1 -1 1 0 0 Z " fill="#31C6DF" transform="translate(106,33)"/>
<path d="M0 0 C8.58 0 17.16 0 26 0 C25.67 0.99 25.34 1.98 25 3 C17.08 3 9.16 3 1 3 C0.67 2.01 0.34 1.02 0 0 Z " fill="#4C4CA0" transform="translate(101,124)"/>
<path d="M0 0 C4.29 0 8.58 0 13 0 C11.02 0.99 11.02 0.99 9 2 C9 2.66 9 3.32 9 4 C7.5 5.625 7.5 5.625 6 7 C6.66 7 7.32 7 8 7 C7.67 7.99 7.34 8.98 7 10 C6.34 10 5.68 10 5 10 C5 10.66 5 11.32 5 12 C4.34 12 3.68 12 3 12 C2.67 12.66 2.34 13.32 2 14 C1.34 13.34 0.68 12.68 0 12 C1.32 11.01 2.64 10.02 4 9 C3.34 8.67 2.68 8.34 2 8 C1.10199905 5.37805894 0.60232897 2.71048036 0 0 Z " fill="#34D5CE" transform="translate(119,47)"/>
<path d="M0 0 C1.58206057 0.00667536 3.16410534 0.0186375 4.74609375 0.03515625 C5.55240234 0.03966797 6.35871094 0.04417969 7.18945312 0.04882812 C9.18753131 0.06065107 11.18557158 0.07858711 13.18359375 0.09765625 C12.85359375 1.41765625 12.52359375 2.73765625 12.18359375 4.09765625 C11.6215625 3.93394531 11.05953125 3.77023438 10.48046875 3.6015625 C8.05300319 3.06900628 5.91469694 2.99866944 3.43359375 3.03515625 C2.03109375 3.05578125 0.62859375 3.07640625 -0.81640625 3.09765625 C-1.80640625 6.39765625 -2.79640625 9.69765625 -3.81640625 13.09765625 C-4.14640625 13.09765625 -4.47640625 13.09765625 -4.81640625 13.09765625 C-4.84327178 11.11856227 -4.86274 9.13936654 -4.87890625 7.16015625 C-4.89050781 6.05800781 -4.90210937 4.95585938 -4.9140625 3.8203125 C-4.76201869 -0.41866885 -4.42989555 0.11335454 0 0 Z " fill="#42C1EE" transform="translate(109.81640625,95.90234375)"/>
<path d="M0 0 C0.33 0 0.66 0 1 0 C1.02685095 2.47923801 1.04676547 4.9581884 1.0625 7.4375 C1.07087891 8.14455078 1.07925781 8.85160156 1.08789062 9.58007812 C1.09653588 11.38693559 1.05220011 13.19387603 1 15 C0 16 0 16 -3.59765625 16.09765625 C-5.08596867 16.0909822 -6.57426432 16.07902183 -8.0625 16.0625 C-8.82111328 16.05798828 -9.57972656 16.05347656 -10.36132812 16.04882812 C-12.24091871 16.0370068 -14.12046899 16.01907078 -16 16 C-16.625 13.6875 -16.625 13.6875 -17 11 C-16.34 10.01 -15.68 9.02 -15 8 C-14.649375 8.804375 -14.29875 9.60875 -13.9375 10.4375 C-12.14988251 13.32021123 -12.14988251 13.32021123 -8.5625 14.0625 C-5.01746545 14.31201155 -5.01746545 14.31201155 -2.5625 12.4375 C-0.60564106 9.38480006 -0.61249948 7.56500476 -1 4 C-1.33 3.34 -1.66 2.68 -2 2 C-1.34 2 -0.68 2 0 2 C0 1.34 0 0.68 0 0 Z " fill="#36DBC9" transform="translate(122,98)"/>
<path d="M0 0 C11.22 0 22.44 0 34 0 C34 0.66 34 1.32 34 2 C26.08 2 18.16 2 10 2 C10 2.66 10 3.32 10 4 C9.01 4 8.02 4 7 4 C7 3.34 7 2.68 7 2 C4.69 2 2.38 2 0 2 C0 1.34 0 0.68 0 0 Z " fill="#79D5E4" transform="translate(34,45)"/>
<path d="M0 0 C9.57 0 19.14 0 29 0 C29.33 1.32 29.66 2.64 30 4 C29.01 4 28.02 4 27 4 C27 3.34 27 2.68 27 2 C18.09 2 9.18 2 0 2 C0 1.34 0 0.68 0 0 Z " fill="#46D6D4" transform="translate(68,45)"/>
<path d="M0 0 C2.31 0 4.62 0 7 0 C7 1.65 7 3.3 7 5 C3.37 5 -0.26 5 -4 5 C-4 6.65 -4 8.3 -4 10 C-5.32 10 -6.64 10 -8 10 C-8 8.02 -8 6.04 -8 4 C-5.36 4 -2.72 4 0 4 C0 2.68 0 1.36 0 0 Z " fill="#3D418D" transform="translate(34,49)"/>
<path d="M0 0 C1.24716797 0.00322266 2.49433594 0.00644531 3.77929688 0.00976562 C5.07287109 0.01814453 6.36644531 0.02652344 7.69921875 0.03515625 C9.66858398 0.04192383 9.66858398 0.04192383 11.67773438 0.04882812 C14.91410885 0.06059676 18.15039053 0.07703865 21.38671875 0.09765625 C21.05671875 0.75765625 20.72671875 1.41765625 20.38671875 2.09765625 C19.73074707 2.11747559 19.07477539 2.13729492 18.39892578 2.15771484 C15.43610806 2.25278132 12.47401343 2.36253377 9.51171875 2.47265625 C7.96291016 2.5190625 7.96291016 2.5190625 6.3828125 2.56640625 C4.90361328 2.62441406 4.90361328 2.62441406 3.39453125 2.68359375 C2.4833252 2.71501465 1.57211914 2.74643555 0.63330078 2.77880859 C-1.81259311 2.89648136 -1.81259311 2.89648136 -3.61328125 5.09765625 C-6.34197532 5.06478042 -8.90994305 4.53367854 -11.61328125 4.09765625 C-11.61328125 3.10765625 -11.61328125 2.11765625 -11.61328125 1.09765625 C-7.68039761 0.16677716 -4.03673962 -0.0184326 0 0 Z " fill="#D9D9E8" transform="translate(106.61328125,125.90234375)"/>
<path d="M0 0 C0.99 0 1.98 0 3 0 C3 4.62 3 9.24 3 14 C2.34 14 1.68 14 1 14 C1 14.66 1 15.32 1 16 C0.34 16 -0.32 16 -1 16 C-1.02701408 13.89590361 -1.04640223 11.79170822 -1.0625 9.6875 C-1.07410156 8.51574219 -1.08570312 7.34398438 -1.09765625 6.13671875 C-1 3 -1 3 0 0 Z " fill="#6C73FE" transform="translate(124,92)"/>
<path d="M0 0 C2.31 0 4.62 0 7 0 C7.33 0.66 7.66 1.32 8 2 C7.67 2.99 7.34 3.98 7 5 C6.360625 5.309375 5.72125 5.61875 5.0625 5.9375 C2.54531085 7.2342338 2.03113052 8.4221737 1 11 C0.67 11 0.34 11 0 11 C0 7.37 0 3.74 0 0 Z " fill="#5935FF" transform="translate(102,86)"/>
<path d="M0 0 C0 1.98 0 3.96 0 6 C-1.670625 6.2165625 -1.670625 6.2165625 -3.375 6.4375 C-6.82142047 6.78372035 -6.82142047 6.78372035 -9 8 C-9 7.01 -9 6.02 -9 5 C-8.34 5 -7.68 5 -7 5 C-7.66 3.35 -8.32 1.7 -9 0 C-2.25 -1.125 -2.25 -1.125 0 0 Z " fill="#40D5D0" transform="translate(60,92)"/>
<path d="M0 0 C2.31 0 4.62 0 7 0 C7 0.66 7 1.32 7 2 C6.01 2 5.02 2 4 2 C5.1094072 5.48670834 6.26337666 8.77484237 8 12 C6.35 11.67 4.7 11.34 3 11 C3 9.68 3 8.36 3 7 C2.01 7 1.02 7 0 7 C0 4.69 0 2.38 0 0 Z " fill="#3DCBDE" transform="translate(13,65)"/>
<path d="M0 0 C3.3 0 6.6 0 10 0 C10 0.99 10 1.98 10 3 C9.21625 3.0825 8.4325 3.165 7.625 3.25 C4.8553382 3.70849401 4.8553382 3.70849401 3.875 6 C3.58625 6.66 3.2975 7.32 3 8 C2.01 8.33 1.02 8.66 0 9 C0 6.03 0 3.06 0 0 Z " fill="#3DBCDD" transform="translate(105,54)"/>
<path d="M0 0 C6.875 0.875 6.875 0.875 8 2 C8.33 1.34 8.66 0.68 9 0 C9.66 0 10.32 0 11 0 C10.67 1.65 10.34 3.3 10 5 C6.7 5 3.4 5 0 5 C0 3.35 0 1.7 0 0 Z " fill="#36AEC6" transform="translate(33,97)"/>
<path d="M0 0 C1.23556641 0.01740234 1.23556641 0.01740234 2.49609375 0.03515625 C3.32238281 0.04417969 4.14867187 0.05320312 5 0.0625 C5.63808594 0.07410156 6.27617188 0.08570312 6.93359375 0.09765625 C6.60359375 0.75765625 6.27359375 1.41765625 5.93359375 2.09765625 C5.27359375 2.09765625 4.61359375 2.09765625 3.93359375 2.09765625 C3.93359375 2.75765625 3.93359375 3.41765625 3.93359375 4.09765625 C3.29421875 4.20078125 2.65484375 4.30390625 1.99609375 4.41015625 C1.31546875 4.63703125 0.63484375 4.86390625 -0.06640625 5.09765625 C-0.39640625 6.08765625 -0.72640625 7.07765625 -1.06640625 8.09765625 C-1.72640625 8.09765625 -2.38640625 8.09765625 -3.06640625 8.09765625 C-3.10882348 5.7647085 -3.10733562 3.43063058 -3.06640625 1.09765625 C-2.06640625 0.09765625 -2.06640625 0.09765625 0 0 Z " fill="#3F9BE9" transform="translate(36.06640625,85.90234375)"/>
<path d="M0 0 C1.98 0.66 3.96 1.32 6 2 C6 3.65 6 5.3 6 7 C1.71 7 -2.58 7 -7 7 C-7 6.67 -7 6.34 -7 6 C-5.5459375 5.62875 -5.5459375 5.62875 -4.0625 5.25 C-2.5465625 4.63125 -2.5465625 4.63125 -1 4 C-0.03122943 1.96756452 -0.03122943 1.96756452 0 0 Z " fill="#34D8C4" transform="translate(28,73)"/>
<path d="M0 0 C0.33 0 0.66 0 1 0 C1.36 5.4 1.36 5.4 -0.125 7.875 C-2.78034983 9.4682099 -4.96789518 9.20214032 -8 9 C-8 7.68 -8 6.36 -8 5 C-6.02 5.495 -6.02 5.495 -4 6 C-3.67 5.01 -3.34 4.02 -3 3 C-2.34 3 -1.68 3 -1 3 C-0.67 2.01 -0.34 1.02 0 0 Z " fill="#39D6D8" transform="translate(119,102)"/>
<path d="M0 0 C0.99 0.33 1.98 0.66 3 1 C2.67 2.32 2.34 3.64 2 5 C-1.63 5 -5.26 5 -9 5 C-9.33 4.01 -9.66 3.02 -10 2 C-6.7 2 -3.4 2 0 2 C0 1.34 0 0.68 0 0 Z " fill="#4ED3D7" transform="translate(43,100)"/>
<path d="M0 0 C0.33 0 0.66 0 1 0 C1 2.31 1 4.62 1 7 C-2.96 7 -6.92 7 -11 7 C-10 5 -10 5 -7.125 3.875 C-4 3 -4 3 -1 3 C-0.67 2.01 -0.34 1.02 0 0 Z " fill="#7896FE" transform="translate(126,117)"/>
<path d="M0 0 C0.33 0 0.66 0 1 0 C1 3.3 1 6.6 1 10 C-3 9 -3 9 -5 7 C-4.34 7 -3.68 7 -3 7 C-3.66 6.01 -4.32 5.02 -5 4 C-5 3.01 -5 2.02 -5 1 C-2.525 1.495 -2.525 1.495 0 2 C0 1.34 0 0.68 0 0 Z " fill="#4BD0D5" transform="translate(33,65)"/>
<path d="M0 0 C0 0.33 0 0.66 0 1 C-1.98 1 -3.96 1 -6 1 C-6 3.64 -6 6.28 -6 9 C-8.64 8.67 -11.28 8.34 -14 8 C-14 7.67 -14 7.34 -14 7 C-12.35 6.67 -10.7 6.34 -9 6 C-8.67 4.68 -8.34 3.36 -8 2 C-9.98 2 -11.96 2 -14 2 C-14 1.67 -14 1.34 -14 1 C-9.32798795 -0.20568053 -4.78503708 -0.09382426 0 0 Z " fill="#89D9E8" transform="translate(21,33)"/>
<path d="M0 0 C2.31 0 4.62 0 7 0 C7 1.65 7 3.3 7 5 C4.69 5 2.38 5 0 5 C0 3.35 0 1.7 0 0 Z " fill="#3C3E8A" transform="translate(98,49)"/>
<path d="M0 0 C6.6 0 13.2 0 20 0 C20 0.99 20 1.98 20 3 C13.4 2.34 6.8 1.68 0 1 C0 0.67 0 0.34 0 0 Z " fill="#41D1D8" transform="translate(14,32)"/>
<path d="M0 0 C0.99 0.33 1.98 0.66 3 1 C3.33 3.31 3.66 5.62 4 8 C3.01 8.495 3.01 8.495 2 9 C1.67 9.99 1.34 10.98 1 12 C-0.32 11.67 -1.64 11.34 -3 11 C-2.484375 10.46375 -1.96875 9.9275 -1.4375 9.375 C0.47545079 6.2144726 -0.21992185 4.51035166 -1 1 C-0.67 0.67 -0.34 0.34 0 0 Z " fill="#FAFDFE" transform="translate(26,64)"/>
<path d="M0 0 C0.99 0 1.98 0 3 0 C3 3.96 3 7.92 3 12 C2.01 11.67 1.02 11.34 0 11 C0 7.37 0 3.74 0 0 Z " fill="#3B95D7" transform="translate(41,49)"/>
<path d="M0 0 C1.67542976 0.28604898 3.34385343 0.61781233 5 1 C4.67 2.32 4.34 3.64 4 5 C2.68 5.33 1.36 5.66 0 6 C-0.38218767 4.34385343 -0.71395102 2.67542976 -1 1 C-0.67 0.67 -0.34 0.34 0 0 Z " fill="#4AD0DC" transform="translate(22,67)"/>
<path d="M0 0 C0.99 0.66 1.98 1.32 3 2 C3 2.66 3 3.32 3 4 C3.99 4 4.98 4 6 4 C5.67 4.99 5.34 5.98 5 7 C4.34 7 3.68 7 3 7 C3 7.66 3 8.32 3 9 C2.34 9 1.68 9 1 9 C0.67 9.66 0.34 10.32 0 11 C-0.66 10.34 -1.32 9.68 -2 9 C-0.68 8.01 0.64 7.02 2 6 C1.34 5.67 0.68 5.34 0 5 C0 3.35 0 1.7 0 0 Z " fill="#45D9D0" transform="translate(121,50)"/>
<path d="M0 0 C0.66 0 1.32 0 2 0 C2 1.65 2 3.3 2 5 C2.99 5.33 3.98 5.66 5 6 C4.01 6.99 3.02 7.98 2 9 C-1.875 7.25 -1.875 7.25 -3 5 C-2.01 5 -1.02 5 0 5 C0 3.35 0 1.7 0 0 Z " fill="#F4FBFC" transform="translate(119,50)"/>
<path d="M0 0 C2.31 0.33 4.62 0.66 7 1 C7.33 1.99 7.66 2.98 8 4 C5.03 4 2.06 4 -1 4 C-0.67 2.68 -0.34 1.36 0 0 Z " fill="#31C6DE" transform="translate(14,59)"/>
<path d="M0 0 C0.61875 0.804375 1.2375 1.60875 1.875 2.4375 C3.74164041 5.03874519 3.74164041 5.03874519 6 6 C6 6.66 6 7.32 6 8 C4.02 8 2.04 8 0 8 C-0.79953138 4.71303767 -1.09658936 3.28976808 0 0 Z " fill="#3CD1E1" transform="translate(106,106)"/>
<path d="M0 0 C0.66 0 1.32 0 2 0 C1.34 3.3 0.68 6.6 0 10 C-0.99 10.33 -1.98 10.66 -3 11 C-2.69217504 9.35328588 -2.37860766 7.70764424 -2.0625 6.0625 C-1.88847656 5.14597656 -1.71445312 4.22945313 -1.53515625 3.28515625 C-1 1 -1 1 0 0 Z " fill="#DAF3F6" transform="translate(47,90)"/>
<path d="M0 0 C0 3.10551666 -0.5393715 4.35261084 -2 7 C-3.98 7 -5.96 7 -8 7 C-7.67 6.01 -7.34 5.02 -7 4 C-5.35448038 3.28272222 -3.68577711 2.61674772 -2 2 C-1.34 1.34 -0.68 0.68 0 0 Z " fill="#3CD8CA" transform="translate(53,98)"/>
<path d="M0 0 C1.98 0.99 1.98 0.99 4 2 C4 3.65 4 5.3 4 7 C2.68 7 1.36 7 0 7 C0 4.69 0 2.38 0 0 Z " fill="#37C2C6" transform="translate(115,56)"/>
<path d="M0 0 C1.42944945 2.35438733 2.08661261 3.48032433 1.625 6.25 C1.41875 6.8275 1.2125 7.405 1 8 C0.01 8 -0.98 8 -2 8 C-2.125 5.125 -2.125 5.125 -2 2 C-1.34 1.34 -0.68 0.68 0 0 Z " fill="#6763FF" transform="translate(104,109)"/>
<path d="M0 0 C3.96 0 7.92 0 12 0 C11 2 11 2 9.375 2.75 C5.96334563 3.10912151 3.22534792 2.05444067 0 1 C0 0.67 0 0.34 0 0 Z " fill="#7ED8E4" transform="translate(110,33)"/>
<path d="M0 0 C2.97 0 5.94 0 9 0 C8.67 0.66 8.34 1.32 8 2 C5.35139573 2.59355614 2.70802678 2.74209269 0 3 C0 2.01 0 1.02 0 0 Z " fill="#4A93EC" transform="translate(34,86)"/>
<path d="M0 0 C1.32 0 2.64 0 4 0 C3.67 1.65 3.34 3.3 3 5 C1.68 5 0.36 5 -1 5 C-0.67 3.35 -0.34 1.7 0 0 Z " fill="#34C1C4" transform="translate(47,97)"/>
<path d="M0 0 C0.66 0.33 1.32 0.66 2 1 C1.34 2.65 0.68 4.3 0 6 C-1.32 6 -2.64 6 -4 6 C-3.67 4.68 -3.34 3.36 -3 2 C-2.01 2 -1.02 2 0 2 C0 1.34 0 0.68 0 0 Z " fill="#74D5E5" transform="translate(115,37)"/>
<path d="M0 0 C0.66 0.66 1.32 1.32 2 2 C1.625 5.625 1.625 5.625 1 9 C0.34 9 -0.32 9 -1 9 C-1.09765625 2.84765625 -1.09765625 2.84765625 -1 1 C-0.67 0.67 -0.34 0.34 0 0 Z " fill="#3E9BE9" transform="translate(42,59)"/>
<path d="M0 0 C1.98 0.99 1.98 0.99 4 2 C4 2.99 4 3.98 4 5 C2 6.6875 2 6.6875 0 8 C0 7.01 0 6.02 0 5 C0.66 5 1.32 5 2 5 C1.34 3.35 0.68 1.7 0 0 Z " fill="#E0F5F7" transform="translate(51,92)"/>
<path d="M0 0 C2 3.875 2 3.875 2 5 C-0.31 5 -2.62 5 -5 5 C-3.35 3.35 -1.7 1.7 0 0 Z " fill="#BCD6FF" transform="translate(84,113)"/>
<path d="M0 0 C1.32 0 2.64 0 4 0 C3.67 1.65 3.34 3.3 3 5 C2.01 4.67 1.02 4.34 0 4 C0 2.68 0 1.36 0 0 Z " fill="#34ACC5" transform="translate(26,59)"/>
<path d="M0 0 C2.31 0 4.62 0 7 0 C6.0409375 0.433125 6.0409375 0.433125 5.0625 0.875 C2.84793921 1.82823451 2.84793921 1.82823451 2 4 C1.01 4 0.02 4 -1 4 C-0.67 2.68 -0.34 1.36 0 0 Z " fill="#46ADF5" transform="translate(106,96)"/>
<path d="M0 0 C2.475 0.495 2.475 0.495 5 1 C5 1.33 5 1.66 5 2 C3.35 2 1.7 2 0 2 C0 1.34 0 0.68 0 0 Z " fill="#EAEBF2" transform="translate(7,69)"/>
</svg>
