<?xml version="1.0" encoding="UTF-8"?>
<svg version="1.1" xmlns="http://www.w3.org/2000/svg" width="150" height="150">
<path d="M0 0 C2.97 0.33 5.94 0.66 9 1 C9 2.98 9 4.96 9 7 C13.33927969 8.83695434 13.33927969 8.83695434 17.875 8.125 C18.926875 7.568125 18.926875 7.568125 20 7 C23 12.75 23 12.75 23 15 C23.85464844 14.98839844 24.70929688 14.97679687 25.58984375 14.96484375 C26.69457031 14.95582031 27.79929687 14.94679688 28.9375 14.9375 C30.03964844 14.92589844 31.14179688 14.91429687 32.27734375 14.90234375 C35 15 35 15 36 16 C36.08748207 17.92667507 36.10697334 19.85651861 36.09765625 21.78515625 C36.09443359 22.95498047 36.09121094 24.12480469 36.08789062 25.33007812 C36.07951172 26.56177734 36.07113281 27.79347656 36.0625 29.0625 C36.05798828 30.29806641 36.05347656 31.53363281 36.04882812 32.80664062 C36.03699608 35.87114117 36.02051173 38.93554721 36 42 C37.98 41.01 37.98 41.01 40 40 C41.5625 41.0625 41.5625 41.0625 43 43 C42.6875 46.6875 42.6875 46.6875 42 50 C42.66 50 43.32 50 44 50 C44 51.65 44 53.3 44 55 C41.03 55.99 41.03 55.99 38 57 C38 58.32 38 59.64 38 61 C36.35 61 34.7 61 33 61 C32.67 60.01 32.34 59.02 32 58 C28.535 58.495 28.535 58.495 25 59 C22.90348525 55.54691689 22.90348525 55.54691689 23.375 52.875 C23.58125 52.25625 23.7875 51.6375 24 51 C24 50.34 24 49.68 24 49 C22.515 48.505 22.515 48.505 21 48 C21.33 47.01 21.66 46.02 22 45 C21.34 45 20.68 45 20 45 C20 51.6 20 58.2 20 65 C22.31 65 24.62 65 27 65 C28 66 28 66 28.11352539 69.96899414 C28.1133662 71.74105607 28.10766785 73.5131226 28.09765625 75.28515625 C28.0962413 76.21597519 28.09482635 77.14679413 28.09336853 78.1058197 C28.08775172 81.09141191 28.0751964 84.07693029 28.0625 87.0625 C28.05748716 89.08137913 28.05292388 91.10025943 28.04882812 93.11914062 C28.03777683 98.07945572 28.02050095 103.03971532 28 108 C30.31 108.66 32.62 109.32 35 110 C34 112 34 112 32.34521484 112.61450195 C27.49200924 113.41225457 22.54404055 113.18590312 17.63769531 113.18530273 C15.63863013 113.18748512 13.63960468 113.20599143 11.640625 113.22460938 C10.36960937 113.22654297 9.09859375 113.22847656 7.7890625 113.23046875 C6.63100098 113.23457764 5.47293945 113.23868652 4.27978516 113.24291992 C0.88689046 112.99162245 -1.83332989 112.21173908 -5 111 C-4.67 110.34 -4.34 109.68 -4 109 C-1.4375 108.375 -1.4375 108.375 1 108 C0.32142944 107.99191315 -0.35714111 107.98382629 -1.05627441 107.97549438 C-8.19572947 107.88863335 -15.33493245 107.7891071 -22.47412109 107.68261719 C-25.12938188 107.64363425 -27.7845665 107.60971702 -30.43994141 107.578125 C-71.55139909 107.08299265 -71.55139909 107.08299265 -80 101 C-81.5 97.75 -81.5 97.75 -82 95 C-83.98 95 -85.96 95 -88 95 C-88.66 92.69 -89.32 90.38 -90 88 C-88.515 87.01 -88.515 87.01 -87 86 C-85.99067254 83.04965818 -85.75591887 81.6020668 -86.9375 78.6875 C-87.288125 78.130625 -87.63875 77.57375 -88 77 C-86.35 75.68 -84.7 74.36 -83 73 C-82.01 73.66 -81.02 74.32 -80 75 C-78.00016466 74.20882096 -78.00016466 74.20882096 -76 73 C-75.505 71.515 -75.505 71.515 -75 70 C-74.34 70 -73.68 70 -73 70 C-73 68.35 -73 66.7 -73 65 C-79.27 65 -85.54 65 -92 65 C-92 64.34 -92 63.68 -92 63 C-89.03 62.505 -89.03 62.505 -86 62 C-86 61.01 -86 60.02 -86 59 C-87.98 59 -89.96 59 -92 59 C-92 58.34 -92 57.68 -92 57 C-90.02 57 -88.04 57 -86 57 C-86 55.68 -86 54.36 -86 53 C-87.98 53 -89.96 53 -92 53 C-92 52.34 -92 51.68 -92 51 C-90.02 51 -88.04 51 -86 51 C-86 49.68 -86 48.36 -86 47 C-87.98 47 -89.96 47 -92 47 C-92 46.34 -92 45.68 -92 45 C-90.02 45 -88.04 45 -86 45 C-86 44.01 -86 43.02 -86 42 C-87.98 41.67 -89.96 41.34 -92 41 C-92 40.67 -92 40.34 -92 40 C-85.73 40 -79.46 40 -73 40 C-73 38.35 -73 36.7 -73 35 C-79.27 35 -85.54 35 -92 35 C-92 34.67 -92 34.34 -92 34 C-89.525 33.505 -89.525 33.505 -87 33 C-86.67 31.68 -86.34 30.36 -86 29 C-87.98 29 -89.96 29 -92 29 C-92 28.67 -92 28.34 -92 28 C-90.35 27.67 -88.7 27.34 -87 27 C-86.67 25.68 -86.34 24.36 -86 23 C-87.98 23 -89.96 23 -92 23 C-92 22.67 -92 22.34 -92 22 C-90.35 21.67 -88.7 21.34 -87 21 C-86.67 19.68 -86.34 18.36 -86 17 C-87.98 17 -89.96 17 -92 17 C-92 16.67 -92 16.34 -92 16 C-86.11060037 13.95887931 -80.8280285 13.72721958 -74.625 13.8125 C-73.25408203 13.8134668 -73.25408203 13.8134668 -71.85546875 13.81445312 C-65.14064837 13.85935163 -65.14064837 13.85935163 -64 15 C-61.19023482 15.16017166 -58.40226404 15.25950534 -55.58984375 15.31640625 C-54.74780899 15.33718735 -53.90577423 15.35796844 -53.03822327 15.37937927 C-50.33806821 15.44496812 -47.63781283 15.50380276 -44.9375 15.5625 C-43.11131759 15.60567637 -41.28514546 15.64929036 -39.45898438 15.69335938 C-34.97276008 15.80065894 -30.4864345 15.90189966 -26 16 C-26 16.33 -26 16.66 -26 17 C-38.87 17 -51.74 17 -65 17 C-64.67 18.32 -64.34 19.64 -64 21 C-51.46 21.33 -38.92 21.66 -26 22 C-26 22.33 -26 22.66 -26 23 C-38.87 23 -51.74 23 -65 23 C-64.67 24.32 -64.34 25.64 -64 27 C-57.2368554 26.95838419 -50.4745373 26.88611085 -43.71191406 26.79248047 C-41.41120873 26.76424896 -39.11040601 26.74304534 -36.80957031 26.72900391 C-33.50274721 26.70760514 -30.19709774 26.66096892 -26.890625 26.609375 C-25.86132874 26.60814636 -24.83203247 26.60691772 -23.77154541 26.60565186 C-18.19757302 26.57156637 -18.19757302 26.57156637 -13.35058594 24.11816406 C-11.63664039 21.43013233 -11.37408703 20.12956487 -12 17 C-13.89584109 14.68622853 -13.89584109 14.68622853 -16 13 C-14.35 10.69 -12.7 8.38 -11 6 C-10.071875 6.37125 -9.14375 6.7425 -8.1875 7.125 C-7.135625 7.41375 -6.08375 7.7025 -5 8 C-1.39345961 5.59563974 -1.14547068 4.05320393 0 0 Z M-2.9375 14.0625 C-5.53327109 17.7595073 -5.71253588 19.56644342 -5 24 C-3.59121904 26.9901643 -3.59121904 26.9901643 -1 29 C2.64182335 29.89055736 2.64182335 29.89055736 6 30 C6.03738281 29.01257813 6.07476562 28.02515625 6.11328125 27.0078125 C6.17902344 25.72648437 6.24476562 24.44515625 6.3125 23.125 C6.37050781 21.84882812 6.42851563 20.57265625 6.48828125 19.2578125 C6.65714844 18.18273437 6.82601562 17.10765625 7 16 C7.99 15.34 8.98 14.68 10 14 C5.32834072 10.88556048 1.69263351 10.81155519 -2.9375 14.0625 Z M-65 29 C-65 29.66 -65 30.32 -65 31 C-62.69 31 -60.38 31 -58 31 C-58 30.34 -58 29.68 -58 29 C-60.31 29 -62.62 29 -65 29 Z M28 47 C27.6366844 49.83386167 27.6431329 51.40522151 29.125 53.875 C31.92151052 55.55290631 33.93690532 54.74875648 37 54 C37.67673447 50.59679066 37.67673447 50.59679066 38 47 C36.11499729 44.68436913 36.11499729 44.68436913 33 44.75 C29.88500271 44.68436913 29.88500271 44.68436913 28 47 Z M-79.25 80.625 C-81.21985834 82.92308586 -81.21985834 82.92308586 -81.5 86 C-81.21376982 89.06575838 -81.21376982 89.06575838 -79.3125 91.375 C-76.61209763 93.27258004 -75.22939919 93.35882213 -72 93 C-71.85024761 85.94348748 -71.85024761 85.94348748 -73 79 C-76.92212225 78.60967296 -76.92212225 78.60967296 -79.25 80.625 Z M-65 98 C-65.99 97.34 -66.98 96.68 -68 96 C-70.53673288 97.3553326 -70.53673288 97.3553326 -73 99 C-73 99.66 -73 100.32 -73 101 C-61.78 100.01 -50.56 99.02 -39 98 C-38.67 97.01 -38.34 96.02 -38 95 C-41.74985325 94.9128253 -45.49944555 94.85954997 -49.25 94.8125 C-50.31347656 94.78736328 -51.37695312 94.76222656 -52.47265625 94.73632812 C-54.00986328 94.72182617 -54.00986328 94.72182617 -55.578125 94.70703125 C-56.99206543 94.68346558 -56.99206543 94.68346558 -58.43457031 94.65942383 C-61.42310174 95.05616929 -62.77689217 96.01704271 -65 98 Z M-14 95 C-14 95.99 -14 96.98 -14 98 C-8.72 98.33 -3.44 98.66 2 99 C2 97.68 2 96.36 2 95 C-3.28 95 -8.56 95 -14 95 Z " fill="#5D51FC" transform="translate(99,18)"/>
<path d="M0 0 C2.31 0 4.62 0 7 0 C7 2.97 7 5.94 7 9 C11.62 9 16.24 9 21 9 C21 15.6 21 22.2 21 29 C23.31 29 25.62 29 28 29 C29 30 29 30 29.11352539 33.96899414 C29.1133662 35.74105607 29.10766785 37.5131226 29.09765625 39.28515625 C29.0962413 40.21597519 29.09482635 41.14679413 29.09336853 42.1058197 C29.08775172 45.09141191 29.0751964 48.07693029 29.0625 51.0625 C29.05748716 53.08137913 29.05292388 55.10025943 29.04882812 57.11914062 C29.03777683 62.07945572 29.02050095 67.03971532 29 72 C31.31 72.66 33.62 73.32 36 74 C35 76 35 76 33.34521484 76.61450195 C28.49200924 77.41225457 23.54404055 77.18590312 18.63769531 77.18530273 C16.63863013 77.18748512 14.63960468 77.20599143 12.640625 77.22460938 C11.36960937 77.22654297 10.09859375 77.22847656 8.7890625 77.23046875 C7.63100098 77.23457764 6.47293945 77.23868652 5.27978516 77.24291992 C1.88689046 76.99162245 -0.83332989 76.21173908 -4 75 C-3.67 74.34 -3.34 73.68 -3 73 C-0.4375 72.375 -0.4375 72.375 2 72 C1.32142944 71.99191315 0.64285889 71.98382629 -0.05627441 71.97549438 C-7.19572947 71.88863335 -14.33493245 71.7891071 -21.47412109 71.68261719 C-24.12938188 71.64363425 -26.7845665 71.60971702 -29.43994141 71.578125 C-70.55139909 71.08299265 -70.55139909 71.08299265 -79 65 C-80.5 61.75 -80.5 61.75 -81 59 C-82.98 59 -84.96 59 -87 59 C-87.99 55.535 -87.99 55.535 -89 52 C-88.01 51.34 -87.02 50.68 -86 50 C-84.99067254 47.04965818 -84.75591887 45.6020668 -85.9375 42.6875 C-86.288125 42.130625 -86.63875 41.57375 -87 41 C-85.35 39.68 -83.7 38.36 -82 37 C-81.01 37.66 -80.02 38.32 -79 39 C-77.00016466 38.20882096 -77.00016466 38.20882096 -75 37 C-74.67 36.01 -74.34 35.02 -74 34 C-73.34 34 -72.68 34 -72 34 C-72 36.97 -72 39.94 -72 43 C-72.969375 43.28875 -73.93875 43.5775 -74.9375 43.875 C-78.10664203 44.64214682 -78.10664203 44.64214682 -79 47 C-79.40270732 51.1283652 -79.40270732 51.1283652 -77.8125 54.8125 C-75.57968261 56.27538036 -73.62655933 56.64505955 -71 57 C-71 54.03 -71 51.06 -71 48 C-69.02 48 -67.04 48 -65 48 C-64.67 48.66 -64.34 49.32 -64 50 C-55.75 50 -47.5 50 -39 50 C-38.505 49.01 -38.505 49.01 -38 48 C-24.47 48 -10.94 48 3 48 C3 46.35 3 44.7 3 43 C2.22285645 43.01571045 1.44571289 43.0314209 0.64501953 43.04760742 C-2.8615802 43.10980351 -6.36806413 43.14894207 -9.875 43.1875 C-11.70998047 43.22520508 -11.70998047 43.22520508 -13.58203125 43.26367188 C-15.33193359 43.27817383 -15.33193359 43.27817383 -17.1171875 43.29296875 C-18.73536377 43.31653442 -18.73536377 43.31653442 -20.38623047 43.34057617 C-21.24877441 43.22818604 -22.11131836 43.1157959 -23 43 C-23.66 42.01 -24.32 41.02 -25 40 C-23.68 39.67 -22.36 39.34 -21 39 C-22.485 38.505 -22.485 38.505 -24 38 C-24 35.69 -24 33.38 -24 31 C-23.36191406 30.87882812 -22.72382812 30.75765625 -22.06640625 30.6328125 C-21.24011719 30.46523437 -20.41382812 30.29765625 -19.5625 30.125 C-18.73878906 29.96257812 -17.91507812 29.80015625 -17.06640625 29.6328125 C-16.38449219 29.42398438 -15.70257813 29.21515625 -15 29 C-14.67 28.34 -14.34 27.68 -14 27 C-11.3125 26.62109375 -11.3125 26.62109375 -8 26.4375 C-4.18265388 26.54568981 -4.18265388 26.54568981 -1 25 C-0.84213692 23.14825294 -0.74892644 21.2909089 -0.68359375 19.43359375 C-0.64169922 18.30888672 -0.59980469 17.18417969 -0.55664062 16.02539062 C-0.51732422 14.84138672 -0.47800781 13.65738281 -0.4375 12.4375 C-0.37272461 10.65569336 -0.37272461 10.65569336 -0.30664062 8.83789062 C-0.20016454 5.89205216 -0.09815159 2.9461257 0 0 Z M-64 62 C-64.99 61.34 -65.98 60.68 -67 60 C-69.53673288 61.3553326 -69.53673288 61.3553326 -72 63 C-72 63.66 -72 64.32 -72 65 C-60.78 64.01 -49.56 63.02 -38 62 C-37.67 61.01 -37.34 60.02 -37 59 C-40.74985325 58.9128253 -44.49944555 58.85954997 -48.25 58.8125 C-49.31347656 58.78736328 -50.37695312 58.76222656 -51.47265625 58.73632812 C-53.00986328 58.72182617 -53.00986328 58.72182617 -54.578125 58.70703125 C-55.99206543 58.68346558 -55.99206543 58.68346558 -57.43457031 58.65942383 C-60.42310174 59.05616929 -61.77689217 60.01704271 -64 62 Z M-13 59 C-13 59.99 -13 60.98 -13 62 C-7.72 62.33 -2.44 62.66 3 63 C3 61.68 3 60.36 3 59 C-2.28 59 -7.56 59 -13 59 Z " fill="#5E4DEF" transform="translate(98,54)"/>
<path d="M0 0 C0.66 0 1.32 0 2 0 C2 2.97 2 5.94 2 9 C1.030625 9.28875 0.06125 9.5775 -0.9375 9.875 C-4.10664203 10.64214682 -4.10664203 10.64214682 -5 13 C-5.40270732 17.1283652 -5.40270732 17.1283652 -3.8125 20.8125 C-1.57968261 22.27538036 0.37344067 22.64505955 3 23 C3 20.03 3 17.06 3 14 C4.98 14 6.96 14 9 14 C9.33 14.66 9.66 15.32 10 16 C18.25 16 26.5 16 35 16 C35.33 15.34 35.66 14.68 36 14 C49.53 14 63.06 14 77 14 C77 17.63 77 21.26 77 25 C71.72 25 66.44 25 61 25 C61 25.99 61 26.98 61 28 C61.56847656 27.98839844 62.13695313 27.97679688 62.72265625 27.96484375 C67.60670484 27.90776806 72.18503965 28.18043228 77 29 C77 31.64 77 34.28 77 37 C69.71409984 37.04682155 62.42823335 37.08211748 55.14221191 37.10362434 C51.75718789 37.11395864 48.37226851 37.12792229 44.98730469 37.15087891 C3.9013812 37.40899446 3.9013812 37.40899446 -5 31 C-6.5 27.75 -6.5 27.75 -7 25 C-8.98 25 -10.96 25 -13 25 C-13.66 22.69 -14.32 20.38 -15 18 C-14.01 17.34 -13.02 16.68 -12 16 C-10.99067254 13.04965818 -10.75591887 11.6020668 -11.9375 8.6875 C-12.288125 8.130625 -12.63875 7.57375 -13 7 C-11.35 5.68 -9.7 4.36 -8 3 C-7.01 3.66 -6.02 4.32 -5 5 C-3.00016466 4.20882096 -3.00016466 4.20882096 -1 3 C-0.67 2.01 -0.34 1.02 0 0 Z M10 28 C9.01 27.34 8.02 26.68 7 26 C4.46326712 27.3553326 4.46326712 27.3553326 2 29 C2 29.66 2 30.32 2 31 C13.22 30.01 24.44 29.02 36 28 C36.33 27.01 36.66 26.02 37 25 C33.25014675 24.9128253 29.50055445 24.85954997 25.75 24.8125 C24.68652344 24.78736328 23.62304688 24.76222656 22.52734375 24.73632812 C20.99013672 24.72182617 20.99013672 24.72182617 19.421875 24.70703125 C18.00793457 24.68346558 18.00793457 24.68346558 16.56542969 24.65942383 C13.57689826 25.05616929 12.22310783 26.01704271 10 28 Z " fill="#BAD4FE" transform="translate(24,88)"/>
<path d="M0 0 C16.83 0 33.66 0 51 0 C51 10.23 51 20.46 51 31 C34.17 31 17.34 31 0 31 C0 20.77 0 10.54 0 0 Z " fill="#474E94" transform="translate(44,47)"/>
<path d="M0 0 C2.97 0.33 5.94 0.66 9 1 C9 2.98 9 4.96 9 7 C13.33927969 8.83695434 13.33927969 8.83695434 17.875 8.125 C18.926875 7.568125 18.926875 7.568125 20 7 C23 12.75 23 12.75 23 15 C24.28197266 14.98259766 24.28197266 14.98259766 25.58984375 14.96484375 C26.69457031 14.95582031 27.79929688 14.94679688 28.9375 14.9375 C30.03964844 14.92589844 31.14179688 14.91429687 32.27734375 14.90234375 C35 15 35 15 36 16 C36.08748207 17.92667507 36.10697334 19.85651861 36.09765625 21.78515625 C36.09443359 22.95498047 36.09121094 24.12480469 36.08789062 25.33007812 C36.07532227 27.17762695 36.07532227 27.17762695 36.0625 29.0625 C36.05798828 30.29806641 36.05347656 31.53363281 36.04882812 32.80664062 C36.03699608 35.87114117 36.02051173 38.93554721 36 42 C37.32 41.34 38.64 40.68 40 40 C41.5625 41.0625 41.5625 41.0625 43 43 C42.6875 46.6875 42.6875 46.6875 42 50 C42.66 50 43.32 50 44 50 C44 51.65 44 53.3 44 55 C42.02 55.66 40.04 56.32 38 57 C38 58.32 38 59.64 38 61 C36.35 61 34.7 61 33 61 C32.67 60.01 32.34 59.02 32 58 C28.535 58.495 28.535 58.495 25 59 C22.90348525 55.54691689 22.90348525 55.54691689 23.375 52.875 C23.58125 52.25625 23.7875 51.6375 24 51 C24 50.34 24 49.68 24 49 C23.01 48.67 22.02 48.34 21 48 C21.33 47.01 21.66 46.02 22 45 C21.34 45 20.68 45 20 45 C19.87625 43.906875 19.7525 42.81375 19.625 41.6875 C19.24535199 37.92618198 19.24535199 37.92618198 17 35 C17.66 35 18.32 35 19 35 C17.40733826 31.86729591 17.40733826 31.86729591 15.12060547 31.56762695 C14.37697754 31.54144287 13.63334961 31.51525879 12.8671875 31.48828125 C12.06152344 31.45283203 11.25585938 31.41738281 10.42578125 31.38085938 C9.58402344 31.35830078 8.74226563 31.33574219 7.875 31.3125 C7.02550781 31.27833984 6.17601563 31.24417969 5.30078125 31.20898438 C3.20098895 31.12640827 1.10051436 31.06153022 -1 31 C-1 30.34 -1 29.68 -1 29 C1.31 29.33 3.62 29.66 6 30 C5.94779297 28.51886719 5.94779297 28.51886719 5.89453125 27.0078125 C5.86746094 25.72648437 5.84039062 24.44515625 5.8125 23.125 C5.76029297 21.21074219 5.76029297 21.21074219 5.70703125 19.2578125 C5.80371094 18.18273437 5.90039062 17.10765625 6 16 C6.99 15.34 7.98 14.68 9 14 C5.90826248 12.45413124 3.40570448 12.70640479 0 13 C-2.58333333 14.41666667 -2.58333333 14.41666667 -4 17 C-4.33094958 20.77282526 -4.19754817 23.40735548 -3 27 C-7.29 27 -11.58 27 -16 27 C-14.68 25.35 -13.36 23.7 -12 22 C-11.33314062 19.45672892 -11.33314062 19.45672892 -12 17 C-13.89584109 14.68622853 -13.89584109 14.68622853 -16 13 C-14.35 10.69 -12.7 8.38 -11 6 C-10.071875 6.37125 -9.14375 6.7425 -8.1875 7.125 C-6.6096875 7.558125 -6.6096875 7.558125 -5 8 C-1.39345961 5.59563974 -1.14547068 4.05320393 0 0 Z M28 47 C27.6366844 49.83386167 27.6431329 51.40522151 29.125 53.875 C31.92151052 55.55290631 33.93690532 54.74875648 37 54 C37.67673447 50.59679066 37.67673447 50.59679066 38 47 C36.11499729 44.68436913 36.11499729 44.68436913 33 44.75 C29.88500271 44.68436913 29.88500271 44.68436913 28 47 Z " fill="#35DBC6" transform="translate(99,18)"/>
<path d="M0 0 C2.31 0 4.62 0 7 0 C7 2.97 7 5.94 7 9 C11.62 9 16.24 9 21 9 C21 15.6 21 22.2 21 29 C23.31 29 25.62 29 28 29 C29 30 29 30 29.11352539 31.85766602 C29.10828857 32.64842529 29.10305176 33.43918457 29.09765625 34.25390625 C29.09443359 35.10791016 29.09121094 35.96191406 29.08789062 36.84179688 C29.07532227 38.18854492 29.07532227 38.18854492 29.0625 39.5625 C29.05798828 40.46419922 29.05347656 41.36589844 29.04882812 42.29492188 C29.03700225 44.53001314 29.0205222 46.76497437 29 49 C27.02 49.495 27.02 49.495 25 50 C25 47.36 25 44.72 25 42 C19.39 42 13.78 42 8 42 C10.06029645 38.90955532 10.82606287 38.48778303 14 37 C14.66 36.34 15.32 35.68 16 35 C14.35 34.67 12.7 34.34 11 34 C10.67 34.99 10.34 35.98 10 37 C9.01 37 8.02 37 7 37 C7 38.32 7 39.64 7 41 C6.34 41 5.68 41 5 41 C4.67 41.66 4.34 42.32 4 43 C3.95101562 42.21753906 3.90203125 41.43507812 3.8515625 40.62890625 C3.77679688 39.61699219 3.70203125 38.60507813 3.625 37.5625 C3.55539063 36.55316406 3.48578125 35.54382813 3.4140625 34.50390625 C3.27742188 33.67761719 3.14078125 32.85132813 3 32 C0.71294169 30.85647084 -0.59264762 30.89665561 -3.125 30.9375 C-4.40375 30.958125 -5.6825 30.97875 -7 31 C-7 32.98 -7 34.96 -7 37 C-7.33 37 -7.66 37 -8 37 C-8.33 35.35 -8.66 33.7 -9 32 C-10.98 31.67 -12.96 31.34 -15 31 C-14.67 29.68 -14.34 28.36 -14 27 C-13.14535156 26.93941406 -12.29070312 26.87882812 -11.41015625 26.81640625 C-9.75306641 26.69072266 -9.75306641 26.69072266 -8.0625 26.5625 C-6.96035156 26.48128906 -5.85820313 26.40007812 -4.72265625 26.31640625 C-2.08890097 26.29581916 -2.08890097 26.29581916 -1 25 C-0.84213692 23.14825294 -0.74892644 21.2909089 -0.68359375 19.43359375 C-0.64169922 18.30888672 -0.59980469 17.18417969 -0.55664062 16.02539062 C-0.51732422 14.84138672 -0.47800781 13.65738281 -0.4375 12.4375 C-0.39431641 11.24962891 -0.35113281 10.06175781 -0.30664062 8.83789062 C-0.20016454 5.89205216 -0.09815159 2.9461257 0 0 Z " fill="#7285FD" transform="translate(98,54)"/>
<path d="M0 0 C0.66 0 1.32 0 2 0 C2 2.97 2 5.94 2 9 C1.030625 9.28875 0.06125 9.5775 -0.9375 9.875 C-4.10664203 10.64214682 -4.10664203 10.64214682 -5 13 C-5.38919722 17.06265388 -5.38919722 17.06265388 -3.9375 20.75 C1.36500701 24.17097226 7.86444999 24.47131315 14 25 C12.68 26.32 11.36 27.64 10 29 C9.01 28.34 8.02 27.68 7 27 C3.87802522 28.3089572 3.87802522 28.3089572 2 31 C2.57540527 30.86287598 3.15081055 30.72575195 3.74365234 30.58447266 C10.71648718 29.04308011 17.49959266 28.58278831 24.625 28.375 C25.72457031 28.33632812 26.82414062 28.29765625 27.95703125 28.2578125 C30.63786459 28.16456612 33.3187089 28.07876733 36 28 C35.67 28.66 35.34 29.32 35 30 C32.35139573 30.59355614 29.70802678 30.74209269 27 31 C27 31.66 27 32.32 27 33 C41.19 33 55.38 33 70 33 C69.67 32.34 69.34 31.68 69 31 C67.845 30.835 66.69 30.67 65.5 30.5 C64.345 30.335 63.19 30.17 62 30 C61.505 29.01 61.505 29.01 61 28 C66.45769811 27.88861841 71.61509359 28.08342019 77 29 C77 31.64 77 34.28 77 37 C69.71409984 37.04682155 62.42823335 37.08211748 55.14221191 37.10362434 C51.75718789 37.11395864 48.37226851 37.12792229 44.98730469 37.15087891 C3.9013812 37.40899446 3.9013812 37.40899446 -5 31 C-6.5 27.75 -6.5 27.75 -7 25 C-8.98 25 -10.96 25 -13 25 C-13.66 22.69 -14.32 20.38 -15 18 C-14.01 17.34 -13.02 16.68 -12 16 C-10.99067254 13.04965818 -10.75591887 11.6020668 -11.9375 8.6875 C-12.288125 8.130625 -12.63875 7.57375 -13 7 C-11.35 5.68 -9.7 4.36 -8 3 C-7.01 3.66 -6.02 4.32 -5 5 C-3.00016466 4.20882096 -3.00016466 4.20882096 -1 3 C-0.67 2.01 -0.34 1.02 0 0 Z " fill="#EAEBF2" transform="translate(24,88)"/>
<path d="M0 0 C1.37091797 0.0009668 1.37091797 0.0009668 2.76953125 0.00195312 C9.48435163 0.04685163 9.48435163 0.04685163 10.625 1.1875 C13.43476518 1.34767166 16.22273596 1.44700534 19.03515625 1.50390625 C19.87719101 1.52468735 20.71922577 1.54546844 21.58677673 1.56687927 C24.28693179 1.63246812 26.98718717 1.69130276 29.6875 1.75 C31.51368241 1.79317637 33.33985454 1.83679036 35.16601562 1.88085938 C39.65223992 1.98815894 44.1385655 2.08939966 48.625 2.1875 C48.625 2.5175 48.625 2.8475 48.625 3.1875 C35.755 3.1875 22.885 3.1875 9.625 3.1875 C9.955 4.5075 10.285 5.8275 10.625 7.1875 C23.165 7.5175 35.705 7.8475 48.625 8.1875 C48.625 8.5175 48.625 8.8475 48.625 9.1875 C35.755 9.1875 22.885 9.1875 9.625 9.1875 C9.955 10.5075 10.285 11.8275 10.625 13.1875 C23.165 13.1875 35.705 13.1875 48.625 13.1875 C48.625 13.8475 48.625 14.5075 48.625 15.1875 C39.055 15.1875 29.485 15.1875 19.625 15.1875 C19.625 15.8475 19.625 16.5075 19.625 17.1875 C18.635 17.1875 17.645 17.1875 16.625 17.1875 C16.625 16.5275 16.625 15.8675 16.625 15.1875 C14.315 15.1875 12.005 15.1875 9.625 15.1875 C9.625 17.1675 9.625 19.1475 9.625 21.1875 C0.715 21.1875 -8.195 21.1875 -17.375 21.1875 C-17.375 20.8575 -17.375 20.5275 -17.375 20.1875 C-15.725 19.8575 -14.075 19.5275 -12.375 19.1875 C-12.045 17.8675 -11.715 16.5475 -11.375 15.1875 C-13.355 15.1875 -15.335 15.1875 -17.375 15.1875 C-17.375 14.8575 -17.375 14.5275 -17.375 14.1875 C-15.725 13.8575 -14.075 13.5275 -12.375 13.1875 C-12.045 11.8675 -11.715 10.5475 -11.375 9.1875 C-13.355 9.1875 -15.335 9.1875 -17.375 9.1875 C-17.375 8.8575 -17.375 8.5275 -17.375 8.1875 C-15.725 7.8575 -14.075 7.5275 -12.375 7.1875 C-12.045 5.8675 -11.715 4.5475 -11.375 3.1875 C-13.355 3.1875 -15.335 3.1875 -17.375 3.1875 C-17.375 2.8575 -17.375 2.5275 -17.375 2.1875 C-11.48560037 0.14637931 -6.2030285 -0.08528042 0 0 Z " fill="#9EE4E0" transform="translate(24.375,31.8125)"/>
<path d="M0 0 C7.92 0 15.84 0 24 0 C24.495 1.98 24.495 1.98 25 4 C30.94 4 36.88 4 43 4 C45 8 45 8 45 10 C45.495 10.495 45.495 10.495 46 11 C46 13.31 46 15.62 46 18 C41.38 18 36.76 18 32 18 C32 15.03 32 12.06 32 9 C29.69 9 27.38 9 25 9 C25.01571045 10.12027588 25.01571045 10.12027588 25.03173828 11.26318359 C25.0732077 14.63375508 25.09929729 18.004273 25.125 21.375 C25.14175781 22.550625 25.15851563 23.72625 25.17578125 24.9375 C25.18544922 26.61972656 25.18544922 26.61972656 25.1953125 28.3359375 C25.21102295 29.89127197 25.21102295 29.89127197 25.22705078 31.47802734 C25 34 25 34 23 36 C20.76086426 36.25396729 20.76086426 36.25396729 17.93945312 36.25878906 C16.35771301 36.26824554 16.35771301 36.26824554 14.74401855 36.27789307 C13.60130493 36.2738446 12.45859131 36.26979614 11.28125 36.265625 C9.52802429 36.26849518 9.52802429 36.26849518 7.73937988 36.27142334 C5.26456487 36.27278626 2.78974274 36.26908241 0.31494141 36.26074219 C-3.48421205 36.25004446 -7.28289259 36.26063418 -11.08203125 36.2734375 C-13.48177188 36.27211592 -15.88151222 36.26955357 -18.28125 36.265625 C-19.99532043 36.27169769 -19.99532043 36.27169769 -21.74401855 36.27789307 C-22.79851196 36.27158875 -23.85300537 36.26528442 -24.93945312 36.25878906 C-25.8705188 36.25719788 -26.80158447 36.25560669 -27.76086426 36.25396729 C-30 36 -30 36 -32 34 C-32.22705078 31.01904297 -32.22705078 31.01904297 -32.1953125 27.2421875 C-32.1924826 26.57913605 -32.18965271 25.91608459 -32.18673706 25.23294067 C-32.17553435 23.11344417 -32.15043051 20.99436896 -32.125 18.875 C-32.11497028 17.43880818 -32.10584441 16.00260975 -32.09765625 14.56640625 C-32.075595 11.04413372 -32.04106494 7.52210797 -32 4 C-31.01 4 -30.02 4 -29 4 C-29 13.57 -29 23.14 -29 33 C-12.17 33 4.66 33 22 33 C22 22.77 22 12.54 22 2 C14.74 2 7.48 2 0 2 C0 1.34 0 0.68 0 0 Z " fill="#38D2CB" transform="translate(73,45)"/>
<path d="M0 0 C1.12019531 -0.00128906 2.24039063 -0.00257812 3.39453125 -0.00390625 C4.57402344 -0.00003906 5.75351562 0.00382812 6.96875 0.0078125 C8.73798828 0.00201172 8.73798828 0.00201172 10.54296875 -0.00390625 C12.22326172 -0.00197266 12.22326172 -0.00197266 13.9375 0 C14.97326172 0.00112793 16.00902344 0.00225586 17.07617188 0.00341797 C19.46875 0.1328125 19.46875 0.1328125 20.46875 1.1328125 C20.56861975 3.97616298 20.60752881 6.78978413 20.59375 9.6328125 C20.59955078 10.82970703 20.59955078 10.82970703 20.60546875 12.05078125 C20.59535767 18.00620483 20.59535767 18.00620483 19.46875 19.1328125 C17.62715977 19.23240871 15.78178033 19.26361661 13.9375 19.265625 C12.81730469 19.26691406 11.69710937 19.26820312 10.54296875 19.26953125 C9.36347656 19.26566406 8.18398438 19.26179688 6.96875 19.2578125 C5.19951172 19.26361328 5.19951172 19.26361328 3.39453125 19.26953125 C1.71423828 19.26759766 1.71423828 19.26759766 0 19.265625 C-1.03576172 19.26449707 -2.07152344 19.26336914 -3.13867188 19.26220703 C-5.53125 19.1328125 -5.53125 19.1328125 -6.53125 18.1328125 C-6.63111975 15.28946202 -6.67002881 12.47584087 -6.65625 9.6328125 C-6.66011719 8.83488281 -6.66398437 8.03695312 -6.66796875 7.21484375 C-6.65573175 0.007248 -6.65573175 0.007248 0 0 Z " fill="#37D7C7" transform="translate(39.53125,85.8671875)"/>
<path d="M0 0 C3.0000624 -0.02721831 5.99987256 -0.04694378 9 -0.0625 C9.83917969 -0.07087891 10.67835937 -0.07925781 11.54296875 -0.08789062 C12.79013672 -0.09272461 12.79013672 -0.09272461 14.0625 -0.09765625 C15.19365234 -0.10551147 15.19365234 -0.10551147 16.34765625 -0.11352539 C19.91451913 0.03914317 23.45744034 0.55718004 27 1 C27 7.93 27 14.86 27 22 C20.07 22 13.14 22 6 22 C6 21.01 6 20.02 6 19 C4.02 19 2.04 19 0 19 C0 18.34 0 17.68 0 17 C1.98 17 3.96 17 6 17 C6 15.68 6 14.36 6 13 C4.02 13 2.04 13 0 13 C0 12.34 0 11.68 0 11 C1.98 11 3.96 11 6 11 C6 9.68 6 8.36 6 7 C4.02 7 2.04 7 0 7 C0 6.34 0 5.68 0 5 C1.98 5 3.96 5 6 5 C6 4.01 6 3.02 6 2 C3.03 1.505 3.03 1.505 0 1 C0 0.67 0 0.34 0 0 Z " fill="#7CD8E3" transform="translate(7,58)"/>
<path d="M0 0 C2.62697064 -0.22137393 5.00893964 -0.28162025 7.625 -0.1875 C8.33140625 -0.17396484 9.0378125 -0.16042969 9.765625 -0.14648438 C11.51074128 -0.1111104 13.25546608 -0.05730221 15 0 C15 3.63 15 7.26 15 11 C9.72 11 4.44 11 -1 11 C-0.505 12.98 -0.505 12.98 0 15 C2.31 15.33 4.62 15.66 7 16 C7.495 17.485 7.495 17.485 8 19 C-6.19 19 -20.38 19 -35 19 C-35 18.34 -35 17.68 -35 17 C-32.98177083 16.609375 -30.96354167 16.21875 -28.9453125 15.828125 C-26.80995329 15.14287884 -26.80995329 15.14287884 -25.7421875 12.921875 C-25.49726562 12.28765625 -25.25234375 11.6534375 -25 11 C-23.86820313 11.03480469 -22.73640625 11.06960937 -21.5703125 11.10546875 C-20.08855647 11.13360336 -18.60678444 11.16090387 -17.125 11.1875 C-16.37863281 11.21263672 -15.63226563 11.23777344 -14.86328125 11.26367188 C-12.43778172 11.3298764 -12.43778172 11.3298764 -9 11 C-7.22293791 8.33440687 -6.12451727 5.9719385 -5 3 C-4.01 3 -3.02 3 -2 3 C-1.34 2.01 -0.68 1.02 0 0 Z " fill="#B2CFFE" transform="translate(86,102)"/>
<path d="M0 0 C5.94 0 11.88 0 18 0 C18 0.99 18 1.98 18 3 C14.7 3.33 11.4 3.66 8 4 C8 6.31 8 8.62 8 11 C9.65 11 11.3 11 13 11 C11 13 11 13 8 14 C9.77490546 15.77490546 12.37784902 15.23499973 14.78515625 15.31640625 C15.95498047 15.35830078 17.12480469 15.40019531 18.33007812 15.44335938 C20.17762695 15.50233398 20.17762695 15.50233398 22.0625 15.5625 C23.29806641 15.60568359 24.53363281 15.64886719 25.80664062 15.69335938 C28.87097335 15.79984198 31.93539073 15.90185424 35 16 C35 17.65 35 19.3 35 21 C21.47 21 7.94 21 -6 21 C-6.33 15.72 -6.66 10.44 -7 5 C-2 3 -2 3 0 3 C0 2.01 0 1.02 0 0 Z " fill="#6C72FE" transform="translate(66,81)"/>
<path d="M0 0 C1.32 0 2.64 0 4 0 C4 6.6 4 13.2 4 20 C6.31 20 8.62 20 11 20 C12 21 12 21 12.11352539 22.85766602 C12.10828857 23.64842529 12.10305176 24.43918457 12.09765625 25.25390625 C12.09443359 26.10791016 12.09121094 26.96191406 12.08789062 27.84179688 C12.07951172 28.73962891 12.07113281 29.63746094 12.0625 30.5625 C12.05798828 31.46419922 12.05347656 32.36589844 12.04882812 33.29492188 C12.03700225 35.53001314 12.0205222 37.76497437 12 40 C10.02 40.495 10.02 40.495 8 41 C8 38.36 8 35.72 8 33 C2.39 33 -3.22 33 -9 33 C-6.93970355 29.90955532 -6.17393713 29.48778303 -3 28 C-2.34 27.34 -1.68 26.68 -1 26 C-2.65 25.67 -4.3 25.34 -6 25 C-6.33 25.99 -6.66 26.98 -7 28 C-7.99 28 -8.98 28 -10 28 C-10 29.32 -10 30.64 -10 32 C-10.66 32 -11.32 32 -12 32 C-12.33 32.66 -12.66 33.32 -13 34 C-13.19456705 32.04235617 -13.38044247 30.08384679 -13.5625 28.125 C-13.71912109 26.48917969 -13.71912109 26.48917969 -13.87890625 24.8203125 C-14 22 -14 22 -13 20 C-8.71 20 -4.42 20 0 20 C0 13.4 0 6.8 0 0 Z " fill="#645AFE" transform="translate(115,63)"/>
<path d="M0 0 C2.97 0.33 5.94 0.66 9 1 C9 2.98 9 4.96 9 7 C13.33927969 8.83695434 13.33927969 8.83695434 17.875 8.125 C18.926875 7.568125 18.926875 7.568125 20 7 C23 12.75 23 12.75 23 15 C20.89611431 15.05402274 18.79183286 15.09280256 16.6875 15.125 C14.92986328 15.15980469 14.92986328 15.15980469 13.13671875 15.1953125 C10 15 10 15 7 13 C3.12661246 12.57744863 0.88401391 12.43332442 -2.4375 14.5625 C-4.55418511 17.86452877 -4.35028204 20.14689752 -4 24 C-3.67 24.99 -3.34 25.98 -3 27 C-7.29 27 -11.58 27 -16 27 C-14.68 25.35 -13.36 23.7 -12 22 C-11.33314062 19.45672892 -11.33314062 19.45672892 -12 17 C-13.89584109 14.68622853 -13.89584109 14.68622853 -16 13 C-14.35 10.69 -12.7 8.38 -11 6 C-10.071875 6.37125 -9.14375 6.7425 -8.1875 7.125 C-6.6096875 7.558125 -6.6096875 7.558125 -5 8 C-1.39345961 5.59563974 -1.14547068 4.05320393 0 0 Z " fill="#E9EBF2" transform="translate(99,18)"/>
<path d="M0 0 C1.58206057 0.00667536 3.16410534 0.0186375 4.74609375 0.03515625 C5.55240234 0.03966797 6.35871094 0.04417969 7.18945312 0.04882812 C9.18753131 0.06065107 11.18557158 0.07858711 13.18359375 0.09765625 C13.21043687 2.91021906 13.23035563 5.72252866 13.24609375 8.53515625 C13.25447266 9.33759766 13.26285156 10.14003906 13.27148438 10.96679688 C13.28010805 13.01060846 13.23587525 15.05449527 13.18359375 17.09765625 C11.36243372 18.91881628 8.87687611 18.23000705 6.45703125 18.234375 C5.70679687 18.23050781 4.9565625 18.22664063 4.18359375 18.22265625 C3.05824219 18.22845703 3.05824219 18.22845703 1.91015625 18.234375 C-3.68979572 18.22426678 -3.68979572 18.22426678 -4.81640625 17.09765625 C-4.91621839 14.42034245 -4.955205 11.7746145 -4.94140625 9.09765625 C-4.94527344 8.34742187 -4.94914062 7.5971875 -4.953125 6.82421875 C-4.94103514 0.12643386 -4.94103514 0.12643386 0 0 Z " fill="#3DCFE4" transform="translate(109.81640625,95.90234375)"/>
<path d="M0 0 C3.66461285 0.95279934 7.25231849 0.10903702 10.95703125 -0.37109375 C11.61574219 -0.41105469 12.27445313 -0.45101562 12.953125 -0.4921875 C13.953125 0.5078125 13.953125 0.5078125 14.05078125 3.23046875 C14.03917969 4.33261719 14.02757813 5.43476562 14.015625 6.5703125 C14.00660156 7.67503906 13.99757813 8.77976562 13.98828125 9.91796875 C13.97667969 10.77261719 13.96507813 11.62726563 13.953125 12.5078125 C9.66158478 12.5945687 5.37026832 12.6481214 1.078125 12.6953125 C-0.75685547 12.73301758 -0.75685547 12.73301758 -2.62890625 12.77148438 C-4.37880859 12.78598633 -4.37880859 12.78598633 -6.1640625 12.80078125 C-7.78223877 12.82434692 -7.78223877 12.82434692 -9.43310547 12.84838867 C-10.29564941 12.73599854 -11.15819336 12.6236084 -12.046875 12.5078125 C-12.706875 11.5178125 -13.366875 10.5278125 -14.046875 9.5078125 C-12.726875 9.1778125 -11.406875 8.8478125 -10.046875 8.5078125 C-11.036875 8.1778125 -12.026875 7.8478125 -13.046875 7.5078125 C-13.046875 5.1978125 -13.046875 2.8878125 -13.046875 0.5078125 C-8.13567183 -1.75889666 -5.02635429 -1.35061901 0 0 Z " fill="#758EFE" transform="translate(87.046875,84.4921875)"/>
<path d="M0 0 C0.66 0.33 1.32 0.66 2 1 C2 7.93 2 14.86 2 22 C-6.25 22 -14.5 22 -23 22 C-23.26785714 8.74107143 -23.26785714 8.74107143 -21 4 C-20.67 4 -20.34 4 -20 4 C-19.67 6.31 -19.34 8.62 -19 11 C-13.72 11 -8.44 11 -3 11 C-2.87625 9.55625 -2.7525 8.1125 -2.625 6.625 C-2.25 2.25 -2.25 2.25 0 0 Z " fill="#7284FE" transform="translate(125,102)"/>
<path d="M0 0 C5.61 0 11.22 0 17 0 C17 5.61 17 11.22 17 17 C11.39 17 5.78 17 0 17 C0 11.33333333 0 5.66666667 0 0 Z " fill="#3D4D9A" transform="translate(15,34)"/>
<path d="M0 0 C1.25554687 -0.00128906 2.51109375 -0.00257812 3.8046875 -0.00390625 C4.46178711 -0.00181152 5.11888672 0.0002832 5.79589844 0.00244141 C7.80411335 0.00779016 9.81210459 0.00249559 11.8203125 -0.00390625 C13.07585937 -0.00261719 14.33140625 -0.00132813 15.625 0 C16.78644531 0.00112793 17.94789063 0.00225586 19.14453125 0.00341797 C21.8125 0.1328125 21.8125 0.1328125 22.8125 1.1328125 C23.12117281 4.60538165 23.19951339 6.5200413 21.3125 9.5078125 C20.8175 10.0440625 20.3225 10.5803125 19.8125 11.1328125 C15.62375605 10.20198051 11.89285356 9.21316606 8.8125 6.1328125 C6.35508463 5.63266297 6.35508463 5.63266297 3.8125 6.1328125 C2.79221135 7.45068535 1.79278616 8.78491903 0.8125 10.1328125 C-1.875 10.8828125 -1.875 10.8828125 -4.1875 11.1328125 C-4.5175 12.1228125 -4.8475 13.1128125 -5.1875 14.1328125 C-5.8475 14.1328125 -6.5075 14.1328125 -7.1875 14.1328125 C-7.21435938 11.98704613 -7.23383088 9.84118605 -7.25 7.6953125 C-7.26160156 6.50035156 -7.27320312 5.30539063 -7.28515625 4.07421875 C-7.11114431 -1.16702086 -4.66394941 0.00452936 0 0 Z " fill="#36D2D4" transform="translate(112.1875,32.8671875)"/>
<path d="M0 0 C2.31 0 4.62 0 7 0 C7.14541967 4.22880411 7.23411527 8.45696413 7.3125 12.6875 C7.3753418 14.48477539 7.3753418 14.48477539 7.43945312 16.31835938 C7.5608921 25.03767802 7.5608921 25.03767802 5.86474609 27.94775391 C4.48046875 29.33203125 4.48046875 29.33203125 2 31 C0.41596476 29.41596476 0.78025065 27.7228362 0.68359375 25.52734375 C0.64169922 24.62822266 0.59980469 23.72910156 0.55664062 22.80273438 C0.51732422 21.85720703 0.47800781 20.91167969 0.4375 19.9375 C0.39431641 18.98810547 0.35113281 18.03871094 0.30664062 17.06054688 C0.20020724 14.70718647 0.09818992 12.35371646 0 10 C-2.64 10 -5.28 10 -8 10 C-8 8.02 -8 6.04 -8 4 C-5.36 4 -2.72 4 0 4 C0 2.68 0 1.36 0 0 Z " fill="#5A38FF" transform="translate(34,49)"/>
<path d="M0 0 C3.15973987 0.30092761 3.54183127 0.99323388 5.625 3.25 C6.470625 3.559375 7.31625 3.86875 8.1875 4.1875 C10.625 5.25 10.625 5.25 11.9375 7.375 C12.2778125 8.303125 12.2778125 8.303125 12.625 9.25 C10.645 9.58 8.665 9.91 6.625 10.25 C6.3775 11.36375 6.13 12.4775 5.875 13.625 C4.625 17.25 4.625 17.25 2.5 18.6875 C1.88125 18.873125 1.2625 19.05875 0.625 19.25 C-0.365 17.93 -1.355 16.61 -2.375 15.25 C-1.715 15.25 -1.055 15.25 -0.375 15.25 C-1.96766174 12.11729591 -1.96766174 12.11729591 -4.25439453 11.81762695 C-4.99802246 11.79144287 -5.74165039 11.76525879 -6.5078125 11.73828125 C-7.31347656 11.70283203 -8.11914062 11.66738281 -8.94921875 11.63085938 C-9.79097656 11.60830078 -10.63273437 11.58574219 -11.5 11.5625 C-12.34949219 11.52833984 -13.19898437 11.49417969 -14.07421875 11.45898438 C-16.17401105 11.37640827 -18.27448564 11.31153022 -20.375 11.25 C-20.375 10.59 -20.375 9.93 -20.375 9.25 C-17.405 9.25 -14.435 9.25 -11.375 9.25 C-11.045 7.93 -10.715 6.61 -10.375 5.25 C-8.725 5.25 -7.075 5.25 -5.375 5.25 C-5.065625 4.610625 -4.75625 3.97125 -4.4375 3.3125 C-2.88764755 0.3039629 -2.88764755 0.3039629 0 0 Z " fill="#7CD9E0" transform="translate(118.375,37.75)"/>
<path d="M0 0 C5.94 0 11.88 0 18 0 C20 4 20 4 20 6 C20.33 6.33 20.66 6.66 21 7 C21 9.31 21 11.62 21 14 C16.38 14 11.76 14 7 14 C7 11.03 7 8.06 7 5 C4.69 5 2.38 5 0 5 C0 3.35 0 1.7 0 0 Z " fill="#3AC5D7" transform="translate(98,49)"/>
<path d="M0 0 C13.53 0 27.06 0 41 0 C41 1.65 41 3.3 41 5 C27.47 5 13.94 5 0 5 C0 3.35 0 1.7 0 0 Z " fill="#3C3D89" transform="translate(60,97)"/>
<path d="M0 0 C4.62 0 9.24 0 14 0 C14.33 0.99 14.66 1.98 15 3 C14.67 3.33 14.34 3.66 14 4 C19.94 4.33 25.88 4.66 32 5 C32.495 6.485 32.495 6.485 33 8 C18.81 8 4.62 8 -10 8 C-10 7.34 -10 6.68 -10 6 C-7.98177083 5.609375 -5.96354167 5.21875 -3.9453125 4.828125 C-1.47178598 4.02322581 -1.47178598 4.02322581 0 0 Z " fill="#A0C4FE" transform="translate(61,113)"/>
<path d="M0 0 C1.32 0.99 2.64 1.98 4 3 C3.67 5.31 3.34 7.62 3 10 C3.66 10 4.32 10 5 10 C5 11.65 5 13.3 5 15 C3.02 15.66 1.04 16.32 -1 17 C-1 18.32 -1 19.64 -1 21 C-2.65 21 -4.3 21 -6 21 C-6.33 20.01 -6.66 19.02 -7 18 C-9.31 18.33 -11.62 18.66 -14 19 C-16.09651475 15.54691689 -16.09651475 15.54691689 -15.625 12.875 C-15.41875 12.25625 -15.2125 11.6375 -15 11 C-15 10.34 -15 9.68 -15 9 C-15.99 8.67 -16.98 8.34 -18 8 C-17.67 7.01 -17.34 6.02 -17 5 C-14.36 5 -11.72 5 -9 5 C-9.20625 6.11375 -9.4125 7.2275 -9.625 8.375 C-9.74875 9.57125 -9.8725 10.7675 -10 12 C-8.10244856 14.34973818 -8.10244856 14.34973818 -4.875 14.125 C-3.451875 14.063125 -3.451875 14.063125 -2 14 C-1.70437633 8.67829506 -1.70437633 8.67829506 -4 4 C-2.68 2.68 -1.36 1.36 0 0 Z " fill="#EAEBF2" transform="translate(138,58)"/>
<path d="M0 0 C1.98 0 3.96 0 6 0 C6.33 0.66 6.66 1.32 7 2 C10.27555608 2.47001033 10.27555608 2.47001033 14.0625 2.625 C15.99802734 2.73714844 15.99802734 2.73714844 17.97265625 2.8515625 C19.47119141 2.92503906 19.47119141 2.92503906 21 3 C21.6875 5.3125 21.6875 5.3125 22 8 C20.76586914 9.64746094 20.76586914 9.64746094 19 11 C16.06431703 11.24439779 13.36372625 11.32770891 10.4375 11.25 C9.65697266 11.24484375 8.87644531 11.2396875 8.07226562 11.234375 C2.30964397 11.15482198 2.30964397 11.15482198 0 10 C0 6.7 0 3.4 0 0 Z " fill="#C4DBFE" transform="translate(27,102)"/>
<path d="M0 0 C2.64 0 5.28 0 8 0 C8 6.93 8 13.86 8 21 C1.07 21 -5.86 21 -13 21 C-13 20.01 -13 19.02 -13 18 C-6.565 17.505 -6.565 17.505 0 17 C0.33 16.01 0.66 15.02 1 14 C1.99 14 2.98 14 4 14 C3.67 11.69 3.34 9.38 3 7 C2.01 6.67 1.02 6.34 0 6 C0 4.02 0 2.04 0 0 Z " fill="#35D7C5" transform="translate(26,59)"/>
<path d="M0 0 C1.32 0 2.64 0 4 0 C4 6.6 4 13.2 4 20 C6.31 20 8.62 20 11 20 C11.33 20.99 11.66 21.98 12 23 C3.19039858 24.30512614 -5.19039858 24.30512614 -14 23 C-13.505 21.515 -13.505 21.515 -13 20 C-8.71 20 -4.42 20 0 20 C0 13.4 0 6.8 0 0 Z " fill="#4C4CA1" transform="translate(115,63)"/>
<path d="M0 0 C1.31871094 -0.01224609 2.63742188 -0.02449219 3.99609375 -0.03710938 C5.90068359 -0.04000977 5.90068359 -0.04000977 7.84375 -0.04296875 C9.00068359 -0.04707764 10.15761719 -0.05118652 11.34960938 -0.05541992 C14.47736509 0.18575467 16.680892 0.85423629 19.5 2.1875 C18.5 4.1875 18.5 4.1875 16.84521484 4.80200195 C11.99200924 5.59975457 7.04404055 5.37340312 2.13769531 5.37280273 C0.13863013 5.37498512 -1.86039532 5.39349143 -3.859375 5.41210938 C-5.13039063 5.41404297 -6.40140625 5.41597656 -7.7109375 5.41796875 C-8.86899902 5.42207764 -10.02706055 5.42618652 -11.22021484 5.43041992 C-14.61310954 5.17912245 -17.33332989 4.39923908 -20.5 3.1875 C-20.17 2.5275 -19.84 1.8675 -19.5 1.1875 C-13.23640183 -0.60566158 -6.45139424 0.00315317 0 0 Z " fill="#EAEBF2" transform="translate(114.5,125.8125)"/>
<path d="M0 0 C0.99 0 1.98 0 3 0 C3.02505615 0.87325928 3.0501123 1.74651855 3.07592773 2.64624023 C3.17087709 5.87602552 3.27012029 9.10564154 3.37231445 12.33520508 C3.41571434 13.73489199 3.45738564 15.13463359 3.49731445 16.53442383 C3.55489445 18.54261495 3.61914 20.55061149 3.68359375 22.55859375 C3.72025146 23.76829834 3.75690918 24.97800293 3.79467773 26.22436523 C3.68938266 28.90705456 3.68938266 28.90705456 5 30 C6.56448383 30.12263388 8.13432772 30.17779522 9.70336914 30.20532227 C11.20481224 30.2352401 11.20481224 30.2352401 12.73658752 30.26576233 C14.36937904 30.29083107 14.36937904 30.29083107 16.03515625 30.31640625 C17.14354355 30.33718735 18.25193085 30.35796844 19.39390564 30.37937927 C22.95003808 30.44499623 26.50624703 30.50381596 30.0625 30.5625 C32.46680493 30.60567368 34.87110199 30.64928758 37.27539062 30.69335938 C43.18351185 30.80068992 49.09170991 30.90243331 55 31 C55 31.33 55 31.66 55 32 C47.48863592 32.05057965 39.97731551 32.08568257 32.46582031 32.10986328 C29.90883747 32.11994038 27.35186621 32.13360226 24.79492188 32.15087891 C21.12627308 32.17505217 17.45777621 32.18646585 13.7890625 32.1953125 C12.0655809 32.21079636 12.0655809 32.21079636 10.30728149 32.22659302 C9.2463327 32.22674408 8.18538391 32.22689514 7.09228516 32.22705078 C6.15518707 32.231492 5.21808899 32.23593323 4.25259399 32.24050903 C2 32 2 32 0 30 C-0.22705078 27.01904297 -0.22705078 27.01904297 -0.1953125 23.2421875 C-0.1924826 22.57913605 -0.18965271 21.91608459 -0.18673706 21.23294067 C-0.17553435 19.11344417 -0.15043051 16.99436896 -0.125 14.875 C-0.11497028 13.43880818 -0.10584441 12.00260975 -0.09765625 10.56640625 C-0.075595 7.04413372 -0.04106494 3.52210797 0 0 Z " fill="#459EE9" transform="translate(41,49)"/>
<path d="M0 0 C2.64 0 5.28 0 8 0 C7.67 0.598125 7.34 1.19625 7 1.8125 C5.79212012 4.05386471 5.79212012 4.05386471 6 7 C6.33 6.34 6.66 5.68 7 5 C7.66 5 8.32 5 9 5 C10.38232443 6.62626404 11.71937515 8.2925002 13 10 C11.71034824 11.37562854 10.37310707 12.70766393 9 14 C8.34 14 7.68 14 7 14 C7 13.01 7 12.02 7 11 C6.01 11 5.02 11 4 11 C3.67 12.32 3.34 13.64 3 15 C2.34 15 1.68 15 1 15 C1 13.68 1 12.36 1 11 C0.34 11 -0.32 11 -1 11 C-1.33 11.99 -1.66 12.98 -2 14 C-3.32 12.35 -4.64 10.7 -6 9 C-5.566875 8.60167969 -5.13375 8.20335938 -4.6875 7.79296875 C-4.130625 7.26316406 -3.57375 6.73335938 -3 6.1875 C-2.443125 5.66542969 -1.88625 5.14335938 -1.3125 4.60546875 C0.316465 2.95851033 0.316465 2.95851033 0 0 Z " fill="#40B2E1" transform="translate(43,86)"/>
<path d="M0 0 C0 5.61 0 11.22 0 17 C0.99 17 1.98 17 3 17 C3 18.65 3 20.3 3 22 C0.69 22 -1.62 22 -4 22 C-4 15.73 -4 9.46 -4 3 C-10.27 3 -16.54 3 -23 3 C-23 2.34 -23 1.68 -23 1 C-19.91675903 0.83159521 -16.83339379 0.66558138 -13.75 0.5 C-12.87730469 0.45230469 -12.00460938 0.40460938 -11.10546875 0.35546875 C-10.26113281 0.31035156 -9.41679687 0.26523438 -8.546875 0.21875 C-7.38430176 0.1559082 -7.38430176 0.1559082 -6.19824219 0.09179688 C-4.13373418 0.00558463 -2.0663073 0 0 0 Z " fill="#6F73AA" transform="translate(30,80)"/>
<path d="M0 0 C0.99 0.66 1.98 1.32 3 2 C2.67 4.31 2.34 6.62 2 9 C4.31 9 6.62 9 9 9 C8.34 10.65 7.68 12.3 7 14 C5.04233719 14.08082094 3.08373272 14.13910778 1.125 14.1875 C0.03445312 14.22230469 -1.05609375 14.25710937 -2.1796875 14.29296875 C-3.11039062 14.19628906 -4.04109375 14.09960938 -5 14 C-5.66 13.01 -6.32 12.02 -7 11 C-5.68 10.67 -4.36 10.34 -3 10 C-3.99 9.67 -4.98 9.34 -6 9 C-6 6.69 -6 4.38 -6 2 C-3.1875 0.875 -3.1875 0.875 0 0 Z " fill="#7486FE" transform="translate(80,83)"/>
<path d="M0 0 C0.02685938 2.14576637 0.04633088 4.29162645 0.0625 6.4375 C0.07410156 7.63246094 0.08570312 8.82742187 0.09765625 10.05859375 C0 13 0 13 -1 14 C-3.35313555 14.07271741 -5.70833668 14.08370868 -8.0625 14.0625 C-9.35285156 14.05347656 -10.64320312 14.04445313 -11.97265625 14.03515625 C-12.97167969 14.02355469 -13.97070312 14.01195313 -15 14 C-15 13.34 -15 12.68 -15 12 C-14.34 12 -13.68 12 -13 12 C-12.67 11.01 -12.34 10.02 -12 9 C-11.34 8.01 -10.68 7.02 -10 6 C-9.34 6 -8.68 6 -8 6 C-6.31237149 4.3545622 -4.6459651 2.68711423 -3 1 C-1 0 -1 0 0 0 Z " fill="#38D7D7" transform="translate(123,100)"/>
<path d="M0 0 C0.93134766 0.00322266 1.86269531 0.00644531 2.82226562 0.00976562 C4.26182617 0.02233398 4.26182617 0.02233398 5.73046875 0.03515625 C6.70951172 0.03966797 7.68855469 0.04417969 8.69726562 0.04882812 C11.10422986 0.06056941 13.51106732 0.07699206 15.91796875 0.09765625 C16.24796875 1.41765625 16.57796875 2.73765625 16.91796875 4.09765625 C15.92796875 4.09765625 14.93796875 4.09765625 13.91796875 4.09765625 C12.92796875 4.59265625 12.92796875 4.59265625 11.91796875 5.09765625 C10.17752705 5.18215253 8.43387153 5.20488649 6.69140625 5.1953125 C5.66015625 5.19208984 4.62890625 5.18886719 3.56640625 5.18554688 C1.94605469 5.17297852 1.94605469 5.17297852 0.29296875 5.16015625 C-1.33898437 5.15338867 -1.33898437 5.15338867 -3.00390625 5.14648438 C-5.69666914 5.13467401 -8.38932313 5.11820403 -11.08203125 5.09765625 C-10.75203125 3.77765625 -10.42203125 2.45765625 -10.08203125 1.09765625 C-6.65629188 0.32237146 -3.5096388 -0.02153153 0 0 Z " fill="#655CFE" transform="translate(50.08203125,80.90234375)"/>
<path d="M0 0 C0.99 0 1.98 0 3 0 C3 0.66 3 1.32 3 2 C4.32 1.67 5.64 1.34 7 1 C9.29013653 4.4352048 9.17842973 5.985331 9 10 C8.01 10.33 7.02 10.66 6 11 C5.67 11.66 5.34 12.32 5 13 C2.69 12.67 0.38 12.34 -2 12 C-4 6.375 -4 6.375 -4 3 C-2.68 3 -1.36 3 0 3 C0 2.01 0 1.02 0 0 Z " fill="#F2FAFC" transform="translate(21,63)"/>
<path d="M0 0 C3.15973987 0.30092761 3.54183127 0.99323388 5.625 3.25 C6.49125 3.58 7.3575 3.91 8.25 4.25 C9.03375 4.58 9.8175 4.91 10.625 5.25 C10.955 6.24 11.285 7.23 11.625 8.25 C4.365 8.25 -2.895 8.25 -10.375 8.25 C-10.375 7.26 -10.375 6.27 -10.375 5.25 C-8.725 5.25 -7.075 5.25 -5.375 5.25 C-5.065625 4.610625 -4.75625 3.97125 -4.4375 3.3125 C-2.88764755 0.3039629 -2.88764755 0.3039629 0 0 Z " fill="#F7FCFD" transform="translate(118.375,37.75)"/>
<path d="M0 0 C6.27 0.33 12.54 0.66 19 1 C19 1.66 19 2.32 19 3 C18.34 3 17.68 3 17 3 C17 3.99 17 4.98 17 6 C13.59768808 8.90441261 11.62811903 9.95947619 7.125 10.25 C6.09375 10.1675 5.0625 10.085 4 10 C6.06029645 6.90955532 6.82606287 6.48778303 10 5 C10.66 4.34 11.32 3.68 12 3 C10.35 2.67 8.7 2.34 7 2 C6.67 2.99 6.34 3.98 6 5 C5.01 5 4.02 5 3 5 C3 6.32 3 7.64 3 9 C2.34 9 1.68 9 1 9 C0.67 9.66 0.34 10.32 0 11 C0 7.37 0 3.74 0 0 Z " fill="#5E4CFB" transform="translate(102,86)"/>
<path d="M0 0 C0.33 0 0.66 0 1 0 C1.33 2.31 1.66 4.62 2 7 C5.3 7.33 8.6 7.66 12 8 C11.67 8.66 11.34 9.32 11 10 C10.01 10 9.02 10 8 10 C7.855625 10.61875 7.71125 11.2375 7.5625 11.875 C7 14 7 14 6 16 C5.01 16 4.02 16 3 16 C2.67 16.66 2.34 17.32 2 18 C0.68 18 -0.64 18 -2 18 C-2.054348 15.9377952 -2.09294961 13.87517184 -2.125 11.8125 C-2.14820312 10.66394531 -2.17140625 9.51539062 -2.1953125 8.33203125 C-2.00484152 5.08259628 -1.39360127 2.91339479 0 0 Z " fill="#6C72FE" transform="translate(104,106)"/>
<path d="M0 0 C2.31 0 4.62 0 7 0 C7.05395478 1.62463842 7.09277195 3.24978541 7.125 4.875 C7.14820312 5.77992187 7.17140625 6.68484375 7.1953125 7.6171875 C7 10 7 10 5 12 C4.67 12.99 4.34 13.98 4 15 C2.68 15 1.36 15 0 15 C0 10.05 0 5.1 0 0 Z " fill="#6C74FE" transform="translate(98,54)"/>
<path d="M0 0 C2.95887459 -0.08069658 5.9155659 -0.14034665 8.875 -0.1875 C9.71675781 -0.21263672 10.55851562 -0.23777344 11.42578125 -0.26367188 C12.23144531 -0.27333984 13.03710938 -0.28300781 13.8671875 -0.29296875 C14.98262939 -0.31653442 14.98262939 -0.31653442 16.12060547 -0.34057617 C17.05090576 -0.17199097 17.05090576 -0.17199097 18 0 C18.66 0.99 19.32 1.98 20 3 C19.01 3 18.02 3 17 3 C17 3.66 17 4.32 17 5 C11.39 5 5.78 5 0 5 C0 3.35 0 1.7 0 0 Z " fill="#34ADC5" transform="translate(98,49)"/>
<path d="M0 0 C1.93166016 0.01740234 1.93166016 0.01740234 3.90234375 0.03515625 C5.19269531 0.04417969 6.48304687 0.05320312 7.8125 0.0625 C8.81152344 0.07410156 9.81054688 0.08570312 10.83984375 0.09765625 C9.90011719 0.78794922 9.90011719 0.78794922 8.94140625 1.4921875 C6.8353093 3.01718874 6.8353093 3.01718874 5.21484375 4.78515625 C3.83984375 6.09765625 3.83984375 6.09765625 1.83984375 6.09765625 C1.83984375 6.75765625 1.83984375 7.41765625 1.83984375 8.09765625 C-0.14015625 9.08765625 -0.14015625 9.08765625 -2.16015625 10.09765625 C-2.16015625 11.08765625 -2.16015625 12.07765625 -2.16015625 13.09765625 C-2.82015625 13.09765625 -3.48015625 13.09765625 -4.16015625 13.09765625 C-4.18702178 11.11856227 -4.20649 9.13936654 -4.22265625 7.16015625 C-4.23425781 6.05800781 -4.24585937 4.95585938 -4.2578125 3.8203125 C-4.11749553 -0.09172464 -3.97435676 0.12281696 0 0 Z " fill="#40C2EE" transform="translate(109.16015625,95.90234375)"/>
<path d="M0 0 C1.23556641 0.01740234 1.23556641 0.01740234 2.49609375 0.03515625 C3.32238281 0.04417969 4.14867187 0.05320312 5 0.0625 C5.63808594 0.07410156 6.27617188 0.08570312 6.93359375 0.09765625 C6.93359375 4.58376736 6.93359375 4.58376736 4.43359375 7.28515625 C1.82286644 9.59505809 1.82286644 9.59505809 1.93359375 11.09765625 C0.28359375 11.09765625 -1.36640625 11.09765625 -3.06640625 11.09765625 C-3.09328776 9.45191059 -3.11274748 7.80604212 -3.12890625 6.16015625 C-3.14050781 5.24363281 -3.15210938 4.32710938 -3.1640625 3.3828125 C-3.03823137 0.4383641 -2.94124983 0.13900046 0 0 Z " fill="#4995EC" transform="translate(36.06640625,85.90234375)"/>
<path d="M0 0 C1 1 1 1 1.0625 4.5625 C1.041875 5.696875 1.02125 6.83125 1 8 C-1.3125 8.625 -1.3125 8.625 -4 9 C-4.99 8.34 -5.98 7.68 -7 7 C-7 6.34 -7 5.68 -7 5 C-7.66 5 -8.32 5 -9 5 C-9.33 5.99 -9.66 6.98 -10 8 C-11.01560704 5.41481845 -11.14715729 4.3531775 -10.0625 1.75 C-6.81541956 -1.00509856 -4.17088066 -0.33636134 0 0 Z " fill="#40C5D8" transform="translate(59,86)"/>
<path d="M0 0 C1.32 0 2.64 0 4 0 C4 6.6 4 13.2 4 20 C2.68 19.67 1.36 19.34 0 19 C0 12.73 0 6.46 0 0 Z " fill="#3E3E8B" transform="translate(115,63)"/>
<path d="M0 0 C2.64 0 5.28 0 8 0 C8 4.29 8 8.58 8 13 C6.68 13 5.36 13 4 13 C3.34 10.69 2.68 8.38 2 6 C1.34 6 0.68 6 0 6 C0 4.02 0 2.04 0 0 Z " fill="#3CC5D5" transform="translate(26,59)"/>
<path d="M0 0 C12.87 0 25.74 0 39 0 C39 0.66 39 1.32 39 2 C29.43 2 19.86 2 10 2 C10 2.66 10 3.32 10 4 C9.01 4 8.02 4 7 4 C7 3.34 7 2.68 7 2 C4.69 2 2.38 2 0 2 C0 1.34 0 0.68 0 0 Z " fill="#64D3E1" transform="translate(34,45)"/>
<path d="M0 0 C8.58 0 17.16 0 26 0 C25.67 0.99 25.34 1.98 25 3 C17.08 3 9.16 3 1 3 C0.67 2.01 0.34 1.02 0 0 Z " fill="#4C4CA0" transform="translate(101,124)"/>
<path d="M0 0 C0.66 0 1.32 0 2 0 C2 0.99 2 1.98 2 3 C2.33 2.34 2.66 1.68 3 1 C3.66 1 4.32 1 5 1 C6.38232443 2.62626404 7.71937515 4.2925002 9 6 C7.71034824 7.37562854 6.37310707 8.70766393 5 10 C4.34 10 3.68 10 3 10 C3 9.01 3 8.02 3 7 C2.01 7 1.02 7 0 7 C-0.33 8.32 -0.66 9.64 -1 11 C-1.66 11 -2.32 11 -3 11 C-2.69217504 9.35328588 -2.37860766 7.70764424 -2.0625 6.0625 C-1.88847656 5.14597656 -1.71445312 4.22945313 -1.53515625 3.28515625 C-1 1 -1 1 0 0 Z " fill="#53CBDC" transform="translate(47,90)"/>
<path d="M0 0 C1.32 0 2.64 0 4 0 C5.53656962 2.4404341 6.02089707 3.70744102 5.8125 6.625 C5 9 5 9 2 11 C1.67 11.99 1.34 12.98 1 14 C0.34 14 -0.32 14 -1 14 C-1.02685938 11.85423363 -1.04633088 9.70837355 -1.0625 7.5625 C-1.07410156 6.36753906 -1.08570312 5.17257813 -1.09765625 3.94140625 C-1 1 -1 1 0 0 Z " fill="#31C6E0" transform="translate(106,33)"/>
<path d="M0 0 C2.31 0 4.62 0 7 0 C7 1.65 7 3.3 7 5 C3.37 5 -0.26 5 -4 5 C-4 6.65 -4 8.3 -4 10 C-5.32 10 -6.64 10 -8 10 C-8 8.02 -8 6.04 -8 4 C-5.36 4 -2.72 4 0 4 C0 2.68 0 1.36 0 0 Z " fill="#3D418D" transform="translate(34,49)"/>
<path d="M0 0 C4.29 0 8.58 0 13 0 C11.33333333 1.66666667 9.66666667 3.33333333 8 5 C7.154375 5.94875 6.30875 6.8975 5.4375 7.875 C4.2309375 8.926875 4.2309375 8.926875 3 10 C0.6875 9.8125 0.6875 9.8125 -1 9 C-0.34 9 0.32 9 1 9 C1.09278428 5.65976579 0.82810826 3.31243305 0 0 Z " fill="#71D5E4" transform="translate(110,33)"/>
<path d="M0 0 C1.24716797 0.00322266 2.49433594 0.00644531 3.77929688 0.00976562 C5.07287109 0.01814453 6.36644531 0.02652344 7.69921875 0.03515625 C9.66858398 0.04192383 9.66858398 0.04192383 11.67773438 0.04882812 C14.91410885 0.06059676 18.15039053 0.07703865 21.38671875 0.09765625 C21.05671875 0.75765625 20.72671875 1.41765625 20.38671875 2.09765625 C19.73074707 2.11747559 19.07477539 2.13729492 18.39892578 2.15771484 C15.43610806 2.25278132 12.47401343 2.36253377 9.51171875 2.47265625 C7.96291016 2.5190625 7.96291016 2.5190625 6.3828125 2.56640625 C4.90361328 2.62441406 4.90361328 2.62441406 3.39453125 2.68359375 C2.4833252 2.71501465 1.57211914 2.74643555 0.63330078 2.77880859 C-1.81259311 2.89648136 -1.81259311 2.89648136 -3.61328125 5.09765625 C-6.34197532 5.06478042 -8.90994305 4.53367854 -11.61328125 4.09765625 C-11.61328125 3.10765625 -11.61328125 2.11765625 -11.61328125 1.09765625 C-7.68039761 0.16677716 -4.03673962 -0.0184326 0 0 Z " fill="#D9D9E8" transform="translate(106.61328125,125.90234375)"/>
<path d="M0 0 C7.92 0 15.84 0 24 0 C24.33 1.32 24.66 2.64 25 4 C24.01 4 23.02 4 22 4 C22 3.34 22 2.68 22 2 C14.74 2 7.48 2 0 2 C0 1.34 0 0.68 0 0 Z " fill="#49D6D5" transform="translate(73,45)"/>
<path d="M0 0 C2 2 2 2 2.1875 5.0625 C2 8 2 8 1 9 C-0.51928038 9.07179964 -2.04167482 9.08392007 -3.5625 9.0625 C-4.38878906 9.05347656 -5.21507813 9.04445313 -6.06640625 9.03515625 C-6.70449219 9.02355469 -7.34257813 9.01195313 -8 9 C-8 7.35 -8 5.7 -8 4 C-6.02 4.99 -6.02 4.99 -4 6 C-3.34 4.68 -2.68 3.36 -2 2 C-1.34 2 -0.68 2 0 2 C0 1.34 0 0.68 0 0 Z " fill="#37DEC8" transform="translate(121,105)"/>
<path d="M0 0 C2.31 0 4.62 0 7 0 C7.33 0.66 7.66 1.32 8 2 C7.01 3.485 7.01 3.485 6 5 C5.01 5 4.02 5 3 5 C3 6.32 3 7.64 3 9 C2.34 9 1.68 9 1 9 C0.67 9.66 0.34 10.32 0 11 C0 7.37 0 3.74 0 0 Z " fill="#5934FF" transform="translate(102,86)"/>
<path d="M0 0 C0.66 0 1.32 0 2 0 C2 2.97 2 5.94 2 9 C5.3 9.33 8.6 9.66 12 10 C12 10.33 12 10.66 12 11 C6.06 11 0.12 11 -6 11 C-6 10.67 -6 10.34 -6 10 C-4.35 9.67 -2.7 9.34 -1 9 C-0.67 7.68 -0.34 6.36 0 5 C-1.98 5 -3.96 5 -6 5 C-6 4.67 -6 4.34 -6 4 C-4.35 3.67 -2.7 3.34 -1 3 C-0.67 2.01 -0.34 1.02 0 0 Z " fill="#72D9E0" transform="translate(13,42)"/>
<path d="M0 0 C2.875 -0.125 2.875 -0.125 6 0 C6.66 0.66 7.32 1.32 8 2 C8.33 1.34 8.66 0.68 9 0 C9.66 0 10.32 0 11 0 C10.67 1.65 10.34 3.3 10 5 C6.7 5 3.4 5 0 5 C0 3.35 0 1.7 0 0 Z " fill="#35ADC6" transform="translate(33,97)"/>
<path d="M0 0 C0.66 0.33 1.32 0.66 2 1 C2 2.65 2 4.3 2 6 C-1.96 6 -5.92 6 -10 6 C-9 4 -9 4 -6 3 C-5.34 2.34 -4.68 1.68 -4 1 C-3.01 1 -2.02 1 -1 1 C-0.67 0.67 -0.34 0.34 0 0 Z " fill="#7895FE" transform="translate(125,118)"/>
<path d="M0 0 C0 0.33 0 0.66 0 1 C-1.98 1 -3.96 1 -6 1 C-5.73606499 4.43230448 -5.73606499 4.43230448 -5 8 C-4.01 8.66 -3.02 9.32 -2 10 C-5.125 9.47916667 -8.25 8.95833333 -11.375 8.4375 C-12.674375 8.2209375 -12.674375 8.2209375 -14 8 C-14 7.67 -14 7.34 -14 7 C-12.35 6.67 -10.7 6.34 -9 6 C-8.67 4.68 -8.34 3.36 -8 2 C-9.98 2 -11.96 2 -14 2 C-14 1.67 -14 1.34 -14 1 C-9.32798795 -0.20568053 -4.78503708 -0.09382426 0 0 Z " fill="#88D0E3" transform="translate(21,33)"/>
<path d="M0 0 C0.99 0.33 1.98 0.66 3 1 C3 2.32 3 3.64 3 5 C-0.96 5 -4.92 5 -9 5 C-9.33 4.01 -9.66 3.02 -10 2 C-6.7 2 -3.4 2 0 2 C0 1.34 0 0.68 0 0 Z " fill="#4ED3D6" transform="translate(43,100)"/>
<path d="M0 0 C2.31 0 4.62 0 7 0 C7 1.98 7 3.96 7 6 C4.69 6 2.38 6 0 6 C0 4.02 0 2.04 0 0 Z " fill="#A2C2FE" transform="translate(91,85)"/>
<path d="M0 0 C0.99 0 1.98 0 3 0 C3 0.66 3 1.32 3 2 C2.01 2 1.02 2 0 2 C0 2.66 0 3.32 0 4 C-1.32 4 -2.64 4 -4 4 C-4.33 4.99 -4.66 5.98 -5 7 C-7.97 7 -10.94 7 -14 7 C-14 6.01 -14 5.02 -14 4 C-7.565 3.505 -7.565 3.505 -1 3 C-0.67 2.01 -0.34 1.02 0 0 Z " fill="#43D3D4" transform="translate(27,73)"/>
<path d="M0 0 C3.3 0 6.6 0 10 0 C9 2 9 2 6.5 2.875 C5.675 3.24625 4.85 3.6175 4 4 C3.34786708 6.02463255 3.34786708 6.02463255 3 8 C2.01 8.33 1.02 8.66 0 9 C0 6.03 0 3.06 0 0 Z " fill="#3EBBDD" transform="translate(105,54)"/>
<path d="M0 0 C0.66 0 1.32 0 2 0 C2 3.63 2 7.26 2 11 C0.68 11.33 -0.64 11.66 -2 12 C-2.05422947 10.5629191 -2.09289723 9.12524538 -2.125 7.6875 C-2.14820312 6.88699219 -2.17140625 6.08648437 -2.1953125 5.26171875 C-2 3 -2 3 0 0 Z " fill="#6B6EFE" transform="translate(125,92)"/>
<path d="M0 0 C6.27 0 12.54 0 19 0 C19 2.31 19 4.62 19 7 C18.34 7 17.68 7 17 7 C15.95374591 5.70264493 14.95298777 4.36733028 14 3 C12.12175109 1.12175109 8.96064724 1.60897603 6.4375 1.4375 C5.23996094 1.35371094 4.04242188 1.26992188 2.80859375 1.18359375 C1.88175781 1.12300781 0.95492188 1.06242187 0 1 C0 0.67 0 0.34 0 0 Z " fill="#91DDE5" transform="translate(7,58)"/>
<path d="M0 0 C1.37478516 0.01740234 1.37478516 0.01740234 2.77734375 0.03515625 C3.69644531 0.04417969 4.61554688 0.05320312 5.5625 0.0625 C6.27277344 0.07410156 6.98304687 0.08570312 7.71484375 0.09765625 C4.71484375 2.09765625 4.71484375 2.09765625 1.71484375 2.09765625 C1.71484375 2.75765625 1.71484375 3.41765625 1.71484375 4.09765625 C0.04817708 5.76432292 -1.61848958 7.43098958 -3.28515625 9.09765625 C-3.3828125 2.9453125 -3.3828125 2.9453125 -3.28515625 1.09765625 C-2.28515625 0.09765625 -2.28515625 0.09765625 0 0 Z " fill="#45B4F5" transform="translate(108.28515625,95.90234375)"/>
<path d="M0 0 C1.32 0.33 2.64 0.66 4 1 C3.3503125 1.74056641 3.3503125 1.74056641 2.6875 2.49609375 C2.130625 3.13675781 1.57375 3.77742188 1 4.4375 C0.443125 5.07558594 -0.11375 5.71367188 -0.6875 6.37109375 C-2.10457065 7.78113179 -2.10457065 7.78113179 -2 9 C-3.65 9 -5.3 9 -7 9 C-7 8.01 -7 7.02 -7 6 C-6.01 6 -5.02 6 -4 6 C-3.67 4.68 -3.34 3.36 -3 2 C-2.01 2 -1.02 2 0 2 C0 1.34 0 0.68 0 0 Z " fill="#43A8E5" transform="translate(40,88)"/>
<path d="M0 0 C0.99 0.33 1.98 0.66 3 1 C3 1.66 3 2.32 3 3 C3.33 3.33 3.66 3.66 4 4 C4.04092937 6.33297433 4.04241723 8.66705225 4 11 C2.35 11 0.7 11 -1 11 C-0.67 7.37 -0.34 3.74 0 0 Z " fill="#34C5C4" transform="translate(115,52)"/>
<path d="M0 0 C1.98 0 3.96 0 6 0 C6 1.98 6 3.96 6 6 C4.02 6 2.04 6 0 6 C0 4.02 0 2.04 0 0 Z " fill="#A7C8FF" transform="translate(83,85)"/>
<path d="M0 0 C1.98 0 3.96 0 6 0 C6 1.98 6 3.96 6 6 C4.02 6 2.04 6 0 6 C0 4.02 0 2.04 0 0 Z " fill="#A6C7FF" transform="translate(74,85)"/>
<path d="M0 0 C3.34252724 -0.07427838 5.8035914 -0.06546953 9 1 C9 1.99 9 2.98 9 4 C5.7 4 2.4 4 -1 4 C-0.67 2.68 -0.34 1.36 0 0 Z " fill="#31C7DE" transform="translate(14,59)"/>
<path d="M0 0 C0.99 0 1.98 0 3 0 C3.08121924 1.60332791 3.13929134 3.20784026 3.1875 4.8125 C3.23970703 6.15248047 3.23970703 6.15248047 3.29296875 7.51953125 C3 10 3 10 0 13 C0 8.71 0 4.42 0 0 Z " fill="#3B96D8" transform="translate(41,49)"/>
<path d="M0 0 C2.31 0 4.62 0 7 0 C7 1.65 7 3.3 7 5 C4.69 5 2.38 5 0 5 C0 3.35 0 1.7 0 0 Z " fill="#3C3E8A" transform="translate(98,49)"/>
<path d="M0 0 C6.6 0 13.2 0 20 0 C20 0.99 20 1.98 20 3 C13.4 2.34 6.8 1.68 0 1 C0 0.67 0 0.34 0 0 Z " fill="#41D1D8" transform="translate(14,32)"/>
<path d="M0 0 C2.64 0 5.28 0 8 0 C7.67 1.32 7.34 2.64 7 4 C4.69 4.66 2.38 5.32 0 6 C0 4.02 0 2.04 0 0 Z " fill="#38AED1" transform="translate(26,59)"/>
<path d="M0 0 C0.99 0 1.98 0 3 0 C3 1.65 3 3.3 3 5 C3.66 5 4.32 5 5 5 C4.34 6.32 3.68 7.64 3 9 C-0.875 7.25 -0.875 7.25 -2 5 C-1.34 5 -0.68 5 0 5 C0 3.35 0 1.7 0 0 Z " fill="#E7F8F9" transform="translate(118,48)"/>
<path d="M0 0 C0.33 0 0.66 0 1 0 C1 1.98 1 3.96 1 6 C2.98 6 4.96 6 7 6 C7 4.35 7 2.7 7 1 C7.33 1 7.66 1 8 1 C8 2.65 8 4.3 8 6 C10.64 6 13.28 6 16 6 C16 6.33 16 6.66 16 7 C13.03 7.66 10.06 8.32 7 9 C7 8.34 7 7.68 7 7 C4.69 7 2.38 7 0 7 C0 4.69 0 2.38 0 0 Z " fill="#8099FE" transform="translate(82,85)"/>
<path d="M0 0 C7.92 0.33 15.84 0.66 24 1 C24 1.33 24 1.66 24 2 C19.38 2 14.76 2 10 2 C10 2.66 10 3.32 10 4 C9.01 4 8.02 4 7 4 C7 3.34 7 2.68 7 2 C4.69 2 2.38 2 0 2 C0 1.34 0 0.68 0 0 Z " fill="#8CD7E7" transform="translate(34,45)"/>
<path d="M0 0 C1.67542976 0.28604898 3.34385343 0.61781233 5 1 C4.67 2.32 4.34 3.64 4 5 C2.68 5.33 1.36 5.66 0 6 C-0.38218767 4.34385343 -0.71395102 2.67542976 -1 1 C-0.67 0.67 -0.34 0.34 0 0 Z " fill="#52CFDD" transform="translate(22,67)"/>
<path d="M0 0 C1.65 0.33 3.3 0.66 5 1 C4.34 1.66 3.68 2.32 3 3 C2.67 3.66 2.34 4.32 2 5 C1.01 5 0.02 5 -1 5 C-1.33 5.99 -1.66 6.98 -2 8 C-2.6875 6.25 -2.6875 6.25 -3 4 C-1.5625 1.75 -1.5625 1.75 0 0 Z " fill="#41BBDD" transform="translate(51,86)"/>
<path d="M0 0 C0.66 0 1.32 0 2 0 C1.34 3.3 0.68 6.6 0 10 C-0.99 10.33 -1.98 10.66 -3 11 C-2.69217504 9.35328588 -2.37860766 7.70764424 -2.0625 6.0625 C-1.88847656 5.14597656 -1.71445312 4.22945313 -1.53515625 3.28515625 C-1 1 -1 1 0 0 Z " fill="#E2F6F8" transform="translate(47,90)"/>
<path d="M0 0 C-0.33 0.66 -0.66 1.32 -1 2 C-4.63 1.67 -8.26 1.34 -12 1 C-12 0.34 -12 -0.32 -12 -1 C-10.56465159 -1.2226746 -9.12654475 -1.42761906 -7.6875 -1.625 C-6.48673828 -1.79902344 -6.48673828 -1.79902344 -5.26171875 -1.9765625 C-3 -2 -3 -2 0 0 Z " fill="#A7DFEA" transform="translate(19,70)"/>
<path d="M0 0 C0 1.98 0 3.96 0 6 C-1.65 6.33 -3.3 6.66 -5 7 C-5.33 6.01 -5.66 5.02 -6 4 C-5.01 4 -4.02 4 -3 4 C-3 3.01 -3 2.02 -3 1 C-1 0 -1 0 0 0 Z " fill="#39CBD1" transform="translate(60,88)"/>
<path d="M0 0 C3.465 1.485 3.465 1.485 7 3 C7 3.99 7 4.98 7 6 C4.69 5.67 2.38 5.34 0 5 C-0.33 4.01 -0.66 3.02 -1 2 C-0.67 1.34 -0.34 0.68 0 0 Z " fill="#FCFEFE" transform="translate(19,70)"/>
<path d="M0 0 C0.33 0 0.66 0 1 0 C1.37211538 7.56634615 1.37211538 7.56634615 -0.51171875 9.76171875 C-1.00285156 10.17035156 -1.49398437 10.57898438 -2 11 C-1.85892253 9.54119891 -1.71197585 8.08296449 -1.5625 6.625 C-1.48128906 5.81289062 -1.40007812 5.00078125 -1.31640625 4.1640625 C-1 2 -1 2 0 0 Z " fill="#665FFE" transform="translate(104,106)"/>
<path d="M0 0 C1.21346851 3.64040554 1.21346851 5.35959446 0 9 C-1.32 7.35 -2.64 5.7 -4 4 C-2.68 2.68 -1.36 1.36 0 0 Z " fill="#E0F2F8" transform="translate(41,91)"/>
<path d="M0 0 C2.64 0 5.28 0 8 0 C7.01 0.66 6.02 1.32 5 2 C4.01 3.485 4.01 3.485 3 5 C2.01 4.34 1.02 3.68 0 3 C0 2.01 0 1.02 0 0 Z " fill="#E3F5F9" transform="translate(17,66)"/>
<path d="M0 0 C1.32 0 2.64 0 4 0 C3.67 1.65 3.34 3.3 3 5 C1.02 5 -0.96 5 -3 5 C-2.01 4.67 -1.02 4.34 0 4 C0 2.68 0 1.36 0 0 Z " fill="#37E1C0" transform="translate(56,100)"/>
<path d="M0 0 C0.33 0 0.66 0 1 0 C1 2.64 1 5.28 1 8 C0.01 8.33 -0.98 8.66 -2 9 C-2.25 3.375 -2.25 3.375 0 0 Z " fill="#409AE9" transform="translate(43,59)"/>
<path d="M0 0 C0.99 0.33 1.98 0.66 3 1 C3 5 3 5 2 8 C1.34 8 0.68 8 0 8 C0 5.36 0 2.72 0 0 Z " fill="#3CC0C9" transform="translate(115,52)"/>
<path d="M0 0 C0.99 0 1.98 0 3 0 C3.33 1.32 3.66 2.64 4 4 C2.35 4.33 0.7 4.66 -1 5 C-0.67 3.35 -0.34 1.7 0 0 Z " fill="#34C2C5" transform="translate(47,97)"/>
<path d="M0 0 C0 0.66 0 1.32 0 2 C-0.99 2.33 -1.98 2.66 -3 3 C-3.33 3.99 -3.66 4.98 -4 6 C-4.99 6 -5.98 6 -7 6 C-6.75 4.125 -6.75 4.125 -6 2 C-3.85331506 0.61504198 -2.56128588 0 0 0 Z " fill="#3F9AE9" transform="translate(40,88)"/>
<path d="M0 0 C2.31 0 4.62 0 7 0 C6.01 0.33 5.02 0.66 4 1 C3.67 1.99 3.34 2.98 3 4 C2.01 4 1.02 4 0 4 C0 2.68 0 1.36 0 0 Z " fill="#31C6DE" transform="translate(13,65)"/>
<path d="M0 0 C1.65 0.99 3.3 1.98 5 3 C3.625 5 3.625 5 2 7 C1.34 7 0.68 7 0 7 C0.2784375 6.1028125 0.2784375 6.1028125 0.5625 5.1875 C1.22093687 2.83591238 1.22093687 2.83591238 0 0 Z " fill="#E8F8FA" transform="translate(51,92)"/>
</svg>
