<?xml version="1.0" encoding="UTF-8"?>
<svg version="1.1" xmlns="http://www.w3.org/2000/svg" width="150" height="150">
<path d="M0 0 C0.495 2.97 0.495 2.97 1 6 C6.7974423 6.24428343 6.7974423 6.24428343 12 4 C13.65 5.65 15.3 7.3 17 9 C15.5 12 15.5 12 14 15 C15.82337891 14.98259766 15.82337891 14.98259766 17.68359375 14.96484375 C19.26822764 14.95546722 20.85286318 14.94636687 22.4375 14.9375 C23.23994141 14.92912109 24.04238281 14.92074219 24.86914062 14.91210938 C26.91295221 14.9034857 28.95683902 14.9477185 31 15 C32 16 32 16 32.11352539 18.50024414 C32.10567017 20.12627563 32.10567017 20.12627563 32.09765625 21.78515625 C32.09282227 23.53989258 32.09282227 23.53989258 32.08789062 25.33007812 C32.07532227 27.17762695 32.07532227 27.17762695 32.0625 29.0625 C32.05798828 30.29806641 32.05347656 31.53363281 32.04882812 32.80664062 C32.03699608 35.87114117 32.02051173 38.93554721 32 42 C33.98 41.01 33.98 41.01 36 40 C37.5625 41.75 37.5625 41.75 39 44 C38.6875 46.125 38.6875 46.125 38 48 C38 48.66 38 49.32 38 50 C38.99 50.33 39.98 50.66 41 51 C40.67 52.32 40.34 53.64 40 55 C38.824375 55.0928125 38.824375 55.0928125 37.625 55.1875 C36.75875 55.455625 35.8925 55.72375 35 56 C33.62533375 58.47636012 33.62533375 58.47636012 33 61 C31.68 61 30.36 61 29 61 C28.67 60.34 28.34 59.68 28 59 C27.071875 59.0825 26.14375 59.165 25.1875 59.25 C22 59 22 59 20.0625 57.25 C18.78226842 54.53892135 19.27972737 53.79105644 20 51 C18.64555699 49.22809091 18.64555699 49.22809091 17 48 C17.33 47.01 17.66 46.02 18 45 C17.34 45 16.68 45 16 45 C16 51.6 16 58.2 16 65 C18.31 65 20.62 65 23 65 C24 66 24 66 24.11352539 69.96899414 C24.1133662 71.74105607 24.10766785 73.5131226 24.09765625 75.28515625 C24.0962413 76.21597519 24.09482635 77.14679413 24.09336853 78.1058197 C24.08775172 81.09141191 24.0751964 84.07693029 24.0625 87.0625 C24.05748716 89.08137913 24.05292388 91.10025943 24.04882812 93.11914062 C24.03777683 98.07945572 24.02050095 103.03971532 24 108 C26.31 108.66 28.62 109.32 31 110 C30 112 30 112 28.34521484 112.61450195 C23.49200924 113.41225457 18.54404055 113.18590312 13.63769531 113.18530273 C11.63863013 113.18748512 9.63960468 113.20599143 7.640625 113.22460938 C6.36960937 113.22654297 5.09859375 113.22847656 3.7890625 113.23046875 C2.63100098 113.23457764 1.47293945 113.23868652 0.27978516 113.24291992 C-3.11310954 112.99162245 -5.83332989 112.21173908 -9 111 C-8.67 110.34 -8.34 109.68 -8 109 C-5.4375 108.375 -5.4375 108.375 -3 108 C-3.67857056 107.99191315 -4.35714111 107.98382629 -5.05627441 107.97549438 C-12.19572947 107.88863335 -19.33493245 107.7891071 -26.47412109 107.68261719 C-29.12938188 107.64363425 -31.7845665 107.60971702 -34.43994141 107.578125 C-72.93926359 107.11445232 -72.93926359 107.11445232 -80 103 C-79.505 102.01 -79.505 102.01 -79 101 C-77.66666667 100.66666667 -76.33333333 100.33333333 -75 100 C-74.67 99.34 -74.34 98.68 -74 98 C-78.2787981 98.41586354 -78.2787981 98.41586354 -81.875 100.5625 C-82.24625 101.036875 -82.6175 101.51125 -83 102 C-85.5 100.875 -85.5 100.875 -88 99 C-88.25 96 -88.25 96 -88 93 C-88.33 92.01 -88.66 91.02 -89 90 C-89.639375 90.185625 -90.27875 90.37125 -90.9375 90.5625 C-91.9584375 90.7790625 -91.9584375 90.7790625 -93 91 C-94 90 -94 90 -94.0625 86.4375 C-94.041875 85.303125 -94.02125 84.16875 -94 83 C-92.02 82.505 -92.02 82.505 -90 82 C-89.20046862 78.71303767 -88.90341064 77.28976808 -90 74 C-87.6875 72.4375 -87.6875 72.4375 -85 71 C-84.01 71.33 -83.02 71.66 -82 72 C-82 72.66 -82 73.32 -82 74 C-80.35 74 -78.7 74 -77 74 C-77 70.04 -77 66.08 -77 62 C-81.29 62 -85.58 62 -90 62 C-90.02683436 58.68744674 -90.0467578 55.37510817 -90.0625 52.0625 C-90.07087891 51.11697266 -90.07925781 50.17144531 -90.08789062 49.19726562 C-90.09111328 48.29814453 -90.09433594 47.39902344 -90.09765625 46.47265625 C-90.10289307 45.64000244 -90.10812988 44.80734863 -90.11352539 43.94946289 C-90 42 -90 42 -89 41 C-86.98035801 40.92755947 -84.95832876 40.91622812 -82.9375 40.9375 C-81.28041016 40.95103516 -81.28041016 40.95103516 -79.58984375 40.96484375 C-78.73519531 40.97644531 -77.88054687 40.98804688 -77 41 C-77.061875 39.906875 -77.12375 38.81375 -77.1875 37.6875 C-77 34 -77 34 -75.875 32.28125 C-73.1629604 30.42802294 -71.05676436 30.70784631 -67.8125 30.8125 C-66.72582031 30.83957031 -65.63914062 30.86664063 -64.51953125 30.89453125 C-63.27236328 30.94673828 -63.27236328 30.94673828 -62 31 C-61.67 29.68 -61.34 28.36 -61 27 C-45.82 27 -30.64 27 -15 27 C-15.33 25.35 -15.66 23.7 -16 22 C-18.47636012 20.62533375 -18.47636012 20.62533375 -21 20 C-20.01 15.545 -20.01 15.545 -19 11 C-17.906875 11.0825 -16.81375 11.165 -15.6875 11.25 C-12.03566417 11.36773605 -12.03566417 11.36773605 -10 9.3125 C-8.7593966 6.44360465 -9.10057179 4.94358324 -10 2 C-3.375 0 -3.375 0 0 0 Z M-7 14 C-9.2084626 17.31269391 -9.80664241 19.14978851 -9.5546875 23.0625 C-8.4812192 26.81207941 -6.28696911 28.01541488 -3 30 C-0.36163023 30.1672392 -0.36163023 30.1672392 2 30 C2.03738281 29.01257813 2.07476562 28.02515625 2.11328125 27.0078125 C2.17902344 25.72648437 2.24476562 24.44515625 2.3125 23.125 C2.37050781 21.84882812 2.42851563 20.57265625 2.48828125 19.2578125 C2.65714844 18.18273437 2.82601562 17.10765625 3 16 C3.99 15.34 4.98 14.68 6 14 C4.01607489 11.60148679 4.01607489 11.60148679 0.1875 11.5625 C-3.17733329 11.66669338 -4.04370031 12.02913354 -7 14 Z M24 47 C23.6366844 49.83386167 23.6431329 51.40522151 25.125 53.875 C27.92151052 55.55290631 29.93690532 54.74875648 33 54 C33.67673447 50.59679066 33.67673447 50.59679066 34 47 C32.11499729 44.68436913 32.11499729 44.68436913 29 44.75 C25.88500271 44.68436913 25.88500271 44.68436913 24 47 Z M-83.25 80.625 C-85.21985834 82.92308586 -85.21985834 82.92308586 -85.5 86 C-85.21376982 89.06575838 -85.21376982 89.06575838 -83.3125 91.375 C-80.61209763 93.27258004 -79.22939919 93.35882213 -76 93 C-75.85024761 85.94348748 -75.85024761 85.94348748 -77 79 C-80.92212225 78.60967296 -80.92212225 78.60967296 -83.25 80.625 Z M-67 95 C-67.66 96.65 -68.32 98.3 -69 100 C-56.13 99.01 -56.13 99.01 -43 98 C-42.67 97.01 -42.34 96.02 -42 95 C-50.25 95 -58.5 95 -67 95 Z M-18 95 C-18 95.99 -18 96.98 -18 98 C-12.72 98.33 -7.44 98.66 -2 99 C-2 97.68 -2 96.36 -2 95 C-7.28 95 -12.56 95 -18 95 Z " fill="#5E4EEF" transform="translate(103,18)"/>
<path d="M0 0 C0.495 2.97 0.495 2.97 1 6 C6.7974423 6.24428343 6.7974423 6.24428343 12 4 C13.65 5.65 15.3 7.3 17 9 C15.5 12 15.5 12 14 15 C15.82337891 14.98259766 15.82337891 14.98259766 17.68359375 14.96484375 C19.26822764 14.95546722 20.85286318 14.94636687 22.4375 14.9375 C23.23994141 14.92912109 24.04238281 14.92074219 24.86914062 14.91210938 C26.91295221 14.9034857 28.95683902 14.9477185 31 15 C32 16 32 16 32.11352539 18.50024414 C32.10567017 20.12627563 32.10567017 20.12627563 32.09765625 21.78515625 C32.09282227 23.53989258 32.09282227 23.53989258 32.08789062 25.33007812 C32.07532227 27.17762695 32.07532227 27.17762695 32.0625 29.0625 C32.05798828 30.29806641 32.05347656 31.53363281 32.04882812 32.80664062 C32.03699608 35.87114117 32.02051173 38.93554721 32 42 C33.32 41.34 34.64 40.68 36 40 C37.5625 41.75 37.5625 41.75 39 44 C38.6875 46.125 38.6875 46.125 38 48 C38 48.66 38 49.32 38 50 C38.99 50.33 39.98 50.66 41 51 C40.67 52.32 40.34 53.64 40 55 C38.824375 55.0928125 38.824375 55.0928125 37.625 55.1875 C36.325625 55.5896875 36.325625 55.5896875 35 56 C33.62533375 58.47636012 33.62533375 58.47636012 33 61 C31.68 61 30.36 61 29 61 C28.67 60.34 28.34 59.68 28 59 C27.071875 59.0825 26.14375 59.165 25.1875 59.25 C22 59 22 59 20.0625 57.25 C18.78226842 54.53892135 19.27972737 53.79105644 20 51 C18.64555699 49.22809091 18.64555699 49.22809091 17 48 C17.33 47.01 17.66 46.02 18 45 C17.34 45 16.68 45 16 45 C16 51.6 16 58.2 16 65 C18.31 65 20.62 65 23 65 C24 66 24 66 24.11352539 67.85766602 C24.10567017 69.04380493 24.10567017 69.04380493 24.09765625 70.25390625 C24.09282227 71.53491211 24.09282227 71.53491211 24.08789062 72.84179688 C24.07532227 74.18854492 24.07532227 74.18854492 24.0625 75.5625 C24.05798828 76.46419922 24.05347656 77.36589844 24.04882812 78.29492188 C24.03700225 80.53001314 24.0205222 82.76497437 24 85 C23.01 85 22.02 85 21 85 C20.67 85.66 20.34 86.32 20 87 C20 84.03 20 81.06 20 78 C14.39 78 8.78 78 3 78 C5 74 5 74 7 73 C7.33 72.34 7.66 71.68 8 71 C4.88214887 71.64644661 4.88214887 71.64644661 4 74 C3.34 74 2.68 74 2 74 C2 74.99 2 75.98 2 77 C1.34 77 0.68 77 0 77 C-0.33 77.66 -0.66 78.32 -1 79 C-1.19456705 77.04235617 -1.38044247 75.08384679 -1.5625 73.125 C-1.71912109 71.48917969 -1.71912109 71.48917969 -1.87890625 69.8203125 C-2 67 -2 67 -1 65 C3.29 65 7.58 65 12 65 C12 58.4 12 51.8 12 45 C8.7 45 5.4 45 2 45 C2 42.03 2 39.06 2 36 C-0.31 36 -2.62 36 -5 36 C-4.97679688 36.69867188 -4.95359375 37.39734375 -4.9296875 38.1171875 C-4.91164063 39.02726562 -4.89359375 39.93734375 -4.875 40.875 C-4.85179688 41.77992187 -4.82859375 42.68484375 -4.8046875 43.6171875 C-5 46 -5 46 -7 48 C-9.23240662 48.26069641 -9.23240662 48.26069641 -12.04467773 48.2746582 C-13.09594345 48.28419022 -14.14720917 48.29372223 -15.23033142 48.30354309 C-16.36990799 48.30263168 -17.50948456 48.30172028 -18.68359375 48.30078125 C-19.85003922 48.30506638 -21.01648468 48.3093515 -22.21827698 48.31376648 C-24.68888702 48.31951802 -27.15951401 48.32000402 -29.63012695 48.31567383 C-33.41842442 48.3125159 -37.20593992 48.33595686 -40.99414062 48.36132812 C-43.39062401 48.36360115 -45.78710951 48.3643046 -48.18359375 48.36328125 C-49.32114609 48.372491 -50.45869843 48.38170074 -51.63072205 48.39118958 C-53.21234886 48.38184639 -53.21234886 48.38184639 -54.82592773 48.37231445 C-55.7547728 48.37294388 -56.68361786 48.3735733 -57.64060974 48.3742218 C-60.40646162 47.93553131 -61.28270608 47.15530843 -63 45 C-63.33 47.31 -63.66 49.62 -64 52 C-64.33 52 -64.66 52 -65 52 C-65.66 54.97 -66.32 57.94 -67 61 C-66.01 60.505 -66.01 60.505 -65 60 C-65 59.01 -65 58.02 -65 57 C-64.01 57 -63.02 57 -62 57 C-61.67 56.01 -61.34 55.02 -61 54 C-60.67 54.66 -60.34 55.32 -60 56 C-58.10466658 56.46523063 -58.10466658 56.46523063 -55.9375 56.625 C-54.638125 56.74875 -53.33875 56.8725 -52 57 C-52 57.99 -52 58.98 -52 60 C-52.66 60 -53.32 60 -54 60 C-54.495 60.99 -54.495 60.99 -55 62 C-55.33 61.01 -55.66 60.02 -56 59 C-58.46278801 61.46278801 -58.99771255 63.70676982 -60 67 C-58.85660156 67.06058594 -57.71320312 67.12117188 -56.53515625 67.18359375 C-55.04425695 67.26798428 -53.55337225 67.35263302 -52.0625 67.4375 C-51.30775391 67.47681641 -50.55300781 67.51613281 -49.77539062 67.55664062 C-44.11328125 67.88671875 -44.11328125 67.88671875 -43 69 C-42.90013025 71.84335048 -42.86122119 74.65697163 -42.875 77.5 C-42.86919922 78.69689453 -42.86919922 78.69689453 -42.86328125 79.91796875 C-42.87339233 85.87339233 -42.87339233 85.87339233 -44 87 C-45.85369611 87.08737645 -47.71067541 87.10698153 -49.56640625 87.09765625 C-50.69111328 87.09443359 -51.81582031 87.09121094 -52.97460938 87.08789062 C-54.15861328 87.07951172 -55.34261719 87.07113281 -56.5625 87.0625 C-57.75037109 87.05798828 -58.93824219 87.05347656 -60.16210938 87.04882812 C-63.10812226 87.03699675 -66.05403681 87.02051287 -69 87 C-69.33 86.01 -69.66 85.02 -70 84 C-72.31 84 -74.62 84 -77 84 C-77 76.74 -77 69.48 -77 62 C-81.29 62 -85.58 62 -90 62 C-90.02683436 58.68744674 -90.0467578 55.37510817 -90.0625 52.0625 C-90.07087891 51.11697266 -90.07925781 50.17144531 -90.08789062 49.19726562 C-90.09111328 48.29814453 -90.09433594 47.39902344 -90.09765625 46.47265625 C-90.10289307 45.64000244 -90.10812988 44.80734863 -90.11352539 43.94946289 C-90 42 -90 42 -89 41 C-86.98035801 40.92755947 -84.95832876 40.91622812 -82.9375 40.9375 C-81.28041016 40.95103516 -81.28041016 40.95103516 -79.58984375 40.96484375 C-78.73519531 40.97644531 -77.88054687 40.98804688 -77 41 C-77.061875 39.906875 -77.12375 38.81375 -77.1875 37.6875 C-77 34 -77 34 -75.875 32.28125 C-73.1629604 30.42802294 -71.05676436 30.70784631 -67.8125 30.8125 C-66.72582031 30.83957031 -65.63914062 30.86664063 -64.51953125 30.89453125 C-63.27236328 30.94673828 -63.27236328 30.94673828 -62 31 C-61.67 29.68 -61.34 28.36 -61 27 C-45.82 27 -30.64 27 -15 27 C-15.33 25.35 -15.66 23.7 -16 22 C-18.47636012 20.62533375 -18.47636012 20.62533375 -21 20 C-20.01 15.545 -20.01 15.545 -19 11 C-17.906875 11.0825 -16.81375 11.165 -15.6875 11.25 C-12.03566417 11.36773605 -12.03566417 11.36773605 -10 9.3125 C-8.7593966 6.44360465 -9.10057179 4.94358324 -10 2 C-3.375 0 -3.375 0 0 0 Z M-7 14 C-9.2084626 17.31269391 -9.80664241 19.14978851 -9.5546875 23.0625 C-8.4812192 26.81207941 -6.28696911 28.01541488 -3 30 C-0.36163023 30.1672392 -0.36163023 30.1672392 2 30 C2.03738281 29.01257813 2.07476562 28.02515625 2.11328125 27.0078125 C2.17902344 25.72648437 2.24476562 24.44515625 2.3125 23.125 C2.37050781 21.84882812 2.42851563 20.57265625 2.48828125 19.2578125 C2.65714844 18.18273437 2.82601562 17.10765625 3 16 C3.99 15.34 4.98 14.68 6 14 C4.01607489 11.60148679 4.01607489 11.60148679 0.1875 11.5625 C-3.17733329 11.66669338 -4.04370031 12.02913354 -7 14 Z M24 47 C23.6366844 49.83386167 23.6431329 51.40522151 25.125 53.875 C27.92151052 55.55290631 29.93690532 54.74875648 33 54 C33.67673447 50.59679066 33.67673447 50.59679066 34 47 C32.11499729 44.68436913 32.11499729 44.68436913 29 44.75 C25.88500271 44.68436913 25.88500271 44.68436913 24 47 Z " fill="#37CCD1" transform="translate(103,18)"/>
<path d="M0 0 C0.99 0.33 1.98 0.66 3 1 C3 1.66 3 2.32 3 3 C4.65 3 6.3 3 8 3 C8 4.65 8 6.3 8 8 C7.030625 8.28875 6.06125 8.5775 5.0625 8.875 C1.89335797 9.64214682 1.89335797 9.64214682 1 12 C0.85624578 15.37822416 0.92463652 17.77390955 2 21 C4.31 21.33 6.62 21.66 9 22 C9 19.03 9 16.06 9 13 C10.98 13 12.96 13 15 13 C15.33 13.66 15.66 14.32 16 15 C24.25 15 32.5 15 41 15 C41.33 14.34 41.66 13.68 42 13 C55.53 13 69.06 13 83 13 C83 16.63 83 20.26 83 24 C77.72 24 72.44 24 67 24 C67 24.99 67 25.98 67 27 C67.56847656 26.98839844 68.13695313 26.97679688 68.72265625 26.96484375 C73.60670484 26.90776806 78.18503965 27.18043228 83 28 C83 30.64 83 33.28 83 36 C75.71409984 36.04682155 68.42823335 36.08211748 61.14221191 36.10362434 C57.75718789 36.11395864 54.37226851 36.12792229 50.98730469 36.15087891 C12.5625541 36.39227608 12.5625541 36.39227608 5 32 C5.33 31.34 5.66 30.68 6 30 C7.33333333 29.66666667 8.66666667 29.33333333 10 29 C10.33 28.34 10.66 27.68 11 27 C6.7212019 27.41586354 6.7212019 27.41586354 3.125 29.5625 C2.75375 30.036875 2.3825 30.51125 2 31 C-0.5 29.875 -0.5 29.875 -3 28 C-3.25 25 -3.25 25 -3 22 C-3.33 21.01 -3.66 20.02 -4 19 C-4.639375 19.185625 -5.27875 19.37125 -5.9375 19.5625 C-6.618125 19.706875 -7.29875 19.85125 -8 20 C-9 19 -9 19 -9.0625 15.4375 C-9.041875 14.303125 -9.02125 13.16875 -9 12 C-7.68 11.67 -6.36 11.34 -5 11 C-4.20046862 7.71303767 -3.90341064 6.28976808 -5 3 C-2.6875 1.4375 -2.6875 1.4375 0 0 Z M18 24 C17.34 25.65 16.68 27.3 16 29 C28.87 28.01 28.87 28.01 42 27 C42.33 26.01 42.66 25.02 43 24 C34.75 24 26.5 24 18 24 Z " fill="#BAD5FE" transform="translate(18,89)"/>
<path d="M0 0 C2.31 0 4.62 0 7 0 C7 2.97 7 5.94 7 9 C7.99 9.495 7.99 9.495 9 10 C7.68 10 6.36 10 5 10 C5 10.66 5 11.32 5 12 C5.99 12.495 5.99 12.495 7 13 C6.38125 13.0825 5.7625 13.165 5.125 13.25 C2.81562433 13.81258459 2.81562433 13.81258459 1.75 16.0625 C1.5025 16.701875 1.255 17.34125 1 18 C-0.32 18 -1.64 18 -3 18 C-3 19.32 -3 20.64 -3 22 C-3.99 22.33 -4.98 22.66 -6 23 C-5.34 23.66 -4.68 24.32 -4 25 C-4.99 25.99 -5.98 26.98 -7 28 C-7.495 26.515 -7.495 26.515 -8 25 C-9.96128755 24.1762044 -9.96128755 24.1762044 -12 24 C-12.495 24.495 -12.495 24.495 -13 25 C-11.68 25.33 -10.36 25.66 -9 26 C-9.99 26.495 -9.99 26.495 -11 27 C-11 27.66 -11 28.32 -11 29 C-11.63421875 29.08507812 -12.2684375 29.17015625 -12.921875 29.2578125 C-13.95054688 29.62519531 -13.95054688 29.62519531 -15 30 C-15.84203927 31.76661447 -15.84203927 31.76661447 -16.25 33.875 C-17.10322266 36.55929601 -17.46295322 37.6869039 -19.9296875 39.125 C-22.125 39.875 -22.125 39.875 -24.2578125 40.4296875 C-24.83273438 40.61789063 -25.40765625 40.80609375 -26 41 C-26.495 41.99 -26.495 41.99 -27 43 C-17.1 43 -7.2 43 3 43 C3 44.65 3 46.3 3 48 C-10.53 48 -24.06 48 -38 48 C-38.33 43.05 -38.66 38.1 -39 33 C-44.28 32.67 -49.56 32.34 -55 32 C-56 29 -56 29 -54.5625 25.8125 C-54.046875 24.884375 -53.53125 23.95625 -53 23 C-52.34 23 -51.68 23 -51 23 C-50.67 23.66 -50.34 24.32 -50 25 C-49.01 24.67 -48.02 24.34 -47 24 C-47 23.01 -47 22.02 -47 21 C-48.27875 21 -49.5575 21 -50.875 21 C-52.91666667 21 -54.95833333 21 -57 21 C-57.66 21.33 -58.32 21.66 -59 22 C-59.33 22.99 -59.66 23.98 -60 25 C-60.66 25 -61.32 25 -62 25 C-61.85904936 23.3745692 -61.71207913 21.74965949 -61.5625 20.125 C-61.48128906 19.22007813 -61.40007813 18.31515625 -61.31640625 17.3828125 C-61 15 -61 15 -60 13 C-59.34 13 -58.68 13 -58 13 C-58.33 11.35 -58.66 9.7 -59 8 C-58.34 7.67 -57.68 7.34 -57 7 C-56.34 8.32 -55.68 9.64 -55 11 C-47.47030348 11.02526648 -39.9406178 11.04283141 -32.41088867 11.05493164 C-29.84708243 11.0599737 -27.28327909 11.06680714 -24.71948242 11.07543945 C-21.04344979 11.08751064 -17.36745502 11.09322942 -13.69140625 11.09765625 C-11.96018272 11.10539818 -11.96018272 11.10539818 -10.19398499 11.11329651 C-9.13296066 11.11337204 -8.07193634 11.11344757 -6.97875977 11.11352539 C-5.56978172 11.11685631 -5.56978172 11.11685631 -4.13233948 11.12025452 C-2.01636959 11.23842645 -2.01636959 11.23842645 -1 10 C-0.76712992 8.31816052 -0.58735834 6.6287584 -0.4375 4.9375 C-0.35371094 4.01839844 -0.26992187 3.09929688 -0.18359375 2.15234375 C-0.09271484 1.08693359 -0.09271484 1.08693359 0 0 Z " fill="#6C72FE" transform="translate(98,54)"/>
<path d="M0 0 C1.08667969 0.02707031 2.17335938 0.05414063 3.29296875 0.08203125 C4.54013672 0.13423828 4.54013672 0.13423828 5.8125 0.1875 C5.83962153 2.104088 5.85895097 4.0207873 5.875 5.9375 C5.88660156 7.00484375 5.89820312 8.0721875 5.91015625 9.171875 C5.82684945 11.74438892 5.5410746 13.74463222 4.8125 16.1875 C4.47189189 17.85269519 4.13691604 19.51907466 3.8125 21.1875 C3.4825 21.1875 3.1525 21.1875 2.8125 21.1875 C2.1525 24.1575 1.4925 27.1275 0.8125 30.1875 C1.4725 29.8575 2.1325 29.5275 2.8125 29.1875 C2.8125 28.1975 2.8125 27.2075 2.8125 26.1875 C3.8025 26.1875 4.7925 26.1875 5.8125 26.1875 C6.1425 25.1975 6.4725 24.2075 6.8125 23.1875 C7.1425 23.8475 7.4725 24.5075 7.8125 25.1875 C9.70783342 25.65273063 9.70783342 25.65273063 11.875 25.8125 C13.174375 25.93625 14.47375 26.06 15.8125 26.1875 C15.8125 27.1775 15.8125 28.1675 15.8125 29.1875 C15.1525 29.1875 14.4925 29.1875 13.8125 29.1875 C13.4825 29.8475 13.1525 30.5075 12.8125 31.1875 C12.3175 29.7025 12.3175 29.7025 11.8125 28.1875 C9.34971199 30.65028801 8.81478745 32.89426982 7.8125 36.1875 C8.95589844 36.24808594 10.09929688 36.30867188 11.27734375 36.37109375 C12.76824305 36.45548428 14.25912775 36.54013302 15.75 36.625 C16.50474609 36.66431641 17.25949219 36.70363281 18.03710938 36.74414062 C23.69921875 37.07421875 23.69921875 37.07421875 24.8125 38.1875 C24.91236975 41.03085048 24.95127881 43.84447163 24.9375 46.6875 C24.94330078 47.88439453 24.94330078 47.88439453 24.94921875 49.10546875 C24.93910767 55.06089233 24.93910767 55.06089233 23.8125 56.1875 C21.95880389 56.27487645 20.10182459 56.29448153 18.24609375 56.28515625 C17.12138672 56.28193359 15.99667969 56.27871094 14.83789062 56.27539062 C13.65388672 56.26701172 12.46988281 56.25863281 11.25 56.25 C10.06212891 56.24548828 8.87425781 56.24097656 7.65039062 56.23632812 C4.70437774 56.22449675 1.75846319 56.20801287 -1.1875 56.1875 C-1.5175 55.1975 -1.8475 54.2075 -2.1875 53.1875 C-4.4975 53.1875 -6.8075 53.1875 -9.1875 53.1875 C-9.1875 45.9275 -9.1875 38.6675 -9.1875 31.1875 C-13.4775 31.1875 -17.7675 31.1875 -22.1875 31.1875 C-22.21433436 27.87494674 -22.2342578 24.56260817 -22.25 21.25 C-22.25837891 20.30447266 -22.26675781 19.35894531 -22.27539062 18.38476562 C-22.27861328 17.48564453 -22.28183594 16.58652344 -22.28515625 15.66015625 C-22.29039307 14.82750244 -22.29562988 13.99484863 -22.30102539 13.13696289 C-22.1875 11.1875 -22.1875 11.1875 -21.1875 10.1875 C-19.16785801 10.11505947 -17.14582876 10.10372812 -15.125 10.125 C-13.46791016 10.13853516 -13.46791016 10.13853516 -11.77734375 10.15234375 C-10.92269531 10.16394531 -10.06804688 10.17554688 -9.1875 10.1875 C-9.249375 9.094375 -9.31125 8.00125 -9.375 6.875 C-9.1875 3.1875 -9.1875 3.1875 -8.0625 1.46875 C-5.3504604 -0.38447706 -3.24426436 -0.10465369 0 0 Z " fill="#5D50FD" transform="translate(35.1875,48.8125)"/>
<path d="M0 0 C0.33 1.98 0.66 3.96 1 6 C6.7974423 6.24428343 6.7974423 6.24428343 12 4 C14.475 6.475 14.475 6.475 17 9 C16 11 15 13 14 15 C15.82337891 14.98259766 15.82337891 14.98259766 17.68359375 14.96484375 C19.26822764 14.95546722 20.85286318 14.94636687 22.4375 14.9375 C23.23994141 14.92912109 24.04238281 14.92074219 24.86914062 14.91210938 C26.91295221 14.9034857 28.95683902 14.9477185 31 15 C32 16 32 16 32.11352539 18.50024414 C32.10828857 19.58426514 32.10305176 20.66828613 32.09765625 21.78515625 C32.09443359 22.95498047 32.09121094 24.12480469 32.08789062 25.33007812 C32.07532227 27.17762695 32.07532227 27.17762695 32.0625 29.0625 C32.05798828 30.29806641 32.05347656 31.53363281 32.04882812 32.80664062 C32.03699608 35.87114117 32.02051173 38.93554721 32 42 C33.32 41.34 34.64 40.68 36 40 C37.5625 41.75 37.5625 41.75 39 44 C38.6875 46.125 38.6875 46.125 38 48 C38 48.66 38 49.32 38 50 C38.99 50.33 39.98 50.66 41 51 C40.67 52.32 40.34 53.64 40 55 C38.824375 55.0928125 38.824375 55.0928125 37.625 55.1875 C36.75875 55.455625 35.8925 55.72375 35 56 C33.62533375 58.47636012 33.62533375 58.47636012 33 61 C31.68 61 30.36 61 29 61 C28.67 60.34 28.34 59.68 28 59 C27.071875 59.0825 26.14375 59.165 25.1875 59.25 C22 59 22 59 20.0625 57.25 C18.78226842 54.53892135 19.27972737 53.79105644 20 51 C18.64555699 49.22809091 18.64555699 49.22809091 17 48 C17.33 47.01 17.66 46.02 18 45 C17.01 45 16.02 45 15 45 C15.04125 44.2575 15.0825 43.515 15.125 42.75 C14.99601866 39.91241048 14.42948778 38.41226062 13 36 C13.66 36 14.32 36 15 36 C14.505 34.02 14.505 34.02 14 32 C7.73 31.67 1.46 31.34 -5 31 C-5 30.34 -5 29.68 -5 29 C-2.69 29.33 -0.38 29.66 2 30 C1.94779297 28.51886719 1.94779297 28.51886719 1.89453125 27.0078125 C1.86746094 25.72648437 1.84039062 24.44515625 1.8125 23.125 C1.76029297 21.21074219 1.76029297 21.21074219 1.70703125 19.2578125 C1.80371094 18.18273437 1.90039062 17.10765625 2 16 C2.99 15.34 3.98 14.68 5 14 C3.78410016 12.56844101 3.78410016 12.56844101 0.1875 12.6875 C-2.78617685 12.74622611 -3.87751147 12.92650688 -6.5 14.5 C-8.71177972 18.18629954 -8.34421275 20.73176192 -8 25 C-7.67 25.66 -7.34 26.32 -7 27 C-9.64 27 -12.28 27 -15 27 C-15.0928125 25.824375 -15.0928125 25.824375 -15.1875 24.625 C-15.455625 23.75875 -15.72375 22.8925 -16 22 C-18.47636012 20.62533375 -18.47636012 20.62533375 -21 20 C-20.34 17.03 -19.68 14.06 -19 11 C-17.906875 11.0825 -16.81375 11.165 -15.6875 11.25 C-12.03566417 11.36773605 -12.03566417 11.36773605 -10 9.3125 C-8.7593966 6.44360465 -9.10057179 4.94358324 -10 2 C-3.375 0 -3.375 0 0 0 Z M24 47 C23.6366844 49.83386167 23.6431329 51.40522151 25.125 53.875 C27.92151052 55.55290631 29.93690532 54.74875648 33 54 C33.67673447 50.59679066 33.67673447 50.59679066 34 47 C32.11499729 44.68436913 32.11499729 44.68436913 29 44.75 C25.88500271 44.68436913 25.88500271 44.68436913 24 47 Z " fill="#34D1D4" transform="translate(103,18)"/>
<path d="M0 0 C16.83 0 33.66 0 51 0 C51 4.95 51 9.9 51 15 C34.17 15 17.34 15 0 15 C0 10.05 0 5.1 0 0 Z " fill="#40418A" transform="translate(44,47)"/>
<path d="M0 0 C0.99 0.33 1.98 0.66 3 1 C3 1.66 3 2.32 3 3 C4.65 3 6.3 3 8 3 C8 4.65 8 6.3 8 8 C7.030625 8.28875 6.06125 8.5775 5.0625 8.875 C1.89335797 9.64214682 1.89335797 9.64214682 1 12 C0.85624578 15.37822416 0.92463652 17.77390955 2 21 C3.134375 21.144375 4.26875 21.28875 5.4375 21.4375 C9 22 9 22 10 23 C11.34747084 23.23075082 12.70377565 23.41153063 14.0625 23.5625 C15.361875 23.706875 16.66125 23.85125 18 24 C17.67 25.32 17.34 26.64 17 28 C29.375 27.505 29.375 27.505 42 27 C41.67 27.66 41.34 28.32 41 29 C38.35139573 29.59355614 35.70802678 29.74209269 33 30 C33 30.66 33 31.32 33 32 C47.19 32 61.38 32 76 32 C75.505 31.01 75.505 31.01 75 30 C73.845 29.835 72.69 29.67 71.5 29.5 C70.345 29.335 69.19 29.17 68 29 C67.505 28.01 67.505 28.01 67 27 C72.45769811 26.88861841 77.61509359 27.08342019 83 28 C83 30.64 83 33.28 83 36 C75.71409984 36.04682155 68.42823335 36.08211748 61.14221191 36.10362434 C57.75718789 36.11395864 54.37226851 36.12792229 50.98730469 36.15087891 C12.5625541 36.39227608 12.5625541 36.39227608 5 32 C5.33 31.34 5.66 30.68 6 30 C7.33333333 29.66666667 8.66666667 29.33333333 10 29 C10.33 28.34 10.66 27.68 11 27 C6.7212019 27.41586354 6.7212019 27.41586354 3.125 29.5625 C2.75375 30.036875 2.3825 30.51125 2 31 C-0.5 29.875 -0.5 29.875 -3 28 C-3.25 25 -3.25 25 -3 22 C-3.33 21.01 -3.66 20.02 -4 19 C-4.639375 19.185625 -5.27875 19.37125 -5.9375 19.5625 C-6.618125 19.706875 -7.29875 19.85125 -8 20 C-9 19 -9 19 -9.0625 15.4375 C-9.041875 14.303125 -9.02125 13.16875 -9 12 C-7.68 11.67 -6.36 11.34 -5 11 C-4.20046862 7.71303767 -3.90341064 6.28976808 -5 3 C-2.6875 1.4375 -2.6875 1.4375 0 0 Z " fill="#EAEBF2" transform="translate(18,89)"/>
<path d="M0 0 C0 6.6 0 13.2 0 20 C-4.29 20 -8.58 20 -13 20 C-13.33 24.62 -13.66 29.24 -14 34 C-23.9 34 -33.8 34 -44 34 C-42 30 -42 30 -38.375 28.75 C-37.26125 28.5025 -36.1475 28.255 -35 28 C-35.020625 27.21625 -35.04125 26.4325 -35.0625 25.625 C-35 23 -35 23 -34 21 C-33.34 21 -32.68 21 -32 21 C-31.67 20.34 -31.34 19.68 -31 19 C-30.01 19.33 -29.02 19.66 -28 20 C-27.67 19.01 -27.34 18.02 -27 17 C-27.99 16.67 -28.98 16.34 -30 16 C-29.67 15.34 -29.34 14.68 -29 14 C-24.125 15.875 -24.125 15.875 -23 17 C-23.33 15.02 -23.66 13.04 -24 11 C-23.67 11.66 -23.34 12.32 -23 13 C-22.01 12.67 -21.02 12.34 -20 12 C-19.67 11.34 -19.34 10.68 -19 10 C-19.99 9.67 -20.98 9.34 -22 9 C-19 8 -19 8 -16 9 C-15.71125 8.195625 -15.4225 7.39125 -15.125 6.5625 C-14 4 -14 4 -12 3 C-12 2.34 -12 1.68 -12 1 C-7.77370786 -0.40876405 -4.89096249 0 0 0 Z " fill="#7386FE" transform="translate(115,63)"/>
<path d="M0 0 C0.29946533 0.64743164 0.59893066 1.29486328 0.9074707 1.96191406 C4.26359536 5.23071918 7.9667509 4.60323502 12.48046875 4.609375 C13.87245232 4.63417938 13.87245232 4.63417938 15.29255676 4.65948486 C18.25760435 4.70808427 21.22213866 4.72936222 24.1875 4.75 C26.19729162 4.7781497 28.2070592 4.80807571 30.21679688 4.83984375 C35.14448901 4.91384645 40.0718942 4.96334806 45 5 C45 5.66 45 6.32 45 7 C43.02 7.33 41.04 7.66 39 8 C39 9.32 39 10.64 39 12 C38.34 12 37.68 12 37 12 C36.67 12.66 36.34 13.32 36 14 C35.030625 14.12375 34.06125 14.2475 33.0625 14.375 C32.051875 14.58125 31.04125 14.7875 30 15 C28.92601311 16.79194343 28.92601311 16.79194343 28 19 C27.02563191 20.59923459 26.02454893 22.18244013 25 23.75 C24.484375 24.54921875 23.96875 25.3484375 23.4375 26.171875 C22.963125 26.77515625 22.48875 27.3784375 22 28 C21.34 28 20.68 28 20 28 C19.67 27.34 19.34 26.68 19 26 C16.28553021 25.68758545 13.66090639 25.48663408 10.9375 25.375 C10.17888672 25.33632812 9.42027344 25.29765625 8.63867188 25.2578125 C6.75952805 25.16326438 4.87979664 25.08053244 3 25 C2 22 2 22 3.4375 18.8125 C3.953125 17.884375 4.46875 16.95625 5 16 C5.66 16 6.32 16 7 16 C7.33 16.66 7.66 17.32 8 18 C8.99 17.67 9.98 17.34 11 17 C11 16.01 11 15.02 11 14 C9.72125 14 8.4425 14 7.125 14 C5.08333333 14 3.04166667 14 1 14 C0.01 14.495 0.01 14.495 -1 15 C-1.33 15.99 -1.66 16.98 -2 18 C-2.66 18 -3.32 18 -4 18 C-3.85904936 16.3745692 -3.71207913 14.74965949 -3.5625 13.125 C-3.48128906 12.22007813 -3.40007813 11.31515625 -3.31640625 10.3828125 C-3 8 -3 8 -2 6 C-1.34 6 -0.68 6 0 6 C-0.2784375 4.7934375 -0.2784375 4.7934375 -0.5625 3.5625 C-0.706875 2.716875 -0.85125 1.87125 -1 1 C-0.67 0.67 -0.34 0.34 0 0 Z " fill="#655DFE" transform="translate(40,61)"/>
<path d="M0 0 C1.12019531 -0.00128906 2.24039063 -0.00257812 3.39453125 -0.00390625 C4.57402344 -0.00003906 5.75351562 0.00382812 6.96875 0.0078125 C8.73798828 0.00201172 8.73798828 0.00201172 10.54296875 -0.00390625 C12.22326172 -0.00197266 12.22326172 -0.00197266 13.9375 0 C14.97326172 0.00112793 16.00902344 0.00225586 17.07617188 0.00341797 C19.46875 0.1328125 19.46875 0.1328125 20.46875 1.1328125 C20.56861975 3.97616298 20.60752881 6.78978413 20.59375 9.6328125 C20.59955078 10.82970703 20.59955078 10.82970703 20.60546875 12.05078125 C20.59535767 18.00620483 20.59535767 18.00620483 19.46875 19.1328125 C17.62715977 19.23240871 15.78178033 19.26361661 13.9375 19.265625 C12.81730469 19.26691406 11.69710937 19.26820312 10.54296875 19.26953125 C9.36347656 19.26566406 8.18398438 19.26179688 6.96875 19.2578125 C5.19951172 19.26361328 5.19951172 19.26361328 3.39453125 19.26953125 C1.71423828 19.26759766 1.71423828 19.26759766 0 19.265625 C-1.03576172 19.26449707 -2.07152344 19.26336914 -3.13867188 19.26220703 C-5.53125 19.1328125 -5.53125 19.1328125 -6.53125 18.1328125 C-6.63111975 15.28946202 -6.67002881 12.47584087 -6.65625 9.6328125 C-6.66011719 8.83488281 -6.66398437 8.03695312 -6.66796875 7.21484375 C-6.65573175 0.007248 -6.65573175 0.007248 0 0 Z " fill="#37D9C5" transform="translate(39.53125,85.8671875)"/>
<path d="M0 0 C0 8.58 0 17.16 0 26 C1.32 25.34 2.64 24.68 4 24 C5.5625 25.75 5.5625 25.75 7 28 C6.6875 30.125 6.6875 30.125 6 32 C6 32.66 6 33.32 6 34 C7.485 34.495 7.485 34.495 9 35 C8.67 36.32 8.34 37.64 8 39 C6.824375 39.0928125 6.824375 39.0928125 5.625 39.1875 C4.75875 39.455625 3.8925 39.72375 3 40 C1.62533375 42.47636012 1.62533375 42.47636012 1 45 C-0.32 45 -1.64 45 -3 45 C-3.33 44.34 -3.66 43.68 -4 43 C-4.928125 43.0825 -5.85625 43.165 -6.8125 43.25 C-10 43 -10 43 -11.9375 41.25 C-13.21773158 38.53892135 -12.72027263 37.79105644 -12 35 C-13.35444301 33.22809091 -13.35444301 33.22809091 -15 32 C-14.67 31.01 -14.34 30.02 -14 29 C-14.99 29 -15.98 29 -17 29 C-15.92598892 26.08482708 -15.22189824 24.22189824 -13 22 C-13.33 21.67 -13.66 21.34 -14 21 C-14.14115161 18.32941149 -14.04247107 15.67567762 -14 13 C-11.03 13 -8.06 13 -5 13 C-5.9977758 10.00667261 -6.7522025 9.05233685 -9 7 C-8.1875 5.0625 -8.1875 5.0625 -7 3 C-6.01 2.67 -5.02 2.34 -4 2 C-1 0 -1 0 0 0 Z M-8 31 C-8.3633156 33.83386167 -8.3568671 35.40522151 -6.875 37.875 C-4.07848948 39.55290631 -2.06309468 38.74875648 1 38 C1.67673447 34.59679066 1.67673447 34.59679066 2 31 C0.11499729 28.68436913 0.11499729 28.68436913 -3 28.75 C-6.11499729 28.68436913 -6.11499729 28.68436913 -8 31 Z " fill="#36DEC4" transform="translate(135,34)"/>
<path d="M0 0 C2.62697064 -0.22137393 5.00893964 -0.28162025 7.625 -0.1875 C8.33140625 -0.17396484 9.0378125 -0.16042969 9.765625 -0.14648438 C11.51074128 -0.1111104 13.25546608 -0.05730221 15 0 C15 3.63 15 7.26 15 11 C9.72 11 4.44 11 -1 11 C-0.505 12.98 -0.505 12.98 0 15 C2.31 15.33 4.62 15.66 7 16 C7.495 17.485 7.495 17.485 8 19 C-6.19 19 -20.38 19 -35 19 C-35 18.34 -35 17.68 -35 17 C-33.72125 16.7525 -32.4425 16.505 -31.125 16.25 C-27.73252682 15.48009414 -27.73252682 15.48009414 -25.5 12.875 C-25.335 12.25625 -25.17 11.6375 -25 11 C-23.39125 11.061875 -23.39125 11.061875 -21.75 11.125 C-18.18223639 11.00607455 -16.96201283 10.67847394 -14 9 C-11.20482483 8.31824996 -8.88617726 8 -6 8 C-5.71125 7.360625 -5.4225 6.72125 -5.125 6.0625 C-4 4 -4 4 -2 3 C-1.34 2.01 -0.68 1.02 0 0 Z " fill="#B0CEFE" transform="translate(86,102)"/>
<path d="M0 0 C0.83265381 0.00523682 1.66530762 0.01047363 2.52319336 0.01586914 C3.33280518 0.0183667 4.14241699 0.02086426 4.9765625 0.0234375 C6.01159912 0.0325415 7.04663574 0.04164551 8.11303711 0.05102539 C11.39241211 0.07165039 14.67178711 0.09227539 18.05053711 0.11352539 C18.05053711 7.04352539 18.05053711 13.97352539 18.05053711 21.11352539 C11.12053711 21.11352539 4.19053711 21.11352539 -2.94946289 21.11352539 C-2.97008789 17.83415039 -2.99071289 14.55477539 -3.01196289 11.17602539 C-3.02106689 10.14098877 -3.0301709 9.10595215 -3.03955078 8.03955078 C-3.04329712 6.82513306 -3.04329712 6.82513306 -3.04711914 5.58618164 C-3.05235596 4.75352783 -3.05759277 3.92087402 -3.06298828 3.06298828 C-2.90876673 0.41468917 -2.64829911 0.15422155 0 0 Z " fill="#37D4C7" transform="translate(15.949462890625,58.886474609375)"/>
<path d="M0 0 C1.32 0 2.64 0 4 0 C4 6.6 4 13.2 4 20 C6.31 20 8.62 20 11 20 C12 21 12 21 12.11352539 22.85766602 C12.10828857 23.64842529 12.10305176 24.43918457 12.09765625 25.25390625 C12.09443359 26.10791016 12.09121094 26.96191406 12.08789062 27.84179688 C12.07951172 28.73962891 12.07113281 29.63746094 12.0625 30.5625 C12.05798828 31.46419922 12.05347656 32.36589844 12.04882812 33.29492188 C12.03700225 35.53001314 12.0205222 37.76497437 12 40 C11.01 40 10.02 40 9 40 C8.67 40.66 8.34 41.32 8 42 C8 39.03 8 36.06 8 33 C2.39 33 -3.22 33 -9 33 C-7 29 -7 29 -5 28 C-4.67 27.34 -4.34 26.68 -4 26 C-7.11785113 26.64644661 -7.11785113 26.64644661 -8 29 C-8.66 29 -9.32 29 -10 29 C-10 29.99 -10 30.98 -10 32 C-10.66 32 -11.32 32 -12 32 C-12.33 32.66 -12.66 33.32 -13 34 C-13.19456705 32.04235617 -13.38044247 30.08384679 -13.5625 28.125 C-13.71912109 26.48917969 -13.71912109 26.48917969 -13.87890625 24.8203125 C-14 22 -14 22 -13 20 C-8.71 20 -4.42 20 0 20 C0 13.4 0 6.8 0 0 Z " fill="#6356FE" transform="translate(115,63)"/>
<path d="M0 0 C0.33 1.98 0.66 3.96 1 6 C6.7974423 6.24428343 6.7974423 6.24428343 12 4 C14.475 6.475 14.475 6.475 17 9 C16 11 15 13 14 15 C7.9453125 15.1953125 7.9453125 15.1953125 6 15 C5.34 14.34 4.68 13.68 4 13 C-1.54235245 12.42765564 -1.54235245 12.42765564 -6.5 14.5 C-8.71177972 18.18629954 -8.34421275 20.73176192 -8 25 C-7.67 25.66 -7.34 26.32 -7 27 C-9.64 27 -12.28 27 -15 27 C-15.0928125 25.824375 -15.0928125 25.824375 -15.1875 24.625 C-15.455625 23.75875 -15.72375 22.8925 -16 22 C-18.47636012 20.62533375 -18.47636012 20.62533375 -21 20 C-20.34 17.03 -19.68 14.06 -19 11 C-17.906875 11.0825 -16.81375 11.165 -15.6875 11.25 C-12.03566417 11.36773605 -12.03566417 11.36773605 -10 9.3125 C-8.7593966 6.44360465 -9.10057179 4.94358324 -10 2 C-3.375 0 -3.375 0 0 0 Z " fill="#E9EAF1" transform="translate(103,18)"/>
<path d="M0 0 C1.58206422 0.00574487 3.16410406 0.01876032 4.74609375 0.03515625 C7.53046875 0.05578125 10.31484375 0.07640625 13.18359375 0.09765625 C13.18359375 6.03765625 13.18359375 11.97765625 13.18359375 18.09765625 C10.39921875 18.11828125 7.61484375 18.13890625 4.74609375 18.16015625 C3.86767822 18.16926025 2.9892627 18.17836426 2.08422852 18.18774414 C0.11713401 18.19488716 -1.84994246 18.14797518 -3.81640625 18.09765625 C-5.63756628 16.27649622 -4.94875705 13.79093861 -4.953125 11.37109375 C-4.94925781 10.62085937 -4.94539063 9.870625 -4.94140625 9.09765625 C-4.94527344 8.34742187 -4.94914062 7.5971875 -4.953125 6.82421875 C-4.94103514 0.12643386 -4.94103514 0.12643386 0 0 Z " fill="#46B8F2" transform="translate(109.81640625,95.90234375)"/>
<path d="M0 0 C0.99 0 1.98 0 3 0 C3 6.93 3 13.86 3 21 C-5.25 21 -13.5 21 -22 21 C-22.25 8.375 -22.25 8.375 -20 5 C-19.34 6.65 -18.68 8.3 -18 10 C-12.39 10.33 -6.78 10.66 -1 11 C-1.020625 9.55625 -1.04125 8.1125 -1.0625 6.625 C-1.125 2.25 -1.125 2.25 0 0 Z " fill="#7284FE" transform="translate(124,103)"/>
<path d="M0 0 C0.83265381 0.00523682 1.66530762 0.01047363 2.52319336 0.01586914 C3.42231445 0.0190918 4.32143555 0.02231445 5.24780273 0.02563477 C6.66609375 0.03820312 6.66609375 0.03820312 8.11303711 0.05102539 C9.06243164 0.05553711 10.01182617 0.06004883 10.98999023 0.06469727 C13.34353242 0.07652411 15.69704243 0.09446018 18.05053711 0.11352539 C18.05053711 4.40352539 18.05053711 8.69352539 18.05053711 13.11352539 C14.73798385 13.14035976 11.42564528 13.16028319 8.11303711 13.17602539 C7.16750977 13.1844043 6.22198242 13.1927832 5.24780273 13.20141602 C3.89912109 13.20625 3.89912109 13.20625 2.52319336 13.21118164 C1.69053955 13.21641846 0.85788574 13.22165527 0 13.22705078 C-1.94946289 13.11352539 -1.94946289 13.11352539 -2.94946289 12.11352539 C-3.0479746 10.28236656 -3.07918918 8.44732606 -3.07446289 6.61352539 C-3.07704102 5.61321289 -3.07961914 4.61290039 -3.08227539 3.58227539 C-2.89863905 0.16879989 -2.89863905 0.16879989 0 0 Z " fill="#3E4992" transform="translate(15.949462890625,31.886474609375)"/>
<path d="M0 0 C6.27 0 12.54 0 19 0 C19.33 1.65 19.66 3.3 20 5 C19.34 5 18.68 5 18 5 C18.515625 5.556875 19.03125 6.11375 19.5625 6.6875 C21 9 21 9 20 14 C15.71 14 11.42 14 7 14 C7 11.03 7 8.06 7 5 C4.69 5 2.38 5 0 5 C0 3.35 0 1.7 0 0 Z " fill="#3AC6D6" transform="translate(98,49)"/>
<path d="M0 0 C1.08667969 0.02707031 2.17335938 0.05414063 3.29296875 0.08203125 C4.54013672 0.13423828 4.54013672 0.13423828 5.8125 0.1875 C5.83962153 2.104088 5.85895097 4.0207873 5.875 5.9375 C5.88660156 7.00484375 5.89820313 8.0721875 5.91015625 9.171875 C5.82684945 11.74438892 5.5410746 13.74463222 4.8125 16.1875 C4.47189189 17.85269519 4.13691604 19.51907466 3.8125 21.1875 C3.4825 21.1875 3.1525 21.1875 2.8125 21.1875 C2.1525 24.1575 1.4925 27.1275 0.8125 30.1875 C0.4825 30.1875 0.1525 30.1875 -0.1875 30.1875 C-0.5175 23.5875 -0.8475 16.9875 -1.1875 10.1875 C-3.8275 10.1875 -6.4675 10.1875 -9.1875 10.1875 C-9.55218886 3.74466353 -9.55218886 3.74466353 -8.0625 1.46875 C-5.3504604 -0.38447706 -3.24426436 -0.10465369 0 0 Z " fill="#5935FF" transform="translate(35.1875,48.8125)"/>
<path d="M0 0 C13.53 0 27.06 0 41 0 C41 1.65 41 3.3 41 5 C27.47 5 13.94 5 0 5 C0 3.35 0 1.7 0 0 Z " fill="#3C3D89" transform="translate(60,97)"/>
<path d="M0 0 C2.0625 1.75 2.0625 1.75 4 4 C3.75 6.125 3.75 6.125 3 8 C3 8.66 3 9.32 3 10 C3.99 10.33 4.98 10.66 6 11 C5.67 12.32 5.34 13.64 5 15 C3.824375 15.0928125 3.824375 15.0928125 2.625 15.1875 C1.75875 15.455625 0.8925 15.72375 0 16 C-1.37466625 18.47636012 -1.37466625 18.47636012 -2 21 C-3.32 21 -4.64 21 -6 21 C-6.33 20.34 -6.66 19.68 -7 19 C-8.3921875 19.12375 -8.3921875 19.12375 -9.8125 19.25 C-13 19 -13 19 -14.9375 17.25 C-16.21773158 14.53892135 -15.72027263 13.79105644 -15 11 C-16.35444301 9.22809091 -16.35444301 9.22809091 -18 8 C-17.67 7.01 -17.34 6.02 -17 5 C-14.36 5 -11.72 5 -9 5 C-9.20625 6.11375 -9.4125 7.2275 -9.625 8.375 C-9.74875 9.57125 -9.8725 10.7675 -10 12 C-8.10244856 14.34973818 -8.10244856 14.34973818 -4.875 14.125 C-3.451875 14.063125 -3.451875 14.063125 -2 14 C-1.70437633 8.67829506 -1.70437633 8.67829506 -4 4 C-2.68 2.68 -1.36 1.36 0 0 Z " fill="#E9EBF2" transform="translate(138,58)"/>
<path d="M0 0 C0.99 0 1.98 0 3 0 C3 4.29 3 8.58 3 13 C19.83 13 36.66 13 54 13 C54 13.33 54 13.66 54 14 C42.78 14 31.56 14 20 14 C20 14.66 20 15.32 20 16 C31.55 16 43.1 16 55 16 C55 16.33 55 16.66 55 17 C47.48863592 17.05057965 39.97731551 17.08568257 32.46582031 17.10986328 C29.90883747 17.11994038 27.35186621 17.13360226 24.79492188 17.15087891 C21.12627308 17.17505217 17.45777621 17.18646585 13.7890625 17.1953125 C12.0655809 17.21079636 12.0655809 17.21079636 10.30728149 17.22659302 C9.2463327 17.22674408 8.18538391 17.22689514 7.09228516 17.22705078 C6.15518707 17.231492 5.21808899 17.23593323 4.25259399 17.24050903 C2 17 2 17 0 15 C-0.14497985 12.41935871 -0.18677545 9.95056116 -0.125 7.375 C-0.11597656 6.66859375 -0.10695312 5.9621875 -0.09765625 5.234375 C-0.07407603 3.48943902 -0.03820461 1.74467705 0 0 Z " fill="#418FD5" transform="translate(41,49)"/>
<path d="M0 0 C0.30550781 0.64453125 0.61101563 1.2890625 0.92578125 1.953125 C4.19094533 5.17524549 7.76614829 4.67477205 12.1875 4.75 C13.03248047 4.77964844 13.87746094 4.80929688 14.74804688 4.83984375 C16.83151822 4.9104699 18.91576506 4.95750795 21 5 C21 5.99 21 6.98 21 8 C20.13375 8.12375 20.13375 8.12375 19.25 8.25 C16.81831948 8.87422118 16.81831948 8.87422118 14.9375 11.0625 C14.298125 11.701875 13.65875 12.34125 13 13 C12.01 13 11.02 13 10 13 C9.01 13.33 8.02 13.66 7 14 C6.175 13.814375 5.35 13.62875 4.5 13.4375 C1.7600266 12.66177482 1.7600266 12.66177482 -1 15 C-1.33 15.99 -1.66 16.98 -2 18 C-2.66 18 -3.32 18 -4 18 C-3.85904936 16.3745692 -3.71207913 14.74965949 -3.5625 13.125 C-3.48128906 12.22007813 -3.40007813 11.31515625 -3.31640625 10.3828125 C-3 8 -3 8 -2 6 C-1.34 6 -0.68 6 0 6 C-0.2784375 4.7934375 -0.2784375 4.7934375 -0.5625 3.5625 C-0.706875 2.716875 -0.85125 1.87125 -1 1 C-0.67 0.67 -0.34 0.34 0 0 Z " fill="#5E48FE" transform="translate(40,61)"/>
<path d="M0 0 C3.63 0 7.26 0 11 0 C11.33 0.66 11.66 1.32 12 2 C11.67 2.99 11.34 3.98 11 5 C18.26 5.33 25.52 5.66 33 6 C33 6.66 33 7.32 33 8 C18.81 8 4.62 8 -10 8 C-10 7.34 -10 6.68 -10 6 C-7.98177083 5.609375 -5.96354167 5.21875 -3.9453125 4.828125 C-1.47178598 4.02322581 -1.47178598 4.02322581 0 0 Z " fill="#9FC3FE" transform="translate(61,113)"/>
<path d="M0 0 C1.32 0 2.64 0 4 0 C4 6.6 4 13.2 4 20 C6.31 20 8.62 20 11 20 C11.33 20.99 11.66 21.98 12 23 C3.19039858 24.30512614 -5.19039858 24.30512614 -14 23 C-13.505 21.515 -13.505 21.515 -13 20 C-8.71 20 -4.42 20 0 20 C0 13.4 0 6.8 0 0 Z " fill="#4C4CA1" transform="translate(115,63)"/>
<path d="M0 0 C0.83265381 0.00523682 1.66530762 0.01047363 2.52319336 0.01586914 C3.42231445 0.0190918 4.32143555 0.02231445 5.24780273 0.02563477 C6.66609375 0.03820313 6.66609375 0.03820313 8.11303711 0.05102539 C9.06243164 0.05553711 10.01182617 0.06004883 10.98999023 0.06469727 C13.34356776 0.07652429 15.69702188 0.09300514 18.05053711 0.11352539 C18.05053711 2.75352539 18.05053711 5.39352539 18.05053711 8.11352539 C17.06053711 8.11352539 16.07053711 8.11352539 15.05053711 8.11352539 C15.05053711 8.77352539 15.05053711 9.43352539 15.05053711 10.11352539 C14.39053711 10.11352539 13.73053711 10.11352539 13.05053711 10.11352539 C12.39053711 8.79352539 11.73053711 7.47352539 11.05053711 6.11352539 C10.06053711 6.11352539 9.07053711 6.11352539 8.05053711 6.11352539 C8.05053711 5.45352539 8.05053711 4.79352539 8.05053711 4.11352539 C6.73053711 4.11352539 5.41053711 4.11352539 4.05053711 4.11352539 C4.05053711 5.10352539 4.05053711 6.09352539 4.05053711 7.11352539 C3.06053711 7.11352539 2.07053711 7.11352539 1.05053711 7.11352539 C1.38053711 8.76352539 1.71053711 10.41352539 2.05053711 12.11352539 C1.06053711 12.44352539 0.07053711 12.77352539 -0.94946289 13.11352539 C-0.94946289 12.45352539 -0.94946289 11.79352539 -0.94946289 11.11352539 C-1.60946289 11.11352539 -2.26946289 11.11352539 -2.94946289 11.11352539 C-2.9763444 9.46777973 -2.99580412 7.82191126 -3.01196289 6.17602539 C-3.02356445 5.25950195 -3.03516602 4.34297852 -3.04711914 3.39868164 C-2.92474775 0.53519116 -2.85914507 0.16649999 0 0 Z " fill="#33C8DE" transform="translate(15.949462890625,58.886474609375)"/>
<path d="M0 0 C1.31871094 -0.01224609 2.63742188 -0.02449219 3.99609375 -0.03710938 C5.90068359 -0.04000977 5.90068359 -0.04000977 7.84375 -0.04296875 C9.00068359 -0.04707764 10.15761719 -0.05118652 11.34960938 -0.05541992 C14.47736509 0.18575467 16.680892 0.85423629 19.5 2.1875 C18.5 4.1875 18.5 4.1875 16.84521484 4.80200195 C11.99200924 5.59975457 7.04404055 5.37340312 2.13769531 5.37280273 C0.13863013 5.37498512 -1.86039532 5.39349143 -3.859375 5.41210938 C-5.13039063 5.41404297 -6.40140625 5.41597656 -7.7109375 5.41796875 C-8.86899902 5.42207764 -10.02706055 5.42618652 -11.22021484 5.43041992 C-14.61310954 5.17912245 -17.33332989 4.39923908 -20.5 3.1875 C-20.17 2.5275 -19.84 1.8675 -19.5 1.1875 C-13.23640183 -0.60566158 -6.45139424 0.00315317 0 0 Z " fill="#EAEBF2" transform="translate(114.5,125.8125)"/>
<path d="M0 0 C-1.25541557 2.51083114 -2.50063488 2.87125446 -5 4 C-5 4.66 -5 5.32 -5 6 C-4.401875 6.103125 -3.80375 6.20625 -3.1875 6.3125 C-0.71756736 7.08876455 0.32251235 8.07088921 2 10 C0.6875 12 0.6875 12 -1 14 C-1.99 14 -2.98 14 -4 14 C-4 13.01 -4 12.02 -4 11 C-5.98491642 11.26676204 -5.98491642 11.26676204 -8 12 C-8.33 12.99 -8.66 13.98 -9 15 C-9.66 15 -10.32 15 -11 15 C-11 13.68 -11 12.36 -11 11 C-11.66 11 -12.32 11 -13 11 C-13 11.99 -13 12.98 -13 14 C-16.16115776 12.63016497 -16.9927092 12.0109362 -19 9 C-17.68 8.34 -16.36 7.68 -15 7 C-15 6.34 -15 5.68 -15 5 C-14.01 4.34 -13.02 3.68 -12 3 C-11.2575 2.46375 -10.515 1.9275 -9.75 1.375 C-6.33316778 -0.33341611 -3.77049692 -0.22179394 0 0 Z " fill="#47B6DF" transform="translate(55,86)"/>
<path d="M0 0 C2.60964149 1.03012164 3.83498357 1.58694861 5.375 3.9375 C5.91352618 7.55331862 5.79736225 9.27861489 3.8125 12.375 C1.375 13.9375 1.375 13.9375 -2.25 13.8125 C-5.625 12.9375 -5.625 12.9375 -7.625 10.9375 C-8.0625 7.5625 -8.0625 7.5625 -7.625 3.9375 C-5.12942843 1.08541821 -3.84213882 -0.0914795 0 0 Z " fill="#B2E8F0" transform="translate(115.625,98.0625)"/>
<path d="M0 0 C1.98 0 3.96 0 6 0 C6.33 0.66 6.66 1.32 7 2 C8.89533342 2.46523063 8.89533342 2.46523063 11.0625 2.625 C12.361875 2.74875 13.66125 2.8725 15 3 C15 3.99 15 4.98 15 6 C15.88214887 8.88214887 15.88214887 8.88214887 17 11 C14.35409986 11.02684679 11.70846904 11.04676357 9.0625 11.0625 C7.93038086 11.07506836 7.93038086 11.07506836 6.77539062 11.08789062 C4.85005687 11.09652441 2.92464419 11.05224333 1 11 C0 10 0 10 -0.09765625 7.71484375 C-0.08605469 6.79832031 -0.07445313 5.88179688 -0.0625 4.9375 C-0.05347656 4.01839844 -0.04445313 3.09929687 -0.03515625 2.15234375 C-0.02355469 1.44207031 -0.01195313 0.73179688 0 0 Z " fill="#C5DCFE" transform="translate(27,102)"/>
<path d="M0 0 C0 4.29 0 8.58 0 13 C-0.66 13 -1.32 13 -2 13 C-2 13.66 -2 14.32 -2 15 C-2.97753644 16.02196992 -3.9805881 17.01979625 -5 18 C-5.66 18.99 -6.32 19.98 -7 21 C-7 20.01 -7 19.02 -7 18 C-7.99 18 -8.98 18 -10 18 C-9.34 19.32 -8.68 20.64 -8 22 C-8.99 22 -9.98 22 -11 22 C-11 21.34 -11 20.68 -11 20 C-11.66 20 -12.32 20 -13 20 C-13.33 17.69 -13.66 15.38 -14 13 C-11.03 13 -8.06 13 -5 13 C-5.9977758 10.00667261 -6.7522025 9.05233685 -9 7 C-8.1875 5.0625 -8.1875 5.0625 -7 3 C-6.01 2.67 -5.02 2.34 -4 2 C-1 0 -1 0 0 0 Z " fill="#34D5CE" transform="translate(135,34)"/>
<path d="M0 0 C1.32 0 2.64 0 4 0 C4 0.66 4 1.32 4 2 C5.32 1.67 6.64 1.34 8 1 C10 6.625 10 6.625 10 10 C9.01 10 8.02 10 7 10 C7 10.99 7 11.98 7 13 C4.36 12.67 1.72 12.34 -1 12 C-2.49821059 8.62902617 -3 6.79557881 -3 3 C-2.01 3 -1.02 3 0 3 C0 2.01 0 1.02 0 0 Z " fill="#D9F3F7" transform="translate(20,63)"/>
<path d="M0 0 C0.83265381 0.00523682 1.66530762 0.01047363 2.52319336 0.01586914 C3.42231445 0.0190918 4.32143555 0.02231445 5.24780273 0.02563477 C6.66609375 0.03820312 6.66609375 0.03820312 8.11303711 0.05102539 C9.06243164 0.05553711 10.01182617 0.06004883 10.98999023 0.06469727 C13.34353242 0.07652411 15.69704243 0.09446018 18.05053711 0.11352539 C18.05053711 4.40352539 18.05053711 8.69352539 18.05053711 13.11352539 C14.73798385 13.14035976 11.42564528 13.16028319 8.11303711 13.17602539 C7.16750977 13.1844043 6.22198242 13.1927832 5.24780273 13.20141602 C3.89912109 13.20625 3.89912109 13.20625 2.52319336 13.21118164 C1.69053955 13.21641846 0.85788574 13.22165527 0 13.22705078 C-1.94946289 13.11352539 -1.94946289 13.11352539 -2.94946289 12.11352539 C-3.0479746 10.28236656 -3.07918918 8.44732606 -3.07446289 6.61352539 C-3.07704102 5.61321289 -3.07961914 4.61290039 -3.08227539 3.58227539 C-2.89863905 0.16879989 -2.89863905 0.16879989 0 0 Z M-0.94946289 2.11352539 C-0.94946289 5.08352539 -0.94946289 8.05352539 -0.94946289 11.11352539 C4.66053711 11.11352539 10.27053711 11.11352539 16.05053711 11.11352539 C16.05053711 8.14352539 16.05053711 5.17352539 16.05053711 2.11352539 C10.44053711 2.11352539 4.83053711 2.11352539 -0.94946289 2.11352539 Z " fill="#34D5CF" transform="translate(15.949462890625,31.886474609375)"/>
<path d="M0 0 C2.875 1 2.875 1 4.25 3.0625 C4.45625 3.701875 4.6625 4.34125 4.875 5 C6.525 5 8.175 5 9.875 5 C10.205 5.99 10.535 6.98 10.875 8 C3.285 8 -4.305 8 -12.125 8 C-11.795 7.01 -11.465 6.02 -11.125 5 C-10.526875 4.855625 -9.92875 4.71125 -9.3125 4.5625 C-6.9166207 4.1646438 -6.9166207 4.1646438 -5.25 1.875 C-3.125 0 -3.125 0 0 0 Z " fill="#F8FDFD" transform="translate(119.125,38)"/>
<path d="M0 0 C0.66 0.33 1.32 0.66 2 1 C2.33 2.32 2.66 3.64 3 5 C5.97 5.33 8.94 5.66 12 6 C11 10 11 10 8.9375 11.25 C8.298125 11.4975 7.65875 11.745 7 12 C7 12.66 7 13.32 7 14 C6.01 14 5.02 14 4 14 C3.67 14.66 3.34 15.32 3 16 C1.68 16 0.36 16 -1 16 C-1.02701408 13.89590361 -1.04640223 11.79170822 -1.0625 9.6875 C-1.07410156 8.51574219 -1.08570312 7.34398438 -1.09765625 6.13671875 C-1 3 -1 3 0 0 Z " fill="#6C73FE" transform="translate(103,108)"/>
<path d="M0 0 C1.32 0 2.64 0 4 0 C4 5.61 4 11.22 4 17 C4.99 17 5.98 17 7 17 C7 18.65 7 20.3 7 22 C4.69 22 2.38 22 0 22 C0 14.74 0 7.48 0 0 Z " fill="#41448E" transform="translate(26,80)"/>
<path d="M0 0 C7.92 0.33 15.84 0.66 24 1 C24 1.33 24 1.66 24 2 C21.03 2 18.06 2 15 2 C15 4.64 15 7.28 15 10 C15.66 10.33 16.32 10.66 17 11 C15.68 11.99 14.36 12.98 13 14 C11.5 12.625 11.5 12.625 10 11 C10 10.34 10 9.68 10 9 C10.66 9 11.32 9 12 9 C11.67 7.68 11.34 6.36 11 5 C4.73 4.67 -1.54 4.34 -8 4 C-8 3.34 -8 2.68 -8 2 C-5.69 2 -3.38 2 -1 2 C-0.67 1.34 -0.34 0.68 0 0 Z " fill="#84D8E2" transform="translate(106,45)"/>
<path d="M0 0 C6.27 0 12.54 0 19 0 C19.33 1.65 19.66 3.3 20 5 C13.4 5 6.8 5 0 5 C0 3.35 0 1.7 0 0 Z " fill="#34B0C5" transform="translate(98,49)"/>
<path d="M0 0 C5.61 0.33 11.22 0.66 17 1 C16.67 1.99 16.34 2.98 16 4 C15.34 4 14.68 4 14 4 C13.67 4.66 13.34 5.32 13 6 C11.8125 8.125 11.8125 8.125 10 10 C6.8125 10.25 6.8125 10.25 4 10 C5.75 6.125 5.75 6.125 8 5 C8.33 4.34 8.66 3.68 9 3 C5.88214887 3.64644661 5.88214887 3.64644661 5 6 C4.34 6 3.68 6 3 6 C3 6.99 3 7.98 3 9 C2.34 9 1.68 9 1 9 C0.67 9.66 0.34 10.32 0 11 C0 7.37 0 3.74 0 0 Z " fill="#5D4BFA" transform="translate(102,86)"/>
<path d="M0 0 C1.93166016 0.01740234 1.93166016 0.01740234 3.90234375 0.03515625 C5.19269531 0.04417969 6.48304687 0.05320312 7.8125 0.0625 C8.81152344 0.07410156 9.81054688 0.08570312 10.83984375 0.09765625 C9.83984375 2.09765625 9.83984375 2.09765625 6.83984375 4.09765625 C4.65234375 4.72265625 4.65234375 4.72265625 2.83984375 5.09765625 C2.83984375 5.75765625 2.83984375 6.41765625 2.83984375 7.09765625 C0.7316557 9.73289131 -0.92529031 10.39587748 -4.16015625 11.09765625 C-4.18703776 9.45191059 -4.20649748 7.80604212 -4.22265625 6.16015625 C-4.23425781 5.24363281 -4.24585938 4.32710938 -4.2578125 3.3828125 C-4.10488393 -0.19571608 -3.66636749 0.11329937 0 0 Z " fill="#43A1E8" transform="translate(37.16015625,85.90234375)"/>
<path d="M0 0 C1.08667969 0.02707031 2.17335938 0.05414063 3.29296875 0.08203125 C4.54013672 0.13423828 4.54013672 0.13423828 5.8125 0.1875 C5.8125 1.8375 5.8125 3.4875 5.8125 5.1875 C2.1825 5.1875 -1.4475 5.1875 -5.1875 5.1875 C-5.1875 6.8375 -5.1875 8.4875 -5.1875 10.1875 C-6.5075 10.1875 -7.8275 10.1875 -9.1875 10.1875 C-9.55218886 3.74466353 -9.55218886 3.74466353 -8.0625 1.46875 C-5.3504604 -0.38447706 -3.24426436 -0.10465369 0 0 Z " fill="#3C3D89" transform="translate(35.1875,48.8125)"/>
<path d="M0 0 C2.475 0.495 2.475 0.495 5 1 C5.33 1.99 5.66 2.98 6 4 C9.51190809 5.22969878 9.51190809 5.22969878 13 6 C13 6.66 13 7.32 13 8 C8.61501596 10.92332269 5.2225328 10.1356502 0 10 C0 6.7 0 3.4 0 0 Z " fill="#34CED6" transform="translate(13,70)"/>
<path d="M0 0 C1.32 0 2.64 0 4 0 C4 6.6 4 13.2 4 20 C2.68 19.67 1.36 19.34 0 19 C0 12.73 0 6.46 0 0 Z " fill="#3E3E8B" transform="translate(115,63)"/>
<path d="M0 0 C8.58 0 17.16 0 26 0 C25.67 0.99 25.34 1.98 25 3 C17.08 3 9.16 3 1 3 C0.67 2.01 0.34 1.02 0 0 Z " fill="#4C4CA0" transform="translate(101,124)"/>
<path d="M0 0 C0.33 0 0.66 0 1 0 C1 4.95 1 9.9 1 15 C0.01 15 -0.98 15 -2 15 C-2.33 15.66 -2.66 16.32 -3 17 C-3 14.03 -3 11.06 -3 8 C-4.98 8 -6.96 8 -9 8 C-9 7.34 -9 6.68 -9 6 C-7.35 5.67 -5.7 5.34 -4 5 C-3.67 4.01 -3.34 3.02 -3 2 C-2.01 2 -1.02 2 0 2 C0 1.34 0 0.68 0 0 Z " fill="#6762FF" transform="translate(126,88)"/>
<path d="M0 0 C0.33 0 0.66 0 1 0 C1 4.62 1 9.24 1 14 C-4.61 14 -10.22 14 -16 14 C-16 13.34 -16 12.68 -16 12 C-15.24074219 11.96261719 -14.48148437 11.92523438 -13.69921875 11.88671875 C-12.70535156 11.82097656 -11.71148437 11.75523438 -10.6875 11.6875 C-9.70136719 11.62949219 -8.71523437 11.57148437 -7.69921875 11.51171875 C-4.70517498 10.94410698 -3.73469743 10.4675069 -2 8 C-1.59952556 5.67724823 -1.2602896 3.34260643 -1 1 C-0.67 0.67 -0.34 0.34 0 0 Z " fill="#3AD9D1" transform="translate(122,100)"/>
<path d="M0 0 C1.67542976 0.28604898 3.34385343 0.61781233 5 1 C5.875 3.5625 5.875 3.5625 6 7 C4.32305393 9.65870248 2.31872993 11.88180887 0 14 C-0.33 14 -0.66 14 -1 14 C-1.02685938 11.85423363 -1.04633088 9.70837355 -1.0625 7.5625 C-1.07410156 6.36753906 -1.08570312 5.17257813 -1.09765625 3.94140625 C-1 1 -1 1 0 0 Z " fill="#33C6E0" transform="translate(106,33)"/>
<path d="M0 0 C0.66 0 1.32 0 2 0 C2 0.99 2 1.98 2 3 C2.5775 2.7525 3.155 2.505 3.75 2.25 C4.86375 2.12625 4.86375 2.12625 6 2 C8.25 3.9375 8.25 3.9375 10 6 C8.6875 8 8.6875 8 7 10 C6.01 10 5.02 10 4 10 C4 9.01 4 8.02 4 7 C2.01508358 7.26676204 2.01508358 7.26676204 0 8 C-0.33 8.99 -0.66 9.98 -1 11 C-1.66 11 -2.32 11 -3 11 C-2.69217504 9.35328588 -2.37860766 7.70764424 -2.0625 6.0625 C-1.88847656 5.14597656 -1.71445312 4.22945313 -1.53515625 3.28515625 C-1 1 -1 1 0 0 Z " fill="#8ADEE5" transform="translate(47,90)"/>
<path d="M0 0 C2.625 0.25 2.625 0.25 4.4375 1.75 C4.829375 2.245 5.22125 2.74 5.625 3.25 C4.4375 5.75 4.4375 5.75 2.625 8.25 C0.0625 8.6875 0.0625 8.6875 -2.375 8.25 C-3.035 7.59 -3.695 6.93 -4.375 6.25 C-3.65978544 0.38524057 -3.65978544 0.38524057 0 0 Z " fill="#49D4E1" transform="translate(114.375,100.75)"/>
<path d="M0 0 C2.64 0 5.28 0 8 0 C8 2.64 8 5.28 8 8 C7.01 8 6.02 8 5 8 C5 8.66 5 9.32 5 10 C4.34 10 3.68 10 3 10 C2.87625 9.360625 2.7525 8.72125 2.625 8.0625 C2.315625 7.0415625 2.315625 7.0415625 2 6 C1.34 5.67 0.68 5.34 0 5 C0 3.35 0 1.7 0 0 Z " fill="#3DBAD9" transform="translate(26,59)"/>
<path d="M0 0 C1.24716797 0.00322266 2.49433594 0.00644531 3.77929688 0.00976562 C5.07287109 0.01814453 6.36644531 0.02652344 7.69921875 0.03515625 C9.66858398 0.04192383 9.66858398 0.04192383 11.67773438 0.04882812 C14.91410885 0.06059676 18.15039053 0.07703865 21.38671875 0.09765625 C21.05671875 0.75765625 20.72671875 1.41765625 20.38671875 2.09765625 C19.73074707 2.11747559 19.07477539 2.13729492 18.39892578 2.15771484 C15.43610806 2.25278132 12.47401343 2.36253377 9.51171875 2.47265625 C7.96291016 2.5190625 7.96291016 2.5190625 6.3828125 2.56640625 C4.90361328 2.62441406 4.90361328 2.62441406 3.39453125 2.68359375 C2.4833252 2.71501465 1.57211914 2.74643555 0.63330078 2.77880859 C-1.81259311 2.89648136 -1.81259311 2.89648136 -3.61328125 5.09765625 C-6.34197532 5.06478042 -8.90994305 4.53367854 -11.61328125 4.09765625 C-11.61328125 3.10765625 -11.61328125 2.11765625 -11.61328125 1.09765625 C-7.68039761 0.16677716 -4.03673962 -0.0184326 0 0 Z " fill="#D9D9E8" transform="translate(106.61328125,125.90234375)"/>
<path d="M0 0 C0.66 0.33 1.32 0.66 2 1 C2 4.63 2 8.26 2 12 C-0.31 12 -2.62 12 -5 12 C-4.34 11.34 -3.68 10.68 -3 10 C-3.165 9.195625 -3.33 8.39125 -3.5 7.5625 C-4 5 -4 5 -2 2 C-1.34 2 -0.68 2 0 2 C0 1.34 0 0.68 0 0 Z " fill="#7894FE" transform="translate(125,112)"/>
<path d="M0 0 C0.66 0.33 1.32 0.66 2 1 C2.59355614 3.64860427 2.74209269 6.29197322 3 9 C2.01 9 1.02 9 0 9 C0 9.99 0 10.98 0 12 C-6.15234375 11.4140625 -6.15234375 11.4140625 -8 11 C-8.33 10.34 -8.66 9.68 -9 9 C-8.67 8.34 -8.34 7.68 -8 7 C-5.03 7.495 -5.03 7.495 -2 8 C-1.67 6.68 -1.34 5.36 -1 4 C-2.32 3.34 -3.64 2.68 -5 2 C-2.625 0.9375 -2.625 0.9375 0 0 Z " fill="#ECF8FA" transform="translate(27,64)"/>
<path d="M0 0 C0.33 1.32 0.66 2.64 1 4 C1.66 4 2.32 4 3 4 C3.33 5.65 3.66 7.3 4 9 C4.99 9.33 5.98 9.66 7 10 C6.34 10 5.68 10 5 10 C5.33 10.99 5.66 11.98 6 13 C3.03 13 0.06 13 -3 13 C-1.92598892 10.08482708 -1.22189824 8.22189824 1 6 C0.67 5.67 0.34 5.34 0 5 C-0.04063832 3.33382885 -0.042721 1.66611905 0 0 Z " fill="#43DCCB" transform="translate(121,50)"/>
<path d="M0 0 C3.63 0 7.26 0 11 0 C10.67 0.99 10.34 1.98 10 3 C6.9375 4.1875 6.9375 4.1875 4 5 C4.66 5.66 5.32 6.32 6 7 C4.02 7.66 2.04 8.32 0 9 C0 6.03 0 3.06 0 0 Z " fill="#3EBCDC" transform="translate(105,54)"/>
<path d="M0 0 C1.39456452 0.00667256 2.78911118 0.01863093 4.18359375 0.03515625 C4.89451172 0.03966797 5.60542969 0.04417969 6.33789062 0.04882812 C8.09899388 0.06064761 9.86005411 0.07858362 11.62109375 0.09765625 C11.95109375 0.75765625 12.28109375 1.41765625 12.62109375 2.09765625 C7.67109375 2.09765625 2.72109375 2.09765625 -2.37890625 2.09765625 C-2.37890625 5.06765625 -2.37890625 8.03765625 -2.37890625 11.09765625 C-3.36890625 11.59265625 -3.36890625 11.59265625 -4.37890625 12.09765625 C-4.40577904 10.28523573 -4.4252434 8.47270392 -4.44140625 6.66015625 C-4.45300781 5.65082031 -4.46460938 4.64148437 -4.4765625 3.6015625 C-4.32617643 -0.2543364 -3.97350921 0.11484131 0 0 Z " fill="#33C9DD" transform="translate(17.37890625,31.90234375)"/>
<path d="M0 0 C-0.66 1.65 -1.32 3.3 -2 5 C-3.98 5 -5.96 5 -8 5 C-8.33 5.66 -8.66 6.32 -9 7 C-9.99 7 -10.98 7 -12 7 C-11.67 5.02 -11.34 3.04 -11 1 C-6.87831311 -0.62950412 -4.29299643 -1.26264601 0 0 Z " fill="#3CC0D8" transform="translate(60,87)"/>
<path d="M0 0 C2.31 0 4.62 0 7 0 C7.33 0.66 7.66 1.32 8 2 C7.34 2.66 6.68 3.32 6 4 C5.67 4.66 5.34 5.32 5 6 C4.34 6 3.68 6 3 6 C3 6.99 3 7.98 3 9 C2.34 9 1.68 9 1 9 C0.67 9.66 0.34 10.32 0 11 C0 7.37 0 3.74 0 0 Z " fill="#5934FF" transform="translate(102,86)"/>
<path d="M0 0 C2.31 0 4.62 0 7 0 C7.33 1.65 7.66 3.3 8 5 C7.38125 5.268125 6.7625 5.53625 6.125 5.8125 C3.7004767 6.95556848 3.7004767 6.95556848 2 10 C1.01 9.67 0.02 9.34 -1 9 C-0.34 9 0.32 9 1 9 C1.07427838 5.65747276 1.06546953 3.1964086 0 0 Z " fill="#72D5E4" transform="translate(110,33)"/>
<path d="M0 0 C3.14624993 -0.26218749 4.61837017 -0.24754367 7.3125 1.5 C8.1478125 2.2425 8.1478125 2.2425 9 3 C9 2.01 9 1.02 9 0 C9.66 0 10.32 0 11 0 C10.67 1.65 10.34 3.3 10 5 C6.7 5 3.4 5 0 5 C0 3.35 0 1.7 0 0 Z " fill="#34ACC5" transform="translate(33,97)"/>
<path d="M0 0 C0 0.99 0 1.98 0 3 C0.99 3.66 1.98 4.32 3 5 C2.67 5.99 2.34 6.98 2 8 C-1 8 -1 8 -3.6875 5.6875 C-6 3 -6 3 -6 0 C-3.50907189 -1.24546405 -2.58919267 -0.7767578 0 0 Z " fill="#3ED0DA" transform="translate(125,35)"/>
<path d="M0 0 C4.29 0 8.58 0 13 0 C13.33 0.66 13.66 1.32 14 2 C11.35541621 3.32229189 9.32238699 3.09677194 6.375 3.0625 C5.37210938 3.05347656 4.36921875 3.04445313 3.3359375 3.03515625 C2.56507812 3.02355469 1.79421875 3.01195313 1 3 C0.67 2.01 0.34 1.02 0 0 Z " fill="#4ED4D8" transform="translate(33,102)"/>
<path d="M0 0 C2.97 0.99 5.94 1.98 9 3 C9 3.66 9 4.32 9 5 C5.77208445 7.1519437 4.71599191 7.20086443 1 7 C0.67 4.69 0.34 2.38 0 0 Z " fill="#46D3D7" transform="translate(17,73)"/>
<path d="M0 0 C2.31 0 4.62 0 7 0 C7 1.65 7 3.3 7 5 C4.69 5 2.38 5 0 5 C0 3.35 0 1.7 0 0 Z " fill="#3C3E8A" transform="translate(98,49)"/>
<path d="M0 0 C4.62 0 9.24 0 14 0 C14.33 0.66 14.66 1.32 15 2 C10.71 2 6.42 2 2 2 C2 2.66 2 3.32 2 4 C1.01 4 0.02 4 -1 4 C-0.67 2.68 -0.34 1.36 0 0 Z " fill="#33C6DE" transform="translate(42,45)"/>
<path d="M0 0 C-0.33 1.65 -0.66 3.3 -1 5 C-4.69418201 5 -6.77836178 3.71820705 -10 2 C-6.3558226 -0.4294516 -4.28758728 -0.16179575 0 0 Z " fill="#40CAE7" transform="translate(123,96)"/>
<path d="M0 0 C2.03261719 0.22584635 4.06541981 0.45584059 6.08984375 0.74609375 C8.00926739 1.04392179 8.00926739 1.04392179 10 1 C9.34 2.32 8.68 3.64 8 5 C4.625 4.6875 4.625 4.6875 1 4 C0.34 3.01 -0.32 2.02 -1 1 C-0.67 0.67 -0.34 0.34 0 0 Z " fill="#99E5E9" transform="translate(109,107)"/>
<path d="M0 0 C0.33 0 0.66 0 1 0 C1 2.64 1 5.28 1 8 C-1.375 7.6875 -1.375 7.6875 -4 7 C-4.66 6.01 -5.32 5.02 -6 4 C-5.195625 3.525625 -4.39125 3.05125 -3.5625 2.5625 C-1.15246512 1.23099846 -1.15246512 1.23099846 0 0 Z " fill="#40CFD2" transform="translate(59,88)"/>
<path d="M0 0 C1.67542976 0.28604898 3.34385343 0.61781233 5 1 C4.67 2.32 4.34 3.64 4 5 C2.68 5.33 1.36 5.66 0 6 C-0.38218767 4.34385343 -0.71395102 2.67542976 -1 1 C-0.67 0.67 -0.34 0.34 0 0 Z " fill="#48CEDC" transform="translate(22,67)"/>
<path d="M0 0 C1.32 0 2.64 0 4 0 C4.5625 1.9375 4.5625 1.9375 5 4 C4 5 4 5 2.15234375 5.09765625 C0.1015625 5.06510417 -1.94921875 5.03255208 -4 5 C-3.67 4.34 -3.34 3.68 -3 3 C-2.34 3.33 -1.68 3.66 -1 4 C-0.67 2.68 -0.34 1.36 0 0 Z " fill="#3BC4C7" transform="translate(47,97)"/>
<path d="M0 0 C0.99 0.33 1.98 0.66 3 1 C3.33 3.31 3.66 5.62 4 8 C3.01 8 2.02 8 1 8 C0.67 8.66 0.34 9.32 0 10 C0 6.7 0 3.4 0 0 Z " fill="#6C72FE" transform="translate(123,95)"/>
<path d="M0 0 C0.66 0.33 1.32 0.66 2 1 C2.73075648 3.3140622 3.40138258 5.64828869 4 8 C2.35 8.33 0.7 8.66 -1 9 C-0.67 6.03 -0.34 3.06 0 0 Z " fill="#6762FF" transform="translate(103,108)"/>
<path d="M0 0 C0.33 0.99 0.66 1.98 1 3 C3.31 3.33 5.62 3.66 8 4 C8 4.33 8 4.66 8 5 C6.37509046 5.02698189 4.75005367 5.04638757 3.125 5.0625 C1.76761719 5.07990234 1.76761719 5.07990234 0.3828125 5.09765625 C-2 5 -2 5 -4 4 C-4 3.01 -4 2.02 -4 1 C-2 0 -2 0 0 0 Z " fill="#BCD5FE" transform="translate(85,114)"/>
<path d="M0 0 C0.66 0 1.32 0 2 0 C1.53199289 4.05606165 1.12046792 7.46588679 -1 11 C-1.66 11 -2.32 11 -3 11 C-2.69217504 9.35328588 -2.37860766 7.70764424 -2.0625 6.0625 C-1.88847656 5.14597656 -1.71445312 4.22945313 -1.53515625 3.28515625 C-1 1 -1 1 0 0 Z " fill="#DCF3F7" transform="translate(47,90)"/>
<path d="M0 0 C0.66 0 1.32 0 2 0 C2 1.65 2 3.3 2 5 C2.66 5.33 3.32 5.66 4 6 C2.68 6.99 1.36 7.98 0 9 C-0.66 7.68 -1.32 6.36 -2 5 C-1.34 5 -0.68 5 0 5 C0 3.35 0 1.7 0 0 Z " fill="#F6FCFC" transform="translate(119,50)"/>
<path d="M0 0 C2.01822917 0.06510417 4.03645833 0.13020833 6.0546875 0.1953125 C6.3846875 1.5153125 6.7146875 2.8353125 7.0546875 4.1953125 C6.0646875 4.1953125 5.0746875 4.1953125 4.0546875 4.1953125 C4.0546875 3.5353125 4.0546875 2.8753125 4.0546875 2.1953125 C1.4146875 2.1953125 -1.2253125 2.1953125 -3.9453125 2.1953125 C-1.9453125 0.1953125 -1.9453125 0.1953125 0 0 Z " fill="#54D9D4" transform="translate(90.9453125,44.8046875)"/>
<path d="M0 0 C0.33 0 0.66 0 1 0 C1.309375 0.94875 1.61875 1.8975 1.9375 2.875 C2.87394742 5.86080408 2.87394742 5.86080408 4 8 C2.02 8.33 0.04 8.66 -2 9 C-1.51421457 5.87709365 -1.0013988 3.00419641 0 0 Z " fill="#45CFE6" transform="translate(107,104)"/>
<path d="M0 0 C1.32 0.99 2.64 1.98 4 3 C3.67 4.65 3.34 6.3 3 8 C2.01 7.67 1.02 7.34 0 7 C0 4.69 0 2.38 0 0 Z " fill="#34C1C4" transform="translate(115,55)"/>
<path d="M0 0 C1.65 0.33 3.3 0.66 5 1 C4.34 2.65 3.68 4.3 3 6 C2.01 6 1.02 6 0 6 C-1.24546405 3.50907189 -0.7767578 2.58919267 0 0 Z " fill="#4FC4DF" transform="translate(49,88)"/>
<path d="M0 0 C2.31 0.66 4.62 1.32 7 2 C7 2.99 7 3.98 7 5 C4.6568787 4.74438677 2.32156597 4.40729228 0 4 C-0.33 3.34 -0.66 2.68 -1 2 C-0.67 1.34 -0.34 0.68 0 0 Z " fill="#F8FCFE" transform="translate(19,71)"/>
<path d="M0 0 C0.99 0 1.98 0 3 0 C3 1.65 3 3.3 3 5 C1.68 5 0.36 5 -1 5 C-1.33 4.01 -1.66 3.02 -2 2 C-1.34 2 -0.68 2 0 2 C0 1.34 0 0.68 0 0 Z " fill="#45CFD3" transform="translate(31,67)"/>
<path d="M0 0 C1.32 0 2.64 0 4 0 C3.67 1.65 3.34 3.3 3 5 C2.01 5 1.02 5 0 5 C0 3.35 0 1.7 0 0 Z " fill="#34AEC5" transform="translate(26,59)"/>
<path d="M0 0 C0 0.99 0 1.98 0 3 C0.3062434 4.33981486 0.63451555 5.67511887 1 7 C-0.32 6.34 -1.64 5.68 -3 5 C-3 4.01 -3 3.02 -3 2 C-2.01 1.34 -1.02 0.68 0 0 Z " fill="#E9F7FA" transform="translate(40,92)"/>
<path d="M0 0 C0.66 0 1.32 0 2 0 C2.33 1.98 2.66 3.96 3 6 C2.01 6 1.02 6 0 6 C0 5.34 0 4.68 0 4 C-0.66 3.67 -1.32 3.34 -2 3 C-1.34 2.01 -0.68 1.02 0 0 Z " fill="#43D1DA" transform="translate(24,59)"/>
</svg>
