<?xml version="1.0" encoding="UTF-8"?>
<svg version="1.1" xmlns="http://www.w3.org/2000/svg" width="150" height="150">
<path d="M0 0 C0.495 2.475 0.495 2.475 1 5 C5.33927969 6.83695434 5.33927969 6.83695434 9.875 6.125 C10.926875 5.568125 10.926875 5.568125 12 5 C14.0625 7.25 14.0625 7.25 16 10 C15.62109375 12.171875 15.62109375 12.171875 15 14 C15.99902344 14.06058594 16.99804688 14.12117188 18.02734375 14.18359375 C19.96287109 14.30927734 19.96287109 14.30927734 21.9375 14.4375 C23.22527344 14.51871094 24.51304687 14.59992187 25.83984375 14.68359375 C29 15 29 15 30 16 C30.08748207 17.92667507 30.10697334 19.85651861 30.09765625 21.78515625 C30.09282227 23.53989258 30.09282227 23.53989258 30.08789062 25.33007812 C30.07532227 27.17762695 30.07532227 27.17762695 30.0625 29.0625 C30.05798828 30.29806641 30.05347656 31.53363281 30.04882812 32.80664062 C30.03699608 35.87114117 30.02051173 38.93554721 30 42 C31.98 41.01 31.98 41.01 34 40 C35.5625 41.75 35.5625 41.75 37 44 C36.6875 46.125 36.6875 46.125 36 48 C36 48.66 36 49.32 36 50 C36.99 50.33 37.98 50.66 39 51 C38.67 52.32 38.34 53.64 38 55 C36.824375 55.0928125 36.824375 55.0928125 35.625 55.1875 C34.75875 55.455625 33.8925 55.72375 33 56 C31.62533375 58.47636012 31.62533375 58.47636012 31 61 C29.68 61 28.36 61 27 61 C26.67 60.34 26.34 59.68 26 59 C25.071875 59.0825 24.14375 59.165 23.1875 59.25 C20 59 20 59 18.0625 57.25 C16.78226842 54.53892135 17.27972737 53.79105644 18 51 C16.64555699 49.22809091 16.64555699 49.22809091 15 48 C15.33 47.01 15.66 46.02 16 45 C15.34 45 14.68 45 14 45 C14 51.6 14 58.2 14 65 C16.31 65 18.62 65 21 65 C22 66 22 66 22.11352539 69.96899414 C22.1133662 71.74105607 22.10766785 73.5131226 22.09765625 75.28515625 C22.0962413 76.21597519 22.09482635 77.14679413 22.09336853 78.1058197 C22.08775172 81.09141191 22.0751964 84.07693029 22.0625 87.0625 C22.05748716 89.08137913 22.05292388 91.10025943 22.04882812 93.11914062 C22.03777683 98.07945572 22.02050095 103.03971532 22 108 C24.31 108.66 26.62 109.32 29 110 C28 112 28 112 26.34521484 112.61450195 C21.49200924 113.41225457 16.54404055 113.18590312 11.63769531 113.18530273 C9.63863013 113.18748512 7.63960468 113.20599143 5.640625 113.22460938 C4.36960937 113.22654297 3.09859375 113.22847656 1.7890625 113.23046875 C0.63100098 113.23457764 -0.52706055 113.23868652 -1.72021484 113.24291992 C-5.11310954 112.99162245 -7.83332989 112.21173908 -11 111 C-10.67 110.34 -10.34 109.68 -10 109 C-7.4375 108.375 -7.4375 108.375 -5 108 C-5.67857056 107.99191315 -6.35714111 107.98382629 -7.05627441 107.97549438 C-14.19572947 107.88863335 -21.33493245 107.7891071 -28.47412109 107.68261719 C-31.12938188 107.64363425 -33.7845665 107.60971702 -36.43994141 107.578125 C-74.93926359 107.11445232 -74.93926359 107.11445232 -82 103 C-80.60804085 100.2160817 -78.84424221 100.02101003 -76 99 C-77.98 98.67 -79.96 98.34 -82 98 C-82.66 99.32 -83.32 100.64 -84 102 C-85.98 101.01 -87.96 100.02 -90 99 C-89.79375 98.21625 -89.5875 97.4325 -89.375 96.625 C-89.25125 95.75875 -89.1275 94.8925 -89 94 C-91.35953094 91.64046906 -92.77895617 91.50858587 -96 91 C-96 88.69 -96 86.38 -96 84 C-93.525 83.505 -93.525 83.505 -91 83 C-91.268125 81.7625 -91.53625 80.525 -91.8125 79.25 C-92.109375 77.046875 -92.109375 77.046875 -92 75 C-89.5625 72.5 -89.5625 72.5 -87 71 C-86.01 71.66 -85.02 72.32 -84 73 C-82.35 73.33 -80.7 73.66 -79 74 C-79 70.04 -79 66.08 -79 62 C-83.29 62 -87.58 62 -92 62 C-92.02683436 58.68744674 -92.0467578 55.37510817 -92.0625 52.0625 C-92.07087891 51.11697266 -92.07925781 50.17144531 -92.08789062 49.19726562 C-92.09111328 48.29814453 -92.09433594 47.39902344 -92.09765625 46.47265625 C-92.10289307 45.64000244 -92.10812988 44.80734863 -92.11352539 43.94946289 C-92 42 -92 42 -91 41 C-88.98035801 40.92755947 -86.95832876 40.91622812 -84.9375 40.9375 C-83.28041016 40.95103516 -83.28041016 40.95103516 -81.58984375 40.96484375 C-80.73519531 40.97644531 -79.88054687 40.98804688 -79 41 C-79.061875 39.906875 -79.12375 38.81375 -79.1875 37.6875 C-79 34 -79 34 -77.875 32.28125 C-75.1629604 30.42802294 -73.05676436 30.70784631 -69.8125 30.8125 C-68.72582031 30.83957031 -67.63914062 30.86664063 -66.51953125 30.89453125 C-65.27236328 30.94673828 -65.27236328 30.94673828 -64 31 C-63.67 29.68 -63.34 28.36 -63 27 C-40.725 26.505 -40.725 26.505 -18 26 C-18 23.69 -18 21.38 -18 19 C-19.65 18.67 -21.3 18.34 -23 18 C-22.01 15.03 -21.02 12.06 -20 9 C-18.906875 9.226875 -17.81375 9.45375 -16.6875 9.6875 C-13.17383651 10.32767007 -13.17383651 10.32767007 -11.0625 8.9375 C-9.58206055 6.23787512 -9.79838001 4.02429981 -10 1 C-6.56484998 0.37542727 -3.50935186 0 0 0 Z M-9 14 C-11.2084626 17.31269391 -11.80664241 19.14978851 -11.5546875 23.0625 C-10.4812192 26.81207941 -8.28696911 28.01541488 -5 30 C-2.36163023 30.1672392 -2.36163023 30.1672392 0 30 C0.03738281 29.01257813 0.07476562 28.02515625 0.11328125 27.0078125 C0.17902344 25.72648437 0.24476562 24.44515625 0.3125 23.125 C0.37050781 21.84882812 0.42851563 20.57265625 0.48828125 19.2578125 C0.65714844 18.18273437 0.82601562 17.10765625 1 16 C1.99 15.34 2.98 14.68 4 14 C2.01607489 11.60148679 2.01607489 11.60148679 -1.8125 11.5625 C-5.17733329 11.66669338 -6.04370031 12.02913354 -9 14 Z M22 47 C21.6366844 49.83386167 21.6431329 51.40522151 23.125 53.875 C25.92151052 55.55290631 27.93690532 54.74875648 31 54 C31.67673447 50.59679066 31.67673447 50.59679066 32 47 C30.11499729 44.68436913 30.11499729 44.68436913 27 44.75 C23.88500271 44.68436913 23.88500271 44.68436913 22 47 Z M-85.25 80.625 C-87.21985834 82.92308586 -87.21985834 82.92308586 -87.5 86 C-87.21376982 89.06575838 -87.21376982 89.06575838 -85.3125 91.375 C-82.61209763 93.27258004 -81.22939919 93.35882213 -78 93 C-77.85024761 85.94348748 -77.85024761 85.94348748 -79 79 C-82.92212225 78.60967296 -82.92212225 78.60967296 -85.25 80.625 Z M-68 95 C-69.485 97.475 -69.485 97.475 -71 100 C-58.13 99.01 -58.13 99.01 -45 98 C-44.67 97.01 -44.34 96.02 -44 95 C-47.93711437 94.85507281 -51.87354625 94.76605463 -55.8125 94.6875 C-56.93205078 94.64560547 -58.05160156 94.60371094 -59.20507812 94.56054688 C-60.81479492 94.53637695 -60.81479492 94.53637695 -62.45703125 94.51171875 C-63.44678955 94.48553467 -64.43654785 94.45935059 -65.45629883 94.43237305 C-66.29572021 94.61968994 -67.1351416 94.80700684 -68 95 Z M-20 95 C-20 95.99 -20 96.98 -20 98 C-14.72 98.33 -9.44 98.66 -4 99 C-4 97.68 -4 96.36 -4 95 C-9.28 95 -14.56 95 -20 95 Z " fill="#37CFD0" transform="translate(105,18)"/>
<path d="M0 0 C1.08667969 0.02707031 2.17335938 0.05414063 3.29296875 0.08203125 C4.54013672 0.13423828 4.54013672 0.13423828 5.8125 0.1875 C5.87308594 1.47527344 5.93367188 2.76304688 5.99609375 4.08984375 C6.08048247 5.76824159 6.1651313 7.44662636 6.25 9.125 C6.28931641 9.97513672 6.32863281 10.82527344 6.36914062 11.70117188 C6.41103516 12.51005859 6.45292969 13.31894531 6.49609375 14.15234375 C6.53275146 14.9012085 6.56940918 15.65007324 6.60717773 16.42163086 C6.63021063 18.21211326 6.63021063 18.21211326 7.8125 19.1875 C9.46441396 19.28618509 11.12053217 19.31548837 12.77539062 19.31689453 C13.83318726 19.32004669 14.89098389 19.32319885 15.98083496 19.32644653 C17.70735291 19.32341019 17.70735291 19.32341019 19.46875 19.3203125 C20.64135376 19.32126923 21.81395752 19.32222595 23.02209473 19.32321167 C25.50708062 19.3238937 27.99206829 19.32203784 30.47705078 19.31787109 C34.29593887 19.31252319 38.11470935 19.31781536 41.93359375 19.32421875 C44.34114609 19.32355797 46.74869837 19.32227682 49.15625 19.3203125 C50.30726196 19.32233673 51.45827393 19.32436096 52.64416504 19.32644653 C54.23085999 19.32171829 54.23085999 19.32171829 55.84960938 19.31689453 C56.78591187 19.31609894 57.72221436 19.31530334 58.68688965 19.31448364 C60.7968306 19.42439643 60.7968306 19.42439643 61.8125 18.1875 C62.04731693 16.00457226 62.22613323 13.81546826 62.375 11.625 C62.50068359 9.82869141 62.50068359 9.82869141 62.62890625 7.99609375 C62.68949219 7.06925781 62.75007813 6.14242187 62.8125 5.1875 C65.1225 5.1875 67.4325 5.1875 69.8125 5.1875 C70.09821429 12.61607143 70.09821429 12.61607143 67.8125 16.1875 C66.8225 16.1875 65.8325 16.1875 64.8125 16.1875 C64.4825 18.1675 64.1525 20.1475 63.8125 22.1875 C63.1525 22.1875 62.4925 22.1875 61.8125 22.1875 C61.3175 23.6725 61.3175 23.6725 60.8125 25.1875 C59.3275 25.6825 59.3275 25.6825 57.8125 26.1875 C57.4825 26.8475 57.1525 27.5075 56.8125 28.1875 C55.17107037 29.2284066 53.50537785 30.23254326 51.8125 31.1875 C52.3075 33.1675 52.3075 33.1675 52.8125 35.1875 C51.1625 35.8475 49.5125 36.5075 47.8125 37.1875 C47.8125 37.8475 47.8125 38.5075 47.8125 39.1875 C45.8325 38.6925 45.8325 38.6925 43.8125 38.1875 C43.73 38.97125 43.6475 39.755 43.5625 40.5625 C42.8125 43.1875 42.8125 43.1875 40.8125 44.375 C40.1525 44.643125 39.4925 44.91125 38.8125 45.1875 C38.3175 46.1775 38.3175 46.1775 37.8125 47.1875 C51.6725 47.6825 51.6725 47.6825 65.8125 48.1875 C65.8125 49.8375 65.8125 51.4875 65.8125 53.1875 C52.2825 53.1875 38.7525 53.1875 24.8125 53.1875 C24.4825 54.1775 24.1525 55.1675 23.8125 56.1875 C15.5625 56.1875 7.3125 56.1875 -1.1875 56.1875 C-1.5175 55.1975 -1.8475 54.2075 -2.1875 53.1875 C-4.4975 53.1875 -6.8075 53.1875 -9.1875 53.1875 C-9.1875 45.9275 -9.1875 38.6675 -9.1875 31.1875 C-13.4775 31.1875 -17.7675 31.1875 -22.1875 31.1875 C-22.21433436 27.87494674 -22.2342578 24.56260817 -22.25 21.25 C-22.25837891 20.30447266 -22.26675781 19.35894531 -22.27539062 18.38476562 C-22.27861328 17.48564453 -22.28183594 16.58652344 -22.28515625 15.66015625 C-22.29039307 14.82750244 -22.29562988 13.99484863 -22.30102539 13.13696289 C-22.1875 11.1875 -22.1875 11.1875 -21.1875 10.1875 C-19.16785801 10.11505947 -17.14582876 10.10372812 -15.125 10.125 C-13.46791016 10.13853516 -13.46791016 10.13853516 -11.77734375 10.15234375 C-10.92269531 10.16394531 -10.06804688 10.17554688 -9.1875 10.1875 C-9.249375 9.094375 -9.31125 8.00125 -9.375 6.875 C-9.1875 3.1875 -9.1875 3.1875 -8.0625 1.46875 C-5.3504604 -0.38447706 -3.24426436 -0.10465369 0 0 Z " fill="#5E4EFD" transform="translate(35.1875,48.8125)"/>
<path d="M0 0 C0.99 0.66 1.98 1.32 3 2 C4.65549531 2.38499891 6.3222433 2.72793135 8 3 C8 4.65 8 6.3 8 8 C7.030625 8.28875 6.06125 8.5775 5.0625 8.875 C1.89335797 9.64214682 1.89335797 9.64214682 1 12 C0.59729268 16.1283652 0.59729268 16.1283652 2.1875 19.8125 C4.42031739 21.27538036 6.37344067 21.64505955 9 22 C9 19.03 9 16.06 9 13 C10.98 13 12.96 13 15 13 C15.33 13.66 15.66 14.32 16 15 C24.25 15 32.5 15 41 15 C41.33 14.34 41.66 13.68 42 13 C55.53 13 69.06 13 83 13 C83 16.63 83 20.26 83 24 C77.72 24 72.44 24 67 24 C67 24.99 67 25.98 67 27 C67.56847656 26.98839844 68.13695313 26.97679688 68.72265625 26.96484375 C73.60670484 26.90776806 78.18503965 27.18043228 83 28 C83 30.64 83 33.28 83 36 C75.71409984 36.04682155 68.42823335 36.08211748 61.14221191 36.10362434 C57.75718789 36.11395864 54.37226851 36.12792229 50.98730469 36.15087891 C12.5625541 36.39227608 12.5625541 36.39227608 5 32 C6.39195915 29.2160817 8.15575779 29.02101003 11 28 C9.02 27.67 7.04 27.34 5 27 C4.34 28.32 3.68 29.64 3 31 C1.02 30.01 -0.96 29.02 -3 28 C-2.79375 27.21625 -2.5875 26.4325 -2.375 25.625 C-2.189375 24.325625 -2.189375 24.325625 -2 23 C-4.35953094 20.64046906 -5.77895617 20.50858587 -9 20 C-9 17.69 -9 15.38 -9 13 C-7.35 12.67 -5.7 12.34 -4 12 C-4.268125 10.7625 -4.53625 9.525 -4.8125 8.25 C-5.109375 6.046875 -5.109375 6.046875 -5 4 C-2.5625 1.5 -2.5625 1.5 0 0 Z M19 24 C17.515 26.475 17.515 26.475 16 29 C28.87 28.01 28.87 28.01 42 27 C42.33 26.01 42.66 25.02 43 24 C39.06288563 23.85507281 35.12645375 23.76605463 31.1875 23.6875 C30.06794922 23.64560547 28.94839844 23.60371094 27.79492188 23.56054688 C26.18520508 23.53637695 26.18520508 23.53637695 24.54296875 23.51171875 C23.55321045 23.48553467 22.56345215 23.45935059 21.54370117 23.43237305 C20.70427979 23.61968994 19.8648584 23.80700684 19 24 Z " fill="#B6D2FE" transform="translate(18,89)"/>
<path d="M0 0 C0.495 0.99 0.495 0.99 1 2 C4.3 2 7.6 2 11 2 C11 8.6 11 15.2 11 22 C6.71 22 2.42 22 -2 22 C-2 26.62 -2 31.24 -2 36 C-0.02 35.505 -0.02 35.505 2 35 C3.36800819 34.92291277 4.73923592 34.89196391 6.109375 34.90234375 C6.86347656 34.90556641 7.61757812 34.90878906 8.39453125 34.91210938 C9.17183594 34.92048828 9.94914062 34.92886719 10.75 34.9375 C11.54277344 34.94201172 12.33554688 34.94652344 13.15234375 34.95117188 C15.10159508 34.96291435 17.05080738 34.98084854 19 35 C19 36.32 19 37.64 19 39 C19.99 39 20.98 39 22 39 C22.92553743 42.13850064 23.11664647 44.93680778 23.09765625 48.203125 C23.09443359 49.1828125 23.09121094 50.1625 23.08789062 51.171875 C23.07532227 52.69554688 23.07532227 52.69554688 23.0625 54.25 C23.05798828 55.28125 23.05347656 56.3125 23.04882812 57.375 C23.03706088 59.91672573 23.02062011 62.45833319 23 65 C25.31 65.66 27.62 66.32 30 67 C29 69 29 69 27.34521484 69.61450195 C22.49200924 70.41225457 17.54404055 70.18590312 12.63769531 70.18530273 C10.63863013 70.18748512 8.63960468 70.20599143 6.640625 70.22460938 C5.36960938 70.22654297 4.09859375 70.22847656 2.7890625 70.23046875 C1.63100098 70.23457764 0.47293945 70.23868652 -0.72021484 70.24291992 C-4.11310954 69.99162245 -6.83332989 69.21173908 -10 68 C-9 66 -9 66 -3 64 C-3 54.76 -3 45.52 -3 36 C-12.24 36 -21.48 36 -31 36 C-31 35.01 -31 34.02 -31 33 C-30.360625 32.525625 -29.72125 32.05125 -29.0625 31.5625 C-26.65251399 29.73675302 -26.57173838 28.85869192 -26 26 C-25.34 25.67 -24.68 25.34 -24 25 C-24 25.66 -24 26.32 -24 27 C-23.21625 26.360625 -22.4325 25.72125 -21.625 25.0625 C-19 23 -19 23 -17 22 C-17 20.68 -17 19.36 -17 18 C-14.83468804 15.83468804 -12.79859108 14.31459649 -9.9375 13.1875 C-7.28806141 11.56365054 -6.96718916 9.90156748 -6 7 C-5.0625 4.75 -5.0625 4.75 -4 3 C-3.01 2.67 -2.02 2.34 -1 2 C-0.67 1.34 -0.34 0.68 0 0 Z " fill="#7285FE" transform="translate(104,61)"/>
<path d="M0 0 C0.33 1.65 0.66 3.3 1 5 C5.33927969 6.83695434 5.33927969 6.83695434 9.875 6.125 C10.926875 5.568125 10.926875 5.568125 12 5 C14.0625 7.25 14.0625 7.25 16 10 C15.62109375 12.171875 15.62109375 12.171875 15 14 C15.99902344 14.06058594 16.99804688 14.12117188 18.02734375 14.18359375 C19.31769531 14.26738281 20.60804687 14.35117187 21.9375 14.4375 C23.86916016 14.55931641 23.86916016 14.55931641 25.83984375 14.68359375 C29 15 29 15 30 16 C30.08748207 17.92667507 30.10697334 19.85651861 30.09765625 21.78515625 C30.09443359 22.95498047 30.09121094 24.12480469 30.08789062 25.33007812 C30.07532227 27.17762695 30.07532227 27.17762695 30.0625 29.0625 C30.05798828 30.29806641 30.05347656 31.53363281 30.04882812 32.80664062 C30.03699608 35.87114117 30.02051173 38.93554721 30 42 C31.32 41.34 32.64 40.68 34 40 C35.5625 41.75 35.5625 41.75 37 44 C36.6875 46.125 36.6875 46.125 36 48 C36 48.66 36 49.32 36 50 C36.99 50.33 37.98 50.66 39 51 C38.67 52.32 38.34 53.64 38 55 C36.824375 55.0928125 36.824375 55.0928125 35.625 55.1875 C34.75875 55.455625 33.8925 55.72375 33 56 C31.62533375 58.47636012 31.62533375 58.47636012 31 61 C29.68 61 28.36 61 27 61 C26.67 60.34 26.34 59.68 26 59 C25.071875 59.0825 24.14375 59.165 23.1875 59.25 C20 59 20 59 18.0625 57.25 C16.78226842 54.53892135 17.27972737 53.79105644 18 51 C16.64555699 49.22809091 16.64555699 49.22809091 15 48 C15.33 47.01 15.66 46.02 16 45 C15.01 44.67 14.02 44.34 13 44 C13.04125 43.071875 13.0825 42.14375 13.125 41.1875 C13.27136339 37.84190281 13.27136339 37.84190281 11 35 C11.66 35 12.32 35 13 35 C12.67 34.01 12.34 33.02 12 32 C8.23699626 30.74566542 4.72789091 30.89304578 0.8125 30.9375 C0.06291016 30.94201172 -0.68667969 30.94652344 -1.45898438 30.95117188 C-3.30602383 30.96293646 -5.15302213 30.98087135 -7 31 C-7 30.34 -7 29.68 -7 29 C-4.69 29.33 -2.38 29.66 0 30 C-0.05220703 28.51886719 -0.05220703 28.51886719 -0.10546875 27.0078125 C-0.13253906 25.72648437 -0.15960938 24.44515625 -0.1875 23.125 C-0.23970703 21.21074219 -0.23970703 21.21074219 -0.29296875 19.2578125 C-0.19628906 18.18273437 -0.09960938 17.10765625 0 16 C0.99 15.34 1.98 14.68 3 14 C1.78410016 12.56844101 1.78410016 12.56844101 -1.8125 12.6875 C-4.78617685 12.74622611 -5.87751147 12.92650688 -8.5 14.5 C-10.71177972 18.18629954 -10.34421275 20.73176192 -10 25 C-9.67 25.66 -9.34 26.32 -9 27 C-11.97 27 -14.94 27 -18 27 C-18 24.36 -18 21.72 -18 19 C-19.65 18.67 -21.3 18.34 -23 18 C-22.01 15.03 -21.02 12.06 -20 9 C-18.906875 9.226875 -17.81375 9.45375 -16.6875 9.6875 C-13.17383651 10.32767007 -13.17383651 10.32767007 -11.0625 8.9375 C-9.58206055 6.23787512 -9.79838001 4.02429981 -10 1 C-6.56484998 0.37542727 -3.50935186 0 0 0 Z M22 47 C21.6366844 49.83386167 21.6431329 51.40522151 23.125 53.875 C25.92151052 55.55290631 27.93690532 54.74875648 31 54 C31.67673447 50.59679066 31.67673447 50.59679066 32 47 C30.11499729 44.68436913 30.11499729 44.68436913 27 44.75 C23.88500271 44.68436913 23.88500271 44.68436913 22 47 Z " fill="#38D5D0" transform="translate(105,18)"/>
<path d="M0 0 C2.31 0 4.62 0 7 0 C7.28571429 7.42857143 7.28571429 7.42857143 5 11 C4.01 11 3.02 11 2 11 C1.67 12.98 1.34 14.96 1 17 C0.34 17 -0.32 17 -1 17 C-1.495 18.485 -1.495 18.485 -2 20 C-2.99 20.33 -3.98 20.66 -5 21 C-5.33 21.66 -5.66 22.32 -6 23 C-7.64142963 24.0409066 -9.30712215 25.04504326 -11 26 C-10.505 27.98 -10.505 27.98 -10 30 C-11.65 30.66 -13.3 31.32 -15 32 C-15 32.66 -15 33.32 -15 34 C-16.32 33.67 -17.64 33.34 -19 33 C-19.0825 33.78375 -19.165 34.5675 -19.25 35.375 C-20 38 -20 38 -22 39.1875 C-22.66 39.455625 -23.32 39.72375 -24 40 C-24.495 40.99 -24.495 40.99 -25 42 C-11.14 42.495 -11.14 42.495 3 43 C3 44.65 3 46.3 3 48 C-10.53 48 -24.06 48 -38 48 C-38.33 43.05 -38.66 38.1 -39 33 C-44.61 32.67 -50.22 32.34 -56 32 C-57 27 -57 27 -56 25 C-54.02 25.33 -52.04 25.66 -50 26 C-50.33 25.34 -50.66 24.68 -51 24 C-49.68 24 -48.36 24 -47 24 C-47 23.34 -47 22.68 -47 22 C-47.66 21.67 -48.32 21.34 -49 21 C-46.8614515 18.8614515 -45.86724686 18.57344937 -43 18 C-43 17.34 -43 16.68 -43 16 C-38.8621489 14.85252778 -34.81971381 14.79252355 -30.55078125 14.71875 C-29.33094795 14.69113586 -29.33094795 14.69113586 -28.08647156 14.66296387 C-24.61238572 14.58437285 -21.13811506 14.51628552 -17.66381836 14.44775391 C-15.12603727 14.39617972 -12.58843039 14.33889983 -10.05078125 14.28125 C-8.86335075 14.26088684 -8.86335075 14.26088684 -7.65193176 14.2401123 C-4.02534945 14.49114753 -4.02534945 14.49114753 -1 13 C-0.76518307 10.81707226 -0.58636677 8.62796826 -0.4375 6.4375 C-0.35371094 5.23996094 -0.26992187 4.04242188 -0.18359375 2.80859375 C-0.09271484 1.41833984 -0.09271484 1.41833984 0 0 Z " fill="#6B72FE" transform="translate(98,54)"/>
<path d="M0 0 C16.83 0 33.66 0 51 0 C51 5.94 51 11.88 51 18 C34.17 18 17.34 18 0 18 C0 12.06 0 6.12 0 0 Z " fill="#41438B" transform="translate(44,47)"/>
<path d="M0 0 C0.99 0.66 1.98 1.32 3 2 C4.65549531 2.38499891 6.3222433 2.72793135 8 3 C8 4.65 8 6.3 8 8 C7.030625 8.28875 6.06125 8.5775 5.0625 8.875 C1.89335797 9.64214682 1.89335797 9.64214682 1 12 C0.59694805 16.08388307 0.59694805 16.08388307 2.125 19.75 C7.22242182 23.14828121 13.0594145 23.49835056 19 24 C18.67 25.32 18.34 26.64 18 28 C25.92 27.67 33.84 27.34 42 27 C41.67 27.66 41.34 28.32 41 29 C38.35139573 29.59355614 35.70802678 29.74209269 33 30 C33 30.66 33 31.32 33 32 C47.19 32 61.38 32 76 32 C75.505 31.01 75.505 31.01 75 30 C73.845 29.835 72.69 29.67 71.5 29.5 C70.345 29.335 69.19 29.17 68 29 C67.505 28.01 67.505 28.01 67 27 C72.45769811 26.88861841 77.61509359 27.08342019 83 28 C83 30.64 83 33.28 83 36 C75.71409984 36.04682155 68.42823335 36.08211748 61.14221191 36.10362434 C57.75718789 36.11395864 54.37226851 36.12792229 50.98730469 36.15087891 C12.5625541 36.39227608 12.5625541 36.39227608 5 32 C6.39195915 29.2160817 8.15575779 29.02101003 11 28 C9.02 27.67 7.04 27.34 5 27 C4.34 28.32 3.68 29.64 3 31 C1.02 30.01 -0.96 29.02 -3 28 C-2.79375 27.21625 -2.5875 26.4325 -2.375 25.625 C-2.189375 24.325625 -2.189375 24.325625 -2 23 C-4.35953094 20.64046906 -5.77895617 20.50858587 -9 20 C-9 17.69 -9 15.38 -9 13 C-7.35 12.67 -5.7 12.34 -4 12 C-4.268125 10.7625 -4.53625 9.525 -4.8125 8.25 C-5.109375 6.046875 -5.109375 6.046875 -5 4 C-2.5625 1.5 -2.5625 1.5 0 0 Z " fill="#EAEBF2" transform="translate(18,89)"/>
<path d="M0 0 C1.12019531 -0.00128906 2.24039063 -0.00257812 3.39453125 -0.00390625 C4.57402344 -0.00003906 5.75351562 0.00382812 6.96875 0.0078125 C8.73798828 0.00201172 8.73798828 0.00201172 10.54296875 -0.00390625 C12.22326172 -0.00197266 12.22326172 -0.00197266 13.9375 0 C14.97326172 0.00112793 16.00902344 0.00225586 17.07617188 0.00341797 C19.46875 0.1328125 19.46875 0.1328125 20.46875 1.1328125 C20.56861975 3.97616298 20.60752881 6.78978413 20.59375 9.6328125 C20.59955078 10.82970703 20.59955078 10.82970703 20.60546875 12.05078125 C20.59535767 18.00620483 20.59535767 18.00620483 19.46875 19.1328125 C17.62715977 19.23240871 15.78178033 19.26361661 13.9375 19.265625 C12.81730469 19.26691406 11.69710937 19.26820312 10.54296875 19.26953125 C9.36347656 19.26566406 8.18398438 19.26179688 6.96875 19.2578125 C5.19951172 19.26361328 5.19951172 19.26361328 3.39453125 19.26953125 C1.71423828 19.26759766 1.71423828 19.26759766 0 19.265625 C-1.03576172 19.26449707 -2.07152344 19.26336914 -3.13867188 19.26220703 C-5.53125 19.1328125 -5.53125 19.1328125 -6.53125 18.1328125 C-6.63111975 15.28946202 -6.67002881 12.47584087 -6.65625 9.6328125 C-6.66011719 8.83488281 -6.66398437 8.03695312 -6.66796875 7.21484375 C-6.65573175 0.007248 -6.65573175 0.007248 0 0 Z " fill="#39D5C9" transform="translate(39.53125,85.8671875)"/>
<path d="M0 0 C0.83265381 0.00523682 1.66530762 0.01047363 2.52319336 0.01586914 C3.33280518 0.0183667 4.14241699 0.02086426 4.9765625 0.0234375 C6.01159912 0.0325415 7.04663574 0.04164551 8.11303711 0.05102539 C11.39241211 0.07165039 14.67178711 0.09227539 18.05053711 0.11352539 C18.05053711 7.04352539 18.05053711 13.97352539 18.05053711 21.11352539 C11.12053711 21.11352539 4.19053711 21.11352539 -2.94946289 21.11352539 C-2.97008789 17.83415039 -2.99071289 14.55477539 -3.01196289 11.17602539 C-3.02106689 10.14098877 -3.0301709 9.10595215 -3.03955078 8.03955078 C-3.04329712 6.82513306 -3.04329712 6.82513306 -3.04711914 5.58618164 C-3.05235596 4.75352783 -3.05759277 3.92087402 -3.06298828 3.06298828 C-2.90876673 0.41468917 -2.64829911 0.15422155 0 0 Z " fill="#3CCFD3" transform="translate(15.949462890625,58.886474609375)"/>
<path d="M0 0 C1.32 0 2.64 0 4 0 C4 6.6 4 13.2 4 20 C6.31 20 8.62 20 11 20 C12 21 12 21 12.11352539 22.94946289 C12.10828857 23.7821167 12.10305176 24.61477051 12.09765625 25.47265625 C12.09443359 26.37177734 12.09121094 27.27089844 12.08789062 28.19726562 C12.07951172 29.14279297 12.07113281 30.08832031 12.0625 31.0625 C12.05798828 32.01189453 12.05347656 32.96128906 12.04882812 33.93945312 C12.0370011 36.29303065 12.02052025 38.64648477 12 41 C11.67 39.68 11.34 38.36 11 37 C10.01 37 9.02 37 8 37 C8 35.68 8 34.36 8 33 C-2.395 33.495 -2.395 33.495 -13 34 C-14.125 22.25 -14.125 22.25 -13 20 C-8.71 20 -4.42 20 0 20 C0 13.4 0 6.8 0 0 Z " fill="#5E4CFB" transform="translate(115,63)"/>
<path d="M0 0 C0.33 1.65 0.66 3.3 1 5 C5.33927969 6.83695434 5.33927969 6.83695434 9.875 6.125 C10.926875 5.568125 10.926875 5.568125 12 5 C14.0625 7.25 14.0625 7.25 16 10 C15.81190541 12.25713514 15.60454441 13.39545559 14 15 C12.35769636 15.1245486 10.70947724 15.17568524 9.0625 15.1875 C8.16660156 15.20167969 7.27070312 15.21585938 6.34765625 15.23046875 C4 15 4 15 2 13 C-3.54235245 12.42765564 -3.54235245 12.42765564 -8.5 14.5 C-10.71177972 18.18629954 -10.34421275 20.73176192 -10 25 C-9.67 25.66 -9.34 26.32 -9 27 C-11.97 27 -14.94 27 -18 27 C-18 24.36 -18 21.72 -18 19 C-19.65 18.67 -21.3 18.34 -23 18 C-22.01 15.03 -21.02 12.06 -20 9 C-18.906875 9.226875 -17.81375 9.45375 -16.6875 9.6875 C-13.17383651 10.32767007 -13.17383651 10.32767007 -11.0625 8.9375 C-9.58206055 6.23787512 -9.79838001 4.02429981 -10 1 C-6.56484998 0.37542727 -3.50935186 0 0 0 Z " fill="#E8EAF1" transform="translate(105,18)"/>
<path d="M0 0 C0.75410156 0.00322266 1.50820312 0.00644531 2.28515625 0.00976562 C3.06246094 0.01814453 3.83976562 0.02652344 4.640625 0.03515625 C5.43339844 0.03966797 6.22617188 0.04417969 7.04296875 0.04882812 C8.99222008 0.0605706 10.94143238 0.07850479 12.890625 0.09765625 C9.50963185 7.04799872 9.50963185 7.04799872 6.890625 9.09765625 C6.230625 9.09765625 5.570625 9.09765625 4.890625 9.09765625 C5.220625 10.08765625 5.550625 11.07765625 5.890625 12.09765625 C5.230625 12.09765625 4.570625 12.09765625 3.890625 12.09765625 C4.220625 13.08765625 4.550625 14.07765625 4.890625 15.09765625 C-0.88093538 17.08676932 -5.97180241 17.34277175 -12.046875 17.22265625 C-12.92150391 17.21363281 -13.79613281 17.20460938 -14.69726562 17.1953125 C-16.83475564 17.17195195 -18.97210286 17.13608872 -21.109375 17.09765625 C-22.234375 12.34765625 -22.234375 12.34765625 -21.109375 10.09765625 C-18.139375 10.59265625 -18.139375 10.59265625 -15.109375 11.09765625 C-15.439375 10.43765625 -15.769375 9.77765625 -16.109375 9.09765625 C-14.789375 9.09765625 -13.469375 9.09765625 -12.109375 9.09765625 C-12.109375 8.43765625 -12.109375 7.77765625 -12.109375 7.09765625 C-12.769375 6.76765625 -13.429375 6.43765625 -14.109375 6.09765625 C-11.9708265 3.95910775 -10.97662186 3.67110562 -8.109375 3.09765625 C-8.109375 2.43765625 -8.109375 1.77765625 -8.109375 1.09765625 C-5.33213575 0.3107718 -2.88327423 -0.02184299 0 0 Z " fill="#655CFE" transform="translate(63.109375,68.90234375)"/>
<path d="M0 0 C1.58206057 0.00667536 3.16410534 0.0186375 4.74609375 0.03515625 C5.55240234 0.03966797 6.35871094 0.04417969 7.18945312 0.04882812 C9.18753131 0.06065107 11.18557158 0.07858711 13.18359375 0.09765625 C13.21043687 2.91021906 13.23035563 5.72252866 13.24609375 8.53515625 C13.25447266 9.33759766 13.26285156 10.14003906 13.27148438 10.96679688 C13.28010805 13.01060846 13.23587525 15.05449527 13.18359375 17.09765625 C11.36243372 18.91881628 8.87687611 18.23000705 6.45703125 18.234375 C5.70679687 18.23050781 4.9565625 18.22664063 4.18359375 18.22265625 C3.05824219 18.22845703 3.05824219 18.22845703 1.91015625 18.234375 C-3.68979572 18.22426678 -3.68979572 18.22426678 -4.81640625 17.09765625 C-4.91621839 14.42034245 -4.955205 11.7746145 -4.94140625 9.09765625 C-4.94527344 8.34742187 -4.94914062 7.5971875 -4.953125 6.82421875 C-4.94103514 0.12643386 -4.94103514 0.12643386 0 0 Z " fill="#43D3E0" transform="translate(109.81640625,95.90234375)"/>
<path d="M0 0 C0.99 0 1.98 0 3 0 C3.86963087 2.99706695 4.11763099 5.64956526 4.09765625 8.765625 C4.09515869 9.56774414 4.09266113 10.36986328 4.09008789 11.19628906 C4.08098389 12.20401367 4.07187988 13.21173828 4.0625 14.25 C4.041875 17.4675 4.02125 20.685 4 24 C-4.25 24 -12.5 24 -21 24 C-21 19.71 -21 15.42 -21 11 C-20.01 11 -19.02 11 -18 11 C-17.67 11.66 -17.34 12.32 -17 13 C-11.72 13 -6.44 13 -1 13 C-0.67 8.71 -0.34 4.42 0 0 Z " fill="#7180FE" transform="translate(123,100)"/>
<path d="M0 0 C0.83265381 0.00523682 1.66530762 0.01047363 2.52319336 0.01586914 C3.42231445 0.0190918 4.32143555 0.02231445 5.24780273 0.02563477 C6.66609375 0.03820312 6.66609375 0.03820312 8.11303711 0.05102539 C9.06243164 0.05553711 10.01182617 0.06004883 10.98999023 0.06469727 C13.34356776 0.07652429 15.69702188 0.09300514 18.05053711 0.11352539 C18.07739123 2.42596331 18.09686552 4.73848809 18.11303711 7.05102539 C18.12463867 8.33879883 18.13624023 9.62657227 18.14819336 10.95336914 C18.05053711 14.11352539 18.05053711 14.11352539 17.05053711 15.11352539 C15.64704976 15.2121267 14.23873234 15.24431476 12.83178711 15.24633789 C11.55754883 15.24827148 11.55754883 15.24827148 10.25756836 15.25024414 C8.91758789 15.24444336 8.91758789 15.24444336 7.55053711 15.23852539 C6.6572168 15.24239258 5.76389648 15.24625977 4.84350586 15.25024414 C3.99401367 15.24895508 3.14452148 15.24766602 2.26928711 15.24633789 C1.48489258 15.24520996 0.70049805 15.24408203 -0.10766602 15.24291992 C-1.94946289 15.11352539 -1.94946289 15.11352539 -2.94946289 14.11352539 C-3.04839229 11.94871742 -3.0791739 9.78058754 -3.07446289 7.61352539 C-3.07704102 6.42758789 -3.07961914 5.24165039 -3.08227539 4.01977539 C-2.90631037 0.16924663 -2.90631037 0.16924663 0 0 Z " fill="#3F4590" transform="translate(15.949462890625,31.886474609375)"/>
<path d="M0 0 C0.33 0 0.66 0 1 0 C1 3.63 1 7.26 1 11 C1.99 11 2.98 11 4 11 C4 15.62 4 20.24 4 25 C3.34 25.33 2.68 25.66 2 26 C1.67 29.96 1.34 33.92 1 38 C9.25 38 17.5 38 26 38 C26 38.66 26 39.32 26 40 C28.31 40.66 30.62 41.32 33 42 C32 44 32 44 30.34521484 44.61450195 C25.49200924 45.41225457 20.54404055 45.18590312 15.63769531 45.18530273 C13.63863013 45.18748512 11.63960468 45.20599143 9.640625 45.22460938 C8.36960937 45.22654297 7.09859375 45.22847656 5.7890625 45.23046875 C4.63100098 45.23457764 3.47293945 45.23868652 2.27978516 45.24291992 C-1.11310954 44.99162245 -3.83332989 44.21173908 -7 43 C-6 41 -6 41 0 39 C0 26.13 0 13.26 0 0 Z " fill="#5F54EA" transform="translate(101,86)"/>
<path d="M0 0 C1.08667969 0.02707031 2.17335938 0.05414063 3.29296875 0.08203125 C4.54013672 0.13423828 4.54013672 0.13423828 5.8125 0.1875 C5.86148438 1.45207031 5.91046875 2.71664062 5.9609375 4.01953125 C6.0359738 5.67970947 6.11152127 7.33986464 6.1875 9 C6.2184375 9.83337891 6.249375 10.66675781 6.28125 11.52539062 C6.31992187 12.32783203 6.35859375 13.13027344 6.3984375 13.95703125 C6.4298584 14.69542236 6.4612793 15.43381348 6.49365234 16.19458008 C6.72084614 18.50099588 6.72084614 18.50099588 8.8125 21.1875 C8.173125 21.414375 7.53375 21.64125 6.875 21.875 C4.54056339 23.04000896 4.54056339 23.04000896 4.0625 25.8125 C3.98 26.59625 3.8975 27.38 3.8125 28.1875 C2.8225 28.1875 1.8325 28.1875 0.8125 28.1875 C0.4825 28.8475 0.1525 29.5075 -0.1875 30.1875 C-0.5175 23.5875 -0.8475 16.9875 -1.1875 10.1875 C-3.8275 10.1875 -6.4675 10.1875 -9.1875 10.1875 C-9.55218886 3.74466353 -9.55218886 3.74466353 -8.0625 1.46875 C-5.3504604 -0.38447706 -3.24426436 -0.10465369 0 0 Z " fill="#5A38FE" transform="translate(35.1875,48.8125)"/>
<path d="M0 0 C-0.309375 0.928125 -0.309375 0.928125 -0.625 1.875 C-0.74875 2.57625 -0.8725 3.2775 -1 4 C-0.34 4.66 0.32 5.32 1 6 C1 8.31 1 10.62 1 13 C-3.62 13 -8.24 13 -13 13 C-13 10.03 -13 7.06 -13 4 C-15.31 4 -17.62 4 -20 4 C-20 2.35 -20 0.7 -20 -1 C-17.41718164 -1.22224251 -14.83477813 -1.42823488 -12.25 -1.625 C-11.52039063 -1.68945312 -10.79078125 -1.75390625 -10.0390625 -1.8203125 C-6.14088264 -2.10381649 -3.29354678 -2.27081383 0 0 Z " fill="#34AFC6" transform="translate(118,50)"/>
<path d="M0 0 C2.875 1 2.875 1 4.25 3.0625 C4.45625 3.701875 4.6625 4.34125 4.875 5 C6.525 5 8.175 5 9.875 5 C10.205 6.32 10.535 7.64 10.875 9 C7.905 9 4.935 9 1.875 9 C1.875 10.98 1.875 12.96 1.875 15 C2.865 15.33 3.855 15.66 4.875 16 C3.885 16.99 2.895 17.98 1.875 19 C-2 17.25 -2 17.25 -3.125 15 C-2.465 15 -1.805 15 -1.125 15 C-1.455 14.01 -1.785 13.02 -2.125 12 C-5.88800374 10.74566542 -9.39710909 10.89304578 -13.3125 10.9375 C-14.06208984 10.94201172 -14.81167969 10.94652344 -15.58398438 10.95117188 C-17.43102383 10.96293646 -19.27802213 10.98087135 -21.125 11 C-21.125 10.34 -21.125 9.68 -21.125 9 C-20.031875 9.0825 -18.93875 9.165 -17.8125 9.25 C-15.9871875 9.12625 -15.9871875 9.12625 -14.125 9 C-12.39979815 7.11652637 -12.39979815 7.11652637 -11.125 5 C-9.79423011 4.65657551 -8.46068021 4.32380126 -7.125 4 C-6.50625 3.29875 -5.8875 2.5975 -5.25 1.875 C-3.125 0 -3.125 0 0 0 Z " fill="#F8FDFD" transform="translate(119.125,38)"/>
<path d="M0 0 C13.53 0 27.06 0 41 0 C41 1.65 41 3.3 41 5 C27.47 5 13.94 5 0 5 C0 3.35 0 1.7 0 0 Z " fill="#3C3D89" transform="translate(60,97)"/>
<path d="M0 0 C0.99 0 1.98 0 3 0 C3 5.28 3 10.56 3 16 C19.83 16 36.66 16 54 16 C54 16.33 54 16.66 54 17 C44.76 17.33 35.52 17.66 26 18 C35.57 18.33 45.14 18.66 55 19 C55 19.33 55 19.66 55 20 C47.48863592 20.05057965 39.97731551 20.08568257 32.46582031 20.10986328 C29.90883747 20.11994038 27.35186621 20.13360226 24.79492188 20.15087891 C21.12627308 20.17505217 17.45777621 20.18646585 13.7890625 20.1953125 C12.0655809 20.21079636 12.0655809 20.21079636 10.30728149 20.22659302 C9.2463327 20.22674408 8.18538391 20.22689514 7.09228516 20.22705078 C6.15518707 20.231492 5.21808899 20.23593323 4.25259399 20.24050903 C2 20 2 20 0 18 C-0.22705078 16.12060547 -0.22705078 16.12060547 -0.1953125 13.8671875 C-0.18886719 13.06152344 -0.18242188 12.25585938 -0.17578125 11.42578125 C-0.15064453 10.16314453 -0.15064453 10.16314453 -0.125 8.875 C-0.11597656 8.02550781 -0.10695312 7.17601562 -0.09765625 6.30078125 C-0.07405647 4.20040116 -0.03818483 2.10016556 0 0 Z " fill="#4194D6" transform="translate(41,49)"/>
<path d="M0 0 C2.0625 1.75 2.0625 1.75 4 4 C3.75 6.125 3.75 6.125 3 8 C3 8.66 3 9.32 3 10 C3.99 10.33 4.98 10.66 6 11 C5.67 12.32 5.34 13.64 5 15 C3.824375 15.0928125 3.824375 15.0928125 2.625 15.1875 C1.75875 15.455625 0.8925 15.72375 0 16 C-1.37466625 18.47636012 -1.37466625 18.47636012 -2 21 C-3.32 21 -4.64 21 -6 21 C-6.33 20.34 -6.66 19.68 -7 19 C-8.3921875 19.12375 -8.3921875 19.12375 -9.8125 19.25 C-13 19 -13 19 -14.9375 17.25 C-16.21773158 14.53892135 -15.72027263 13.79105644 -15 11 C-16.35444301 9.22809091 -16.35444301 9.22809091 -18 8 C-17.67 7.01 -17.34 6.02 -17 5 C-14.36 5 -11.72 5 -9 5 C-9.20625 6.11375 -9.4125 7.2275 -9.625 8.375 C-9.74875 9.57125 -9.8725 10.7675 -10 12 C-8.10244856 14.34973818 -8.10244856 14.34973818 -4.875 14.125 C-3.451875 14.063125 -3.451875 14.063125 -2 14 C-1.70437633 8.67829506 -1.70437633 8.67829506 -4 4 C-2.68 2.68 -1.36 1.36 0 0 Z " fill="#EAEBF2" transform="translate(138,58)"/>
<path d="M0 0 C1.98 0 3.96 0 6 0 C6.33 0.66 6.66 1.32 7 2 C9.54941373 2.31241371 12.00361513 2.51303421 14.5625 2.625 C15.62887695 2.68300781 15.62887695 2.68300781 16.71679688 2.7421875 C18.47742425 2.83671783 20.23867728 2.91945817 22 3 C22.33 5.64 22.66 8.28 23 11 C19.35418313 11.02887512 15.70839537 11.04675585 12.0625 11.0625 C10.50112305 11.07506836 10.50112305 11.07506836 8.90820312 11.08789062 C7.91884766 11.09111328 6.92949219 11.09433594 5.91015625 11.09765625 C4.99371338 11.10289307 4.07727051 11.10812988 3.13305664 11.11352539 C1 11 1 11 0 10 C-0.07205511 8.31391034 -0.08386068 6.62499341 -0.0625 4.9375 C-0.05347656 4.01839844 -0.04445313 3.09929687 -0.03515625 2.15234375 C-0.02355469 1.44207031 -0.01195313 0.73179688 0 0 Z " fill="#C4DBFE" transform="translate(27,102)"/>
<path d="M0 0 C1.77007714 -0.08114106 3.54122098 -0.13925505 5.3125 -0.1875 C6.29863281 -0.22230469 7.28476563 -0.25710937 8.30078125 -0.29296875 C11 0 11 0 12.85546875 1.38671875 C14 3 14 3 14 5 C19.94 5 25.88 5 32 5 C32.495 6.485 32.495 6.485 33 8 C18.81 8 4.62 8 -10 8 C-10 7.34 -10 6.68 -10 6 C-7.98177083 5.609375 -5.96354167 5.21875 -3.9453125 4.828125 C-1.80995329 4.14287884 -1.80995329 4.14287884 -0.7421875 1.921875 C-0.49726562 1.28765625 -0.25234375 0.6534375 0 0 Z " fill="#A1C4FE" transform="translate(61,113)"/>
<path d="M0 0 C1.16781006 0.00523682 2.33562012 0.01047363 3.53881836 0.01586914 C4.79887695 0.0190918 6.05893555 0.02231445 7.35717773 0.02563477 C8.6976732 0.03399136 10.03816799 0.04245632 11.37866211 0.05102539 C12.72306153 0.05603879 14.06746271 0.06060197 15.41186523 0.06469727 C18.71334151 0.07653051 22.01473014 0.09301568 25.31616211 0.11352539 C24.98616211 1.76352539 24.65616211 3.41352539 24.31616211 5.11352539 C23.71803711 4.88665039 23.11991211 4.65977539 22.50366211 4.42602539 C21.42084961 4.27133789 21.42084961 4.27133789 20.31616211 4.11352539 C18.54425302 5.4679684 18.54425302 5.4679684 17.31616211 7.11352539 C16.98616211 5.46352539 16.65616211 3.81352539 16.31616211 2.11352539 C15.65616211 2.11352539 14.99616211 2.11352539 14.31616211 2.11352539 C13.32616211 3.59852539 13.32616211 3.59852539 12.31616211 5.11352539 C9.98282878 5.78019206 7.64949544 6.44685872 5.31616211 7.11352539 C4.32616211 8.59852539 4.32616211 8.59852539 3.31616211 10.11352539 C1.66411755 10.81564433 -0.00307558 11.48323952 -1.68383789 12.11352539 C-2.34383789 12.77352539 -3.00383789 13.43352539 -3.68383789 14.11352539 C-3.71069727 11.96775903 -3.73016877 9.82189894 -3.74633789 7.67602539 C-3.75793945 6.48106445 -3.76954102 5.28610352 -3.78149414 4.05493164 C-3.65199701 0.15447818 -3.65199701 0.15447818 0 0 Z " fill="#34D0D5" transform="translate(108.683837890625,32.886474609375)"/>
<path d="M0 0 C0.83265381 0.00523682 1.66530762 0.01047363 2.52319336 0.01586914 C3.42231445 0.0190918 4.32143555 0.02231445 5.24780273 0.02563477 C6.66609375 0.03820313 6.66609375 0.03820313 8.11303711 0.05102539 C9.06243164 0.05553711 10.01182617 0.06004883 10.98999023 0.06469727 C13.34356776 0.07652429 15.69702188 0.09300514 18.05053711 0.11352539 C18.05053711 2.75352539 18.05053711 5.39352539 18.05053711 8.11352539 C17.06053711 8.11352539 16.07053711 8.11352539 15.05053711 8.11352539 C15.05053711 8.77352539 15.05053711 9.43352539 15.05053711 10.11352539 C14.39053711 10.11352539 13.73053711 10.11352539 13.05053711 10.11352539 C12.39053711 8.79352539 11.73053711 7.47352539 11.05053711 6.11352539 C10.06053711 6.11352539 9.07053711 6.11352539 8.05053711 6.11352539 C8.05053711 5.45352539 8.05053711 4.79352539 8.05053711 4.11352539 C6.73053711 4.11352539 5.41053711 4.11352539 4.05053711 4.11352539 C4.05053711 5.43352539 4.05053711 6.75352539 4.05053711 8.11352539 C3.06053711 8.11352539 2.07053711 8.11352539 1.05053711 8.11352539 C1.39084961 9.01071289 1.39084961 9.01071289 1.73803711 9.92602539 C1.84116211 10.64790039 1.94428711 11.36977539 2.05053711 12.11352539 C0.73803711 13.67602539 0.73803711 13.67602539 -0.94946289 15.11352539 C-1.60946289 16.10352539 -2.26946289 17.09352539 -2.94946289 18.11352539 C-2.97630601 15.30096258 -2.99622477 12.48865298 -3.01196289 9.67602539 C-3.0203418 8.87358398 -3.0287207 8.07114258 -3.03735352 7.24438477 C-3.04597719 5.20057318 -3.00174439 3.15668637 -2.94946289 1.11352539 C-1.94946289 0.11352539 -1.94946289 0.11352539 0 0 Z " fill="#33C7DE" transform="translate(15.949462890625,58.886474609375)"/>
<path d="M0 0 C1.32 0 2.64 0 4 0 C4 6.6 4 13.2 4 20 C6.31 20 8.62 20 11 20 C11.33 20.99 11.66 21.98 12 23 C3.19039858 24.30512614 -5.19039858 24.30512614 -14 23 C-13.505 21.515 -13.505 21.515 -13 20 C-8.71 20 -4.42 20 0 20 C0 13.4 0 6.8 0 0 Z " fill="#4C4CA1" transform="translate(115,63)"/>
<path d="M0 0 C2.3125 1.5625 2.3125 1.5625 4 4 C4.42519574 7.46230815 4.63902633 9.8347167 2.9375 12.9375 C-0.20334326 14.65989792 -2.49818786 14.49148241 -6 14 C-8.5 11.875 -8.5 11.875 -10 9 C-10 5.43909099 -9.69349238 3.74302755 -7.25 1.125 C-4.50272993 -0.24863504 -3.03212094 -0.53062116 0 0 Z " fill="#47D8D9" transform="translate(117,98)"/>
<path d="M0 0 C0.02684679 2.64590014 0.04676357 5.29153096 0.0625 7.9375 C0.07087891 8.69224609 0.07925781 9.44699219 0.08789062 10.22460938 C0.09652441 12.14994313 0.05224333 14.07535581 0 16 C-1 17 -1 17 -4.37890625 17.09765625 C-5.77347077 17.09098369 -7.16801743 17.07902532 -8.5625 17.0625 C-9.27341797 17.05798828 -9.98433594 17.05347656 -10.71679688 17.04882812 C-12.47790013 17.03700864 -14.23896036 17.01907263 -16 17 C-16.33 16.34 -16.66 15.68 -17 15 C-13.535 14.505 -13.535 14.505 -10 14 C-10.66 13.67 -11.32 13.34 -12 13 C-11.6875 11.125 -11.6875 11.125 -11 9 C-10.01 8.34 -9.02 7.68 -8 7 C-7.67 6.01 -7.34 5.02 -7 4 C-6.01 4 -5.02 4 -4 4 C-4 3.01 -4 2.02 -4 1 C-1 0 -1 0 0 0 Z " fill="#35DCC5" transform="translate(135,46)"/>
<path d="M0 0 C1.31871094 -0.01224609 2.63742188 -0.02449219 3.99609375 -0.03710938 C5.90068359 -0.04000977 5.90068359 -0.04000977 7.84375 -0.04296875 C9.00068359 -0.04707764 10.15761719 -0.05118652 11.34960938 -0.05541992 C14.47736509 0.18575467 16.680892 0.85423629 19.5 2.1875 C18.5 4.1875 18.5 4.1875 16.84521484 4.80200195 C11.99200924 5.59975457 7.04404055 5.37340312 2.13769531 5.37280273 C0.13863013 5.37498512 -1.86039532 5.39349143 -3.859375 5.41210938 C-5.13039063 5.41404297 -6.40140625 5.41597656 -7.7109375 5.41796875 C-8.86899902 5.42207764 -10.02706055 5.42618652 -11.22021484 5.43041992 C-14.61310954 5.17912245 -17.33332989 4.39923908 -20.5 3.1875 C-20.17 2.5275 -19.84 1.8675 -19.5 1.1875 C-13.23640183 -0.60566158 -6.45139424 0.00315317 0 0 Z " fill="#EAEBF2" transform="translate(114.5,125.8125)"/>
<path d="M0 0 C1.98 0 3.96 0 6 0 C6 2.33333333 6 4.66666667 6 7 C7.4166747 8.7511573 7.4166747 8.7511573 9 10 C7.02 10.99 7.02 10.99 5 12 C5 12.66 5 13.32 5 14 C4.34 14 3.68 14 3 14 C2.34 13.01 1.68 12.02 1 11 C0.34 12.32 -0.32 13.64 -1 15 C-1.66 15 -2.32 15 -3 15 C-3 13.68 -3 12.36 -3 11 C-3.66 11 -4.32 11 -5 11 C-5.33 11.99 -5.66 12.98 -6 14 C-7.32 12.35 -8.64 10.7 -10 9 C-9.525625 8.566875 -9.05125 8.13375 -8.5625 7.6875 C-6.76313043 5.97690387 -6.76313043 5.97690387 -6 3 C-4.02 2.67 -2.04 2.34 0 2 C0 1.34 0 0.68 0 0 Z " fill="#43B7DF" transform="translate(47,86)"/>
<path d="M0 0 C0.83265381 0.00523682 1.66530762 0.01047363 2.52319336 0.01586914 C3.42231445 0.0190918 4.32143555 0.02231445 5.24780273 0.02563477 C6.66609375 0.03820312 6.66609375 0.03820312 8.11303711 0.05102539 C9.06243164 0.05553711 10.01182617 0.06004883 10.98999023 0.06469727 C13.34356776 0.07652429 15.69702188 0.09300514 18.05053711 0.11352539 C18.07739123 2.42596331 18.09686552 4.73848809 18.11303711 7.05102539 C18.12463867 8.33879883 18.13624023 9.62657227 18.14819336 10.95336914 C18.05053711 14.11352539 18.05053711 14.11352539 17.05053711 15.11352539 C15.64704976 15.2121267 14.23873234 15.24431476 12.83178711 15.24633789 C11.55754883 15.24827148 11.55754883 15.24827148 10.25756836 15.25024414 C8.91758789 15.24444336 8.91758789 15.24444336 7.55053711 15.23852539 C6.6572168 15.24239258 5.76389648 15.24625977 4.84350586 15.25024414 C3.99401367 15.24895508 3.14452148 15.24766602 2.26928711 15.24633789 C1.48489258 15.24520996 0.70049805 15.24408203 -0.10766602 15.24291992 C-1.94946289 15.11352539 -1.94946289 15.11352539 -2.94946289 14.11352539 C-3.04839229 11.94871742 -3.0791739 9.78058754 -3.07446289 7.61352539 C-3.07704102 6.42758789 -3.07961914 5.24165039 -3.08227539 4.01977539 C-2.90631037 0.16924663 -2.90631037 0.16924663 0 0 Z M-0.94946289 2.11352539 C-0.94946289 5.41352539 -0.94946289 8.71352539 -0.94946289 12.11352539 C4.66053711 12.11352539 10.27053711 12.11352539 16.05053711 12.11352539 C16.05053711 8.81352539 16.05053711 5.51352539 16.05053711 2.11352539 C10.44053711 2.11352539 4.83053711 2.11352539 -0.94946289 2.11352539 Z " fill="#33CBDB" transform="translate(15.949462890625,31.886474609375)"/>
<path d="M0 0 C0.99 0 1.98 0 3 0 C3.86963087 2.99706695 4.11763099 5.64956526 4.09765625 8.765625 C4.09443359 9.65507813 4.09121094 10.54453125 4.08789062 11.4609375 C4.07951172 12.38132812 4.07113281 13.30171875 4.0625 14.25 C4.05798828 15.18585938 4.05347656 16.12171875 4.04882812 17.0859375 C4.03706938 19.39065247 4.01913468 21.69533446 4 24 C0.04 24 -3.92 24 -8 24 C-7 22 -7 22 -4 21 C-4.061875 20.05125 -4.12375 19.1025 -4.1875 18.125 C-4.125625 17.09375 -4.06375 16.0625 -4 15 C-3.01 14.34 -2.02 13.68 -1 13 C-0.41407366 9.88389446 -0.41407366 9.88389446 -0.3125 6.375 C-0.24675781 5.18648438 -0.18101563 3.99796875 -0.11328125 2.7734375 C-0.07589844 1.85820313 -0.03851563 0.94296875 0 0 Z " fill="#7691FE" transform="translate(123,100)"/>
<path d="M0 0 C1.32 0 2.64 0 4 0 C4 0.66 4 1.32 4 2 C5.32 1.67 6.64 1.34 8 1 C10 6.625 10 6.625 10 10 C9.01 10 8.02 10 7 10 C7 10.99 7 11.98 7 13 C0.84765625 12.4140625 0.84765625 12.4140625 -1 12 C-1.33 11.34 -1.66 10.68 -2 10 C-1.67 9.01 -1.34 8.02 -1 7 C-1.66 7 -2.32 7 -3 7 C-3 6.01 -3 5.02 -3 4 C-2.01 4 -1.02 4 0 4 C0 2.68 0 1.36 0 0 Z " fill="#E4F5F9" transform="translate(20,63)"/>
<path d="M0 0 C0 5.94 0 11.88 0 18 C-0.33 16.68 -0.66 15.36 -1 14 C-1.99 14 -2.98 14 -4 14 C-4 12.68 -4 11.36 -4 10 C-7.63 10 -11.26 10 -15 10 C-13.68 9.34 -12.36 8.68 -11 8 C-11 7.01 -11 6.02 -11 5 C-9.54462432 4.16151196 -8.08559627 3.32936066 -6.625 2.5 C-5.40683594 1.80390625 -5.40683594 1.80390625 -4.1640625 1.09375 C-2 0 -2 0 0 0 Z " fill="#6761FF" transform="translate(127,86)"/>
<path d="M0 0 C1.32 0 2.64 0 4 0 C4 5.61 4 11.22 4 17 C4.99 17 5.98 17 7 17 C7 18.65 7 20.3 7 22 C4.69 22 2.38 22 0 22 C0 14.74 0 7.48 0 0 Z " fill="#41458F" transform="translate(26,80)"/>
<path d="M0 0 C7.92 0.33 15.84 0.66 24 1 C24 1.33 24 1.66 24 2 C21.03 2 18.06 2 15 2 C15 3.98 15 5.96 15 8 C15.99 8.33 16.98 8.66 18 9 C17.01 9.99 16.02 10.98 15 12 C11.125 10.25 11.125 10.25 10 8 C10.66 8 11.32 8 12 8 C11.67 7.01 11.34 6.02 11 5 C7.23699626 3.74566542 3.72789091 3.89304578 -0.1875 3.9375 C-1.31188477 3.94426758 -1.31188477 3.94426758 -2.45898438 3.95117188 C-4.30602383 3.96293646 -6.15302213 3.98087135 -8 4 C-8 3.34 -8 2.68 -8 2 C-5.69 2 -3.38 2 -1 2 C-0.67 1.34 -0.34 0.68 0 0 Z " fill="#89D9E3" transform="translate(106,45)"/>
<path d="M0 0 C1.79244141 0.01740234 1.79244141 0.01740234 3.62109375 0.03515625 C5.41740234 0.04869141 5.41740234 0.04869141 7.25 0.0625 C8.17683594 0.07410156 9.10367188 0.08570312 10.05859375 0.09765625 C10.05859375 1.08765625 10.05859375 2.07765625 10.05859375 3.09765625 C9.39859375 3.09765625 8.73859375 3.09765625 8.05859375 3.09765625 C7.39859375 3.75765625 6.73859375 4.41765625 6.05859375 5.09765625 C6.05859375 4.43765625 6.05859375 3.77765625 6.05859375 3.09765625 C5.39859375 3.09765625 4.73859375 3.09765625 4.05859375 3.09765625 C3.93484375 3.67515625 3.81109375 4.25265625 3.68359375 4.84765625 C3.05210551 7.12101392 2.17001184 9.02300915 1.05859375 11.09765625 C-0.59140625 11.09765625 -2.24140625 11.09765625 -3.94140625 11.09765625 C-3.96828776 9.45191059 -3.98774748 7.80604212 -4.00390625 6.16015625 C-4.01550781 5.24363281 -4.02710938 4.32710938 -4.0390625 3.3828125 C-3.89090453 -0.08408389 -3.52446843 0.11701422 0 0 Z " fill="#40A3E6" transform="translate(36.94140625,85.90234375)"/>
<path d="M0 0 C3.3 0 6.6 0 10 0 C10.87890625 6.15234375 10.87890625 6.15234375 11 8 C10 9 10 9 7.71484375 9.09765625 C6.34005859 9.08025391 6.34005859 9.08025391 4.9375 9.0625 C4.01839844 9.05347656 3.09929687 9.04445313 2.15234375 9.03515625 C1.44207031 9.02355469 0.73179688 9.01195312 0 9 C0 6.03 0 3.06 0 0 Z " fill="#3AC5D7" transform="translate(105,54)"/>
<path d="M0 0 C1.08667969 0.02707031 2.17335938 0.05414063 3.29296875 0.08203125 C4.54013672 0.13423828 4.54013672 0.13423828 5.8125 0.1875 C5.8125 1.8375 5.8125 3.4875 5.8125 5.1875 C2.1825 5.1875 -1.4475 5.1875 -5.1875 5.1875 C-5.1875 6.8375 -5.1875 8.4875 -5.1875 10.1875 C-6.5075 10.1875 -7.8275 10.1875 -9.1875 10.1875 C-9.55218886 3.74466353 -9.55218886 3.74466353 -8.0625 1.46875 C-5.3504604 -0.38447706 -3.24426436 -0.10465369 0 0 Z " fill="#3C3D89" transform="translate(35.1875,48.8125)"/>
<path d="M0 0 C0.99 0 1.98 0 3 0 C3.33 0.66 3.66 1.32 4 2 C6.12576782 2.46651207 6.12576782 2.46651207 8.5625 2.625 C9.38878906 2.69976562 10.21507813 2.77453125 11.06640625 2.8515625 C11.70449219 2.90054688 12.34257813 2.94953125 13 3 C12.67 4.32 12.34 5.64 12 7 C10.68 7.33 9.36 7.66 8 8 C8 8.99 8 9.98 8 11 C5.66666667 11 3.33333333 11 1 11 C0.67 11.66 0.34 12.32 0 13 C0 8.71 0 4.42 0 0 Z " fill="#6A6EFE" transform="translate(102,111)"/>
<path d="M0 0 C1.32 0 2.64 0 4 0 C4 6.6 4 13.2 4 20 C2.68 19.67 1.36 19.34 0 19 C0 12.73 0 6.46 0 0 Z " fill="#3E3E8B" transform="translate(115,63)"/>
<path d="M0 0 C6.35051546 -0.36637589 6.35051546 -0.36637589 9.4375 1.375 C11 3 11 3 11 5 C10.030625 5.433125 9.06125 5.86625 8.0625 6.3125 C4.72268235 7.7014861 4.72268235 7.7014861 4 11 C2.68 11 1.36 11 0 11 C0 7.37 0 3.74 0 0 Z " fill="#5A39FF" transform="translate(102,86)"/>
<path d="M0 0 C8.58 0 17.16 0 26 0 C25.67 0.99 25.34 1.98 25 3 C17.08 3 9.16 3 1 3 C0.67 2.01 0.34 1.02 0 0 Z " fill="#4C4CA0" transform="translate(101,124)"/>
<path d="M0 0 C1.67542976 0.28604898 3.34385343 0.61781233 5 1 C5.875 3.5625 5.875 3.5625 6 7 C4.32305393 9.65870248 2.31872993 11.88180887 0 14 C-0.33 14 -0.66 14 -1 14 C-1.02685938 11.85423363 -1.04633088 9.70837355 -1.0625 7.5625 C-1.07410156 6.36753906 -1.08570312 5.17257813 -1.09765625 3.94140625 C-1 1 -1 1 0 0 Z " fill="#32C6DF" transform="translate(106,33)"/>
<path d="M0 0 C1.65 0 3.3 0 5 0 C5.02685412 2.31243792 5.04632841 4.6249627 5.0625 6.9375 C5.07410156 8.22527344 5.08570313 9.51304688 5.09765625 10.83984375 C5 14 5 14 4 15 C2.14712498 15.07226502 0.29166122 15.0838122 -1.5625 15.0625 C-2.57441406 15.05347656 -3.58632813 15.04445313 -4.62890625 15.03515625 C-5.41136719 15.02355469 -6.19382812 15.01195312 -7 15 C-7.33 14.01 -7.66 13.02 -8 12 C-4.37 12 -0.74 12 3 12 C3 8.7 3 5.4 3 2 C2.01 1.67 1.02 1.34 0 1 C0 0.67 0 0.34 0 0 Z " fill="#34D7CD" transform="translate(29,32)"/>
<path d="M0 0 C2.3125 1.5625 2.3125 1.5625 4 4 C4.42519574 7.46230815 4.63902633 9.8347167 2.9375 12.9375 C-0.20334326 14.65989792 -2.49818786 14.49148241 -6 14 C-8.5 11.875 -8.5 11.875 -10 9 C-10 5.43909099 -9.69349238 3.74302755 -7.25 1.125 C-4.50272993 -0.24863504 -3.03212094 -0.53062116 0 0 Z M-6.8125 3.1875 C-8.45691281 5.69739323 -8.5875348 7.06232599 -8 10 C-5.89299553 12.09762034 -5.89299553 12.09762034 -3 13 C-0.56971928 12.33719617 1.2010972 11.7989028 3 10 C3.29573841 7.19048514 3.38243085 5.58371024 1.8125 3.1875 C-1.21685772 1.20274839 -3.78314228 1.20274839 -6.8125 3.1875 Z " fill="#C9EEF5" transform="translate(117,98)"/>
<path d="M0 0 C2.64 0 5.28 0 8 0 C8 2.64 8 5.28 8 8 C7.01 8 6.02 8 5 8 C5 8.66 5 9.32 5 10 C4.34 10 3.68 10 3 10 C2.87625 9.360625 2.7525 8.72125 2.625 8.0625 C2.315625 7.0415625 2.315625 7.0415625 2 6 C1.34 5.67 0.68 5.34 0 5 C0 3.35 0 1.7 0 0 Z " fill="#3DBADA" transform="translate(26,59)"/>
<path d="M0 0 C1.24716797 0.00322266 2.49433594 0.00644531 3.77929688 0.00976562 C5.07287109 0.01814453 6.36644531 0.02652344 7.69921875 0.03515625 C9.66858398 0.04192383 9.66858398 0.04192383 11.67773438 0.04882812 C14.91410885 0.06059676 18.15039053 0.07703865 21.38671875 0.09765625 C21.05671875 0.75765625 20.72671875 1.41765625 20.38671875 2.09765625 C19.73074707 2.11747559 19.07477539 2.13729492 18.39892578 2.15771484 C15.43610806 2.25278132 12.47401343 2.36253377 9.51171875 2.47265625 C7.96291016 2.5190625 7.96291016 2.5190625 6.3828125 2.56640625 C4.90361328 2.62441406 4.90361328 2.62441406 3.39453125 2.68359375 C2.4833252 2.71501465 1.57211914 2.74643555 0.63330078 2.77880859 C-1.81259311 2.89648136 -1.81259311 2.89648136 -3.61328125 5.09765625 C-6.34197532 5.06478042 -8.90994305 4.53367854 -11.61328125 4.09765625 C-11.61328125 3.10765625 -11.61328125 2.11765625 -11.61328125 1.09765625 C-7.68039761 0.16677716 -4.03673962 -0.0184326 0 0 Z " fill="#D9D9E8" transform="translate(106.61328125,125.90234375)"/>
<path d="M0 0 C1.93166016 0.01740234 1.93166016 0.01740234 3.90234375 0.03515625 C5.19269531 0.04417969 6.48304687 0.05320312 7.8125 0.0625 C8.81152344 0.07410156 9.81054688 0.08570312 10.83984375 0.09765625 C8.83984375 2.09765625 8.83984375 2.09765625 4.96484375 2.66015625 C2.02950418 3.29525699 1.11419124 3.68461929 -0.57421875 6.2265625 C-1.56043387 8.49343825 -2.42246022 10.73897025 -3.16015625 13.09765625 C-3.49015625 13.09765625 -3.82015625 13.09765625 -4.16015625 13.09765625 C-4.18702178 11.11856227 -4.20649 9.13936654 -4.22265625 7.16015625 C-4.23425781 6.05800781 -4.24585937 4.95585938 -4.2578125 3.8203125 C-4.11749553 -0.09172464 -3.97435676 0.12281696 0 0 Z " fill="#44BEF1" transform="translate(109.16015625,95.90234375)"/>
<path d="M0 0 C0.66 0.33 1.32 0.66 2 1 C2.59355614 3.64860427 2.74209269 6.29197322 3 9 C2.01 9 1.02 9 0 9 C0 9.99 0 10.98 0 12 C-6.15234375 11.4140625 -6.15234375 11.4140625 -8 11 C-8.33 10.34 -8.66 9.68 -9 9 C-8.34 8.01 -7.68 7.02 -7 6 C-6.34 6.66 -5.68 7.32 -5 8 C-2.89179203 7.6814823 -2.89179203 7.6814823 -1 7 C-1.33 5.02 -1.66 3.04 -2 1 C-1.34 0.67 -0.68 0.34 0 0 Z " fill="#F1FAFC" transform="translate(27,64)"/>
<path d="M0 0 C1.32 0 2.64 0 4 0 C4 1.98 4 3.96 4 6 C-0.62 6 -5.24 6 -10 6 C-7.53264116 3.53264116 -5.27828479 3.0927616 -2 2 C-1.34 1.34 -0.68 0.68 0 0 Z " fill="#35DBC6" transform="translate(30,74)"/>
<path d="M0 0 C2.875 -0.125 2.875 -0.125 6 0 C6.66 0.66 7.32 1.32 8 2 C8.33 1.34 8.66 0.68 9 0 C9.66 0 10.32 0 11 0 C10.67 1.65 10.34 3.3 10 5 C6.7 5 3.4 5 0 5 C0 3.35 0 1.7 0 0 Z " fill="#35ADC6" transform="translate(33,97)"/>
<path d="M0 0 C1.98 0 3.96 0 6 0 C6.33 1.32 6.66 2.64 7 4 C5.35 5.32 3.7 6.64 2 8 C0.68 7.34 -0.64 6.68 -2 6 C-1.34 4.02 -0.68 2.04 0 0 Z " fill="#3FC3D9" transform="translate(53,86)"/>
<path d="M0 0 C2.64 0 5.28 0 8 0 C8 1.65 8 3.3 8 5 C7.38125 5.268125 6.7625 5.53625 6.125 5.8125 C3.7004767 6.95556848 3.7004767 6.95556848 2 10 C1.01 9.67 0.02 9.34 -1 9 C-0.34 9 0.32 9 1 9 C1.07427838 5.65747276 1.06546953 3.1964086 0 0 Z " fill="#72D5E4" transform="translate(110,33)"/>
<path d="M0 0 C3.3 0 6.6 0 10 0 C9 2 9 2 6.5 2.875 C5.675 3.24625 4.85 3.6175 4 4 C3.34786708 6.02463255 3.34786708 6.02463255 3 8 C2.01 8.33 1.02 8.66 0 9 C0 6.03 0 3.06 0 0 Z " fill="#3DBBDD" transform="translate(105,54)"/>
<path d="M0 0 C0.99 0 1.98 0 3 0 C3.19477739 1.62414378 3.38059458 3.24936423 3.5625 4.875 C3.66691406 5.77992187 3.77132812 6.68484375 3.87890625 7.6171875 C4 10 4 10 3 12 C2.01 12 1.02 12 0 12 C0 8.04 0 4.08 0 0 Z " fill="#707EFE" transform="translate(123,100)"/>
<path d="M0 0 C2.64 0 5.28 0 8 0 C8.33 1.98 8.66 3.96 9 6 C8.01 6 7.02 6 6 6 C6 5.34 6 4.68 6 4 C4.68 4 3.36 4 2 4 C2 5.32 2 6.64 2 8 C1.01 7.67 0.02 7.34 -1 7 C-0.649375 6.401875 -0.29875 5.80375 0.0625 5.1875 C1.33304698 2.89186786 1.33304698 2.89186786 0 0 Z " fill="#3FD0DA" transform="translate(18,59)"/>
<path d="M0 0 C0.33 0 0.66 0 1 0 C1.02689216 1.47906892 1.04634621 2.95827483 1.0625 4.4375 C1.07410156 5.26121094 1.08570313 6.08492188 1.09765625 6.93359375 C1 9 1 9 0 10 C-2.33297433 10.04092937 -4.66705225 10.04241723 -7 10 C-7 9.01 -7 8.02 -7 7 C-5.02 6.34 -3.04 5.68 -1 5 C-1 3.68 -1 2.36 -1 1 C-0.67 0.67 -0.34 0.34 0 0 Z " fill="#36DDC3" transform="translate(59,95)"/>
<path d="M0 0 C2.25 0.25 2.25 0.25 4 1 C2.52307692 5.67692308 2.52307692 5.67692308 -0.125 7.3125 C-1.053125 7.6528125 -1.053125 7.6528125 -2 8 C-2.66 6.68 -3.32 5.36 -4 4 C-2.25 1.9375 -2.25 1.9375 0 0 Z " fill="#6FDBEA" transform="translate(114,100)"/>
<path d="M0 0 C0 3 0 3 -1.25 4.6875 C-3 6 -3 6 -7 6 C-7 6.66 -7 7.32 -7 8 C-8.65 7.67 -10.3 7.34 -12 7 C-10.67368911 4.34737821 -9.14656892 3.78900251 -6.5625 2.375 C-5.75941406 1.92898437 -4.95632812 1.48296875 -4.12890625 1.0234375 C-2 0 -2 0 0 0 Z " fill="#6458FF" transform="translate(127,86)"/>
<path d="M0 0 C0 3.63 0 7.26 0 11 C-0.66 11 -1.32 11 -2 11 C-2.433125 9.6078125 -2.433125 9.6078125 -2.875 8.1875 C-3.8875 4.90208333 -3.8875 4.90208333 -6 2 C-3 0 -3 0 0 0 Z " fill="#46D2E0" transform="translate(123,96)"/>
<path d="M0 0 C2.31 0 4.62 0 7 0 C7 1.65 7 3.3 7 5 C4.69 5 2.38 5 0 5 C0 3.35 0 1.7 0 0 Z " fill="#3C3E8A" transform="translate(98,49)"/>
<path d="M0 0 C6.43255401 -0.12086218 12.61773055 0.17648136 19 1 C19 1.33 19 1.66 19 2 C13.39 2 7.78 2 2 2 C2 2.66 2 3.32 2 4 C1.01 4 0.02 4 -1 4 C-0.67 2.68 -0.34 1.36 0 0 Z " fill="#32C5DF" transform="translate(42,45)"/>
<path d="M0 0 C0.33 1.32 0.66 2.64 1 4 C-7.42857143 7.42857143 -7.42857143 7.42857143 -12 7 C-12.33 6.01 -12.66 5.02 -13 4 C-9.7 4 -6.4 4 -3 4 C-2.67 3.34 -2.34 2.68 -2 2 C-1.34 2.33 -0.68 2.66 0 3 C0 2.01 0 1.02 0 0 Z " fill="#53D1DA" transform="translate(46,98)"/>
<path d="M0 0 C2.97550031 3.0684847 3.96474513 4.46236331 4.25 8.8125 C4.1675 9.864375 4.085 10.91625 4 12 C2.68 11.67 1.36 11.34 0 11 C0 7.37 0 3.74 0 0 Z " fill="#36C2C7" transform="translate(115,51)"/>
<path d="M0 0 C2.97 1.98 2.97 1.98 6 4 C5.01 5.485 5.01 5.485 4 7 C3.34 7 2.68 7 2 7 C2 7.66 2 8.32 2 9 C1.34 9 0.68 9 0 9 C-1.125 3.375 -1.125 3.375 0 0 Z " fill="#A4E4EB" transform="translate(50,91)"/>
<path d="M0 0 C0.66 0 1.32 0 2 0 C2.04254356 1.99954746 2.04080783 4.00041636 2 6 C1 7 1 7 -2.5625 7.0625 C-3.696875 7.041875 -4.83125 7.02125 -6 7 C-5.04882866 5.8274869 -4.08882991 4.66212985 -3.125 3.5 C-2.59132813 2.8503125 -2.05765625 2.200625 -1.5078125 1.53125 C-0.76144531 0.77328125 -0.76144531 0.77328125 0 0 Z " fill="#36DCC8" transform="translate(121,107)"/>
<path d="M0 0 C1.67542976 0.28604898 3.34385343 0.61781233 5 1 C4.67 2.32 4.34 3.64 4 5 C2.68 5.33 1.36 5.66 0 6 C-0.38218767 4.34385343 -0.71395102 2.67542976 -1 1 C-0.67 0.67 -0.34 0.34 0 0 Z " fill="#48CFDB" transform="translate(22,67)"/>
<path d="M0 0 C3.3 0 6.6 0 10 0 C9.67 1.32 9.34 2.64 9 4 C6.03 4 3.06 4 0 4 C0 2.68 0 1.36 0 0 Z " fill="#87A2FE" transform="translate(102,67)"/>
<path d="M0 0 C0.66 0 1.32 0 2 0 C2 1.65 2 3.3 2 5 C2.99 5.33 3.98 5.66 5 6 C4.01 6.99 3.02 7.98 2 9 C-1.875 7.25 -1.875 7.25 -3 5 C-2.01 5 -1.02 5 0 5 C0 3.35 0 1.7 0 0 Z " fill="#F0FAFB" transform="translate(119,48)"/>
<path d="M0 0 C3.63 0 7.26 0 11 0 C11.33 1.32 11.66 2.64 12 4 C11.01 4 10.02 4 9 4 C9 3.34 9 2.68 9 2 C5.7 2 2.4 2 -1 2 C-0.67 1.34 -0.34 0.68 0 0 Z " fill="#56D9D4" transform="translate(86,45)"/>
<path d="M0 0 C0.66 0 1.32 0 2 0 C1.53199289 4.05606165 1.12046792 7.46588679 -1 11 C-1.66 11 -2.32 11 -3 11 C-2.69217504 9.35328588 -2.37860766 7.70764424 -2.0625 6.0625 C-1.88847656 5.14597656 -1.71445312 4.22945313 -1.53515625 3.28515625 C-1 1 -1 1 0 0 Z " fill="#E0F5F8" transform="translate(47,90)"/>
<path d="M0 0 C0.33 0.99 0.66 1.98 1 3 C0.01 4.485 0.01 4.485 -1 6 C-1 5.01 -1 4.02 -1 3 C-2.32 3 -3.64 3 -5 3 C-5 3.99 -5 4.98 -5 6 C-5.66 5.67 -6.32 5.34 -7 5 C-5.22678182 1.07358831 -4.52021524 0 0 0 Z " fill="#C2DAFF" transform="translate(76,107)"/>
<path d="M0 0 C0.99 0 1.98 0 3 0 C3 2.97 3 5.94 3 9 C2.67 7.68 2.34 6.36 2 5 C1.01 5 0.02 5 -1 5 C-0.67 3.35 -0.34 1.7 0 0 Z " fill="#6B6FFE" transform="translate(124,95)"/>
<path d="M0 0 C2 3 2 3 2 6 C2.66 6.33 3.32 6.66 4 7 C2.35 7.33 0.7 7.66 -1 8 C-0.67 5.36 -0.34 2.72 0 0 Z " fill="#34C4C8" transform="translate(48,94)"/>
<path d="M0 0 C0.66 0.33 1.32 0.66 2 1 C1.01 1.99 0.02 2.98 -1 4 C-0.34 5.98 0.32 7.96 1 10 C-0.32 9.34 -1.64 8.68 -3 8 C-3.36923077 3.44615385 -3.36923077 3.44615385 -1.5 1.1875 C-1.005 0.795625 -0.51 0.40375 0 0 Z " fill="#41CDE5" transform="translate(112,100)"/>
<path d="M0 0 C1.32 0 2.64 0 4 0 C4 0.66 4 1.32 4 2 C4.66 2.33 5.32 2.66 6 3 C2.37 3 -1.26 3 -5 3 C-3.68 2.34 -2.36 1.68 -1 1 C-0.67 0.67 -0.34 0.34 0 0 Z " fill="#45D8CF" transform="translate(44,102)"/>
<path d="M0 0 C-0.185625 0.5775 -0.37125 1.155 -0.5625 1.75 C-1.04023546 4.20692525 -0.75729364 5.64397534 0 8 C-1.65 6.35 -3.3 4.7 -5 3 C-2.25 0 -2.25 0 0 0 Z " fill="#E5F4F9" transform="translate(42,92)"/>
<path d="M0 0 C2.97 0 5.94 0 9 0 C5.55549263 2.29633824 3.06187717 2.54016485 -1 3 C-0.67 2.01 -0.34 1.02 0 0 Z " fill="#4B93ED" transform="translate(34,86)"/>
<path d="M0 0 C0.625 1.8125 0.625 1.8125 1 4 C0.01 5.485 0.01 5.485 -1 7 C-1 6.34 -1 5.68 -1 5 C-1.99 4.67 -2.98 4.34 -4 4 C-2 1 -2 1 0 0 Z " fill="#4ED2DD" transform="translate(18,70)"/>
<path d="M0 0 C0.99 0 1.98 0 3 0 C3 1.65 3 3.3 3 5 C1.68 5 0.36 5 -1 5 C-1.33 4.01 -1.66 3.02 -2 2 C-1.34 2 -0.68 2 0 2 C0 1.34 0 0.68 0 0 Z " fill="#44CFD5" transform="translate(31,67)"/>
<path d="M0 0 C1.32 0 2.64 0 4 0 C3.67 1.65 3.34 3.3 3 5 C2.01 5 1.02 5 0 5 C0 3.35 0 1.7 0 0 Z " fill="#34AEC5" transform="translate(26,59)"/>
<path d="M0 0 C2.31 0 4.62 0 7 0 C6.0409375 0.433125 6.0409375 0.433125 5.0625 0.875 C2.84793921 1.82823451 2.84793921 1.82823451 2 4 C1.01 4 0.02 4 -1 4 C-0.67 2.68 -0.34 1.36 0 0 Z " fill="#46ADF5" transform="translate(106,96)"/>
</svg>
