<?xml version="1.0" encoding="UTF-8"?>
<svg version="1.1" xmlns="http://www.w3.org/2000/svg" width="150" height="150">
<path d="M0 0 C0.495 2.97 0.495 2.97 1 6 C4.7016431 6.94693195 6.39112465 7.30443767 9.875 5.5625 C10.926875 4.7890625 10.926875 4.7890625 12 4 C13.65 5.98 15.3 7.96 17 10 C16.34 11.32 15.68 12.64 15 14 C16.60681641 14.09087891 16.60681641 14.09087891 18.24609375 14.18359375 C19.64324391 14.26798537 21.04037857 14.35263406 22.4375 14.4375 C23.14455078 14.47681641 23.85160156 14.51613281 24.58007812 14.55664062 C29.88671875 14.88671875 29.88671875 14.88671875 31 16 C31.08748207 17.92667507 31.10697334 19.85651861 31.09765625 21.78515625 C31.09443359 22.95498047 31.09121094 24.12480469 31.08789062 25.33007812 C31.07951172 26.56177734 31.07113281 27.79347656 31.0625 29.0625 C31.05798828 30.29806641 31.05347656 31.53363281 31.04882812 32.80664062 C31.03699608 35.87114117 31.02051173 38.93554721 31 42 C31.78375 41.79375 32.5675 41.5875 33.375 41.375 C34.24125 41.25125 35.1075 41.1275 36 41 C38 43 38 43 38 46 C37.34 46 36.68 46 36 46 C36.33 47.65 36.66 49.3 37 51 C37.66 51 38.32 51 39 51 C38.67 52.65 38.34 54.3 38 56 C35.525 56.495 35.525 56.495 33 57 C32.67 58.32 32.34 59.64 32 61 C29.6875 61.1875 29.6875 61.1875 27 61 C26 60 25 59 24 58 C21.83700789 58.22757731 21.83700789 58.22757731 20 59 C17.875 54.375 17.875 54.375 19 51 C18.34 50.01 17.68 49.02 17 48 C17 47.01 17 46.02 17 45 C16.34 45 15.68 45 15 45 C15 51.6 15 58.2 15 65 C17.31 65 19.62 65 22 65 C23 66 23 66 23.11352539 69.96899414 C23.1133662 71.74105607 23.10766785 73.5131226 23.09765625 75.28515625 C23.0962413 76.21597519 23.09482635 77.14679413 23.09336853 78.1058197 C23.08775172 81.09141191 23.0751964 84.07693029 23.0625 87.0625 C23.05748716 89.08137913 23.05292388 91.10025943 23.04882812 93.11914062 C23.03777683 98.07945572 23.02050095 103.03971532 23 108 C25.31 108.66 27.62 109.32 30 110 C29 112 29 112 27.34521484 112.61450195 C22.49200924 113.41225457 17.54404055 113.18590312 12.63769531 113.18530273 C10.63863013 113.18748512 8.63960468 113.20599143 6.640625 113.22460938 C5.36960937 113.22654297 4.09859375 113.22847656 2.7890625 113.23046875 C1.63100098 113.23457764 0.47293945 113.23868652 -0.72021484 113.24291992 C-4.11310954 112.99162245 -6.83332989 112.21173908 -10 111 C-9.67 110.34 -9.34 109.68 -9 109 C-6.4375 108.375 -6.4375 108.375 -4 108 C-4.67857056 107.99191315 -5.35714111 107.98382629 -6.05627441 107.97549438 C-13.19572947 107.88863335 -20.33493245 107.7891071 -27.47412109 107.68261719 C-30.12938188 107.64363425 -32.7845665 107.60971702 -35.43994141 107.578125 C-73.93926359 107.11445232 -73.93926359 107.11445232 -81 103 C-80.67 102.34 -80.34 101.68 -80 101 C-79.01 101 -78.02 101 -77 101 C-77 100.01 -77 99.02 -77 98 C-78.6396875 98.495 -78.6396875 98.495 -80.3125 99 C-84 100 -84 100 -87 100 C-89.25 98.4375 -89.25 98.4375 -91 96 C-90.75 92.25 -90.75 92.25 -90 89 C-91.65 88.67 -93.3 88.34 -95 88 C-95 85.69 -95 83.38 -95 81 C-94.030625 80.71125 -93.06125 80.4225 -92.0625 80.125 C-88.89335797 79.35785318 -88.89335797 79.35785318 -88 77 C-88.39938767 74.90178785 -88.39938767 74.90178785 -89 73 C-86.69 72.01 -84.38 71.02 -82 70 C-81.67 71.32 -81.34 72.64 -81 74 C-80.01 74 -79.02 74 -78 74 C-78 71.03 -78 68.06 -78 65 C-84.27 65 -90.54 65 -97 65 C-97 64.34 -97 63.68 -97 63 C-94.03 62.505 -94.03 62.505 -91 62 C-91 61.01 -91 60.02 -91 59 C-92.98 59 -94.96 59 -97 59 C-97 58.34 -97 57.68 -97 57 C-95.02 57 -93.04 57 -91 57 C-91 55.68 -91 54.36 -91 53 C-92.98 53 -94.96 53 -97 53 C-97 52.34 -97 51.68 -97 51 C-95.02 51 -93.04 51 -91 51 C-91 49.68 -91 48.36 -91 47 C-92.98 47 -94.96 47 -97 47 C-97 46.34 -97 45.68 -97 45 C-95.02 45 -93.04 45 -91 45 C-91 44.01 -91 43.02 -91 42 C-92.98 41.67 -94.96 41.34 -97 41 C-97 40.67 -97 40.34 -97 40 C-90.73 40 -84.46 40 -78 40 C-78 38.35 -78 36.7 -78 35 C-84.27 35 -90.54 35 -97 35 C-97 34.67 -97 34.34 -97 34 C-94.525 33.505 -94.525 33.505 -92 33 C-91.67 31.68 -91.34 30.36 -91 29 C-92.98 29 -94.96 29 -97 29 C-97 28.67 -97 28.34 -97 28 C-95.35 27.67 -93.7 27.34 -92 27 C-91.67 25.68 -91.34 24.36 -91 23 C-92.98 23 -94.96 23 -97 23 C-97 22.67 -97 22.34 -97 22 C-95.35 21.67 -93.7 21.34 -92 21 C-91.67 19.68 -91.34 18.36 -91 17 C-92.98 17 -94.96 17 -97 17 C-97 16.67 -97 16.34 -97 16 C-91.11060037 13.95887931 -85.8280285 13.72721958 -79.625 13.8125 C-78.25408203 13.8134668 -78.25408203 13.8134668 -76.85546875 13.81445312 C-70.14064837 13.85935163 -70.14064837 13.85935163 -69 15 C-66.19023482 15.16017166 -63.40226404 15.25950534 -60.58984375 15.31640625 C-59.74780899 15.33718735 -58.90577423 15.35796844 -58.03822327 15.37937927 C-55.33806821 15.44496812 -52.63781283 15.50380276 -49.9375 15.5625 C-48.11131759 15.60567637 -46.28514546 15.64929036 -44.45898438 15.69335938 C-39.97276008 15.80065894 -35.4864345 15.90189966 -31 16 C-31 16.33 -31 16.66 -31 17 C-43.87 17 -56.74 17 -70 17 C-69.67 18.32 -69.34 19.64 -69 21 C-56.46 21.33 -43.92 21.66 -31 22 C-31 22.33 -31 22.66 -31 23 C-43.87 23 -56.74 23 -70 23 C-69.67 24.32 -69.34 25.64 -69 27 C-51.51 27 -34.02 27 -16 27 C-16.495 23.535 -16.495 23.535 -17 20 C-18.65 19.34 -20.3 18.68 -22 18 C-21.01 15.36 -20.02 12.72 -19 10 C-17.329375 10.061875 -17.329375 10.061875 -15.625 10.125 C-11.95633975 10.41121859 -11.95633975 10.41121859 -10 8 C-9.59952556 5.67724823 -9.2602896 3.34260643 -9 1 C-5.94152152 0.45627049 -3.11227195 0 0 0 Z M-8 14 C-10.2084626 17.31269391 -10.80664241 19.14978851 -10.5546875 23.0625 C-9.4812192 26.81207941 -7.28696911 28.01541488 -4 30 C-1.36163023 30.1672392 -1.36163023 30.1672392 1 30 C1.03738281 29.01257813 1.07476562 28.02515625 1.11328125 27.0078125 C1.17902344 25.72648437 1.24476562 24.44515625 1.3125 23.125 C1.37050781 21.84882812 1.42851563 20.57265625 1.48828125 19.2578125 C1.65714844 18.18273437 1.82601562 17.10765625 2 16 C2.99 15.34 3.98 14.68 5 14 C3.01607489 11.60148679 3.01607489 11.60148679 -0.8125 11.5625 C-4.17733329 11.66669338 -5.04370031 12.02913354 -8 14 Z M-70 29 C-70 29.66 -70 30.32 -70 31 C-67.69 31 -65.38 31 -63 31 C-63 30.34 -63 29.68 -63 29 C-65.31 29 -67.62 29 -70 29 Z M23 47 C22.6366844 49.83386167 22.6431329 51.40522151 24.125 53.875 C26.92151052 55.55290631 28.93690532 54.74875648 32 54 C32.67673447 50.59679066 32.67673447 50.59679066 33 47 C31.11499729 44.68436913 31.11499729 44.68436913 28 44.75 C24.88500271 44.68436913 24.88500271 44.68436913 23 47 Z M-84.25 80.625 C-86.21985834 82.92308586 -86.21985834 82.92308586 -86.5 86 C-86.21376982 89.06575838 -86.21376982 89.06575838 -84.3125 91.375 C-81.61209763 93.27258004 -80.22939919 93.35882213 -77 93 C-76.85024761 85.94348748 -76.85024761 85.94348748 -78 79 C-81.92212225 78.60967296 -81.92212225 78.60967296 -84.25 80.625 Z M-70 95 C-69.67 96.65 -69.34 98.3 -69 100 C-56.625 99.01 -56.625 99.01 -44 98 C-43.67 97.01 -43.34 96.02 -43 95 C-51.91 95 -60.82 95 -70 95 Z M-19 95 C-19 95.99 -19 96.98 -19 98 C-13.72 98.33 -8.44 98.66 -3 99 C-3 97.68 -3 96.36 -3 95 C-8.28 95 -13.56 95 -19 95 Z " fill="#5E52FD" transform="translate(104,18)"/>
<path d="M0 0 C2.31 0 4.62 0 7 0 C7 2.97 7 5.94 7 9 C11.62 9 16.24 9 21 9 C21 15.6 21 22.2 21 29 C23.31 29 25.62 29 28 29 C29 30 29 30 29.11352539 33.96899414 C29.1133662 35.74105607 29.10766785 37.5131226 29.09765625 39.28515625 C29.0962413 40.21597519 29.09482635 41.14679413 29.09336853 42.1058197 C29.08775172 45.09141191 29.0751964 48.07693029 29.0625 51.0625 C29.05748716 53.08137913 29.05292388 55.10025943 29.04882812 57.11914062 C29.03777683 62.07945572 29.02050095 67.03971532 29 72 C31.31 72.66 33.62 73.32 36 74 C35 76 35 76 33.34521484 76.61450195 C28.49200924 77.41225457 23.54404055 77.18590312 18.63769531 77.18530273 C16.63863013 77.18748512 14.63960468 77.20599143 12.640625 77.22460938 C11.36960937 77.22654297 10.09859375 77.22847656 8.7890625 77.23046875 C7.63100098 77.23457764 6.47293945 77.23868652 5.27978516 77.24291992 C1.88689046 76.99162245 -0.83332989 76.21173908 -4 75 C-3.67 74.34 -3.34 73.68 -3 73 C-0.4375 72.375 -0.4375 72.375 2 72 C1.32142944 71.99191315 0.64285889 71.98382629 -0.05627441 71.97549438 C-7.19572947 71.88863335 -14.33493245 71.7891071 -21.47412109 71.68261719 C-24.12938188 71.64363425 -26.7845665 71.60971702 -29.43994141 71.578125 C-67.93926359 71.11445232 -67.93926359 71.11445232 -75 67 C-74.505 66.01 -74.505 66.01 -74 65 C-73.01 65 -72.02 65 -71 65 C-71 64.01 -71 63.02 -71 62 C-72.6396875 62.495 -72.6396875 62.495 -74.3125 63 C-78 64 -78 64 -81 64 C-83.25 62.4375 -83.25 62.4375 -85 60 C-84.75 56.25 -84.75 56.25 -84 53 C-85.65 52.67 -87.3 52.34 -89 52 C-89 49.69 -89 47.38 -89 45 C-88.030625 44.71125 -87.06125 44.4225 -86.0625 44.125 C-82.89335797 43.35785318 -82.89335797 43.35785318 -82 41 C-82.39938767 38.90178785 -82.39938767 38.90178785 -83 37 C-80.69 36.01 -78.38 35.02 -76 34 C-75.67 35.32 -75.34 36.64 -75 38 C-74.01 38 -73.02 38 -72 38 C-72 39.65 -72 41.3 -72 43 C-72.969375 43.28875 -73.93875 43.5775 -74.9375 43.875 C-78.10664203 44.64214682 -78.10664203 44.64214682 -79 47 C-79.40270732 51.1283652 -79.40270732 51.1283652 -77.8125 54.8125 C-75.57968261 56.27538036 -73.62655933 56.64505955 -71 57 C-71 54.03 -71 51.06 -71 48 C-69.02 48 -67.04 48 -65 48 C-64.67 48.66 -64.34 49.32 -64 50 C-55.75 50 -47.5 50 -39 50 C-38.505 49.01 -38.505 49.01 -38 48 C-24.47 48 -10.94 48 3 48 C3 46.35 3 44.7 3 43 C-5.58 43 -14.16 43 -23 43 C-24 40 -24 40 -24 37 C-23.175 36.525625 -22.35 36.05125 -21.5 35.5625 C-20.2625 34.7890625 -20.2625 34.7890625 -19 34 C-19 32.68 -19 31.36 -19 30 C-13.93327015 27.46663508 -9.69145708 26.56954864 -4.0390625 26.2109375 C-2.00713712 26.21733466 -2.00713712 26.21733466 -1 25 C-0.84213692 23.14825294 -0.74892644 21.2909089 -0.68359375 19.43359375 C-0.64169922 18.30888672 -0.59980469 17.18417969 -0.55664062 16.02539062 C-0.51732422 14.84138672 -0.47800781 13.65738281 -0.4375 12.4375 C-0.37272461 10.65569336 -0.37272461 10.65569336 -0.30664062 8.83789062 C-0.20016454 5.89205216 -0.09815159 2.9461257 0 0 Z M-64 59 C-63.67 60.65 -63.34 62.3 -63 64 C-50.625 63.01 -50.625 63.01 -38 62 C-37.67 61.01 -37.34 60.02 -37 59 C-45.91 59 -54.82 59 -64 59 Z M-13 59 C-13 59.99 -13 60.98 -13 62 C-7.72 62.33 -2.44 62.66 3 63 C3 61.68 3 60.36 3 59 C-2.28 59 -7.56 59 -13 59 Z " fill="#7184FD" transform="translate(98,54)"/>
<path d="M0 0 C0.66 0.33 1.32 0.66 2 1 C2 1.99 2 2.98 2 4 C2.99 4 3.98 4 5 4 C5 5.65 5 7.3 5 9 C4.030625 9.28875 3.06125 9.5775 2.0625 9.875 C-1.10664203 10.64214682 -1.10664203 10.64214682 -2 13 C-2.40270732 17.1283652 -2.40270732 17.1283652 -0.8125 20.8125 C1.42031739 22.27538036 3.37344067 22.64505955 6 23 C6 20.03 6 17.06 6 14 C7.98 14 9.96 14 12 14 C12.33 14.66 12.66 15.32 13 16 C21.25 16 29.5 16 38 16 C38.33 15.34 38.66 14.68 39 14 C52.53 14 66.06 14 80 14 C80 17.63 80 21.26 80 25 C74.72 25 69.44 25 64 25 C64 25.99 64 26.98 64 28 C64.56847656 27.98839844 65.13695313 27.97679688 65.72265625 27.96484375 C70.60670484 27.90776806 75.18503965 28.18043228 80 29 C80 31.64 80 34.28 80 37 C72.71409984 37.04682155 65.42823335 37.08211748 58.14221191 37.10362434 C54.75718789 37.11395864 51.37226851 37.12792229 47.98730469 37.15087891 C9.5625541 37.39227608 9.5625541 37.39227608 2 33 C2.33 32.34 2.66 31.68 3 31 C3.99 31 4.98 31 6 31 C6 30.01 6 29.02 6 28 C4.906875 28.33 3.81375 28.66 2.6875 29 C-1 30 -1 30 -4 30 C-6.25 28.4375 -6.25 28.4375 -8 26 C-7.75 22.25 -7.75 22.25 -7 19 C-8.65 18.67 -10.3 18.34 -12 18 C-12 15.69 -12 13.38 -12 11 C-11.030625 10.71125 -10.06125 10.4225 -9.0625 10.125 C-5.89335797 9.35785318 -5.89335797 9.35785318 -5 7 C-5.39938767 4.90178785 -5.39938767 4.90178785 -6 3 C-4.03533587 1.93224776 -2.03144641 0.93446535 0 0 Z M13 25 C13.33 26.65 13.66 28.3 14 30 C26.375 29.01 26.375 29.01 39 28 C39.33 27.01 39.66 26.02 40 25 C31.09 25 22.18 25 13 25 Z " fill="#B2D0FE" transform="translate(21,88)"/>
<path d="M0 0 C16.83 0 33.66 0 51 0 C51 10.23 51 20.46 51 31 C34.17 31 17.34 31 0 31 C0 20.77 0 10.54 0 0 Z " fill="#474E94" transform="translate(44,47)"/>
<path d="M0 0 C0.33 1.98 0.66 3.96 1 6 C4.7016431 6.94693195 6.39112465 7.30443767 9.875 5.5625 C10.926875 4.7890625 10.926875 4.7890625 12 4 C14.475 6.97 14.475 6.97 17 10 C16.34 11.32 15.68 12.64 15 14 C16.60681641 14.09087891 16.60681641 14.09087891 18.24609375 14.18359375 C19.64324391 14.26798537 21.04037857 14.35263406 22.4375 14.4375 C23.14455078 14.47681641 23.85160156 14.51613281 24.58007812 14.55664062 C29.88671875 14.88671875 29.88671875 14.88671875 31 16 C31.08748207 17.92667507 31.10697334 19.85651861 31.09765625 21.78515625 C31.09443359 22.95498047 31.09121094 24.12480469 31.08789062 25.33007812 C31.07532227 27.17762695 31.07532227 27.17762695 31.0625 29.0625 C31.05798828 30.29806641 31.05347656 31.53363281 31.04882812 32.80664062 C31.03699608 35.87114117 31.02051173 38.93554721 31 42 C31.78375 41.79375 32.5675 41.5875 33.375 41.375 C34.674375 41.189375 34.674375 41.189375 36 41 C38 43 38 43 38 46 C37.34 46 36.68 46 36 46 C36.495 48.475 36.495 48.475 37 51 C37.66 51 38.32 51 39 51 C38.67 52.65 38.34 54.3 38 56 C35.525 56.495 35.525 56.495 33 57 C32.67 58.32 32.34 59.64 32 61 C29.6875 61.1875 29.6875 61.1875 27 61 C26 60 25 59 24 58 C21.83700789 58.22757731 21.83700789 58.22757731 20 59 C17.875 54.375 17.875 54.375 19 51 C18.34 50.01 17.68 49.02 17 48 C17 47.01 17 46.02 17 45 C16.01 44.67 15.02 44.34 14 44 C13.855625 43.21625 13.71125 42.4325 13.5625 41.625 C13.12201075 39.03578982 13.12201075 39.03578982 12 37 C12.66 37 13.32 37 14 37 C14 35.02 14 33.04 14 31 C7.4 31 0.8 31 -6 31 C-6 30.34 -6 29.68 -6 29 C-3.69 29.33 -1.38 29.66 1 30 C0.94779297 28.51886719 0.94779297 28.51886719 0.89453125 27.0078125 C0.86746094 25.72648437 0.84039062 24.44515625 0.8125 23.125 C0.76029297 21.21074219 0.76029297 21.21074219 0.70703125 19.2578125 C0.80371094 18.18273437 0.90039062 17.10765625 1 16 C1.99 15.34 2.98 14.68 4 14 C2.78410016 12.56844101 2.78410016 12.56844101 -0.8125 12.6875 C-3.78617685 12.74622611 -4.87751147 12.92650688 -7.5 14.5 C-9.71177972 18.18629954 -9.34421275 20.73176192 -9 25 C-8.67 25.66 -8.34 26.32 -8 27 C-10.64 27 -13.28 27 -16 27 C-16.33 24.69 -16.66 22.38 -17 20 C-19.475 19.01 -19.475 19.01 -22 18 C-21.01 15.36 -20.02 12.72 -19 10 C-17.329375 10.061875 -17.329375 10.061875 -15.625 10.125 C-11.95633975 10.41121859 -11.95633975 10.41121859 -10 8 C-9.59952556 5.67724823 -9.2602896 3.34260643 -9 1 C-5.94152152 0.45627049 -3.11227195 0 0 0 Z M23 47 C22.6366844 49.83386167 22.6431329 51.40522151 24.125 53.875 C26.92151052 55.55290631 28.93690532 54.74875648 32 54 C32.67673447 50.59679066 32.67673447 50.59679066 33 47 C31.11499729 44.68436913 31.11499729 44.68436913 28 44.75 C24.88500271 44.68436913 24.88500271 44.68436913 23 47 Z " fill="#36D6CD" transform="translate(104,18)"/>
<path d="M0 0 C1.37091797 0.0009668 1.37091797 0.0009668 2.76953125 0.00195312 C9.48435163 0.04685163 9.48435163 0.04685163 10.625 1.1875 C13.43476518 1.34767166 16.22273596 1.44700534 19.03515625 1.50390625 C19.87719101 1.52468735 20.71922577 1.54546844 21.58677673 1.56687927 C24.28693179 1.63246812 26.98718717 1.69130276 29.6875 1.75 C31.51368241 1.79317637 33.33985454 1.83679036 35.16601562 1.88085938 C39.65223992 1.98815894 44.1385655 2.08939966 48.625 2.1875 C48.625 2.5175 48.625 2.8475 48.625 3.1875 C35.755 3.1875 22.885 3.1875 9.625 3.1875 C9.955 4.5075 10.285 5.8275 10.625 7.1875 C23.165 7.5175 35.705 7.8475 48.625 8.1875 C48.625 8.5175 48.625 8.8475 48.625 9.1875 C35.755 9.1875 22.885 9.1875 9.625 9.1875 C9.955 10.5075 10.285 11.8275 10.625 13.1875 C31.085 13.1875 51.545 13.1875 72.625 13.1875 C73.12 15.1675 73.12 15.1675 73.625 17.1875 C80.225 17.1875 86.825 17.1875 93.625 17.1875 C93.625 19.85416667 93.625 22.52083333 93.625 25.1875 C93.95050502 26.85571323 94.28346063 28.52249557 94.625 30.1875 C94.625 30.5175 94.625 30.8475 94.625 31.1875 C90.005 31.1875 85.385 31.1875 80.625 31.1875 C80.625 28.2175 80.625 25.2475 80.625 22.1875 C78.315 22.1875 76.005 22.1875 73.625 22.1875 C73.63547363 22.93435059 73.64594727 23.68120117 73.65673828 24.45068359 C73.6982077 27.82125508 73.72429729 31.191773 73.75 34.5625 C73.76675781 35.738125 73.78351563 36.91375 73.80078125 38.125 C73.80722656 39.24648437 73.81367187 40.36796875 73.8203125 41.5234375 C73.83078613 42.56032715 73.84125977 43.5972168 73.85205078 44.66552734 C73.625 47.1875 73.625 47.1875 71.625 49.1875 C69.38586426 49.44146729 69.38586426 49.44146729 66.56445312 49.44628906 C64.98271301 49.45574554 64.98271301 49.45574554 63.36901855 49.46539307 C62.22630493 49.4613446 61.08359131 49.45729614 59.90625 49.453125 C58.15302429 49.45599518 58.15302429 49.45599518 56.36437988 49.45892334 C53.88956487 49.46028626 51.41474274 49.45658241 48.93994141 49.44824219 C45.14078795 49.43754446 41.34210741 49.44813418 37.54296875 49.4609375 C35.14322812 49.45961592 32.74348778 49.45705357 30.34375 49.453125 C28.62967957 49.45919769 28.62967957 49.45919769 26.88098145 49.46539307 C25.82648804 49.45908875 24.77199463 49.45278442 23.68554688 49.44628906 C22.7544812 49.44469788 21.82341553 49.44310669 20.86413574 49.44146729 C18.625 49.1875 18.625 49.1875 16.625 47.1875 C16.45011746 44.75005103 16.39322595 42.4281392 16.4296875 39.9921875 C16.4325174 39.28474396 16.43534729 38.57730042 16.43826294 37.84841919 C16.44946863 35.5862749 16.47457321 33.32452485 16.5 31.0625 C16.51002933 29.52995363 16.51915526 27.99740106 16.52734375 26.46484375 C16.54940914 22.70557699 16.58394104 18.94660536 16.625 15.1875 C14.315 15.1875 12.005 15.1875 9.625 15.1875 C9.625 17.1675 9.625 19.1475 9.625 21.1875 C0.715 21.1875 -8.195 21.1875 -17.375 21.1875 C-17.375 20.8575 -17.375 20.5275 -17.375 20.1875 C-15.725 19.8575 -14.075 19.5275 -12.375 19.1875 C-12.045 17.8675 -11.715 16.5475 -11.375 15.1875 C-13.355 15.1875 -15.335 15.1875 -17.375 15.1875 C-17.375 14.8575 -17.375 14.5275 -17.375 14.1875 C-15.725 13.8575 -14.075 13.5275 -12.375 13.1875 C-12.045 11.8675 -11.715 10.5475 -11.375 9.1875 C-13.355 9.1875 -15.335 9.1875 -17.375 9.1875 C-17.375 8.8575 -17.375 8.5275 -17.375 8.1875 C-15.725 7.8575 -14.075 7.5275 -12.375 7.1875 C-12.045 5.8675 -11.715 4.5475 -11.375 3.1875 C-13.355 3.1875 -15.335 3.1875 -17.375 3.1875 C-17.375 2.8575 -17.375 2.5275 -17.375 2.1875 C-11.48560037 0.14637931 -6.2030285 -0.08528042 0 0 Z M19.625 15.1875 C19.625 25.4175 19.625 35.6475 19.625 46.1875 C36.455 46.1875 53.285 46.1875 70.625 46.1875 C70.625 35.9575 70.625 25.7275 70.625 15.1875 C53.795 15.1875 36.965 15.1875 19.625 15.1875 Z " fill="#91E1E0" transform="translate(24.375,31.8125)"/>
<path d="M0 0 C1.32 0 2.64 0 4 0 C4 6.6 4 13.2 4 20 C6.31 20 8.62 20 11 20 C12 21 12 21 12.11352539 24.78540039 C12.11336622 26.47282729 12.10766917 28.16025905 12.09765625 29.84765625 C12.0962413 30.7340831 12.09482635 31.62050995 12.09336853 32.53379822 C12.08775215 35.37673254 12.07519691 38.21958931 12.0625 41.0625 C12.05748711 42.98502491 12.05292384 44.90755104 12.04882812 46.83007812 C12.03862648 51.55343964 12.01905437 56.27663258 12 61 C3.75 61 -4.5 61 -13 61 C-13 54 -13 54 -11 50 C-5.06 50 0.88 50 7 50 C7.33 44.39 7.66 38.78 8 33 C5.23625 33.12375 2.4725 33.2475 -0.375 33.375 C-1.24431152 33.40899902 -2.11362305 33.44299805 -3.00927734 33.47802734 C-7.47543818 33.54791085 -7.47543818 33.54791085 -11 36 C-13.65450267 33.34549733 -13.41639121 31.69774614 -13.6875 28 C-13.77386719 26.9275 -13.86023438 25.855 -13.94921875 24.75 C-14 22 -14 22 -13 20 C-8.71 20 -4.42 20 0 20 C0 13.4 0 6.8 0 0 Z " fill="#7286FE" transform="translate(115,63)"/>
<path d="M0 0 C0.66 0.33 1.32 0.66 2 1 C2 1.99 2 2.98 2 4 C2.99 4 3.98 4 5 4 C5 5.65 5 7.3 5 9 C4.030625 9.28875 3.06125 9.5775 2.0625 9.875 C-1.10664203 10.64214682 -1.10664203 10.64214682 -2 13 C-2.43986452 17.03518598 -2.43986452 17.03518598 -0.86328125 20.6015625 C2.39651569 23.0481187 6.35127079 23.30042673 10.28515625 24.05859375 C13 25 13 25 15 29 C22.92 28.67 30.84 28.34 39 28 C38.67 28.66 38.34 29.32 38 30 C35.35139573 30.59355614 32.70802678 30.74209269 30 31 C30 31.66 30 32.32 30 33 C44.19 33 58.38 33 73 33 C72.67 32.34 72.34 31.68 72 31 C70.845 30.835 69.69 30.67 68.5 30.5 C67.345 30.335 66.19 30.17 65 30 C64.505 29.01 64.505 29.01 64 28 C69.45769811 27.88861841 74.61509359 28.08342019 80 29 C80 31.64 80 34.28 80 37 C72.71409984 37.04682155 65.42823335 37.08211748 58.14221191 37.10362434 C54.75718789 37.11395864 51.37226851 37.12792229 47.98730469 37.15087891 C9.5625541 37.39227608 9.5625541 37.39227608 2 33 C2.33 32.34 2.66 31.68 3 31 C3.99 31 4.98 31 6 31 C6 30.01 6 29.02 6 28 C4.906875 28.33 3.81375 28.66 2.6875 29 C-1 30 -1 30 -4 30 C-6.25 28.4375 -6.25 28.4375 -8 26 C-7.75 22.25 -7.75 22.25 -7 19 C-8.65 18.67 -10.3 18.34 -12 18 C-12 15.69 -12 13.38 -12 11 C-11.030625 10.71125 -10.06125 10.4225 -9.0625 10.125 C-5.89335797 9.35785318 -5.89335797 9.35785318 -5 7 C-5.39938767 4.90178785 -5.39938767 4.90178785 -6 3 C-4.03533587 1.93224776 -2.03144641 0.93446535 0 0 Z " fill="#EAEBF2" transform="translate(21,88)"/>
<path d="M0 0 C7.92 0 15.84 0 24 0 C24.495 1.98 24.495 1.98 25 4 C31.6 4 38.2 4 45 4 C45 6.66666667 45 9.33333333 45 12 C45.32550502 13.66821323 45.65846063 15.33499557 46 17 C46 17.33 46 17.66 46 18 C41.38 18 36.76 18 32 18 C32 15.03 32 12.06 32 9 C29.69 9 27.38 9 25 9 C25.01571045 10.12027588 25.01571045 10.12027588 25.03173828 11.26318359 C25.0732077 14.63375508 25.09929729 18.004273 25.125 21.375 C25.14175781 22.550625 25.15851563 23.72625 25.17578125 24.9375 C25.18544922 26.61972656 25.18544922 26.61972656 25.1953125 28.3359375 C25.21102295 29.89127197 25.21102295 29.89127197 25.22705078 31.47802734 C25 34 25 34 23 36 C20.76086426 36.25396729 20.76086426 36.25396729 17.93945312 36.25878906 C16.35771301 36.26824554 16.35771301 36.26824554 14.74401855 36.27789307 C13.60130493 36.2738446 12.45859131 36.26979614 11.28125 36.265625 C9.52802429 36.26849518 9.52802429 36.26849518 7.73937988 36.27142334 C5.26456487 36.27278626 2.78974274 36.26908241 0.31494141 36.26074219 C-3.48421205 36.25004446 -7.28289259 36.26063418 -11.08203125 36.2734375 C-13.48177188 36.27211592 -15.88151222 36.26955357 -18.28125 36.265625 C-19.99532043 36.27169769 -19.99532043 36.27169769 -21.74401855 36.27789307 C-22.79851196 36.27158875 -23.85300537 36.26528442 -24.93945312 36.25878906 C-25.8705188 36.25719788 -26.80158447 36.25560669 -27.76086426 36.25396729 C-30 36 -30 36 -32 34 C-32.22705078 31.01904297 -32.22705078 31.01904297 -32.1953125 27.2421875 C-32.1924826 26.57913605 -32.18965271 25.91608459 -32.18673706 25.23294067 C-32.17553435 23.11344417 -32.15043051 20.99436896 -32.125 18.875 C-32.11497028 17.43880818 -32.10584441 16.00260975 -32.09765625 14.56640625 C-32.075595 11.04413372 -32.04106494 7.52210797 -32 4 C-31.01 4 -30.02 4 -29 4 C-29 13.57 -29 23.14 -29 33 C-12.17 33 4.66 33 22 33 C22 22.77 22 12.54 22 2 C14.74 2 7.48 2 0 2 C0 1.34 0 0.68 0 0 Z " fill="#37D2C9" transform="translate(73,45)"/>
<path d="M0 0 C1.12019531 -0.00128906 2.24039063 -0.00257812 3.39453125 -0.00390625 C4.57402344 -0.00003906 5.75351562 0.00382812 6.96875 0.0078125 C8.73798828 0.00201172 8.73798828 0.00201172 10.54296875 -0.00390625 C12.22326172 -0.00197266 12.22326172 -0.00197266 13.9375 0 C14.97326172 0.00112793 16.00902344 0.00225586 17.07617188 0.00341797 C19.46875 0.1328125 19.46875 0.1328125 20.46875 1.1328125 C20.56861975 3.97616298 20.60752881 6.78978413 20.59375 9.6328125 C20.59955078 10.82970703 20.59955078 10.82970703 20.60546875 12.05078125 C20.59535767 18.00620483 20.59535767 18.00620483 19.46875 19.1328125 C17.62715977 19.23240871 15.78178033 19.26361661 13.9375 19.265625 C12.81730469 19.26691406 11.69710937 19.26820312 10.54296875 19.26953125 C9.36347656 19.26566406 8.18398438 19.26179688 6.96875 19.2578125 C5.19951172 19.26361328 5.19951172 19.26361328 3.39453125 19.26953125 C1.71423828 19.26759766 1.71423828 19.26759766 0 19.265625 C-1.03576172 19.26449707 -2.07152344 19.26336914 -3.13867188 19.26220703 C-5.53125 19.1328125 -5.53125 19.1328125 -6.53125 18.1328125 C-6.63111975 15.28946202 -6.67002881 12.47584087 -6.65625 9.6328125 C-6.66011719 8.83488281 -6.66398437 8.03695312 -6.66796875 7.21484375 C-6.65573175 0.007248 -6.65573175 0.007248 0 0 Z " fill="#38D2C9" transform="translate(39.53125,85.8671875)"/>
<path d="M0 0 C3.0000624 -0.02721831 5.99987256 -0.04694378 9 -0.0625 C9.83917969 -0.07087891 10.67835937 -0.07925781 11.54296875 -0.08789062 C12.79013672 -0.09272461 12.79013672 -0.09272461 14.0625 -0.09765625 C15.19365234 -0.10551147 15.19365234 -0.10551147 16.34765625 -0.11352539 C19.91451913 0.03914317 23.45744034 0.55718004 27 1 C27 7.93 27 14.86 27 22 C20.07 22 13.14 22 6 22 C6 21.01 6 20.02 6 19 C4.02 19 2.04 19 0 19 C0 18.34 0 17.68 0 17 C1.98 17 3.96 17 6 17 C6 15.68 6 14.36 6 13 C4.02 13 2.04 13 0 13 C0 12.34 0 11.68 0 11 C1.98 11 3.96 11 6 11 C6 9.68 6 8.36 6 7 C4.02 7 2.04 7 0 7 C0 6.34 0 5.68 0 5 C1.98 5 3.96 5 6 5 C6 4.01 6 3.02 6 2 C3.03 1.505 3.03 1.505 0 1 C0 0.67 0 0.34 0 0 Z " fill="#9EDDE9" transform="translate(7,58)"/>
<path d="M0 0 C1.23327026 0.0314209 1.23327026 0.0314209 2.49145508 0.06347656 C3.38413086 0.07636719 4.27680664 0.08925781 5.1965332 0.10253906 C6.12530273 0.13605469 7.05407227 0.16957031 8.01098633 0.20410156 C8.95135742 0.22214844 9.89172852 0.24019531 10.8605957 0.25878906 C13.18258522 0.30593606 15.50252322 0.37171925 17.82348633 0.45410156 C16.83348633 1.93910156 16.83348633 1.93910156 15.82348633 3.45410156 C13.19848633 3.64160156 13.19848633 3.64160156 10.82348633 3.45410156 C10.82348633 4.44410156 10.82348633 5.43410156 10.82348633 6.45410156 C11.48348633 6.78410156 12.14348633 7.11410156 12.82348633 7.45410156 C12.20473633 8.05222656 11.58598633 8.65035156 10.94848633 9.26660156 C7.79141316 12.34742504 7.79141316 12.34742504 6.82348633 16.45410156 C15.40348633 16.45410156 23.98348633 16.45410156 32.82348633 16.45410156 C32.82348633 18.10410156 32.82348633 19.75410156 32.82348633 21.45410156 C19.29348633 21.45410156 5.76348633 21.45410156 -8.17651367 21.45410156 C-8.50651367 16.17410156 -8.83651367 10.89410156 -9.17651367 5.45410156 C-7.85651367 5.12410156 -6.53651367 4.79410156 -5.17651367 4.45410156 C-4.69529053 3.7815332 -4.21406738 3.10896484 -3.71826172 2.41601562 C-2.17651367 0.45410156 -2.17651367 0.45410156 0 0 Z " fill="#6C72FE" transform="translate(68.176513671875,80.5458984375)"/>
<path d="M0 0 C1.98 0 3.96 0 6 0 C6.33 0.66 6.66 1.32 7 2 C15.25 2 23.5 2 32 2 C32.33 1.34 32.66 0.68 33 0 C39.27 0 45.54 0 52 0 C51.34 2.31 50.68 4.62 50 7 C50 8.32 50 9.64 50 11 C43.03996553 11.02526838 36.0799428 11.04283222 29.11987305 11.05493164 C26.75007688 11.05997341 24.38028385 11.06680665 22.01049805 11.07543945 C18.61245961 11.0875119 15.21446215 11.09322971 11.81640625 11.09765625 C10.74975235 11.10281754 9.68309845 11.10797882 8.5841217 11.11329651 C7.60318039 11.11337204 6.62223907 11.11344757 5.61157227 11.11352539 C4.74331314 11.115746 3.87505402 11.11796661 2.98048401 11.12025452 C1 11 1 11 0 10 C-0.07205511 8.31391034 -0.08386068 6.62499341 -0.0625 4.9375 C-0.05347656 4.01839844 -0.04445313 3.09929687 -0.03515625 2.15234375 C-0.02355469 1.44207031 -0.01195313 0.73179688 0 0 Z " fill="#BED7FE" transform="translate(27,102)"/>
<path d="M0 0 C0.33 1.98 0.66 3.96 1 6 C4.7016431 6.94693195 6.39112465 7.30443767 9.875 5.5625 C10.926875 4.7890625 10.926875 4.7890625 12 4 C14.475 6.97 14.475 6.97 17 10 C15.125 13.875 15.125 13.875 14 15 C12.00390625 15.16796875 12.00390625 15.16796875 9.5625 15.1875 C8.35787109 15.20876953 8.35787109 15.20876953 7.12890625 15.23046875 C5 15 5 15 3 13 C-2.54235245 12.42765564 -2.54235245 12.42765564 -7.5 14.5 C-9.71177972 18.18629954 -9.34421275 20.73176192 -9 25 C-8.67 25.66 -8.34 26.32 -8 27 C-10.64 27 -13.28 27 -16 27 C-16.33 24.69 -16.66 22.38 -17 20 C-19.475 19.01 -19.475 19.01 -22 18 C-21.01 15.36 -20.02 12.72 -19 10 C-17.329375 10.061875 -17.329375 10.061875 -15.625 10.125 C-11.95633975 10.41121859 -11.95633975 10.41121859 -10 8 C-9.59952556 5.67724823 -9.2602896 3.34260643 -9 1 C-5.94152152 0.45627049 -3.11227195 0 0 0 Z " fill="#E9EAF1" transform="translate(104,18)"/>
<path d="M0 0 C1.32 0 2.64 0 4 0 C4 6.6 4 13.2 4 20 C6.31 20 8.62 20 11 20 C11.33 20.99 11.66 21.98 12 23 C11.030625 23.5775 10.06125 24.155 9.0625 24.75 C5.87419938 27.09242495 5.59831222 27.39497955 5 31 C4.01257813 31.19335938 3.02515625 31.38671875 2.0078125 31.5859375 C0.72648437 31.84632812 -0.55484375 32.10671875 -1.875 32.375 C-3.15117188 32.63023438 -4.42734375 32.88546875 -5.7421875 33.1484375 C-9.05924456 33.72237896 -9.05924456 33.72237896 -11 36 C-13.65450267 33.34549733 -13.41639121 31.69774614 -13.6875 28 C-13.77386719 26.9275 -13.86023438 25.855 -13.94921875 24.75 C-14 22 -14 22 -13 20 C-8.71 20 -4.42 20 0 20 C0 13.4 0 6.8 0 0 Z " fill="#5F4EFC" transform="translate(115,63)"/>
<path d="M0 0 C1.58206057 0.00667536 3.16410534 0.0186375 4.74609375 0.03515625 C5.55240234 0.03966797 6.35871094 0.04417969 7.18945312 0.04882812 C9.18753131 0.06065107 11.18557158 0.07858711 13.18359375 0.09765625 C13.21043687 2.91021906 13.23035563 5.72252866 13.24609375 8.53515625 C13.25447266 9.33759766 13.26285156 10.14003906 13.27148438 10.96679688 C13.28010805 13.01060846 13.23587525 15.05449527 13.18359375 17.09765625 C11.36243372 18.91881628 8.87687611 18.23000705 6.45703125 18.234375 C5.70679687 18.23050781 4.9565625 18.22664063 4.18359375 18.22265625 C3.05824219 18.22845703 3.05824219 18.22845703 1.91015625 18.234375 C-3.68979572 18.22426678 -3.68979572 18.22426678 -4.81640625 17.09765625 C-4.91621839 14.42034245 -4.955205 11.7746145 -4.94140625 9.09765625 C-4.94527344 8.34742187 -4.94914062 7.5971875 -4.953125 6.82421875 C-4.94103514 0.12643386 -4.94103514 0.12643386 0 0 Z " fill="#9DE5F0" transform="translate(109.81640625,95.90234375)"/>
<path d="M0 0 C0.33 0 0.66 0 1 0 C1.07347656 1.15628906 1.07347656 1.15628906 1.1484375 2.3359375 C1.22320312 3.33882813 1.29796875 4.34171875 1.375 5.375 C1.44460937 6.37273437 1.51421875 7.37046875 1.5859375 8.3984375 C1.76363964 11.15508879 1.76363964 11.15508879 4 13 C4.265625 16.1171875 4.265625 16.1171875 4.25 19.875 C4.25515625 21.10992187 4.2603125 22.34484375 4.265625 23.6171875 C4.00906611 26.88454037 3.47144354 28.1998649 2 31 C1.67 33.31 1.34 35.62 1 38 C9.25 38 17.5 38 26 38 C26 38.66 26 39.32 26 40 C28.31 40.66 30.62 41.32 33 42 C32 44 32 44 30.34521484 44.61450195 C25.49200924 45.41225457 20.54404055 45.18590312 15.63769531 45.18530273 C13.63863013 45.18748512 11.63960468 45.20599143 9.640625 45.22460938 C8.36960937 45.22654297 7.09859375 45.22847656 5.7890625 45.23046875 C4.63100098 45.23457764 3.47293945 45.23868652 2.27978516 45.24291992 C-1.11310954 44.99162245 -3.83332989 44.21173908 -7 43 C-6 41 -6 41 0 39 C0 26.13 0 13.26 0 0 Z " fill="#5F53E5" transform="translate(101,86)"/>
<path d="M0 0 C5.61 0 11.22 0 17 0 C17 5.61 17 11.22 17 17 C11.39 17 5.78 17 0 17 C0 11.39 0 5.78 0 0 Z " fill="#3E4E9A" transform="translate(15,34)"/>
<path d="M0 0 C3.96 0 7.92 0 12 0 C12 2.31 12 4.62 12 7 C16.83256305 6.58578031 18.82679218 4.53586014 22 1 C22 4.96 22 8.92 22 13 C13.42 13 4.84 13 -4 13 C-5 10 -5 10 -5 7 C-4.175 6.525625 -3.35 6.05125 -2.5 5.5625 C-1.2625 4.7890625 -1.2625 4.7890625 0 4 C0 2.68 0 1.36 0 0 Z " fill="#7387FE" transform="translate(79,84)"/>
<path d="M0 0 C2.31 0 4.62 0 7 0 C7 8.58 7 17.16 7 26 C6.34 26 5.68 26 5 26 C4.67 27.32 4.34 28.64 4 30 C3.01 30 2.02 30 1 30 C0.67 23.4 0.34 16.8 0 10 C-2.64 10 -5.28 10 -8 10 C-8 8.02 -8 6.04 -8 4 C-5.36 4 -2.72 4 0 4 C0 2.68 0 1.36 0 0 Z " fill="#5934FF" transform="translate(34,49)"/>
<path d="M0 0 C6.32375289 0.12905618 10.49175043 2.58542835 15 7 C15 7.66 15 8.32 15 9 C12.03 9 9.06 9 6 9 C5.67 11.64 5.34 14.28 5 17 C5.66 17.33 6.32 17.66 7 18 C6.01 18.99 5.02 19.98 4 21 C0.125 19.25 0.125 19.25 -1 17 C-0.34 17 0.32 17 1 17 C1 15.02 1 13.04 1 11 C-5.6 11 -12.2 11 -19 11 C-19 10.34 -19 9.68 -19 9 C-17.948125 9.0825 -16.89625 9.165 -15.8125 9.25 C-11.37964362 8.95932089 -10.26550402 7.82421969 -7 5 C-5.68 5 -4.36 5 -3 5 C-2.690625 4.360625 -2.38125 3.72125 -2.0625 3.0625 C-1 1 -1 1 0 0 Z " fill="#7ADDE1" transform="translate(117,38)"/>
<path d="M0 0 C6.6 0 13.2 0 20 0 C20 2.66666667 20 5.33333333 20 8 C20.32550502 9.66821323 20.65846063 11.33499557 21 13 C21 13.33 21 13.66 21 14 C16.38 14 11.76 14 7 14 C7 11.03 7 8.06 7 5 C4.69 5 2.38 5 0 5 C0 3.35 0 1.7 0 0 Z " fill="#3AC5D6" transform="translate(98,49)"/>
<path d="M0 0 C13.53 0 27.06 0 41 0 C41 1.65 41 3.3 41 5 C27.47 5 13.94 5 0 5 C0 3.35 0 1.7 0 0 Z " fill="#3C3D89" transform="translate(60,97)"/>
<path d="M0 0 C5.61 0 11.22 0 17 0 C16.01 1.65 15.02 3.3 14 5 C15.918125 4.9690625 15.918125 4.9690625 17.875 4.9375 C22.96207017 4.92941245 27.9516147 5.40979211 33 6 C33 6.66 33 7.32 33 8 C18.81 8 4.62 8 -10 8 C-10 7.34 -10 6.68 -10 6 C-7.98177083 5.609375 -5.96354167 5.21875 -3.9453125 4.828125 C-1.47178598 4.02322581 -1.47178598 4.02322581 0 0 Z " fill="#A1C5FE" transform="translate(61,113)"/>
<path d="M0 0 C0.99 0 1.98 0 3 0 C3 9.57 3 19.14 3 29 C11.25 29 19.5 29 28 29 C28 29.66 28 30.32 28 31 C36.91 31 45.82 31 55 31 C55 31.33 55 31.66 55 32 C47.48863592 32.05057965 39.97731551 32.08568257 32.46582031 32.10986328 C29.90883747 32.11994038 27.35186621 32.13360226 24.79492188 32.15087891 C21.12627308 32.17505217 17.45777621 32.18646585 13.7890625 32.1953125 C12.0655809 32.21079636 12.0655809 32.21079636 10.30728149 32.22659302 C9.2463327 32.22674408 8.18538391 32.22689514 7.09228516 32.22705078 C6.15518707 32.231492 5.21808899 32.23593323 4.25259399 32.24050903 C2 32 2 32 0 30 C-0.22705078 27.01904297 -0.22705078 27.01904297 -0.1953125 23.2421875 C-0.1924826 22.57913605 -0.18965271 21.91608459 -0.18673706 21.23294067 C-0.17553435 19.11344417 -0.15043051 16.99436896 -0.125 14.875 C-0.11497028 13.43880818 -0.10584441 12.00260975 -0.09765625 10.56640625 C-0.075595 7.04413372 -0.04106494 3.52210797 0 0 Z " fill="#42AAE3" transform="translate(41,49)"/>
<path d="M0 0 C0.8971875 0.5259375 0.8971875 0.5259375 1.8125 1.0625 C1.8125 2.0525 1.8125 3.0425 1.8125 4.0625 C1.1525 4.0625 0.4925 4.0625 -0.1875 4.0625 C0.1425 5.7125 0.4725 7.3625 0.8125 9.0625 C1.4725 9.0625 2.1325 9.0625 2.8125 9.0625 C2.4825 10.7125 2.1525 12.3625 1.8125 14.0625 C0.1625 14.3925 -1.4875 14.7225 -3.1875 15.0625 C-3.5175 16.3825 -3.8475 17.7025 -4.1875 19.0625 C-6.5 19.25 -6.5 19.25 -9.1875 19.0625 C-10.1875 18.0625 -11.1875 17.0625 -12.1875 16.0625 C-14.35049211 16.29007731 -14.35049211 16.29007731 -16.1875 17.0625 C-18.3125 12.4375 -18.3125 12.4375 -17.1875 9.0625 C-17.8475 8.0725 -18.5075 7.0825 -19.1875 6.0625 C-19.1875 5.0725 -19.1875 4.0825 -19.1875 3.0625 C-16.5475 3.0625 -13.9075 3.0625 -11.1875 3.0625 C-11.39375 4.17625 -11.6 5.29 -11.8125 6.4375 C-11.998125 8.231875 -11.998125 8.231875 -12.1875 10.0625 C-10.28994856 12.41223818 -10.28994856 12.41223818 -7.0625 12.1875 C-5.639375 12.125625 -5.639375 12.125625 -4.1875 12.0625 C-3.89187633 6.74079506 -3.89187633 6.74079506 -6.1875 2.0625 C-4.66896708 -0.97456585 -3.05066334 -1.30742714 0 0 Z " fill="#EAEBF2" transform="translate(140.1875,59.9375)"/>
<path d="M0 0 C1.18613892 0.00785522 1.18613892 0.00785522 2.39624023 0.01586914 C3.67724609 0.02070312 3.67724609 0.02070312 4.98413086 0.02563477 C5.88196289 0.03401367 6.77979492 0.04239258 7.70483398 0.05102539 C8.6065332 0.05553711 9.50823242 0.06004883 10.43725586 0.06469727 C12.67234712 0.07652315 14.90730835 0.09300319 17.14233398 0.11352539 C17.14233398 0.77352539 17.14233398 1.43352539 17.14233398 2.11352539 C19.12233398 2.11352539 21.10233398 2.11352539 23.14233398 2.11352539 C22.15233398 2.60852539 22.15233398 2.60852539 21.14233398 3.11352539 C21.14233398 3.77352539 21.14233398 4.43352539 21.14233398 5.11352539 C20.15233398 5.11352539 19.16233398 5.11352539 18.14233398 5.11352539 C18.47233398 6.10352539 18.80233398 7.09352539 19.14233398 8.11352539 C18.42045898 7.78352539 17.69858398 7.45352539 16.95483398 7.11352539 C14.03223952 6.07438069 12.2037269 5.63014756 9.14233398 6.11352539 C8.10117557 7.41497341 7.10347265 8.75191229 6.14233398 10.11352539 C3.70483398 11.23852539 3.70483398 11.23852539 1.14233398 12.11352539 C-0.19723802 12.76756597 -1.53173242 13.43226015 -2.85766602 14.11352539 C-2.8845254 11.96775903 -2.90399689 9.82189894 -2.92016602 7.67602539 C-2.93176758 6.48106445 -2.94336914 5.28610352 -2.95532227 4.05493164 C-2.82643106 0.17272841 -2.82643106 0.17272841 0 0 Z " fill="#34CED8" transform="translate(107.857666015625,32.886474609375)"/>
<path d="M0 0 C2.64 0 5.28 0 8 0 C8 6.93 8 13.86 8 21 C1.07 21 -5.86 21 -13 21 C-13 20.01 -13 19.02 -13 18 C-11.73542969 17.94392578 -11.73542969 17.94392578 -10.4453125 17.88671875 C-8.80175781 17.78810547 -8.80175781 17.78810547 -7.125 17.6875 C-6.03445312 17.62949219 -4.94390625 17.57148437 -3.8203125 17.51171875 C-2.88960937 17.34285156 -1.95890625 17.17398438 -1 17 C-0.34 16.01 0.32 15.02 1 14 C1.99 14 2.98 14 4 14 C3.67 11.69 3.34 9.38 3 7 C2.01 6.67 1.02 6.34 0 6 C0 4.02 0 2.04 0 0 Z " fill="#34D3D0" transform="translate(26,59)"/>
<path d="M0 0 C1.32 0 2.64 0 4 0 C4 6.6 4 13.2 4 20 C6.31 20 8.62 20 11 20 C11.33 20.99 11.66 21.98 12 23 C3.19039858 24.30512614 -5.19039858 24.30512614 -14 23 C-13.505 21.515 -13.505 21.515 -13 20 C-8.71 20 -4.42 20 0 20 C0 13.4 0 6.8 0 0 Z " fill="#4C4CA1" transform="translate(115,63)"/>
<path d="M0 0 C1.31871094 -0.01224609 2.63742188 -0.02449219 3.99609375 -0.03710938 C5.90068359 -0.04000977 5.90068359 -0.04000977 7.84375 -0.04296875 C9.00068359 -0.04707764 10.15761719 -0.05118652 11.34960938 -0.05541992 C14.47736509 0.18575467 16.680892 0.85423629 19.5 2.1875 C18.5 4.1875 18.5 4.1875 16.84521484 4.80200195 C11.99200924 5.59975457 7.04404055 5.37340312 2.13769531 5.37280273 C0.13863013 5.37498512 -1.86039532 5.39349143 -3.859375 5.41210938 C-5.13039063 5.41404297 -6.40140625 5.41597656 -7.7109375 5.41796875 C-8.86899902 5.42207764 -10.02706055 5.42618652 -11.22021484 5.43041992 C-14.61310954 5.17912245 -17.33332989 4.39923908 -20.5 3.1875 C-20.17 2.5275 -19.84 1.8675 -19.5 1.1875 C-13.23640183 -0.60566158 -6.45139424 0.00315317 0 0 Z " fill="#EAEBF2" transform="translate(114.5,125.8125)"/>
<path d="M0 0 C2.64 0 5.28 0 8 0 C7.34 1.32 6.68 2.64 6 4 C6.78375 4.433125 7.5675 4.86625 8.375 5.3125 C11 7 11 7 13 10 C11.71034824 11.37562854 10.37310707 12.70766393 9 14 C8.34 14 7.68 14 7 14 C7 13.01 7 12.02 7 11 C6.01 11.33 5.02 11.66 4 12 C3.26676204 14.01508358 3.26676204 14.01508358 3 16 C2.34 16 1.68 16 1 16 C1 14.35 1 12.7 1 11 C0.34 11 -0.32 11 -1 11 C-1.33 11.99 -1.66 12.98 -2 14 C-3.32 12.35 -4.64 10.7 -6 9 C-5.566875 8.60167969 -5.13375 8.20335938 -4.6875 7.79296875 C-4.130625 7.26316406 -3.57375 6.73335938 -3 6.1875 C-2.443125 5.66542969 -1.88625 5.14335938 -1.3125 4.60546875 C0.316465 2.95851033 0.316465 2.95851033 0 0 Z " fill="#40B1E1" transform="translate(43,86)"/>
<path d="M0 0 C1.58206057 0.00667536 3.16410534 0.0186375 4.74609375 0.03515625 C5.55240234 0.03966797 6.35871094 0.04417969 7.18945312 0.04882812 C9.18753131 0.06065107 11.18557158 0.07858711 13.18359375 0.09765625 C13.21043687 2.91021906 13.23035563 5.72252866 13.24609375 8.53515625 C13.25447266 9.33759766 13.26285156 10.14003906 13.27148438 10.96679688 C13.28010805 13.01060846 13.23587525 15.05449527 13.18359375 17.09765625 C11.36243372 18.91881628 8.87687611 18.23000705 6.45703125 18.234375 C5.70679687 18.23050781 4.9565625 18.22664063 4.18359375 18.22265625 C3.05824219 18.22845703 3.05824219 18.22845703 1.91015625 18.234375 C-3.68979572 18.22426678 -3.68979572 18.22426678 -4.81640625 17.09765625 C-4.91621839 14.42034245 -4.955205 11.7746145 -4.94140625 9.09765625 C-4.94527344 8.34742187 -4.94914062 7.5971875 -4.953125 6.82421875 C-4.94103514 0.12643386 -4.94103514 0.12643386 0 0 Z M-1.25390625 3.72265625 C-3.31432396 6.85449117 -3.49316075 8.41310398 -2.81640625 12.09765625 C-0.83674362 15.16073256 -0.83674362 15.16073256 2.18359375 17.09765625 C5.82829154 17.17203784 7.60303805 16.48469338 10.62109375 14.47265625 C12.51829003 12.07529335 12.51829003 12.07529335 12.12109375 8.53515625 C11.38353319 5.2509559 11.38353319 5.2509559 10.05859375 3.16015625 C6.14670512 0.94341936 2.41119954 1.27925239 -1.25390625 3.72265625 Z " fill="#48B6F4" transform="translate(109.81640625,95.90234375)"/>
<path d="M0 0 C0 5.61 0 11.22 0 17 C0.99 17 1.98 17 3 17 C3 18.65 3 20.3 3 22 C0.69 22 -1.62 22 -4 22 C-4 15.73 -4 9.46 -4 3 C-10.27 3 -16.54 3 -23 3 C-23 2.34 -23 1.68 -23 1 C-19.91675903 0.83159521 -16.83339379 0.66558138 -13.75 0.5 C-12.87730469 0.45230469 -12.00460938 0.40460938 -11.10546875 0.35546875 C-10.26113281 0.31035156 -9.41679687 0.26523438 -8.546875 0.21875 C-7.38430176 0.1559082 -7.38430176 0.1559082 -6.19824219 0.09179688 C-4.13373418 0.00558463 -2.0663073 0 0 0 Z " fill="#6F72AA" transform="translate(30,80)"/>
<path d="M0 0 C1.23556641 0.01740234 1.23556641 0.01740234 2.49609375 0.03515625 C3.32238281 0.04417969 4.14867187 0.05320312 5 0.0625 C5.63808594 0.07410156 6.27617188 0.08570312 6.93359375 0.09765625 C6.93359375 5.40245559 5.39738805 6.28748252 1.93359375 10.09765625 C2.92359375 11.08765625 3.91359375 12.07765625 4.93359375 13.09765625 C5.26359375 12.43765625 5.59359375 11.77765625 5.93359375 11.09765625 C6.59359375 11.09765625 7.25359375 11.09765625 7.93359375 11.09765625 C7.60359375 12.74765625 7.27359375 14.39765625 6.93359375 16.09765625 C3.63359375 16.09765625 0.33359375 16.09765625 -3.06640625 16.09765625 C-3.0932572 13.61841824 -3.11317172 11.13946785 -3.12890625 8.66015625 C-3.14147461 7.59958008 -3.14147461 7.59958008 -3.15429688 6.51757812 C-3.16294213 4.71072066 -3.11860636 2.90378022 -3.06640625 1.09765625 C-2.06640625 0.09765625 -2.06640625 0.09765625 0 0 Z " fill="#4597EB" transform="translate(36.06640625,85.90234375)"/>
<path d="M0 0 C0.33 0 0.66 0 1 0 C1.02888514 3.14581423 1.04675923 6.29159469 1.0625 9.4375 C1.07087891 10.33533203 1.07925781 11.23316406 1.08789062 12.15820312 C1.09111328 13.01220703 1.09433594 13.86621094 1.09765625 14.74609375 C1.10289307 15.53685303 1.10812988 16.3276123 1.11352539 17.14233398 C1 19 1 19 0 20 C-2.35313555 20.07271741 -4.70833668 20.08370868 -7.0625 20.0625 C-8.35285156 20.05347656 -9.64320312 20.04445313 -10.97265625 20.03515625 C-11.97167969 20.02355469 -12.97070312 20.01195313 -14 20 C-13.505 18.515 -13.505 18.515 -13 17 C-12.34 17.33 -11.68 17.66 -11 18 C-10.938125 17.38125 -10.87625 16.7625 -10.8125 16.125 C-10.544375 15.42375 -10.27625 14.7225 -10 14 C-9.195625 13.690625 -8.39125 13.38125 -7.5625 13.0625 C-4.75492583 12.22618194 -4.75492583 12.22618194 -3.6875 9.375 C-3.460625 8.59125 -3.23375 7.8075 -3 7 C-2.34 7 -1.68 7 -1 7 C-0.67 4.69 -0.34 2.38 0 0 Z " fill="#35DEC3" transform="translate(134,43)"/>
<path d="M0 0 C0.99 0 1.98 0 3 0 C3 0.66 3 1.32 3 2 C4.65 2 6.3 2 8 2 C8.59732819 4.76264289 9 7.16032769 9 10 C8.01 10.33 7.02 10.66 6 11 C5.01 12.485 5.01 12.485 4 14 C3.34 14 2.68 14 2 14 C1.67 13.34 1.34 12.68 1 12 C-1.02463255 11.34786708 -1.02463255 11.34786708 -3 11 C-3.33 8.36 -3.66 5.72 -4 3 C-2.68 3 -1.36 3 0 3 C0 2.01 0 1.02 0 0 Z " fill="#F5FCFC" transform="translate(21,63)"/>
<path d="M0 0 C6.19977835 0.24799113 9.37669013 2.13151624 14 6 C14 6.66 14 7.32 14 8 C6.74 8 -0.52 8 -8 8 C-7.67 7.01 -7.34 6.02 -7 5 C-5.68 5 -4.36 5 -3 5 C-2.690625 4.360625 -2.38125 3.72125 -2.0625 3.0625 C-1 1 -1 1 0 0 Z " fill="#F4FCFC" transform="translate(117,38)"/>
<path d="M0 0 C6.6 0 13.2 0 20 0 C20 1.98 20 3.96 20 6 C13.4 5.67 6.8 5.34 0 5 C0 3.35 0 1.7 0 0 Z " fill="#34B1C5" transform="translate(98,49)"/>
<path d="M0 0 C0.66 0 1.32 0 2 0 C2 5.61 2 11.22 2 17 C0.68 17.33 -0.64 17.66 -2 18 C-2 15.36 -2 12.72 -2 10 C-5.3 10 -8.6 10 -12 10 C-10 8 -10 8 -8.1875 7.1875 C-5.26020296 5.59839589 -3.28066396 3.4039431 -1 1 C-0.67 0.67 -0.34 0.34 0 0 Z " fill="#655EFE" transform="translate(125,86)"/>
<path d="M0 0 C2.31 0 4.62 0 7 0 C7 2.97 7 5.94 7 9 C7.66 9.33 8.32 9.66 9 10 C8.360625 10.268125 7.72125 10.53625 7.0625 10.8125 C4.66868314 11.88667752 4.66868314 11.88667752 4 15 C2.68 15 1.36 15 0 15 C0 10.05 0 5.1 0 0 Z " fill="#6B74FD" transform="translate(98,54)"/>
<path d="M0 0 C4.82360189 -0.19294408 8.49646738 0.24252386 13 2 C11.68 3.32 10.36 4.64 9 6 C8.34 5.67 7.68 5.34 7 5 C7 5.66 7 6.32 7 7 C6.34 7 5.68 7 5 7 C4.34 8.98 3.68 10.96 3 13 C2.01 12.34 1.02 11.68 0 11 C-0.29296875 8.3984375 -0.29296875 8.3984375 -0.1875 5.375 C-0.16042969 4.37210937 -0.13335937 3.36921875 -0.10546875 2.3359375 C-0.07066406 1.56507812 -0.03585938 0.79421875 0 0 Z " fill="#5A3AFF" transform="translate(102,86)"/>
<path d="M0 0 C3.96 0.33 7.92 0.66 12 1 C10.515 2.485 10.515 2.485 9 4 C9 4.66 9 5.32 9 6 C6 8 6 8 3 9 C2.67 9.66 2.34 10.32 2 11 C0.68 11 -0.64 11 -2 11 C-2.17700355 6.39790775 -2.10814567 4.21629134 0 0 Z " fill="#6B71FE" transform="translate(104,113)"/>
<path d="M0 0 C0.66 0 1.32 0 2 0 C2.02688151 1.64574566 2.04634123 3.29161413 2.0625 4.9375 C2.07410156 5.85402344 2.08570312 6.77054687 2.09765625 7.71484375 C2 10 2 10 1 11 C-1.07262076 11.08767112 -3.14820294 11.10695873 -5.22265625 11.09765625 C-6.48271484 11.09443359 -7.74277344 11.09121094 -9.04101562 11.08789062 C-10.38151109 11.07953403 -11.72200588 11.07106907 -13.0625 11.0625 C-14.40689942 11.0574866 -15.7513006 11.05292342 -17.09570312 11.04882812 C-20.39717941 11.03699488 -23.69856803 11.02050971 -27 11 C-27 10.34 -27 9.68 -27 9 C-18.42 9 -9.84 9 -1 9 C-0.67 6.03 -0.34 3.06 0 0 Z " fill="#37DCC5" transform="translate(96,69)"/>
<path d="M0 0 C1.32 0 2.64 0 4 0 C4 6.6 4 13.2 4 20 C2.68 19.67 1.36 19.34 0 19 C0 12.73 0 6.46 0 0 Z " fill="#3E3E8B" transform="translate(115,63)"/>
<path d="M0 0 C12.87 0 25.74 0 39 0 C39 0.66 39 1.32 39 2 C29.43 2 19.86 2 10 2 C10 2.66 10 3.32 10 4 C9.01 4 8.02 4 7 4 C7 3.34 7 2.68 7 2 C4.69 2 2.38 2 0 2 C0 1.34 0 0.68 0 0 Z " fill="#66D4E1" transform="translate(34,45)"/>
<path d="M0 0 C8.58 0 17.16 0 26 0 C25.67 0.99 25.34 1.98 25 3 C17.08 3 9.16 3 1 3 C0.67 2.01 0.34 1.02 0 0 Z " fill="#4C4CA0" transform="translate(101,124)"/>
<path d="M0 0 C1.67542976 0.28604898 3.34385343 0.61781233 5 1 C5.89577032 4.50164762 6.26716699 6.38129749 4.8125 9.75 C2.94600088 12.06703339 1.64936088 12.79325177 -1 14 C-1.02685938 11.85423363 -1.04633088 9.70837355 -1.0625 7.5625 C-1.07410156 6.36753906 -1.08570312 5.17257813 -1.09765625 3.94140625 C-1 1 -1 1 0 0 Z " fill="#33C6DF" transform="translate(106,33)"/>
<path d="M0 0 C4.29 0 8.58 0 13 0 C11 5 11 5 9 8 C9 7.01 9 6.02 9 5 C3.72 5 -1.56 5 -7 5 C-6.34 4.34 -5.68 3.68 -5 3 C-3.68 3 -2.36 3 -1 3 C-0.67 2.01 -0.34 1.02 0 0 Z " fill="#6660FF" transform="translate(53,81)"/>
<path d="M0 0 C6.27 0 12.54 0 19 0 C19 2.31 19 4.62 19 7 C18.34 7 17.68 7 17 7 C17 6.34 17 5.68 17 5 C13.37 5 9.74 5 6 5 C6 4.01 6 3.02 6 2 C3.03 1.505 3.03 1.505 0 1 C0 0.67 0 0.34 0 0 Z " fill="#86DBE4" transform="translate(7,58)"/>
<path d="M0 0 C2.64 0 5.28 0 8 0 C8.05395478 1.62463842 8.09277195 3.24978541 8.125 4.875 C8.14820313 5.77992187 8.17140625 6.68484375 8.1953125 7.6171875 C8 10 8 10 6 12 C5.01 11.67 4.02 11.34 3 11 C3 9.68 3 8.36 3 7 C2.01 6.67 1.02 6.34 0 6 C0 4.02 0 2.04 0 0 Z " fill="#3BB1D1" transform="translate(26,59)"/>
<path d="M0 0 C4.35535069 1.16142685 6.64619703 2.07699505 9 6 C7.71034824 7.37562854 6.37310707 8.70766393 5 10 C4.34 10 3.68 10 3 10 C3 9.01 3 8.02 3 7 C2.01 7.33 1.02 7.66 0 8 C-0.73323796 10.01508358 -0.73323796 10.01508358 -1 12 C-1.66 12 -2.32 12 -3 12 C-2.14285714 3.42857143 -2.14285714 3.42857143 0 0 Z " fill="#4DCADA" transform="translate(47,90)"/>
<path d="M0 0 C1 2 1 2 0.0625 5.125 C-0.288125 6.07375 -0.63875 7.0225 -1 8 C-4.37462715 7.45276317 -6.08235 6.9451 -9 5 C-9.33 5.66 -9.66 6.32 -10 7 C-10 6.01 -10 5.02 -10 4 C-10.66 3.67 -11.32 3.34 -12 3 C-8.2391768 -0.7608232 -5.0273023 -0.25136512 0 0 Z " fill="#3AC5D7" transform="translate(59,86)"/>
<path d="M0 0 C2.31 0 4.62 0 7 0 C7 1.65 7 3.3 7 5 C3.37 5 -0.26 5 -4 5 C-4 6.65 -4 8.3 -4 10 C-5.32 10 -6.64 10 -8 10 C-8 8.02 -8 6.04 -8 4 C-5.36 4 -2.72 4 0 4 C0 2.68 0 1.36 0 0 Z " fill="#3D418D" transform="translate(34,49)"/>
<path d="M0 0 C1.24716797 0.00322266 2.49433594 0.00644531 3.77929688 0.00976562 C5.07287109 0.01814453 6.36644531 0.02652344 7.69921875 0.03515625 C9.66858398 0.04192383 9.66858398 0.04192383 11.67773438 0.04882812 C14.91410885 0.06059676 18.15039053 0.07703865 21.38671875 0.09765625 C21.05671875 0.75765625 20.72671875 1.41765625 20.38671875 2.09765625 C19.73074707 2.11747559 19.07477539 2.13729492 18.39892578 2.15771484 C15.43610806 2.25278132 12.47401343 2.36253377 9.51171875 2.47265625 C7.96291016 2.5190625 7.96291016 2.5190625 6.3828125 2.56640625 C4.90361328 2.62441406 4.90361328 2.62441406 3.39453125 2.68359375 C2.4833252 2.71501465 1.57211914 2.74643555 0.63330078 2.77880859 C-1.81259311 2.89648136 -1.81259311 2.89648136 -3.61328125 5.09765625 C-6.34197532 5.06478042 -8.90994305 4.53367854 -11.61328125 4.09765625 C-11.61328125 3.10765625 -11.61328125 2.11765625 -11.61328125 1.09765625 C-7.68039761 0.16677716 -4.03673962 -0.0184326 0 0 Z " fill="#D9D9E8" transform="translate(106.61328125,125.90234375)"/>
<path d="M0 0 C1.65 0.33 3.3 0.66 5 1 C5 4.96 5 8.92 5 13 C4.34 13 3.68 13 3 13 C2.67 14.32 2.34 15.64 2 17 C1.01 17 0.02 17 -1 17 C-0.51171875 10.9453125 -0.51171875 10.9453125 0 9 C0.99 8.34 1.98 7.68 3 7 C2.01 4.69 1.02 2.38 0 0 Z " fill="#5D41FF" transform="translate(36,62)"/>
<path d="M0 0 C7.92 0 15.84 0 24 0 C24.33 1.32 24.66 2.64 25 4 C24.01 4 23.02 4 22 4 C22 3.34 22 2.68 22 2 C14.74 2 7.48 2 0 2 C0 1.34 0 0.68 0 0 Z " fill="#44D6D3" transform="translate(73,45)"/>
<path d="M0 0 C2.375 -0.1875 2.375 -0.1875 5 0 C5.66 0.99 6.32 1.98 7 3 C7.99 3.33 8.98 3.66 10 4 C9.67 4.66 9.34 5.32 9 6 C4.05 6 -0.9 6 -6 6 C-6 5.34 -6 4.68 -6 4 C-4.02 4 -2.04 4 0 4 C0 2.68 0 1.36 0 0 Z " fill="#6CD5E1" transform="translate(13,71)"/>
<path d="M0 0 C2.31 0 4.62 0 7 0 C7.75 2.1875 7.75 2.1875 8 5 C6.25 7.8125 6.25 7.8125 4 10 C3.01 10 2.02 10 1 10 C0.67 6.7 0.34 3.4 0 0 Z " fill="#74D5E4" transform="translate(110,33)"/>
<path d="M0 0 C0.33 0 0.66 0 1 0 C1.02685938 2.14576637 1.04633088 4.29162645 1.0625 6.4375 C1.07410156 7.63246094 1.08570312 8.82742187 1.09765625 10.05859375 C1 13 1 13 0 14 C-2.69654854 14.07319621 -5.36691458 14.09242537 -8.0625 14.0625 C-9.20041992 14.05573242 -9.20041992 14.05573242 -10.36132812 14.04882812 C-12.24091871 14.0370068 -14.12046899 14.01907078 -16 14 C-16 13.34 -16 12.68 -16 12 C-15.32453125 12.01160156 -14.6490625 12.02320312 -13.953125 12.03515625 C-13.06109375 12.04417969 -12.1690625 12.05320312 -11.25 12.0625 C-10.36828125 12.07410156 -9.4865625 12.08570312 -8.578125 12.09765625 C-6.2181162 12.00826198 -4.25501476 11.66912821 -2 11 C-1.7834375 9.1128125 -1.7834375 9.1128125 -1.5625 7.1875 C-1.26251314 4.57332877 -0.84186703 2.52560108 0 0 Z " fill="#3CDBCF" transform="translate(122,100)"/>
<path d="M0 0 C0.125 6.75 0.125 6.75 -1 9 C-3.5625 9.625 -3.5625 9.625 -6 10 C-6 9.34 -6 8.68 -6 8 C-6.99 7.67 -7.98 7.34 -9 7 C-8.34 6.01 -7.68 5.02 -7 4 C-6.01 4 -5.02 4 -4 4 C-4 3.01 -4 2.02 -4 1 C-1 0 -1 0 0 0 Z " fill="#3FD3CD" transform="translate(34,69)"/>
<path d="M0 0 C3.3 0 6.6 0 10 0 C10 0.99 10 1.98 10 3 C8.02 3.33 6.04 3.66 4 4 C4 4.99 4 5.98 4 7 C2.02 7.99 2.02 7.99 0 9 C0 6.03 0 3.06 0 0 Z " fill="#3EBCDD" transform="translate(105,54)"/>
<path d="M0 0 C0.66 1.32 1.32 2.64 2 4 C0.85546875 5.48828125 0.85546875 5.48828125 -1 7 C-3.69921875 7.29296875 -3.69921875 7.29296875 -6.6875 7.1875 C-7.68136719 7.16042969 -8.67523438 7.13335937 -9.69921875 7.10546875 C-10.45847656 7.07066406 -11.21773437 7.03585938 -12 7 C-12.33 6.01 -12.66 5.02 -13 4 C-9.7 4 -6.4 4 -3 4 C-2.67 3.34 -2.34 2.68 -2 2 C-2 2.66 -2 3.32 -2 4 C-1.34 4 -0.68 4 0 4 C0 2.68 0 1.36 0 0 Z " fill="#4ED3D6" transform="translate(46,98)"/>
<path d="M0 0 C2.875 -0.125 2.875 -0.125 6 0 C6.66 0.66 7.32 1.32 8 2 C8.33 1.34 8.66 0.68 9 0 C9.66 0 10.32 0 11 0 C10.67 1.65 10.34 3.3 10 5 C6.7 5 3.4 5 0 5 C0 3.35 0 1.7 0 0 Z " fill="#36AFC6" transform="translate(33,97)"/>
<path d="M0 0 C1.98 0 3.96 0 6 0 C6 2.31 6 4.62 6 7 C4.02 7 2.04 7 0 7 C0 4.69 0 2.38 0 0 Z " fill="#A2C2FF" transform="translate(83,84)"/>
<path d="M0 0 C0.36 5.4 0.36 5.4 -1.125 7.875 C-3.78034983 9.4682099 -5.96789518 9.20214032 -9 9 C-9.33 8.34 -9.66 7.68 -10 7 C-8.68 7 -7.36 7 -6 7 C-5.731875 6.401875 -5.46375 5.80375 -5.1875 5.1875 C-2.37142857 0 -2.37142857 0 0 0 Z " fill="#45D9DC" transform="translate(120,102)"/>
<path d="M0 0 C0 0.66 0 1.32 0 2 C-2.95857409 2.05379226 -5.91617721 2.09357093 -8.875 2.125 C-10.13763672 2.15013672 -10.13763672 2.15013672 -11.42578125 2.17578125 C-12.23144531 2.18222656 -13.03710938 2.18867187 -13.8671875 2.1953125 C-14.61081543 2.20578613 -15.35444336 2.21625977 -16.12060547 2.22705078 C-18 2 -18 2 -20 0 C-13.14011227 -0.94870788 -6.85988773 -0.94870788 0 0 Z " fill="#9BC1FE" transform="translate(74,119)"/>
<path d="M0 0 C0.66 0 1.32 0 2 0 C2 3.3 2 6.6 2 10 C0.68 10.33 -0.64 10.66 -2 11 C-2.25 3.375 -2.25 3.375 0 0 Z " fill="#6C71FE" transform="translate(125,93)"/>
<path d="M0 0 C1.32 0.33 2.64 0.66 4 1 C3.3503125 1.74056641 3.3503125 1.74056641 2.6875 2.49609375 C2.130625 3.13675781 1.57375 3.77742188 1 4.4375 C0.443125 5.07558594 -0.11375 5.71367188 -0.6875 6.37109375 C-2.10457065 7.78113179 -2.10457065 7.78113179 -2 9 C-3.65 9 -5.3 9 -7 9 C-7 8.01 -7 7.02 -7 6 C-6.01 6 -5.02 6 -4 6 C-3.34 4.68 -2.68 3.36 -2 2 C-1.34 2 -0.68 2 0 2 C0 1.34 0 0.68 0 0 Z " fill="#43A9E5" transform="translate(40,88)"/>
<path d="M0 0 C0 0.33 0 0.66 0 1 C-1.98 1 -3.96 1 -6 1 C-6 3.31 -6 5.62 -6 8 C-8.64 8 -11.28 8 -14 8 C-14 7.67 -14 7.34 -14 7 C-12.35 6.67 -10.7 6.34 -9 6 C-8.67 4.68 -8.34 3.36 -8 2 C-9.98 2 -11.96 2 -14 2 C-14 1.67 -14 1.34 -14 1 C-9.32798795 -0.20568053 -4.78503708 -0.09382426 0 0 Z " fill="#8BD8E8" transform="translate(21,33)"/>
<path d="M0 0 C0.99 0 1.98 0 3 0 C3.08121924 1.60332791 3.13929134 3.20784026 3.1875 4.8125 C3.23970703 6.15248047 3.23970703 6.15248047 3.29296875 7.51953125 C3 10 3 10 0 13 C0 8.71 0 4.42 0 0 Z " fill="#3B96D8" transform="translate(41,49)"/>
<path d="M0 0 C2.31 0 4.62 0 7 0 C7 1.65 7 3.3 7 5 C4.69 5 2.38 5 0 5 C0 3.35 0 1.7 0 0 Z " fill="#3C3E8A" transform="translate(98,49)"/>
<path d="M0 0 C6.6 0 13.2 0 20 0 C20 0.99 20 1.98 20 3 C13.4 2.34 6.8 1.68 0 1 C0 0.67 0 0.34 0 0 Z " fill="#41D1D8" transform="translate(14,32)"/>
<path d="M0 0 C2 2 2 2 2.25 5 C2 8 2 8 0 10 C-0.99 9.67 -1.98 9.34 -3 9 C-2.67 6.69 -2.34 4.38 -2 2 C-1.34 2 -0.68 2 0 2 C0 1.34 0 0.68 0 0 Z " fill="#3AC2D5" transform="translate(32,61)"/>
<path d="M0 0 C7.92 0.33 15.84 0.66 24 1 C24 1.33 24 1.66 24 2 C19.38 2 14.76 2 10 2 C10 2.66 10 3.32 10 4 C9.01 4 8.02 4 7 4 C7 3.34 7 2.68 7 2 C4.69 2 2.38 2 0 2 C0 1.34 0 0.68 0 0 Z " fill="#8BD7E7" transform="translate(34,45)"/>
<path d="M0 0 C1.67542976 0.28604898 3.34385343 0.61781233 5 1 C4.67 2.32 4.34 3.64 4 5 C2.68 5.33 1.36 5.66 0 6 C-0.38218767 4.34385343 -0.71395102 2.67542976 -1 1 C-0.67 0.67 -0.34 0.34 0 0 Z " fill="#51D0DD" transform="translate(22,67)"/>
<path d="M0 0 C0.66 0 1.32 0 2 0 C2 1.65 2 3.3 2 5 C2.99 5.33 3.98 5.66 5 6 C4.01 6.99 3.02 7.98 2 9 C-1.875 7.25 -1.875 7.25 -3 5 C-2.01 5 -1.02 5 0 5 C0 3.35 0 1.7 0 0 Z " fill="#F5FCFD" transform="translate(119,50)"/>
<path d="M0 0 C0.33 1.32 0.66 2.64 1 4 C-2.96 4 -6.92 4 -11 4 C-11 3.34 -11 2.68 -11 2 C-6.98195309 1.15901344 -3.98196457 0.94595055 0 2 C0 1.34 0 0.68 0 0 Z " fill="#35DDC5" transform="translate(33,76)"/>
<path d="M0 0 C4.55384615 -0.36923077 4.55384615 -0.36923077 6.8125 1.5 C7.204375 1.995 7.59625 2.49 8 3 C7 4 7 4 5.15234375 4.09765625 C3.1015625 4.06510417 1.05078125 4.03255208 -1 4 C-0.67 2.68 -0.34 1.36 0 0 Z " fill="#32C8DD" transform="translate(14,59)"/>
<path d="M0 0 C0.5625 1.9375 0.5625 1.9375 1 4 C0 5 0 5 -2.06640625 5.09765625 C-2.89011719 5.08605469 -3.71382812 5.07445313 -4.5625 5.0625 C-5.38878906 5.05347656 -6.21507812 5.04445313 -7.06640625 5.03515625 C-7.70449219 5.02355469 -8.34257813 5.01195313 -9 5 C-6.14693203 2.67527795 -3.45925163 1.2491742 0 0 Z " fill="#36DFC1" transform="translate(59,100)"/>
<path d="M0 0 C-0.33 1.65 -0.66 3.3 -1 5 C-3.97 4.01 -6.94 3.02 -10 2 C-6.3558226 -0.4294516 -4.28758728 -0.16179575 0 0 Z " fill="#41C9E7" transform="translate(123,96)"/>
<path d="M0 0 C0.66 0 1.32 0 2 0 C1.49202991 4.3177458 0.80317221 8.03302114 -1 12 C-1.66 12 -2.32 12 -3 12 C-2.14285714 3.42857143 -2.14285714 3.42857143 0 0 Z " fill="#DDF4F7" transform="translate(47,90)"/>
<path d="M0 0 C0.33 0.66 0.66 1.32 1 2 C-1.33214148 3.20628008 -3.49642139 4.1654738 -6 5 C-6.33 5.66 -6.66 6.32 -7 7 C-7 6.01 -7 5.02 -7 4 C-7.66 3.67 -8.32 3.34 -9 3 C-5.92807025 0.26939578 -4.09590633 -0.34132553 0 0 Z " fill="#41BBDD" transform="translate(56,86)"/>
<path d="M0 0 C0.33 0 0.66 0 1 0 C1 2.31 1 4.62 1 7 C-1.31 7 -3.62 7 -6 7 C-5.02433888 5.83040013 -4.044375 4.66438823 -3.0625 3.5 C-2.51722656 2.8503125 -1.97195312 2.200625 -1.41015625 1.53125 C-0.71212891 0.77328125 -0.71212891 0.77328125 0 0 Z " fill="#799AFE" transform="translate(126,117)"/>
<path d="M0 0 C-0.33 0.66 -0.66 1.32 -1 2 C-4.63 1.67 -8.26 1.34 -12 1 C-12 0.34 -12 -0.32 -12 -1 C-10.56465159 -1.2226746 -9.12654475 -1.42761906 -7.6875 -1.625 C-6.48673828 -1.79902344 -6.48673828 -1.79902344 -5.26171875 -1.9765625 C-3 -2 -3 -2 0 0 Z " fill="#A7DFEA" transform="translate(19,70)"/>
<path d="M0 0 C1.33333333 2.66666667 2.66666667 5.33333333 4 8 C2.35 8.33 0.7 8.66 -1 9 C-1.09765625 2.84765625 -1.09765625 2.84765625 -1 1 C-0.67 0.67 -0.34 0.34 0 0 Z " fill="#41CBE8" transform="translate(106,104)"/>
<path d="M0 0 C1.98 0.99 1.98 0.99 4 2 C4 3.65 4 5.3 4 7 C2.68 6.67 1.36 6.34 0 6 C0 4.02 0 2.04 0 0 Z " fill="#34C2C5" transform="translate(115,56)"/>
<path d="M0 0 C0.66 0 1.32 0 2 0 C2.30466674 5.28089024 2.317124 6.577168 -1 11 C-0.67 7.37 -0.34 3.74 0 0 Z " fill="#655EFE" transform="translate(103,106)"/>
<path d="M0 0 C1.21346851 3.64040554 1.21346851 5.35959446 0 9 C-1.32 7.35 -2.64 5.7 -4 4 C-2.68 2.68 -1.36 1.36 0 0 Z " fill="#E2F3F8" transform="translate(41,91)"/>
<path d="M0 0 C2.64 0 5.28 0 8 0 C7.01 0.66 6.02 1.32 5 2 C4.01 3.485 4.01 3.485 3 5 C2.01 4.34 1.02 3.68 0 3 C0 2.01 0 1.02 0 0 Z " fill="#E4F6FA" transform="translate(17,66)"/>
<path d="M0 0 C1.98 0.99 1.98 0.99 4 2 C4 2.99 4 3.98 4 5 C2 6.6875 2 6.6875 0 8 C0.185625 7.236875 0.37125 6.47375 0.5625 5.6875 C1.22819173 2.91032625 1.22819173 2.91032625 0 0 Z " fill="#DEF4F7" transform="translate(51,92)"/>
<path d="M0 0 C0.66 0 1.32 0 2 0 C2 2.97 2 5.94 2 9 C1.01 9 0.02 9 -1 9 C-0.67 6.03 -0.34 3.06 0 0 Z " fill="#6154FE" transform="translate(31,88)"/>
<path d="M0 0 C0.33 0 0.66 0 1 0 C1 2.64 1 5.28 1 8 C0.01 8.33 -0.98 8.66 -2 9 C-2.25 3.375 -2.25 3.375 0 0 Z " fill="#409AE9" transform="translate(43,59)"/>
<path d="M0 0 C0.99 0.66 1.98 1.32 3 2 C2 3 2 3 -0.50390625 3.09765625 C-2.01791016 3.08025391 -2.01791016 3.08025391 -3.5625 3.0625 C-4.57441406 3.05347656 -5.58632812 3.04445312 -6.62890625 3.03515625 C-7.41136719 3.02355469 -8.19382812 3.01195312 -9 3 C-9 2.34 -9 1.68 -9 1 C-7.88625 1.020625 -6.7725 1.04125 -5.625 1.0625 C-2.16784079 1.26380718 -2.16784079 1.26380718 0 0 Z " fill="#8ECCDE" transform="translate(107,46)"/>
<path d="M0 0 C-0.66 1.32 -1.32 2.64 -2 4 C-2.99 4 -3.98 4 -5 4 C-5.33 2.68 -5.66 1.36 -6 0 C-3 -1 -3 -1 0 0 Z " fill="#66D3E3" transform="translate(117,35)"/>
<path d="M0 0 C0.66 0.66 1.32 1.32 2 2 C4.32275177 2.40047444 6.65739357 2.7397104 9 3 C9 3.33 9 3.66 9 4 C7.56260487 4.02712066 6.12506137 4.04645067 4.6875 4.0625 C3.48673828 4.07990234 3.48673828 4.07990234 2.26171875 4.09765625 C0 4 0 4 -3 3 C-2 1 -2 1 0 0 Z " fill="#BCD6FD" transform="translate(84,115)"/>
<path d="M0 0 C2.31 0 4.62 0 7 0 C6.01 0.33 5.02 0.66 4 1 C3.67 1.99 3.34 2.98 3 4 C2.01 4 1.02 4 0 4 C0 2.68 0 1.36 0 0 Z " fill="#31C7DE" transform="translate(13,65)"/>
</svg>
