<?xml version="1.0" encoding="UTF-8"?>
<svg version="1.1" xmlns="http://www.w3.org/2000/svg" width="150" height="150">
<path d="M0 0 C3.3 0 6.6 0 10 0 C10 1.98 10 3.96 10 6 C15.55493924 7.02703748 15.55493924 7.02703748 21 6 C21.433125 7.134375 21.86625 8.26875 22.3125 9.4375 C23.3061169 11.45153786 23.3061169 11.45153786 25 13 C27.93713773 13.71501749 30.6179844 13.87371097 33.63671875 13.9296875 C36 14 36 14 37 15 C37.08748207 16.92667507 37.10697334 18.85651861 37.09765625 20.78515625 C37.09282227 22.53989258 37.09282227 22.53989258 37.08789062 24.33007812 C37.07532227 26.17762695 37.07532227 26.17762695 37.0625 28.0625 C37.05798828 29.29806641 37.05347656 30.53363281 37.04882812 31.80664062 C37.03699608 34.87114117 37.02051173 37.93554721 37 41 C38.98 41 40.96 41 43 41 C44.8684361 44.84678022 45.05395731 46.8895665 44 51 C44 52.32 44 53.64 44 55 C43.01 55.99 43.01 55.99 42 57 C41.01 56.67 40.02 56.34 39 56 C38.34 57.32 37.68 58.64 37 60 C35.02 60 33.04 60 31 60 C30.773125 59.360625 30.54625 58.72125 30.3125 58.0625 C29.14749104 55.72806339 29.14749104 55.72806339 26.375 55.25 C25.59125 55.1675 24.8075 55.085 24 55 C22.74458443 51.23375329 23.62938042 49.62811066 25 46 C24.34 46 23.68 46 23 46 C23 45.34 23 44.68 23 44 C22.34 44 21.68 44 21 44 C21 50.6 21 57.2 21 64 C23.31 64 25.62 64 28 64 C29 65 29 65 29.11352539 68.96899414 C29.1133662 70.74105607 29.10766785 72.5131226 29.09765625 74.28515625 C29.0962413 75.21597519 29.09482635 76.14679413 29.09336853 77.1058197 C29.08775172 80.09141191 29.0751964 83.07693029 29.0625 86.0625 C29.05748716 88.08137913 29.05292388 90.10025943 29.04882812 92.11914062 C29.03777683 97.07945572 29.02050095 102.03971532 29 107 C31.31 107.66 33.62 108.32 36 109 C35 111 35 111 33.34521484 111.61450195 C28.49200924 112.41225457 23.54404055 112.18590312 18.63769531 112.18530273 C16.63863013 112.18748512 14.63960468 112.20599143 12.640625 112.22460938 C11.36960937 112.22654297 10.09859375 112.22847656 8.7890625 112.23046875 C7.63100098 112.23457764 6.47293945 112.23868652 5.27978516 112.24291992 C1.88689046 111.99162245 -0.83332989 111.21173908 -4 110 C-3.67 109.34 -3.34 108.68 -3 108 C-0.4375 107.375 -0.4375 107.375 2 107 C1.32142944 106.99191315 0.64285889 106.98382629 -0.05627441 106.97549438 C-7.19572947 106.88863335 -14.33493245 106.7891071 -21.47412109 106.68261719 C-24.12938188 106.64363425 -26.7845665 106.60971702 -29.43994141 106.578125 C-67.93926359 106.11445232 -67.93926359 106.11445232 -75 102 C-74.505 101.01 -74.505 101.01 -74 100 C-73.34 100 -72.68 100 -72 100 C-72.495 99.01 -72.495 99.01 -73 98 C-75.92713788 97.05065798 -77.42831368 96.76823527 -80.3125 97.9375 C-80.869375 98.288125 -81.42625 98.63875 -82 99 C-83.32 97.35 -84.64 95.7 -86 94 C-85.505 93.505 -85.505 93.505 -85 93 C-84.95907063 90.66702567 -84.95758277 88.33294775 -85 86 C-86.32 86 -87.64 86 -89 86 C-88.67 83.36 -88.34 80.72 -88 78 C-86.7934375 78.0309375 -86.7934375 78.0309375 -85.5625 78.0625 C-83.06645115 78.29633621 -83.06645115 78.29633621 -82 77 C-81.95919217 75.00041636 -81.95745644 72.99954746 -82 71 C-79.09399739 69.74335022 -77.20395416 69 -74 69 C-73.67 69.99 -73.34 70.98 -73 72 C-72.67 68.37 -72.34 64.74 -72 61 C-76.29 61 -80.58 61 -85 61 C-85.02683436 57.68744674 -85.0467578 54.37510817 -85.0625 51.0625 C-85.07087891 50.11697266 -85.07925781 49.17144531 -85.08789062 48.19726562 C-85.09111328 47.29814453 -85.09433594 46.39902344 -85.09765625 45.47265625 C-85.10289307 44.64000244 -85.10812988 43.80734863 -85.11352539 42.94946289 C-85 41 -85 41 -84 40 C-81.98035801 39.92755947 -79.95832876 39.91622812 -77.9375 39.9375 C-76.28041016 39.95103516 -76.28041016 39.95103516 -74.58984375 39.96484375 C-73.73519531 39.97644531 -72.88054687 39.98804688 -72 40 C-72.061875 38.906875 -72.12375 37.81375 -72.1875 36.6875 C-72 33 -72 33 -70.875 31.28125 C-68.1629604 29.42802294 -66.05676436 29.70784631 -62.8125 29.8125 C-61.72582031 29.83957031 -60.63914062 29.86664063 -59.51953125 29.89453125 C-58.27236328 29.94673828 -58.27236328 29.94673828 -57 30 C-56.67 28.68 -56.34 27.36 -56 26 C-54.77893555 25.98018066 -53.55787109 25.96036133 -52.29980469 25.93994141 C-47.76720646 25.86383877 -43.2349273 25.77512839 -38.70263672 25.68261719 C-36.7414378 25.64434673 -34.78016916 25.60949046 -32.81884766 25.578125 C-29.99877003 25.5324326 -27.17917162 25.474445 -24.359375 25.4140625 C-23.04510529 25.39673569 -23.04510529 25.39673569 -21.70428467 25.37905884 C-20.88373596 25.35918915 -20.06318726 25.33931946 -19.21777344 25.31884766 C-18.49829529 25.30552399 -17.77881714 25.29220032 -17.03753662 25.2784729 C-14.61052203 24.94676952 -13.03163199 24.37469106 -11 23 C-10.18129815 19.43793339 -10.18129815 19.43793339 -10 16 C-11.65 15.34 -13.3 14.68 -15 14 C-13.87548273 11.0280615 -12.77706209 8.66559313 -11 6 C-9.906875 6.20625 -8.81375 6.4125 -7.6875 6.625 C-3.9161599 7.40346525 -3.9161599 7.40346525 -1 5 C-0.27034634 2.43717258 -0.27034634 2.43717258 0 0 Z M-2 13 C-4.2084626 16.31269391 -4.80664241 18.14978851 -4.5546875 22.0625 C-3.4812192 25.81207941 -1.28696911 27.01541488 2 29 C4.63836977 29.1672392 4.63836977 29.1672392 7 29 C7.03738281 28.01257813 7.07476562 27.02515625 7.11328125 26.0078125 C7.17902344 24.72648437 7.24476562 23.44515625 7.3125 22.125 C7.37050781 20.84882812 7.42851563 19.57265625 7.48828125 18.2578125 C7.65714844 17.18273437 7.82601562 16.10765625 8 15 C8.99 14.34 9.98 13.68 11 13 C9.01607489 10.60148679 9.01607489 10.60148679 5.1875 10.5625 C1.82266671 10.66669338 0.95629969 11.02913354 -2 13 Z M29 46 C28.6366844 48.83386167 28.6431329 50.40522151 30.125 52.875 C32.92151052 54.55290631 34.93690532 53.74875648 38 53 C38.67673447 49.59679066 38.67673447 49.59679066 39 46 C37.11499729 43.68436913 37.11499729 43.68436913 34 43.75 C30.88500271 43.68436913 30.88500271 43.68436913 29 46 Z M-78.25 79.625 C-80.21985834 81.92308586 -80.21985834 81.92308586 -80.5 85 C-80.21376982 88.06575838 -80.21376982 88.06575838 -78.3125 90.375 C-75.61209763 92.27258004 -74.22939919 92.35882213 -71 92 C-70.85024761 84.94348748 -70.85024761 84.94348748 -72 78 C-75.92212225 77.60967296 -75.92212225 77.60967296 -78.25 79.625 Z M-65 94 C-64.67 95.65 -64.34 97.3 -64 99 C-51.13 98.01 -51.13 98.01 -38 97 C-37.67 96.01 -37.34 95.02 -37 94 C-46.24 94 -55.48 94 -65 94 Z M-13 94 C-13 94.99 -13 95.98 -13 97 C-7.72 97.33 -2.44 97.66 3 98 C3 96.68 3 95.36 3 94 C-2.28 94 -7.56 94 -13 94 Z " fill="#5D51FC" transform="translate(98,19)"/>
<path d="M0 0 C2.97 0 5.94 0 9 0 C9 6.6 9 13.2 9 20 C4.71 20 0.42 20 -4 20 C-4 20.66 -4 21.32 -4 22 C4.79133718 23.42426407 4.79133718 23.42426407 21 23 C21 36.2 21 49.4 21 63 C23.31 63.66 25.62 64.32 28 65 C27 67 27 67 25.34521484 67.61450195 C20.49200924 68.41225457 15.54404055 68.18590312 10.63769531 68.18530273 C8.63863013 68.18748512 6.63960468 68.20599143 4.640625 68.22460938 C3.36960937 68.22654297 2.09859375 68.22847656 0.7890625 68.23046875 C-0.36899902 68.23457764 -1.52706055 68.23868652 -2.72021484 68.24291992 C-6.11310954 67.99162245 -8.83332989 67.21173908 -12 66 C-11.67 65.34 -11.34 64.68 -11 64 C-8.4375 63.375 -8.4375 63.375 -6 63 C-7.01785583 62.98786972 -7.01785583 62.98786972 -8.05627441 62.97549438 C-15.19572947 62.88863335 -22.33493245 62.7891071 -29.47412109 62.68261719 C-32.12938188 62.64363425 -34.7845665 62.60971702 -37.43994141 62.578125 C-75.93926359 62.11445232 -75.93926359 62.11445232 -83 58 C-82.67 57.34 -82.34 56.68 -82 56 C-81.34 56 -80.68 56 -80 56 C-80.33 55.34 -80.66 54.68 -81 54 C-83.92713788 53.05065798 -85.42831368 52.76823527 -88.3125 53.9375 C-88.869375 54.288125 -89.42625 54.63875 -90 55 C-91.32 53.35 -92.64 51.7 -94 50 C-93.505 49.505 -93.505 49.505 -93 49 C-92.95907063 46.66702567 -92.95758277 44.33294775 -93 42 C-94.32 42 -95.64 42 -97 42 C-96.67 39.36 -96.34 36.72 -96 34 C-95.195625 34.020625 -94.39125 34.04125 -93.5625 34.0625 C-91.06645115 34.29633621 -91.06645115 34.29633621 -90 33 C-89.95919217 31.00041636 -89.95745644 28.99954746 -90 27 C-87.09399739 25.74335022 -85.20395416 25 -82 25 C-80.14223235 28.13498292 -79.79859524 30.37471432 -80 34 C-80.969375 34.28875 -81.93875 34.5775 -82.9375 34.875 C-86.10664203 35.64214682 -86.10664203 35.64214682 -87 38 C-87.0689472 39.37342831 -87.08467708 40.75002102 -87.0625 42.125 C-87.041875 43.40375 -87.02125 44.6825 -87 46 C-84.36 46.66 -81.72 47.32 -79 48 C-79 45.03 -79 42.06 -79 39 C-77.02 39 -75.04 39 -73 39 C-72.67 39.66 -72.34 40.32 -72 41 C-63.75 41 -55.5 41 -47 41 C-46.505 40.01 -46.505 40.01 -46 39 C-32.47 39 -18.94 39 -5 39 C-5 37.35 -5 35.7 -5 34 C-13.58 34 -22.16 34 -31 34 C-31 32 -31 32 -29.125 29.875 C-27 28 -27 28 -25 28 C-24.505 26.515 -24.505 26.515 -24 25 C-24.495 24.01 -24.495 24.01 -25 23 C-23.6696875 22.6596875 -23.6696875 22.6596875 -22.3125 22.3125 C-18.04565865 20.62186475 -15.07506196 18.15012391 -13 14 C-13.99 13.01 -13.99 13.01 -15 12 C-14.071875 11.54625 -13.14375 11.0925 -12.1875 10.625 C-7.85402656 8.60263522 -7.85402656 8.60263522 -5 5 C-4.34 5 -3.68 5 -3 5 C-2.5359375 4.0409375 -2.5359375 4.0409375 -2.0625 3.0625 C-1 1 -1 1 0 0 Z M-73 50 C-72.67 51.65 -72.34 53.3 -72 55 C-59.13 54.01 -59.13 54.01 -46 53 C-45.67 52.01 -45.34 51.02 -45 50 C-54.24 50 -63.48 50 -73 50 Z M-21 50 C-21 50.99 -21 51.98 -21 53 C-15.72 53.33 -10.44 53.66 -5 54 C-5 52.68 -5 51.36 -5 50 C-10.28 50 -15.56 50 -21 50 Z " fill="#5E50EA" transform="translate(106,63)"/>
<path d="M0 0 C2.31 0 4.62 0 7 0 C8.71431001 8.58852342 8.71431001 8.58852342 7.0234375 11.9296875 C5.6875 13.5 5.6875 13.5 3 16 C2.34 16.66 1.68 17.32 1 18 C-1.31648799 19.03842565 -3.64903024 20.0421975 -6 21 C-5.34 21.99 -4.68 22.98 -4 24 C-5.15968349 27.47905046 -5.83747927 27.81138872 -8.875 29.625 C-9.57367188 30.05039063 -10.27234375 30.47578125 -10.9921875 30.9140625 C-13 32 -13 32 -16 33 C-16 33.99 -16 34.98 -16 36 C-18.375 38.6875 -18.375 38.6875 -21 41 C-21.66 41 -22.32 41 -23 41 C-23 41.66 -23 42.32 -23 43 C-14.42 43 -5.84 43 3 43 C3 44.65 3 46.3 3 48 C-10.53 48 -24.06 48 -38 48 C-38.33 43.05 -38.66 38.1 -39 33 C-44.61 32.67 -50.22 32.34 -56 32 C-57.2168711 25.91564448 -57.28935645 24.07109119 -54 19 C-58.06024321 21.03802135 -58.06024321 21.03802135 -60 25 C-60.99 25 -61.98 25 -63 25 C-63 22.69 -63 20.38 -63 18 C-62.34 18 -61.68 18 -61 18 C-61.0825 16.741875 -61.165 15.48375 -61.25 14.1875 C-61.25691662 10.26577581 -61.25691662 10.26577581 -59.1875 8.125 C-58.465625 7.75375 -57.74375 7.3825 -57 7 C-56.01 6.34 -55.02 5.68 -54 5 C-54.33 4.34 -54.66 3.68 -55 3 C-28.27 2.505 -28.27 2.505 -1 2 C-0.67 1.34 -0.34 0.68 0 0 Z " fill="#6A74FD" transform="translate(98,54)"/>
<path d="M0 0 C1.85776765 3.13498292 2.20140476 5.37471432 2 9 C1.030625 9.28875 0.06125 9.5775 -0.9375 9.875 C-4.10664203 10.64214682 -4.10664203 10.64214682 -5 13 C-5.0689472 14.37342831 -5.08467708 15.75002102 -5.0625 17.125 C-5.041875 18.40375 -5.02125 19.6825 -5 21 C-2.36 21.66 0.28 22.32 3 23 C3 20.03 3 17.06 3 14 C4.98 14 6.96 14 9 14 C9.33 14.66 9.66 15.32 10 16 C18.25 16 26.5 16 35 16 C35.33 15.34 35.66 14.68 36 14 C49.53 14 63.06 14 77 14 C77 17.63 77 21.26 77 25 C71.72 25 66.44 25 61 25 C61 25.99 61 26.98 61 28 C61.56847656 27.98839844 62.13695313 27.97679688 62.72265625 27.96484375 C67.60670484 27.90776806 72.18503965 28.18043228 77 29 C77 31.64 77 34.28 77 37 C69.71409984 37.04682155 62.42823335 37.08211748 55.14221191 37.10362434 C51.75718789 37.11395864 48.37226851 37.12792229 44.98730469 37.15087891 C6.5625541 37.39227608 6.5625541 37.39227608 -1 33 C-0.67 32.34 -0.34 31.68 0 31 C0.66 31 1.32 31 2 31 C1.67 30.34 1.34 29.68 1 29 C-1.92713788 28.05065798 -3.42831368 27.76823527 -6.3125 28.9375 C-6.869375 29.288125 -7.42625 29.63875 -8 30 C-9.32 28.35 -10.64 26.7 -12 25 C-11.67 24.67 -11.34 24.34 -11 24 C-10.95907063 21.66702567 -10.95758277 19.33294775 -11 17 C-12.32 17 -13.64 17 -15 17 C-14.67 14.36 -14.34 11.72 -14 9 C-13.195625 9.020625 -12.39125 9.04125 -11.5625 9.0625 C-9.06645115 9.29633621 -9.06645115 9.29633621 -8 8 C-7.95919217 6.00041636 -7.95745644 3.99954746 -8 2 C-5.09399739 0.74335022 -3.20395416 0 0 0 Z M9 25 C9.33 26.65 9.66 28.3 10 30 C22.87 29.01 22.87 29.01 36 28 C36.33 27.01 36.66 26.02 37 25 C27.76 25 18.52 25 9 25 Z " fill="#B6D2FE" transform="translate(24,88)"/>
<path d="M0 0 C3.3 0 6.6 0 10 0 C10 1.98 10 3.96 10 6 C15.55493924 7.02703748 15.55493924 7.02703748 21 6 C21.433125 7.134375 21.86625 8.26875 22.3125 9.4375 C23.3061169 11.45153786 23.3061169 11.45153786 25 13 C27.93713773 13.71501749 30.6179844 13.87371097 33.63671875 13.9296875 C36 14 36 14 37 15 C37.08748207 16.92667507 37.10697334 18.85651861 37.09765625 20.78515625 C37.09443359 21.95498047 37.09121094 23.12480469 37.08789062 24.33007812 C37.07532227 26.17762695 37.07532227 26.17762695 37.0625 28.0625 C37.05798828 29.29806641 37.05347656 30.53363281 37.04882812 31.80664062 C37.03699608 34.87114117 37.02051173 37.93554721 37 41 C38.98 41 40.96 41 43 41 C44.8684361 44.84678022 45.05395731 46.8895665 44 51 C44 52.32 44 53.64 44 55 C43.34 55.66 42.68 56.32 42 57 C41.01 56.67 40.02 56.34 39 56 C38.34 57.32 37.68 58.64 37 60 C35.02 60 33.04 60 31 60 C30.6596875 59.0409375 30.6596875 59.0409375 30.3125 58.0625 C29.14749104 55.72806339 29.14749104 55.72806339 26.375 55.25 C25.59125 55.1675 24.8075 55.085 24 55 C22.74458443 51.23375329 23.62938042 49.62811066 25 46 C24.34 46 23.68 46 23 46 C23 45.34 23 44.68 23 44 C22.01 44 21.02 44 20 44 C20.04125 43.071875 20.0825 42.14375 20.125 41.1875 C20.27136339 37.84190281 20.27136339 37.84190281 18 35 C18.66 35 19.32 35 20 35 C19.34 33.68 18.68 32.36 18 31 C11.07 30.67 4.14 30.34 -3 30 C-3 29.34 -3 28.68 -3 28 C-6.63 28 -10.26 28 -14 28 C-14.33 27.01 -14.66 26.02 -15 25 C-14.360625 24.814375 -13.72125 24.62875 -13.0625 24.4375 C-10.57873787 23.05753944 -10.57873787 23.05753944 -10.25 19.375 C-10.1675 18.26125 -10.085 17.1475 -10 16 C-12.475 15.01 -12.475 15.01 -15 14 C-13.87548273 11.0280615 -12.77706209 8.66559313 -11 6 C-9.906875 6.20625 -8.81375 6.4125 -7.6875 6.625 C-3.9161599 7.40346525 -3.9161599 7.40346525 -1 5 C-0.27034634 2.43717258 -0.27034634 2.43717258 0 0 Z M-2 13 C-4.2084626 16.31269391 -4.80664241 18.14978851 -4.5546875 22.0625 C-3.4812192 25.81207941 -1.28696911 27.01541488 2 29 C4.63836977 29.1672392 4.63836977 29.1672392 7 29 C7.03738281 28.01257813 7.07476562 27.02515625 7.11328125 26.0078125 C7.17902344 24.72648437 7.24476562 23.44515625 7.3125 22.125 C7.37050781 20.84882812 7.42851563 19.57265625 7.48828125 18.2578125 C7.65714844 17.18273437 7.82601562 16.10765625 8 15 C8.99 14.34 9.98 13.68 11 13 C9.01607489 10.60148679 9.01607489 10.60148679 5.1875 10.5625 C1.82266671 10.66669338 0.95629969 11.02913354 -2 13 Z M29 46 C28.6366844 48.83386167 28.6431329 50.40522151 30.125 52.875 C32.92151052 54.55290631 34.93690532 53.74875648 38 53 C38.67673447 49.59679066 38.67673447 49.59679066 39 46 C37.11499729 43.68436913 37.11499729 43.68436913 34 43.75 C30.88500271 43.68436913 30.88500271 43.68436913 29 46 Z " fill="#5CD2E0" transform="translate(98,19)"/>
<path d="M0 0 C1.32091644 0.00033989 1.32091644 0.00033989 2.66851807 0.00068665 C4.08121979 0.02391243 4.08121979 0.02391243 5.52246094 0.04760742 C6.49342712 0.05185226 7.46439331 0.05609711 8.46478271 0.06047058 C11.56241725 0.07724764 14.65939843 0.11489845 17.75683594 0.15307617 C19.85838903 0.16812425 21.95995234 0.18181244 24.06152344 0.1940918 C29.21021223 0.22714807 34.35841335 0.2789241 39.50683594 0.34057617 C39.50683594 1.66057617 39.50683594 2.98057617 39.50683594 4.34057617 C38.84683594 4.34057617 38.18683594 4.34057617 37.50683594 4.34057617 C37.32121094 5.29963867 37.32121094 5.29963867 37.13183594 6.27807617 C36.92558594 6.95870117 36.71933594 7.63932617 36.50683594 8.34057617 C35.16493637 9.01152595 33.81014904 9.65725203 32.44433594 10.27807617 C30.34476921 11.19036798 30.34476921 11.19036798 29.50683594 13.34057617 C28.51683594 13.67057617 27.52683594 14.00057617 26.50683594 14.34057617 C26.17683594 15.99057617 25.84683594 17.64057617 25.50683594 19.34057617 C24.51683594 19.67057617 23.52683594 20.00057617 22.50683594 20.34057617 C22.50683594 21.33057617 22.50683594 22.32057617 22.50683594 23.34057617 C21.84683594 23.34057617 21.18683594 23.34057617 20.50683594 23.34057617 C19.84683594 24.00057617 19.18683594 24.66057617 18.50683594 25.34057617 C17.84683594 25.01057617 17.18683594 24.68057617 16.50683594 24.34057617 C16.50683594 25.00057617 16.50683594 25.66057617 16.50683594 26.34057617 C14.42100713 28.32618228 13.10681702 29.27539699 10.21679688 29.58935547 C9.39985352 29.53175049 8.58291016 29.47414551 7.74121094 29.41479492 C6.85175781 29.36000977 5.96230469 29.30522461 5.04589844 29.2487793 C4.12550781 29.17594727 3.20511719 29.10311523 2.25683594 29.02807617 C1.32097656 28.9668457 0.38511719 28.90561523 -0.57910156 28.8425293 C-2.88517286 28.68957559 -5.1891694 28.52178567 -7.49316406 28.34057617 C-9.01913809 21.2829463 -9.01913809 21.2829463 -6.99316406 17.65307617 C-6.49816406 16.88995117 -6.00316406 16.12682617 -5.49316406 15.34057617 C-9.55340727 17.37859753 -9.55340727 17.37859753 -11.49316406 21.34057617 C-12.48316406 21.34057617 -13.47316406 21.34057617 -14.49316406 21.34057617 C-14.49316406 19.03057617 -14.49316406 16.72057617 -14.49316406 14.34057617 C-13.83316406 14.34057617 -13.17316406 14.34057617 -12.49316406 14.34057617 C-12.57566406 13.08245117 -12.65816406 11.82432617 -12.74316406 10.52807617 C-12.74316406 6.59950474 -12.74316406 6.59950474 -10.74316406 4.52807617 C-10.00066406 4.13620117 -9.25816406 3.74432617 -8.49316406 3.34057617 C-7.87942932 2.82810837 -7.26569458 2.31564056 -6.63336182 1.78764343 C-4.15794599 0.11392277 -2.95229613 -0.02545083 0 0 Z " fill="#655DFE" transform="translate(49.4931640625,57.659423828125)"/>
<path d="M0 0 C5.82071622 -0.02464638 11.64140234 -0.0428343 17.4621582 -0.05493164 C19.44393441 -0.05997267 21.42570689 -0.06680538 23.4074707 -0.07543945 C26.24952109 -0.08751515 29.09152247 -0.09323045 31.93359375 -0.09765625 C32.82525742 -0.10281754 33.71692108 -0.10797882 34.63560486 -0.11329651 C36.75740601 -0.11349177 38.8791078 -0.0621003 41 0 C41.495 0.495 41.495 0.495 42 1 C43.84891946 1.23363881 45.70488031 1.41303635 47.5625 1.5625 C49.08037109 1.68818359 49.08037109 1.68818359 50.62890625 1.81640625 C51.80259766 1.90728516 51.80259766 1.90728516 53 2 C53 2.66 53 3.32 53 4 C53.62567871 3.98952637 54.25135742 3.97905273 54.89599609 3.96826172 C57.7222901 3.92676809 60.54852011 3.90069527 63.375 3.875 C64.35984375 3.85824219 65.3446875 3.84148438 66.359375 3.82421875 C67.30039063 3.81777344 68.24140625 3.81132813 69.2109375 3.8046875 C70.51490479 3.78897705 70.51490479 3.78897705 71.84521484 3.77294922 C74 4 74 4 76 6 C75.66666667 7.33333333 75.33333333 8.66666667 75 10 C75.99 10.99 75.99 10.99 77 12 C77.22705078 14.61376953 77.22705078 14.61376953 77.1953125 17.8828125 C77.18886719 19.04941406 77.18242188 20.21601562 77.17578125 21.41796875 C77.15064453 23.25294922 77.15064453 23.25294922 77.125 25.125 C77.11597656 26.35605469 77.10695313 27.58710937 77.09765625 28.85546875 C77.07402548 31.90383815 77.04108054 34.95182382 77 38 C79.31 38 81.62 38 84 38 C84.33 38.99 84.66 39.98 85 41 C76.19039858 42.30512614 67.80960142 42.30512614 59 41 C59.33 40.01 59.66 39.02 60 38 C64.29 38 68.58 38 73 38 C73 31.4 73 24.8 73 18 C69.7 18 66.4 18 63 18 C63 15.03 63 12.06 63 9 C60.69 9 58.38 9 56 9 C55.67 9.99 55.34 10.98 55 12 C47.18547248 12.02526563 39.37095542 12.04283105 31.55639648 12.05493164 C28.89558519 12.05997383 26.23477668 12.06680736 23.57397461 12.07543945 C19.75894484 12.08751009 15.94395156 12.09322929 12.12890625 12.09765625 C10.33206139 12.10539818 10.33206139 12.10539818 8.49891663 12.11329651 C6.84731789 12.11340981 6.84731789 12.11340981 5.16235352 12.11352539 C4.18750504 12.115746 3.21265656 12.11796661 2.20826721 12.12025452 C0 12 0 12 -1 11 C-1.09823996 9.52351124 -1.12973519 8.04224583 -1.125 6.5625 C-1.12757812 5.75941406 -1.13015625 4.95632812 -1.1328125 4.12890625 C-1 2 -1 2 0 0 Z " fill="#3CB4DF" transform="translate(42,45)"/>
<path d="M0 0 C1.85776765 3.13498292 2.20140476 5.37471432 2 9 C1.030625 9.28875 0.06125 9.5775 -0.9375 9.875 C-4.10664203 10.64214682 -4.10664203 10.64214682 -5 13 C-5.0689472 14.37342831 -5.08467708 15.75002102 -5.0625 17.125 C-5.041875 18.40375 -5.02125 19.6825 -5 21 C1.88824069 23.40990104 1.88824069 23.40990104 9 25 C9.33 26.32 9.66 27.64 10 29 C18.58 28.67 27.16 28.34 36 28 C35.67 28.66 35.34 29.32 35 30 C32.35139573 30.59355614 29.70802678 30.74209269 27 31 C27 31.66 27 32.32 27 33 C41.19 33 55.38 33 70 33 C69.67 32.34 69.34 31.68 69 31 C67.845 30.835 66.69 30.67 65.5 30.5 C64.345 30.335 63.19 30.17 62 30 C61.505 29.01 61.505 29.01 61 28 C66.45769811 27.88861841 71.61509359 28.08342019 77 29 C77 31.64 77 34.28 77 37 C69.71409984 37.04682155 62.42823335 37.08211748 55.14221191 37.10362434 C51.75718789 37.11395864 48.37226851 37.12792229 44.98730469 37.15087891 C6.5625541 37.39227608 6.5625541 37.39227608 -1 33 C-0.67 32.34 -0.34 31.68 0 31 C0.66 31 1.32 31 2 31 C1.67 30.34 1.34 29.68 1 29 C-1.92713788 28.05065798 -3.42831368 27.76823527 -6.3125 28.9375 C-6.869375 29.288125 -7.42625 29.63875 -8 30 C-9.32 28.35 -10.64 26.7 -12 25 C-11.67 24.67 -11.34 24.34 -11 24 C-10.95907063 21.66702567 -10.95758277 19.33294775 -11 17 C-12.32 17 -13.64 17 -15 17 C-14.67 14.36 -14.34 11.72 -14 9 C-13.195625 9.020625 -12.39125 9.04125 -11.5625 9.0625 C-9.06645115 9.29633621 -9.06645115 9.29633621 -8 8 C-7.95919217 6.00041636 -7.95745644 3.99954746 -8 2 C-5.09399739 0.74335022 -3.20395416 0 0 0 Z " fill="#EAEBF2" transform="translate(24,88)"/>
<path d="M0 0 C2.97 0 5.94 0 9 0 C9 6.6 9 13.2 9 20 C4.71 20 0.42 20 -4 20 C-4.33 24.62 -4.66 29.24 -5 34 C-13.58 34 -22.16 34 -31 34 C-31 32 -31 32 -29.125 29.875 C-27 28 -27 28 -25 28 C-24.67 27.01 -24.34 26.02 -24 25 C-24.33 24.34 -24.66 23.68 -25 23 C-24.113125 22.773125 -23.22625 22.54625 -22.3125 22.3125 C-18.04565865 20.62186475 -15.07506196 18.15012391 -13 14 C-13.66 13.34 -14.32 12.68 -15 12 C-14.071875 11.54625 -13.14375 11.0925 -12.1875 10.625 C-7.85402656 8.60263522 -7.85402656 8.60263522 -5 5 C-4.34 5 -3.68 5 -3 5 C-2.690625 4.360625 -2.38125 3.72125 -2.0625 3.0625 C-1 1 -1 1 0 0 Z " fill="#7284FD" transform="translate(106,63)"/>
<path d="M0 0 C1.17433594 0.01417969 2.34867188 0.02835938 3.55859375 0.04296875 C5.32396484 0.05263672 5.32396484 0.05263672 7.125 0.0625 C9.99609375 0.23046875 9.99609375 0.23046875 10.99609375 1.23046875 C11.08357582 3.15714382 11.10306709 5.08698736 11.09375 7.015625 C11.09052734 8.18544922 11.08730469 9.35527344 11.08398438 10.56054688 C11.07560547 11.79224609 11.06722656 13.02394531 11.05859375 14.29296875 C11.05408203 15.52853516 11.04957031 16.76410156 11.04492188 18.03710938 C11.03308983 21.10160992 11.01660548 24.16601596 10.99609375 27.23046875 C12.97609375 27.23046875 14.95609375 27.23046875 16.99609375 27.23046875 C18.86452985 31.07724897 19.05005106 33.12003525 17.99609375 37.23046875 C17.99609375 38.55046875 17.99609375 39.87046875 17.99609375 41.23046875 C17.33609375 41.89046875 16.67609375 42.55046875 15.99609375 43.23046875 C14.51109375 42.73546875 14.51109375 42.73546875 12.99609375 42.23046875 C12.33609375 43.55046875 11.67609375 44.87046875 10.99609375 46.23046875 C9.01609375 46.23046875 7.03609375 46.23046875 4.99609375 46.23046875 C4.65578125 45.27140625 4.65578125 45.27140625 4.30859375 44.29296875 C3.14358479 41.95853214 3.14358479 41.95853214 0.37109375 41.48046875 C-0.41265625 41.39796875 -1.19640625 41.31546875 -2.00390625 41.23046875 C-3.25932182 37.46422204 -2.37452583 35.85857941 -1.00390625 32.23046875 C-1.66390625 32.23046875 -2.32390625 32.23046875 -3.00390625 32.23046875 C-3.00390625 31.57046875 -3.00390625 30.91046875 -3.00390625 30.23046875 C-3.99390625 30.23046875 -4.98390625 30.23046875 -6.00390625 30.23046875 C-5.81640625 27.35546875 -5.81640625 27.35546875 -5.00390625 24.23046875 C-2.44140625 22.85546875 -2.44140625 22.85546875 -0.00390625 22.23046875 C-0.00390625 21.57046875 -0.00390625 20.91046875 -0.00390625 20.23046875 C-0.66390625 20.23046875 -1.32390625 20.23046875 -2.00390625 20.23046875 C-2.33390625 18.25046875 -2.66390625 16.27046875 -3.00390625 14.23046875 C1.28609375 14.23046875 5.57609375 14.23046875 9.99609375 14.23046875 C9.66609375 13.24046875 9.33609375 12.25046875 8.99609375 11.23046875 C8.23296875 11.14796875 7.46984375 11.06546875 6.68359375 10.98046875 C3.99609375 10.23046875 3.99609375 10.23046875 2.62109375 8.16796875 C2.08484375 7.52859375 1.54859375 6.88921875 0.99609375 6.23046875 C-2.62954439 5.89666061 -2.62954439 5.89666061 -6.00390625 6.23046875 C-5.18360213 2.12894816 -4.50366236 0.34553456 0 0 Z M2.99609375 32.23046875 C2.63277815 35.06433042 2.63922665 36.63569026 4.12109375 39.10546875 C6.91760427 40.78337506 8.93299907 39.97922523 11.99609375 39.23046875 C12.67282822 35.82725941 12.67282822 35.82725941 12.99609375 32.23046875 C11.11109104 29.91483788 11.11109104 29.91483788 7.99609375 29.98046875 C4.88109646 29.91483788 4.88109646 29.91483788 2.99609375 32.23046875 Z " fill="#35DEC3" transform="translate(124.00390625,32.76953125)"/>
<path d="M0 0 C1.12019531 -0.00128906 2.24039063 -0.00257812 3.39453125 -0.00390625 C4.57402344 -0.00003906 5.75351562 0.00382812 6.96875 0.0078125 C8.73798828 0.00201172 8.73798828 0.00201172 10.54296875 -0.00390625 C12.22326172 -0.00197266 12.22326172 -0.00197266 13.9375 0 C14.97326172 0.00112793 16.00902344 0.00225586 17.07617188 0.00341797 C19.46875 0.1328125 19.46875 0.1328125 20.46875 1.1328125 C20.56861975 3.97616298 20.60752881 6.78978413 20.59375 9.6328125 C20.59955078 10.82970703 20.59955078 10.82970703 20.60546875 12.05078125 C20.59535767 18.00620483 20.59535767 18.00620483 19.46875 19.1328125 C17.62715977 19.23240871 15.78178033 19.26361661 13.9375 19.265625 C12.81730469 19.26691406 11.69710937 19.26820312 10.54296875 19.26953125 C9.36347656 19.26566406 8.18398438 19.26179688 6.96875 19.2578125 C5.19951172 19.26361328 5.19951172 19.26361328 3.39453125 19.26953125 C1.71423828 19.26759766 1.71423828 19.26759766 0 19.265625 C-1.03576172 19.26449707 -2.07152344 19.26336914 -3.13867188 19.26220703 C-5.53125 19.1328125 -5.53125 19.1328125 -6.53125 18.1328125 C-6.63111975 15.28946202 -6.67002881 12.47584087 -6.65625 9.6328125 C-6.66011719 8.83488281 -6.66398437 8.03695312 -6.66796875 7.21484375 C-6.65573175 0.007248 -6.65573175 0.007248 0 0 Z " fill="#37DAC4" transform="translate(39.53125,85.8671875)"/>
<path d="M0 0 C1.25039063 0.00966797 2.50078125 0.01933594 3.7890625 0.02929688 C5.74199219 0.06700195 5.74199219 0.06700195 7.734375 0.10546875 C9.05179688 0.11900391 10.36921875 0.13253906 11.7265625 0.14648438 C14.97957821 0.18184324 18.231771 0.23119842 21.484375 0.29296875 C21.154375 0.95296875 20.824375 1.61296875 20.484375 2.29296875 C17.484375 3.29296875 17.484375 3.29296875 14.484375 2.29296875 C14.154375 3.94296875 13.824375 5.59296875 13.484375 7.29296875 C12.494375 7.62296875 11.504375 7.95296875 10.484375 8.29296875 C10.154375 9.28296875 9.824375 10.27296875 9.484375 11.29296875 C8.494375 11.62296875 7.504375 11.95296875 6.484375 12.29296875 C6.154375 13.28296875 5.824375 14.27296875 5.484375 15.29296875 C4.824375 15.29296875 4.164375 15.29296875 3.484375 15.29296875 C3.484375 15.95296875 3.484375 16.61296875 3.484375 17.29296875 C-1.390625 18.29296875 -1.390625 18.29296875 -2.515625 18.29296875 C-2.845625 19.28296875 -3.175625 20.27296875 -3.515625 21.29296875 C-6.578125 22.98046875 -6.578125 22.98046875 -9.515625 24.29296875 C-10.175625 23.30296875 -10.835625 22.31296875 -11.515625 21.29296875 C-11.020625 20.85984375 -10.525625 20.42671875 -10.015625 19.98046875 C-8.18344308 18.29556392 -8.18344308 18.29556392 -8.515625 15.29296875 C-11.88650767 17.56712162 -11.88650767 17.56712162 -13.515625 21.29296875 C-14.505625 21.29296875 -15.495625 21.29296875 -16.515625 21.29296875 C-16.515625 18.98296875 -16.515625 16.67296875 -16.515625 14.29296875 C-15.855625 14.29296875 -15.195625 14.29296875 -14.515625 14.29296875 C-14.598125 13.03484375 -14.680625 11.77671875 -14.765625 10.48046875 C-14.765625 6.55189732 -14.765625 6.55189732 -12.765625 4.48046875 C-12.023125 4.08859375 -11.280625 3.69671875 -10.515625 3.29296875 C-9.94360352 2.77951904 -9.37158203 2.26606934 -8.78222656 1.73706055 C-5.72895225 -0.20823432 -3.60076093 -0.04910129 0 0 Z " fill="#604FFE" transform="translate(51.515625,57.70703125)"/>
<path d="M0 0 C1.98 0 3.96 0 6 0 C6 12.54 6 25.08 6 38 C-2.25 38 -10.5 38 -19 38 C-19.15384615 23.07692308 -19.15384615 23.07692308 -18 18 C-17.34 17.67 -16.68 17.34 -16 17 C-15.67 20.3 -15.34 23.6 -15 27 C-9.72 27 -4.44 27 1 27 C1.33 21.39 1.66 15.78 2 10 C-1.63 10 -5.26 10 -9 10 C-8.34 9.34 -7.68 8.68 -7 8 C-6.34 8 -5.68 8 -5 8 C-5 7.01 -5 6.02 -5 5 C-3.625 3.3125 -3.625 3.3125 -2 2 C-1.34 2 -0.68 2 0 2 C0 1.34 0 0.68 0 0 Z " fill="#7286FE" transform="translate(121,86)"/>
<path d="M0 0 C0.83265381 0.00523682 1.66530762 0.01047363 2.52319336 0.01586914 C3.33280518 0.0183667 4.14241699 0.02086426 4.9765625 0.0234375 C6.01159912 0.0325415 7.04663574 0.04164551 8.11303711 0.05102539 C11.39241211 0.07165039 14.67178711 0.09227539 18.05053711 0.11352539 C18.05053711 7.04352539 18.05053711 13.97352539 18.05053711 21.11352539 C11.12053711 21.11352539 4.19053711 21.11352539 -2.94946289 21.11352539 C-2.97008789 17.83415039 -2.99071289 14.55477539 -3.01196289 11.17602539 C-3.02106689 10.14098877 -3.0301709 9.10595215 -3.03955078 8.03955078 C-3.04329712 6.82513306 -3.04329712 6.82513306 -3.04711914 5.58618164 C-3.05235596 4.75352783 -3.05759277 3.92087402 -3.06298828 3.06298828 C-2.90876673 0.41468917 -2.64829911 0.15422155 0 0 Z " fill="#31C7DD" transform="translate(15.949462890625,58.886474609375)"/>
<path d="M0 0 C3.3 0 6.6 0 10 0 C10 1.98 10 3.96 10 6 C14.20594226 6.72795155 16.80104745 7.04973814 21 6 C22.32 8.64 23.64 11.28 25 14 C22.70858714 14.05384521 20.41681812 14.09272087 18.125 14.125 C16.21074219 14.15980469 16.21074219 14.15980469 14.2578125 14.1953125 C11 14 11 14 9 12 C3.45764755 11.42765564 3.45764755 11.42765564 -1.5 13.5 C-3.71177972 17.18629954 -3.34421275 19.73176192 -3 24 C-2.67 24.66 -2.34 25.32 -2 26 C-6.29 26 -10.58 26 -15 26 C-13.68 25.01 -12.36 24.02 -11 23 C-10.18685089 19.39534252 -10.18685089 19.39534252 -10 16 C-12.475 15.01 -12.475 15.01 -15 14 C-13.87548273 11.0280615 -12.77706209 8.66559313 -11 6 C-9.906875 6.20625 -8.81375 6.4125 -7.6875 6.625 C-3.9161599 7.40346525 -3.9161599 7.40346525 -1 5 C-0.27034634 2.43717258 -0.27034634 2.43717258 0 0 Z " fill="#E8EAF1" transform="translate(98,19)"/>
<path d="M0 0 C1.58206057 0.00667536 3.16410534 0.0186375 4.74609375 0.03515625 C5.55240234 0.03966797 6.35871094 0.04417969 7.18945312 0.04882812 C9.18753131 0.06065107 11.18557158 0.07858711 13.18359375 0.09765625 C13.21043687 2.91021906 13.23035563 5.72252866 13.24609375 8.53515625 C13.25447266 9.33759766 13.26285156 10.14003906 13.27148438 10.96679688 C13.28010805 13.01060846 13.23587525 15.05449527 13.18359375 17.09765625 C11.36243372 18.91881628 8.87687611 18.23000705 6.45703125 18.234375 C5.70679687 18.23050781 4.9565625 18.22664063 4.18359375 18.22265625 C3.05824219 18.22845703 3.05824219 18.22845703 1.91015625 18.234375 C-3.68979572 18.22426678 -3.68979572 18.22426678 -4.81640625 17.09765625 C-4.91621839 14.42034245 -4.955205 11.7746145 -4.94140625 9.09765625 C-4.94527344 8.34742187 -4.94914062 7.5971875 -4.953125 6.82421875 C-4.94103514 0.12643386 -4.94103514 0.12643386 0 0 Z " fill="#3DD0E3" transform="translate(109.81640625,95.90234375)"/>
<path d="M0 0 C16.83 0 33.66 0 51 0 C51 1.98 51 3.96 51 6 C34.17 6 17.34 6 0 6 C0 4.02 0 2.04 0 0 Z " fill="#424186" transform="translate(44,47)"/>
<path d="M0 0 C13.53 0 27.06 0 41 0 C41 1.65 41 3.3 41 5 C27.47 5 13.94 5 0 5 C0 3.35 0 1.7 0 0 Z " fill="#3C3D89" transform="translate(60,97)"/>
<path d="M0 0 C1.08667969 0.02707031 2.17335938 0.05414063 3.29296875 0.08203125 C4.54013672 0.13423828 4.54013672 0.13423828 5.8125 0.1875 C5.915625 1.280625 6.01875 2.37375 6.125 3.5 C6.78557727 7.04309629 7.0152092 8.11993723 9.8125 10.1875 C7.515279 11.93021938 5.21383271 13.58661152 2.8125 15.1875 C2.23501197 17.15111864 2.23501197 17.15111864 2.125 19.3125 C1.9703125 21.230625 1.9703125 21.230625 1.8125 23.1875 C1.1525 23.1875 0.4925 23.1875 -0.1875 23.1875 C-0.5175 18.8975 -0.8475 14.6075 -1.1875 10.1875 C-3.8275 10.1875 -6.4675 10.1875 -9.1875 10.1875 C-9.55218886 3.74466353 -9.55218886 3.74466353 -8.0625 1.46875 C-5.3504604 -0.38447706 -3.24426436 -0.10465369 0 0 Z " fill="#5935FF" transform="translate(35.1875,48.8125)"/>
<path d="M0 0 C1.98 0 3.96 0 6 0 C7.8684361 3.84678022 8.05395731 5.8895665 7 10 C7 11.32 7 12.64 7 14 C6.34 14.66 5.68 15.32 5 16 C4.01 15.67 3.02 15.34 2 15 C1.34 16.32 0.68 17.64 0 19 C-1.98 19 -3.96 19 -6 19 C-6.226875 18.360625 -6.45375 17.72125 -6.6875 17.0625 C-7.85250896 14.72806339 -7.85250896 14.72806339 -10.625 14.25 C-11.40875 14.1675 -12.1925 14.085 -13 14 C-14.25541557 10.23375329 -13.37061958 8.62811066 -12 5 C-12.66 5 -13.32 5 -14 5 C-14 4.34 -14 3.68 -14 3 C-11.36 3 -8.72 3 -6 3 C-6.20625 4.11375 -6.4125 5.2275 -6.625 6.375 C-6.74875 7.57125 -6.8725 8.7675 -7 10 C-5.10244856 12.34973818 -5.10244856 12.34973818 -1.875 12.125 C-0.451875 12.063125 -0.451875 12.063125 1 12 C1.29562367 6.67829506 1.29562367 6.67829506 -1 2 C-0.67 1.34 -0.34 0.68 0 0 Z " fill="#EAEAF1" transform="translate(135,60)"/>
<path d="M0 0 C1.05960938 0.00676758 1.05960938 0.00676758 2.140625 0.01367188 C3.88545275 0.02546125 5.630237 0.04339676 7.375 0.0625 C7.375 0.3925 7.375 0.7225 7.375 1.0625 C5.725 1.3925 4.075 1.7225 2.375 2.0625 C2.87331724 5.75004757 3.47567643 7.66740662 6.375 10.0625 C4.395 11.0525 4.395 11.0525 2.375 12.0625 C2.375 12.7225 2.375 13.3825 2.375 14.0625 C1.715 14.0625 1.055 14.0625 0.375 14.0625 C0.375 13.0725 0.375 12.0825 0.375 11.0625 C-0.615 11.0625 -1.605 11.0625 -2.625 11.0625 C-2.955 12.7125 -3.285 14.3625 -3.625 16.0625 C-4.285 16.0625 -4.945 16.0625 -5.625 16.0625 C-5.955 15.4025 -6.285 14.7425 -6.625 14.0625 C-7.264375 13.753125 -7.90375 13.44375 -8.5625 13.125 C-10.625 12.0625 -10.625 12.0625 -12.625 9.0625 C-13.25 6.875 -13.25 6.875 -13.625 5.0625 C-12.635 4.7325 -11.645 4.4025 -10.625 4.0625 C-10.295 3.0725 -9.965 2.0825 -9.625 1.0625 C-6.55966836 -0.47016582 -3.35745728 -0.04026471 0 0 Z " fill="#3FA4E6" transform="translate(49.625,85.9375)"/>
<path d="M0 0 C0.83265381 0.00523682 1.66530762 0.01047363 2.52319336 0.01586914 C3.42231445 0.0190918 4.32143555 0.02231445 5.24780273 0.02563477 C6.66609375 0.03820312 6.66609375 0.03820312 8.11303711 0.05102539 C9.06243164 0.05553711 10.01182617 0.06004883 10.98999023 0.06469727 C13.34356776 0.07652429 15.69702188 0.09300514 18.05053711 0.11352539 C18.14819336 6.26586914 18.14819336 6.26586914 18.05053711 8.11352539 C16.4944696 9.6695929 14.9909634 9.24323308 12.83178711 9.24633789 C11.55754883 9.24827148 11.55754883 9.24827148 10.25756836 9.25024414 C8.91758789 9.24444336 8.91758789 9.24444336 7.55053711 9.23852539 C6.6572168 9.24239258 5.76389648 9.24625977 4.84350586 9.25024414 C3.99401367 9.24895508 3.14452148 9.24766602 2.26928711 9.24633789 C1.48489258 9.24520996 0.70049805 9.24408203 -0.10766602 9.24291992 C-1.94946289 9.11352539 -1.94946289 9.11352539 -2.94946289 8.11352539 C-3.07446289 4.61352539 -3.07446289 4.61352539 -2.94946289 1.11352539 C-1.94946289 0.11352539 -1.94946289 0.11352539 0 0 Z " fill="#35C5CB" transform="translate(15.949462890625,31.886474609375)"/>
<path d="M0 0 C1.98 0 3.96 0 6 0 C6.33 0.66 6.66 1.32 7 2 C10.56073004 2.35971569 14.10322357 2.44476379 17.6796875 2.55859375 C21 3 21 3 22.9453125 4.53515625 C23.29335938 5.01855469 23.64140625 5.50195312 24 6 C23.01 6.495 23.01 6.495 22 7 C21.01 6.67 20.02 6.34 19 6 C18.855625 6.639375 18.71125 7.27875 18.5625 7.9375 C18 10 18 10 17 11 C14.3226862 11.09981214 11.67695825 11.13879875 9 11.125 C7.87464844 11.13080078 7.87464844 11.13080078 6.7265625 11.13671875 C1.12661053 11.12661053 1.12661053 11.12661053 0 10 C-0.07205511 8.31391034 -0.08386068 6.62499341 -0.0625 4.9375 C-0.05347656 4.01839844 -0.04445313 3.09929687 -0.03515625 2.15234375 C-0.02355469 1.44207031 -0.01195313 0.73179688 0 0 Z " fill="#C5DCFE" transform="translate(27,102)"/>
<path d="M0 0 C0.69738281 0.01353516 1.39476563 0.02707031 2.11328125 0.04101562 C3.82585541 0.0762055 5.53802941 0.13000845 7.25 0.1875 C6.92 0.8475 6.59 1.5075 6.25 2.1875 C4.92696283 2.5596042 3.59262065 2.89380173 2.25 3.1875 C1.92 3.5175 1.59 3.8475 1.25 4.1875 C0.26 4.8475 -0.73 5.5075 -1.75 6.1875 C-2.41 5.8575 -3.07 5.5275 -3.75 5.1875 C-4.08 6.1775 -4.41 7.1675 -4.75 8.1875 C-5.41 8.1875 -6.07 8.1875 -6.75 8.1875 C-7.08 9.1775 -7.41 10.1675 -7.75 11.1875 C-8.74 11.6825 -8.74 11.6825 -9.75 12.1875 C-9.75 13.1775 -9.75 14.1675 -9.75 15.1875 C-11.06787285 16.20778865 -12.40210653 17.20721384 -13.75 18.1875 C-14.08 19.1775 -14.41 20.1675 -14.75 21.1875 C-15.74 21.1875 -16.73 21.1875 -17.75 21.1875 C-17.75 18.8775 -17.75 16.5675 -17.75 14.1875 C-17.09 14.1875 -16.43 14.1875 -15.75 14.1875 C-15.8325 12.929375 -15.915 11.67125 -16 10.375 C-16 6.44642857 -16 6.44642857 -14 4.375 C-13.2575 3.983125 -12.515 3.59125 -11.75 3.1875 C-10.93015625 2.4140625 -10.93015625 2.4140625 -10.09375 1.625 C-6.80093463 -0.39459343 -3.73356127 -0.13762655 0 0 Z " fill="#5D41FF" transform="translate(52.75,57.8125)"/>
<path d="M0 0 C1.32 0 2.64 0 4 0 C4 6.6 4 13.2 4 20 C6.31 20 8.62 20 11 20 C11.33 20.99 11.66 21.98 12 23 C3.19039858 24.30512614 -5.19039858 24.30512614 -14 23 C-13.505 21.515 -13.505 21.515 -13 20 C-8.71 20 -4.42 20 0 20 C0 13.4 0 6.8 0 0 Z " fill="#4C4CA1" transform="translate(115,63)"/>
<path d="M0 0 C1.4540625 0.0309375 1.4540625 0.0309375 2.9375 0.0625 C3.11023438 0.70703125 3.28296875 1.3515625 3.4609375 2.015625 C4.86732628 4.46695882 4.86732628 4.46695882 8.4140625 4.671875 C9.796073 4.73831781 11.1791781 4.7844252 12.5625 4.8125 C13.26890625 4.84214844 13.9753125 4.87179688 14.703125 4.90234375 C16.44730047 4.97305357 18.19240827 5.02004035 19.9375 5.0625 C20.4325 6.5475 20.4325 6.5475 20.9375 8.0625 C8.3975 8.0625 -4.1425 8.0625 -17.0625 8.0625 C-17.3925 7.4025 -17.7225 6.7425 -18.0625 6.0625 C-15.0925 6.0625 -12.1225 6.0625 -9.0625 6.0625 C-9.0625 4.4125 -9.0625 2.7625 -9.0625 1.0625 C-7.8559375 1.0934375 -7.8559375 1.0934375 -6.625 1.125 C-3.4084517 1.0465476 -3.39792468 0.0693454 0 0 Z " fill="#9FC3FE" transform="translate(73.0625,112.9375)"/>
<path d="M0 0 C1.31871094 -0.01224609 2.63742188 -0.02449219 3.99609375 -0.03710938 C5.90068359 -0.04000977 5.90068359 -0.04000977 7.84375 -0.04296875 C9.00068359 -0.04707764 10.15761719 -0.05118652 11.34960938 -0.05541992 C14.47736509 0.18575467 16.680892 0.85423629 19.5 2.1875 C18.5 4.1875 18.5 4.1875 16.84521484 4.80200195 C11.99200924 5.59975457 7.04404055 5.37340312 2.13769531 5.37280273 C0.13863013 5.37498512 -1.86039532 5.39349143 -3.859375 5.41210938 C-5.13039063 5.41404297 -6.40140625 5.41597656 -7.7109375 5.41796875 C-8.86899902 5.42207764 -10.02706055 5.42618652 -11.22021484 5.43041992 C-14.61310954 5.17912245 -17.33332989 4.39923908 -20.5 3.1875 C-20.17 2.5275 -19.84 1.8675 -19.5 1.1875 C-13.23640183 -0.60566158 -6.45139424 0.00315317 0 0 Z " fill="#EAEBF2" transform="translate(114.5,125.8125)"/>
<path d="M0 0 C1.98 0 3.96 0 6 0 C6.05416741 2.72943537 6.09375225 5.45778564 6.125 8.1875 C6.15013672 9.34088867 6.15013672 9.34088867 6.17578125 10.51757812 C6.21266851 14.8149434 5.9958504 18.07901831 4 22 C3.34 22 2.68 22 2 22 C2 18.04 2 14.08 2 10 C-1.63 10 -5.26 10 -9 10 C-8.34 9.34 -7.68 8.68 -7 8 C-6.34 8 -5.68 8 -5 8 C-5 7.01 -5 6.02 -5 5 C-3.625 3.3125 -3.625 3.3125 -2 2 C-1.34 2 -0.68 2 0 2 C0 1.34 0 0.68 0 0 Z " fill="#645AFE" transform="translate(121,86)"/>
<path d="M0 0 C1.17433594 0.01417969 2.34867188 0.02835938 3.55859375 0.04296875 C5.32396484 0.05263672 5.32396484 0.05263672 7.125 0.0625 C9.99609375 0.23046875 9.99609375 0.23046875 10.99609375 1.23046875 C11.06868321 3.41686328 11.07983158 5.60547264 11.05859375 7.79296875 C11.04957031 8.99050781 11.04054687 10.18804687 11.03125 11.421875 C11.01964844 12.34871094 11.00804687 13.27554688 10.99609375 14.23046875 C10.33609375 13.24046875 9.67609375 12.25046875 8.99609375 11.23046875 C8.19171875 11.08609375 7.38734375 10.94171875 6.55859375 10.79296875 C3.99609375 10.23046875 3.99609375 10.23046875 2.62109375 8.16796875 C2.08484375 7.52859375 1.54859375 6.88921875 0.99609375 6.23046875 C-2.62954439 5.89666061 -2.62954439 5.89666061 -6.00390625 6.23046875 C-5.18360213 2.12894816 -4.50366236 0.34553456 0 0 Z " fill="#39D4D2" transform="translate(124.00390625,32.76953125)"/>
<path d="M0 0 C1.65 0 3.3 0 5 0 C5 3.96 5 7.92 5 12 C-1.93 12 -8.86 12 -16 12 C-16 11.01 -16 10.02 -16 9 C-15.19175781 8.86722656 -14.38351562 8.73445313 -13.55078125 8.59765625 C-12.48214844 8.42105469 -11.41351563 8.24445313 -10.3125 8.0625 C-9.25675781 7.88847656 -8.20101563 7.71445313 -7.11328125 7.53515625 C-4.39750396 7.06832879 -1.69875765 6.55577384 1 6 C0.67 4.02 0.34 2.04 0 0 Z " fill="#35DAC5" transform="translate(29,68)"/>
<path d="M0 0 C0 0.99 0 1.98 0 3 C0.185625 3.845625 0.37125 4.69125 0.5625 5.5625 C1 8 1 8 0 10 C-4.29 10 -8.58 10 -13 10 C-13 7.03 -13 4.06 -13 1 C-8.62426048 0.40667939 -4.42471556 -0.13827236 0 0 Z " fill="#3BC4D5" transform="translate(118,53)"/>
<path d="M0 0 C0.99 0 1.98 0 3 0 C3.33 0.66 3.66 1.32 4 2 C6.02463255 2.65213292 6.02463255 2.65213292 8 3 C8 5.64 8 8.28 8 11 C5.09399739 12.25664978 3.20395416 13 0 13 C0 12.34 0 11.68 0 11 C-1.65 10.67 -3.3 10.34 -5 10 C-5 7.69 -5 5.38 -5 3 C-3.35 2.67 -1.7 2.34 0 2 C0 1.34 0 0.68 0 0 Z " fill="#E6F6FA" transform="translate(22,63)"/>
<path d="M0 0 C0.02685938 2.14576637 0.04633088 4.29162645 0.0625 6.4375 C0.07410156 7.63246094 0.08570312 8.82742187 0.09765625 10.05859375 C0 13 0 13 -1 14 C-3.01964199 14.07244053 -5.04167124 14.08377188 -7.0625 14.0625 C-8.16722656 14.05347656 -9.27195312 14.04445313 -10.41015625 14.03515625 C-11.69212891 14.01775391 -11.69212891 14.01775391 -13 14 C-13.125 9.25 -13.125 9.25 -12 7 C-11.236875 6.71125 -10.47375 6.4225 -9.6875 6.125 C-6.69556842 4.87256353 -5.19447197 3.34581486 -3 1 C-1 0 -1 0 0 0 Z " fill="#38D7D7" transform="translate(123,100)"/>
<path d="M0 0 C2.625 0.25 2.625 0.25 4.4375 1.625 C5.625 3.25 5.625 3.25 5.625 5.25 C7.275 5.25 8.925 5.25 10.625 5.25 C10.955 6.24 11.285 7.23 11.625 8.25 C4.035 8.25 -3.555 8.25 -11.375 8.25 C-11.045 7.26 -10.715 6.27 -10.375 5.25 C-8.725 5.25 -7.075 5.25 -5.375 5.25 C-5.065625 4.610625 -4.75625 3.97125 -4.4375 3.3125 C-2.88764755 0.3039629 -2.88764755 0.3039629 0 0 Z " fill="#F9FDFD" transform="translate(122.375,37.75)"/>
<path d="M0 0 C0.33 0 0.66 0 1 0 C1.33 3.3 1.66 6.6 2 10 C4.97 10.33 7.94 10.66 11 11 C11 12.32 11 13.64 11 15 C9.35 15 7.7 15 6 15 C6 16.32 6 17.64 6 19 C5.01 19 4.02 19 3 19 C2.67 19.66 2.34 20.32 2 21 C0.68 21 -0.64 21 -2 21 C-2.19181946 6.82667294 -2.19181946 6.82667294 -1 1 C-0.67 0.67 -0.34 0.34 0 0 Z " fill="#6C72FE" transform="translate(104,103)"/>
<path d="M0 0 C4.29 0 8.58 0 13 0 C13 0.66 13 1.32 13 2 C12.34 2 11.68 2 11 2 C10.34 4.31 9.68 6.62 9 9 C7.02 9.33 5.04 9.66 3 10 C2.67 11.32 2.34 12.64 2 14 C2.99 14.33 3.98 14.66 5 15 C2.29120665 16.35439668 -0.00933268 16.06501451 -3 16 C-2.8125 13.125 -2.8125 13.125 -2 10 C0.5625 8.625 0.5625 8.625 3 8 C3 7.34 3 6.68 3 6 C2.34 6 1.68 6 1 6 C0.67 4.02 0.34 2.04 0 0 Z " fill="#37D8CD" transform="translate(121,47)"/>
<path d="M0 0 C1.32 0 2.64 0 4 0 C4 5.61 4 11.22 4 17 C4.99 17 5.98 17 7 17 C7 18.65 7 20.3 7 22 C4.69 22 2.38 22 0 22 C0 14.74 0 7.48 0 0 Z " fill="#41448E" transform="translate(26,80)"/>
<path d="M0 0 C2.05078125 0.03255208 4.1015625 0.06510417 6.15234375 0.09765625 C4.50234375 2.07765625 2.85234375 4.05765625 1.15234375 6.09765625 C2.42175872 10.01168574 3.66402069 11.88838498 7.15234375 14.09765625 C7.48234375 13.10765625 7.81234375 12.11765625 8.15234375 11.09765625 C7.82234375 12.74765625 7.49234375 14.39765625 7.15234375 16.09765625 C3.85234375 16.09765625 0.55234375 16.09765625 -2.84765625 16.09765625 C-2.8745072 13.61841824 -2.89442172 11.13946785 -2.91015625 8.66015625 C-2.92272461 7.59958008 -2.92272461 7.59958008 -2.93554688 6.51757812 C-2.94419213 4.71072066 -2.89985636 2.90378022 -2.84765625 1.09765625 C-1.84765625 0.09765625 -1.84765625 0.09765625 0 0 Z " fill="#419AEA" transform="translate(35.84765625,85.90234375)"/>
<path d="M0 0 C5.94 0 11.88 0 18 0 C18.66 1.32 19.32 2.64 20 4 C15.71702469 5.05619003 11.57014354 5.11702092 7.1875 5.0625 C6.49462891 5.05798828 5.80175781 5.05347656 5.08789062 5.04882812 C3.39188932 5.03713156 1.69593297 5.01919924 0 5 C0 3.35 0 1.7 0 0 Z " fill="#34ADC5" transform="translate(98,49)"/>
<path d="M0 0 C1.81242052 -0.02687279 3.62495233 -0.04633715 5.4375 -0.0625 C6.44683594 -0.07410156 7.45617187 -0.08570312 8.49609375 -0.09765625 C11 0 11 0 12 1 C12.07226502 2.85287502 12.0838122 4.70833878 12.0625 6.5625 C12.05347656 7.57441406 12.04445313 8.58632812 12.03515625 9.62890625 C12.02355469 10.41136719 12.01195313 11.19382812 12 12 C9.36 12 6.72 12 4 12 C4.33 9.69 4.66 7.38 5 5 C2.03 4.505 2.03 4.505 -1 4 C-1 3.67 -1 3.34 -1 3 C1.64 2.67 4.28 2.34 7 2 C4.69 1.67 2.38 1.34 0 1 C0 0.67 0 0.34 0 0 Z " fill="#758EFE" transform="translate(103,70)"/>
<path d="M0 0 C1.08667969 0.02707031 2.17335938 0.05414063 3.29296875 0.08203125 C4.54013672 0.13423828 4.54013672 0.13423828 5.8125 0.1875 C5.8125 1.8375 5.8125 3.4875 5.8125 5.1875 C2.1825 5.1875 -1.4475 5.1875 -5.1875 5.1875 C-5.1875 6.8375 -5.1875 8.4875 -5.1875 10.1875 C-6.5075 10.1875 -7.8275 10.1875 -9.1875 10.1875 C-9.55218886 3.74466353 -9.55218886 3.74466353 -8.0625 1.46875 C-5.3504604 -0.38447706 -3.24426436 -0.10465369 0 0 Z " fill="#3C3D89" transform="translate(35.1875,48.8125)"/>
<path d="M0 0 C13.53 0 27.06 0 41 0 C41.495 0.99 41.495 0.99 42 2 C28.8 2 15.6 2 2 2 C2 2.66 2 3.32 2 4 C1.01 4 0.02 4 -1 4 C-0.67 2.68 -0.34 1.36 0 0 Z " fill="#32CBD9" transform="translate(42,45)"/>
<path d="M0 0 C1.93166016 0.01740234 1.93166016 0.01740234 3.90234375 0.03515625 C5.19269531 0.04417969 6.48304687 0.05320312 7.8125 0.0625 C8.81152344 0.07410156 9.81054688 0.08570312 10.83984375 0.09765625 C9.90011719 0.78794922 9.90011719 0.78794922 8.94140625 1.4921875 C6.8353093 3.01718874 6.8353093 3.01718874 5.21484375 4.78515625 C3.83984375 6.09765625 3.83984375 6.09765625 1.83984375 6.09765625 C1.83984375 6.75765625 1.83984375 7.41765625 1.83984375 8.09765625 C-0.05958703 10.18703011 -1.62456512 11.82986068 -4.16015625 13.09765625 C-4.18702178 11.11856227 -4.20649 9.13936654 -4.22265625 7.16015625 C-4.23425781 6.05800781 -4.24585937 4.95585938 -4.2578125 3.8203125 C-4.11749553 -0.09172464 -3.97435676 0.12281696 0 0 Z " fill="#40C2EE" transform="translate(109.16015625,95.90234375)"/>
<path d="M0 0 C6 1 6 1 7.75 3.4375 C8.36875 4.7059375 8.36875 4.7059375 9 6 C9.66 6.66 10.32 7.32 11 8 C9.02 8.99 9.02 8.99 7 10 C7 10.66 7 11.32 7 12 C6.34 12 5.68 12 5 12 C5 11.01 5 10.02 5 9 C4.01 9 3.02 9 2 9 C1.67 10.65 1.34 12.3 1 14 C0.34 14 -0.32 14 -1 14 C-0.67 9.38 -0.34 4.76 0 0 Z " fill="#83D7E7" transform="translate(45,88)"/>
<path d="M0 0 C1.39456452 0.00667256 2.78911118 0.01863093 4.18359375 0.03515625 C4.89451172 0.03966797 5.60542969 0.04417969 6.33789062 0.04882812 C8.09899388 0.06064761 9.86005411 0.07858362 11.62109375 0.09765625 C11.95109375 0.75765625 12.28109375 1.41765625 12.62109375 2.09765625 C7.67109375 2.09765625 2.72109375 2.09765625 -2.37890625 2.09765625 C-2.37890625 3.41765625 -2.37890625 4.73765625 -2.37890625 6.09765625 C1.58109375 6.09765625 5.54109375 6.09765625 9.62109375 6.09765625 C9.62109375 7.08765625 9.62109375 8.07765625 9.62109375 9.09765625 C7.47532738 9.12451563 5.3294673 9.14398713 3.18359375 9.16015625 C1.98863281 9.17175781 0.79367188 9.18335938 -0.4375 9.1953125 C-3.37890625 9.09765625 -3.37890625 9.09765625 -4.37890625 8.09765625 C-4.50390625 4.59765625 -4.50390625 4.59765625 -4.37890625 1.09765625 C-3.37890625 0.09765625 -3.37890625 0.09765625 0 0 Z " fill="#33CBDB" transform="translate(17.37890625,31.90234375)"/>
<path d="M0 0 C1.32 0 2.64 0 4 0 C4 6.6 4 13.2 4 20 C2.68 19.67 1.36 19.34 0 19 C0 12.73 0 6.46 0 0 Z " fill="#3E3E8B" transform="translate(115,63)"/>
<path d="M0 0 C1.67542976 0.28604898 3.34385343 0.61781233 5 1 C5.97477898 4.72188336 6.12816587 6.64248468 4.8125 10.3125 C3 13 3 13 0.88671875 13.66796875 C0.26410156 13.77753906 -0.35851562 13.88710938 -1 14 C-1.02685938 11.85423363 -1.04633088 9.70837355 -1.0625 7.5625 C-1.07410156 6.36753906 -1.08570312 5.17257813 -1.09765625 3.94140625 C-1 1 -1 1 0 0 Z " fill="#32C6DF" transform="translate(106,33)"/>
<path d="M0 0 C8.58 0 17.16 0 26 0 C25.67 0.99 25.34 1.98 25 3 C17.08 3 9.16 3 1 3 C0.67 2.01 0.34 1.02 0 0 Z " fill="#4C4CA0" transform="translate(101,124)"/>
<path d="M0 0 C7.59 0 15.18 0 23 0 C23 0.33 23 0.66 23 1 C17.06 1.495 17.06 1.495 11 2 C11 3.65 11 5.3 11 7 C11.66 7 12.32 7 13 7 C13 7.66 13 8.32 13 9 C10 11 10 11 7.875 10.75 C6 10 6 10 5 8 C5.66 8 6.32 8 7 8 C6.67 7.401875 6.34 6.80375 6 6.1875 C5 4 5 4 5 1 C3.35 1 1.7 1 0 1 C0 0.67 0 0.34 0 0 Z " fill="#8AE1E4" transform="translate(111,46)"/>
<path d="M0 0 C0.99 0 1.98 0 3 0 C3.04241723 2.33294775 3.04092937 4.66702567 3 7 C2 8 2 8 0.14233398 8.11352539 C-0.64842529 8.10828857 -1.43918457 8.10305176 -2.25390625 8.09765625 C-3.10791016 8.09443359 -3.96191406 8.09121094 -4.84179688 8.08789062 C-5.73962891 8.07951172 -6.63746094 8.07113281 -7.5625 8.0625 C-8.46419922 8.05798828 -9.36589844 8.05347656 -10.29492188 8.04882812 C-12.53001314 8.03700225 -14.76497437 8.0205222 -17 8 C-17.33 7.34 -17.66 6.68 -18 6 C-14.38132441 4.7937748 -11.07493749 4.89183082 -7.3125 4.9375 C-6.61060547 4.94201172 -5.90871094 4.94652344 -5.18554688 4.95117188 C-3.45699462 4.96293073 -1.72848635 4.98086546 0 5 C0 3.35 0 1.7 0 0 Z " fill="#37CACD" transform="translate(95,49)"/>
<path d="M0 0 C4.82360189 -0.19294408 8.49646738 0.24252386 13 2 C10.75 4.5 10.75 4.5 8 7 C6.68 7 5.36 7 4 7 C3.01 8.485 3.01 8.485 2 10 C1.01 10.495 1.01 10.495 0 11 C0 7.37 0 3.74 0 0 Z " fill="#5A38FF" transform="translate(102,86)"/>
<path d="M0 0 C3.63 0 7.26 0 11 0 C10.01 1.485 10.01 1.485 9 3 C8.63557767 4.66014616 8.30027117 6.32706064 8 8 C7.67 8.66 7.34 9.32 7 10 C5.35 9.67 3.7 9.34 2 9 C1.34 6.03 0.68 3.06 0 0 Z " fill="#6FD4E3" transform="translate(110,33)"/>
<path d="M0 0 C0.99 0 1.98 0 3 0 C3 1.32 3 2.64 3 4 C19.83 4 36.66 4 54 4 C54 4.33 54 4.66 54 5 C36.18 5 18.36 5 0 5 C0 3.35 0 1.7 0 0 Z " fill="#3790B8" transform="translate(41,49)"/>
<path d="M0 0 C0 0.66 0 1.32 0 2 C-0.66 2 -1.32 2 -2 2 C-2.226875 2.94875 -2.45375 3.8975 -2.6875 4.875 C-4 8 -4 8 -6.3125 9.4375 C-9.24992893 10.05231071 -11.13536054 9.81846842 -14 9 C-13.34 8.01 -12.68 7.02 -12 6 C-11.67 5.34 -11.34 4.68 -11 4 C-8.9375 3.375 -8.9375 3.375 -7 3 C-8.32 2.34 -9.64 1.68 -11 1 C-9.54182203 0.83197949 -8.0834516 0.66562857 -6.625 0.5 C-5.81289062 0.4071875 -5.00078125 0.314375 -4.1640625 0.21875 C-2 0 -2 0 0 0 Z " fill="#5E4CFB" transform="translate(121,86)"/>
<path d="M0 0 C2.64 0 5.28 0 8 0 C8 2.97 8 5.94 8 9 C6.68 9 5.36 9 4 9 C3.34 8.34 2.68 7.68 2 7 C1.34 7 0.68 7 0 7 C0 4.69 0 2.38 0 0 Z " fill="#3CBADB" transform="translate(26,59)"/>
<path d="M0 0 C1.24716797 0.00322266 2.49433594 0.00644531 3.77929688 0.00976562 C5.07287109 0.01814453 6.36644531 0.02652344 7.69921875 0.03515625 C9.66858398 0.04192383 9.66858398 0.04192383 11.67773438 0.04882812 C14.91410885 0.06059676 18.15039053 0.07703865 21.38671875 0.09765625 C21.05671875 0.75765625 20.72671875 1.41765625 20.38671875 2.09765625 C19.73074707 2.11747559 19.07477539 2.13729492 18.39892578 2.15771484 C15.43610806 2.25278132 12.47401343 2.36253377 9.51171875 2.47265625 C7.96291016 2.5190625 7.96291016 2.5190625 6.3828125 2.56640625 C4.90361328 2.62441406 4.90361328 2.62441406 3.39453125 2.68359375 C2.4833252 2.71501465 1.57211914 2.74643555 0.63330078 2.77880859 C-1.81259311 2.89648136 -1.81259311 2.89648136 -3.61328125 5.09765625 C-6.34197532 5.06478042 -8.90994305 4.53367854 -11.61328125 4.09765625 C-11.61328125 3.10765625 -11.61328125 2.11765625 -11.61328125 1.09765625 C-7.68039761 0.16677716 -4.03673962 -0.0184326 0 0 Z " fill="#D9D9E8" transform="translate(106.61328125,125.90234375)"/>
<path d="M0 0 C0.66 0 1.32 0 2 0 C2.09765625 6.15234375 2.09765625 6.15234375 2 8 C1 9 1 9 -1.06640625 9.09765625 C-1.89011719 9.08605469 -2.71382813 9.07445313 -3.5625 9.0625 C-4.38878906 9.05347656 -5.21507813 9.04445313 -6.06640625 9.03515625 C-6.70449219 9.02355469 -7.34257813 9.01195313 -8 9 C-6.8125 6.0625 -6.8125 6.0625 -5 3 C-2.3125 2.125 -2.3125 2.125 0 2 C0 1.34 0 0.68 0 0 Z " fill="#37DDC8" transform="translate(121,105)"/>
<path d="M0 0 C5.61 0 11.22 0 17 0 C17 0.99 17 1.98 17 3 C11.39 3 5.78 3 0 3 C0 2.01 0 1.02 0 0 Z " fill="#3C3E8A" transform="translate(15,34)"/>
<path d="M0 0 C0 1.65 0 3.3 0 5 C-2.8125 5.625 -2.8125 5.625 -6 6 C-6.99 5.34 -7.98 4.68 -9 4 C-8.67 2.68 -8.34 1.36 -8 0 C-4.71303767 -0.79953138 -3.28976808 -1.09658936 0 0 Z " fill="#3AC3D7" transform="translate(60,87)"/>
<path d="M0 0 C-0.99 0.33 -1.98 0.66 -3 1 C-3 1.66 -3 2.32 -3 3 C-7.29 3 -11.58 3 -16 3 C-16.33 2.01 -16.66 1.02 -17 0 C-11.0885256 -0.77313045 -5.8685408 -1.14819277 0 0 Z " fill="#50CFDA" transform="translate(50,102)"/>
<path d="M0 0 C5.41538462 -0.36923077 5.41538462 -0.36923077 8.375 1.5 C8.91125 1.995 9.4475 2.49 10 3 C10.33 2.01 10.66 1.02 11 0 C10.67 1.65 10.34 3.3 10 5 C6.7 5 3.4 5 0 5 C0 3.35 0 1.7 0 0 Z " fill="#34ACC6" transform="translate(33,97)"/>
<path d="M0 0 C0.33 0 0.66 0 1 0 C1.3690205 10.55808656 1.3690205 10.55808656 -1 15 C-1.66 15 -2.32 15 -3 15 C-3 11.04 -3 7.08 -3 3 C-2.34 3 -1.68 3 -1 3 C-0.67 2.01 -0.34 1.02 0 0 Z " fill="#6C72FE" transform="translate(126,93)"/>
<path d="M0 0 C0.66 0.33 1.32 0.66 2 1 C2 3.97 2 6.94 2 10 C1.34 9.01 0.68 8.02 0 7 C-1.98491642 7.26676204 -1.98491642 7.26676204 -4 8 C-4.33 8.99 -4.66 9.98 -5 11 C-5.33 9.68 -5.66 8.36 -6 7 C-5.01 6.34 -4.02 5.68 -3 5 C-3.99 3.68 -4.98 2.36 -6 1 C-3.03 1.495 -3.03 1.495 0 2 C0 1.34 0 0.68 0 0 Z " fill="#3AD6CA" transform="translate(58,91)"/>
<path d="M0 0 C1.65 0 3.3 0 5 0 C5.25 5.625 5.25 5.625 3 9 C-0 8 -0 8 -3 6 C-1.68 6 -0.36 6 1 6 C0.67 4.02 0.34 2.04 0 0 Z " fill="#3CCFCD" transform="translate(29,68)"/>
<path d="M0 0 C2.31 0 4.62 0 7 0 C7 3 7 3 5.1875 5.0625 C3 7 3 7 0 9 C0 6.03 0 3.06 0 0 Z " fill="#3DBCDD" transform="translate(105,54)"/>
<path d="M0 0 C0 0.66 0 1.32 0 2 C-5.94 2 -11.88 2 -18 2 C-18.33 1.34 -18.66 0.68 -19 0 C-12.42150508 -0.95494281 -6.58183362 -0.8931507 0 0 Z " fill="#9BC1FE" transform="translate(74,119)"/>
<path d="M0 0 C1.37478516 0.01740234 1.37478516 0.01740234 2.77734375 0.03515625 C3.69644531 0.04417969 4.61554688 0.05320312 5.5625 0.0625 C6.27277344 0.07410156 6.98304687 0.08570312 7.71484375 0.09765625 C4.71484375 2.09765625 4.71484375 2.09765625 1.71484375 2.09765625 C1.71484375 2.75765625 1.71484375 3.41765625 1.71484375 4.09765625 C0.04817708 5.76432292 -1.61848958 7.43098958 -3.28515625 9.09765625 C-3.3828125 2.9453125 -3.3828125 2.9453125 -3.28515625 1.09765625 C-2.28515625 0.09765625 -2.28515625 0.09765625 0 0 Z " fill="#45B4F5" transform="translate(108.28515625,95.90234375)"/>
<path d="M0 0 C2 1.3125 2 1.3125 4 3 C4 3.99 4 4.98 4 6 C3.34 6.66 2.68 7.32 2 8 C2.33 8.99 2.66 9.98 3 11 C1.125 10.375 1.125 10.375 -1 9 C-2.25 5.875 -2.25 5.875 -3 3 C-2.01 2.67 -1.02 2.34 0 2 C0 1.34 0 0.68 0 0 Z " fill="#4DB1E5" transform="translate(39,88)"/>
<path d="M0 0 C0.33 0 0.66 0 1 0 C1.07347656 1.04800781 1.07347656 1.04800781 1.1484375 2.1171875 C1.22320312 3.02726562 1.29796875 3.93734375 1.375 4.875 C1.44460937 5.77992187 1.51421875 6.68484375 1.5859375 7.6171875 C1.79568132 10.17941903 1.79568132 10.17941903 4 12 C3.34 12.66 2.68 13.32 2 14 C0.68 14 -0.64 14 -2 14 C-1.85970581 11.8537974 -1.71261836 9.70803782 -1.5625 7.5625 C-1.48128906 6.36753906 -1.40007812 5.17257813 -1.31640625 3.94140625 C-1 1 -1 1 0 0 Z " fill="#6660FF" transform="translate(104,103)"/>
<path d="M0 0 C4.95 0 9.9 0 15 0 C12 3 12 3 9.30078125 3.29296875 C8.31464844 3.25816406 7.32851563 3.22335938 6.3125 3.1875 C5.31863281 3.16042969 4.32476562 3.13335937 3.30078125 3.10546875 C2.54152344 3.07066406 1.78226563 3.03585938 1 3 C0.67 2.01 0.34 1.02 0 0 Z " fill="#4098E9" transform="translate(41,54)"/>
<path d="M0 0 C2.625 0.375 2.625 0.375 5 1 C5 2.65 5 4.3 5 6 C2.36 6 -0.28 6 -3 6 C-2.42655063 3.13275314 -2.1385485 2.1385485 0 0 Z " fill="#36CDD9" transform="translate(121,33)"/>
<path d="M0 0 C1.21236328 0.01353516 1.21236328 0.01353516 2.44921875 0.02734375 C3.37154297 0.04474609 3.37154297 0.04474609 4.3125 0.0625 C2.8125 2.0625 2.8125 2.0625 0.3125 4.0625 C-2.44621627 4.42050135 -4.88847524 4.24910165 -7.6875 4.0625 C-7.6875 3.0725 -7.6875 2.0825 -7.6875 1.0625 C-4.80538698 0.10179566 -2.98899956 -0.04331883 0 0 Z " fill="#33D4D0" transform="translate(20.6875,75.9375)"/>
<path d="M0 0 C3.3 0 6.6 0 10 0 C10 1.98 10 3.96 10 6 C9.67 5.34 9.34 4.68 9 4 C8.01 4 7.02 4 6 4 C5.67 4.66 5.34 5.32 5 6 C5 5.01 5 4.02 5 3 C4.01 2.67 3.02 2.34 2 2 C1.67 2.99 1.34 3.98 1 5 C0.67 3.35 0.34 1.7 0 0 Z " fill="#3DCFDA" transform="translate(16,59)"/>
<path d="M0 0 C2.31 0 4.62 0 7 0 C7 1.65 7 3.3 7 5 C4.69 5 2.38 5 0 5 C0 3.35 0 1.7 0 0 Z " fill="#3C3E8A" transform="translate(98,49)"/>
<path d="M0 0 C1.81242052 -0.02687279 3.62495233 -0.04633715 5.4375 -0.0625 C6.44683594 -0.07410156 7.45617187 -0.08570312 8.49609375 -0.09765625 C11 0 11 0 12 1 C12.04063832 2.66617115 12.042721 4.33388095 12 6 C11.01 5.34 10.02 4.68 9 4 C6.48415109 3.75849227 6.48415109 3.75849227 3.8125 3.875 C2.46091797 3.90207031 2.46091797 3.90207031 1.08203125 3.9296875 C0.05142578 3.96449219 0.05142578 3.96449219 -1 4 C-1 3.67 -1 3.34 -1 3 C1.64 2.67 4.28 2.34 7 2 C4.69 1.67 2.38 1.34 0 1 C0 0.67 0 0.34 0 0 Z " fill="#7E98FE" transform="translate(103,70)"/>
<path d="M0 0 C4.62 0 9.24 0 14 0 C14.33 1.32 14.66 2.64 15 4 C14.01 4 13.02 4 12 4 C12 3.34 12 2.68 12 2 C8.37 2 4.74 2 1 2 C0.67 1.34 0.34 0.68 0 0 Z " fill="#58DAD4" transform="translate(83,45)"/>
<path d="M0 0 C0.66 0.33 1.32 0.66 2 1 C1.64766839 6.4611399 1.64766839 6.4611399 1 9 C-1.0625 10.5 -1.0625 10.5 -3 11 C-3.33 9.35 -3.66 7.7 -4 6 C-3.01 5.67 -2.02 5.34 -1 5 C-1.33 3.68 -1.66 2.36 -2 1 C-1.34 0.67 -0.68 0.34 0 0 Z " fill="#49B7DF" transform="translate(44,89)"/>
<path d="M0 0 C0.66 0 1.32 0 2 0 C1.69106068 1.6256807 1.3777305 3.25052748 1.0625 4.875 C0.88847656 5.77992187 0.71445312 6.68484375 0.53515625 7.6171875 C0 10 0 10 -1 12 C-1.66 12 -2.32 12 -3 12 C-2.14285714 3.42857143 -2.14285714 3.42857143 0 0 Z " fill="#D9F3F7" transform="translate(47,90)"/>
<path d="M0 0 C1.21236328 0.01353516 1.21236328 0.01353516 2.44921875 0.02734375 C3.37154297 0.04474609 3.37154297 0.04474609 4.3125 0.0625 C3.3225 1.5475 3.3225 1.5475 2.3125 3.0625 C0.1484375 3.35546875 0.1484375 3.35546875 -2.3125 3.25 C-3.12976563 3.22292969 -3.94703125 3.19585937 -4.7890625 3.16796875 C-5.41554688 3.13316406 -6.04203125 3.09835938 -6.6875 3.0625 C-7.0175 2.4025 -7.3475 1.7425 -7.6875 1.0625 C-4.80538698 0.10179566 -2.98899956 -0.04331883 0 0 Z " fill="#39C3D7" transform="translate(84.6875,53.9375)"/>
<path d="M0 0 C1.32 0 2.64 0 4 0 C4 2.31 4 4.62 4 7 C1.69 7 -0.62 7 -3 7 C-2.34 6.01 -1.68 5.02 -1 4 C-0.36707617 1.88719655 -0.36707617 1.88719655 0 0 Z " fill="#7A99FE" transform="translate(123,117)"/>
<path d="M0 0 C0.556875 0.7115625 0.556875 0.7115625 1.125 1.4375 C3.62646962 3.52205802 5.81593418 3.64621491 9 4 C7.6875 5.5 7.6875 5.5 6 7 C5.01 7 4.02 7 3 7 C3 6.34 3 5.68 3 5 C1.35 4.67 -0.3 4.34 -2 4 C-2 3.34 -2 2.68 -2 2 C-1.34 2 -0.68 2 0 2 C0 1.34 0 0.68 0 0 Z " fill="#F5FCFD" transform="translate(19,69)"/>
<path d="M0 0 C2.0625 0.4375 2.0625 0.4375 4 1 C4 2.32 4 3.64 4 5 C2.68 5.33 1.36 5.66 0 6 C-0.38218767 4.34385343 -0.71395102 2.67542976 -1 1 C-0.67 0.67 -0.34 0.34 0 0 Z " fill="#41CDDB" transform="translate(22,67)"/>
<path d="M0 0 C1.32 0 2.64 0 4 0 C4 1.98 4 3.96 4 6 C2.68 6.33 1.36 6.66 0 7 C0 4.69 0 2.38 0 0 Z " fill="#3BB1C7" transform="translate(26,59)"/>
<path d="M0 0 C1.32 0.99 2.64 1.98 4 3 C3.67 4.98 3.34 6.96 3 9 C2.01 8.67 1.02 8.34 0 8 C0 5.36 0 2.72 0 0 Z " fill="#34C0C4" transform="translate(115,54)"/>
<path d="M0 0 C-0.33 0.99 -0.66 1.98 -1 3 C-3.97 3 -6.94 3 -10 3 C-10.33 2.34 -10.66 1.68 -11 1 C-7.32589215 -0.17571451 -3.83070817 -0.07366746 0 0 Z " fill="#3EA7E5" transform="translate(63,54)"/>
<path d="M0 0 C0.66 0 1.32 0 2 0 C2 1.65 2 3.3 2 5 C2.66 5.33 3.32 5.66 4 6 C3.34 6.66 2.68 7.32 2 8 C-0.0625 7.75 -0.0625 7.75 -2 7 C-2.33 6.34 -2.66 5.68 -3 5 C-2.01 5 -1.02 5 0 5 C0 3.35 0 1.7 0 0 Z " fill="#F5FBFB" transform="translate(119,49)"/>
<path d="M0 0 C2.125 0.9375 2.125 0.9375 4 2 C4 2.33 4 2.66 4 3 C-0.29 3 -4.58 3 -9 3 C-9 2.34 -9 1.68 -9 1 C-7.88625 1.020625 -6.7725 1.04125 -5.625 1.0625 C-2.16784079 1.26380718 -2.16784079 1.26380718 0 0 Z " fill="#88CBDE" transform="translate(107,46)"/>
<path d="M0 0 C2.31 0.33 4.62 0.66 7 1 C6.01 1.33 5.02 1.66 4 2 C4 2.66 4 3.32 4 4 C1.69 4 -0.62 4 -3 4 C-2.34 3.67 -1.68 3.34 -1 3 C-0.67 2.01 -0.34 1.02 0 0 Z " fill="#48D7D1" transform="translate(43,101)"/>
<path d="M0 0 C3.3 0 6.6 0 10 0 C10 0.33 10 0.66 10 1 C6.17679443 2.42258812 3.08718695 3.24042276 -1 3 C-0.67 2.01 -0.34 1.02 0 0 Z " fill="#3EAEE0" transform="translate(47,86)"/>
<path d="M0 0 C0.66 0.33 1.32 0.66 2 1 C2 1.99 2 2.98 2 4 C3.65 4 5.3 4 7 4 C5 6 5 6 1.875 6.125 C0.451875 6.063125 0.451875 6.063125 -1 6 C-0.67 4.02 -0.34 2.04 0 0 Z " fill="#43DCCE" transform="translate(119,57)"/>
<path d="M0 0 C0.66 0.33 1.32 0.66 2 1 C1.67 1.99 1.34 2.98 1 4 C0.01 4.33 -0.98 4.66 -2 5 C-3.32 3.68 -4.64 2.36 -6 1 C-3.03 1.495 -3.03 1.495 0 2 C0 1.34 0 0.68 0 0 Z " fill="#43D1D4" transform="translate(58,91)"/>
<path d="M0 0 C0.66 0.66 1.32 1.32 2 2 C4.06874034 2.6425235 4.06874034 2.6425235 6 3 C6 3.66 6 4.32 6 5 C4.35 5.33 2.7 5.66 1 6 C0.34 4.35 -0.32 2.7 -1 1 C-0.67 0.67 -0.34 0.34 0 0 Z " fill="#41CDDB" transform="translate(16,71)"/>
<path d="M0 0 C0.99 0 1.98 0 3 0 C3.33 1.32 3.66 2.64 4 4 C2.35 4.33 0.7 4.66 -1 5 C-0.67 3.35 -0.34 1.7 0 0 Z " fill="#35C3C5" transform="translate(47,97)"/>
<path d="M0 0 C1.32 0 2.64 0 4 0 C4 1.32 4 2.64 4 4 C2.35 4 0.7 4 -1 4 C-0.67 2.68 -0.34 1.36 0 0 Z " fill="#3FA9E5" transform="translate(34,93)"/>
<path d="M0 0 C1.98 0 3.96 0 6 0 C5.34 1.32 4.68 2.64 4 4 C2.68 4 1.36 4 0 4 C0 2.68 0 1.36 0 0 Z " fill="#7ED9E6" transform="translate(113,39)"/>
<path d="M0 0 C0 0.99 0 1.98 0 3 C0.3062434 4.33981486 0.63451555 5.67511887 1 7 C-0.32 6.34 -1.64 5.68 -3 5 C-3 4.01 -3 3.02 -3 2 C-2.01 1.34 -1.02 0.68 0 0 Z " fill="#E7F5F8" transform="translate(41,92)"/>
<path d="M0 0 C2.64 0 5.28 0 8 0 C5.4345406 2.5654594 3.52313332 2.54046087 0 3 C0 2.01 0 1.02 0 0 Z " fill="#4B90ED" transform="translate(34,86)"/>
</svg>
