<?xml version="1.0" encoding="UTF-8"?>
<svg version="1.1" xmlns="http://www.w3.org/2000/svg" width="150" height="150">
<path d="M0 0 C2.97 0 5.94 0 9 0 C9.495 2.475 9.495 2.475 10 5 C14.12148343 6.82660197 14.12148343 6.82660197 18.375 6.125 C18.91125 5.75375 19.4475 5.3825 20 5 C24 10.625 24 10.625 24 14 C24.85464844 13.98839844 25.70929688 13.97679687 26.58984375 13.96484375 C27.69457031 13.95582031 28.79929687 13.94679688 29.9375 13.9375 C31.03964844 13.92589844 32.14179688 13.91429687 33.27734375 13.90234375 C36 14 36 14 37 15 C37.08748207 16.92667507 37.10697334 18.85651861 37.09765625 20.78515625 C37.09282227 22.53989258 37.09282227 22.53989258 37.08789062 24.33007812 C37.07532227 26.17762695 37.07532227 26.17762695 37.0625 28.0625 C37.05798828 29.29806641 37.05347656 30.53363281 37.04882812 31.80664062 C37.03699608 34.87114117 37.02051173 37.93554721 37 41 C38.98 41 40.96 41 43 41 C43.99 43.475 43.99 43.475 45 46 C44.34 46 43.68 46 43 46 C43.5878125 47.8871875 43.5878125 47.8871875 44.1875 49.8125 C44.75390625 52.01953125 44.75390625 52.01953125 45 54 C43.625 56 43.625 56 42 57 C41.01 56.67 40.02 56.34 39 56 C38.34 57.32 37.68 58.64 37 60 C35.02 60 33.04 60 31 60 C30.01 58.02 30.01 58.02 29 56 C27.68 56.33 26.36 56.66 25 57 C23.23937836 53.67438135 22.89215772 52.40826005 23.875 48.6875 C24.431875 47.3571875 24.431875 47.3571875 25 46 C24.34 46 23.68 46 23 46 C23 45.34 23 44.68 23 44 C22.34 44 21.68 44 21 44 C21 50.6 21 57.2 21 64 C23.31 64 25.62 64 28 64 C29 65 29 65 29.11352539 68.96899414 C29.1133662 70.74105607 29.10766785 72.5131226 29.09765625 74.28515625 C29.0962413 75.21597519 29.09482635 76.14679413 29.09336853 77.1058197 C29.08775172 80.09141191 29.0751964 83.07693029 29.0625 86.0625 C29.05748716 88.08137913 29.05292388 90.10025943 29.04882812 92.11914062 C29.03777683 97.07945572 29.02050095 102.03971532 29 107 C31.31 107.66 33.62 108.32 36 109 C35 111 35 111 33.34521484 111.61450195 C28.49200924 112.41225457 23.54404055 112.18590312 18.63769531 112.18530273 C16.63863013 112.18748512 14.63960468 112.20599143 12.640625 112.22460938 C11.36960937 112.22654297 10.09859375 112.22847656 8.7890625 112.23046875 C7.63100098 112.23457764 6.47293945 112.23868652 5.27978516 112.24291992 C1.88689046 111.99162245 -0.83332989 111.21173908 -4 110 C-3.67 109.34 -3.34 108.68 -3 108 C-0.4375 107.375 -0.4375 107.375 2 107 C1.32142944 106.99191315 0.64285889 106.98382629 -0.05627441 106.97549438 C-7.19572947 106.88863335 -14.33493245 106.7891071 -21.47412109 106.68261719 C-24.12938188 106.64363425 -26.7845665 106.60971702 -29.43994141 106.578125 C-67.93926359 106.11445232 -67.93926359 106.11445232 -75 102 C-74.505 101.54625 -74.01 101.0925 -73.5 100.625 C-71.77390663 99.12364481 -71.77390663 99.12364481 -72 97 C-74.41645782 96.83312552 -74.41645782 96.83312552 -77 97 C-77.99 97.99 -77.99 97.99 -79 99 C-80.9375 98.875 -80.9375 98.875 -83 98 C-84.75 95.9375 -84.75 95.9375 -86 94 C-85.34 93.01 -84.68 92.02 -84 91 C-84.66868314 87.88667752 -84.66868314 87.88667752 -87.0625 86.8125 C-87.701875 86.544375 -88.34125 86.27625 -89 86 C-88.67 83.69 -88.34 81.38 -88 79 C-85.03 78.01 -85.03 78.01 -82 77 C-82 75.02 -82 73.04 -82 71 C-78.535 70.01 -78.535 70.01 -75 69 C-74.67 70.32 -74.34 71.64 -74 73 C-73.34 73 -72.68 73 -72 73 C-72 69.04 -72 65.08 -72 61 C-76.29 61 -80.58 61 -85 61 C-85.02683436 57.68744674 -85.0467578 54.37510817 -85.0625 51.0625 C-85.07087891 50.11697266 -85.07925781 49.17144531 -85.08789062 48.19726562 C-85.09111328 47.29814453 -85.09433594 46.39902344 -85.09765625 45.47265625 C-85.10289307 44.64000244 -85.10812988 43.80734863 -85.11352539 42.94946289 C-85 41 -85 41 -84 40 C-81.98035801 39.92755947 -79.95832876 39.91622812 -77.9375 39.9375 C-76.28041016 39.95103516 -76.28041016 39.95103516 -74.58984375 39.96484375 C-73.73519531 39.97644531 -72.88054687 39.98804688 -72 40 C-72.061875 38.906875 -72.12375 37.81375 -72.1875 36.6875 C-72 33 -72 33 -70.875 31.3125 C-68.22295161 29.45606613 -66.01834023 29.484857 -62.8125 29.3125 C-61.18248047 29.21388672 -61.18248047 29.21388672 -59.51953125 29.11328125 C-58.68808594 29.07589844 -57.85664062 29.03851563 -57 29 C-56.505 27.515 -56.505 27.515 -56 26 C-54.74340576 25.98018066 -53.48681152 25.96036133 -52.19213867 25.93994141 C-47.53470653 25.86393003 -42.87758865 25.77520577 -38.22045898 25.68261719 C-36.20392048 25.64430896 -34.18731322 25.60945935 -32.1706543 25.578125 C-29.27367558 25.53251451 -26.37717104 25.47451361 -23.48046875 25.4140625 C-22.57725388 25.40251129 -21.674039 25.39096008 -20.74345398 25.37905884 C-19.4824865 25.3492543 -19.4824865 25.3492543 -18.19604492 25.31884766 C-17.45658127 25.30552399 -16.71711761 25.29220032 -15.95524597 25.2784729 C-13.67895835 25.09785588 -13.67895835 25.09785588 -11 23 C-10.7497843 19.91634129 -10.7497843 19.91634129 -11 17 C-12.32 16.34 -13.64 15.68 -15 15 C-13.94124926 11.59687262 -12.99097846 8.98646769 -11 6 C-9.906875 6.20625 -8.81375 6.4125 -7.6875 6.625 C-3.9161599 7.40346525 -3.9161599 7.40346525 -1 5 C-0.27034634 2.43717258 -0.27034634 2.43717258 0 0 Z M-2 13 C-4.2084626 16.31269391 -4.80664241 18.14978851 -4.5546875 22.0625 C-3.4812192 25.81207941 -1.28696911 27.01541488 2 29 C4.63836977 29.1672392 4.63836977 29.1672392 7 29 C7.03738281 28.01257813 7.07476562 27.02515625 7.11328125 26.0078125 C7.17902344 24.72648437 7.24476562 23.44515625 7.3125 22.125 C7.37050781 20.84882812 7.42851563 19.57265625 7.48828125 18.2578125 C7.65714844 17.18273437 7.82601562 16.10765625 8 15 C8.99 14.34 9.98 13.68 11 13 C9.01607489 10.60148679 9.01607489 10.60148679 5.1875 10.5625 C1.82266671 10.66669338 0.95629969 11.02913354 -2 13 Z M29 46 C28.6366844 48.83386167 28.6431329 50.40522151 30.125 52.875 C32.92151052 54.55290631 34.93690532 53.74875648 38 53 C38.67673447 49.59679066 38.67673447 49.59679066 39 46 C37.11499729 43.68436913 37.11499729 43.68436913 34 43.75 C30.88500271 43.68436913 30.88500271 43.68436913 29 46 Z M-78.25 79.625 C-80.21985834 81.92308586 -80.21985834 81.92308586 -80.5 85 C-80.21376982 88.06575838 -80.21376982 88.06575838 -78.3125 90.375 C-75.61209763 92.27258004 -74.22939919 92.35882213 -71 92 C-70.85024761 84.94348748 -70.85024761 84.94348748 -72 78 C-75.92212225 77.60967296 -75.92212225 77.60967296 -78.25 79.625 Z M-65 94 C-64.67 95.65 -64.34 97.3 -64 99 C-51.13 98.01 -51.13 98.01 -38 97 C-37.67 96.01 -37.34 95.02 -37 94 C-46.24 94 -55.48 94 -65 94 Z M-13 94 C-13 94.99 -13 95.98 -13 97 C-7.72 97.33 -2.44 97.66 3 98 C3 96.68 3 95.36 3 94 C-2.28 94 -7.56 94 -13 94 Z " fill="#7184FE" transform="translate(98,19)"/>
<path d="M0 0 C18.15 0 36.3 0 55 0 C55.495 1.98 55.495 1.98 56 4 C58.31 4 60.62 4 63 4 C63.13526139 6.24834496 63.23210804 8.49902514 63.3125 10.75 C63.37050781 12.00296875 63.42851563 13.2559375 63.48828125 14.546875 C63 18 63 18 60.54296875 20.265625 C59.70378906 20.83796875 58.86460938 21.4103125 58 22 C57.505 23.485 57.505 23.485 57 25 C56.505 23.515 56.505 23.515 56 22 C56 23.32 56 24.64 56 26 C53.5 27.75 53.5 27.75 51 29 C51.99 29.99 51.99 29.99 53 31 C52.030625 31.28875 51.06125 31.5775 50.0625 31.875 C46.89335797 32.64214682 46.89335797 32.64214682 46 35 C46.66 35.33 47.32 35.66 48 36 C46.02 36.66 44.04 37.32 42 38 C42.33 38.99 42.66 39.98 43 41 C42.34 41 41.68 41 41 41 C40.67 41.99 40.34 42.98 40 44 C39.01 43.01 38.02 42.02 37 41 C37.495 43.475 37.495 43.475 38 46 C36.68 46.33 35.36 46.66 34 47 C34.99 47.66 35.98 48.32 37 49 C37 49.66 37 50.32 37 51 C47.89 51.495 47.89 51.495 59 52 C59 53.65 59 55.3 59 57 C45.47 57 31.94 57 18 57 C17.67 57.99 17.34 58.98 17 60 C8.75 60 0.5 60 -8 60 C-8.33 59.01 -8.66 58.02 -9 57 C-11.31 57 -13.62 57 -16 57 C-16 49.74 -16 42.48 -16 35 C-20.29 35 -24.58 35 -29 35 C-29.02683436 31.68744674 -29.0467578 28.37510817 -29.0625 25.0625 C-29.07087891 24.11697266 -29.07925781 23.17144531 -29.08789062 22.19726562 C-29.09111328 21.29814453 -29.09433594 20.39902344 -29.09765625 19.47265625 C-29.10289307 18.64000244 -29.10812988 17.80734863 -29.11352539 16.94946289 C-29 15 -29 15 -28 14 C-25.98035801 13.92755947 -23.95832876 13.91622812 -21.9375 13.9375 C-20.28041016 13.95103516 -20.28041016 13.95103516 -18.58984375 13.96484375 C-17.73519531 13.97644531 -16.88054688 13.98804688 -16 14 C-16.061875 12.906875 -16.12375 11.81375 -16.1875 10.6875 C-16 7 -16 7 -14.875 5.3125 C-12.22295161 3.45606613 -10.01834023 3.484857 -6.8125 3.3125 C-5.72582031 3.24675781 -4.63914062 3.18101563 -3.51953125 3.11328125 C-2.68808594 3.07589844 -1.85664062 3.03851563 -1 3 C-0.67 2.01 -0.34 1.02 0 0 Z " fill="#6B72FE" transform="translate(42,45)"/>
<path d="M0 0 C1.88041992 0.00966797 1.88041992 0.00966797 3.79882812 0.01953125 C5.76432617 0.04466797 5.76432617 0.04466797 7.76953125 0.0703125 C9.10481112 0.08034611 10.44009814 0.0894713 11.77539062 0.09765625 C15.0444514 0.12125958 18.31315153 0.15418656 21.58203125 0.1953125 C19.33961964 2.43772411 17.54865358 3.15699469 14.58203125 4.1953125 C13.92203125 4.1953125 13.26203125 4.1953125 12.58203125 4.1953125 C13.07703125 5.6803125 13.07703125 5.6803125 13.58203125 7.1953125 C12.14453125 9.8828125 12.14453125 9.8828125 10.58203125 12.1953125 C9.92203125 11.8653125 9.26203125 11.5353125 8.58203125 11.1953125 C7.92203125 12.5153125 7.26203125 13.8353125 6.58203125 15.1953125 C5.59203125 15.1953125 4.60203125 15.1953125 3.58203125 15.1953125 C2.92203125 17.1753125 2.26203125 19.1553125 1.58203125 21.1953125 C0.59203125 21.1953125 -0.39796875 21.1953125 -1.41796875 21.1953125 C-3.74872804 22.15396759 -3.74872804 22.15396759 -5.41796875 25.1953125 C-7.08463542 26.86197917 -8.75130208 28.52864583 -10.41796875 30.1953125 C-10.41796875 30.5253125 -10.41796875 30.8553125 -10.41796875 31.1953125 C-8.10796875 31.8553125 -5.79796875 32.5153125 -3.41796875 33.1953125 C-3.39112563 36.00787531 -3.37120687 38.82018491 -3.35546875 41.6328125 C-3.34708984 42.43525391 -3.33871094 43.23769531 -3.33007812 44.06445312 C-3.32145445 46.10826471 -3.36568725 48.15215152 -3.41796875 50.1953125 C-4.41796875 51.1953125 -4.41796875 51.1953125 -6.82641602 51.30883789 C-7.86854248 51.30360107 -8.91066895 51.29836426 -9.984375 51.29296875 C-11.10908203 51.28974609 -12.23378906 51.28652344 -13.39257812 51.28320312 C-14.57658203 51.27482422 -15.76058594 51.26644531 -16.98046875 51.2578125 C-18.16833984 51.25330078 -19.35621094 51.24878906 -20.58007812 51.24414062 C-23.52609101 51.23230925 -26.47200556 51.21582537 -29.41796875 51.1953125 C-29.74796875 50.2053125 -30.07796875 49.2153125 -30.41796875 48.1953125 C-32.72796875 48.1953125 -35.03796875 48.1953125 -37.41796875 48.1953125 C-37.41796875 40.9353125 -37.41796875 33.6753125 -37.41796875 26.1953125 C-41.70796875 26.1953125 -45.99796875 26.1953125 -50.41796875 26.1953125 C-50.44480311 22.88275924 -50.46472655 19.57042067 -50.48046875 16.2578125 C-50.48884766 15.31228516 -50.49722656 14.36675781 -50.50585938 13.39257812 C-50.50908203 12.49345703 -50.51230469 11.59433594 -50.515625 10.66796875 C-50.52086182 9.83531494 -50.52609863 9.00266113 -50.53149414 8.14477539 C-50.41796875 6.1953125 -50.41796875 6.1953125 -49.41796875 5.1953125 C-47.92925015 5.10861818 -46.43652375 5.08827756 -44.9453125 5.09765625 C-44.04619141 5.10087891 -43.14707031 5.10410156 -42.22070312 5.10742188 C-41.27517578 5.11580078 -40.32964844 5.12417969 -39.35546875 5.1328125 C-38.40607422 5.13732422 -37.45667969 5.14183594 -36.47851562 5.14648438 C-34.1249381 5.1583114 -31.77148398 5.17479225 -29.41796875 5.1953125 C-28.26970025 7.4918495 -28.302357 8.77844417 -28.3203125 11.328125 C-28.32353516 12.13378906 -28.32675781 12.93945312 -28.33007812 13.76953125 C-28.33845703 14.61128906 -28.34683594 15.45304687 -28.35546875 16.3203125 C-28.35998047 17.16980469 -28.36449219 18.01929687 -28.36914062 18.89453125 C-28.38094001 20.99482159 -28.39887569 23.0950758 -28.41796875 25.1953125 C-26.12683143 23.0046086 -24.72040205 21.10074062 -23.41796875 18.1953125 C-23.74796875 17.8653125 -24.07796875 17.5353125 -24.41796875 17.1953125 C-23.85546875 15.2578125 -23.85546875 15.2578125 -22.41796875 13.1953125 C-20.09080875 12.82130464 -17.75679013 12.48766517 -15.41796875 12.1953125 C-14.75796875 11.2053125 -14.09796875 10.2153125 -13.41796875 9.1953125 C-12.90234375 8.5353125 -12.38671875 7.8753125 -11.85546875 7.1953125 C-10.24017744 5.15677851 -10.24017744 5.15677851 -9.41796875 2.1953125 C-5.83128562 -0.19580959 -4.25400306 -0.03849777 0 0 Z " fill="#6254FE" transform="translate(63.41796875,53.8046875)"/>
<path d="M0 0 C0.33 1.32 0.66 2.64 1 4 C1.66 4 2.32 4 3 4 C3 5.65 3 7.3 3 9 C2.030625 9.28875 1.06125 9.5775 0.0625 9.875 C-3.10664203 10.64214682 -3.10664203 10.64214682 -4 13 C-4.0689472 14.37342831 -4.08467708 15.75002102 -4.0625 17.125 C-4.041875 18.40375 -4.02125 19.6825 -4 21 C-1.36 21.66 1.28 22.32 4 23 C4 20.03 4 17.06 4 14 C5.98 14 7.96 14 10 14 C10.33 14.66 10.66 15.32 11 16 C19.25 16 27.5 16 36 16 C36.33 15.34 36.66 14.68 37 14 C50.53 14 64.06 14 78 14 C78 17.63 78 21.26 78 25 C72.72 25 67.44 25 62 25 C62 25.99 62 26.98 62 28 C62.56847656 27.98839844 63.13695313 27.97679688 63.72265625 27.96484375 C68.60670484 27.90776806 73.18503965 28.18043228 78 29 C78 31.64 78 34.28 78 37 C70.71409984 37.04682155 63.42823335 37.08211748 56.14221191 37.10362434 C52.75718789 37.11395864 49.37226851 37.12792229 45.98730469 37.15087891 C7.5625541 37.39227608 7.5625541 37.39227608 0 33 C0.495 32.54625 0.99 32.0925 1.5 31.625 C3.22609337 30.12364481 3.22609337 30.12364481 3 28 C0.58354218 27.83312552 0.58354218 27.83312552 -2 28 C-2.66 28.66 -3.32 29.32 -4 30 C-5.9375 29.875 -5.9375 29.875 -8 29 C-9.75 26.9375 -9.75 26.9375 -11 25 C-10.34 24.01 -9.68 23.02 -9 22 C-9.66868314 18.88667752 -9.66868314 18.88667752 -12.0625 17.8125 C-12.701875 17.544375 -13.34125 17.27625 -14 17 C-13.67 14.69 -13.34 12.38 -13 10 C-11.02 9.34 -9.04 8.68 -7 8 C-7 6.02 -7 4.04 -7 2 C-2.25 0 -2.25 0 0 0 Z M10 25 C10.33 26.65 10.66 28.3 11 30 C23.87 29.01 23.87 29.01 37 28 C37.33 27.01 37.66 26.02 38 25 C28.76 25 19.52 25 10 25 Z " fill="#B3D0FE" transform="translate(23,88)"/>
<path d="M0 0 C2.97 0 5.94 0 9 0 C9.33 1.65 9.66 3.3 10 5 C14.12148343 6.82660197 14.12148343 6.82660197 18.375 6.125 C18.91125 5.75375 19.4475 5.3825 20 5 C24 10.625 24 10.625 24 14 C25.28197266 13.98259766 25.28197266 13.98259766 26.58984375 13.96484375 C27.69457031 13.95582031 28.79929688 13.94679688 29.9375 13.9375 C31.03964844 13.92589844 32.14179688 13.91429687 33.27734375 13.90234375 C36 14 36 14 37 15 C37.08748207 16.92667507 37.10697334 18.85651861 37.09765625 20.78515625 C37.09443359 21.95498047 37.09121094 23.12480469 37.08789062 24.33007812 C37.07532227 26.17762695 37.07532227 26.17762695 37.0625 28.0625 C37.05798828 29.29806641 37.05347656 30.53363281 37.04882812 31.80664062 C37.03699608 34.87114117 37.02051173 37.93554721 37 41 C38.98 41 40.96 41 43 41 C43.66 42.65 44.32 44.3 45 46 C44.34 46 43.68 46 43 46 C43.5878125 47.8871875 43.5878125 47.8871875 44.1875 49.8125 C44.75390625 52.01953125 44.75390625 52.01953125 45 54 C43.625 56 43.625 56 42 57 C41.01 56.67 40.02 56.34 39 56 C38.34 57.32 37.68 58.64 37 60 C35.02 60 33.04 60 31 60 C30.34 58.68 29.68 57.36 29 56 C27.02 56.495 27.02 56.495 25 57 C23.23937836 53.67438135 22.89215772 52.40826005 23.875 48.6875 C24.24625 47.800625 24.6175 46.91375 25 46 C24.34 46 23.68 46 23 46 C23 45.34 23 44.68 23 44 C17.72 44 12.44 44 7 44 C7 39.38 7 34.76 7 30 C4.69 30 2.38 30 0 30 C0 29.34 0 28.68 0 28 C2.31 28.33 4.62 28.66 7 29 C6.94779297 27.51886719 6.94779297 27.51886719 6.89453125 26.0078125 C6.86746094 24.72648437 6.84039062 23.44515625 6.8125 22.125 C6.76029297 20.21074219 6.76029297 20.21074219 6.70703125 18.2578125 C6.80371094 17.18273437 6.90039062 16.10765625 7 15 C7.99 14.34 8.98 13.68 10 13 C8.78410016 11.56844101 8.78410016 11.56844101 5.1875 11.6875 C2.21382315 11.74622611 1.12248853 11.92650688 -1.5 13.5 C-3.71177972 17.18629954 -3.34421275 19.73176192 -3 24 C-2.67 24.66 -2.34 25.32 -2 26 C-5.96 26 -9.92 26 -14 26 C-13.01 25.01 -12.02 24.02 -11 23 C-10.74951364 19.87450983 -10.74951364 19.87450983 -11 17 C-12.32 16.34 -13.64 15.68 -15 15 C-13.94124926 11.59687262 -12.99097846 8.98646769 -11 6 C-9.906875 6.20625 -8.81375 6.4125 -7.6875 6.625 C-3.9161599 7.40346525 -3.9161599 7.40346525 -1 5 C-0.27034634 2.43717258 -0.27034634 2.43717258 0 0 Z M29 46 C28.6366844 48.83386167 28.6431329 50.40522151 30.125 52.875 C32.92151052 54.55290631 34.93690532 53.74875648 38 53 C38.67673447 49.59679066 38.67673447 49.59679066 39 46 C37.11499729 43.68436913 37.11499729 43.68436913 34 43.75 C30.88500271 43.68436913 30.88500271 43.68436913 29 46 Z " fill="#35DDC4" transform="translate(98,19)"/>
<path d="M0 0 C18.15 0 36.3 0 55 0 C55.495 1.98 55.495 1.98 56 4 C58.31 4 60.62 4 63 4 C63 5.65 63 7.3 63 9 C62.40531418 9.01030746 61.81062836 9.02061493 61.19792175 9.03123474 C55.01749631 9.13927885 48.83721728 9.25387866 42.65698242 9.37231445 C40.34939635 9.41566999 38.04177806 9.4573446 35.73413086 9.49731445 C32.42031133 9.55500183 29.10665403 9.61870092 25.79296875 9.68359375 C24.24128242 9.70866249 24.24128242 9.70866249 22.6582489 9.73423767 C21.6974794 9.75418289 20.7367099 9.77412811 19.74682617 9.79467773 C18.47774666 9.81799416 18.47774666 9.81799416 17.18302917 9.84178162 C14.82040513 9.92274103 14.82040513 9.92274103 12 11 C12 12.32 12 13.64 12 15 C11.34 15 10.68 15 10 15 C9.9175 15.598125 9.835 16.19625 9.75 16.8125 C8.76887152 19.67412475 7.60188573 20.51320815 5 22 C3.68 22 2.36 22 1 22 C0.67 22.66 0.34 23.32 0 24 C-0.33 24.33 -0.66 24.66 -1 25 C-1.33 25.99 -1.66 26.98 -2 28 C-2.875 30.625 -2.875 30.625 -4 33 C-5.485 33.495 -5.485 33.495 -7 34 C-7.33 27.4 -7.66 20.8 -8 14 C-10.64 14 -13.28 14 -16 14 C-16.36521739 7.54782609 -16.36521739 7.54782609 -14.875 5.3125 C-12.22295161 3.45606613 -10.01834023 3.484857 -6.8125 3.3125 C-5.72582031 3.24675781 -4.63914062 3.18101563 -3.51953125 3.11328125 C-2.68808594 3.07589844 -1.85664062 3.03851563 -1 3 C-0.67 2.01 -0.34 1.02 0 0 Z " fill="#5B3CFF" transform="translate(42,45)"/>
<path d="M0 0 C0.33 1.32 0.66 2.64 1 4 C1.66 4 2.32 4 3 4 C3 5.65 3 7.3 3 9 C2.030625 9.28875 1.06125 9.5775 0.0625 9.875 C-3.10664203 10.64214682 -3.10664203 10.64214682 -4 13 C-4.0689472 14.37342831 -4.08467708 15.75002102 -4.0625 17.125 C-4.041875 18.40375 -4.02125 19.6825 -4 21 C2.88824069 23.40990104 2.88824069 23.40990104 10 25 C10.33 26.65 10.66 28.3 11 30 C11.66 29.67 12.32 29.34 13 29 C14.81171098 28.84693099 16.6283794 28.75053339 18.4453125 28.68359375 C19.52167969 28.64169922 20.59804688 28.59980469 21.70703125 28.55664062 C22.83496094 28.51732422 23.96289062 28.47800781 25.125 28.4375 C26.26066406 28.39431641 27.39632812 28.35113281 28.56640625 28.30664062 C31.37747768 28.2003396 34.18863945 28.09830595 37 28 C36.67 28.66 36.34 29.32 36 30 C33.35139573 30.59355614 30.70802678 30.74209269 28 31 C28 31.66 28 32.32 28 33 C42.19 33 56.38 33 71 33 C70.67 32.34 70.34 31.68 70 31 C68.845 30.835 67.69 30.67 66.5 30.5 C65.345 30.335 64.19 30.17 63 30 C62.505 29.01 62.505 29.01 62 28 C67.45769811 27.88861841 72.61509359 28.08342019 78 29 C78 31.64 78 34.28 78 37 C70.71409984 37.04682155 63.42823335 37.08211748 56.14221191 37.10362434 C52.75718789 37.11395864 49.37226851 37.12792229 45.98730469 37.15087891 C7.5625541 37.39227608 7.5625541 37.39227608 0 33 C0.495 32.54625 0.99 32.0925 1.5 31.625 C3.22609337 30.12364481 3.22609337 30.12364481 3 28 C0.58354218 27.83312552 0.58354218 27.83312552 -2 28 C-2.66 28.66 -3.32 29.32 -4 30 C-5.9375 29.875 -5.9375 29.875 -8 29 C-9.75 26.9375 -9.75 26.9375 -11 25 C-10.34 24.01 -9.68 23.02 -9 22 C-9.66868314 18.88667752 -9.66868314 18.88667752 -12.0625 17.8125 C-12.701875 17.544375 -13.34125 17.27625 -14 17 C-13.67 14.69 -13.34 12.38 -13 10 C-11.02 9.34 -9.04 8.68 -7 8 C-7 6.02 -7 4.04 -7 2 C-2.25 0 -2.25 0 0 0 Z " fill="#EAEBF2" transform="translate(23,88)"/>
<path d="M0 0 C1.12019531 -0.00128906 2.24039063 -0.00257812 3.39453125 -0.00390625 C4.57402344 -0.00003906 5.75351562 0.00382812 6.96875 0.0078125 C8.73798828 0.00201172 8.73798828 0.00201172 10.54296875 -0.00390625 C12.22326172 -0.00197266 12.22326172 -0.00197266 13.9375 0 C14.97326172 0.00112793 16.00902344 0.00225586 17.07617188 0.00341797 C19.46875 0.1328125 19.46875 0.1328125 20.46875 1.1328125 C20.56861975 3.97616298 20.60752881 6.78978413 20.59375 9.6328125 C20.59955078 10.82970703 20.59955078 10.82970703 20.60546875 12.05078125 C20.59535767 18.00620483 20.59535767 18.00620483 19.46875 19.1328125 C17.62715977 19.23240871 15.78178033 19.26361661 13.9375 19.265625 C12.81730469 19.26691406 11.69710937 19.26820312 10.54296875 19.26953125 C9.36347656 19.26566406 8.18398438 19.26179688 6.96875 19.2578125 C5.19951172 19.26361328 5.19951172 19.26361328 3.39453125 19.26953125 C1.71423828 19.26759766 1.71423828 19.26759766 0 19.265625 C-1.03576172 19.26449707 -2.07152344 19.26336914 -3.13867188 19.26220703 C-5.53125 19.1328125 -5.53125 19.1328125 -6.53125 18.1328125 C-6.63111975 15.28946202 -6.67002881 12.47584087 -6.65625 9.6328125 C-6.66011719 8.83488281 -6.66398437 8.03695312 -6.66796875 7.21484375 C-6.65573175 0.007248 -6.65573175 0.007248 0 0 Z " fill="#37D6C7" transform="translate(39.53125,85.8671875)"/>
<path d="M0 0 C0.125 6.625 0.125 6.625 -1 10 C-1.66 10 -2.32 10 -3 10 C-3.495 9.505 -3.495 9.505 -4 9 C-4.33 9.99 -4.66 10.98 -5 12 C-6.32 12 -7.64 12 -9 12 C-10.68698082 12.61344757 -12.35965807 13.27095914 -14 14 C-13.01 15.485 -13.01 15.485 -12 17 C-12.33 17.99 -12.66 18.98 -13 20 C-13.99 19.67 -14.98 19.34 -16 19 C-15.49396008 21.16874252 -15.00016187 22.99967627 -14 25 C-19.61702128 26.91489362 -19.61702128 26.91489362 -22.25 27.5 C-24.23877444 27.91501249 -24.23877444 27.91501249 -26 30 C-26 30.66 -26 31.32 -26 32 C-26.66 32 -27.32 32 -28 32 C-28 32.99 -28 33.98 -28 35 C-29.65 35.66 -31.3 36.32 -33 37 C-33.33 35.68 -33.66 34.36 -34 33 C-37.96 32.505 -37.96 32.505 -42 32 C-39.375 27.125 -39.375 27.125 -36 26 C-35.67 25.34 -35.34 24.68 -35 24 C-34.33333333 22.66666667 -33.66666667 21.33333333 -33 20 C-31.68 20.33 -30.36 20.66 -29 21 C-28.67 19.02 -28.34 17.04 -28 15 C-27.360625 14.896875 -26.72125 14.79375 -26.0625 14.6875 C-25.381875 14.460625 -24.70125 14.23375 -24 14 C-23.67 13.01 -23.34 12.02 -23 11 C-22.01 11 -21.02 11 -20 11 C-17.64276511 8.46815512 -17 7.52809907 -17 4 C-16.2575 3.71125 -15.515 3.4225 -14.75 3.125 C-12.09167265 2.12653137 -12.09167265 2.12653137 -10.1875 0.875 C-6.79086864 -0.48365254 -3.63899603 -0.12129987 0 0 Z " fill="#6763FF" transform="translate(93,54)"/>
<path d="M0 0 C0.83265381 0.00523682 1.66530762 0.01047363 2.52319336 0.01586914 C3.33280518 0.0183667 4.14241699 0.02086426 4.9765625 0.0234375 C6.01159912 0.0325415 7.04663574 0.04164551 8.11303711 0.05102539 C11.39241211 0.07165039 14.67178711 0.09227539 18.05053711 0.11352539 C18.05053711 7.04352539 18.05053711 13.97352539 18.05053711 21.11352539 C11.12053711 21.11352539 4.19053711 21.11352539 -2.94946289 21.11352539 C-2.97008789 17.83415039 -2.99071289 14.55477539 -3.01196289 11.17602539 C-3.02106689 10.14098877 -3.0301709 9.10595215 -3.03955078 8.03955078 C-3.04329712 6.82513306 -3.04329712 6.82513306 -3.04711914 5.58618164 C-3.05235596 4.75352783 -3.05759277 3.92087402 -3.06298828 3.06298828 C-2.90876673 0.41468917 -2.64829911 0.15422155 0 0 Z " fill="#39D3D0" transform="translate(15.949462890625,58.886474609375)"/>
<path d="M0 0 C0.33 0 0.66 0 1 0 C1 5.94 1 11.88 1 18 C3.50816459 15.49183541 4.61410019 14.09162264 6 11 C5.67 10.67 5.34 10.34 5 10 C5.5625 8.0625 5.5625 8.0625 7 6 C9.32716 5.62599214 11.66117862 5.29235267 14 5 C14.66 4.01 15.32 3.02 16 2 C18.52259061 3.97420135 18.9929808 4.96745642 19.6875 8.1875 C19.790625 9.115625 19.89375 10.04375 20 11 C19.01 11.495 19.01 11.495 18 12 C17.34444881 14.52733235 17.34444881 14.52733235 17 17 C16.01 17.33 15.02 17.66 14 18 C13.34 18.66 12.68 19.32 12 20 C11.34 20.12375 10.68 20.2475 10 20.375 C9.34 20.58125 8.68 20.7875 8 21 C7.566875 21.99 7.566875 21.99 7.125 23 C6.75375 23.66 6.3825 24.32 6 25 C4.02 25.33 2.04 25.66 0 26 C-0.33 30.95 -0.66 35.9 -1 41 C-3.31 41 -5.62 41 -8 41 C-8 33.74 -8 26.48 -8 19 C-5.36 19 -2.72 19 0 19 C0 12.73 0 6.46 0 0 Z " fill="#5E4FFD" transform="translate(34,61)"/>
<path d="M0 0 C1.32 0 2.64 0 4 0 C4 6.6 4 13.2 4 20 C6.31 20 8.62 20 11 20 C12.71216126 21.71216126 12.17191224 23.91807056 12.1875 26.25 C12.20167969 27.20390625 12.21585938 28.1578125 12.23046875 29.140625 C11.9897641 32.12699459 11.249438 34.29370741 10 37 C9.67 35.68 9.34 34.36 9 33 C4.71 33 0.42 33 -4 33 C-4.33 32.34 -4.66 31.68 -5 31 C-8.87802695 30.55709077 -8.87802695 30.55709077 -10.6875 32.5 C-11.120625 32.995 -11.55375 33.49 -12 34 C-12.33 34 -12.66 34 -13 34 C-13.19456705 32.04235617 -13.38044247 30.08384679 -13.5625 28.125 C-13.71912109 26.48917969 -13.71912109 26.48917969 -13.87890625 24.8203125 C-14 22 -14 22 -13 20 C-8.71 20 -4.42 20 0 20 C0 13.4 0 6.8 0 0 Z " fill="#6050FC" transform="translate(115,63)"/>
<path d="M0 0 C2.97 0 5.94 0 9 0 C9.33 1.65 9.66 3.3 10 5 C14.12148343 6.82660197 14.12148343 6.82660197 18.375 6.125 C18.91125 5.75375 19.4475 5.3825 20 5 C24 10.625 24 10.625 24 14 C21.87527424 14.05386629 19.75016348 14.09273071 17.625 14.125 C15.84996094 14.15980469 15.84996094 14.15980469 14.0390625 14.1953125 C11 14 11 14 9 12 C3.45764755 11.42765564 3.45764755 11.42765564 -1.5 13.5 C-3.71177972 17.18629954 -3.34421275 19.73176192 -3 24 C-2.67 24.66 -2.34 25.32 -2 26 C-5.96 26 -9.92 26 -14 26 C-13.01 25.01 -12.02 24.02 -11 23 C-10.74951364 19.87450983 -10.74951364 19.87450983 -11 17 C-12.32 16.34 -13.64 15.68 -15 15 C-13.94124926 11.59687262 -12.99097846 8.98646769 -11 6 C-9.906875 6.20625 -8.81375 6.4125 -7.6875 6.625 C-3.9161599 7.40346525 -3.9161599 7.40346525 -1 5 C-0.27034634 2.43717258 -0.27034634 2.43717258 0 0 Z " fill="#E8EBF1" transform="translate(98,19)"/>
<path d="M0 0 C1.39456452 0.00667256 2.78911118 0.01863093 4.18359375 0.03515625 C4.89451172 0.03966797 5.60542969 0.04417969 6.33789062 0.04882812 C8.09899388 0.06064761 9.86005411 0.07858362 11.62109375 0.09765625 C10.96109375 0.75765625 10.30109375 1.41765625 9.62109375 2.09765625 C8.97857025 4.16639659 8.97857025 4.16639659 8.62109375 6.09765625 C9.52859375 5.87078125 10.43609375 5.64390625 11.37109375 5.41015625 C14.62109375 5.09765625 14.62109375 5.09765625 16.99609375 6.41015625 C18.62109375 8.09765625 18.62109375 8.09765625 18.62109375 10.09765625 C20.27109375 10.09765625 21.92109375 10.09765625 23.62109375 10.09765625 C24.11609375 12.07765625 24.11609375 12.07765625 24.62109375 14.09765625 C18.18609375 14.59265625 18.18609375 14.59265625 11.62109375 15.09765625 C11.62109375 17.07765625 11.62109375 19.05765625 11.62109375 21.09765625 C12.61109375 21.42765625 13.60109375 21.75765625 14.62109375 22.09765625 C13.63109375 23.08765625 12.64109375 24.07765625 11.62109375 25.09765625 C7.74609375 23.34765625 7.74609375 23.34765625 6.62109375 21.09765625 C7.28109375 21.09765625 7.94109375 21.09765625 8.62109375 21.09765625 C8.62109375 19.77765625 8.62109375 18.45765625 8.62109375 17.09765625 C2.02109375 16.76765625 -4.57890625 16.43765625 -11.37890625 16.09765625 C-11.37890625 15.43765625 -11.37890625 14.77765625 -11.37890625 14.09765625 C-9.06890625 14.42765625 -6.75890625 14.75765625 -4.37890625 15.09765625 C-4.39050781 14.09863281 -4.40210937 13.09960938 -4.4140625 12.0703125 C-4.42308594 10.77996094 -4.43210937 9.48960938 -4.44140625 8.16015625 C-4.45300781 6.87238281 -4.46460937 5.58460937 -4.4765625 4.2578125 C-4.34887021 0.12568989 -4.34887021 0.12568989 0 0 Z " fill="#7FDAE5" transform="translate(109.37890625,32.90234375)"/>
<path d="M0 0 C0 9.57 0 19.14 0 29 C-8.25 29 -16.5 29 -25 29 C-25.26785714 15.60714286 -25.26785714 15.60714286 -23 12 C-22.67 12 -22.34 12 -22 12 C-21.67 13.98 -21.34 15.96 -21 18 C-15.39 18.33 -9.78 18.66 -4 19 C-4 13.06 -4 7.12 -4 1 C-1 0 -1 0 0 0 Z " fill="#748AFE" transform="translate(127,95)"/>
<path d="M0 0 C18.15 0 36.3 0 55 0 C55.495 1.98 55.495 1.98 56 4 C53.4430258 6.5569742 52.4888793 6.25709382 48.93945312 6.2746582 C47.88495972 6.28419022 46.83046631 6.29372223 45.74401855 6.30354309 C44.02994812 6.30217598 44.02994812 6.30217598 42.28125 6.30078125 C40.52802429 6.30720894 40.52802429 6.30720894 38.73937988 6.31376648 C36.26457366 6.31951757 33.78975052 6.32000434 31.31494141 6.31567383 C27.51565923 6.31251303 23.71715459 6.33596739 19.91796875 6.36132812 C17.51823015 6.36360083 15.11848945 6.36430475 12.71875 6.36328125 C11.57603638 6.372491 10.43332275 6.38170074 9.25598145 6.39118958 C7.67424133 6.38184639 7.67424133 6.38184639 6.06054688 6.37231445 C4.66394836 6.37325859 4.66394836 6.37325859 3.23913574 6.3742218 C2.50022095 6.25072861 1.76130615 6.12723541 1 6 C0.34 5.01 -0.32 4.02 -1 3 C-0.67 2.01 -0.34 1.02 0 0 Z " fill="#3894BA" transform="translate(42,45)"/>
<path d="M0 0 C1.58206422 0.00574487 3.16410406 0.01876032 4.74609375 0.03515625 C7.53046875 0.05578125 10.31484375 0.07640625 13.18359375 0.09765625 C13.18359375 6.03765625 13.18359375 11.97765625 13.18359375 18.09765625 C10.39921875 18.11828125 7.61484375 18.13890625 4.74609375 18.16015625 C3.86767822 18.16926025 2.9892627 18.17836426 2.08422852 18.18774414 C0.11713401 18.19488716 -1.84994246 18.14797518 -3.81640625 18.09765625 C-5.63756628 16.27649622 -4.94875705 13.79093861 -4.953125 11.37109375 C-4.94925781 10.62085937 -4.94539063 9.870625 -4.94140625 9.09765625 C-4.94527344 8.34742187 -4.94914062 7.5971875 -4.953125 6.82421875 C-4.94103514 0.12643386 -4.94103514 0.12643386 0 0 Z " fill="#3DCFE4" transform="translate(109.81640625,95.90234375)"/>
<path d="M0 0 C0.33 0 0.66 0 1 0 C1.33 2.97 1.66 5.94 2 9 C2.99 8.01 3.98 7.02 5 6 C5 6.66 5 7.32 5 8 C6.65 7.67 8.3 7.34 10 7 C10 7.99 10 8.98 10 10 C8.35 10.33 6.7 10.66 5 11 C4.95101562 11.67546875 4.90203125 12.3509375 4.8515625 13.046875 C4.77679688 13.93890625 4.70203125 14.8309375 4.625 15.75 C4.55539063 16.63171875 4.48578125 17.5134375 4.4140625 18.421875 C4 21 4 21 3 22.90625 C1.60146789 25.83442661 1.56845925 28.52567914 1.375 31.75 C1.25125 33.8125 1.1275 35.875 1 38 C9.25 38 17.5 38 26 38 C26 38.66 26 39.32 26 40 C28.31 40.66 30.62 41.32 33 42 C32 44 32 44 30.34521484 44.61450195 C25.49200924 45.41225457 20.54404055 45.18590312 15.63769531 45.18530273 C13.63863013 45.18748512 11.63960468 45.20599143 9.640625 45.22460938 C8.36960937 45.22654297 7.09859375 45.22847656 5.7890625 45.23046875 C4.63100098 45.23457764 3.47293945 45.23868652 2.27978516 45.24291992 C-1.11310954 44.99162245 -3.83332989 44.21173908 -7 43 C-6 41 -6 41 0 39 C0 26.13 0 13.26 0 0 Z " fill="#5F50EC" transform="translate(101,86)"/>
<path d="M0 0 C1.75183594 0.02320313 1.75183594 0.02320313 3.5390625 0.046875 C6.375 0.25 6.375 0.25 7.375 1.25 C9.02691396 1.34868509 10.68303217 1.37798837 12.33789062 1.37939453 C13.39568726 1.38254669 14.45348389 1.38569885 15.54333496 1.38894653 C16.69434692 1.3869223 17.84535889 1.38489807 19.03125 1.3828125 C20.20385376 1.38376923 21.37645752 1.38472595 22.58459473 1.38571167 C25.06958062 1.3863937 27.55456829 1.38453784 30.03955078 1.38037109 C33.85843887 1.37502319 37.67720935 1.38031536 41.49609375 1.38671875 C43.90364609 1.38605797 46.31119837 1.38477682 48.71875 1.3828125 C50.44526794 1.38584885 50.44526794 1.38584885 52.20666504 1.38894653 C53.79335999 1.38421829 53.79335999 1.38421829 55.41210938 1.37939453 C56.34841187 1.37859894 57.28471436 1.37780334 58.24938965 1.37698364 C60.3593306 1.48689643 60.3593306 1.48689643 61.375 0.25 C64.04558851 0.10884839 66.69932238 0.20752893 69.375 0.25 C69.375 1.9 69.375 3.55 69.375 5.25 C44.625 5.25 19.875 5.25 -5.625 5.25 C-5.625 6.9 -5.625 8.55 -5.625 10.25 C-6.945 10.25 -8.265 10.25 -9.625 10.25 C-9.98903455 3.81872301 -9.98903455 3.81872301 -8.52734375 1.53515625 C-5.69933051 -0.37534961 -3.36964703 -0.07471501 0 0 Z " fill="#3C3D89" transform="translate(35.625,48.75)"/>
<path d="M0 0 C1.98 0 3.96 0 6 0 C6.33 0.66 6.66 1.32 7 2 C14.92 2.33 22.84 2.66 31 3 C31 4.32 31 5.64 31 7 C30.01 7.33 29.02 7.66 28 8 C28.66 8.33 29.32 8.66 30 9 C30 9.66 30 10.32 30 11 C25.8882744 11.02465746 21.77657722 11.04283959 17.66479492 11.05493164 C16.26504772 11.0599708 14.8653058 11.06680216 13.46557617 11.07543945 C11.45754223 11.0875232 9.44947043 11.09269807 7.44140625 11.09765625 C6.23170166 11.10289307 5.02199707 11.10812988 3.77563477 11.11352539 C1 11 1 11 0 10 C-0.07205511 8.31391034 -0.08386068 6.62499341 -0.0625 4.9375 C-0.05347656 4.01839844 -0.04445313 3.09929687 -0.03515625 2.15234375 C-0.02355469 1.44207031 -0.01195313 0.73179688 0 0 Z " fill="#C3DAFE" transform="translate(27,102)"/>
<path d="M0 0 C13.53 0 27.06 0 41 0 C41 1.65 41 3.3 41 5 C27.47 5 13.94 5 0 5 C0 3.35 0 1.7 0 0 Z " fill="#3C3D89" transform="translate(60,97)"/>
<path d="M0 0 C0.83265381 0.00523682 1.66530762 0.01047363 2.52319336 0.01586914 C3.42231445 0.0190918 4.32143555 0.02231445 5.24780273 0.02563477 C6.66609375 0.03820313 6.66609375 0.03820313 8.11303711 0.05102539 C9.06243164 0.05553711 10.01182617 0.06004883 10.98999023 0.06469727 C13.34356776 0.07652429 15.69702188 0.09300514 18.05053711 0.11352539 C18.13185174 1.55008393 18.1898727 2.98797369 18.23803711 4.42602539 C18.29024414 5.62678711 18.29024414 5.62678711 18.34350586 6.85180664 C18.05053711 9.11352539 18.05053711 9.11352539 16.66381836 10.90649414 C15.05053711 12.11352539 15.05053711 12.11352539 13.05053711 12.11352539 C13.05053711 10.46352539 13.05053711 8.81352539 13.05053711 7.11352539 C11.73053711 6.78352539 10.41053711 6.45352539 9.05053711 6.11352539 C9.05053711 5.45352539 9.05053711 4.79352539 9.05053711 4.11352539 C8.06053711 4.11352539 7.07053711 4.11352539 6.05053711 4.11352539 C6.05053711 4.77352539 6.05053711 5.43352539 6.05053711 6.11352539 C4.73053711 6.44352539 3.41053711 6.77352539 2.05053711 7.11352539 C1.88376429 10.53008563 1.88376429 10.53008563 2.05053711 14.11352539 C2.71053711 14.77352539 3.37053711 15.43352539 4.05053711 16.11352539 C3.39053711 16.11352539 2.73053711 16.11352539 2.05053711 16.11352539 C2.05053711 16.77352539 2.05053711 17.43352539 2.05053711 18.11352539 C0.40053711 18.11352539 -1.24946289 18.11352539 -2.94946289 18.11352539 C-2.97630601 15.30096258 -2.99622477 12.48865298 -3.01196289 9.67602539 C-3.0203418 8.87358398 -3.0287207 8.07114258 -3.03735352 7.24438477 C-3.04597719 5.20057318 -3.00174439 3.15668637 -2.94946289 1.11352539 C-1.94946289 0.11352539 -1.94946289 0.11352539 0 0 Z " fill="#34C9DC" transform="translate(15.949462890625,58.886474609375)"/>
<path d="M0 0 C1.98 0 3.96 0 6 0 C6.66 1.65 7.32 3.3 8 5 C7.34 5 6.68 5 6 5 C6.391875 6.258125 6.78375 7.51625 7.1875 8.8125 C7.75390625 11.01953125 7.75390625 11.01953125 8 13 C6.625 15 6.625 15 5 16 C4.01 15.67 3.02 15.34 2 15 C1.34 16.32 0.68 17.64 0 19 C-1.98 19 -3.96 19 -6 19 C-6.66 17.68 -7.32 16.36 -8 15 C-9.32 15.33 -10.64 15.66 -12 16 C-13.76062164 12.67438135 -14.10784228 11.40826005 -13.125 7.6875 C-12.568125 6.3571875 -12.568125 6.3571875 -12 5 C-12.66 5 -13.32 5 -14 5 C-14 4.34 -14 3.68 -14 3 C-11.36 3 -8.72 3 -6 3 C-6.20625 4.11375 -6.4125 5.2275 -6.625 6.375 C-6.74875 7.57125 -6.8725 8.7675 -7 10 C-5.10244856 12.34973818 -5.10244856 12.34973818 -1.875 12.125 C-0.451875 12.063125 -0.451875 12.063125 1 12 C1.29562367 6.67829506 1.29562367 6.67829506 -1 2 C-0.67 1.34 -0.34 0.68 0 0 Z " fill="#EAEBF2" transform="translate(135,60)"/>
<path d="M0 0 C10.75 -0.125 10.75 -0.125 13 1 C12.79375 1.78375 12.5875 2.5675 12.375 3.375 C12.25125 4.24125 12.1275 5.1075 12 6 C12.66 6.66 13.32 7.32 14 8 C13.44444444 12.55555556 13.44444444 12.55555556 12 14 C7.99779347 14.14355117 4.00558317 14.04216403 0 14 C0 9.38 0 4.76 0 0 Z " fill="#3AC5D6" transform="translate(105,49)"/>
<path d="M0 0 C1.32 0 2.64 0 4 0 C4 6.6 4 13.2 4 20 C6.31 20 8.62 20 11 20 C11.33 20.99 11.66 21.98 12 23 C3.19039858 24.30512614 -5.19039858 24.30512614 -14 23 C-13.505 21.515 -13.505 21.515 -13 20 C-8.71 20 -4.42 20 0 20 C0 13.4 0 6.8 0 0 Z " fill="#4C4CA1" transform="translate(115,63)"/>
<path d="M0 0 C1.31871094 -0.01224609 2.63742188 -0.02449219 3.99609375 -0.03710938 C5.90068359 -0.04000977 5.90068359 -0.04000977 7.84375 -0.04296875 C9.00068359 -0.04707764 10.15761719 -0.05118652 11.34960938 -0.05541992 C14.47736509 0.18575467 16.680892 0.85423629 19.5 2.1875 C18.5 4.1875 18.5 4.1875 16.84521484 4.80200195 C11.99200924 5.59975457 7.04404055 5.37340312 2.13769531 5.37280273 C0.13863013 5.37498512 -1.86039532 5.39349143 -3.859375 5.41210938 C-5.13039063 5.41404297 -6.40140625 5.41597656 -7.7109375 5.41796875 C-8.86899902 5.42207764 -10.02706055 5.42618652 -11.22021484 5.43041992 C-14.61310954 5.17912245 -17.33332989 4.39923908 -20.5 3.1875 C-20.17 2.5275 -19.84 1.8675 -19.5 1.1875 C-13.23640183 -0.60566158 -6.45139424 0.00315317 0 0 Z " fill="#EAEBF2" transform="translate(114.5,125.8125)"/>
<path d="M0 0 C0.12375 0.928125 0.12375 0.928125 0.25 1.875 C0.81258459 4.18437567 0.81258459 4.18437567 3.0625 5.25 C3.701875 5.4975 4.34125 5.745 5 6 C3.71937515 7.7074998 2.38232443 9.37373596 1 11 C0.34 11 -0.32 11 -1 11 C-1 10.01 -1 9.02 -1 8 C-1.99 8 -2.98 8 -4 8 C-4.33 9.65 -4.66 11.3 -5 13 C-5.66 13 -6.32 13 -7 13 C-7 11.35 -7 9.7 -7 8 C-7.66 8 -8.32 8 -9 8 C-9.33 8.99 -9.66 9.98 -10 11 C-11.32 9.35 -12.64 7.7 -14 6 C-13.67 5.38125 -13.34 4.7625 -13 4.125 C-11.85806765 2.08981656 -11.85806765 2.08981656 -12 0 C-11.01 0.33 -10.02 0.66 -9 1 C-8.38125 0.67 -7.7625 0.34 -7.125 0 C-4.38132771 -1.2911399 -2.86062069 -0.79461686 0 0 Z " fill="#4EC6DB" transform="translate(51,89)"/>
<path d="M0 0 C18.15 0 36.3 0 55 0 C55.495 1.98 55.495 1.98 56 4 C51.71 4 47.42 4 43 4 C43 3.67 43 3.34 43 3 C28.81 3 14.62 3 0 3 C0 2.01 0 1.02 0 0 Z " fill="#34CFD5" transform="translate(42,45)"/>
<path d="M0 0 C1.76537109 -0.00386719 1.76537109 -0.00386719 3.56640625 -0.0078125 C6.4375 0.125 6.4375 0.125 7.4375 1.125 C7.51008946 3.31139453 7.52123783 5.50000389 7.5 7.6875 C7.49097656 8.88503906 7.48195312 10.08257812 7.47265625 11.31640625 C7.46105469 12.24324219 7.44945312 13.17007813 7.4375 14.125 C6.7775 13.135 6.1175 12.145 5.4375 11.125 C4.65375 10.980625 3.87 10.83625 3.0625 10.6875 C0.4375 10.125 0.4375 10.125 -1.5 8.0625 C-3.48821357 5.78921123 -3.48821357 5.78921123 -6.8125 5.875 C-7.72 5.9575 -8.6275 6.04 -9.5625 6.125 C-9.1875 3.6875 -9.1875 3.6875 -8.5625 1.125 C-5.69616205 -0.30816898 -3.19014499 -0.00700361 0 0 Z " fill="#36D1D4" transform="translate(127.5625,32.875)"/>
<path d="M0 0 C1.5631897 0.00785522 1.5631897 0.00785522 3.15795898 0.01586914 C4.28266602 0.0190918 5.40737305 0.02231445 6.56616211 0.02563477 C7.75016602 0.03401367 8.93416992 0.04239258 10.15405273 0.05102539 C11.34192383 0.05553711 12.52979492 0.06004883 13.75366211 0.06469727 C16.69967499 0.07652864 19.64558954 0.09301252 22.59155273 0.11352539 C20.59155273 3.11352539 20.59155273 3.11352539 18.34155273 3.86352539 C15.59155273 4.11352539 15.59155273 4.11352539 12.59155273 3.55102539 C9.21110366 3.05804323 7.60326118 3.60767117 4.59155273 5.11352539 C4.59155273 4.45352539 4.59155273 3.79352539 4.59155273 3.11352539 C3.93155273 3.11352539 3.27155273 3.11352539 2.59155273 3.11352539 C2.90092773 3.97977539 2.90092773 3.97977539 3.21655273 4.86352539 C3.67816535 7.63320106 3.02100219 8.75913806 1.59155273 11.11352539 C-0.05844727 11.11352539 -1.70844727 11.11352539 -3.40844727 11.11352539 C-3.43532877 9.46777973 -3.4547885 7.82191126 -3.47094727 6.17602539 C-3.48254883 5.25950195 -3.49415039 4.34297852 -3.50610352 3.39868164 C-3.37081445 0.23291744 -3.1699095 0.14941793 0 0 Z " fill="#3F9DE8" transform="translate(36.408447265625,85.886474609375)"/>
<path d="M0 0 C0.66 0 1.32 0 2 0 C2 4.62 2 9.24 2 14 C-2.95 14 -7.9 14 -13 14 C-12.01 13.01 -11.02 12.02 -10 11 C-9.67 10.13375 -9.34 9.2675 -9 8.375 C-8.67 7.59125 -8.34 6.8075 -8 6 C-7.01 5.67 -6.02 5.34 -5 5 C-4.154375 4.154375 -3.30875 3.30875 -2.4375 2.4375 C-1.633125 1.633125 -0.82875 0.82875 0 0 Z " fill="#3AD9D9" transform="translate(121,100)"/>
<path d="M0 0 C0.99 0 1.98 0 3 0 C3.33 0.66 3.66 1.32 4 2 C6.02463255 2.65213292 6.02463255 2.65213292 8 3 C8.3125 6.3125 8.3125 6.3125 8 10 C5.15739513 12.38164192 3.71594733 13 0 13 C0 12.34 0 11.68 0 11 C-1.65 10.67 -3.3 10.34 -5 10 C-5 7.69 -5 5.38 -5 3 C-3.35 2.67 -1.7 2.34 0 2 C0 1.34 0 0.68 0 0 Z " fill="#F2FAFC" transform="translate(22,63)"/>
<path d="M0 0 C2.875 1 2.875 1 4.25 3.0625 C4.45625 3.701875 4.6625 4.34125 4.875 5 C6.525 5 8.175 5 9.875 5 C9.875 5.99 9.875 6.98 9.875 8 C2.615 8 -4.645 8 -12.125 8 C-11.795 7.01 -11.465 6.02 -11.125 5 C-10.526875 4.855625 -9.92875 4.71125 -9.3125 4.5625 C-6.9166207 4.1646438 -6.9166207 4.1646438 -5.25 1.875 C-3.125 0 -3.125 0 0 0 Z " fill="#F8FDFD" transform="translate(123.125,38)"/>
<path d="M0 0 C0.33 0 0.66 0 1 0 C1.33 1.98 1.66 3.96 2 6 C4.97 6.33 7.94 6.66 11 7 C10 9 9 11 8 13 C7.01 13 6.02 13 5 13 C5.33 13.66 5.66 14.32 6 15 C5.01 15 4.02 15 3 15 C2.67 15.66 2.34 16.32 2 17 C0.68 17 -0.64 17 -2 17 C-2.05418326 14.91695462 -2.09287551 12.83350232 -2.125 10.75 C-2.14820312 9.58984375 -2.17140625 8.4296875 -2.1953125 7.234375 C-2.0103949 4.17213954 -1.60823023 2.55797249 0 0 Z " fill="#6B72FE" transform="translate(104,107)"/>
<path d="M0 0 C1.32 0 2.64 0 4 0 C4 5.61 4 11.22 4 17 C4.99 17 5.98 17 7 17 C7 18.65 7 20.3 7 22 C4.69 22 2.38 22 0 22 C0 14.74 0 7.48 0 0 Z " fill="#41448E" transform="translate(26,80)"/>
<path d="M0 0 C0.83265381 0.00523682 1.66530762 0.01047363 2.52319336 0.01586914 C3.42231445 0.0190918 4.32143555 0.02231445 5.24780273 0.02563477 C6.66609375 0.03820312 6.66609375 0.03820312 8.11303711 0.05102539 C9.06243164 0.05553711 10.01182617 0.06004883 10.98999023 0.06469727 C13.34356776 0.07652429 15.69702188 0.09300514 18.05053711 0.11352539 C17.72053711 1.76352539 17.39053711 3.41352539 17.05053711 5.11352539 C10.78053711 5.11352539 4.51053711 5.11352539 -1.94946289 5.11352539 C-2.27946289 3.79352539 -2.60946289 2.47352539 -2.94946289 1.11352539 C-1.94946289 0.11352539 -1.94946289 0.11352539 0 0 Z " fill="#34D0D5" transform="translate(15.949462890625,31.886474609375)"/>
<path d="M0 0 C1.79244141 0.01740234 1.79244141 0.01740234 3.62109375 0.03515625 C5.41740234 0.04869141 5.41740234 0.04869141 7.25 0.0625 C8.17683594 0.07410156 9.10367188 0.08570313 10.05859375 0.09765625 C9.72859375 0.75765625 9.39859375 1.41765625 9.05859375 2.09765625 C8.39859375 2.09765625 7.73859375 2.09765625 7.05859375 2.09765625 C7.05859375 2.75765625 7.05859375 3.41765625 7.05859375 4.09765625 C5.73859375 4.42765625 4.41859375 4.75765625 3.05859375 5.09765625 C3.38859375 5.75765625 3.71859375 6.41765625 4.05859375 7.09765625 C3.06859375 8.58265625 3.06859375 8.58265625 2.05859375 10.09765625 C1.06859375 10.09765625 0.07859375 10.09765625 -0.94140625 10.09765625 C-1.60140625 12.07765625 -2.26140625 14.05765625 -2.94140625 16.09765625 C-4.26140625 15.76765625 -5.58140625 15.43765625 -6.94140625 15.09765625 C-5.54808051 11.73045238 -3.96247765 10.11170385 -0.94140625 8.09765625 C-1.60140625 7.76765625 -2.26140625 7.43765625 -2.94140625 7.09765625 C-3.62890625 4.09765625 -3.62890625 4.09765625 -3.94140625 1.09765625 C-2.94140625 0.09765625 -2.94140625 0.09765625 0 0 Z " fill="#37D6CD" transform="translate(123.94140625,46.90234375)"/>
<path d="M0 0 C1.93166016 0.01740234 1.93166016 0.01740234 3.90234375 0.03515625 C5.19269531 0.04417969 6.48304687 0.05320312 7.8125 0.0625 C8.81152344 0.07410156 9.81054688 0.08570312 10.83984375 0.09765625 C10.24429688 0.54367188 9.64875 0.9896875 9.03515625 1.44921875 C2.45644496 6.1303687 2.45644496 6.1303687 -1.16015625 13.09765625 C-2.15015625 13.09765625 -3.14015625 13.09765625 -4.16015625 13.09765625 C-4.18702178 11.11856227 -4.20649 9.13936654 -4.22265625 7.16015625 C-4.23425781 6.05800781 -4.24585937 4.95585938 -4.2578125 3.8203125 C-4.11749553 -0.09172464 -3.97435676 0.12281696 0 0 Z " fill="#40C2EE" transform="translate(109.16015625,95.90234375)"/>
<path d="M0 0 C0.33 0.66 0.66 1.32 1 2 C4.63 2 8.26 2 12 2 C12 4.31 12 6.62 12 9 C12.99 9.33 13.98 9.66 15 10 C14.01 10.99 13.02 11.98 12 13 C8.125 11.25 8.125 11.25 7 9 C7.66 9 8.32 9 9 9 C9 7.68 9 6.36 9 5 C2.4 4.67 -4.2 4.34 -11 4 C-11 3.34 -11 2.68 -11 2 C-9.39125 2.061875 -9.39125 2.061875 -7.75 2.125 C-4.34252515 2.0114175 -2.79260369 1.78726636 0 0 Z " fill="#73D1DF" transform="translate(109,45)"/>
<path d="M0 0 C1.32 0 2.64 0 4 0 C4 6.6 4 13.2 4 20 C2.68 19.67 1.36 19.34 0 19 C0 12.73 0 6.46 0 0 Z " fill="#3E3E8B" transform="translate(115,63)"/>
<path d="M0 0 C5.02254631 -0.2954439 7.89542386 0.01485372 12 3 C10.60878255 5.7824349 8.69835788 6.55210065 6 8 C5.34 8 4.68 8 4 8 C2.97980427 8.9793879 1.97850195 9.97895449 1 11 C0.67 11 0.34 11 0 11 C0 7.37 0 3.74 0 0 Z " fill="#5A39FF" transform="translate(102,86)"/>
<path d="M0 0 C1.67542976 0.28604898 3.34385343 0.61781233 5 1 C5.97477898 4.72188336 6.12816587 6.64248468 4.8125 10.3125 C3 13 3 13 0.88671875 13.66796875 C0.26410156 13.77753906 -0.35851562 13.88710938 -1 14 C-1.02685938 11.85423363 -1.04633088 9.70837355 -1.0625 7.5625 C-1.07410156 6.36753906 -1.08570312 5.17257813 -1.09765625 3.94140625 C-1 1 -1 1 0 0 Z " fill="#31C5DF" transform="translate(106,33)"/>
<path d="M0 0 C8.58 0 17.16 0 26 0 C25.67 0.99 25.34 1.98 25 3 C17.08 3 9.16 3 1 3 C0.67 2.01 0.34 1.02 0 0 Z " fill="#4C4CA0" transform="translate(101,124)"/>
<path d="M0 0 C0.70461365 0.02361099 1.40922729 0.04722198 2.13519287 0.07154846 C4.3768078 0.14787602 6.61804996 0.23203204 8.859375 0.31640625 C10.3827945 0.36965795 11.90623198 0.42239813 13.4296875 0.47460938 C17.15647655 0.60344873 20.88297167 0.73930857 24.609375 0.87890625 C24.609375 1.53890625 24.609375 2.19890625 24.609375 2.87890625 C12.729375 2.87890625 0.849375 2.87890625 -11.390625 2.87890625 C-11.390625 2.21890625 -11.390625 1.55890625 -11.390625 0.87890625 C-7.60849365 -0.3691971 -3.92263206 -0.15611092 0 0 Z " fill="#87B4FE" transform="translate(69.390625,118.12109375)"/>
<path d="M0 0 C2.64 0 5.28 0 8 0 C8.08131463 1.43655854 8.13933559 2.8744483 8.1875 4.3125 C8.22230469 5.11300781 8.25710937 5.91351563 8.29296875 6.73828125 C8 9 8 9 6.61328125 10.79296875 C5 12 5 12 3 12 C3 10.35 3 8.7 3 7 C2.01 7 1.02 7 0 7 C0 4.69 0 2.38 0 0 Z " fill="#3BB1C7" transform="translate(26,59)"/>
<path d="M0 0 C1.79158489 -0.02696365 3.58328473 -0.04637917 5.375 -0.0625 C6.37273437 -0.07410156 7.37046875 -0.08570313 8.3984375 -0.09765625 C11 0 11 0 13 1 C13 2.32 13 3.64 13 5 C8.71 5 4.42 5 0 5 C0 3.35 0 1.7 0 0 Z " fill="#34AFC6" transform="translate(105,49)"/>
<path d="M0 0 C0 5.28 0 10.56 0 16 C-1.32 16.33 -2.64 16.66 -4 17 C-4 11.72 -4 6.44 -4 1 C-1 0 -1 0 0 0 Z " fill="#6D75FE" transform="translate(127,95)"/>
<path d="M0 0 C1.31223496 3.93670488 0.24296256 6.12488144 -1 10 C-1.99 9.67 -2.98 9.34 -4 9 C-4.33 9.99 -4.66 10.98 -5 12 C-6.32 10.35 -7.64 8.7 -9 7 C-8.67 6.38125 -8.34 5.7625 -8 5.125 C-6.85806765 3.08981656 -6.85806765 3.08981656 -7 1 C-6.01 1.33 -5.02 1.66 -4 2 C-1.83284443 1.12516085 -1.83284443 1.12516085 0 0 Z " fill="#44B6E0" transform="translate(46,88)"/>
<path d="M0 0 C1.24716797 0.00322266 2.49433594 0.00644531 3.77929688 0.00976562 C5.07287109 0.01814453 6.36644531 0.02652344 7.69921875 0.03515625 C9.66858398 0.04192383 9.66858398 0.04192383 11.67773438 0.04882812 C14.91410885 0.06059676 18.15039053 0.07703865 21.38671875 0.09765625 C21.05671875 0.75765625 20.72671875 1.41765625 20.38671875 2.09765625 C19.73074707 2.11747559 19.07477539 2.13729492 18.39892578 2.15771484 C15.43610806 2.25278132 12.47401343 2.36253377 9.51171875 2.47265625 C7.96291016 2.5190625 7.96291016 2.5190625 6.3828125 2.56640625 C4.90361328 2.62441406 4.90361328 2.62441406 3.39453125 2.68359375 C2.4833252 2.71501465 1.57211914 2.74643555 0.63330078 2.77880859 C-1.81259311 2.89648136 -1.81259311 2.89648136 -3.61328125 5.09765625 C-6.34197532 5.06478042 -8.90994305 4.53367854 -11.61328125 4.09765625 C-11.61328125 3.10765625 -11.61328125 2.11765625 -11.61328125 1.09765625 C-7.68039761 0.16677716 -4.03673962 -0.0184326 0 0 Z " fill="#D9D9E8" transform="translate(106.61328125,125.90234375)"/>
<path d="M0 0 C0.74507812 0.00902344 1.49015625 0.01804687 2.2578125 0.02734375 C4.08868059 0.05081642 5.91938238 0.08668475 7.75 0.125 C5.75 3.125 5.75 3.125 3.5 3.875 C0.75 4.125 0.75 4.125 -2.25 3.5625 C-5.63044907 3.06951784 -7.23829155 3.61914578 -10.25 5.125 C-10.25 4.465 -10.25 3.805 -10.25 3.125 C-10.91 2.795 -11.57 2.465 -12.25 2.125 C-8.4084024 -0.44280471 -4.4360825 -0.10188882 0 0 Z " fill="#3DB9DC" transform="translate(51.25,85.875)"/>
<path d="M0 0 C0 2.97 0 5.94 0 9 C-2.97 9 -5.94 9 -9 9 C-7.33791462 5.063482 -5.07499549 0 0 0 Z " fill="#38DDC8" transform="translate(123,105)"/>
<path d="M0 0 C0.16682272 4.92127034 0.24828052 8.50343896 -2 13 C-2.33 11.68 -2.66 10.36 -3 9 C-5.31 9 -7.62 9 -10 9 C-10 8.34 -10 7.68 -10 7 C-8.35 6.67 -6.7 6.34 -5 6 C-4.67 5.01 -4.34 4.02 -4 3 C-1.33333333 0 -1.33333333 0 0 0 Z " fill="#6761FF" transform="translate(127,87)"/>
<path d="M0 0 C2.875 -0.125 2.875 -0.125 6 0 C6.66 0.66 7.32 1.32 8 2 C8.33 1.34 8.66 0.68 9 0 C9.66 0 10.32 0 11 0 C10.67 1.65 10.34 3.3 10 5 C6.7 5 3.4 5 0 5 C0 3.35 0 1.7 0 0 Z " fill="#35ADC6" transform="translate(33,97)"/>
<path d="M0 0 C0.33 0 0.66 0 1 0 C1 2.97 1 5.94 1 9 C-1.31 9 -3.62 9 -6 9 C-6.33 7.68 -6.66 6.36 -7 5 C-6.401875 4.731875 -5.80375 4.46375 -5.1875 4.1875 C-3.02529834 3.01373338 -1.68375878 1.76393777 0 0 Z " fill="#35D8C4" transform="translate(33,71)"/>
<path d="M0 0 C2.97 0 5.94 0 9 0 C8.01 0.495 8.01 0.495 7 1 C7 1.66 7 2.32 7 3 C6.01 3.66 5.02 4.32 4 5 C3.27617533 7.05925139 3.27617533 7.05925139 3 9 C2.01 9 1.02 9 0 9 C0 6.03 0 3.06 0 0 Z " fill="#3EBCDD" transform="translate(105,54)"/>
<path d="M0 0 C4.62 0 9.24 0 14 0 C14.33 1.32 14.66 2.64 15 4 C10.71 4 6.42 4 2 4 C1.34 2.68 0.68 1.36 0 0 Z " fill="#54D8D4" transform="translate(83,45)"/>
<path d="M0 0 C1.37478516 0.01740234 1.37478516 0.01740234 2.77734375 0.03515625 C3.69644531 0.04417969 4.61554688 0.05320312 5.5625 0.0625 C6.27277344 0.07410156 6.98304687 0.08570312 7.71484375 0.09765625 C4.71484375 2.09765625 4.71484375 2.09765625 1.71484375 2.09765625 C1.71484375 2.75765625 1.71484375 3.41765625 1.71484375 4.09765625 C0.04817708 5.76432292 -1.61848958 7.43098958 -3.28515625 9.09765625 C-3.3828125 2.9453125 -3.3828125 2.9453125 -3.28515625 1.09765625 C-2.28515625 0.09765625 -2.28515625 0.09765625 0 0 Z " fill="#45B4F5" transform="translate(108.28515625,95.90234375)"/>
<path d="M0 0 C2.69082872 0.17635452 5.32851446 0.61835921 8 1 C8 2.32 8 3.64 8 5 C5.36 5 2.72 5 0 5 C-0.5625 3.0625 -0.5625 3.0625 -1 1 C-0.67 0.67 -0.34 0.34 0 0 Z " fill="#31C7DE" transform="translate(14,32)"/>
<path d="M0 0 C0.99 0 1.98 0 3 0 C3 0.99 3 1.98 3 3 C4.65 2.01 6.3 1.02 8 0 C8.33 1.65 8.66 3.3 9 5 C5.30581799 6.231394 2.7943739 5.64432764 -1 5 C-0.67 3.35 -0.34 1.7 0 0 Z " fill="#35CCC5" transform="translate(47,97)"/>
<path d="M0 0 C2.64 0 5.28 0 8 0 C8 1.98 8 3.96 8 6 C7.67 5.34 7.34 4.68 7 4 C6.01 4 5.02 4 4 4 C4 4.66 4 5.32 4 6 C3.01 5.67 2.02 5.34 1 5 C0.67 3.35 0.34 1.7 0 0 Z " fill="#3CCCDC" transform="translate(18,59)"/>
<path d="M0 0 C1.07765625 0.10183594 2.1553125 0.20367187 3.265625 0.30859375 C4.08546875 0.39238281 4.9053125 0.47617188 5.75 0.5625 C5.75 1.2225 5.75 1.8825 5.75 2.5625 C0.47 2.5625 -4.81 2.5625 -10.25 2.5625 C-10.25 1.9025 -10.25 1.2425 -10.25 0.5625 C-6.70049966 -0.60056443 -3.69176052 -0.36115049 0 0 Z " fill="#99C0FE" transform="translate(68.25,118.4375)"/>
<path d="M0 0 C2 3.875 2 3.875 2 5 C-1.63 5 -5.26 5 -9 5 C-9.33 4.01 -9.66 3.02 -10 2 C-6.7 2 -3.4 2 0 2 C0 1.34 0 0.68 0 0 Z " fill="#4ED0D8" transform="translate(43,100)"/>
<path d="M0 0 C0.33 0 0.66 0 1 0 C1.12375 0.94875 1.2475 1.8975 1.375 2.875 C1.71687177 6.08667191 1.71687177 6.08667191 4 8 C2 10 2 10 -1 11 C-1.33 10.67 -1.66 10.34 -2 10 C-1.9140625 7.96875 -1.9140625 7.96875 -1.625 5.5 C-1.53476563 4.6853125 -1.44453125 3.870625 -1.3515625 3.03125 C-1 1 -1 1 0 0 Z " fill="#6762FF" transform="translate(104,107)"/>
<path d="M0 0 C0.66 0 1.32 0 2 0 C1.69106068 1.6256807 1.3777305 3.25052748 1.0625 4.875 C0.88847656 5.77992187 0.71445312 6.68484375 0.53515625 7.6171875 C0 10 0 10 -1 12 C-1.66 12 -2.32 12 -3 12 C-2.14285714 3.42857143 -2.14285714 3.42857143 0 0 Z " fill="#D6F1F5" transform="translate(47,90)"/>
<path d="M0 0 C1.67542976 0.28604898 3.34385343 0.61781233 5 1 C4.67 2.32 4.34 3.64 4 5 C2.68 5.33 1.36 5.66 0 6 C-0.38218767 4.34385343 -0.71395102 2.67542976 -1 1 C-0.67 0.67 -0.34 0.34 0 0 Z " fill="#49CFDB" transform="translate(22,67)"/>
<path d="M0 0 C0.66 0 1.32 0 2 0 C2 1.65 2 3.3 2 5 C2.99 5.33 3.98 5.66 5 6 C4.01 6.99 3.02 7.98 2 9 C-1.875 7.25 -1.875 7.25 -3 5 C-2.01 5 -1.02 5 0 5 C0 3.35 0 1.7 0 0 Z " fill="#F4FCFD" transform="translate(119,49)"/>
<path d="M0 0 C0.99 0 1.98 0 3 0 C3.6875 2.3125 3.6875 2.3125 4 5 C2.6875 6.8125 2.6875 6.8125 1 8 C0.34 8 -0.32 8 -1 8 C-1.125 2.25 -1.125 2.25 0 0 Z " fill="#3AC3D5" transform="translate(30,63)"/>
<path d="M0 0 C0 0.66 0 1.32 0 2 C-2.76250036 3.38125018 -4.94731099 3.19079306 -8 3 C-8.66 2.34 -9.32 1.68 -10 1 C-6.21812119 -0.83691257 -4.05431692 -1.15837626 0 0 Z " fill="#3DD7CC" transform="translate(53,102)"/>
<path d="M0 0 C2.97 0 5.94 0 9 0 C8.67 0.66 8.34 1.32 8 2 C6 2.33333333 4 2.66666667 2 3 C1.67 3.66 1.34 4.32 1 5 C0.34 5 -0.32 5 -1 5 C-0.67 3.35 -0.34 1.7 0 0 Z " fill="#4A95EC" transform="translate(34,86)"/>
<path d="M0 0 C1.32 0.66 2.64 1.32 4 2 C3.67 3.65 3.34 5.3 3 7 C2.01 7 1.02 7 0 7 C-0.66 6.01 -1.32 5.02 -2 4 C-1.34 4 -0.68 4 0 4 C0 2.68 0 1.36 0 0 Z " fill="#34C0C7" transform="translate(115,55)"/>
<path d="M0 0 C0.33 0 0.66 0 1 0 C1 2.64 1 5.28 1 8 C-0.32 8.33 -1.64 8.66 -3 9 C-3 7.02 -3 5.04 -3 3 C-2.01 3 -1.02 3 0 3 C0 2.01 0 1.02 0 0 Z " fill="#7183FE" transform="translate(126,103)"/>
<path d="M0 0 C-1.15173355 2.46800047 -2.04783565 4.04783565 -4 6 C-5.32 6 -6.64 6 -8 6 C-8.33 4.68 -8.66 3.36 -9 2 C-8.01 2.33 -7.02 2.66 -6 3 C-5.67 2.34 -5.34 1.68 -5 1 C-2 0 -2 0 0 0 Z " fill="#3DC5D7" transform="translate(60,87)"/>
<path d="M0 0 C-5.14285714 4.42857143 -5.14285714 4.42857143 -9 5 C-9 4.34 -9 3.68 -9 3 C-9.66 2.67 -10.32 2.34 -11 2 C-7.36576791 -0.32590854 -4.22911669 -0.16265833 0 0 Z " fill="#43A7E4" transform="translate(50,86)"/>
<path d="M0 0 C0.99 0 1.98 0 3 0 C3.33 0.66 3.66 1.32 4 2 C6.02463255 2.65213292 6.02463255 2.65213292 8 3 C8 3.66 8 4.32 8 5 C7.34 5 6.68 5 6 5 C5.67 5.99 5.34 6.98 5 8 C4.7525 7.38125 4.505 6.7625 4.25 6.125 C2.79371361 3.64931313 1.62187494 3.04874998 -1 2 C-0.67 1.34 -0.34 0.68 0 0 Z " fill="#FAFDFE" transform="translate(22,63)"/>
<path d="M0 0 C2.33944736 0.28730055 4.6739143 0.61936779 7 1 C6.01 1.66 5.02 2.32 4 3 C3.01 4.485 3.01 4.485 2 6 C1.34 6 0.68 6 0 6 C-0.38218767 4.34385343 -0.71395102 2.67542976 -1 1 C-0.67 0.67 -0.34 0.34 0 0 Z " fill="#D7F1F7" transform="translate(18,65)"/>
<path d="M0 0 C1.4370809 -0.05422947 2.87475462 -0.09289723 4.3125 -0.125 C5.11300781 -0.14820313 5.91351563 -0.17140625 6.73828125 -0.1953125 C9 0 9 0 12 2 C6.06 2.495 6.06 2.495 0 3 C0 2.01 0 1.02 0 0 Z " fill="#32C6DE" transform="translate(42,45)"/>
<path d="M0 0 C-0.185625 0.5775 -0.37125 1.155 -0.5625 1.75 C-1.04023546 4.20692525 -0.75729364 5.64397534 0 8 C-1.65 6.35 -3.3 4.7 -5 3 C-2.25 0 -2.25 0 0 0 Z " fill="#E4F4F8" transform="translate(42,92)"/>
<path d="M0 0 C2 3.75 2 3.75 2 6 C0.35 6 -1.3 6 -3 6 C-3 5.01 -3 4.02 -3 3 C-2.34 3 -1.68 3 -1 3 C-0.67 2.01 -0.34 1.02 0 0 Z " fill="#43A9E5" transform="translate(36,91)"/>
<path d="M0 0 C1.65 0.99 3.3 1.98 5 3 C3.625 5 3.625 5 2 7 C1.34 7 0.68 7 0 7 C0.2784375 6.1028125 0.2784375 6.1028125 0.5625 5.1875 C1.22093687 2.83591238 1.22093687 2.83591238 0 0 Z " fill="#E5F7F9" transform="translate(51,92)"/>
<path d="M0 0 C1.32 0 2.64 0 4 0 C4 1.98 4 3.96 4 6 C3.67 5.34 3.34 4.68 3 4 C2.01 4 1.02 4 0 4 C0 2.68 0 1.36 0 0 Z " fill="#3DB1E0" transform="translate(30,59)"/>
</svg>
