<?xml version="1.0" encoding="UTF-8"?>
<svg version="1.1" xmlns="http://www.w3.org/2000/svg" width="150" height="150">
<path d="M0 0 C4.95 0.495 4.95 0.495 10 1 C9.9071875 2.423125 9.9071875 2.423125 9.8125 3.875 C9.874375 4.90625 9.93625 5.9375 10 7 C13.6441774 9.4294516 15.71241272 9.16179575 20 9 C20.99 11.97 20.99 11.97 22 15 C22.85464844 14.98839844 23.70929688 14.97679687 24.58984375 14.96484375 C25.69457031 14.95582031 26.79929687 14.94679688 27.9375 14.9375 C29.03964844 14.92589844 30.14179688 14.91429687 31.27734375 14.90234375 C34 15 34 15 35 16 C35.08713831 17.70772358 35.10700007 19.41898649 35.09765625 21.12890625 C35.09443359 22.16337891 35.09121094 23.19785156 35.08789062 24.26367188 C35.07951172 25.35228516 35.07113281 26.44089844 35.0625 27.5625 C35.05798828 28.65498047 35.05347656 29.74746094 35.04882812 30.87304688 C35.03699826 33.58208495 35.02051543 36.29101599 35 39 C36.32 39.33 37.64 39.66 39 40 C39.33 41.65 39.66 43.3 40 45 C40.99 45.33 41.98 45.66 43 46 C43.33 47.65 43.66 49.3 44 51 C42.68 51.33 41.36 51.66 40 52 C40.33 53.98 40.66 55.96 41 58 C37.88228073 59.60339848 36.60988311 60.18974141 33.1875 59.125 C32.465625 58.75375 31.74375 58.3825 31 58 C30.67 58.99 30.34 59.98 30 61 C27.5625 60.3125 27.5625 60.3125 25 59 C24.1875 56.375 24.1875 56.375 24 54 C23.01 54 22.02 54 21 54 C20.67 52.35 20.34 50.7 20 49 C21.32 48.67 22.64 48.34 24 48 C24 47.34 24 46.68 24 46 C22.35 45.67 20.7 45.34 19 45 C19 51.6 19 58.2 19 65 C21.31 65 23.62 65 26 65 C27 66 27 66 27.11352539 69.96899414 C27.1133662 71.74105607 27.10766785 73.5131226 27.09765625 75.28515625 C27.0962413 76.21597519 27.09482635 77.14679413 27.09336853 78.1058197 C27.08775172 81.09141191 27.0751964 84.07693029 27.0625 87.0625 C27.05748716 89.08137913 27.05292388 91.10025943 27.04882812 93.11914062 C27.03777683 98.07945572 27.02050095 103.03971532 27 108 C29.31 108.66 31.62 109.32 34 110 C33 112 33 112 31.34521484 112.61450195 C26.49200924 113.41225457 21.54404055 113.18590312 16.63769531 113.18530273 C14.63863013 113.18748512 12.63960468 113.20599143 10.640625 113.22460938 C9.36960937 113.22654297 8.09859375 113.22847656 6.7890625 113.23046875 C5.63100098 113.23457764 4.47293945 113.23868652 3.27978516 113.24291992 C-0.11310954 112.99162245 -2.83332989 112.21173908 -6 111 C-5.67 110.34 -5.34 109.68 -5 109 C-2.4375 108.375 -2.4375 108.375 0 108 C-0.67857056 107.99191315 -1.35714111 107.98382629 -2.05627441 107.97549438 C-9.19572947 107.88863335 -16.33493245 107.7891071 -23.47412109 107.68261719 C-26.12938188 107.64363425 -28.7845665 107.60971702 -31.43994141 107.578125 C-69.93926359 107.11445232 -69.93926359 107.11445232 -77 103 C-76.67 102.34 -76.34 101.68 -76 101 C-74.66666667 100.66666667 -73.33333333 100.33333333 -72 100 C-71.67 99.34 -71.34 98.68 -71 98 C-75.2787981 98.41586354 -75.2787981 98.41586354 -78.875 100.5625 C-79.24625 101.036875 -79.6175 101.51125 -80 102 C-82.5 100.875 -82.5 100.875 -85 99 C-85.25 96 -85.25 96 -85 93 C-85.33 92.01 -85.66 91.02 -86 90 C-86.639375 90.185625 -87.27875 90.37125 -87.9375 90.5625 C-88.9584375 90.7790625 -88.9584375 90.7790625 -90 91 C-91 90 -91 90 -91.0625 86.4375 C-91.041875 85.303125 -91.02125 84.16875 -91 83 C-89.35 83 -87.7 83 -86 83 C-85.92572162 79.65747276 -85.93453047 77.1964086 -87 74 C-84.6875 72.4375 -84.6875 72.4375 -82 71 C-81.01 71.33 -80.02 71.66 -79 72 C-79 72.66 -79 73.32 -79 74 C-77.35 74 -75.7 74 -74 74 C-74 70.04 -74 66.08 -74 62 C-78.29 62 -82.58 62 -87 62 C-87.02683436 58.68744674 -87.0467578 55.37510817 -87.0625 52.0625 C-87.07087891 51.11697266 -87.07925781 50.17144531 -87.08789062 49.19726562 C-87.09111328 48.29814453 -87.09433594 47.39902344 -87.09765625 46.47265625 C-87.10289307 45.64000244 -87.10812988 44.80734863 -87.11352539 43.94946289 C-87 42 -87 42 -86 41 C-83.98035801 40.92755947 -81.95832876 40.91622812 -79.9375 40.9375 C-78.28041016 40.95103516 -78.28041016 40.95103516 -76.58984375 40.96484375 C-75.73519531 40.97644531 -74.88054687 40.98804688 -74 41 C-74 39.02 -74 37.04 -74 35 C-80.27 35 -86.54 35 -93 35 C-93 34.67 -93 34.34 -93 34 C-90.525 33.505 -90.525 33.505 -88 33 C-87.67 31.68 -87.34 30.36 -87 29 C-88.98 29 -90.96 29 -93 29 C-93 28.67 -93 28.34 -93 28 C-91.35 27.67 -89.7 27.34 -88 27 C-87.67 25.68 -87.34 24.36 -87 23 C-88.98 23 -90.96 23 -93 23 C-93 22.67 -93 22.34 -93 22 C-91.35 21.67 -89.7 21.34 -88 21 C-87.67 19.68 -87.34 18.36 -87 17 C-88.98 17 -90.96 17 -93 17 C-93 16.67 -93 16.34 -93 16 C-87.11060037 13.95887931 -81.8280285 13.72721958 -75.625 13.8125 C-74.25408203 13.8134668 -74.25408203 13.8134668 -72.85546875 13.81445312 C-66.14064837 13.85935163 -66.14064837 13.85935163 -65 15 C-62.55391002 15.15980437 -60.13268942 15.25929447 -57.68359375 15.31640625 C-56.95253922 15.33718735 -56.22148468 15.35796844 -55.46827698 15.37937927 C-53.12478344 15.44495024 -50.78117461 15.50379432 -48.4375 15.5625 C-46.85220145 15.60567808 -45.26691471 15.64929213 -43.68164062 15.69335938 C-39.78787963 15.8006392 -35.89400228 15.9018849 -32 16 C-32 16.33 -32 16.66 -32 17 C-43.22 17 -54.44 17 -66 17 C-65.67 18.32 -65.34 19.64 -65 21 C-58.07 21.33 -51.14 21.66 -44 22 C-44 22.33 -44 22.66 -44 23 C-51.26 23 -58.52 23 -66 23 C-65.67 24.32 -65.34 25.64 -65 27 C-63.35 27.33 -61.7 27.66 -60 28 C-60 28.33 -60 28.66 -60 29 C-61.98 29 -63.96 29 -66 29 C-66 29.66 -66 30.32 -66 31 C-63.69 31 -61.38 31 -59 31 C-58.67 29.68 -58.34 28.36 -58 27 C-44.47 27 -30.94 27 -17 27 C-17 26.01 -17 25.02 -17 24 C-16.0409375 23.3503125 -16.0409375 23.3503125 -15.0625 22.6875 C-12.67933367 21.08674484 -12.67933367 21.08674484 -12.25 17.8125 C-12.1675 16.884375 -12.085 15.95625 -12 15 C-13.32 14.34 -14.64 13.68 -16 13 C-14.55746343 9.63408134 -12.66735273 7.48952921 -10 5 C-8.9171875 5.5259375 -8.9171875 5.5259375 -7.8125 6.0625 C-4.6877295 7.10409017 -3.11838004 6.89096572 0 6 C0 4.02 0 2.04 0 0 Z M-4 14 C-6.2084626 17.31269391 -6.80664241 19.14978851 -6.5546875 23.0625 C-5.4812192 26.81207941 -3.28696911 28.01541488 0 30 C2.63836977 30.1672392 2.63836977 30.1672392 5 30 C5.03738281 29.01257813 5.07476562 28.02515625 5.11328125 27.0078125 C5.17902344 25.72648437 5.24476562 24.44515625 5.3125 23.125 C5.37050781 21.84882812 5.42851563 20.57265625 5.48828125 19.2578125 C5.65714844 18.18273437 5.82601562 17.10765625 6 16 C6.99 15.34 7.98 14.68 9 14 C7.01607489 11.60148679 7.01607489 11.60148679 3.1875 11.5625 C-0.17733329 11.66669338 -1.04370031 12.02913354 -4 14 Z M27 47 C26.6366844 49.83386167 26.6431329 51.40522151 28.125 53.875 C30.92151052 55.55290631 32.93690532 54.74875648 36 54 C36.67673447 50.59679066 36.67673447 50.59679066 37 47 C35.11499729 44.68436913 35.11499729 44.68436913 32 44.75 C28.88500271 44.68436913 28.88500271 44.68436913 27 47 Z M-80.25 80.625 C-82.21985834 82.92308586 -82.21985834 82.92308586 -82.5 86 C-82.21376982 89.06575838 -82.21376982 89.06575838 -80.3125 91.375 C-77.61209763 93.27258004 -76.22939919 93.35882213 -73 93 C-72.85024761 85.94348748 -72.85024761 85.94348748 -74 79 C-77.92212225 78.60967296 -77.92212225 78.60967296 -80.25 80.625 Z M-64 95 C-64.66 96.65 -65.32 98.3 -66 100 C-53.13 99.01 -53.13 99.01 -40 98 C-39.67 97.01 -39.34 96.02 -39 95 C-47.25 95 -55.5 95 -64 95 Z M-15 95 C-15 95.99 -15 96.98 -15 98 C-9.72 98.33 -4.44 98.66 1 99 C1 97.68 1 96.36 1 95 C-4.28 95 -9.56 95 -15 95 Z " fill="#34D0D5" transform="translate(100,18)"/>
<path d="M0 0 C6.6 0 13.2 0 20 0 C20 2.33333333 20 4.66666667 20 7 C20.16298584 7.75692139 20.32597168 8.51384277 20.49389648 9.29370117 C21.00669693 12.03581067 21.11395063 14.51444219 21.09765625 17.30078125 C21.09282227 18.76547852 21.09282227 18.76547852 21.08789062 20.25976562 C21.07532227 21.77086914 21.07532227 21.77086914 21.0625 23.3125 C21.05798828 24.33923828 21.05347656 25.36597656 21.04882812 26.42382812 C21.03708184 28.94927882 21.02065565 31.47460905 21 34 C22.7015625 33.9690625 22.7015625 33.9690625 24.4375 33.9375 C28 34 28 34 29 35 C29.08874135 38.10251201 29.11518455 41.1826812 29.09765625 44.28515625 C29.0962413 45.21597519 29.09482635 46.14679413 29.09336853 47.1058197 C29.08775172 50.09141191 29.0751964 53.07693029 29.0625 56.0625 C29.05748716 58.08137913 29.05292388 60.10025943 29.04882812 62.11914062 C29.03777683 67.07945572 29.02050095 72.03971532 29 77 C31.31 77.66 33.62 78.32 36 79 C35 81 35 81 33.34521484 81.61450195 C28.49200924 82.41225457 23.54404055 82.18590312 18.63769531 82.18530273 C16.63863013 82.18748512 14.63960468 82.20599143 12.640625 82.22460938 C11.36960937 82.22654297 10.09859375 82.22847656 8.7890625 82.23046875 C7.63100098 82.23457764 6.47293945 82.23868652 5.27978516 82.24291992 C1.88689046 81.99162245 -0.83332989 81.21173908 -4 80 C-3.67 79.34 -3.34 78.68 -3 78 C-0.4375 77.375 -0.4375 77.375 2 77 C1.32142944 76.99191315 0.64285889 76.98382629 -0.05627441 76.97549438 C-7.19572947 76.88863335 -14.33493245 76.7891071 -21.47412109 76.68261719 C-24.12938188 76.64363425 -26.7845665 76.60971702 -29.43994141 76.578125 C-67.93926359 76.11445232 -67.93926359 76.11445232 -75 72 C-74.505 71.01 -74.505 71.01 -74 70 C-72.66666667 69.66666667 -71.33333333 69.33333333 -70 69 C-69.67 68.34 -69.34 67.68 -69 67 C-73.2787981 67.41586354 -73.2787981 67.41586354 -76.875 69.5625 C-77.24625 70.036875 -77.6175 70.51125 -78 71 C-80.5 69.875 -80.5 69.875 -83 68 C-83.25 65 -83.25 65 -83 62 C-83.495 60.515 -83.495 60.515 -84 59 C-84.639375 59.185625 -85.27875 59.37125 -85.9375 59.5625 C-86.618125 59.706875 -87.29875 59.85125 -88 60 C-89 59 -89 59 -89.0625 55.4375 C-89.041875 54.303125 -89.02125 53.16875 -89 52 C-87.35 52 -85.7 52 -84 52 C-83.92572162 48.65747276 -83.93453047 46.1964086 -85 43 C-82.6875 41.4375 -82.6875 41.4375 -80 40 C-79.01 40.33 -78.02 40.66 -77 41 C-77 41.66 -77 42.32 -77 43 C-75.35 43 -73.7 43 -72 43 C-72 44.65 -72 46.3 -72 48 C-72.969375 48.28875 -73.93875 48.5775 -74.9375 48.875 C-78.10664203 49.64214682 -78.10664203 49.64214682 -79 52 C-79.40270732 56.1283652 -79.40270732 56.1283652 -77.8125 59.8125 C-75.57968261 61.27538036 -73.62655933 61.64505955 -71 62 C-71 59.03 -71 56.06 -71 53 C-69.02 53 -67.04 53 -65 53 C-64.67 53.66 -64.34 54.32 -64 55 C-55.75 55 -47.5 55 -39 55 C-38.505 54.01 -38.505 54.01 -38 53 C-24.47 53 -10.94 53 3 53 C3 51.35 3 49.7 3 48 C-5.58 48 -14.16 48 -23 48 C-23 47.34 -23 46.68 -23 46 C-22.34 46 -21.68 46 -21 46 C-22.25541557 43.48916886 -23.50063488 43.12874554 -26 42 C-24.1875 40.9375 -24.1875 40.9375 -22 40 C-20.515 40.495 -20.515 40.495 -19 41 C-17.68 38.03 -16.36 35.06 -15 32 C-14.07316406 31.93941406 -13.14632812 31.87882812 -12.19140625 31.81640625 C-10.39509766 31.69072266 -10.39509766 31.69072266 -8.5625 31.5625 C-6.77005859 31.44068359 -6.77005859 31.44068359 -4.94140625 31.31640625 C-2.11429756 31.32343886 -2.11429756 31.32343886 -1 30 C-0.84126045 27.78312006 -0.74866163 25.56144702 -0.68359375 23.33984375 C-0.6524221 22.34314415 -0.6524221 22.34314415 -0.62062073 21.3263092 C-0.55506342 19.19681457 -0.49621215 17.06719332 -0.4375 14.9375 C-0.39432061 13.49673153 -0.35070651 12.05597601 -0.30664062 10.61523438 C-0.19855473 7.07695097 -0.09952907 3.53857603 0 0 Z M-62 64 C-62.66 65.65 -63.32 67.3 -64 69 C-51.13 68.01 -51.13 68.01 -38 67 C-37.67 66.01 -37.34 65.02 -37 64 C-45.25 64 -53.5 64 -62 64 Z M-13 64 C-13 64.99 -13 65.98 -13 67 C-7.72 67.33 -2.44 67.66 3 68 C3 66.68 3 65.36 3 64 C-2.28 64 -7.56 64 -13 64 Z " fill="#7387FD" transform="translate(98,49)"/>
<path d="M0 0 C1.37091797 0.0009668 1.37091797 0.0009668 2.76953125 0.00195312 C9.48435163 0.04685163 9.48435163 0.04685163 10.625 1.1875 C13.07108998 1.34730437 15.49231058 1.44679447 17.94140625 1.50390625 C18.67246078 1.52468735 19.40351532 1.54546844 20.15672302 1.56687927 C22.50021656 1.63245024 24.84382539 1.69129432 27.1875 1.75 C28.77279855 1.79317808 30.35808529 1.83679213 31.94335938 1.88085938 C35.83712037 1.9881392 39.73099772 2.0893849 43.625 2.1875 C43.625 2.5175 43.625 2.8475 43.625 3.1875 C32.405 3.1875 21.185 3.1875 9.625 3.1875 C9.955 4.5075 10.285 5.8275 10.625 7.1875 C17.555 7.5175 24.485 7.8475 31.625 8.1875 C31.625 8.5175 31.625 8.8475 31.625 9.1875 C24.365 9.1875 17.105 9.1875 9.625 9.1875 C9.955 10.5075 10.285 11.8275 10.625 13.1875 C13.1 13.6825 13.1 13.6825 15.625 14.1875 C15.625 14.5175 15.625 14.8475 15.625 15.1875 C13.645 15.1875 11.665 15.1875 9.625 15.1875 C9.625 15.8475 9.625 16.5075 9.625 17.1875 C11.935 17.1875 14.245 17.1875 16.625 17.1875 C16.65005615 18.09105225 16.6751123 18.99460449 16.70092773 19.92553711 C16.79587317 23.2671428 16.89511621 26.60856252 16.99731445 29.94995117 C17.0407163 31.3981424 17.08238744 32.84638654 17.12231445 34.29467773 C17.17989062 36.37239559 17.24362028 38.44984573 17.30859375 40.52734375 C17.36358032 42.40474243 17.36358032 42.40474243 17.41967773 44.32006836 C17.30303906 47.08380504 17.30303906 47.08380504 18.625 48.1875 C21.58029504 48.34779688 24.51482457 48.44707328 27.47265625 48.50390625 C28.3590831 48.52468735 29.24550995 48.54546844 30.15879822 48.56687927 C33.001617 48.632474 35.84453117 48.69130552 38.6875 48.75 C40.61003606 48.7931758 42.53256234 48.83678978 44.45507812 48.88085938 C49.17828668 48.98816543 53.90159153 49.08940451 58.625 49.1875 C57.635 52.1575 56.645 55.1275 55.625 58.1875 C53.625 58.1875 51.625 58.1875 49.625 58.1875 C51.5504644 60.4111068 51.5504644 60.4111068 54.625 61.1875 C53.965 61.1875 53.305 61.1875 52.625 61.1875 C52.625 61.8475 52.625 62.5075 52.625 63.1875 C51.965 63.1875 51.305 63.1875 50.625 63.1875 C50.625 63.8475 50.625 64.5075 50.625 65.1875 C59.205 65.1875 67.785 65.1875 76.625 65.1875 C76.625 66.8375 76.625 68.4875 76.625 70.1875 C63.095 70.1875 49.565 70.1875 35.625 70.1875 C35.13 71.6725 35.13 71.6725 34.625 73.1875 C26.375 73.1875 18.125 73.1875 9.625 73.1875 C9.295 72.1975 8.965 71.2075 8.625 70.1875 C6.315 70.1875 4.005 70.1875 1.625 70.1875 C1.625 62.9275 1.625 55.6675 1.625 48.1875 C-2.665 48.1875 -6.955 48.1875 -11.375 48.1875 C-11.40183436 44.87494674 -11.4217578 41.56260817 -11.4375 38.25 C-11.44587891 37.30447266 -11.45425781 36.35894531 -11.46289062 35.38476562 C-11.46611328 34.48564453 -11.46933594 33.58652344 -11.47265625 32.66015625 C-11.47789307 31.82750244 -11.48312988 30.99484863 -11.48852539 30.13696289 C-11.375 28.1875 -11.375 28.1875 -10.375 27.1875 C-8.35535801 27.11505947 -6.33332876 27.10372812 -4.3125 27.125 C-2.65541016 27.13853516 -2.65541016 27.13853516 -0.96484375 27.15234375 C-0.11019531 27.16394531 0.74445312 27.17554687 1.625 27.1875 C1.625 25.2075 1.625 23.2275 1.625 21.1875 C-4.645 21.1875 -10.915 21.1875 -17.375 21.1875 C-17.375 20.8575 -17.375 20.5275 -17.375 20.1875 C-15.725 19.8575 -14.075 19.5275 -12.375 19.1875 C-12.045 17.8675 -11.715 16.5475 -11.375 15.1875 C-13.355 15.1875 -15.335 15.1875 -17.375 15.1875 C-17.375 14.8575 -17.375 14.5275 -17.375 14.1875 C-15.725 13.8575 -14.075 13.5275 -12.375 13.1875 C-12.045 11.8675 -11.715 10.5475 -11.375 9.1875 C-13.355 9.1875 -15.335 9.1875 -17.375 9.1875 C-17.375 8.8575 -17.375 8.5275 -17.375 8.1875 C-15.725 7.8575 -14.075 7.5275 -12.375 7.1875 C-12.045 5.8675 -11.715 4.5475 -11.375 3.1875 C-13.355 3.1875 -15.335 3.1875 -17.375 3.1875 C-17.375 2.8575 -17.375 2.5275 -17.375 2.1875 C-11.48560037 0.14637931 -6.2030285 -0.08528042 0 0 Z " fill="#5E48FE" transform="translate(24.375,31.8125)"/>
<path d="M0 0 C0.99 0.33 1.98 0.66 3 1 C3 1.66 3 2.32 3 3 C4.65 3 6.3 3 8 3 C8 4.65 8 6.3 8 8 C7.030625 8.28875 6.06125 8.5775 5.0625 8.875 C1.89335797 9.64214682 1.89335797 9.64214682 1 12 C0.59729268 16.1283652 0.59729268 16.1283652 2.1875 19.8125 C4.42031739 21.27538036 6.37344067 21.64505955 9 22 C9 19.03 9 16.06 9 13 C10.98 13 12.96 13 15 13 C15.33 13.66 15.66 14.32 16 15 C24.25 15 32.5 15 41 15 C41.33 14.34 41.66 13.68 42 13 C55.53 13 69.06 13 83 13 C83 16.63 83 20.26 83 24 C77.72 24 72.44 24 67 24 C67 24.99 67 25.98 67 27 C67.56847656 26.98839844 68.13695313 26.97679688 68.72265625 26.96484375 C73.60670484 26.90776806 78.18503965 27.18043228 83 28 C83 30.64 83 33.28 83 36 C75.71409984 36.04682155 68.42823335 36.08211748 61.14221191 36.10362434 C57.75718789 36.11395864 54.37226851 36.12792229 50.98730469 36.15087891 C12.5625541 36.39227608 12.5625541 36.39227608 5 32 C5.33 31.34 5.66 30.68 6 30 C7.33333333 29.66666667 8.66666667 29.33333333 10 29 C10.33 28.34 10.66 27.68 11 27 C6.7212019 27.41586354 6.7212019 27.41586354 3.125 29.5625 C2.75375 30.036875 2.3825 30.51125 2 31 C-0.5 29.875 -0.5 29.875 -3 28 C-3.25 25 -3.25 25 -3 22 C-3.33 21.01 -3.66 20.02 -4 19 C-4.639375 19.185625 -5.27875 19.37125 -5.9375 19.5625 C-6.618125 19.706875 -7.29875 19.85125 -8 20 C-9 19 -9 19 -9.0625 15.4375 C-9.041875 14.303125 -9.02125 13.16875 -9 12 C-7.35 12 -5.7 12 -4 12 C-3.92572162 8.65747276 -3.93453047 6.1964086 -5 3 C-2.6875 1.4375 -2.6875 1.4375 0 0 Z M18 24 C17.34 25.65 16.68 27.3 16 29 C28.87 28.01 28.87 28.01 42 27 C42.33 26.01 42.66 25.02 43 24 C34.75 24 26.5 24 18 24 Z " fill="#B1CFFE" transform="translate(18,89)"/>
<path d="M0 0 C16.83 0 33.66 0 51 0 C51 10.23 51 20.46 51 31 C34.17 31 17.34 31 0 31 C0 20.77 0 10.54 0 0 Z " fill="#474E93" transform="translate(44,47)"/>
<path d="M0 0 C6.6 0 13.2 0 20 0 C20 2.33333333 20 4.66666667 20 7 C20.24447876 8.13538208 20.24447876 8.13538208 20.49389648 9.29370117 C21.00669693 12.03581067 21.11395063 14.51444219 21.09765625 17.30078125 C21.09443359 18.27724609 21.09121094 19.25371094 21.08789062 20.25976562 C21.07951172 21.26716797 21.07113281 22.27457031 21.0625 23.3125 C21.05798828 24.33923828 21.05347656 25.36597656 21.04882812 26.42382812 C21.03708184 28.94927882 21.02065565 31.47460905 21 34 C22.7015625 33.9690625 22.7015625 33.9690625 24.4375 33.9375 C28 34 28 34 29 35 C29.08868299 37.95705321 29.11520296 40.89065056 29.09765625 43.84765625 C29.0962413 44.7340831 29.09482635 45.62050995 29.09336853 46.53379822 C29.08775215 49.37673254 29.07519691 52.21958931 29.0625 55.0625 C29.05748711 56.98502491 29.05292384 58.90755104 29.04882812 60.83007812 C29.03862648 65.55343964 29.01905437 70.27663258 29 75 C20.75 75 12.5 75 4 75 C3.875 62.25 3.875 62.25 5 60 C5.66 60 6.32 60 7 60 C7.33 61.32 7.66 62.64 8 64 C13.28 64 18.56 64 24 64 C24.33 58.39 24.66 52.78 25 47 C21.37 47 17.74 47 14 47 C14 46.01 14 45.02 14 44 C14.78375 43.7525 15.5675 43.505 16.375 43.25 C19.3916501 41.81349995 19.71565565 40.95279169 21 38 C20.3709375 38.01160156 19.741875 38.02320313 19.09375 38.03515625 C13.61930912 38.09286873 8.41542194 37.80228473 3 37 C3.33 36.01 3.66 35.02 4 34 C8.29 34 12.58 34 17 34 C17 27.4 17 20.8 17 14 C13.7 14 10.4 14 7 14 C7 11.03 7 8.06 7 5 C4.69 5 2.38 5 0 5 C0 3.35 0 1.7 0 0 Z " fill="#7184FE" transform="translate(98,49)"/>
<path d="M0 0 C5.94 0.33 11.88 0.66 18 1 C16 6 16 6 13.375 7.3125 C12.59125 7.539375 11.8075 7.76625 11 8 C11 8.33 11 8.66 11 9 C16.445 9.495 16.445 9.495 22 10 C22.02684312 12.81256281 22.04676188 15.62487241 22.0625 18.4375 C22.07087891 19.23994141 22.07925781 20.04238281 22.08789062 20.86914062 C22.0965143 22.91295221 22.0522815 24.95683902 22 27 C21 28 21 28 17.40234375 28.09765625 C15.91403133 28.0909822 14.42573568 28.07902183 12.9375 28.0625 C12.17888672 28.05798828 11.42027344 28.05347656 10.63867188 28.04882812 C8.75908129 28.0370068 6.87953101 28.01907078 5 28 C4.67 26.35 4.34 24.7 4 23 C3.34 23 2.68 23 2 23 C1.67 27.95 1.34 32.9 1 38 C9.25 38 17.5 38 26 38 C26 38.66 26 39.32 26 40 C28.31 40.66 30.62 41.32 33 42 C32 44 32 44 30.34521484 44.61450195 C25.49200924 45.41225457 20.54404055 45.18590312 15.63769531 45.18530273 C13.63863013 45.18748512 11.63960468 45.20599143 9.640625 45.22460938 C8.36960937 45.22654297 7.09859375 45.22847656 5.7890625 45.23046875 C4.63100098 45.23457764 3.47293945 45.23868652 2.27978516 45.24291992 C-1.11310954 44.99162245 -3.83332989 44.21173908 -7 43 C-6 41 -6 41 0 39 C0 26.13 0 13.26 0 0 Z " fill="#5E4CF2" transform="translate(101,86)"/>
<path d="M0 0 C0.99 0.33 1.98 0.66 3 1 C3 1.66 3 2.32 3 3 C4.65 3 6.3 3 8 3 C8 4.65 8 6.3 8 8 C7.030625 8.28875 6.06125 8.5775 5.0625 8.875 C1.89335797 9.64214682 1.89335797 9.64214682 1 12 C0.59694805 16.08388307 0.59694805 16.08388307 2.125 19.75 C6.95043226 22.96695484 12.37826404 23.41844111 18 24 C17.67 25.32 17.34 26.64 17 28 C29.375 27.505 29.375 27.505 42 27 C41.67 27.66 41.34 28.32 41 29 C38.35139573 29.59355614 35.70802678 29.74209269 33 30 C33 30.66 33 31.32 33 32 C47.19 32 61.38 32 76 32 C75.505 31.01 75.505 31.01 75 30 C73.845 29.835 72.69 29.67 71.5 29.5 C70.345 29.335 69.19 29.17 68 29 C67.505 28.01 67.505 28.01 67 27 C72.45769811 26.88861841 77.61509359 27.08342019 83 28 C83 30.64 83 33.28 83 36 C75.71409984 36.04682155 68.42823335 36.08211748 61.14221191 36.10362434 C57.75718789 36.11395864 54.37226851 36.12792229 50.98730469 36.15087891 C12.5625541 36.39227608 12.5625541 36.39227608 5 32 C5.33 31.34 5.66 30.68 6 30 C7.33333333 29.66666667 8.66666667 29.33333333 10 29 C10.33 28.34 10.66 27.68 11 27 C6.7212019 27.41586354 6.7212019 27.41586354 3.125 29.5625 C2.75375 30.036875 2.3825 30.51125 2 31 C-0.5 29.875 -0.5 29.875 -3 28 C-3.25 25 -3.25 25 -3 22 C-3.33 21.01 -3.66 20.02 -4 19 C-4.639375 19.185625 -5.27875 19.37125 -5.9375 19.5625 C-6.618125 19.706875 -7.29875 19.85125 -8 20 C-9 19 -9 19 -9.0625 15.4375 C-9.041875 14.303125 -9.02125 13.16875 -9 12 C-7.35 12 -5.7 12 -4 12 C-3.92572162 8.65747276 -3.93453047 6.1964086 -5 3 C-2.6875 1.4375 -2.6875 1.4375 0 0 Z " fill="#EAEBF2" transform="translate(18,89)"/>
<path d="M0 0 C0.83778992 0.0028299 1.67557983 0.00565979 2.53875732 0.00857544 C5.20827663 0.01974901 7.8774575 0.04484829 10.546875 0.0703125 C12.35937015 0.08034596 14.17187056 0.08947117 15.984375 0.09765625 C20.42200493 0.1196791 24.85938263 0.15418946 29.296875 0.1953125 C28.306875 3.1653125 27.316875 6.1353125 26.296875 9.1953125 C24.296875 9.1953125 22.296875 9.1953125 20.296875 9.1953125 C22.2223394 11.4189193 22.2223394 11.4189193 25.296875 12.1953125 C24.636875 12.1953125 23.976875 12.1953125 23.296875 12.1953125 C23.296875 12.8553125 23.296875 13.5153125 23.296875 14.1953125 C22.636875 14.1953125 21.976875 14.1953125 21.296875 14.1953125 C21.296875 14.8553125 21.296875 15.5153125 21.296875 16.1953125 C29.876875 16.1953125 38.456875 16.1953125 47.296875 16.1953125 C47.296875 17.8453125 47.296875 19.4953125 47.296875 21.1953125 C33.766875 21.1953125 20.236875 21.1953125 6.296875 21.1953125 C5.966875 16.2453125 5.636875 11.2953125 5.296875 6.1953125 C-0.313125 5.8653125 -5.923125 5.5353125 -11.703125 5.1953125 C-12.033125 4.2053125 -12.363125 3.2153125 -12.703125 2.1953125 C-8.77654789 -0.46849216 -4.54924891 -0.05793529 0 0 Z " fill="#6C73FE" transform="translate(53.703125,80.8046875)"/>
<path d="M0 0 C1.81242052 -0.02687279 3.62495233 -0.04633715 5.4375 -0.0625 C6.44683594 -0.07410156 7.45617187 -0.08570313 8.49609375 -0.09765625 C11 0 11 0 12 1 C12.08713831 2.70772358 12.10700007 4.41898649 12.09765625 6.12890625 C12.09443359 7.16337891 12.09121094 8.19785156 12.08789062 9.26367188 C12.07951172 10.35228516 12.07113281 11.44089844 12.0625 12.5625 C12.05798828 13.65498047 12.05347656 14.74746094 12.04882812 15.87304688 C12.03699826 18.58208495 12.02051543 21.29101599 12 24 C13.32 24.33 14.64 24.66 16 25 C16.33 26.65 16.66 28.3 17 30 C17.99 30.33 18.98 30.66 20 31 C20.33 32.65 20.66 34.3 21 36 C19.02 36.495 19.02 36.495 17 37 C17.33 38.98 17.66 40.96 18 43 C14.88228073 44.60339848 13.60988311 45.18974141 10.1875 44.125 C9.465625 43.75375 8.74375 43.3825 8 43 C7.67 43.99 7.34 44.98 7 46 C4.5625 45.3125 4.5625 45.3125 2 44 C1.1875 41.375 1.1875 41.375 1 39 C0.01 39 -0.98 39 -2 39 C-2.33 37.35 -2.66 35.7 -3 34 C-1.02 33.505 -1.02 33.505 1 33 C1 32.34 1 31.68 1 31 C-0.98 30.34 -2.96 29.68 -5 29 C-4.67 27.68 -4.34 26.36 -4 25 C-3.34 25 -2.68 25 -2 25 C-2 23.68 -2 22.36 -2 21 C-2 19 -2 17 -2 15 C-2.66 14.67 -3.32 14.34 -4 14 C0.95 14 5.9 14 11 14 C10.67 13.01 10.34 12.02 10 11 C9.2575 10.9175 8.515 10.835 7.75 10.75 C5 10 5 10 3.0625 7.9375 C1.07428643 5.66421123 1.07428643 5.66421123 -2.25 5.75 C-3.1575 5.8325 -4.065 5.915 -5 6 C-5 5.34 -5 4.68 -5 4 C-3.35 3.67 -1.7 3.34 0 3 C0 2.01 0 1.02 0 0 Z M4 32 C3.6366844 34.83386167 3.6431329 36.40522151 5.125 38.875 C7.92151052 40.55290631 9.93690532 39.74875648 13 39 C13.67673447 35.59679066 13.67673447 35.59679066 14 32 C12.11499729 29.68436913 12.11499729 29.68436913 9 29.75 C5.88500271 29.68436913 5.88500271 29.68436913 4 32 Z " fill="#36DEC4" transform="translate(123,33)"/>
<path d="M0 0 C1.12019531 -0.00128906 2.24039063 -0.00257812 3.39453125 -0.00390625 C4.57402344 -0.00003906 5.75351562 0.00382812 6.96875 0.0078125 C8.73798828 0.00201172 8.73798828 0.00201172 10.54296875 -0.00390625 C12.22326172 -0.00197266 12.22326172 -0.00197266 13.9375 0 C14.97326172 0.00112793 16.00902344 0.00225586 17.07617188 0.00341797 C19.46875 0.1328125 19.46875 0.1328125 20.46875 1.1328125 C20.56861975 3.97616298 20.60752881 6.78978413 20.59375 9.6328125 C20.59955078 10.82970703 20.59955078 10.82970703 20.60546875 12.05078125 C20.59535767 18.00620483 20.59535767 18.00620483 19.46875 19.1328125 C17.62715977 19.23240871 15.78178033 19.26361661 13.9375 19.265625 C12.81730469 19.26691406 11.69710937 19.26820312 10.54296875 19.26953125 C9.36347656 19.26566406 8.18398438 19.26179688 6.96875 19.2578125 C5.19951172 19.26361328 5.19951172 19.26361328 3.39453125 19.26953125 C1.71423828 19.26759766 1.71423828 19.26759766 0 19.265625 C-1.03576172 19.26449707 -2.07152344 19.26336914 -3.13867188 19.26220703 C-5.53125 19.1328125 -5.53125 19.1328125 -6.53125 18.1328125 C-6.63111975 15.28946202 -6.67002881 12.47584087 -6.65625 9.6328125 C-6.66011719 8.83488281 -6.66398437 8.03695312 -6.66796875 7.21484375 C-6.65573175 0.007248 -6.65573175 0.007248 0 0 Z " fill="#35DBC4" transform="translate(39.53125,85.8671875)"/>
<path d="M0 0 C0.83265381 0.00523682 1.66530762 0.01047363 2.52319336 0.01586914 C3.33280518 0.0183667 4.14241699 0.02086426 4.9765625 0.0234375 C6.01159912 0.0325415 7.04663574 0.04164551 8.11303711 0.05102539 C11.39241211 0.07165039 14.67178711 0.09227539 18.05053711 0.11352539 C18.05053711 7.04352539 18.05053711 13.97352539 18.05053711 21.11352539 C11.12053711 21.11352539 4.19053711 21.11352539 -2.94946289 21.11352539 C-2.97008789 17.83415039 -2.99071289 14.55477539 -3.01196289 11.17602539 C-3.02106689 10.14098877 -3.0301709 9.10595215 -3.03955078 8.03955078 C-3.04329712 6.82513306 -3.04329712 6.82513306 -3.04711914 5.58618164 C-3.05235596 4.75352783 -3.05759277 3.92087402 -3.06298828 3.06298828 C-2.90876673 0.41468917 -2.64829911 0.15422155 0 0 Z " fill="#31C6DF" transform="translate(15.949462890625,58.886474609375)"/>
<path d="M0 0 C1.98 0 3.96 0 6 0 C6.33 0.66 6.66 1.32 7 2 C15.25 2 23.5 2 32 2 C32.33 1.34 32.66 0.68 33 0 C37.29 0 41.58 0 46 0 C46.495 1.485 46.495 1.485 47 3 C47.65129797 4.34090759 48.31513275 5.67592331 49 7 C48.195625 7.28875 47.39125 7.5775 46.5625 7.875 C43.8673532 8.73262568 43.8673532 8.73262568 43 11 C37.55659063 11.9663034 32.32605568 12.10235537 26.81640625 11.9140625 C26.07543198 11.89282318 25.3344577 11.87158386 24.57102966 11.84970093 C23.02227793 11.80383274 21.47361289 11.75494352 19.92504883 11.703125 C17.54461067 11.62440843 15.16403856 11.55766353 12.78320312 11.4921875 C11.2734158 11.44601676 9.76364906 11.39916677 8.25390625 11.3515625 C7.54045547 11.33171295 6.8270047 11.3118634 6.0919342 11.29141235 C1.11529487 11.11529487 1.11529487 11.11529487 0 10 C-0.07205511 8.31391034 -0.08386068 6.62499341 -0.0625 4.9375 C-0.05347656 4.01839844 -0.04445313 3.09929687 -0.03515625 2.15234375 C-0.02355469 1.44207031 -0.01195313 0.73179688 0 0 Z " fill="#BAD4FE" transform="translate(27,102)"/>
<path d="M0 0 C3.3 0.33 6.6 0.66 10 1 C9.9071875 2.423125 9.9071875 2.423125 9.8125 3.875 C9.874375 4.90625 9.93625 5.9375 10 7 C13.6441774 9.4294516 15.71241272 9.16179575 20 9 C20.66 10.98 21.32 12.96 22 15 C19.87527424 15.05386629 17.75016348 15.09273071 15.625 15.125 C13.84996094 15.15980469 13.84996094 15.15980469 12.0390625 15.1953125 C9 15 9 15 7 13 C1.45764755 12.42765564 1.45764755 12.42765564 -3.5 14.5 C-5.71177972 18.18629954 -5.34421275 20.73176192 -5 25 C-4.67 25.66 -4.34 26.32 -4 27 C-8.29 27 -12.58 27 -17 27 C-17 26.01 -17 25.02 -17 24 C-16.360625 23.566875 -15.72125 23.13375 -15.0625 22.6875 C-12.67933367 21.08674484 -12.67933367 21.08674484 -12.25 17.8125 C-12.1675 16.884375 -12.085 15.95625 -12 15 C-13.32 14.34 -14.64 13.68 -16 13 C-14.55746343 9.63408134 -12.66735273 7.48952921 -10 5 C-9.278125 5.350625 -8.55625 5.70125 -7.8125 6.0625 C-4.6877295 7.10409017 -3.11838004 6.89096572 0 6 C0 4.02 0 2.04 0 0 Z " fill="#E8EAF1" transform="translate(100,18)"/>
<path d="M0 0 C6.6 0 13.2 0 20 0 C20 2.33333333 20 4.66666667 20 7 C20.24447876 8.13538208 20.24447876 8.13538208 20.49389648 9.29370117 C21.00669693 12.03581067 21.11395063 14.51444219 21.09765625 17.30078125 C21.09443359 18.27724609 21.09121094 19.25371094 21.08789062 20.25976562 C21.07951172 21.26716797 21.07113281 22.27457031 21.0625 23.3125 C21.05798828 24.33923828 21.05347656 25.36597656 21.04882812 26.42382812 C21.03708184 28.94927882 21.02065565 31.47460905 21 34 C23.31 34 25.62 34 28 34 C28.33 34.99 28.66 35.98 29 37 C20.19039858 38.30512614 11.80960142 38.30512614 3 37 C3.33 36.01 3.66 35.02 4 34 C8.29 34 12.58 34 17 34 C17 27.4 17 20.8 17 14 C13.7 14 10.4 14 7 14 C7 11.03 7 8.06 7 5 C4.69 5 2.38 5 0 5 C0 3.35 0 1.7 0 0 Z " fill="#38C7D7" transform="translate(98,49)"/>
<path d="M0 0 C1.58206057 0.00667536 3.16410534 0.0186375 4.74609375 0.03515625 C5.55240234 0.03966797 6.35871094 0.04417969 7.18945312 0.04882812 C9.18753131 0.06065107 11.18557158 0.07858711 13.18359375 0.09765625 C13.21043687 2.91021906 13.23035563 5.72252866 13.24609375 8.53515625 C13.25447266 9.33759766 13.26285156 10.14003906 13.27148438 10.96679688 C13.28010805 13.01060846 13.23587525 15.05449527 13.18359375 17.09765625 C11.36243372 18.91881628 8.87687611 18.23000705 6.45703125 18.234375 C5.70679687 18.23050781 4.9565625 18.22664063 4.18359375 18.22265625 C3.05824219 18.22845703 3.05824219 18.22845703 1.91015625 18.234375 C-3.68979572 18.22426678 -3.68979572 18.22426678 -4.81640625 17.09765625 C-4.91621839 14.42034245 -4.955205 11.7746145 -4.94140625 9.09765625 C-4.94527344 8.34742187 -4.94914062 7.5971875 -4.953125 6.82421875 C-4.94103514 0.12643386 -4.94103514 0.12643386 0 0 Z " fill="#9DE4F0" transform="translate(109.81640625,95.90234375)"/>
<path d="M0 0 C5.61 0 11.22 0 17 0 C17 5.61 17 11.22 17 17 C11.39 17 5.78 17 0 17 C0 11.33333333 0 5.66666667 0 0 Z " fill="#3D4D9A" transform="translate(15,34)"/>
<path d="M0 0 C1.37091797 0.0009668 1.37091797 0.0009668 2.76953125 0.00195312 C9.48435163 0.04685163 9.48435163 0.04685163 10.625 1.1875 C13.07108998 1.34730437 15.49231058 1.44679447 17.94140625 1.50390625 C18.67246078 1.52468735 19.40351532 1.54546844 20.15672302 1.56687927 C22.50021656 1.63245024 24.84382539 1.69129432 27.1875 1.75 C28.77279855 1.79317808 30.35808529 1.83679213 31.94335938 1.88085938 C35.83712037 1.9881392 39.73099772 2.0893849 43.625 2.1875 C43.625 2.5175 43.625 2.8475 43.625 3.1875 C32.405 3.1875 21.185 3.1875 9.625 3.1875 C9.955 4.5075 10.285 5.8275 10.625 7.1875 C17.555 7.5175 24.485 7.8475 31.625 8.1875 C31.625 8.5175 31.625 8.8475 31.625 9.1875 C24.365 9.1875 17.105 9.1875 9.625 9.1875 C9.955 10.5075 10.285 11.8275 10.625 13.1875 C13.1 13.6825 13.1 13.6825 15.625 14.1875 C15.625 14.5175 15.625 14.8475 15.625 15.1875 C13.645 15.1875 11.665 15.1875 9.625 15.1875 C9.625 17.1675 9.625 19.1475 9.625 21.1875 C0.715 21.1875 -8.195 21.1875 -17.375 21.1875 C-17.375 20.8575 -17.375 20.5275 -17.375 20.1875 C-15.725 19.8575 -14.075 19.5275 -12.375 19.1875 C-12.045 17.8675 -11.715 16.5475 -11.375 15.1875 C-13.355 15.1875 -15.335 15.1875 -17.375 15.1875 C-17.375 14.8575 -17.375 14.5275 -17.375 14.1875 C-15.725 13.8575 -14.075 13.5275 -12.375 13.1875 C-12.045 11.8675 -11.715 10.5475 -11.375 9.1875 C-13.355 9.1875 -15.335 9.1875 -17.375 9.1875 C-17.375 8.8575 -17.375 8.5275 -17.375 8.1875 C-15.725 7.8575 -14.075 7.5275 -12.375 7.1875 C-12.045 5.8675 -11.715 4.5475 -11.375 3.1875 C-13.355 3.1875 -15.335 3.1875 -17.375 3.1875 C-17.375 2.8575 -17.375 2.5275 -17.375 2.1875 C-11.48560037 0.14637931 -6.2030285 -0.08528042 0 0 Z M-9.375 2.1875 C-9.375 4.4975 -9.375 6.8075 -9.375 9.1875 C-9.375 12.52083333 -9.375 15.85416667 -9.375 19.1875 C-3.765 19.1875 1.845 19.1875 7.625 19.1875 C7.625 13.5775 7.625 7.9675 7.625 2.1875 C2.015 2.1875 -3.595 2.1875 -9.375 2.1875 Z " fill="#9BE0E5" transform="translate(24.375,31.8125)"/>
<path d="M0 0 C13.53 0 27.06 0 41 0 C41 1.65 41 3.3 41 5 C27.47 5 13.94 5 0 5 C0 3.35 0 1.7 0 0 Z " fill="#3C3D89" transform="translate(60,97)"/>
<path d="M0 0 C1.32 0.33 2.64 0.66 4 1 C4.33 2.65 4.66 4.3 5 6 C5.99 6.33 6.98 6.66 8 7 C8.33 8.65 8.66 10.3 9 12 C7.68 12.33 6.36 12.66 5 13 C5.33 14.98 5.66 16.96 6 19 C2.88228073 20.60339848 1.60988311 21.18974141 -1.8125 20.125 C-2.534375 19.75375 -3.25625 19.3825 -4 19 C-4.33 19.99 -4.66 20.98 -5 22 C-7.4375 21.3125 -7.4375 21.3125 -10 20 C-10.8125 17.375 -10.8125 17.375 -11 15 C-11.99 15 -12.98 15 -14 15 C-14.33 13.35 -14.66 11.7 -15 10 C-14.360625 9.896875 -13.72125 9.79375 -13.0625 9.6875 C-12.0415625 9.3471875 -12.0415625 9.3471875 -11 9 C-10.67 8.01 -10.34 7.02 -10 6 C-8.68 6.33 -7.36 6.66 -6 7 C-6.33 7.33 -6.66 7.66 -7 8 C-7.2500773 10.45809998 -7.2500773 10.45809998 -7 13 C-5.10244856 15.34973818 -5.10244856 15.34973818 -1.875 15.125 C-0.451875 15.063125 -0.451875 15.063125 1 15 C1.29562367 9.67829506 1.29562367 9.67829506 -1 5 C-0.625 2.3125 -0.625 2.3125 0 0 Z " fill="#EAEBF2" transform="translate(135,57)"/>
<path d="M0 0 C0.99 0 1.98 0 3 0 C3.02465622 4.25414623 3.04283899 8.50825498 3.05493164 12.76245117 C3.05997101 14.21070073 3.06680253 15.65894517 3.07543945 17.10717773 C3.08752247 19.18474588 3.09323211 21.26224697 3.09765625 23.33984375 C3.10289307 24.59144287 3.10812988 25.84304199 3.11352539 27.13256836 C3 30 3 30 2 31 C0.40389018 31.09333705 -1.19633428 31.11745372 -2.79516602 31.11352539 C-3.81614883 31.11344986 -4.83713165 31.11337433 -5.88905334 31.11329651 C-6.9994548 31.10813522 -8.10985626 31.10297394 -9.25390625 31.09765625 C-10.38448959 31.0962413 -11.51507294 31.09482635 -12.67991638 31.09336853 C-16.30747065 31.08775019 -19.93496424 31.07519458 -23.5625 31.0625 C-26.01497307 31.05748736 -28.4674471 31.05292405 -30.91992188 31.04882812 C-36.94663545 31.0377748 -42.97331339 31.02101884 -49 31 C-49.33 30.34 -49.66 29.68 -50 29 C-33.5 29 -17 29 0 29 C0 19.43 0 9.86 0 0 Z " fill="#37CFCE" transform="translate(95,49)"/>
<path d="M0 0 C1.98 0 3.96 0 6 0 C6.33 0.66 6.66 1.32 7 2 C12.94 2.33 18.88 2.66 25 3 C25 4.32 25 5.64 25 7 C24.34 7 23.68 7 23 7 C22.67 7.66 22.34 8.32 22 9 C21.67 8.01 21.34 7.02 21 6 C17.37206002 7.86566488 17.37206002 7.86566488 15 11 C12.68756208 11.02685412 10.3750373 11.04632841 8.0625 11.0625 C6.77472656 11.07410156 5.48695312 11.08570312 4.16015625 11.09765625 C1 11 1 11 0 10 C-0.07205511 8.31391034 -0.08386068 6.62499341 -0.0625 4.9375 C-0.05347656 4.01839844 -0.04445313 3.09929687 -0.03515625 2.15234375 C-0.02355469 1.44207031 -0.01195313 0.73179688 0 0 Z " fill="#C4DBFE" transform="translate(27,102)"/>
<path d="M0 0 C2.875 1 2.875 1 4.25 3.0625 C4.45625 3.701875 4.6625 4.34125 4.875 5 C6.525 5 8.175 5 9.875 5 C10.205 6.32 10.535 7.64 10.875 9 C4.44 9.495 4.44 9.495 -2.125 10 C-2.125 11.98 -2.125 13.96 -2.125 16 C-1.465 16.33 -0.805 16.66 -0.125 17 C-0.785 17.99 -1.445 18.98 -2.125 20 C-6 18.25 -6 18.25 -7.125 16 C-6.465 16 -5.805 16 -5.125 16 C-5.455 13.69 -5.785 11.38 -6.125 9 C-8.435 9 -10.745 9 -13.125 9 C-12.375 7.0625 -12.375 7.0625 -11.125 5 C-9.79703709 4.64587656 -8.46283393 4.31478446 -7.125 4 C-6.50625 3.29875 -5.8875 2.5975 -5.25 1.875 C-3.125 0 -3.125 0 0 0 Z " fill="#F8FDFD" transform="translate(123.125,38)"/>
<path d="M0 0 C2.31 0 4.62 0 7 0 C7 4.62 7 9.24 7 14 C5.68 14 4.36 14 3 14 C3.66 15.65 4.32 17.3 5 19 C4.34 19 3.68 19 3 19 C3.02320313 19.62648438 3.04640625 20.25296875 3.0703125 20.8984375 C3.09738281 22.12433594 3.09738281 22.12433594 3.125 23.375 C3.14820313 24.18710938 3.17140625 24.99921875 3.1953125 25.8359375 C3 28 3 28 1 30 C0.67 23.4 0.34 16.8 0 10 C-2.64 10 -5.28 10 -8 10 C-8 8.02 -8 6.04 -8 4 C-5.36 4 -2.72 4 0 4 C0 2.68 0 1.36 0 0 Z " fill="#5934FF" transform="translate(34,49)"/>
<path d="M0 0 C1.18613892 0.00785522 1.18613892 0.00785522 2.39624023 0.01586914 C3.67724609 0.02070312 3.67724609 0.02070312 4.98413086 0.02563477 C5.88196289 0.03401367 6.77979492 0.04239258 7.70483398 0.05102539 C8.6065332 0.05553711 9.50823242 0.06004883 10.43725586 0.06469727 C12.67234712 0.07652315 14.90730835 0.09300319 17.14233398 0.11352539 C16.81233398 1.10352539 16.48233398 2.09352539 16.14233398 3.11352539 C14.49233398 3.11352539 12.84233398 3.11352539 11.14233398 3.11352539 C10.81233398 4.76352539 10.48233398 6.41352539 10.14233398 8.11352539 C9.15233398 8.11352539 8.16233398 8.11352539 7.14233398 8.11352539 C7.14233398 7.12352539 7.14233398 6.13352539 7.14233398 5.11352539 C6.48233398 5.11352539 5.82233398 5.11352539 5.14233398 5.11352539 C4.81233398 6.10352539 4.48233398 7.09352539 4.14233398 8.11352539 C3.48233398 8.77352539 2.82233398 9.43352539 2.14233398 10.11352539 C2.96733398 10.73227539 3.79233398 11.35102539 4.64233398 11.98852539 C5.46733398 12.68977539 6.29233398 13.39102539 7.14233398 14.11352539 C7.14233398 14.77352539 7.14233398 15.43352539 7.14233398 16.11352539 C3.84233398 16.11352539 0.54233398 16.11352539 -2.85766602 16.11352539 C-2.88451697 13.63428738 -2.90443149 11.15533699 -2.92016602 8.67602539 C-2.93273438 7.61544922 -2.93273438 7.61544922 -2.94555664 6.53344727 C-2.95420189 4.7265898 -2.90986613 2.91964936 -2.85766602 1.11352539 C-1.85766602 0.11352539 -1.85766602 0.11352539 0 0 Z " fill="#44AAE5" transform="translate(35.857666015625,85.886474609375)"/>
<path d="M0 0 C1.32 0 2.64 0 4 0 C4 6.6 4 13.2 4 20 C6.31 20 8.62 20 11 20 C11.33 20.99 11.66 21.98 12 23 C3.19039858 24.30512614 -5.19039858 24.30512614 -14 23 C-13.505 21.515 -13.505 21.515 -13 20 C-8.71 20 -4.42 20 0 20 C0 13.4 0 6.8 0 0 Z " fill="#4C4CA1" transform="translate(115,63)"/>
<path d="M0 0 C1.31871094 -0.01224609 2.63742188 -0.02449219 3.99609375 -0.03710938 C5.90068359 -0.04000977 5.90068359 -0.04000977 7.84375 -0.04296875 C9.00068359 -0.04707764 10.15761719 -0.05118652 11.34960938 -0.05541992 C14.47736509 0.18575467 16.680892 0.85423629 19.5 2.1875 C18.5 4.1875 18.5 4.1875 16.84521484 4.80200195 C11.99200924 5.59975457 7.04404055 5.37340312 2.13769531 5.37280273 C0.13863013 5.37498512 -1.86039532 5.39349143 -3.859375 5.41210938 C-5.13039063 5.41404297 -6.40140625 5.41597656 -7.7109375 5.41796875 C-8.86899902 5.42207764 -10.02706055 5.42618652 -11.22021484 5.43041992 C-14.61310954 5.17912245 -17.33332989 4.39923908 -20.5 3.1875 C-20.17 2.5275 -19.84 1.8675 -19.5 1.1875 C-13.23640183 -0.60566158 -6.45139424 0.00315317 0 0 Z " fill="#EAEBF2" transform="translate(114.5,125.8125)"/>
<path d="M0 0 C0.99 0 1.98 0 3 0 C3.02505615 0.87325928 3.0501123 1.74651855 3.07592773 2.64624023 C3.17087709 5.87602552 3.27012029 9.10564154 3.37231445 12.33520508 C3.41571434 13.73489199 3.45738564 15.13463359 3.49731445 16.53442383 C3.55489445 18.54261495 3.61914 20.55061149 3.68359375 22.55859375 C3.72025146 23.76829834 3.75690918 24.97800293 3.79467773 26.22436523 C3.68938266 28.90705456 3.68938266 28.90705456 5 30 C6.56448383 30.12263388 8.13432772 30.17779522 9.70336914 30.20532227 C11.20481224 30.2352401 11.20481224 30.2352401 12.73658752 30.26576233 C14.36937904 30.29083107 14.36937904 30.29083107 16.03515625 30.31640625 C17.14354355 30.33718735 18.25193085 30.35796844 19.39390564 30.37937927 C22.95003808 30.44499623 26.50624703 30.50381596 30.0625 30.5625 C32.46680493 30.60567368 34.87110199 30.64928758 37.27539062 30.69335938 C43.18351185 30.80068992 49.09170991 30.90243331 55 31 C55 31.33 55 31.66 55 32 C47.48863592 32.05057965 39.97731551 32.08568257 32.46582031 32.10986328 C29.90883747 32.11994038 27.35186621 32.13360226 24.79492188 32.15087891 C21.12627308 32.17505217 17.45777621 32.18646585 13.7890625 32.1953125 C12.0655809 32.21079636 12.0655809 32.21079636 10.30728149 32.22659302 C9.2463327 32.22674408 8.18538391 32.22689514 7.09228516 32.22705078 C6.15518707 32.231492 5.21808899 32.23593323 4.25259399 32.24050903 C2 32 2 32 0 30 C-0.22705078 27.01904297 -0.22705078 27.01904297 -0.1953125 23.2421875 C-0.1924826 22.57913605 -0.18965271 21.91608459 -0.18673706 21.23294067 C-0.17553435 19.11344417 -0.15043051 16.99436896 -0.125 14.875 C-0.11497028 13.43880818 -0.10584441 12.00260975 -0.09765625 10.56640625 C-0.075595 7.04413372 -0.04106494 3.52210797 0 0 Z " fill="#47A1E8" transform="translate(41,49)"/>
<path d="M0 0 C2.64 0 5.28 0 8 0 C8.08112454 2.58396679 8.14054748 5.16537568 8.1875 7.75 C8.21263672 8.47960937 8.23777344 9.20921875 8.26367188 9.9609375 C8.30981636 13.34486604 8.25324128 15.57858557 6.48828125 18.515625 C5.99714844 19.00546875 5.50601563 19.4953125 5 20 C3.39274365 16.78548731 3.94251815 13.56387464 4 10 C0.37 10 -3.26 10 -7 10 C-7 9.01 -7 8.02 -7 7 C-5.824375 6.6596875 -5.824375 6.6596875 -4.625 6.3125 C-1.78125 5.21875 -1.78125 5.21875 -0.6875 2.375 C-0.460625 1.59125 -0.23375 0.8075 0 0 Z " fill="#665FFF" transform="translate(119,86)"/>
<path d="M0 0 C1.58206057 0.00667536 3.16410534 0.0186375 4.74609375 0.03515625 C5.55240234 0.03966797 6.35871094 0.04417969 7.18945312 0.04882812 C9.18753131 0.06065107 11.18557158 0.07858711 13.18359375 0.09765625 C13.21043687 2.91021906 13.23035563 5.72252866 13.24609375 8.53515625 C13.25447266 9.33759766 13.26285156 10.14003906 13.27148438 10.96679688 C13.28010805 13.01060846 13.23587525 15.05449527 13.18359375 17.09765625 C11.36243372 18.91881628 8.87687611 18.23000705 6.45703125 18.234375 C5.70679687 18.23050781 4.9565625 18.22664063 4.18359375 18.22265625 C3.05824219 18.22845703 3.05824219 18.22845703 1.91015625 18.234375 C-3.68979572 18.22426678 -3.68979572 18.22426678 -4.81640625 17.09765625 C-4.91621839 14.42034245 -4.955205 11.7746145 -4.94140625 9.09765625 C-4.94527344 8.34742187 -4.94914062 7.5971875 -4.953125 6.82421875 C-4.94103514 0.12643386 -4.94103514 0.12643386 0 0 Z M-1.25390625 3.72265625 C-3.31432396 6.85449117 -3.49316075 8.41310398 -2.81640625 12.09765625 C-0.83674362 15.16073256 -0.83674362 15.16073256 2.18359375 17.09765625 C5.84801291 17.17244031 7.5827426 16.52457681 10.55859375 14.41015625 C12.69777126 11.3659421 12.79176421 9.74667903 12.18359375 6.09765625 C10.74698064 3.57758781 10.74698064 3.57758781 8.18359375 2.09765625 C4.20871758 1.5298168 2.11870154 1.47425106 -1.25390625 3.72265625 Z " fill="#44C5EC" transform="translate(109.81640625,95.90234375)"/>
<path d="M0 0 C0.66 0.99 1.32 1.98 2 3 C3.32381517 4.67423683 4.65576661 6.34211215 6 8 C4.02 8.99 4.02 8.99 2 10 C2 10.66 2 11.32 2 12 C1.34 12 0.68 12 0 12 C0 11.01 0 10.02 0 9 C-0.99 9 -1.98 9 -3 9 C-3.33 10.65 -3.66 12.3 -4 14 C-4.66 14 -5.32 14 -6 14 C-6 13.34 -6 12.68 -6 12 C-6.598125 11.9175 -7.19625 11.835 -7.8125 11.75 C-10.5966296 10.79544128 -11.43311142 9.42867729 -13 7 C-11.71034824 5.62437146 -10.37310707 4.29233607 -9 3 C-8.34 3 -7.68 3 -7 3 C-7 3.99 -7 4.98 -7 6 C-6.01 6 -5.02 6 -4 6 C-3.67 4.35 -3.34 2.7 -3 1 C-2.01 0.67 -1.02 0.34 0 0 Z " fill="#4FBDDB" transform="translate(50,88)"/>
<path d="M0 0 C0.99 0 1.98 0 3 0 C3 4.29 3 8.58 3 13 C-3.93 13 -10.86 13 -18 13 C-18 10.03 -18 7.06 -18 4 C-17.34 4 -16.68 4 -16 4 C-16.33 5.98 -16.66 7.96 -17 10 C-12.38 10 -7.76 10 -3 10 C-3 8.35 -3 6.7 -3 5 C-2.01 4.67 -1.02 4.34 0 4 C0 2.68 0 1.36 0 0 Z " fill="#35D9C5" transform="translate(31,67)"/>
<path d="M0 0 C1.81242052 -0.02687279 3.62495233 -0.04633715 5.4375 -0.0625 C6.44683594 -0.07410156 7.45617187 -0.08570313 8.49609375 -0.09765625 C11 0 11 0 12 1 C12.07258946 3.18639453 12.08373783 5.37500389 12.0625 7.5625 C12.05347656 8.76003906 12.04445312 9.95757812 12.03515625 11.19140625 C12.02355469 12.11824219 12.01195312 13.04507813 12 14 C11.34 13.01 10.68 12.02 10 11 C9.21625 10.855625 8.4325 10.71125 7.625 10.5625 C5 10 5 10 3.0625 7.9375 C1.07428643 5.66421123 1.07428643 5.66421123 -2.25 5.75 C-3.1575 5.8325 -4.065 5.915 -5 6 C-5 5.34 -5 4.68 -5 4 C-3.35 3.67 -1.7 3.34 0 3 C0 2.01 0 1.02 0 0 Z " fill="#37D3D3" transform="translate(123,33)"/>
<path d="M0 0 C1.40185547 0.00966797 1.40185547 0.00966797 2.83203125 0.01953125 C4.28416016 0.04466797 4.28416016 0.04466797 5.765625 0.0703125 C6.74917969 0.07933594 7.73273437 0.08835937 8.74609375 0.09765625 C11.16951907 0.12118465 13.59244722 0.15405882 16.015625 0.1953125 C14.703125 3.6328125 14.703125 3.6328125 13.015625 7.1953125 C12.025625 7.5253125 11.035625 7.8553125 10.015625 8.1953125 C9.685625 7.5353125 9.355625 6.8753125 9.015625 6.1953125 C3.405625 5.8653125 -2.204375 5.5353125 -7.984375 5.1953125 C-8.314375 4.2053125 -8.644375 3.2153125 -8.984375 2.1953125 C-5.85508322 0.36461347 -3.60794354 -0.04399931 0 0 Z " fill="#655DFE" transform="translate(49.984375,80.8046875)"/>
<path d="M0 0 C1.02104551 0.97850195 2.0206121 1.97980427 3 3 C3 3.33 3 3.66 3 4 C9.27 4.33 15.54 4.66 22 5 C22.495 6.485 22.495 6.485 23 8 C11.45 8 -0.1 8 -12 8 C-12 7.34 -12 6.68 -12 6 C-6.555 5.505 -6.555 5.505 -1 5 C-1 4.34 -1 3.68 -1 3 C-1.66 2.67 -2.32 2.34 -3 2 C-2.01 1.34 -1.02 0.68 0 0 Z " fill="#98BFFE" transform="translate(71,113)"/>
<path d="M0 0 C2.31 0 4.62 0 7 0 C7 2.97 7 5.94 7 9 C7.99 9 8.98 9 10 9 C9.67 9.66 9.34 10.32 9 11 C6.4375 11.625 6.4375 11.625 4 12 C3.34 14.31 2.68 16.62 2 19 C1.34 19 0.68 19 0 19 C0 12.73 0 6.46 0 0 Z " fill="#6C74FE" transform="translate(98,54)"/>
<path d="M0 0 C4.29 0 8.58 0 13 0 C13.33 0.66 13.66 1.32 14 2 C13.67 2.99 13.34 3.98 13 5 C12.34 5 11.68 5 11 5 C10.67 6.32 10.34 7.64 10 9 C8.35 9.33 6.7 9.66 5 10 C5.33 10.99 5.66 11.98 6 13 C4.02 13.33 2.04 13.66 0 14 C0 13.01 0 12.02 0 11 C0.66 11 1.32 11 2 11 C2 9.68 2 8.36 2 7 C2 5 2 3 2 1 C1.34 0.67 0.68 0.34 0 0 Z " fill="#3CD8CF" transform="translate(119,47)"/>
<path d="M0 0 C1.32 0 2.64 0 4 0 C4 5.61 4 11.22 4 17 C4.99 17 5.98 17 7 17 C7 18.65 7 20.3 7 22 C4.69 22 2.38 22 0 22 C0 14.74 0 7.48 0 0 Z " fill="#41448E" transform="translate(26,80)"/>
<path d="M0 0 C0.66 0 1.32 0 2 0 C2.33 1.32 2.66 2.64 3 4 C5.97 4.33 8.94 4.66 12 5 C11.01 5.495 11.01 5.495 10 6 C10 6.66 10 7.32 10 8 C10.66 8.33 11.32 8.66 12 9 C10.35 9.66 8.7 10.32 7 11 C7 11.66 7 12.32 7 13 C6.01 13 5.02 13 4 13 C3.67 13.66 3.34 14.32 3 15 C1.68 15 0.36 15 -1 15 C-1.02693575 12.87506859 -1.04636628 10.75004088 -1.0625 8.625 C-1.07410156 7.44164063 -1.08570312 6.25828125 -1.09765625 5.0390625 C-1 2 -1 2 0 0 Z " fill="#6A6EFE" transform="translate(103,109)"/>
<path d="M0 0 C0 0.33 0 0.66 0 1 C-1.98 1 -3.96 1 -6 1 C-5.73606499 4.43230448 -5.73606499 4.43230448 -5 8 C-4.01 8.66 -3.02 9.32 -2 10 C-3.32 10 -4.64 10 -6 10 C-6 12.64 -6 15.28 -6 18 C-3.69 18.33 -1.38 18.66 1 19 C1 19.33 1 19.66 1 20 C-3.95 20 -8.9 20 -14 20 C-14 19.67 -14 19.34 -14 19 C-12.35 18.67 -10.7 18.34 -9 18 C-8.67 16.68 -8.34 15.36 -8 14 C-9.98 14 -11.96 14 -14 14 C-14 13.67 -14 13.34 -14 13 C-12.35 12.67 -10.7 12.34 -9 12 C-8.67 10.68 -8.34 9.36 -8 8 C-9.98 8 -11.96 8 -14 8 C-14 7.67 -14 7.34 -14 7 C-12.35 6.67 -10.7 6.34 -9 6 C-8.67 4.68 -8.34 3.36 -8 2 C-9.98 2 -11.96 2 -14 2 C-14 1.67 -14 1.34 -14 1 C-9.32798795 -0.20568053 -4.78503708 -0.09382426 0 0 Z " fill="#75D8E1" transform="translate(21,33)"/>
<path d="M0 0 C5.94 0 11.88 0 18 0 C18 3 18 3 17 5 C11.39 5 5.78 5 0 5 C0 3.35 0 1.7 0 0 Z " fill="#34ACC5" transform="translate(98,49)"/>
<path d="M0 0 C4.29 0 8.58 0 13 0 C13 0.99 13 1.98 13 3 C11.35 3.33 9.7 3.66 8 4 C7.979375 4.763125 7.95875 5.52625 7.9375 6.3125 C7 9 7 9 3.4375 10.8125 C2.303125 11.204375 1.16875 11.59625 0 12 C0.29296875 10.046875 0.5859375 8.09375 0.87890625 6.140625 C1.12547949 3.66058453 1.12547949 3.66058453 0 0 Z " fill="#6DD5E3" transform="translate(110,33)"/>
<path d="M0 0 C1.32 0 2.64 0 4 0 C4 6.6 4 13.2 4 20 C2.68 19.67 1.36 19.34 0 19 C0 12.73 0 6.46 0 0 Z " fill="#3E3E8B" transform="translate(115,63)"/>
<path d="M0 0 C1.67542976 0.28604898 3.34385343 0.61781233 5 1 C5.97477898 4.72188336 6.12816587 6.64248468 4.8125 10.3125 C3 13 3 13 0.88671875 13.66796875 C0.26410156 13.77753906 -0.35851562 13.88710938 -1 14 C-1.02685938 11.85423363 -1.04633088 9.70837355 -1.0625 7.5625 C-1.07410156 6.36753906 -1.08570312 5.17257813 -1.09765625 3.94140625 C-1 1 -1 1 0 0 Z " fill="#32C6DF" transform="translate(106,33)"/>
<path d="M0 0 C8.58 0 17.16 0 26 0 C25.67 0.99 25.34 1.98 25 3 C17.08 3 9.16 3 1 3 C0.67 2.01 0.34 1.02 0 0 Z " fill="#4C4CA0" transform="translate(101,124)"/>
<path d="M0 0 C0.33 0 0.66 0 1 0 C1 6.27 1 12.54 1 19 C0.67 19 0.34 19 0 19 C0 12.73 0 6.46 0 0 Z M-4 19 C-2.68 19.33 -1.36 19.66 0 20 C-0.165 20.78375 -0.33 21.5675 -0.5 22.375 C-1.12960847 26.93966142 -1.08180527 31.40072601 -1 36 C-1.99 36 -2.98 36 -4 36 C-4 30.39 -4 24.78 -4 19 Z " fill="#5B55FA" transform="translate(34,61)"/>
<path d="M0 0 C0.33 0.99 0.66 1.98 1 3 C-5.435 3.495 -5.435 3.495 -12 4 C-12 5.98 -12 7.96 -12 10 C-11.34 10.33 -10.68 10.66 -10 11 C-10.99 12.485 -10.99 12.485 -12 14 C-15.875 12.25 -15.875 12.25 -17 10 C-16.34 10 -15.68 10 -15 10 C-15.33 7.69 -15.66 5.38 -16 3 C-18.31 3 -20.62 3 -23 3 C-22.67 2.34 -22.34 1.68 -22 1 C-14.74 1.33 -7.48 1.66 0 2 C0 1.34 0 0.68 0 0 Z " fill="#A0E6E9" transform="translate(133,44)"/>
<path d="M0 0 C1.99954746 -0.04254356 4.00041636 -0.04080783 6 0 C7 1 7 1 7.3125 3.875 C7 7 7 7 5 8.875 C4.01 9.431875 4.01 9.431875 3 10 C1.35 8.35 -0.3 6.7 -2 5 C-1.34 3.35 -0.68 1.7 0 0 Z " fill="#3FC3D9" transform="translate(53,86)"/>
<path d="M0 0 C0.66 0 1.32 0 2 0 C2 1.32 2 2.64 2 4 C2.66 4 3.32 4 4 4 C4 4.99 4 5.98 4 7 C3.34 7 2.68 7 2 7 C1.67 8.65 1.34 10.3 1 12 C-1.31 12 -3.62 12 -6 12 C-6.33 10.35 -6.66 8.7 -7 7 C-7.66 7 -8.32 7 -9 7 C-9 6.01 -9 5.02 -9 4 C-8.01 4 -7.02 4 -6 4 C-5.34 5.32 -4.68 6.64 -4 8 C-3.01 8 -2.02 8 -1 8 C-1.020625 6.865625 -1.04125 5.73125 -1.0625 4.5625 C-1 1 -1 1 0 0 Z " fill="#F5FBFD" transform="translate(26,64)"/>
<path d="M0 0 C2.31 0 4.62 0 7 0 C7 1.65 7 3.3 7 5 C3.37 5 -0.26 5 -4 5 C-4 6.65 -4 8.3 -4 10 C-5.32 10 -6.64 10 -8 10 C-8 8.02 -8 6.04 -8 4 C-5.36 4 -2.72 4 0 4 C0 2.68 0 1.36 0 0 Z " fill="#3C408C" transform="translate(34,49)"/>
<path d="M0 0 C1.24716797 0.00322266 2.49433594 0.00644531 3.77929688 0.00976562 C5.07287109 0.01814453 6.36644531 0.02652344 7.69921875 0.03515625 C9.66858398 0.04192383 9.66858398 0.04192383 11.67773438 0.04882812 C14.91410885 0.06059676 18.15039053 0.07703865 21.38671875 0.09765625 C21.05671875 0.75765625 20.72671875 1.41765625 20.38671875 2.09765625 C19.73074707 2.11747559 19.07477539 2.13729492 18.39892578 2.15771484 C15.43610806 2.25278132 12.47401343 2.36253377 9.51171875 2.47265625 C7.96291016 2.5190625 7.96291016 2.5190625 6.3828125 2.56640625 C4.90361328 2.62441406 4.90361328 2.62441406 3.39453125 2.68359375 C2.4833252 2.71501465 1.57211914 2.74643555 0.63330078 2.77880859 C-1.81259311 2.89648136 -1.81259311 2.89648136 -3.61328125 5.09765625 C-6.34197532 5.06478042 -8.90994305 4.53367854 -11.61328125 4.09765625 C-11.61328125 3.10765625 -11.61328125 2.11765625 -11.61328125 1.09765625 C-7.68039761 0.16677716 -4.03673962 -0.0184326 0 0 Z " fill="#D9D9E8" transform="translate(106.61328125,125.90234375)"/>
<path d="M0 0 C0.33 0 0.66 0 1 0 C1.02685095 2.47923801 1.04676547 4.9581884 1.0625 7.4375 C1.07087891 8.14455078 1.07925781 8.85160156 1.08789062 9.58007812 C1.09653588 11.38693559 1.05220011 13.19387603 1 15 C0 16 0 16 -3.59765625 16.09765625 C-5.08596867 16.0909822 -6.57426432 16.07902183 -8.0625 16.0625 C-8.82111328 16.05798828 -9.57972656 16.05347656 -10.36132812 16.04882812 C-12.24091871 16.0370068 -14.12046899 16.01907078 -16 16 C-16 15.34 -16 14.68 -16 14 C-15.32453125 14.01160156 -14.6490625 14.02320312 -13.953125 14.03515625 C-13.06109375 14.04417969 -12.1690625 14.05320312 -11.25 14.0625 C-10.36828125 14.07410156 -9.4865625 14.08570312 -8.578125 14.09765625 C-6.2181162 14.00826198 -4.25501476 13.66912821 -2 13 C-1.80508548 11.54263913 -1.61930642 10.08405407 -1.4375 8.625 C-1.33308594 7.81289062 -1.22867188 7.00078125 -1.12109375 6.1640625 C-0.81762672 3.95100814 -0.81762672 3.95100814 -2 2 C-1.34 2 -0.68 2 0 2 C0 1.34 0 0.68 0 0 Z " fill="#3BDAD0" transform="translate(122,98)"/>
<path d="M0 0 C2.31 0 4.62 0 7 0 C6.33333333 3.33333333 5.66666667 6.66666667 5 10 C3.125 9.75 3.125 9.75 1 9 C-0.87380446 6.50159405 -1.05001932 5.36680834 -0.625 2.25 C-0.41875 1.5075 -0.2125 0.765 0 0 Z " fill="#D9F4F7" transform="translate(20,63)"/>
<path d="M0 0 C1.98 0 3.96 0 6 0 C5.505 0.763125 5.01 1.52625 4.5 2.3125 C2.75631692 4.92363751 2.75631692 4.92363751 3 8 C1.02 8 -0.96 8 -3 8 C-3 8.66 -3 9.32 -3 10 C-4.65 9.67 -6.3 9.34 -8 9 C-7.34 8.01 -6.68 7.02 -6 6 C-5.34 5.87625 -4.68 5.7525 -4 5.625 C-3.01 5.315625 -3.01 5.315625 -2 5 C-0.70339566 2.50965614 -0.70339566 2.50965614 0 0 Z " fill="#6155FE" transform="translate(119,86)"/>
<path d="M0 0 C0.33 0.66 0.66 1.32 1 2 C3.31 2 5.62 2 8 2 C7.01 2.495 7.01 2.495 6 3 C6 3.66 6 4.32 6 5 C1.05 5 -3.9 5 -9 5 C-9.33 4.01 -9.66 3.02 -10 2 C-6.7 2 -3.4 2 0 2 C0 1.34 0 0.68 0 0 Z " fill="#4ED0D8" transform="translate(43,100)"/>
<path d="M0 0 C0.99 0.33 1.98 0.66 3 1 C2.67 1.99 2.34 2.98 2 4 C1.01 4 0.02 4 -1 4 C-1 4.66 -1 5.32 -1 6 C-1.66 6 -2.32 6 -3 6 C-3 5.01 -3 4.02 -3 3 C-5.31 3 -7.62 3 -10 3 C-10 2.67 -10 2.34 -10 2 C-9.04287109 1.90912109 -9.04287109 1.90912109 -8.06640625 1.81640625 C-6.82697266 1.69072266 -6.82697266 1.69072266 -5.5625 1.5625 C-4.73878906 1.48128906 -3.91507812 1.40007812 -3.06640625 1.31640625 C-1.01337975 1.21069185 -1.01337975 1.21069185 0 0 Z M-9 6 C-7.68 6.66 -6.36 7.32 -5 8 C-6.39195915 10.7839183 -8.15575779 10.97898997 -11 12 C-10.34 10.02 -9.68 8.04 -9 6 Z M-4 6 C-3.67 6.66 -3.34 7.32 -3 8 C-3.66 7.67 -4.32 7.34 -5 7 C-4.67 6.67 -4.34 6.34 -4 6 Z " fill="#7B93FE" transform="translate(112,71)"/>
<path d="M0 0 C0.33 0.99 0.66 1.98 1 3 C1.66 3 2.32 3 3 3 C3.33 4.32 3.66 5.64 4 7 C6.64 7 9.28 7 12 7 C12 7.66 12 8.32 12 9 C7.38 9 2.76 9 -2 9 C-1.67 7.02 -1.34 5.04 -1 3 C-1.66 2.67 -2.32 2.34 -3 2 C-2.01 1.34 -1.02 0.68 0 0 Z " fill="#45CEDC" transform="translate(16,68)"/>
<path d="M0 0 C0.66 0.99 1.32 1.98 2 3 C3.32381517 4.67423683 4.65576661 6.34211215 6 8 C4.02 8.99 4.02 8.99 2 10 C2 10.66 2 11.32 2 12 C1.34 12 0.68 12 0 12 C0 11.01 0 10.02 0 9 C-0.66 9 -1.32 9 -2 9 C-1.67 6.69 -1.34 4.38 -1 2 C-1.66 1.67 -2.32 1.34 -3 1 C-2.01 0.67 -1.02 0.34 0 0 Z " fill="#86DAE7" transform="translate(50,88)"/>
<path d="M0 0 C0.515625 0.2475 1.03125 0.495 1.5625 0.75 C1.5625 2.4 1.5625 4.05 1.5625 5.75 C-2.3975 5.75 -6.3575 5.75 -10.4375 5.75 C-8.5568632 1.9887264 -4.12158654 -0.42272682 0 0 Z " fill="#7896FE" transform="translate(125.4375,118.25)"/>
<path d="M0 0 C1.23556641 0.01740234 1.23556641 0.01740234 2.49609375 0.03515625 C3.32238281 0.04417969 4.14867187 0.05320312 5 0.0625 C5.63808594 0.07410156 6.27617188 0.08570312 6.93359375 0.09765625 C7.26359375 0.75765625 7.59359375 1.41765625 7.93359375 2.09765625 C6.61359375 2.09765625 5.29359375 2.09765625 3.93359375 2.09765625 C3.93359375 2.75765625 3.93359375 3.41765625 3.93359375 4.09765625 C2.29025871 5.13555206 0.62115508 6.13333549 -1.06640625 7.09765625 C-1.72640625 7.75765625 -2.38640625 8.41765625 -3.06640625 9.09765625 C-3.1640625 2.9453125 -3.1640625 2.9453125 -3.06640625 1.09765625 C-2.06640625 0.09765625 -2.06640625 0.09765625 0 0 Z " fill="#4597EB" transform="translate(36.06640625,85.90234375)"/>
<path d="M0 0 C3.3 0 6.6 0 10 0 C9.67 0.99 9.34 1.98 9 3 C7.35 3 5.7 3 4 3 C3.67 4.65 3.34 6.3 3 8 C2.01 8 1.02 8 0 8 C-1.08174162 4.63458162 -0.92538169 3.70152678 0 0 Z " fill="#41AFE1" transform="translate(43,86)"/>
<path d="M0 0 C2.31 0 4.62 0 7 0 C7.33 1.32 7.66 2.64 8 4 C6.1875 5.0625 6.1875 5.0625 4 6 C3.01 5.67 2.02 5.34 1 5 C1 6.98 1 8.96 1 11 C0.67 11 0.34 11 0 11 C0 7.37 0 3.74 0 0 Z " fill="#5935FF" transform="translate(102,86)"/>
<path d="M0 0 C0 0.33 0 0.66 0 1 C-1.98 1 -3.96 1 -6 1 C-5.73606499 4.43230448 -5.73606499 4.43230448 -5 8 C-4.01 8.66 -3.02 9.32 -2 10 C-5.125 9.47916667 -8.25 8.95833333 -11.375 8.4375 C-12.674375 8.2209375 -12.674375 8.2209375 -14 8 C-14 7.67 -14 7.34 -14 7 C-12.35 6.67 -10.7 6.34 -9 6 C-8.67 4.68 -8.34 3.36 -8 2 C-9.98 2 -11.96 2 -14 2 C-14 1.67 -14 1.34 -14 1 C-9.32798795 -0.20568053 -4.78503708 -0.09382426 0 0 Z " fill="#7BD5E7" transform="translate(21,33)"/>
<path d="M0 0 C1.32 0 2.64 0 4 0 C4 2.64 4 5.28 4 8 C3.01 8 2.02 8 1 8 C1.33 9.65 1.66 11.3 2 13 C0.68 12.67 -0.64 12.34 -2 12 C-1.34 12 -0.68 12 0 12 C0 11.01 0 10.02 0 9 C-0.66 8.67 -1.32 8.34 -2 8 C-1.34 8 -0.68 8 0 8 C0 5.36 0 2.72 0 0 Z " fill="#49BFDD" transform="translate(30,59)"/>
<path d="M0 0 C3.3 0 6.6 0 10 0 C10 0.66 10 1.32 10 2 C9.030625 2.2475 8.06125 2.495 7.0625 2.75 C6.051875 3.1625 5.04125 3.575 4 4 C3.26676204 6.01508358 3.26676204 6.01508358 3 8 C2.01 8.33 1.02 8.66 0 9 C0 6.03 0 3.06 0 0 Z " fill="#3DBCDD" transform="translate(105,54)"/>
<path d="M0 0 C0.33 0.66 0.66 1.32 1 2 C2.86196946 2.92393164 2.86196946 2.92393164 5 3 C6.77190909 1.64555699 6.77190909 1.64555699 8 0 C8.66 0.33 9.32 0.66 10 1 C8.68 3.31 7.36 5.62 6 8 C4.125 7.6875 4.125 7.6875 2 7 C0 4 0 4 0 0 Z " fill="#81DFE8" transform="translate(108,103)"/>
<path d="M0 0 C3.36704285 -0.2295711 5.41370268 -0.33943529 8.375 1.375 C8.91125 1.91125 9.4475 2.4475 10 3 C10 3.66 10 4.32 10 5 C6.7 5 3.4 5 0 5 C0 3.35 0 1.7 0 0 Z " fill="#34ABC5" transform="translate(33,97)"/>
<path d="M0 0 C0.66 0 1.32 0 2 0 C1.67 1.98 1.34 3.96 1 6 C5.62 6 10.24 6 15 6 C15 6.33 15 6.66 15 7 C9.75614911 8.7479503 5.52677733 9.19392201 0 9 C0 6.03 0 3.06 0 0 Z " fill="#32D0D4" transform="translate(13,71)"/>
<path d="M0 0 C0.08153933 1.58246707 0.13943557 3.16616273 0.1875 4.75 C0.22230469 5.63171875 0.25710937 6.5134375 0.29296875 7.421875 C-0.05076316 10.44671583 -1.00227459 11.75583602 -3 14 C-4.59005504 10.81988993 -4.40370445 7.46227885 -4 4 C-1.7 0 -1.7 0 0 0 Z " fill="#6C70FE" transform="translate(127,92)"/>
<path d="M0 0 C0.66 0 1.32 0 2 0 C2 2.33333333 2 4.66666667 2 7 C2.165 7.825 2.33 8.65 2.5 9.5 C3 12 3 12 3 14 C1.68 13.67 0.36 13.34 -1 13 C-1.22162329 11.37675914 -1.42689803 9.751279 -1.625 8.125 C-1.74101563 7.22007813 -1.85703125 6.31515625 -1.9765625 5.3828125 C-1.98429687 4.59648438 -1.99203125 3.81015625 -2 3 C-1.34 2.34 -0.68 1.68 0 1 C0 0.67 0 0.34 0 0 Z " fill="#38C1C7" transform="translate(116,49)"/>
<path d="M0 0 C0.99 0 1.98 0 3 0 C3 0.99 3 1.98 3 3 C3.66 3 4.32 3 5 3 C5 2.34 5 1.68 5 1 C5.66 1.33 6.32 1.66 7 2 C7 3.98 7 5.96 7 8 C5.35 8 3.7 8 2 8 C2 7.34 2 6.68 2 6 C1.01 5.67 0.02 5.34 -1 5 C-0.67 3.35 -0.34 1.7 0 0 Z " fill="#3AD8C9" transform="translate(47,97)"/>
<path d="M0 0 C0.33 0.66 0.66 1.32 1 2 C3.31 2 5.62 2 8 2 C8 2.66 8 3.32 8 4 C1.73 4 -4.54 4 -11 4 C-11 3.34 -11 2.68 -11 2 C-9.39125 2.061875 -9.39125 2.061875 -7.75 2.125 C-4.34252515 2.0114175 -2.79260369 1.78726636 0 0 Z " fill="#74CEDD" transform="translate(109,45)"/>
<path d="M0 0 C1.98 0 3.96 0 6 0 C6 1.98 6 3.96 6 6 C4.02 6 2.04 6 0 6 C0 4.02 0 2.04 0 0 Z " fill="#9FBFFF" transform="translate(83,81)"/>
<path d="M0 0 C0.99 0 1.98 0 3 0 C3.21824777 6.0018137 2.5056904 11.19233704 1 17 C0.67 17 0.34 17 0 17 C0 11.39 0 5.78 0 0 Z " fill="#36CDCA" transform="translate(95,49)"/>
<path d="M0 0 C0.99 0 1.98 0 3 0 C3.08121924 1.60332791 3.13929134 3.20784026 3.1875 4.8125 C3.23970703 6.15248047 3.23970703 6.15248047 3.29296875 7.51953125 C3 10 3 10 0 13 C0 8.71 0 4.42 0 0 Z " fill="#3B96D8" transform="translate(41,49)"/>
<path d="M0 0 C2.31 0 4.62 0 7 0 C7 1.65 7 3.3 7 5 C4.69 5 2.38 5 0 5 C0 3.35 0 1.7 0 0 Z " fill="#3C3E8A" transform="translate(98,49)"/>
<path d="M0 0 C4.62 0 9.24 0 14 0 C14.33 0.66 14.66 1.32 15 2 C10.71 2 6.42 2 2 2 C2 2.66 2 3.32 2 4 C1.01 4 0.02 4 -1 4 C-0.67 2.68 -0.34 1.36 0 0 Z " fill="#32C6DE" transform="translate(42,45)"/>
<path d="M0 0 C0.33 0 0.66 0 1 0 C1 1.65 1 3.3 1 5 C-0.91635217 5.05423638 -2.83314925 5.09289963 -4.75 5.125 C-6.35101562 5.15980469 -6.35101562 5.15980469 -7.984375 5.1953125 C-11 5 -11 5 -15 3 C-10.38 3 -5.76 3 -1 3 C-0.67 2.01 -0.34 1.02 0 0 Z " fill="#35DCC4" transform="translate(33,48)"/>
<path d="M0 0 C4.29 0 8.58 0 13 0 C13.33 1.32 13.66 2.64 14 4 C13.01 4 12.02 4 11 4 C11 3.34 11 2.68 11 2 C7.37 2 3.74 2 0 2 C0 1.34 0 0.68 0 0 Z " fill="#57D9D4" transform="translate(84,45)"/>
<path d="M0 0 C0.33 0 0.66 0 1 0 C1.09765625 6.15234375 1.09765625 6.15234375 1 8 C0 9 0 9 -1.84765625 9.09765625 C-3.8984375 9.06510417 -5.94921875 9.03255208 -8 9 C-7.34 8.34 -6.68 7.68 -6 7 C-4.68 7 -3.36 7 -2 7 C-1.855625 6.030625 -1.71125 5.06125 -1.5625 4.0625 C-1 1 -1 1 0 0 Z " fill="#37E1C0" transform="translate(97,71)"/>
<path d="M0 0 C0.66 0 1.32 0 2 0 C1.69106068 1.6256807 1.3777305 3.25052748 1.0625 4.875 C0.88847656 5.77992187 0.71445312 6.68484375 0.53515625 7.6171875 C0 10 0 10 -1 12 C-1.66 12 -2.32 12 -3 12 C-2.14285714 3.42857143 -2.14285714 3.42857143 0 0 Z " fill="#D9F3F7" transform="translate(47,90)"/>
<path d="M0 0 C0.99 0 1.98 0 3 0 C3.36521739 5.47826087 3.36521739 5.47826087 1.6875 7.875 C0 9 0 9 -3 9 C-2.690625 8.443125 -2.38125 7.88625 -2.0625 7.3125 C-0.94238179 4.87459567 -0.43962636 2.63775814 0 0 Z " fill="#45DAD6" transform="translate(117,102)"/>
<path d="M0 0 C0.66 0 1.32 0 2 0 C2 1.65 2 3.3 2 5 C2.66 5.33 3.32 5.66 4 6 C3.01 7.485 3.01 7.485 2 9 C-1.875 7.25 -1.875 7.25 -3 5 C-2.01 5 -1.02 5 0 5 C0 3.35 0 1.7 0 0 Z " fill="#EFFAFA" transform="translate(119,49)"/>
<path d="M0 0 C1.98 0.495 1.98 0.495 4 1 C3.67 2.65 3.34 4.3 3 6 C1.68 5.67 0.36 5.34 -1 5 C-0.67 3.35 -0.34 1.7 0 0 Z " fill="#3CCCDA" transform="translate(22,67)"/>
<path d="M0 0 C2.97 0 5.94 0 9 0 C8.34 1.65 7.68 3.3 7 5 C5.68 4.67 4.36 4.34 3 4 C3.33 3.34 3.66 2.68 4 2 C2.68 1.34 1.36 0.68 0 0 Z " fill="#5D4BF5" transform="translate(110,87)"/>
<path d="M0 0 C1.32 0 2.64 0 4 0 C4 2.64 4 5.28 4 8 C3.34 8 2.68 8 2 8 C0.23537317 4.91190305 0 3.76687864 0 0 Z " fill="#34AEC6" transform="translate(26,59)"/>
<path d="M0 0 C0.33 1.32 0.66 2.64 1 4 C-0.32 4.99 -1.64 5.98 -3 7 C-3.66 6.67 -4.32 6.34 -5 6 C-4.75 4.125 -4.75 4.125 -4 2 C-1.9375 0.75 -1.9375 0.75 0 0 Z " fill="#3BC9D0" transform="translate(59,89)"/>
<path d="M0 0 C0.99 0 1.98 0 3 0 C3.268125 0.61875 3.53625 1.2375 3.8125 1.875 C4.95556848 4.2995233 4.95556848 4.2995233 8 6 C7.01 6 6.02 6 5 6 C5 6.66 5 7.32 5 8 C4.01 7.67 3.02 7.34 2 7 C2 5.68 2 4.36 2 3 C1.34 3 0.68 3 0 3 C0 2.01 0 1.02 0 0 Z " fill="#FAFDFE" transform="translate(17,68)"/>
<path d="M0 0 C0.66 0 1.32 0 2 0 C2.33 1.32 2.66 2.64 3 4 C4.65 4.33 6.3 4.66 8 5 C8 5.33 8 5.66 8 6 C5.36 6.66 2.72 7.32 0 8 C0 5.36 0 2.72 0 0 Z " fill="#69E0D5" transform="translate(32,41)"/>
<path d="M0 0 C0.99 0 1.98 0 3 0 C2.67 1.98 2.34 3.96 2 6 C0.35 6.33 -1.3 6.66 -3 7 C-3 6.34 -3 5.68 -3 5 C-2.01 4.67 -1.02 4.34 0 4 C0 2.68 0 1.36 0 0 Z " fill="#36C6CB" transform="translate(31,67)"/>
<path d="M0 0 C0.33 0 0.66 0 1 0 C1 2.64 1 5.28 1 8 C0.01 8.33 -0.98 8.66 -2 9 C-2.25 3.375 -2.25 3.375 0 0 Z " fill="#409AE9" transform="translate(43,59)"/>
<path d="M0 0 C-0.99 0.495 -0.99 0.495 -2 1 C-2 1.66 -2 2.32 -2 3 C-4.97 3 -7.94 3 -11 3 C-4.75 -0.125 -4.75 -0.125 0 0 Z " fill="#42D9CF" transform="translate(51,102)"/>
<path d="M0 0 C2 3 2 3 1.625 5.6875 C1.41875 6.450625 1.2125 7.21375 1 8 C-0.65 7.67 -2.3 7.34 -4 7 C-3.01 6.67 -2.02 6.34 -1 6 C-0.67 4.02 -0.34 2.04 0 0 Z " fill="#E1F5F8" transform="translate(26,68)"/>
<path d="M0 0 C0.99 0 1.98 0 3 0 C3.33 1.32 3.66 2.64 4 4 C2.35 4.33 0.7 4.66 -1 5 C-0.67 3.35 -0.34 1.7 0 0 Z " fill="#35C1C5" transform="translate(47,97)"/>
<path d="M0 0 C0.33 0.66 0.66 1.32 1 2 C1.99 2.66 2.98 3.32 4 4 C0.875 3.47916667 -2.25 2.95833333 -5.375 2.4375 C-6.24125 2.293125 -7.1075 2.14875 -8 2 C-8 1.67 -8 1.34 -8 1 C-5.23735711 0.40267181 -2.83967231 0 0 0 Z " fill="#9AC9DD" transform="translate(15,39)"/>
<path d="M0 0 C2.31 0 4.62 0 7 0 C6.0409375 0.433125 6.0409375 0.433125 5.0625 0.875 C2.84793921 1.82823451 2.84793921 1.82823451 2 4 C1.01 4 0.02 4 -1 4 C-0.67 2.68 -0.34 1.36 0 0 Z " fill="#46ADF5" transform="translate(106,96)"/>
<path d="M0 0 C0 0.99 0 1.98 0 3 C0.3062434 4.33981486 0.63451555 5.67511887 1 7 C-0.32 6.34 -1.64 5.68 -3 5 C-3 4.01 -3 3.02 -3 2 C-2.01 1.34 -1.02 0.68 0 0 Z " fill="#E8F5F9" transform="translate(41,92)"/>
<path d="M0 0 C2.64 0 5.28 0 8 0 C7.67 1.32 7.34 2.64 7 4 C4.69 3.01 2.38 2.02 0 1 C0 0.67 0 0.34 0 0 Z " fill="#34D0D6" transform="translate(18,59)"/>
<path d="M0 0 C1.98 0 3.96 0 6 0 C6 0.33 6 0.66 6 1 C4.02 1 2.04 1 0 1 C0 0.67 0 0.34 0 0 Z " fill="#EAEBF2" transform="translate(6,58)"/>
</svg>
