<?xml version="1.0" encoding="UTF-8"?>
<svg version="1.1" xmlns="http://www.w3.org/2000/svg" width="150" height="150">
<path d="M0 0 C0 1.65 0 3.3 0 5 C5.64503554 6.0967298 5.64503554 6.0967298 11 4 C12.65 6.64 14.3 9.28 16 12 C15.67 12.33 15.34 12.66 15 13 C15.92683594 13.06058594 16.85367188 13.12117188 17.80859375 13.18359375 C19.00613281 13.26738281 20.20367187 13.35117187 21.4375 13.4375 C22.63246094 13.51871094 23.82742187 13.59992187 25.05859375 13.68359375 C28 14 28 14 29 15 C29.08748207 16.92667507 29.10697334 18.85651861 29.09765625 20.78515625 C29.09443359 21.95498047 29.09121094 23.12480469 29.08789062 24.33007812 C29.07951172 25.56177734 29.07113281 26.79347656 29.0625 28.0625 C29.05798828 29.29806641 29.05347656 30.53363281 29.04882812 31.80664062 C29.03699608 34.87114117 29.02051173 37.93554721 29 41 C29.78375 40.79375 30.5675 40.5875 31.375 40.375 C32.24125 40.25125 33.1075 40.1275 34 40 C36 42 36 42 36 45 C35.34 45 34.68 45 34 45 C34.33 46.65 34.66 48.3 35 50 C35.66 50 36.32 50 37 50 C36.67 51.65 36.34 53.3 36 55 C33.525 55.495 33.525 55.495 31 56 C30.67 57.32 30.34 58.64 30 60 C28.35 60 26.7 60 25 60 C25 59.01 25 58.02 25 57 C21.535 57.495 21.535 57.495 18 58 C16.16308743 54.21812119 15.84162374 52.05431692 17 48 C16.34 48 15.68 48 15 48 C15 46.68 15 45.36 15 44 C14.34 44 13.68 44 13 44 C13 50.6 13 57.2 13 64 C15.31 64 17.62 64 20 64 C21 65 21 65 21.11352539 68.96899414 C21.1133662 70.74105607 21.10766785 72.5131226 21.09765625 74.28515625 C21.0962413 75.21597519 21.09482635 76.14679413 21.09336853 77.1058197 C21.08775172 80.09141191 21.0751964 83.07693029 21.0625 86.0625 C21.05748716 88.08137913 21.05292388 90.10025943 21.04882812 92.11914062 C21.03777683 97.07945572 21.02050095 102.03971532 21 107 C23.31 107.66 25.62 108.32 28 109 C27 111 27 111 25.34521484 111.61450195 C20.49200924 112.41225457 15.54404055 112.18590312 10.63769531 112.18530273 C8.63863013 112.18748512 6.63960468 112.20599143 4.640625 112.22460938 C3.36960937 112.22654297 2.09859375 112.22847656 0.7890625 112.23046875 C-0.36899902 112.23457764 -1.52706055 112.23868652 -2.72021484 112.24291992 C-6.11310954 111.99162245 -8.83332989 111.21173908 -12 110 C-11.67 109.34 -11.34 108.68 -11 108 C-8.4375 107.375 -8.4375 107.375 -6 107 C-6.67857056 106.99191315 -7.35714111 106.98382629 -8.05627441 106.97549438 C-15.19572947 106.88863335 -22.33493245 106.7891071 -29.47412109 106.68261719 C-32.12938188 106.64363425 -34.7845665 106.60971702 -37.43994141 106.578125 C-75.93926359 106.11445232 -75.93926359 106.11445232 -83 102 C-81.74458443 99.48916886 -80.49936512 99.12874554 -78 98 C-79.98 97.67 -81.96 97.34 -84 97 C-84.33 97.99 -84.66 98.98 -85 100 C-87.375 99.6875 -87.375 99.6875 -90 99 C-90.66 98.01 -91.32 97.02 -92 96 C-91.70630173 94.65737935 -91.3721042 93.32303717 -91 92 C-91.33 91.01 -91.66 90.02 -92 89 C-93.65 89 -95.3 89 -97 89 C-97 86.69 -97 84.38 -97 82 C-96.38125 81.9175 -95.7625 81.835 -95.125 81.75 C-92.86857414 81.18006505 -92.86857414 81.18006505 -91.6875 79.1875 C-90.89848673 76.67700322 -91.12675738 75.44507934 -92 73 C-88.375 70 -88.375 70 -85 70 C-84.67 70.66 -84.34 71.32 -84 72 C-82.68 72.33 -81.36 72.66 -80 73 C-80 70.03 -80 67.06 -80 64 C-86.27 64 -92.54 64 -99 64 C-99 63.34 -99 62.68 -99 62 C-96.03 61.505 -96.03 61.505 -93 61 C-93 60.01 -93 59.02 -93 58 C-94.98 58 -96.96 58 -99 58 C-99 57.34 -99 56.68 -99 56 C-97.02 56 -95.04 56 -93 56 C-93 54.68 -93 53.36 -93 52 C-94.98 52 -96.96 52 -99 52 C-99 51.34 -99 50.68 -99 50 C-97.02 50 -95.04 50 -93 50 C-93 48.68 -93 47.36 -93 46 C-94.98 46 -96.96 46 -99 46 C-99 45.34 -99 44.68 -99 44 C-97.02 44 -95.04 44 -93 44 C-93 43.01 -93 42.02 -93 41 C-94.98 40.67 -96.96 40.34 -99 40 C-99 39.67 -99 39.34 -99 39 C-92.73 39 -86.46 39 -80 39 C-80 37.35 -80 35.7 -80 34 C-86.27 34 -92.54 34 -99 34 C-99 33.67 -99 33.34 -99 33 C-96.525 32.505 -96.525 32.505 -94 32 C-93.67 30.68 -93.34 29.36 -93 28 C-94.98 28 -96.96 28 -99 28 C-99 27.67 -99 27.34 -99 27 C-97.35 26.67 -95.7 26.34 -94 26 C-93.67 24.68 -93.34 23.36 -93 22 C-94.98 22 -96.96 22 -99 22 C-99 21.67 -99 21.34 -99 21 C-97.35 20.67 -95.7 20.34 -94 20 C-93.67 18.68 -93.34 17.36 -93 16 C-94.98 16 -96.96 16 -99 16 C-99 15.67 -99 15.34 -99 15 C-93.11060037 12.95887931 -87.8280285 12.72721958 -81.625 12.8125 C-80.25408203 12.8134668 -80.25408203 12.8134668 -78.85546875 12.81445312 C-72.14064837 12.85935163 -72.14064837 12.85935163 -71 14 C-68.71011219 14.15888092 -66.41556559 14.25138073 -64.12109375 14.31640625 C-63.4344313 14.33718735 -62.74776886 14.35796844 -62.04029846 14.37937927 C-59.83947065 14.44494143 -57.63852025 14.50379015 -55.4375 14.5625 C-53.94855486 14.60567892 -52.45962227 14.649293 -50.97070312 14.69335938 C-47.31393447 14.8006293 -43.65702682 14.90187772 -40 15 C-40 15.33 -40 15.66 -40 16 C-50.56 16 -61.12 16 -72 16 C-71.67 17.32 -71.34 18.64 -71 20 C-60.77 20.33 -50.54 20.66 -40 21 C-40 21.33 -40 21.66 -40 22 C-50.56 22 -61.12 22 -72 22 C-71.67 23.32 -71.34 24.64 -71 26 C-53.84 25.67 -36.68 25.34 -19 25 C-19.495 21.535 -19.495 21.535 -20 18 C-21.32 17.34 -22.64 16.68 -24 16 C-22.68 13.03 -21.36 10.06 -20 7 C-18.88625 7.20625 -17.7725 7.4125 -16.625 7.625 C-15.42875 7.74875 -14.2325 7.8725 -13 8 C-10.4345406 5.4345406 -10.45953913 3.52313332 -10 0 C-6.33694766 -0.74926071 -3.57644848 -1.2380014 0 0 Z M-10 13 C-12.2084626 16.31269391 -12.80664241 18.14978851 -12.5546875 22.0625 C-11.4812192 25.81207941 -9.28696911 27.01541488 -6 29 C-3.36163023 29.1672392 -3.36163023 29.1672392 -1 29 C-0.96261719 28.01257813 -0.92523438 27.02515625 -0.88671875 26.0078125 C-0.82097656 24.72648437 -0.75523438 23.44515625 -0.6875 22.125 C-0.62949219 20.84882812 -0.57148437 19.57265625 -0.51171875 18.2578125 C-0.34285156 17.18273437 -0.17398438 16.10765625 0 15 C0.99 14.34 1.98 13.68 3 13 C1.01607489 10.60148679 1.01607489 10.60148679 -2.8125 10.5625 C-6.17733329 10.66669338 -7.04370031 11.02913354 -10 13 Z M-72 28 C-72 28.66 -72 29.32 -72 30 C-69.69 30 -67.38 30 -65 30 C-65 29.34 -65 28.68 -65 28 C-67.31 28 -69.62 28 -72 28 Z M21 46 C20.6366844 48.83386167 20.6431329 50.40522151 22.125 52.875 C24.92151052 54.55290631 26.93690532 53.74875648 30 53 C30.67673447 49.59679066 30.67673447 49.59679066 31 46 C29.11499729 43.68436913 29.11499729 43.68436913 26 43.75 C22.88500271 43.68436913 22.88500271 43.68436913 21 46 Z M-86.25 79.625 C-88.21985834 81.92308586 -88.21985834 81.92308586 -88.5 85 C-88.21376982 88.06575838 -88.21376982 88.06575838 -86.3125 90.375 C-83.61209763 92.27258004 -82.22939919 92.35882213 -79 92 C-78.85024761 84.94348748 -78.85024761 84.94348748 -80 78 C-83.92212225 77.60967296 -83.92212225 77.60967296 -86.25 79.625 Z M-71 94 C-71.33 95.65 -71.66 97.3 -72 99 C-59.13 98.01 -59.13 98.01 -46 97 C-45.67 96.01 -45.34 95.02 -45 94 C-53.58 94 -62.16 94 -71 94 Z M-21 94 C-21 94.99 -21 95.98 -21 97 C-15.72 97.33 -10.44 97.66 -5 98 C-5 96.68 -5 95.36 -5 94 C-10.28 94 -15.56 94 -21 94 Z " fill="#5E52FD" transform="translate(106,19)"/>
<path d="M0 0 C2.31 0 4.62 0 7 0 C7 2.97 7 5.94 7 9 C10.3 9 13.6 9 17 9 C17 15.6 17 22.2 17 29 C12.71 29 8.42 29 4 29 C4 29.66 4 30.32 4 31 C12.79133718 32.42426407 12.79133718 32.42426407 29 32 C29 45.2 29 58.4 29 72 C31.31 72.66 33.62 73.32 36 74 C35 76 35 76 33.34521484 76.61450195 C28.49200924 77.41225457 23.54404055 77.18590312 18.63769531 77.18530273 C16.63863013 77.18748512 14.63960468 77.20599143 12.640625 77.22460938 C11.36960937 77.22654297 10.09859375 77.22847656 8.7890625 77.23046875 C7.63100098 77.23457764 6.47293945 77.23868652 5.27978516 77.24291992 C1.88689046 76.99162245 -0.83332989 76.21173908 -4 75 C-3.67 74.34 -3.34 73.68 -3 73 C-0.4375 72.375 -0.4375 72.375 2 72 C1.32142944 71.99191315 0.64285889 71.98382629 -0.05627441 71.97549438 C-7.19572947 71.88863335 -14.33493245 71.7891071 -21.47412109 71.68261719 C-24.12938188 71.64363425 -26.7845665 71.60971702 -29.43994141 71.578125 C-67.93926359 71.11445232 -67.93926359 71.11445232 -75 67 C-73.74458443 64.48916886 -72.49936512 64.12874554 -70 63 C-71.98 62.67 -73.96 62.34 -76 62 C-76.33 62.99 -76.66 63.98 -77 65 C-79.375 64.6875 -79.375 64.6875 -82 64 C-82.66 63.01 -83.32 62.02 -84 61 C-83.70630173 59.65737935 -83.3721042 58.32303717 -83 57 C-83.495 55.515 -83.495 55.515 -84 54 C-85.65 54 -87.3 54 -89 54 C-89 51.69 -89 49.38 -89 47 C-88.38125 46.9175 -87.7625 46.835 -87.125 46.75 C-84.86857414 46.18006505 -84.86857414 46.18006505 -83.6875 44.1875 C-82.89848673 41.67700322 -83.12675738 40.44507934 -84 38 C-80.375 35 -80.375 35 -77 35 C-76.67 35.66 -76.34 36.32 -76 37 C-73.97536745 37.65213292 -73.97536745 37.65213292 -72 38 C-72 39.65 -72 41.3 -72 43 C-72.969375 43.28875 -73.93875 43.5775 -74.9375 43.875 C-78.10664203 44.64214682 -78.10664203 44.64214682 -79 47 C-79.14375422 50.37822416 -79.07536348 52.77390955 -78 56 C-75.69 56.33 -73.38 56.66 -71 57 C-71 54.03 -71 51.06 -71 48 C-69.02 48 -67.04 48 -65 48 C-64.67 48.66 -64.34 49.32 -64 50 C-55.75 50 -47.5 50 -39 50 C-38.505 49.01 -38.505 49.01 -38 48 C-24.47 48 -10.94 48 3 48 C3 46.35 3 44.7 3 43 C-4.92 43 -12.84 43 -21 43 C-21.99 41.02 -21.99 41.02 -23 39 C-22.34 39 -21.68 39 -21 39 C-20.67 37.68 -20.34 36.36 -20 35 C-19.01 35 -18.02 35 -17 35 C-16.814375 33.7934375 -16.814375 33.7934375 -16.625 32.5625 C-16.315625 31.2940625 -16.315625 31.2940625 -16 30 C-15.01 29.505 -15.01 29.505 -14 29 C-14.495 27.515 -14.495 27.515 -15 26 C-10.38 25.67 -5.76 25.34 -1 25 C-0.67 16.75 -0.34 8.5 0 0 Z M-63 59 C-63.33 60.65 -63.66 62.3 -64 64 C-51.13 63.01 -51.13 63.01 -38 62 C-37.67 61.01 -37.34 60.02 -37 59 C-45.58 59 -54.16 59 -63 59 Z M-13 59 C-13 59.99 -13 60.98 -13 62 C-7.72 62.33 -2.44 62.66 3 63 C3 61.68 3 60.36 3 59 C-2.28 59 -7.56 59 -13 59 Z " fill="#5E4CF2" transform="translate(98,54)"/>
<path d="M0 0 C0.33 0.66 0.66 1.32 1 2 C3.02463255 2.65213292 3.02463255 2.65213292 5 3 C5 4.65 5 6.3 5 8 C4.030625 8.28875 3.06125 8.5775 2.0625 8.875 C-1.10664203 9.64214682 -1.10664203 9.64214682 -2 12 C-2.14375422 15.37822416 -2.07536348 17.77390955 -1 21 C1.31 21.33 3.62 21.66 6 22 C6 19.03 6 16.06 6 13 C7.98 13 9.96 13 12 13 C12.33 13.66 12.66 14.32 13 15 C21.25 15 29.5 15 38 15 C38.33 14.34 38.66 13.68 39 13 C52.53 13 66.06 13 80 13 C80 16.63 80 20.26 80 24 C74.72 24 69.44 24 64 24 C64 24.99 64 25.98 64 27 C64.56847656 26.98839844 65.13695313 26.97679688 65.72265625 26.96484375 C70.60670484 26.90776806 75.18503965 27.18043228 80 28 C80 30.64 80 33.28 80 36 C72.71409984 36.04682155 65.42823335 36.08211748 58.14221191 36.10362434 C54.75718789 36.11395864 51.37226851 36.12792229 47.98730469 36.15087891 C9.5625541 36.39227608 9.5625541 36.39227608 2 32 C3.25541557 29.48916886 4.50063488 29.12874554 7 28 C5.02 27.67 3.04 27.34 1 27 C0.67 27.99 0.34 28.98 0 30 C-2.375 29.6875 -2.375 29.6875 -5 29 C-5.66 28.01 -6.32 27.02 -7 26 C-6.70630173 24.65737935 -6.3721042 23.32303717 -6 22 C-6.33 21.01 -6.66 20.02 -7 19 C-8.65 19 -10.3 19 -12 19 C-12 16.69 -12 14.38 -12 12 C-11.071875 11.87625 -11.071875 11.87625 -10.125 11.75 C-7.86857414 11.18006505 -7.86857414 11.18006505 -6.6875 9.1875 C-5.89848673 6.67700322 -6.12675738 5.44507934 -7 3 C-3.375 0 -3.375 0 0 0 Z M14 24 C13.67 25.65 13.34 27.3 13 29 C25.87 28.01 25.87 28.01 39 27 C39.33 26.01 39.66 25.02 40 24 C31.42 24 22.84 24 14 24 Z " fill="#B9D4FE" transform="translate(21,89)"/>
<path d="M0 0 C16.83 0 33.66 0 51 0 C51 10.23 51 20.46 51 31 C34.17 31 17.34 31 0 31 C0 20.77 0 10.54 0 0 Z " fill="#474E93" transform="translate(44,47)"/>
<path d="M0 0 C0 1.65 0 3.3 0 5 C5.64503554 6.0967298 5.64503554 6.0967298 11 4 C13.475 7.96 13.475 7.96 16 12 C15.67 12.33 15.34 12.66 15 13 C15.92683594 13.06058594 16.85367188 13.12117188 17.80859375 13.18359375 C19.00613281 13.26738281 20.20367187 13.35117187 21.4375 13.4375 C22.63246094 13.51871094 23.82742187 13.59992187 25.05859375 13.68359375 C28 14 28 14 29 15 C29.15179378 17.30901696 29.22181122 19.62367069 29.25 21.9375 C29.27578125 23.20464844 29.3015625 24.47179687 29.328125 25.77734375 C29.21984375 26.84082031 29.1115625 27.90429688 29 29 C28.01 29.66 27.02 30.32 26 31 C24.80767387 33.05003955 24.80767387 33.05003955 24 35 C23.67 34.34 23.34 33.68 23 33 C22.01 33 21.02 33 20 33 C19.67 33.99 19.34 34.98 19 36 C18.34 36 17.68 36 17 36 C16.505 36.99 16.505 36.99 16 38 C16.99 38.495 16.99 38.495 18 39 C17.01 39.99 16.02 40.98 15 42 C11.125 40.25 11.125 40.25 10 38 C10.66 38 11.32 38 12 38 C12 35.69 12 33.38 12 31 C4.41 30.67 -3.18 30.34 -11 30 C-11 29.34 -11 28.68 -11 28 C-20.57 28 -30.14 28 -40 28 C-40 27.34 -40 26.68 -40 26 C-29.605 25.505 -29.605 25.505 -19 25 C-19.33 22.69 -19.66 20.38 -20 18 C-21.32 17.34 -22.64 16.68 -24 16 C-22.68 13.03 -21.36 10.06 -20 7 C-18.88625 7.20625 -17.7725 7.4125 -16.625 7.625 C-15.42875 7.74875 -14.2325 7.8725 -13 8 C-10.4345406 5.4345406 -10.45953913 3.52313332 -10 0 C-6.33694766 -0.74926071 -3.57644848 -1.2380014 0 0 Z M-10 13 C-12.2084626 16.31269391 -12.80664241 18.14978851 -12.5546875 22.0625 C-11.4812192 25.81207941 -9.28696911 27.01541488 -6 29 C-3.36163023 29.1672392 -3.36163023 29.1672392 -1 29 C-0.96261719 28.01257813 -0.92523438 27.02515625 -0.88671875 26.0078125 C-0.82097656 24.72648437 -0.75523438 23.44515625 -0.6875 22.125 C-0.62949219 20.84882812 -0.57148437 19.57265625 -0.51171875 18.2578125 C-0.34285156 17.18273437 -0.17398438 16.10765625 0 15 C0.99 14.34 1.98 13.68 3 13 C1.01607489 10.60148679 1.01607489 10.60148679 -2.8125 10.5625 C-6.17733329 10.66669338 -7.04370031 11.02913354 -10 13 Z " fill="#3AD7CF" transform="translate(106,19)"/>
<path d="M0 0 C0.99 0 1.98 0 3 0 C3 3.96 3 7.92 3 12 C5.475 11.505 5.475 11.505 8 11 C10 13 10 13 10 16 C9.34 16 8.68 16 8 16 C8.495 18.475 8.495 18.475 9 21 C9.66 21 10.32 21 11 21 C10.505 23.475 10.505 23.475 10 26 C8.35 26.33 6.7 26.66 5 27 C4.67 28.32 4.34 29.64 4 31 C2.35 31 0.7 31 -1 31 C-1 30.01 -1 29.02 -1 28 C-3.31 28.33 -5.62 28.66 -8 29 C-9.83691257 25.21812119 -10.15837626 23.05431692 -9 19 C-9.66 19 -10.32 19 -11 19 C-11 17.68 -11 16.36 -11 15 C-11.66 15 -12.32 15 -13 15 C-13 21.6 -13 28.2 -13 35 C-10.69 35 -8.38 35 -6 35 C-5.67 35.99 -5.34 36.98 -5 38 C-13.80960142 39.30512614 -22.19039858 39.30512614 -31 38 C-30.67 37.01 -30.34 36.02 -30 35 C-25.71 35 -21.42 35 -17 35 C-17 28.4 -17 21.8 -17 15 C-20.3 15 -23.6 15 -27 15 C-27 12.03 -27 9.06 -27 6 C-29.31 6 -31.62 6 -34 6 C-33.99476318 6.7520874 -33.98952637 7.5041748 -33.98413086 8.27905273 C-33.96342773 11.66519342 -33.95036123 15.05132084 -33.9375 18.4375 C-33.92912109 19.62150391 -33.92074219 20.80550781 -33.91210938 22.02539062 C-33.90888672 23.15009766 -33.90566406 24.27480469 -33.90234375 25.43359375 C-33.89710693 26.47572021 -33.89187012 27.51784668 -33.88647461 28.59155273 C-34 31 -34 31 -35 32 C-45.59103927 33.34994263 -56.37862625 33.18627195 -67.03613281 33.18530273 C-69.78725779 33.18753017 -72.53800595 33.2058765 -75.2890625 33.22460938 C-77.04166531 33.22753684 -78.79427 33.22952595 -80.546875 33.23046875 C-81.36758484 33.23765427 -82.18829468 33.24483978 -83.03387451 33.25224304 C-88.77112107 33.22887893 -88.77112107 33.22887893 -91 31 C-91.22705078 28.01904297 -91.22705078 28.01904297 -91.1953125 24.2421875 C-91.1924826 23.57913605 -91.18965271 22.91608459 -91.18673706 22.23294067 C-91.17553435 20.11344417 -91.15043051 17.99436896 -91.125 15.875 C-91.11497028 14.43880818 -91.10584441 13.00260975 -91.09765625 11.56640625 C-91.075595 8.04413372 -91.04106494 4.52210797 -91 1 C-90.01 1 -89.02 1 -88 1 C-88 10.57 -88 20.14 -88 30 C-71.17 30 -54.34 30 -37 30 C-37 20.43 -37 10.86 -37 1 C-33.57625 0.979375 -30.1525 0.95875 -26.625 0.9375 C-25.54686035 0.928396 -24.4687207 0.91929199 -23.35791016 0.90991211 C-22.51019043 0.90741455 -21.6624707 0.90491699 -20.7890625 0.90234375 C-19.48509521 0.89448853 -19.48509521 0.89448853 -18.15478516 0.88647461 C-16 1 -16 1 -14 2 C-14 5 -14 8 -14 11 C-12.68 11 -11.36 11 -10 11 C-10 10.34 -10 9.68 -10 9 C-9.67 8.01 -9.34 7.02 -9 6 C-8.34 6 -7.68 6 -7 6 C-6.67 5.34 -6.34 4.68 -6 4 C-4.68 4.33 -3.36 4.66 -2 5 C-1.34 3.35 -0.68 1.7 0 0 Z M-5 17 C-5.3633156 19.83386167 -5.3568671 21.40522151 -3.875 23.875 C-1.07848948 25.55290631 0.93690532 24.74875648 4 24 C4.67673447 20.59679066 4.67673447 20.59679066 5 17 C3.11499729 14.68436913 3.11499729 14.68436913 0 14.75 C-3.11499729 14.68436913 -3.11499729 14.68436913 -5 17 Z " fill="#3AC5D2" transform="translate(132,48)"/>
<path d="M0 0 C2.31 0 4.62 0 7 0 C7 2.97 7 5.94 7 9 C10.3 9 13.6 9 17 9 C17 15.6 17 22.2 17 29 C12.71 29 8.42 29 4 29 C3.67 33.62 3.34 38.24 3 43 C-4.92 43 -12.84 43 -21 43 C-21.66 41.68 -22.32 40.36 -23 39 C-22.34 39 -21.68 39 -21 39 C-20.67 37.68 -20.34 36.36 -20 35 C-19.01 35 -18.02 35 -17 35 C-16.814375 33.7934375 -16.814375 33.7934375 -16.625 32.5625 C-16.41875 31.716875 -16.2125 30.87125 -16 30 C-15.34 29.67 -14.68 29.34 -14 29 C-14.33 28.01 -14.66 27.02 -15 26 C-10.38 25.67 -5.76 25.34 -1 25 C-0.67 16.75 -0.34 8.5 0 0 Z " fill="#7287FD" transform="translate(98,54)"/>
<path d="M0 0 C0.33 0.66 0.66 1.32 1 2 C3.02463255 2.65213292 3.02463255 2.65213292 5 3 C5 4.65 5 6.3 5 8 C4.030625 8.28875 3.06125 8.5775 2.0625 8.875 C-1.10664203 9.64214682 -1.10664203 9.64214682 -2 12 C-2.14375422 15.37822416 -2.07536348 17.77390955 -1 21 C3.95 21.99 8.9 22.98 14 24 C14.33 25.32 14.66 26.64 15 28 C22.92 27.67 30.84 27.34 39 27 C38.67 27.66 38.34 28.32 38 29 C35.35139573 29.59355614 32.70802678 29.74209269 30 30 C30 30.66 30 31.32 30 32 C44.19 32 58.38 32 73 32 C72.505 31.01 72.505 31.01 72 30 C70.845 29.835 69.69 29.67 68.5 29.5 C67.345 29.335 66.19 29.17 65 29 C64.505 28.01 64.505 28.01 64 27 C69.45769811 26.88861841 74.61509359 27.08342019 80 28 C80 30.64 80 33.28 80 36 C72.71409984 36.04682155 65.42823335 36.08211748 58.14221191 36.10362434 C54.75718789 36.11395864 51.37226851 36.12792229 47.98730469 36.15087891 C9.5625541 36.39227608 9.5625541 36.39227608 2 32 C3.25541557 29.48916886 4.50063488 29.12874554 7 28 C5.02 27.67 3.04 27.34 1 27 C0.67 27.99 0.34 28.98 0 30 C-2.375 29.6875 -2.375 29.6875 -5 29 C-5.66 28.01 -6.32 27.02 -7 26 C-6.70630173 24.65737935 -6.3721042 23.32303717 -6 22 C-6.33 21.01 -6.66 20.02 -7 19 C-8.65 19 -10.3 19 -12 19 C-12 16.69 -12 14.38 -12 12 C-11.071875 11.87625 -11.071875 11.87625 -10.125 11.75 C-7.86857414 11.18006505 -7.86857414 11.18006505 -6.6875 9.1875 C-5.89848673 6.67700322 -6.12675738 5.44507934 -7 3 C-3.375 0 -3.375 0 0 0 Z " fill="#EAEBF2" transform="translate(21,89)"/>
<path d="M0 0 C1.37091797 0.0009668 1.37091797 0.0009668 2.76953125 0.00195312 C9.48435163 0.04685163 9.48435163 0.04685163 10.625 1.1875 C12.91488781 1.34638092 15.20943441 1.43888073 17.50390625 1.50390625 C18.1905687 1.52468735 18.87723114 1.54546844 19.58470154 1.56687927 C21.78552935 1.63244143 23.98647975 1.69129015 26.1875 1.75 C27.67644514 1.79317892 29.16537773 1.836793 30.65429688 1.88085938 C34.31106553 1.9881293 37.96797318 2.08937772 41.625 2.1875 C41.625 2.5175 41.625 2.8475 41.625 3.1875 C31.065 3.1875 20.505 3.1875 9.625 3.1875 C9.955 4.5075 10.285 5.8275 10.625 7.1875 C20.855 7.5175 31.085 7.8475 41.625 8.1875 C41.625 8.5175 41.625 8.8475 41.625 9.1875 C31.065 9.1875 20.505 9.1875 9.625 9.1875 C9.955 10.5075 10.285 11.8275 10.625 13.1875 C20.855 13.1875 31.085 13.1875 41.625 13.1875 C41.625 13.8475 41.625 14.5075 41.625 15.1875 C34.365 15.1875 27.105 15.1875 19.625 15.1875 C19.625 15.8475 19.625 16.5075 19.625 17.1875 C18.635 17.1875 17.645 17.1875 16.625 17.1875 C16.625 16.5275 16.625 15.8675 16.625 15.1875 C14.315 15.1875 12.005 15.1875 9.625 15.1875 C9.625 17.1675 9.625 19.1475 9.625 21.1875 C0.715 21.1875 -8.195 21.1875 -17.375 21.1875 C-17.375 20.8575 -17.375 20.5275 -17.375 20.1875 C-15.725 19.8575 -14.075 19.5275 -12.375 19.1875 C-12.045 17.8675 -11.715 16.5475 -11.375 15.1875 C-13.355 15.1875 -15.335 15.1875 -17.375 15.1875 C-17.375 14.8575 -17.375 14.5275 -17.375 14.1875 C-15.725 13.8575 -14.075 13.5275 -12.375 13.1875 C-12.045 11.8675 -11.715 10.5475 -11.375 9.1875 C-13.355 9.1875 -15.335 9.1875 -17.375 9.1875 C-17.375 8.8575 -17.375 8.5275 -17.375 8.1875 C-15.725 7.8575 -14.075 7.5275 -12.375 7.1875 C-12.045 5.8675 -11.715 4.5475 -11.375 3.1875 C-13.355 3.1875 -15.335 3.1875 -17.375 3.1875 C-17.375 2.8575 -17.375 2.5275 -17.375 2.1875 C-11.48560037 0.14637931 -6.2030285 -0.08528042 0 0 Z " fill="#75E0D6" transform="translate(24.375,31.8125)"/>
<path d="M0 0 C1.12019531 -0.00128906 2.24039063 -0.00257812 3.39453125 -0.00390625 C4.57402344 -0.00003906 5.75351562 0.00382812 6.96875 0.0078125 C8.73798828 0.00201172 8.73798828 0.00201172 10.54296875 -0.00390625 C12.22326172 -0.00197266 12.22326172 -0.00197266 13.9375 0 C14.97326172 0.00112793 16.00902344 0.00225586 17.07617188 0.00341797 C19.46875 0.1328125 19.46875 0.1328125 20.46875 1.1328125 C20.56861975 3.97616298 20.60752881 6.78978413 20.59375 9.6328125 C20.59955078 10.82970703 20.59955078 10.82970703 20.60546875 12.05078125 C20.59535767 18.00620483 20.59535767 18.00620483 19.46875 19.1328125 C17.62715977 19.23240871 15.78178033 19.26361661 13.9375 19.265625 C12.81730469 19.26691406 11.69710937 19.26820312 10.54296875 19.26953125 C9.36347656 19.26566406 8.18398438 19.26179688 6.96875 19.2578125 C5.19951172 19.26361328 5.19951172 19.26361328 3.39453125 19.26953125 C1.71423828 19.26759766 1.71423828 19.26759766 0 19.265625 C-1.03576172 19.26449707 -2.07152344 19.26336914 -3.13867188 19.26220703 C-5.53125 19.1328125 -5.53125 19.1328125 -6.53125 18.1328125 C-6.63111975 15.28946202 -6.67002881 12.47584087 -6.65625 9.6328125 C-6.66011719 8.83488281 -6.66398437 8.03695312 -6.66796875 7.21484375 C-6.65573175 0.007248 -6.65573175 0.007248 0 0 Z " fill="#38D8C7" transform="translate(39.53125,85.8671875)"/>
<path d="M0 0 C1.1456543 0.04253906 1.1456543 0.04253906 2.31445312 0.0859375 C3.4659082 0.08207031 3.4659082 0.08207031 4.640625 0.078125 C10.20815141 0.1752048 10.20815141 0.1752048 12.77929688 2.1171875 C13.10027344 2.601875 13.42125 3.0865625 13.75195312 3.5859375 C12.43195313 3.5859375 11.11195312 3.5859375 9.75195312 3.5859375 C10.08195312 4.5759375 10.41195312 5.5659375 10.75195312 6.5859375 C10.09195313 6.5859375 9.43195313 6.5859375 8.75195312 6.5859375 C8.75195312 7.2459375 8.75195312 7.9059375 8.75195312 8.5859375 C6.77195312 9.5759375 6.77195312 9.5759375 4.75195312 10.5859375 C4.75195312 12.2359375 4.75195312 13.8859375 4.75195312 15.5859375 C12.67195313 15.9159375 20.59195313 16.2459375 28.75195312 16.5859375 C28.75195312 18.2359375 28.75195312 19.8859375 28.75195312 21.5859375 C15.22195312 21.5859375 1.69195312 21.5859375 -12.24804688 21.5859375 C-12.24804688 8.5859375 -12.24804688 8.5859375 -10.24804688 5.5859375 C-9.72339844 4.709375 -9.19875 3.8328125 -8.65820312 2.9296875 C-5.64479131 -0.00069676 -4.0670983 -0.01415874 0 0 Z " fill="#6C73FE" transform="translate(72.248046875,80.4140625)"/>
<path d="M0 0 C3.0000624 -0.02721831 5.99987256 -0.04694378 9 -0.0625 C9.83917969 -0.07087891 10.67835937 -0.07925781 11.54296875 -0.08789062 C12.79013672 -0.09272461 12.79013672 -0.09272461 14.0625 -0.09765625 C15.19365234 -0.10551147 15.19365234 -0.10551147 16.34765625 -0.11352539 C19.91451913 0.03914317 23.45744034 0.55718004 27 1 C27 7.93 27 14.86 27 22 C20.07 22 13.14 22 6 22 C6 21.01 6 20.02 6 19 C4.02 19 2.04 19 0 19 C0 18.34 0 17.68 0 17 C1.98 17 3.96 17 6 17 C6 15.68 6 14.36 6 13 C4.02 13 2.04 13 0 13 C0 12.34 0 11.68 0 11 C1.98 11 3.96 11 6 11 C6 9.68 6 8.36 6 7 C4.02 7 2.04 7 0 7 C0 6.34 0 5.68 0 5 C1.98 5 3.96 5 6 5 C6 4.01 6 3.02 6 2 C3.03 1.505 3.03 1.505 0 1 C0 0.67 0 0.34 0 0 Z " fill="#96DCE7" transform="translate(7,58)"/>
<path d="M0 0 C2.62697064 -0.22137393 5.00893964 -0.28162025 7.625 -0.1875 C8.33140625 -0.17396484 9.0378125 -0.16042969 9.765625 -0.14648438 C11.51074128 -0.1111104 13.25546608 -0.05730221 15 0 C15 3.63 15 7.26 15 11 C9.72 11 4.44 11 -1 11 C-0.505 12.98 -0.505 12.98 0 15 C2.31 15.33 4.62 15.66 7 16 C7.495 17.485 7.495 17.485 8 19 C-6.19 19 -20.38 19 -35 19 C-35 18.34 -35 17.68 -35 17 C-33.72125 16.7525 -32.4425 16.505 -31.125 16.25 C-28.92836287 15.76034987 -28.92836287 15.76034987 -27 15 C-25.71563266 13.0162233 -25.71563266 13.0162233 -25 11 C-21.42137716 9.27695937 -17.78087134 10.34561842 -14 11 C-14 10.01 -14 9.02 -14 8 C-11.36 8 -8.72 8 -6 8 C-5.71125 7.360625 -5.4225 6.72125 -5.125 6.0625 C-4 4 -4 4 -2 3 C-1.34 2.01 -0.68 1.02 0 0 Z " fill="#AFCEFE" transform="translate(86,102)"/>
<path d="M0 0 C2.64 0 5.28 0 8 0 C8 12.54 8 25.08 8 38 C-0.25 38 -8.5 38 -17 38 C-17.125 25.25 -17.125 25.25 -16 23 C-15.34 23 -14.68 23 -14 23 C-13.67 24.32 -13.34 25.64 -13 27 C-7.39 27.33 -1.78 27.66 4 28 C4 22.06 4 16.12 4 10 C-0.29 10 -4.58 10 -9 10 C-6.072973 6.09729734 -5.32425093 5.40245976 -1 4 C-1.66 3.67 -2.32 3.34 -3 3 C-2.01 2.67 -1.02 2.34 0 2 C0 1.34 0 0.68 0 0 Z " fill="#748AFE" transform="translate(119,86)"/>
<path d="M0 0 C0 1.65 0 3.3 0 5 C5.64503554 6.0967298 5.64503554 6.0967298 11 4 C13.475 7.96 13.475 7.96 16 12 C12.74917327 14.16721782 11.70767847 14.27221018 7.9375 14.25 C7.05964844 14.25515625 6.18179688 14.2603125 5.27734375 14.265625 C3 14 3 14 1 12 C-4.54235245 11.42765564 -4.54235245 11.42765564 -9.5 13.5 C-11.71177972 17.18629954 -11.34421275 19.73176192 -11 24 C-10.67 24.66 -10.34 25.32 -10 26 C-12.97 26 -15.94 26 -19 26 C-19.1953125 22.97265625 -19.1953125 22.97265625 -19.390625 19.9453125 C-19.59171875 19.30335937 -19.7928125 18.66140625 -20 18 C-21.32 17.34 -22.64 16.68 -24 16 C-22.68 13.03 -21.36 10.06 -20 7 C-18.88625 7.20625 -17.7725 7.4125 -16.625 7.625 C-15.42875 7.74875 -14.2325 7.8725 -13 8 C-10.4345406 5.4345406 -10.45953913 3.52313332 -10 0 C-6.33694766 -0.74926071 -3.57644848 -1.2380014 0 0 Z " fill="#E9EBF1" transform="translate(106,19)"/>
<path d="M0 0 C0.99 0 1.98 0 3 0 C3 9.57 3 19.14 3 29 C19.83 29 36.66 29 54 29 C54 19.43 54 9.86 54 0 C54.99 0 55.98 0 57 0 C57.02465622 4.25414623 57.04283899 8.50825498 57.05493164 12.76245117 C57.05997101 14.21070073 57.06680253 15.65894517 57.07543945 17.10717773 C57.08752247 19.18474588 57.09323211 21.26224697 57.09765625 23.33984375 C57.10289307 24.59144287 57.10812988 25.84304199 57.11352539 27.13256836 C57 30 57 30 56 31 C45.40896073 32.34994263 34.62137375 32.18627195 23.96386719 32.18530273 C21.21274221 32.18753017 18.46199405 32.2058765 15.7109375 32.22460938 C13.95833469 32.22753684 12.20573 32.22952595 10.453125 32.23046875 C9.63241516 32.23765427 8.81170532 32.24483978 7.96612549 32.25224304 C2.22887893 32.22887893 2.22887893 32.22887893 0 30 C-0.22705078 27.01904297 -0.22705078 27.01904297 -0.1953125 23.2421875 C-0.1924826 22.57913605 -0.18965271 21.91608459 -0.18673706 21.23294067 C-0.17553435 19.11344417 -0.15043051 16.99436896 -0.125 14.875 C-0.11497028 13.43880818 -0.10584441 12.00260975 -0.09765625 10.56640625 C-0.075595 7.04413372 -0.04106494 3.52210797 0 0 Z " fill="#38D2CC" transform="translate(41,49)"/>
<path d="M0 0 C1.58206422 0.00574487 3.16410406 0.01876032 4.74609375 0.03515625 C7.53046875 0.05578125 10.31484375 0.07640625 13.18359375 0.09765625 C13.18359375 6.03765625 13.18359375 11.97765625 13.18359375 18.09765625 C10.39921875 18.11828125 7.61484375 18.13890625 4.74609375 18.16015625 C3.86767822 18.16926025 2.9892627 18.17836426 2.08422852 18.18774414 C0.11713401 18.19488716 -1.84994246 18.14797518 -3.81640625 18.09765625 C-5.63756628 16.27649622 -4.94875705 13.79093861 -4.953125 11.37109375 C-4.94925781 10.62085937 -4.94539063 9.870625 -4.94140625 9.09765625 C-4.94527344 8.34742187 -4.94914062 7.5971875 -4.953125 6.82421875 C-4.94103514 0.12643386 -4.94103514 0.12643386 0 0 Z " fill="#98E3F0" transform="translate(109.81640625,95.90234375)"/>
<path d="M0 0 C5.61 0 11.22 0 17 0 C17 5.61 17 11.22 17 17 C11.39 17 5.78 17 0 17 C0 11.39 0 5.78 0 0 Z " fill="#3E4E9A" transform="translate(15,34)"/>
<path d="M0 0 C1.25554687 -0.00128906 2.51109375 -0.00257812 3.8046875 -0.00390625 C4.46178711 -0.00181152 5.11888672 0.0002832 5.79589844 0.00244141 C7.80411335 0.00779016 9.81210459 0.00249559 11.8203125 -0.00390625 C13.07585937 -0.00261719 14.33140625 -0.00132813 15.625 0 C16.78644531 0.00112793 17.94789063 0.00225586 19.14453125 0.00341797 C21.8125 0.1328125 21.8125 0.1328125 22.8125 1.1328125 C22.85342937 3.46578683 22.85491723 5.79986475 22.8125 8.1328125 C19.8125 9.1328125 19.8125 9.1328125 17.8125 9.1328125 C17.4825 9.4628125 17.1525 9.7928125 16.8125 10.1328125 C14.4375 10.4453125 14.4375 10.4453125 11.8125 10.1328125 C10.3125 8.1328125 10.3125 8.1328125 8.8125 6.1328125 C6.3125 5.54947917 6.3125 5.54947917 3.8125 6.1328125 C2.27083358 7.50766782 2.27083358 7.50766782 0.8125 9.1328125 C-0.85416667 9.79947917 -2.52083333 10.46614583 -4.1875 11.1328125 C-5.21618997 12.10327473 -6.22175636 13.09969139 -7.1875 14.1328125 C-7.21435938 11.98704613 -7.23383088 9.84118605 -7.25 7.6953125 C-7.26160156 6.50035156 -7.27320312 5.30539063 -7.28515625 4.07421875 C-7.11114431 -1.16702086 -4.66394941 0.00452936 0 0 Z " fill="#37CDDA" transform="translate(112.1875,32.8671875)"/>
<path d="M0 0 C2.31 0 4.62 0 7 0 C7.02898816 3.93748458 7.04679464 7.87494179 7.0625 11.8125 C7.07087891 12.93205078 7.07925781 14.05160156 7.08789062 15.20507812 C7.09111328 16.27822266 7.09433594 17.35136719 7.09765625 18.45703125 C7.10289307 19.44678955 7.10812988 20.43654785 7.11352539 21.45629883 C6.90752939 26.07193821 5.26470828 27.94591806 2 31 C0.41596476 29.41596476 0.78025065 27.7228362 0.68359375 25.52734375 C0.64169922 24.62822266 0.59980469 23.72910156 0.55664062 22.80273438 C0.51732422 21.85720703 0.47800781 20.91167969 0.4375 19.9375 C0.39431641 18.98810547 0.35113281 18.03871094 0.30664062 17.06054688 C0.20020724 14.70718647 0.09818992 12.35371646 0 10 C-2.64 10 -5.28 10 -8 10 C-8 8.02 -8 6.04 -8 4 C-5.36 4 -2.72 4 0 4 C0 2.68 0 1.36 0 0 Z " fill="#5A38FF" transform="translate(34,49)"/>
<path d="M0 0 C13.53 0 27.06 0 41 0 C41 1.65 41 3.3 41 5 C27.47 5 13.94 5 0 5 C0 3.35 0 1.7 0 0 Z " fill="#3C3D89" transform="translate(60,97)"/>
<path d="M0 0 C0.8971875 0.5259375 0.8971875 0.5259375 1.8125 1.0625 C1.8125 2.0525 1.8125 3.0425 1.8125 4.0625 C1.1525 4.0625 0.4925 4.0625 -0.1875 4.0625 C0.1425 5.7125 0.4725 7.3625 0.8125 9.0625 C1.4725 9.0625 2.1325 9.0625 2.8125 9.0625 C2.4825 10.7125 2.1525 12.3625 1.8125 14.0625 C0.1625 14.3925 -1.4875 14.7225 -3.1875 15.0625 C-3.5175 16.3825 -3.8475 17.7025 -4.1875 19.0625 C-5.8375 19.0625 -7.4875 19.0625 -9.1875 19.0625 C-9.1875 18.0725 -9.1875 17.0825 -9.1875 16.0625 C-11.4975 16.3925 -13.8075 16.7225 -16.1875 17.0625 C-18.02441257 13.28062119 -18.34587626 11.11681692 -17.1875 7.0625 C-17.8475 7.0625 -18.5075 7.0625 -19.1875 7.0625 C-19.1875 5.7425 -19.1875 4.4225 -19.1875 3.0625 C-16.5475 3.0625 -13.9075 3.0625 -11.1875 3.0625 C-11.39375 4.17625 -11.6 5.29 -11.8125 6.4375 C-11.998125 8.231875 -11.998125 8.231875 -12.1875 10.0625 C-10.28994856 12.41223818 -10.28994856 12.41223818 -7.0625 12.1875 C-5.639375 12.125625 -5.639375 12.125625 -4.1875 12.0625 C-3.89187633 6.74079506 -3.89187633 6.74079506 -6.1875 2.0625 C-4.66896708 -0.97456585 -3.05066334 -1.30742714 0 0 Z " fill="#EAEBF2" transform="translate(140.1875,59.9375)"/>
<path d="M0 0 C2.64 0 5.28 0 8 0 C8 6.93 8 13.86 8 21 C1.07 21 -5.86 21 -13 21 C-13 20.01 -13 19.02 -13 18 C-11.39679026 17.80448662 -9.79237014 17.61888017 -8.1875 17.4375 C-7.29417969 17.33308594 -6.40085937 17.22867188 -5.48046875 17.12109375 C-3 17 -3 17 0 18 C0.33 16.68 0.66 15.36 1 14 C1.99 14 2.98 14 4 14 C3.67 11.69 3.34 9.38 3 7 C2.01 6.67 1.02 6.34 0 6 C0 4.02 0 2.04 0 0 Z " fill="#3EBCD9" transform="translate(26,59)"/>
<path d="M0 0 C1.98 0 3.96 0 6 0 C6.33 0.66 6.66 1.32 7 2 C12.61 2.33 18.22 2.66 24 3 C23 7 23 7 20 9 C20 8.01 20 7.02 20 6 C19.54625 6.45375 19.0925 6.9075 18.625 7.375 C15 11 15 11 12.03125 11.23046875 C10.8659375 11.21628906 9.700625 11.20210937 8.5 11.1875 C7.3346875 11.18105469 6.169375 11.17460938 4.96875 11.16796875 C2 11 2 11 0 10 C0 6.7 0 3.4 0 0 Z " fill="#C5DCFE" transform="translate(27,102)"/>
<path d="M0 0 C1.32 0 2.64 0 4 0 C4 6.6 4 13.2 4 20 C6.31 20 8.62 20 11 20 C11.33 20.99 11.66 21.98 12 23 C3.19039858 24.30512614 -5.19039858 24.30512614 -14 23 C-13.505 21.515 -13.505 21.515 -13 20 C-8.71 20 -4.42 20 0 20 C0 13.4 0 6.8 0 0 Z " fill="#4C4CA1" transform="translate(115,63)"/>
<path d="M0 0 C1.31871094 -0.01224609 2.63742188 -0.02449219 3.99609375 -0.03710938 C5.90068359 -0.04000977 5.90068359 -0.04000977 7.84375 -0.04296875 C9.00068359 -0.04707764 10.15761719 -0.05118652 11.34960938 -0.05541992 C14.47736509 0.18575467 16.680892 0.85423629 19.5 2.1875 C18.5 4.1875 18.5 4.1875 16.84521484 4.80200195 C11.99200924 5.59975457 7.04404055 5.37340312 2.13769531 5.37280273 C0.13863013 5.37498512 -1.86039532 5.39349143 -3.859375 5.41210938 C-5.13039063 5.41404297 -6.40140625 5.41597656 -7.7109375 5.41796875 C-8.86899902 5.42207764 -10.02706055 5.42618652 -11.22021484 5.43041992 C-14.61310954 5.17912245 -17.33332989 4.39923908 -20.5 3.1875 C-20.17 2.5275 -19.84 1.8675 -19.5 1.1875 C-13.23640183 -0.60566158 -6.45139424 0.00315317 0 0 Z " fill="#EAEBF2" transform="translate(114.5,125.8125)"/>
<path d="M0 0 C0.99 0 1.98 0 3 0 C3.02685412 2.31243792 3.04632841 4.6249627 3.0625 6.9375 C3.07410156 8.22527344 3.08570313 9.51304688 3.09765625 10.83984375 C3 14 3 14 2 15 C-0.53049402 15.07313567 -3.03304837 15.09247527 -5.5625 15.0625 C-6.62887695 15.05573242 -6.62887695 15.05573242 -7.71679688 15.04882812 C-9.47790013 15.03700864 -11.23896036 15.01907263 -13 15 C-13 14.34 -13 13.68 -13 13 C-11 11.375 -11 11.375 -9 10 C-9.33 8.68 -9.66 7.36 -10 6 C-9.01 6 -8.02 6 -7 6 C-6.67 5.34 -6.34 4.68 -6 4 C-4.68 4.33 -3.36 4.66 -2 5 C-1.34 3.35 -0.68 1.7 0 0 Z " fill="#37DCC5" transform="translate(132,48)"/>
<path d="M0 0 C0 5.61 0 11.22 0 17 C0.99 17 1.98 17 3 17 C3 18.65 3 20.3 3 22 C0.69 22 -1.62 22 -4 22 C-4 15.73 -4 9.46 -4 3 C-10.27 3 -16.54 3 -23 3 C-23 2.34 -23 1.68 -23 1 C-19.91675903 0.83159521 -16.83339379 0.66558138 -13.75 0.5 C-12.87730469 0.45230469 -12.00460938 0.40460938 -11.10546875 0.35546875 C-10.26113281 0.31035156 -9.41679687 0.26523438 -8.546875 0.21875 C-7.38430176 0.1559082 -7.38430176 0.1559082 -6.19824219 0.09179688 C-4.13373418 0.00558463 -2.0663073 0 0 0 Z " fill="#6F72A9" transform="translate(30,80)"/>
<path d="M0 0 C1.58206422 0.00574487 3.16410406 0.01876032 4.74609375 0.03515625 C7.53046875 0.05578125 10.31484375 0.07640625 13.18359375 0.09765625 C13.18359375 6.03765625 13.18359375 11.97765625 13.18359375 18.09765625 C10.39921875 18.11828125 7.61484375 18.13890625 4.74609375 18.16015625 C3.86767822 18.16926025 2.9892627 18.17836426 2.08422852 18.18774414 C0.11713401 18.19488716 -1.84994246 18.14797518 -3.81640625 18.09765625 C-5.63756628 16.27649622 -4.94875705 13.79093861 -4.953125 11.37109375 C-4.94925781 10.62085937 -4.94539063 9.870625 -4.94140625 9.09765625 C-4.94527344 8.34742187 -4.94914062 7.5971875 -4.953125 6.82421875 C-4.94103514 0.12643386 -4.94103514 0.12643386 0 0 Z M-1.25390625 3.66015625 C-3.42036653 7.03983429 -3.37928627 9.15749612 -2.81640625 13.09765625 C-1.33647469 15.66104314 -1.33647469 15.66104314 1.18359375 17.09765625 C4.14051084 17.8478082 4.14051084 17.8478082 7.18359375 17.09765625 C10.54703864 14.61163176 11.98417124 13.18340102 12.74609375 9.03515625 C12.3684543 6.04873369 12.3684543 6.04873369 10.62109375 3.72265625 C6.53362403 0.99767644 2.87655597 1.01242406 -1.25390625 3.66015625 Z " fill="#46B4F4" transform="translate(109.81640625,95.90234375)"/>
<path d="M0 0 C2.64 0 5.28 0 8 0 C6.68 0.99 5.36 1.98 4 3 C4.99 3.33 5.98 3.66 7 4 C7.33 3.34 7.66 2.68 8 2 C9.23697917 3.49739583 10.47395833 4.99479167 11.7109375 6.4921875 C12.75250992 7.71051161 13.86660097 8.86660097 15 10 C13.35 10.99 11.7 11.98 10 13 C10.33 11.35 10.66 9.7 11 8 C10.01 7.67 9.02 7.34 8 7 C5.65941363 9.12780579 4.29299694 11.11562221 3 14 C2.34 14 1.68 14 1 14 C1 13.01 1 12.02 1 11 C0.01 11 -0.98 11 -2 11 C-2 11.99 -2 12.98 -2 14 C-5.16115776 12.63016497 -5.9927092 12.0109362 -8 9 C-6.68 8.34 -5.36 7.68 -4 7 C-4 6.34 -4 5.68 -4 5 C-2.68 4.34 -1.36 3.68 0 3 C0 2.01 0 1.02 0 0 Z " fill="#4AB6E1" transform="translate(43,86)"/>
<path d="M0 0 C2.5625 0.3125 2.5625 0.3125 4.375 1.6875 C5.5625 3.3125 5.5625 3.3125 5.5625 5.3125 C7.2125 5.3125 8.8625 5.3125 10.5625 5.3125 C10.8925 6.6325 11.2225 7.9525 11.5625 9.3125 C3.9725 9.3125 -3.6175 9.3125 -11.4375 9.3125 C-11.1075 7.9925 -10.7775 6.6725 -10.4375 5.3125 C-7.5 3.6875 -7.5 3.6875 -4.4375 2.3125 C-2.4375 0.3125 -2.4375 0.3125 0 0 Z " fill="#E9F9FA" transform="translate(118.4375,37.6875)"/>
<path d="M0 0 C0.99 0 1.98 0 3 0 C3.02505615 0.87325928 3.0501123 1.74651855 3.07592773 2.64624023 C3.17087709 5.87602552 3.27012029 9.10564154 3.37231445 12.33520508 C3.41571434 13.73489199 3.45738564 15.13463359 3.49731445 16.53442383 C3.55489445 18.54261495 3.61914 20.55061149 3.68359375 22.55859375 C3.72025146 23.76829834 3.75690918 24.97800293 3.79467773 26.22436523 C3.68938266 28.90705456 3.68938266 28.90705456 5 30 C7.73701178 30.16010481 10.4516759 30.25946828 13.19140625 30.31640625 C14.42116432 30.3475779 14.42116432 30.3475779 15.67576599 30.37937927 C18.30458901 30.44496494 20.93351504 30.50380126 23.5625 30.5625 C25.34050561 30.60567667 27.11850065 30.64929067 28.89648438 30.69335938 C33.26421634 30.80065543 37.63205227 30.90189704 42 31 C42 31.33 42 31.66 42 32 C36.34001954 32.04934926 30.68016364 32.08569529 25.02001953 32.10986328 C23.09356506 32.11993582 21.16712592 32.13359443 19.24072266 32.15087891 C16.47554748 32.17507241 13.710574 32.18647036 10.9453125 32.1953125 C10.0806839 32.20563507 9.2160553 32.21595764 8.32522583 32.22659302 C6.21546479 32.22699106 4.10619282 32.12265243 2 32 C0 30 0 30 -0.22705078 27.01904297 C-0.21657715 25.77268066 -0.20610352 24.52631836 -0.1953125 23.2421875 C-0.1924826 22.57913605 -0.18965271 21.91608459 -0.18673706 21.23294067 C-0.17553435 19.11344417 -0.15043051 16.99436896 -0.125 14.875 C-0.11497028 13.43880818 -0.10584441 12.00260975 -0.09765625 10.56640625 C-0.075595 7.04413372 -0.04106494 3.52210797 0 0 Z " fill="#459CE9" transform="translate(41,49)"/>
<path d="M0 0 C1.23556641 0.01740234 1.23556641 0.01740234 2.49609375 0.03515625 C3.32238281 0.04417969 4.14867187 0.05320312 5 0.0625 C5.63808594 0.07410156 6.27617188 0.08570312 6.93359375 0.09765625 C6.93359375 1.41765625 6.93359375 2.73765625 6.93359375 4.09765625 C6.27359375 4.75765625 5.61359375 5.41765625 4.93359375 6.09765625 C4.27359375 5.76765625 3.61359375 5.43765625 2.93359375 5.09765625 C2.93359375 5.75765625 2.93359375 6.41765625 2.93359375 7.09765625 C1.43359375 8.72265625 1.43359375 8.72265625 -0.06640625 10.09765625 C2.40859375 12.07765625 2.40859375 12.07765625 4.93359375 14.09765625 C4.93359375 13.10765625 4.93359375 12.11765625 4.93359375 11.09765625 C5.92359375 11.09765625 6.91359375 11.09765625 7.93359375 11.09765625 C7.93359375 12.41765625 7.93359375 13.73765625 7.93359375 15.09765625 C8.59359375 15.42765625 9.25359375 15.75765625 9.93359375 16.09765625 C5.64359375 16.09765625 1.35359375 16.09765625 -3.06640625 16.09765625 C-3.0932572 13.61841824 -3.11317172 11.13946785 -3.12890625 8.66015625 C-3.14147461 7.59958008 -3.14147461 7.59958008 -3.15429688 6.51757812 C-3.16294213 4.71072066 -3.11860636 2.90378022 -3.06640625 1.09765625 C-2.06640625 0.09765625 -2.06640625 0.09765625 0 0 Z " fill="#42A3E7" transform="translate(36.06640625,85.90234375)"/>
<path d="M0 0 C0.99 0 1.98 0 3 0 C3 0.66 3 1.32 3 2 C4.65 2 6.3 2 8 2 C8.59732819 4.76264289 9 7.16032769 9 10 C8.01 10.33 7.02 10.66 6 11 C5.67 11.99 5.34 12.98 5 14 C4.01 14 3.02 14 2 14 C1.67 13.34 1.34 12.68 1 12 C-1.02463255 11.34786708 -1.02463255 11.34786708 -3 11 C-3.33 8.36 -3.66 5.72 -4 3 C-2.68 3 -1.36 3 0 3 C0 2.01 0 1.02 0 0 Z " fill="#E6F6FA" transform="translate(21,63)"/>
<path d="M0 0 C4.35992871 -0.04945386 8.71970862 -0.08574488 13.07983398 -0.10986328 C14.56293583 -0.11991821 16.04601788 -0.13356404 17.52905273 -0.15087891 C19.66134531 -0.17515006 21.79337569 -0.18648799 23.92578125 -0.1953125 C25.85031128 -0.21102295 25.85031128 -0.21102295 27.8137207 -0.22705078 C31 0 31 0 34 2 C36.54207971 2.33343551 36.54207971 2.33343551 39 2 C39.66 1.34 40.32 0.68 41 0 C41 0.66 41 1.32 41 2 C45.62 2 50.24 2 55 2 C54.67 3.32 54.34 4.64 54 6 C53.1642041 5.76228882 53.1642041 5.76228882 52.31152344 5.51977539 C49.84122989 4.96429853 47.54446396 4.791532 45.015625 4.68359375 C44.08105469 4.64169922 43.14648438 4.59980469 42.18359375 4.55664062 C41.21550781 4.51732422 40.24742188 4.47800781 39.25 4.4375 C38.26644531 4.39431641 37.28289062 4.35113281 36.26953125 4.30664062 C33.84648725 4.20077948 31.4233446 4.09869829 29 4 C29 3.34 29 2.68 29 2 C19.43 2 9.86 2 0 2 C0 1.34 0 0.68 0 0 Z " fill="#42D1D6" transform="translate(66,45)"/>
<path d="M0 0 C2.64 0 5.28 0 8 0 C8 2.64 8 5.28 8 8 C4.40537669 10.25998595 1.43404325 10.20868087 -2.75 10.125 C-3.92046875 10.10695313 -5.0909375 10.08890625 -6.296875 10.0703125 C-7.63492188 10.03550781 -7.63492188 10.03550781 -9 10 C-6.63628473 6.58959557 -4.98440872 5.29224067 -1 4 C-1.66 3.67 -2.32 3.34 -3 3 C-2.01 2.67 -1.02 2.34 0 2 C0 1.34 0 0.68 0 0 Z " fill="#6459FE" transform="translate(119,86)"/>
<path d="M0 0 C2.95839355 -0.02689449 5.91654427 -0.04678741 8.875 -0.0625 C9.71675781 -0.07087891 10.55851562 -0.07925781 11.42578125 -0.08789062 C12.23144531 -0.09111328 13.03710938 -0.09433594 13.8671875 -0.09765625 C14.98262939 -0.10551147 14.98262939 -0.10551147 16.12060547 -0.11352539 C18 0 18 0 20 1 C20 3.31 20 5.62 20 8 C19.01 8 18.02 8 17 8 C17 7.01 17 6.02 17 5 C11.39 5 5.78 5 0 5 C0 3.35 0 1.7 0 0 Z " fill="#34B0C6" transform="translate(98,49)"/>
<path d="M0 0 C0.66 0 1.32 0 2 0 C2.33 1.32 2.66 2.64 3 4 C6.63 4.33 10.26 4.66 14 5 C12.1875 7.5 12.1875 7.5 10 10 C9.01 10 8.02 10 7 10 C7 10.99 7 11.98 7 13 C6.01 13 5.02 13 4 13 C3.67 13.66 3.34 14.32 3 15 C1.68 15 0.36 15 -1 15 C-1.02693575 12.87506859 -1.04636628 10.75004088 -1.0625 8.625 C-1.07410156 7.44164063 -1.08570312 6.25828125 -1.09765625 5.0390625 C-1 2 -1 2 0 0 Z " fill="#6C73FE" transform="translate(103,109)"/>
<path d="M0 0 C1.37091797 0.0009668 1.37091797 0.0009668 2.76953125 0.00195312 C9.48435163 0.04685163 9.48435163 0.04685163 10.625 1.1875 C12.91488781 1.34638092 15.20943441 1.43888073 17.50390625 1.50390625 C18.1905687 1.52468735 18.87723114 1.54546844 19.58470154 1.56687927 C21.78552935 1.63244143 23.98647975 1.69129015 26.1875 1.75 C27.67644514 1.79317892 29.16537773 1.836793 30.65429688 1.88085938 C34.31106553 1.9881293 37.96797318 2.08937772 41.625 2.1875 C41.625 2.5175 41.625 2.8475 41.625 3.1875 C4.5415649 3.39388953 4.5415649 3.39388953 -9.375 2.1875 C-9.375 4.4975 -9.375 6.8075 -9.375 9.1875 C-12.015 9.1875 -14.655 9.1875 -17.375 9.1875 C-17.375 8.8575 -17.375 8.5275 -17.375 8.1875 C-15.725 7.8575 -14.075 7.5275 -12.375 7.1875 C-12.045 5.8675 -11.715 4.5475 -11.375 3.1875 C-13.355 3.1875 -15.335 3.1875 -17.375 3.1875 C-17.375 2.8575 -17.375 2.5275 -17.375 2.1875 C-11.48560037 0.14637931 -6.2030285 -0.08528042 0 0 Z " fill="#90DCE6" transform="translate(24.375,31.8125)"/>
<path d="M0 0 C2.31 0 4.62 0 7 0 C7.33 3.3 7.66 6.6 8 10 C6.68 10.33 5.36 10.66 4 11 C3.67 12.32 3.34 13.64 3 15 C2.01 15 1.02 15 0 15 C0 10.05 0 5.1 0 0 Z " fill="#6C74FE" transform="translate(98,54)"/>
<path d="M0 0 C0 2.64 0 5.28 0 8 C-6.93 8 -13.86 8 -21 8 C-21 7.01 -21 6.02 -21 5 C-19.39679026 4.80448662 -17.79237014 4.61888017 -16.1875 4.4375 C-15.29417969 4.33308594 -14.40085937 4.22867188 -13.48046875 4.12109375 C-11 4 -11 4 -8 5 C-7.67 4.34 -7.34 3.68 -7 3 C-5.68 3 -4.36 3 -3 3 C-3 2.34 -3 1.68 -3 1 C-1 0 -1 0 0 0 Z " fill="#36DAC6" transform="translate(34,72)"/>
<path d="M0 0 C1.32 0 2.64 0 4 0 C4 6.6 4 13.2 4 20 C2.68 19.67 1.36 19.34 0 19 C0 12.73 0 6.46 0 0 Z " fill="#3E3E8B" transform="translate(115,63)"/>
<path d="M0 0 C4.29 0 8.58 0 13 0 C11.6875 3.4375 11.6875 3.4375 10 7 C9.01 7.33 8.02 7.66 7 8 C6.67 7.34 6.34 6.68 6 6 C2.95418731 5.53045739 2.95418731 5.53045739 -0.5625 5.375 C-1.76003906 5.30023438 -2.95757812 5.22546875 -4.19140625 5.1484375 C-5.11824219 5.09945312 -6.04507813 5.05046875 -7 5 C-6.34 4.34 -5.68 3.68 -5 3 C-3.68 3 -2.36 3 -1 3 C-0.67 2.01 -0.34 1.02 0 0 Z " fill="#6660FE" transform="translate(53,81)"/>
<path d="M0 0 C8.58 0 17.16 0 26 0 C25.67 0.99 25.34 1.98 25 3 C17.08 3 9.16 3 1 3 C0.67 2.01 0.34 1.02 0 0 Z " fill="#4C4CA0" transform="translate(101,124)"/>
<path d="M0 0 C1.50046875 0.00386719 1.50046875 0.00386719 3.03125 0.0078125 C4.0315625 0.00523438 5.031875 0.00265625 6.0625 0 C8.53125 0.1328125 8.53125 0.1328125 9.53125 1.1328125 C9.57217937 3.46578683 9.57366723 5.79986475 9.53125 8.1328125 C6.44566876 9.16133958 4.75768349 9.1328125 1.53125 9.1328125 C-0.46875 6.1328125 -0.46875 6.1328125 -0.09375 3.9453125 C0.1125 3.3471875 0.31875 2.7490625 0.53125 2.1328125 C-0.78875 1.8028125 -2.10875 1.4728125 -3.46875 1.1328125 C-2.46875 0.1328125 -2.46875 0.1328125 0 0 Z " fill="#33D3D1" transform="translate(125.46875,32.8671875)"/>
<path d="M0 0 C6.27 0 12.54 0 19 0 C19 2.31 19 4.62 19 7 C18.34 7 17.68 7 17 7 C17 6.34 17 5.68 17 5 C13.37 5 9.74 5 6 5 C6 4.01 6 3.02 6 2 C3.03 1.505 3.03 1.505 0 1 C0 0.67 0 0.34 0 0 Z " fill="#84DBE3" transform="translate(7,58)"/>
<path d="M0 0 C0.66 0.33 1.32 0.66 2 1 C2 6.94 2 12.88 2 19 C1.01 19.33 0.02 19.66 -1 20 C-3.10131385 17.89868615 -2.18514741 13.45853678 -2.1875 10.5625 C-2.19974609 9.77294922 -2.21199219 8.98339844 -2.22460938 8.16992188 C-2.22987279 6.11192565 -2.12206285 4.05437991 -2 2 C-1.34 1.34 -0.68 0.68 0 0 Z " fill="#6C71FE" transform="translate(125,93)"/>
<path d="M0 0 C1 1 1 1 1.125 3.9375 C1 7 1 7 0 9 C-3.90158354 8.42198762 -5.97857777 6.41713779 -9 4 C-11.18214568 3.22166466 -11.18214568 3.22166466 -13 3 C-8.52118671 -0.35910997 -5.40227629 -0.36015175 0 0 Z " fill="#3DB7DC" transform="translate(59,86)"/>
<path d="M0 0 C15.84 0.495 15.84 0.495 32 1 C32 1.66 32 2.32 32 3 C21.44 3 10.88 3 0 3 C0 2.01 0 1.02 0 0 Z " fill="#87B4FE" transform="translate(62,118)"/>
<path d="M0 0 C1.67542976 0.28604898 3.34385343 0.61781233 5 1 C5.875 3.5625 5.875 3.5625 6 7 C4.32305393 9.65870248 2.31872993 11.88180887 0 14 C-0.33 14 -0.66 14 -1 14 C-1.02685938 11.85423363 -1.04633088 9.70837355 -1.0625 7.5625 C-1.07410156 6.36753906 -1.08570312 5.17257813 -1.09765625 3.94140625 C-1 1 -1 1 0 0 Z " fill="#32C6E0" transform="translate(106,33)"/>
<path d="M0 0 C10.56 0 21.12 0 32 0 C32 0.66 32 1.32 32 2 C24.74 2 17.48 2 10 2 C10 2.66 10 3.32 10 4 C9.01 4 8.02 4 7 4 C7 3.34 7 2.68 7 2 C4.69 2 2.38 2 0 2 C0 1.34 0 0.68 0 0 Z " fill="#6BD4E3" transform="translate(34,45)"/>
<path d="M0 0 C2.31 0 4.62 0 7 0 C7 1.65 7 3.3 7 5 C3.37 5 -0.26 5 -4 5 C-4 6.65 -4 8.3 -4 10 C-5.32 10 -6.64 10 -8 10 C-8 8.02 -8 6.04 -8 4 C-5.36 4 -2.72 4 0 4 C0 2.68 0 1.36 0 0 Z " fill="#3D418D" transform="translate(34,49)"/>
<path d="M0 0 C1.24716797 0.00322266 2.49433594 0.00644531 3.77929688 0.00976562 C5.07287109 0.01814453 6.36644531 0.02652344 7.69921875 0.03515625 C9.66858398 0.04192383 9.66858398 0.04192383 11.67773438 0.04882812 C14.91410885 0.06059676 18.15039053 0.07703865 21.38671875 0.09765625 C21.05671875 0.75765625 20.72671875 1.41765625 20.38671875 2.09765625 C19.73074707 2.11747559 19.07477539 2.13729492 18.39892578 2.15771484 C15.43610806 2.25278132 12.47401343 2.36253377 9.51171875 2.47265625 C7.96291016 2.5190625 7.96291016 2.5190625 6.3828125 2.56640625 C4.90361328 2.62441406 4.90361328 2.62441406 3.39453125 2.68359375 C2.4833252 2.71501465 1.57211914 2.74643555 0.63330078 2.77880859 C-1.81259311 2.89648136 -1.81259311 2.89648136 -3.61328125 5.09765625 C-6.34197532 5.06478042 -8.90994305 4.53367854 -11.61328125 4.09765625 C-11.61328125 3.10765625 -11.61328125 2.11765625 -11.61328125 1.09765625 C-7.68039761 0.16677716 -4.03673962 -0.0184326 0 0 Z " fill="#D9D9E8" transform="translate(106.61328125,125.90234375)"/>
<path d="M0 0 C0.99 0.33 1.98 0.66 3 1 C3 3.31 3 5.62 3 8 C2.01 8.33 1.02 8.66 0 9 C-0.33 9.99 -0.66 10.98 -1 12 C-1.99 12 -2.98 12 -4 12 C-4.33 11.34 -4.66 10.68 -5 10 C-7.02463255 9.34786708 -7.02463255 9.34786708 -9 9 C-8.34 7.68 -7.68 6.36 -7 5 C-6.34 5.66 -5.68 6.32 -5 7 C-2.89179203 6.6814823 -2.89179203 6.6814823 -1 6 C-1.33 4.35 -1.66 2.7 -2 1 C-1.34 0.67 -0.68 0.34 0 0 Z " fill="#F1FAFC" transform="translate(27,65)"/>
<path d="M0 0 C1.4606285 2.64738916 2 3.89448334 2 7 C-2.62 7 -7.24 7 -12 7 C-12.33 6.01 -12.66 5.02 -13 4 C-12.22914062 3.93941406 -11.45828125 3.87882812 -10.6640625 3.81640625 C-9.66117188 3.73261719 -8.65828125 3.64882812 -7.625 3.5625 C-6.62726562 3.48128906 -5.62953125 3.40007812 -4.6015625 3.31640625 C-2.02072387 3.15034374 -2.02072387 3.15034374 0 2 C0 1.34 0 0.68 0 0 Z " fill="#4ED3D6" transform="translate(46,98)"/>
<path d="M0 0 C2.66666667 2.66666667 5.33333333 5.33333333 8 8 C5.525 9.485 5.525 9.485 3 11 C3.33 9.35 3.66 7.7 4 6 C3.01 5.67 2.02 5.34 1 5 C-1.34058637 7.12780579 -2.70700306 9.11562221 -4 12 C-4.66 11.67 -5.32 11.34 -6 11 C-5.01 8.03 -4.02 5.06 -3 2 C-2.01 2 -1.02 2 0 2 C0 1.34 0 0.68 0 0 Z " fill="#9ADEEB" transform="translate(50,88)"/>
<path d="M0 0 C0.99 0 1.98 0 3 0 C3 5.28 3 10.56 3 16 C2.01 16 1.02 16 0 16 C0 10.72 0 5.44 0 0 Z " fill="#37D0CA" transform="translate(95,49)"/>
<path d="M0 0 C3.37462715 0.54723683 5.08235 1.0549 8 3 C8 2.01 8 1.02 8 0 C8.99 0 9.98 0 11 0 C11 1.32 11 2.64 11 4 C11.66 4.33 12.32 4.66 13 5 C8.71 5 4.42 5 0 5 C0 3.35 0 1.7 0 0 Z " fill="#34AFC6" transform="translate(33,97)"/>
<path d="M0 0 C0.66 0 1.32 0 2 0 C2.33 3.3 2.66 6.6 3 10 C5.64 10.33 8.28 10.66 11 11 C11 11.33 11 11.66 11 12 C5.39 12 -0.22 12 -6 12 C-6 11.67 -6 11.34 -6 11 C-4.35 10.67 -2.7 10.34 -1 10 C-0.67 8.68 -0.34 7.36 0 6 C-1.98 6 -3.96 6 -6 6 C-6 5.67 -6 5.34 -6 5 C-4.35 4.67 -2.7 4.34 -1 4 C-0.67 2.68 -0.34 1.36 0 0 Z " fill="#73D8E0" transform="translate(13,41)"/>
<path d="M0 0 C0.66 0 1.32 0 2 0 C2 0.66 2 1.32 2 2 C4.31 2.33 6.62 2.66 9 3 C9 3.99 9 4.98 9 6 C4.05 6 -0.9 6 -6 6 C-6 5.34 -6 4.68 -6 4 C-4.02 4 -2.04 4 0 4 C0 2.68 0 1.36 0 0 Z " fill="#72D8E0" transform="translate(13,71)"/>
<path d="M0 0 C2.64 0 5.28 0 8 0 C8.3125 2.25 8.3125 2.25 8 5 C3.89189189 9 3.89189189 9 1 9 C0.67 6.03 0.34 3.06 0 0 Z " fill="#6ED5E3" transform="translate(110,33)"/>
<path d="M0 0 C0.66 0 1.32 0 2 0 C2 4.62 2 9.24 2 14 C-2.95 14 -7.9 14 -13 14 C-12.67 13.34 -12.34 12.68 -12 12 C-10.7625 12.0825 -9.525 12.165 -8.25 12.25 C-5.23747924 12.2286346 -4.15651183 12.0939071 -1.5 10.5 C0.68405234 6.85991277 0.28023018 4.20345267 0 0 Z " fill="#3BD9CD" transform="translate(121,100)"/>
<path d="M0 0 C3.3 0 6.6 0 10 0 C8.60804085 2.7839183 6.84424221 2.97898997 4 4 C4 4.99 4 5.98 4 7 C2.02 7.99 2.02 7.99 0 9 C0 6.03 0 3.06 0 0 Z " fill="#3DBBDE" transform="translate(105,54)"/>
<path d="M0 0 C2.31 0 4.62 0 7 0 C7 0.99 7 1.98 7 3 C5.68 3 4.36 3 3 3 C3 4.98 3 6.96 3 9 C2.34 9 1.68 9 1 9 C0.67 9.66 0.34 10.32 0 11 C0 7.37 0 3.74 0 0 Z M4 3 C4.99 3.495 4.99 3.495 6 4 C5.01 4.495 5.01 4.495 4 5 C4 4.34 4 3.68 4 3 Z " fill="#5833FF" transform="translate(102,86)"/>
<path d="M0 0 C0.33 0 0.66 0 1 0 C1.36 5.4 1.36 5.4 -0.125 7.875 C-2.78034983 9.4682099 -4.96789518 9.20214032 -8 9 C-8 8.34 -8 7.68 -8 7 C-7.236875 6.54625 -6.47375 6.0925 -5.6875 5.625 C-2.98167324 3.9889187 -1.76684925 2.56193141 0 0 Z " fill="#3ED7D9" transform="translate(119,102)"/>
<path d="M0 0 C0 3.3 0 6.6 0 10 C-0.99 10.33 -1.98 10.66 -3 11 C-4.89128342 9.10871658 -4.2366852 6.42932274 -4.328125 3.91015625 C-4.16570312 2.96462891 -4.16570312 2.96462891 -4 2 C-1 0 -1 0 0 0 Z " fill="#7080FE" transform="translate(127,102)"/>
<path d="M0 0 C0.99 0 1.98 0 3 0 C3.08121924 1.60332791 3.13929134 3.20784026 3.1875 4.8125 C3.23970703 6.15248047 3.23970703 6.15248047 3.29296875 7.51953125 C3 10 3 10 0 13 C0 8.71 0 4.42 0 0 Z " fill="#3B96D8" transform="translate(41,49)"/>
<path d="M0 0 C2.31 0 4.62 0 7 0 C7 1.65 7 3.3 7 5 C4.69 5 2.38 5 0 5 C0 3.35 0 1.7 0 0 Z " fill="#3C3E8A" transform="translate(98,49)"/>
<path d="M0 0 C-2 2 -2 2 -4.3828125 2.1953125 C-5.28773437 2.17210938 -6.19265625 2.14890625 -7.125 2.125 C-8.49011719 2.09792969 -8.49011719 2.09792969 -9.8828125 2.0703125 C-10.58148438 2.04710938 -11.28015625 2.02390625 -12 2 C-12 1.01 -12 0.02 -12 -1 C-10.56465159 -1.2226746 -9.12654475 -1.42761906 -7.6875 -1.625 C-6.48673828 -1.79902344 -6.48673828 -1.79902344 -5.26171875 -1.9765625 C-3 -2 -3 -2 0 0 Z " fill="#34D4D0" transform="translate(25,78)"/>
<path d="M0 0 C3.96 0 7.92 0 12 0 C12.33 1.32 12.66 2.64 13 4 C12.01 4 11.02 4 10 4 C10 3.34 10 2.68 10 2 C6.37 2 2.74 2 -1 2 C-0.67 1.34 -0.34 0.68 0 0 Z " fill="#55D9D5" transform="translate(85,45)"/>
<path d="M0 0 C0 1.32 0 2.64 0 4 C-0.99 4.33 -1.98 4.66 -3 5 C-3.66 4.34 -4.32 3.68 -5 3 C-7.68839385 2.73008094 -10.29141936 2.91262643 -13 3 C-13 2.34 -13 1.68 -13 1 C-8.60563789 0.14256349 -4.47427924 -0.08948558 0 0 Z " fill="#4FCBE7" transform="translate(123,96)"/>
<path d="M0 0 C2.97 0 5.94 0 9 0 C9.33 0.66 9.66 1.32 10 2 C8.01432292 2.48828125 6.02864583 2.9765625 4.04296875 3.46484375 C2.34316798 3.91010705 0.66698046 4.44433985 -1 5 C-0.67 3.35 -0.34 1.7 0 0 Z " fill="#4895EC" transform="translate(34,86)"/>
<path d="M0 0 C1.67542976 0.28604898 3.34385343 0.61781233 5 1 C4.67 2.32 4.34 3.64 4 5 C2.68 5.33 1.36 5.66 0 6 C-0.38218767 4.34385343 -0.71395102 2.67542976 -1 1 C-0.67 0.67 -0.34 0.34 0 0 Z " fill="#51D0DC" transform="translate(22,67)"/>
<path d="M0 0 C0.66 0 1.32 0 2 0 C2 1.65 2 3.3 2 5 C2.99 5.33 3.98 5.66 5 6 C4.01 6.99 3.02 7.98 2 9 C-1.875 7.25 -1.875 7.25 -3 5 C-2.01 5 -1.02 5 0 5 C0 3.35 0 1.7 0 0 Z " fill="#F0FAFB" transform="translate(119,52)"/>
<path d="M0 0 C0.33 0.66 0.66 1.32 1 2 C1.66 2 2.32 2 3 2 C2.67 3.98 2.34 5.96 2 8 C1.67 7.01 1.34 6.02 1 5 C0.01 5 -0.98 5 -2 5 C-2.33 5.99 -2.66 6.98 -3 8 C-3.75 6.25 -3.75 6.25 -4 4 C-2.0625 1.75 -2.0625 1.75 0 0 Z " fill="#48C9D8" transform="translate(51,92)"/>
<path d="M0 0 C1.32 0.66 2.64 1.32 4 2 C3.01 2 2.02 2 1 2 C1 2.66 1 3.32 1 4 C1.66 4.33 2.32 4.66 3 5 C3 6.32 3 7.64 3 9 C1.68 9 0.36 9 -1 9 C-1.625 6.1875 -1.625 6.1875 -2 3 C-1.34 2.01 -0.68 1.02 0 0 Z " fill="#43D1DB" transform="translate(125,34)"/>
<path d="M0 0 C0.99 0 1.98 0 3 0 C3 0.66 3 1.32 3 2 C3.928125 1.7215625 3.928125 1.7215625 4.875 1.4375 C7 1 7 1 9 2 C9 2.66 9 3.32 9 4 C5.7 4 2.4 4 -1 4 C-0.67 2.68 -0.34 1.36 0 0 Z " fill="#33C8DE" transform="translate(14,59)"/>
<path d="M0 0 C3.96 0.33 7.92 0.66 12 1 C12 1.66 12 2.32 12 3 C8.04 3 4.08 3 0 3 C0 2.01 0 1.02 0 0 Z " fill="#98BFFE" transform="translate(62,118)"/>
<path d="M0 0 C0.66 0 1.32 0 2 0 C1.67 1.65 1.34 3.3 1 5 C0.34 5 -0.32 5 -1 5 C-1 5.66 -1 6.32 -1 7 C-2.32 7.33 -3.64 7.66 -5 8 C-5 7.01 -5 6.02 -5 5 C-4.01 5 -3.02 5 -2 5 C-2 4.01 -2 3.02 -2 2 C-1.34 2 -0.68 2 0 2 C0 1.34 0 0.68 0 0 Z " fill="#44CBD2" transform="translate(32,68)"/>
<path d="M0 0 C0.33 0 0.66 0 1 0 C3 5.625 3 5.625 3 9 C1.68 9 0.36 9 -1 9 C-0.67 6.03 -0.34 3.06 0 0 Z " fill="#45CDE6" transform="translate(106,104)"/>
<path d="M0 0 C0.5625 1.9375 0.5625 1.9375 1 4 C0 5 0 5 -3.5625 5.0625 C-4.696875 5.041875 -5.83125 5.02125 -7 5 C-6.67 4.01 -6.34 3.02 -6 2 C-4.0625 1.25 -4.0625 1.25 -2 1 C-1.34 1.33 -0.68 1.66 0 2 C0 1.34 0 0.68 0 0 Z " fill="#36DFC3" transform="translate(59,100)"/>
<path d="M0 0 C3.96 0 7.92 0 12 0 C12 0.66 12 1.32 12 2 C11.34 2 10.68 2 10 2 C10 2.66 10 3.32 10 4 C9.01 4 8.02 4 7 4 C7 3.34 7 2.68 7 2 C4.69 2 2.38 2 0 2 C0 1.34 0 0.68 0 0 Z " fill="#90D8E8" transform="translate(34,45)"/>
<path d="M0 0 C0.66 0 1.32 0 2 0 C2.79953138 3.28696233 3.09658936 4.71023192 2 8 C1.01 8 0.02 8 -1 8 C-1.125 2.25 -1.125 2.25 0 0 Z " fill="#6762FF" transform="translate(103,109)"/>
<path d="M0 0 C0.66 0.33 1.32 0.66 2 1 C1.67 2.65 1.34 4.3 1 6 C-0.9375 5.625 -0.9375 5.625 -3 5 C-3.33 4.34 -3.66 3.68 -4 3 C-2.68 2.01 -1.36 1.02 0 0 Z " fill="#41D0D4" transform="translate(58,89)"/>
<path d="M0 0 C0.33 0 0.66 0 1 0 C1 2.64 1 5.28 1 8 C0.01 8.33 -0.98 8.66 -2 9 C-2.25 3.375 -2.25 3.375 0 0 Z " fill="#409AE9" transform="translate(43,59)"/>
<path d="M0 0 C1.65 0 3.3 0 5 0 C4.67 1.65 4.34 3.3 4 5 C2.68 5 1.36 5 0 5 C0 3.35 0 1.7 0 0 Z " fill="#34C4C5" transform="translate(47,97)"/>
<path d="M0 0 C1.32 0 2.64 0 4 0 C3 3 3 3 0 5 C-0.99 5 -1.98 5 -3 5 C-1.125 1.125 -1.125 1.125 0 0 Z " fill="#3CC3D6" transform="translate(56,87)"/>
<path d="M0 0 C1.32 0 2.64 0 4 0 C3.67 1.65 3.34 3.3 3 5 C2.01 5.33 1.02 5.66 0 6 C0 4.02 0 2.04 0 0 Z " fill="#34AEC6" transform="translate(26,59)"/>
<path d="M0 0 C0.33 0.66 0.66 1.32 1 2 C1.99 2.33 2.98 2.66 4 3 C3 4 3 4 0.49609375 4.09765625 C-1.01791016 4.08025391 -1.01791016 4.08025391 -2.5625 4.0625 C-3.57441406 4.05347656 -4.58632812 4.04445313 -5.62890625 4.03515625 C-6.41136719 4.02355469 -7.19382812 4.01195312 -8 4 C-8 3.34 -8 2.68 -8 2 C-5.69 2 -3.38 2 -1 2 C-0.67 1.34 -0.34 0.68 0 0 Z " fill="#8CCCDE" transform="translate(106,45)"/>
<path d="M0 0 C0.66 0.33 1.32 0.66 2 1 C0.68 2.65 -0.64 4.3 -2 6 C-3.65 5.67 -5.3 5.34 -7 5 C-6.67 4.34 -6.34 3.68 -6 3 C-4.66923011 2.65657551 -3.33568021 2.32380126 -2 2 C-1.34 1.34 -0.68 0.68 0 0 Z " fill="#C7EFF4" transform="translate(117,102)"/>
<path d="M0 0 C0 0.99 0 1.98 0 3 C0.3062434 4.33981486 0.63451555 5.67511887 1 7 C-0.32 6.34 -1.64 5.68 -3 5 C-3 4.01 -3 3.02 -3 2 C-2.01 1.34 -1.02 0.68 0 0 Z " fill="#E5F5F9" transform="translate(39,92)"/>
<path d="M0 0 C2.31 0 4.62 0 7 0 C6.01 0.33 5.02 0.66 4 1 C3.67 1.99 3.34 2.98 3 4 C2.01 4 1.02 4 0 4 C0 2.68 0 1.36 0 0 Z " fill="#32C7DF" transform="translate(13,65)"/>
<path d="M0 0 C0.66 0.33 1.32 0.66 2 1 C0.515 4.96 0.515 4.96 -1 9 C-1.66 8.67 -2.32 8.34 -3 8 C-2.01 5.36 -1.02 2.72 0 0 Z " fill="#F4FAFC" transform="translate(47,91)"/>
</svg>
