<?xml version="1.0" encoding="UTF-8"?>
<svg version="1.1" xmlns="http://www.w3.org/2000/svg" width="150" height="150">
<path d="M0 0 C2.97 0.33 5.94 0.66 9 1 C9 2.98 9 4.96 9 7 C14.55493924 8.02703748 14.55493924 8.02703748 20 7 C20.433125 8.134375 20.86625 9.26875 21.3125 10.4375 C22.3061169 12.45153786 22.3061169 12.45153786 24 14 C26.93713773 14.71501749 29.6179844 14.87371097 32.63671875 14.9296875 C35 15 35 15 36 16 C36.15806531 17.92478813 36.251135 19.8549921 36.31640625 21.78515625 C36.35830078 22.95498047 36.40019531 24.12480469 36.44335938 25.33007812 C36.48267578 26.56177734 36.52199219 27.79347656 36.5625 29.0625 C36.60568359 30.29806641 36.64886719 31.53363281 36.69335938 32.80664062 C36.79984198 35.87097335 36.90185424 38.93539073 37 42 C38.65 42 40.3 42 42 42 C43.60339848 45.11771927 44.18974141 46.39011689 43.125 49.8125 C42.75375 50.534375 42.3825 51.25625 42 52 C42.66 52.33 43.32 52.66 44 53 C43.34 54.65 42.68 56.3 42 58 C41.21625 57.938125 40.4325 57.87625 39.625 57.8125 C38.325625 57.9053125 38.325625 57.9053125 37 58 C36.34 58.99 35.68 59.98 35 61 C32.375 61.1875 32.375 61.1875 30 61 C29.773125 60.360625 29.54625 59.72125 29.3125 59.0625 C28.14749104 56.72806339 28.14749104 56.72806339 25.375 56.25 C24.59125 56.1675 23.8075 56.085 23 56 C22.505 54.02 22.505 54.02 22 52 C22.66 52 23.32 52 24 52 C23.39816251 49.97954558 22.72693904 47.97888961 22 46 C21.34 45.67 20.68 45.34 20 45 C20 51.6 20 58.2 20 65 C22.31 65 24.62 65 27 65 C28 66 28 66 28.11352539 69.96899414 C28.1133662 71.74105607 28.10766785 73.5131226 28.09765625 75.28515625 C28.0962413 76.21597519 28.09482635 77.14679413 28.09336853 78.1058197 C28.08775172 81.09141191 28.0751964 84.07693029 28.0625 87.0625 C28.05748716 89.08137913 28.05292388 91.10025943 28.04882812 93.11914062 C28.03777683 98.07945572 28.02050095 103.03971532 28 108 C30.31 108.66 32.62 109.32 35 110 C34 112 34 112 32.34521484 112.61450195 C27.49200924 113.41225457 22.54404055 113.18590312 17.63769531 113.18530273 C15.63863013 113.18748512 13.63960468 113.20599143 11.640625 113.22460938 C10.36960937 113.22654297 9.09859375 113.22847656 7.7890625 113.23046875 C6.63100098 113.23457764 5.47293945 113.23868652 4.27978516 113.24291992 C0.88689046 112.99162245 -1.83332989 112.21173908 -5 111 C-4.67 110.34 -4.34 109.68 -4 109 C-1.4375 108.375 -1.4375 108.375 1 108 C0.32142944 107.99191315 -0.35714111 107.98382629 -1.05627441 107.97549438 C-8.19572947 107.88863335 -15.33493245 107.7891071 -22.47412109 107.68261719 C-25.12938188 107.64363425 -27.7845665 107.60971702 -30.43994141 107.578125 C-68.93926359 107.11445232 -68.93926359 107.11445232 -76 103 C-75.505 102.01 -75.505 102.01 -75 101 C-74.34 101 -73.68 101 -73 101 C-73.495 100.01 -73.495 100.01 -74 99 C-76.92713788 98.05065798 -78.42831368 97.76823527 -81.3125 98.9375 C-81.869375 99.288125 -82.42625 99.63875 -83 100 C-85.0625 98.5625 -85.0625 98.5625 -87 96 C-87.05823431 92.92416977 -86.59222907 90.01264352 -86 87 C-87.32 87 -88.64 87 -90 87 C-89.67 84.36 -89.34 81.72 -89 79 C-87.35 79 -85.7 79 -84 79 C-82.58622659 76.36095629 -81.62759865 73.92879371 -81 71 C-78.03 70.505 -78.03 70.505 -75 70 C-74.67 70.99 -74.34 71.98 -74 73 C-73.67 69.37 -73.34 65.74 -73 62 C-77.29 62 -81.58 62 -86 62 C-86.02683436 58.68744674 -86.0467578 55.37510817 -86.0625 52.0625 C-86.07087891 51.11697266 -86.07925781 50.17144531 -86.08789062 49.19726562 C-86.09111328 48.29814453 -86.09433594 47.39902344 -86.09765625 46.47265625 C-86.10289307 45.64000244 -86.10812988 44.80734863 -86.11352539 43.94946289 C-86 42 -86 42 -85 41 C-82.98035801 40.92755947 -80.95832876 40.91622812 -78.9375 40.9375 C-77.28041016 40.95103516 -77.28041016 40.95103516 -75.58984375 40.96484375 C-74.73519531 40.97644531 -73.88054687 40.98804688 -73 41 C-73.061875 39.906875 -73.12375 38.81375 -73.1875 37.6875 C-73 34 -73 34 -71.875 32.28125 C-69.1629604 30.42802294 -67.05676436 30.70784631 -63.8125 30.8125 C-62.72582031 30.83957031 -61.63914062 30.86664063 -60.51953125 30.89453125 C-59.27236328 30.94673828 -59.27236328 30.94673828 -58 31 C-57.67 29.68 -57.34 28.36 -57 27 C-55.17625854 26.970271 -55.17625854 26.970271 -53.31567383 26.93994141 C-48.79609802 26.86375305 -44.2768386 26.77505595 -39.75756836 26.68261719 C-37.80320491 26.64438211 -35.84877241 26.60951973 -33.89428711 26.578125 C-31.08161778 26.53235565 -28.26942161 26.47438077 -25.45703125 26.4140625 C-24.58601273 26.40251129 -23.7149942 26.39096008 -22.81758118 26.37905884 C-18.45198405 26.27333562 -14.97438372 26.02810986 -11 24 C-11.185625 23.401875 -11.37125 22.80375 -11.5625 22.1875 C-12 20 -12 20 -11 17 C-12.65 16.34 -14.3 15.68 -16 15 C-14.87548273 12.0280615 -13.77706209 9.66559313 -12 7 C-10.906875 7.20625 -9.81375 7.4125 -8.6875 7.625 C-4.9161599 8.40346525 -4.9161599 8.40346525 -2 6 C-0.78715124 2.94570927 -0.78715124 2.94570927 0 0 Z M-3 14 C-5.2084626 17.31269391 -5.80664241 19.14978851 -5.5546875 23.0625 C-4.4812192 26.81207941 -2.28696911 28.01541488 1 30 C3.63836977 30.1672392 3.63836977 30.1672392 6 30 C6.03738281 29.01257813 6.07476562 28.02515625 6.11328125 27.0078125 C6.17902344 25.72648437 6.24476562 24.44515625 6.3125 23.125 C6.37050781 21.84882812 6.42851563 20.57265625 6.48828125 19.2578125 C6.65714844 18.18273437 6.82601562 17.10765625 7 16 C7.99 15.34 8.98 14.68 10 14 C8.01607489 11.60148679 8.01607489 11.60148679 4.1875 11.5625 C0.82266671 11.66669338 -0.04370031 12.02913354 -3 14 Z M28 47 C27.6366844 49.83386167 27.6431329 51.40522151 29.125 53.875 C31.92151052 55.55290631 33.93690532 54.74875648 37 54 C37.67673447 50.59679066 37.67673447 50.59679066 38 47 C36.11499729 44.68436913 36.11499729 44.68436913 33 44.75 C29.88500271 44.68436913 29.88500271 44.68436913 28 47 Z M-79.25 80.625 C-81.21985834 82.92308586 -81.21985834 82.92308586 -81.5 86 C-81.21376982 89.06575838 -81.21376982 89.06575838 -79.3125 91.375 C-76.61209763 93.27258004 -75.22939919 93.35882213 -72 93 C-71.85024761 85.94348748 -71.85024761 85.94348748 -73 79 C-76.92212225 78.60967296 -76.92212225 78.60967296 -79.25 80.625 Z M-66 95 C-66.33 95.66 -66.66 96.32 -67 97 C-66.01 98.485 -66.01 98.485 -65 100 C-52.13 99.01 -52.13 99.01 -39 98 C-38.67 97.01 -38.34 96.02 -38 95 C-47.24 95 -56.48 95 -66 95 Z M-14 95 C-14 95.99 -14 96.98 -14 98 C-8.72 98.33 -3.44 98.66 2 99 C2 97.68 2 96.36 2 95 C-3.28 95 -8.56 95 -14 95 Z " fill="#7284FE" transform="translate(99,18)"/>
<path d="M0 0 C18.15 0 36.3 0 55 0 C55.495 1.98 55.495 1.98 56 4 C57.91425781 3.96519531 57.91425781 3.96519531 59.8671875 3.9296875 C61.5364525 3.91093171 63.2057238 3.89273131 64.875 3.875 C65.71675781 3.85824219 66.55851562 3.84148438 67.42578125 3.82421875 C68.23144531 3.81777344 69.03710938 3.81132813 69.8671875 3.8046875 C70.61081543 3.79421387 71.35444336 3.78374023 72.12060547 3.77294922 C74 4 74 4 76 6 C76.8125 8.9375 76.8125 8.9375 77 12 C75.625 13.6875 75.625 13.6875 74 15 C73.67 15.99 73.34 16.98 73 18 C69.7 18 66.4 18 63 18 C63 18.66 63 19.32 63 20 C62.34 20 61.68 20 61 20 C60.34 21.65 59.68 23.3 59 25 C58.34 25 57.68 25 57 25 C56.67 25.66 56.34 26.32 56 27 C55.34 27 54.68 27 54 27 C54 27.99 54 28.98 54 30 C52.68 29.67 51.36 29.34 50 29 C50 29.66 50 30.32 50 31 C50.66 31.33 51.32 31.66 52 32 C49.61426621 33.89213369 47.92824652 35.02391783 45 36 C45 36.99 45 37.98 45 39 C44.34 39 43.68 39 43 39 C42.505 39.99 42.505 39.99 42 41 C41.195625 41.144375 40.39125 41.28875 39.5625 41.4375 C36.65559342 41.76502717 36.65559342 41.76502717 35 45 C34.01 45.33 33.02 45.66 32 46 C32.99 46.495 32.99 46.495 34 47 C33.67 48.65 33.34 50.3 33 52 C41.58 52 50.16 52 59 52 C59 53.65 59 55.3 59 57 C45.47 57 31.94 57 18 57 C17.67 57.99 17.34 58.98 17 60 C8.75 60 0.5 60 -8 60 C-8.33 59.01 -8.66 58.02 -9 57 C-11.31 57 -13.62 57 -16 57 C-16 49.74 -16 42.48 -16 35 C-20.29 35 -24.58 35 -29 35 C-29.02683436 31.68744674 -29.0467578 28.37510817 -29.0625 25.0625 C-29.07087891 24.11697266 -29.07925781 23.17144531 -29.08789062 22.19726562 C-29.09111328 21.29814453 -29.09433594 20.39902344 -29.09765625 19.47265625 C-29.10289307 18.64000244 -29.10812988 17.80734863 -29.11352539 16.94946289 C-29 15 -29 15 -28 14 C-25.98035801 13.92755947 -23.95832876 13.91622812 -21.9375 13.9375 C-20.28041016 13.95103516 -20.28041016 13.95103516 -18.58984375 13.96484375 C-17.73519531 13.97644531 -16.88054688 13.98804688 -16 14 C-16.061875 12.906875 -16.12375 11.81375 -16.1875 10.6875 C-16 7 -16 7 -14.875 5.28125 C-12.1629604 3.42802294 -10.05676436 3.70784631 -6.8125 3.8125 C-5.72582031 3.83957031 -4.63914062 3.86664063 -3.51953125 3.89453125 C-2.27236328 3.94673828 -2.27236328 3.94673828 -1 4 C-0.67 2.68 -0.34 1.36 0 0 Z " fill="#5F4EFE" transform="translate(42,45)"/>
<path d="M0 0 C1.85776765 3.13498292 2.20140476 5.37471432 2 9 C1.030625 9.28875 0.06125 9.5775 -0.9375 9.875 C-4.10664203 10.64214682 -4.10664203 10.64214682 -5 13 C-5.0689472 14.37342831 -5.08467708 15.75002102 -5.0625 17.125 C-5.041875 18.40375 -5.02125 19.6825 -5 21 C-2.36 21.66 0.28 22.32 3 23 C3 20.03 3 17.06 3 14 C4.98 14 6.96 14 9 14 C9.33 14.66 9.66 15.32 10 16 C18.25 16 26.5 16 35 16 C35.33 15.34 35.66 14.68 36 14 C49.53 14 63.06 14 77 14 C77 17.63 77 21.26 77 25 C71.72 25 66.44 25 61 25 C61 25.99 61 26.98 61 28 C61.56847656 27.98839844 62.13695313 27.97679688 62.72265625 27.96484375 C67.60670484 27.90776806 72.18503965 28.18043228 77 29 C77 31.64 77 34.28 77 37 C69.71409984 37.04682155 62.42823335 37.08211748 55.14221191 37.10362434 C51.75718789 37.11395864 48.37226851 37.12792229 44.98730469 37.15087891 C6.5625541 37.39227608 6.5625541 37.39227608 -1 33 C-0.67 32.34 -0.34 31.68 0 31 C0.66 31 1.32 31 2 31 C1.67 30.34 1.34 29.68 1 29 C-1.92713788 28.05065798 -3.42831368 27.76823527 -6.3125 28.9375 C-6.869375 29.288125 -7.42625 29.63875 -8 30 C-10.0625 28.5625 -10.0625 28.5625 -12 26 C-12.05823431 22.92416977 -11.59222907 20.01264352 -11 17 C-12.32 17 -13.64 17 -15 17 C-14.67 14.36 -14.34 11.72 -14 9 C-12.35 9 -10.7 9 -9 9 C-7.88158632 6.91229447 -7.0291824 5.14591199 -6.5625 2.8125 C-6.376875 2.214375 -6.19125 1.61625 -6 1 C-3 0 -3 0 0 0 Z M9 25 C8.67 25.66 8.34 26.32 8 27 C8.99 28.485 8.99 28.485 10 30 C22.87 29.01 22.87 29.01 36 28 C36.33 27.01 36.66 26.02 37 25 C27.76 25 18.52 25 9 25 Z " fill="#B2CFFE" transform="translate(24,88)"/>
<path d="M0 0 C2.31 0 4.62 0 7 0 C7 3.63 7 7.26 7 11 C6.34 11 5.68 11 5 11 C4.34 12.65 3.68 14.3 3 16 C2.34 16 1.68 16 1 16 C0.67 16.66 0.34 17.32 0 18 C-0.66 18 -1.32 18 -2 18 C-2 18.99 -2 19.98 -2 21 C-3.32 20.67 -4.64 20.34 -6 20 C-6 20.66 -6 21.32 -6 22 C-5.34 22.33 -4.68 22.66 -4 23 C-6.38573379 24.89213369 -8.07175348 26.02391783 -11 27 C-11 27.99 -11 28.98 -11 30 C-11.66 30 -12.32 30 -13 30 C-13.33 30.66 -13.66 31.32 -14 32 C-14.804375 32.144375 -15.60875 32.28875 -16.4375 32.4375 C-19.34440658 32.76502717 -19.34440658 32.76502717 -21 36 C-21.99 36.33 -22.98 36.66 -24 37 C-23.01 37.495 -23.01 37.495 -22 38 C-22.33 39.65 -22.66 41.3 -23 43 C-14.42 43 -5.84 43 3 43 C3 44.65 3 46.3 3 48 C-10.53 48 -24.06 48 -38 48 C-38.33 43.05 -38.66 38.1 -39 33 C-45.27 32.67 -51.54 32.34 -58 32 C-58 30.02 -58 28.04 -58 26 C-56.02 26 -54.04 26 -52 26 C-51.67 24.35 -51.34 22.7 -51 21 C-49.68 20.67 -48.36 20.34 -47 20 C-47.99 19.34 -48.98 18.68 -50 18 C-49.0925 18.04125 -48.185 18.0825 -47.25 18.125 C-44.1217954 18.00468444 -42.61385994 17.6085292 -40 16 C-40.33 15.34 -40.66 14.68 -41 14 C-40.34 14 -39.68 14 -39 14 C-39 13.34 -39 12.68 -39 12 C-38.34 12 -37.68 12 -37 12 C-36.67 11.01 -36.34 10.02 -36 9 C-34.46291382 8.96241577 -34.46291382 8.96241577 -32.89477539 8.92407227 C-29.10590324 8.83015516 -25.31722119 8.72989683 -21.52856445 8.62768555 C-19.88635697 8.58427703 -18.24410261 8.54260642 -16.60180664 8.50268555 C-14.24611255 8.4451256 -11.89065572 8.38139108 -9.53515625 8.31640625 C-8.79660904 8.29969376 -8.05806183 8.28298126 -7.2971344 8.26576233 C-3.85699373 8.46451987 -3.85699373 8.46451987 -1 7 C-0.63239269 4.67182036 -0.29758419 2.3381615 0 0 Z " fill="#6C73FE" transform="translate(98,54)"/>
<path d="M0 0 C2.97 0.33 5.94 0.66 9 1 C9 2.98 9 4.96 9 7 C14.55493924 8.02703748 14.55493924 8.02703748 20 7 C20.433125 8.134375 20.86625 9.26875 21.3125 10.4375 C22.3061169 12.45153786 22.3061169 12.45153786 24 14 C26.93713773 14.71501749 29.6179844 14.87371097 32.63671875 14.9296875 C35 15 35 15 36 16 C36.15806531 17.92478813 36.251135 19.8549921 36.31640625 21.78515625 C36.35830078 22.95498047 36.40019531 24.12480469 36.44335938 25.33007812 C36.48267578 26.56177734 36.52199219 27.79347656 36.5625 29.0625 C36.60568359 30.29806641 36.64886719 31.53363281 36.69335938 32.80664062 C36.79984198 35.87097335 36.90185424 38.93539073 37 42 C38.65 42 40.3 42 42 42 C43.60339848 45.11771927 44.18974141 46.39011689 43.125 49.8125 C42.75375 50.534375 42.3825 51.25625 42 52 C42.99 52.495 42.99 52.495 44 53 C43.34 54.65 42.68 56.3 42 58 C41.21625 57.938125 40.4325 57.87625 39.625 57.8125 C38.325625 57.9053125 38.325625 57.9053125 37 58 C36.34 58.99 35.68 59.98 35 61 C32.375 61.1875 32.375 61.1875 30 61 C29.6596875 60.0409375 29.6596875 60.0409375 29.3125 59.0625 C28.14749104 56.72806339 28.14749104 56.72806339 25.375 56.25 C24.59125 56.1675 23.8075 56.085 23 56 C22.505 54.02 22.505 54.02 22 52 C22.66 52 23.32 52 24 52 C23.34 50.02 22.68 48.04 22 46 C19.03 45.505 19.03 45.505 16 45 C15.8125 42.625 15.8125 42.625 16 40 C16.99 39.34 17.98 38.68 19 38 C18.34 36.02 17.68 34.04 17 32 C11.06 31.67 5.12 31.34 -1 31 C-1 30.34 -1 29.68 -1 29 C1.31 29.33 3.62 29.66 6 30 C5.94779297 28.51886719 5.94779297 28.51886719 5.89453125 27.0078125 C5.86746094 25.72648437 5.84039062 24.44515625 5.8125 23.125 C5.76029297 21.21074219 5.76029297 21.21074219 5.70703125 19.2578125 C5.80371094 18.18273437 5.90039062 17.10765625 6 16 C6.99 15.34 7.98 14.68 9 14 C7.78410016 12.56844101 7.78410016 12.56844101 4.1875 12.6875 C1.21382315 12.74622611 0.12248853 12.92650688 -2.5 14.5 C-4.71177972 18.18629954 -4.34421275 20.73176192 -4 25 C-3.67 25.66 -3.34 26.32 -3 27 C-7.29 27 -11.58 27 -16 27 C-15.01 26.01 -14.02 25.02 -13 24 C-12.34 24 -11.68 24 -11 24 C-11.185625 23.401875 -11.37125 22.80375 -11.5625 22.1875 C-12 20 -12 20 -11 17 C-13.475 16.01 -13.475 16.01 -16 15 C-14.87548273 12.0280615 -13.77706209 9.66559313 -12 7 C-10.906875 7.20625 -9.81375 7.4125 -8.6875 7.625 C-4.9161599 8.40346525 -4.9161599 8.40346525 -2 6 C-0.78715124 2.94570927 -0.78715124 2.94570927 0 0 Z M28 47 C27.6366844 49.83386167 27.6431329 51.40522151 29.125 53.875 C31.92151052 55.55290631 33.93690532 54.74875648 37 54 C37.67673447 50.59679066 37.67673447 50.59679066 38 47 C36.11499729 44.68436913 36.11499729 44.68436913 33 44.75 C29.88500271 44.68436913 29.88500271 44.68436913 28 47 Z " fill="#36D3D2" transform="translate(99,18)"/>
<path d="M0 0 C18.15 0 36.3 0 55 0 C55.495 1.98 55.495 1.98 56 4 C57.91425781 3.96519531 57.91425781 3.96519531 59.8671875 3.9296875 C61.5364525 3.91093171 63.2057238 3.89273131 64.875 3.875 C65.71675781 3.85824219 66.55851562 3.84148438 67.42578125 3.82421875 C68.23144531 3.81777344 69.03710938 3.81132813 69.8671875 3.8046875 C70.61081543 3.79421387 71.35444336 3.78374023 72.12060547 3.77294922 C74 4 74 4 76 6 C76.8125 8.9375 76.8125 8.9375 77 12 C75.625 13.6875 75.625 13.6875 74 15 C73.67 15.99 73.34 16.98 73 18 C69.7 18 66.4 18 63 18 C63 15.03 63 12.06 63 9 C60.69 9 58.38 9 56 9 C56.04125 10.11375 56.0825 11.2275 56.125 12.375 C56 16 56 16 54 18 C51.76086426 18.25396729 51.76086426 18.25396729 48.93945312 18.25878906 C47.35771301 18.26824554 47.35771301 18.26824554 45.74401855 18.27789307 C44.60130493 18.2738446 43.45859131 18.26979614 42.28125 18.265625 C40.52802429 18.26849518 40.52802429 18.26849518 38.73937988 18.27142334 C36.26456487 18.27278626 33.78974274 18.26908241 31.31494141 18.26074219 C27.51578795 18.25004446 23.71710741 18.26063418 19.91796875 18.2734375 C17.51822812 18.27211592 15.11848778 18.26955357 12.71875 18.265625 C11.00467957 18.27169769 11.00467957 18.27169769 9.25598145 18.27789307 C8.20148804 18.27158875 7.14699463 18.26528442 6.06054688 18.25878906 C5.1294812 18.25719788 4.19841553 18.25560669 3.23913574 18.25396729 C1 18 1 18 -1 16 C-1.23046875 12.8125 -1.23046875 12.8125 -1.1875 9 C-1.18105469 7.741875 -1.17460938 6.48375 -1.16796875 5.1875 C-1 2 -1 2 0 0 Z " fill="#38D0CC" transform="translate(42,45)"/>
<path d="M0 0 C1.85776765 3.13498292 2.20140476 5.37471432 2 9 C1.030625 9.28875 0.06125 9.5775 -0.9375 9.875 C-4.10664203 10.64214682 -4.10664203 10.64214682 -5 13 C-5.0689472 14.37342831 -5.08467708 15.75002102 -5.0625 17.125 C-5.041875 18.40375 -5.02125 19.6825 -5 21 C1.88824069 23.40990104 1.88824069 23.40990104 9 25 C9.33 26.32 9.66 27.64 10 29 C18.58 28.67 27.16 28.34 36 28 C35.67 28.66 35.34 29.32 35 30 C32.35139573 30.59355614 29.70802678 30.74209269 27 31 C27 31.66 27 32.32 27 33 C41.19 33 55.38 33 70 33 C69.67 32.34 69.34 31.68 69 31 C67.845 30.835 66.69 30.67 65.5 30.5 C64.345 30.335 63.19 30.17 62 30 C61.505 29.01 61.505 29.01 61 28 C66.45769811 27.88861841 71.61509359 28.08342019 77 29 C77 31.64 77 34.28 77 37 C69.71409984 37.04682155 62.42823335 37.08211748 55.14221191 37.10362434 C51.75718789 37.11395864 48.37226851 37.12792229 44.98730469 37.15087891 C6.5625541 37.39227608 6.5625541 37.39227608 -1 33 C-0.67 32.34 -0.34 31.68 0 31 C0.66 31 1.32 31 2 31 C1.67 30.34 1.34 29.68 1 29 C-1.92713788 28.05065798 -3.42831368 27.76823527 -6.3125 28.9375 C-6.869375 29.288125 -7.42625 29.63875 -8 30 C-10.0625 28.5625 -10.0625 28.5625 -12 26 C-12.05823431 22.92416977 -11.59222907 20.01264352 -11 17 C-12.32 17 -13.64 17 -15 17 C-14.67 14.36 -14.34 11.72 -14 9 C-12.35 9 -10.7 9 -9 9 C-7.88158632 6.91229447 -7.0291824 5.14591199 -6.5625 2.8125 C-6.376875 2.214375 -6.19125 1.61625 -6 1 C-3 0 -3 0 0 0 Z " fill="#EAEBF2" transform="translate(24,88)"/>
<path d="M0 0 C8.91 0 17.82 0 27 0 C26.34 0.33 25.68 0.66 25 1 C25 1.66 25 2.32 25 3 C24.01 3.33 23.02 3.66 22 4 C21.34 4.66 20.68 5.32 20 6 C18.35008418 6.70710678 16.68437744 7.37943989 15 8 C15.495 9.485 15.495 9.485 16 11 C15.34 11.33 14.68 11.66 14 12 C11.7763932 13.9254644 11.7763932 13.9254644 11 17 C9.01310269 18.35278115 7.01254782 19.68568305 5 21 C3.06201737 23.77260299 3.06201737 23.77260299 2 26 C1.34 26 0.68 26 0 26 C0 25.01 0 24.02 0 23 C-7.26 23 -14.52 23 -22 23 C-22 21.02 -22 19.04 -22 17 C-20.02 17 -18.04 17 -16 17 C-15.67 15.35 -15.34 13.7 -15 12 C-13.68 11.67 -12.36 11.34 -11 11 C-11.99 10.34 -12.98 9.68 -14 9 C-12.63875 9.061875 -12.63875 9.061875 -11.25 9.125 C-8.1217954 9.00468444 -6.61385994 8.6085292 -4 7 C-4.33 6.34 -4.66 5.68 -5 5 C-4.34 5 -3.68 5 -3 5 C-3 4.34 -3 3.68 -3 3 C-2.34 3 -1.68 3 -1 3 C-0.67 2.01 -0.34 1.02 0 0 Z " fill="#655DFE" transform="translate(62,63)"/>
<path d="M0 0 C16.83 0 33.66 0 51 0 C51 3.63 51 7.26 51 11 C34.17 11 17.34 11 0 11 C0 7.37 0 3.74 0 0 Z " fill="#41488D" transform="translate(44,47)"/>
<path d="M0 0 C1.12019531 -0.00128906 2.24039063 -0.00257812 3.39453125 -0.00390625 C4.57402344 -0.00003906 5.75351562 0.00382812 6.96875 0.0078125 C8.73798828 0.00201172 8.73798828 0.00201172 10.54296875 -0.00390625 C12.22326172 -0.00197266 12.22326172 -0.00197266 13.9375 0 C14.97326172 0.00112793 16.00902344 0.00225586 17.07617188 0.00341797 C19.46875 0.1328125 19.46875 0.1328125 20.46875 1.1328125 C20.56861975 3.97616298 20.60752881 6.78978413 20.59375 9.6328125 C20.59955078 10.82970703 20.59955078 10.82970703 20.60546875 12.05078125 C20.59535767 18.00620483 20.59535767 18.00620483 19.46875 19.1328125 C17.62715977 19.23240871 15.78178033 19.26361661 13.9375 19.265625 C12.81730469 19.26691406 11.69710937 19.26820312 10.54296875 19.26953125 C9.36347656 19.26566406 8.18398438 19.26179688 6.96875 19.2578125 C5.19951172 19.26361328 5.19951172 19.26361328 3.39453125 19.26953125 C1.71423828 19.26759766 1.71423828 19.26759766 0 19.265625 C-1.03576172 19.26449707 -2.07152344 19.26336914 -3.13867188 19.26220703 C-5.53125 19.1328125 -5.53125 19.1328125 -6.53125 18.1328125 C-6.63111975 15.28946202 -6.67002881 12.47584087 -6.65625 9.6328125 C-6.66011719 8.83488281 -6.66398437 8.03695312 -6.66796875 7.21484375 C-6.65573175 0.007248 -6.65573175 0.007248 0 0 Z " fill="#40BADD" transform="translate(39.53125,85.8671875)"/>
<path d="M0 0 C1.98 0 3.96 0 6 0 C6.33 0.66 6.66 1.32 7 2 C15.25 2 23.5 2 32 2 C32.33 1.34 32.66 0.68 33 0 C38.94 0 44.88 0 51 0 C51 2.97 51 5.94 51 9 C50.505 8.01 50.505 8.01 50 7 C48.97895449 7.97850195 47.9793879 8.97980427 47 10 C47 10.33 47 10.66 47 11 C40.46721214 11.02527002 33.93443679 11.04283292 27.40161133 11.05493164 C25.17732268 11.05997317 22.95303737 11.06680623 20.72875977 11.07543945 C17.53921691 11.08751298 14.34971771 11.09322996 11.16015625 11.09765625 C9.65860741 11.10539818 9.65860741 11.10539818 8.12672424 11.11329651 C7.20584518 11.11337204 6.28496613 11.11344757 5.33618164 11.11352539 C4.11373497 11.11685631 4.11373497 11.11685631 2.86659241 11.12025452 C1 11 1 11 0 10 C-0.07205511 8.31391034 -0.08386068 6.62499341 -0.0625 4.9375 C-0.05347656 4.01839844 -0.04445313 3.09929687 -0.03515625 2.15234375 C-0.02355469 1.44207031 -0.01195313 0.73179688 0 0 Z " fill="#BBD5FE" transform="translate(27,102)"/>
<path d="M0 0 C0.83265381 0.00523682 1.66530762 0.01047363 2.52319336 0.01586914 C3.42231445 0.0190918 4.32143555 0.02231445 5.24780273 0.02563477 C6.66609375 0.03820313 6.66609375 0.03820313 8.11303711 0.05102539 C9.06243164 0.05553711 10.01182617 0.06004883 10.98999023 0.06469727 C13.34356776 0.07652429 15.69702188 0.09300514 18.05053711 0.11352539 C18.07941525 3.5926748 18.09729398 7.0717937 18.11303711 10.55102539 C18.12141602 11.54424805 18.12979492 12.5374707 18.13842773 13.56079102 C18.14326172 14.97714844 18.14326172 14.97714844 18.14819336 16.42211914 C18.15604858 17.73394165 18.15604858 17.73394165 18.1640625 19.07226562 C18.05053711 21.11352539 18.05053711 21.11352539 17.05053711 22.11352539 C15.55919801 22.1301477 14.06692906 22.07671739 12.57788086 21.99243164 C11.67875977 21.9440918 10.77963867 21.89575195 9.85327148 21.84594727 C8.90774414 21.78987305 7.9622168 21.73379883 6.98803711 21.67602539 C6.03864258 21.62381836 5.08924805 21.57161133 4.11108398 21.51782227 C1.75726759 21.38771181 -0.59616988 21.25273427 -2.94946289 21.11352539 C-2.97834436 17.80104352 -2.99622088 14.48859372 -3.01196289 11.17602539 C-3.0203418 10.23049805 -3.0287207 9.2849707 -3.03735352 8.31079102 C-3.04057617 7.41166992 -3.04379883 6.51254883 -3.04711914 5.58618164 C-3.05235596 4.75352783 -3.05759277 3.92087402 -3.06298828 3.06298828 C-2.90876673 0.41468917 -2.64829911 0.15422155 0 0 Z " fill="#39D0CE" transform="translate(15.949462890625,58.886474609375)"/>
<path d="M0 0 C1.32 0 2.64 0 4 0 C4 6.6 4 13.2 4 20 C6.31 20 8.62 20 11 20 C12 21 12 21 12.09765625 23.50390625 C12.08605469 24.51324219 12.07445313 25.52257812 12.0625 26.5625 C12.05347656 27.57441406 12.04445313 28.58632812 12.03515625 29.62890625 C12.02355469 30.41136719 12.01195313 31.19382812 12 32 C9.29283758 32.90238747 7.76223232 33.11851302 4.98828125 33.09765625 C3.85229492 33.09282227 3.85229492 33.09282227 2.69335938 33.08789062 C1.51483398 33.07532227 1.51483398 33.07532227 0.3125 33.0625 C-0.48478516 33.05798828 -1.28207031 33.05347656 -2.10351562 33.04882812 C-4.06904257 33.0370585 -6.03453085 33.01912348 -8 33 C-8.33 32.34 -8.66 31.68 -9 31 C-9.66 31.66 -10.32 32.32 -11 33 C-11.66 33 -12.32 33 -13 33 C-13.19466332 31.20909747 -13.38051213 29.41723495 -13.5625 27.625 C-13.66691406 26.62726563 -13.77132812 25.62953125 -13.87890625 24.6015625 C-14 22 -14 22 -13 20 C-8.71 20 -4.42 20 0 20 C0 13.4 0 6.8 0 0 Z " fill="#604FFC" transform="translate(115,63)"/>
<path d="M0 0 C2.97 0.33 5.94 0.66 9 1 C9 2.98 9 4.96 9 7 C13.20594226 7.72795155 15.80104745 8.04973814 20 7 C21.32 9.64 22.64 12.28 24 15 C21.70858714 15.05384521 19.41681812 15.09272087 17.125 15.125 C15.21074219 15.15980469 15.21074219 15.15980469 13.2578125 15.1953125 C10 15 10 15 8 13 C2.45764755 12.42765564 2.45764755 12.42765564 -2.5 14.5 C-4.71177972 18.18629954 -4.34421275 20.73176192 -4 25 C-3.67 25.66 -3.34 26.32 -3 27 C-7.29 27 -11.58 27 -16 27 C-15.01 26.01 -14.02 25.02 -13 24 C-12.34 24 -11.68 24 -11 24 C-11.185625 23.401875 -11.37125 22.80375 -11.5625 22.1875 C-12 20 -12 20 -11 17 C-13.475 16.01 -13.475 16.01 -16 15 C-14.87548273 12.0280615 -13.77706209 9.66559313 -12 7 C-10.906875 7.20625 -9.81375 7.4125 -8.6875 7.625 C-4.9161599 8.40346525 -4.9161599 8.40346525 -2 6 C-0.78715124 2.94570927 -0.78715124 2.94570927 0 0 Z " fill="#E8EAF1" transform="translate(99,18)"/>
<path d="M0 0 C1.48831242 0.00667405 2.97660807 0.01863442 4.46484375 0.03515625 C5.22345703 0.03966797 5.98207031 0.04417969 6.76367188 0.04882812 C8.64326246 0.06064945 10.52281274 0.07858547 12.40234375 0.09765625 C11.92796875 0.53078125 11.45359375 0.96390625 10.96484375 1.41015625 C9.16547418 3.12075238 9.16547418 3.12075238 8.40234375 6.09765625 C9.30984375 5.87078125 10.21734375 5.64390625 11.15234375 5.41015625 C14.40234375 5.09765625 14.40234375 5.09765625 16.77734375 6.41015625 C18.40234375 8.09765625 18.40234375 8.09765625 18.40234375 10.09765625 C20.05234375 10.09765625 21.70234375 10.09765625 23.40234375 10.09765625 C23.89734375 12.07765625 23.89734375 12.07765625 24.40234375 14.09765625 C20.11234375 14.09765625 15.82234375 14.09765625 11.40234375 14.09765625 C11.40234375 16.40765625 11.40234375 18.71765625 11.40234375 21.09765625 C12.06234375 21.42765625 12.72234375 21.75765625 13.40234375 22.09765625 C11.42234375 23.08765625 11.42234375 23.08765625 9.40234375 24.09765625 C7.40234375 21.09765625 7.40234375 21.09765625 6.40234375 17.09765625 C0.46234375 16.76765625 -5.47765625 16.43765625 -11.59765625 16.09765625 C-11.59765625 15.43765625 -11.59765625 14.77765625 -11.59765625 14.09765625 C-9.28765625 14.42765625 -6.97765625 14.75765625 -4.59765625 15.09765625 C-4.60925781 14.09863281 -4.62085937 13.09960938 -4.6328125 12.0703125 C-4.64183594 10.77996094 -4.65085937 9.48960938 -4.66015625 8.16015625 C-4.67175781 6.87238281 -4.68335937 5.58460937 -4.6953125 4.2578125 C-4.55688549 -0.22168547 -4.56678915 0.12396279 0 0 Z " fill="#86D8E3" transform="translate(109.59765625,32.90234375)"/>
<path d="M0 0 C0.99 0 1.98 0 3 0 C3 9.57 3 19.14 3 29 C-5.25 29 -13.5 29 -22 29 C-22.26785714 15.875 -22.26785714 15.875 -20 10 C-19.67 10 -19.34 10 -19 10 C-18.67 12.64 -18.34 15.28 -18 18 C-12.72 18 -7.44 18 -2 18 C-1.90912109 16.17662109 -1.90912109 16.17662109 -1.81640625 14.31640625 C-1.73201668 12.73175772 -1.6473679 11.14712298 -1.5625 9.5625 C-1.52318359 8.76005859 -1.48386719 7.95761719 -1.44335938 7.13085938 C-1.11328125 1.11328125 -1.11328125 1.11328125 0 0 Z " fill="#7081FE" transform="translate(124,95)"/>
<path d="M0 0 C1.58206057 0.00667536 3.16410534 0.0186375 4.74609375 0.03515625 C5.55240234 0.03966797 6.35871094 0.04417969 7.18945312 0.04882812 C9.18753131 0.06065107 11.18557158 0.07858711 13.18359375 0.09765625 C13.21043687 2.91021906 13.23035563 5.72252866 13.24609375 8.53515625 C13.25447266 9.33759766 13.26285156 10.14003906 13.27148438 10.96679688 C13.28010805 13.01060846 13.23587525 15.05449527 13.18359375 17.09765625 C11.36243372 18.91881628 8.87687611 18.23000705 6.45703125 18.234375 C5.70679687 18.23050781 4.9565625 18.22664063 4.18359375 18.22265625 C3.05824219 18.22845703 3.05824219 18.22845703 1.91015625 18.234375 C-3.68979572 18.22426678 -3.68979572 18.22426678 -4.81640625 17.09765625 C-4.91621839 14.42034245 -4.955205 11.7746145 -4.94140625 9.09765625 C-4.94527344 8.34742187 -4.94914062 7.5971875 -4.953125 6.82421875 C-4.94103514 0.12643386 -4.94103514 0.12643386 0 0 Z " fill="#3DD0E3" transform="translate(109.81640625,95.90234375)"/>
<path d="M0 0 C0.33 0 0.66 0 1 0 C1.33 2.97 1.66 5.94 2 9 C2.99 8.34 3.98 7.68 5 7 C5 10.41274544 4.68308022 13.23310976 4.0625 16.5625 C3.88847656 17.51253906 3.71445313 18.46257812 3.53515625 19.44140625 C3 22 3 22 2 25 C1.77548542 27.22574335 1.59217122 29.45581519 1.4375 31.6875 C1.293125 33.770625 1.14875 35.85375 1 38 C9.25 38 17.5 38 26 38 C26 38.66 26 39.32 26 40 C28.31 40.66 30.62 41.32 33 42 C32 44 32 44 30.34521484 44.61450195 C25.49200924 45.41225457 20.54404055 45.18590312 15.63769531 45.18530273 C13.63863013 45.18748512 11.63960468 45.20599143 9.640625 45.22460938 C8.36960937 45.22654297 7.09859375 45.22847656 5.7890625 45.23046875 C4.63100098 45.23457764 3.47293945 45.23868652 2.27978516 45.24291992 C-1.11310954 44.99162245 -3.83332989 44.21173908 -7 43 C-6 41 -6 41 0 39 C0 26.13 0 13.26 0 0 Z " fill="#5E51EA" transform="translate(101,86)"/>
<path d="M0 0 C1.08667969 0.02707031 2.17335938 0.05414063 3.29296875 0.08203125 C4.54013672 0.13423828 4.54013672 0.13423828 5.8125 0.1875 C5.87308594 1.04214844 5.93367188 1.89679687 5.99609375 2.77734375 C6.07988281 3.88207031 6.16367187 4.98679687 6.25 6.125 C6.33121094 7.22714844 6.41242187 8.32929687 6.49609375 9.46484375 C6.51668084 12.09859903 6.51668084 12.09859903 7.8125 13.1875 C10.14067964 13.55510731 12.4743385 13.88991581 14.8125 14.1875 C14.8125 14.5175 14.8125 14.8475 14.8125 15.1875 C14.173125 15.290625 13.53375 15.39375 12.875 15.5 C12.194375 15.726875 11.51375 15.95375 10.8125 16.1875 C10.4825 17.1775 10.1525 18.1675 9.8125 19.1875 C9.1525 19.1875 8.4925 19.1875 7.8125 19.1875 C8.1425 20.1775 8.4725 21.1675 8.8125 22.1875 C8.4825 22.8475 8.1525 23.5075 7.8125 24.1875 C7.1525 24.1875 6.4925 24.1875 5.8125 24.1875 C5.8125 24.8475 5.8125 25.5075 5.8125 26.1875 C5.1525 26.1875 4.4925 26.1875 3.8125 26.1875 C3.8125 26.8475 3.8125 27.5075 3.8125 28.1875 C2.4925 28.5175 1.1725 28.8475 -0.1875 29.1875 C-0.5175 22.9175 -0.8475 16.6475 -1.1875 10.1875 C-3.8275 10.1875 -6.4675 10.1875 -9.1875 10.1875 C-9.55218886 3.74466353 -9.55218886 3.74466353 -8.0625 1.46875 C-5.3504604 -0.38447706 -3.24426436 -0.10465369 0 0 Z " fill="#5A39FE" transform="translate(35.1875,48.8125)"/>
<path d="M0 0 C0.83265381 0.00523682 1.66530762 0.01047363 2.52319336 0.01586914 C3.42231445 0.0190918 4.32143555 0.02231445 5.24780273 0.02563477 C6.66609375 0.03820312 6.66609375 0.03820312 8.11303711 0.05102539 C9.06243164 0.05553711 10.01182617 0.06004883 10.98999023 0.06469727 C13.34356776 0.07652429 15.69702188 0.09300514 18.05053711 0.11352539 C18.0774099 1.92594591 18.09687426 3.73847772 18.11303711 5.55102539 C18.12463867 6.56036133 18.13624023 7.56969727 18.14819336 8.60961914 C18.05053711 11.11352539 18.05053711 11.11352539 17.05053711 12.11352539 C14.06187069 12.21363835 11.10143258 12.25226514 8.11303711 12.23852539 C7.27579102 12.24239258 6.43854492 12.24625977 5.57592773 12.25024414 C4.77477539 12.24895508 3.97362305 12.24766602 3.14819336 12.24633789 C2.41093018 12.24520996 1.67366699 12.24408203 0.9140625 12.24291992 C-0.94946289 12.11352539 -0.94946289 12.11352539 -2.94946289 11.11352539 C-2.9763444 9.46777973 -2.99580412 7.82191126 -3.01196289 6.17602539 C-3.02356445 5.25950195 -3.03516602 4.34297852 -3.04711914 3.39868164 C-2.92474775 0.53519116 -2.85914507 0.16649999 0 0 Z " fill="#33CCDA" transform="translate(15.949462890625,31.886474609375)"/>
<path d="M0 0 C0.99 0 1.98 0 3 0 C3 2.97 3 5.94 3 9 C4.36318359 8.87431641 4.36318359 8.87431641 5.75390625 8.74609375 C14.98760545 7.99792735 23.77091322 8.14909129 33 9 C33.495 10.485 33.495 10.485 34 12 C40.93 12.33 47.86 12.66 55 13 C55 13.33 55 13.66 55 14 C47.48863592 14.05057965 39.97731551 14.08568257 32.46582031 14.10986328 C29.90883747 14.11994038 27.35186621 14.13360226 24.79492188 14.15087891 C21.12627308 14.17505217 17.45777621 14.18646585 13.7890625 14.1953125 C12.0655809 14.21079636 12.0655809 14.21079636 10.30728149 14.22659302 C9.2463327 14.22674408 8.18538391 14.22689514 7.09228516 14.22705078 C6.15518707 14.231492 5.21808899 14.23593323 4.25259399 14.24050903 C2 14 2 14 0 12 C-0.1953125 9.1796875 -0.1953125 9.1796875 -0.125 5.875 C-0.10695312 4.77929688 -0.08890625 3.68359375 -0.0703125 2.5546875 C-0.04710937 1.71164063 -0.02390625 0.86859375 0 0 Z " fill="#409FE7" transform="translate(41,49)"/>
<path d="M0 0 C13.53 0 27.06 0 41 0 C41 1.65 41 3.3 41 5 C27.47 5 13.94 5 0 5 C0 3.35 0 1.7 0 0 Z " fill="#3C3D89" transform="translate(60,97)"/>
<path d="M0 0 C2.95857409 -0.05379226 5.91617721 -0.09357093 8.875 -0.125 C9.71675781 -0.14175781 10.55851562 -0.15851562 11.42578125 -0.17578125 C12.23144531 -0.18222656 13.03710938 -0.18867187 13.8671875 -0.1953125 C14.98262939 -0.21102295 14.98262939 -0.21102295 16.12060547 -0.22705078 C18 0 18 0 20 2 C20.8125 4.9375 20.8125 4.9375 21 8 C19.625 9.6875 19.625 9.6875 18 11 C17.67 11.99 17.34 12.98 17 14 C13.7 14 10.4 14 7 14 C7 11.03 7 8.06 7 5 C4.69 5 2.38 5 0 5 C0 3.35 0 1.7 0 0 Z " fill="#3FC6D5" transform="translate(98,49)"/>
<path d="M0 0 C0.33 1.32 0.66 2.64 1 4 C6.94 4.33 12.88 4.66 19 5 C19.495 6.485 19.495 6.485 20 8 C5.81 8 -8.38 8 -23 8 C-23 7.34 -23 6.68 -23 6 C-21.72125 5.7525 -20.4425 5.505 -19.125 5.25 C-16.92551978 4.76108886 -16.92551978 4.76108886 -15 4 C-13.79117904 1.99983534 -13.79117904 1.99983534 -13 0 C-8.67908775 -1.65211351 -4.45460564 -0.67951611 0 0 Z " fill="#ADCCFE" transform="translate(74,113)"/>
<path d="M0 0 C1.98 0 3.96 0 6 0 C7.60339848 3.11771927 8.18974141 4.39011689 7.125 7.8125 C6.75375 8.534375 6.3825 9.25625 6 10 C6.66 10.33 7.32 10.66 8 11 C7.34 12.65 6.68 14.3 6 16 C4.824375 15.9071875 4.824375 15.9071875 3.625 15.8125 C2.325625 15.9053125 2.325625 15.9053125 1 16 C0.34 16.99 -0.32 17.98 -1 19 C-3.625 19.1875 -3.625 19.1875 -6 19 C-6.226875 18.360625 -6.45375 17.72125 -6.6875 17.0625 C-7.85250896 14.72806339 -7.85250896 14.72806339 -10.625 14.25 C-11.40875 14.1675 -12.1925 14.085 -13 14 C-13.33 12.68 -13.66 11.36 -14 10 C-13.34 10 -12.68 10 -12 10 C-12.66 7.69 -13.32 5.38 -14 3 C-11.36 3 -8.72 3 -6 3 C-6.20625 4.11375 -6.4125 5.2275 -6.625 6.375 C-6.74875 7.57125 -6.8725 8.7675 -7 10 C-5.10244856 12.34973818 -5.10244856 12.34973818 -1.875 12.125 C-0.451875 12.063125 -0.451875 12.063125 1 12 C1.29562367 6.67829506 1.29562367 6.67829506 -1 2 C-0.67 1.34 -0.34 0.68 0 0 Z " fill="#E9EAF1" transform="translate(135,60)"/>
<path d="M0 0 C1.32 0 2.64 0 4 0 C4 6.6 4 13.2 4 20 C6.31 20 8.62 20 11 20 C11.33 20.99 11.66 21.98 12 23 C3.19039858 24.30512614 -5.19039858 24.30512614 -14 23 C-13.505 21.515 -13.505 21.515 -13 20 C-8.71 20 -4.42 20 0 20 C0 13.4 0 6.8 0 0 Z " fill="#4C4CA1" transform="translate(115,63)"/>
<path d="M0 0 C0.33 0 0.66 0 1 0 C1.02685412 2.31243792 1.04632841 4.6249627 1.0625 6.9375 C1.07410156 8.22527344 1.08570313 9.51304688 1.09765625 10.83984375 C1 14 1 14 0 15 C-1.41570123 15.08651611 -2.835595 15.10704904 -4.25390625 15.09765625 C-5.10791016 15.09443359 -5.96191406 15.09121094 -6.84179688 15.08789062 C-7.73962891 15.07951172 -8.63746094 15.07113281 -9.5625 15.0625 C-10.46419922 15.05798828 -11.36589844 15.05347656 -12.29492188 15.04882812 C-14.53001314 15.03700225 -16.76497437 15.0205222 -19 15 C-19 13.35 -19 11.7 -19 10 C-15.98968256 9.06576355 -15.13349732 8.95550089 -12 10 C-7.88123086 7.05202298 -7.88123086 7.05202298 -5 3 C-3.68 3 -2.36 3 -1 3 C-0.67 2.01 -0.34 1.02 0 0 Z " fill="#35DDC5" transform="translate(134,48)"/>
<path d="M0 0 C0.99 0 1.98 0 3 0 C3 9.57 3 19.14 3 29 C-0.96 29 -4.92 29 -9 29 C-8 27 -8 27 -5 26 C-5 24.68 -5 23.36 -5 22 C-4.01 21.34 -3.02 20.68 -2 20 C-1.5099591 17.99276461 -1.5099591 17.99276461 -1.5234375 15.68359375 C-1.4925 14.83732422 -1.4615625 13.99105469 -1.4296875 13.11914062 C-1.41164063 12.23419922 -1.39359375 11.34925781 -1.375 10.4375 C-1.32419742 8.68608092 -1.26971055 6.93476348 -1.2109375 5.18359375 C-1.19337402 4.40556396 -1.17581055 3.62753418 -1.15771484 2.82592773 C-1 1 -1 1 0 0 Z " fill="#7692FE" transform="translate(124,95)"/>
<path d="M0 0 C1.98 0 3.96 0 6 0 C6.33 0.66 6.66 1.32 7 2 C9.8159849 2.46898963 9.8159849 2.46898963 13.0625 2.625 C14.71958984 2.73714844 14.71958984 2.73714844 16.41015625 2.8515625 C17.26480469 2.90054688 18.11945312 2.94953125 19 3 C19 3.66 19 4.32 19 5 C19.99 5.33 20.98 5.66 22 6 C20.88625 6.0825 19.7725 6.165 18.625 6.25 C17.42875 6.4975 16.2325 6.745 15 7 C13.73990208 8.97742781 13.73990208 8.97742781 13 11 C11.02090602 11.02686553 9.04171029 11.04633375 7.0625 11.0625 C5.96035156 11.07410156 4.85820312 11.08570312 3.72265625 11.09765625 C1 11 1 11 0 10 C-0.07205511 8.31391034 -0.08386068 6.62499341 -0.0625 4.9375 C-0.05347656 4.01839844 -0.04445313 3.09929687 -0.03515625 2.15234375 C-0.02355469 1.44207031 -0.01195313 0.73179688 0 0 Z " fill="#C6DCFE" transform="translate(27,102)"/>
<path d="M0 0 C1.31871094 -0.01224609 2.63742188 -0.02449219 3.99609375 -0.03710938 C5.90068359 -0.04000977 5.90068359 -0.04000977 7.84375 -0.04296875 C9.00068359 -0.04707764 10.15761719 -0.05118652 11.34960938 -0.05541992 C14.47736509 0.18575467 16.680892 0.85423629 19.5 2.1875 C18.5 4.1875 18.5 4.1875 16.84521484 4.80200195 C11.99200924 5.59975457 7.04404055 5.37340312 2.13769531 5.37280273 C0.13863013 5.37498512 -1.86039532 5.39349143 -3.859375 5.41210938 C-5.13039063 5.41404297 -6.40140625 5.41597656 -7.7109375 5.41796875 C-8.86899902 5.42207764 -10.02706055 5.42618652 -11.22021484 5.43041992 C-14.61310954 5.17912245 -17.33332989 4.39923908 -20.5 3.1875 C-20.17 2.5275 -19.84 1.8675 -19.5 1.1875 C-13.23640183 -0.60566158 -6.45139424 0.00315317 0 0 Z " fill="#EAEBF2" transform="translate(114.5,125.8125)"/>
<path d="M0 0 C1.32 0 2.64 0 4 0 C4 0.99 4 1.98 4 3 C4.99 2.67 5.98 2.34 7 2 C8.06546953 5.1964086 8.07427838 7.65747276 8 11 C5.09399739 12.25664978 3.20395416 13 0 13 C0 12.34 0 11.68 0 11 C-1.65 10.67 -3.3 10.34 -5 10 C-5 7.69 -5 5.38 -5 3 C-3.35 2.67 -1.7 2.34 0 2 C0 1.34 0 0.68 0 0 Z " fill="#EAF9FA" transform="translate(22,63)"/>
<path d="M0 0 C0.02685938 2.14576637 0.04633088 4.29162645 0.0625 6.4375 C0.07410156 7.63246094 0.08570312 8.82742187 0.09765625 10.05859375 C0 13 0 13 -1 14 C-3.01964199 14.07244053 -5.04167124 14.08377188 -7.0625 14.0625 C-8.16722656 14.05347656 -9.27195312 14.04445313 -10.41015625 14.03515625 C-11.69212891 14.01775391 -11.69212891 14.01775391 -13 14 C-13.125 9.25 -13.125 9.25 -12 7 C-11.236875 6.71125 -10.47375 6.4225 -9.6875 6.125 C-6.69556842 4.87256353 -5.19447197 3.34581486 -3 1 C-1 0 -1 0 0 0 Z " fill="#39D8D8" transform="translate(123,100)"/>
<path d="M0 0 C1.79244141 0.01740234 1.79244141 0.01740234 3.62109375 0.03515625 C5.41740234 0.04869141 5.41740234 0.04869141 7.25 0.0625 C8.17683594 0.07410156 9.10367188 0.08570312 10.05859375 0.09765625 C10.05859375 0.75765625 10.05859375 1.41765625 10.05859375 2.09765625 C9.39859375 2.09765625 8.73859375 2.09765625 8.05859375 2.09765625 C7.06859375 3.58265625 7.06859375 3.58265625 6.05859375 5.09765625 C3.62109375 5.72265625 3.62109375 5.72265625 1.05859375 6.09765625 C0.06859375 6.42765625 -0.92140625 6.75765625 -1.94140625 7.09765625 C-1.61140625 8.08765625 -1.28140625 9.07765625 -0.94140625 10.09765625 C1.56306891 11.31635554 1.56306891 11.31635554 4.05859375 12.09765625 C4.05859375 12.75765625 4.05859375 13.41765625 4.05859375 14.09765625 C5.04859375 13.76765625 6.03859375 13.43765625 7.05859375 13.09765625 C6.72859375 14.08765625 6.39859375 15.07765625 6.05859375 16.09765625 C2.75859375 16.09765625 -0.54140625 16.09765625 -3.94140625 16.09765625 C-3.9682572 13.61841824 -3.98817172 11.13946785 -4.00390625 8.66015625 C-4.01647461 7.59958008 -4.01647461 7.59958008 -4.02929688 6.51757812 C-4.03794213 4.71072066 -3.99360636 2.90378022 -3.94140625 1.09765625 C-2.94140625 0.09765625 -2.94140625 0.09765625 0 0 Z " fill="#3FA1E7" transform="translate(36.94140625,85.90234375)"/>
<path d="M0 0 C2.875 1 2.875 1 4.25 3.0625 C4.45625 3.701875 4.6625 4.34125 4.875 5 C6.525 5 8.175 5 9.875 5 C9.875 5.99 9.875 6.98 9.875 8 C2.615 8 -4.645 8 -12.125 8 C-11.795 7.01 -11.465 6.02 -11.125 5 C-10.526875 4.855625 -9.92875 4.71125 -9.3125 4.5625 C-6.9166207 4.1646438 -6.9166207 4.1646438 -5.25 1.875 C-3.125 0 -3.125 0 0 0 Z " fill="#F8FDFD" transform="translate(123.125,38)"/>
<path d="M0 0 C1.0528418 0.07831055 1.0528418 0.07831055 2.12695312 0.15820312 C3.85588054 0.28757865 5.58425355 0.42432531 7.3125 0.5625 C7.6425 1.5525 7.9725 2.5425 8.3125 3.5625 C15.2425 3.8925 22.1725 4.2225 29.3125 4.5625 C29.3125 4.8925 29.3125 5.2225 29.3125 5.5625 C25.42050178 5.58764961 21.5285365 5.60556705 17.63647461 5.61743164 C15.67885673 5.62479736 13.72126129 5.63751826 11.76367188 5.65039062 C3.56299686 5.67125748 -4.52242363 5.32946206 -12.6875 4.5625 C-11.875 2.625 -11.875 2.625 -10.6875 0.5625 C-6.99441024 -0.66852992 -3.80699288 -0.30925152 0 0 Z " fill="#3EB5DE" transform="translate(66.6875,57.4375)"/>
<path d="M0 0 C0.02688151 1.64574566 0.04634123 3.29161413 0.0625 4.9375 C0.07410156 5.85402344 0.08570313 6.77054687 0.09765625 7.71484375 C0 10 0 10 -1 11 C-3.01964199 11.07244053 -5.04167124 11.08377188 -7.0625 11.0625 C-8.71958984 11.04896484 -8.71958984 11.04896484 -10.41015625 11.03515625 C-11.26480469 11.02355469 -12.11945312 11.01195313 -13 11 C-13.79953138 7.71303767 -14.09658936 6.28976808 -13 3 C-12.01 3 -11.02 3 -10 3 C-9.67 3.66 -9.34 4.32 -9 5 C-8.43410156 4.6390625 -7.86820313 4.278125 -7.28515625 3.90625 C-6.55167969 3.4421875 -5.81820312 2.978125 -5.0625 2.5 C-4.33160156 2.0359375 -3.60070312 1.571875 -2.84765625 1.09375 C-1 0 -1 0 0 0 Z " fill="#35DAC4" transform="translate(60,94)"/>
<path d="M0 0 C5.61 0 11.22 0 17 0 C17 1.98 17 3.96 17 6 C11.39 6 5.78 6 0 6 C0 4.02 0 2.04 0 0 Z " fill="#3E4892" transform="translate(15,34)"/>
<path d="M0 0 C1.65322266 0.01740234 1.65322266 0.01740234 3.33984375 0.03515625 C4.99693359 0.04869141 4.99693359 0.04869141 6.6875 0.0625 C7.54214844 0.07410156 8.39679687 0.08570313 9.27734375 0.09765625 C9.27734375 1.41765625 9.27734375 2.73765625 9.27734375 4.09765625 C7.95734375 4.09765625 6.63734375 4.09765625 5.27734375 4.09765625 C5.27734375 4.75765625 5.27734375 5.41765625 5.27734375 6.09765625 C3.95734375 6.42765625 2.63734375 6.75765625 1.27734375 7.09765625 C1.27734375 8.74765625 1.27734375 10.39765625 1.27734375 12.09765625 C0.61734375 12.09765625 -0.04265625 12.09765625 -0.72265625 12.09765625 C-1.05265625 12.75765625 -1.38265625 13.41765625 -1.72265625 14.09765625 C-2.38265625 14.09765625 -3.04265625 14.09765625 -3.72265625 14.09765625 C-3.74951563 11.95188988 -3.76898713 9.8060298 -3.78515625 7.66015625 C-3.79675781 6.46519531 -3.80835938 5.27023438 -3.8203125 4.0390625 C-3.69060839 0.13237476 -3.69060839 0.13237476 0 0 Z " fill="#30C5DF" transform="translate(16.72265625,58.90234375)"/>
<path d="M0 0 C1.32 0 2.64 0 4 0 C4 5.28 4 10.56 4 16 C4.99 16 5.98 16 7 16 C7 17.65 7 19.3 7 21 C4.69 21 2.38 21 0 21 C0 14.07 0 7.14 0 0 Z " fill="#41428D" transform="translate(26,81)"/>
<path d="M0 0 C0.33 0 0.66 0 1 0 C1 3.96 1 7.92 1 12 C-3.62 12 -8.24 12 -13 12 C-12.67 11.01 -12.34 10.02 -12 9 C-9.9375 8.3125 -9.9375 8.3125 -8 8 C-8 7.34 -8 6.68 -8 6 C-6.68 5.34 -5.36 4.68 -4 4 C-6.64 3.67 -9.28 3.34 -12 3 C-12 2.67 -12 2.34 -12 2 C-11.21753906 1.93941406 -10.43507813 1.87882812 -9.62890625 1.81640625 C-8.61699219 1.73261719 -7.60507813 1.64882812 -6.5625 1.5625 C-5.55316406 1.48128906 -4.54382813 1.40007812 -3.50390625 1.31640625 C-1.06359221 1.26788532 -1.06359221 1.26788532 0 0 Z " fill="#7790FB" transform="translate(114,71)"/>
<path d="M0 0 C5.94 0 11.88 0 18 0 C18.66 1.32 19.32 2.64 20 4 C17.703463 5.1482685 16.41686833 5.11561175 13.8671875 5.09765625 C13.06152344 5.09443359 12.25585938 5.09121094 11.42578125 5.08789062 C10.58402344 5.07951172 9.74226563 5.07113281 8.875 5.0625 C8.02550781 5.05798828 7.17601563 5.05347656 6.30078125 5.04882812 C4.20049091 5.03702874 2.1002367 5.01909306 0 5 C0 3.35 0 1.7 0 0 Z " fill="#34AEC6" transform="translate(98,49)"/>
<path d="M0 0 C0.33 0 0.66 0 1 0 C1.33 2.64 1.66 5.28 2 8 C4.97 8.33 7.94 8.66 11 9 C9.68 9.33 8.36 9.66 7 10 C7.66 10.33 8.32 10.66 9 11 C8.67 11.99 8.34 12.98 8 14 C7.34 14 6.68 14 6 14 C6 14.99 6 15.98 6 17 C3.66666667 17 1.33333333 17 -1 17 C-1.33 17.66 -1.66 18.32 -2 19 C-2.05451714 16.95863605 -2.09302485 14.91684144 -2.125 12.875 C-2.14820312 11.73804687 -2.17140625 10.60109375 -2.1953125 9.4296875 C-1.99672109 5.94242233 -1.2524801 3.2446138 0 0 Z " fill="#6B70FE" transform="translate(104,105)"/>
<path d="M0 0 C1.08667969 0.02707031 2.17335938 0.05414063 3.29296875 0.08203125 C4.54013672 0.13423828 4.54013672 0.13423828 5.8125 0.1875 C5.8125 1.8375 5.8125 3.4875 5.8125 5.1875 C2.1825 5.1875 -1.4475 5.1875 -5.1875 5.1875 C-5.1875 6.8375 -5.1875 8.4875 -5.1875 10.1875 C-6.5075 10.1875 -7.8275 10.1875 -9.1875 10.1875 C-9.55218886 3.74466353 -9.55218886 3.74466353 -8.0625 1.46875 C-5.3504604 -0.38447706 -3.24426436 -0.10465369 0 0 Z " fill="#3C3D89" transform="translate(35.1875,48.8125)"/>
<path d="M0 0 C13.53 0 27.06 0 41 0 C41.495 0.99 41.495 0.99 42 2 C28.8 2 15.6 2 2 2 C2 2.66 2 3.32 2 4 C1.01 4 0.02 4 -1 4 C-0.67 2.68 -0.34 1.36 0 0 Z " fill="#33CFD5" transform="translate(42,45)"/>
<path d="M0 0 C1.93166016 0.01740234 1.93166016 0.01740234 3.90234375 0.03515625 C5.19269531 0.04417969 6.48304687 0.05320312 7.8125 0.0625 C8.81152344 0.07410156 9.81054688 0.08570312 10.83984375 0.09765625 C9.90011719 0.78794922 9.90011719 0.78794922 8.94140625 1.4921875 C6.8353093 3.01718874 6.8353093 3.01718874 5.21484375 4.78515625 C3.83984375 6.09765625 3.83984375 6.09765625 1.83984375 6.09765625 C1.83984375 6.75765625 1.83984375 7.41765625 1.83984375 8.09765625 C-0.05958703 10.18703011 -1.62456512 11.82986068 -4.16015625 13.09765625 C-4.18702178 11.11856227 -4.20649 9.13936654 -4.22265625 7.16015625 C-4.23425781 6.05800781 -4.24585937 4.95585938 -4.2578125 3.8203125 C-4.11749553 -0.09172464 -3.97435676 0.12281696 0 0 Z " fill="#40C2EE" transform="translate(109.16015625,95.90234375)"/>
<path d="M0 0 C0.33 0.66 0.66 1.32 1 2 C10.57 2.33 20.14 2.66 30 3 C30 3.66 30 4.32 30 5 C18.12 5 6.24 5 -6 5 C-6 4.34 -6 3.68 -6 3 C-4.02 2.01 -2.04 1.02 0 0 Z " fill="#92BBFE" transform="translate(64,116)"/>
<path d="M0 0 C1.32 0 2.64 0 4 0 C4 6.6 4 13.2 4 20 C2.68 19.67 1.36 19.34 0 19 C0 12.73 0 6.46 0 0 Z " fill="#3E3E8B" transform="translate(115,63)"/>
<path d="M0 0 C0.66 0 1.32 0 2 0 C1.69128878 1.79232337 1.37790936 3.58384321 1.0625 5.375 C0.88847656 6.37273437 0.71445312 7.37046875 0.53515625 8.3984375 C0 11 0 11 -1 13 C0.32 13.33 1.64 13.66 3 14 C2.01 14 1.02 14 0 14 C0 14.66 0 15.32 0 16 C-4.29 16 -8.58 16 -13 16 C-13.33 15.01 -13.66 14.02 -14 13 C-10.7 12.67 -7.4 12.34 -4 12 C-3.79503906 11.21753906 -3.59007812 10.43507813 -3.37890625 9.62890625 C-3.10949219 8.61699219 -2.84007812 7.60507813 -2.5625 6.5625 C-2.29566406 5.55316406 -2.02882813 4.54382813 -1.75390625 3.50390625 C-1 1 -1 1 0 0 Z " fill="#50CFDA" transform="translate(47,89)"/>
<path d="M0 0 C1.67542976 0.28604898 3.34385343 0.61781233 5 1 C5.97477898 4.72188336 6.12816587 6.64248468 4.8125 10.3125 C3 13 3 13 0.88671875 13.66796875 C0.26410156 13.77753906 -0.35851562 13.88710938 -1 14 C-1.02685938 11.85423363 -1.04633088 9.70837355 -1.0625 7.5625 C-1.07410156 6.36753906 -1.08570312 5.17257813 -1.09765625 3.94140625 C-1 1 -1 1 0 0 Z " fill="#32C7DF" transform="translate(106,33)"/>
<path d="M0 0 C8.58 0 17.16 0 26 0 C25.67 0.99 25.34 1.98 25 3 C17.08 3 9.16 3 1 3 C0.67 2.01 0.34 1.02 0 0 Z " fill="#4C4CA0" transform="translate(101,124)"/>
<path d="M0 0 C6.35051546 -0.36637589 6.35051546 -0.36637589 9.4375 1.375 C11 3 11 3 11 5 C10.01 5.33 9.02 5.66 8 6 C7.67 6.66 7.34 7.32 7 8 C6.01 8 5.02 8 4 8 C3.34 8.66 2.68 9.32 2 10 C1.34 10 0.68 10 0 10 C0 6.7 0 3.4 0 0 Z " fill="#5A38FF" transform="translate(102,86)"/>
<path d="M0 0 C0.4125 0.474375 0.825 0.94875 1.25 1.4375 C3.182185 3.16266518 4.48192275 3.56584875 7 4 C7 4.66 7 5.32 7 6 C7.99 6.33 8.98 6.66 10 7 C9.67 7.99 9.34 8.98 9 10 C5.37 10 1.74 10 -2 10 C-2 7.69 -2 5.38 -2 3 C-1.34 3 -0.68 3 0 3 C0 2.01 0 1.02 0 0 Z " fill="#34CFD5" transform="translate(15,70)"/>
<path d="M0 0 C3.96 0 7.92 0 12 0 C10.515 1.485 10.515 1.485 9 3 C8.566875 4.175625 8.13375 5.35125 7.6875 6.5625 C6 10 6 10 2.8125 11.4375 C1.884375 11.623125 0.95625 11.80875 0 12 C0.08378906 11.38511719 0.16757813 10.77023438 0.25390625 10.13671875 C0.35574219 9.32847656 0.45757812 8.52023438 0.5625 7.6875 C0.66691406 6.88699219 0.77132812 6.08648437 0.87890625 5.26171875 C1.14755178 2.83182884 1.14755178 2.83182884 0 0 Z " fill="#70D5E3" transform="translate(110,33)"/>
<path d="M0 0 C0.99 0 1.98 0 3 0 C3.05394705 2.60444348 3.09364469 5.20776998 3.125 7.8125 C3.14175781 8.55048828 3.15851563 9.28847656 3.17578125 10.04882812 C3.21074628 13.91246426 3.19397555 15.70903668 1 19 C0.34 19 -0.32 19 -1 19 C-1.02683987 16.02077407 -1.04676037 13.04178705 -1.0625 10.0625 C-1.07087891 9.21236328 -1.07925781 8.36222656 -1.08789062 7.48632812 C-1.09111328 6.67744141 -1.09433594 5.86855469 -1.09765625 5.03515625 C-1.10289307 4.2862915 -1.10812988 3.53742676 -1.11352539 2.76586914 C-1 1 -1 1 0 0 Z " fill="#7080FE" transform="translate(124,95)"/>
<path d="M0 0 C2.64 0 5.28 0 8 0 C8 2.97 8 5.94 8 9 C6.35 9.33 4.7 9.66 3 10 C2.67 9.01 2.34 8.02 2 7 C1.34 7 0.68 7 0 7 C0 4.69 0 2.38 0 0 Z " fill="#3EBADC" transform="translate(26,59)"/>
<path d="M0 0 C4.95 0 9.9 0 15 0 C15.33 1.32 15.66 2.64 16 4 C10.06 4 4.12 4 -2 4 C-1.34 2.68 -0.68 1.36 0 0 Z " fill="#39C5D5" transform="translate(74,58)"/>
<path d="M0 0 C1.24716797 0.00322266 2.49433594 0.00644531 3.77929688 0.00976562 C5.07287109 0.01814453 6.36644531 0.02652344 7.69921875 0.03515625 C9.66858398 0.04192383 9.66858398 0.04192383 11.67773438 0.04882812 C14.91410885 0.06059676 18.15039053 0.07703865 21.38671875 0.09765625 C21.05671875 0.75765625 20.72671875 1.41765625 20.38671875 2.09765625 C19.73074707 2.11747559 19.07477539 2.13729492 18.39892578 2.15771484 C15.43610806 2.25278132 12.47401343 2.36253377 9.51171875 2.47265625 C7.96291016 2.5190625 7.96291016 2.5190625 6.3828125 2.56640625 C4.90361328 2.62441406 4.90361328 2.62441406 3.39453125 2.68359375 C2.4833252 2.71501465 1.57211914 2.74643555 0.63330078 2.77880859 C-1.81259311 2.89648136 -1.81259311 2.89648136 -3.61328125 5.09765625 C-6.34197532 5.06478042 -8.90994305 4.53367854 -11.61328125 4.09765625 C-11.61328125 3.10765625 -11.61328125 2.11765625 -11.61328125 1.09765625 C-7.68039761 0.16677716 -4.03673962 -0.0184326 0 0 Z " fill="#D9D9E8" transform="translate(106.61328125,125.90234375)"/>
<path d="M0 0 C0.66 0 1.32 0 2 0 C2 2.31 2 4.62 2 7 C-1.28519475 8.09506492 -3.73663415 8.09960608 -7.1875 8.0625 C-8.81751953 8.04896484 -8.81751953 8.04896484 -10.48046875 8.03515625 C-11.31191406 8.02355469 -12.14335938 8.01195313 -13 8 C-12.34 7.01 -11.68 6.02 -11 5 C-10.01 5 -9.02 5 -8 5 C-7.67 4.34 -7.34 3.68 -7 3 C-4.69 3 -2.38 3 0 3 C0 2.01 0 1.02 0 0 Z " fill="#665EFF" transform="translate(125,88)"/>
<path d="M0 0 C0.99 0.33 1.98 0.66 3 1 C3.02689216 2.47906892 3.04634621 3.95827483 3.0625 5.4375 C3.07410156 6.26121094 3.08570312 7.08492188 3.09765625 7.93359375 C3 10 3 10 2 11 C-0.67058851 11.14115161 -3.32432238 11.04247107 -6 11 C-5.34 9.02 -4.68 7.04 -4 5 C-2.35 4.67 -0.7 4.34 1 4 C0.67 2.68 0.34 1.36 0 0 Z " fill="#36DCC8" transform="translate(120,103)"/>
<path d="M0 0 C1.65 0 3.3 0 5 0 C5.02687279 1.81242052 5.04633715 3.62495233 5.0625 5.4375 C5.07410156 6.44683594 5.08570313 7.45617188 5.09765625 8.49609375 C5 11 5 11 4 12 C2.31391034 12.07205511 0.62499341 12.08386068 -1.0625 12.0625 C-1.98160156 12.05347656 -2.90070312 12.04445313 -3.84765625 12.03515625 C-4.55792969 12.02355469 -5.26820312 12.01195312 -6 12 C-5 10 -5 10 -3 8 C0.125 7.875 0.125 7.875 3 8 C3 6.02 3 4.04 3 2 C2.01 1.67 1.02 1.34 0 1 C0 0.67 0 0.34 0 0 Z " fill="#35D6CE" transform="translate(29,32)"/>
<path d="M0 0 C0.99 0.33 1.98 0.66 3 1 C3 2.32 3 3.64 3 5 C0.03 6.65 -2.94 8.3 -6 10 C-6 9.01 -6 8.02 -6 7 C-5.34 7 -4.68 7 -4 7 C-4.66 6.01 -5.32 5.02 -6 4 C-5.67 3.01 -5.34 2.02 -5 1 C-4.01 1.33 -3.02 1.66 -2 2 C-1.34 1.34 -0.68 0.68 0 0 Z " fill="#41CFD3" transform="translate(56,90)"/>
<path d="M0 0 C0.99 0 1.98 0 3 0 C3 4.29 3 8.58 3 13 C5.31 13 7.62 13 10 13 C10 13.33 10 13.66 10 14 C3.9453125 14.1953125 3.9453125 14.1953125 2 14 C0 12 0 12 -0.1953125 9.1796875 C-0.17210937 8.08914062 -0.14890625 6.99859375 -0.125 5.875 C-0.10695312 4.77929688 -0.08890625 3.68359375 -0.0703125 2.5546875 C-0.04710937 1.71164063 -0.02390625 0.86859375 0 0 Z " fill="#3E92DD" transform="translate(41,49)"/>
<path d="M0 0 C0.99 0 1.98 0 3 0 C3.33 0.66 3.66 1.32 4 2 C4.66 1.34 5.32 0.68 6 0 C8.125 0.375 8.125 0.375 10 1 C7 3 7 3 5 3 C5 4.65 5 6.3 5 8 C3.35 8 1.7 8 0 8 C-0.79953138 4.71303767 -1.09658936 3.28976808 0 0 Z " fill="#3FD9C9" transform="translate(47,97)"/>
<path d="M0 0 C5.75 -0.125 5.75 -0.125 8 1 C8 1.66 8 2.32 8 3 C8.99 2.67 9.98 2.34 11 2 C10.67 2.99 10.34 3.98 10 5 C6.7 5 3.4 5 0 5 C0 3.35 0 1.7 0 0 Z " fill="#35ACC6" transform="translate(33,97)"/>
<path d="M0 0 C3.3 0 6.6 0 10 0 C9 2 9 2 7.0625 2.875 C4.5484857 4.24628053 4.2174555 5.4839253 3 8 C2.01 8.33 1.02 8.66 0 9 C0 6.03 0 3.06 0 0 Z " fill="#3DBBDD" transform="translate(105,54)"/>
<path d="M0 0 C1.1446875 0.3403125 1.1446875 0.3403125 2.3125 0.6875 C2.3125 1.6775 2.3125 2.6675 2.3125 3.6875 C1.6525 3.6875 0.9925 3.6875 0.3125 3.6875 C0.6425 5.3375 0.9725 6.9875 1.3125 8.6875 C-0.9975 8.0275 -3.3075 7.3675 -5.6875 6.6875 C-5.6875 2.6875 -5.6875 2.6875 -4.5 0.875 C-2.6875 -0.3125 -2.6875 -0.3125 0 0 Z " fill="#86CCED" transform="translate(40.6875,90.3125)"/>
<path d="M0 0 C3.3 0 6.6 0 10 0 C10 1.32 10 2.64 10 4 C8.68 4 7.36 4 6 4 C6 4.66 6 5.32 6 6 C4.68 6 3.36 6 2 6 C1.34 4.02 0.68 2.04 0 0 Z " fill="#36CBDA" transform="translate(16,59)"/>
<path d="M0 0 C0 1.32 0 2.64 0 4 C-3.63 4 -7.26 4 -11 4 C-8.07259277 -1.85481447 -5.89962965 -1.17992593 0 0 Z " fill="#3AABE1" transform="translate(65,58)"/>
<path d="M0 0 C1.37478516 0.01740234 1.37478516 0.01740234 2.77734375 0.03515625 C3.69644531 0.04417969 4.61554688 0.05320312 5.5625 0.0625 C6.27277344 0.07410156 6.98304687 0.08570312 7.71484375 0.09765625 C4.71484375 2.09765625 4.71484375 2.09765625 1.71484375 2.09765625 C1.71484375 2.75765625 1.71484375 3.41765625 1.71484375 4.09765625 C0.04817708 5.76432292 -1.61848958 7.43098958 -3.28515625 9.09765625 C-3.3828125 2.9453125 -3.3828125 2.9453125 -3.28515625 1.09765625 C-2.28515625 0.09765625 -2.28515625 0.09765625 0 0 Z " fill="#45B4F5" transform="translate(108.28515625,95.90234375)"/>
<path d="M0 0 C0.66 0.33 1.32 0.66 2 1 C1.93999894 2.6260287 1.8512115 4.25101549 1.75 5.875 C1.70359375 6.77992187 1.6571875 7.68484375 1.609375 8.6171875 C1 11 1 11 -1.046875 12.3203125 C-1.69140625 12.54460937 -2.3359375 12.76890625 -3 13 C-3 11.02 -3 9.04 -3 7 C-2.34 7 -1.68 7 -1 7 C-0.67 4.69 -0.34 2.38 0 0 Z " fill="#48B8DF" transform="translate(44,87)"/>
<path d="M0 0 C0.928125 0.2784375 0.928125 0.2784375 1.875 0.5625 C4.04160178 1.23686176 4.04160178 1.23686176 6 0 C6.042721 1.66611905 6.04063832 3.33382885 6 5 C5 6 5 6 1.4375 6.0625 C0.303125 6.041875 -0.83125 6.02125 -2 6 C-1.49396008 3.83125748 -1.00016187 2.00032373 0 0 Z " fill="#36C7C4" transform="translate(28,75)"/>
<path d="M0 0 C0 1.65 0 3.3 0 5 C-0.99 5 -1.98 5 -3 5 C-4.67099977 5.31088368 -6.33871537 5.64080332 -8 6 C-8 4.68 -8 3.36 -8 2 C-4.91190305 0.23537317 -3.76687864 0 0 0 Z " fill="#3AC3D7" transform="translate(60,87)"/>
<path d="M0 0 C2.31 0 4.62 0 7 0 C7 1.65 7 3.3 7 5 C4.69 5 2.38 5 0 5 C0 3.35 0 1.7 0 0 Z " fill="#3C3E8A" transform="translate(98,49)"/>
<path d="M0 0 C4.62 0 9.24 0 14 0 C14.33 1.32 14.66 2.64 15 4 C14.01 4 13.02 4 12 4 C12 3.34 12 2.68 12 2 C8.37 2 4.74 2 1 2 C0.67 1.34 0.34 0.68 0 0 Z " fill="#58DAD4" transform="translate(83,45)"/>
<path d="M0 0 C0.66 0 1.32 0 2 0 C1.69128878 1.79232337 1.37790936 3.58384321 1.0625 5.375 C0.88847656 6.37273437 0.71445312 7.37046875 0.53515625 8.3984375 C0 11 0 11 -1 13 C-1.66 13 -2.32 13 -3 13 C-2.52060632 8.28596212 -2.03165952 4.33420699 0 0 Z " fill="#D5F1F6" transform="translate(47,89)"/>
<path d="M0 0 C1.95803507 -0.05389087 3.91648909 -0.09274217 5.875 -0.125 C7.51082031 -0.15980469 7.51082031 -0.15980469 9.1796875 -0.1953125 C12 0 12 0 14 2 C10.04 2 6.08 2 2 2 C2 2.66 2 3.32 2 4 C1.01 4 0.02 4 -1 4 C-0.67 2.68 -0.34 1.36 0 0 Z " fill="#31C4DE" transform="translate(42,45)"/>
<path d="M0 0 C0.66 1.32 1.32 2.64 2 4 C2.99 3.67 3.98 3.34 5 3 C5.33 3.99 5.66 4.98 6 6 C4.59554165 8.2636564 2.8032087 10.0208685 1 12 C0.67 11.34 0.34 10.68 0 10 C-0.66 9.67 -1.32 9.34 -2 9 C-1.01 8.34 -0.02 7.68 1 7 C0.67 6.67 0.34 6.34 0 6 C-0.04080783 4.00041636 -0.04254356 1.99954746 0 0 Z " fill="#4FD9D4" transform="translate(121,48)"/>
<path d="M0 0 C0.99 0 1.98 0 3 0 C3 2.31 3 4.62 3 7 C1.02 7.99 1.02 7.99 -1 9 C-1.09765625 2.84765625 -1.09765625 2.84765625 -1 1 C-0.67 0.67 -0.34 0.34 0 0 Z " fill="#6C70FE" transform="translate(124,95)"/>
<path d="M0 0 C1.67542976 0.28604898 3.34385343 0.61781233 5 1 C4.67 2.32 4.34 3.64 4 5 C2.68 5.33 1.36 5.66 0 6 C-0.38218767 4.34385343 -0.71395102 2.67542976 -1 1 C-0.67 0.67 -0.34 0.34 0 0 Z " fill="#49CFDB" transform="translate(22,67)"/>
<path d="M0 0 C1.23556641 0.01740234 1.23556641 0.01740234 2.49609375 0.03515625 C3.32238281 0.04417969 4.14867187 0.05320312 5 0.0625 C5.63808594 0.07410156 6.27617188 0.08570312 6.93359375 0.09765625 C6.93359375 0.75765625 6.93359375 1.41765625 6.93359375 2.09765625 C5.61359375 2.09765625 4.29359375 2.09765625 2.93359375 2.09765625 C2.60359375 2.75765625 2.27359375 3.41765625 1.93359375 4.09765625 C0.61359375 3.76765625 -0.70640625 3.43765625 -2.06640625 3.09765625 C-2.06640625 4.74765625 -2.06640625 6.39765625 -2.06640625 8.09765625 C-2.39640625 8.09765625 -2.72640625 8.09765625 -3.06640625 8.09765625 C-3.10882348 5.7647085 -3.10733562 3.43063058 -3.06640625 1.09765625 C-2.06640625 0.09765625 -2.06640625 0.09765625 0 0 Z " fill="#4795EB" transform="translate(36.06640625,85.90234375)"/>
<path d="M0 0 C0.556875 0.7115625 0.556875 0.7115625 1.125 1.4375 C3.62646962 3.52205802 5.81593418 3.64621491 9 4 C7.6875 5.5 7.6875 5.5 6 7 C5.01 7 4.02 7 3 7 C3 6.34 3 5.68 3 5 C1.35 4.67 -0.3 4.34 -2 4 C-2 3.34 -2 2.68 -2 2 C-1.34 2 -0.68 2 0 2 C0 1.34 0 0.68 0 0 Z " fill="#F6FCFD" transform="translate(19,69)"/>
<path d="M0 0 C1.32 0 2.64 0 4 0 C4 1.98 4 3.96 4 6 C2.68 6.33 1.36 6.66 0 7 C0 4.69 0 2.38 0 0 Z " fill="#3AB0C7" transform="translate(26,59)"/>
<path d="M0 0 C0.66 0 1.32 0 2 0 C2 1.98 2 3.96 2 6 C2.66 6.33 3.32 6.66 4 7 C2.02 7.99 2.02 7.99 0 9 C-0.66 8.01 -1.32 7.02 -2 6 C-1.125 2.8125 -1.125 2.8125 0 0 Z " fill="#F9FDFE" transform="translate(119,48)"/>
<path d="M0 0 C0.99 0.33 1.98 0.66 3 1 C3.6875 3.0625 3.6875 3.0625 4 5 C1.69 5 -0.62 5 -3 5 C-1.125 1.125 -1.125 1.125 0 0 Z " fill="#BCD6FE" transform="translate(82,113)"/>
<path d="M0 0 C2.33944736 0.28730055 4.6739143 0.61936779 7 1 C6.01 1.66 5.02 2.32 4 3 C3.01 4.485 3.01 4.485 2 6 C1.34 6 0.68 6 0 6 C-0.38218767 4.34385343 -0.71395102 2.67542976 -1 1 C-0.67 0.67 -0.34 0.34 0 0 Z " fill="#DAF2F8" transform="translate(18,65)"/>
<path d="M0 0 C0.33 0 0.66 0 1 0 C1.08131463 1.43655854 1.13933559 2.8744483 1.1875 4.3125 C1.23970703 5.51326172 1.23970703 5.51326172 1.29296875 6.73828125 C0.93801608 9.47851584 0.10633718 10.29171079 -2 12 C-1.85831863 10.56208484 -1.71148957 9.1246763 -1.5625 7.6875 C-1.48128906 6.88699219 -1.40007812 6.08648437 -1.31640625 5.26171875 C-1 3 -1 3 0 0 Z " fill="#655DFF" transform="translate(104,105)"/>
<path d="M0 0 C2.31 0.33 4.62 0.66 7 1 C6.01 1.33 5.02 1.66 4 2 C4 2.66 4 3.32 4 4 C1.69 4 -0.62 4 -3 4 C-2.34 3.67 -1.68 3.34 -1 3 C-0.67 2.01 -0.34 1.02 0 0 Z " fill="#48D7D1" transform="translate(43,101)"/>
<path d="M0 0 C1.65 1.65 3.3 3.3 5 5 C3.35 6.32 1.7 7.64 0 9 C0 8.01 0 7.02 0 6 C0.66 6 1.32 6 2 6 C1.34 5.01 0.68 4.02 0 3 C0 2.01 0 1.02 0 0 Z " fill="#DDF4F7" transform="translate(50,91)"/>
<path d="M0 0 C0 1.98 0 3.96 0 6 C-1.32 6 -2.64 6 -4 6 C-4 4.35 -4 2.7 -4 1 C-1 0 -1 0 0 0 Z " fill="#34C5C4" transform="translate(119,57)"/>
<path d="M0 0 C0.99 0 1.98 0 3 0 C3.33 1.65 3.66 3.3 4 5 C2.35 5 0.7 5 -1 5 C-0.67 3.35 -0.34 1.7 0 0 Z " fill="#35C1C5" transform="translate(47,97)"/>
<path d="M0 0 C0.33 0.66 0.66 1.32 1 2 C1.99 2.33 2.98 2.66 4 3 C3.67 3.99 3.34 4.98 3 6 C1.68 5.67 0.36 5.34 -1 5 C-0.67 3.35 -0.34 1.7 0 0 Z " fill="#55DAD6" transform="translate(21,74)"/>
</svg>
