<?xml version="1.0" encoding="UTF-8"?>
<svg version="1.1" xmlns="http://www.w3.org/2000/svg" width="150" height="150">
<path d="M0 0 C4.95 0.495 4.95 0.495 10 1 C9.67 2.98 9.34 4.96 9 7 C13.12168689 8.62950412 15.70700357 9.26264601 20 8 C23 12.75 23 12.75 23 15 C23.85464844 14.98839844 24.70929688 14.97679687 25.58984375 14.96484375 C26.69457031 14.95582031 27.79929687 14.94679688 28.9375 14.9375 C30.03964844 14.92589844 31.14179688 14.91429687 32.27734375 14.90234375 C35 15 35 15 36 16 C36.15806531 17.92478813 36.251135 19.8549921 36.31640625 21.78515625 C36.37924805 23.53989258 36.37924805 23.53989258 36.44335938 25.33007812 C36.48267578 26.56177734 36.52199219 27.79347656 36.5625 29.0625 C36.60568359 30.29806641 36.64886719 31.53363281 36.69335938 32.80664062 C36.79984198 35.87097335 36.90185424 38.93539073 37 42 C38.65 42 40.3 42 42 42 C43.125 44.25 43.125 44.25 44 47 C43.34964186 48.34136367 42.6837045 49.67532254 42 51 C42.78309467 53.23470405 42.78309467 53.23470405 44 55 C43.34 55.99 42.68 56.98 42 58 C40.68 57.67 39.36 57.34 38 57 C37.34 58.32 36.68 59.64 36 61 C34.02 61 32.04 61 30 61 C29.773125 60.360625 29.54625 59.72125 29.3125 59.0625 C28.14749104 56.72806339 28.14749104 56.72806339 25.375 56.25 C24.59125 56.1675 23.8075 56.085 23 56 C22.505 54.02 22.505 54.02 22 52 C22.66 52 23.32 52 24 52 C23.39816251 49.97954558 22.72693904 47.97888961 22 46 C21.34 45.67 20.68 45.34 20 45 C20 51.6 20 58.2 20 65 C22.31 65 24.62 65 27 65 C28 66 28 66 28.11352539 69.96899414 C28.1133662 71.74105607 28.10766785 73.5131226 28.09765625 75.28515625 C28.0962413 76.21597519 28.09482635 77.14679413 28.09336853 78.1058197 C28.08775172 81.09141191 28.0751964 84.07693029 28.0625 87.0625 C28.05748716 89.08137913 28.05292388 91.10025943 28.04882812 93.11914062 C28.03777683 98.07945572 28.02050095 103.03971532 28 108 C30.31 108.66 32.62 109.32 35 110 C34 112 34 112 32.34521484 112.61450195 C27.49200924 113.41225457 22.54404055 113.18590312 17.63769531 113.18530273 C15.63863013 113.18748512 13.63960468 113.20599143 11.640625 113.22460938 C10.36960937 113.22654297 9.09859375 113.22847656 7.7890625 113.23046875 C6.63100098 113.23457764 5.47293945 113.23868652 4.27978516 113.24291992 C0.88689046 112.99162245 -1.83332989 112.21173908 -5 111 C-4.67 110.34 -4.34 109.68 -4 109 C-1.4375 108.375 -1.4375 108.375 1 108 C0.32142944 107.99191315 -0.35714111 107.98382629 -1.05627441 107.97549438 C-8.19572947 107.88863335 -15.33493245 107.7891071 -22.47412109 107.68261719 C-25.12938188 107.64363425 -27.7845665 107.60971702 -30.43994141 107.578125 C-68.93926359 107.11445232 -68.93926359 107.11445232 -76 103 C-75.67 102.34 -75.34 101.68 -75 101 C-74.01 101 -73.02 101 -72 101 C-72.83447997 98.74644234 -72.83447997 98.74644234 -75.375 98.1875 C-78.04092403 97.69997735 -78.04092403 97.69997735 -79.8125 99.4375 C-80.204375 99.953125 -80.59625 100.46875 -81 101 C-82.65 99.68 -84.3 98.36 -86 97 C-85.814375 96.236875 -85.62875 95.47375 -85.4375 94.6875 C-84.77180827 91.91032625 -84.77180827 91.91032625 -86 89 C-88.01508358 88.26676204 -88.01508358 88.26676204 -90 88 C-90 85.69 -90 83.38 -90 81 C-88.5459375 80.5978125 -88.5459375 80.5978125 -87.0625 80.1875 C-85.5465625 79.5996875 -85.5465625 79.5996875 -84 79 C-82.78918149 75.89459074 -82.78918149 75.89459074 -83 72 C-79.535 71.01 -79.535 71.01 -76 70 C-75.67 70.99 -75.34 71.98 -75 73 C-74.34 73.33 -73.68 73.66 -73 74 C-73 71.03 -73 68.06 -73 65 C-79.27 65 -85.54 65 -92 65 C-92 64.34 -92 63.68 -92 63 C-89.03 62.505 -89.03 62.505 -86 62 C-86 61.01 -86 60.02 -86 59 C-87.98 59 -89.96 59 -92 59 C-92 58.34 -92 57.68 -92 57 C-90.02 57 -88.04 57 -86 57 C-86 55.68 -86 54.36 -86 53 C-87.98 53 -89.96 53 -92 53 C-92 52.34 -92 51.68 -92 51 C-90.02 51 -88.04 51 -86 51 C-86 49.68 -86 48.36 -86 47 C-87.98 47 -89.96 47 -92 47 C-92 46.34 -92 45.68 -92 45 C-90.02 45 -88.04 45 -86 45 C-86 44.01 -86 43.02 -86 42 C-87.98 41.67 -89.96 41.34 -92 41 C-92 40.67 -92 40.34 -92 40 C-85.73 40 -79.46 40 -73 40 C-73 38.35 -73 36.7 -73 35 C-79.27 35 -85.54 35 -92 35 C-92 34.67 -92 34.34 -92 34 C-85.73 33.67 -79.46 33.34 -73 33 C-76.96 32.67 -80.92 32.34 -85 32 C-85.33 31.01 -85.66 30.02 -86 29 C-87.98 29 -89.96 29 -92 29 C-92 28.67 -92 28.34 -92 28 C-90.35 27.67 -88.7 27.34 -87 27 C-86.67 25.68 -86.34 24.36 -86 23 C-87.98 23 -89.96 23 -92 23 C-92 22.67 -92 22.34 -92 22 C-90.35 21.67 -88.7 21.34 -87 21 C-86.67 19.68 -86.34 18.36 -86 17 C-87.98 17 -89.96 17 -92 17 C-92 16.67 -92 16.34 -92 16 C-86.08218663 13.93810069 -80.79581786 13.75832162 -74.5625 13.875 C-73.64017578 13.88402344 -72.71785156 13.89304687 -71.76757812 13.90234375 C-69.51160502 13.92572171 -67.25576717 13.9615858 -65 14 C-65 19.61 -65 25.22 -65 31 C-62.69 31 -60.38 31 -58 31 C-57.67 29.68 -57.34 28.36 -57 27 C-43.47 27 -29.94 27 -16 27 C-16 26.34 -16 25.68 -16 25 C-15.34 24.566875 -14.68 24.13375 -14 23.6875 C-11.77068002 22.15980408 -11.77068002 22.15980408 -11.5 19.5625 C-12.13723312 16.29668024 -13.49855724 15.11059233 -16 13 C-14.35 10.69 -12.7 8.38 -11 6 C-10.113125 6.37125 -9.22625 6.7425 -8.3125 7.125 C-4.59173995 8.10784228 -3.32561865 7.76062164 0 6 C0 4.02 0 2.04 0 0 Z M-2.9375 14.0625 C-5.53327109 17.7595073 -5.71253588 19.56644342 -5 24 C-3.59121904 26.9901643 -3.59121904 26.9901643 -1 29 C2.64182335 29.89055736 2.64182335 29.89055736 6 30 C6.03738281 29.01257813 6.07476562 28.02515625 6.11328125 27.0078125 C6.17902344 25.72648437 6.24476562 24.44515625 6.3125 23.125 C6.37050781 21.84882812 6.42851563 20.57265625 6.48828125 19.2578125 C6.65714844 18.18273437 6.82601562 17.10765625 7 16 C7.99 15.34 8.98 14.68 10 14 C5.32834072 10.88556048 1.69263351 10.81155519 -2.9375 14.0625 Z M28 47 C27.6366844 49.83386167 27.6431329 51.40522151 29.125 53.875 C31.92151052 55.55290631 33.93690532 54.74875648 37 54 C37.67673447 50.59679066 37.67673447 50.59679066 38 47 C36.11499729 44.68436913 36.11499729 44.68436913 33 44.75 C29.88500271 44.68436913 29.88500271 44.68436913 28 47 Z M-79.25 80.625 C-81.21985834 82.92308586 -81.21985834 82.92308586 -81.5 86 C-81.21376982 89.06575838 -81.21376982 89.06575838 -79.3125 91.375 C-76.61209763 93.27258004 -75.22939919 93.35882213 -72 93 C-71.85024761 85.94348748 -71.85024761 85.94348748 -73 79 C-76.92212225 78.60967296 -76.92212225 78.60967296 -79.25 80.625 Z M-66 95 C-65.34 96.65 -64.68 98.3 -64 100 C-51.625 99.01 -51.625 99.01 -39 98 C-38.67 97.01 -38.34 96.02 -38 95 C-47.24 95 -56.48 95 -66 95 Z M-14 95 C-14 95.99 -14 96.98 -14 98 C-8.72 98.33 -3.44 98.66 2 99 C2 97.68 2 96.36 2 95 C-3.28 95 -8.56 95 -14 95 Z " fill="#7285FE" transform="translate(99,18)"/>
<path d="M0 0 C0.92232422 0.00902344 1.84464844 0.01804687 2.79492188 0.02734375 C5.05089498 0.05072171 7.30673283 0.0865858 9.5625 0.125 C9.5625 5.735 9.5625 11.345 9.5625 17.125 C12.8625 17.125 16.1625 17.125 19.5625 17.125 C19.5625 16.465 19.5625 15.805 19.5625 15.125 C36.3925 15.125 53.2225 15.125 70.5625 15.125 C70.5625 15.785 70.5625 16.445 70.5625 17.125 C71.18817871 17.10928955 71.81385742 17.0935791 72.45849609 17.07739258 C75.28473931 17.01515325 78.11083861 16.97604538 80.9375 16.9375 C81.92234375 16.91236328 82.9071875 16.88722656 83.921875 16.86132812 C85.33339844 16.84682617 85.33339844 16.84682617 86.7734375 16.83203125 C87.64274902 16.8163208 88.51206055 16.80061035 89.40771484 16.78442383 C90.11879395 16.89681396 90.82987305 17.0092041 91.5625 17.125 C92.5525 18.61 92.5525 18.61 93.5625 20.125 C92.9025 20.125 92.2425 20.125 91.5625 20.125 C92.0575 20.66125 92.5525 21.1975 93.0625 21.75 C94.94951339 24.7377712 94.87117281 26.65243085 94.5625 30.125 C93.5625 31.125 93.5625 31.125 90.62109375 31.22265625 C89.42613281 31.21105469 88.23117188 31.19945313 87 31.1875 C85.20369141 31.17396484 85.20369141 31.17396484 83.37109375 31.16015625 C82.44425781 31.14855469 81.51742187 31.13695313 80.5625 31.125 C80.5625 28.155 80.5625 25.185 80.5625 22.125 C78.2525 22.125 75.9425 22.125 73.5625 22.125 C73.5625 28.725 73.5625 35.325 73.5625 42.125 C67.5625 44.125 67.5625 44.125 65.5625 44.125 C65.2325 45.115 64.9025 46.105 64.5625 47.125 C62 48.3125 62 48.3125 59.5625 49.125 C60.0575 52.095 60.0575 52.095 60.5625 55.125 C59.9025 55.125 59.2425 55.125 58.5625 55.125 C58.0675 56.115 58.0675 56.115 57.5625 57.125 C56.0775 56.135 56.0775 56.135 54.5625 55.125 C53.40058052 56.23493195 53.40058052 56.23493195 52.0625 58.1875 C51.5675 58.826875 51.0725 59.46625 50.5625 60.125 C49.5625 60.125 48.5625 60.125 47.5625 60.125 C48.5525 62.105 48.5525 62.105 49.5625 64.125 C62.9275 64.62 62.9275 64.62 76.5625 65.125 C76.5625 66.775 76.5625 68.425 76.5625 70.125 C63.0325 70.125 49.5025 70.125 35.5625 70.125 C35.0675 71.61 35.0675 71.61 34.5625 73.125 C26.3125 73.125 18.0625 73.125 9.5625 73.125 C9.2325 72.135 8.9025 71.145 8.5625 70.125 C6.2525 70.125 3.9425 70.125 1.5625 70.125 C1.5625 63.855 1.5625 57.585 1.5625 51.125 C-4.7075 51.125 -10.9775 51.125 -17.4375 51.125 C-17.4375 50.465 -17.4375 49.805 -17.4375 49.125 C-14.4675 48.63 -14.4675 48.63 -11.4375 48.125 C-11.4375 47.135 -11.4375 46.145 -11.4375 45.125 C-13.4175 45.125 -15.3975 45.125 -17.4375 45.125 C-17.4375 44.465 -17.4375 43.805 -17.4375 43.125 C-15.4575 43.125 -13.4775 43.125 -11.4375 43.125 C-11.4375 41.805 -11.4375 40.485 -11.4375 39.125 C-13.4175 39.125 -15.3975 39.125 -17.4375 39.125 C-17.4375 38.465 -17.4375 37.805 -17.4375 37.125 C-15.4575 37.125 -13.4775 37.125 -11.4375 37.125 C-11.4375 35.805 -11.4375 34.485 -11.4375 33.125 C-13.4175 33.125 -15.3975 33.125 -17.4375 33.125 C-17.4375 32.465 -17.4375 31.805 -17.4375 31.125 C-15.4575 31.125 -13.4775 31.125 -11.4375 31.125 C-11.4375 30.135 -11.4375 29.145 -11.4375 28.125 C-13.4175 27.795 -15.3975 27.465 -17.4375 27.125 C-17.4375 26.795 -17.4375 26.465 -17.4375 26.125 C-11.1675 26.125 -4.8975 26.125 1.5625 26.125 C1.5625 24.475 1.5625 22.825 1.5625 21.125 C-4.7075 21.125 -10.9775 21.125 -17.4375 21.125 C-17.4375 20.795 -17.4375 20.465 -17.4375 20.125 C-11.1675 19.795 -4.8975 19.465 1.5625 19.125 C-2.3975 18.795 -6.3575 18.465 -10.4375 18.125 C-10.7675 17.135 -11.0975 16.145 -11.4375 15.125 C-13.4175 15.125 -15.3975 15.125 -17.4375 15.125 C-17.4375 14.795 -17.4375 14.465 -17.4375 14.125 C-15.7875 13.795 -14.1375 13.465 -12.4375 13.125 C-12.1075 11.805 -11.7775 10.485 -11.4375 9.125 C-13.4175 9.125 -15.3975 9.125 -17.4375 9.125 C-17.4375 8.795 -17.4375 8.465 -17.4375 8.125 C-15.7875 7.795 -14.1375 7.465 -12.4375 7.125 C-12.1075 5.805 -11.7775 4.485 -11.4375 3.125 C-13.4175 3.125 -15.3975 3.125 -17.4375 3.125 C-17.4375 2.795 -17.4375 2.465 -17.4375 2.125 C-11.51968663 0.06310069 -6.23331786 -0.11667838 0 0 Z " fill="#6C72FE" transform="translate(24.4375,31.875)"/>
<path d="M0 0 C0.33 0.99 0.66 1.98 1 3 C1.66 3.33 2.32 3.66 3 4 C3 5.65 3 7.3 3 9 C2.030625 9.28875 1.06125 9.5775 0.0625 9.875 C-3.10664203 10.64214682 -3.10664203 10.64214682 -4 13 C-4.0689472 14.37342831 -4.08467708 15.75002102 -4.0625 17.125 C-4.041875 18.40375 -4.02125 19.6825 -4 21 C-1.36 21.66 1.28 22.32 4 23 C4 20.03 4 17.06 4 14 C5.98 14 7.96 14 10 14 C10.33 14.66 10.66 15.32 11 16 C19.25 16 27.5 16 36 16 C36.33 15.34 36.66 14.68 37 14 C50.53 14 64.06 14 78 14 C78 17.63 78 21.26 78 25 C72.72 25 67.44 25 62 25 C62 25.99 62 26.98 62 28 C62.56847656 27.98839844 63.13695313 27.97679688 63.72265625 27.96484375 C68.60670484 27.90776806 73.18503965 28.18043228 78 29 C78 31.64 78 34.28 78 37 C70.71409984 37.04682155 63.42823335 37.08211748 56.14221191 37.10362434 C52.75718789 37.11395864 49.37226851 37.12792229 45.98730469 37.15087891 C7.5625541 37.39227608 7.5625541 37.39227608 0 33 C0.33 32.34 0.66 31.68 1 31 C1.99 31 2.98 31 4 31 C3.16552003 28.74644234 3.16552003 28.74644234 0.625 28.1875 C-2.04092403 27.69997735 -2.04092403 27.69997735 -3.8125 29.4375 C-4.204375 29.953125 -4.59625 30.46875 -5 31 C-6.65 29.68 -8.3 28.36 -10 27 C-9.7215625 25.8553125 -9.7215625 25.8553125 -9.4375 24.6875 C-8.77180827 21.91032625 -8.77180827 21.91032625 -10 19 C-12.01508358 18.26676204 -12.01508358 18.26676204 -14 18 C-14 15.69 -14 13.38 -14 11 C-13.030625 10.731875 -12.06125 10.46375 -11.0625 10.1875 C-10.051875 9.795625 -9.04125 9.40375 -8 9 C-6.78918149 5.89459074 -6.78918149 5.89459074 -7 2 C-2.25 0 -2.25 0 0 0 Z M10 25 C10.66 26.65 11.32 28.3 12 30 C24.375 29.01 24.375 29.01 37 28 C37.33 27.01 37.66 26.02 38 25 C28.76 25 19.52 25 10 25 Z " fill="#B2D0FE" transform="translate(23,88)"/>
<path d="M0 0 C4.95 0.495 4.95 0.495 10 1 C9.67 2.98 9.34 4.96 9 7 C13.12168689 8.62950412 15.70700357 9.26264601 20 8 C23 12.75 23 12.75 23 15 C23.85464844 14.98839844 24.70929688 14.97679687 25.58984375 14.96484375 C26.69457031 14.95582031 27.79929687 14.94679688 28.9375 14.9375 C30.03964844 14.92589844 31.14179688 14.91429687 32.27734375 14.90234375 C35 15 35 15 36 16 C36.15806531 17.92478813 36.251135 19.8549921 36.31640625 21.78515625 C36.35830078 22.95498047 36.40019531 24.12480469 36.44335938 25.33007812 C36.48267578 26.56177734 36.52199219 27.79347656 36.5625 29.0625 C36.60568359 30.29806641 36.64886719 31.53363281 36.69335938 32.80664062 C36.79984198 35.87097335 36.90185424 38.93539073 37 42 C38.65 42 40.3 42 42 42 C43.125 44.25 43.125 44.25 44 47 C43.34964186 48.34136367 42.6837045 49.67532254 42 51 C42.78309467 53.23470405 42.78309467 53.23470405 44 55 C43.34 55.99 42.68 56.98 42 58 C40.02 57.505 40.02 57.505 38 57 C37.34 58.32 36.68 59.64 36 61 C34.02 61 32.04 61 30 61 C29.773125 60.360625 29.54625 59.72125 29.3125 59.0625 C28.14749104 56.72806339 28.14749104 56.72806339 25.375 56.25 C24.59125 56.1675 23.8075 56.085 23 56 C22.505 54.02 22.505 54.02 22 52 C22.66 52 23.32 52 24 52 C22.73053486 47.17557816 22.73053486 47.17557816 19 44 C18.95653201 42.00047242 18.960008 39.99960012 19 38 C18.06716704 35.79932579 18.06716704 35.79932579 17 34 C17 33.34 17 32.68 17 32 C10.07 31.67 3.14 31.34 -4 31 C-4 30.34 -4 29.68 -4 29 C-20.83 29 -37.66 29 -55 29 C-55 29.66 -55 30.32 -55 31 C-55.99 31 -56.98 31 -58 31 C-57.67 29.68 -57.34 28.36 -57 27 C-43.47 27 -29.94 27 -16 27 C-16 26.34 -16 25.68 -16 25 C-15.34 24.566875 -14.68 24.13375 -14 23.6875 C-11.77068002 22.15980408 -11.77068002 22.15980408 -11.5 19.5625 C-12.13723312 16.29668024 -13.49855724 15.11059233 -16 13 C-14.35 10.69 -12.7 8.38 -11 6 C-10.113125 6.37125 -9.22625 6.7425 -8.3125 7.125 C-4.59173995 8.10784228 -3.32561865 7.76062164 0 6 C0 4.02 0 2.04 0 0 Z M-2.9375 14.0625 C-5.53327109 17.7595073 -5.71253588 19.56644342 -5 24 C-3.59121904 26.9901643 -3.59121904 26.9901643 -1 29 C2.64182335 29.89055736 2.64182335 29.89055736 6 30 C6.03738281 29.01257813 6.07476562 28.02515625 6.11328125 27.0078125 C6.17902344 25.72648437 6.24476562 24.44515625 6.3125 23.125 C6.37050781 21.84882812 6.42851563 20.57265625 6.48828125 19.2578125 C6.65714844 18.18273437 6.82601562 17.10765625 7 16 C7.99 15.34 8.98 14.68 10 14 C5.32834072 10.88556048 1.69263351 10.81155519 -2.9375 14.0625 Z M28 47 C27.6366844 49.83386167 27.6431329 51.40522151 29.125 53.875 C31.92151052 55.55290631 33.93690532 54.74875648 37 54 C37.67673447 50.59679066 37.67673447 50.59679066 38 47 C36.11499729 44.68436913 36.11499729 44.68436913 33 44.75 C29.88500271 44.68436913 29.88500271 44.68436913 28 47 Z " fill="#38D2D4" transform="translate(99,18)"/>
<path d="M0 0 C16.83 0 33.66 0 51 0 C51 7.26 51 14.52 51 22 C34.17 22 17.34 22 0 22 C0 14.74 0 7.48 0 0 Z " fill="#43488D" transform="translate(44,47)"/>
<path d="M0 0 C0.33 0 0.66 0 1 0 C1.33 2.97 1.66 5.94 2 9 C2.66 9 3.32 9 4 9 C4.77772405 6.66682784 5.42415568 4.38564077 6 2 C8.475 2.99 8.475 2.99 11 4 C10 6 10 6 8 9 C14.93 9.495 14.93 9.495 22 10 C22 12.97 22 15.94 22 19 C22.99 18.01 23.98 17.02 25 16 C26 17 26 17 26.11352539 19.22485352 C26.10828857 20.18319092 26.10305176 21.14152832 26.09765625 22.12890625 C26.09443359 23.16337891 26.09121094 24.19785156 26.08789062 25.26367188 C26.07532227 26.8965918 26.07532227 26.8965918 26.0625 28.5625 C26.05798828 29.65498047 26.05347656 30.74746094 26.04882812 31.87304688 C26.03699826 34.58208495 26.02051543 37.29101599 26 40 C28.31 40.66 30.62 41.32 33 42 C32 44 32 44 30.34521484 44.61450195 C25.49200924 45.41225457 20.54404055 45.18590312 15.63769531 45.18530273 C13.63863013 45.18748512 11.63960468 45.20599143 9.640625 45.22460938 C8.36960937 45.22654297 7.09859375 45.22847656 5.7890625 45.23046875 C4.63100098 45.23457764 3.47293945 45.23868652 2.27978516 45.24291992 C-1.11310954 44.99162245 -3.83332989 44.21173908 -7 43 C-6 41 -6 41 0 39 C0 26.13 0 13.26 0 0 Z " fill="#5E4DEE" transform="translate(101,86)"/>
<path d="M0 0 C0.33 0.99 0.66 1.98 1 3 C1.66 3.33 2.32 3.66 3 4 C3 5.65 3 7.3 3 9 C2.030625 9.28875 1.06125 9.5775 0.0625 9.875 C-3.10664203 10.64214682 -3.10664203 10.64214682 -4 13 C-4.0689472 14.37342831 -4.08467708 15.75002102 -4.0625 17.125 C-4.041875 18.40375 -4.02125 19.6825 -4 21 C-3.41992188 21.19335938 -2.83984375 21.38671875 -2.2421875 21.5859375 C-0.62538831 22.12487056 0.99045871 22.6666664 2.60546875 23.2109375 C4.53673854 23.84734288 6.48501545 24.4320045 8.4375 25 C11 26 11 26 13 29 C15.52445756 29.32357346 15.52445756 29.32357346 18.4453125 29.07421875 C19.52167969 29.01943359 20.59804688 28.96464844 21.70703125 28.90820312 C22.83496094 28.83537109 23.96289062 28.76253906 25.125 28.6875 C26.26066406 28.62626953 27.39632812 28.56503906 28.56640625 28.50195312 C31.37866961 28.3483421 34.18935144 28.18044528 37 28 C36.67 28.66 36.34 29.32 36 30 C33.35139573 30.59355614 30.70802678 30.74209269 28 31 C28 31.66 28 32.32 28 33 C42.19 33 56.38 33 71 33 C70.67 32.34 70.34 31.68 70 31 C68.845 30.835 67.69 30.67 66.5 30.5 C65.345 30.335 64.19 30.17 63 30 C62.505 29.01 62.505 29.01 62 28 C67.45769811 27.88861841 72.61509359 28.08342019 78 29 C78 31.64 78 34.28 78 37 C70.71409984 37.04682155 63.42823335 37.08211748 56.14221191 37.10362434 C52.75718789 37.11395864 49.37226851 37.12792229 45.98730469 37.15087891 C7.5625541 37.39227608 7.5625541 37.39227608 0 33 C0.33 32.34 0.66 31.68 1 31 C1.99 31 2.98 31 4 31 C3.16552003 28.74644234 3.16552003 28.74644234 0.625 28.1875 C-2.04092403 27.69997735 -2.04092403 27.69997735 -3.8125 29.4375 C-4.204375 29.953125 -4.59625 30.46875 -5 31 C-6.65 29.68 -8.3 28.36 -10 27 C-9.7215625 25.8553125 -9.7215625 25.8553125 -9.4375 24.6875 C-8.77180827 21.91032625 -8.77180827 21.91032625 -10 19 C-12.01508358 18.26676204 -12.01508358 18.26676204 -14 18 C-14 15.69 -14 13.38 -14 11 C-13.030625 10.731875 -12.06125 10.46375 -11.0625 10.1875 C-10.051875 9.795625 -9.04125 9.40375 -8 9 C-6.78918149 5.89459074 -6.78918149 5.89459074 -7 2 C-2.25 0 -2.25 0 0 0 Z " fill="#EAEBF2" transform="translate(23,88)"/>
<path d="M0 0 C0.99 0 1.98 0 3 0 C3 6.6 3 13.2 3 20 C5.5059375 19.87431641 5.5059375 19.87431641 8.0625 19.74609375 C23.45496404 19.03929116 38.61953199 19.09197964 54 20 C54 13.4 54 6.8 54 0 C57.45879534 -0.08064549 60.91572741 -0.1403281 64.375 -0.1875 C65.35984375 -0.21263672 66.3446875 -0.23777344 67.359375 -0.26367188 C68.77089844 -0.27817383 68.77089844 -0.27817383 70.2109375 -0.29296875 C71.51490479 -0.31653442 71.51490479 -0.31653442 72.84521484 -0.34057617 C73.55629395 -0.22818604 74.26737305 -0.1157959 75 0 C75.99 1.485 75.99 1.485 77 3 C76.34 3 75.68 3 75 3 C75.495 3.53625 75.99 4.0725 76.5 4.625 C78.38701339 7.6127712 78.30867281 9.52743085 78 13 C77 14 77 14 74.05859375 14.09765625 C72.26615234 14.08025391 72.26615234 14.08025391 70.4375 14.0625 C68.64119141 14.04896484 68.64119141 14.04896484 66.80859375 14.03515625 C65.88175781 14.02355469 64.95492187 14.01195312 64 14 C64 11.03 64 8.06 64 5 C61.69 5 59.38 5 57 5 C57.00523682 5.60062256 57.01047363 6.20124512 57.01586914 6.82006836 C57.03658014 9.52586838 57.04964125 12.23165177 57.0625 14.9375 C57.07087891 15.88302734 57.07925781 16.82855469 57.08789062 17.80273438 C57.09111328 18.70185547 57.09433594 19.60097656 57.09765625 20.52734375 C57.10289307 21.35999756 57.10812988 22.19265137 57.11352539 23.05053711 C57 25 57 25 56 26 C54.32291576 26.10397018 52.64147209 26.13852909 50.96118164 26.14526367 C49.88659195 26.15164352 48.81200226 26.15802338 47.70484924 26.16459656 C45.95022621 26.16626579 45.95022621 26.16626579 44.16015625 26.16796875 C42.96772812 26.17129715 41.77529999 26.17462555 40.54673767 26.17805481 C38.01887397 26.18312916 35.49100355 26.18546298 32.96313477 26.18530273 C29.08273346 26.1874886 25.20261654 26.20563757 21.32226562 26.22460938 C18.87239681 26.22754323 16.42252664 26.22952808 13.97265625 26.23046875 C12.22106956 26.24124702 12.22106956 26.24124702 10.43409729 26.25224304 C8.81748451 26.2476281 8.81748451 26.2476281 7.16821289 26.24291992 C5.74044273 26.24505745 5.74044273 26.24505745 4.28382874 26.24723816 C2 26 2 26 0 24 C-0.22705078 21.56982422 -0.22705078 21.56982422 -0.1953125 18.5546875 C-0.18886719 17.47832031 -0.18242188 16.40195313 -0.17578125 15.29296875 C-0.15902344 14.16503906 -0.14226563 13.03710938 -0.125 11.875 C-0.11597656 10.73933594 -0.10695312 9.60367188 -0.09765625 8.43359375 C-0.07403098 5.62218701 -0.04109013 2.81119702 0 0 Z " fill="#36D7C7" transform="translate(41,49)"/>
<path d="M0 0 C0.92232422 0.00902344 1.84464844 0.01804687 2.79492188 0.02734375 C5.05089498 0.05072171 7.30673283 0.0865858 9.5625 0.125 C9.5625 5.735 9.5625 11.345 9.5625 17.125 C11.8725 17.125 14.1825 17.125 16.5625 17.125 C16.67861395 21.37477046 16.74972349 25.62413337 16.8125 29.875 C16.86277344 31.68484375 16.86277344 31.68484375 16.9140625 33.53125 C16.92695312 34.69140625 16.93984375 35.8515625 16.953125 37.046875 C16.97407227 38.11518555 16.99501953 39.18349609 17.01660156 40.28417969 C16.45406706 43.80334717 15.3488764 44.97595377 12.5625 47.125 C11.9025 47.125 11.2425 47.125 10.5625 47.125 C10.0675 37.225 10.0675 37.225 9.5625 27.125 C6.9225 27.125 4.2825 27.125 1.5625 27.125 C1.5625 25.145 1.5625 23.165 1.5625 21.125 C-4.7075 21.125 -10.9775 21.125 -17.4375 21.125 C-17.4375 20.795 -17.4375 20.465 -17.4375 20.125 C-11.1675 19.795 -4.8975 19.465 1.5625 19.125 C-2.3975 18.795 -6.3575 18.465 -10.4375 18.125 C-10.7675 17.135 -11.0975 16.145 -11.4375 15.125 C-13.4175 15.125 -15.3975 15.125 -17.4375 15.125 C-17.4375 14.795 -17.4375 14.465 -17.4375 14.125 C-15.7875 13.795 -14.1375 13.465 -12.4375 13.125 C-12.1075 11.805 -11.7775 10.485 -11.4375 9.125 C-13.4175 9.125 -15.3975 9.125 -17.4375 9.125 C-17.4375 8.795 -17.4375 8.465 -17.4375 8.125 C-15.7875 7.795 -14.1375 7.465 -12.4375 7.125 C-12.1075 5.805 -11.7775 4.485 -11.4375 3.125 C-13.4175 3.125 -15.3975 3.125 -17.4375 3.125 C-17.4375 2.795 -17.4375 2.465 -17.4375 2.125 C-11.51968663 0.06310069 -6.23331786 -0.11667838 0 0 Z " fill="#5A39FF" transform="translate(24.4375,31.875)"/>
<path d="M0 0 C1.12019531 -0.00128906 2.24039063 -0.00257812 3.39453125 -0.00390625 C4.57402344 -0.00003906 5.75351562 0.00382812 6.96875 0.0078125 C8.73798828 0.00201172 8.73798828 0.00201172 10.54296875 -0.00390625 C12.22326172 -0.00197266 12.22326172 -0.00197266 13.9375 0 C14.97326172 0.00112793 16.00902344 0.00225586 17.07617188 0.00341797 C19.46875 0.1328125 19.46875 0.1328125 20.46875 1.1328125 C20.56861975 3.97616298 20.60752881 6.78978413 20.59375 9.6328125 C20.59955078 10.82970703 20.59955078 10.82970703 20.60546875 12.05078125 C20.59535767 18.00620483 20.59535767 18.00620483 19.46875 19.1328125 C17.62715977 19.23240871 15.78178033 19.26361661 13.9375 19.265625 C12.81730469 19.26691406 11.69710937 19.26820312 10.54296875 19.26953125 C9.36347656 19.26566406 8.18398438 19.26179688 6.96875 19.2578125 C5.19951172 19.26361328 5.19951172 19.26361328 3.39453125 19.26953125 C1.71423828 19.26759766 1.71423828 19.26759766 0 19.265625 C-1.03576172 19.26449707 -2.07152344 19.26336914 -3.13867188 19.26220703 C-5.53125 19.1328125 -5.53125 19.1328125 -6.53125 18.1328125 C-6.63111975 15.28946202 -6.67002881 12.47584087 -6.65625 9.6328125 C-6.66011719 8.83488281 -6.66398437 8.03695312 -6.66796875 7.21484375 C-6.65573175 0.007248 -6.65573175 0.007248 0 0 Z " fill="#3FB0E1" transform="translate(39.53125,85.8671875)"/>
<path d="M0 0 C3.0000624 -0.02721831 5.99987256 -0.04694378 9 -0.0625 C9.83917969 -0.07087891 10.67835937 -0.07925781 11.54296875 -0.08789062 C16.79319339 -0.10824033 21.80455662 0.23631793 27 1 C27.02887814 4.47914941 27.04675687 7.95826831 27.0625 11.4375 C27.07087891 12.43072266 27.07925781 13.42394531 27.08789062 14.44726562 C27.09272461 15.86362305 27.09272461 15.86362305 27.09765625 17.30859375 C27.10551147 18.62041626 27.10551147 18.62041626 27.11352539 19.95874023 C27 22 27 22 26 23 C24.5086609 23.01662231 23.01639195 22.963192 21.52734375 22.87890625 C20.62822266 22.83056641 19.72910156 22.78222656 18.80273438 22.73242188 C17.85720703 22.67634766 16.91167969 22.62027344 15.9375 22.5625 C14.98810547 22.51029297 14.03871094 22.45808594 13.06054688 22.40429688 C10.70673048 22.27418642 8.35329301 22.13920888 6 22 C6 21.01 6 20.02 6 19 C4.02 19 2.04 19 0 19 C0 18.34 0 17.68 0 17 C1.98 17 3.96 17 6 17 C6 15.68 6 14.36 6 13 C4.02 13 2.04 13 0 13 C0 12.34 0 11.68 0 11 C1.98 11 3.96 11 6 11 C6 9.68 6 8.36 6 7 C4.02 7 2.04 7 0 7 C0 6.34 0 5.68 0 5 C1.98 5 3.96 5 6 5 C6 4.01 6 3.02 6 2 C3.03 1.505 3.03 1.505 0 1 C0 0.67 0 0.34 0 0 Z " fill="#80DAE3" transform="translate(7,58)"/>
<path d="M0 0 C1.98 0 3.96 0 6 0 C6.33 0.66 6.66 1.32 7 2 C15.25 2 23.5 2 32 2 C32.33 1.34 32.66 0.68 33 0 C39.27 0 45.54 0 52 0 C51.01 2.31 50.02 4.62 49 7 C48.34 7 47.68 7 47 7 C47 8.32 47 9.64 47 11 C44.14422581 11.82070952 41.67270335 12.10615659 38.70629883 12.03759766 C37.45028618 12.01229477 37.45028618 12.01229477 36.16889954 11.98648071 C34.82652473 11.9506337 34.82652473 11.9506337 33.45703125 11.9140625 C32.53282883 11.89282318 31.6086264 11.87158386 30.65641785 11.84970093 C28.70715941 11.80351334 26.7579641 11.75459132 24.80883789 11.703125 C21.81344678 11.62502469 18.81794894 11.5580105 15.82226562 11.4921875 C13.92967122 11.44597467 12.0370923 11.39912193 10.14453125 11.3515625 C8.79304741 11.32178818 8.79304741 11.32178818 7.41426086 11.29141235 C1.11509565 11.11509565 1.11509565 11.11509565 0 10 C-0.07205511 8.31391034 -0.08386068 6.62499341 -0.0625 4.9375 C-0.05347656 4.01839844 -0.04445313 3.09929687 -0.03515625 2.15234375 C-0.02355469 1.44207031 -0.01195313 0.73179688 0 0 Z " fill="#BAD5FE" transform="translate(27,102)"/>
<path d="M0 0 C0.33 6.27 0.66 12.54 1 19 C2.65 19 4.3 19 6 19 C7.125 21.25 7.125 21.25 8 24 C7.34964186 25.34136367 6.6837045 26.67532254 6 28 C6.78309467 30.23470405 6.78309467 30.23470405 8 32 C7.34 32.99 6.68 33.98 6 35 C4.68 34.67 3.36 34.34 2 34 C1.34 35.32 0.68 36.64 0 38 C-1.98 38 -3.96 38 -6 38 C-6.3403125 37.0409375 -6.3403125 37.0409375 -6.6875 36.0625 C-7.85250896 33.72806339 -7.85250896 33.72806339 -10.625 33.25 C-11.40875 33.1675 -12.1925 33.085 -13 33 C-13.33 31.68 -13.66 30.36 -14 29 C-13.34 29 -12.68 29 -12 29 C-13.26946514 24.17557816 -13.26946514 24.17557816 -17 21 C-15.52307692 15.33846154 -15.52307692 15.33846154 -12.875 13.625 C-12.25625 13.41875 -11.6375 13.2125 -11 13 C-11 12.34 -11 11.68 -11 11 C-11.66 11 -12.32 11 -13 11 C-13 9.35 -13 7.7 -13 6 C-9.7 6 -6.4 6 -3 6 C-3.33 4.68 -3.66 3.36 -4 2 C-1 0 -1 0 0 0 Z M-8 24 C-8.3633156 26.83386167 -8.3568671 28.40522151 -6.875 30.875 C-4.07848948 32.55290631 -2.06309468 31.74875648 1 31 C1.67673447 27.59679066 1.67673447 27.59679066 2 24 C0.11499729 21.68436913 0.11499729 21.68436913 -3 21.75 C-6.11499729 21.68436913 -6.11499729 21.68436913 -8 24 Z " fill="#36DAC8" transform="translate(135,41)"/>
<path d="M0 0 C0.33 0 0.66 0 1 0 C1.495 8.415 1.495 8.415 2 17 C2.66 17 3.32 17 4 17 C5.38232443 15.37373596 6.71937515 13.7074998 8 12 C8.495 12.495 8.495 12.495 9 13 C11.85877909 13.23701239 14.69883297 13.42219182 17.5625 13.5625 C18.77196289 13.62727539 18.77196289 13.62727539 20.00585938 13.69335938 C22.00368805 13.79975262 24.0018207 13.90040888 26 14 C25.34 14.99 24.68 15.98 24 17 C23.34 17 22.68 17 22 17 C22.495 18.485 22.495 18.485 23 20 C22.236875 20.268125 21.47375 20.53625 20.6875 20.8125 C18.00469012 21.74356221 18.00469012 21.74356221 16.8125 23.53125 C13.98538526 25.82218781 10.80511411 25.57245707 7.3125 25.6875 C4.899375 25.790625 2.48625 25.89375 0 26 C-0.33 30.95 -0.66 35.9 -1 41 C-3.31 41 -5.62 41 -8 41 C-8 34.73 -8 28.46 -8 22 C-14.27 22 -20.54 22 -27 22 C-27 21.34 -27 20.68 -27 20 C-18.42 19.67 -9.84 19.34 -1 19 C-0.67 12.73 -0.34 6.46 0 0 Z " fill="#6052FE" transform="translate(34,61)"/>
<path d="M0 0 C1.32 0 2.64 0 4 0 C4 6.6 4 13.2 4 20 C6.31 20 8.62 20 11 20 C12 21 12 21 12.11352539 22.85766602 C12.10828857 23.64842529 12.10305176 24.43918457 12.09765625 25.25390625 C12.09443359 26.10791016 12.09121094 26.96191406 12.08789062 27.84179688 C12.07951172 28.73962891 12.07113281 29.63746094 12.0625 30.5625 C12.05798828 31.46419922 12.05347656 32.36589844 12.04882812 33.29492188 C12.03700225 35.53001314 12.0205222 37.76497437 12 40 C10.66666667 40.66666667 9.33333333 41.33333333 8 42 C8 39.03 8 36.06 8 33 C3.38 33 -1.24 33 -6 33 C-6 28 -6 28 -5 27 C-5.66 27 -6.32 27 -7 27 C-7.7425 28.2375 -7.7425 28.2375 -8.5 29.5 C-9.2425 30.7375 -9.2425 30.7375 -10 32 C-10.66 32 -11.32 32 -12 32 C-12.33 32.66 -12.66 33.32 -13 34 C-13.19456705 32.04235617 -13.38044247 30.08384679 -13.5625 28.125 C-13.71912109 26.48917969 -13.71912109 26.48917969 -13.87890625 24.8203125 C-14 22 -14 22 -13 20 C-8.71 20 -4.42 20 0 20 C0 13.4 0 6.8 0 0 Z " fill="#5F4CFB" transform="translate(115,63)"/>
<path d="M0 0 C3.3 0.33 6.6 0.66 10 1 C9.67 2.98 9.34 4.96 9 7 C13.12168689 8.62950412 15.70700357 9.26264601 20 8 C23 12.75 23 12.75 23 15 C20.89611431 15.05402274 18.79183286 15.09280256 16.6875 15.125 C14.92986328 15.15980469 14.92986328 15.15980469 13.13671875 15.1953125 C10 15 10 15 7 13 C3.12661246 12.57744863 0.88401391 12.43332442 -2.4375 14.5625 C-4.55418511 17.86452877 -4.35028204 20.14689752 -4 24 C-3.67 24.99 -3.34 25.98 -3 27 C-7.29 27 -11.58 27 -16 27 C-16 26.34 -16 25.68 -16 25 C-15.34 24.566875 -14.68 24.13375 -14 23.6875 C-11.77068002 22.15980408 -11.77068002 22.15980408 -11.5 19.5625 C-12.13723312 16.29668024 -13.49855724 15.11059233 -16 13 C-14.35 10.69 -12.7 8.38 -11 6 C-10.113125 6.37125 -9.22625 6.7425 -8.3125 7.125 C-4.59173995 8.10784228 -3.32561865 7.76062164 0 6 C0 4.02 0 2.04 0 0 Z " fill="#E8EBF1" transform="translate(99,18)"/>
<path d="M0 0 C1.58206422 0.00574487 3.16410406 0.01876032 4.74609375 0.03515625 C7.53046875 0.05578125 10.31484375 0.07640625 13.18359375 0.09765625 C13.18359375 6.03765625 13.18359375 11.97765625 13.18359375 18.09765625 C10.39921875 18.11828125 7.61484375 18.13890625 4.74609375 18.16015625 C3.86767822 18.16926025 2.9892627 18.17836426 2.08422852 18.18774414 C0.11713401 18.19488716 -1.84994246 18.14797518 -3.81640625 18.09765625 C-5.63756628 16.27649622 -4.94875705 13.79093861 -4.953125 11.37109375 C-4.94925781 10.62085937 -4.94539063 9.870625 -4.94140625 9.09765625 C-4.94527344 8.34742187 -4.94914062 7.5971875 -4.953125 6.82421875 C-4.94103514 0.12643386 -4.94103514 0.12643386 0 0 Z " fill="#9FE5F1" transform="translate(109.81640625,95.90234375)"/>
<path d="M0 0 C0.66 0.33 1.32 0.66 2 1 C2 7.93 2 14.86 2 22 C-6.25 22 -14.5 22 -23 22 C-23.26785714 8.60714286 -23.26785714 8.60714286 -21 5 C-20.67 5 -20.34 5 -20 5 C-19.67 6.98 -19.34 8.96 -19 11 C-13.39 11.33 -7.78 11.66 -2 12 C-2.04125 10.576875 -2.0825 9.15375 -2.125 7.6875 C-2.23132175 4.01939967 -2.13586678 3.20380017 0 0 Z " fill="#7286FE" transform="translate(125,102)"/>
<path d="M0 0 C0.99 0 1.98 0 3 0 C3 6.6 3 13.2 3 20 C5.88878906 19.85691406 5.88878906 19.85691406 8.8359375 19.7109375 C11.34893408 19.59841527 13.86195634 19.48646565 16.375 19.375 C17.64601563 19.31054688 18.91703125 19.24609375 20.2265625 19.1796875 C21.43828125 19.128125 22.65 19.0765625 23.8984375 19.0234375 C25.57945557 18.94488525 25.57945557 18.94488525 27.29443359 18.86474609 C30 19 30 19 32 21 C31.34 21.639375 30.68 22.27875 30 22.9375 C27.88397569 24.64082319 27.88397569 24.64082319 28 26 C23.70838953 26.05783842 19.41687855 26.0935412 15.125 26.125 C13.90167969 26.14175781 12.67835937 26.15851563 11.41796875 26.17578125 C9.66806641 26.18544922 9.66806641 26.18544922 7.8828125 26.1953125 C6.80402832 26.20578613 5.72524414 26.21625977 4.61376953 26.22705078 C2 26 2 26 0 24 C-0.22705078 21.56982422 -0.22705078 21.56982422 -0.1953125 18.5546875 C-0.18886719 17.47832031 -0.18242188 16.40195313 -0.17578125 15.29296875 C-0.15902344 14.16503906 -0.14226563 13.03710938 -0.125 11.875 C-0.11597656 10.73933594 -0.10695312 9.60367188 -0.09765625 8.43359375 C-0.07403098 5.62218701 -0.04109013 2.81119702 0 0 Z " fill="#3DB6DE" transform="translate(41,49)"/>
<path d="M0 0 C0.02684312 2.81256281 0.04676188 5.62487241 0.0625 8.4375 C0.07087891 9.23994141 0.07925781 10.04238281 0.08789062 10.86914062 C0.0965143 12.91295221 0.0522815 14.95683902 0 17 C-1 18 -1 18 -3.40844727 18.11352539 C-4.45057373 18.10828857 -5.4927002 18.10305176 -6.56640625 18.09765625 C-7.69111328 18.09443359 -8.81582031 18.09121094 -9.97460938 18.08789062 C-11.15861328 18.07951172 -12.34261719 18.07113281 -13.5625 18.0625 C-14.75037109 18.05798828 -15.93824219 18.05347656 -17.16210938 18.04882812 C-20.10812226 18.03699675 -23.05403681 18.02051287 -26 18 C-26.33 17.01 -26.66 16.02 -27 15 C-23.7 15 -20.4 15 -17 15 C-16.67 14.34 -16.34 13.68 -16 13 C-15.34 13.33 -14.68 13.66 -14 14 C-13.67 12.68 -13.34 11.36 -13 10 C-12.01 10 -11.02 10 -10 10 C-10 10.99 -10 11.98 -10 13 C-8.35 11.35 -6.7 9.7 -5 8 C-5.99 7.34 -6.98 6.68 -8 6 C-8 5.34 -8 4.68 -8 4 C-8.66 4 -9.32 4 -10 4 C-10.33 4.66 -10.66 5.32 -11 6 C-10.8125 4.1875 -10.8125 4.1875 -10 2 C-6.30533041 -0.97626162 -4.48422748 -1.10600913 0 0 Z " fill="#36CCC8" transform="translate(60,87)"/>
<path d="M0 0 C2.95887459 -0.08069658 5.9155659 -0.14034665 8.875 -0.1875 C9.71675781 -0.21263672 10.55851562 -0.23777344 11.42578125 -0.26367188 C12.23144531 -0.27333984 13.03710938 -0.28300781 13.8671875 -0.29296875 C14.98262939 -0.31653442 14.98262939 -0.31653442 16.12060547 -0.34057617 C17.05090576 -0.17199097 17.05090576 -0.17199097 18 0 C18.66 0.99 19.32 1.98 20 3 C19.34 3 18.68 3 18 3 C18.495 3.53625 18.99 4.0725 19.5 4.625 C21.38701339 7.6127712 21.30867281 9.52743085 21 13 C20 14 20 14 17.05859375 14.09765625 C15.26615234 14.08025391 15.26615234 14.08025391 13.4375 14.0625 C11.64119141 14.04896484 11.64119141 14.04896484 9.80859375 14.03515625 C8.88175781 14.02355469 7.95492187 14.01195312 7 14 C7 11.03 7 8.06 7 5 C4.69 5 2.38 5 0 5 C0 3.35 0 1.7 0 0 Z " fill="#34ADC5" transform="translate(98,49)"/>
<path d="M0 0 C13.53 0 27.06 0 41 0 C41 1.65 41 3.3 41 5 C27.47 5 13.94 5 0 5 C0 3.35 0 1.7 0 0 Z " fill="#3C3D89" transform="translate(60,97)"/>
<path d="M0 0 C5.61 0 11.22 0 17 0 C17 3.96 17 7.92 17 12 C11.39 12 5.78 12 0 12 C0.33 10.68 0.66 9.36 1 8 C0.67 7.67 0.34 7.34 0 7 C0 4.69 0 2.38 0 0 Z " fill="#3C4E9C" transform="translate(15,34)"/>
<path d="M0 0 C0.92232422 0.00902344 1.84464844 0.01804687 2.79492188 0.02734375 C5.05089498 0.05072171 7.30673283 0.0865858 9.5625 0.125 C9.5625 6.065 9.5625 12.005 9.5625 18.125 C2.9625 18.125 -3.6375 18.125 -10.4375 18.125 C-10.7675 17.135 -11.0975 16.145 -11.4375 15.125 C-13.4175 15.125 -15.3975 15.125 -17.4375 15.125 C-17.4375 14.795 -17.4375 14.465 -17.4375 14.125 C-15.7875 13.795 -14.1375 13.465 -12.4375 13.125 C-12.1075 11.805 -11.7775 10.485 -11.4375 9.125 C-13.4175 9.125 -15.3975 9.125 -17.4375 9.125 C-17.4375 8.795 -17.4375 8.465 -17.4375 8.125 C-15.7875 7.795 -14.1375 7.465 -12.4375 7.125 C-12.1075 5.805 -11.7775 4.485 -11.4375 3.125 C-13.4175 3.125 -15.3975 3.125 -17.4375 3.125 C-17.4375 2.795 -17.4375 2.465 -17.4375 2.125 C-11.51968663 0.06310069 -6.23331786 -0.11667838 0 0 Z M-9.4375 2.125 C-9.4375 4.435 -9.4375 6.745 -9.4375 9.125 C-9.4375 10.79166667 -9.4375 12.45833333 -9.4375 14.125 C-3.8275 14.125 1.7825 14.125 7.5625 14.125 C7.5625 10.165 7.5625 6.205 7.5625 2.125 C1.9525 2.125 -3.6575 2.125 -9.4375 2.125 Z " fill="#34D5CD" transform="translate(24.4375,31.875)"/>
<path d="M0 0 C2.12438339 -0.08078641 4.2496323 -0.13909141 6.375 -0.1875 C7.55835937 -0.22230469 8.74171875 -0.25710937 9.9609375 -0.29296875 C11.46527344 -0.14794922 11.46527344 -0.14794922 13 0 C13.66 0.99 14.32 1.98 15 3 C14.34 3 13.68 3 13 3 C13 3.66 13 4.32 13 5 C19.27 5 25.54 5 32 5 C32.495 6.485 32.495 6.485 33 8 C18.81 8 4.62 8 -10 8 C-10 7.34 -10 6.68 -10 6 C-7.98177083 5.609375 -5.96354167 5.21875 -3.9453125 4.828125 C-1.80995329 4.14287884 -1.80995329 4.14287884 -0.7421875 1.921875 C-0.49726562 1.28765625 -0.25234375 0.6534375 0 0 Z " fill="#A3C6FE" transform="translate(61,113)"/>
<path d="M0 0 C1.98 0 3.96 0 6 0 C7.125 2.25 7.125 2.25 8 5 C7.34964186 6.34136367 6.6837045 7.67532254 6 9 C6.78309467 11.23470405 6.78309467 11.23470405 8 13 C7.01 14.485 7.01 14.485 6 16 C4.68 15.67 3.36 15.34 2 15 C1.34 16.32 0.68 17.64 0 19 C-1.98 19 -3.96 19 -6 19 C-6.226875 18.360625 -6.45375 17.72125 -6.6875 17.0625 C-7.85250896 14.72806339 -7.85250896 14.72806339 -10.625 14.25 C-11.40875 14.1675 -12.1925 14.085 -13 14 C-13.33 12.68 -13.66 11.36 -14 10 C-13.34 10 -12.68 10 -12 10 C-12.66 7.69 -13.32 5.38 -14 3 C-11.36 3 -8.72 3 -6 3 C-6.20625 4.11375 -6.4125 5.2275 -6.625 6.375 C-6.74875 7.57125 -6.8725 8.7675 -7 10 C-5.10244856 12.34973818 -5.10244856 12.34973818 -1.875 12.125 C-0.451875 12.063125 -0.451875 12.063125 1 12 C1.29562367 6.67829506 1.29562367 6.67829506 -1 2 C-0.67 1.34 -0.34 0.68 0 0 Z " fill="#EAEBF2" transform="translate(135,60)"/>
<path d="M0 0 C2.64 0 5.28 0 8 0 C8.02887814 3.47914941 8.04675687 6.95826831 8.0625 10.4375 C8.07087891 11.43072266 8.07925781 12.42394531 8.08789062 13.44726562 C8.09272461 14.86362305 8.09272461 14.86362305 8.09765625 16.30859375 C8.10551147 17.62041626 8.10551147 17.62041626 8.11352539 18.95874023 C8 21 8 21 7 22 C5.5086609 22.01662231 4.01639195 21.963192 2.52734375 21.87890625 C1.62822266 21.83056641 0.72910156 21.78222656 -0.19726562 21.73242188 C-1.14279297 21.67634766 -2.08832031 21.62027344 -3.0625 21.5625 C-4.01189453 21.51029297 -4.96128906 21.45808594 -5.93945312 21.40429688 C-8.29326952 21.27418642 -10.64670699 21.13920888 -13 21 C-13 20.01 -13 19.02 -13 18 C-9.04 18 -5.08 18 -1 18 C-0.67 17.01 -0.34 16.02 0 15 C1.32 15 2.64 15 4 15 C3.67 12.36 3.34 9.72 3 7 C2.01 7 1.02 7 0 7 C0 4.69 0 2.38 0 0 Z " fill="#36CEC6" transform="translate(26,59)"/>
<path d="M0 0 C3.5 0.1875 3.5 0.1875 7 1 C7.66 1.99 8.32 2.98 9 4 C9.845625 4.33 10.69125 4.66 11.5625 5 C12.7690625 5.495 12.7690625 5.495 14 6 C14.33 6.99 14.66 7.98 15 9 C11.7 9 8.4 9 5 9 C5 10.65 5 12.3 5 14 C5.66 14 6.32 14 7 14 C7 14.66 7 15.32 7 16 C4.5 17.625 4.5 17.625 2 19 C0.5 17.625 0.5 17.625 -1 16 C-1 15.34 -1 14.68 -1 14 C-0.34 14 0.32 14 1 14 C1 12.68 1 11.36 1 10 C-2.3 9.67 -5.6 9.34 -9 9 C-8.67 7.68 -8.34 6.36 -8 5 C-5.0625 3.375 -5.0625 3.375 -2 2 C-1.34 1.34 -0.68 0.68 0 0 Z " fill="#F7FCFD" transform="translate(117,38)"/>
<path d="M0 0 C1.98 0 3.96 0 6 0 C6.33 0.66 6.66 1.32 7 2 C9.71446979 2.31241455 12.33909361 2.51336592 15.0625 2.625 C16.20041992 2.68300781 16.20041992 2.68300781 17.36132812 2.7421875 C19.24047195 2.83673562 21.12020336 2.91946756 23 3 C22.34 4.98 21.68 6.96 21 9 C20.071875 8.95875 19.14375 8.9175 18.1875 8.875 C14.84190281 8.72863661 14.84190281 8.72863661 12 11 C9.3359375 11.23046875 9.3359375 11.23046875 6.375 11.1875 C5.39273438 11.18105469 4.41046875 11.17460938 3.3984375 11.16796875 C1 11 1 11 0 10 C-0.07205511 8.31391034 -0.08386068 6.62499341 -0.0625 4.9375 C-0.05347656 4.01839844 -0.04445313 3.09929687 -0.03515625 2.15234375 C-0.02355469 1.44207031 -0.01195313 0.73179688 0 0 Z " fill="#C5DCFE" transform="translate(27,102)"/>
<path d="M0 0 C1.32 0 2.64 0 4 0 C4 6.6 4 13.2 4 20 C6.31 20 8.62 20 11 20 C11.33 20.99 11.66 21.98 12 23 C3.19039858 24.30512614 -5.19039858 24.30512614 -14 23 C-13.505 21.515 -13.505 21.515 -13 20 C-8.71 20 -4.42 20 0 20 C0 13.4 0 6.8 0 0 Z " fill="#4C4CA1" transform="translate(115,63)"/>
<path d="M0 0 C1.31871094 -0.01224609 2.63742188 -0.02449219 3.99609375 -0.03710938 C5.90068359 -0.04000977 5.90068359 -0.04000977 7.84375 -0.04296875 C9.00068359 -0.04707764 10.15761719 -0.05118652 11.34960938 -0.05541992 C14.47736509 0.18575467 16.680892 0.85423629 19.5 2.1875 C18.5 4.1875 18.5 4.1875 16.84521484 4.80200195 C11.99200924 5.59975457 7.04404055 5.37340312 2.13769531 5.37280273 C0.13863013 5.37498512 -1.86039532 5.39349143 -3.859375 5.41210938 C-5.13039063 5.41404297 -6.40140625 5.41597656 -7.7109375 5.41796875 C-8.86899902 5.42207764 -10.02706055 5.42618652 -11.22021484 5.43041992 C-14.61310954 5.17912245 -17.33332989 4.39923908 -20.5 3.1875 C-20.17 2.5275 -19.84 1.8675 -19.5 1.1875 C-13.23640183 -0.60566158 -6.45139424 0.00315317 0 0 Z " fill="#EAEBF2" transform="translate(114.5,125.8125)"/>
<path d="M0 0 C1.58206422 0.00574487 3.16410406 0.01876032 4.74609375 0.03515625 C7.53046875 0.05578125 10.31484375 0.07640625 13.18359375 0.09765625 C13.18359375 6.03765625 13.18359375 11.97765625 13.18359375 18.09765625 C10.39921875 18.11828125 7.61484375 18.13890625 4.74609375 18.16015625 C3.86767822 18.16926025 2.9892627 18.17836426 2.08422852 18.18774414 C0.11713401 18.19488716 -1.84994246 18.14797518 -3.81640625 18.09765625 C-5.63756628 16.27649622 -4.94875705 13.79093861 -4.953125 11.37109375 C-4.94925781 10.62085937 -4.94539063 9.870625 -4.94140625 9.09765625 C-4.94527344 8.34742187 -4.94914062 7.5971875 -4.953125 6.82421875 C-4.94103514 0.12643386 -4.94103514 0.12643386 0 0 Z M-1.19140625 3.72265625 C-3.32964056 6.84776794 -3.49937315 8.3792809 -2.81640625 12.09765625 C-0.83674362 15.16073256 -0.83674362 15.16073256 2.18359375 17.09765625 C5.84801291 17.17244031 7.5827426 16.52457681 10.55859375 14.41015625 C12.38926529 12.14442229 12.38926529 12.14442229 12.74609375 9.09765625 C12.4249166 5.95471984 12.4249166 5.95471984 10.05859375 3.72265625 C5.81407785 1.32358204 2.92069541 0.90911301 -1.19140625 3.72265625 Z " fill="#45C6ED" transform="translate(109.81640625,95.90234375)"/>
<path d="M0 0 C1.61648437 0.04060547 1.61648437 0.04060547 3.265625 0.08203125 C4.08546875 0.11683594 4.9053125 0.15164062 5.75 0.1875 C3.88216429 2.98925356 2.44725519 4.29942137 -0.25 6.1875 C0.08 7.5075 0.41 8.8275 0.75 10.1875 C-0.24 10.1875 -1.23 10.1875 -2.25 10.1875 C-3.24 10.6825 -3.24 10.6825 -4.25 11.1875 C-6.4572923 11.25842842 -8.66667452 11.27165025 -10.875 11.25 C-12.06351563 11.24097656 -13.25203125 11.23195313 -14.4765625 11.22265625 C-15.39179687 11.21105469 -16.30703125 11.19945313 -17.25 11.1875 C-16.59 10.5275 -15.93 9.8675 -15.25 9.1875 C-15.58 8.5275 -15.91 7.8675 -16.25 7.1875 C-14.27 6.5275 -12.29 5.8675 -10.25 5.1875 C-10.25 4.5275 -10.25 3.8675 -10.25 3.1875 C-7.01086515 -0.05949683 -4.46447772 -0.1455808 0 0 Z " fill="#6660FF" transform="translate(66.25,74.8125)"/>
<path d="M0 0 C7.59 0 15.18 0 23 0 C23 5.28 23 10.56 23 16 C23.99 16 24.98 16 26 16 C26 17.65 26 19.3 26 21 C23.69 21 21.38 21 19 21 C19 14.73 19 8.46 19 2 C12.73 2 6.46 2 0 2 C0 1.34 0 0.68 0 0 Z " fill="#7071A9" transform="translate(7,81)"/>
<path d="M0 0 C1.02787125 0.00212242 1.02787125 0.00212242 2.07650757 0.00428772 C4.26719511 0.0098895 6.4577808 0.02244219 8.6484375 0.03515625 C10.13281102 0.04017103 11.61718615 0.04473397 13.1015625 0.04882812 C16.74222065 0.05985948 20.38281914 0.07712526 24.0234375 0.09765625 C24.0234375 1.41765625 24.0234375 2.73765625 24.0234375 4.09765625 C13.4634375 4.09765625 2.9034375 4.09765625 -7.9765625 4.09765625 C-8.3065625 3.10765625 -8.6365625 2.11765625 -8.9765625 1.09765625 C-6.00296801 -0.389141 -3.31357071 -0.0134698 0 0 Z " fill="#325EB3" transform="translate(65.9765625,53.90234375)"/>
<path d="M0 0 C1.32 0 2.64 0 4 0 C4 0.99 4 1.98 4 3 C4.99 2.67 5.98 2.34 7 2 C8.06546953 5.1964086 8.07427838 7.65747276 8 11 C5.09399739 12.25664978 3.20395416 13 0 13 C0 12.34 0 11.68 0 11 C-1.65 10.67 -3.3 10.34 -5 10 C-5 7.69 -5 5.38 -5 3 C-4.360625 2.87625 -3.72125 2.7525 -3.0625 2.625 C-2.0415625 2.315625 -2.0415625 2.315625 -1 2 C-0.67 1.34 -0.34 0.68 0 0 Z " fill="#E6F6F9" transform="translate(22,63)"/>
<path d="M0 0 C0.33 0 0.66 0 1 0 C1.33 1.98 1.66 3.96 2 6 C4.97 6.33 7.94 6.66 11 7 C10.01 7.33 9.02 7.66 8 8 C8.33 9.32 8.66 10.64 9 12 C8.01 12.33 7.02 12.66 6 13 C6 13.66 6 14.32 6 15 C5.01 15 4.02 15 3 15 C2.67 15.66 2.34 16.32 2 17 C0.68 17 -0.64 17 -2 17 C-2.05418326 14.91695462 -2.09287551 12.83350232 -2.125 10.75 C-2.14820312 9.58984375 -2.17140625 8.4296875 -2.1953125 7.234375 C-2.0103949 4.17213954 -1.60823023 2.55797249 0 0 Z " fill="#6C72FE" transform="translate(104,107)"/>
<path d="M0 0 C0 1.65 0 3.3 0 5 C-3.63 5 -7.26 5 -11 5 C-11 6.65 -11 8.3 -11 10 C-12.32 10 -13.64 10 -15 10 C-15 8.02 -15 6.04 -15 4 C-21.27 4 -27.54 4 -34 4 C-34 3.67 -34 3.34 -34 3 C-33.42967041 2.97494385 -32.85934082 2.9498877 -32.27172852 2.92407227 C-29.70173843 2.80843451 -27.13214473 2.68556376 -24.5625 2.5625 C-23.66466797 2.52318359 -22.76683594 2.48386719 -21.84179688 2.44335938 C-20.98779297 2.40146484 -20.13378906 2.35957031 -19.25390625 2.31640625 C-18.46314697 2.27974854 -17.6723877 2.24309082 -16.85766602 2.20532227 C-14.98598559 2.19436743 -14.98598559 2.19436743 -14 1 C-9.28894974 0.15201095 -4.78105995 -0.09757265 0 0 Z " fill="#5E619F" transform="translate(41,49)"/>
<path d="M0 0 C2.31 0 4.62 0 7 0 C7 4.29 7 8.58 7 13 C6.01 13 5.02 13 4 13 C3.896875 13.639375 3.79375 14.27875 3.6875 14.9375 C3.460625 15.618125 3.23375 16.29875 3 17 C2.01 17.33 1.02 17.66 0 18 C0 12.06 0 6.12 0 0 Z " fill="#6C75FE" transform="translate(98,54)"/>
<path d="M0 0 C0.74507812 0.01353516 1.49015625 0.02707031 2.2578125 0.04101562 C4.08885416 0.07622796 5.91952169 0.13003149 7.75 0.1875 C7.75 1.8375 7.75 3.4875 7.75 5.1875 C5.275 3.7025 5.275 3.7025 2.75 2.1875 C3.08 3.1775 3.41 4.1675 3.75 5.1875 C2.75 6.1875 2.75 6.1875 -0.62890625 6.28515625 C-2.02347077 6.27848369 -3.41801743 6.26652532 -4.8125 6.25 C-5.52341797 6.24548828 -6.23433594 6.24097656 -6.96679688 6.23632812 C-8.72790013 6.22450864 -10.48896036 6.20657263 -12.25 6.1875 C-12.25 3.1875 -12.25 3.1875 -10.765625 1.51171875 C-7.22285257 -0.35318785 -3.89593864 -0.13422403 0 0 Z " fill="#38CFCF" transform="translate(81.25,68.8125)"/>
<path d="M0 0 C3.3 0 6.6 0 10 0 C11.125 5.625 11.125 5.625 10 9 C6.7 9 3.4 9 0 9 C0 6.03 0 3.06 0 0 Z " fill="#3DBBDD" transform="translate(105,54)"/>
<path d="M0 0 C13.53 0 27.06 0 41 0 C41.495 0.99 41.495 0.99 42 2 C28.8 2 15.6 2 2 2 C2 2.66 2 3.32 2 4 C1.01 4 0.02 4 -1 4 C-0.67 2.68 -0.34 1.36 0 0 Z " fill="#34CFD6" transform="translate(42,45)"/>
<path d="M0 0 C0.99 0 1.98 0 3 0 C3 6.6 3 13.2 3 20 C4.32 20.33 5.64 20.66 7 21 C5.33333333 22.66666667 3.66666667 24.33333333 2 26 C0 24 0 24 -0.22705078 21.56982422 C-0.21657715 20.5748291 -0.20610352 19.57983398 -0.1953125 18.5546875 C-0.18886719 17.47832031 -0.18242188 16.40195313 -0.17578125 15.29296875 C-0.15902344 14.16503906 -0.14226563 13.03710938 -0.125 11.875 C-0.11597656 10.73933594 -0.10695312 9.60367188 -0.09765625 8.43359375 C-0.07403098 5.62218701 -0.04109013 2.81119702 0 0 Z " fill="#3FA0E7" transform="translate(41,49)"/>
<path d="M0 0 C1.65 0 3.3 0 5 0 C5 4.62 5 9.24 5 14 C3.66666667 14.66666667 2.33333333 15.33333333 1 16 C1 13.03 1 10.06 1 7 C-0.98 7 -2.96 7 -5 7 C-5.33 6.01 -5.66 5.02 -6 4 C-4.02 3.34 -2.04 2.68 0 2 C0 1.34 0 0.68 0 0 Z " fill="#6761FF" transform="translate(122,89)"/>
<path d="M0 0 C1.32 0 2.64 0 4 0 C4 6.6 4 13.2 4 20 C2.68 19.67 1.36 19.34 0 19 C0 12.73 0 6.46 0 0 Z " fill="#3E3E8B" transform="translate(115,63)"/>
<path d="M0 0 C8.58 0 17.16 0 26 0 C25.67 0.99 25.34 1.98 25 3 C17.08 3 9.16 3 1 3 C0.67 2.01 0.34 1.02 0 0 Z " fill="#4C4CA0" transform="translate(101,124)"/>
<path d="M0 0 C2.27057377 -0.05398987 4.54151288 -0.09278742 6.8125 -0.125 C8.07707031 -0.14820313 9.34164062 -0.17140625 10.64453125 -0.1953125 C14 0 14 0 17 2 C18.86778705 1.76652662 20.73519821 1.52476297 22.59375 1.2265625 C27.0829402 0.80387901 31.53878139 1.46694998 36 2 C35.34 3.32 34.68 4.64 34 6 C33.505 5.505 33.505 5.505 33 5 C31.44051458 4.84313751 29.87457332 4.74923361 28.30859375 4.68359375 C27.36435547 4.64169922 26.42011719 4.59980469 25.44726562 4.55664062 C24.45404297 4.51732422 23.46082031 4.47800781 22.4375 4.4375 C21.44041016 4.39431641 20.44332031 4.35113281 19.41601562 4.30664062 C16.9441585 4.20019702 14.4721969 4.09818072 12 4 C12 3.34 12 2.68 12 2 C8.37 2 4.74 2 1 2 C0.67 1.34 0.34 0.68 0 0 Z " fill="#72CEDD" transform="translate(83,45)"/>
<path d="M0 0 C1.67542976 0.28604898 3.34385343 0.61781233 5 1 C6.125 6.625 6.125 6.625 5 10 C4.34 10 3.68 10 3 10 C2.34 11.32 1.68 12.64 1 14 C0.34 14 -0.32 14 -1 14 C-1.02685938 11.85423363 -1.04633088 9.70837355 -1.0625 7.5625 C-1.07410156 6.36753906 -1.08570312 5.17257813 -1.09765625 3.94140625 C-1 1 -1 1 0 0 Z " fill="#33C6E0" transform="translate(106,33)"/>
<path d="M0 0 C1.32 0 2.64 0 4 0 C4.04241723 2.33294775 4.04092937 4.66702567 4 7 C3 8 3 8 -0.37890625 8.09765625 C-1.77347077 8.09098369 -3.16801743 8.07902532 -4.5625 8.0625 C-5.62887695 8.05573242 -5.62887695 8.05573242 -6.71679688 8.04882812 C-8.47790013 8.03700864 -10.23896036 8.01907263 -12 8 C-11.34 7.01 -10.68 6.02 -10 5 C-8.8553125 5.061875 -8.8553125 5.061875 -7.6875 5.125 C-3.8010347 4.94423417 -2.63719544 2.70481584 0 0 Z " fill="#34D6C3" transform="translate(56,97)"/>
<path d="M0 0 C0.74056641 0.00451172 1.48113281 0.00902344 2.24414062 0.01367188 C4.05862899 0.02537825 5.87307534 0.04331102 7.6875 0.0625 C7.6875 0.3925 7.6875 0.7225 7.6875 1.0625 C3.3975 1.0625 -0.8925 1.0625 -5.3125 1.0625 C-5.04856499 4.49480448 -5.04856499 4.49480448 -4.3125 8.0625 C-3.3225 8.7225 -2.3325 9.3825 -1.3125 10.0625 C-2.6325 10.0625 -3.9525 10.0625 -5.3125 10.0625 C-5.3125 11.0525 -5.3125 12.0425 -5.3125 13.0625 C-3.9925 13.3925 -2.6725 13.7225 -1.3125 14.0625 C-5.2725 14.0625 -9.2325 14.0625 -13.3125 14.0625 C-13.3125 13.7325 -13.3125 13.4025 -13.3125 13.0625 C-11.6625 12.7325 -10.0125 12.4025 -8.3125 12.0625 C-7.9825 10.7425 -7.6525 9.4225 -7.3125 8.0625 C-9.2925 8.0625 -11.2725 8.0625 -13.3125 8.0625 C-13.3125 7.7325 -13.3125 7.4025 -13.3125 7.0625 C-11.6625 6.7325 -10.0125 6.4025 -8.3125 6.0625 C-7.9825 4.7425 -7.6525 3.4225 -7.3125 2.0625 C-9.2925 2.0625 -11.2725 2.0625 -13.3125 2.0625 C-13.3125 1.7325 -13.3125 1.4025 -13.3125 1.0625 C-8.8746439 -0.04915232 -4.54293614 -0.05277763 0 0 Z " fill="#79D7E4" transform="translate(20.3125,32.9375)"/>
<path d="M0 0 C0.33 0.66 0.66 1.32 1 2 C-2.3 2 -5.6 2 -9 2 C-9 3.65 -9 5.3 -9 7 C-8.34 7 -7.68 7 -7 7 C-7 7.66 -7 8.32 -7 9 C-9.5 10.625 -9.5 10.625 -12 12 C-13.5 10.625 -13.5 10.625 -15 9 C-15 8.34 -15 7.68 -15 7 C-14.34 7 -13.68 7 -13 7 C-13 5.68 -13 4.36 -13 3 C-16.3 2.67 -19.6 2.34 -23 2 C-23 1.67 -23 1.34 -23 1 C-15.41 0.67 -7.82 0.34 0 0 Z " fill="#9FE6E9" transform="translate(131,45)"/>
<path d="M0 0 C3.69459731 0.19970796 4.78742451 0.76444338 7.3125 3.5625 C8.1478125 4.7690625 8.1478125 4.7690625 9 6 C7.71034824 7.37562854 6.37310707 8.70766393 5 10 C4.34 10 3.68 10 3 10 C3 9.01 3 8.02 3 7 C2.01 7.33 1.02 7.66 0 8 C-0.33 8.99 -0.66 9.98 -1 11 C-1.66 11 -2.32 11 -3 11 C-2.69217504 9.35328588 -2.37860766 7.70764424 -2.0625 6.0625 C-1.88847656 5.14597656 -1.71445312 4.22945313 -1.53515625 3.28515625 C-1 1 -1 1 0 0 Z " fill="#4ECBDB" transform="translate(47,90)"/>
<path d="M0 0 C2.64 0 5.28 0 8 0 C8 2.64 8 5.28 8 8 C6.125 8.625 6.125 8.625 4 9 C3.34 8.34 2.68 7.68 2 7 C1.34 7 0.68 7 0 7 C0 4.69 0 2.38 0 0 Z " fill="#3CB9DC" transform="translate(26,59)"/>
<path d="M0 0 C4.29 0 8.58 0 13 0 C12.67 0.66 12.34 1.32 12 2 C11.01 2.33 10.02 2.66 9 3 C8.175 4.010625 7.35 5.02125 6.5 6.0625 C5.675 7.031875 4.85 8.00125 4 9 C3.01 9 2.02 9 1 9 C0.67 6.03 0.34 3.06 0 0 Z " fill="#6ED4E3" transform="translate(110,33)"/>
<path d="M0 0 C1.24716797 0.00322266 2.49433594 0.00644531 3.77929688 0.00976562 C5.07287109 0.01814453 6.36644531 0.02652344 7.69921875 0.03515625 C9.66858398 0.04192383 9.66858398 0.04192383 11.67773438 0.04882812 C14.91410885 0.06059676 18.15039053 0.07703865 21.38671875 0.09765625 C21.05671875 0.75765625 20.72671875 1.41765625 20.38671875 2.09765625 C19.73074707 2.11747559 19.07477539 2.13729492 18.39892578 2.15771484 C15.43610806 2.25278132 12.47401343 2.36253377 9.51171875 2.47265625 C7.96291016 2.5190625 7.96291016 2.5190625 6.3828125 2.56640625 C4.90361328 2.62441406 4.90361328 2.62441406 3.39453125 2.68359375 C2.4833252 2.71501465 1.57211914 2.74643555 0.63330078 2.77880859 C-1.81259311 2.89648136 -1.81259311 2.89648136 -3.61328125 5.09765625 C-6.34197532 5.06478042 -8.90994305 4.53367854 -11.61328125 4.09765625 C-11.61328125 3.10765625 -11.61328125 2.11765625 -11.61328125 1.09765625 C-7.68039761 0.16677716 -4.03673962 -0.0184326 0 0 Z " fill="#D9D9E8" transform="translate(106.61328125,125.90234375)"/>
<path d="M0 0 C0.99 0.33 1.98 0.66 3 1 C3 9 3 9 2 12 C1.34 11.34 0.68 10.68 0 10 C-1.98821313 9.60235737 -3.98944339 9.26224651 -6 9 C-6 8.01 -6 7.02 -6 6 C-5.01 6 -4.02 6 -3 6 C-2.87625 5.195625 -2.7525 4.39125 -2.625 3.5625 C-2.41875 2.716875 -2.2125 1.87125 -2 1 C-1.34 0.67 -0.68 0.34 0 0 Z " fill="#43AAE5" transform="translate(39,88)"/>
<path d="M0 0 C0.33 0 0.66 0 1 0 C1 5.28 1 10.56 1 16 C-4.61 16 -10.22 16 -16 16 C-16 15.34 -16 14.68 -16 14 C-15.32453125 14.01160156 -14.6490625 14.02320312 -13.953125 14.03515625 C-13.06109375 14.04417969 -12.1690625 14.05320312 -11.25 14.0625 C-10.36828125 14.07410156 -9.4865625 14.08570312 -8.578125 14.09765625 C-6.2181162 14.00826198 -4.25501476 13.66912821 -2 13 C-1.80508548 11.54263913 -1.61930642 10.08405407 -1.4375 8.625 C-1.33308594 7.81289062 -1.22867188 7.00078125 -1.12109375 6.1640625 C-0.81762672 3.95100814 -0.81762672 3.95100814 -2 2 C-1.34 2 -0.68 2 0 2 C0 1.34 0 0.68 0 0 Z " fill="#3CD9D0" transform="translate(122,98)"/>
<path d="M0 0 C5.61 0 11.22 0 17 0 C17 0.99 17 1.98 17 3 C11.39 3 5.78 3 0 3 C0 2.01 0 1.02 0 0 Z " fill="#3F418B" transform="translate(15,43)"/>
<path d="M0 0 C3.375 -0.1875 3.375 -0.1875 7 0 C7.66 0.99 8.32 1.98 9 3 C8.01 3.33 7.02 3.66 6 4 C4.98812105 5.65948148 3.9873454 7.32580562 3 9 C2.34 9 1.68 9 1 9 C0.67 9.66 0.34 10.32 0 11 C0 7.37 0 3.74 0 0 Z " fill="#5934FF" transform="translate(102,86)"/>
<path d="M0 0 C3.96 0 7.92 0 12 0 C12.33 1.65 12.66 3.3 13 5 C12.34 5 11.68 5 11 5 C11 5.66 11 6.32 11 7 C9.02 7.66 7.04 8.32 5 9 C5 7.68 5 6.36 5 5 C6.32 4.34 7.64 3.68 9 3 C7.50256881 1.50256881 6.01175761 1.66797307 3.9375 1.4375 C2.638125 1.293125 1.33875 1.14875 0 1 C0 0.67 0 0.34 0 0 Z " fill="#768EFE" transform="translate(102,70)"/>
<path d="M0 0 C-0.66 0.804375 -1.32 1.60875 -2 2.4375 C-4.10254514 4.58961915 -4.10254514 4.58961915 -4 6 C-6.97 6 -9.94 6 -13 6 C-12.01 4.68 -11.02 3.36 -10 2 C-10.33 1.34 -10.66 0.68 -11 0 C-7.18243176 -1.37432457 -3.92744671 -0.67975039 0 0 Z " fill="#48C4D8" transform="translate(73,69)"/>
<path d="M0 0 C0.99 0 1.98 0 3 0 C3.36 5.4 3.36 5.4 1.875 7.875 C-0.78034983 9.4682099 -2.96789518 9.20214032 -6 9 C-6.33 8.01 -6.66 7.02 -7 6 C-6.21625 5.7525 -5.4325 5.505 -4.625 5.25 C-1.67682892 3.84610901 -1.0975223 2.99324263 0 0 Z " fill="#49D9DA" transform="translate(117,102)"/>
<path d="M0 0 C2.875 -0.125 2.875 -0.125 6 0 C6.66 0.66 7.32 1.32 8 2 C8.33 1.34 8.66 0.68 9 0 C9.66 0 10.32 0 11 0 C10.67 1.65 10.34 3.3 10 5 C6.7 5 3.4 5 0 5 C0 3.35 0 1.7 0 0 Z " fill="#36ADC6" transform="translate(33,97)"/>
<path d="M0 0 C1.0625 1.75 1.0625 1.75 2 4 C1.67 5.32 1.34 6.64 1 8 C-1.97 8 -4.94 8 -8 8 C-7.01 7.67 -6.02 7.34 -5 7 C-5.33 5.35 -5.66 3.7 -6 2 C-4.02 1.34 -2.04 0.68 0 0 Z " fill="#39C5D7" transform="translate(114,55)"/>
<path d="M0 0 C0.66 0.99 1.32 1.98 2 3 C0.625 5 0.625 5 -2 7 C-5.3580469 7.35791096 -8.63536357 7.23115823 -12 7 C-12.33 6.01 -12.66 5.02 -13 4 C-9.7 4 -6.4 4 -3 4 C-2.67 3.34 -2.34 2.68 -2 2 C-1.34 2.33 -0.68 2.66 0 3 C0 2.01 0 1.02 0 0 Z " fill="#50D2D7" transform="translate(46,98)"/>
<path d="M0 0 C-1.32 1.65 -2.64 3.3 -4 5 C-6.97 4.505 -6.97 4.505 -10 4 C-10.33 4.66 -10.66 5.32 -11 6 C-10.8125 4.1875 -10.8125 4.1875 -10 2 C-6.42504907 -0.87982158 -4.37380275 -1.37462372 0 0 Z " fill="#3CC0D9" transform="translate(60,87)"/>
<path d="M0 0 C1.23556641 0.01740234 1.23556641 0.01740234 2.49609375 0.03515625 C3.32238281 0.04417969 4.14867187 0.05320312 5 0.0625 C5.63808594 0.07410156 6.27617188 0.08570312 6.93359375 0.09765625 C6.60359375 0.75765625 6.27359375 1.41765625 5.93359375 2.09765625 C3.37109375 2.72265625 3.37109375 2.72265625 0.93359375 3.09765625 C0.60359375 4.74765625 0.27359375 6.39765625 -0.06640625 8.09765625 C-1.05640625 8.09765625 -2.04640625 8.09765625 -3.06640625 8.09765625 C-3.10882348 5.7647085 -3.10733562 3.43063058 -3.06640625 1.09765625 C-2.06640625 0.09765625 -2.06640625 0.09765625 0 0 Z " fill="#4397EA" transform="translate(36.06640625,85.90234375)"/>
<path d="M0 0 C1.65 0.33 3.3 0.66 5 1 C5 1.66 5 2.32 5 3 C5.99 3.33 6.98 3.66 8 4 C2.06 4 -3.88 4 -10 4 C-10 3.34 -10 2.68 -10 2 C-6.7 2 -3.4 2 0 2 C0 1.34 0 0.68 0 0 Z " fill="#87DAE4" transform="translate(17,73)"/>
<path d="M0 0 C0.33 0 0.66 0 1 0 C1.04241723 2.33294775 1.04092937 4.66702567 1 7 C0 8 0 8 -1.84765625 8.09765625 C-3.8984375 8.06510417 -5.94921875 8.03255208 -8 8 C-3.375 3.125 -3.375 3.125 0 2 C0 1.34 0 0.68 0 0 Z " fill="#35DEC2" transform="translate(59,97)"/>
<path d="M0 0 C0.99 0 1.98 0 3 0 C3.08121924 1.60332791 3.13929134 3.20784026 3.1875 4.8125 C3.23970703 6.15248047 3.23970703 6.15248047 3.29296875 7.51953125 C3 10 3 10 0 13 C0 8.71 0 4.42 0 0 Z " fill="#3B95D8" transform="translate(41,49)"/>
<path d="M0 0 C2.31 0 4.62 0 7 0 C7 1.65 7 3.3 7 5 C4.69 5 2.38 5 0 5 C0 3.35 0 1.7 0 0 Z " fill="#3C3E8A" transform="translate(98,49)"/>
<path d="M0 0 C1.79093191 -0.08086147 3.58289628 -0.13912702 5.375 -0.1875 C6.87160156 -0.23970703 6.87160156 -0.23970703 8.3984375 -0.29296875 C9.25695313 -0.19628906 10.11546875 -0.09960938 11 0 C11.66 0.99 12.32 1.98 13 3 C9.04 3 5.08 3 1 3 C0.67 2.01 0.34 1.02 0 0 Z " fill="#34D2D4" transform="translate(13,47)"/>
<path d="M0 0 C1.07765625 0.10183594 2.1553125 0.20367187 3.265625 0.30859375 C4.08546875 0.39238281 4.9053125 0.47617188 5.75 0.5625 C5.75 1.2225 5.75 1.8825 5.75 2.5625 C0.47 2.5625 -4.81 2.5625 -10.25 2.5625 C-10.25 1.9025 -10.25 1.2425 -10.25 0.5625 C-6.70049966 -0.60056443 -3.69176052 -0.36115049 0 0 Z " fill="#99C0FE" transform="translate(68.25,118.4375)"/>
<path d="M0 0 C-0.33 1.32 -0.66 2.64 -1 4 C-1.75925781 3.90460938 -2.51851562 3.80921875 -3.30078125 3.7109375 C-4.79158203 3.54464844 -4.79158203 3.54464844 -6.3125 3.375 C-7.79169922 3.20097656 -7.79169922 3.20097656 -9.30078125 3.0234375 C-12.22657416 2.74523005 -12.22657416 2.74523005 -15 5 C-15 4.01 -15 3.02 -15 2 C-9.77487721 0.53329887 -5.4185766 -0.22577402 0 0 Z " fill="#49C7EA" transform="translate(123,96)"/>
<path d="M0 0 C0 2.64 0 5.28 0 8 C-0.99 8 -1.98 8 -3 8 C-4.67099977 8.31088368 -6.33871537 8.64080332 -8 9 C-8 8.34 -8 7.68 -8 7 C-6.68 7 -5.36 7 -4 7 C-4.33 5.02 -4.66 3.04 -5 1 C-1.125 0 -1.125 0 0 0 Z " fill="#3ECCD0" transform="translate(34,67)"/>
<path d="M0 0 C4.62 0 9.24 0 14 0 C14.33 1.32 14.66 2.64 15 4 C14.01 4 13.02 4 12 4 C12 3.34 12 2.68 12 2 C8.37 2 4.74 2 1 2 C0.67 1.34 0.34 0.68 0 0 Z " fill="#58D9D4" transform="translate(83,45)"/>
<path d="M0 0 C3.96 0 7.92 0 12 0 C11.01 1.485 11.01 1.485 10 3 C7.6171875 3.29296875 7.6171875 3.29296875 4.875 3.1875 C3.96492188 3.16042969 3.05484375 3.13335937 2.1171875 3.10546875 C1.41851562 3.07066406 0.71984375 3.03585938 0 3 C0 2.01 0 1.02 0 0 Z " fill="#34D4D0" transform="translate(13,77)"/>
<path d="M0 0 C2 1.625 2 1.625 4 4 C4.25 7.25 4.25 7.25 4 10 C2.68 10.33 1.36 10.66 0 11 C0 7.37 0 3.74 0 0 Z " fill="#35C1C5" transform="translate(115,52)"/>
<path d="M0 0 C0.99 0 1.98 0 3 0 C3 1.65 3 3.3 3 5 C3.66 5.33 4.32 5.66 5 6 C3.68 6.99 2.36 7.98 1 9 C-0.5 7.625 -0.5 7.625 -2 6 C-2 5.34 -2 4.68 -2 4 C-1.34 4 -0.68 4 0 4 C0 2.68 0 1.36 0 0 Z " fill="#E3F7F8" transform="translate(118,48)"/>
<path d="M0 0 C0.74056641 0.00451172 1.48113281 0.00902344 2.24414062 0.01367188 C4.05862899 0.02537825 5.87307534 0.04331102 7.6875 0.0625 C7.6875 0.3925 7.6875 0.7225 7.6875 1.0625 C3.3975 1.0625 -0.8925 1.0625 -5.3125 1.0625 C-5.3125 2.7125 -5.3125 4.3625 -5.3125 6.0625 C-5.9725 6.0625 -6.6325 6.0625 -7.3125 6.0625 C-7.3125 4.7425 -7.3125 3.4225 -7.3125 2.0625 C-9.2925 2.0625 -11.2725 2.0625 -13.3125 2.0625 C-13.3125 1.7325 -13.3125 1.4025 -13.3125 1.0625 C-8.8746439 -0.04915232 -4.54293614 -0.05277763 0 0 Z " fill="#72D5E4" transform="translate(20.3125,32.9375)"/>
<path d="M0 0 C0.33 0 0.66 0 1 0 C1 2.31 1 4.62 1 7 C0.01 7.495 0.01 7.495 -1 8 C-3.03144641 7.06553465 -5.03533587 6.06775224 -7 5 C-6.401875 4.731875 -5.80375 4.46375 -5.1875 4.1875 C-3.02529834 3.01373338 -1.68375878 1.76393777 0 0 Z " fill="#40CDD3" transform="translate(59,88)"/>
<path d="M0 0 C0 0.99 0 1.98 0 3 C-1.65 3 -3.3 3 -5 3 C-5.33 4.32 -5.66 5.64 -6 7 C-7.32 7 -8.64 7 -10 7 C-9.8125 5.1875 -9.8125 5.1875 -9 3 C-5.65188866 0.46629412 -4.29875783 0 0 0 Z " fill="#6356FF" transform="translate(127,86)"/>
<path d="M0 0 C4.95 0 9.9 0 15 0 C14.67 0.99 14.34 1.98 14 3 C7.07 2.505 7.07 2.505 0 2 C0 1.34 0 0.68 0 0 Z " fill="#9ADCE8" transform="translate(7,63)"/>
<path d="M0 0 C1.5 1.1875 1.5 1.1875 3 3 C3.1875 5.6875 3.1875 5.6875 3 8 C1.66666667 8.66666667 0.33333333 9.33333333 -1 10 C-1.02689216 8.52093108 -1.04634621 7.04172517 -1.0625 5.5625 C-1.07410156 4.73878906 -1.08570312 3.91507812 -1.09765625 3.06640625 C-1 1 -1 1 0 0 Z " fill="#6B71FE" transform="translate(124,95)"/>
<path d="M0 0 C1.67542976 0.28604898 3.34385343 0.61781233 5 1 C4.67 2.32 4.34 3.64 4 5 C2.68 5.33 1.36 5.66 0 6 C-0.38218767 4.34385343 -0.71395102 2.67542976 -1 1 C-0.67 0.67 -0.34 0.34 0 0 Z " fill="#4DCFDD" transform="translate(22,67)"/>
<path d="M0 0 C3.34373475 0.55728913 6.03312999 1.35173889 9 3 C8 4 8 4 5.93359375 4.09765625 C5.10988281 4.08605469 4.28617188 4.07445312 3.4375 4.0625 C2.61121094 4.05347656 1.78492188 4.04445313 0.93359375 4.03515625 C0.29550781 4.02355469 -0.34257812 4.01195312 -1 4 C-0.67 2.68 -0.34 1.36 0 0 Z " fill="#31C7DE" transform="translate(14,59)"/>
<path d="M0 0 C0.556875 0.7115625 0.556875 0.7115625 1.125 1.4375 C3.62646962 3.52205802 5.81593418 3.64621491 9 4 C7.6875 5.5 7.6875 5.5 6 7 C5.01 7 4.02 7 3 7 C3 6.34 3 5.68 3 5 C1.35 4.67 -0.3 4.34 -2 4 C-2 3.34 -2 2.68 -2 2 C-1.34 2 -0.68 2 0 2 C0 1.34 0 0.68 0 0 Z " fill="#F5FBFD" transform="translate(19,69)"/>
<path d="M0 0 C0.66 0 1.32 0 2 0 C1.53199289 4.05606165 1.12046792 7.46588679 -1 11 C-1.66 11 -2.32 11 -3 11 C-2.69217504 9.35328588 -2.37860766 7.70764424 -2.0625 6.0625 C-1.88847656 5.14597656 -1.71445312 4.22945313 -1.53515625 3.28515625 C-1 1 -1 1 0 0 Z " fill="#DEF5F7" transform="translate(47,90)"/>
<path d="M0 0 C1.32 0 2.64 0 4 0 C4 1.98 4 3.96 4 6 C2.68 6.33 1.36 6.66 0 7 C0 4.69 0 2.38 0 0 Z " fill="#3AB1C7" transform="translate(26,59)"/>
<path d="M0 0 C1.45792884 -0.05399736 2.91642712 -0.09279177 4.375 -0.125 C5.18710937 -0.14820313 5.99921875 -0.17140625 6.8359375 -0.1953125 C9 0 9 0 11 2 C8.03 2 5.06 2 2 2 C2 2.66 2 3.32 2 4 C1.01 4 0.02 4 -1 4 C-0.67 2.68 -0.34 1.36 0 0 Z " fill="#31C3DF" transform="translate(42,45)"/>
<path d="M0 0 C3.3 0 6.6 0 10 0 C10 0.33 10 0.66 10 1 C7.36 1.33 4.72 1.66 2 2 C2 2.66 2 3.32 2 4 C1.01 4 0.02 4 -1 4 C-0.67 2.68 -0.34 1.36 0 0 Z " fill="#46AFF5" transform="translate(106,96)"/>
<path d="M0 0 C1.21346851 3.64040554 1.21346851 5.35959446 0 9 C-1.32 7.35 -2.64 5.7 -4 4 C-2.68 2.68 -1.36 1.36 0 0 Z " fill="#E3F3F9" transform="translate(41,91)"/>
<path d="M0 0 C0.33 0 0.66 0 1 0 C1.37211538 6.57403846 1.37211538 6.57403846 -0.51171875 8.73046875 C-1.00285156 9.14941406 -1.49398437 9.56835938 -2 10 C-1.85950482 8.52031676 -1.71245174 7.04125484 -1.5625 5.5625 C-1.48128906 4.73878906 -1.40007812 3.91507812 -1.31640625 3.06640625 C-1 1 -1 1 0 0 Z " fill="#6660FF" transform="translate(104,107)"/>
<path d="M0 0 C3.125 -0.1875 3.125 -0.1875 6 0 C5.67 0.99 5.34 1.98 5 3 C2.69 3 0.38 3 -2 3 C-1.34 2.01 -0.68 1.02 0 0 Z " fill="#41D9CE" transform="translate(46,102)"/>
<path d="M0 0 C3.96 0 7.92 0 12 0 C11.67 0.99 11.34 1.98 11 3 C7.37 2.34 3.74 1.68 0 1 C0 0.67 0 0.34 0 0 Z " fill="#859FFE" transform="translate(102,70)"/>
<path d="M0 0 C1.65 0 3.3 0 5 0 C5 1.32 5 2.64 5 4 C3.35 4 1.7 4 0 4 C0 2.68 0 1.36 0 0 Z " fill="#2FC4DE" transform="translate(13,65)"/>
<path d="M0 0 C3.63 0 7.26 0 11 0 C9.515 1.485 9.515 1.485 8 3 C5.15124622 2.79846293 2.74900747 1.85624823 0 1 C0 0.67 0 0.34 0 0 Z " fill="#42D9D0" transform="translate(19,46)"/>
<path d="M0 0 C0.33 0.66 0.66 1.32 1 2 C1.99 2.66 2.98 3.32 4 4 C0.875 3.47916667 -2.25 2.95833333 -5.375 2.4375 C-6.24125 2.293125 -7.1075 2.14875 -8 2 C-8 1.67 -8 1.34 -8 1 C-5.23735711 0.40267181 -2.83967231 0 0 0 Z " fill="#9AC9DE" transform="translate(15,39)"/>
<path d="M0 0 C1.32 0.33 2.64 0.66 4 1 C4 1.99 4 2.98 4 4 C1.69 4 -0.62 4 -3 4 C-2.01 2.68 -1.02 1.36 0 0 Z " fill="#7A9CFE" transform="translate(123,120)"/>
<path d="M0 0 C1.65 0.99 3.3 1.98 5 3 C3.625 5 3.625 5 2 7 C1.34 7 0.68 7 0 7 C0.2784375 6.1028125 0.2784375 6.1028125 0.5625 5.1875 C1.22093687 2.83591238 1.22093687 2.83591238 0 0 Z " fill="#EAF7FA" transform="translate(51,92)"/>
</svg>
