<?xml version="1.0" encoding="UTF-8"?>
<svg version="1.1" xmlns="http://www.w3.org/2000/svg" width="150" height="150">
<path d="M0 0 C4.455 0.99 4.455 0.99 9 2 C8.9071875 3.3921875 8.9071875 3.3921875 8.8125 4.8125 C8.74760199 7.90747504 8.74760199 7.90747504 10.125 9.875 C12.78034983 11.4682099 14.96789518 11.20214032 18 11 C18.495 12.98 18.495 12.98 19 15 C19.85464844 14.98839844 20.70929688 14.97679687 21.58984375 14.96484375 C22.69457031 14.95582031 23.79929687 14.94679688 24.9375 14.9375 C26.03964844 14.92589844 27.14179688 14.91429687 28.27734375 14.90234375 C31 15 31 15 32 16 C32.08713831 17.70772358 32.10700007 19.41898649 32.09765625 21.12890625 C32.09443359 22.16337891 32.09121094 23.19785156 32.08789062 24.26367188 C32.07951172 25.35228516 32.07113281 26.44089844 32.0625 27.5625 C32.05798828 28.65498047 32.05347656 29.74746094 32.04882812 30.87304688 C32.03699826 33.58208495 32.02051543 36.29101599 32 39 C32.66 39 33.32 39 34 39 C34.061875 39.61875 34.12375 40.2375 34.1875 40.875 C34.5896875 41.926875 34.5896875 41.926875 35 43 C35.825 43.33 36.65 43.66 37.5 44 C38.325 44.33 39.15 44.66 40 45 C40.8125 47.125 40.8125 47.125 41 49 C40.01 49 39.02 49 38 49 C38 49.763125 38 50.52625 38 51.3125 C38 57 38 57 37 59 C34.69 58.67 32.38 58.34 30 58 C30 58.99 30 59.98 30 61 C28.35 61 26.7 61 25 61 C24.01 58.525 24.01 58.525 23 56 C21.68 56 20.36 56 19 56 C18.505 53.03 18.505 53.03 18 50 C18.66 50 19.32 50 20 50 C20 48.68 20 47.36 20 46 C18.02 45.505 18.02 45.505 16 45 C16 51.6 16 58.2 16 65 C18.31 65 20.62 65 23 65 C24 66 24 66 24.11352539 69.96899414 C24.1133662 71.74105607 24.10766785 73.5131226 24.09765625 75.28515625 C24.0962413 76.21597519 24.09482635 77.14679413 24.09336853 78.1058197 C24.08775172 81.09141191 24.0751964 84.07693029 24.0625 87.0625 C24.05748716 89.08137913 24.05292388 91.10025943 24.04882812 93.11914062 C24.03777683 98.07945572 24.02050095 103.03971532 24 108 C26.31 108.66 28.62 109.32 31 110 C30 112 30 112 28.34521484 112.61450195 C23.49200924 113.41225457 18.54404055 113.18590312 13.63769531 113.18530273 C11.63863013 113.18748512 9.63960468 113.20599143 7.640625 113.22460938 C6.36960937 113.22654297 5.09859375 113.22847656 3.7890625 113.23046875 C2.63100098 113.23457764 1.47293945 113.23868652 0.27978516 113.24291992 C-3.11310954 112.99162245 -5.83332989 112.21173908 -9 111 C-8.67 110.34 -8.34 109.68 -8 109 C-5.4375 108.375 -5.4375 108.375 -3 108 C-3.67857056 107.99191315 -4.35714111 107.98382629 -5.05627441 107.97549438 C-12.19572947 107.88863335 -19.33493245 107.7891071 -26.47412109 107.68261719 C-29.12938188 107.64363425 -31.7845665 107.60971702 -34.43994141 107.578125 C-72.93926359 107.11445232 -72.93926359 107.11445232 -80 103 C-79.34 101.35 -78.68 99.7 -78 98 C-82.7897321 97.76571687 -82.7897321 97.76571687 -87 100 C-89.0625 98.5625 -89.0625 98.5625 -91 96 C-91.05823431 92.92416977 -90.59222907 90.01264352 -90 87 C-91.32 86.67 -92.64 86.34 -94 86 C-93.67 83.69 -93.34 81.38 -93 79 C-92.21625 79.04125 -91.4325 79.0825 -90.625 79.125 C-87.83883881 79.28728734 -87.83883881 79.28728734 -86 77 C-85.83312552 74.41645782 -85.83312552 74.41645782 -86 72 C-83.64561267 70.57055055 -82.51967567 69.91338739 -79.75 70.375 C-79.1725 70.58125 -78.595 70.7875 -78 71 C-77.67 69.02 -77.34 67.04 -77 65 C-83.27 65 -89.54 65 -96 65 C-96 64.34 -96 63.68 -96 63 C-93.03 62.505 -93.03 62.505 -90 62 C-90 61.01 -90 60.02 -90 59 C-91.98 59 -93.96 59 -96 59 C-96 58.34 -96 57.68 -96 57 C-94.02 57 -92.04 57 -90 57 C-90 55.68 -90 54.36 -90 53 C-91.98 53 -93.96 53 -96 53 C-96 52.34 -96 51.68 -96 51 C-94.02 51 -92.04 51 -90 51 C-90 49.68 -90 48.36 -90 47 C-91.98 47 -93.96 47 -96 47 C-96 46.34 -96 45.68 -96 45 C-94.02 45 -92.04 45 -90 45 C-90 44.01 -90 43.02 -90 42 C-91.98 41.67 -93.96 41.34 -96 41 C-96 40.67 -96 40.34 -96 40 C-89.73 40 -83.46 40 -77 40 C-77 38.35 -77 36.7 -77 35 C-83.27 35 -89.54 35 -96 35 C-96 34.67 -96 34.34 -96 34 C-93.525 33.505 -93.525 33.505 -91 33 C-90.67 31.68 -90.34 30.36 -90 29 C-91.98 29 -93.96 29 -96 29 C-96 28.67 -96 28.34 -96 28 C-94.35 27.67 -92.7 27.34 -91 27 C-90.67 25.68 -90.34 24.36 -90 23 C-91.98 23 -93.96 23 -96 23 C-96 22.67 -96 22.34 -96 22 C-94.35 21.67 -92.7 21.34 -91 21 C-90.67 19.68 -90.34 18.36 -90 17 C-91.98 17 -93.96 17 -96 17 C-96 16.67 -96 16.34 -96 16 C-90.11060037 13.95887931 -84.8280285 13.72721958 -78.625 13.8125 C-77.25408203 13.8134668 -77.25408203 13.8134668 -75.85546875 13.81445312 C-69.14064837 13.85935163 -69.14064837 13.85935163 -68 15 C-65.19023482 15.16017166 -62.40226404 15.25950534 -59.58984375 15.31640625 C-58.74780899 15.33718735 -57.90577423 15.35796844 -57.03822327 15.37937927 C-54.33806821 15.44496812 -51.63781283 15.50380276 -48.9375 15.5625 C-47.11131759 15.60567637 -45.28514546 15.64929036 -43.45898438 15.69335938 C-38.97276008 15.80065894 -34.4864345 15.90189966 -30 16 C-30 16.33 -30 16.66 -30 17 C-42.87 17 -55.74 17 -69 17 C-68.67 18.32 -68.34 19.64 -68 21 C-55.46 21.33 -42.92 21.66 -30 22 C-30 22.33 -30 22.66 -30 23 C-42.87 23 -55.74 23 -69 23 C-68.67 24.32 -68.34 25.64 -68 27 C-52.16 27 -36.32 27 -20 27 C-20.495 24.03 -20.495 24.03 -21 21 C-19.02 20.67 -17.04 20.34 -15 20 C-14.64393187 15.03448675 -14.64393187 15.03448675 -16.5 10.5625 C-16.995 10.046875 -17.49 9.53125 -18 9 C-15.69 7.02 -13.38 5.04 -11 3 C-10.01 3.99 -9.02 4.98 -8 6 C-4.37464024 6.2503577 -4.37464024 6.2503577 -1 6 C-0.67 4.02 -0.34 2.04 0 0 Z M-7 14.0625 C-9.51930235 17.76272533 -9.7066341 19.6031656 -9 24 C-7.59121904 26.9901643 -7.59121904 26.9901643 -5 29 C-1.35817665 29.89055736 -1.35817665 29.89055736 2 30 C2.03738281 29.01257813 2.07476562 28.02515625 2.11328125 27.0078125 C2.17902344 25.72648437 2.24476562 24.44515625 2.3125 23.125 C2.37050781 21.84882812 2.42851563 20.57265625 2.48828125 19.2578125 C2.65714844 18.18273437 2.82601562 17.10765625 3 16 C3.99 15.34 4.98 14.68 6 14 C4.01607489 11.60148679 4.01607489 11.60148679 0.1875 11.5625 C-3.21763815 11.661739 -4.029595 12.02034656 -7 14.0625 Z M-69 29 C-69 29.66 -69 30.32 -69 31 C-66.69 31 -64.38 31 -62 31 C-62 30.34 -62 29.68 -62 29 C-64.31 29 -66.62 29 -69 29 Z M24 47 C23.6366844 49.83386167 23.6431329 51.40522151 25.125 53.875 C27.92151052 55.55290631 29.93690532 54.74875648 33 54 C33.67673447 50.59679066 33.67673447 50.59679066 34 47 C32.11499729 44.68436913 32.11499729 44.68436913 29 44.75 C25.88500271 44.68436913 25.88500271 44.68436913 24 47 Z M-83.25 80.625 C-85.21985834 82.92308586 -85.21985834 82.92308586 -85.5 86 C-85.21376982 89.06575838 -85.21376982 89.06575838 -83.3125 91.375 C-80.61209763 93.27258004 -79.22939919 93.35882213 -76 93 C-75.85024761 85.94348748 -75.85024761 85.94348748 -77 79 C-80.92212225 78.60967296 -80.92212225 78.60967296 -83.25 80.625 Z M-71 95 C-70.67 96.65 -70.34 98.3 -70 100 C-56.635 99.01 -56.635 99.01 -43 98 C-42.67 97.01 -42.34 96.02 -42 95 C-51.57 95 -61.14 95 -71 95 Z M-18 95 C-18 95.99 -18 96.98 -18 98 C-12.72 98.33 -7.44 98.66 -2 99 C-2 97.68 -2 96.36 -2 95 C-7.28 95 -12.56 95 -18 95 Z " fill="#5C43F1" transform="translate(103,18)"/>
<path d="M0 0 C0.33 2.64 0.66 5.28 1 8 C0.030625 8.28875 -0.93875 8.5775 -1.9375 8.875 C-5.10664203 9.64214682 -5.10664203 9.64214682 -6 12 C-6.40270732 16.1283652 -6.40270732 16.1283652 -4.8125 19.8125 C-2.57968261 21.27538036 -0.62655933 21.64505955 2 22 C2 19.03 2 16.06 2 13 C3.98 13 5.96 13 8 13 C8.33 13.66 8.66 14.32 9 15 C17.25 15 25.5 15 34 15 C34.33 14.34 34.66 13.68 35 13 C48.53 13 62.06 13 76 13 C76 16.63 76 20.26 76 24 C70.72 24 65.44 24 60 24 C60 24.99 60 25.98 60 27 C60.56847656 26.98839844 61.13695313 26.97679688 61.72265625 26.96484375 C66.60670484 26.90776806 71.18503965 27.18043228 76 28 C76 30.64 76 33.28 76 36 C68.71409984 36.04682155 61.42823335 36.08211748 54.14221191 36.10362434 C50.75718789 36.11395864 47.37226851 36.12792229 43.98730469 36.15087891 C5.5625541 36.39227608 5.5625541 36.39227608 -2 32 C-1.34 30.35 -0.68 28.7 0 27 C-4.7897321 26.76571687 -4.7897321 26.76571687 -9 29 C-11.0625 27.5625 -11.0625 27.5625 -13 25 C-13.05823431 21.92416977 -12.59222907 19.01264352 -12 16 C-13.32 15.67 -14.64 15.34 -16 15 C-15.67 12.69 -15.34 10.38 -15 8 C-14.21625 8.04125 -13.4325 8.0825 -12.625 8.125 C-9.83883881 8.28728734 -9.83883881 8.28728734 -8 6 C-7.83312552 3.41645782 -7.83312552 3.41645782 -8 1 C-4.93251126 -0.86240388 -3.40254489 -1.2151946 0 0 Z M7 24 C7.33 25.65 7.66 27.3 8 29 C21.365 28.01 21.365 28.01 35 27 C35.33 26.01 35.66 25.02 36 24 C26.43 24 16.86 24 7 24 Z " fill="#B5D1FE" transform="translate(25,89)"/>
<path d="M0 0 C16.83 0 33.66 0 51 0 C51 10.23 51 20.46 51 31 C34.17 31 17.34 31 0 31 C0 20.77 0 10.54 0 0 Z " fill="#474E94" transform="translate(44,47)"/>
<path d="M0 0 C2.97 0.66 5.94 1.32 9 2 C8.9071875 3.3921875 8.9071875 3.3921875 8.8125 4.8125 C8.74760199 7.90747504 8.74760199 7.90747504 10.125 9.875 C12.78034983 11.4682099 14.96789518 11.20214032 18 11 C18.495 12.98 18.495 12.98 19 15 C20.28197266 14.98259766 20.28197266 14.98259766 21.58984375 14.96484375 C22.69457031 14.95582031 23.79929688 14.94679688 24.9375 14.9375 C26.03964844 14.92589844 27.14179688 14.91429687 28.27734375 14.90234375 C31 15 31 15 32 16 C32.08713831 17.70772358 32.10700007 19.41898649 32.09765625 21.12890625 C32.09443359 22.16337891 32.09121094 23.19785156 32.08789062 24.26367188 C32.07532227 25.8965918 32.07532227 25.8965918 32.0625 27.5625 C32.05798828 28.65498047 32.05347656 29.74746094 32.04882812 30.87304688 C32.03699826 33.58208495 32.02051543 36.29101599 32 39 C32.66 39 33.32 39 34 39 C34.061875 39.61875 34.12375 40.2375 34.1875 40.875 C34.455625 41.57625 34.72375 42.2775 35 43 C35.825 43.33 36.65 43.66 37.5 44 C38.325 44.33 39.15 44.66 40 45 C40.8125 47.125 40.8125 47.125 41 49 C40.01 49 39.02 49 38 49 C38 49.763125 38 50.52625 38 51.3125 C38 57 38 57 37 59 C34.69 58.67 32.38 58.34 30 58 C30 58.99 30 59.98 30 61 C28.35 61 26.7 61 25 61 C24.34 59.35 23.68 57.7 23 56 C21.68 56 20.36 56 19 56 C18.505 53.03 18.505 53.03 18 50 C18.66 50 19.32 50 20 50 C20 48.68 20 47.36 20 46 C18.68 45.67 17.36 45.34 16 45 C15.87625 43.906875 15.7525 42.81375 15.625 41.6875 C15.24535199 37.92618198 15.24535199 37.92618198 13 35 C13.66 35 14.32 35 15 35 C13.40733826 31.86729591 13.40733826 31.86729591 11.12060547 31.56762695 C10.37697754 31.54144287 9.63334961 31.51525879 8.8671875 31.48828125 C8.06152344 31.45283203 7.25585938 31.41738281 6.42578125 31.38085938 C5.58402344 31.35830078 4.74226563 31.33574219 3.875 31.3125 C3.02550781 31.27833984 2.17601563 31.24417969 1.30078125 31.20898438 C-0.79901105 31.12640827 -2.89948564 31.06153022 -5 31 C-5 30.34 -5 29.68 -5 29 C-2.69 29.33 -0.38 29.66 2 30 C1.94779297 28.51886719 1.94779297 28.51886719 1.89453125 27.0078125 C1.86746094 25.72648437 1.84039062 24.44515625 1.8125 23.125 C1.76029297 21.21074219 1.76029297 21.21074219 1.70703125 19.2578125 C1.80371094 18.18273437 1.90039062 17.10765625 2 16 C2.99 15.34 3.98 14.68 5 14 C3.78410016 12.56844101 3.78410016 12.56844101 0.1875 12.6875 C-2.8307722 12.74168801 -3.86175828 12.91359892 -6.5 14.5625 C-8.53366895 17.86721204 -8.3468602 20.18453778 -8 24 C-7.67 24.99 -7.34 25.98 -7 27 C-11.29 27 -15.58 27 -20 27 C-20.33 25.02 -20.66 23.04 -21 21 C-19.02 20.67 -17.04 20.34 -15 20 C-14.64393187 15.03448675 -14.64393187 15.03448675 -16.5 10.5625 C-16.995 10.046875 -17.49 9.53125 -18 9 C-15.69 7.02 -13.38 5.04 -11 3 C-10.01 3.99 -9.02 4.98 -8 6 C-4.37464024 6.2503577 -4.37464024 6.2503577 -1 6 C-0.67 4.02 -0.34 2.04 0 0 Z M24 47 C23.6366844 49.83386167 23.6431329 51.40522151 25.125 53.875 C27.92151052 55.55290631 29.93690532 54.74875648 33 54 C33.67673447 50.59679066 33.67673447 50.59679066 34 47 C32.11499729 44.68436913 32.11499729 44.68436913 29 44.75 C25.88500271 44.68436913 25.88500271 44.68436913 24 47 Z " fill="#36D6CE" transform="translate(103,18)"/>
<path d="M0 0 C2.31 0 4.62 0 7 0 C7 2.97 7 5.94 7 9 C10.3 9 13.6 9 17 9 C17 15.6 17 22.2 17 29 C12.71 29 8.42 29 4 29 C3.67 33.62 3.34 38.24 3 43 C-10.53 43 -24.06 43 -38 43 C-38 39.7 -38 36.4 -38 33 C-40.31 33.66 -42.62 34.32 -45 35 C-44.835 35.763125 -44.67 36.52625 -44.5 37.3125 C-44 40 -44 40 -44 43 C-46 44.6875 -46 44.6875 -48 46 C-48 45.01 -48 44.02 -48 43 C-48.99 43 -49.98 43 -51 43 C-51.495 45.475 -51.495 45.475 -52 48 C-52.66 48 -53.32 48 -54 48 C-53.52060632 43.28596212 -53.03165952 39.33420699 -51 35 C-52.485 35.495 -52.485 35.495 -54 36 C-55.33599181 39.00598158 -56.14345053 41.09147996 -55.625 44.375 C-55.41875 44.91125 -55.2125 45.4475 -55 46 C-55.99 45.34 -56.98 44.68 -58 44 C-60.32387947 43.60612212 -62.65793749 43.26513915 -65 43 C-65.02688151 41.35425434 -65.04634123 39.70838587 -65.0625 38.0625 C-65.07410156 37.14597656 -65.08570313 36.22945312 -65.09765625 35.28515625 C-65 33 -65 33 -64 32 C-61.85441173 31.91224395 -59.70595579 31.89304781 -57.55859375 31.90234375 C-56.25341797 31.90556641 -54.94824219 31.90878906 -53.60351562 31.91210938 C-52.2148431 31.92046599 -50.82617123 31.92893095 -49.4375 31.9375 C-48.04492344 31.94251334 -46.65234519 31.94707653 -45.25976562 31.95117188 C-41.8398013 31.96300566 -38.41992156 31.9794912 -35 32 C-34.690625 31.360625 -34.38125 30.72125 -34.0625 30.0625 C-33 28 -33 28 -32 27 C-29.79453974 26.85347285 -27.58466866 26.77250488 -25.375 26.71875 C-24.38185791 26.69113586 -24.38185791 26.69113586 -23.36865234 26.66296387 C-20.52523419 26.58405449 -17.68157041 26.51646975 -14.83789062 26.44775391 C-12.76680443 26.39611887 -10.69592797 26.33883178 -8.625 26.28125 C-7.37976563 26.25095703 -6.13453125 26.22066406 -4.8515625 26.18945312 C-2.10161697 26.32117552 -2.10161697 26.32117552 -1 25 C-0.84213692 23.14825294 -0.74892644 21.2909089 -0.68359375 19.43359375 C-0.64169922 18.30888672 -0.59980469 17.18417969 -0.55664062 16.02539062 C-0.51732422 14.84138672 -0.47800781 13.65738281 -0.4375 12.4375 C-0.37272461 10.65569336 -0.37272461 10.65569336 -0.30664062 8.83789062 C-0.20016454 5.89205216 -0.09815159 2.9461257 0 0 Z " fill="#6C72FE" transform="translate(98,54)"/>
<path d="M0 0 C2.31 0 4.62 0 7 0 C7.02505615 0.90355225 7.0501123 1.80710449 7.07592773 2.73803711 C7.17087317 6.0796428 7.27011621 9.42106252 7.37231445 12.76245117 C7.4157163 14.2106424 7.45738744 15.65888654 7.49731445 17.10717773 C7.55489062 19.18489559 7.61862028 21.26234573 7.68359375 23.33984375 C7.73858032 25.21724243 7.73858032 25.21724243 7.79467773 27.13256836 C7.67803906 29.89630504 7.67803906 29.89630504 9 31 C10.70563778 31.15740605 12.41727244 31.25093392 14.12890625 31.31640625 C15.16337891 31.35830078 16.19785156 31.40019531 17.26367188 31.44335938 C18.35228516 31.48267578 19.44089844 31.52199219 20.5625 31.5625 C21.65498047 31.60568359 22.74746094 31.64886719 23.87304688 31.69335938 C26.58189564 31.79982068 29.29083992 31.90183516 32 32 C30.87548273 34.9719385 29.77706209 37.33440687 28 40 C28 39.01 28 38.02 28 37 C18.76 37.33 9.52 37.66 0 38 C-0.33 42.95 -0.66 47.9 -1 53 C-3.31 53 -5.62 53 -8 53 C-8 46.73 -8 40.46 -8 34 C-14.27 34 -20.54 34 -27 34 C-27 33.34 -27 32.68 -27 32 C-25.02 31.67 -23.04 31.34 -21 31 C-21 30.01 -21 29.02 -21 28 C-22.98 28 -24.96 28 -27 28 C-27 27.34 -27 26.68 -27 26 C-25.02 26 -23.04 26 -21 26 C-21 24.68 -21 23.36 -21 22 C-22.98 22 -24.96 22 -27 22 C-27 21.34 -27 20.68 -27 20 C-25.02 20 -23.04 20 -21 20 C-21 18.68 -21 17.36 -21 16 C-22.98 16 -24.96 16 -27 16 C-27 15.34 -27 14.68 -27 14 C-25.02 14 -23.04 14 -21 14 C-21 13.01 -21 12.02 -21 11 C-23.97 10.505 -23.97 10.505 -27 10 C-27 9.67 -27 9.34 -27 9 C-20.73 9 -14.46 9 -8 9 C-8 7.35 -8 5.7 -8 4 C-5.36 4 -2.72 4 0 4 C0 2.68 0 1.36 0 0 Z " fill="#5E52FD" transform="translate(34,49)"/>
<path d="M0 0 C0.33 2.64 0.66 5.28 1 8 C0.030625 8.28875 -0.93875 8.5775 -1.9375 8.875 C-5.10664203 9.64214682 -5.10664203 9.64214682 -6 12 C-6.45565588 16.050918 -6.45565588 16.050918 -4.80859375 19.5859375 C-2.56396384 21.34091812 -0.55436719 21.93971804 2.1875 22.6875 C3.08855469 22.93886719 3.98960938 23.19023438 4.91796875 23.44921875 C5.60503906 23.63097656 6.29210937 23.81273438 7 24 C7.33 25.65 7.66 27.3 8 29 C8.99 28.67 9.98 28.34 11 28 C12.84466442 27.85110253 14.69357275 27.7520899 16.54296875 27.68359375 C17.61611328 27.64169922 18.68925781 27.59980469 19.79492188 27.55664062 C21.47424805 27.49766602 21.47424805 27.49766602 23.1875 27.4375 C24.31865234 27.39431641 25.44980469 27.35113281 26.61523438 27.30664062 C29.41003354 27.20050901 32.20492162 27.09845615 35 27 C34.67 27.66 34.34 28.32 34 29 C31.35139573 29.59355614 28.70802678 29.74209269 26 30 C26 30.66 26 31.32 26 32 C40.19 32 54.38 32 69 32 C68.67 31.34 68.34 30.68 68 30 C66.845 29.835 65.69 29.67 64.5 29.5 C63.345 29.335 62.19 29.17 61 29 C60.505 28.01 60.505 28.01 60 27 C65.45769811 26.88861841 70.61509359 27.08342019 76 28 C76 30.64 76 33.28 76 36 C68.71409984 36.04682155 61.42823335 36.08211748 54.14221191 36.10362434 C50.75718789 36.11395864 47.37226851 36.12792229 43.98730469 36.15087891 C5.5625541 36.39227608 5.5625541 36.39227608 -2 32 C-1.34 30.35 -0.68 28.7 0 27 C-4.7897321 26.76571687 -4.7897321 26.76571687 -9 29 C-11.0625 27.5625 -11.0625 27.5625 -13 25 C-13.05823431 21.92416977 -12.59222907 19.01264352 -12 16 C-13.32 15.67 -14.64 15.34 -16 15 C-15.67 12.69 -15.34 10.38 -15 8 C-14.21625 8.04125 -13.4325 8.0825 -12.625 8.125 C-9.83883881 8.28728734 -9.83883881 8.28728734 -8 6 C-7.83312552 3.41645782 -7.83312552 3.41645782 -8 1 C-4.93251126 -0.86240388 -3.40254489 -1.2151946 0 0 Z " fill="#EAEBF2" transform="translate(25,89)"/>
<path d="M0 0 C1.37091797 0.0009668 1.37091797 0.0009668 2.76953125 0.00195312 C9.48435163 0.04685163 9.48435163 0.04685163 10.625 1.1875 C13.43476518 1.34767166 16.22273596 1.44700534 19.03515625 1.50390625 C19.87719101 1.52468735 20.71922577 1.54546844 21.58677673 1.56687927 C24.28693179 1.63246812 26.98718717 1.69130276 29.6875 1.75 C31.51368241 1.79317637 33.33985454 1.83679036 35.16601562 1.88085938 C39.65223992 1.98815894 44.1385655 2.08939966 48.625 2.1875 C48.625 2.5175 48.625 2.8475 48.625 3.1875 C35.755 3.1875 22.885 3.1875 9.625 3.1875 C9.955 4.5075 10.285 5.8275 10.625 7.1875 C23.165 7.5175 35.705 7.8475 48.625 8.1875 C48.625 8.5175 48.625 8.8475 48.625 9.1875 C35.755 9.1875 22.885 9.1875 9.625 9.1875 C9.955 10.5075 10.285 11.8275 10.625 13.1875 C23.165 13.1875 35.705 13.1875 48.625 13.1875 C48.625 13.8475 48.625 14.5075 48.625 15.1875 C39.055 15.1875 29.485 15.1875 19.625 15.1875 C19.625 15.8475 19.625 16.5075 19.625 17.1875 C18.635 17.1875 17.645 17.1875 16.625 17.1875 C16.625 16.5275 16.625 15.8675 16.625 15.1875 C14.315 15.1875 12.005 15.1875 9.625 15.1875 C9.625 17.1675 9.625 19.1475 9.625 21.1875 C0.715 21.1875 -8.195 21.1875 -17.375 21.1875 C-17.375 20.8575 -17.375 20.5275 -17.375 20.1875 C-15.725 19.8575 -14.075 19.5275 -12.375 19.1875 C-12.045 17.8675 -11.715 16.5475 -11.375 15.1875 C-13.355 15.1875 -15.335 15.1875 -17.375 15.1875 C-17.375 14.8575 -17.375 14.5275 -17.375 14.1875 C-15.725 13.8575 -14.075 13.5275 -12.375 13.1875 C-12.045 11.8675 -11.715 10.5475 -11.375 9.1875 C-13.355 9.1875 -15.335 9.1875 -17.375 9.1875 C-17.375 8.8575 -17.375 8.5275 -17.375 8.1875 C-15.725 7.8575 -14.075 7.5275 -12.375 7.1875 C-12.045 5.8675 -11.715 4.5475 -11.375 3.1875 C-13.355 3.1875 -15.335 3.1875 -17.375 3.1875 C-17.375 2.8575 -17.375 2.5275 -17.375 2.1875 C-11.48560037 0.14637931 -6.2030285 -0.08528042 0 0 Z " fill="#92E1E0" transform="translate(24.375,31.8125)"/>
<path d="M0 0 C7.92 0 15.84 0 24 0 C24.495 1.98 24.495 1.98 25 4 C30.94 4 36.88 4 43 4 C45 8 45 8 45 10 C45.495 10.495 45.495 10.495 46 11 C46 13.31 46 15.62 46 18 C41.38 18 36.76 18 32 18 C32 15.03 32 12.06 32 9 C29.69 9 27.38 9 25 9 C25.01571045 10.12027588 25.01571045 10.12027588 25.03173828 11.26318359 C25.0732077 14.63375508 25.09929729 18.004273 25.125 21.375 C25.14175781 22.550625 25.15851563 23.72625 25.17578125 24.9375 C25.18544922 26.61972656 25.18544922 26.61972656 25.1953125 28.3359375 C25.21102295 29.89127197 25.21102295 29.89127197 25.22705078 31.47802734 C25 34 25 34 23 36 C20.76086426 36.25396729 20.76086426 36.25396729 17.93945312 36.25878906 C16.35771301 36.26824554 16.35771301 36.26824554 14.74401855 36.27789307 C13.60130493 36.2738446 12.45859131 36.26979614 11.28125 36.265625 C9.52802429 36.26849518 9.52802429 36.26849518 7.73937988 36.27142334 C5.26456487 36.27278626 2.78974274 36.26908241 0.31494141 36.26074219 C-3.48421205 36.25004446 -7.28289259 36.26063418 -11.08203125 36.2734375 C-13.48177188 36.27211592 -15.88151222 36.26955357 -18.28125 36.265625 C-19.99532043 36.27169769 -19.99532043 36.27169769 -21.74401855 36.27789307 C-22.79851196 36.27158875 -23.85300537 36.26528442 -24.93945312 36.25878906 C-25.8705188 36.25719788 -26.80158447 36.25560669 -27.76086426 36.25396729 C-30 36 -30 36 -32 34 C-32.22705078 31.01904297 -32.22705078 31.01904297 -32.1953125 27.2421875 C-32.1924826 26.57913605 -32.18965271 25.91608459 -32.18673706 25.23294067 C-32.17553435 23.11344417 -32.15043051 20.99436896 -32.125 18.875 C-32.11497028 17.43880818 -32.10584441 16.00260975 -32.09765625 14.56640625 C-32.075595 11.04413372 -32.04106494 7.52210797 -32 4 C-31.01 4 -30.02 4 -29 4 C-29 13.57 -29 23.14 -29 33 C-12.17 33 4.66 33 22 33 C22 22.77 22 12.54 22 2 C14.74 2 7.48 2 0 2 C0 1.34 0 0.68 0 0 Z " fill="#39C6D7" transform="translate(73,45)"/>
<path d="M0 0 C2.31 0 4.62 0 7 0 C7 2.97 7 5.94 7 9 C10.3 9 13.6 9 17 9 C17 15.6 17 22.2 17 29 C12.71 29 8.42 29 4 29 C3.67 33.62 3.34 38.24 3 43 C-1.62 43 -6.24 43 -11 43 C-9.02 40.525 -9.02 40.525 -7 38 C-3.25 37.6875 -3.25 37.6875 0 38 C0 35.69 0 33.38 0 31 C-2.31 31 -4.62 31 -7 31 C-7 32.98 -7 34.96 -7 37 C-7.66 37 -8.32 37 -9 37 C-9 35.02 -9 33.04 -9 31 C-10.32 31 -11.64 31 -13 31 C-13 29.68 -13 28.36 -13 27 C-12.21753906 26.93941406 -11.43507813 26.87882812 -10.62890625 26.81640625 C-9.61699219 26.73261719 -8.60507813 26.64882812 -7.5625 26.5625 C-6.55316406 26.48128906 -5.54382813 26.40007812 -4.50390625 26.31640625 C-2.06359221 26.26788532 -2.06359221 26.26788532 -1 25 C-0.84213692 23.14825294 -0.74892644 21.2909089 -0.68359375 19.43359375 C-0.64169922 18.30888672 -0.59980469 17.18417969 -0.55664062 16.02539062 C-0.51732422 14.84138672 -0.47800781 13.65738281 -0.4375 12.4375 C-0.39431641 11.24962891 -0.35113281 10.06175781 -0.30664062 8.83789062 C-0.20016454 5.89205216 -0.09815159 2.9461257 0 0 Z " fill="#7285FD" transform="translate(98,54)"/>
<path d="M0 0 C3.0000624 -0.02721831 5.99987256 -0.04694378 9 -0.0625 C9.83917969 -0.07087891 10.67835937 -0.07925781 11.54296875 -0.08789062 C12.79013672 -0.09272461 12.79013672 -0.09272461 14.0625 -0.09765625 C15.19365234 -0.10551147 15.19365234 -0.10551147 16.34765625 -0.11352539 C19.91451913 0.03914317 23.45744034 0.55718004 27 1 C27 7.93 27 14.86 27 22 C20.07 22 13.14 22 6 22 C6 21.01 6 20.02 6 19 C4.02 19 2.04 19 0 19 C0 18.34 0 17.68 0 17 C1.98 17 3.96 17 6 17 C6 15.68 6 14.36 6 13 C4.02 13 2.04 13 0 13 C0 12.34 0 11.68 0 11 C1.98 11 3.96 11 6 11 C6 9.68 6 8.36 6 7 C4.02 7 2.04 7 0 7 C0 6.34 0 5.68 0 5 C1.98 5 3.96 5 6 5 C6 4.01 6 3.02 6 2 C3.03 1.505 3.03 1.505 0 1 C0 0.67 0 0.34 0 0 Z " fill="#88DAE5" transform="translate(7,58)"/>
<path d="M0 0 C-0.99 0.66 -1.98 1.32 -3 2 C-4.02110539 4.87116002 -4.02110539 4.87116002 -4.6875 8.125 C-4.93886719 9.22070312 -5.19023438 10.31640625 -5.44921875 11.4453125 C-5.63097656 12.28835937 -5.81273437 13.13140625 -6 14 C-5.34 14 -4.68 14 -4 14 C-3.67 12.35 -3.34 10.7 -3 9 C-2.01 9 -1.02 9 0 9 C0.33 9.66 0.66 10.32 1 11 C1.99 9.68 2.98 8.36 4 7 C3.34 6.34 2.68 5.68 2 5 C2.375 2.375 2.375 2.375 3 0 C6.465 -0.495 6.465 -0.495 10 -1 C10 2.3 10 5.6 10 9 C23.53 9 37.06 9 51 9 C51 10.65 51 12.3 51 14 C37.47 14 23.94 14 10 14 C9.67 14.99 9.34 15.98 9 17 C4.85418113 17.02886751 0.70838784 17.04675327 -3.4375 17.0625 C-5.21350586 17.07506836 -5.21350586 17.07506836 -7.02539062 17.08789062 C-8.15009766 17.09111328 -9.27480469 17.09433594 -10.43359375 17.09765625 C-11.99678345 17.10551147 -11.99678345 17.10551147 -13.59155273 17.11352539 C-16 17 -16 17 -17 16 C-17.04092937 13.66702567 -17.04241723 11.33294775 -17 9 C-13.625 8.875 -13.625 8.875 -10 9 C-9.34 9.66 -8.68 10.32 -8 11 C-8.226875 10.46375 -8.45375 9.9275 -8.6875 9.375 C-9.1528547 5.83830431 -7.86734965 3.96200289 -6 1 C-2.65822785 -1.32911392 -2.65822785 -1.32911392 0 0 Z " fill="#39D8C8" transform="translate(50,88)"/>
<path d="M0 0 C2.97 0.66 5.94 1.32 9 2 C8.9071875 3.3921875 8.9071875 3.3921875 8.8125 4.8125 C8.74760199 7.90747504 8.74760199 7.90747504 10.125 9.875 C12.78034983 11.4682099 14.96789518 11.20214032 18 11 C18.495 12.98 18.495 12.98 19 15 C16.87527424 15.05386629 14.75016348 15.09273071 12.625 15.125 C10.84996094 15.15980469 10.84996094 15.15980469 9.0390625 15.1953125 C6 15 6 15 4 13 C-1.56377652 12.41262964 -1.56377652 12.41262964 -6.5 14.5625 C-8.53366895 17.86721204 -8.3468602 20.18453778 -8 24 C-7.67 24.99 -7.34 25.98 -7 27 C-11.29 27 -15.58 27 -20 27 C-20.33 25.02 -20.66 23.04 -21 21 C-19.02 20.67 -17.04 20.34 -15 20 C-14.64393187 15.03448675 -14.64393187 15.03448675 -16.5 10.5625 C-16.995 10.046875 -17.49 9.53125 -18 9 C-15.69 7.02 -13.38 5.04 -11 3 C-10.01 3.99 -9.02 4.98 -8 6 C-4.37464024 6.2503577 -4.37464024 6.2503577 -1 6 C-0.67 4.02 -0.34 2.04 0 0 Z " fill="#E8EBF1" transform="translate(103,18)"/>
<path d="M0 0 C1.58206057 0.00667536 3.16410534 0.0186375 4.74609375 0.03515625 C5.55240234 0.03966797 6.35871094 0.04417969 7.18945312 0.04882812 C9.18753131 0.06065107 11.18557158 0.07858711 13.18359375 0.09765625 C13.86311849 1.84733073 14.54264323 3.59700521 15.22216797 5.34667969 C16.79131542 8.20445662 19.45916218 9.4393066 22.18359375 11.09765625 C22.67859375 12.58265625 22.67859375 12.58265625 23.18359375 14.09765625 C17.24359375 14.59265625 17.24359375 14.59265625 11.18359375 15.09765625 C11.18359375 16.74765625 11.18359375 18.39765625 11.18359375 20.09765625 C12.17359375 20.42765625 13.16359375 20.75765625 14.18359375 21.09765625 C13.19359375 22.08765625 12.20359375 23.07765625 11.18359375 24.09765625 C7.30859375 22.34765625 7.30859375 22.34765625 6.18359375 20.09765625 C6.84359375 20.09765625 7.50359375 20.09765625 8.18359375 20.09765625 C6.59093201 16.96495216 6.59093201 16.96495216 4.30419922 16.6652832 C3.56057129 16.63909912 2.81694336 16.61291504 2.05078125 16.5859375 C1.24511719 16.55048828 0.43945312 16.51503906 -0.390625 16.47851562 C-1.23238281 16.45595703 -2.07414062 16.43339844 -2.94140625 16.41015625 C-3.79089844 16.37599609 -4.64039062 16.34183594 -5.515625 16.30664062 C-7.6154173 16.22406452 -9.71589189 16.15918647 -11.81640625 16.09765625 C-11.81640625 15.43765625 -11.81640625 14.77765625 -11.81640625 14.09765625 C-9.50640625 14.42765625 -7.19640625 14.75765625 -4.81640625 15.09765625 C-4.82800781 14.09863281 -4.83960937 13.09960938 -4.8515625 12.0703125 C-4.86058594 10.77996094 -4.86960937 9.48960938 -4.87890625 8.16015625 C-4.89050781 6.87238281 -4.90210937 5.58460937 -4.9140625 4.2578125 C-4.77221615 -0.33233549 -4.72778272 0.12097704 0 0 Z " fill="#78D7E4" transform="translate(109.81640625,32.90234375)"/>
<path d="M0 0 C1.32 0 2.64 0 4 0 C4 6.6 4 13.2 4 20 C6.31 20 8.62 20 11 20 C12 21 12 21 12.11352539 22.85766602 C12.10828857 23.64842529 12.10305176 24.43918457 12.09765625 25.25390625 C12.09443359 26.10791016 12.09121094 26.96191406 12.08789062 27.84179688 C12.07951172 28.73962891 12.07113281 29.63746094 12.0625 30.5625 C12.05798828 31.46419922 12.05347656 32.36589844 12.04882812 33.29492188 C12.03700225 35.53001314 12.0205222 37.76497437 12 40 C10.02 40.495 10.02 40.495 8 41 C8 38.36 8 35.72 8 33 C2.39 33 -3.22 33 -9 33 C-5.625 27.375 -5.625 27.375 -1 26 C-5.33420699 23.96834048 -9.28596212 23.47939368 -14 23 C-13.505 21.515 -13.505 21.515 -13 20 C-8.71 20 -4.42 20 0 20 C0 13.4 0 6.8 0 0 Z " fill="#5E4CFA" transform="translate(115,63)"/>
<path d="M0 0 C1.58206422 0.00574487 3.16410406 0.01876032 4.74609375 0.03515625 C7.53046875 0.05578125 10.31484375 0.07640625 13.18359375 0.09765625 C13.18359375 6.03765625 13.18359375 11.97765625 13.18359375 18.09765625 C10.39921875 18.11828125 7.61484375 18.13890625 4.74609375 18.16015625 C3.86767822 18.16926025 2.9892627 18.17836426 2.08422852 18.18774414 C0.11713401 18.19488716 -1.84994246 18.14797518 -3.81640625 18.09765625 C-5.63756628 16.27649622 -4.94875705 13.79093861 -4.953125 11.37109375 C-4.94925781 10.62085937 -4.94539063 9.870625 -4.94140625 9.09765625 C-4.94527344 8.34742187 -4.94914062 7.5971875 -4.953125 6.82421875 C-4.94103514 0.12643386 -4.94103514 0.12643386 0 0 Z " fill="#3ED0E3" transform="translate(109.81640625,95.90234375)"/>
<path d="M0 0 C0.99 0 1.98 0 3 0 C3 6.93 3 13.86 3 21 C-5.25 21 -13.5 21 -22 21 C-22.125 8.25 -22.125 8.25 -21 6 C-20.34 6 -19.68 6 -19 6 C-18.67 7.32 -18.34 8.64 -18 10 C-12.39 10.33 -6.78 10.66 -1 11 C-1.020625 9.370625 -1.04125 7.74125 -1.0625 6.0625 C-1.08386068 4.37500659 -1.07205511 2.68608966 -1 1 C-0.67 0.67 -0.34 0.34 0 0 Z " fill="#7286FE" transform="translate(124,103)"/>
<path d="M0 0 C5.61 0 11.22 0 17 0 C17 5.61 17 11.22 17 17 C11.39 17 5.78 17 0 17 C0 11.39 0 5.78 0 0 Z " fill="#3E4E9A" transform="translate(15,34)"/>
<path d="M0 0 C4.95 0 9.9 0 15 0 C15 1.98 15 3.96 15 6 C15.66 6 16.32 6 17 6 C17 4.02 17 2.04 17 0 C19.31 0 21.62 0 24 0 C24 2.31 24 4.62 24 7 C21.69 7.33 19.38 7.66 17 8 C17 8.66 17 9.32 17 10 C13.5233662 12.14336161 10.78770805 12.21277626 6.75 12.125 C5.67234375 12.10695313 4.5946875 12.08890625 3.484375 12.0703125 C2.66453125 12.04710938 1.8446875 12.02390625 1 12 C-0.03405665 7.7345163 0 4.62683027 0 0 Z " fill="#7588FE" transform="translate(74,85)"/>
<path d="M0 0 C1.5631897 0.00785522 1.5631897 0.00785522 3.15795898 0.01586914 C4.28266602 0.0190918 5.40737305 0.02231445 6.56616211 0.02563477 C7.75016602 0.03401367 8.93416992 0.04239258 10.15405273 0.05102539 C11.34192383 0.05553711 12.52979492 0.06004883 13.75366211 0.06469727 C16.69967499 0.07652864 19.64558954 0.09301252 22.59155273 0.11352539 C20.45300424 2.25207389 19.4587996 2.54007602 16.59155273 3.11352539 C16.83905273 4.25821289 16.83905273 4.25821289 17.09155273 5.42602539 C17.59155273 8.11352539 17.59155273 8.11352539 17.59155273 11.11352539 C15.59155273 12.80102539 15.59155273 12.80102539 13.59155273 14.11352539 C13.59155273 13.12352539 13.59155273 12.13352539 13.59155273 11.11352539 C12.60155273 11.11352539 11.61155273 11.11352539 10.59155273 11.11352539 C10.26155273 12.76352539 9.93155273 14.41352539 9.59155273 16.11352539 C8.93155273 16.11352539 8.27155273 16.11352539 7.59155273 16.11352539 C8.07094642 11.39948751 8.55989321 7.44773238 10.59155273 3.11352539 C9.60155273 3.44352539 8.61155273 3.77352539 7.59155273 4.11352539 C6.25556092 7.11950697 5.4481022 9.20500536 5.96655273 12.48852539 C6.17280273 13.02477539 6.37905273 13.56102539 6.59155273 14.11352539 C5.60155273 13.45352539 4.61155273 12.79352539 3.59155273 12.11352539 C1.26767327 11.71964751 -1.06638476 11.37866454 -3.40844727 11.11352539 C-3.43532877 9.46777973 -3.4547885 7.82191126 -3.47094727 6.17602539 C-3.48254883 5.25950195 -3.49415039 4.34297852 -3.50610352 3.39868164 C-3.37081445 0.23291744 -3.1699095 0.14941793 0 0 Z " fill="#43AAE5" transform="translate(36.408447265625,85.886474609375)"/>
<path d="M0 0 C13.53 0 27.06 0 41 0 C41 1.65 41 3.3 41 5 C27.47 5 13.94 5 0 5 C0 3.35 0 1.7 0 0 Z " fill="#3C3D89" transform="translate(60,97)"/>
<path d="M0 0 C0.99 0 1.98 0 3 0 C3 9.57 3 19.14 3 29 C12.24 29 21.48 29 31 29 C31 29.33 31 29.66 31 30 C38.92 30.33 46.84 30.66 55 31 C55 31.33 55 31.66 55 32 C47.48863592 32.05057965 39.97731551 32.08568257 32.46582031 32.10986328 C29.90883747 32.11994038 27.35186621 32.13360226 24.79492188 32.15087891 C21.12627308 32.17505217 17.45777621 32.18646585 13.7890625 32.1953125 C12.0655809 32.21079636 12.0655809 32.21079636 10.30728149 32.22659302 C9.2463327 32.22674408 8.18538391 32.22689514 7.09228516 32.22705078 C6.15518707 32.231492 5.21808899 32.23593323 4.25259399 32.24050903 C2 32 2 32 0 30 C-0.22705078 27.01904297 -0.22705078 27.01904297 -0.1953125 23.2421875 C-0.1924826 22.57913605 -0.18965271 21.91608459 -0.18673706 21.23294067 C-0.17553435 19.11344417 -0.15043051 16.99436896 -0.125 14.875 C-0.11497028 13.43880818 -0.10584441 12.00260975 -0.09765625 10.56640625 C-0.075595 7.04413372 -0.04106494 3.52210797 0 0 Z " fill="#41ABE2" transform="translate(41,49)"/>
<path d="M0 0 C3.97915159 -0.02886984 7.95827653 -0.04675406 11.9375 -0.0625 C13.07380859 -0.07087891 14.21011719 -0.07925781 15.38085938 -0.08789062 C16.46044922 -0.09111328 17.54003906 -0.09433594 18.65234375 -0.09765625 C20.15269165 -0.10551147 20.15269165 -0.10551147 21.68334961 -0.11352539 C24 0 24 0 25 1 C25.10082764 3.43660446 25.13972603 5.84424701 25.1328125 8.28125 C25.13424759 9.37427429 25.13424759 9.37427429 25.13571167 10.48937988 C25.13639335 12.0327971 25.13453988 13.57621717 25.13037109 15.11962891 C25.12502262 17.489974 25.13031642 19.86012959 25.13671875 22.23046875 C25.13605797 23.72656292 25.1347768 25.22265697 25.1328125 26.71875 C25.13483673 27.43228638 25.13686096 28.14582275 25.13894653 28.88098145 C25.11495191 33.88504809 25.11495191 33.88504809 24 35 C22.07332493 35.08748207 20.14348139 35.10697334 18.21484375 35.09765625 C16.46010742 35.09282227 16.46010742 35.09282227 14.66992188 35.08789062 C12.82237305 35.07532227 12.82237305 35.07532227 10.9375 35.0625 C9.08415039 35.05573242 9.08415039 35.05573242 7.19335938 35.04882812 C4.12885883 35.03699608 1.06445279 35.02051173 -2 35 C-1.67 34.34 -1.34 33.68 -1 33 C6.59 33 14.18 33 22 33 C22 22.77 22 12.54 22 2 C14.74 2 7.48 2 0 2 C0 1.34 0 0.68 0 0 Z " fill="#37D1C9" transform="translate(73,45)"/>
<path d="M0 0 C0.66 0 1.32 0 2 0 C2.061875 0.61875 2.12375 1.2375 2.1875 1.875 C2.455625 2.57625 2.72375 3.2775 3 4 C4.2375 4.495 4.2375 4.495 5.5 5 C6.7375 5.495 6.7375 5.495 8 6 C8.8125 8.125 8.8125 8.125 9 10 C8.01 10 7.02 10 6 10 C6 10.763125 6 11.52625 6 12.3125 C6 18 6 18 5 20 C2.69 19.67 0.38 19.34 -2 19 C-2 19.99 -2 20.98 -2 22 C-3.65 22 -5.3 22 -7 22 C-7.66 20.35 -8.32 18.7 -9 17 C-10.32 17 -11.64 17 -13 17 C-13.33 15.02 -13.66 13.04 -14 11 C-13.34 11 -12.68 11 -12 11 C-12 9.35 -12 7.7 -12 6 C-10.02 6 -8.04 6 -6 6 C-6.20625 7.11375 -6.4125 8.2275 -6.625 9.375 C-6.810625 11.169375 -6.810625 11.169375 -7 13 C-5.10244856 15.34973818 -5.10244856 15.34973818 -1.875 15.125 C-0.451875 15.063125 -0.451875 15.063125 1 15 C1.29562367 9.67829506 1.29562367 9.67829506 -1 5 C-0.625 2.3125 -0.625 2.3125 0 0 Z " fill="#EAEBF2" transform="translate(135,57)"/>
<path d="M0 0 C2.64 0 5.28 0 8 0 C8 6.93 8 13.86 8 21 C1.07 21 -5.86 21 -13 21 C-13 20.01 -13 19.02 -13 18 C-9.37 18 -5.74 18 -2 18 C-2 17.34 -2 16.68 -2 16 C-0.68 15.67 0.64 15.34 2 15 C2.66 12.36 3.32 9.72 4 7 C3.01 7 2.02 7 1 7 C0.67 4.69 0.34 2.38 0 0 Z " fill="#35D0D1" transform="translate(26,59)"/>
<path d="M0 0 C1.32 0 2.64 0 4 0 C4 6.6 4 13.2 4 20 C6.31 20 8.62 20 11 20 C11.33 20.99 11.66 21.98 12 23 C3.19039858 24.30512614 -5.19039858 24.30512614 -14 23 C-13.505 21.515 -13.505 21.515 -13 20 C-8.71 20 -4.42 20 0 20 C0 13.4 0 6.8 0 0 Z " fill="#4C4CA1" transform="translate(115,63)"/>
<path d="M0 0 C1.98 0 3.96 0 6 0 C6.33 0.66 6.66 1.32 7 2 C9.8159849 2.46898963 9.8159849 2.46898963 13.0625 2.625 C14.71958984 2.73714844 14.71958984 2.73714844 16.41015625 2.8515625 C17.26480469 2.90054688 18.11945312 2.94953125 19 3 C19 3.66 19 4.32 19 5 C20.32 4.67 21.64 4.34 23 4 C23 4.99 23 5.98 23 7 C22.278125 7.103125 21.55625 7.20625 20.8125 7.3125 C17.95619486 7.84063068 17.95619486 7.84063068 15.71484375 9.52734375 C12.47612567 11.28417356 10.40743247 11.34008454 6.75 11.25 C5.69296875 11.23453125 4.6359375 11.2190625 3.546875 11.203125 C1 11 1 11 0 10 C-0.07205511 8.31391034 -0.08386068 6.62499341 -0.0625 4.9375 C-0.05347656 4.01839844 -0.04445313 3.09929687 -0.03515625 2.15234375 C-0.02355469 1.44207031 -0.01195313 0.73179688 0 0 Z " fill="#C5DCFE" transform="translate(27,102)"/>
<path d="M0 0 C1.45792884 -0.05399736 2.91642712 -0.09279177 4.375 -0.125 C5.18710938 -0.14820312 5.99921875 -0.17140625 6.8359375 -0.1953125 C9 0 9 0 11 2 C10.67 2.66 10.34 3.32 10 4 C12.88167681 4.80652508 15.56031547 5.17515006 18.546875 5.31640625 C19.39121094 5.35830078 20.23554687 5.40019531 21.10546875 5.44335938 C22.41451172 5.50233398 22.41451172 5.50233398 23.75 5.5625 C24.63816406 5.60568359 25.52632812 5.64886719 26.44140625 5.69335938 C28.62745963 5.79913615 30.81362089 5.90122546 33 6 C33 6.66 33 7.32 33 8 C18.81 8 4.62 8 -10 8 C-10 7.34 -10 6.68 -10 6 C-7.98177083 5.609375 -5.96354167 5.21875 -3.9453125 4.828125 C-1.80995329 4.14287884 -1.80995329 4.14287884 -0.7421875 1.921875 C-0.49726562 1.28765625 -0.25234375 0.6534375 0 0 Z " fill="#9DC2FE" transform="translate(61,113)"/>
<path d="M0 0 C2.31 0 4.62 0 7 0 C7 4.62 7 9.24 7 14 C5.68 14 4.36 14 3 14 C3.99 15.485 3.99 15.485 5 17 C4.67 17.99 4.34 18.98 4 20 C4 19.34 4 18.68 4 18 C3.01 18.33 2.02 18.66 1 19 C0.67 16.03 0.34 13.06 0 10 C-2.64 10 -5.28 10 -8 10 C-8 8.02 -8 6.04 -8 4 C-5.36 4 -2.72 4 0 4 C0 2.68 0 1.36 0 0 Z " fill="#5833FF" transform="translate(34,49)"/>
<path d="M0 0 C1.31871094 -0.01224609 2.63742188 -0.02449219 3.99609375 -0.03710938 C5.90068359 -0.04000977 5.90068359 -0.04000977 7.84375 -0.04296875 C9.00068359 -0.04707764 10.15761719 -0.05118652 11.34960938 -0.05541992 C14.47736509 0.18575467 16.680892 0.85423629 19.5 2.1875 C18.5 4.1875 18.5 4.1875 16.84521484 4.80200195 C11.99200924 5.59975457 7.04404055 5.37340312 2.13769531 5.37280273 C0.13863013 5.37498512 -1.86039532 5.39349143 -3.859375 5.41210938 C-5.13039063 5.41404297 -6.40140625 5.41597656 -7.7109375 5.41796875 C-8.86899902 5.42207764 -10.02706055 5.42618652 -11.22021484 5.43041992 C-14.61310954 5.17912245 -17.33332989 4.39923908 -20.5 3.1875 C-20.17 2.5275 -19.84 1.8675 -19.5 1.1875 C-13.23640183 -0.60566158 -6.45139424 0.00315317 0 0 Z " fill="#EAEBF2" transform="translate(114.5,125.8125)"/>
<path d="M0 0 C0 5.61 0 11.22 0 17 C0.99 17 1.98 17 3 17 C3 18.65 3 20.3 3 22 C0.69 22 -1.62 22 -4 22 C-4 15.73 -4 9.46 -4 3 C-10.27 3 -16.54 3 -23 3 C-23 2.34 -23 1.68 -23 1 C-19.91675903 0.83159521 -16.83339379 0.66558138 -13.75 0.5 C-12.87730469 0.45230469 -12.00460938 0.40460938 -11.10546875 0.35546875 C-10.26113281 0.31035156 -9.41679687 0.26523438 -8.546875 0.21875 C-7.38430176 0.1559082 -7.38430176 0.1559082 -6.19824219 0.09179688 C-4.13373418 0.00558463 -2.0663073 0 0 0 Z " fill="#6E72A9" transform="translate(30,80)"/>
<path d="M0 0 C1.32 0 2.64 0 4 0 C4 0.99 4 1.98 4 3 C4.99 3 5.98 3 7 3 C6.67 5.64 6.34 8.28 6 11 C3.09399739 12.25664978 1.20395416 13 -2 13 C-2.33 12.34 -2.66 11.68 -3 11 C-3.99 10.67 -4.98 10.34 -6 10 C-6 9.01 -6 8.02 -6 7 C-5.34 7 -4.68 7 -4 7 C-4.33 5.35 -4.66 3.7 -5 2 C-4.34 1.67 -3.68 1.34 -3 1 C-2.01 1.33 -1.02 1.66 0 2 C0 1.34 0 0.68 0 0 Z " fill="#E6F7F9" transform="translate(23,63)"/>
<path d="M0 0 C0.66 0 1.32 0 2 0 C2.33 1.32 2.66 2.64 3 4 C7.29 4.33 11.58 4.66 16 5 C13.78986455 7.21013545 11.50031 9.1247675 9 11 C8.34 11 7.68 11 7 11 C7 11.66 7 12.32 7 13 C6.01 13 5.02 13 4 13 C3.67 13.66 3.34 14.32 3 15 C1.68 15 0.36 15 -1 15 C-1.02693575 12.87506859 -1.04636628 10.75004088 -1.0625 8.625 C-1.07410156 7.44164063 -1.08570312 6.25828125 -1.09765625 5.0390625 C-1 2 -1 2 0 0 Z " fill="#6C73FE" transform="translate(103,109)"/>
<path d="M0 0 C0 4.62 0 9.24 0 14 C-4.95 14 -9.9 14 -15 14 C-15 13.34 -15 12.68 -15 12 C-14.34 12 -13.68 12 -13 12 C-12.67 11.01 -12.34 10.02 -12 9 C-11.360625 8.87625 -10.72125 8.7525 -10.0625 8.625 C-9.381875 8.41875 -8.70125 8.2125 -8 8 C-7.690625 7.21625 -7.38125 6.4325 -7.0625 5.625 C-5.87314771 2.68660022 -3.50407317 0 0 0 Z " fill="#38D8D8" transform="translate(123,100)"/>
<path d="M0 0 C2.841067 1.79355129 5.49365159 3.76082579 8 6 C8 6.33 8 6.66 8 7 C0.41 7 -7.18 7 -15 7 C-15 6.34 -15 5.68 -15 5 C-13.824375 4.87625 -13.824375 4.87625 -12.625 4.75 C-9.85955198 4.28474077 -9.85955198 4.28474077 -8.8125 2 C-8.544375 1.34 -8.27625 0.68 -8 0 C-4.93256346 -1.53371827 -3.29840304 -0.91622307 0 0 Z " fill="#F5FCFC" transform="translate(125,39)"/>
<path d="M0 0 C0.33 0 0.66 0 1 0 C1.02684312 2.81256281 1.04676188 5.62487241 1.0625 8.4375 C1.07087891 9.23994141 1.07925781 10.04238281 1.08789062 10.86914062 C1.0965143 12.91295221 1.0522815 14.95683902 1 17 C0 18 0 18 -2.06640625 18.09765625 C-2.89011719 18.08605469 -3.71382812 18.07445313 -4.5625 18.0625 C-5.38878906 18.05347656 -6.21507813 18.04445313 -7.06640625 18.03515625 C-8.02353516 18.01775391 -8.02353516 18.01775391 -9 18 C-8.505 16.515 -8.505 16.515 -8 15 C-8 14.01 -8 13.02 -8 12 C-8 10.68 -8 9.36 -8 8 C-7.401875 7.731875 -6.80375 7.46375 -6.1875 7.1875 C-2.68911463 5.28837651 -1.26654546 3.79963639 0 0 Z " fill="#36DEC4" transform="translate(134,45)"/>
<path d="M0 0 C1.60488281 0.07734375 1.60488281 0.07734375 3.2421875 0.15625 C4.35335937 0.22070312 5.46453125 0.28515625 6.609375 0.3515625 C7.73601562 0.40828125 8.86265625 0.465 10.0234375 0.5234375 C12.80274028 0.66475798 15.5811191 0.81615658 18.359375 0.9765625 C18.359375 1.3065625 18.359375 1.6365625 18.359375 1.9765625 C12.419375 2.4715625 12.419375 2.4715625 6.359375 2.9765625 C6.359375 4.6265625 6.359375 6.2765625 6.359375 7.9765625 C7.349375 8.3065625 8.339375 8.6365625 9.359375 8.9765625 C8.369375 9.9665625 7.379375 10.9565625 6.359375 11.9765625 C2.484375 10.2265625 2.484375 10.2265625 1.359375 7.9765625 C2.019375 7.9765625 2.679375 7.9765625 3.359375 7.9765625 C1.76671326 4.84385841 1.76671326 4.84385841 -0.52001953 4.54418945 C-1.26364746 4.51800537 -2.00727539 4.49182129 -2.7734375 4.46484375 C-3.98193359 4.41166992 -3.98193359 4.41166992 -5.21484375 4.35742188 C-6.05660156 4.33486328 -6.89835937 4.31230469 -7.765625 4.2890625 C-8.61511719 4.25490234 -9.46460937 4.22074219 -10.33984375 4.18554688 C-12.43963605 4.10297077 -14.54011064 4.03809272 -16.640625 3.9765625 C-16.640625 3.3165625 -16.640625 2.6565625 -16.640625 1.9765625 C-15.031875 2.0384375 -15.031875 2.0384375 -13.390625 2.1015625 C-9.83601261 2.2602699 -9.83601261 2.2602699 -7.75878906 0.96728516 C-5.00475248 -0.32085228 -3.02575726 -0.16094453 0 0 Z " fill="#80DDE3" transform="translate(114.640625,45.0234375)"/>
<path d="M0 0 C2.31 0 4.62 0 7 0 C7.78397866 9.94781811 7.78397866 9.94781811 4.625 14.1875 C2 16 2 16 0 16 C0 10.72 0 5.44 0 0 Z " fill="#6C75FE" transform="translate(98,54)"/>
<path d="M0 0 C-2.1385485 2.1385485 -3.13275314 2.42655063 -6 3 C-5.835 3.763125 -5.67 4.52625 -5.5 5.3125 C-5 8 -5 8 -5 11 C-7 12.6875 -7 12.6875 -9 14 C-9 13.01 -9 12.02 -9 11 C-9.99 11 -10.98 11 -12 11 C-12.33 12.65 -12.66 14.3 -13 16 C-13.66 16 -14.32 16 -15 16 C-13.89264706 5.11102941 -13.89264706 5.11102941 -10.375 1.1875 C-6.84016181 -0.5799191 -3.92581331 -0.19629067 0 0 Z " fill="#3EBDDA" transform="translate(59,86)"/>
<path d="M0 0 C5.94 0 11.88 0 18 0 C18 3 18 3 17 5 C11.39 5 5.78 5 0 5 C0 3.35 0 1.7 0 0 Z " fill="#34ACC5" transform="translate(98,49)"/>
<path d="M0 0 C1.93166016 0.01740234 1.93166016 0.01740234 3.90234375 0.03515625 C5.19269531 0.04417969 6.48304687 0.05320312 7.8125 0.0625 C8.81152344 0.07410156 9.81054688 0.08570312 10.83984375 0.09765625 C9.90011719 0.78794922 9.90011719 0.78794922 8.94140625 1.4921875 C6.8353093 3.01718874 6.8353093 3.01718874 5.21484375 4.78515625 C3.83984375 6.09765625 3.83984375 6.09765625 1.83984375 6.09765625 C1.83984375 6.75765625 1.83984375 7.41765625 1.83984375 8.09765625 C1.20046875 8.36578125 0.56109375 8.63390625 -0.09765625 8.91015625 C-2.49147311 9.98433377 -2.49147311 9.98433377 -3.16015625 13.09765625 C-3.49015625 13.09765625 -3.82015625 13.09765625 -4.16015625 13.09765625 C-4.18702178 11.11856227 -4.20649 9.13936654 -4.22265625 7.16015625 C-4.23425781 6.05800781 -4.24585937 4.95585938 -4.2578125 3.8203125 C-4.11749553 -0.09172464 -3.97435676 0.12281696 0 0 Z " fill="#40C2EE" transform="translate(109.16015625,95.90234375)"/>
<path d="M0 0 C0 5.61 0 11.22 0 17 C-1.32 17.33 -2.64 17.66 -4 18 C-4 15.36 -4 12.72 -4 10 C-5.65 10 -7.3 10 -9 10 C-4.45454545 0 -4.45454545 0 0 0 Z " fill="#665FFF" transform="translate(127,86)"/>
<path d="M0 0 C-0.99 0.66 -1.98 1.32 -3 2 C-3.98142479 4.60808448 -3.98142479 4.60808448 -4.625 7.5625 C-5.92109777 12.92109777 -5.92109777 12.92109777 -7 14 C-8.68608966 14.07205511 -10.37500659 14.08386068 -12.0625 14.0625 C-12.98160156 14.05347656 -13.90070312 14.04445313 -14.84765625 14.03515625 C-15.55792969 14.02355469 -16.26820312 14.01195313 -17 14 C-17 12.35 -17 10.7 -17 9 C-13.625 8.875 -13.625 8.875 -10 9 C-9.34 9.66 -8.68 10.32 -8 11 C-8.226875 10.46375 -8.45375 9.9275 -8.6875 9.375 C-9.1528547 5.83830431 -7.86734965 3.96200289 -6 1 C-2.65822785 -1.32911392 -2.65822785 -1.32911392 0 0 Z " fill="#37AEC6" transform="translate(50,88)"/>
<path d="M0 0 C1.65 0.33 3.3 0.66 5 1 C5.13536022 3.08153935 5.23215465 5.16561206 5.3125 7.25 C5.37050781 8.41015625 5.42851563 9.5703125 5.48828125 10.765625 C5 14 5 14 2.48046875 16.421875 C1.66191406 16.94265625 0.84335937 17.4634375 0 18 C-1.74104353 16.25895647 -1.21311272 13.92635979 -1.25 11.5625 C-1.27578125 10.57378906 -1.3015625 9.58507812 -1.328125 8.56640625 C-1.21984375 7.71949219 -1.1115625 6.87257813 -1 6 C-0.01 5.34 0.98 4.68 2 4 C1.34 2.68 0.68 1.36 0 0 Z " fill="#5C3FFF" transform="translate(36,62)"/>
<path d="M0 0 C0.99 0 1.98 0 3 0 C3.02688151 1.64574566 3.04634123 3.29161413 3.0625 4.9375 C3.07410156 5.85402344 3.08570312 6.77054687 3.09765625 7.71484375 C3 10 3 10 2 11 C0.07332493 11.08748207 -1.85651861 11.10697334 -3.78515625 11.09765625 C-4.95498047 11.09443359 -6.12480469 11.09121094 -7.33007812 11.08789062 C-9.17762695 11.07532227 -9.17762695 11.07532227 -11.0625 11.0625 C-12.91584961 11.05573242 -12.91584961 11.05573242 -14.80664062 11.04882812 C-17.87114117 11.03699608 -20.93554721 11.02051173 -24 11 C-23.67 10.34 -23.34 9.68 -23 9 C-15.41 9 -7.82 9 0 9 C0 6.03 0 3.06 0 0 Z " fill="#36DDC5" transform="translate(95,69)"/>
<path d="M0 0 C1.32 0 2.64 0 4 0 C4 6.6 4 13.2 4 20 C2.68 19.67 1.36 19.34 0 19 C0 12.73 0 6.46 0 0 Z " fill="#3E3E8B" transform="translate(115,63)"/>
<path d="M0 0 C12.87 0 25.74 0 39 0 C39 0.66 39 1.32 39 2 C29.43 2 19.86 2 10 2 C10 2.66 10 3.32 10 4 C9.01 4 8.02 4 7 4 C7 3.34 7 2.68 7 2 C4.69 2 2.38 2 0 2 C0 1.34 0 0.68 0 0 Z " fill="#75D5E4" transform="translate(34,45)"/>
<path d="M0 0 C1.67542976 0.28604898 3.34385343 0.61781233 5 1 C5.97477898 4.72188336 6.12816587 6.64248468 4.8125 10.3125 C3 13 3 13 0.88671875 13.66796875 C0.26410156 13.77753906 -0.35851562 13.88710938 -1 14 C-1.02685938 11.85423363 -1.04633088 9.70837355 -1.0625 7.5625 C-1.07410156 6.36753906 -1.08570312 5.17257813 -1.09765625 3.94140625 C-1 1 -1 1 0 0 Z " fill="#33C7E0" transform="translate(106,33)"/>
<path d="M0 0 C8.58 0 17.16 0 26 0 C25.67 0.99 25.34 1.98 25 3 C17.08 3 9.16 3 1 3 C0.67 2.01 0.34 1.02 0 0 Z " fill="#4C4CA0" transform="translate(101,124)"/>
<path d="M0 0 C4.29 0 8.58 0 13 0 C11 5 11 5 9 8 C9 7.01 9 6.02 9 5 C3.72 5 -1.56 5 -7 5 C-6.34 4.34 -5.68 3.68 -5 3 C-3.68 3 -2.36 3 -1 3 C-0.67 2.01 -0.34 1.02 0 0 Z " fill="#6660FF" transform="translate(53,81)"/>
<path d="M0 0 C0 3.63 0 7.26 0 11 C-3.63 11 -7.26 11 -11 11 C-1.69230769 0 -1.69230769 0 0 0 Z " fill="#758EFE" transform="translate(115,71)"/>
<path d="M0 0 C2.31 0 4.62 0 7 0 C7 1.65 7 3.3 7 5 C3.37 5 -0.26 5 -4 5 C-4 6.65 -4 8.3 -4 10 C-5.32 10 -6.64 10 -8 10 C-8 8.02 -8 6.04 -8 4 C-5.36 4 -2.72 4 0 4 C0 2.68 0 1.36 0 0 Z " fill="#3D418D" transform="translate(34,49)"/>
<path d="M0 0 C1.24716797 0.00322266 2.49433594 0.00644531 3.77929688 0.00976562 C5.07287109 0.01814453 6.36644531 0.02652344 7.69921875 0.03515625 C9.66858398 0.04192383 9.66858398 0.04192383 11.67773438 0.04882812 C14.91410885 0.06059676 18.15039053 0.07703865 21.38671875 0.09765625 C21.05671875 0.75765625 20.72671875 1.41765625 20.38671875 2.09765625 C19.73074707 2.11747559 19.07477539 2.13729492 18.39892578 2.15771484 C15.43610806 2.25278132 12.47401343 2.36253377 9.51171875 2.47265625 C7.96291016 2.5190625 7.96291016 2.5190625 6.3828125 2.56640625 C4.90361328 2.62441406 4.90361328 2.62441406 3.39453125 2.68359375 C2.4833252 2.71501465 1.57211914 2.74643555 0.63330078 2.77880859 C-1.81259311 2.89648136 -1.81259311 2.89648136 -3.61328125 5.09765625 C-6.34197532 5.06478042 -8.90994305 4.53367854 -11.61328125 4.09765625 C-11.61328125 3.10765625 -11.61328125 2.11765625 -11.61328125 1.09765625 C-7.68039761 0.16677716 -4.03673962 -0.0184326 0 0 Z " fill="#D9D9E8" transform="translate(106.61328125,125.90234375)"/>
<path d="M0 0 C7.92 0 15.84 0 24 0 C24.33 1.32 24.66 2.64 25 4 C24.01 4 23.02 4 22 4 C22 3.34 22 2.68 22 2 C14.74 2 7.48 2 0 2 C0 1.34 0 0.68 0 0 Z " fill="#49D7D3" transform="translate(73,45)"/>
<path d="M0 0 C0.33 0 0.66 0 1 0 C1 3.3 1 6.6 1 10 C-2.3 10 -5.6 10 -9 10 C-9 9.34 -9 8.68 -9 8 C-7.28515625 6.5625 -7.28515625 6.5625 -5.0625 5 C-2.01367363 2.95183196 -2.01367363 2.95183196 0 0 Z " fill="#36DBC8" transform="translate(122,104)"/>
<path d="M0 0 C1.98 0 3.96 0 6 0 C5.34 1.65 4.68 3.3 4 5 C3.34 5 2.68 5 2 5 C2.66 5.66 3.32 6.32 4 7 C0.48812804 9.40814077 -1.72656908 10.36629408 -6 10 C-4.68 8.35 -3.36 6.7 -2 5 C-2.33 4.67 -2.66 4.34 -3 4 C-2.67 3.34 -2.34 2.68 -2 2 C-1.34 2 -0.68 2 0 2 C0 1.34 0 0.68 0 0 Z " fill="#6256FE" transform="translate(119,86)"/>
<path d="M0 0 C0 2.31 0 4.62 0 7 C-2.60582371 7.93065133 -3.64198224 8.14917407 -6.25 7.0625 C-6.8275 6.711875 -7.405 6.36125 -8 6 C-7.67 4.35 -7.34 2.7 -7 1 C-4.50935112 0.31292445 -2.62113708 0 0 0 Z " fill="#39C6D3" transform="translate(60,87)"/>
<path d="M0 0 C2.31 0 4.62 0 7 0 C7 2.31 7 4.62 7 7 C4.69 7 2.38 7 0 7 C0 4.69 0 2.38 0 0 Z " fill="#9EBEFE" transform="translate(91,85)"/>
<path d="M0 0 C-0.99 1.485 -0.99 1.485 -2 3 C-5.2578125 3.29296875 -5.2578125 3.29296875 -9.125 3.1875 C-11.04699219 3.14689453 -11.04699219 3.14689453 -13.0078125 3.10546875 C-13.99523438 3.07066406 -14.98265625 3.03585938 -16 3 C-16.33 2.01 -16.66 1.02 -17 0 C-11.0885256 -0.77313045 -5.8685408 -1.14819277 0 0 Z " fill="#46D7D1" transform="translate(50,102)"/>
<path d="M0 0 C1.23556641 0.01740234 1.23556641 0.01740234 2.49609375 0.03515625 C3.32238281 0.04417969 4.14867187 0.05320312 5 0.0625 C5.63808594 0.07410156 6.27617188 0.08570312 6.93359375 0.09765625 C7.26359375 0.75765625 7.59359375 1.41765625 7.93359375 2.09765625 C6.61359375 2.09765625 5.29359375 2.09765625 3.93359375 2.09765625 C3.93359375 2.75765625 3.93359375 3.41765625 3.93359375 4.09765625 C2.61359375 4.42765625 1.29359375 4.75765625 -0.06640625 5.09765625 C-0.06640625 6.08765625 -0.06640625 7.07765625 -0.06640625 8.09765625 C-1.05640625 8.09765625 -2.04640625 8.09765625 -3.06640625 8.09765625 C-3.10882348 5.7647085 -3.10733562 3.43063058 -3.06640625 1.09765625 C-2.06640625 0.09765625 -2.06640625 0.09765625 0 0 Z " fill="#4597EB" transform="translate(36.06640625,85.90234375)"/>
<path d="M0 0 C2.64 0 5.28 0 8 0 C8 1.98 8 3.96 8 6 C5.69 6.33 3.38 6.66 1 7 C0.67 4.69 0.34 2.38 0 0 Z " fill="#34ADC5" transform="translate(26,59)"/>
<path d="M0 0 C3.3 0 6.6 0 10 0 C9 2 9 2 7.0625 2.875 C4.5484857 4.24628053 4.2174555 5.4839253 3 8 C2.01 8.33 1.02 8.66 0 9 C0 6.03 0 3.06 0 0 Z " fill="#3DBBDE" transform="translate(105,54)"/>
<path d="M0 0 C0.33 0.66 0.66 1.32 1 2 C1.99 2 2.98 2 4 2 C4 5.3 4 8.6 4 12 C2.02 12 0.04 12 -2 12 C-1.34 8.04 -0.68 4.08 0 0 Z " fill="#41CCD3" transform="translate(30,63)"/>
<path d="M0 0 C1.32 0.33 2.64 0.66 4 1 C4 2.65 4 4.3 4 6 C0.37 6 -3.26 6 -7 6 C-7 5.34 -7 4.68 -7 4 C-5.02 3.67 -3.04 3.34 -1 3 C-0.67 2.01 -0.34 1.02 0 0 Z " fill="#34DAC4" transform="translate(30,74)"/>
<path d="M0 0 C0 1.32 0 2.64 0 4 C0.33 4.33 0.66 4.66 1 5 C1.04092937 7.33297433 1.04241723 9.66705225 1 12 C-0.32 12 -1.64 12 -3 12 C-3.33 8.37 -3.66 4.74 -4 1 C-2 0 -2 0 0 0 Z " fill="#34C0C5" transform="translate(118,51)"/>
<path d="M0 0 C0.66 0.99 1.32 1.98 2 3 C1.67 3.99 1.34 4.98 1 6 C-0.423125 6.2165625 -0.423125 6.2165625 -1.875 6.4375 C-4.8934494 6.82935399 -4.8934494 6.82935399 -7 8 C-7.33 6.02 -7.66 4.04 -8 2 C-6.865625 1.855625 -5.73125 1.71125 -4.5625 1.5625 C-1.19222799 1.38828522 -1.19222799 1.38828522 0 0 Z " fill="#62D3E1" transform="translate(122,33)"/>
<path d="M0 0 C1.37478516 0.01740234 1.37478516 0.01740234 2.77734375 0.03515625 C3.69644531 0.04417969 4.61554688 0.05320312 5.5625 0.0625 C6.27277344 0.07410156 6.98304687 0.08570312 7.71484375 0.09765625 C4.71484375 2.09765625 4.71484375 2.09765625 1.71484375 2.09765625 C1.71484375 2.75765625 1.71484375 3.41765625 1.71484375 4.09765625 C0.04817708 5.76432292 -1.61848958 7.43098958 -3.28515625 9.09765625 C-3.3828125 2.9453125 -3.3828125 2.9453125 -3.28515625 1.09765625 C-2.28515625 0.09765625 -2.28515625 0.09765625 0 0 Z " fill="#45B4F5" transform="translate(108.28515625,95.90234375)"/>
<path d="M0 0 C6.27 0 12.54 0 19 0 C19 1.65 19 3.3 19 5 C16 4 16 4 13.67578125 2.9765625 C10.77183483 1.91672804 8.26431841 1.59742061 5.1875 1.375 C4.21167969 1.30023438 3.23585938 1.22546875 2.23046875 1.1484375 C1.12638672 1.07496094 1.12638672 1.07496094 0 1 C0 0.67 0 0.34 0 0 Z " fill="#8DDDE4" transform="translate(7,58)"/>
<path d="M0 0 C0 0.33 0 0.66 0 1 C-1.98 1 -3.96 1 -6 1 C-6 3.64 -6 6.28 -6 9 C-8.64 8.67 -11.28 8.34 -14 8 C-14 7.67 -14 7.34 -14 7 C-12.35 6.67 -10.7 6.34 -9 6 C-8.67 4.68 -8.34 3.36 -8 2 C-9.98 2 -11.96 2 -14 2 C-14 1.67 -14 1.34 -14 1 C-9.32798795 -0.20568053 -4.78503708 -0.09382426 0 0 Z " fill="#88D8E8" transform="translate(21,33)"/>
<path d="M0 0 C0.66 0.33 1.32 0.66 2 1 C2 3.97 2 6.94 2 10 C0.68 10.33 -0.64 10.66 -2 11 C-2.25 3.375 -2.25 3.375 0 0 Z " fill="#6B70FE" transform="translate(125,93)"/>
<path d="M0 0 C1.98 0 3.96 0 6 0 C6 1.98 6 3.96 6 6 C4.02 6 2.04 6 0 6 C0 4.02 0 2.04 0 0 Z " fill="#A6C7FF" transform="translate(83,85)"/>
<path d="M0 0 C1.98 0 3.96 0 6 0 C6 1.98 6 3.96 6 6 C4.02 6 2.04 6 0 6 C0 4.02 0 2.04 0 0 Z " fill="#A6C7FF" transform="translate(74,85)"/>
<path d="M0 0 C1.485 0.99 1.485 0.99 3 2 C3.29296875 4.3828125 3.29296875 4.3828125 3.1875 7.125 C3.16042969 8.03507812 3.13335937 8.94515625 3.10546875 9.8828125 C3.07066406 10.58148438 3.03585938 11.28015625 3 12 C2.34 12 1.68 12 1 12 C0.67 12.66 0.34 13.32 0 14 C0 9.38 0 4.76 0 0 Z " fill="#5F4EFE" transform="translate(102,97)"/>
<path d="M0 0 C0.99 0 1.98 0 3 0 C3.08121924 1.60332791 3.13929134 3.20784026 3.1875 4.8125 C3.23970703 6.15248047 3.23970703 6.15248047 3.29296875 7.51953125 C3 10 3 10 0 13 C0 8.71 0 4.42 0 0 Z " fill="#3B96D8" transform="translate(41,49)"/>
<path d="M0 0 C2.31 0 4.62 0 7 0 C7 1.65 7 3.3 7 5 C4.69 5 2.38 5 0 5 C0 3.35 0 1.7 0 0 Z " fill="#3C3E8A" transform="translate(98,49)"/>
<path d="M0 0 C0.99 0 1.98 0 3 0 C3 1.65 3 3.3 3 5 C3.99 5.33 4.98 5.66 6 6 C5.01 6.99 4.02 7.98 3 9 C-0.875 7.25 -0.875 7.25 -2 5 C-1.34 5 -0.68 5 0 5 C0 3.35 0 1.7 0 0 Z " fill="#E9F9FA" transform="translate(118,48)"/>
<path d="M0 0 C6.6 0 13.2 0 20 0 C20 0.99 20 1.98 20 3 C13.4 2.34 6.8 1.68 0 1 C0 0.67 0 0.34 0 0 Z " fill="#41D1D8" transform="translate(14,32)"/>
<path d="M0 0 C0.66 0 1.32 0 2 0 C1.69128878 1.79232337 1.37790936 3.58384321 1.0625 5.375 C0.88847656 6.37273437 0.71445312 7.37046875 0.53515625 8.3984375 C0 11 0 11 -1 13 C-1.66 13 -2.32 13 -3 13 C-2.52060632 8.28596212 -2.03165952 4.33420699 0 0 Z " fill="#D5F1F6" transform="translate(47,89)"/>
<path d="M0 0 C-0.99 0.66 -1.98 1.32 -3 2 C-3.78988145 3.95385067 -3.78988145 3.95385067 -4.1875 6.125 C-4.455625 7.40375 -4.72375 8.6825 -5 10 C-6.32 9.34 -7.64 8.68 -9 8 C-6.55760369 1.40552995 -6.55760369 1.40552995 -3.9375 -0.5 C-2 -1 -2 -1 0 0 Z " fill="#3EB5DE" transform="translate(50,88)"/>
<path d="M0 0 C6.625 0.75 6.625 0.75 10 3 C9 4 9 4 6.71484375 4.09765625 C5.34005859 4.08025391 5.34005859 4.08025391 3.9375 4.0625 C3.01839844 4.05347656 2.09929688 4.04445313 1.15234375 4.03515625 C0.44207031 4.02355469 -0.26820312 4.01195312 -1 4 C-0.67 2.68 -0.34 1.36 0 0 Z " fill="#31C6DE" transform="translate(14,59)"/>
<path d="M0 0 C3.3 0 6.6 0 10 0 C8.35 1.65 6.7 3.3 5 5 C4.34 4.67 3.68 4.34 3 4 C2.67 4.66 2.34 5.32 2 6 C2 4.35 2 2.7 2 1 C1.34 0.67 0.68 0.34 0 0 Z " fill="#3ED5D1" transform="translate(119,47)"/>
<path d="M0 0 C1.32 0 2.64 0 4 0 C4 1.65 4 3.3 4 5 C2.68 5.33 1.36 5.66 0 6 C-0.38218767 4.34385343 -0.71395102 2.67542976 -1 1 C-0.67 0.67 -0.34 0.34 0 0 Z " fill="#49CFDB" transform="translate(22,67)"/>
<path d="M0 0 C0.433125 0.639375 0.86625 1.27875 1.3125 1.9375 C2.91239177 4.26746003 2.91239177 4.26746003 6 5 C5.67 5.99 5.34 6.98 5 8 C4.01 8 3.02 8 2 8 C1.67 7.34 1.34 6.68 1 6 C0.01 5.67 -0.98 5.34 -2 5 C-2 4.01 -2 3.02 -2 2 C-1.34 2 -0.68 2 0 2 C0 1.34 0 0.68 0 0 Z " fill="#FAFDFE" transform="translate(19,68)"/>
<path d="M0 0 C0.66 0 1.32 0 2 0 C2.042721 1.66611905 2.04063832 3.33382885 2 5 C1 6 1 6 -1.5625 6.0625 C-2.7690625 6.0315625 -2.7690625 6.0315625 -4 6 C-4 5.01 -4 4.02 -4 3 C-2.68 2.67 -1.36 2.34 0 2 C0 1.34 0 0.68 0 0 Z " fill="#35E0C0" transform="translate(58,99)"/>
<path d="M0 0 C0.33 0 0.66 0 1 0 C1 2.31 1 4.62 1 7 C-1.31 7 -3.62 7 -6 7 C-5.071875 6.1028125 -5.071875 6.1028125 -4.125 5.1875 C-1.86323046 2.99188856 -1.86323046 2.99188856 0 0 Z " fill="#799AFE" transform="translate(126,117)"/>
<path d="M0 0 C0.66 0 1.32 0 2 0 C2.79953138 3.28696233 3.09658936 4.71023192 2 8 C1.01 8 0.02 8 -1 8 C-1.125 2.25 -1.125 2.25 0 0 Z " fill="#6762FF" transform="translate(103,109)"/>
<path d="M0 0 C2.97 0 5.94 0 9 0 C9 0.66 9 1.32 9 2 C6.36 2.33 3.72 2.66 1 3 C0.67 2.01 0.34 1.02 0 0 Z " fill="#4FD0DA" transform="translate(33,102)"/>
<path d="M0 0 C1.21346851 3.64040554 1.21346851 5.35959446 0 9 C-1.32 8.01 -2.64 7.02 -4 6 C-2.84826645 3.53199953 -1.95216435 1.95216435 0 0 Z " fill="#D4EFF6" transform="translate(42,91)"/>
<path d="M0 0 C1.32 0 2.64 0 4 0 C4 1.98 4 3.96 4 6 C3.01 6 2.02 6 1 6 C0.67 4.02 0.34 2.04 0 0 Z " fill="#3DB3DF" transform="translate(30,59)"/>
<path d="M0 0 C1.65 1.65 3.3 3.3 5 5 C3.35 6.32 1.7 7.64 0 9 C0.185625 8.2575 0.37125 7.515 0.5625 6.75 C0.99203108 4.05009037 0.85122974 2.55368923 0 0 Z " fill="#E5F7FA" transform="translate(50,91)"/>
<path d="M0 0 C0.66 0 1.32 0 2 0 C2 2.97 2 5.94 2 9 C1.01 9 0.02 9 -1 9 C-0.67 6.03 -0.34 3.06 0 0 Z " fill="#6153FE" transform="translate(31,88)"/>
<path d="M0 0 C0.99 0.33 1.98 0.66 3 1 C3 2.65 3 4.3 3 6 C1.35 6 -0.3 6 -2 6 C-1.34 5.67 -0.68 5.34 0 5 C-0.33 4.01 -0.66 3.02 -1 2 C-0.67 1.34 -0.34 0.68 0 0 Z " fill="#BED7FF" transform="translate(73,107)"/>
<path d="M0 0 C1.65 0 3.3 0 5 0 C5 1.32 5 2.64 5 4 C3.35 4 1.7 4 0 4 C0 2.68 0 1.36 0 0 Z " fill="#36C8E0" transform="translate(13,65)"/>
<path d="M0 0 C0.33 0 0.66 0 1 0 C1 2.64 1 5.28 1 8 C0.01 8.33 -0.98 8.66 -2 9 C-2.25 3.375 -2.25 3.375 0 0 Z " fill="#409AE9" transform="translate(43,59)"/>
<path d="M0 0 C0.33 0.99 0.66 1.98 1 3 C-2.96 3 -6.92 3 -11 3 C-11 2.34 -11 1.68 -11 1 C-9.88625 1.020625 -8.7725 1.04125 -7.625 1.0625 C-4.58237918 1.01004102 -2.83730029 0 0 0 Z " fill="#8ACBDD" transform="translate(109,46)"/>
<path d="M0 0 C0.33 0.66 0.66 1.32 1 2 C1.66 2 2.32 2 3 2 C2.67 3.65 2.34 5.3 2 7 C1.01 7 0.02 7 -1 7 C-0.67 4.69 -0.34 2.38 0 0 Z " fill="#D9F3F7" transform="translate(26,68)"/>
<path d="M0 0 C1.32 0 2.64 0 4 0 C4.33 1.32 4.66 2.64 5 4 C2.69 4 0.38 4 -2 4 C-1.34 2.68 -0.68 1.36 0 0 Z " fill="#BED7FE" transform="translate(81,114)"/>
<path d="M0 0 C0.99 0 1.98 0 3 0 C3.33 1.32 3.66 2.64 4 4 C2.35 4.33 0.7 4.66 -1 5 C-0.67 3.35 -0.34 1.7 0 0 Z " fill="#36C2C6" transform="translate(47,97)"/>
</svg>
