<?xml version="1.0" encoding="UTF-8"?>
<svg version="1.1" xmlns="http://www.w3.org/2000/svg" width="150" height="150">
<path d="M0 0 C0.495 2.97 0.495 2.97 1 6 C6.64503554 7.0967298 6.64503554 7.0967298 12 5 C13.65 7.64 15.3 10.28 17 13 C16.67 13.33 16.34 13.66 16 14 C16.92683594 14.06058594 17.85367188 14.12117188 18.80859375 14.18359375 C20.00613281 14.26738281 21.20367187 14.35117187 22.4375 14.4375 C23.63246094 14.51871094 24.82742187 14.59992187 26.05859375 14.68359375 C29 15 29 15 30 16 C30.08748207 17.92667507 30.10697334 19.85651861 30.09765625 21.78515625 C30.09443359 22.95498047 30.09121094 24.12480469 30.08789062 25.33007812 C30.07951172 26.56177734 30.07113281 27.79347656 30.0625 29.0625 C30.05798828 30.29806641 30.05347656 31.53363281 30.04882812 32.80664062 C30.03699608 35.87114117 30.02051173 38.93554721 30 42 C31.98 42 33.96 42 36 42 C37.8684361 45.84678022 38.05395731 47.8895665 37 52 C37 53.32 37 54.64 37 56 C36.01 56.99 36.01 56.99 35 58 C34.01 57.67 33.02 57.34 32 57 C31.34 58.32 30.68 59.64 30 61 C28.02 61 26.04 61 24 61 C23.01 59.02 23.01 59.02 22 57 C20.68 57.33 19.36 57.66 18 58 C16.23937836 54.67438135 15.89215772 53.40826005 16.875 49.6875 C17.431875 48.3571875 17.431875 48.3571875 18 47 C17.34 47 16.68 47 16 47 C16 46.34 16 45.68 16 45 C15.34 45 14.68 45 14 45 C14 51.6 14 58.2 14 65 C16.31 65 18.62 65 21 65 C22 66 22 66 22.11352539 69.96899414 C22.1133662 71.74105607 22.10766785 73.5131226 22.09765625 75.28515625 C22.0962413 76.21597519 22.09482635 77.14679413 22.09336853 78.1058197 C22.08775172 81.09141191 22.0751964 84.07693029 22.0625 87.0625 C22.05748716 89.08137913 22.05292388 91.10025943 22.04882812 93.11914062 C22.03777683 98.07945572 22.02050095 103.03971532 22 108 C24.31 108.66 26.62 109.32 29 110 C28 112 28 112 26.34521484 112.61450195 C21.49200924 113.41225457 16.54404055 113.18590312 11.63769531 113.18530273 C9.63863013 113.18748512 7.63960468 113.20599143 5.640625 113.22460938 C4.36960937 113.22654297 3.09859375 113.22847656 1.7890625 113.23046875 C0.63100098 113.23457764 -0.52706055 113.23868652 -1.72021484 113.24291992 C-5.11310954 112.99162245 -7.83332989 112.21173908 -11 111 C-10.67 110.34 -10.34 109.68 -10 109 C-7.4375 108.375 -7.4375 108.375 -5 108 C-5.67857056 107.99191315 -6.35714111 107.98382629 -7.05627441 107.97549438 C-14.19572947 107.88863335 -21.33493245 107.7891071 -28.47412109 107.68261719 C-31.12938188 107.64363425 -33.7845665 107.60971702 -36.43994141 107.578125 C-74.93926359 107.11445232 -74.93926359 107.11445232 -82 103 C-81.67 101.35 -81.34 99.7 -81 98 C-81.9075 98 -82.815 98 -83.75 98 C-86.16666667 98 -88.58333333 98 -91 98 C-92.75 96 -92.75 96 -94 94 C-93.01 93.01 -93.01 93.01 -92 92 C-91.83318891 88.91652174 -91.83318891 88.91652174 -92 86 C-93.32 85.67 -94.64 85.34 -96 85 C-95.67 83.02 -95.34 81.04 -95 79 C-92.66682784 78.22227595 -90.38564077 77.57584432 -88 77 C-87.67 75.02 -87.34 73.04 -87 71 C-83.535 70.505 -83.535 70.505 -80 70 C-79.67 68.35 -79.34 66.7 -79 65 C-85.27 65 -91.54 65 -98 65 C-98 64.34 -98 63.68 -98 63 C-95.03 62.505 -95.03 62.505 -92 62 C-92 61.01 -92 60.02 -92 59 C-93.98 59 -95.96 59 -98 59 C-98 58.34 -98 57.68 -98 57 C-96.02 57 -94.04 57 -92 57 C-92 55.68 -92 54.36 -92 53 C-93.98 53 -95.96 53 -98 53 C-98 52.34 -98 51.68 -98 51 C-96.02 51 -94.04 51 -92 51 C-92 49.68 -92 48.36 -92 47 C-93.98 47 -95.96 47 -98 47 C-98 46.34 -98 45.68 -98 45 C-96.02 45 -94.04 45 -92 45 C-92 44.01 -92 43.02 -92 42 C-93.98 41.67 -95.96 41.34 -98 41 C-98 40.67 -98 40.34 -98 40 C-91.73 40 -85.46 40 -79 40 C-79 38.35 -79 36.7 -79 35 C-85.27 35 -91.54 35 -98 35 C-98 34.67 -98 34.34 -98 34 C-95.525 33.505 -95.525 33.505 -93 33 C-92.67 31.68 -92.34 30.36 -92 29 C-93.98 29 -95.96 29 -98 29 C-98 28.67 -98 28.34 -98 28 C-96.35 27.67 -94.7 27.34 -93 27 C-92.67 25.68 -92.34 24.36 -92 23 C-93.98 23 -95.96 23 -98 23 C-98 22.67 -98 22.34 -98 22 C-96.35 21.67 -94.7 21.34 -93 21 C-92.67 19.68 -92.34 18.36 -92 17 C-93.98 17 -95.96 17 -98 17 C-98 16.67 -98 16.34 -98 16 C-92.11060037 13.95887931 -86.8280285 13.72721958 -80.625 13.8125 C-79.25408203 13.8134668 -79.25408203 13.8134668 -77.85546875 13.81445312 C-71.14064837 13.85935163 -71.14064837 13.85935163 -70 15 C-67.19023482 15.16017166 -64.40226404 15.25950534 -61.58984375 15.31640625 C-60.74780899 15.33718735 -59.90577423 15.35796844 -59.03822327 15.37937927 C-56.33806821 15.44496812 -53.63781283 15.50380276 -50.9375 15.5625 C-49.11131759 15.60567637 -47.28514546 15.64929036 -45.45898438 15.69335938 C-40.97276008 15.80065894 -36.4864345 15.90189966 -32 16 C-32 16.33 -32 16.66 -32 17 C-44.87 17 -57.74 17 -71 17 C-70.67 18.32 -70.34 19.64 -70 21 C-57.46 21.33 -44.92 21.66 -32 22 C-32 22.33 -32 22.66 -32 23 C-44.87 23 -57.74 23 -71 23 C-70.67 24.32 -70.34 25.64 -70 27 C-52.84 26.67 -35.68 26.34 -18 26 C-18.495 22.535 -18.495 22.535 -19 19 C-20.93597032 17.48705712 -20.93597032 17.48705712 -23 17 C-22.01 14.36 -21.02 11.72 -20 9 C-18.72125 9.04125 -17.4425 9.0825 -16.125 9.125 C-13.98128508 9.24212873 -13.98128508 9.24212873 -12 9 C-9.4345406 6.4345406 -9.45953913 4.52313332 -9 1 C-5.94152152 0.45627049 -3.11227195 0 0 0 Z M-9 14 C-11.2084626 17.31269391 -11.80664241 19.14978851 -11.5546875 23.0625 C-10.4812192 26.81207941 -8.28696911 28.01541488 -5 30 C-2.36163023 30.1672392 -2.36163023 30.1672392 0 30 C0.03738281 29.01257813 0.07476562 28.02515625 0.11328125 27.0078125 C0.17902344 25.72648437 0.24476562 24.44515625 0.3125 23.125 C0.37050781 21.84882812 0.42851563 20.57265625 0.48828125 19.2578125 C0.65714844 18.18273437 0.82601562 17.10765625 1 16 C1.99 15.34 2.98 14.68 4 14 C2.01607489 11.60148679 2.01607489 11.60148679 -1.8125 11.5625 C-5.17733329 11.66669338 -6.04370031 12.02913354 -9 14 Z M-71 29 C-71 29.66 -71 30.32 -71 31 C-68.69 31 -66.38 31 -64 31 C-64 30.34 -64 29.68 -64 29 C-66.31 29 -68.62 29 -71 29 Z M22 47 C21.6366844 49.83386167 21.6431329 51.40522151 23.125 53.875 C25.92151052 55.55290631 27.93690532 54.74875648 31 54 C31.67673447 50.59679066 31.67673447 50.59679066 32 47 C30.11499729 44.68436913 30.11499729 44.68436913 27 44.75 C23.88500271 44.68436913 23.88500271 44.68436913 22 47 Z M-85.25 80.625 C-87.21985834 82.92308586 -87.21985834 82.92308586 -87.5 86 C-87.21376982 89.06575838 -87.21376982 89.06575838 -85.3125 91.375 C-82.61209763 93.27258004 -81.22939919 93.35882213 -78 93 C-77.85024761 85.94348748 -77.85024761 85.94348748 -79 79 C-82.92212225 78.60967296 -82.92212225 78.60967296 -85.25 80.625 Z M-73 95 C-73.33 95.66 -73.66 96.32 -74 97 C-73.67 97.99 -73.34 98.98 -73 100 C-63.76 99.34 -54.52 98.68 -45 98 C-44.67 97.01 -44.34 96.02 -44 95 C-53.57 95 -63.14 95 -73 95 Z M-20 95 C-20 95.99 -20 96.98 -20 98 C-14.72 98.33 -9.44 98.66 -4 99 C-4 97.68 -4 96.36 -4 95 C-9.28 95 -14.56 95 -20 95 Z " fill="#5E52FD" transform="translate(105,18)"/>
<path d="M0 0 C2.31 0 4.62 0 7 0 C7 2.97 7 5.94 7 9 C10.3 9 13.6 9 17 9 C17 15.6 17 22.2 17 29 C12.71 29 8.42 29 4 29 C4 29.66 4 30.32 4 31 C12.79133718 32.42426407 12.79133718 32.42426407 29 32 C29 45.2 29 58.4 29 72 C31.31 72.66 33.62 73.32 36 74 C35 76 35 76 33.34521484 76.61450195 C28.49200924 77.41225457 23.54404055 77.18590312 18.63769531 77.18530273 C16.63863013 77.18748512 14.63960468 77.20599143 12.640625 77.22460938 C11.36960937 77.22654297 10.09859375 77.22847656 8.7890625 77.23046875 C7.63100098 77.23457764 6.47293945 77.23868652 5.27978516 77.24291992 C1.88689046 76.99162245 -0.83332989 76.21173908 -4 75 C-3.67 74.34 -3.34 73.68 -3 73 C-0.4375 72.375 -0.4375 72.375 2 72 C1.32142944 71.99191315 0.64285889 71.98382629 -0.05627441 71.97549438 C-7.19572947 71.88863335 -14.33493245 71.7891071 -21.47412109 71.68261719 C-24.12938188 71.64363425 -26.7845665 71.60971702 -29.43994141 71.578125 C-67.93926359 71.11445232 -67.93926359 71.11445232 -75 67 C-74.67 65.35 -74.34 63.7 -74 62 C-74.9075 62 -75.815 62 -76.75 62 C-79.16666667 62 -81.58333333 62 -84 62 C-85.75 60 -85.75 60 -87 58 C-86.34 57.34 -85.68 56.68 -85 56 C-84.83318891 52.91652174 -84.83318891 52.91652174 -85 50 C-86.32 49.67 -87.64 49.34 -89 49 C-88.505 46.03 -88.505 46.03 -88 43 C-85.66682784 42.22227595 -83.38564077 41.57584432 -81 41 C-80.505 38.03 -80.505 38.03 -80 35 C-76.535 34.505 -76.535 34.505 -73 34 C-71.5216774 36.95664519 -71.93967217 39.74229737 -72 43 C-72.969375 43.28875 -73.93875 43.5775 -74.9375 43.875 C-78.10664203 44.64214682 -78.10664203 44.64214682 -79 47 C-79.40270732 51.1283652 -79.40270732 51.1283652 -77.8125 54.8125 C-75.57968261 56.27538036 -73.62655933 56.64505955 -71 57 C-71 54.03 -71 51.06 -71 48 C-65.72 48 -60.44 48 -55 48 C-55 47.34 -55 46.68 -55 46 C-55.61875 45.731875 -56.2375 45.46375 -56.875 45.1875 C-59 44 -59 44 -61 41 C-59.35 40.01 -57.7 39.02 -56 38 C-56.33 39.32 -56.66 40.64 -57 42 C-56.34 41.67 -55.68 41.34 -55 41 C-54.01 40.67 -53.02 40.34 -52 40 C-51.67 38.35 -51.34 36.7 -51 35 C-50.34 35 -49.68 35 -49 35 C-48.67 35.66 -48.34 36.32 -48 37 C-47.34 37 -46.68 37 -46 37 C-44.61767557 38.62626404 -43.28062485 40.2925002 -42 42 C-43.32 42.66 -44.64 43.32 -46 44 C-46 44.66 -46 45.32 -46 46 C-46.66 46 -47.32 46 -48 46 C-48 45.01 -48 44.02 -48 43 C-48.99 43 -49.98 43 -51 43 C-51.0825 43.78375 -51.165 44.5675 -51.25 45.375 C-51.4975 46.24125 -51.745 47.1075 -52 48 C-53.32 48.66 -54.64 49.32 -56 50 C-50.39 50 -44.78 50 -39 50 C-38.505 49.01 -38.505 49.01 -38 48 C-24.47 48 -10.94 48 3 48 C3 46.35 3 44.7 3 43 C-10.53 43 -24.06 43 -38 43 C-38.33 39.37 -38.66 35.74 -39 32 C-37.68 31.67 -36.36 31.34 -35 31 C-34.56316895 30.33121826 -34.12633789 29.66243652 -33.67626953 28.97338867 C-32 27 -32 27 -28.92138672 26.4699707 C-27.68662598 26.45538818 -26.45186523 26.44080566 -25.1796875 26.42578125 C-24.52042267 26.41161667 -23.86115784 26.39745209 -23.18191528 26.38285828 C-21.07944357 26.340967 -18.97783031 26.32571779 -16.875 26.3125 C-14.76542704 26.28347358 -12.65607322 26.24898188 -10.54666138 26.21000671 C-8.63786218 26.17721033 -6.72882634 26.15919119 -4.81982422 26.1418457 C-2.09733504 26.32089809 -2.09733504 26.32089809 -1 25 C-0.84213692 23.14825294 -0.74892644 21.2909089 -0.68359375 19.43359375 C-0.64169922 18.30888672 -0.59980469 17.18417969 -0.55664062 16.02539062 C-0.51732422 14.84138672 -0.47800781 13.65738281 -0.4375 12.4375 C-0.37272461 10.65569336 -0.37272461 10.65569336 -0.30664062 8.83789062 C-0.20016454 5.89205216 -0.09815159 2.9461257 0 0 Z M-66 59 C-66.33 59.66 -66.66 60.32 -67 61 C-66.67 61.99 -66.34 62.98 -66 64 C-56.76 63.34 -47.52 62.68 -38 62 C-37.67 61.01 -37.34 60.02 -37 59 C-46.57 59 -56.14 59 -66 59 Z M-13 59 C-13 59.99 -13 60.98 -13 62 C-7.72 62.33 -2.44 62.66 3 63 C3 61.68 3 60.36 3 59 C-2.28 59 -7.56 59 -13 59 Z " fill="#5C43F1" transform="translate(98,54)"/>
<path d="M0 0 C1.4783226 2.95664519 1.06032783 5.74229737 1 9 C0.030625 9.28875 -0.93875 9.5775 -1.9375 9.875 C-5.10664203 10.64214682 -5.10664203 10.64214682 -6 13 C-6.40270732 17.1283652 -6.40270732 17.1283652 -4.8125 20.8125 C-2.57968261 22.27538036 -0.62655933 22.64505955 2 23 C2 20.03 2 17.06 2 14 C7.28 14 12.56 14 18 14 C18 13.34 18 12.68 18 12 C17.071875 11.5978125 17.071875 11.5978125 16.125 11.1875 C14 10 14 10 12 7 C13.65 6.01 15.3 5.02 17 4 C16.67 5.32 16.34 6.64 16 8 C16.66 7.67 17.32 7.34 18 7 C18.99 6.67 19.98 6.34 21 6 C21.33 4.35 21.66 2.7 22 1 C22.66 1 23.32 1 24 1 C24.495 1.99 24.495 1.99 25 3 C25.66 3 26.32 3 27 3 C28.38232443 4.62626404 29.71937515 6.2925002 31 8 C29.02 8.99 29.02 8.99 27 10 C27 10.66 27 11.32 27 12 C26.34 12 25.68 12 25 12 C25 11.01 25 10.02 25 9 C24.01 9 23.02 9 22 9 C21.9175 9.78375 21.835 10.5675 21.75 11.375 C21.5025 12.24125 21.255 13.1075 21 14 C19.02 14.99 19.02 14.99 17 16 C22.61 16 28.22 16 34 16 C34.33 15.34 34.66 14.68 35 14 C48.53 14 62.06 14 76 14 C76 17.63 76 21.26 76 25 C70.72 25 65.44 25 60 25 C60 25.99 60 26.98 60 28 C60.56847656 27.98839844 61.13695313 27.97679688 61.72265625 27.96484375 C66.60670484 27.90776806 71.18503965 28.18043228 76 29 C76 31.64 76 34.28 76 37 C68.71409984 37.04682155 61.42823335 37.08211748 54.14221191 37.10362434 C50.75718789 37.11395864 47.37226851 37.12792229 43.98730469 37.15087891 C5.5625541 37.39227608 5.5625541 37.39227608 -2 33 C-1.67 31.35 -1.34 29.7 -1 28 C-1.9075 28 -2.815 28 -3.75 28 C-6.16666667 28 -8.58333333 28 -11 28 C-12.75 26 -12.75 26 -14 24 C-13.34 23.34 -12.68 22.68 -12 22 C-11.83318891 18.91652174 -11.83318891 18.91652174 -12 16 C-13.32 15.67 -14.64 15.34 -16 15 C-15.67 13.02 -15.34 11.04 -15 9 C-12.66682784 8.22227595 -10.38564077 7.57584432 -8 7 C-7.67 5.02 -7.34 3.04 -7 1 C-4 0 -4 0 0 0 Z M7 25 C6.67 25.66 6.34 26.32 6 27 C6.33 27.99 6.66 28.98 7 30 C16.24 29.34 25.48 28.68 35 28 C35.33 27.01 35.66 26.02 36 25 C26.43 25 16.86 25 7 25 Z " fill="#B2CFFE" transform="translate(25,88)"/>
<path d="M0 0 C16.83 0 33.66 0 51 0 C51 10.23 51 20.46 51 31 C34.17 31 17.34 31 0 31 C0 20.77 0 10.54 0 0 Z " fill="#474E93" transform="translate(44,47)"/>
<path d="M0 0 C0.33 1.98 0.66 3.96 1 6 C6.64503554 7.0967298 6.64503554 7.0967298 12 5 C14.475 8.96 14.475 8.96 17 13 C16.67 13.33 16.34 13.66 16 14 C16.92683594 14.06058594 17.85367188 14.12117188 18.80859375 14.18359375 C20.00613281 14.26738281 21.20367187 14.35117187 22.4375 14.4375 C23.63246094 14.51871094 24.82742187 14.59992187 26.05859375 14.68359375 C29 15 29 15 30 16 C30.08748207 17.92667507 30.10697334 19.85651861 30.09765625 21.78515625 C30.09443359 22.95498047 30.09121094 24.12480469 30.08789062 25.33007812 C30.07532227 27.17762695 30.07532227 27.17762695 30.0625 29.0625 C30.05798828 30.29806641 30.05347656 31.53363281 30.04882812 32.80664062 C30.03699608 35.87114117 30.02051173 38.93554721 30 42 C31.98 42 33.96 42 36 42 C37.8684361 45.84678022 38.05395731 47.8895665 37 52 C37 53.32 37 54.64 37 56 C36.34 56.66 35.68 57.32 35 58 C34.01 57.67 33.02 57.34 32 57 C31.34 58.32 30.68 59.64 30 61 C28.02 61 26.04 61 24 61 C23.34 59.68 22.68 58.36 22 57 C20.02 57.495 20.02 57.495 18 58 C16.23937836 54.67438135 15.89215772 53.40826005 16.875 49.6875 C17.24625 48.800625 17.6175 47.91375 18 47 C17.34 47 16.68 47 16 47 C16 46.34 16 45.68 16 45 C15.01 44.67 14.02 44.34 13 44 C13.04125 43.236875 13.0825 42.47375 13.125 41.6875 C13.22080824 38.77281584 13.22080824 38.77281584 11 36 C11.66 36 12.32 36 13 36 C13 34.35 13 32.7 13 31 C6.4 31 -0.2 31 -7 31 C-7 30.34 -7 29.68 -7 29 C-4.69 29.33 -2.38 29.66 0 30 C-0.05220703 28.51886719 -0.05220703 28.51886719 -0.10546875 27.0078125 C-0.13253906 25.72648437 -0.15960938 24.44515625 -0.1875 23.125 C-0.23970703 21.21074219 -0.23970703 21.21074219 -0.29296875 19.2578125 C-0.19628906 18.18273437 -0.09960938 17.10765625 0 16 C0.99 15.34 1.98 14.68 3 14 C1.78410016 12.56844101 1.78410016 12.56844101 -1.8125 12.6875 C-4.78617685 12.74622611 -5.87751147 12.92650688 -8.5 14.5 C-10.71177972 18.18629954 -10.34421275 20.73176192 -10 25 C-9.67 25.66 -9.34 26.32 -9 27 C-11.97 27 -14.94 27 -18 27 C-18.12375 25.081875 -18.12375 25.081875 -18.25 23.125 C-18.45869931 20.94666582 -18.45869931 20.94666582 -19 19 C-20.92064793 17.4100567 -20.92064793 17.4100567 -23 17 C-22.01 14.36 -21.02 11.72 -20 9 C-18.72125 9.04125 -17.4425 9.0825 -16.125 9.125 C-13.98128508 9.24212873 -13.98128508 9.24212873 -12 9 C-9.4345406 6.4345406 -9.45953913 4.52313332 -9 1 C-5.94152152 0.45627049 -3.11227195 0 0 0 Z M22 47 C21.6366844 49.83386167 21.6431329 51.40522151 23.125 53.875 C25.92151052 55.55290631 27.93690532 54.74875648 31 54 C31.67673447 50.59679066 31.67673447 50.59679066 32 47 C30.11499729 44.68436913 30.11499729 44.68436913 27 44.75 C23.88500271 44.68436913 23.88500271 44.68436913 22 47 Z " fill="#38D2D4" transform="translate(105,18)"/>
<path d="M0 0 C2.31 0 4.62 0 7 0 C7 2.97 7 5.94 7 9 C10.3 9 13.6 9 17 9 C17 15.6 17 22.2 17 29 C12.71 29 8.42 29 4 29 C3.67 33.62 3.34 38.24 3 43 C-10.53 43 -24.06 43 -38 43 C-38.33 39.37 -38.66 35.74 -39 32 C-37.68 31.67 -36.36 31.34 -35 31 C-34.56316895 30.33121826 -34.12633789 29.66243652 -33.67626953 28.97338867 C-32 27 -32 27 -28.92138672 26.4699707 C-27.68662598 26.45538818 -26.45186523 26.44080566 -25.1796875 26.42578125 C-24.52042267 26.41161667 -23.86115784 26.39745209 -23.18191528 26.38285828 C-21.07944357 26.340967 -18.97783031 26.32571779 -16.875 26.3125 C-14.76542704 26.28347358 -12.65607322 26.24898188 -10.54666138 26.21000671 C-8.63786218 26.17721033 -6.72882634 26.15919119 -4.81982422 26.1418457 C-2.09733504 26.32089809 -2.09733504 26.32089809 -1 25 C-0.84213692 23.14825294 -0.74892644 21.2909089 -0.68359375 19.43359375 C-0.62075195 17.7465332 -0.62075195 17.7465332 -0.55664062 16.02539062 C-0.51732422 14.84138672 -0.47800781 13.65738281 -0.4375 12.4375 C-0.37272461 10.65569336 -0.37272461 10.65569336 -0.30664062 8.83789062 C-0.20016454 5.89205216 -0.09815159 2.9461257 0 0 Z " fill="#7285FD" transform="translate(98,54)"/>
<path d="M0 0 C7.92 0 15.84 0 24 0 C24.495 1.98 24.495 1.98 25 4 C31.6 4 38.2 4 45 4 C45 6.33333333 45 8.66666667 45 11 C45.495 11.495 45.495 11.495 46 12 C46.08748207 13.92667507 46.10697334 15.85651861 46.09765625 17.78515625 C46.09282227 19.53989258 46.09282227 19.53989258 46.08789062 21.33007812 C46.07532227 23.17762695 46.07532227 23.17762695 46.0625 25.0625 C46.05798828 26.29806641 46.05347656 27.53363281 46.04882812 28.80664062 C46.03699608 31.87114117 46.02051173 34.93554721 46 38 C48.31 38 50.62 38 53 38 C53.33 38.99 53.66 39.98 54 41 C45.19039858 42.30512614 36.80960142 42.30512614 28 41 C28.33 40.01 28.66 39.02 29 38 C33.29 38 37.58 38 42 38 C42 31.4 42 24.8 42 18 C38.7 18 35.4 18 32 18 C32 15.03 32 12.06 32 9 C29.69 9 27.38 9 25 9 C25.01571045 10.12027588 25.01571045 10.12027588 25.03173828 11.26318359 C25.0732077 14.63375508 25.09929729 18.004273 25.125 21.375 C25.14175781 22.550625 25.15851563 23.72625 25.17578125 24.9375 C25.18544922 26.61972656 25.18544922 26.61972656 25.1953125 28.3359375 C25.21102295 29.89127197 25.21102295 29.89127197 25.22705078 31.47802734 C25 34 25 34 23 36 C20.76086426 36.25396729 20.76086426 36.25396729 17.93945312 36.25878906 C16.35771301 36.26824554 16.35771301 36.26824554 14.74401855 36.27789307 C13.60130493 36.2738446 12.45859131 36.26979614 11.28125 36.265625 C9.52802429 36.26849518 9.52802429 36.26849518 7.73937988 36.27142334 C5.26456487 36.27278626 2.78974274 36.26908241 0.31494141 36.26074219 C-3.48421205 36.25004446 -7.28289259 36.26063418 -11.08203125 36.2734375 C-13.48177188 36.27211592 -15.88151222 36.26955357 -18.28125 36.265625 C-19.99532043 36.27169769 -19.99532043 36.27169769 -21.74401855 36.27789307 C-22.79851196 36.27158875 -23.85300537 36.26528442 -24.93945312 36.25878906 C-25.8705188 36.25719788 -26.80158447 36.25560669 -27.76086426 36.25396729 C-30 36 -30 36 -32 34 C-32.22705078 31.01904297 -32.22705078 31.01904297 -32.1953125 27.2421875 C-32.1924826 26.57913605 -32.18965271 25.91608459 -32.18673706 25.23294067 C-32.17553435 23.11344417 -32.15043051 20.99436896 -32.125 18.875 C-32.11497028 17.43880818 -32.10584441 16.00260975 -32.09765625 14.56640625 C-32.075595 11.04413372 -32.04106494 7.52210797 -32 4 C-31.01 4 -30.02 4 -29 4 C-29 13.57 -29 23.14 -29 33 C-12.17 33 4.66 33 22 33 C22 22.77 22 12.54 22 2 C14.74 2 7.48 2 0 2 C0 1.34 0 0.68 0 0 Z " fill="#38CECE" transform="translate(73,45)"/>
<path d="M0 0 C1.4783226 2.95664519 1.06032783 5.74229737 1 9 C0.030625 9.28875 -0.93875 9.5775 -1.9375 9.875 C-5.10664203 10.64214682 -5.10664203 10.64214682 -6 13 C-6.45565588 17.050918 -6.45565588 17.050918 -4.80859375 20.5859375 C-2.56396384 22.34091812 -0.55436719 22.93971804 2.1875 23.6875 C3.08855469 23.93886719 3.98960938 24.19023438 4.91796875 24.44921875 C5.60503906 24.63097656 6.29210937 24.81273438 7 25 C7 26.65 7 28.3 7 30 C7.54366211 29.84152588 8.08732422 29.68305176 8.64746094 29.51977539 C11.34402563 28.92399019 13.88069895 28.78635695 16.640625 28.68359375 C18.24550781 28.62075195 18.24550781 28.62075195 19.8828125 28.55664062 C20.99398437 28.51732422 22.10515625 28.47800781 23.25 28.4375 C24.37664063 28.39431641 25.50328125 28.35113281 26.6640625 28.30664062 C29.44258954 28.20067985 32.22120391 28.09860858 35 28 C34.67 28.66 34.34 29.32 34 30 C31.35139573 30.59355614 28.70802678 30.74209269 26 31 C26 31.66 26 32.32 26 33 C40.19 33 54.38 33 69 33 C68.67 32.34 68.34 31.68 68 31 C66.845 30.835 65.69 30.67 64.5 30.5 C63.345 30.335 62.19 30.17 61 30 C60.505 29.01 60.505 29.01 60 28 C65.45769811 27.88861841 70.61509359 28.08342019 76 29 C76 31.64 76 34.28 76 37 C68.71409984 37.04682155 61.42823335 37.08211748 54.14221191 37.10362434 C50.75718789 37.11395864 47.37226851 37.12792229 43.98730469 37.15087891 C5.5625541 37.39227608 5.5625541 37.39227608 -2 33 C-1.67 31.35 -1.34 29.7 -1 28 C-1.9075 28 -2.815 28 -3.75 28 C-6.16666667 28 -8.58333333 28 -11 28 C-12.75 26 -12.75 26 -14 24 C-13.34 23.34 -12.68 22.68 -12 22 C-11.83318891 18.91652174 -11.83318891 18.91652174 -12 16 C-13.32 15.67 -14.64 15.34 -16 15 C-15.67 13.02 -15.34 11.04 -15 9 C-12.66682784 8.22227595 -10.38564077 7.57584432 -8 7 C-7.67 5.02 -7.34 3.04 -7 1 C-4 0 -4 0 0 0 Z " fill="#EAEBF2" transform="translate(25,88)"/>
<path d="M0 0 C1.37091797 0.0009668 1.37091797 0.0009668 2.76953125 0.00195312 C9.48435163 0.04685163 9.48435163 0.04685163 10.625 1.1875 C13.43476518 1.34767166 16.22273596 1.44700534 19.03515625 1.50390625 C19.87719101 1.52468735 20.71922577 1.54546844 21.58677673 1.56687927 C24.28693179 1.63246812 26.98718717 1.69130276 29.6875 1.75 C31.51368241 1.79317637 33.33985454 1.83679036 35.16601562 1.88085938 C39.65223992 1.98815894 44.1385655 2.08939966 48.625 2.1875 C48.625 2.5175 48.625 2.8475 48.625 3.1875 C35.755 3.1875 22.885 3.1875 9.625 3.1875 C9.955 4.5075 10.285 5.8275 10.625 7.1875 C23.165 7.5175 35.705 7.8475 48.625 8.1875 C48.625 8.5175 48.625 8.8475 48.625 9.1875 C35.755 9.1875 22.885 9.1875 9.625 9.1875 C9.955 10.5075 10.285 11.8275 10.625 13.1875 C23.165 13.1875 35.705 13.1875 48.625 13.1875 C48.625 13.8475 48.625 14.5075 48.625 15.1875 C39.055 15.1875 29.485 15.1875 19.625 15.1875 C19.625 15.8475 19.625 16.5075 19.625 17.1875 C18.635 17.1875 17.645 17.1875 16.625 17.1875 C16.625 16.5275 16.625 15.8675 16.625 15.1875 C14.315 15.1875 12.005 15.1875 9.625 15.1875 C9.625 17.1675 9.625 19.1475 9.625 21.1875 C0.715 21.1875 -8.195 21.1875 -17.375 21.1875 C-17.375 20.8575 -17.375 20.5275 -17.375 20.1875 C-15.725 19.8575 -14.075 19.5275 -12.375 19.1875 C-12.045 17.8675 -11.715 16.5475 -11.375 15.1875 C-13.355 15.1875 -15.335 15.1875 -17.375 15.1875 C-17.375 14.8575 -17.375 14.5275 -17.375 14.1875 C-15.725 13.8575 -14.075 13.5275 -12.375 13.1875 C-12.045 11.8675 -11.715 10.5475 -11.375 9.1875 C-13.355 9.1875 -15.335 9.1875 -17.375 9.1875 C-17.375 8.8575 -17.375 8.5275 -17.375 8.1875 C-15.725 7.8575 -14.075 7.5275 -12.375 7.1875 C-12.045 5.8675 -11.715 4.5475 -11.375 3.1875 C-13.355 3.1875 -15.335 3.1875 -17.375 3.1875 C-17.375 2.8575 -17.375 2.5275 -17.375 2.1875 C-11.48560037 0.14637931 -6.2030285 -0.08528042 0 0 Z " fill="#A0E4E0" transform="translate(24.375,31.8125)"/>
<path d="M0 0 C1.12019531 -0.00128906 2.24039063 -0.00257812 3.39453125 -0.00390625 C4.57402344 -0.00003906 5.75351562 0.00382812 6.96875 0.0078125 C8.73798828 0.00201172 8.73798828 0.00201172 10.54296875 -0.00390625 C12.22326172 -0.00197266 12.22326172 -0.00197266 13.9375 0 C14.97326172 0.00112793 16.00902344 0.00225586 17.07617188 0.00341797 C19.46875 0.1328125 19.46875 0.1328125 20.46875 1.1328125 C20.46875 4.4328125 20.46875 7.7328125 20.46875 11.1328125 C33.99875 11.1328125 47.52875 11.1328125 61.46875 11.1328125 C61.46875 12.7828125 61.46875 14.4328125 61.46875 16.1328125 C47.93875 16.1328125 34.40875 16.1328125 20.46875 16.1328125 C20.13875 17.1228125 19.80875 18.1128125 19.46875 19.1328125 C12.86875 19.1328125 6.26875 19.1328125 -0.53125 19.1328125 C2.08816217 17.38653772 3.50699877 16.74558862 6.46875 16.1328125 C6.79875 14.4828125 7.12875 12.8328125 7.46875 11.1328125 C8.45875 11.1328125 9.44875 11.1328125 10.46875 11.1328125 C10.46875 12.1228125 10.46875 13.1128125 10.46875 14.1328125 C11.12875 14.1328125 11.78875 14.1328125 12.46875 14.1328125 C12.46875 13.4728125 12.46875 12.8128125 12.46875 12.1328125 C13.45875 11.4728125 14.44875 10.8128125 15.46875 10.1328125 C14.97375 9.6790625 14.47875 9.2253125 13.96875 8.7578125 C12.46875 7.1328125 12.46875 7.1328125 12.46875 5.1328125 C11.47875 5.4628125 10.48875 5.7928125 9.46875 6.1328125 C9.46875 5.1428125 9.46875 4.1528125 9.46875 3.1328125 C8.80875 3.1328125 8.14875 3.1328125 7.46875 3.1328125 C7.345 3.9165625 7.22125 4.7003125 7.09375 5.5078125 C6.46875 8.1328125 6.46875 8.1328125 4.46875 10.1328125 C3.47875 10.4628125 2.48875 10.7928125 1.46875 11.1328125 C1.46875 10.1428125 1.46875 9.1528125 1.46875 8.1328125 C0.47875 8.7928125 -0.51125 9.4528125 -1.53125 10.1328125 C-0.70625 10.7515625 0.11875 11.3703125 0.96875 12.0078125 C1.79375 12.7090625 2.61875 13.4103125 3.46875 14.1328125 C3.46875 14.7928125 3.46875 15.4528125 3.46875 16.1328125 C0.16875 16.1328125 -3.13125 16.1328125 -6.53125 16.1328125 C-6.55810095 13.65357449 -6.57801547 11.1746241 -6.59375 8.6953125 C-6.60631836 7.63473633 -6.60631836 7.63473633 -6.61914062 6.55273438 C-6.62778588 4.74587691 -6.58345011 2.93893647 -6.53125 1.1328125 C-4.78579395 -0.61264355 -2.37000783 0.0025809 0 0 Z " fill="#47AEE5" transform="translate(39.53125,85.8671875)"/>
<path d="M0 0 C3.0000624 -0.02721831 5.99987256 -0.04694378 9 -0.0625 C9.83917969 -0.07087891 10.67835937 -0.07925781 11.54296875 -0.08789062 C12.79013672 -0.09272461 12.79013672 -0.09272461 14.0625 -0.09765625 C15.19365234 -0.10551147 15.19365234 -0.10551147 16.34765625 -0.11352539 C19.91451913 0.03914317 23.45744034 0.55718004 27 1 C27 7.93 27 14.86 27 22 C20.07 22 13.14 22 6 22 C6 21.01 6 20.02 6 19 C4.02 19 2.04 19 0 19 C0 18.34 0 17.68 0 17 C1.98 17 3.96 17 6 17 C6 15.68 6 14.36 6 13 C4.02 13 2.04 13 0 13 C0 12.34 0 11.68 0 11 C1.98 11 3.96 11 6 11 C6 9.68 6 8.36 6 7 C4.02 7 2.04 7 0 7 C0 6.34 0 5.68 0 5 C1.98 5 3.96 5 6 5 C6 4.01 6 3.02 6 2 C3.03 1.505 3.03 1.505 0 1 C0 0.67 0 0.34 0 0 Z " fill="#74D6E3" transform="translate(7,58)"/>
<path d="M0 0 C0 12.54 0 25.08 0 38 C-8.25 38 -16.5 38 -25 38 C-25.125 25.25 -25.125 25.25 -24 23 C-23.34 23 -22.68 23 -22 23 C-21.67 24.32 -21.34 25.64 -21 27 C-15.72 27 -10.44 27 -5 27 C-4.67 21.39 -4.34 15.78 -4 10 C-6.64 10 -9.28 10 -12 10 C-11.67 9.01 -11.34 8.02 -11 7 C-11.33 6.01 -11.66 5.02 -12 4 C-10.68 4 -9.36 4 -8 4 C-7.67 3.34 -7.34 2.68 -7 2 C-7 2.66 -7 3.32 -7 4 C-6.21625 3.34 -5.4325 2.68 -4.625 2 C-2 0 -2 0 0 0 Z M-14 6 C-13.34 6 -12.68 6 -12 6 C-12.33 6.66 -12.66 7.32 -13 8 C-13.33 7.34 -13.66 6.68 -14 6 Z " fill="#7286FE" transform="translate(127,86)"/>
<path d="M0 0 C0.33 0 0.66 0 1 0 C1 5.28 1 10.56 1 16 C2.98 16 4.96 16 7 16 C8.8684361 19.84678022 9.05395731 21.8895665 8 26 C8 27.32 8 28.64 8 30 C7.34 30.66 6.68 31.32 6 32 C5.01 31.67 4.02 31.34 3 31 C2.34 32.32 1.68 33.64 1 35 C-0.98 35 -2.96 35 -5 35 C-5.66 33.68 -6.32 32.36 -7 31 C-8.32 31.33 -9.64 31.66 -11 32 C-12.76062164 28.67438135 -13.10784228 27.40826005 -12.125 23.6875 C-11.75375 22.800625 -11.3825 21.91375 -11 21 C-11.66 21 -12.32 21 -13 21 C-13 20.34 -13 19.68 -13 19 C-13.99 18.67 -14.98 18.34 -16 18 C-15.67 16.68 -15.34 15.36 -15 14 C-14.34 14 -13.68 14 -13 14 C-12.67 13.01 -12.34 12.02 -12 11 C-11.34 11 -10.68 11 -10 11 C-10 10.34 -10 9.68 -10 9 C-10.66 9 -11.32 9 -12 9 C-12.33 7.02 -12.66 5.04 -13 3 C-8.71 3 -4.42 3 0 3 C0 2.01 0 1.02 0 0 Z M-7 21 C-7.3633156 23.83386167 -7.3568671 25.40522151 -5.875 27.875 C-3.07848948 29.55290631 -1.06309468 28.74875648 2 28 C2.67673447 24.59679066 2.67673447 24.59679066 3 21 C1.11499729 18.68436913 1.11499729 18.68436913 -2 18.75 C-5.11499729 18.68436913 -5.11499729 18.68436913 -7 21 Z " fill="#35D8CB" transform="translate(134,44)"/>
<path d="M0 0 C0.33 1.98 0.66 3.96 1 6 C6.64503554 7.0967298 6.64503554 7.0967298 12 5 C14.475 8.96 14.475 8.96 17 13 C13.74917327 15.16721782 12.70767847 15.27221018 8.9375 15.25 C8.05964844 15.25515625 7.18179688 15.2603125 6.27734375 15.265625 C4 15 4 15 2 13 C-3.54235245 12.42765564 -3.54235245 12.42765564 -8.5 14.5 C-10.71177972 18.18629954 -10.34421275 20.73176192 -10 25 C-9.67 25.66 -9.34 26.32 -9 27 C-11.97 27 -14.94 27 -18 27 C-18.12375 25.081875 -18.12375 25.081875 -18.25 23.125 C-18.45869931 20.94666582 -18.45869931 20.94666582 -19 19 C-20.92064793 17.4100567 -20.92064793 17.4100567 -23 17 C-22.01 14.36 -21.02 11.72 -20 9 C-18.72125 9.04125 -17.4425 9.0825 -16.125 9.125 C-13.98128508 9.24212873 -13.98128508 9.24212873 -12 9 C-9.4345406 6.4345406 -9.45953913 4.52313332 -9 1 C-5.94152152 0.45627049 -3.11227195 0 0 0 Z " fill="#E9EAF1" transform="translate(105,18)"/>
<path d="M0 0 C6.6 0 13.2 0 20 0 C20 2.33333333 20 4.66666667 20 7 C20.33 7.33 20.66 7.66 21 8 C21.08748207 9.92667507 21.10697334 11.85651861 21.09765625 13.78515625 C21.09443359 14.95498047 21.09121094 16.12480469 21.08789062 17.33007812 C21.07951172 18.56177734 21.07113281 19.79347656 21.0625 21.0625 C21.05798828 22.29806641 21.05347656 23.53363281 21.04882812 24.80664062 C21.03699608 27.87114117 21.02051173 30.93554721 21 34 C23.31 34 25.62 34 28 34 C28.33 34.99 28.66 35.98 29 37 C20.19039858 38.30512614 11.80960142 38.30512614 3 37 C3.33 36.01 3.66 35.02 4 34 C8.29 34 12.58 34 17 34 C17 27.4 17 20.8 17 14 C13.7 14 10.4 14 7 14 C7 11.03 7 8.06 7 5 C4.69 5 2.38 5 0 5 C0 3.35 0 1.7 0 0 Z " fill="#34AEC6" transform="translate(98,49)"/>
<path d="M0 0 C1.58206057 0.00667536 3.16410534 0.0186375 4.74609375 0.03515625 C5.55240234 0.03966797 6.35871094 0.04417969 7.18945312 0.04882812 C9.18753131 0.06065107 11.18557158 0.07858711 13.18359375 0.09765625 C13.21043687 2.91021906 13.23035563 5.72252866 13.24609375 8.53515625 C13.25447266 9.33759766 13.26285156 10.14003906 13.27148438 10.96679688 C13.28010805 13.01060846 13.23587525 15.05449527 13.18359375 17.09765625 C11.36243372 18.91881628 8.87687611 18.23000705 6.45703125 18.234375 C5.70679687 18.23050781 4.9565625 18.22664063 4.18359375 18.22265625 C3.05824219 18.22845703 3.05824219 18.22845703 1.91015625 18.234375 C-3.68979572 18.22426678 -3.68979572 18.22426678 -4.81640625 17.09765625 C-4.91621839 14.42034245 -4.955205 11.7746145 -4.94140625 9.09765625 C-4.94527344 8.34742187 -4.94914062 7.5971875 -4.953125 6.82421875 C-4.94103514 0.12643386 -4.94103514 0.12643386 0 0 Z " fill="#3FD8D5" transform="translate(109.81640625,95.90234375)"/>
<path d="M0 0 C0.66 0 1.32 0 2 0 C2.33 0.66 2.66 1.32 3 2 C3.66 2 4.32 2 5 2 C6.38232443 3.62626404 7.71937515 5.2925002 9 7 C7.02 7.99 7.02 7.99 5 9 C5 9.66 5 10.32 5 11 C4.34 11 3.68 11 3 11 C3 10.01 3 9.02 3 8 C2.01 8 1.02 8 0 8 C-0.0825 8.78375 -0.165 9.5675 -0.25 10.375 C-1 13 -1 13 -3.0625 14.3125 C-3.701875 14.539375 -4.34125 14.76625 -5 15 C-2.03 15.495 -2.03 15.495 1 16 C0.6875 18.375 0.6875 18.375 0 21 C-0.99 21.66 -1.98 22.32 -3 23 C-2.34 23.33 -1.68 23.66 -1 24 C-3.97922593 24.02683987 -6.95821295 24.04676037 -9.9375 24.0625 C-11.21270508 24.07506836 -11.21270508 24.07506836 -12.51367188 24.08789062 C-13.32255859 24.09111328 -14.13144531 24.09433594 -14.96484375 24.09765625 C-15.7137085 24.10289307 -16.46257324 24.10812988 -17.23413086 24.11352539 C-19 24 -19 24 -20 23 C-20.14257189 19.66381769 -20.04228157 16.34024394 -20 13 C-14.72 13 -9.44 13 -4 13 C-4 12.34 -4 11.68 -4 11 C-4.61875 10.731875 -5.2375 10.46375 -5.875 10.1875 C-8 9 -8 9 -10 6 C-8.35 5.01 -6.7 4.02 -5 3 C-5.33 4.32 -5.66 5.64 -6 7 C-5.34 6.67 -4.68 6.34 -4 6 C-3.01 5.67 -2.02 5.34 -1 5 C-0.67 3.35 -0.34 1.7 0 0 Z " fill="#C4DBFE" transform="translate(47,89)"/>
<path d="M0 0 C5.61 0 11.22 0 17 0 C17 5.61 17 11.22 17 17 C11.39 17 5.78 17 0 17 C0 11.39 0 5.78 0 0 Z " fill="#3E4E9A" transform="translate(15,34)"/>
<path d="M0 0 C1.23327026 0.0314209 1.23327026 0.0314209 2.49145508 0.06347656 C3.38413086 0.07636719 4.27680664 0.08925781 5.1965332 0.10253906 C6.12530273 0.13605469 7.05407227 0.16957031 8.01098633 0.20410156 C8.95135742 0.22214844 9.89172852 0.24019531 10.8605957 0.25878906 C13.18258522 0.30593606 15.50252322 0.37171925 17.82348633 0.45410156 C16.83348633 0.94910156 16.83348633 0.94910156 15.82348633 1.45410156 C15.82348633 2.11410156 15.82348633 2.77410156 15.82348633 3.45410156 C16.48348633 3.78410156 17.14348633 4.11410156 17.82348633 4.45410156 C15.51348633 4.45410156 13.20348633 4.45410156 10.82348633 4.45410156 C10.72036133 5.23785156 10.61723633 6.02160156 10.51098633 6.82910156 C9.82348633 9.45410156 9.82348633 9.45410156 6.82348633 11.45410156 C6.82348633 12.44410156 6.82348633 13.43410156 6.82348633 14.45410156 C6.82348633 15.11410156 6.82348633 15.77410156 6.82348633 16.45410156 C1.87348633 16.45410156 -3.07651367 16.45410156 -8.17651367 16.45410156 C-8.50651367 12.82410156 -8.83651367 9.19410156 -9.17651367 5.45410156 C-7.85651367 5.12410156 -6.53651367 4.79410156 -5.17651367 4.45410156 C-4.69529053 3.7815332 -4.21406738 3.10896484 -3.71826172 2.41601562 C-2.17651367 0.45410156 -2.17651367 0.45410156 0 0 Z " fill="#6B72FE" transform="translate(68.176513671875,80.5458984375)"/>
<path d="M0 0 C2.31 0 4.62 0 7 0 C7.14509751 4.41632177 7.23400818 8.83203193 7.3125 13.25 C7.3753418 15.13138672 7.3753418 15.13138672 7.43945312 17.05078125 C7.45556641 18.25605469 7.47167969 19.46132812 7.48828125 20.703125 C7.51446533 21.81333008 7.54064941 22.92353516 7.56762695 24.06738281 C7 27 7 27 4.46948242 29.39355469 C3.65455322 29.92368164 2.83962402 30.45380859 2 31 C0.41596476 29.41596476 0.78025065 27.7228362 0.68359375 25.52734375 C0.64169922 24.62822266 0.59980469 23.72910156 0.55664062 22.80273438 C0.51732422 21.85720703 0.47800781 20.91167969 0.4375 19.9375 C0.39431641 18.98810547 0.35113281 18.03871094 0.30664062 17.06054688 C0.20020724 14.70718647 0.09818992 12.35371646 0 10 C-2.64 10 -5.28 10 -8 10 C-8 8.02 -8 6.04 -8 4 C-5.36 4 -2.72 4 0 4 C0 2.68 0 1.36 0 0 Z " fill="#5A39FF" transform="translate(34,49)"/>
<path d="M0 0 C13.53 0 27.06 0 41 0 C41 1.65 41 3.3 41 5 C27.47 5 13.94 5 0 5 C0 3.35 0 1.7 0 0 Z " fill="#3C3D89" transform="translate(60,97)"/>
<path d="M0 0 C1.98 0 3.96 0 6 0 C7.8684361 3.84678022 8.05395731 5.8895665 7 10 C7 11.32 7 12.64 7 14 C6.34 14.66 5.68 15.32 5 16 C4.01 15.67 3.02 15.34 2 15 C1.34 16.32 0.68 17.64 0 19 C-1.98 19 -3.96 19 -6 19 C-6.66 17.68 -7.32 16.36 -8 15 C-9.32 15.33 -10.64 15.66 -12 16 C-13.76062164 12.67438135 -14.10784228 11.40826005 -13.125 7.6875 C-12.568125 6.3571875 -12.568125 6.3571875 -12 5 C-12.66 5 -13.32 5 -14 5 C-14 4.34 -14 3.68 -14 3 C-11.36 3 -8.72 3 -6 3 C-6.20625 4.11375 -6.4125 5.2275 -6.625 6.375 C-6.74875 7.57125 -6.8725 8.7675 -7 10 C-5.10244856 12.34973818 -5.10244856 12.34973818 -1.875 12.125 C-0.451875 12.063125 -0.451875 12.063125 1 12 C1.29562367 6.67829506 1.29562367 6.67829506 -1 2 C-0.67 1.34 -0.34 0.68 0 0 Z " fill="#EAEBF2" transform="translate(135,60)"/>
<path d="M0 0 C2.64 0 5.28 0 8 0 C8 6.93 8 13.86 8 21 C1.07 21 -5.86 21 -13 21 C-13 20.01 -13 19.02 -13 18 C-11.88625 17.87625 -10.7725 17.7525 -9.625 17.625 C-5.96896323 17.3534187 -5.96896323 17.3534187 -4 15 C-4 15.66 -4 16.32 -4 17 C-1.69 16.01 0.62 15.02 3 14 C3 11.69 3 9.38 3 7 C2.01 6.67 1.02 6.34 0 6 C0 4.02 0 2.04 0 0 Z " fill="#3DD3D2" transform="translate(26,59)"/>
<path d="M0 0 C1.32 0 2.64 0 4 0 C4 6.6 4 13.2 4 20 C6.31 20 8.62 20 11 20 C11.33 20.99 11.66 21.98 12 23 C3.19039858 24.30512614 -5.19039858 24.30512614 -14 23 C-13.505 21.515 -13.505 21.515 -13 20 C-8.71 20 -4.42 20 0 20 C0 13.4 0 6.8 0 0 Z " fill="#4C4CA1" transform="translate(115,63)"/>
<path d="M0 0 C1.875 1.1875 1.875 1.1875 3 3 C3.54068562 6.63031776 3.46379841 8.32214079 1.375 11.375 C-1 13 -1 13 -4 13.5625 C-7 13 -7 13 -9.4375 10.875 C-11 8 -11 8 -11 4.875 C-10 2 -10 2 -8.3125 0.0625 C-5.12702876 -1.40109489 -3.32118677 -0.98928968 0 0 Z " fill="#A7E6EF" transform="translate(118,99)"/>
<path d="M0 0 C1.31871094 -0.01224609 2.63742188 -0.02449219 3.99609375 -0.03710938 C5.90068359 -0.04000977 5.90068359 -0.04000977 7.84375 -0.04296875 C9.00068359 -0.04707764 10.15761719 -0.05118652 11.34960938 -0.05541992 C14.47736509 0.18575467 16.680892 0.85423629 19.5 2.1875 C18.5 4.1875 18.5 4.1875 16.84521484 4.80200195 C11.99200924 5.59975457 7.04404055 5.37340312 2.13769531 5.37280273 C0.13863013 5.37498512 -1.86039532 5.39349143 -3.859375 5.41210938 C-5.13039063 5.41404297 -6.40140625 5.41597656 -7.7109375 5.41796875 C-8.86899902 5.42207764 -10.02706055 5.42618652 -11.22021484 5.43041992 C-14.61310954 5.17912245 -17.33332989 4.39923908 -20.5 3.1875 C-20.17 2.5275 -19.84 1.8675 -19.5 1.1875 C-13.23640183 -0.60566158 -6.45139424 0.00315317 0 0 Z " fill="#EAEBF2" transform="translate(114.5,125.8125)"/>
<path d="M0 0 C0.99 0 1.98 0 3 0 C3.02505615 0.87325928 3.0501123 1.74651855 3.07592773 2.64624023 C3.17087709 5.87602552 3.27012029 9.10564154 3.37231445 12.33520508 C3.41571434 13.73489199 3.45738564 15.13463359 3.49731445 16.53442383 C3.55489445 18.54261495 3.61914 20.55061149 3.68359375 22.55859375 C3.72025146 23.76829834 3.75690918 24.97800293 3.79467773 26.22436523 C3.68938266 28.90705456 3.68938266 28.90705456 5 30 C6.56448383 30.12263388 8.13432772 30.17779522 9.70336914 30.20532227 C11.20481224 30.2352401 11.20481224 30.2352401 12.73658752 30.26576233 C14.36937904 30.29083107 14.36937904 30.29083107 16.03515625 30.31640625 C17.14354355 30.33718735 18.25193085 30.35796844 19.39390564 30.37937927 C22.95003808 30.44499623 26.50624703 30.50381596 30.0625 30.5625 C32.46680493 30.60567368 34.87110199 30.64928758 37.27539062 30.69335938 C43.18351185 30.80068992 49.09170991 30.90243331 55 31 C55 31.33 55 31.66 55 32 C47.48863592 32.05057965 39.97731551 32.08568257 32.46582031 32.10986328 C29.90883747 32.11994038 27.35186621 32.13360226 24.79492188 32.15087891 C21.12627308 32.17505217 17.45777621 32.18646585 13.7890625 32.1953125 C12.0655809 32.21079636 12.0655809 32.21079636 10.30728149 32.22659302 C9.2463327 32.22674408 8.18538391 32.22689514 7.09228516 32.22705078 C6.15518707 32.231492 5.21808899 32.23593323 4.25259399 32.24050903 C2 32 2 32 0 30 C-0.22705078 27.01904297 -0.22705078 27.01904297 -0.1953125 23.2421875 C-0.1924826 22.57913605 -0.18965271 21.91608459 -0.18673706 21.23294067 C-0.17553435 19.11344417 -0.15043051 16.99436896 -0.125 14.875 C-0.11497028 13.43880818 -0.10584441 12.00260975 -0.09765625 10.56640625 C-0.075595 7.04413372 -0.04106494 3.52210797 0 0 Z " fill="#469FE9" transform="translate(41,49)"/>
<path d="M0 0 C0 5.61 0 11.22 0 17 C0.99 17 1.98 17 3 17 C3 18.65 3 20.3 3 22 C0.69 22 -1.62 22 -4 22 C-4 15.73 -4 9.46 -4 3 C-10.27 3 -16.54 3 -23 3 C-23 2.34 -23 1.68 -23 1 C-19.91675903 0.83159521 -16.83339379 0.66558138 -13.75 0.5 C-12.87730469 0.45230469 -12.00460938 0.40460938 -11.10546875 0.35546875 C-10.26113281 0.31035156 -9.41679687 0.26523438 -8.546875 0.21875 C-7.38430176 0.1559082 -7.38430176 0.1559082 -6.19824219 0.09179688 C-4.13373418 0.00558463 -2.0663073 0 0 0 Z " fill="#6E72AA" transform="translate(30,80)"/>
<path d="M0 0 C2.64 0 5.28 0 8 0 C7.01 0.495 7.01 0.495 6 1 C6 1.66 6 2.32 6 3 C4.125 5.125 4.125 5.125 2 7 C1.34 7 0.68 7 0 7 C0 8.32 0 9.64 0 11 C-2.29160319 11.02692484 -4.58329546 11.04636124 -6.875 11.0625 C-8.15117188 11.07410156 -9.42734375 11.08570312 -10.7421875 11.09765625 C-14 11 -14 11 -16 10 C-15 8 -15 8 -13 6 C-12.67 5.01 -12.34 4.02 -12 3 C-11.21753906 2.95101562 -10.43507813 2.90203125 -9.62890625 2.8515625 C-8.61699219 2.77679688 -7.60507812 2.70203125 -6.5625 2.625 C-5.55316406 2.55539063 -4.54382813 2.48578125 -3.50390625 2.4140625 C-2.26447266 2.20910156 -2.26447266 2.20910156 -1 2 C-0.67 1.34 -0.34 0.68 0 0 Z " fill="#BCD5FE" transform="translate(60,102)"/>
<path d="M0 0 C0.66 0 1.32 0 2 0 C2.33 0.66 2.66 1.32 3 2 C3.66 2 4.32 2 5 2 C6.38232443 3.62626404 7.71937515 5.2925002 9 7 C7.02 7.99 7.02 7.99 5 9 C5 9.66 5 10.32 5 11 C4.34 11 3.68 11 3 11 C3 10.01 3 9.02 3 8 C2.01 8 1.02 8 0 8 C-0.020625 8.763125 -0.04125 9.52625 -0.0625 10.3125 C-1 13 -1 13 -4.25 14.8125 C-7.49220227 15.83919739 -9.66028985 16.30361001 -13 16 C-13.33 15.01 -13.66 14.02 -14 13 C-10.7 13 -7.4 13 -4 13 C-4 12.34 -4 11.68 -4 11 C-4.61875 10.731875 -5.2375 10.46375 -5.875 10.1875 C-8 9 -8 9 -10 6 C-8.35 5.01 -6.7 4.02 -5 3 C-5.33 4.32 -5.66 5.64 -6 7 C-5.34 6.67 -4.68 6.34 -4 6 C-3.01 5.67 -2.02 5.34 -1 5 C-0.67 3.35 -0.34 1.7 0 0 Z " fill="#90DEE8" transform="translate(47,89)"/>
<path d="M0 0 C0.99 0.33 1.98 0.66 3 1 C3.02689216 2.47906892 3.04634621 3.95827483 3.0625 5.4375 C3.07410156 6.26121094 3.08570312 7.08492188 3.09765625 7.93359375 C3 10 3 10 2 11 C0.5112814 11.08669432 -0.981445 11.10703494 -2.47265625 11.09765625 C-3.37177734 11.09443359 -4.27089844 11.09121094 -5.19726562 11.08789062 C-6.14279297 11.07951172 -7.08832031 11.07113281 -8.0625 11.0625 C-9.01189453 11.05798828 -9.96128906 11.05347656 -10.93945312 11.04882812 C-13.29303065 11.0370011 -15.64648477 11.02052025 -18 11 C-15.38058783 9.25372522 -13.96175123 8.61277612 -11 8 C-10.67 6.35 -10.34 4.7 -10 3 C-9.01 3 -8.02 3 -7 3 C-7 3.99 -7 4.98 -7 6 C-6.34 6 -5.68 6 -5 6 C-5 5.34 -5 4.68 -5 4 C-3.35 3.34 -1.7 2.68 0 2 C0 1.34 0 0.68 0 0 Z " fill="#3AD8C7" transform="translate(57,94)"/>
<path d="M0 0 C0.99 0 1.98 0 3 0 C3 0.66 3 1.32 3 2 C4.65 2.33 6.3 2.66 8 3 C8.3125 6.3125 8.3125 6.3125 8 10 C5.15739513 12.38164192 3.71594733 13 0 13 C0 12.34 0 11.68 0 11 C-1.65 10.67 -3.3 10.34 -5 10 C-5 7.69 -5 5.38 -5 3 C-4.360625 2.87625 -3.72125 2.7525 -3.0625 2.625 C-2.0415625 2.315625 -2.0415625 2.315625 -1 2 C-0.67 1.34 -0.34 0.68 0 0 Z " fill="#EDF9FB" transform="translate(22,63)"/>
<path d="M0 0 C2.5 0.375 2.5 0.375 4.3125 1.75 C5.5 3.375 5.5 3.375 5.5 5.375 C7.15 5.375 8.8 5.375 10.5 5.375 C10.83 6.365 11.16 7.355 11.5 8.375 C3.91 8.375 -3.68 8.375 -11.5 8.375 C-11.17 7.385 -10.84 6.395 -10.5 5.375 C-8.84561387 4.67841637 -7.17745682 4.01403117 -5.5 3.375 C-5.005 2.83875 -4.51 2.3025 -4 1.75 C-2.5 0.375 -2.5 0.375 0 0 Z " fill="#F8FDFD" transform="translate(121.5,37.625)"/>
<path d="M0 0 C1.60488281 0.07734375 1.60488281 0.07734375 3.2421875 0.15625 C4.35335937 0.22070312 5.46453125 0.28515625 6.609375 0.3515625 C7.73601562 0.40828125 8.86265625 0.465 10.0234375 0.5234375 C12.80274028 0.66475798 15.5811191 0.81615658 18.359375 0.9765625 C18.359375 1.3065625 18.359375 1.6365625 18.359375 1.9765625 C14.729375 2.3065625 11.099375 2.6365625 7.359375 2.9765625 C7.359375 4.6265625 7.359375 6.2765625 7.359375 7.9765625 C8.019375 7.9765625 8.679375 7.9765625 9.359375 7.9765625 C9.359375 9.9765625 9.359375 9.9765625 7.859375 11.6015625 C7.364375 12.0553125 6.869375 12.5090625 6.359375 12.9765625 C2.484375 11.2265625 2.484375 11.2265625 1.359375 8.9765625 C2.019375 8.9765625 2.679375 8.9765625 3.359375 8.9765625 C3.359375 7.3265625 3.359375 5.6765625 3.359375 3.9765625 C-3.240625 3.9765625 -9.840625 3.9765625 -16.640625 3.9765625 C-16.640625 3.3165625 -16.640625 2.6565625 -16.640625 1.9765625 C-15.031875 2.0384375 -15.031875 2.0384375 -13.390625 2.1015625 C-9.83601261 2.2602699 -9.83601261 2.2602699 -7.75878906 0.96728516 C-5.00475248 -0.32085228 -3.02575726 -0.16094453 0 0 Z " fill="#83DFE3" transform="translate(114.640625,45.0234375)"/>
<path d="M0 0 C1 1 1 1 1.09765625 2.84765625 C1.06510417 4.8984375 1.03255208 6.94921875 1 9 C0.01 8.67 -0.98 8.34 -2 8 C-2.33 8.66 -2.66 9.32 -3 10 C-5 8.625 -5 8.625 -7 7 C-7 6.34 -7 5.68 -7 5 C-7.99 5.33 -8.98 5.66 -10 6 C-10 5.01 -10 4.02 -10 3 C-10.66 3 -11.32 3 -12 3 C-12.33 4.65 -12.66 6.3 -13 8 C-13.99 8.33 -14.98 8.66 -16 9 C-16.25 6.6875 -16.25 6.6875 -16 4 C-11.39677721 -0.60322279 -6.12019138 -0.20066201 0 0 Z M-17 9 C-16.34 9.66 -15.68 10.32 -15 11 C-15.66 11 -16.32 11 -17 11 C-17 10.34 -17 9.68 -17 9 Z " fill="#3EB8DD" transform="translate(59,86)"/>
<path d="M0 0 C2.31 0 4.62 0 7 0 C7.05437607 1.58294782 7.09296271 3.16644256 7.125 4.75 C7.14820312 5.63171875 7.17140625 6.5134375 7.1953125 7.421875 C6.98870725 10.14906426 6.47305841 11.71315408 5 14 C4.01 14.495 4.01 14.495 3 15 C3 15.66 3 16.32 3 17 C2.01 17.33 1.02 17.66 0 18 C0 12.06 0 6.12 0 0 Z " fill="#6C75FE" transform="translate(98,54)"/>
<path d="M0 0 C0.66 0 1.32 0 2 0 C2.33 1.32 2.66 2.64 3 4 C5.97 4.33 8.94 4.66 12 5 C11.01 6.485 11.01 6.485 10 8 C10 8.66 10 9.32 10 10 C7 12 7 12 4 13 C3.67 13.66 3.34 14.32 3 15 C1.68 15 0.36 15 -1 15 C-1.02693575 12.87506859 -1.04636628 10.75004088 -1.0625 8.625 C-1.07410156 7.44164063 -1.08570312 6.25828125 -1.09765625 5.0390625 C-1 2 -1 2 0 0 Z " fill="#6B71FE" transform="translate(103,109)"/>
<path d="M0 0 C3.3 0 6.6 0 10 0 C11.125 5.625 11.125 5.625 10 9 C6.7 9 3.4 9 0 9 C0 6.03 0 3.06 0 0 Z " fill="#3DBBDD" transform="translate(105,54)"/>
<path d="M0 0 C0 0.33 0 0.66 0 1 C-1.98 1 -3.96 1 -6 1 C-6 6.61 -6 12.22 -6 18 C-2.7 18.33 0.6 18.66 4 19 C4 19.33 4 19.66 4 20 C-1.94 20 -7.88 20 -14 20 C-14 19.67 -14 19.34 -14 19 C-12.35 18.67 -10.7 18.34 -9 18 C-8.67 16.68 -8.34 15.36 -8 14 C-9.98 14 -11.96 14 -14 14 C-14 13.67 -14 13.34 -14 13 C-12.35 12.67 -10.7 12.34 -9 12 C-8.67 10.68 -8.34 9.36 -8 8 C-9.98 8 -11.96 8 -14 8 C-14 7.67 -14 7.34 -14 7 C-12.35 6.67 -10.7 6.34 -9 6 C-8.67 4.68 -8.34 3.36 -8 2 C-9.98 2 -11.96 2 -14 2 C-14 1.67 -14 1.34 -14 1 C-9.32798795 -0.20568053 -4.78503708 -0.09382426 0 0 Z " fill="#74DCDB" transform="translate(21,33)"/>
<path d="M0 0 C3.96 0 7.92 0 12 0 C12 2.31 12 4.62 12 7 C8.04 7 4.08 7 0 7 C0 4.69 0 2.38 0 0 Z " fill="#A3C3FF" transform="translate(80,85)"/>
<path d="M0 0 C0.33 0 0.66 0 1 0 C1.02687279 1.81242052 1.04633715 3.62495233 1.0625 5.4375 C1.07410156 6.44683594 1.08570313 7.45617188 1.09765625 8.49609375 C1 11 1 11 0 12 C-1.85287502 12.07226502 -3.70833878 12.0838122 -5.5625 12.0625 C-6.57441406 12.05347656 -7.58632812 12.04445313 -8.62890625 12.03515625 C-9.41136719 12.02355469 -10.19382812 12.01195312 -11 12 C-10.34 11.67 -9.68 11.34 -9 11 C-9 9.68 -9 8.36 -9 7 C-8.360625 6.731875 -7.72125 6.46375 -7.0625 6.1875 C-4.66868314 5.11332248 -4.66868314 5.11332248 -4 2 C-3.34 2 -2.68 2 -2 2 C-1.34 1.34 -0.68 0.68 0 0 Z " fill="#36DFC2" transform="translate(134,51)"/>
<path d="M0 0 C0.36693548 6.48252688 0.36693548 6.48252688 -1.21875 8.71875 C-3.52088476 10.3746715 -4.88218083 10.3094704 -7.6875 10.1875 C-8.89986328 10.14689453 -8.89986328 10.14689453 -10.13671875 10.10546875 C-10.75160156 10.07066406 -11.36648437 10.03585938 -12 10 C-11.67 9.01 -11.34 8.02 -11 7 C-11.33 6.01 -11.66 5.02 -12 4 C-10.68 4 -9.36 4 -8 4 C-7.67 3.34 -7.34 2.68 -7 2 C-7 2.66 -7 3.32 -7 4 C-5.824375 3.01 -5.824375 3.01 -4.625 2 C-2 0 -2 0 0 0 Z M-14 6 C-13.34 6 -12.68 6 -12 6 C-12.33 6.66 -12.66 7.32 -13 8 C-13.33 7.34 -13.66 6.68 -14 6 Z " fill="#655CFE" transform="translate(127,86)"/>
<path d="M0 0 C0.08706892 3.27066566 0.14041241 6.54103365 0.1875 9.8125 C0.22520508 11.2056543 0.22520508 11.2056543 0.26367188 12.62695312 C0.27333984 13.51962891 0.28300781 14.41230469 0.29296875 15.33203125 C0.3086792 16.15421143 0.32438965 16.9763916 0.34057617 17.82348633 C-0.07433079 20.47502434 -0.95529751 21.33263592 -3 23 C-4.28071458 19.15785626 -4.22325983 15.50434108 -4.25 11.5 C-4.270625 10.72785156 -4.29125 9.95570312 -4.3125 9.16015625 C-4.35228328 3.42141857 -4.35228328 3.42141857 -2.54199219 1.25585938 C-1 0 -1 0 0 0 Z " fill="#7181FE" transform="translate(127,93)"/>
<path d="M0 0 C1.32 0 2.64 0 4 0 C4 6.6 4 13.2 4 20 C2.68 19.67 1.36 19.34 0 19 C0 12.73 0 6.46 0 0 Z " fill="#3E3E8B" transform="translate(115,63)"/>
<path d="M0 0 C12.87 0 25.74 0 39 0 C39 0.66 39 1.32 39 2 C29.43 2 19.86 2 10 2 C10 2.66 10 3.32 10 4 C9.01 4 8.02 4 7 4 C7 3.34 7 2.68 7 2 C4.69 2 2.38 2 0 2 C0 1.34 0 0.68 0 0 Z " fill="#76D5E4" transform="translate(34,45)"/>
<path d="M0 0 C1.67542976 0.28604898 3.34385343 0.61781233 5 1 C6.00619398 5.3266341 6.36822864 8.12471677 4 12 C1.4140625 13.140625 1.4140625 13.140625 -1 14 C-1.02685938 11.85423363 -1.04633088 9.70837355 -1.0625 7.5625 C-1.07410156 6.36753906 -1.08570312 5.17257813 -1.09765625 3.94140625 C-1 1 -1 1 0 0 Z " fill="#32C6DF" transform="translate(106,33)"/>
<path d="M0 0 C8.58 0 17.16 0 26 0 C25.67 0.99 25.34 1.98 25 3 C17.08 3 9.16 3 1 3 C0.67 2.01 0.34 1.02 0 0 Z " fill="#4C4CA0" transform="translate(101,124)"/>
<path d="M0 0 C4.29 0 8.58 0 13 0 C11 5 11 5 9 8 C9 7.01 9 6.02 9 5 C3.72 5 -1.56 5 -7 5 C-6.34 4.34 -5.68 3.68 -5 3 C-3.68 3 -2.36 3 -1 3 C-0.67 2.01 -0.34 1.02 0 0 Z " fill="#6660FF" transform="translate(53,81)"/>
<path d="M0 0 C-1.0625 2 -1.0625 2 -3 4 C-6.6875 4.25 -6.6875 4.25 -10 4 C-9.34 5.32 -8.68 6.64 -8 8 C-10 10 -10 10 -11.9453125 10.1953125 C-13.96354167 10.13020833 -15.98177083 10.06510417 -18 10 C-16.63016497 6.83884224 -16.0109362 6.0072908 -13 4 C-13.66 3.01 -14.32 2.02 -15 1 C-9.9752761 0.37470103 -5.07471573 -0.13012092 0 0 Z M-12 6 C-11.34 6.66 -10.68 7.32 -10 8 C-10 7.34 -10 6.68 -10 6 C-10.66 6 -11.32 6 -12 6 Z " fill="#5F4DFB" transform="translate(125,86)"/>
<path d="M0 0 C6.27 0 12.54 0 19 0 C19 2.31 19 4.62 19 7 C18.67 6.34 18.34 5.68 18 5 C14.04 5 10.08 5 6 5 C6 4.01 6 3.02 6 2 C3.03 1.505 3.03 1.505 0 1 C0 0.67 0 0.34 0 0 Z " fill="#8CDCE5" transform="translate(7,58)"/>
<path d="M0 0 C1.24716797 0.04833984 2.49433594 0.09667969 3.77929688 0.14648438 C5.07287109 0.20255859 6.36644531 0.25863281 7.69921875 0.31640625 C9.66858398 0.3947168 9.66858398 0.3947168 11.67773438 0.47460938 C14.91431614 0.60407265 18.15057296 0.73903167 21.38671875 0.87890625 C21.38671875 1.53890625 21.38671875 2.19890625 21.38671875 2.87890625 C10.82671875 2.87890625 0.26671875 2.87890625 -10.61328125 2.87890625 C-10.94328125 2.21890625 -11.27328125 1.55890625 -11.61328125 0.87890625 C-7.63889805 -0.08783561 -4.07990834 -0.16766747 0 0 Z " fill="#87B4FE" transform="translate(72.61328125,118.12109375)"/>
<path d="M0 0 C2.64 0 5.28 0 8 0 C8 2.97 8 5.94 8 9 C6.35 9.33 4.7 9.66 3 10 C3 9.01 3 8.02 3 7 C2.01 6.67 1.02 6.34 0 6 C0 4.02 0 2.04 0 0 Z " fill="#3DBADB" transform="translate(26,59)"/>
<path d="M0 0 C2.31 0 4.62 0 7 0 C7 1.65 7 3.3 7 5 C3.37 5 -0.26 5 -4 5 C-4 6.65 -4 8.3 -4 10 C-5.32 10 -6.64 10 -8 10 C-8 8.02 -8 6.04 -8 4 C-5.36 4 -2.72 4 0 4 C0 2.68 0 1.36 0 0 Z " fill="#3D418D" transform="translate(34,49)"/>
<path d="M0 0 C2.64 0 5.28 0 8 0 C8.36426713 6.43538595 8.36426713 6.43538595 6.75 8.9375 C5 10 5 10 1 10 C0.67 6.7 0.34 3.4 0 0 Z " fill="#6FD5E4" transform="translate(110,33)"/>
<path d="M0 0 C1.24716797 0.00322266 2.49433594 0.00644531 3.77929688 0.00976562 C5.07287109 0.01814453 6.36644531 0.02652344 7.69921875 0.03515625 C9.66858398 0.04192383 9.66858398 0.04192383 11.67773438 0.04882812 C14.91410885 0.06059676 18.15039053 0.07703865 21.38671875 0.09765625 C21.05671875 0.75765625 20.72671875 1.41765625 20.38671875 2.09765625 C19.73074707 2.11747559 19.07477539 2.13729492 18.39892578 2.15771484 C15.43610806 2.25278132 12.47401343 2.36253377 9.51171875 2.47265625 C7.96291016 2.5190625 7.96291016 2.5190625 6.3828125 2.56640625 C4.90361328 2.62441406 4.90361328 2.62441406 3.39453125 2.68359375 C2.4833252 2.71501465 1.57211914 2.74643555 0.63330078 2.77880859 C-1.81259311 2.89648136 -1.81259311 2.89648136 -3.61328125 5.09765625 C-6.34197532 5.06478042 -8.90994305 4.53367854 -11.61328125 4.09765625 C-11.61328125 3.10765625 -11.61328125 2.11765625 -11.61328125 1.09765625 C-7.68039761 0.16677716 -4.03673962 -0.0184326 0 0 Z " fill="#D9D9E8" transform="translate(106.61328125,125.90234375)"/>
<path d="M0 0 C2.875 -0.125 2.875 -0.125 6 0 C8 2 8 2 8.25 4.5 C8 7 8 7 6 9 C3.375 9.125 3.375 9.125 1 9 C1 8.34 1 7.68 1 7 C1.66 6.67 2.32 6.34 3 6 C1.68 5.34 0.36 4.68 -1 4 C-0.67 2.68 -0.34 1.36 0 0 Z " fill="#44D0E4" transform="translate(111,101)"/>
<path d="M0 0 C1.93166016 0.01740234 1.93166016 0.01740234 3.90234375 0.03515625 C5.19269531 0.04417969 6.48304687 0.05320312 7.8125 0.0625 C8.81152344 0.07410156 9.81054688 0.08570312 10.83984375 0.09765625 C8.83984375 2.09765625 8.83984375 2.09765625 4.96484375 2.66015625 C2.02950418 3.29525699 1.11419124 3.68461929 -0.57421875 6.2265625 C-1.56043387 8.49343825 -2.42246022 10.73897025 -3.16015625 13.09765625 C-3.49015625 13.09765625 -3.82015625 13.09765625 -4.16015625 13.09765625 C-4.18702178 11.11856227 -4.20649 9.13936654 -4.22265625 7.16015625 C-4.23425781 6.05800781 -4.24585937 4.95585938 -4.2578125 3.8203125 C-4.11749553 -0.09172464 -3.97435676 0.12281696 0 0 Z " fill="#42BEF0" transform="translate(109.16015625,95.90234375)"/>
<path d="M0 0 C0 0.99 0 1.98 0 3 C2.0745356 3.1490712 2.0745356 3.1490712 4 2 C3.67 4.97 3.34 7.94 3 11 C-0.50776784 12.60355101 -3.14354879 13.22036864 -7 13 C-7.33 12.01 -7.66 11.02 -8 10 C-4.7 10 -1.4 10 2 10 C2 9.34 2 8.68 2 8 C1.38125 7.731875 0.7625 7.46375 0.125 7.1875 C-2 6 -2 6 -4 3 C-2.68 2.01 -1.36 1.02 0 0 Z " fill="#4ECAD7" transform="translate(41,92)"/>
<path d="M0 0 C0.99 0.33 1.98 0.66 3 1 C3.02689216 2.47906892 3.04634621 3.95827483 3.0625 5.4375 C3.07410156 6.26121094 3.08570313 7.08492188 3.09765625 7.93359375 C3 10 3 10 2 11 C0.00041636 11.04080783 -2.00045254 11.04254356 -4 11 C-3.67 8.36 -3.34 5.72 -3 3 C-2.01 2.67 -1.02 2.34 0 2 C0 1.34 0 0.68 0 0 Z " fill="#35DAC4" transform="translate(57,94)"/>
<path d="M0 0 C7.92 0 15.84 0 24 0 C24.33 1.32 24.66 2.64 25 4 C24.01 4 23.02 4 22 4 C22 3.34 22 2.68 22 2 C14.74 2 7.48 2 0 2 C0 1.34 0 0.68 0 0 Z " fill="#47D6D3" transform="translate(73,45)"/>
<path d="M0 0 C0.99 0.33 1.98 0.66 3 1 C3 3.31 3 5.62 3 8 C2.01 7.67 1.02 7.34 0 7 C-0.33 7.66 -0.66 8.32 -1 9 C-2.32 8.01 -3.64 7.02 -5 6 C-4.67 5.01 -4.34 4.02 -4 3 C-3.34 3 -2.68 3 -2 3 C-2 2.34 -2 1.68 -2 1 C-1.34 0.67 -0.68 0.34 0 0 Z " fill="#3DCAD5" transform="translate(57,87)"/>
<path d="M0 0 C1.23556641 0.01740234 1.23556641 0.01740234 2.49609375 0.03515625 C3.32238281 0.04417969 4.14867187 0.05320312 5 0.0625 C5.63808594 0.07410156 6.27617188 0.08570312 6.93359375 0.09765625 C6.93359375 0.75765625 6.93359375 1.41765625 6.93359375 2.09765625 C5.94359375 2.09765625 4.95359375 2.09765625 3.93359375 2.09765625 C3.93359375 2.75765625 3.93359375 3.41765625 3.93359375 4.09765625 C3.29421875 4.20078125 2.65484375 4.30390625 1.99609375 4.41015625 C1.31546875 4.63703125 0.63484375 4.86390625 -0.06640625 5.09765625 C-0.39640625 6.08765625 -0.72640625 7.07765625 -1.06640625 8.09765625 C-1.72640625 8.09765625 -2.38640625 8.09765625 -3.06640625 8.09765625 C-3.10882348 5.7647085 -3.10733562 3.43063058 -3.06640625 1.09765625 C-2.06640625 0.09765625 -2.06640625 0.09765625 0 0 Z " fill="#4697EB" transform="translate(36.06640625,85.90234375)"/>
<path d="M0 0 C0 2.31 0 4.62 0 7 C-2.97 7 -5.94 7 -9 7 C-8.67 5.68 -8.34 4.36 -8 3 C-2 0 -2 0 0 0 Z " fill="#35DAC4" transform="translate(34,73)"/>
<path d="M0 0 C1.0625 1.75 1.0625 1.75 2 4 C1.67 5.32 1.34 6.64 1 8 C-1.97 8 -4.94 8 -8 8 C-7.01 7.67 -6.02 7.34 -5 7 C-5.33 5.35 -5.66 3.7 -6 2 C-4.02 1.34 -2.04 0.68 0 0 Z " fill="#39C5D7" transform="translate(114,55)"/>
<path d="M0 0 C0.33 0 0.66 0 1 0 C1.02688151 1.64574566 1.04634123 3.29161413 1.0625 4.9375 C1.07410156 5.85402344 1.08570312 6.77054687 1.09765625 7.71484375 C1 10 1 10 0 11 C-1.68608966 11.07205511 -3.37500659 11.08386068 -5.0625 11.0625 C-5.98160156 11.05347656 -6.90070313 11.04445313 -7.84765625 11.03515625 C-8.55792969 11.02355469 -9.26820312 11.01195313 -10 11 C-8 9 -8 9 -4.875 8.875 C-3.92625 8.91625 -2.9775 8.9575 -2 9 C-2 6.69 -2 4.38 -2 2 C-1.34 2 -0.68 2 0 2 C0 1.34 0 0.68 0 0 Z " fill="#37E0C1" transform="translate(97,69)"/>
<path d="M0 0 C3.36704285 -0.2295711 5.41370268 -0.33943529 8.375 1.375 C8.91125 1.91125 9.4475 2.4475 10 3 C10 3.66 10 4.32 10 5 C6.7 5 3.4 5 0 5 C0 3.35 0 1.7 0 0 Z " fill="#34ABC5" transform="translate(33,97)"/>
<path d="M0 0 C0.33 0 0.66 0 1 0 C1 3.63 1 7.26 1 11 C-1.31 11 -3.62 11 -6 11 C-5.34 10.34 -4.68 9.68 -4 9 C-4.33 8.34 -4.66 7.68 -5 7 C-4.34 7 -3.68 7 -3 7 C-3 6.34 -3 5.68 -3 5 C-2.34 5 -1.68 5 -1 5 C-0.67 3.35 -0.34 1.7 0 0 Z " fill="#7897FE" transform="translate(126,113)"/>
<path d="M0 0 C0 0.33 0 0.66 0 1 C-1.98 1 -3.96 1 -6 1 C-6 3.64 -6 6.28 -6 9 C-8.64 8.67 -11.28 8.34 -14 8 C-14 7.67 -14 7.34 -14 7 C-12.35 6.67 -10.7 6.34 -9 6 C-8.67 4.68 -8.34 3.36 -8 2 C-9.98 2 -11.96 2 -14 2 C-14 1.67 -14 1.34 -14 1 C-9.32798795 -0.20568053 -4.78503708 -0.09382426 0 0 Z " fill="#88D8E8" transform="translate(21,33)"/>
<path d="M0 0 C0.07654536 4.51617599 0.10228696 8.59085217 -1 13 C-1.66 12.67 -2.32 12.34 -3 12 C-2.9175 11.0925 -2.835 10.185 -2.75 9.25 C-2.68975201 5.89958592 -2.68975201 5.89958592 -5 3.625 C-5.66 3.08875 -6.32 2.5525 -7 2 C-4.35261084 0.5393715 -3.10551666 0 0 0 Z " fill="#43D6D9" transform="translate(123,96)"/>
<path d="M0 0 C1.485 0.99 1.485 0.99 3 2 C3.29296875 4.3828125 3.29296875 4.3828125 3.1875 7.125 C3.16042969 8.03507812 3.13335937 8.94515625 3.10546875 9.8828125 C3.07066406 10.58148438 3.03585938 11.28015625 3 12 C2.34 12 1.68 12 1 12 C0.67 12.66 0.34 13.32 0 14 C0 9.38 0 4.76 0 0 Z " fill="#5F4EFE" transform="translate(102,97)"/>
<path d="M0 0 C2.31 0 4.62 0 7 0 C7 1.65 7 3.3 7 5 C4.69 5 2.38 5 0 5 C0 3.35 0 1.7 0 0 Z " fill="#3C3E8A" transform="translate(98,49)"/>
<path d="M0 0 C6.6 0 13.2 0 20 0 C20 0.99 20 1.98 20 3 C13.4 2.34 6.8 1.68 0 1 C0 0.67 0 0.34 0 0 Z " fill="#41D1D8" transform="translate(14,32)"/>
<path d="M0 0 C0 3.3 0 6.6 0 10 C-1.32 10 -2.64 10 -4 10 C-4.36814024 3.49618902 -4.36814024 3.49618902 -2.5625 1.0625 C-1 0 -1 0 0 0 Z " fill="#6C70FE" transform="translate(127,93)"/>
<path d="M0 0 C1.32 0.99 2.64 1.98 4 3 C4 3.66 4 4.32 4 5 C4.33 5.33 4.66 5.66 5 6 C5.04063832 7.66617115 5.042721 9.33388095 5 11 C3.68 11.33 2.36 11.66 1 12 C0.67 8.04 0.34 4.08 0 0 Z " fill="#37C1C6" transform="translate(114,51)"/>
<path d="M0 0 C0.99 0 1.98 0 3 0 C3 3.96 3 7.92 3 12 C2.01 11.67 1.02 11.34 0 11 C0 7.37 0 3.74 0 0 Z " fill="#3B95D7" transform="translate(41,49)"/>
<path d="M0 0 C0.66 0 1.32 0 2 0 C1.69128878 1.79232337 1.37790936 3.58384321 1.0625 5.375 C0.88847656 6.37273437 0.71445312 7.37046875 0.53515625 8.3984375 C0 11 0 11 -1 13 C-1.66 13 -2.32 13 -3 13 C-2.52060632 8.28596212 -2.03165952 4.33420699 0 0 Z " fill="#D8F2F7" transform="translate(47,89)"/>
<path d="M0 0 C4.95 0 9.9 0 15 0 C14.67 0.99 14.34 1.98 14 3 C7.07 2.505 7.07 2.505 0 2 C0 1.34 0 0.68 0 0 Z " fill="#99DDE8" transform="translate(7,63)"/>
<path d="M0 0 C-0.33 0.99 -0.66 1.98 -1 3 C-5.29 3 -9.58 3 -14 3 C-14 2.34 -14 1.68 -14 1 C-12.22932584 0.83165067 -10.45845388 0.66538091 -8.6875 0.5 C-7.70136719 0.4071875 -6.71523437 0.314375 -5.69921875 0.21875 C-3 0 -3 0 0 0 Z " fill="#8ADAE4" transform="translate(21,74)"/>
<path d="M0 0 C2.31 0.33 4.62 0.66 7 1 C7.33 1.99 7.66 2.98 8 4 C5.03 4 2.06 4 -1 4 C-0.67 2.68 -0.34 1.36 0 0 Z " fill="#31C6DF" transform="translate(14,59)"/>
<path d="M0 0 C1.67542976 0.28604898 3.34385343 0.61781233 5 1 C4.67 2.32 4.34 3.64 4 5 C2.68 5.33 1.36 5.66 0 6 C-0.38218767 4.34385343 -0.71395102 2.67542976 -1 1 C-0.67 0.67 -0.34 0.34 0 0 Z " fill="#4ED0DC" transform="translate(22,67)"/>
<path d="M0 0 C0.33 0 0.66 0 1 0 C1.02689216 1.47906892 1.04634621 2.95827483 1.0625 4.4375 C1.07410156 5.26121094 1.08570312 6.08492188 1.09765625 6.93359375 C1 9 1 9 0 10 C-1.66617115 10.04063832 -3.33388095 10.042721 -5 10 C-3.625 7.5 -3.625 7.5 -2 5 C-1.34 5 -0.68 5 0 5 C0 3.35 0 1.7 0 0 Z " fill="#35DDC5" transform="translate(122,104)"/>
<path d="M0 0 C0.66 0 1.32 0 2 0 C2 1.65 2 3.3 2 5 C2.66 5.33 3.32 5.66 4 6 C3.01 7.485 3.01 7.485 2 9 C-1.875 7.25 -1.875 7.25 -3 5 C-2.01 5 -1.02 5 0 5 C0 3.35 0 1.7 0 0 Z " fill="#EFFAFA" transform="translate(119,49)"/>
<path d="M0 0 C0 0.66 0 1.32 0 2 C-3.96 2 -7.92 2 -12 2 C-12.33 1.34 -12.66 0.68 -13 0 C-8.38926889 -1.29676812 -4.66159911 -0.71109139 0 0 Z " fill="#98BFFE" transform="translate(74,119)"/>
<path d="M0 0 C0.66 0 1.32 0 2 0 C1.6875 3.375 1.6875 3.375 1 7 C-2.22791555 9.1519437 -3.28400809 9.20086443 -7 9 C-6.67 8.34 -6.34 7.68 -6 7 C-5.175 6.731875 -4.35 6.46375 -3.5 6.1875 C-2.675 5.795625 -1.85 5.40375 -1 5 C-0.10613836 2.45224694 -0.10613836 2.45224694 0 0 Z " fill="#C4EEF1" transform="translate(119,103)"/>
<path d="M0 0 C0.4125 0.474375 0.825 0.94875 1.25 1.4375 C3.182185 3.16266518 4.48192275 3.56584875 7 4 C6.67 4.99 6.34 5.98 6 7 C5.01 7 4.02 7 3 7 C3 6.34 3 5.68 3 5 C1.35 4.67 -0.3 4.34 -2 4 C-2 3.34 -2 2.68 -2 2 C-1.34 2 -0.68 2 0 2 C0 1.34 0 0.68 0 0 Z " fill="#F7FCFD" transform="translate(19,69)"/>
<path d="M0 0 C0.99 0 1.98 0 3 0 C3.125 2.375 3.125 2.375 3 5 C1 7 1 7 -1.625 7.125 C-2.40875 7.08375 -3.1925 7.0425 -4 7 C-4 6.34 -4 5.68 -4 5 C-2.68 5 -1.36 5 0 5 C0 3.35 0 1.7 0 0 Z " fill="#3BD7D8" transform="translate(116,103)"/>
<path d="M0 0 C0.66 0 1.32 0 2 0 C2 2.97 2 5.94 2 9 C1.34 9 0.68 9 0 9 C0 7.68 0 6.36 0 5 C-1.98 5 -3.96 5 -6 5 C-6 4.67 -6 4.34 -6 4 C-4.35 3.67 -2.7 3.34 -1 3 C-0.67 2.01 -0.34 1.02 0 0 Z " fill="#6AD5E2" transform="translate(13,42)"/>
<path d="M0 0 C0 0.99 0 1.98 0 3 C-3.63 3 -7.26 3 -11 3 C-6.86621405 0.2441427 -4.94796454 -0.10756445 0 0 Z " fill="#45D8D0" transform="translate(50,102)"/>
<path d="M0 0 C1.32 0 2.64 0 4 0 C4 1.98 4 3.96 4 6 C2.68 6 1.36 6 0 6 C0 4.02 0 2.04 0 0 Z " fill="#34AEC5" transform="translate(26,59)"/>
<path d="M0 0 C0 1.65 0 3.3 0 5 C-1.32 5 -2.64 5 -4 5 C-4.33 3.68 -4.66 2.36 -5 1 C-3 0 -3 0 0 0 Z " fill="#37CCCC" transform="translate(34,68)"/>
<path d="M0 0 C0.66 0.66 1.32 1.32 2 2 C1.7578125 4.1640625 1.7578125 4.1640625 1.125 6.625 C0.92132813 7.44226563 0.71765625 8.25953125 0.5078125 9.1015625 C0.34023438 9.72804688 0.17265625 10.35453125 0 11 C-0.33 11 -0.66 11 -1 11 C-1.02688151 9.35425434 -1.04634123 7.70838587 -1.0625 6.0625 C-1.07410156 5.14597656 -1.08570313 4.22945312 -1.09765625 3.28515625 C-1 1 -1 1 0 0 Z " fill="#3E9BE9" transform="translate(42,59)"/>
<path d="M0 0 C0.33 0.99 0.66 1.98 1 3 C0 4 0 4 -2.50390625 4.09765625 C-4.01791016 4.08025391 -4.01791016 4.08025391 -5.5625 4.0625 C-6.57441406 4.05347656 -7.58632812 4.04445313 -8.62890625 4.03515625 C-9.41136719 4.02355469 -10.19382812 4.01195312 -11 4 C-11 3.34 -11 2.68 -11 2 C-9.39125 2.061875 -9.39125 2.061875 -7.75 2.125 C-4.34252515 2.0114175 -2.79260369 1.78726636 0 0 Z " fill="#89CCDF" transform="translate(109,45)"/>
<path d="M0 0 C3.3 0 6.6 0 10 0 C10 0.33 10 0.66 10 1 C7.36 1.33 4.72 1.66 2 2 C2 2.66 2 3.32 2 4 C1.01 4 0.02 4 -1 4 C-0.67 2.68 -0.34 1.36 0 0 Z " fill="#46AFF5" transform="translate(106,96)"/>
<path d="M0 0 C2.33944736 0.28730055 4.6739143 0.61936779 7 1 C6.01 1.66 5.02 2.32 4 3 C3.01 4.485 3.01 4.485 2 6 C1.34 6 0.68 6 0 6 C-0.38218767 4.34385343 -0.71395102 2.67542976 -1 1 C-0.67 0.67 -0.34 0.34 0 0 Z " fill="#DEF2F9" transform="translate(18,65)"/>
<path d="M0 0 C2 3.875 2 3.875 2 5 C-0.31 5 -2.62 5 -5 5 C-4 2 -4 2 -1.9375 0.8125 C-1.298125 0.544375 -0.65875 0.27625 0 0 Z " fill="#BED7FE" transform="translate(84,113)"/>
<path d="M0 0 C0.66 0 1.32 0 2 0 C3.625 2.5 3.625 2.5 5 5 C3.02 5.33 1.04 5.66 -1 6 C-0.67 4.02 -0.34 2.04 0 0 Z " fill="#3FCFE5" transform="translate(106,107)"/>
<path d="M0 0 C0.66 0 1.32 0 2 0 C2.33 1.98 2.66 3.96 3 6 C2.34 6 1.68 6 1 6 C0.34 6.66 -0.32 7.32 -1 8 C-1.125 2.25 -1.125 2.25 0 0 Z " fill="#665FFF" transform="translate(103,109)"/>
<path d="M0 0 C0.99 0 1.98 0 3 0 C3.33 1.32 3.66 2.64 4 4 C2.35 4.66 0.7 5.32 -1 6 C-0.67 4.02 -0.34 2.04 0 0 Z " fill="#35C4C5" transform="translate(47,97)"/>
<path d="M0 0 C-0.66 1.32 -1.32 2.64 -2 4 C-2.99 4 -3.98 4 -5 4 C-5.66 3.34 -6.32 2.68 -7 2 C-4.35261084 0.5393715 -3.10551666 0 0 0 Z " fill="#43CDE4" transform="translate(123,96)"/>
<path d="M0 0 C0 0.99 0 1.98 0 3 C0.3062434 4.33981486 0.63451555 5.67511887 1 7 C-0.32 6.34 -1.64 5.68 -3 5 C-3 4.01 -3 3.02 -3 2 C-2.01 1.34 -1.02 0.68 0 0 Z " fill="#E8F5F9" transform="translate(41,92)"/>
<path d="M0 0 C1.65 0 3.3 0 5 0 C4.67 1.32 4.34 2.64 4 4 C2.68 4 1.36 4 0 4 C0 2.68 0 1.36 0 0 Z " fill="#30C7DD" transform="translate(13,65)"/>
</svg>
