<?xml version="1.0" encoding="UTF-8"?>
<svg version="1.1" xmlns="http://www.w3.org/2000/svg" width="150" height="150">
<path d="M0 0 C0.061875 0.94875 0.12375 1.8975 0.1875 2.875 C0.66564228 6.13768 0.66564228 6.13768 3.25 7.5 C6.52607711 8.09565038 8.07840301 7.50253559 11 6 C15 11.625 15 11.625 15 15 C15.85464844 14.98839844 16.70929688 14.97679687 17.58984375 14.96484375 C18.69457031 14.95582031 19.79929687 14.94679688 20.9375 14.9375 C22.03964844 14.92589844 23.14179688 14.91429687 24.27734375 14.90234375 C27 15 27 15 28 16 C28.15786308 17.85174706 28.25107356 19.7090911 28.31640625 21.56640625 C28.37924805 23.2534668 28.37924805 23.2534668 28.44335938 24.97460938 C28.48267578 26.15861328 28.52199219 27.34261719 28.5625 28.5625 C28.60568359 29.75037109 28.64886719 30.93824219 28.69335938 32.16210938 C28.79983546 35.10794784 28.90184841 38.0538743 29 41 C30.32 41 31.64 41 33 41 C34 44 34 44 34 48 C34.515625 48.495 35.03125 48.99 35.5625 49.5 C36.036875 49.995 36.51125 50.49 37 51 C36.6875 53.1875 36.6875 53.1875 36 55 C33.525 55.495 33.525 55.495 31 56 C31 57.32 31 58.64 31 60 C29.35 60.33 27.7 60.66 26 61 C25.67 60.01 25.34 59.02 25 58 C23.02 58.66 21.04 59.32 19 60 C17.4375 58.875 17.4375 58.875 16 57 C16.3125 53.8125 16.3125 53.8125 17 51 C15.68 50.34 14.36 49.68 13 49 C13.33 47.68 13.66 46.36 14 45 C13.34 45 12.68 45 12 45 C12 51.6 12 58.2 12 65 C14.31 65 16.62 65 19 65 C20 66 20 66 20.11352539 69.96899414 C20.1133662 71.74105607 20.10766785 73.5131226 20.09765625 75.28515625 C20.0962413 76.21597519 20.09482635 77.14679413 20.09336853 78.1058197 C20.08775172 81.09141191 20.0751964 84.07693029 20.0625 87.0625 C20.05748716 89.08137913 20.05292388 91.10025943 20.04882812 93.11914062 C20.03777683 98.07945572 20.02050095 103.03971532 20 108 C22.31 108.66 24.62 109.32 27 110 C26 112 26 112 24.34521484 112.61450195 C19.49200924 113.41225457 14.54404055 113.18590312 9.63769531 113.18530273 C7.63863013 113.18748512 5.63960468 113.20599143 3.640625 113.22460938 C2.36960937 113.22654297 1.09859375 113.22847656 -0.2109375 113.23046875 C-1.36899902 113.23457764 -2.52706055 113.23868652 -3.72021484 113.24291992 C-7.11310954 112.99162245 -9.83332989 112.21173908 -13 111 C-12.67 110.34 -12.34 109.68 -12 109 C-9.4375 108.375 -9.4375 108.375 -7 108 C-7.67857056 107.99191315 -8.35714111 107.98382629 -9.05627441 107.97549438 C-16.19572947 107.88863335 -23.33493245 107.7891071 -30.47412109 107.68261719 C-33.12938188 107.64363425 -35.7845665 107.60971702 -38.43994141 107.578125 C-76.71387295 107.11716685 -76.71387295 107.11716685 -86 102 C-86 100.35 -86 98.7 -86 97 C-86.92232422 96.99613281 -86.92232422 96.99613281 -87.86328125 96.9921875 C-90.37144958 96.87217945 -92.57991767 96.68225725 -95 96 C-97.0625 92.9375 -97.0625 92.9375 -98 90 C-96.515 89.01 -96.515 89.01 -95 88 C-94.52553774 84.39408679 -95.16167336 82.10217621 -97 79 C-96.01 77.68 -95.02 76.36 -94 75 C-93.236875 75.20625 -92.47375 75.4125 -91.6875 75.625 C-88.78114056 76.33391203 -88.78114056 76.33391203 -86 74 C-85.27617533 71.94074861 -85.27617533 71.94074861 -85 70 C-83.68 70 -82.36 70 -81 70 C-81 68.35 -81 66.7 -81 65 C-87.27 65 -93.54 65 -100 65 C-100 64.34 -100 63.68 -100 63 C-97.03 62.505 -97.03 62.505 -94 62 C-94 61.01 -94 60.02 -94 59 C-95.98 59 -97.96 59 -100 59 C-100 58.34 -100 57.68 -100 57 C-98.02 57 -96.04 57 -94 57 C-94 55.68 -94 54.36 -94 53 C-95.98 53 -97.96 53 -100 53 C-100 52.34 -100 51.68 -100 51 C-98.02 51 -96.04 51 -94 51 C-94 49.68 -94 48.36 -94 47 C-95.98 47 -97.96 47 -100 47 C-100 46.34 -100 45.68 -100 45 C-98.02 45 -96.04 45 -94 45 C-94 44.01 -94 43.02 -94 42 C-95.98 41.67 -97.96 41.34 -100 41 C-100 40.67 -100 40.34 -100 40 C-93.73 40 -87.46 40 -81 40 C-81 38.35 -81 36.7 -81 35 C-87.27 35 -93.54 35 -100 35 C-100 34.67 -100 34.34 -100 34 C-97.525 33.505 -97.525 33.505 -95 33 C-94.67 31.68 -94.34 30.36 -94 29 C-95.98 29 -97.96 29 -100 29 C-100 28.67 -100 28.34 -100 28 C-98.35 27.67 -96.7 27.34 -95 27 C-94.67 25.68 -94.34 24.36 -94 23 C-95.98 23 -97.96 23 -100 23 C-100 22.67 -100 22.34 -100 22 C-98.35 21.67 -96.7 21.34 -95 21 C-94.67 19.68 -94.34 18.36 -94 17 C-95.98 17 -97.96 17 -100 17 C-100 16.67 -100 16.34 -100 16 C-94.11060037 13.95887931 -88.8280285 13.72721958 -82.625 13.8125 C-81.25408203 13.8134668 -81.25408203 13.8134668 -79.85546875 13.81445312 C-73.14064837 13.85935163 -73.14064837 13.85935163 -72 15 C-69.19023482 15.16017166 -66.40226404 15.25950534 -63.58984375 15.31640625 C-62.74780899 15.33718735 -61.90577423 15.35796844 -61.03822327 15.37937927 C-58.33806821 15.44496812 -55.63781283 15.50380276 -52.9375 15.5625 C-51.11131759 15.60567637 -49.28514546 15.64929036 -47.45898438 15.69335938 C-42.97276008 15.80065894 -38.4864345 15.90189966 -34 16 C-34 16.33 -34 16.66 -34 17 C-46.87 17 -59.74 17 -73 17 C-72.67 18.32 -72.34 19.64 -72 21 C-59.46 21.33 -46.92 21.66 -34 22 C-34 22.33 -34 22.66 -34 23 C-46.87 23 -59.74 23 -73 23 C-72.67 24.32 -72.34 25.64 -72 27 C-65.09476424 26.88235328 -58.1896852 26.75752265 -51.28466797 26.62768555 C-48.9354141 26.58436114 -46.58612925 26.54268427 -44.23681641 26.50268555 C-40.8609076 26.44492285 -37.48515439 26.38124532 -34.109375 26.31640625 C-32.53261993 26.29133751 -32.53261993 26.29133751 -30.92401123 26.26576233 C-29.94329651 26.24581711 -28.96258179 26.22587189 -27.95214844 26.20532227 C-26.6597525 26.18200584 -26.6597525 26.18200584 -25.34124756 26.15821838 C-23.10834895 26.00732208 -21.14579455 25.61837728 -19 25 C-19.2784375 23.824375 -19.2784375 23.824375 -19.5625 22.625 C-20 20 -20 20 -19 18 C-20.65 17.34 -22.3 16.68 -24 16 C-22.90931332 12.22454612 -22.0916909 9.52956528 -19 7 C-18.2575 7.37125 -17.515 7.7425 -16.75 8.125 C-14.05716353 9.29515863 -14.05716353 9.29515863 -11.6875 8.125 C-11.130625 7.75375 -10.57375 7.3825 -10 7 C-10 5.02 -10 3.04 -10 1 C-3.375 0 -3.375 0 0 0 Z M-11 14 C-13.2084626 17.31269391 -13.80664241 19.14978851 -13.5546875 23.0625 C-12.4812192 26.81207941 -10.28696911 28.01541488 -7 30 C-4.36163023 30.1672392 -4.36163023 30.1672392 -2 30 C-1.96261719 29.01257813 -1.92523438 28.02515625 -1.88671875 27.0078125 C-1.82097656 25.72648437 -1.75523438 24.44515625 -1.6875 23.125 C-1.62949219 21.84882812 -1.57148437 20.57265625 -1.51171875 19.2578125 C-1.34285156 18.18273437 -1.17398438 17.10765625 -1 16 C-0.01 15.34 0.98 14.68 2 14 C0.01607489 11.60148679 0.01607489 11.60148679 -3.8125 11.5625 C-7.17733329 11.66669338 -8.04370031 12.02913354 -11 14 Z M-73 29 C-73 29.66 -73 30.32 -73 31 C-70.69 31 -68.38 31 -66 31 C-66 30.34 -66 29.68 -66 29 C-68.31 29 -70.62 29 -73 29 Z M20 47 C19.6366844 49.83386167 19.6431329 51.40522151 21.125 53.875 C23.92151052 55.55290631 25.93690532 54.74875648 29 54 C29.67673447 50.59679066 29.67673447 50.59679066 30 47 C28.11499729 44.68436913 28.11499729 44.68436913 25 44.75 C21.88500271 44.68436913 21.88500271 44.68436913 20 47 Z M-87.25 80.625 C-89.21985834 82.92308586 -89.21985834 82.92308586 -89.5 86 C-89.21376982 89.06575838 -89.21376982 89.06575838 -87.3125 91.375 C-84.61209763 93.27258004 -83.22939919 93.35882213 -80 93 C-79.85024761 85.94348748 -79.85024761 85.94348748 -81 79 C-84.92212225 78.60967296 -84.92212225 78.60967296 -87.25 80.625 Z M-72 96 C-73.99673484 96.35236497 -75.99650739 96.68834559 -78 97 C-78.33 97.99 -78.66 98.98 -79 100 C-75.35394698 99.85936717 -71.70821861 99.71153182 -68.0625 99.5625 C-66.53012695 99.50352539 -66.53012695 99.50352539 -64.96679688 99.44335938 C-58.93409791 99.19279999 -52.992295 98.74356945 -47 98 C-46.67 97.01 -46.34 96.02 -46 95 C-49.77081722 94.97100401 -53.54160583 94.95320271 -57.3125 94.9375 C-58.38435547 94.92912109 -59.45621094 94.92074219 -60.56054688 94.91210938 C-61.58857422 94.90888672 -62.61660156 94.90566406 -63.67578125 94.90234375 C-64.62364502 94.89710693 -65.57150879 94.89187012 -66.5480957 94.88647461 C-69.13838681 94.89501146 -69.13838681 94.89501146 -72 96 Z M-22 95 C-22 95.99 -22 96.98 -22 98 C-16.72 98.33 -11.44 98.66 -6 99 C-6 97.68 -6 96.36 -6 95 C-11.28 95 -16.56 95 -22 95 Z " fill="#6769F0" transform="translate(107,18)"/>
<path d="M0 0 C1.32 0 2.64 0 4 0 C4 2.97 4 5.94 4 9 C3.030625 9.28875 2.06125 9.5775 1.0625 9.875 C-2.10664203 10.64214682 -2.10664203 10.64214682 -3 13 C-3.40270732 17.1283652 -3.40270732 17.1283652 -1.8125 20.8125 C0.42031739 22.27538036 2.37344067 22.64505955 5 23 C5 20.03 5 17.06 5 14 C6.98 14 8.96 14 11 14 C11.33 14.66 11.66 15.32 12 16 C20.25 16 28.5 16 37 16 C37.33 15.34 37.66 14.68 38 14 C51.53 14 65.06 14 79 14 C79 17.63 79 21.26 79 25 C73.72 25 68.44 25 63 25 C63 25.99 63 26.98 63 28 C63.56847656 27.98839844 64.13695313 27.97679688 64.72265625 27.96484375 C69.60670484 27.90776806 74.18503965 28.18043228 79 29 C79 31.64 79 34.28 79 37 C71.71409984 37.04682155 64.42823335 37.08211748 57.14221191 37.10362434 C53.75718789 37.11395864 50.37226851 37.12792229 46.98730469 37.15087891 C8.80340058 37.390763 8.80340058 37.390763 -1 32 C-1 30.35 -1 28.7 -1 27 C-1.92232422 26.99613281 -1.92232422 26.99613281 -2.86328125 26.9921875 C-5.37144958 26.87217945 -7.57991767 26.68225725 -10 26 C-12.0625 22.9375 -12.0625 22.9375 -13 20 C-12.01 19.34 -11.02 18.68 -10 18 C-9.52553774 14.39408679 -10.16167336 12.10217621 -12 9 C-11.01 7.68 -10.02 6.36 -9 5 C-8.236875 5.20625 -7.47375 5.4125 -6.6875 5.625 C-3.78114056 6.33391203 -3.78114056 6.33391203 -1 4 C-0.27617533 1.94074861 -0.27617533 1.94074861 0 0 Z M13 26 C11.00326516 26.35236497 9.00349261 26.68834559 7 27 C6.67 27.99 6.34 28.98 6 30 C9.64605302 29.85936717 13.29178139 29.71153182 16.9375 29.5625 C18.46987305 29.50352539 18.46987305 29.50352539 20.03320312 29.44335938 C26.06590209 29.19279999 32.007705 28.74356945 38 28 C38.33 27.01 38.66 26.02 39 25 C35.22918278 24.97100401 31.45839417 24.95320271 27.6875 24.9375 C26.61564453 24.92912109 25.54378906 24.92074219 24.43945312 24.91210938 C23.41142578 24.90888672 22.38339844 24.90566406 21.32421875 24.90234375 C20.37635498 24.89710693 19.42849121 24.89187012 18.4519043 24.88647461 C15.86161319 24.89501146 15.86161319 24.89501146 13 26 Z " fill="#B2CFFE" transform="translate(22,88)"/>
<path d="M0 0 C16.83 0 33.66 0 51 0 C51 10.23 51 20.46 51 31 C34.17 31 17.34 31 0 31 C0 20.77 0 10.54 0 0 Z " fill="#474E94" transform="translate(44,47)"/>
<path d="M0 0 C0.061875 0.94875 0.12375 1.8975 0.1875 2.875 C0.66564228 6.13768 0.66564228 6.13768 3.25 7.5 C6.52607711 8.09565038 8.07840301 7.50253559 11 6 C15 11.625 15 11.625 15 15 C16.28197266 14.98259766 16.28197266 14.98259766 17.58984375 14.96484375 C18.69457031 14.95582031 19.79929688 14.94679688 20.9375 14.9375 C22.03964844 14.92589844 23.14179688 14.91429687 24.27734375 14.90234375 C27 15 27 15 28 16 C28.15786308 17.85174706 28.25107356 19.7090911 28.31640625 21.56640625 C28.35830078 22.69111328 28.40019531 23.81582031 28.44335938 24.97460938 C28.48267578 26.15861328 28.52199219 27.34261719 28.5625 28.5625 C28.60568359 29.75037109 28.64886719 30.93824219 28.69335938 32.16210938 C28.79983546 35.10794784 28.90184841 38.0538743 29 41 C30.32 41 31.64 41 33 41 C34 44 34 44 34 48 C34.515625 48.495 35.03125 48.99 35.5625 49.5 C36.036875 49.995 36.51125 50.49 37 51 C36.6875 53.1875 36.6875 53.1875 36 55 C33.525 55.495 33.525 55.495 31 56 C31 57.32 31 58.64 31 60 C28.525 60.495 28.525 60.495 26 61 C25.67 60.01 25.34 59.02 25 58 C23.02 58.66 21.04 59.32 19 60 C17.4375 58.875 17.4375 58.875 16 57 C16.3125 53.8125 16.3125 53.8125 17 51 C15.68 50.34 14.36 49.68 13 49 C13.33 47.68 13.66 46.36 14 45 C12.02 45 10.04 45 8 45 C8 44.01 8 43.02 8 42 C9.98 41.505 9.98 41.505 12 41 C11.649375 40.278125 11.29875 39.55625 10.9375 38.8125 C10 36 10 36 11 31 C4.4 31 -2.2 31 -9 31 C-9 30.34 -9 29.68 -9 29 C-6.69 29.33 -4.38 29.66 -2 30 C-2.05220703 28.51886719 -2.05220703 28.51886719 -2.10546875 27.0078125 C-2.13253906 25.72648437 -2.15960938 24.44515625 -2.1875 23.125 C-2.23970703 21.21074219 -2.23970703 21.21074219 -2.29296875 19.2578125 C-2.19628906 18.18273437 -2.09960938 17.10765625 -2 16 C-1.01 15.34 -0.02 14.68 1 14 C-0.21589984 12.56844101 -0.21589984 12.56844101 -3.8125 12.6875 C-6.78617685 12.74622611 -7.87751147 12.92650688 -10.5 14.5 C-12.71177972 18.18629954 -12.34421275 20.73176192 -12 25 C-11.67 25.66 -11.34 26.32 -11 27 C-14.63 27 -18.26 27 -22 27 C-21.67 26.34 -21.34 25.68 -21 25 C-20.34 25 -19.68 25 -19 25 C-19.185625 24.21625 -19.37125 23.4325 -19.5625 22.625 C-20 20 -20 20 -19 18 C-21.475 17.01 -21.475 17.01 -24 16 C-22.90931332 12.22454612 -22.0916909 9.52956528 -19 7 C-17.88625 7.556875 -17.88625 7.556875 -16.75 8.125 C-14.05716353 9.29515863 -14.05716353 9.29515863 -11.6875 8.125 C-11.130625 7.75375 -10.57375 7.3825 -10 7 C-10 5.02 -10 3.04 -10 1 C-3.375 0 -3.375 0 0 0 Z M20 47 C19.6366844 49.83386167 19.6431329 51.40522151 21.125 53.875 C23.92151052 55.55290631 25.93690532 54.74875648 29 54 C29.67673447 50.59679066 29.67673447 50.59679066 30 47 C28.11499729 44.68436913 28.11499729 44.68436913 25 44.75 C21.88500271 44.68436913 21.88500271 44.68436913 20 47 Z " fill="#38D4D1" transform="translate(107,18)"/>
<path d="M0 0 C2.31 0 4.62 0 7 0 C7 2.97 7 5.94 7 9 C10.3 9 13.6 9 17 9 C17 15.6 17 22.2 17 29 C12.71 29 8.42 29 4 29 C3.67 33.62 3.34 38.24 3 43 C-10.53 43 -24.06 43 -38 43 C-38 39.7 -38 36.4 -38 33 C-40.31 33.66 -42.62 34.32 -45 35 C-44.38722388 37.96175123 -43.74627478 39.38058783 -42 42 C-43.65 43.32 -45.3 44.64 -47 46 C-47 45.01 -47 44.02 -47 43 C-48.32 43 -49.64 43 -51 43 C-51.33 44.32 -51.66 45.64 -52 47 C-52.66 47 -53.32 47 -54 47 C-54 45.68 -54 44.36 -54 43 C-54.66 43 -55.32 43 -56 43 C-56.33 43.99 -56.66 44.98 -57 46 C-57.99 45.34 -58.98 44.68 -60 44 C-61.65549531 43.61500109 -63.3222433 43.27206865 -65 43 C-65.02688151 41.35425434 -65.04634123 39.70838587 -65.0625 38.0625 C-65.07410156 37.14597656 -65.08570313 36.22945312 -65.09765625 35.28515625 C-65 33 -65 33 -64 32 C-61.96437644 31.84145588 -59.92356196 31.74871796 -57.8828125 31.68359375 C-56.63628906 31.64169922 -55.38976562 31.59980469 -54.10546875 31.55664062 C-52.79191406 31.51732422 -51.47835937 31.47800781 -50.125 31.4375 C-48.81917969 31.39431641 -47.51335938 31.35113281 -46.16796875 31.30664062 C-36.73511905 31 -36.73511905 31 -33 31 C-32.67 29.68 -32.34 28.36 -32 27 C-31.09644775 26.97494385 -30.19289551 26.9498877 -29.26196289 26.92407227 C-25.9203572 26.82912683 -22.57893748 26.72988379 -19.23754883 26.62768555 C-17.7893576 26.5842837 -16.34111346 26.54261256 -14.89282227 26.50268555 C-12.81510441 26.44510938 -10.73765427 26.38137972 -8.66015625 26.31640625 C-7.40855713 26.27974854 -6.15695801 26.24309082 -4.86743164 26.20532227 C-2.10369496 26.32196094 -2.10369496 26.32196094 -1 25 C-0.84213692 23.14825294 -0.74892644 21.2909089 -0.68359375 19.43359375 C-0.64169922 18.30888672 -0.59980469 17.18417969 -0.55664062 16.02539062 C-0.51732422 14.84138672 -0.47800781 13.65738281 -0.4375 12.4375 C-0.37272461 10.65569336 -0.37272461 10.65569336 -0.30664062 8.83789062 C-0.20016454 5.89205216 -0.09815159 2.9461257 0 0 Z " fill="#7387FD" transform="translate(98,54)"/>
<path d="M0 0 C1.37091797 0.0009668 1.37091797 0.0009668 2.76953125 0.00195312 C9.48435163 0.04685163 9.48435163 0.04685163 10.625 1.1875 C13.43476518 1.34767166 16.22273596 1.44700534 19.03515625 1.50390625 C19.87719101 1.52468735 20.71922577 1.54546844 21.58677673 1.56687927 C24.28693179 1.63246812 26.98718717 1.69130276 29.6875 1.75 C31.51368241 1.79317637 33.33985454 1.83679036 35.16601562 1.88085938 C39.65223992 1.98815894 44.1385655 2.08939966 48.625 2.1875 C48.625 2.5175 48.625 2.8475 48.625 3.1875 C35.755 3.1875 22.885 3.1875 9.625 3.1875 C9.955 4.5075 10.285 5.8275 10.625 7.1875 C23.165 7.5175 35.705 7.8475 48.625 8.1875 C48.625 8.5175 48.625 8.8475 48.625 9.1875 C35.755 9.1875 22.885 9.1875 9.625 9.1875 C9.955 10.5075 10.285 11.8275 10.625 13.1875 C11.22475647 13.17275131 11.82451294 13.15800262 12.44244385 13.14280701 C18.73750739 12.98927341 25.03273431 12.84478266 31.328125 12.70532227 C33.6712766 12.65225943 36.0143788 12.59696285 38.35742188 12.53930664 C41.74338123 12.45638813 45.12944236 12.38175394 48.515625 12.30859375 C49.54737854 12.28155869 50.57913208 12.25452362 51.64215088 12.22666931 C58.69737834 12.08490407 65.60538736 12.47571054 72.625 13.1875 C73.12 15.1675 73.12 15.1675 73.625 17.1875 C80.225 17.1875 86.825 17.1875 93.625 17.1875 C93.625 19.1675 93.625 21.1475 93.625 23.1875 C93.99625 24.239375 93.99625 24.239375 94.375 25.3125 C94.625 27.1875 94.625 27.1875 93.3125 29.4375 C89.25509955 32.0795282 85.33643922 31.51118666 80.625 31.1875 C80.625 28.2175 80.625 25.2475 80.625 22.1875 C78.315 22.1875 76.005 22.1875 73.625 22.1875 C73.63547363 22.93435059 73.64594727 23.68120117 73.65673828 24.45068359 C73.6982077 27.82125508 73.72429729 31.191773 73.75 34.5625 C73.76675781 35.738125 73.78351563 36.91375 73.80078125 38.125 C73.80722656 39.24648437 73.81367187 40.36796875 73.8203125 41.5234375 C73.83078613 42.56032715 73.84125977 43.5972168 73.85205078 44.66552734 C73.625 47.1875 73.625 47.1875 71.625 49.1875 C69.38586426 49.44146729 69.38586426 49.44146729 66.56445312 49.44628906 C64.98271301 49.45574554 64.98271301 49.45574554 63.36901855 49.46539307 C62.22630493 49.4613446 61.08359131 49.45729614 59.90625 49.453125 C58.15302429 49.45599518 58.15302429 49.45599518 56.36437988 49.45892334 C53.88956487 49.46028626 51.41474274 49.45658241 48.93994141 49.44824219 C45.14078795 49.43754446 41.34210741 49.44813418 37.54296875 49.4609375 C35.14322812 49.45961592 32.74348778 49.45705357 30.34375 49.453125 C28.62967957 49.45919769 28.62967957 49.45919769 26.88098145 49.46539307 C25.82648804 49.45908875 24.77199463 49.45278442 23.68554688 49.44628906 C22.7544812 49.44469788 21.82341553 49.44310669 20.86413574 49.44146729 C18.625 49.1875 18.625 49.1875 16.625 47.1875 C16.45011746 44.75005103 16.39322595 42.4281392 16.4296875 39.9921875 C16.4325174 39.28474396 16.43534729 38.57730042 16.43826294 37.84841919 C16.44946863 35.5862749 16.47457321 33.32452485 16.5 31.0625 C16.51002933 29.52995363 16.51915526 27.99740106 16.52734375 26.46484375 C16.54940914 22.70557699 16.58394104 18.94660536 16.625 15.1875 C14.315 15.1875 12.005 15.1875 9.625 15.1875 C9.625 17.1675 9.625 19.1475 9.625 21.1875 C0.715 21.1875 -8.195 21.1875 -17.375 21.1875 C-17.375 20.8575 -17.375 20.5275 -17.375 20.1875 C-15.725 19.8575 -14.075 19.5275 -12.375 19.1875 C-12.045 17.8675 -11.715 16.5475 -11.375 15.1875 C-13.355 15.1875 -15.335 15.1875 -17.375 15.1875 C-17.375 14.8575 -17.375 14.5275 -17.375 14.1875 C-15.725 13.8575 -14.075 13.5275 -12.375 13.1875 C-12.045 11.8675 -11.715 10.5475 -11.375 9.1875 C-13.355 9.1875 -15.335 9.1875 -17.375 9.1875 C-17.375 8.8575 -17.375 8.5275 -17.375 8.1875 C-15.725 7.8575 -14.075 7.5275 -12.375 7.1875 C-12.045 5.8675 -11.715 4.5475 -11.375 3.1875 C-13.355 3.1875 -15.335 3.1875 -17.375 3.1875 C-17.375 2.8575 -17.375 2.5275 -17.375 2.1875 C-11.48560037 0.14637931 -6.2030285 -0.08528042 0 0 Z M19.625 15.1875 C19.625 25.4175 19.625 35.6475 19.625 46.1875 C36.455 46.1875 53.285 46.1875 70.625 46.1875 C70.625 35.9575 70.625 25.7275 70.625 15.1875 C53.795 15.1875 36.965 15.1875 19.625 15.1875 Z " fill="#9EE4E0" transform="translate(24.375,31.8125)"/>
<path d="M0 0 C2.31 0 4.62 0 7 0 C7.02505615 0.90355225 7.0501123 1.80710449 7.07592773 2.73803711 C7.17087317 6.0796428 7.27011621 9.42106252 7.37231445 12.76245117 C7.4157163 14.2106424 7.45738744 15.65888654 7.49731445 17.10717773 C7.55489062 19.18489559 7.61862028 21.26234573 7.68359375 23.33984375 C7.73858032 25.21724243 7.73858032 25.21724243 7.79467773 27.13256836 C7.67803906 29.89630504 7.67803906 29.89630504 9 31 C10.70563778 31.15740605 12.41727244 31.25093392 14.12890625 31.31640625 C15.16337891 31.35830078 16.19785156 31.40019531 17.26367188 31.44335938 C18.35228516 31.48267578 19.44089844 31.52199219 20.5625 31.5625 C21.65498047 31.60568359 22.74746094 31.64886719 23.87304688 31.69335938 C26.58189564 31.79982068 29.29083992 31.90183516 32 32 C32.495 33.98 32.495 33.98 33 36 C32.01 36 31.02 36 30 36 C29.01 36.495 29.01 36.495 28 37 C25.89625004 37.15441209 23.78804881 37.24992639 21.6796875 37.31640625 C20.42285156 37.35830078 19.16601562 37.40019531 17.87109375 37.44335938 C15.89302734 37.50233398 15.89302734 37.50233398 13.875 37.5625 C12.53514249 37.60569512 11.19529844 37.64930973 9.85546875 37.69335938 C6.5704438 37.7997091 3.28523602 37.90038317 0 38 C-0.33 42.95 -0.66 47.9 -1 53 C-3.31 53 -5.62 53 -8 53 C-8 46.73 -8 40.46 -8 34 C-14.27 34 -20.54 34 -27 34 C-27 33.34 -27 32.68 -27 32 C-25.02 31.67 -23.04 31.34 -21 31 C-21 30.01 -21 29.02 -21 28 C-22.98 28 -24.96 28 -27 28 C-27 27.34 -27 26.68 -27 26 C-25.02 26 -23.04 26 -21 26 C-21 24.68 -21 23.36 -21 22 C-22.98 22 -24.96 22 -27 22 C-27 21.34 -27 20.68 -27 20 C-25.02 20 -23.04 20 -21 20 C-21 18.68 -21 17.36 -21 16 C-22.98 16 -24.96 16 -27 16 C-27 15.34 -27 14.68 -27 14 C-25.02 14 -23.04 14 -21 14 C-21 13.01 -21 12.02 -21 11 C-23.97 10.505 -23.97 10.505 -27 10 C-27 9.67 -27 9.34 -27 9 C-20.73 9 -14.46 9 -8 9 C-8 7.35 -8 5.7 -8 4 C-5.36 4 -2.72 4 0 4 C0 2.68 0 1.36 0 0 Z " fill="#5D51FC" transform="translate(34,49)"/>
<path d="M0 0 C1.32 0 2.64 0 4 0 C4 2.97 4 5.94 4 9 C3.030625 9.28875 2.06125 9.5775 1.0625 9.875 C-2.10664203 10.64214682 -2.10664203 10.64214682 -3 13 C-3.40305195 17.08388307 -3.40305195 17.08388307 -1.875 20.75 C3.51168037 24.34112025 9.72864793 24.5290289 16 25 C15.67 25.66 15.34 26.32 15 27 C13.6078125 26.9071875 13.6078125 26.9071875 12.1875 26.8125 C9.01919312 26.66853545 9.01919312 26.66853545 7.30078125 28.51171875 C6.87152344 29.00285156 6.44226563 29.49398437 6 30 C6.64960693 29.93941406 7.29921387 29.87882812 7.96850586 29.81640625 C10.95779638 29.54003838 13.94762628 29.2699825 16.9375 29 C18.46987305 28.85691406 18.46987305 28.85691406 20.03320312 28.7109375 C26.05177969 28.17253448 31.95763352 27.89918888 38 28 C37.67 28.66 37.34 29.32 37 30 C34.35139573 30.59355614 31.70802678 30.74209269 29 31 C29 31.66 29 32.32 29 33 C43.19 33 57.38 33 72 33 C71.67 32.34 71.34 31.68 71 31 C69.845 30.835 68.69 30.67 67.5 30.5 C66.345 30.335 65.19 30.17 64 30 C63.505 29.01 63.505 29.01 63 28 C68.45769811 27.88861841 73.61509359 28.08342019 79 29 C79 31.64 79 34.28 79 37 C71.71409984 37.04682155 64.42823335 37.08211748 57.14221191 37.10362434 C53.75718789 37.11395864 50.37226851 37.12792229 46.98730469 37.15087891 C8.80340058 37.390763 8.80340058 37.390763 -1 32 C-1 30.35 -1 28.7 -1 27 C-1.92232422 26.99613281 -1.92232422 26.99613281 -2.86328125 26.9921875 C-5.37144958 26.87217945 -7.57991767 26.68225725 -10 26 C-12.0625 22.9375 -12.0625 22.9375 -13 20 C-12.01 19.34 -11.02 18.68 -10 18 C-9.52553774 14.39408679 -10.16167336 12.10217621 -12 9 C-11.01 7.68 -10.02 6.36 -9 5 C-8.236875 5.20625 -7.47375 5.4125 -6.6875 5.625 C-3.78114056 6.33391203 -3.78114056 6.33391203 -1 4 C-0.27617533 1.94074861 -0.27617533 1.94074861 0 0 Z " fill="#EAEBF2" transform="translate(22,88)"/>
<path d="M0 0 C0.495 1.98 0.495 1.98 1 4 C7.6 4 14.2 4 21 4 C21 5.98 21 7.96 21 10 C21.2475 10.70125 21.495 11.4025 21.75 12.125 C22 14 22 14 20.6875 16.25 C16.63009955 18.8920282 12.71143922 18.32368666 8 18 C8 15.03 8 12.06 8 9 C5.69 9 3.38 9 1 9 C1.01571045 10.12027588 1.01571045 10.12027588 1.03173828 11.26318359 C1.0732077 14.63375508 1.09929729 18.004273 1.125 21.375 C1.14175781 22.550625 1.15851563 23.72625 1.17578125 24.9375 C1.18544922 26.61972656 1.18544922 26.61972656 1.1953125 28.3359375 C1.21102295 29.89127197 1.21102295 29.89127197 1.22705078 31.47802734 C1 34 1 34 -1 36 C-3.23913574 36.25396729 -3.23913574 36.25396729 -6.06054688 36.25878906 C-7.64228699 36.26824554 -7.64228699 36.26824554 -9.25598145 36.27789307 C-10.39869507 36.2738446 -11.54140869 36.26979614 -12.71875 36.265625 C-14.47197571 36.26849518 -14.47197571 36.26849518 -16.26062012 36.27142334 C-18.73543513 36.27278626 -21.21025726 36.26908241 -23.68505859 36.26074219 C-27.48421205 36.25004446 -31.28289259 36.26063418 -35.08203125 36.2734375 C-37.48177188 36.27211592 -39.88151222 36.26955357 -42.28125 36.265625 C-43.99532043 36.27169769 -43.99532043 36.27169769 -45.74401855 36.27789307 C-46.79851196 36.27158875 -47.85300537 36.26528442 -48.93945312 36.25878906 C-49.8705188 36.25719788 -50.80158447 36.25560669 -51.76086426 36.25396729 C-54 36 -54 36 -56 34 C-56.22705078 31.01904297 -56.22705078 31.01904297 -56.1953125 27.2421875 C-56.1924826 26.57913605 -56.18965271 25.91608459 -56.18673706 25.23294067 C-56.17553435 23.11344417 -56.15043051 20.99436896 -56.125 18.875 C-56.11497028 17.43880818 -56.10584441 16.00260975 -56.09765625 14.56640625 C-56.075595 11.04413372 -56.04106494 7.52210797 -56 4 C-55.01 4 -54.02 4 -53 4 C-53 13.57 -53 23.14 -53 33 C-36.17 33 -19.34 33 -2 33 C-2 22.77 -2 12.54 -2 2 C-9.26 2 -16.52 2 -24 2 C-24 1.34 -24 0.68 -24 0 C-15.84997076 -1.06162705 -8.16617194 -0.84388104 0 0 Z " fill="#38DAC7" transform="translate(97,45)"/>
<path d="M0 0 C3.0000624 -0.02721831 5.99987256 -0.04694378 9 -0.0625 C9.83917969 -0.07087891 10.67835937 -0.07925781 11.54296875 -0.08789062 C12.79013672 -0.09272461 12.79013672 -0.09272461 14.0625 -0.09765625 C15.19365234 -0.10551147 15.19365234 -0.10551147 16.34765625 -0.11352539 C19.91451913 0.03914317 23.45744034 0.55718004 27 1 C27 7.93 27 14.86 27 22 C20.07 22 13.14 22 6 22 C6 21.01 6 20.02 6 19 C4.02 19 2.04 19 0 19 C0 18.34 0 17.68 0 17 C1.98 17 3.96 17 6 17 C6 15.68 6 14.36 6 13 C4.02 13 2.04 13 0 13 C0 12.34 0 11.68 0 11 C1.98 11 3.96 11 6 11 C6 9.68 6 8.36 6 7 C4.02 7 2.04 7 0 7 C0 6.34 0 5.68 0 5 C1.98 5 3.96 5 6 5 C6 4.01 6 3.02 6 2 C3.03 1.505 3.03 1.505 0 1 C0 0.67 0 0.34 0 0 Z " fill="#A4DEEA" transform="translate(7,58)"/>
<path d="M0 0 C0 3.3 0 6.6 0 10 C13.53 10 27.06 10 41 10 C41 11.65 41 13.3 41 15 C27.47 15 13.94 15 0 15 C-0.33 15.99 -0.66 16.98 -1 18 C-5.14581887 18.02886751 -9.29161216 18.04675327 -13.4375 18.0625 C-15.21350586 18.07506836 -15.21350586 18.07506836 -17.02539062 18.08789062 C-18.15009766 18.09111328 -19.27480469 18.09433594 -20.43359375 18.09765625 C-21.99678345 18.10551147 -21.99678345 18.10551147 -23.59155273 18.11352539 C-26 18 -26 18 -27 17 C-27.04092937 14.66702567 -27.04241723 12.33294775 -27 10 C-20.125 10.875 -20.125 10.875 -19 12 C-18.67 11.34 -18.34 10.68 -18 10 C-17.34 10 -16.68 10 -16 10 C-16 11.32 -16 12.64 -16 14 C-15.34 13.67 -14.68 13.34 -14 13 C-13.67 12.01 -13.34 11.02 -13 10 C-11.68 10 -10.36 10 -9 10 C-8.67 10.66 -8.34 11.32 -8 12 C-7.01 10.68 -6.02 9.36 -5 8 C-5.515625 7.401875 -6.03125 6.80375 -6.5625 6.1875 C-7.036875 5.465625 -7.51125 4.74375 -8 4 C-7.67 3.01 -7.34 2.02 -7 1 C-2.25 0 -2.25 0 0 0 Z " fill="#3AD8C8" transform="translate(60,87)"/>
<path d="M0 0 C1.32 0 2.64 0 4 0 C4 6.6 4 13.2 4 20 C6.31 20 8.62 20 11 20 C12.85392146 21.85392146 12.23544204 24.42453037 12.328125 26.89453125 C11.86134735 29.88968783 11.31900236 30.98902452 9 33 C5.94749074 33.64309997 2.92437009 33.69705248 -0.1875 33.75 C-1.03248047 33.77964844 -1.87746094 33.80929688 -2.74804688 33.83984375 C-4.83151822 33.9104699 -6.91576506 33.95750795 -9 34 C-9.05631592 34.6398584 -9.11263184 35.2797168 -9.1706543 35.93896484 C-9.56587917 40.28785499 -10.0728661 44.0172566 -12 48 C-12.33 48 -12.66 48 -13 48 C-13.19619224 43.70868391 -13.38048583 39.41693898 -13.5625 35.125 C-13.61857422 33.90167969 -13.67464844 32.67835937 -13.73242188 31.41796875 C-13.78076172 30.25136719 -13.82910156 29.08476563 -13.87890625 27.8828125 C-13.9260376 26.80402832 -13.97316895 25.72524414 -14.02172852 24.61376953 C-14 22 -14 22 -13 20 C-8.71 20 -4.42 20 0 20 C0 13.4 0 6.8 0 0 Z " fill="#5B3AFF" transform="translate(115,63)"/>
<path d="M0 0 C0.061875 0.94875 0.12375 1.8975 0.1875 2.875 C0.66564228 6.13768 0.66564228 6.13768 3.25 7.5 C6.52607711 8.09565038 8.07840301 7.50253559 11 6 C15 11.625 15 11.625 15 15 C12.87527424 15.05386629 10.75016348 15.09273071 8.625 15.125 C6.84996094 15.15980469 6.84996094 15.15980469 5.0390625 15.1953125 C2 15 2 15 0 13 C-5.54235245 12.42765564 -5.54235245 12.42765564 -10.5 14.5 C-12.71177972 18.18629954 -12.34421275 20.73176192 -12 25 C-11.67 25.66 -11.34 26.32 -11 27 C-14.63 27 -18.26 27 -22 27 C-21.67 26.34 -21.34 25.68 -21 25 C-20.34 25 -19.68 25 -19 25 C-19.185625 24.21625 -19.37125 23.4325 -19.5625 22.625 C-20 20 -20 20 -19 18 C-21.475 17.01 -21.475 17.01 -24 16 C-22.90931332 12.22454612 -22.0916909 9.52956528 -19 7 C-17.88625 7.556875 -17.88625 7.556875 -16.75 8.125 C-14.05716353 9.29515863 -14.05716353 9.29515863 -11.6875 8.125 C-11.130625 7.75375 -10.57375 7.3825 -10 7 C-10 5.02 -10 3.04 -10 1 C-3.375 0 -3.375 0 0 0 Z " fill="#E9EBF2" transform="translate(107,18)"/>
<path d="M0 0 C1.93166016 0.01740234 1.93166016 0.01740234 3.90234375 0.03515625 C5.19269531 0.04417969 6.48304687 0.05320313 7.8125 0.0625 C8.81152344 0.07410156 9.81054688 0.08570313 10.83984375 0.09765625 C9.84984375 0.59265625 9.84984375 0.59265625 8.83984375 1.09765625 C8.83984375 2.41765625 8.83984375 3.73765625 8.83984375 5.09765625 C9.45859375 5.18015625 10.07734375 5.26265625 10.71484375 5.34765625 C12.83984375 6.09765625 12.83984375 6.09765625 14.08984375 8.16015625 C14.33734375 8.79953125 14.58484375 9.43890625 14.83984375 10.09765625 C16.48984375 10.09765625 18.13984375 10.09765625 19.83984375 10.09765625 C20.16984375 11.41765625 20.49984375 12.73765625 20.83984375 14.09765625 C17.86984375 14.09765625 14.89984375 14.09765625 11.83984375 14.09765625 C11.83984375 16.40765625 11.83984375 18.71765625 11.83984375 21.09765625 C12.49984375 21.42765625 13.15984375 21.75765625 13.83984375 22.09765625 C11.85984375 23.08765625 11.85984375 23.08765625 9.83984375 24.09765625 C9.17984375 23.10765625 8.51984375 22.11765625 7.83984375 21.09765625 C8.16984375 19.44765625 8.49984375 17.79765625 8.83984375 16.09765625 C2.23984375 16.09765625 -4.36015625 16.09765625 -11.16015625 16.09765625 C-11.16015625 15.43765625 -11.16015625 14.77765625 -11.16015625 14.09765625 C-8.85015625 14.42765625 -6.54015625 14.75765625 -4.16015625 15.09765625 C-4.17175781 14.09863281 -4.18335937 13.09960938 -4.1953125 12.0703125 C-4.20433594 10.77996094 -4.21335937 9.48960938 -4.22265625 8.16015625 C-4.23425781 6.87238281 -4.24585937 5.58460937 -4.2578125 4.2578125 C-4.13018023 0.12763227 -4.13018023 0.12763227 0 0 Z " fill="#92E2E7" transform="translate(109.16015625,32.90234375)"/>
<path d="M0 0 C1.58206057 0.00667536 3.16410534 0.0186375 4.74609375 0.03515625 C5.55240234 0.03966797 6.35871094 0.04417969 7.18945312 0.04882812 C9.18753131 0.06065107 11.18557158 0.07858711 13.18359375 0.09765625 C13.21043687 2.91021906 13.23035563 5.72252866 13.24609375 8.53515625 C13.25447266 9.33759766 13.26285156 10.14003906 13.27148438 10.96679688 C13.28010805 13.01060846 13.23587525 15.05449527 13.18359375 17.09765625 C11.36243372 18.91881628 8.87687611 18.23000705 6.45703125 18.234375 C5.70679687 18.23050781 4.9565625 18.22664063 4.18359375 18.22265625 C3.05824219 18.22845703 3.05824219 18.22845703 1.91015625 18.234375 C-3.68979572 18.22426678 -3.68979572 18.22426678 -4.81640625 17.09765625 C-4.91621839 14.42034245 -4.955205 11.7746145 -4.94140625 9.09765625 C-4.94527344 8.34742187 -4.94914062 7.5971875 -4.953125 6.82421875 C-4.94103514 0.12643386 -4.94103514 0.12643386 0 0 Z " fill="#3DCFE4" transform="translate(109.81640625,95.90234375)"/>
<path d="M0 0 C1.98 0 3.96 0 6 0 C6.33 0.66 6.66 1.32 7 2 C15.25 2 23.5 2 32 2 C32.33 1.34 32.66 0.68 33 0 C35.64 0 38.28 0 41 0 C40.34 0.33 39.68 0.66 39 1 C38.67 1.66 38.34 2.32 38 3 C37.01 2.67 36.02 2.34 35 2 C35 2.99 35 3.98 35 5 C34.68578929 7.00309329 34.3548954 9.00371336 34 11 C29.31860746 11.02465288 24.63725241 11.04283739 19.95581055 11.05493164 C18.36205386 11.05997157 16.76830181 11.0668035 15.17456055 11.07543945 C12.88849747 11.08751999 10.60249533 11.09323155 8.31640625 11.09765625 C7.59973282 11.10281754 6.88305939 11.10797882 6.14466858 11.11329651 C4.42936328 11.11349263 2.71418734 11.06192007 1 11 C0 10 0 10 -0.09765625 7.71484375 C-0.08605469 6.79832031 -0.07445313 5.88179688 -0.0625 4.9375 C-0.05347656 4.01839844 -0.04445313 3.09929687 -0.03515625 2.15234375 C-0.02355469 1.44207031 -0.01195313 0.73179688 0 0 Z " fill="#C1D9FE" transform="translate(27,102)"/>
<path d="M0 0 C5.61 0 11.22 0 17 0 C17 5.61 17 11.22 17 17 C11.39 17 5.78 17 0 17 C0 11.39 0 5.78 0 0 Z " fill="#3E4E9A" transform="translate(15,34)"/>
<path d="M0 0 C1.5631897 0.00785522 1.5631897 0.00785522 3.15795898 0.01586914 C4.28266602 0.0190918 5.40737305 0.02231445 6.56616211 0.02563477 C7.75016602 0.03401367 8.93416992 0.04239258 10.15405273 0.05102539 C11.34192383 0.05553711 12.52979492 0.06004883 13.75366211 0.06469727 C16.69967499 0.07652864 19.64558954 0.09301252 22.59155273 0.11352539 C22.26155273 0.77352539 21.93155273 1.43352539 21.59155273 2.11352539 C19.02905273 2.73852539 19.02905273 2.73852539 16.59155273 3.11352539 C17.20432885 6.07527662 17.84527795 7.49411322 19.59155273 10.11352539 C17.94155273 11.43352539 16.29155273 12.75352539 14.59155273 14.11352539 C14.59155273 13.12352539 14.59155273 12.13352539 14.59155273 11.11352539 C13.27155273 11.11352539 11.95155273 11.11352539 10.59155273 11.11352539 C10.26155273 12.43352539 9.93155273 13.75352539 9.59155273 15.11352539 C8.93155273 15.11352539 8.27155273 15.11352539 7.59155273 15.11352539 C7.59155273 13.79352539 7.59155273 12.47352539 7.59155273 11.11352539 C6.93155273 11.11352539 6.27155273 11.11352539 5.59155273 11.11352539 C5.26155273 12.10352539 4.93155273 13.09352539 4.59155273 14.11352539 C3.60155273 13.45352539 2.61155273 12.79352539 1.59155273 12.11352539 C-0.06394258 11.72852648 -1.73069057 11.38559404 -3.40844727 11.11352539 C-3.43532877 9.46777973 -3.4547885 7.82191126 -3.47094727 6.17602539 C-3.48254883 5.25950195 -3.49415039 4.34297852 -3.50610352 3.39868164 C-3.37081445 0.23291744 -3.1699095 0.14941793 0 0 Z " fill="#46B4E1" transform="translate(36.408447265625,85.886474609375)"/>
<path d="M0 0 C6.6 0 13.2 0 20 0 C20 0.99 20 1.98 20 3 C18.68 3.33 17.36 3.66 16 4 C16 5.65 16 7.3 16 9 C15.67 9 15.34 9 15 9 C15 7.35 15 5.7 15 4 C12.69 4 10.38 4 8 4 C8 6.31 8 8.62 8 11 C9.65 11 11.3 11 13 11 C12.67 11.66 12.34 12.32 12 13 C10.66666667 13.33333333 9.33333333 13.66666667 8 14 C7.67 14.66 7.34 15.32 7 16 C2.71 16 -1.58 16 -6 16 C-6.33 12.37 -6.66 8.74 -7 5 C-2 3 -2 3 0 3 C0 2.01 0 1.02 0 0 Z " fill="#6C73FE" transform="translate(66,81)"/>
<path d="M0 0 C0 10.56 0 21.12 0 32 C-7.92 32 -15.84 32 -24 32 C-24 31.34 -24 30.68 -24 30 C-22.35 29.34 -20.7 28.68 -19 28 C-18.67 28.33 -18.34 28.66 -18 29 C-17.34 28.34 -16.68 27.68 -16 27 C-15.34 27.33 -14.68 27.66 -14 28 C-14.66 26.68 -15.32 25.36 -16 24 C-14.68 24 -13.36 24 -12 24 C-12 23.34 -12 22.68 -12 22 C-8.535 21.505 -8.535 21.505 -5 21 C-4.96261719 19.81921875 -4.92523438 18.6384375 -4.88671875 17.421875 C-4.82104851 15.86455212 -4.75460153 14.30726186 -4.6875 12.75 C-4.66494141 11.97269531 -4.64238281 11.19539063 -4.61914062 10.39453125 C-4.13050881 0 -4.13050881 0 0 0 Z " fill="#7285FE" transform="translate(127,92)"/>
<path d="M0 0 C8 0 16 0 24 0 C24 2.31 24 4.62 24 7 C22.02 7 20.04 7 18 7 C17.566875 7.9590625 17.566875 7.9590625 17.125 8.9375 C16 11 16 11 14 12 C11.44842345 12.0716735 8.92527029 12.09308442 6.375 12.0625 C5.66859375 12.05798828 4.9621875 12.05347656 4.234375 12.04882812 C2.48954725 12.03703875 0.744763 12.01910324 -1 12 C-0.67 11.01 -0.34 10.02 0 9 C2.0625 8.3125 2.0625 8.3125 4 8 C2.68 7.67 1.36 7.34 0 7 C0 4.69 0 2.38 0 0 Z " fill="#778BFE" transform="translate(74,85)"/>
<path d="M0 0 C6.6 0 13.2 0 20 0 C20 1.98 20 3.96 20 6 C20.2475 6.70125 20.495 7.4025 20.75 8.125 C21 10 21 10 19.6875 12.25 C15.63009955 14.8920282 11.71143922 14.32368666 7 14 C7 11.03 7 8.06 7 5 C4.69 5 2.38 5 0 5 C0 3.35 0 1.7 0 0 Z " fill="#39C6D7" transform="translate(98,49)"/>
<path d="M0 0 C13.53 0 27.06 0 41 0 C41 1.65 41 3.3 41 5 C27.47 5 13.94 5 0 5 C0 3.35 0 1.7 0 0 Z " fill="#3C3D89" transform="translate(60,97)"/>
<path d="M0 0 C1.32 0.66 2.64 1.32 4 2 C3.9071875 3.3921875 3.9071875 3.3921875 3.8125 4.8125 C4.02734425 8.46485218 4.5287273 8.63617394 7 11 C6.6875 13.1875 6.6875 13.1875 6 15 C4.35 15.33 2.7 15.66 1 16 C1 17.32 1 18.64 1 20 C-0.65 20.33 -2.3 20.66 -4 21 C-4.33 20.01 -4.66 19.02 -5 18 C-6.98 18.66 -8.96 19.32 -11 20 C-12.5625 18.875 -12.5625 18.875 -14 17 C-13.6875 13.8125 -13.6875 13.8125 -13 11 C-14.32 10.34 -15.64 9.68 -17 9 C-16.67 7.68 -16.34 6.36 -16 5 C-13.36 5 -10.72 5 -8 5 C-8.20625 6.11375 -8.4125 7.2275 -8.625 8.375 C-8.74875 9.57125 -8.8725 10.7675 -9 12 C-7.10244856 14.34973818 -7.10244856 14.34973818 -3.875 14.125 C-2.451875 14.063125 -2.451875 14.063125 -1 14 C-0.70437633 8.67829506 -0.70437633 8.67829506 -3 4 C-2.01 2.68 -1.02 1.36 0 0 Z " fill="#EAEBF2" transform="translate(137,58)"/>
<path d="M0 0 C0.99 0 1.98 0 3 0 C3 9.57 3 19.14 3 29 C9.86612807 28.96041531 9.86612807 28.96041531 16.73217773 28.90991211 C18.00750366 28.90616577 18.00750366 28.90616577 19.30859375 28.90234375 C20.62041626 28.89448853 20.62041626 28.89448853 21.95874023 28.88647461 C24 29 24 29 25 30 C27.21687994 30.15873955 29.43855298 30.25133837 31.66015625 30.31640625 C32.65685585 30.3475779 32.65685585 30.3475779 33.6736908 30.37937927 C35.80318543 30.44493658 37.93280668 30.50378785 40.0625 30.5625 C41.50326847 30.60567939 42.94402399 30.64929349 44.38476562 30.69335938 C47.9230404 30.80062393 51.46145869 30.90187371 55 31 C55 31.33 55 31.66 55 32 C47.48863592 32.05057965 39.97731551 32.08568257 32.46582031 32.10986328 C29.90883747 32.11994038 27.35186621 32.13360226 24.79492188 32.15087891 C21.12627308 32.17505217 17.45777621 32.18646585 13.7890625 32.1953125 C12.0655809 32.21079636 12.0655809 32.21079636 10.30728149 32.22659302 C9.2463327 32.22674408 8.18538391 32.22689514 7.09228516 32.22705078 C6.15518707 32.231492 5.21808899 32.23593323 4.25259399 32.24050903 C2 32 2 32 0 30 C-0.22705078 27.01904297 -0.22705078 27.01904297 -0.1953125 23.2421875 C-0.1924826 22.57913605 -0.18965271 21.91608459 -0.18673706 21.23294067 C-0.17553435 19.11344417 -0.15043051 16.99436896 -0.125 14.875 C-0.11497028 13.43880818 -0.10584441 12.00260975 -0.09765625 10.56640625 C-0.075595 7.04413372 -0.04106494 3.52210797 0 0 Z " fill="#42A9E4" transform="translate(41,49)"/>
<path d="M0 0 C0.66 0 1.32 0 2 0 C2.02685412 2.31243792 2.04632841 4.6249627 2.0625 6.9375 C2.07410156 8.22527344 2.08570313 9.51304688 2.09765625 10.83984375 C2 14 2 14 1 15 C-0.41570123 15.08651611 -1.835595 15.10704904 -3.25390625 15.09765625 C-4.10791016 15.09443359 -4.96191406 15.09121094 -5.84179688 15.08789062 C-6.73962891 15.07951172 -7.63746094 15.07113281 -8.5625 15.0625 C-9.46419922 15.05798828 -10.36589844 15.05347656 -11.29492188 15.04882812 C-13.53001314 15.03700225 -15.76497437 15.0205222 -18 15 C-18 14.01 -18 13.02 -18 12 C-17.44570312 11.73445313 -16.89140625 11.46890625 -16.3203125 11.1953125 C-15.59585938 10.84210937 -14.87140625 10.48890625 -14.125 10.125 C-13.40570313 9.77695312 -12.68640625 9.42890625 -11.9453125 9.0703125 C-9.47380921 7.7104894 -8.22825878 6.57942614 -7.1875 3.9375 C-6 2 -6 2 -3.4375 1.3125 C-2.633125 1.209375 -1.82875 1.10625 -1 1 C-0.67 0.67 -0.34 0.34 0 0 Z " fill="#36DEC4" transform="translate(133,48)"/>
<path d="M0 0 C2.64 0 5.28 0 8 0 C8 6.93 8 13.86 8 21 C1.07 21 -5.86 21 -13 21 C-13 20.01 -13 19.02 -13 18 C-10 18 -7 18 -4 18 C-1.92638012 17.75243555 -1.92638012 17.75243555 0 17 C0.33 16.01 0.66 15.02 1 14 C1.99 14 2.98 14 4 14 C3.71848913 12.68528432 3.42446661 11.37324233 3.125 10.0625 C2.96257813 9.33160156 2.80015625 8.60070312 2.6328125 7.84765625 C2.17038477 5.79299706 2.17038477 5.79299706 0 5 C0 3.35 0 1.7 0 0 Z " fill="#36D0CA" transform="translate(26,59)"/>
<path d="M0 0 C1.32 0 2.64 0 4 0 C4 6.6 4 13.2 4 20 C6.31 20 8.62 20 11 20 C11.33 20.99 11.66 21.98 12 23 C3.19039858 24.30512614 -5.19039858 24.30512614 -14 23 C-13.505 21.515 -13.505 21.515 -13 20 C-8.71 20 -4.42 20 0 20 C0 13.4 0 6.8 0 0 Z " fill="#4C4CA1" transform="translate(115,63)"/>
<path d="M0 0 C1.31871094 -0.01224609 2.63742188 -0.02449219 3.99609375 -0.03710938 C5.90068359 -0.04000977 5.90068359 -0.04000977 7.84375 -0.04296875 C9.00068359 -0.04707764 10.15761719 -0.05118652 11.34960938 -0.05541992 C14.47736509 0.18575467 16.680892 0.85423629 19.5 2.1875 C18.5 4.1875 18.5 4.1875 16.84521484 4.80200195 C11.99200924 5.59975457 7.04404055 5.37340312 2.13769531 5.37280273 C0.13863013 5.37498512 -1.86039532 5.39349143 -3.859375 5.41210938 C-5.13039063 5.41404297 -6.40140625 5.41597656 -7.7109375 5.41796875 C-8.86899902 5.42207764 -10.02706055 5.42618652 -11.22021484 5.43041992 C-14.61310954 5.17912245 -17.33332989 4.39923908 -20.5 3.1875 C-20.17 2.5275 -19.84 1.8675 -19.5 1.1875 C-13.23640183 -0.60566158 -6.45139424 0.00315317 0 0 Z " fill="#EAEBF2" transform="translate(114.5,125.8125)"/>
<path d="M0 0 C0 5.61 0 11.22 0 17 C0.99 17 1.98 17 3 17 C3 18.65 3 20.3 3 22 C0.69 22 -1.62 22 -4 22 C-4 15.73 -4 9.46 -4 3 C-10.27 3 -16.54 3 -23 3 C-23 2.34 -23 1.68 -23 1 C-19.91675903 0.83159521 -16.83339379 0.66558138 -13.75 0.5 C-12.87730469 0.45230469 -12.00460938 0.40460938 -11.10546875 0.35546875 C-10.26113281 0.31035156 -9.41679687 0.26523438 -8.546875 0.21875 C-7.38430176 0.1559082 -7.38430176 0.1559082 -6.19824219 0.09179688 C-4.13373418 0.00558463 -2.0663073 0 0 0 Z " fill="#6F73AA" transform="translate(30,80)"/>
<path d="M0 0 C2.31 0 4.62 0 7 0 C7 4.62 7 9.24 7 14 C4.03 13.505 4.03 13.505 1 13 C0.67 12.01 0.34 11.02 0 10 C-2.64 10 -5.28 10 -8 10 C-8 8.02 -8 6.04 -8 4 C-5.36 4 -2.72 4 0 4 C0 2.68 0 1.36 0 0 Z " fill="#5832FF" transform="translate(34,49)"/>
<path d="M0 0 C0.66 0 1.32 0 2 0 C2.02685938 2.14576637 2.04633088 4.29162645 2.0625 6.4375 C2.07410156 7.63246094 2.08570312 8.82742187 2.09765625 10.05859375 C2 13 2 13 1 14 C-1.35313555 14.07271741 -3.70833668 14.08370868 -6.0625 14.0625 C-7.35285156 14.05347656 -8.64320312 14.04445313 -9.97265625 14.03515625 C-10.97167969 14.02355469 -11.97070312 14.01195313 -13 14 C-13 13.34 -13 12.68 -13 12 C-12.34 12 -11.68 12 -11 12 C-10.67 11.01 -10.34 10.02 -10 9 C-9.34 8.01 -8.68 7.02 -8 6 C-7.34 6 -6.68 6 -6 6 C-4.29220027 4.37550757 -2.62449243 2.70779973 -1 1 C-0.67 0.67 -0.34 0.34 0 0 Z " fill="#3AD9D7" transform="translate(121,100)"/>
<path d="M0 0 C0.93134766 0.00322266 1.86269531 0.00644531 2.82226562 0.00976562 C4.26182617 0.02233398 4.26182617 0.02233398 5.73046875 0.03515625 C6.70951172 0.03966797 7.68855469 0.04417969 8.69726562 0.04882812 C11.10422986 0.06056941 13.51106732 0.07699206 15.91796875 0.09765625 C16.24796875 1.41765625 16.57796875 2.73765625 16.91796875 4.09765625 C15.92796875 4.09765625 14.93796875 4.09765625 13.91796875 4.09765625 C12.92796875 4.59265625 12.92796875 4.59265625 11.91796875 5.09765625 C10.17752705 5.18215253 8.43387153 5.20488649 6.69140625 5.1953125 C5.66015625 5.19208984 4.62890625 5.18886719 3.56640625 5.18554688 C1.94605469 5.17297852 1.94605469 5.17297852 0.29296875 5.16015625 C-1.33898437 5.15338867 -1.33898437 5.15338867 -3.00390625 5.14648438 C-5.69666914 5.13467401 -8.38932313 5.11820403 -11.08203125 5.09765625 C-10.75203125 3.77765625 -10.42203125 2.45765625 -10.08203125 1.09765625 C-6.65629188 0.32237146 -3.5096388 -0.02153153 0 0 Z " fill="#655CFE" transform="translate(50.08203125,80.90234375)"/>
<path d="M0 0 C1.32 0 2.64 0 4 0 C4 0.66 4 1.32 4 2 C5.32 1.67 6.64 1.34 8 1 C10 6.625 10 6.625 10 10 C9.01 10 8.02 10 7 10 C7 10.99 7 11.98 7 13 C0.84765625 12.4140625 0.84765625 12.4140625 -1 12 C-1.33 11.34 -1.66 10.68 -2 10 C-1.67 9.01 -1.34 8.02 -1 7 C-1.66 7 -2.32 7 -3 7 C-3 6.01 -3 5.02 -3 4 C-2.01 4 -1.02 4 0 4 C0 2.68 0 1.36 0 0 Z " fill="#EDF9FB" transform="translate(20,63)"/>
<path d="M0 0 C2.31 0 4.62 0 7 0 C7.66 1.32 8.32 2.64 9 4 C10.65 4 12.3 4 14 4 C14.33 4.99 14.66 5.98 15 7 C7.74 7 0.48 7 -7 7 C-6.34 6.01 -5.68 5.02 -5 4 C-4.01 4 -3.02 4 -2 4 C-1.34 2.68 -0.68 1.36 0 0 Z " fill="#FDFEFE" transform="translate(115,39)"/>
<path d="M0 0 C-0.33 0.66 -0.66 1.32 -1 2 C-3.5625 2.625 -3.5625 2.625 -6 3 C-5.38722388 5.96175123 -4.74627478 7.38058783 -3 10 C-4.65 11.32 -6.3 12.64 -8 14 C-8 13.01 -8 12.02 -8 11 C-9.32 11 -10.64 11 -12 11 C-12.33 12.32 -12.66 13.64 -13 15 C-13.66 15 -14.32 15 -15 15 C-14.35576791 10.0480668 -13.71727521 6.05481649 -10.875 1.875 C-6.94264499 -0.68957935 -4.6245498 -0.391911 0 0 Z " fill="#3DBBDC" transform="translate(59,86)"/>
<path d="M0 0 C2.31 0 4.62 0 7 0 C7 2.97 7 5.94 7 9 C7.66 9.33 8.32 9.66 9 10 C8.01 10.33 7.02 10.66 6 11 C4.79117904 13.00016466 4.79117904 13.00016466 4 15 C2.68 15 1.36 15 0 15 C0 10.05 0 5.1 0 0 Z " fill="#6B74FD" transform="translate(98,54)"/>
<path d="M0 0 C1.66611905 -0.042721 3.33382885 -0.04063832 5 0 C6.79309961 1.79309961 6.29807043 4.32375978 6.375 6.75 C6.36158804 12.38302461 6.36158804 12.38302461 4.8828125 14.90625 C3.5 16.25 3.5 16.25 1 18 C0 17 0 17 -0.09765625 13.18359375 C-0.09098089 11.60153318 -0.07901875 10.01948841 -0.0625 8.4375 C-0.05798828 7.63119141 -0.05347656 6.82488281 -0.04882812 5.99414062 C-0.03700518 3.99606244 -0.01906914 1.99802217 0 0 Z " fill="#5C3EFF" transform="translate(35,62)"/>
<path d="M0 0 C1.93166016 0.01740234 1.93166016 0.01740234 3.90234375 0.03515625 C5.19269531 0.04417969 6.48304687 0.05320312 7.8125 0.0625 C8.81152344 0.07410156 9.81054688 0.08570312 10.83984375 0.09765625 C9.90011719 0.78794922 9.90011719 0.78794922 8.94140625 1.4921875 C6.8353093 3.01718874 6.8353093 3.01718874 5.21484375 4.78515625 C3.83984375 6.09765625 3.83984375 6.09765625 1.83984375 6.09765625 C1.83984375 6.75765625 1.83984375 7.41765625 1.83984375 8.09765625 C-0.14015625 9.08765625 -0.14015625 9.08765625 -2.16015625 10.09765625 C-2.16015625 11.08765625 -2.16015625 12.07765625 -2.16015625 13.09765625 C-2.82015625 13.09765625 -3.48015625 13.09765625 -4.16015625 13.09765625 C-4.18702178 11.11856227 -4.20649 9.13936654 -4.22265625 7.16015625 C-4.23425781 6.05800781 -4.24585937 4.95585938 -4.2578125 3.8203125 C-4.11749553 -0.09172464 -3.97435676 0.12281696 0 0 Z " fill="#40C2EE" transform="translate(109.16015625,95.90234375)"/>
<path d="M0 0 C5.94 0 11.88 0 18 0 C18 3 18 3 17 5 C11.39 5 5.78 5 0 5 C0 3.35 0 1.7 0 0 Z " fill="#34ACC5" transform="translate(98,49)"/>
<path d="M0 0 C0 0.33 0 0.66 0 1 C-1.98 1 -3.96 1 -6 1 C-6 6.61 -6 12.22 -6 18 C-2.7 18.33 0.6 18.66 4 19 C4 19.33 4 19.66 4 20 C-1.94 20 -7.88 20 -14 20 C-14 19.67 -14 19.34 -14 19 C-12.35 18.67 -10.7 18.34 -9 18 C-8.67 16.68 -8.34 15.36 -8 14 C-9.98 14 -11.96 14 -14 14 C-14 13.67 -14 13.34 -14 13 C-12.35 12.67 -10.7 12.34 -9 12 C-8.67 10.68 -8.34 9.36 -8 8 C-9.98 8 -11.96 8 -14 8 C-14 7.67 -14 7.34 -14 7 C-12.35 6.67 -10.7 6.34 -9 6 C-8.67 4.68 -8.34 3.36 -8 2 C-9.98 2 -11.96 2 -14 2 C-14 1.67 -14 1.34 -14 1 C-9.32798795 -0.20568053 -4.78503708 -0.09382426 0 0 Z " fill="#72D8E0" transform="translate(21,33)"/>
<path d="M0 0 C2.64 0 5.28 0 8 0 C8.21578568 3.1648567 8.34519007 5.3469377 6.84375 8.1875 C5 10 5 10 2.30078125 10.390625 C0.82158203 10.32101563 0.82158203 10.32101563 -0.6875 10.25 C-1.68136719 10.21390625 -2.67523438 10.1778125 -3.69921875 10.140625 C-4.83810547 10.07101563 -4.83810547 10.07101563 -6 10 C-4.71034824 8.62437146 -3.37310707 7.29233607 -2 6 C-1.34 6 -0.68 6 0 6 C0 5.01 0 4.02 0 3 C0.66 3 1.32 3 2 3 C2 2.34 2 1.68 2 1 C1.34 0.67 0.68 0.34 0 0 Z " fill="#645AFE" transform="translate(119,86)"/>
<path d="M0 0 C1.32 0 2.64 0 4 0 C4 6.6 4 13.2 4 20 C2.68 19.67 1.36 19.34 0 19 C0 12.73 0 6.46 0 0 Z " fill="#3E3E8B" transform="translate(115,63)"/>
<path d="M0 0 C12.87 0 25.74 0 39 0 C39 0.66 39 1.32 39 2 C29.43 2 19.86 2 10 2 C10 2.66 10 3.32 10 4 C9.01 4 8.02 4 7 4 C7 3.34 7 2.68 7 2 C4.69 2 2.38 2 0 2 C0 1.34 0 0.68 0 0 Z " fill="#62D3E0" transform="translate(34,45)"/>
<path d="M0 0 C8.58 0 17.16 0 26 0 C25.67 0.99 25.34 1.98 25 3 C17.08 3 9.16 3 1 3 C0.67 2.01 0.34 1.02 0 0 Z " fill="#4C4CA0" transform="translate(101,124)"/>
<path d="M0 0 C6.27 0 12.54 0 19 0 C19.33 2.31 19.66 4.62 20 7 C19.01 7 18.02 7 17 7 C17 6.34 17 5.68 17 5 C13.37 5 9.74 5 6 5 C6 4.01 6 3.02 6 2 C3.03 1.505 3.03 1.505 0 1 C0 0.67 0 0.34 0 0 Z " fill="#6DD3E4" transform="translate(7,58)"/>
<path d="M0 0 C6.875 0.875 6.875 0.875 8 2 C8.33 1.34 8.66 0.68 9 0 C9.66 0 10.32 0 11 0 C11 1.32 11 2.64 11 4 C11.66 3.67 12.32 3.34 13 3 C13.33 2.01 13.66 1.02 14 0 C15.32 0 16.64 0 18 0 C17.67 1.65 17.34 3.3 17 5 C11.39 5 5.78 5 0 5 C0 3.35 0 1.7 0 0 Z " fill="#36ADC6" transform="translate(33,97)"/>
<path d="M0 0 C0.33 0.99 0.66 1.98 1 3 C-0.65 4.32 -2.3 5.64 -4 7 C-4 6.34 -4 5.68 -4 5 C-4.66 5 -5.32 5 -6 5 C-6.2475 5.5775 -6.495 6.155 -6.75 6.75 C-8.16683317 9.3002997 -9.87627537 11.01785701 -12 13 C-12.99 12.67 -13.98 12.34 -15 12 C-14.01 11.34 -13.02 10.68 -12 10 C-12.33 9.67 -12.66 9.34 -13 9 C-13.04092937 6.66702567 -13.04241723 4.33294775 -13 2 C-8.71 2 -4.42 2 0 2 C0 1.34 0 0.68 0 0 Z " fill="#43D8D0" transform="translate(134,45)"/>
<path d="M0 0 C1.81274414 0.07831055 1.81274414 0.07831055 3.66210938 0.15820312 C6.62921084 0.28720754 9.59591748 0.4221435 12.5625 0.5625 C12.5625 1.2225 12.5625 1.8825 12.5625 2.5625 C2.0025 2.5625 -8.5575 2.5625 -19.4375 2.5625 C-19.7675 1.9025 -20.0975 1.2425 -20.4375 0.5625 C-13.60925048 -0.79111775 -6.92218295 -0.32854878 0 0 Z " fill="#87B4FE" transform="translate(81.4375,118.4375)"/>
<path d="M0 0 C3.63 0 7.26 0 11 0 C11 0.66 11 1.32 11 2 C10.34 2 9.68 2 9 2 C9 2.99 9 3.98 9 5 C5.59768808 7.90441261 3.62811903 8.95947619 -0.875 9.25 C-1.90625 9.1675 -2.9375 9.085 -4 9 C-1.53222836 4.1878453 -1.53222836 4.1878453 1.125 3.25 C1.74375 3.1675 2.3625 3.085 3 3 C3.33 2.67 3.66 2.34 4 2 C2.68 1.34 1.36 0.68 0 0 Z " fill="#5E4BFB" transform="translate(110,87)"/>
<path d="M0 0 C1.67542976 0.28604898 3.34385343 0.61781233 5 1 C5.8125 3.6875 5.8125 3.6875 6 7 C3.84614331 9.61955544 2.04053406 11.47973297 -1 13 C-1.02686553 11.02090602 -1.04633375 9.04171029 -1.0625 7.0625 C-1.07410156 5.96035156 -1.08570312 4.85820313 -1.09765625 3.72265625 C-1 1 -1 1 0 0 Z " fill="#31C5DF" transform="translate(106,33)"/>
<path d="M0 0 C2.31 0 4.62 0 7 0 C7 1.65 7 3.3 7 5 C3.37 5 -0.26 5 -4 5 C-4 6.65 -4 8.3 -4 10 C-5.32 10 -6.64 10 -8 10 C-8 8.02 -8 6.04 -8 4 C-5.36 4 -2.72 4 0 4 C0 2.68 0 1.36 0 0 Z " fill="#3D418D" transform="translate(34,49)"/>
<path d="M0 0 C1.24716797 0.00322266 2.49433594 0.00644531 3.77929688 0.00976562 C5.07287109 0.01814453 6.36644531 0.02652344 7.69921875 0.03515625 C9.66858398 0.04192383 9.66858398 0.04192383 11.67773438 0.04882812 C14.91410885 0.06059676 18.15039053 0.07703865 21.38671875 0.09765625 C21.05671875 0.75765625 20.72671875 1.41765625 20.38671875 2.09765625 C19.73074707 2.11747559 19.07477539 2.13729492 18.39892578 2.15771484 C15.43610806 2.25278132 12.47401343 2.36253377 9.51171875 2.47265625 C7.96291016 2.5190625 7.96291016 2.5190625 6.3828125 2.56640625 C4.90361328 2.62441406 4.90361328 2.62441406 3.39453125 2.68359375 C2.4833252 2.71501465 1.57211914 2.74643555 0.63330078 2.77880859 C-1.81259311 2.89648136 -1.81259311 2.89648136 -3.61328125 5.09765625 C-6.34197532 5.06478042 -8.90994305 4.53367854 -11.61328125 4.09765625 C-11.61328125 3.10765625 -11.61328125 2.11765625 -11.61328125 1.09765625 C-7.68039761 0.16677716 -4.03673962 -0.0184326 0 0 Z " fill="#D9D9E8" transform="translate(106.61328125,125.90234375)"/>
<path d="M0 0 C0.33 1.32 0.66 2.64 1 4 C0.01 4 -0.98 4 -2 4 C-2 3.34 -2 2.68 -2 2 C-9.26 2 -16.52 2 -24 2 C-24 1.34 -24 0.68 -24 0 C-15.84997076 -1.06162705 -8.16617194 -0.84388104 0 0 Z " fill="#4BD6D5" transform="translate(97,45)"/>
<path d="M0 0 C1.32 0.33 2.64 0.66 4 1 C3.34 2.65 2.68 4.3 2 6 C1.34 6 0.68 6 0 6 C0.33 7.65 0.66 9.3 1 11 C-1.64 10.34 -4.28 9.68 -7 9 C-7 8.01 -7 7.02 -7 6 C-6.01 6 -5.02 6 -4 6 C-3.67 4.68 -3.34 3.36 -3 2 C-2.01 2 -1.02 2 0 2 C0 1.34 0 0.68 0 0 Z " fill="#48ADE6" transform="translate(40,88)"/>
<path d="M0 0 C0 1.65 0 3.3 0 5 C-6.93 5 -13.86 5 -21 5 C-21 4.01 -21 3.02 -21 2 C-14.455 1.87166667 -14.455 1.87166667 -11.5625 2.6875 C-8.12372331 3.10686301 -5.82106366 2.0114609 -2.671875 0.69140625 C-1 0 -1 0 0 0 Z " fill="#34DBC2" transform="translate(34,75)"/>
<path d="M0 0 C3.3 0 6.6 0 10 0 C9.01 0.495 9.01 0.495 8 1 C8 2.32 8 3.64 8 5 C8.99 5.33 9.98 5.66 11 6 C9.906875 6.309375 8.81375 6.61875 7.6875 6.9375 C5.44592006 7.58337897 3.2130649 8.2623117 1 9 C0.67 6.03 0.34 3.06 0 0 Z " fill="#75D7E4" transform="translate(110,33)"/>
<path d="M0 0 C2.64 0 5.28 0 8 0 C8 1.98 8 3.96 8 6 C6.68 6 5.36 6 4 6 C4.33 7.32 4.66 8.64 5 10 C4.34 10 3.68 10 3 10 C2.87625 9.360625 2.7525 8.72125 2.625 8.0625 C2.315625 7.0415625 2.315625 7.0415625 2 6 C1.34 5.67 0.68 5.34 0 5 C0 3.35 0 1.7 0 0 Z " fill="#3EB7DA" transform="translate(26,59)"/>
<path d="M0 0 C0 2.64 0 5.28 0 8 C-1.32 8.33 -2.64 8.66 -4 9 C-6.0625 6.6875 -6.0625 6.6875 -8 4 C-7.67 3.01 -7.34 2.02 -7 1 C-2.25 0 -2.25 0 0 0 Z " fill="#3BC9D5" transform="translate(60,87)"/>
<path d="M0 0 C2.31 0 4.62 0 7 0 C7 2.31 7 4.62 7 7 C4.69 7 2.38 7 0 7 C0 4.69 0 2.38 0 0 Z " fill="#9EBEFE" transform="translate(91,85)"/>
<path d="M0 0 C1.23556641 0.01740234 1.23556641 0.01740234 2.49609375 0.03515625 C3.32238281 0.04417969 4.14867187 0.05320312 5 0.0625 C5.63808594 0.07410156 6.27617188 0.08570312 6.93359375 0.09765625 C7.26359375 0.75765625 7.59359375 1.41765625 7.93359375 2.09765625 C6.61359375 2.09765625 5.29359375 2.09765625 3.93359375 2.09765625 C3.93359375 2.75765625 3.93359375 3.41765625 3.93359375 4.09765625 C2.94359375 4.42765625 1.95359375 4.75765625 0.93359375 5.09765625 C0.60359375 6.08765625 0.27359375 7.07765625 -0.06640625 8.09765625 C-1.05640625 8.09765625 -2.04640625 8.09765625 -3.06640625 8.09765625 C-3.10882348 5.7647085 -3.10733562 3.43063058 -3.06640625 1.09765625 C-2.06640625 0.09765625 -2.06640625 0.09765625 0 0 Z " fill="#4995EC" transform="translate(36.06640625,85.90234375)"/>
<path d="M0 0 C3.3 0 6.6 0 10 0 C9 2 9 2 7 2.9375 C4.65391779 3.8891846 4.65391779 3.8891846 4 7 C2.02 7.99 2.02 7.99 0 9 C0 6.03 0 3.06 0 0 Z " fill="#3DBBDE" transform="translate(105,54)"/>
<path d="M0 0 C0.99 0 1.98 0 3 0 C3 1.32 3 2.64 3 4 C2.34 4 1.68 4 1 4 C1 4.66 1 5.32 1 6 C0.34 6 -0.32 6 -1 6 C-1.33 7.32 -1.66 8.64 -2 10 C-2.66 10 -3.32 10 -4 10 C-4.99 11.485 -4.99 11.485 -6 13 C-8.625 13.1875 -8.625 13.1875 -11 13 C-11 12.01 -11 11.02 -11 10 C-10.44570312 9.73445313 -9.89140625 9.46890625 -9.3203125 9.1953125 C-8.59585938 8.84210937 -7.87140625 8.48890625 -7.125 8.125 C-6.40570313 7.77695312 -5.68640625 7.42890625 -4.9453125 7.0703125 C-2.42684802 5.68465132 -1.19639081 4.66772874 -0.375 1.875 C-0.25125 1.25625 -0.1275 0.6375 0 0 Z " fill="#34D3C8" transform="translate(126,50)"/>
<path d="M0 0 C2.31 0 4.62 0 7 0 C7 1.65 7 3.3 7 5 C3.04 5 -0.92 5 -5 5 C-4 3 -4 3 -1 2 C-0.67 1.34 -0.34 0.68 0 0 Z " fill="#7895FE" transform="translate(120,119)"/>
<path d="M0 0 C0.66 0 1.32 0 2 0 C2.02689216 1.47906892 2.04634621 2.95827483 2.0625 4.4375 C2.07410156 5.26121094 2.08570312 6.08492188 2.09765625 6.93359375 C2 9 2 9 1 10 C-1.67058851 10.14115161 -4.32432238 10.04247107 -7 10 C-6.34 9.67 -5.68 9.34 -5 9 C-4.67 8.01 -4.34 7.02 -4 6 C-3 5 -2 4 -1 3 C-0.67 2.01 -0.34 1.02 0 0 Z " fill="#36DCC7" transform="translate(121,104)"/>
<path d="M0 0 C0.66 1.32 1.32 2.64 2 4 C3.97536745 3.65213292 3.97536745 3.65213292 6 3 C6.33 2.34 6.66 1.68 7 1 C7.99 1.33 8.98 1.66 10 2 C10 2.99 10 3.98 10 5 C9.01 5 8.02 5 7 5 C7 5.99 7 6.98 7 8 C0.84765625 7.4140625 0.84765625 7.4140625 -1 7 C-1.33 6.34 -1.66 5.68 -2 5 C-1.0625 2.375 -1.0625 2.375 0 0 Z " fill="#EFF8FB" transform="translate(20,68)"/>
<path d="M0 0 C0.66 0 1.32 0 2 0 C2.09765625 6.15234375 2.09765625 6.15234375 2 8 C1 9 1 9 -2.0625 9.0625 C-3.031875 9.041875 -4.00125 9.02125 -5 9 C-3.50079488 5.88626628 -1.91847864 2.87771795 0 0 Z " fill="#34DCC2" transform="translate(58,96)"/>
<path d="M0 0 C9.9 0.33 19.8 0.66 30 1 C30 1.33 30 1.66 30 2 C23.4 2 16.8 2 10 2 C10 2.66 10 3.32 10 4 C9.01 4 8.02 4 7 4 C7 3.34 7 2.68 7 2 C4.69 2 2.38 2 0 2 C0 1.34 0 0.68 0 0 Z " fill="#87D7E7" transform="translate(34,45)"/>
<path d="M0 0 C1.37478516 0.01740234 1.37478516 0.01740234 2.77734375 0.03515625 C3.69644531 0.04417969 4.61554688 0.05320312 5.5625 0.0625 C6.27277344 0.07410156 6.98304687 0.08570312 7.71484375 0.09765625 C4.71484375 2.09765625 4.71484375 2.09765625 1.71484375 2.09765625 C1.71484375 2.75765625 1.71484375 3.41765625 1.71484375 4.09765625 C0.04817708 5.76432292 -1.61848958 7.43098958 -3.28515625 9.09765625 C-3.3828125 2.9453125 -3.3828125 2.9453125 -3.28515625 1.09765625 C-2.28515625 0.09765625 -2.28515625 0.09765625 0 0 Z " fill="#45B4F5" transform="translate(108.28515625,95.90234375)"/>
<path d="M0 0 C0 0.66 0 1.32 0 2 C0.66 2.33 1.32 2.66 2 3 C0.35 4.32 -1.3 5.64 -3 7 C-4.32 6.34 -5.64 5.68 -7 5 C-7 3.68 -7 2.36 -7 1 C-4.53721199 -0.231394 -2.7204945 -0.07159196 0 0 Z " fill="#36CDD9" transform="translate(125,33)"/>
<path d="M0 0 C0 0.33 0 0.66 0 1 C-1.98 1 -3.96 1 -6 1 C-6 3.64 -6 6.28 -6 9 C-8.64 8.67 -11.28 8.34 -14 8 C-14 7.67 -14 7.34 -14 7 C-12.35 6.67 -10.7 6.34 -9 6 C-8.67 4.68 -8.34 3.36 -8 2 C-9.98 2 -11.96 2 -14 2 C-14 1.67 -14 1.34 -14 1 C-9.32798795 -0.20568053 -4.78503708 -0.09382426 0 0 Z " fill="#88D9E8" transform="translate(21,33)"/>
<path d="M0 0 C1.98 0 3.96 0 6 0 C6 1.98 6 3.96 6 6 C4.02 6 2.04 6 0 6 C0 4.02 0 2.04 0 0 Z " fill="#A6C7FF" transform="translate(83,85)"/>
<path d="M0 0 C1.98 0 3.96 0 6 0 C6 1.98 6 3.96 6 6 C4.02 6 2.04 6 0 6 C0 4.02 0 2.04 0 0 Z " fill="#A6C7FF" transform="translate(74,85)"/>
<path d="M0 0 C0 3.3 0 6.6 0 10 C-0.66 10 -1.32 10 -2 10 C-2 10.66 -2 11.32 -2 12 C-2.66 12 -3.32 12 -4 12 C-4.368 4.64 -4.368 4.64 -2.5625 1.5 C-1 0 -1 0 0 0 Z " fill="#6C71FE" transform="translate(127,92)"/>
<path d="M0 0 C2.79192205 -0.05380578 5.5828141 -0.09357669 8.375 -0.125 C9.1690625 -0.14175781 9.963125 -0.15851563 10.78125 -0.17578125 C12.85492015 -0.19335473 14.92883241 -0.10335168 17 0 C17.66 0.66 18.32 1.32 19 2 C17.35 2.66 15.7 3.32 14 4 C13.67 3.67 13.34 3.34 13 3 C10.81707226 2.76518307 8.62796826 2.58636677 6.4375 2.4375 C4.64119141 2.31181641 4.64119141 2.31181641 2.80859375 2.18359375 C1.88175781 2.12300781 0.95492188 2.06242187 0 2 C0 1.34 0 0.68 0 0 Z " fill="#8BDBE3" transform="translate(7,75)"/>
<path d="M0 0 C0.99 0 1.98 0 3 0 C3 3.96 3 7.92 3 12 C2.01 12.495 2.01 12.495 1 13 C-0.00496852 9.98509443 -0.10335303 7.95818308 -0.0625 4.8125 C-0.05347656 3.91144531 -0.04445313 3.01039062 -0.03515625 2.08203125 C-0.02355469 1.39496094 -0.01195313 0.70789062 0 0 Z " fill="#36CDC9" transform="translate(95,49)"/>
<path d="M0 0 C0.99 0 1.98 0 3 0 C3.08121924 1.60332791 3.13929134 3.20784026 3.1875 4.8125 C3.23970703 6.15248047 3.23970703 6.15248047 3.29296875 7.51953125 C3 10 3 10 0 13 C0 8.71 0 4.42 0 0 Z " fill="#3B96D8" transform="translate(41,49)"/>
<path d="M0 0 C2.31 0 4.62 0 7 0 C7 1.65 7 3.3 7 5 C4.69 5 2.38 5 0 5 C0 3.35 0 1.7 0 0 Z " fill="#3C3E8A" transform="translate(98,49)"/>
<path d="M0 0 C6.6 0 13.2 0 20 0 C20 0.99 20 1.98 20 3 C13.4 2.34 6.8 1.68 0 1 C0 0.67 0 0.34 0 0 Z " fill="#41D1D8" transform="translate(14,32)"/>
<path d="M0 0 C0.66 0 1.32 0 2 0 C2 2.97 2 5.94 2 9 C0.68 9.33 -0.64 9.66 -2 10 C-2 7.36 -2 4.72 -2 2 C-1.34 2 -0.68 2 0 2 C0 1.34 0 0.68 0 0 Z " fill="#7180FE" transform="translate(125,102)"/>
<path d="M0 0 C0.66 0 1.32 0 2 0 C1.979375 0.9075 1.95875 1.815 1.9375 2.75 C1.9889755 5.42672588 2.2215017 7.46988052 3 10 C1.68 10.33 0.36 10.66 -1 11 C-1.9765625 4.9453125 -1.9765625 4.9453125 -2 3 C-1.34 2.34 -0.68 1.68 0 1 C0 0.67 0 0.34 0 0 Z " fill="#43C4CC" transform="translate(116,49)"/>
<path d="M0 0 C1.485 0.99 1.485 0.99 3 2 C3.42915004 6.54899046 2.99170782 9.89210262 1 14 C0.67 14 0.34 14 0 14 C0 9.38 0 4.76 0 0 Z " fill="#5E4CFE" transform="translate(102,97)"/>
<path d="M0 0 C3.3 0 6.6 0 10 0 C10 0.66 10 1.32 10 2 C5.545 2.495 5.545 2.495 1 3 C0.67 2.01 0.34 1.02 0 0 Z " fill="#4ED1D9" transform="translate(33,102)"/>
<path d="M0 0 C1.65 0 3.3 0 5 0 C5.33 1.65 5.66 3.3 6 5 C4.02 5 2.04 5 0 5 C0 3.35 0 1.7 0 0 Z " fill="#3DCFD9" transform="translate(13,71)"/>
<path d="M0 0 C1.98 0.495 1.98 0.495 4 1 C3.67 2.65 3.34 4.3 3 6 C1.68 5.67 0.36 5.34 -1 5 C-0.67 3.35 -0.34 1.7 0 0 Z " fill="#45CEDA" transform="translate(22,67)"/>
<path d="M0 0 C0 0.33 0 0.66 0 1 C-3.96 1 -7.92 1 -12 1 C-12.33 0.34 -12.66 -0.32 -13 -1 C-7.96488101 -2.0070238 -4.76052962 -1.97387813 0 0 Z " fill="#97BEFE" transform="translate(74,120)"/>
<path d="M0 0 C1.32 0 2.64 0 4 0 C3.67 1.65 3.34 3.3 3 5 C0.69 5 -1.62 5 -4 5 C-3.67 4.34 -3.34 3.68 -3 3 C-2.34 3 -1.68 3 -1 3 C-0.67 2.01 -0.34 1.02 0 0 Z " fill="#35C1C5" transform="translate(47,97)"/>
<path d="M0 0 C0.66 0 1.32 0 2 0 C1.34 3.3 0.68 6.6 0 10 C-0.99 10.33 -1.98 10.66 -3 11 C-2.69217504 9.35328588 -2.37860766 7.70764424 -2.0625 6.0625 C-1.88847656 5.14597656 -1.71445312 4.22945313 -1.53515625 3.28515625 C-1 1 -1 1 0 0 Z " fill="#E0F5F8" transform="translate(47,90)"/>
<path d="M0 0 C3.3125 -0.1875 3.3125 -0.1875 7 0 C7.99 0.99 8.98 1.98 10 3 C6.7 3 3.4 3 0 3 C0 2.01 0 1.02 0 0 Z " fill="#33D3D0" transform="translate(13,77)"/>
<path d="M0 0 C1.32 0 2.64 0 4 0 C3.67 2.31 3.34 4.62 3 7 C2.01 7 1.02 7 0 7 C-0.33 6.01 -0.66 5.02 -1 4 C-0.34 4 0.32 4 1 4 C0.67 2.68 0.34 1.36 0 0 Z " fill="#41CDD7" transform="translate(30,65)"/>
<path d="M0 0 C0.66 0 1.32 0 2 0 C2 1.98 2 3.96 2 6 C2.66 6.33 3.32 6.66 4 7 C2.02 7.99 2.02 7.99 0 9 C-0.66 8.01 -1.32 7.02 -2 6 C-1.125 2.8125 -1.125 2.8125 0 0 Z " fill="#F9FDFD" transform="translate(119,48)"/>
<path d="M0 0 C0.66 0 1.32 0 2 0 C2.29296875 5.95703125 2.29296875 5.95703125 2 8 C1.01 8.99 0.02 9.98 -1 11 C-0.67 7.37 -0.34 3.74 0 0 Z " fill="#665FFF" transform="translate(103,106)"/>
<path d="M0 0 C2.31 0 4.62 0 7 0 C6 2 6 2 5 3 C2.32941149 3.14115161 -0.32432238 3.04247107 -3 3 C-2.01 2.67 -1.02 2.34 0 2 C0 1.34 0 0.68 0 0 Z " fill="#46D9D0" transform="translate(43,102)"/>
<path d="M0 0 C0.66 0.33 1.32 0.66 2 1 C2 2.32 2 3.64 2 5 C1.34 5 0.68 5 0 5 C-0.33 5.66 -0.66 6.32 -1 7 C-1.33 6.01 -1.66 5.02 -2 4 C-2.99 3.34 -3.98 2.68 -5 2 C-2.625 0.9375 -2.625 0.9375 0 0 Z " fill="#DBF2F8" transform="translate(27,64)"/>
<path d="M0 0 C2.31 0 4.62 0 7 0 C7 0.66 7 1.32 7 2 C4.35261084 3.4606285 3.10551666 4 0 4 C0 2.68 0 1.36 0 0 Z " fill="#3CCADF" transform="translate(13,65)"/>
<path d="M0 0 C0.33 0 0.66 0 1 0 C1 2.64 1 5.28 1 8 C0.01 8.33 -0.98 8.66 -2 9 C-2.25 3.375 -2.25 3.375 0 0 Z " fill="#409AE9" transform="translate(43,59)"/>
<path d="M0 0 C0.33 0.66 0.66 1.32 1 2 C1.99 2.33 2.98 2.66 4 3 C3 4 3 4 0.49609375 4.09765625 C-1.01791016 4.08025391 -1.01791016 4.08025391 -2.5625 4.0625 C-3.57441406 4.05347656 -4.58632812 4.04445313 -5.62890625 4.03515625 C-6.41136719 4.02355469 -7.19382812 4.01195312 -8 4 C-8 3.34 -8 2.68 -8 2 C-5.69 2.33 -3.38 2.66 -1 3 C-0.67 2.01 -0.34 1.02 0 0 Z " fill="#87CCDE" transform="translate(106,45)"/>
<path d="M0 0 C1.65 1.65 3.3 3.3 5 5 C3.35 6.32 1.7 7.64 0 9 C0 8.01 0 7.02 0 6 C0.66 6 1.32 6 2 6 C1.34 5.01 0.68 4.02 0 3 C0 2.01 0 1.02 0 0 Z " fill="#E5F7F9" transform="translate(51,91)"/>
<path d="M0 0 C2.5 1.375 2.5 1.375 5 3 C5 3.66 5 4.32 5 5 C3.02 5 1.04 5 -1 5 C-0.67 3.35 -0.34 1.7 0 0 Z " fill="#4DCBDB" transform="translate(48,92)"/>
<path d="M0 0 C1.32 0 2.64 0 4 0 C4 1.65 4 3.3 4 5 C2.68 5 1.36 5 0 5 C0 3.35 0 1.7 0 0 Z " fill="#35ADC6" transform="translate(26,59)"/>
<path d="M0 0 C0 0.66 0 1.32 0 2 C-0.99 2.33 -1.98 2.66 -3 3 C-3.33 3.99 -3.66 4.98 -4 6 C-4.99 6 -5.98 6 -7 6 C-6.75 4.125 -6.75 4.125 -6 2 C-3.85331506 0.61504198 -2.56128588 0 0 0 Z " fill="#3F9AE9" transform="translate(40,88)"/>
<path d="M0 0 C0.99 0 1.98 0 3 0 C3.33 1.98 3.66 3.96 4 6 C3.01 6 2.02 6 1 6 C1 5.34 1 4.68 1 4 C0.34 3.67 -0.32 3.34 -1 3 C-0.67 2.01 -0.34 1.02 0 0 Z " fill="#47D2DA" transform="translate(23,59)"/>
<path d="M0 0 C1.02104551 0.97850195 2.0206121 1.97980427 3 3 C3 3.33 3 3.66 3 4 C0.69 4 -1.62 4 -4 4 C-2 1 -2 1 0 0 Z " fill="#BED7FE" transform="translate(83,114)"/>
<path d="M0 0 C0.66 0 1.32 0 2 0 C2 0.66 2 1.32 2 2 C1.34 2 0.68 2 0 2 C0.33 3.65 0.66 5.3 1 7 C-0.32 6.34 -1.64 5.68 -3 5 C-1.125 1.125 -1.125 1.125 0 0 Z " fill="#E1F3F9" transform="translate(40,92)"/>
</svg>
