<?xml version="1.0" encoding="UTF-8"?>
<svg version="1.1" xmlns="http://www.w3.org/2000/svg" width="150" height="150">
<path d="M0 0 C0.495 2.97 0.495 2.97 1 6 C6.64503554 7.0967298 6.64503554 7.0967298 12 5 C13.65 7.64 15.3 10.28 17 13 C16.34 13.33 15.68 13.66 15 14 C15.99902344 14.06058594 16.99804688 14.12117188 18.02734375 14.18359375 C19.96287109 14.30927734 19.96287109 14.30927734 21.9375 14.4375 C23.22527344 14.51871094 24.51304687 14.59992187 25.83984375 14.68359375 C29 15 29 15 30 16 C30.08713831 17.70772358 30.10700007 19.41898649 30.09765625 21.12890625 C30.09443359 22.16337891 30.09121094 23.19785156 30.08789062 24.26367188 C30.07951172 25.35228516 30.07113281 26.44089844 30.0625 27.5625 C30.05798828 28.65498047 30.05347656 29.74746094 30.04882812 30.87304688 C30.03699826 33.58208495 30.02051543 36.29101599 30 39 C30.66 39 31.32 39 32 39 C32.2475 39.804375 32.495 40.60875 32.75 41.4375 C33.72238859 44.171081 33.72238859 44.171081 36.125 44.8125 C36.74375 44.874375 37.3625 44.93625 38 45 C38.33 46.32 38.66 47.64 39 49 C38.01 49.66 37.02 50.32 36 51 C36.3403125 52.1446875 36.3403125 52.1446875 36.6875 53.3125 C37 56 37 56 35.9375 57.8125 C33.24448045 59.46306037 31.09429572 59.20628638 28 59 C27.505 59.99 27.505 59.99 27 61 C25.35 60.67 23.7 60.34 22 60 C21.505 58.02 21.505 58.02 21 56 C19.35 55.67 17.7 55.34 16 55 C15.67 53.35 15.34 51.7 15 50 C15.99 49.67 16.98 49.34 18 49 C18.73323796 46.98491642 18.73323796 46.98491642 19 45 C17.35 45 15.7 45 14 45 C14 51.6 14 58.2 14 65 C16.31 65 18.62 65 21 65 C22 66 22 66 22.11352539 69.96899414 C22.1133662 71.74105607 22.10766785 73.5131226 22.09765625 75.28515625 C22.0962413 76.21597519 22.09482635 77.14679413 22.09336853 78.1058197 C22.08775172 81.09141191 22.0751964 84.07693029 22.0625 87.0625 C22.05748716 89.08137913 22.05292388 91.10025943 22.04882812 93.11914062 C22.03777683 98.07945572 22.02050095 103.03971532 22 108 C24.31 108.66 26.62 109.32 29 110 C28 112 28 112 26.34521484 112.61450195 C21.49200924 113.41225457 16.54404055 113.18590312 11.63769531 113.18530273 C9.63863013 113.18748512 7.63960468 113.20599143 5.640625 113.22460938 C4.36960937 113.22654297 3.09859375 113.22847656 1.7890625 113.23046875 C0.63100098 113.23457764 -0.52706055 113.23868652 -1.72021484 113.24291992 C-5.11310954 112.99162245 -7.83332989 112.21173908 -11 111 C-10.67 110.34 -10.34 109.68 -10 109 C-7.4375 108.375 -7.4375 108.375 -5 108 C-5.67857056 107.99191315 -6.35714111 107.98382629 -7.05627441 107.97549438 C-14.19572947 107.88863335 -21.33493245 107.7891071 -28.47412109 107.68261719 C-31.12938188 107.64363425 -33.7845665 107.60971702 -36.43994141 107.578125 C-76.21071061 107.09913945 -76.21071061 107.09913945 -89 100 C-89 98.02 -89 96.04 -89 94 C-91.33214148 92.79371992 -93.49642139 91.8345262 -96 91 C-96 88.69 -96 86.38 -96 84 C-94.02 83.505 -94.02 83.505 -92 83 C-91.29925156 79.846632 -91 77.27275026 -91 74 C-88.5 72.25 -88.5 72.25 -86 71 C-85.5875 71.495 -85.175 71.99 -84.75 72.5 C-82.87797662 74.43386092 -82.87797662 74.43386092 -79 74 C-79 70.04 -79 66.08 -79 62 C-83.29 62 -87.58 62 -92 62 C-92.02683436 58.68744674 -92.0467578 55.37510817 -92.0625 52.0625 C-92.07087891 51.11697266 -92.07925781 50.17144531 -92.08789062 49.19726562 C-92.09111328 48.29814453 -92.09433594 47.39902344 -92.09765625 46.47265625 C-92.10289307 45.64000244 -92.10812988 44.80734863 -92.11352539 43.94946289 C-92 42 -92 42 -91 41 C-88.98035801 40.92755947 -86.95832876 40.91622812 -84.9375 40.9375 C-83.28041016 40.95103516 -83.28041016 40.95103516 -81.58984375 40.96484375 C-80.73519531 40.97644531 -79.88054687 40.98804688 -79 41 C-79 39.02 -79 37.04 -79 35 C-80.28197266 35.01740234 -80.28197266 35.01740234 -81.58984375 35.03515625 C-82.69457031 35.04417969 -83.79929687 35.05320313 -84.9375 35.0625 C-86.03964844 35.07410156 -87.14179687 35.08570313 -88.27734375 35.09765625 C-91 35 -91 35 -92 34 C-92.07226502 32.14712498 -92.0838122 30.29166122 -92.0625 28.4375 C-92.05347656 27.42558594 -92.04445313 26.41367187 -92.03515625 25.37109375 C-92.02355469 24.58863281 -92.01195313 23.80617188 -92 23 C-93.98 23 -95.96 23 -98 23 C-98 22.67 -98 22.34 -98 22 C-96.35 21.67 -94.7 21.34 -93 21 C-92.67 19.68 -92.34 18.36 -92 17 C-93.98 17 -95.96 17 -98 17 C-98 16.67 -98 16.34 -98 16 C-92.21147306 14.01536219 -87.0317392 13.69570834 -80.9375 13.75 C-80.06544922 13.74226563 -79.19339844 13.73453125 -78.29492188 13.7265625 C-73.46436825 13.74118946 -69.53368953 14.12399054 -65 16 C-65 16.33 -65 16.66 -65 17 C-66.98 17 -68.96 17 -71 17 C-71 21.62 -71 26.24 -71 31 C-68.69 31 -66.38 31 -64 31 C-63.67 29.68 -63.34 28.36 -63 27 C-40.725 26.505 -40.725 26.505 -18 26 C-18 23.69 -18 21.38 -18 19 C-19.65 18.34 -21.3 17.68 -23 17 C-22.01 14.36 -21.02 11.72 -20 9 C-18.9275 9.20625 -17.855 9.4125 -16.75 9.625 C-13.12380904 9.9876191 -11.91708924 9.98362069 -9 8 C-9 5.69 -9 3.38 -9 1 C-5.94152152 0.45627049 -3.11227195 0 0 0 Z M-9 14 C-11.2084626 17.31269391 -11.80664241 19.14978851 -11.5546875 23.0625 C-10.4812192 26.81207941 -8.28696911 28.01541488 -5 30 C-2.36163023 30.1672392 -2.36163023 30.1672392 0 30 C0.03738281 29.01257813 0.07476562 28.02515625 0.11328125 27.0078125 C0.17902344 25.72648437 0.24476562 24.44515625 0.3125 23.125 C0.37050781 21.84882812 0.42851563 20.57265625 0.48828125 19.2578125 C0.65714844 18.18273437 0.82601562 17.10765625 1 16 C1.99 15.34 2.98 14.68 4 14 C2.01607489 11.60148679 2.01607489 11.60148679 -1.8125 11.5625 C-5.17733329 11.66669338 -6.04370031 12.02913354 -9 14 Z M22 47 C21.6366844 49.83386167 21.6431329 51.40522151 23.125 53.875 C25.92151052 55.55290631 27.93690532 54.74875648 31 54 C31.67673447 50.59679066 31.67673447 50.59679066 32 47 C30.11499729 44.68436913 30.11499729 44.68436913 27 44.75 C23.88500271 44.68436913 23.88500271 44.68436913 22 47 Z M-85.25 80.625 C-87.21985834 82.92308586 -87.21985834 82.92308586 -87.5 86 C-87.21376982 89.06575838 -87.21376982 89.06575838 -85.3125 91.375 C-82.61209763 93.27258004 -81.22939919 93.35882213 -78 93 C-77.85024761 85.94348748 -77.85024761 85.94348748 -79 79 C-82.92212225 78.60967296 -82.92212225 78.60967296 -85.25 80.625 Z M-68 95 C-69.485 97.475 -69.485 97.475 -71 100 C-58.13 99.01 -58.13 99.01 -45 98 C-44.67 97.01 -44.34 96.02 -44 95 C-47.93711437 94.85507281 -51.87354625 94.76605463 -55.8125 94.6875 C-56.93205078 94.64560547 -58.05160156 94.60371094 -59.20507812 94.56054688 C-60.81479492 94.53637695 -60.81479492 94.53637695 -62.45703125 94.51171875 C-63.44678955 94.48553467 -64.43654785 94.45935059 -65.45629883 94.43237305 C-66.29572021 94.61968994 -67.1351416 94.80700684 -68 95 Z M-20 95 C-20 95.99 -20 96.98 -20 98 C-14.72 98.33 -9.44 98.66 -4 99 C-4 97.68 -4 96.36 -4 95 C-9.28 95 -14.56 95 -20 95 Z M-77 97 C-78.65 97.66 -80.3 98.32 -82 99 C-81.67 99.99 -81.34 100.98 -81 102 C-78.69 101.34 -76.38 100.68 -74 100 C-74.99 99.01 -75.98 98.02 -77 97 Z " fill="#6C72FE" transform="translate(105,18)"/>
<path d="M0 0 C0.5775 0.495 1.155 0.99 1.75 1.5 C4.10400629 3.36980013 4.10400629 3.36980013 8 3 C8 4.65 8 6.3 8 8 C7.030625 8.28875 6.06125 8.5775 5.0625 8.875 C1.89335797 9.64214682 1.89335797 9.64214682 1 12 C0.85624578 15.37822416 0.92463652 17.77390955 2 21 C4.31 21.33 6.62 21.66 9 22 C9 19.03 9 16.06 9 13 C10.98 13 12.96 13 15 13 C15.33 13.66 15.66 14.32 16 15 C24.25 15 32.5 15 41 15 C41.33 14.34 41.66 13.68 42 13 C55.53 13 69.06 13 83 13 C83 16.63 83 20.26 83 24 C77.72 24 72.44 24 67 24 C67 24.99 67 25.98 67 27 C67.56847656 26.98839844 68.13695313 26.97679688 68.72265625 26.96484375 C73.60670484 26.90776806 78.18503965 27.18043228 83 28 C83 30.64 83 33.28 83 36 C75.71409984 36.04682155 68.42823335 36.08211748 61.14221191 36.10362434 C57.75718789 36.11395864 54.37226851 36.12792229 50.98730469 36.15087891 C11.33131775 36.40001112 11.33131775 36.40001112 -2 29 C-2 27.02 -2 25.04 -2 23 C-4.33214148 21.79371992 -6.49642139 20.8345262 -9 20 C-9 17.69 -9 15.38 -9 13 C-7.68 12.67 -6.36 12.34 -5 12 C-4.29925156 8.846632 -4 6.27275026 -4 3 C-2 1.25 -2 1.25 0 0 Z M19 24 C17.515 26.475 17.515 26.475 16 29 C28.87 28.01 28.87 28.01 42 27 C42.33 26.01 42.66 25.02 43 24 C39.06288563 23.85507281 35.12645375 23.76605463 31.1875 23.6875 C30.06794922 23.64560547 28.94839844 23.60371094 27.79492188 23.56054688 C26.18520508 23.53637695 26.18520508 23.53637695 24.54296875 23.51171875 C23.55321045 23.48553467 22.56345215 23.45935059 21.54370117 23.43237305 C20.70427979 23.61968994 19.8648584 23.80700684 19 24 Z M10 26 C8.35 26.66 6.7 27.32 5 28 C5.33 28.99 5.66 29.98 6 31 C8.31 30.34 10.62 29.68 13 29 C12.01 28.01 11.02 27.02 10 26 Z " fill="#B4D1FE" transform="translate(18,89)"/>
<path d="M0 0 C16.83 0 33.66 0 51 0 C51 10.23 51 20.46 51 31 C34.17 31 17.34 31 0 31 C0 20.77 0 10.54 0 0 Z " fill="#454D93" transform="translate(44,47)"/>
<path d="M0 0 C2.31 0 4.62 0 7 0 C7 2.97 7 5.94 7 9 C10.3 9 13.6 9 17 9 C17 15.6 17 22.2 17 29 C12.71 29 8.42 29 4 29 C4.495 35.93 4.495 35.93 5 43 C5.66 43 6.32 43 7 43 C7.33 42.67 7.66 42.34 8 42 C10.86267567 41.92674832 13.700719 41.90761795 16.5625 41.9375 C17.36880859 41.94201172 18.17511719 41.94652344 19.00585938 41.95117188 C21.00393756 41.96299482 23.00197783 41.98093086 25 42 C25.02684312 44.81256281 25.04676188 47.62487241 25.0625 50.4375 C25.07087891 51.23994141 25.07925781 52.04238281 25.08789062 52.86914062 C25.0965143 54.91295221 25.0522815 56.95683902 25 59 C24.67 59.33 24.34 59.66 24 60 C20.38512585 59.99246116 16.78199638 59.92079333 13.16992188 59.78515625 C11.11239662 59.74656669 9.05335661 59.86352313 7 60 C4.43126321 63.38569507 4.43126321 63.38569507 4 70 C12.25 70 20.5 70 29 70 C29 70.66 29 71.32 29 72 C31.31 72.66 33.62 73.32 36 74 C35 76 35 76 33.34521484 76.61450195 C28.49200924 77.41225457 23.54404055 77.18590312 18.63769531 77.18530273 C16.63863013 77.18748512 14.63960468 77.20599143 12.640625 77.22460938 C11.36960938 77.22654297 10.09859375 77.22847656 8.7890625 77.23046875 C7.63100098 77.23457764 6.47293945 77.23868652 5.27978516 77.24291992 C1.88689046 76.99162245 -0.83332989 76.21173908 -4 75 C-3 73 -3 73 3 71 C3 61.76 3 52.52 3 43 C-6.24 43 -15.48 43 -25 43 C-26 38 -26 38 -25 36 C-24.01 36 -23.02 36 -22 36 C-20.98133771 34.34467377 -19.98189187 32.67739862 -19 31 C-16 30 -16 30 -14 30 C-12.66216607 29.68521554 -11.32796291 29.35412344 -10 29 C-10 28.34 -10 27.68 -10 27 C-7.94921875 26.77213542 -5.8984375 26.54427083 -3.84765625 26.31640625 C-1.98859771 26.18113386 -1.98859771 26.18113386 -1 25 C-0.84213692 23.14825294 -0.74892644 21.2909089 -0.68359375 19.43359375 C-0.64169922 18.30888672 -0.59980469 17.18417969 -0.55664062 16.02539062 C-0.51732422 14.84138672 -0.47800781 13.65738281 -0.4375 12.4375 C-0.39431641 11.24962891 -0.35113281 10.06175781 -0.30664062 8.83789062 C-0.20016454 5.89205216 -0.09815159 2.9461257 0 0 Z " fill="#7385FE" transform="translate(98,54)"/>
<path d="M0 0 C0.33 1.98 0.66 3.96 1 6 C6.64503554 7.0967298 6.64503554 7.0967298 12 5 C14.475 8.96 14.475 8.96 17 13 C16.34 13.33 15.68 13.66 15 14 C15.99902344 14.06058594 16.99804688 14.12117188 18.02734375 14.18359375 C19.31769531 14.26738281 20.60804687 14.35117187 21.9375 14.4375 C23.86916016 14.55931641 23.86916016 14.55931641 25.83984375 14.68359375 C29 15 29 15 30 16 C30.08713831 17.70772358 30.10700007 19.41898649 30.09765625 21.12890625 C30.09443359 22.16337891 30.09121094 23.19785156 30.08789062 24.26367188 C30.07532227 25.8965918 30.07532227 25.8965918 30.0625 27.5625 C30.05798828 28.65498047 30.05347656 29.74746094 30.04882812 30.87304688 C30.03699826 33.58208495 30.02051543 36.29101599 30 39 C30.66 39 31.32 39 32 39 C32.2475 39.804375 32.495 40.60875 32.75 41.4375 C33.72238859 44.171081 33.72238859 44.171081 36.125 44.8125 C37.053125 44.9053125 37.053125 44.9053125 38 45 C38.495 46.98 38.495 46.98 39 49 C38.01 49.66 37.02 50.32 36 51 C36.226875 51.763125 36.45375 52.52625 36.6875 53.3125 C37 56 37 56 35.9375 57.8125 C33.24448045 59.46306037 31.09429572 59.20628638 28 59 C27.505 59.99 27.505 59.99 27 61 C25.35 60.67 23.7 60.34 22 60 C21.505 58.02 21.505 58.02 21 56 C19.35 55.67 17.7 55.34 16 55 C15.67 53.35 15.34 51.7 15 50 C15.99 49.67 16.98 49.34 18 49 C18.73323796 46.98491642 18.73323796 46.98491642 19 45 C17.35 45 15.7 45 14 45 C13.690625 43.88625 13.38125 42.7725 13.0625 41.625 C12.17673517 38.2054845 12.17673517 38.2054845 11 36 C11.66 36 12.32 36 13 36 C13 34.68 13 33.36 13 32 C6.4 31.67 -0.2 31.34 -7 31 C-7 30.34 -7 29.68 -7 29 C-4.69 29.33 -2.38 29.66 0 30 C-0.05220703 28.51886719 -0.05220703 28.51886719 -0.10546875 27.0078125 C-0.13253906 25.72648437 -0.15960938 24.44515625 -0.1875 23.125 C-0.23970703 21.21074219 -0.23970703 21.21074219 -0.29296875 19.2578125 C-0.19628906 18.18273437 -0.09960938 17.10765625 0 16 C0.99 15.34 1.98 14.68 3 14 C1.78410016 12.56844101 1.78410016 12.56844101 -1.8125 12.6875 C-4.78617685 12.74622611 -5.87751147 12.92650688 -8.5 14.5 C-10.71177972 18.18629954 -10.34421275 20.73176192 -10 25 C-9.67 25.66 -9.34 26.32 -9 27 C-11.97 27 -14.94 27 -18 27 C-18 24.36 -18 21.72 -18 19 C-20.475 18.01 -20.475 18.01 -23 17 C-22.01 14.36 -21.02 11.72 -20 9 C-18.9275 9.20625 -17.855 9.4125 -16.75 9.625 C-13.12380904 9.9876191 -11.91708924 9.98362069 -9 8 C-9 5.69 -9 3.38 -9 1 C-5.94152152 0.45627049 -3.11227195 0 0 0 Z M22 47 C21.6366844 49.83386167 21.6431329 51.40522151 23.125 53.875 C25.92151052 55.55290631 27.93690532 54.74875648 31 54 C31.67673447 50.59679066 31.67673447 50.59679066 32 47 C30.11499729 44.68436913 30.11499729 44.68436913 27 44.75 C23.88500271 44.68436913 23.88500271 44.68436913 22 47 Z " fill="#3CD5D1" transform="translate(105,18)"/>
<path d="M0 0 C1.32 0 2.64 0 4 0 C4 6.6 4 13.2 4 20 C6.31 20 8.62 20 11 20 C12 21 12 21 12.11352539 24.78540039 C12.11336622 26.47282729 12.10766917 28.16025905 12.09765625 29.84765625 C12.0962413 30.7340831 12.09482635 31.62050995 12.09336853 32.53379822 C12.08775215 35.37673254 12.07519691 38.21958931 12.0625 41.0625 C12.05748711 42.98502491 12.05292384 44.90755104 12.04882812 46.83007812 C12.03862648 51.55343964 12.01905437 56.27663258 12 61 C3.75 61 -4.5 61 -13 61 C-13 54 -13 54 -11.515625 51.578125 C-7.98293455 49.36196515 -4.76949041 49.56677999 -0.75 49.75 C1.8075 49.8325 4.365 49.915 7 50 C7.33 44.39 7.66 38.78 8 33 C5.23625 33.12375 2.4725 33.2475 -0.375 33.375 C-1.24431152 33.40899902 -2.11362305 33.44299805 -3.00927734 33.47802734 C-7.47543818 33.54791085 -7.47543818 33.54791085 -11 36 C-13.65450267 33.34549733 -13.41639121 31.69774614 -13.6875 28 C-13.77386719 26.9275 -13.86023438 25.855 -13.94921875 24.75 C-14 22 -14 22 -13 20 C-8.71 20 -4.42 20 0 20 C0 13.4 0 6.8 0 0 Z " fill="#7183FE" transform="translate(115,63)"/>
<path d="M0 0 C0.5775 0.495 1.155 0.99 1.75 1.5 C4.10400629 3.36980013 4.10400629 3.36980013 8 3 C8 4.65 8 6.3 8 8 C7.030625 8.28875 6.06125 8.5775 5.0625 8.875 C1.89335797 9.64214682 1.89335797 9.64214682 1 12 C0.85624578 15.37822416 0.92463652 17.77390955 2 21 C3.134375 21.144375 4.26875 21.28875 5.4375 21.4375 C9 22 9 22 10 23 C11.51469448 23.23192865 13.03754562 23.41215238 14.5625 23.5625 C15.38878906 23.64628906 16.21507813 23.73007813 17.06640625 23.81640625 C18.02353516 23.90728516 18.02353516 23.90728516 19 24 C18.67 25.32 18.34 26.64 18 28 C25.92 27.67 33.84 27.34 42 27 C41.67 27.66 41.34 28.32 41 29 C38.35139573 29.59355614 35.70802678 29.74209269 33 30 C33 30.66 33 31.32 33 32 C47.19 32 61.38 32 76 32 C75.505 31.01 75.505 31.01 75 30 C73.845 29.835 72.69 29.67 71.5 29.5 C70.345 29.335 69.19 29.17 68 29 C67.505 28.01 67.505 28.01 67 27 C72.45769811 26.88861841 77.61509359 27.08342019 83 28 C83 30.64 83 33.28 83 36 C75.71409984 36.04682155 68.42823335 36.08211748 61.14221191 36.10362434 C57.75718789 36.11395864 54.37226851 36.12792229 50.98730469 36.15087891 C11.33131775 36.40001112 11.33131775 36.40001112 -2 29 C-2 27.02 -2 25.04 -2 23 C-4.33214148 21.79371992 -6.49642139 20.8345262 -9 20 C-9 17.69 -9 15.38 -9 13 C-7.68 12.67 -6.36 12.34 -5 12 C-4.29925156 8.846632 -4 6.27275026 -4 3 C-2 1.25 -2 1.25 0 0 Z M10 26 C8.35 26.66 6.7 27.32 5 28 C5.33 28.99 5.66 29.98 6 31 C8.31 30.34 10.62 29.68 13 29 C12.01 28.01 11.02 27.02 10 26 Z " fill="#EAEBF2" transform="translate(18,89)"/>
<path d="M0 0 C0.87205078 -0.00773437 1.74410156 -0.01546875 2.64257812 -0.0234375 C7.47313175 -0.00881054 11.40381047 0.37399054 15.9375 2.25 C15.9375 2.58 15.9375 2.91 15.9375 3.25 C13.9575 3.25 11.9775 3.25 9.9375 3.25 C9.9375 7.87 9.9375 12.49 9.9375 17.25 C12.2475 17.25 14.5575 17.25 16.9375 17.25 C17.08291967 21.47880411 17.17161527 25.70696413 17.25 29.9375 C17.29189453 31.13568359 17.33378906 32.33386719 17.37695312 33.56835938 C17.4983921 42.28767802 17.4983921 42.28767802 15.80224609 45.19775391 C14.41796875 46.58203125 14.41796875 46.58203125 11.9375 48.25 C10.35346476 46.66596476 10.71775065 44.9728362 10.62109375 42.77734375 C10.57919922 41.87822266 10.53730469 40.97910156 10.49414062 40.05273438 C10.45482422 39.10720703 10.41550781 38.16167969 10.375 37.1875 C10.33181641 36.23810547 10.28863281 35.28871094 10.24414062 34.31054688 C10.13770724 31.95718647 10.03568992 29.60371646 9.9375 27.25 C7.2975 27.25 4.6575 27.25 1.9375 27.25 C1.9375 25.27 1.9375 23.29 1.9375 21.25 C1.08285156 21.26160156 0.22820313 21.27320312 -0.65234375 21.28515625 C-1.75707031 21.29417969 -2.86179687 21.30320312 -4 21.3125 C-5.10214844 21.32410156 -6.20429688 21.33570312 -7.33984375 21.34765625 C-10.0625 21.25 -10.0625 21.25 -11.0625 20.25 C-11.13476502 18.39712498 -11.1463122 16.54166122 -11.125 14.6875 C-11.11597656 13.67558594 -11.10695313 12.66367187 -11.09765625 11.62109375 C-11.08605469 10.83863281 -11.07445312 10.05617188 -11.0625 9.25 C-13.0425 9.25 -15.0225 9.25 -17.0625 9.25 C-17.0625 8.92 -17.0625 8.59 -17.0625 8.25 C-15.4125 7.92 -13.7625 7.59 -12.0625 7.25 C-11.7325 5.93 -11.4025 4.61 -11.0625 3.25 C-13.0425 3.25 -15.0225 3.25 -17.0625 3.25 C-17.0625 2.92 -17.0625 2.59 -17.0625 2.25 C-11.27397306 0.26536219 -6.0942392 -0.05429166 0 0 Z " fill="#5A39FF" transform="translate(24.0625,31.75)"/>
<path d="M0 0 C18.15 0 36.3 0 55 0 C55.495 1.98 55.495 1.98 56 4 C57.27617188 3.98839844 58.55234375 3.97679687 59.8671875 3.96484375 C61.53645687 3.95546583 63.20572783 3.94636563 64.875 3.9375 C66.13763672 3.92493164 66.13763672 3.92493164 67.42578125 3.91210938 C68.23144531 3.90888672 69.03710938 3.90566406 69.8671875 3.90234375 C70.98262939 3.89448853 70.98262939 3.89448853 72.12060547 3.88647461 C74 4 74 4 76 5 C75.79375 5.78375 75.5875 6.5675 75.375 7.375 C75.189375 8.674375 75.189375 8.674375 75 10 C75.99 10.99 75.99 10.99 77 12 C77 13.98 77 15.96 77 18 C72.38 18 67.76 18 63 18 C63 15.03 63 12.06 63 9 C60.69 9 58.38 9 56 9 C56.01571045 10.12027588 56.01571045 10.12027588 56.03173828 11.26318359 C56.0732077 14.63375508 56.09929729 18.004273 56.125 21.375 C56.14175781 22.550625 56.15851563 23.72625 56.17578125 24.9375 C56.18544922 26.61972656 56.18544922 26.61972656 56.1953125 28.3359375 C56.21102295 29.89127197 56.21102295 29.89127197 56.22705078 31.47802734 C56 34 56 34 54 36 C51.80555725 36.25396729 51.80555725 36.25396729 49.04711914 36.25878906 C47.50025169 36.26824554 47.50025169 36.26824554 45.9221344 36.27789307 C44.24558022 36.27182037 44.24558022 36.27182037 42.53515625 36.265625 C40.81878212 36.26849518 40.81878212 36.26849518 39.06773376 36.27142334 C36.64419332 36.27278632 34.22064561 36.26908203 31.79711914 36.26074219 C28.08137636 36.2500543 24.36611818 36.26062889 20.65039062 36.2734375 C18.2994781 36.27211573 15.94856587 36.26955299 13.59765625 36.265625 C11.92413841 36.27169769 11.92413841 36.27169769 10.21681213 36.27789307 C9.18241501 36.27158875 8.14801788 36.26528442 7.08227539 36.25878906 C5.71565514 36.25640228 5.71565514 36.25640228 4.32142639 36.25396729 C2 36 2 36 -1 34 C-1.35644531 30.8671875 -1.35644531 30.8671875 -1.328125 26.875 C-1.32625183 26.1722998 -1.32437866 25.46959961 -1.32244873 24.74560547 C-1.31572397 23.25939187 -1.3018009 21.7731961 -1.28125 20.28710938 C-1.25012226 18.00894776 -1.24028257 15.73147809 -1.234375 13.453125 C-1.16364954 2.32729907 -1.16364954 2.32729907 0 0 Z M2 2 C2 12.23 2 22.46 2 33 C18.83 33 35.66 33 53 33 C53 22.77 53 12.54 53 2 C36.17 2 19.34 2 2 2 Z " fill="#38D3CC" transform="translate(42,45)"/>
<path d="M0 0 C1.12019531 -0.00128906 2.24039063 -0.00257812 3.39453125 -0.00390625 C4.57402344 -0.00003906 5.75351562 0.00382812 6.96875 0.0078125 C8.73798828 0.00201172 8.73798828 0.00201172 10.54296875 -0.00390625 C12.22326172 -0.00197266 12.22326172 -0.00197266 13.9375 0 C14.97326172 0.00112793 16.00902344 0.00225586 17.07617188 0.00341797 C19.46875 0.1328125 19.46875 0.1328125 20.46875 1.1328125 C20.56861975 3.97616298 20.60752881 6.78978413 20.59375 9.6328125 C20.59955078 10.82970703 20.59955078 10.82970703 20.60546875 12.05078125 C20.59535767 18.00620483 20.59535767 18.00620483 19.46875 19.1328125 C17.62715977 19.23240871 15.78178033 19.26361661 13.9375 19.265625 C12.81730469 19.26691406 11.69710937 19.26820312 10.54296875 19.26953125 C9.36347656 19.26566406 8.18398438 19.26179688 6.96875 19.2578125 C5.19951172 19.26361328 5.19951172 19.26361328 3.39453125 19.26953125 C1.71423828 19.26759766 1.71423828 19.26759766 0 19.265625 C-1.03576172 19.26449707 -2.07152344 19.26336914 -3.13867188 19.26220703 C-5.53125 19.1328125 -5.53125 19.1328125 -6.53125 18.1328125 C-6.63111975 15.28946202 -6.67002881 12.47584087 -6.65625 9.6328125 C-6.66011719 8.83488281 -6.66398437 8.03695312 -6.66796875 7.21484375 C-6.65573175 0.007248 -6.65573175 0.007248 0 0 Z " fill="#3ED7CB" transform="translate(39.53125,85.8671875)"/>
<path d="M0 0 C0.83265381 0.00523682 1.66530762 0.01047363 2.52319336 0.01586914 C3.33280518 0.0183667 4.14241699 0.02086426 4.9765625 0.0234375 C6.01159912 0.0325415 7.04663574 0.04164551 8.11303711 0.05102539 C11.39241211 0.07165039 14.67178711 0.09227539 18.05053711 0.11352539 C18.05053711 7.04352539 18.05053711 13.97352539 18.05053711 21.11352539 C11.12053711 21.11352539 4.19053711 21.11352539 -2.94946289 21.11352539 C-2.97008789 17.83415039 -2.99071289 14.55477539 -3.01196289 11.17602539 C-3.02106689 10.14098877 -3.0301709 9.10595215 -3.03955078 8.03955078 C-3.04329712 6.82513306 -3.04329712 6.82513306 -3.04711914 5.58618164 C-3.05235596 4.75352783 -3.05759277 3.92087402 -3.06298828 3.06298828 C-2.90876673 0.41468917 -2.64829911 0.15422155 0 0 Z " fill="#35C9DC" transform="translate(15.949462890625,58.886474609375)"/>
<path d="M0 0 C0.33 0 0.66 0 1 0 C1 4.62 1 9.24 1 14 C1.66 14 2.32 14 3 14 C3.2475 14.804375 3.495 15.60875 3.75 16.4375 C4.72238859 19.171081 4.72238859 19.171081 7.125 19.8125 C8.053125 19.9053125 8.053125 19.9053125 9 20 C9.33 21.32 9.66 22.64 10 24 C9.01 24.66 8.02 25.32 7 26 C7.226875 26.763125 7.45375 27.52625 7.6875 28.3125 C8 31 8 31 6.9375 32.8125 C4.24448045 34.46306037 2.09429572 34.20628638 -1 34 C-1.33 34.66 -1.66 35.32 -2 36 C-3.65 35.67 -5.3 35.34 -7 35 C-7.33 33.68 -7.66 32.36 -8 31 C-9.65 30.67 -11.3 30.34 -13 30 C-13.33 28.35 -13.66 26.7 -14 25 C-13.01 24.67 -12.02 24.34 -11 24 C-10.26676204 21.98491642 -10.26676204 21.98491642 -10 20 C-11.65 20 -13.3 20 -15 20 C-15 18.35 -15 16.7 -15 15 C-14.34 15 -13.68 15 -13 15 C-13 13.68 -13 12.36 -13 11 C-13 8.66666667 -13 6.33333333 -13 4 C-8.71 4 -4.42 4 0 4 C0 2.68 0 1.36 0 0 Z M-7 22 C-7.3633156 24.83386167 -7.3568671 26.40522151 -5.875 28.875 C-3.07848948 30.55290631 -1.06309468 29.74875648 2 29 C2.67673447 25.59679066 2.67673447 25.59679066 3 22 C1.11499729 19.68436913 1.11499729 19.68436913 -2 19.75 C-5.11499729 19.68436913 -5.11499729 19.68436913 -7 22 Z " fill="#35DDC4" transform="translate(134,43)"/>
<path d="M0 0 C0.33 1.98 0.66 3.96 1 6 C6.64503554 7.0967298 6.64503554 7.0967298 12 5 C14.475 8.96 14.475 8.96 17 13 C13.74917327 15.16721782 12.70767847 15.27221018 8.9375 15.25 C8.05964844 15.25515625 7.18179688 15.2603125 6.27734375 15.265625 C4 15 4 15 2 13 C-3.54235245 12.42765564 -3.54235245 12.42765564 -8.5 14.5 C-10.71177972 18.18629954 -10.34421275 20.73176192 -10 25 C-9.67 25.66 -9.34 26.32 -9 27 C-11.97 27 -14.94 27 -18 27 C-18 24.36 -18 21.72 -18 19 C-20.475 18.01 -20.475 18.01 -23 17 C-22.01 14.36 -21.02 11.72 -20 9 C-18.9275 9.20625 -17.855 9.4125 -16.75 9.625 C-13.12380904 9.9876191 -11.91708924 9.98362069 -9 8 C-9 5.69 -9 3.38 -9 1 C-5.94152152 0.45627049 -3.11227195 0 0 0 Z " fill="#E9EAF1" transform="translate(105,18)"/>
<path d="M0 0 C1.98 0 3.96 0 6 0 C6.33 0.66 6.66 1.32 7 2 C15.25 2 23.5 2 32 2 C32.33 1.34 32.66 0.68 33 0 C35.64 0 38.28 0 41 0 C40.34 0.33 39.68 0.66 39 1 C39 1.99 39 2.98 39 4 C39.99 4.33 40.98 4.66 42 5 C42.495 7.97 42.495 7.97 43 11 C37.03686834 11.02464574 31.07376605 11.042834 25.1105957 11.05493164 C23.08031702 11.05997278 21.05004198 11.06680557 19.01977539 11.07543945 C16.10822653 11.08751467 13.1967255 11.09323034 10.28515625 11.09765625 C8.91485008 11.10539818 8.91485008 11.10539818 7.51686096 11.11329651 C5.34424573 11.11349168 3.17172704 11.06211805 1 11 C0 10 0 10 -0.09765625 7.71484375 C-0.08605469 6.79832031 -0.07445313 5.88179688 -0.0625 4.9375 C-0.05347656 4.01839844 -0.04445313 3.09929687 -0.03515625 2.15234375 C-0.02355469 1.44207031 -0.01195313 0.73179688 0 0 Z " fill="#BFD8FE" transform="translate(27,102)"/>
<path d="M0 0 C1.32 0 2.64 0 4 0 C4 6.6 4 13.2 4 20 C6.31 20 8.62 20 11 20 C11.33 20.99 11.66 21.98 12 23 C11.401875 23.061875 10.80375 23.12375 10.1875 23.1875 C7.74330469 23.83019399 7.74330469 23.83019399 6.5625 26.5 C5 29 5 29 2.3125 29.8125 C1.549375 29.874375 0.78625 29.93625 0 30 C-0.33 30.99 -0.66 31.98 -1 33 C-2.27875 33.12375 -3.5575 33.2475 -4.875 33.375 C-8.34790936 33.69042399 -8.34790936 33.69042399 -11 36 C-13.65450267 33.34549733 -13.41639121 31.69774614 -13.6875 28 C-13.77386719 26.9275 -13.86023438 25.855 -13.94921875 24.75 C-14 22 -14 22 -13 20 C-8.71 20 -4.42 20 0 20 C0 13.4 0 6.8 0 0 Z " fill="#5E49FD" transform="translate(115,63)"/>
<path d="M0 0 C1.58206057 0.00667536 3.16410534 0.0186375 4.74609375 0.03515625 C5.55240234 0.03966797 6.35871094 0.04417969 7.18945312 0.04882812 C9.18753131 0.06065107 11.18557158 0.07858711 13.18359375 0.09765625 C13.21043687 2.91021906 13.23035563 5.72252866 13.24609375 8.53515625 C13.25447266 9.33759766 13.26285156 10.14003906 13.27148438 10.96679688 C13.28010805 13.01060846 13.23587525 15.05449527 13.18359375 17.09765625 C11.36243372 18.91881628 8.87687611 18.23000705 6.45703125 18.234375 C5.70679687 18.23050781 4.9565625 18.22664063 4.18359375 18.22265625 C3.05824219 18.22845703 3.05824219 18.22845703 1.91015625 18.234375 C-3.68979572 18.22426678 -3.68979572 18.22426678 -4.81640625 17.09765625 C-4.91621839 14.42034245 -4.955205 11.7746145 -4.94140625 9.09765625 C-4.94527344 8.34742187 -4.94914062 7.5971875 -4.953125 6.82421875 C-4.94103514 0.12643386 -4.94103514 0.12643386 0 0 Z " fill="#9EE4F0" transform="translate(109.81640625,95.90234375)"/>
<path d="M0 0 C0.33 0 0.66 0 1 0 C1.07347656 1.15628906 1.07347656 1.15628906 1.1484375 2.3359375 C1.22320312 3.33882813 1.29796875 4.34171875 1.375 5.375 C1.44460937 6.37273437 1.51421875 7.37046875 1.5859375 8.3984375 C1.76363964 11.15508879 1.76363964 11.15508879 4 13 C4.19893799 15.52475716 4.27847435 17.91514749 4.25 20.4375 C4.25773437 21.11876953 4.26546875 21.80003906 4.2734375 22.50195312 C4.25889434 26.21409442 4.10940418 27.83589372 2 31 C1.67 33.31 1.34 35.62 1 38 C9.25 38 17.5 38 26 38 C26 38.66 26 39.32 26 40 C28.31 40.66 30.62 41.32 33 42 C32 44 32 44 30.34521484 44.61450195 C25.49200924 45.41225457 20.54404055 45.18590312 15.63769531 45.18530273 C13.63863013 45.18748512 11.63960468 45.20599143 9.640625 45.22460938 C8.36960937 45.22654297 7.09859375 45.22847656 5.7890625 45.23046875 C4.63100098 45.23457764 3.47293945 45.23868652 2.27978516 45.24291992 C-1.11310954 44.99162245 -3.83332989 44.21173908 -7 43 C-6 41 -6 41 0 39 C0 26.13 0 13.26 0 0 Z " fill="#5F54E7" transform="translate(101,86)"/>
<path d="M0 0 C5.61 0 11.22 0 17 0 C17 5.61 17 11.22 17 17 C11.39 17 5.78 17 0 17 C0 11.39 0 5.78 0 0 Z " fill="#40539C" transform="translate(15,34)"/>
<path d="M0 0 C0.33 0 0.66 0 1 0 C1.33 5.94 1.66 11.88 2 18 C3.65 16.68 5.3 15.36 7 14 C7.103125 14.598125 7.20625 15.19625 7.3125 15.8125 C8.08876455 18.28243264 9.07088921 19.32251235 11 21 C10.34 21.66 9.68 22.32 9 23 C8.01 23 7.02 23 6 23 C6 23.66 6 24.32 6 25 C4.02 25.33 2.04 25.66 0 26 C-0.33 30.95 -0.66 35.9 -1 41 C-3.31 41 -5.62 41 -8 41 C-8 33.74 -8 26.48 -8 19 C-5.36 19 -2.72 19 0 19 C0 12.73 0 6.46 0 0 Z " fill="#5D51FC" transform="translate(34,61)"/>
<path d="M0 0 C1.5631897 0.00785522 1.5631897 0.00785522 3.15795898 0.01586914 C4.28266602 0.0190918 5.40737305 0.02231445 6.56616211 0.02563477 C7.75016602 0.03401367 8.93416992 0.04239258 10.15405273 0.05102539 C11.34192383 0.05553711 12.52979492 0.06004883 13.75366211 0.06469727 C16.69967499 0.07652864 19.64558954 0.09301252 22.59155273 0.11352539 C22.59155273 1.10352539 22.59155273 2.09352539 22.59155273 3.11352539 C21.93155273 3.77352539 21.27155273 4.43352539 20.59155273 5.11352539 C20.92155273 5.77352539 21.25155273 6.43352539 21.59155273 7.11352539 C20.93155273 7.11352539 20.27155273 7.11352539 19.59155273 7.11352539 C19.26155273 8.10352539 18.93155273 9.09352539 18.59155273 10.11352539 C17.09155273 8.73852539 17.09155273 8.73852539 15.59155273 7.11352539 C15.59155273 6.45352539 15.59155273 5.79352539 15.59155273 5.11352539 C14.60155273 5.44352539 13.61155273 5.77352539 12.59155273 6.11352539 C12.59155273 5.12352539 12.59155273 4.13352539 12.59155273 3.11352539 C11.93155273 3.11352539 11.27155273 3.11352539 10.59155273 3.11352539 C10.26155273 4.76352539 9.93155273 6.41352539 9.59155273 8.11352539 C8.60155273 8.11352539 7.61155273 8.11352539 6.59155273 8.11352539 C6.59155273 7.12352539 6.59155273 6.13352539 6.59155273 5.11352539 C5.93155273 5.11352539 5.27155273 5.11352539 4.59155273 5.11352539 C4.26155273 6.10352539 3.93155273 7.09352539 3.59155273 8.11352539 C2.93155273 8.77352539 2.27155273 9.43352539 1.59155273 10.11352539 C2.41655273 10.73227539 3.24155273 11.35102539 4.09155273 11.98852539 C4.91655273 12.68977539 5.74155273 13.39102539 6.59155273 14.11352539 C6.59155273 14.77352539 6.59155273 15.43352539 6.59155273 16.11352539 C3.29155273 16.11352539 -0.00844727 16.11352539 -3.40844727 16.11352539 C-3.43529822 13.63428738 -3.45521274 11.15533699 -3.47094727 8.67602539 C-3.48351563 7.61544922 -3.48351563 7.61544922 -3.49633789 6.53344727 C-3.50498314 4.7265898 -3.46064738 2.91964936 -3.40844727 1.11352539 C-2.40844727 0.11352539 -2.40844727 0.11352539 0 0 Z " fill="#43ACE4" transform="translate(36.408447265625,85.886474609375)"/>
<path d="M0 0 C2.95839355 -0.02689449 5.91654427 -0.04678741 8.875 -0.0625 C9.71675781 -0.07087891 10.55851562 -0.07925781 11.42578125 -0.08789062 C12.23144531 -0.09111328 13.03710938 -0.09433594 13.8671875 -0.09765625 C14.98262939 -0.10551147 14.98262939 -0.10551147 16.12060547 -0.11352539 C18 0 18 0 20 1 C19.690625 2.175625 19.690625 2.175625 19.375 3.375 C19.25125 4.24125 19.1275 5.1075 19 6 C19.66 6.66 20.32 7.32 21 8 C21 9.98 21 11.96 21 14 C16.38 14 11.76 14 7 14 C7 11.03 7 8.06 7 5 C4.69 5 2.38 5 0 5 C0 3.35 0 1.7 0 0 Z " fill="#39C6D7" transform="translate(98,49)"/>
<path d="M0 0 C13.53 0 27.06 0 41 0 C41 1.65 41 3.3 41 5 C27.47 5 13.94 5 0 5 C0 3.35 0 1.7 0 0 Z " fill="#3C3D89" transform="translate(60,97)"/>
<path d="M0 0 C2.12438339 -0.08078641 4.2496323 -0.13909141 6.375 -0.1875 C7.55835937 -0.22230469 8.74171875 -0.25710937 9.9609375 -0.29296875 C11.46527344 -0.14794922 11.46527344 -0.14794922 13 0 C13.66 0.99 14.32 1.98 15 3 C14.34 3 13.68 3 13 3 C13 3.66 13 4.32 13 5 C19.27 5 25.54 5 32 5 C32.495 6.485 32.495 6.485 33 8 C18.81 8 4.62 8 -10 8 C-10 7.34 -10 6.68 -10 6 C-7.98177083 5.609375 -5.96354167 5.21875 -3.9453125 4.828125 C-1.80995329 4.14287884 -1.80995329 4.14287884 -0.7421875 1.921875 C-0.49726562 1.28765625 -0.25234375 0.6534375 0 0 Z " fill="#A3C6FE" transform="translate(61,113)"/>
<path d="M0 0 C0.66 0 1.32 0 2 0 C2.2475 0.804375 2.495 1.60875 2.75 2.4375 C3.72238859 5.171081 3.72238859 5.171081 6.125 5.8125 C6.74375 5.874375 7.3625 5.93625 8 6 C8.33 7.32 8.66 8.64 9 10 C8.01 10.66 7.02 11.32 6 12 C6.3403125 13.1446875 6.3403125 13.1446875 6.6875 14.3125 C7 17 7 17 5.9375 18.8125 C3.24448045 20.46306037 1.09429572 20.20628638 -2 20 C-2.33 20.66 -2.66 21.32 -3 22 C-4.65 21.67 -6.3 21.34 -8 21 C-8.33 19.68 -8.66 18.36 -9 17 C-10.65 16.67 -12.3 16.34 -14 16 C-14.33 14.35 -14.66 12.7 -15 11 C-14.01 10.67 -13.02 10.34 -12 10 C-11.26676204 7.98491642 -11.26676204 7.98491642 -11 6 C-9.35 6 -7.7 6 -6 6 C-6.20625 7.11375 -6.4125 8.2275 -6.625 9.375 C-6.74875 10.57125 -6.8725 11.7675 -7 13 C-5.10244856 15.34973818 -5.10244856 15.34973818 -1.875 15.125 C-0.451875 15.063125 -0.451875 15.063125 1 15 C1.29562367 9.67829506 1.29562367 9.67829506 -1 5 C-0.625 2.3125 -0.625 2.3125 0 0 Z " fill="#EAEAF1" transform="translate(135,57)"/>
<path d="M0 0 C0.87205078 -0.00773437 1.74410156 -0.01546875 2.64257812 -0.0234375 C7.47313175 -0.00881054 11.40381047 0.37399054 15.9375 2.25 C15.9375 2.58 15.9375 2.91 15.9375 3.25 C13.9575 3.25 11.9775 3.25 9.9375 3.25 C9.9375 9.19 9.9375 15.13 9.9375 21.25 C6.62494674 21.27683436 3.31260817 21.2967578 0 21.3125 C-0.94552734 21.32087891 -1.89105469 21.32925781 -2.86523438 21.33789062 C-4.21391602 21.34272461 -4.21391602 21.34272461 -5.58984375 21.34765625 C-6.83882446 21.35551147 -6.83882446 21.35551147 -8.11303711 21.36352539 C-10.0625 21.25 -10.0625 21.25 -11.0625 20.25 C-11.13476502 18.39712498 -11.1463122 16.54166122 -11.125 14.6875 C-11.11597656 13.67558594 -11.10695313 12.66367187 -11.09765625 11.62109375 C-11.08605469 10.83863281 -11.07445312 10.05617188 -11.0625 9.25 C-13.0425 9.25 -15.0225 9.25 -17.0625 9.25 C-17.0625 8.92 -17.0625 8.59 -17.0625 8.25 C-15.4125 7.92 -13.7625 7.59 -12.0625 7.25 C-11.7325 5.93 -11.4025 4.61 -11.0625 3.25 C-13.0425 3.25 -15.0225 3.25 -17.0625 3.25 C-17.0625 2.92 -17.0625 2.59 -17.0625 2.25 C-11.27397306 0.26536219 -6.0942392 -0.05429166 0 0 Z M-9.0625 2.25 C-9.0625 7.86 -9.0625 13.47 -9.0625 19.25 C-3.4525 19.25 2.1575 19.25 7.9375 19.25 C7.9375 13.64 7.9375 8.03 7.9375 2.25 C2.3275 2.25 -3.2825 2.25 -9.0625 2.25 Z " fill="#33D2D1" transform="translate(24.0625,31.75)"/>
<path d="M0 0 C1.32 0 2.64 0 4 0 C4 6.6 4 13.2 4 20 C6.31 20 8.62 20 11 20 C11.33 20.99 11.66 21.98 12 23 C3.19039858 24.30512614 -5.19039858 24.30512614 -14 23 C-13.505 21.515 -13.505 21.515 -13 20 C-8.71 20 -4.42 20 0 20 C0 13.4 0 6.8 0 0 Z " fill="#4C4CA1" transform="translate(115,63)"/>
<path d="M0 0 C1.31871094 -0.01224609 2.63742188 -0.02449219 3.99609375 -0.03710938 C5.90068359 -0.04000977 5.90068359 -0.04000977 7.84375 -0.04296875 C9.00068359 -0.04707764 10.15761719 -0.05118652 11.34960938 -0.05541992 C14.47736509 0.18575467 16.680892 0.85423629 19.5 2.1875 C18.5 4.1875 18.5 4.1875 16.84521484 4.80200195 C11.99200924 5.59975457 7.04404055 5.37340312 2.13769531 5.37280273 C0.13863013 5.37498512 -1.86039532 5.39349143 -3.859375 5.41210938 C-5.13039063 5.41404297 -6.40140625 5.41597656 -7.7109375 5.41796875 C-8.86899902 5.42207764 -10.02706055 5.42618652 -11.22021484 5.43041992 C-14.61310954 5.17912245 -17.33332989 4.39923908 -20.5 3.1875 C-20.17 2.5275 -19.84 1.8675 -19.5 1.1875 C-13.23640183 -0.60566158 -6.45139424 0.00315317 0 0 Z " fill="#EAEBF2" transform="translate(114.5,125.8125)"/>
<path d="M0 0 C0.99 0 1.98 0 3 0 C3.02505615 0.87325928 3.0501123 1.74651855 3.07592773 2.64624023 C3.17087709 5.87602552 3.27012029 9.10564154 3.37231445 12.33520508 C3.41571434 13.73489199 3.45738564 15.13463359 3.49731445 16.53442383 C3.55489445 18.54261495 3.61914 20.55061149 3.68359375 22.55859375 C3.72025146 23.76829834 3.75690918 24.97800293 3.79467773 26.22436523 C3.68938266 28.90705456 3.68938266 28.90705456 5 30 C6.56448383 30.12263388 8.13432772 30.17779522 9.70336914 30.20532227 C11.20481224 30.2352401 11.20481224 30.2352401 12.73658752 30.26576233 C14.36937904 30.29083107 14.36937904 30.29083107 16.03515625 30.31640625 C17.14354355 30.33718735 18.25193085 30.35796844 19.39390564 30.37937927 C22.95003808 30.44499623 26.50624703 30.50381596 30.0625 30.5625 C32.46680493 30.60567368 34.87110199 30.64928758 37.27539062 30.69335938 C43.18351185 30.80068992 49.09170991 30.90243331 55 31 C55 31.33 55 31.66 55 32 C47.64936254 32.05062952 40.29876989 32.08570377 32.94799805 32.10986328 C30.44635335 32.11993288 27.94472045 32.13358934 25.44311523 32.15087891 C21.85137014 32.17508492 18.2597804 32.18647346 14.66796875 32.1953125 C12.98503975 32.21079636 12.98503975 32.21079636 11.26811218 32.22659302 C10.22725967 32.22674408 9.18640717 32.22689514 8.11401367 32.22705078 C7.19690109 32.231492 6.27978851 32.23593323 5.33488464 32.24050903 C3 32 3 32 0 30 C-0.34057617 27.01904297 -0.34057617 27.01904297 -0.29296875 23.2421875 C-0.28872391 22.57913605 -0.28447906 21.91608459 -0.28010559 21.23294067 C-0.26329971 19.11321559 -0.22564701 16.99443812 -0.1875 14.875 C-0.17245549 13.43881581 -0.15876668 12.00261672 -0.14648438 10.56640625 C-0.1133909 7.04396236 -0.0615968 3.52207364 0 0 Z " fill="#459FE8" transform="translate(41,49)"/>
<path d="M0 0 C1.58206057 0.00667536 3.16410534 0.0186375 4.74609375 0.03515625 C5.55240234 0.03966797 6.35871094 0.04417969 7.18945312 0.04882812 C9.18753131 0.06065107 11.18557158 0.07858711 13.18359375 0.09765625 C13.21043687 2.91021906 13.23035563 5.72252866 13.24609375 8.53515625 C13.25447266 9.33759766 13.26285156 10.14003906 13.27148438 10.96679688 C13.28010805 13.01060846 13.23587525 15.05449527 13.18359375 17.09765625 C11.36243372 18.91881628 8.87687611 18.23000705 6.45703125 18.234375 C5.70679687 18.23050781 4.9565625 18.22664063 4.18359375 18.22265625 C3.05824219 18.22845703 3.05824219 18.22845703 1.91015625 18.234375 C-3.68979572 18.22426678 -3.68979572 18.22426678 -4.81640625 17.09765625 C-4.91621839 14.42034245 -4.955205 11.7746145 -4.94140625 9.09765625 C-4.94527344 8.34742187 -4.94914062 7.5971875 -4.953125 6.82421875 C-4.94103514 0.12643386 -4.94103514 0.12643386 0 0 Z M-1.25390625 3.72265625 C-3.31432396 6.85449117 -3.49316075 8.41310398 -2.81640625 12.09765625 C-0.83674362 15.16073256 -0.83674362 15.16073256 2.18359375 17.09765625 C5.39893113 17.09765625 7.27207427 16.66342696 9.99609375 14.97265625 C11.87165635 12.01124161 12.12265874 9.57095195 12.18359375 6.09765625 C10.83058095 3.49450631 10.83058095 3.49450631 8.18359375 2.09765625 C4.20871758 1.5298168 2.11870154 1.47425106 -1.25390625 3.72265625 Z " fill="#48B6F4" transform="translate(109.81640625,95.90234375)"/>
<path d="M0 0 C5.28 0 10.56 0 16 0 C16 2.97 16 5.94 16 9 C15.01 9 14.02 9 13 9 C12.67 9.66 12.34 10.32 12 11 C10.37419034 10.88601335 8.74932843 10.75844341 7.125 10.625 C6.22007813 10.55539063 5.31515625 10.48578125 4.3828125 10.4140625 C2 10 2 10 0 8 C0 5.36 0 2.72 0 0 Z " fill="#3E4995" transform="translate(16,34)"/>
<path d="M0 0 C1.32 0 2.64 0 4 0 C4 7.59 4 15.18 4 23 C3.34 23 2.68 23 2 23 C2 23.66 2 24.32 2 25 C1.34 25 0.68 25 0 25 C0 20.05 0 15.1 0 10 C-2.97 10 -5.94 10 -9 10 C-8.67 9.01 -8.34 8.02 -8 7 C-7.21625 6.71125 -6.4325 6.4225 -5.625 6.125 C-2.77548597 5.20845133 -2.77548597 5.20845133 -1.4375 2.375 C-0.963125 1.59125 -0.48875 0.8075 0 0 Z " fill="#6B70FE" transform="translate(123,86)"/>
<path d="M0 0 C18.15 0 36.3 0 55 0 C55.495 1.98 55.495 1.98 56 4 C55.01 4 54.02 4 53 4 C53 3.34 53 2.68 53 2 C36.17 2 19.34 2 2 2 C2 2.66 2 3.32 2 4 C1.01 4 0.02 4 -1 4 C-0.67 2.68 -0.34 1.36 0 0 Z " fill="#34D0D5" transform="translate(42,45)"/>
<path d="M0 0 C0.33 0.99 0.66 1.98 1 3 C2.49985609 4.66710346 2.49985609 4.66710346 4 6 C3.67 6.61875 3.34 7.2375 3 7.875 C1.85806765 9.91018344 1.85806765 9.91018344 2 12 C0.02 12 -1.96 12 -4 12 C-4.33 12.66 -4.66 13.32 -5 14 C-5.66 13.67 -6.32 13.34 -7 13 C-7 12.01 -7 11.02 -7 10 C-7.99 10 -8.98 10 -10 10 C-10 8.68 -10 7.36 -10 6 C-9.34 6 -8.68 6 -8 6 C-8.33 4.68 -8.66 3.36 -9 2 C-3.375 0 -3.375 0 0 0 Z " fill="#EEF9FB" transform="translate(27,63)"/>
<path d="M0 0 C0.92683594 0.00451172 1.85367188 0.00902344 2.80859375 0.01367188 C5.08079709 0.02538426 7.35286388 0.04178628 9.625 0.0625 C8.965 2.7025 8.305 5.3425 7.625 8.0625 C7.295 7.0725 6.965 6.0825 6.625 5.0625 C-0.635 5.0625 -7.895 5.0625 -15.375 5.0625 C-15.705 3.7425 -16.035 2.4225 -16.375 1.0625 C-10.89230931 -0.09414737 -5.57160726 -0.05166255 0 0 Z " fill="#655CFE" transform="translate(55.375,80.9375)"/>
<path d="M0 0 C0.66 0 1.32 0 2 0 C2.33 0.66 2.66 1.32 3 2 C3.66 2 4.32 2 5 2 C6.6875 3.8125 6.6875 3.8125 8 6 C7.67 6.99 7.34 7.98 7 9 C6.34 9 5.68 9 5 9 C5 9.66 5 10.32 5 11 C4.34 11 3.68 11 3 11 C3 10.01 3 9.02 3 8 C2.01 8 1.02 8 0 8 C-0.33 9.65 -0.66 11.3 -1 13 C-1.66 13 -2.32 13 -3 13 C-3 12.34 -3 11.68 -3 11 C-3.598125 10.9175 -4.19625 10.835 -4.8125 10.75 C-7.5966296 9.79544128 -8.43311142 8.42867729 -10 6 C-8.71034824 4.62437146 -7.37310707 3.29233607 -6 2 C-5.34 2 -4.68 2 -4 2 C-4 2.99 -4 3.98 -4 5 C-3.01 5 -2.02 5 -1 5 C-0.67 3.35 -0.34 1.7 0 0 Z " fill="#90DDE7" transform="translate(47,89)"/>
<path d="M0 0 C3.4375 0.25 3.4375 0.25 7 1 C7.66 1.99 8.32 2.98 9 4 C11.55183404 5.20450304 11.55183404 5.20450304 14 6 C14 6.66 14 7.32 14 8 C6.74 8 -0.52 8 -8 8 C-7.67 7.01 -7.34 6.02 -7 5 C-5.68 5 -4.36 5 -3 5 C-2.690625 4.360625 -2.38125 3.72125 -2.0625 3.0625 C-1 1 -1 1 0 0 Z " fill="#F8FDFD" transform="translate(119,38)"/>
<path d="M0 0 C3.63 0 7.26 0 11 0 C10.67 1.65 10.34 3.3 10 5 C8.68 5.33 7.36 5.66 6 6 C5.34 9.3 4.68 12.6 4 16 C2.02 16 0.04 16 -2 16 C-2 14.35 -2 12.7 -2 11 C-1.34 11 -0.68 11 0 11 C0 9.68 0 8.36 0 7 C0 4.66666667 0 2.33333333 0 0 Z " fill="#34D6CE" transform="translate(121,47)"/>
<path d="M0 0 C1.11503906 0.00644531 2.23007813 0.01289062 3.37890625 0.01953125 C4.53777344 0.03628906 5.69664063 0.05304687 6.890625 0.0703125 C8.65212891 0.08384766 8.65212891 0.08384766 10.44921875 0.09765625 C13.34656036 0.12121187 16.24348941 0.15410598 19.140625 0.1953125 C19.140625 0.8553125 19.140625 1.5153125 19.140625 2.1953125 C14.850625 2.1953125 10.560625 2.1953125 6.140625 2.1953125 C6.140625 4.5053125 6.140625 6.8153125 6.140625 9.1953125 C6.800625 9.5253125 7.460625 9.8553125 8.140625 10.1953125 C7.150625 11.6803125 7.150625 11.6803125 6.140625 13.1953125 C2.265625 11.4453125 2.265625 11.4453125 1.140625 9.1953125 C1.800625 9.1953125 2.460625 9.1953125 3.140625 9.1953125 C3.140625 7.8753125 3.140625 6.5553125 3.140625 5.1953125 C-3.459375 4.8653125 -10.059375 4.5353125 -16.859375 4.1953125 C-16.859375 3.5353125 -16.859375 2.8753125 -16.859375 2.1953125 C-15.250625 2.2571875 -15.250625 2.2571875 -13.609375 2.3203125 C-10.0586228 2.47766726 -10.0586228 2.47766726 -7.99121094 1.19970703 C-5.21155435 -0.10990213 -3.06470623 -0.03127251 0 0 Z " fill="#87D9E3" transform="translate(114.859375,44.8046875)"/>
<path d="M0 0 C1.32 0 2.64 0 4 0 C4 5.61 4 11.22 4 17 C4.99 17 5.98 17 7 17 C7 18.65 7 20.3 7 22 C4.69 22 2.38 22 0 22 C0 14.74 0 7.48 0 0 Z " fill="#41458F" transform="translate(26,80)"/>
<path d="M0 0 C2.31 0 4.62 0 7 0 C7.05395478 1.62463842 7.09277195 3.24978541 7.125 4.875 C7.14820312 5.77992187 7.17140625 6.68484375 7.1953125 7.6171875 C6.90935891 11.10582132 4.38921211 12.61078789 2 15 C2.33 15.66 2.66 16.32 3 17 C2.01 17.33 1.02 17.66 0 18 C0 12.06 0 6.12 0 0 Z " fill="#6C74FE" transform="translate(98,54)"/>
<path d="M0 0 C1.32 0 2.64 0 4 0 C4 2.64 4 5.28 4 8 C-2.6 8 -9.2 8 -16 8 C-13 5 -13 5 -9.8125 4.8125 C-8.4203125 4.9053125 -8.4203125 4.9053125 -7 5 C-7 4.34 -7 3.68 -7 3 C-5.02 3 -3.04 3 -1 3 C-0.67 2.01 -0.34 1.02 0 0 Z " fill="#35D8C5" transform="translate(30,72)"/>
<path d="M0 0 C2.95839355 -0.02689449 5.91654427 -0.04678741 8.875 -0.0625 C9.71675781 -0.07087891 10.55851562 -0.07925781 11.42578125 -0.08789062 C12.23144531 -0.09111328 13.03710938 -0.09433594 13.8671875 -0.09765625 C14.98262939 -0.10551147 14.98262939 -0.10551147 16.12060547 -0.11352539 C18 0 18 0 20 1 C20 1.99 20 2.98 20 4 C19.01 4 18.02 4 17 4 C17 4.33 17 4.66 17 5 C11.39 5 5.78 5 0 5 C0 3.35 0 1.7 0 0 Z " fill="#34ADC5" transform="translate(98,49)"/>
<path d="M0 0 C0.89332031 0.13921875 1.78664063 0.2784375 2.70703125 0.421875 C3.60808594 0.55078125 4.50914063 0.6796875 5.4375 0.8125 C6.12457031 0.93109375 6.81164062 1.0496875 7.51953125 1.171875 C7.51953125 1.831875 7.51953125 2.491875 7.51953125 3.171875 C6.52953125 3.666875 6.52953125 3.666875 5.51953125 4.171875 C5.18953125 5.161875 4.85953125 6.151875 4.51953125 7.171875 C3.85953125 7.171875 3.19953125 7.171875 2.51953125 7.171875 C2.51953125 7.831875 2.51953125 8.491875 2.51953125 9.171875 C1.52953125 9.171875 0.53953125 9.171875 -0.48046875 9.171875 C-0.81046875 9.831875 -1.14046875 10.491875 -1.48046875 11.171875 C-2.80046875 11.171875 -4.12046875 11.171875 -5.48046875 11.171875 C-5.84451984 4.86165602 -5.84451984 4.86165602 -4.29296875 1.921875 C-2.48046875 0.171875 -2.48046875 0.171875 0 0 Z " fill="#6C72FE" transform="translate(107.48046875,112.828125)"/>
<path d="M0 0 C0.66 0 1.32 0 2 0 C2 4.95 2 9.9 2 15 C-1.96 15 -5.92 15 -10 15 C-8.60878255 12.2175651 -6.69835788 11.44789935 -4 10 C-3.34 10 -2.68 10 -2 10 C-2 9.34 -2 8.68 -2 8 C-2.66 7.67 -3.32 7.34 -4 7 C-3.34 5.35 -2.68 3.7 -2 2 C-1.34 2 -0.68 2 0 2 C0 1.34 0 0.68 0 0 Z " fill="#758FFD" transform="translate(125,109)"/>
<path d="M0 0 C0.33 0 0.66 0 1 0 C1.02684679 2.64590014 1.04676357 5.29153096 1.0625 7.9375 C1.07087891 8.69224609 1.07925781 9.44699219 1.08789062 10.22460938 C1.09652441 12.14994313 1.05224333 14.07535581 1 16 C0 17 0 17 -2.06640625 17.09765625 C-2.89011719 17.08605469 -3.71382812 17.07445313 -4.5625 17.0625 C-5.38878906 17.05347656 -6.21507812 17.04445313 -7.06640625 17.03515625 C-8.02353516 17.01775391 -8.02353516 17.01775391 -9 17 C-8.67 16.34 -8.34 15.68 -8 15 C-7.01 15 -6.02 15 -5 15 C-5.061875 14.154375 -5.12375 13.30875 -5.1875 12.4375 C-4.92091065 7.5500285 -3.49258493 3.49258493 0 0 Z " fill="#35DAC2" transform="translate(59,88)"/>
<path d="M0 0 C2.64 0 5.28 0 8 0 C8 4.29 8 8.58 8 13 C6.02 13.33 4.04 13.66 2 14 C2.66 12.02 3.32 10.04 4 8 C3.01 7.67 2.02 7.34 1 7 C0.67 4.69 0.34 2.38 0 0 Z " fill="#3FBADB" transform="translate(26,59)"/>
<path d="M0 0 C0.87205078 -0.00773437 1.74410156 -0.01546875 2.64257812 -0.0234375 C7.47313175 -0.00881054 11.40381047 0.37399054 15.9375 2.25 C15.9375 2.58 15.9375 2.91 15.9375 3.25 C7.6875 2.92 -0.5625 2.59 -9.0625 2.25 C-9.0625 4.89 -9.0625 7.53 -9.0625 10.25 C-11.7025 9.92 -14.3425 9.59 -17.0625 9.25 C-17.0625 8.92 -17.0625 8.59 -17.0625 8.25 C-15.4125 7.92 -13.7625 7.59 -12.0625 7.25 C-11.7325 5.93 -11.4025 4.61 -11.0625 3.25 C-13.0425 3.25 -15.0225 3.25 -17.0625 3.25 C-17.0625 2.92 -17.0625 2.59 -17.0625 2.25 C-11.27397306 0.26536219 -6.0942392 -0.05429166 0 0 Z " fill="#6ED7E0" transform="translate(24.0625,31.75)"/>
<path d="M0 0 C1.32 0 2.64 0 4 0 C4 6.6 4 13.2 4 20 C2.68 19.67 1.36 19.34 0 19 C0 12.73 0 6.46 0 0 Z " fill="#3E3E8B" transform="translate(115,63)"/>
<path d="M0 0 C1.67542976 0.28604898 3.34385343 0.61781233 5 1 C5.84098656 5.01804691 6.05404945 8.01803543 5 12 C3.02 12.66 1.04 13.32 -1 14 C-1.02685938 11.85423363 -1.04633088 9.70837355 -1.0625 7.5625 C-1.07410156 6.36753906 -1.08570312 5.17257813 -1.09765625 3.94140625 C-1 1 -1 1 0 0 Z " fill="#33C7DF" transform="translate(106,33)"/>
<path d="M0 0 C8.58 0 17.16 0 26 0 C25.67 0.99 25.34 1.98 25 3 C17.08 3 9.16 3 1 3 C0.67 2.01 0.34 1.02 0 0 Z " fill="#4C4CA0" transform="translate(101,124)"/>
<path d="M0 0 C0.99 0.33 1.98 0.66 3 1 C3 4.3 3 7.6 3 11 C-0.3 11 -3.6 11 -7 11 C-6.67 10.34 -6.34 9.68 -6 9 C-5.01 9 -4.02 9 -3 9 C-3 7.02 -3 5.04 -3 3 C-5.31 3 -7.62 3 -10 3 C-10 2.67 -10 2.34 -10 2 C-6.7 1.67 -3.4 1.34 0 1 C0 0.67 0 0.34 0 0 Z " fill="#7992FE" transform="translate(112,71)"/>
<path d="M0 0 C1.32 0 2.64 0 4 0 C4 1.98 4 3.96 4 6 C2.02 6.99 2.02 6.99 0 8 C0 8.66 0 9.32 0 10 C-2.97 10 -5.94 10 -9 10 C-8.67 9.01 -8.34 8.02 -8 7 C-7.21625 6.71125 -6.4325 6.4225 -5.625 6.125 C-2.77548597 5.20845133 -2.77548597 5.20845133 -1.4375 2.375 C-0.963125 1.59125 -0.48875 0.8075 0 0 Z " fill="#655DFF" transform="translate(123,86)"/>
<path d="M0 0 C2.64 0 5.28 0 8 0 C8.25 6.625 8.25 6.625 6 10 C3.375 10.6875 3.375 10.6875 1 11 C0.67 9.68 0.34 8.36 0 7 C0.66 7 1.32 7 2 7 C1.34 4.69 0.68 2.38 0 0 Z " fill="#6DD4E3" transform="translate(110,33)"/>
<path d="M0 0 C2.31 0 4.62 0 7 0 C7 1.65 7 3.3 7 5 C3.37 5 -0.26 5 -4 5 C-4 6.65 -4 8.3 -4 10 C-5.32 10 -6.64 10 -8 10 C-8 8.02 -8 6.04 -8 4 C-5.36 4 -2.72 4 0 4 C0 2.68 0 1.36 0 0 Z " fill="#3C408C" transform="translate(34,49)"/>
<path d="M0 0 C2.05078125 0.03255208 4.1015625 0.06510417 6.15234375 0.09765625 C6.15234375 1.08765625 6.15234375 2.07765625 6.15234375 3.09765625 C5.49234375 3.75765625 4.83234375 4.41765625 4.15234375 5.09765625 C4.48234375 5.75765625 4.81234375 6.41765625 5.15234375 7.09765625 C4.49234375 7.09765625 3.83234375 7.09765625 3.15234375 7.09765625 C2.82234375 8.08765625 2.49234375 9.07765625 2.15234375 10.09765625 C0.65234375 8.72265625 0.65234375 8.72265625 -0.84765625 7.09765625 C-0.84765625 6.43765625 -0.84765625 5.77765625 -0.84765625 5.09765625 C-1.83765625 5.42765625 -2.82765625 5.75765625 -3.84765625 6.09765625 C-2.77957394 0.14691194 -2.77957394 0.14691194 0 0 Z " fill="#3DBDD9" transform="translate(52.84765625,85.90234375)"/>
<path d="M0 0 C2.64 0 5.28 0 8 0 C8 0.66 8 1.32 8 2 C9.65 2.33 11.3 2.66 13 3 C12.01 3.495 12.01 3.495 11 4 C11.33 4.99 11.66 5.98 12 7 C11.01 7.33 10.02 7.66 9 8 C8.01 7.34 7.02 6.68 6 6 C2.87478167 5.83300768 2.87478167 5.83300768 0 6 C0 4.02 0 2.04 0 0 Z " fill="#34CED8" transform="translate(118,33)"/>
<path d="M0 0 C1.24716797 0.00322266 2.49433594 0.00644531 3.77929688 0.00976562 C5.07287109 0.01814453 6.36644531 0.02652344 7.69921875 0.03515625 C9.66858398 0.04192383 9.66858398 0.04192383 11.67773438 0.04882812 C14.91410885 0.06059676 18.15039053 0.07703865 21.38671875 0.09765625 C21.05671875 0.75765625 20.72671875 1.41765625 20.38671875 2.09765625 C19.73074707 2.11747559 19.07477539 2.13729492 18.39892578 2.15771484 C15.43610806 2.25278132 12.47401343 2.36253377 9.51171875 2.47265625 C7.96291016 2.5190625 7.96291016 2.5190625 6.3828125 2.56640625 C4.90361328 2.62441406 4.90361328 2.62441406 3.39453125 2.68359375 C2.4833252 2.71501465 1.57211914 2.74643555 0.63330078 2.77880859 C-1.81259311 2.89648136 -1.81259311 2.89648136 -3.61328125 5.09765625 C-6.34197532 5.06478042 -8.90994305 4.53367854 -11.61328125 4.09765625 C-11.61328125 3.10765625 -11.61328125 2.11765625 -11.61328125 1.09765625 C-7.68039761 0.16677716 -4.03673962 -0.0184326 0 0 Z " fill="#D9D9E8" transform="translate(106.61328125,125.90234375)"/>
<path d="M0 0 C0.99 0 1.98 0 3 0 C3.33 0.99 3.66 1.98 4 3 C5.49985609 4.66710346 5.49985609 4.66710346 7 6 C4.99226044 8.00773956 3.63126383 8.99392854 1 10 C-1.25 9.625 -1.25 9.625 -3 9 C-2.44271087 5.65626525 -1.64826111 2.96687001 0 0 Z " fill="#E7F7FA" transform="translate(24,63)"/>
<path d="M0 0 C0.33 0 0.66 0 1 0 C1.02685095 2.47923801 1.04676547 4.9581884 1.0625 7.4375 C1.07087891 8.14455078 1.07925781 8.85160156 1.08789062 9.58007812 C1.09653588 11.38693559 1.05220011 13.19387603 1 15 C0 16 0 16 -3.59765625 16.09765625 C-5.08596867 16.0909822 -6.57426432 16.07902183 -8.0625 16.0625 C-8.82111328 16.05798828 -9.57972656 16.05347656 -10.36132812 16.04882812 C-12.24091871 16.0370068 -14.12046899 16.01907078 -16 16 C-16 15.34 -16 14.68 -16 14 C-15.32453125 14.01160156 -14.6490625 14.02320312 -13.953125 14.03515625 C-13.06109375 14.04417969 -12.1690625 14.05320312 -11.25 14.0625 C-10.36828125 14.07410156 -9.4865625 14.08570312 -8.578125 14.09765625 C-6.2181162 14.00826198 -4.25501476 13.66912821 -2 13 C-1.80508548 11.54263913 -1.61930642 10.08405407 -1.4375 8.625 C-1.33308594 7.81289062 -1.22867188 7.00078125 -1.12109375 6.1640625 C-0.81762672 3.95100814 -0.81762672 3.95100814 -2 2 C-1.34 2 -0.68 2 0 2 C0 1.34 0 0.68 0 0 Z " fill="#3DDAD0" transform="translate(122,98)"/>
<path d="M0 0 C0.33 1.32 0.66 2.64 1 4 C2.65 4.33 4.3 4.66 6 5 C5.34 7.97 4.68 10.94 4 14 C2.02 14 0.04 14 -2 14 C-2 12.35 -2 10.7 -2 9 C-1.34 9 -0.68 9 0 9 C0 7.68 0 6.36 0 5 C0 3.33333333 0 1.66666667 0 0 Z " fill="#43DCCD" transform="translate(121,49)"/>
<path d="M0 0 C3.375 -0.1875 3.375 -0.1875 7 0 C7.66 0.99 8.32 1.98 9 3 C8.01 3.33 7.02 3.66 6 4 C4.98812105 5.65948148 3.9873454 7.32580562 3 9 C2.34 9 1.68 9 1 9 C0.67 9.66 0.34 10.32 0 11 C0 7.37 0 3.74 0 0 Z " fill="#5934FF" transform="translate(102,86)"/>
<path d="M0 0 C1.23556641 0.01740234 1.23556641 0.01740234 2.49609375 0.03515625 C3.32238281 0.04417969 4.14867187 0.05320312 5 0.0625 C5.63808594 0.07410156 6.27617188 0.08570312 6.93359375 0.09765625 C7.26359375 0.75765625 7.59359375 1.41765625 7.93359375 2.09765625 C6.61359375 2.09765625 5.29359375 2.09765625 3.93359375 2.09765625 C3.93359375 2.75765625 3.93359375 3.41765625 3.93359375 4.09765625 C2.61359375 4.42765625 1.29359375 4.75765625 -0.06640625 5.09765625 C-0.06640625 6.08765625 -0.06640625 7.07765625 -0.06640625 8.09765625 C-1.05640625 8.09765625 -2.04640625 8.09765625 -3.06640625 8.09765625 C-3.10882348 5.7647085 -3.10733562 3.43063058 -3.06640625 1.09765625 C-2.06640625 0.09765625 -2.06640625 0.09765625 0 0 Z " fill="#4597EB" transform="translate(36.06640625,85.90234375)"/>
<path d="M0 0 C0.99 0 1.98 0 3 0 C3 4.95 3 9.9 3 15 C2.01 15.33 1.02 15.66 0 16 C0 10.72 0 5.44 0 0 Z " fill="#37CFCA" transform="translate(95,49)"/>
<path d="M0 0 C3.3 0 6.6 0 10 0 C9 2 9 2 7 2.875 C4.79994195 3.8234856 4.79994195 3.8234856 4.25 6.125 C4.1675 6.74375 4.085 7.3625 4 8 C2.68 8.33 1.36 8.66 0 9 C0 6.03 0 3.06 0 0 Z " fill="#3DBBDD" transform="translate(105,54)"/>
<path d="M0 0 C0.33 0 0.66 0 1 0 C1.36 5.4 1.36 5.4 -0.125 7.875 C-2.78034983 9.4682099 -4.96789518 9.20214032 -8 9 C-8 8.01 -8 7.02 -8 6 C-6.36935236 4.94228261 -4.69719127 3.94726954 -3 3 C-1.98198643 2.01834406 -0.9753197 1.02408568 0 0 Z " fill="#46D9DA" transform="translate(119,102)"/>
<path d="M0 0 C0.66 0 1.32 0 2 0 C2 5.94 2 11.88 2 18 C0.02 18 -1.96 18 -4 18 C-3.67 17.34 -3.34 16.68 -3 16 C-2.01 16 -1.02 16 0 16 C0 10.72 0 5.44 0 0 Z " fill="#35DBC6" transform="translate(32,35)"/>
<path d="M0 0 C0 0.99 0 1.98 0 3 C0.66 3 1.32 3 2 3 C1.67 4.98 1.34 6.96 1 9 C-1.88575819 8.60196439 -2.82189513 8.20990931 -4.75 5.9375 C-5.1625 5.298125 -5.575 4.65875 -6 4 C-2.25 0 -2.25 0 0 0 Z " fill="#4FBDDB" transform="translate(43,91)"/>
<path d="M0 0 C1.98 0 3.96 0 6 0 C6 0.66 6 1.32 6 2 C1.48779109 5.91058106 -3.37895957 5.29469532 -9 5 C-7.69921875 3.51171875 -7.69921875 3.51171875 -6 2 C-2.8125 1.8125 -2.8125 1.8125 0 2 C0 1.34 0 0.68 0 0 Z " fill="#3AD3D0" transform="translate(23,75)"/>
<path d="M0 0 C3.36704285 -0.2295711 5.41370268 -0.33943529 8.375 1.375 C8.91125 1.91125 9.4475 2.4475 10 3 C10 3.66 10 4.32 10 5 C6.7 5 3.4 5 0 5 C0 3.35 0 1.7 0 0 Z " fill="#34ABC5" transform="translate(33,97)"/>
<path d="M0 0 C1.32 0.99 2.64 1.98 4 3 C4 3.66 4 4.32 4 5 C4.33 5.33 4.66 5.66 5 6 C5.04080783 7.99958364 5.04254356 10.00045254 5 12 C3.68 12 2.36 12 1 12 C0.67 8.04 0.34 4.08 0 0 Z " fill="#37C1C6" transform="translate(114,51)"/>
<path d="M0 0 C0.66 0.99 1.32 1.98 2 3 C1.67 3.66 1.34 4.32 1 5 C-2.3 5 -5.6 5 -9 5 C-9.33 4.01 -9.66 3.02 -10 2 C-6.7 2 -3.4 2 0 2 C0 1.34 0 0.68 0 0 Z " fill="#4ED1D8" transform="translate(43,100)"/>
<path d="M0 0 C0.99 0 1.98 0 3 0 C3.08121924 1.60332791 3.13929134 3.20784026 3.1875 4.8125 C3.23970703 6.15248047 3.23970703 6.15248047 3.29296875 7.51953125 C3 10 3 10 0 13 C0 8.71 0 4.42 0 0 Z " fill="#3B96D8" transform="translate(41,49)"/>
<path d="M0 0 C2.31 0 4.62 0 7 0 C7 1.65 7 3.3 7 5 C4.69 5 2.38 5 0 5 C0 3.35 0 1.7 0 0 Z " fill="#3C3E8A" transform="translate(98,49)"/>
<path d="M0 0 C1.07765625 0.10183594 2.1553125 0.20367187 3.265625 0.30859375 C4.08546875 0.39238281 4.9053125 0.47617188 5.75 0.5625 C5.75 1.2225 5.75 1.8825 5.75 2.5625 C0.47 2.5625 -4.81 2.5625 -10.25 2.5625 C-10.25 1.9025 -10.25 1.2425 -10.25 0.5625 C-6.70049966 -0.60056443 -3.69176052 -0.36115049 0 0 Z " fill="#99C0FE" transform="translate(68.25,118.4375)"/>
<path d="M0 0 C2.12472576 -0.05386629 4.24983652 -0.09273071 6.375 -0.125 C7.55835938 -0.14820313 8.74171875 -0.17140625 9.9609375 -0.1953125 C13 0 13 0 15 2 C10.71 2 6.42 2 2 2 C2 2.66 2 3.32 2 4 C1.01 4 0.02 4 -1 4 C-0.67 2.68 -0.34 1.36 0 0 Z " fill="#33C5DE" transform="translate(42,45)"/>
<path d="M0 0 C0.66 0 1.32 0 2 0 C1.69128878 1.79232337 1.37790936 3.58384321 1.0625 5.375 C0.88847656 6.37273437 0.71445312 7.37046875 0.53515625 8.3984375 C0 11 0 11 -1 13 C-1.66 13 -2.32 13 -3 13 C-2.52060632 8.28596212 -2.03165952 4.33420699 0 0 Z " fill="#D8F2F6" transform="translate(47,89)"/>
<path d="M0 0 C0.99773437 0.02320313 1.99546875 0.04640625 3.0234375 0.0703125 C4.52777344 0.09738281 4.52777344 0.09738281 6.0625 0.125 C6.83335938 0.14820313 7.60421875 0.17140625 8.3984375 0.1953125 C8.7284375 1.5153125 9.0584375 2.8353125 9.3984375 4.1953125 C8.4084375 4.1953125 7.4184375 4.1953125 6.3984375 4.1953125 C6.3984375 3.5353125 6.3984375 2.8753125 6.3984375 2.1953125 C2.7684375 2.1953125 -0.8615625 2.1953125 -4.6015625 2.1953125 C-2.6015625 0.1953125 -2.6015625 0.1953125 0 0 Z " fill="#57D9D6" transform="translate(88.6015625,44.8046875)"/>
<path d="M0 0 C0.33 0 0.66 0 1 0 C1 2.97 1 5.94 1 9 C-0.65 9 -2.3 9 -4 9 C-2.25 2.25 -2.25 2.25 0 0 Z " fill="#38D0D0" transform="translate(59,88)"/>
<path d="M0 0 C2.0625 0.4375 2.0625 0.4375 4 1 C4 2.32 4 3.64 4 5 C2.68 5.33 1.36 5.66 0 6 C-0.38218767 4.34385343 -0.71395102 2.67542976 -1 1 C-0.67 0.67 -0.34 0.34 0 0 Z " fill="#42CDDB" transform="translate(22,67)"/>
<path d="M0 0 C0.66 0 1.32 0 2 0 C2 1.65 2 3.3 2 5 C2.66 5.33 3.32 5.66 4 6 C3.01 7.485 3.01 7.485 2 9 C-1.875 7.25 -1.875 7.25 -3 5 C-2.01 5 -1.02 5 0 5 C0 3.35 0 1.7 0 0 Z " fill="#EFFAFA" transform="translate(119,49)"/>
<path d="M0 0 C1.32 0 2.64 0 4 0 C4 2.31 4 4.62 4 7 C3.01 7 2.02 7 1 7 C0.67 4.69 0.34 2.38 0 0 Z " fill="#34AFC6" transform="translate(26,59)"/>
<path d="M0 0 C2.31 0 4.62 0 7 0 C7 1.32 7 2.64 7 4 C5.35 4.66 3.7 5.32 2 6 C1.67 5.01 1.34 4.02 1 3 C1.33 2.67 1.66 2.34 2 2 C1.34 2 0.68 2 0 2 C0 1.34 0 0.68 0 0 Z " fill="#3ED0DA" transform="translate(19,59)"/>
<path d="M0 0 C0.33 0 0.66 0 1 0 C1 2.31 1 4.62 1 7 C-1.31 7 -3.62 7 -6 7 C-5.02433888 5.83040013 -4.044375 4.66438823 -3.0625 3.5 C-2.51722656 2.8503125 -1.97195312 2.200625 -1.41015625 1.53125 C-0.71212891 0.77328125 -0.71212891 0.77328125 0 0 Z " fill="#7A9AFE" transform="translate(126,117)"/>
<path d="M0 0 C1.32 0 2.64 0 4 0 C4 1.65 4 3.3 4 5 C3.34 5 2.68 5 2 5 C2 5.66 2 6.32 2 7 C1.34 7 0.68 7 0 7 C0 4.69 0 2.38 0 0 Z " fill="#707FFE" transform="translate(123,104)"/>
<path d="M0 0 C-0.33 1.32 -0.66 2.64 -1 4 C-5.455 3.01 -5.455 3.01 -10 2 C-6.3558226 -0.4294516 -4.28758728 -0.16179575 0 0 Z " fill="#42C7E8" transform="translate(123,96)"/>
<path d="M0 0 C2.13093906 1.06546953 3.36587557 2.29159719 5 4 C4.01 4.495 4.01 4.495 3 5 C2.67 5.99 2.34 6.98 2 8 C0.4375 6.8125 0.4375 6.8125 -1 5 C-0.6875 2.3125 -0.6875 2.3125 0 0 Z " fill="#44CBD9" transform="translate(53,88)"/>
<path d="M0 0 C1.33333333 2.66666667 2.66666667 5.33333333 4 8 C2.35 8.33 0.7 8.66 -1 9 C-1.09765625 2.84765625 -1.09765625 2.84765625 -1 1 C-0.67 0.67 -0.34 0.34 0 0 Z " fill="#41CBE8" transform="translate(106,104)"/>
<path d="M0 0 C0.66 0 1.32 0 2 0 C2 2.31 2 4.62 2 7 C-0.64 6.67 -3.28 6.34 -6 6 C-6 5.67 -6 5.34 -6 5 C-4.35 4.67 -2.7 4.34 -1 4 C-0.67 2.68 -0.34 1.36 0 0 Z " fill="#7AD6E7" transform="translate(13,35)"/>
<path d="M0 0 C0 1.65 0 3.3 0 5 C-1.98 5.33 -3.96 5.66 -6 6 C-5.67 5.01 -5.34 4.02 -5 3 C-4.34 3 -3.68 3 -3 3 C-3 2.34 -3 1.68 -3 1 C-1 0 -1 0 0 0 Z " fill="#40CCD4" transform="translate(34,67)"/>
<path d="M0 0 C0.33 0 0.66 0 1 0 C1.1875 3.375 1.1875 3.375 1 7 C0.01 7.66 -0.98 8.32 -2 9 C-2.25 3.375 -2.25 3.375 0 0 Z " fill="#409AE9" transform="translate(43,59)"/>
<path d="M0 0 C0.99 0 1.98 0 3 0 C3.33 1.32 3.66 2.64 4 4 C2.35 4.33 0.7 4.66 -1 5 C-0.67 3.35 -0.34 1.7 0 0 Z " fill="#35C3C5" transform="translate(47,97)"/>
<path d="M0 0 C0.66 0 1.32 0 2 0 C2.36923077 4.55384615 2.36923077 4.55384615 0.5 6.8125 C0.005 7.204375 -0.49 7.59625 -1 8 C-1.125 2.25 -1.125 2.25 0 0 Z " fill="#665FFF" transform="translate(103,109)"/>
<path d="M0 0 C0 0.99 0 1.98 0 3 C0.3062434 4.33981486 0.63451555 5.67511887 1 7 C-0.32 6.34 -1.64 5.68 -3 5 C-3 4.01 -3 3.02 -3 2 C-2.01 1.34 -1.02 0.68 0 0 Z " fill="#E8F5F9" transform="translate(41,92)"/>
<path d="M0 0 C1.98 0 3.96 0 6 0 C6 0.33 6 0.66 6 1 C4.02 1 2.04 1 0 1 C0 0.67 0 0.34 0 0 Z " fill="#ECECF3" transform="translate(6,46)"/>
</svg>
