<?xml version="1.0" encoding="UTF-8"?>
<svg version="1.1" xmlns="http://www.w3.org/2000/svg" width="150" height="150">
<path d="M0 0 C2.64 0.33 5.28 0.66 8 1 C9.125 5.75 9.125 5.75 8 8 C11.63423209 10.32590854 14.77088331 10.16265833 19 10 C19.495 12.475 19.495 12.475 20 15 C20.85464844 14.98839844 21.70929688 14.97679687 22.58984375 14.96484375 C23.69457031 14.95582031 24.79929687 14.94679688 25.9375 14.9375 C27.03964844 14.92589844 28.14179688 14.91429687 29.27734375 14.90234375 C32 15 32 15 33 16 C33.15806531 17.92478813 33.251135 19.8549921 33.31640625 21.78515625 C33.37924805 23.53989258 33.37924805 23.53989258 33.44335938 25.33007812 C33.48267578 26.56177734 33.52199219 27.79347656 33.5625 29.0625 C33.60568359 30.29806641 33.64886719 31.53363281 33.69335938 32.80664062 C33.79984198 35.87097335 33.90185424 38.93539073 34 42 C35.65 42 37.3 42 39 42 C40.60339848 45.11771927 41.18974141 46.39011689 40.125 49.8125 C39.75375 50.534375 39.3825 51.25625 39 52 C39.66 52.33 40.32 52.66 41 53 C40.34 54.65 39.68 56.3 39 58 C36.69 58 34.38 58 32 58 C32 58.99 32 59.98 32 61 C30.35 61 28.7 61 27 61 C26.773125 60.360625 26.54625 59.72125 26.3125 59.0625 C25.14749104 56.72806339 25.14749104 56.72806339 22.375 56.25 C21.59125 56.1675 20.8075 56.085 20 56 C19.505 54.02 19.505 54.02 19 52 C19.66 52 20.32 52 21 52 C20.39816251 49.97954558 19.72693904 47.97888961 19 46 C18.34 45.67 17.68 45.34 17 45 C17 51.6 17 58.2 17 65 C19.31 65 21.62 65 24 65 C25 66 25 66 25.11352539 69.96899414 C25.1133662 71.74105607 25.10766785 73.5131226 25.09765625 75.28515625 C25.0962413 76.21597519 25.09482635 77.14679413 25.09336853 78.1058197 C25.08775172 81.09141191 25.0751964 84.07693029 25.0625 87.0625 C25.05748716 89.08137913 25.05292388 91.10025943 25.04882812 93.11914062 C25.03777683 98.07945572 25.02050095 103.03971532 25 108 C27.31 108.66 29.62 109.32 32 110 C31 112 31 112 29.34521484 112.61450195 C24.49200924 113.41225457 19.54404055 113.18590312 14.63769531 113.18530273 C12.63863013 113.18748512 10.63960468 113.20599143 8.640625 113.22460938 C7.36960937 113.22654297 6.09859375 113.22847656 4.7890625 113.23046875 C3.63100098 113.23457764 2.47293945 113.23868652 1.27978516 113.24291992 C-2.11310954 112.99162245 -4.83332989 112.21173908 -8 111 C-7.67 110.34 -7.34 109.68 -7 109 C-4.4375 108.375 -4.4375 108.375 -2 108 C-2.67857056 107.99191315 -3.35714111 107.98382629 -4.05627441 107.97549438 C-11.19572947 107.88863335 -18.33493245 107.7891071 -25.47412109 107.68261719 C-28.12938188 107.64363425 -30.7845665 107.60971702 -33.43994141 107.578125 C-71.93926359 107.11445232 -71.93926359 107.11445232 -79 103 C-77.74458443 100.48916886 -76.49936512 100.12874554 -74 99 C-75.98 98.67 -77.96 98.34 -80 98 C-80.33 98.99 -80.66 99.98 -81 101 C-83.35964273 100.59316505 -84.85934088 100.10185661 -86.8125 98.6875 C-87.204375 98.130625 -87.59625 97.57375 -88 97 C-87.625 95 -87.625 95 -87 93 C-87.33 92.01 -87.66 91.02 -88 90 C-89.65 90 -91.3 90 -93 90 C-93 87.36 -93 84.72 -93 82 C-91.35 82 -89.7 82 -88 82 C-87.29925156 78.846632 -87 76.27275026 -87 73 C-84 71 -84 71 -81.8125 71.375 C-81.214375 71.58125 -80.61625 71.7875 -80 72 C-80 72.66 -80 73.32 -80 74 C-78.68 74 -77.36 74 -76 74 C-76 71.03 -76 68.06 -76 65 C-82.27 65 -88.54 65 -95 65 C-95 64.34 -95 63.68 -95 63 C-92.03 62.505 -92.03 62.505 -89 62 C-89 61.01 -89 60.02 -89 59 C-90.98 59 -92.96 59 -95 59 C-95 58.34 -95 57.68 -95 57 C-93.02 57 -91.04 57 -89 57 C-89 55.68 -89 54.36 -89 53 C-90.98 53 -92.96 53 -95 53 C-95 52.34 -95 51.68 -95 51 C-93.02 51 -91.04 51 -89 51 C-89 49.68 -89 48.36 -89 47 C-90.98 47 -92.96 47 -95 47 C-95 46.34 -95 45.68 -95 45 C-93.02 45 -91.04 45 -89 45 C-89 44.01 -89 43.02 -89 42 C-90.98 41.67 -92.96 41.34 -95 41 C-95 40.67 -95 40.34 -95 40 C-88.73 40 -82.46 40 -76 40 C-76 38.35 -76 36.7 -76 35 C-82.27 35 -88.54 35 -95 35 C-95 34.67 -95 34.34 -95 34 C-92.525 33.505 -92.525 33.505 -90 33 C-89.67 31.68 -89.34 30.36 -89 29 C-90.98 29 -92.96 29 -95 29 C-95 28.67 -95 28.34 -95 28 C-93.35 27.67 -91.7 27.34 -90 27 C-89.67 25.68 -89.34 24.36 -89 23 C-90.98 23 -92.96 23 -95 23 C-95 22.67 -95 22.34 -95 22 C-93.35 21.67 -91.7 21.34 -90 21 C-89.67 19.68 -89.34 18.36 -89 17 C-90.98 17 -92.96 17 -95 17 C-95 16.67 -95 16.34 -95 16 C-89.11060037 13.95887931 -83.8280285 13.72721958 -77.625 13.8125 C-76.25408203 13.8134668 -76.25408203 13.8134668 -74.85546875 13.81445312 C-68.14064837 13.85935163 -68.14064837 13.85935163 -67 15 C-64.19023482 15.16017166 -61.40226404 15.25950534 -58.58984375 15.31640625 C-57.74780899 15.33718735 -56.90577423 15.35796844 -56.03822327 15.37937927 C-53.33806821 15.44496812 -50.63781283 15.50380276 -47.9375 15.5625 C-46.11131759 15.60567637 -44.28514546 15.64929036 -42.45898438 15.69335938 C-37.97276008 15.80065894 -33.4864345 15.90189966 -29 16 C-29 16.33 -29 16.66 -29 17 C-41.87 17 -54.74 17 -68 17 C-67.67 18.32 -67.34 19.64 -67 21 C-54.46 21.33 -41.92 21.66 -29 22 C-29 22.33 -29 22.66 -29 23 C-41.87 23 -54.74 23 -68 23 C-67.67 24.32 -67.34 25.64 -67 27 C-51.16 27 -35.32 27 -19 27 C-19.495 25.02 -19.495 25.02 -20 23 C-18.7625 22.443125 -18.7625 22.443125 -17.5 21.875 C-14.68073782 20.21816103 -14.68073782 20.21816103 -14.5625 17.0625 C-14.96779191 14.22545666 -15.51218383 12.41770128 -17 10 C-15.35 8.02 -13.7 6.04 -12 4 C-11.2265625 4.495 -11.2265625 4.495 -10.4375 5 C-7.21973488 6.32010877 -4.4429472 6.13242105 -1 6 C-0.67 4.02 -0.34 2.04 0 0 Z M-6 14 C-8.2084626 17.31269391 -8.80664241 19.14978851 -8.5546875 23.0625 C-7.4812192 26.81207941 -5.28696911 28.01541488 -2 30 C0.63836977 30.1672392 0.63836977 30.1672392 3 30 C3.03738281 29.01257813 3.07476562 28.02515625 3.11328125 27.0078125 C3.17902344 25.72648437 3.24476562 24.44515625 3.3125 23.125 C3.37050781 21.84882812 3.42851563 20.57265625 3.48828125 19.2578125 C3.65714844 18.18273437 3.82601562 17.10765625 4 16 C4.99 15.34 5.98 14.68 7 14 C5.01607489 11.60148679 5.01607489 11.60148679 1.1875 11.5625 C-2.17733329 11.66669338 -3.04370031 12.02913354 -6 14 Z M-68 29 C-68 29.66 -68 30.32 -68 31 C-65.69 31 -63.38 31 -61 31 C-61 30.34 -61 29.68 -61 29 C-63.31 29 -65.62 29 -68 29 Z M25 47 C24.6366844 49.83386167 24.6431329 51.40522151 26.125 53.875 C28.92151052 55.55290631 30.93690532 54.74875648 34 54 C34.67673447 50.59679066 34.67673447 50.59679066 35 47 C33.11499729 44.68436913 33.11499729 44.68436913 30 44.75 C26.88500271 44.68436913 26.88500271 44.68436913 25 47 Z M-82.25 80.625 C-84.21985834 82.92308586 -84.21985834 82.92308586 -84.5 86 C-84.21376982 89.06575838 -84.21376982 89.06575838 -82.3125 91.375 C-79.61209763 93.27258004 -78.22939919 93.35882213 -75 93 C-74.85024761 85.94348748 -74.85024761 85.94348748 -76 79 C-79.92212225 78.60967296 -79.92212225 78.60967296 -82.25 80.625 Z M-67 95 C-67.33 96.65 -67.66 98.3 -68 100 C-55.13 99.01 -55.13 99.01 -42 98 C-41.67 97.01 -41.34 96.02 -41 95 C-49.58 95 -58.16 95 -67 95 Z M-17 95 C-17 95.99 -17 96.98 -17 98 C-11.72 98.33 -6.44 98.66 -1 99 C-1 97.68 -1 96.36 -1 95 C-6.28 95 -11.56 95 -17 95 Z " fill="#5E52FD" transform="translate(102,18)"/>
<path d="M0 0 C2.31 0 4.62 0 7 0 C7 2.97 7 5.94 7 9 C10.3 9 13.6 9 17 9 C17 15.6 17 22.2 17 29 C12.71 29 8.42 29 4 29 C4.495 34.94 4.495 34.94 5 41 C5.66 41 6.32 41 7 41 C7 39.68 7 38.36 7 37 C7.99 36.67 8.98 36.34 10 36 C10.495 35.01 10.495 35.01 11 34 C12.98 34 14.96 34 17 34 C15.02 36.31 13.04 38.62 11 41 C13.45862401 41.05383848 15.9160755 41.09359038 18.375 41.125 C19.07367188 41.14175781 19.77234375 41.15851563 20.4921875 41.17578125 C22.32897486 41.19344267 24.16601963 41.10303261 26 41 C26.99 40.01 26.99 40.01 28 39 C29 40 29 40 29.11352539 43.05102539 C29.11336634 44.39991271 29.10767612 45.74880614 29.09765625 47.09765625 C29.0962413 47.80651474 29.09482635 48.51537323 29.09336853 49.24571228 C29.08775443 51.51801712 29.07519963 53.79022475 29.0625 56.0625 C29.05748681 57.59960796 29.05292359 59.13671745 29.04882812 60.67382812 C29.03778042 64.44925642 29.02050641 68.22461171 29 72 C31.31 72.66 33.62 73.32 36 74 C35 76 35 76 33.34521484 76.61450195 C28.49200924 77.41225457 23.54404055 77.18590312 18.63769531 77.18530273 C16.63863013 77.18748512 14.63960468 77.20599143 12.640625 77.22460938 C11.36960937 77.22654297 10.09859375 77.22847656 8.7890625 77.23046875 C7.63100098 77.23457764 6.47293945 77.23868652 5.27978516 77.24291992 C1.88689046 76.99162245 -0.83332989 76.21173908 -4 75 C-3.67 74.34 -3.34 73.68 -3 73 C-0.4375 72.375 -0.4375 72.375 2 72 C1.32142944 71.99191315 0.64285889 71.98382629 -0.05627441 71.97549438 C-7.19572947 71.88863335 -14.33493245 71.7891071 -21.47412109 71.68261719 C-24.12938188 71.64363425 -26.7845665 71.60971702 -29.43994141 71.578125 C-67.93926359 71.11445232 -67.93926359 71.11445232 -75 67 C-73.74458443 64.48916886 -72.49936512 64.12874554 -70 63 C-71.98 62.67 -73.96 62.34 -76 62 C-76.33 62.99 -76.66 63.98 -77 65 C-79.35964273 64.59316505 -80.85934088 64.10185661 -82.8125 62.6875 C-83.204375 62.130625 -83.59625 61.57375 -84 61 C-83.625 59 -83.625 59 -83 57 C-83.495 55.515 -83.495 55.515 -84 54 C-85.65 54 -87.3 54 -89 54 C-89 51.36 -89 48.72 -89 46 C-87.35 46 -85.7 46 -84 46 C-83.29925156 42.846632 -83 40.27275026 -83 37 C-80 35 -80 35 -77.8125 35.375 C-77.214375 35.58125 -76.61625 35.7875 -76 36 C-76 36.66 -76 37.32 -76 38 C-74.68 38 -73.36 38 -72 38 C-72 39.65 -72 41.3 -72 43 C-72.969375 43.28875 -73.93875 43.5775 -74.9375 43.875 C-78.10664203 44.64214682 -78.10664203 44.64214682 -79 47 C-79.14375422 50.37822416 -79.07536348 52.77390955 -78 56 C-75.69 56.33 -73.38 56.66 -71 57 C-71 54.03 -71 51.06 -71 48 C-69.02 48 -67.04 48 -65 48 C-64.67 48.66 -64.34 49.32 -64 50 C-55.75 50 -47.5 50 -39 50 C-38.505 49.01 -38.505 49.01 -38 48 C-24.47 48 -10.94 48 3 48 C3 46.35 3 44.7 3 43 C2.25314941 43.00523682 1.50629883 43.01047363 0.73681641 43.01586914 C-2.63378057 43.03660401 -6.00436414 43.04964899 -9.375 43.0625 C-10.550625 43.07087891 -11.72625 43.07925781 -12.9375 43.08789062 C-14.05898437 43.09111328 -15.18046875 43.09433594 -16.3359375 43.09765625 C-17.37282715 43.10289307 -18.4097168 43.10812988 -19.47802734 43.11352539 C-22 43 -22 43 -24 42 C-24 41.01 -24 40.02 -24 39 C-25.485 38.505 -25.485 38.505 -27 38 C-26.34 37.67 -25.68 37.34 -25 37 C-24.34227572 33.97065509 -24.34227572 33.97065509 -24 31 C-20.7 30.67 -17.4 30.34 -14 30 C-14.495 29.01 -14.495 29.01 -15 28 C-13.60974609 27.80083984 -13.60974609 27.80083984 -12.19140625 27.59765625 C-10.99386719 27.42105469 -9.79632813 27.24445313 -8.5625 27.0625 C-7.36753906 26.88847656 -6.17257813 26.71445313 -4.94140625 26.53515625 C-2.12044324 26.31014787 -2.12044324 26.31014787 -1 25 C-0.84213692 23.14825294 -0.74892644 21.2909089 -0.68359375 19.43359375 C-0.64169922 18.30888672 -0.59980469 17.18417969 -0.55664062 16.02539062 C-0.51732422 14.84138672 -0.47800781 13.65738281 -0.4375 12.4375 C-0.37272461 10.65569336 -0.37272461 10.65569336 -0.30664062 8.83789062 C-0.20016454 5.89205216 -0.09815159 2.9461257 0 0 Z M-63 59 C-63.33 60.65 -63.66 62.3 -64 64 C-51.13 63.01 -51.13 63.01 -38 62 C-37.67 61.01 -37.34 60.02 -37 59 C-45.58 59 -54.16 59 -63 59 Z M-13 59 C-13 59.99 -13 60.98 -13 62 C-7.72 62.33 -2.44 62.66 3 63 C3 61.68 3 60.36 3 59 C-2.28 59 -7.56 59 -13 59 Z " fill="#5E4DF1" transform="translate(98,54)"/>
<path d="M0 0 C0.8971875 0.309375 0.8971875 0.309375 1.8125 0.625 C1.8125 1.285 1.8125 1.945 1.8125 2.625 C3.1325 2.625 4.4525 2.625 5.8125 2.625 C5.8125 4.275 5.8125 5.925 5.8125 7.625 C4.843125 7.91375 3.87375 8.2025 2.875 8.5 C-0.29414203 9.26714682 -0.29414203 9.26714682 -1.1875 11.625 C-1.33125422 15.00322416 -1.26286348 17.39890955 -0.1875 20.625 C2.1225 20.955 4.4325 21.285 6.8125 21.625 C6.8125 18.655 6.8125 15.685 6.8125 12.625 C8.7925 12.625 10.7725 12.625 12.8125 12.625 C13.1425 13.285 13.4725 13.945 13.8125 14.625 C22.0625 14.625 30.3125 14.625 38.8125 14.625 C39.1425 13.965 39.4725 13.305 39.8125 12.625 C53.3425 12.625 66.8725 12.625 80.8125 12.625 C80.8125 16.255 80.8125 19.885 80.8125 23.625 C75.5325 23.625 70.2525 23.625 64.8125 23.625 C64.8125 24.615 64.8125 25.605 64.8125 26.625 C65.38097656 26.61339844 65.94945313 26.60179688 66.53515625 26.58984375 C71.41920484 26.53276806 75.99753965 26.80543228 80.8125 27.625 C80.8125 30.265 80.8125 32.905 80.8125 35.625 C73.52659984 35.67182155 66.24073335 35.70711748 58.95471191 35.72862434 C55.56968789 35.73895864 52.18476851 35.75292229 48.79980469 35.77587891 C10.3750541 36.01727608 10.3750541 36.01727608 2.8125 31.625 C4.06791557 29.11416886 5.31313488 28.75374554 7.8125 27.625 C5.8325 27.295 3.8525 26.965 1.8125 26.625 C1.4825 27.615 1.1525 28.605 0.8125 29.625 C-1.54714273 29.21816505 -3.04684088 28.72685661 -5 27.3125 C-5.391875 26.755625 -5.78375 26.19875 -6.1875 25.625 C-5.8125 23.625 -5.8125 23.625 -5.1875 21.625 C-5.5175 20.635 -5.8475 19.645 -6.1875 18.625 C-7.8375 18.625 -9.4875 18.625 -11.1875 18.625 C-11.1875 15.985 -11.1875 13.345 -11.1875 10.625 C-9.5375 10.625 -7.8875 10.625 -6.1875 10.625 C-5.48675156 7.471632 -5.1875 4.89775026 -5.1875 1.625 C-2.1875 -0.375 -2.1875 -0.375 0 0 Z M14.8125 23.625 C14.4825 25.275 14.1525 26.925 13.8125 28.625 C26.6825 27.635 26.6825 27.635 39.8125 26.625 C40.1425 25.635 40.4725 24.645 40.8125 23.625 C32.2325 23.625 23.6525 23.625 14.8125 23.625 Z " fill="#B0CEFE" transform="translate(20.1875,89.375)"/>
<path d="M0 0 C16.83 0 33.66 0 51 0 C51 10.23 51 20.46 51 31 C34.17 31 17.34 31 0 31 C0 20.77 0 10.54 0 0 Z " fill="#474E94" transform="translate(44,47)"/>
<path d="M0 0 C2.64 0.33 5.28 0.66 8 1 C9.125 5.75 9.125 5.75 8 8 C11.63423209 10.32590854 14.77088331 10.16265833 19 10 C19.495 12.475 19.495 12.475 20 15 C21.28197266 14.98259766 21.28197266 14.98259766 22.58984375 14.96484375 C23.69457031 14.95582031 24.79929688 14.94679688 25.9375 14.9375 C27.03964844 14.92589844 28.14179688 14.91429687 29.27734375 14.90234375 C32 15 32 15 33 16 C33.15806531 17.92478813 33.251135 19.8549921 33.31640625 21.78515625 C33.35830078 22.95498047 33.40019531 24.12480469 33.44335938 25.33007812 C33.48267578 26.56177734 33.52199219 27.79347656 33.5625 29.0625 C33.60568359 30.29806641 33.64886719 31.53363281 33.69335938 32.80664062 C33.79984198 35.87097335 33.90185424 38.93539073 34 42 C35.65 42 37.3 42 39 42 C40.60339848 45.11771927 41.18974141 46.39011689 40.125 49.8125 C39.75375 50.534375 39.3825 51.25625 39 52 C39.66 52.33 40.32 52.66 41 53 C40.34 54.65 39.68 56.3 39 58 C36.69 58 34.38 58 32 58 C32 58.99 32 59.98 32 61 C30.35 61 28.7 61 27 61 C26.6596875 60.0409375 26.6596875 60.0409375 26.3125 59.0625 C25.14749104 56.72806339 25.14749104 56.72806339 22.375 56.25 C21.59125 56.1675 20.8075 56.085 20 56 C19.505 54.02 19.505 54.02 19 52 C19.66 52 20.32 52 21 52 C20.22520264 49.00847418 20.22520264 49.00847418 19 46 C18.01 45.67 17.02 45.34 16 45 C16.06510417 43.01432292 16.13020833 41.02864583 16.1953125 39.04296875 C16.13254462 36.68640281 16.13254462 36.68640281 14 34 C14 33.34 14 32.68 14 32 C7.07 31.67 0.14 31.34 -7 31 C-7 30.34 -7 29.68 -7 29 C-14.26 29 -21.52 29 -29 29 C-29 28.34 -29 27.68 -29 27 C-25.7 27 -22.4 27 -19 27 C-19.33 25.68 -19.66 24.36 -20 23 C-19.175 22.62875 -18.35 22.2575 -17.5 21.875 C-14.68073782 20.21816103 -14.68073782 20.21816103 -14.5625 17.0625 C-14.96779191 14.22545666 -15.51218383 12.41770128 -17 10 C-15.35 8.02 -13.7 6.04 -12 4 C-11.2265625 4.495 -11.2265625 4.495 -10.4375 5 C-7.21973488 6.32010877 -4.4429472 6.13242105 -1 6 C-0.67 4.02 -0.34 2.04 0 0 Z M-6 14 C-8.2084626 17.31269391 -8.80664241 19.14978851 -8.5546875 23.0625 C-7.4812192 26.81207941 -5.28696911 28.01541488 -2 30 C0.63836977 30.1672392 0.63836977 30.1672392 3 30 C3.03738281 29.01257813 3.07476562 28.02515625 3.11328125 27.0078125 C3.17902344 25.72648437 3.24476562 24.44515625 3.3125 23.125 C3.37050781 21.84882812 3.42851563 20.57265625 3.48828125 19.2578125 C3.65714844 18.18273437 3.82601562 17.10765625 4 16 C4.99 15.34 5.98 14.68 7 14 C5.01607489 11.60148679 5.01607489 11.60148679 1.1875 11.5625 C-2.17733329 11.66669338 -3.04370031 12.02913354 -6 14 Z M25 47 C24.6366844 49.83386167 24.6431329 51.40522151 26.125 53.875 C28.92151052 55.55290631 30.93690532 54.74875648 34 54 C34.67673447 50.59679066 34.67673447 50.59679066 35 47 C33.11499729 44.68436913 33.11499729 44.68436913 30 44.75 C26.88500271 44.68436913 26.88500271 44.68436913 25 47 Z " fill="#49D7D4" transform="translate(102,18)"/>
<path d="M0 0 C0.99 0 1.98 0 3 0 C3 9.57 3 19.14 3 29 C19.83 29 36.66 29 54 29 C54 19.43 54 9.86 54 0 C57.42375 -0.061875 60.8475 -0.12375 64.375 -0.1875 C65.45313965 -0.21481201 66.5312793 -0.24212402 67.64208984 -0.27026367 C68.91366943 -0.28150269 68.91366943 -0.28150269 70.2109375 -0.29296875 C71.51490479 -0.31653442 71.51490479 -0.31653442 72.84521484 -0.34057617 C73.55629395 -0.22818604 74.26737305 -0.1157959 75 0 C77 3 77 3 77 5 C77.495 5.495 77.495 5.495 78 6 C78.08767112 8.07262076 78.10695873 10.14820294 78.09765625 12.22265625 C78.09282227 14.11274414 78.09282227 14.11274414 78.08789062 16.04101562 C78.07953403 17.38151109 78.07106907 18.72200588 78.0625 20.0625 C78.0574866 21.40689942 78.05292342 22.7513006 78.04882812 24.09570312 C78.03699488 27.39717941 78.02050971 30.69856803 78 34 C79.7015625 33.9690625 79.7015625 33.9690625 81.4375 33.9375 C85 34 85 34 86 35 C86.07205511 36.68608966 86.08386068 38.37500659 86.0625 40.0625 C86.05347656 40.98160156 86.04445313 41.90070313 86.03515625 42.84765625 C86.02355469 43.55792969 86.01195313 44.26820312 86 45 C82.29583874 47.37590142 79.07015427 47.20500286 74.75 47.125 C72.85507813 47.09792969 72.85507813 47.09792969 70.921875 47.0703125 C69.47554687 47.03550781 69.47554687 47.03550781 68 47 C67.67 46.34 67.34 45.68 67 45 C68.65 43.35 70.3 41.7 72 40 C70.02 39.505 70.02 39.505 68 39 C67.67 39.99 67.34 40.98 67 42 C66.01 42 65.02 42 64 42 C64 43.32 64 44.64 64 46 C63.01 46.33 62.02 46.66 61 47 C60.80533668 45.20909747 60.61948787 43.41723495 60.4375 41.625 C60.28087891 40.12839844 60.28087891 40.12839844 60.12109375 38.6015625 C60 36 60 36 61 34 C65.29 34 69.58 34 74 34 C74 27.4 74 20.8 74 14 C70.7 14 67.4 14 64 14 C64 11.03 64 8.06 64 5 C61.69 5 59.38 5 57 5 C57.01571045 6.12027588 57.01571045 6.12027588 57.03173828 7.26318359 C57.0732077 10.63375508 57.09929729 14.004273 57.125 17.375 C57.14175781 18.550625 57.15851563 19.72625 57.17578125 20.9375 C57.18544922 22.61972656 57.18544922 22.61972656 57.1953125 24.3359375 C57.21102295 25.89127197 57.21102295 25.89127197 57.22705078 27.47802734 C57 30 57 30 55 32 C52.76086426 32.25396729 52.76086426 32.25396729 49.93945312 32.25878906 C48.35771301 32.26824554 48.35771301 32.26824554 46.74401855 32.27789307 C45.60130493 32.2738446 44.45859131 32.26979614 43.28125 32.265625 C41.52802429 32.26849518 41.52802429 32.26849518 39.73937988 32.27142334 C37.26456487 32.27278626 34.78974274 32.26908241 32.31494141 32.26074219 C28.51578795 32.25004446 24.71710741 32.26063418 20.91796875 32.2734375 C18.51822812 32.27211592 16.11848778 32.26955357 13.71875 32.265625 C12.00467957 32.27169769 12.00467957 32.27169769 10.25598145 32.27789307 C9.20148804 32.27158875 8.14699463 32.26528442 7.06054688 32.25878906 C6.1294812 32.25719788 5.19841553 32.25560669 4.23913574 32.25396729 C2 32 2 32 0 30 C-0.22705078 27.01904297 -0.22705078 27.01904297 -0.1953125 23.2421875 C-0.1924826 22.57913605 -0.18965271 21.91608459 -0.18673706 21.23294067 C-0.17553435 19.11344417 -0.15043051 16.99436896 -0.125 14.875 C-0.11497028 13.43880818 -0.10584441 12.00260975 -0.09765625 10.56640625 C-0.075595 7.04413372 -0.04106494 3.52210797 0 0 Z " fill="#38CCCF" transform="translate(41,49)"/>
<path d="M0 0 C2.31 0 4.62 0 7 0 C7 2.97 7 5.94 7 9 C10.3 9 13.6 9 17 9 C17 15.6 17 22.2 17 29 C12.71 29 8.42 29 4 29 C3.67 33.62 3.34 38.24 3 43 C-1.12504298 43.02686352 -5.24991269 43.04677254 -9.375 43.0625 C-11.1384375 43.07506836 -11.1384375 43.07506836 -12.9375 43.08789062 C-14.05898437 43.09111328 -15.18046875 43.09433594 -16.3359375 43.09765625 C-17.89127197 43.10551147 -17.89127197 43.10551147 -19.47802734 43.11352539 C-22 43 -22 43 -24 42 C-24 41.01 -24 40.02 -24 39 C-24.99 38.67 -25.98 38.34 -27 38 C-26.01 37.505 -26.01 37.505 -25 37 C-24.34227572 33.97065509 -24.34227572 33.97065509 -24 31 C-20.7 30.67 -17.4 30.34 -14 30 C-14.33 29.34 -14.66 28.68 -15 28 C-13.60974609 27.80083984 -13.60974609 27.80083984 -12.19140625 27.59765625 C-10.99386719 27.42105469 -9.79632813 27.24445313 -8.5625 27.0625 C-7.36753906 26.88847656 -6.17257813 26.71445313 -4.94140625 26.53515625 C-2.12044324 26.31014787 -2.12044324 26.31014787 -1 25 C-0.84213692 23.14825294 -0.74892644 21.2909089 -0.68359375 19.43359375 C-0.64169922 18.30888672 -0.59980469 17.18417969 -0.55664062 16.02539062 C-0.51732422 14.84138672 -0.47800781 13.65738281 -0.4375 12.4375 C-0.39431641 11.24962891 -0.35113281 10.06175781 -0.30664062 8.83789062 C-0.20016454 5.89205216 -0.09815159 2.9461257 0 0 Z " fill="#7286FD" transform="translate(98,54)"/>
<path d="M0 0 C0.8971875 0.309375 0.8971875 0.309375 1.8125 0.625 C1.8125 1.285 1.8125 1.945 1.8125 2.625 C3.1325 2.625 4.4525 2.625 5.8125 2.625 C5.8125 4.275 5.8125 5.925 5.8125 7.625 C4.843125 7.91375 3.87375 8.2025 2.875 8.5 C-0.29414203 9.26714682 -0.29414203 9.26714682 -1.1875 11.625 C-1.33125422 15.00322416 -1.26286348 17.39890955 -0.1875 20.625 C0.946875 20.769375 2.08125 20.91375 3.25 21.0625 C6.8125 21.625 6.8125 21.625 7.8125 22.625 C10.14067964 22.99260731 12.4743385 23.32741581 14.8125 23.625 C15.1425 24.945 15.4725 26.265 15.8125 27.625 C23.7325 27.295 31.6525 26.965 39.8125 26.625 C39.4825 27.285 39.1525 27.945 38.8125 28.625 C36.16389573 29.21855614 33.52052678 29.36709269 30.8125 29.625 C30.8125 30.285 30.8125 30.945 30.8125 31.625 C45.0025 31.625 59.1925 31.625 73.8125 31.625 C73.3175 30.635 73.3175 30.635 72.8125 29.625 C71.6575 29.46 70.5025 29.295 69.3125 29.125 C68.1575 28.96 67.0025 28.795 65.8125 28.625 C65.3175 27.635 65.3175 27.635 64.8125 26.625 C70.27019811 26.51361841 75.42759359 26.70842019 80.8125 27.625 C80.8125 30.265 80.8125 32.905 80.8125 35.625 C73.52659984 35.67182155 66.24073335 35.70711748 58.95471191 35.72862434 C55.56968789 35.73895864 52.18476851 35.75292229 48.79980469 35.77587891 C10.3750541 36.01727608 10.3750541 36.01727608 2.8125 31.625 C4.06791557 29.11416886 5.31313488 28.75374554 7.8125 27.625 C5.8325 27.295 3.8525 26.965 1.8125 26.625 C1.4825 27.615 1.1525 28.605 0.8125 29.625 C-1.54714273 29.21816505 -3.04684088 28.72685661 -5 27.3125 C-5.391875 26.755625 -5.78375 26.19875 -6.1875 25.625 C-5.8125 23.625 -5.8125 23.625 -5.1875 21.625 C-5.5175 20.635 -5.8475 19.645 -6.1875 18.625 C-7.8375 18.625 -9.4875 18.625 -11.1875 18.625 C-11.1875 15.985 -11.1875 13.345 -11.1875 10.625 C-9.5375 10.625 -7.8875 10.625 -6.1875 10.625 C-5.48675156 7.471632 -5.1875 4.89775026 -5.1875 1.625 C-2.1875 -0.375 -2.1875 -0.375 0 0 Z " fill="#EAEBF2" transform="translate(20.1875,89.375)"/>
<path d="M0 0 C1.37091797 0.0009668 1.37091797 0.0009668 2.76953125 0.00195312 C9.48435163 0.04685163 9.48435163 0.04685163 10.625 1.1875 C13.43476518 1.34767166 16.22273596 1.44700534 19.03515625 1.50390625 C19.87719101 1.52468735 20.71922577 1.54546844 21.58677673 1.56687927 C24.28693179 1.63246812 26.98718717 1.69130276 29.6875 1.75 C31.51368241 1.79317637 33.33985454 1.83679036 35.16601562 1.88085938 C39.65223992 1.98815894 44.1385655 2.08939966 48.625 2.1875 C48.625 2.5175 48.625 2.8475 48.625 3.1875 C35.755 3.1875 22.885 3.1875 9.625 3.1875 C9.955 4.5075 10.285 5.8275 10.625 7.1875 C23.165 7.5175 35.705 7.8475 48.625 8.1875 C48.625 8.5175 48.625 8.8475 48.625 9.1875 C35.755 9.1875 22.885 9.1875 9.625 9.1875 C9.955 10.5075 10.285 11.8275 10.625 13.1875 C23.165 13.1875 35.705 13.1875 48.625 13.1875 C48.625 13.8475 48.625 14.5075 48.625 15.1875 C39.055 15.1875 29.485 15.1875 19.625 15.1875 C19.625 15.8475 19.625 16.5075 19.625 17.1875 C18.635 17.1875 17.645 17.1875 16.625 17.1875 C16.625 16.5275 16.625 15.8675 16.625 15.1875 C14.315 15.1875 12.005 15.1875 9.625 15.1875 C9.625 17.1675 9.625 19.1475 9.625 21.1875 C0.715 21.1875 -8.195 21.1875 -17.375 21.1875 C-17.375 20.8575 -17.375 20.5275 -17.375 20.1875 C-15.725 19.8575 -14.075 19.5275 -12.375 19.1875 C-12.045 17.8675 -11.715 16.5475 -11.375 15.1875 C-13.355 15.1875 -15.335 15.1875 -17.375 15.1875 C-17.375 14.8575 -17.375 14.5275 -17.375 14.1875 C-15.725 13.8575 -14.075 13.5275 -12.375 13.1875 C-12.045 11.8675 -11.715 10.5475 -11.375 9.1875 C-13.355 9.1875 -15.335 9.1875 -17.375 9.1875 C-17.375 8.8575 -17.375 8.5275 -17.375 8.1875 C-15.725 7.8575 -14.075 7.5275 -12.375 7.1875 C-12.045 5.8675 -11.715 4.5475 -11.375 3.1875 C-13.355 3.1875 -15.335 3.1875 -17.375 3.1875 C-17.375 2.8575 -17.375 2.5275 -17.375 2.1875 C-11.48560037 0.14637931 -6.2030285 -0.08528042 0 0 Z " fill="#92E1E0" transform="translate(24.375,31.8125)"/>
<path d="M0 0 C1.81242052 -0.02687279 3.62495233 -0.04633715 5.4375 -0.0625 C6.44683594 -0.07410156 7.45617187 -0.08570313 8.49609375 -0.09765625 C11 0 11 0 12 1 C12.15806531 2.92478813 12.251135 4.8549921 12.31640625 6.78515625 C12.35830078 7.95498047 12.40019531 9.12480469 12.44335938 10.33007812 C12.48267578 11.56177734 12.52199219 12.79347656 12.5625 14.0625 C12.60568359 15.29806641 12.64886719 16.53363281 12.69335938 17.80664062 C12.79984198 20.87097335 12.90185424 23.93539073 13 27 C14.65 27 16.3 27 18 27 C19.60339848 30.11771927 20.18974141 31.39011689 19.125 34.8125 C18.75375 35.534375 18.3825 36.25625 18 37 C18.66 37.33 19.32 37.66 20 38 C19.01 40.475 19.01 40.475 18 43 C15.69 43 13.38 43 11 43 C11 43.99 11 44.98 11 46 C9.35 46 7.7 46 6 46 C5.6596875 45.0409375 5.6596875 45.0409375 5.3125 44.0625 C4.14749104 41.72806339 4.14749104 41.72806339 1.375 41.25 C0.59125 41.1675 -0.1925 41.085 -1 41 C-1.33 39.68 -1.66 38.36 -2 37 C-1.34 37 -0.68 37 0 37 C-0.77479736 34.00847418 -0.77479736 34.00847418 -2 31 C-2.99 30.67 -3.98 30.34 -5 30 C-4.50769231 23.47692308 -4.50769231 23.47692308 -1.9375 21.0625 C-1.298125 20.711875 -0.65875 20.36125 0 20 C-0.33 19.67 -0.66 19.34 -1 19 C-1 17.35 -1 15.7 -1 14 C2.3 14 5.6 14 9 14 C7.30550524 10.83700698 7.30550524 10.83700698 4.4375 10 C3.633125 9.67 2.82875 9.34 2 9 C1.67 8.01 1.34 7.02 1 6 C0.01 5.67 -0.98 5.34 -2 5 C-1.34 4.67 -0.68 4.34 0 4 C0 2.68 0 1.36 0 0 Z M4 32 C3.6366844 34.83386167 3.6431329 36.40522151 5.125 38.875 C7.92151052 40.55290631 9.93690532 39.74875648 13 39 C13.67673447 35.59679066 13.67673447 35.59679066 14 32 C12.11499729 29.68436913 12.11499729 29.68436913 9 29.75 C5.88500271 29.68436913 5.88500271 29.68436913 4 32 Z " fill="#37D5D1" transform="translate(123,33)"/>
<path d="M0 0 C1.12019531 -0.00128906 2.24039063 -0.00257812 3.39453125 -0.00390625 C4.57402344 -0.00003906 5.75351562 0.00382812 6.96875 0.0078125 C8.73798828 0.00201172 8.73798828 0.00201172 10.54296875 -0.00390625 C12.22326172 -0.00197266 12.22326172 -0.00197266 13.9375 0 C14.97326172 0.00112793 16.00902344 0.00225586 17.07617188 0.00341797 C19.46875 0.1328125 19.46875 0.1328125 20.46875 1.1328125 C20.56861975 3.97616298 20.60752881 6.78978413 20.59375 9.6328125 C20.59955078 10.82970703 20.59955078 10.82970703 20.60546875 12.05078125 C20.59535767 18.00620483 20.59535767 18.00620483 19.46875 19.1328125 C17.62715977 19.23240871 15.78178033 19.26361661 13.9375 19.265625 C12.81730469 19.26691406 11.69710937 19.26820312 10.54296875 19.26953125 C9.36347656 19.26566406 8.18398438 19.26179688 6.96875 19.2578125 C5.19951172 19.26361328 5.19951172 19.26361328 3.39453125 19.26953125 C1.71423828 19.26759766 1.71423828 19.26759766 0 19.265625 C-1.03576172 19.26449707 -2.07152344 19.26336914 -3.13867188 19.26220703 C-5.53125 19.1328125 -5.53125 19.1328125 -6.53125 18.1328125 C-6.63111975 15.28946202 -6.67002881 12.47584087 -6.65625 9.6328125 C-6.66011719 8.83488281 -6.66398437 8.03695312 -6.66796875 7.21484375 C-6.65573175 0.007248 -6.65573175 0.007248 0 0 Z " fill="#35D5C5" transform="translate(39.53125,85.8671875)"/>
<path d="M0 0 C3.0000624 -0.02721831 5.99987256 -0.04694378 9 -0.0625 C9.83917969 -0.07087891 10.67835937 -0.07925781 11.54296875 -0.08789062 C12.79013672 -0.09272461 12.79013672 -0.09272461 14.0625 -0.09765625 C15.19365234 -0.10551147 15.19365234 -0.10551147 16.34765625 -0.11352539 C19.91451913 0.03914317 23.45744034 0.55718004 27 1 C27 7.93 27 14.86 27 22 C20.07 22 13.14 22 6 22 C6 21.01 6 20.02 6 19 C4.02 19 2.04 19 0 19 C0 18.34 0 17.68 0 17 C1.98 17 3.96 17 6 17 C6 15.68 6 14.36 6 13 C4.02 13 2.04 13 0 13 C0 12.34 0 11.68 0 11 C1.98 11 3.96 11 6 11 C6 9.68 6 8.36 6 7 C4.02 7 2.04 7 0 7 C0 6.34 0 5.68 0 5 C1.98 5 3.96 5 6 5 C6 4.01 6 3.02 6 2 C3.03 1.505 3.03 1.505 0 1 C0 0.67 0 0.34 0 0 Z " fill="#86DAE4" transform="translate(7,58)"/>
<path d="M0 0 C0.82741699 0.01047363 1.65483398 0.02094727 2.50732422 0.03173828 C3.40322266 0.03818359 4.29912109 0.04462891 5.22216797 0.05126953 C6.62789062 0.07640625 6.62789062 0.07640625 8.06201172 0.10205078 C9.47933594 0.11558594 9.47933594 0.11558594 10.92529297 0.12939453 C13.26278464 0.15300556 15.59977295 0.18593562 17.93701172 0.22705078 C17.27701172 0.88705078 16.61701172 1.54705078 15.93701172 2.22705078 C16.26701172 2.88705078 16.59701172 3.54705078 16.93701172 4.22705078 C13.30701172 4.22705078 9.67701172 4.22705078 5.93701172 4.22705078 C5.93701172 6.53705078 5.93701172 8.84705078 5.93701172 11.22705078 C5.27701172 11.22705078 4.61701172 11.22705078 3.93701172 11.22705078 C4.59701172 11.68080078 5.25701172 12.13455078 5.93701172 12.60205078 C6.59701172 13.13830078 7.25701172 13.67455078 7.93701172 14.22705078 C7.93701172 14.88705078 7.93701172 15.54705078 7.93701172 16.22705078 C16.18701172 16.22705078 24.43701172 16.22705078 32.93701172 16.22705078 C32.93701172 17.87705078 32.93701172 19.52705078 32.93701172 21.22705078 C19.40701172 21.22705078 5.87701172 21.22705078 -8.06298828 21.22705078 C-8.39298828 15.94705078 -8.72298828 10.66705078 -9.06298828 5.22705078 C-7.41298828 4.23705078 -5.76298828 3.24705078 -4.06298828 2.22705078 C-2.06298828 0.22705078 -2.06298828 0.22705078 0 0 Z " fill="#6B71FE" transform="translate(68.06298828125,80.77294921875)"/>
<path d="M0 0 C2.64 0.33 5.28 0.66 8 1 C9.125 5.75 9.125 5.75 8 8 C11.63423209 10.32590854 14.77088331 10.16265833 19 10 C19.495 12.475 19.495 12.475 20 15 C17.87527424 15.05386629 15.75016348 15.09273071 13.625 15.125 C11.84996094 15.15980469 11.84996094 15.15980469 10.0390625 15.1953125 C7 15 7 15 5 13 C-0.54235245 12.42765564 -0.54235245 12.42765564 -5.5 14.5 C-7.71177972 18.18629954 -7.34421275 20.73176192 -7 25 C-6.67 25.66 -6.34 26.32 -6 27 C-10.29 27 -14.58 27 -19 27 C-19.33 25.68 -19.66 24.36 -20 23 C-19.175 22.62875 -18.35 22.2575 -17.5 21.875 C-14.68073782 20.21816103 -14.68073782 20.21816103 -14.5625 17.0625 C-14.96779191 14.22545666 -15.51218383 12.41770128 -17 10 C-15.35 8.02 -13.7 6.04 -12 4 C-11.2265625 4.495 -11.2265625 4.495 -10.4375 5 C-7.21973488 6.32010877 -4.4429472 6.13242105 -1 6 C-0.67 4.02 -0.34 2.04 0 0 Z " fill="#E8EAF1" transform="translate(102,18)"/>
<path d="M0 0 C1.32 0 2.64 0 4 0 C4 6.6 4 13.2 4 20 C6.31 20 8.62 20 11 20 C12 21 12 21 12.09765625 23.28515625 C12.08605469 24.20167969 12.07445313 25.11820313 12.0625 26.0625 C12.05347656 26.98160156 12.04445313 27.90070313 12.03515625 28.84765625 C12.02355469 29.55792969 12.01195313 30.26820312 12 31 C8.29583874 33.37590142 5.07015427 33.20500286 0.75 33.125 C-1.14492187 33.09792969 -1.14492187 33.09792969 -3.078125 33.0703125 C-4.52445313 33.03550781 -4.52445313 33.03550781 -6 33 C-6.33 32.34 -6.66 31.68 -7 31 C-5.35 29.35 -3.7 27.7 -2 26 C-3.32 25.67 -4.64 25.34 -6 25 C-6.33 25.99 -6.66 26.98 -7 28 C-7.99 28 -8.98 28 -10 28 C-10 29.32 -10 30.64 -10 32 C-11.485 32.495 -11.485 32.495 -13 33 C-13.19466332 31.20909747 -13.38051213 29.41723495 -13.5625 27.625 C-13.66691406 26.62726563 -13.77132812 25.62953125 -13.87890625 24.6015625 C-14 22 -14 22 -13 20 C-8.71 20 -4.42 20 0 20 C0 13.4 0 6.8 0 0 Z " fill="#5E4DFA" transform="translate(115,63)"/>
<path d="M0 0 C0.66 0.33 1.32 0.66 2 1 C2 10.9 2 20.8 2 31 C-6.25 31 -14.5 31 -23 31 C-23.125 18.25 -23.125 18.25 -22 16 C-21.34 16 -20.68 16 -20 16 C-19.67 17.32 -19.34 18.64 -19 20 C-13.72 20 -8.44 20 -3 20 C-2.95101562 18.72382812 -2.90203125 17.44765625 -2.8515625 16.1328125 C-2.77653809 14.46351928 -2.70099012 12.79424954 -2.625 11.125 C-2.57859375 9.86236328 -2.57859375 9.86236328 -2.53125 8.57421875 C-2.49257812 7.76855469 -2.45390625 6.96289062 -2.4140625 6.1328125 C-2.3826416 5.38918457 -2.3512207 4.64555664 -2.31884766 3.87939453 C-2 2 -2 2 0 0 Z " fill="#7389FE" transform="translate(125,93)"/>
<path d="M0 0 C1.58206057 0.00667536 3.16410534 0.0186375 4.74609375 0.03515625 C5.55240234 0.03966797 6.35871094 0.04417969 7.18945312 0.04882812 C9.18753131 0.06065107 11.18557158 0.07858711 13.18359375 0.09765625 C13.21043687 2.91021906 13.23035563 5.72252866 13.24609375 8.53515625 C13.25447266 9.33759766 13.26285156 10.14003906 13.27148438 10.96679688 C13.28010805 13.01060846 13.23587525 15.05449527 13.18359375 17.09765625 C11.36243372 18.91881628 8.87687611 18.23000705 6.45703125 18.234375 C5.70679687 18.23050781 4.9565625 18.22664063 4.18359375 18.22265625 C3.05824219 18.22845703 3.05824219 18.22845703 1.91015625 18.234375 C-3.68979572 18.22426678 -3.68979572 18.22426678 -4.81640625 17.09765625 C-4.91621839 14.42034245 -4.955205 11.7746145 -4.94140625 9.09765625 C-4.94527344 8.34742187 -4.94914062 7.5971875 -4.953125 6.82421875 C-4.94103514 0.12643386 -4.94103514 0.12643386 0 0 Z " fill="#3DD0E3" transform="translate(109.81640625,95.90234375)"/>
<path d="M0 0 C5.61 0 11.22 0 17 0 C17 5.61 17 11.22 17 17 C11.39 17 5.78 17 0 17 C0 11.39 0 5.78 0 0 Z " fill="#3E4E9A" transform="translate(15,34)"/>
<path d="M0 0 C1.16885742 0.07831055 1.16885742 0.07831055 2.36132812 0.15820312 C4.26216772 0.28648064 6.16240904 0.42357321 8.0625 0.5625 C8.0625 2.8725 8.0625 5.1825 8.0625 7.5625 C5.7525 7.8925 3.4425 8.2225 1.0625 8.5625 C1.0625 9.8825 1.0625 11.2025 1.0625 12.5625 C-1.39590605 12.58941685 -3.85401882 12.60929802 -6.3125 12.625 C-7.01117188 12.63337891 -7.70984375 12.64175781 -8.4296875 12.65039062 C-13.7109375 12.67578125 -13.7109375 12.67578125 -15.9375 11.5625 C-15.9375 10.5725 -15.9375 9.5825 -15.9375 8.5625 C-16.9275 8.2325 -17.9175 7.9025 -18.9375 7.5625 C-18.2775 7.2325 -17.6175 6.9025 -16.9375 6.5625 C-16.27977572 3.53315509 -16.27977572 3.53315509 -15.9375 0.5625 C-10.48474114 -0.41508625 -5.51233237 -0.41094509 0 0 Z " fill="#7486FE" transform="translate(89.9375,84.4375)"/>
<path d="M0 0 C2.31 0 4.62 0 7 0 C7.02898816 3.93748458 7.04679464 7.87494179 7.0625 11.8125 C7.07087891 12.93205078 7.07925781 14.05160156 7.08789062 15.20507812 C7.09111328 16.27822266 7.09433594 17.35136719 7.09765625 18.45703125 C7.10289307 19.44678955 7.10812988 20.43654785 7.11352539 21.45629883 C6.90752939 26.07193821 5.26470828 27.94591806 2 31 C0.41596476 29.41596476 0.78025065 27.7228362 0.68359375 25.52734375 C0.64169922 24.62822266 0.59980469 23.72910156 0.55664062 22.80273438 C0.51732422 21.85720703 0.47800781 20.91167969 0.4375 19.9375 C0.39431641 18.98810547 0.35113281 18.03871094 0.30664062 17.06054688 C0.20020724 14.70718647 0.09818992 12.35371646 0 10 C-2.64 10 -5.28 10 -8 10 C-8 8.02 -8 6.04 -8 4 C-5.36 4 -2.72 4 0 4 C0 2.68 0 1.36 0 0 Z " fill="#5A38FF" transform="translate(34,49)"/>
<path d="M0 0 C2.95887459 -0.08069658 5.9155659 -0.14034665 8.875 -0.1875 C9.71675781 -0.21263672 10.55851562 -0.23777344 11.42578125 -0.26367188 C12.23144531 -0.27333984 13.03710938 -0.28300781 13.8671875 -0.29296875 C14.98262939 -0.31653442 14.98262939 -0.31653442 16.12060547 -0.34057617 C17.05090576 -0.17199097 17.05090576 -0.17199097 18 0 C20 3 20 3 20 5 C20.33 5.33 20.66 5.66 21 6 C21.23529412 11.52941176 21.23529412 11.52941176 20 14 C15.71 14 11.42 14 7 14 C7 11.03 7 8.06 7 5 C4.69 5 2.38 5 0 5 C0 3.35 0 1.7 0 0 Z " fill="#39C6D7" transform="translate(98,49)"/>
<path d="M0 0 C13.53 0 27.06 0 41 0 C41 1.65 41 3.3 41 5 C27.47 5 13.94 5 0 5 C0 3.35 0 1.7 0 0 Z " fill="#3C3D89" transform="translate(60,97)"/>
<path d="M0 0 C1.98 0 3.96 0 6 0 C7.60339848 3.11771927 8.18974141 4.39011689 7.125 7.8125 C6.75375 8.534375 6.3825 9.25625 6 10 C6.66 10.33 7.32 10.66 8 11 C7.34 12.65 6.68 14.3 6 16 C3.69 16 1.38 16 -1 16 C-1 16.99 -1 17.98 -1 19 C-2.65 19 -4.3 19 -6 19 C-6.226875 18.360625 -6.45375 17.72125 -6.6875 17.0625 C-7.85250896 14.72806339 -7.85250896 14.72806339 -10.625 14.25 C-11.40875 14.1675 -12.1925 14.085 -13 14 C-13.33 12.68 -13.66 11.36 -14 10 C-13.34 10 -12.68 10 -12 10 C-12.66 7.69 -13.32 5.38 -14 3 C-11.36 3 -8.72 3 -6 3 C-6.20625 4.11375 -6.4125 5.2275 -6.625 6.375 C-6.74875 7.57125 -6.8725 8.7675 -7 10 C-5.10244856 12.34973818 -5.10244856 12.34973818 -1.875 12.125 C-0.451875 12.063125 -0.451875 12.063125 1 12 C1.29562367 6.67829506 1.29562367 6.67829506 -1 2 C-0.67 1.34 -0.34 0.68 0 0 Z " fill="#EAEBF2" transform="translate(135,60)"/>
<path d="M0 0 C1.98 0 3.96 0 6 0 C6.33 0.66 6.66 1.32 7 2 C10.20883395 2.43232147 10.20883395 2.43232147 13.9375 2.5625 C20.81016949 2.90508475 20.81016949 2.90508475 23 4 C22.125 9.875 22.125 9.875 21 11 C19.52347336 11.09880797 18.04232764 11.13079245 16.5625 11.1328125 C15.22058594 11.13474609 15.22058594 11.13474609 13.8515625 11.13671875 C12.91054688 11.13285156 11.96953125 11.12898438 11 11.125 C9.58847656 11.13080078 9.58847656 11.13080078 8.1484375 11.13671875 C7.25382812 11.13542969 6.35921875 11.13414063 5.4375 11.1328125 C4.61121094 11.13168457 3.78492188 11.13055664 2.93359375 11.12939453 C1 11 1 11 0 10 C-0.07205511 8.31391034 -0.08386068 6.62499341 -0.0625 4.9375 C-0.05347656 4.01839844 -0.04445313 3.09929687 -0.03515625 2.15234375 C-0.02355469 1.44207031 -0.01195313 0.73179688 0 0 Z " fill="#C4DBFE" transform="translate(27,102)"/>
<path d="M0 0 C2.64 0 5.28 0 8 0 C8 6.93 8 13.86 8 21 C1.07 21 -5.86 21 -13 21 C-13 20.01 -13 19.02 -13 18 C-9.04 18 -5.08 18 -1 18 C-0.67 17.01 -0.34 16.02 0 15 C0.99 14.34 1.98 13.68 3 13 C3.2502157 9.91634129 3.2502157 9.91634129 3 7 C2.01 6.67 1.02 6.34 0 6 C0 4.02 0 2.04 0 0 Z " fill="#3DBBDB" transform="translate(26,59)"/>
<path d="M0 0 C3.5 0.1875 3.5 0.1875 7 1 C7.66 1.99 8.32 2.98 9 4 C9.845625 4.33 10.69125 4.66 11.5625 5 C12.7690625 5.495 12.7690625 5.495 14 6 C14.33 6.99 14.66 7.98 15 9 C11.7 9 8.4 9 5 9 C5 10.65 5 12.3 5 14 C5.66 14.33 6.32 14.66 7 15 C6.01 15.99 5.02 16.98 4 18 C0.125 16.25 0.125 16.25 -1 14 C-0.34 14 0.32 14 1 14 C1 12.35 1 10.7 1 9 C-2.3 9 -5.6 9 -9 9 C-8.67 7.68 -8.34 6.36 -8 5 C-5.0625 3.375 -5.0625 3.375 -2 2 C-1.34 1.34 -0.68 0.68 0 0 Z " fill="#F7FCFD" transform="translate(117,38)"/>
<path d="M0 0 C1.32 0 2.64 0 4 0 C4 6.6 4 13.2 4 20 C6.31 20 8.62 20 11 20 C11.33 20.99 11.66 21.98 12 23 C3.19039858 24.30512614 -5.19039858 24.30512614 -14 23 C-13.505 21.515 -13.505 21.515 -13 20 C-8.71 20 -4.42 20 0 20 C0 13.4 0 6.8 0 0 Z " fill="#4C4CA1" transform="translate(115,63)"/>
<path d="M0 0 C1.58206057 0.00667536 3.16410534 0.0186375 4.74609375 0.03515625 C5.55240234 0.03966797 6.35871094 0.04417969 7.18945312 0.04882812 C9.18753131 0.06065107 11.18557158 0.07858711 13.18359375 0.09765625 C10.18359375 2.09765625 10.18359375 2.09765625 7.74609375 3.41015625 C4.88949011 5.29133426 3.18910553 7.34936233 1.18359375 10.09765625 C2.17359375 11.08765625 3.16359375 12.07765625 4.18359375 13.09765625 C4.84359375 12.43765625 5.50359375 11.77765625 6.18359375 11.09765625 C5.85359375 12.74765625 5.52359375 14.39765625 5.18359375 16.09765625 C1.88359375 16.09765625 -1.41640625 16.09765625 -4.81640625 16.09765625 C-4.8432572 13.61841824 -4.86317172 11.13946785 -4.87890625 8.66015625 C-4.89147461 7.59958008 -4.89147461 7.59958008 -4.90429688 6.51757812 C-4.91294213 4.71072066 -4.86860636 2.90378022 -4.81640625 1.09765625 C-3.81640625 0.09765625 -3.81640625 0.09765625 0 0 Z " fill="#43AAE4" transform="translate(37.81640625,85.90234375)"/>
<path d="M0 0 C1.31871094 -0.01224609 2.63742188 -0.02449219 3.99609375 -0.03710938 C5.90068359 -0.04000977 5.90068359 -0.04000977 7.84375 -0.04296875 C9.00068359 -0.04707764 10.15761719 -0.05118652 11.34960938 -0.05541992 C14.47736509 0.18575467 16.680892 0.85423629 19.5 2.1875 C18.5 4.1875 18.5 4.1875 16.84521484 4.80200195 C11.99200924 5.59975457 7.04404055 5.37340312 2.13769531 5.37280273 C0.13863013 5.37498512 -1.86039532 5.39349143 -3.859375 5.41210938 C-5.13039063 5.41404297 -6.40140625 5.41597656 -7.7109375 5.41796875 C-8.86899902 5.42207764 -10.02706055 5.42618652 -11.22021484 5.43041992 C-14.61310954 5.17912245 -17.33332989 4.39923908 -20.5 3.1875 C-20.17 2.5275 -19.84 1.8675 -19.5 1.1875 C-13.23640183 -0.60566158 -6.45139424 0.00315317 0 0 Z " fill="#EAEBF2" transform="translate(114.5,125.8125)"/>
<path d="M0 0 C0.99 0 1.98 0 3 0 C3.02505615 0.87325928 3.0501123 1.74651855 3.07592773 2.64624023 C3.17087709 5.87602552 3.27012029 9.10564154 3.37231445 12.33520508 C3.41571434 13.73489199 3.45738564 15.13463359 3.49731445 16.53442383 C3.55489445 18.54261495 3.61914 20.55061149 3.68359375 22.55859375 C3.72025146 23.76829834 3.75690918 24.97800293 3.79467773 26.22436523 C3.68938266 28.90705456 3.68938266 28.90705456 5 30 C6.56448383 30.12263388 8.13432772 30.17779522 9.70336914 30.20532227 C11.20481224 30.2352401 11.20481224 30.2352401 12.73658752 30.26576233 C14.36937904 30.29083107 14.36937904 30.29083107 16.03515625 30.31640625 C17.14354355 30.33718735 18.25193085 30.35796844 19.39390564 30.37937927 C22.95003808 30.44499623 26.50624703 30.50381596 30.0625 30.5625 C32.46680493 30.60567368 34.87110199 30.64928758 37.27539062 30.69335938 C43.18351185 30.80068992 49.09170991 30.90243331 55 31 C55 31.33 55 31.66 55 32 C47.48863592 32.05057965 39.97731551 32.08568257 32.46582031 32.10986328 C29.90883747 32.11994038 27.35186621 32.13360226 24.79492188 32.15087891 C21.12627308 32.17505217 17.45777621 32.18646585 13.7890625 32.1953125 C12.0655809 32.21079636 12.0655809 32.21079636 10.30728149 32.22659302 C9.2463327 32.22674408 8.18538391 32.22689514 7.09228516 32.22705078 C6.15518707 32.231492 5.21808899 32.23593323 4.25259399 32.24050903 C2 32 2 32 0 30 C-0.22705078 27.01904297 -0.22705078 27.01904297 -0.1953125 23.2421875 C-0.1924826 22.57913605 -0.18965271 21.91608459 -0.18673706 21.23294067 C-0.17553435 19.11344417 -0.15043051 16.99436896 -0.125 14.875 C-0.11497028 13.43880818 -0.10584441 12.00260975 -0.09765625 10.56640625 C-0.075595 7.04413372 -0.04106494 3.52210797 0 0 Z " fill="#459EE9" transform="translate(41,49)"/>
<path d="M0 0 C0.33 0 0.66 0 1 0 C1.02684679 2.64590014 1.04676357 5.29153096 1.0625 7.9375 C1.07087891 8.69224609 1.07925781 9.44699219 1.08789062 10.22460938 C1.09652441 12.14994313 1.05224333 14.07535581 1 16 C0 17 0 17 -3.59765625 17.09765625 C-5.08596867 17.0909822 -6.57426432 17.07902183 -8.0625 17.0625 C-8.82111328 17.05798828 -9.57972656 17.05347656 -10.36132812 17.04882812 C-12.24091871 17.0370068 -14.12046899 17.01907078 -16 17 C-16 16.34 -16 15.68 -16 15 C-15.01 14.67 -14.02 14.34 -13 14 C-12.67 13.01 -12.34 12.02 -12 11 C-11.21625 10.9175 -10.4325 10.835 -9.625 10.75 C-6.85250896 10.27193661 -6.85250896 10.27193661 -5.6875 7.9375 C-5.460625 7.298125 -5.23375 6.65875 -5 6 C-5.66 5.34 -6.32 4.68 -7 4 C-5.68 4 -4.36 4 -3 4 C-3 3.34 -3 2.68 -3 2 C-2.34 2 -1.68 2 -1 2 C-0.67 1.34 -0.34 0.68 0 0 Z " fill="#35DDC4" transform="translate(134,46)"/>
<path d="M0 0 C0 5.61 0 11.22 0 17 C0.99 17 1.98 17 3 17 C3 18.65 3 20.3 3 22 C0.69 22 -1.62 22 -4 22 C-4 15.73 -4 9.46 -4 3 C-10.27 3 -16.54 3 -23 3 C-23 2.34 -23 1.68 -23 1 C-19.91675903 0.83159521 -16.83339379 0.66558138 -13.75 0.5 C-12.87730469 0.45230469 -12.00460938 0.40460938 -11.10546875 0.35546875 C-10.26113281 0.31035156 -9.41679687 0.26523438 -8.546875 0.21875 C-7.38430176 0.1559082 -7.38430176 0.1559082 -6.19824219 0.09179688 C-4.13373418 0.00558463 -2.0663073 0 0 0 Z " fill="#6E72AA" transform="translate(30,80)"/>
<path d="M0 0 C-0.226875 0.9075 -0.45375 1.815 -0.6875 2.75 C-1.32605545 5.99503501 -1.32605545 5.99503501 0.4375 8.375 C0.953125 8.91125 1.46875 9.4475 2 10 C0.71034824 11.37562854 -0.62689293 12.70766393 -2 14 C-2.66 14 -3.32 14 -4 14 C-4 13.01 -4 12.02 -4 11 C-4.66 11 -5.32 11 -6 11 C-6.33 12.65 -6.66 14.3 -7 16 C-9 16 -9 16 -11.625 13.6875 C-14 11 -14 11 -14 8 C-10.57684203 3.22942879 -6.0544064 0 0 0 Z " fill="#3EB3DE" transform="translate(53,86)"/>
<path d="M0 0 C1.32 0 2.64 0 4 0 C4.66 0.66 5.32 1.32 6 2 C6.66 2.33 7.32 2.66 8 3 C8 5.31 8 7.62 8 10 C7.360625 10.28875 6.72125 10.5775 6.0625 10.875 C3.84793921 11.82823451 3.84793921 11.82823451 3 14 C1.68 14 0.36 14 -1 14 C-1 13.01 -1 12.02 -1 11 C-2.32 10.67 -3.64 10.34 -5 10 C-5 7.69 -5 5.38 -5 3 C-3.35 2.67 -1.7 2.34 0 2 C0 1.34 0 0.68 0 0 Z " fill="#E7F7FA" transform="translate(22,63)"/>
<path d="M0 0 C0.02685938 2.14576637 0.04633088 4.29162645 0.0625 6.4375 C0.07410156 7.63246094 0.08570312 8.82742187 0.09765625 10.05859375 C0 13 0 13 -1 14 C-3.01964199 14.07244053 -5.04167124 14.08377188 -7.0625 14.0625 C-8.71958984 14.04896484 -8.71958984 14.04896484 -10.41015625 14.03515625 C-11.26480469 14.02355469 -12.11945313 14.01195313 -13 14 C-14 12 -14 12 -13.375 10 C-11.60083037 7.41938963 -9.88437402 7.08164026 -7 6 C-6.34 5.01 -5.68 4.02 -5 3 C-1.33333333 0 -1.33333333 0 0 0 Z " fill="#38D7D6" transform="translate(123,100)"/>
<path d="M0 0 C2.31 0 4.62 0 7 0 C7 3.63 7 7.26 7 11 C6.34 11 5.68 11 5 11 C5 11.66 5 12.32 5 13 C3.625 14.5 3.625 14.5 2 16 C1.34 16.66 0.68 17.32 0 18 C0 12.06 0 6.12 0 0 Z " fill="#6B74FD" transform="translate(98,54)"/>
<path d="M0 0 C0.66 0 1.32 0 2 0 C2.33 1.32 2.66 2.64 3 4 C5.31 4.33 7.62 4.66 10 5 C9.67 5.99 9.34 6.98 9 8 C9.33 8.66 9.66 9.32 10 10 C9.01 10 8.02 10 7 10 C7 10.99 7 11.98 7 13 C6.01 13 5.02 13 4 13 C3.67 13.66 3.34 14.32 3 15 C1.68 15 0.36 15 -1 15 C-1.02693575 12.87506859 -1.04636628 10.75004088 -1.0625 8.625 C-1.07410156 7.44164063 -1.08570312 6.25828125 -1.09765625 5.0390625 C-1 2 -1 2 0 0 Z " fill="#6B70FE" transform="translate(103,109)"/>
<path d="M0 0 C2.95887459 -0.08069658 5.9155659 -0.14034665 8.875 -0.1875 C9.71675781 -0.21263672 10.55851562 -0.23777344 11.42578125 -0.26367188 C12.23144531 -0.27333984 13.03710938 -0.28300781 13.8671875 -0.29296875 C14.98262939 -0.31653442 14.98262939 -0.31653442 16.12060547 -0.34057617 C17.05090576 -0.17199097 17.05090576 -0.17199097 18 0 C18.66 0.99 19.32 1.98 20 3 C19.01 3 18.02 3 17 3 C17 3.66 17 4.32 17 5 C11.39 5 5.78 5 0 5 C0 3.35 0 1.7 0 0 Z " fill="#34ADC5" transform="translate(98,49)"/>
<path d="M0 0 C1.93166016 0.01740234 1.93166016 0.01740234 3.90234375 0.03515625 C5.19269531 0.04417969 6.48304687 0.05320312 7.8125 0.0625 C8.81152344 0.07410156 9.81054688 0.08570312 10.83984375 0.09765625 C9.90011719 0.78794922 9.90011719 0.78794922 8.94140625 1.4921875 C6.8353093 3.01718874 6.8353093 3.01718874 5.21484375 4.78515625 C3.83984375 6.09765625 3.83984375 6.09765625 1.83984375 6.09765625 C1.83984375 6.75765625 1.83984375 7.41765625 1.83984375 8.09765625 C-0.11942688 9.81201805 -2.11895837 11.48170793 -4.16015625 13.09765625 C-4.18702178 11.11856227 -4.20649 9.13936654 -4.22265625 7.16015625 C-4.23425781 6.05800781 -4.24585937 4.95585938 -4.2578125 3.8203125 C-4.11749553 -0.09172464 -3.97435676 0.12281696 0 0 Z " fill="#40C2EE" transform="translate(109.16015625,95.90234375)"/>
<path d="M0 0 C0.66 0 1.32 0 2 0 C2 2.64 2 5.28 2 8 C-1.21182149 9.90608098 -3.53882603 10.22266247 -7.25 10.125 C-8.14203125 10.10695313 -9.0340625 10.08890625 -9.953125 10.0703125 C-10.96632813 10.03550781 -10.96632813 10.03550781 -12 10 C-12.33 9.01 -12.66 8.02 -13 7 C-12.22914062 6.66226563 -11.45828125 6.32453125 -10.6640625 5.9765625 C-9.66117187 5.53054687 -8.65828125 5.08453125 -7.625 4.625 C-6.62726563 4.18414062 -5.62953125 3.74328125 -4.6015625 3.2890625 C-1.91977521 2.13287556 -1.91977521 2.13287556 0 0 Z " fill="#655CFE" transform="translate(125,86)"/>
<path d="M0 0 C1.32 0 2.64 0 4 0 C4 6.6 4 13.2 4 20 C2.68 19.67 1.36 19.34 0 19 C0 12.73 0 6.46 0 0 Z " fill="#3E3E8B" transform="translate(115,63)"/>
<path d="M0 0 C0 1.65 0 3.3 0 5 C-6.93 5 -13.86 5 -21 5 C-21 4.01 -21 3.02 -21 2 C-20.15695313 1.93941406 -19.31390625 1.87882812 -18.4453125 1.81640625 C-17.34960938 1.73261719 -16.25390625 1.64882812 -15.125 1.5625 C-14.03445312 1.48128906 -12.94390625 1.40007812 -11.8203125 1.31640625 C-0.07417582 -0.00137363 -0.07417582 -0.00137363 0 0 Z " fill="#34D3CD" transform="translate(34,75)"/>
<path d="M0 0 C12.87 0 25.74 0 39 0 C39 0.66 39 1.32 39 2 C29.43 2 19.86 2 10 2 C10 2.66 10 3.32 10 4 C9.01 4 8.02 4 7 4 C7 3.34 7 2.68 7 2 C4.69 2 2.38 2 0 2 C0 1.34 0 0.68 0 0 Z " fill="#76D5E4" transform="translate(34,45)"/>
<path d="M0 0 C8.58 0 17.16 0 26 0 C25.67 0.99 25.34 1.98 25 3 C17.08 3 9.16 3 1 3 C0.67 2.01 0.34 1.02 0 0 Z " fill="#4C4CA0" transform="translate(101,124)"/>
<path d="M0 0 C4.29 0 8.58 0 13 0 C13 1.32 13 2.64 13 4 C11.88625 4.45375 10.7725 4.9075 9.625 5.375 C6.03800992 6.72465986 6.03800992 6.72465986 4 9 C3.01 9 2.02 9 1 9 C0.67 6.03 0.34 3.06 0 0 Z " fill="#6BD4E3" transform="translate(110,33)"/>
<path d="M0 0 C1.67542976 0.28604898 3.34385343 0.61781233 5 1 C6.125 6.625 6.125 6.625 5 10 C4.34 10 3.68 10 3 10 C2.34 11.32 1.68 12.64 1 14 C0.34 14 -0.32 14 -1 14 C-1.02685938 11.85423363 -1.04633088 9.70837355 -1.0625 7.5625 C-1.07410156 6.36753906 -1.08570312 5.17257813 -1.09765625 3.94140625 C-1 1 -1 1 0 0 Z " fill="#33C6DF" transform="translate(106,33)"/>
<path d="M0 0 C0.66 0.33 1.32 0.66 2 1 C2 7.27 2 13.54 2 20 C0.68 20 -0.64 20 -2 20 C-2.05379226 17.04142591 -2.09357093 14.08382279 -2.125 11.125 C-2.14175781 10.28324219 -2.15851563 9.44148438 -2.17578125 8.57421875 C-2.18222656 7.76855469 -2.18867187 6.96289062 -2.1953125 6.1328125 C-2.21102295 5.01737061 -2.21102295 5.01737061 -2.22705078 3.87939453 C-2 2 -2 2 0 0 Z " fill="#7080FE" transform="translate(125,93)"/>
<path d="M0 0 C6.27 0 12.54 0 19 0 C19 1.65 19 3.3 19 5 C14.71 5 10.42 5 6 5 C6 4.01 6 3.02 6 2 C3.03 1.505 3.03 1.505 0 1 C0 0.67 0 0.34 0 0 Z " fill="#79D8E2" transform="translate(7,58)"/>
<path d="M0 0 C3.91402949 1.26941497 5.79072873 2.51167694 8 6 C6.71034824 7.37562854 5.37310707 8.70766393 4 10 C3.34 10 2.68 10 2 10 C2 9.01 2 8.02 2 7 C1.34 7 0.68 7 0 7 C-0.33 8.65 -0.66 10.3 -1 12 C-1.66 12 -2.32 12 -3 12 C-2.14285714 3.42857143 -2.14285714 3.42857143 0 0 Z " fill="#5BCDDD" transform="translate(47,90)"/>
<path d="M0 0 C4.29 0 8.58 0 13 0 C9 5 9 5 5.109375 5.48828125 C3.6554446 5.45523738 2.20191425 5.39586963 0.75 5.3125 C0.00492188 5.28994141 -0.74015625 5.26738281 -1.5078125 5.24414062 C-3.339409 5.18543561 -5.16996653 5.09575757 -7 5 C-6.34 4.34 -5.68 3.68 -5 3 C-3.68 3 -2.36 3 -1 3 C-0.67 2.01 -0.34 1.02 0 0 Z " fill="#665FFF" transform="translate(53,81)"/>
<path d="M0 0 C1.99954746 -0.04254356 4.00041636 -0.04080783 6 0 C6.33 0.33 6.66 0.66 7 1 C6.53017945 7.34257749 6.53017945 7.34257749 4.4375 9.9375 C3.963125 10.288125 3.48875 10.63875 3 11 C0.12125337 9.56062668 -0.68235793 7.89881256 -2 5 C-1.1875 2.1875 -1.1875 2.1875 0 0 Z " fill="#3BC2D8" transform="translate(53,86)"/>
<path d="M0 0 C0.33 0.66 0.66 1.32 1 2 C-2.3 2 -5.6 2 -9 2 C-9 3.65 -9 5.3 -9 7 C-8.34 7.33 -7.68 7.66 -7 8 C-7.99 8.99 -8.98 9.98 -10 11 C-13.875 9.25 -13.875 9.25 -15 7 C-14.34 7 -13.68 7 -13 7 C-13 5.35 -13 3.7 -13 2 C-16.3 2 -19.6 2 -23 2 C-23 1.67 -23 1.34 -23 1 C-15.41 0.67 -7.82 0.34 0 0 Z " fill="#9DE6E8" transform="translate(131,45)"/>
<path d="M0 0 C2.31 0 4.62 0 7 0 C7 1.65 7 3.3 7 5 C3.37 5 -0.26 5 -4 5 C-4 6.65 -4 8.3 -4 10 C-5.32 10 -6.64 10 -8 10 C-8 8.02 -8 6.04 -8 4 C-5.36 4 -2.72 4 0 4 C0 2.68 0 1.36 0 0 Z " fill="#3D418D" transform="translate(34,49)"/>
<path d="M0 0 C1.24716797 0.00322266 2.49433594 0.00644531 3.77929688 0.00976562 C5.07287109 0.01814453 6.36644531 0.02652344 7.69921875 0.03515625 C9.66858398 0.04192383 9.66858398 0.04192383 11.67773438 0.04882812 C14.91410885 0.06059676 18.15039053 0.07703865 21.38671875 0.09765625 C21.05671875 0.75765625 20.72671875 1.41765625 20.38671875 2.09765625 C19.73074707 2.11747559 19.07477539 2.13729492 18.39892578 2.15771484 C15.43610806 2.25278132 12.47401343 2.36253377 9.51171875 2.47265625 C7.96291016 2.5190625 7.96291016 2.5190625 6.3828125 2.56640625 C4.90361328 2.62441406 4.90361328 2.62441406 3.39453125 2.68359375 C2.4833252 2.71501465 1.57211914 2.74643555 0.63330078 2.77880859 C-1.81259311 2.89648136 -1.81259311 2.89648136 -3.61328125 5.09765625 C-6.34197532 5.06478042 -8.90994305 4.53367854 -11.61328125 4.09765625 C-11.61328125 3.10765625 -11.61328125 2.11765625 -11.61328125 1.09765625 C-7.68039761 0.16677716 -4.03673962 -0.0184326 0 0 Z " fill="#D9D9E8" transform="translate(106.61328125,125.90234375)"/>
<path d="M0 0 C0.99 0 1.98 0 3 0 C3.02688151 1.64574566 3.04634123 3.29161413 3.0625 4.9375 C3.07410156 5.85402344 3.08570312 6.77054687 3.09765625 7.71484375 C3 10 3 10 2 11 C-0.35313555 11.07271741 -2.70833668 11.08370868 -5.0625 11.0625 C-6.35285156 11.05347656 -7.64320312 11.04445313 -8.97265625 11.03515625 C-9.97167969 11.02355469 -10.97070312 11.01195313 -12 11 C-11.67 10.34 -11.34 9.68 -11 9 C-7.37 9 -3.74 9 0 9 C0 6.03 0 3.06 0 0 Z " fill="#37DFC2" transform="translate(95,69)"/>
<path d="M0 0 C0.66 0 1.32 0 2 0 C2.09765625 6.15234375 2.09765625 6.15234375 2 8 C1 9 1 9 -2.5625 9.0625 C-3.696875 9.041875 -4.83125 9.02125 -6 9 C-6.33 8.34 -6.66 7.68 -7 7 C-6.34 7 -5.68 7 -5 7 C-4.896875 6.360625 -4.79375 5.72125 -4.6875 5.0625 C-4.460625 4.381875 -4.23375 3.70125 -4 3 C-3.01 2.67 -2.02 2.34 -1 2 C-0.67 1.34 -0.34 0.68 0 0 Z " fill="#37DDC8" transform="translate(121,105)"/>
<path d="M0 0 C0.33 0.66 0.66 1.32 1 2 C1.99 2.33 2.98 2.66 4 3 C2 5 2 5 -1.2578125 5.1953125 C-2.53398438 5.17210938 -3.81015625 5.14890625 -5.125 5.125 C-7.04699219 5.09792969 -7.04699219 5.09792969 -9.0078125 5.0703125 C-10.48894531 5.03550781 -10.48894531 5.03550781 -12 5 C-12.33 4.01 -12.66 3.02 -13 2 C-11.20909747 1.80533668 -9.41723495 1.61948787 -7.625 1.4375 C-6.12839844 1.28087891 -6.12839844 1.28087891 -4.6015625 1.12109375 C-2 1 -2 1 0 2 C0 1.34 0 0.68 0 0 Z " fill="#46D6D2" transform="translate(46,100)"/>
<path d="M0 0 C2.31 0 4.62 0 7 0 C7 2.31 7 4.62 7 7 C4.69 7 2.38 7 0 7 C0 4.69 0 2.38 0 0 Z " fill="#9FBEFE" transform="translate(91,85)"/>
<path d="M0 0 C3.375 -0.125 3.375 -0.125 7 0 C7.66 0.66 8.32 1.32 9 2 C9.66 1.34 10.32 0.68 11 0 C10.67 1.65 10.34 3.3 10 5 C6.7 5 3.4 5 0 5 C0 3.35 0 1.7 0 0 Z " fill="#36ADC6" transform="translate(33,97)"/>
<path d="M0 0 C2.31 0 4.62 0 7 0 C7.33 0.66 7.66 1.32 8 2 C7.01 3.485 7.01 3.485 6 5 C5.01 5 4.02 5 3 5 C3 6.32 3 7.64 3 9 C2.01 9.33 1.02 9.66 0 10 C0 6.7 0 3.4 0 0 Z " fill="#5934FF" transform="translate(102,86)"/>
<path d="M0 0 C1.23556641 0.01740234 1.23556641 0.01740234 2.49609375 0.03515625 C3.32238281 0.04417969 4.14867187 0.05320312 5 0.0625 C5.63808594 0.07410156 6.27617188 0.08570312 6.93359375 0.09765625 C7.26359375 0.75765625 7.59359375 1.41765625 7.93359375 2.09765625 C6.61359375 2.09765625 5.29359375 2.09765625 3.93359375 2.09765625 C3.93359375 2.75765625 3.93359375 3.41765625 3.93359375 4.09765625 C2.61359375 4.42765625 1.29359375 4.75765625 -0.06640625 5.09765625 C-0.06640625 6.08765625 -0.06640625 7.07765625 -0.06640625 8.09765625 C-1.05640625 8.09765625 -2.04640625 8.09765625 -3.06640625 8.09765625 C-3.10882348 5.7647085 -3.10733562 3.43063058 -3.06640625 1.09765625 C-2.06640625 0.09765625 -2.06640625 0.09765625 0 0 Z " fill="#4895EC" transform="translate(36.06640625,85.90234375)"/>
<path d="M0 0 C3.3 0 6.6 0 10 0 C8.74458443 2.51083114 7.49936512 2.87125446 5 4 C5 4.66 5 5.32 5 6 C2.5 7.625 2.5 7.625 0 9 C0 6.03 0 3.06 0 0 Z " fill="#3DBBDD" transform="translate(105,54)"/>
<path d="M0 0 C1.32 0 2.64 0 4 0 C4.66 0.66 5.32 1.32 6 2 C6.66 2.33 7.32 2.66 8 3 C8 5.31 8 7.62 8 10 C6.68 10.33 5.36 10.66 4 11 C4 9 4 7 4 5 C2.68 4.67 1.36 4.34 0 4 C0 2.68 0 1.36 0 0 Z " fill="#EAF8FA" transform="translate(22,63)"/>
<path d="M0 0 C1.00289062 0.10183594 2.00578125 0.20367187 3.0390625 0.30859375 C3.80992188 0.39238281 4.58078125 0.47617187 5.375 0.5625 C5.045 1.8825 4.715 3.2025 4.375 4.5625 C4.045 4.2325 3.715 3.9025 3.375 3.5625 C2.03484779 3.40667697 0.68741097 3.31205858 -0.66015625 3.24609375 C-1.46904297 3.20419922 -2.27792969 3.16230469 -3.11132812 3.11914062 C-3.96146484 3.07982422 -4.81160156 3.04050781 -5.6875 3 C-6.54150391 2.95681641 -7.39550781 2.91363281 -8.27539062 2.86914062 C-10.39172037 2.76273298 -12.50833813 2.66208269 -14.625 2.5625 C-14.625 1.9025 -14.625 1.2425 -14.625 0.5625 C-13.51125 0.583125 -12.3975 0.60375 -11.25 0.625 C-7.0798345 0.55310059 -4.2832428 -0.44824634 0 0 Z " fill="#71CEDC" transform="translate(112.625,46.4375)"/>
<path d="M0 0 C1.37478516 0.01740234 1.37478516 0.01740234 2.77734375 0.03515625 C3.69644531 0.04417969 4.61554688 0.05320312 5.5625 0.0625 C6.27277344 0.07410156 6.98304687 0.08570312 7.71484375 0.09765625 C4.71484375 2.09765625 4.71484375 2.09765625 1.71484375 2.09765625 C1.71484375 2.75765625 1.71484375 3.41765625 1.71484375 4.09765625 C0.04817708 5.76432292 -1.61848958 7.43098958 -3.28515625 9.09765625 C-3.3828125 2.9453125 -3.3828125 2.9453125 -3.28515625 1.09765625 C-2.28515625 0.09765625 -2.28515625 0.09765625 0 0 Z " fill="#45B4F5" transform="translate(108.28515625,95.90234375)"/>
<path d="M0 0 C0.99 0.66 1.98 1.32 3 2 C3.1875 5.125 3.1875 5.125 3 8 C0.04335481 9.4783226 -2.74229737 9.06032783 -6 9 C-5 7 -5 7 -2 5 C-2 4.01 -2 3.02 -2 2 C-1.34 2 -0.68 2 0 2 C0 1.34 0 0.68 0 0 Z " fill="#40CDD2" transform="translate(31,67)"/>
<path d="M0 0 C0 0.33 0 0.66 0 1 C-1.98 1 -3.96 1 -6 1 C-6 3.64 -6 6.28 -6 9 C-8.64 8.67 -11.28 8.34 -14 8 C-14 7.67 -14 7.34 -14 7 C-12.35 6.67 -10.7 6.34 -9 6 C-8.67 4.68 -8.34 3.36 -8 2 C-9.98 2 -11.96 2 -14 2 C-14 1.67 -14 1.34 -14 1 C-9.32798795 -0.20568053 -4.78503708 -0.09382426 0 0 Z " fill="#89D9E8" transform="translate(21,33)"/>
<path d="M0 0 C1.98 0 3.96 0 6 0 C6 1.98 6 3.96 6 6 C4.02 6 2.04 6 0 6 C0 4.02 0 2.04 0 0 Z " fill="#A7C8FF" transform="translate(83,85)"/>
<path d="M0 0 C1.98 0 3.96 0 6 0 C6 1.98 6 3.96 6 6 C4.02 6 2.04 6 0 6 C0 4.02 0 2.04 0 0 Z " fill="#A6C7FF" transform="translate(74,85)"/>
<path d="M0 0 C0.99 0 1.98 0 3 0 C3.08121924 1.60332791 3.13929134 3.20784026 3.1875 4.8125 C3.23970703 6.15248047 3.23970703 6.15248047 3.29296875 7.51953125 C3 10 3 10 0 13 C0 8.71 0 4.42 0 0 Z " fill="#3B96D8" transform="translate(41,49)"/>
<path d="M0 0 C1.32 0.99 2.64 1.98 4 3 C4.31900332 6.12623255 4.41441874 8.17116253 3 11 C2.01 10.67 1.02 10.34 0 10 C0 6.7 0 3.4 0 0 Z " fill="#37C1C6" transform="translate(115,52)"/>
<path d="M0 0 C2.31 0 4.62 0 7 0 C7 1.65 7 3.3 7 5 C4.69 5 2.38 5 0 5 C0 3.35 0 1.7 0 0 Z " fill="#3C3E8A" transform="translate(98,49)"/>
<path d="M0 0 C6.6 0 13.2 0 20 0 C20 0.99 20 1.98 20 3 C13.4 2.34 6.8 1.68 0 1 C0 0.67 0 0.34 0 0 Z " fill="#41D1D8" transform="translate(14,32)"/>
<path d="M0 0 C0.66 0.33 1.32 0.66 2 1 C2 3.64 2 6.28 2 9 C0.02 9.99 0.02 9.99 -2 11 C-2.05399736 9.54207116 -2.09279177 8.08357288 -2.125 6.625 C-2.15980469 5.40683594 -2.15980469 5.40683594 -2.1953125 4.1640625 C-2 2 -2 2 0 0 Z " fill="#6B70FE" transform="translate(125,93)"/>
<path d="M0 0 C1.670625 0.061875 1.670625 0.061875 3.375 0.125 C3.705 0.785 4.035 1.445 4.375 2.125 C1.98043557 4.51956443 0.71692692 4.88046876 -2.625 5.125 C-4.4375 3.6875 -4.4375 3.6875 -5.625 2.125 C-3.625 0.125 -3.625 0.125 0 0 Z " fill="#707EFE" transform="translate(116.625,113.875)"/>
<path d="M0 0 C1.67542976 0.28604898 3.34385343 0.61781233 5 1 C4.67 2.32 4.34 3.64 4 5 C2.68 5.33 1.36 5.66 0 6 C-0.38218767 4.34385343 -0.71395102 2.67542976 -1 1 C-0.67 0.67 -0.34 0.34 0 0 Z " fill="#51D1DC" transform="translate(22,67)"/>
<path d="M0 0 C0.66 0 1.32 0 2 0 C2 1.65 2 3.3 2 5 C2.99 5.33 3.98 5.66 5 6 C4.01 6.99 3.02 7.98 2 9 C-1.875 7.25 -1.875 7.25 -3 5 C-2.01 5 -1.02 5 0 5 C0 3.35 0 1.7 0 0 Z " fill="#F1FBFC" transform="translate(119,47)"/>
<path d="M0 0 C0.7425 0.0825 1.485 0.165 2.25 0.25 C2.25 1.9 2.25 3.55 2.25 5.25 C-0.72 4.92 -3.69 4.59 -6.75 4.25 C-3.42692308 0.31153846 -3.42692308 0.31153846 0 0 Z " fill="#35DCC3" transform="translate(31.75,74.75)"/>
<path d="M0 0 C1.32 0.33 2.64 0.66 4 1 C4 2.65 4 4.3 4 6 C1.69 6 -0.62 6 -3 6 C-2.34 5.34 -1.68 4.68 -1 4 C-1.33 3.34 -1.66 2.68 -2 2 C-1.34 2 -0.68 2 0 2 C0 1.34 0 0.68 0 0 Z " fill="#7999FE" transform="translate(123,118)"/>
<path d="M0 0 C0.33 0 0.66 0 1 0 C1 1.98 1 3.96 1 6 C2.98 6 4.96 6 7 6 C7 4.02 7 2.04 7 0 C7.66 0 8.32 0 9 0 C9 2.31 9 4.62 9 7 C5.93109813 8.53445094 3.29905734 7.54984289 0 7 C0 4.69 0 2.38 0 0 Z " fill="#7C94FE" transform="translate(82,85)"/>
<path d="M0 0 C0.66 0.33 1.32 0.66 2 1 C0.515 6.445 0.515 6.445 -1 12 C-1.66 12 -2.32 12 -3 12 C-2.14285714 3.42857143 -2.14285714 3.42857143 0 0 Z " fill="#E2F5F8" transform="translate(47,90)"/>
<path d="M0 0 C1.32 0 2.64 0 4 0 C4 1.98 4 3.96 4 6 C3.01 6.33 2.02 6.66 1 7 C0 6 0 6 -0.0625 2.9375 C-0.041875 1.968125 -0.02125 0.99875 0 0 Z " fill="#34AFC6" transform="translate(26,59)"/>
<path d="M0 0 C2.97 0 5.94 0 9 0 C9 0.66 9 1.32 9 2 C6.36 2.33 3.72 2.66 1 3 C0.67 2.01 0.34 1.02 0 0 Z " fill="#4FD0DA" transform="translate(33,102)"/>
<path d="M0 0 C0.87324262 2.44507934 1.10151327 3.67700322 0.3125 6.1875 C-1 8 -1 8 -3.125 8.75 C-4.053125 8.87375 -4.053125 8.87375 -5 9 C-4.67 7.35 -4.34 5.7 -4 4 C-3.01 3.67 -2.02 3.34 -1 3 C-0.67 2.01 -0.34 1.02 0 0 Z " fill="#3ACED1" transform="translate(59,88)"/>
<path d="M0 0 C0.350625 0.474375 0.70125 0.94875 1.0625 1.4375 C3.84163543 3.67873825 6.5144717 3.67117658 10 4 C10 4.33 10 4.66 10 5 C8.56344146 5.08131463 7.1255517 5.13933559 5.6875 5.1875 C4.48673828 5.23970703 4.48673828 5.23970703 3.26171875 5.29296875 C0.52148416 4.93801608 -0.29171079 4.10633718 -2 2 C-1.34 1.34 -0.68 0.68 0 0 Z " fill="#BDD6FE" transform="translate(83,114)"/>
<path d="M0 0 C1.21346851 3.64040554 1.21346851 5.35959446 0 9 C-1.32 7.35 -2.64 5.7 -4 4 C-2.68 2.68 -1.36 1.36 0 0 Z " fill="#E5F7F9" transform="translate(42,91)"/>
<path d="M0 0 C1.98 0.66 3.96 1.32 6 2 C6 2.66 6 3.32 6 4 C3.69 4 1.38 4 -1 4 C-0.67 2.68 -0.34 1.36 0 0 Z " fill="#30C5DE" transform="translate(14,59)"/>
<path d="M0 0 C1.98 0.99 1.98 0.99 4 2 C4 2.99 4 3.98 4 5 C2 6.6875 2 6.6875 0 8 C0.185625 7.236875 0.37125 6.47375 0.5625 5.6875 C1.22819173 2.91032625 1.22819173 2.91032625 0 0 Z " fill="#E0F6F8" transform="translate(50,92)"/>
<path d="M0 0 C2.31 0 4.62 0 7 0 C6.67 1.32 6.34 2.64 6 4 C4.68 4 3.36 4 2 4 C2 3.01 2 2.02 2 1 C1.34 0.67 0.68 0.34 0 0 Z " fill="#DAF2F6" transform="translate(19,73)"/>
<path d="M0 0 C0.33 0 0.66 0 1 0 C1 2.64 1 5.28 1 8 C0.01 8.33 -0.98 8.66 -2 9 C-2.25 3.375 -2.25 3.375 0 0 Z " fill="#409AE9" transform="translate(43,59)"/>
<path d="M0 0 C-0.33 1.65 -0.66 3.3 -1 5 C-2.98 5 -4.96 5 -7 5 C-7 4.34 -7 3.68 -7 3 C-2.61538462 0 -2.61538462 0 0 0 Z " fill="#4CBEDF" transform="translate(53,86)"/>
<path d="M0 0 C0 0.66 0 1.32 0 2 C-1.32 2.33 -2.64 2.66 -4 3 C-4 3.99 -4 4.98 -4 6 C-4.99 6 -5.98 6 -7 6 C-7 5.01 -7 4.02 -7 3 C-2.77777778 0 -2.77777778 0 0 0 Z " fill="#3F9AE9" transform="translate(40,88)"/>
<path d="M0 0 C1.65 0 3.3 0 5 0 C5 1.32 5 2.64 5 4 C3.35 4 1.7 4 0 4 C0 2.68 0 1.36 0 0 Z " fill="#31C6DD" transform="translate(13,65)"/>
<path d="M0 0 C0.66 0 1.32 0 2 0 C2.33 1.98 2.66 3.96 3 6 C1.68 6 0.36 6 -1 6 C-0.67 4.02 -0.34 2.04 0 0 Z " fill="#6660FF" transform="translate(103,109)"/>
</svg>
