<?xml version="1.0" encoding="UTF-8"?>
<svg version="1.1" xmlns="http://www.w3.org/2000/svg" width="150" height="150">
<path d="M0 0 C0.495 2.97 0.495 2.97 1 6 C5.41062136 7.0257259 7.92630576 7.03684712 12 5 C14.0625 7.8125 14.0625 7.8125 16 11 C15.67 11.99 15.34 12.98 15 14 C15.99902344 14.06058594 16.99804688 14.12117188 18.02734375 14.18359375 C19.96287109 14.30927734 19.96287109 14.30927734 21.9375 14.4375 C23.22527344 14.51871094 24.51304687 14.59992187 25.83984375 14.68359375 C29 15 29 15 30 16 C30.15740605 17.70563778 30.25093392 19.41727244 30.31640625 21.12890625 C30.37924805 22.68061523 30.37924805 22.68061523 30.44335938 24.26367188 C30.48267578 25.35228516 30.52199219 26.44089844 30.5625 27.5625 C30.60568359 28.65498047 30.64886719 29.74746094 30.69335938 30.87304688 C30.79982068 33.58189564 30.90183516 36.29083992 31 39 C32.32 39.66 33.64 40.32 35 41 C35 43.31 35 45.62 35 48 C36.32 48 37.64 48 39 48 C38.75 50.375 38.75 50.375 38 53 C36.66666667 53.66666667 35.33333333 54.33333333 34 55 C33.18828772 57.55519921 33.18828772 57.55519921 33 60 C31.68 60.33 30.36 60.66 29 61 C28.67 60.34 28.34 59.68 28 59 C25.97536745 58.34786708 25.97536745 58.34786708 24 58 C24 58.66 24 59.32 24 60 C21.13275314 59.42655063 20.1385485 59.1385485 18 57 C18.375 54.375 18.375 54.375 19 52 C17.02 51.505 17.02 51.505 15 51 C15.33 49.35 15.66 47.7 16 46 C15.34 45.67 14.68 45.34 14 45 C14 51.6 14 58.2 14 65 C16.31 65 18.62 65 21 65 C22 66 22 66 22.11352539 69.96899414 C22.1133662 71.74105607 22.10766785 73.5131226 22.09765625 75.28515625 C22.0962413 76.21597519 22.09482635 77.14679413 22.09336853 78.1058197 C22.08775172 81.09141191 22.0751964 84.07693029 22.0625 87.0625 C22.05748716 89.08137913 22.05292388 91.10025943 22.04882812 93.11914062 C22.03777683 98.07945572 22.02050095 103.03971532 22 108 C24.31 108.66 26.62 109.32 29 110 C28 112 28 112 26.34521484 112.61450195 C21.49200924 113.41225457 16.54404055 113.18590312 11.63769531 113.18530273 C9.63863013 113.18748512 7.63960468 113.20599143 5.640625 113.22460938 C4.36960937 113.22654297 3.09859375 113.22847656 1.7890625 113.23046875 C0.63100098 113.23457764 -0.52706055 113.23868652 -1.72021484 113.24291992 C-5.11310954 112.99162245 -7.83332989 112.21173908 -11 111 C-10.67 110.34 -10.34 109.68 -10 109 C-7.4375 108.375 -7.4375 108.375 -5 108 C-5.67857056 107.99191315 -6.35714111 107.98382629 -7.05627441 107.97549438 C-14.19572947 107.88863335 -21.33493245 107.7891071 -28.47412109 107.68261719 C-31.12938188 107.64363425 -33.7845665 107.60971702 -36.43994141 107.578125 C-75.83630137 107.1036487 -75.83630137 107.1036487 -82 103 C-82.75 100.375 -82.75 100.375 -83 98 C-86.153368 97.29925156 -88.72724974 97 -92 97 C-93.75 94.5 -93.75 94.5 -95 92 C-93.515 91.505 -93.515 91.505 -92 91 C-92.41586354 86.7212019 -92.41586354 86.7212019 -94.5625 83.125 C-95.2740625 82.568125 -95.2740625 82.568125 -96 82 C-95.01 80.02 -94.02 78.04 -93 76 C-92.21625 76.20625 -91.4325 76.4125 -90.625 76.625 C-89.75875 76.74875 -88.8925 76.8725 -88 77 C-85.77810176 74.77810176 -85.07401108 72.91517292 -84 70 C-82.35 70 -80.7 70 -79 70 C-79 68.35 -79 66.7 -79 65 C-85.27 65 -91.54 65 -98 65 C-98 64.34 -98 63.68 -98 63 C-95.03 62.505 -95.03 62.505 -92 62 C-92 61.01 -92 60.02 -92 59 C-93.98 59 -95.96 59 -98 59 C-98 58.34 -98 57.68 -98 57 C-96.02 57 -94.04 57 -92 57 C-92 55.68 -92 54.36 -92 53 C-93.98 53 -95.96 53 -98 53 C-98 52.34 -98 51.68 -98 51 C-96.02 51 -94.04 51 -92 51 C-92 49.68 -92 48.36 -92 47 C-93.98 47 -95.96 47 -98 47 C-98 46.34 -98 45.68 -98 45 C-96.02 45 -94.04 45 -92 45 C-92 44.01 -92 43.02 -92 42 C-93.98 41.67 -95.96 41.34 -98 41 C-98 40.67 -98 40.34 -98 40 C-91.73 40 -85.46 40 -79 40 C-79 38.35 -79 36.7 -79 35 C-85.27 35 -91.54 35 -98 35 C-98 34.67 -98 34.34 -98 34 C-95.525 33.505 -95.525 33.505 -93 33 C-92.67 31.68 -92.34 30.36 -92 29 C-93.98 29 -95.96 29 -98 29 C-98 28.67 -98 28.34 -98 28 C-96.35 27.67 -94.7 27.34 -93 27 C-92.67 25.68 -92.34 24.36 -92 23 C-93.98 23 -95.96 23 -98 23 C-98 22.67 -98 22.34 -98 22 C-96.35 21.67 -94.7 21.34 -93 21 C-92.67 19.68 -92.34 18.36 -92 17 C-93.98 17 -95.96 17 -98 17 C-98 16.67 -98 16.34 -98 16 C-92.11060037 13.95887931 -86.8280285 13.72721958 -80.625 13.8125 C-79.25408203 13.8134668 -79.25408203 13.8134668 -77.85546875 13.81445312 C-71.14064837 13.85935163 -71.14064837 13.85935163 -70 15 C-67.19023482 15.16017166 -64.40226404 15.25950534 -61.58984375 15.31640625 C-60.74780899 15.33718735 -59.90577423 15.35796844 -59.03822327 15.37937927 C-56.33806821 15.44496812 -53.63781283 15.50380276 -50.9375 15.5625 C-49.11131759 15.60567637 -47.28514546 15.64929036 -45.45898438 15.69335938 C-40.97276008 15.80065894 -36.4864345 15.90189966 -32 16 C-32 16.33 -32 16.66 -32 17 C-44.87 17 -57.74 17 -71 17 C-70.67 18.32 -70.34 19.64 -70 21 C-57.46 21.33 -44.92 21.66 -32 22 C-32 22.33 -32 22.66 -32 23 C-44.87 23 -57.74 23 -71 23 C-70.67 24.32 -70.34 25.64 -70 27 C-52.84 26.67 -35.68 26.34 -18 26 C-18 23.69 -18 21.38 -18 19 C-19.65 18.34 -21.3 17.68 -23 17 C-22.01 14.36 -21.02 11.72 -20 9 C-18.906875 9.226875 -17.81375 9.45375 -16.6875 9.6875 C-13.17871443 10.33441419 -13.17871443 10.33441419 -11.125 8.9375 C-9.62467313 6.35360372 -9.32735528 3.94619748 -9 1 C-5.94152152 0.45627049 -3.11227195 0 0 0 Z M-9 14 C-11.2084626 17.31269391 -11.80664241 19.14978851 -11.5546875 23.0625 C-10.4812192 26.81207941 -8.28696911 28.01541488 -5 30 C-2.36163023 30.1672392 -2.36163023 30.1672392 0 30 C0.03738281 29.01257813 0.07476562 28.02515625 0.11328125 27.0078125 C0.17902344 25.72648437 0.24476562 24.44515625 0.3125 23.125 C0.37050781 21.84882812 0.42851563 20.57265625 0.48828125 19.2578125 C0.65714844 18.18273437 0.82601562 17.10765625 1 16 C1.99 15.34 2.98 14.68 4 14 C2.01607489 11.60148679 2.01607489 11.60148679 -1.8125 11.5625 C-5.17733329 11.66669338 -6.04370031 12.02913354 -9 14 Z M-71 29 C-71 29.66 -71 30.32 -71 31 C-68.69 31 -66.38 31 -64 31 C-64 30.34 -64 29.68 -64 29 C-66.31 29 -68.62 29 -71 29 Z M22 47 C21.6366844 49.83386167 21.6431329 51.40522151 23.125 53.875 C25.92151052 55.55290631 27.93690532 54.74875648 31 54 C31.67673447 50.59679066 31.67673447 50.59679066 32 47 C30.11499729 44.68436913 30.11499729 44.68436913 27 44.75 C23.88500271 44.68436913 23.88500271 44.68436913 22 47 Z M-85.25 80.625 C-87.21985834 82.92308586 -87.21985834 82.92308586 -87.5 86 C-87.21376982 89.06575838 -87.21376982 89.06575838 -85.3125 91.375 C-82.61209763 93.27258004 -81.22939919 93.35882213 -78 93 C-77.85024761 85.94348748 -77.85024761 85.94348748 -79 79 C-82.92212225 78.60967296 -82.92212225 78.60967296 -85.25 80.625 Z M-75 97 C-75 97.99 -75 98.98 -75 100 C-71.68727224 99.85908107 -68.37488029 99.71134606 -65.0625 99.5625 C-64.13630859 99.52318359 -63.21011719 99.48386719 -62.25585938 99.44335938 C-56.46486581 99.17920879 -50.75460497 98.70235691 -45 98 C-44.67 97.01 -44.34 96.02 -44 95 C-48.09338652 94.95060885 -52.18665798 94.91428499 -56.28027344 94.89013672 C-57.67320781 94.88007123 -59.06612102 94.86641766 -60.45898438 94.84912109 C-62.4595436 94.8248978 -64.46025615 94.81459186 -66.4609375 94.8046875 C-67.66540527 94.79421387 -68.86987305 94.78374023 -70.11083984 94.77294922 C-73.12841495 94.69539186 -73.12841495 94.69539186 -75 97 Z M-20 95 C-20 95.99 -20 96.98 -20 98 C-14.72 98.33 -9.44 98.66 -4 99 C-4 97.68 -4 96.36 -4 95 C-9.28 95 -14.56 95 -20 95 Z " fill="#47D6D3" transform="translate(105,18)"/>
<path d="M0 0 C2.31 0 4.62 0 7 0 C7 2.97 7 5.94 7 9 C10.3 9 13.6 9 17 9 C17 15.6 17 22.2 17 29 C12.71 29 8.42 29 4 29 C4 29.66 4 30.32 4 31 C12.79133718 32.42426407 12.79133718 32.42426407 29 32 C29 45.2 29 58.4 29 72 C31.31 72.66 33.62 73.32 36 74 C35 76 35 76 33.34521484 76.61450195 C28.49200924 77.41225457 23.54404055 77.18590312 18.63769531 77.18530273 C16.63863013 77.18748512 14.63960468 77.20599143 12.640625 77.22460938 C11.36960937 77.22654297 10.09859375 77.22847656 8.7890625 77.23046875 C7.63100098 77.23457764 6.47293945 77.23868652 5.27978516 77.24291992 C1.88689046 76.99162245 -0.83332989 76.21173908 -4 75 C-3.67 74.34 -3.34 73.68 -3 73 C-0.4375 72.375 -0.4375 72.375 2 72 C1.32142944 71.99191315 0.64285889 71.98382629 -0.05627441 71.97549438 C-7.19572947 71.88863335 -14.33493245 71.7891071 -21.47412109 71.68261719 C-24.12938188 71.64363425 -26.7845665 71.60971702 -29.43994141 71.578125 C-68.83630137 71.1036487 -68.83630137 71.1036487 -75 67 C-75.75 64.375 -75.75 64.375 -76 62 C-79.153368 61.29925156 -81.72724974 61 -85 61 C-86.75 58.5 -86.75 58.5 -88 56 C-86.515 55.505 -86.515 55.505 -85 55 C-85.41586354 50.7212019 -85.41586354 50.7212019 -87.5625 47.125 C-88.036875 46.75375 -88.51125 46.3825 -89 46 C-88.01 44.02 -87.02 42.04 -86 40 C-85.21625 40.20625 -84.4325 40.4125 -83.625 40.625 C-82.75875 40.74875 -81.8925 40.8725 -81 41 C-78.77810176 38.77810176 -78.07401108 36.91517292 -77 34 C-75.35 34 -73.7 34 -72 34 C-72 36.97 -72 39.94 -72 43 C-72.969375 43.28875 -73.93875 43.5775 -74.9375 43.875 C-78.10664203 44.64214682 -78.10664203 44.64214682 -79 47 C-79.40270732 51.1283652 -79.40270732 51.1283652 -77.8125 54.8125 C-75.57968261 56.27538036 -73.62655933 56.64505955 -71 57 C-71 54.03 -71 51.06 -71 48 C-69.02 48 -67.04 48 -65 48 C-64.67 48.66 -64.34 49.32 -64 50 C-55.75 50 -47.5 50 -39 50 C-38.505 49.01 -38.505 49.01 -38 48 C-24.47 48 -10.94 48 3 48 C3 46.35 3 44.7 3 43 C-5.58 43 -14.16 43 -23 43 C-22 40 -22 40 -21 39 C-22.485 38.505 -22.485 38.505 -24 38 C-24 35.69 -24 33.38 -24 31 C-22.783125 31.04125 -21.56625 31.0825 -20.3125 31.125 C-16.69779755 31.11868059 -14.30767969 30.53282717 -11 29 C-8.63771686 28.20308521 -6.26538518 27.44241613 -3.890625 26.68359375 C-2.01527138 26.15678454 -2.01527138 26.15678454 -1 25 C-0.84213692 23.14825294 -0.74892644 21.2909089 -0.68359375 19.43359375 C-0.64169922 18.30888672 -0.59980469 17.18417969 -0.55664062 16.02539062 C-0.51732422 14.84138672 -0.47800781 13.65738281 -0.4375 12.4375 C-0.37272461 10.65569336 -0.37272461 10.65569336 -0.30664062 8.83789062 C-0.20016454 5.89205216 -0.09815159 2.9461257 0 0 Z M-68 61 C-68 61.99 -68 62.98 -68 64 C-64.68727224 63.85908107 -61.37488029 63.71134606 -58.0625 63.5625 C-57.13630859 63.52318359 -56.21011719 63.48386719 -55.25585938 63.44335938 C-49.46486581 63.17920879 -43.75460497 62.70235691 -38 62 C-37.67 61.01 -37.34 60.02 -37 59 C-41.09338652 58.95060885 -45.18665798 58.91428499 -49.28027344 58.89013672 C-50.67320781 58.88007123 -52.06612102 58.86641766 -53.45898438 58.84912109 C-55.4595436 58.8248978 -57.46025615 58.81459186 -59.4609375 58.8046875 C-60.66540527 58.79421387 -61.86987305 58.78374023 -63.11083984 58.77294922 C-66.12841495 58.69539186 -66.12841495 58.69539186 -68 61 Z M-13 59 C-13 59.99 -13 60.98 -13 62 C-7.72 62.33 -2.44 62.66 3 63 C3 61.68 3 60.36 3 59 C-2.28 59 -7.56 59 -13 59 Z " fill="#5E4CF2" transform="translate(98,54)"/>
<path d="M0 0 C2.31 0 4.62 0 7 0 C7.02505615 0.90355225 7.0501123 1.80710449 7.07592773 2.73803711 C7.17087317 6.0796428 7.27011621 9.42106252 7.37231445 12.76245117 C7.4157163 14.2106424 7.45738744 15.65888654 7.49731445 17.10717773 C7.55489062 19.18489559 7.61862028 21.26234573 7.68359375 23.33984375 C7.73858032 25.21724243 7.73858032 25.21724243 7.79467773 27.13256836 C7.67803906 29.89630504 7.67803906 29.89630504 9 31 C10.53382679 31.1225355 12.07310519 31.17777938 13.61157227 31.20532227 C14.59251358 31.22526749 15.5734549 31.24521271 16.5841217 31.26576233 C18.18410255 31.29083107 18.18410255 31.29083107 19.81640625 31.31640625 C20.9025975 31.33718735 21.98878876 31.35796844 23.1078949 31.37937927 C26.59269627 31.44499442 30.07757568 31.50381511 33.5625 31.5625 C35.91862801 31.60567385 38.27474799 31.64928776 40.63085938 31.69335938 C46.42048937 31.80068792 52.21019775 31.90243165 58 32 C57.505 32.99 57.505 32.99 57 34 C54.93359375 34.6328125 54.93359375 34.6328125 52.4375 35.125 C51.19806641 35.37636719 51.19806641 35.37636719 49.93359375 35.6328125 C49.29550781 35.75398438 48.65742187 35.87515625 48 36 C48 37.65 48 39.3 48 41 C47.67 41 47.34 41 47 41 C47 39.35 47 37.7 47 36 C44.69 36 42.38 36 40 36 C40 38.31 40 40.62 40 43 C41.98 43.495 41.98 43.495 44 44 C43 46 43 46 41 48 C49.58 48 58.16 48 67 48 C67 49.65 67 51.3 67 53 C53.47 53 39.94 53 26 53 C25.67 53.99 25.34 54.98 25 56 C16.75 56 8.5 56 0 56 C-0.33 55.01 -0.66 54.02 -1 53 C-3.31 53 -5.62 53 -8 53 C-8 46.73 -8 40.46 -8 34 C-14.27 34 -20.54 34 -27 34 C-27 33.34 -27 32.68 -27 32 C-25.02 31.67 -23.04 31.34 -21 31 C-21 30.01 -21 29.02 -21 28 C-22.98 28 -24.96 28 -27 28 C-27 27.34 -27 26.68 -27 26 C-25.02 26 -23.04 26 -21 26 C-21 24.68 -21 23.36 -21 22 C-22.98 22 -24.96 22 -27 22 C-27 21.34 -27 20.68 -27 20 C-25.02 20 -23.04 20 -21 20 C-21 18.68 -21 17.36 -21 16 C-22.98 16 -24.96 16 -27 16 C-27 15.34 -27 14.68 -27 14 C-25.02 14 -23.04 14 -21 14 C-21 13.01 -21 12.02 -21 11 C-23.97 10.505 -23.97 10.505 -27 10 C-27 9.67 -27 9.34 -27 9 C-20.73 9 -14.46 9 -8 9 C-8 7.35 -8 5.7 -8 4 C-5.36 4 -2.72 4 0 4 C0 2.68 0 1.36 0 0 Z " fill="#5E52FD" transform="translate(34,49)"/>
<path d="M0 0 C1.65 0 3.3 0 5 0 C5 2.97 5 5.94 5 9 C4.030625 9.28875 3.06125 9.5775 2.0625 9.875 C-1.10664203 10.64214682 -1.10664203 10.64214682 -2 13 C-2.40270732 17.1283652 -2.40270732 17.1283652 -0.8125 20.8125 C1.42031739 22.27538036 3.37344067 22.64505955 6 23 C6 20.03 6 17.06 6 14 C7.98 14 9.96 14 12 14 C12.33 14.66 12.66 15.32 13 16 C21.25 16 29.5 16 38 16 C38.33 15.34 38.66 14.68 39 14 C52.53 14 66.06 14 80 14 C80 17.63 80 21.26 80 25 C74.72 25 69.44 25 64 25 C64 25.99 64 26.98 64 28 C64.56847656 27.98839844 65.13695313 27.97679688 65.72265625 27.96484375 C70.60670484 27.90776806 75.18503965 28.18043228 80 29 C80 31.64 80 34.28 80 37 C72.71409984 37.04682155 65.42823335 37.08211748 58.14221191 37.10362434 C54.75718789 37.11395864 51.37226851 37.12792229 47.98730469 37.15087891 C8.62570011 37.39816171 8.62570011 37.39816171 2 33 C1.25 30.375 1.25 30.375 1 28 C-2.153368 27.29925156 -4.72724974 27 -8 27 C-9.75 24.5 -9.75 24.5 -11 22 C-10.01 21.67 -9.02 21.34 -8 21 C-8.41586354 16.7212019 -8.41586354 16.7212019 -10.5625 13.125 C-11.036875 12.75375 -11.51125 12.3825 -12 12 C-11.01 10.02 -10.02 8.04 -9 6 C-7.824375 6.309375 -7.824375 6.309375 -6.625 6.625 C-5.75875 6.74875 -4.8925 6.8725 -4 7 C-1.77810176 4.77810176 -1.07401108 2.91517292 0 0 Z M9 27 C9 27.99 9 28.98 9 30 C12.31272776 29.85908107 15.62511971 29.71134606 18.9375 29.5625 C19.86369141 29.52318359 20.78988281 29.48386719 21.74414062 29.44335938 C27.53513419 29.17920879 33.24539503 28.70235691 39 28 C39.33 27.01 39.66 26.02 40 25 C35.90661348 24.95060885 31.81334202 24.91428499 27.71972656 24.89013672 C26.32679219 24.88007123 24.93387898 24.86641766 23.54101562 24.84912109 C21.5404564 24.8248978 19.53974385 24.81459186 17.5390625 24.8046875 C16.33459473 24.79421387 15.13012695 24.78374023 13.88916016 24.77294922 C10.87158505 24.69539186 10.87158505 24.69539186 9 27 Z " fill="#B2CFFE" transform="translate(21,88)"/>
<path d="M0 0 C16.83 0 33.66 0 51 0 C51 10.23 51 20.46 51 31 C34.17 31 17.34 31 0 31 C0 20.77 0 10.54 0 0 Z " fill="#474E93" transform="translate(44,47)"/>
<path d="M0 0 C0.33 1.98 0.66 3.96 1 6 C5.41062136 7.0257259 7.92630576 7.03684712 12 5 C14.0625 7.8125 14.0625 7.8125 16 11 C15.67 11.99 15.34 12.98 15 14 C15.99902344 14.06058594 16.99804688 14.12117188 18.02734375 14.18359375 C19.31769531 14.26738281 20.60804687 14.35117187 21.9375 14.4375 C23.86916016 14.55931641 23.86916016 14.55931641 25.83984375 14.68359375 C29 15 29 15 30 16 C30.15740605 17.70563778 30.25093392 19.41727244 30.31640625 21.12890625 C30.35830078 22.16337891 30.40019531 23.19785156 30.44335938 24.26367188 C30.48267578 25.35228516 30.52199219 26.44089844 30.5625 27.5625 C30.60568359 28.65498047 30.64886719 29.74746094 30.69335938 30.87304688 C30.79982068 33.58189564 30.90183516 36.29083992 31 39 C32.32 39.66 33.64 40.32 35 41 C35 43.31 35 45.62 35 48 C36.32 48 37.64 48 39 48 C38.75 50.375 38.75 50.375 38 53 C36.66666667 53.66666667 35.33333333 54.33333333 34 55 C33.18828772 57.55519921 33.18828772 57.55519921 33 60 C31.02 60.495 31.02 60.495 29 61 C28.67 60.34 28.34 59.68 28 59 C25.97536745 58.34786708 25.97536745 58.34786708 24 58 C24 58.66 24 59.32 24 60 C21.13275314 59.42655063 20.1385485 59.1385485 18 57 C18.375 54.375 18.375 54.375 19 52 C17.68 51.67 16.36 51.34 15 51 C15.33 49.35 15.66 47.7 16 46 C15.01 45.67 14.02 45.34 13 45 C13.04125 44.071875 13.0825 43.14375 13.125 42.1875 C13.27136339 38.84190281 13.27136339 38.84190281 11 36 C11.66 36 12.32 36 13 36 C13 34.68 13 33.36 13 32 C10.69 31.67 8.38 31.34 6 31 C9.74235319 28.55010899 13.44225419 28.76913857 17.75 28.875 C18.79607422 28.88853516 18.79607422 28.88853516 19.86328125 28.90234375 C21.57566958 28.92580112 23.28788004 28.96166896 25 29 C24.505 27.515 24.505 27.515 24 26 C23.2575 25.9175 22.515 25.835 21.75 25.75 C19 25 19 25 17.0625 22.875 C15.07900924 20.64029009 15.07900924 20.64029009 11.875 21.0625 C8.70825068 21.76694687 8.70825068 21.76694687 7 25 C5.34795544 25.70211894 3.68076231 26.36971413 2 27 C1.34 27.66 0.68 28.32 0 29 C-0.08078641 26.87561661 -0.13909141 24.7503677 -0.1875 22.625 C-0.22230469 21.44164063 -0.25710937 20.25828125 -0.29296875 19.0390625 C-0.19628906 18.03617188 -0.09960938 17.03328125 0 16 C0.99 15.34 1.98 14.68 3 14 C1.78410016 12.56844101 1.78410016 12.56844101 -1.8125 12.6875 C-4.78617685 12.74622611 -5.87751147 12.92650688 -8.5 14.5 C-10.71177972 18.18629954 -10.34421275 20.73176192 -10 25 C-9.67 25.66 -9.34 26.32 -9 27 C-11.97 27 -14.94 27 -18 27 C-18 24.36 -18 21.72 -18 19 C-20.475 18.01 -20.475 18.01 -23 17 C-22.01 14.36 -21.02 11.72 -20 9 C-18.906875 9.226875 -17.81375 9.45375 -16.6875 9.6875 C-13.17871443 10.33441419 -13.17871443 10.33441419 -11.125 8.9375 C-9.62467313 6.35360372 -9.32735528 3.94619748 -9 1 C-5.94152152 0.45627049 -3.11227195 0 0 0 Z M22 47 C21.6366844 49.83386167 21.6431329 51.40522151 23.125 53.875 C25.92151052 55.55290631 27.93690532 54.74875648 31 54 C31.67673447 50.59679066 31.67673447 50.59679066 32 47 C30.11499729 44.68436913 30.11499729 44.68436913 27 44.75 C23.88500271 44.68436913 23.88500271 44.68436913 22 47 Z " fill="#35D5CF" transform="translate(105,18)"/>
<path d="M0 0 C2.31 0 4.62 0 7 0 C7 2.97 7 5.94 7 9 C10.3 9 13.6 9 17 9 C17 15.6 17 22.2 17 29 C12.71 29 8.42 29 4 29 C3.67 33.62 3.34 38.24 3 43 C-5.58 43 -14.16 43 -23 43 C-22 40 -22 40 -21 39 C-21.99 38.67 -22.98 38.34 -24 38 C-24 35.69 -24 33.38 -24 31 C-22.783125 31.04125 -21.56625 31.0825 -20.3125 31.125 C-16.69779755 31.11868059 -14.30767969 30.53282717 -11 29 C-8.63771686 28.20308521 -6.26538518 27.44241613 -3.890625 26.68359375 C-2.01527138 26.15678454 -2.01527138 26.15678454 -1 25 C-0.84213692 23.14825294 -0.74892644 21.2909089 -0.68359375 19.43359375 C-0.64169922 18.30888672 -0.59980469 17.18417969 -0.55664062 16.02539062 C-0.51732422 14.84138672 -0.47800781 13.65738281 -0.4375 12.4375 C-0.39431641 11.24962891 -0.35113281 10.06175781 -0.30664062 8.83789062 C-0.20016454 5.89205216 -0.09815159 2.9461257 0 0 Z " fill="#7286FD" transform="translate(98,54)"/>
<path d="M0 0 C1.65 0 3.3 0 5 0 C5 2.97 5 5.94 5 9 C4.030625 9.28875 3.06125 9.5775 2.0625 9.875 C-1.10664203 10.64214682 -1.10664203 10.64214682 -2 13 C-2.45565588 17.050918 -2.45565588 17.050918 -0.80859375 20.5859375 C1.43603616 22.34091812 3.44563281 22.93971804 6.1875 23.6875 C7.08855469 23.93886719 7.98960938 24.19023438 8.91796875 24.44921875 C9.60503906 24.63097656 10.29210937 24.81273438 11 25 C10.01 27.475 10.01 27.475 9 30 C9.88353149 29.90912109 9.88353149 29.90912109 10.78491211 29.81640625 C13.50198983 29.5396151 16.21971686 29.26977324 18.9375 29 C19.86369141 28.90460938 20.78988281 28.80921875 21.74414062 28.7109375 C27.52911107 28.14258953 33.18730276 27.90461215 39 28 C38.67 28.66 38.34 29.32 38 30 C35.35139573 30.59355614 32.70802678 30.74209269 30 31 C30 31.66 30 32.32 30 33 C44.19 33 58.38 33 73 33 C72.67 32.34 72.34 31.68 72 31 C70.845 30.835 69.69 30.67 68.5 30.5 C67.345 30.335 66.19 30.17 65 30 C64.505 29.01 64.505 29.01 64 28 C69.45769811 27.88861841 74.61509359 28.08342019 80 29 C80 31.64 80 34.28 80 37 C72.71409984 37.04682155 65.42823335 37.08211748 58.14221191 37.10362434 C54.75718789 37.11395864 51.37226851 37.12792229 47.98730469 37.15087891 C8.62570011 37.39816171 8.62570011 37.39816171 2 33 C1.25 30.375 1.25 30.375 1 28 C-2.153368 27.29925156 -4.72724974 27 -8 27 C-9.75 24.5 -9.75 24.5 -11 22 C-10.01 21.67 -9.02 21.34 -8 21 C-8.41586354 16.7212019 -8.41586354 16.7212019 -10.5625 13.125 C-11.036875 12.75375 -11.51125 12.3825 -12 12 C-11.01 10.02 -10.02 8.04 -9 6 C-7.824375 6.309375 -7.824375 6.309375 -6.625 6.625 C-5.75875 6.74875 -4.8925 6.8725 -4 7 C-1.77810176 4.77810176 -1.07401108 2.91517292 0 0 Z " fill="#EAEBF2" transform="translate(21,88)"/>
<path d="M0 0 C1.12019531 -0.00128906 2.24039063 -0.00257812 3.39453125 -0.00390625 C4.57402344 -0.00003906 5.75351562 0.00382812 6.96875 0.0078125 C8.73798828 0.00201172 8.73798828 0.00201172 10.54296875 -0.00390625 C12.22326172 -0.00197266 12.22326172 -0.00197266 13.9375 0 C14.97326172 0.00112793 16.00902344 0.00225586 17.07617188 0.00341797 C19.46875 0.1328125 19.46875 0.1328125 20.46875 1.1328125 C20.56861975 3.97616298 20.60752881 6.78978413 20.59375 9.6328125 C20.59955078 10.82970703 20.59955078 10.82970703 20.60546875 12.05078125 C20.59535767 18.00620483 20.59535767 18.00620483 19.46875 19.1328125 C17.62715977 19.23240871 15.78178033 19.26361661 13.9375 19.265625 C12.81730469 19.26691406 11.69710937 19.26820312 10.54296875 19.26953125 C9.36347656 19.26566406 8.18398438 19.26179688 6.96875 19.2578125 C5.19951172 19.26361328 5.19951172 19.26361328 3.39453125 19.26953125 C1.71423828 19.26759766 1.71423828 19.26759766 0 19.265625 C-1.03576172 19.26449707 -2.07152344 19.26336914 -3.13867188 19.26220703 C-5.53125 19.1328125 -5.53125 19.1328125 -6.53125 18.1328125 C-6.63111975 15.28946202 -6.67002881 12.47584087 -6.65625 9.6328125 C-6.66011719 8.83488281 -6.66398437 8.03695312 -6.66796875 7.21484375 C-6.65573175 0.007248 -6.65573175 0.007248 0 0 Z " fill="#39D8C7" transform="translate(39.53125,85.8671875)"/>
<path d="M0 0 C3.0000624 -0.02721831 5.99987256 -0.04694378 9 -0.0625 C9.83917969 -0.07087891 10.67835937 -0.07925781 11.54296875 -0.08789062 C12.79013672 -0.09272461 12.79013672 -0.09272461 14.0625 -0.09765625 C15.19365234 -0.10551147 15.19365234 -0.10551147 16.34765625 -0.11352539 C19.91451913 0.03914317 23.45744034 0.55718004 27 1 C27 7.93 27 14.86 27 22 C20.07 22 13.14 22 6 22 C6 21.01 6 20.02 6 19 C4.02 19 2.04 19 0 19 C0 18.34 0 17.68 0 17 C1.98 17 3.96 17 6 17 C6 15.68 6 14.36 6 13 C4.02 13 2.04 13 0 13 C0 12.34 0 11.68 0 11 C1.98 11 3.96 11 6 11 C6 9.68 6 8.36 6 7 C4.02 7 2.04 7 0 7 C0 6.34 0 5.68 0 5 C1.98 5 3.96 5 6 5 C6 4.01 6 3.02 6 2 C3.03 1.505 3.03 1.505 0 1 C0 0.67 0 0.34 0 0 Z " fill="#85D9E5" transform="translate(7,58)"/>
<path d="M0 0 C1.07354736 0.02094727 2.14709473 0.04189453 3.25317383 0.06347656 C4.41655273 0.07636719 5.57993164 0.08925781 6.77856445 0.10253906 C7.99350586 0.13605469 9.20844727 0.16957031 10.46020508 0.20410156 C11.68674805 0.22214844 12.91329102 0.24019531 14.17700195 0.25878906 C17.20968266 0.30599032 20.24080595 0.37182479 23.27270508 0.45410156 C22.94270508 1.11410156 22.61270508 1.77410156 22.27270508 2.45410156 C20.20629883 3.08691406 20.20629883 3.08691406 17.71020508 3.57910156 C16.88391602 3.74667969 16.05762695 3.91425781 15.20629883 4.08691406 C14.56821289 4.20808594 13.93012695 4.32925781 13.27270508 4.45410156 C13.27270508 6.10410156 13.27270508 7.75410156 13.27270508 9.45410156 C12.94270508 9.45410156 12.61270508 9.45410156 12.27270508 9.45410156 C12.27270508 7.80410156 12.27270508 6.15410156 12.27270508 4.45410156 C9.96270508 4.45410156 7.65270508 4.45410156 5.27270508 4.45410156 C5.27270508 6.76410156 5.27270508 9.07410156 5.27270508 11.45410156 C6.59270508 11.78410156 7.91270508 12.11410156 9.27270508 12.45410156 C8.27270508 14.45410156 8.27270508 14.45410156 6.27270508 16.45410156 C14.85270508 16.45410156 23.43270508 16.45410156 32.27270508 16.45410156 C32.27270508 18.10410156 32.27270508 19.75410156 32.27270508 21.45410156 C18.74270508 21.45410156 5.21270508 21.45410156 -8.72729492 21.45410156 C-9.05729492 16.17410156 -9.38729492 10.89410156 -9.72729492 5.45410156 C-8.40729492 5.12410156 -7.08729492 4.79410156 -5.72729492 4.45410156 C-5.27314209 3.7815332 -4.81898926 3.10896484 -4.35107422 2.41601562 C-2.72729492 0.45410156 -2.72729492 0.45410156 0 0 Z " fill="#6C73FE" transform="translate(68.727294921875,80.5458984375)"/>
<path d="M0 0 C2.64 0 5.28 0 8 0 C8 12.54 8 25.08 8 38 C-0.25 38 -8.5 38 -17 38 C-17.26785714 24.74107143 -17.26785714 24.74107143 -15 20 C-14.67 20 -14.34 20 -14 20 C-13.67 22.31 -13.34 24.62 -13 27 C-7.72 27 -2.44 27 3 27 C3.33 21.39 3.66 15.78 4 10 C0.7 10 -2.6 10 -6 10 C-5.34 9.01 -4.68 8.02 -4 7 C-4 6.01 -4 5.02 -4 4 C-2.68 3.34 -1.36 2.68 0 2 C0 1.34 0 0.68 0 0 Z " fill="#707FFE" transform="translate(119,86)"/>
<path d="M0 0 C0.33 1.98 0.66 3.96 1 6 C5.41062136 7.0257259 7.92630576 7.03684712 12 5 C13.98 7.97 13.98 7.97 16 11 C15.34 12.32 14.68 13.64 14 15 C12.37536158 15.05395478 10.75021459 15.09277195 9.125 15.125 C7.76761719 15.15980469 7.76761719 15.15980469 6.3828125 15.1953125 C4 15 4 15 2 13 C-3.54235245 12.42765564 -3.54235245 12.42765564 -8.5 14.5 C-10.71177972 18.18629954 -10.34421275 20.73176192 -10 25 C-9.67 25.66 -9.34 26.32 -9 27 C-11.97 27 -14.94 27 -18 27 C-18 24.36 -18 21.72 -18 19 C-20.475 18.01 -20.475 18.01 -23 17 C-22.01 14.36 -21.02 11.72 -20 9 C-18.906875 9.226875 -17.81375 9.45375 -16.6875 9.6875 C-13.17871443 10.33441419 -13.17871443 10.33441419 -11.125 8.9375 C-9.62467313 6.35360372 -9.32735528 3.94619748 -9 1 C-5.94152152 0.45627049 -3.11227195 0 0 0 Z " fill="#E9EBF1" transform="translate(105,18)"/>
<path d="M0 0 C2.95839355 -0.02689449 5.91654427 -0.04678741 8.875 -0.0625 C9.71675781 -0.07087891 10.55851562 -0.07925781 11.42578125 -0.08789062 C12.23144531 -0.09111328 13.03710938 -0.09433594 13.8671875 -0.09765625 C14.98262939 -0.10551147 14.98262939 -0.10551147 16.12060547 -0.11352539 C18 0 18 0 20 1 C19.690625 2.175625 19.690625 2.175625 19.375 3.375 C19.25125 4.24125 19.1275 5.1075 19 6 C19.66 6.66 20.32 7.32 21 8 C21.22705078 10.61376953 21.22705078 10.61376953 21.1953125 13.8828125 C21.18886719 15.04941406 21.18242188 16.21601562 21.17578125 17.41796875 C21.15902344 18.64128906 21.14226562 19.86460938 21.125 21.125 C21.11597656 22.35605469 21.10695313 23.58710937 21.09765625 24.85546875 C21.07402548 27.90383815 21.04108054 30.95182382 21 34 C23.31 34 25.62 34 28 34 C28.33 34.99 28.66 35.98 29 37 C20.19039858 38.30512614 11.80960142 38.30512614 3 37 C3.33 36.01 3.66 35.02 4 34 C8.29 34 12.58 34 17 34 C17 27.4 17 20.8 17 14 C13.7 14 10.4 14 7 14 C7 11.03 7 8.06 7 5 C4.69 5 2.38 5 0 5 C0 3.35 0 1.7 0 0 Z " fill="#3AC5D6" transform="translate(98,49)"/>
<path d="M0 0 C0.99 0 1.98 0 3 0 C3 9.57 3 19.14 3 29 C19.83 29 36.66 29 54 29 C54 19.43 54 9.86 54 0 C54.99 0 55.98 0 57 0 C57.04938628 4.23582327 57.08571263 8.47149465 57.10986328 12.70751953 C57.11992963 14.14895547 57.1335838 15.59037095 57.15087891 17.03173828 C57.17510012 19.10193934 57.18647641 21.17187076 57.1953125 23.2421875 C57.21102295 25.11173096 57.21102295 25.11173096 57.22705078 27.01904297 C57 30 57 30 55 32 C52.76086426 32.25396729 52.76086426 32.25396729 49.93945312 32.25878906 C48.35771301 32.26824554 48.35771301 32.26824554 46.74401855 32.27789307 C45.60130493 32.2738446 44.45859131 32.26979614 43.28125 32.265625 C41.52802429 32.26849518 41.52802429 32.26849518 39.73937988 32.27142334 C37.26456487 32.27278626 34.78974274 32.26908241 32.31494141 32.26074219 C28.51578795 32.25004446 24.71710741 32.26063418 20.91796875 32.2734375 C18.51822812 32.27211592 16.11848778 32.26955357 13.71875 32.265625 C12.00467957 32.27169769 12.00467957 32.27169769 10.25598145 32.27789307 C9.20148804 32.27158875 8.14699463 32.26528442 7.06054688 32.25878906 C6.1294812 32.25719788 5.19841553 32.25560669 4.23913574 32.25396729 C2 32 2 32 0 30 C-0.22705078 27.01904297 -0.22705078 27.01904297 -0.1953125 23.2421875 C-0.1924826 22.57913605 -0.18965271 21.91608459 -0.18673706 21.23294067 C-0.17553435 19.11344417 -0.15043051 16.99436896 -0.125 14.875 C-0.11497028 13.43880818 -0.10584441 12.00260975 -0.09765625 10.56640625 C-0.075595 7.04413372 -0.04106494 3.52210797 0 0 Z " fill="#38D1CC" transform="translate(41,49)"/>
<path d="M0 0 C1.58206057 0.00667536 3.16410534 0.0186375 4.74609375 0.03515625 C5.55240234 0.03966797 6.35871094 0.04417969 7.18945312 0.04882812 C9.18753131 0.06065107 11.18557158 0.07858711 13.18359375 0.09765625 C13.21043687 2.91021906 13.23035563 5.72252866 13.24609375 8.53515625 C13.25447266 9.33759766 13.26285156 10.14003906 13.27148438 10.96679688 C13.28010805 13.01060846 13.23587525 15.05449527 13.18359375 17.09765625 C11.36243372 18.91881628 8.87687611 18.23000705 6.45703125 18.234375 C5.70679687 18.23050781 4.9565625 18.22664063 4.18359375 18.22265625 C3.05824219 18.22845703 3.05824219 18.22845703 1.91015625 18.234375 C-3.68979572 18.22426678 -3.68979572 18.22426678 -4.81640625 17.09765625 C-4.91621839 14.42034245 -4.955205 11.7746145 -4.94140625 9.09765625 C-4.94527344 8.34742187 -4.94914062 7.5971875 -4.953125 6.82421875 C-4.94103514 0.12643386 -4.94103514 0.12643386 0 0 Z " fill="#3DCFE4" transform="translate(109.81640625,95.90234375)"/>
<path d="M0 0 C1.98 0 3.96 0 6 0 C6.33 0.66 6.66 1.32 7 2 C15.25 2 23.5 2 32 2 C32.33 1.34 32.66 0.68 33 0 C35.64 0 38.28 0 41 0 C40.34 0.33 39.68 0.66 39 1 C38.67 1.66 38.34 2.32 38 3 C37.01 2.67 36.02 2.34 35 2 C35 2.99 35 3.98 35 5 C34.68578929 7.00309329 34.3548954 9.00371336 34 11 C30.18801888 11.19920413 26.37541851 11.38220438 22.5625 11.5625 C21.49322266 11.61857422 20.42394531 11.67464844 19.32226562 11.73242188 C13.07356604 12.01905947 7.18785317 11.96625215 1 11 C0 10 0 10 -0.09765625 7.71484375 C-0.08605469 6.79832031 -0.07445313 5.88179688 -0.0625 4.9375 C-0.05347656 4.01839844 -0.04445313 3.09929687 -0.03515625 2.15234375 C-0.02355469 1.44207031 -0.01195313 0.73179688 0 0 Z " fill="#C2D9FE" transform="translate(27,102)"/>
<path d="M0 0 C8 0 16 0 24 0 C24.33 1.32 24.66 2.64 25 4 C25.66 4 26.32 4 27 4 C27 6.64 27 9.28 27 12 C18.42 12 9.84 12 1 12 C2 9 2 9 3 8 C2.01 7.67 1.02 7.34 0 7 C0 4.69 0 2.38 0 0 Z " fill="#768BFE" transform="translate(74,85)"/>
<path d="M0 0 C5.61 0 11.22 0 17 0 C17 5.61 17 11.22 17 17 C11.39 17 5.78 17 0 17 C0 11.39 0 5.78 0 0 Z " fill="#3E4E9A" transform="translate(15,34)"/>
<path d="M0 0 C1.37091797 0.0009668 1.37091797 0.0009668 2.76953125 0.00195312 C9.48435163 0.04685163 9.48435163 0.04685163 10.625 1.1875 C13.43476518 1.34767166 16.22273596 1.44700534 19.03515625 1.50390625 C19.87719101 1.52468735 20.71922577 1.54546844 21.58677673 1.56687927 C24.28693179 1.63246812 26.98718717 1.69130276 29.6875 1.75 C31.51368241 1.79317637 33.33985454 1.83679036 35.16601562 1.88085938 C39.65223992 1.98815894 44.1385655 2.08939966 48.625 2.1875 C48.625 2.5175 48.625 2.8475 48.625 3.1875 C35.755 3.1875 22.885 3.1875 9.625 3.1875 C9.955 4.5075 10.285 5.8275 10.625 7.1875 C23.165 7.5175 35.705 7.8475 48.625 8.1875 C48.625 8.5175 48.625 8.8475 48.625 9.1875 C35.755 9.1875 22.885 9.1875 9.625 9.1875 C9.625 13.1475 9.625 17.1075 9.625 21.1875 C0.715 21.1875 -8.195 21.1875 -17.375 21.1875 C-17.375 20.8575 -17.375 20.5275 -17.375 20.1875 C-15.725 19.8575 -14.075 19.5275 -12.375 19.1875 C-12.045 17.8675 -11.715 16.5475 -11.375 15.1875 C-13.355 15.1875 -15.335 15.1875 -17.375 15.1875 C-17.375 14.8575 -17.375 14.5275 -17.375 14.1875 C-15.725 13.8575 -14.075 13.5275 -12.375 13.1875 C-12.045 11.8675 -11.715 10.5475 -11.375 9.1875 C-13.355 9.1875 -15.335 9.1875 -17.375 9.1875 C-17.375 8.8575 -17.375 8.5275 -17.375 8.1875 C-15.725 7.8575 -14.075 7.5275 -12.375 7.1875 C-12.045 5.8675 -11.715 4.5475 -11.375 3.1875 C-13.355 3.1875 -15.335 3.1875 -17.375 3.1875 C-17.375 2.8575 -17.375 2.5275 -17.375 2.1875 C-11.48560037 0.14637931 -6.2030285 -0.08528042 0 0 Z M-9.375 2.1875 C-9.375 7.7975 -9.375 13.4075 -9.375 19.1875 C-3.765 19.1875 1.845 19.1875 7.625 19.1875 C7.625 13.5775 7.625 7.9675 7.625 2.1875 C2.015 2.1875 -3.595 2.1875 -9.375 2.1875 Z " fill="#9EE4E0" transform="translate(24.375,31.8125)"/>
<path d="M0 0 C2.31 0 4.62 0 7 0 C7.14541967 4.22880411 7.23411527 8.45696413 7.3125 12.6875 C7.3753418 14.48477539 7.3753418 14.48477539 7.43945312 16.31835938 C7.5608921 25.03767802 7.5608921 25.03767802 5.86474609 27.94775391 C4.48046875 29.33203125 4.48046875 29.33203125 2 31 C0.41596476 29.41596476 0.78025065 27.7228362 0.68359375 25.52734375 C0.64169922 24.62822266 0.59980469 23.72910156 0.55664062 22.80273438 C0.51732422 21.85720703 0.47800781 20.91167969 0.4375 19.9375 C0.39431641 18.98810547 0.35113281 18.03871094 0.30664062 17.06054688 C0.20020724 14.70718647 0.09818992 12.35371646 0 10 C-2.64 10 -5.28 10 -8 10 C-8 8.02 -8 6.04 -8 4 C-5.36 4 -2.72 4 0 4 C0 2.68 0 1.36 0 0 Z " fill="#5A38FF" transform="translate(34,49)"/>
<path d="M0 0 C13.53 0 27.06 0 41 0 C41 1.65 41 3.3 41 5 C27.47 5 13.94 5 0 5 C0 3.35 0 1.7 0 0 Z " fill="#3C3D89" transform="translate(60,97)"/>
<path d="M0 0 C1.32 0.66 2.64 1.32 4 2 C4 4.31 4 6.62 4 9 C5.32 9 6.64 9 8 9 C7.75 11.375 7.75 11.375 7 14 C5.66666667 14.66666667 4.33333333 15.33333333 3 16 C2.18828772 18.55519921 2.18828772 18.55519921 2 21 C0.68 21.33 -0.64 21.66 -2 22 C-2.33 21.34 -2.66 20.68 -3 20 C-5.02463255 19.34786708 -5.02463255 19.34786708 -7 19 C-7 19.66 -7 20.32 -7 21 C-9.86724686 20.42655063 -10.8614515 20.1385485 -13 18 C-12.625 15.375 -12.625 15.375 -12 13 C-13.32 12.67 -14.64 12.34 -16 12 C-15.67 10.35 -15.34 8.7 -15 7 C-12.36 6.67 -9.72 6.34 -7 6 C-7.20625 7.11375 -7.4125 8.2275 -7.625 9.375 C-7.74875 10.57125 -7.8725 11.7675 -8 13 C-6.10244856 15.34973818 -6.10244856 15.34973818 -2.875 15.125 C-1.451875 15.063125 -1.451875 15.063125 0 15 C0.29562367 9.67829506 0.29562367 9.67829506 -2 5 C-1.125 2.3125 -1.125 2.3125 0 0 Z " fill="#EAEBF2" transform="translate(136,57)"/>
<path d="M0 0 C0.83265381 0.00523682 1.66530762 0.01047363 2.52319336 0.01586914 C3.42231445 0.0190918 4.32143555 0.02231445 5.24780273 0.02563477 C6.66609375 0.03820313 6.66609375 0.03820313 8.11303711 0.05102539 C9.06243164 0.05553711 10.01182617 0.06004883 10.98999023 0.06469727 C13.34356776 0.07652429 15.69702188 0.09300514 18.05053711 0.11352539 C18.33928711 0.91790039 18.62803711 1.72227539 18.92553711 2.55102539 C19.78316279 5.24617219 19.78316279 5.24617219 22.05053711 6.11352539 C21.72053711 7.43352539 21.39053711 8.75352539 21.05053711 10.11352539 C18.80053711 10.36352539 18.80053711 10.36352539 16.05053711 10.11352539 C15.41116211 9.43290039 14.77178711 8.75227539 14.11303711 8.05102539 C12.14239317 5.74742147 12.14239317 5.74742147 8.92553711 6.17602539 C5.75878779 6.88047226 5.75878779 6.88047226 4.05053711 10.11352539 C2.39849255 10.81564433 0.73129942 11.48323952 -0.94946289 12.11352539 C-1.60946289 12.77352539 -2.26946289 13.43352539 -2.94946289 14.11352539 C-2.97632227 11.96775903 -2.99579377 9.82189894 -3.01196289 7.67602539 C-3.02356445 6.48106445 -3.03516602 5.28610352 -3.04711914 4.05493164 C-2.9181352 0.16993524 -2.9181352 0.16993524 0 0 Z " fill="#35CED9" transform="translate(107.949462890625,32.886474609375)"/>
<path d="M0 0 C2.64 0 5.28 0 8 0 C8 6.93 8 13.86 8 21 C1.07 21 -5.86 21 -13 21 C-13 20.01 -13 19.02 -13 18 C-2.44191344 17.81548975 -2.44191344 17.81548975 2 19 C2 17.02 2 15.04 2 13 C2.66 13 3.32 13 4 13 C2.94124926 9.59687262 1.99097846 6.98646769 0 4 C0 2.68 0 1.36 0 0 Z " fill="#34D8CA" transform="translate(26,59)"/>
<path d="M0 0 C1.32 0 2.64 0 4 0 C4 6.6 4 13.2 4 20 C6.31 20 8.62 20 11 20 C11.33 20.99 11.66 21.98 12 23 C3.19039858 24.30512614 -5.19039858 24.30512614 -14 23 C-13.505 21.515 -13.505 21.515 -13 20 C-8.71 20 -4.42 20 0 20 C0 13.4 0 6.8 0 0 Z " fill="#4C4CA1" transform="translate(115,63)"/>
<path d="M0 0 C1.31871094 -0.01224609 2.63742188 -0.02449219 3.99609375 -0.03710938 C5.90068359 -0.04000977 5.90068359 -0.04000977 7.84375 -0.04296875 C9.00068359 -0.04707764 10.15761719 -0.05118652 11.34960938 -0.05541992 C14.47736509 0.18575467 16.680892 0.85423629 19.5 2.1875 C18.5 4.1875 18.5 4.1875 16.84521484 4.80200195 C11.99200924 5.59975457 7.04404055 5.37340312 2.13769531 5.37280273 C0.13863013 5.37498512 -1.86039532 5.39349143 -3.859375 5.41210938 C-5.13039063 5.41404297 -6.40140625 5.41597656 -7.7109375 5.41796875 C-8.86899902 5.42207764 -10.02706055 5.42618652 -11.22021484 5.43041992 C-14.61310954 5.17912245 -17.33332989 4.39923908 -20.5 3.1875 C-20.17 2.5275 -19.84 1.8675 -19.5 1.1875 C-13.23640183 -0.60566158 -6.45139424 0.00315317 0 0 Z " fill="#EAEBF2" transform="translate(114.5,125.8125)"/>
<path d="M0 0 C0.99 0 1.98 0 3 0 C3.02505615 0.87325928 3.0501123 1.74651855 3.07592773 2.64624023 C3.17087709 5.87602552 3.27012029 9.10564154 3.37231445 12.33520508 C3.41571434 13.73489199 3.45738564 15.13463359 3.49731445 16.53442383 C3.55489445 18.54261495 3.61914 20.55061149 3.68359375 22.55859375 C3.72025146 23.76829834 3.75690918 24.97800293 3.79467773 26.22436523 C3.68938266 28.90705456 3.68938266 28.90705456 5 30 C6.56448383 30.12263388 8.13432772 30.17779522 9.70336914 30.20532227 C11.20481224 30.2352401 11.20481224 30.2352401 12.73658752 30.26576233 C14.36937904 30.29083107 14.36937904 30.29083107 16.03515625 30.31640625 C17.14354355 30.33718735 18.25193085 30.35796844 19.39390564 30.37937927 C22.95003808 30.44499623 26.50624703 30.50381596 30.0625 30.5625 C32.46680493 30.60567368 34.87110199 30.64928758 37.27539062 30.69335938 C43.18351185 30.80068992 49.09170991 30.90243331 55 31 C55 31.33 55 31.66 55 32 C47.48863592 32.05057965 39.97731551 32.08568257 32.46582031 32.10986328 C29.90883747 32.11994038 27.35186621 32.13360226 24.79492188 32.15087891 C21.12627308 32.17505217 17.45777621 32.18646585 13.7890625 32.1953125 C12.0655809 32.21079636 12.0655809 32.21079636 10.30728149 32.22659302 C9.2463327 32.22674408 8.18538391 32.22689514 7.09228516 32.22705078 C6.15518707 32.231492 5.21808899 32.23593323 4.25259399 32.24050903 C2 32 2 32 0 30 C-0.22705078 27.01904297 -0.22705078 27.01904297 -0.1953125 23.2421875 C-0.1924826 22.57913605 -0.18965271 21.91608459 -0.18673706 21.23294067 C-0.17553435 19.11344417 -0.15043051 16.99436896 -0.125 14.875 C-0.11497028 13.43880818 -0.10584441 12.00260975 -0.09765625 10.56640625 C-0.075595 7.04413372 -0.04106494 3.52210797 0 0 Z " fill="#469FE9" transform="translate(41,49)"/>
<path d="M0 0 C0 5.61 0 11.22 0 17 C0.99 17 1.98 17 3 17 C3 18.65 3 20.3 3 22 C0.69 22 -1.62 22 -4 22 C-4 15.73 -4 9.46 -4 3 C-10.27 3 -16.54 3 -23 3 C-23 2.34 -23 1.68 -23 1 C-19.91675903 0.83159521 -16.83339379 0.66558138 -13.75 0.5 C-12.87730469 0.45230469 -12.00460938 0.40460938 -11.10546875 0.35546875 C-10.26113281 0.31035156 -9.41679687 0.26523438 -8.546875 0.21875 C-7.38430176 0.1559082 -7.38430176 0.1559082 -6.19824219 0.09179688 C-4.13373418 0.00558463 -2.0663073 0 0 0 Z " fill="#6F73AA" transform="translate(30,80)"/>
<path d="M0 0 C-0.33 1.98 -0.66 3.96 -1 6 C-0.34 5.01 0.32 4.02 1 3 C1.66 3 2.32 3 3 3 C4.38232443 4.62626404 5.71937515 6.2925002 7 8 C5.02 8.99 5.02 8.99 3 10 C3 10.66 3 11.32 3 12 C2.34 12 1.68 12 1 12 C1 11.01 1 10.02 1 9 C-0.98491642 9.26676204 -0.98491642 9.26676204 -3 10 C-3.33 10.99 -3.66 11.98 -4 13 C-4.66 13 -5.32 13 -6 13 C-6 11.68 -6 10.36 -6 9 C-6.99 9 -7.98 9 -9 9 C-9.33 9.99 -9.66 10.98 -10 12 C-11.32 10.35 -12.64 8.7 -14 7 C-4.22727273 -1.40909091 -4.22727273 -1.40909091 0 0 Z " fill="#46B6E0" transform="translate(50,88)"/>
<path d="M0 0 C0.33 0 0.66 0 1 0 C1.02684679 2.64590014 1.04676357 5.29153096 1.0625 7.9375 C1.07087891 8.69224609 1.07925781 9.44699219 1.08789062 10.22460938 C1.09652441 12.14994313 1.05224333 14.07535581 1 16 C0 17 0 17 -2.72265625 17.09765625 C-3.82480469 17.08605469 -4.92695313 17.07445313 -6.0625 17.0625 C-7.16722656 17.05347656 -8.27195312 17.04445313 -9.41015625 17.03515625 C-10.69212891 17.01775391 -10.69212891 17.01775391 -12 17 C-12 16.34 -12 15.68 -12 15 C-11.34 15 -10.68 15 -10 15 C-10 14.34 -10 13.68 -10 13 C-9.34 13 -8.68 13 -8 13 C-8 12.01 -8 11.02 -8 10 C-8.66 10 -9.32 10 -10 10 C-10 9.34 -10 8.68 -10 8 C-8.33333333 7 -6.66666667 6 -5 5 C-3.3142876 3.35259924 -1.6436814 1.68933922 0 0 Z " fill="#35DDC4" transform="translate(134,46)"/>
<path d="M0 0 C0.66 0 1.32 0 2 0 C2.02685938 2.14576637 2.04633088 4.29162645 2.0625 6.4375 C2.07410156 7.63246094 2.08570312 8.82742187 2.09765625 10.05859375 C2 13 2 13 1 14 C-1.35313555 14.07271741 -3.70833668 14.08370868 -6.0625 14.0625 C-7.35285156 14.05347656 -8.64320312 14.04445313 -9.97265625 14.03515625 C-10.97167969 14.02355469 -11.97070312 14.01195313 -13 14 C-13 13.34 -13 12.68 -13 12 C-12.34 12 -11.68 12 -11 12 C-10.67 11.01 -10.34 10.02 -10 9 C-9.34 8.01 -8.68 7.02 -8 6 C-7.34 6 -6.68 6 -6 6 C-4.29220027 4.37550757 -2.62449243 2.70779973 -1 1 C-0.67 0.67 -0.34 0.34 0 0 Z " fill="#3AD8D9" transform="translate(121,100)"/>
<path d="M0 0 C0.99 0 1.98 0 3 0 C3 0.66 3 1.32 3 2 C4.65 1.67 6.3 1.34 8 1 C9.25664978 3.90600261 10 5.79604584 10 9 C9.01 9.495 9.01 9.495 8 10 C7.67 10.99 7.34 11.98 7 13 C4.69 13 2.38 13 0 13 C-0.33 11.35 -0.66 9.7 -1 8 C-1.66 8 -2.32 8 -3 8 C-3 6.68 -3 5.36 -3 4 C-2.01 4 -1.02 4 0 4 C0 2.68 0 1.36 0 0 Z " fill="#F6FCFD" transform="translate(20,63)"/>
<path d="M0 0 C2.875 1 2.875 1 4.25 3.0625 C4.45625 3.701875 4.6625 4.34125 4.875 5 C6.525 5 8.175 5 9.875 5 C10.205 5.99 10.535 6.98 10.875 8 C3.285 8 -4.305 8 -12.125 8 C-11.795 7.01 -11.465 6.02 -11.125 5 C-10.526875 4.855625 -9.92875 4.71125 -9.3125 4.5625 C-6.9166207 4.1646438 -6.9166207 4.1646438 -5.25 1.875 C-3.125 0 -3.125 0 0 0 Z " fill="#F8FDFD" transform="translate(119.125,38)"/>
<path d="M0 0 C2.64 0 5.28 0 8 0 C8 1.98 8 3.96 8 6 C7.34 6 6.68 6 6 6 C6 6.99 6 7.98 6 9 C3.47524538 10.26237731 1.68799534 10.09856404 -1.125 10.0625 C-2.03507812 10.05347656 -2.94515625 10.04445313 -3.8828125 10.03515625 C-4.58148438 10.02355469 -5.28015625 10.01195313 -6 10 C-5.34 9.01 -4.68 8.02 -4 7 C-4 6.01 -4 5.02 -4 4 C-2.68 3.34 -1.36 2.68 0 2 C0 1.34 0 0.68 0 0 Z " fill="#6459FE" transform="translate(119,86)"/>
<path d="M0 0 C2.31 0 4.62 0 7 0 C7.76681614 8.77578475 7.76681614 8.77578475 5.88671875 11.77734375 C4.5 13.125 4.5 13.125 2 15 C2.33 15.66 2.66 16.32 3 17 C2.01 17.33 1.02 17.66 0 18 C0 12.06 0 6.12 0 0 Z " fill="#6C74FE" transform="translate(98,54)"/>
<path d="M0 0 C2.95839355 -0.02689449 5.91654427 -0.04678741 8.875 -0.0625 C9.71675781 -0.07087891 10.55851562 -0.07925781 11.42578125 -0.08789062 C12.23144531 -0.09111328 13.03710938 -0.09433594 13.8671875 -0.09765625 C14.98262939 -0.10551147 14.98262939 -0.10551147 16.12060547 -0.11352539 C18 0 18 0 20 1 C20 2.32 20 3.64 20 5 C13.4 5 6.8 5 0 5 C0 3.35 0 1.7 0 0 Z " fill="#34AEC5" transform="translate(98,49)"/>
<path d="M0 0 C1.58206057 0.00667536 3.16410534 0.0186375 4.74609375 0.03515625 C5.55240234 0.03966797 6.35871094 0.04417969 7.18945312 0.04882812 C9.18753131 0.06065107 11.18557158 0.07858711 13.18359375 0.09765625 C12.26900391 0.55205078 12.26900391 0.55205078 11.3359375 1.015625 C7.57197328 2.90785384 4.58940495 4.68194721 1.62109375 7.72265625 C-0.81835046 10.09955061 -1.64231641 10.49370681 -4.81640625 11.09765625 C-4.84328776 9.45191059 -4.86274748 7.80604212 -4.87890625 6.16015625 C-4.89050781 5.24363281 -4.90210938 4.32710938 -4.9140625 3.3828125 C-4.74806315 -0.5015722 -4.08167578 0.10444411 0 0 Z " fill="#41A8E5" transform="translate(37.81640625,85.90234375)"/>
<path d="M0 0 C1.93166016 0.01740234 1.93166016 0.01740234 3.90234375 0.03515625 C5.19269531 0.04417969 6.48304687 0.05320312 7.8125 0.0625 C8.81152344 0.07410156 9.81054688 0.08570312 10.83984375 0.09765625 C9.90011719 0.78794922 9.90011719 0.78794922 8.94140625 1.4921875 C6.8353093 3.01718874 6.8353093 3.01718874 5.21484375 4.78515625 C3.83984375 6.09765625 3.83984375 6.09765625 1.83984375 6.09765625 C1.83984375 6.75765625 1.83984375 7.41765625 1.83984375 8.09765625 C-0.14015625 9.08765625 -0.14015625 9.08765625 -2.16015625 10.09765625 C-2.16015625 11.08765625 -2.16015625 12.07765625 -2.16015625 13.09765625 C-2.82015625 13.09765625 -3.48015625 13.09765625 -4.16015625 13.09765625 C-4.18702178 11.11856227 -4.20649 9.13936654 -4.22265625 7.16015625 C-4.23425781 6.05800781 -4.24585937 4.95585938 -4.2578125 3.8203125 C-4.11749553 -0.09172464 -3.97435676 0.12281696 0 0 Z " fill="#40C2EE" transform="translate(109.16015625,95.90234375)"/>
<path d="M0 0 C0 0.33 0 0.66 0 1 C-1.98 1 -3.96 1 -6 1 C-6 6.61 -6 12.22 -6 18 C-4.02 18 -2.04 18 0 18 C0.33 18.66 0.66 19.32 1 20 C-3.95 20 -8.9 20 -14 20 C-14 19.67 -14 19.34 -14 19 C-12.35 18.67 -10.7 18.34 -9 18 C-8.67 16.68 -8.34 15.36 -8 14 C-9.98 14 -11.96 14 -14 14 C-14 13.67 -14 13.34 -14 13 C-12.35 12.67 -10.7 12.34 -9 12 C-8.67 10.68 -8.34 9.36 -8 8 C-9.98 8 -11.96 8 -14 8 C-14 7.67 -14 7.34 -14 7 C-12.35 6.67 -10.7 6.34 -9 6 C-8.67 4.68 -8.34 3.36 -8 2 C-9.98 2 -11.96 2 -14 2 C-14 1.67 -14 1.34 -14 1 C-9.32798795 -0.20568053 -4.78503708 -0.09382426 0 0 Z " fill="#71D8E0" transform="translate(21,33)"/>
<path d="M0 0 C5.97873264 0.11935764 5.97873264 0.11935764 7.08984375 1.23046875 C7.23099536 3.90105726 7.13231482 6.55479113 7.08984375 9.23046875 C6.09984375 9.56046875 5.10984375 9.89046875 4.08984375 10.23046875 C1.90234375 8.91796875 1.90234375 8.91796875 0.08984375 7.23046875 C0.08984375 6.57046875 0.08984375 5.91046875 0.08984375 5.23046875 C-0.57015625 5.23046875 -1.23015625 5.23046875 -1.91015625 5.23046875 C-2.24015625 6.55046875 -2.57015625 7.87046875 -2.91015625 9.23046875 C-3.57015625 9.23046875 -4.23015625 9.23046875 -4.91015625 9.23046875 C-3.93733267 0.4750565 -3.93733267 0.4750565 0 0 Z " fill="#3FC4D8" transform="translate(52.91015625,85.76953125)"/>
<path d="M0 0 C2.64 0 5.28 0 8 0 C8 4.29 8 8.58 8 13 C6.35 13.33 4.7 13.66 3 14 C2.8046875 11.98177083 2.609375 9.96354167 2.4140625 7.9453125 C2.13625251 5.77331755 2.13625251 5.77331755 0 4 C0 2.68 0 1.36 0 0 Z " fill="#3DB4DE" transform="translate(26,59)"/>
<path d="M0 0 C1.32 0 2.64 0 4 0 C4 6.6 4 13.2 4 20 C2.68 19.67 1.36 19.34 0 19 C0 12.73 0 6.46 0 0 Z " fill="#3E3E8B" transform="translate(115,63)"/>
<path d="M0 0 C12.87 0 25.74 0 39 0 C39 0.66 39 1.32 39 2 C29.43 2 19.86 2 10 2 C10 2.66 10 3.32 10 4 C9.01 4 8.02 4 7 4 C7 3.34 7 2.68 7 2 C4.69 2 2.38 2 0 2 C0 1.34 0 0.68 0 0 Z " fill="#68D3E2" transform="translate(34,45)"/>
<path d="M0 0 C8.58 0 17.16 0 26 0 C25.67 0.99 25.34 1.98 25 3 C17.08 3 9.16 3 1 3 C0.67 2.01 0.34 1.02 0 0 Z " fill="#4C4CA0" transform="translate(101,124)"/>
<path d="M0 0 C2.375 -0.125 2.375 -0.125 5 0 C5.66 0.66 6.32 1.32 7 2 C7.33 1.34 7.66 0.68 8 0 C8.99 0 9.98 0 11 0 C11 1.32 11 2.64 11 4 C11.66 4 12.32 4 13 4 C13.33 2.68 13.66 1.36 14 0 C15.32 0 16.64 0 18 0 C18.33 1.32 18.66 2.64 19 4 C15.69005287 5.65497356 12.00877 5.10084335 8.375 5.0625 C7.57320312 5.05798828 6.77140625 5.05347656 5.9453125 5.04882812 C3.96350994 5.03703168 1.98174567 5.01909605 0 5 C0 3.35 0 1.7 0 0 Z " fill="#3DC1C8" transform="translate(33,97)"/>
<path d="M0 0 C4.29 0 8.58 0 13 0 C11 5 11 5 9 8 C9 7.01 9 6.02 9 5 C3.72 5 -1.56 5 -7 5 C-6.34 4.34 -5.68 3.68 -5 3 C-3.68 3 -2.36 3 -1 3 C-0.67 2.01 -0.34 1.02 0 0 Z " fill="#6660FF" transform="translate(53,81)"/>
<path d="M0 0 C0.99 0 1.98 0 3 0 C3 1.65 3 3.3 3 5 C3.99 5 4.98 5 6 5 C6 5.66 6 6.32 6 7 C6.66 7 7.32 7 8 7 C8 7.99 8 8.98 8 10 C7.34 10 6.68 10 6 10 C6 10.66 6 11.32 6 12 C5.34 12 4.68 12 4 12 C4 12.66 4 13.32 4 14 C2.68 14 1.36 14 0 14 C0.04125 13.071875 0.0825 12.14375 0.125 11.1875 C0.27136339 7.84190281 0.27136339 7.84190281 -2 5 C-1.34 5 -0.68 5 0 5 C0 3.35 0 1.7 0 0 Z " fill="#3BDACB" transform="translate(118,49)"/>
<path d="M0 0 C0.66305145 0.02361099 1.32610291 0.04722198 2.00924683 0.07154846 C4.12877879 0.14817441 6.24794435 0.23220268 8.3671875 0.31640625 C9.80336744 0.36962806 11.2395653 0.42236845 12.67578125 0.47460938 C16.19814186 0.60378769 19.72021102 0.73960655 23.2421875 0.87890625 C23.2421875 1.53890625 23.2421875 2.19890625 23.2421875 2.87890625 C12.0221875 2.87890625 0.8021875 2.87890625 -10.7578125 2.87890625 C-7.2277257 -0.65118055 -4.88047604 -0.18455582 0 0 Z " fill="#87B4FE" transform="translate(70.7578125,118.12109375)"/>
<path d="M0 0 C1.67542976 0.28604898 3.34385343 0.61781233 5 1 C5.875 3.5625 5.875 3.5625 6 7 C4.32305393 9.65870248 2.31872993 11.88180887 0 14 C-0.33 14 -0.66 14 -1 14 C-1.02685938 11.85423363 -1.04633088 9.70837355 -1.0625 7.5625 C-1.07410156 6.36753906 -1.08570312 5.17257813 -1.09765625 3.94140625 C-1 1 -1 1 0 0 Z " fill="#32C6DF" transform="translate(106,33)"/>
<path d="M0 0 C0.66 0 1.32 0 2 0 C2.33 1.32 2.66 2.64 3 4 C3.33 3.01 3.66 2.02 4 1 C4.66 1 5.32 1 6 1 C7.38232443 2.62626404 8.71937515 4.2925002 10 6 C8.02 6.99 8.02 6.99 6 8 C6 8.66 6 9.32 6 10 C5.34 10 4.68 10 4 10 C4 9.01 4 8.02 4 7 C2.01508358 7.26676204 2.01508358 7.26676204 0 8 C-0.33 8.99 -0.66 9.98 -1 11 C-1.66 11 -2.32 11 -3 11 C-2.69217504 9.35328588 -2.37860766 7.70764424 -2.0625 6.0625 C-1.88847656 5.14597656 -1.71445312 4.22945313 -1.53515625 3.28515625 C-1 1 -1 1 0 0 Z " fill="#95E0E8" transform="translate(47,90)"/>
<path d="M0 0 C2.31 0 4.62 0 7 0 C7 1.65 7 3.3 7 5 C3.37 5 -0.26 5 -4 5 C-4 6.65 -4 8.3 -4 10 C-5.32 10 -6.64 10 -8 10 C-8 8.02 -8 6.04 -8 4 C-5.36 4 -2.72 4 0 4 C0 2.68 0 1.36 0 0 Z " fill="#3D418D" transform="translate(34,49)"/>
<path d="M0 0 C1.24716797 0.00322266 2.49433594 0.00644531 3.77929688 0.00976562 C5.07287109 0.01814453 6.36644531 0.02652344 7.69921875 0.03515625 C9.66858398 0.04192383 9.66858398 0.04192383 11.67773438 0.04882812 C14.91410885 0.06059676 18.15039053 0.07703865 21.38671875 0.09765625 C21.05671875 0.75765625 20.72671875 1.41765625 20.38671875 2.09765625 C19.73074707 2.11747559 19.07477539 2.13729492 18.39892578 2.15771484 C15.43610806 2.25278132 12.47401343 2.36253377 9.51171875 2.47265625 C7.96291016 2.5190625 7.96291016 2.5190625 6.3828125 2.56640625 C4.90361328 2.62441406 4.90361328 2.62441406 3.39453125 2.68359375 C2.4833252 2.71501465 1.57211914 2.74643555 0.63330078 2.77880859 C-1.81259311 2.89648136 -1.81259311 2.89648136 -3.61328125 5.09765625 C-6.34197532 5.06478042 -8.90994305 4.53367854 -11.61328125 4.09765625 C-11.61328125 3.10765625 -11.61328125 2.11765625 -11.61328125 1.09765625 C-7.68039761 0.16677716 -4.03673962 -0.0184326 0 0 Z " fill="#D9D9E8" transform="translate(106.61328125,125.90234375)"/>
<path d="M0 0 C3.63 0 7.26 0 11 0 C11 0.99 11 1.98 11 3 C8.69 3.66 6.38 4.32 4 5 C4.66 5.66 5.32 6.32 6 7 C4.02 7.66 2.04 8.32 0 9 C0 6.03 0 3.06 0 0 Z " fill="#3EBCDB" transform="translate(105,54)"/>
<path d="M0 0 C0.66 0 1.32 0 2 0 C2.02689216 1.47906892 2.04634621 2.95827483 2.0625 4.4375 C2.07410156 5.26121094 2.08570312 6.08492188 2.09765625 6.93359375 C2 9 2 9 1 10 C-0.51928038 10.07179964 -2.04167482 10.08392007 -3.5625 10.0625 C-4.38878906 10.05347656 -5.21507813 10.04445313 -6.06640625 10.03515625 C-6.70449219 10.02355469 -7.34257813 10.01195313 -8 10 C-8 9.34 -8 8.68 -8 8 C-7.38125 7.9175 -6.7625 7.835 -6.125 7.75 C-3.81562433 7.18741541 -3.81562433 7.18741541 -2.75 4.9375 C-2.5025 4.298125 -2.255 3.65875 -2 3 C-1.34 3 -0.68 3 0 3 C0 2.01 0 1.02 0 0 Z " fill="#38DBCB" transform="translate(121,104)"/>
<path d="M0 0 C2.31 0 4.62 0 7 0 C7 1.66666667 7 3.33333333 7 5 C6.01 5.33 5.02 5.66 4 6 C3.30062468 7.31647119 2.63270867 8.65022151 2 10 C1.01 10.495 1.01 10.495 0 11 C0 7.37 0 3.74 0 0 Z " fill="#5935FF" transform="translate(102,86)"/>
<path d="M0 0 C7.92 0.33 15.84 0.66 24 1 C24 1.33 24 1.66 24 2 C22.96359375 2.06058594 21.9271875 2.12117188 20.859375 2.18359375 C19.48957127 2.26803371 18.11978025 2.35267997 16.75 2.4375 C15.72712891 2.49647461 15.72712891 2.49647461 14.68359375 2.55664062 C10.77462412 2.79685655 10.77462412 2.79685655 6.9375 3.53125 C4.03774289 4.23280414 1.22513107 4.09225131 -1.75 4.0625 C-2.92046875 4.05347656 -4.0909375 4.04445313 -5.296875 4.03515625 C-6.18890625 4.02355469 -7.0809375 4.01195312 -8 4 C-8 3.34 -8 2.68 -8 2 C-5.69 2 -3.38 2 -1 2 C-0.67 1.34 -0.34 0.68 0 0 Z " fill="#94DAE4" transform="translate(106,45)"/>
<path d="M0 0 C2.31 0 4.62 0 7 0 C7 2.31 7 4.62 7 7 C4.69 7 2.38 7 0 7 C0 4.69 0 2.38 0 0 Z " fill="#9FBEFE" transform="translate(91,85)"/>
<path d="M0 0 C0.99 0.66 1.98 1.32 3 2 C4.9896995 2.39013716 6.99019869 2.73202649 9 3 C9.33 2.01 9.66 1.02 10 0 C10 1.65 10 3.3 10 5 C8.35 5.33 6.7 5.66 5 6 C5 5.34 5 4.68 5 4 C-0.28 4 -5.56 4 -11 4 C-11 3.34 -11 2.68 -11 2 C-7.37 2 -3.74 2 0 2 C0 1.34 0 0.68 0 0 Z " fill="#78D9DF" transform="translate(18,73)"/>
<path d="M0 0 C2.64 0 5.28 0 8 0 C8 1.65 8 3.3 8 5 C7.38125 5.268125 6.7625 5.53625 6.125 5.8125 C3.7004767 6.95556848 3.7004767 6.95556848 2 10 C1.01 9.67 0.02 9.34 -1 9 C-0.34 9 0.32 9 1 9 C0.67 6.03 0.34 3.06 0 0 Z " fill="#70D5E4" transform="translate(110,33)"/>
<path d="M0 0 C1.23556641 0.01740234 1.23556641 0.01740234 2.49609375 0.03515625 C3.32238281 0.04417969 4.14867187 0.05320312 5 0.0625 C5.63808594 0.07410156 6.27617188 0.08570312 6.93359375 0.09765625 C6.93359375 0.75765625 6.93359375 1.41765625 6.93359375 2.09765625 C5.94359375 2.09765625 4.95359375 2.09765625 3.93359375 2.09765625 C3.93359375 2.75765625 3.93359375 3.41765625 3.93359375 4.09765625 C3.29421875 4.38640625 2.65484375 4.67515625 1.99609375 4.97265625 C-0.21846704 5.92589076 -0.21846704 5.92589076 -1.06640625 8.09765625 C-1.72640625 8.09765625 -2.38640625 8.09765625 -3.06640625 8.09765625 C-3.10882348 5.7647085 -3.10733562 3.43063058 -3.06640625 1.09765625 C-2.06640625 0.09765625 -2.06640625 0.09765625 0 0 Z " fill="#4597EB" transform="translate(36.06640625,85.90234375)"/>
<path d="M0 0 C0.66 0 1.32 0 2 0 C2 3.3 2 6.6 2 10 C0.02 10.99 0.02 10.99 -2 12 C-2 9.03 -2 6.06 -2 3 C-1.34 3 -0.68 3 0 3 C0 2.01 0 1.02 0 0 Z " fill="#6C71FE" transform="translate(125,92)"/>
<path d="M0 0 C6.27 0 12.54 0 19 0 C19.33 1.98 19.66 3.96 20 6 C18.68 6.33 17.36 6.66 16 7 C15 4 15 4 16 1 C10.72 1 5.44 1 0 1 C0 0.67 0 0.34 0 0 Z " fill="#96DEE6" transform="translate(7,58)"/>
<path d="M0 0 C4.29 0 8.58 0 13 0 C13 0.99 13 1.98 13 3 C9.04 3 5.08 3 1 3 C0.67 2.01 0.34 1.02 0 0 Z " fill="#4CD4D7" transform="translate(33,102)"/>
<path d="M0 0 C1.37478516 0.01740234 1.37478516 0.01740234 2.77734375 0.03515625 C3.69644531 0.04417969 4.61554688 0.05320312 5.5625 0.0625 C6.27277344 0.07410156 6.98304687 0.08570312 7.71484375 0.09765625 C4.71484375 2.09765625 4.71484375 2.09765625 1.71484375 2.09765625 C1.71484375 2.75765625 1.71484375 3.41765625 1.71484375 4.09765625 C0.04817708 5.76432292 -1.61848958 7.43098958 -3.28515625 9.09765625 C-3.3828125 2.9453125 -3.3828125 2.9453125 -3.28515625 1.09765625 C-2.28515625 0.09765625 -2.28515625 0.09765625 0 0 Z " fill="#45B4F5" transform="translate(108.28515625,95.90234375)"/>
<path d="M0 0 C2.97 0 5.94 0 9 0 C8.67 1.32 8.34 2.64 8 4 C5.03 4 2.06 4 -1 4 C-0.67 2.68 -0.34 1.36 0 0 Z " fill="#32C8DD" transform="translate(14,59)"/>
<path d="M0 0 C0 0.33 0 0.66 0 1 C-1.98 1 -3.96 1 -6 1 C-6 3.64 -6 6.28 -6 9 C-8.64 8.67 -11.28 8.34 -14 8 C-14 7.67 -14 7.34 -14 7 C-12.35 6.67 -10.7 6.34 -9 6 C-8.67 4.68 -8.34 3.36 -8 2 C-9.98 2 -11.96 2 -14 2 C-14 1.67 -14 1.34 -14 1 C-9.32798795 -0.20568053 -4.78503708 -0.09382426 0 0 Z " fill="#89D9E8" transform="translate(21,33)"/>
<path d="M0 0 C3.04302358 -0.2535853 4.60646231 -0.24049526 7.25 1.375 C9 3 9 3 10 5 C6.7 5 3.4 5 0 5 C0 3.35 0 1.7 0 0 Z " fill="#34ABC5" transform="translate(33,97)"/>
<path d="M0 0 C1.98 0 3.96 0 6 0 C6 1.98 6 3.96 6 6 C4.02 6 2.04 6 0 6 C0 4.02 0 2.04 0 0 Z " fill="#A6C7FF" transform="translate(83,85)"/>
<path d="M0 0 C1.98 0 3.96 0 6 0 C6 1.98 6 3.96 6 6 C4.02 6 2.04 6 0 6 C0 4.02 0 2.04 0 0 Z " fill="#A6C7FF" transform="translate(74,85)"/>
<path d="M0 0 C2.97 0.495 2.97 0.495 6 1 C6 3.31 6 5.62 6 8 C4.35 8.33 2.7 8.66 1 9 C0.67 6.03 0.34 3.06 0 0 Z " fill="#44C9D2" transform="translate(28,64)"/>
<path d="M0 0 C0.99 0 1.98 0 3 0 C3 1.65 3 3.3 3 5 C3.99 5.33 4.98 5.66 6 6 C5.01 6.99 4.02 7.98 3 9 C-0.875 7.25 -0.875 7.25 -2 5 C-1.34 5 -0.68 5 0 5 C0 3.35 0 1.7 0 0 Z " fill="#E7F8F9" transform="translate(118,49)"/>
<path d="M0 0 C2.31 0 4.62 0 7 0 C7 1.65 7 3.3 7 5 C4.69 5 2.38 5 0 5 C0 3.35 0 1.7 0 0 Z " fill="#3C3E8A" transform="translate(98,49)"/>
<path d="M0 0 C6.6 0 13.2 0 20 0 C20 0.99 20 1.98 20 3 C13.4 2.34 6.8 1.68 0 1 C0 0.67 0 0.34 0 0 Z " fill="#41D1D8" transform="translate(14,32)"/>
<path d="M0 0 C2.625 0.375 2.625 0.375 5 1 C4.01 2.485 4.01 2.485 3 4 C2.01 4 1.02 4 0 4 C0 5.65 0 7.3 0 9 C-0.99 9 -1.98 9 -3 9 C-2.25 2.25 -2.25 2.25 0 0 Z " fill="#41BEDC" transform="translate(51,86)"/>
<path d="M0 0 C0.99 0 1.98 0 3 0 C3 3.96 3 7.92 3 12 C2.01 11.67 1.02 11.34 0 11 C0 7.37 0 3.74 0 0 Z " fill="#3B95D7" transform="translate(41,49)"/>
<path d="M0 0 C1.67542976 0.28604898 3.34385343 0.61781233 5 1 C4.67 2.32 4.34 3.64 4 5 C2.68 5.33 1.36 5.66 0 6 C-0.38218767 4.34385343 -0.71395102 2.67542976 -1 1 C-0.67 0.67 -0.34 0.34 0 0 Z " fill="#52D0DD" transform="translate(22,67)"/>
<path d="M0 0 C0.91007812 0.10183594 1.82015625 0.20367187 2.7578125 0.30859375 C3.45648438 0.39238281 4.15515625 0.47617188 4.875 0.5625 C4.875 1.2225 4.875 1.8825 4.875 2.5625 C0.255 2.5625 -4.365 2.5625 -9.125 2.5625 C-5.92868638 -0.63381362 -4.35745525 -0.5027833 0 0 Z " fill="#98BFFE" transform="translate(69.125,118.4375)"/>
<path d="M0 0 C0.86625 0.556875 0.86625 0.556875 1.75 1.125 C1.42 2.445 1.09 3.765 0.75 5.125 C-0.9 5.125 -2.55 5.125 -4.25 5.125 C-4.91 3.805 -5.57 2.485 -6.25 1.125 C-2.80384615 -1.09038462 -2.80384615 -1.09038462 0 0 Z " fill="#44D2D9" transform="translate(128.25,37.875)"/>
<path d="M0 0 C0.66 0.33 1.32 0.66 2 1 C2 2.65 2 4.3 2 6 C-0.31 6 -2.62 6 -5 6 C-3.35 4.02 -1.7 2.04 0 0 Z " fill="#799AFE" transform="translate(125,118)"/>
<path d="M0 0 C0.99 0 1.98 0 3 0 C3 0.66 3 1.32 3 2 C3.66 2 4.32 2 5 2 C5 2.66 5 3.32 5 4 C4.01 4.33 3.02 4.66 2 5 C1.01 6.485 1.01 6.485 0 8 C0 7.01 0 6.02 0 5 C-0.99 4.67 -1.98 4.34 -3 4 C-2.01 4 -1.02 4 0 4 C0 2.68 0 1.36 0 0 Z " fill="#E2F6F9" transform="translate(20,63)"/>
<path d="M0 0 C0.99 0.33 1.98 0.66 3 1 C2.67 2.98 2.34 4.96 2 7 C0.68 6.67 -0.64 6.34 -2 6 C-1.34 4.02 -0.68 2.04 0 0 Z " fill="#37C4C5" transform="translate(116,56)"/>
<path d="M0 0 C0.33 0 0.66 0 1 0 C1.33 2.97 1.66 5.94 2 9 C1.34 9 0.68 9 0 9 C-0.66 9.66 -1.32 10.32 -2 11 C-1.85892253 9.54119891 -1.71197585 8.08296449 -1.5625 6.625 C-1.48128906 5.81289062 -1.40007812 5.00078125 -1.31640625 4.1640625 C-1 2 -1 2 0 0 Z " fill="#665FFE" transform="translate(104,106)"/>
<path d="M0 0 C0.04241723 2.33294775 0.04092937 4.66702567 0 7 C-1 8 -1 8 -4.0625 8.0625 C-5.031875 8.041875 -6.00125 8.02125 -7 8 C-6.01 7.67 -5.02 7.34 -4 7 C-4 6.34 -4 5.68 -4 5 C-3.34 4.34 -2.68 3.68 -2 3 C-2.33 2.34 -2.66 1.68 -3 1 C-1 0 -1 0 0 0 Z " fill="#35E0BF" transform="translate(60,97)"/>
<path d="M0 0 C0.66 0 1.32 0 2 0 C0.515 5.445 0.515 5.445 -1 11 C-1.66 11 -2.32 11 -3 11 C-2.69217504 9.35328588 -2.37860766 7.70764424 -2.0625 6.0625 C-1.88847656 5.14597656 -1.71445312 4.22945313 -1.53515625 3.28515625 C-1 1 -1 1 0 0 Z " fill="#E0F4F8" transform="translate(47,90)"/>
<path d="M0 0 C1.98 0 3.96 0 6 0 C6 0.99 6 1.98 6 3 C5.01 3.495 5.01 3.495 4 4 C3.01 5.485 3.01 5.485 2 7 C0 5 0 5 -0.125 2.375 C-0.08375 1.59125 -0.0425 0.8075 0 0 Z " fill="#34CEC5" transform="translate(28,72)"/>
<path d="M0 0 C9.41002278 -0.18451025 9.41002278 -0.18451025 14 1 C12.68 1.33 11.36 1.66 10 2 C10 2.66 10 3.32 10 4 C9.01 4 8.02 4 7 4 C7 3.34 7 2.68 7 2 C4.69 2 2.38 2 0 2 C0 1.34 0 0.68 0 0 Z " fill="#96D9E8" transform="translate(34,45)"/>
<path d="M0 0 C0 2.31 0 4.62 0 7 C-0.99 7.33 -1.98 7.66 -3 8 C-3.66 6.68 -4.32 5.36 -5 4 C-4.01 3.67 -3.02 3.34 -2 3 C-2.33 2.34 -2.66 1.68 -3 1 C-1 0 -1 0 0 0 Z " fill="#39CBD0" transform="translate(60,88)"/>
<path d="M0 0 C0.66 0.66 1.32 1.32 2 2 C1.7578125 4.1640625 1.7578125 4.1640625 1.125 6.625 C0.92132813 7.44226563 0.71765625 8.25953125 0.5078125 9.1015625 C0.34023438 9.72804688 0.17265625 10.35453125 0 11 C-0.33 11 -0.66 11 -1 11 C-1.02688151 9.35425434 -1.04634123 7.70838587 -1.0625 6.0625 C-1.07410156 5.14597656 -1.08570313 4.22945312 -1.09765625 3.28515625 C-1 1 -1 1 0 0 Z " fill="#3E9BE9" transform="translate(42,59)"/>
<path d="M0 0 C2.31 0 4.62 0 7 0 C7 0.66 7 1.32 7 2 C4.35261084 3.4606285 3.10551666 4 0 4 C0 2.68 0 1.36 0 0 Z " fill="#33C6DF" transform="translate(13,65)"/>
<path d="M0 0 C-0.185625 0.5775 -0.37125 1.155 -0.5625 1.75 C-1.04023546 4.20692525 -0.75729364 5.64397534 0 8 C-1.65 6.35 -3.3 4.7 -5 3 C-2.25 0 -2.25 0 0 0 Z " fill="#E6F6F9" transform="translate(41,92)"/>
<path d="M0 0 C1.32 0 2.64 0 4 0 C4 1.65 4 3.3 4 5 C2.68 4.67 1.36 4.34 0 4 C0 2.68 0 1.36 0 0 Z " fill="#34ADC5" transform="translate(26,59)"/>
<path d="M0 0 C0.33 0 0.66 0 1 0 C1 1.98 1 3.96 1 6 C-0.65 6.33 -2.3 6.66 -4 7 C-3.02065619 4.06196857 -1.95168368 2.35828444 0 0 Z " fill="#35DFC1" transform="translate(122,107)"/>
<path d="M0 0 C2.97 0 5.94 0 9 0 C6.77810176 2.22189824 4.91517292 2.92598892 2 4 C1.34 2.68 0.68 1.36 0 0 Z " fill="#5A48F2" transform="translate(110,87)"/>
<path d="M0 0 C1.02104551 0.97850195 2.0206121 1.97980427 3 3 C3 3.33 3 3.66 3 4 C0.69 4 -1.62 4 -4 4 C-2 1 -2 1 0 0 Z " fill="#BED7FE" transform="translate(83,114)"/>
<path d="M0 0 C-1.0625 1.5625 -1.0625 1.5625 -3 3 C-6.6875 2.6875 -6.6875 2.6875 -10 2 C-6.5980513 -0.09350689 -3.94727588 -0.17942163 0 0 Z " fill="#52D1DB" transform="translate(121,47)"/>
</svg>
