<?xml version="1.0" encoding="UTF-8"?>
<svg version="1.1" xmlns="http://www.w3.org/2000/svg" width="150" height="150">
<path d="M0 0 C0.061875 0.94875 0.12375 1.8975 0.1875 2.875 C0.66564228 6.13768 0.66564228 6.13768 3.25 7.5 C6.52607711 8.09565038 8.07840301 7.50253559 11 6 C15 11.625 15 11.625 15 15 C15.85464844 14.98839844 16.70929688 14.97679687 17.58984375 14.96484375 C18.69457031 14.95582031 19.79929687 14.94679688 20.9375 14.9375 C22.03964844 14.92589844 23.14179688 14.91429687 24.27734375 14.90234375 C27 15 27 15 28 16 C28.15825258 17.99782126 28.25119171 20.00088834 28.31640625 22.00390625 C28.37924805 23.82631836 28.37924805 23.82631836 28.44335938 25.68554688 C28.48267578 26.96494141 28.52199219 28.24433594 28.5625 29.5625 C28.60568359 30.84576172 28.64886719 32.12902344 28.69335938 33.45117188 C28.799848 36.63399853 28.90185962 39.81690674 29 43 C30.98 43 32.96 43 35 43 C36.06351675 46.38391693 36.21442982 47.5804634 34.5625 50.8125 C34.046875 51.534375 33.53125 52.25625 33 53 C33.99 53.33 34.98 53.66 36 54 C35.34 55.32 34.68 56.64 34 58 C31.69 58 29.38 58 27 58 C27 58.99 27 59.98 27 61 C25.02 61 23.04 61 21 61 C20.505 59.02 20.505 59.02 20 57 C18.35 56.67 16.7 56.34 15 56 C13.9673198 53.21176345 13.95490707 52.1322726 14.9375 49.25 C15.288125 48.5075 15.63875 47.765 16 47 C14.68 46.34 13.36 45.68 12 45 C12 51.6 12 58.2 12 65 C14.31 65 16.62 65 19 65 C20 66 20 66 20.11352539 69.96899414 C20.1133662 71.74105607 20.10766785 73.5131226 20.09765625 75.28515625 C20.0962413 76.21597519 20.09482635 77.14679413 20.09336853 78.1058197 C20.08775172 81.09141191 20.0751964 84.07693029 20.0625 87.0625 C20.05748716 89.08137913 20.05292388 91.10025943 20.04882812 93.11914062 C20.03777683 98.07945572 20.02050095 103.03971532 20 108 C22.31 108.66 24.62 109.32 27 110 C26 112 26 112 24.34521484 112.61450195 C19.49200924 113.41225457 14.54404055 113.18590312 9.63769531 113.18530273 C7.63863013 113.18748512 5.63960468 113.20599143 3.640625 113.22460938 C2.36960937 113.22654297 1.09859375 113.22847656 -0.2109375 113.23046875 C-1.36899902 113.23457764 -2.52706055 113.23868652 -3.72021484 113.24291992 C-7.11310954 112.99162245 -9.83332989 112.21173908 -13 111 C-12.67 110.34 -12.34 109.68 -12 109 C-9.4375 108.375 -9.4375 108.375 -7 108 C-7.67857056 107.99191315 -8.35714111 107.98382629 -9.05627441 107.97549438 C-16.19572947 107.88863335 -23.33493245 107.7891071 -30.47412109 107.68261719 C-33.12938188 107.64363425 -35.7845665 107.60971702 -38.43994141 107.578125 C-77.83630137 107.1036487 -77.83630137 107.1036487 -84 103 C-84.75 100.375 -84.75 100.375 -85 98 C-86.84725052 97.30840599 -86.84725052 97.30840599 -89 97 C-90.485 97.99 -90.485 97.99 -92 99 C-94.0625 97.25 -94.0625 97.25 -96 95 C-95.78842197 92.60211564 -95.07207819 91.14415639 -94 89 C-94 87.68 -94 86.36 -94 85 C-95.32 84.67 -96.64 84.34 -98 84 C-97.34 81.69 -96.68 79.38 -96 77 C-94.02 77 -92.04 77 -90 77 C-89.34 75.02 -88.68 73.04 -88 71 C-84.535 70.505 -84.535 70.505 -81 70 C-81 68.35 -81 66.7 -81 65 C-87.27 65 -93.54 65 -100 65 C-100 64.34 -100 63.68 -100 63 C-97.03 62.505 -97.03 62.505 -94 62 C-94 61.01 -94 60.02 -94 59 C-95.98 59 -97.96 59 -100 59 C-100 58.34 -100 57.68 -100 57 C-98.02 57 -96.04 57 -94 57 C-94 55.68 -94 54.36 -94 53 C-95.98 53 -97.96 53 -100 53 C-100 52.34 -100 51.68 -100 51 C-98.02 51 -96.04 51 -94 51 C-94 49.68 -94 48.36 -94 47 C-95.98 47 -97.96 47 -100 47 C-100 46.34 -100 45.68 -100 45 C-98.02 45 -96.04 45 -94 45 C-94 44.01 -94 43.02 -94 42 C-95.98 41.67 -97.96 41.34 -100 41 C-100 40.67 -100 40.34 -100 40 C-93.73 40 -87.46 40 -81 40 C-81 38.35 -81 36.7 -81 35 C-87.27 35 -93.54 35 -100 35 C-100 34.67 -100 34.34 -100 34 C-97.525 33.505 -97.525 33.505 -95 33 C-94.67 31.68 -94.34 30.36 -94 29 C-95.98 29 -97.96 29 -100 29 C-100 28.67 -100 28.34 -100 28 C-98.35 27.67 -96.7 27.34 -95 27 C-94.67 25.68 -94.34 24.36 -94 23 C-95.98 23 -97.96 23 -100 23 C-100 22.67 -100 22.34 -100 22 C-98.35 21.67 -96.7 21.34 -95 21 C-94.67 19.68 -94.34 18.36 -94 17 C-95.98 17 -97.96 17 -100 17 C-100 16.67 -100 16.34 -100 16 C-94.11060037 13.95887931 -88.8280285 13.72721958 -82.625 13.8125 C-81.25408203 13.8134668 -81.25408203 13.8134668 -79.85546875 13.81445312 C-73.14064837 13.85935163 -73.14064837 13.85935163 -72 15 C-69.19023482 15.16017166 -66.40226404 15.25950534 -63.58984375 15.31640625 C-62.74780899 15.33718735 -61.90577423 15.35796844 -61.03822327 15.37937927 C-58.33806821 15.44496812 -55.63781283 15.50380276 -52.9375 15.5625 C-51.11131759 15.60567637 -49.28514546 15.64929036 -47.45898438 15.69335938 C-42.97276008 15.80065894 -38.4864345 15.90189966 -34 16 C-34 16.33 -34 16.66 -34 17 C-46.87 17 -59.74 17 -73 17 C-72.67 18.32 -72.34 19.64 -72 21 C-59.46 21.33 -46.92 21.66 -34 22 C-34 22.33 -34 22.66 -34 23 C-46.87 23 -59.74 23 -73 23 C-72.67 24.32 -72.34 25.64 -72 27 C-65.09476424 26.88235328 -58.1896852 26.75752265 -51.28466797 26.62768555 C-48.9354141 26.58436114 -46.58612925 26.54268427 -44.23681641 26.50268555 C-40.8609076 26.44492285 -37.48515439 26.38124532 -34.109375 26.31640625 C-32.53261993 26.29133751 -32.53261993 26.29133751 -30.92401123 26.26576233 C-29.94329651 26.24581711 -28.96258179 26.22587189 -27.95214844 26.20532227 C-26.6597525 26.18200584 -26.6597525 26.18200584 -25.34124756 26.15821838 C-23.10834895 26.00732208 -21.14579455 25.61837728 -19 25 C-19.2784375 23.824375 -19.2784375 23.824375 -19.5625 22.625 C-20 20 -20 20 -19 18 C-20.65 17.34 -22.3 16.68 -24 16 C-22.90931332 12.22454612 -22.0916909 9.52956528 -19 7 C-18.2575 7.37125 -17.515 7.7425 -16.75 8.125 C-14.05716353 9.29515863 -14.05716353 9.29515863 -11.6875 8.125 C-11.130625 7.75375 -10.57375 7.3825 -10 7 C-10 5.02 -10 3.04 -10 1 C-3.375 0 -3.375 0 0 0 Z M-11 14 C-13.2084626 17.31269391 -13.80664241 19.14978851 -13.5546875 23.0625 C-12.4812192 26.81207941 -10.28696911 28.01541488 -7 30 C-4.36163023 30.1672392 -4.36163023 30.1672392 -2 30 C-1.96261719 29.01257813 -1.92523438 28.02515625 -1.88671875 27.0078125 C-1.82097656 25.72648437 -1.75523438 24.44515625 -1.6875 23.125 C-1.62949219 21.84882812 -1.57148437 20.57265625 -1.51171875 19.2578125 C-1.34285156 18.18273437 -1.17398438 17.10765625 -1 16 C-0.01 15.34 0.98 14.68 2 14 C0.01607489 11.60148679 0.01607489 11.60148679 -3.8125 11.5625 C-7.17733329 11.66669338 -8.04370031 12.02913354 -11 14 Z M-73 29 C-73 29.66 -73 30.32 -73 31 C-70.69 31 -68.38 31 -66 31 C-66 30.34 -66 29.68 -66 29 C-68.31 29 -70.62 29 -73 29 Z M20 47 C19.6366844 49.83386167 19.6431329 51.40522151 21.125 53.875 C23.92151052 55.55290631 25.93690532 54.74875648 29 54 C29.67673447 50.59679066 29.67673447 50.59679066 30 47 C28.11499729 44.68436913 28.11499729 44.68436913 25 44.75 C21.88500271 44.68436913 21.88500271 44.68436913 20 47 Z M-87.25 80.625 C-89.21985834 82.92308586 -89.21985834 82.92308586 -89.5 86 C-89.21376982 89.06575838 -89.21376982 89.06575838 -87.3125 91.375 C-84.61209763 93.27258004 -83.22939919 93.35882213 -80 93 C-79.85024761 85.94348748 -79.85024761 85.94348748 -81 79 C-84.92212225 78.60967296 -84.92212225 78.60967296 -87.25 80.625 Z M-75 95 C-75.33 96.65 -75.66 98.3 -76 100 C-72.85393539 99.85891477 -69.70821132 99.71123864 -66.5625 99.5625 C-65.68400391 99.52318359 -64.80550781 99.48386719 -63.90039062 99.44335938 C-58.23052738 99.17137332 -52.63551047 98.68222355 -47 98 C-46.67 97.01 -46.34 96.02 -46 95 C-55.57 95 -65.14 95 -75 95 Z M-22 95 C-22 95.99 -22 96.98 -22 98 C-16.72 98.33 -11.44 98.66 -6 99 C-6 97.68 -6 96.36 -6 95 C-11.28 95 -16.56 95 -22 95 Z " fill="#5E52FD" transform="translate(107,18)"/>
<path d="M0 0 C3 2 3 2 3.5625 4.5 C3.706875 5.325 3.85125 6.15 4 7 C4.66 7.66 5.32 8.32 6 9 C4.35 9.99 2.7 10.98 1 12 C1.33 10.68 1.66 9.36 2 8 C1.01 7.34 0.02 6.68 -1 6 C-1.33449533 7.64559756 -1.66756499 9.29148498 -2 10.9375 C-2.2784375 12.31228516 -2.2784375 12.31228516 -2.5625 13.71484375 C-3.03133964 15.77591702 -3.03133964 15.77591702 -3 17 C0.96 17 4.92 17 9 17 C9.33 16.34 9.66 15.68 10 15 C23.53 15 37.06 15 51 15 C51 18.63 51 22.26 51 26 C45.72 26 40.44 26 35 26 C35 26.99 35 27.98 35 29 C35.56847656 28.98839844 36.13695313 28.97679688 36.72265625 28.96484375 C41.60670484 28.90776806 46.18503965 29.18043228 51 30 C51 32.64 51 35.28 51 38 C43.71409984 38.04682155 36.42823335 38.08211748 29.14221191 38.10362434 C25.75718789 38.11395864 22.37226851 38.12792229 18.98730469 38.15087891 C-20.37429989 38.39816171 -20.37429989 38.39816171 -27 34 C-27.75 31.375 -27.75 31.375 -28 29 C-29.84725052 28.30840599 -29.84725052 28.30840599 -32 28 C-32.99 28.66 -33.98 29.32 -35 30 C-37.0625 28.25 -37.0625 28.25 -39 26 C-38.78842197 23.60211564 -38.07207819 22.14415639 -37 20 C-37 18.68 -37 17.36 -37 16 C-38.32 15.67 -39.64 15.34 -41 15 C-40.34 12.69 -39.68 10.38 -39 8 C-37.02 8 -35.04 8 -33 8 C-32.34 6.02 -31.68 4.04 -31 2 C-27.535 1.505 -27.535 1.505 -24 1 C-24 3.97 -24 6.94 -24 10 C-24.969375 10.28875 -25.93875 10.5775 -26.9375 10.875 C-30.10664203 11.64214682 -30.10664203 11.64214682 -31 14 C-31.40270732 18.1283652 -31.40270732 18.1283652 -29.8125 21.8125 C-27.57968261 23.27538036 -25.62655933 23.64505955 -23 24 C-23 21.03 -23 18.06 -23 15 C-17.72 15 -12.44 15 -7 15 C-7 14.34 -7 13.68 -7 13 C-7.928125 12.5978125 -7.928125 12.5978125 -8.875 12.1875 C-11 11 -11 11 -13 8 C-11.35 7.01 -9.7 6.02 -8 5 C-8.33 6.32 -8.66 7.64 -9 9 C-8.34 8.67 -7.68 8.34 -7 8 C-6.01 7.67 -5.02 7.34 -4 7 C-3.896875 6.21625 -3.79375 5.4325 -3.6875 4.625 C-3 2 -3 2 0 0 Z M-18 26 C-18.33 27.65 -18.66 29.3 -19 31 C-15.85393539 30.85891477 -12.70821132 30.71123864 -9.5625 30.5625 C-8.68400391 30.52318359 -7.80550781 30.48386719 -6.90039062 30.44335938 C-1.23052738 30.17137332 4.36448953 29.68222355 10 29 C10.33 28.01 10.66 27.02 11 26 C1.43 26 -8.14 26 -18 26 Z " fill="#BAD4FE" transform="translate(50,87)"/>
<path d="M0 0 C16.83 0 33.66 0 51 0 C51 10.23 51 20.46 51 31 C34.17 31 17.34 31 0 31 C0 20.77 0 10.54 0 0 Z " fill="#474E93" transform="translate(44,47)"/>
<path d="M0 0 C0.061875 0.94875 0.12375 1.8975 0.1875 2.875 C0.66564228 6.13768 0.66564228 6.13768 3.25 7.5 C6.52607711 8.09565038 8.07840301 7.50253559 11 6 C15 11.625 15 11.625 15 15 C16.28197266 14.98259766 16.28197266 14.98259766 17.58984375 14.96484375 C18.69457031 14.95582031 19.79929688 14.94679688 20.9375 14.9375 C22.03964844 14.92589844 23.14179688 14.91429687 24.27734375 14.90234375 C27 15 27 15 28 16 C28.15825258 17.99782126 28.25119171 20.00088834 28.31640625 22.00390625 C28.35830078 23.21884766 28.40019531 24.43378906 28.44335938 25.68554688 C28.48267578 26.96494141 28.52199219 28.24433594 28.5625 29.5625 C28.60568359 30.84576172 28.64886719 32.12902344 28.69335938 33.45117188 C28.799848 36.63399853 28.90185962 39.81690674 29 43 C30.98 43 32.96 43 35 43 C36.06351675 46.38391693 36.21442982 47.5804634 34.5625 50.8125 C34.046875 51.534375 33.53125 52.25625 33 53 C33.99 53.33 34.98 53.66 36 54 C35.34 55.32 34.68 56.64 34 58 C31.69 58 29.38 58 27 58 C27 58.99 27 59.98 27 61 C25.02 61 23.04 61 21 61 C20.505 59.02 20.505 59.02 20 57 C18.35 56.67 16.7 56.34 15 56 C13.9673198 53.21176345 13.95490707 52.1322726 14.9375 49.25 C15.4634375 48.13625 15.4634375 48.13625 16 47 C14.35 46.34 12.7 45.68 11 45 C11.04125 44.071875 11.0825 43.14375 11.125 42.1875 C11.27136339 38.84190281 11.27136339 38.84190281 9 36 C9.66 36 10.32 36 11 36 C11 34.35 11 32.7 11 31 C4.4 31 -2.2 31 -9 31 C-9 30.34 -9 29.68 -9 29 C-6.69 29.33 -4.38 29.66 -2 30 C-2.05220703 28.51886719 -2.05220703 28.51886719 -2.10546875 27.0078125 C-2.13253906 25.72648437 -2.15960938 24.44515625 -2.1875 23.125 C-2.23970703 21.21074219 -2.23970703 21.21074219 -2.29296875 19.2578125 C-2.19628906 18.18273437 -2.09960938 17.10765625 -2 16 C-1.01 15.34 -0.02 14.68 1 14 C-0.21589984 12.56844101 -0.21589984 12.56844101 -3.8125 12.6875 C-6.78617685 12.74622611 -7.87751147 12.92650688 -10.5 14.5 C-12.71177972 18.18629954 -12.34421275 20.73176192 -12 25 C-11.67 25.66 -11.34 26.32 -11 27 C-14.96 27 -18.92 27 -23 27 C-21.68 26.34 -20.36 25.68 -19 25 C-19.185625 24.21625 -19.37125 23.4325 -19.5625 22.625 C-20 20 -20 20 -19 18 C-21.475 17.01 -21.475 17.01 -24 16 C-22.90931332 12.22454612 -22.0916909 9.52956528 -19 7 C-17.88625 7.556875 -17.88625 7.556875 -16.75 8.125 C-14.05716353 9.29515863 -14.05716353 9.29515863 -11.6875 8.125 C-11.130625 7.75375 -10.57375 7.3825 -10 7 C-10 5.02 -10 3.04 -10 1 C-3.375 0 -3.375 0 0 0 Z M20 47 C19.6366844 49.83386167 19.6431329 51.40522151 21.125 53.875 C23.92151052 55.55290631 25.93690532 54.74875648 29 54 C29.67673447 50.59679066 29.67673447 50.59679066 30 47 C28.11499729 44.68436913 28.11499729 44.68436913 25 44.75 C21.88500271 44.68436913 21.88500271 44.68436913 20 47 Z " fill="#35DCC5" transform="translate(107,18)"/>
<path d="M0 0 C2.31 0 4.62 0 7 0 C7 2.97 7 5.94 7 9 C11.62 9 16.24 9 21 9 C21 15.6 21 22.2 21 29 C23.31 29 25.62 29 28 29 C29 30 29 30 29.11352539 31.85766602 C29.10567017 33.04380493 29.10567017 33.04380493 29.09765625 34.25390625 C29.09282227 35.53491211 29.09282227 35.53491211 29.08789062 36.84179688 C29.07532227 38.18854492 29.07532227 38.18854492 29.0625 39.5625 C29.05798828 40.46419922 29.05347656 41.36589844 29.04882812 42.29492188 C29.03700225 44.53001314 29.0205222 46.76497437 29 49 C27.68 49.33 26.36 49.66 25 50 C25 47.36 25 44.72 25 42 C16.585 42.495 16.585 42.495 8 43 C7.67 46.96 7.34 50.92 7 55 C6.34 55 5.68 55 5 55 C4.505 55.99 4.505 55.99 4 57 C4 48.75 4 40.5 4 32 C2.68 32.66 1.36 33.32 0 34 C-0.99 34 -1.98 34 -3 34 C-3 33.01 -3 32.02 -3 31 C-8.94 31 -14.88 31 -21 31 C-21 33.31 -21 35.62 -21 38 C-18.36 38 -15.72 38 -13 38 C-12.67 38.66 -12.34 39.32 -12 40 C-11.01 40 -10.02 40 -9 40 C-9 40.66 -9 41.32 -9 42 C-11.76617563 43.38308781 -14.01018 43.11210196 -17.1015625 43.09765625 C-18.91914062 43.09282227 -18.91914062 43.09282227 -20.7734375 43.08789062 C-22.04445313 43.07951172 -23.31546875 43.07113281 -24.625 43.0625 C-25.90375 43.05798828 -27.1825 43.05347656 -28.5 43.04882812 C-31.66671292 43.03701203 -34.83333356 43.02053815 -38 43 C-38.33 39.37 -38.66 35.74 -39 32 C-37.68 31.67 -36.36 31.34 -35 31 C-34.56316895 30.33121826 -34.12633789 29.66243652 -33.67626953 28.97338867 C-32 27 -32 27 -28.92138672 26.4699707 C-27.68662598 26.45538818 -26.45186523 26.44080566 -25.1796875 26.42578125 C-24.52042267 26.41161667 -23.86115784 26.39745209 -23.18191528 26.38285828 C-21.07944357 26.340967 -18.97783031 26.32571779 -16.875 26.3125 C-14.76542704 26.28347358 -12.65607322 26.24898188 -10.54666138 26.21000671 C-8.63786218 26.17721033 -6.72882634 26.15919119 -4.81982422 26.1418457 C-2.09733504 26.32089809 -2.09733504 26.32089809 -1 25 C-0.84213692 23.14825294 -0.74892644 21.2909089 -0.68359375 19.43359375 C-0.62075195 17.7465332 -0.62075195 17.7465332 -0.55664062 16.02539062 C-0.51732422 14.84138672 -0.47800781 13.65738281 -0.4375 12.4375 C-0.37272461 10.65569336 -0.37272461 10.65569336 -0.30664062 8.83789062 C-0.20016454 5.89205216 -0.09815159 2.9461257 0 0 Z " fill="#6F7DFD" transform="translate(98,54)"/>
<path d="M0 0 C5.94 0 11.88 0 18 0 C18 0.99 18 1.98 18 3 C18.598125 2.67 19.19625 2.34 19.8125 2 C22 1 22 1 25 1 C25.33 8.59 25.66 16.18 26 24 C26.66 24 27.32 24 28 24 C27.98839844 23.14535156 27.97679688 22.29070312 27.96484375 21.41015625 C27.95582031 20.30542969 27.94679688 19.20070313 27.9375 18.0625 C27.92589844 16.96035156 27.91429688 15.85820313 27.90234375 14.72265625 C28 12 28 12 29 11 C31.86267567 10.92674832 34.700719 10.90761795 37.5625 10.9375 C38.36880859 10.94201172 39.17511719 10.94652344 40.00585938 10.95117188 C42.00393756 10.96299482 44.00197783 10.98093086 46 11 C46.495 14.465 46.495 14.465 47 18 C47.99 18 48.98 18 50 18 C50 25.59 50 33.18 50 41 C52.31 41.66 54.62 42.32 57 43 C56 45 56 45 54.34521484 45.61450195 C49.49200924 46.41225457 44.54404055 46.18590312 39.63769531 46.18530273 C37.63863013 46.18748512 35.63960468 46.20599143 33.640625 46.22460938 C32.36960938 46.22654297 31.09859375 46.22847656 29.7890625 46.23046875 C28.63100098 46.23457764 27.47293945 46.23868652 26.27978516 46.24291992 C22.88689046 45.99162245 20.16667011 45.21173908 17 44 C18 42 18 42 24 40 C24 30.76 24 21.52 24 12 C19.38 12 14.76 12 10 12 C10.66 11.67 11.32 11.34 12 11 C10.68 10.34 9.36 9.68 8 9 C8 8.67 8 8.34 8 8 C5.36 7.67 2.72 7.34 0 7 C0 4.69 0 2.38 0 0 Z " fill="#6667EE" transform="translate(77,85)"/>
<path d="M0 0 C0 2.97 0 5.94 0 9 C-0.969375 9.28875 -1.93875 9.5775 -2.9375 9.875 C-6.10664203 10.64214682 -6.10664203 10.64214682 -7 13 C-7.45565588 17.050918 -7.45565588 17.050918 -5.80859375 20.5859375 C-3.56396384 22.34091812 -1.55436719 22.93971804 1.1875 23.6875 C2.08855469 23.93886719 2.98960938 24.19023438 3.91796875 24.44921875 C4.60503906 24.63097656 5.29210937 24.81273438 6 25 C5.67 26.65 5.34 28.3 5 30 C5.70664795 29.84152588 6.4132959 29.68305176 7.14135742 29.51977539 C10.04175234 28.99240834 12.7938127 28.7938145 15.73828125 28.68359375 C17.33833008 28.62075195 17.33833008 28.62075195 18.97070312 28.55664062 C20.07349609 28.51732422 21.17628906 28.47800781 22.3125 28.4375 C23.43462891 28.39431641 24.55675781 28.35113281 25.71289062 28.30664062 C28.47514569 28.20085213 31.2374863 28.09876328 34 28 C33.67 28.66 33.34 29.32 33 30 C30.35139573 30.59355614 27.70802678 30.74209269 25 31 C25 31.66 25 32.32 25 33 C39.19 33 53.38 33 68 33 C67.67 32.34 67.34 31.68 67 31 C65.845 30.835 64.69 30.67 63.5 30.5 C62.345 30.335 61.19 30.17 60 30 C59.505 29.01 59.505 29.01 59 28 C64.45769811 27.88861841 69.61509359 28.08342019 75 29 C75 31.64 75 34.28 75 37 C67.71409984 37.04682155 60.42823335 37.08211748 53.14221191 37.10362434 C49.75718789 37.11395864 46.37226851 37.12792229 42.98730469 37.15087891 C3.62570011 37.39816171 3.62570011 37.39816171 -3 33 C-3.75 30.375 -3.75 30.375 -4 28 C-5.84725052 27.30840599 -5.84725052 27.30840599 -8 27 C-8.99 27.66 -9.98 28.32 -11 29 C-13.0625 27.25 -13.0625 27.25 -15 25 C-14.78842197 22.60211564 -14.07207819 21.14415639 -13 19 C-13 17.68 -13 16.36 -13 15 C-14.32 14.67 -15.64 14.34 -17 14 C-16.34 11.69 -15.68 9.38 -15 7 C-13.02 7 -11.04 7 -9 7 C-8.71125 6.030625 -8.4225 5.06125 -8.125 4.0625 C-6.41901085 -0.58158158 -4.5636993 -0.12009735 0 0 Z " fill="#EAEBF2" transform="translate(26,88)"/>
<path d="M0 0 C12.54 0 25.08 0 38 0 C38.495 1.98 38.495 1.98 39 4 C45.6 4 52.2 4 59 4 C59 6.33333333 59 8.66666667 59 11 C59.185625 11.825 59.37125 12.65 59.5625 13.5 C60 16 60 16 59 18 C54.71 18 50.42 18 46 18 C46 15.03 46 12.06 46 9 C43.69 9 41.38 9 39 9 C39.01571045 10.12027588 39.01571045 10.12027588 39.03173828 11.26318359 C39.0732077 14.63375508 39.09929729 18.004273 39.125 21.375 C39.14175781 22.550625 39.15851563 23.72625 39.17578125 24.9375 C39.18544922 26.61972656 39.18544922 26.61972656 39.1953125 28.3359375 C39.21102295 29.89127197 39.21102295 29.89127197 39.22705078 31.47802734 C39 34 39 34 37 36 C34.76086426 36.25396729 34.76086426 36.25396729 31.93945312 36.25878906 C30.35771301 36.26824554 30.35771301 36.26824554 28.74401855 36.27789307 C27.60130493 36.2738446 26.45859131 36.26979614 25.28125 36.265625 C23.52802429 36.26849518 23.52802429 36.26849518 21.73937988 36.27142334 C19.26456487 36.27278626 16.78974274 36.26908241 14.31494141 36.26074219 C10.51578795 36.25004446 6.71710741 36.26063418 2.91796875 36.2734375 C0.51822812 36.27211592 -1.88151222 36.26955357 -4.28125 36.265625 C-5.99532043 36.27169769 -5.99532043 36.27169769 -7.74401855 36.27789307 C-8.79851196 36.27158875 -9.85300537 36.26528442 -10.93945312 36.25878906 C-11.8705188 36.25719788 -12.80158447 36.25560669 -13.76086426 36.25396729 C-16 36 -16 36 -18 34 C-18.22705078 31.01904297 -18.22705078 31.01904297 -18.1953125 27.2421875 C-18.1924826 26.57913605 -18.18965271 25.91608459 -18.18673706 25.23294067 C-18.17553435 23.11344417 -18.15043051 20.99436896 -18.125 18.875 C-18.11497028 17.43880818 -18.10584441 16.00260975 -18.09765625 14.56640625 C-18.075595 11.04413372 -18.04106494 7.52210797 -18 4 C-17.01 4 -16.02 4 -15 4 C-15 13.57 -15 23.14 -15 33 C1.83 33 18.66 33 36 33 C36 22.77 36 12.54 36 2 C28.26790686 2.03920912 28.26790686 2.03920912 20.53588867 2.09008789 C13.63276289 2.1075442 6.86091352 1.76481467 0 1 C0 0.67 0 0.34 0 0 Z " fill="#37D7C7" transform="translate(59,45)"/>
<path d="M0 0 C1.37091797 0.0009668 1.37091797 0.0009668 2.76953125 0.00195312 C9.48435163 0.04685163 9.48435163 0.04685163 10.625 1.1875 C13.43476518 1.34767166 16.22273596 1.44700534 19.03515625 1.50390625 C19.87719101 1.52468735 20.71922577 1.54546844 21.58677673 1.56687927 C24.28693179 1.63246812 26.98718717 1.69130276 29.6875 1.75 C31.51368241 1.79317637 33.33985454 1.83679036 35.16601562 1.88085938 C39.65223992 1.98815894 44.1385655 2.08939966 48.625 2.1875 C48.625 2.5175 48.625 2.8475 48.625 3.1875 C35.755 3.1875 22.885 3.1875 9.625 3.1875 C9.955 4.5075 10.285 5.8275 10.625 7.1875 C23.165 7.5175 35.705 7.8475 48.625 8.1875 C48.625 8.5175 48.625 8.8475 48.625 9.1875 C35.755 9.1875 22.885 9.1875 9.625 9.1875 C9.955 10.5075 10.285 11.8275 10.625 13.1875 C11.6291394 13.17964478 11.6291394 13.17964478 12.65356445 13.17163086 C15.74819971 13.15057529 18.84281981 13.1377503 21.9375 13.125 C22.99001953 13.11662109 24.04253906 13.10824219 25.12695312 13.09960938 C32.01811686 13.07840579 38.77530513 13.43078318 45.625 14.1875 C45.625 14.5175 45.625 14.8475 45.625 15.1875 C37.045 15.1875 28.465 15.1875 19.625 15.1875 C19.625 15.8475 19.625 16.5075 19.625 17.1875 C18.635 17.1875 17.645 17.1875 16.625 17.1875 C16.625 16.5275 16.625 15.8675 16.625 15.1875 C14.315 15.1875 12.005 15.1875 9.625 15.1875 C9.625 17.1675 9.625 19.1475 9.625 21.1875 C0.715 21.1875 -8.195 21.1875 -17.375 21.1875 C-17.375 20.8575 -17.375 20.5275 -17.375 20.1875 C-15.725 19.8575 -14.075 19.5275 -12.375 19.1875 C-12.045 17.8675 -11.715 16.5475 -11.375 15.1875 C-13.355 15.1875 -15.335 15.1875 -17.375 15.1875 C-17.375 14.8575 -17.375 14.5275 -17.375 14.1875 C-15.725 13.8575 -14.075 13.5275 -12.375 13.1875 C-12.045 11.8675 -11.715 10.5475 -11.375 9.1875 C-13.355 9.1875 -15.335 9.1875 -17.375 9.1875 C-17.375 8.8575 -17.375 8.5275 -17.375 8.1875 C-15.725 7.8575 -14.075 7.5275 -12.375 7.1875 C-12.045 5.8675 -11.715 4.5475 -11.375 3.1875 C-13.355 3.1875 -15.335 3.1875 -17.375 3.1875 C-17.375 2.8575 -17.375 2.5275 -17.375 2.1875 C-11.48560037 0.14637931 -6.2030285 -0.08528042 0 0 Z " fill="#9EE4E0" transform="translate(24.375,31.8125)"/>
<path d="M0 0 C1.12019531 -0.00128906 2.24039063 -0.00257812 3.39453125 -0.00390625 C4.57402344 -0.00003906 5.75351562 0.00382812 6.96875 0.0078125 C8.73798828 0.00201172 8.73798828 0.00201172 10.54296875 -0.00390625 C12.22326172 -0.00197266 12.22326172 -0.00197266 13.9375 0 C14.97326172 0.00112793 16.00902344 0.00225586 17.07617188 0.00341797 C19.46875 0.1328125 19.46875 0.1328125 20.46875 1.1328125 C20.46875 4.4328125 20.46875 7.7328125 20.46875 11.1328125 C33.99875 11.1328125 47.52875 11.1328125 61.46875 11.1328125 C61.46875 12.7828125 61.46875 14.4328125 61.46875 16.1328125 C47.93875 16.1328125 34.40875 16.1328125 20.46875 16.1328125 C20.13875 17.1228125 19.80875 18.1128125 19.46875 19.1328125 C14.51875 19.1328125 9.56875 19.1328125 4.46875 19.1328125 C5.12875 18.4728125 5.78875 17.8128125 6.46875 17.1328125 C7.08713552 14.55191183 7.48528431 11.96741595 7.90625 9.34765625 C8.091875 8.61675781 8.2775 7.88585937 8.46875 7.1328125 C9.12875 6.8028125 9.78875 6.4728125 10.46875 6.1328125 C10.46875 6.7928125 10.46875 7.4528125 10.46875 8.1328125 C11.45875 8.4628125 12.44875 8.7928125 13.46875 9.1328125 C13.13875 10.1228125 12.80875 11.1128125 12.46875 12.1328125 C13.45875 11.4728125 14.44875 10.8128125 15.46875 10.1328125 C14.994375 9.7409375 14.52 9.3490625 14.03125 8.9453125 C12.11695367 6.72472876 11.85608012 4.99905541 11.46875 2.1328125 C10.14875 2.4628125 8.82875 2.7928125 7.46875 3.1328125 C7.345 3.9165625 7.22125 4.7003125 7.09375 5.5078125 C6.46875 8.1328125 6.46875 8.1328125 4.46875 10.1328125 C3.47875 10.4628125 2.48875 10.7928125 1.46875 11.1328125 C1.46875 10.1428125 1.46875 9.1528125 1.46875 8.1328125 C0.47875 8.7928125 -0.51125 9.4528125 -1.53125 10.1328125 C-0.70625 10.7515625 0.11875 11.3703125 0.96875 12.0078125 C1.79375 12.7090625 2.61875 13.4103125 3.46875 14.1328125 C3.46875 14.7928125 3.46875 15.4528125 3.46875 16.1328125 C0.16875 16.1328125 -3.13125 16.1328125 -6.53125 16.1328125 C-6.55810095 13.65357449 -6.57801547 11.1746241 -6.59375 8.6953125 C-6.60631836 7.63473633 -6.60631836 7.63473633 -6.61914062 6.55273438 C-6.62778588 4.74587691 -6.58345011 2.93893647 -6.53125 1.1328125 C-4.78579395 -0.61264355 -2.37000783 0.0025809 0 0 Z " fill="#39D5C9" transform="translate(39.53125,85.8671875)"/>
<path d="M0 0 C3.0000624 -0.02721831 5.99987256 -0.04694378 9 -0.0625 C9.83917969 -0.07087891 10.67835937 -0.07925781 11.54296875 -0.08789062 C12.79013672 -0.09272461 12.79013672 -0.09272461 14.0625 -0.09765625 C15.19365234 -0.10551147 15.19365234 -0.10551147 16.34765625 -0.11352539 C19.91451913 0.03914317 23.45744034 0.55718004 27 1 C27 7.93 27 14.86 27 22 C20.07 22 13.14 22 6 22 C6 21.01 6 20.02 6 19 C4.02 19 2.04 19 0 19 C0 18.34 0 17.68 0 17 C1.98 17 3.96 17 6 17 C6 15.68 6 14.36 6 13 C4.02 13 2.04 13 0 13 C0 12.34 0 11.68 0 11 C1.98 11 3.96 11 6 11 C6 9.68 6 8.36 6 7 C4.02 7 2.04 7 0 7 C0 6.34 0 5.68 0 5 C1.98 5 3.96 5 6 5 C6 4.01 6 3.02 6 2 C3.03 1.505 3.03 1.505 0 1 C0 0.67 0 0.34 0 0 Z " fill="#86D9E4" transform="translate(7,58)"/>
<path d="M0 0 C1.32 0 2.64 0 4 0 C4 6.6 4 13.2 4 20 C6.31 20 8.62 20 11 20 C12 21 12 21 12.11352539 22.85766602 C12.10828857 23.64842529 12.10305176 24.43918457 12.09765625 25.25390625 C12.09443359 26.10791016 12.09121094 26.96191406 12.08789062 27.84179688 C12.07951172 28.73962891 12.07113281 29.63746094 12.0625 30.5625 C12.05798828 31.46419922 12.05347656 32.36589844 12.04882812 33.29492188 C12.03700225 35.53001314 12.0205222 37.76497437 12 40 C10.02 40.495 10.02 40.495 8 41 C8 38.36 8 35.72 8 33 C-0.415 33.495 -0.415 33.495 -9 34 C-9.33 37.96 -9.66 41.92 -10 46 C-10.66 46 -11.32 46 -12 46 C-12.33 46.66 -12.66 47.32 -13 48 C-13.19619224 43.70868391 -13.38048583 39.41693898 -13.5625 35.125 C-13.61857422 33.90167969 -13.67464844 32.67835937 -13.73242188 31.41796875 C-13.78076172 30.25136719 -13.82910156 29.08476563 -13.87890625 27.8828125 C-13.9260376 26.80402832 -13.97316895 25.72524414 -14.02172852 24.61376953 C-14 22 -14 22 -13 20 C-8.71 20 -4.42 20 0 20 C0 13.4 0 6.8 0 0 Z " fill="#5A39FF" transform="translate(115,63)"/>
<path d="M0 0 C1.39456452 0.00667256 2.78911118 0.01863093 4.18359375 0.03515625 C5.2499707 0.04192383 5.2499707 0.04192383 6.33789062 0.04882812 C8.09899388 0.06064761 9.86005411 0.07858362 11.62109375 0.09765625 C11.62109375 3.72765625 11.62109375 7.35765625 11.62109375 11.09765625 C6.34109375 11.09765625 1.06109375 11.09765625 -4.37890625 11.09765625 C-3.88390625 13.07765625 -3.88390625 13.07765625 -3.37890625 15.09765625 C-1.06890625 15.42765625 1.24109375 15.75765625 3.62109375 16.09765625 C4.11609375 17.58265625 4.11609375 17.58265625 4.62109375 19.09765625 C-9.56890625 19.09765625 -23.75890625 19.09765625 -38.37890625 19.09765625 C-38.37890625 18.43765625 -38.37890625 17.77765625 -38.37890625 17.09765625 C-36.36067708 16.70703125 -34.34244792 16.31640625 -32.32421875 15.92578125 C-30.18529131 15.27030223 -30.18529131 15.27030223 -29.42578125 13.0703125 C-29.0803125 12.41933594 -28.73484375 11.76835938 -28.37890625 11.09765625 C-26.13671875 10.453125 -26.13671875 10.453125 -23.50390625 10.28515625 C-22.20839844 10.18267578 -22.20839844 10.18267578 -20.88671875 10.078125 C-18.52138359 10.09654661 -16.6316456 10.41135659 -14.37890625 11.09765625 C-13.71890625 10.10765625 -13.05890625 9.11765625 -12.37890625 8.09765625 C-11.05890625 8.42765625 -9.73890625 8.75765625 -8.37890625 9.09765625 C-8.10175781 8.53175781 -7.82460937 7.96585937 -7.5390625 7.3828125 C-7.17683594 6.64933594 -6.81460938 5.91585937 -6.44140625 5.16015625 C-6.08175781 4.42925781 -5.72210938 3.69835937 -5.3515625 2.9453125 C-3.7272981 -0.14013755 -3.83081978 0.11071733 0 0 Z " fill="#B1CFFE" transform="translate(89.37890625,101.90234375)"/>
<path d="M0 0 C0.061875 0.94875 0.12375 1.8975 0.1875 2.875 C0.66564228 6.13768 0.66564228 6.13768 3.25 7.5 C6.52607711 8.09565038 8.07840301 7.50253559 11 6 C15 11.625 15 11.625 15 15 C12.87527424 15.05386629 10.75016348 15.09273071 8.625 15.125 C6.84996094 15.15980469 6.84996094 15.15980469 5.0390625 15.1953125 C2 15 2 15 0 13 C-5.54235245 12.42765564 -5.54235245 12.42765564 -10.5 14.5 C-12.71177972 18.18629954 -12.34421275 20.73176192 -12 25 C-11.67 25.66 -11.34 26.32 -11 27 C-14.96 27 -18.92 27 -23 27 C-21.68 26.34 -20.36 25.68 -19 25 C-19.185625 24.21625 -19.37125 23.4325 -19.5625 22.625 C-20 20 -20 20 -19 18 C-21.475 17.01 -21.475 17.01 -24 16 C-22.90931332 12.22454612 -22.0916909 9.52956528 -19 7 C-17.88625 7.556875 -17.88625 7.556875 -16.75 8.125 C-14.05716353 9.29515863 -14.05716353 9.29515863 -11.6875 8.125 C-11.130625 7.75375 -10.57375 7.3825 -10 7 C-10 5.02 -10 3.04 -10 1 C-3.375 0 -3.375 0 0 0 Z " fill="#E8EAF1" transform="translate(107,18)"/>
<path d="M0 0 C1.58206057 0.00667536 3.16410534 0.0186375 4.74609375 0.03515625 C5.55240234 0.03966797 6.35871094 0.04417969 7.18945312 0.04882812 C9.18753131 0.06065107 11.18557158 0.07858711 13.18359375 0.09765625 C13.21043687 2.91021906 13.23035563 5.72252866 13.24609375 8.53515625 C13.25447266 9.33759766 13.26285156 10.14003906 13.27148438 10.96679688 C13.28010805 13.01060846 13.23587525 15.05449527 13.18359375 17.09765625 C11.36243372 18.91881628 8.87687611 18.23000705 6.45703125 18.234375 C5.70679687 18.23050781 4.9565625 18.22664063 4.18359375 18.22265625 C3.05824219 18.22845703 3.05824219 18.22845703 1.91015625 18.234375 C-3.68979572 18.22426678 -3.68979572 18.22426678 -4.81640625 17.09765625 C-4.91621839 14.42034245 -4.955205 11.7746145 -4.94140625 9.09765625 C-4.94527344 8.34742187 -4.94914062 7.5971875 -4.953125 6.82421875 C-4.94103514 0.12643386 -4.94103514 0.12643386 0 0 Z " fill="#4CD4E2" transform="translate(109.81640625,95.90234375)"/>
<path d="M0 0 C3 2 3 2 3.5625 4.5 C3.706875 5.325 3.85125 6.15 4 7 C4.66 7.66 5.32 8.32 6 9 C4.35 9.99 2.7 10.98 1 12 C1.33 10.68 1.66 9.36 2 8 C1.01 7.34 0.02 6.68 -1 6 C-1.41846009 7.57750424 -1.80896389 9.16244248 -2.1875 10.75 C-2.40792969 11.63171875 -2.62835938 12.5134375 -2.85546875 13.421875 C-3.25301255 16.09098023 -3.25301255 16.09098023 -1.55078125 18.328125 C-1.03902344 18.87984375 -0.52726562 19.4315625 0 20 C-1.2065625 20.6496875 -1.2065625 20.6496875 -2.4375 21.3125 C-5.27846354 22.80474002 -5.27846354 22.80474002 -6 26 C-8.64590014 26.02684679 -11.29153096 26.04676357 -13.9375 26.0625 C-14.69224609 26.07087891 -15.44699219 26.07925781 -16.22460938 26.08789062 C-18.14994313 26.09652441 -20.07535581 26.05224333 -22 26 C-23 25 -23 25 -23.09765625 22.71484375 C-23.06510417 20.14322917 -23.03255208 17.57161458 -23 15 C-17.72 15 -12.44 15 -7 15 C-7 14.34 -7 13.68 -7 13 C-7.61875 12.731875 -8.2375 12.46375 -8.875 12.1875 C-11 11 -11 11 -13 8 C-11.35 7.01 -9.7 6.02 -8 5 C-8.33 6.32 -8.66 7.64 -9 9 C-8.34 8.67 -7.68 8.34 -7 8 C-6.01 7.67 -5.02 7.34 -4 7 C-3.896875 6.21625 -3.79375 5.4325 -3.6875 4.625 C-3 2 -3 2 0 0 Z " fill="#C5DCFE" transform="translate(50,87)"/>
<path d="M0 0 C5.61 0 11.22 0 17 0 C17 5.61 17 11.22 17 17 C11.39 17 5.78 17 0 17 C0 11.39 0 5.78 0 0 Z " fill="#3E4E9A" transform="translate(15,34)"/>
<path d="M0 0 C1.25554687 -0.00128906 2.51109375 -0.00257812 3.8046875 -0.00390625 C4.46178711 -0.00181152 5.11888672 0.0002832 5.79589844 0.00244141 C7.80411335 0.00779016 9.81210459 0.00249559 11.8203125 -0.00390625 C13.07585937 -0.00261719 14.33140625 -0.00132813 15.625 0 C16.78644531 0.00112793 17.94789063 0.00225586 19.14453125 0.00341797 C21.8125 0.1328125 21.8125 0.1328125 22.8125 1.1328125 C22.98046875 3.12890625 22.98046875 3.12890625 23 5.5703125 C23.01417969 6.37339844 23.02835938 7.17648438 23.04296875 8.00390625 C22.8125 10.1328125 22.8125 10.1328125 20.8125 12.1328125 C20.22082031 11.6996875 19.62914062 11.2665625 19.01953125 10.8203125 C18.22933594 10.2634375 17.43914062 9.7065625 16.625 9.1328125 C15.84769531 8.5759375 15.07039063 8.0190625 14.26953125 7.4453125 C11.50206598 5.96698447 9.90415744 5.72587639 6.8125 6.1328125 C5.8051892 7.46063128 4.80637334 8.79490609 3.8125 10.1328125 C0.20020921 11.90611889 -3.2826377 13.2145262 -7.1875 14.1328125 C-7.21435938 11.98704613 -7.23383088 9.84118605 -7.25 7.6953125 C-7.26160156 6.50035156 -7.27320312 5.30539063 -7.28515625 4.07421875 C-7.11114431 -1.16702086 -4.66394941 0.00452936 0 0 Z " fill="#36D1D4" transform="translate(112.1875,32.8671875)"/>
<path d="M0 0 C2.31 0 4.62 0 7 0 C7.14509751 4.41632177 7.23400818 8.83203193 7.3125 13.25 C7.3753418 15.13138672 7.3753418 15.13138672 7.43945312 17.05078125 C7.45556641 18.25605469 7.47167969 19.46132812 7.48828125 20.703125 C7.51446533 21.81333008 7.54064941 22.92353516 7.56762695 24.06738281 C7 27 7 27 4.46948242 29.39355469 C3.65455322 29.92368164 2.83962402 30.45380859 2 31 C0.41596476 29.41596476 0.78025065 27.7228362 0.68359375 25.52734375 C0.64169922 24.62822266 0.59980469 23.72910156 0.55664062 22.80273438 C0.51732422 21.85720703 0.47800781 20.91167969 0.4375 19.9375 C0.39431641 18.98810547 0.35113281 18.03871094 0.30664062 17.06054688 C0.20020724 14.70718647 0.09818992 12.35371646 0 10 C-2.64 10 -5.28 10 -8 10 C-8 8.02 -8 6.04 -8 4 C-5.36 4 -2.72 4 0 4 C0 2.68 0 1.36 0 0 Z " fill="#5A39FF" transform="translate(34,49)"/>
<path d="M0 0 C0.66 0.33 1.32 0.66 2 1 C2 7.93 2 14.86 2 22 C-5.92 22 -13.84 22 -22 22 C-22 21.34 -22 20.68 -22 20 C-20.7934375 19.5359375 -20.7934375 19.5359375 -19.5625 19.0625 C-16.36489119 17.7366622 -16.29350232 17.48917054 -14.5 14.5 C-10.99590672 10.99590672 -7.7940275 11.11268013 -3 11 C-2.95101562 10.37351562 -2.90203125 9.74703125 -2.8515625 9.1015625 C-2.77679688 8.28429687 -2.70203125 7.46703125 -2.625 6.625 C-2.55539063 5.81289062 -2.48578125 5.00078125 -2.4140625 4.1640625 C-2 2 -2 2 0 0 Z " fill="#7388FE" transform="translate(125,102)"/>
<path d="M0 0 C5.94 0 11.88 0 18 0 C18 0.99 18 1.98 18 3 C19.98 2.34 21.96 1.68 24 1 C24 4.63 24 8.26 24 12 C19.38 12 14.76 12 10 12 C10.66 11.67 11.32 11.34 12 11 C10.68 10.34 9.36 9.68 8 9 C8 8.67 8 8.34 8 8 C5.36 7.67 2.72 7.34 0 7 C0 4.69 0 2.38 0 0 Z " fill="#7890FE" transform="translate(77,85)"/>
<path d="M0 0 C6.6 0 13.2 0 20 0 C20 2.33333333 20 4.66666667 20 7 C20.185625 7.825 20.37125 8.65 20.5625 9.5 C21 12 21 12 20 14 C15.71 14 11.42 14 7 14 C7 11.03 7 8.06 7 5 C4.69 5 2.38 5 0 5 C0 3.35 0 1.7 0 0 Z " fill="#39C6D7" transform="translate(98,49)"/>
<path d="M0 0 C6.32375289 0.12905618 10.49175043 2.58542835 15 7 C15 7.66 15 8.32 15 9 C10.71 9 6.42 9 2 9 C2 11.31 2 13.62 2 16 C2.66 16.33 3.32 16.66 4 17 C3.34 17.99 2.68 18.98 2 20 C-1.875 18.25 -1.875 18.25 -3 16 C-2.34 16 -1.68 16 -1 16 C-1 14.35 -1 12.7 -1 11 C-7.6 11 -14.2 11 -21 11 C-21 10.34 -21 9.68 -21 9 C-19.989375 9.0825 -18.97875 9.165 -17.9375 9.25 C-14.25576039 9.01623875 -13.25003203 8.80575562 -10.3125 7 C-7 5 -7 5 -3 5 C-2.690625 4.360625 -2.38125 3.72125 -2.0625 3.0625 C-1 1 -1 1 0 0 Z " fill="#F4FCFC" transform="translate(119,38)"/>
<path d="M0 0 C13.53 0 27.06 0 41 0 C41 1.65 41 3.3 41 5 C27.47 5 13.94 5 0 5 C0 3.35 0 1.7 0 0 Z " fill="#3C3D89" transform="translate(60,97)"/>
<path d="M0 0 C0.33 1.32 0.66 2.64 1 4 C2.98 4 4.96 4 7 4 C8.06351675 7.38391693 8.21442982 8.5804634 6.5625 11.8125 C6.046875 12.534375 5.53125 13.25625 5 14 C5.99 14.33 6.98 14.66 8 15 C7.34 16.32 6.68 17.64 6 19 C3.69 19 1.38 19 -1 19 C-1 19.99 -1 20.98 -1 22 C-2.98 22 -4.96 22 -7 22 C-7.33 20.68 -7.66 19.36 -8 18 C-9.65 17.67 -11.3 17.34 -13 17 C-14.35852368 13.33198605 -13.47642805 11.50651662 -12 8 C-12.33 7.34 -12.66 6.68 -13 6 C-10.69 6 -8.38 6 -6 6 C-6.20625 7.11375 -6.4125 8.2275 -6.625 9.375 C-6.810625 11.169375 -6.810625 11.169375 -7 13 C-5.10244856 15.34973818 -5.10244856 15.34973818 -1.875 15.125 C-0.451875 15.063125 -0.451875 15.063125 1 15 C1.29562367 9.67829506 1.29562367 9.67829506 -1 5 C-0.625 2.3125 -0.625 2.3125 0 0 Z " fill="#EAEBF2" transform="translate(135,57)"/>
<path d="M0 0 C0.99 0 1.98 0 3 0 C3 9.57 3 19.14 3 29 C9.5370285 28.96041741 9.5370285 28.96041741 16.07397461 28.90991211 C17.28839233 28.90616577 17.28839233 28.90616577 18.52734375 28.90234375 C19.77632446 28.89448853 19.77632446 28.89448853 21.05053711 28.88647461 C23 29 23 29 24 30 C26.28988781 30.15888092 28.58443441 30.25138073 30.87890625 30.31640625 C31.5655687 30.33718735 32.25223114 30.35796844 32.95970154 30.37937927 C35.16052935 30.44494143 37.36147975 30.50379015 39.5625 30.5625 C41.05144514 30.60567892 42.54037773 30.649293 44.02929688 30.69335938 C47.68606553 30.8006293 51.34297318 30.90187772 55 31 C55 31.33 55 31.66 55 32 C47.48863592 32.05057965 39.97731551 32.08568257 32.46582031 32.10986328 C29.90883747 32.11994038 27.35186621 32.13360226 24.79492188 32.15087891 C21.12627308 32.17505217 17.45777621 32.18646585 13.7890625 32.1953125 C12.0655809 32.21079636 12.0655809 32.21079636 10.30728149 32.22659302 C9.2463327 32.22674408 8.18538391 32.22689514 7.09228516 32.22705078 C6.15518707 32.231492 5.21808899 32.23593323 4.25259399 32.24050903 C2 32 2 32 0 30 C-0.22705078 27.01904297 -0.22705078 27.01904297 -0.1953125 23.2421875 C-0.1924826 22.57913605 -0.18965271 21.91608459 -0.18673706 21.23294067 C-0.17553435 19.11344417 -0.15043051 16.99436896 -0.125 14.875 C-0.11497028 13.43880818 -0.10584441 12.00260975 -0.09765625 10.56640625 C-0.075595 7.04413372 -0.04106494 3.52210797 0 0 Z " fill="#43A8E4" transform="translate(41,49)"/>
<path d="M0 0 C0 0.99 0 1.98 0 3 C3.71279469 4.23759823 7.31306346 4.35608897 11.1875 4.5625 C11.93708984 4.60568359 12.68667969 4.64886719 13.45898438 4.69335938 C15.30578375 4.79922685 17.15286834 4.9000976 19 5 C19 5.66 19 6.32 19 7 C4.81 7 -9.38 7 -24 7 C-24 6.34 -24 5.68 -24 5 C-21.98177083 4.609375 -19.96354167 4.21875 -17.9453125 3.828125 C-15.80931945 3.16962001 -15.80931945 3.16962001 -15.01171875 0.9765625 C-14 -1 -14 -1 -12.01171875 -1.6796875 C-7.47633383 -2.06081228 -4.13223332 -2.26606344 0 0 Z " fill="#9FC3FE" transform="translate(75,114)"/>
<path d="M0 0 C1.58206057 0.00667536 3.16410534 0.0186375 4.74609375 0.03515625 C5.55240234 0.03966797 6.35871094 0.04417969 7.18945312 0.04882812 C9.18753131 0.06065107 11.18557158 0.07858711 13.18359375 0.09765625 C12.19359375 1.58265625 12.19359375 1.58265625 11.18359375 3.09765625 C10.52359375 3.09765625 9.86359375 3.09765625 9.18359375 3.09765625 C9.05984375 3.88140625 8.93609375 4.66515625 8.80859375 5.47265625 C8.18359375 8.09765625 8.18359375 8.09765625 6.18359375 10.09765625 C5.19359375 10.42765625 4.20359375 10.75765625 3.18359375 11.09765625 C3.18359375 10.10765625 3.18359375 9.11765625 3.18359375 8.09765625 C2.19359375 8.75765625 1.20359375 9.41765625 0.18359375 10.09765625 C1.00859375 10.71640625 1.83359375 11.33515625 2.68359375 11.97265625 C3.50859375 12.67390625 4.33359375 13.37515625 5.18359375 14.09765625 C5.18359375 14.75765625 5.18359375 15.41765625 5.18359375 16.09765625 C1.88359375 16.09765625 -1.41640625 16.09765625 -4.81640625 16.09765625 C-4.8432572 13.61841824 -4.86317172 11.13946785 -4.87890625 8.66015625 C-4.89147461 7.59958008 -4.89147461 7.59958008 -4.90429688 6.51757812 C-4.91294213 4.71072066 -4.86860636 2.90378022 -4.81640625 1.09765625 C-3.81640625 0.09765625 -3.81640625 0.09765625 0 0 Z " fill="#40AFE1" transform="translate(37.81640625,85.90234375)"/>
<path d="M0 0 C2.64 0 5.28 0 8 0 C8 6.93 8 13.86 8 21 C1.07 21 -5.86 21 -13 21 C-13 20.01 -13 19.02 -13 18 C-9.04 18 -5.08 18 -1 18 C-0.67 17.01 -0.34 16.02 0 15 C0.99 15.33 1.98 15.66 3 16 C3.33 13.03 3.66 10.06 4 7 C2.68 6.67 1.36 6.34 0 6 C0 4.02 0 2.04 0 0 Z " fill="#34D7C9" transform="translate(26,59)"/>
<path d="M0 0 C1.32 0 2.64 0 4 0 C4 6.6 4 13.2 4 20 C6.31 20 8.62 20 11 20 C11.33 20.99 11.66 21.98 12 23 C3.19039858 24.30512614 -5.19039858 24.30512614 -14 23 C-13.505 21.515 -13.505 21.515 -13 20 C-8.71 20 -4.42 20 0 20 C0 13.4 0 6.8 0 0 Z " fill="#4C4CA1" transform="translate(115,63)"/>
<path d="M0 0 C1.31871094 -0.01224609 2.63742188 -0.02449219 3.99609375 -0.03710938 C5.90068359 -0.04000977 5.90068359 -0.04000977 7.84375 -0.04296875 C9.00068359 -0.04707764 10.15761719 -0.05118652 11.34960938 -0.05541992 C14.47736509 0.18575467 16.680892 0.85423629 19.5 2.1875 C18.5 4.1875 18.5 4.1875 16.84521484 4.80200195 C11.99200924 5.59975457 7.04404055 5.37340312 2.13769531 5.37280273 C0.13863013 5.37498512 -1.86039532 5.39349143 -3.859375 5.41210938 C-5.13039063 5.41404297 -6.40140625 5.41597656 -7.7109375 5.41796875 C-8.86899902 5.42207764 -10.02706055 5.42618652 -11.22021484 5.43041992 C-14.61310954 5.17912245 -17.33332989 4.39923908 -20.5 3.1875 C-20.17 2.5275 -19.84 1.8675 -19.5 1.1875 C-13.23640183 -0.60566158 -6.45139424 0.00315317 0 0 Z " fill="#EAEBF2" transform="translate(114.5,125.8125)"/>
<path d="M0 0 C0 5.61 0 11.22 0 17 C0.99 17 1.98 17 3 17 C3 18.65 3 20.3 3 22 C0.69 22 -1.62 22 -4 22 C-4 15.73 -4 9.46 -4 3 C-10.27 3 -16.54 3 -23 3 C-23 2.34 -23 1.68 -23 1 C-19.91675903 0.83159521 -16.83339379 0.66558138 -13.75 0.5 C-12.87730469 0.45230469 -12.00460938 0.40460938 -11.10546875 0.35546875 C-10.26113281 0.31035156 -9.41679687 0.26523438 -8.546875 0.21875 C-7.38430176 0.1559082 -7.38430176 0.1559082 -6.19824219 0.09179688 C-4.13373418 0.00558463 -2.0663073 0 0 0 Z " fill="#6F72AA" transform="translate(30,80)"/>
<path d="M0 0 C2.64 0 5.28 0 8 0 C8 5.61 8 11.22 8 17 C6.68 17.33 5.36 17.66 4 18 C4 15.36 4 12.72 4 10 C0.37 10 -3.26 10 -7 10 C-7 9.01 -7 8.02 -7 7 C-6.01 7 -5.02 7 -4 7 C-4 6.01 -4 5.02 -4 4 C-2.68 4 -1.36 4 0 4 C0 2.68 0 1.36 0 0 Z " fill="#665FFF" transform="translate(119,86)"/>
<path d="M0 0 C3 2 3 2 3.5625 4.5 C3.706875 5.325 3.85125 6.15 4 7 C4.66 7.66 5.32 8.32 6 9 C4.35 9.99 2.7 10.98 1 12 C1.33 10.68 1.66 9.36 2 8 C1.01 7.34 0.02 6.68 -1 6 C-1.10957031 6.69867188 -1.21914063 7.39734375 -1.33203125 8.1171875 C-1.49058594 9.02726562 -1.64914063 9.93734375 -1.8125 10.875 C-1.96332031 11.77992187 -2.11414062 12.68484375 -2.26953125 13.6171875 C-3 16 -3 16 -6 18 C-8.48046875 18.1953125 -8.48046875 18.1953125 -11.1875 18.125 C-12.08855469 18.10695313 -12.98960938 18.08890625 -13.91796875 18.0703125 C-14.60503906 18.04710938 -15.29210938 18.02390625 -16 18 C-16.33 17.01 -16.66 16.02 -17 15 C-13.7 15 -10.4 15 -7 15 C-7 14.34 -7 13.68 -7 13 C-7.61875 12.731875 -8.2375 12.46375 -8.875 12.1875 C-11 11 -11 11 -13 8 C-11.35 7.01 -9.7 6.02 -8 5 C-8.33 6.32 -8.66 7.64 -9 9 C-8.34 8.67 -7.68 8.34 -7 8 C-6.01 7.67 -5.02 7.34 -4 7 C-3.896875 6.21625 -3.79375 5.4325 -3.6875 4.625 C-3 2 -3 2 0 0 Z " fill="#4CCBD3" transform="translate(50,87)"/>
<path d="M0 0 C1.32 0 2.64 0 4 0 C4.33 0.66 4.66 1.32 5 2 C5.99 2.33 6.98 2.66 8 3 C8.125 9.75 8.125 9.75 7 12 C6.01 12 5.02 12 4 12 C3.67 12.66 3.34 13.32 3 14 C1.68 14 0.36 14 -1 14 C-1 13.01 -1 12.02 -1 11 C-2.32 10.67 -3.64 10.34 -5 10 C-5 7.69 -5 5.38 -5 3 C-3.35 2.67 -1.7 2.34 0 2 C0 1.34 0 0.68 0 0 Z " fill="#E5F6F9" transform="translate(22,63)"/>
<path d="M0 0 C5.94 0 11.88 0 18 0 C18 1.98 18 3.96 18 6 C12.06 6 6.12 6 0 6 C0 4.02 0 2.04 0 0 Z " fill="#A7C7FF" transform="translate(77,85)"/>
<path d="M0 0 C0.33 0.66 0.66 1.32 1 2 C8.59 2 16.18 2 24 2 C24 2.33 24 2.66 24 3 C19.71 3 15.42 3 11 3 C11 5.31 11 7.62 11 10 C11.66 10.33 12.32 10.66 13 11 C12.01 12.485 12.01 12.485 11 14 C7.125 12.25 7.125 12.25 6 10 C6.66 10 7.32 10 8 10 C8 8.35 8 6.7 8 5 C1.4 5 -5.2 5 -12 5 C-12 4.34 -12 3.68 -12 3 C-10.948125 3.061875 -9.89625 3.12375 -8.8125 3.1875 C-4.84183507 2.9922214 -3.15803031 2.29674932 0 0 Z " fill="#87DFE5" transform="translate(110,44)"/>
<path d="M0 0 C2.31 0 4.62 0 7 0 C7.55789474 9.48421053 7.55789474 9.48421053 4 14 C2.66666667 15.33333333 1.33333333 16.66666667 0 18 C0 12.06 0 6.12 0 0 Z " fill="#6B74FD" transform="translate(98,54)"/>
<path d="M0 0 C1.51400391 0.01740234 1.51400391 0.01740234 3.05859375 0.03515625 C4.07050781 0.04417969 5.08242187 0.05320312 6.125 0.0625 C7.29869141 0.07990234 7.29869141 0.07990234 8.49609375 0.09765625 C6.99259978 3.10464418 4.45419895 3.68023084 1.49609375 5.09765625 C0.17189126 6.20199545 0.17189126 6.20199545 0.30859375 8.97265625 C0.24265862 12.26336383 0.24265862 12.26336383 2.49609375 15.09765625 C1.50609375 16.58265625 1.50609375 16.58265625 0.49609375 18.09765625 C-0.82390625 17.76765625 -2.14390625 17.43765625 -3.50390625 17.09765625 C-3.53075304 14.45175611 -3.55066982 11.80612529 -3.56640625 9.16015625 C-3.57478516 8.40541016 -3.58316406 7.65066406 -3.59179688 6.87304688 C-3.60043066 4.94771312 -3.55614958 3.02230044 -3.50390625 1.09765625 C-2.50390625 0.09765625 -2.50390625 0.09765625 0 0 Z " fill="#43B9F2" transform="translate(108.50390625,95.90234375)"/>
<path d="M0 0 C0.66 0 1.32 0 2 0 C2.625 3.375 2.625 3.375 3 7 C2.34 7.66 1.68 8.32 1 9 C1 8.01 1 7.02 1 6 C0.01 6.66 -0.98 7.32 -2 8 C-1.175 8.61875 -0.35 9.2375 0.5 9.875 C1.325 10.57625 2.15 11.2775 3 12 C3 12.66 3 13.32 3 14 C-0.3 14 -3.6 14 -7 14 C-7.25 6.375 -7.25 6.375 -5 3 C-2.375 2.3125 -2.375 2.3125 0 2 C0 1.34 0 0.68 0 0 Z " fill="#50B4E4" transform="translate(40,88)"/>
<path d="M0 0 C5.94 0 11.88 0 18 0 C18 3 18 3 17 5 C11.39 5 5.78 5 0 5 C0 3.35 0 1.7 0 0 Z " fill="#34ACC5" transform="translate(98,49)"/>
<path d="M0 0 C0 0.33 0 0.66 0 1 C-1.98 1 -3.96 1 -6 1 C-6 6.61 -6 12.22 -6 18 C-2.7 18.33 0.6 18.66 4 19 C4 19.33 4 19.66 4 20 C-1.94 20 -7.88 20 -14 20 C-14 19.67 -14 19.34 -14 19 C-12.35 18.67 -10.7 18.34 -9 18 C-8.67 16.68 -8.34 15.36 -8 14 C-9.98 14 -11.96 14 -14 14 C-14 13.67 -14 13.34 -14 13 C-12.35 12.67 -10.7 12.34 -9 12 C-8.67 10.68 -8.34 9.36 -8 8 C-9.98 8 -11.96 8 -14 8 C-14 7.67 -14 7.34 -14 7 C-12.35 6.67 -10.7 6.34 -9 6 C-8.67 4.68 -8.34 3.36 -8 2 C-9.98 2 -11.96 2 -14 2 C-14 1.67 -14 1.34 -14 1 C-9.32798795 -0.20568053 -4.78503708 -0.09382426 0 0 Z " fill="#72D8E0" transform="translate(21,33)"/>
<path d="M0 0 C0 0.99 0 1.98 0 3 C-1.65 3.33 -3.3 3.66 -5 4 C-5 5.65 -5 7.3 -5 9 C-3.35 8.67 -1.7 8.34 0 8 C0.33 6.02 0.66 4.04 1 2 C1.66 2 2.32 2 3 2 C3.8125 5.25 3.8125 5.25 4 9 C1.875 11.5 1.875 11.5 -1 13 C-3.89481608 12.93107581 -5.40685358 12.38861317 -7.8125 10.8125 C-9.58260835 8.11075568 -9.39415803 6.15326426 -9 3 C-6.77089201 -0.71517998 -4.03410755 -0.2689405 0 0 Z " fill="#99E3EA" transform="translate(117,99)"/>
<path d="M0 0 C0.33 0 0.66 0 1 0 C1 2.31 1 4.62 1 7 C3.64 7 6.28 7 9 7 C9.33 7.66 9.66 8.32 10 9 C10.99 9 11.98 9 13 9 C13 9.66 13 10.32 13 11 C10.30335792 12.34832104 8.13412479 12.16910682 5.125 12.1875 C4.07570313 12.20167969 3.02640625 12.21585938 1.9453125 12.23046875 C-0.93547071 12.00504937 -2.56240208 11.48964317 -5 10 C-3.25 6.125 -3.25 6.125 -1 5 C-0.34444881 2.47266765 -0.34444881 2.47266765 0 0 Z " fill="#7081FE" transform="translate(76,85)"/>
<path d="M0 0 C1.32 0 2.64 0 4 0 C4 6.6 4 13.2 4 20 C2.68 19.67 1.36 19.34 0 19 C0 12.73 0 6.46 0 0 Z " fill="#3E3E8B" transform="translate(115,63)"/>
<path d="M0 0 C1.67542976 0.28604898 3.34385343 0.61781233 5 1 C6.00619398 5.3266341 6.36822864 8.12471677 4 12 C1.4140625 13.140625 1.4140625 13.140625 -1 14 C-1.02685938 11.85423363 -1.04633088 9.70837355 -1.0625 7.5625 C-1.07410156 6.36753906 -1.08570312 5.17257813 -1.09765625 3.94140625 C-1 1 -1 1 0 0 Z " fill="#32C6DF" transform="translate(106,33)"/>
<path d="M0 0 C8.58 0 17.16 0 26 0 C25.67 0.99 25.34 1.98 25 3 C17.08 3 9.16 3 1 3 C0.67 2.01 0.34 1.02 0 0 Z " fill="#4C4CA0" transform="translate(101,124)"/>
<path d="M0 0 C4.29 0 8.58 0 13 0 C11 5 11 5 9 8 C9 7.01 9 6.02 9 5 C3.72 5 -1.56 5 -7 5 C-6.34 4.34 -5.68 3.68 -5 3 C-3.68 3 -2.36 3 -1 3 C-0.67 2.01 -0.34 1.02 0 0 Z " fill="#6660FF" transform="translate(53,81)"/>
<path d="M0 0 C4.29 0 8.58 0 13 0 C12 2 12 2 9 4 C6.82967524 5.43990623 6.82967524 5.43990623 5 7 C5 7.66 5 8.32 5 9 C4.01 9.33 3.02 9.66 2 10 C1.67 10.66 1.34 11.32 1 12 C0.34 12 -0.32 12 -1 12 C-1.33 12.66 -1.66 13.32 -2 14 C-2 13.01 -2 12.02 -2 11 C-1.34 11 -0.68 11 0 11 C0 9.68 0 8.36 0 7 C0 4.66666667 0 2.33333333 0 0 Z " fill="#3DD7D0" transform="translate(121,47)"/>
<path d="M0 0 C12.54 0 25.08 0 38 0 C38.495 1.98 38.495 1.98 39 4 C38.01 4 37.02 4 36 4 C36 3.34 36 2.68 36 2 C35.30028076 2.00523682 34.60056152 2.01047363 33.87963867 2.01586914 C30.64893525 2.03690826 27.41824634 2.04974466 24.1875 2.0625 C22.53717773 2.07506836 22.53717773 2.07506836 20.85351562 2.08789062 C13.84267366 2.10857157 6.96824874 1.77677977 0 1 C0 0.67 0 0.34 0 0 Z " fill="#46D3D8" transform="translate(59,45)"/>
<path d="M0 0 C6.27 0 12.54 0 19 0 C19 1.65 19 3.3 19 5 C14.71 5 10.42 5 6 5 C6 4.01 6 3.02 6 2 C3.03 1.505 3.03 1.505 0 1 C0 0.67 0 0.34 0 0 Z " fill="#78D8E2" transform="translate(7,58)"/>
<path d="M0 0 C2.64 0 5.28 0 8 0 C8.25 7.625 8.25 7.625 6 11 C5.01 10.67 4.02 10.34 3 10 C3.33 9.01 3.66 8.02 4 7 C2.68 6.67 1.36 6.34 0 6 C0 4.02 0 2.04 0 0 Z " fill="#3FBCDB" transform="translate(26,59)"/>
<path d="M0 0 C3.3 0 6.6 0 10 0 C9.01 0.495 9.01 0.495 8 1 C8.04125 1.928125 8.0825 2.85625 8.125 3.8125 C8 7 8 7 6 10 C3.375 10.6875 3.375 10.6875 1 11 C0 8 0 8 0.5 6.0625 C1.24768713 3.6753059 1.24768713 3.6753059 0 0 Z " fill="#6ED5E3" transform="translate(110,33)"/>
<path d="M0 0 C0.02685938 2.14576637 0.04633088 4.29162645 0.0625 6.4375 C0.07410156 7.63246094 0.08570312 8.82742187 0.09765625 10.05859375 C0 13 0 13 -1 14 C-3.18639453 14.07258946 -5.37500389 14.08373783 -7.5625 14.0625 C-9.35880859 14.04896484 -9.35880859 14.04896484 -11.19140625 14.03515625 C-12.11824219 14.02355469 -13.04507813 14.01195313 -14 14 C-13.67 13.01 -13.34 12.02 -13 11 C-12.0925 11.061875 -11.185 11.12375 -10.25 11.1875 C-7.06234654 11.19659001 -7.06234654 11.19659001 -4.625 9.9375 C-2.21205273 7.06052441 -2.7265357 4.62340201 -3 1 C-1 0 -1 0 0 0 Z " fill="#38DACC" transform="translate(123,100)"/>
<path d="M0 0 C3 2 3 2 3.5625 4.5 C3.706875 5.325 3.85125 6.15 4 7 C4.66 7.66 5.32 8.32 6 9 C3.525 10.485 3.525 10.485 1 12 C1.33 10.68 1.66 9.36 2 8 C1.01 7.34 0.02 6.68 -1 6 C-1.99 8.97 -2.98 11.94 -4 15 C-4.66 15 -5.32 15 -6 15 C-5.07692308 5.92307692 -5.07692308 5.92307692 -3 2 C-2.01 1.34 -1.02 0.68 0 0 Z " fill="#99DDEB" transform="translate(50,87)"/>
<path d="M0 0 C2.31 0 4.62 0 7 0 C7 1.65 7 3.3 7 5 C3.37 5 -0.26 5 -4 5 C-4 6.65 -4 8.3 -4 10 C-5.32 10 -6.64 10 -8 10 C-8 8.02 -8 6.04 -8 4 C-5.36 4 -2.72 4 0 4 C0 2.68 0 1.36 0 0 Z " fill="#3D418D" transform="translate(34,49)"/>
<path d="M0 0 C3.9374838 -0.02946879 7.87493856 -0.04695407 11.8125 -0.0625 C13.46282227 -0.07506836 13.46282227 -0.07506836 15.14648438 -0.08789062 C22.15732634 -0.10857157 29.03175126 0.22322023 36 1 C36 1.33 36 1.66 36 2 C27.42 2 18.84 2 10 2 C10 2.66 10 3.32 10 4 C9.01 4 8.02 4 7 4 C7 3.34 7 2.68 7 2 C4.69 2 2.38 2 0 2 C0 1.34 0 0.68 0 0 Z " fill="#86DAE6" transform="translate(34,45)"/>
<path d="M0 0 C1.24716797 0.00322266 2.49433594 0.00644531 3.77929688 0.00976562 C5.07287109 0.01814453 6.36644531 0.02652344 7.69921875 0.03515625 C9.66858398 0.04192383 9.66858398 0.04192383 11.67773438 0.04882812 C14.91410885 0.06059676 18.15039053 0.07703865 21.38671875 0.09765625 C21.05671875 0.75765625 20.72671875 1.41765625 20.38671875 2.09765625 C19.73074707 2.11747559 19.07477539 2.13729492 18.39892578 2.15771484 C15.43610806 2.25278132 12.47401343 2.36253377 9.51171875 2.47265625 C7.96291016 2.5190625 7.96291016 2.5190625 6.3828125 2.56640625 C4.90361328 2.62441406 4.90361328 2.62441406 3.39453125 2.68359375 C2.4833252 2.71501465 1.57211914 2.74643555 0.63330078 2.77880859 C-1.81259311 2.89648136 -1.81259311 2.89648136 -3.61328125 5.09765625 C-6.34197532 5.06478042 -8.90994305 4.53367854 -11.61328125 4.09765625 C-11.61328125 3.10765625 -11.61328125 2.11765625 -11.61328125 1.09765625 C-7.68039761 0.16677716 -4.03673962 -0.0184326 0 0 Z " fill="#D9D9E8" transform="translate(106.61328125,125.90234375)"/>
<path d="M0 0 C1.98 0 3.96 0 6 0 C5 1.66666667 4 3.33333333 3 5 C2.38125 6.3921875 2.38125 6.3921875 1.75 7.8125 C1.1725 8.534375 0.595 9.25625 0 10 C-3.6875 10.3125 -3.6875 10.3125 -7 10 C-7 9.01 -7 8.02 -7 7 C-6.01 7 -5.02 7 -4 7 C-4 6.01 -4 5.02 -4 4 C-2.68 4 -1.36 4 0 4 C0 2.68 0 1.36 0 0 Z " fill="#6255FE" transform="translate(119,86)"/>
<path d="M0 0 C2.97 0 5.94 0 9 0 C9 0.99 9 1.98 9 3 C7.68 3 6.36 3 5 3 C5 3.99 5 4.98 5 6 C3.8125 7.6875 3.8125 7.6875 2 9 C-0.6875 9.1875 -0.6875 9.1875 -3 9 C-2.1875 7.0625 -2.1875 7.0625 -1 5 C-0.01 4.67 0.98 4.34 2 4 C2 3.34 2 2.68 2 2 C1.34 1.34 0.68 0.68 0 0 Z " fill="#5E4AFA" transform="translate(110,87)"/>
<path d="M0 0 C2.64 0 5.28 0 8 0 C8 3 8 3 7 6 C6.01 6 5.02 6 4 6 C4 6.66 4 7.32 4 8 C3.01 7.67 2.02 7.34 1 7 C0.67 4.69 0.34 2.38 0 0 Z " fill="#3EC1D9" transform="translate(51,86)"/>
<path d="M0 0 C3.3 0 6.6 0 10 0 C8.74458443 2.51083114 7.49936512 2.87125446 5 4 C5 4.66 5 5.32 5 6 C2.5 7.625 2.5 7.625 0 9 C0 6.03 0 3.06 0 0 Z " fill="#3DBBDD" transform="translate(105,54)"/>
<path d="M0 0 C0.66 0.33 1.32 0.66 2 1 C2.08090971 2.62418745 2.13914995 4.24951745 2.1875 5.875 C2.22230469 6.77992187 2.25710937 7.68484375 2.29296875 8.6171875 C2.19628906 9.40351562 2.09960938 10.18984375 2 11 C1.01 11.66 0.02 12.32 -1 13 C-2.66561399 11.33438601 -2.17115945 9.34037295 -2.1875 7.0625 C-2.20167969 6.16660156 -2.21585937 5.27070312 -2.23046875 4.34765625 C-2 2 -2 2 0 0 Z " fill="#7181FE" transform="translate(125,102)"/>
<path d="M0 0 C1.23556641 0.01740234 1.23556641 0.01740234 2.49609375 0.03515625 C3.32238281 0.04417969 4.14867187 0.05320312 5 0.0625 C5.63808594 0.07410156 6.27617188 0.08570312 6.93359375 0.09765625 C6.93359375 0.75765625 6.93359375 1.41765625 6.93359375 2.09765625 C5.94359375 2.09765625 4.95359375 2.09765625 3.93359375 2.09765625 C3.93359375 2.75765625 3.93359375 3.41765625 3.93359375 4.09765625 C1.62359375 5.41765625 -0.68640625 6.73765625 -3.06640625 8.09765625 C-3.10882348 5.7647085 -3.10733562 3.43063058 -3.06640625 1.09765625 C-2.06640625 0.09765625 -2.06640625 0.09765625 0 0 Z " fill="#4697EB" transform="translate(36.06640625,85.90234375)"/>
<path d="M0 0 C3.36704285 -0.2295711 5.41370268 -0.33943529 8.375 1.375 C8.91125 1.91125 9.4475 2.4475 10 3 C10 3.66 10 4.32 10 5 C6.7 5 3.4 5 0 5 C0 3.35 0 1.7 0 0 Z " fill="#34AAC5" transform="translate(33,97)"/>
<path d="M0 0 C0.66 0 1.32 0 2 0 C2 2.33333333 2 4.66666667 2 7 C2.185625 7.825 2.37125 8.65 2.5625 9.5 C3 12 3 12 2 14 C1.01 13.67 0.02 13.34 -1 13 C-1.22162329 11.37675914 -1.42689803 9.751279 -1.625 8.125 C-1.74101563 7.22007813 -1.85703125 6.31515625 -1.9765625 5.3828125 C-1.98429687 4.59648438 -1.99203125 3.81015625 -2 3 C-1.34 2.34 -0.68 1.68 0 1 C0 0.67 0 0.34 0 0 Z " fill="#38C1C7" transform="translate(116,49)"/>
<path d="M0 0 C0 0.33 0 0.66 0 1 C-1.98 1 -3.96 1 -6 1 C-6 3.64 -6 6.28 -6 9 C-8.64 8.67 -11.28 8.34 -14 8 C-14 7.67 -14 7.34 -14 7 C-12.35 6.67 -10.7 6.34 -9 6 C-8.67 4.68 -8.34 3.36 -8 2 C-9.98 2 -11.96 2 -14 2 C-14 1.67 -14 1.34 -14 1 C-9.32798795 -0.20568053 -4.78503708 -0.09382426 0 0 Z " fill="#88D8E8" transform="translate(21,33)"/>
<path d="M0 0 C1.485 0.99 1.485 0.99 3 2 C3.29296875 4.3828125 3.29296875 4.3828125 3.1875 7.125 C3.16042969 8.03507812 3.13335937 8.94515625 3.10546875 9.8828125 C3.07066406 10.58148438 3.03585938 11.28015625 3 12 C2.34 12 1.68 12 1 12 C0.67 12.66 0.34 13.32 0 14 C0 9.38 0 4.76 0 0 Z " fill="#5F4EFE" transform="translate(102,97)"/>
<path d="M0 0 C2.31 0 4.62 0 7 0 C7 1.65 7 3.3 7 5 C4.69 5 2.38 5 0 5 C0 3.35 0 1.7 0 0 Z " fill="#3C3E8A" transform="translate(98,49)"/>
<path d="M0 0 C4.62 0 9.24 0 14 0 C14.33 1.32 14.66 2.64 15 4 C14.01 4 13.02 4 12 4 C12 3.34 12 2.68 12 2 C8.04 2 4.08 2 0 2 C0 1.34 0 0.68 0 0 Z " fill="#56D8D6" transform="translate(83,45)"/>
<path d="M0 0 C6.6 0 13.2 0 20 0 C20 0.99 20 1.98 20 3 C13.4 2.34 6.8 1.68 0 1 C0 0.67 0 0.34 0 0 Z " fill="#41D1D8" transform="translate(14,32)"/>
<path d="M0 0 C0 3.3 0 6.6 0 10 C-1.32 10.33 -2.64 10.66 -4 11 C-4.3682455 3.51234156 -4.3682455 3.51234156 -2.5625 1 C-1 0 -1 0 0 0 Z " fill="#6B70FE" transform="translate(127,93)"/>
<path d="M0 0 C0.99 0 1.98 0 3 0 C3 3.96 3 7.92 3 12 C2.01 11.67 1.02 11.34 0 11 C0 7.37 0 3.74 0 0 Z " fill="#3B95D7" transform="translate(41,49)"/>
<path d="M0 0 C-0.33 1.65 -0.66 3.3 -1 5 C-5.455 4.01 -5.455 4.01 -10 3 C-6.68152292 -0.06320961 -4.44849969 -0.3033068 0 0 Z " fill="#45CCE5" transform="translate(123,96)"/>
<path d="M0 0 C1.67542976 0.28604898 3.34385343 0.61781233 5 1 C4.67 2.32 4.34 3.64 4 5 C2.68 5.33 1.36 5.66 0 6 C-0.38218767 4.34385343 -0.71395102 2.67542976 -1 1 C-0.67 0.67 -0.34 0.34 0 0 Z " fill="#52D0DD" transform="translate(22,67)"/>
<path d="M0 0 C0.66 0.33 1.32 0.66 2 1 C1.69078116 2.45903258 1.37751201 3.91720722 1.0625 5.375 C0.88847656 6.18710938 0.71445312 6.99921875 0.53515625 7.8359375 C0 10 0 10 -1 12 C-1.66 12 -2.32 12 -3 12 C-2.14285714 3.42857143 -2.14285714 3.42857143 0 0 Z " fill="#DDF4F7" transform="translate(47,90)"/>
<path d="M0 0 C0.99 0.33 1.98 0.66 3 1 C3.33 1.99 3.66 2.98 4 4 C6.31 4.33 8.62 4.66 11 5 C11 5.33 11 5.66 11 6 C9.56260487 6.02712066 8.12506137 6.04645067 6.6875 6.0625 C5.48673828 6.07990234 5.48673828 6.07990234 4.26171875 6.09765625 C2 6 2 6 -1 5 C-1.6875 2.9375 -1.6875 2.9375 -2 1 C-1.34 0.67 -0.68 0.34 0 0 Z " fill="#BCD6FE" transform="translate(82,113)"/>
<path d="M0 0 C1.32 1.32 2.64 2.64 4 4 C3.01 5.485 3.01 5.485 2 7 C0.68 6.67 -0.64 6.34 -2 6 C-1.125 1.125 -1.125 1.125 0 0 Z " fill="#3FD0E4" transform="translate(107,107)"/>
<path d="M0 0 C1.32 0 2.64 0 4 0 C4.33 0.66 4.66 1.32 5 2 C5.99 2.33 6.98 2.66 8 3 C8 3.99 8 4.98 8 6 C7.34 6 6.68 6 6 6 C5.67 6.66 5.34 7.32 5 8 C4.731875 7.360625 4.46375 6.72125 4.1875 6.0625 C3.11332248 3.66868314 3.11332248 3.66868314 0 3 C0 2.01 0 1.02 0 0 Z " fill="#EEFAFB" transform="translate(22,63)"/>
<path d="M0 0 C0.66 0 1.32 0 2 0 C2 1.65 2 3.3 2 5 C2.66 5.33 3.32 5.66 4 6 C3.01 7.485 3.01 7.485 2 9 C-1.875 7.25 -1.875 7.25 -3 5 C-2.01 5 -1.02 5 0 5 C0 3.35 0 1.7 0 0 Z " fill="#EFFAFA" transform="translate(119,49)"/>
<path d="M0 0 C2.97 0 5.94 0 9 0 C9.33 0.66 9.66 1.32 10 2 C5.545 2.495 5.545 2.495 1 3 C0.67 2.01 0.34 1.02 0 0 Z " fill="#4FD1DA" transform="translate(33,102)"/>
<path d="M0 0 C1.32 0 2.64 0 4 0 C4 1.98 4 3.96 4 6 C3.01 6.33 2.02 6.66 1 7 C0 6 0 6 -0.0625 2.9375 C-0.041875 1.968125 -0.02125 0.99875 0 0 Z " fill="#34AFC5" transform="translate(26,59)"/>
<path d="M0 0 C0.5625 1.9375 0.5625 1.9375 1 4 C0 5 0 5 -3.5625 5.0625 C-4.696875 5.041875 -5.83125 5.02125 -7 5 C-7 4.34 -7 3.68 -7 3 C-4.69 2.01 -2.38 1.02 0 0 Z " fill="#37E0C1" transform="translate(59,100)"/>
<path d="M0 0 C0.99 0.33 1.98 0.66 3 1 C3 2.65 3 4.3 3 6 C1.35 6 -0.3 6 -2 6 C-1.49396008 3.83125748 -1.00016187 2.00032373 0 0 Z " fill="#40A9E5" transform="translate(35,91)"/>
<path d="M0 0 C0.33 0 0.66 0 1 0 C1 1.98 1 3.96 1 6 C-0.65 6.33 -2.3 6.66 -4 7 C-4 5.68 -4 4.36 -4 3 C-3.01 2.67 -2.02 2.34 -1 2 C-0.67 1.34 -0.34 0.68 0 0 Z " fill="#3DCFD2" transform="translate(33,67)"/>
<path d="M0 0 C2.31 0.33 4.62 0.66 7 1 C6.01 1.66 5.02 2.32 4 3 C3.01 4.485 3.01 4.485 2 6 C1.01 5.01 0.02 4.02 -1 3 C-0.67 2.01 -0.34 1.02 0 0 Z " fill="#DAF2F7" transform="translate(18,65)"/>
<path d="M0 0 C0.66 0.66 1.32 1.32 2 2 C1.7578125 4.1640625 1.7578125 4.1640625 1.125 6.625 C0.92132813 7.44226563 0.71765625 8.25953125 0.5078125 9.1015625 C0.34023438 9.72804688 0.17265625 10.35453125 0 11 C-0.33 11 -0.66 11 -1 11 C-1.02688151 9.35425434 -1.04634123 7.70838587 -1.0625 6.0625 C-1.07410156 5.14597656 -1.08570313 4.22945312 -1.09765625 3.28515625 C-1 1 -1 1 0 0 Z " fill="#3E9BE9" transform="translate(42,59)"/>
<path d="M0 0 C0.33 0.99 0.66 1.98 1 3 C0 4 0 4 -2.50390625 4.09765625 C-4.01791016 4.08025391 -4.01791016 4.08025391 -5.5625 4.0625 C-6.57441406 4.05347656 -7.58632812 4.04445313 -8.62890625 4.03515625 C-9.41136719 4.02355469 -10.19382812 4.01195312 -11 4 C-11 3.34 -11 2.68 -11 2 C-9.39125 2.061875 -9.39125 2.061875 -7.75 2.125 C-4.34252515 2.0114175 -2.79260369 1.78726636 0 0 Z " fill="#88CCDF" transform="translate(109,45)"/>
<path d="M0 0 C5.28 0 10.56 0 16 0 C16 0.33 16 0.66 16 1 C11.38 1 6.76 1 2 1 C2 1.66 2 2.32 2 3 C1.01 3 0.02 3 -1 3 C-0.67 2.01 -0.34 1.02 0 0 Z " fill="#6CCFE4" transform="translate(42,46)"/>
<path d="M0 0 C0.33 0.66 0.66 1.32 1 2 C1.99 2.33 2.98 2.66 4 3 C3.67 4.65 3.34 6.3 3 8 C2.34 8 1.68 8 1 8 C1 7.01 1 6.02 1 5 C0.34 5 -0.32 5 -1 5 C-0.67 3.35 -0.34 1.7 0 0 Z " fill="#52CBDB" transform="translate(49,92)"/>
<path d="M0 0 C2.31 0.66 4.62 1.32 7 2 C7 2.66 7 3.32 7 4 C4.36 4 1.72 4 -1 4 C-0.67 2.68 -0.34 1.36 0 0 Z " fill="#31C7DE" transform="translate(14,59)"/>
<path d="M0 0 C0.66 0 1.32 0 2 0 C2.33 1.98 2.66 3.96 3 6 C2.34 6 1.68 6 1 6 C0.34 6.66 -0.32 7.32 -1 8 C-1.125 2.25 -1.125 2.25 0 0 Z " fill="#665FFF" transform="translate(103,109)"/>
<path d="M0 0 C0 1.33333333 0 2.66666667 0 4 C-2.64 3.67 -5.28 3.34 -8 3 C-5.4345406 0.4345406 -3.52313332 0.45953913 0 0 Z " fill="#34CDC7" transform="translate(33,73)"/>
<path d="M0 0 C0.99 0 1.98 0 3 0 C3.33 1.32 3.66 2.64 4 4 C2.35 4.33 0.7 4.66 -1 5 C-0.67 3.35 -0.34 1.7 0 0 Z " fill="#36C2C6" transform="translate(47,97)"/>
<path d="M0 0 C1.65 0 3.3 0 5 0 C5 1.32 5 2.64 5 4 C3.35 4 1.7 4 0 4 C0 2.68 0 1.36 0 0 Z " fill="#30C7DC" transform="translate(13,65)"/>
<path d="M0 0 C0 0.99 0 1.98 0 3 C0.3062434 4.33981486 0.63451555 5.67511887 1 7 C-0.32 6.34 -1.64 5.68 -3 5 C-3 4.01 -3 3.02 -3 2 C-2.01 1.34 -1.02 0.68 0 0 Z " fill="#E6F4F8" transform="translate(41,92)"/>
</svg>
