<?xml version="1.0" encoding="UTF-8"?>
<svg version="1.1" xmlns="http://www.w3.org/2000/svg" width="150" height="150">
<path d="M0 0 C0.495 2.97 0.495 2.97 1 6 C4.7016431 6.94693195 6.39112465 7.30443767 9.875 5.5625 C10.926875 4.7890625 10.926875 4.7890625 12 4 C13.65 5.98 15.3 7.96 17 10 C16.34 11.32 15.68 12.64 15 14 C16.60681641 14.09087891 16.60681641 14.09087891 18.24609375 14.18359375 C19.64324391 14.26798537 21.04037857 14.35263406 22.4375 14.4375 C23.14455078 14.47681641 23.85160156 14.51613281 24.58007812 14.55664062 C29.88671875 14.88671875 29.88671875 14.88671875 31 16 C31.08748207 17.92667507 31.10697334 19.85651861 31.09765625 21.78515625 C31.09443359 22.95498047 31.09121094 24.12480469 31.08789062 25.33007812 C31.07951172 26.56177734 31.07113281 27.79347656 31.0625 29.0625 C31.05798828 30.29806641 31.05347656 31.53363281 31.04882812 32.80664062 C31.03699608 35.87114117 31.02051173 38.93554721 31 42 C33.475 41.505 33.475 41.505 36 41 C37.0625 42.8125 37.0625 42.8125 38 45 C37.67 45.99 37.34 46.98 37 48 C38.37168238 50.19038423 38.37168238 50.19038423 40 52 C39.3125 53.9375 39.3125 53.9375 38 56 C35.375 56.75 35.375 56.75 33 57 C32.67 58.32 32.34 59.64 32 61 C30.35 61 28.7 61 27 61 C27 60.01 27 59.02 27 58 C23.535 58.495 23.535 58.495 20 59 C18.16308743 55.21812119 17.84162374 53.05431692 19 49 C18.34 49 17.68 49 17 49 C17 47.68 17 46.36 17 45 C16.34 45 15.68 45 15 45 C15 51.6 15 58.2 15 65 C17.31 65 19.62 65 22 65 C23 66 23 66 23.11352539 69.96899414 C23.1133662 71.74105607 23.10766785 73.5131226 23.09765625 75.28515625 C23.0962413 76.21597519 23.09482635 77.14679413 23.09336853 78.1058197 C23.08775172 81.09141191 23.0751964 84.07693029 23.0625 87.0625 C23.05748716 89.08137913 23.05292388 91.10025943 23.04882812 93.11914062 C23.03777683 98.07945572 23.02050095 103.03971532 23 108 C25.31 108.66 27.62 109.32 30 110 C29 112 29 112 27.34521484 112.61450195 C22.49200924 113.41225457 17.54404055 113.18590312 12.63769531 113.18530273 C10.63863013 113.18748512 8.63960468 113.20599143 6.640625 113.22460938 C5.36960937 113.22654297 4.09859375 113.22847656 2.7890625 113.23046875 C1.63100098 113.23457764 0.47293945 113.23868652 -0.72021484 113.24291992 C-4.11310954 112.99162245 -6.83332989 112.21173908 -10 111 C-9.67 110.34 -9.34 109.68 -9 109 C-6.4375 108.375 -6.4375 108.375 -4 108 C-4.67857056 107.99191315 -5.35714111 107.98382629 -6.05627441 107.97549438 C-13.19572947 107.88863335 -20.33493245 107.7891071 -27.47412109 107.68261719 C-30.12938188 107.64363425 -32.7845665 107.60971702 -35.43994141 107.578125 C-73.93926359 107.11445232 -73.93926359 107.11445232 -81 103 C-80.67 102.34 -80.34 101.68 -80 101 C-78.68 101 -77.36 101 -76 101 C-76.495 100.01 -76.495 100.01 -77 99 C-80.02934491 98.34227572 -80.02934491 98.34227572 -83 98 C-83.33 98.99 -83.66 99.98 -84 101 C-86.4375 100.25 -86.4375 100.25 -89 99 C-90.46033772 95.85465721 -90.07767332 92.41762598 -90 89 C-91.65 89 -93.3 89 -95 89 C-95 86.69 -95 84.38 -95 82 C-93.35 82 -91.7 82 -90 82 C-89.99613281 81.07767578 -89.99613281 81.07767578 -89.9921875 80.13671875 C-89.87217945 77.62855042 -89.68225725 75.42008233 -89 73 C-85.9375 70.9375 -85.9375 70.9375 -83 70 C-82.34 70.99 -81.68 71.98 -81 73 C-79.515 73.495 -79.515 73.495 -78 74 C-78 71.03 -78 68.06 -78 65 C-84.27 65 -90.54 65 -97 65 C-97 64.34 -97 63.68 -97 63 C-94.03 62.505 -94.03 62.505 -91 62 C-91 61.01 -91 60.02 -91 59 C-92.98 59 -94.96 59 -97 59 C-97 58.34 -97 57.68 -97 57 C-95.02 57 -93.04 57 -91 57 C-91 55.68 -91 54.36 -91 53 C-92.98 53 -94.96 53 -97 53 C-97 52.34 -97 51.68 -97 51 C-95.02 51 -93.04 51 -91 51 C-91 49.68 -91 48.36 -91 47 C-92.98 47 -94.96 47 -97 47 C-97 46.34 -97 45.68 -97 45 C-95.02 45 -93.04 45 -91 45 C-91 44.01 -91 43.02 -91 42 C-92.98 41.67 -94.96 41.34 -97 41 C-97 40.67 -97 40.34 -97 40 C-90.73 40 -84.46 40 -78 40 C-78 38.35 -78 36.7 -78 35 C-84.27 35 -90.54 35 -97 35 C-97 34.67 -97 34.34 -97 34 C-94.525 33.505 -94.525 33.505 -92 33 C-91.67 31.68 -91.34 30.36 -91 29 C-92.98 29 -94.96 29 -97 29 C-97 28.67 -97 28.34 -97 28 C-95.35 27.67 -93.7 27.34 -92 27 C-91.67 25.68 -91.34 24.36 -91 23 C-92.98 23 -94.96 23 -97 23 C-97 22.67 -97 22.34 -97 22 C-95.35 21.67 -93.7 21.34 -92 21 C-91.67 19.68 -91.34 18.36 -91 17 C-92.98 17 -94.96 17 -97 17 C-97 16.67 -97 16.34 -97 16 C-91.11060037 13.95887931 -85.8280285 13.72721958 -79.625 13.8125 C-78.25408203 13.8134668 -78.25408203 13.8134668 -76.85546875 13.81445312 C-70.14064837 13.85935163 -70.14064837 13.85935163 -69 15 C-66.19023482 15.16017166 -63.40226404 15.25950534 -60.58984375 15.31640625 C-59.74780899 15.33718735 -58.90577423 15.35796844 -58.03822327 15.37937927 C-55.33806821 15.44496812 -52.63781283 15.50380276 -49.9375 15.5625 C-48.11131759 15.60567637 -46.28514546 15.64929036 -44.45898438 15.69335938 C-39.97276008 15.80065894 -35.4864345 15.90189966 -31 16 C-31 16.33 -31 16.66 -31 17 C-43.87 17 -56.74 17 -70 17 C-69.67 18.32 -69.34 19.64 -69 21 C-56.46 21.33 -43.92 21.66 -31 22 C-31 22.33 -31 22.66 -31 23 C-43.87 23 -56.74 23 -70 23 C-69.67 24.32 -69.34 25.64 -69 27 C-51.51 27 -34.02 27 -16 27 C-16.99 23.535 -16.99 23.535 -18 20 C-19.32 19.34 -20.64 18.68 -22 18 C-21.01 15.03 -20.02 12.06 -19 9 C-17.88625 9.20625 -16.7725 9.4125 -15.625 9.625 C-14.42875 9.74875 -13.2325 9.8725 -12 10 C-9.23776722 7.23776722 -9.42143709 4.79293383 -9 1 C-5.94152152 0.45627049 -3.11227195 0 0 0 Z M-8 14 C-10.2084626 17.31269391 -10.80664241 19.14978851 -10.5546875 23.0625 C-9.4812192 26.81207941 -7.28696911 28.01541488 -4 30 C-1.36163023 30.1672392 -1.36163023 30.1672392 1 30 C1.03738281 29.01257813 1.07476562 28.02515625 1.11328125 27.0078125 C1.17902344 25.72648437 1.24476562 24.44515625 1.3125 23.125 C1.37050781 21.84882812 1.42851563 20.57265625 1.48828125 19.2578125 C1.65714844 18.18273437 1.82601562 17.10765625 2 16 C2.99 15.34 3.98 14.68 5 14 C3.01607489 11.60148679 3.01607489 11.60148679 -0.8125 11.5625 C-4.17733329 11.66669338 -5.04370031 12.02913354 -8 14 Z M-70 29 C-70 29.66 -70 30.32 -70 31 C-67.69 31 -65.38 31 -63 31 C-63 30.34 -63 29.68 -63 29 C-65.31 29 -67.62 29 -70 29 Z M23 47 C22.6366844 49.83386167 22.6431329 51.40522151 24.125 53.875 C26.92151052 55.55290631 28.93690532 54.74875648 32 54 C32.67673447 50.59679066 32.67673447 50.59679066 33 47 C31.11499729 44.68436913 31.11499729 44.68436913 28 44.75 C24.88500271 44.68436913 24.88500271 44.68436913 23 47 Z M-84.25 80.625 C-86.21985834 82.92308586 -86.21985834 82.92308586 -86.5 86 C-86.21376982 89.06575838 -86.21376982 89.06575838 -84.3125 91.375 C-81.61209763 93.27258004 -80.22939919 93.35882213 -77 93 C-76.85024761 85.94348748 -76.85024761 85.94348748 -78 79 C-81.92212225 78.60967296 -81.92212225 78.60967296 -84.25 80.625 Z M-70 95 C-70 96.65 -70 98.3 -70 100 C-57.13 99.01 -57.13 99.01 -44 98 C-43.67 97.01 -43.34 96.02 -43 95 C-51.91 95 -60.82 95 -70 95 Z M-19 95 C-19 95.99 -19 96.98 -19 98 C-13.72 98.33 -8.44 98.66 -3 99 C-3 97.68 -3 96.36 -3 95 C-8.28 95 -13.56 95 -19 95 Z " fill="#5D51FC" transform="translate(104,18)"/>
<path d="M0 0 C2.31 0 4.62 0 7 0 C7 2.97 7 5.94 7 9 C10.3 9 13.6 9 17 9 C17 15.6 17 22.2 17 29 C12.71 29 8.42 29 4 29 C4 29.66 4 30.32 4 31 C12.79133718 32.42426407 12.79133718 32.42426407 29 32 C29 45.2 29 58.4 29 72 C31.31 72.66 33.62 73.32 36 74 C35 76 35 76 33.34521484 76.61450195 C28.49200924 77.41225457 23.54404055 77.18590312 18.63769531 77.18530273 C16.63863013 77.18748512 14.63960468 77.20599143 12.640625 77.22460938 C11.36960937 77.22654297 10.09859375 77.22847656 8.7890625 77.23046875 C7.63100098 77.23457764 6.47293945 77.23868652 5.27978516 77.24291992 C1.88689046 76.99162245 -0.83332989 76.21173908 -4 75 C-3.67 74.34 -3.34 73.68 -3 73 C-0.4375 72.375 -0.4375 72.375 2 72 C1.32142944 71.99191315 0.64285889 71.98382629 -0.05627441 71.97549438 C-7.19572947 71.88863335 -14.33493245 71.7891071 -21.47412109 71.68261719 C-24.12938188 71.64363425 -26.7845665 71.60971702 -29.43994141 71.578125 C-67.93926359 71.11445232 -67.93926359 71.11445232 -75 67 C-74.505 66.01 -74.505 66.01 -74 65 C-72.68 65 -71.36 65 -70 65 C-70.33 64.34 -70.66 63.68 -71 63 C-74.02934491 62.34227572 -74.02934491 62.34227572 -77 62 C-77.33 62.99 -77.66 63.98 -78 65 C-80.4375 64.25 -80.4375 64.25 -83 63 C-84.46033772 59.85465721 -84.07767332 56.41762598 -84 53 C-85.65 53 -87.3 53 -89 53 C-89 50.69 -89 48.38 -89 46 C-87.35 46 -85.7 46 -84 46 C-83.99613281 45.07767578 -83.99613281 45.07767578 -83.9921875 44.13671875 C-83.87217945 41.62855042 -83.68225725 39.42008233 -83 37 C-79.9375 34.9375 -79.9375 34.9375 -77 34 C-76.34 34.99 -75.68 35.98 -75 37 C-74.01 37.33 -73.02 37.66 -72 38 C-72 39.65 -72 41.3 -72 43 C-72.969375 43.28875 -73.93875 43.5775 -74.9375 43.875 C-78.10664203 44.64214682 -78.10664203 44.64214682 -79 47 C-79.40270732 51.1283652 -79.40270732 51.1283652 -77.8125 54.8125 C-75.57968261 56.27538036 -73.62655933 56.64505955 -71 57 C-71 54.03 -71 51.06 -71 48 C-69.02 48 -67.04 48 -65 48 C-64.67 48.66 -64.34 49.32 -64 50 C-55.75 50 -47.5 50 -39 50 C-38.505 49.01 -38.505 49.01 -38 48 C-24.47 48 -10.94 48 3 48 C3 46.35 3 44.7 3 43 C-6.24 43 -15.48 43 -25 43 C-24.67 40.69 -24.34 38.38 -24 36 C-22 36 -20 36 -18 36 C-18.33 35.67 -18.66 35.34 -19 35 C-19.23255814 30.46511628 -19.23255814 30.46511628 -18 28 C-13.68193184 26.56064395 -9.36075802 26.56092986 -4.8359375 26.28125 C-2.10130637 26.31259668 -2.10130637 26.31259668 -1 25 C-0.84213692 23.14825294 -0.74892644 21.2909089 -0.68359375 19.43359375 C-0.64169922 18.30888672 -0.59980469 17.18417969 -0.55664062 16.02539062 C-0.51732422 14.84138672 -0.47800781 13.65738281 -0.4375 12.4375 C-0.37272461 10.65569336 -0.37272461 10.65569336 -0.30664062 8.83789062 C-0.20016454 5.89205216 -0.09815159 2.9461257 0 0 Z M-64 59 C-64 60.65 -64 62.3 -64 64 C-51.13 63.01 -51.13 63.01 -38 62 C-37.67 61.01 -37.34 60.02 -37 59 C-45.91 59 -54.82 59 -64 59 Z M-13 59 C-13 59.99 -13 60.98 -13 62 C-7.72 62.33 -2.44 62.66 3 63 C3 61.68 3 60.36 3 59 C-2.28 59 -7.56 59 -13 59 Z " fill="#5D46F4" transform="translate(98,54)"/>
<path d="M0 0 C0.433125 0.474375 0.86625 0.94875 1.3125 1.4375 C3.02309613 3.23686957 3.02309613 3.23686957 6 4 C6 5.65 6 7.3 6 9 C5.030625 9.28875 4.06125 9.5775 3.0625 9.875 C-0.10664203 10.64214682 -0.10664203 10.64214682 -1 13 C-1.40270732 17.1283652 -1.40270732 17.1283652 0.1875 20.8125 C2.42031739 22.27538036 4.37344067 22.64505955 7 23 C7 20.03 7 17.06 7 14 C8.98 14 10.96 14 13 14 C13.33 14.66 13.66 15.32 14 16 C22.25 16 30.5 16 39 16 C39.33 15.34 39.66 14.68 40 14 C53.53 14 67.06 14 81 14 C81 17.63 81 21.26 81 25 C75.72 25 70.44 25 65 25 C65 25.99 65 26.98 65 28 C65.56847656 27.98839844 66.13695313 27.97679688 66.72265625 27.96484375 C71.60670484 27.90776806 76.18503965 28.18043228 81 29 C81 31.64 81 34.28 81 37 C73.71409984 37.04682155 66.42823335 37.08211748 59.14221191 37.10362434 C55.75718789 37.11395864 52.37226851 37.12792229 48.98730469 37.15087891 C10.5625541 37.39227608 10.5625541 37.39227608 3 33 C3.33 32.34 3.66 31.68 4 31 C5.32 31 6.64 31 8 31 C7.67 30.34 7.34 29.68 7 29 C3.97065509 28.34227572 3.97065509 28.34227572 1 28 C0.67 28.99 0.34 29.98 0 31 C-2.4375 30.25 -2.4375 30.25 -5 29 C-6.46033772 25.85465721 -6.07767332 22.41762598 -6 19 C-7.65 19 -9.3 19 -11 19 C-11 16.69 -11 14.38 -11 12 C-9.35 12 -7.7 12 -6 12 C-5.98582031 11.38511719 -5.97164062 10.77023438 -5.95703125 10.13671875 C-5.81117256 7.66500527 -5.60506817 5.40322852 -5 3 C-2.4375 0.9375 -2.4375 0.9375 0 0 Z M14 25 C14 26.65 14 28.3 14 30 C26.87 29.01 26.87 29.01 40 28 C40.33 27.01 40.66 26.02 41 25 C32.09 25 23.18 25 14 25 Z " fill="#BAD4FE" transform="translate(20,88)"/>
<path d="M0 0 C16.83 0 33.66 0 51 0 C51 10.23 51 20.46 51 31 C34.17 31 17.34 31 0 31 C0 20.77 0 10.54 0 0 Z " fill="#474E94" transform="translate(44,47)"/>
<path d="M0 0 C0.33 1.98 0.66 3.96 1 6 C4.7016431 6.94693195 6.39112465 7.30443767 9.875 5.5625 C10.926875 4.7890625 10.926875 4.7890625 12 4 C14.475 6.97 14.475 6.97 17 10 C16.34 11.32 15.68 12.64 15 14 C16.60681641 14.09087891 16.60681641 14.09087891 18.24609375 14.18359375 C19.64324391 14.26798537 21.04037857 14.35263406 22.4375 14.4375 C23.14455078 14.47681641 23.85160156 14.51613281 24.58007812 14.55664062 C29.88671875 14.88671875 29.88671875 14.88671875 31 16 C31.08748207 17.92667507 31.10697334 19.85651861 31.09765625 21.78515625 C31.09443359 22.95498047 31.09121094 24.12480469 31.08789062 25.33007812 C31.07532227 27.17762695 31.07532227 27.17762695 31.0625 29.0625 C31.05798828 30.29806641 31.05347656 31.53363281 31.04882812 32.80664062 C31.03699608 35.87114117 31.02051173 38.93554721 31 42 C33.475 41.505 33.475 41.505 36 41 C37.0625 42.8125 37.0625 42.8125 38 45 C37.67 45.99 37.34 46.98 37 48 C38.37168238 50.19038423 38.37168238 50.19038423 40 52 C39.3125 53.9375 39.3125 53.9375 38 56 C35.375 56.75 35.375 56.75 33 57 C32.67 58.32 32.34 59.64 32 61 C30.35 61 28.7 61 27 61 C27 60.01 27 59.02 27 58 C23.535 58.495 23.535 58.495 20 59 C18.16308743 55.21812119 17.84162374 53.05431692 19 49 C18.34 49 17.68 49 17 49 C17 47.68 17 46.36 17 45 C16.34 45 15.68 45 15 45 C14.87625 44.195625 14.7525 43.39125 14.625 42.5625 C14.41875 41.716875 14.2125 40.87125 14 40 C13.01 39.505 13.01 39.505 12 39 C12 38.34 12 37.68 12 37 C12.66 37 13.32 37 14 37 C14 35.02 14 33.04 14 31 C6.41 31 -1.18 31 -9 31 C-9 30.34 -9 29.68 -9 29 C-16.26 29 -23.52 29 -31 29 C-31 28.34 -31 27.68 -31 27 C-26.05 27 -21.1 27 -16 27 C-16.66 24.69 -17.32 22.38 -18 20 C-19.32 19.34 -20.64 18.68 -22 18 C-21.01 15.03 -20.02 12.06 -19 9 C-17.88625 9.20625 -16.7725 9.4125 -15.625 9.625 C-14.42875 9.74875 -13.2325 9.8725 -12 10 C-9.23776722 7.23776722 -9.42143709 4.79293383 -9 1 C-5.94152152 0.45627049 -3.11227195 0 0 0 Z M-8 14 C-10.2084626 17.31269391 -10.80664241 19.14978851 -10.5546875 23.0625 C-9.4812192 26.81207941 -7.28696911 28.01541488 -4 30 C-1.36163023 30.1672392 -1.36163023 30.1672392 1 30 C1.03738281 29.01257813 1.07476562 28.02515625 1.11328125 27.0078125 C1.17902344 25.72648437 1.24476562 24.44515625 1.3125 23.125 C1.37050781 21.84882812 1.42851563 20.57265625 1.48828125 19.2578125 C1.65714844 18.18273437 1.82601562 17.10765625 2 16 C2.99 15.34 3.98 14.68 5 14 C3.01607489 11.60148679 3.01607489 11.60148679 -0.8125 11.5625 C-4.17733329 11.66669338 -5.04370031 12.02913354 -8 14 Z M23 47 C22.6366844 49.83386167 22.6431329 51.40522151 24.125 53.875 C26.92151052 55.55290631 28.93690532 54.74875648 32 54 C32.67673447 50.59679066 32.67673447 50.59679066 33 47 C31.11499729 44.68436913 31.11499729 44.68436913 28 44.75 C24.88500271 44.68436913 24.88500271 44.68436913 23 47 Z " fill="#34CED8" transform="translate(104,18)"/>
<path d="M0 0 C1.37091797 0.0009668 1.37091797 0.0009668 2.76953125 0.00195312 C9.48435163 0.04685163 9.48435163 0.04685163 10.625 1.1875 C13.43476518 1.34767166 16.22273596 1.44700534 19.03515625 1.50390625 C19.87719101 1.52468735 20.71922577 1.54546844 21.58677673 1.56687927 C24.28693179 1.63246812 26.98718717 1.69130276 29.6875 1.75 C31.51368241 1.79317637 33.33985454 1.83679036 35.16601562 1.88085938 C39.65223992 1.98815894 44.1385655 2.08939966 48.625 2.1875 C48.625 2.5175 48.625 2.8475 48.625 3.1875 C35.755 3.1875 22.885 3.1875 9.625 3.1875 C9.955 4.5075 10.285 5.8275 10.625 7.1875 C23.165 7.5175 35.705 7.8475 48.625 8.1875 C48.625 8.5175 48.625 8.8475 48.625 9.1875 C35.755 9.1875 22.885 9.1875 9.625 9.1875 C9.955 10.5075 10.285 11.8275 10.625 13.1875 C23.165 13.1875 35.705 13.1875 48.625 13.1875 C48.625 13.8475 48.625 14.5075 48.625 15.1875 C39.055 15.1875 29.485 15.1875 19.625 15.1875 C19.625 25.4175 19.625 35.6475 19.625 46.1875 C36.455 46.1875 53.285 46.1875 70.625 46.1875 C70.625 36.6175 70.625 27.0475 70.625 17.1875 C78.215 17.1875 85.805 17.1875 93.625 17.1875 C93.625 19.1675 93.625 21.1475 93.625 23.1875 C92.965 23.1875 92.305 23.1875 91.625 23.1875 C91.625 23.8475 91.625 24.5075 91.625 25.1875 C93.11 25.6825 93.11 25.6825 94.625 26.1875 C94.625 34.4375 94.625 42.6875 94.625 51.1875 C96.935 51.1875 99.245 51.1875 101.625 51.1875 C101.955 52.1775 102.285 53.1675 102.625 54.1875 C93.81539858 55.49262614 85.43460142 55.49262614 76.625 54.1875 C76.955 53.1975 77.285 52.2075 77.625 51.1875 C81.915 51.1875 86.205 51.1875 90.625 51.1875 C90.625 44.5875 90.625 37.9875 90.625 31.1875 C87.325 31.1875 84.025 31.1875 80.625 31.1875 C80.625 28.2175 80.625 25.2475 80.625 22.1875 C78.315 22.1875 76.005 22.1875 73.625 22.1875 C73.63547363 22.93435059 73.64594727 23.68120117 73.65673828 24.45068359 C73.6982077 27.82125508 73.72429729 31.191773 73.75 34.5625 C73.76675781 35.738125 73.78351563 36.91375 73.80078125 38.125 C73.80722656 39.24648437 73.81367187 40.36796875 73.8203125 41.5234375 C73.83078613 42.56032715 73.84125977 43.5972168 73.85205078 44.66552734 C73.625 47.1875 73.625 47.1875 71.625 49.1875 C69.38586426 49.44146729 69.38586426 49.44146729 66.56445312 49.44628906 C64.98271301 49.45574554 64.98271301 49.45574554 63.36901855 49.46539307 C62.22630493 49.4613446 61.08359131 49.45729614 59.90625 49.453125 C58.15302429 49.45599518 58.15302429 49.45599518 56.36437988 49.45892334 C53.88956487 49.46028626 51.41474274 49.45658241 48.93994141 49.44824219 C45.14078795 49.43754446 41.34210741 49.44813418 37.54296875 49.4609375 C35.14322812 49.45961592 32.74348778 49.45705357 30.34375 49.453125 C28.62967957 49.45919769 28.62967957 49.45919769 26.88098145 49.46539307 C25.82648804 49.45908875 24.77199463 49.45278442 23.68554688 49.44628906 C22.7544812 49.44469788 21.82341553 49.44310669 20.86413574 49.44146729 C18.625 49.1875 18.625 49.1875 16.625 47.1875 C16.45011746 44.75005103 16.39322595 42.4281392 16.4296875 39.9921875 C16.4325174 39.28474396 16.43534729 38.57730042 16.43826294 37.84841919 C16.44946863 35.5862749 16.47457321 33.32452485 16.5 31.0625 C16.51002933 29.52995363 16.51915526 27.99740106 16.52734375 26.46484375 C16.54940914 22.70557699 16.58394104 18.94660536 16.625 15.1875 C14.315 15.1875 12.005 15.1875 9.625 15.1875 C9.625 17.1675 9.625 19.1475 9.625 21.1875 C0.715 21.1875 -8.195 21.1875 -17.375 21.1875 C-17.375 20.8575 -17.375 20.5275 -17.375 20.1875 C-15.725 19.8575 -14.075 19.5275 -12.375 19.1875 C-12.045 17.8675 -11.715 16.5475 -11.375 15.1875 C-13.355 15.1875 -15.335 15.1875 -17.375 15.1875 C-17.375 14.8575 -17.375 14.5275 -17.375 14.1875 C-15.725 13.8575 -14.075 13.5275 -12.375 13.1875 C-12.045 11.8675 -11.715 10.5475 -11.375 9.1875 C-13.355 9.1875 -15.335 9.1875 -17.375 9.1875 C-17.375 8.8575 -17.375 8.5275 -17.375 8.1875 C-15.725 7.8575 -14.075 7.5275 -12.375 7.1875 C-12.045 5.8675 -11.715 4.5475 -11.375 3.1875 C-13.355 3.1875 -15.335 3.1875 -17.375 3.1875 C-17.375 2.8575 -17.375 2.5275 -17.375 2.1875 C-11.48560037 0.14637931 -6.2030285 -0.08528042 0 0 Z " fill="#9FE4E0" transform="translate(24.375,31.8125)"/>
<path d="M0 0 C2.31 0 4.62 0 7 0 C7 2.97 7 5.94 7 9 C10.3 9 13.6 9 17 9 C17 15.6 17 22.2 17 29 C12.71 29 8.42 29 4 29 C3.67 33.62 3.34 38.24 3 43 C-6.24 43 -15.48 43 -25 43 C-24.67 40.69 -24.34 38.38 -24 36 C-22 36 -20 36 -18 36 C-18.33 35.67 -18.66 35.34 -19 35 C-19.23255814 30.46511628 -19.23255814 30.46511628 -18 28 C-13.68193184 26.56064395 -9.36075802 26.56092986 -4.8359375 26.28125 C-2.10130637 26.31259668 -2.10130637 26.31259668 -1 25 C-0.84213692 23.14825294 -0.74892644 21.2909089 -0.68359375 19.43359375 C-0.64169922 18.30888672 -0.59980469 17.18417969 -0.55664062 16.02539062 C-0.51732422 14.84138672 -0.47800781 13.65738281 -0.4375 12.4375 C-0.39431641 11.24962891 -0.35113281 10.06175781 -0.30664062 8.83789062 C-0.20016454 5.89205216 -0.09815159 2.9461257 0 0 Z " fill="#7286FE" transform="translate(98,54)"/>
<path d="M0 0 C0.433125 0.474375 0.86625 0.94875 1.3125 1.4375 C3.02309613 3.23686957 3.02309613 3.23686957 6 4 C6 5.65 6 7.3 6 9 C5.030625 9.28875 4.06125 9.5775 3.0625 9.875 C-0.10664203 10.64214682 -0.10664203 10.64214682 -1 13 C-1.43986452 17.03518598 -1.43986452 17.03518598 0.13671875 20.6015625 C3.39651569 23.0481187 7.35127079 23.30042673 11.28515625 24.05859375 C14 25 14 25 16 29 C23.92 28.67 31.84 28.34 40 28 C39.67 28.66 39.34 29.32 39 30 C36.35139573 30.59355614 33.70802678 30.74209269 31 31 C31 31.66 31 32.32 31 33 C45.19 33 59.38 33 74 33 C73.67 32.34 73.34 31.68 73 31 C71.845 30.835 70.69 30.67 69.5 30.5 C68.345 30.335 67.19 30.17 66 30 C65.505 29.01 65.505 29.01 65 28 C70.45769811 27.88861841 75.61509359 28.08342019 81 29 C81 31.64 81 34.28 81 37 C73.71409984 37.04682155 66.42823335 37.08211748 59.14221191 37.10362434 C55.75718789 37.11395864 52.37226851 37.12792229 48.98730469 37.15087891 C10.5625541 37.39227608 10.5625541 37.39227608 3 33 C3.33 32.34 3.66 31.68 4 31 C5.32 31 6.64 31 8 31 C7.67 30.34 7.34 29.68 7 29 C3.97065509 28.34227572 3.97065509 28.34227572 1 28 C0.67 28.99 0.34 29.98 0 31 C-2.4375 30.25 -2.4375 30.25 -5 29 C-6.46033772 25.85465721 -6.07767332 22.41762598 -6 19 C-7.65 19 -9.3 19 -11 19 C-11 16.69 -11 14.38 -11 12 C-9.35 12 -7.7 12 -6 12 C-5.98582031 11.38511719 -5.97164062 10.77023438 -5.95703125 10.13671875 C-5.81117256 7.66500527 -5.60506817 5.40322852 -5 3 C-2.4375 0.9375 -2.4375 0.9375 0 0 Z " fill="#EAEBF2" transform="translate(20,88)"/>
<path d="M0 0 C1.47906892 -0.02689216 2.95827483 -0.04634621 4.4375 -0.0625 C5.26121094 -0.07410156 6.08492187 -0.08570313 6.93359375 -0.09765625 C9 0 9 0 10 1 C10.08748207 2.92667507 10.10697334 4.85651861 10.09765625 6.78515625 C10.09443359 7.95498047 10.09121094 9.12480469 10.08789062 10.33007812 C10.07951172 11.56177734 10.07113281 12.79347656 10.0625 14.0625 C10.05798828 15.29806641 10.05347656 16.53363281 10.04882812 17.80664062 C10.03699608 20.87114117 10.02051173 23.93554721 10 27 C11.65 26.67 13.3 26.34 15 26 C16.0625 27.8125 16.0625 27.8125 17 30 C16.67 30.99 16.34 31.98 16 33 C17.37168238 35.19038423 17.37168238 35.19038423 19 37 C18.3125 38.9375 18.3125 38.9375 17 41 C14.375 41.75 14.375 41.75 12 42 C11.67 43.32 11.34 44.64 11 46 C9.35 46 7.7 46 6 46 C6 45.01 6 44.02 6 43 C2.535 43.495 2.535 43.495 -1 44 C-2.83691257 40.21812119 -3.15837626 38.05431692 -2 34 C-2.66 34 -3.32 34 -4 34 C-4 32.68 -4 31.36 -4 30 C-4.66 30 -5.32 30 -6 30 C-6 28.68 -6 27.36 -6 26 C-5.01 25.34 -4.02 24.68 -3 24 C-3.33 23.67 -3.66 23.34 -4 23 C-4.14193337 19.99668982 -4.04236378 17.00782866 -4 14 C-0.37 14 3.26 14 7 14 C6.34 13.01 5.68 12.02 5 11 C3.7625 10.7834375 3.7625 10.7834375 2.5 10.5625 C0 10 0 10 -1.3125 7.9375 C-1.6528125 6.9784375 -1.6528125 6.9784375 -2 6 C0.49092811 4.75453595 1.41080733 5.2232422 4 6 C4 5.01 4 4.02 4 3 C2.68 2.67 1.36 2.34 0 2 C0 1.34 0 0.68 0 0 Z M2 32 C1.6366844 34.83386167 1.6431329 36.40522151 3.125 38.875 C5.92151052 40.55290631 7.93690532 39.74875648 11 39 C11.67673447 35.59679066 11.67673447 35.59679066 12 32 C10.11499729 29.68436913 10.11499729 29.68436913 7 29.75 C3.88500271 29.68436913 3.88500271 29.68436913 2 32 Z " fill="#38D6CE" transform="translate(125,33)"/>
<path d="M0 0 C1.12019531 -0.00128906 2.24039063 -0.00257812 3.39453125 -0.00390625 C4.57402344 -0.00003906 5.75351562 0.00382812 6.96875 0.0078125 C8.73798828 0.00201172 8.73798828 0.00201172 10.54296875 -0.00390625 C12.22326172 -0.00197266 12.22326172 -0.00197266 13.9375 0 C14.97326172 0.00112793 16.00902344 0.00225586 17.07617188 0.00341797 C19.46875 0.1328125 19.46875 0.1328125 20.46875 1.1328125 C20.56861975 3.97616298 20.60752881 6.78978413 20.59375 9.6328125 C20.59955078 10.82970703 20.59955078 10.82970703 20.60546875 12.05078125 C20.59535767 18.00620483 20.59535767 18.00620483 19.46875 19.1328125 C17.62715977 19.23240871 15.78178033 19.26361661 13.9375 19.265625 C12.81730469 19.26691406 11.69710937 19.26820312 10.54296875 19.26953125 C9.36347656 19.26566406 8.18398438 19.26179688 6.96875 19.2578125 C5.19951172 19.26361328 5.19951172 19.26361328 3.39453125 19.26953125 C1.71423828 19.26759766 1.71423828 19.26759766 0 19.265625 C-1.03576172 19.26449707 -2.07152344 19.26336914 -3.13867188 19.26220703 C-5.53125 19.1328125 -5.53125 19.1328125 -6.53125 18.1328125 C-6.63111975 15.28946202 -6.67002881 12.47584087 -6.65625 9.6328125 C-6.66011719 8.83488281 -6.66398437 8.03695312 -6.66796875 7.21484375 C-6.65573175 0.007248 -6.65573175 0.007248 0 0 Z " fill="#43B2E1" transform="translate(39.53125,85.8671875)"/>
<path d="M0 0 C3.0000624 -0.02721831 5.99987256 -0.04694378 9 -0.0625 C9.83917969 -0.07087891 10.67835937 -0.07925781 11.54296875 -0.08789062 C12.79013672 -0.09272461 12.79013672 -0.09272461 14.0625 -0.09765625 C15.19365234 -0.10551147 15.19365234 -0.10551147 16.34765625 -0.11352539 C19.91451913 0.03914317 23.45744034 0.55718004 27 1 C27 7.93 27 14.86 27 22 C20.07 22 13.14 22 6 22 C6 21.01 6 20.02 6 19 C4.02 19 2.04 19 0 19 C0 18.34 0 17.68 0 17 C1.98 17 3.96 17 6 17 C6 15.68 6 14.36 6 13 C4.02 13 2.04 13 0 13 C0 12.34 0 11.68 0 11 C1.98 11 3.96 11 6 11 C6 9.68 6 8.36 6 7 C4.02 7 2.04 7 0 7 C0 6.34 0 5.68 0 5 C1.98 5 3.96 5 6 5 C6 4.01 6 3.02 6 2 C3.03 1.505 3.03 1.505 0 1 C0 0.67 0 0.34 0 0 Z " fill="#9DDEE9" transform="translate(7,58)"/>
<path d="M0 0 C2.62697064 -0.22137393 5.00893964 -0.28162025 7.625 -0.1875 C8.33140625 -0.17396484 9.0378125 -0.16042969 9.765625 -0.14648438 C11.51074128 -0.1111104 13.25546608 -0.05730221 15 0 C15 3.63 15 7.26 15 11 C9.72 11 4.44 11 -1 11 C-0.505 12.98 -0.505 12.98 0 15 C2.31 15.33 4.62 15.66 7 16 C7.495 17.485 7.495 17.485 8 19 C-6.19 19 -20.38 19 -35 19 C-35 18.34 -35 17.68 -35 17 C-33.72125 16.7525 -32.4425 16.505 -31.125 16.25 C-27.73252682 15.48009414 -27.73252682 15.48009414 -25.5 12.875 C-25.335 12.25625 -25.17 11.6375 -25 11 C-24.01 11.020625 -23.02 11.04125 -22 11.0625 C-20.66660226 11.04630489 -19.33325879 11.02515583 -18 11 C-17.31679687 11.00773437 -16.63359375 11.01546875 -15.9296875 11.0234375 C-12.87435662 10.895648 -10.62393597 10.67069086 -8.48828125 8.375 C-7.1703733 6.46969177 -7.1703733 6.46969177 -6.10546875 4.49609375 C-5.74066406 4.00238281 -5.37585938 3.50867188 -5 3 C-4.01 3 -3.02 3 -2 3 C-1.34 2.01 -0.68 1.02 0 0 Z " fill="#B1CFFE" transform="translate(86,102)"/>
<path d="M0 0 C5.61 0 11.22 0 17 0 C16.67 0.99 16.34 1.98 16 3 C15.01 3 14.02 3 13 3 C13.66 5.31 14.32 7.62 15 10 C13.33333333 10 11.66666667 10 10 10 C9.01 10.495 9.01 10.495 8 11 C8 12.32 8 13.64 8 15 C21.365 15.495 21.365 15.495 35 16 C35 17.65 35 19.3 35 21 C21.47 21 7.94 21 -6 21 C-6.33 15.72 -6.66 10.44 -7 5 C-2 3 -2 3 0 3 C0 2.01 0 1.02 0 0 Z " fill="#6C72FE" transform="translate(66,81)"/>
<path d="M0 0 C2.64 0 5.28 0 8 0 C8 12.54 8 25.08 8 38 C-0.25 38 -8.5 38 -17 38 C-17.26785714 24.74107143 -17.26785714 24.74107143 -15 20 C-14.67 20 -14.34 20 -14 20 C-13.67 22.31 -13.34 24.62 -13 27 C-7.72 27 -2.44 27 3 27 C3.33 21.39 3.66 15.78 4 10 C0.7 10 -2.6 10 -6 10 C-4.71034824 8.62437146 -3.37310707 7.29233607 -2 6 C-1.34 6 -0.68 6 0 6 C0 5.01 0 4.02 0 3 C0.66 3 1.32 3 2 3 C2 2.34 2 1.68 2 1 C1.34 0.67 0.68 0.34 0 0 Z " fill="#6F7DFE" transform="translate(119,86)"/>
<path d="M0 0 C0.33 1.98 0.66 3.96 1 6 C4.7016431 6.94693195 6.39112465 7.30443767 9.875 5.5625 C10.926875 4.7890625 10.926875 4.7890625 12 4 C14.475 6.97 14.475 6.97 17 10 C15.125 13.875 15.125 13.875 14 15 C12.00390625 15.16796875 12.00390625 15.16796875 9.5625 15.1875 C8.35787109 15.20876953 8.35787109 15.20876953 7.12890625 15.23046875 C5 15 5 15 3 13 C-2.54235245 12.42765564 -2.54235245 12.42765564 -7.5 14.5 C-9.71177972 18.18629954 -9.34421275 20.73176192 -9 25 C-8.67 25.66 -8.34 26.32 -8 27 C-10.64 27 -13.28 27 -16 27 C-16.37125 25.329375 -16.37125 25.329375 -16.75 23.625 C-17.67137075 19.58116476 -17.67137075 19.58116476 -22 18 C-21.01 15.03 -20.02 12.06 -19 9 C-17.88625 9.20625 -16.7725 9.4125 -15.625 9.625 C-14.42875 9.74875 -13.2325 9.8725 -12 10 C-9.23776722 7.23776722 -9.42143709 4.79293383 -9 1 C-5.94152152 0.45627049 -3.11227195 0 0 0 Z " fill="#E9EAF1" transform="translate(104,18)"/>
<path d="M0 0 C6.6 0 13.2 0 20 0 C20 1.98 20 3.96 20 6 C19.34 6 18.68 6 18 6 C18 6.66 18 7.32 18 8 C18.99 8.33 19.98 8.66 21 9 C21 17.25 21 25.5 21 34 C23.31 34 25.62 34 28 34 C28.33 34.99 28.66 35.98 29 37 C20.19039858 38.30512614 11.80960142 38.30512614 3 37 C3.33 36.01 3.66 35.02 4 34 C8.29 34 12.58 34 17 34 C17 27.4 17 20.8 17 14 C13.7 14 10.4 14 7 14 C7 11.03 7 8.06 7 5 C4.69 5 2.38 5 0 5 C0 3.35 0 1.7 0 0 Z " fill="#3BC4D6" transform="translate(98,49)"/>
<path d="M0 0 C0.99 0 1.98 0 3 0 C3 9.57 3 19.14 3 29 C19.83 29 36.66 29 54 29 C54 19.43 54 9.86 54 0 C54.99 0 55.98 0 57 0 C57.04938628 4.23582327 57.08571263 8.47149465 57.10986328 12.70751953 C57.11992963 14.14895547 57.1335838 15.59037095 57.15087891 17.03173828 C57.17510012 19.10193934 57.18647641 21.17187076 57.1953125 23.2421875 C57.21102295 25.11173096 57.21102295 25.11173096 57.22705078 27.01904297 C57 30 57 30 55 32 C52.76086426 32.25396729 52.76086426 32.25396729 49.93945312 32.25878906 C48.35771301 32.26824554 48.35771301 32.26824554 46.74401855 32.27789307 C45.60130493 32.2738446 44.45859131 32.26979614 43.28125 32.265625 C41.52802429 32.26849518 41.52802429 32.26849518 39.73937988 32.27142334 C37.26456487 32.27278626 34.78974274 32.26908241 32.31494141 32.26074219 C28.51578795 32.25004446 24.71710741 32.26063418 20.91796875 32.2734375 C18.51822812 32.27211592 16.11848778 32.26955357 13.71875 32.265625 C12.00467957 32.27169769 12.00467957 32.27169769 10.25598145 32.27789307 C9.20148804 32.27158875 8.14699463 32.26528442 7.06054688 32.25878906 C6.1294812 32.25719788 5.19841553 32.25560669 4.23913574 32.25396729 C2 32 2 32 0 30 C-0.22705078 27.01904297 -0.22705078 27.01904297 -0.1953125 23.2421875 C-0.1924826 22.57913605 -0.18965271 21.91608459 -0.18673706 21.23294067 C-0.17553435 19.11344417 -0.15043051 16.99436896 -0.125 14.875 C-0.11497028 13.43880818 -0.10584441 12.00260975 -0.09765625 10.56640625 C-0.075595 7.04413372 -0.04106494 3.52210797 0 0 Z " fill="#38D1CC" transform="translate(41,49)"/>
<path d="M0 0 C1.58206057 0.00667536 3.16410534 0.0186375 4.74609375 0.03515625 C5.55240234 0.03966797 6.35871094 0.04417969 7.18945312 0.04882812 C9.18753131 0.06065107 11.18557158 0.07858711 13.18359375 0.09765625 C13.21043687 2.91021906 13.23035563 5.72252866 13.24609375 8.53515625 C13.25447266 9.33759766 13.26285156 10.14003906 13.27148438 10.96679688 C13.28010805 13.01060846 13.23587525 15.05449527 13.18359375 17.09765625 C11.36243372 18.91881628 8.87687611 18.23000705 6.45703125 18.234375 C5.70679687 18.23050781 4.9565625 18.22664063 4.18359375 18.22265625 C3.05824219 18.22845703 3.05824219 18.22845703 1.91015625 18.234375 C-3.68979572 18.22426678 -3.68979572 18.22426678 -4.81640625 17.09765625 C-4.91621839 14.42034245 -4.955205 11.7746145 -4.94140625 9.09765625 C-4.94527344 8.34742187 -4.94914062 7.5971875 -4.953125 6.82421875 C-4.94103514 0.12643386 -4.94103514 0.12643386 0 0 Z " fill="#95E3EF" transform="translate(109.81640625,95.90234375)"/>
<path d="M0 0 C5.61 0 11.22 0 17 0 C17 5.61 17 11.22 17 17 C11.39 17 5.78 17 0 17 C0 11.33333333 0 5.66666667 0 0 Z " fill="#3D4D9A" transform="translate(15,34)"/>
<path d="M0 0 C2.31 0 4.62 0 7 0 C7.14541967 4.22880411 7.23411527 8.45696413 7.3125 12.6875 C7.3753418 14.48477539 7.3753418 14.48477539 7.43945312 16.31835938 C7.5608921 25.03767802 7.5608921 25.03767802 5.86474609 27.94775391 C4.48046875 29.33203125 4.48046875 29.33203125 2 31 C0.41596476 29.41596476 0.78025065 27.7228362 0.68359375 25.52734375 C0.64169922 24.62822266 0.59980469 23.72910156 0.55664062 22.80273438 C0.51732422 21.85720703 0.47800781 20.91167969 0.4375 19.9375 C0.39431641 18.98810547 0.35113281 18.03871094 0.30664062 17.06054688 C0.20020724 14.70718647 0.09818992 12.35371646 0 10 C-2.64 10 -5.28 10 -8 10 C-8 8.02 -8 6.04 -8 4 C-5.36 4 -2.72 4 0 4 C0 2.68 0 1.36 0 0 Z " fill="#5A38FF" transform="translate(34,49)"/>
<path d="M0 0 C13.53 0 27.06 0 41 0 C41 1.65 41 3.3 41 5 C27.47 5 13.94 5 0 5 C0 3.35 0 1.7 0 0 Z " fill="#3C3D89" transform="translate(60,97)"/>
<path d="M0 0 C0.66 0 1.32 0 2 0 C1.69106068 1.6256807 1.3777305 3.25052748 1.0625 4.875 C0.88847656 5.77992187 0.71445312 6.68484375 0.53515625 7.6171875 C0 10 0 10 -1 12 C0.32 11.67 1.64 11.34 3 11 C3.33 9.68 3.66 8.36 4 7 C4.66 7 5.32 7 6 7 C5.34 6.01 4.68 5.02 4 4 C4.33 3.01 4.66 2.02 5 1 C7.64 1.33 10.28 1.66 13 2 C13.02686553 3.97909398 13.04633375 5.95828971 13.0625 7.9375 C13.07410156 9.03964844 13.08570312 10.14179687 13.09765625 11.27734375 C13 14 13 14 12 15 C10.14630389 15.08737645 8.28932459 15.10698153 6.43359375 15.09765625 C5.30888672 15.09443359 4.18417969 15.09121094 3.02539062 15.08789062 C1.84138672 15.07951172 0.65738281 15.07113281 -0.5625 15.0625 C-1.75037109 15.05798828 -2.93824219 15.05347656 -4.16210938 15.04882812 C-7.10812226 15.03699675 -10.05403681 15.02051287 -13 15 C-13.33 14.01 -13.66 13.02 -14 12 C-10.37 12 -6.74 12 -3 12 C-2.87625 10.7625 -2.7525 9.525 -2.625 8.25 C-2.24253695 5.1237803 -1.69450477 2.71120763 0 0 Z " fill="#37D8C6" transform="translate(47,90)"/>
<path d="M0 0 C0.8971875 0.5259375 0.8971875 0.5259375 1.8125 1.0625 C1.585625 1.805 1.35875 2.5475 1.125 3.3125 C0.51773302 6.12164993 0.51773302 6.12164993 2.25 8.375 C2.765625 8.931875 3.28125 9.48875 3.8125 10.0625 C3.125 12 3.125 12 1.8125 14.0625 C-0.8125 14.8125 -0.8125 14.8125 -3.1875 15.0625 C-3.5175 16.3825 -3.8475 17.7025 -4.1875 19.0625 C-5.8375 19.0625 -7.4875 19.0625 -9.1875 19.0625 C-9.1875 18.0725 -9.1875 17.0825 -9.1875 16.0625 C-11.4975 16.3925 -13.8075 16.7225 -16.1875 17.0625 C-18.02441257 13.28062119 -18.34587626 11.11681692 -17.1875 7.0625 C-17.8475 7.0625 -18.5075 7.0625 -19.1875 7.0625 C-19.1875 5.7425 -19.1875 4.4225 -19.1875 3.0625 C-16.5475 3.0625 -13.9075 3.0625 -11.1875 3.0625 C-11.39375 4.17625 -11.6 5.29 -11.8125 6.4375 C-11.998125 8.231875 -11.998125 8.231875 -12.1875 10.0625 C-10.28994856 12.41223818 -10.28994856 12.41223818 -7.0625 12.1875 C-5.639375 12.125625 -5.639375 12.125625 -4.1875 12.0625 C-3.89187633 6.74079506 -3.89187633 6.74079506 -6.1875 2.0625 C-4.66896708 -0.97456585 -3.05066334 -1.30742714 0 0 Z " fill="#EAEBF2" transform="translate(140.1875,59.9375)"/>
<path d="M0 0 C2.5625 0.3125 2.5625 0.3125 4.375 1.6875 C5.5625 3.3125 5.5625 3.3125 5.5625 5.3125 C7.2125 5.3125 8.8625 5.3125 10.5625 5.3125 C11.2225 6.6325 11.8825 7.9525 12.5625 9.3125 C8.9325 9.3125 5.3025 9.3125 1.5625 9.3125 C1.5625 12.2825 1.5625 15.2525 1.5625 18.3125 C2.2225 18.6425 2.8825 18.9725 3.5625 19.3125 C1.5825 20.3025 1.5825 20.3025 -0.4375 21.3125 C-1.4275 20.6525 -2.4175 19.9925 -3.4375 19.3125 C-3.4375 18.6525 -3.4375 17.9925 -3.4375 17.3125 C-2.7775 17.3125 -2.1175 17.3125 -1.4375 17.3125 C-1.4375 15.3325 -1.4375 13.3525 -1.4375 11.3125 C-3.0771875 11.374375 -3.0771875 11.374375 -4.75 11.4375 C-8.4375 11.3125 -8.4375 11.3125 -11.4375 9.3125 C-11.3125 7.5 -11.3125 7.5 -10.4375 5.3125 C-7.5 3.6875 -7.5 3.6875 -4.4375 2.3125 C-2.4375 0.3125 -2.4375 0.3125 0 0 Z " fill="#F7FCFD" transform="translate(119.4375,37.6875)"/>
<path d="M0 0 C2.64 0 5.28 0 8 0 C8 6.93 8 13.86 8 21 C1.07 21 -5.86 21 -13 21 C-13 20.01 -13 19.02 -13 18 C-6.565 17.505 -6.565 17.505 0 17 C0.33 16.01 0.66 15.02 1 14 C1.99 14 2.98 14 4 14 C3.67 11.69 3.34 9.38 3 7 C2.01 6.67 1.02 6.34 0 6 C0 4.02 0 2.04 0 0 Z " fill="#35D8C3" transform="translate(26,59)"/>
<path d="M0 0 C1.77049689 -0.05410687 3.54146849 -0.09284119 5.3125 -0.125 C6.29863281 -0.14820312 7.28476563 -0.17140625 8.30078125 -0.1953125 C11 0 11 0 14 2 C14.33 2.99 14.66 3.98 15 5 C20.94 5.33 26.88 5.66 33 6 C33 6.66 33 7.32 33 8 C18.81 8 4.62 8 -10 8 C-10 7.34 -10 6.68 -10 6 C-7.98177083 5.609375 -5.96354167 5.21875 -3.9453125 4.828125 C-1.80995329 4.14287884 -1.80995329 4.14287884 -0.7421875 1.921875 C-0.49726562 1.28765625 -0.25234375 0.6534375 0 0 Z " fill="#A0C4FE" transform="translate(61,113)"/>
<path d="M0 0 C1.98 0 3.96 0 6 0 C6.33 0.66 6.66 1.32 7 2 C9.8159849 2.46898963 9.8159849 2.46898963 13.0625 2.625 C14.71958984 2.73714844 14.71958984 2.73714844 16.41015625 2.8515625 C17.26480469 2.90054688 18.11945312 2.94953125 19 3 C19.33 3.99 19.66 4.98 20 6 C20.99 6 21.98 6 23 6 C21.57421875 8.4765625 21.57421875 8.4765625 19 11 C15.92245784 11.65920518 12.94406892 11.5176795 9.8125 11.375 C8.98041016 11.36082031 8.14832031 11.34664062 7.29101562 11.33203125 C1.18268327 11.18268327 1.18268327 11.18268327 0 10 C-0.07205511 8.31391034 -0.08386068 6.62499341 -0.0625 4.9375 C-0.05347656 4.01839844 -0.04445313 3.09929687 -0.03515625 2.15234375 C-0.02355469 1.44207031 -0.01195313 0.73179688 0 0 Z " fill="#C4DBFE" transform="translate(27,102)"/>
<path d="M0 0 C1.32 0 2.64 0 4 0 C4 6.6 4 13.2 4 20 C6.31 20 8.62 20 11 20 C11.33 20.99 11.66 21.98 12 23 C3.19039858 24.30512614 -5.19039858 24.30512614 -14 23 C-13.505 21.515 -13.505 21.515 -13 20 C-8.71 20 -4.42 20 0 20 C0 13.4 0 6.8 0 0 Z " fill="#4C4CA1" transform="translate(115,63)"/>
<path d="M0 0 C1.31871094 -0.01224609 2.63742188 -0.02449219 3.99609375 -0.03710938 C5.90068359 -0.04000977 5.90068359 -0.04000977 7.84375 -0.04296875 C9.00068359 -0.04707764 10.15761719 -0.05118652 11.34960938 -0.05541992 C14.47736509 0.18575467 16.680892 0.85423629 19.5 2.1875 C18.5 4.1875 18.5 4.1875 16.84521484 4.80200195 C11.99200924 5.59975457 7.04404055 5.37340312 2.13769531 5.37280273 C0.13863013 5.37498512 -1.86039532 5.39349143 -3.859375 5.41210938 C-5.13039063 5.41404297 -6.40140625 5.41597656 -7.7109375 5.41796875 C-8.86899902 5.42207764 -10.02706055 5.42618652 -11.22021484 5.43041992 C-14.61310954 5.17912245 -17.33332989 4.39923908 -20.5 3.1875 C-20.17 2.5275 -19.84 1.8675 -19.5 1.1875 C-13.23640183 -0.60566158 -6.45139424 0.00315317 0 0 Z " fill="#EAEBF2" transform="translate(114.5,125.8125)"/>
<path d="M0 0 C0.99 0 1.98 0 3 0 C3.02505615 0.87325928 3.0501123 1.74651855 3.07592773 2.64624023 C3.17087709 5.87602552 3.27012029 9.10564154 3.37231445 12.33520508 C3.41571434 13.73489199 3.45738564 15.13463359 3.49731445 16.53442383 C3.55489445 18.54261495 3.61914 20.55061149 3.68359375 22.55859375 C3.72025146 23.76829834 3.75690918 24.97800293 3.79467773 26.22436523 C3.68938266 28.90705456 3.68938266 28.90705456 5 30 C6.56448383 30.12263388 8.13432772 30.17779522 9.70336914 30.20532227 C11.20481224 30.2352401 11.20481224 30.2352401 12.73658752 30.26576233 C14.36937904 30.29083107 14.36937904 30.29083107 16.03515625 30.31640625 C17.14354355 30.33718735 18.25193085 30.35796844 19.39390564 30.37937927 C22.95003808 30.44499623 26.50624703 30.50381596 30.0625 30.5625 C32.46680493 30.60567368 34.87110199 30.64928758 37.27539062 30.69335938 C43.18351185 30.80068992 49.09170991 30.90243331 55 31 C55 31.33 55 31.66 55 32 C47.48863592 32.05057965 39.97731551 32.08568257 32.46582031 32.10986328 C29.90883747 32.11994038 27.35186621 32.13360226 24.79492188 32.15087891 C21.12627308 32.17505217 17.45777621 32.18646585 13.7890625 32.1953125 C12.0655809 32.21079636 12.0655809 32.21079636 10.30728149 32.22659302 C9.2463327 32.22674408 8.18538391 32.22689514 7.09228516 32.22705078 C6.15518707 32.231492 5.21808899 32.23593323 4.25259399 32.24050903 C2 32 2 32 0 30 C-0.22705078 27.01904297 -0.22705078 27.01904297 -0.1953125 23.2421875 C-0.1924826 22.57913605 -0.18965271 21.91608459 -0.18673706 21.23294067 C-0.17553435 19.11344417 -0.15043051 16.99436896 -0.125 14.875 C-0.11497028 13.43880818 -0.10584441 12.00260975 -0.09765625 10.56640625 C-0.075595 7.04413372 -0.04106494 3.52210797 0 0 Z " fill="#459EE9" transform="translate(41,49)"/>
<path d="M0 0 C0 5.61 0 11.22 0 17 C0.99 17 1.98 17 3 17 C3 18.65 3 20.3 3 22 C0.69 22 -1.62 22 -4 22 C-4 15.73 -4 9.46 -4 3 C-10.27 3 -16.54 3 -23 3 C-23 2.34 -23 1.68 -23 1 C-19.91675903 0.83159521 -16.83339379 0.66558138 -13.75 0.5 C-12.87730469 0.45230469 -12.00460938 0.40460938 -11.10546875 0.35546875 C-10.26113281 0.31035156 -9.41679687 0.26523438 -8.546875 0.21875 C-7.38430176 0.1559082 -7.38430176 0.1559082 -6.19824219 0.09179688 C-4.13373418 0.00558463 -2.0663073 0 0 0 Z " fill="#6E72A9" transform="translate(30,80)"/>
<path d="M0 0 C1.58206057 0.00667536 3.16410534 0.0186375 4.74609375 0.03515625 C5.55240234 0.03966797 6.35871094 0.04417969 7.18945312 0.04882812 C9.18753131 0.06065107 11.18557158 0.07858711 13.18359375 0.09765625 C13.21043687 2.91021906 13.23035563 5.72252866 13.24609375 8.53515625 C13.25447266 9.33759766 13.26285156 10.14003906 13.27148438 10.96679688 C13.28010805 13.01060846 13.23587525 15.05449527 13.18359375 17.09765625 C11.36243372 18.91881628 8.87687611 18.23000705 6.45703125 18.234375 C5.70679687 18.23050781 4.9565625 18.22664063 4.18359375 18.22265625 C3.05824219 18.22845703 3.05824219 18.22845703 1.91015625 18.234375 C-3.68979572 18.22426678 -3.68979572 18.22426678 -4.81640625 17.09765625 C-4.91621839 14.42034245 -4.955205 11.7746145 -4.94140625 9.09765625 C-4.94527344 8.34742187 -4.94914062 7.5971875 -4.953125 6.82421875 C-4.94103514 0.12643386 -4.94103514 0.12643386 0 0 Z M-1.25390625 3.66015625 C-3.43640297 7.06485113 -3.45375087 9.13195637 -2.81640625 13.09765625 C-0.88514523 15.77604198 -0.88514523 15.77604198 2.18359375 17.09765625 C5.99736885 17.09765625 8.20783923 16.94750696 11.12109375 14.41015625 C12.52176913 11.36162748 12.66786695 9.41838673 12.18359375 6.09765625 C10.74698064 3.57758781 10.74698064 3.57758781 8.18359375 2.09765625 C4.24343362 1.53477623 2.12577179 1.49369597 -1.25390625 3.66015625 Z " fill="#52C2EF" transform="translate(109.81640625,95.90234375)"/>
<path d="M0 0 C0.33 0 0.66 0 1 0 C1.02684679 2.64590014 1.04676357 5.29153096 1.0625 7.9375 C1.07087891 8.69224609 1.07925781 9.44699219 1.08789062 10.22460938 C1.09652441 12.14994313 1.05224333 14.07535581 1 16 C0 17 0 17 -3.37890625 17.09765625 C-4.77347077 17.09098369 -6.16801743 17.07902532 -7.5625 17.0625 C-8.27341797 17.05798828 -8.98433594 17.05347656 -9.71679688 17.04882812 C-11.47790013 17.03700864 -13.23896036 17.01907263 -15 17 C-15 15.68 -15 14.36 -15 13 C-14.278125 13.165 -13.55625 13.33 -12.8125 13.5 C-9.92730316 13.31780472 -9.92730316 13.31780472 -8.6953125 11.25390625 C-7.86379343 9.80520377 -7.06713594 8.33586879 -6.30859375 6.84765625 C-5 5 -5 5 -2.84765625 4.24609375 C-1.93306641 4.12427734 -1.93306641 4.12427734 -1 4 C-0.67 2.68 -0.34 1.36 0 0 Z " fill="#36DEC4" transform="translate(134,46)"/>
<path d="M0 0 C0.93134766 0.00322266 1.86269531 0.00644531 2.82226562 0.00976562 C4.26182617 0.02233398 4.26182617 0.02233398 5.73046875 0.03515625 C6.70951172 0.03966797 7.68855469 0.04417969 8.69726562 0.04882812 C11.10422986 0.06056941 13.51106732 0.07699206 15.91796875 0.09765625 C16.24796875 1.41765625 16.57796875 2.73765625 16.91796875 4.09765625 C15.92796875 4.09765625 14.93796875 4.09765625 13.91796875 4.09765625 C12.92796875 4.59265625 12.92796875 4.59265625 11.91796875 5.09765625 C10.17752705 5.18215253 8.43387153 5.20488649 6.69140625 5.1953125 C5.66015625 5.19208984 4.62890625 5.18886719 3.56640625 5.18554688 C1.94605469 5.17297852 1.94605469 5.17297852 0.29296875 5.16015625 C-1.33898437 5.15338867 -1.33898437 5.15338867 -3.00390625 5.14648438 C-5.69666914 5.13467401 -8.38932313 5.11820403 -11.08203125 5.09765625 C-10.75203125 3.77765625 -10.42203125 2.45765625 -10.08203125 1.09765625 C-6.65629188 0.32237146 -3.5096388 -0.02153153 0 0 Z " fill="#655CFE" transform="translate(50.08203125,80.90234375)"/>
<path d="M0 0 C0.99 0 1.98 0 3 0 C3 0.66 3 1.32 3 2 C4.32 1.67 5.64 1.34 7 1 C9.29013653 4.4352048 9.17842973 5.985331 9 10 C8.01 10.33 7.02 10.66 6 11 C5.67 11.66 5.34 12.32 5 13 C2.69 12.67 0.38 12.34 -2 12 C-4 6.375 -4 6.375 -4 3 C-2.68 3 -1.36 3 0 3 C0 2.01 0 1.02 0 0 Z " fill="#E7F7FA" transform="translate(21,63)"/>
<path d="M0 0 C5.88107639 0.31467014 5.88107639 0.31467014 6.9921875 1.42578125 C7.03282582 3.0919524 7.0349085 4.7596622 6.9921875 6.42578125 C3.93955086 7.40698589 2.04482414 7.40698589 -1.0078125 6.42578125 C-0.6778125 8.07578125 -0.3478125 9.72578125 -0.0078125 11.42578125 C-0.6678125 11.42578125 -1.3278125 11.42578125 -2.0078125 11.42578125 C-2.3378125 13.07578125 -2.6678125 14.72578125 -3.0078125 16.42578125 C-4.3278125 16.42578125 -5.6478125 16.42578125 -7.0078125 16.42578125 C-6.75138946 14.50713354 -6.47707814 12.59087131 -6.1953125 10.67578125 C-6.04449219 9.6084375 -5.89367188 8.54109375 -5.73828125 7.44140625 C-4.84844025 3.76783804 -3.97590456 0.84313929 0 0 Z " fill="#3CC0D9" transform="translate(53.0078125,85.57421875)"/>
<path d="M0 0 C6.6 0 13.2 0 20 0 C20 1.98 20 3.96 20 6 C13.4 5.67 6.8 5.34 0 5 C0 3.35 0 1.7 0 0 Z " fill="#34B1C5" transform="translate(98,49)"/>
<path d="M0 0 C2.31 0 4.62 0 7 0 C7.76681614 8.77578475 7.76681614 8.77578475 5.88671875 11.77734375 C4.5 13.125 4.5 13.125 2 15 C2.33 15.66 2.66 16.32 3 17 C2.01 17.33 1.02 17.66 0 18 C0 12.06 0 6.12 0 0 Z " fill="#6C74FE" transform="translate(98,54)"/>
<path d="M0 0 C2.64 0 5.28 0 8 0 C8 4.95 8 9.9 8 15 C5.69 15 3.38 15 1 15 C1.99 14.67 2.98 14.34 4 14 C3.67 11.69 3.34 9.38 3 7 C2.01 6.67 1.02 6.34 0 6 C0 4.02 0 2.04 0 0 Z " fill="#3FCAD3" transform="translate(26,59)"/>
<path d="M0 0 C2.64 0 5.28 0 8 0 C8.21578568 3.1648567 8.34519007 5.3469377 6.84375 8.1875 C5 10 5 10 2.30078125 10.390625 C0.82158203 10.32101563 0.82158203 10.32101563 -0.6875 10.25 C-1.68136719 10.21390625 -2.67523438 10.1778125 -3.69921875 10.140625 C-4.83810547 10.07101563 -4.83810547 10.07101563 -6 10 C-4.71034824 8.62437146 -3.37310707 7.29233607 -2 6 C-1.34 6 -0.68 6 0 6 C0 5.01 0 4.02 0 3 C0.66 3 1.32 3 2 3 C2 2.34 2 1.68 2 1 C1.34 0.67 0.68 0.34 0 0 Z " fill="#645AFE" transform="translate(119,86)"/>
<path d="M0 0 C0.66 0 1.32 0 2 0 C1.69106068 1.6256807 1.3777305 3.25052748 1.0625 4.875 C0.88847656 5.77992187 0.71445312 6.68484375 0.53515625 7.6171875 C0 10 0 10 -1 12 C0.98 12 2.96 12 5 12 C3.68 12.33 2.36 12.66 1 13 C1 13.66 1 14.32 1 15 C-3.62 15 -8.24 15 -13 15 C-13.33 14.01 -13.66 13.02 -14 12 C-10.37 12 -6.74 12 -3 12 C-2.87625 10.7625 -2.7525 9.525 -2.625 8.25 C-2.24253695 5.1237803 -1.69450477 2.71120763 0 0 Z " fill="#4FD3D9" transform="translate(47,90)"/>
<path d="M0 0 C1.32 0 2.64 0 4 0 C4 6.6 4 13.2 4 20 C2.68 19.67 1.36 19.34 0 19 C0 12.73 0 6.46 0 0 Z " fill="#3E3E8B" transform="translate(115,63)"/>
<path d="M0 0 C0.33 0.66 0.66 1.32 1 2 C-2.63 2 -6.26 2 -10 2 C-10 4.97 -10 7.94 -10 11 C-9.34 11.33 -8.68 11.66 -8 12 C-9.98 12.99 -9.98 12.99 -12 14 C-12.99 13.34 -13.98 12.68 -15 12 C-15 11.34 -15 10.68 -15 10 C-14.34 10 -13.68 10 -13 10 C-13 8.02 -13 6.04 -13 4 C-14.093125 4.061875 -15.18625 4.12375 -16.3125 4.1875 C-20 4 -20 4 -23 1 C-15.41 0.67 -7.82 0.34 0 0 Z " fill="#84DFE3" transform="translate(131,45)"/>
<path d="M0 0 C3.93743833 -0.05797565 7.87476719 -0.09358789 11.8125 -0.125 C12.93205078 -0.14175781 14.05160156 -0.15851562 15.20507812 -0.17578125 C16.27822266 -0.18222656 17.35136719 -0.18867187 18.45703125 -0.1953125 C19.9416687 -0.21102295 19.9416687 -0.21102295 21.45629883 -0.22705078 C24 0 24 0 27 2 C29.00125087 1.77405232 31.00310549 1.5421733 32.9921875 1.2265625 C35.49195793 0.94448724 37.58941671 1.32202345 40 2 C38 4 38 4 34.3046875 4.1953125 C32.82799892 4.182009 31.35137642 4.15814835 29.875 4.125 C29.12089844 4.11597656 28.36679688 4.10695313 27.58984375 4.09765625 C25.72642746 4.0740687 23.86317407 4.03819719 22 4 C22 3.34 22 2.68 22 2 C14.74 2 7.48 2 0 2 C0 1.34 0 0.68 0 0 Z " fill="#44D6D2" transform="translate(73,45)"/>
<path d="M0 0 C12.87 0 25.74 0 39 0 C39 0.66 39 1.32 39 2 C29.43 2 19.86 2 10 2 C10 2.66 10 3.32 10 4 C9.01 4 8.02 4 7 4 C7 3.34 7 2.68 7 2 C4.69 2 2.38 2 0 2 C0 1.34 0 0.68 0 0 Z " fill="#64D3E1" transform="translate(34,45)"/>
<path d="M0 0 C8.58 0 17.16 0 26 0 C25.67 0.99 25.34 1.98 25 3 C17.08 3 9.16 3 1 3 C0.67 2.01 0.34 1.02 0 0 Z " fill="#4C4CA0" transform="translate(101,124)"/>
<path d="M0 0 C6.27 0 12.54 0 19 0 C19 2.31 19 4.62 19 7 C18.34 7 17.68 7 17 7 C17 6.34 17 5.68 17 5 C13.37 5 9.74 5 6 5 C6 4.01 6 3.02 6 2 C3.03 1.505 3.03 1.505 0 1 C0 0.67 0 0.34 0 0 Z " fill="#73D7E2" transform="translate(7,58)"/>
<path d="M0 0 C1.67542976 0.28604898 3.34385343 0.61781233 5 1 C6.125 6.625 6.125 6.625 5 10 C3.0625 12.1875 3.0625 12.1875 1 14 C0.34 14 -0.32 14 -1 14 C-1.02685938 11.85423363 -1.04633088 9.70837355 -1.0625 7.5625 C-1.07410156 6.36753906 -1.08570312 5.17257813 -1.09765625 3.94140625 C-1 1 -1 1 0 0 Z " fill="#32C6E0" transform="translate(106,33)"/>
<path d="M0 0 C0.05791844 3.12492251 0.09356746 6.24970766 0.125 9.375 C0.14175781 10.26445313 0.15851563 11.15390625 0.17578125 12.0703125 C0.18222656 12.92109375 0.18867187 13.771875 0.1953125 14.6484375 C0.20578613 15.43395996 0.21625977 16.21948242 0.22705078 17.02880859 C0 19 0 19 -2 21 C-2.66 21 -3.32 21 -4 21 C-4.08107646 18.24940619 -4.14052813 15.50120979 -4.1875 12.75 C-4.21263672 11.97269531 -4.23777344 11.19539063 -4.26367188 10.39453125 C-4.33803676 4.59407 -4.33803676 4.59407 -2.55078125 1.453125 C-1 0 -1 0 0 0 Z " fill="#7181FE" transform="translate(127,92)"/>
<path d="M0 0 C2.31 0 4.62 0 7 0 C7 1.65 7 3.3 7 5 C3.37 5 -0.26 5 -4 5 C-4 6.65 -4 8.3 -4 10 C-5.32 10 -6.64 10 -8 10 C-8 8.02 -8 6.04 -8 4 C-5.36 4 -2.72 4 0 4 C0 2.68 0 1.36 0 0 Z " fill="#3D418D" transform="translate(34,49)"/>
<path d="M0 0 C0.66 0 1.32 0 2 0 C2.02685938 2.14576637 2.04633088 4.29162645 2.0625 6.4375 C2.07410156 7.63246094 2.08570312 8.82742187 2.09765625 10.05859375 C2 13 2 13 1 14 C-1.69654854 14.07319621 -4.36691458 14.09242537 -7.0625 14.0625 C-8.20041992 14.05573242 -8.20041992 14.05573242 -9.36132812 14.04882812 C-11.24091871 14.0370068 -13.12046899 14.01907078 -15 14 C-15.33 12.35 -15.66 10.7 -16 9 C-13.03824877 9.61277612 -11.61941217 10.25372522 -9 12 C-5.42823885 11.91832511 -5.42823885 11.91832511 -2 11 C0.05925681 7.91111478 0.2390374 7.29064073 0.125 3.8125 C0.08375 2.554375 0.0425 1.29625 0 0 Z " fill="#37DBCA" transform="translate(121,100)"/>
<path d="M0 0 C0 4.29 0 8.58 0 13 C-2.31 13 -4.62 13 -7 13 C-6.34 12.34 -5.68 11.68 -5 11 C-4.83746012 8.12036571 -4.83746012 8.12036571 -5.6875 6 C-5.8421875 5.01 -5.8421875 5.01 -6 4 C-4.48982945 2.05835215 -2.65606402 0 0 0 Z " fill="#738DFD" transform="translate(127,111)"/>
<path d="M0 0 C1.24716797 0.00322266 2.49433594 0.00644531 3.77929688 0.00976562 C5.07287109 0.01814453 6.36644531 0.02652344 7.69921875 0.03515625 C9.66858398 0.04192383 9.66858398 0.04192383 11.67773438 0.04882812 C14.91410885 0.06059676 18.15039053 0.07703865 21.38671875 0.09765625 C21.05671875 0.75765625 20.72671875 1.41765625 20.38671875 2.09765625 C19.73074707 2.11747559 19.07477539 2.13729492 18.39892578 2.15771484 C15.43610806 2.25278132 12.47401343 2.36253377 9.51171875 2.47265625 C7.96291016 2.5190625 7.96291016 2.5190625 6.3828125 2.56640625 C4.90361328 2.62441406 4.90361328 2.62441406 3.39453125 2.68359375 C2.4833252 2.71501465 1.57211914 2.74643555 0.63330078 2.77880859 C-1.81259311 2.89648136 -1.81259311 2.89648136 -3.61328125 5.09765625 C-6.34197532 5.06478042 -8.90994305 4.53367854 -11.61328125 4.09765625 C-11.61328125 3.10765625 -11.61328125 2.11765625 -11.61328125 1.09765625 C-7.68039761 0.16677716 -4.03673962 -0.0184326 0 0 Z " fill="#D9D9E8" transform="translate(106.61328125,125.90234375)"/>
<path d="M0 0 C1.32 0.33 2.64 0.66 4 1 C3.34 2.65 2.68 4.3 2 6 C1.34 6 0.68 6 0 6 C0.66 7.98 1.32 9.96 2 12 C1.01 11.34 0.02 10.68 -1 10 C-2.9896995 9.60986284 -4.99019869 9.26797351 -7 9 C-7 6 -7 6 -5.1875 3.8125 C-3 2 -3 2 0 2 C0 1.34 0 0.68 0 0 Z " fill="#46ABE6" transform="translate(40,88)"/>
<path d="M0 0 C2.375 -0.1875 2.375 -0.1875 5 0 C5.66 0.99 6.32 1.98 7 3 C7.99 3.33 8.98 3.66 10 4 C9.67 4.66 9.34 5.32 9 6 C4.05 6 -0.9 6 -6 6 C-6 5.34 -6 4.68 -6 4 C-4.02 4 -2.04 4 0 4 C0 2.68 0 1.36 0 0 Z " fill="#8ADBE3" transform="translate(13,71)"/>
<path d="M0 0 C0.66 0 1.32 0 2 0 C2 2.97 2 5.94 2 9 C4.97 9.33 7.94 9.66 11 10 C11 10.33 11 10.66 11 11 C5.39 11 -0.22 11 -6 11 C-6 10.67 -6 10.34 -6 10 C-4.35 9.67 -2.7 9.34 -1 9 C-0.67 7.68 -0.34 6.36 0 5 C-1.98 5 -3.96 5 -6 5 C-6 4.67 -6 4.34 -6 4 C-4.35 3.67 -2.7 3.34 -1 3 C-0.67 2.01 -0.34 1.02 0 0 Z " fill="#75DCDC" transform="translate(13,42)"/>
<path d="M0 0 C2.31 0 4.62 0 7 0 C7.75 2.25 7.75 2.25 8 5 C6.25 7.3125 6.25 7.3125 4 9 C3.01 9 2.02 9 1 9 C0.67 6.03 0.34 3.06 0 0 Z " fill="#6DD4E3" transform="translate(110,33)"/>
<path d="M0 0 C2.875 -0.125 2.875 -0.125 6 0 C6.66 0.66 7.32 1.32 8 2 C8.33 1.34 8.66 0.68 9 0 C9.66 0 10.32 0 11 0 C11 1.65 11 3.3 11 5 C7.37 5 3.74 5 0 5 C0 3.35 0 1.7 0 0 Z " fill="#38B0C8" transform="translate(33,97)"/>
<path d="M0 0 C3.3 0 6.6 0 10 0 C10 0.99 10 1.98 10 3 C8.02 3.33 6.04 3.66 4 4 C3.896875 4.639375 3.79375 5.27875 3.6875 5.9375 C3.460625 6.618125 3.23375 7.29875 3 8 C2.01 8.33 1.02 8.66 0 9 C0 6.03 0 3.06 0 0 Z " fill="#3DBCDD" transform="translate(105,54)"/>
<path d="M0 0 C1.23556641 0.01740234 1.23556641 0.01740234 2.49609375 0.03515625 C3.32238281 0.04417969 4.14867187 0.05320312 5 0.0625 C5.63808594 0.07410156 6.27617188 0.08570312 6.93359375 0.09765625 C7.26359375 0.75765625 7.59359375 1.41765625 7.93359375 2.09765625 C6.61359375 2.09765625 5.29359375 2.09765625 3.93359375 2.09765625 C3.93359375 2.75765625 3.93359375 3.41765625 3.93359375 4.09765625 C1.95359375 5.08765625 1.95359375 5.08765625 -0.06640625 6.09765625 C-0.06640625 6.75765625 -0.06640625 7.41765625 -0.06640625 8.09765625 C-1.05640625 8.09765625 -2.04640625 8.09765625 -3.06640625 8.09765625 C-3.10882348 5.7647085 -3.10733562 3.43063058 -3.06640625 1.09765625 C-2.06640625 0.09765625 -2.06640625 0.09765625 0 0 Z " fill="#4995EC" transform="translate(36.06640625,85.90234375)"/>
<path d="M0 0 C0.33 0.99 0.66 1.98 1 3 C-1 5 -1 5 -3.8203125 5.1953125 C-4.91085938 5.17210938 -6.00140625 5.14890625 -7.125 5.125 C-8.22070312 5.10695313 -9.31640625 5.08890625 -10.4453125 5.0703125 C-11.28835938 5.04710938 -12.13140625 5.02390625 -13 5 C-13 4.01 -13 3.02 -13 2 C-8.71 1.34 -4.42 0.68 0 0 Z " fill="#3ED6D1" transform="translate(26,75)"/>
<path d="M0 0 C2.64 0 5.28 0 8 0 C7.67 1.98 7.34 3.96 7 6 C4.69 6 2.38 6 0 6 C0 4.02 0 2.04 0 0 Z " fill="#3DB3DF" transform="translate(26,59)"/>
<path d="M0 0 C0 0.33 0 0.66 0 1 C-1.98 1 -3.96 1 -6 1 C-5.73606499 4.43230448 -5.73606499 4.43230448 -5 8 C-4.01 8.66 -3.02 9.32 -2 10 C-5.125 9.47916667 -8.25 8.95833333 -11.375 8.4375 C-12.674375 8.2209375 -12.674375 8.2209375 -14 8 C-14 7.67 -14 7.34 -14 7 C-12.35 6.67 -10.7 6.34 -9 6 C-8.67 4.68 -8.34 3.36 -8 2 C-9.98 2 -11.96 2 -14 2 C-14 1.67 -14 1.34 -14 1 C-9.32798795 -0.20568053 -4.78503708 -0.09382426 0 0 Z " fill="#7BD5E7" transform="translate(21,33)"/>
<path d="M0 0 C0.33 0 0.66 0 1 0 C1.36 5.4 1.36 5.4 -0.125 7.875 C-2.78034983 9.4682099 -4.96789518 9.20214032 -8 9 C-7.67 8.01 -7.34 7.02 -7 6 C-6.01 5.67 -5.02 5.34 -4 5 C-2.63755204 3.35704805 -1.30135125 1.69175663 0 0 Z " fill="#43D9DA" transform="translate(119,102)"/>
<path d="M0 0 C1.134375 0.020625 2.26875 0.04125 3.4375 0.0625 C0.4375 2.0625 0.4375 2.0625 -1.5625 2.0625 C-1.8925 5.6925 -2.2225 9.3225 -2.5625 13.0625 C-3.2225 13.0625 -3.8825 13.0625 -4.5625 13.0625 C-4.58936553 11.08340602 -4.60883375 9.10421029 -4.625 7.125 C-4.63660156 6.02285156 -4.64820312 4.92070313 -4.66015625 3.78515625 C-4.51237367 -0.33502211 -4.25789233 0.07469987 0 0 Z " fill="#44BEF0" transform="translate(109.5625,95.9375)"/>
<path d="M0 0 C0.99 0.33 1.98 0.66 3 1 C3 1.99 3 2.98 3 4 C2.01 4.33 1.02 4.66 0 5 C-0.33 5.66 -0.66 6.32 -1 7 C-3.31 6.67 -5.62 6.34 -8 6 C-8.33 5.01 -8.66 4.02 -9 3 C-8.34 2.34 -7.68 1.68 -7 1 C-6.34 1.66 -5.68 2.32 -5 3 C-2.91666667 2.83333333 -2.91666667 2.83333333 -1 2 C-0.67 1.34 -0.34 0.68 0 0 Z " fill="#F9FDFD" transform="translate(27,69)"/>
<path d="M0 0 C2.31 0 4.62 0 7 0 C3.25 5.75 3.25 5.75 1 8 C1.66 8 2.32 8 3 8 C2.67 9.32 2.34 10.64 2 12 C1.34 11.67 0.68 11.34 0 11 C0 7.33333333 0 3.66666667 0 0 Z " fill="#4BD8D4" transform="translate(121,47)"/>
<path d="M0 0 C0 3.3 0 6.6 0 10 C-1.98 10.99 -1.98 10.99 -4 12 C-4.368 4.64 -4.368 4.64 -2.5625 1.5 C-1 0 -1 0 0 0 Z " fill="#6C72FE" transform="translate(127,92)"/>
<path d="M0 0 C1.98 0 3.96 0 6 0 C6 1.98 6 3.96 6 6 C4.02 6 2.04 6 0 6 C0 4.02 0 2.04 0 0 Z " fill="#A7C8FF" transform="translate(83,83)"/>
<path d="M0 0 C0.99 0 1.98 0 3 0 C3.08121924 1.60332791 3.13929134 3.20784026 3.1875 4.8125 C3.23970703 6.15248047 3.23970703 6.15248047 3.29296875 7.51953125 C3 10 3 10 0 13 C0 8.71 0 4.42 0 0 Z " fill="#3B96D8" transform="translate(41,49)"/>
<path d="M0 0 C2.31 0 4.62 0 7 0 C7 1.65 7 3.3 7 5 C4.69 5 2.38 5 0 5 C0 3.35 0 1.7 0 0 Z " fill="#3C3E8A" transform="translate(98,49)"/>
<path d="M0 0 C6.6 0 13.2 0 20 0 C20 0.99 20 1.98 20 3 C13.4 2.34 6.8 1.68 0 1 C0 0.67 0 0.34 0 0 Z " fill="#41D1D8" transform="translate(14,32)"/>
<path d="M0 0 C7.92 0.33 15.84 0.66 24 1 C24 1.33 24 1.66 24 2 C19.38 2 14.76 2 10 2 C10 2.66 10 3.32 10 4 C9.01 4 8.02 4 7 4 C7 3.34 7 2.68 7 2 C4.69 2 2.38 2 0 2 C0 1.34 0 0.68 0 0 Z " fill="#8BD7E7" transform="translate(34,45)"/>
<path d="M0 0 C1.63001953 0.15275391 1.63001953 0.15275391 3.29296875 0.30859375 C4.54013672 0.43427734 4.54013672 0.43427734 5.8125 0.5625 C5.8125 1.2225 5.8125 1.8825 5.8125 2.5625 C0.8625 2.5625 -4.0875 2.5625 -9.1875 2.5625 C-9.1875 1.9025 -9.1875 1.2425 -9.1875 0.5625 C-5.76060364 -0.57979879 -3.57647782 -0.34611076 0 0 Z " fill="#99C0FE" transform="translate(68.1875,118.4375)"/>
<path d="M0 0 C1.485 0.99 1.485 0.99 3 2 C3.42915004 6.54899046 2.99170782 9.89210262 1 14 C0.67 14 0.34 14 0 14 C0 9.38 0 4.76 0 0 Z " fill="#5E4CFE" transform="translate(102,97)"/>
<path d="M0 0 C0.33 0 0.66 0 1 0 C1.144375 1.11375 1.28875 2.2275 1.4375 3.375 C1.78372035 6.82142047 1.78372035 6.82142047 3 9 C2.34 9 1.68 9 1 9 C1 9.66 1 10.32 1 11 C0.01 11 -0.98 11 -2 11 C-1.85892253 9.54119891 -1.71197585 8.08296449 -1.5625 6.625 C-1.48128906 5.81289062 -1.40007812 5.00078125 -1.31640625 4.1640625 C-1 2 -1 2 0 0 Z " fill="#6762FE" transform="translate(104,106)"/>
<path d="M0 0 C0.66 0 1.32 0 2 0 C1.34 3.3 0.68 6.6 0 10 C-0.99 10.33 -1.98 10.66 -3 11 C-2.69217504 9.35328588 -2.37860766 7.70764424 -2.0625 6.0625 C-1.88847656 5.14597656 -1.71445312 4.22945313 -1.53515625 3.28515625 C-1 1 -1 1 0 0 Z " fill="#DAF4F6" transform="translate(47,90)"/>
<path d="M0 0 C0 2.31 0 4.62 0 7 C-1.65 7.33 -3.3 7.66 -5 8 C-5 4.87099787 -4.57548683 3.62581138 -3 1 C-1 0 -1 0 0 0 Z " fill="#35DEC1" transform="translate(60,97)"/>
<path d="M0 0 C2.0625 0.4375 2.0625 0.4375 4 1 C4 2.32 4 3.64 4 5 C2.68 5.33 1.36 5.66 0 6 C-0.38218767 4.34385343 -0.71395102 2.67542976 -1 1 C-0.67 0.67 -0.34 0.34 0 0 Z " fill="#4CCEDB" transform="translate(22,67)"/>
<path d="M0 0 C3.87132028 0.57352893 6.08172796 2.48704352 9 5 C6.36 5 3.72 5 1 5 C0.67 3.35 0.34 1.7 0 0 Z " fill="#3ED3E1" transform="translate(105,109)"/>
<path d="M0 0 C0.66 0.33 1.32 0.66 2 1 C2 2.65 2 4.3 2 6 C-0.31 6 -2.62 6 -5 6 C-4.34 5.34 -3.68 4.68 -3 4 C-3.33 3.34 -3.66 2.68 -4 2 C-2.125 0.9375 -2.125 0.9375 0 0 Z " fill="#7999FE" transform="translate(125,118)"/>
<path d="M0 0 C-0.33 0.66 -0.66 1.32 -1 2 C-4.63 1.67 -8.26 1.34 -12 1 C-12 0.34 -12 -0.32 -12 -1 C-10.56465159 -1.2226746 -9.12654475 -1.42761906 -7.6875 -1.625 C-6.48673828 -1.79902344 -6.48673828 -1.79902344 -5.26171875 -1.9765625 C-3 -2 -3 -2 0 0 Z " fill="#A5DEE8" transform="translate(19,70)"/>
<path d="M0 0 C0.66 0 1.32 0 2 0 C2 2.97 2 5.94 2 9 C1.34 9 0.68 9 0 9 C0 7.68 0 6.36 0 5 C-1.98 5 -3.96 5 -6 5 C-6 4.67 -6 4.34 -6 4 C-4.35 3.67 -2.7 3.34 -1 3 C-0.67 2.01 -0.34 1.02 0 0 Z " fill="#6AD4E2" transform="translate(13,42)"/>
<path d="M0 0 C-2 2 -2 2 -5.0390625 2.1953125 C-6.22242187 2.17210937 -7.40578125 2.14890625 -8.625 2.125 C-9.81351562 2.10695312 -11.00203125 2.08890625 -12.2265625 2.0703125 C-13.14179687 2.04710937 -14.05703125 2.02390625 -15 2 C-15 1.34 -15 0.68 -15 0 C-13.88625 0.020625 -12.7725 0.04125 -11.625 0.0625 C-0.64788732 -0.12676056 -0.64788732 -0.12676056 0 0 Z " fill="#84CDDE" transform="translate(113,47)"/>
<path d="M0 0 C1.98 0.99 1.98 0.99 4 2 C4 3.65 4 5.3 4 7 C2.68 6.67 1.36 6.34 0 6 C0 4.02 0 2.04 0 0 Z " fill="#3AC4C6" transform="translate(115,56)"/>
<path d="M0 0 C0.66 0 1.32 0 2 0 C2 1.65 2 3.3 2 5 C2.66 5.33 3.32 5.66 4 6 C2.02 6.99 2.02 6.99 0 8 C-0.66 7.01 -1.32 6.02 -2 5 C-1.34 5 -0.68 5 0 5 C0 3.35 0 1.7 0 0 Z " fill="#FFFFFF" transform="translate(119,51)"/>
<path d="M0 0 C2.64 0.33 5.28 0.66 8 1 C6.68 1.33 5.36 1.66 4 2 C4 2.66 4 3.32 4 4 C2.35 4 0.7 4 -1 4 C-0.67 2.68 -0.34 1.36 0 0 Z " fill="#46D8D0" transform="translate(44,101)"/>
<path d="M0 0 C1.32 0 2.64 0 4 0 C3.67 1.65 3.34 3.3 3 5 C1.68 5 0.36 5 -1 5 C-0.67 3.35 -0.34 1.7 0 0 Z " fill="#34C2C6" transform="translate(47,97)"/>
<path d="M0 0 C1.32 0 2.64 0 4 0 C4 1.65 4 3.3 4 5 C2.68 5.33 1.36 5.66 0 6 C0 4.02 0 2.04 0 0 Z " fill="#35AFC6" transform="translate(26,59)"/>
<path d="M0 0 C1.65 1.65 3.3 3.3 5 5 C3.35 6.32 1.7 7.64 0 9 C0 8.01 0 7.02 0 6 C0.66 6 1.32 6 2 6 C1.34 5.01 0.68 4.02 0 3 C0 2.01 0 1.02 0 0 Z " fill="#E7F8FA" transform="translate(51,91)"/>
<path d="M0 0 C2.31 0 4.62 0 7 0 C5.6875 2.5 5.6875 2.5 4 5 C3.01 5 2.02 5 1 5 C1 4.01 1 3.02 1 2 C0.67 1.34 0.34 0.68 0 0 Z " fill="#43D3D1" transform="translate(53,92)"/>
<path d="M0 0 C1.65 0 3.3 0 5 0 C5 1.32 5 2.64 5 4 C3.35 4 1.7 4 0 4 C0 2.68 0 1.36 0 0 Z " fill="#3ACDDB" transform="translate(13,71)"/>
<path d="M0 0 C0.33 0 0.66 0 1 0 C1 2.64 1 5.28 1 8 C0.01 8.33 -0.98 8.66 -2 9 C-2.25 3.375 -2.25 3.375 0 0 Z " fill="#409AE9" transform="translate(43,59)"/>
<path d="M0 0 C0.33 0.99 0.66 1.98 1 3 C0.34 3 -0.32 3 -1 3 C-0.34 4.98 0.32 6.96 1 9 C-0.65 8.01 -2.3 7.02 -4 6 C-2.84826645 3.53199953 -1.95216435 1.95216435 0 0 Z " fill="#E2F4FA" transform="translate(41,91)"/>
<path d="M0 0 C0.66 0.33 1.32 0.66 2 1 C0.68 2.65 -0.64 4.3 -2 6 C-3.65 5.67 -5.3 5.34 -7 5 C-7 4.34 -7 3.68 -7 3 C-5.68 3.33 -4.36 3.66 -3 4 C-2.01 2.68 -1.02 1.36 0 0 Z " fill="#C5F0F4" transform="translate(117,102)"/>
<path d="M0 0 C0 1.32 0 2.64 0 4 C-0.99 4.33 -1.98 4.66 -3 5 C-3.66 3.68 -4.32 2.36 -5 1 C-3 0 -3 0 0 0 Z " fill="#43CDE4" transform="translate(123,96)"/>
<path d="M0 0 C2.31 0 4.62 0 7 0 C4 2 4 2 2 2 C2 2.66 2 3.32 2 4 C1.01 4 0.02 4 -1 4 C-0.67 2.68 -0.34 1.36 0 0 Z " fill="#46ADF6" transform="translate(106,96)"/>
<path d="M0 0 C2.31 0 4.62 0 7 0 C6.01 0.33 5.02 0.66 4 1 C3.67 1.99 3.34 2.98 3 4 C2.01 4 1.02 4 0 4 C0 2.68 0 1.36 0 0 Z " fill="#32C6DF" transform="translate(13,65)"/>
<path d="M0 0 C0.33 0.66 0.66 1.32 1 2 C1.99 2.66 2.98 3.32 4 4 C0.875 3.47916667 -2.25 2.95833333 -5.375 2.4375 C-6.24125 2.293125 -7.1075 2.14875 -8 2 C-8 1.67 -8 1.34 -8 1 C-5.23735711 0.40267181 -2.83967231 0 0 0 Z " fill="#99C8DE" transform="translate(15,39)"/>
<path d="M0 0 C1.9375 0.3125 1.9375 0.3125 4 1 C4.33 1.99 4.66 2.98 5 4 C3.35 4 1.7 4 0 4 C0 2.68 0 1.36 0 0 Z " fill="#43C7D8" transform="translate(48,93)"/>
<path d="M0 0 C0 0.66 0 1.32 0 2 C-1.98 2.99 -1.98 2.99 -4 4 C-4 4.66 -4 5.32 -4 6 C-4.99 6 -5.98 6 -7 6 C-6.75 4.125 -6.75 4.125 -6 2 C-3.85331506 0.61504198 -2.56128588 0 0 0 Z " fill="#409AE9" transform="translate(40,88)"/>
<path d="M0 0 C0.61875 0.33 1.2375 0.66 1.875 1 C3.91018344 2.14193235 3.91018344 2.14193235 6 2 C6 2.66 6 3.32 6 4 C3.69 4 1.38 4 -1 4 C-0.67 2.68 -0.34 1.36 0 0 Z " fill="#32C6E1" transform="translate(14,59)"/>
</svg>
