<?xml version="1.0" encoding="UTF-8"?>
<svg version="1.1" xmlns="http://www.w3.org/2000/svg" width="150" height="150">
<path d="M0 0 C0.99 1.98 0.99 1.98 2 4 C4.91634129 4.2502157 4.91634129 4.2502157 8 4 C8.66 3.01 9.32 2.02 10 1 C13.87132028 1.57352893 16.08172796 3.48704352 19 6 C18.649375 6.78375 18.29875 7.5675 17.9375 8.375 C17.4734375 9.674375 17.4734375 9.674375 17 11 C17.495 11.99 17.495 11.99 18 13 C19.82337891 13.09087891 19.82337891 13.09087891 21.68359375 13.18359375 C23.26824228 13.26798332 24.85287702 13.3526321 26.4375 13.4375 C27.64116211 13.49647461 27.64116211 13.49647461 28.86914062 13.55664062 C34.88671875 13.88671875 34.88671875 13.88671875 36 15 C36.08713831 16.70772358 36.10700007 18.41898649 36.09765625 20.12890625 C36.09443359 21.16337891 36.09121094 22.19785156 36.08789062 23.26367188 C36.07951172 24.35228516 36.07113281 25.44089844 36.0625 26.5625 C36.05798828 27.65498047 36.05347656 28.74746094 36.04882812 29.87304688 C36.03699826 32.58208495 36.02051543 35.29101599 36 38 C36.66 38 37.32 38 38 38 C38.061875 38.61875 38.12375 39.2375 38.1875 39.875 C38.828919 42.27761141 38.828919 42.27761141 41.5625 43.25 C42.366875 43.4975 43.17125 43.745 44 44 C44 45.32 44 46.64 44 48 C43.34 48 42.68 48 42 48 C42.20625 49.093125 42.4125 50.18625 42.625 51.3125 C43 55 43 55 41 58 C38.69 57.67 36.38 57.34 34 57 C34 57.99 34 58.98 34 60 C32.35 60 30.7 60 29 60 C28.01 57.525 28.01 57.525 27 55 C25.68 55 24.36 55 23 55 C22.01 52.525 22.01 52.525 21 50 C21.495 49.54625 21.99 49.0925 22.5 48.625 C24.22609337 47.12364481 24.22609337 47.12364481 24 45 C22.02 44.505 22.02 44.505 20 44 C20 50.6 20 57.2 20 64 C22.31 64 24.62 64 27 64 C28 65 28 65 28.11352539 68.96899414 C28.1133662 70.74105607 28.10766785 72.5131226 28.09765625 74.28515625 C28.0962413 75.21597519 28.09482635 76.14679413 28.09336853 77.1058197 C28.08775172 80.09141191 28.0751964 83.07693029 28.0625 86.0625 C28.05748716 88.08137913 28.05292388 90.10025943 28.04882812 92.11914062 C28.03777683 97.07945572 28.02050095 102.03971532 28 107 C30.31 107.66 32.62 108.32 35 109 C34 111 34 111 32.34521484 111.61450195 C27.49200924 112.41225457 22.54404055 112.18590312 17.63769531 112.18530273 C15.63863013 112.18748512 13.63960468 112.20599143 11.640625 112.22460938 C10.36960937 112.22654297 9.09859375 112.22847656 7.7890625 112.23046875 C6.63100098 112.23457764 5.47293945 112.23868652 4.27978516 112.24291992 C0.88689046 111.99162245 -1.83332989 111.21173908 -5 110 C-4.67 109.34 -4.34 108.68 -4 108 C-1.4375 107.375 -1.4375 107.375 1 107 C0.32142944 106.99191315 -0.35714111 106.98382629 -1.05627441 106.97549438 C-8.19572947 106.88863335 -15.33493245 106.7891071 -22.47412109 106.68261719 C-25.12938188 106.64363425 -27.7845665 106.60971702 -30.43994141 106.578125 C-68.93926359 106.11445232 -68.93926359 106.11445232 -76 102 C-74.60804085 99.2160817 -72.84424221 99.02101003 -70 98 C-73.71736641 97.65099442 -73.71736641 97.65099442 -76.8125 99.5 C-77.204375 99.995 -77.59625 100.49 -78 101 C-79.98 100.01 -81.96 99.02 -84 98 C-83.79375 97.21625 -83.5875 96.4325 -83.375 95.625 C-83.25125 94.75875 -83.1275 93.8925 -83 93 C-85.35953094 90.64046906 -86.77895617 90.50858587 -90 90 C-90 87.69 -90 85.38 -90 83 C-88.02 82.505 -88.02 82.505 -86 82 C-85.29925156 78.846632 -85 76.27275026 -85 73 C-82.5 71.25 -82.5 71.25 -80 70 C-79.34 70.66 -78.68 71.32 -78 72 C-75.42938689 72.64767793 -75.42938689 72.64767793 -73 73 C-73 70.03 -73 67.06 -73 64 C-79.27 64 -85.54 64 -92 64 C-92 63.34 -92 62.68 -92 62 C-89.03 61.505 -89.03 61.505 -86 61 C-86 60.01 -86 59.02 -86 58 C-87.98 58 -89.96 58 -92 58 C-92 57.34 -92 56.68 -92 56 C-90.02 56 -88.04 56 -86 56 C-86 54.68 -86 53.36 -86 52 C-87.98 52 -89.96 52 -92 52 C-92 51.34 -92 50.68 -92 50 C-90.02 50 -88.04 50 -86 50 C-86 48.68 -86 47.36 -86 46 C-87.98 46 -89.96 46 -92 46 C-92 45.34 -92 44.68 -92 44 C-90.02 44 -88.04 44 -86 44 C-86 43.01 -86 42.02 -86 41 C-87.98 40.67 -89.96 40.34 -92 40 C-92 39.67 -92 39.34 -92 39 C-85.73 39 -79.46 39 -73 39 C-73 37.35 -73 35.7 -73 34 C-79.27 34 -85.54 34 -92 34 C-92 33.67 -92 33.34 -92 33 C-89.525 32.505 -89.525 32.505 -87 32 C-86.67 30.68 -86.34 29.36 -86 28 C-87.98 28 -89.96 28 -92 28 C-92 27.67 -92 27.34 -92 27 C-90.35 26.67 -88.7 26.34 -87 26 C-86.67 24.68 -86.34 23.36 -86 22 C-87.98 22 -89.96 22 -92 22 C-92 21.67 -92 21.34 -92 21 C-90.35 20.67 -88.7 20.34 -87 20 C-86.67 18.68 -86.34 17.36 -86 16 C-87.98 16 -89.96 16 -92 16 C-92 15.67 -92 15.34 -92 15 C-86.11060037 12.95887931 -80.8280285 12.72721958 -74.625 12.8125 C-73.25408203 12.8134668 -73.25408203 12.8134668 -71.85546875 12.81445312 C-65.14064837 12.85935163 -65.14064837 12.85935163 -64 14 C-61.19023482 14.16017166 -58.40226404 14.25950534 -55.58984375 14.31640625 C-54.74780899 14.33718735 -53.90577423 14.35796844 -53.03822327 14.37937927 C-50.33806821 14.44496812 -47.63781283 14.50380276 -44.9375 14.5625 C-43.11131759 14.60567637 -41.28514546 14.64929036 -39.45898438 14.69335938 C-34.97276008 14.80065894 -30.4864345 14.90189966 -26 15 C-26 15.33 -26 15.66 -26 16 C-38.87 16 -51.74 16 -65 16 C-64.67 17.32 -64.34 18.64 -64 20 C-51.46 20.33 -38.92 20.66 -26 21 C-26 21.33 -26 21.66 -26 22 C-38.87 22 -51.74 22 -65 22 C-64.67 23.32 -64.34 24.64 -64 26 C-46.51 26 -29.02 26 -11 26 C-11.495 25.01 -11.495 25.01 -12 24 C-14.52733235 23.34444881 -14.52733235 23.34444881 -17 23 C-16.67 20.03 -16.34 17.06 -16 14 C-14.02 14 -12.04 14 -10 14 C-8.37049588 9.87831311 -7.73735399 7.29299643 -9 3 C-3.375 0 -3.375 0 0 0 Z M-3 13 C-5.2084626 16.31269391 -5.80664241 18.14978851 -5.5546875 22.0625 C-4.4812192 25.81207941 -2.28696911 27.01541488 1 29 C3.63836977 29.1672392 3.63836977 29.1672392 6 29 C6.03738281 28.01257813 6.07476562 27.02515625 6.11328125 26.0078125 C6.17902344 24.72648437 6.24476562 23.44515625 6.3125 22.125 C6.37050781 20.84882812 6.42851563 19.57265625 6.48828125 18.2578125 C6.65714844 17.18273437 6.82601562 16.10765625 7 15 C7.99 14.34 8.98 13.68 10 13 C8.01607489 10.60148679 8.01607489 10.60148679 4.1875 10.5625 C0.82266671 10.66669338 -0.04370031 11.02913354 -3 13 Z M-65 28 C-65 28.66 -65 29.32 -65 30 C-62.69 30 -60.38 30 -58 30 C-58 29.34 -58 28.68 -58 28 C-60.31 28 -62.62 28 -65 28 Z M28 46 C28.32326553 49.59679066 28.32326553 49.59679066 29 53 C33.07079208 54.1508314 33.07079208 54.1508314 36.875 52.875 C38.3568671 50.40522151 38.3633156 48.83386167 38 46 C36.11499729 43.68436913 36.11499729 43.68436913 33 43.75 C29.88500271 43.68436913 29.88500271 43.68436913 28 46 Z M-79.25 79.625 C-81.21985834 81.92308586 -81.21985834 81.92308586 -81.5 85 C-81.21376982 88.06575838 -81.21376982 88.06575838 -79.3125 90.375 C-76.61209763 92.27258004 -75.22939919 92.35882213 -72 92 C-71.85024761 84.94348748 -71.85024761 84.94348748 -73 78 C-76.92212225 77.60967296 -76.92212225 77.60967296 -79.25 79.625 Z M-62 94 C-63.485 96.475 -63.485 96.475 -65 99 C-52.13 98.01 -52.13 98.01 -39 97 C-38.67 96.01 -38.34 95.02 -38 94 C-41.93711437 93.85507281 -45.87354625 93.76605463 -49.8125 93.6875 C-50.93205078 93.64560547 -52.05160156 93.60371094 -53.20507812 93.56054688 C-54.81479492 93.53637695 -54.81479492 93.53637695 -56.45703125 93.51171875 C-57.44678955 93.48553467 -58.43654785 93.45935059 -59.45629883 93.43237305 C-60.29572021 93.61968994 -61.1351416 93.80700684 -62 94 Z M-14 94 C-14 94.99 -14 95.98 -14 97 C-8.72 97.33 -3.44 97.66 2 98 C2 96.68 2 95.36 2 94 C-3.28 94 -8.56 94 -14 94 Z " fill="#5E50F8" transform="translate(99,19)"/>
<path d="M0 0 C0.99 1.98 0.99 1.98 2 4 C4.91634129 4.2502157 4.91634129 4.2502157 8 4 C8.66 3.01 9.32 2.02 10 1 C13.87132028 1.57352893 16.08172796 3.48704352 19 6 C18.649375 6.78375 18.29875 7.5675 17.9375 8.375 C17.4734375 9.674375 17.4734375 9.674375 17 11 C17.495 11.99 17.495 11.99 18 13 C19.82337891 13.09087891 19.82337891 13.09087891 21.68359375 13.18359375 C23.26824228 13.26798332 24.85287702 13.3526321 26.4375 13.4375 C27.64116211 13.49647461 27.64116211 13.49647461 28.86914062 13.55664062 C34.88671875 13.88671875 34.88671875 13.88671875 36 15 C36.08713831 16.70772358 36.10700007 18.41898649 36.09765625 20.12890625 C36.09443359 21.16337891 36.09121094 22.19785156 36.08789062 23.26367188 C36.07951172 24.35228516 36.07113281 25.44089844 36.0625 26.5625 C36.05798828 27.65498047 36.05347656 28.74746094 36.04882812 29.87304688 C36.03699826 32.58208495 36.02051543 35.29101599 36 38 C36.66 38 37.32 38 38 38 C38.061875 38.61875 38.12375 39.2375 38.1875 39.875 C38.828919 42.27761141 38.828919 42.27761141 41.5625 43.25 C42.366875 43.4975 43.17125 43.745 44 44 C44 45.32 44 46.64 44 48 C43.34 48 42.68 48 42 48 C42.20625 49.093125 42.4125 50.18625 42.625 51.3125 C43 55 43 55 41 58 C38.69 57.67 36.38 57.34 34 57 C34 57.99 34 58.98 34 60 C32.35 60 30.7 60 29 60 C28.01 57.525 28.01 57.525 27 55 C25.68 55 24.36 55 23 55 C22.01 52.525 22.01 52.525 21 50 C21.495 49.54625 21.99 49.0925 22.5 48.625 C24.22609337 47.12364481 24.22609337 47.12364481 24 45 C22.02 44.505 22.02 44.505 20 44 C20 50.6 20 57.2 20 64 C22.31 64 24.62 64 27 64 C27.33 64.99 27.66 65.98 28 67 C19.19039858 68.30512614 10.80960142 68.30512614 2 67 C2.495 65.515 2.495 65.515 3 64 C7.29 64 11.58 64 16 64 C16 57.4 16 50.8 16 44 C12.7 44 9.4 44 6 44 C6 41.03 6 38.06 6 35 C3.69 35 1.38 35 -1 35 C-0.98952637 35.74685059 -0.97905273 36.49370117 -0.96826172 37.26318359 C-0.9267923 40.63375508 -0.90070271 44.004273 -0.875 47.375 C-0.85824219 48.550625 -0.84148437 49.72625 -0.82421875 50.9375 C-0.81777344 52.05898437 -0.81132813 53.18046875 -0.8046875 54.3359375 C-0.79421387 55.37282715 -0.78374023 56.4097168 -0.77294922 57.47802734 C-1 60 -1 60 -3 62 C-5.23913574 62.25396729 -5.23913574 62.25396729 -8.06054688 62.25878906 C-9.64228699 62.26824554 -9.64228699 62.26824554 -11.25598145 62.27789307 C-12.39869507 62.2738446 -13.54140869 62.26979614 -14.71875 62.265625 C-16.47197571 62.26849518 -16.47197571 62.26849518 -18.26062012 62.27142334 C-20.73543513 62.27278626 -23.21025726 62.26908241 -25.68505859 62.26074219 C-29.48421205 62.25004446 -33.28289259 62.26063418 -37.08203125 62.2734375 C-39.48177188 62.27211592 -41.88151222 62.26955357 -44.28125 62.265625 C-45.99532043 62.27169769 -45.99532043 62.27169769 -47.74401855 62.27789307 C-48.79851196 62.27158875 -49.85300537 62.26528442 -50.93945312 62.25878906 C-51.8705188 62.25719788 -52.80158447 62.25560669 -53.76086426 62.25396729 C-56 62 -56 62 -58 60 C-58.17488254 57.56255103 -58.23177405 55.2406392 -58.1953125 52.8046875 C-58.1924826 52.09724396 -58.18965271 51.38980042 -58.18673706 50.66091919 C-58.17553137 48.3987749 -58.15042679 46.13702485 -58.125 43.875 C-58.11497067 42.34245363 -58.10584474 40.80990106 -58.09765625 39.27734375 C-58.07559086 35.51807699 -58.04105896 31.75910536 -58 28 C-60.31 28 -62.62 28 -65 28 C-65 29.98 -65 31.96 -65 34 C-73.91 34 -82.82 34 -92 34 C-92 33.67 -92 33.34 -92 33 C-89.525 32.505 -89.525 32.505 -87 32 C-86.67 30.68 -86.34 29.36 -86 28 C-87.98 28 -89.96 28 -92 28 C-92 27.67 -92 27.34 -92 27 C-90.35 26.67 -88.7 26.34 -87 26 C-86.67 24.68 -86.34 23.36 -86 22 C-87.98 22 -89.96 22 -92 22 C-92 21.67 -92 21.34 -92 21 C-90.35 20.67 -88.7 20.34 -87 20 C-86.67 18.68 -86.34 17.36 -86 16 C-87.98 16 -89.96 16 -92 16 C-92 15.67 -92 15.34 -92 15 C-86.11060037 12.95887931 -80.8280285 12.72721958 -74.625 12.8125 C-73.25408203 12.8134668 -73.25408203 12.8134668 -71.85546875 12.81445312 C-65.14064837 12.85935163 -65.14064837 12.85935163 -64 14 C-61.19023482 14.16017166 -58.40226404 14.25950534 -55.58984375 14.31640625 C-54.74780899 14.33718735 -53.90577423 14.35796844 -53.03822327 14.37937927 C-50.33806821 14.44496812 -47.63781283 14.50380276 -44.9375 14.5625 C-43.11131759 14.60567637 -41.28514546 14.64929036 -39.45898438 14.69335938 C-34.97276008 14.80065894 -30.4864345 14.90189966 -26 15 C-26 15.33 -26 15.66 -26 16 C-38.87 16 -51.74 16 -65 16 C-64.67 17.32 -64.34 18.64 -64 20 C-51.46 20.33 -38.92 20.66 -26 21 C-26 21.33 -26 21.66 -26 22 C-38.87 22 -51.74 22 -65 22 C-64.67 23.32 -64.34 24.64 -64 26 C-46.51 26 -29.02 26 -11 26 C-11.495 25.01 -11.495 25.01 -12 24 C-14.52733235 23.34444881 -14.52733235 23.34444881 -17 23 C-16.67 20.03 -16.34 17.06 -16 14 C-14.02 14 -12.04 14 -10 14 C-8.37049588 9.87831311 -7.73735399 7.29299643 -9 3 C-3.375 0 -3.375 0 0 0 Z M-3 13 C-5.2084626 16.31269391 -5.80664241 18.14978851 -5.5546875 22.0625 C-4.4812192 25.81207941 -2.28696911 27.01541488 1 29 C3.63836977 29.1672392 3.63836977 29.1672392 6 29 C6.03738281 28.01257813 6.07476562 27.02515625 6.11328125 26.0078125 C6.17902344 24.72648437 6.24476562 23.44515625 6.3125 22.125 C6.37050781 20.84882812 6.42851563 19.57265625 6.48828125 18.2578125 C6.65714844 17.18273437 6.82601562 16.10765625 7 15 C7.99 14.34 8.98 13.68 10 13 C8.01607489 10.60148679 8.01607489 10.60148679 4.1875 10.5625 C0.82266671 10.66669338 -0.04370031 11.02913354 -3 13 Z M28 46 C28.32326553 49.59679066 28.32326553 49.59679066 29 53 C33.07079208 54.1508314 33.07079208 54.1508314 36.875 52.875 C38.3568671 50.40522151 38.3633156 48.83386167 38 46 C36.11499729 43.68436913 36.11499729 43.68436913 33 43.75 C29.88500271 43.68436913 29.88500271 43.68436913 28 46 Z " fill="#38D3CB" transform="translate(99,19)"/>
<path d="M0 0 C0.99 0.66 1.98 1.32 3 2 C4.65549531 2.38499891 6.3222433 2.72793135 8 3 C8 4.65 8 6.3 8 8 C7.030625 8.28875 6.06125 8.5775 5.0625 8.875 C1.89335797 9.64214682 1.89335797 9.64214682 1 12 C0.59729268 16.1283652 0.59729268 16.1283652 2.1875 19.8125 C4.42031739 21.27538036 6.37344067 21.64505955 9 22 C9 19.03 9 16.06 9 13 C10.98 13 12.96 13 15 13 C15.33 13.66 15.66 14.32 16 15 C24.25 15 32.5 15 41 15 C41.33 14.34 41.66 13.68 42 13 C55.53 13 69.06 13 83 13 C83 16.63 83 20.26 83 24 C77.72 24 72.44 24 67 24 C67 24.99 67 25.98 67 27 C67.56847656 26.98839844 68.13695313 26.97679688 68.72265625 26.96484375 C73.60670484 26.90776806 78.18503965 27.18043228 83 28 C83 30.64 83 33.28 83 36 C75.71409984 36.04682155 68.42823335 36.08211748 61.14221191 36.10362434 C57.75718789 36.11395864 54.37226851 36.12792229 50.98730469 36.15087891 C12.5625541 36.39227608 12.5625541 36.39227608 5 32 C6.39195915 29.2160817 8.15575779 29.02101003 11 28 C7.28263359 27.65099442 7.28263359 27.65099442 4.1875 29.5 C3.795625 29.995 3.40375 30.49 3 31 C1.02 30.01 -0.96 29.02 -3 28 C-2.79375 27.21625 -2.5875 26.4325 -2.375 25.625 C-2.189375 24.325625 -2.189375 24.325625 -2 23 C-4.35953094 20.64046906 -5.77895617 20.50858587 -9 20 C-9 17.69 -9 15.38 -9 13 C-7.68 12.67 -6.36 12.34 -5 12 C-4.29925156 8.846632 -4 6.27275026 -4 3 C-2 1.25 -2 1.25 0 0 Z M19 24 C17.515 26.475 17.515 26.475 16 29 C28.87 28.01 28.87 28.01 42 27 C42.33 26.01 42.66 25.02 43 24 C39.06288563 23.85507281 35.12645375 23.76605463 31.1875 23.6875 C30.06794922 23.64560547 28.94839844 23.60371094 27.79492188 23.56054688 C26.18520508 23.53637695 26.18520508 23.53637695 24.54296875 23.51171875 C23.55321045 23.48553467 22.56345215 23.45935059 21.54370117 23.43237305 C20.70427979 23.61968994 19.8648584 23.80700684 19 24 Z " fill="#B2D0FE" transform="translate(18,89)"/>
<path d="M0 0 C16.83 0 33.66 0 51 0 C51 10.23 51 20.46 51 31 C34.17 31 17.34 31 0 31 C0 20.77 0 10.54 0 0 Z " fill="#474E94" transform="translate(44,47)"/>
<path d="M0 0 C0.66 1.32 1.32 2.64 2 4 C4.91634129 4.2502157 4.91634129 4.2502157 8 4 C8.66 3.01 9.32 2.02 10 1 C13.87132028 1.57352893 16.08172796 3.48704352 19 6 C18.4740625 7.175625 18.4740625 7.175625 17.9375 8.375 C17.628125 9.24125 17.31875 10.1075 17 11 C17.495 11.99 17.495 11.99 18 13 C19.21558594 13.06058594 20.43117187 13.12117188 21.68359375 13.18359375 C23.26824228 13.26798332 24.85287702 13.3526321 26.4375 13.4375 C27.64116211 13.49647461 27.64116211 13.49647461 28.86914062 13.55664062 C34.88671875 13.88671875 34.88671875 13.88671875 36 15 C36.08713831 16.70772358 36.10700007 18.41898649 36.09765625 20.12890625 C36.09443359 21.16337891 36.09121094 22.19785156 36.08789062 23.26367188 C36.07532227 24.8965918 36.07532227 24.8965918 36.0625 26.5625 C36.05798828 27.65498047 36.05347656 28.74746094 36.04882812 29.87304688 C36.03699826 32.58208495 36.02051543 35.29101599 36 38 C36.66 38 37.32 38 38 38 C38.061875 38.61875 38.12375 39.2375 38.1875 39.875 C38.828919 42.27761141 38.828919 42.27761141 41.5625 43.25 C42.366875 43.4975 43.17125 43.745 44 44 C44 45.32 44 46.64 44 48 C43.34 48 42.68 48 42 48 C42.20625 49.093125 42.4125 50.18625 42.625 51.3125 C43 55 43 55 41 58 C38.69 57.67 36.38 57.34 34 57 C34 57.99 34 58.98 34 60 C32.35 60 30.7 60 29 60 C28.34 58.35 27.68 56.7 27 55 C25.68 55 24.36 55 23 55 C22.34 53.35 21.68 51.7 21 50 C21.495 49.54625 21.99 49.0925 22.5 48.625 C24.22609337 47.12364481 24.22609337 47.12364481 24 45 C22.68 44.67 21.36 44.34 20 44 C19.87625 43.360625 19.7525 42.72125 19.625 42.0625 C19.41875 41.381875 19.2125 40.70125 19 40 C18.01 39.505 18.01 39.505 17 39 C17 38.34 17 37.68 17 37 C17.66 37 18.32 37 19 37 C18.505 34.03 18.505 34.03 18 31 C11.73 30.67 5.46 30.34 -1 30 C-1 29.34 -1 28.68 -1 28 C1.31 28.33 3.62 28.66 6 29 C5.94779297 27.51886719 5.94779297 27.51886719 5.89453125 26.0078125 C5.86746094 24.72648437 5.84039062 23.44515625 5.8125 22.125 C5.76029297 20.21074219 5.76029297 20.21074219 5.70703125 18.2578125 C5.80371094 17.18273437 5.90039062 16.10765625 6 15 C6.99 14.34 7.98 13.68 9 13 C7.78410016 11.56844101 7.78410016 11.56844101 4.1875 11.6875 C1.21382315 11.74622611 0.12248853 11.92650688 -2.5 13.5 C-4.71177972 17.18629954 -4.34421275 19.73176192 -4 24 C-3.67 24.66 -3.34 25.32 -3 26 C-5.64 26 -8.28 26 -11 26 C-11.33 25.34 -11.66 24.68 -12 24 C-14.52733235 23.34444881 -14.52733235 23.34444881 -17 23 C-16.505 18.545 -16.505 18.545 -16 14 C-14.02 14 -12.04 14 -10 14 C-8.37049588 9.87831311 -7.73735399 7.29299643 -9 3 C-3.375 0 -3.375 0 0 0 Z M28 46 C28.32326553 49.59679066 28.32326553 49.59679066 29 53 C33.07079208 54.1508314 33.07079208 54.1508314 36.875 52.875 C38.3568671 50.40522151 38.3633156 48.83386167 38 46 C36.11499729 43.68436913 36.11499729 43.68436913 33 43.75 C29.88500271 43.68436913 29.88500271 43.68436913 28 46 Z " fill="#37D2D4" transform="translate(99,19)"/>
<path d="M0 0 C2.31 0 4.62 0 7 0 C7 2.97 7 5.94 7 9 C10.3 9 13.6 9 17 9 C17 15.6 17 22.2 17 29 C12.71 29 8.42 29 4 29 C3.67 33.62 3.34 38.24 3 43 C-12.51 43.33 -28.02 43.66 -44 44 C-44 44.66 -44 45.32 -44 46 C-44.66 46 -45.32 46 -46 46 C-46 45.01 -46 44.02 -46 43 C-48.47266765 43.34444881 -48.47266765 43.34444881 -51 44 C-51.33 44.66 -51.66 45.32 -52 46 C-52.66 46 -53.32 46 -54 46 C-54 45.01 -54 44.02 -54 43 C-55.32 43 -56.64 43 -58 43 C-58.33 43.99 -58.66 44.98 -59 46 C-60.32 44.35 -61.64 42.7 -63 41 C-60.61518778 38.23863848 -58.37538437 37.28586071 -55 36 C-53.32983484 35.00585407 -51.66279327 34.0064275 -50 33 C-46.85069107 31.95023036 -44.61185544 31.89868405 -41.3125 31.9375 C-40.31863281 31.94652344 -39.32476562 31.95554687 -38.30078125 31.96484375 C-37.16189453 31.98224609 -37.16189453 31.98224609 -36 32 C-36.33 31.01 -36.66 30.02 -37 29 C-32.90134144 27.05891336 -29.49881087 26.7134858 -24.984375 26.62109375 C-23.9997226 26.59560204 -23.9997226 26.59560204 -22.99517822 26.56959534 C-20.91354793 26.51677207 -18.83193552 26.47627737 -16.75 26.4375 C-14.6538771 26.39357072 -12.5579073 26.34695217 -10.4619751 26.29469299 C-8.57081889 26.2482181 -6.67944923 26.21068669 -4.78808594 26.17358398 C-2.09396851 26.31456901 -2.09396851 26.31456901 -1 25 C-0.84213692 23.14825294 -0.74892644 21.2909089 -0.68359375 19.43359375 C-0.62075195 17.7465332 -0.62075195 17.7465332 -0.55664062 16.02539062 C-0.51732422 14.84138672 -0.47800781 13.65738281 -0.4375 12.4375 C-0.37272461 10.65569336 -0.37272461 10.65569336 -0.30664062 8.83789062 C-0.20016454 5.89205216 -0.09815159 2.9461257 0 0 Z " fill="#6C73FE" transform="translate(98,54)"/>
<path d="M0 0 C0.99 0.66 1.98 1.32 3 2 C4.65549531 2.38499891 6.3222433 2.72793135 8 3 C8 4.65 8 6.3 8 8 C7.030625 8.28875 6.06125 8.5775 5.0625 8.875 C1.89335797 9.64214682 1.89335797 9.64214682 1 12 C0.61080278 16.06265388 0.61080278 16.06265388 2.0625 19.75 C7.08754924 22.99196725 13.18896525 23.38831213 19 24 C18.67 25.32 18.34 26.64 18 28 C25.92 27.67 33.84 27.34 42 27 C41.67 27.66 41.34 28.32 41 29 C38.35139573 29.59355614 35.70802678 29.74209269 33 30 C33 30.66 33 31.32 33 32 C47.19 32 61.38 32 76 32 C75.505 31.01 75.505 31.01 75 30 C73.845 29.835 72.69 29.67 71.5 29.5 C70.345 29.335 69.19 29.17 68 29 C67.505 28.01 67.505 28.01 67 27 C72.45769811 26.88861841 77.61509359 27.08342019 83 28 C83 30.64 83 33.28 83 36 C75.71409984 36.04682155 68.42823335 36.08211748 61.14221191 36.10362434 C57.75718789 36.11395864 54.37226851 36.12792229 50.98730469 36.15087891 C12.5625541 36.39227608 12.5625541 36.39227608 5 32 C6.39195915 29.2160817 8.15575779 29.02101003 11 28 C7.28263359 27.65099442 7.28263359 27.65099442 4.1875 29.5 C3.795625 29.995 3.40375 30.49 3 31 C1.02 30.01 -0.96 29.02 -3 28 C-2.79375 27.21625 -2.5875 26.4325 -2.375 25.625 C-2.189375 24.325625 -2.189375 24.325625 -2 23 C-4.35953094 20.64046906 -5.77895617 20.50858587 -9 20 C-9 17.69 -9 15.38 -9 13 C-7.68 12.67 -6.36 12.34 -5 12 C-4.29925156 8.846632 -4 6.27275026 -4 3 C-2 1.25 -2 1.25 0 0 Z " fill="#E9EBF2" transform="translate(18,89)"/>
<path d="M0 0 C1.37091797 0.0009668 1.37091797 0.0009668 2.76953125 0.00195312 C9.48435163 0.04685163 9.48435163 0.04685163 10.625 1.1875 C13.43476518 1.34767166 16.22273596 1.44700534 19.03515625 1.50390625 C19.87719101 1.52468735 20.71922577 1.54546844 21.58677673 1.56687927 C24.28693179 1.63246812 26.98718717 1.69130276 29.6875 1.75 C31.51368241 1.79317637 33.33985454 1.83679036 35.16601562 1.88085938 C39.65223992 1.98815894 44.1385655 2.08939966 48.625 2.1875 C48.625 2.5175 48.625 2.8475 48.625 3.1875 C35.755 3.1875 22.885 3.1875 9.625 3.1875 C9.955 4.5075 10.285 5.8275 10.625 7.1875 C23.165 7.5175 35.705 7.8475 48.625 8.1875 C48.625 8.5175 48.625 8.8475 48.625 9.1875 C35.755 9.1875 22.885 9.1875 9.625 9.1875 C9.955 10.5075 10.285 11.8275 10.625 13.1875 C23.165 13.1875 35.705 13.1875 48.625 13.1875 C48.625 13.8475 48.625 14.5075 48.625 15.1875 C39.055 15.1875 29.485 15.1875 19.625 15.1875 C19.625 15.8475 19.625 16.5075 19.625 17.1875 C18.635 17.1875 17.645 17.1875 16.625 17.1875 C16.625 16.5275 16.625 15.8675 16.625 15.1875 C14.315 15.1875 12.005 15.1875 9.625 15.1875 C9.625 17.1675 9.625 19.1475 9.625 21.1875 C0.715 21.1875 -8.195 21.1875 -17.375 21.1875 C-17.375 20.8575 -17.375 20.5275 -17.375 20.1875 C-15.725 19.8575 -14.075 19.5275 -12.375 19.1875 C-12.045 17.8675 -11.715 16.5475 -11.375 15.1875 C-13.355 15.1875 -15.335 15.1875 -17.375 15.1875 C-17.375 14.8575 -17.375 14.5275 -17.375 14.1875 C-15.725 13.8575 -14.075 13.5275 -12.375 13.1875 C-12.045 11.8675 -11.715 10.5475 -11.375 9.1875 C-13.355 9.1875 -15.335 9.1875 -17.375 9.1875 C-17.375 8.8575 -17.375 8.5275 -17.375 8.1875 C-15.725 7.8575 -14.075 7.5275 -12.375 7.1875 C-12.045 5.8675 -11.715 4.5475 -11.375 3.1875 C-13.355 3.1875 -15.335 3.1875 -17.375 3.1875 C-17.375 2.8575 -17.375 2.5275 -17.375 2.1875 C-11.48560037 0.14637931 -6.2030285 -0.08528042 0 0 Z " fill="#92E1E0" transform="translate(24.375,31.8125)"/>
<path d="M0 0 C2.31 0 4.62 0 7 0 C7 2.97 7 5.94 7 9 C10.3 9 13.6 9 17 9 C17 15.6 17 22.2 17 29 C12.71 29 8.42 29 4 29 C3.67 33.62 3.34 38.24 3 43 C-0.96 43 -4.92 43 -9 43 C-8.01 42.505 -8.01 42.505 -7 42 C-5.86649466 39.98330173 -5.86649466 39.98330173 -5 38 C-3.35 38 -1.7 38 0 38 C0 35.69 0 33.38 0 31 C-2.31 31 -4.62 31 -7 31 C-5 29 -3 27 -1 25 C-0.84213692 23.14825294 -0.74892644 21.2909089 -0.68359375 19.43359375 C-0.64169922 18.30888672 -0.59980469 17.18417969 -0.55664062 16.02539062 C-0.51732422 14.84138672 -0.47800781 13.65738281 -0.4375 12.4375 C-0.39431641 11.24962891 -0.35113281 10.06175781 -0.30664062 8.83789062 C-0.20016454 5.89205216 -0.09815159 2.9461257 0 0 Z " fill="#7489FD" transform="translate(98,54)"/>
<path d="M0 0 C3.0000624 -0.02721831 5.99987256 -0.04694378 9 -0.0625 C9.83917969 -0.07087891 10.67835937 -0.07925781 11.54296875 -0.08789062 C12.79013672 -0.09272461 12.79013672 -0.09272461 14.0625 -0.09765625 C15.19365234 -0.10551147 15.19365234 -0.10551147 16.34765625 -0.11352539 C19.91451913 0.03914317 23.45744034 0.55718004 27 1 C27 7.93 27 14.86 27 22 C20.07 22 13.14 22 6 22 C6 21.01 6 20.02 6 19 C4.02 19 2.04 19 0 19 C0 18.34 0 17.68 0 17 C1.98 17 3.96 17 6 17 C6 15.68 6 14.36 6 13 C4.02 13 2.04 13 0 13 C0 12.34 0 11.68 0 11 C1.98 11 3.96 11 6 11 C6 9.68 6 8.36 6 7 C4.02 7 2.04 7 0 7 C0 6.34 0 5.68 0 5 C1.98 5 3.96 5 6 5 C6 4.01 6 3.02 6 2 C3.03 1.505 3.03 1.505 0 1 C0 0.67 0 0.34 0 0 Z " fill="#36D5CB" transform="translate(7,58)"/>
<path d="M0 0 C1.58206057 0.00667536 3.16410534 0.0186375 4.74609375 0.03515625 C5.55240234 0.03966797 6.35871094 0.04417969 7.18945312 0.04882812 C9.18753131 0.06065107 11.18557158 0.07858711 13.18359375 0.09765625 C8.66040579 3.11311489 4.06988669 5.71132714 -0.81640625 8.09765625 C-0.81640625 9.08765625 -0.81640625 10.07765625 -0.81640625 11.09765625 C-0.15640625 11.75765625 0.50359375 12.41765625 1.18359375 13.09765625 C1.51359375 12.43765625 1.84359375 11.77765625 2.18359375 11.09765625 C3.50359375 11.09765625 4.82359375 11.09765625 6.18359375 11.09765625 C6.18359375 12.08765625 6.18359375 13.07765625 6.18359375 14.09765625 C6.84359375 14.09765625 7.50359375 14.09765625 8.18359375 14.09765625 C8.51359375 13.10765625 8.84359375 12.11765625 9.18359375 11.09765625 C10.83359375 11.09765625 12.48359375 11.09765625 14.18359375 11.09765625 C14.18359375 12.08765625 14.18359375 13.07765625 14.18359375 14.09765625 C14.84359375 14.09765625 15.50359375 14.09765625 16.18359375 14.09765625 C16.18359375 13.43765625 16.18359375 12.77765625 16.18359375 12.09765625 C19.05772921 11.27635483 21.59959197 10.97535036 24.58496094 10.98413086 C25.87584625 10.98424416 25.87584625 10.98424416 27.19281006 10.98435974 C28.11273743 10.98952103 29.03266479 10.99468231 29.98046875 11 C31.40362396 11.00212242 31.40362396 11.00212242 32.85552979 11.00428772 C35.88158337 11.00987883 38.90756258 11.02242973 41.93359375 11.03515625 C43.9869781 11.0401724 46.04036361 11.0447351 48.09375 11.04882812 C53.12372651 11.05984536 58.15364753 11.07710392 63.18359375 11.09765625 C63.18359375 12.74765625 63.18359375 14.39765625 63.18359375 16.09765625 C49.65359375 16.09765625 36.12359375 16.09765625 22.18359375 16.09765625 C21.85359375 17.08765625 21.52359375 18.07765625 21.18359375 19.09765625 C17.03777488 19.12652376 12.89198159 19.14440952 8.74609375 19.16015625 C6.97008789 19.17272461 6.97008789 19.17272461 5.15820312 19.18554688 C4.03349609 19.18876953 2.90878906 19.19199219 1.75 19.1953125 C0.1868103 19.20316772 0.1868103 19.20316772 -1.40795898 19.21118164 C-3.81640625 19.09765625 -3.81640625 19.09765625 -4.81640625 18.09765625 C-4.916276 15.25430577 -4.95518506 12.44068462 -4.94140625 9.59765625 C-4.94527344 8.79972656 -4.94914062 8.00179687 -4.953125 7.1796875 C-4.94115004 0.1264368 -4.94115004 0.1264368 0 0 Z " fill="#37DAC3" transform="translate(37.81640625,85.90234375)"/>
<path d="M0 0 C2.64 0 5.28 0 8 0 C8 12.54 8 25.08 8 38 C-0.25 38 -8.5 38 -17 38 C-17.125 25.375 -17.125 25.375 -16 22 C-15.34 22 -14.68 22 -14 22 C-13.67 23.65 -13.34 25.3 -13 27 C-7.39 27.33 -1.78 27.66 4 28 C4 22.06 4 16.12 4 10 C1.03 10 -1.94 10 -5 10 C-4.34 8.68 -3.68 7.36 -3 6 C-2.34 6 -1.68 6 -1 6 C-0.67 4.02 -0.34 2.04 0 0 Z " fill="#7286FE" transform="translate(119,86)"/>
<path d="M0 0 C0.66 1.32 1.32 2.64 2 4 C4.91634129 4.2502157 4.91634129 4.2502157 8 4 C8.66 3.01 9.32 2.02 10 1 C13.87132028 1.57352893 16.08172796 3.48704352 19 6 C18.4740625 7.1446875 18.4740625 7.1446875 17.9375 8.3125 C16.67639116 11.04759379 16.67639116 11.04759379 18 14 C11.9453125 14.1953125 11.9453125 14.1953125 10 14 C9.34 13.34 8.68 12.68 8 12 C2.45764755 11.42765564 2.45764755 11.42765564 -2.5 13.5 C-4.71177972 17.18629954 -4.34421275 19.73176192 -4 24 C-3.67 24.66 -3.34 25.32 -3 26 C-5.64 26 -8.28 26 -11 26 C-11.33 25.34 -11.66 24.68 -12 24 C-14.52733235 23.34444881 -14.52733235 23.34444881 -17 23 C-16.505 18.545 -16.505 18.545 -16 14 C-14.02 14 -12.04 14 -10 14 C-8.37049588 9.87831311 -7.73735399 7.29299643 -9 3 C-3.375 0 -3.375 0 0 0 Z " fill="#E8EAF1" transform="translate(99,19)"/>
<path d="M0 0 C3.14581423 -0.02888514 6.29159469 -0.04675923 9.4375 -0.0625 C10.33533203 -0.07087891 11.23316406 -0.07925781 12.15820312 -0.08789062 C13.01220703 -0.09111328 13.86621094 -0.09433594 14.74609375 -0.09765625 C15.93223267 -0.10551147 15.93223267 -0.10551147 17.14233398 -0.11352539 C19 0 19 0 20 1 C20.04080783 2.99958364 20.04254356 5.00045254 20 7 C19.34 7 18.68 7 18 7 C18 7.66 18 8.32 18 9 C18.99 9.33 19.98 9.66 21 10 C21 17.92 21 25.84 21 34 C23.31 34 25.62 34 28 34 C28.33 34.99 28.66 35.98 29 37 C20.19039858 38.30512614 11.80960142 38.30512614 3 37 C3.33 36.01 3.66 35.02 4 34 C8.29 34 12.58 34 17 34 C17 27.4 17 20.8 17 14 C13.7 14 10.4 14 7 14 C7 11.03 7 8.06 7 5 C4.69 5 2.38 5 0 5 C0 3.35 0 1.7 0 0 Z " fill="#39C5D7" transform="translate(98,49)"/>
<path d="M0 0 C1.58206422 0.00574487 3.16410406 0.01876032 4.74609375 0.03515625 C7.53046875 0.05578125 10.31484375 0.07640625 13.18359375 0.09765625 C13.18359375 6.03765625 13.18359375 11.97765625 13.18359375 18.09765625 C10.39921875 18.11828125 7.61484375 18.13890625 4.74609375 18.16015625 C3.86767822 18.16926025 2.9892627 18.17836426 2.08422852 18.18774414 C0.11713401 18.19488716 -1.84994246 18.14797518 -3.81640625 18.09765625 C-5.63756628 16.27649622 -4.94875705 13.79093861 -4.953125 11.37109375 C-4.94925781 10.62085937 -4.94539063 9.870625 -4.94140625 9.09765625 C-4.94527344 8.34742187 -4.94914062 7.5971875 -4.953125 6.82421875 C-4.94103514 0.12643386 -4.94103514 0.12643386 0 0 Z " fill="#3DCFE4" transform="translate(109.81640625,95.90234375)"/>
<path d="M0 0 C1.98 0 3.96 0 6 0 C6.33 0.66 6.66 1.32 7 2 C15.25 2 23.5 2 32 2 C32.33 1.34 32.66 0.68 33 0 C35.64 0 38.28 0 41 0 C40.34 0.33 39.68 0.66 39 1 C39 1.66 39 2.32 39 3 C38.34 3 37.68 3 37 3 C37 3.66 37 4.32 37 5 C36.34 5 35.68 5 35 5 C35 5.66 35 6.32 35 7 C34.34 6.67 33.68 6.34 33 6 C32.34 6 31.68 6 31 6 C31.33 6.99 31.66 7.98 32 9 C31.67 9.66 31.34 10.32 31 11 C26.90658501 11.02469575 22.81319879 11.04285793 18.71972656 11.05493164 C17.32681523 11.0599643 15.9339092 11.06679098 14.54101562 11.07543945 C12.54038754 11.08755152 10.53972112 11.09270412 8.5390625 11.09765625 C7.33459473 11.10289307 6.13012695 11.10812988 4.88916016 11.11352539 C2 11 2 11 0 10 C0 6.7 0 3.4 0 0 Z " fill="#C1D9FE" transform="translate(27,102)"/>
<path d="M0 0 C5.61 0 11.22 0 17 0 C17 5.61 17 11.22 17 17 C11.39 17 5.78 17 0 17 C0 11.39 0 5.78 0 0 Z " fill="#3E4E9A" transform="translate(15,34)"/>
<path d="M0 0 C1.375 2.0625 1.375 2.0625 2 4 C3.65 4 5.3 4 7 4 C7.625 5.8125 7.625 5.8125 8 8 C7.01 9.485 7.01 9.485 6 11 C5.34 11 4.68 11 4 11 C4 12.32 4 13.64 4 15 C3.01 15 2.02 15 1 15 C1.350625 15.94875 1.70125 16.8975 2.0625 17.875 C3 21 3 21 2 23 C-0.78211944 22.62403791 -2.5879284 22.32681541 -4.8125 20.5625 C-6 19 -6 19 -6 17 C-5.34 17 -4.68 17 -4 17 C-4.33 15.02 -4.66 13.04 -5 11 C-11.27 10.67 -17.54 10.34 -24 10 C-24 9.34 -24 8.68 -24 8 C-22.9275 8.103125 -21.855 8.20625 -20.75 8.3125 C-16.86125098 8.42601239 -16.86125098 8.42601239 -14.8125 5.5 C-14.214375 4.675 -13.61625 3.85 -13 3 C-11.68 3 -10.36 3 -9 3 C-8.67 2.01 -8.34 1.02 -8 0 C-5.04063954 -1.47968023 -3.13239866 -0.84835797 0 0 Z " fill="#43D5D3" transform="translate(122,39)"/>
<path d="M0 0 C7.92 0 15.84 0 24 0 C24 2.31 24 4.62 24 7 C22.6078125 7.4021875 22.6078125 7.4021875 21.1875 7.8125 C18.05377174 8.70638551 18.05377174 8.70638551 16.56518555 10.5559082 C14.53613308 12.42797892 13.49235906 12.35090126 10.76953125 12.29296875 C9.96708984 12.28330078 9.16464844 12.27363281 8.33789062 12.26367188 C7.50451172 12.23853516 6.67113281 12.21339844 5.8125 12.1875 C4.96751953 12.17396484 4.12253906 12.16042969 3.25195312 12.14648438 C1.16769616 12.11115799 -0.91623277 12.05735139 -3 12 C-2 9 -2 9 -1 7 C-0.67 4.69 -0.34 2.38 0 0 Z " fill="#768AFE" transform="translate(74,85)"/>
<path d="M0 0 C1 1 1 1 1.09765625 3.28515625 C1.08605469 4.20167969 1.07445313 5.11820312 1.0625 6.0625 C1.05347656 6.98160156 1.04445313 7.90070313 1.03515625 8.84765625 C1.02355469 9.55792969 1.01195313 10.26820312 1 11 C-0.98 11.33 -2.96 11.66 -5 12 C-5 12.66 -5 13.32 -5 14 C-5.66 14 -6.32 14 -7 14 C-7 13.01 -7 12.02 -7 11 C-9.47266765 11.34444881 -9.47266765 11.34444881 -12 12 C-12.33 12.66 -12.66 13.32 -13 14 C-13.66 14 -14.32 14 -15 14 C-15 13.01 -15 12.02 -15 11 C-16.32 11 -17.64 11 -19 11 C-19.33 11.99 -19.66 12.98 -20 14 C-21.32 12.35 -22.64 10.7 -24 9 C-21.61518778 6.23863848 -19.37538437 5.28586071 -16 4 C-14.32983484 3.00585407 -12.66279327 2.0064275 -11 1 C-7.11651516 -0.29449495 -4.09302664 -0.13203312 0 0 Z " fill="#39C5D5" transform="translate(59,86)"/>
<path d="M0 0 C13.53 0 27.06 0 41 0 C41 1.65 41 3.3 41 5 C27.47 5 13.94 5 0 5 C0 3.35 0 1.7 0 0 Z " fill="#3C3D89" transform="translate(60,97)"/>
<path d="M0 0 C0.66 0 1.32 0 2 0 C2.061875 0.61875 2.12375 1.2375 2.1875 1.875 C2.828919 4.27761141 2.828919 4.27761141 5.5625 5.25 C6.366875 5.4975 7.17125 5.745 8 6 C8 7.32 8 8.64 8 10 C7.34 10 6.68 10 6 10 C6.20625 11.093125 6.4125 12.18625 6.625 13.3125 C7 17 7 17 5 20 C2.69 19.67 0.38 19.34 -2 19 C-2 19.99 -2 20.98 -2 22 C-3.65 22 -5.3 22 -7 22 C-7.66 20.35 -8.32 18.7 -9 17 C-10.32 17 -11.64 17 -13 17 C-13.66 15.35 -14.32 13.7 -15 12 C-14.505 11.566875 -14.01 11.13375 -13.5 10.6875 C-11.66781808 9.00259517 -11.66781808 9.00259517 -12 6 C-10.02 6 -8.04 6 -6 6 C-6.165 7.11375 -6.33 8.2275 -6.5 9.375 C-7.0455458 12.72032033 -7.0455458 12.72032033 -7 15 C-4.36 15 -1.72 15 1 15 C1.29562367 9.67829506 1.29562367 9.67829506 -1 5 C-0.625 2.3125 -0.625 2.3125 0 0 Z " fill="#EAEBF2" transform="translate(135,57)"/>
<path d="M0 0 C0.99 0 1.98 0 3 0 C3.02887512 3.64581687 3.04675585 7.29160463 3.0625 10.9375 C3.07087891 11.97841797 3.07925781 13.01933594 3.08789062 14.09179688 C3.09272461 15.57583008 3.09272461 15.57583008 3.09765625 17.08984375 C3.10551147 18.46450806 3.10551147 18.46450806 3.11352539 19.86694336 C3 22 3 22 2 23 C-0.53049402 23.07313567 -3.03304837 23.09247527 -5.5625 23.0625 C-6.27341797 23.05798828 -6.98433594 23.05347656 -7.71679688 23.04882812 C-9.47790013 23.03700864 -11.23896036 23.01907263 -13 23 C-13 22.34 -13 21.68 -13 21 C-11.35 21.33 -9.7 21.66 -8 22 C-8.33 19.36 -8.66 16.72 -9 14 C-8.01 14 -7.02 14 -6 14 C-6 12.68 -6 11.36 -6 10 C-4.5625 8.4375 -4.5625 8.4375 -3 7 C-2.67 6.01 -2.34 5.02 -2 4 C-1.34 4 -0.68 4 0 4 C0 2.68 0 1.36 0 0 Z " fill="#36DCC6" transform="translate(132,40)"/>
<path d="M0 0 C1.32 0 2.64 0 4 0 C4 6.6 4 13.2 4 20 C6.31 20 8.62 20 11 20 C11.33 20.99 11.66 21.98 12 23 C3.19039858 24.30512614 -5.19039858 24.30512614 -14 23 C-13.505 21.515 -13.505 21.515 -13 20 C-8.71 20 -4.42 20 0 20 C0 13.4 0 6.8 0 0 Z " fill="#4C4CA1" transform="translate(115,63)"/>
<path d="M0 0 C6.6 0 13.2 0 20 0 C20 0.99 20 1.98 20 3 C20.99 3 21.98 3 23 3 C23.33 4.32 23.66 5.64 24 7 C23.34 7 22.68 7 22 7 C22 8.65 22 10.3 22 12 C20.35 12 18.7 12 17 12 C17 12.66 17 13.32 17 14 C15.68 13.67 14.36 13.34 13 13 C13 12.34 13 11.68 13 11 C12.01 10.67 11.02 10.34 10 10 C10.33 7.36 10.66 4.72 11 2 C7.37 2 3.74 2 0 2 C0 1.34 0 0.68 0 0 Z " fill="#B8E7EF" transform="translate(7,63)"/>
<path d="M0 0 C2.31 0 4.62 0 7 0 C7 4.62 7 9.24 7 14 C5.68 14 4.36 14 3 14 C3.99 15.485 3.99 15.485 5 17 C4.67 17.99 4.34 18.98 4 20 C4 19.34 4 18.68 4 18 C3.01 18.33 2.02 18.66 1 19 C0.67 16.03 0.34 13.06 0 10 C-2.64 10 -5.28 10 -8 10 C-8 8.02 -8 6.04 -8 4 C-5.36 4 -2.72 4 0 4 C0 2.68 0 1.36 0 0 Z " fill="#5833FF" transform="translate(34,49)"/>
<path d="M0 0 C1.31871094 -0.01224609 2.63742188 -0.02449219 3.99609375 -0.03710938 C5.90068359 -0.04000977 5.90068359 -0.04000977 7.84375 -0.04296875 C9.00068359 -0.04707764 10.15761719 -0.05118652 11.34960938 -0.05541992 C14.47736509 0.18575467 16.680892 0.85423629 19.5 2.1875 C18.5 4.1875 18.5 4.1875 16.84521484 4.80200195 C11.99200924 5.59975457 7.04404055 5.37340312 2.13769531 5.37280273 C0.13863013 5.37498512 -1.86039532 5.39349143 -3.859375 5.41210938 C-5.13039063 5.41404297 -6.40140625 5.41597656 -7.7109375 5.41796875 C-8.86899902 5.42207764 -10.02706055 5.42618652 -11.22021484 5.43041992 C-14.61310954 5.17912245 -17.33332989 4.39923908 -20.5 3.1875 C-20.17 2.5275 -19.84 1.8675 -19.5 1.1875 C-13.23640183 -0.60566158 -6.45139424 0.00315317 0 0 Z " fill="#EAEBF2" transform="translate(114.5,125.8125)"/>
<path d="M0 0 C0.99 0 1.98 0 3 0 C3.02505615 0.87325928 3.0501123 1.74651855 3.07592773 2.64624023 C3.17087709 5.87602552 3.27012029 9.10564154 3.37231445 12.33520508 C3.41571434 13.73489199 3.45738564 15.13463359 3.49731445 16.53442383 C3.55489445 18.54261495 3.61914 20.55061149 3.68359375 22.55859375 C3.72025146 23.76829834 3.75690918 24.97800293 3.79467773 26.22436523 C3.68938266 28.90705456 3.68938266 28.90705456 5 30 C6.56448383 30.12263388 8.13432772 30.17779522 9.70336914 30.20532227 C11.20481224 30.2352401 11.20481224 30.2352401 12.73658752 30.26576233 C14.36937904 30.29083107 14.36937904 30.29083107 16.03515625 30.31640625 C17.14354355 30.33718735 18.25193085 30.35796844 19.39390564 30.37937927 C22.95003808 30.44499623 26.50624703 30.50381596 30.0625 30.5625 C32.46680493 30.60567368 34.87110199 30.64928758 37.27539062 30.69335938 C43.18351185 30.80068992 49.09170991 30.90243331 55 31 C55 31.33 55 31.66 55 32 C47.48863592 32.05057965 39.97731551 32.08568257 32.46582031 32.10986328 C29.90883747 32.11994038 27.35186621 32.13360226 24.79492188 32.15087891 C21.12627308 32.17505217 17.45777621 32.18646585 13.7890625 32.1953125 C12.0655809 32.21079636 12.0655809 32.21079636 10.30728149 32.22659302 C9.2463327 32.22674408 8.18538391 32.22689514 7.09228516 32.22705078 C6.15518707 32.231492 5.21808899 32.23593323 4.25259399 32.24050903 C2 32 2 32 0 30 C-0.22705078 27.01904297 -0.22705078 27.01904297 -0.1953125 23.2421875 C-0.1924826 22.57913605 -0.18965271 21.91608459 -0.18673706 21.23294067 C-0.17553435 19.11344417 -0.15043051 16.99436896 -0.125 14.875 C-0.11497028 13.43880818 -0.10584441 12.00260975 -0.09765625 10.56640625 C-0.075595 7.04413372 -0.04106494 3.52210797 0 0 Z " fill="#459FE9" transform="translate(41,49)"/>
<path d="M0 0 C0 5.61 0 11.22 0 17 C0.99 17 1.98 17 3 17 C3 18.65 3 20.3 3 22 C0.69 22 -1.62 22 -4 22 C-4 15.73 -4 9.46 -4 3 C-10.27 3 -16.54 3 -23 3 C-23 2.34 -23 1.68 -23 1 C-19.91675903 0.83159521 -16.83339379 0.66558138 -13.75 0.5 C-12.87730469 0.45230469 -12.00460938 0.40460938 -11.10546875 0.35546875 C-10.26113281 0.31035156 -9.41679687 0.26523438 -8.546875 0.21875 C-7.38430176 0.1559082 -7.38430176 0.1559082 -6.19824219 0.09179688 C-4.13373418 0.00558463 -2.0663073 0 0 0 Z " fill="#6F72AA" transform="translate(30,80)"/>
<path d="M0 0 C2.64 0 5.28 0 8 0 C8.08069658 2.95887459 8.14034665 5.9155659 8.1875 8.875 C8.22520508 10.13763672 8.22520508 10.13763672 8.26367188 11.42578125 C8.27817383 12.63427734 8.27817383 12.63427734 8.29296875 13.8671875 C8.31653442 14.98262939 8.31653442 14.98262939 8.34057617 16.12060547 C8.22818604 16.74080566 8.1157959 17.36100586 8 18 C7.01 18.66 6.02 19.32 5 20 C3.39274365 16.78548731 3.94251815 13.56387464 4 10 C1.03 10 -1.94 10 -5 10 C-4.34 8.68 -3.68 7.36 -3 6 C-2.34 6 -1.68 6 -1 6 C-0.67 4.02 -0.34 2.04 0 0 Z " fill="#645AFE" transform="translate(119,86)"/>
<path d="M0 0 C0 4.62 0 9.24 0 14 C-4.29 14 -8.58 14 -13 14 C-13.33 13.34 -13.66 12.68 -14 12 C-13.67 11.01 -13.34 10.02 -13 9 C-12.01 9 -11.02 9 -10 9 C-9.67 7.68 -9.34 6.36 -9 5 C-8.01 5 -7.02 5 -6 5 C-6 4.34 -6 3.68 -6 3 C-2.53846154 0 -2.53846154 0 0 0 Z " fill="#3AD9D8" transform="translate(123,100)"/>
<path d="M0 0 C1.375 2.0625 1.375 2.0625 2 4 C3.65 4 5.3 4 7 4 C7.33 4.99 7.66 5.98 8 7 C0.41 7 -7.18 7 -15 7 C-14.34 5.68 -13.68 4.36 -13 3 C-11.68 3 -10.36 3 -9 3 C-8.67 2.01 -8.34 1.02 -8 0 C-5.04063954 -1.47968023 -3.13239866 -0.84835797 0 0 Z " fill="#F6FCFD" transform="translate(122,39)"/>
<path d="M0 0 C0.66 0 1.32 0 2 0 C2.33 1.65 2.66 3.3 3 5 C6.96 5.33 10.92 5.66 15 6 C14.01 7.485 14.01 7.485 13 9 C12.34 8.67 11.68 8.34 11 8 C10.71125 8.639375 10.4225 9.27875 10.125 9.9375 C8.5431334 12.83758878 7.13872499 12.95375834 4 14 C3.67 14.66 3.34 15.32 3 16 C1.68 16 0.36 16 -1 16 C-1.02701408 13.89590361 -1.04640223 11.79170822 -1.0625 9.6875 C-1.07410156 8.51574219 -1.08570312 7.34398438 -1.09765625 6.13671875 C-1 3 -1 3 0 0 Z " fill="#6C72FE" transform="translate(103,108)"/>
<path d="M0 0 C2.31 0 4.62 0 7 0 C7 2.97 7 5.94 7 9 C8.32 9.33 9.64 9.66 11 10 C9 11 7 12 5 13 C3.95191959 14.97522846 2.9479589 16.97481509 2 19 C1.34 19 0.68 19 0 19 C0 12.73 0 6.46 0 0 Z " fill="#6C74FE" transform="translate(98,54)"/>
<path d="M0 0 C3.14581423 -0.02888514 6.29159469 -0.04675923 9.4375 -0.0625 C10.33533203 -0.07087891 11.23316406 -0.07925781 12.15820312 -0.08789062 C13.01220703 -0.09111328 13.86621094 -0.09433594 14.74609375 -0.09765625 C15.93223267 -0.10551147 15.93223267 -0.10551147 17.14233398 -0.11352539 C19 0 19 0 20 1 C20.04080783 2.99958364 20.04254356 5.00045254 20 7 C19.01 7 18.02 7 17 7 C17 6.34 17 5.68 17 5 C11.39 5 5.78 5 0 5 C0 3.35 0 1.7 0 0 Z " fill="#34B1C5" transform="translate(98,49)"/>
<path d="M0 0 C1.65 0 3.3 0 5 0 C5.93065133 2.60582371 6.14917407 3.64198224 5.0625 6.25 C4.711875 6.8275 4.36125 7.405 4 8 C5.32 8.33 6.64 8.66 8 9 C7.67 9.99 7.34 10.98 7 12 C2.71 12 -1.58 12 -6 12 C-6 11.34 -6 10.68 -6 10 C-4.02 10 -2.04 10 0 10 C0 8.68 0 7.36 0 6 C-1.98 6 -3.96 6 -6 6 C-6 5.34 -6 4.68 -6 4 C-4.02 4 -2.04 4 0 4 C0 2.68 0 1.36 0 0 Z " fill="#81D9E4" transform="translate(13,65)"/>
<path d="M0 0 C1.58206057 0.00667536 3.16410534 0.0186375 4.74609375 0.03515625 C5.55240234 0.03966797 6.35871094 0.04417969 7.18945312 0.04882812 C9.18753131 0.06065107 11.18557158 0.07858711 13.18359375 0.09765625 C9.5227062 2.53824795 5.93333197 4.75162322 1.93359375 6.59765625 C-1.11400107 7.85474316 -1.11400107 7.85474316 -1.81640625 11.09765625 C-2.80640625 11.09765625 -3.79640625 11.09765625 -4.81640625 11.09765625 C-4.84328776 9.45191059 -4.86274748 7.80604212 -4.87890625 6.16015625 C-4.89050781 5.24363281 -4.90210938 4.32710938 -4.9140625 3.3828125 C-4.74806315 -0.5015722 -4.08167578 0.10444411 0 0 Z " fill="#43A5E6" transform="translate(37.81640625,85.90234375)"/>
<path d="M0 0 C1.93166016 0.01740234 1.93166016 0.01740234 3.90234375 0.03515625 C5.19269531 0.04417969 6.48304687 0.05320312 7.8125 0.0625 C8.81152344 0.07410156 9.81054688 0.08570312 10.83984375 0.09765625 C10.25460938 0.53207031 9.669375 0.96648437 9.06640625 1.4140625 C7.07885099 2.91693323 5.13165676 4.44344148 3.21484375 6.03515625 C2.62445313 6.51855469 2.0340625 7.00195312 1.42578125 7.5 C-0.29681241 9.23532218 -1.18754176 10.8683468 -2.16015625 13.09765625 C-2.82015625 13.09765625 -3.48015625 13.09765625 -4.16015625 13.09765625 C-4.18702178 11.11856227 -4.20649 9.13936654 -4.22265625 7.16015625 C-4.23425781 6.05800781 -4.24585937 4.95585938 -4.2578125 3.8203125 C-4.11749553 -0.09172464 -3.97435676 0.12281696 0 0 Z " fill="#40C2EE" transform="translate(109.16015625,95.90234375)"/>
<path d="M0 0 C1.65 0.33 3.3 0.66 5 1 C5.13536022 3.08153935 5.23215465 5.16561206 5.3125 7.25 C5.37050781 8.41015625 5.42851563 9.5703125 5.48828125 10.765625 C5 14 5 14 2.48046875 16.421875 C1.66191406 16.94265625 0.84335937 17.4634375 0 18 C-1.74104353 16.25895647 -1.21311272 13.92635979 -1.25 11.5625 C-1.27578125 10.57378906 -1.3015625 9.58507812 -1.328125 8.56640625 C-1.21984375 7.71949219 -1.1115625 6.87257813 -1 6 C-0.01 5.34 0.98 4.68 2 4 C1.34 2.68 0.68 1.36 0 0 Z " fill="#5C3FFF" transform="translate(36,62)"/>
<path d="M0 0 C4.875 0.875 4.875 0.875 6 2 C6.33 1.34 6.66 0.68 7 0 C8.32 0 9.64 0 11 0 C11 0.99 11 1.98 11 3 C11.66 3 12.32 3 13 3 C13.33 2.01 13.66 1.02 14 0 C15.65 0 17.3 0 19 0 C18.125 3.875 18.125 3.875 17 5 C14.13732433 5.07325168 11.299281 5.09238205 8.4375 5.0625 C7.63119141 5.05798828 6.82488281 5.05347656 5.99414062 5.04882812 C3.99606244 5.03700518 1.99802217 5.01906914 0 5 C0 3.35 0 1.7 0 0 Z " fill="#39BDC7" transform="translate(33,97)"/>
<path d="M0 0 C1.32 0 2.64 0 4 0 C4 6.6 4 13.2 4 20 C2.68 19.67 1.36 19.34 0 19 C0 12.73 0 6.46 0 0 Z " fill="#3E3E8B" transform="translate(115,63)"/>
<path d="M0 0 C12.87 0 25.74 0 39 0 C39 0.66 39 1.32 39 2 C29.43 2 19.86 2 10 2 C10 2.66 10 3.32 10 4 C9.01 4 8.02 4 7 4 C7 3.34 7 2.68 7 2 C4.69 2 2.38 2 0 2 C0 1.34 0 0.68 0 0 Z " fill="#64D3E1" transform="translate(34,45)"/>
<path d="M0 0 C8.58 0 17.16 0 26 0 C25.67 0.99 25.34 1.98 25 3 C17.08 3 9.16 3 1 3 C0.67 2.01 0.34 1.02 0 0 Z " fill="#4C4CA0" transform="translate(101,124)"/>
<path d="M0 0 C3.25 -0.3125 3.25 -0.3125 7 0 C9.4375 2.5 9.4375 2.5 11 5 C9.02 5.99 9.02 5.99 7 7 C7 7.66 7 8.32 7 9 C6.34 9 5.68 9 5 9 C5 8.01 5 7.02 5 6 C2.52733235 6.34444881 2.52733235 6.34444881 0 7 C-0.33 7.66 -0.66 8.32 -1 9 C-1.66 9 -2.32 9 -3 9 C-2.44271087 5.65626525 -1.64826111 2.96687001 0 0 Z " fill="#7BDAE4" transform="translate(47,91)"/>
<path d="M0 0 C0.66 0.33 1.32 0.66 2 1 C0.99088542 2.7578125 -0.01822917 4.515625 -1.02734375 6.2734375 C-1.71719051 7.49798475 -2.37144538 8.74289077 -3 10 C-4.65 10 -6.3 10 -8 10 C-8.33 10.99 -8.66 11.98 -9 13 C-10.32 11.35 -11.64 9.7 -13 8 C-10.61518778 5.23863848 -8.37538437 4.28586071 -5 3 C-4.113125 2.443125 -3.22625 1.88625 -2.3125 1.3125 C-1.1678125 0.6628125 -1.1678125 0.6628125 0 0 Z " fill="#3FB3E0" transform="translate(48,87)"/>
<path d="M0 0 C6.27 0 12.54 0 19 0 C19 1.65 19 3.3 19 5 C14.71 5 10.42 5 6 5 C6 4.01 6 3.02 6 2 C3.03 1.505 3.03 1.505 0 1 C0 0.67 0 0.34 0 0 Z " fill="#72D4E5" transform="translate(7,58)"/>
<path d="M0 0 C2.64 0 5.28 0 8 0 C8 3.63 8 7.26 8 11 C6.35 11.66 4.7 12.32 3 13 C3 12.34 3 11.68 3 11 C3.66 11 4.32 11 5 11 C4.67 9.68 4.34 8.36 4 7 C3.01 7 2.02 7 1 7 C0.67 4.69 0.34 2.38 0 0 Z " fill="#39C4D2" transform="translate(26,59)"/>
<path d="M0 0 C1.67542976 0.28604898 3.34385343 0.61781233 5 1 C5.33 3.64 5.66 6.28 6 9 C5.21625 9.45375 4.4325 9.9075 3.625 10.375 C0.96301969 11.88428742 0.96301969 11.88428742 -1 14 C-1.02685938 11.85423363 -1.04633088 9.70837355 -1.0625 7.5625 C-1.07410156 6.36753906 -1.08570312 5.17257813 -1.09765625 3.94140625 C-1 1 -1 1 0 0 Z " fill="#33C6E0" transform="translate(106,33)"/>
<path d="M0 0 C0.66163651 0.02361099 1.32327301 0.04722198 2.00495911 0.07154846 C4.11421127 0.14800482 6.22307945 0.23210582 8.33203125 0.31640625 C9.76365321 0.36964505 11.19529379 0.42238532 12.62695312 0.47460938 C16.13304701 0.60359507 19.63883696 0.73943749 23.14453125 0.87890625 C23.14453125 1.53890625 23.14453125 2.19890625 23.14453125 2.87890625 C12.58453125 2.87890625 2.02453125 2.87890625 -8.85546875 2.87890625 C-9.18546875 2.21890625 -9.51546875 1.55890625 -9.85546875 0.87890625 C-6.32548547 -0.29775484 -3.71909459 -0.14123144 0 0 Z " fill="#87B4FE" transform="translate(70.85546875,118.12109375)"/>
<path d="M0 0 C1.32 0.66 2.64 1.32 4 2 C3.67 3.98 3.34 5.96 3 8 C4.97536745 7.65213292 4.97536745 7.65213292 7 7 C7.33 6.34 7.66 5.68 8 5 C8.66 5 9.32 5 10 5 C10 6.98 10 8.96 10 11 C8.35 11 6.7 11 5 11 C5 11.66 5 12.32 5 13 C3.68 12.67 2.36 12.34 1 12 C1 11.34 1 10.68 1 10 C0.01 9.67 -0.98 9.34 -2 9 C-1.125 1.125 -1.125 1.125 0 0 Z " fill="#E1F5F9" transform="translate(19,64)"/>
<path d="M0 0 C2.31 0 4.62 0 7 0 C7 1.65 7 3.3 7 5 C3.37 5 -0.26 5 -4 5 C-4 6.65 -4 8.3 -4 10 C-5.32 10 -6.64 10 -8 10 C-8 8.02 -8 6.04 -8 4 C-5.36 4 -2.72 4 0 4 C0 2.68 0 1.36 0 0 Z " fill="#3D418D" transform="translate(34,49)"/>
<path d="M0 0 C4.82360189 -0.19294408 8.49646738 0.24252386 13 2 C13 3.65 13 5.3 13 7 C11.39125 6.6596875 11.39125 6.6596875 9.75 6.3125 C6.07021424 5.64224175 6.07021424 5.64224175 3.5625 7.4375 C3.046875 7.953125 2.53125 8.46875 2 9 C1.34 6.03 0.68 3.06 0 0 Z " fill="#6FD4E4" transform="translate(110,33)"/>
<path d="M0 0 C1.24716797 0.00322266 2.49433594 0.00644531 3.77929688 0.00976562 C5.07287109 0.01814453 6.36644531 0.02652344 7.69921875 0.03515625 C9.66858398 0.04192383 9.66858398 0.04192383 11.67773438 0.04882812 C14.91410885 0.06059676 18.15039053 0.07703865 21.38671875 0.09765625 C21.05671875 0.75765625 20.72671875 1.41765625 20.38671875 2.09765625 C19.73074707 2.11747559 19.07477539 2.13729492 18.39892578 2.15771484 C15.43610806 2.25278132 12.47401343 2.36253377 9.51171875 2.47265625 C7.96291016 2.5190625 7.96291016 2.5190625 6.3828125 2.56640625 C4.90361328 2.62441406 4.90361328 2.62441406 3.39453125 2.68359375 C2.4833252 2.71501465 1.57211914 2.74643555 0.63330078 2.77880859 C-1.81259311 2.89648136 -1.81259311 2.89648136 -3.61328125 5.09765625 C-6.34197532 5.06478042 -8.90994305 4.53367854 -11.61328125 4.09765625 C-11.61328125 3.10765625 -11.61328125 2.11765625 -11.61328125 1.09765625 C-7.68039761 0.16677716 -4.03673962 -0.0184326 0 0 Z " fill="#D9D9E8" transform="translate(106.61328125,125.90234375)"/>
<path d="M0 0 C1.65322266 0.01740234 1.65322266 0.01740234 3.33984375 0.03515625 C4.99693359 0.04869141 4.99693359 0.04869141 6.6875 0.0625 C7.54214844 0.07410156 8.39679688 0.08570312 9.27734375 0.09765625 C8.94734375 0.75765625 8.61734375 1.41765625 8.27734375 2.09765625 C7.28734375 2.42765625 6.29734375 2.75765625 5.27734375 3.09765625 C5.27734375 3.75765625 5.27734375 4.41765625 5.27734375 5.09765625 C3.31930868 5.15154712 1.36085466 5.19039842 -0.59765625 5.22265625 C-1.68820313 5.24585937 -2.77875 5.2690625 -3.90234375 5.29296875 C-6.72265625 5.09765625 -6.72265625 5.09765625 -8.72265625 3.09765625 C-7.91828125 2.78828125 -7.11390625 2.47890625 -6.28515625 2.16015625 C-1.1772017 0.04222388 -1.1772017 0.04222388 0 0 Z " fill="#665FFF" transform="translate(56.72265625,80.90234375)"/>
<path d="M0 0 C7.92 0 15.84 0 24 0 C24.33 1.32 24.66 2.64 25 4 C24.01 4 23.02 4 22 4 C22 3.34 22 2.68 22 2 C14.74 2 7.48 2 0 2 C0 1.34 0 0.68 0 0 Z " fill="#33D3D0" transform="translate(73,45)"/>
<path d="M0 0 C0.66 0 1.32 0 2 0 C2 3.3 2 6.6 2 10 C-1.3 10 -4.6 10 -8 10 C-7.01 8.68 -6.02 7.36 -5 6 C-4.34 5.01 -3.68 4.02 -3 3 C-3 3.66 -3 4.32 -3 5 C-2.34 5 -1.68 5 -1 5 C-1.33 4.01 -1.66 3.02 -2 2 C-1.34 2 -0.68 2 0 2 C0 1.34 0 0.68 0 0 Z " fill="#37DBC9" transform="translate(121,104)"/>
<path d="M0 0 C2.31 0 4.62 0 7 0 C7.33 0.66 7.66 1.32 8 2 C6 5 6 5 4 6 C3.67 6.99 3.34 7.98 3 9 C2.34 9 1.68 9 1 9 C0.67 9.66 0.34 10.32 0 11 C0 7.37 0 3.74 0 0 Z " fill="#5935FF" transform="translate(102,86)"/>
<path d="M0 0 C0.99 0 1.98 0 3 0 C3 5.28 3 10.56 3 16 C2.01 16 1.02 16 0 16 C0 10.72 0 5.44 0 0 Z " fill="#37D0C9" transform="translate(95,49)"/>
<path d="M0 0 C7.92 0.33 15.84 0.66 24 1 C24 1.33 24 1.66 24 2 C23.09906616 2.03758423 23.09906616 2.03758423 22.17993164 2.07592773 C19.47388563 2.1915528 16.76821717 2.31442936 14.0625 2.4375 C12.64420898 2.49647461 12.64420898 2.49647461 11.19726562 2.55664062 C10.29814453 2.59853516 9.39902344 2.64042969 8.47265625 2.68359375 C7.22367554 2.73858032 7.22367554 2.73858032 5.94946289 2.79467773 C3.99661142 2.79367103 3.99661142 2.79367103 3 4 C1.14712498 4.07226502 -0.70833878 4.0838122 -2.5625 4.0625 C-3.57441406 4.05347656 -4.58632812 4.04445313 -5.62890625 4.03515625 C-6.41136719 4.02355469 -7.19382812 4.01195312 -8 4 C-8 3.34 -8 2.68 -8 2 C-5.69 2 -3.38 2 -1 2 C-0.67 1.34 -0.34 0.68 0 0 Z " fill="#A8E8EC" transform="translate(106,45)"/>
<path d="M0 0 C2.31 0 4.62 0 7 0 C7 1.98 7 3.96 7 6 C4.69 6 2.38 6 0 6 C0 4.02 0 2.04 0 0 Z " fill="#A2C3FE" transform="translate(91,85)"/>
<path d="M0 0 C3.3 0 6.6 0 10 0 C9 2 9 2 6.625 2.8125 C3.37378455 4.28328794 2.62868524 5.90549803 1 9 C0.67 9 0.34 9 0 9 C0 6.03 0 3.06 0 0 Z " fill="#3EBBDD" transform="translate(105,54)"/>
<path d="M0 0 C0.08086147 1.79093191 0.13912702 3.58289628 0.1875 5.375 C0.22230469 6.37273437 0.25710937 7.37046875 0.29296875 8.3984375 C0.19628906 9.25695312 0.09960938 10.11546875 0 11 C-0.99 11.66 -1.98 12.32 -3 13 C-4.17051429 10.65897141 -4.1992246 9.10647047 -4.25 6.5 C-4.27578125 5.7059375 -4.3015625 4.911875 -4.328125 4.09375 C-4.21984375 3.4028125 -4.1115625 2.711875 -4 2 C-1 0 -1 0 0 0 Z " fill="#6B6FFE" transform="translate(127,93)"/>
<path d="M0 0 C0 0.33 0 0.66 0 1 C-1.98 1 -3.96 1 -6 1 C-6 3.64 -6 6.28 -6 9 C-8.64 8.67 -11.28 8.34 -14 8 C-14 7.67 -14 7.34 -14 7 C-12.35 6.67 -10.7 6.34 -9 6 C-8.67 4.68 -8.34 3.36 -8 2 C-9.98 2 -11.96 2 -14 2 C-14 1.67 -14 1.34 -14 1 C-9.32798795 -0.20568053 -4.78503708 -0.09382426 0 0 Z " fill="#89D9E8" transform="translate(21,33)"/>
<path d="M0 0 C1.37478516 0.01740234 1.37478516 0.01740234 2.77734375 0.03515625 C3.69644531 0.04417969 4.61554688 0.05320312 5.5625 0.0625 C6.27277344 0.07410156 6.98304687 0.08570312 7.71484375 0.09765625 C4.71484375 2.09765625 4.71484375 2.09765625 1.71484375 2.09765625 C1.71484375 2.75765625 1.71484375 3.41765625 1.71484375 4.09765625 C0.72484375 4.09765625 -0.26515625 4.09765625 -1.28515625 4.09765625 C-1.61515625 5.74765625 -1.94515625 7.39765625 -2.28515625 9.09765625 C-2.61515625 9.09765625 -2.94515625 9.09765625 -3.28515625 9.09765625 C-3.3828125 2.9453125 -3.3828125 2.9453125 -3.28515625 1.09765625 C-2.28515625 0.09765625 -2.28515625 0.09765625 0 0 Z " fill="#45B4F5" transform="translate(108.28515625,95.90234375)"/>
<path d="M0 0 C1.98 0 3.96 0 6 0 C6 1.98 6 3.96 6 6 C4.02 6 2.04 6 0 6 C0 4.02 0 2.04 0 0 Z " fill="#A6C7FE" transform="translate(83,85)"/>
<path d="M0 0 C1.98 0 3.96 0 6 0 C6 1.98 6 3.96 6 6 C4.02 6 2.04 6 0 6 C0 4.02 0 2.04 0 0 Z " fill="#A6C7FE" transform="translate(74,85)"/>
<path d="M0 0 C0.99 0 1.98 0 3 0 C3.08121924 1.60332791 3.13929134 3.20784026 3.1875 4.8125 C3.23970703 6.15248047 3.23970703 6.15248047 3.29296875 7.51953125 C3 10 3 10 0 13 C0 8.71 0 4.42 0 0 Z " fill="#3B96D8" transform="translate(41,49)"/>
<path d="M0 0 C2.31 0 4.62 0 7 0 C7 1.65 7 3.3 7 5 C4.69 5 2.38 5 0 5 C0 3.35 0 1.7 0 0 Z " fill="#3C3E8A" transform="translate(98,49)"/>
<path d="M0 0 C6.6 0 13.2 0 20 0 C20 0.99 20 1.98 20 3 C13.4 2.34 6.8 1.68 0 1 C0 0.67 0 0.34 0 0 Z " fill="#41D1D8" transform="translate(14,32)"/>
<path d="M0 0 C0 0.99 0 1.98 0 3 C-3.96 3 -7.92 3 -12 3 C-9.42852703 -2.14294593 -4.93360395 -0.94876999 0 0 Z " fill="#7896FE" transform="translate(127,121)"/>
<path d="M0 0 C7.92 0.33 15.84 0.66 24 1 C24 1.33 24 1.66 24 2 C19.38 2 14.76 2 10 2 C10 2.66 10 3.32 10 4 C9.01 4 8.02 4 7 4 C7 3.34 7 2.68 7 2 C4.69 2 2.38 2 0 2 C0 1.34 0 0.68 0 0 Z " fill="#8CD7E7" transform="translate(34,45)"/>
<path d="M0 0 C1.32 0.66 2.64 1.32 4 2 C3.74438677 4.3431213 3.40729228 6.67843403 3 9 C2.01 9.495 2.01 9.495 1 10 C0.01 9.67 -0.98 9.34 -2 9 C-1.125 1.125 -1.125 1.125 0 0 Z " fill="#EFF9FC" transform="translate(19,64)"/>
<path d="M0 0 C3.24208567 0.35049575 4.61527704 0.56221181 6.8125 3.0625 C7.204375 3.701875 7.59625 4.34125 8 5 C5.36 5 2.72 5 0 5 C0 3.35 0 1.7 0 0 Z " fill="#36ABC6" transform="translate(33,97)"/>
<path d="M0 0 C2.97 0 5.94 0 9 0 C9.33 0.66 9.66 1.32 10 2 C8.01432292 2.48828125 6.02864583 2.9765625 4.04296875 3.46484375 C2.34316798 3.91010705 0.66698046 4.44433985 -1 5 C-0.67 3.35 -0.34 1.7 0 0 Z " fill="#4895EC" transform="translate(34,86)"/>
<path d="M0 0 C3.96 0 7.92 0 12 0 C11.67 0.66 11.34 1.32 11 2 C8.71484375 2.4140625 8.71484375 2.4140625 5.9375 2.625 C4.55884766 2.73714844 4.55884766 2.73714844 3.15234375 2.8515625 C2.44207031 2.90054688 1.73179688 2.94953125 1 3 C0.67 2.01 0.34 1.02 0 0 Z " fill="#4DD3D9" transform="translate(33,102)"/>
<path d="M0 0 C1.32 0 2.64 0 4 0 C4 1.65 4 3.3 4 5 C2.68 5.33 1.36 5.66 0 6 C-0.38218767 4.34385343 -0.71395102 2.67542976 -1 1 C-0.67 0.67 -0.34 0.34 0 0 Z " fill="#4ACFDB" transform="translate(22,67)"/>
<path d="M0 0 C1.134375 0.020625 2.26875 0.04125 3.4375 0.0625 C3.4375 1.0525 3.4375 2.0425 3.4375 3.0625 C-0.5225 3.0625 -4.4825 3.0625 -8.5625 3.0625 C-7.2425 2.4025 -5.9225 1.7425 -4.5625 1.0625 C-3.5625 0.0625 -3.5625 0.0625 0 0 Z " fill="#40D8CE" transform="translate(48.5625,101.9375)"/>
<path d="M0 0 C0.79664062 0.07863281 1.59328125 0.15726562 2.4140625 0.23828125 C3.06117187 0.38652344 3.70828125 0.53476563 4.375 0.6875 C4.705 1.3475 5.035 2.0075 5.375 2.6875 C1.415 2.6875 -2.545 2.6875 -6.625 2.6875 C-6.955 2.0275 -7.285 1.3675 -7.625 0.6875 C-4.59335415 -0.32304862 -3.10749249 -0.3390912 0 0 Z " fill="#97BEFE" transform="translate(68.625,118.3125)"/>
<path d="M0 0 C1.67542976 0.28604898 3.34385343 0.61781233 5 1 C3.33333333 2.66666667 1.66666667 4.33333333 0 6 C-0.99 5.67 -1.98 5.34 -3 5 C-1.125 1.125 -1.125 1.125 0 0 Z " fill="#3DBADC" transform="translate(51,86)"/>
<path d="M0 0 C1.32 0 2.64 0 4 0 C4 2.31 4 4.62 4 7 C3.01 7 2.02 7 1 7 C0.67 4.69 0.34 2.38 0 0 Z " fill="#34AEC5" transform="translate(26,59)"/>
<path d="M0 0 C0.66 0 1.32 0 2 0 C2 1.98 2 3.96 2 6 C2.66 6.33 3.32 6.66 4 7 C2.02 7.99 2.02 7.99 0 9 C-0.66 8.01 -1.32 7.02 -2 6 C-1.34 6 -0.68 6 0 6 C0 4.02 0 2.04 0 0 Z " fill="#FBFEFE" transform="translate(119,51)"/>
<path d="M0 0 C2.1519437 3.22791555 2.20086443 4.28400809 2 8 C0.35 8 -1.3 8 -3 8 C-3 7.01 -3 6.02 -3 5 C-2.34 4.67 -1.68 4.34 -1 4 C-0.34786708 1.97536745 -0.34786708 1.97536745 0 0 Z " fill="#3BD1CE" transform="translate(32,67)"/>
<path d="M0 0 C2.64 0 5.28 0 8 0 C8.33 1.32 8.66 2.64 9 4 C8.01 4 7.02 4 6 4 C6 3.34 6 2.68 6 2 C4.02 2 2.04 2 0 2 C0 1.34 0 0.68 0 0 Z " fill="#53D9D4" transform="translate(89,45)"/>
<path d="M0 0 C2.92879371 0.62759865 5.36095629 1.58622659 8 3 C8 3.33 8 3.66 8 4 C5.36 4 2.72 4 0 4 C0 2.68 0 1.36 0 0 Z " fill="#38CADC" transform="translate(13,71)"/>
<path d="M0 0 C0.33 0 0.66 0 1 0 C1 1.65 1 3.3 1 5 C1.66 5 2.32 5 3 5 C4.125 8.75 4.125 8.75 3 11 C1.35 10.67 -0.3 10.34 -2 10 C-1.01 9.01 -0.02 8.02 1 7 C0.67 6.67 0.34 6.34 0 6 C-0.04080783 4.00041636 -0.04254356 1.99954746 0 0 Z " fill="#64DED6" transform="translate(121,51)"/>
<path d="M0 0 C1.32 0 2.64 0 4 0 C3.67 1.98 3.34 3.96 3 6 C2.01 6 1.02 6 0 6 C0 4.02 0 2.04 0 0 Z " fill="#3DB3DF" transform="translate(30,59)"/>
<path d="M0 0 C1.32 0 2.64 0 4 0 C4.33 1.32 4.66 2.64 5 4 C2.36 4 -0.28 4 -3 4 C-2.34 3.67 -1.68 3.34 -1 3 C-0.67 2.01 -0.34 1.02 0 0 Z " fill="#BDD7FF" transform="translate(81,114)"/>
<path d="M0 0 C0.66 0.33 1.32 0.66 2 1 C0.515 4.96 0.515 4.96 -1 9 C-1.66 9 -2.32 9 -3 9 C-2.44271087 5.65626525 -1.64826111 2.96687001 0 0 Z " fill="#E7F7F9" transform="translate(47,91)"/>
<path d="M0 0 C-0.185625 0.5775 -0.37125 1.155 -0.5625 1.75 C-1.04023546 4.20692525 -0.75729364 5.64397534 0 8 C-1.65 6.35 -3.3 4.7 -5 3 C-2.25 0 -2.25 0 0 0 Z " fill="#E5F3F8" transform="translate(40,92)"/>
<path d="M0 0 C0.66 0 1.32 0 2 0 C2.33 1.32 2.66 2.64 3 4 C3.66 4 4.32 4 5 4 C5 4.99 5 5.98 5 7 C3.68 7.33 2.36 7.66 1 8 C1.33 7.01 1.66 6.02 2 5 C1.01 4.01 0.02 3.02 -1 2 C-0.67 1.34 -0.34 0.68 0 0 Z " fill="#41D4D2" transform="translate(55,90)"/>
<path d="M0 0 C1.98 0.99 1.98 0.99 4 2 C4 3.32 4 4.64 4 6 C2.68 6 1.36 6 0 6 C0 4.02 0 2.04 0 0 Z " fill="#3CC5C7" transform="translate(115,57)"/>
<path d="M0 0 C0.33 0 0.66 0 1 0 C1 2.64 1 5.28 1 8 C0.01 8.33 -0.98 8.66 -2 9 C-2.25 3.375 -2.25 3.375 0 0 Z " fill="#409AE9" transform="translate(43,59)"/>
<path d="M0 0 C0.33 0.66 0.66 1.32 1 2 C1.99 2.33 2.98 2.66 4 3 C3 4 3 4 0.49609375 4.09765625 C-1.01791016 4.08025391 -1.01791016 4.08025391 -2.5625 4.0625 C-3.57441406 4.05347656 -4.58632812 4.04445313 -5.62890625 4.03515625 C-6.41136719 4.02355469 -7.19382812 4.01195312 -8 4 C-8 3.34 -8 2.68 -8 2 C-5.69 2 -3.38 2 -1 2 C-0.67 1.34 -0.34 0.68 0 0 Z " fill="#8ECCDF" transform="translate(106,45)"/>
<path d="M0 0 C0 1.65 0 3.3 0 5 C-2.31 4.34 -4.62 3.68 -7 3 C-4.49955934 -0.00052879 -4.2621484 0 0 0 Z " fill="#5FD3E0" transform="translate(123,35)"/>
<path d="M0 0 C0.66 0 1.32 0 2 0 C2.33 2.31 2.66 4.62 3 7 C1.68 7 0.36 7 -1 7 C-0.67 4.69 -0.34 2.38 0 0 Z " fill="#6660FF" transform="translate(103,108)"/>
<path d="M0 0 C2.64 0 5.28 0 8 0 C8 1.32 8 2.64 8 4 C7.01 4 6.02 4 5 4 C4.34 3.34 3.68 2.68 3 2 C2.01 1.34 1.02 0.68 0 0 Z " fill="#38D0D9" transform="translate(18,59)"/>
</svg>
