<?xml version="1.0" encoding="UTF-8"?>
<svg version="1.1" xmlns="http://www.w3.org/2000/svg" width="150" height="150">
<path d="M0 0 C0.061875 0.94875 0.12375 1.8975 0.1875 2.875 C0.66564228 6.13768 0.66564228 6.13768 3.25 7.5 C6.52607711 8.09565038 8.07840301 7.50253559 11 6 C15 11.75 15 11.75 15 14 C16.28197266 14.09087891 16.28197266 14.09087891 17.58984375 14.18359375 C18.69457031 14.26738281 19.79929687 14.35117187 20.9375 14.4375 C22.03964844 14.51871094 23.14179688 14.59992187 24.27734375 14.68359375 C27 15 27 15 28 16 C28.15806531 17.92478813 28.251135 19.8549921 28.31640625 21.78515625 C28.37924805 23.53989258 28.37924805 23.53989258 28.44335938 25.33007812 C28.48267578 26.56177734 28.52199219 27.79347656 28.5625 29.0625 C28.60568359 30.29806641 28.64886719 31.53363281 28.69335938 32.80664062 C28.79984198 35.87097335 28.90185424 38.93539073 29 42 C29.61875 41.79375 30.2375 41.5875 30.875 41.375 C31.57625 41.25125 32.2775 41.1275 33 41 C33.66 41.66 34.32 42.32 35 43 C34.96712417 45.72869407 34.43602229 48.2966618 34 51 C34.66 51 35.32 51 36 51 C35.67 52.65 35.34 54.3 35 56 C32.525 56.495 32.525 56.495 30 57 C29.67 58.32 29.34 59.64 29 61 C27.02 61 25.04 61 23 61 C23 60.01 23 59.02 23 58 C20.69 58 18.38 58 16 58 C15.01 56.02 15.01 56.02 14 54 C14.99 53.67 15.98 53.34 17 53 C16.505 52.236875 16.01 51.47375 15.5 50.6875 C14 48 14 48 14 45 C13.34 45 12.68 45 12 45 C12 51.6 12 58.2 12 65 C14.31 65 16.62 65 19 65 C20 66 20 66 20.11352539 69.96899414 C20.1133662 71.74105607 20.10766785 73.5131226 20.09765625 75.28515625 C20.0962413 76.21597519 20.09482635 77.14679413 20.09336853 78.1058197 C20.08775172 81.09141191 20.0751964 84.07693029 20.0625 87.0625 C20.05748716 89.08137913 20.05292388 91.10025943 20.04882812 93.11914062 C20.03777683 98.07945572 20.02050095 103.03971532 20 108 C22.31 108.66 24.62 109.32 27 110 C26 112 26 112 24.34521484 112.61450195 C19.49200924 113.41225457 14.54404055 113.18590312 9.63769531 113.18530273 C7.63863013 113.18748512 5.63960468 113.20599143 3.640625 113.22460938 C2.36960937 113.22654297 1.09859375 113.22847656 -0.2109375 113.23046875 C-1.36899902 113.23457764 -2.52706055 113.23868652 -3.72021484 113.24291992 C-7.11310954 112.99162245 -9.83332989 112.21173908 -13 111 C-12.67 110.34 -12.34 109.68 -12 109 C-9.4375 108.375 -9.4375 108.375 -7 108 C-7.67857056 107.99191315 -8.35714111 107.98382629 -9.05627441 107.97549438 C-16.19572947 107.88863335 -23.33493245 107.7891071 -30.47412109 107.68261719 C-33.12938188 107.64363425 -35.7845665 107.60971702 -38.43994141 107.578125 C-76.93926359 107.11445232 -76.93926359 107.11445232 -84 103 C-83.67 102.34 -83.34 101.68 -83 101 C-81.68 101 -80.36 101 -79 101 C-79 100.01 -79 99.02 -79 98 C-81.97065509 98.34227572 -81.97065509 98.34227572 -85 99 C-85.495 99.99 -85.495 99.99 -86 101 C-88.96175123 100.38722388 -90.38058783 99.74627478 -93 98 C-92.814375 97.236875 -92.62875 96.47375 -92.4375 95.6875 C-91.77180827 92.91032625 -91.77180827 92.91032625 -93 90 C-94.65 90 -96.3 90 -98 90 C-98 87.36 -98 84.72 -98 82 C-96.35 82 -94.7 82 -93 82 C-92.20046862 78.71303767 -91.90341064 77.28976808 -93 74 C-91.25 72.4375 -91.25 72.4375 -89 71 C-86.75 71.3125 -86.75 71.3125 -85 72 C-85 72.66 -85 73.32 -85 74 C-83.68 74 -82.36 74 -81 74 C-81 71.03 -81 68.06 -81 65 C-87.27 65 -93.54 65 -100 65 C-100 64.34 -100 63.68 -100 63 C-97.03 62.505 -97.03 62.505 -94 62 C-94 61.01 -94 60.02 -94 59 C-95.98 59 -97.96 59 -100 59 C-100 58.34 -100 57.68 -100 57 C-98.02 57 -96.04 57 -94 57 C-94 55.68 -94 54.36 -94 53 C-95.98 53 -97.96 53 -100 53 C-100 52.34 -100 51.68 -100 51 C-98.02 51 -96.04 51 -94 51 C-94 49.68 -94 48.36 -94 47 C-95.98 47 -97.96 47 -100 47 C-100 46.34 -100 45.68 -100 45 C-98.02 45 -96.04 45 -94 45 C-94 44.01 -94 43.02 -94 42 C-95.98 41.67 -97.96 41.34 -100 41 C-100 40.67 -100 40.34 -100 40 C-93.73 40 -87.46 40 -81 40 C-81 38.35 -81 36.7 -81 35 C-87.27 35 -93.54 35 -100 35 C-100 34.67 -100 34.34 -100 34 C-97.525 33.505 -97.525 33.505 -95 33 C-94.67 31.68 -94.34 30.36 -94 29 C-95.98 29 -97.96 29 -100 29 C-100 28.67 -100 28.34 -100 28 C-98.35 27.67 -96.7 27.34 -95 27 C-94.67 25.68 -94.34 24.36 -94 23 C-95.98 23 -97.96 23 -100 23 C-100 22.67 -100 22.34 -100 22 C-98.35 21.67 -96.7 21.34 -95 21 C-94.67 19.68 -94.34 18.36 -94 17 C-95.98 17 -97.96 17 -100 17 C-100 16.67 -100 16.34 -100 16 C-94.11060037 13.95887931 -88.8280285 13.72721958 -82.625 13.8125 C-81.25408203 13.8134668 -81.25408203 13.8134668 -79.85546875 13.81445312 C-73.14064837 13.85935163 -73.14064837 13.85935163 -72 15 C-70.58672053 15.15620555 -69.1664541 15.25056173 -67.74609375 15.31640625 C-66.89208984 15.35830078 -66.03808594 15.40019531 -65.15820312 15.44335938 C-64.26037109 15.48267578 -63.36253906 15.52199219 -62.4375 15.5625 C-61.53580078 15.60568359 -60.63410156 15.64886719 -59.70507812 15.69335938 C-57.47021515 15.79978142 -55.23523692 15.90179988 -53 16 C-53 16.33 -53 16.66 -53 17 C-59.6 17 -66.2 17 -73 17 C-72.67 18.32 -72.34 19.64 -72 21 C-65.73 21.33 -59.46 21.66 -53 22 C-53 22.33 -53 22.66 -53 23 C-59.6 23 -66.2 23 -73 23 C-72.67 24.32 -72.34 25.64 -72 27 C-64.91572597 26.88259599 -57.83161122 26.75776133 -50.74755859 26.62768555 C-48.33613069 26.5842935 -45.92467121 26.54262163 -43.51318359 26.50268555 C-40.05296294 26.44508631 -36.59290188 26.38136221 -33.1328125 26.31640625 C-32.04944611 26.29969376 -30.96607971 26.28298126 -29.84988403 26.26576233 C-28.8489975 26.24581711 -27.84811096 26.22587189 -26.81689453 26.20532227 C-25.93309113 26.18977798 -25.04928772 26.1742337 -24.13870239 26.15821838 C-21.9480278 26.13234999 -21.9480278 26.13234999 -20 25 C-19.59270772 22.67843403 -19.25561323 20.3431213 -19 18 C-20.65 17.34 -22.3 16.68 -24 16 C-22.90931332 12.22454612 -22.0916909 9.52956528 -19 7 C-18.2575 7.37125 -17.515 7.7425 -16.75 8.125 C-14.05716353 9.29515863 -14.05716353 9.29515863 -11.6875 8.125 C-11.130625 7.75375 -10.57375 7.3825 -10 7 C-10 5.02 -10 3.04 -10 1 C-3.375 0 -3.375 0 0 0 Z M-11 14 C-13.2084626 17.31269391 -13.80664241 19.14978851 -13.5546875 23.0625 C-12.4812192 26.81207941 -10.28696911 28.01541488 -7 30 C-4.36163023 30.1672392 -4.36163023 30.1672392 -2 30 C-1.96261719 29.01257813 -1.92523438 28.02515625 -1.88671875 27.0078125 C-1.82097656 25.72648437 -1.75523438 24.44515625 -1.6875 23.125 C-1.62949219 21.84882812 -1.57148437 20.57265625 -1.51171875 19.2578125 C-1.34285156 18.18273437 -1.17398438 17.10765625 -1 16 C-0.01 15.34 0.98 14.68 2 14 C0.01607489 11.60148679 0.01607489 11.60148679 -3.8125 11.5625 C-7.17733329 11.66669338 -8.04370031 12.02913354 -11 14 Z M-73 29 C-73 29.66 -73 30.32 -73 31 C-70.69 31 -68.38 31 -66 31 C-66 30.34 -66 29.68 -66 29 C-68.31 29 -70.62 29 -73 29 Z M20 47 C19.6366844 49.83386167 19.6431329 51.40522151 21.125 53.875 C23.92151052 55.55290631 25.93690532 54.74875648 29 54 C29.67673447 50.59679066 29.67673447 50.59679066 30 47 C28.11499729 44.68436913 28.11499729 44.68436913 25 44.75 C21.88500271 44.68436913 21.88500271 44.68436913 20 47 Z M-87.25 80.625 C-89.21985834 82.92308586 -89.21985834 82.92308586 -89.5 86 C-89.21376982 89.06575838 -89.21376982 89.06575838 -87.3125 91.375 C-84.61209763 93.27258004 -83.22939919 93.35882213 -80 93 C-79.85024761 85.94348748 -79.85024761 85.94348748 -81 79 C-84.92212225 78.60967296 -84.92212225 78.60967296 -87.25 80.625 Z M-72 95 C-72.33 96.65 -72.66 98.3 -73 100 C-60.13 99.01 -60.13 99.01 -47 98 C-46.67 97.01 -46.34 96.02 -46 95 C-54.58 95 -63.16 95 -72 95 Z M-22 95 C-22 95.99 -22 96.98 -22 98 C-16.72 98.33 -11.44 98.66 -6 99 C-6 97.68 -6 96.36 -6 95 C-11.28 95 -16.56 95 -22 95 Z " fill="#38D2CB" transform="translate(107,18)"/>
<path d="M0 0 C0.5775 0.226875 1.155 0.45375 1.75 0.6875 C1.75 1.3475 1.75 2.0075 1.75 2.6875 C3.07 2.6875 4.39 2.6875 5.75 2.6875 C5.75 4.3375 5.75 5.9875 5.75 7.6875 C4.780625 7.97625 3.81125 8.265 2.8125 8.5625 C-0.35664203 9.32964682 -0.35664203 9.32964682 -1.25 11.6875 C-1.39375422 15.06572416 -1.32536348 17.46140955 -0.25 20.6875 C2.06 21.0175 4.37 21.3475 6.75 21.6875 C6.75 18.7175 6.75 15.7475 6.75 12.6875 C8.73 12.6875 10.71 12.6875 12.75 12.6875 C13.08 13.3475 13.41 14.0075 13.75 14.6875 C22 14.6875 30.25 14.6875 38.75 14.6875 C39.08 14.0275 39.41 13.3675 39.75 12.6875 C53.28 12.6875 66.81 12.6875 80.75 12.6875 C80.75 16.3175 80.75 19.9475 80.75 23.6875 C75.47 23.6875 70.19 23.6875 64.75 23.6875 C64.75 24.6775 64.75 25.6675 64.75 26.6875 C65.31847656 26.67589844 65.88695313 26.66429688 66.47265625 26.65234375 C71.35670484 26.59526806 75.93503965 26.86793228 80.75 27.6875 C80.75 30.3275 80.75 32.9675 80.75 35.6875 C73.46409984 35.73432155 66.17823335 35.76961748 58.89221191 35.79112434 C55.50718789 35.80145864 52.12226851 35.81542229 48.73730469 35.83837891 C10.3125541 36.07977608 10.3125541 36.07977608 2.75 31.6875 C3.08 31.0275 3.41 30.3675 3.75 29.6875 C5.07 29.6875 6.39 29.6875 7.75 29.6875 C7.75 28.6975 7.75 27.7075 7.75 26.6875 C4.77934491 27.02977572 4.77934491 27.02977572 1.75 27.6875 C1.42 28.3475 1.09 29.0075 0.75 29.6875 C-2.21175123 29.07472388 -3.63058783 28.43377478 -6.25 26.6875 C-5.9715625 25.5428125 -5.9715625 25.5428125 -5.6875 24.375 C-5.02180827 21.59782625 -5.02180827 21.59782625 -6.25 18.6875 C-7.9 18.6875 -9.55 18.6875 -11.25 18.6875 C-11.25 16.0475 -11.25 13.4075 -11.25 10.6875 C-9.6 10.6875 -7.95 10.6875 -6.25 10.6875 C-5.45046862 7.40053767 -5.15341064 5.97726808 -6.25 2.6875 C-2.80384615 -0.38942308 -2.80384615 -0.38942308 0 0 Z M14.75 23.6875 C14.42 25.3375 14.09 26.9875 13.75 28.6875 C26.62 27.6975 26.62 27.6975 39.75 26.6875 C40.08 25.6975 40.41 24.7075 40.75 23.6875 C32.17 23.6875 23.59 23.6875 14.75 23.6875 Z " fill="#B9D4FE" transform="translate(20.25,89.3125)"/>
<path d="M0 0 C2.31 0 4.62 0 7 0 C7 2.97 7 5.94 7 9 C10.3 9 13.6 9 17 9 C17 15.6 17 22.2 17 29 C12.71 29 8.42 29 4 29 C4.495 35.93 4.495 35.93 5 43 C5.66 43 6.32 43 7 43 C7.33 42.67 7.66 42.34 8 42 C10.86267567 41.92674832 13.700719 41.90761795 16.5625 41.9375 C17.36880859 41.94201172 18.17511719 41.94652344 19.00585938 41.95117188 C21.00393756 41.96299482 23.00197783 41.98093086 25 42 C25 44.31 25 46.62 25 49 C25.99 48.67 26.98 48.34 28 48 C29 49 29 49 29.11352539 51.22485352 C29.10828857 52.18319092 29.10305176 53.14152832 29.09765625 54.12890625 C29.09443359 55.16337891 29.09121094 56.19785156 29.08789062 57.26367188 C29.07532227 58.8965918 29.07532227 58.8965918 29.0625 60.5625 C29.05798828 61.65498047 29.05347656 62.74746094 29.04882812 63.87304688 C29.03699826 66.58208495 29.02051543 69.29101599 29 72 C31.31 72.66 33.62 73.32 36 74 C35 76 35 76 33.34521484 76.61450195 C28.49200924 77.41225457 23.54404055 77.18590312 18.63769531 77.18530273 C16.63863013 77.18748512 14.63960468 77.20599143 12.640625 77.22460938 C11.36960938 77.22654297 10.09859375 77.22847656 8.7890625 77.23046875 C7.63100098 77.23457764 6.47293945 77.23868652 5.27978516 77.24291992 C1.88689046 76.99162245 -0.83332989 76.21173908 -4 75 C-3 73 -3 73 3 71 C3 61.76 3 52.52 3 43 C-4.92 43 -12.84 43 -21 43 C-21.66 41.02 -22.32 39.04 -23 37 C-22.38125 36.75378906 -21.7625 36.50757813 -21.125 36.25390625 C-18.56386336 34.74264731 -18.16841767 33.61999225 -17 30.9375 C-15.765625 28.7734375 -15.765625 28.7734375 -14 27 C-10.77634962 26.22393602 -7.85816323 26.06342334 -4.546875 26.03515625 C-2.06450088 26.29692744 -2.06450088 26.29692744 -1 25 C-0.84213692 23.14825294 -0.74892644 21.2909089 -0.68359375 19.43359375 C-0.64169922 18.30888672 -0.59980469 17.18417969 -0.55664062 16.02539062 C-0.51732422 14.84138672 -0.47800781 13.65738281 -0.4375 12.4375 C-0.39431641 11.24962891 -0.35113281 10.06175781 -0.30664062 8.83789062 C-0.20016454 5.89205216 -0.09815159 2.9461257 0 0 Z " fill="#6056EB" transform="translate(98,54)"/>
<path d="M0 0 C2.31 0 4.62 0 7 0 C7.33 9.9 7.66 19.8 8 30 C10.46120841 31.23060421 12.25776866 31.2057723 15.0078125 31.31640625 C16.48701172 31.37924805 16.48701172 31.37924805 17.99609375 31.44335938 C19.02863281 31.48267578 20.06117187 31.52199219 21.125 31.5625 C22.16527344 31.60568359 23.20554688 31.64886719 24.27734375 31.69335938 C26.85142528 31.7996288 29.42560508 31.90166583 32 32 C30 34 28 36 26 38 C25.95304951 40.84050492 25.95413266 43.66081173 26 46.5 C26.04586734 49.33918827 26.04695049 52.15949508 26 55 C25 56 25 56 22.59155273 56.11352539 C21.54942627 56.10828857 20.5072998 56.10305176 19.43359375 56.09765625 C18.30888672 56.09443359 17.18417969 56.09121094 16.02539062 56.08789062 C14.84138672 56.07951172 13.65738281 56.07113281 12.4375 56.0625 C11.24962891 56.05798828 10.06175781 56.05347656 8.83789062 56.04882812 C5.89187774 56.03699675 2.94596319 56.02051287 0 56 C-0.33 55.01 -0.66 54.02 -1 53 C-3.31 53 -5.62 53 -8 53 C-8 46.73 -8 40.46 -8 34 C-14.27 34 -20.54 34 -27 34 C-27 33.34 -27 32.68 -27 32 C-25.02 31.67 -23.04 31.34 -21 31 C-21 30.01 -21 29.02 -21 28 C-22.98 28 -24.96 28 -27 28 C-27 27.34 -27 26.68 -27 26 C-25.02 26 -23.04 26 -21 26 C-21 24.68 -21 23.36 -21 22 C-22.98 22 -24.96 22 -27 22 C-27 21.34 -27 20.68 -27 20 C-25.02 20 -23.04 20 -21 20 C-21 18.68 -21 17.36 -21 16 C-22.98 16 -24.96 16 -27 16 C-27 15.34 -27 14.68 -27 14 C-25.02 14 -23.04 14 -21 14 C-21 13.01 -21 12.02 -21 11 C-23.97 10.505 -23.97 10.505 -27 10 C-27 9.67 -27 9.34 -27 9 C-20.73 9 -14.46 9 -8 9 C-8 7.35 -8 5.7 -8 4 C-5.36 4 -2.72 4 0 4 C0 2.68 0 1.36 0 0 Z " fill="#5F4CFE" transform="translate(34,49)"/>
<path d="M0 0 C16.83 0 33.66 0 51 0 C51 9.9 51 19.8 51 30 C34.17 30 17.34 30 0 30 C0 20.1 0 10.2 0 0 Z " fill="#464D93" transform="translate(44,47)"/>
<path d="M0 0 C0.061875 0.94875 0.12375 1.8975 0.1875 2.875 C0.66564228 6.13768 0.66564228 6.13768 3.25 7.5 C6.52607711 8.09565038 8.07840301 7.50253559 11 6 C15 11.75 15 11.75 15 14 C16.28197266 14.09087891 16.28197266 14.09087891 17.58984375 14.18359375 C18.69457031 14.26738281 19.79929688 14.35117187 20.9375 14.4375 C22.03964844 14.51871094 23.14179688 14.59992187 24.27734375 14.68359375 C27 15 27 15 28 16 C28.15806531 17.92478813 28.251135 19.8549921 28.31640625 21.78515625 C28.35830078 22.95498047 28.40019531 24.12480469 28.44335938 25.33007812 C28.48267578 26.56177734 28.52199219 27.79347656 28.5625 29.0625 C28.60568359 30.29806641 28.64886719 31.53363281 28.69335938 32.80664062 C28.79984198 35.87097335 28.90185424 38.93539073 29 42 C29.61875 41.79375 30.2375 41.5875 30.875 41.375 C31.57625 41.25125 32.2775 41.1275 33 41 C33.66 41.66 34.32 42.32 35 43 C34.96712417 45.72869407 34.43602229 48.2966618 34 51 C34.66 51 35.32 51 36 51 C35.67 52.65 35.34 54.3 35 56 C32.525 56.495 32.525 56.495 30 57 C29.67 58.32 29.34 59.64 29 61 C27.02 61 25.04 61 23 61 C23 60.01 23 59.02 23 58 C20.69 58 18.38 58 16 58 C15.34 56.68 14.68 55.36 14 54 C14.99 53.67 15.98 53.34 17 53 C16.505 52.236875 16.01 51.47375 15.5 50.6875 C14 48 14 48 14 45 C13.34 45 12.68 45 12 45 C9 40.61538462 9 40.61538462 9 38 C9.66 38 10.32 38 11 38 C10.34 36.02 9.68 34.04 9 32 C3.06 31.67 -2.88 31.34 -9 31 C-9 30.34 -9 29.68 -9 29 C-6.69 29.33 -4.38 29.66 -2 30 C-2.05220703 28.51886719 -2.05220703 28.51886719 -2.10546875 27.0078125 C-2.13253906 25.72648437 -2.15960938 24.44515625 -2.1875 23.125 C-2.23970703 21.21074219 -2.23970703 21.21074219 -2.29296875 19.2578125 C-2.19628906 18.18273437 -2.09960938 17.10765625 -2 16 C-1.01 15.34 -0.02 14.68 1 14 C-0.21589984 12.56844101 -0.21589984 12.56844101 -3.8125 12.6875 C-6.78617685 12.74622611 -7.87751147 12.92650688 -10.5 14.5 C-12.71177972 18.18629954 -12.34421275 20.73176192 -12 25 C-11.67 25.66 -11.34 26.32 -11 27 C-14.63 27 -18.26 27 -22 27 C-21.34 26.34 -20.68 25.68 -20 25 C-19.59952556 22.67724823 -19.2602896 20.34260643 -19 18 C-21.475 17.01 -21.475 17.01 -24 16 C-22.90931332 12.22454612 -22.0916909 9.52956528 -19 7 C-17.88625 7.556875 -17.88625 7.556875 -16.75 8.125 C-14.05716353 9.29515863 -14.05716353 9.29515863 -11.6875 8.125 C-11.130625 7.75375 -10.57375 7.3825 -10 7 C-10 5.02 -10 3.04 -10 1 C-3.375 0 -3.375 0 0 0 Z M20 47 C19.6366844 49.83386167 19.6431329 51.40522151 21.125 53.875 C23.92151052 55.55290631 25.93690532 54.74875648 29 54 C29.67673447 50.59679066 29.67673447 50.59679066 30 47 C28.11499729 44.68436913 28.11499729 44.68436913 25 44.75 C21.88500271 44.68436913 21.88500271 44.68436913 20 47 Z " fill="#35CED8" transform="translate(107,18)"/>
<path d="M0 0 C2.31 0 4.62 0 7 0 C7 2.97 7 5.94 7 9 C10.3 9 13.6 9 17 9 C17 15.6 17 22.2 17 29 C12.71 29 8.42 29 4 29 C3.67 33.62 3.34 38.24 3 43 C-4.92 43 -12.84 43 -21 43 C-21.66 41.02 -22.32 39.04 -23 37 C-22.38125 36.75378906 -21.7625 36.50757813 -21.125 36.25390625 C-18.56386336 34.74264731 -18.16841767 33.61999225 -17 30.9375 C-15.765625 28.7734375 -15.765625 28.7734375 -14 27 C-10.77634962 26.22393602 -7.85816323 26.06342334 -4.546875 26.03515625 C-2.06450088 26.29692744 -2.06450088 26.29692744 -1 25 C-0.84213692 23.14825294 -0.74892644 21.2909089 -0.68359375 19.43359375 C-0.64169922 18.30888672 -0.59980469 17.18417969 -0.55664062 16.02539062 C-0.51732422 14.84138672 -0.47800781 13.65738281 -0.4375 12.4375 C-0.39431641 11.24962891 -0.35113281 10.06175781 -0.30664062 8.83789062 C-0.20016454 5.89205216 -0.09815159 2.9461257 0 0 Z " fill="#7386FE" transform="translate(98,54)"/>
<path d="M0 0 C0.5775 0.226875 1.155 0.45375 1.75 0.6875 C1.75 1.3475 1.75 2.0075 1.75 2.6875 C3.07 2.6875 4.39 2.6875 5.75 2.6875 C5.75 4.3375 5.75 5.9875 5.75 7.6875 C4.780625 7.97625 3.81125 8.265 2.8125 8.5625 C-0.35664203 9.32964682 -0.35664203 9.32964682 -1.25 11.6875 C-1.39375422 15.06572416 -1.32536348 17.46140955 -0.25 20.6875 C4.7 21.6775 9.65 22.6675 14.75 23.6875 C15.75 26.6875 15.75 26.6875 15.75 27.6875 C23.67 27.3575 31.59 27.0275 39.75 26.6875 C39.42 27.3475 39.09 28.0075 38.75 28.6875 C36.10139573 29.28105614 33.45802678 29.42959269 30.75 29.6875 C30.75 30.3475 30.75 31.0075 30.75 31.6875 C44.94 31.6875 59.13 31.6875 73.75 31.6875 C73.255 30.6975 73.255 30.6975 72.75 29.6875 C71.595 29.5225 70.44 29.3575 69.25 29.1875 C68.095 29.0225 66.94 28.8575 65.75 28.6875 C65.255 27.6975 65.255 27.6975 64.75 26.6875 C70.20769811 26.57611841 75.36509359 26.77092019 80.75 27.6875 C80.75 30.3275 80.75 32.9675 80.75 35.6875 C73.46409984 35.73432155 66.17823335 35.76961748 58.89221191 35.79112434 C55.50718789 35.80145864 52.12226851 35.81542229 48.73730469 35.83837891 C10.3125541 36.07977608 10.3125541 36.07977608 2.75 31.6875 C3.08 31.0275 3.41 30.3675 3.75 29.6875 C5.07 29.6875 6.39 29.6875 7.75 29.6875 C7.75 28.6975 7.75 27.7075 7.75 26.6875 C4.77934491 27.02977572 4.77934491 27.02977572 1.75 27.6875 C1.42 28.3475 1.09 29.0075 0.75 29.6875 C-2.21175123 29.07472388 -3.63058783 28.43377478 -6.25 26.6875 C-5.9715625 25.5428125 -5.9715625 25.5428125 -5.6875 24.375 C-5.02180827 21.59782625 -5.02180827 21.59782625 -6.25 18.6875 C-7.9 18.6875 -9.55 18.6875 -11.25 18.6875 C-11.25 16.0475 -11.25 13.4075 -11.25 10.6875 C-9.6 10.6875 -7.95 10.6875 -6.25 10.6875 C-5.45046862 7.40053767 -5.15341064 5.97726808 -6.25 2.6875 C-2.80384615 -0.38942308 -2.80384615 -0.38942308 0 0 Z " fill="#EAEBF2" transform="translate(20.25,89.3125)"/>
<path d="M0 0 C6.15234375 -0.09765625 6.15234375 -0.09765625 8 0 C9.77490546 1.77490546 9.23499973 4.37784902 9.31640625 6.78515625 C9.35830078 7.95498047 9.40019531 9.12480469 9.44335938 10.33007812 C9.48267578 11.56177734 9.52199219 12.79347656 9.5625 14.0625 C9.60568359 15.29806641 9.64886719 16.53363281 9.69335938 17.80664062 C9.79984198 20.87097335 9.90185424 23.93539073 10 27 C10.61875 26.79375 11.2375 26.5875 11.875 26.375 C12.57625 26.25125 13.2775 26.1275 14 26 C14.66 26.66 15.32 27.32 16 28 C15.96712417 30.72869407 15.43602229 33.2966618 15 36 C15.66 36 16.32 36 17 36 C16.67 37.65 16.34 39.3 16 41 C13.525 41.495 13.525 41.495 11 42 C10.67 43.32 10.34 44.64 10 46 C8.02 46 6.04 46 4 46 C4 45.01 4 44.02 4 43 C1.69 43 -0.62 43 -3 43 C-3.66 41.68 -4.32 40.36 -5 39 C-3.515 38.505 -3.515 38.505 -2 38 C-2.495 37.236875 -2.99 36.47375 -3.5 35.6875 C-5 33 -5 33 -5 30 C-5.66 30 -6.32 30 -7 30 C-7 28 -7 28 -5 25.875 C-4.34 25.25625 -3.68 24.6375 -3 24 C-3.66 24 -4.32 24 -5 24 C-5.19412181 22.52168779 -5.38012131 21.04230684 -5.5625 19.5625 C-5.66691406 18.73878906 -5.77132812 17.91507813 -5.87890625 17.06640625 C-5.91886719 16.38449219 -5.95882812 15.70257813 -6 15 C-5 14 -5 14 -2.93359375 13.90234375 C-1.69802734 13.91974609 -1.69802734 13.91974609 -0.4375 13.9375 C0.38878906 13.94652344 1.21507813 13.95554687 2.06640625 13.96484375 C2.70449219 13.97644531 3.34257812 13.98804688 4 14 C3.67 13.01 3.34 12.02 3 11 C1.35 10.67 -0.3 10.34 -2 10 C-1.34 9.67 -0.68 9.34 0 9 C0.34342449 7.66923011 0.67619874 6.33568021 1 5 C1.66 4.34 2.32 3.68 3 3 C2.01 2.67 1.02 2.34 0 2 C-0.33 2.66 -0.66 3.32 -1 4 C-0.67 2.68 -0.34 1.36 0 0 Z M1 32 C0.6366844 34.83386167 0.6431329 36.40522151 2.125 38.875 C4.92151052 40.55290631 6.93690532 39.74875648 10 39 C10.67673447 35.59679066 10.67673447 35.59679066 11 32 C9.11499729 29.68436913 9.11499729 29.68436913 6 29.75 C2.88500271 29.68436913 2.88500271 29.68436913 1 32 Z " fill="#36D5CF" transform="translate(126,33)"/>
<path d="M0 0 C1.12019531 -0.00128906 2.24039063 -0.00257812 3.39453125 -0.00390625 C4.57402344 -0.00003906 5.75351562 0.00382812 6.96875 0.0078125 C8.73798828 0.00201172 8.73798828 0.00201172 10.54296875 -0.00390625 C12.22326172 -0.00197266 12.22326172 -0.00197266 13.9375 0 C14.97326172 0.00112793 16.00902344 0.00225586 17.07617188 0.00341797 C19.46875 0.1328125 19.46875 0.1328125 20.46875 1.1328125 C20.56861975 3.97616298 20.60752881 6.78978413 20.59375 9.6328125 C20.59955078 10.82970703 20.59955078 10.82970703 20.60546875 12.05078125 C20.59535767 18.00620483 20.59535767 18.00620483 19.46875 19.1328125 C17.62715977 19.23240871 15.78178033 19.26361661 13.9375 19.265625 C12.81730469 19.26691406 11.69710937 19.26820312 10.54296875 19.26953125 C9.36347656 19.26566406 8.18398438 19.26179688 6.96875 19.2578125 C5.19951172 19.26361328 5.19951172 19.26361328 3.39453125 19.26953125 C1.71423828 19.26759766 1.71423828 19.26759766 0 19.265625 C-1.03576172 19.26449707 -2.07152344 19.26336914 -3.13867188 19.26220703 C-5.53125 19.1328125 -5.53125 19.1328125 -6.53125 18.1328125 C-6.63111975 15.28946202 -6.67002881 12.47584087 -6.65625 9.6328125 C-6.66011719 8.83488281 -6.66398437 8.03695312 -6.66796875 7.21484375 C-6.65573175 0.007248 -6.65573175 0.007248 0 0 Z " fill="#3FB7DE" transform="translate(39.53125,85.8671875)"/>
<path d="M0 0 C0.74362793 0.01047363 1.48725586 0.02094727 2.25341797 0.03173828 C3.46191406 0.04140625 3.46191406 0.04140625 4.69482422 0.05126953 C5.95746094 0.07640625 5.95746094 0.07640625 7.24560547 0.10205078 C8.51984375 0.11558594 8.51984375 0.11558594 9.81982422 0.12939453 C11.9202043 0.15299431 14.02043991 0.18886595 16.12060547 0.22705078 C16.45060547 1.21705078 16.78060547 2.20705078 17.12060547 3.22705078 C16.13060547 3.22705078 15.14060547 3.22705078 14.12060547 3.22705078 C13.87310547 4.17580078 13.62560547 5.12455078 13.37060547 6.10205078 C12.12060547 9.22705078 12.12060547 9.22705078 9.99560547 10.60205078 C9.37685547 10.80830078 8.75810547 11.01455078 8.12060547 11.22705078 C9.11060547 12.71205078 9.11060547 12.71205078 10.12060547 14.22705078 C9.79060547 14.88705078 9.46060547 15.54705078 9.12060547 16.22705078 C17.04060547 16.22705078 24.96060547 16.22705078 33.12060547 16.22705078 C33.12060547 17.87705078 33.12060547 19.52705078 33.12060547 21.22705078 C19.59060547 21.22705078 6.06060547 21.22705078 -7.87939453 21.22705078 C-8.20939453 15.61705078 -8.53939453 10.00705078 -8.87939453 4.22705078 C-7.22939453 3.56705078 -5.57939453 2.90705078 -3.87939453 2.22705078 C-1.87939453 0.22705078 -1.87939453 0.22705078 0 0 Z " fill="#6C73FE" transform="translate(67.87939453125,80.77294921875)"/>
<path d="M0 0 C3.0000624 -0.02721831 5.99987256 -0.04694378 9 -0.0625 C9.83917969 -0.07087891 10.67835937 -0.07925781 11.54296875 -0.08789062 C12.79013672 -0.09272461 12.79013672 -0.09272461 14.0625 -0.09765625 C15.19365234 -0.10551147 15.19365234 -0.10551147 16.34765625 -0.11352539 C19.91451913 0.03914317 23.45744034 0.55718004 27 1 C27 7.93 27 14.86 27 22 C20.07 22 13.14 22 6 22 C6 21.01 6 20.02 6 19 C4.02 19 2.04 19 0 19 C0 18.34 0 17.68 0 17 C1.98 17 3.96 17 6 17 C6 15.68 6 14.36 6 13 C4.02 13 2.04 13 0 13 C0 12.34 0 11.68 0 11 C1.98 11 3.96 11 6 11 C6 9.68 6 8.36 6 7 C4.02 7 2.04 7 0 7 C0 6.34 0 5.68 0 5 C1.98 5 3.96 5 6 5 C6 4.01 6 3.02 6 2 C3.03 1.505 3.03 1.505 0 1 C0 0.67 0 0.34 0 0 Z " fill="#60D2E1" transform="translate(7,58)"/>
<path d="M0 0 C2.62697064 -0.22137393 5.00893964 -0.28162025 7.625 -0.1875 C8.33140625 -0.17396484 9.0378125 -0.16042969 9.765625 -0.14648438 C11.51074128 -0.1111104 13.25546608 -0.05730221 15 0 C15 3.63 15 7.26 15 11 C9.72 11 4.44 11 -1 11 C-0.505 12.98 -0.505 12.98 0 15 C2.31 15.33 4.62 15.66 7 16 C7.495 17.485 7.495 17.485 8 19 C-6.19 19 -20.38 19 -35 19 C-35 18.34 -35 17.68 -35 17 C-32.98177083 16.609375 -30.96354167 16.21875 -28.9453125 15.828125 C-26.80995329 15.14287884 -26.80995329 15.14287884 -25.7421875 12.921875 C-25.49726562 12.28765625 -25.25234375 11.6534375 -25 11 C-23.81921875 10.99742188 -22.6384375 10.99484375 -21.421875 10.9921875 C-19.86454555 10.95466149 -18.30725458 10.91551394 -16.75 10.875 C-15.58404297 10.87886719 -15.58404297 10.87886719 -14.39453125 10.8828125 C-12.11536948 10.80489244 -10.18340542 10.66659523 -8 10 C-5.52004608 7.13591016 -5.52004608 7.13591016 -4 4 C-3.34 3.67 -2.68 3.34 -2 3 C-1.34 2.01 -0.68 1.02 0 0 Z " fill="#B1CFFE" transform="translate(86,102)"/>
<path d="M0 0 C1.32 0 2.64 0 4 0 C4 6.6 4 13.2 4 20 C6.31 20 8.62 20 11 20 C12 21 12 21 12.11352539 22.85766602 C12.10828857 23.64842529 12.10305176 24.43918457 12.09765625 25.25390625 C12.09443359 26.10791016 12.09121094 26.96191406 12.08789062 27.84179688 C12.07951172 28.73962891 12.07113281 29.63746094 12.0625 30.5625 C12.05798828 31.46419922 12.05347656 32.36589844 12.04882812 33.29492188 C12.03700225 35.53001314 12.0205222 37.76497437 12 40 C10.68 40 9.36 40 8 40 C8 37.69 8 35.38 8 33 C5.20743781 33.11361602 2.41655882 33.2403589 -0.375 33.375 C-1.1690625 33.4059375 -1.963125 33.436875 -2.78125 33.46875 C-7.36667375 33.51816421 -7.36667375 33.51816421 -11 36 C-13.65450267 33.34549733 -13.41639121 31.69774614 -13.6875 28 C-13.77386719 26.9275 -13.86023438 25.855 -13.94921875 24.75 C-14 22 -14 22 -13 20 C-8.71 20 -4.42 20 0 20 C0 13.4 0 6.8 0 0 Z " fill="#6050FC" transform="translate(115,63)"/>
<path d="M0 0 C0.061875 0.94875 0.12375 1.8975 0.1875 2.875 C0.66564228 6.13768 0.66564228 6.13768 3.25 7.5 C6.52607711 8.09565038 8.07840301 7.50253559 11 6 C13.0625 8.8125 13.0625 8.8125 15 12 C14.67 12.99 14.34 13.98 14 15 C12.04196493 15.05389087 10.08351091 15.09274217 8.125 15.125 C7.03445312 15.14820313 5.94390625 15.17140625 4.8203125 15.1953125 C2 15 2 15 0 13 C-5.54235245 12.42765564 -5.54235245 12.42765564 -10.5 14.5 C-12.71177972 18.18629954 -12.34421275 20.73176192 -12 25 C-11.67 25.66 -11.34 26.32 -11 27 C-14.63 27 -18.26 27 -22 27 C-21.34 26.34 -20.68 25.68 -20 25 C-19.59952556 22.67724823 -19.2602896 20.34260643 -19 18 C-21.475 17.01 -21.475 17.01 -24 16 C-22.90931332 12.22454612 -22.0916909 9.52956528 -19 7 C-17.88625 7.556875 -17.88625 7.556875 -16.75 8.125 C-14.05716353 9.29515863 -14.05716353 9.29515863 -11.6875 8.125 C-11.130625 7.75375 -10.57375 7.3825 -10 7 C-10 5.02 -10 3.04 -10 1 C-3.375 0 -3.375 0 0 0 Z " fill="#E9EBF2" transform="translate(107,18)"/>
<path d="M0 0 C1.58206422 0.00574487 3.16410406 0.01876032 4.74609375 0.03515625 C7.53046875 0.05578125 10.31484375 0.07640625 13.18359375 0.09765625 C13.18359375 6.03765625 13.18359375 11.97765625 13.18359375 18.09765625 C10.39921875 18.11828125 7.61484375 18.13890625 4.74609375 18.16015625 C3.86767822 18.16926025 2.9892627 18.17836426 2.08422852 18.18774414 C0.11713401 18.19488716 -1.84994246 18.14797518 -3.81640625 18.09765625 C-5.63756628 16.27649622 -4.94875705 13.79093861 -4.953125 11.37109375 C-4.94925781 10.62085937 -4.94539063 9.870625 -4.94140625 9.09765625 C-4.94527344 8.34742187 -4.94914062 7.5971875 -4.953125 6.82421875 C-4.94103514 0.12643386 -4.94103514 0.12643386 0 0 Z " fill="#BAECF2" transform="translate(109.81640625,95.90234375)"/>
<path d="M0 0 C0.66 0.33 1.32 0.66 2 1 C2 7.93 2 14.86 2 22 C-6.25 22 -14.5 22 -23 22 C-23 15 -23 15 -21 11 C-14.73 11.33 -8.46 11.66 -2 12 C-2 8.37 -2 4.74 -2 1 C-1.34 0.67 -0.68 0.34 0 0 Z " fill="#7388FE" transform="translate(125,102)"/>
<path d="M0 0 C5.61 0 11.22 0 17 0 C17 5.61 17 11.22 17 17 C11.39 17 5.78 17 0 17 C0 11.39 0 5.78 0 0 Z " fill="#3F4F9A" transform="translate(15,34)"/>
<path d="M0 0 C1.37091797 0.0009668 1.37091797 0.0009668 2.76953125 0.00195312 C9.48435163 0.04685163 9.48435163 0.04685163 10.625 1.1875 C12.03827947 1.34370555 13.4585459 1.43806173 14.87890625 1.50390625 C15.73291016 1.54580078 16.58691406 1.58769531 17.46679688 1.63085938 C18.36462891 1.67017578 19.26246094 1.70949219 20.1875 1.75 C21.08919922 1.79318359 21.99089844 1.83636719 22.91992188 1.88085938 C25.15478485 1.98728142 27.38976308 2.08929988 29.625 2.1875 C29.625 2.5175 29.625 2.8475 29.625 3.1875 C23.025 3.1875 16.425 3.1875 9.625 3.1875 C9.955 4.5075 10.285 5.8275 10.625 7.1875 C16.895 7.5175 23.165 7.8475 29.625 8.1875 C29.625 8.5175 29.625 8.8475 29.625 9.1875 C23.025 9.1875 16.425 9.1875 9.625 9.1875 C9.955 10.5075 10.285 11.8275 10.625 13.1875 C16.895 13.1875 23.165 13.1875 29.625 13.1875 C29.625 13.8475 29.625 14.5075 29.625 15.1875 C26.325 15.1875 23.025 15.1875 19.625 15.1875 C19.625 15.8475 19.625 16.5075 19.625 17.1875 C18.635 17.1875 17.645 17.1875 16.625 17.1875 C16.625 16.5275 16.625 15.8675 16.625 15.1875 C14.315 15.1875 12.005 15.1875 9.625 15.1875 C9.625 17.1675 9.625 19.1475 9.625 21.1875 C0.715 21.1875 -8.195 21.1875 -17.375 21.1875 C-17.375 20.8575 -17.375 20.5275 -17.375 20.1875 C-15.725 19.8575 -14.075 19.5275 -12.375 19.1875 C-12.045 17.8675 -11.715 16.5475 -11.375 15.1875 C-13.355 15.1875 -15.335 15.1875 -17.375 15.1875 C-17.375 14.8575 -17.375 14.5275 -17.375 14.1875 C-15.725 13.8575 -14.075 13.5275 -12.375 13.1875 C-12.045 11.8675 -11.715 10.5475 -11.375 9.1875 C-13.355 9.1875 -15.335 9.1875 -17.375 9.1875 C-17.375 8.8575 -17.375 8.5275 -17.375 8.1875 C-15.725 7.8575 -14.075 7.5275 -12.375 7.1875 C-12.045 5.8675 -11.715 4.5475 -11.375 3.1875 C-13.355 3.1875 -15.335 3.1875 -17.375 3.1875 C-17.375 2.8575 -17.375 2.5275 -17.375 2.1875 C-11.48560037 0.14637931 -6.2030285 -0.08528042 0 0 Z M-9.375 2.1875 C-9.375 7.7975 -9.375 13.4075 -9.375 19.1875 C-3.765 19.1875 1.845 19.1875 7.625 19.1875 C7.625 13.5775 7.625 7.9675 7.625 2.1875 C2.015 2.1875 -3.595 2.1875 -9.375 2.1875 Z " fill="#6ADCD8" transform="translate(24.375,31.8125)"/>
<path d="M0 0 C2.95857409 -0.05379226 5.91617721 -0.09357093 8.875 -0.125 C9.71675781 -0.14175781 10.55851562 -0.15851562 11.42578125 -0.17578125 C12.23144531 -0.18222656 13.03710938 -0.18867187 13.8671875 -0.1953125 C14.98262939 -0.21102295 14.98262939 -0.21102295 16.12060547 -0.22705078 C18 0 18 0 20 2 C20.125 4.625 20.125 4.625 20 7 C19.34 7 18.68 7 18 7 C18.495 7.598125 18.99 8.19625 19.5 8.8125 C21 11 21 11 21 14 C16.38 14 11.76 14 7 14 C7 11.03 7 8.06 7 5 C4.69 5 2.38 5 0 5 C0 3.35 0 1.7 0 0 Z " fill="#39C5D7" transform="translate(98,49)"/>
<path d="M0 0 C13.53 0 27.06 0 41 0 C41 1.65 41 3.3 41 5 C27.47 5 13.94 5 0 5 C0 3.35 0 1.7 0 0 Z " fill="#3C3D89" transform="translate(60,97)"/>
<path d="M0 0 C0.99 0 1.98 0 3 0 C3 9.24 3 18.48 3 28 C19.83 28 36.66 28 54 28 C54 28.33 54 28.66 54 29 C37.83 29.33 21.66 29.66 5 30 C29.75 30.495 29.75 30.495 55 31 C55 31.33 55 31.66 55 32 C47.64936254 32.05062952 40.29876989 32.08570377 32.94799805 32.10986328 C30.44635335 32.11993288 27.94472045 32.13358934 25.44311523 32.15087891 C21.85137014 32.17508492 18.2597804 32.18647346 14.66796875 32.1953125 C12.98503975 32.21079636 12.98503975 32.21079636 11.26811218 32.22659302 C10.22725967 32.22674408 9.18640717 32.22689514 8.11401367 32.22705078 C7.19690109 32.231492 6.27978851 32.23593323 5.33488464 32.24050903 C3 32 3 32 0 30 C-0.34057617 27.01904297 -0.34057617 27.01904297 -0.29296875 23.2421875 C-0.28872391 22.57913605 -0.28447906 21.91608459 -0.28010559 21.23294067 C-0.26329971 19.11321559 -0.22564701 16.99443812 -0.1875 14.875 C-0.17245549 13.43881581 -0.15876668 12.00261672 -0.14648438 10.56640625 C-0.1133909 7.04396236 -0.0615968 3.52207364 0 0 Z " fill="#4194D3" transform="translate(41,49)"/>
<path d="M0 0 C0.99 0.66 1.98 1.32 3 2 C2.67 4.64 2.34 7.28 2 10 C2.66 10 3.32 10 4 10 C3.67 11.65 3.34 13.3 3 15 C1.35 15.33 -0.3 15.66 -2 16 C-2.33 17.32 -2.66 18.64 -3 20 C-4.98 20 -6.96 20 -9 20 C-9 19.01 -9 18.02 -9 17 C-11.31 17 -13.62 17 -16 17 C-16.66 15.68 -17.32 14.36 -18 13 C-17.01 12.67 -16.02 12.34 -15 12 C-15.7425 10.8553125 -15.7425 10.8553125 -16.5 9.6875 C-18 7 -18 7 -18 4 C-15.36 4 -12.72 4 -10 4 C-10.20625 5.11375 -10.4125 6.2275 -10.625 7.375 C-10.810625 9.169375 -10.810625 9.169375 -11 11 C-9.10244856 13.34973818 -9.10244856 13.34973818 -5.875 13.125 C-4.451875 13.063125 -4.451875 13.063125 -3 13 C-2.70437633 7.67829506 -2.70437633 7.67829506 -5 3 C-3 1 -3 1 0 0 Z " fill="#EAEBF2" transform="translate(139,59)"/>
<path d="M0 0 C0.66 0 1.32 0 2 0 C2 0.66 2 1.32 2 2 C2.99 2 3.98 2 5 2 C5 1.34 5 0.68 5 0 C7.66666667 1.33333333 10.33333333 2.66666667 13 4 C13.02689216 5.47906892 13.04634621 6.95827483 13.0625 8.4375 C13.07410156 9.26121094 13.08570312 10.08492187 13.09765625 10.93359375 C13 13 13 13 12 14 C10.14630389 14.08737645 8.28932459 14.10698153 6.43359375 14.09765625 C5.30888672 14.09443359 4.18417969 14.09121094 3.02539062 14.08789062 C1.84138672 14.07951172 0.65738281 14.07113281 -0.5625 14.0625 C-1.75037109 14.05798828 -2.93824219 14.05347656 -4.16210938 14.04882812 C-7.10812226 14.03699675 -10.05403681 14.02051287 -13 14 C-13.33 13.01 -13.66 12.02 -14 11 C-8.06 11 -2.12 11 4 11 C4.33 9.68 4.66 8.36 5 7 C4.4225 7.144375 3.845 7.28875 3.25 7.4375 C1.16666667 7.95833333 -0.91666667 8.47916667 -3 9 C-2.01 6.03 -1.02 3.06 0 0 Z " fill="#41D8CD" transform="translate(47,91)"/>
<path d="M0 0 C2.12438339 -0.08078641 4.2496323 -0.13909141 6.375 -0.1875 C7.55835937 -0.22230469 8.74171875 -0.25710937 9.9609375 -0.29296875 C11.46527344 -0.14794922 11.46527344 -0.14794922 13 0 C13.66 0.99 14.32 1.98 15 3 C14.34 3 13.68 3 13 3 C13.33 3.66 13.66 4.32 14 5 C20.27 5.33 26.54 5.66 33 6 C33 6.66 33 7.32 33 8 C18.81 8 4.62 8 -10 8 C-10 7.34 -10 6.68 -10 6 C-7.98177083 5.609375 -5.96354167 5.21875 -3.9453125 4.828125 C-1.80995329 4.14287884 -1.80995329 4.14287884 -0.7421875 1.921875 C-0.49726562 1.28765625 -0.25234375 0.6534375 0 0 Z " fill="#A2C5FE" transform="translate(61,113)"/>
<path d="M0 0 C1.98 0 3.96 0 6 0 C6.33 0.66 6.66 1.32 7 2 C12.61 2.33 18.22 2.66 24 3 C21.33333333 8.33333333 21.33333333 8.33333333 18 10 C17.67 10.33 17.34 10.66 17 11 C14.50941086 11.09997642 12.05272605 11.13879627 9.5625 11.125 C8.52125977 11.13080078 8.52125977 11.13080078 7.45898438 11.13671875 C2.25327988 11.12663994 2.25327988 11.12663994 0 10 C0 6.7 0 3.4 0 0 Z " fill="#C5DCFE" transform="translate(27,102)"/>
<path d="M0 0 C2.64 0 5.28 0 8 0 C8 6.93 8 13.86 8 21 C1.07 21 -5.86 21 -13 21 C-13 20.01 -13 19.02 -13 18 C-8.71 18 -4.42 18 0 18 C0 17.01 0 16.02 0 15 C1.32 15 2.64 15 4 15 C3.7525 13.081875 3.7525 13.081875 3.5 11.125 C3.23273927 9.05372935 3 7.08896425 3 5 C2.01 4.67 1.02 4.34 0 4 C0 2.68 0 1.36 0 0 Z " fill="#35DDC4" transform="translate(26,59)"/>
<path d="M0 0 C1.32 0 2.64 0 4 0 C4 6.6 4 13.2 4 20 C6.31 20 8.62 20 11 20 C11.33 20.99 11.66 21.98 12 23 C3.19039858 24.30512614 -5.19039858 24.30512614 -14 23 C-13.505 21.515 -13.505 21.515 -13 20 C-8.71 20 -4.42 20 0 20 C0 13.4 0 6.8 0 0 Z " fill="#4C4CA1" transform="translate(115,63)"/>
<path d="M0 0 C1.31871094 -0.01224609 2.63742188 -0.02449219 3.99609375 -0.03710938 C5.90068359 -0.04000977 5.90068359 -0.04000977 7.84375 -0.04296875 C9.00068359 -0.04707764 10.15761719 -0.05118652 11.34960938 -0.05541992 C14.47736509 0.18575467 16.680892 0.85423629 19.5 2.1875 C18.5 4.1875 18.5 4.1875 16.84521484 4.80200195 C11.99200924 5.59975457 7.04404055 5.37340312 2.13769531 5.37280273 C0.13863013 5.37498512 -1.86039532 5.39349143 -3.859375 5.41210938 C-5.13039063 5.41404297 -6.40140625 5.41597656 -7.7109375 5.41796875 C-8.86899902 5.42207764 -10.02706055 5.42618652 -11.22021484 5.43041992 C-14.61310954 5.17912245 -17.33332989 4.39923908 -20.5 3.1875 C-20.17 2.5275 -19.84 1.8675 -19.5 1.1875 C-13.23640183 -0.60566158 -6.45139424 0.00315317 0 0 Z " fill="#EAEBF2" transform="translate(114.5,125.8125)"/>
<path d="M0 0 C1.58206422 0.00574487 3.16410406 0.01876032 4.74609375 0.03515625 C7.53046875 0.05578125 10.31484375 0.07640625 13.18359375 0.09765625 C13.18359375 6.03765625 13.18359375 11.97765625 13.18359375 18.09765625 C10.39921875 18.11828125 7.61484375 18.13890625 4.74609375 18.16015625 C3.86767822 18.16926025 2.9892627 18.17836426 2.08422852 18.18774414 C0.11713401 18.19488716 -1.84994246 18.14797518 -3.81640625 18.09765625 C-5.63756628 16.27649622 -4.94875705 13.79093861 -4.953125 11.37109375 C-4.94925781 10.62085937 -4.94539063 9.870625 -4.94140625 9.09765625 C-4.94527344 8.34742187 -4.94914062 7.5971875 -4.953125 6.82421875 C-4.94103514 0.12643386 -4.94103514 0.12643386 0 0 Z M-1.25390625 3.72265625 C-3.27572938 6.7958274 -3.34396142 8.48013506 -2.81640625 12.09765625 C-1.82606399 14.5014962 -1.82606399 14.5014962 0.18359375 16.09765625 C3.30464779 17.02733192 5.30322846 17.36665675 8.43359375 16.41015625 C10.63016413 14.76272847 11.37829987 13.73316349 12.18359375 11.09765625 C11.99584672 8.03112143 11.64476926 5.86628211 10.05859375 3.22265625 C6.19030131 0.90168079 2.41018498 1.27992876 -1.25390625 3.72265625 Z " fill="#48B6F4" transform="translate(109.81640625,95.90234375)"/>
<path d="M0 0 C0 5.61 0 11.22 0 17 C0.99 17 1.98 17 3 17 C3 18.65 3 20.3 3 22 C0.69 22 -1.62 22 -4 22 C-4 15.73 -4 9.46 -4 3 C-10.27 3 -16.54 3 -23 3 C-23 2.34 -23 1.68 -23 1 C-19.91675903 0.83159521 -16.83339379 0.66558138 -13.75 0.5 C-12.87730469 0.45230469 -12.00460938 0.40460938 -11.10546875 0.35546875 C-10.26113281 0.31035156 -9.41679687 0.26523438 -8.546875 0.21875 C-7.38430176 0.1559082 -7.38430176 0.1559082 -6.19824219 0.09179688 C-4.13373418 0.00558463 -2.0663073 0 0 0 Z " fill="#6F72AA" transform="translate(30,80)"/>
<path d="M0 0 C2.31 0 4.62 0 7 0 C7 4.62 7 9.24 7 14 C4.03 13.505 4.03 13.505 1 13 C0.67 12.01 0.34 11.02 0 10 C-2.64 10 -5.28 10 -8 10 C-8 8.02 -8 6.04 -8 4 C-5.36 4 -2.72 4 0 4 C0 2.68 0 1.36 0 0 Z " fill="#5832FF" transform="translate(34,49)"/>
<path d="M0 0 C0.33 0 0.66 0 1 0 C1.02684312 2.81256281 1.04676188 5.62487241 1.0625 8.4375 C1.07087891 9.23994141 1.07925781 10.04238281 1.08789062 10.86914062 C1.0965143 12.91295221 1.0522815 14.95683902 1 17 C0 18 0 18 -3.37890625 18.09765625 C-4.77347077 18.09098369 -6.16801743 18.07902532 -7.5625 18.0625 C-8.27341797 18.05798828 -8.98433594 18.05347656 -9.71679688 18.04882812 C-11.47790013 18.03700864 -13.23896036 18.01907263 -15 18 C-15 17.34 -15 16.68 -15 16 C-10.52941176 12 -10.52941176 12 -8 12 C-7.71125 11.21625 -7.4225 10.4325 -7.125 9.625 C-6 7 -6 7 -4 5 C-2.68 5 -1.36 5 0 5 C0 3.35 0 1.7 0 0 Z " fill="#36DEC4" transform="translate(134,45)"/>
<path d="M0 0 C1.32 0 2.64 0 4 0 C4 0.66 4 1.32 4 2 C5.65 2.33 7.3 2.66 9 3 C9 5.64 9 8.28 9 11 C7.68 11 6.36 11 5 11 C5 11.99 5 12.98 5 14 C2.33333333 13.33333333 -0.33333333 12.66666667 -3 12 C-3.54372951 8.94152152 -4 6.11227195 -4 3 C-2.68 3 -1.36 3 0 3 C0 2.01 0 1.02 0 0 Z " fill="#E3F6F9" transform="translate(21,63)"/>
<path d="M0 0 C2.31 0 4.62 0 7 0 C7 2.97 7 5.94 7 9 C8.32 9.33 9.64 9.66 11 10 C6.25 13 6.25 13 4 13 C4.33 13.99 4.66 14.98 5 16 C3.68 16.99 2.36 17.98 1 19 C-0.65497356 15.69005287 -0.10084335 12.00877 -0.0625 8.375 C-0.05798828 7.57320312 -0.05347656 6.77140625 -0.04882812 5.9453125 C-0.03703168 3.96350994 -0.01909605 1.98174567 0 0 Z " fill="#6C76FD" transform="translate(98,54)"/>
<path d="M0 0 C1.375 2.0625 1.375 2.0625 2 4 C3.65 4 5.3 4 7 4 C7.33 4.99 7.66 5.98 8 7 C0.41 7 -7.18 7 -15 7 C-14.34 5.68 -13.68 4.36 -13 3 C-11.68 3 -10.36 3 -9 3 C-8.67 2.01 -8.34 1.02 -8 0 C-5.04063954 -1.47968023 -3.13239866 -0.84835797 0 0 Z " fill="#F6FCFD" transform="translate(122,39)"/>
<path d="M0 0 C1.58206057 0.00667536 3.16410534 0.0186375 4.74609375 0.03515625 C5.55240234 0.03966797 6.35871094 0.04417969 7.18945312 0.04882812 C9.18753131 0.06065107 11.18557158 0.07858711 13.18359375 0.09765625 C6.18359375 4.76432292 6.18359375 4.76432292 2.18359375 6.09765625 C0.959659 9.05549856 1.21843132 11.0949287 2.18359375 14.09765625 C-0.12640625 13.10765625 -2.43640625 12.11765625 -4.81640625 11.09765625 C-4.84328776 9.45191059 -4.86274748 7.80604212 -4.87890625 6.16015625 C-4.89050781 5.24363281 -4.90210938 4.32710938 -4.9140625 3.3828125 C-4.74806315 -0.5015722 -4.08167578 0.10444411 0 0 Z " fill="#40A7E5" transform="translate(37.81640625,85.90234375)"/>
<path d="M0 0 C7.92 0.33 15.84 0.66 24 1 C24 1.33 24 1.66 24 2 C19.545 2.495 19.545 2.495 15 3 C15 5.97 15 8.94 15 12 C15.66 12 16.32 12 17 12 C16.34 13.32 15.68 14.64 15 16 C13.0625 15.1875 13.0625 15.1875 11 14 C10.67 13.01 10.34 12.02 10 11 C10.66 11 11.32 11 12 11 C11.34 9.02 10.68 7.04 10 5 C4.06 4.67 -1.88 4.34 -8 4 C-8 3.34 -8 2.68 -8 2 C-5.69 2 -3.38 2 -1 2 C-0.67 1.34 -0.34 0.68 0 0 Z " fill="#82DCE4" transform="translate(106,45)"/>
<path d="M0 0 C7.92 0.33 15.84 0.66 24 1 C19 6 19 6 16.68823242 6.56762695 C15.91842041 6.54144287 15.1486084 6.51525879 14.35546875 6.48828125 C13.51435547 6.47216797 12.67324219 6.45605469 11.80664062 6.43945312 C10.51016602 6.37661133 10.51016602 6.37661133 9.1875 6.3125 C8.30384766 6.28994141 7.42019531 6.26738281 6.50976562 6.24414062 C4.3391109 6.18547428 2.1693331 6.09579979 0 6 C-1.125 2.25 -1.125 2.25 0 0 Z " fill="#655BFE" transform="translate(42,80)"/>
<path d="M0 0 C2.95857409 -0.05379226 5.91617721 -0.09357093 8.875 -0.125 C9.71675781 -0.14175781 10.55851562 -0.15851562 11.42578125 -0.17578125 C12.23144531 -0.18222656 13.03710938 -0.18867187 13.8671875 -0.1953125 C14.98262939 -0.21102295 14.98262939 -0.21102295 16.12060547 -0.22705078 C18 0 18 0 20 2 C20.125 4.625 20.125 4.625 20 7 C19.01 7 18.02 7 17 7 C17 6.34 17 5.68 17 5 C11.39 5 5.78 5 0 5 C0 3.35 0 1.7 0 0 Z " fill="#34B0C5" transform="translate(98,49)"/>
<path d="M0 0 C4.29 0.33 8.58 0.66 13 1 C11 5 11 5 8.375 6.25 C7.199375 6.62125 7.199375 6.62125 6 7 C6 7.66 6 8.32 6 9 C5.01 9 4.02 9 3 9 C2.67 9.66 2.34 10.32 2 11 C0.68 11 -0.64 11 -2 11 C-2.17700355 6.39790775 -2.10814567 4.21629134 0 0 Z " fill="#6C72FE" transform="translate(104,113)"/>
<path d="M0 0 C1.37091797 0.0009668 1.37091797 0.0009668 2.76953125 0.00195312 C9.48435163 0.04685163 9.48435163 0.04685163 10.625 1.1875 C12.03827947 1.34370555 13.4585459 1.43806173 14.87890625 1.50390625 C15.73291016 1.54580078 16.58691406 1.58769531 17.46679688 1.63085938 C18.36462891 1.67017578 19.26246094 1.70949219 20.1875 1.75 C21.08919922 1.79318359 21.99089844 1.83636719 22.91992188 1.88085938 C25.15478485 1.98728142 27.38976308 2.08929988 29.625 2.1875 C29.625 2.5175 29.625 2.8475 29.625 3.1875 C16.58045355 3.3058055 3.63681059 3.15389442 -9.375 2.1875 C-9.375 4.8275 -9.375 7.4675 -9.375 10.1875 C-12.015 9.8575 -14.655 9.5275 -17.375 9.1875 C-17.375 8.8575 -17.375 8.5275 -17.375 8.1875 C-15.725 7.8575 -14.075 7.5275 -12.375 7.1875 C-12.045 5.8675 -11.715 4.5475 -11.375 3.1875 C-13.355 3.1875 -15.335 3.1875 -17.375 3.1875 C-17.375 2.8575 -17.375 2.5275 -17.375 2.1875 C-11.48560037 0.14637931 -6.2030285 -0.08528042 0 0 Z " fill="#7FDBE2" transform="translate(24.375,31.8125)"/>
<path d="M0 0 C4.82360189 -0.19294408 8.49646738 0.24252386 13 2 C10.55848442 5.66227337 9.20815035 7.59728322 5 9 C3.31461399 10.99665314 3.31461399 10.99665314 2 13 C0 11 0 11 -0.1953125 8.3984375 C-0.17210938 7.40070313 -0.14890625 6.40296875 -0.125 5.375 C-0.10695313 4.37210937 -0.08890625 3.36921875 -0.0703125 2.3359375 C-0.04710938 1.56507812 -0.02390625 0.79421875 0 0 Z " fill="#5934FF" transform="translate(102,86)"/>
<path d="M0 0 C1.66611905 -0.042721 3.33382885 -0.04063832 5 0 C6.79309961 1.79309961 6.29807043 4.32375978 6.375 6.75 C6.36158804 12.38302461 6.36158804 12.38302461 4.8828125 14.90625 C3.5 16.25 3.5 16.25 1 18 C0 17 0 17 -0.09765625 13.18359375 C-0.09098089 11.60153318 -0.07901875 10.01948841 -0.0625 8.4375 C-0.05798828 7.63119141 -0.05347656 6.82488281 -0.04882812 5.99414062 C-0.03700518 3.99606244 -0.01906914 1.99802217 0 0 Z " fill="#5C3EFF" transform="translate(35,62)"/>
<path d="M0 0 C14.19 0 28.38 0 43 0 C43.495 1.98 43.495 1.98 44 4 C43.01 4 42.02 4 41 4 C41 3.34 41 2.68 41 2 C27.47 2 13.94 2 0 2 C0 1.34 0 0.68 0 0 Z " fill="#33CFD6" transform="translate(54,45)"/>
<path d="M0 0 C0 5.61 0 11.22 0 17 C-1.32 17 -2.64 17 -4 17 C-4 14.69 -4 12.38 -4 10 C-6.97 10 -9.94 10 -13 10 C-12.67 9.34 -12.34 8.68 -12 8 C-10.02 8 -8.04 8 -6 8 C-6.33 7.01 -6.66 6.02 -7 5 C-2.25 0 -2.25 0 0 0 Z " fill="#665FFF" transform="translate(127,86)"/>
<path d="M0 0 C1.32 0 2.64 0 4 0 C4 6.6 4 13.2 4 20 C2.68 19.67 1.36 19.34 0 19 C0 12.73 0 6.46 0 0 Z " fill="#3E3E8B" transform="translate(115,63)"/>
<path d="M0 0 C4.875 0.875 4.875 0.875 6 2 C6.33 1.34 6.66 0.68 7 0 C8.32 0 9.64 0 11 0 C11 0.99 11 1.98 11 3 C11.7425 2.484375 12.485 1.96875 13.25 1.4375 C16 0 16 0 18.3125 0.3125 C18.869375 0.539375 19.42625 0.76625 20 1 C19.34 2.32 18.68 3.64 18 5 C12.06 5 6.12 5 0 5 C0 3.35 0 1.7 0 0 Z " fill="#36ADC6" transform="translate(33,97)"/>
<path d="M0 0 C8.58 0 17.16 0 26 0 C25.67 0.99 25.34 1.98 25 3 C17.08 3 9.16 3 1 3 C0.67 2.01 0.34 1.02 0 0 Z " fill="#4C4CA0" transform="translate(101,124)"/>
<path d="M0 0 C0.66 0 1.32 0 2 0 C2 0.66 2 1.32 2 2 C2.99 2 3.98 2 5 2 C5 1.34 5 0.68 5 0 C8.16115776 1.36983503 8.9927092 1.9890638 11 5 C9.35 6.32 7.7 7.64 6 9 C6 8.01 6 7.02 6 6 C5.2575 6.309375 4.515 6.61875 3.75 6.9375 C1 8 1 8 -3 9 C-2.01 6.03 -1.02 3.06 0 0 Z " fill="#47C9D8" transform="translate(47,91)"/>
<path d="M0 0 C1.67542976 0.28604898 3.34385343 0.61781233 5 1 C5.33 3.64 5.66 6.28 6 9 C5.21625 9.45375 4.4325 9.9075 3.625 10.375 C0.96301969 11.88428742 0.96301969 11.88428742 -1 14 C-1.02685938 11.85423363 -1.04633088 9.70837355 -1.0625 7.5625 C-1.07410156 6.36753906 -1.08570312 5.17257813 -1.09765625 3.94140625 C-1 1 -1 1 0 0 Z " fill="#33C6E0" transform="translate(106,33)"/>
<path d="M0 0 C0.33 0 0.66 0 1 0 C1 6.27 1 12.54 1 19 C0.67 19 0.34 19 0 19 C0 12.73 0 6.46 0 0 Z M-4 19 C-2.68 19.33 -1.36 19.66 0 20 C-0.350625 20.598125 -0.70125 21.19625 -1.0625 21.8125 C-2.33304698 24.10813214 -2.33304698 24.10813214 -1 27 C-0.93259135 28.56118428 -0.91485544 30.1250252 -0.9375 31.6875 C-0.94652344 32.49574219 -0.95554688 33.30398437 -0.96484375 34.13671875 C-0.97644531 34.75160156 -0.98804688 35.36648437 -1 36 C-1.99 36 -2.98 36 -4 36 C-4 30.39 -4 24.78 -4 19 Z " fill="#5B56FA" transform="translate(34,61)"/>
<path d="M0 0 C2.31 0 4.62 0 7 0 C7 1.65 7 3.3 7 5 C3.37 5 -0.26 5 -4 5 C-4 6.65 -4 8.3 -4 10 C-5.32 10 -6.64 10 -8 10 C-8 8.02 -8 6.04 -8 4 C-5.36 4 -2.72 4 0 4 C0 2.68 0 1.36 0 0 Z " fill="#3D418D" transform="translate(34,49)"/>
<path d="M0 0 C2.64 0 5.28 0 8 0 C8 2.97 8 5.94 8 9 C7.01 9 6.02 9 5 9 C5 9.66 5 10.32 5 11 C4.34 11 3.68 11 3 11 C3 9.02 3 7.04 3 5 C2.01 4.67 1.02 4.34 0 4 C0 2.68 0 1.36 0 0 Z " fill="#3EBBDB" transform="translate(26,59)"/>
<path d="M0 0 C1.24716797 0.00322266 2.49433594 0.00644531 3.77929688 0.00976562 C5.07287109 0.01814453 6.36644531 0.02652344 7.69921875 0.03515625 C9.66858398 0.04192383 9.66858398 0.04192383 11.67773438 0.04882812 C14.91410885 0.06059676 18.15039053 0.07703865 21.38671875 0.09765625 C21.05671875 0.75765625 20.72671875 1.41765625 20.38671875 2.09765625 C19.73074707 2.11747559 19.07477539 2.13729492 18.39892578 2.15771484 C15.43610806 2.25278132 12.47401343 2.36253377 9.51171875 2.47265625 C7.96291016 2.5190625 7.96291016 2.5190625 6.3828125 2.56640625 C4.90361328 2.62441406 4.90361328 2.62441406 3.39453125 2.68359375 C2.4833252 2.71501465 1.57211914 2.74643555 0.63330078 2.77880859 C-1.81259311 2.89648136 -1.81259311 2.89648136 -3.61328125 5.09765625 C-6.34197532 5.06478042 -8.90994305 4.53367854 -11.61328125 4.09765625 C-11.61328125 3.10765625 -11.61328125 2.11765625 -11.61328125 1.09765625 C-7.68039761 0.16677716 -4.03673962 -0.0184326 0 0 Z " fill="#D9D9E8" transform="translate(106.61328125,125.90234375)"/>
<path d="M0 0 C0.33 0 0.66 0 1 0 C1 5.28 1 10.56 1 16 C-4.61 16 -10.22 16 -16 16 C-16 15.34 -16 14.68 -16 14 C-15.32453125 14.01160156 -14.6490625 14.02320312 -13.953125 14.03515625 C-13.06109375 14.04417969 -12.1690625 14.05320312 -11.25 14.0625 C-10.36828125 14.07410156 -9.4865625 14.08570312 -8.578125 14.09765625 C-6.2181162 14.00826198 -4.25501476 13.66912821 -2 13 C-1.855625 11.783125 -1.71125 10.56625 -1.5625 9.3125 C-1.17219047 6.17329623 -0.67648144 3.0924866 0 0 Z " fill="#40DAD1" transform="translate(122,98)"/>
<path d="M0 0 C0.02689216 1.47906892 0.04634621 2.95827483 0.0625 4.4375 C0.07410156 5.26121094 0.08570313 6.08492188 0.09765625 6.93359375 C0 9 0 9 -1 10 C-3.33297433 10.04092937 -5.66705225 10.04241723 -8 10 C-8.33 9.34 -8.66 8.68 -9 8 C-8.01 8 -7.02 8 -6 8 C-6.33 7.01 -6.66 6.02 -7 5 C-2.25 0 -2.25 0 0 0 Z " fill="#37DDC4" transform="translate(60,95)"/>
<path d="M0 0 C1.32 0 2.64 0 4 0 C4 0.66 4 1.32 4 2 C5.65 2.33 7.3 2.66 9 3 C8.34 4.32 7.68 5.64 7 7 C6.34 6.34 5.68 5.68 5 5 C3.68 5 2.36 5 1 5 C0.01 6.485 0.01 6.485 -1 8 C-1.99 7.34 -2.98 6.68 -4 6 C-4 5.01 -4 4.02 -4 3 C-2.68 3 -1.36 3 0 3 C0 2.01 0 1.02 0 0 Z " fill="#E9F8FA" transform="translate(21,63)"/>
<path d="M0 0 C1.23556641 0.01740234 1.23556641 0.01740234 2.49609375 0.03515625 C3.32238281 0.04417969 4.14867187 0.05320312 5 0.0625 C5.63808594 0.07410156 6.27617188 0.08570312 6.93359375 0.09765625 C7.26359375 0.75765625 7.59359375 1.41765625 7.93359375 2.09765625 C6.61359375 2.09765625 5.29359375 2.09765625 3.93359375 2.09765625 C3.93359375 2.75765625 3.93359375 3.41765625 3.93359375 4.09765625 C3.29421875 4.38640625 2.65484375 4.67515625 1.99609375 4.97265625 C-0.21846704 5.92589076 -0.21846704 5.92589076 -1.06640625 8.09765625 C-1.72640625 8.09765625 -2.38640625 8.09765625 -3.06640625 8.09765625 C-3.10882348 5.7647085 -3.10733562 3.43063058 -3.06640625 1.09765625 C-2.06640625 0.09765625 -2.06640625 0.09765625 0 0 Z " fill="#4597EB" transform="translate(36.06640625,85.90234375)"/>
<path d="M0 0 C3.3 0 6.6 0 10 0 C8.60804085 2.7839183 6.84424221 2.97898997 4 4 C4.33 4.66 4.66 5.32 5 6 C4.67 6.66 4.34 7.32 4 8 C2.68 8.33 1.36 8.66 0 9 C0 6.03 0 3.06 0 0 Z " fill="#3DBBDD" transform="translate(105,54)"/>
<path d="M0 0 C3.3 0 6.6 0 10 0 C9.01 0.495 9.01 0.495 8 1 C8 2.32 8 3.64 8 5 C7.38125 5.28875 6.7625 5.5775 6.125 5.875 C3.86674235 6.93720042 3.86674235 6.93720042 2 9 C1.34 6.03 0.68 3.06 0 0 Z " fill="#70D5E3" transform="translate(110,33)"/>
<path d="M0 0 C3.0625 0.25 3.0625 0.25 6 1 C6.33 1.66 6.66 2.32 7 3 C4.8125 5.0625 4.8125 5.0625 2 7 C-0.8125 6.75 -0.8125 6.75 -3 6 C-2.42655063 3.13275314 -2.1385485 2.1385485 0 0 Z " fill="#42CEE6" transform="translate(112,99)"/>
<path d="M0 0 C1.98 0 3.96 0 6 0 C3.55848442 3.66227337 2.20815035 5.59728322 -2 7 C-3.68538601 8.99665314 -3.68538601 8.99665314 -5 11 C-5.33 9.68 -5.66 8.36 -6 7 C-5.34 7 -4.68 7 -4 7 C-4 5.68 -4 4.36 -4 3 C-3.01 2.67 -2.02 2.34 -1 2 C-0.67 1.34 -0.34 0.68 0 0 Z " fill="#5D41FF" transform="translate(109,88)"/>
<path d="M0 0 C6.27 0 12.54 0 19 0 C19.33 1.65 19.66 3.3 20 5 C20.66 5.66 21.32 6.32 22 7 C20.68 7 19.36 7 18 7 C18 6.34 18 5.68 18 5 C17.34 5 16.68 5 16 5 C15.67 4.34 15.34 3.68 15 3 C11.83754459 1.9458482 9.13051782 1.68724328 5.8125 1.4375 C4.72582031 1.35371094 3.63914062 1.26992188 2.51953125 1.18359375 C1.68808594 1.12300781 0.85664062 1.06242187 0 1 C0 0.67 0 0.34 0 0 Z " fill="#89DAE3" transform="translate(7,58)"/>
<path d="M0 0 C0.99 0 1.98 0 3 0 C3.36666667 5.5 3.36666667 5.5 1.625 7.875 C0 9 0 9 -2 9 C-2.33 9.66 -2.66 10.32 -3 11 C-3 10.34 -3 9.68 -3 9 C-3.66 9 -4.32 9 -5 9 C-5 8.01 -5 7.02 -5 6 C-3.68 6 -2.36 6 -1 6 C-1.33 4.68 -1.66 3.36 -2 2 C-1.34 2 -0.68 2 0 2 C0 1.34 0 0.68 0 0 Z " fill="#3ACCCC" transform="translate(31,68)"/>
<path d="M0 0 C0 2.31 0 4.62 0 7 C-3.25543229 6.65120368 -4.01873107 5.97866739 -6.25 3.4375 C-7.11625 2.2309375 -7.11625 2.2309375 -8 1 C-3.375 -1.125 -3.375 -1.125 0 0 Z " fill="#39C8D4" transform="translate(60,88)"/>
<path d="M0 0 C6.6 0 13.2 0 20 0 C20 0.66 20 1.32 20 2 C16.7 2 13.4 2 10 2 C10 2.66 10 3.32 10 4 C9.01 4 8.02 4 7 4 C7 3.34 7 2.68 7 2 C4.69 2 2.38 2 0 2 C0 1.34 0 0.68 0 0 Z " fill="#84D6E6" transform="translate(34,45)"/>
<path d="M0 0 C0 0.33 0 0.66 0 1 C-1.98 1 -3.96 1 -6 1 C-6 3.64 -6 6.28 -6 9 C-8.64 8.67 -11.28 8.34 -14 8 C-14 7.67 -14 7.34 -14 7 C-12.35 6.67 -10.7 6.34 -9 6 C-8.67 4.68 -8.34 3.36 -8 2 C-9.98 2 -11.96 2 -14 2 C-14 1.67 -14 1.34 -14 1 C-9.32798795 -0.20568053 -4.78503708 -0.09382426 0 0 Z " fill="#88D9E8" transform="translate(21,33)"/>
<path d="M0 0 C0.66 0.33 1.32 0.66 2 1 C2.125 7.75 2.125 7.75 1 10 C0.01 10 -0.98 10 -2 10 C-2 7.03 -2 4.06 -2 1 C-1.34 0.67 -0.68 0.34 0 0 Z " fill="#707FFE" transform="translate(125,102)"/>
<path d="M0 0 C0.99 0 1.98 0 3 0 C3.08121924 1.60332791 3.13929134 3.20784026 3.1875 4.8125 C3.23970703 6.15248047 3.23970703 6.15248047 3.29296875 7.51953125 C3 10 3 10 0 13 C0 8.71 0 4.42 0 0 Z " fill="#3B96D8" transform="translate(41,49)"/>
<path d="M0 0 C2.31 0 4.62 0 7 0 C7 1.65 7 3.3 7 5 C4.69 5 2.38 5 0 5 C0 3.35 0 1.7 0 0 Z " fill="#3C3E8A" transform="translate(98,49)"/>
<path d="M0 0 C4.62 0 9.24 0 14 0 C14.33 1.32 14.66 2.64 15 4 C14.01 4 13.02 4 12 4 C12 3.34 12 2.68 12 2 C8.04 2 4.08 2 0 2 C0 1.34 0 0.68 0 0 Z " fill="#57D9D4" transform="translate(83,45)"/>
<path d="M0 0 C1.07765625 0.10183594 2.1553125 0.20367187 3.265625 0.30859375 C4.08546875 0.39238281 4.9053125 0.47617188 5.75 0.5625 C5.75 1.2225 5.75 1.8825 5.75 2.5625 C0.47 2.5625 -4.81 2.5625 -10.25 2.5625 C-10.25 1.9025 -10.25 1.2425 -10.25 0.5625 C-6.70049966 -0.60056443 -3.69176052 -0.36115049 0 0 Z " fill="#99C0FE" transform="translate(68.25,118.4375)"/>
<path d="M0 0 C2.64 0.33 5.28 0.66 8 1 C8.33 1.99 8.66 2.98 9 4 C5.7 4 2.4 4 -1 4 C-0.67 2.68 -0.34 1.36 0 0 Z " fill="#32C8DE" transform="translate(14,59)"/>
<path d="M0 0 C0 2.97 0 5.94 0 9 C-1.32 9 -2.64 9 -4 9 C-4 6.36 -4 3.72 -4 1 C-2 0 -2 0 0 0 Z " fill="#6A6FFE" transform="translate(127,94)"/>
<path d="M0 0 C3.63 0 7.26 0 11 0 C11 0.99 11 1.98 11 3 C7.37 3 3.74 3 0 3 C0 2.01 0 1.02 0 0 Z " fill="#34D3D0" transform="translate(13,77)"/>
<path d="M0 0 C-5.28 0 -10.56 0 -16 0 C-16 -0.66 -16 -1.32 -16 -2 C-13.89807303 -2.24887295 -11.79326036 -2.4734719 -9.6875 -2.6875 C-7.92986328 -2.87892578 -7.92986328 -2.87892578 -6.13671875 -3.07421875 C-3 -3 -3 -3 0 0 Z " fill="#87DAE3" transform="translate(23,77)"/>
<path d="M0 0 C4.62 0 9.24 0 14 0 C14 0.99 14 1.98 14 3 C7.07 2.505 7.07 2.505 0 2 C0 1.34 0 0.68 0 0 Z " fill="#98DDE8" transform="translate(7,63)"/>
<path d="M0 0 C1.67542976 0.28604898 3.34385343 0.61781233 5 1 C4.67 2.32 4.34 3.64 4 5 C2.68 5.33 1.36 5.66 0 6 C-0.38218767 4.34385343 -0.71395102 2.67542976 -1 1 C-0.67 0.67 -0.34 0.34 0 0 Z " fill="#51D0DD" transform="translate(22,67)"/>
<path d="M0 0 C0.6875 1.8125 0.6875 1.8125 1 4 C-0.0625 5.75 -0.0625 5.75 -2 7 C-5.1875 7.1875 -5.1875 7.1875 -8 7 C-8 6.34 -8 5.68 -8 5 C-7.236875 4.731875 -6.47375 4.46375 -5.6875 4.1875 C-3.12619116 3.05575888 -1.80307062 2.08776599 0 0 Z " fill="#3CD8D6" transform="translate(119,104)"/>
<path d="M0 0 C0.556875 0.226875 1.11375 0.45375 1.6875 0.6875 C1.0275 2.0075 0.3675 3.3275 -0.3125 4.6875 C-2.9525 4.6875 -5.5925 4.6875 -8.3125 4.6875 C-6.63215242 1.32680485 -3.76400767 -0.50864968 0 0 Z " fill="#34C2C4" transform="translate(51.3125,97.3125)"/>
<path d="M0 0 C0.66 0 1.32 0 2 0 C2 1.65 2 3.3 2 5 C2.66 5 3.32 5 4 5 C3.34 6.32 2.68 7.64 2 9 C0.68 8.34 -0.64 7.68 -2 7 C-2 6.34 -2 5.68 -2 5 C-1.34 5 -0.68 5 0 5 C0 3.35 0 1.7 0 0 Z " fill="#EEFAFA" transform="translate(119,52)"/>
<path d="M0 0 C0.99 0 1.98 0 3 0 C3 0.66 3 1.32 3 2 C3.99 2 4.98 2 6 2 C6.33 1.34 6.66 0.68 7 0 C6.75 1.875 6.75 1.875 6 4 C4.0625 5.3125 4.0625 5.3125 2 6 C1.34 5.67 0.68 5.34 0 5 C0 3.35 0 1.7 0 0 Z " fill="#4CDBD2" transform="translate(121,52)"/>
<path d="M0 0 C2.97 0 5.94 0 9 0 C9.33 0.66 9.66 1.32 10 2 C5.545 2.495 5.545 2.495 1 3 C0.67 2.01 0.34 1.02 0 0 Z " fill="#4FD1D9" transform="translate(33,102)"/>
<path d="M0 0 C1.33333333 2.66666667 2.66666667 5.33333333 4 8 C2.35 8.33 0.7 8.66 -1 9 C-1.09765625 2.84765625 -1.09765625 2.84765625 -1 1 C-0.67 0.67 -0.34 0.34 0 0 Z " fill="#41CBE8" transform="translate(106,104)"/>
<path d="M0 0 C1.670625 0.061875 1.670625 0.061875 3.375 0.125 C2.715 1.775 2.055 3.425 1.375 5.125 C-0.935 4.135 -3.245 3.145 -5.625 2.125 C-3.625 0.125 -3.625 0.125 0 0 Z " fill="#43C8E8" transform="translate(119.625,95.875)"/>
<path d="M0 0 C1.98 0.99 1.98 0.99 4 2 C4 2.99 4 3.98 4 5 C2 6.6875 2 6.6875 0 8 C0.185625 7.236875 0.37125 6.47375 0.5625 5.6875 C1.22819173 2.91032625 1.22819173 2.91032625 0 0 Z " fill="#E0F5F7" transform="translate(53,92)"/>
<path d="M0 0 C-0.185625 0.5775 -0.37125 1.155 -0.5625 1.75 C-1.04023546 4.20692525 -0.75729364 5.64397534 0 8 C-1.65 6.35 -3.3 4.7 -5 3 C-2.25 0 -2.25 0 0 0 Z " fill="#DBF2F6" transform="translate(40,92)"/>
<path d="M0 0 C0.66 0 1.32 0 2 0 C1.01 2.97 0.02 5.94 -1 9 C-1.66 9 -2.32 9 -3 9 C-2.01 6.03 -1.02 3.06 0 0 Z " fill="#E6F6F9" transform="translate(47,91)"/>
<path d="M0 0 C0.33 0 0.66 0 1 0 C1 2.64 1 5.28 1 8 C0.01 8.33 -0.98 8.66 -2 9 C-2.25 3.375 -2.25 3.375 0 0 Z " fill="#409AE9" transform="translate(43,59)"/>
<path d="M0 0 C1.32 0 2.64 0 4 0 C4 1.98 4 3.96 4 6 C2.68 5.34 1.36 4.68 0 4 C0 2.68 0 1.36 0 0 Z " fill="#34AEC5" transform="translate(26,59)"/>
<path d="M0 0 C0.33 0.66 0.66 1.32 1 2 C1.99 2.33 2.98 2.66 4 3 C3 4 3 4 0.49609375 4.09765625 C-1.01791016 4.08025391 -1.01791016 4.08025391 -2.5625 4.0625 C-3.57441406 4.05347656 -4.58632812 4.04445313 -5.62890625 4.03515625 C-6.41136719 4.02355469 -7.19382812 4.01195312 -8 4 C-8 3.34 -8 2.68 -8 2 C-5.69 2 -3.38 2 -1 2 C-0.67 1.34 -0.34 0.68 0 0 Z " fill="#8FCDDF" transform="translate(106,45)"/>
<path d="M0 0 C0.66 0.66 1.32 1.32 2 2 C-0.36292656 4.52588702 -1.66462511 5.88820837 -5 7 C-5 6.01 -5 5.02 -5 4 C-4.34 4 -3.68 4 -3 4 C-2.67 3.01 -2.34 2.02 -2 1 C-1.34 0.67 -0.68 0.34 0 0 Z " fill="#4EADE9" transform="translate(38,90)"/>
<path d="M0 0 C1.32 0 2.64 0 4 0 C4.33 0.99 4.66 1.98 5 3 C4.34 3 3.68 3 3 3 C3 4.65 3 6.3 3 8 C2.01 8.33 1.02 8.66 0 9 C0 8.34 0 7.68 0 7 C0.66 7 1.32 7 2 7 C1.34 4.69 0.68 2.38 0 0 Z " fill="#6FD6DC" transform="translate(116,49)"/>
<path d="M0 0 C1.32 0.33 2.64 0.66 4 1 C4 1.99 4 2.98 4 4 C1.69 4 -0.62 4 -3 4 C-2.01 2.68 -1.02 1.36 0 0 Z " fill="#7A9CFE" transform="translate(123,120)"/>
<path d="M0 0 C2 1.3125 2 1.3125 4 3 C4 3.99 4 4.98 4 6 C2.68 6 1.36 6 0 6 C0 4.02 0 2.04 0 0 Z " fill="#34C3C4" transform="translate(115,57)"/>
</svg>
