<?xml version="1.0" encoding="UTF-8"?>
<svg version="1.1" xmlns="http://www.w3.org/2000/svg" width="150" height="150">
<path d="M0 0 C0.495 2.97 0.495 2.97 1 6 C6.7974423 6.24428343 6.7974423 6.24428343 12 4 C13.65 5.65 15.3 7.3 17 9 C15.5 12 15.5 12 14 15 C15.82337891 14.98259766 15.82337891 14.98259766 17.68359375 14.96484375 C19.26822764 14.95546722 20.85286318 14.94636687 22.4375 14.9375 C23.23994141 14.92912109 24.04238281 14.92074219 24.86914062 14.91210938 C26.91295221 14.9034857 28.95683902 14.9477185 31 15 C32 16 32 16 32.11352539 18.50024414 C32.10567017 20.12627563 32.10567017 20.12627563 32.09765625 21.78515625 C32.09282227 23.53989258 32.09282227 23.53989258 32.08789062 25.33007812 C32.07532227 27.17762695 32.07532227 27.17762695 32.0625 29.0625 C32.05798828 30.29806641 32.05347656 31.53363281 32.04882812 32.80664062 C32.03699608 35.87114117 32.02051173 38.93554721 32 42 C34.475 41.505 34.475 41.505 37 41 C38.0625 42.8125 38.0625 42.8125 39 45 C38.67 45.99 38.34 46.98 38 48 C39.37168238 50.19038423 39.37168238 50.19038423 41 52 C40.3125 53.9375 40.3125 53.9375 39 56 C36.375 56.75 36.375 56.75 34 57 C33.67 58.32 33.34 59.64 33 61 C31.35 61 29.7 61 28 61 C28 60.01 28 59.02 28 58 C24.535 58.495 24.535 58.495 21 59 C19.16308743 55.21812119 18.84162374 53.05431692 20 49 C19.34 49 18.68 49 18 49 C18 47.68 18 46.36 18 45 C17.34 45 16.68 45 16 45 C16 51.6 16 58.2 16 65 C18.31 65 20.62 65 23 65 C24 66 24 66 24.11352539 69.96899414 C24.1133662 71.74105607 24.10766785 73.5131226 24.09765625 75.28515625 C24.0962413 76.21597519 24.09482635 77.14679413 24.09336853 78.1058197 C24.08775172 81.09141191 24.0751964 84.07693029 24.0625 87.0625 C24.05748716 89.08137913 24.05292388 91.10025943 24.04882812 93.11914062 C24.03777683 98.07945572 24.02050095 103.03971532 24 108 C26.31 108.66 28.62 109.32 31 110 C30 112 30 112 28.34521484 112.61450195 C23.49200924 113.41225457 18.54404055 113.18590312 13.63769531 113.18530273 C11.63863013 113.18748512 9.63960468 113.20599143 7.640625 113.22460938 C6.36960937 113.22654297 5.09859375 113.22847656 3.7890625 113.23046875 C2.63100098 113.23457764 1.47293945 113.23868652 0.27978516 113.24291992 C-3.11310954 112.99162245 -5.83332989 112.21173908 -9 111 C-8.67 110.34 -8.34 109.68 -8 109 C-5.4375 108.375 -5.4375 108.375 -3 108 C-3.67857056 107.99191315 -4.35714111 107.98382629 -5.05627441 107.97549438 C-12.19572947 107.88863335 -19.33493245 107.7891071 -26.47412109 107.68261719 C-29.12938188 107.64363425 -31.7845665 107.60971702 -34.43994141 107.578125 C-72.93926359 107.11445232 -72.93926359 107.11445232 -80 103 C-79.505 102.01 -79.505 102.01 -79 101 C-77.68 101 -76.36 101 -75 101 C-75.495 100.01 -75.495 100.01 -76 99 C-79.02934491 98.34227572 -79.02934491 98.34227572 -82 98 C-82.33 98.99 -82.66 99.98 -83 101 C-85.4375 100.25 -85.4375 100.25 -88 99 C-89.46033772 95.85465721 -89.07767332 92.41762598 -89 89 C-90.65 89 -92.3 89 -94 89 C-94 86.36 -94 83.72 -94 81 C-92.35 81.33 -90.7 81.66 -89 82 C-88.99613281 81.07767578 -88.99613281 81.07767578 -88.9921875 80.13671875 C-88.87217945 77.62855042 -88.68225725 75.42008233 -88 73 C-84.9375 70.9375 -84.9375 70.9375 -82 70 C-81.34 70.99 -80.68 71.98 -80 73 C-79.01 73.33 -78.02 73.66 -77 74 C-77 70.04 -77 66.08 -77 62 C-81.29 62 -85.58 62 -90 62 C-90.02683436 58.68744674 -90.0467578 55.37510817 -90.0625 52.0625 C-90.07087891 51.11697266 -90.07925781 50.17144531 -90.08789062 49.19726562 C-90.09111328 48.29814453 -90.09433594 47.39902344 -90.09765625 46.47265625 C-90.10289307 45.64000244 -90.10812988 44.80734863 -90.11352539 43.94946289 C-90 42 -90 42 -89 41 C-86.98035801 40.92755947 -84.95832876 40.91622812 -82.9375 40.9375 C-81.28041016 40.95103516 -81.28041016 40.95103516 -79.58984375 40.96484375 C-78.73519531 40.97644531 -77.88054687 40.98804688 -77 41 C-77.061875 39.906875 -77.12375 38.81375 -77.1875 37.6875 C-77 34 -77 34 -75.875 32.28125 C-73.1629604 30.42802294 -71.05676436 30.70784631 -67.8125 30.8125 C-66.72582031 30.83957031 -65.63914062 30.86664063 -64.51953125 30.89453125 C-63.27236328 30.94673828 -63.27236328 30.94673828 -62 31 C-61.67 29.68 -61.34 28.36 -61 27 C-45.82 27 -30.64 27 -15 27 C-15.33 25.35 -15.66 23.7 -16 22 C-18.47636012 20.62533375 -18.47636012 20.62533375 -21 20 C-20.01 15.545 -20.01 15.545 -19 11 C-17.906875 11.0825 -16.81375 11.165 -15.6875 11.25 C-12.03566417 11.36773605 -12.03566417 11.36773605 -10 9.3125 C-8.7593966 6.44360465 -9.10057179 4.94358324 -10 2 C-3.375 0 -3.375 0 0 0 Z M-7 14 C-9.2084626 17.31269391 -9.80664241 19.14978851 -9.5546875 23.0625 C-8.4812192 26.81207941 -6.28696911 28.01541488 -3 30 C-0.36163023 30.1672392 -0.36163023 30.1672392 2 30 C2.03738281 29.01257813 2.07476562 28.02515625 2.11328125 27.0078125 C2.17902344 25.72648437 2.24476562 24.44515625 2.3125 23.125 C2.37050781 21.84882812 2.42851563 20.57265625 2.48828125 19.2578125 C2.65714844 18.18273437 2.82601562 17.10765625 3 16 C3.99 15.34 4.98 14.68 6 14 C4.01607489 11.60148679 4.01607489 11.60148679 0.1875 11.5625 C-3.17733329 11.66669338 -4.04370031 12.02913354 -7 14 Z M24 47 C23.6366844 49.83386167 23.6431329 51.40522151 25.125 53.875 C27.92151052 55.55290631 29.93690532 54.74875648 33 54 C33.67673447 50.59679066 33.67673447 50.59679066 34 47 C32.11499729 44.68436913 32.11499729 44.68436913 29 44.75 C25.88500271 44.68436913 25.88500271 44.68436913 24 47 Z M-83.25 80.625 C-85.21985834 82.92308586 -85.21985834 82.92308586 -85.5 86 C-85.21376982 89.06575838 -85.21376982 89.06575838 -83.3125 91.375 C-80.61209763 93.27258004 -79.22939919 93.35882213 -76 93 C-75.85024761 85.94348748 -75.85024761 85.94348748 -77 79 C-80.92212225 78.60967296 -80.92212225 78.60967296 -83.25 80.625 Z M-69 95 C-69 96.65 -69 98.3 -69 100 C-56.13 99.01 -56.13 99.01 -43 98 C-42.67 97.01 -42.34 96.02 -42 95 C-50.91 95 -59.82 95 -69 95 Z M-18 95 C-18 95.99 -18 96.98 -18 98 C-12.72 98.33 -7.44 98.66 -2 99 C-2 97.68 -2 96.36 -2 95 C-7.28 95 -12.56 95 -18 95 Z " fill="#7285FE" transform="translate(103,18)"/>
<path d="M0 0 C16.83 0 33.66 0 51 0 C51 3.3 51 6.6 51 10 C37.635 10.495 37.635 10.495 24 11 C33.57 11 43.14 11 53 11 C53.33 9.68 53.66 8.36 54 7 C56.31 7 58.62 7 61 7 C61 10.3 61 13.6 61 17 C59.35 17 57.7 17 56 17 C56.99 17.66 57.98 18.32 59 19 C58.34 20.65 57.68 22.3 57 24 C56.34 24 55.68 24 55 24 C54.67 24.66 54.34 25.32 54 26 C53.195625 26.309375 52.39125 26.61875 51.5625 26.9375 C48.70136041 27.84547289 48.70136041 27.84547289 47 31 C47 31.66 47 32.32 47 33 C46.34 33 45.68 33 45 33 C45 33.99 45 34.98 45 36 C42.5 38.6875 42.5 38.6875 40 41 C38.515 40.505 38.515 40.505 37 40 C35.515 40.495 35.515 40.495 34 41 C33.34 41 32.68 41 32 41 C31.67 41.99 31.34 42.98 31 44 C31 43.34 31 42.68 31 42 C30.34 42 29.68 42 29 42 C30.32 43.98 31.64 45.96 33 48 C32.01 48.495 32.01 48.495 31 49 C43.87 49.495 43.87 49.495 57 50 C57 51.65 57 53.3 57 55 C43.47 55 29.94 55 16 55 C15.67 55.99 15.34 56.98 15 58 C6.75 58 -1.5 58 -10 58 C-10.33 57.01 -10.66 56.02 -11 55 C-13.31 55 -15.62 55 -18 55 C-18 47.74 -18 40.48 -18 33 C-22.29 33 -26.58 33 -31 33 C-31.02683436 29.68744674 -31.0467578 26.37510817 -31.0625 23.0625 C-31.07087891 22.11697266 -31.07925781 21.17144531 -31.08789062 20.19726562 C-31.09111328 19.29814453 -31.09433594 18.39902344 -31.09765625 17.47265625 C-31.10289307 16.64000244 -31.10812988 15.80734863 -31.11352539 14.94946289 C-31 13 -31 13 -30 12 C-27.98035801 11.92755947 -25.95832876 11.91622812 -23.9375 11.9375 C-22.28041016 11.95103516 -22.28041016 11.95103516 -20.58984375 11.96484375 C-19.73519531 11.97644531 -18.88054688 11.98804688 -18 12 C-18.061875 10.906875 -18.12375 9.81375 -18.1875 8.6875 C-18 5 -18 5 -16.96875 3.28125 C-13.92872758 1.30282271 -10.80886916 1.68518123 -7.3125 1.8125 C-6.61060547 1.82603516 -5.90871094 1.83957031 -5.18554688 1.85351562 C-3.45670171 1.88879818 -1.72825235 1.94260417 0 2 C0 1.34 0 0.68 0 0 Z " fill="#6A73FD" transform="translate(44,47)"/>
<path d="M0 0 C3.63 0 7.26 0 11 0 C11.66 1.65 12.32 3.3 13 5 C26.86 5.495 26.86 5.495 41 6 C40.01 6.33 39.02 6.66 38 7 C37.67 7.66 37.34 8.32 37 9 C35.68 8.67 34.36 8.34 33 8 C33 9.32 33 10.64 33 12 C32.01 12.66 31.02 13.32 30 14 C29.814375 14.99 29.814375 14.99 29.625 16 C29.41875 16.66 29.2125 17.32 29 18 C28.195625 18.28875 27.39125 18.5775 26.5625 18.875 C23.66336372 19.79704705 23.66336372 19.79704705 22.6875 23.125 C22.460625 24.07375 22.23375 25.0225 22 26 C21.01 26 20.02 26 19 26 C19 26.66 19 27.32 19 28 C18.34 28 17.68 28 17 28 C18.6826607 30.03004872 19.60926796 30.91636963 22.2265625 31.4765625 C23.01804688 31.52554688 23.80953125 31.57453125 24.625 31.625 C28.91666667 31.91666667 28.91666667 31.91666667 30 33 C30.09986975 35.84335048 30.13877881 38.65697163 30.125 41.5 C30.13080078 42.69689453 30.13080078 42.69689453 30.13671875 43.91796875 C30.12660767 49.87339233 30.12660767 49.87339233 29 51 C27.14630389 51.08737645 25.28932459 51.10698153 23.43359375 51.09765625 C22.30888672 51.09443359 21.18417969 51.09121094 20.02539062 51.08789062 C18.84138672 51.07951172 17.65738281 51.07113281 16.4375 51.0625 C15.24962891 51.05798828 14.06175781 51.05347656 12.83789062 51.04882812 C9.89187774 51.03699675 6.94596319 51.02051287 4 51 C3.67 50.01 3.34 49.02 3 48 C0.69 48 -1.62 48 -4 48 C-4 40.74 -4 33.48 -4 26 C-8.29 26 -12.58 26 -17 26 C-17.02683436 22.68744674 -17.0467578 19.37510817 -17.0625 16.0625 C-17.07087891 15.11697266 -17.07925781 14.17144531 -17.08789062 13.19726562 C-17.09111328 12.29814453 -17.09433594 11.39902344 -17.09765625 10.47265625 C-17.10289307 9.64000244 -17.10812988 8.80734863 -17.11352539 7.94946289 C-17 6 -17 6 -16 5 C-13.30345146 4.92680379 -10.63308542 4.90757463 -7.9375 4.9375 C-7.17888672 4.94201172 -6.42027344 4.94652344 -5.63867188 4.95117188 C-3.75908129 4.9629932 -1.87953101 4.98092922 0 5 C0 3.35 0 1.7 0 0 Z " fill="#604EFE" transform="translate(30,54)"/>
<path d="M0 0 C0.495 2.97 0.495 2.97 1 6 C6.7974423 6.24428343 6.7974423 6.24428343 12 4 C13.65 5.65 15.3 7.3 17 9 C16 11 15 13 14 15 C15.82337891 14.98259766 15.82337891 14.98259766 17.68359375 14.96484375 C19.26822764 14.95546722 20.85286318 14.94636687 22.4375 14.9375 C23.23994141 14.92912109 24.04238281 14.92074219 24.86914062 14.91210938 C26.91295221 14.9034857 28.95683902 14.9477185 31 15 C32 16 32 16 32.11352539 18.50024414 C32.10567017 20.12627563 32.10567017 20.12627563 32.09765625 21.78515625 C32.09282227 23.53989258 32.09282227 23.53989258 32.08789062 25.33007812 C32.07532227 27.17762695 32.07532227 27.17762695 32.0625 29.0625 C32.05798828 30.29806641 32.05347656 31.53363281 32.04882812 32.80664062 C32.03699608 35.87114117 32.02051173 38.93554721 32 42 C33.65 41.67 35.3 41.34 37 41 C38.0625 42.8125 38.0625 42.8125 39 45 C38.67 45.99 38.34 46.98 38 48 C39.37168238 50.19038423 39.37168238 50.19038423 41 52 C40.3125 53.9375 40.3125 53.9375 39 56 C36.375 56.75 36.375 56.75 34 57 C33.67 58.32 33.34 59.64 33 61 C31.35 61 29.7 61 28 61 C28 60.01 28 59.02 28 58 C24.535 58.495 24.535 58.495 21 59 C19.16308743 55.21812119 18.84162374 53.05431692 20 49 C19.34 49 18.68 49 18 49 C18 47.68 18 46.36 18 45 C12.72 45 7.44 45 2 45 C2 42.03 2 39.06 2 36 C-0.31 36 -2.62 36 -5 36 C-5.33 37.65 -5.66 39.3 -6 41 C-15.57 41 -25.14 41 -35 41 C-35.33 40.34 -35.66 39.68 -36 39 C-26.76 39 -17.52 39 -8 39 C-8 35.7 -8 32.4 -8 29 C-24.83 29 -41.66 29 -59 29 C-59 29.66 -59 30.32 -59 31 C-59.99 31 -60.98 31 -62 31 C-61.67 29.68 -61.34 28.36 -61 27 C-45.82 27 -30.64 27 -15 27 C-15.33 25.35 -15.66 23.7 -16 22 C-18.47636012 20.62533375 -18.47636012 20.62533375 -21 20 C-20.34 17.03 -19.68 14.06 -19 11 C-17.906875 11.0825 -16.81375 11.165 -15.6875 11.25 C-12.03566417 11.36773605 -12.03566417 11.36773605 -10 9.3125 C-8.7593966 6.44360465 -9.10057179 4.94358324 -10 2 C-3.375 0 -3.375 0 0 0 Z M-7 14 C-9.2084626 17.31269391 -9.80664241 19.14978851 -9.5546875 23.0625 C-8.4812192 26.81207941 -6.28696911 28.01541488 -3 30 C-0.36163023 30.1672392 -0.36163023 30.1672392 2 30 C2.03738281 29.01257813 2.07476562 28.02515625 2.11328125 27.0078125 C2.17902344 25.72648437 2.24476562 24.44515625 2.3125 23.125 C2.37050781 21.84882812 2.42851563 20.57265625 2.48828125 19.2578125 C2.65714844 18.18273437 2.82601562 17.10765625 3 16 C3.99 15.34 4.98 14.68 6 14 C4.01607489 11.60148679 4.01607489 11.60148679 0.1875 11.5625 C-3.17733329 11.66669338 -4.04370031 12.02913354 -7 14 Z M24 47 C23.6366844 49.83386167 23.6431329 51.40522151 25.125 53.875 C27.92151052 55.55290631 29.93690532 54.74875648 33 54 C33.67673447 50.59679066 33.67673447 50.59679066 34 47 C32.11499729 44.68436913 32.11499729 44.68436913 29 44.75 C25.88500271 44.68436913 25.88500271 44.68436913 24 47 Z " fill="#35DDC4" transform="translate(103,18)"/>
<path d="M0 0 C0.433125 0.474375 0.86625 0.94875 1.3125 1.4375 C3.02309613 3.23686957 3.02309613 3.23686957 6 4 C6 5.65 6 7.3 6 9 C5.030625 9.28875 4.06125 9.5775 3.0625 9.875 C-0.10664203 10.64214682 -0.10664203 10.64214682 -1 13 C-1.40270732 17.1283652 -1.40270732 17.1283652 0.1875 20.8125 C2.42031739 22.27538036 4.37344067 22.64505955 7 23 C7 20.03 7 17.06 7 14 C8.98 14 10.96 14 13 14 C13.33 14.66 13.66 15.32 14 16 C22.25 16 30.5 16 39 16 C39.33 15.34 39.66 14.68 40 14 C53.53 14 67.06 14 81 14 C81 17.63 81 21.26 81 25 C75.72 25 70.44 25 65 25 C65 25.99 65 26.98 65 28 C65.56847656 27.98839844 66.13695313 27.97679688 66.72265625 27.96484375 C71.60670484 27.90776806 76.18503965 28.18043228 81 29 C81 31.64 81 34.28 81 37 C73.71409984 37.04682155 66.42823335 37.08211748 59.14221191 37.10362434 C55.75718789 37.11395864 52.37226851 37.12792229 48.98730469 37.15087891 C10.5625541 37.39227608 10.5625541 37.39227608 3 33 C3.33 32.34 3.66 31.68 4 31 C5.32 31 6.64 31 8 31 C7.67 30.34 7.34 29.68 7 29 C3.97065509 28.34227572 3.97065509 28.34227572 1 28 C0.67 28.99 0.34 29.98 0 31 C-2.4375 30.25 -2.4375 30.25 -5 29 C-6.46033772 25.85465721 -6.07767332 22.41762598 -6 19 C-7.65 19 -9.3 19 -11 19 C-11 16.36 -11 13.72 -11 11 C-8.525 11.495 -8.525 11.495 -6 12 C-5.98582031 11.38511719 -5.97164062 10.77023438 -5.95703125 10.13671875 C-5.81117256 7.66500527 -5.60506817 5.40322852 -5 3 C-2.4375 0.9375 -2.4375 0.9375 0 0 Z M14 25 C14 26.65 14 28.3 14 30 C26.87 29.01 26.87 29.01 40 28 C40.33 27.01 40.66 26.02 41 25 C32.09 25 23.18 25 14 25 Z " fill="#B4D1FE" transform="translate(20,88)"/>
<path d="M0 0 C0.33 0 0.66 0 1 0 C1 2.97 1 5.94 1 9 C1.99 9 2.98 9 4 9 C4.144375 8.030625 4.28875 7.06125 4.4375 6.0625 C5 3 5 3 6 2 C7.51928038 1.92820036 9.04167482 1.91607993 10.5625 1.9375 C11.38878906 1.94652344 12.21507813 1.95554687 13.06640625 1.96484375 C13.70449219 1.97644531 14.34257813 1.98804687 15 2 C10.375 6.875 10.375 6.875 7 8 C6.67 8.66 6.34 9.32 6 10 C11.28 10 16.56 10 22 10 C22.33 11.98 22.66 13.96 23 16 C23.99 16.33 24.98 16.66 26 17 C26 24.59 26 32.18 26 40 C28.31 40.66 30.62 41.32 33 42 C32 44 32 44 30.34521484 44.61450195 C25.49200924 45.41225457 20.54404055 45.18590312 15.63769531 45.18530273 C13.63863013 45.18748512 11.63960468 45.20599143 9.640625 45.22460938 C8.36960937 45.22654297 7.09859375 45.22847656 5.7890625 45.23046875 C4.63100098 45.23457764 3.47293945 45.23868652 2.27978516 45.24291992 C-1.11310954 44.99162245 -3.83332989 44.21173908 -7 43 C-6 41 -6 41 0 39 C0 26.13 0 13.26 0 0 Z " fill="#5E4CF1" transform="translate(101,86)"/>
<path d="M0 0 C0.433125 0.474375 0.86625 0.94875 1.3125 1.4375 C3.02309613 3.23686957 3.02309613 3.23686957 6 4 C6 5.65 6 7.3 6 9 C5.030625 9.28875 4.06125 9.5775 3.0625 9.875 C-0.10664203 10.64214682 -0.10664203 10.64214682 -1 13 C-1.43986452 17.03518598 -1.43986452 17.03518598 0.13671875 20.6015625 C3.39651569 23.0481187 7.35127079 23.30042673 11.28515625 24.05859375 C14 25 14 25 16 29 C23.92 28.67 31.84 28.34 40 28 C39.67 28.66 39.34 29.32 39 30 C36.35139573 30.59355614 33.70802678 30.74209269 31 31 C31 31.66 31 32.32 31 33 C45.19 33 59.38 33 74 33 C73.67 32.34 73.34 31.68 73 31 C71.845 30.835 70.69 30.67 69.5 30.5 C68.345 30.335 67.19 30.17 66 30 C65.505 29.01 65.505 29.01 65 28 C70.45769811 27.88861841 75.61509359 28.08342019 81 29 C81 31.64 81 34.28 81 37 C73.71409984 37.04682155 66.42823335 37.08211748 59.14221191 37.10362434 C55.75718789 37.11395864 52.37226851 37.12792229 48.98730469 37.15087891 C10.5625541 37.39227608 10.5625541 37.39227608 3 33 C3.33 32.34 3.66 31.68 4 31 C5.32 31 6.64 31 8 31 C7.67 30.34 7.34 29.68 7 29 C3.97065509 28.34227572 3.97065509 28.34227572 1 28 C0.67 28.99 0.34 29.98 0 31 C-2.4375 30.25 -2.4375 30.25 -5 29 C-6.46033772 25.85465721 -6.07767332 22.41762598 -6 19 C-7.65 19 -9.3 19 -11 19 C-11 16.36 -11 13.72 -11 11 C-8.525 11.495 -8.525 11.495 -6 12 C-5.98582031 11.38511719 -5.97164062 10.77023438 -5.95703125 10.13671875 C-5.81117256 7.66500527 -5.60506817 5.40322852 -5 3 C-2.4375 0.9375 -2.4375 0.9375 0 0 Z " fill="#EAEBF2" transform="translate(20,88)"/>
<path d="M0 0 C16.83 0 33.66 0 51 0 C51 3.3 51 6.6 51 10 C37.635 10.495 37.635 10.495 24 11 C24 11.33 24 11.66 24 12 C15.42 12 6.84 12 -2 12 C-2.33 10.35 -2.66 8.7 -3 7 C-6.63 7 -10.26 7 -14 7 C-14 8.65 -14 10.3 -14 12 C-15.32 12 -16.64 12 -18 12 C-18.36206897 5.60344828 -18.36206897 5.60344828 -16.96875 3.28125 C-13.92872758 1.30282271 -10.80886916 1.68518123 -7.3125 1.8125 C-6.61060547 1.82603516 -5.90871094 1.83957031 -5.18554688 1.85351562 C-3.45670171 1.88879818 -1.72825235 1.94260417 0 2 C0 1.34 0 0.68 0 0 Z " fill="#3D3D89" transform="translate(44,47)"/>
<path d="M0 0 C1.12019531 -0.00128906 2.24039063 -0.00257812 3.39453125 -0.00390625 C4.57402344 -0.00003906 5.75351562 0.00382812 6.96875 0.0078125 C8.73798828 0.00201172 8.73798828 0.00201172 10.54296875 -0.00390625 C12.22326172 -0.00197266 12.22326172 -0.00197266 13.9375 0 C14.97326172 0.00112793 16.00902344 0.00225586 17.07617188 0.00341797 C19.46875 0.1328125 19.46875 0.1328125 20.46875 1.1328125 C20.56861975 3.97616298 20.60752881 6.78978413 20.59375 9.6328125 C20.59955078 10.82970703 20.59955078 10.82970703 20.60546875 12.05078125 C20.59535767 18.00620483 20.59535767 18.00620483 19.46875 19.1328125 C17.62715977 19.23240871 15.78178033 19.26361661 13.9375 19.265625 C12.81730469 19.26691406 11.69710937 19.26820312 10.54296875 19.26953125 C9.36347656 19.26566406 8.18398438 19.26179688 6.96875 19.2578125 C5.19951172 19.26361328 5.19951172 19.26361328 3.39453125 19.26953125 C1.71423828 19.26759766 1.71423828 19.26759766 0 19.265625 C-1.03576172 19.26449707 -2.07152344 19.26336914 -3.13867188 19.26220703 C-5.53125 19.1328125 -5.53125 19.1328125 -6.53125 18.1328125 C-6.63111975 15.28946202 -6.67002881 12.47584087 -6.65625 9.6328125 C-6.66011719 8.83488281 -6.66398437 8.03695312 -6.66796875 7.21484375 C-6.65573175 0.007248 -6.65573175 0.007248 0 0 Z " fill="#36DBC4" transform="translate(39.53125,85.8671875)"/>
<path d="M0 0 C3.1026268 0.94978372 5.38256244 2.12673138 8.0625 3.9375 C9.0525 4.5975 10.0425 5.2575 11.0625 5.9375 C11.25 9.0625 11.25 9.0625 11.0625 11.9375 C10.0725 12.2675 9.0825 12.5975 8.0625 12.9375 C7.38991333 15.26913378 6.72402556 17.6027039 6.0625 19.9375 C3.9375 22.875 3.9375 22.875 2.0625 24.9375 C4.3725 24.9375 6.6825 24.9375 9.0625 24.9375 C8.753125 26.608125 8.753125 26.608125 8.4375 28.3125 C8.31375 29.50875 8.19 30.705 8.0625 31.9375 C9.96005144 34.28723818 9.96005144 34.28723818 13.1875 34.0625 C14.13625 34.02125 15.085 33.98 16.0625 33.9375 C16.35812367 28.61579506 16.35812367 28.61579506 14.0625 23.9375 C14.3925 23.2775 14.7225 22.6175 15.0625 21.9375 C17.625 21.3125 17.625 21.3125 20.0625 20.9375 C21.125 22.75 21.125 22.75 22.0625 24.9375 C21.5675 26.4225 21.5675 26.4225 21.0625 27.9375 C22.43418238 30.12788423 22.43418238 30.12788423 24.0625 31.9375 C23.375 33.875 23.375 33.875 22.0625 35.9375 C19.4375 36.6875 19.4375 36.6875 17.0625 36.9375 C16.7325 38.2575 16.4025 39.5775 16.0625 40.9375 C14.4125 40.9375 12.7625 40.9375 11.0625 40.9375 C11.0625 39.9475 11.0625 38.9575 11.0625 37.9375 C7.5975 38.4325 7.5975 38.4325 4.0625 38.9375 C2.22558743 35.15562119 1.90412374 32.99181692 3.0625 28.9375 C2.4025 28.9375 1.7425 28.9375 1.0625 28.9375 C1.0625 27.2875 1.0625 25.6375 1.0625 23.9375 C0.4025 23.9375 -0.2575 23.9375 -0.9375 23.9375 C-2.5625 21.4375 -2.5625 21.4375 -3.9375 18.9375 C-3.2775 18.9375 -2.6175 18.9375 -1.9375 18.9375 C-2.2675 16.6275 -2.5975 14.3175 -2.9375 11.9375 C-9.2075 11.6075 -15.4775 11.2775 -21.9375 10.9375 C-21.9375 10.2775 -21.9375 9.6175 -21.9375 8.9375 C-18.9675 8.9375 -15.9975 8.9375 -12.9375 8.9375 C-12.2775 7.6175 -11.6175 6.2975 -10.9375 4.9375 C-9.60953709 4.58337656 -8.27533393 4.25228446 -6.9375 3.9375 C-6.31875 3.23625 -5.7 2.535 -5.0625 1.8125 C-2.9375 -0.0625 -2.9375 -0.0625 0 0 Z " fill="#38D6CE" transform="translate(119.9375,38.0625)"/>
<path d="M0 0 C0.74958984 0.00451172 1.49917969 0.00902344 2.27148438 0.01367188 C4.11852383 0.02543646 5.96552213 0.04337135 7.8125 0.0625 C7.8125 0.7225 7.8125 1.3825 7.8125 2.0625 C7.1525 2.0625 6.4925 2.0625 5.8125 2.0625 C6.3075 5.0325 6.3075 5.0325 6.8125 8.0625 C6.1525 8.3925 5.4925 8.7225 4.8125 9.0625 C4.3175 8.0725 4.3175 8.0725 3.8125 7.0625 C3.1525 8.3825 2.4925 9.7025 1.8125 11.0625 C0.4925 10.7325 -0.8275 10.4025 -2.1875 10.0625 C-2.5175 10.7225 -2.8475 11.3825 -3.1875 12.0625 C-3.85416667 13.39583333 -4.52083333 14.72916667 -5.1875 16.0625 C-6.1775 16.0625 -7.1675 16.0625 -8.1875 16.0625 C-8.8475 16.3925 -9.5075 16.7225 -10.1875 17.0625 C-10.84305119 19.58983235 -10.84305119 19.58983235 -11.1875 22.0625 C-12.1775 22.3925 -13.1675 22.7225 -14.1875 23.0625 C-14.620625 23.57296875 -15.05375 24.0834375 -15.5 24.609375 C-17.9910574 26.7544522 -19.9603109 26.39159777 -23.1875 26.3125 C-24.239375 26.29703125 -25.29125 26.2815625 -26.375 26.265625 C-29.1875 26.0625 -29.1875 26.0625 -32.1875 25.0625 C-32.1875 24.0725 -32.1875 23.0825 -32.1875 22.0625 C-31.5275 22.0625 -30.8675 22.0625 -30.1875 22.0625 C-30.1875 21.4025 -30.1875 20.7425 -30.1875 20.0625 C-29.1975 19.4025 -28.2075 18.7425 -27.1875 18.0625 C-26.89875 17.216875 -26.61 16.37125 -26.3125 15.5 C-25.94125 14.695625 -25.57 13.89125 -25.1875 13.0625 C-22.5625 12.25 -22.5625 12.25 -20.1875 12.0625 C-20.084375 11.340625 -19.98125 10.61875 -19.875 9.875 C-19.10045923 6.70642411 -18.19232532 4.64013256 -16.1875 2.0625 C-13.6875 1.3125 -13.6875 1.3125 -11.1875 1.0625 C-7.42449626 -0.19183458 -3.91539091 -0.04445422 0 0 Z " fill="#655DFE" transform="translate(79.1875,59.9375)"/>
<path d="M0 0 C0.83265381 0.00523682 1.66530762 0.01047363 2.52319336 0.01586914 C3.33280518 0.0183667 4.14241699 0.02086426 4.9765625 0.0234375 C6.01159912 0.0325415 7.04663574 0.04164551 8.11303711 0.05102539 C11.39241211 0.07165039 14.67178711 0.09227539 18.05053711 0.11352539 C18.05053711 7.04352539 18.05053711 13.97352539 18.05053711 21.11352539 C11.12053711 21.11352539 4.19053711 21.11352539 -2.94946289 21.11352539 C-2.97008789 17.83415039 -2.99071289 14.55477539 -3.01196289 11.17602539 C-3.02106689 10.14098877 -3.0301709 9.10595215 -3.03955078 8.03955078 C-3.04329712 6.82513306 -3.04329712 6.82513306 -3.04711914 5.58618164 C-3.05235596 4.75352783 -3.05759277 3.92087402 -3.06298828 3.06298828 C-2.90876673 0.41468917 -2.64829911 0.15422155 0 0 Z " fill="#33D4CF" transform="translate(15.949462890625,58.886474609375)"/>
<path d="M0 0 C0.495 1.98 0.495 1.98 1 4 C1.85549438 3.99214478 1.85549438 3.99214478 2.72827148 3.98413086 C5.29800323 3.96341779 7.86771747 3.9503581 10.4375 3.9375 C11.78424805 3.92493164 11.78424805 3.92493164 13.15820312 3.91210938 C14.01220703 3.90888672 14.86621094 3.90566406 15.74609375 3.90234375 C16.53685303 3.89710693 17.3276123 3.89187012 18.14233398 3.88647461 C20 4 20 4 21 5 C21.04241723 7.33294775 21.04092937 9.66702567 21 12 C20.89459074 14.21081851 20.89459074 14.21081851 22 17 C22.66 17.33 23.32 17.66 24 18 C18.72 18 13.44 18 8 18 C8 15.03 8 12.06 8 9 C5.69 9 3.38 9 1 9 C0.67 10.65 0.34 12.3 0 14 C-9.57 14 -19.14 14 -29 14 C-29.33 13.34 -29.66 12.68 -30 12 C-20.76 12 -11.52 12 -2 12 C-2 8.7 -2 5.4 -2 2 C-18.83 2 -35.66 2 -53 2 C-53 2.66 -53 3.32 -53 4 C-53.99 4 -54.98 4 -56 4 C-55.67 2.68 -55.34 1.36 -55 0 C-48.61388719 -0.16930751 -42.22758401 -0.32898578 -35.84106445 -0.48217773 C-33.6714135 -0.53533249 -31.50181408 -0.59063852 -29.33227539 -0.64819336 C-26.2020987 -0.73085015 -23.07181427 -0.80560143 -19.94140625 -0.87890625 C-18.98166397 -0.90594131 -18.02192169 -0.93297638 -17.03309631 -0.96083069 C-11.24879531 -1.08714399 -5.73684696 -0.76302891 0 0 Z " fill="#3AC7D2" transform="translate(97,45)"/>
<path d="M0 0 C1.98 0 3.96 0 6 0 C6.33 0.66 6.66 1.32 7 2 C15.25 2 23.5 2 32 2 C32.33 1.34 32.66 0.68 33 0 C35.64 0 38.28 0 41 0 C40.34 0.33 39.68 0.66 39 1 C38.67 1.66 38.34 2.32 38 3 C39.32 3.66 40.64 4.32 42 5 C41.34 5.33 40.68 5.66 40 6 C40.495 8.475 40.495 8.475 41 11 C40.01 11 39.02 11 38 11 C36.89163577 12.88316159 36.89163577 12.88316159 36 15 C36.495 15.99 36.495 15.99 37 17 C35.02 17 33.04 17 31 17 C31 17.66 31 18.32 31 19 C28.69 19 26.38 19 24 19 C24 18.34 24 17.68 24 17 C24.56589844 16.89042969 25.13179687 16.78085938 25.71484375 16.66796875 C26.81505859 16.43013672 26.81505859 16.43013672 27.9375 16.1875 C28.66839844 16.03667969 29.39929688 15.88585937 30.15234375 15.73046875 C31.06693359 15.36888672 31.06693359 15.36888672 32 15 C32.33 14.01 32.66 13.02 33 12 C32.03586182 11.97494385 31.07172363 11.9498877 30.07836914 11.92407227 C26.51312158 11.83014694 22.94807567 11.72989061 19.38305664 11.62768555 C17.83785711 11.58428015 16.29260786 11.54260929 14.74731445 11.50268555 C12.53060904 11.44511801 10.3141552 11.38138576 8.09765625 11.31640625 C7.4028566 11.29969376 6.70805695 11.28298126 5.99220276 11.26576233 C1.11387171 11.11387171 1.11387171 11.11387171 0 10 C-0.07205511 8.31391034 -0.08386068 6.62499341 -0.0625 4.9375 C-0.05347656 4.01839844 -0.04445313 3.09929687 -0.03515625 2.15234375 C-0.02355469 1.44207031 -0.01195313 0.73179688 0 0 Z " fill="#BBD5FE" transform="translate(27,102)"/>
<path d="M0 0 C1.32 0 2.64 0 4 0 C4 6.6 4 13.2 4 20 C6.31 20 8.62 20 11 20 C12 21 12 21 12.11352539 22.85766602 C12.10828857 23.64842529 12.10305176 24.43918457 12.09765625 25.25390625 C12.09443359 26.10791016 12.09121094 26.96191406 12.08789062 27.84179688 C12.07951172 28.73962891 12.07113281 29.63746094 12.0625 30.5625 C12.05798828 31.46419922 12.05347656 32.36589844 12.04882812 33.29492188 C12.03700225 35.53001314 12.0205222 37.76497437 12 40 C10.68 39.67 9.36 39.34 8 39 C8 37.02 8 35.04 8 33 C2.72 33 -2.56 33 -8 33 C-5.75 28.5 -5.75 28.5 -2 27 C-2 26.67 -2 26.34 -2 26 C-3.98 26 -5.96 26 -8 26 C-8.66 27.98 -9.32 29.96 -10 32 C-10.99 32 -11.98 32 -13 32 C-13.19477739 30.37585622 -13.38059458 28.75063577 -13.5625 27.125 C-13.66691406 26.22007813 -13.77132812 25.31515625 -13.87890625 24.3828125 C-14 22 -14 22 -13 20 C-8.71 20 -4.42 20 0 20 C0 13.4 0 6.8 0 0 Z " fill="#6051FC" transform="translate(115,63)"/>
<path d="M0 0 C0.33 1.98 0.66 3.96 1 6 C6.7974423 6.24428343 6.7974423 6.24428343 12 4 C14.475 6.475 14.475 6.475 17 9 C16 11 15 13 14 15 C7.9453125 15.1953125 7.9453125 15.1953125 6 15 C5.34 14.34 4.68 13.68 4 13 C-1.54235245 12.42765564 -1.54235245 12.42765564 -6.5 14.5 C-8.71177972 18.18629954 -8.34421275 20.73176192 -8 25 C-7.67 25.66 -7.34 26.32 -7 27 C-9.31 27 -11.62 27 -14 27 C-14.226875 26.21625 -14.45375 25.4325 -14.6875 24.625 C-15.78125 21.78125 -15.78125 21.78125 -18.625 20.6875 C-19.40875 20.460625 -20.1925 20.23375 -21 20 C-20.34 17.03 -19.68 14.06 -19 11 C-17.906875 11.0825 -16.81375 11.165 -15.6875 11.25 C-12.03566417 11.36773605 -12.03566417 11.36773605 -10 9.3125 C-8.7593966 6.44360465 -9.10057179 4.94358324 -10 2 C-3.375 0 -3.375 0 0 0 Z " fill="#E9EAF1" transform="translate(103,18)"/>
<path d="M0 0 C1.58206057 0.00667536 3.16410534 0.0186375 4.74609375 0.03515625 C5.55240234 0.03966797 6.35871094 0.04417969 7.18945312 0.04882812 C9.18753131 0.06065107 11.18557158 0.07858711 13.18359375 0.09765625 C13.21043687 2.91021906 13.23035563 5.72252866 13.24609375 8.53515625 C13.25447266 9.33759766 13.26285156 10.14003906 13.27148438 10.96679688 C13.28010805 13.01060846 13.23587525 15.05449527 13.18359375 17.09765625 C11.36243372 18.91881628 8.87687611 18.23000705 6.45703125 18.234375 C5.70679687 18.23050781 4.9565625 18.22664063 4.18359375 18.22265625 C3.05824219 18.22845703 3.05824219 18.22845703 1.91015625 18.234375 C-3.68979572 18.22426678 -3.68979572 18.22426678 -4.81640625 17.09765625 C-4.91621839 14.42034245 -4.955205 11.7746145 -4.94140625 9.09765625 C-4.94527344 8.34742187 -4.94914062 7.5971875 -4.953125 6.82421875 C-4.94103514 0.12643386 -4.94103514 0.12643386 0 0 Z " fill="#40C2EE" transform="translate(109.81640625,95.90234375)"/>
<path d="M0 0 C1.32 0.33 2.64 0.66 4 1 C4 7.93 4 14.86 4 22 C-4.25 22 -12.5 22 -21 22 C-21.26785714 8.60714286 -21.26785714 8.60714286 -19 5 C-18.67 5 -18.34 5 -18 5 C-17.67 6.98 -17.34 8.96 -17 11 C-11.72 11 -6.44 11 -1 11 C-0.67 7.37 -0.34 3.74 0 0 Z " fill="#7287FE" transform="translate(123,102)"/>
<path d="M0 0 C0.33 0 0.66 0 1 0 C1.33 5.28 1.66 10.56 2 16 C2.66 15.67 3.32 15.34 4 15 C4.99 14.67 5.98 14.34 7 14 C7.33 13.34 7.66 12.68 8 12 C8.99 12.33 9.98 12.66 11 13 C11.625 15.875 11.625 15.875 12 19 C11.34 19.66 10.68 20.32 10 21 C10.33 22.32 10.66 23.64 11 25 C7.37 25.33 3.74 25.66 0 26 C-0.33 30.95 -0.66 35.9 -1 41 C-3.31 41 -5.62 41 -8 41 C-8 33.74 -8 26.48 -8 19 C-5.36 19 -2.72 19 0 19 C0 12.73 0 6.46 0 0 Z " fill="#5E51FD" transform="translate(34,61)"/>
<path d="M0 0 C3.63 0 7.26 0 11 0 C11.66 1.65 12.32 3.3 13 5 C16.96 5.33 20.92 5.66 25 6 C23 9 23 9 21 9.75 C19 10 19 10 17 9 C16.773125 9.94875 16.54625 10.8975 16.3125 11.875 C15 15 15 15 12.375 16.375 C11.59125 16.58125 10.8075 16.7875 10 17 C10.99 17.33 11.98 17.66 13 18 C12 20 12 20 9 22 C8.67 22.66 8.34 23.32 8 24 C7.01 24 6.02 24 5 24 C4.67 17.73 4.34 11.46 4 5 C2.68 5 1.36 5 0 5 C0 3.35 0 1.7 0 0 Z " fill="#5B3AFE" transform="translate(30,54)"/>
<path d="M0 0 C0.70189453 0.01353516 1.40378906 0.02707031 2.12695312 0.04101562 C3.85579829 0.07629818 5.58424765 0.13010417 7.3125 0.1875 C7.3125 2.4975 7.3125 4.8075 7.3125 7.1875 C24.1425 7.1875 40.9725 7.1875 58.3125 7.1875 C58.3125 7.5175 58.3125 7.8475 58.3125 8.1875 C44.9475 8.6825 44.9475 8.6825 31.3125 9.1875 C31.3125 9.5175 31.3125 9.8475 31.3125 10.1875 C22.7325 10.1875 14.1525 10.1875 5.3125 10.1875 C4.9825 8.5375 4.6525 6.8875 4.3125 5.1875 C0.6825 5.1875 -2.9475 5.1875 -6.6875 5.1875 C-6.6875 6.8375 -6.6875 8.4875 -6.6875 10.1875 C-8.0075 10.1875 -9.3275 10.1875 -10.6875 10.1875 C-11.04956897 3.79094828 -11.04956897 3.79094828 -9.65625 1.46875 C-6.61622758 -0.50967729 -3.49636916 -0.12731877 0 0 Z " fill="#3C8FCB" transform="translate(36.6875,48.8125)"/>
<path d="M0 0 C0.09873816 1.99799572 0.12971799 3.99957158 0.125 6 C0.12886719 7.6396875 0.12886719 7.6396875 0.1328125 9.3125 C0 12 0 12 -1 13 C-3.14558827 13.08775605 -5.29404421 13.10695219 -7.44140625 13.09765625 C-8.74658203 13.09443359 -10.05175781 13.09121094 -11.39648438 13.08789062 C-12.7851569 13.07953401 -14.17382877 13.07106905 -15.5625 13.0625 C-16.95507656 13.05748666 -18.34765481 13.05292347 -19.74023438 13.04882812 C-23.1601987 13.03699434 -26.58007844 13.0205088 -30 13 C-30.33 12.34 -30.66 11.68 -31 11 C-21.76 11 -12.52 11 -3 11 C-3 7.7 -3 4.4 -3 1 C-19.83 1 -36.66 1 -54 1 C-54 1.66 -54 2.32 -54 3 C-54.99 3 -55.98 3 -57 3 C-56.67 1.68 -56.34 0.36 -56 -1 C-49.61388719 -1.16930751 -43.22758401 -1.32898578 -36.84106445 -1.48217773 C-34.6714135 -1.53533249 -32.50181408 -1.59063852 -30.33227539 -1.64819336 C-27.2020987 -1.73085015 -24.07181427 -1.80560143 -20.94140625 -1.87890625 C-19.98166397 -1.90594131 -19.02192169 -1.93297638 -18.03309631 -1.96083069 C-2.30430445 -2.30430445 -2.30430445 -2.30430445 0 0 Z " fill="#36CAD3" transform="translate(98,46)"/>
<path d="M0 0 C0.83265381 0.00523682 1.66530762 0.01047363 2.52319336 0.01586914 C3.42231445 0.0190918 4.32143555 0.02231445 5.24780273 0.02563477 C6.66609375 0.03820312 6.66609375 0.03820312 8.11303711 0.05102539 C9.06243164 0.05553711 10.01182617 0.06004883 10.98999023 0.06469727 C13.34356776 0.07652429 15.69702188 0.09300514 18.05053711 0.11352539 C18.07742927 1.59259431 18.09688332 3.07180022 18.11303711 4.55102539 C18.12463867 5.37473633 18.13624023 6.19844727 18.14819336 7.04711914 C18.05053711 9.11352539 18.05053711 9.11352539 17.05053711 10.11352539 C15.64704976 10.2121267 14.23873234 10.24431476 12.83178711 10.24633789 C11.55754883 10.24827148 11.55754883 10.24827148 10.25756836 10.25024414 C8.91758789 10.24444336 8.91758789 10.24444336 7.55053711 10.23852539 C6.6572168 10.24239258 5.76389648 10.24625977 4.84350586 10.25024414 C3.99401367 10.24895508 3.14452148 10.24766602 2.26928711 10.24633789 C1.48489258 10.24520996 0.70049805 10.24408203 -0.10766602 10.24291992 C-1.94946289 10.11352539 -1.94946289 10.11352539 -2.94946289 9.11352539 C-3.08227539 7.30102539 -3.08227539 7.30102539 -3.07446289 5.11352539 C-3.07704102 4.39165039 -3.07961914 3.66977539 -3.08227539 2.92602539 C-2.89491937 0.3691667 -2.55607753 0.1488511 0 0 Z " fill="#33CBDB" transform="translate(15.949462890625,31.886474609375)"/>
<path d="M0 0 C13.53 0 27.06 0 41 0 C41 1.65 41 3.3 41 5 C27.47 5 13.94 5 0 5 C0 3.35 0 1.7 0 0 Z " fill="#3C3D89" transform="translate(60,97)"/>
<path d="M0 0 C1.084021 0.00523682 2.16804199 0.01047363 3.28491211 0.01586914 C5.03964844 0.02070312 5.03964844 0.02070312 6.82983398 0.02563477 C8.67738281 0.03820313 8.67738281 0.03820313 10.56225586 0.05102539 C12.41560547 0.05779297 12.41560547 0.05779297 14.30639648 0.06469727 C17.37089703 0.07652931 20.43530307 0.09301366 23.49975586 0.11352539 C23.49975586 1.76352539 23.49975586 3.41352539 23.49975586 5.11352539 C22.17975586 4.78352539 20.85975586 4.45352539 19.49975586 4.11352539 C19.16975586 5.43352539 18.83975586 6.75352539 18.49975586 8.11352539 C17.96350586 7.96915039 17.42725586 7.82477539 16.87475586 7.67602539 C16.09100586 7.49040039 15.30725586 7.30477539 14.49975586 7.11352539 C13.50975586 6.84540039 12.51975586 6.57727539 11.49975586 6.30102539 C8.41933978 5.75427836 8.41933978 5.75427836 6.43725586 7.92602539 C5.79788086 8.64790039 5.15850586 9.36977539 4.49975586 10.11352539 C2.84392361 10.80666447 1.17864607 11.47826963 -0.50024414 12.11352539 C-0.83024414 12.77352539 -1.16024414 13.43352539 -1.50024414 14.11352539 C-2.16024414 14.11352539 -2.82024414 14.11352539 -3.50024414 14.11352539 C-3.52710352 11.96775903 -3.54657502 9.82189894 -3.56274414 7.67602539 C-3.5743457 6.48106445 -3.58594727 5.28610352 -3.59790039 4.05493164 C-3.46850325 0.15748989 -3.46850325 0.15748989 0 0 Z " fill="#35CFD6" transform="translate(108.500244140625,32.886474609375)"/>
<path d="M0 0 C0.8971875 0.5259375 0.8971875 0.5259375 1.8125 1.0625 C1.585625 1.805 1.35875 2.5475 1.125 3.3125 C0.51773302 6.12164993 0.51773302 6.12164993 2.25 8.375 C2.765625 8.931875 3.28125 9.48875 3.8125 10.0625 C3.125 12 3.125 12 1.8125 14.0625 C-0.8125 14.8125 -0.8125 14.8125 -3.1875 15.0625 C-3.5175 16.3825 -3.8475 17.7025 -4.1875 19.0625 C-5.8375 19.0625 -7.4875 19.0625 -9.1875 19.0625 C-9.1875 18.0725 -9.1875 17.0825 -9.1875 16.0625 C-11.4975 16.3925 -13.8075 16.7225 -16.1875 17.0625 C-18.02441257 13.28062119 -18.34587626 11.11681692 -17.1875 7.0625 C-17.8475 7.0625 -18.5075 7.0625 -19.1875 7.0625 C-19.1875 5.7425 -19.1875 4.4225 -19.1875 3.0625 C-16.5475 3.0625 -13.9075 3.0625 -11.1875 3.0625 C-11.39375 4.17625 -11.6 5.29 -11.8125 6.4375 C-11.998125 8.231875 -11.998125 8.231875 -12.1875 10.0625 C-10.28994856 12.41223818 -10.28994856 12.41223818 -7.0625 12.1875 C-5.639375 12.125625 -5.639375 12.125625 -4.1875 12.0625 C-3.89187633 6.74079506 -3.89187633 6.74079506 -6.1875 2.0625 C-4.66896708 -0.97456585 -3.05066334 -1.30742714 0 0 Z " fill="#E9EAF1" transform="translate(140.1875,59.9375)"/>
<path d="M0 0 C1.98 0 3.96 0 6 0 C6.33 0.66 6.66 1.32 7 2 C9.8159849 2.46898963 9.8159849 2.46898963 13.0625 2.625 C14.71958984 2.73714844 14.71958984 2.73714844 16.41015625 2.8515625 C17.26480469 2.90054688 18.11945312 2.94953125 19 3 C19.33 3.99 19.66 4.98 20 6 C20.99 6 21.98 6 23 6 C23 7.32 23 8.64 23 10 C21.02 9.34 19.04 8.68 17 8 C17 8.99 17 9.98 17 11 C14.35409986 11.02684679 11.70846904 11.04676357 9.0625 11.0625 C7.93038086 11.07506836 7.93038086 11.07506836 6.77539062 11.08789062 C4.85005687 11.09652441 2.92464419 11.05224333 1 11 C0 10 0 10 -0.09765625 7.71484375 C-0.08605469 6.79832031 -0.07445313 5.88179688 -0.0625 4.9375 C-0.05347656 4.01839844 -0.04445313 3.09929687 -0.03515625 2.15234375 C-0.02355469 1.44207031 -0.01195313 0.73179688 0 0 Z " fill="#C4DBFE" transform="translate(27,102)"/>
<path d="M0 0 C0.83265381 0.00523682 1.66530762 0.01047363 2.52319336 0.01586914 C3.42231445 0.0190918 4.32143555 0.02231445 5.24780273 0.02563477 C6.66609375 0.03820313 6.66609375 0.03820313 8.11303711 0.05102539 C9.06243164 0.05553711 10.01182617 0.06004883 10.98999023 0.06469727 C13.34353242 0.07652411 15.69704243 0.09446018 18.05053711 0.11352539 C18.05053711 5.06352539 18.05053711 10.01352539 18.05053711 15.11352539 C17.39053711 14.78352539 16.73053711 14.45352539 16.05053711 14.11352539 C16.05053711 13.12352539 16.05053711 12.13352539 16.05053711 11.11352539 C15.06053711 11.11352539 14.07053711 11.11352539 13.05053711 11.11352539 C12.72053711 9.46352539 12.39053711 7.81352539 12.05053711 6.11352539 C10.73053711 6.11352539 9.41053711 6.11352539 8.05053711 6.11352539 C8.05053711 5.45352539 8.05053711 4.79352539 8.05053711 4.11352539 C7.06053711 4.11352539 6.07053711 4.11352539 5.05053711 4.11352539 C5.05053711 5.10352539 5.05053711 6.09352539 5.05053711 7.11352539 C3.73053711 7.11352539 2.41053711 7.11352539 1.05053711 7.11352539 C0.39053711 9.09352539 -0.26946289 11.07352539 -0.94946289 13.11352539 C-1.60946289 13.11352539 -2.26946289 13.11352539 -2.94946289 13.11352539 C-2.97632842 11.13443141 -2.99579665 9.15523568 -3.01196289 7.17602539 C-3.02356445 6.07387695 -3.03516602 4.97172852 -3.04711914 3.83618164 C-2.91561293 0.16978835 -2.91561293 0.16978835 0 0 Z " fill="#30C5DE" transform="translate(15.949462890625,58.886474609375)"/>
<path d="M0 0 C1.32 0 2.64 0 4 0 C4 6.6 4 13.2 4 20 C6.31 20 8.62 20 11 20 C11.33 20.99 11.66 21.98 12 23 C3.19039858 24.30512614 -5.19039858 24.30512614 -14 23 C-13.505 21.515 -13.505 21.515 -13 20 C-8.71 20 -4.42 20 0 20 C0 13.4 0 6.8 0 0 Z " fill="#4C4CA1" transform="translate(115,63)"/>
<path d="M0 0 C0 1.32 0 2.64 0 4 C5.94 4 11.88 4 18 4 C18.495 5.485 18.495 5.485 19 7 C7.12 7 -4.76 7 -17 7 C-17 6.34 -17 5.68 -17 5 C-15.35 4.67 -13.7 4.34 -12 4 C-12.33 3.34 -12.66 2.68 -13 2 C-11.01559292 -0.68478605 -9.84354588 -1.03631971 -6.5 -1.8125 C-3 -2 -3 -2 0 0 Z " fill="#9FC3FE" transform="translate(75,114)"/>
<path d="M0 0 C0.5775 0.226875 1.155 0.45375 1.75 0.6875 C0.43 1.0175 -0.89 1.3475 -2.25 1.6875 C-2.25 3.3375 -2.25 4.9875 -2.25 6.6875 C-0.6 6.0275 1.05 5.3675 2.75 4.6875 C4.07 6.3375 5.39 7.9875 6.75 9.6875 C5 11.6875 5 11.6875 2.75 13.6875 C1.43 13.6875 0.11 13.6875 -1.25 13.6875 C-1.25 12.6975 -1.25 11.7075 -1.25 10.6875 C-4.36785113 11.33394661 -4.36785113 11.33394661 -5.25 13.6875 C-5.91 13.6875 -6.57 13.6875 -7.25 13.6875 C-7.25 12.6975 -7.25 11.7075 -7.25 10.6875 C-8.57 10.6875 -9.89 10.6875 -11.25 10.6875 C-11.58 11.6775 -11.91 12.6675 -12.25 13.6875 C-13.57 12.0375 -14.89 10.3875 -16.25 8.6875 C-13.01445961 5.91417966 -10.20428174 4.20837759 -6.25 2.6875 C-5.569375 2.130625 -4.88875 1.57375 -4.1875 1 C-2.25 -0.3125 -2.25 -0.3125 0 0 Z " fill="#40B4E0" transform="translate(51.25,86.3125)"/>
<path d="M0 0 C1.31871094 -0.01224609 2.63742188 -0.02449219 3.99609375 -0.03710938 C5.90068359 -0.04000977 5.90068359 -0.04000977 7.84375 -0.04296875 C9.00068359 -0.04707764 10.15761719 -0.05118652 11.34960938 -0.05541992 C14.47736509 0.18575467 16.680892 0.85423629 19.5 2.1875 C18.5 4.1875 18.5 4.1875 16.84521484 4.80200195 C11.99200924 5.59975457 7.04404055 5.37340312 2.13769531 5.37280273 C0.13863013 5.37498512 -1.86039532 5.39349143 -3.859375 5.41210938 C-5.13039063 5.41404297 -6.40140625 5.41597656 -7.7109375 5.41796875 C-8.86899902 5.42207764 -10.02706055 5.42618652 -11.22021484 5.43041992 C-14.61310954 5.17912245 -17.33332989 4.39923908 -20.5 3.1875 C-20.17 2.5275 -19.84 1.8675 -19.5 1.1875 C-13.23640183 -0.60566158 -6.45139424 0.00315317 0 0 Z " fill="#EAEBF2" transform="translate(114.5,125.8125)"/>
<path d="M0 0 C1.39456452 0.00667256 2.78911118 0.01863093 4.18359375 0.03515625 C4.89451172 0.03966797 5.60542969 0.04417969 6.33789062 0.04882812 C8.09899388 0.06064761 9.86005411 0.07858362 11.62109375 0.09765625 C8.01153518 3.90944815 5.61428942 5.5442176 0.62109375 7.09765625 C-0.36890625 8.58265625 -0.36890625 8.58265625 -1.37890625 10.09765625 C-0.38890625 11.08765625 0.60109375 12.07765625 1.62109375 13.09765625 C1.95109375 12.43765625 2.28109375 11.77765625 2.62109375 11.09765625 C3.94109375 11.09765625 5.26109375 11.09765625 6.62109375 11.09765625 C6.62109375 12.08765625 6.62109375 13.07765625 6.62109375 14.09765625 C7.28109375 14.09765625 7.94109375 14.09765625 8.62109375 14.09765625 C8.62109375 14.75765625 8.62109375 15.41765625 8.62109375 16.09765625 C4.33109375 16.09765625 0.04109375 16.09765625 -4.37890625 16.09765625 C-4.4057572 13.61841824 -4.42567172 11.13946785 -4.44140625 8.66015625 C-4.45397461 7.59958008 -4.45397461 7.59958008 -4.46679688 6.51757812 C-4.47544213 4.71072066 -4.43110636 2.90378022 -4.37890625 1.09765625 C-3.37890625 0.09765625 -3.37890625 0.09765625 0 0 Z " fill="#4497EB" transform="translate(37.37890625,85.90234375)"/>
<path d="M0 0 C0.99 0 1.98 0 3 0 C3 0.66 3 1.32 3 2 C4.32 1.67 5.64 1.34 7 1 C9.29013653 4.4352048 9.17842973 5.985331 9 10 C8.01 10.33 7.02 10.66 6 11 C5.67 11.66 5.34 12.32 5 13 C2.69 12.67 0.38 12.34 -2 12 C-4 6.375 -4 6.375 -4 3 C-2.68 3 -1.36 3 0 3 C0 2.01 0 1.02 0 0 Z " fill="#E6F6FA" transform="translate(21,63)"/>
<path d="M0 0 C3.1026268 0.94978372 5.38256244 2.12673138 8.0625 3.9375 C9.0525 4.5975 10.0425 5.2575 11.0625 5.9375 C11.0625 6.5975 11.0625 7.2575 11.0625 7.9375 C3.4725 7.9375 -4.1175 7.9375 -11.9375 7.9375 C-11.6075 6.9475 -11.2775 5.9575 -10.9375 4.9375 C-10.339375 4.793125 -9.74125 4.64875 -9.125 4.5 C-6.7291207 4.1021438 -6.7291207 4.1021438 -5.0625 1.8125 C-2.9375 -0.0625 -2.9375 -0.0625 0 0 Z " fill="#F5FCFD" transform="translate(119.9375,38.0625)"/>
<path d="M0 0 C3.14581423 -0.02888514 6.29159469 -0.04675923 9.4375 -0.0625 C10.33533203 -0.07087891 11.23316406 -0.07925781 12.15820312 -0.08789062 C13.01220703 -0.09111328 13.86621094 -0.09433594 14.74609375 -0.09765625 C15.93223267 -0.10551147 15.93223267 -0.10551147 17.14233398 -0.11352539 C19 0 19 0 20 1 C20.04092937 3.33297433 20.04241723 5.66705225 20 8 C19.01 8 18.02 8 17 8 C17 7.01 17 6.02 17 5 C11.39 5 5.78 5 0 5 C0 3.35 0 1.7 0 0 Z " fill="#34B1C5" transform="translate(98,49)"/>
<path d="M0 0 C0.33 0 0.66 0 1 0 C1.33 1.98 1.66 3.96 2 6 C5.3 6.33 8.6 6.66 12 7 C10.99796679 10.00609963 10.39971554 11.06176821 8 13 C7.01 13 6.02 13 5 13 C5.33 13.66 5.66 14.32 6 15 C5.01 15 4.02 15 3 15 C2.67 15.66 2.34 16.32 2 17 C0.68 17 -0.64 17 -2 17 C-2.05418326 14.91695462 -2.09287551 12.83350232 -2.125 10.75 C-2.14820312 9.58984375 -2.17140625 8.4296875 -2.1953125 7.234375 C-2.0103949 4.17213954 -1.60823023 2.55797249 0 0 Z " fill="#6C73FE" transform="translate(104,107)"/>
<path d="M0 0 C1.32 0 2.64 0 4 0 C4 5.61 4 11.22 4 17 C4.99 17 5.98 17 7 17 C7 18.65 7 20.3 7 22 C4.69 22 2.38 22 0 22 C0 14.74 0 7.48 0 0 Z " fill="#41448E" transform="translate(26,80)"/>
<path d="M0 0 C1.08667969 0.02707031 2.17335938 0.05414063 3.29296875 0.08203125 C4.54013672 0.13423828 4.54013672 0.13423828 5.8125 0.1875 C5.8125 1.8375 5.8125 3.4875 5.8125 5.1875 C2.1825 5.1875 -1.4475 5.1875 -5.1875 5.1875 C-5.1875 6.8375 -5.1875 8.4875 -5.1875 10.1875 C-6.5075 10.1875 -7.8275 10.1875 -9.1875 10.1875 C-9.55218886 3.74466353 -9.55218886 3.74466353 -8.0625 1.46875 C-5.3504604 -0.38447706 -3.24426436 -0.10465369 0 0 Z " fill="#3C3D89" transform="translate(35.1875,48.8125)"/>
<path d="M0 0 C0.66 0 1.32 0 2 0 C2.02685938 2.14576637 2.04633088 4.29162645 2.0625 6.4375 C2.07410156 7.63246094 2.08570312 8.82742187 2.09765625 10.05859375 C2 13 2 13 1 14 C-1.01964199 14.07244053 -3.04167124 14.08377188 -5.0625 14.0625 C-6.16722656 14.05347656 -7.27195312 14.04445313 -8.41015625 14.03515625 C-9.69212891 14.01775391 -9.69212891 14.01775391 -11 14 C-10.67 12.68 -10.34 11.36 -10 10 C-8.88625 9.79375 -7.7725 9.5875 -6.625 9.375 C-2.75496607 8.39234432 -2.75496607 8.39234432 -1.625 5 C-1.315625 3.515 -1.315625 3.515 -1 2 C-0.67 1.34 -0.34 0.68 0 0 Z " fill="#3AD9D1" transform="translate(121,100)"/>
<path d="M0 0 C5.61 0 11.22 0 17 0 C17 1.65 17 3.3 17 5 C11.39 5 5.78 5 0 5 C0 3.35 0 1.7 0 0 Z " fill="#3D3F8B" transform="translate(15,34)"/>
<path d="M0 0 C0.99 0.33 1.98 0.66 3 1 C3 5.29 3 9.58 3 14 C2.01 14.33 1.02 14.66 0 15 C-0.33 15.99 -0.66 16.98 -1 18 C-1.33 15.69 -1.66 13.38 -2 11 C-4.475 10.01 -4.475 10.01 -7 9 C-6.67 8.01 -6.34 7.02 -6 6 C-5.34 6 -4.68 6 -4 6 C-4.33 5.01 -4.66 4.02 -5 3 C-3.68 3.33 -2.36 3.66 -1 4 C-0.67 2.68 -0.34 1.36 0 0 Z " fill="#35D5CF" transform="translate(132,33)"/>
<path d="M0 0 C2.61580479 0.3269756 4.64078137 0.82039068 7 2 C7.125 4.875 7.125 4.875 7 8 C5 10 5 10 2.5625 10.3125 C0 10 0 10 -1.875 8.8125 C-3 7 -3 7 -2.8125 4.4375 C-2 2 -2 2 0 0 Z " fill="#71DDE2" transform="translate(112,100)"/>
<path d="M0 0 C1.32 0 2.64 0 4 0 C4 6.6 4 13.2 4 20 C2.68 19.67 1.36 19.34 0 19 C0 12.73 0 6.46 0 0 Z " fill="#3E3E8B" transform="translate(115,63)"/>
<path d="M0 0 C0.33 0 0.66 0 1 0 C1 5.28 1 10.56 1 16 C-0.32 15.67 -1.64 15.34 -3 15 C-3 13.02 -3 11.04 -3 9 C-5.64 9 -8.28 9 -11 9 C-10.38125 8.54625 -9.7625 8.0925 -9.125 7.625 C-6.94080167 6.02891081 -6.94080167 6.02891081 -5 4 C-2 2 -2 2 0 2 C0 1.34 0 0.68 0 0 Z " fill="#6760FF" transform="translate(126,87)"/>
<path d="M0 0 C2.64 0 5.28 0 8 0 C8 4.95 8 9.9 8 15 C7.34 14.67 6.68 14.34 6 14 C6 13.01 6 12.02 6 11 C5.01 11 4.02 11 3 11 C2.67 9.35 2.34 7.7 2 6 C1.34 6 0.68 6 0 6 C0 4.02 0 2.04 0 0 Z " fill="#38C5D1" transform="translate(26,59)"/>
<path d="M0 0 C8.58 0 17.16 0 26 0 C25.67 0.99 25.34 1.98 25 3 C17.08 3 9.16 3 1 3 C0.67 2.01 0.34 1.02 0 0 Z " fill="#4C4CA0" transform="translate(101,124)"/>
<path d="M0 0 C1 1 1 1 1.09765625 2.84765625 C1.04882812 5.92382812 1.04882812 5.92382812 1 9 C-0.65 8.67 -2.3 8.34 -4 8 C-4.33 7.01 -4.66 6.02 -5 5 C-6.65 5.66 -8.3 6.32 -10 7 C-10 6.34 -10 5.68 -10 5 C-10.66 4.67 -11.32 4.34 -12 4 C-11.34 4 -10.68 4 -10 4 C-10 3.34 -10 2.68 -10 2 C-6.60379269 -0.08997373 -3.94836905 -0.2632246 0 0 Z " fill="#3CBFD9" transform="translate(59,86)"/>
<path d="M0 0 C0.66 0 1.32 0 2 0 C2 0.66 2 1.32 2 2 C3.65 1.34 5.3 0.68 7 0 C8.32 1.65 9.64 3.3 11 5 C9.25 7 9.25 7 7 9 C5.68 9 4.36 9 3 9 C3 8.01 3 7.02 3 6 C-0.11785113 6.64644661 -0.11785113 6.64644661 -1 9 C-1.66 9 -2.32 9 -3 9 C-2.01 6.03 -1.02 3.06 0 0 Z " fill="#49CAD9" transform="translate(47,91)"/>
<path d="M0 0 C1.67542976 0.28604898 3.34385343 0.61781233 5 1 C5.95020028 3.99678551 6.46463605 6.06886936 5.0234375 8.95703125 C3.76294928 10.76667955 2.56254586 12.44206342 1 14 C0.34 14 -0.32 14 -1 14 C-1.02685938 11.85423363 -1.04633088 9.70837355 -1.0625 7.5625 C-1.07410156 6.36753906 -1.08570312 5.17257813 -1.09765625 3.94140625 C-1 1 -1 1 0 0 Z " fill="#33C6DF" transform="translate(106,33)"/>
<path d="M0 0 C7.92 0.33 15.84 0.66 24 1 C24 1.33 24 1.66 24 2 C20.7 2 17.4 2 14 2 C14 2.66 14 3.32 14 4 C6.41 4 -1.18 4 -9 4 C-9 3.34 -9 2.68 -9 2 C-6.03 2 -3.06 2 0 2 C0 1.34 0 0.68 0 0 Z " fill="#89D8E3" transform="translate(107,45)"/>
<path d="M0 0 C1.24716797 0.00322266 2.49433594 0.00644531 3.77929688 0.00976562 C5.07287109 0.01814453 6.36644531 0.02652344 7.69921875 0.03515625 C9.66858398 0.04192383 9.66858398 0.04192383 11.67773438 0.04882812 C14.91410885 0.06059676 18.15039053 0.07703865 21.38671875 0.09765625 C21.05671875 0.75765625 20.72671875 1.41765625 20.38671875 2.09765625 C19.73074707 2.11747559 19.07477539 2.13729492 18.39892578 2.15771484 C15.43610806 2.25278132 12.47401343 2.36253377 9.51171875 2.47265625 C7.96291016 2.5190625 7.96291016 2.5190625 6.3828125 2.56640625 C4.90361328 2.62441406 4.90361328 2.62441406 3.39453125 2.68359375 C2.4833252 2.71501465 1.57211914 2.74643555 0.63330078 2.77880859 C-1.81259311 2.89648136 -1.81259311 2.89648136 -3.61328125 5.09765625 C-6.34197532 5.06478042 -8.90994305 4.53367854 -11.61328125 4.09765625 C-11.61328125 3.10765625 -11.61328125 2.11765625 -11.61328125 1.09765625 C-7.68039761 0.16677716 -4.03673962 -0.0184326 0 0 Z " fill="#D9D9E8" transform="translate(106.61328125,125.90234375)"/>
<path d="M0 0 C1.89213369 2.38573379 3.02391783 4.07175348 4 7 C-1.28 7 -6.56 7 -12 7 C-12.33 6.01 -12.66 5.02 -13 4 C-8.71 4 -4.42 4 0 4 C0 2.68 0 1.36 0 0 Z " fill="#4FD2DA" transform="translate(46,98)"/>
<path d="M0 0 C4.875 0.875 4.875 0.875 6 2 C6.33 1.34 6.66 0.68 7 0 C8.32 0 9.64 0 11 0 C11 0.99 11 1.98 11 3 C11.66 3 12.32 3 13 3 C13 3.66 13 4.32 13 5 C8.71 5 4.42 5 0 5 C0 3.35 0 1.7 0 0 Z " fill="#36AFC6" transform="translate(33,97)"/>
<path d="M0 0 C2.31 0 4.62 0 7 0 C7.8125 2.1875 7.8125 2.1875 8 5 C5.5625 7.8125 5.5625 7.8125 3 10 C2.01 9.67 1.02 9.34 0 9 C0.185625 8.071875 0.37125 7.14375 0.5625 6.1875 C1.24123881 2.98656229 1.24123881 2.98656229 0 0 Z " fill="#71D4E4" transform="translate(110,33)"/>
<path d="M0 0 C1.65322266 0.01740234 1.65322266 0.01740234 3.33984375 0.03515625 C4.99693359 0.04869141 4.99693359 0.04869141 6.6875 0.0625 C7.54214844 0.07410156 8.39679687 0.08570313 9.27734375 0.09765625 C9.27734375 2.07765625 9.27734375 4.05765625 9.27734375 6.09765625 C8.61734375 6.09765625 7.95734375 6.09765625 7.27734375 6.09765625 C7.27734375 5.43765625 7.27734375 4.77765625 7.27734375 4.09765625 C6.28734375 4.09765625 5.29734375 4.09765625 4.27734375 4.09765625 C3.94734375 5.08765625 3.61734375 6.07765625 3.27734375 7.09765625 C2.86484375 6.29328125 2.45234375 5.48890625 2.02734375 4.66015625 C0.54282044 1.95655907 0.54282044 1.95655907 -1.91015625 1.28515625 C-2.50828125 1.22328125 -3.10640625 1.16140625 -3.72265625 1.09765625 C-2.72265625 0.09765625 -2.72265625 0.09765625 0 0 Z " fill="#3ACEDA" transform="translate(16.72265625,58.90234375)"/>
<path d="M0 0 C1.65 0 3.3 0 5 0 C5.02689216 1.47906892 5.04634621 2.95827483 5.0625 4.4375 C5.07410156 5.26121094 5.08570313 6.08492187 5.09765625 6.93359375 C5 9 5 9 4 10 C1.81360547 10.07258946 -0.37500389 10.08373783 -2.5625 10.0625 C-4.35880859 10.04896484 -4.35880859 10.04896484 -6.19140625 10.03515625 C-7.11824219 10.02355469 -8.04507812 10.01195312 -9 10 C-4.59360646 7.79680323 -2.02549129 6.89075019 3 7 C3 5.35 3 3.7 3 2 C2.01 1.67 1.02 1.34 0 1 C0 0.67 0 0.34 0 0 Z " fill="#34D5CF" transform="translate(29,32)"/>
<path d="M0 0 C1.32 0 2.64 0 4 0 C3.649375 0.61875 3.29875 1.2375 2.9375 1.875 C2.628125 2.57625 2.31875 3.2775 2 4 C2.33 4.66 2.66 5.32 3 6 C1.02 6 -0.96 6 -3 6 C-3 6.66 -3 7.32 -3 8 C-5.31 8 -7.62 8 -10 8 C-10 7.34 -10 6.68 -10 6 C-8.72125 5.7525 -7.4425 5.505 -6.125 5.25 C-2.73252682 4.48009414 -2.73252682 4.48009414 -0.5 1.875 C-0.335 1.25625 -0.17 0.6375 0 0 Z " fill="#AECCFE" transform="translate(61,113)"/>
<path d="M0 0 C1.98 0 3.96 0 6 0 C2.48735021 3.9259027 -0.08016572 5.36005524 -5 7 C-6.42055068 9.00136244 -6.42055068 9.00136244 -7 11 C-7.99 11 -8.98 11 -10 11 C-9.67 9.68 -9.34 8.36 -9 7 C-8.34 7 -7.68 7 -7 7 C-7 6.34 -7 5.68 -7 5 C-3.53846154 2 -3.53846154 2 -1 2 C-0.67 1.34 -0.34 0.68 0 0 Z " fill="#42A8E6" transform="translate(43,86)"/>
<path d="M0 0 C2.31 0 4.62 0 7 0 C7.33 0.66 7.66 1.32 8 2 C7.01 2.66 6.02 3.32 5 4 C3.79549696 6.55183404 3.79549696 6.55183404 3 9 C2.01 9 1.02 9 0 9 C0 6.03 0 3.06 0 0 Z " fill="#5934FF" transform="translate(102,86)"/>
<path d="M0 0 C0 1.65 0 3.3 0 5 C-2.97 5 -5.94 5 -9 5 C-9 4.01 -9 3.02 -9 2 C-8.34 2 -7.68 2 -7 2 C-7 1.34 -7 0.68 -7 0 C-4.3333581 -1.33332095 -2.83319697 -0.67102033 0 0 Z " fill="#35D8C4" transform="translate(34,75)"/>
<path d="M0 0 C0.66 0.33 1.32 0.66 2 1 C2.12375 1.804375 2.2475 2.60875 2.375 3.4375 C2.72567164 6.15983399 2.72567164 6.15983399 5.0625 7.3125 C5.701875 7.539375 6.34125 7.76625 7 8 C0.375 9 0.375 9 -3 9 C-3 7.35 -3 5.7 -3 4 C-2.34 4 -1.68 4 -1 4 C-0.67 2.68 -0.34 1.36 0 0 Z " fill="#3CCDDB" transform="translate(16,68)"/>
<path d="M0 0 C3.3 0 6.6 0 10 0 C8.72536799 2.54926402 7.56582957 2.86801636 5 4 C4.01 4.33 3.02 4.66 2 5 C2.33 5.99 2.66 6.98 3 8 C2.01 8.33 1.02 8.66 0 9 C0 6.03 0 3.06 0 0 Z " fill="#3EBBDD" transform="translate(105,54)"/>
<path d="M0 0 C1.32 1.65 2.64 3.3 4 5 C3.34 6.65 2.68 8.3 2 10 C0.35 9.67 -1.3 9.34 -3 9 C-3 7.68 -3 6.36 -3 5 C-2.34 5 -1.68 5 -1 5 C-0.67 3.35 -0.34 1.7 0 0 Z " fill="#3DCFE4" transform="translate(108,104)"/>
<path d="M0 0 C1.37478516 0.01740234 1.37478516 0.01740234 2.77734375 0.03515625 C3.69644531 0.04417969 4.61554688 0.05320312 5.5625 0.0625 C6.27277344 0.07410156 6.98304687 0.08570312 7.71484375 0.09765625 C4.71484375 2.09765625 4.71484375 2.09765625 1.71484375 2.09765625 C1.71484375 2.75765625 1.71484375 3.41765625 1.71484375 4.09765625 C0.04817708 5.76432292 -1.61848958 7.43098958 -3.28515625 9.09765625 C-3.3828125 2.9453125 -3.3828125 2.9453125 -3.28515625 1.09765625 C-2.28515625 0.09765625 -2.28515625 0.09765625 0 0 Z " fill="#45B4F5" transform="translate(108.28515625,95.90234375)"/>
<path d="M0 0 C-0.33 1.98 -0.66 3.96 -1 6 C-4 7 -4 7 -7.1875 5.5625 C-8.115625 5.046875 -9.04375 4.53125 -10 4 C-4 0 -4 0 0 0 Z " fill="#3FCFE3" transform="translate(123,96)"/>
<path d="M0 0 C2.31 0.66 4.62 1.32 7 2 C7 2.99 7 3.98 7 5 C3.04 5 -0.92 5 -5 5 C-4 3 -4 3 -1 2 C-0.67 1.34 -0.34 0.68 0 0 Z " fill="#7896FE" transform="translate(120,119)"/>
<path d="M0 0 C0.99 0 1.98 0 3 0 C3 1.65 3 3.3 3 5 C3.99 5.33 4.98 5.66 6 6 C5.01 6.99 4.02 7.98 3 9 C-0.875 7.25 -0.875 7.25 -2 5 C-1.34 5 -0.68 5 0 5 C0 3.35 0 1.7 0 0 Z " fill="#E6F7F8" transform="translate(118,52)"/>
<path d="M0 0 C2.31 0 4.62 0 7 0 C7 1.65 7 3.3 7 5 C4.69 5 2.38 5 0 5 C0 3.35 0 1.7 0 0 Z " fill="#3C3E8A" transform="translate(98,49)"/>
<path d="M0 0 C0 0.66 0 1.32 0 2 C-5.28 2 -10.56 2 -16 2 C-16 1.34 -16 0.68 -16 0 C-10.49983036 -1.30267176 -5.52967941 -0.71033431 0 0 Z " fill="#99C0FE" transform="translate(74,119)"/>
<path d="M0 0 C1.32 0.33 2.64 0.66 4 1 C4 3.31 4 5.62 4 8 C3.34 8 2.68 8 2 8 C2 8.66 2 9.32 2 10 C1.34 10 0.68 10 0 10 C0 6.7 0 3.4 0 0 Z " fill="#7080FE" transform="translate(123,102)"/>
<path d="M0 0 C0.33 0 0.66 0 1 0 C1.66 2.97 2.32 5.94 3 9 C1.35 9.33 -0.3 9.66 -2 10 C-1.85950482 8.52031676 -1.71245174 7.04125484 -1.5625 5.5625 C-1.48128906 4.73878906 -1.40007812 3.91507812 -1.31640625 3.06640625 C-1 1 -1 1 0 0 Z " fill="#6762FF" transform="translate(104,107)"/>
<path d="M0 0 C0.99 0 1.98 0 3 0 C3 2.64 3 5.28 3 8 C1.68 7.67 0.36 7.34 -1 7 C-1.04254356 5.00045254 -1.04080783 2.99958364 -1 1 C-0.67 0.67 -0.34 0.34 0 0 Z " fill="#6B70FE" transform="translate(124,95)"/>
<path d="M0 0 C2.0625 0.4375 2.0625 0.4375 4 1 C4 2.32 4 3.64 4 5 C2.68 5.33 1.36 5.66 0 6 C-0.38218767 4.34385343 -0.71395102 2.67542976 -1 1 C-0.67 0.67 -0.34 0.34 0 0 Z " fill="#42CEDA" transform="translate(22,67)"/>
<path d="M0 0 C1.41623216 -0.05447047 2.83308191 -0.09300508 4.25 -0.125 C5.03890625 -0.14820313 5.8278125 -0.17140625 6.640625 -0.1953125 C9 0 9 0 13 2 C9.37 2 5.74 2 2 2 C2 2.66 2 3.32 2 4 C1.01 4 0.02 4 -1 4 C-0.67 2.68 -0.34 1.36 0 0 Z " fill="#31C3DF" transform="translate(42,45)"/>
<path d="M0 0 C2.97 0.33 5.94 0.66 9 1 C9.33 2.32 9.66 3.64 10 5 C9.01 5 8.02 5 7 5 C7 4.34 7 3.68 7 3 C4.69 3 2.38 3 0 3 C0 2.01 0 1.02 0 0 Z " fill="#55DAD4" transform="translate(88,44)"/>
<path d="M0 0 C2.625 0.375 2.625 0.375 5 1 C4.67 1.99 4.34 2.98 4 4 C2.68 3.67 1.36 3.34 0 3 C-0.33 4.65 -0.66 6.3 -1 8 C-1.66 7.67 -2.32 7.34 -3 7 C-2.25 2.25 -2.25 2.25 0 0 Z " fill="#87DBEC" transform="translate(112,100)"/>
<path d="M0 0 C0.33 0 0.66 0 1 0 C1 2.31 1 4.62 1 7 C-0.65 6.67 -2.3 6.34 -4 6 C-4.33 5.01 -4.66 4.02 -5 3 C-3.68 3 -2.36 3 -1 3 C-0.67 2.01 -0.34 1.02 0 0 Z " fill="#40D0D5" transform="translate(59,88)"/>
<path d="M0 0 C0.33 0 0.66 0 1 0 C1 2.64 1 5.28 1 8 C-0.32 8.33 -1.64 8.66 -3 9 C-3 6 -3 6 -2 3 C-1.34 3 -0.68 3 0 3 C0 2.01 0 1.02 0 0 Z " fill="#37DFC5" transform="translate(122,105)"/>
<path d="M0 0 C0.66 0 1.32 0 2 0 C2.66 1.65 3.32 3.3 4 5 C1.66666667 5 -0.66666667 5 -3 5 C-3 5.66 -3 6.32 -3 7 C-4.32 6.67 -5.64 6.34 -7 6 C-6.01 6 -5.02 6 -4 6 C-3.67 5.01 -3.34 4.02 -3 3 C-2.01 3 -1.02 3 0 3 C0 2.01 0 1.02 0 0 Z " fill="#56D5D7" transform="translate(30,70)"/>
<path d="M0 0 C0.99 0.33 1.98 0.66 3 1 C3 1.99 3 2.98 3 4 C2.01 4.33 1.02 4.66 0 5 C-0.33 5.66 -0.66 6.32 -1 7 C-1.99 7 -2.98 7 -4 7 C-4.33 6.01 -4.66 5.02 -5 4 C-4.360625 3.71125 -3.72125 3.4225 -3.0625 3.125 C-0.84793921 2.17176549 -0.84793921 2.17176549 0 0 Z " fill="#F8FCFD" transform="translate(27,69)"/>
<path d="M0 0 C1.32 0 2.64 0 4 0 C3.67 1.98 3.34 3.96 3 6 C2.01 6 1.02 6 0 6 C0 4.02 0 2.04 0 0 Z " fill="#3DB3DF" transform="translate(30,59)"/>
<path d="M0 0 C1.89213369 2.38573379 3.02391783 4.07175348 4 7 C1.36 7 -1.28 7 -4 7 C-2.68 6.34 -1.36 5.68 0 5 C0 3.35 0 1.7 0 0 Z " fill="#44D5CE" transform="translate(46,98)"/>
<path d="M0 0 C1.65 0 3.3 0 5 0 C5 1.32 5 2.64 5 4 C3 5.75 3 5.75 1 7 C0.67 4.69 0.34 2.38 0 0 Z " fill="#33C3C5" transform="translate(47,97)"/>
<path d="M0 0 C1.21346851 3.64040554 1.21346851 5.35959446 0 9 C-1.32 7.35 -2.64 5.7 -4 4 C-2.68 2.68 -1.36 1.36 0 0 Z " fill="#E1F2F9" transform="translate(39,91)"/>
<path d="M0 0 C1.32 0.66 2.64 1.32 4 2 C3.67 2.99 3.34 3.98 3 5 C0.9375 5.6875 0.9375 5.6875 -1 6 C-1.042721 4.33388095 -1.04063832 2.66617115 -1 1 C-0.67 0.67 -0.34 0.34 0 0 Z " fill="#4BD1E3" transform="translate(112,102)"/>
<path d="M0 0 C0.66 0 1.32 0 2 0 C1.01 2.97 0.02 5.94 -1 9 C-1.66 9 -2.32 9 -3 9 C-2.01 6.03 -1.02 3.06 0 0 Z " fill="#E6F5FA" transform="translate(47,91)"/>
<path d="M0 0 C1.32 0 2.64 0 4 0 C3.67 1.65 3.34 3.3 3 5 C2.01 5.33 1.02 5.66 0 6 C0 4.02 0 2.04 0 0 Z " fill="#34AEC6" transform="translate(26,59)"/>
<path d="M0 0 C1.65 0.99 3.3 1.98 5 3 C3.625 5 3.625 5 2 7 C1.34 7 0.68 7 0 7 C0.2784375 6.1028125 0.2784375 6.1028125 0.5625 5.1875 C1.22093687 2.83591238 1.22093687 2.83591238 0 0 Z " fill="#EBF9FA" transform="translate(53,92)"/>
</svg>
