<?xml version="1.0" encoding="UTF-8"?>
<svg version="1.1" xmlns="http://www.w3.org/2000/svg" width="150" height="150">
<path d="M0 0 C0 1.98 0 3.96 0 6 C6.06050614 7.0812391 6.06050614 7.0812391 12 6 C16 11.75 16 11.75 16 14 C17.28197266 14.09087891 17.28197266 14.09087891 18.58984375 14.18359375 C19.69457031 14.26738281 20.79929687 14.35117187 21.9375 14.4375 C23.03964844 14.51871094 24.14179688 14.59992187 25.27734375 14.68359375 C28 15 28 15 29 16 C29.15806531 17.92478813 29.251135 19.8549921 29.31640625 21.78515625 C29.37924805 23.53989258 29.37924805 23.53989258 29.44335938 25.33007812 C29.48267578 26.56177734 29.52199219 27.79347656 29.5625 29.0625 C29.60568359 30.29806641 29.64886719 31.53363281 29.69335938 32.80664062 C29.79984198 35.87097335 29.90185424 38.93539073 30 42 C32.97 42.495 32.97 42.495 36 43 C36.33 44.65 36.66 46.3 37 48 C36.34 48 35.68 48 35 48 C35 49.32 35 50.64 35 52 C35.66 52.33 36.32 52.66 37 53 C36.34 54.65 35.68 56.3 35 58 C32.69 58 30.38 58 28 58 C28 58.99 28 59.98 28 61 C26.35 61 24.7 61 23 61 C22.773125 60.360625 22.54625 59.72125 22.3125 59.0625 C21.14749104 56.72806339 21.14749104 56.72806339 18.375 56.25 C17.59125 56.1675 16.8075 56.085 16 56 C15.505 54.02 15.505 54.02 15 52 C15.66 52 16.32 52 17 52 C16.39816251 49.97954558 15.72693904 47.97888961 15 46 C14.34 45.67 13.68 45.34 13 45 C13 51.6 13 58.2 13 65 C15.31 65 17.62 65 20 65 C21 66 21 66 21.11352539 69.96899414 C21.1133662 71.74105607 21.10766785 73.5131226 21.09765625 75.28515625 C21.0962413 76.21597519 21.09482635 77.14679413 21.09336853 78.1058197 C21.08775172 81.09141191 21.0751964 84.07693029 21.0625 87.0625 C21.05748716 89.08137913 21.05292388 91.10025943 21.04882812 93.11914062 C21.03777683 98.07945572 21.02050095 103.03971532 21 108 C23.31 108.66 25.62 109.32 28 110 C27 112 27 112 25.34521484 112.61450195 C20.49200924 113.41225457 15.54404055 113.18590312 10.63769531 113.18530273 C8.63863013 113.18748512 6.63960468 113.20599143 4.640625 113.22460938 C3.36960937 113.22654297 2.09859375 113.22847656 0.7890625 113.23046875 C-0.36899902 113.23457764 -1.52706055 113.23868652 -2.72021484 113.24291992 C-6.11310954 112.99162245 -8.83332989 112.21173908 -12 111 C-11.67 110.34 -11.34 109.68 -11 109 C-8.4375 108.375 -8.4375 108.375 -6 108 C-6.67857056 107.99191315 -7.35714111 107.98382629 -8.05627441 107.97549438 C-15.19572947 107.88863335 -22.33493245 107.7891071 -29.47412109 107.68261719 C-32.12938188 107.64363425 -34.7845665 107.60971702 -37.43994141 107.578125 C-75.93926359 107.11445232 -75.93926359 107.11445232 -83 103 C-82.67 101.35 -82.34 99.7 -82 98 C-85.34252724 97.92572162 -87.8035914 97.93453047 -91 99 C-92.32 97.68 -93.64 96.36 -95 95 C-94.649375 94.071875 -94.29875 93.14375 -93.9375 92.1875 C-92.67617372 89.0197047 -92.67617372 89.0197047 -94 86 C-94.99 85.67 -95.98 85.34 -97 85 C-96.25 79.25 -96.25 79.25 -94 77 C-92.66666667 77.33333333 -91.33333333 77.66666667 -90 78 C-87.71271266 76.16116119 -87.71271266 76.16116119 -87.875 73.375 C-87.91625 72.59125 -87.9575 71.8075 -88 71 C-85.36 70.67 -82.72 70.34 -80 70 C-80 68.35 -80 66.7 -80 65 C-86.27 65 -92.54 65 -99 65 C-99 64.34 -99 63.68 -99 63 C-96.03 62.505 -96.03 62.505 -93 62 C-93 61.01 -93 60.02 -93 59 C-94.98 59 -96.96 59 -99 59 C-99 58.34 -99 57.68 -99 57 C-97.02 57 -95.04 57 -93 57 C-93 55.68 -93 54.36 -93 53 C-94.98 53 -96.96 53 -99 53 C-99 52.34 -99 51.68 -99 51 C-97.02 51 -95.04 51 -93 51 C-93 49.68 -93 48.36 -93 47 C-94.98 47 -96.96 47 -99 47 C-99 46.34 -99 45.68 -99 45 C-97.02 45 -95.04 45 -93 45 C-93 44.01 -93 43.02 -93 42 C-94.98 41.67 -96.96 41.34 -99 41 C-99 40.67 -99 40.34 -99 40 C-92.73 40 -86.46 40 -80 40 C-80 38.35 -80 36.7 -80 35 C-86.27 35 -92.54 35 -99 35 C-99 34.67 -99 34.34 -99 34 C-96.525 33.505 -96.525 33.505 -94 33 C-93.67 31.68 -93.34 30.36 -93 29 C-94.98 29 -96.96 29 -99 29 C-99 28.67 -99 28.34 -99 28 C-97.35 27.67 -95.7 27.34 -94 27 C-93.67 25.68 -93.34 24.36 -93 23 C-94.98 23 -96.96 23 -99 23 C-99 22.67 -99 22.34 -99 22 C-97.35 21.67 -95.7 21.34 -94 21 C-93.67 19.68 -93.34 18.36 -93 17 C-94.98 17 -96.96 17 -99 17 C-99 16.67 -99 16.34 -99 16 C-93.11060037 13.95887931 -87.8280285 13.72721958 -81.625 13.8125 C-80.25408203 13.8134668 -80.25408203 13.8134668 -78.85546875 13.81445312 C-72.14064837 13.85935163 -72.14064837 13.85935163 -71 15 C-68.19023482 15.16017166 -65.40226404 15.25950534 -62.58984375 15.31640625 C-61.74780899 15.33718735 -60.90577423 15.35796844 -60.03822327 15.37937927 C-57.33806821 15.44496812 -54.63781283 15.50380276 -51.9375 15.5625 C-50.11131759 15.60567637 -48.28514546 15.64929036 -46.45898438 15.69335938 C-41.97276008 15.80065894 -37.4864345 15.90189966 -33 16 C-33 16.33 -33 16.66 -33 17 C-45.87 17 -58.74 17 -72 17 C-71.67 18.32 -71.34 19.64 -71 21 C-58.46 21.33 -45.92 21.66 -33 22 C-33 22.33 -33 22.66 -33 23 C-45.87 23 -58.74 23 -72 23 C-71.67 24.32 -71.34 25.64 -71 27 C-45.755 26.505 -45.755 26.505 -20 26 C-18.87873219 22.20211302 -18.87873219 22.20211302 -19 19 C-20.32 18.34 -21.64 17.68 -23 17 C-22.44271087 13.65626525 -21.64826111 10.96687001 -20 8 C-18.9275 8.20625 -17.855 8.4125 -16.75 8.625 C-13.12380904 8.9876191 -11.91708924 8.98362069 -9 7 C-9.495 4.03 -9.495 4.03 -10 1 C-3.375 0 -3.375 0 0 0 Z M-10 14 C-12.2084626 17.31269391 -12.80664241 19.14978851 -12.5546875 23.0625 C-11.4812192 26.81207941 -9.28696911 28.01541488 -6 30 C-3.36163023 30.1672392 -3.36163023 30.1672392 -1 30 C-0.96261719 29.01257813 -0.92523438 28.02515625 -0.88671875 27.0078125 C-0.82097656 25.72648437 -0.75523438 24.44515625 -0.6875 23.125 C-0.62949219 21.84882812 -0.57148437 20.57265625 -0.51171875 19.2578125 C-0.34285156 18.18273437 -0.17398438 17.10765625 0 16 C0.99 15.34 1.98 14.68 3 14 C1.01607489 11.60148679 1.01607489 11.60148679 -2.8125 11.5625 C-6.17733329 11.66669338 -7.04370031 12.02913354 -10 14 Z M-72 29 C-72 29.66 -72 30.32 -72 31 C-69.69 31 -67.38 31 -65 31 C-65 30.34 -65 29.68 -65 29 C-67.31 29 -69.62 29 -72 29 Z M21 47 C20.6366844 49.83386167 20.6431329 51.40522151 22.125 53.875 C24.92151052 55.55290631 26.93690532 54.74875648 30 54 C30.67673447 50.59679066 30.67673447 50.59679066 31 47 C29.11499729 44.68436913 29.11499729 44.68436913 26 44.75 C22.88500271 44.68436913 22.88500271 44.68436913 21 47 Z M-86.25 80.625 C-88.21985834 82.92308586 -88.21985834 82.92308586 -88.5 86 C-88.21376982 89.06575838 -88.21376982 89.06575838 -86.3125 91.375 C-83.61209763 93.27258004 -82.22939919 93.35882213 -79 93 C-78.85024761 85.94348748 -78.85024761 85.94348748 -80 79 C-83.92212225 78.60967296 -83.92212225 78.60967296 -86.25 80.625 Z M-74 95 C-74.33 96.32 -74.66 97.64 -75 99 C-71.25001029 99.91280675 -68.0983194 100.00893813 -64.26171875 99.66015625 C-63.19501953 99.56669922 -62.12832031 99.47324219 -61.02929688 99.37695312 C-59.92650391 99.27318359 -58.82371094 99.16941406 -57.6875 99.0625 C-56.00430664 98.91264648 -56.00430664 98.91264648 -54.28710938 98.75976562 C-51.52410179 98.51285856 -48.76185892 98.25939059 -46 98 C-45.67 97.01 -45.34 96.02 -45 95 C-54.57 95 -64.14 95 -74 95 Z M-21 95 C-21 95.99 -21 96.98 -21 98 C-15.72 98.33 -10.44 98.66 -5 99 C-5 97.68 -5 96.36 -5 95 C-10.28 95 -15.56 95 -21 95 Z " fill="#5D51FC" transform="translate(106,18)"/>
<path d="M0 0 C0 2.97 0 5.94 0 9 C-0.969375 9.28875 -1.93875 9.5775 -2.9375 9.875 C-6.10664203 10.64214682 -6.10664203 10.64214682 -7 13 C-7.40270732 17.1283652 -7.40270732 17.1283652 -5.8125 20.8125 C-3.57968261 22.27538036 -1.62655933 22.64505955 1 23 C1 20.03 1 17.06 1 14 C2.98 14 4.96 14 7 14 C7.33 14.66 7.66 15.32 8 16 C16.25 16 24.5 16 33 16 C33.33 15.34 33.66 14.68 34 14 C47.53 14 61.06 14 75 14 C75 17.63 75 21.26 75 25 C69.72 25 64.44 25 59 25 C59 25.99 59 26.98 59 28 C59.56847656 27.98839844 60.13695313 27.97679688 60.72265625 27.96484375 C65.60670484 27.90776806 70.18503965 28.18043228 75 29 C75 31.64 75 34.28 75 37 C67.71409984 37.04682155 60.42823335 37.08211748 53.14221191 37.10362434 C49.75718789 37.11395864 46.37226851 37.12792229 42.98730469 37.15087891 C4.5625541 37.39227608 4.5625541 37.39227608 -3 33 C-2.67 31.35 -2.34 29.7 -2 28 C-5.34252724 27.92572162 -7.8035914 27.93453047 -11 29 C-12.32 27.68 -13.64 26.36 -15 25 C-14.649375 24.071875 -14.29875 23.14375 -13.9375 22.1875 C-12.67617372 19.0197047 -12.67617372 19.0197047 -14 16 C-14.99 15.67 -15.98 15.34 -17 15 C-16.25 9.25 -16.25 9.25 -14 7 C-12.66666667 7.33333333 -11.33333333 7.66666667 -10 8 C-7.71271266 6.16116119 -7.71271266 6.16116119 -7.875 3.375 C-7.91625 2.59125 -7.9575 1.8075 -8 1 C-5.07175348 0.02391783 -3.04386724 -0.08226668 0 0 Z M6 25 C5.67 26.32 5.34 27.64 5 29 C8.74998971 29.91280675 11.9016806 30.00893813 15.73828125 29.66015625 C16.80498047 29.56669922 17.87167969 29.47324219 18.97070312 29.37695312 C20.07349609 29.27318359 21.17628906 29.16941406 22.3125 29.0625 C23.99569336 28.91264648 23.99569336 28.91264648 25.71289062 28.75976562 C28.47589821 28.51285856 31.23814108 28.25939059 34 28 C34.33 27.01 34.66 26.02 35 25 C25.43 25 15.86 25 6 25 Z " fill="#B6D2FE" transform="translate(26,88)"/>
<path d="M0 0 C16.83 0 33.66 0 51 0 C51 10.23 51 20.46 51 31 C34.17 31 17.34 31 0 31 C0 20.77 0 10.54 0 0 Z " fill="#474E93" transform="translate(44,47)"/>
<path d="M0 0 C0 1.98 0 3.96 0 6 C6.06050614 7.0812391 6.06050614 7.0812391 12 6 C16 11.75 16 11.75 16 14 C17.28197266 14.09087891 17.28197266 14.09087891 18.58984375 14.18359375 C19.69457031 14.26738281 20.79929688 14.35117187 21.9375 14.4375 C23.03964844 14.51871094 24.14179688 14.59992187 25.27734375 14.68359375 C28 15 28 15 29 16 C29.15806531 17.92478813 29.251135 19.8549921 29.31640625 21.78515625 C29.35830078 22.95498047 29.40019531 24.12480469 29.44335938 25.33007812 C29.48267578 26.56177734 29.52199219 27.79347656 29.5625 29.0625 C29.60568359 30.29806641 29.64886719 31.53363281 29.69335938 32.80664062 C29.79984198 35.87097335 29.90185424 38.93539073 30 42 C32.97 42.495 32.97 42.495 36 43 C36.495 45.475 36.495 45.475 37 48 C36.34 48 35.68 48 35 48 C35 49.32 35 50.64 35 52 C35.99 52.495 35.99 52.495 37 53 C36.34 54.65 35.68 56.3 35 58 C32.69 58 30.38 58 28 58 C28 58.99 28 59.98 28 61 C26.35 61 24.7 61 23 61 C22.6596875 60.0409375 22.6596875 60.0409375 22.3125 59.0625 C21.14749104 56.72806339 21.14749104 56.72806339 18.375 56.25 C17.59125 56.1675 16.8075 56.085 16 56 C15.505 54.02 15.505 54.02 15 52 C15.66 52 16.32 52 17 52 C15.8937438 47.84659341 15.8937438 47.84659341 13.4375 44.4375 C11.47386992 42.47386992 11.41448679 40.69416416 11 38 C10.67 37.34 10.34 36.68 10 36 C10.66 36 11.32 36 12 36 C12 34.35 12 32.7 12 31 C5.4 31 -1.2 31 -8 31 C-8 30.34 -8 29.68 -8 29 C-5.69 29.33 -3.38 29.66 -1 30 C-1.05220703 28.51886719 -1.05220703 28.51886719 -1.10546875 27.0078125 C-1.13253906 25.72648437 -1.15960938 24.44515625 -1.1875 23.125 C-1.23970703 21.21074219 -1.23970703 21.21074219 -1.29296875 19.2578125 C-1.19628906 18.18273437 -1.09960938 17.10765625 -1 16 C-0.01 15.34 0.98 14.68 2 14 C0.78410016 12.56844101 0.78410016 12.56844101 -2.8125 12.6875 C-5.78617685 12.74622611 -6.87751147 12.92650688 -9.5 14.5 C-11.71177972 18.18629954 -11.34421275 20.73176192 -11 25 C-10.67 25.66 -10.34 26.32 -10 27 C-13.3 27 -16.6 27 -20 27 C-19.67 24.69 -19.34 22.38 -19 20 C-20.32 19.01 -21.64 18.02 -23 17 C-22.44271087 13.65626525 -21.64826111 10.96687001 -20 8 C-18.9275 8.20625 -17.855 8.4125 -16.75 8.625 C-13.12380904 8.9876191 -11.91708924 8.98362069 -9 7 C-9.33 5.02 -9.66 3.04 -10 1 C-3.375 0 -3.375 0 0 0 Z M21 47 C20.6366844 49.83386167 20.6431329 51.40522151 22.125 53.875 C24.92151052 55.55290631 26.93690532 54.74875648 30 54 C30.67673447 50.59679066 30.67673447 50.59679066 31 47 C29.11499729 44.68436913 29.11499729 44.68436913 26 44.75 C22.88500271 44.68436913 22.88500271 44.68436913 21 47 Z " fill="#34D7CB" transform="translate(106,18)"/>
<path d="M0 0 C1.37091797 0.0009668 1.37091797 0.0009668 2.76953125 0.00195312 C9.48435163 0.04685163 9.48435163 0.04685163 10.625 1.1875 C13.43476518 1.34767166 16.22273596 1.44700534 19.03515625 1.50390625 C19.87719101 1.52468735 20.71922577 1.54546844 21.58677673 1.56687927 C24.28693179 1.63246812 26.98718717 1.69130276 29.6875 1.75 C31.51368241 1.79317637 33.33985454 1.83679036 35.16601562 1.88085938 C39.65223992 1.98815894 44.1385655 2.08939966 48.625 2.1875 C48.625 2.5175 48.625 2.8475 48.625 3.1875 C35.755 3.1875 22.885 3.1875 9.625 3.1875 C9.955 4.5075 10.285 5.8275 10.625 7.1875 C23.165 7.5175 35.705 7.8475 48.625 8.1875 C48.625 8.5175 48.625 8.8475 48.625 9.1875 C35.755 9.1875 22.885 9.1875 9.625 9.1875 C9.955 10.5075 10.285 11.8275 10.625 13.1875 C31.085 13.1875 51.545 13.1875 72.625 13.1875 C73.12 15.1675 73.12 15.1675 73.625 17.1875 C80.225 17.1875 86.825 17.1875 93.625 17.1875 C93.625 19.52083333 93.625 21.85416667 93.625 24.1875 C93.79 25.0125 93.955 25.8375 94.125 26.6875 C94.625 29.1875 94.625 29.1875 94.625 31.1875 C90.005 31.1875 85.385 31.1875 80.625 31.1875 C80.625 28.2175 80.625 25.2475 80.625 22.1875 C78.315 22.1875 76.005 22.1875 73.625 22.1875 C73.63547363 22.93435059 73.64594727 23.68120117 73.65673828 24.45068359 C73.6982077 27.82125508 73.72429729 31.191773 73.75 34.5625 C73.76675781 35.738125 73.78351563 36.91375 73.80078125 38.125 C73.80722656 39.24648437 73.81367187 40.36796875 73.8203125 41.5234375 C73.83078613 42.56032715 73.84125977 43.5972168 73.85205078 44.66552734 C73.625 47.1875 73.625 47.1875 71.625 49.1875 C69.38586426 49.44146729 69.38586426 49.44146729 66.56445312 49.44628906 C64.98271301 49.45574554 64.98271301 49.45574554 63.36901855 49.46539307 C62.22630493 49.4613446 61.08359131 49.45729614 59.90625 49.453125 C58.15302429 49.45599518 58.15302429 49.45599518 56.36437988 49.45892334 C53.88956487 49.46028626 51.41474274 49.45658241 48.93994141 49.44824219 C45.14078795 49.43754446 41.34210741 49.44813418 37.54296875 49.4609375 C35.14322812 49.45961592 32.74348778 49.45705357 30.34375 49.453125 C28.62967957 49.45919769 28.62967957 49.45919769 26.88098145 49.46539307 C25.82648804 49.45908875 24.77199463 49.45278442 23.68554688 49.44628906 C22.7544812 49.44469788 21.82341553 49.44310669 20.86413574 49.44146729 C18.625 49.1875 18.625 49.1875 16.625 47.1875 C16.45011746 44.75005103 16.39322595 42.4281392 16.4296875 39.9921875 C16.4325174 39.28474396 16.43534729 38.57730042 16.43826294 37.84841919 C16.44946863 35.5862749 16.47457321 33.32452485 16.5 31.0625 C16.51002933 29.52995363 16.51915526 27.99740106 16.52734375 26.46484375 C16.54940914 22.70557699 16.58394104 18.94660536 16.625 15.1875 C14.315 15.1875 12.005 15.1875 9.625 15.1875 C9.625 17.1675 9.625 19.1475 9.625 21.1875 C0.715 21.1875 -8.195 21.1875 -17.375 21.1875 C-17.375 20.8575 -17.375 20.5275 -17.375 20.1875 C-15.725 19.8575 -14.075 19.5275 -12.375 19.1875 C-12.045 17.8675 -11.715 16.5475 -11.375 15.1875 C-13.355 15.1875 -15.335 15.1875 -17.375 15.1875 C-17.375 14.8575 -17.375 14.5275 -17.375 14.1875 C-15.725 13.8575 -14.075 13.5275 -12.375 13.1875 C-12.045 11.8675 -11.715 10.5475 -11.375 9.1875 C-13.355 9.1875 -15.335 9.1875 -17.375 9.1875 C-17.375 8.8575 -17.375 8.5275 -17.375 8.1875 C-15.725 7.8575 -14.075 7.5275 -12.375 7.1875 C-12.045 5.8675 -11.715 4.5475 -11.375 3.1875 C-13.355 3.1875 -15.335 3.1875 -17.375 3.1875 C-17.375 2.8575 -17.375 2.5275 -17.375 2.1875 C-11.48560037 0.14637931 -6.2030285 -0.08528042 0 0 Z M19.625 15.1875 C19.625 25.4175 19.625 35.6475 19.625 46.1875 C36.455 46.1875 53.285 46.1875 70.625 46.1875 C70.625 35.9575 70.625 25.7275 70.625 15.1875 C53.795 15.1875 36.965 15.1875 19.625 15.1875 Z " fill="#9DE4E0" transform="translate(24.375,31.8125)"/>
<path d="M0 0 C2.31 0 4.62 0 7 0 C7 2.97 7 5.94 7 9 C11.62 9 16.24 9 21 9 C21 15.6 21 22.2 21 29 C23.31 29 25.62 29 28 29 C29 30 29 30 29.11352539 31.85766602 C29.10828857 32.64842529 29.10305176 33.43918457 29.09765625 34.25390625 C29.09443359 35.10791016 29.09121094 35.96191406 29.08789062 36.84179688 C29.07532227 38.18854492 29.07532227 38.18854492 29.0625 39.5625 C29.05798828 40.46419922 29.05347656 41.36589844 29.04882812 42.29492188 C29.03700225 44.53001314 29.0205222 46.76497437 29 49 C27.68 49.66 26.36 50.32 25 51 C25 48.03 25 45.06 25 42 C22.20743781 42.11361602 19.41655882 42.2403589 16.625 42.375 C15.8309375 42.4059375 15.036875 42.436875 14.21875 42.46875 C9.63332625 42.51816421 9.63332625 42.51816421 6 45 C5.01 44.34 4.02 43.68 3 43 C0.18845285 42.72351446 0.18845285 42.72351446 -2.98046875 42.8046875 C-4.14384766 42.81113281 -5.30722656 42.81757812 -6.50585938 42.82421875 C-7.72080078 42.84097656 -8.93574219 42.85773438 -10.1875 42.875 C-12.02731445 42.88853516 -12.02731445 42.88853516 -13.90429688 42.90234375 C-16.93639295 42.92593983 -19.96809938 42.95886159 -23 43 C-23.33 41.68 -23.66 40.36 -24 39 C-23.01 38.34 -22.02 37.68 -21 37 C-20.26656572 33.93443402 -20.26656572 33.93443402 -20 31 C-16.535 30.505 -16.535 30.505 -13 30 C-13.66 29.34 -14.32 28.68 -15 28 C-13.60974609 27.80083984 -13.60974609 27.80083984 -12.19140625 27.59765625 C-10.39509766 27.33275391 -10.39509766 27.33275391 -8.5625 27.0625 C-7.36753906 26.88847656 -6.17257813 26.71445313 -4.94140625 26.53515625 C-2.12044324 26.31014787 -2.12044324 26.31014787 -1 25 C-0.84213692 23.14825294 -0.74892644 21.2909089 -0.68359375 19.43359375 C-0.64169922 18.30888672 -0.59980469 17.18417969 -0.55664062 16.02539062 C-0.51732422 14.84138672 -0.47800781 13.65738281 -0.4375 12.4375 C-0.39431641 11.24962891 -0.35113281 10.06175781 -0.30664062 8.83789062 C-0.20016454 5.89205216 -0.09815159 2.9461257 0 0 Z " fill="#7182FD" transform="translate(98,54)"/>
<path d="M0 0 C0.33 0 0.66 0 1 0 C1.33 3.63 1.66 7.26 2 11 C2.66 11 3.32 11 4 11 C4.33 10.67 4.66 10.34 5 10 C7.86267567 9.92674832 10.700719 9.90761795 13.5625 9.9375 C14.36880859 9.94201172 15.17511719 9.94652344 16.00585938 9.95117188 C18.00393756 9.96299482 20.00197783 9.98093086 22 10 C22 12.97 22 15.94 22 19 C22.66 19 23.32 19 24 19 C24.33 18.01 24.66 17.02 25 16 C26 17 26 17 26.11352539 19.22485352 C26.10828857 20.18319092 26.10305176 21.14152832 26.09765625 22.12890625 C26.09443359 23.16337891 26.09121094 24.19785156 26.08789062 25.26367188 C26.07532227 26.8965918 26.07532227 26.8965918 26.0625 28.5625 C26.05798828 29.65498047 26.05347656 30.74746094 26.04882812 31.87304688 C26.03699826 34.58208495 26.02051543 37.29101599 26 40 C28.31 40.66 30.62 41.32 33 42 C32 44 32 44 30.34521484 44.61450195 C25.49200924 45.41225457 20.54404055 45.18590312 15.63769531 45.18530273 C13.63863013 45.18748512 11.63960468 45.20599143 9.640625 45.22460938 C8.36960937 45.22654297 7.09859375 45.22847656 5.7890625 45.23046875 C4.63100098 45.23457764 3.47293945 45.23868652 2.27978516 45.24291992 C-1.11310954 44.99162245 -3.83332989 44.21173908 -7 43 C-6 41 -6 41 0 39 C0 26.13 0 13.26 0 0 Z " fill="#5F54E4" transform="translate(101,86)"/>
<path d="M0 0 C0 2.97 0 5.94 0 9 C-0.969375 9.28875 -1.93875 9.5775 -2.9375 9.875 C-6.10664203 10.64214682 -6.10664203 10.64214682 -7 13 C-7.45565588 17.050918 -7.45565588 17.050918 -5.80859375 20.5859375 C-3.56396384 22.34091812 -1.55436719 22.93971804 1.1875 23.6875 C2.08855469 23.93886719 2.98960938 24.19023438 3.91796875 24.44921875 C4.60503906 24.63097656 5.29210937 24.81273438 6 25 C6 26.32 6 27.64 6 29 C15.24 28.67 24.48 28.34 34 28 C33.67 28.66 33.34 29.32 33 30 C30.35139573 30.59355614 27.70802678 30.74209269 25 31 C25 31.66 25 32.32 25 33 C39.19 33 53.38 33 68 33 C67.67 32.34 67.34 31.68 67 31 C65.845 30.835 64.69 30.67 63.5 30.5 C62.345 30.335 61.19 30.17 60 30 C59.505 29.01 59.505 29.01 59 28 C64.45769811 27.88861841 69.61509359 28.08342019 75 29 C75 31.64 75 34.28 75 37 C67.71409984 37.04682155 60.42823335 37.08211748 53.14221191 37.10362434 C49.75718789 37.11395864 46.37226851 37.12792229 42.98730469 37.15087891 C4.5625541 37.39227608 4.5625541 37.39227608 -3 33 C-2.67 31.35 -2.34 29.7 -2 28 C-5.34252724 27.92572162 -7.8035914 27.93453047 -11 29 C-12.32 27.68 -13.64 26.36 -15 25 C-14.649375 24.071875 -14.29875 23.14375 -13.9375 22.1875 C-12.67617372 19.0197047 -12.67617372 19.0197047 -14 16 C-14.99 15.67 -15.98 15.34 -17 15 C-16.25 9.25 -16.25 9.25 -14 7 C-12.66666667 7.33333333 -11.33333333 7.66666667 -10 8 C-7.71271266 6.16116119 -7.71271266 6.16116119 -7.875 3.375 C-7.91625 2.59125 -7.9575 1.8075 -8 1 C-5.07175348 0.02391783 -3.04386724 -0.08226668 0 0 Z " fill="#EAEBF2" transform="translate(26,88)"/>
<path d="M0 0 C7.92 0 15.84 0 24 0 C24.495 1.98 24.495 1.98 25 4 C31.6 4 38.2 4 45 4 C45 6.33333333 45 8.66666667 45 11 C45.165 11.825 45.33 12.65 45.5 13.5 C46 16 46 16 46 18 C41.38 18 36.76 18 32 18 C32 15.03 32 12.06 32 9 C29.69 9 27.38 9 25 9 C25.01571045 10.12027588 25.01571045 10.12027588 25.03173828 11.26318359 C25.0732077 14.63375508 25.09929729 18.004273 25.125 21.375 C25.14175781 22.550625 25.15851563 23.72625 25.17578125 24.9375 C25.18544922 26.61972656 25.18544922 26.61972656 25.1953125 28.3359375 C25.21102295 29.89127197 25.21102295 29.89127197 25.22705078 31.47802734 C25 34 25 34 23 36 C20.76086426 36.25396729 20.76086426 36.25396729 17.93945312 36.25878906 C16.35771301 36.26824554 16.35771301 36.26824554 14.74401855 36.27789307 C13.60130493 36.2738446 12.45859131 36.26979614 11.28125 36.265625 C9.52802429 36.26849518 9.52802429 36.26849518 7.73937988 36.27142334 C5.26456487 36.27278626 2.78974274 36.26908241 0.31494141 36.26074219 C-3.48421205 36.25004446 -7.28289259 36.26063418 -11.08203125 36.2734375 C-13.48177188 36.27211592 -15.88151222 36.26955357 -18.28125 36.265625 C-19.99532043 36.27169769 -19.99532043 36.27169769 -21.74401855 36.27789307 C-22.79851196 36.27158875 -23.85300537 36.26528442 -24.93945312 36.25878906 C-25.8705188 36.25719788 -26.80158447 36.25560669 -27.76086426 36.25396729 C-30 36 -30 36 -32 34 C-32.22705078 31.01904297 -32.22705078 31.01904297 -32.1953125 27.2421875 C-32.1924826 26.57913605 -32.18965271 25.91608459 -32.18673706 25.23294067 C-32.17553435 23.11344417 -32.15043051 20.99436896 -32.125 18.875 C-32.11497028 17.43880818 -32.10584441 16.00260975 -32.09765625 14.56640625 C-32.075595 11.04413372 -32.04106494 7.52210797 -32 4 C-31.01 4 -30.02 4 -29 4 C-29 13.57 -29 23.14 -29 33 C-12.17 33 4.66 33 22 33 C22 22.77 22 12.54 22 2 C14.74 2 7.48 2 0 2 C0 1.34 0 0.68 0 0 Z " fill="#37D6C9" transform="translate(73,45)"/>
<path d="M0 0 C1.12019531 -0.00128906 2.24039063 -0.00257812 3.39453125 -0.00390625 C4.57402344 -0.00003906 5.75351562 0.00382812 6.96875 0.0078125 C8.73798828 0.00201172 8.73798828 0.00201172 10.54296875 -0.00390625 C12.22326172 -0.00197266 12.22326172 -0.00197266 13.9375 0 C14.97326172 0.00112793 16.00902344 0.00225586 17.07617188 0.00341797 C19.46875 0.1328125 19.46875 0.1328125 20.46875 1.1328125 C20.56861975 3.97616298 20.60752881 6.78978413 20.59375 9.6328125 C20.59955078 10.82970703 20.59955078 10.82970703 20.60546875 12.05078125 C20.59535767 18.00620483 20.59535767 18.00620483 19.46875 19.1328125 C17.62715977 19.23240871 15.78178033 19.26361661 13.9375 19.265625 C12.81730469 19.26691406 11.69710937 19.26820312 10.54296875 19.26953125 C9.36347656 19.26566406 8.18398438 19.26179688 6.96875 19.2578125 C5.19951172 19.26361328 5.19951172 19.26361328 3.39453125 19.26953125 C1.71423828 19.26759766 1.71423828 19.26759766 0 19.265625 C-1.03576172 19.26449707 -2.07152344 19.26336914 -3.13867188 19.26220703 C-5.53125 19.1328125 -5.53125 19.1328125 -6.53125 18.1328125 C-6.63111975 15.28946202 -6.67002881 12.47584087 -6.65625 9.6328125 C-6.66011719 8.83488281 -6.66398437 8.03695312 -6.66796875 7.21484375 C-6.65573175 0.007248 -6.65573175 0.007248 0 0 Z " fill="#3BD9C9" transform="translate(39.53125,85.8671875)"/>
<path d="M0 0 C3.0000624 -0.02721831 5.99987256 -0.04694378 9 -0.0625 C9.83917969 -0.07087891 10.67835937 -0.07925781 11.54296875 -0.08789062 C12.79013672 -0.09272461 12.79013672 -0.09272461 14.0625 -0.09765625 C15.19365234 -0.10551147 15.19365234 -0.10551147 16.34765625 -0.11352539 C19.91451913 0.03914317 23.45744034 0.55718004 27 1 C27 7.93 27 14.86 27 22 C20.07 22 13.14 22 6 22 C6 21.01 6 20.02 6 19 C4.02 19 2.04 19 0 19 C0 18.34 0 17.68 0 17 C1.98 17 3.96 17 6 17 C6 15.68 6 14.36 6 13 C4.02 13 2.04 13 0 13 C0 12.34 0 11.68 0 11 C1.98 11 3.96 11 6 11 C6 9.68 6 8.36 6 7 C4.02 7 2.04 7 0 7 C0 6.34 0 5.68 0 5 C1.98 5 3.96 5 6 5 C6 4.01 6 3.02 6 2 C3.03 1.505 3.03 1.505 0 1 C0 0.67 0 0.34 0 0 Z " fill="#3FB7D8" transform="translate(7,58)"/>
<path d="M0 0 C6.6 0 13.2 0 20 0 C20 1.33333333 20 2.66666667 20 4 C17.36 4 14.72 4 12 4 C12.04125 4.94875 12.0825 5.8975 12.125 6.875 C12 10 12 10 10 12 C10.33 12.66 10.66 13.32 11 14 C10.34 14 9.68 14 9 14 C9 14.66 9 15.32 9 16 C17.58 16 26.16 16 35 16 C35 17.65 35 19.3 35 21 C21.47 21 7.94 21 -6 21 C-6.33 15.72 -6.66 10.44 -7 5 C-2 3 -2 3 0 3 C0 2.01 0 1.02 0 0 Z " fill="#6C73FE" transform="translate(66,81)"/>
<path d="M0 0 C1.32 0 2.64 0 4 0 C4 6.6 4 13.2 4 20 C6.31 20 8.62 20 11 20 C12 21 12 21 12.11352539 22.85766602 C12.10828857 23.64842529 12.10305176 24.43918457 12.09765625 25.25390625 C12.09443359 26.10791016 12.09121094 26.96191406 12.08789062 27.84179688 C12.07951172 28.73962891 12.07113281 29.63746094 12.0625 30.5625 C12.05798828 31.46419922 12.05347656 32.36589844 12.04882812 33.29492188 C12.03700225 35.53001314 12.0205222 37.76497437 12 40 C10.68 40.66 9.36 41.32 8 42 C8 39.03 8 36.06 8 33 C5.20743781 33.11361602 2.41655882 33.2403589 -0.375 33.375 C-1.1690625 33.4059375 -1.963125 33.436875 -2.78125 33.46875 C-7.36667375 33.51816421 -7.36667375 33.51816421 -11 36 C-13.65450267 33.34549733 -13.41639121 31.69774614 -13.6875 28 C-13.77386719 26.9275 -13.86023438 25.855 -13.94921875 24.75 C-14 22 -14 22 -13 20 C-8.71 20 -4.42 20 0 20 C0 13.4 0 6.8 0 0 Z " fill="#5E4CFA" transform="translate(115,63)"/>
<path d="M0 0 C0 1.98 0 3.96 0 6 C6.06050614 7.0812391 6.06050614 7.0812391 12 6 C16 11.75 16 11.75 16 14 C13.39820337 15.30089831 11.4030812 15.16840078 8.5 15.1875 C7.5203125 15.20167969 6.540625 15.21585938 5.53125 15.23046875 C3 15 3 15 1 13 C-4.54235245 12.42765564 -4.54235245 12.42765564 -9.5 14.5 C-11.71177972 18.18629954 -11.34421275 20.73176192 -11 25 C-10.67 25.66 -10.34 26.32 -10 27 C-13.3 27 -16.6 27 -20 27 C-19.67 24.69 -19.34 22.38 -19 20 C-20.32 19.01 -21.64 18.02 -23 17 C-22.44271087 13.65626525 -21.64826111 10.96687001 -20 8 C-18.9275 8.20625 -17.855 8.4125 -16.75 8.625 C-13.12380904 8.9876191 -11.91708924 8.98362069 -9 7 C-9.33 5.02 -9.66 3.04 -10 1 C-3.375 0 -3.375 0 0 0 Z " fill="#E9EBF1" transform="translate(106,18)"/>
<path d="M0 0 C1.58206057 0.00667536 3.16410534 0.0186375 4.74609375 0.03515625 C5.55240234 0.03966797 6.35871094 0.04417969 7.18945312 0.04882812 C9.18753131 0.06065107 11.18557158 0.07858711 13.18359375 0.09765625 C13.21043687 2.91021906 13.23035563 5.72252866 13.24609375 8.53515625 C13.25447266 9.33759766 13.26285156 10.14003906 13.27148438 10.96679688 C13.28010805 13.01060846 13.23587525 15.05449527 13.18359375 17.09765625 C11.36243372 18.91881628 8.87687611 18.23000705 6.45703125 18.234375 C5.70679687 18.23050781 4.9565625 18.22664063 4.18359375 18.22265625 C3.05824219 18.22845703 3.05824219 18.22845703 1.91015625 18.234375 C-3.68979572 18.22426678 -3.68979572 18.22426678 -4.81640625 17.09765625 C-4.91621839 14.42034245 -4.955205 11.7746145 -4.94140625 9.09765625 C-4.94527344 8.34742187 -4.94914062 7.5971875 -4.953125 6.82421875 C-4.94103514 0.12643386 -4.94103514 0.12643386 0 0 Z " fill="#45B8F2" transform="translate(109.81640625,95.90234375)"/>
<path d="M0 0 C0.66 0.33 1.32 0.66 2 1 C2 7.93 2 14.86 2 22 C-6.25 22 -14.5 22 -23 22 C-23 15 -23 15 -21.515625 12.578125 C-17.98752275 10.36484347 -14.76968174 10.56535031 -10.75 10.75 C-9.63238281 10.77707031 -9.63238281 10.77707031 -8.4921875 10.8046875 C-6.66090299 10.85164351 -4.83028351 10.92338348 -3 11 C-2.67 8.36 -2.34 5.72 -2 3 C-1.34 3 -0.68 3 0 3 C0 2.01 0 1.02 0 0 Z " fill="#7181FE" transform="translate(125,102)"/>
<path d="M0 0 C5.61 0 11.22 0 17 0 C17 5.61 17 11.22 17 17 C11.39 17 5.78 17 0 17 C0 11.33333333 0 5.66666667 0 0 Z " fill="#3D4D9A" transform="translate(15,34)"/>
<path d="M0 0 C1.25554687 -0.00128906 2.51109375 -0.00257812 3.8046875 -0.00390625 C4.46178711 -0.00181152 5.11888672 0.0002832 5.79589844 0.00244141 C7.80411335 0.00779016 9.81210459 0.00249559 11.8203125 -0.00390625 C13.07585937 -0.00261719 14.33140625 -0.00132813 15.625 0 C16.78644531 0.00112793 17.94789063 0.00225586 19.14453125 0.00341797 C21.8125 0.1328125 21.8125 0.1328125 22.8125 1.1328125 C22.88476502 2.98568752 22.8963122 4.84115128 22.875 6.6953125 C22.86597656 7.70722656 22.85695312 8.71914063 22.84765625 9.76171875 C22.83605469 10.54417969 22.82445312 11.32664062 22.8125 12.1328125 C22.20664063 11.8234375 21.60078125 11.5140625 20.9765625 11.1953125 C18.76772995 10.06952024 18.76772995 10.06952024 16.1875 9.1328125 C13.8125 8.1328125 13.8125 8.1328125 11.8125 6.1328125 C9.35508463 5.63266297 9.35508463 5.63266297 6.8125 6.1328125 C5.79844743 7.45548977 4.79981742 8.79006081 3.8125 10.1328125 C0.9375 11.2578125 0.9375 11.2578125 -2.1875 12.1328125 C-3.85913195 12.78692935 -5.52672082 13.45161155 -7.1875 14.1328125 C-7.21435938 11.98704613 -7.23383088 9.84118605 -7.25 7.6953125 C-7.26160156 6.50035156 -7.27320312 5.30539063 -7.28515625 4.07421875 C-7.11114431 -1.16702086 -4.66394941 0.00452936 0 0 Z " fill="#36D1D4" transform="translate(112.1875,32.8671875)"/>
<path d="M0 0 C2.62561109 -0.08074203 5.24875676 -0.1403623 7.875 -0.1875 C8.99455078 -0.22520508 8.99455078 -0.22520508 10.13671875 -0.26367188 C12.3046875 -0.29296875 12.3046875 -0.29296875 16 0 C16.66 0.99 17.32 1.98 18 3 C18.639375 2.814375 19.27875 2.62875 19.9375 2.4375 C20.618125 2.293125 21.29875 2.14875 22 2 C23 3 23 3 23 12 C14.42 12 5.84 12 -3 12 C-3.33 10.68 -3.66 9.36 -4 8 C-3.01 7.34 -2.02 6.68 -1 6 C-0.26656572 2.93443402 -0.26656572 2.93443402 0 0 Z " fill="#7285FE" transform="translate(78,85)"/>
<path d="M0 0 C2.31 0 4.62 0 7 0 C7.08751413 3.87485635 7.14056435 7.74945643 7.1875 11.625 C7.21263672 12.71941406 7.23777344 13.81382813 7.26367188 14.94140625 C7.31690288 20.79681683 7.29983099 25.06324498 4 30 C3.01 30 2.02 30 1 30 C0.67 23.4 0.34 16.8 0 10 C-2.64 10 -5.28 10 -8 10 C-8 8.02 -8 6.04 -8 4 C-5.36 4 -2.72 4 0 4 C0 2.68 0 1.36 0 0 Z " fill="#5A38FF" transform="translate(34,49)"/>
<path d="M0 0 C6.6 0 13.2 0 20 0 C20 2.33333333 20 4.66666667 20 7 C20.2475 8.2375 20.2475 8.2375 20.5 9.5 C21 12 21 12 21 14 C16.38 14 11.76 14 7 14 C7 11.03 7 8.06 7 5 C4.69 5 2.38 5 0 5 C0 3.35 0 1.7 0 0 Z " fill="#39C6D7" transform="translate(98,49)"/>
<path d="M0 0 C3.15973987 0.30092761 3.54183127 0.99323388 5.625 3.25 C6.470625 3.559375 7.31625 3.86875 8.1875 4.1875 C10.625 5.25 10.625 5.25 12.625 9.25 C8.335 9.25 4.045 9.25 -0.375 9.25 C-0.375 11.56 -0.375 13.87 -0.375 16.25 C0.285 16.58 0.945 16.91 1.625 17.25 C0.965 18.24 0.305 19.23 -0.375 20.25 C-4.25 18.5 -4.25 18.5 -5.375 16.25 C-4.715 16.25 -4.055 16.25 -3.375 16.25 C-3.375 14.6 -3.375 12.95 -3.375 11.25 C-9.975 11.25 -16.575 11.25 -23.375 11.25 C-23.375 10.59 -23.375 9.93 -23.375 9.25 C-22.34375 9.3325 -21.3125 9.415 -20.25 9.5 C-15.72857812 9.20829536 -14.0256402 7.78957579 -10.375 5.25 C-7.5 5 -7.5 5 -5.375 5.25 C-5.065625 4.610625 -4.75625 3.97125 -4.4375 3.3125 C-2.88764755 0.3039629 -2.88764755 0.3039629 0 0 Z " fill="#F6FCFD" transform="translate(121.375,37.75)"/>
<path d="M0 0 C0 0.99 0 1.98 0 3 C5.28 3.33 10.56 3.66 16 4 C16.495 5.485 16.495 5.485 17 7 C2.81 7 -11.38 7 -26 7 C-26 6.34 -26 5.68 -26 5 C-23.98177083 4.609375 -21.96354167 4.21875 -19.9453125 3.828125 C-17.80537664 3.1751665 -17.80537664 3.1751665 -17.07421875 0.9765625 C-16.71972656 0.32429688 -16.36523438 -0.32796875 -16 -1 C-13.57421875 -1.6796875 -13.57421875 -1.6796875 -10.6875 -1.875 C-9.27017578 -1.99488281 -9.27017578 -1.99488281 -7.82421875 -2.1171875 C-4.79676802 -1.99156714 -2.72576332 -1.28095981 0 0 Z " fill="#A1C5FE" transform="translate(77,114)"/>
<path d="M0 0 C13.53 0 27.06 0 41 0 C41 1.65 41 3.3 41 5 C27.47 5 13.94 5 0 5 C0 3.35 0 1.7 0 0 Z " fill="#3C3D89" transform="translate(60,97)"/>
<path d="M0 0 C1.98 0 3.96 0 6 0 C6.33 0.66 6.66 1.32 7 2 C12.94 2.33 18.88 2.66 25 3 C25.33 3.99 25.66 4.98 26 6 C25.01 6 24.02 6 23 6 C21.55245745 7.44754255 21.44266439 9.03962913 21 11 C17.68751813 11.02888146 14.37506833 11.04675799 11.0625 11.0625 C10.11697266 11.07087891 9.17144531 11.07925781 8.19726562 11.08789062 C6.84858398 11.09272461 6.84858398 11.09272461 5.47265625 11.09765625 C4.64000244 11.10289307 3.80734863 11.10812988 2.94946289 11.11352539 C1 11 1 11 0 10 C-0.07205511 8.31391034 -0.08386068 6.62499341 -0.0625 4.9375 C-0.05347656 4.01839844 -0.04445313 3.09929687 -0.03515625 2.15234375 C-0.02355469 1.44207031 -0.01195313 0.73179688 0 0 Z " fill="#C4DBFE" transform="translate(27,102)"/>
<path d="M0 0 C2.31 0.33 4.62 0.66 7 1 C7.33 2.65 7.66 4.3 8 6 C7.34 6 6.68 6 6 6 C6 7.32 6 8.64 6 10 C6.66 10.33 7.32 10.66 8 11 C7.34 12.65 6.68 14.3 6 16 C3.69 16 1.38 16 -1 16 C-1 16.99 -1 17.98 -1 19 C-2.65 19 -4.3 19 -6 19 C-6.226875 18.360625 -6.45375 17.72125 -6.6875 17.0625 C-7.85250896 14.72806339 -7.85250896 14.72806339 -10.625 14.25 C-11.40875 14.1675 -12.1925 14.085 -13 14 C-13.33 12.68 -13.66 11.36 -14 10 C-13.34 10 -12.68 10 -12 10 C-12.66 7.69 -13.32 5.38 -14 3 C-11.36 3 -8.72 3 -6 3 C-6.20625 4.11375 -6.4125 5.2275 -6.625 6.375 C-6.74875 7.57125 -6.8725 8.7675 -7 10 C-5.10244856 12.34973818 -5.10244856 12.34973818 -1.875 12.125 C-0.451875 12.063125 -0.451875 12.063125 1 12 C1.29562367 6.67829506 1.29562367 6.67829506 -1 2 C-0.67 1.34 -0.34 0.68 0 0 Z " fill="#EAEBF2" transform="translate(135,60)"/>
<path d="M0 0 C1.5631897 0.00785522 1.5631897 0.00785522 3.15795898 0.01586914 C4.28266602 0.0190918 5.40737305 0.02231445 6.56616211 0.02563477 C7.75016602 0.03401367 8.93416992 0.04239258 10.15405273 0.05102539 C11.34192383 0.05553711 12.52979492 0.06004883 13.75366211 0.06469727 C16.69967499 0.07652864 19.64558954 0.09301252 22.59155273 0.11352539 C22.26155273 0.77352539 21.93155273 1.43352539 21.59155273 2.11352539 C19.60587565 2.08097331 17.62019857 2.04842122 15.63452148 2.01586914 C13.38849812 2.03089322 13.38849812 2.03089322 10.59155273 3.11352539 C10.26155273 4.76352539 9.93155273 6.41352539 9.59155273 8.11352539 C8.60155273 8.11352539 7.61155273 8.11352539 6.59155273 8.11352539 C6.59155273 7.12352539 6.59155273 6.13352539 6.59155273 5.11352539 C5.93155273 5.11352539 5.27155273 5.11352539 4.59155273 5.11352539 C4.26155273 6.10352539 3.93155273 7.09352539 3.59155273 8.11352539 C2.93155273 8.77352539 2.27155273 9.43352539 1.59155273 10.11352539 C2.41655273 10.73227539 3.24155273 11.35102539 4.09155273 11.98852539 C4.91655273 12.68977539 5.74155273 13.39102539 6.59155273 14.11352539 C6.59155273 14.77352539 6.59155273 15.43352539 6.59155273 16.11352539 C3.29155273 16.11352539 -0.00844727 16.11352539 -3.40844727 16.11352539 C-3.43529822 13.63428738 -3.45521274 11.15533699 -3.47094727 8.67602539 C-3.48351563 7.61544922 -3.48351563 7.61544922 -3.49633789 6.53344727 C-3.50498314 4.7265898 -3.46064738 2.91964936 -3.40844727 1.11352539 C-2.40844727 0.11352539 -2.40844727 0.11352539 0 0 Z " fill="#41AFE2" transform="translate(36.408447265625,85.886474609375)"/>
<path d="M0 0 C0.99 0 1.98 0 3 0 C3 9.57 3 19.14 3 29 C7.29 29 11.58 29 16 29 C16 29.33 16 29.66 16 30 C35.305 30.495 35.305 30.495 55 31 C55 31.33 55 31.66 55 32 C47.48863592 32.05057965 39.97731551 32.08568257 32.46582031 32.10986328 C29.90883747 32.11994038 27.35186621 32.13360226 24.79492188 32.15087891 C21.12627308 32.17505217 17.45777621 32.18646585 13.7890625 32.1953125 C12.0655809 32.21079636 12.0655809 32.21079636 10.30728149 32.22659302 C9.2463327 32.22674408 8.18538391 32.22689514 7.09228516 32.22705078 C6.15518707 32.231492 5.21808899 32.23593323 4.25259399 32.24050903 C2 32 2 32 0 30 C-0.22705078 27.01904297 -0.22705078 27.01904297 -0.1953125 23.2421875 C-0.1924826 22.57913605 -0.18965271 21.91608459 -0.18673706 21.23294067 C-0.17553435 19.11344417 -0.15043051 16.99436896 -0.125 14.875 C-0.11497028 13.43880818 -0.10584441 12.00260975 -0.09765625 10.56640625 C-0.075595 7.04413372 -0.04106494 3.52210797 0 0 Z " fill="#459BEA" transform="translate(41,49)"/>
<path d="M0 0 C1.32 0 2.64 0 4 0 C4 6.6 4 13.2 4 20 C6.31 20 8.62 20 11 20 C11.33 20.99 11.66 21.98 12 23 C3.19039858 24.30512614 -5.19039858 24.30512614 -14 23 C-13.505 21.515 -13.505 21.515 -13 20 C-8.71 20 -4.42 20 0 20 C0 13.4 0 6.8 0 0 Z " fill="#4C4CA1" transform="translate(115,63)"/>
<path d="M0 0 C6.27 0 12.54 0 19 0 C19 0.99 19 1.98 19 3 C19.99 2.67 20.98 2.34 22 2 C22.91058531 5.07322544 23.08886184 7.80097361 23 11 C22.360625 11.12375 21.72125 11.2475 21.0625 11.375 C20.381875 11.58125 19.70125 11.7875 19 12 C18.67 12.66 18.34 13.32 18 14 C17.01 14 16.02 14 15 14 C15 13.01 15 12.02 15 11 C13.35 10.67 11.7 10.34 10 10 C10 7.69 10 5.38 10 3 C6.7 2.67 3.4 2.34 0 2 C0 1.34 0 0.68 0 0 Z " fill="#DFF4F8" transform="translate(7,63)"/>
<path d="M0 0 C1.31871094 -0.01224609 2.63742188 -0.02449219 3.99609375 -0.03710938 C5.90068359 -0.04000977 5.90068359 -0.04000977 7.84375 -0.04296875 C9.00068359 -0.04707764 10.15761719 -0.05118652 11.34960938 -0.05541992 C14.47736509 0.18575467 16.680892 0.85423629 19.5 2.1875 C18.5 4.1875 18.5 4.1875 16.84521484 4.80200195 C11.99200924 5.59975457 7.04404055 5.37340312 2.13769531 5.37280273 C0.13863013 5.37498512 -1.86039532 5.39349143 -3.859375 5.41210938 C-5.13039063 5.41404297 -6.40140625 5.41597656 -7.7109375 5.41796875 C-8.86899902 5.42207764 -10.02706055 5.42618652 -11.22021484 5.43041992 C-14.61310954 5.17912245 -17.33332989 4.39923908 -20.5 3.1875 C-20.17 2.5275 -19.84 1.8675 -19.5 1.1875 C-13.23640183 -0.60566158 -6.45139424 0.00315317 0 0 Z " fill="#EAEBF2" transform="translate(114.5,125.8125)"/>
<path d="M0 0 C2.60964149 1.03012164 3.83498357 1.58694861 5.375 3.9375 C5.91352618 7.55331862 5.79736225 9.27861489 3.8125 12.375 C1.375 13.9375 1.375 13.9375 -2.25 13.8125 C-5.625 12.9375 -5.625 12.9375 -7.625 10.9375 C-8.0625 7.5625 -8.0625 7.5625 -7.625 3.9375 C-5.12942843 1.08541821 -3.84213882 -0.0914795 0 0 Z " fill="#9BE5E9" transform="translate(115.625,98.0625)"/>
<path d="M0 0 C0 5.61 0 11.22 0 17 C0.99 17 1.98 17 3 17 C3 18.65 3 20.3 3 22 C0.69 22 -1.62 22 -4 22 C-4 15.73 -4 9.46 -4 3 C-10.27 3 -16.54 3 -23 3 C-23 2.34 -23 1.68 -23 1 C-19.91675903 0.83159521 -16.83339379 0.66558138 -13.75 0.5 C-12.87730469 0.45230469 -12.00460938 0.40460938 -11.10546875 0.35546875 C-10.26113281 0.31035156 -9.41679687 0.26523438 -8.546875 0.21875 C-7.38430176 0.1559082 -7.38430176 0.1559082 -6.19824219 0.09179688 C-4.13373418 0.00558463 -2.0663073 0 0 0 Z " fill="#6F72AA" transform="translate(30,80)"/>
<path d="M0 0 C0.93134766 0.00322266 1.86269531 0.00644531 2.82226562 0.00976562 C4.26182617 0.02233398 4.26182617 0.02233398 5.73046875 0.03515625 C6.70951172 0.03966797 7.68855469 0.04417969 8.69726562 0.04882812 C11.10422986 0.06056941 13.51106732 0.07699206 15.91796875 0.09765625 C16.24796875 1.41765625 16.57796875 2.73765625 16.91796875 4.09765625 C15.92796875 4.09765625 14.93796875 4.09765625 13.91796875 4.09765625 C12.92796875 4.59265625 12.92796875 4.59265625 11.91796875 5.09765625 C10.17752705 5.18215253 8.43387153 5.20488649 6.69140625 5.1953125 C5.66015625 5.19208984 4.62890625 5.18886719 3.56640625 5.18554688 C1.94605469 5.17297852 1.94605469 5.17297852 0.29296875 5.16015625 C-1.33898437 5.15338867 -1.33898437 5.15338867 -3.00390625 5.14648438 C-5.69666914 5.13467401 -8.38932313 5.11820403 -11.08203125 5.09765625 C-10.75203125 3.77765625 -10.42203125 2.45765625 -10.08203125 1.09765625 C-6.65629188 0.32237146 -3.5096388 -0.02153153 0 0 Z " fill="#655CFE" transform="translate(50.08203125,80.90234375)"/>
<path d="M0 0 C0.66 0.33 1.32 0.66 2 1 C2 7.93 2 14.86 2 22 C-1.96 22 -5.92 22 -10 22 C-9 20 -9 20 -6 19 C-4.62804426 17.70644173 -3.28817344 16.37701298 -2 15 C-2.66 15 -3.32 15 -4 15 C-3.34 11.04 -2.68 7.08 -2 3 C-1.34 3 -0.68 3 0 3 C0 2.01 0 1.02 0 0 Z " fill="#7693FE" transform="translate(125,102)"/>
<path d="M0 0 C1.32 0.66 2.64 1.32 4 2 C3.690625 2.86625 3.690625 2.86625 3.375 3.75 C2.91338739 6.51967567 3.57055055 7.64561267 5 10 C3.02 10.99 3.02 10.99 1 12 C1.33 10.68 1.66 9.36 2 8 C1.01 7.34 0.02 6.68 -1 6 C-1.99 8.97 -2.98 11.94 -4 15 C-4.66 15 -5.32 15 -6 15 C-6 14.34 -6 13.68 -6 13 C-6.598125 12.9175 -7.19625 12.835 -7.8125 12.75 C-10.5966296 11.79544128 -11.43311142 10.42867729 -13 8 C-11.71034824 6.62437146 -10.37310707 5.29233607 -9 4 C-8.34 4 -7.68 4 -7 4 C-7 4.99 -7 5.98 -7 7 C-6.01 7 -5.02 7 -4 7 C-3.896875 6.21625 -3.79375 5.4325 -3.6875 4.625 C-3 2 -3 2 0 0 Z " fill="#91DAEA" transform="translate(50,87)"/>
<path d="M0 0 C4.95 0 9.9 0 15 0 C15 2.31 15 4.62 15 7 C10.05 7 5.1 7 0 7 C0 4.69 0 2.38 0 0 Z " fill="#A2C2FF" transform="translate(78,85)"/>
<path d="M0 0 C0.33 0.66 0.66 1.32 1 2 C8.59 1.67 16.18 1.34 24 1 C24 1.66 24 2.32 24 3 C19.71 3 15.42 3 11 3 C11 5.31 11 7.62 11 10 C11.66 10.33 12.32 10.66 13 11 C12.01 12.485 12.01 12.485 11 14 C7.125 12.25 7.125 12.25 6 10 C6.66 10 7.32 10 8 10 C8 8.35 8 6.7 8 5 C1.4 5 -5.2 5 -12 5 C-12 4.34 -12 3.68 -12 3 C-10.948125 3.061875 -9.89625 3.12375 -8.8125 3.1875 C-4.84183507 2.9922214 -3.15803031 2.29674932 0 0 Z " fill="#88E0E5" transform="translate(110,44)"/>
<path d="M0 0 C0.33 0 0.66 0 1 0 C1.02684312 2.81256281 1.04676188 5.62487241 1.0625 8.4375 C1.07087891 9.23994141 1.07925781 10.04238281 1.08789062 10.86914062 C1.0965143 12.91295221 1.0522815 14.95683902 1 17 C0 18 0 18 -2.06640625 18.09765625 C-2.89011719 18.08605469 -3.71382812 18.07445313 -4.5625 18.0625 C-5.38878906 18.05347656 -6.21507813 18.04445313 -7.06640625 18.03515625 C-8.02353516 18.01775391 -8.02353516 18.01775391 -9 18 C-9.25 15.75 -9.25 15.75 -9 13 C-7.125 10.6875 -7.125 10.6875 -5 9 C-4.34 9 -3.68 9 -3 9 C-3 7.35 -3 5.7 -3 4 C-2.34 4 -1.68 4 -1 4 C-0.67 2.68 -0.34 1.36 0 0 Z " fill="#36DFC3" transform="translate(134,45)"/>
<path d="M0 0 C2.31 0 4.62 0 7 0 C7 2.97 7 5.94 7 9 C7.66 9.33 8.32 9.66 9 10 C8.01 10.33 7.02 10.66 6 11 C4.79117904 13.00016466 4.79117904 13.00016466 4 15 C2.68 15 1.36 15 0 15 C0 10.05 0 5.1 0 0 Z " fill="#6B74FD" transform="translate(98,54)"/>
<path d="M0 0 C5.19209404 -0.21192221 9.126739 0.4087311 14 2 C12.71034824 3.37562854 11.37310707 4.70766393 10 6 C9.34 6 8.68 6 8 6 C7.67 6.66 7.34 7.32 7 8 C5.35353315 9.68662458 3.68816933 11.35511706 2 13 C0 11 0 11 -0.1953125 8.3984375 C-0.17210938 7.40070313 -0.14890625 6.40296875 -0.125 5.375 C-0.10695313 4.37210937 -0.08890625 3.36921875 -0.0703125 2.3359375 C-0.04710938 1.56507812 -0.02390625 0.79421875 0 0 Z " fill="#5B3AFF" transform="translate(102,86)"/>
<path d="M0 0 C1.65 0 3.3 0 5 0 C5 2.64 5 5.28 5 8 C6.32 8.33 7.64 8.66 9 9 C9 9.99 9 10.98 9 12 C4.05 12 -0.9 12 -6 12 C-6 11.34 -6 10.68 -6 10 C-4.02 10 -2.04 10 0 10 C0 8.68 0 7.36 0 6 C-1.98 6 -3.96 6 -6 6 C-6 5.34 -6 4.68 -6 4 C-4.02 4 -2.04 4 0 4 C0 2.68 0 1.36 0 0 Z " fill="#75D6E2" transform="translate(13,65)"/>
<path d="M0 0 C5.94 0 11.88 0 18 0 C18 3 18 3 17 5 C11.39 5 5.78 5 0 5 C0 3.35 0 1.7 0 0 Z " fill="#34ACC5" transform="translate(98,49)"/>
<path d="M0 0 C0.33 0 0.66 0 1 0 C1 2.97 1 5.94 1 9 C-5.93 9 -12.86 9 -20 9 C-20 8.01 -20 7.02 -20 6 C-18.44539063 5.90912109 -18.44539063 5.90912109 -16.859375 5.81640625 C-15.48957127 5.73196629 -14.11978025 5.64732003 -12.75 5.5625 C-12.06808594 5.52318359 -11.38617188 5.48386719 -10.68359375 5.44335938 C-7.35551959 5.23333528 -4.19744598 4.98065998 -1 4 C-0.67 2.68 -0.34 1.36 0 0 Z " fill="#35DAC4" transform="translate(33,71)"/>
<path d="M0 0 C1.32 0 2.64 0 4 0 C4 6.6 4 13.2 4 20 C2.68 19.67 1.36 19.34 0 19 C0 12.73 0 6.46 0 0 Z " fill="#3E3E8B" transform="translate(115,63)"/>
<path d="M0 0 C0.89332031 0.13921875 1.78664063 0.2784375 2.70703125 0.421875 C3.60808594 0.55078125 4.50914063 0.6796875 5.4375 0.8125 C6.12457031 0.93109375 6.81164062 1.0496875 7.51953125 1.171875 C7.51953125 1.831875 7.51953125 2.491875 7.51953125 3.171875 C6.52953125 3.666875 6.52953125 3.666875 5.51953125 4.171875 C5.51953125 5.161875 5.51953125 6.151875 5.51953125 7.171875 C2.02415974 8.33699884 -0.78455805 9.171875 -4.48046875 9.171875 C-4.81046875 9.831875 -5.14046875 10.491875 -5.48046875 11.171875 C-5.84451984 4.86165602 -5.84451984 4.86165602 -4.29296875 1.921875 C-2.48046875 0.171875 -2.48046875 0.171875 0 0 Z " fill="#6B71FE" transform="translate(107.48046875,112.828125)"/>
<path d="M0 0 C12.87 0 25.74 0 39 0 C39 0.66 39 1.32 39 2 C29.43 2 19.86 2 10 2 C10 2.66 10 3.32 10 4 C9.01 4 8.02 4 7 4 C7 3.34 7 2.68 7 2 C4.69 2 2.38 2 0 2 C0 1.34 0 0.68 0 0 Z " fill="#64D4E1" transform="translate(34,45)"/>
<path d="M0 0 C1.67542976 0.28604898 3.34385343 0.61781233 5 1 C6.00619398 5.3266341 6.36822864 8.12471677 4 12 C1.4140625 13.140625 1.4140625 13.140625 -1 14 C-1.02685938 11.85423363 -1.04633088 9.70837355 -1.0625 7.5625 C-1.07410156 6.36753906 -1.08570312 5.17257813 -1.09765625 3.94140625 C-1 1 -1 1 0 0 Z " fill="#32C6DF" transform="translate(106,33)"/>
<path d="M0 0 C0.4125 0.515625 0.825 1.03125 1.25 1.5625 C2.11625 2.2740625 2.11625 2.2740625 3 3 C5.10820797 2.6814823 5.10820797 2.6814823 7 2 C8 3 8 3 8.09765625 5.06640625 C8.06510417 7.37760417 8.03255208 9.68880208 8 12 C4.7 12 1.4 12 -2 12 C-1.67 11.01 -1.34 10.02 -1 9 C-0.34 8.67 0.32 8.34 1 8 C0.67 7.67 0.34 7.34 0 7 C-0.04092937 4.66702567 -0.04241723 2.33294775 0 0 Z " fill="#7792FE" transform="translate(93,85)"/>
<path d="M0 0 C8.58 0 17.16 0 26 0 C25.67 0.99 25.34 1.98 25 3 C17.08 3 9.16 3 1 3 C0.67 2.01 0.34 1.02 0 0 Z " fill="#4C4CA0" transform="translate(101,124)"/>
<path d="M0 0 C0 4.62 0 9.24 0 14 C-1.98 14.99 -1.98 14.99 -4 16 C-4 13.03 -4 10.06 -4 7 C-5.65 7 -7.3 7 -9 7 C-8.67 6.01 -8.34 5.02 -8 4 C-7.34 3.67 -6.68 3.34 -6 3 C-6 2.34 -6 1.68 -6 1 C-1.125 0 -1.125 0 0 0 Z " fill="#6761FF" transform="translate(127,89)"/>
<path d="M0 0 C6.27 0 12.54 0 19 0 C19 1.65 19 3.3 19 5 C14.71 5 10.42 5 6 5 C6 4.01 6 3.02 6 2 C3.03 1.505 3.03 1.505 0 1 C0 0.67 0 0.34 0 0 Z " fill="#71D3E5" transform="translate(7,58)"/>
<path d="M0 0 C0.99 0 1.98 0 3 0 C4.26237731 2.52475462 4.09856404 4.31200466 4.0625 7.125 C4.05347656 8.03507812 4.04445313 8.94515625 4.03515625 9.8828125 C4.02355469 10.58148438 4.01195313 11.28015625 4 12 C1.36 12 -1.28 12 -4 12 C-4.33 11.01 -4.66 10.02 -5 9 C-3.39881603 6.94720004 -1.73223664 4.94348501 0 3 C0 2.67 0 2.34 0 2 C0 1.34 0 0.68 0 0 Z " fill="#758DFE" transform="translate(111,70)"/>
<path d="M0 0 C2.97 0 5.94 0 9 0 C8.25 6.625 8.25 6.625 6 10 C4.35 10 2.7 10 1 10 C0.67 6.7 0.34 3.4 0 0 Z " fill="#6ED5E4" transform="translate(110,33)"/>
<path d="M0 0 C2.31 0 4.62 0 7 0 C7 1.65 7 3.3 7 5 C3.37 5 -0.26 5 -4 5 C-4 6.65 -4 8.3 -4 10 C-5.32 10 -6.64 10 -8 10 C-8 8.02 -8 6.04 -8 4 C-5.36 4 -2.72 4 0 4 C0 2.68 0 1.36 0 0 Z " fill="#3D418D" transform="translate(34,49)"/>
<path d="M0 0 C0 3.3 0 6.6 0 10 C-5 10 -5 10 -6.875 8.3125 C-8.27861489 5.42729162 -7.92054342 4.01268757 -7 1 C-2.25 0 -2.25 0 0 0 Z " fill="#41C9D7" transform="translate(60,87)"/>
<path d="M0 0 C1.24716797 0.00322266 2.49433594 0.00644531 3.77929688 0.00976562 C5.07287109 0.01814453 6.36644531 0.02652344 7.69921875 0.03515625 C9.66858398 0.04192383 9.66858398 0.04192383 11.67773438 0.04882812 C14.91410885 0.06059676 18.15039053 0.07703865 21.38671875 0.09765625 C21.05671875 0.75765625 20.72671875 1.41765625 20.38671875 2.09765625 C19.73074707 2.11747559 19.07477539 2.13729492 18.39892578 2.15771484 C15.43610806 2.25278132 12.47401343 2.36253377 9.51171875 2.47265625 C7.96291016 2.5190625 7.96291016 2.5190625 6.3828125 2.56640625 C4.90361328 2.62441406 4.90361328 2.62441406 3.39453125 2.68359375 C2.4833252 2.71501465 1.57211914 2.74643555 0.63330078 2.77880859 C-1.81259311 2.89648136 -1.81259311 2.89648136 -3.61328125 5.09765625 C-6.34197532 5.06478042 -8.90994305 4.53367854 -11.61328125 4.09765625 C-11.61328125 3.10765625 -11.61328125 2.11765625 -11.61328125 1.09765625 C-7.68039761 0.16677716 -4.03673962 -0.0184326 0 0 Z " fill="#D9D9E8" transform="translate(106.61328125,125.90234375)"/>
<path d="M0 0 C1.2684375 0.12375 1.2684375 0.12375 2.5625 0.25 C4.5625 3.25 4.5625 3.25 4.25 5.375 C3.5625 7.25 3.5625 7.25 2.5625 8.25 C0.125 8.4375 0.125 8.4375 -2.4375 8.25 C-3.0975 7.59 -3.7575 6.93 -4.4375 6.25 C-3.72185719 0.38172894 -3.72185719 0.38172894 0 0 Z " fill="#47D4E1" transform="translate(114.4375,100.75)"/>
<path d="M0 0 C0.02685938 2.14576637 0.04633088 4.29162645 0.0625 6.4375 C0.07410156 7.63246094 0.08570312 8.82742187 0.09765625 10.05859375 C0 13 0 13 -1 14 C-2.85287502 14.07226502 -4.70833878 14.0838122 -6.5625 14.0625 C-7.57441406 14.05347656 -8.58632812 14.04445313 -9.62890625 14.03515625 C-10.41136719 14.02355469 -11.19382812 14.01195313 -12 14 C-11 12 -11 12 -8.0625 11 C-7.051875 10.67 -6.04125 10.34 -5 10 C-2.58878141 8.04366025 -2.58878141 8.04366025 -2.875 4.375 C-2.91625 3.26125 -2.9575 2.1475 -3 1 C-1 0 -1 0 0 0 Z " fill="#3CDAD2" transform="translate(123,100)"/>
<path d="M0 0 C7.92 0 15.84 0 24 0 C24.33 1.32 24.66 2.64 25 4 C24.01 4 23.02 4 22 4 C22 3.34 22 2.68 22 2 C14.74 2 7.48 2 0 2 C0 1.34 0 0.68 0 0 Z " fill="#49D6D4" transform="translate(73,45)"/>
<path d="M0 0 C0.33 1.32 0.66 2.64 1 4 C2.32 4.33 3.64 4.66 5 5 C4.67 5.99 4.34 6.98 4 8 C4 8.99 4 9.98 4 11 C4 11.99 4 12.98 4 14 C2.02 14 0.04 14 -2 14 C-2.33 13.34 -2.66 12.68 -3 12 C-2.67 11.01 -2.34 10.02 -2 9 C-1.34 9 -0.68 9 0 9 C0 7.68 0 6.36 0 5 C0 3.33333333 0 1.66666667 0 0 Z " fill="#37DAC9" transform="translate(121,49)"/>
<path d="M0 0 C0.66 0 1.32 0 2 0 C2 2.97 2 5.94 2 9 C4.97 9.33 7.94 9.66 11 10 C11 10.33 11 10.66 11 11 C5.39 11 -0.22 11 -6 11 C-6 10.67 -6 10.34 -6 10 C-4.35 9.67 -2.7 9.34 -1 9 C-0.67 7.68 -0.34 6.36 0 5 C-1.98 5 -3.96 5 -6 5 C-6 4.67 -6 4.34 -6 4 C-4.35 3.67 -2.7 3.34 -1 3 C-0.67 2.01 -0.34 1.02 0 0 Z " fill="#73D8E0" transform="translate(13,42)"/>
<path d="M0 0 C2.64 0 5.28 0 8 0 C7.67 1.32 7.34 2.64 7 4 C5.35 4 3.7 4 2 4 C2.33 4.99 2.66 5.98 3 7 C2.01 7.33 1.02 7.66 0 8 C-0.33 8.66 -0.66 9.32 -1 10 C-2.32 10 -3.64 10 -5 10 C-5 9.34 -5 8.68 -5 8 C-4.01 8 -3.02 8 -2 8 C-1.71125 7.195625 -1.4225 6.39125 -1.125 5.5625 C0 3 0 3 2 2 C1.34 1.34 0.68 0.68 0 0 Z " fill="#6357FE" transform="translate(119,86)"/>
<path d="M0 0 C0.04241723 2.33294775 0.04092937 4.66702567 0 7 C-1 8 -1 8 -3.5625 8.0625 C-4.366875 8.041875 -5.17125 8.02125 -6 8 C-6 5.36 -6 2.72 -6 0 C-2.25 -1.125 -2.25 -1.125 0 0 Z " fill="#34DAC1" transform="translate(60,97)"/>
<path d="M0 0 C0.99 0 1.98 0 3 0 C3.30769231 6.76923077 3.30769231 6.76923077 1 10 C-1.6205332 11.69066658 -2.82629722 12 -6 12 C-5.67 11.01 -5.34 10.02 -5 9 C-3.68 9 -2.36 9 -1 9 C-1.20625 8.2575 -1.4125 7.515 -1.625 6.75 C-2.04408751 3.67669159 -1.61949011 2.57213134 0 0 Z " fill="#3CC9D2" transform="translate(31,65)"/>
<path d="M0 0 C3.3 0 6.6 0 10 0 C9 2 9 2 7 2.9375 C4.65391779 3.8891846 4.65391779 3.8891846 4 7 C2.02 7.99 2.02 7.99 0 9 C0 6.03 0 3.06 0 0 Z " fill="#3DBBDE" transform="translate(105,54)"/>
<path d="M0 0 C1.23556641 0.01740234 1.23556641 0.01740234 2.49609375 0.03515625 C3.32238281 0.04417969 4.14867187 0.05320312 5 0.0625 C5.63808594 0.07410156 6.27617188 0.08570312 6.93359375 0.09765625 C6.93359375 0.75765625 6.93359375 1.41765625 6.93359375 2.09765625 C5.94359375 2.09765625 4.95359375 2.09765625 3.93359375 2.09765625 C3.93359375 2.75765625 3.93359375 3.41765625 3.93359375 4.09765625 C1.59992442 6.10944016 -0.11426139 7.11360796 -3.06640625 8.09765625 C-3.10882348 5.7647085 -3.10733562 3.43063058 -3.06640625 1.09765625 C-2.06640625 0.09765625 -2.06640625 0.09765625 0 0 Z " fill="#4597EB" transform="translate(36.06640625,85.90234375)"/>
<path d="M0 0 C0.4125 0.515625 0.825 1.03125 1.25 1.5625 C2.89081865 3.25326429 2.89081865 3.25326429 5.0625 2.8125 C7.18712526 2.06529664 7.18712526 2.06529664 9 0 C9 0.66 9 1.32 9 2 C9.66 2 10.32 2 11 2 C11 2.99 11 3.98 11 5 C10.360625 5.12375 9.72125 5.2475 9.0625 5.375 C8.381875 5.58125 7.70125 5.7875 7 6 C6.67 6.66 6.34 7.32 6 8 C5.01 8 4.02 8 3 8 C3 7.01 3 6.02 3 5 C1.35 4.67 -0.3 4.34 -2 4 C-2 3.34 -2 2.68 -2 2 C-1.34 2 -0.68 2 0 2 C0 1.34 0 0.68 0 0 Z " fill="#EDF9FA" transform="translate(19,69)"/>
<path d="M0 0 C0 0.33 0 0.66 0 1 C-1.98 1 -3.96 1 -6 1 C-5.73606499 4.43230448 -5.73606499 4.43230448 -5 8 C-4.01 8.66 -3.02 9.32 -2 10 C-5.125 9.47916667 -8.25 8.95833333 -11.375 8.4375 C-12.674375 8.2209375 -12.674375 8.2209375 -14 8 C-14 7.67 -14 7.34 -14 7 C-12.35 6.67 -10.7 6.34 -9 6 C-8.67 4.68 -8.34 3.36 -8 2 C-9.98 2 -11.96 2 -14 2 C-14 1.67 -14 1.34 -14 1 C-9.32798795 -0.20568053 -4.78503708 -0.09382426 0 0 Z " fill="#87D0E3" transform="translate(21,33)"/>
<path d="M0 0 C0 0.99 0 1.98 0 3 C0.66 3 1.32 3 2 3 C1.67 4.98 1.34 6.96 1 9 C-1.88575819 8.60196439 -2.82189513 8.20990931 -4.75 5.9375 C-5.1625 5.298125 -5.575 4.65875 -6 4 C-2.25 0 -2.25 0 0 0 Z " fill="#4FBDDB" transform="translate(43,91)"/>
<path d="M0 0 C0.33 0.66 0.66 1.32 1 2 C1.66 2 2.32 2 3 2 C3.33 2.99 3.66 3.98 4 5 C-0.29 5 -4.58 5 -9 5 C-9.33 4.01 -9.66 3.02 -10 2 C-6.7 2 -3.4 2 0 2 C0 1.34 0 0.68 0 0 Z " fill="#50D0DA" transform="translate(43,100)"/>
<path d="M0 0 C3.36704285 -0.2295711 5.41370268 -0.33943529 8.375 1.375 C8.91125 1.91125 9.4475 2.4475 10 3 C10 3.66 10 4.32 10 5 C6.7 5 3.4 5 0 5 C0 3.35 0 1.7 0 0 Z " fill="#34AAC5" transform="translate(33,97)"/>
<path d="M0 0 C0.66 0.33 1.32 0.66 2 1 C2 4.3 2 7.6 2 11 C0.68 11.33 -0.64 11.66 -2 12 C-2 9.03 -2 6.06 -2 3 C-1.34 3 -0.68 3 0 3 C0 2.01 0 1.02 0 0 Z " fill="#7182FE" transform="translate(125,102)"/>
<path d="M0 0 C0.66 0 1.32 0 2 0 C2 2.33333333 2 4.66666667 2 7 C2.165 7.825 2.33 8.65 2.5 9.5 C3 12 3 12 3 14 C1.68 13.67 0.36 13.34 -1 13 C-1.22162329 11.37675914 -1.42689803 9.751279 -1.625 8.125 C-1.74101563 7.22007813 -1.85703125 6.31515625 -1.9765625 5.3828125 C-1.98429687 4.59648438 -1.99203125 3.81015625 -2 3 C-1.34 2.34 -0.68 1.68 0 1 C0 0.67 0 0.34 0 0 Z " fill="#38C1C7" transform="translate(116,49)"/>
<path d="M0 0 C0.33 0 0.66 0 1 0 C1 1.65 1 3.3 1 5 C5.29 5 9.58 5 14 5 C14 5.33 14 5.66 14 6 C9.03926578 7.32286246 4.08888488 7.08893197 -1 7 C-1.33 5.35 -1.66 3.7 -2 2 C-1.34 2 -0.68 2 0 2 C0 1.34 0 0.68 0 0 Z " fill="#3DB3DF" transform="translate(43,73)"/>
<path d="M0 0 C0.33 0 0.66 0 1 0 C1.28875 0.969375 1.5775 1.93875 1.875 2.9375 C2.64214682 6.10664203 2.64214682 6.10664203 5 7 C4.67 7.99 4.34 8.98 4 10 C2.35 10 0.7 10 -1 10 C-2.15837626 5.94568308 -1.83691257 3.78187881 0 0 Z " fill="#43D1E3" transform="translate(107,104)"/>
<path d="M0 0 C2.31 0 4.62 0 7 0 C7 1.65 7 3.3 7 5 C4.69 5 2.38 5 0 5 C0 3.35 0 1.7 0 0 Z " fill="#3C3E8A" transform="translate(98,49)"/>
<path d="M0 0 C6.6 0 13.2 0 20 0 C20 0.99 20 1.98 20 3 C13.4 2.34 6.8 1.68 0 1 C0 0.67 0 0.34 0 0 Z " fill="#41D1D8" transform="translate(14,32)"/>
<path d="M0 0 C0 0.99 0 1.98 0 3 C-4.95 3 -9.9 3 -15 3 C-15 2.34 -15 1.68 -15 1 C-13.25021843 0.83105557 -11.50016388 0.66493691 -9.75 0.5 C-8.77546875 0.4071875 -7.8009375 0.314375 -6.796875 0.21875 C-4.53697847 0.04199832 -2.26679807 0 0 0 Z " fill="#88DAE3" transform="translate(22,74)"/>
<path d="M0 0 C3.63 0 7.26 0 11 0 C11 0.99 11 1.98 11 3 C7.37 3 3.74 3 0 3 C0 2.01 0 1.02 0 0 Z " fill="#33D5CF" transform="translate(13,77)"/>
<path d="M0 0 C0.99 0 1.98 0 3 0 C3 3.96 3 7.92 3 12 C2.01 11.67 1.02 11.34 0 11 C0 7.37 0 3.74 0 0 Z " fill="#3B95D7" transform="translate(41,49)"/>
<path d="M0 0 C7.92 0.33 15.84 0.66 24 1 C24 1.33 24 1.66 24 2 C19.38 2 14.76 2 10 2 C10 2.66 10 3.32 10 4 C9.01 4 8.02 4 7 4 C7 3.34 7 2.68 7 2 C4.69 2 2.38 2 0 2 C0 1.34 0 0.68 0 0 Z " fill="#8CD7E7" transform="translate(34,45)"/>
<path d="M0 0 C2.09749995 2.35968744 2.96905704 3.54616994 3.1875 6.75 C3.125625 7.4925 3.06375 8.235 3 9 C1.02 9.99 1.02 9.99 -1 11 C-1.02688151 9.35425434 -1.04634123 7.70838587 -1.0625 6.0625 C-1.07410156 5.14597656 -1.08570312 4.22945313 -1.09765625 3.28515625 C-1 1 -1 1 0 0 Z " fill="#6B71FE" transform="translate(124,94)"/>
<path d="M0 0 C-0.33 1.65 -0.66 3.3 -1 5 C-4.14737182 4.30058404 -7.02588876 3.23921302 -10 2 C-6.3558226 -0.4294516 -4.28758728 -0.16179575 0 0 Z " fill="#40C9E7" transform="translate(123,96)"/>
<path d="M0 0 C4.95 0 9.9 0 15 0 C14.67 0.99 14.34 1.98 14 3 C7.07 2.505 7.07 2.505 0 2 C0 1.34 0 0.68 0 0 Z " fill="#99DEE8" transform="translate(7,63)"/>
<path d="M0 0 C0.99 0 1.98 0 3 0 C3 3.3 3 6.6 3 10 C2.01 10 1.02 10 0 10 C0 6.7 0 3.4 0 0 Z " fill="#36CCC9" transform="translate(95,49)"/>
<path d="M0 0 C0.66 0.33 1.32 0.66 2 1 C1.69078116 2.45903258 1.37751201 3.91720722 1.0625 5.375 C0.88847656 6.18710938 0.71445312 6.99921875 0.53515625 7.8359375 C0 10 0 10 -1 12 C-1.66 12 -2.32 12 -3 12 C-2.14285714 3.42857143 -2.14285714 3.42857143 0 0 Z " fill="#DEF4F7" transform="translate(47,90)"/>
<path d="M0 0 C0.66 0 1.32 0 2 0 C1.67 1.32 1.34 2.64 1 4 C-2.63 4 -6.26 4 -10 4 C-9.67 3.34 -9.34 2.68 -9 2 C-7.1875 1.62109375 -7.1875 1.62109375 -5 1.4375 C-2.21067942 1.37334592 -2.21067942 1.37334592 0 0 Z " fill="#36DCC6" transform="translate(121,110)"/>
<path d="M0 0 C0.33 0.99 0.66 1.98 1 3 C0.21625 3.226875 -0.5675 3.45375 -1.375 3.6875 C-4.21875 4.78125 -4.21875 4.78125 -5.3125 7.625 C-5.539375 8.40875 -5.76625 9.1925 -6 10 C-6.33 10 -6.66 10 -7 10 C-7.3125 7.25 -7.3125 7.25 -7 4 C-3 0 -3 0 0 0 Z " fill="#B7E8F2" transform="translate(115,98)"/>
<path d="M0 0 C0.66 0 1.32 0 2 0 C2 1.65 2 3.3 2 5 C2.66 5.33 3.32 5.66 4 6 C3.01 7.485 3.01 7.485 2 9 C-1.875 7.25 -1.875 7.25 -3 5 C-2.01 5 -1.02 5 0 5 C0 3.35 0 1.7 0 0 Z " fill="#EFFAFA" transform="translate(119,49)"/>
<path d="M0 0 C1.98 0.495 1.98 0.495 4 1 C3.67 2.65 3.34 4.3 3 6 C1.68 5.67 0.36 5.34 -1 5 C-0.67 3.35 -0.34 1.7 0 0 Z " fill="#46CFDA" transform="translate(22,67)"/>
<path d="M0 0 C0.99 0 1.98 0 3 0 C3.1875 3.3125 3.1875 3.3125 3 7 C2.01 7.99 1.02 8.98 0 10 C0 6.7 0 3.4 0 0 Z " fill="#655CFE" transform="translate(102,107)"/>
<path d="M0 0 C4.875 2.875 4.875 2.875 6 4 C6.04080783 5.99958364 6.04254356 8.00045254 6 10 C2.31476993 8.15738497 1.24835491 3.74506474 0 0 Z " fill="#A7E8ED" transform="translate(115,98)"/>
<path d="M0 0 C0.33 0.66 0.66 1.32 1 2 C1.99 2.33 2.98 2.66 4 3 C3.67 4.65 3.34 6.3 3 8 C2.34 8 1.68 8 1 8 C1 7.01 1 6.02 1 5 C0.34 5 -0.32 5 -1 5 C-0.67 3.35 -0.34 1.7 0 0 Z " fill="#52CBDB" transform="translate(49,92)"/>
<path d="M0 0 C0.33 0.99 0.66 1.98 1 3 C-2.96 3 -6.92 3 -11 3 C-11 2.34 -11 1.68 -11 1 C-9.88625 1.020625 -8.7725 1.04125 -7.625 1.0625 C-4.58237918 1.01004102 -2.83730029 0 0 0 Z " fill="#8BCBDD" transform="translate(109,46)"/>
<path d="M0 0 C0 1.98 0 3.96 0 6 C-1.65 6 -3.3 6 -5 6 C-4.6875 4.125 -4.6875 4.125 -4 2 C-1 0 -1 0 0 0 Z " fill="#38D2CF" transform="translate(60,91)"/>
<path d="M0 0 C0.33 0.66 0.66 1.32 1 2 C1.66 2 2.32 2 3 2 C3.33 2.99 3.66 3.98 4 5 C1.36 5 -1.28 5 -4 5 C-3.01 4.67 -2.02 4.34 -1 4 C-0.26676204 1.98491642 -0.26676204 1.98491642 0 0 Z " fill="#49D6D2" transform="translate(43,100)"/>
<path d="M0 0 C0.99 0 1.98 0 3 0 C3.33 1.32 3.66 2.64 4 4 C2.35 4.33 0.7 4.66 -1 5 C-0.67 3.35 -0.34 1.7 0 0 Z " fill="#36C3C7" transform="translate(47,97)"/>
<path d="M0 0 C1.65 0 3.3 0 5 0 C5 1.32 5 2.64 5 4 C3.35 4 1.7 4 0 4 C0 2.68 0 1.36 0 0 Z " fill="#30C5DF" transform="translate(13,65)"/>
<path d="M0 0 C0.33 1.32 0.66 2.64 1 4 C2.98 4.495 2.98 4.495 5 5 C4.67 5.99 4.34 6.98 4 8 C2.68 7.67 1.36 7.34 0 7 C0 4.66666667 0 2.33333333 0 0 Z " fill="#5CDDD5" transform="translate(121,49)"/>
<path d="M0 0 C0 0.99 0 1.98 0 3 C0.3062434 4.33981486 0.63451555 5.67511887 1 7 C-0.32 6.34 -1.64 5.68 -3 5 C-3 4.01 -3 3.02 -3 2 C-2.01 1.34 -1.02 0.68 0 0 Z " fill="#E8F5F9" transform="translate(41,92)"/>
<path d="M0 0 C1.98 0 3.96 0 6 0 C6 1.32 6 2.64 6 4 C4.125 3.6875 4.125 3.6875 2 3 C1.34 2.01 0.68 1.02 0 0 Z " fill="#3AD0D8" transform="translate(20,59)"/>
<path d="M0 0 C1.32 0 2.64 0 4 0 C3.6875 1.9375 3.6875 1.9375 3 4 C2.01 4.33 1.02 4.66 0 5 C0 3.35 0 1.7 0 0 Z " fill="#34ADC5" transform="translate(26,59)"/>
</svg>
