<?xml version="1.0" encoding="UTF-8"?>
<svg version="1.1" xmlns="http://www.w3.org/2000/svg" width="150" height="150">
<path d="M0 0 C0.309375 1.2065625 0.309375 1.2065625 0.625 2.4375 C1.305625 3.7059375 1.305625 3.7059375 2 5 C5.05272465 5.89830839 5.05272465 5.89830839 8 6 C8.66 5.01 9.32 4.02 10 3 C13.79588866 3.54226981 15.47211993 5.20127563 18 8 C17.34 9.98 16.68 11.96 16 14 C17.82337891 14.09087891 17.82337891 14.09087891 19.68359375 14.18359375 C21.26824228 14.26798332 22.85287702 14.3526321 24.4375 14.4375 C25.64116211 14.49647461 25.64116211 14.49647461 26.86914062 14.55664062 C32.88671875 14.88671875 32.88671875 14.88671875 34 16 C34.08713831 17.70772358 34.10700007 19.41898649 34.09765625 21.12890625 C34.09443359 22.16337891 34.09121094 23.19785156 34.08789062 24.26367188 C34.07951172 25.35228516 34.07113281 26.44089844 34.0625 27.5625 C34.05798828 28.65498047 34.05347656 29.74746094 34.04882812 30.87304688 C34.03699826 33.58208495 34.02051543 36.29101599 34 39 C34.99 39.33 35.98 39.66 37 40 C37.6875 42.0625 37.6875 42.0625 38 44 C39.32 44.33 40.64 44.66 42 45 C42.33 46.65 42.66 48.3 43 50 C41.68 50.33 40.36 50.66 39 51 C39.33 53.31 39.66 55.62 40 58 C37.42786866 59.61949011 36.32330841 60.04408751 33.25 59.625 C32.5075 59.41875 31.765 59.2125 31 59 C30.505 59.99 30.505 59.99 30 61 C28.35 60.67 26.7 60.34 25 60 C24.67 58.35 24.34 56.7 24 55 C22.02 54.505 22.02 54.505 20 54 C19.67 52.35 19.34 50.7 19 49 C19.99 48.67 20.98 48.34 22 48 C22.495 47.01 22.495 47.01 23 46 C21.35 45.67 19.7 45.34 18 45 C18 51.6 18 58.2 18 65 C20.31 65 22.62 65 25 65 C26 66 26 66 26.11352539 69.96899414 C26.1133662 71.74105607 26.10766785 73.5131226 26.09765625 75.28515625 C26.0962413 76.21597519 26.09482635 77.14679413 26.09336853 78.1058197 C26.08775172 81.09141191 26.0751964 84.07693029 26.0625 87.0625 C26.05748716 89.08137913 26.05292388 91.10025943 26.04882812 93.11914062 C26.03777683 98.07945572 26.02050095 103.03971532 26 108 C28.31 108.66 30.62 109.32 33 110 C32 112 32 112 30.34521484 112.61450195 C25.49200924 113.41225457 20.54404055 113.18590312 15.63769531 113.18530273 C13.63863013 113.18748512 11.63960468 113.20599143 9.640625 113.22460938 C8.36960937 113.22654297 7.09859375 113.22847656 5.7890625 113.23046875 C4.63100098 113.23457764 3.47293945 113.23868652 2.27978516 113.24291992 C-1.11310954 112.99162245 -3.83332989 112.21173908 -7 111 C-6.67 110.34 -6.34 109.68 -6 109 C-3.4375 108.375 -3.4375 108.375 -1 108 C-1.67857056 107.99191315 -2.35714111 107.98382629 -3.05627441 107.97549438 C-10.19572947 107.88863335 -17.33493245 107.7891071 -24.47412109 107.68261719 C-27.12938188 107.64363425 -29.7845665 107.60971702 -32.43994141 107.578125 C-70.93926359 107.11445232 -70.93926359 107.11445232 -78 103 C-77.67 102.34 -77.34 101.68 -77 101 C-76.01 101 -75.02 101 -74 101 C-74 100.01 -74 99.02 -74 98 C-76.97065509 98.34227572 -76.97065509 98.34227572 -80 99 C-80.495 99.99 -80.495 99.99 -81 101 C-84.65316671 99.75023244 -85.78065836 99.32901247 -88 96 C-87.625 92.3125 -87.625 92.3125 -87 89 C-88.65 89 -90.3 89 -92 89 C-92 86.36 -92 83.72 -92 81 C-91.030625 80.71125 -90.06125 80.4225 -89.0625 80.125 C-85.89335797 79.35785318 -85.89335797 79.35785318 -85 77 C-85.39938767 74.90178785 -85.39938767 74.90178785 -86 73 C-83.69 72.01 -81.38 71.02 -79 70 C-78.67 71.32 -78.34 72.64 -78 74 C-77.01 74 -76.02 74 -75 74 C-75 71.03 -75 68.06 -75 65 C-81.27 65 -87.54 65 -94 65 C-94 64.34 -94 63.68 -94 63 C-91.03 62.505 -91.03 62.505 -88 62 C-88 61.01 -88 60.02 -88 59 C-89.98 59 -91.96 59 -94 59 C-94 58.34 -94 57.68 -94 57 C-92.02 57 -90.04 57 -88 57 C-88 55.68 -88 54.36 -88 53 C-89.98 53 -91.96 53 -94 53 C-94 52.34 -94 51.68 -94 51 C-92.02 51 -90.04 51 -88 51 C-88 49.68 -88 48.36 -88 47 C-89.98 47 -91.96 47 -94 47 C-94 46.34 -94 45.68 -94 45 C-92.02 45 -90.04 45 -88 45 C-88 44.01 -88 43.02 -88 42 C-89.98 41.67 -91.96 41.34 -94 41 C-94 40.67 -94 40.34 -94 40 C-87.73 40 -81.46 40 -75 40 C-75 38.35 -75 36.7 -75 35 C-81.27 35 -87.54 35 -94 35 C-94 34.67 -94 34.34 -94 34 C-91.525 33.505 -91.525 33.505 -89 33 C-88.67 31.68 -88.34 30.36 -88 29 C-89.98 29 -91.96 29 -94 29 C-94 28.67 -94 28.34 -94 28 C-92.35 27.67 -90.7 27.34 -89 27 C-88.67 25.68 -88.34 24.36 -88 23 C-89.98 23 -91.96 23 -94 23 C-94 22.67 -94 22.34 -94 22 C-92.35 21.67 -90.7 21.34 -89 21 C-88.67 19.68 -88.34 18.36 -88 17 C-89.98 17 -91.96 17 -94 17 C-94 16.67 -94 16.34 -94 16 C-88.11060037 13.95887931 -82.8280285 13.72721958 -76.625 13.8125 C-75.25408203 13.8134668 -75.25408203 13.8134668 -73.85546875 13.81445312 C-67.14064837 13.85935163 -67.14064837 13.85935163 -66 15 C-63.19023482 15.16017166 -60.40226404 15.25950534 -57.58984375 15.31640625 C-56.74780899 15.33718735 -55.90577423 15.35796844 -55.03822327 15.37937927 C-52.33806821 15.44496812 -49.63781283 15.50380276 -46.9375 15.5625 C-45.11131759 15.60567637 -43.28514546 15.64929036 -41.45898438 15.69335938 C-36.97276008 15.80065894 -32.4864345 15.90189966 -28 16 C-28 16.33 -28 16.66 -28 17 C-40.87 17 -53.74 17 -67 17 C-66.67 18.32 -66.34 19.64 -66 21 C-53.46 21.33 -40.92 21.66 -28 22 C-28 22.33 -28 22.66 -28 23 C-40.87 23 -53.74 23 -67 23 C-66.67 24.32 -66.34 25.64 -66 27 C-48.51 27 -31.02 27 -13 27 C-13 25.68 -13 24.36 -13 23 C-14.98 22.67 -16.96 22.34 -19 22 C-18.88637738 20.5199159 -18.75877092 19.04089926 -18.625 17.5625 C-18.55539063 16.73878906 -18.48578125 15.91507813 -18.4140625 15.06640625 C-18.27742188 14.38449219 -18.14078125 13.70257813 -18 13 C-16 12 -16 12 -13.5 12.0625 C-10.82346261 12.28293845 -10.82346261 12.28293845 -9 10 C-8.83322718 6.41656024 -8.83322718 6.41656024 -9 3 C-2.25 0 -2.25 0 0 0 Z M-5 14 C-7.2084626 17.31269391 -7.80664241 19.14978851 -7.5546875 23.0625 C-6.4812192 26.81207941 -4.28696911 28.01541488 -1 30 C1.63836977 30.1672392 1.63836977 30.1672392 4 30 C4.03738281 29.01257813 4.07476562 28.02515625 4.11328125 27.0078125 C4.17902344 25.72648437 4.24476562 24.44515625 4.3125 23.125 C4.37050781 21.84882812 4.42851563 20.57265625 4.48828125 19.2578125 C4.65714844 18.18273437 4.82601562 17.10765625 5 16 C5.99 15.34 6.98 14.68 8 14 C6.01607489 11.60148679 6.01607489 11.60148679 2.1875 11.5625 C-1.17733329 11.66669338 -2.04370031 12.02913354 -5 14 Z M-67 29 C-67 29.66 -67 30.32 -67 31 C-64.69 31 -62.38 31 -60 31 C-60 30.34 -60 29.68 -60 29 C-62.31 29 -64.62 29 -67 29 Z M26 47 C26.32326553 50.59679066 26.32326553 50.59679066 27 54 C31.07079208 55.1508314 31.07079208 55.1508314 34.875 53.875 C36.3568671 51.40522151 36.3633156 49.83386167 36 47 C34.11499729 44.68436913 34.11499729 44.68436913 31 44.75 C27.88500271 44.68436913 27.88500271 44.68436913 26 47 Z M-81.25 80.625 C-83.21985834 82.92308586 -83.21985834 82.92308586 -83.5 86 C-83.21376982 89.06575838 -83.21376982 89.06575838 -81.3125 91.375 C-78.61209763 93.27258004 -77.22939919 93.35882213 -74 93 C-73.85024761 85.94348748 -73.85024761 85.94348748 -75 79 C-78.92212225 78.60967296 -78.92212225 78.60967296 -81.25 80.625 Z M-67 95 C-67 96.65 -67 98.3 -67 100 C-54.13 99.01 -54.13 99.01 -41 98 C-40.67 97.01 -40.34 96.02 -40 95 C-48.91 95 -57.82 95 -67 95 Z M-16 95 C-16 95.99 -16 96.98 -16 98 C-10.72 98.33 -5.44 98.66 0 99 C0 97.68 0 96.36 0 95 C-5.28 95 -10.56 95 -16 95 Z " fill="#5E47FE" transform="translate(101,18)"/>
<path d="M0 0 C2.31 0 4.62 0 7 0 C7 2.97 7 5.94 7 9 C10.3 9 13.6 9 17 9 C17 15.6 17 22.2 17 29 C12.71 29 8.42 29 4 29 C4.495 35.93 4.495 35.93 5 43 C5.66 43 6.32 43 7 43 C7.33 42.67 7.66 42.34 8 42 C11.79628713 41.79622316 15.58608073 41.65306356 19.38671875 41.5703125 C20.58361328 41.52390625 20.58361328 41.52390625 21.8046875 41.4765625 C22.90272705 41.4468335 22.90272705 41.4468335 24.02294922 41.41650391 C26.4538073 41.0923458 26.4538073 41.0923458 29 38 C29 49.22 29 60.44 29 72 C31.31 72.66 33.62 73.32 36 74 C35 76 35 76 33.34521484 76.61450195 C28.49200924 77.41225457 23.54404055 77.18590312 18.63769531 77.18530273 C16.63863013 77.18748512 14.63960468 77.20599143 12.640625 77.22460938 C11.36960937 77.22654297 10.09859375 77.22847656 8.7890625 77.23046875 C7.63100098 77.23457764 6.47293945 77.23868652 5.27978516 77.24291992 C1.88689046 76.99162245 -0.83332989 76.21173908 -4 75 C-3.67 74.34 -3.34 73.68 -3 73 C-0.4375 72.375 -0.4375 72.375 2 72 C1.32142944 71.99191315 0.64285889 71.98382629 -0.05627441 71.97549438 C-7.19572947 71.88863335 -14.33493245 71.7891071 -21.47412109 71.68261719 C-24.12938188 71.64363425 -26.7845665 71.60971702 -29.43994141 71.578125 C-67.93926359 71.11445232 -67.93926359 71.11445232 -75 67 C-74.505 66.01 -74.505 66.01 -74 65 C-73.01 65 -72.02 65 -71 65 C-71 64.01 -71 63.02 -71 62 C-73.97065509 62.34227572 -73.97065509 62.34227572 -77 63 C-77.495 63.99 -77.495 63.99 -78 65 C-81.65316671 63.75023244 -82.78065836 63.32901247 -85 60 C-84.625 56.3125 -84.625 56.3125 -84 53 C-85.65 53 -87.3 53 -89 53 C-89 50.36 -89 47.72 -89 45 C-88.030625 44.71125 -87.06125 44.4225 -86.0625 44.125 C-82.89335797 43.35785318 -82.89335797 43.35785318 -82 41 C-82.39938767 38.90178785 -82.39938767 38.90178785 -83 37 C-80.69 36.01 -78.38 35.02 -76 34 C-75.67 35.32 -75.34 36.64 -75 38 C-74.01 38 -73.02 38 -72 38 C-72 39.65 -72 41.3 -72 43 C-72.969375 43.28875 -73.93875 43.5775 -74.9375 43.875 C-78.10664203 44.64214682 -78.10664203 44.64214682 -79 47 C-79.40270732 51.1283652 -79.40270732 51.1283652 -77.8125 54.8125 C-75.57968261 56.27538036 -73.62655933 56.64505955 -71 57 C-71 54.03 -71 51.06 -71 48 C-69.02 48 -67.04 48 -65 48 C-64.67 48.66 -64.34 49.32 -64 50 C-55.75 50 -47.5 50 -39 50 C-38.505 49.01 -38.505 49.01 -38 48 C-24.47 48 -10.94 48 3 48 C3 46.35 3 44.7 3 43 C2.2886792 43.01047363 1.5773584 43.02094727 0.84448242 43.03173828 C-2.37447586 43.07328001 -5.59337776 43.09932039 -8.8125 43.125 C-9.93205078 43.14175781 -11.05160156 43.15851563 -12.20507812 43.17578125 C-13.27822266 43.18222656 -14.35136719 43.18867187 -15.45703125 43.1953125 C-16.9416687 43.21102295 -16.9416687 43.21102295 -18.45629883 43.22705078 C-21 43 -21 43 -24 41 C-23.34 41 -22.68 41 -22 41 C-22.66 40.01 -23.32 39.02 -24 38 C-24.07905064 35.66800612 -24.08798769 33.33167378 -24 31 C-20.7 30.67 -17.4 30.34 -14 30 C-14 29.34 -14 28.68 -14 28 C-12.02 28.33 -10.04 28.66 -8 29 C-8 28.34 -8 27.68 -8 27 C-5.69 26.34 -3.38 25.68 -1 25 C-0.67 16.75 -0.34 8.5 0 0 Z M-64 59 C-64 60.65 -64 62.3 -64 64 C-51.13 63.01 -51.13 63.01 -38 62 C-37.67 61.01 -37.34 60.02 -37 59 C-45.91 59 -54.82 59 -64 59 Z M-13 59 C-13 59.99 -13 60.98 -13 62 C-7.72 62.33 -2.44 62.66 3 63 C3 61.68 3 60.36 3 59 C-2.28 59 -7.56 59 -13 59 Z " fill="#7182FC" transform="translate(98,54)"/>
<path d="M0 0 C0.66 1.32 1.32 2.64 2 4 C2.99 4 3.98 4 5 4 C5 5.65 5 7.3 5 9 C4.030625 9.28875 3.06125 9.5775 2.0625 9.875 C-1.10664203 10.64214682 -1.10664203 10.64214682 -2 13 C-2.40270732 17.1283652 -2.40270732 17.1283652 -0.8125 20.8125 C1.42031739 22.27538036 3.37344067 22.64505955 6 23 C6 20.03 6 17.06 6 14 C7.98 14 9.96 14 12 14 C12.33 14.66 12.66 15.32 13 16 C21.25 16 29.5 16 38 16 C38.33 15.34 38.66 14.68 39 14 C52.53 14 66.06 14 80 14 C80 17.63 80 21.26 80 25 C74.72 25 69.44 25 64 25 C64 25.99 64 26.98 64 28 C64.56847656 27.98839844 65.13695313 27.97679688 65.72265625 27.96484375 C70.60670484 27.90776806 75.18503965 28.18043228 80 29 C80 31.64 80 34.28 80 37 C72.71409984 37.04682155 65.42823335 37.08211748 58.14221191 37.10362434 C54.75718789 37.11395864 51.37226851 37.12792229 47.98730469 37.15087891 C9.5625541 37.39227608 9.5625541 37.39227608 2 33 C2.33 32.34 2.66 31.68 3 31 C3.99 31 4.98 31 6 31 C6 30.01 6 29.02 6 28 C3.02934491 28.34227572 3.02934491 28.34227572 0 29 C-0.33 29.66 -0.66 30.32 -1 31 C-4.65316671 29.75023244 -5.78065836 29.32901247 -8 26 C-7.625 22.3125 -7.625 22.3125 -7 19 C-8.65 19 -10.3 19 -12 19 C-12 16.36 -12 13.72 -12 11 C-11.030625 10.71125 -10.06125 10.4225 -9.0625 10.125 C-5.89335797 9.35785318 -5.89335797 9.35785318 -5 7 C-5.39938767 4.90178785 -5.39938767 4.90178785 -6 3 C-4.02 2.01 -2.04 1.02 0 0 Z M13 25 C13 26.65 13 28.3 13 30 C25.87 29.01 25.87 29.01 39 28 C39.33 27.01 39.66 26.02 40 25 C31.09 25 22.18 25 13 25 Z " fill="#B5D1FE" transform="translate(21,88)"/>
<path d="M0 0 C16.83 0 33.66 0 51 0 C51 10.23 51 20.46 51 31 C34.17 31 17.34 31 0 31 C0 20.77 0 10.54 0 0 Z " fill="#474E93" transform="translate(44,47)"/>
<path d="M0 0 C0.20625 0.804375 0.4125 1.60875 0.625 2.4375 C1.305625 3.7059375 1.305625 3.7059375 2 5 C5.05272465 5.89830839 5.05272465 5.89830839 8 6 C8.66 5.01 9.32 4.02 10 3 C13.79588866 3.54226981 15.47211993 5.20127563 18 8 C17.34 9.98 16.68 11.96 16 14 C17.21558594 14.06058594 18.43117187 14.12117188 19.68359375 14.18359375 C21.26824228 14.26798332 22.85287702 14.3526321 24.4375 14.4375 C25.64116211 14.49647461 25.64116211 14.49647461 26.86914062 14.55664062 C32.88671875 14.88671875 32.88671875 14.88671875 34 16 C34.08713831 17.70772358 34.10700007 19.41898649 34.09765625 21.12890625 C34.09443359 22.16337891 34.09121094 23.19785156 34.08789062 24.26367188 C34.07532227 25.8965918 34.07532227 25.8965918 34.0625 27.5625 C34.05798828 28.65498047 34.05347656 29.74746094 34.04882812 30.87304688 C34.03699826 33.58208495 34.02051543 36.29101599 34 39 C34.99 39.33 35.98 39.66 37 40 C37.6875 42.0625 37.6875 42.0625 38 44 C39.32 44.33 40.64 44.66 42 45 C42.495 47.475 42.495 47.475 43 50 C41.02 50.495 41.02 50.495 39 51 C39.495 54.465 39.495 54.465 40 58 C37.42786866 59.61949011 36.32330841 60.04408751 33.25 59.625 C32.5075 59.41875 31.765 59.2125 31 59 C30.505 59.99 30.505 59.99 30 61 C28.35 60.67 26.7 60.34 25 60 C24.67 58.35 24.34 56.7 24 55 C22.68 54.67 21.36 54.34 20 54 C19.67 52.35 19.34 50.7 19 49 C19.99 48.67 20.98 48.34 22 48 C22.495 47.01 22.495 47.01 23 46 C22.21625 45.938125 21.4325 45.87625 20.625 45.8125 C19.75875 45.544375 18.8925 45.27625 18 45 C16.75 42.625 16.75 42.625 16 40 C15.67 39.01 15.34 38.02 15 37 C15.66 37 16.32 37 17 37 C16.67 35.35 16.34 33.7 16 32 C9.73 31.67 3.46 31.34 -3 31 C-3 30.34 -3 29.68 -3 29 C-0.69 29.33 1.62 29.66 4 30 C3.94779297 28.51886719 3.94779297 28.51886719 3.89453125 27.0078125 C3.86746094 25.72648437 3.84039062 24.44515625 3.8125 23.125 C3.76029297 21.21074219 3.76029297 21.21074219 3.70703125 19.2578125 C3.80371094 18.18273437 3.90039062 17.10765625 4 16 C4.99 15.34 5.98 14.68 7 14 C5.78410016 12.56844101 5.78410016 12.56844101 2.1875 12.6875 C-0.78617685 12.74622611 -1.87751147 12.92650688 -4.5 14.5 C-6.71177972 18.18629954 -6.34421275 20.73176192 -6 25 C-5.67 25.66 -5.34 26.32 -5 27 C-7.31 27 -9.62 27 -12 27 C-12.33 25.68 -12.66 24.36 -13 23 C-14.98 22.67 -16.96 22.34 -19 22 C-18.88637738 20.5199159 -18.75877092 19.04089926 -18.625 17.5625 C-18.55539063 16.73878906 -18.48578125 15.91507813 -18.4140625 15.06640625 C-18.27742188 14.38449219 -18.14078125 13.70257813 -18 13 C-16 12 -16 12 -13.5 12.0625 C-10.82346261 12.28293845 -10.82346261 12.28293845 -9 10 C-8.83322718 6.41656024 -8.83322718 6.41656024 -9 3 C-2.25 0 -2.25 0 0 0 Z M26 47 C26.32326553 50.59679066 26.32326553 50.59679066 27 54 C31.07079208 55.1508314 31.07079208 55.1508314 34.875 53.875 C36.3568671 51.40522151 36.3633156 49.83386167 36 47 C34.11499729 44.68436913 34.11499729 44.68436913 31 44.75 C27.88500271 44.68436913 27.88500271 44.68436913 26 47 Z " fill="#36D6CE" transform="translate(101,18)"/>
<path d="M0 0 C0.495 1.98 0.495 1.98 1 4 C1.85549438 3.99214478 1.85549438 3.99214478 2.72827148 3.98413086 C5.29800323 3.96341779 7.86771747 3.9503581 10.4375 3.9375 C11.78424805 3.92493164 11.78424805 3.92493164 13.15820312 3.91210938 C14.01220703 3.90888672 14.86621094 3.90566406 15.74609375 3.90234375 C16.53685303 3.89710693 17.3276123 3.89187012 18.14233398 3.88647461 C20 4 20 4 21 5 C21.04063832 6.66617115 21.042721 8.33388095 21 10 C20.34 10 19.68 10 19 10 C19.48895752 10.54366211 19.97791504 11.08732422 20.48168945 11.64746094 C22.35535412 14.55060176 22.34771428 16.20990521 22.29296875 19.640625 C22.28330078 20.71054688 22.27363281 21.78046875 22.26367188 22.8828125 C22.23853516 23.99398437 22.21339844 25.10515625 22.1875 26.25 C22.16719727 27.93996094 22.16719727 27.93996094 22.14648438 29.6640625 C22.11115645 32.44319264 22.0618252 35.22135363 22 38 C23.7015625 37.9690625 23.7015625 37.9690625 25.4375 37.9375 C29 38 29 38 30 39 C30.45476344 45.93514241 30.45476344 45.93514241 29.05078125 49.22265625 C25.75784628 52.07653322 22.1564761 51.59861078 17.9375 51.625 C16.30062941 51.65047658 14.66385794 51.68395188 13.02734375 51.7265625 C12.30281006 51.73252441 11.57827637 51.73848633 10.83178711 51.74462891 C8.75107666 51.84712353 8.75107666 51.84712353 7 54 C4.34549733 51.34549733 4.58360879 49.69774614 4.3125 46 C4.22613281 44.9275 4.13976562 43.855 4.05078125 42.75 C4 40 4 40 5 38 C9.29 38 13.58 38 18 38 C18 31.4 18 24.8 18 18 C14.7 18 11.4 18 8 18 C8 15.03 8 12.06 8 9 C5.69 9 3.38 9 1 9 C1.01571045 10.12027588 1.01571045 10.12027588 1.03173828 11.26318359 C1.0732077 14.63375508 1.09929729 18.004273 1.125 21.375 C1.14175781 22.550625 1.15851563 23.72625 1.17578125 24.9375 C1.18544922 26.61972656 1.18544922 26.61972656 1.1953125 28.3359375 C1.21102295 29.89127197 1.21102295 29.89127197 1.22705078 31.47802734 C1 34 1 34 -1 36 C-3.23913574 36.25396729 -3.23913574 36.25396729 -6.06054688 36.25878906 C-7.64228699 36.26824554 -7.64228699 36.26824554 -9.25598145 36.27789307 C-10.39869507 36.2738446 -11.54140869 36.26979614 -12.71875 36.265625 C-14.47197571 36.26849518 -14.47197571 36.26849518 -16.26062012 36.27142334 C-18.73543513 36.27278626 -21.21025726 36.26908241 -23.68505859 36.26074219 C-27.48421205 36.25004446 -31.28289259 36.26063418 -35.08203125 36.2734375 C-37.48177188 36.27211592 -39.88151222 36.26955357 -42.28125 36.265625 C-43.99532043 36.27169769 -43.99532043 36.27169769 -45.74401855 36.27789307 C-46.79851196 36.27158875 -47.85300537 36.26528442 -48.93945312 36.25878906 C-49.8705188 36.25719788 -50.80158447 36.25560669 -51.76086426 36.25396729 C-54 36 -54 36 -56 34 C-56.22705078 31.01904297 -56.22705078 31.01904297 -56.1953125 27.2421875 C-56.1924826 26.57913605 -56.18965271 25.91608459 -56.18673706 25.23294067 C-56.17553435 23.11344417 -56.15043051 20.99436896 -56.125 18.875 C-56.11497028 17.43880818 -56.10584441 16.00260975 -56.09765625 14.56640625 C-56.075595 11.04413372 -56.04106494 7.52210797 -56 4 C-55.01 4 -54.02 4 -53 4 C-53 13.57 -53 23.14 -53 33 C-36.17 33 -19.34 33 -2 33 C-2 22.77 -2 12.54 -2 2 C-9.26 2 -16.52 2 -24 2 C-24 1.34 -24 0.68 -24 0 C-15.85315786 -0.6976874 -8.11696631 -1.28162626 0 0 Z " fill="#37D7C7" transform="translate(97,45)"/>
<path d="M0 0 C0.66 1.32 1.32 2.64 2 4 C2.99 4 3.98 4 5 4 C5 5.65 5 7.3 5 9 C4.030625 9.28875 3.06125 9.5775 2.0625 9.875 C-1.10664203 10.64214682 -1.10664203 10.64214682 -2 13 C-2.43986452 17.03518598 -2.43986452 17.03518598 -0.86328125 20.6015625 C2.39651569 23.0481187 6.35127079 23.30042673 10.28515625 24.05859375 C13 25 13 25 15 29 C22.92 28.67 30.84 28.34 39 28 C38.67 28.66 38.34 29.32 38 30 C35.35139573 30.59355614 32.70802678 30.74209269 30 31 C30 31.66 30 32.32 30 33 C44.19 33 58.38 33 73 33 C72.67 32.34 72.34 31.68 72 31 C70.845 30.835 69.69 30.67 68.5 30.5 C67.345 30.335 66.19 30.17 65 30 C64.505 29.01 64.505 29.01 64 28 C69.45769811 27.88861841 74.61509359 28.08342019 80 29 C80 31.64 80 34.28 80 37 C72.71409984 37.04682155 65.42823335 37.08211748 58.14221191 37.10362434 C54.75718789 37.11395864 51.37226851 37.12792229 47.98730469 37.15087891 C9.5625541 37.39227608 9.5625541 37.39227608 2 33 C2.33 32.34 2.66 31.68 3 31 C3.99 31 4.98 31 6 31 C6 30.01 6 29.02 6 28 C3.02934491 28.34227572 3.02934491 28.34227572 0 29 C-0.33 29.66 -0.66 30.32 -1 31 C-4.65316671 29.75023244 -5.78065836 29.32901247 -8 26 C-7.625 22.3125 -7.625 22.3125 -7 19 C-8.65 19 -10.3 19 -12 19 C-12 16.36 -12 13.72 -12 11 C-11.030625 10.71125 -10.06125 10.4225 -9.0625 10.125 C-5.89335797 9.35785318 -5.89335797 9.35785318 -5 7 C-5.39938767 4.90178785 -5.39938767 4.90178785 -6 3 C-4.02 2.01 -2.04 1.02 0 0 Z " fill="#EAEBF2" transform="translate(21,88)"/>
<path d="M0 0 C1.37091797 0.0009668 1.37091797 0.0009668 2.76953125 0.00195312 C9.48435163 0.04685163 9.48435163 0.04685163 10.625 1.1875 C13.43476518 1.34767166 16.22273596 1.44700534 19.03515625 1.50390625 C19.87719101 1.52468735 20.71922577 1.54546844 21.58677673 1.56687927 C24.28693179 1.63246812 26.98718717 1.69130276 29.6875 1.75 C31.51368241 1.79317637 33.33985454 1.83679036 35.16601562 1.88085938 C39.65223992 1.98815894 44.1385655 2.08939966 48.625 2.1875 C48.625 2.5175 48.625 2.8475 48.625 3.1875 C35.755 3.1875 22.885 3.1875 9.625 3.1875 C9.955 4.5075 10.285 5.8275 10.625 7.1875 C23.165 7.5175 35.705 7.8475 48.625 8.1875 C48.625 8.5175 48.625 8.8475 48.625 9.1875 C35.755 9.1875 22.885 9.1875 9.625 9.1875 C9.955 10.5075 10.285 11.8275 10.625 13.1875 C23.165 13.1875 35.705 13.1875 48.625 13.1875 C48.625 13.8475 48.625 14.5075 48.625 15.1875 C39.055 15.1875 29.485 15.1875 19.625 15.1875 C19.625 15.8475 19.625 16.5075 19.625 17.1875 C18.635 17.1875 17.645 17.1875 16.625 17.1875 C16.625 16.5275 16.625 15.8675 16.625 15.1875 C14.315 15.1875 12.005 15.1875 9.625 15.1875 C9.625 17.1675 9.625 19.1475 9.625 21.1875 C0.715 21.1875 -8.195 21.1875 -17.375 21.1875 C-17.375 20.8575 -17.375 20.5275 -17.375 20.1875 C-15.725 19.8575 -14.075 19.5275 -12.375 19.1875 C-12.045 17.8675 -11.715 16.5475 -11.375 15.1875 C-13.355 15.1875 -15.335 15.1875 -17.375 15.1875 C-17.375 14.8575 -17.375 14.5275 -17.375 14.1875 C-15.725 13.8575 -14.075 13.5275 -12.375 13.1875 C-12.045 11.8675 -11.715 10.5475 -11.375 9.1875 C-13.355 9.1875 -15.335 9.1875 -17.375 9.1875 C-17.375 8.8575 -17.375 8.5275 -17.375 8.1875 C-15.725 7.8575 -14.075 7.5275 -12.375 7.1875 C-12.045 5.8675 -11.715 4.5475 -11.375 3.1875 C-13.355 3.1875 -15.335 3.1875 -17.375 3.1875 C-17.375 2.8575 -17.375 2.5275 -17.375 2.1875 C-11.48560037 0.14637931 -6.2030285 -0.08528042 0 0 Z " fill="#98E3DF" transform="translate(24.375,31.8125)"/>
<path d="M0 0 C1.12019531 -0.00128906 2.24039063 -0.00257812 3.39453125 -0.00390625 C4.57402344 -0.00003906 5.75351562 0.00382812 6.96875 0.0078125 C8.73798828 0.00201172 8.73798828 0.00201172 10.54296875 -0.00390625 C12.22326172 -0.00197266 12.22326172 -0.00197266 13.9375 0 C14.97326172 0.00112793 16.00902344 0.00225586 17.07617188 0.00341797 C19.46875 0.1328125 19.46875 0.1328125 20.46875 1.1328125 C20.56861975 3.97616298 20.60752881 6.78978413 20.59375 9.6328125 C20.59955078 10.82970703 20.59955078 10.82970703 20.60546875 12.05078125 C20.59535767 18.00620483 20.59535767 18.00620483 19.46875 19.1328125 C17.62715977 19.23240871 15.78178033 19.26361661 13.9375 19.265625 C12.81730469 19.26691406 11.69710937 19.26820312 10.54296875 19.26953125 C9.36347656 19.26566406 8.18398438 19.26179688 6.96875 19.2578125 C5.19951172 19.26361328 5.19951172 19.26361328 3.39453125 19.26953125 C1.71423828 19.26759766 1.71423828 19.26759766 0 19.265625 C-1.03576172 19.26449707 -2.07152344 19.26336914 -3.13867188 19.26220703 C-5.53125 19.1328125 -5.53125 19.1328125 -6.53125 18.1328125 C-6.63111975 15.28946202 -6.67002881 12.47584087 -6.65625 9.6328125 C-6.66011719 8.83488281 -6.66398437 8.03695312 -6.66796875 7.21484375 C-6.65573175 0.007248 -6.65573175 0.007248 0 0 Z " fill="#40D7CB" transform="translate(39.53125,85.8671875)"/>
<path d="M0 0 C3.0000624 -0.02721831 5.99987256 -0.04694378 9 -0.0625 C9.83917969 -0.07087891 10.67835937 -0.07925781 11.54296875 -0.08789062 C12.79013672 -0.09272461 12.79013672 -0.09272461 14.0625 -0.09765625 C15.19365234 -0.10551147 15.19365234 -0.10551147 16.34765625 -0.11352539 C19.91451913 0.03914317 23.45744034 0.55718004 27 1 C27 7.93 27 14.86 27 22 C20.07 22 13.14 22 6 22 C6 21.01 6 20.02 6 19 C4.02 19 2.04 19 0 19 C0 18.34 0 17.68 0 17 C1.98 17 3.96 17 6 17 C6 15.68 6 14.36 6 13 C4.02 13 2.04 13 0 13 C0 12.34 0 11.68 0 11 C1.98 11 3.96 11 6 11 C6 9.68 6 8.36 6 7 C4.02 7 2.04 7 0 7 C0 6.34 0 5.68 0 5 C1.98 5 3.96 5 6 5 C6 4.01 6 3.02 6 2 C3.03 1.505 3.03 1.505 0 1 C0 0.67 0 0.34 0 0 Z " fill="#89DAE5" transform="translate(7,58)"/>
<path d="M0 0 C7.92 0 15.84 0 24 0 C24 0.66 24 1.32 24 2 C21.03 1.505 21.03 1.505 18 1 C18 1.66 18 2.32 18 3 C14.7 3.33 11.4 3.66 8 4 C8.49360009 8.27786748 9.04783565 11.09567131 11 15 C18.92 15.33 26.84 15.66 35 16 C35 17.65 35 19.3 35 21 C21.47 21 7.94 21 -6 21 C-6.33 15.72 -6.66 10.44 -7 5 C-2 3 -2 3 0 3 C0 2.01 0 1.02 0 0 Z " fill="#6B72FE" transform="translate(66,81)"/>
<path d="M0 0 C1.32 0 2.64 0 4 0 C4 6.6 4 13.2 4 20 C6.31 20 8.62 20 11 20 C12.85392146 21.85392146 12.23544204 24.42453037 12.328125 26.89453125 C11.86220229 29.88420197 11.31416773 30.99438796 9 33 C5.98751892 33.59437528 3.00108411 33.60583763 -0.0625 33.625 C-1.69937059 33.65047658 -3.33614206 33.68395188 -4.97265625 33.7265625 C-5.69718994 33.73252441 -6.42172363 33.73848633 -7.16821289 33.74462891 C-9.24892334 33.84712353 -9.24892334 33.84712353 -11 36 C-13.65450267 33.34549733 -13.41639121 31.69774614 -13.6875 28 C-13.77386719 26.9275 -13.86023438 25.855 -13.94921875 24.75 C-14 22 -14 22 -13 20 C-8.71 20 -4.42 20 0 20 C0 13.4 0 6.8 0 0 Z " fill="#645AFE" transform="translate(115,63)"/>
<path d="M0 0 C0.20625 0.804375 0.4125 1.60875 0.625 2.4375 C1.305625 3.7059375 1.305625 3.7059375 2 5 C5.05272465 5.89830839 5.05272465 5.89830839 8 6 C8.66 5.01 9.32 4.02 10 3 C13.79588866 3.54226981 15.47211993 5.20127563 18 8 C17.67 8.969375 17.34 9.93875 17 10.9375 C15.94826637 13.62149574 15.94826637 13.62149574 16 15 C9.9453125 15.1953125 9.9453125 15.1953125 8 15 C7.34 14.34 6.68 13.68 6 13 C0.45764755 12.42765564 0.45764755 12.42765564 -4.5 14.5 C-6.71177972 18.18629954 -6.34421275 20.73176192 -6 25 C-5.67 25.66 -5.34 26.32 -5 27 C-7.31 27 -9.62 27 -12 27 C-12.33 25.68 -12.66 24.36 -13 23 C-14.98 22.67 -16.96 22.34 -19 22 C-18.88637738 20.5199159 -18.75877092 19.04089926 -18.625 17.5625 C-18.55539063 16.73878906 -18.48578125 15.91507813 -18.4140625 15.06640625 C-18.27742188 14.38449219 -18.14078125 13.70257813 -18 13 C-16 12 -16 12 -13.5 12.0625 C-10.82346261 12.28293845 -10.82346261 12.28293845 -9 10 C-8.83322718 6.41656024 -8.83322718 6.41656024 -9 3 C-2.25 0 -2.25 0 0 0 Z " fill="#E9EBF2" transform="translate(101,18)"/>
<path d="M0 0 C0 10.56 0 21.12 0 32 C-8.25 32 -16.5 32 -25 32 C-25 25 -25 25 -23.546875 22.546875 C-19.75052043 20.24111363 -16.55864404 20.79984316 -12.25 21.25 C-11.06083984 21.34861328 -11.06083984 21.34861328 -9.84765625 21.44921875 C-7.89673634 21.61375416 -5.94804503 21.80434482 -4 22 C-4.03480469 20.74703125 -4.06960937 19.4940625 -4.10546875 18.203125 C-4.13361128 16.55209676 -4.16091094 14.90105399 -4.1875 13.25 C-4.21263672 12.425 -4.23777344 11.6 -4.26367188 10.75 C-4.3380503 4.60138329 -4.3380503 4.60138329 -2.55078125 1.421875 C-1 0 -1 0 0 0 Z " fill="#7181FE" transform="translate(127,92)"/>
<path d="M0 0 C1.58206422 0.00574487 3.16410406 0.01876032 4.74609375 0.03515625 C7.53046875 0.05578125 10.31484375 0.07640625 13.18359375 0.09765625 C13.18359375 6.03765625 13.18359375 11.97765625 13.18359375 18.09765625 C10.39921875 18.11828125 7.61484375 18.13890625 4.74609375 18.16015625 C3.86767822 18.16926025 2.9892627 18.17836426 2.08422852 18.18774414 C0.11713401 18.19488716 -1.84994246 18.14797518 -3.81640625 18.09765625 C-5.63756628 16.27649622 -4.94875705 13.79093861 -4.953125 11.37109375 C-4.94925781 10.62085937 -4.94539063 9.870625 -4.94140625 9.09765625 C-4.94527344 8.34742187 -4.94914062 7.5971875 -4.953125 6.82421875 C-4.94103514 0.12643386 -4.94103514 0.12643386 0 0 Z " fill="#3DCFE4" transform="translate(109.81640625,95.90234375)"/>
<path d="M0 0 C0.33 0 0.66 0 1 0 C1.07347656 1.15628906 1.07347656 1.15628906 1.1484375 2.3359375 C1.22320312 3.33882813 1.29796875 4.34171875 1.375 5.375 C1.44460937 6.37273437 1.51421875 7.37046875 1.5859375 8.3984375 C1.76363964 11.15508879 1.76363964 11.15508879 4 13 C4.19893799 15.52475716 4.27847435 17.91514749 4.25 20.4375 C4.25773437 21.11876953 4.26546875 21.80003906 4.2734375 22.50195312 C4.25889434 26.21409442 4.10940418 27.83589372 2 31 C1.67 33.31 1.34 35.62 1 38 C9.25 38 17.5 38 26 38 C26 38.66 26 39.32 26 40 C28.31 40.66 30.62 41.32 33 42 C32 44 32 44 30.34521484 44.61450195 C25.49200924 45.41225457 20.54404055 45.18590312 15.63769531 45.18530273 C13.63863013 45.18748512 11.63960468 45.20599143 9.640625 45.22460938 C8.36960937 45.22654297 7.09859375 45.22847656 5.7890625 45.23046875 C4.63100098 45.23457764 3.47293945 45.23868652 2.27978516 45.24291992 C-1.11310954 44.99162245 -3.83332989 44.21173908 -7 43 C-6 41 -6 41 0 39 C0 26.13 0 13.26 0 0 Z " fill="#5F54E4" transform="translate(101,86)"/>
<path d="M0 0 C0 3.96 0 7.92 0 12 C-3.93768134 12.05381797 -7.87463132 12.0935868 -11.8125 12.125 C-12.93205078 12.14175781 -14.05160156 12.15851563 -15.20507812 12.17578125 C-16.27822266 12.18222656 -17.35136719 12.18867187 -18.45703125 12.1953125 C-19.9416687 12.21102295 -19.9416687 12.21102295 -21.45629883 12.22705078 C-24 12 -24 12 -27 10 C-26.34 10 -25.68 10 -25 10 C-25.66 9.01 -26.32 8.02 -27 7 C-27.07905064 4.66800612 -27.08798769 2.33167378 -27 0 C-21.33333333 0 -15.66666667 0 -10 0 C-9.05125 -0.185625 -8.1025 -0.37125 -7.125 -0.5625 C-4 -1 -4 -1 0 0 Z " fill="#768CFE" transform="translate(101,85)"/>
<path d="M0 0 C5.61 0 11.22 0 17 0 C17 5.61 17 11.22 17 17 C11.39 17 5.78 17 0 17 C0 11.39 0 5.78 0 0 Z " fill="#3E4E9A" transform="translate(15,34)"/>
<path d="M0 0 C1.375 2.0625 1.375 2.0625 2 4 C3.65 4 5.3 4 7 4 C7.33 5.32 7.66 6.64 8 8 C5.69 8.33 3.38 8.66 1 9 C1 9.99 1 10.98 1 12 C0.6937566 13.33981486 0.36548445 14.67511887 0 16 C0.66 16 1.32 16 2 16 C1.34 17.32 0.68 18.64 0 20 C-1.32 20 -2.64 20 -4 20 C-4.66 18.68 -5.32 17.36 -6 16 C-5.34 16 -4.68 16 -4 16 C-4.33 14.35 -4.66 12.7 -5 11 C-11.27 10.67 -17.54 10.34 -24 10 C-24 9.34 -24 8.68 -24 8 C-22.9275 8.103125 -21.855 8.20625 -20.75 8.3125 C-16.86125098 8.42601239 -16.86125098 8.42601239 -14.8125 5.5 C-14.214375 4.675 -13.61625 3.85 -13 3 C-11.68 3 -10.36 3 -9 3 C-8.67 2.01 -8.34 1.02 -8 0 C-5.04063954 -1.47968023 -3.13239866 -0.84835797 0 0 Z " fill="#56D5D9" transform="translate(122,39)"/>
<path d="M0 0 C3.14581423 -0.02888514 6.29159469 -0.04675923 9.4375 -0.0625 C10.33533203 -0.07087891 11.23316406 -0.07925781 12.15820312 -0.08789062 C13.01220703 -0.09111328 13.86621094 -0.09433594 14.74609375 -0.09765625 C15.93223267 -0.10551147 15.93223267 -0.10551147 17.14233398 -0.11352539 C19 0 19 0 20 1 C20.04063832 2.66617115 20.042721 4.33388095 20 6 C19.34 6 18.68 6 18 6 C18.495 6.5775 18.99 7.155 19.5 7.75 C21 10 21 10 21 14 C16.38 14 11.76 14 7 14 C7 11.03 7 8.06 7 5 C4.69 5 2.38 5 0 5 C0 3.35 0 1.7 0 0 Z " fill="#3AC5D7" transform="translate(98,49)"/>
<path d="M0 0 C13.53 0 27.06 0 41 0 C41 1.65 41 3.3 41 5 C27.47 5 13.94 5 0 5 C0 3.35 0 1.7 0 0 Z " fill="#3C3D89" transform="translate(60,97)"/>
<path d="M0 0 C1.98 0 3.96 0 6 0 C6.33 0.66 6.66 1.32 7 2 C13.6 2.33 20.2 2.66 27 3 C27.33 3.99 27.66 4.98 28 6 C26.125 6.625 26.125 6.625 24 7 C23.34 6.34 22.68 5.68 22 5 C21.67 6.98 21.34 8.96 21 11 C17.68751813 11.02888146 14.37506833 11.04675799 11.0625 11.0625 C10.11697266 11.07087891 9.17144531 11.07925781 8.19726562 11.08789062 C6.84858398 11.09272461 6.84858398 11.09272461 5.47265625 11.09765625 C4.64000244 11.10289307 3.80734863 11.10812988 2.94946289 11.11352539 C1 11 1 11 0 10 C-0.07205511 8.31391034 -0.08386068 6.62499341 -0.0625 4.9375 C-0.05347656 4.01839844 -0.04445313 3.09929687 -0.03515625 2.15234375 C-0.02355469 1.44207031 -0.01195313 0.73179688 0 0 Z " fill="#C4DBFE" transform="translate(27,102)"/>
<path d="M0 0 C0.99 0 1.98 0 3 0 C3 9.57 3 19.14 3 29 C11.25 29 19.5 29 28 29 C28 29.33 28 29.66 28 30 C41.365 30.495 41.365 30.495 55 31 C55 31.33 55 31.66 55 32 C47.48863592 32.05057965 39.97731551 32.08568257 32.46582031 32.10986328 C29.90883747 32.11994038 27.35186621 32.13360226 24.79492188 32.15087891 C21.12627308 32.17505217 17.45777621 32.18646585 13.7890625 32.1953125 C12.0655809 32.21079636 12.0655809 32.21079636 10.30728149 32.22659302 C9.2463327 32.22674408 8.18538391 32.22689514 7.09228516 32.22705078 C6.15518707 32.231492 5.21808899 32.23593323 4.25259399 32.24050903 C2 32 2 32 0 30 C-0.22705078 27.01904297 -0.22705078 27.01904297 -0.1953125 23.2421875 C-0.1924826 22.57913605 -0.18965271 21.91608459 -0.18673706 21.23294067 C-0.17553435 19.11344417 -0.15043051 16.99436896 -0.125 14.875 C-0.11497028 13.43880818 -0.10584441 12.00260975 -0.09765625 10.56640625 C-0.075595 7.04413372 -0.04106494 3.52210797 0 0 Z " fill="#42AAE3" transform="translate(41,49)"/>
<path d="M0 0 C0.99 0.33 1.98 0.66 3 1 C3.6875 3.0625 3.6875 3.0625 4 5 C5.32 5.33 6.64 5.66 8 6 C8.33 7.65 8.66 9.3 9 11 C7.68 11.33 6.36 11.66 5 12 C5.33 14.31 5.66 16.62 6 19 C3.42786866 20.61949011 2.32330841 21.04408751 -0.75 20.625 C-1.4925 20.41875 -2.235 20.2125 -3 20 C-3.33 20.66 -3.66 21.32 -4 22 C-5.65 21.67 -7.3 21.34 -9 21 C-9.33 19.35 -9.66 17.7 -10 16 C-11.32 15.67 -12.64 15.34 -14 15 C-14.33 13.35 -14.66 11.7 -15 10 C-14.01 9.67 -13.02 9.34 -12 9 C-11.34 8.01 -10.68 7.02 -10 6 C-8.68 6.33 -7.36 6.66 -6 7 C-6.33 7.33 -6.66 7.66 -7 8 C-7.04092937 10.33297433 -7.04241723 12.66705225 -7 15 C-4.36 15 -1.72 15 1 15 C1.29562367 9.67829506 1.29562367 9.67829506 -1 5 C-0.625 2.3125 -0.625 2.3125 0 0 Z " fill="#EAEBF2" transform="translate(135,57)"/>
<path d="M0 0 C2.64 0 5.28 0 8 0 C8 6.93 8 13.86 8 21 C1.07 21 -5.86 21 -13 21 C-13 20.01 -13 19.02 -13 18 C-10.89627599 17.66388432 -8.79200343 17.33120054 -6.6875 17 C-5.51574219 16.814375 -4.34398437 16.62875 -3.13671875 16.4375 C-0 16 -0 16 3 16 C2.67 15.01 2.34 14.02 2 13 C2.9375 10.3125 2.9375 10.3125 4 8 C3.01 8 2.02 8 1 8 C0.67 5.36 0.34 2.72 0 0 Z " fill="#36CECC" transform="translate(26,59)"/>
<path d="M0 0 C2.31 0 4.62 0 7 0 C7 6.27 7 12.54 7 19 C5.68 18.01 4.36 17.02 3 16 C3.02320313 16.84304687 3.04640625 17.68609375 3.0703125 18.5546875 C3.09738281 20.19824219 3.09738281 20.19824219 3.125 21.875 C3.14820313 22.96554688 3.17140625 24.05609375 3.1953125 25.1796875 C3 28 3 28 1 30 C0.67 23.4 0.34 16.8 0 10 C-2.64 10 -5.28 10 -8 10 C-8 8.02 -8 6.04 -8 4 C-5.36 4 -2.72 4 0 4 C0 2.68 0 1.36 0 0 Z " fill="#5935FF" transform="translate(34,49)"/>
<path d="M0 0 C1.18613892 0.00785522 1.18613892 0.00785522 2.39624023 0.01586914 C3.67724609 0.02070312 3.67724609 0.02070312 4.98413086 0.02563477 C5.88196289 0.03401367 6.77979492 0.04239258 7.70483398 0.05102539 C8.6065332 0.05553711 9.50823242 0.06004883 10.43725586 0.06469727 C12.67234712 0.07652315 14.90730835 0.09300319 17.14233398 0.11352539 C17.14233398 0.77352539 17.14233398 1.43352539 17.14233398 2.11352539 C19.12233398 2.11352539 21.10233398 2.11352539 23.14233398 2.11352539 C22.81233398 3.76352539 22.48233398 5.41352539 22.14233398 7.11352539 C21.48233398 6.78352539 20.82233398 6.45352539 20.14233398 6.11352539 C19.23483398 6.27852539 18.32733398 6.44352539 17.39233398 6.61352539 C14.14233398 7.11352539 14.14233398 7.11352539 10.95483398 6.48852539 C10.02670898 6.36477539 9.09858398 6.24102539 8.14233398 6.11352539 C6.5174794 7.40476079 6.5174794 7.40476079 5.14233398 9.11352539 C3.47566732 9.78019206 1.80900065 10.44685872 0.14233398 11.11352539 C-0.88635598 12.08398763 -1.89192237 13.08040429 -2.85766602 14.11352539 C-2.8845254 11.96775903 -2.90399689 9.82189894 -2.92016602 7.67602539 C-2.93176758 6.48106445 -2.94336914 5.28610352 -2.95532227 4.05493164 C-2.82643106 0.17272841 -2.82643106 0.17272841 0 0 Z " fill="#34CED8" transform="translate(107.857666015625,32.886474609375)"/>
<path d="M0 0 C1.32 0 2.64 0 4 0 C4 6.6 4 13.2 4 20 C6.31 20 8.62 20 11 20 C11.33 20.99 11.66 21.98 12 23 C3.19039858 24.30512614 -5.19039858 24.30512614 -14 23 C-13.505 21.515 -13.505 21.515 -13 20 C-8.71 20 -4.42 20 0 20 C0 13.4 0 6.8 0 0 Z " fill="#4C4CA1" transform="translate(115,63)"/>
<path d="M0 0 C2.31 0 4.62 0 7 0 C7 2.97 7 5.94 7 9 C10.3 9 13.6 9 17 9 C17 11.97 17 14.94 17 18 C16.01 18.33 15.02 18.66 14 19 C12.875 15.25 12.875 15.25 14 13 C12.3745692 13.14095064 10.74965949 13.28792087 9.125 13.4375 C8.22007813 13.51871094 7.31515625 13.59992188 6.3828125 13.68359375 C3.98889139 13.86989285 3.98889139 13.86989285 2 15 C2.33 15.66 2.66 16.32 3 17 C2.01 17.33 1.02 17.66 0 18 C0 12.06 0 6.12 0 0 Z " fill="#6B74FD" transform="translate(98,54)"/>
<path d="M0 0 C1.31871094 -0.01224609 2.63742188 -0.02449219 3.99609375 -0.03710938 C5.90068359 -0.04000977 5.90068359 -0.04000977 7.84375 -0.04296875 C9.00068359 -0.04707764 10.15761719 -0.05118652 11.34960938 -0.05541992 C14.47736509 0.18575467 16.680892 0.85423629 19.5 2.1875 C18.5 4.1875 18.5 4.1875 16.84521484 4.80200195 C11.99200924 5.59975457 7.04404055 5.37340312 2.13769531 5.37280273 C0.13863013 5.37498512 -1.86039532 5.39349143 -3.859375 5.41210938 C-5.13039063 5.41404297 -6.40140625 5.41597656 -7.7109375 5.41796875 C-8.86899902 5.42207764 -10.02706055 5.42618652 -11.22021484 5.43041992 C-14.61310954 5.17912245 -17.33332989 4.39923908 -20.5 3.1875 C-20.17 2.5275 -19.84 1.8675 -19.5 1.1875 C-13.23640183 -0.60566158 -6.45139424 0.00315317 0 0 Z " fill="#EAEBF2" transform="translate(114.5,125.8125)"/>
<path d="M0 0 C0 5.61 0 11.22 0 17 C0.99 17 1.98 17 3 17 C3 18.65 3 20.3 3 22 C0.69 22 -1.62 22 -4 22 C-4 15.73 -4 9.46 -4 3 C-10.27 3 -16.54 3 -23 3 C-23 2.34 -23 1.68 -23 1 C-19.91675903 0.83159521 -16.83339379 0.66558138 -13.75 0.5 C-12.87730469 0.45230469 -12.00460938 0.40460938 -11.10546875 0.35546875 C-10.26113281 0.31035156 -9.41679687 0.26523438 -8.546875 0.21875 C-7.38430176 0.1559082 -7.38430176 0.1559082 -6.19824219 0.09179688 C-4.13373418 0.00558463 -2.0663073 0 0 0 Z " fill="#6F72A9" transform="translate(30,80)"/>
<path d="M0 0 C0.99 0 1.98 0 3 0 C3 0.66 3 1.32 3 2 C4.3921875 2.4021875 4.3921875 2.4021875 5.8125 2.8125 C8.75781025 3.90977245 10.15017877 4.53357169 12 7 C12 7.66 12 8.32 12 9 C9.5 10.625 9.5 10.625 7 12 C7 11.01 7 10.02 7 9 C4.52733235 9.34444881 4.52733235 9.34444881 2 10 C1.67 10.66 1.34 11.32 1 12 C0.34 12 -0.32 12 -1 12 C-1 11.01 -1 10.02 -1 9 C-1.99 9 -2.98 9 -4 9 C-4 9.99 -4 10.98 -4 12 C-7.16115776 10.63016497 -7.9927092 10.0109362 -10 7 C-8.68 6.34 -7.36 5.68 -6 5 C-6 4.34 -6 3.68 -6 3 C-5.38125 2.87625 -4.7625 2.7525 -4.125 2.625 C-1.80879168 2.12802644 -1.80879168 2.12802644 0 0 Z " fill="#48B7E0" transform="translate(45,88)"/>
<path d="M0 0 C0.99 0 1.98 0 3 0 C3.02685095 2.47923801 3.04676547 4.9581884 3.0625 7.4375 C3.07087891 8.14455078 3.07925781 8.85160156 3.08789062 9.58007812 C3.09653588 11.38693559 3.05220011 13.19387603 3 15 C2 16 2 16 -1.37890625 16.09765625 C-2.77347077 16.09098369 -4.16801743 16.07902532 -5.5625 16.0625 C-6.27341797 16.05798828 -6.98433594 16.05347656 -7.71679688 16.04882812 C-9.47790013 16.03700864 -11.23896036 16.01907263 -13 16 C-13 15.01 -13 14.02 -13 13 C-10.625 12.375 -10.625 12.375 -8 12 C-7.34 12.66 -6.68 13.32 -6 14 C-6.185625 13.443125 -6.37125 12.88625 -6.5625 12.3125 C-7.07551165 9.600867 -6.6640724 7.65628961 -6 5 C-4.35 5 -2.7 5 -1 5 C-0.67 3.35 -0.34 1.7 0 0 Z " fill="#35DEC4" transform="translate(132,47)"/>
<path d="M0 0 C0.33 0 0.66 0 1 0 C1 5.28 1 10.56 1 16 C-4.61 16 -10.22 16 -16 16 C-16 15.34 -16 14.68 -16 14 C-14.68 14 -13.36 14 -12 14 C-11.67 13.01 -11.34 12.02 -11 11 C-9.70644173 9.62804426 -8.37701298 8.28817344 -7 7 C-6.67 7.33 -6.34 7.66 -6 8 C-6 6.68 -6 5.36 -6 4 C-4.68 4 -3.36 4 -2 4 C-1.34 2.68 -0.68 1.36 0 0 Z " fill="#39D8D9" transform="translate(122,98)"/>
<path d="M0 0 C0.93134766 0.00322266 1.86269531 0.00644531 2.82226562 0.00976562 C4.26182617 0.02233398 4.26182617 0.02233398 5.73046875 0.03515625 C6.70951172 0.03966797 7.68855469 0.04417969 8.69726562 0.04882812 C11.10422986 0.06056941 13.51106732 0.07699206 15.91796875 0.09765625 C16.24796875 1.41765625 16.57796875 2.73765625 16.91796875 4.09765625 C15.92796875 4.09765625 14.93796875 4.09765625 13.91796875 4.09765625 C12.92796875 4.59265625 12.92796875 4.59265625 11.91796875 5.09765625 C10.17752705 5.18215253 8.43387153 5.20488649 6.69140625 5.1953125 C5.66015625 5.19208984 4.62890625 5.18886719 3.56640625 5.18554688 C1.94605469 5.17297852 1.94605469 5.17297852 0.29296875 5.16015625 C-1.33898437 5.15338867 -1.33898437 5.15338867 -3.00390625 5.14648438 C-5.69666914 5.13467401 -8.38932313 5.11820403 -11.08203125 5.09765625 C-10.75203125 3.77765625 -10.42203125 2.45765625 -10.08203125 1.09765625 C-6.65629188 0.32237146 -3.5096388 -0.02153153 0 0 Z " fill="#655CFE" transform="translate(50.08203125,80.90234375)"/>
<path d="M0 0 C0.99 0 1.98 0 3 0 C3 1.32 3 2.64 3 4 C3.99 4 4.98 4 6 4 C5.67 6.64 5.34 9.28 5 12 C1.94152152 12.54372951 -0.88772805 13 -4 13 C-4.33 12.01 -4.66 11.02 -5 10 C-5.66 9.67 -6.32 9.34 -7 9 C-6.67 6.69 -6.34 4.38 -6 2 C-2.25 0.875 -2.25 0.875 0 2 C0 1.34 0 0.68 0 0 Z " fill="#ECF9FA" transform="translate(24,63)"/>
<path d="M0 0 C1.375 2.0625 1.375 2.0625 2 4 C3.65 4 5.3 4 7 4 C7.33 4.99 7.66 5.98 8 7 C0.41 7 -7.18 7 -15 7 C-14.34 5.68 -13.68 4.36 -13 3 C-11.68 3 -10.36 3 -9 3 C-8.67 2.01 -8.34 1.02 -8 0 C-5.04063954 -1.47968023 -3.13239866 -0.84835797 0 0 Z " fill="#F6FCFD" transform="translate(122,39)"/>
<path d="M0 0 C3.3 0 6.6 0 10 0 C10 1.65 10 3.3 10 5 C10.99 5 11.98 5 13 5 C13 8.3 13 11.6 13 15 C9.04 15 5.08 15 1 15 C1.99 14.01 2.98 13.02 4 12 C4.99 12 5.98 12 7 12 C7 10.68 7 9.36 7 8 C6.01 7.34 5.02 6.68 4 6 C4.66 6 5.32 6 6 6 C6 5.34 6 4.68 6 4 C5.38125 3.896875 4.7625 3.79375 4.125 3.6875 C2 3 2 3 0 0 Z " fill="#7890FE" transform="translate(102,67)"/>
<path d="M0 0 C2.64 0 5.28 0 8 0 C7.67 1.98 7.34 3.96 7 6 C14.59 6 22.18 6 30 6 C30 6.66 30 7.32 30 8 C18.78 8 7.56 8 -4 8 C-3.34 7.34 -2.68 6.68 -2 6 C-1.67 6 -1.34 6 -1 6 C-0.67 4.02 -0.34 2.04 0 0 Z " fill="#97BEFE" transform="translate(64,113)"/>
<path d="M0 0 C3.14581423 -0.02888514 6.29159469 -0.04675923 9.4375 -0.0625 C10.33533203 -0.07087891 11.23316406 -0.07925781 12.15820312 -0.08789062 C13.01220703 -0.09111328 13.86621094 -0.09433594 14.74609375 -0.09765625 C15.93223267 -0.10551147 15.93223267 -0.10551147 17.14233398 -0.11352539 C19 0 19 0 20 1 C20 2.65 20 4.3 20 6 C13.4 5.67 6.8 5.34 0 5 C0 3.35 0 1.7 0 0 Z " fill="#34B0C5" transform="translate(98,49)"/>
<path d="M0 0 C1.93166016 0.01740234 1.93166016 0.01740234 3.90234375 0.03515625 C5.19269531 0.04417969 6.48304687 0.05320312 7.8125 0.0625 C8.81152344 0.07410156 9.81054688 0.08570312 10.83984375 0.09765625 C9.90011719 0.78794922 9.90011719 0.78794922 8.94140625 1.4921875 C6.8353093 3.01718874 6.8353093 3.01718874 5.21484375 4.78515625 C3.83984375 6.09765625 3.83984375 6.09765625 1.83984375 6.09765625 C1.83984375 6.75765625 1.83984375 7.41765625 1.83984375 8.09765625 C0.8613418 9.11870176 -0.13996052 10.11826835 -1.16015625 11.09765625 C-1.49015625 11.75765625 -1.82015625 12.41765625 -2.16015625 13.09765625 C-2.82015625 13.09765625 -3.48015625 13.09765625 -4.16015625 13.09765625 C-4.18702178 11.11856227 -4.20649 9.13936654 -4.22265625 7.16015625 C-4.23425781 6.05800781 -4.24585937 4.95585938 -4.2578125 3.8203125 C-4.11749553 -0.09172464 -3.97435676 0.12281696 0 0 Z " fill="#40C2EE" transform="translate(109.16015625,95.90234375)"/>
<path d="M0 0 C4.82360189 -0.19294408 8.49646738 0.24252386 13 2 C11.68 3.65 10.36 5.3 9 7 C9 6.34 9 5.68 9 5 C8.34 5 7.68 5 7 5 C6.731875 5.5775 6.46375 6.155 6.1875 6.75 C4.98280141 9.0325868 3.59201885 10.9737942 2 13 C0 11 0 11 -0.1953125 8.3984375 C-0.17210938 7.40070313 -0.14890625 6.40296875 -0.125 5.375 C-0.10695313 4.37210937 -0.08890625 3.36921875 -0.0703125 2.3359375 C-0.04710938 1.56507812 -0.02390625 0.79421875 0 0 Z " fill="#5A3AFF" transform="translate(102,86)"/>
<path d="M0 0 C1.58206057 0.00667536 3.16410534 0.0186375 4.74609375 0.03515625 C5.55240234 0.03966797 6.35871094 0.04417969 7.18945312 0.04882812 C9.18753131 0.06065107 11.18557158 0.07858711 13.18359375 0.09765625 C12.29414062 0.52691406 12.29414062 0.52691406 11.38671875 0.96484375 C8.49431927 2.45207043 5.86834671 4.26714287 3.18359375 6.09765625 C2.52359375 5.76765625 1.86359375 5.43765625 1.18359375 5.09765625 C1.18359375 5.75765625 1.18359375 6.41765625 1.18359375 7.09765625 C-0.78931212 9.44635372 -1.81947487 10.09867912 -4.81640625 11.09765625 C-4.84328776 9.45191059 -4.86274748 7.80604212 -4.87890625 6.16015625 C-4.89050781 5.24363281 -4.90210938 4.32710938 -4.9140625 3.3828125 C-4.74806315 -0.5015722 -4.08167578 0.10444411 0 0 Z " fill="#41A4E6" transform="translate(37.81640625,85.90234375)"/>
<path d="M0 0 C0.66 0.66 1.32 1.32 2 2 C3.32 1.34 4.64 0.68 6 0 C6 1.65 6 3.3 6 5 C-0.93 5 -7.86 5 -15 5 C-15 4.01 -15 3.02 -15 2 C-13.43883181 1.66048381 -11.87598662 1.32867456 -10.3125 1 C-9.44238281 0.814375 -8.57226562 0.62875 -7.67578125 0.4375 C-5.02593851 0.00424104 -2.67696494 -0.21890003 0 0 Z " fill="#3BD2D3" transform="translate(28,75)"/>
<path d="M0 0 C1.32 0 2.64 0 4 0 C4 6.6 4 13.2 4 20 C2.68 19.67 1.36 19.34 0 19 C0 12.73 0 6.46 0 0 Z " fill="#3E3E8B" transform="translate(115,63)"/>
<path d="M0 0 C1 1 1 1 1.0625 4.5625 C1.041875 5.696875 1.02125 6.83125 1 8 C-2.71599191 8.20086443 -3.77208445 8.1519437 -7 6 C-8.65549531 5.61500109 -10.3222433 5.27206865 -12 5 C-12 3.68 -12 2.36 -12 1 C-8.00681626 -0.33106125 -4.16255487 -0.13647721 0 0 Z " fill="#3BC9D5" transform="translate(59,86)"/>
<path d="M0 0 C12.87 0 25.74 0 39 0 C39 0.66 39 1.32 39 2 C29.43 2 19.86 2 10 2 C10 2.66 10 3.32 10 4 C9.01 4 8.02 4 7 4 C7 3.34 7 2.68 7 2 C4.69 2 2.38 2 0 2 C0 1.34 0 0.68 0 0 Z " fill="#65D4E1" transform="translate(34,45)"/>
<path d="M0 0 C0 0.33 0 0.66 0 1 C-1.98 1 -3.96 1 -6 1 C-6 6.61 -6 12.22 -6 18 C-5.34 18.33 -4.68 18.66 -4 19 C-5 20 -5 20 -7.06640625 20.09765625 C-7.89011719 20.08605469 -8.71382812 20.07445313 -9.5625 20.0625 C-10.38878906 20.05347656 -11.21507812 20.04445313 -12.06640625 20.03515625 C-13.02353516 20.01775391 -13.02353516 20.01775391 -14 20 C-14 19.67 -14 19.34 -14 19 C-12.35 18.67 -10.7 18.34 -9 18 C-8.67 16.68 -8.34 15.36 -8 14 C-9.98 14 -11.96 14 -14 14 C-14 13.67 -14 13.34 -14 13 C-12.35 12.67 -10.7 12.34 -9 12 C-8.67 10.68 -8.34 9.36 -8 8 C-9.98 8 -11.96 8 -14 8 C-14 7.67 -14 7.34 -14 7 C-12.35 6.67 -10.7 6.34 -9 6 C-8.67 4.68 -8.34 3.36 -8 2 C-9.98 2 -11.96 2 -14 2 C-14 1.67 -14 1.34 -14 1 C-9.32798795 -0.20568053 -4.78503708 -0.09382426 0 0 Z " fill="#7CD6E6" transform="translate(21,33)"/>
<path d="M0 0 C3.37462715 0.54723683 5.08235 1.0549 8 3 C8 2.01 8 1.02 8 0 C8.99 0 9.98 0 11 0 C11 0.99 11 1.98 11 3 C11.66 3 12.32 3 13 3 C13.33 2.01 13.66 1.02 14 0 C15.65 0 17.3 0 19 0 C18.125 3.875 18.125 3.875 17 5 C14.13732433 5.07325168 11.299281 5.09238205 8.4375 5.0625 C7.63119141 5.05798828 6.82488281 5.05347656 5.99414062 5.04882812 C3.99606244 5.03700518 1.99802217 5.01906914 0 5 C0 3.35 0 1.7 0 0 Z " fill="#34AEC5" transform="translate(33,97)"/>
<path d="M0 0 C8.58 0 17.16 0 26 0 C25.67 0.99 25.34 1.98 25 3 C17.08 3 9.16 3 1 3 C0.67 2.01 0.34 1.02 0 0 Z " fill="#4C4CA0" transform="translate(101,124)"/>
<path d="M0 0 C0.66 0 1.32 0 2 0 C2 3.63 2 7.26 2 11 C-1.96 11 -5.92 11 -10 11 C-9 9 -9 9 -6 7 C-6 6.01 -6 5.02 -6 4 C-4.68 4.33 -3.36 4.66 -2 5 C-1.34 3.35 -0.68 1.7 0 0 Z " fill="#7793FE" transform="translate(125,113)"/>
<path d="M0 0 C0.89332031 0.13921875 1.78664063 0.2784375 2.70703125 0.421875 C3.60808594 0.55078125 4.50914063 0.6796875 5.4375 0.8125 C6.12457031 0.93109375 6.81164062 1.0496875 7.51953125 1.171875 C7.51953125 1.831875 7.51953125 2.491875 7.51953125 3.171875 C6.52953125 3.501875 5.53953125 3.831875 4.51953125 4.171875 C4.51953125 4.831875 4.51953125 5.491875 4.51953125 6.171875 C-1.10546875 9.171875 -1.10546875 9.171875 -4.48046875 9.171875 C-4.81046875 9.831875 -5.14046875 10.491875 -5.48046875 11.171875 C-5.84451984 4.86165602 -5.84451984 4.86165602 -4.29296875 1.921875 C-2.48046875 0.171875 -2.48046875 0.171875 0 0 Z " fill="#6B70FE" transform="translate(107.48046875,112.828125)"/>
<path d="M0 0 C6.27 0 12.54 0 19 0 C19 1.65 19 3.3 19 5 C14.71 5 10.42 5 6 5 C6 4.01 6 3.02 6 2 C3.03 1.505 3.03 1.505 0 1 C0 0.67 0 0.34 0 0 Z " fill="#7EDAE2" transform="translate(7,58)"/>
<path d="M0 0 C1.67542976 0.28604898 3.34385343 0.61781233 5 1 C5.33 3.64 5.66 6.28 6 9 C5.21625 9.45375 4.4325 9.9075 3.625 10.375 C0.96301969 11.88428742 0.96301969 11.88428742 -1 14 C-1.02685938 11.85423363 -1.04633088 9.70837355 -1.0625 7.5625 C-1.07410156 6.36753906 -1.08570312 5.17257813 -1.09765625 3.94140625 C-1 1 -1 1 0 0 Z " fill="#33C6E0" transform="translate(106,33)"/>
<path d="M0 0 C0.33 0 0.66 0 1 0 C1 6.27 1 12.54 1 19 C0.67 19 0.34 19 0 19 C0 12.73 0 6.46 0 0 Z M-4 19 C-2.68 19.33 -1.36 19.66 0 20 C-0.165 20.78375 -0.33 21.5675 -0.5 22.375 C-1.12960847 26.93966142 -1.08180527 31.40072601 -1 36 C-1.99 36 -2.98 36 -4 36 C-4 30.39 -4 24.78 -4 19 Z " fill="#5B56FA" transform="translate(34,61)"/>
<path d="M0 0 C3.63 0 7.26 0 11 0 C11 0.66 11 1.32 11 2 C10.34 2 9.68 2 9 2 C9 2.99 9 3.98 9 5 C5.59768808 7.90441261 3.62811903 8.95947619 -0.875 9.25 C-1.90625 9.1675 -2.9375 9.085 -4 9 C-1.53222836 4.1878453 -1.53222836 4.1878453 1.125 3.25 C1.74375 3.1675 2.3625 3.085 3 3 C3.33 2.67 3.66 2.34 4 2 C2.68 1.34 1.36 0.68 0 0 Z " fill="#5E4BFB" transform="translate(110,87)"/>
<path d="M0 0 C0.91007812 0.00902344 1.82015625 0.01804688 2.7578125 0.02734375 C3.45648438 0.03894531 4.15515625 0.05054688 4.875 0.0625 C4.875 3.0325 4.875 6.0025 4.875 9.0625 C3.885 9.3925 2.895 9.7225 1.875 10.0625 C0.75 6.3125 0.75 6.3125 1.875 4.0625 C-1.095 4.0625 -4.065 4.0625 -7.125 4.0625 C-7.125 3.0725 -7.125 2.0825 -7.125 1.0625 C-4.60024538 -0.19987731 -2.81299534 -0.03606404 0 0 Z " fill="#7181FE" transform="translate(110.125,62.9375)"/>
<path d="M0 0 C2.31 0 4.62 0 7 0 C7 1.65 7 3.3 7 5 C3.37 5 -0.26 5 -4 5 C-4 6.65 -4 8.3 -4 10 C-5.32 10 -6.64 10 -8 10 C-8 8.02 -8 6.04 -8 4 C-5.36 4 -2.72 4 0 4 C0 2.68 0 1.36 0 0 Z " fill="#3D418D" transform="translate(34,49)"/>
<path d="M0 0 C1.24716797 0.00322266 2.49433594 0.00644531 3.77929688 0.00976562 C5.07287109 0.01814453 6.36644531 0.02652344 7.69921875 0.03515625 C9.66858398 0.04192383 9.66858398 0.04192383 11.67773438 0.04882812 C14.91410885 0.06059676 18.15039053 0.07703865 21.38671875 0.09765625 C21.05671875 0.75765625 20.72671875 1.41765625 20.38671875 2.09765625 C19.73074707 2.11747559 19.07477539 2.13729492 18.39892578 2.15771484 C15.43610806 2.25278132 12.47401343 2.36253377 9.51171875 2.47265625 C7.96291016 2.5190625 7.96291016 2.5190625 6.3828125 2.56640625 C4.90361328 2.62441406 4.90361328 2.62441406 3.39453125 2.68359375 C2.4833252 2.71501465 1.57211914 2.74643555 0.63330078 2.77880859 C-1.81259311 2.89648136 -1.81259311 2.89648136 -3.61328125 5.09765625 C-6.34197532 5.06478042 -8.90994305 4.53367854 -11.61328125 4.09765625 C-11.61328125 3.10765625 -11.61328125 2.11765625 -11.61328125 1.09765625 C-7.68039761 0.16677716 -4.03673962 -0.0184326 0 0 Z " fill="#D9D9E8" transform="translate(106.61328125,125.90234375)"/>
<path d="M0 0 C0.33 1.32 0.66 2.64 1 4 C0.01 4 -0.98 4 -2 4 C-2 3.34 -2 2.68 -2 2 C-9.26 2 -16.52 2 -24 2 C-24 1.34 -24 0.68 -24 0 C-15.85315786 -0.6976874 -8.11696631 -1.28162626 0 0 Z " fill="#34D3D2" transform="translate(97,45)"/>
<path d="M0 0 C0.66 0 1.32 0 2 0 C2 3.3 2 6.6 2 10 C-1.3 10 -4.6 10 -8 10 C-8 9.34 -8 8.68 -8 8 C-6.68 7.67 -5.36 7.34 -4 7 C-4 6.34 -4 5.68 -4 5 C-3.01 4.34 -2.02 3.68 -1 3 C-0.67 2.01 -0.34 1.02 0 0 Z " fill="#37DBC8" transform="translate(121,104)"/>
<path d="M0 0 C2.31 0 4.62 0 7 0 C7.33 1.32 7.66 2.64 8 4 C9.65 4 11.3 4 13 4 C13 4.99 13 5.98 13 7 C11.39125 6.6596875 11.39125 6.6596875 9.75 6.3125 C6.07021424 5.64224175 6.07021424 5.64224175 3.5625 7.4375 C3.046875 7.953125 2.53125 8.46875 2 9 C1.34 6.03 0.68 3.06 0 0 Z " fill="#6BD4E3" transform="translate(110,33)"/>
<path d="M0 0 C0.99 0 1.98 0 3 0 C3 1.98 3 3.96 3 6 C-0.06246747 7.78409802 -2.22079273 8.22880021 -5.75 8.125 C-6.54921875 8.10695313 -7.3484375 8.08890625 -8.171875 8.0703125 C-8.77515625 8.04710938 -9.3784375 8.02390625 -10 8 C-10 7.34 -10 6.68 -10 6 C-8.72125 5.7525 -7.4425 5.505 -6.125 5.25 C-2.73252682 4.48009414 -2.73252682 4.48009414 -0.5 1.875 C-0.335 1.25625 -0.17 0.6375 0 0 Z " fill="#ABCAFE" transform="translate(61,113)"/>
<path d="M0 0 C2.78211944 0.37596209 4.5879284 0.67318459 6.8125 2.4375 C8 4 8 4 8 6 C5.5 7.625 5.5 7.625 3 9 C3 8.01 3 7.02 3 6 C1.35 6 -0.3 6 -2 6 C-1.34 4.02 -0.68 2.04 0 0 Z " fill="#4AC9D9" transform="translate(49,91)"/>
<path d="M0 0 C3.3 0 6.6 0 10 0 C10 0.99 10 1.98 10 3 C8.02 3.33 6.04 3.66 4 4 C4.33 4.66 4.66 5.32 5 6 C4.67 6.66 4.34 7.32 4 8 C2.68 8.33 1.36 8.66 0 9 C0 6.03 0 3.06 0 0 Z " fill="#3DBCDD" transform="translate(105,54)"/>
<path d="M0 0 C2.31 0 4.62 0 7 0 C7 2.31 7 4.62 7 7 C4.69 6.67 2.38 6.34 0 6 C0 4.02 0 2.04 0 0 Z " fill="#A1C2FE" transform="translate(91,85)"/>
<path d="M0 0 C2.64 0 5.28 0 8 0 C8 1.98 8 3.96 8 6 C6.02 6.33 4.04 6.66 2 7 C0 4 0 4 0 0 Z " fill="#3DB4DE" transform="translate(26,59)"/>
<path d="M0 0 C7.92 0.33 15.84 0.66 24 1 C24 1.33 24 1.66 24 2 C23.09906616 2.03758423 23.09906616 2.03758423 22.17993164 2.07592773 C19.47388563 2.1915528 16.76821717 2.31442936 14.0625 2.4375 C12.64420898 2.49647461 12.64420898 2.49647461 11.19726562 2.55664062 C10.29814453 2.59853516 9.39902344 2.64042969 8.47265625 2.68359375 C7.22367554 2.73858032 7.22367554 2.73858032 5.94946289 2.79467773 C3.99661142 2.79367103 3.99661142 2.79367103 3 4 C1.14712498 4.07226502 -0.70833878 4.0838122 -2.5625 4.0625 C-3.57441406 4.05347656 -4.58632812 4.04445313 -5.62890625 4.03515625 C-6.41136719 4.02355469 -7.19382812 4.01195312 -8 4 C-8 3.34 -8 2.68 -8 2 C-5.69 2 -3.38 2 -1 2 C-0.67 1.34 -0.34 0.68 0 0 Z " fill="#ABE7ED" transform="translate(106,45)"/>
<path d="M0 0 C0.33 0.66 0.66 1.32 1 2 C-1.31 2.33 -3.62 2.66 -6 3 C-6.33 3.99 -6.66 4.98 -7 6 C-8.65 5.67 -10.3 5.34 -12 5 C-12 3.68 -12 2.36 -12 1 C-8.0186217 -0.3271261 -4.14954773 -0.06915913 0 0 Z " fill="#3DBADC" transform="translate(59,86)"/>
<path d="M0 0 C1.37478516 0.01740234 1.37478516 0.01740234 2.77734375 0.03515625 C3.69644531 0.04417969 4.61554688 0.05320312 5.5625 0.0625 C6.27277344 0.07410156 6.98304687 0.08570312 7.71484375 0.09765625 C4.71484375 2.09765625 4.71484375 2.09765625 1.71484375 2.09765625 C1.71484375 2.75765625 1.71484375 3.41765625 1.71484375 4.09765625 C0.04817708 5.76432292 -1.61848958 7.43098958 -3.28515625 9.09765625 C-3.3828125 2.9453125 -3.3828125 2.9453125 -3.28515625 1.09765625 C-2.28515625 0.09765625 -2.28515625 0.09765625 0 0 Z " fill="#45B4F5" transform="translate(108.28515625,95.90234375)"/>
<path d="M0 0 C0 3.63 0 7.26 0 11 C-1.32 11.33 -2.64 11.66 -4 12 C-4.368 4.64 -4.368 4.64 -2.5625 1.5 C-1 0 -1 0 0 0 Z " fill="#6C71FE" transform="translate(127,92)"/>
<path d="M0 0 C0.04254356 1.99954746 0.04080783 4.00041636 0 6 C-1 7 -1 7 -3.06640625 7.09765625 C-3.89011719 7.08605469 -4.71382812 7.07445313 -5.5625 7.0625 C-6.38878906 7.05347656 -7.21507812 7.04445313 -8.06640625 7.03515625 C-8.70449219 7.02355469 -9.34257813 7.01195313 -10 7 C-10 6.34 -10 5.68 -10 5 C-8.35 5 -6.7 5 -5 5 C-5 4.34 -5 3.68 -5 3 C-2.46153846 0 -2.46153846 0 0 0 Z " fill="#36DFC2" transform="translate(60,98)"/>
<path d="M0 0 C1.98 0 3.96 0 6 0 C6 1.98 6 3.96 6 6 C4.02 6 2.04 6 0 6 C0 4.02 0 2.04 0 0 Z " fill="#A6C7FF" transform="translate(83,85)"/>
<path d="M0 0 C1.98 0 3.96 0 6 0 C6 1.98 6 3.96 6 6 C4.02 6 2.04 6 0 6 C0 4.02 0 2.04 0 0 Z " fill="#A6C7FF" transform="translate(74,85)"/>
<path d="M0 0 C0.66 0 1.32 0 2 0 C2 1.65 2 3.3 2 5 C-1.63 5 -5.26 5 -9 5 C-8.67 4.01 -8.34 3.02 -8 2 C-7.05125 2.04125 -6.1025 2.0825 -5.125 2.125 C-1.89755144 2.34973818 -1.89755144 2.34973818 0 0 Z " fill="#34DCC4" transform="translate(32,75)"/>
<path d="M0 0 C0.99 0 1.98 0 3 0 C3.08121924 1.60332791 3.13929134 3.20784026 3.1875 4.8125 C3.23970703 6.15248047 3.23970703 6.15248047 3.29296875 7.51953125 C3 10 3 10 0 13 C0 8.71 0 4.42 0 0 Z " fill="#3B96D8" transform="translate(41,49)"/>
<path d="M0 0 C2.31 0 4.62 0 7 0 C7 1.65 7 3.3 7 5 C4.69 5 2.38 5 0 5 C0 3.35 0 1.7 0 0 Z " fill="#3C3E8A" transform="translate(98,49)"/>
<path d="M0 0 C6.6 0 13.2 0 20 0 C20 0.99 20 1.98 20 3 C13.4 2.34 6.8 1.68 0 1 C0 0.67 0 0.34 0 0 Z " fill="#41D1D8" transform="translate(14,32)"/>
<path d="M0 0 C0 1.98 0 3.96 0 6 C0.66 6.33 1.32 6.66 2 7 C1 8 1 8 -1.06640625 8.09765625 C-1.89011719 8.08605469 -2.71382812 8.07445312 -3.5625 8.0625 C-4.38878906 8.05347656 -5.21507812 8.04445313 -6.06640625 8.03515625 C-6.70449219 8.02355469 -7.34257813 8.01195312 -8 8 C-8 7.67 -8 7.34 -8 7 C-6.35 6.67 -4.7 6.34 -3 6 C-2.67 4.68 -2.34 3.36 -2 2 C-3.98 2 -5.96 2 -8 2 C-8 1.67 -8 1.34 -8 1 C-5.23735711 0.40267181 -2.83967231 0 0 0 Z " fill="#8ADCE5" transform="translate(15,45)"/>
<path d="M0 0 C7.92 0.33 15.84 0.66 24 1 C24 1.33 24 1.66 24 2 C19.38 2 14.76 2 10 2 C10 2.66 10 3.32 10 4 C9.01 4 8.02 4 7 4 C7 3.34 7 2.68 7 2 C4.69 2 2.38 2 0 2 C0 1.34 0 0.68 0 0 Z " fill="#8BD7E7" transform="translate(34,45)"/>
<path d="M0 0 C1.65 0 3.3 0 5 0 C4.125 3.875 4.125 3.875 3 5 C0.66702567 5.04092937 -1.66705225 5.04241723 -4 5 C-4 4.34 -4 3.68 -4 3 C-3.01 3 -2.02 3 -1 3 C-0.67 2.01 -0.34 1.02 0 0 Z " fill="#3CC2C8" transform="translate(47,97)"/>
<path d="M0 0 C2.97 0 5.94 0 9 0 C9.33 0.66 9.66 1.32 10 2 C8.01432292 2.48828125 6.02864583 2.9765625 4.04296875 3.46484375 C2.34316798 3.91010705 0.66698046 4.44433985 -1 5 C-0.67 3.35 -0.34 1.7 0 0 Z " fill="#4895EC" transform="translate(34,86)"/>
<path d="M0 0 C1.67542976 0.28604898 3.34385343 0.61781233 5 1 C4.67 2.32 4.34 3.64 4 5 C2.68 5.33 1.36 5.66 0 6 C-0.38218767 4.34385343 -0.71395102 2.67542976 -1 1 C-0.67 0.67 -0.34 0.34 0 0 Z " fill="#51CFDD" transform="translate(22,67)"/>
<path d="M0 0 C0.66 0 1.32 0 2 0 C2 1.65 2 3.3 2 5 C2.99 5.33 3.98 5.66 5 6 C4.01 6.99 3.02 7.98 2 9 C0.68 8.34 -0.64 7.68 -2 7 C-2 6.34 -2 5.68 -2 5 C-1.34 5 -0.68 5 0 5 C0 3.35 0 1.7 0 0 Z " fill="#EEF9FA" transform="translate(119,51)"/>
<path d="M0 0 C0.33 0 0.66 0 1 0 C1.268125 0.94875 1.53625 1.8975 1.8125 2.875 C2.74986588 6.25267273 2.74986588 6.25267273 6 8 C5.34 8 4.68 8 4 8 C4 8.66 4 9.32 4 10 C3.01 10 2.02 10 1 10 C0.67 9.01 0.34 8.02 0 7 C-0.66 6.67 -1.32 6.34 -2 6 C-1.49396008 3.83125748 -1.00016187 2.00032373 0 0 Z " fill="#F8FCFD" transform="translate(19,66)"/>
<path d="M0 0 C0.91007812 0.10183594 1.82015625 0.20367187 2.7578125 0.30859375 C3.45648438 0.39238281 4.15515625 0.47617188 4.875 0.5625 C4.875 1.2225 4.875 1.8825 4.875 2.5625 C0.255 2.5625 -4.365 2.5625 -9.125 2.5625 C-5.92868638 -0.63381362 -4.35745525 -0.5027833 0 0 Z " fill="#98BFFE" transform="translate(69.125,118.4375)"/>
<path d="M0 0 C0.99 0 1.98 0 3 0 C3.1875 3.3125 3.1875 3.3125 3 7 C2.01 7.99 1.02 8.98 0 10 C0 6.7 0 3.4 0 0 Z " fill="#655CFE" transform="translate(102,107)"/>
<path d="M0 0 C0.99 0 1.98 0 3 0 C3 0.66 3 1.32 3 2 C4.32 1.67 5.64 1.34 7 1 C7 1.99 7 2.98 7 4 C4.36 4 1.72 4 -1 4 C-0.67 2.68 -0.34 1.36 0 0 Z " fill="#32C7E0" transform="translate(14,59)"/>
<path d="M0 0 C2.97 0.33 5.94 0.66 9 1 C9.33 2.32 9.66 3.64 10 5 C9.01 5 8.02 5 7 5 C7 4.34 7 3.68 7 3 C5.02 3 3.04 3 1 3 C0.67 2.01 0.34 1.02 0 0 Z " fill="#53D9D4" transform="translate(88,44)"/>
<path d="M0 0 C2.64 0 5.28 0 8 0 C8.33 0.66 8.66 1.32 9 2 C6.29120665 3.35439668 3.99066732 3.06501451 1 3 C0.67 2.01 0.34 1.02 0 0 Z " fill="#4FD2DB" transform="translate(33,102)"/>
<path d="M0 0 C0.33 0.66 0.66 1.32 1 2 C2.32 2 3.64 2 5 2 C4.67 2.99 4.34 3.98 4 5 C3.34 4.67 2.68 4.34 2 4 C2 5.32 2 6.64 2 8 C1.34 7.67 0.68 7.34 0 7 C0.33 6.01 0.66 5.02 1 4 C0.01 4 -0.98 4 -2 4 C-1 1 -1 1 0 0 Z " fill="#53C9D8" transform="translate(29,63)"/>
<path d="M0 0 C1.65 0 3.3 0 5 0 C5 1.32 5 2.64 5 4 C3.35 4 1.7 4 0 4 C0 2.68 0 1.36 0 0 Z " fill="#33C5DE" transform="translate(13,65)"/>
<path d="M0 0 C2 1.25 2 1.25 4 3 C4 4.32 4 5.64 4 7 C2.68 7 1.36 7 0 7 C0 4.69 0 2.38 0 0 Z " fill="#34C1C4" transform="translate(115,56)"/>
<path d="M0 0 C0.33 0 0.66 0 1 0 C1 2.64 1 5.28 1 8 C0.01 8.33 -0.98 8.66 -2 9 C-2.25 3.375 -2.25 3.375 0 0 Z " fill="#409AE9" transform="translate(43,59)"/>
<path d="M0 0 C1.7074998 1.28062485 3.37373596 2.61767557 5 4 C5 4.66 5 5.32 5 6 C2.5 7.625 2.5 7.625 0 9 C0.185625 8.2575 0.37125 7.515 0.5625 6.75 C0.99203108 4.05009037 0.85122974 2.55368923 0 0 Z " fill="#DDF5F7" transform="translate(52,91)"/>
<path d="M0 0 C1.32 0 2.64 0 4 0 C3.67 2.31 3.34 4.62 3 7 C1.5 5.75 1.5 5.75 0 4 C0 2.68 0 1.36 0 0 Z " fill="#35ADC6" transform="translate(26,59)"/>
<path d="M0 0 C0.33 0.66 0.66 1.32 1 2 C1.99 2.33 2.98 2.66 4 3 C3 4 3 4 0.49609375 4.09765625 C-1.01791016 4.08025391 -1.01791016 4.08025391 -2.5625 4.0625 C-3.57441406 4.05347656 -4.58632812 4.04445313 -5.62890625 4.03515625 C-6.41136719 4.02355469 -7.19382812 4.01195312 -8 4 C-8 3.34 -8 2.68 -8 2 C-5.69 2 -3.38 2 -1 2 C-0.67 1.34 -0.34 0.68 0 0 Z " fill="#8FCDDF" transform="translate(106,45)"/>
<path d="M0 0 C0.66 0.33 1.32 0.66 2 1 C0.515 4.96 0.515 4.96 -1 9 C-1.66 9 -2.32 9 -3 9 C-2.5020163 5.26512223 -2.12508244 3.18762365 0 0 Z " fill="#E7F7F8" transform="translate(47,91)"/>
<path d="M0 0 C0 0.99 0 1.98 0 3 C0.3062434 4.33981486 0.63451555 5.67511887 1 7 C-0.32 6.34 -1.64 5.68 -3 5 C-3 4.01 -3 3.02 -3 2 C-2.01 1.34 -1.02 0.68 0 0 Z " fill="#E5F3F8" transform="translate(39,92)"/>
<path d="M0 0 C0.99 0 1.98 0 3 0 C3 0.66 3 1.32 3 2 C3.99 2.33 4.98 2.66 6 3 C5.01 3.33 4.02 3.66 3 4 C2.01 5.485 2.01 5.485 1 7 C1 5.35 1 3.7 1 2 C0.34 1.67 -0.32 1.34 -1 1 C-0.67 0.67 -0.34 0.34 0 0 Z " fill="#E0F4F8" transform="translate(19,64)"/>
</svg>
