<?xml version="1.0" encoding="UTF-8"?>
<svg version="1.1" xmlns="http://www.w3.org/2000/svg" width="150" height="150">
<path d="M0 0 C7.875 0.875 7.875 0.875 9 2 C8.95875 2.78375 8.9175 3.5675 8.875 4.375 C8.79515248 6.97190679 8.79515248 6.97190679 10.0625 8.8125 C12.99268751 10.60842137 15.6472953 10.18977574 19 10 C19.495 12.475 19.495 12.475 20 15 C20.85464844 14.98839844 21.70929688 14.97679687 22.58984375 14.96484375 C23.69457031 14.95582031 24.79929687 14.94679688 25.9375 14.9375 C27.03964844 14.92589844 28.14179688 14.91429687 29.27734375 14.90234375 C32 15 32 15 33 16 C33.08713831 17.70772358 33.10700007 19.41898649 33.09765625 21.12890625 C33.09443359 22.16337891 33.09121094 23.19785156 33.08789062 24.26367188 C33.07951172 25.35228516 33.07113281 26.44089844 33.0625 27.5625 C33.05798828 28.65498047 33.05347656 29.74746094 33.04882812 30.87304688 C33.03699826 33.58208495 33.02051543 36.29101599 33 39 C33.66 39 34.32 39 35 39 C35.2475 39.804375 35.495 40.60875 35.75 41.4375 C36.72238859 44.171081 36.72238859 44.171081 39.125 44.8125 C39.74375 44.874375 40.3625 44.93625 41 45 C41.33 46.32 41.66 47.64 42 49 C41.01 49.66 40.02 50.32 39 51 C39.3403125 52.1446875 39.3403125 52.1446875 39.6875 53.3125 C40 56 40 56 38.9375 57.8125 C36.24448045 59.46306037 34.09429572 59.20628638 31 59 C30.505 59.99 30.505 59.99 30 61 C28.35 60.67 26.7 60.34 25 60 C24.505 58.02 24.505 58.02 24 56 C22.35 55.67 20.7 55.34 19 55 C18.67 53.35 18.34 51.7 18 50 C18.99 50 19.98 50 21 50 C21.33 48.35 21.66 46.7 22 45 C20.35 45 18.7 45 17 45 C17 51.6 17 58.2 17 65 C19.31 65 21.62 65 24 65 C25 66 25 66 25.11352539 69.96899414 C25.1133662 71.74105607 25.10766785 73.5131226 25.09765625 75.28515625 C25.0962413 76.21597519 25.09482635 77.14679413 25.09336853 78.1058197 C25.08775172 81.09141191 25.0751964 84.07693029 25.0625 87.0625 C25.05748716 89.08137913 25.05292388 91.10025943 25.04882812 93.11914062 C25.03777683 98.07945572 25.02050095 103.03971532 25 108 C27.31 108.66 29.62 109.32 32 110 C31 112 31 112 29.34521484 112.61450195 C24.49200924 113.41225457 19.54404055 113.18590312 14.63769531 113.18530273 C12.63863013 113.18748512 10.63960468 113.20599143 8.640625 113.22460938 C7.36960937 113.22654297 6.09859375 113.22847656 4.7890625 113.23046875 C3.63100098 113.23457764 2.47293945 113.23868652 1.27978516 113.24291992 C-2.11310954 112.99162245 -4.83332989 112.21173908 -8 111 C-7.67 110.34 -7.34 109.68 -7 109 C-4.4375 108.375 -4.4375 108.375 -2 108 C-2.67857056 107.99191315 -3.35714111 107.98382629 -4.05627441 107.97549438 C-11.19572947 107.88863335 -18.33493245 107.7891071 -25.47412109 107.68261719 C-28.12938188 107.64363425 -30.7845665 107.60971702 -33.43994141 107.578125 C-72.83630137 107.1036487 -72.83630137 107.1036487 -79 103 C-79.75 100.375 -79.75 100.375 -80 98 C-83.153368 97.29925156 -85.72724974 97 -89 97 C-90.75 94.5 -90.75 94.5 -92 92 C-91.484375 91.5875 -90.96875 91.175 -90.4375 90.75 C-88.75264314 89.10265318 -88.75264314 89.10265318 -89.125 86.875 C-89.41375 86.25625 -89.7025 85.6375 -90 85 C-90.99 84.67 -91.98 84.34 -93 84 C-92.34 81.69 -91.68 79.38 -91 77 C-89.02 77 -87.04 77 -85 77 C-83.42726432 74.1575146 -83.42726432 74.1575146 -83 71 C-79.535 70.505 -79.535 70.505 -76 70 C-76 68.35 -76 66.7 -76 65 C-82.27 65 -88.54 65 -95 65 C-95 64.34 -95 63.68 -95 63 C-92.03 62.505 -92.03 62.505 -89 62 C-89 61.01 -89 60.02 -89 59 C-90.98 59 -92.96 59 -95 59 C-95 58.34 -95 57.68 -95 57 C-93.02 57 -91.04 57 -89 57 C-89 55.68 -89 54.36 -89 53 C-90.98 53 -92.96 53 -95 53 C-95 52.34 -95 51.68 -95 51 C-93.02 51 -91.04 51 -89 51 C-89 49.68 -89 48.36 -89 47 C-90.98 47 -92.96 47 -95 47 C-95 46.34 -95 45.68 -95 45 C-93.02 45 -91.04 45 -89 45 C-89 44.01 -89 43.02 -89 42 C-90.98 41.67 -92.96 41.34 -95 41 C-95 40.67 -95 40.34 -95 40 C-88.73 40 -82.46 40 -76 40 C-76 38.35 -76 36.7 -76 35 C-82.27 35 -88.54 35 -95 35 C-95 34.67 -95 34.34 -95 34 C-92.525 33.505 -92.525 33.505 -90 33 C-89.67 31.68 -89.34 30.36 -89 29 C-90.98 29 -92.96 29 -95 29 C-95 28.67 -95 28.34 -95 28 C-93.35 27.67 -91.7 27.34 -90 27 C-89.67 25.68 -89.34 24.36 -89 23 C-90.98 23 -92.96 23 -95 23 C-95 22.67 -95 22.34 -95 22 C-93.35 21.67 -91.7 21.34 -90 21 C-89.67 19.68 -89.34 18.36 -89 17 C-90.98 17 -92.96 17 -95 17 C-95 16.67 -95 16.34 -95 16 C-89.11060037 13.95887931 -83.8280285 13.72721958 -77.625 13.8125 C-76.25408203 13.8134668 -76.25408203 13.8134668 -74.85546875 13.81445312 C-68.14064837 13.85935163 -68.14064837 13.85935163 -67 15 C-64.19023482 15.16017166 -61.40226404 15.25950534 -58.58984375 15.31640625 C-57.74780899 15.33718735 -56.90577423 15.35796844 -56.03822327 15.37937927 C-53.33806821 15.44496812 -50.63781283 15.50380276 -47.9375 15.5625 C-46.11131759 15.60567637 -44.28514546 15.64929036 -42.45898438 15.69335938 C-37.97276008 15.80065894 -33.4864345 15.90189966 -29 16 C-29 16.33 -29 16.66 -29 17 C-41.87 17 -54.74 17 -68 17 C-67.67 18.32 -67.34 19.64 -67 21 C-54.46 21.33 -41.92 21.66 -29 22 C-29 22.33 -29 22.66 -29 23 C-41.87 23 -54.74 23 -68 23 C-67.67 24.32 -67.34 25.64 -67 27 C-51.16 27 -35.32 27 -19 27 C-19.495 25.02 -19.495 25.02 -20 23 C-18.7625 22.443125 -18.7625 22.443125 -17.5 21.875 C-14.68073782 20.21816103 -14.68073782 20.21816103 -14.5625 17.0625 C-14.96779191 14.22545666 -15.51218383 12.41770128 -17 10 C-15.35 8.02 -13.7 6.04 -12 4 C-11.2265625 4.495 -11.2265625 4.495 -10.4375 5 C-7.21973488 6.32010877 -4.4429472 6.13242105 -1 6 C-0.67 4.02 -0.34 2.04 0 0 Z M-6 14 C-8.2084626 17.31269391 -8.80664241 19.14978851 -8.5546875 23.0625 C-7.4812192 26.81207941 -5.28696911 28.01541488 -2 30 C0.63836977 30.1672392 0.63836977 30.1672392 3 30 C3.03738281 29.01257813 3.07476562 28.02515625 3.11328125 27.0078125 C3.17902344 25.72648437 3.24476562 24.44515625 3.3125 23.125 C3.37050781 21.84882812 3.42851563 20.57265625 3.48828125 19.2578125 C3.65714844 18.18273437 3.82601562 17.10765625 4 16 C4.99 15.34 5.98 14.68 7 14 C5.01607489 11.60148679 5.01607489 11.60148679 1.1875 11.5625 C-2.17733329 11.66669338 -3.04370031 12.02913354 -6 14 Z M-68 29 C-68 29.66 -68 30.32 -68 31 C-65.69 31 -63.38 31 -61 31 C-61 30.34 -61 29.68 -61 29 C-63.31 29 -65.62 29 -68 29 Z M25 47 C24.6366844 49.83386167 24.6431329 51.40522151 26.125 53.875 C28.92151052 55.55290631 30.93690532 54.74875648 34 54 C34.67673447 50.59679066 34.67673447 50.59679066 35 47 C33.11499729 44.68436913 33.11499729 44.68436913 30 44.75 C26.88500271 44.68436913 26.88500271 44.68436913 25 47 Z M-82.25 80.625 C-84.21985834 82.92308586 -84.21985834 82.92308586 -84.5 86 C-84.21376982 89.06575838 -84.21376982 89.06575838 -82.3125 91.375 C-79.61209763 93.27258004 -78.22939919 93.35882213 -75 93 C-74.85024761 85.94348748 -74.85024761 85.94348748 -76 79 C-79.92212225 78.60967296 -79.92212225 78.60967296 -82.25 80.625 Z M-70 95 C-70.66 96.32 -71.32 97.64 -72 99 C-71.0226905 100.20805665 -71.0226905 100.20805665 -69.19335938 100.03759766 C-68.03030273 99.97644775 -68.03030273 99.97644775 -66.84375 99.9140625 C-65.98523438 99.87023437 -65.12671875 99.82640625 -64.2421875 99.78125 C-63.33726563 99.7296875 -62.43234375 99.678125 -61.5 99.625 C-60.62601563 99.58117187 -59.75203125 99.53734375 -58.8515625 99.4921875 C-53.20337732 99.19050402 -47.61587427 98.67344834 -42 98 C-41.67 97.01 -41.34 96.02 -41 95 C-50.57 95 -60.14 95 -70 95 Z M-17 95 C-17 95.99 -17 96.98 -17 98 C-11.72 98.33 -6.44 98.66 -1 99 C-1 97.68 -1 96.36 -1 95 C-6.28 95 -11.56 95 -17 95 Z " fill="#5E4BFE" transform="translate(102,18)"/>
<path d="M0 0 C2.31 0 4.62 0 7 0 C7 2.97 7 5.94 7 9 C10.3 9 13.6 9 17 9 C17 15.6 17 22.2 17 29 C12.71 29 8.42 29 4 29 C4 29.66 4 30.32 4 31 C12.79133718 32.42426407 12.79133718 32.42426407 29 32 C29 45.2 29 58.4 29 72 C31.31 72.66 33.62 73.32 36 74 C35 76 35 76 33.34521484 76.61450195 C28.49200924 77.41225457 23.54404055 77.18590312 18.63769531 77.18530273 C16.63863013 77.18748512 14.63960468 77.20599143 12.640625 77.22460938 C11.36960937 77.22654297 10.09859375 77.22847656 8.7890625 77.23046875 C7.63100098 77.23457764 6.47293945 77.23868652 5.27978516 77.24291992 C1.88689046 76.99162245 -0.83332989 76.21173908 -4 75 C-3.67 74.34 -3.34 73.68 -3 73 C-0.4375 72.375 -0.4375 72.375 2 72 C1.32142944 71.99191315 0.64285889 71.98382629 -0.05627441 71.97549438 C-7.19572947 71.88863335 -14.33493245 71.7891071 -21.47412109 71.68261719 C-24.12938188 71.64363425 -26.7845665 71.60971702 -29.43994141 71.578125 C-68.83630137 71.1036487 -68.83630137 71.1036487 -75 67 C-75.75 64.375 -75.75 64.375 -76 62 C-79.153368 61.29925156 -81.72724974 61 -85 61 C-86.75 58.5 -86.75 58.5 -88 56 C-87.484375 55.5875 -86.96875 55.175 -86.4375 54.75 C-84.75264314 53.10265318 -84.75264314 53.10265318 -85.125 50.875 C-85.41375 50.25625 -85.7025 49.6375 -86 49 C-86.99 48.67 -87.98 48.34 -89 48 C-88.34 45.69 -87.68 43.38 -87 41 C-85.02 41 -83.04 41 -81 41 C-79.42726432 38.1575146 -79.42726432 38.1575146 -79 35 C-75.535 34.505 -75.535 34.505 -72 34 C-72 36.97 -72 39.94 -72 43 C-72.969375 43.28875 -73.93875 43.5775 -74.9375 43.875 C-78.10664203 44.64214682 -78.10664203 44.64214682 -79 47 C-79.40270732 51.1283652 -79.40270732 51.1283652 -77.8125 54.8125 C-75.57968261 56.27538036 -73.62655933 56.64505955 -71 57 C-71 54.03 -71 51.06 -71 48 C-69.02 48 -67.04 48 -65 48 C-64.67 48.66 -64.34 49.32 -64 50 C-55.75 50 -47.5 50 -39 50 C-38.505 49.01 -38.505 49.01 -38 48 C-24.47 48 -10.94 48 3 48 C3 46.35 3 44.7 3 43 C-5.58 43 -14.16 43 -23 43 C-22.34 42.67 -21.68 42.34 -21 42 C-20.67 41.01 -20.34 40.02 -20 39 C-21.98 38.505 -21.98 38.505 -24 38 C-24 35.69 -24 33.38 -24 31 C-21.02148438 31.04882812 -21.02148438 31.04882812 -18.04296875 31.09765625 C-15.79694539 31.08263217 -15.79694539 31.08263217 -13 30 C-12.67 29.34 -12.34 28.68 -12 28 C-10.07426764 26.07426764 -6.64462302 26.5128147 -4.03125 26.28125 C-2.00819407 26.20934163 -2.00819407 26.20934163 -1 25 C-0.84213692 23.14825294 -0.74892644 21.2909089 -0.68359375 19.43359375 C-0.64169922 18.30888672 -0.59980469 17.18417969 -0.55664062 16.02539062 C-0.51732422 14.84138672 -0.47800781 13.65738281 -0.4375 12.4375 C-0.37272461 10.65569336 -0.37272461 10.65569336 -0.30664062 8.83789062 C-0.20016454 5.89205216 -0.09815159 2.9461257 0 0 Z M-66 59 C-66.66 60.32 -67.32 61.64 -68 63 C-67.0226905 64.20805665 -67.0226905 64.20805665 -65.19335938 64.03759766 C-64.03030273 63.97644775 -64.03030273 63.97644775 -62.84375 63.9140625 C-61.98523438 63.87023437 -61.12671875 63.82640625 -60.2421875 63.78125 C-59.33726563 63.7296875 -58.43234375 63.678125 -57.5 63.625 C-56.62601563 63.58117187 -55.75203125 63.53734375 -54.8515625 63.4921875 C-49.20337732 63.19050402 -43.61587427 62.67344834 -38 62 C-37.67 61.01 -37.34 60.02 -37 59 C-46.57 59 -56.14 59 -66 59 Z M-13 59 C-13 59.99 -13 60.98 -13 62 C-7.72 62.33 -2.44 62.66 3 63 C3 61.68 3 60.36 3 59 C-2.28 59 -7.56 59 -13 59 Z " fill="#5C46F4" transform="translate(98,54)"/>
<path d="M0 0 C0 2.97 0 5.94 0 9 C-0.969375 9.28875 -1.93875 9.5775 -2.9375 9.875 C-6.10664203 10.64214682 -6.10664203 10.64214682 -7 13 C-7.40270732 17.1283652 -7.40270732 17.1283652 -5.8125 20.8125 C-3.57968261 22.27538036 -1.62655933 22.64505955 1 23 C1 20.03 1 17.06 1 14 C2.98 14 4.96 14 7 14 C7.33 14.66 7.66 15.32 8 16 C16.25 16 24.5 16 33 16 C33.33 15.34 33.66 14.68 34 14 C47.53 14 61.06 14 75 14 C75 17.63 75 21.26 75 25 C69.72 25 64.44 25 59 25 C59 25.99 59 26.98 59 28 C59.56847656 27.98839844 60.13695313 27.97679688 60.72265625 27.96484375 C65.60670484 27.90776806 70.18503965 28.18043228 75 29 C75 31.64 75 34.28 75 37 C67.71409984 37.04682155 60.42823335 37.08211748 53.14221191 37.10362434 C49.75718789 37.11395864 46.37226851 37.12792229 42.98730469 37.15087891 C3.62570011 37.39816171 3.62570011 37.39816171 -3 33 C-3.75 30.375 -3.75 30.375 -4 28 C-7.153368 27.29925156 -9.72724974 27 -13 27 C-14.75 24.5 -14.75 24.5 -16 22 C-15.484375 21.5875 -14.96875 21.175 -14.4375 20.75 C-12.75264314 19.10265318 -12.75264314 19.10265318 -13.125 16.875 C-13.41375 16.25625 -13.7025 15.6375 -14 15 C-14.99 14.67 -15.98 14.34 -17 14 C-16.34 11.69 -15.68 9.38 -15 7 C-13.02 7 -11.04 7 -9 7 C-7.42726432 4.1575146 -7.42726432 4.1575146 -7 1 C-4.53721199 -0.231394 -2.7204945 -0.07159196 0 0 Z M6 25 C5.34 26.32 4.68 27.64 4 29 C4.9773095 30.20805665 4.9773095 30.20805665 6.80664062 30.03759766 C7.96969727 29.97644775 7.96969727 29.97644775 9.15625 29.9140625 C10.01476562 29.87023437 10.87328125 29.82640625 11.7578125 29.78125 C12.66273437 29.7296875 13.56765625 29.678125 14.5 29.625 C15.37398437 29.58117187 16.24796875 29.53734375 17.1484375 29.4921875 C22.79662268 29.19050402 28.38412573 28.67344834 34 28 C34.33 27.01 34.66 26.02 35 25 C25.43 25 15.86 25 6 25 Z " fill="#B2D0FE" transform="translate(26,88)"/>
<path d="M0 0 C16.83 0 33.66 0 51 0 C51 10.23 51 20.46 51 31 C34.17 31 17.34 31 0 31 C0 20.77 0 10.54 0 0 Z " fill="#474E93" transform="translate(44,47)"/>
<path d="M0 0 C7.875 0.875 7.875 0.875 9 2 C8.95875 2.78375 8.9175 3.5675 8.875 4.375 C8.79515248 6.97190679 8.79515248 6.97190679 10.0625 8.8125 C12.99268751 10.60842137 15.6472953 10.18977574 19 10 C19.495 12.475 19.495 12.475 20 15 C21.28197266 14.98259766 21.28197266 14.98259766 22.58984375 14.96484375 C23.69457031 14.95582031 24.79929688 14.94679688 25.9375 14.9375 C27.03964844 14.92589844 28.14179688 14.91429687 29.27734375 14.90234375 C32 15 32 15 33 16 C33.08713831 17.70772358 33.10700007 19.41898649 33.09765625 21.12890625 C33.09443359 22.16337891 33.09121094 23.19785156 33.08789062 24.26367188 C33.07532227 25.8965918 33.07532227 25.8965918 33.0625 27.5625 C33.05798828 28.65498047 33.05347656 29.74746094 33.04882812 30.87304688 C33.03699826 33.58208495 33.02051543 36.29101599 33 39 C33.66 39 34.32 39 35 39 C35.2475 39.804375 35.495 40.60875 35.75 41.4375 C36.72238859 44.171081 36.72238859 44.171081 39.125 44.8125 C40.053125 44.9053125 40.053125 44.9053125 41 45 C41.495 46.98 41.495 46.98 42 49 C41.01 49.66 40.02 50.32 39 51 C39.226875 51.763125 39.45375 52.52625 39.6875 53.3125 C40 56 40 56 38.9375 57.8125 C36.24448045 59.46306037 34.09429572 59.20628638 31 59 C30.505 59.99 30.505 59.99 30 61 C28.35 60.67 26.7 60.34 25 60 C24.505 58.02 24.505 58.02 24 56 C22.35 55.67 20.7 55.34 19 55 C18.67 53.35 18.34 51.7 18 50 C18.99 50 19.98 50 21 50 C21.33 48.35 21.66 46.7 22 45 C20.35 45 18.7 45 17 45 C15.8451389 42.69027779 15.50496533 40.52482667 15 38 C14.67 37.34 14.34 36.68 14 36 C14.66 36 15.32 36 16 36 C16 34.35 16 32.7 16 31 C9.4 31 2.8 31 -4 31 C-4 30.34 -4 29.68 -4 29 C-1.69 29.33 0.62 29.66 3 30 C2.94779297 28.51886719 2.94779297 28.51886719 2.89453125 27.0078125 C2.86746094 25.72648437 2.84039062 24.44515625 2.8125 23.125 C2.76029297 21.21074219 2.76029297 21.21074219 2.70703125 19.2578125 C2.80371094 18.18273437 2.90039062 17.10765625 3 16 C3.99 15.34 4.98 14.68 6 14 C4.78410016 12.56844101 4.78410016 12.56844101 1.1875 12.6875 C-1.78617685 12.74622611 -2.87751147 12.92650688 -5.5 14.5 C-7.71177972 18.18629954 -7.34421275 20.73176192 -7 25 C-6.67 25.66 -6.34 26.32 -6 27 C-10.29 27 -14.58 27 -19 27 C-19.33 25.68 -19.66 24.36 -20 23 C-19.175 22.62875 -18.35 22.2575 -17.5 21.875 C-14.68073782 20.21816103 -14.68073782 20.21816103 -14.5625 17.0625 C-14.96779191 14.22545666 -15.51218383 12.41770128 -17 10 C-15.35 8.02 -13.7 6.04 -12 4 C-11.2265625 4.495 -11.2265625 4.495 -10.4375 5 C-7.21973488 6.32010877 -4.4429472 6.13242105 -1 6 C-0.67 4.02 -0.34 2.04 0 0 Z M25 47 C24.6366844 49.83386167 24.6431329 51.40522151 26.125 53.875 C28.92151052 55.55290631 30.93690532 54.74875648 34 54 C34.67673447 50.59679066 34.67673447 50.59679066 35 47 C33.11499729 44.68436913 33.11499729 44.68436913 30 44.75 C26.88500271 44.68436913 26.88500271 44.68436913 25 47 Z " fill="#38D6CF" transform="translate(102,18)"/>
<path d="M0 0 C7.92 0 15.84 0 24 0 C24.495 1.98 24.495 1.98 25 4 C31.6 4 38.2 4 45 4 C45 6.33333333 45 8.66666667 45 11 C45.16298584 11.75692139 45.32597168 12.51384277 45.49389648 13.29370117 C46.00669693 16.03581067 46.11395063 18.51444219 46.09765625 21.30078125 C46.09282227 22.76547852 46.09282227 22.76547852 46.08789062 24.25976562 C46.07532227 25.77086914 46.07532227 25.77086914 46.0625 27.3125 C46.05798828 28.33923828 46.05347656 29.36597656 46.04882812 30.42382812 C46.03708184 32.94927882 46.02065565 35.47460905 46 38 C48.31 38 50.62 38 53 38 C53.33 38.99 53.66 39.98 54 41 C45.19039858 42.30512614 36.80960142 42.30512614 28 41 C28.33 40.01 28.66 39.02 29 38 C33.29 38 37.58 38 42 38 C42 31.4 42 24.8 42 18 C38.7 18 35.4 18 32 18 C32 15.03 32 12.06 32 9 C29.69 9 27.38 9 25 9 C25.01571045 10.12027588 25.01571045 10.12027588 25.03173828 11.26318359 C25.0732077 14.63375508 25.09929729 18.004273 25.125 21.375 C25.14175781 22.550625 25.15851563 23.72625 25.17578125 24.9375 C25.18544922 26.61972656 25.18544922 26.61972656 25.1953125 28.3359375 C25.21102295 29.89127197 25.21102295 29.89127197 25.22705078 31.47802734 C25 34 25 34 23 36 C20.76086426 36.25396729 20.76086426 36.25396729 17.93945312 36.25878906 C16.35771301 36.26824554 16.35771301 36.26824554 14.74401855 36.27789307 C13.60130493 36.2738446 12.45859131 36.26979614 11.28125 36.265625 C9.52802429 36.26849518 9.52802429 36.26849518 7.73937988 36.27142334 C5.26456487 36.27278626 2.78974274 36.26908241 0.31494141 36.26074219 C-3.48421205 36.25004446 -7.28289259 36.26063418 -11.08203125 36.2734375 C-13.48177188 36.27211592 -15.88151222 36.26955357 -18.28125 36.265625 C-19.99532043 36.27169769 -19.99532043 36.27169769 -21.74401855 36.27789307 C-22.79851196 36.27158875 -23.85300537 36.26528442 -24.93945312 36.25878906 C-25.8705188 36.25719788 -26.80158447 36.25560669 -27.76086426 36.25396729 C-30 36 -30 36 -32 34 C-32.22705078 31.01904297 -32.22705078 31.01904297 -32.1953125 27.2421875 C-32.1924826 26.57913605 -32.18965271 25.91608459 -32.18673706 25.23294067 C-32.17553435 23.11344417 -32.15043051 20.99436896 -32.125 18.875 C-32.11497028 17.43880818 -32.10584441 16.00260975 -32.09765625 14.56640625 C-32.075595 11.04413372 -32.04106494 7.52210797 -32 4 C-31.01 4 -30.02 4 -29 4 C-29 13.57 -29 23.14 -29 33 C-12.17 33 4.66 33 22 33 C22 22.77 22 12.54 22 2 C14.74 2 7.48 2 0 2 C0 1.34 0 0.68 0 0 Z " fill="#38D2CB" transform="translate(73,45)"/>
<path d="M0 0 C2.31 0 4.62 0 7 0 C7 2.97 7 5.94 7 9 C10.3 9 13.6 9 17 9 C17 15.6 17 22.2 17 29 C12.71 29 8.42 29 4 29 C3.67 33.62 3.34 38.24 3 43 C-5.58 43 -14.16 43 -23 43 C-22.01 42.505 -22.01 42.505 -21 42 C-20.67 41.01 -20.34 40.02 -20 39 C-21.32 38.67 -22.64 38.34 -24 38 C-24 35.69 -24 33.38 -24 31 C-21.02148438 31.04882812 -21.02148438 31.04882812 -18.04296875 31.09765625 C-15.79694539 31.08263217 -15.79694539 31.08263217 -13 30 C-12.67 29.34 -12.34 28.68 -12 28 C-10.07426764 26.07426764 -6.64462302 26.5128147 -4.03125 26.28125 C-2.00819407 26.20934163 -2.00819407 26.20934163 -1 25 C-0.84213692 23.14825294 -0.74892644 21.2909089 -0.68359375 19.43359375 C-0.64169922 18.30888672 -0.59980469 17.18417969 -0.55664062 16.02539062 C-0.51732422 14.84138672 -0.47800781 13.65738281 -0.4375 12.4375 C-0.39431641 11.24962891 -0.35113281 10.06175781 -0.30664062 8.83789062 C-0.20016454 5.89205216 -0.09815159 2.9461257 0 0 Z " fill="#7286FD" transform="translate(98,54)"/>
<path d="M0 0 C0 2.97 0 5.94 0 9 C-0.969375 9.28875 -1.93875 9.5775 -2.9375 9.875 C-6.10664203 10.64214682 -6.10664203 10.64214682 -7 13 C-7.45565588 17.050918 -7.45565588 17.050918 -5.80859375 20.5859375 C-3.56396384 22.34091812 -1.55436719 22.93971804 1.1875 23.6875 C2.08855469 23.93886719 2.98960938 24.19023438 3.91796875 24.44921875 C4.60503906 24.63097656 5.29210937 24.81273438 6 25 C5.67 26.32 5.34 27.64 5 29 C14.57 28.67 24.14 28.34 34 28 C33.67 28.66 33.34 29.32 33 30 C30.35139573 30.59355614 27.70802678 30.74209269 25 31 C25 31.66 25 32.32 25 33 C39.19 33 53.38 33 68 33 C67.67 32.34 67.34 31.68 67 31 C65.845 30.835 64.69 30.67 63.5 30.5 C62.345 30.335 61.19 30.17 60 30 C59.505 29.01 59.505 29.01 59 28 C64.45769811 27.88861841 69.61509359 28.08342019 75 29 C75 31.64 75 34.28 75 37 C67.71409984 37.04682155 60.42823335 37.08211748 53.14221191 37.10362434 C49.75718789 37.11395864 46.37226851 37.12792229 42.98730469 37.15087891 C3.62570011 37.39816171 3.62570011 37.39816171 -3 33 C-3.75 30.375 -3.75 30.375 -4 28 C-7.153368 27.29925156 -9.72724974 27 -13 27 C-14.75 24.5 -14.75 24.5 -16 22 C-15.484375 21.5875 -14.96875 21.175 -14.4375 20.75 C-12.75264314 19.10265318 -12.75264314 19.10265318 -13.125 16.875 C-13.41375 16.25625 -13.7025 15.6375 -14 15 C-14.99 14.67 -15.98 14.34 -17 14 C-16.34 11.69 -15.68 9.38 -15 7 C-13.02 7 -11.04 7 -9 7 C-7.42726432 4.1575146 -7.42726432 4.1575146 -7 1 C-4.53721199 -0.231394 -2.7204945 -0.07159196 0 0 Z " fill="#E9EAF2" transform="translate(26,88)"/>
<path d="M0 0 C1.37091797 0.0009668 1.37091797 0.0009668 2.76953125 0.00195312 C9.48435163 0.04685163 9.48435163 0.04685163 10.625 1.1875 C13.43476518 1.34767166 16.22273596 1.44700534 19.03515625 1.50390625 C19.87719101 1.52468735 20.71922577 1.54546844 21.58677673 1.56687927 C24.28693179 1.63246812 26.98718717 1.69130276 29.6875 1.75 C31.51368241 1.79317637 33.33985454 1.83679036 35.16601562 1.88085938 C39.65223992 1.98815894 44.1385655 2.08939966 48.625 2.1875 C48.625 2.5175 48.625 2.8475 48.625 3.1875 C35.755 3.1875 22.885 3.1875 9.625 3.1875 C9.955 4.5075 10.285 5.8275 10.625 7.1875 C23.165 7.5175 35.705 7.8475 48.625 8.1875 C48.625 8.5175 48.625 8.8475 48.625 9.1875 C35.755 9.1875 22.885 9.1875 9.625 9.1875 C9.955 10.5075 10.285 11.8275 10.625 13.1875 C23.165 13.1875 35.705 13.1875 48.625 13.1875 C48.625 13.8475 48.625 14.5075 48.625 15.1875 C39.055 15.1875 29.485 15.1875 19.625 15.1875 C19.625 15.8475 19.625 16.5075 19.625 17.1875 C18.635 17.1875 17.645 17.1875 16.625 17.1875 C16.625 16.5275 16.625 15.8675 16.625 15.1875 C14.315 15.1875 12.005 15.1875 9.625 15.1875 C9.625 17.1675 9.625 19.1475 9.625 21.1875 C0.715 21.1875 -8.195 21.1875 -17.375 21.1875 C-17.375 20.8575 -17.375 20.5275 -17.375 20.1875 C-15.725 19.8575 -14.075 19.5275 -12.375 19.1875 C-12.045 17.8675 -11.715 16.5475 -11.375 15.1875 C-13.355 15.1875 -15.335 15.1875 -17.375 15.1875 C-17.375 14.8575 -17.375 14.5275 -17.375 14.1875 C-15.725 13.8575 -14.075 13.5275 -12.375 13.1875 C-12.045 11.8675 -11.715 10.5475 -11.375 9.1875 C-13.355 9.1875 -15.335 9.1875 -17.375 9.1875 C-17.375 8.8575 -17.375 8.5275 -17.375 8.1875 C-15.725 7.8575 -14.075 7.5275 -12.375 7.1875 C-12.045 5.8675 -11.715 4.5475 -11.375 3.1875 C-13.355 3.1875 -15.335 3.1875 -17.375 3.1875 C-17.375 2.8575 -17.375 2.5275 -17.375 2.1875 C-11.48560037 0.14637931 -6.2030285 -0.08528042 0 0 Z " fill="#90DFE1" transform="translate(24.375,31.8125)"/>
<path d="M0 0 C1.12019531 -0.00128906 2.24039063 -0.00257812 3.39453125 -0.00390625 C4.57402344 -0.00003906 5.75351562 0.00382812 6.96875 0.0078125 C8.73798828 0.00201172 8.73798828 0.00201172 10.54296875 -0.00390625 C12.22326172 -0.00197266 12.22326172 -0.00197266 13.9375 0 C14.97326172 0.00112793 16.00902344 0.00225586 17.07617188 0.00341797 C19.46875 0.1328125 19.46875 0.1328125 20.46875 1.1328125 C20.56861975 3.97616298 20.60752881 6.78978413 20.59375 9.6328125 C20.59955078 10.82970703 20.59955078 10.82970703 20.60546875 12.05078125 C20.59535767 18.00620483 20.59535767 18.00620483 19.46875 19.1328125 C17.62715977 19.23240871 15.78178033 19.26361661 13.9375 19.265625 C12.81730469 19.26691406 11.69710937 19.26820312 10.54296875 19.26953125 C9.36347656 19.26566406 8.18398438 19.26179688 6.96875 19.2578125 C5.19951172 19.26361328 5.19951172 19.26361328 3.39453125 19.26953125 C1.71423828 19.26759766 1.71423828 19.26759766 0 19.265625 C-1.03576172 19.26449707 -2.07152344 19.26336914 -3.13867188 19.26220703 C-5.53125 19.1328125 -5.53125 19.1328125 -6.53125 18.1328125 C-6.63111975 15.28946202 -6.67002881 12.47584087 -6.65625 9.6328125 C-6.66011719 8.83488281 -6.66398437 8.03695312 -6.66796875 7.21484375 C-6.65573175 0.007248 -6.65573175 0.007248 0 0 Z " fill="#37D5C8" transform="translate(39.53125,85.8671875)"/>
<path d="M0 0 C3.0000624 -0.02721831 5.99987256 -0.04694378 9 -0.0625 C9.83917969 -0.07087891 10.67835937 -0.07925781 11.54296875 -0.08789062 C12.79013672 -0.09272461 12.79013672 -0.09272461 14.0625 -0.09765625 C15.19365234 -0.10551147 15.19365234 -0.10551147 16.34765625 -0.11352539 C19.91451913 0.03914317 23.45744034 0.55718004 27 1 C27 7.93 27 14.86 27 22 C20.07 22 13.14 22 6 22 C6 21.01 6 20.02 6 19 C4.02 19 2.04 19 0 19 C0 18.34 0 17.68 0 17 C1.98 17 3.96 17 6 17 C6 15.68 6 14.36 6 13 C4.02 13 2.04 13 0 13 C0 12.34 0 11.68 0 11 C1.98 11 3.96 11 6 11 C6 9.68 6 8.36 6 7 C4.02 7 2.04 7 0 7 C0 6.34 0 5.68 0 5 C1.98 5 3.96 5 6 5 C6 4.01 6 3.02 6 2 C3.03 1.505 3.03 1.505 0 1 C0 0.67 0 0.34 0 0 Z " fill="#89D9E5" transform="translate(7,58)"/>
<path d="M0 0 C1.29611206 0.0314209 1.29611206 0.0314209 2.6184082 0.06347656 C3.55620117 0.07636719 4.49399414 0.08925781 5.46020508 0.10253906 C6.43666992 0.13605469 7.41313477 0.16957031 8.41918945 0.20410156 C9.40725586 0.22214844 10.39532227 0.24019531 11.41333008 0.25878906 C13.85375788 0.30594709 16.29223715 0.37174114 18.73168945 0.45410156 C19.06168945 1.11410156 19.39168945 1.77410156 19.73168945 2.45410156 C17.73136572 3.45426343 15.90043197 3.94806164 13.73168945 4.45410156 C13.73168945 6.43410156 13.73168945 8.41410156 13.73168945 10.45410156 C13.40168945 10.45410156 13.07168945 10.45410156 12.73168945 10.45410156 C12.73168945 8.47410156 12.73168945 6.49410156 12.73168945 4.45410156 C10.42168945 4.45410156 8.11168945 4.45410156 5.73168945 4.45410156 C5.73168945 6.76410156 5.73168945 9.07410156 5.73168945 11.45410156 C8.04168945 11.45410156 10.35168945 11.45410156 12.73168945 11.45410156 C11.41168945 12.77410156 10.09168945 14.09410156 8.73168945 15.45410156 C16.65168945 15.78410156 24.57168945 16.11410156 32.73168945 16.45410156 C32.73168945 18.10410156 32.73168945 19.75410156 32.73168945 21.45410156 C19.20168945 21.45410156 5.67168945 21.45410156 -8.26831055 21.45410156 C-8.59831055 16.17410156 -8.92831055 10.89410156 -9.26831055 5.45410156 C-7.94831055 5.12410156 -6.62831055 4.79410156 -5.26831055 4.45410156 C-4.79159912 3.7815332 -4.3148877 3.10896484 -3.82373047 2.41601562 C-2.26831055 0.45410156 -2.26831055 0.45410156 0 0 Z " fill="#6C73FE" transform="translate(68.268310546875,80.5458984375)"/>
<path d="M0 0 C2.64 0 5.28 0 8 0 C8 12.54 8 25.08 8 38 C-0.25 38 -8.5 38 -17 38 C-17.26785714 24.60714286 -17.26785714 24.60714286 -15 21 C-14.67 21 -14.34 21 -14 21 C-13.67 22.98 -13.34 24.96 -13 27 C-7.72 27 -2.44 27 3 27 C3.33 21.39 3.66 15.78 4 10 C0.7 10 -2.6 10 -6 10 C-4.68 8.35 -3.36 6.7 -2 5 C-2.33 4.67 -2.66 4.34 -3 4 C-2.67 3.34 -2.34 2.68 -2 2 C-1.34 2 -0.68 2 0 2 C0 1.34 0 0.68 0 0 Z " fill="#6F7EFE" transform="translate(119,86)"/>
<path d="M0 0 C1.98 0 3.96 0 6 0 C6.33 0.66 6.66 1.32 7 2 C15.25 2 23.5 2 32 2 C32.33 1.34 32.66 0.68 33 0 C37.29 0 41.58 0 46 0 C46.77772405 2.33317216 47.42415568 4.61435923 48 7 C46.35 7.33 44.7 7.66 43 8 C43 8.99 43 9.98 43 11 C39.0433724 12.31887587 35.32580965 12.03190838 31.2109375 11.9140625 C30.35190826 11.89282318 29.49287903 11.87158386 28.6078186 11.84970093 C26.79381537 11.80347129 24.97987913 11.75454565 23.16601562 11.703125 C20.37904793 11.62511331 17.59196563 11.55805968 14.8046875 11.4921875 C13.04425349 11.44596828 11.28383599 11.39911512 9.5234375 11.3515625 C8.26568008 11.32178818 8.26568008 11.32178818 6.98251343 11.29141235 C1.11507421 11.11507421 1.11507421 11.11507421 0 10 C-0.07205511 8.31391034 -0.08386068 6.62499341 -0.0625 4.9375 C-0.05347656 4.01839844 -0.04445313 3.09929687 -0.03515625 2.15234375 C-0.02355469 1.44207031 -0.01195313 0.73179688 0 0 Z " fill="#BAD4FE" transform="translate(27,102)"/>
<path d="M0 0 C7.875 0.875 7.875 0.875 9 2 C8.95875 2.78375 8.9175 3.5675 8.875 4.375 C8.79515248 6.97190679 8.79515248 6.97190679 10.0625 8.8125 C12.99268751 10.60842137 15.6472953 10.18977574 19 10 C19.495 12.475 19.495 12.475 20 15 C17.87527424 15.05386629 15.75016348 15.09273071 13.625 15.125 C11.84996094 15.15980469 11.84996094 15.15980469 10.0390625 15.1953125 C7 15 7 15 5 13 C-0.54235245 12.42765564 -0.54235245 12.42765564 -5.5 14.5 C-7.71177972 18.18629954 -7.34421275 20.73176192 -7 25 C-6.67 25.66 -6.34 26.32 -6 27 C-10.29 27 -14.58 27 -19 27 C-19.33 25.68 -19.66 24.36 -20 23 C-19.175 22.62875 -18.35 22.2575 -17.5 21.875 C-14.68073782 20.21816103 -14.68073782 20.21816103 -14.5625 17.0625 C-14.96779191 14.22545666 -15.51218383 12.41770128 -17 10 C-15.35 8.02 -13.7 6.04 -12 4 C-11.2265625 4.495 -11.2265625 4.495 -10.4375 5 C-7.21973488 6.32010877 -4.4429472 6.13242105 -1 6 C-0.67 4.02 -0.34 2.04 0 0 Z " fill="#E7EAF1" transform="translate(102,18)"/>
<path d="M0 0 C6.6 0 13.2 0 20 0 C20 2.33333333 20 4.66666667 20 7 C20.24447876 8.13538208 20.24447876 8.13538208 20.49389648 9.29370117 C21.00669693 12.03581067 21.11395063 14.51444219 21.09765625 17.30078125 C21.09443359 18.27724609 21.09121094 19.25371094 21.08789062 20.25976562 C21.07951172 21.26716797 21.07113281 22.27457031 21.0625 23.3125 C21.05798828 24.33923828 21.05347656 25.36597656 21.04882812 26.42382812 C21.03708184 28.94927882 21.02065565 31.47460905 21 34 C23.31 34 25.62 34 28 34 C28.33 34.99 28.66 35.98 29 37 C20.19039858 38.30512614 11.80960142 38.30512614 3 37 C3.33 36.01 3.66 35.02 4 34 C8.29 34 12.58 34 17 34 C17 27.4 17 20.8 17 14 C13.7 14 10.4 14 7 14 C7 11.03 7 8.06 7 5 C4.69 5 2.38 5 0 5 C0 3.35 0 1.7 0 0 Z " fill="#39C6D7" transform="translate(98,49)"/>
<path d="M0 0 C1.58206057 0.00667536 3.16410534 0.0186375 4.74609375 0.03515625 C5.55240234 0.03966797 6.35871094 0.04417969 7.18945312 0.04882812 C9.18753131 0.06065107 11.18557158 0.07858711 13.18359375 0.09765625 C13.30605469 0.88785156 13.42851563 1.67804687 13.5546875 2.4921875 C14.33458179 5.72317811 15.50887979 6.28575325 18.18359375 8.09765625 C18.18359375 8.75765625 18.18359375 9.41765625 18.18359375 10.09765625 C19.83359375 10.09765625 21.48359375 10.09765625 23.18359375 10.09765625 C23.67859375 12.07765625 23.67859375 12.07765625 24.18359375 14.09765625 C17.74859375 14.59265625 17.74859375 14.59265625 11.18359375 15.09765625 C11.18359375 17.07765625 11.18359375 19.05765625 11.18359375 21.09765625 C11.84359375 21.42765625 12.50359375 21.75765625 13.18359375 22.09765625 C12.52359375 23.08765625 11.86359375 24.07765625 11.18359375 25.09765625 C7.30859375 23.34765625 7.30859375 23.34765625 6.18359375 21.09765625 C6.84359375 21.09765625 7.50359375 21.09765625 8.18359375 21.09765625 C8.18359375 19.44765625 8.18359375 17.79765625 8.18359375 16.09765625 C1.58359375 16.09765625 -5.01640625 16.09765625 -11.81640625 16.09765625 C-11.81640625 15.43765625 -11.81640625 14.77765625 -11.81640625 14.09765625 C-9.50640625 14.42765625 -7.19640625 14.75765625 -4.81640625 15.09765625 C-4.82800781 14.09863281 -4.83960937 13.09960938 -4.8515625 12.0703125 C-4.86058594 10.77996094 -4.86960937 9.48960938 -4.87890625 8.16015625 C-4.89050781 6.87238281 -4.90210937 5.58460937 -4.9140625 4.2578125 C-4.77221615 -0.33233549 -4.72778272 0.12097704 0 0 Z " fill="#66D3E2" transform="translate(109.81640625,32.90234375)"/>
<path d="M0 0 C1.58206057 0.00667536 3.16410534 0.0186375 4.74609375 0.03515625 C5.55240234 0.03966797 6.35871094 0.04417969 7.18945312 0.04882812 C9.18753131 0.06065107 11.18557158 0.07858711 13.18359375 0.09765625 C13.21043687 2.91021906 13.23035563 5.72252866 13.24609375 8.53515625 C13.25447266 9.33759766 13.26285156 10.14003906 13.27148438 10.96679688 C13.28010805 13.01060846 13.23587525 15.05449527 13.18359375 17.09765625 C11.36243372 18.91881628 8.87687611 18.23000705 6.45703125 18.234375 C5.70679687 18.23050781 4.9565625 18.22664063 4.18359375 18.22265625 C3.05824219 18.22845703 3.05824219 18.22845703 1.91015625 18.234375 C-3.68979572 18.22426678 -3.68979572 18.22426678 -4.81640625 17.09765625 C-4.91621839 14.42034245 -4.955205 11.7746145 -4.94140625 9.09765625 C-4.94527344 8.34742187 -4.94914062 7.5971875 -4.953125 6.82421875 C-4.94103514 0.12643386 -4.94103514 0.12643386 0 0 Z " fill="#40C3ED" transform="translate(109.81640625,95.90234375)"/>
<path d="M0 0 C5.61 0 11.22 0 17 0 C17 5.61 17 11.22 17 17 C11.39 17 5.78 17 0 17 C0 11.39 0 5.78 0 0 Z " fill="#3E4E9A" transform="translate(15,34)"/>
<path d="M0 0 C1.5631897 0.00785522 1.5631897 0.00785522 3.15795898 0.01586914 C4.28266602 0.0190918 5.40737305 0.02231445 6.56616211 0.02563477 C7.75016602 0.03401367 8.93416992 0.04239258 10.15405273 0.05102539 C11.34192383 0.05553711 12.52979492 0.06004883 13.75366211 0.06469727 C16.69967499 0.07652864 19.64558954 0.09301252 22.59155273 0.11352539 C22.59155273 3.11352539 22.59155273 3.11352539 21.59155273 6.11352539 C20.60155273 6.11352539 19.61155273 6.11352539 18.59155273 6.11352539 C18.26155273 7.10352539 17.93155273 8.09352539 17.59155273 9.11352539 C16.27155273 8.12352539 14.95155273 7.13352539 13.59155273 6.11352539 C13.59155273 6.77352539 13.59155273 7.43352539 13.59155273 8.11352539 C12.93155273 7.78352539 12.27155273 7.45352539 11.59155273 7.11352539 C11.92155273 6.12352539 12.25155273 5.13352539 12.59155273 4.11352539 C11.60155273 4.60852539 11.60155273 4.60852539 10.59155273 5.11352539 C10.26155273 6.10352539 9.93155273 7.09352539 9.59155273 8.11352539 C8.60155273 8.11352539 7.61155273 8.11352539 6.59155273 8.11352539 C6.59155273 7.12352539 6.59155273 6.13352539 6.59155273 5.11352539 C5.93155273 5.11352539 5.27155273 5.11352539 4.59155273 5.11352539 C4.26155273 6.10352539 3.93155273 7.09352539 3.59155273 8.11352539 C2.93155273 8.77352539 2.27155273 9.43352539 1.59155273 10.11352539 C4.06655273 12.09352539 4.06655273 12.09352539 6.59155273 14.11352539 C6.92155273 13.12352539 7.25155273 12.13352539 7.59155273 11.11352539 C7.26155273 12.76352539 6.93155273 14.41352539 6.59155273 16.11352539 C3.29155273 16.11352539 -0.00844727 16.11352539 -3.40844727 16.11352539 C-3.43529822 13.63428738 -3.45521274 11.15533699 -3.47094727 8.67602539 C-3.48351563 7.61544922 -3.48351563 7.61544922 -3.49633789 6.53344727 C-3.50498314 4.7265898 -3.46064738 2.91964936 -3.40844727 1.11352539 C-2.40844727 0.11352539 -2.40844727 0.11352539 0 0 Z " fill="#40B2E0" transform="translate(36.408447265625,85.886474609375)"/>
<path d="M0 0 C8 0 16 0 24 0 C24.3125 3.3125 24.3125 3.3125 24 7 C21.625 8.8125 21.625 8.8125 19 10 C18.34 10.66 17.68 11.32 17 12 C14.25514407 12.14507695 11.61519457 12.18652423 8.875 12.125 C8.12089844 12.11597656 7.36679688 12.10695313 6.58984375 12.09765625 C4.72642746 12.0740687 2.86317407 12.03819719 1 12 C1.66 11.67 2.32 11.34 3 11 C3.33 10.01 3.66 9.02 4 8 C2.68 7.67 1.36 7.34 0 7 C0 4.69 0 2.38 0 0 Z " fill="#7991FE" transform="translate(74,85)"/>
<path d="M0 0 C13.53 0 27.06 0 41 0 C41 1.65 41 3.3 41 5 C27.47 5 13.94 5 0 5 C0 3.35 0 1.7 0 0 Z " fill="#3C3D89" transform="translate(60,97)"/>
<path d="M0 0 C1.98 0 3.96 0 6 0 C6.33 0.66 6.66 1.32 7 2 C12.94 2.33 18.88 2.66 25 3 C23 7 23 7 21 8 C21 8.99 21 9.98 21 11 C17.68751813 11.02888146 14.37506833 11.04675799 11.0625 11.0625 C10.11697266 11.07087891 9.17144531 11.07925781 8.19726562 11.08789062 C6.84858398 11.09272461 6.84858398 11.09272461 5.47265625 11.09765625 C4.64000244 11.10289307 3.80734863 11.10812988 2.94946289 11.11352539 C1 11 1 11 0 10 C-0.07205511 8.31391034 -0.08386068 6.62499341 -0.0625 4.9375 C-0.05347656 4.01839844 -0.04445313 3.09929687 -0.03515625 2.15234375 C-0.02355469 1.44207031 -0.01195313 0.73179688 0 0 Z " fill="#C4DBFE" transform="translate(27,102)"/>
<path d="M0 0 C0.66 0 1.32 0 2 0 C2.2475 0.804375 2.495 1.60875 2.75 2.4375 C3.72238859 5.171081 3.72238859 5.171081 6.125 5.8125 C6.74375 5.874375 7.3625 5.93625 8 6 C8.33 7.32 8.66 8.64 9 10 C8.01 10.66 7.02 11.32 6 12 C6.3403125 13.1446875 6.3403125 13.1446875 6.6875 14.3125 C7 17 7 17 5.9375 18.8125 C3.24448045 20.46306037 1.09429572 20.20628638 -2 20 C-2.33 20.66 -2.66 21.32 -3 22 C-4.65 21.67 -6.3 21.34 -8 21 C-8.33 19.68 -8.66 18.36 -9 17 C-10.65 16.67 -12.3 16.34 -14 16 C-14.33 14.35 -14.66 12.7 -15 11 C-14.01 11 -13.02 11 -12 11 C-11.67 9.35 -11.34 7.7 -11 6 C-9.35 6 -7.7 6 -6 6 C-6.20625 7.11375 -6.4125 8.2275 -6.625 9.375 C-6.74875 10.57125 -6.8725 11.7675 -7 13 C-5.10244856 15.34973818 -5.10244856 15.34973818 -1.875 15.125 C-0.451875 15.063125 -0.451875 15.063125 1 15 C1.29562367 9.67829506 1.29562367 9.67829506 -1 5 C-0.625 2.3125 -0.625 2.3125 0 0 Z " fill="#E9EBF2" transform="translate(135,57)"/>
<path d="M0 0 C2.64 0 5.28 0 8 0 C8 6.93 8 13.86 8 21 C1.07 21 -5.86 21 -13 21 C-13 20.01 -13 19.02 -13 18 C-5.375 16.875 -5.375 16.875 -2 18 C-2 17.34 -2 16.68 -2 16 C-0.68 15.67 0.64 15.34 2 15 C2.66 12.69 3.32 10.38 4 8 C3.01 8 2.02 8 1 8 C0.67 5.36 0.34 2.72 0 0 Z " fill="#36DCC5" transform="translate(26,59)"/>
<path d="M0 0 C1.7492214 -0.08142927 3.49954542 -0.13938541 5.25 -0.1875 C6.22453125 -0.22230469 7.1990625 -0.25710937 8.203125 -0.29296875 C11.37468742 0.03924798 12.67040307 0.88672279 15 3 C14.01 3.495 14.01 3.495 13 4 C17.05308333 5.10789535 21.07111374 5.33731267 25.25 5.5625 C25.99507812 5.60568359 26.74015625 5.64886719 27.5078125 5.69335938 C29.338349 5.79896725 31.16915176 5.89994201 33 6 C33 6.66 33 7.32 33 8 C18.81 8 4.62 8 -10 8 C-10 7.34 -10 6.68 -10 6 C-7.98177083 5.609375 -5.96354167 5.21875 -3.9453125 4.828125 C-1.80995329 4.14287884 -1.80995329 4.14287884 -0.7421875 1.921875 C-0.49726562 1.28765625 -0.25234375 0.6534375 0 0 Z " fill="#9FC3FE" transform="translate(61,113)"/>
<path d="M0 0 C1.32 0 2.64 0 4 0 C4 6.6 4 13.2 4 20 C6.31 20 8.62 20 11 20 C11.33 20.99 11.66 21.98 12 23 C3.19039858 24.30512614 -5.19039858 24.30512614 -14 23 C-13.505 21.515 -13.505 21.515 -13 20 C-8.71 20 -4.42 20 0 20 C0 13.4 0 6.8 0 0 Z " fill="#4C4CA1" transform="translate(115,63)"/>
<path d="M0 0 C1.31871094 -0.01224609 2.63742188 -0.02449219 3.99609375 -0.03710938 C5.90068359 -0.04000977 5.90068359 -0.04000977 7.84375 -0.04296875 C9.00068359 -0.04707764 10.15761719 -0.05118652 11.34960938 -0.05541992 C14.47736509 0.18575467 16.680892 0.85423629 19.5 2.1875 C18.5 4.1875 18.5 4.1875 16.84521484 4.80200195 C11.99200924 5.59975457 7.04404055 5.37340312 2.13769531 5.37280273 C0.13863013 5.37498512 -1.86039532 5.39349143 -3.859375 5.41210938 C-5.13039063 5.41404297 -6.40140625 5.41597656 -7.7109375 5.41796875 C-8.86899902 5.42207764 -10.02706055 5.42618652 -11.22021484 5.43041992 C-14.61310954 5.17912245 -17.33332989 4.39923908 -20.5 3.1875 C-20.17 2.5275 -19.84 1.8675 -19.5 1.1875 C-13.23640183 -0.60566158 -6.45139424 0.00315317 0 0 Z " fill="#EAEBF2" transform="translate(114.5,125.8125)"/>
<path d="M0 0 C0.99 0 1.98 0 3 0 C3.02505615 0.87325928 3.0501123 1.74651855 3.07592773 2.64624023 C3.17087709 5.87602552 3.27012029 9.10564154 3.37231445 12.33520508 C3.41571434 13.73489199 3.45738564 15.13463359 3.49731445 16.53442383 C3.55489445 18.54261495 3.61914 20.55061149 3.68359375 22.55859375 C3.72025146 23.76829834 3.75690918 24.97800293 3.79467773 26.22436523 C3.68938266 28.90705456 3.68938266 28.90705456 5 30 C6.56448383 30.12263388 8.13432772 30.17779522 9.70336914 30.20532227 C11.20481224 30.2352401 11.20481224 30.2352401 12.73658752 30.26576233 C14.36937904 30.29083107 14.36937904 30.29083107 16.03515625 30.31640625 C17.14354355 30.33718735 18.25193085 30.35796844 19.39390564 30.37937927 C22.95003808 30.44499623 26.50624703 30.50381596 30.0625 30.5625 C32.46680493 30.60567368 34.87110199 30.64928758 37.27539062 30.69335938 C43.18351185 30.80068992 49.09170991 30.90243331 55 31 C55 31.33 55 31.66 55 32 C47.48863592 32.05057965 39.97731551 32.08568257 32.46582031 32.10986328 C29.90883747 32.11994038 27.35186621 32.13360226 24.79492188 32.15087891 C21.12627308 32.17505217 17.45777621 32.18646585 13.7890625 32.1953125 C12.0655809 32.21079636 12.0655809 32.21079636 10.30728149 32.22659302 C9.2463327 32.22674408 8.18538391 32.22689514 7.09228516 32.22705078 C6.15518707 32.231492 5.21808899 32.23593323 4.25259399 32.24050903 C2 32 2 32 0 30 C-0.22705078 27.01904297 -0.22705078 27.01904297 -0.1953125 23.2421875 C-0.1924826 22.57913605 -0.18965271 21.91608459 -0.18673706 21.23294067 C-0.17553435 19.11344417 -0.15043051 16.99436896 -0.125 14.875 C-0.11497028 13.43880818 -0.10584441 12.00260975 -0.09765625 10.56640625 C-0.075595 7.04413372 -0.04106494 3.52210797 0 0 Z " fill="#469EE9" transform="translate(41,49)"/>
<path d="M0 0 C0 5.61 0 11.22 0 17 C0.99 17 1.98 17 3 17 C3 18.65 3 20.3 3 22 C0.69 22 -1.62 22 -4 22 C-4 15.73 -4 9.46 -4 3 C-10.27 3 -16.54 3 -23 3 C-23 2.34 -23 1.68 -23 1 C-19.91675903 0.83159521 -16.83339379 0.66558138 -13.75 0.5 C-12.87730469 0.45230469 -12.00460938 0.40460938 -11.10546875 0.35546875 C-10.26113281 0.31035156 -9.41679687 0.26523438 -8.546875 0.21875 C-7.38430176 0.1559082 -7.38430176 0.1559082 -6.19824219 0.09179688 C-4.13373418 0.00558463 -2.0663073 0 0 0 Z " fill="#6F72AA" transform="translate(30,80)"/>
<path d="M0 0 C2.31 0 4.62 0 7 0 C7 4.62 7 9.24 7 14 C4.03 13.505 4.03 13.505 1 13 C0.67 12.01 0.34 11.02 0 10 C-2.64 10 -5.28 10 -8 10 C-8 8.02 -8 6.04 -8 4 C-5.36 4 -2.72 4 0 4 C0 2.68 0 1.36 0 0 Z " fill="#5832FF" transform="translate(34,49)"/>
<path d="M0 0 C1.32 0 2.64 0 4 0 C4 1.32 4 2.64 4 4 C4.99 4 5.98 4 7 4 C6.67 6.31 6.34 8.62 6 11 C4.35 11.33 2.7 11.66 1 12 C1 12.66 1 13.32 1 14 C-0.32 13.67 -1.64 13.34 -3 13 C-3 12.01 -3 11.02 -3 10 C-3.99 10 -4.98 10 -6 10 C-5.67 7.36 -5.34 4.72 -5 2 C-4.01 1.67 -3.02 1.34 -2 1 C-1.34 1.33 -0.68 1.66 0 2 C0 1.34 0 0.68 0 0 Z " fill="#E5F6F8" transform="translate(23,63)"/>
<path d="M0 0 C0.93779297 0.00322266 1.87558594 0.00644531 2.84179688 0.00976562 C4.30649414 0.02233398 4.30649414 0.02233398 5.80078125 0.03515625 C6.78884766 0.03966797 7.77691406 0.04417969 8.79492188 0.04882812 C11.23443599 0.06061322 13.67382814 0.07706614 16.11328125 0.09765625 C14.98876398 3.06959475 13.89034334 5.43206312 12.11328125 8.09765625 C12.11328125 7.10765625 12.11328125 6.11765625 12.11328125 5.09765625 C5.18328125 5.09765625 -1.74671875 5.09765625 -8.88671875 5.09765625 C-8.55671875 3.77765625 -8.22671875 2.45765625 -7.88671875 1.09765625 C-4.94539984 0.11721661 -3.0617021 -0.01855577 0 0 Z " fill="#655CFF" transform="translate(49.88671875,80.90234375)"/>
<path d="M0 0 C2.875 1 2.875 1 4.25 3.0625 C4.45625 3.701875 4.6625 4.34125 4.875 5 C6.525 5 8.175 5 9.875 5 C9.875 5.99 9.875 6.98 9.875 8 C2.615 8 -4.645 8 -12.125 8 C-11.795 7.01 -11.465 6.02 -11.125 5 C-10.526875 4.855625 -9.92875 4.71125 -9.3125 4.5625 C-6.9166207 4.1646438 -6.9166207 4.1646438 -5.25 1.875 C-3.125 0 -3.125 0 0 0 Z " fill="#F8FDFD" transform="translate(123.125,38)"/>
<path d="M0 0 C0.02685938 2.14576637 0.04633088 4.29162645 0.0625 6.4375 C0.07410156 7.63246094 0.08570312 8.82742187 0.09765625 10.05859375 C0 13 0 13 -1 14 C-3.01964199 14.07244053 -5.04167124 14.08377188 -7.0625 14.0625 C-8.71958984 14.04896484 -8.71958984 14.04896484 -10.41015625 14.03515625 C-11.26480469 14.02355469 -12.11945313 14.01195313 -13 14 C-13.33 13.34 -13.66 12.68 -14 12 C-13.67 11.01 -13.34 10.02 -13 9 C-9.4375 7.8125 -9.4375 7.8125 -6 7 C-5.896875 6.21625 -5.79375 5.4325 -5.6875 4.625 C-4.82572663 1.33459258 -3.53157582 0 0 0 Z " fill="#37DACD" transform="translate(123,100)"/>
<path d="M0 0 C2.31 0 4.62 0 7 0 C8.60300347 10.10589141 8.60300347 10.10589141 6.1875 13.6875 C4 15 4 15 2 15 C1.67 15.99 1.34 16.98 1 18 C0.67 18 0.34 18 0 18 C0 12.06 0 6.12 0 0 Z " fill="#6C75FD" transform="translate(98,54)"/>
<path d="M0 0 C2.31 0 4.62 0 7 0 C7.33 1.98 7.66 3.96 8 6 C10.64 6.33 13.28 6.66 16 7 C16 7.99 16 8.98 16 10 C14.35 10.33 12.7 10.66 11 11 C11 11.33 11 11.66 11 12 C7.7 12 4.4 12 1 12 C1.66 11.67 2.32 11.34 3 11 C3.33 10.01 3.66 9.02 4 8 C2.68 7.67 1.36 7.34 0 7 C0 4.69 0 2.38 0 0 Z " fill="#7689FE" transform="translate(74,85)"/>
<path d="M0 0 C2 2 2 2 2.23046875 4.34765625 C2.20919922 5.69150391 2.20919922 5.69150391 2.1875 7.0625 C2.17783203 8.41021484 2.17783203 8.41021484 2.16796875 9.78515625 C2 12 2 12 1 13 C-0.68608966 13.07205511 -2.37500659 13.08386068 -4.0625 13.0625 C-4.98160156 13.05347656 -5.90070313 13.04445313 -6.84765625 13.03515625 C-7.55792969 13.02355469 -8.26820312 13.01195312 -9 13 C-9.33 11.02 -9.66 9.04 -10 7 C-9.195625 6.731875 -8.39125 6.46375 -7.5625 6.1875 C-6.716875 5.795625 -5.87125 5.40375 -5 5 C-4.67 4.01 -4.34 3.02 -4 2 C-1.9375 0.8125 -1.9375 0.8125 0 0 Z " fill="#36DDC4" transform="translate(133,50)"/>
<path d="M0 0 C0.66 0 1.32 0 2 0 C2.33 1.32 2.66 2.64 3 4 C3 3.34 3 2.68 3 2 C5.46800047 3.15173355 7.04783565 4.04783565 9 6 C7.02 6.99 7.02 6.99 5 8 C5 8.66 5 9.32 5 10 C4.34 10 3.68 10 3 10 C3 9.01 3 8.02 3 7 C2.01 7 1.02 7 0 7 C-0.33 8.65 -0.66 10.3 -1 12 C-1.66 12 -2.32 12 -3 12 C-3.33 11.34 -3.66 10.68 -4 10 C-4.639375 9.690625 -5.27875 9.38125 -5.9375 9.0625 C-8 8 -8 8 -10 5 C-8.71034824 3.62437146 -7.37310707 2.29233607 -6 1 C-5.34 1 -4.68 1 -4 1 C-4 1.99 -4 2.98 -4 4 C-3.01 4 -2.02 4 -1 4 C-0.67 2.68 -0.34 1.36 0 0 Z " fill="#9AE1E9" transform="translate(47,90)"/>
<path d="M0 0 C2.64 0 5.28 0 8 0 C8 3.96 8 7.92 8 12 C7.01 11.34 6.02 10.68 5 10 C2.25481679 9.75812349 2.25481679 9.75812349 -0.6875 9.875 C-1.68136719 9.89304687 -2.67523438 9.91109375 -3.69921875 9.9296875 C-4.45847656 9.95289062 -5.21773438 9.97609375 -6 10 C-4.68 8.35 -3.36 6.7 -2 5 C-2.33 4.67 -2.66 4.34 -3 4 C-2.67 3.34 -2.34 2.68 -2 2 C-1.34 2 -0.68 2 0 2 C0 1.34 0 0.68 0 0 Z " fill="#6761FF" transform="translate(119,86)"/>
<path d="M0 0 C0.495 1.485 0.495 1.485 1 3 C-5.435 3.495 -5.435 3.495 -12 4 C-12 5.98 -12 7.96 -12 10 C-11.34 10.33 -10.68 10.66 -10 11 C-10.99 12.485 -10.99 12.485 -12 14 C-15.875 12.25 -15.875 12.25 -17 10 C-16.34 10 -15.68 10 -15 10 C-15 8.35 -15 6.7 -15 5 C-21.6 5 -28.2 5 -35 5 C-35 4.34 -35 3.68 -35 3 C-33.3603125 3.061875 -33.3603125 3.061875 -31.6875 3.125 C-27.91107771 3.32074666 -27.91107771 3.32074666 -25 1 C-22.36450195 0.86474609 -22.36450195 0.86474609 -19.23828125 1.0234375 C-18.12001953 1.075 -17.00175781 1.1265625 -15.84960938 1.1796875 C-14.68236328 1.24414062 -13.51511719 1.30859375 -12.3125 1.375 C-11.13365234 1.43171875 -9.95480469 1.4884375 -8.74023438 1.546875 C-5.82621648 1.68844672 -2.91304743 1.83986942 0 2 C0 1.34 0 0.68 0 0 Z " fill="#89DAE3" transform="translate(133,44)"/>
<path d="M0 0 C0.33 0 0.66 0 1 0 C1.04898438 1.27617188 1.09796875 2.55234375 1.1484375 3.8671875 C1.22346191 5.53648072 1.29900988 7.20575046 1.375 8.875 C1.4059375 9.71675781 1.436875 10.55851562 1.46875 11.42578125 C1.50742187 12.23144531 1.54609375 13.03710938 1.5859375 13.8671875 C1.6173584 14.61081543 1.6487793 15.35444336 1.68115234 16.12060547 C1.85419551 18.24010974 1.85419551 18.24010974 4 20 C2.25 24.875 2.25 24.875 0 26 C-0.46751788 28.35599235 -0.46751788 28.35599235 -0.625 31.0625 C-0.69976562 31.98160156 -0.77453125 32.90070313 -0.8515625 33.84765625 C-0.90054688 34.55792969 -0.94953125 35.26820312 -1 36 C-1.99 36 -2.98 36 -4 36 C-4 30.39 -4 24.78 -4 19 C-2.68 19 -1.36 19 0 19 C0 12.73 0 6.46 0 0 Z " fill="#5C53FB" transform="translate(34,61)"/>
<path d="M0 0 C5.94 0 11.88 0 18 0 C18 3 18 3 17 5 C11.39 5 5.78 5 0 5 C0 3.35 0 1.7 0 0 Z " fill="#34ACC5" transform="translate(98,49)"/>
<path d="M0 0 C1.32 0 2.64 0 4 0 C4 6.6 4 13.2 4 20 C2.68 19.67 1.36 19.34 0 19 C0 12.73 0 6.46 0 0 Z " fill="#3E3E8B" transform="translate(115,63)"/>
<path d="M0 0 C12.87 0 25.74 0 39 0 C39 0.66 39 1.32 39 2 C29.43 2 19.86 2 10 2 C10 2.66 10 3.32 10 4 C9.01 4 8.02 4 7 4 C7 3.34 7 2.68 7 2 C4.69 2 2.38 2 0 2 C0 1.34 0 0.68 0 0 Z " fill="#75D5E4" transform="translate(34,45)"/>
<path d="M0 0 C2.64 0 5.28 0 8 0 C8 3.96 8 7.92 8 12 C6.35 12 4.7 12 3 12 C3.33 10.68 3.66 9.36 4 8 C3.01 8 2.02 8 1 8 C0.67 5.36 0.34 2.72 0 0 Z " fill="#34ADC5" transform="translate(26,59)"/>
<path d="M0 0 C1.67542976 0.28604898 3.34385343 0.61781233 5 1 C6.00619398 5.3266341 6.36822864 8.12471677 4 12 C1.4140625 13.140625 1.4140625 13.140625 -1 14 C-1.02685938 11.85423363 -1.04633088 9.70837355 -1.0625 7.5625 C-1.07410156 6.36753906 -1.08570312 5.17257813 -1.09765625 3.94140625 C-1 1 -1 1 0 0 Z " fill="#32C6E0" transform="translate(106,33)"/>
<path d="M0 0 C8.58 0 17.16 0 26 0 C25.67 0.99 25.34 1.98 25 3 C17.08 3 9.16 3 1 3 C0.67 2.01 0.34 1.02 0 0 Z " fill="#4C4CA0" transform="translate(101,124)"/>
<path d="M0 0 C6.27 0 12.54 0 19 0 C19 1.65 19 3.3 19 5 C15.87819599 5.96661363 13.47916205 5.98988909 10.25 5.5625 C9.05117188 5.40974609 9.05117188 5.40974609 7.828125 5.25390625 C7.22484375 5.17011719 6.6215625 5.08632813 6 5 C6 4.01 6 3.02 6 2 C3.03 1.505 3.03 1.505 0 1 C0 0.67 0 0.34 0 0 Z " fill="#81DAE3" transform="translate(7,58)"/>
<path d="M0 0 C1.65 0 3.3 0 5 0 C6 1 6 1 6.09765625 3.28515625 C6.08605469 4.20167969 6.07445312 5.11820312 6.0625 6.0625 C6.05347656 6.98160156 6.04445313 7.90070313 6.03515625 8.84765625 C6.02355469 9.55792969 6.01195312 10.26820312 6 11 C5.01 10.67 4.02 10.34 3 10 C2.01 13.465 2.01 13.465 1 17 C0.67 17 0.34 17 0 17 C0 11.39 0 5.78 0 0 Z " fill="#5B3BFF" transform="translate(35,62)"/>
<path d="M0 0 C2.31 0 4.62 0 7 0 C7 1.65 7 3.3 7 5 C3.37 5 -0.26 5 -4 5 C-4 6.65 -4 8.3 -4 10 C-5.32 10 -6.64 10 -8 10 C-8 8.02 -8 6.04 -8 4 C-5.36 4 -2.72 4 0 4 C0 2.68 0 1.36 0 0 Z " fill="#3D418D" transform="translate(34,49)"/>
<path d="M0 0 C2.34290892 2.48434437 2.97982934 3.77731593 3.29296875 7.234375 C3.25816406 8.39453125 3.22335938 9.5546875 3.1875 10.75 C3.16042969 11.92046875 3.13335937 13.0909375 3.10546875 14.296875 C3.07066406 15.18890625 3.03585938 16.0809375 3 17 C1.68 17.33 0.36 17.66 -1 18 C-1.02690844 15.37493198 -1.04679404 12.75013827 -1.0625 10.125 C-1.07087891 9.37863281 -1.07925781 8.63226563 -1.08789062 7.86328125 C-1.11328125 2.2265625 -1.11328125 2.2265625 0 0 Z " fill="#707FFE" transform="translate(124,94)"/>
<path d="M0 0 C1.24716797 0.00322266 2.49433594 0.00644531 3.77929688 0.00976562 C5.07287109 0.01814453 6.36644531 0.02652344 7.69921875 0.03515625 C9.66858398 0.04192383 9.66858398 0.04192383 11.67773438 0.04882812 C14.91410885 0.06059676 18.15039053 0.07703865 21.38671875 0.09765625 C21.05671875 0.75765625 20.72671875 1.41765625 20.38671875 2.09765625 C19.73074707 2.11747559 19.07477539 2.13729492 18.39892578 2.15771484 C15.43610806 2.25278132 12.47401343 2.36253377 9.51171875 2.47265625 C7.96291016 2.5190625 7.96291016 2.5190625 6.3828125 2.56640625 C4.90361328 2.62441406 4.90361328 2.62441406 3.39453125 2.68359375 C2.4833252 2.71501465 1.57211914 2.74643555 0.63330078 2.77880859 C-1.81259311 2.89648136 -1.81259311 2.89648136 -3.61328125 5.09765625 C-6.34197532 5.06478042 -8.90994305 4.53367854 -11.61328125 4.09765625 C-11.61328125 3.10765625 -11.61328125 2.11765625 -11.61328125 1.09765625 C-7.68039761 0.16677716 -4.03673962 -0.0184326 0 0 Z " fill="#D9D9E8" transform="translate(106.61328125,125.90234375)"/>
<path d="M0 0 C7.92 0 15.84 0 24 0 C24.33 1.32 24.66 2.64 25 4 C24.01 4 23.02 4 22 4 C22 3.34 22 2.68 22 2 C14.74 2 7.48 2 0 2 C0 1.34 0 0.68 0 0 Z " fill="#49D7D3" transform="translate(73,45)"/>
<path d="M0 0 C0.90105469 0.01804687 1.80210938 0.03609375 2.73046875 0.0546875 C3.41753906 0.07789062 4.10460938 0.10109375 4.8125 0.125 C4.1525 1.775 3.4925 3.425 2.8125 5.125 C1.8225 5.125 0.8325 5.125 -0.1875 5.125 C-0.5175 6.115 -0.8475 7.105 -1.1875 8.125 C-2.5075 7.135 -3.8275 6.145 -5.1875 5.125 C-5.1875 5.785 -5.1875 6.445 -5.1875 7.125 C-5.8475 6.795 -6.5075 6.465 -7.1875 6.125 C-6.8575 5.135 -6.5275 4.145 -6.1875 3.125 C-6.8475 2.795 -7.5075 2.465 -8.1875 2.125 C-4.87379 -0.08414 -3.8428979 -0.09981553 0 0 Z " fill="#40C6D7" transform="translate(55.1875,86.875)"/>
<path d="M0 0 C1.98 0 3.96 0 6 0 C5.34 1.65 4.68 3.3 4 5 C3.34 5 2.68 5 2 5 C2.66 5.66 3.32 6.32 4 7 C0.48812804 9.40814077 -1.72656908 10.36629408 -6 10 C-4.68 8.35 -3.36 6.7 -2 5 C-2.33 4.67 -2.66 4.34 -3 4 C-2.67 3.34 -2.34 2.68 -2 2 C-1.34 2 -0.68 2 0 2 C0 1.34 0 0.68 0 0 Z " fill="#6256FE" transform="translate(119,86)"/>
<path d="M0 0 C2.31 0 4.62 0 7 0 C7 2.31 7 4.62 7 7 C4.69 7 2.38 7 0 7 C0 4.69 0 2.38 0 0 Z " fill="#9FBEFE" transform="translate(91,85)"/>
<path d="M0 0 C0.66 0 1.32 0 2 0 C2 4.29 2 8.58 2 13 C-0.31 13 -2.62 13 -5 13 C-4.34 12.34 -3.68 11.68 -3 11 C-3.33 10.34 -3.66 9.68 -4 9 C-3.34 8.01 -2.68 7.02 -2 6 C-1.34 6 -0.68 6 0 6 C-0.185625 5.38125 -0.37125 4.7625 -0.5625 4.125 C-1 2 -1 2 0 0 Z " fill="#7895FE" transform="translate(125,111)"/>
<path d="M0 0 C-0.99 0.495 -0.99 0.495 -2 1 C-2 1.66 -2 2.32 -2 3 C-6.62 3 -11.24 3 -16 3 C-16.33 2.01 -16.66 1.02 -17 0 C-11.0885256 -0.77313045 -5.8685408 -1.14819277 0 0 Z " fill="#46D7D2" transform="translate(50,102)"/>
<path d="M0 0 C1.23556641 0.01740234 1.23556641 0.01740234 2.49609375 0.03515625 C3.32238281 0.04417969 4.14867187 0.05320312 5 0.0625 C5.63808594 0.07410156 6.27617188 0.08570312 6.93359375 0.09765625 C7.26359375 0.75765625 7.59359375 1.41765625 7.93359375 2.09765625 C6.61359375 2.09765625 5.29359375 2.09765625 3.93359375 2.09765625 C3.93359375 2.75765625 3.93359375 3.41765625 3.93359375 4.09765625 C1.62359375 5.41765625 -0.68640625 6.73765625 -3.06640625 8.09765625 C-3.10882348 5.7647085 -3.10733562 3.43063058 -3.06640625 1.09765625 C-2.06640625 0.09765625 -2.06640625 0.09765625 0 0 Z " fill="#4597EB" transform="translate(36.06640625,85.90234375)"/>
<path d="M0 0 C0.66 0 1.32 0 2 0 C2.66 1.32 3.32 2.64 4 4 C6.16874252 3.49396008 7.99967627 3.00016187 10 2 C10.33 3.32 10.66 4.64 11 6 C9.35 6.33 7.7 6.66 6 7 C6 7.66 6 8.32 6 9 C4.68 8.67 3.36 8.34 2 8 C2 7.01 2 6.02 2 5 C1.01 5 0.02 5 -1 5 C-0.67 3.35 -0.34 1.7 0 0 Z " fill="#E9F7FA" transform="translate(18,68)"/>
<path d="M0 0 C3.3 0 6.6 0 10 0 C9 2 9 2 7 2.9375 C4.65391779 3.8891846 4.65391779 3.8891846 4 7 C2.02 7.99 2.02 7.99 0 9 C0 6.03 0 3.06 0 0 Z " fill="#3DBBDE" transform="translate(105,54)"/>
<path d="M0 0 C5.41538462 -0.36923077 5.41538462 -0.36923077 8.375 1.5 C8.91125 1.995 9.4475 2.49 10 3 C10.33 2.01 10.66 1.02 11 0 C10.67 1.65 10.34 3.3 10 5 C6.7 5 3.4 5 0 5 C0 3.35 0 1.7 0 0 Z " fill="#34ADC6" transform="translate(33,97)"/>
<path d="M0 0 C1.4540625 0.0309375 1.4540625 0.0309375 2.9375 0.0625 C3.0625 2.4375 3.0625 2.4375 2.9375 5.0625 C2.2775 5.7225 1.6175 6.3825 0.9375 7.0625 C-1.1875 6.6875 -1.1875 6.6875 -3.0625 6.0625 C-3.44468767 4.40635343 -3.77645102 2.73792976 -4.0625 1.0625 C-3.0625 0.0625 -3.0625 0.0625 0 0 Z " fill="#58D4E0" transform="translate(115.0625,101.9375)"/>
<path d="M0 0 C0.99 0 1.98 0 3 0 C3.66 1.65 4.32 3.3 5 5 C4.01 5 3.02 5 2 5 C2 6.65 2 8.3 2 10 C0.35 9.67 -1.3 9.34 -3 9 C-3 7.68 -3 6.36 -3 5 C-2.34 5 -1.68 5 -1 5 C-0.67 3.35 -0.34 1.7 0 0 Z " fill="#3DCFE4" transform="translate(108,104)"/>
<path d="M0 0 C1.32 0.33 2.64 0.66 4 1 C2.07423885 3.43929746 0.19909405 5.80090595 -2 8 C-2 8.33 -2 8.66 -2 9 C-3.65 9 -5.3 9 -7 9 C-6.61402985 6.20171644 -6.19863427 5.1794116 -4.0625 3.25 C-2 2 -2 2 0 2 C0 1.34 0 0.68 0 0 Z " fill="#44AAE6" transform="translate(40,88)"/>
<path d="M0 0 C0.66 0 1.32 0 2 0 C2 2.33333333 2 4.66666667 2 7 C2.165 7.825 2.33 8.65 2.5 9.5 C3 12 3 12 3 14 C1.68 13.67 0.36 13.34 -1 13 C-1.22162329 11.37675914 -1.42689803 9.751279 -1.625 8.125 C-1.74101563 7.22007813 -1.85703125 6.31515625 -1.9765625 5.3828125 C-1.98429687 4.59648438 -1.99203125 3.81015625 -2 3 C-1.34 2.34 -0.68 1.68 0 1 C0 0.67 0 0.34 0 0 Z " fill="#38C1C7" transform="translate(116,49)"/>
<path d="M0 0 C0 1.32 0 2.64 0 4 C-3.6441774 6.4294516 -5.71241272 6.16179575 -10 6 C-10 5.01 -10 4.02 -10 3 C-3.375 0 -3.375 0 0 0 Z " fill="#3FCEE4" transform="translate(123,96)"/>
<path d="M0 0 C0 0.99 0 1.98 0 3 C0.66 3 1.32 3 2 3 C1.49396008 5.16874252 1.00016187 6.99967627 0 9 C-3.16115776 7.63016497 -3.9927092 7.0109362 -6 4 C-2.25 0 -2.25 0 0 0 Z " fill="#53BEDE" transform="translate(43,91)"/>
<path d="M0 0 C1.37478516 0.01740234 1.37478516 0.01740234 2.77734375 0.03515625 C3.69644531 0.04417969 4.61554688 0.05320312 5.5625 0.0625 C6.27277344 0.07410156 6.98304687 0.08570312 7.71484375 0.09765625 C4.71484375 2.09765625 4.71484375 2.09765625 1.71484375 2.09765625 C1.71484375 2.75765625 1.71484375 3.41765625 1.71484375 4.09765625 C0.04817708 5.76432292 -1.61848958 7.43098958 -3.28515625 9.09765625 C-3.3828125 2.9453125 -3.3828125 2.9453125 -3.28515625 1.09765625 C-2.28515625 0.09765625 -2.28515625 0.09765625 0 0 Z " fill="#45B4F5" transform="translate(108.28515625,95.90234375)"/>
<path d="M0 0 C0.66 0.33 1.32 0.66 2 1 C1.34 1.66 0.68 2.32 0 3 C-1.32 3 -2.64 3 -4 3 C-4 3.66 -4 4.32 -4 5 C-8.1205746 6.99785435 -11.45194365 7.17835515 -16 7 C-16 6.01 -16 5.02 -16 4 C-8.375 2.875 -8.375 2.875 -5 4 C-5 3.34 -5 2.68 -5 2 C-2.625 0.9375 -2.625 0.9375 0 0 Z " fill="#43CDD4" transform="translate(29,73)"/>
<path d="M0 0 C1.98 0 3.96 0 6 0 C6 1.98 6 3.96 6 6 C4.02 6 2.04 6 0 6 C0 4.02 0 2.04 0 0 Z " fill="#A6C7FF" transform="translate(83,85)"/>
<path d="M0 0 C1.98 0 3.96 0 6 0 C6 1.98 6 3.96 6 6 C4.02 6 2.04 6 0 6 C0 4.02 0 2.04 0 0 Z " fill="#A6C7FF" transform="translate(74,85)"/>
<path d="M0 0 C0.99 0 1.98 0 3 0 C3.08121924 1.60332791 3.13929134 3.20784026 3.1875 4.8125 C3.23970703 6.15248047 3.23970703 6.15248047 3.29296875 7.51953125 C3 10 3 10 0 13 C0 8.71 0 4.42 0 0 Z " fill="#3B96D8" transform="translate(41,49)"/>
<path d="M0 0 C2.31 0 4.62 0 7 0 C7 1.65 7 3.3 7 5 C4.69 5 2.38 5 0 5 C0 3.35 0 1.7 0 0 Z " fill="#3C3E8A" transform="translate(98,49)"/>
<path d="M0 0 C6.6 0 13.2 0 20 0 C20 0.99 20 1.98 20 3 C13.4 2.34 6.8 1.68 0 1 C0 0.67 0 0.34 0 0 Z " fill="#41D1D8" transform="translate(14,32)"/>
<path d="M0 0 C1.485 0.99 1.485 0.99 3 2 C3.36792655 6.56228926 3.61838609 10.07242087 1 14 C0.67 14 0.34 14 0 14 C0 9.38 0 4.76 0 0 Z " fill="#5F4DFE" transform="translate(102,97)"/>
<path d="M0 0 C0.66 0 1.32 0 2 0 C1.69106068 1.6256807 1.3777305 3.25052748 1.0625 4.875 C0.88847656 5.77992187 0.71445312 6.68484375 0.53515625 7.6171875 C0 10 0 10 -1 12 C-1.66 12 -2.32 12 -3 12 C-2.14285714 3.42857143 -2.14285714 3.42857143 0 0 Z " fill="#DCF4F7" transform="translate(47,90)"/>
<path d="M0 0 C1.67542976 0.28604898 3.34385343 0.61781233 5 1 C4.67 2.32 4.34 3.64 4 5 C2.68 5.33 1.36 5.66 0 6 C-0.38218767 4.34385343 -0.71395102 2.67542976 -1 1 C-0.67 0.67 -0.34 0.34 0 0 Z " fill="#51D0DC" transform="translate(22,67)"/>
<path d="M0 0 C1.32 0.33 2.64 0.66 4 1 C4 3 4 3 1.5 5.625 C0.675 6.40875 -0.15 7.1925 -1 8 C-0.67 8.66 -0.34 9.32 0 10 C-0.99 10 -1.98 10 -3 10 C-3.66 8.68 -4.32 7.36 -5 6 C-4.360625 5.7525 -3.72125 5.505 -3.0625 5.25 C-0.81258459 4.18437567 -0.81258459 4.18437567 -0.25 1.875 C-0.1675 1.25625 -0.085 0.6375 0 0 Z " fill="#40D6D3" transform="translate(131,33)"/>
<path d="M0 0 C1.5625 1.5625 1.5625 1.5625 3 4 C2.6875 7.75 2.6875 7.75 2 11 C1.01 11 0.02 11 -1 11 C-1.0270043 9.54176788 -1.04639787 8.08339325 -1.0625 6.625 C-1.07410156 5.81289062 -1.08570312 5.00078125 -1.09765625 4.1640625 C-1 2 -1 2 0 0 Z " fill="#6C72FE" transform="translate(124,94)"/>
<path d="M0 0 C0 1.98 0 3.96 0 6 C-1.65 6 -3.3 6 -5 6 C-4.67 4.68 -4.34 3.36 -4 2 C-4.99 1.67 -5.98 1.34 -7 1 C-4 0 -4 0 0 0 Z " fill="#49CBD8" transform="translate(34,65)"/>
<path d="M0 0 C1.98 0 3.96 0 6 0 C6.33 0.66 6.66 1.32 7 2 C6.34 2 5.68 2 5 2 C5 2.66 5 3.32 5 4 C3.35 4.33 1.7 4.66 0 5 C-0.33 4.34 -0.66 3.68 -1 3 C-0.67 2.01 -0.34 1.02 0 0 Z " fill="#38D8D8" transform="translate(110,109)"/>
<path d="M0 0 C3.37462715 0.54723683 5.08235 1.0549 8 3 C7 4 7 4 5.15234375 4.09765625 C3.1015625 4.06510417 1.05078125 4.03255208 -1 4 C-0.67 2.68 -0.34 1.36 0 0 Z " fill="#31C7DE" transform="translate(14,59)"/>
<path d="M0 0 C0.66 0 1.32 0 2 0 C2 1.65 2 3.3 2 5 C2.66 5.33 3.32 5.66 4 6 C3.01 7.485 3.01 7.485 2 9 C-1.875 7.25 -1.875 7.25 -3 5 C-2.01 5 -1.02 5 0 5 C0 3.35 0 1.7 0 0 Z " fill="#EFFAFA" transform="translate(119,49)"/>
<path d="M0 0 C1.65 0 3.3 0 5 0 C4.67 1.98 4.34 3.96 4 6 C2.02 6 0.04 6 -2 6 C-1.01 5.01 -0.02 4.02 1 3 C0.67 2.01 0.34 1.02 0 0 Z " fill="#34D0C8" transform="translate(29,71)"/>
<path d="M0 0 C0.33 0 0.66 0 1 0 C2.125 6.625 2.125 6.625 1 10 C0.01 10 -0.98 10 -2 10 C-2.17942163 6.05272412 -2.09350689 3.4019487 0 0 Z " fill="#6762FF" transform="translate(104,107)"/>
<path d="M0 0 C1.32 0 2.64 0 4 0 C4 1.98 4 3.96 4 6 C2.68 6 1.36 6 0 6 C0 4.02 0 2.04 0 0 Z " fill="#3DB4DE" transform="translate(30,59)"/>
<path d="M0 0 C2.97 0 5.94 0 9 0 C9 0.66 9 1.32 9 2 C6.36 2.33 3.72 2.66 1 3 C0.67 2.01 0.34 1.02 0 0 Z " fill="#4FD0DA" transform="translate(33,102)"/>
<path d="M0 0 C3.96 0 7.92 0 12 0 C11 2 11 2 9.375 2.75 C5.96334563 3.10912151 3.22534792 2.05444067 0 1 C0 0.67 0 0.34 0 0 Z " fill="#7ED8E4" transform="translate(110,33)"/>
<path d="M0 0 C0.5625 1.9375 0.5625 1.9375 1 4 C0 5 0 5 -2.5625 5.0625 C-3.7690625 5.0315625 -3.7690625 5.0315625 -5 5 C-5.33 4.34 -5.66 3.68 -6 3 C-4.02 2.01 -2.04 1.02 0 0 Z " fill="#36E1C0" transform="translate(59,100)"/>
<path d="M0 0 C1.32 0 2.64 0 4 0 C4 0.66 4 1.32 4 2 C4.99 2 5.98 2 7 2 C7 2.66 7 3.32 7 4 C4.69 4 2.38 4 0 4 C0 2.68 0 1.36 0 0 Z " fill="#33CBD9" transform="translate(13,71)"/>
<path d="M0 0 C0.99 0.33 1.98 0.66 3 1 C2.67 2.32 2.34 3.64 2 5 C1.34 5 0.68 5 0 5 C0 5.66 0 6.32 0 7 C-0.66 6.67 -1.32 6.34 -2 6 C-1.67 5.01 -1.34 4.02 -1 3 C-1.66 2.67 -2.32 2.34 -3 2 C-2.01 1.34 -1.02 0.68 0 0 Z " fill="#4AC1DE" transform="translate(50,87)"/>
<path d="M0 0 C0.33 0 0.66 0 1 0 C1 2.64 1 5.28 1 8 C0.01 8.33 -0.98 8.66 -2 9 C-2.25 3.375 -2.25 3.375 0 0 Z " fill="#409AE9" transform="translate(43,59)"/>
<path d="M0 0 C1.98 0 3.96 0 6 0 C5.67 1.32 5.34 2.64 5 4 C4.67 3.34 4.34 2.68 4 2 C1.525 3.485 1.525 3.485 -1 5 C-0.67 3.35 -0.34 1.7 0 0 Z " fill="#72D9E7" transform="translate(112,102)"/>
<path d="M0 0 C0.99 0 1.98 0 3 0 C3 0.99 3 1.98 3 3 C3.66 3.33 4.32 3.66 5 4 C3.02 4.33 1.04 4.66 -1 5 C-0.67 3.35 -0.34 1.7 0 0 Z " fill="#36C1C6" transform="translate(47,97)"/>
<path d="M0 0 C2.31 0 4.62 0 7 0 C7 0.66 7 1.32 7 2 C4.69 2.33 2.38 2.66 0 3 C0 2.01 0 1.02 0 0 Z " fill="#34D3D2" transform="translate(13,77)"/>
<path d="M0 0 C0.33 1.32 0.66 2.64 1 4 C-1.31 4 -3.62 4 -6 4 C-3.33333333 0 -3.33333333 0 0 0 Z " fill="#BDD7FE" transform="translate(85,114)"/>
<path d="M0 0 C0 0.99 0 1.98 0 3 C0.3062434 4.33981486 0.63451555 5.67511887 1 7 C-0.32 6.34 -1.64 5.68 -3 5 C-3 4.01 -3 3.02 -3 2 C-2.01 1.34 -1.02 0.68 0 0 Z " fill="#E8F6F9" transform="translate(41,92)"/>
</svg>
