<?xml version="1.0" encoding="UTF-8"?>
<svg version="1.1" xmlns="http://www.w3.org/2000/svg" width="150" height="150">
<path d="M0 0 C3.3 0 6.6 0 10 0 C10 1.98 10 3.96 10 6 C15.55493924 7.02703748 15.55493924 7.02703748 21 6 C21.433125 7.134375 21.86625 8.26875 22.3125 9.4375 C23.3061169 11.45153786 23.3061169 11.45153786 25 13 C27.93713773 13.71501749 30.6179844 13.87371097 33.63671875 13.9296875 C36 14 36 14 37 15 C37.08748207 16.92667507 37.10697334 18.85651861 37.09765625 20.78515625 C37.09282227 22.53989258 37.09282227 22.53989258 37.08789062 24.33007812 C37.07532227 26.17762695 37.07532227 26.17762695 37.0625 28.0625 C37.05798828 29.29806641 37.05347656 30.53363281 37.04882812 31.80664062 C37.03699608 34.87114117 37.02051173 37.93554721 37 41 C38.98 41 40.96 41 43 41 C44.8684361 44.84678022 45.05395731 46.8895665 44 51 C44 52.32 44 53.64 44 55 C43.01 55.99 43.01 55.99 42 57 C41.01 56.67 40.02 56.34 39 56 C38.34 57.32 37.68 58.64 37 60 C35.02 60 33.04 60 31 60 C30.01 58.02 30.01 58.02 29 56 C27.68 56.33 26.36 56.66 25 57 C23.23937836 53.67438135 22.89215772 52.40826005 23.875 48.6875 C24.431875 47.3571875 24.431875 47.3571875 25 46 C24.34 46 23.68 46 23 46 C23 45.34 23 44.68 23 44 C22.34 44 21.68 44 21 44 C21 50.6 21 57.2 21 64 C23.31 64 25.62 64 28 64 C29 65 29 65 29.11352539 68.96899414 C29.1133662 70.74105607 29.10766785 72.5131226 29.09765625 74.28515625 C29.0962413 75.21597519 29.09482635 76.14679413 29.09336853 77.1058197 C29.08775172 80.09141191 29.0751964 83.07693029 29.0625 86.0625 C29.05748716 88.08137913 29.05292388 90.10025943 29.04882812 92.11914062 C29.03777683 97.07945572 29.02050095 102.03971532 29 107 C31.31 107.66 33.62 108.32 36 109 C35 111 35 111 33.34521484 111.61450195 C28.49200924 112.41225457 23.54404055 112.18590312 18.63769531 112.18530273 C16.63863013 112.18748512 14.63960468 112.20599143 12.640625 112.22460938 C11.36960937 112.22654297 10.09859375 112.22847656 8.7890625 112.23046875 C7.63100098 112.23457764 6.47293945 112.23868652 5.27978516 112.24291992 C1.88689046 111.99162245 -0.83332989 111.21173908 -4 110 C-3.67 109.34 -3.34 108.68 -3 108 C-0.4375 107.375 -0.4375 107.375 2 107 C1.32142944 106.99191315 0.64285889 106.98382629 -0.05627441 106.97549438 C-7.19572947 106.88863335 -14.33493245 106.7891071 -21.47412109 106.68261719 C-24.12938188 106.64363425 -26.7845665 106.60971702 -29.43994141 106.578125 C-67.93926359 106.11445232 -67.93926359 106.11445232 -75 102 C-74.505 101.01 -74.505 101.01 -74 100 C-73.34 100 -72.68 100 -72 100 C-72 99.01 -72 98.02 -72 97 C-73.98 97 -75.96 97 -78 97 C-78.495 97.99 -78.495 97.99 -79 99 C-81.88575819 98.60196439 -82.82189513 98.20990931 -84.75 95.9375 C-85.36875 94.9784375 -85.36875 94.9784375 -86 94 C-85.34 93.01 -84.68 92.02 -84 91 C-84.79117904 89.00016466 -84.79117904 89.00016466 -86 87 C-86.99 86.67 -87.98 86.34 -89 86 C-88.67 83.69 -88.34 81.38 -88 79 C-85.03 78.01 -85.03 78.01 -82 77 C-82 75.02 -82 73.04 -82 71 C-78.535 70.01 -78.535 70.01 -75 69 C-74.67 70.32 -74.34 71.64 -74 73 C-73.34 73 -72.68 73 -72 73 C-72 69.04 -72 65.08 -72 61 C-76.29 61 -80.58 61 -85 61 C-85.02683436 57.68744674 -85.0467578 54.37510817 -85.0625 51.0625 C-85.07087891 50.11697266 -85.07925781 49.17144531 -85.08789062 48.19726562 C-85.09111328 47.29814453 -85.09433594 46.39902344 -85.09765625 45.47265625 C-85.10289307 44.64000244 -85.10812988 43.80734863 -85.11352539 42.94946289 C-85 41 -85 41 -84 40 C-81.98035801 39.92755947 -79.95832876 39.91622812 -77.9375 39.9375 C-76.28041016 39.95103516 -76.28041016 39.95103516 -74.58984375 39.96484375 C-73.73519531 39.97644531 -72.88054687 39.98804688 -72 40 C-72.061875 38.906875 -72.12375 37.81375 -72.1875 36.6875 C-72 33 -72 33 -70.875 31.28125 C-68.1629604 29.42802294 -66.05676436 29.70784631 -62.8125 29.8125 C-61.72582031 29.83957031 -60.63914062 29.86664063 -59.51953125 29.89453125 C-58.27236328 29.94673828 -58.27236328 29.94673828 -57 30 C-56.67 28.68 -56.34 27.36 -56 26 C-54.77893555 25.98018066 -53.55787109 25.96036133 -52.29980469 25.93994141 C-47.76720646 25.86383877 -43.2349273 25.77512839 -38.70263672 25.68261719 C-36.7414378 25.64434673 -34.78016916 25.60949046 -32.81884766 25.578125 C-29.99877003 25.5324326 -27.17917162 25.474445 -24.359375 25.4140625 C-23.04510529 25.39673569 -23.04510529 25.39673569 -21.70428467 25.37905884 C-20.88373596 25.35918915 -20.06318726 25.33931946 -19.21777344 25.31884766 C-18.49829529 25.30552399 -17.77881714 25.29220032 -17.03753662 25.2784729 C-14.69844524 24.9587861 -13.04472763 24.15410784 -11 23 C-10.66602213 20.12586875 -10.66602213 20.12586875 -11 17 C-12.88077873 15.08743288 -12.88077873 15.08743288 -15 14 C-13.87548273 11.0280615 -12.77706209 8.66559313 -11 6 C-9.39125 6.2784375 -9.39125 6.2784375 -7.75 6.5625 C-4.59608454 6.9304568 -2.90181508 7.04465343 0 6 C0 4.02 0 2.04 0 0 Z M-2 13 C-4.2084626 16.31269391 -4.80664241 18.14978851 -4.5546875 22.0625 C-3.4812192 25.81207941 -1.28696911 27.01541488 2 29 C4.63836977 29.1672392 4.63836977 29.1672392 7 29 C7.03738281 28.01257813 7.07476562 27.02515625 7.11328125 26.0078125 C7.17902344 24.72648437 7.24476562 23.44515625 7.3125 22.125 C7.37050781 20.84882812 7.42851563 19.57265625 7.48828125 18.2578125 C7.65714844 17.18273437 7.82601562 16.10765625 8 15 C8.99 14.34 9.98 13.68 11 13 C9.01607489 10.60148679 9.01607489 10.60148679 5.1875 10.5625 C1.82266671 10.66669338 0.95629969 11.02913354 -2 13 Z M29 46 C28.6366844 48.83386167 28.6431329 50.40522151 30.125 52.875 C32.92151052 54.55290631 34.93690532 53.74875648 38 53 C38.67673447 49.59679066 38.67673447 49.59679066 39 46 C37.11499729 43.68436913 37.11499729 43.68436913 34 43.75 C30.88500271 43.68436913 30.88500271 43.68436913 29 46 Z M-78.25 79.625 C-80.21985834 81.92308586 -80.21985834 81.92308586 -80.5 85 C-80.21376982 88.06575838 -80.21376982 88.06575838 -78.3125 90.375 C-75.61209763 92.27258004 -74.22939919 92.35882213 -71 92 C-70.85024761 84.94348748 -70.85024761 84.94348748 -72 78 C-75.92212225 77.60967296 -75.92212225 77.60967296 -78.25 79.625 Z M-65 94 C-64.67 95.65 -64.34 97.3 -64 99 C-51.13 98.01 -51.13 98.01 -38 97 C-37.67 96.01 -37.34 95.02 -37 94 C-46.24 94 -55.48 94 -65 94 Z M-13 94 C-13 94.99 -13 95.98 -13 97 C-7.72 97.33 -2.44 97.66 3 98 C3 96.68 3 95.36 3 94 C-2.28 94 -7.56 94 -13 94 Z " fill="#7183FE" transform="translate(98,19)"/>
<path d="M0 0 C16.83 0 33.66 0 51 0 C51 0.66 51 1.32 51 2 C54.3 2 57.6 2 61 2 C61 3.65 61 5.3 61 7 C60.04633545 7.02505615 59.0926709 7.0501123 58.11010742 7.07592773 C54.57090893 7.17012071 51.03190125 7.27031231 47.49291992 7.37231445 C45.96138982 7.41561833 44.42981285 7.45729667 42.89819336 7.49731445 C40.69630818 7.55512732 38.49465789 7.61878969 36.29296875 7.68359375 C35.60849167 7.70030624 34.92401459 7.71701874 34.21879578 7.73423767 C31.22879896 7.8273555 28.85937689 8.04687437 26 9 C24.79117904 11.00016466 24.79117904 11.00016466 24 13 C23.34 13 22.68 13 22 13 C21.34 13.99 20.68 14.98 20 16 C19.505 15.01 19.505 15.01 19 14 C18.34 15.65 17.68 17.3 17 19 C16.01 19 15.02 19 14 19 C14.495 21.475 14.495 21.475 15 24 C13.02 24.99 13.02 24.99 11 26 C11 26.66 11 27.32 11 28 C9.02 28.66 7.04 29.32 5 30 C5.495 31.485 5.495 31.485 6 33 C5.38125 32.79375 4.7625 32.5875 4.125 32.375 C3.073125 32.189375 3.073125 32.189375 2 32 C1.34 32.66 0.68 33.32 0 34 C0 34.66 0 35.32 0 36 C0 36.66 0 37.32 0 38 C1.05960938 38.03738281 2.11921875 38.07476562 3.2109375 38.11328125 C4.59899424 38.17893258 5.98701349 38.24538021 7.375 38.3125 C8.07367188 38.33505859 8.77234375 38.35761719 9.4921875 38.38085938 C11.5234375 38.48828125 11.5234375 38.48828125 15 39 C15.66 39.99 16.32 40.98 17 42 C17.185625 41.071875 17.185625 41.071875 17.375 40.125 C18 38 18 38 20 36 C21.66666667 35.33333333 23.33333333 34.66666667 25 34 C25.66 33.34 26.32 32.68 27 32 C26.505 31.01 26.505 31.01 26 30 C28 28 28 28 29.875 27.25 C32.26862123 26.05412431 32.26862123 26.05412431 33.875 23.125 C36.58331536 19.14218329 39.73982692 17.13008654 44 15 C44.99 15.99 45.98 16.98 47 18 C46.0409375 18.3403125 46.0409375 18.3403125 45.0625 18.6875 C42.72806339 19.85250896 42.72806339 19.85250896 42.25 22.625 C42.1675 23.40875 42.085 24.1925 42 25 C41.34 25 40.68 25 40 25 C40 25.99 40 26.98 40 28 C40.99 28 41.98 28 43 28 C42.60404157 29.48484412 42.18249294 30.9628831 41.75 32.4375 C41.51796875 33.26121094 41.2859375 34.08492187 41.046875 34.93359375 C40 37 40 37 37.890625 37.78515625 C37.26671875 37.85605469 36.6428125 37.92695312 36 38 C36 38.99 36 39.98 36 41 C34.02 41.99 34.02 41.99 32 43 C32 43.66 32 44.32 32 45 C29.525 45.495 29.525 45.495 27 46 C27.33 46.99 27.66 47.98 28 49 C37.57 49.33 47.14 49.66 57 50 C57 51.65 57 53.3 57 55 C43.47 55 29.94 55 16 55 C15.67 55.99 15.34 56.98 15 58 C6.75 58 -1.5 58 -10 58 C-10.33 57.01 -10.66 56.02 -11 55 C-13.31 55 -15.62 55 -18 55 C-18 47.74 -18 40.48 -18 33 C-22.29 33 -26.58 33 -31 33 C-31.02683436 29.68744674 -31.0467578 26.37510817 -31.0625 23.0625 C-31.07087891 22.11697266 -31.07925781 21.17144531 -31.08789062 20.19726562 C-31.09111328 19.29814453 -31.09433594 18.39902344 -31.09765625 17.47265625 C-31.10289307 16.64000244 -31.10812988 15.80734863 -31.11352539 14.94946289 C-31 13 -31 13 -30 12 C-27.98035801 11.92755947 -25.95832876 11.91622812 -23.9375 11.9375 C-22.28041016 11.95103516 -22.28041016 11.95103516 -20.58984375 11.96484375 C-19.73519531 11.97644531 -18.88054688 11.98804688 -18 12 C-18.061875 10.906875 -18.12375 9.81375 -18.1875 8.6875 C-18 5 -18 5 -16.96875 3.28125 C-13.92872758 1.30282271 -10.80886916 1.68518123 -7.3125 1.8125 C-6.61060547 1.82603516 -5.90871094 1.83957031 -5.18554688 1.85351562 C-3.45670171 1.88879818 -1.72825235 1.94260417 0 2 C0 1.34 0 0.68 0 0 Z " fill="#5F4CFE" transform="translate(44,47)"/>
<path d="M0 0 C0 0.99 0 1.98 0 3 C0.66 3 1.32 3 2 3 C2 4.65 2 6.3 2 8 C1.030625 8.28875 0.06125 8.5775 -0.9375 8.875 C-4.10664203 9.64214682 -4.10664203 9.64214682 -5 12 C-5.0689472 13.37342831 -5.08467708 14.75002102 -5.0625 16.125 C-5.041875 17.40375 -5.02125 18.6825 -5 20 C-2.36 20.66 0.28 21.32 3 22 C3 19.03 3 16.06 3 13 C4.98 13 6.96 13 9 13 C9.33 13.66 9.66 14.32 10 15 C18.25 15 26.5 15 35 15 C35.33 14.34 35.66 13.68 36 13 C49.53 13 63.06 13 77 13 C77 16.63 77 20.26 77 24 C71.72 24 66.44 24 61 24 C61 24.99 61 25.98 61 27 C61.56847656 26.98839844 62.13695313 26.97679688 62.72265625 26.96484375 C67.60670484 26.90776806 72.18503965 27.18043228 77 28 C77 30.64 77 33.28 77 36 C69.71409984 36.04682155 62.42823335 36.08211748 55.14221191 36.10362434 C51.75718789 36.11395864 48.37226851 36.12792229 44.98730469 36.15087891 C6.5625541 36.39227608 6.5625541 36.39227608 -1 32 C-0.67 31.34 -0.34 30.68 0 30 C0.66 30 1.32 30 2 30 C2 29.01 2 28.02 2 27 C0.02 27 -1.96 27 -4 27 C-4.33 27.66 -4.66 28.32 -5 29 C-7.88575819 28.60196439 -8.82189513 28.20990931 -10.75 25.9375 C-11.1625 25.298125 -11.575 24.65875 -12 24 C-11.34 23.01 -10.68 22.02 -10 21 C-10.79117904 19.00016466 -10.79117904 19.00016466 -12 17 C-12.99 16.67 -13.98 16.34 -15 16 C-14.67 13.69 -14.34 11.38 -14 9 C-12.02 8.34 -10.04 7.68 -8 7 C-8 5.02 -8 3.04 -8 1 C-3.375 -1.125 -3.375 -1.125 0 0 Z M9 24 C9.33 25.65 9.66 27.3 10 29 C22.87 28.01 22.87 28.01 36 27 C36.33 26.01 36.66 25.02 37 24 C27.76 24 18.52 24 9 24 Z " fill="#B6D2FE" transform="translate(24,89)"/>
<path d="M0 0 C3.3 0 6.6 0 10 0 C10 1.98 10 3.96 10 6 C15.55493924 7.02703748 15.55493924 7.02703748 21 6 C21.433125 7.134375 21.86625 8.26875 22.3125 9.4375 C23.3061169 11.45153786 23.3061169 11.45153786 25 13 C27.93713773 13.71501749 30.6179844 13.87371097 33.63671875 13.9296875 C36 14 36 14 37 15 C37.08748207 16.92667507 37.10697334 18.85651861 37.09765625 20.78515625 C37.09282227 22.53989258 37.09282227 22.53989258 37.08789062 24.33007812 C37.07532227 26.17762695 37.07532227 26.17762695 37.0625 28.0625 C37.05798828 29.29806641 37.05347656 30.53363281 37.04882812 31.80664062 C37.03699608 34.87114117 37.02051173 37.93554721 37 41 C38.98 41 40.96 41 43 41 C44.8684361 44.84678022 45.05395731 46.8895665 44 51 C44 52.32 44 53.64 44 55 C43.01 55.99 43.01 55.99 42 57 C40.515 56.505 40.515 56.505 39 56 C38.34 57.32 37.68 58.64 37 60 C35.02 60 33.04 60 31 60 C30.01 58.02 30.01 58.02 29 56 C27.68 56.33 26.36 56.66 25 57 C23.23937836 53.67438135 22.89215772 52.40826005 23.875 48.6875 C24.431875 47.3571875 24.431875 47.3571875 25 46 C24.34 46 23.68 46 23 46 C23 45.34 23 44.68 23 44 C17.72 44 12.44 44 7 44 C7 39.38 7 34.76 7 30 C3.7 30 0.4 30 -3 30 C-3 29.34 -3 28.68 -3 28 C-19.83 28 -36.66 28 -54 28 C-54 28.66 -54 29.32 -54 30 C-54.99 30 -55.98 30 -57 30 C-56.67 28.68 -56.34 27.36 -56 26 C-54.77893555 25.98018066 -53.55787109 25.96036133 -52.29980469 25.93994141 C-47.76720646 25.86383877 -43.2349273 25.77512839 -38.70263672 25.68261719 C-36.7414378 25.64434673 -34.78016916 25.60949046 -32.81884766 25.578125 C-29.99877003 25.5324326 -27.17917162 25.474445 -24.359375 25.4140625 C-23.48319519 25.40251129 -22.60701538 25.39096008 -21.70428467 25.37905884 C-20.88373596 25.35918915 -20.06318726 25.33931946 -19.21777344 25.31884766 C-18.49829529 25.30552399 -17.77881714 25.29220032 -17.03753662 25.2784729 C-14.69844524 24.9587861 -13.04472763 24.15410784 -11 23 C-10.66602213 20.12586875 -10.66602213 20.12586875 -11 17 C-12.88077873 15.08743288 -12.88077873 15.08743288 -15 14 C-13.87548273 11.0280615 -12.77706209 8.66559313 -11 6 C-9.9275 6.185625 -8.855 6.37125 -7.75 6.5625 C-4.59608454 6.9304568 -2.90181508 7.04465343 0 6 C0 4.02 0 2.04 0 0 Z M-2 13 C-4.2084626 16.31269391 -4.80664241 18.14978851 -4.5546875 22.0625 C-3.4812192 25.81207941 -1.28696911 27.01541488 2 29 C4.63836977 29.1672392 4.63836977 29.1672392 7 29 C7.03738281 28.01257813 7.07476562 27.02515625 7.11328125 26.0078125 C7.17902344 24.72648437 7.24476562 23.44515625 7.3125 22.125 C7.37050781 20.84882812 7.42851563 19.57265625 7.48828125 18.2578125 C7.65714844 17.18273437 7.82601562 16.10765625 8 15 C8.99 14.34 9.98 13.68 11 13 C9.01607489 10.60148679 9.01607489 10.60148679 5.1875 10.5625 C1.82266671 10.66669338 0.95629969 11.02913354 -2 13 Z M29 46 C28.6366844 48.83386167 28.6431329 50.40522151 30.125 52.875 C32.92151052 54.55290631 34.93690532 53.74875648 38 53 C38.67673447 49.59679066 38.67673447 49.59679066 39 46 C37.11499729 43.68436913 37.11499729 43.68436913 34 43.75 C30.88500271 43.68436913 30.88500271 43.68436913 29 46 Z " fill="#6AD3E2" transform="translate(98,19)"/>
<path d="M0 0 C0.33 0 0.66 0 1 0 C1.33 2.97 1.66 5.94 2 9 C2.33 8.34 2.66 7.68 3 7 C3.99 7 4.98 7 6 7 C6 6.34 6 5.68 6 5 C6.66 4.67 7.32 4.34 8 4 C7.67 3.34 7.34 2.68 7 2 C9.64 2 12.28 2 15 2 C13.625 4.5 13.625 4.5 12 7 C11.34 7 10.68 7 10 7 C10.33 7.66 10.66 8.32 11 9 C13.58605332 9.4683265 13.58605332 9.4683265 16.5625 9.625 C17.57441406 9.69976562 18.58632812 9.77453125 19.62890625 9.8515625 C20.80259766 9.92503906 20.80259766 9.92503906 22 10 C22.33 12.64 22.66 15.28 23 18 C23.99 18 24.98 18 26 18 C26 25.26 26 32.52 26 40 C28.31 40.66 30.62 41.32 33 42 C32 44 32 44 30.34521484 44.61450195 C25.49200924 45.41225457 20.54404055 45.18590312 15.63769531 45.18530273 C13.63863013 45.18748512 11.63960468 45.20599143 9.640625 45.22460938 C8.36960937 45.22654297 7.09859375 45.22847656 5.7890625 45.23046875 C4.63100098 45.23457764 3.47293945 45.23868652 2.27978516 45.24291992 C-1.11310954 44.99162245 -3.83332989 44.21173908 -7 43 C-6 41 -6 41 0 39 C0 26.13 0 13.26 0 0 Z " fill="#5F4DF1" transform="translate(101,86)"/>
<path d="M0 0 C0.89267578 0.00322266 1.78535156 0.00644531 2.70507812 0.00976562 C3.63384766 0.01814453 4.56261719 0.02652344 5.51953125 0.03515625 C6.93008789 0.04192383 6.93008789 0.04192383 8.36914062 0.04882812 C10.69016837 0.06060999 13.01106769 0.07706067 15.33203125 0.09765625 C14.95703125 2.53515625 14.95703125 2.53515625 14.33203125 5.09765625 C13.67203125 5.42765625 13.01203125 5.75765625 12.33203125 6.09765625 C11.67203125 7.08765625 11.01203125 8.07765625 10.33203125 9.09765625 C8.28072734 10.48578761 6.16188766 11.68594111 4.01171875 12.9140625 C3.18027344 13.49994141 3.18027344 13.49994141 2.33203125 14.09765625 C2.33203125 14.75765625 2.33203125 15.41765625 2.33203125 16.09765625 C1.67203125 16.09765625 1.01203125 16.09765625 0.33203125 16.09765625 C0.06390625 16.69578125 -0.20421875 17.29390625 -0.48046875 17.91015625 C-2.06946326 20.8372514 -3.68692494 22.60713435 -6.66796875 24.09765625 C-6.33796875 24.75765625 -6.00796875 25.41765625 -5.66796875 26.09765625 C-8.66346155 28.67710838 -10.81148176 30.27126618 -14.66796875 31.09765625 C-15.66813062 33.09797998 -16.16192883 34.92891373 -16.66796875 37.09765625 C-16.84070313 36.453125 -17.0134375 35.80859375 -17.19140625 35.14453125 C-18.59779503 32.69319743 -18.59779503 32.69319743 -22.14453125 32.48828125 C-23.52654175 32.42183844 -24.90964685 32.37573105 -26.29296875 32.34765625 C-27.35257813 32.30318359 -27.35257813 32.30318359 -28.43359375 32.2578125 C-30.17776922 32.18710268 -31.92287702 32.1401159 -33.66796875 32.09765625 C-34.32796875 30.11765625 -34.98796875 28.13765625 -35.66796875 26.09765625 C-34.67796875 25.76765625 -33.68796875 25.43765625 -32.66796875 25.09765625 C-32.33796875 24.43765625 -32.00796875 23.77765625 -31.66796875 23.09765625 C-30.67796875 23.75765625 -29.68796875 24.41765625 -28.66796875 25.09765625 C-28.66796875 24.43765625 -28.66796875 23.77765625 -28.66796875 23.09765625 C-27.05060616 21.70492735 -25.37546855 20.3782811 -23.66796875 19.09765625 C-22.90484375 18.52015625 -22.14171875 17.94265625 -21.35546875 17.34765625 C-20.79859375 16.93515625 -20.24171875 16.52265625 -19.66796875 16.09765625 C-19.99796875 14.77765625 -20.32796875 13.45765625 -20.66796875 12.09765625 C-20.00796875 11.76765625 -19.34796875 11.43765625 -18.66796875 11.09765625 C-18.00796875 11.42765625 -17.34796875 11.75765625 -16.66796875 12.09765625 C-16.54421875 11.29328125 -16.42046875 10.48890625 -16.29296875 9.66015625 C-15.98359375 8.39171875 -15.98359375 8.39171875 -15.66796875 7.09765625 C-15.00796875 6.76765625 -14.34796875 6.43765625 -13.66796875 6.09765625 C-12.53446341 4.08095798 -12.53446341 4.08095798 -11.66796875 2.09765625 C-11.66796875 3.41765625 -11.66796875 4.73765625 -11.66796875 6.09765625 C-9.49687378 5.2704648 -9.49687378 5.2704648 -8.73046875 3.09765625 C-6.83954667 -0.46172649 -3.62550544 -0.02309239 0 0 Z " fill="#655CFE" transform="translate(77.66796875,53.90234375)"/>
<path d="M0 0 C1.06605469 0.00644531 2.13210937 0.01289062 3.23046875 0.01953125 C5.8125 0.1875 5.8125 0.1875 6.8125 1.1875 C6.89998207 3.11417507 6.91947334 5.04401861 6.91015625 6.97265625 C6.90693359 8.14248047 6.90371094 9.31230469 6.90039062 10.51757812 C6.89201172 11.74927734 6.88363281 12.98097656 6.875 14.25 C6.87048828 15.48556641 6.86597656 16.72113281 6.86132812 17.99414062 C6.84949608 21.05864117 6.83301173 24.12304721 6.8125 27.1875 C8.7925 27.1875 10.7725 27.1875 12.8125 27.1875 C14.6809361 31.03428022 14.86645731 33.0770665 13.8125 37.1875 C13.8125 38.5075 13.8125 39.8275 13.8125 41.1875 C13.1525 41.8475 12.4925 42.5075 11.8125 43.1875 C10.8225 42.8575 9.8325 42.5275 8.8125 42.1875 C8.1525 43.5075 7.4925 44.8275 6.8125 46.1875 C4.8325 46.1875 2.8525 46.1875 0.8125 46.1875 C0.1525 44.8675 -0.5075 43.5475 -1.1875 42.1875 C-3.1675 42.6825 -3.1675 42.6825 -5.1875 43.1875 C-6.94812164 39.86188135 -7.29534228 38.59576005 -6.3125 34.875 C-5.94125 33.988125 -5.57 33.10125 -5.1875 32.1875 C-5.8475 32.1875 -6.5075 32.1875 -7.1875 32.1875 C-7.1875 31.5275 -7.1875 30.8675 -7.1875 30.1875 C-12.4675 30.1875 -17.7475 30.1875 -23.1875 30.1875 C-23.1875 25.5675 -23.1875 20.9475 -23.1875 16.1875 C-16.7525 15.6925 -16.7525 15.6925 -10.1875 15.1875 C-10.1875 17.85416667 -10.1875 20.52083333 -10.1875 23.1875 C-9.1975 23.8475 -8.2075 24.5075 -7.1875 25.1875 C-6.8575 24.1975 -6.5275 23.2075 -6.1875 22.1875 C-5.5275 22.1875 -4.8675 22.1875 -4.1875 22.1875 C-4.1875 21.5275 -4.1875 20.8675 -4.1875 20.1875 C-4.8475 20.1875 -5.5075 20.1875 -6.1875 20.1875 C-6.5175 18.2075 -6.8475 16.2275 -7.1875 14.1875 C-2.8975 14.1875 1.3925 14.1875 5.8125 14.1875 C5.4825 13.1975 5.1525 12.2075 4.8125 11.1875 C4.049375 11.105 3.28625 11.0225 2.5 10.9375 C-0.1875 10.1875 -0.1875 10.1875 -1.5625 8.125 C-2.09875 7.485625 -2.635 6.84625 -3.1875 6.1875 C-6.81313814 5.85369186 -6.81313814 5.85369186 -10.1875 6.1875 C-10.1875 4.8675 -10.1875 3.5475 -10.1875 2.1875 C-6.73589849 0.07308067 -4.00717844 -0.05368936 0 0 Z M-1.1875 32.1875 C-1.5508156 35.02136167 -1.5443671 36.59272151 -0.0625 39.0625 C2.73401052 40.74040631 4.74940532 39.93625648 7.8125 39.1875 C8.48923447 35.78429066 8.48923447 35.78429066 8.8125 32.1875 C6.92749729 29.87186913 6.92749729 29.87186913 3.8125 29.9375 C0.69750271 29.87186913 0.69750271 29.87186913 -1.1875 32.1875 Z " fill="#36DDC4" transform="translate(128.1875,32.8125)"/>
<path d="M0 0 C0 0.99 0 1.98 0 3 C0.66 3 1.32 3 2 3 C2 4.65 2 6.3 2 8 C1.030625 8.28875 0.06125 8.5775 -0.9375 8.875 C-4.10664203 9.64214682 -4.10664203 9.64214682 -5 12 C-5.0689472 13.37342831 -5.08467708 14.75002102 -5.0625 16.125 C-5.041875 17.40375 -5.02125 18.6825 -5 20 C1.88824069 22.40990104 1.88824069 22.40990104 9 24 C9.33 25.65 9.66 27.3 10 29 C10.66 28.67 11.32 28.34 12 28 C13.81171098 27.84693099 15.6283794 27.75053339 17.4453125 27.68359375 C18.52167969 27.64169922 19.59804688 27.59980469 20.70703125 27.55664062 C21.83496094 27.51732422 22.96289062 27.47800781 24.125 27.4375 C25.26066406 27.39431641 26.39632812 27.35113281 27.56640625 27.30664062 C30.37747768 27.2003396 33.18863945 27.09830595 36 27 C35.67 27.66 35.34 28.32 35 29 C32.35139573 29.59355614 29.70802678 29.74209269 27 30 C27 30.66 27 31.32 27 32 C41.19 32 55.38 32 70 32 C69.67 31.34 69.34 30.68 69 30 C67.845 29.835 66.69 29.67 65.5 29.5 C64.345 29.335 63.19 29.17 62 29 C61.505 28.01 61.505 28.01 61 27 C66.45769811 26.88861841 71.61509359 27.08342019 77 28 C77 30.64 77 33.28 77 36 C69.71409984 36.04682155 62.42823335 36.08211748 55.14221191 36.10362434 C51.75718789 36.11395864 48.37226851 36.12792229 44.98730469 36.15087891 C6.5625541 36.39227608 6.5625541 36.39227608 -1 32 C-0.67 31.34 -0.34 30.68 0 30 C0.66 30 1.32 30 2 30 C2 29.01 2 28.02 2 27 C0.02 27 -1.96 27 -4 27 C-4.33 27.66 -4.66 28.32 -5 29 C-7.88575819 28.60196439 -8.82189513 28.20990931 -10.75 25.9375 C-11.1625 25.298125 -11.575 24.65875 -12 24 C-11.34 23.01 -10.68 22.02 -10 21 C-10.79117904 19.00016466 -10.79117904 19.00016466 -12 17 C-12.99 16.67 -13.98 16.34 -15 16 C-14.67 13.69 -14.34 11.38 -14 9 C-12.02 8.34 -10.04 7.68 -8 7 C-8 5.02 -8 3.04 -8 1 C-3.375 -1.125 -3.375 -1.125 0 0 Z " fill="#EAEBF2" transform="translate(24,89)"/>
<path d="M0 0 C1.32 0.66 2.64 1.32 4 2 C2.66666667 3.33333333 1.33333333 4.66666667 0 6 C-0.6425235 8.06874034 -0.6425235 8.06874034 -1 10 C-1.66 10 -2.32 10 -3 10 C-3 10.99 -3 11.98 -3 13 C-2.01 13 -1.02 13 0 13 C-0.39595843 14.48484412 -0.81750706 15.9628831 -1.25 17.4375 C-1.48203125 18.26121094 -1.7140625 19.08492187 -1.953125 19.93359375 C-3 22 -3 22 -5.109375 22.78515625 C-5.73328125 22.85605469 -6.3571875 22.92695312 -7 23 C-7 23.99 -7 24.98 -7 26 C-8.98 26.99 -8.98 26.99 -11 28 C-11 28.66 -11 29.32 -11 30 C-12.65 30.33 -14.3 30.66 -16 31 C-15.67 31.99 -15.34 32.98 -15 34 C-5.43 34.33 4.14 34.66 14 35 C14 36.65 14 38.3 14 40 C0.47 40 -13.06 40 -27 40 C-27 25 -27 25 -23 21 C-21.33333333 20.33333333 -19.66666667 19.66666667 -18 19 C-17.34 18.34 -16.68 17.68 -16 17 C-16.33 16.34 -16.66 15.68 -17 15 C-15 13 -15 13 -13.125 12.25 C-10.73137877 11.05412431 -10.73137877 11.05412431 -9.125 8.125 C-6.7896386 4.690645 -4.52896088 3.11737653 -1 1 C-0.67 0.67 -0.34 0.34 0 0 Z " fill="#6B70FE" transform="translate(87,62)"/>
<path d="M0 0 C16.83 0 33.66 0 51 0 C51 0.66 51 1.32 51 2 C54.3 2 57.6 2 61 2 C61 3.65 61 5.3 61 7 C36.25 7 11.5 7 -14 7 C-14 8.65 -14 10.3 -14 12 C-15.32 12 -16.64 12 -18 12 C-18.36206897 5.60344828 -18.36206897 5.60344828 -16.96875 3.28125 C-13.92872758 1.30282271 -10.80886916 1.68518123 -7.3125 1.8125 C-6.61060547 1.82603516 -5.90871094 1.83957031 -5.18554688 1.85351562 C-3.45670171 1.88879818 -1.72825235 1.94260417 0 2 C0 1.34 0 0.68 0 0 Z " fill="#34ADC5" transform="translate(44,47)"/>
<path d="M0 0 C1.12019531 -0.00128906 2.24039063 -0.00257812 3.39453125 -0.00390625 C4.57402344 -0.00003906 5.75351562 0.00382812 6.96875 0.0078125 C8.73798828 0.00201172 8.73798828 0.00201172 10.54296875 -0.00390625 C12.22326172 -0.00197266 12.22326172 -0.00197266 13.9375 0 C14.97326172 0.00112793 16.00902344 0.00225586 17.07617188 0.00341797 C19.46875 0.1328125 19.46875 0.1328125 20.46875 1.1328125 C20.56861975 3.97616298 20.60752881 6.78978413 20.59375 9.6328125 C20.59955078 10.82970703 20.59955078 10.82970703 20.60546875 12.05078125 C20.59535767 18.00620483 20.59535767 18.00620483 19.46875 19.1328125 C17.62715977 19.23240871 15.78178033 19.26361661 13.9375 19.265625 C12.81730469 19.26691406 11.69710937 19.26820312 10.54296875 19.26953125 C9.36347656 19.26566406 8.18398438 19.26179688 6.96875 19.2578125 C5.19951172 19.26361328 5.19951172 19.26361328 3.39453125 19.26953125 C1.71423828 19.26759766 1.71423828 19.26759766 0 19.265625 C-1.03576172 19.26449707 -2.07152344 19.26336914 -3.13867188 19.26220703 C-5.53125 19.1328125 -5.53125 19.1328125 -6.53125 18.1328125 C-6.63111975 15.28946202 -6.67002881 12.47584087 -6.65625 9.6328125 C-6.66011719 8.83488281 -6.66398437 8.03695312 -6.66796875 7.21484375 C-6.65573175 0.007248 -6.65573175 0.007248 0 0 Z " fill="#3FD8CD" transform="translate(39.53125,85.8671875)"/>
<path d="M0 0 C0.83265381 0.00523682 1.66530762 0.01047363 2.52319336 0.01586914 C3.33280518 0.0183667 4.14241699 0.02086426 4.9765625 0.0234375 C6.01159912 0.0325415 7.04663574 0.04164551 8.11303711 0.05102539 C11.39241211 0.07165039 14.67178711 0.09227539 18.05053711 0.11352539 C18.05053711 7.04352539 18.05053711 13.97352539 18.05053711 21.11352539 C11.12053711 21.11352539 4.19053711 21.11352539 -2.94946289 21.11352539 C-2.97008789 17.83415039 -2.99071289 14.55477539 -3.01196289 11.17602539 C-3.02106689 10.14098877 -3.0301709 9.10595215 -3.03955078 8.03955078 C-3.04329712 6.82513306 -3.04329712 6.82513306 -3.04711914 5.58618164 C-3.05235596 4.75352783 -3.05759277 3.92087402 -3.06298828 3.06298828 C-2.90876673 0.41468917 -2.64829911 0.15422155 0 0 Z " fill="#31C7DD" transform="translate(15.949462890625,58.886474609375)"/>
<path d="M0 0 C3.3 0 6.6 0 10 0 C10 1.98 10 3.96 10 6 C14.20594226 6.72795155 16.80104745 7.04973814 21 6 C22.32 8.64 23.64 11.28 25 14 C22.70858714 14.05384521 20.41681812 14.09272087 18.125 14.125 C16.21074219 14.15980469 16.21074219 14.15980469 14.2578125 14.1953125 C11 14 11 14 9 12 C3.45764755 11.42765564 3.45764755 11.42765564 -1.5 13.5 C-3.71177972 17.18629954 -3.34421275 19.73176192 -3 24 C-2.67 24.66 -2.34 25.32 -2 26 C-6.29 26 -10.58 26 -15 26 C-13.68 25.01 -12.36 24.02 -11 23 C-10.33333333 20 -10.33333333 20 -11 17 C-12.88077873 15.08743288 -12.88077873 15.08743288 -15 14 C-13.87548273 11.0280615 -12.77706209 8.66559313 -11 6 C-9.39125 6.2784375 -9.39125 6.2784375 -7.75 6.5625 C-4.59608454 6.9304568 -2.90181508 7.04465343 0 6 C0 4.02 0 2.04 0 0 Z " fill="#E8EAF1" transform="translate(98,19)"/>
<path d="M0 0 C1.32 0 2.64 0 4 0 C4 6.6 4 13.2 4 20 C6.31 20 8.62 20 11 20 C12 21 12 21 12.11352539 22.94946289 C12.10828857 23.7821167 12.10305176 24.61477051 12.09765625 25.47265625 C12.09443359 26.37177734 12.09121094 27.27089844 12.08789062 28.19726562 C12.07951172 29.14279297 12.07113281 30.08832031 12.0625 31.0625 C12.05798828 32.01189453 12.05347656 32.96128906 12.04882812 33.93945312 C12.0370011 36.29303065 12.02052025 38.64648477 12 41 C11.34 41 10.68 41 10 41 C9.67 41.66 9.34 42.32 9 43 C7.39274365 39.78548731 7.94251815 36.56387464 8 33 C4.37 33 0.74 33 -3 33 C-3.495 31.515 -3.495 31.515 -4 30 C-3.34 30 -2.68 30 -2 30 C-1.34 28.68 -0.68 27.36 0 26 C-1.65 26 -3.3 26 -5 26 C-5.33 26.66 -5.66 27.32 -6 28 C-6.66 28 -7.32 28 -8 28 C-8 28.66 -8 29.32 -8 30 C-8.99 30 -9.98 30 -11 30 C-11.66 31.32 -12.32 32.64 -13 34 C-13.19456705 32.04235617 -13.38044247 30.08384679 -13.5625 28.125 C-13.71912109 26.48917969 -13.71912109 26.48917969 -13.87890625 24.8203125 C-14 22 -14 22 -13 20 C-8.71 20 -4.42 20 0 20 C0 13.4 0 6.8 0 0 Z " fill="#5E4DF9" transform="translate(115,63)"/>
<path d="M0 0 C1.58206057 0.00667536 3.16410534 0.0186375 4.74609375 0.03515625 C5.55240234 0.03966797 6.35871094 0.04417969 7.18945312 0.04882812 C9.18753131 0.06065107 11.18557158 0.07858711 13.18359375 0.09765625 C13.21043687 2.91021906 13.23035563 5.72252866 13.24609375 8.53515625 C13.25447266 9.33759766 13.26285156 10.14003906 13.27148438 10.96679688 C13.28010805 13.01060846 13.23587525 15.05449527 13.18359375 17.09765625 C11.36243372 18.91881628 8.87687611 18.23000705 6.45703125 18.234375 C5.70679687 18.23050781 4.9565625 18.22664063 4.18359375 18.22265625 C3.05824219 18.22845703 3.05824219 18.22845703 1.91015625 18.234375 C-3.68979572 18.22426678 -3.68979572 18.22426678 -4.81640625 17.09765625 C-4.91621839 14.42034245 -4.955205 11.7746145 -4.94140625 9.09765625 C-4.94527344 8.34742187 -4.94914062 7.5971875 -4.953125 6.82421875 C-4.94103514 0.12643386 -4.94103514 0.12643386 0 0 Z " fill="#3DD0E3" transform="translate(109.81640625,95.90234375)"/>
<path d="M0 0 C11.22 0 22.44 0 34 0 C31.30894369 2.69105631 29.05961254 3.80286278 25.3125 4.5 C24.549375 4.665 23.78625 4.83 23 5 C22.67 5.66 22.34 6.32 22 7 C21.01 7.33 20.02 7.66 19 8 C17.41666667 9.41666667 17.41666667 9.41666667 16 11 C15.34 11.66 14.68 12.32 14 13 C13.67 13.66 13.34 14.32 13 15 C12.01 15.33 11.02 15.66 10 16 C9.61781233 17.65614657 9.28604898 19.32457024 9 21 C9.33 21.33 9.66 21.66 10 22 C10.33 21.01 10.66 20.02 11 19 C11.66 19.66 12.32 20.32 13 21 C12.34 21 11.68 21 11 21 C11 21.66 11 22.32 11 23 C9.02 23.66 7.04 24.32 5 25 C4.67 18.4 4.34 11.8 4 5 C2.68 5 1.36 5 0 5 C0 3.35 0 1.7 0 0 Z " fill="#5B3DFF" transform="translate(30,54)"/>
<path d="M0 0 C1.32 0 2.64 0 4 0 C4 6.6 4 13.2 4 20 C-4.25 20 -12.5 20 -21 20 C-21.1953125 9.2578125 -21.1953125 9.2578125 -21 6 C-20.34 5.34 -19.68 4.68 -19 4 C-18.34 5.65 -17.68 7.3 -17 9 C-11.72 9 -6.44 9 -1 9 C-0.67 6.03 -0.34 3.06 0 0 Z " fill="#7285FE" transform="translate(123,104)"/>
<path d="M0 0 C3.96 0 7.92 0 12 0 C12 2.97 12 5.94 12 9 C12.99 9.33 13.98 9.66 15 10 C14.34 10.66 13.68 11.32 13 12 C12.01 12 11.02 12 10 12 C9.67 12.66 9.34 13.32 9 14 C8.34 14 7.68 14 7 14 C6.566875 14.928125 6.566875 14.928125 6.125 15.875 C5 18 5 18 3 20 C1.68 20 0.36 20 -1 20 C-1.33 19.67 -1.66 19.34 -2 19 C-1.01 19.99 -0.02 20.98 1 22 C0.360625 22.268125 -0.27875 22.53625 -0.9375 22.8125 C-3.33131686 23.88667752 -3.33131686 23.88667752 -4 27 C-4.99 27 -5.98 27 -7 27 C-6.67 25.02 -6.34 23.04 -6 21 C-6.99 21 -7.98 21 -9 21 C-8.56089921 16.16989127 -7.57142007 14.22579877 -4 11 C-4 10.34 -4 9.68 -4 9 C-3.68521554 7.66216607 -3.35412344 6.32796291 -3 5 C-2.34 5 -1.68 5 -1 5 C-0.67 3.35 -0.34 1.7 0 0 Z " fill="#6B73FE" transform="translate(93,54)"/>
<path d="M0 0 C3.96 0 7.92 0 12 0 C11.01 0.495 11.01 0.495 10 1 C10 2.32 10 3.64 10 5 C8.68 5 7.36 5 6 5 C5.9175 5.763125 5.835 6.52625 5.75 7.3125 C4.84730645 10.54715191 3.86406539 11.35099265 1 13 C0.34 13 -0.32 13 -1 13 C-1 13.99 -1 14.98 -1 16 C-5.95 16 -10.9 16 -16 16 C-16 11.38 -16 6.76 -16 2 C-9.565 1.505 -9.565 1.505 -3 1 C-3 3.66666667 -3 6.33333333 -3 9 C-2.01 9.66 -1.02 10.32 0 11 C0.33 10.01 0.66 9.02 1 8 C1.66 8 2.32 8 3 8 C3 7.34 3 6.68 3 6 C2.34 6 1.68 6 1 6 C0.67 4.02 0.34 2.04 0 0 Z " fill="#36D6CE" transform="translate(121,47)"/>
<path d="M0 0 C0.33 0 0.66 0 1 0 C1.33 5.61 1.66 11.22 2 17 C3.32 17 4.64 17 6 17 C7.25664978 19.90600261 8 21.79604584 8 25 C4.04 25.495 4.04 25.495 0 26 C-0.33 30.95 -0.66 35.9 -1 41 C-3.31 41 -5.62 41 -8 41 C-8 33.74 -8 26.48 -8 19 C-5.36 19 -2.72 19 0 19 C0 12.73 0 6.46 0 0 Z " fill="#5D52FC" transform="translate(34,61)"/>
<path d="M0 0 C1.12019531 -0.00128906 2.24039063 -0.00257812 3.39453125 -0.00390625 C4.57402344 -0.00003906 5.75351562 0.00382812 6.96875 0.0078125 C8.73798828 0.00201172 8.73798828 0.00201172 10.54296875 -0.00390625 C12.22326172 -0.00197266 12.22326172 -0.00197266 13.9375 0 C14.97326172 0.00112793 16.00902344 0.00225586 17.07617188 0.00341797 C19.46875 0.1328125 19.46875 0.1328125 20.46875 1.1328125 C20.84375 3.4453125 20.84375 3.4453125 20.46875 6.1328125 C17.96875 8.4453125 17.96875 8.4453125 15.46875 10.1328125 C11.46875 5.3828125 11.46875 5.3828125 11.46875 3.1328125 C10.14875 3.1328125 8.82875 3.1328125 7.46875 3.1328125 C7.13875 4.7828125 6.80875 6.4328125 6.46875 8.1328125 C5.47875 8.1328125 4.48875 8.1328125 3.46875 8.1328125 C3.46875 7.1428125 3.46875 6.1528125 3.46875 5.1328125 C2.80875 5.1328125 2.14875 5.1328125 1.46875 5.1328125 C1.13875 6.1228125 0.80875 7.1128125 0.46875 8.1328125 C-0.19125 8.7928125 -0.85125 9.4528125 -1.53125 10.1328125 C-0.70625 10.7515625 0.11875 11.3703125 0.96875 12.0078125 C1.79375 12.7090625 2.61875 13.4103125 3.46875 14.1328125 C3.46875 14.7928125 3.46875 15.4528125 3.46875 16.1328125 C0.16875 16.1328125 -3.13125 16.1328125 -6.53125 16.1328125 C-6.55810095 13.65357449 -6.57801547 11.1746241 -6.59375 8.6953125 C-6.60631836 7.63473633 -6.60631836 7.63473633 -6.61914062 6.55273438 C-6.62778588 4.74587691 -6.58345011 2.93893647 -6.53125 1.1328125 C-4.78579395 -0.61264355 -2.37000783 0.0025809 0 0 Z " fill="#44AAE5" transform="translate(39.53125,85.8671875)"/>
<path d="M0 0 C13.53 0 27.06 0 41 0 C41 1.65 41 3.3 41 5 C27.47 5 13.94 5 0 5 C0 3.35 0 1.7 0 0 Z " fill="#3C3D89" transform="translate(60,97)"/>
<path d="M0 0 C1.98 0 3.96 0 6 0 C7.8684361 3.84678022 8.05395731 5.8895665 7 10 C7 11.32 7 12.64 7 14 C6.34 14.66 5.68 15.32 5 16 C4.01 15.67 3.02 15.34 2 15 C1.34 16.32 0.68 17.64 0 19 C-1.98 19 -3.96 19 -6 19 C-6.66 17.68 -7.32 16.36 -8 15 C-9.32 15.33 -10.64 15.66 -12 16 C-13.76062164 12.67438135 -14.10784228 11.40826005 -13.125 7.6875 C-12.568125 6.3571875 -12.568125 6.3571875 -12 5 C-12.66 5 -13.32 5 -14 5 C-14 4.34 -14 3.68 -14 3 C-11.36 3 -8.72 3 -6 3 C-6.20625 4.11375 -6.4125 5.2275 -6.625 6.375 C-6.74875 7.57125 -6.8725 8.7675 -7 10 C-5.10244856 12.34973818 -5.10244856 12.34973818 -1.875 12.125 C-0.451875 12.063125 -0.451875 12.063125 1 12 C1.29562367 6.67829506 1.29562367 6.67829506 -1 2 C-0.67 1.34 -0.34 0.68 0 0 Z " fill="#EAEBF2" transform="translate(135,60)"/>
<path d="M0 0 C2.12438339 -0.08078641 4.2496323 -0.13909141 6.375 -0.1875 C7.55835937 -0.22230469 8.74171875 -0.25710937 9.9609375 -0.29296875 C11.46527344 -0.14794922 11.46527344 -0.14794922 13 0 C13.66 0.99 14.32 1.98 15 3 C14.34 3 13.68 3 13 3 C13 3.66 13 4.32 13 5 C19.27 5 25.54 5 32 5 C32.495 6.485 32.495 6.485 33 8 C18.81 8 4.62 8 -10 8 C-10 7.34 -10 6.68 -10 6 C-7.98177083 5.609375 -5.96354167 5.21875 -3.9453125 4.828125 C-1.80995329 4.14287884 -1.80995329 4.14287884 -0.7421875 1.921875 C-0.49726562 1.28765625 -0.25234375 0.6534375 0 0 Z " fill="#A3C6FE" transform="translate(61,113)"/>
<path d="M0 0 C1.08667969 0.02707031 2.17335938 0.05414063 3.29296875 0.08203125 C4.54013672 0.13423828 4.54013672 0.13423828 5.8125 0.1875 C6.1425 1.1775 6.4725 2.1675 6.8125 3.1875 C24.9625 3.1875 43.1125 3.1875 61.8125 3.1875 C62.1425 2.1975 62.4725 1.2075 62.8125 0.1875 C65.1225 0.1875 67.4325 0.1875 69.8125 0.1875 C69.8125 1.8375 69.8125 3.4875 69.8125 5.1875 C45.0625 5.1875 20.3125 5.1875 -5.1875 5.1875 C-5.1875 6.8375 -5.1875 8.4875 -5.1875 10.1875 C-6.5075 10.1875 -7.8275 10.1875 -9.1875 10.1875 C-9.55218886 3.74466353 -9.55218886 3.74466353 -8.0625 1.46875 C-5.3504604 -0.38447706 -3.24426436 -0.10465369 0 0 Z " fill="#3C3D89" transform="translate(35.1875,48.8125)"/>
<path d="M0 0 C2.625 0.25 2.625 0.25 4.4375 1.625 C5.625 3.25 5.625 3.25 5.625 5.25 C7.275 5.25 8.925 5.25 10.625 5.25 C10.955 6.57 11.285 7.89 11.625 9.25 C5.685 9.745 5.685 9.745 -0.375 10.25 C-0.375 11.9 -0.375 13.55 -0.375 15.25 C0.285 15.25 0.945 15.25 1.625 15.25 C1.625 17.25 1.625 17.25 0.125 18.875 C-0.37 19.32875 -0.865 19.7825 -1.375 20.25 C-5.25 18.5 -5.25 18.5 -6.375 16.25 C-5.715 16.25 -5.055 16.25 -4.375 16.25 C-5.03085189 12.64007621 -5.03085189 12.64007621 -6.375 9.25 C-8.025 9.25 -9.675 9.25 -11.375 9.25 C-11.045 7.93 -10.715 6.61 -10.375 5.25 C-8.725 5.25 -7.075 5.25 -5.375 5.25 C-5.065625 4.610625 -4.75625 3.97125 -4.4375 3.3125 C-2.88764755 0.3039629 -2.88764755 0.3039629 0 0 Z " fill="#F9FDFD" transform="translate(122.375,37.75)"/>
<path d="M0 0 C1.32 0 2.64 0 4 0 C4 6.6 4 13.2 4 20 C6.31 20 8.62 20 11 20 C11.33 20.99 11.66 21.98 12 23 C3.19039858 24.30512614 -5.19039858 24.30512614 -14 23 C-13.505 21.515 -13.505 21.515 -13 20 C-8.71 20 -4.42 20 0 20 C0 13.4 0 6.8 0 0 Z " fill="#4C4CA1" transform="translate(115,63)"/>
<path d="M0 0 C1.98 0 3.96 0 6 0 C6.33 0.66 6.66 1.32 7 2 C10.27555608 2.47001033 10.27555608 2.47001033 14.0625 2.625 C15.99802734 2.73714844 15.99802734 2.73714844 17.97265625 2.8515625 C19.47119141 2.92503906 19.47119141 2.92503906 21 3 C20.1875 5.9375 20.1875 5.9375 19 9 C14.67681947 10.44106018 11.44323354 11.13600779 6.875 11.125 C5.79992188 11.12757812 4.72484375 11.13015625 3.6171875 11.1328125 C1 11 1 11 0 10 C-0.07205511 8.31391034 -0.08386068 6.62499341 -0.0625 4.9375 C-0.05347656 4.01839844 -0.04445313 3.09929687 -0.03515625 2.15234375 C-0.02355469 1.44207031 -0.01195313 0.73179688 0 0 Z " fill="#C5DBFE" transform="translate(27,102)"/>
<path d="M0 0 C16.83 0 33.66 0 51 0 C51 0.99 51 1.98 51 3 C34.17 3 17.34 3 0 3 C0 2.01 0 1.02 0 0 Z " fill="#3C458F" transform="translate(44,47)"/>
<path d="M0 0 C1.31871094 -0.01224609 2.63742188 -0.02449219 3.99609375 -0.03710938 C5.90068359 -0.04000977 5.90068359 -0.04000977 7.84375 -0.04296875 C9.00068359 -0.04707764 10.15761719 -0.05118652 11.34960938 -0.05541992 C14.47736509 0.18575467 16.680892 0.85423629 19.5 2.1875 C18.5 4.1875 18.5 4.1875 16.84521484 4.80200195 C11.99200924 5.59975457 7.04404055 5.37340312 2.13769531 5.37280273 C0.13863013 5.37498512 -1.86039532 5.39349143 -3.859375 5.41210938 C-5.13039063 5.41404297 -6.40140625 5.41597656 -7.7109375 5.41796875 C-8.86899902 5.42207764 -10.02706055 5.42618652 -11.22021484 5.43041992 C-14.61310954 5.17912245 -17.33332989 4.39923908 -20.5 3.1875 C-20.17 2.5275 -19.84 1.8675 -19.5 1.1875 C-13.23640183 -0.60566158 -6.45139424 0.00315317 0 0 Z " fill="#EAEBF2" transform="translate(114.5,125.8125)"/>
<path d="M0 0 C0.83265381 0.00523682 1.66530762 0.01047363 2.52319336 0.01586914 C3.42231445 0.0190918 4.32143555 0.02231445 5.24780273 0.02563477 C6.66609375 0.03820312 6.66609375 0.03820312 8.11303711 0.05102539 C9.06243164 0.05553711 10.01182617 0.06004883 10.98999023 0.06469727 C13.34356776 0.07652429 15.69702188 0.09300514 18.05053711 0.11352539 C18.05053711 2.09352539 18.05053711 4.07352539 18.05053711 6.11352539 C14.76909192 7.75424798 11.15263715 7.25626973 7.55053711 7.23852539 C6.76549805 7.24239258 5.98045898 7.24625977 5.17163086 7.25024414 C-0.69615502 7.24017933 -0.69615502 7.24017933 -2.94946289 6.11352539 C-2.99218389 4.44740634 -2.99010121 2.77969654 -2.94946289 1.11352539 C-1.94946289 0.11352539 -1.94946289 0.11352539 0 0 Z " fill="#37A3BD" transform="translate(15.949462890625,31.886474609375)"/>
<path d="M0 0 C1.06605469 0.00644531 2.13210937 0.01289062 3.23046875 0.01953125 C5.8125 0.1875 5.8125 0.1875 6.8125 1.1875 C6.88508946 3.37389453 6.89623783 5.56250389 6.875 7.75 C6.86597656 8.94753906 6.85695312 10.14507812 6.84765625 11.37890625 C6.83605469 12.30574219 6.82445312 13.23257813 6.8125 14.1875 C6.1525 13.1975 5.4925 12.2075 4.8125 11.1875 C4.008125 11.043125 3.20375 10.89875 2.375 10.75 C-0.1875 10.1875 -0.1875 10.1875 -1.5625 8.125 C-2.09875 7.485625 -2.635 6.84625 -3.1875 6.1875 C-6.81313814 5.85369186 -6.81313814 5.85369186 -10.1875 6.1875 C-10.1875 4.8675 -10.1875 3.5475 -10.1875 2.1875 C-6.73589849 0.07308067 -4.00717844 -0.05368936 0 0 Z " fill="#3AD5D1" transform="translate(128.1875,32.8125)"/>
<path d="M0 0 C0.99 0 1.98 0 3 0 C3.33 0.66 3.66 1.32 4 2 C6.02463255 2.65213292 6.02463255 2.65213292 8 3 C8.3125 6.3125 8.3125 6.3125 8 10 C5.15739513 12.38164192 3.71594733 13 0 13 C0 12.34 0 11.68 0 11 C-1.65 10.67 -3.3 10.34 -5 10 C-5 7.69 -5 5.38 -5 3 C-3.35 2.67 -1.7 2.34 0 2 C0 1.34 0 0.68 0 0 Z " fill="#F2FAFC" transform="translate(22,63)"/>
<path d="M0 0 C0.5 2.6875 0.5 2.6875 0 6 C-2.99711514 8.58655142 -6.47939593 10.23969796 -10 12 C-10 12.66 -10 13.32 -10 14 C-10.99 14.33 -11.98 14.66 -13 15 C-13 10.38 -13 5.76 -13 1 C-1.125 0 -1.125 0 0 0 Z " fill="#3FBCDB" transform="translate(118,48)"/>
<path d="M0 0 C0.02685938 2.14576637 0.04633088 4.29162645 0.0625 6.4375 C0.07410156 7.63246094 0.08570312 8.82742187 0.09765625 10.05859375 C0 13 0 13 -1 14 C-3.01964199 14.07244053 -5.04167124 14.08377188 -7.0625 14.0625 C-8.71958984 14.04896484 -8.71958984 14.04896484 -10.41015625 14.03515625 C-11.26480469 14.02355469 -12.11945313 14.01195313 -13 14 C-13.33 13.34 -13.66 12.68 -14 12 C-11.92490495 8.88735743 -9.91983264 7.29415422 -7 5 C-5.9171875 3.9171875 -5.9171875 3.9171875 -4.8125 2.8125 C-2 0 -2 0 0 0 Z " fill="#38D9D4" transform="translate(123,100)"/>
<path d="M0 0 C0.66 0.33 1.32 0.66 2 1 C2.33 2.32 2.66 3.64 3 5 C5.97 5.33 8.94 5.66 12 6 C11.67 7.98 11.34 9.96 11 12 C9.35 12 7.7 12 6 12 C6.33 12.66 6.66 13.32 7 14 C6.01 14 5.02 14 4 14 C3.67 14.66 3.34 15.32 3 16 C1.68 16 0.36 16 -1 16 C-1.02692484 13.70839681 -1.04636124 11.41670454 -1.0625 9.125 C-1.07410156 7.84882812 -1.08570312 6.57265625 -1.09765625 5.2578125 C-1 2 -1 2 0 0 Z " fill="#6C73FE" transform="translate(103,108)"/>
<path d="M0 0 C2.97 0.495 2.97 0.495 6 1 C6 1.66 6 2.32 6 3 C6.92232422 2.89171875 6.92232422 2.89171875 7.86328125 2.78125 C9.07564453 2.64203125 9.07564453 2.64203125 10.3125 2.5 C11.11300781 2.4071875 11.91351563 2.314375 12.73828125 2.21875 C15 2 15 2 18 2 C18 3.65 18 5.3 18 7 C11.07 7 4.14 7 -3 7 C-2 3 -2 3 0 0 Z " fill="#37D2D3" transform="translate(16,73)"/>
<path d="M0 0 C1.32 0 2.64 0 4 0 C4 5.61 4 11.22 4 17 C4.99 17 5.98 17 7 17 C7 18.65 7 20.3 7 22 C4.69 22 2.38 22 0 22 C0 14.74 0 7.48 0 0 Z " fill="#41448E" transform="translate(26,80)"/>
<path d="M0 0 C2.64 0 5.28 0 8 0 C8 5.28 8 10.56 8 16 C4.71023192 17.09658936 3.28696233 16.79953138 0 16 C0.99 15.34 1.98 14.68 3 14 C3.25015873 10.41642759 3.25015873 10.41642759 3 7 C2.01 7 1.02 7 0 7 C0 4.69 0 2.38 0 0 Z " fill="#3CD1CE" transform="translate(26,59)"/>
<path d="M0 0 C-0.66 0 -1.32 0 -2 0 C-1.319375 0.928125 -0.63875 1.85625 0.0625 2.8125 C0.701875 3.864375 1.34125 4.91625 2 6 C1.67 6.99 1.34 7.98 1 9 C0.01 9.33 -0.98 9.66 -2 10 C-1.67 8.68 -1.34 7.36 -1 6 C-1.99 5.34 -2.98 4.68 -4 4 C-4.99 6.97 -5.98 9.94 -7 13 C-7.66 13 -8.32 13 -9 13 C-9 12.34 -9 11.68 -9 11 C-9.598125 10.9175 -10.19625 10.835 -10.8125 10.75 C-13.5966296 9.79544128 -14.43311142 8.42867729 -16 6 C-14.71034824 4.62437146 -13.37310707 3.29233607 -12 2 C-11.34 2 -10.68 2 -10 2 C-10 2.99 -10 3.98 -10 5 C-9.01 5 -8.02 5 -7 5 C-6.87625 4.195625 -6.7525 3.39125 -6.625 2.5625 C-6.41875 1.716875 -6.2125 0.87125 -6 0 C-3.50907189 -1.24546405 -2.58919267 -0.7767578 0 0 Z " fill="#DEF4F7" transform="translate(53,89)"/>
<path d="M0 0 C2.31 0 4.62 0 7 0 C7 1.65 7 3.3 7 5 C-13.13 5 -33.26 5 -54 5 C-54 4.67 -54 4.34 -54 4 C-36.51 3.67 -19.02 3.34 -1 3 C-0.67 2.01 -0.34 1.02 0 0 Z " fill="#3B599B" transform="translate(98,49)"/>
<path d="M0 0 C1.93166016 0.01740234 1.93166016 0.01740234 3.90234375 0.03515625 C5.19269531 0.04417969 6.48304687 0.05320312 7.8125 0.0625 C8.81152344 0.07410156 9.81054688 0.08570312 10.83984375 0.09765625 C9.90011719 0.78794922 9.90011719 0.78794922 8.94140625 1.4921875 C6.8353093 3.01718874 6.8353093 3.01718874 5.21484375 4.78515625 C3.83984375 6.09765625 3.83984375 6.09765625 1.83984375 6.09765625 C1.83984375 6.75765625 1.83984375 7.41765625 1.83984375 8.09765625 C0.8613418 9.11870176 -0.13996052 10.11826835 -1.16015625 11.09765625 C-1.49015625 11.75765625 -1.82015625 12.41765625 -2.16015625 13.09765625 C-2.82015625 13.09765625 -3.48015625 13.09765625 -4.16015625 13.09765625 C-4.18702178 11.11856227 -4.20649 9.13936654 -4.22265625 7.16015625 C-4.23425781 6.05800781 -4.24585937 4.95585938 -4.2578125 3.8203125 C-4.11749553 -0.09172464 -3.97435676 0.12281696 0 0 Z " fill="#40C2EE" transform="translate(109.16015625,95.90234375)"/>
<path d="M0 0 C13.53 0 27.06 0 41 0 C41.495 0.99 41.495 0.99 42 2 C28.8 2 15.6 2 2 2 C2 2.66 2 3.32 2 4 C1.01 4 0.02 4 -1 4 C-0.67 2.68 -0.34 1.36 0 0 Z " fill="#33D0D5" transform="translate(42,45)"/>
<path d="M0 0 C1 1 1 1 1.375 3.3125 C1 6 1 6 -1.5 8.3125 C-2.325 8.869375 -3.15 9.42625 -4 10 C-8 5.25 -8 5.25 -8 3 C-9.32 3 -10.64 3 -12 3 C-12.33 4.65 -12.66 6.3 -13 8 C-13.99 8 -14.98 8 -16 8 C-16.625 6.125 -16.625 6.125 -17 4 C-12.45105375 -0.54894625 -6.08567349 -0.5509136 0 0 Z " fill="#3FC8D7" transform="translate(59,86)"/>
<path d="M0 0 C0.66 0 1.32 0 2 0 C2 5.94 2 11.88 2 18 C1.34 18 0.68 18 0 18 C-0.33 18.66 -0.66 19.32 -1 20 C-2.60725635 16.78548731 -2.05748185 13.56387464 -2 10 C-3.65 10 -5.3 10 -7 10 C-6.401875 9.2575 -5.80375 8.515 -5.1875 7.75 C-1.82667762 4.22384255 -1.82667762 4.22384255 0 0 Z " fill="#6762FF" transform="translate(125,86)"/>
<path d="M0 0 C1.32 0 2.64 0 4 0 C4 6.6 4 13.2 4 20 C2.68 19.67 1.36 19.34 0 19 C0 12.73 0 6.46 0 0 Z " fill="#3E3E8B" transform="translate(115,63)"/>
<path d="M0 0 C0.66 0 1.32 0 2 0 C2.02686553 1.97909398 2.04633375 3.95828971 2.0625 5.9375 C2.07410156 7.03964844 2.08570313 8.14179687 2.09765625 9.27734375 C2 12 2 12 1 13 C-1.67058851 13.14115161 -4.32432238 13.04247107 -7 13 C-6.34 12.67 -5.68 12.34 -5 12 C-5.268125 11.113125 -5.53625 10.22625 -5.8125 9.3125 C-6 6 -6 6 -3.625 3.1875 C-2.325625 2.1046875 -2.325625 2.1046875 -1 1 C-0.67 0.67 -0.34 0.34 0 0 Z " fill="#37D9C5" transform="translate(58,92)"/>
<path d="M0 0 C1.67542976 0.28604898 3.34385343 0.61781233 5 1 C5.97477898 4.72188336 6.12816587 6.64248468 4.8125 10.3125 C3 13 3 13 0.88671875 13.66796875 C0.26410156 13.77753906 -0.35851562 13.88710938 -1 14 C-1.02685938 11.85423363 -1.04633088 9.70837355 -1.0625 7.5625 C-1.07410156 6.36753906 -1.08570312 5.17257813 -1.09765625 3.94140625 C-1 1 -1 1 0 0 Z " fill="#31C6DF" transform="translate(106,33)"/>
<path d="M0 0 C8.58 0 17.16 0 26 0 C25.67 0.99 25.34 1.98 25 3 C17.08 3 9.16 3 1 3 C0.67 2.01 0.34 1.02 0 0 Z " fill="#4C4CA0" transform="translate(101,124)"/>
<path d="M0 0 C7.59 0 15.18 0 23 0 C23 0.33 23 0.66 23 1 C17.06 1.495 17.06 1.495 11 2 C11 3.65 11 5.3 11 7 C11.66 7 12.32 7 13 7 C13 9 13 9 11.5 10.625 C11.005 11.07875 10.51 11.5325 10 12 C6.125 10.25 6.125 10.25 5 8 C5.66 8 6.32 8 7 8 C6.34414811 4.39007621 6.34414811 4.39007621 5 1 C3.35 1 1.7 1 0 1 C0 0.67 0 0.34 0 0 Z " fill="#90E2E5" transform="translate(111,46)"/>
<path d="M0 0 C1.75 0.75 1.75 0.75 2.75 1.75 C2.75 3.73 2.75 5.71 2.75 7.75 C-1.54 7.75 -5.83 7.75 -10.25 7.75 C-9.59 7.42 -8.93 7.09 -8.25 6.75 C-8.146875 6.13125 -8.04375 5.5125 -7.9375 4.875 C-7.25 2.75 -7.25 2.75 -4.9375 0.9375 C-2.25 -0.25 -2.25 -0.25 0 0 Z " fill="#39C6D6" transform="translate(116.25,55.25)"/>
<path d="M0 0 C7.26 0.33 14.52 0.66 22 1 C22.33 1.66 22.66 2.32 23 3 C18.37540756 4.17700048 13.92133538 4.11408412 9.1875 4.0625 C8.00510742 4.05573242 8.00510742 4.05573242 6.79882812 4.04882812 C4.86585239 4.03711312 2.93291607 4.01917998 1 4 C0.67 2.68 0.34 1.36 0 0 Z " fill="#349FC5" transform="translate(41,49)"/>
<path d="M0 0 C0.33 0 0.66 0 1 0 C1 4.29 1 8.58 1 13 C-1.64 13 -4.28 13 -7 13 C-6.75 11.125 -6.75 11.125 -6 9 C-4 7.875 -4 7.875 -2 7 C-1.67 6.34 -1.34 5.68 -1 5 C-4.63 5 -8.26 5 -12 5 C-12 4.67 -12 4.34 -12 4 C-8.37 4 -4.74 4 -1 4 C-0.67 2.68 -0.34 1.36 0 0 Z " fill="#7890FE" transform="translate(114,69)"/>
<path d="M0 0 C1.24716797 0.00322266 2.49433594 0.00644531 3.77929688 0.00976562 C5.07287109 0.01814453 6.36644531 0.02652344 7.69921875 0.03515625 C9.66858398 0.04192383 9.66858398 0.04192383 11.67773438 0.04882812 C14.91410885 0.06059676 18.15039053 0.07703865 21.38671875 0.09765625 C21.05671875 0.75765625 20.72671875 1.41765625 20.38671875 2.09765625 C19.73074707 2.11747559 19.07477539 2.13729492 18.39892578 2.15771484 C15.43610806 2.25278132 12.47401343 2.36253377 9.51171875 2.47265625 C7.96291016 2.5190625 7.96291016 2.5190625 6.3828125 2.56640625 C4.90361328 2.62441406 4.90361328 2.62441406 3.39453125 2.68359375 C2.4833252 2.71501465 1.57211914 2.74643555 0.63330078 2.77880859 C-1.81259311 2.89648136 -1.81259311 2.89648136 -3.61328125 5.09765625 C-6.34197532 5.06478042 -8.90994305 4.53367854 -11.61328125 4.09765625 C-11.61328125 3.10765625 -11.61328125 2.11765625 -11.61328125 1.09765625 C-7.68039761 0.16677716 -4.03673962 -0.0184326 0 0 Z " fill="#D9D9E8" transform="translate(106.61328125,125.90234375)"/>
<path d="M0 0 C0.886875 0.309375 1.77375 0.61875 2.6875 0.9375 C5 2 5 2 6 4 C5.360625 4.12375 4.72125 4.2475 4.0625 4.375 C3.381875 4.58125 2.70125 4.7875 2 5 C1.67 5.66 1.34 6.32 1 7 C0.34 6.34 -0.32 5.68 -1 5 C-4.58343976 4.83322718 -4.58343976 4.83322718 -8 5 C-8 3.68 -8 2.36 -8 1 C-4.88839829 -0.88918675 -3.42641043 -1.24596743 0 0 Z " fill="#35CFD7" transform="translate(126,34)"/>
<path d="M0 0 C1.39456452 0.00667256 2.78911118 0.01863093 4.18359375 0.03515625 C4.89451172 0.03966797 5.60542969 0.04417969 6.33789062 0.04882812 C8.09899388 0.06064761 9.86005411 0.07858362 11.62109375 0.09765625 C11.95109375 0.75765625 12.28109375 1.41765625 12.62109375 2.09765625 C7.67109375 2.09765625 2.72109375 2.09765625 -2.37890625 2.09765625 C-2.37890625 2.75765625 -2.37890625 3.41765625 -2.37890625 4.09765625 C0.26109375 4.09765625 2.90109375 4.09765625 5.62109375 4.09765625 C4.30109375 4.42765625 2.98109375 4.75765625 1.62109375 5.09765625 C1.62109375 5.75765625 1.62109375 6.41765625 1.62109375 7.09765625 C-1.34890625 6.60265625 -1.34890625 6.60265625 -4.37890625 6.09765625 C-4.42162725 4.4315372 -4.41954457 2.7638274 -4.37890625 1.09765625 C-3.37890625 0.09765625 -3.37890625 0.09765625 0 0 Z " fill="#33C9DD" transform="translate(17.37890625,31.90234375)"/>
<path d="M0 0 C3.63 0 7.26 0 11 0 C11 3 11 3 10 5 C6.7 5 3.4 5 0 5 C0 3.35 0 1.7 0 0 Z " fill="#34ADC5" transform="translate(105,49)"/>
<path d="M0 0 C2.31 0 4.62 0 7 0 C7.33 1.32 7.66 2.64 8 4 C7.01 4.33 6.02 4.66 5 5 C5 5.66 5 6.32 5 7 C4.01 7 3.02 7 2 7 C1.34 8.32 0.68 9.64 0 11 C0 7.37 0 3.74 0 0 Z " fill="#5936FF" transform="translate(102,86)"/>
<path d="M0 0 C2.64 0 5.28 0 8 0 C8 1.65 8 3.3 8 5 C5.09399739 6.25664978 3.20395416 7 0 7 C0 4.69 0 2.38 0 0 Z " fill="#3BB1C7" transform="translate(26,59)"/>
<path d="M0 0 C-0.33 1.32 -0.66 2.64 -1 4 C-5.95 4 -10.9 4 -16 4 C-15.67 3.01 -15.34 2.02 -15 1 C-13.06263299 0.83179449 -11.12510094 0.66548905 -9.1875 0.5 C-7.56908203 0.36078125 -7.56908203 0.36078125 -5.91796875 0.21875 C-3 0 -3 0 0 0 Z " fill="#34BEC4" transform="translate(98,49)"/>
<path d="M0 0 C1.32 0 2.64 0 4 0 C4 2.31 4 4.62 4 7 C0.04 7 -3.92 7 -8 7 C-7.67 6.34 -7.34 5.68 -7 5 C-6.01 4.690625 -5.02 4.38125 -4 4.0625 C-2.515 3.5365625 -2.515 3.5365625 -1 3 C-0.67 2.01 -0.34 1.02 0 0 Z " fill="#7895FE" transform="translate(123,117)"/>
<path d="M0 0 C2.97 0 5.94 0 9 0 C9 1.65 9 3.3 9 5 C5.04 5 1.08 5 -3 5 C-2.34 4.67 -1.68 4.34 -1 4 C-0.67 2.68 -0.34 1.36 0 0 Z " fill="#36D9C5" transform="translate(25,75)"/>
<path d="M0 0 C1.65 0.33 3.3 0.66 5 1 C4.071875 2.1446875 4.071875 2.1446875 3.125 3.3125 C0.94402948 5.99625809 0.94402948 5.99625809 -1 9 C-3.70879335 10.35439668 -6.00933268 10.06501451 -9 10 C-7 8 -7 8 -4.9375 7.0625 C-2.65434116 6.09596458 -2.65434116 6.09596458 -2 3 C-1.34 3 -0.68 3 0 3 C0 2.01 0 1.02 0 0 Z " fill="#6356FE" transform="translate(121,86)"/>
<path d="M0 0 C0 0.99 0 1.98 0 3 C0.66 3 1.32 3 2 3 C1.67 4.98 1.34 6.96 1 9 C-1.88575819 8.60196439 -2.82189513 8.20990931 -4.75 5.9375 C-5.1625 5.298125 -5.575 4.65875 -6 4 C-2.25 0 -2.25 0 0 0 Z " fill="#4FBEDB" transform="translate(43,91)"/>
<path d="M0 0 C3.36704285 -0.2295711 5.41370268 -0.33943529 8.375 1.375 C8.91125 1.91125 9.4475 2.4475 10 3 C10 3.66 10 4.32 10 5 C6.7 5 3.4 5 0 5 C0 3.35 0 1.7 0 0 Z " fill="#34AAC6" transform="translate(33,97)"/>
<path d="M0 0 C1.37478516 0.01740234 1.37478516 0.01740234 2.77734375 0.03515625 C3.69644531 0.04417969 4.61554688 0.05320312 5.5625 0.0625 C6.27277344 0.07410156 6.98304687 0.08570312 7.71484375 0.09765625 C4.71484375 2.09765625 4.71484375 2.09765625 1.71484375 2.09765625 C1.71484375 2.75765625 1.71484375 3.41765625 1.71484375 4.09765625 C0.04817708 5.76432292 -1.61848958 7.43098958 -3.28515625 9.09765625 C-3.3828125 2.9453125 -3.3828125 2.9453125 -3.28515625 1.09765625 C-2.28515625 0.09765625 -2.28515625 0.09765625 0 0 Z " fill="#45B4F5" transform="translate(108.28515625,95.90234375)"/>
<path d="M0 0 C-0.33 0.66 -0.66 1.32 -1 2 C-4.1964086 3.06546953 -6.65747276 3.07427838 -10 3 C-10.33 4.65 -10.66 6.3 -11 8 C-11.99 8 -12.98 8 -14 8 C-14.625 6.125 -14.625 6.125 -15 4 C-10.7923604 -0.2076396 -5.6868542 -0.22747417 0 0 Z " fill="#40B3DF" transform="translate(57,86)"/>
<path d="M0 0 C1.23556641 0.01740234 1.23556641 0.01740234 2.49609375 0.03515625 C3.32238281 0.04417969 4.14867187 0.05320312 5 0.0625 C5.63808594 0.07410156 6.27617188 0.08570312 6.93359375 0.09765625 C6.60359375 0.75765625 6.27359375 1.41765625 5.93359375 2.09765625 C5.12921875 2.22140625 4.32484375 2.34515625 3.49609375 2.47265625 C2.22765625 2.78203125 2.22765625 2.78203125 0.93359375 3.09765625 C-0.29168573 5.04786708 -0.29168573 5.04786708 -1.06640625 7.09765625 C-2.05640625 7.59265625 -2.05640625 7.59265625 -3.06640625 8.09765625 C-3.10882348 5.7647085 -3.10733562 3.43063058 -3.06640625 1.09765625 C-2.06640625 0.09765625 -2.06640625 0.09765625 0 0 Z " fill="#4796EB" transform="translate(36.06640625,85.90234375)"/>
<path d="M0 0 C2.31 0 4.62 0 7 0 C7 1.65 7 3.3 7 5 C4.03 5 1.06 5 -2 5 C-1.34 3.35 -0.68 1.7 0 0 Z " fill="#3C3E8A" transform="translate(98,49)"/>
<path d="M0 0 C1.07765625 0.10183594 2.1553125 0.20367187 3.265625 0.30859375 C4.08546875 0.39238281 4.9053125 0.47617188 5.75 0.5625 C5.75 1.2225 5.75 1.8825 5.75 2.5625 C0.47 2.5625 -4.81 2.5625 -10.25 2.5625 C-10.25 1.9025 -10.25 1.2425 -10.25 0.5625 C-6.70049966 -0.60056443 -3.69176052 -0.36115049 0 0 Z " fill="#99C0FE" transform="translate(68.25,118.4375)"/>
<path d="M0 0 C0 2.64 0 5.28 0 8 C-1.32 8 -2.64 8 -4 8 C-4 7.34 -4 6.68 -4 6 C-4.66 6 -5.32 6 -6 6 C-6 4 -6 4 -4.125 1.875 C-2 0 -2 0 0 0 Z " fill="#36DDC6" transform="translate(123,105)"/>
<path d="M0 0 C4.62 0 9.24 0 14 0 C14.33 1.32 14.66 2.64 15 4 C14.01 4 13.02 4 12 4 C12 3.34 12 2.68 12 2 C8.37 2 4.74 2 1 2 C0.67 1.34 0.34 0.68 0 0 Z " fill="#58D9D5" transform="translate(83,45)"/>
<path d="M0 0 C2.12472576 -0.05386629 4.24983652 -0.09273071 6.375 -0.125 C7.55835938 -0.14820313 8.74171875 -0.17140625 9.9609375 -0.1953125 C13 0 13 0 15 2 C10.71 2 6.42 2 2 2 C2 2.66 2 3.32 2 4 C1.01 4 0.02 4 -1 4 C-0.67 2.68 -0.34 1.36 0 0 Z " fill="#31C5DD" transform="translate(42,45)"/>
<path d="M0 0 C0.33 0.99 0.66 1.98 1 3 C-2.4019487 5.09350689 -5.05272412 5.17942163 -9 5 C-9.33 4.01 -9.66 3.02 -10 2 C-6.7 2 -3.4 2 0 2 C0 1.34 0 0.68 0 0 Z " fill="#4FCFD9" transform="translate(43,100)"/>
<path d="M0 0 C-0.66 0 -1.32 0 -2 0 C-1.319375 0.928125 -0.63875 1.85625 0.0625 2.8125 C0.701875 3.864375 1.34125 4.91625 2 6 C1.67 6.99 1.34 7.98 1 9 C0.01 9.33 -0.98 9.66 -2 10 C-1.773125 9.401875 -1.54625 8.80375 -1.3125 8.1875 C-1.1578125 7.1046875 -1.1578125 7.1046875 -1 6 C-2.39588754 4.35405861 -2.39588754 4.35405861 -4 3 C-4 2.34 -4 1.68 -4 1 C-4.66 0.67 -5.32 0.34 -6 0 C-3.50907189 -1.24546405 -2.58919267 -0.7767578 0 0 Z " fill="#A3E0ED" transform="translate(53,89)"/>
<path d="M0 0 C1.67542976 0.28604898 3.34385343 0.61781233 5 1 C4.67 2.32 4.34 3.64 4 5 C2.68 5.33 1.36 5.66 0 6 C-0.38218767 4.34385343 -0.71395102 2.67542976 -1 1 C-0.67 0.67 -0.34 0.34 0 0 Z " fill="#46CEDB" transform="translate(22,67)"/>
<path d="M0 0 C1.32 0.66 2.64 1.32 4 2 C4 3.98 4 5.96 4 8 C2.68 7.67 1.36 7.34 0 7 C-0.93423645 3.98968256 -1.04449911 3.13349732 0 0 Z " fill="#34C3C4" transform="translate(115,55)"/>
<path d="M0 0 C0.33 0 0.66 0 1 0 C1 2.97 1 5.94 1 9 C0.34 9 -0.32 9 -1 9 C-1.33 9.66 -1.66 10.32 -2 11 C-2.33 9.02 -2.66 7.04 -3 5 C-2.34 5 -1.68 5 -1 5 C-0.67 3.35 -0.34 1.7 0 0 Z " fill="#6C74FE" transform="translate(126,95)"/>
<path d="M0 0 C0.66 0 1.32 0 2 0 C2 1.65 2 3.3 2 5 C2.66 5.33 3.32 5.66 4 6 C3.01 7.485 3.01 7.485 2 9 C-1.875 7.25 -1.875 7.25 -3 5 C-2.01 5 -1.02 5 0 5 C0 3.35 0 1.7 0 0 Z " fill="#EFFAFA" transform="translate(119,49)"/>
<path d="M0 0 C0.66 0.33 1.32 0.66 2 1 C2.94934202 3.92713788 3.23176473 5.42831368 2.0625 8.3125 C1.5365625 9.1478125 1.5365625 9.1478125 1 10 C0.34 9.67 -0.32 9.34 -1 9 C-1.125 2.25 -1.125 2.25 0 0 Z " fill="#6761FF" transform="translate(103,108)"/>
<path d="M0 0 C0.4125 0.474375 0.825 0.94875 1.25 1.4375 C3.182185 3.16266518 4.48192275 3.56584875 7 4 C6.67 4.99 6.34 5.98 6 7 C5.01 7 4.02 7 3 7 C3 6.34 3 5.68 3 5 C1.35 4.67 -0.3 4.34 -2 4 C-2 3.34 -2 2.68 -2 2 C-1.34 2 -0.68 2 0 2 C0 1.34 0 0.68 0 0 Z " fill="#F7FCFD" transform="translate(19,69)"/>
<path d="M0 0 C2.64 0 5.28 0 8 0 C8 1.98 8 3.96 8 6 C7.67 5.34 7.34 4.68 7 4 C6.01 4 5.02 4 4 4 C4 3.34 4 2.68 4 2 C2.68 2 1.36 2 0 2 C0 1.34 0 0.68 0 0 Z " fill="#3FD0D9" transform="translate(18,59)"/>
<path d="M0 0 C3.3 0.33 6.6 0.66 10 1 C5.5 4.375 5.5 4.375 1 4 C0.67 2.68 0.34 1.36 0 0 Z " fill="#358EC0" transform="translate(41,49)"/>
<path d="M0 0 C1.32 0 2.64 0 4 0 C4 1.65 4 3.3 4 5 C2.35 5.66 0.7 6.32 -1 7 C-0.67 4.69 -0.34 2.38 0 0 Z " fill="#3DB4DD" transform="translate(30,59)"/>
<path d="M0 0 C2.33944736 0.28730055 4.6739143 0.61936779 7 1 C6.01 1.66 5.02 2.32 4 3 C3.01 4.485 3.01 4.485 2 6 C1.34 6 0.68 6 0 6 C-0.38218767 4.34385343 -0.71395102 2.67542976 -1 1 C-0.67 0.67 -0.34 0.34 0 0 Z " fill="#D8F2F7" transform="translate(18,65)"/>
<path d="M0 0 C0.33 0.66 0.66 1.32 1 2 C1.99 2.33 2.98 2.66 4 3 C3.67 4.65 3.34 6.3 3 8 C2.34 8 1.68 8 1 8 C1 7.01 1 6.02 1 5 C0.01 5 -0.98 5 -2 5 C-1.34 3.35 -0.68 1.7 0 0 Z " fill="#58CDDC" transform="translate(49,92)"/>
<path d="M0 0 C2.125 0.9375 2.125 0.9375 4 2 C4 2.33 4 2.66 4 3 C-0.29 3 -4.58 3 -9 3 C-9 2.34 -9 1.68 -9 1 C-7.88625 1.020625 -6.7725 1.04125 -5.625 1.0625 C-2.16784079 1.26380718 -2.16784079 1.26380718 0 0 Z " fill="#88CBDE" transform="translate(107,46)"/>
<path d="M0 0 C0.99 0 1.98 0 3 0 C3.33 1.65 3.66 3.3 4 5 C2.35 5 0.7 5 -1 5 C-0.67 3.35 -0.34 1.7 0 0 Z " fill="#35C2C5" transform="translate(47,97)"/>
<path d="M0 0 C0.66 0 1.32 0 2 0 C2 1.32 2 2.64 2 4 C1.01 4 0.02 4 -1 4 C-1 4.99 -1 5.98 -1 7 C-1.66 7 -2.32 7 -3 7 C-2.25 2.25 -2.25 2.25 0 0 Z " fill="#3AC5D3" transform="translate(32,64)"/>
<path d="M0 0 C1.98 0 3.96 0 6 0 C5.34 1.32 4.68 2.64 4 4 C2.68 4 1.36 4 0 4 C0 2.68 0 1.36 0 0 Z " fill="#7ED9E6" transform="translate(113,39)"/>
<path d="M0 0 C0 0.99 0 1.98 0 3 C0.3062434 4.33981486 0.63451555 5.67511887 1 7 C-0.32 6.34 -1.64 5.68 -3 5 C-3 4.01 -3 3.02 -3 2 C-2.01 1.34 -1.02 0.68 0 0 Z " fill="#E8F5F9" transform="translate(41,92)"/>
</svg>
