<?xml version="1.0" encoding="UTF-8"?>
<svg version="1.1" xmlns="http://www.w3.org/2000/svg" width="150" height="150">
<path d="M0 0 C2.97 0.33 5.94 0.66 9 1 C9 2.98 9 4.96 9 7 C13.33927969 8.83695434 13.33927969 8.83695434 17.875 8.125 C18.926875 7.568125 18.926875 7.568125 20 7 C23 12.75 23 12.75 23 15 C23.85464844 14.98839844 24.70929688 14.97679687 25.58984375 14.96484375 C26.69457031 14.95582031 27.79929687 14.94679688 28.9375 14.9375 C30.03964844 14.92589844 31.14179688 14.91429687 32.27734375 14.90234375 C35 15 35 15 36 16 C36.15806531 17.92478813 36.251135 19.8549921 36.31640625 21.78515625 C36.37924805 23.53989258 36.37924805 23.53989258 36.44335938 25.33007812 C36.48267578 26.56177734 36.52199219 27.79347656 36.5625 29.0625 C36.60568359 30.29806641 36.64886719 31.53363281 36.69335938 32.80664062 C36.79984198 35.87097335 36.90185424 38.93539073 37 42 C38.65 42 40.3 42 42 42 C43.60339848 45.11771927 44.18974141 46.39011689 43.125 49.8125 C42.75375 50.534375 42.3825 51.25625 42 52 C42.66 52.33 43.32 52.66 44 53 C43.34 54.65 42.68 56.3 42 58 C39.69 58 37.38 58 35 58 C35 58.99 35 59.98 35 61 C33.35 61 31.7 61 30 61 C29.773125 60.360625 29.54625 59.72125 29.3125 59.0625 C28.14749104 56.72806339 28.14749104 56.72806339 25.375 56.25 C24.59125 56.1675 23.8075 56.085 23 56 C22.505 54.02 22.505 54.02 22 52 C22.66 52 23.32 52 24 52 C23.39816251 49.97954558 22.72693904 47.97888961 22 46 C21.34 45.67 20.68 45.34 20 45 C20 51.6 20 58.2 20 65 C22.31 65 24.62 65 27 65 C28 66 28 66 28.11352539 69.96899414 C28.1133662 71.74105607 28.10766785 73.5131226 28.09765625 75.28515625 C28.0962413 76.21597519 28.09482635 77.14679413 28.09336853 78.1058197 C28.08775172 81.09141191 28.0751964 84.07693029 28.0625 87.0625 C28.05748716 89.08137913 28.05292388 91.10025943 28.04882812 93.11914062 C28.03777683 98.07945572 28.02050095 103.03971532 28 108 C30.31 108.66 32.62 109.32 35 110 C34 112 34 112 32.34521484 112.61450195 C27.49200924 113.41225457 22.54404055 113.18590312 17.63769531 113.18530273 C15.63863013 113.18748512 13.63960468 113.20599143 11.640625 113.22460938 C10.36960937 113.22654297 9.09859375 113.22847656 7.7890625 113.23046875 C6.63100098 113.23457764 5.47293945 113.23868652 4.27978516 113.24291992 C0.88689046 112.99162245 -1.83332989 112.21173908 -5 111 C-4.67 110.34 -4.34 109.68 -4 109 C-1.4375 108.375 -1.4375 108.375 1 108 C0.32142944 107.99191315 -0.35714111 107.98382629 -1.05627441 107.97549438 C-8.19572947 107.88863335 -15.33493245 107.7891071 -22.47412109 107.68261719 C-25.12938188 107.64363425 -27.7845665 107.60971702 -30.43994141 107.578125 C-68.93926359 107.11445232 -68.93926359 107.11445232 -76 103 C-75.67 102.34 -75.34 101.68 -75 101 C-74.34 101 -73.68 101 -73 101 C-73.495 100.01 -73.495 100.01 -74 99 C-76.92713788 98.05065798 -78.42831368 97.76823527 -81.3125 98.9375 C-81.869375 99.288125 -82.42625 99.63875 -83 100 C-85.0625 97.875 -85.0625 97.875 -87 95 C-86.75 91.8125 -86.75 91.8125 -86 89 C-86 88.34 -86 87.68 -86 87 C-87.32 87 -88.64 87 -90 87 C-89.67 84.36 -89.34 81.72 -89 79 C-87.824375 79.0928125 -87.824375 79.0928125 -86.625 79.1875 C-85.75875 79.125625 -84.8925 79.06375 -84 79 C-81.69328085 76.28450846 -81.69328085 76.28450846 -82.375 73.8125 C-82.58125 73.214375 -82.7875 72.61625 -83 72 C-80.09399739 70.74335022 -78.20395416 70 -75 70 C-74.67 70.99 -74.34 71.98 -74 73 C-73.67 69.37 -73.34 65.74 -73 62 C-77.29 62 -81.58 62 -86 62 C-86 61.01 -86 60.02 -86 59 C-87.98 59 -89.96 59 -92 59 C-92 58.34 -92 57.68 -92 57 C-90.02 57 -88.04 57 -86 57 C-86 55.68 -86 54.36 -86 53 C-87.98 53 -89.96 53 -92 53 C-92 52.34 -92 51.68 -92 51 C-90.02 51 -88.04 51 -86 51 C-86 49.68 -86 48.36 -86 47 C-87.98 47 -89.96 47 -92 47 C-92 46.34 -92 45.68 -92 45 C-90.02 45 -88.04 45 -86 45 C-86 44.01 -86 43.02 -86 42 C-87.98 41.67 -89.96 41.34 -92 41 C-92 40.67 -92 40.34 -92 40 C-85.58311325 39.89650183 -79.37305598 40.25492456 -73 41 C-73.061875 39.906875 -73.12375 38.81375 -73.1875 37.6875 C-73 34 -73 34 -71.875 32.28125 C-69.1629604 30.42802294 -67.05676436 30.70784631 -63.8125 30.8125 C-62.72582031 30.83957031 -61.63914062 30.86664063 -60.51953125 30.89453125 C-59.27236328 30.94673828 -59.27236328 30.94673828 -58 31 C-57.67 29.68 -57.34 28.36 -57 27 C-55.77893555 26.9906543 -54.55787109 26.98130859 -53.29980469 26.97167969 C-48.76704501 26.93179077 -44.23496485 26.86603507 -39.70263672 26.79248047 C-37.74146253 26.76426447 -35.78017449 26.74305306 -33.81884766 26.72900391 C-30.99843023 26.70758301 -28.17938257 26.66093791 -25.359375 26.609375 C-24.48319519 26.60814636 -23.60701538 26.60691772 -22.70428467 26.60565186 C-17.72477444 26.50417855 -17.72477444 26.50417855 -13.44628906 24.11816406 C-11.84422619 22.06825288 -11.84422619 22.06825288 -11.5 19.5 C-12.14356518 16.28217411 -13.53305753 15.08148271 -16 13 C-14.35 10.69 -12.7 8.38 -11 6 C-9.63875 6.5878125 -9.63875 6.5878125 -8.25 7.1875 C-5.09586068 8.33597774 -5.09586068 8.33597774 -2.6875 6.9375 C-0.6817574 4.63461035 -0.3245085 3.00170365 0 0 Z M-2.9375 14.0625 C-5.53327109 17.7595073 -5.71253588 19.56644342 -5 24 C-3.59121904 26.9901643 -3.59121904 26.9901643 -1 29 C2.64182335 29.89055736 2.64182335 29.89055736 6 30 C6.03738281 29.01257813 6.07476562 28.02515625 6.11328125 27.0078125 C6.17902344 25.72648437 6.24476562 24.44515625 6.3125 23.125 C6.37050781 21.84882812 6.42851563 20.57265625 6.48828125 19.2578125 C6.65714844 18.18273437 6.82601562 17.10765625 7 16 C7.99 15.34 8.98 14.68 10 14 C5.32834072 10.88556048 1.69263351 10.81155519 -2.9375 14.0625 Z M28 47 C27.6366844 49.83386167 27.6431329 51.40522151 29.125 53.875 C31.92151052 55.55290631 33.93690532 54.74875648 37 54 C37.67673447 50.59679066 37.67673447 50.59679066 38 47 C36.11499729 44.68436913 36.11499729 44.68436913 33 44.75 C29.88500271 44.68436913 29.88500271 44.68436913 28 47 Z M-79.25 80.625 C-81.21985834 82.92308586 -81.21985834 82.92308586 -81.5 86 C-81.21376982 89.06575838 -81.21376982 89.06575838 -79.3125 91.375 C-76.61209763 93.27258004 -75.22939919 93.35882213 -72 93 C-71.85024761 85.94348748 -71.85024761 85.94348748 -73 79 C-76.92212225 78.60967296 -76.92212225 78.60967296 -79.25 80.625 Z M-66 95 C-65.67 96.65 -65.34 98.3 -65 100 C-52.13 99.01 -52.13 99.01 -39 98 C-38.67 97.01 -38.34 96.02 -38 95 C-47.24 95 -56.48 95 -66 95 Z M-14 95 C-14 95.99 -14 96.98 -14 98 C-8.72 98.33 -3.44 98.66 2 99 C2 97.68 2 96.36 2 95 C-3.28 95 -8.56 95 -14 95 Z " fill="#5E4EFD" transform="translate(99,18)"/>
<path d="M0 0 C2.31 0 4.62 0 7 0 C7 2.97 7 5.94 7 9 C11.62 9 16.24 9 21 9 C21 15.6 21 22.2 21 29 C23.31 29 25.62 29 28 29 C29 30 29 30 29.11352539 33.96899414 C29.1133662 35.74105607 29.10766785 37.5131226 29.09765625 39.28515625 C29.0962413 40.21597519 29.09482635 41.14679413 29.09336853 42.1058197 C29.08775172 45.09141191 29.0751964 48.07693029 29.0625 51.0625 C29.05748716 53.08137913 29.05292388 55.10025943 29.04882812 57.11914062 C29.03777683 62.07945572 29.02050095 67.03971532 29 72 C31.31 72.66 33.62 73.32 36 74 C35 76 35 76 33.34521484 76.61450195 C28.49200924 77.41225457 23.54404055 77.18590312 18.63769531 77.18530273 C16.63863013 77.18748512 14.63960468 77.20599143 12.640625 77.22460938 C11.36960937 77.22654297 10.09859375 77.22847656 8.7890625 77.23046875 C7.63100098 77.23457764 6.47293945 77.23868652 5.27978516 77.24291992 C1.88689046 76.99162245 -0.83332989 76.21173908 -4 75 C-3 73 -3 73 3 71 C3 63.41 3 55.82 3 48 C-10.53 48 -24.06 48 -38 48 C-38.33 43.05 -38.66 38.1 -39 33 C-44.28 32.67 -49.56 32.34 -55 32 C-55 31.01 -55 30.02 -55 29 C-54.38125 28.95875 -53.7625 28.9175 -53.125 28.875 C-52.42375 28.58625 -51.7225 28.2975 -51 28 C-49.6954344 25.00384054 -49.6954344 25.00384054 -49 22 C-48.34 22 -47.68 22 -47 22 C-46.34 20.68 -45.68 19.36 -45 18 C-43.68 18 -42.36 18 -41 18 C-41 17.34 -41 16.68 -41 16 C-27.8 15.67 -14.6 15.34 -1 15 C-0.67 10.05 -0.34 5.1 0 0 Z " fill="#7181FD" transform="translate(98,54)"/>
<path d="M0 0 C1.85776765 3.13498292 2.20140476 5.37471432 2 9 C1.030625 9.28875 0.06125 9.5775 -0.9375 9.875 C-4.10664203 10.64214682 -4.10664203 10.64214682 -5 13 C-5.0689472 14.37342831 -5.08467708 15.75002102 -5.0625 17.125 C-5.041875 18.40375 -5.02125 19.6825 -5 21 C-2.36 21.66 0.28 22.32 3 23 C3 20.03 3 17.06 3 14 C4.98 14 6.96 14 9 14 C9.33 14.66 9.66 15.32 10 16 C18.25 16 26.5 16 35 16 C35.33 15.34 35.66 14.68 36 14 C49.53 14 63.06 14 77 14 C77 17.63 77 21.26 77 25 C71.72 25 66.44 25 61 25 C61 25.99 61 26.98 61 28 C61.56847656 27.98839844 62.13695313 27.97679688 62.72265625 27.96484375 C67.60670484 27.90776806 72.18503965 28.18043228 77 29 C77 31.64 77 34.28 77 37 C69.71409984 37.04682155 62.42823335 37.08211748 55.14221191 37.10362434 C51.75718789 37.11395864 48.37226851 37.12792229 44.98730469 37.15087891 C6.5625541 37.39227608 6.5625541 37.39227608 -1 33 C-0.67 32.34 -0.34 31.68 0 31 C0.66 31 1.32 31 2 31 C1.67 30.34 1.34 29.68 1 29 C-1.92713788 28.05065798 -3.42831368 27.76823527 -6.3125 28.9375 C-6.869375 29.288125 -7.42625 29.63875 -8 30 C-10.0625 27.875 -10.0625 27.875 -12 25 C-11.75 21.8125 -11.75 21.8125 -11 19 C-11 18.34 -11 17.68 -11 17 C-12.32 17 -13.64 17 -15 17 C-14.67 14.36 -14.34 11.72 -14 9 C-13.21625 9.061875 -12.4325 9.12375 -11.625 9.1875 C-10.75875 9.125625 -9.8925 9.06375 -9 9 C-6.69328085 6.28450846 -6.69328085 6.28450846 -7.375 3.8125 C-7.58125 3.214375 -7.7875 2.61625 -8 2 C-5.09399739 0.74335022 -3.20395416 0 0 0 Z M9 25 C9.33 26.65 9.66 28.3 10 30 C22.87 29.01 22.87 29.01 36 28 C36.33 27.01 36.66 26.02 37 25 C27.76 25 18.52 25 9 25 Z " fill="#B4D1FE" transform="translate(24,88)"/>
<path d="M0 0 C2.97 0.33 5.94 0.66 9 1 C9 2.98 9 4.96 9 7 C13.33927969 8.83695434 13.33927969 8.83695434 17.875 8.125 C18.926875 7.568125 18.926875 7.568125 20 7 C23 12.75 23 12.75 23 15 C23.85464844 14.98839844 24.70929688 14.97679687 25.58984375 14.96484375 C26.69457031 14.95582031 27.79929687 14.94679688 28.9375 14.9375 C30.03964844 14.92589844 31.14179688 14.91429687 32.27734375 14.90234375 C35 15 35 15 36 16 C36.15806531 17.92478813 36.251135 19.8549921 36.31640625 21.78515625 C36.35830078 22.95498047 36.40019531 24.12480469 36.44335938 25.33007812 C36.48267578 26.56177734 36.52199219 27.79347656 36.5625 29.0625 C36.60568359 30.29806641 36.64886719 31.53363281 36.69335938 32.80664062 C36.79984198 35.87097335 36.90185424 38.93539073 37 42 C38.65 42 40.3 42 42 42 C43.60339848 45.11771927 44.18974141 46.39011689 43.125 49.8125 C42.75375 50.534375 42.3825 51.25625 42 52 C42.66 52.33 43.32 52.66 44 53 C43.34 54.65 42.68 56.3 42 58 C39.69 58 37.38 58 35 58 C35 58.99 35 59.98 35 61 C33.35 61 31.7 61 30 61 C29.773125 60.360625 29.54625 59.72125 29.3125 59.0625 C28.14749104 56.72806339 28.14749104 56.72806339 25.375 56.25 C24.59125 56.1675 23.8075 56.085 23 56 C22.505 54.02 22.505 54.02 22 52 C22.66 52 23.32 52 24 52 C22.91443381 47.83267109 22.91443381 47.83267109 20.375 44.5 C19 43 19 43 18.8125 39.8125 C18.874375 38.884375 18.93625 37.95625 19 37 C18.34 36.67 17.68 36.34 17 36 C17 34.68 17 33.36 17 32 C10.07 31.67 3.14 31.34 -4 31 C-4 30.34 -4 29.68 -4 29 C-20.83 29 -37.66 29 -55 29 C-55 29.66 -55 30.32 -55 31 C-55.99 31 -56.98 31 -58 31 C-57.67 29.68 -57.34 28.36 -57 27 C-55.77893555 26.9906543 -54.55787109 26.98130859 -53.29980469 26.97167969 C-48.76704501 26.93179077 -44.23496485 26.86603507 -39.70263672 26.79248047 C-37.74146253 26.76426447 -35.78017449 26.74305306 -33.81884766 26.72900391 C-30.99843023 26.70758301 -28.17938257 26.66093791 -25.359375 26.609375 C-24.48319519 26.60814636 -23.60701538 26.60691772 -22.70428467 26.60565186 C-17.72477444 26.50417855 -17.72477444 26.50417855 -13.44628906 24.11816406 C-11.84422619 22.06825288 -11.84422619 22.06825288 -11.5 19.5 C-12.14356518 16.28217411 -13.53305753 15.08148271 -16 13 C-14.35 10.69 -12.7 8.38 -11 6 C-9.63875 6.5878125 -9.63875 6.5878125 -8.25 7.1875 C-5.09586068 8.33597774 -5.09586068 8.33597774 -2.6875 6.9375 C-0.6817574 4.63461035 -0.3245085 3.00170365 0 0 Z M-2.9375 14.0625 C-5.53327109 17.7595073 -5.71253588 19.56644342 -5 24 C-3.59121904 26.9901643 -3.59121904 26.9901643 -1 29 C2.64182335 29.89055736 2.64182335 29.89055736 6 30 C6.03738281 29.01257813 6.07476562 28.02515625 6.11328125 27.0078125 C6.17902344 25.72648437 6.24476562 24.44515625 6.3125 23.125 C6.37050781 21.84882812 6.42851563 20.57265625 6.48828125 19.2578125 C6.65714844 18.18273437 6.82601562 17.10765625 7 16 C7.99 15.34 8.98 14.68 10 14 C5.32834072 10.88556048 1.69263351 10.81155519 -2.9375 14.0625 Z M28 47 C27.6366844 49.83386167 27.6431329 51.40522151 29.125 53.875 C31.92151052 55.55290631 33.93690532 54.74875648 37 54 C37.67673447 50.59679066 37.67673447 50.59679066 38 47 C36.11499729 44.68436913 36.11499729 44.68436913 33 44.75 C29.88500271 44.68436913 29.88500271 44.68436913 28 47 Z " fill="#36D2D4" transform="translate(99,18)"/>
<path d="M0 0 C0.33 0 0.66 0 1 0 C1.33 3.3 1.66 6.6 2 10 C2.33 8.35 2.66 6.7 3 5 C3.99 4.67 4.98 4.34 6 4 C6 3.34 6 2.68 6 2 C7.98 2 9.96 2 12 2 C11.34 2.66 10.68 3.32 10 4 C10 4.99 10 5.98 10 7 C8.02 7.99 8.02 7.99 6 9 C8.58361518 9.05407567 11.16609255 9.093707 13.75 9.125 C14.47960937 9.14175781 15.20921875 9.15851563 15.9609375 9.17578125 C20.13521398 9.21372922 22.16970546 8.91514727 26 7 C26 17.89 26 28.78 26 40 C28.31 40.66 30.62 41.32 33 42 C32 44 32 44 30.34521484 44.61450195 C25.49200924 45.41225457 20.54404055 45.18590312 15.63769531 45.18530273 C13.63863013 45.18748512 11.63960468 45.20599143 9.640625 45.22460938 C8.36960937 45.22654297 7.09859375 45.22847656 5.7890625 45.23046875 C4.63100098 45.23457764 3.47293945 45.23868652 2.27978516 45.24291992 C-1.11310954 44.99162245 -3.83332989 44.21173908 -7 43 C-6 41 -6 41 0 39 C0 26.13 0 13.26 0 0 Z " fill="#5E4DEF" transform="translate(101,86)"/>
<path d="M0 0 C13.2 0 26.4 0 40 0 C39.34 0.33 38.68 0.66 38 1 C37.67 1.66 37.34 2.32 37 3 C36.484375 3.474375 35.96875 3.94875 35.4375 4.4375 C33.66147173 6.01410534 33.66147173 6.01410534 34 9 C32.865625 9.28875 31.73125 9.5775 30.5625 9.875 C29.386875 10.24625 28.21125 10.6175 27 11 C26.67 11.66 26.34 12.32 26 13 C26.99 13.33 27.98 13.66 29 14 C26.35261084 15.4606285 25.10551666 16 22 16 C19.81222534 17.9375006 19.81222534 17.9375006 18 20 C17.34 19.67 16.68 19.34 16 19 C16.33 19.99 16.66 20.98 17 22 C16.34 22.33 15.68 22.66 15 23 C15.33 23.66 15.66 24.32 16 25 C15.34 25 14.68 25 14 25 C14 25.66 14 26.32 14 27 C23.9 27 33.8 27 44 27 C44 28.65 44 30.3 44 32 C30.47 32 16.94 32 3 32 C2.67 27.05 2.34 22.1 2 17 C-3.28 16.67 -8.56 16.34 -14 16 C-14 15.01 -14 14.02 -14 13 C-13.38125 12.95875 -12.7625 12.9175 -12.125 12.875 C-11.42375 12.58625 -10.7225 12.2975 -10 12 C-8.6954344 9.00384054 -8.6954344 9.00384054 -8 6 C-7.34 6 -6.68 6 -6 6 C-5.34 4.68 -4.68 3.36 -4 2 C-2.68 2 -1.36 2 0 2 C0 1.34 0 0.68 0 0 Z " fill="#6B72FE" transform="translate(57,70)"/>
<path d="M0 0 C16.83 0 33.66 0 51 0 C51 5.61 51 11.22 51 17 C34.17 17 17.34 17 0 17 C0 11.39 0 5.78 0 0 Z " fill="#404D97" transform="translate(44,47)"/>
<path d="M0 0 C1.85776765 3.13498292 2.20140476 5.37471432 2 9 C1.030625 9.28875 0.06125 9.5775 -0.9375 9.875 C-4.10664203 10.64214682 -4.10664203 10.64214682 -5 13 C-5.0689472 14.37342831 -5.08467708 15.75002102 -5.0625 17.125 C-5.041875 18.40375 -5.02125 19.6825 -5 21 C1.88824069 23.40990104 1.88824069 23.40990104 9 25 C9.33 26.32 9.66 27.64 10 29 C18.58 28.67 27.16 28.34 36 28 C35.67 28.66 35.34 29.32 35 30 C32.35139573 30.59355614 29.70802678 30.74209269 27 31 C27 31.66 27 32.32 27 33 C41.19 33 55.38 33 70 33 C69.67 32.34 69.34 31.68 69 31 C67.845 30.835 66.69 30.67 65.5 30.5 C64.345 30.335 63.19 30.17 62 30 C61.505 29.01 61.505 29.01 61 28 C66.45769811 27.88861841 71.61509359 28.08342019 77 29 C77 31.64 77 34.28 77 37 C69.71409984 37.04682155 62.42823335 37.08211748 55.14221191 37.10362434 C51.75718789 37.11395864 48.37226851 37.12792229 44.98730469 37.15087891 C6.5625541 37.39227608 6.5625541 37.39227608 -1 33 C-0.67 32.34 -0.34 31.68 0 31 C0.66 31 1.32 31 2 31 C1.67 30.34 1.34 29.68 1 29 C-1.92713788 28.05065798 -3.42831368 27.76823527 -6.3125 28.9375 C-6.869375 29.288125 -7.42625 29.63875 -8 30 C-10.0625 27.875 -10.0625 27.875 -12 25 C-11.75 21.8125 -11.75 21.8125 -11 19 C-11 18.34 -11 17.68 -11 17 C-12.32 17 -13.64 17 -15 17 C-14.67 14.36 -14.34 11.72 -14 9 C-13.21625 9.061875 -12.4325 9.12375 -11.625 9.1875 C-10.75875 9.125625 -9.8925 9.06375 -9 9 C-6.69328085 6.28450846 -6.69328085 6.28450846 -7.375 3.8125 C-7.58125 3.214375 -7.7875 2.61625 -8 2 C-5.09399739 0.74335022 -3.20395416 0 0 0 Z " fill="#EAEBF2" transform="translate(24,88)"/>
<path d="M0 0 C0.99 0 1.98 0 3 0 C3 4.95 3 9.9 3 15 C19.83 15 36.66 15 54 15 C54 10.05 54 5.1 54 0 C60.93 0 67.86 0 75 0 C75.495 1.485 75.495 1.485 76 3 C75.67 3.66 75.34 4.32 75 5 C75.99 5.33 76.98 5.66 78 6 C78 8.64 78 11.28 78 14 C73.38 14 68.76 14 64 14 C64 11.03 64 8.06 64 5 C61.69 5 59.38 5 57 5 C57.01160156 6.07121094 57.02320313 7.14242187 57.03515625 8.24609375 C57.04453299 9.64322743 57.05363331 11.04036299 57.0625 12.4375 C57.07087891 13.14455078 57.07925781 13.85160156 57.08789062 14.58007812 C57.09653588 16.38693559 57.05220011 18.19387603 57 20 C55.3221021 21.6778979 53.2626252 21.12746928 50.96118164 21.12939453 C49.3492971 21.13412277 49.3492971 21.13412277 47.70484924 21.13894653 C46.53510056 21.1369223 45.36535187 21.13489807 44.16015625 21.1328125 C42.96772812 21.13376923 41.77529999 21.13472595 40.54673767 21.13571167 C38.0188695 21.13639376 35.49099959 21.13453746 32.96313477 21.13037109 C29.08280517 21.12502796 25.20259157 21.13031273 21.32226562 21.13671875 C18.87239558 21.13605788 16.4225256 21.13477654 13.97265625 21.1328125 C12.80493179 21.13483673 11.63720734 21.13686096 10.43409729 21.13894653 C9.35635544 21.13579437 8.27861359 21.13264221 7.16821289 21.12939453 C6.21636612 21.12859894 5.26451935 21.12780334 4.28382874 21.12698364 C2 21 2 21 0 20 C0 13.4 0 6.8 0 0 Z " fill="#38D4CA" transform="translate(41,49)"/>
<path d="M0 0 C1.12019531 -0.00128906 2.24039063 -0.00257812 3.39453125 -0.00390625 C4.57402344 -0.00003906 5.75351562 0.00382812 6.96875 0.0078125 C8.73798828 0.00201172 8.73798828 0.00201172 10.54296875 -0.00390625 C12.22326172 -0.00197266 12.22326172 -0.00197266 13.9375 0 C14.97326172 0.00112793 16.00902344 0.00225586 17.07617188 0.00341797 C19.46875 0.1328125 19.46875 0.1328125 20.46875 1.1328125 C20.56861975 3.97616298 20.60752881 6.78978413 20.59375 9.6328125 C20.59955078 10.82970703 20.59955078 10.82970703 20.60546875 12.05078125 C20.59535767 18.00620483 20.59535767 18.00620483 19.46875 19.1328125 C17.62715977 19.23240871 15.78178033 19.26361661 13.9375 19.265625 C12.81730469 19.26691406 11.69710937 19.26820312 10.54296875 19.26953125 C9.36347656 19.26566406 8.18398438 19.26179688 6.96875 19.2578125 C5.19951172 19.26361328 5.19951172 19.26361328 3.39453125 19.26953125 C1.71423828 19.26759766 1.71423828 19.26759766 0 19.265625 C-1.03576172 19.26449707 -2.07152344 19.26336914 -3.13867188 19.26220703 C-5.53125 19.1328125 -5.53125 19.1328125 -6.53125 18.1328125 C-6.63111975 15.28946202 -6.67002881 12.47584087 -6.65625 9.6328125 C-6.66011719 8.83488281 -6.66398437 8.03695312 -6.66796875 7.21484375 C-6.65573175 0.007248 -6.65573175 0.007248 0 0 Z " fill="#42A9E5" transform="translate(39.53125,85.8671875)"/>
<path d="M0 0 C13.365 0.495 13.365 0.495 27 1 C27.020625 4.444375 27.04125 7.88875 27.0625 11.4375 C27.071604 12.52474365 27.08070801 13.6119873 27.09008789 14.73217773 C27.09258545 15.58239502 27.09508301 16.4326123 27.09765625 17.30859375 C27.10551147 18.62041626 27.10551147 18.62041626 27.11352539 19.95874023 C27 22 27 22 26 23 C24.5086609 23.01662231 23.01639195 22.963192 21.52734375 22.87890625 C20.62822266 22.83056641 19.72910156 22.78222656 18.80273438 22.73242188 C17.85720703 22.67634766 16.91167969 22.62027344 15.9375 22.5625 C14.98810547 22.51029297 14.03871094 22.45808594 13.06054688 22.40429688 C10.70673048 22.27418642 8.35329301 22.13920888 6 22 C6 21.01 6 20.02 6 19 C4.02 19 2.04 19 0 19 C0 18.34 0 17.68 0 17 C1.98 17 3.96 17 6 17 C6 15.68 6 14.36 6 13 C4.02 13 2.04 13 0 13 C0 12.34 0 11.68 0 11 C1.98 11 3.96 11 6 11 C6 9.68 6 8.36 6 7 C4.02 7 2.04 7 0 7 C0 6.34 0 5.68 0 5 C1.98 5 3.96 5 6 5 C6 4.01 6 3.02 6 2 C3.03 1.505 3.03 1.505 0 1 C0 0.67 0 0.34 0 0 Z " fill="#80D6E6" transform="translate(7,58)"/>
<path d="M0 0 C0.66 0 1.32 0 2 0 C2.495 8.415 2.495 8.415 3 17 C4.65 17 6.3 17 8 17 C9.60339848 20.11771927 10.18974141 21.39011689 9.125 24.8125 C8.75375 25.534375 8.3825 26.25625 8 27 C8.66 27.33 9.32 27.66 10 28 C9.01 30.475 9.01 30.475 8 33 C5.69 33 3.38 33 1 33 C1 33.99 1 34.98 1 36 C-0.65 36 -2.3 36 -4 36 C-4.3403125 35.0409375 -4.3403125 35.0409375 -4.6875 34.0625 C-5.85250896 31.72806339 -5.85250896 31.72806339 -8.625 31.25 C-9.40875 31.1675 -10.1925 31.085 -11 31 C-11.33 29.68 -11.66 28.36 -12 27 C-11.34 27 -10.68 27 -10 27 C-11.10675613 22.79470542 -11.10675613 22.79470542 -13.6875 19.4375 C-15 18 -15 18 -14.9375 15.5 C-13.83236473 12.55297262 -12.64505618 11.62116347 -10 10 C-10.33 9.67 -10.66 9.34 -11 9 C-11 7.35 -11 5.7 -11 4 C-7.37 4 -3.74 4 0 4 C0 2.68 0 1.36 0 0 Z M-6 22 C-6.3633156 24.83386167 -6.3568671 26.40522151 -4.875 28.875 C-2.07848948 30.55290631 -0.06309468 29.74875648 3 29 C3.67673447 25.59679066 3.67673447 25.59679066 4 22 C2.11499729 19.68436913 2.11499729 19.68436913 -1 19.75 C-4.11499729 19.68436913 -4.11499729 19.68436913 -6 22 Z " fill="#37D9CC" transform="translate(133,43)"/>
<path d="M0 0 C7.92 0 15.84 0 24 0 C23 3 23 3 21 4 C20.34444881 6.52733235 20.34444881 6.52733235 20 9 C19.236875 8.938125 18.47375 8.87625 17.6875 8.8125 C14.49660032 9.03512091 14.03893855 9.68302438 12 12 C11.01 12.33 10.02 12.66 9 13 C8.19787372 14.87387216 8.19787372 14.87387216 7.8125 17.0625 C7.65394531 17.79597656 7.49539062 18.52945313 7.33203125 19.28515625 C7.16767578 20.13400391 7.16767578 20.13400391 7 21 C3.125 19.25 3.125 19.25 2 17 C-0.71446979 16.68758545 -3.33909361 16.48663408 -6.0625 16.375 C-6.82111328 16.33632812 -7.57972656 16.29765625 -8.36132812 16.2578125 C-10.24047195 16.16326438 -12.12020336 16.08053244 -14 16 C-14 15.01 -14 14.02 -14 13 C-13.38125 12.95875 -12.7625 12.9175 -12.125 12.875 C-11.42375 12.58625 -10.7225 12.2975 -10 12 C-8.6954344 9.00384054 -8.6954344 9.00384054 -8 6 C-7.34 6 -6.68 6 -6 6 C-5.34 4.68 -4.68 3.36 -4 2 C-2.68 2 -1.36 2 0 2 C0 1.34 0 0.68 0 0 Z " fill="#665FFE" transform="translate(57,70)"/>
<path d="M0 0 C2.97 0.33 5.94 0.66 9 1 C9 2.98 9 4.96 9 7 C13.33927969 8.83695434 13.33927969 8.83695434 17.875 8.125 C18.926875 7.568125 18.926875 7.568125 20 7 C23 12.75 23 12.75 23 15 C20.89611431 15.05402274 18.79183286 15.09280256 16.6875 15.125 C14.92986328 15.15980469 14.92986328 15.15980469 13.13671875 15.1953125 C10 15 10 15 7 13 C3.12661246 12.57744863 0.88401391 12.43332442 -2.4375 14.5625 C-4.55418511 17.86452877 -4.35028204 20.14689752 -4 24 C-3.67 24.99 -3.34 25.98 -3 27 C-7.29 27 -11.58 27 -16 27 C-14.68 25.35 -13.36 23.7 -12 22 C-11.33314062 19.45672892 -11.33314062 19.45672892 -12 17 C-13.89584109 14.68622853 -13.89584109 14.68622853 -16 13 C-14.35 10.69 -12.7 8.38 -11 6 C-10.0925 6.391875 -9.185 6.78375 -8.25 7.1875 C-5.09586068 8.33597774 -5.09586068 8.33597774 -2.6875 6.9375 C-0.6817574 4.63461035 -0.3245085 3.00170365 0 0 Z " fill="#E9EBF2" transform="translate(99,18)"/>
<path d="M0 0 C1.32 0 2.64 0 4 0 C4 6.6 4 13.2 4 20 C6.31 20 8.62 20 11 20 C12.57897833 21.57897833 12.24543509 23.19362572 12.3125 25.375 C12.34988281 26.16648437 12.38726562 26.95796875 12.42578125 27.7734375 C12 30 12 30 10.52734375 31.77734375 C6.78301415 33.58874277 3.34808211 33.32002504 -0.75 33.1875 C-1.54277344 33.17396484 -2.33554688 33.16042969 -3.15234375 33.14648438 C-5.10185564 33.11125223 -7.05101626 33.05744821 -9 33 C-7 30 -7 30 -4 29 C-4 28.01 -4 27.02 -4 26 C-7.0745356 26.7763932 -7.0745356 26.7763932 -9 29 C-9.495 30.0209375 -9.495 30.0209375 -10 31.0625 C-11 33 -11 33 -13 34 C-13.19456705 32.04235617 -13.38044247 30.08384679 -13.5625 28.125 C-13.71912109 26.48917969 -13.71912109 26.48917969 -13.87890625 24.8203125 C-14 22 -14 22 -13 20 C-8.71 20 -4.42 20 0 20 C0 13.4 0 6.8 0 0 Z " fill="#5F4CFB" transform="translate(115,63)"/>
<path d="M0 0 C1.98 0 3.96 0 6 0 C6.33 0.66 6.66 1.32 7 2 C15.25 2 23.5 2 32 2 C32.33 1.34 32.66 0.68 33 0 C37.29 0 41.58 0 46 0 C45.01 0.33 44.02 0.66 43 1 C43 1.66 43 2.32 43 3 C42.34 3 41.68 3 41 3 C41 3.66 41 4.32 41 5 C40.01 5 39.02 5 38 5 C37.67 6.98 37.34 8.96 37 11 C31.89136104 11.0246501 26.78275641 11.04283607 21.67407227 11.05493164 C19.93480832 11.05997204 18.19554864 11.0668043 16.45629883 11.07543945 C13.96174063 11.08751792 11.46723827 11.09323108 8.97265625 11.09765625 C8.19036148 11.10281754 7.40806671 11.10797882 6.60206604 11.11329651 C4.73432886 11.11349226 2.86670796 11.06199694 1 11 C0 10 0 10 -0.09765625 7.71484375 C-0.08605469 6.79832031 -0.07445313 5.88179688 -0.0625 4.9375 C-0.05347656 4.01839844 -0.04445313 3.09929687 -0.03515625 2.15234375 C-0.02355469 1.44207031 -0.01195313 0.73179688 0 0 Z " fill="#C0D8FE" transform="translate(27,102)"/>
<path d="M0 0 C0.9178125 0.00902344 1.835625 0.01804687 2.78125 0.02734375 C5.02111556 0.05067568 7.26041183 0.08340765 9.5 0.125 C9.52685095 2.60423801 9.54676547 5.0831884 9.5625 7.5625 C9.57087891 8.26955078 9.57925781 8.97660156 9.58789062 9.70507812 C9.59653588 11.51193559 9.55220011 13.31887603 9.5 15.125 C7.55252437 17.07247563 4.63730228 16.2576392 2.04882812 16.26171875 C0.7562207 16.25591797 0.7562207 16.25591797 -0.5625 16.25 C-1.39716797 16.25386719 -2.23183594 16.25773437 -3.09179688 16.26171875 C-8.31679405 16.25357378 -13.32931989 15.87818577 -18.5 15.125 C-18.5 14.795 -18.5 14.465 -18.5 14.125 C-16.52 13.795 -14.54 13.465 -12.5 13.125 C-12.17 11.805 -11.84 10.485 -11.5 9.125 C-13.81 9.125 -16.12 9.125 -18.5 9.125 C-18.5 8.795 -18.5 8.465 -18.5 8.125 C-16.52 7.795 -14.54 7.465 -12.5 7.125 C-12.17 5.805 -11.84 4.485 -11.5 3.125 C-13.81 3.125 -16.12 3.125 -18.5 3.125 C-18.5 2.795 -18.5 2.465 -18.5 2.125 C-12.18911704 0.25237819 -6.56038603 -0.12396078 0 0 Z " fill="#34CDCF" transform="translate(24.5,31.875)"/>
<path d="M0 0 C0 10.23 0 20.46 0 31 C-8.25 31 -16.5 31 -25 31 C-25.26785714 17.60714286 -25.26785714 17.60714286 -23 14 C-22.67 14 -22.34 14 -22 14 C-21.67 15.98 -21.34 17.96 -21 20 C-15.72 20 -10.44 20 -5 20 C-4.96261719 18.72382812 -4.92523438 17.44765625 -4.88671875 16.1328125 C-4.82107209 14.46351162 -4.7546243 12.79424211 -4.6875 11.125 C-4.66494141 10.28324219 -4.64238281 9.44148438 -4.61914062 8.57421875 C-4.58369141 7.76855469 -4.54824219 6.96289062 -4.51171875 6.1328125 C-4.48553467 5.38918457 -4.45935059 4.64555664 -4.43237305 3.87939453 C-3.89448171 1.541344 -2.69030346 0 0 0 Z " fill="#7181FE" transform="translate(127,93)"/>
<path d="M0 0 C1.58206057 0.00667536 3.16410534 0.0186375 4.74609375 0.03515625 C5.55240234 0.03966797 6.35871094 0.04417969 7.18945312 0.04882812 C9.18753131 0.06065107 11.18557158 0.07858711 13.18359375 0.09765625 C13.21043687 2.91021906 13.23035563 5.72252866 13.24609375 8.53515625 C13.25447266 9.33759766 13.26285156 10.14003906 13.27148438 10.96679688 C13.28010805 13.01060846 13.23587525 15.05449527 13.18359375 17.09765625 C11.36243372 18.91881628 8.87687611 18.23000705 6.45703125 18.234375 C5.70679687 18.23050781 4.9565625 18.22664063 4.18359375 18.22265625 C3.05824219 18.22845703 3.05824219 18.22845703 1.91015625 18.234375 C-3.68979572 18.22426678 -3.68979572 18.22426678 -4.81640625 17.09765625 C-4.91621839 14.42034245 -4.955205 11.7746145 -4.94140625 9.09765625 C-4.94527344 8.34742187 -4.94914062 7.5971875 -4.953125 6.82421875 C-4.94103514 0.12643386 -4.94103514 0.12643386 0 0 Z " fill="#9CE2EB" transform="translate(109.81640625,95.90234375)"/>
<path d="M0 0 C1.08667969 0.02707031 2.17335938 0.05414063 3.29296875 0.08203125 C4.54013672 0.13423828 4.54013672 0.13423828 5.8125 0.1875 C5.83755615 0.76717529 5.8626123 1.34685059 5.88842773 1.9440918 C6.00496234 4.58792107 6.12742682 7.23144409 6.25 9.875 C6.28931641 10.78701172 6.32863281 11.69902344 6.36914062 12.63867188 C6.43198242 13.96801758 6.43198242 13.96801758 6.49609375 15.32421875 C6.53275146 16.13592529 6.56940918 16.94763184 6.60717773 17.78393555 C6.82287431 20.30894485 7.27149452 22.71350697 7.8125 25.1875 C7.173125 25.455625 6.53375 25.72375 5.875 26 C3.48118314 27.07417752 3.48118314 27.07417752 2.8125 30.1875 C1.8225 30.1875 0.8325 30.1875 -0.1875 30.1875 C-0.5175 23.5875 -0.8475 16.9875 -1.1875 10.1875 C-3.8275 10.1875 -6.4675 10.1875 -9.1875 10.1875 C-9.55218886 3.74466353 -9.55218886 3.74466353 -8.0625 1.46875 C-5.3504604 -0.38447706 -3.24426436 -0.10465369 0 0 Z " fill="#5A39FF" transform="translate(35.1875,48.8125)"/>
<path d="M0 0 C5.94 0 11.88 0 18 0 C18.33 0.99 18.66 1.98 19 3 C18.67 3.66 18.34 4.32 18 5 C18.99 5.33 19.98 5.66 21 6 C21 8.64 21 11.28 21 14 C16.38 14 11.76 14 7 14 C7 11.03 7 8.06 7 5 C4.69 5 2.38 5 0 5 C0 3.35 0 1.7 0 0 Z " fill="#3AC5D7" transform="translate(98,49)"/>
<path d="M0 0 C13.53 0 27.06 0 41 0 C41 1.65 41 3.3 41 5 C27.47 5 13.94 5 0 5 C0 3.35 0 1.7 0 0 Z " fill="#3C3D89" transform="translate(60,97)"/>
<path d="M0 0 C0.99 0 1.98 0 3 0 C3 4.95 3 9.9 3 15 C11.91 15 20.82 15 30 15 C29.67 15.99 29.34 16.98 29 18 C28.34 18 27.68 18 27 18 C26.67 17.67 26.34 17.34 26 17 C26 17.99 26 18.98 26 20 C23.51831386 21.24084307 21.83573801 21.12933103 19.0625 21.1328125 C18.08539063 21.13410156 17.10828125 21.13539062 16.1015625 21.13671875 C15.07804687 21.13285156 14.05453125 21.12898438 13 21.125 C11.97648437 21.12886719 10.95296875 21.13273437 9.8984375 21.13671875 C8.92132813 21.13542969 7.94421875 21.13414063 6.9375 21.1328125 C6.03902344 21.13168457 5.14054687 21.13055664 4.21484375 21.12939453 C2 21 2 21 0 20 C0 13.4 0 6.8 0 0 Z " fill="#3CB5DE" transform="translate(41,49)"/>
<path d="M0 0 C2.12438339 -0.08078641 4.2496323 -0.13909141 6.375 -0.1875 C7.55835937 -0.22230469 8.74171875 -0.25710937 9.9609375 -0.29296875 C11.46527344 -0.14794922 11.46527344 -0.14794922 13 0 C13.66 0.99 14.32 1.98 15 3 C14.34 3 13.68 3 13 3 C13 3.66 13 4.32 13 5 C19.27 5 25.54 5 32 5 C32.495 6.485 32.495 6.485 33 8 C18.81 8 4.62 8 -10 8 C-10 7.34 -10 6.68 -10 6 C-7.98177083 5.609375 -5.96354167 5.21875 -3.9453125 4.828125 C-1.80995329 4.14287884 -1.80995329 4.14287884 -0.7421875 1.921875 C-0.49726562 1.28765625 -0.25234375 0.6534375 0 0 Z " fill="#A3C6FE" transform="translate(61,113)"/>
<path d="M0 0 C1.98 0 3.96 0 6 0 C7.60339848 3.11771927 8.18974141 4.39011689 7.125 7.8125 C6.75375 8.534375 6.3825 9.25625 6 10 C6.66 10.33 7.32 10.66 8 11 C7.34 12.65 6.68 14.3 6 16 C3.69 16 1.38 16 -1 16 C-1 16.99 -1 17.98 -1 19 C-2.65 19 -4.3 19 -6 19 C-6.226875 18.360625 -6.45375 17.72125 -6.6875 17.0625 C-7.85250896 14.72806339 -7.85250896 14.72806339 -10.625 14.25 C-11.40875 14.1675 -12.1925 14.085 -13 14 C-13.33 12.68 -13.66 11.36 -14 10 C-13.34 10 -12.68 10 -12 10 C-12.66 7.69 -13.32 5.38 -14 3 C-11.36 3 -8.72 3 -6 3 C-6.20625 4.11375 -6.4125 5.2275 -6.625 6.375 C-6.74875 7.57125 -6.8725 8.7675 -7 10 C-5.10244856 12.34973818 -5.10244856 12.34973818 -1.875 12.125 C-0.451875 12.063125 -0.451875 12.063125 1 12 C1.29562367 6.67829506 1.29562367 6.67829506 -1 2 C-0.67 1.34 -0.34 0.68 0 0 Z " fill="#EAEBF2" transform="translate(135,60)"/>
<path d="M0 0 C5.61 0 11.22 0 17 0 C17.02683201 3.47921735 17.0467567 6.95823039 17.0625 10.4375 C17.07087891 11.43072266 17.07925781 12.42394531 17.08789062 13.44726562 C17.09272461 14.86362305 17.09272461 14.86362305 17.09765625 16.30859375 C17.10551147 17.62041626 17.10551147 17.62041626 17.11352539 18.95874023 C17 21 17 21 16 22 C11.83535074 22.16017882 8.05273808 21.98248196 4 21 C4.33 20.01 4.66 19.02 5 18 C5.99 18 6.98 18 8 18 C8.33 17.01 8.66 16.02 9 15 C9.99 14.34 10.98 13.68 12 13 C12.73343428 9.93443402 12.73343428 9.93443402 13 7 C11.68 7 10.36 7 9 7 C9 6.01 9 5.02 9 4 C7.68 4 6.36 4 5 4 C4.67 4.66 4.34 5.32 4 6 C4 3 4 3 5 2 C3.35 2.33 1.7 2.66 0 3 C0 2.01 0 1.02 0 0 Z " fill="#35ADC4" transform="translate(17,59)"/>
<path d="M0 0 C2.86782974 1.76402477 5.56448054 3.66956641 8 6 C8 6.66 8 7.32 8 8 C4.37 8 0.74 8 -3 8 C-3 9.65 -3 11.3 -3 13 C-2.34 13.33 -1.68 13.66 -1 14 C-1.99 14.99 -2.98 15.98 -4 17 C-6.475 16.01 -6.475 16.01 -9 15 C-9 14.34 -9 13.68 -9 13 C-8.34 13 -7.68 13 -7 13 C-7 11.35 -7 9.7 -7 8 C-9.97 8 -12.94 8 -16 8 C-16 7.01 -16 6.02 -16 5 C-14.576875 4.87625 -14.576875 4.87625 -13.125 4.75 C-9.90165132 4.36247285 -9.90165132 4.36247285 -8.75 2 C-8.5025 1.34 -8.255 0.68 -8 0 C-4.93256346 -1.53371827 -3.29840304 -0.91622307 0 0 Z " fill="#F5FCFC" transform="translate(125,39)"/>
<path d="M0 0 C1.98 0 3.96 0 6 0 C6.33 0.99 6.66 1.98 7 3 C5.21653709 6.03188696 4.40424844 6.86525052 1 8 C1 8.99 1 9.98 1 11 C-0.625 13.6875 -0.625 13.6875 -3 16 C-5.9375 16.625 -5.9375 16.625 -9 16 C-11.875 13.6875 -11.875 13.6875 -14 11 C-14 8 -14 8 -12.625 6.3125 C-11 5 -11 5 -9 5 C-8.67 4.01 -8.34 3.02 -8 2 C-6.68 2.33 -5.36 2.66 -4 3 C-4 3.66 -4 4.32 -4 5 C-2.64567325 3.68799596 -1.31266518 2.35368596 0 1 C0 0.67 0 0.34 0 0 Z " fill="#3BC2D8" transform="translate(53,86)"/>
<path d="M0 0 C1.32 0 2.64 0 4 0 C4 6.6 4 13.2 4 20 C6.31 20 8.62 20 11 20 C11.33 20.99 11.66 21.98 12 23 C3.19039858 24.30512614 -5.19039858 24.30512614 -14 23 C-13.505 21.515 -13.505 21.515 -13 20 C-8.71 20 -4.42 20 0 20 C0 13.4 0 6.8 0 0 Z " fill="#4C4CA1" transform="translate(115,63)"/>
<path d="M0 0 C0.33 0 0.66 0 1 0 C1.02685095 2.47923801 1.04676547 4.9581884 1.0625 7.4375 C1.07087891 8.14455078 1.07925781 8.85160156 1.08789062 9.58007812 C1.09653588 11.38693559 1.05220011 13.19387603 1 15 C0 16 0 16 -2.40844727 16.11352539 C-3.45057373 16.10828857 -4.4927002 16.10305176 -5.56640625 16.09765625 C-6.69111328 16.09443359 -7.81582031 16.09121094 -8.97460938 16.08789062 C-10.15861328 16.07951172 -11.34261719 16.07113281 -12.5625 16.0625 C-13.75037109 16.05798828 -14.93824219 16.05347656 -16.16210938 16.04882812 C-19.10812226 16.03699675 -22.05403681 16.02051287 -25 16 C-25.33 15.01 -25.66 14.02 -26 13 C-24.81921875 12.99742188 -23.6384375 12.99484375 -22.421875 12.9921875 C-20.86454555 12.95466149 -19.30725458 12.91551394 -17.75 12.875 C-16.58404297 12.87886719 -16.58404297 12.87886719 -15.39453125 12.8828125 C-13.11307669 12.80481405 -11.18517187 12.66886225 -9 12 C-6.39587722 9.11933907 -6.39587722 9.11933907 -5 6 C-5.33 5.34 -5.66 4.68 -6 4 C-4.68 4 -3.36 4 -2 4 C-1.67 3.01 -1.34 2.02 -1 1 C-0.67 0.67 -0.34 0.34 0 0 Z " fill="#35D9C3" transform="translate(59,89)"/>
<path d="M0 0 C2.31 0 4.62 0 7 0 C7 2.97 7 5.94 7 9 C10.3 9 13.6 9 17 9 C17 10.32 17 11.64 17 13 C13.7 13.33 10.4 13.66 7 14 C8.65 14.33 10.3 14.66 12 15 C12 15.33 12 15.66 12 16 C10.54176788 16.0270043 9.08339325 16.04639787 7.625 16.0625 C6.81289062 16.07410156 6.00078125 16.08570312 5.1640625 16.09765625 C3 16 3 16 1 15 C0.67 15.66 0.34 16.32 0 17 C-1.54897985 13.9020403 -0.83239539 10.73783448 -0.5625 7.375 C-0.51029297 6.66859375 -0.45808594 5.9621875 -0.40429688 5.234375 C-0.27458793 3.48920013 -0.13795046 1.74454275 0 0 Z " fill="#707FFE" transform="translate(98,54)"/>
<path d="M0 0 C5.61 0 11.22 0 17 0 C17 2.97 17 5.94 17 9 C11.39 9 5.78 9 0 9 C0 6.03 0 3.06 0 0 Z " fill="#3E4995" transform="translate(15,34)"/>
<path d="M0 0 C1.31871094 -0.01224609 2.63742188 -0.02449219 3.99609375 -0.03710938 C5.90068359 -0.04000977 5.90068359 -0.04000977 7.84375 -0.04296875 C9.00068359 -0.04707764 10.15761719 -0.05118652 11.34960938 -0.05541992 C14.47736509 0.18575467 16.680892 0.85423629 19.5 2.1875 C18.5 4.1875 18.5 4.1875 16.84521484 4.80200195 C11.99200924 5.59975457 7.04404055 5.37340312 2.13769531 5.37280273 C0.13863013 5.37498512 -1.86039532 5.39349143 -3.859375 5.41210938 C-5.13039063 5.41404297 -6.40140625 5.41597656 -7.7109375 5.41796875 C-8.86899902 5.42207764 -10.02706055 5.42618652 -11.22021484 5.43041992 C-14.61310954 5.17912245 -17.33332989 4.39923908 -20.5 3.1875 C-20.17 2.5275 -19.84 1.8675 -19.5 1.1875 C-13.23640183 -0.60566158 -6.45139424 0.00315317 0 0 Z " fill="#EAEBF2" transform="translate(114.5,125.8125)"/>
<path d="M0 0 C0 10.23 0 20.46 0 31 C-3.96 31 -7.92 31 -12 31 C-11 29 -11 29 -8 28 C-6.79117904 25.99983534 -6.79117904 25.99983534 -6 24 C-5.34 24 -4.68 24 -4 24 C-4.16532227 23.42781738 -4.33064453 22.85563477 -4.50097656 22.26611328 C-5.33674971 18.47078729 -4.95117655 14.73393202 -4.75 10.875 C-4.70939453 9.63943359 -4.70939453 9.63943359 -4.66796875 8.37890625 C-4.62800781 7.59128906 -4.58804688 6.80367188 -4.546875 5.9921875 C-4.51432617 5.27401855 -4.48177734 4.55584961 -4.44824219 3.81591797 C-3.88114346 1.51848859 -2.63441242 0 0 0 Z " fill="#7692FE" transform="translate(127,93)"/>
<path d="M0 0 C1.58206057 0.00667536 3.16410534 0.0186375 4.74609375 0.03515625 C5.55240234 0.03966797 6.35871094 0.04417969 7.18945312 0.04882812 C9.18753131 0.06065107 11.18557158 0.07858711 13.18359375 0.09765625 C13.21043687 2.91021906 13.23035563 5.72252866 13.24609375 8.53515625 C13.25447266 9.33759766 13.26285156 10.14003906 13.27148438 10.96679688 C13.28010805 13.01060846 13.23587525 15.05449527 13.18359375 17.09765625 C11.36243372 18.91881628 8.87687611 18.23000705 6.45703125 18.234375 C5.70679687 18.23050781 4.9565625 18.22664063 4.18359375 18.22265625 C3.05824219 18.22845703 3.05824219 18.22845703 1.91015625 18.234375 C-3.68979572 18.22426678 -3.68979572 18.22426678 -4.81640625 17.09765625 C-4.91621839 14.42034245 -4.955205 11.7746145 -4.94140625 9.09765625 C-4.94527344 8.34742187 -4.94914062 7.5971875 -4.953125 6.82421875 C-4.94103514 0.12643386 -4.94103514 0.12643386 0 0 Z M-1.25390625 3.66015625 C-3.45326259 7.09115213 -3.5293154 9.105365 -2.81640625 13.09765625 C0.09850003 15.80919698 1.83435745 17.12903384 5.87109375 17.03515625 C8.43759282 15.99468365 9.61062183 15.37846553 11.18359375 13.09765625 C12.27251714 10.23128343 12.27251714 10.23128343 12.18359375 7.09765625 C10.84243976 4.08785742 10.84243976 4.08785742 8.18359375 2.09765625 C4.21789387 1.46031163 2.15078863 1.47765953 -1.25390625 3.66015625 Z " fill="#3CDACD" transform="translate(109.81640625,95.90234375)"/>
<path d="M0 0 C4.29 0 8.58 0 13 0 C13 4.95 13 9.9 13 15 C10.03 15 7.06 15 4 15 C6.875 9.125 6.875 9.125 8 8 C5.69 7.67 3.38 7.34 1 7 C0.67 5.68 0.34 4.36 0 3 C0.99 2.67 1.98 2.34 3 2 C2.01 1.34 1.02 0.68 0 0 Z " fill="#778EFE" transform="translate(102,67)"/>
<path d="M0 0 C1.32 0.33 2.64 0.66 4 1 C4 4.96 4 8.92 4 13 C-0.62 13 -5.24 13 -10 13 C-10 10 -10 10 -8 7 C-5.375 6.8125 -5.375 6.8125 -3 7 C-3 5.68 -3 4.36 -3 3 C-1.75 1.1875 -1.75 1.1875 0 0 Z " fill="#758DFE" transform="translate(97,84)"/>
<path d="M0 0 C1.32 0 2.64 0 4 0 C4 0.99 4 1.98 4 3 C5.32 3 6.64 3 8 3 C8 5.31 8 7.62 8 10 C7.360625 10.28875 6.72125 10.5775 6.0625 10.875 C3.84793921 11.82823451 3.84793921 11.82823451 3 14 C2.01 14 1.02 14 0 14 C0 13.01 0 12.02 0 11 C-1.65 10.67 -3.3 10.34 -5 10 C-5 7.69 -5 5.38 -5 3 C-3.35 2.67 -1.7 2.34 0 2 C0 1.34 0 0.68 0 0 Z " fill="#ECF9FA" transform="translate(22,63)"/>
<path d="M0 0 C10.56 0 21.12 0 32 0 C32 0.33 32 0.66 32 1 C22.1 1 12.2 1 2 1 C2 1.66 2 2.32 2 3 C11.57 3 21.14 3 31 3 C31 3.33 31 3.66 31 4 C21.43 4 11.86 4 2 4 C2 4.66 2 5.32 2 6 C8.93 6 15.86 6 23 6 C22.67 6.99 22.34 7.98 22 9 C14.08 9 6.16 9 -2 9 C-1.34 6.03 -0.68 3.06 0 0 Z " fill="#3C3D89" transform="translate(57,55)"/>
<path d="M0 0 C1.32 0 2.64 0 4 0 C4 5.28 4 10.56 4 16 C4.99 16 5.98 16 7 16 C7 17.65 7 19.3 7 21 C4.69 21 2.38 21 0 21 C0 14.07 0 7.14 0 0 Z " fill="#41428D" transform="translate(26,81)"/>
<path d="M0 0 C1.90845703 0.04060547 1.90845703 0.04060547 3.85546875 0.08203125 C5.31919922 0.13423828 5.31919922 0.13423828 6.8125 0.1875 C6.8125 1.5075 6.8125 2.8275 6.8125 4.1875 C2.53365394 6.2978435 -1.32614142 6.42878739 -6 6.3125 C-7.03930664 6.29896484 -7.03930664 6.29896484 -8.09960938 6.28515625 C-9.79572395 6.26176157 -11.49165871 6.22589641 -13.1875 6.1875 C-13.5175 5.1975 -13.8475 4.2075 -14.1875 3.1875 C-13.8575 2.5275 -13.5275 1.8675 -13.1875 1.1875 C-12.1975 1.1875 -11.2075 1.1875 -10.1875 1.1875 C-10.1875 1.8475 -10.1875 2.5075 -10.1875 3.1875 C-9.84074219 2.69636719 -9.49398437 2.20523438 -9.13671875 1.69921875 C-6.18504166 -0.58995767 -3.66740301 -0.1009377 0 0 Z " fill="#39C8D5" transform="translate(78.1875,63.8125)"/>
<path d="M0 0 C0.99 0 1.98 0 3 0 C3 4.95 3 9.9 3 15 C5.64 15 8.28 15 11 15 C11.33 15.66 11.66 16.32 12 17 C10.02 17.66 8.04 18.32 6 19 C6.33 19.66 6.66 20.32 7 21 C4.69 20.67 2.38 20.34 0 20 C0 13.4 0 6.8 0 0 Z " fill="#3EA6E6" transform="translate(41,49)"/>
<path d="M0 0 C0.33 0 0.66 0 1 0 C1.33 1.98 1.66 3.96 2 6 C5.3 6.33 8.6 6.66 12 7 C10.68 7.33 9.36 7.66 8 8 C8 9.32 8 10.64 8 12 C7.34 12 6.68 12 6 12 C6 12.99 6 13.98 6 15 C3.66666667 15 1.33333333 15 -1 15 C-1.33 15.66 -1.66 16.32 -2 17 C-2.05418326 14.91695462 -2.09287551 12.83350232 -2.125 10.75 C-2.14820312 9.58984375 -2.17140625 8.4296875 -2.1953125 7.234375 C-2.0103949 4.17213954 -1.60823023 2.55797249 0 0 Z " fill="#6B71FE" transform="translate(104,107)"/>
<path d="M0 0 C0.33 0 0.66 0 1 0 C1.02685938 2.14576637 1.04633088 4.29162645 1.0625 6.4375 C1.07410156 7.63246094 1.08570313 8.82742187 1.09765625 10.05859375 C1 13 1 13 0 14 C-2.01964199 14.07244053 -4.04167124 14.08377188 -6.0625 14.0625 C-7.16722656 14.05347656 -8.27195312 14.04445313 -9.41015625 14.03515625 C-10.69212891 14.01775391 -10.69212891 14.01775391 -12 14 C-11 12 -11 12 -9 11 C-9 10.01 -9 9.02 -9 8 C-8.443125 7.79375 -7.88625 7.5875 -7.3125 7.375 C-4.09117285 5.45961629 -2.34567425 2.91624366 0 0 Z " fill="#35DFC2" transform="translate(134,49)"/>
<path d="M0 0 C5.94 0 11.88 0 18 0 C18.33 0.99 18.66 1.98 19 3 C18.34 3 17.68 3 17 3 C17 3.66 17 4.32 17 5 C11.39 5 5.78 5 0 5 C0 3.35 0 1.7 0 0 Z " fill="#35ACC5" transform="translate(98,49)"/>
<path d="M0 0 C1.08667969 0.02707031 2.17335938 0.05414063 3.29296875 0.08203125 C4.54013672 0.13423828 4.54013672 0.13423828 5.8125 0.1875 C5.8125 1.8375 5.8125 3.4875 5.8125 5.1875 C2.1825 5.1875 -1.4475 5.1875 -5.1875 5.1875 C-5.1875 6.8375 -5.1875 8.4875 -5.1875 10.1875 C-6.5075 10.1875 -7.8275 10.1875 -9.1875 10.1875 C-9.55218886 3.74466353 -9.55218886 3.74466353 -8.0625 1.46875 C-5.3504604 -0.38447706 -3.24426436 -0.10465369 0 0 Z " fill="#3C3D89" transform="translate(35.1875,48.8125)"/>
<path d="M0 0 C13.53 0 27.06 0 41 0 C41.495 0.99 41.495 0.99 42 2 C28.8 2 15.6 2 2 2 C2 2.66 2 3.32 2 4 C1.01 4 0.02 4 -1 4 C-0.67 2.68 -0.34 1.36 0 0 Z " fill="#33CFD6" transform="translate(42,45)"/>
<path d="M0 0 C0.33 0.66 0.66 1.32 1 2 C-1.97 4.475 -1.97 4.475 -5 7 C-5.99 6.34 -6.98 5.68 -8 5 C-8 5.66 -8 6.32 -8 7 C-5.36 7 -2.72 7 0 7 C0.33 6.01 0.66 5.02 1 4 C1.6875 5.8125 1.6875 5.8125 2 8 C0.9375 9.75 0.9375 9.75 -1 11 C-4.0625 11.3125 -4.0625 11.3125 -7 11 C-9 9 -9 9 -9.375 5.5625 C-9 2 -9 2 -7.3125 0 C-4.40639016 -1.25669615 -2.95860865 -1.03951115 0 0 Z " fill="#3FCEE5" transform="translate(118,100)"/>
<path d="M0 0 C1.32 0.33 2.64 0.66 4 1 C3.69128878 2.79232337 3.37790936 4.58384321 3.0625 6.375 C2.88847656 7.37273437 2.71445312 8.37046875 2.53515625 9.3984375 C2 12 2 12 1 14 C-1 14 -1 14 -3.625 11.6875 C-6 9 -6 9 -6 6 C-4.625 4.3125 -4.625 4.3125 -3 3 C-2.34 3 -1.68 3 -1 3 C-0.67 2.01 -0.34 1.02 0 0 Z " fill="#45B7DF" transform="translate(45,88)"/>
<path d="M0 0 C1.32 0 2.64 0 4 0 C4 6.6 4 13.2 4 20 C2.68 19.67 1.36 19.34 0 19 C0 12.73 0 6.46 0 0 Z " fill="#3E3E8B" transform="translate(115,63)"/>
<path d="M0 0 C1.98 0 3.96 0 6 0 C6.48309179 6.40096618 6.48309179 6.40096618 4.4375 8.9375 C1.19917389 10.34907805 -1.50813979 10.20145347 -5 10 C-4.75 7.125 -4.75 7.125 -4 4 C-1.9375 2.625 -1.9375 2.625 0 2 C0 1.34 0 0.68 0 0 Z " fill="#645BFF" transform="translate(121,86)"/>
<path d="M0 0 C2.31 0 4.62 0 7 0 C7 2.97 7 5.94 7 9 C5.02 9.99 5.02 9.99 3 11 C2.01 12.32 1.02 13.64 0 15 C0 10.05 0 5.1 0 0 Z " fill="#6B73FD" transform="translate(98,54)"/>
<path d="M0 0 C2.27057377 -0.05398987 4.54151288 -0.09278742 6.8125 -0.125 C8.07707031 -0.14820313 9.34164062 -0.17140625 10.64453125 -0.1953125 C14 0 14 0 17 2 C21.65815681 1.59404786 21.65815681 1.59404786 26 0 C26 0.66 26 1.32 26 2 C28.97 2 31.94 2 35 2 C35 3.65 35 5.3 35 7 C34.34 6.34 33.68 5.68 33 5 C30.77341846 4.62995706 30.77341846 4.62995706 28.2109375 4.5859375 C27.26992187 4.54726563 26.32890625 4.50859375 25.359375 4.46875 C24.37453125 4.4378125 23.3896875 4.406875 22.375 4.375 C21.38242188 4.33632813 20.38984375 4.29765625 19.3671875 4.2578125 C16.91164615 4.1633686 14.4561159 4.07780125 12 4 C12 3.34 12 2.68 12 2 C8.37 2 4.74 2 1 2 C0.67 1.34 0.34 0.68 0 0 Z " fill="#6DCEDD" transform="translate(83,45)"/>
<path d="M0 0 C8.58 0 17.16 0 26 0 C25.67 0.99 25.34 1.98 25 3 C17.08 3 9.16 3 1 3 C0.67 2.01 0.34 1.02 0 0 Z " fill="#4C4CA0" transform="translate(101,124)"/>
<path d="M0 0 C1.67542976 0.28604898 3.34385343 0.61781233 5 1 C5.89577032 4.50164762 6.26716699 6.38129749 4.8125 9.75 C2.94600088 12.06703339 1.64936088 12.79325177 -1 14 C-1.02685938 11.85423363 -1.04633088 9.70837355 -1.0625 7.5625 C-1.07410156 6.36753906 -1.08570312 5.17257813 -1.09765625 3.94140625 C-1 1 -1 1 0 0 Z " fill="#31C5DF" transform="translate(106,33)"/>
<path d="M0 0 C3.02419525 0.58803797 6.01758453 1.22678118 9 2 C9.042721 3.66611905 9.04063832 5.33382885 9 7 C8 8 8 8 6.15234375 8.09765625 C4.1015625 8.06510417 2.05078125 8.03255208 0 8 C0 7.01 0 6.02 0 5 C-1.98 5 -3.96 5 -6 5 C-6 4.34 -6 3.68 -6 3 C-4.02 3 -2.04 3 0 3 C0 2.01 0 1.02 0 0 Z " fill="#3BD4D3" transform="translate(13,72)"/>
<path d="M0 0 C1.58206057 0.00667536 3.16410534 0.0186375 4.74609375 0.03515625 C5.55240234 0.03966797 6.35871094 0.04417969 7.18945312 0.04882812 C9.18753131 0.06065107 11.18557158 0.07858711 13.18359375 0.09765625 C12.85359375 1.41765625 12.52359375 2.73765625 12.18359375 4.09765625 C11.66796875 3.93265625 11.15234375 3.76765625 10.62109375 3.59765625 C6.79748361 2.81332596 2.85620984 2.11715716 -0.62890625 4.16015625 C-2.35297966 6.97311813 -3.03516695 9.9126037 -3.81640625 13.09765625 C-4.14640625 13.09765625 -4.47640625 13.09765625 -4.81640625 13.09765625 C-4.84327178 11.11856227 -4.86274 9.13936654 -4.87890625 7.16015625 C-4.89050781 6.05800781 -4.90210937 4.95585938 -4.9140625 3.8203125 C-4.76201869 -0.41866885 -4.42989555 0.11335454 0 0 Z " fill="#45BDF2" transform="translate(109.81640625,95.90234375)"/>
<path d="M0 0 C-0.33 3.3 -0.66 6.6 -1 10 C0.32 10 1.64 10 3 10 C3 11.32 3 12.64 3 14 C-1.29 13.67 -5.58 13.34 -10 13 C-10 12.67 -10 12.34 -10 12 C-8.02 11.67 -6.04 11.34 -4 11 C-3.67 9.68 -3.34 8.36 -3 7 C-5.31 7 -7.62 7 -10 7 C-10 6.67 -10 6.34 -10 6 C-8.02 5.67 -6.04 5.34 -4 5 C-3.67 3.68 -3.34 2.36 -3 1 C-5.31 1 -7.62 1 -10 1 C-10 0.67 -10 0.34 -10 0 C-6.05523353 -0.80688405 -4.00001715 -1.00000429 0 0 Z " fill="#64D3E0" transform="translate(16,34)"/>
<path d="M0 0 C4.29 0 8.58 0 13 0 C11.68 0.99 10.36 1.98 9 3 C9 3.99 9 4.98 9 6 C6.88115832 8.66817101 5.56331349 9.84636905 2.25 10.75 C1.13625 10.87375 1.13625 10.87375 0 11 C0.185625 9.9275 0.37125 8.855 0.5625 7.75 C1.23224429 3.92789678 1.23224429 3.92789678 0 0 Z " fill="#73D6E3" transform="translate(110,33)"/>
<path d="M0 0 C0.02690104 2.79173055 0.04679053 5.58320348 0.0625 8.375 C0.07087891 9.1690625 0.07925781 9.963125 0.08789062 10.78125 C0.11328125 16.7734375 0.11328125 16.7734375 -1 19 C-1.99 19 -2.98 19 -4 19 C-4.08071788 16.20775927 -4.14035408 13.41783434 -4.1875 10.625 C-4.21263672 9.8309375 -4.23777344 9.036875 -4.26367188 8.21875 C-4.29004405 6.14413852 -4.15486462 4.06899135 -4 2 C-1 0 -1 0 0 0 Z " fill="#707EFE" transform="translate(127,93)"/>
<path d="M0 0 C0.33 0.66 0.66 1.32 1 2 C3.02463255 2.65213292 3.02463255 2.65213292 5 3 C3 5 3 5 0.93701172 5.22705078 C-0.30411377 5.21134033 -0.30411377 5.21134033 -1.5703125 5.1953125 C-2.46621094 5.18886719 -3.36210938 5.18242188 -4.28515625 5.17578125 C-5.22230469 5.15902344 -6.15945312 5.14226562 -7.125 5.125 C-8.06988281 5.11597656 -9.01476563 5.10695313 -9.98828125 5.09765625 C-12.32577292 5.07404522 -14.66276123 5.04111516 -17 5 C-17.33 4.01 -17.66 3.02 -18 2 C-16.17662109 1.90912109 -16.17662109 1.90912109 -14.31640625 1.81640625 C-12.73175772 1.73201668 -11.14712298 1.6473679 -9.5625 1.5625 C-8.76005859 1.52318359 -7.95761719 1.48386719 -7.13085938 1.44335938 C-3.24760439 1.5945704 -3.24760439 1.5945704 0 0 Z " fill="#3ADAC9" transform="translate(51,100)"/>
<path d="M0 0 C0.33 0.66 0.66 1.32 1 2 C8.59 2 16.18 2 24 2 C24 2.33 24 2.66 24 3 C20.37 3 16.74 3 13 3 C13 4.65 13 6.3 13 8 C13.66 8.33 14.32 8.66 15 9 C14.01 9.99 13.02 10.98 12 12 C9.525 11.01 9.525 11.01 7 10 C7 9.34 7 8.68 7 8 C7.66 8 8.32 8 9 8 C9 6.35 9 4.7 9 3 C6.03 3 3.06 3 0 3 C0 2.01 0 1.02 0 0 Z " fill="#9FE6E8" transform="translate(109,44)"/>
<path d="M0 0 C2.64 0 5.28 0 8 0 C8.04254356 1.99954746 8.04080783 4.00041636 8 6 C7 7 7 7 3.75 7.125 C0.66396211 7.02213207 -2.01424114 6.72382033 -5 6 C-4.67 5.01 -4.34 4.02 -4 3 C-3.01 3 -2.02 3 -1 3 C-0.67 2.01 -0.34 1.02 0 0 Z " fill="#35D6C5" transform="translate(26,74)"/>
<path d="M0 0 C1.24716797 0.00322266 2.49433594 0.00644531 3.77929688 0.00976562 C5.07287109 0.01814453 6.36644531 0.02652344 7.69921875 0.03515625 C9.66858398 0.04192383 9.66858398 0.04192383 11.67773438 0.04882812 C14.91410885 0.06059676 18.15039053 0.07703865 21.38671875 0.09765625 C21.05671875 0.75765625 20.72671875 1.41765625 20.38671875 2.09765625 C19.73074707 2.11747559 19.07477539 2.13729492 18.39892578 2.15771484 C15.43610806 2.25278132 12.47401343 2.36253377 9.51171875 2.47265625 C7.96291016 2.5190625 7.96291016 2.5190625 6.3828125 2.56640625 C4.90361328 2.62441406 4.90361328 2.62441406 3.39453125 2.68359375 C2.4833252 2.71501465 1.57211914 2.74643555 0.63330078 2.77880859 C-1.81259311 2.89648136 -1.81259311 2.89648136 -3.61328125 5.09765625 C-6.34197532 5.06478042 -8.90994305 4.53367854 -11.61328125 4.09765625 C-11.61328125 3.10765625 -11.61328125 2.11765625 -11.61328125 1.09765625 C-7.68039761 0.16677716 -4.03673962 -0.0184326 0 0 Z " fill="#D9D9E8" transform="translate(106.61328125,125.90234375)"/>
<path d="M0 0 C3.375 -0.125 3.375 -0.125 7 0 C7.66 0.66 8.32 1.32 9 2 C9.66 1.34 10.32 0.68 11 0 C10.67 1.65 10.34 3.3 10 5 C6.7 5 3.4 5 0 5 C0 3.35 0 1.7 0 0 Z " fill="#36ADC6" transform="translate(33,97)"/>
<path d="M0 0 C2.64 0 5.28 0 8 0 C8 2.97 8 5.94 8 9 C5.69 9.33 3.38 9.66 1 10 C1.66 9.01 2.32 8.02 3 7 C3.39013716 5.0103005 3.73202649 3.00980131 4 1 C2.68 0.67 1.36 0.34 0 0 Z " fill="#44CBD5" transform="translate(26,65)"/>
<path d="M0 0 C2.31 0 4.62 0 7 0 C7.33 0.66 7.66 1.32 8 2 C6.66666667 3.33333333 5.33333333 4.66666667 4 6 C3.67 6.680625 3.34 7.36125 3 8.0625 C2 10 2 10 0 11 C0 7.37 0 3.74 0 0 Z " fill="#5935FF" transform="translate(102,86)"/>
<path d="M0 0 C1.4370809 -0.05422947 2.87475462 -0.09289723 4.3125 -0.125 C5.11300781 -0.14820313 5.91351563 -0.17140625 6.73828125 -0.1953125 C9 0 9 0 12 2 C13.32 2 14.64 2 16 2 C16 2.66 16 3.32 16 4 C15.34 4 14.68 4 14 4 C14 4.99 14 5.98 14 7 C12.35 7 10.7 7 9 7 C9 6.34 9 5.68 9 5 C8.01 5 7.02 5 6 5 C6 4.01 6 3.02 6 2 C3.03 1.505 3.03 1.505 0 1 C0 0.67 0 0.34 0 0 Z " fill="#57CDE2" transform="translate(7,58)"/>
<path d="M0 0 C3.3 0 6.6 0 10 0 C9 2 9 2 6.5 2.875 C5.675 3.24625 4.85 3.6175 4 4 C3.34786708 6.02463255 3.34786708 6.02463255 3 8 C2.01 8.33 1.02 8.66 0 9 C0 6.03 0 3.06 0 0 Z " fill="#3DBBDD" transform="translate(105,54)"/>
<path d="M0 0 C1.23556641 0.01740234 1.23556641 0.01740234 2.49609375 0.03515625 C3.32238281 0.04417969 4.14867187 0.05320312 5 0.0625 C5.63808594 0.07410156 6.27617188 0.08570312 6.93359375 0.09765625 C6.60359375 0.75765625 6.27359375 1.41765625 5.93359375 2.09765625 C3.37109375 2.72265625 3.37109375 2.72265625 0.93359375 3.09765625 C0.60359375 4.74765625 0.27359375 6.39765625 -0.06640625 8.09765625 C-1.05640625 8.09765625 -2.04640625 8.09765625 -3.06640625 8.09765625 C-3.10882348 5.7647085 -3.10733562 3.43063058 -3.06640625 1.09765625 C-2.06640625 0.09765625 -2.06640625 0.09765625 0 0 Z " fill="#4297EA" transform="translate(36.06640625,85.90234375)"/>
<path d="M0 0 C0.4125 0.515625 0.825 1.03125 1.25 1.5625 C2.89081865 3.25326429 2.89081865 3.25326429 5.0625 2.8125 C7.18712526 2.06529664 7.18712526 2.06529664 9 0 C9.66 1.32 10.32 2.64 11 4 C10.360625 4.28875 9.72125 4.5775 9.0625 4.875 C6.84793921 5.82823451 6.84793921 5.82823451 6 8 C5.01 8 4.02 8 3 8 C3 7.01 3 6.02 3 5 C1.35 4.67 -0.3 4.34 -2 4 C-2 3.34 -2 2.68 -2 2 C-1.34 2 -0.68 2 0 2 C0 1.34 0 0.68 0 0 Z " fill="#F1FAFB" transform="translate(19,69)"/>
<path d="M0 0 C0.99 0 1.98 0 3 0 C3.08121924 1.60332791 3.13929134 3.20784026 3.1875 4.8125 C3.23970703 6.15248047 3.23970703 6.15248047 3.29296875 7.51953125 C3 10 3 10 0 13 C0 8.71 0 4.42 0 0 Z " fill="#3B95D8" transform="translate(41,49)"/>
<path d="M0 0 C0.33 0.66 0.66 1.32 1 2 C1.99 2.33 2.98 2.66 4 3 C4 5.64 4 8.28 4 11 C2.68 10.67 1.36 10.34 0 10 C0 6.7 0 3.4 0 0 Z " fill="#39C2C6" transform="translate(115,52)"/>
<path d="M0 0 C2.31 0 4.62 0 7 0 C7 1.65 7 3.3 7 5 C4.69 5 2.38 5 0 5 C0 3.35 0 1.7 0 0 Z " fill="#3C3E8A" transform="translate(98,49)"/>
<path d="M0 0 C-0.33 2.64 -0.66 5.28 -1 8 C-3.97 7.67 -6.94 7.34 -10 7 C-10 6.67 -10 6.34 -10 6 C-8.02 5.67 -6.04 5.34 -4 5 C-3.67 3.68 -3.34 2.36 -3 1 C-5.31 1 -7.62 1 -10 1 C-10 0.67 -10 0.34 -10 0 C-6.33694766 -0.74926071 -3.57644848 -1.2380014 0 0 Z " fill="#93DAE9" transform="translate(16,34)"/>
<path d="M0 0 C1.07765625 0.10183594 2.1553125 0.20367187 3.265625 0.30859375 C4.08546875 0.39238281 4.9053125 0.47617188 5.75 0.5625 C5.75 1.2225 5.75 1.8825 5.75 2.5625 C0.47 2.5625 -4.81 2.5625 -10.25 2.5625 C-10.25 1.9025 -10.25 1.2425 -10.25 0.5625 C-6.70049966 -0.60056443 -3.69176052 -0.36115049 0 0 Z " fill="#99C0FE" transform="translate(68.25,118.4375)"/>
<path d="M0 0 C4.62 0 9.24 0 14 0 C14.33 1.32 14.66 2.64 15 4 C14.01 4 13.02 4 12 4 C12 3.34 12 2.68 12 2 C8.37 2 4.74 2 1 2 C0.67 1.34 0.34 0.68 0 0 Z " fill="#58DAD4" transform="translate(83,45)"/>
<path d="M0 0 C4.29 0 8.58 0 13 0 C12.01 0.33 11.02 0.66 10 1 C10 1.99 10 2.98 10 4 C6.7 4 3.4 4 0 4 C0.99 3.34 1.98 2.68 3 2 C2.01 1.34 1.02 0.68 0 0 Z " fill="#819BFE" transform="translate(102,67)"/>
<path d="M0 0 C0.6875 1.8125 0.6875 1.8125 1 4 C-0.0625 5.75 -0.0625 5.75 -2 7 C-5.1875 7.1875 -5.1875 7.1875 -8 7 C-8 6.01 -8 5.02 -8 4 C-4.535 3.505 -4.535 3.505 -1 3 C-0.67 2.01 -0.34 1.02 0 0 Z " fill="#3CD8D7" transform="translate(119,104)"/>
<path d="M0 0 C0.66 0 1.32 0 2 0 C1.69128878 1.79232337 1.37790936 3.58384321 1.0625 5.375 C0.88847656 6.37273437 0.71445312 7.37046875 0.53515625 8.3984375 C0 11 0 11 -1 13 C-1.66 13 -2.32 13 -3 13 C-2.52060632 8.28596212 -2.03165952 4.33420699 0 0 Z " fill="#D9F2F6" transform="translate(47,89)"/>
<path d="M0 0 C0.78375 0.639375 1.5675 1.27875 2.375 1.9375 C4.79539281 3.98142313 4.79539281 3.98142313 7 5 C7 5.66 7 6.32 7 7 C4.69 7 2.38 7 0 7 C-1.125 2.25 -1.125 2.25 0 0 Z " fill="#3ED2E0" transform="translate(106,107)"/>
<path d="M0 0 C0.33 0 0.66 0 1 0 C1 2.64 1 5.28 1 8 C-0.98 8 -2.96 8 -5 8 C-5.33 6.68 -5.66 5.36 -6 4 C-4.68 4 -3.36 4 -2 4 C-1.67 3.01 -1.34 2.02 -1 1 C-0.67 0.67 -0.34 0.34 0 0 Z " fill="#3ACFD1" transform="translate(59,89)"/>
<path d="M0 0 C1.67542976 0.28604898 3.34385343 0.61781233 5 1 C4.67 2.32 4.34 3.64 4 5 C2.68 5.33 1.36 5.66 0 6 C-0.38218767 4.34385343 -0.71395102 2.67542976 -1 1 C-0.67 0.67 -0.34 0.34 0 0 Z " fill="#49CFDC" transform="translate(22,67)"/>
<path d="M0 0 C0.99 0 1.98 0 3 0 C2.375 2.4375 2.375 2.4375 1 5 C-4.05263158 6.47368421 -4.05263158 6.47368421 -7 5 C-7 4.34 -7 3.68 -7 3 C-5.68 3 -4.36 3 -3 3 C-1.97980427 2.0206121 -0.97850195 1.02104551 0 0 Z " fill="#75DEE4" transform="translate(117,102)"/>
<path d="M0 0 C0 0.99 0 1.98 0 3 C-4.455 3.495 -4.455 3.495 -9 4 C-9.33 3.01 -9.66 2.02 -10 1 C-6.7 0.67 -3.4 0.34 0 0 Z " fill="#4ED2DA" transform="translate(43,101)"/>
<path d="M0 0 C0.33 0 0.66 0 1 0 C1.66 2.97 2.32 5.94 3 9 C1.35 9.33 -0.3 9.66 -2 10 C-1.85950482 8.52031676 -1.71245174 7.04125484 -1.5625 5.5625 C-1.48128906 4.73878906 -1.40007812 3.91507812 -1.31640625 3.06640625 C-1 1 -1 1 0 0 Z " fill="#6660FF" transform="translate(104,107)"/>
<path d="M0 0 C2.97 0 5.94 0 9 0 C9 1.32 9 2.64 9 4 C7.68 4 6.36 4 5 4 C4.67 4.66 4.34 5.32 4 6 C4 3 4 3 5 2 C3.35 2.33 1.7 2.66 0 3 C0 2.01 0 1.02 0 0 Z " fill="#39CFD9" transform="translate(17,59)"/>
<path d="M0 0 C0.66 0.66 1.32 1.32 2 2 C-0.475 3.485 -0.475 3.485 -3 5 C-3 4.34 -3 3.68 -3 3 C-4.98 3 -6.96 3 -9 3 C-9 2.34 -9 1.68 -9 1 C-7.54364629 0.77825067 -6.08477044 0.57301302 -4.625 0.375 C-3.40683594 0.20097656 -3.40683594 0.20097656 -2.1640625 0.0234375 C-1.44992188 0.01570313 -0.73578125 0.00796875 0 0 Z " fill="#8DDCE5" transform="translate(16,74)"/>
<path d="M0 0 C0 2.64 0 5.28 0 8 C-1.32 7.67 -2.64 7.34 -4 7 C-4.1875 4.625 -4.1875 4.625 -4 2 C-1 0 -1 0 0 0 Z " fill="#6B6EFE" transform="translate(127,93)"/>
<path d="M0 0 C2.33944736 0.28730055 4.6739143 0.61936779 7 1 C6.01 1.66 5.02 2.32 4 3 C3.01 4.485 3.01 4.485 2 6 C1.34 6 0.68 6 0 6 C-0.38218767 4.34385343 -0.71395102 2.67542976 -1 1 C-0.67 0.67 -0.34 0.34 0 0 Z " fill="#DBF3F7" transform="translate(18,65)"/>
<path d="M0 0 C1.32 0 2.64 0 4 0 C4 1.98 4 3.96 4 6 C2.68 6 1.36 6 0 6 C0 4.02 0 2.04 0 0 Z " fill="#3DB3DE" transform="translate(30,59)"/>
<path d="M0 0 C2.97 0 5.94 0 9 0 C9 0.66 9 1.32 9 2 C6.69 2 4.38 2 2 2 C2 2.66 2 3.32 2 4 C1.01 4 0.02 4 -1 4 C-0.67 2.68 -0.34 1.36 0 0 Z " fill="#31C2DE" transform="translate(42,45)"/>
<path d="M0 0 C1.65 0 3.3 0 5 0 C5 0.99 5 1.98 5 3 C6.98 3 8.96 3 11 3 C11 3.33 11 3.66 11 4 C6.83861737 4.08159574 3.0527516 3.98248524 -1 3 C-0.67 2.01 -0.34 1.02 0 0 Z " fill="#39C0C8" transform="translate(22,77)"/>
<path d="M0 0 C0.33 0 0.66 0 1 0 C1.75 2.75 1.75 2.75 2 6 C0.0625 8.375 0.0625 8.375 -2 10 C-2.25 3.375 -2.25 3.375 0 0 Z " fill="#4098EA" transform="translate(43,59)"/>
<path d="M0 0 C1.65 0 3.3 0 5 0 C5 0.99 5 1.98 5 3 C3.02 3.99 3.02 3.99 1 5 C1 4.34 1 3.68 1 3 C0.34 2.67 -0.32 2.34 -1 2 C-0.67 1.34 -0.34 0.68 0 0 Z " fill="#3DB5DF" transform="translate(48,86)"/>
<path d="M0 0 C0.66 0 1.32 0 2 0 C2 1.65 2 3.3 2 5 C2.66 5.33 3.32 5.66 4 6 C2.02 6.99 2.02 6.99 0 8 C-0.66 7.01 -1.32 6.02 -2 5 C-1.34 5 -0.68 5 0 5 C0 3.35 0 1.7 0 0 Z " fill="#FEFEFE" transform="translate(119,48)"/>
<path d="M0 0 C1.65 0 3.3 0 5 0 C5 2.64 5 5.28 5 8 C4.01 8.495 4.01 8.495 3 9 C3 6.69 3 4.38 3 2 C2.01 1.67 1.02 1.34 0 1 C0 0.67 0 0.34 0 0 Z " fill="#35D5CF" transform="translate(29,32)"/>
<path d="M0 0 C2.76276177 0.52268466 5.3260876 1.10869587 8 2 C8 2.66 8 3.32 8 4 C7.34 4 6.68 4 6 4 C5.67 4.66 5.34 5.32 5 6 C4.34 5.01 3.68 4.02 3 3 C2.01 3 1.02 3 0 3 C0 2.01 0 1.02 0 0 Z " fill="#35CADA" transform="translate(13,72)"/>
<path d="M0 0 C2.31 0 4.62 0 7 0 C6.67 1.32 6.34 2.64 6 4 C4.125 3.6875 4.125 3.6875 2 3 C1.34 2.01 0.68 1.02 0 0 Z " fill="#41C8E7" transform="translate(116,96)"/>
<path d="M0 0 C1.98 0.99 1.98 0.99 4 2 C4 2.99 4 3.98 4 5 C2 6.6875 2 6.6875 0 8 C0.185625 7.236875 0.37125 6.47375 0.5625 5.6875 C1.22819173 2.91032625 1.22819173 2.91032625 0 0 Z " fill="#E3F7F8" transform="translate(50,92)"/>
<path d="M0 0 C-0.66 1.65 -1.32 3.3 -2 5 C-1.34 5 -0.68 5 0 5 C-0.33 5.99 -0.66 6.98 -1 8 C-2.32 6.35 -3.64 4.7 -5 3 C-2.25 0 -2.25 0 0 0 Z " fill="#E1F4F8" transform="translate(43,92)"/>
<path d="M0 0 C-0.99 1.485 -0.99 1.485 -2 3 C-3.9453125 3.29296875 -3.9453125 3.29296875 -6.125 3.1875 C-7.40375 3.125625 -8.6825 3.06375 -10 3 C-6.68152292 -0.06320961 -4.44849969 -0.3033068 0 0 Z " fill="#46D8CF" transform="translate(50,102)"/>
<path d="M0 0 C0.99 0 1.98 0 3 0 C3.33 1.32 3.66 2.64 4 4 C2.35 4.33 0.7 4.66 -1 5 C-0.67 3.35 -0.34 1.7 0 0 Z " fill="#3CC4C8" transform="translate(47,97)"/>
<path d="M0 0 C0.66 0.33 1.32 0.66 2 1 C2.625 3.0625 2.625 3.0625 3 5 C1.35 5.33 -0.3 5.66 -2 6 C-1.34 4.02 -0.68 2.04 0 0 Z " fill="#56C9DC" transform="translate(49,91)"/>
<path d="M0 0 C2.97 0 5.94 0 9 0 C9 0.66 9 1.32 9 2 C6.03 2 3.06 2 0 2 C0 1.34 0 0.68 0 0 Z " fill="#EAEAF2" transform="translate(7,81)"/>
<path d="M0 0 C2.31 0 4.62 0 7 0 C6.0409375 0.433125 6.0409375 0.433125 5.0625 0.875 C2.84793921 1.82823451 2.84793921 1.82823451 2 4 C1.01 4 0.02 4 -1 4 C-0.67 2.68 -0.34 1.36 0 0 Z " fill="#46ADF5" transform="translate(106,96)"/>
<path d="M0 0 C2.97 0 5.94 0 9 0 C9 0.33 9 0.66 9 1 C6.03 1 3.06 1 0 1 C0 0.67 0 0.34 0 0 Z " fill="#EAEBF2" transform="translate(7,52)"/>
</svg>
