<?xml version="1.0" encoding="UTF-8"?>
<svg version="1.1" xmlns="http://www.w3.org/2000/svg" width="150" height="150">
<path d="M0 0 C0.495 2.475 0.495 2.475 1 5 C5.77762638 6.01687046 5.77762638 6.01687046 10.4375 5.0625 C10.953125 4.711875 11.46875 4.36125 12 4 C13.65 6.31 15.3 8.62 17 11 C16.01 11.99 15.02 12.98 14 14 C15.14339844 14.06058594 16.28679687 14.12117188 17.46484375 14.18359375 C18.95574305 14.26798428 20.44662775 14.35263302 21.9375 14.4375 C23.06961914 14.49647461 23.06961914 14.49647461 24.22460938 14.55664062 C29.88671875 14.88671875 29.88671875 14.88671875 31 16 C31.15825258 17.99782126 31.25119171 20.00088834 31.31640625 22.00390625 C31.37924805 23.82631836 31.37924805 23.82631836 31.44335938 25.68554688 C31.48267578 26.96494141 31.52199219 28.24433594 31.5625 29.5625 C31.60568359 30.84576172 31.64886719 32.12902344 31.69335938 33.45117188 C31.799848 36.63399853 31.90185962 39.81690674 32 43 C33.98 43 35.96 43 38 43 C38.33 44.98 38.66 46.96 39 49 C38.34 49 37.68 49 37 49 C37.226875 50.093125 37.45375 51.18625 37.6875 52.3125 C38 56 38 56 36.5625 57.9375 C36.046875 58.288125 35.53125 58.63875 35 59 C34.01 58.67 33.02 58.34 32 58 C31.608125 58.495 31.21625 58.99 30.8125 59.5 C28.44908285 61.45593143 26.98564997 61.24207973 24 61 C23.01 58.525 23.01 58.525 22 56 C20.68 56 19.36 56 18 56 C17.67 54.35 17.34 52.7 17 51 C17.66 51 18.32 51 19 51 C19.33 49.35 19.66 47.7 20 46 C18.35 45.67 16.7 45.34 15 45 C15 51.6 15 58.2 15 65 C17.31 65 19.62 65 22 65 C23 66 23 66 23.11352539 69.96899414 C23.1133662 71.74105607 23.10766785 73.5131226 23.09765625 75.28515625 C23.0962413 76.21597519 23.09482635 77.14679413 23.09336853 78.1058197 C23.08775172 81.09141191 23.0751964 84.07693029 23.0625 87.0625 C23.05748716 89.08137913 23.05292388 91.10025943 23.04882812 93.11914062 C23.03777683 98.07945572 23.02050095 103.03971532 23 108 C25.31 108.66 27.62 109.32 30 110 C29 112 29 112 27.34521484 112.61450195 C22.49200924 113.41225457 17.54404055 113.18590312 12.63769531 113.18530273 C10.63863013 113.18748512 8.63960468 113.20599143 6.640625 113.22460938 C5.36960937 113.22654297 4.09859375 113.22847656 2.7890625 113.23046875 C1.63100098 113.23457764 0.47293945 113.23868652 -0.72021484 113.24291992 C-4.11310954 112.99162245 -6.83332989 112.21173908 -10 111 C-9.67 110.34 -9.34 109.68 -9 109 C-6.4375 108.375 -6.4375 108.375 -4 108 C-4.67857056 107.99191315 -5.35714111 107.98382629 -6.05627441 107.97549438 C-13.19572947 107.88863335 -20.33493245 107.7891071 -27.47412109 107.68261719 C-30.12938188 107.64363425 -32.7845665 107.60971702 -35.43994141 107.578125 C-74.60123784 107.10647973 -74.60123784 107.10647973 -86 101 C-85.938125 100.21625 -85.87625 99.4325 -85.8125 98.625 C-85.874375 97.75875 -85.93625 96.8925 -86 96 C-88.71549154 93.69328085 -88.71549154 93.69328085 -91.1875 94.375 C-92.0846875 94.684375 -92.0846875 94.684375 -93 95 C-94.25664978 92.09399739 -95 90.20395416 -95 87 C-93.515 86.505 -93.515 86.505 -92 86 C-91.19032562 83.08517222 -90.78154007 81.53886783 -91.9375 78.6875 C-92.288125 78.130625 -92.63875 77.57375 -93 77 C-91.35 75.68 -89.7 74.36 -88 73 C-87.67 73.33 -87.34 73.66 -87 74 C-85.33382885 74.04063832 -83.66611905 74.042721 -82 74 C-81.34 72.68 -80.68 71.36 -80 70 C-79.34 70 -78.68 70 -78 70 C-78 67.36 -78 64.72 -78 62 C-82.29 62 -86.58 62 -91 62 C-91 57.05 -91 52.1 -91 47 C-92.98 47 -94.96 47 -97 47 C-97 46.34 -97 45.68 -97 45 C-95.02 45 -93.04 45 -91 45 C-91 44.01 -91 43.02 -91 42 C-92.98 41.67 -94.96 41.34 -97 41 C-97 40.67 -97 40.34 -97 40 C-90.73 40 -84.46 40 -78 40 C-78 38.35 -78 36.7 -78 35 C-84.27 35 -90.54 35 -97 35 C-97 34.67 -97 34.34 -97 34 C-94.525 33.505 -94.525 33.505 -92 33 C-91.67 31.68 -91.34 30.36 -91 29 C-92.98 29 -94.96 29 -97 29 C-97 28.67 -97 28.34 -97 28 C-95.35 27.67 -93.7 27.34 -92 27 C-91.67 25.68 -91.34 24.36 -91 23 C-92.98 23 -94.96 23 -97 23 C-97 22.67 -97 22.34 -97 22 C-95.35 21.67 -93.7 21.34 -92 21 C-91.67 19.68 -91.34 18.36 -91 17 C-92.98 17 -94.96 17 -97 17 C-97 16.67 -97 16.34 -97 16 C-91.11060037 13.95887931 -85.8280285 13.72721958 -79.625 13.8125 C-78.25408203 13.8134668 -78.25408203 13.8134668 -76.85546875 13.81445312 C-70.14064837 13.85935163 -70.14064837 13.85935163 -69 15 C-66.19023482 15.16017166 -63.40226404 15.25950534 -60.58984375 15.31640625 C-59.74780899 15.33718735 -58.90577423 15.35796844 -58.03822327 15.37937927 C-55.33806821 15.44496812 -52.63781283 15.50380276 -49.9375 15.5625 C-48.11131759 15.60567637 -46.28514546 15.64929036 -44.45898438 15.69335938 C-39.97276008 15.80065894 -35.4864345 15.90189966 -31 16 C-31 16.33 -31 16.66 -31 17 C-43.87 17 -56.74 17 -70 17 C-69.67 18.32 -69.34 19.64 -69 21 C-57.45 21.33 -45.9 21.66 -34 22 C-34 22.33 -34 22.66 -34 23 C-45.88 23 -57.76 23 -70 23 C-69.67 24.32 -69.34 25.64 -69 27 C-51.51 27 -34.02 27 -16 27 C-16.495 24.03 -16.495 24.03 -17 21 C-19.46255685 19.54708727 -19.46255685 19.54708727 -22 19 C-21.01 16.03 -20.02 13.06 -19 10 C-17.329375 10.061875 -17.329375 10.061875 -15.625 10.125 C-11.95633975 10.41121859 -11.95633975 10.41121859 -10 8 C-9.83318891 4.91652174 -9.83318891 4.91652174 -10 2 C-3.375 0 -3.375 0 0 0 Z M-8 14 C-10.2084626 17.31269391 -10.80664241 19.14978851 -10.5546875 23.0625 C-9.4812192 26.81207941 -7.28696911 28.01541488 -4 30 C-1.36163023 30.1672392 -1.36163023 30.1672392 1 30 C1.03738281 29.01257813 1.07476562 28.02515625 1.11328125 27.0078125 C1.17902344 25.72648437 1.24476562 24.44515625 1.3125 23.125 C1.37050781 21.84882812 1.42851563 20.57265625 1.48828125 19.2578125 C1.65714844 18.18273437 1.82601562 17.10765625 2 16 C2.99 15.34 3.98 14.68 5 14 C3.01607489 11.60148679 3.01607489 11.60148679 -0.8125 11.5625 C-4.17733329 11.66669338 -5.04370031 12.02913354 -8 14 Z M-70 29 C-70 29.66 -70 30.32 -70 31 C-67.69 31 -65.38 31 -63 31 C-63 30.34 -63 29.68 -63 29 C-65.31 29 -67.62 29 -70 29 Z M23 47 C22.6366844 49.83386167 22.6431329 51.40522151 24.125 53.875 C26.92151052 55.55290631 28.93690532 54.74875648 32 54 C32.67673447 50.59679066 32.67673447 50.59679066 33 47 C31.11499729 44.68436913 31.11499729 44.68436913 28 44.75 C24.88500271 44.68436913 24.88500271 44.68436913 23 47 Z M-84.25 80.625 C-86.21985834 82.92308586 -86.21985834 82.92308586 -86.5 86 C-86.21376982 89.06575838 -86.21376982 89.06575838 -84.3125 91.375 C-81.61209763 93.27258004 -80.22939919 93.35882213 -77 93 C-76.85024761 85.94348748 -76.85024761 85.94348748 -78 79 C-81.92212225 78.60967296 -81.92212225 78.60967296 -84.25 80.625 Z M-70 98 C-70.99 97.34 -71.98 96.68 -73 96 C-75.67145537 96.80161791 -75.67145537 96.80161791 -78 98 C-78 98.99 -78 99.98 -78 101 C-66.78 100.01 -55.56 99.02 -44 98 C-43.67 97.01 -43.34 96.02 -43 95 C-46.74985325 94.9128253 -50.49944555 94.85954997 -54.25 94.8125 C-55.31347656 94.78736328 -56.37695312 94.76222656 -57.47265625 94.73632812 C-59.00986328 94.72182617 -59.00986328 94.72182617 -60.578125 94.70703125 C-61.99206543 94.68346558 -61.99206543 94.68346558 -63.43457031 94.65942383 C-66.42310174 95.05616929 -67.77689217 96.01704271 -70 98 Z M-19 95 C-19 95.99 -19 96.98 -19 98 C-13.72 98.33 -8.44 98.66 -3 99 C-3 97.68 -3 96.36 -3 95 C-8.28 95 -13.56 95 -19 95 Z " fill="#5E52FD" transform="translate(104,18)"/>
<path d="M0 0 C2.31 0 4.62 0 7 0 C7 2.97 7 5.94 7 9 C10.3 9 13.6 9 17 9 C17 15.6 17 22.2 17 29 C12.71 29 8.42 29 4 29 C4 29.66 4 30.32 4 31 C12.79133718 32.42426407 12.79133718 32.42426407 29 32 C29 45.2 29 58.4 29 72 C31.31 72.66 33.62 73.32 36 74 C35 76 35 76 33.34521484 76.61450195 C28.49200924 77.41225457 23.54404055 77.18590312 18.63769531 77.18530273 C16.63863013 77.18748512 14.63960468 77.20599143 12.640625 77.22460938 C11.36960937 77.22654297 10.09859375 77.22847656 8.7890625 77.23046875 C7.63100098 77.23457764 6.47293945 77.23868652 5.27978516 77.24291992 C1.88689046 76.99162245 -0.83332989 76.21173908 -4 75 C-3.67 74.34 -3.34 73.68 -3 73 C-0.4375 72.375 -0.4375 72.375 2 72 C1.32142944 71.99191315 0.64285889 71.98382629 -0.05627441 71.97549438 C-7.19572947 71.88863335 -14.33493245 71.7891071 -21.47412109 71.68261719 C-24.12938188 71.64363425 -26.7845665 71.60971702 -29.43994141 71.578125 C-68.60123784 71.10647973 -68.60123784 71.10647973 -80 65 C-79.938125 64.21625 -79.87625 63.4325 -79.8125 62.625 C-79.874375 61.75875 -79.93625 60.8925 -80 60 C-82.71549154 57.69328085 -82.71549154 57.69328085 -85.1875 58.375 C-85.785625 58.58125 -86.38375 58.7875 -87 59 C-88.25664978 56.09399739 -89 54.20395416 -89 51 C-87.515 50.505 -87.515 50.505 -86 50 C-85.19032562 47.08517222 -84.78154007 45.53886783 -85.9375 42.6875 C-86.288125 42.130625 -86.63875 41.57375 -87 41 C-85.35 39.68 -83.7 38.36 -82 37 C-81.67 37.33 -81.34 37.66 -81 38 C-79.33382885 38.04063832 -77.66611905 38.042721 -76 38 C-75.34 36.68 -74.68 35.36 -74 34 C-73.34 34 -72.68 34 -72 34 C-72 36.97 -72 39.94 -72 43 C-72.969375 43.28875 -73.93875 43.5775 -74.9375 43.875 C-78.10664203 44.64214682 -78.10664203 44.64214682 -79 47 C-79.40270732 51.1283652 -79.40270732 51.1283652 -77.8125 54.8125 C-75.57968261 56.27538036 -73.62655933 56.64505955 -71 57 C-71 54.03 -71 51.06 -71 48 C-69.02 48 -67.04 48 -65 48 C-64.67 48.66 -64.34 49.32 -64 50 C-55.75 50 -47.5 50 -39 50 C-38.505 49.01 -38.505 49.01 -38 48 C-24.47 48 -10.94 48 3 48 C3 46.35 3 44.7 3 43 C-7.56 43 -18.12 43 -29 43 C-29.33 42.34 -29.66 41.68 -30 41 C-28.02 40.505 -28.02 40.505 -26 40 C-26 39.01 -26 38.02 -26 37 C-24.68 36.67 -23.36 36.34 -22 36 C-22.99 34.02 -22.99 34.02 -24 32 C-22.02 31.67 -20.04 31.34 -18 31 C-18 29.68 -18 28.36 -18 27 C-16.85660156 26.93941406 -15.71320313 26.87882812 -14.53515625 26.81640625 C-13.04425695 26.73201572 -11.55337225 26.64736698 -10.0625 26.5625 C-9.30775391 26.52318359 -8.55300781 26.48386719 -7.77539062 26.44335938 C-4.08055813 26.55961976 -4.08055813 26.55961976 -1 25 C-0.84213692 23.14825294 -0.74892644 21.2909089 -0.68359375 19.43359375 C-0.64169922 18.30888672 -0.59980469 17.18417969 -0.55664062 16.02539062 C-0.51732422 14.84138672 -0.47800781 13.65738281 -0.4375 12.4375 C-0.37272461 10.65569336 -0.37272461 10.65569336 -0.30664062 8.83789062 C-0.20016454 5.89205216 -0.09815159 2.9461257 0 0 Z M-64 62 C-64.99 61.34 -65.98 60.68 -67 60 C-69.67145537 60.80161791 -69.67145537 60.80161791 -72 62 C-72 62.99 -72 63.98 -72 65 C-60.78 64.01 -49.56 63.02 -38 62 C-37.67 61.01 -37.34 60.02 -37 59 C-40.74985325 58.9128253 -44.49944555 58.85954997 -48.25 58.8125 C-49.31347656 58.78736328 -50.37695312 58.76222656 -51.47265625 58.73632812 C-53.00986328 58.72182617 -53.00986328 58.72182617 -54.578125 58.70703125 C-55.99206543 58.68346558 -55.99206543 58.68346558 -57.43457031 58.65942383 C-60.42310174 59.05616929 -61.77689217 60.01704271 -64 62 Z M-13 59 C-13 59.99 -13 60.98 -13 62 C-7.72 62.33 -2.44 62.66 3 63 C3 61.68 3 60.36 3 59 C-2.28 59 -7.56 59 -13 59 Z " fill="#5F51EA" transform="translate(98,54)"/>
<path d="M0 0 C0.66 0 1.32 0 2 0 C2 2.97 2 5.94 2 9 C1.030625 9.28875 0.06125 9.5775 -0.9375 9.875 C-4.10664203 10.64214682 -4.10664203 10.64214682 -5 13 C-5.40270732 17.1283652 -5.40270732 17.1283652 -3.8125 20.8125 C-1.57968261 22.27538036 0.37344067 22.64505955 3 23 C3 20.03 3 17.06 3 14 C4.98 14 6.96 14 9 14 C9.33 14.66 9.66 15.32 10 16 C18.25 16 26.5 16 35 16 C35.33 15.34 35.66 14.68 36 14 C49.53 14 63.06 14 77 14 C77 17.63 77 21.26 77 25 C71.72 25 66.44 25 61 25 C61 25.99 61 26.98 61 28 C61.56847656 27.98839844 62.13695313 27.97679688 62.72265625 27.96484375 C67.60670484 27.90776806 72.18503965 28.18043228 77 29 C77 31.64 77 34.28 77 37 C69.71409984 37.04682155 62.42823335 37.08211748 55.14221191 37.10362434 C51.75718789 37.11395864 48.37226851 37.12792229 44.98730469 37.15087891 C5.93955462 37.39618997 5.93955462 37.39618997 -6 31 C-5.9071875 29.824375 -5.9071875 29.824375 -5.8125 28.625 C-5.874375 27.75875 -5.93625 26.8925 -6 26 C-8.71549154 23.69328085 -8.71549154 23.69328085 -11.1875 24.375 C-11.785625 24.58125 -12.38375 24.7875 -13 25 C-14.25664978 22.09399739 -15 20.20395416 -15 17 C-14.01 16.67 -13.02 16.34 -12 16 C-11.19032562 13.08517222 -10.78154007 11.53886783 -11.9375 8.6875 C-12.288125 8.130625 -12.63875 7.57375 -13 7 C-11.35 5.68 -9.7 4.36 -8 3 C-7.67 3.33 -7.34 3.66 -7 4 C-5.33382885 4.04063832 -3.66611905 4.042721 -2 4 C-1.34 2.68 -0.68 1.36 0 0 Z M10 28 C9.01 27.34 8.02 26.68 7 26 C4.32854463 26.80161791 4.32854463 26.80161791 2 28 C2 28.99 2 29.98 2 31 C13.22 30.01 24.44 29.02 36 28 C36.33 27.01 36.66 26.02 37 25 C33.25014675 24.9128253 29.50055445 24.85954997 25.75 24.8125 C24.68652344 24.78736328 23.62304688 24.76222656 22.52734375 24.73632812 C20.99013672 24.72182617 20.99013672 24.72182617 19.421875 24.70703125 C18.00793457 24.68346558 18.00793457 24.68346558 16.56542969 24.65942383 C13.57689826 25.05616929 12.22310783 26.01704271 10 28 Z " fill="#B2D0FE" transform="translate(24,88)"/>
<path d="M0 0 C16.83 0 33.66 0 51 0 C51 10.23 51 20.46 51 31 C34.17 31 17.34 31 0 31 C0 20.77 0 10.54 0 0 Z " fill="#474E94" transform="translate(44,47)"/>
<path d="M0 0 C0.33 1.65 0.66 3.3 1 5 C5.77762638 6.01687046 5.77762638 6.01687046 10.4375 5.0625 C10.953125 4.711875 11.46875 4.36125 12 4 C14.475 7.465 14.475 7.465 17 11 C16.01 11.99 15.02 12.98 14 14 C15.14339844 14.06058594 16.28679687 14.12117188 17.46484375 14.18359375 C18.95574305 14.26798428 20.44662775 14.35263302 21.9375 14.4375 C23.06961914 14.49647461 23.06961914 14.49647461 24.22460938 14.55664062 C29.88671875 14.88671875 29.88671875 14.88671875 31 16 C31.15825258 17.99782126 31.25119171 20.00088834 31.31640625 22.00390625 C31.35830078 23.21884766 31.40019531 24.43378906 31.44335938 25.68554688 C31.48267578 26.96494141 31.52199219 28.24433594 31.5625 29.5625 C31.60568359 30.84576172 31.64886719 32.12902344 31.69335938 33.45117188 C31.799848 36.63399853 31.90185962 39.81690674 32 43 C33.98 43 35.96 43 38 43 C38.495 45.97 38.495 45.97 39 49 C38.34 49 37.68 49 37 49 C37.3403125 50.6396875 37.3403125 50.6396875 37.6875 52.3125 C38 56 38 56 36.5625 57.9375 C36.046875 58.288125 35.53125 58.63875 35 59 C34.01 58.67 33.02 58.34 32 58 C31.608125 58.495 31.21625 58.99 30.8125 59.5 C28.44908285 61.45593143 26.98564997 61.24207973 24 61 C23.34 59.35 22.68 57.7 22 56 C20.68 56 19.36 56 18 56 C17.67 54.35 17.34 52.7 17 51 C17.66 51 18.32 51 19 51 C19.33 49.35 19.66 47.7 20 46 C18.35 45.67 16.7 45.34 15 45 C14.690625 43.88625 14.38125 42.7725 14.0625 41.625 C13.17673517 38.2054845 13.17673517 38.2054845 12 36 C12.66 36 13.32 36 14 36 C13.67 34.35 13.34 32.7 13 31 C6.73 31 0.46 31 -6 31 C-6 30.34 -6 29.68 -6 29 C-3.69 29.33 -1.38 29.66 1 30 C0.94779297 28.51886719 0.94779297 28.51886719 0.89453125 27.0078125 C0.86746094 25.72648437 0.84039062 24.44515625 0.8125 23.125 C0.76029297 21.21074219 0.76029297 21.21074219 0.70703125 19.2578125 C0.80371094 18.18273437 0.90039062 17.10765625 1 16 C1.99 15.34 2.98 14.68 4 14 C2.78410016 12.56844101 2.78410016 12.56844101 -0.8125 12.6875 C-3.78617685 12.74622611 -4.87751147 12.92650688 -7.5 14.5 C-9.71177972 18.18629954 -9.34421275 20.73176192 -9 25 C-8.67 25.66 -8.34 26.32 -8 27 C-10.31 27 -12.62 27 -15 27 C-15.226875 26.05125 -15.45375 25.1025 -15.6875 24.125 C-16.69083714 20.80676612 -16.69083714 20.80676612 -19.625 19.625 C-20.800625 19.315625 -20.800625 19.315625 -22 19 C-21.01 16.03 -20.02 13.06 -19 10 C-17.329375 10.061875 -17.329375 10.061875 -15.625 10.125 C-11.95633975 10.41121859 -11.95633975 10.41121859 -10 8 C-9.83318891 4.91652174 -9.83318891 4.91652174 -10 2 C-3.375 0 -3.375 0 0 0 Z M23 47 C22.6366844 49.83386167 22.6431329 51.40522151 24.125 53.875 C26.92151052 55.55290631 28.93690532 54.74875648 32 54 C32.67673447 50.59679066 32.67673447 50.59679066 33 47 C31.11499729 44.68436913 31.11499729 44.68436913 28 44.75 C24.88500271 44.68436913 24.88500271 44.68436913 23 47 Z " fill="#36DBC7" transform="translate(104,18)"/>
<path d="M0 0 C0.495 1.98 0.495 1.98 1 4 C1.57032959 3.96447021 2.14065918 3.92894043 2.72827148 3.89233398 C5.29771664 3.73529923 7.86756512 3.58629537 10.4375 3.4375 C11.78424805 3.35338867 11.78424805 3.35338867 13.15820312 3.26757812 C14.01220703 3.21923828 14.86621094 3.17089844 15.74609375 3.12109375 C16.53685303 3.0739624 17.3276123 3.02683105 18.14233398 2.97827148 C20 3 20 3 21 4 C21.042721 5.66611905 21.04063832 7.33382885 21 9 C21 9.66 21 10.32 21 11 C21.495 11.495 21.495 11.495 22 12 C22.08748207 13.92667507 22.10697334 15.85651861 22.09765625 17.78515625 C22.09282227 19.53989258 22.09282227 19.53989258 22.08789062 21.33007812 C22.07532227 23.17762695 22.07532227 23.17762695 22.0625 25.0625 C22.05798828 26.29806641 22.05347656 27.53363281 22.04882812 28.80664062 C22.03699608 31.87114117 22.02051173 34.93554721 22 38 C24.31 38 26.62 38 29 38 C29.33 38.99 29.66 39.98 30 41 C21.19039858 42.30512614 12.80960142 42.30512614 4 41 C4.33 40.01 4.66 39.02 5 38 C9.29 38 13.58 38 18 38 C18 31.4 18 24.8 18 18 C14.7 18 11.4 18 8 18 C8 15.03 8 12.06 8 9 C5.69 9 3.38 9 1 9 C1.01571045 10.12027588 1.01571045 10.12027588 1.03173828 11.26318359 C1.0732077 14.63375508 1.09929729 18.004273 1.125 21.375 C1.14175781 22.550625 1.15851563 23.72625 1.17578125 24.9375 C1.18544922 26.61972656 1.18544922 26.61972656 1.1953125 28.3359375 C1.21102295 29.89127197 1.21102295 29.89127197 1.22705078 31.47802734 C1 34 1 34 -1 36 C-3.23913574 36.25396729 -3.23913574 36.25396729 -6.06054688 36.25878906 C-7.64228699 36.26824554 -7.64228699 36.26824554 -9.25598145 36.27789307 C-10.39869507 36.2738446 -11.54140869 36.26979614 -12.71875 36.265625 C-14.47197571 36.26849518 -14.47197571 36.26849518 -16.26062012 36.27142334 C-18.73543513 36.27278626 -21.21025726 36.26908241 -23.68505859 36.26074219 C-27.48421205 36.25004446 -31.28289259 36.26063418 -35.08203125 36.2734375 C-37.48177188 36.27211592 -39.88151222 36.26955357 -42.28125 36.265625 C-43.99532043 36.27169769 -43.99532043 36.27169769 -45.74401855 36.27789307 C-46.79851196 36.27158875 -47.85300537 36.26528442 -48.93945312 36.25878906 C-49.8705188 36.25719788 -50.80158447 36.25560669 -51.76086426 36.25396729 C-54 36 -54 36 -56 34 C-56.22705078 31.01904297 -56.22705078 31.01904297 -56.1953125 27.2421875 C-56.1924826 26.57913605 -56.18965271 25.91608459 -56.18673706 25.23294067 C-56.17553435 23.11344417 -56.15043051 20.99436896 -56.125 18.875 C-56.11497028 17.43880818 -56.10584441 16.00260975 -56.09765625 14.56640625 C-56.075595 11.04413372 -56.04106494 7.52210797 -56 4 C-55.01 4 -54.02 4 -53 4 C-53 13.57 -53 23.14 -53 33 C-36.17 33 -19.34 33 -2 33 C-2 22.77 -2 12.54 -2 2 C-13.88 2 -25.76 2 -38 2 C-38 1.34 -38 0.68 -38 0 C-34.03506717 -0.16944814 -30.06987381 -0.32978229 -26.10424805 -0.48217773 C-24.10251279 -0.5609259 -22.10105398 -0.6466034 -20.09960938 -0.73242188 C-13.2630776 -0.99072912 -6.77197496 -1.00353087 0 0 Z " fill="#37D7C8" transform="translate(97,45)"/>
<path d="M0 0 C2.31 0 4.62 0 7 0 C7 2.97 7 5.94 7 9 C10.3 9 13.6 9 17 9 C17 15.6 17 22.2 17 29 C12.71 29 8.42 29 4 29 C3.67 33.62 3.34 38.24 3 43 C-7.56 43 -18.12 43 -29 43 C-29.33 42.34 -29.66 41.68 -30 41 C-28.02 40.505 -28.02 40.505 -26 40 C-26 39.01 -26 38.02 -26 37 C-24.02 36.505 -24.02 36.505 -22 36 C-22.66 34.68 -23.32 33.36 -24 32 C-22.02 31.67 -20.04 31.34 -18 31 C-18 29.68 -18 28.36 -18 27 C-16.85660156 26.93941406 -15.71320313 26.87882812 -14.53515625 26.81640625 C-13.04425695 26.73201572 -11.55337225 26.64736698 -10.0625 26.5625 C-9.30775391 26.52318359 -8.55300781 26.48386719 -7.77539062 26.44335938 C-4.08055813 26.55961976 -4.08055813 26.55961976 -1 25 C-0.84213692 23.14825294 -0.74892644 21.2909089 -0.68359375 19.43359375 C-0.64169922 18.30888672 -0.59980469 17.18417969 -0.55664062 16.02539062 C-0.51732422 14.84138672 -0.47800781 13.65738281 -0.4375 12.4375 C-0.39431641 11.24962891 -0.35113281 10.06175781 -0.30664062 8.83789062 C-0.20016454 5.89205216 -0.09815159 2.9461257 0 0 Z " fill="#7080FD" transform="translate(98,54)"/>
<path d="M0 0 C0.66 0 1.32 0 2 0 C2 2.97 2 5.94 2 9 C1.030625 9.28875 0.06125 9.5775 -0.9375 9.875 C-4.10664203 10.64214682 -4.10664203 10.64214682 -5 13 C-5.44441024 17.03412338 -5.44441024 17.03412338 -3.85546875 20.58984375 C-1.37270941 22.47674085 0.90436033 22.94263731 3.9375 23.625 C5.49791016 23.98464844 5.49791016 23.98464844 7.08984375 24.3515625 C8.05019531 24.56554687 9.01054688 24.77953125 10 25 C11.33448534 25.32869097 12.66838271 25.65987607 14 26 C12.68 26.99 11.36 27.98 10 29 C9.01 28.34 8.02 27.68 7 27 C4.35367713 27.3121764 4.35367713 27.3121764 2 28 C2 28.99 2 29.98 2 31 C2.57540527 30.86287598 3.15081055 30.72575195 3.74365234 30.58447266 C10.71648718 29.04308011 17.49959266 28.58278831 24.625 28.375 C25.72457031 28.33632812 26.82414062 28.29765625 27.95703125 28.2578125 C30.63786459 28.16456612 33.3187089 28.07876733 36 28 C35.67 28.66 35.34 29.32 35 30 C32.35139573 30.59355614 29.70802678 30.74209269 27 31 C27 31.66 27 32.32 27 33 C41.19 33 55.38 33 70 33 C69.67 32.34 69.34 31.68 69 31 C67.845 30.835 66.69 30.67 65.5 30.5 C64.345 30.335 63.19 30.17 62 30 C61.505 29.01 61.505 29.01 61 28 C66.45769811 27.88861841 71.61509359 28.08342019 77 29 C77 31.64 77 34.28 77 37 C69.71409984 37.04682155 62.42823335 37.08211748 55.14221191 37.10362434 C51.75718789 37.11395864 48.37226851 37.12792229 44.98730469 37.15087891 C5.93955462 37.39618997 5.93955462 37.39618997 -6 31 C-5.9071875 29.824375 -5.9071875 29.824375 -5.8125 28.625 C-5.874375 27.75875 -5.93625 26.8925 -6 26 C-8.71549154 23.69328085 -8.71549154 23.69328085 -11.1875 24.375 C-11.785625 24.58125 -12.38375 24.7875 -13 25 C-14.25664978 22.09399739 -15 20.20395416 -15 17 C-14.01 16.67 -13.02 16.34 -12 16 C-11.19032562 13.08517222 -10.78154007 11.53886783 -11.9375 8.6875 C-12.288125 8.130625 -12.63875 7.57375 -13 7 C-11.35 5.68 -9.7 4.36 -8 3 C-7.67 3.33 -7.34 3.66 -7 4 C-5.33382885 4.04063832 -3.66611905 4.042721 -2 4 C-1.34 2.68 -0.68 1.36 0 0 Z " fill="#EAEBF2" transform="translate(24,88)"/>
<path d="M0 0 C1.37091797 0.0009668 1.37091797 0.0009668 2.76953125 0.00195312 C9.48435163 0.04685163 9.48435163 0.04685163 10.625 1.1875 C13.43476518 1.34767166 16.22273596 1.44700534 19.03515625 1.50390625 C19.87719101 1.52468735 20.71922577 1.54546844 21.58677673 1.56687927 C24.28693179 1.63246812 26.98718717 1.69130276 29.6875 1.75 C31.51368241 1.79317637 33.33985454 1.83679036 35.16601562 1.88085938 C39.65223992 1.98815894 44.1385655 2.08939966 48.625 2.1875 C48.625 2.5175 48.625 2.8475 48.625 3.1875 C35.755 3.1875 22.885 3.1875 9.625 3.1875 C9.955 4.5075 10.285 5.8275 10.625 7.1875 C22.175 7.5175 33.725 7.8475 45.625 8.1875 C45.625 8.5175 45.625 8.8475 45.625 9.1875 C33.745 9.1875 21.865 9.1875 9.625 9.1875 C9.955 10.5075 10.285 11.8275 10.625 13.1875 C18.545 13.1875 26.465 13.1875 34.625 13.1875 C34.625 13.8475 34.625 14.5075 34.625 15.1875 C29.675 15.1875 24.725 15.1875 19.625 15.1875 C19.625 15.8475 19.625 16.5075 19.625 17.1875 C18.635 17.1875 17.645 17.1875 16.625 17.1875 C16.625 16.5275 16.625 15.8675 16.625 15.1875 C14.315 15.1875 12.005 15.1875 9.625 15.1875 C9.625 17.1675 9.625 19.1475 9.625 21.1875 C0.715 21.1875 -8.195 21.1875 -17.375 21.1875 C-17.375 20.8575 -17.375 20.5275 -17.375 20.1875 C-15.725 19.8575 -14.075 19.5275 -12.375 19.1875 C-12.045 17.8675 -11.715 16.5475 -11.375 15.1875 C-13.355 15.1875 -15.335 15.1875 -17.375 15.1875 C-17.375 14.8575 -17.375 14.5275 -17.375 14.1875 C-15.725 13.8575 -14.075 13.5275 -12.375 13.1875 C-12.045 11.8675 -11.715 10.5475 -11.375 9.1875 C-13.355 9.1875 -15.335 9.1875 -17.375 9.1875 C-17.375 8.8575 -17.375 8.5275 -17.375 8.1875 C-15.725 7.8575 -14.075 7.5275 -12.375 7.1875 C-12.045 5.8675 -11.715 4.5475 -11.375 3.1875 C-13.355 3.1875 -15.335 3.1875 -17.375 3.1875 C-17.375 2.8575 -17.375 2.5275 -17.375 2.1875 C-11.48560037 0.14637931 -6.2030285 -0.08528042 0 0 Z " fill="#99E3DF" transform="translate(24.375,31.8125)"/>
<path d="M0 0 C1.12019531 -0.00128906 2.24039063 -0.00257812 3.39453125 -0.00390625 C4.57402344 -0.00003906 5.75351562 0.00382812 6.96875 0.0078125 C8.73798828 0.00201172 8.73798828 0.00201172 10.54296875 -0.00390625 C12.22326172 -0.00197266 12.22326172 -0.00197266 13.9375 0 C14.97326172 0.00112793 16.00902344 0.00225586 17.07617188 0.00341797 C19.46875 0.1328125 19.46875 0.1328125 20.46875 1.1328125 C20.56861975 3.97616298 20.60752881 6.78978413 20.59375 9.6328125 C20.59955078 10.82970703 20.59955078 10.82970703 20.60546875 12.05078125 C20.59535767 18.00620483 20.59535767 18.00620483 19.46875 19.1328125 C17.62715977 19.23240871 15.78178033 19.26361661 13.9375 19.265625 C12.81730469 19.26691406 11.69710937 19.26820312 10.54296875 19.26953125 C9.36347656 19.26566406 8.18398438 19.26179688 6.96875 19.2578125 C5.19951172 19.26361328 5.19951172 19.26361328 3.39453125 19.26953125 C1.71423828 19.26759766 1.71423828 19.26759766 0 19.265625 C-1.03576172 19.26449707 -2.07152344 19.26336914 -3.13867188 19.26220703 C-5.53125 19.1328125 -5.53125 19.1328125 -6.53125 18.1328125 C-6.63111975 15.28946202 -6.67002881 12.47584087 -6.65625 9.6328125 C-6.66011719 8.83488281 -6.66398437 8.03695312 -6.66796875 7.21484375 C-6.65573175 0.007248 -6.65573175 0.007248 0 0 Z " fill="#37D6C8" transform="translate(39.53125,85.8671875)"/>
<path d="M0 0 C1.60246582 0.03927612 1.60246582 0.03927612 3.23730469 0.0793457 C4.97753906 0.10351562 4.97753906 0.10351562 6.75292969 0.12817383 C7.95949219 0.17006836 9.16605469 0.21196289 10.40917969 0.25512695 C12.24222656 0.28896484 12.24222656 0.28896484 14.11230469 0.32348633 C17.12916471 0.38240938 20.14355483 0.4646343 23.15917969 0.56762695 C23.15917969 1.22762695 23.15917969 1.88762695 23.15917969 2.56762695 C23.81917969 2.89762695 24.47917969 3.22762695 25.15917969 3.56762695 C24.16917969 5.05262695 24.16917969 5.05262695 23.15917969 6.56762695 C20.53417969 6.75512695 20.53417969 6.75512695 18.15917969 6.56762695 C18.81917969 7.88762695 19.47917969 9.20762695 20.15917969 10.56762695 C18.50917969 10.89762695 16.85917969 11.22762695 15.15917969 11.56762695 C15.48917969 12.55762695 15.81917969 13.54762695 16.15917969 14.56762695 C14.83917969 14.89762695 13.51917969 15.22762695 12.15917969 15.56762695 C27.99917969 16.06262695 27.99917969 16.06262695 44.15917969 16.56762695 C44.15917969 18.21762695 44.15917969 19.86762695 44.15917969 21.56762695 C30.62917969 21.56762695 17.09917969 21.56762695 3.15917969 21.56762695 C2.82917969 16.61762695 2.49917969 11.66762695 2.15917969 6.56762695 C-0.81082031 6.23762695 -3.78082031 5.90762695 -6.84082031 5.56762695 C-3.66912327 0.73313094 -3.66912327 0.73313094 0 0 Z " fill="#6B71FE" transform="translate(56.8408203125,80.432373046875)"/>
<path d="M0 0 C1.98 0 3.96 0 6 0 C6.33 0.66 6.66 1.32 7 2 C15.25 2 23.5 2 32 2 C32.33 1.34 32.66 0.68 33 0 C38.94 0 44.88 0 51 0 C52.1092007 4.43680282 51.86005602 5.92559158 50 10 C46.23731011 12.87174858 41.57780392 12.28746673 37.0703125 12.265625 C36.20236053 12.26753845 35.33440857 12.2694519 34.44015503 12.27142334 C32.60609649 12.27278271 30.77202826 12.26910358 28.93798828 12.26074219 C26.14203041 12.25006504 23.34671884 12.26063243 20.55078125 12.2734375 C18.76562359 12.27211535 16.98046633 12.26955182 15.1953125 12.265625 C14.36387726 12.26967346 13.53244202 12.27372192 12.67581177 12.27789307 C8.05704277 12.24091598 4.34740407 11.76276863 0 10 C0 6.7 0 3.4 0 0 Z " fill="#BED7FE" transform="translate(27,102)"/>
<path d="M0 0 C3.0000624 -0.02721831 5.99987256 -0.04694378 9 -0.0625 C9.83917969 -0.07087891 10.67835937 -0.07925781 11.54296875 -0.08789062 C12.79013672 -0.09272461 12.79013672 -0.09272461 14.0625 -0.09765625 C15.19365234 -0.10551147 15.19365234 -0.10551147 16.34765625 -0.11352539 C19.91451913 0.03914317 23.45744034 0.55718004 27 1 C27 7.93 27 14.86 27 22 C20.07 22 13.14 22 6 22 C6 17.05 6 12.1 6 7 C4.02 7 2.04 7 0 7 C0 6.34 0 5.68 0 5 C1.98 5 3.96 5 6 5 C6 4.01 6 3.02 6 2 C3.03 1.505 3.03 1.505 0 1 C0 0.67 0 0.34 0 0 Z " fill="#35D1D4" transform="translate(7,58)"/>
<path d="M0 0 C0 12.54 0 25.08 0 38 C-8.25 38 -16.5 38 -25 38 C-25.125 24.25 -25.125 24.25 -24 22 C-23.34 22 -22.68 22 -22 22 C-21.67 23.65 -21.34 25.3 -21 27 C-15.72 27 -10.44 27 -5 27 C-4.67 21.39 -4.34 15.78 -4 10 C-7.3 10 -10.6 10 -14 10 C-14 9.34 -14 8.68 -14 8 C-13.01 7.67 -12.02 7.34 -11 7 C-10.29848848 5.6846659 -9.63474075 4.34882408 -9 3 C-6.22801333 -0.88078133 -5.48460883 0 0 0 Z " fill="#7286FE" transform="translate(127,86)"/>
<path d="M0 0 C0.33 1.65 0.66 3.3 1 5 C5.77762638 6.01687046 5.77762638 6.01687046 10.4375 5.0625 C10.953125 4.711875 11.46875 4.36125 12 4 C14.475 7.465 14.475 7.465 17 11 C15.25971934 13.32037422 13.95863243 14.83707038 11.0234375 15.3359375 C8.875 15.375 8.875 15.375 5 15 C4.34 14.34 3.68 13.68 3 13 C-2.54235245 12.42765564 -2.54235245 12.42765564 -7.5 14.5 C-9.71177972 18.18629954 -9.34421275 20.73176192 -9 25 C-8.67 25.66 -8.34 26.32 -8 27 C-10.31 27 -12.62 27 -15 27 C-15.226875 26.05125 -15.45375 25.1025 -15.6875 24.125 C-16.69083714 20.80676612 -16.69083714 20.80676612 -19.625 19.625 C-20.800625 19.315625 -20.800625 19.315625 -22 19 C-21.01 16.03 -20.02 13.06 -19 10 C-17.329375 10.061875 -17.329375 10.061875 -15.625 10.125 C-11.95633975 10.41121859 -11.95633975 10.41121859 -10 8 C-9.83318891 4.91652174 -9.83318891 4.91652174 -10 2 C-3.375 0 -3.375 0 0 0 Z " fill="#E9EAF1" transform="translate(104,18)"/>
<path d="M0 0 C0 2.33333333 0 4.66666667 0 7 C0.33 7.33 0.66 7.66 1 8 C1.08748207 9.92667507 1.10697334 11.85651861 1.09765625 13.78515625 C1.09443359 14.95498047 1.09121094 16.12480469 1.08789062 17.33007812 C1.07951172 18.56177734 1.07113281 19.79347656 1.0625 21.0625 C1.05798828 22.29806641 1.05347656 23.53363281 1.04882812 24.80664062 C1.03699608 27.87114117 1.02051173 30.93554721 1 34 C3.31 34 5.62 34 8 34 C8.33 34.99 8.66 35.98 9 37 C0.19039858 38.30512614 -8.19039858 38.30512614 -17 37 C-16.67 36.01 -16.34 35.02 -16 34 C-11.71 34 -7.42 34 -3 34 C-3 27.4 -3 20.8 -3 14 C-6.3 14 -9.6 14 -13 14 C-13 11.03 -13 8.06 -13 5 C-15.31 5 -17.62 5 -20 5 C-20 3.35 -20 1.7 -20 0 C-17.41703983 -0.19522373 -14.83395921 -0.38144403 -12.25 -0.5625 C-11.52039063 -0.61857422 -10.79078125 -0.67464844 -10.0390625 -0.73242188 C-6.45046349 -0.97709908 -3.44972775 -0.99666259 0 0 Z " fill="#39C7D7" transform="translate(118,49)"/>
<path d="M0 0 C1.58206057 0.00667536 3.16410534 0.0186375 4.74609375 0.03515625 C5.55240234 0.03966797 6.35871094 0.04417969 7.18945312 0.04882812 C9.18753131 0.06065107 11.18557158 0.07858711 13.18359375 0.09765625 C13.21043687 2.91021906 13.23035563 5.72252866 13.24609375 8.53515625 C13.25447266 9.33759766 13.26285156 10.14003906 13.27148438 10.96679688 C13.28010805 13.01060846 13.23587525 15.05449527 13.18359375 17.09765625 C11.36243372 18.91881628 8.87687611 18.23000705 6.45703125 18.234375 C5.70679687 18.23050781 4.9565625 18.22664063 4.18359375 18.22265625 C3.05824219 18.22845703 3.05824219 18.22845703 1.91015625 18.234375 C-3.68979572 18.22426678 -3.68979572 18.22426678 -4.81640625 17.09765625 C-4.91621839 14.42034245 -4.955205 11.7746145 -4.94140625 9.09765625 C-4.94527344 8.34742187 -4.94914062 7.5971875 -4.953125 6.82421875 C-4.94103514 0.12643386 -4.94103514 0.12643386 0 0 Z " fill="#AEE7EE" transform="translate(109.81640625,95.90234375)"/>
<path d="M0 0 C5.61 0 11.22 0 17 0 C17 5.61 17 11.22 17 17 C11.39 17 5.78 17 0 17 C0 11.33333333 0 5.66666667 0 0 Z " fill="#3D4D9A" transform="translate(15,34)"/>
<path d="M0 0 C1.25554687 -0.00128906 2.51109375 -0.00257812 3.8046875 -0.00390625 C4.46178711 -0.00181152 5.11888672 0.0002832 5.79589844 0.00244141 C7.80411335 0.00779016 9.81210459 0.00249559 11.8203125 -0.00390625 C13.07585937 -0.00261719 14.33140625 -0.00132813 15.625 0 C16.78644531 0.00112793 17.94789063 0.00225586 19.14453125 0.00341797 C21.8125 0.1328125 21.8125 0.1328125 22.8125 1.1328125 C22.93744616 2.75420687 22.98821624 4.38165372 23 6.0078125 C23.01417969 6.89210938 23.02835938 7.77640625 23.04296875 8.6875 C22.8125 11.1328125 22.8125 11.1328125 20.8125 14.1328125 C20.4825 13.1428125 20.1525 12.1528125 19.8125 11.1328125 C19.049375 11.0503125 18.28625 10.9678125 17.5 10.8828125 C14.8125 10.1328125 14.8125 10.1328125 13.3125 8.0703125 C11.95867759 5.88695411 11.95867759 5.88695411 9.375 5.6328125 C6.0723368 6.27723459 5.08841618 7.71465156 2.8125 10.1328125 C0.375 11.2578125 0.375 11.2578125 -2.1875 12.1328125 C-3.85618683 12.7944064 -5.52314275 13.46040105 -7.1875 14.1328125 C-7.21435938 11.98704613 -7.23383088 9.84118605 -7.25 7.6953125 C-7.26160156 6.50035156 -7.27320312 5.30539063 -7.28515625 4.07421875 C-7.11114431 -1.16702086 -4.66394941 0.00452936 0 0 Z " fill="#39D5D1" transform="translate(112.1875,32.8671875)"/>
<path d="M0 0 C6.27 0 12.54 0 19 0 C19.33 2.64 19.66 5.28 20 8 C20.99 8 21.98 8 23 8 C22.67 10.97 22.34 13.94 22 17 C20.35 17 18.7 17 17 17 C17 17.66 17 18.32 17 19 C15.68 18.67 14.36 18.34 13 18 C13 17.34 13 16.68 13 16 C12.01 15.67 11.02 15.34 10 15 C10.33 12.36 10.66 9.72 11 7 C10.01 7.33 9.02 7.66 8 8 C8 9.32 8 10.64 8 12 C7.34 12 6.68 12 6 12 C6 10.35 6 8.7 6 7 C4.02 7 2.04 7 0 7 C0 6.34 0 5.68 0 5 C1.98 5 3.96 5 6 5 C6 4.01 6 3.02 6 2 C3.03 1.505 3.03 1.505 0 1 C0 0.67 0 0.34 0 0 Z " fill="#67D3E2" transform="translate(7,58)"/>
<path d="M0 0 C2.5 0.375 2.5 0.375 4.3125 1.75 C5.5 3.375 5.5 3.375 5.5 5.375 C7.15 5.375 8.8 5.375 10.5 5.375 C10.995 7.355 10.995 7.355 11.5 9.375 C7.54 9.375 3.58 9.375 -0.5 9.375 C-0.5 11.685 -0.5 13.995 -0.5 16.375 C0.49 16.705 1.48 17.035 2.5 17.375 C1.51 18.365 0.52 19.355 -0.5 20.375 C-4.375 18.625 -4.375 18.625 -5.5 16.375 C-4.84 16.375 -4.18 16.375 -3.5 16.375 C-3.83 14.725 -4.16 13.075 -4.5 11.375 C-10.77 11.375 -17.04 11.375 -23.5 11.375 C-23.5 10.715 -23.5 10.055 -23.5 9.375 C-22.46875 9.4575 -21.4375 9.54 -20.375 9.625 C-15.83323546 9.33198293 -14.10542086 8.03987629 -10.5 5.375 C-9.613125 5.024375 -8.72625 4.67375 -7.8125 4.3125 C-5.4405094 3.54211637 -5.4405094 3.54211637 -4 1.75 C-2.5 0.375 -2.5 0.375 0 0 Z " fill="#F8FDFD" transform="translate(121.5,37.625)"/>
<path d="M0 0 C1.916588 -0.02712153 3.8332873 -0.04645097 5.75 -0.0625 C7.35101563 -0.07990234 7.35101563 -0.07990234 8.984375 -0.09765625 C13.68797428 0.05466238 13.68797428 0.05466238 16 1 C16.33 1.99 16.66 2.98 17 4 C21.95 4.33 26.9 4.66 32 5 C32.495 6.485 32.495 6.485 33 8 C18.81 8 4.62 8 -10 8 C-10 7.34 -10 6.68 -10 6 C-7.98177083 5.609375 -5.96354167 5.21875 -3.9453125 4.828125 C-1.80995329 4.14287884 -1.80995329 4.14287884 -0.7421875 1.921875 C-0.49726562 1.28765625 -0.25234375 0.6534375 0 0 Z " fill="#A1C4FE" transform="translate(61,113)"/>
<path d="M0 0 C13.53 0 27.06 0 41 0 C41 1.65 41 3.3 41 5 C27.47 5 13.94 5 0 5 C0 3.35 0 1.7 0 0 Z " fill="#3C3D89" transform="translate(60,97)"/>
<path d="M0 0 C0.33 1.65 0.66 3.3 1 5 C-0.65 5.66 -2.3 6.32 -4 7 C-3.67 7.99 -3.34 8.98 -3 10 C-4.28965176 11.37562854 -5.62689293 12.70766393 -7 14 C-7.66 14 -8.32 14 -9 14 C-9 13.01 -9 12.02 -9 11 C-9.99 11.33 -10.98 11.66 -12 12 C-12.33 12.99 -12.66 13.98 -13 15 C-17.47446744 13.80680868 -19.41870739 12.81380169 -22 9 C-14.8258969 2.19006457 -9.93702209 -0.34265593 0 0 Z " fill="#43BDDC" transform="translate(59,86)"/>
<path d="M0 0 C0.99 0 1.98 0 3 0 C3 9.57 3 19.14 3 29 C10.92 29 18.84 29 27 29 C27 29.33 27 29.66 27 30 C40.86 30.495 40.86 30.495 55 31 C55 31.33 55 31.66 55 32 C47.48863592 32.05057965 39.97731551 32.08568257 32.46582031 32.10986328 C29.90883747 32.11994038 27.35186621 32.13360226 24.79492188 32.15087891 C21.12627308 32.17505217 17.45777621 32.18646585 13.7890625 32.1953125 C12.0655809 32.21079636 12.0655809 32.21079636 10.30728149 32.22659302 C9.2463327 32.22674408 8.18538391 32.22689514 7.09228516 32.22705078 C6.15518707 32.231492 5.21808899 32.23593323 4.25259399 32.24050903 C2 32 2 32 0 30 C-0.22705078 27.01904297 -0.22705078 27.01904297 -0.1953125 23.2421875 C-0.1924826 22.57913605 -0.18965271 21.91608459 -0.18673706 21.23294067 C-0.17553435 19.11344417 -0.15043051 16.99436896 -0.125 14.875 C-0.11497028 13.43880818 -0.10584441 12.00260975 -0.09765625 10.56640625 C-0.075595 7.04413372 -0.04106494 3.52210797 0 0 Z " fill="#42A9E4" transform="translate(41,49)"/>
<path d="M0 0 C0.33 1.32 0.66 2.64 1 4 C2.98 4 4.96 4 7 4 C7.33 5.98 7.66 7.96 8 10 C7.34 10 6.68 10 6 10 C6.3403125 11.6396875 6.3403125 11.6396875 6.6875 13.3125 C7 17 7 17 5.5625 18.9375 C5.046875 19.288125 4.53125 19.63875 4 20 C3.01 19.67 2.02 19.34 1 19 C0.608125 19.495 0.21625 19.99 -0.1875 20.5 C-2.55091715 22.45593143 -4.01435003 22.24207973 -7 22 C-7.66 20.35 -8.32 18.7 -9 17 C-10.32 17 -11.64 17 -13 17 C-13.33 15.35 -13.66 13.7 -14 12 C-13.34 12 -12.68 12 -12 12 C-11.67 10.35 -11.34 8.7 -11 7 C-11.66 6.67 -12.32 6.34 -13 6 C-10.69 6 -8.38 6 -6 6 C-6.20625 7.11375 -6.4125 8.2275 -6.625 9.375 C-6.810625 11.169375 -6.810625 11.169375 -7 13 C-5.10244856 15.34973818 -5.10244856 15.34973818 -1.875 15.125 C-0.451875 15.063125 -0.451875 15.063125 1 15 C1.29562367 9.67829506 1.29562367 9.67829506 -1 5 C-0.625 2.3125 -0.625 2.3125 0 0 Z " fill="#E9EAF2" transform="translate(135,57)"/>
<path d="M0 0 C3.3 0 6.6 0 10 0 C10 6.27 10 12.54 10 19 C6.37 19 2.74 19 -1 19 C0.98 16.69 2.96 14.38 5 12 C2.36 11.67 -0.28 11.34 -3 11 C-3 10.67 -3 10.34 -3 10 C1.455 9.505 1.455 9.505 6 9 C3.03 8.67 0.06 8.34 -3 8 C-3 4 -3 4 -1 2 C-0.67 1.34 -0.34 0.68 0 0 Z " fill="#798FFE" transform="translate(105,63)"/>
<path d="M0 0 C1.32 0 2.64 0 4 0 C4 6.6 4 13.2 4 20 C6.31 20 8.62 20 11 20 C11.33 20.99 11.66 21.98 12 23 C3.19039858 24.30512614 -5.19039858 24.30512614 -14 23 C-13.505 21.515 -13.505 21.515 -13 20 C-8.71 20 -4.42 20 0 20 C0 13.4 0 6.8 0 0 Z " fill="#4C4CA1" transform="translate(115,63)"/>
<path d="M0 0 C1.31871094 -0.01224609 2.63742188 -0.02449219 3.99609375 -0.03710938 C5.90068359 -0.04000977 5.90068359 -0.04000977 7.84375 -0.04296875 C9.00068359 -0.04707764 10.15761719 -0.05118652 11.34960938 -0.05541992 C14.47736509 0.18575467 16.680892 0.85423629 19.5 2.1875 C18.5 4.1875 18.5 4.1875 16.84521484 4.80200195 C11.99200924 5.59975457 7.04404055 5.37340312 2.13769531 5.37280273 C0.13863013 5.37498512 -1.86039532 5.39349143 -3.859375 5.41210938 C-5.13039063 5.41404297 -6.40140625 5.41597656 -7.7109375 5.41796875 C-8.86899902 5.42207764 -10.02706055 5.42618652 -11.22021484 5.43041992 C-14.61310954 5.17912245 -17.33332989 4.39923908 -20.5 3.1875 C-20.17 2.5275 -19.84 1.8675 -19.5 1.1875 C-13.23640183 -0.60566158 -6.45139424 0.00315317 0 0 Z " fill="#EAEBF2" transform="translate(114.5,125.8125)"/>
<path d="M0 0 C1.58206057 0.00667536 3.16410534 0.0186375 4.74609375 0.03515625 C5.55240234 0.03966797 6.35871094 0.04417969 7.18945312 0.04882812 C9.18753131 0.06065107 11.18557158 0.07858711 13.18359375 0.09765625 C13.21043687 2.91021906 13.23035563 5.72252866 13.24609375 8.53515625 C13.25447266 9.33759766 13.26285156 10.14003906 13.27148438 10.96679688 C13.28010805 13.01060846 13.23587525 15.05449527 13.18359375 17.09765625 C11.36243372 18.91881628 8.87687611 18.23000705 6.45703125 18.234375 C5.70679687 18.23050781 4.9565625 18.22664063 4.18359375 18.22265625 C3.05824219 18.22845703 3.05824219 18.22845703 1.91015625 18.234375 C-3.68979572 18.22426678 -3.68979572 18.22426678 -4.81640625 17.09765625 C-4.91621839 14.42034245 -4.955205 11.7746145 -4.94140625 9.09765625 C-4.94527344 8.34742187 -4.94914062 7.5971875 -4.953125 6.82421875 C-4.94103514 0.12643386 -4.94103514 0.12643386 0 0 Z M-1.25390625 3.72265625 C-3.27572938 6.7958274 -3.34396142 8.48013506 -2.81640625 12.09765625 C-1.82606399 14.5014962 -1.82606399 14.5014962 0.18359375 16.09765625 C3.30464779 17.02733192 5.30322846 17.36665675 8.43359375 16.41015625 C11.33646615 14.23300195 12.02929334 12.12632565 12.55859375 8.59765625 C12.35047711 5.9867621 12.35047711 5.9867621 10.62109375 3.78515625 C6.55002135 0.96672151 2.8612359 0.97922815 -1.25390625 3.72265625 Z " fill="#37DDC6" transform="translate(109.81640625,95.90234375)"/>
<path d="M0 0 C2.29141286 -0.05384521 4.58318188 -0.09272087 6.875 -0.125 C8.78925781 -0.15980469 8.78925781 -0.15980469 10.7421875 -0.1953125 C14 0 14 0 16 2 C15.649375 2.763125 15.29875 3.52625 14.9375 4.3125 C13.67639116 7.04759379 13.67639116 7.04759379 15 10 C12.1875 11.5625 12.1875 11.5625 9 13 C6.49642139 12.1654738 4.33214148 11.20628008 2 10 C2 7.36 2 4.72 2 2 C1.34 2 0.68 2 0 2 C0 1.34 0 0.68 0 0 Z " fill="#7081FE" transform="translate(80,81)"/>
<path d="M0 0 C2.31 0 4.62 0 7 0 C7 4.62 7 9.24 7 14 C4.03 13.505 4.03 13.505 1 13 C0.67 12.01 0.34 11.02 0 10 C-2.64 10 -5.28 10 -8 10 C-8 8.02 -8 6.04 -8 4 C-5.36 4 -2.72 4 0 4 C0 2.68 0 1.36 0 0 Z " fill="#5832FF" transform="translate(34,49)"/>
<path d="M0 0 C0 5.61 0 11.22 0 17 C-1.32 17.33 -2.64 17.66 -4 18 C-4 15.36 -4 12.72 -4 10 C-7.3 10 -10.6 10 -14 10 C-14 9.34 -14 8.68 -14 8 C-13.01 7.67 -12.02 7.34 -11 7 C-10.29848848 5.6846659 -9.63474075 4.34882408 -9 3 C-6.22801333 -0.88078133 -5.48460883 0 0 0 Z " fill="#645BFE" transform="translate(127,86)"/>
<path d="M0 0 C0 0.66 0 1.32 0 2 C-0.66 2.66 -1.32 3.32 -2 4 C-1.01 4 -0.02 4 1 4 C1 7.3 1 10.6 1 14 C-4.61 14 -10.22 14 -16 14 C-15.34 13.01 -14.68 12.02 -14 11 C-13.01 11 -12.02 11 -11 11 C-10.67 10.34 -10.34 9.68 -10 9 C-7.9375 7.875 -7.9375 7.875 -6 7 C-6.33 5.35 -6.66 3.7 -7 2 C-2.25 0 -2.25 0 0 0 Z " fill="#748CFE" transform="translate(100,83)"/>
<path d="M0 0 C1.32 0 2.64 0 4 0 C4 5.61 4 11.22 4 17 C4.99 17 5.98 17 7 17 C7 18.65 7 20.3 7 22 C4.69 22 2.38 22 0 22 C0 14.74 0 7.48 0 0 Z " fill="#42468F" transform="translate(26,80)"/>
<path d="M0 0 C0 1.65 0 3.3 0 5 C-6.6 5 -13.2 5 -20 5 C-20 3.35 -20 1.7 -20 0 C-17.41703983 -0.19522373 -14.83395921 -0.38144403 -12.25 -0.5625 C-11.52039063 -0.61857422 -10.79078125 -0.67464844 -10.0390625 -0.73242188 C-6.45046349 -0.97709908 -3.44972775 -0.99666259 0 0 Z " fill="#34B1C6" transform="translate(118,49)"/>
<path d="M0 0 C0.66 0 1.32 0 2 0 C2.33 1.65 2.66 3.3 3 5 C5.64 5.33 8.28 5.66 11 6 C10.67 7.98 10.34 9.96 10 12 C8 12.66666667 6 13.33333333 4 14 C3.67 14.66 3.34 15.32 3 16 C1.68 16 0.36 16 -1 16 C-1.02692484 13.70839681 -1.04636124 11.41670454 -1.0625 9.125 C-1.07410156 7.84882812 -1.08570312 6.57265625 -1.09765625 5.2578125 C-1 2 -1 2 0 0 Z " fill="#6C73FE" transform="translate(103,108)"/>
<path d="M0 0 C1.60488281 0.07734375 1.60488281 0.07734375 3.2421875 0.15625 C4.35335937 0.22070312 5.46453125 0.28515625 6.609375 0.3515625 C7.73601562 0.40828125 8.86265625 0.465 10.0234375 0.5234375 C12.80274028 0.66475798 15.5811191 0.81615658 18.359375 0.9765625 C18.359375 1.3065625 18.359375 1.6365625 18.359375 1.9765625 C14.399375 1.9765625 10.439375 1.9765625 6.359375 1.9765625 C6.359375 4.2865625 6.359375 6.5965625 6.359375 8.9765625 C7.349375 9.3065625 8.339375 9.6365625 9.359375 9.9765625 C8.369375 10.9665625 7.379375 11.9565625 6.359375 12.9765625 C2.484375 11.2265625 2.484375 11.2265625 1.359375 8.9765625 C2.019375 8.9765625 2.679375 8.9765625 3.359375 8.9765625 C3.029375 7.3265625 2.699375 5.6765625 2.359375 3.9765625 C-3.910625 3.9765625 -10.180625 3.9765625 -16.640625 3.9765625 C-16.640625 3.3165625 -16.640625 2.6565625 -16.640625 1.9765625 C-15.031875 2.0384375 -15.031875 2.0384375 -13.390625 2.1015625 C-9.83601261 2.2602699 -9.83601261 2.2602699 -7.75878906 0.96728516 C-5.00475248 -0.32085228 -3.02575726 -0.16094453 0 0 Z " fill="#97DAE5" transform="translate(114.640625,45.0234375)"/>
<path d="M0 0 C1.58206057 0.00667536 3.16410534 0.0186375 4.74609375 0.03515625 C5.55240234 0.03966797 6.35871094 0.04417969 7.18945312 0.04882812 C9.18753131 0.06065107 11.18557158 0.07858711 13.18359375 0.09765625 C12.6215625 0.35546875 12.05953125 0.61328125 11.48046875 0.87890625 C8.91654796 2.23935402 6.7313301 3.82554587 4.43359375 5.59765625 C3.634375 6.20609375 2.83515625 6.81453125 2.01171875 7.44140625 C1.4084375 7.98796875 0.80515625 8.53453125 0.18359375 9.09765625 C0.18359375 9.75765625 0.18359375 10.41765625 0.18359375 11.09765625 C-1.46640625 11.09765625 -3.11640625 11.09765625 -4.81640625 11.09765625 C-4.84328776 9.45191059 -4.86274748 7.80604212 -4.87890625 6.16015625 C-4.89050781 5.24363281 -4.90210938 4.32710938 -4.9140625 3.3828125 C-4.74806315 -0.5015722 -4.08167578 0.10444411 0 0 Z " fill="#40A7E5" transform="translate(37.81640625,85.90234375)"/>
<path d="M0 0 C1.66611905 -0.042721 3.33382885 -0.04063832 5 0 C6.94336779 1.94336779 6.30633393 5.2920995 6.375 7.875 C6.42398438 9.13054687 6.47296875 10.38609375 6.5234375 11.6796875 C6 15 6 15 3.4765625 16.9453125 C2.65929688 17.29335937 1.84203125 17.64140625 1 18 C0 17 0 17 -0.09765625 13.18359375 C-0.09098089 11.60153318 -0.07901875 10.01948841 -0.0625 8.4375 C-0.05798828 7.63119141 -0.05347656 6.82488281 -0.04882812 5.99414062 C-0.03700518 3.99606244 -0.01906914 1.99802217 0 0 Z " fill="#5C3FFF" transform="translate(35,62)"/>
<path d="M0 0 C2.64 0 5.28 0 8 0 C8.13504138 1.93559313 8.23201129 3.873872 8.3125 5.8125 C8.39951172 7.43091797 8.39951172 7.43091797 8.48828125 9.08203125 C8 12 8 12 5.48046875 13.88671875 C4.66191406 14.25410156 3.84335937 14.62148437 3 15 C1.7922442 11.37673261 2.45688872 10.35853631 4 7 C3.01 7 2.02 7 1 7 C0.67 4.69 0.34 2.38 0 0 Z " fill="#3CBADA" transform="translate(26,59)"/>
<path d="M0 0 C0.495 1.98 0.495 1.98 1 4 C0.01 4 -0.98 4 -2 4 C-2 3.34 -2 2.68 -2 2 C-13.88 2 -25.76 2 -38 2 C-38 1.34 -38 0.68 -38 0 C-34.03506717 -0.16944814 -30.06987381 -0.32978229 -26.10424805 -0.48217773 C-24.10251279 -0.5609259 -22.10105398 -0.6466034 -20.09960938 -0.73242188 C-13.2630776 -0.99072912 -6.77197496 -1.00353087 0 0 Z " fill="#34D1D4" transform="translate(97,45)"/>
<path d="M0 0 C5.5952381 0.5952381 5.5952381 0.5952381 8 3 C8.33015665 6.10347254 8.50531294 8.15781176 6.875 10.875 C4.21965017 12.4682099 2.03210482 12.20214032 -1 12 C-1 11.34 -1 10.68 -1 10 C-0.01 10 0.98 10 2 10 C2.66 8.68 3.32 7.36 4 6 C2.63106761 5.94729537 2.63106761 5.94729537 0 7 C-0.99 6.34 -1.98 5.68 -3 5 C-1.125 1.125 -1.125 1.125 0 0 Z " fill="#42CEE5" transform="translate(112,99)"/>
<path d="M0 0 C1.32 0 2.64 0 4 0 C4 6.6 4 13.2 4 20 C2.68 19.67 1.36 19.34 0 19 C0 12.73 0 6.46 0 0 Z " fill="#3E3E8B" transform="translate(115,63)"/>
<path d="M0 0 C1.67542976 0.28604898 3.34385343 0.61781233 5 1 C6.00619398 5.3266341 6.36822864 8.12471677 4 12 C1.4140625 13.140625 1.4140625 13.140625 -1 14 C-1.02685938 11.85423363 -1.04633088 9.70837355 -1.0625 7.5625 C-1.07410156 6.36753906 -1.08570312 5.17257813 -1.09765625 3.94140625 C-1 1 -1 1 0 0 Z " fill="#33C7DF" transform="translate(106,33)"/>
<path d="M0 0 C4.82360189 -0.19294408 8.49646738 0.24252386 13 2 C10.73582647 5.39626029 9.66449405 6.37133598 6 8 C5.113125 8.165 4.22625 8.33 3.3125 8.5 C2.549375 8.665 1.78625 8.83 1 9 C0.67 9.66 0.34 10.32 0 11 C0 7.37 0 3.74 0 0 Z " fill="#5A38FF" transform="translate(102,86)"/>
<path d="M0 0 C8.58 0 17.16 0 26 0 C25.67 0.99 25.34 1.98 25 3 C17.08 3 9.16 3 1 3 C0.67 2.01 0.34 1.02 0 0 Z " fill="#4C4CA0" transform="translate(101,124)"/>
<path d="M0 0 C2.31 0 4.62 0 7 0 C7.30192308 7.85 7.30192308 7.85 5 11 C4.01 11.33 3.02 11.66 2 12 C1.34 12.99 0.68 13.98 0 15 C0 10.05 0 5.1 0 0 Z " fill="#6B73FD" transform="translate(98,54)"/>
<path d="M0 0 C1.58206057 0.00667536 3.16410534 0.0186375 4.74609375 0.03515625 C5.55240234 0.03966797 6.35871094 0.04417969 7.18945312 0.04882812 C9.18753131 0.06065107 11.18557158 0.07858711 13.18359375 0.09765625 C12.52359375 1.41765625 11.86359375 2.73765625 11.18359375 4.09765625 C10.19359375 3.76765625 9.20359375 3.43765625 8.18359375 3.09765625 C3.56296328 2.67515369 3.56296328 2.67515369 -0.69140625 4.16015625 C-2.3512567 7.01878758 -2.50955654 9.84504928 -2.81640625 13.09765625 C-3.47640625 13.09765625 -4.13640625 13.09765625 -4.81640625 13.09765625 C-4.84327178 11.11856227 -4.86274 9.13936654 -4.87890625 7.16015625 C-4.89050781 6.05800781 -4.90210937 4.95585938 -4.9140625 3.8203125 C-4.76201869 -0.41866885 -4.42989555 0.11335454 0 0 Z " fill="#44C2ED" transform="translate(109.81640625,95.90234375)"/>
<path d="M0 0 C3.69459731 0.19970796 4.78742451 0.76444338 7.3125 3.5625 C8.1478125 4.7690625 8.1478125 4.7690625 9 6 C7.71034824 7.37562854 6.37310707 8.70766393 5 10 C4.34 10 3.68 10 3 10 C3 9.01 3 8.02 3 7 C2.01 7.33 1.02 7.66 0 8 C-0.33 8.99 -0.66 9.98 -1 11 C-1.66 11 -2.32 11 -3 11 C-2.69217504 9.35328588 -2.37860766 7.70764424 -2.0625 6.0625 C-1.88847656 5.14597656 -1.71445312 4.22945313 -1.53515625 3.28515625 C-1 1 -1 1 0 0 Z " fill="#57CBDD" transform="translate(47,90)"/>
<path d="M0 0 C0.99 0.33 1.98 0.66 3 1 C2.01 1.33 1.02 1.66 0 2 C-0.67323057 4.27828358 -0.9490436 6.52016277 -1.27734375 8.87109375 C-2 11 -2 11 -4.06640625 12.28515625 C-4.70449219 12.52105469 -5.34257813 12.75695312 -6 13 C-7.32 11.35 -8.64 9.7 -10 8 C-8.71064081 6.85157077 -7.41843421 5.70633773 -6.125 4.5625 C-5.04605469 3.60537109 -5.04605469 3.60537109 -3.9453125 2.62890625 C-2 1 -2 1 0 0 Z " fill="#40B2E0" transform="translate(47,87)"/>
<path d="M0 0 C2.31 0 4.62 0 7 0 C7 1.65 7 3.3 7 5 C3.37 5 -0.26 5 -4 5 C-4 6.65 -4 8.3 -4 10 C-5.32 10 -6.64 10 -8 10 C-8 8.02 -8 6.04 -8 4 C-5.36 4 -2.72 4 0 4 C0 2.68 0 1.36 0 0 Z " fill="#3D418D" transform="translate(34,49)"/>
<path d="M0 0 C1.32 0.66 2.64 1.32 4 2 C3.67 3.98 3.34 5.96 3 8 C5.16874252 7.49396008 6.99967627 7.00016187 9 6 C9.33 7.65 9.66 9.3 10 11 C8.35 11 6.7 11 5 11 C5 11.66 5 12.32 5 13 C3.68 12.67 2.36 12.34 1 12 C1 11.34 1 10.68 1 10 C0.01 9.67 -0.98 9.34 -2 9 C-1.125 1.125 -1.125 1.125 0 0 Z " fill="#EBF8FA" transform="translate(19,64)"/>
<path d="M0 0 C-0.99958296 2.99874887 -1.90339319 4.67043688 -4 7 C-6.1875 7.75 -6.1875 7.75 -8 8 C-8 8.66 -8 9.32 -8 10 C-9.65 9.67 -11.3 9.34 -13 9 C-12.125 5.125 -12.125 5.125 -11 4 C-9.67405895 3.63837971 -8.34061543 3.30271961 -7 3 C-8.32 2.34 -9.64 1.68 -11 1 C-9.54182203 0.83197949 -8.0834516 0.66562857 -6.625 0.5 C-5.81289062 0.4071875 -5.00078125 0.314375 -4.1640625 0.21875 C-2 0 -2 0 0 0 Z " fill="#5E4CFA" transform="translate(121,86)"/>
<path d="M0 0 C0.81984375 0.05800781 1.6396875 0.11601563 2.484375 0.17578125 C2.154375 0.83578125 1.824375 1.49578125 1.484375 2.17578125 C0.824375 2.17578125 0.164375 2.17578125 -0.515625 2.17578125 C-0.845625 3.49578125 -1.175625 4.81578125 -1.515625 6.17578125 C-2.175625 5.84578125 -2.835625 5.51578125 -3.515625 5.17578125 C-5.22265235 5.10582111 -6.93230503 5.09137971 -8.640625 5.11328125 C-9.55070312 5.12230469 -10.46078125 5.13132812 -11.3984375 5.140625 C-12.44644531 5.15802734 -12.44644531 5.15802734 -13.515625 5.17578125 C-10.40821807 -1.03903261 -6.20026032 -0.25958028 0 0 Z " fill="#6660FF" transform="translate(63.515625,80.82421875)"/>
<path d="M0 0 C1.32 0 2.64 0 4 0 C4 0.99 4 1.98 4 3 C4.99 3 5.98 3 7 3 C6.75 5.375 6.75 5.375 6 8 C4.1875 9.375 4.1875 9.375 2 10 C-0.25 9.625 -0.25 9.625 -2 9 C-1.51421457 5.87709365 -1.0013988 3.00419641 0 0 Z " fill="#DCF3F7" transform="translate(23,63)"/>
<path d="M0 0 C2.33294775 -0.04241723 4.66702567 -0.04092937 7 0 C8 1 8 1 8.25 3.875 C8 7 8 7 6.75 8.875 C5 10 5 10 1 10 C1.020625 8.906875 1.04125 7.81375 1.0625 6.6875 C1.18544452 3.05615809 1.18544452 3.05615809 0 0 Z " fill="#71D5E4" transform="translate(110,33)"/>
<path d="M0 0 C2.64 0 5.28 0 8 0 C8 0.66 8 1.32 8 2 C9.98 2 11.96 2 14 2 C13.01 2.495 13.01 2.495 12 3 C11.34444881 5.52733235 11.34444881 5.52733235 11 8 C10.46375 7.67 9.9275 7.34 9.375 7 C6.4608939 5.77300796 4.13132292 5.85766714 1 6 C0.67 4.02 0.34 2.04 0 0 Z " fill="#35CED8" transform="translate(117,33)"/>
<path d="M0 0 C1.24716797 0.00322266 2.49433594 0.00644531 3.77929688 0.00976562 C5.07287109 0.01814453 6.36644531 0.02652344 7.69921875 0.03515625 C9.66858398 0.04192383 9.66858398 0.04192383 11.67773438 0.04882812 C14.91410885 0.06059676 18.15039053 0.07703865 21.38671875 0.09765625 C21.05671875 0.75765625 20.72671875 1.41765625 20.38671875 2.09765625 C19.73074707 2.11747559 19.07477539 2.13729492 18.39892578 2.15771484 C15.43610806 2.25278132 12.47401343 2.36253377 9.51171875 2.47265625 C7.96291016 2.5190625 7.96291016 2.5190625 6.3828125 2.56640625 C4.90361328 2.62441406 4.90361328 2.62441406 3.39453125 2.68359375 C2.4833252 2.71501465 1.57211914 2.74643555 0.63330078 2.77880859 C-1.81259311 2.89648136 -1.81259311 2.89648136 -3.61328125 5.09765625 C-6.34197532 5.06478042 -8.90994305 4.53367854 -11.61328125 4.09765625 C-11.61328125 3.10765625 -11.61328125 2.11765625 -11.61328125 1.09765625 C-7.68039761 0.16677716 -4.03673962 -0.0184326 0 0 Z " fill="#D9D9E8" transform="translate(106.61328125,125.90234375)"/>
<path d="M0 0 C0 2.97 0 5.94 0 9 C-4.62 9 -9.24 9 -14 9 C-13.67 8.34 -13.34 7.68 -13 7 C-11.34608154 6.60828247 -9.67654729 6.27942455 -8 6 C-7.01 5.67 -6.02 5.34 -5 5 C-4.67 4.01 -4.34 3.02 -4 2 C-1 0 -1 0 0 0 Z " fill="#34D7C5" transform="translate(34,71)"/>
<path d="M0 0 C2.64 0 5.28 0 8 0 C8 2.31 8 4.62 8 7 C5.36 7 2.72 7 0 7 C0 4.69 0 2.38 0 0 Z " fill="#A4C5FE" transform="translate(82,84)"/>
<path d="M0 0 C3.63 0 7.26 0 11 0 C10.67 0.99 10.34 1.98 10 3 C6.9375 4.1875 6.9375 4.1875 4 5 C4.66 5.66 5.32 6.32 6 7 C4.02 7.66 2.04 8.32 0 9 C0 6.03 0 3.06 0 0 Z " fill="#3EBCDC" transform="translate(105,54)"/>
<path d="M0 0 C8.25 0 16.5 0 25 0 C25 0.66 25 1.32 25 2 C20.05 2 15.1 2 10 2 C10 2.66 10 3.32 10 4 C9.01 4 8.02 4 7 4 C7 3.34 7 2.68 7 2 C4.69 2 2.38 2 0 2 C0 1.34 0 0.68 0 0 Z " fill="#7FD5E6" transform="translate(34,45)"/>
<path d="M0 0 C5.41538462 -0.36923077 5.41538462 -0.36923077 8.375 1.5 C8.91125 1.995 9.4475 2.49 10 3 C10.33 2.01 10.66 1.02 11 0 C10.67 1.65 10.34 3.3 10 5 C6.7 5 3.4 5 0 5 C0 3.35 0 1.7 0 0 Z " fill="#34ADC6" transform="translate(33,97)"/>
<path d="M0 0 C1.23556641 0.01740234 1.23556641 0.01740234 2.49609375 0.03515625 C3.32238281 0.04417969 4.14867187 0.05320312 5 0.0625 C5.63808594 0.07410156 6.27617188 0.08570312 6.93359375 0.09765625 C6.60359375 0.75765625 6.27359375 1.41765625 5.93359375 2.09765625 C5.27359375 2.09765625 4.61359375 2.09765625 3.93359375 2.09765625 C3.93359375 2.75765625 3.93359375 3.41765625 3.93359375 4.09765625 C2.94359375 4.42765625 1.95359375 4.75765625 0.93359375 5.09765625 C0.60359375 6.08765625 0.27359375 7.07765625 -0.06640625 8.09765625 C-1.05640625 8.09765625 -2.04640625 8.09765625 -3.06640625 8.09765625 C-3.10882348 5.7647085 -3.10733562 3.43063058 -3.06640625 1.09765625 C-2.06640625 0.09765625 -2.06640625 0.09765625 0 0 Z " fill="#4496EB" transform="translate(36.06640625,85.90234375)"/>
<path d="M0 0 C0.66 0 1.32 0 2 0 C2 2.97 2 5.94 2 9 C3.65 9.33 5.3 9.66 7 10 C7 10.33 7 10.66 7 11 C2.71 11 -1.58 11 -6 11 C-6 10.67 -6 10.34 -6 10 C-4.35 9.67 -2.7 9.34 -1 9 C-0.67 7.68 -0.34 6.36 0 5 C-1.98 5 -3.96 5 -6 5 C-6 4.67 -6 4.34 -6 4 C-4.35 3.67 -2.7 3.34 -1 3 C-0.67 2.01 -0.34 1.02 0 0 Z " fill="#76D8E1" transform="translate(13,42)"/>
<path d="M0 0 C0 0.33 0 0.66 0 1 C-1.98 1 -3.96 1 -6 1 C-5.73606499 4.43230448 -5.73606499 4.43230448 -5 8 C-4.01 8.66 -3.02 9.32 -2 10 C-5.125 9.47916667 -8.25 8.95833333 -11.375 8.4375 C-12.674375 8.2209375 -12.674375 8.2209375 -14 8 C-14 7.67 -14 7.34 -14 7 C-12.35 6.67 -10.7 6.34 -9 6 C-8.67 4.68 -8.34 3.36 -8 2 C-9.98 2 -11.96 2 -14 2 C-14 1.67 -14 1.34 -14 1 C-9.32798795 -0.20568053 -4.78503708 -0.09382426 0 0 Z " fill="#7BD5E6" transform="translate(21,33)"/>
<path d="M0 0 C0 3.63 0 7.26 0 11 C-1.32 11.33 -2.64 11.66 -4 12 C-4.08131463 10.56344146 -4.13933559 9.1255517 -4.1875 7.6875 C-4.22230469 6.88699219 -4.25710937 6.08648437 -4.29296875 5.26171875 C-3.98428663 2.87869278 -2.85980321 0 0 0 Z " fill="#6B70FE" transform="translate(127,92)"/>
<path d="M0 0 C0.66 0 1.32 0 2 0 C2.0825 0.78375 2.165 1.5675 2.25 2.375 C2.72806339 5.14749104 2.72806339 5.14749104 5.0625 6.3125 C5.701875 6.539375 6.34125 6.76625 7 7 C3.91190305 8.76462683 2.76687864 9 -1 9 C-1.125 2.25 -1.125 2.25 0 0 Z " fill="#6864FE" transform="translate(103,108)"/>
<path d="M0 0 C0.33 1.32 0.66 2.64 1 4 C0.01 4 -0.98 4 -2 4 C-2 4.66 -2 5.32 -2 6 C-5.3 6.33 -8.6 6.66 -12 7 C-12.33 6.01 -12.66 5.02 -13 4 C-6.565 3.505 -6.565 3.505 0 3 C0 2.01 0 1.02 0 0 Z " fill="#57D3DB" transform="translate(46,98)"/>
<path d="M0 0 C0.99 0 1.98 0 3 0 C3.08121924 1.60332791 3.13929134 3.20784026 3.1875 4.8125 C3.23970703 6.15248047 3.23970703 6.15248047 3.29296875 7.51953125 C3 10 3 10 0 13 C0 8.71 0 4.42 0 0 Z " fill="#3B96D8" transform="translate(41,49)"/>
<path d="M0 0 C2.31 0 4.62 0 7 0 C7 1.65 7 3.3 7 5 C4.69 5 2.38 5 0 5 C0 3.35 0 1.7 0 0 Z " fill="#3C3E8A" transform="translate(98,49)"/>
<path d="M0 0 C6.6 0 13.2 0 20 0 C20 0.99 20 1.98 20 3 C13.4 2.34 6.8 1.68 0 1 C0 0.67 0 0.34 0 0 Z " fill="#41D1D8" transform="translate(14,32)"/>
<path d="M0 0 C0.33 0 0.66 0 1 0 C0.74438677 2.3431213 0.40729228 4.67843403 0 7 C-2.70879335 8.35439668 -5.00933268 8.06501451 -8 8 C-8 7.34 -8 6.68 -8 6 C-7.01 6 -6.02 6 -5 6 C-4.67 5.01 -4.34 4.02 -4 3 C-3.01 2.67 -2.02 2.34 -1 2 C-0.67 1.34 -0.34 0.68 0 0 Z " fill="#3FD8D8" transform="translate(119,103)"/>
<path d="M0 0 C1.65 0.33 3.3 0.66 5 1 C4.67 2.65 4.34 4.3 4 6 C2.02 6.66 0.04 7.32 -2 8 C-1.47731534 5.23723823 -0.89130413 2.6739124 0 0 Z " fill="#3DC5D7" transform="translate(55,86)"/>
<path d="M0 0 C0 3.5595477 -0.61579539 4.44549506 -3 7 C-5.1875 7.75 -5.1875 7.75 -7 8 C-9 5 -9 5 -8.625 2.8125 C-8.41875 2.214375 -8.2125 1.61625 -8 1 C-5.525 1.99 -5.525 1.99 -3 3 C-2.01 2.01 -1.02 1.02 0 0 Z " fill="#79DBE9" transform="translate(117,102)"/>
<path d="M0 0 C0.66 0 1.32 0 2 0 C2 1.65 2 3.3 2 5 C2.99 5.33 3.98 5.66 5 6 C4.01 6.99 3.02 7.98 2 9 C-1.875 7.25 -1.875 7.25 -3 5 C-2.01 5 -1.02 5 0 5 C0 3.35 0 1.7 0 0 Z " fill="#F3FBFC" transform="translate(119,49)"/>
<path d="M0 0 C1.98 0.99 1.98 0.99 4 2 C4 3.98 4 5.96 4 8 C2.68 8 1.36 8 0 8 C0 5.36 0 2.72 0 0 Z " fill="#37C3C6" transform="translate(115,55)"/>
<path d="M0 0 C0.433125 0.45375 0.86625 0.9075 1.3125 1.375 C3.10798342 3.20024334 3.10798342 3.20024334 6 5 C5 6 5 6 1.9375 6.0625 C0.968125 6.041875 -0.00125 6.02125 -1 6 C-1.33 4.35 -1.66 2.7 -2 1 C-1.34 0.67 -0.68 0.34 0 0 Z " fill="#40D3E0" transform="translate(107,108)"/>
<path d="M0 0 C1.32 0 2.64 0 4 0 C4 1.65 4 3.3 4 5 C2.68 5.33 1.36 5.66 0 6 C-0.38218767 4.34385343 -0.71395102 2.67542976 -1 1 C-0.67 0.67 -0.34 0.34 0 0 Z " fill="#3ECDD9" transform="translate(22,67)"/>
<path d="M0 0 C2.97 0.33 5.94 0.66 9 1 C9.33 2.32 9.66 3.64 10 5 C9.01 5 8.02 5 7 5 C7 4.34 7 3.68 7 3 C4.36 3 1.72 3 -1 3 C-0.67 2.01 -0.34 1.02 0 0 Z " fill="#57DAD4" transform="translate(88,44)"/>
<path d="M0 0 C0 1.65 0 3.3 0 5 C-2.31 5 -4.62 5 -7 5 C-6.34 4.34 -5.68 3.68 -5 3 C-5.33 2.34 -5.66 1.68 -6 1 C-3 0 -3 0 0 0 Z " fill="#799AFE" transform="translate(127,119)"/>
<path d="M0 0 C0.66 0.33 1.32 0.66 2 1 C1.05066101 4.35433109 0.10251165 7.69246505 -1 11 C-1.66 11 -2.32 11 -3 11 C-2.69217504 9.35328588 -2.37860766 7.70764424 -2.0625 6.0625 C-1.88847656 5.14597656 -1.71445312 4.22945313 -1.53515625 3.28515625 C-1 1 -1 1 0 0 Z " fill="#E4F6F9" transform="translate(47,90)"/>
<path d="M0 0 C0.99 0.33 1.98 0.66 3 1 C3.8125 2.8125 3.8125 2.8125 4 5 C3.0625 7.25 3.0625 7.25 2 9 C3.32 9.33 4.64 9.66 6 10 C5.01 10.33 4.02 10.66 3 11 C2.34 10.67 1.68 10.34 1 10 C1 7.36 1 4.72 1 2 C0.34 1.67 -0.32 1.34 -1 1 C-0.67 0.67 -0.34 0.34 0 0 Z " fill="#46CAE0" transform="translate(15,64)"/>
<path d="M0 0 C1.32 0 2.64 0 4 0 C4 2.31 4 4.62 4 7 C3.01 7 2.02 7 1 7 C0.67 4.69 0.34 2.38 0 0 Z " fill="#34AEC5" transform="translate(26,59)"/>
<path d="M0 0 C0.99 0.33 1.98 0.66 3 1 C2.67 2.65 2.34 4.3 2 6 C0.02 6 -1.96 6 -4 6 C-2.84826645 3.53199953 -1.95216435 1.95216435 0 0 Z " fill="#37E0C2" transform="translate(57,99)"/>
<path d="M0 0 C3.63 0 7.26 0 11 0 C11 0.66 11 1.32 11 2 C10.34 2 9.68 2 9 2 C9 3.65 9 5.3 9 7 C8.67 7 8.34 7 8 7 C7.67 5.35 7.34 3.7 7 2 C4.69 2 2.38 2 0 2 C0 1.34 0 0.68 0 0 Z " fill="#66D7DF" transform="translate(110,47)"/>
<path d="M0 0 C1.98 0 3.96 0 6 0 C5.67 0.99 5.34 1.98 5 3 C2.03 3 -0.94 3 -4 3 C-2.68 2.67 -1.36 2.34 0 2 C0 1.34 0 0.68 0 0 Z " fill="#43D9CF" transform="translate(44,102)"/>
<path d="M0 0 C3.3 0 6.6 0 10 0 C10 0.33 10 0.66 10 1 C7.36 1.33 4.72 1.66 2 2 C2 2.66 2 3.32 2 4 C1.01 4 0.02 4 -1 4 C-0.67 2.68 -0.34 1.36 0 0 Z " fill="#46AFF5" transform="translate(106,96)"/>
<path d="M0 0 C0.99 0 1.98 0 3 0 C3.33 0.99 3.66 1.98 4 3 C1.525 4.485 1.525 4.485 -1 6 C-1.33 5.01 -1.66 4.02 -2 3 C-1.34 2.01 -0.68 1.02 0 0 Z " fill="#4BCED6" transform="translate(30,68)"/>
<path d="M0 0 C-0.185625 0.5775 -0.37125 1.155 -0.5625 1.75 C-1.04023546 4.20692525 -0.75729364 5.64397534 0 8 C-1.65 6.35 -3.3 4.7 -5 3 C-2.25 0 -2.25 0 0 0 Z " fill="#E2F3F8" transform="translate(42,92)"/>
<path d="M0 0 C0.33 0 0.66 0 1 0 C1 2.64 1 5.28 1 8 C0.01 8.33 -0.98 8.66 -2 9 C-2.25 3.375 -2.25 3.375 0 0 Z " fill="#409AE9" transform="translate(43,59)"/>
<path d="M0 0 C0.33 0 0.66 0 1 0 C1.02696365 1.79158489 1.04637917 3.58328473 1.0625 5.375 C1.07410156 6.37273437 1.08570312 7.37046875 1.09765625 8.3984375 C1 11 1 11 0 13 C-0.66 12.67 -1.32 12.34 -2 12 C-1.835 10.906875 -1.67 9.81375 -1.5 8.6875 C-0.93281816 5.12474127 -0.93281816 5.12474127 -1 2 C-0.67 1.34 -0.34 0.68 0 0 Z " fill="#3FD9D5" transform="translate(122,97)"/>
<path d="M0 0 C0.66 0 1.32 0 2 0 C2.66 2.31 3.32 4.62 4 7 C3.01 7.66 2.02 8.32 1 9 C-1.09230769 4.56923077 -1.09230769 4.56923077 -0.625 1.6875 C-0.41875 1.130625 -0.2125 0.57375 0 0 Z " fill="#51BFDE" transform="translate(41,91)"/>
<path d="M0 0 C0.33 0 0.66 0 1 0 C0.67 3.63 0.34 7.26 0 11 C-0.66 11 -1.32 11 -2 11 C-2 8.69 -2 6.38 -2 4 C-1.34 4 -0.68 4 0 4 C0 2.68 0 1.36 0 0 Z " fill="#31C8DB" transform="translate(15,66)"/>
<path d="M0 0 C1.98 0 3.96 0 6 0 C4.515 1.98 4.515 1.98 3 4 C2.67 3.67 2.34 3.34 2 3 C1.34 4.32 0.68 5.64 0 7 C0 4.69 0 2.38 0 0 Z " fill="#45D6D2" transform="translate(121,47)"/>
<path d="M0 0 C0.33 0.66 0.66 1.32 1 2 C1.99 2.66 2.98 3.32 4 4 C0.875 3.47916667 -2.25 2.95833333 -5.375 2.4375 C-6.24125 2.293125 -7.1075 2.14875 -8 2 C-8 1.67 -8 1.34 -8 1 C-5.23735711 0.40267181 -2.83967231 0 0 0 Z " fill="#99C8DE" transform="translate(15,39)"/>
<path d="M0 0 C0.99 0 1.98 0 3 0 C3.33 1.65 3.66 3.3 4 5 C2.68 5 1.36 5 0 5 C0 3.35 0 1.7 0 0 Z " fill="#34C2C4" transform="translate(47,97)"/>
<path d="M0 0 C1.65 0.99 3.3 1.98 5 3 C3.625 5 3.625 5 2 7 C1.34 7 0.68 7 0 7 C0.2784375 6.1028125 0.2784375 6.1028125 0.5625 5.1875 C1.22093687 2.83591238 1.22093687 2.83591238 0 0 Z " fill="#E7F7F9" transform="translate(51,92)"/>
</svg>
