<?xml version="1.0" encoding="UTF-8"?>
<svg version="1.1" xmlns="http://www.w3.org/2000/svg" width="150" height="150">
<path d="M0 0 C0 1.98 0 3.96 0 6 C6.06050614 7.0812391 6.06050614 7.0812391 12 6 C16 11.75 16 11.75 16 14 C17.28197266 14.09087891 17.28197266 14.09087891 18.58984375 14.18359375 C19.69457031 14.26738281 20.79929687 14.35117187 21.9375 14.4375 C23.03964844 14.51871094 24.14179688 14.59992187 25.27734375 14.68359375 C28 15 28 15 29 16 C29.15806531 17.92478813 29.251135 19.8549921 29.31640625 21.78515625 C29.35830078 22.95498047 29.40019531 24.12480469 29.44335938 25.33007812 C29.48267578 26.56177734 29.52199219 27.79347656 29.5625 29.0625 C29.60568359 30.29806641 29.64886719 31.53363281 29.69335938 32.80664062 C29.79984198 35.87097335 29.90185424 38.93539073 30 42 C31.65 42 33.3 42 35 42 C35.99 44.475 35.99 44.475 37 47 C36.34 47 35.68 47 35 47 C35.99 50.96 35.99 50.96 37 55 C34.66785852 56.20628008 32.50357861 57.1654738 30 58 C29.67 58.99 29.34 59.98 29 61 C27.02 61 25.04 61 23 61 C22.01 59.02 22.01 59.02 21 57 C19.68 57.33 18.36 57.66 17 58 C15.12401005 54.13766774 15.02228464 52.12813154 16 48 C15.67 47.01 15.34 46.02 15 45 C14.34 45 13.68 45 13 45 C13 51.6 13 58.2 13 65 C15.31 65 17.62 65 20 65 C21 66 21 66 21.11352539 69.96899414 C21.1133662 71.74105607 21.10766785 73.5131226 21.09765625 75.28515625 C21.0962413 76.21597519 21.09482635 77.14679413 21.09336853 78.1058197 C21.08775172 81.09141191 21.0751964 84.07693029 21.0625 87.0625 C21.05748716 89.08137913 21.05292388 91.10025943 21.04882812 93.11914062 C21.03777683 98.07945572 21.02050095 103.03971532 21 108 C23.31 108.66 25.62 109.32 28 110 C27 112 27 112 25.34521484 112.61450195 C20.49200924 113.41225457 15.54404055 113.18590312 10.63769531 113.18530273 C8.63863013 113.18748512 6.63960468 113.20599143 4.640625 113.22460938 C3.36960937 113.22654297 2.09859375 113.22847656 0.7890625 113.23046875 C-0.36899902 113.23457764 -1.52706055 113.23868652 -2.72021484 113.24291992 C-6.11310954 112.99162245 -8.83332989 112.21173908 -12 111 C-11.67 110.34 -11.34 109.68 -11 109 C-8.4375 108.375 -8.4375 108.375 -6 108 C-6.67857056 107.99191315 -7.35714111 107.98382629 -8.05627441 107.97549438 C-15.19572947 107.88863335 -22.33493245 107.7891071 -29.47412109 107.68261719 C-32.12938188 107.64363425 -34.7845665 107.60971702 -37.43994141 107.578125 C-75.93926359 107.11445232 -75.93926359 107.11445232 -83 103 C-82.505 102.54625 -82.01 102.0925 -81.5 101.625 C-79.77390663 100.12364481 -79.77390663 100.12364481 -80 98 C-82.41645782 97.83312552 -82.41645782 97.83312552 -85 98 C-85.99 98.99 -85.99 98.99 -87 100 C-88.9375 99.875 -88.9375 99.875 -91 99 C-92.75 96.9375 -92.75 96.9375 -94 95 C-93.34 94.01 -92.68 93.02 -92 92 C-92.66868314 88.88667752 -92.66868314 88.88667752 -95.0625 87.8125 C-95.701875 87.544375 -96.34125 87.27625 -97 87 C-96.67 84.69 -96.34 82.38 -96 80 C-93.03 79.01 -93.03 79.01 -90 78 C-90 76.02 -90 74.04 -90 72 C-86.535 71.01 -86.535 71.01 -83 70 C-82.67 71.32 -82.34 72.64 -82 74 C-81.34 74 -80.68 74 -80 74 C-80 70.04 -80 66.08 -80 62 C-84.29 62 -88.58 62 -93 62 C-93.02683436 58.68744674 -93.0467578 55.37510817 -93.0625 52.0625 C-93.07087891 51.11697266 -93.07925781 50.17144531 -93.08789062 49.19726562 C-93.09111328 48.29814453 -93.09433594 47.39902344 -93.09765625 46.47265625 C-93.10289307 45.64000244 -93.10812988 44.80734863 -93.11352539 43.94946289 C-93 42 -93 42 -92 41 C-89.98035801 40.92755947 -87.95832876 40.91622812 -85.9375 40.9375 C-84.28041016 40.95103516 -84.28041016 40.95103516 -82.58984375 40.96484375 C-81.73519531 40.97644531 -80.88054687 40.98804688 -80 41 C-80.061875 39.906875 -80.12375 38.81375 -80.1875 37.6875 C-80 34 -80 34 -78.875 32.28125 C-76.1629604 30.42802294 -74.05676436 30.70784631 -70.8125 30.8125 C-69.72582031 30.83957031 -68.63914062 30.86664063 -67.51953125 30.89453125 C-66.27236328 30.94673828 -66.27236328 30.94673828 -65 31 C-64.67 29.68 -64.34 28.36 -64 27 C-41.23 26.505 -41.23 26.505 -18 26 C-18.495 22.535 -18.495 22.535 -19 19 C-20.93597032 17.48705712 -20.93597032 17.48705712 -23 17 C-22.44271087 13.65626525 -21.64826111 10.96687001 -20 8 C-18.9275 8.20625 -17.855 8.4125 -16.75 8.625 C-13.12380904 8.9876191 -11.91708924 8.98362069 -9 7 C-9.495 4.03 -9.495 4.03 -10 1 C-6.56484998 0.37542727 -3.50935186 0 0 0 Z M-10 14 C-12.2084626 17.31269391 -12.80664241 19.14978851 -12.5546875 23.0625 C-11.4812192 26.81207941 -9.28696911 28.01541488 -6 30 C-3.36163023 30.1672392 -3.36163023 30.1672392 -1 30 C-0.96261719 29.01257813 -0.92523438 28.02515625 -0.88671875 27.0078125 C-0.82097656 25.72648437 -0.75523438 24.44515625 -0.6875 23.125 C-0.62949219 21.84882812 -0.57148437 20.57265625 -0.51171875 19.2578125 C-0.34285156 18.18273437 -0.17398438 17.10765625 0 16 C0.99 15.34 1.98 14.68 3 14 C1.01607489 11.60148679 1.01607489 11.60148679 -2.8125 11.5625 C-6.17733329 11.66669338 -7.04370031 12.02913354 -10 14 Z M21 47 C20.6366844 49.83386167 20.6431329 51.40522151 22.125 53.875 C24.92151052 55.55290631 26.93690532 54.74875648 30 54 C30.67673447 50.59679066 30.67673447 50.59679066 31 47 C29.11499729 44.68436913 29.11499729 44.68436913 26 44.75 C22.88500271 44.68436913 22.88500271 44.68436913 21 47 Z M-86.25 80.625 C-88.21985834 82.92308586 -88.21985834 82.92308586 -88.5 86 C-88.21376982 89.06575838 -88.21376982 89.06575838 -86.3125 91.375 C-83.61209763 93.27258004 -82.22939919 93.35882213 -79 93 C-78.85024761 85.94348748 -78.85024761 85.94348748 -80 79 C-83.92212225 78.60967296 -83.92212225 78.60967296 -86.25 80.625 Z M-73 95 C-72.67 96.65 -72.34 98.3 -72 100 C-59.13 99.01 -59.13 99.01 -46 98 C-45.67 97.01 -45.34 96.02 -45 95 C-54.24 95 -63.48 95 -73 95 Z M-21 95 C-21 95.99 -21 96.98 -21 98 C-15.72 98.33 -10.44 98.66 -5 99 C-5 97.68 -5 96.36 -5 95 C-10.28 95 -15.56 95 -21 95 Z " fill="#604DFE" transform="translate(106,18)"/>
<path d="M0 0 C0 6.6 0 13.2 0 20 C-4.29 20 -8.58 20 -13 20 C-13 20.66 -13 21.32 -13 22 C-4.20866282 23.42426407 -4.20866282 23.42426407 12 23 C12 36.2 12 49.4 12 63 C14.31 63.66 16.62 64.32 19 65 C18 67 18 67 16.34521484 67.61450195 C11.49200924 68.41225457 6.54404055 68.18590312 1.63769531 68.18530273 C-0.36136987 68.18748512 -2.36039532 68.20599143 -4.359375 68.22460938 C-5.63039063 68.22654297 -6.90140625 68.22847656 -8.2109375 68.23046875 C-9.36899902 68.23457764 -10.52706055 68.23868652 -11.72021484 68.24291992 C-15.11310954 67.99162245 -17.83332989 67.21173908 -21 66 C-20.67 65.34 -20.34 64.68 -20 64 C-17.4375 63.375 -17.4375 63.375 -15 63 C-16.01785583 62.98786972 -16.01785583 62.98786972 -17.05627441 62.97549438 C-24.19572947 62.88863335 -31.33493245 62.7891071 -38.47412109 62.68261719 C-41.12938188 62.64363425 -43.7845665 62.60971702 -46.43994141 62.578125 C-84.93926359 62.11445232 -84.93926359 62.11445232 -92 58 C-91.505 57.54625 -91.01 57.0925 -90.5 56.625 C-88.77390663 55.12364481 -88.77390663 55.12364481 -89 53 C-91.41645782 52.83312552 -91.41645782 52.83312552 -94 53 C-94.66 53.66 -95.32 54.32 -96 55 C-97.9375 54.875 -97.9375 54.875 -100 54 C-101.75 51.9375 -101.75 51.9375 -103 50 C-102.34 49.01 -101.68 48.02 -101 47 C-101.66868314 43.88667752 -101.66868314 43.88667752 -104.0625 42.8125 C-104.701875 42.544375 -105.34125 42.27625 -106 42 C-105.67 39.69 -105.34 37.38 -105 35 C-103.02 34.34 -101.04 33.68 -99 33 C-99 31.02 -99 29.04 -99 27 C-96.69 26.34 -94.38 25.68 -92 25 C-91.67 26.32 -91.34 27.64 -91 29 C-90.34 29 -89.68 29 -89 29 C-89 30.65 -89 32.3 -89 34 C-89.969375 34.28875 -90.93875 34.5775 -91.9375 34.875 C-95.10664203 35.64214682 -95.10664203 35.64214682 -96 38 C-96.0689472 39.37342831 -96.08467708 40.75002102 -96.0625 42.125 C-96.041875 43.40375 -96.02125 44.6825 -96 46 C-93.36 46.66 -90.72 47.32 -88 48 C-88 45.03 -88 42.06 -88 39 C-86.02 39 -84.04 39 -82 39 C-81.67 39.66 -81.34 40.32 -81 41 C-72.75 41 -64.5 41 -56 41 C-55.505 40.01 -55.505 40.01 -55 39 C-41.47 39 -27.94 39 -14 39 C-14 37.35 -14 35.7 -14 34 C-22.58 34 -31.16 34 -40 34 C-40.495 32.02 -40.495 32.02 -41 30 C-40.01 29.34 -39.02 28.68 -38 28 C-39.485 27.505 -39.485 27.505 -41 27 C-40.1646875 26.9071875 -40.1646875 26.9071875 -39.3125 26.8125 C-36.73614971 26.09959225 -36.73614971 26.09959225 -34.5625 23.5 C-31.87876678 20.88172369 -30.6519961 20.31302824 -27 20 C-27.495 17.03 -27.495 17.03 -28 14 C-25.36 14.33 -22.72 14.66 -20 15 C-19.896875 14.401875 -19.79375 13.80375 -19.6875 13.1875 C-18.90088144 10.68462276 -17.86454169 9.78685245 -16 8 C-15.67 7.01 -15.34 6.02 -15 5 C-14.34 5 -13.68 5 -13 5 C-12.67 4.01 -12.34 3.02 -12 2 C-7.61502988 0.06245506 -4.97863403 0 0 0 Z M-82 50 C-81.67 51.65 -81.34 53.3 -81 55 C-68.13 54.01 -68.13 54.01 -55 53 C-54.67 52.01 -54.34 51.02 -54 50 C-63.24 50 -72.48 50 -82 50 Z M-30 50 C-30 50.99 -30 51.98 -30 53 C-24.72 53.33 -19.44 53.66 -14 54 C-14 52.68 -14 51.36 -14 50 C-19.28 50 -24.56 50 -30 50 Z " fill="#5E4DF1" transform="translate(115,63)"/>
<path d="M0 0 C1.05904289 0.00212242 1.05904289 0.00212242 2.13948059 0.00428772 C4.39120751 0.00987861 6.64283446 0.02242937 8.89453125 0.03515625 C10.4225246 0.04017243 11.95051952 0.04473513 13.47851562 0.04882812 C17.2213926 0.05984505 20.96419498 0.07710338 24.70703125 0.09765625 C24.70703125 3.06765625 24.70703125 6.03765625 24.70703125 9.09765625 C26.02703125 9.42765625 27.34703125 9.75765625 28.70703125 10.09765625 C28.04703125 10.09765625 27.38703125 10.09765625 26.70703125 10.09765625 C26.37703125 10.75765625 26.04703125 11.41765625 25.70703125 12.09765625 C24.71703125 12.09765625 23.72703125 12.09765625 22.70703125 12.09765625 C22.37703125 12.75765625 22.04703125 13.41765625 21.70703125 14.09765625 C21.04703125 14.09765625 20.38703125 14.09765625 19.70703125 14.09765625 C19.60390625 14.69578125 19.50078125 15.29390625 19.39453125 15.91015625 C18.60791269 18.41303349 17.57157294 19.3108038 15.70703125 21.09765625 C15.21203125 22.58265625 15.21203125 22.58265625 14.70703125 24.09765625 C13.38703125 24.09765625 12.06703125 24.09765625 10.70703125 24.09765625 C10.37703125 24.75765625 10.04703125 25.41765625 9.70703125 26.09765625 C8.71703125 25.10765625 7.72703125 24.11765625 6.70703125 23.09765625 C6.70703125 23.75765625 6.70703125 24.41765625 6.70703125 25.09765625 C7.36703125 25.42765625 8.02703125 25.75765625 8.70703125 26.09765625 C8.58203125 27.97265625 8.58203125 27.97265625 7.70703125 30.09765625 C5.72066827 30.80391864 3.71854866 31.46659196 1.70703125 32.09765625 C0.35451628 33.41152794 -0.98242252 34.74191877 -2.29296875 36.09765625 C-3.28296875 36.09765625 -4.27296875 36.09765625 -5.29296875 36.09765625 C-4.30296875 36.59265625 -4.30296875 36.59265625 -3.29296875 37.09765625 C-3.78796875 38.08765625 -3.78796875 38.08765625 -4.29296875 39.09765625 C-4.62296875 40.08765625 -4.95296875 41.07765625 -5.29296875 42.09765625 C7.57703125 42.59265625 7.57703125 42.59265625 20.70703125 43.09765625 C20.70703125 44.74765625 20.70703125 46.39765625 20.70703125 48.09765625 C7.17703125 48.09765625 -6.35296875 48.09765625 -20.29296875 48.09765625 C-20.62296875 43.14765625 -20.95296875 38.19765625 -21.29296875 33.09765625 C-27.89296875 32.76765625 -34.49296875 32.43765625 -41.29296875 32.09765625 C-41.29296875 31.10765625 -41.29296875 30.11765625 -41.29296875 29.09765625 C-40.63296875 29.09765625 -39.97296875 29.09765625 -39.29296875 29.09765625 C-38.96296875 28.10765625 -38.63296875 27.11765625 -38.29296875 26.09765625 C-37.30296875 25.76765625 -36.31296875 25.43765625 -35.29296875 25.09765625 C-35.29296875 24.10765625 -35.29296875 23.11765625 -35.29296875 22.09765625 C-33.64296875 21.76765625 -31.99296875 21.43765625 -30.29296875 21.09765625 C-29.96296875 20.10765625 -29.63296875 19.11765625 -29.29296875 18.09765625 C-27.64296875 17.76765625 -25.99296875 17.43765625 -24.29296875 17.09765625 C-23.63296875 15.11765625 -22.97296875 13.13765625 -22.29296875 11.09765625 C-21.30296875 11.42765625 -20.31296875 11.75765625 -19.29296875 12.09765625 C-19.16921875 11.29328125 -19.04546875 10.48890625 -18.91796875 9.66015625 C-18.60859375 8.39171875 -18.60859375 8.39171875 -18.29296875 7.09765625 C-17.63296875 6.76765625 -16.97296875 6.43765625 -16.29296875 6.09765625 C-15.96296875 6.75765625 -15.63296875 7.41765625 -15.29296875 8.09765625 C-14.63296875 7.43765625 -13.97296875 6.77765625 -13.29296875 6.09765625 C-11.97549551 5.40017042 -10.64382682 4.72805668 -9.29296875 4.09765625 C-9.62296875 3.10765625 -9.95296875 2.11765625 -10.29296875 1.09765625 C-6.78672445 -0.07109185 -3.64518215 -0.02748642 0 0 Z " fill="#6B72FE" transform="translate(80.29296875,53.90234375)"/>
<path d="M0 0 C0.33 1.32 0.66 2.64 1 4 C1.66 4 2.32 4 3 4 C3 5.65 3 7.3 3 9 C2.030625 9.28875 1.06125 9.5775 0.0625 9.875 C-3.10664203 10.64214682 -3.10664203 10.64214682 -4 13 C-4.0689472 14.37342831 -4.08467708 15.75002102 -4.0625 17.125 C-4.041875 18.40375 -4.02125 19.6825 -4 21 C-1.36 21.66 1.28 22.32 4 23 C4 20.03 4 17.06 4 14 C5.98 14 7.96 14 10 14 C10.33 14.66 10.66 15.32 11 16 C19.25 16 27.5 16 36 16 C36.33 15.34 36.66 14.68 37 14 C50.53 14 64.06 14 78 14 C78 17.63 78 21.26 78 25 C72.72 25 67.44 25 62 25 C62 25.99 62 26.98 62 28 C62.56847656 27.98839844 63.13695313 27.97679688 63.72265625 27.96484375 C68.60670484 27.90776806 73.18503965 28.18043228 78 29 C78 31.64 78 34.28 78 37 C70.71409984 37.04682155 63.42823335 37.08211748 56.14221191 37.10362434 C52.75718789 37.11395864 49.37226851 37.12792229 45.98730469 37.15087891 C7.5625541 37.39227608 7.5625541 37.39227608 0 33 C0.495 32.54625 0.99 32.0925 1.5 31.625 C3.22609337 30.12364481 3.22609337 30.12364481 3 28 C0.58354218 27.83312552 0.58354218 27.83312552 -2 28 C-2.66 28.66 -3.32 29.32 -4 30 C-5.9375 29.875 -5.9375 29.875 -8 29 C-9.75 26.9375 -9.75 26.9375 -11 25 C-10.34 24.01 -9.68 23.02 -9 22 C-9.66868314 18.88667752 -9.66868314 18.88667752 -12.0625 17.8125 C-12.701875 17.544375 -13.34125 17.27625 -14 17 C-13.67 14.69 -13.34 12.38 -13 10 C-11.02 9.34 -9.04 8.68 -7 8 C-7 6.02 -7 4.04 -7 2 C-2.25 0 -2.25 0 0 0 Z M10 25 C10.33 26.65 10.66 28.3 11 30 C23.87 29.01 23.87 29.01 37 28 C37.33 27.01 37.66 26.02 38 25 C28.76 25 19.52 25 10 25 Z " fill="#B3D0FE" transform="translate(23,88)"/>
<path d="M0 0 C0 1.98 0 3.96 0 6 C6.06050614 7.0812391 6.06050614 7.0812391 12 6 C16 11.75 16 11.75 16 14 C17.28197266 14.09087891 17.28197266 14.09087891 18.58984375 14.18359375 C19.69457031 14.26738281 20.79929688 14.35117187 21.9375 14.4375 C23.03964844 14.51871094 24.14179688 14.59992187 25.27734375 14.68359375 C28 15 28 15 29 16 C29.15806531 17.92478813 29.251135 19.8549921 29.31640625 21.78515625 C29.35830078 22.95498047 29.40019531 24.12480469 29.44335938 25.33007812 C29.48267578 26.56177734 29.52199219 27.79347656 29.5625 29.0625 C29.60568359 30.29806641 29.64886719 31.53363281 29.69335938 32.80664062 C29.79984198 35.87097335 29.90185424 38.93539073 30 42 C31.65 42 33.3 42 35 42 C35.66 43.65 36.32 45.3 37 47 C36.34 47 35.68 47 35 47 C35.66 49.64 36.32 52.28 37 55 C34.66785852 56.20628008 32.50357861 57.1654738 30 58 C29.67 58.99 29.34 59.98 29 61 C27.02 61 25.04 61 23 61 C22.34 59.68 21.68 58.36 21 57 C19.02 57.495 19.02 57.495 17 58 C15.12401005 54.13766774 15.02228464 52.12813154 16 48 C15.67 47.01 15.34 46.02 15 45 C14.34 45 13.68 45 13 45 C12.87625 44.195625 12.7525 43.39125 12.625 42.5625 C12.41875 41.716875 12.2125 40.87125 12 40 C11.01 39.505 11.01 39.505 10 39 C10 38.34 10 37.68 10 37 C10.66 37 11.32 37 12 37 C11.34 35.35 10.68 33.7 10 32 C4.06 31.67 -1.88 31.34 -8 31 C-8 30.34 -8 29.68 -8 29 C-5.69 29.33 -3.38 29.66 -1 30 C-1.05220703 28.51886719 -1.05220703 28.51886719 -1.10546875 27.0078125 C-1.13253906 25.72648437 -1.15960938 24.44515625 -1.1875 23.125 C-1.23970703 21.21074219 -1.23970703 21.21074219 -1.29296875 19.2578125 C-1.19628906 18.18273437 -1.09960938 17.10765625 -1 16 C-0.01 15.34 0.98 14.68 2 14 C0.78410016 12.56844101 0.78410016 12.56844101 -2.8125 12.6875 C-5.78617685 12.74622611 -6.87751147 12.92650688 -9.5 14.5 C-11.71177972 18.18629954 -11.34421275 20.73176192 -11 25 C-10.67 25.66 -10.34 26.32 -10 27 C-13.3 27 -16.6 27 -20 27 C-19.34 26.67 -18.68 26.34 -18 26 C-18.18129815 22.56206661 -18.18129815 22.56206661 -19 19 C-20.93597032 17.48705712 -20.93597032 17.48705712 -23 17 C-22.44271087 13.65626525 -21.64826111 10.96687001 -20 8 C-18.9275 8.20625 -17.855 8.4125 -16.75 8.625 C-13.12380904 8.9876191 -11.91708924 8.98362069 -9 7 C-9.33 5.02 -9.66 3.04 -10 1 C-6.56484998 0.37542727 -3.50935186 0 0 0 Z M21 47 C20.6366844 49.83386167 20.6431329 51.40522151 22.125 53.875 C24.92151052 55.55290631 26.93690532 54.74875648 30 54 C30.67673447 50.59679066 30.67673447 50.59679066 31 47 C29.11499729 44.68436913 29.11499729 44.68436913 26 44.75 C22.88500271 44.68436913 22.88500271 44.68436913 21 47 Z " fill="#36DAC8" transform="translate(106,18)"/>
<path d="M0 0 C18.15 0 36.3 0 55 0 C55.495 1.98 55.495 1.98 56 4 C57.91425781 3.96519531 57.91425781 3.96519531 59.8671875 3.9296875 C61.5364525 3.91093171 63.2057238 3.89273131 64.875 3.875 C65.71675781 3.85824219 66.55851562 3.84148438 67.42578125 3.82421875 C68.23144531 3.81777344 69.03710938 3.81132813 69.8671875 3.8046875 C70.61081543 3.79421387 71.35444336 3.78374023 72.12060547 3.77294922 C74 4 74 4 76 6 C76 7.32 76 8.64 76 10 C75.34 10 74.68 10 74 10 C74 10.66 74 11.32 74 12 C74.99 12.33 75.98 12.66 77 13 C77 21.25 77 29.5 77 38 C79.31 38 81.62 38 84 38 C84.33 38.99 84.66 39.98 85 41 C76.19039858 42.30512614 67.80960142 42.30512614 59 41 C59.33 40.01 59.66 39.02 60 38 C64.29 38 68.58 38 73 38 C73 31.4 73 24.8 73 18 C69.7 18 66.4 18 63 18 C63 15.03 63 12.06 63 9 C38.25 9 13.5 9 -12 9 C-12 10.65 -12 12.3 -12 14 C-13.32 14 -14.64 14 -16 14 C-16.36468886 7.55716353 -16.36468886 7.55716353 -14.875 5.28125 C-12.1629604 3.42802294 -10.05676436 3.70784631 -6.8125 3.8125 C-5.72582031 3.83957031 -4.63914062 3.86664063 -3.51953125 3.89453125 C-2.27236328 3.94673828 -2.27236328 3.94673828 -1 4 C-0.67 2.68 -0.34 1.36 0 0 Z " fill="#3AC6D6" transform="translate(42,45)"/>
<path d="M0 0 C0.89267578 0.00322266 1.78535156 0.00644531 2.70507812 0.00976562 C3.63384766 0.01814453 4.56261719 0.02652344 5.51953125 0.03515625 C6.93008789 0.04192383 6.93008789 0.04192383 8.36914062 0.04882812 C10.69016837 0.06060999 13.01106769 0.07706067 15.33203125 0.09765625 C14.95703125 2.53515625 14.95703125 2.53515625 14.33203125 5.09765625 C13.67203125 5.42765625 13.01203125 5.75765625 12.33203125 6.09765625 C11.67203125 7.08765625 11.01203125 8.07765625 10.33203125 9.09765625 C8.05412859 10.7026372 5.7019585 12.13917295 3.328125 13.59765625 C1.04228817 15.01948888 1.04228817 15.01948888 0.33203125 18.09765625 C-0.65796875 17.76765625 -1.64796875 17.43765625 -2.66796875 17.09765625 C-3.16296875 18.58265625 -3.16296875 18.58265625 -3.66796875 20.09765625 C-4.32796875 21.08765625 -4.98796875 22.07765625 -5.66796875 23.09765625 C-6.16296875 24.58265625 -6.16296875 24.58265625 -6.66796875 26.09765625 C-7.32796875 26.09765625 -7.98796875 26.09765625 -8.66796875 26.09765625 C-10.12673755 27.38844036 -10.12673755 27.38844036 -11.66796875 29.09765625 C-12.36921875 29.75765625 -13.07046875 30.41765625 -13.79296875 31.09765625 C-15.88394953 33.0486926 -15.88394953 33.0486926 -16.66796875 36.09765625 C-17.32796875 35.10765625 -17.98796875 34.11765625 -18.66796875 33.09765625 C-20.7890367 32.59063108 -20.7890367 32.59063108 -23.23828125 32.5859375 C-24.13417969 32.55048828 -25.03007813 32.51503906 -25.953125 32.47851562 C-26.89027344 32.45595703 -27.82742187 32.43339844 -28.79296875 32.41015625 C-29.73785156 32.37599609 -30.68273438 32.34183594 -31.65625 32.30664062 C-33.99337128 32.22401513 -36.33011066 32.15491637 -38.66796875 32.09765625 C-38.66796875 31.10765625 -38.66796875 30.11765625 -38.66796875 29.09765625 C-38.00796875 29.09765625 -37.34796875 29.09765625 -36.66796875 29.09765625 C-36.33796875 28.10765625 -36.00796875 27.11765625 -35.66796875 26.09765625 C-34.67796875 25.76765625 -33.68796875 25.43765625 -32.66796875 25.09765625 C-32.66796875 24.10765625 -32.66796875 23.11765625 -32.66796875 22.09765625 C-31.01796875 21.76765625 -29.36796875 21.43765625 -27.66796875 21.09765625 C-27.33796875 20.10765625 -27.00796875 19.11765625 -26.66796875 18.09765625 C-25.01796875 17.76765625 -23.36796875 17.43765625 -21.66796875 17.09765625 C-21.00796875 15.11765625 -20.34796875 13.13765625 -19.66796875 11.09765625 C-18.67796875 11.42765625 -17.68796875 11.75765625 -16.66796875 12.09765625 C-16.54421875 11.29328125 -16.42046875 10.48890625 -16.29296875 9.66015625 C-15.98359375 8.39171875 -15.98359375 8.39171875 -15.66796875 7.09765625 C-15.00796875 6.76765625 -14.34796875 6.43765625 -13.66796875 6.09765625 C-13.33796875 6.75765625 -13.00796875 7.41765625 -12.66796875 8.09765625 C-12.00796875 7.43765625 -11.34796875 6.77765625 -10.66796875 6.09765625 C-9.35049551 5.40017042 -8.01882682 4.72805668 -6.66796875 4.09765625 C-6.99796875 3.10765625 -7.32796875 2.11765625 -7.66796875 1.09765625 C-4.78531726 0.13677242 -2.99134604 -0.01905316 0 0 Z " fill="#655CFE" transform="translate(77.66796875,53.90234375)"/>
<path d="M0 0 C0.33 1.32 0.66 2.64 1 4 C1.66 4 2.32 4 3 4 C3 5.65 3 7.3 3 9 C2.030625 9.28875 1.06125 9.5775 0.0625 9.875 C-3.10664203 10.64214682 -3.10664203 10.64214682 -4 13 C-4.0689472 14.37342831 -4.08467708 15.75002102 -4.0625 17.125 C-4.041875 18.40375 -4.02125 19.6825 -4 21 C2.88824069 23.40990104 2.88824069 23.40990104 10 25 C10.33 26.65 10.66 28.3 11 30 C11.66 29.67 12.32 29.34 13 29 C14.81171098 28.84693099 16.6283794 28.75053339 18.4453125 28.68359375 C19.52167969 28.64169922 20.59804688 28.59980469 21.70703125 28.55664062 C22.83496094 28.51732422 23.96289062 28.47800781 25.125 28.4375 C26.26066406 28.39431641 27.39632812 28.35113281 28.56640625 28.30664062 C31.37747768 28.2003396 34.18863945 28.09830595 37 28 C36.67 28.66 36.34 29.32 36 30 C33.35139573 30.59355614 30.70802678 30.74209269 28 31 C28 31.66 28 32.32 28 33 C42.19 33 56.38 33 71 33 C70.67 32.34 70.34 31.68 70 31 C68.845 30.835 67.69 30.67 66.5 30.5 C65.345 30.335 64.19 30.17 63 30 C62.505 29.01 62.505 29.01 62 28 C67.45769811 27.88861841 72.61509359 28.08342019 78 29 C78 31.64 78 34.28 78 37 C70.71409984 37.04682155 63.42823335 37.08211748 56.14221191 37.10362434 C52.75718789 37.11395864 49.37226851 37.12792229 45.98730469 37.15087891 C7.5625541 37.39227608 7.5625541 37.39227608 0 33 C0.495 32.54625 0.99 32.0925 1.5 31.625 C3.22609337 30.12364481 3.22609337 30.12364481 3 28 C0.58354218 27.83312552 0.58354218 27.83312552 -2 28 C-2.66 28.66 -3.32 29.32 -4 30 C-5.9375 29.875 -5.9375 29.875 -8 29 C-9.75 26.9375 -9.75 26.9375 -11 25 C-10.34 24.01 -9.68 23.02 -9 22 C-9.66868314 18.88667752 -9.66868314 18.88667752 -12.0625 17.8125 C-12.701875 17.544375 -13.34125 17.27625 -14 17 C-13.67 14.69 -13.34 12.38 -13 10 C-11.02 9.34 -9.04 8.68 -7 8 C-7 6.02 -7 4.04 -7 2 C-2.25 0 -2.25 0 0 0 Z " fill="#EAEBF2" transform="translate(23,88)"/>
<path d="M0 0 C0 6.6 0 13.2 0 20 C-4.29 20 -8.58 20 -13 20 C-13.33 24.62 -13.66 29.24 -14 34 C-22.58 34 -31.16 34 -40 34 C-40.33 32.68 -40.66 31.36 -41 30 C-40.01 29.34 -39.02 28.68 -38 28 C-38.99 27.67 -39.98 27.34 -41 27 C-40.443125 26.938125 -39.88625 26.87625 -39.3125 26.8125 C-36.73614971 26.09959225 -36.73614971 26.09959225 -34.5625 23.5 C-31.87876678 20.88172369 -30.6519961 20.31302824 -27 20 C-27.33 18.02 -27.66 16.04 -28 14 C-25.36 14.33 -22.72 14.66 -20 15 C-19.896875 14.401875 -19.79375 13.80375 -19.6875 13.1875 C-18.90088144 10.68462276 -17.86454169 9.78685245 -16 8 C-15.67 7.01 -15.34 6.02 -15 5 C-14.34 5 -13.68 5 -13 5 C-12.67 4.01 -12.34 3.02 -12 2 C-7.61502988 0.06245506 -4.97863403 0 0 0 Z " fill="#7284FE" transform="translate(115,63)"/>
<path d="M0 0 C1.12019531 -0.00128906 2.24039063 -0.00257812 3.39453125 -0.00390625 C4.57402344 -0.00003906 5.75351562 0.00382812 6.96875 0.0078125 C8.73798828 0.00201172 8.73798828 0.00201172 10.54296875 -0.00390625 C12.22326172 -0.00197266 12.22326172 -0.00197266 13.9375 0 C14.97326172 0.00112793 16.00902344 0.00225586 17.07617188 0.00341797 C19.46875 0.1328125 19.46875 0.1328125 20.46875 1.1328125 C20.56861975 3.97616298 20.60752881 6.78978413 20.59375 9.6328125 C20.59955078 10.82970703 20.59955078 10.82970703 20.60546875 12.05078125 C20.59535767 18.00620483 20.59535767 18.00620483 19.46875 19.1328125 C17.62715977 19.23240871 15.78178033 19.26361661 13.9375 19.265625 C12.81730469 19.26691406 11.69710937 19.26820312 10.54296875 19.26953125 C9.36347656 19.26566406 8.18398438 19.26179688 6.96875 19.2578125 C5.19951172 19.26361328 5.19951172 19.26361328 3.39453125 19.26953125 C1.71423828 19.26759766 1.71423828 19.26759766 0 19.265625 C-1.03576172 19.26449707 -2.07152344 19.26336914 -3.13867188 19.26220703 C-5.53125 19.1328125 -5.53125 19.1328125 -6.53125 18.1328125 C-6.63111975 15.28946202 -6.67002881 12.47584087 -6.65625 9.6328125 C-6.66011719 8.83488281 -6.66398437 8.03695312 -6.66796875 7.21484375 C-6.65573175 0.007248 -6.65573175 0.007248 0 0 Z " fill="#35D9C3" transform="translate(39.53125,85.8671875)"/>
<path d="M0 0 C2.64 0 5.28 0 8 0 C8 12.54 8 25.08 8 38 C-0.25 38 -8.5 38 -17 38 C-17.26785714 24.60714286 -17.26785714 24.60714286 -15 21 C-14.67 21 -14.34 21 -14 21 C-13.67 22.98 -13.34 24.96 -13 27 C-7.39 27.33 -1.78 27.66 4 28 C4 22.06 4 16.12 4 10 C0.37 10 -3.26 10 -7 10 C-6.34 9.01 -5.68 8.02 -5 7 C-4.36707617 4.88719655 -4.36707617 4.88719655 -4 3 C-2.68 2.67 -1.36 2.34 0 2 C0 1.34 0 0.68 0 0 Z " fill="#748AFE" transform="translate(119,86)"/>
<path d="M0 0 C0.83265381 0.00523682 1.66530762 0.01047363 2.52319336 0.01586914 C3.33280518 0.0183667 4.14241699 0.02086426 4.9765625 0.0234375 C6.01159912 0.0325415 7.04663574 0.04164551 8.11303711 0.05102539 C11.39241211 0.07165039 14.67178711 0.09227539 18.05053711 0.11352539 C18.05053711 7.04352539 18.05053711 13.97352539 18.05053711 21.11352539 C11.12053711 21.11352539 4.19053711 21.11352539 -2.94946289 21.11352539 C-2.97008789 17.83415039 -2.99071289 14.55477539 -3.01196289 11.17602539 C-3.02106689 10.14098877 -3.0301709 9.10595215 -3.03955078 8.03955078 C-3.04329712 6.82513306 -3.04329712 6.82513306 -3.04711914 5.58618164 C-3.05235596 4.75352783 -3.05759277 3.92087402 -3.06298828 3.06298828 C-2.90876673 0.41468917 -2.64829911 0.15422155 0 0 Z " fill="#35D9C7" transform="translate(15.949462890625,58.886474609375)"/>
<path d="M0 0 C7.81452752 -0.02526563 15.62904458 -0.04283105 23.44360352 -0.05493164 C26.10441481 -0.05997383 28.76522332 -0.06680736 31.42602539 -0.07543945 C35.24105516 -0.08751009 39.05604844 -0.09322929 42.87109375 -0.09765625 C44.66793861 -0.10539818 44.66793861 -0.10539818 46.50108337 -0.11329651 C48.15268211 -0.11340981 48.15268211 -0.11340981 49.83764648 -0.11352539 C50.81249496 -0.115746 51.78734344 -0.11796661 52.79173279 -0.12025452 C55 0 55 0 56 1 C56.125 3.5 56.125 3.5 56 6 C55 7 55 7 52.79173279 7.12025452 C51.81688431 7.11803391 50.84203583 7.11581329 49.83764648 7.11352539 C48.73658066 7.11344986 47.63551483 7.11337433 46.50108337 7.11329651 C45.3031868 7.10813522 44.10529022 7.10297394 42.87109375 7.09765625 C41.65172623 7.0962413 40.4323587 7.09482635 39.17604065 7.09336853 C35.2631693 7.08774967 31.35035419 7.07519396 27.4375 7.0625 C24.79231853 7.05748743 22.14713617 7.0529241 19.50195312 7.04882812 C13.00128274 7.03777411 6.50064539 7.02101764 0 7 C-1.125 2.25 -1.125 2.25 0 0 Z " fill="#3A659E" transform="translate(42,45)"/>
<path d="M0 0 C0 1.98 0 3.96 0 6 C6.06050614 7.0812391 6.06050614 7.0812391 12 6 C16 11.75 16 11.75 16 14 C13.39820337 15.30089831 11.4030812 15.16840078 8.5 15.1875 C7.5203125 15.20167969 6.540625 15.21585938 5.53125 15.23046875 C3 15 3 15 1 13 C-4.54235245 12.42765564 -4.54235245 12.42765564 -9.5 14.5 C-11.71177972 18.18629954 -11.34421275 20.73176192 -11 25 C-10.67 25.66 -10.34 26.32 -10 27 C-13.3 27 -16.6 27 -20 27 C-19.34 26.67 -18.68 26.34 -18 26 C-18.18129815 22.56206661 -18.18129815 22.56206661 -19 19 C-20.93597032 17.48705712 -20.93597032 17.48705712 -23 17 C-22.44271087 13.65626525 -21.64826111 10.96687001 -20 8 C-18.9275 8.20625 -17.855 8.4125 -16.75 8.625 C-13.12380904 8.9876191 -11.91708924 8.98362069 -9 7 C-9.33 5.02 -9.66 3.04 -10 1 C-6.56484998 0.37542727 -3.50935186 0 0 0 Z " fill="#E9EBF1" transform="translate(106,18)"/>
<path d="M0 0 C11.22 0 22.44 0 34 0 C31.30894369 2.69105631 29.05961254 3.80286278 25.3125 4.5 C24.549375 4.665 23.78625 4.83 23 5 C22.67 5.66 22.34 6.32 22 7 C21.01 7.33 20.02 7.66 19 8 C17.97980427 8.9793879 16.97850195 9.97895449 16 11 C15.01 11.495 15.01 11.495 14 12 C14.33 12.99 14.66 13.98 15 15 C14.34 15 13.68 15 13 15 C13.66 16.32 14.32 17.64 15 19 C13.63875 19.6496875 13.63875 19.6496875 12.25 20.3125 C8.74868501 22.01781392 8.74868501 22.01781392 5 25 C4.67 18.4 4.34 11.8 4 5 C2.68 5 1.36 5 0 5 C0 3.35 0 1.7 0 0 Z " fill="#5B3DFF" transform="translate(30,54)"/>
<path d="M0 0 C1.58206422 0.00574487 3.16410406 0.01876032 4.74609375 0.03515625 C7.53046875 0.05578125 10.31484375 0.07640625 13.18359375 0.09765625 C13.18359375 6.03765625 13.18359375 11.97765625 13.18359375 18.09765625 C10.39921875 18.11828125 7.61484375 18.13890625 4.74609375 18.16015625 C3.86767822 18.16926025 2.9892627 18.17836426 2.08422852 18.18774414 C0.11713401 18.19488716 -1.84994246 18.14797518 -3.81640625 18.09765625 C-5.63756628 16.27649622 -4.94875705 13.79093861 -4.953125 11.37109375 C-4.94925781 10.62085937 -4.94539063 9.870625 -4.94140625 9.09765625 C-4.94527344 8.34742187 -4.94914062 7.5971875 -4.953125 6.82421875 C-4.94103514 0.12643386 -4.94103514 0.12643386 0 0 Z " fill="#3ECFE4" transform="translate(109.81640625,95.90234375)"/>
<path d="M0 0 C1.16781006 0.00523682 2.33562012 0.01047363 3.53881836 0.01586914 C4.79887695 0.0190918 6.05893555 0.02231445 7.35717773 0.02563477 C8.6976732 0.03399136 10.03816799 0.04245632 11.37866211 0.05102539 C12.72306153 0.05603879 14.06746271 0.06060197 15.41186523 0.06469727 C18.71334151 0.07653051 22.01473014 0.09301568 25.31616211 0.11352539 C26.63154538 4.27124033 25.66049279 7.00145509 24.31616211 11.11352539 C21.50366211 10.86352539 21.50366211 10.86352539 18.31616211 10.11352539 C17.30973263 8.78503848 16.30924032 7.4520221 15.31616211 6.11352539 C12.85943319 5.44666601 12.85943319 5.44666601 10.31616211 6.11352539 C8.94053356 7.40317715 7.60849818 8.74041832 6.31616211 10.11352539 C3.87866211 11.23852539 3.87866211 11.23852539 1.31616211 12.11352539 C-0.35252472 12.77511929 -2.01948064 13.44111395 -3.68383789 14.11352539 C-3.71069727 11.96775903 -3.73016877 9.82189894 -3.74633789 7.67602539 C-3.75793945 6.48106445 -3.76954102 5.28610352 -3.78149414 4.05493164 C-3.65199701 0.15447818 -3.65199701 0.15447818 0 0 Z " fill="#37D1D5" transform="translate(108.683837890625,32.886474609375)"/>
<path d="M0 0 C1.98 0 3.96 0 6 0 C6.33 0.66 6.66 1.32 7 2 C15.25 2.33 23.5 2.66 32 3 C31.67 4.32 31.34 5.64 31 7 C30.01 7.33 29.02 7.66 28 8 C28.66 8.33 29.32 8.66 30 9 C30 9.66 30 10.32 30 11 C25.8882744 11.02465746 21.77657722 11.04283959 17.66479492 11.05493164 C16.26504772 11.0599708 14.8653058 11.06680216 13.46557617 11.07543945 C11.45754223 11.0875232 9.44947043 11.09269807 7.44140625 11.09765625 C6.23170166 11.10289307 5.02199707 11.10812988 3.77563477 11.11352539 C1 11 1 11 0 10 C-0.07205511 8.31391034 -0.08386068 6.62499341 -0.0625 4.9375 C-0.05347656 4.01839844 -0.04445313 3.09929687 -0.03515625 2.15234375 C-0.02355469 1.44207031 -0.01195313 0.73179688 0 0 Z " fill="#C2DAFE" transform="translate(27,102)"/>
<path d="M0 0 C1.08667969 0.02707031 2.17335938 0.05414063 3.29296875 0.08203125 C4.54013672 0.13423828 4.54013672 0.13423828 5.8125 0.1875 C6.1425 0.8475 6.4725 1.5075 6.8125 2.1875 C24.9625 2.1875 43.1125 2.1875 61.8125 2.1875 C62.1425 1.5275 62.4725 0.8675 62.8125 0.1875 C65.1225 0.1875 67.4325 0.1875 69.8125 0.1875 C69.8125 1.8375 69.8125 3.4875 69.8125 5.1875 C45.0625 5.1875 20.3125 5.1875 -5.1875 5.1875 C-5.1875 6.8375 -5.1875 8.4875 -5.1875 10.1875 C-6.5075 10.1875 -7.8275 10.1875 -9.1875 10.1875 C-9.55218886 3.74466353 -9.55218886 3.74466353 -8.0625 1.46875 C-5.3504604 -0.38447706 -3.24426436 -0.10465369 0 0 Z " fill="#3C4790" transform="translate(35.1875,48.8125)"/>
<path d="M0 0 C2.5 0.375 2.5 0.375 4.3125 1.75 C5.5 3.375 5.5 3.375 5.5 5.375 C7.15 5.375 8.8 5.375 10.5 5.375 C10.995 7.355 10.995 7.355 11.5 9.375 C7.87 9.705 4.24 10.035 0.5 10.375 C0.5 12.685 0.5 14.995 0.5 17.375 C1.16 17.375 1.82 17.375 2.5 17.375 C2.17 18.695 1.84 20.015 1.5 21.375 C-3.25 20.5 -3.25 20.5 -5.5 19.375 C-5.5 18.715 -5.5 18.055 -5.5 17.375 C-4.84 17.375 -4.18 17.375 -3.5 17.375 C-4.16 15.725 -4.82 14.075 -5.5 12.375 C-11.44 12.045 -17.38 11.715 -23.5 11.375 C-23.5 10.715 -23.5 10.055 -23.5 9.375 C-22.46875 9.4575 -21.4375 9.54 -20.375 9.625 C-15.83323546 9.33198293 -14.10542086 8.03987629 -10.5 5.375 C-9.613125 5.024375 -8.72625 4.67375 -7.8125 4.3125 C-5.4405094 3.54211637 -5.4405094 3.54211637 -4 1.75 C-2.5 0.375 -2.5 0.375 0 0 Z " fill="#7DDAE2" transform="translate(121.5,37.625)"/>
<path d="M0 0 C0.33 0 0.66 0 1 0 C1.33 5.61 1.66 11.22 2 17 C2.99 17.33 3.98 17.66 5 18 C5 20.31 5 22.62 5 25 C3.35 25.33 1.7 25.66 0 26 C-0.33 30.95 -0.66 35.9 -1 41 C-3.31 41 -5.62 41 -8 41 C-8 33.74 -8 26.48 -8 19 C-5.36 19 -2.72 19 0 19 C0 12.73 0 6.46 0 0 Z " fill="#5D52FC" transform="translate(34,61)"/>
<path d="M0 0 C13.53 0 27.06 0 41 0 C41 1.65 41 3.3 41 5 C27.47 5 13.94 5 0 5 C0 3.35 0 1.7 0 0 Z " fill="#3C3D89" transform="translate(60,97)"/>
<path d="M0 0 C0.83265381 0.00523682 1.66530762 0.01047363 2.52319336 0.01586914 C3.42231445 0.0190918 4.32143555 0.02231445 5.24780273 0.02563477 C6.66609375 0.03820313 6.66609375 0.03820313 8.11303711 0.05102539 C9.06243164 0.05553711 10.01182617 0.06004883 10.98999023 0.06469727 C13.34353242 0.07652411 15.69704243 0.09446018 18.05053711 0.11352539 C17.72053711 3.08352539 17.39053711 6.05352539 17.05053711 9.11352539 C16.39053711 9.11352539 15.73053711 9.11352539 15.05053711 9.11352539 C15.05053711 10.10352539 15.05053711 11.09352539 15.05053711 12.11352539 C14.39053711 12.11352539 13.73053711 12.11352539 13.05053711 12.11352539 C13.05053711 10.46352539 13.05053711 8.81352539 13.05053711 7.11352539 C11.73053711 6.78352539 10.41053711 6.45352539 9.05053711 6.11352539 C9.05053711 5.45352539 9.05053711 4.79352539 9.05053711 4.11352539 C8.06053711 4.11352539 7.07053711 4.11352539 6.05053711 4.11352539 C6.05053711 4.77352539 6.05053711 5.43352539 6.05053711 6.11352539 C4.73053711 6.44352539 3.41053711 6.77352539 2.05053711 7.11352539 C2.05053711 9.42352539 2.05053711 11.73352539 2.05053711 14.11352539 C3.37053711 14.44352539 4.69053711 14.77352539 6.05053711 15.11352539 C5.72053711 16.10352539 5.39053711 17.09352539 5.05053711 18.11352539 C4.72053711 17.45352539 4.39053711 16.79352539 4.05053711 16.11352539 C3.39053711 16.11352539 2.73053711 16.11352539 2.05053711 16.11352539 C2.05053711 16.77352539 2.05053711 17.43352539 2.05053711 18.11352539 C0.40053711 18.11352539 -1.24946289 18.11352539 -2.94946289 18.11352539 C-2.97630601 15.30096258 -2.99622477 12.48865298 -3.01196289 9.67602539 C-3.0203418 8.87358398 -3.0287207 8.07114258 -3.03735352 7.24438477 C-3.04597719 5.20057318 -3.00174439 3.15668637 -2.94946289 1.11352539 C-1.94946289 0.11352539 -1.94946289 0.11352539 0 0 Z " fill="#35C9DD" transform="translate(15.949462890625,58.886474609375)"/>
<path d="M0 0 C1.98 0 3.96 0 6 0 C6.66 1.65 7.32 3.3 8 5 C7.34 5 6.68 5 6 5 C6.66 7.64 7.32 10.28 8 13 C5.66785852 14.20628008 3.50357861 15.1654738 1 16 C0.67 16.99 0.34 17.98 0 19 C-1.98 19 -3.96 19 -6 19 C-6.66 17.68 -7.32 16.36 -8 15 C-9.32 15.33 -10.64 15.66 -12 16 C-13.87598995 12.13766774 -13.97771536 10.12813154 -13 6 C-13.33 5.01 -13.66 4.02 -14 3 C-11.36 3 -8.72 3 -6 3 C-6.20625 4.11375 -6.4125 5.2275 -6.625 6.375 C-6.74875 7.57125 -6.8725 8.7675 -7 10 C-5.10244856 12.34973818 -5.10244856 12.34973818 -1.875 12.125 C-0.451875 12.063125 -0.451875 12.063125 1 12 C1.29562367 6.67829506 1.29562367 6.67829506 -1 2 C-0.67 1.34 -0.34 0.68 0 0 Z " fill="#EAEAF2" transform="translate(135,60)"/>
<path d="M0 0 C1.32 0 2.64 0 4 0 C4 6.6 4 13.2 4 20 C6.31 20 8.62 20 11 20 C11.33 20.99 11.66 21.98 12 23 C3.19039858 24.30512614 -5.19039858 24.30512614 -14 23 C-13.505 21.515 -13.505 21.515 -13 20 C-8.71 20 -4.42 20 0 20 C0 13.4 0 6.8 0 0 Z " fill="#4C4CA1" transform="translate(115,63)"/>
<path d="M0 0 C1.31871094 -0.01224609 2.63742188 -0.02449219 3.99609375 -0.03710938 C5.90068359 -0.04000977 5.90068359 -0.04000977 7.84375 -0.04296875 C9.00068359 -0.04707764 10.15761719 -0.05118652 11.34960938 -0.05541992 C14.47736509 0.18575467 16.680892 0.85423629 19.5 2.1875 C18.5 4.1875 18.5 4.1875 16.84521484 4.80200195 C11.99200924 5.59975457 7.04404055 5.37340312 2.13769531 5.37280273 C0.13863013 5.37498512 -1.86039532 5.39349143 -3.859375 5.41210938 C-5.13039063 5.41404297 -6.40140625 5.41597656 -7.7109375 5.41796875 C-8.86899902 5.42207764 -10.02706055 5.42618652 -11.22021484 5.43041992 C-14.61310954 5.17912245 -17.33332989 4.39923908 -20.5 3.1875 C-20.17 2.5275 -19.84 1.8675 -19.5 1.1875 C-13.23640183 -0.60566158 -6.45139424 0.00315317 0 0 Z " fill="#EAEBF2" transform="translate(114.5,125.8125)"/>
<path d="M0 0 C2.5 2.625 2.5 2.625 4 5 C2.71034824 6.37562854 1.37310707 7.70766393 0 9 C-0.66 9 -1.32 9 -2 9 C-2.66 8.01 -3.32 7.02 -4 6 C-4.99 6.495 -4.99 6.495 -6 7 C-6.33 7.99 -6.66 8.98 -7 10 C-7.66 10 -8.32 10 -9 10 C-9 8.68 -9 7.36 -9 6 C-9.99 6 -10.98 6 -12 6 C-12.33 6.99 -12.66 7.98 -13 9 C-14.32 7.35 -15.64 5.7 -17 4 C-11.80622264 -1.77086374 -7.14582481 -3.23725257 0 0 Z " fill="#50CBDA" transform="translate(53,91)"/>
<path d="M0 0 C18.15 0 36.3 0 55 0 C55.495 1.98 55.495 1.98 56 4 C55.01 4 54.02 4 53 4 C53 3.34 53 2.68 53 2 C36.17 2 19.34 2 2 2 C2 2.66 2 3.32 2 4 C1.01 4 0.02 4 -1 4 C-0.67 2.68 -0.34 1.36 0 0 Z " fill="#33CFD6" transform="translate(42,45)"/>
<path d="M0 0 C0.83265381 0.00523682 1.66530762 0.01047363 2.52319336 0.01586914 C3.42231445 0.0190918 4.32143555 0.02231445 5.24780273 0.02563477 C6.66609375 0.03820312 6.66609375 0.03820312 8.11303711 0.05102539 C9.06243164 0.05553711 10.01182617 0.06004883 10.98999023 0.06469727 C13.34356776 0.07652429 15.69702188 0.09300514 18.05053711 0.11352539 C18.09325811 1.77964444 18.09117543 3.44735424 18.05053711 5.11352539 C17.05053711 6.11352539 17.05053711 6.11352539 15.19287109 6.22705078 C14.40211182 6.22181396 13.61135254 6.21657715 12.79663086 6.21118164 C11.94262695 6.20795898 11.08862305 6.20473633 10.20874023 6.20141602 C9.3109082 6.19303711 8.41307617 6.1846582 7.48803711 6.17602539 C6.58633789 6.17151367 5.68463867 6.16700195 4.75561523 6.16235352 C2.52052397 6.15052764 0.28556274 6.13404759 -1.94946289 6.11352539 C-2.33165056 4.45737882 -2.66341391 2.78895515 -2.94946289 1.11352539 C-1.94946289 0.11352539 -1.94946289 0.11352539 0 0 Z " fill="#36ACC4" transform="translate(15.949462890625,31.886474609375)"/>
<path d="M0 0 C0.99 0 1.98 0 3 0 C3 0.66 3 1.32 3 2 C4.65 2.33 6.3 2.66 8 3 C8 5.31 8 7.62 8 10 C6.35 10.33 4.7 10.66 3 11 C3 11.66 3 12.32 3 13 C2.01 13 1.02 13 0 13 C0 12.34 0 11.68 0 11 C-1.65 10.67 -3.3 10.34 -5 10 C-5 7.69 -5 5.38 -5 3 C-3.35 2.67 -1.7 2.34 0 2 C0 1.34 0 0.68 0 0 Z " fill="#F0F9FB" transform="translate(22,63)"/>
<path d="M0 0 C0 4.62 0 9.24 0 14 C-4.95 14 -9.9 14 -15 14 C-14.01 13.01 -13.02 12.02 -12 11 C-11.71125 10.13375 -11.4225 9.2675 -11.125 8.375 C-10.75375 7.59125 -10.3825 6.8075 -10 6 C-7.375 5.1875 -7.375 5.1875 -5 5 C-5.33 4.34 -5.66 3.68 -6 3 C-2.25 0 -2.25 0 0 0 Z " fill="#39D9D9" transform="translate(123,100)"/>
<path d="M0 0 C2.64 0 5.28 0 8 0 C8 2.97 8 5.94 8 9 C7.34 9 6.68 9 6 9 C6 10.65 6 12.3 6 14 C5.34 12.68 4.68 11.36 4 10 C0.37 10 -3.26 10 -7 10 C-6.34 9.01 -5.68 8.02 -5 7 C-4.36707617 4.88719655 -4.36707617 4.88719655 -4 3 C-2.68 2.67 -1.36 2.34 0 2 C0 1.34 0 0.68 0 0 Z " fill="#6253FE" transform="translate(119,86)"/>
<path d="M0 0 C2.5 0.375 2.5 0.375 4.3125 1.75 C5.5 3.375 5.5 3.375 5.5 5.375 C7.15 5.375 8.8 5.375 10.5 5.375 C10.83 6.365 11.16 7.355 11.5 8.375 C3.91 8.375 -3.68 8.375 -11.5 8.375 C-11.17 7.385 -10.84 6.395 -10.5 5.375 C-8.84561387 4.67841637 -7.17745682 4.01403117 -5.5 3.375 C-5.005 2.83875 -4.51 2.3025 -4 1.75 C-2.5 0.375 -2.5 0.375 0 0 Z " fill="#F8FDFD" transform="translate(121.5,37.625)"/>
<path d="M0 0 C0.33 0 0.66 0 1 0 C1.33 1.98 1.66 3.96 2 6 C4.97 6.33 7.94 6.66 11 7 C10 9 9 11 8 13 C7.01 13 6.02 13 5 13 C5.33 13.66 5.66 14.32 6 15 C5.01 15 4.02 15 3 15 C2.67 15.66 2.34 16.32 2 17 C0.68 17 -0.64 17 -2 17 C-2.05418326 14.91695462 -2.09287551 12.83350232 -2.125 10.75 C-2.14820312 9.58984375 -2.17140625 8.4296875 -2.1953125 7.234375 C-2.0103949 4.17213954 -1.60823023 2.55797249 0 0 Z " fill="#6B72FE" transform="translate(104,107)"/>
<path d="M0 0 C1.32 0 2.64 0 4 0 C4 5.61 4 11.22 4 17 C4.99 17 5.98 17 7 17 C7 18.65 7 20.3 7 22 C4.69 22 2.38 22 0 22 C0 14.74 0 7.48 0 0 Z " fill="#41448E" transform="translate(26,80)"/>
<path d="M0 0 C1.06347656 -0.00773437 2.12695312 -0.01546875 3.22265625 -0.0234375 C4.11855469 0.10804687 5.01445313 0.23953125 5.9375 0.375 C6.5975 1.365 7.2575 2.355 7.9375 3.375 C11.50519552 4.11106499 11.50519552 4.11106499 14.9375 4.375 C14.9375 4.705 14.9375 5.035 14.9375 5.375 C8.3375 5.375 1.7375 5.375 -5.0625 5.375 C-5.0625 7.025 -5.0625 8.675 -5.0625 10.375 C-6.3825 10.375 -7.7025 10.375 -9.0625 10.375 C-9.42758603 3.92514687 -9.42758603 3.92514687 -7.9296875 1.66796875 C-5.26334318 -0.17839102 -3.21252194 -0.02342057 0 0 Z " fill="#3C3D89" transform="translate(35.0625,48.625)"/>
<path d="M0 0 C1.48831242 0.00667405 2.97660807 0.01863442 4.46484375 0.03515625 C5.22345703 0.03966797 5.98207031 0.04417969 6.76367188 0.04882812 C8.64326246 0.06064945 10.52281274 0.07858547 12.40234375 0.09765625 C9.70494959 2.33250913 7.40037816 4.09858123 4.21484375 5.59765625 C1.25264368 7.17749629 0.47381311 7.9903951 -0.59765625 11.09765625 C-1.91765625 11.09765625 -3.23765625 11.09765625 -4.59765625 11.09765625 C-4.62453776 9.45191059 -4.64399748 7.80604212 -4.66015625 6.16015625 C-4.67175781 5.24363281 -4.68335938 4.32710938 -4.6953125 3.3828125 C-4.53349483 -0.403721 -3.94500857 0.10708492 0 0 Z " fill="#42A8E5" transform="translate(37.59765625,85.90234375)"/>
<path d="M0 0 C1.93166016 0.01740234 1.93166016 0.01740234 3.90234375 0.03515625 C5.19269531 0.04417969 6.48304687 0.05320312 7.8125 0.0625 C8.81152344 0.07410156 9.81054688 0.08570312 10.83984375 0.09765625 C10.25460938 0.53207031 9.669375 0.96648437 9.06640625 1.4140625 C7.07885099 2.91693323 5.13165676 4.44344148 3.21484375 6.03515625 C2.62445313 6.51855469 2.0340625 7.00195312 1.42578125 7.5 C-0.29681241 9.23532218 -1.18754176 10.8683468 -2.16015625 13.09765625 C-2.82015625 13.09765625 -3.48015625 13.09765625 -4.16015625 13.09765625 C-4.18702178 11.11856227 -4.20649 9.13936654 -4.22265625 7.16015625 C-4.23425781 6.05800781 -4.24585937 4.95585938 -4.2578125 3.8203125 C-4.11749553 -0.09172464 -3.97435676 0.12281696 0 0 Z " fill="#40C2EE" transform="translate(109.16015625,95.90234375)"/>
<path d="M0 0 C1.32 0 2.64 0 4 0 C4 6.6 4 13.2 4 20 C2.68 19.67 1.36 19.34 0 19 C0 12.73 0 6.46 0 0 Z " fill="#3E3E8B" transform="translate(115,63)"/>
<path d="M0 0 C1.67542976 0.28604898 3.34385343 0.61781233 5 1 C6.00619398 5.3266341 6.36822864 8.12471677 4 12 C1.4140625 13.140625 1.4140625 13.140625 -1 14 C-1.02685938 11.85423363 -1.04633088 9.70837355 -1.0625 7.5625 C-1.07410156 6.36753906 -1.08570312 5.17257813 -1.09765625 3.94140625 C-1 1 -1 1 0 0 Z " fill="#33C7DF" transform="translate(106,33)"/>
<path d="M0 0 C8.58 0 17.16 0 26 0 C25.67 0.99 25.34 1.98 25 3 C17.08 3 9.16 3 1 3 C0.67 2.01 0.34 1.02 0 0 Z " fill="#4C4CA0" transform="translate(101,124)"/>
<path d="M0 0 C0.66 0.33 1.32 0.66 2 1 C1.67 2.65 1.34 4.3 1 6 C-4.61 6 -10.22 6 -16 6 C-16 4.35 -16 2.7 -16 1 C-13.625 0.875 -13.625 0.875 -11 1 C-10.34 1.66 -9.68 2.32 -9 3 C-8.67 2.34 -8.34 1.68 -8 1 C-7.01 1 -6.02 1 -5 1 C-5 2.32 -5 3.64 -5 5 C-4.34 5 -3.68 5 -3 5 C-2.87625 4.360625 -2.7525 3.72125 -2.625 3.0625 C-2.41875 2.381875 -2.2125 1.70125 -2 1 C-1.34 0.67 -0.68 0.34 0 0 Z " fill="#3CBDC8" transform="translate(49,96)"/>
<path d="M0 0 C0.70461365 0.02361099 1.40922729 0.04722198 2.13519287 0.07154846 C4.3768078 0.14787602 6.61804996 0.23203204 8.859375 0.31640625 C10.3827945 0.36965795 11.90623198 0.42239813 13.4296875 0.47460938 C17.15647655 0.60344873 20.88297167 0.73930857 24.609375 0.87890625 C24.609375 1.53890625 24.609375 2.19890625 24.609375 2.87890625 C12.729375 2.87890625 0.849375 2.87890625 -11.390625 2.87890625 C-11.390625 2.21890625 -11.390625 1.55890625 -11.390625 0.87890625 C-7.60849365 -0.3691971 -3.92263206 -0.15611092 0 0 Z " fill="#87B4FE" transform="translate(69.390625,118.12109375)"/>
<path d="M0 0 C1.79133978 -0.05391993 3.58313899 -0.09275571 5.375 -0.125 C6.37273437 -0.14820313 7.37046875 -0.17140625 8.3984375 -0.1953125 C11 0 11 0 13 2 C13 3.32 13 4.64 13 6 C8.71 5.67 4.42 5.34 0 5 C0 3.35 0 1.7 0 0 Z " fill="#34AEC5" transform="translate(105,49)"/>
<path d="M0 0 C2.64 0 5.28 0 8 0 C7.67 2.97 7.34 5.94 7 9 C6.34 9 5.68 9 5 9 C5 9.99 5 10.98 5 12 C4.34 12 3.68 12 3 12 C3 10.35 3 8.7 3 7 C2.01 6.67 1.02 6.34 0 6 C0 4.02 0 2.04 0 0 Z " fill="#3BB9D9" transform="translate(26,59)"/>
<path d="M0 0 C1.32 0.33 2.64 0.66 4 1 C4 6.28 4 11.56 4 17 C2.68 17.33 1.36 17.66 0 18 C0 12.06 0 6.12 0 0 Z " fill="#6B72FE" transform="translate(123,94)"/>
<path d="M0 0 C2.97 0 5.94 0 9 0 C8.39457203 6.41753653 8.39457203 6.41753653 6.6875 8.9375 C5 10 5 10 1 10 C1.020625 8.906875 1.04125 7.81375 1.0625 6.6875 C1.18544452 3.05615809 1.18544452 3.05615809 0 0 Z " fill="#71D5E4" transform="translate(110,33)"/>
<path d="M0 0 C1.24716797 0.00322266 2.49433594 0.00644531 3.77929688 0.00976562 C5.07287109 0.01814453 6.36644531 0.02652344 7.69921875 0.03515625 C9.66858398 0.04192383 9.66858398 0.04192383 11.67773438 0.04882812 C14.91410885 0.06059676 18.15039053 0.07703865 21.38671875 0.09765625 C21.05671875 0.75765625 20.72671875 1.41765625 20.38671875 2.09765625 C19.73074707 2.11747559 19.07477539 2.13729492 18.39892578 2.15771484 C15.43610806 2.25278132 12.47401343 2.36253377 9.51171875 2.47265625 C7.96291016 2.5190625 7.96291016 2.5190625 6.3828125 2.56640625 C4.90361328 2.62441406 4.90361328 2.62441406 3.39453125 2.68359375 C2.4833252 2.71501465 1.57211914 2.74643555 0.63330078 2.77880859 C-1.81259311 2.89648136 -1.81259311 2.89648136 -3.61328125 5.09765625 C-6.34197532 5.06478042 -8.90994305 4.53367854 -11.61328125 4.09765625 C-11.61328125 3.10765625 -11.61328125 2.11765625 -11.61328125 1.09765625 C-7.68039761 0.16677716 -4.03673962 -0.0184326 0 0 Z " fill="#D9D9E8" transform="translate(106.61328125,125.90234375)"/>
<path d="M0 0 C1.22589844 0.01353516 1.22589844 0.01353516 2.4765625 0.02734375 C3.41628906 0.04474609 3.41628906 0.04474609 4.375 0.0625 C4.705 0.7225 5.035 1.3825 5.375 2.0625 C4.385 2.5575 4.385 2.5575 3.375 3.0625 C2.65340576 4.70613134 1.98148579 6.37300386 1.375 8.0625 C0.385 7.7325 -0.605 7.4025 -1.625 7.0625 C-1.625 6.4025 -1.625 5.7425 -1.625 5.0625 C-3.935 5.0625 -6.245 5.0625 -8.625 5.0625 C-6.51899199 0.39919656 -5.01778996 -0.07168271 0 0 Z " fill="#3EB6DD" transform="translate(54.625,85.9375)"/>
<path d="M0 0 C-0.33 3.3 -0.66 6.6 -1 10 C-1.33 9.34 -1.66 8.68 -2 8 C-2.99 8 -3.98 8 -5 8 C-5.33 8.99 -5.66 9.98 -6 11 C-7.32 9.35 -8.64 7.7 -10 6 C-7.33204832 3.03560925 -4.29201379 0 0 0 Z " fill="#48B7E0" transform="translate(46,89)"/>
<path d="M0 0 C0 2.97 0 5.94 0 9 C-2.97 9 -5.94 9 -9 9 C-7.33791462 5.063482 -5.07499549 0 0 0 Z " fill="#38DDC8" transform="translate(123,105)"/>
<path d="M0 0 C3.3 0 6.6 0 10 0 C8.38405168 2.04119788 6.7143618 4.04072937 5 6 C4.34 6 3.68 6 3 6 C3 6.66 3 7.32 3 8 C2.01 8.33 1.02 8.66 0 9 C0 6.03 0 3.06 0 0 Z " fill="#3EBCDE" transform="translate(105,54)"/>
<path d="M0 0 C0 2.31 0 4.62 0 7 C0.66 7 1.32 7 2 7 C1.67 8.32 1.34 9.64 1 11 C-3.75 10.125 -3.75 10.125 -6 9 C-6 8.34 -6 7.68 -6 7 C-5.34 7 -4.68 7 -4 7 C-4 5.02 -4 3.04 -4 1 C-2 0 -2 0 0 0 Z " fill="#79DFDD" transform="translate(122,48)"/>
<path d="M0 0 C2.31 0 4.62 0 7 0 C7.33 1.32 7.66 2.64 8 4 C7.4225 4.226875 6.845 4.45375 6.25 4.6875 C3.4336339 6.33038023 1.91922886 8.39533227 0 11 C0 7.37 0 3.74 0 0 Z " fill="#5936FF" transform="translate(102,86)"/>
<path d="M0 0 C6.93 0 13.86 0 21 0 C21 0.33 21 0.66 21 1 C19.2984375 1.2165625 19.2984375 1.2165625 17.5625 1.4375 C14.19222799 1.61171478 14.19222799 1.61171478 13 3 C10.98035801 3.07244053 8.95832876 3.08377188 6.9375 3.0625 C5.28041016 3.04896484 5.28041016 3.04896484 3.58984375 3.03515625 C2.73519531 3.02355469 1.88054688 3.01195312 1 3 C0.67 2.01 0.34 1.02 0 0 Z " fill="#378DB7" transform="translate(41,49)"/>
<path d="M0 0 C5.61 0 11.22 0 17 0 C16.67 0.99 16.34 1.98 16 3 C11.05 3 6.1 3 1 3 C0.67 2.01 0.34 1.02 0 0 Z " fill="#50D0D9" transform="translate(33,102)"/>
<path d="M0 0 C1.23556641 0.01740234 1.23556641 0.01740234 2.49609375 0.03515625 C3.32238281 0.04417969 4.14867187 0.05320312 5 0.0625 C5.63808594 0.07410156 6.27617188 0.08570312 6.93359375 0.09765625 C6.93359375 0.75765625 6.93359375 1.41765625 6.93359375 2.09765625 C5.51046875 2.19046875 5.51046875 2.19046875 4.05859375 2.28515625 C2.51171875 2.68734375 2.51171875 2.68734375 0.93359375 3.09765625 C-0.51931898 5.5602131 -0.51931898 5.5602131 -1.06640625 8.09765625 C-1.72640625 8.09765625 -2.38640625 8.09765625 -3.06640625 8.09765625 C-3.10882348 5.7647085 -3.10733562 3.43063058 -3.06640625 1.09765625 C-2.06640625 0.09765625 -2.06640625 0.09765625 0 0 Z " fill="#4696EB" transform="translate(36.06640625,85.90234375)"/>
<path d="M0 0 C0 1.98 0 3.96 0 6 C-0.66 6 -1.32 6 -2 6 C-2 7.65 -2 9.3 -2 11 C-2.66 9.68 -3.32 8.36 -4 7 C-5.65 7 -7.3 7 -9 7 C-8.07347299 5.82460004 -7.13336613 4.65989423 -6.1875 3.5 C-5.66542969 2.8503125 -5.14335938 2.200625 -4.60546875 1.53125 C-3 0 -3 0 0 0 Z " fill="#6660FF" transform="translate(127,89)"/>
<path d="M0 0 C0.66 0.33 1.32 0.66 2 1 C2 2.65 2 4.3 2 6 C3.32 6.33 4.64 6.66 6 7 C5.67 7.99 5.34 8.98 5 10 C4.67 9.34 4.34 8.68 4 8 C3.34 8 2.68 8 2 8 C2 8.66 2 9.32 2 10 C0.68 9.67 -0.64 9.34 -2 9 C-2 6.36 -2 3.72 -2 1 C-1.34 0.67 -0.68 0.34 0 0 Z " fill="#3BCBDB" transform="translate(16,67)"/>
<path d="M0 0 C1.37478516 0.01740234 1.37478516 0.01740234 2.77734375 0.03515625 C3.69644531 0.04417969 4.61554688 0.05320312 5.5625 0.0625 C6.27277344 0.07410156 6.98304687 0.08570312 7.71484375 0.09765625 C4.71484375 2.09765625 4.71484375 2.09765625 1.71484375 2.09765625 C1.71484375 2.75765625 1.71484375 3.41765625 1.71484375 4.09765625 C0.72484375 4.09765625 -0.26515625 4.09765625 -1.28515625 4.09765625 C-1.61515625 5.74765625 -1.94515625 7.39765625 -2.28515625 9.09765625 C-2.61515625 9.09765625 -2.94515625 9.09765625 -3.28515625 9.09765625 C-3.3828125 2.9453125 -3.3828125 2.9453125 -3.28515625 1.09765625 C-2.28515625 0.09765625 -2.28515625 0.09765625 0 0 Z " fill="#45B4F5" transform="translate(108.28515625,95.90234375)"/>
<path d="M0 0 C0.33 0 0.66 0 1 0 C1.43518641 5.30927425 1.43518641 5.30927425 1 8 C-1.83653151 10.45321644 -3.25123496 11 -7 11 C-7.33 11.66 -7.66 12.32 -8 13 C-8.99 12.34 -9.98 11.68 -11 11 C-10.01 11 -9.02 11 -8 11 C-8 10.34 -8 9.68 -8 9 C-7.38125 8.938125 -6.7625 8.87625 -6.125 8.8125 C-3.72238859 8.171081 -3.72238859 8.171081 -2.75 5.4375 C-2.37875 4.2309375 -2.37875 4.2309375 -2 3 C-1.34 3 -0.68 3 0 3 C0 2.01 0 1.02 0 0 Z " fill="#4AD0D4" transform="translate(33,65)"/>
<path d="M0 0 C-0.33 0.99 -0.66 1.98 -1 3 C-6.28 3 -11.56 3 -17 3 C-17 2.34 -17 1.68 -17 1 C-14.72926348 0.83201949 -12.45840707 0.66565887 -10.1875 0.5 C-8.29064453 0.36078125 -8.29064453 0.36078125 -6.35546875 0.21875 C-4.24021483 0.08085219 -2.11974408 0 0 0 Z " fill="#34BDC4" transform="translate(98,49)"/>
<path d="M0 0 C1.07765625 0.10183594 2.1553125 0.20367187 3.265625 0.30859375 C4.08546875 0.39238281 4.9053125 0.47617188 5.75 0.5625 C5.75 1.2225 5.75 1.8825 5.75 2.5625 C0.47 2.5625 -4.81 2.5625 -10.25 2.5625 C-10.25 1.9025 -10.25 1.2425 -10.25 0.5625 C-6.70049966 -0.60056443 -3.69176052 -0.36115049 0 0 Z " fill="#99C0FE" transform="translate(68.25,118.4375)"/>
<path d="M0 0 C4.29 0 8.58 0 13 0 C13.33 1.32 13.66 2.64 14 4 C13.01 4 12.02 4 11 4 C11 3.34 11 2.68 11 2 C7.04 2 3.08 2 -1 2 C-0.67 1.34 -0.34 0.68 0 0 Z " fill="#56D9D5" transform="translate(84,45)"/>
<path d="M0 0 C0.33 0 0.66 0 1 0 C1.12375 0.94875 1.2475 1.8975 1.375 2.875 C1.71687177 6.08667191 1.71687177 6.08667191 4 8 C2 10 2 10 -1 11 C-1.33 10.67 -1.66 10.34 -2 10 C-1.9140625 7.96875 -1.9140625 7.96875 -1.625 5.5 C-1.53476563 4.6853125 -1.44453125 3.870625 -1.3515625 3.03125 C-1 1 -1 1 0 0 Z " fill="#6762FF" transform="translate(104,107)"/>
<path d="M0 0 C2.3125 -0.25 2.3125 -0.25 5 0 C6.8125 2 6.8125 2 8 4 C7 5 7 5 3.4375 5.0625 C2.303125 5.041875 1.16875 5.02125 0 5 C0 3.35 0 1.7 0 0 Z " fill="#34A9C5" transform="translate(33,97)"/>
<path d="M0 0 C0.66 0 1.32 0 2 0 C2 2.97 2 5.94 2 9 C0.68 8.67 -0.64 8.34 -2 8 C-2.33 6.68 -2.66 5.36 -3 4 C-2.34 4 -1.68 4 -1 4 C-0.67 2.68 -0.34 1.36 0 0 Z " fill="#38CFD0" transform="translate(58,88)"/>
<path d="M0 0 C1.67542976 0.28604898 3.34385343 0.61781233 5 1 C3.68 1.33 2.36 1.66 1 2 C1 2.66 1 3.32 1 4 C3.64 4 6.28 4 9 4 C8.67 4.66 8.34 5.32 8 6 C5.36 6 2.72 6 0 6 C-0.38218767 4.34385343 -0.71395102 2.67542976 -1 1 C-0.67 0.67 -0.34 0.34 0 0 Z " fill="#32C7DF" transform="translate(14,32)"/>
<path d="M0 0 C2 2 2 2 2.125 5.625 C2.08375 6.73875 2.0425 7.8525 2 9 C0.68 9.33 -0.64 9.66 -2 10 C-2.25 3.375 -2.25 3.375 0 0 Z " fill="#7182FE" transform="translate(125,102)"/>
<path d="M0 0 C1.67542976 0.28604898 3.34385343 0.61781233 5 1 C4.67 2.32 4.34 3.64 4 5 C2.68 5.33 1.36 5.66 0 6 C-0.38218767 4.34385343 -0.71395102 2.67542976 -1 1 C-0.67 0.67 -0.34 0.34 0 0 Z " fill="#48CEDD" transform="translate(22,67)"/>
<path d="M0 0 C0.66 0 1.32 0 2 0 C2.5625 1.9375 2.5625 1.9375 3 4 C2 5 2 5 -1.5625 5.0625 C-2.696875 5.041875 -3.83125 5.02125 -5 5 C-5 4.01 -5 3.02 -5 2 C-3.35 2 -1.7 2 0 2 C0 1.34 0 0.68 0 0 Z " fill="#34D3D1" transform="translate(18,75)"/>
<path d="M0 0 C1.32 0.66 2.64 1.32 4 2 C4 3.65 4 5.3 4 7 C2.35 6.67 0.7 6.34 -1 6 C-0.67 4.02 -0.34 2.04 0 0 Z " fill="#38C5C6" transform="translate(115,56)"/>
<path d="M0 0 C0.66 0 1.32 0 2 0 C1.53199289 4.05606165 1.12046792 7.46588679 -1 11 C-1.66 11 -2.32 11 -3 11 C-2.69217504 9.35328588 -2.37860766 7.70764424 -2.0625 6.0625 C-1.88847656 5.14597656 -1.71445312 4.22945313 -1.53515625 3.28515625 C-1 1 -1 1 0 0 Z " fill="#DDF4F7" transform="translate(47,90)"/>
<path d="M0 0 C0.4125 0.45375 0.825 0.9075 1.25 1.375 C3.06408095 3.05950374 4.75285627 3.99265971 7 5 C6.67 5.66 6.34 6.32 6 7 C5.01 7 4.02 7 3 7 C3 6.34 3 5.68 3 5 C1.35 4.67 -0.3 4.34 -2 4 C-2 3.34 -2 2.68 -2 2 C-1.34 2 -0.68 2 0 2 C0 1.34 0 0.68 0 0 Z " fill="#F8FDFD" transform="translate(19,69)"/>
<path d="M0 0 C0.99 0.33 1.98 0.66 3 1 C1.1875 4 1.1875 4 -1 7 C-1.99 7 -2.98 7 -4 7 C-4 5.68 -4 4.36 -4 3 C-3.34 3 -2.68 3 -2 3 C-1.67 2.34 -1.34 1.68 -1 1 C-0.67 0.67 -0.34 0.34 0 0 Z " fill="#41C5D8" transform="translate(57,86)"/>
<path d="M0 0 C1.32 0 2.64 0 4 0 C4 1.98 4 3.96 4 6 C2.68 6 1.36 6 0 6 C0 4.02 0 2.04 0 0 Z " fill="#34AEC5" transform="translate(26,59)"/>
<path d="M0 0 C2.33944736 0.28730055 4.6739143 0.61936779 7 1 C6.01 1.66 5.02 2.32 4 3 C3.01 4.485 3.01 4.485 2 6 C1.34 6 0.68 6 0 6 C-0.38218767 4.34385343 -0.71395102 2.67542976 -1 1 C-0.67 0.67 -0.34 0.34 0 0 Z " fill="#D6F2F7" transform="translate(18,65)"/>
<path d="M0 0 C2.64 0 5.28 0 8 0 C8.33 0.66 8.66 1.32 9 2 C6.69 2 4.38 2 2 2 C2 2.66 2 3.32 2 4 C1.01 4 0.02 4 -1 4 C-0.67 2.68 -0.34 1.36 0 0 Z " fill="#33C4DF" transform="translate(42,45)"/>
<path d="M0 0 C0.66 0 1.32 0 2 0 C2 1.65 2 3.3 2 5 C2.66 5.33 3.32 5.66 4 6 C2.02 6.99 2.02 6.99 0 8 C-0.66 7.01 -1.32 6.02 -2 5 C-1.34 5 -0.68 5 0 5 C0 3.35 0 1.7 0 0 Z " fill="#FEFEFE" transform="translate(119,51)"/>
<path d="M0 0 C0.66 0.99 1.32 1.98 2 3 C-1.01490557 4.00496852 -3.04181692 4.10335303 -6.1875 4.0625 C-7.53908203 4.04896484 -7.53908203 4.04896484 -8.91796875 4.03515625 C-9.60503906 4.02355469 -10.29210937 4.01195312 -11 4 C-11 3.34 -11 2.68 -11 2 C-9.39125 2.061875 -9.39125 2.061875 -7.75 2.125 C-4.34252515 2.0114175 -2.79260369 1.78726636 0 0 Z " fill="#8ACCDF" transform="translate(109,45)"/>
<path d="M0 0 C1.9453125 -0.29296875 1.9453125 -0.29296875 4.125 -0.1875 C5.40375 -0.125625 6.6825 -0.06375 8 0 C7.67 0.99 7.34 1.98 7 3 C4.03 3 1.06 3 -2 3 C-1.34 2.01 -0.68 1.02 0 0 Z " fill="#47D9D0" transform="translate(42,102)"/>
<path d="M0 0 C1.65 0.99 3.3 1.98 5 3 C3.71937515 4.7074998 2.38232443 6.37373596 1 8 C0.34 8 -0.32 8 -1 8 C-0.649375 7.236875 -0.29875 6.47375 0.0625 5.6875 C1.32360884 2.95240621 1.32360884 2.95240621 0 0 Z " fill="#DAF5F6" transform="translate(52,92)"/>
<path d="M0 0 C-0.185625 0.5775 -0.37125 1.155 -0.5625 1.75 C-1.04023546 4.20692525 -0.75729364 5.64397534 0 8 C-1.65 6.35 -3.3 4.7 -5 3 C-2.25 0 -2.25 0 0 0 Z " fill="#E5F4F9" transform="translate(41,92)"/>
<path d="M0 0 C0 0.66 0 1.32 0 2 C-3.3 2 -6.6 2 -10 2 C-9.67 1.34 -9.34 0.68 -9 0 C-2.57142857 -1.28571429 -2.57142857 -1.28571429 0 0 Z " fill="#359EC2" transform="translate(64,50)"/>
<path d="M0 0 C0.33 0.66 0.66 1.32 1 2 C-1.76250036 3.38125018 -3.94731099 3.19079306 -7 3 C-7.66 2.34 -8.32 1.68 -9 1 C-5.92677456 0.08941469 -3.19902639 -0.08886184 0 0 Z " fill="#3BDCC9" transform="translate(56,102)"/>
</svg>
