<?xml version="1.0" encoding="UTF-8"?>
<svg version="1.1" xmlns="http://www.w3.org/2000/svg" width="150" height="150">
<path d="M0 0 C0.6875 2.0625 0.6875 2.0625 1 4 C3.80764728 4.77426109 3.80764728 4.77426109 7 5 C9.36290685 3.68864588 9.36290685 3.68864588 11 2 C12.98 3.98 14.96 5.96 17 8 C15.5 11 15.5 11 14 14 C15.82337891 13.98259766 15.82337891 13.98259766 17.68359375 13.96484375 C19.26822764 13.95546722 20.85286318 13.94636687 22.4375 13.9375 C23.23994141 13.92912109 24.04238281 13.92074219 24.86914062 13.91210938 C26.91295221 13.9034857 28.95683902 13.9477185 31 14 C32 15 32 15 32.11352539 17.50024414 C32.10567017 19.12627563 32.10567017 19.12627563 32.09765625 20.78515625 C32.09282227 22.53989258 32.09282227 22.53989258 32.08789062 24.33007812 C32.07532227 26.17762695 32.07532227 26.17762695 32.0625 28.0625 C32.05798828 29.29806641 32.05347656 30.53363281 32.04882812 31.80664062 C32.03699608 34.87114117 32.02051173 37.93554721 32 41 C33.98 40.01 33.98 40.01 36 39 C37.5625 40.0625 37.5625 40.0625 39 42 C38.6875 45.6875 38.6875 45.6875 38 49 C38.66 49 39.32 49 40 49 C40 50.65 40 52.3 40 54 C37.525 54.495 37.525 54.495 35 55 C34.67 56.65 34.34 58.3 34 60 C32.35 60 30.7 60 29 60 C28.67 59.01 28.34 58.02 28 57 C26.02 57.33 24.04 57.66 22 58 C20.4375 56.25 20.4375 56.25 19 54 C19.32380126 52.66431979 19.65657551 51.33076989 20 50 C18.64555699 48.22809091 18.64555699 48.22809091 17 47 C17.33 46.01 17.66 45.02 18 44 C17.34 44 16.68 44 16 44 C16 50.6 16 57.2 16 64 C18.31 64 20.62 64 23 64 C24 65 24 65 24.11352539 68.96899414 C24.1133662 70.74105607 24.10766785 72.5131226 24.09765625 74.28515625 C24.0962413 75.21597519 24.09482635 76.14679413 24.09336853 77.1058197 C24.08775172 80.09141191 24.0751964 83.07693029 24.0625 86.0625 C24.05748716 88.08137913 24.05292388 90.10025943 24.04882812 92.11914062 C24.03777683 97.07945572 24.02050095 102.03971532 24 107 C26.31 107.66 28.62 108.32 31 109 C30 111 30 111 28.34521484 111.61450195 C23.49200924 112.41225457 18.54404055 112.18590312 13.63769531 112.18530273 C11.63863013 112.18748512 9.63960468 112.20599143 7.640625 112.22460938 C6.36960937 112.22654297 5.09859375 112.22847656 3.7890625 112.23046875 C2.63100098 112.23457764 1.47293945 112.23868652 0.27978516 112.24291992 C-3.11310954 111.99162245 -5.83332989 111.21173908 -9 110 C-8.67 109.34 -8.34 108.68 -8 108 C-5.4375 107.375 -5.4375 107.375 -3 107 C-3.67857056 106.99191315 -4.35714111 106.98382629 -5.05627441 106.97549438 C-12.19572947 106.88863335 -19.33493245 106.7891071 -26.47412109 106.68261719 C-29.12938188 106.64363425 -31.7845665 106.60971702 -34.43994141 106.578125 C-72.93926359 106.11445232 -72.93926359 106.11445232 -80 102 C-79.505 101.01 -79.505 101.01 -79 100 C-77.68 100 -76.36 100 -75 100 C-75 99.01 -75 98.02 -75 97 C-76.98 97 -78.96 97 -81 97 C-81.33 97.99 -81.66 98.98 -82 100 C-84.35964273 99.59316505 -85.85934088 99.10185661 -87.8125 97.6875 C-88.204375 97.130625 -88.59625 96.57375 -89 96 C-88.625 94 -88.625 94 -88 92 C-88.33 91.01 -88.66 90.02 -89 89 C-90.65 89 -92.3 89 -94 89 C-94 86.36 -94 83.72 -94 81 C-92.35 81 -90.7 81 -89 81 C-88.20046862 77.71303767 -87.90341064 76.28976808 -89 73 C-87.25 71.4375 -87.25 71.4375 -85 70 C-82.75 70.3125 -82.75 70.3125 -81 71 C-81 71.66 -81 72.32 -81 73 C-79.68 73 -78.36 73 -77 73 C-77 69.04 -77 65.08 -77 61 C-81.29 61 -85.58 61 -90 61 C-90.02683436 57.68744674 -90.0467578 54.37510817 -90.0625 51.0625 C-90.07087891 50.11697266 -90.07925781 49.17144531 -90.08789062 48.19726562 C-90.09111328 47.29814453 -90.09433594 46.39902344 -90.09765625 45.47265625 C-90.10289307 44.64000244 -90.10812988 43.80734863 -90.11352539 42.94946289 C-90 41 -90 41 -89 40 C-86.98035801 39.92755947 -84.95832876 39.91622812 -82.9375 39.9375 C-81.28041016 39.95103516 -81.28041016 39.95103516 -79.58984375 39.96484375 C-78.73519531 39.97644531 -77.88054687 39.98804688 -77 40 C-77.061875 38.906875 -77.12375 37.81375 -77.1875 36.6875 C-77 33 -77 33 -75.875 31.28125 C-73.1629604 29.42802294 -71.05676436 29.70784631 -67.8125 29.8125 C-66.72582031 29.83957031 -65.63914062 29.86664063 -64.51953125 29.89453125 C-63.27236328 29.94673828 -63.27236328 29.94673828 -62 30 C-61.67 28.68 -61.34 27.36 -61 26 C-45.82 26 -30.64 26 -15 26 C-15.33 24.35 -15.66 22.7 -16 21 C-18.47636012 19.62533375 -18.47636012 19.62533375 -21 19 C-20.01 14.545 -20.01 14.545 -19 10 C-17.329375 10.061875 -17.329375 10.061875 -15.625 10.125 C-11.95633975 10.41121859 -11.95633975 10.41121859 -10 8 C-9.83322718 4.41656024 -9.83322718 4.41656024 -10 1 C-3.375 -1.125 -3.375 -1.125 0 0 Z M-7 13 C-9.2084626 16.31269391 -9.80664241 18.14978851 -9.5546875 22.0625 C-8.4812192 25.81207941 -6.28696911 27.01541488 -3 29 C-0.36163023 29.1672392 -0.36163023 29.1672392 2 29 C2.03738281 28.01257813 2.07476562 27.02515625 2.11328125 26.0078125 C2.17902344 24.72648437 2.24476562 23.44515625 2.3125 22.125 C2.37050781 20.84882812 2.42851563 19.57265625 2.48828125 18.2578125 C2.65714844 17.18273437 2.82601562 16.10765625 3 15 C3.99 14.34 4.98 13.68 6 13 C4.01607489 10.60148679 4.01607489 10.60148679 0.1875 10.5625 C-3.17733329 10.66669338 -4.04370031 11.02913354 -7 13 Z M24 46 C23.6366844 48.83386167 23.6431329 50.40522151 25.125 52.875 C27.92151052 54.55290631 29.93690532 53.74875648 33 53 C33.67673447 49.59679066 33.67673447 49.59679066 34 46 C32.11499729 43.68436913 32.11499729 43.68436913 29 43.75 C25.88500271 43.68436913 25.88500271 43.68436913 24 46 Z M-83.25 79.625 C-85.21985834 81.92308586 -85.21985834 81.92308586 -85.5 85 C-85.21376982 88.06575838 -85.21376982 88.06575838 -83.3125 90.375 C-80.61209763 92.27258004 -79.22939919 92.35882213 -76 92 C-75.85024761 84.94348748 -75.85024761 84.94348748 -77 78 C-80.92212225 77.60967296 -80.92212225 77.60967296 -83.25 79.625 Z M-68 94 C-68.33 95.65 -68.66 97.3 -69 99 C-56.13 98.01 -56.13 98.01 -43 97 C-42.67 96.01 -42.34 95.02 -42 94 C-50.58 94 -59.16 94 -68 94 Z M-18 94 C-18 94.99 -18 95.98 -18 97 C-12.72 97.33 -7.44 97.66 -2 98 C-2 96.68 -2 95.36 -2 94 C-7.28 94 -12.56 94 -18 94 Z " fill="#5F4DFE" transform="translate(103,19)"/>
<path d="M0 0 C2.31 0 4.62 0 7 0 C7 2.97 7 5.94 7 9 C11.62 9 16.24 9 21 9 C21 15.6 21 22.2 21 29 C23.31 29 25.62 29 28 29 C29 30 29 30 29.11352539 33.96899414 C29.1133662 35.74105607 29.10766785 37.5131226 29.09765625 39.28515625 C29.0962413 40.21597519 29.09482635 41.14679413 29.09336853 42.1058197 C29.08775172 45.09141191 29.0751964 48.07693029 29.0625 51.0625 C29.05748716 53.08137913 29.05292388 55.10025943 29.04882812 57.11914062 C29.03777683 62.07945572 29.02050095 67.03971532 29 72 C31.31 72.66 33.62 73.32 36 74 C35 76 35 76 33.34521484 76.61450195 C28.49200924 77.41225457 23.54404055 77.18590312 18.63769531 77.18530273 C16.63863013 77.18748512 14.63960468 77.20599143 12.640625 77.22460938 C11.36960937 77.22654297 10.09859375 77.22847656 8.7890625 77.23046875 C7.63100098 77.23457764 6.47293945 77.23868652 5.27978516 77.24291992 C1.88689046 76.99162245 -0.83332989 76.21173908 -4 75 C-3 73 -3 73 3 71 C3 63.41 3 55.82 3 48 C-10.53 48 -24.06 48 -38 48 C-38.33 43.05 -38.66 38.1 -39 33 C-44.94 32.67 -50.88 32.34 -57 32 C-57.33 30.02 -57.66 28.04 -58 26 C-54.71023192 24.90341064 -53.28696233 25.20046862 -50 26 C-50 25.01 -50 24.02 -50 23 C-49.67 22.34 -49.34 21.68 -49 21 C-48.34 21 -47.68 21 -47 21 C-47 20.34 -47 19.68 -47 19 C-45.68 19 -44.36 19 -43 19 C-43 17.35 -43 15.7 -43 14 C-42.030625 13.525625 -41.06125 13.05125 -40.0625 12.5625 C-37.19522563 11.29806053 -37.19522563 11.29806053 -36 10 C-42.6 9.67 -49.2 9.34 -56 9 C-56 8.67 -56 8.34 -56 8 C-28.775 7.505 -28.775 7.505 -1 7 C-0.67 4.69 -0.34 2.38 0 0 Z " fill="#7285FE" transform="translate(98,54)"/>
<path d="M0 0 C0.5775 0.226875 1.155 0.45375 1.75 0.6875 C1.75 1.3475 1.75 2.0075 1.75 2.6875 C3.07 2.6875 4.39 2.6875 5.75 2.6875 C5.75 4.3375 5.75 5.9875 5.75 7.6875 C4.780625 7.97625 3.81125 8.265 2.8125 8.5625 C-0.35664203 9.32964682 -0.35664203 9.32964682 -1.25 11.6875 C-1.39375422 15.06572416 -1.32536348 17.46140955 -0.25 20.6875 C2.06 21.0175 4.37 21.3475 6.75 21.6875 C6.75 18.7175 6.75 15.7475 6.75 12.6875 C8.73 12.6875 10.71 12.6875 12.75 12.6875 C13.08 13.3475 13.41 14.0075 13.75 14.6875 C22 14.6875 30.25 14.6875 38.75 14.6875 C39.08 14.0275 39.41 13.3675 39.75 12.6875 C53.28 12.6875 66.81 12.6875 80.75 12.6875 C80.75 16.3175 80.75 19.9475 80.75 23.6875 C75.47 23.6875 70.19 23.6875 64.75 23.6875 C64.75 24.6775 64.75 25.6675 64.75 26.6875 C65.31847656 26.67589844 65.88695313 26.66429688 66.47265625 26.65234375 C71.35670484 26.59526806 75.93503965 26.86793228 80.75 27.6875 C80.75 30.3275 80.75 32.9675 80.75 35.6875 C73.46409984 35.73432155 66.17823335 35.76961748 58.89221191 35.79112434 C55.50718789 35.80145864 52.12226851 35.81542229 48.73730469 35.83837891 C10.3125541 36.07977608 10.3125541 36.07977608 2.75 31.6875 C3.08 31.0275 3.41 30.3675 3.75 29.6875 C5.07 29.6875 6.39 29.6875 7.75 29.6875 C7.75 28.6975 7.75 27.7075 7.75 26.6875 C5.77 26.6875 3.79 26.6875 1.75 26.6875 C1.42 27.6775 1.09 28.6675 0.75 29.6875 C-1.60964273 29.28066505 -3.10934088 28.78935661 -5.0625 27.375 C-5.454375 26.818125 -5.84625 26.26125 -6.25 25.6875 C-5.875 23.6875 -5.875 23.6875 -5.25 21.6875 C-5.58 20.6975 -5.91 19.7075 -6.25 18.6875 C-7.9 18.6875 -9.55 18.6875 -11.25 18.6875 C-11.25 16.0475 -11.25 13.4075 -11.25 10.6875 C-9.6 10.6875 -7.95 10.6875 -6.25 10.6875 C-5.45046862 7.40053767 -5.15341064 5.97726808 -6.25 2.6875 C-2.80384615 -0.38942308 -2.80384615 -0.38942308 0 0 Z M14.75 23.6875 C14.42 25.3375 14.09 26.9875 13.75 28.6875 C26.62 27.6975 26.62 27.6975 39.75 26.6875 C40.08 25.6975 40.41 24.7075 40.75 23.6875 C32.17 23.6875 23.59 23.6875 14.75 23.6875 Z " fill="#BAD4FE" transform="translate(20.25,89.3125)"/>
<path d="M0 0 C2.31 0 4.62 0 7 0 C7.495 4.95 7.495 4.95 8 10 C6.68 10 5.36 10 4 10 C4.495 11.485 4.495 11.485 5 13 C3.6875 14.5 3.6875 14.5 2 16 C1.01 16 0.02 16 -1 16 C-1.0928125 16.8353125 -1.0928125 16.8353125 -1.1875 17.6875 C-2.32778978 20.93294014 -4.56296168 22.62388764 -7 25 C-7.495 26.485 -7.495 26.485 -8 28 C-9.70703125 29.16796875 -9.70703125 29.16796875 -11.8125 30.1875 C-12.84310547 30.70376953 -12.84310547 30.70376953 -13.89453125 31.23046875 C-16 32 -16 32 -20 32 C-19.505 34.475 -19.505 34.475 -19 37 C-20.98 37.495 -20.98 37.495 -23 38 C-22.01 38.495 -22.01 38.495 -21 39 C-22.32 39.66 -23.64 40.32 -25 41 C-25 41.66 -25 42.32 -25 43 C-15.76 43 -6.52 43 3 43 C3 44.65 3 46.3 3 48 C-10.53 48 -24.06 48 -38 48 C-38.33 43.05 -38.66 38.1 -39 33 C-44.94 32.67 -50.88 32.34 -57 32 C-57.33 30.02 -57.66 28.04 -58 26 C-54.71023192 24.90341064 -53.28696233 25.20046862 -50 26 C-50 25.01 -50 24.02 -50 23 C-49.67 22.34 -49.34 21.68 -49 21 C-48.34 21 -47.68 21 -47 21 C-47 20.34 -47 19.68 -47 19 C-45.68 19 -44.36 19 -43 19 C-43 17.35 -43 15.7 -43 14 C-42.030625 13.525625 -41.06125 13.05125 -40.0625 12.5625 C-37.19522563 11.29806053 -37.19522563 11.29806053 -36 10 C-42.6 9.67 -49.2 9.34 -56 9 C-56 8.67 -56 8.34 -56 8 C-28.775 7.505 -28.775 7.505 -1 7 C-0.67 4.69 -0.34 2.38 0 0 Z " fill="#6B72FD" transform="translate(98,54)"/>
<path d="M0 0 C0.6875 2.0625 0.6875 2.0625 1 4 C3.80764728 4.77426109 3.80764728 4.77426109 7 5 C9.36290685 3.68864588 9.36290685 3.68864588 11 2 C12.98 3.98 14.96 5.96 17 8 C16 10 15 12 14 14 C15.82337891 13.98259766 15.82337891 13.98259766 17.68359375 13.96484375 C19.26822764 13.95546722 20.85286318 13.94636687 22.4375 13.9375 C23.23994141 13.92912109 24.04238281 13.92074219 24.86914062 13.91210938 C26.91295221 13.9034857 28.95683902 13.9477185 31 14 C32 15 32 15 32.11352539 17.50024414 C32.10828857 18.58426514 32.10305176 19.66828613 32.09765625 20.78515625 C32.09443359 21.95498047 32.09121094 23.12480469 32.08789062 24.33007812 C32.07532227 26.17762695 32.07532227 26.17762695 32.0625 28.0625 C32.05798828 29.29806641 32.05347656 30.53363281 32.04882812 31.80664062 C32.03699608 34.87114117 32.02051173 37.93554721 32 41 C33.32 40.34 34.64 39.68 36 39 C37.5625 40.0625 37.5625 40.0625 39 42 C38.6875 45.6875 38.6875 45.6875 38 49 C38.66 49 39.32 49 40 49 C40 50.65 40 52.3 40 54 C37.525 54.495 37.525 54.495 35 55 C34.67 56.65 34.34 58.3 34 60 C32.35 60 30.7 60 29 60 C28.67 59.01 28.34 58.02 28 57 C25.03 57.495 25.03 57.495 22 58 C20.4375 56.25 20.4375 56.25 19 54 C19.32380126 52.66431979 19.65657551 51.33076989 20 50 C18.64555699 48.22809091 18.64555699 48.22809091 17 47 C17.33 46.01 17.66 45.02 18 44 C17.34 44 16.68 44 16 44 C15.690625 43.21625 15.38125 42.4325 15.0625 41.625 C14.07124962 39.07669872 14.07124962 39.07669872 13 37 C13.66 37 14.32 37 15 37 C14.505 34.03 14.505 34.03 14 31 C7.73 30.67 1.46 30.34 -5 30 C-5 29.34 -5 28.68 -5 28 C-2.69 28.33 -0.38 28.66 2 29 C1.94779297 27.51886719 1.94779297 27.51886719 1.89453125 26.0078125 C1.86746094 24.72648437 1.84039062 23.44515625 1.8125 22.125 C1.76029297 20.21074219 1.76029297 20.21074219 1.70703125 18.2578125 C1.80371094 17.18273437 1.90039062 16.10765625 2 15 C2.99 14.34 3.98 13.68 5 13 C3.78410016 11.56844101 3.78410016 11.56844101 0.1875 11.6875 C-2.78617685 11.74622611 -3.87751147 11.92650688 -6.5 13.5 C-8.71177972 17.18629954 -8.34421275 19.73176192 -8 24 C-7.67 24.66 -7.34 25.32 -7 26 C-9.64 26 -12.28 26 -15 26 C-15.0928125 24.824375 -15.0928125 24.824375 -15.1875 23.625 C-15.455625 22.75875 -15.72375 21.8925 -16 21 C-18.47636012 19.62533375 -18.47636012 19.62533375 -21 19 C-20.34 16.03 -19.68 13.06 -19 10 C-17.329375 10.061875 -17.329375 10.061875 -15.625 10.125 C-11.95633975 10.41121859 -11.95633975 10.41121859 -10 8 C-9.83322718 4.41656024 -9.83322718 4.41656024 -10 1 C-3.375 -1.125 -3.375 -1.125 0 0 Z M24 46 C23.6366844 48.83386167 23.6431329 50.40522151 25.125 52.875 C27.92151052 54.55290631 29.93690532 53.74875648 33 53 C33.67673447 49.59679066 33.67673447 49.59679066 34 46 C32.11499729 43.68436913 32.11499729 43.68436913 29 43.75 C25.88500271 43.68436913 25.88500271 43.68436913 24 46 Z " fill="#35DEC3" transform="translate(103,19)"/>
<path d="M0 0 C0.33 0 0.66 0 1 0 C1.33 7.26 1.66 14.52 2 22 C3.65227926 20.34772074 3.3196182 18.26765696 3.5 16 C3.88888889 11.11111111 3.88888889 11.11111111 5 10 C7.28804167 9.78933632 9.58103822 9.63135159 11.875 9.5 C17.02731192 9.22167685 17.02731192 9.22167685 22 8 C22 7.34 22 6.68 22 6 C23.32 5.67 24.64 5.34 26 5 C26 16.55 26 28.1 26 40 C28.31 40.66 30.62 41.32 33 42 C32 44 32 44 30.34521484 44.61450195 C25.49200924 45.41225457 20.54404055 45.18590312 15.63769531 45.18530273 C13.63863013 45.18748512 11.63960468 45.20599143 9.640625 45.22460938 C8.36960937 45.22654297 7.09859375 45.22847656 5.7890625 45.23046875 C4.63100098 45.23457764 3.47293945 45.23868652 2.27978516 45.24291992 C-1.11310954 44.99162245 -3.83332989 44.21173908 -7 43 C-6 41 -6 41 0 39 C0 26.13 0 13.26 0 0 Z " fill="#6769EE" transform="translate(101,86)"/>
<path d="M0 0 C0.5775 0.226875 1.155 0.45375 1.75 0.6875 C1.75 1.3475 1.75 2.0075 1.75 2.6875 C3.07 2.6875 4.39 2.6875 5.75 2.6875 C5.75 4.3375 5.75 5.9875 5.75 7.6875 C4.780625 7.97625 3.81125 8.265 2.8125 8.5625 C-0.35664203 9.32964682 -0.35664203 9.32964682 -1.25 11.6875 C-1.39375422 15.06572416 -1.32536348 17.46140955 -0.25 20.6875 C0.884375 20.831875 2.01875 20.97625 3.1875 21.125 C6.75 21.6875 6.75 21.6875 7.75 22.6875 C10.07817964 23.05510731 12.4118385 23.38991581 14.75 23.6875 C15.75 26.6875 15.75 26.6875 15.75 27.6875 C23.67 27.3575 31.59 27.0275 39.75 26.6875 C39.42 27.3475 39.09 28.0075 38.75 28.6875 C36.10139573 29.28105614 33.45802678 29.42959269 30.75 29.6875 C30.75 30.3475 30.75 31.0075 30.75 31.6875 C44.94 31.6875 59.13 31.6875 73.75 31.6875 C73.255 30.6975 73.255 30.6975 72.75 29.6875 C71.595 29.5225 70.44 29.3575 69.25 29.1875 C68.095 29.0225 66.94 28.8575 65.75 28.6875 C65.255 27.6975 65.255 27.6975 64.75 26.6875 C70.20769811 26.57611841 75.36509359 26.77092019 80.75 27.6875 C80.75 30.3275 80.75 32.9675 80.75 35.6875 C73.46409984 35.73432155 66.17823335 35.76961748 58.89221191 35.79112434 C55.50718789 35.80145864 52.12226851 35.81542229 48.73730469 35.83837891 C10.3125541 36.07977608 10.3125541 36.07977608 2.75 31.6875 C3.08 31.0275 3.41 30.3675 3.75 29.6875 C5.07 29.6875 6.39 29.6875 7.75 29.6875 C7.75 28.6975 7.75 27.7075 7.75 26.6875 C5.77 26.6875 3.79 26.6875 1.75 26.6875 C1.42 27.6775 1.09 28.6675 0.75 29.6875 C-1.60964273 29.28066505 -3.10934088 28.78935661 -5.0625 27.375 C-5.454375 26.818125 -5.84625 26.26125 -6.25 25.6875 C-5.875 23.6875 -5.875 23.6875 -5.25 21.6875 C-5.58 20.6975 -5.91 19.7075 -6.25 18.6875 C-7.9 18.6875 -9.55 18.6875 -11.25 18.6875 C-11.25 16.0475 -11.25 13.4075 -11.25 10.6875 C-9.6 10.6875 -7.95 10.6875 -6.25 10.6875 C-5.45046862 7.40053767 -5.15341064 5.97726808 -6.25 2.6875 C-2.80384615 -0.38942308 -2.80384615 -0.38942308 0 0 Z " fill="#EAEBF2" transform="translate(20.25,89.3125)"/>
<path d="M0 0 C16.83 0 33.66 0 51 0 C51 3.96 51 7.92 51 12 C34.17 12 17.34 12 0 12 C0 8.04 0 4.08 0 0 Z " fill="#3F3F89" transform="translate(44,47)"/>
<path d="M0 0 C18.15 0 36.3 0 55 0 C55.495 1.98 55.495 1.98 56 4 C56.85549438 3.99214478 56.85549438 3.99214478 57.72827148 3.98413086 C60.29800323 3.96341779 62.86771747 3.9503581 65.4375 3.9375 C66.78424805 3.92493164 66.78424805 3.92493164 68.15820312 3.91210938 C69.01220703 3.90888672 69.86621094 3.90566406 70.74609375 3.90234375 C71.53685303 3.89710693 72.3276123 3.89187012 73.14233398 3.88647461 C75 4 75 4 76 5 C76.04254356 6.99954746 76.04080783 9.00041636 76 11 C75.93462795 13.52297636 75.93462795 13.52297636 77 18 C72.38 18 67.76 18 63 18 C63 15.03 63 12.06 63 9 C60.69 9 58.38 9 56 9 C56.020625 10.134375 56.04125 11.26875 56.0625 12.4375 C56 16 56 16 55 17 C53.28681054 17.09881593 51.56955197 17.12798969 49.85351562 17.12939453 C48.75567749 17.13254669 47.65783936 17.13569885 46.5267334 17.13894653 C45.33197388 17.1369223 44.13721436 17.13489807 42.90625 17.1328125 C41.68925415 17.13376923 40.4722583 17.13472595 39.21838379 17.13571167 C36.63924101 17.13639372 34.06009653 17.13453772 31.48095703 17.13037109 C27.51721364 17.12502322 23.55358358 17.13031529 19.58984375 17.13671875 C17.09114558 17.13605797 14.59244748 17.13477682 12.09375 17.1328125 C10.30161072 17.13584885 10.30161072 17.13584885 8.4732666 17.13894653 C7.37542847 17.13579437 6.27759033 17.13264221 5.14648438 17.12939453 C3.68873596 17.12820114 3.68873596 17.12820114 2.20153809 17.12698364 C0 17 0 17 -1 16 C-1.09932392 13.68925832 -1.12969618 11.37537058 -1.125 9.0625 C-1.12757812 7.79535156 -1.13015625 6.52820312 -1.1328125 5.22265625 C-1 2 -1 2 0 0 Z M2 2 C2 5.96 2 9.92 2 14 C18.83 14 35.66 14 53 14 C53 10.04 53 6.08 53 2 C36.17 2 19.34 2 2 2 Z " fill="#36CED1" transform="translate(42,45)"/>
<path d="M0 0 C12.71460452 -0.11427673 25.32056251 -0.01726146 38 1 C38.15625 3.32421875 38.15625 3.32421875 38 6 C35.5 8.8125 35.5 8.8125 33 11 C33.66 12.98 34.32 14.96 35 17 C34.0925 16.95875 33.185 16.9175 32.25 16.875 C29.09931762 16.99618009 27.54596259 17.2083967 25 19 C24.67 19.99 24.34 20.98 24 22 C23.34 22.33 22.68 22.66 22 23 C21.34 23.66 20.68 24.32 20 25 C17.84521484 25.13525391 17.84521484 25.13525391 15.2109375 24.9765625 C13.79941406 24.89921875 13.79941406 24.89921875 12.359375 24.8203125 C11.37453125 24.75585938 10.3896875 24.69140625 9.375 24.625 C8.38242187 24.56828125 7.38984375 24.5115625 6.3671875 24.453125 C3.91075233 24.31140759 1.45530265 24.15997723 -1 24 C-1.33 22.02 -1.66 20.04 -2 18 C1.28976808 16.90341064 2.71303767 17.20046862 6 18 C6 17.01 6 16.02 6 15 C6.33 14.34 6.66 13.68 7 13 C7.66 13 8.32 13 9 13 C9 12.34 9 11.68 9 11 C10.32 11 11.64 11 13 11 C13 9.35 13 7.7 13 6 C13.969375 5.525625 14.93875 5.05125 15.9375 4.5625 C18.80477437 3.29806053 18.80477437 3.29806053 20 2 C13.4 1.67 6.8 1.34 0 1 C0 0.67 0 0.34 0 0 Z " fill="#645CFE" transform="translate(42,62)"/>
<path d="M0 0 C1.12019531 -0.00128906 2.24039063 -0.00257812 3.39453125 -0.00390625 C4.57402344 -0.00003906 5.75351562 0.00382812 6.96875 0.0078125 C8.73798828 0.00201172 8.73798828 0.00201172 10.54296875 -0.00390625 C12.22326172 -0.00197266 12.22326172 -0.00197266 13.9375 0 C14.97326172 0.00112793 16.00902344 0.00225586 17.07617188 0.00341797 C19.46875 0.1328125 19.46875 0.1328125 20.46875 1.1328125 C20.56861975 3.97616298 20.60752881 6.78978413 20.59375 9.6328125 C20.59955078 10.82970703 20.59955078 10.82970703 20.60546875 12.05078125 C20.59535767 18.00620483 20.59535767 18.00620483 19.46875 19.1328125 C17.62715977 19.23240871 15.78178033 19.26361661 13.9375 19.265625 C12.81730469 19.26691406 11.69710937 19.26820312 10.54296875 19.26953125 C9.36347656 19.26566406 8.18398438 19.26179688 6.96875 19.2578125 C5.19951172 19.26361328 5.19951172 19.26361328 3.39453125 19.26953125 C1.71423828 19.26759766 1.71423828 19.26759766 0 19.265625 C-1.03576172 19.26449707 -2.07152344 19.26336914 -3.13867188 19.26220703 C-5.53125 19.1328125 -5.53125 19.1328125 -6.53125 18.1328125 C-6.63111975 15.28946202 -6.67002881 12.47584087 -6.65625 9.6328125 C-6.66011719 8.83488281 -6.66398437 8.03695312 -6.66796875 7.21484375 C-6.65573175 0.007248 -6.65573175 0.007248 0 0 Z " fill="#3DCFC9" transform="translate(39.53125,85.8671875)"/>
<path d="M0 0 C2.62697064 -0.22137393 5.00893964 -0.28162025 7.625 -0.1875 C8.33140625 -0.17396484 9.0378125 -0.16042969 9.765625 -0.14648438 C11.51074128 -0.1111104 13.25546608 -0.05730221 15 0 C15 3.63 15 7.26 15 11 C9.72 11 4.44 11 -1 11 C-0.505 12.98 -0.505 12.98 0 15 C2.31 15.33 4.62 15.66 7 16 C7.495 17.485 7.495 17.485 8 19 C-6.19 19 -20.38 19 -35 19 C-35 18.34 -35 17.68 -35 17 C-32.98177083 16.609375 -30.96354167 16.21875 -28.9453125 15.828125 C-26.80207659 15.18411328 -26.80207659 15.18411328 -26.171875 12.99609375 C-25.78515625 12.33738281 -25.3984375 11.67867187 -25 11 C-21.8828125 10.20703125 -21.8828125 10.20703125 -18.125 9.8125 C-12.46766892 9.3564355 -12.46766892 9.3564355 -7 8 C-5.70339566 5.50965614 -5.70339566 5.50965614 -5 3 C-4.01 3 -3.02 3 -2 3 C-1.34 2.01 -0.68 1.02 0 0 Z " fill="#B2CFFE" transform="translate(86,102)"/>
<path d="M0 0 C0.83265381 0.00523682 1.66530762 0.01047363 2.52319336 0.01586914 C3.42231445 0.0190918 4.32143555 0.02231445 5.24780273 0.02563477 C6.66609375 0.03820313 6.66609375 0.03820313 8.11303711 0.05102539 C9.06243164 0.05553711 10.01182617 0.06004883 10.98999023 0.06469727 C13.34356776 0.07652429 15.69702188 0.09300514 18.05053711 0.11352539 C18.07941525 3.5926748 18.09729398 7.0717937 18.11303711 10.55102539 C18.12141602 11.54424805 18.12979492 12.5374707 18.13842773 13.56079102 C18.14326172 14.97714844 18.14326172 14.97714844 18.14819336 16.42211914 C18.15604858 17.73394165 18.15604858 17.73394165 18.1640625 19.07226562 C18.05053711 21.11352539 18.05053711 21.11352539 17.05053711 22.11352539 C15.55919801 22.1301477 14.06692906 22.07671739 12.57788086 21.99243164 C11.67875977 21.9440918 10.77963867 21.89575195 9.85327148 21.84594727 C8.90774414 21.78987305 7.9622168 21.73379883 6.98803711 21.67602539 C6.03864258 21.62381836 5.08924805 21.57161133 4.11108398 21.51782227 C1.75726759 21.38771181 -0.59616988 21.25273427 -2.94946289 21.11352539 C-2.97834436 17.80104352 -2.99622088 14.48859372 -3.01196289 11.17602539 C-3.0203418 10.23049805 -3.0287207 9.2849707 -3.03735352 8.31079102 C-3.04057617 7.41166992 -3.04379883 6.51254883 -3.04711914 5.58618164 C-3.05235596 4.75352783 -3.05759277 3.92087402 -3.06298828 3.06298828 C-2.90876673 0.41468917 -2.64829911 0.15422155 0 0 Z " fill="#37C9DD" transform="translate(15.949462890625,58.886474609375)"/>
<path d="M0 0 C1.32 0 2.64 0 4 0 C4 6.6 4 13.2 4 20 C6.31 20 8.62 20 11 20 C12 21 12 21 12.0625 24.5625 C12.041875 25.696875 12.02125 26.83125 12 28 C10.68 28.33 9.36 28.66 8 29 C8 29.66 8 30.32 8 31 C4.36280395 33.42479736 2.14296518 33.38662577 -2.1875 33.625 C-3.45980469 33.69976562 -4.73210937 33.77453125 -6.04296875 33.8515625 C-7.01878906 33.90054688 -7.99460937 33.94953125 -9 34 C-9.03738281 34.67546875 -9.07476562 35.3509375 -9.11328125 36.046875 C-9.17902344 36.93890625 -9.24476562 37.8309375 -9.3125 38.75 C-9.37050781 39.63171875 -9.42851563 40.5134375 -9.48828125 41.421875 C-10.06813992 44.34330037 -11.16662876 45.70348376 -13 48 C-13.19619224 43.70868391 -13.38048583 39.41693898 -13.5625 35.125 C-13.61857422 33.90167969 -13.67464844 32.67835937 -13.73242188 31.41796875 C-13.78076172 30.25136719 -13.82910156 29.08476563 -13.87890625 27.8828125 C-13.9260376 26.80402832 -13.97316895 25.72524414 -14.02172852 24.61376953 C-14 22 -14 22 -13 20 C-8.71 20 -4.42 20 0 20 C0 13.4 0 6.8 0 0 Z " fill="#5A39FE" transform="translate(115,63)"/>
<path d="M0 0 C0.6875 2.0625 0.6875 2.0625 1 4 C3.80764728 4.77426109 3.80764728 4.77426109 7 5 C9.36290685 3.68864588 9.36290685 3.68864588 11 2 C12.98 3.98 14.96 5.96 17 8 C16 10 15 12 14 14 C7.9453125 14.1953125 7.9453125 14.1953125 6 14 C5.34 13.34 4.68 12.68 4 12 C-1.54235245 11.42765564 -1.54235245 11.42765564 -6.5 13.5 C-8.71177972 17.18629954 -8.34421275 19.73176192 -8 24 C-7.67 24.66 -7.34 25.32 -7 26 C-9.64 26 -12.28 26 -15 26 C-15.0928125 24.824375 -15.0928125 24.824375 -15.1875 23.625 C-15.455625 22.75875 -15.72375 21.8925 -16 21 C-18.47636012 19.62533375 -18.47636012 19.62533375 -21 19 C-20.34 16.03 -19.68 13.06 -19 10 C-17.329375 10.061875 -17.329375 10.061875 -15.625 10.125 C-11.95633975 10.41121859 -11.95633975 10.41121859 -10 8 C-9.83322718 4.41656024 -9.83322718 4.41656024 -10 1 C-3.375 -1.125 -3.375 -1.125 0 0 Z " fill="#E9EBF2" transform="translate(103,19)"/>
<path d="M0 0 C1.58206057 0.00667536 3.16410534 0.0186375 4.74609375 0.03515625 C5.55240234 0.03966797 6.35871094 0.04417969 7.18945312 0.04882812 C9.18753131 0.06065107 11.18557158 0.07858711 13.18359375 0.09765625 C13.21043687 2.91021906 13.23035563 5.72252866 13.24609375 8.53515625 C13.25447266 9.33759766 13.26285156 10.14003906 13.27148438 10.96679688 C13.28010805 13.01060846 13.23587525 15.05449527 13.18359375 17.09765625 C11.36243372 18.91881628 8.87687611 18.23000705 6.45703125 18.234375 C5.70679687 18.23050781 4.9565625 18.22664063 4.18359375 18.22265625 C3.05824219 18.22845703 3.05824219 18.22845703 1.91015625 18.234375 C-3.68979572 18.22426678 -3.68979572 18.22426678 -4.81640625 17.09765625 C-4.91621839 14.42034245 -4.955205 11.7746145 -4.94140625 9.09765625 C-4.94527344 8.34742187 -4.94914062 7.5971875 -4.953125 6.82421875 C-4.94103514 0.12643386 -4.94103514 0.12643386 0 0 Z " fill="#35DBC6" transform="translate(109.81640625,95.90234375)"/>
<path d="M0 0 C0 10.89 0 21.78 0 33 C-6.93 33 -13.86 33 -21 33 C-20 30 -20 30 -19 29 C-18.01 28.67 -17.02 28.34 -16 28 C-14.78130071 25.49552484 -14.78130071 25.49552484 -14 23 C-11.03 22.67 -8.06 22.34 -5 22 C-4.67 16.39 -4.34 10.78 -4 5 C-4.99 4.67 -5.98 4.34 -7 4 C-6.01 3.67 -5.02 3.34 -4 3 C-4 2.34 -4 1.68 -4 1 C-1 0 -1 0 0 0 Z " fill="#7182FE" transform="translate(127,91)"/>
<path d="M0 0 C3.5 0.3125 3.5 0.3125 7 1 C7.33 1.66 7.66 2.32 8 3 C9.2065625 3.433125 9.2065625 3.433125 10.4375 3.875 C13 5 13 5 14.3125 7.125 C14.6528125 8.053125 14.6528125 8.053125 15 9 C13.68 9 12.36 9 11 9 C10.67 10.65 10.34 12.3 10 14 C9.01 14 8.02 14 7 14 C7.3403125 15.1446875 7.3403125 15.1446875 7.6875 16.3125 C7.790625 17.199375 7.89375 18.08625 8 19 C6.5625 20.8125 6.5625 20.8125 5 22 C1.125 20.25 1.125 20.25 0 18 C0.66 18 1.32 18 2 18 C1.67 16.02 1.34 14.04 1 12 C-5.27 11.67 -11.54 11.34 -18 11 C-18 10.34 -18 9.68 -18 9 C-15.03 9 -12.06 9 -9 9 C-8.67 7.68 -8.34 6.36 -8 5 C-6.35 5 -4.7 5 -3 5 C-2.690625 4.360625 -2.38125 3.72125 -2.0625 3.0625 C-1 1 -1 1 0 0 Z " fill="#3BD4D2" transform="translate(116,38)"/>
<path d="M0 0 C1.25554687 -0.00128906 2.51109375 -0.00257812 3.8046875 -0.00390625 C4.46178711 -0.00181152 5.11888672 0.0002832 5.79589844 0.00244141 C7.80411335 0.00779016 9.81210459 0.00249559 11.8203125 -0.00390625 C13.07585937 -0.00261719 14.33140625 -0.00132813 15.625 0 C16.78644531 0.00112793 17.94789063 0.00225586 19.14453125 0.00341797 C21.8125 0.1328125 21.8125 0.1328125 22.8125 1.1328125 C22.88429964 2.65209288 22.89642007 4.17448732 22.875 5.6953125 C22.86597656 6.52160156 22.85695312 7.34789062 22.84765625 8.19921875 C22.83605469 8.83730469 22.82445312 9.47539063 22.8125 10.1328125 C18.26444365 10.31116765 14.9330746 10.13066685 10.8125 8.1328125 C10.8125 7.4728125 10.8125 6.8128125 10.8125 6.1328125 C7.43813814 5.79900436 7.43813814 5.79900436 3.8125 6.1328125 C2.15579588 8.03618059 2.15579588 8.03618059 0.8125 10.1328125 C-1.875 10.8828125 -1.875 10.8828125 -4.1875 11.1328125 C-4.5175 12.1228125 -4.8475 13.1128125 -5.1875 14.1328125 C-5.8475 14.1328125 -6.5075 14.1328125 -7.1875 14.1328125 C-7.21435938 11.98704613 -7.23383088 9.84118605 -7.25 7.6953125 C-7.26160156 6.50035156 -7.27320312 5.30539063 -7.28515625 4.07421875 C-7.11114431 -1.16702086 -4.66394941 0.00452936 0 0 Z " fill="#35D1D3" transform="translate(112.1875,32.8671875)"/>
<path d="M0 0 C0.33 4.62 0.66 9.24 1 14 C3.64 14 6.28 14 9 14 C9 14.33 9 14.66 9 15 C7.35 15.33 5.7 15.66 4 16 C4 16.99 4 17.98 4 19 C2.35 19.66 0.7 20.32 -1 21 C-1.66 20.34 -2.32 19.68 -3 19 C-3.33 19.99 -3.66 20.98 -4 22 C-2.35 22 -0.7 22 1 22 C1 22.66 1 23.32 1 24 C0.01 24 -0.98 24 -2 24 C-2.33 24.66 -2.66 25.32 -3 26 C-3.99 27.32 -4.98 28.64 -6 30 C-6.33 23.4 -6.66 16.8 -7 10 C-9.64 10 -12.28 10 -15 10 C-15.36468886 3.55716353 -15.36468886 3.55716353 -13.875 1.28125 C-9.98348385 -1.3779527 -4.48681699 -0.14473603 0 0 Z " fill="#5A38FE" transform="translate(41,49)"/>
<path d="M0 0 C0.83265381 0.00523682 1.66530762 0.01047363 2.52319336 0.01586914 C3.42231445 0.0190918 4.32143555 0.02231445 5.24780273 0.02563477 C6.66609375 0.03820312 6.66609375 0.03820312 8.11303711 0.05102539 C9.06243164 0.05553711 10.01182617 0.06004883 10.98999023 0.06469727 C13.34353242 0.07652411 15.69704243 0.09446018 18.05053711 0.11352539 C18.05053711 3.74352539 18.05053711 7.37352539 18.05053711 11.11352539 C11.12053711 11.11352539 4.19053711 11.11352539 -2.94946289 11.11352539 C-2.94946289 0.17175958 -2.94946289 0.17175958 0 0 Z " fill="#3E448E" transform="translate(15.949462890625,31.886474609375)"/>
<path d="M0 0 C3.14581423 -0.02888514 6.29159469 -0.04675923 9.4375 -0.0625 C10.33533203 -0.07087891 11.23316406 -0.07925781 12.15820312 -0.08789062 C13.01220703 -0.09111328 13.86621094 -0.09433594 14.74609375 -0.09765625 C15.93223267 -0.10551147 15.93223267 -0.10551147 17.14233398 -0.11352539 C19 0 19 0 20 1 C20.04254356 2.99954746 20.04080783 5.00041636 20 7 C19.93462795 9.52297636 19.93462795 9.52297636 21 14 C16.38 14 11.76 14 7 14 C7 11.03 7 8.06 7 5 C4.69 5 2.38 5 0 5 C0 3.35 0 1.7 0 0 Z " fill="#39C5D7" transform="translate(98,49)"/>
<path d="M0 0 C13.53 0 27.06 0 41 0 C41 1.65 41 3.3 41 5 C27.47 5 13.94 5 0 5 C0 3.35 0 1.7 0 0 Z " fill="#3C3D89" transform="translate(60,97)"/>
<path d="M0 0 C0.33 1.32 0.66 2.64 1 4 C0.34 4 -0.32 4 -1 4 C-1 4.66 -1 5.32 -1 6 C5.27 6 11.54 6 18 6 C18.495 7.485 18.495 7.485 19 9 C4.81 9 -9.38 9 -24 9 C-24 8.34 -24 7.68 -24 7 C-21.98177083 6.609375 -19.96354167 6.21875 -17.9453125 5.828125 C-15.80560662 5.17252612 -15.80560662 5.17252612 -15.046875 2.96875 C-14.70140625 2.3190625 -14.3559375 1.669375 -14 1 C-11.7578125 0.390625 -11.7578125 0.390625 -9.125 0.25 C-8.26132813 0.19328125 -7.39765625 0.1365625 -6.5078125 0.078125 C-4.3394373 0.01057437 -2.16942714 0 0 0 Z " fill="#A4C6FE" transform="translate(75,112)"/>
<path d="M0 0 C1.32 0.99 2.64 1.98 4 3 C3.67 5.31 3.34 7.62 3 10 C3.66 10 4.32 10 5 10 C5 11.65 5 13.3 5 15 C3.35 15.33 1.7 15.66 0 16 C-0.33 17.65 -0.66 19.3 -1 21 C-2.65 21 -4.3 21 -6 21 C-6.33 20.01 -6.66 19.02 -7 18 C-8.98 18.33 -10.96 18.66 -13 19 C-14.5625 17.25 -14.5625 17.25 -16 15 C-15.67619874 13.66431979 -15.34342449 12.33076989 -15 11 C-16.35444301 9.22809091 -16.35444301 9.22809091 -18 8 C-17.67 7.01 -17.34 6.02 -17 5 C-14.36 5 -11.72 5 -9 5 C-9.20625 6.11375 -9.4125 7.2275 -9.625 8.375 C-9.74875 9.57125 -9.8725 10.7675 -10 12 C-8.10244856 14.34973818 -8.10244856 14.34973818 -4.875 14.125 C-3.451875 14.063125 -3.451875 14.063125 -2 14 C-1.70437633 8.67829506 -1.70437633 8.67829506 -4 4 C-2.68 2.68 -1.36 1.36 0 0 Z " fill="#EAEBF2" transform="translate(138,58)"/>
<path d="M0 0 C1.98 0 3.96 0 6 0 C6.33 0.66 6.66 1.32 7 2 C9.8159849 2.46898963 9.8159849 2.46898963 13.0625 2.625 C14.71958984 2.73714844 14.71958984 2.73714844 16.41015625 2.8515625 C17.26480469 2.90054688 18.11945312 2.94953125 19 3 C19.33 3.99 19.66 4.98 20 6 C20.99 6 21.98 6 23 6 C21.57421875 8.4765625 21.57421875 8.4765625 19 11 C15.92245784 11.65920518 12.94406892 11.5176795 9.8125 11.375 C8.98041016 11.36082031 8.14832031 11.34664062 7.29101562 11.33203125 C1.18268327 11.18268327 1.18268327 11.18268327 0 10 C-0.07205511 8.31391034 -0.08386068 6.62499341 -0.0625 4.9375 C-0.05347656 4.01839844 -0.04445313 3.09929687 -0.03515625 2.15234375 C-0.02355469 1.44207031 -0.01195313 0.73179688 0 0 Z " fill="#C4DBFE" transform="translate(27,102)"/>
<path d="M0 0 C1.32 0 2.64 0 4 0 C4 6.6 4 13.2 4 20 C6.31 20 8.62 20 11 20 C11.33 20.99 11.66 21.98 12 23 C3.19039858 24.30512614 -5.19039858 24.30512614 -14 23 C-13.505 21.515 -13.505 21.515 -13 20 C-8.71 20 -4.42 20 0 20 C0 13.4 0 6.8 0 0 Z " fill="#4C4CA1" transform="translate(115,63)"/>
<path d="M0 0 C-0.99 1.485 -0.99 1.485 -2 3 C-1.505 3.763125 -1.01 4.52625 -0.5 5.3125 C1 8 1 8 1 11 C-1 12.6875 -1 12.6875 -3 14 C-3 13.01 -3 12.02 -3 11 C-2.34 11 -1.68 11 -1 11 C-1.99 9.68 -2.98 8.36 -4 7 C-7.32901247 9.21934164 -7.75023244 10.34683329 -9 14 C-9.66 14 -10.32 14 -11 14 C-11 13.01 -11 12.02 -11 11 C-11.99 11 -12.98 11 -14 11 C-14 11.99 -14 12.98 -14 14 C-17.16115776 12.63016497 -17.9927092 12.0109362 -20 9 C-19.50628906 8.66226563 -19.01257812 8.32453125 -18.50390625 7.9765625 C-17.86324219 7.53054687 -17.22257812 7.08453125 -16.5625 6.625 C-15.92441406 6.18414062 -15.28632812 5.74328125 -14.62890625 5.2890625 C-12.86259072 4.07839147 -12.86259072 4.07839147 -12 2 C-8.25511072 -0.69632028 -4.42217175 -0.14740572 0 0 Z " fill="#49B5E1" transform="translate(55,86)"/>
<path d="M0 0 C1.31871094 -0.01224609 2.63742188 -0.02449219 3.99609375 -0.03710938 C5.90068359 -0.04000977 5.90068359 -0.04000977 7.84375 -0.04296875 C9.00068359 -0.04707764 10.15761719 -0.05118652 11.34960938 -0.05541992 C14.47736509 0.18575467 16.680892 0.85423629 19.5 2.1875 C18.5 4.1875 18.5 4.1875 16.84521484 4.80200195 C11.99200924 5.59975457 7.04404055 5.37340312 2.13769531 5.37280273 C0.13863013 5.37498512 -1.86039532 5.39349143 -3.859375 5.41210938 C-5.13039063 5.41404297 -6.40140625 5.41597656 -7.7109375 5.41796875 C-8.86899902 5.42207764 -10.02706055 5.42618652 -11.22021484 5.43041992 C-14.61310954 5.17912245 -17.33332989 4.39923908 -20.5 3.1875 C-20.17 2.5275 -19.84 1.8675 -19.5 1.1875 C-13.23640183 -0.60566158 -6.45139424 0.00315317 0 0 Z " fill="#EAEBF2" transform="translate(114.5,125.8125)"/>
<path d="M0 0 C0.99 0 1.98 0 3 0 C3 3.3 3 6.6 3 10 C19.83 10 36.66 10 54 10 C54 10.33 54 10.66 54 11 C53.3387915 11.02505615 52.67758301 11.0501123 51.99633789 11.07592773 C49.01817695 11.19153102 46.0403608 11.31441754 43.0625 11.4375 C41.50112305 11.49647461 41.50112305 11.49647461 39.90820312 11.55664062 C38.42416992 11.61948242 38.42416992 11.61948242 36.91015625 11.68359375 C35.99371338 11.72025146 35.07727051 11.75690918 34.13305664 11.79467773 C32.0179272 11.77003864 32.0179272 11.77003864 31 13 C28.79349344 13.10012401 26.58377614 13.1308118 24.375 13.1328125 C23.71290527 13.13376923 23.05081055 13.13472595 22.36865234 13.13571167 C20.96647039 13.13639326 19.5642853 13.13454042 18.16210938 13.13037109 C16.00904287 13.12502246 13.85618498 13.1303167 11.703125 13.13671875 C10.34374954 13.13605796 8.9843742 13.13477679 7.625 13.1328125 C6.37976562 13.13168457 5.13453125 13.13055664 3.8515625 13.12939453 C1 13 1 13 0 12 C-0.07244053 9.98035801 -0.08377188 7.95832876 -0.0625 5.9375 C-0.05347656 4.83277344 -0.04445312 3.72804687 -0.03515625 2.58984375 C-0.02355469 1.73519531 -0.01195312 0.88054688 0 0 Z " fill="#3C95CD" transform="translate(41,49)"/>
<path d="M0 0 C2.64 0 5.28 0 8 0 C8.02887814 3.47914941 8.04675687 6.95826831 8.0625 10.4375 C8.07087891 11.43072266 8.07925781 12.42394531 8.08789062 13.44726562 C8.09111328 14.39150391 8.09433594 15.33574219 8.09765625 16.30859375 C8.10289307 17.18314209 8.10812988 18.05769043 8.11352539 18.95874023 C8 21 8 21 7 22 C4.66702567 22.04092937 2.33294775 22.04241723 0 22 C0.66 21.34 1.32 20.68 2 20 C1.34 19.67 0.68 19.34 0 19 C0.33 17.35 0.66 15.7 1 14 C1.99 14 2.98 14 4 14 C3.71848913 12.68528432 3.42446661 11.37324233 3.125 10.0625 C2.96257813 9.33160156 2.80015625 8.60070312 2.6328125 7.84765625 C2.17038477 5.79299706 2.17038477 5.79299706 0 5 C0 3.35 0 1.7 0 0 Z " fill="#37CBC8" transform="translate(26,59)"/>
<path d="M0 0 C0.99 0 1.98 0 3 0 C3 0.66 3 1.32 3 2 C4.32 1.67 5.64 1.34 7 1 C9 6.625 9 6.625 9 10 C8.01 10 7.02 10 6 10 C5.67 11.32 5.34 12.64 5 14 C4.01 14 3.02 14 2 14 C2 13.34 2 12.68 2 12 C0.35 11.67 -1.3 11.34 -3 11 C-3.33 8.36 -3.66 5.72 -4 3 C-2.68 3 -1.36 3 0 3 C0 2.01 0 1.02 0 0 Z " fill="#D9F3F7" transform="translate(21,63)"/>
<path d="M0 0 C2.70313576 -0.21917317 4.43958382 -0.32851983 6.8125 1.0625 C8.66501934 4.08503156 8.37643703 6.54932719 8 10 C4.53076119 12.31282587 3.07794425 12.42478586 -1 12 C-2.875 10.8125 -2.875 10.8125 -4 9 C-4.1875 6.3125 -4.1875 6.3125 -4 4 C-2.68 3.67 -1.36 3.34 0 3 C0 2.01 0 1.02 0 0 Z " fill="#81DEE5" transform="translate(112,99)"/>
<path d="M0 0 C3.5 0.3125 3.5 0.3125 7 1 C7.33 1.66 7.66 2.32 8 3 C8.825 3.309375 9.65 3.61875 10.5 3.9375 C11.325 4.288125 12.15 4.63875 13 5 C13.33 5.99 13.66 6.98 14 8 C6.74 8 -0.52 8 -8 8 C-8 7.01 -8 6.02 -8 5 C-6.35 5 -4.7 5 -3 5 C-2.690625 4.360625 -2.38125 3.72125 -2.0625 3.0625 C-1 1 -1 1 0 0 Z " fill="#F6FCFD" transform="translate(116,38)"/>
<path d="M0 0 C0.83265381 0.00523682 1.66530762 0.01047363 2.52319336 0.01586914 C3.42231445 0.0190918 4.32143555 0.02231445 5.24780273 0.02563477 C6.66609375 0.03820312 6.66609375 0.03820312 8.11303711 0.05102539 C9.06243164 0.05553711 10.01182617 0.06004883 10.98999023 0.06469727 C13.34353242 0.07652411 15.69704243 0.09446018 18.05053711 0.11352539 C18.05053711 3.74352539 18.05053711 7.37352539 18.05053711 11.11352539 C11.12053711 11.11352539 4.19053711 11.11352539 -2.94946289 11.11352539 C-2.94946289 0.17175958 -2.94946289 0.17175958 0 0 Z M-0.94946289 2.11352539 C-0.94946289 4.42352539 -0.94946289 6.73352539 -0.94946289 9.11352539 C4.66053711 9.11352539 10.27053711 9.11352539 16.05053711 9.11352539 C16.05053711 6.80352539 16.05053711 4.49352539 16.05053711 2.11352539 C10.44053711 2.11352539 4.83053711 2.11352539 -0.94946289 2.11352539 Z " fill="#34D3D1" transform="translate(15.949462890625,31.886474609375)"/>
<path d="M0 0 C3.14581423 -0.02888514 6.29159469 -0.04675923 9.4375 -0.0625 C10.33533203 -0.07087891 11.23316406 -0.07925781 12.15820312 -0.08789062 C13.01220703 -0.09111328 13.86621094 -0.09433594 14.74609375 -0.09765625 C15.93223267 -0.10551147 15.93223267 -0.10551147 17.14233398 -0.11352539 C19 0 19 0 20 1 C20.04080783 2.99958364 20.04254356 5.00045254 20 7 C19.01 7 18.02 7 17 7 C17 6.34 17 5.68 17 5 C11.39 5 5.78 5 0 5 C0 3.35 0 1.7 0 0 Z " fill="#34B1C5" transform="translate(98,49)"/>
<path d="M0 0 C1.32 0 2.64 0 4 0 C4 5.28 4 10.56 4 16 C4.99 16 5.98 16 7 16 C7 17.65 7 19.3 7 21 C4.69 21 2.38 21 0 21 C0 14.07 0 7.14 0 0 Z " fill="#41428D" transform="translate(26,81)"/>
<path d="M0 0 C1.08667969 0.02707031 2.17335938 0.05414063 3.29296875 0.08203125 C4.54013672 0.13423828 4.54013672 0.13423828 5.8125 0.1875 C5.8125 1.8375 5.8125 3.4875 5.8125 5.1875 C2.1825 5.1875 -1.4475 5.1875 -5.1875 5.1875 C-5.1875 6.8375 -5.1875 8.4875 -5.1875 10.1875 C-6.5075 10.1875 -7.8275 10.1875 -9.1875 10.1875 C-9.55218886 3.74466353 -9.55218886 3.74466353 -8.0625 1.46875 C-5.3504604 -0.38447706 -3.24426436 -0.10465369 0 0 Z " fill="#3C3D89" transform="translate(35.1875,48.8125)"/>
<path d="M0 0 C0.0580476 3.27075883 0.09361165 6.54138524 0.125 9.8125 C0.14175781 10.74126953 0.15851563 11.67003906 0.17578125 12.62695312 C0.18222656 13.51962891 0.18867187 14.41230469 0.1953125 15.33203125 C0.20578613 16.15421143 0.21625977 16.9763916 0.22705078 17.82348633 C0 20 0 20 -2 23 C-2.66 23 -3.32 23 -4 23 C-4 17.06 -4 11.12 -4 5 C-4.99 4.67 -5.98 4.34 -7 4 C-6.01 3.67 -5.02 3.34 -4 3 C-4 2.34 -4 1.68 -4 1 C-1 0 -1 0 0 0 Z " fill="#6B6DFE" transform="translate(127,91)"/>
<path d="M0 0 C2.64 0 5.28 0 8 0 C8 1.65 8 3.3 8 5 C6.68 5.33 5.36 5.66 4 6 C4 6.66 4 7.32 4 8 C0.79619983 10.13586678 -0.01939967 10.23132175 -3.6875 10.125 C-4.89986328 10.09792969 -4.89986328 10.09792969 -6.13671875 10.0703125 C-7.05904297 10.03550781 -7.05904297 10.03550781 -8 10 C-7.34 9.34 -6.68 8.68 -6 8 C-5.525625 7.29875 -5.05125 6.5975 -4.5625 5.875 C-4.046875 5.25625 -3.53125 4.6375 -3 4 C-2.01 4 -1.02 4 0 4 C0 2.68 0 1.36 0 0 Z " fill="#6358FE" transform="translate(119,86)"/>
<path d="M0 0 C1.93166016 0.01740234 1.93166016 0.01740234 3.90234375 0.03515625 C5.19269531 0.04417969 6.48304687 0.05320312 7.8125 0.0625 C8.81152344 0.07410156 9.81054688 0.08570312 10.83984375 0.09765625 C8.16240187 2.1957357 6.21794487 3.49442391 2.83984375 4.09765625 C2.83984375 5.08765625 2.83984375 6.07765625 2.83984375 7.09765625 C1.84984375 7.09765625 0.85984375 7.09765625 -0.16015625 7.09765625 C-0.82015625 9.07765625 -1.48015625 11.05765625 -2.16015625 13.09765625 C-2.82015625 13.09765625 -3.48015625 13.09765625 -4.16015625 13.09765625 C-4.18702178 11.11856227 -4.20649 9.13936654 -4.22265625 7.16015625 C-4.23425781 6.05800781 -4.24585937 4.95585938 -4.2578125 3.8203125 C-4.11749553 -0.09172464 -3.97435676 0.12281696 0 0 Z " fill="#46C3ED" transform="translate(109.16015625,95.90234375)"/>
<path d="M0 0 C1.79244141 0.01740234 1.79244141 0.01740234 3.62109375 0.03515625 C5.41740234 0.04869141 5.41740234 0.04869141 7.25 0.0625 C8.17683594 0.07410156 9.10367188 0.08570312 10.05859375 0.09765625 C9.72859375 0.75765625 9.39859375 1.41765625 9.05859375 2.09765625 C8.06859375 2.09765625 7.07859375 2.09765625 6.05859375 2.09765625 C5.72859375 3.08765625 5.39859375 4.07765625 5.05859375 5.09765625 C3.0648755 6.44036446 1.06513755 7.77419119 -0.94140625 9.09765625 C-0.94140625 9.75765625 -0.94140625 10.41765625 -0.94140625 11.09765625 C-1.93140625 11.09765625 -2.92140625 11.09765625 -3.94140625 11.09765625 C-3.96828776 9.45191059 -3.98774748 7.80604212 -4.00390625 6.16015625 C-4.01550781 5.24363281 -4.02710938 4.32710938 -4.0390625 3.3828125 C-3.89090453 -0.08408389 -3.52446843 0.11701422 0 0 Z " fill="#429CE9" transform="translate(36.94140625,85.90234375)"/>
<path d="M0 0 C1.32 0 2.64 0 4 0 C4 6.6 4 13.2 4 20 C2.68 19.67 1.36 19.34 0 19 C0 12.73 0 6.46 0 0 Z " fill="#3E3E8B" transform="translate(115,63)"/>
<path d="M0 0 C1.67542976 0.28604898 3.34385343 0.61781233 5 1 C4.25 6.75 4.25 6.75 2 9 C1.01 9 0.02 9 -1 9 C-1.33 10.32 -1.66 11.64 -2 13 C-2.99 13 -3.98 13 -5 13 C-5.12375 13.61875 -5.2475 14.2375 -5.375 14.875 C-6 17 -6 17 -8 19 C-8.99 18.67 -9.98 18.34 -11 18 C-10.34 17.4225 -9.68 16.845 -9 16.25 C-6.55709077 14.00346023 -6.55709077 14.00346023 -7 10 C-6.01 10 -5.02 10 -4 10 C-3.67 8.35 -3.34 6.7 -3 5 C-1.68 5 -0.36 5 1 5 C0.34 3.68 -0.32 2.36 -1 1 C-0.67 0.67 -0.34 0.34 0 0 Z " fill="#36D7CC" transform="translate(130,42)"/>
<path d="M0 0 C8.58 0 17.16 0 26 0 C25.67 0.99 25.34 1.98 25 3 C17.08 3 9.16 3 1 3 C0.67 2.01 0.34 1.02 0 0 Z " fill="#4C4CA0" transform="translate(101,124)"/>
<path d="M0 0 C0.33 0 0.66 0 1 0 C1 4.29 1 8.58 1 13 C-2.96 13 -6.92 13 -11 13 C-10 11 -10 11 -7 10 C-4.82467143 7.82467143 -4.6337746 6.89725531 -4 4 C-3.67 3.34 -3.34 2.68 -3 2 C-2.34 2.33 -1.68 2.66 -1 3 C-0.67 2.01 -0.34 1.02 0 0 Z " fill="#7693FE" transform="translate(126,111)"/>
<path d="M0 0 C1.67542976 0.28604898 3.34385343 0.61781233 5 1 C5.75 3.75 5.75 3.75 6 7 C4.125 9.1875 4.125 9.1875 2 11 C1.67 11.99 1.34 12.98 1 14 C0.34 14 -0.32 14 -1 14 C-1.02685938 11.85423363 -1.04633088 9.70837355 -1.0625 7.5625 C-1.07410156 6.36753906 -1.08570312 5.17257813 -1.09765625 3.94140625 C-1 1 -1 1 0 0 Z " fill="#31C6DF" transform="translate(106,33)"/>
<path d="M0 0 C0.99 0 1.98 0 3 0 C3 0.66 3 1.32 3 2 C4.32 1.67 5.64 1.34 7 1 C7.33 1.99 7.66 2.98 8 4 C7.34 4.66 6.68 5.32 6 6 C3.375 5.625 3.375 5.625 1 5 C1.33 6.98 1.66 8.96 2 11 C0.68 11.33 -0.64 11.66 -2 12 C-3.49821059 8.62902617 -4 6.79557881 -4 3 C-2.68 3 -1.36 3 0 3 C0 2.01 0 1.02 0 0 Z " fill="#ECF8FB" transform="translate(21,63)"/>
<path d="M0 0 C1.24716797 0.00322266 2.49433594 0.00644531 3.77929688 0.00976562 C5.07287109 0.01814453 6.36644531 0.02652344 7.69921875 0.03515625 C9.66858398 0.04192383 9.66858398 0.04192383 11.67773438 0.04882812 C14.91410885 0.06059676 18.15039053 0.07703865 21.38671875 0.09765625 C21.05671875 0.75765625 20.72671875 1.41765625 20.38671875 2.09765625 C19.73074707 2.11747559 19.07477539 2.13729492 18.39892578 2.15771484 C15.43610806 2.25278132 12.47401343 2.36253377 9.51171875 2.47265625 C7.96291016 2.5190625 7.96291016 2.5190625 6.3828125 2.56640625 C4.90361328 2.62441406 4.90361328 2.62441406 3.39453125 2.68359375 C2.4833252 2.71501465 1.57211914 2.74643555 0.63330078 2.77880859 C-1.81259311 2.89648136 -1.81259311 2.89648136 -3.61328125 5.09765625 C-6.34197532 5.06478042 -8.90994305 4.53367854 -11.61328125 4.09765625 C-11.61328125 3.10765625 -11.61328125 2.11765625 -11.61328125 1.09765625 C-7.68039761 0.16677716 -4.03673962 -0.0184326 0 0 Z " fill="#D9D9E8" transform="translate(106.61328125,125.90234375)"/>
<path d="M0 0 C2.64 0 5.28 0 8 0 C8 0.66 8 1.32 8 2 C8.804375 2.12375 9.60875 2.2475 10.4375 2.375 C11.7059375 2.684375 11.7059375 2.684375 13 3 C13.33 3.66 13.66 4.32 14 5 C9.05 5 4.1 5 -1 5 C-0.67 3.35 -0.34 1.7 0 0 Z " fill="#36D0D4" transform="translate(15,75)"/>
<path d="M0 0 C0.33 0.66 0.66 1.32 1 2 C8.59 1.67 16.18 1.34 24 1 C24 1.66 24 2.32 24 3 C22.85660156 3.06058594 21.71320313 3.12117188 20.53515625 3.18359375 C19.04425695 3.26798428 17.55337225 3.35263302 16.0625 3.4375 C14.93038086 3.49647461 14.93038086 3.49647461 13.77539062 3.55664062 C10.08055813 3.44038024 10.08055813 3.44038024 7 5 C4.30345146 5.07319621 1.63308542 5.09242537 -1.0625 5.0625 C-1.82111328 5.05798828 -2.57972656 5.05347656 -3.36132812 5.04882812 C-5.24091871 5.0370068 -7.12046899 5.01907078 -9 5 C-9 4.34 -9 3.68 -9 3 C-6.03 3 -3.06 3 0 3 C0 2.01 0 1.02 0 0 Z " fill="#93DAE4" transform="translate(107,44)"/>
<path d="M0 0 C2.64 0 5.28 0 8 0 C8 0.99 8 1.98 8 3 C7.01 3 6.02 3 5 3 C5 4.32 5 5.64 5 7 C4.0409375 7.2165625 4.0409375 7.2165625 3.0625 7.4375 C1.02454854 7.81007181 1.02454854 7.81007181 0 9 C-1.66617115 9.04063832 -3.33388095 9.042721 -5 9 C-5.33 8.34 -5.66 7.68 -6 7 C-4.68 7 -3.36 7 -2 7 C-1.67 6.34 -1.34 5.68 -1 5 C-0.34 4.34 0.32 3.68 1 3 C0.67 2.01 0.34 1.02 0 0 Z " fill="#5E4BFA" transform="translate(111,87)"/>
<path d="M0 0 C1.39456452 0.00667256 2.78911118 0.01863093 4.18359375 0.03515625 C4.89451172 0.03966797 5.60542969 0.04417969 6.33789062 0.04882812 C8.09899388 0.06064761 9.86005411 0.07858362 11.62109375 0.09765625 C11.95109375 0.75765625 12.28109375 1.41765625 12.62109375 2.09765625 C7.67109375 2.09765625 2.72109375 2.09765625 -2.37890625 2.09765625 C-2.37890625 5.06765625 -2.37890625 8.03765625 -2.37890625 11.09765625 C-3.03890625 11.09765625 -3.69890625 11.09765625 -4.37890625 11.09765625 C-4.40578776 9.45191059 -4.42524748 7.80604212 -4.44140625 6.16015625 C-4.45300781 5.24363281 -4.46460938 4.32710937 -4.4765625 3.3828125 C-4.3190922 -0.30199259 -3.80656158 0.11001623 0 0 Z " fill="#33C9DD" transform="translate(17.37890625,31.90234375)"/>
<path d="M0 0 C2.31 0 4.62 0 7 0 C7.8125 2.1875 7.8125 2.1875 8 5 C5.8125 7.875 5.8125 7.875 3 10 C0.6875 9.8125 0.6875 9.8125 -1 9 C-0.34 9 0.32 9 1 9 C1.07427838 5.65747276 1.06546953 3.1964086 0 0 Z " fill="#73D5E4" transform="translate(110,33)"/>
<path d="M0 0 C0.66 0.33 1.32 0.66 2 1 C1.34 1.66 0.68 2.32 0 3 C0.7425 4.1446875 0.7425 4.1446875 1.5 5.3125 C3 8 3 8 3 11 C1 12.6875 1 12.6875 -1 14 C-1 13.01 -1 12.02 -1 11 C-0.34 11 0.32 11 1 11 C0.01 9.68 -0.98 8.36 -2 7 C-2.99 7.33 -3.98 7.66 -5 8 C-5.33 6.68 -5.66 5.36 -6 4 C-5.34 4 -4.68 4 -4 4 C-4 3.34 -4 2.68 -4 2 C-2.125 0.9375 -2.125 0.9375 0 0 Z " fill="#48BFDF" transform="translate(53,86)"/>
<path d="M0 0 C3.37462715 0.54723683 5.08235 1.0549 8 3 C8 2.01 8 1.02 8 0 C8.99 0 9.98 0 11 0 C10.67 1.65 10.34 3.3 10 5 C6.7 5 3.4 5 0 5 C0 3.35 0 1.7 0 0 Z " fill="#34AEC5" transform="translate(33,97)"/>
<path d="M0 0 C2.6875 0.3125 2.6875 0.3125 5 1 C5 2.65 5 4.3 5 6 C3.35 6.66 1.7 7.32 0 8 C-0.99 6.35 -1.98 4.7 -3 3 C-1.8125 1.4375 -1.8125 1.4375 0 0 Z " fill="#3CC4D6" transform="translate(55,86)"/>
<path d="M0 0 C2.64 0 5.28 0 8 0 C7.67 1.98 7.34 3.96 7 6 C4.69 5.67 2.38 5.34 0 5 C0 3.35 0 1.7 0 0 Z " fill="#3DB5DC" transform="translate(26,59)"/>
<path d="M0 0 C3.3 0 6.6 0 10 0 C9 2 9 2 6.5 2.875 C5.675 3.24625 4.85 3.6175 4 4 C3.34786708 6.02463255 3.34786708 6.02463255 3 8 C2.01 8.33 1.02 8.66 0 9 C0 6.03 0 3.06 0 0 Z " fill="#3DBBDD" transform="translate(105,54)"/>
<path d="M0 0 C2.5625718 -0.02710123 5.12485365 -0.04688771 7.6875 -0.0625 C8.40873047 -0.07087891 9.12996094 -0.07925781 9.87304688 -0.08789062 C13.71555382 -0.10543632 17.26639526 0.06475779 21 1 C21 1.33 21 1.66 21 2 C14.73 2 8.46 2 2 2 C2 2.66 2 3.32 2 4 C1.01 4 0.02 4 -1 4 C-0.67 2.68 -0.34 1.36 0 0 Z " fill="#32C7DD" transform="translate(42,45)"/>
<path d="M0 0 C0.125 7.75 0.125 7.75 -1 10 C-1.66 10 -2.32 10 -3 10 C-3.28875 9.236875 -3.5775 8.47375 -3.875 7.6875 C-4.96269013 4.84970692 -4.96269013 4.84970692 -7 2 C-4.35261084 0.5393715 -3.10551666 0 0 0 Z " fill="#3ECDE4" transform="translate(123,96)"/>
<path d="M0 0 C0.05422947 1.4370809 0.09289723 2.87475462 0.125 4.3125 C0.14820312 5.11300781 0.17140625 5.91351563 0.1953125 6.73828125 C0 9 0 9 -2 12 C-2.66 12 -3.32 12 -4 12 C-4.08090971 10.37581255 -4.13914995 8.75048255 -4.1875 7.125 C-4.22230469 6.22007813 -4.25710937 5.31515625 -4.29296875 4.3828125 C-4.19628906 3.59648438 -4.09960938 2.81015625 -4 2 C-1 0 -1 0 0 0 Z " fill="#7080FE" transform="translate(127,102)"/>
<path d="M0 0 C1.37478516 0.01740234 1.37478516 0.01740234 2.77734375 0.03515625 C3.69644531 0.04417969 4.61554688 0.05320312 5.5625 0.0625 C6.27277344 0.07410156 6.98304687 0.08570312 7.71484375 0.09765625 C4.71484375 2.09765625 4.71484375 2.09765625 1.71484375 2.09765625 C1.71484375 2.75765625 1.71484375 3.41765625 1.71484375 4.09765625 C0.04817708 5.76432292 -1.61848958 7.43098958 -3.28515625 9.09765625 C-3.3828125 2.9453125 -3.3828125 2.9453125 -3.28515625 1.09765625 C-2.28515625 0.09765625 -2.28515625 0.09765625 0 0 Z " fill="#45B4F5" transform="translate(108.28515625,95.90234375)"/>
<path d="M0 0 C0.99 0.33 1.98 0.66 3 1 C2.91231752 2.5843317 2.80412671 4.16753567 2.6875 5.75 C2.62949219 6.63171875 2.57148437 7.5134375 2.51171875 8.421875 C1.9358819 11.32303774 0.92403852 12.79225607 -1 15 C-1.02685412 12.68756208 -1.04632841 10.3750373 -1.0625 8.0625 C-1.07410156 6.77472656 -1.08570312 5.48695312 -1.09765625 4.16015625 C-1 1 -1 1 0 0 Z " fill="#5E4BFE" transform="translate(103,96)"/>
<path d="M0 0 C0.99 0 1.98 0 3 0 C3.04241723 2.33294775 3.04092937 4.66702567 3 7 C2 8 2 8 0.15234375 8.09765625 C-1.8984375 8.06510417 -3.94921875 8.03255208 -6 8 C-5.34 7.01 -4.68 6.02 -4 5 C-3.01 5 -2.02 5 -1 5 C-0.67 3.35 -0.34 1.7 0 0 Z " fill="#35DCC1" transform="translate(57,97)"/>
<path d="M0 0 C0.99 0 1.98 0 3 0 C3 1.65 3 3.3 3 5 C3.99 5.33 4.98 5.66 6 6 C5.01 6.99 4.02 7.98 3 9 C-0.875 7.25 -0.875 7.25 -2 5 C-1.34 5 -0.68 5 0 5 C0 3.35 0 1.7 0 0 Z " fill="#E4F6F8" transform="translate(118,51)"/>
<path d="M0 0 C2.31 0 4.62 0 7 0 C7 1.65 7 3.3 7 5 C4.69 5 2.38 5 0 5 C0 3.35 0 1.7 0 0 Z " fill="#3C3E8A" transform="translate(98,49)"/>
<path d="M0 0 C1.07765625 0.10183594 2.1553125 0.20367187 3.265625 0.30859375 C4.08546875 0.39238281 4.9053125 0.47617188 5.75 0.5625 C5.75 1.2225 5.75 1.8825 5.75 2.5625 C0.47 2.5625 -4.81 2.5625 -10.25 2.5625 C-10.25 1.9025 -10.25 1.2425 -10.25 0.5625 C-6.70049966 -0.60056443 -3.69176052 -0.36115049 0 0 Z " fill="#99C0FE" transform="translate(68.25,118.4375)"/>
<path d="M0 0 C2.5 1.8125 2.5 1.8125 5 4 C5 4.99 5 5.98 5 7 C3.02 7 1.04 7 -1 7 C-1.33 5.35 -1.66 3.7 -2 2 C-1.34 2 -0.68 2 0 2 C0 1.34 0 0.68 0 0 Z " fill="#3CD2E1" transform="translate(107,107)"/>
<path d="M0 0 C0.95465783 2.16967689 1.14401212 3.56328793 0.3984375 5.82421875 C-0.35870385 7.5684743 -1.17609198 9.28627131 -2 11 C-3.32 10.67 -4.64 10.34 -6 10 C-5.01 10 -4.02 10 -3 10 C-3.33 7.36 -3.66 4.72 -4 2 C-2.68 2 -1.36 2 0 2 C0 1.34 0 0.68 0 0 Z " fill="#43C5D7" transform="translate(33,63)"/>
<path d="M0 0 C0.66 0.66 1.32 1.32 2 2 C1.67 2.66 1.34 3.32 1 4 C1.66 4 2.32 4 3 4 C3.66 3.34 4.32 2.68 5 2 C5.625 4.375 5.625 4.375 6 7 C5.34 7.66 4.68 8.32 4 9 C4 8.34 4 7.68 4 7 C1.5 8 1.5 8 0 12 C0 8.04 0 4.08 0 0 Z " fill="#3BCEDA" transform="translate(13,68)"/>
<path d="M0 0 C0.33 0 0.66 0 1 0 C1.38922918 1.28745036 1.76098036 2.58019597 2.125 3.875 C2.33382812 4.59429687 2.54265625 5.31359375 2.7578125 6.0546875 C2.83773437 6.69664063 2.91765625 7.33859375 3 8 C2.34 8.66 1.68 9.32 1 10 C0.01 10 -0.98 10 -2 10 C-1.85950482 8.52031676 -1.71245174 7.04125484 -1.5625 5.5625 C-1.48128906 4.73878906 -1.40007812 3.91507812 -1.31640625 3.06640625 C-1 1 -1 1 0 0 Z " fill="#6762FF" transform="translate(104,107)"/>
<path d="M0 0 C0.99 0.33 1.98 0.66 3 1 C3 2.98 3 4.96 3 7 C4.65 7.33 6.3 7.66 8 8 C8 8.33 8 8.66 8 9 C2.57142857 9.36190476 2.57142857 9.36190476 0.125 7.8125 C-1.36366316 5.41409825 -1.29178308 3.77193929 -1 1 C-0.67 0.67 -0.34 0.34 0 0 Z " fill="#91E1EB" transform="translate(109,102)"/>
<path d="M0 0 C2.97 0 5.94 0 9 0 C9 0.99 9 1.98 9 3 C6.36 3 3.72 3 1 3 C0.67 2.01 0.34 1.02 0 0 Z " fill="#4ED2DA" transform="translate(33,102)"/>
<path d="M0 0 C1.32 0 2.64 0 4 0 C4 1.65 4 3.3 4 5 C2.68 5.33 1.36 5.66 0 6 C-0.38218767 4.34385343 -0.71395102 2.67542976 -1 1 C-0.67 0.67 -0.34 0.34 0 0 Z " fill="#3ECCDB" transform="translate(22,67)"/>
<path d="M0 0 C4.46840411 0.49648935 5.68987756 0.68987756 9 4 C6.03 4 3.06 4 0 4 C0 2.68 0 1.36 0 0 Z " fill="#33D7CC" transform="translate(20,76)"/>
<path d="M0 0 C2.64 0 5.28 0 8 0 C8.33 1.32 8.66 2.64 9 4 C8.01 4 7.02 4 6 4 C6 3.34 6 2.68 6 2 C3.69 2 1.38 2 -1 2 C-0.67 1.34 -0.34 0.68 0 0 Z " fill="#53D9D4" transform="translate(89,45)"/>
<path d="M0 0 C1.5 1.375 1.5 1.375 3 3 C3 3.66 3 4.32 3 5 C0.69 5 -1.62 5 -4 5 C-2.25 1.125 -2.25 1.125 0 0 Z " fill="#44C7DA" transform="translate(51,92)"/>
<path d="M0 0 C0 0.99 0 1.98 0 3 C-2 5 -2 5 -4.625 5.125 C-5.40875 5.08375 -6.1925 5.0425 -7 5 C-7 4.01 -7 3.02 -7 2 C-4.69 1.34 -2.38 0.68 0 0 Z " fill="#3CDACF" transform="translate(119,109)"/>
<path d="M0 0 C1.65 0 3.3 0 5 0 C4.67 1.65 4.34 3.3 4 5 C2.68 4.67 1.36 4.34 0 4 C0 2.68 0 1.36 0 0 Z " fill="#3BD2E0" transform="translate(112,103)"/>
<path d="M0 0 C1.98 0.99 1.98 0.99 4 2 C4 3.32 4 4.64 4 6 C2.68 6 1.36 6 0 6 C0 4.02 0 2.04 0 0 Z " fill="#39C5C6" transform="translate(115,57)"/>
<path d="M0 0 C1.65 1.65 3.3 3.3 5 5 C3.35 6.32 1.7 7.64 0 9 C0 8.01 0 7.02 0 6 C0.66 6 1.32 6 2 6 C1.34 5.01 0.68 4.02 0 3 C0 2.01 0 1.02 0 0 Z " fill="#DBF4F7" transform="translate(52,91)"/>
<path d="M0 0 C-1.24546405 3.73639216 -2.63404953 4.18756513 -6 6 C-6 4.33333333 -6 2.66666667 -6 1 C-4 0 -4 0 0 0 Z " fill="#48ACE6" transform="translate(43,88)"/>
<path d="M0 0 C0.66 0.33 1.32 0.66 2 1 C0.515 4.96 0.515 4.96 -1 9 C-1.66 9 -2.32 9 -3 9 C-2.5020163 5.26512223 -2.12508244 3.18762365 0 0 Z " fill="#E7F7F8" transform="translate(47,91)"/>
<path d="M0 0 C0.66 0 1.32 0 2 0 C2 1.65 2 3.3 2 5 C0.35 5.33 -1.3 5.66 -3 6 C-1.125 1.125 -1.125 1.125 0 0 Z " fill="#47D7D2" transform="translate(58,92)"/>
<path d="M0 0 C1.32 0 2.64 0 4 0 C3.67 1.65 3.34 3.3 3 5 C2.01 5 1.02 5 0 5 C0 3.35 0 1.7 0 0 Z " fill="#34AEC5" transform="translate(26,59)"/>
<path d="M0 0 C0.99 0 1.98 0 3 0 C2.67 1.98 2.34 3.96 2 6 C1.34 6 0.68 6 0 6 C-0.38218767 4.34385343 -0.71395102 2.67542976 -1 1 C-0.67 0.67 -0.34 0.34 0 0 Z " fill="#3FD7D6" transform="translate(120,100)"/>
<path d="M0 0 C0 0.99 0 1.98 0 3 C0.3062434 4.33981486 0.63451555 5.67511887 1 7 C-0.32 6.34 -1.64 5.68 -3 5 C-3 4.01 -3 3.02 -3 2 C-2.01 1.34 -1.02 0.68 0 0 Z " fill="#E4F4F8" transform="translate(39,92)"/>
</svg>
