<?xml version="1.0" encoding="UTF-8"?>
<svg version="1.1" xmlns="http://www.w3.org/2000/svg" width="150" height="150">
<path d="M0 0 C0 1.98 0 3.96 0 6 C3.40320934 6.67673447 3.40320934 6.67673447 7 7 C7.66 6.34 8.32 5.68 9 5 C9.99 5 10.98 5 12 5 C14.25 7.25 14.25 7.25 16 10 C15.609375 12.171875 15.609375 12.171875 15 14 C15.99902344 14.06058594 16.99804688 14.12117188 18.02734375 14.18359375 C19.96287109 14.30927734 19.96287109 14.30927734 21.9375 14.4375 C23.22527344 14.51871094 24.51304687 14.59992187 25.83984375 14.68359375 C29 15 29 15 30 16 C30.15806531 17.92478813 30.251135 19.8549921 30.31640625 21.78515625 C30.37924805 23.53989258 30.37924805 23.53989258 30.44335938 25.33007812 C30.48267578 26.56177734 30.52199219 27.79347656 30.5625 29.0625 C30.60568359 30.29806641 30.64886719 31.53363281 30.69335938 32.80664062 C30.79984198 35.87097335 30.90185424 38.93539073 31 42 C32.65 42 34.3 42 36 42 C37.125 43.625 37.125 43.625 38 46 C37.125 49.25 37.125 49.25 36 52 C36.66 52 37.32 52 38 52 C37.875 53.875 37.875 53.875 37 56 C35.01276732 56.70381157 33.01222047 57.3711811 31 58 C30.67 58.99 30.34 59.98 30 61 C28.35 61 26.7 61 25 61 C25 60.01 25 59.02 25 58 C22.69 58 20.38 58 18 58 C17.01 55.525 17.01 55.525 16 53 C16.99 52.01 16.99 52.01 18 51 C17.01 48.03 17.01 48.03 16 45 C15.34 45 14.68 45 14 45 C14 51.6 14 58.2 14 65 C16.31 65 18.62 65 21 65 C22 66 22 66 22.11352539 69.96899414 C22.1133662 71.74105607 22.10766785 73.5131226 22.09765625 75.28515625 C22.0962413 76.21597519 22.09482635 77.14679413 22.09336853 78.1058197 C22.08775172 81.09141191 22.0751964 84.07693029 22.0625 87.0625 C22.05748716 89.08137913 22.05292388 91.10025943 22.04882812 93.11914062 C22.03777683 98.07945572 22.02050095 103.03971532 22 108 C24.31 108.66 26.62 109.32 29 110 C28 112 28 112 26.34521484 112.61450195 C21.49200924 113.41225457 16.54404055 113.18590312 11.63769531 113.18530273 C9.63863013 113.18748512 7.63960468 113.20599143 5.640625 113.22460938 C4.36960937 113.22654297 3.09859375 113.22847656 1.7890625 113.23046875 C0.63100098 113.23457764 -0.52706055 113.23868652 -1.72021484 113.24291992 C-5.11310954 112.99162245 -7.83332989 112.21173908 -11 111 C-10.67 110.34 -10.34 109.68 -10 109 C-7.4375 108.375 -7.4375 108.375 -5 108 C-5.67857056 107.99191315 -6.35714111 107.98382629 -7.05627441 107.97549438 C-14.19572947 107.88863335 -21.33493245 107.7891071 -28.47412109 107.68261719 C-31.12938188 107.64363425 -33.7845665 107.60971702 -36.43994141 107.578125 C-74.93926359 107.11445232 -74.93926359 107.11445232 -82 103 C-81.34 101.35 -80.68 99.7 -80 98 C-84.7897321 97.76571687 -84.7897321 97.76571687 -89 100 C-91.0625 98.5625 -91.0625 98.5625 -93 96 C-93.05823431 92.92416977 -92.59222907 90.01264352 -92 87 C-93.32 86.67 -94.64 86.34 -96 86 C-95.67 83.69 -95.34 81.38 -95 79 C-94.21625 79.04125 -93.4325 79.0825 -92.625 79.125 C-89.83883881 79.28728734 -89.83883881 79.28728734 -88 77 C-87.83312552 74.41645782 -87.83312552 74.41645782 -88 72 C-85.64561267 70.57055055 -84.51967567 69.91338739 -81.75 70.375 C-81.1725 70.58125 -80.595 70.7875 -80 71 C-79.67 69.02 -79.34 67.04 -79 65 C-85.27 65 -91.54 65 -98 65 C-98 64.34 -98 63.68 -98 63 C-95.03 62.505 -95.03 62.505 -92 62 C-92 61.01 -92 60.02 -92 59 C-93.98 59 -95.96 59 -98 59 C-98 58.34 -98 57.68 -98 57 C-96.02 57 -94.04 57 -92 57 C-92 55.68 -92 54.36 -92 53 C-93.98 53 -95.96 53 -98 53 C-98 52.34 -98 51.68 -98 51 C-96.02 51 -94.04 51 -92 51 C-92 49.68 -92 48.36 -92 47 C-93.98 47 -95.96 47 -98 47 C-98 46.34 -98 45.68 -98 45 C-96.02 45 -94.04 45 -92 45 C-92 44.01 -92 43.02 -92 42 C-93.98 41.67 -95.96 41.34 -98 41 C-98 40.67 -98 40.34 -98 40 C-91.73 40 -85.46 40 -79 40 C-79 38.35 -79 36.7 -79 35 C-85.27 35 -91.54 35 -98 35 C-98 34.67 -98 34.34 -98 34 C-95.525 33.505 -95.525 33.505 -93 33 C-92.67 31.68 -92.34 30.36 -92 29 C-93.98 29 -95.96 29 -98 29 C-98 28.67 -98 28.34 -98 28 C-96.35 27.67 -94.7 27.34 -93 27 C-92.67 25.68 -92.34 24.36 -92 23 C-93.98 23 -95.96 23 -98 23 C-98 22.67 -98 22.34 -98 22 C-96.35 21.67 -94.7 21.34 -93 21 C-92.67 19.68 -92.34 18.36 -92 17 C-93.98 17 -95.96 17 -98 17 C-98 16.67 -98 16.34 -98 16 C-92.11060037 13.95887931 -86.8280285 13.72721958 -80.625 13.8125 C-79.25408203 13.8134668 -79.25408203 13.8134668 -77.85546875 13.81445312 C-71.14064837 13.85935163 -71.14064837 13.85935163 -70 15 C-67.19023482 15.16017166 -64.40226404 15.25950534 -61.58984375 15.31640625 C-60.74780899 15.33718735 -59.90577423 15.35796844 -59.03822327 15.37937927 C-56.33806821 15.44496812 -53.63781283 15.50380276 -50.9375 15.5625 C-49.11131759 15.60567637 -47.28514546 15.64929036 -45.45898438 15.69335938 C-40.97276008 15.80065894 -36.4864345 15.90189966 -32 16 C-32 16.33 -32 16.66 -32 17 C-44.87 17 -57.74 17 -71 17 C-70.67 18.32 -70.34 19.64 -70 21 C-57.46 21.33 -44.92 21.66 -32 22 C-32 22.33 -32 22.66 -32 23 C-44.87 23 -57.74 23 -71 23 C-70.67 24.32 -70.34 25.64 -70 27 C-52.84 26.67 -35.68 26.34 -18 26 C-18 23.69 -18 21.38 -18 19 C-19.65 18.67 -21.3 18.34 -23 18 C-22.01 15.03 -21.02 12.06 -20 9 C-18.906875 9.226875 -17.81375 9.45375 -16.6875 9.6875 C-13.17383651 10.32767007 -13.17383651 10.32767007 -11.0625 8.9375 C-9.58206055 6.23787512 -9.79838001 4.02429981 -10 1 C-6.56484998 0.37542727 -3.50935186 0 0 0 Z M-9 14 C-11.2084626 17.31269391 -11.80664241 19.14978851 -11.5546875 23.0625 C-10.4812192 26.81207941 -8.28696911 28.01541488 -5 30 C-2.36163023 30.1672392 -2.36163023 30.1672392 0 30 C0.03738281 29.01257813 0.07476562 28.02515625 0.11328125 27.0078125 C0.17902344 25.72648437 0.24476562 24.44515625 0.3125 23.125 C0.37050781 21.84882812 0.42851563 20.57265625 0.48828125 19.2578125 C0.65714844 18.18273437 0.82601562 17.10765625 1 16 C1.99 15.34 2.98 14.68 4 14 C2.01607489 11.60148679 2.01607489 11.60148679 -1.8125 11.5625 C-5.17733329 11.66669338 -6.04370031 12.02913354 -9 14 Z M-71 29 C-71 29.66 -71 30.32 -71 31 C-68.69 31 -66.38 31 -64 31 C-64 30.34 -64 29.68 -64 29 C-66.31 29 -68.62 29 -71 29 Z M22 47 C21.6366844 49.83386167 21.6431329 51.40522151 23.125 53.875 C25.92151052 55.55290631 27.93690532 54.74875648 31 54 C31.67673447 50.59679066 31.67673447 50.59679066 32 47 C30.11499729 44.68436913 30.11499729 44.68436913 27 44.75 C23.88500271 44.68436913 23.88500271 44.68436913 22 47 Z M-85.25 80.625 C-87.21985834 82.92308586 -87.21985834 82.92308586 -87.5 86 C-87.21376982 89.06575838 -87.21376982 89.06575838 -85.3125 91.375 C-82.61209763 93.27258004 -81.22939919 93.35882213 -78 93 C-77.85024761 85.94348748 -77.85024761 85.94348748 -79 79 C-82.92212225 78.60967296 -82.92212225 78.60967296 -85.25 80.625 Z M-73 95 C-72.67 96.65 -72.34 98.3 -72 100 C-58.635 99.01 -58.635 99.01 -45 98 C-44.67 97.01 -44.34 96.02 -44 95 C-53.57 95 -63.14 95 -73 95 Z M-20 95 C-20 95.99 -20 96.98 -20 98 C-14.72 98.33 -9.44 98.66 -4 99 C-4 97.68 -4 96.36 -4 95 C-9.28 95 -14.56 95 -20 95 Z " fill="#5D51FC" transform="translate(105,18)"/>
<path d="M0 0 C2.31 0 4.62 0 7 0 C7 2.97 7 5.94 7 9 C10.3 9 13.6 9 17 9 C17 15.6 17 22.2 17 29 C12.71 29 8.42 29 4 29 C4.495 34.94 4.495 34.94 5 41 C8.92499942 42.30833314 12.50165021 41.89459999 16.5625 41.625 C17.34302734 41.58117187 18.12355469 41.53734375 18.92773438 41.4921875 C23.09793969 41.31531776 23.09793969 41.31531776 27 40 C29.19629783 43.54143525 29.23275752 46.39667247 29.1953125 50.515625 C29.18886719 51.76601562 29.18242188 53.01640625 29.17578125 54.3046875 C29.15064453 56.25761719 29.15064453 56.25761719 29.125 58.25 C29.11597656 59.56742188 29.10695313 60.88484375 29.09765625 62.2421875 C29.07408533 65.49497462 29.04118022 68.74739589 29 72 C31.31 72.66 33.62 73.32 36 74 C35 76 35 76 33.34521484 76.61450195 C28.49200924 77.41225457 23.54404055 77.18590312 18.63769531 77.18530273 C16.63863013 77.18748512 14.63960468 77.20599143 12.640625 77.22460938 C11.36960937 77.22654297 10.09859375 77.22847656 8.7890625 77.23046875 C7.63100098 77.23457764 6.47293945 77.23868652 5.27978516 77.24291992 C1.88689046 76.99162245 -0.83332989 76.21173908 -4 75 C-3.67 74.34 -3.34 73.68 -3 73 C-0.4375 72.375 -0.4375 72.375 2 72 C1.32142944 71.99191315 0.64285889 71.98382629 -0.05627441 71.97549438 C-7.19572947 71.88863335 -14.33493245 71.7891071 -21.47412109 71.68261719 C-24.12938188 71.64363425 -26.7845665 71.60971702 -29.43994141 71.578125 C-67.93926359 71.11445232 -67.93926359 71.11445232 -75 67 C-74.34 65.35 -73.68 63.7 -73 62 C-77.7897321 61.76571687 -77.7897321 61.76571687 -82 64 C-84.0625 62.5625 -84.0625 62.5625 -86 60 C-86.05823431 56.92416977 -85.59222907 54.01264352 -85 51 C-86.32 50.67 -87.64 50.34 -89 50 C-88.67 47.69 -88.34 45.38 -88 43 C-87.21625 43.04125 -86.4325 43.0825 -85.625 43.125 C-82.83883881 43.28728734 -82.83883881 43.28728734 -81 41 C-80.83312552 38.41645782 -80.83312552 38.41645782 -81 36 C-78.64561267 34.57055055 -77.51967567 33.91338739 -74.75 34.375 C-74.1725 34.58125 -73.595 34.7875 -73 35 C-72.67 37.64 -72.34 40.28 -72 43 C-72.969375 43.28875 -73.93875 43.5775 -74.9375 43.875 C-78.10664203 44.64214682 -78.10664203 44.64214682 -79 47 C-79.40270732 51.1283652 -79.40270732 51.1283652 -77.8125 54.8125 C-75.57968261 56.27538036 -73.62655933 56.64505955 -71 57 C-71 54.03 -71 51.06 -71 48 C-69.02 48 -67.04 48 -65 48 C-64.67 48.66 -64.34 49.32 -64 50 C-55.75 50 -47.5 50 -39 50 C-38.505 49.01 -38.505 49.01 -38 48 C-24.47 48 -10.94 48 3 48 C3 46.35 3 44.7 3 43 C1.73293213 43 0.46586426 43 -0.83959961 43 C-13.89306641 43 -26.9465332 43 -40 43 C-42.00109278 43.32670903 -44.00116131 43.65977214 -46 44 C-46 44.66 -46 45.32 -46 46 C-46.66 46 -47.32 46 -48 46 C-48 45.01 -48 44.02 -48 43 C-48.99 43 -49.98 43 -51 43 C-51.33 44.65 -51.66 46.3 -52 48 C-52.66 48 -53.32 48 -54 48 C-54 47.34 -54 46.68 -54 46 C-54.598125 45.9175 -55.19625 45.835 -55.8125 45.75 C-58.5966296 44.79544128 -59.43311142 43.42867729 -61 41 C-59.92456217 40.01216806 -58.83926783 39.03506057 -57.75 38.0625 C-57.14671875 37.51722656 -56.5434375 36.97195312 -55.921875 36.41015625 C-53.88322048 34.91431422 -52.43585601 34.54076003 -50 34 C-49.01 33.34 -48.02 32.68 -47 32 C-44.40625 31.5859375 -44.40625 31.5859375 -41.5 31.375 C-40.5409375 31.30023438 -39.581875 31.22546875 -38.59375 31.1484375 C-36.73155727 31.04186623 -34.86523972 31 -33 31 C-32.67 29.68 -32.34 28.36 -32 27 C-31.09644775 26.97494385 -30.19289551 26.9498877 -29.26196289 26.92407227 C-25.9203572 26.82912683 -22.57893748 26.72988379 -19.23754883 26.62768555 C-17.7893576 26.5842837 -16.34111346 26.54261256 -14.89282227 26.50268555 C-12.81510441 26.44510938 -10.73765427 26.38137972 -8.66015625 26.31640625 C-7.40855713 26.27974854 -6.15695801 26.24309082 -4.86743164 26.20532227 C-2.10369496 26.32196094 -2.10369496 26.32196094 -1 25 C-0.84213692 23.14825294 -0.74892644 21.2909089 -0.68359375 19.43359375 C-0.64169922 18.30888672 -0.59980469 17.18417969 -0.55664062 16.02539062 C-0.51732422 14.84138672 -0.47800781 13.65738281 -0.4375 12.4375 C-0.37272461 10.65569336 -0.37272461 10.65569336 -0.30664062 8.83789062 C-0.20016454 5.89205216 -0.09815159 2.9461257 0 0 Z M-66 59 C-65.67 60.65 -65.34 62.3 -65 64 C-51.635 63.01 -51.635 63.01 -38 62 C-37.67 61.01 -37.34 60.02 -37 59 C-46.57 59 -56.14 59 -66 59 Z M-13 59 C-13 59.99 -13 60.98 -13 62 C-7.72 62.33 -2.44 62.66 3 63 C3 61.68 3 60.36 3 59 C-2.28 59 -7.56 59 -13 59 Z " fill="#7286FD" transform="translate(98,54)"/>
<path d="M0 0 C0.33 2.64 0.66 5.28 1 8 C0.030625 8.28875 -0.93875 8.5775 -1.9375 8.875 C-5.10664203 9.64214682 -5.10664203 9.64214682 -6 12 C-6.40270732 16.1283652 -6.40270732 16.1283652 -4.8125 19.8125 C-2.57968261 21.27538036 -0.62655933 21.64505955 2 22 C2 19.03 2 16.06 2 13 C3.98 13 5.96 13 8 13 C8.33 13.66 8.66 14.32 9 15 C17.25 15 25.5 15 34 15 C34.33 14.34 34.66 13.68 35 13 C48.53 13 62.06 13 76 13 C76 16.63 76 20.26 76 24 C70.72 24 65.44 24 60 24 C60 24.99 60 25.98 60 27 C60.56847656 26.98839844 61.13695313 26.97679688 61.72265625 26.96484375 C66.60670484 26.90776806 71.18503965 27.18043228 76 28 C76 30.64 76 33.28 76 36 C68.71409984 36.04682155 61.42823335 36.08211748 54.14221191 36.10362434 C50.75718789 36.11395864 47.37226851 36.12792229 43.98730469 36.15087891 C5.5625541 36.39227608 5.5625541 36.39227608 -2 32 C-1.34 30.35 -0.68 28.7 0 27 C-4.7897321 26.76571687 -4.7897321 26.76571687 -9 29 C-11.0625 27.5625 -11.0625 27.5625 -13 25 C-13.05823431 21.92416977 -12.59222907 19.01264352 -12 16 C-13.32 15.67 -14.64 15.34 -16 15 C-15.67 12.69 -15.34 10.38 -15 8 C-14.21625 8.04125 -13.4325 8.0825 -12.625 8.125 C-9.83883881 8.28728734 -9.83883881 8.28728734 -8 6 C-7.83312552 3.41645782 -7.83312552 3.41645782 -8 1 C-4.93251126 -0.86240388 -3.40254489 -1.2151946 0 0 Z M7 24 C7.33 25.65 7.66 27.3 8 29 C21.365 28.01 21.365 28.01 35 27 C35.33 26.01 35.66 25.02 36 24 C26.43 24 16.86 24 7 24 Z " fill="#B4D1FE" transform="translate(25,89)"/>
<path d="M0 0 C16.83 0 33.66 0 51 0 C51 10.23 51 20.46 51 31 C34.17 31 17.34 31 0 31 C0 20.77 0 10.54 0 0 Z " fill="#474E94" transform="translate(44,47)"/>
<path d="M0 0 C0 1.98 0 3.96 0 6 C3.40320934 6.67673447 3.40320934 6.67673447 7 7 C7.66 6.34 8.32 5.68 9 5 C9.99 5 10.98 5 12 5 C14.25 7.25 14.25 7.25 16 10 C15.609375 12.171875 15.609375 12.171875 15 14 C15.99902344 14.06058594 16.99804688 14.12117188 18.02734375 14.18359375 C19.31769531 14.26738281 20.60804687 14.35117187 21.9375 14.4375 C23.86916016 14.55931641 23.86916016 14.55931641 25.83984375 14.68359375 C29 15 29 15 30 16 C30.15806531 17.92478813 30.251135 19.8549921 30.31640625 21.78515625 C30.35830078 22.95498047 30.40019531 24.12480469 30.44335938 25.33007812 C30.48267578 26.56177734 30.52199219 27.79347656 30.5625 29.0625 C30.60568359 30.29806641 30.64886719 31.53363281 30.69335938 32.80664062 C30.79984198 35.87097335 30.90185424 38.93539073 31 42 C32.65 42 34.3 42 36 42 C37.125 43.625 37.125 43.625 38 46 C37.125 49.25 37.125 49.25 36 52 C36.66 52 37.32 52 38 52 C37.875 53.875 37.875 53.875 37 56 C35.01276732 56.70381157 33.01222047 57.3711811 31 58 C30.67 58.99 30.34 59.98 30 61 C28.35 61 26.7 61 25 61 C25 60.01 25 59.02 25 58 C22.69 58 20.38 58 18 58 C17.34 56.35 16.68 54.7 16 53 C16.66 52.34 17.32 51.68 18 51 C17.34 49.02 16.68 47.04 16 45 C15.34 45 14.68 45 14 45 C13.690625 43.88625 13.38125 42.7725 13.0625 41.625 C12.17673517 38.2054845 12.17673517 38.2054845 11 36 C11.66 36 12.32 36 13 36 C13 34.68 13 33.36 13 32 C6.4 31.67 -0.2 31.34 -7 31 C-7 30.34 -7 29.68 -7 29 C-4.69 29.33 -2.38 29.66 0 30 C-0.05220703 28.51886719 -0.05220703 28.51886719 -0.10546875 27.0078125 C-0.13253906 25.72648437 -0.15960938 24.44515625 -0.1875 23.125 C-0.23970703 21.21074219 -0.23970703 21.21074219 -0.29296875 19.2578125 C-0.19628906 18.18273437 -0.09960938 17.10765625 0 16 C0.99 15.34 1.98 14.68 3 14 C1.78410016 12.56844101 1.78410016 12.56844101 -1.8125 12.6875 C-4.78617685 12.74622611 -5.87751147 12.92650688 -8.5 14.5 C-10.71177972 18.18629954 -10.34421275 20.73176192 -10 25 C-9.67 25.66 -9.34 26.32 -9 27 C-11.97 27 -14.94 27 -18 27 C-18 24.36 -18 21.72 -18 19 C-19.65 18.67 -21.3 18.34 -23 18 C-22.01 15.03 -21.02 12.06 -20 9 C-18.906875 9.226875 -17.81375 9.45375 -16.6875 9.6875 C-13.17383651 10.32767007 -13.17383651 10.32767007 -11.0625 8.9375 C-9.58206055 6.23787512 -9.79838001 4.02429981 -10 1 C-6.56484998 0.37542727 -3.50935186 0 0 0 Z M22 47 C21.6366844 49.83386167 21.6431329 51.40522151 23.125 53.875 C25.92151052 55.55290631 27.93690532 54.74875648 31 54 C31.67673447 50.59679066 31.67673447 50.59679066 32 47 C30.11499729 44.68436913 30.11499729 44.68436913 27 44.75 C23.88500271 44.68436913 23.88500271 44.68436913 22 47 Z " fill="#35DCC6" transform="translate(105,18)"/>
<path d="M0 0 C7.92 0 15.84 0 24 0 C24.495 1.98 24.495 1.98 25 4 C26.27617188 3.98839844 27.55234375 3.97679687 28.8671875 3.96484375 C30.53645687 3.95546583 32.20572783 3.94636563 33.875 3.9375 C35.13763672 3.92493164 35.13763672 3.92493164 36.42578125 3.91210938 C37.23144531 3.90888672 38.03710938 3.90566406 38.8671875 3.90234375 C39.98262939 3.89448853 39.98262939 3.89448853 41.12060547 3.88647461 C43 4 43 4 45 5 C44.79375 5.78375 44.5875 6.5675 44.375 7.375 C44.189375 8.674375 44.189375 8.674375 44 10 C44.99 10.99 44.99 10.99 46 12 C46.22705078 14.61376953 46.22705078 14.61376953 46.1953125 17.8828125 C46.18886719 19.04941406 46.18242188 20.21601562 46.17578125 21.41796875 C46.15064453 23.25294922 46.15064453 23.25294922 46.125 25.125 C46.11597656 26.35605469 46.10695313 27.58710937 46.09765625 28.85546875 C46.07402548 31.90383815 46.04108054 34.95182382 46 38 C47.7015625 37.9690625 47.7015625 37.9690625 49.4375 37.9375 C53 38 53 38 54 39 C54.07271741 41.35313555 54.08370868 43.70833668 54.0625 46.0625 C54.05347656 47.35285156 54.04445313 48.64320312 54.03515625 49.97265625 C54.02355469 50.97167969 54.01195313 51.97070312 54 53 C53.01 52.01 52.02 51.02 51 50 C50.67 50.33 50.34 50.66 50 51 C47.03705877 51.23856684 44.09281168 51.42302657 41.125 51.5625 C40.29613281 51.60568359 39.46726562 51.64886719 38.61328125 51.69335938 C35.40321978 51.85671468 32.21488548 52 29 52 C28.80543295 50.04235617 28.61955753 48.08384679 28.4375 46.125 C28.28087891 44.48917969 28.28087891 44.48917969 28.12109375 42.8203125 C28 40 28 40 29 38 C33.29 38 37.58 38 42 38 C42 31.4 42 24.8 42 18 C38.7 18 35.4 18 32 18 C32 15.03 32 12.06 32 9 C29.69 9 27.38 9 25 9 C25.01571045 10.12027588 25.01571045 10.12027588 25.03173828 11.26318359 C25.0732077 14.63375508 25.09929729 18.004273 25.125 21.375 C25.14175781 22.550625 25.15851563 23.72625 25.17578125 24.9375 C25.18544922 26.61972656 25.18544922 26.61972656 25.1953125 28.3359375 C25.21102295 29.89127197 25.21102295 29.89127197 25.22705078 31.47802734 C25 34 25 34 23 36 C20.76086426 36.25396729 20.76086426 36.25396729 17.93945312 36.25878906 C16.35771301 36.26824554 16.35771301 36.26824554 14.74401855 36.27789307 C13.60130493 36.2738446 12.45859131 36.26979614 11.28125 36.265625 C9.52802429 36.26849518 9.52802429 36.26849518 7.73937988 36.27142334 C5.26456487 36.27278626 2.78974274 36.26908241 0.31494141 36.26074219 C-3.48421205 36.25004446 -7.28289259 36.26063418 -11.08203125 36.2734375 C-13.48177188 36.27211592 -15.88151222 36.26955357 -18.28125 36.265625 C-19.99532043 36.27169769 -19.99532043 36.27169769 -21.74401855 36.27789307 C-22.79851196 36.27158875 -23.85300537 36.26528442 -24.93945312 36.25878906 C-25.8705188 36.25719788 -26.80158447 36.25560669 -27.76086426 36.25396729 C-30 36 -30 36 -32 34 C-32.22705078 31.01904297 -32.22705078 31.01904297 -32.1953125 27.2421875 C-32.1924826 26.57913605 -32.18965271 25.91608459 -32.18673706 25.23294067 C-32.17553435 23.11344417 -32.15043051 20.99436896 -32.125 18.875 C-32.11497028 17.43880818 -32.10584441 16.00260975 -32.09765625 14.56640625 C-32.075595 11.04413372 -32.04106494 7.52210797 -32 4 C-31.01 4 -30.02 4 -29 4 C-29 13.57 -29 23.14 -29 33 C-12.17 33 4.66 33 22 33 C22 22.77 22 12.54 22 2 C14.74 2 7.48 2 0 2 C0 1.34 0 0.68 0 0 Z " fill="#37D3C9" transform="translate(73,45)"/>
<path d="M0 0 C0.33 0 0.66 0 1 0 C1.33 2.97 1.66 5.94 2 9 C5.92499942 10.30833314 9.50165021 9.89459999 13.5625 9.625 C14.34302734 9.58117187 15.12355469 9.53734375 15.92773438 9.4921875 C20.09793969 9.31531776 20.09793969 9.31531776 24 8 C26.19629783 11.54143525 26.23275752 14.39667247 26.1953125 18.515625 C26.18886719 19.76601562 26.18242188 21.01640625 26.17578125 22.3046875 C26.15902344 23.60664062 26.14226562 24.90859375 26.125 26.25 C26.11597656 27.56742188 26.10695312 28.88484375 26.09765625 30.2421875 C26.07408533 33.49497462 26.04118022 36.74739589 26 40 C28.31 40.66 30.62 41.32 33 42 C32 44 32 44 30.34521484 44.61450195 C25.49200924 45.41225457 20.54404055 45.18590312 15.63769531 45.18530273 C13.63863013 45.18748512 11.63960468 45.20599143 9.640625 45.22460938 C8.36960937 45.22654297 7.09859375 45.22847656 5.7890625 45.23046875 C4.63100098 45.23457764 3.47293945 45.23868652 2.27978516 45.24291992 C-1.11310954 44.99162245 -3.83332989 44.21173908 -7 43 C-6 41 -6 41 0 39 C0 26.13 0 13.26 0 0 Z " fill="#5E52E7" transform="translate(101,86)"/>
<path d="M0 0 C0.33 2.64 0.66 5.28 1 8 C0.030625 8.28875 -0.93875 8.5775 -1.9375 8.875 C-5.10664203 9.64214682 -5.10664203 9.64214682 -6 12 C-6.45565588 16.050918 -6.45565588 16.050918 -4.80859375 19.5859375 C-2.56396384 21.34091812 -0.55436719 21.93971804 2.1875 22.6875 C3.08855469 22.93886719 3.98960938 23.19023438 4.91796875 23.44921875 C5.60503906 23.63097656 6.29210937 23.81273438 7 24 C7.33 25.65 7.66 27.3 8 29 C8.99 28.67 9.98 28.34 11 28 C12.84466442 27.85110253 14.69357275 27.7520899 16.54296875 27.68359375 C17.61611328 27.64169922 18.68925781 27.59980469 19.79492188 27.55664062 C21.47424805 27.49766602 21.47424805 27.49766602 23.1875 27.4375 C24.31865234 27.39431641 25.44980469 27.35113281 26.61523438 27.30664062 C29.41003354 27.20050901 32.20492162 27.09845615 35 27 C34.67 27.66 34.34 28.32 34 29 C31.66666667 29.33333333 29.33333333 29.66666667 27 30 C26.67 30.66 26.34 31.32 26 32 C40.19 32 54.38 32 69 32 C68.67 31.34 68.34 30.68 68 30 C66.10466658 29.53476937 66.10466658 29.53476937 63.9375 29.375 C62.638125 29.25125 61.33875 29.1275 60 29 C60 28.34 60 27.68 60 27 C65.45769811 26.88861841 70.61509359 27.08342019 76 28 C76 30.64 76 33.28 76 36 C68.71409984 36.04682155 61.42823335 36.08211748 54.14221191 36.10362434 C50.75718789 36.11395864 47.37226851 36.12792229 43.98730469 36.15087891 C5.5625541 36.39227608 5.5625541 36.39227608 -2 32 C-1.34 30.35 -0.68 28.7 0 27 C-4.7897321 26.76571687 -4.7897321 26.76571687 -9 29 C-11.0625 27.5625 -11.0625 27.5625 -13 25 C-13.05823431 21.92416977 -12.59222907 19.01264352 -12 16 C-13.32 15.67 -14.64 15.34 -16 15 C-15.67 12.69 -15.34 10.38 -15 8 C-14.21625 8.04125 -13.4325 8.0825 -12.625 8.125 C-9.83883881 8.28728734 -9.83883881 8.28728734 -8 6 C-7.83312552 3.41645782 -7.83312552 3.41645782 -8 1 C-4.93251126 -0.86240388 -3.40254489 -1.2151946 0 0 Z " fill="#EAEBF2" transform="translate(25,89)"/>
<path d="M0 0 C1.37091797 0.0009668 1.37091797 0.0009668 2.76953125 0.00195312 C9.48435163 0.04685163 9.48435163 0.04685163 10.625 1.1875 C13.43476518 1.34767166 16.22273596 1.44700534 19.03515625 1.50390625 C19.87719101 1.52468735 20.71922577 1.54546844 21.58677673 1.56687927 C24.28693179 1.63246812 26.98718717 1.69130276 29.6875 1.75 C31.51368241 1.79317637 33.33985454 1.83679036 35.16601562 1.88085938 C39.65223992 1.98815894 44.1385655 2.08939966 48.625 2.1875 C48.625 2.5175 48.625 2.8475 48.625 3.1875 C35.755 3.1875 22.885 3.1875 9.625 3.1875 C9.955 4.5075 10.285 5.8275 10.625 7.1875 C23.165 7.5175 35.705 7.8475 48.625 8.1875 C48.625 8.5175 48.625 8.8475 48.625 9.1875 C35.755 9.1875 22.885 9.1875 9.625 9.1875 C9.955 10.5075 10.285 11.8275 10.625 13.1875 C23.165 13.1875 35.705 13.1875 48.625 13.1875 C48.625 13.8475 48.625 14.5075 48.625 15.1875 C39.055 15.1875 29.485 15.1875 19.625 15.1875 C19.625 15.8475 19.625 16.5075 19.625 17.1875 C18.635 17.1875 17.645 17.1875 16.625 17.1875 C16.625 16.5275 16.625 15.8675 16.625 15.1875 C14.315 15.1875 12.005 15.1875 9.625 15.1875 C9.625 17.1675 9.625 19.1475 9.625 21.1875 C0.715 21.1875 -8.195 21.1875 -17.375 21.1875 C-17.375 20.8575 -17.375 20.5275 -17.375 20.1875 C-15.725 19.8575 -14.075 19.5275 -12.375 19.1875 C-12.045 17.8675 -11.715 16.5475 -11.375 15.1875 C-13.355 15.1875 -15.335 15.1875 -17.375 15.1875 C-17.375 14.8575 -17.375 14.5275 -17.375 14.1875 C-15.725 13.8575 -14.075 13.5275 -12.375 13.1875 C-12.045 11.8675 -11.715 10.5475 -11.375 9.1875 C-13.355 9.1875 -15.335 9.1875 -17.375 9.1875 C-17.375 8.8575 -17.375 8.5275 -17.375 8.1875 C-15.725 7.8575 -14.075 7.5275 -12.375 7.1875 C-12.045 5.8675 -11.715 4.5475 -11.375 3.1875 C-13.355 3.1875 -15.335 3.1875 -17.375 3.1875 C-17.375 2.8575 -17.375 2.5275 -17.375 2.1875 C-11.48560037 0.14637931 -6.2030285 -0.08528042 0 0 Z " fill="#A0E4E0" transform="translate(24.375,31.8125)"/>
<path d="M0 0 C8.58 0 17.16 0 26 0 C25 3 25 3 23 4 C20.3276379 4.13415472 17.67749512 4.04318541 15 4 C15 6.31 15 8.62 15 11 C17.475 11.495 17.475 11.495 20 12 C18.84423828 13.97558594 18.84423828 13.97558594 17 16 C14.47216797 16.45410156 14.47216797 16.45410156 11.4921875 16.390625 C9.88923828 16.37128906 9.88923828 16.37128906 8.25390625 16.3515625 C7.13886719 16.31804687 6.02382812 16.28453125 4.875 16.25 C3.19083984 16.22292969 3.19083984 16.22292969 1.47265625 16.1953125 C-1.35234034 16.1474891 -4.17574265 16.07900871 -7 16 C-9.33859436 16 -11.70030423 16.60856242 -14 17 C-14 17.66 -14 18.32 -14 19 C-14.66 19 -15.32 19 -16 19 C-16 18.01 -16 17.02 -16 16 C-16.99 16 -17.98 16 -19 16 C-19.33 17.65 -19.66 19.3 -20 21 C-20.66 21 -21.32 21 -22 21 C-22 20.34 -22 19.68 -22 19 C-22.598125 18.9175 -23.19625 18.835 -23.8125 18.75 C-26.5966296 17.79544128 -27.43311142 16.42867729 -29 14 C-27.92456217 13.01216806 -26.83926783 12.03506057 -25.75 11.0625 C-25.14671875 10.51722656 -24.5434375 9.97195312 -23.921875 9.41015625 C-21.88322048 7.91431422 -20.43585601 7.54076003 -18 7 C-17.01 6.34 -16.02 5.68 -15 5 C-12.40625 4.5859375 -12.40625 4.5859375 -9.5 4.375 C-8.5409375 4.30023438 -7.581875 4.22546875 -6.59375 4.1484375 C-4.73155727 4.04186623 -2.86523972 4 -1 4 C-0.67 2.68 -0.34 1.36 0 0 Z " fill="#6D76FE" transform="translate(66,81)"/>
<path d="M0 0 C1.58206057 0.00667536 3.16410534 0.0186375 4.74609375 0.03515625 C5.55240234 0.03966797 6.35871094 0.04417969 7.18945312 0.04882812 C9.18753131 0.06065107 11.18557158 0.07858711 13.18359375 0.09765625 C10.68511771 2.83408239 8.75997258 3.81947175 5.05859375 4.47265625 C4.13046875 4.78203125 4.13046875 4.78203125 3.18359375 5.09765625 C2.85359375 6.08765625 2.52359375 7.07765625 2.18359375 8.09765625 C1.52359375 8.75765625 0.86359375 9.41765625 0.18359375 10.09765625 C2.2359306 12.34545375 3.19026636 13.09988045 6.18359375 14.09765625 C6.18359375 14.75765625 6.18359375 15.41765625 6.18359375 16.09765625 C6.84359375 16.09765625 7.50359375 16.09765625 8.18359375 16.09765625 C8.51359375 14.44765625 8.84359375 12.79765625 9.18359375 11.09765625 C10.17359375 11.09765625 11.16359375 11.09765625 12.18359375 11.09765625 C12.18359375 12.08765625 12.18359375 13.07765625 12.18359375 14.09765625 C12.84359375 14.09765625 13.50359375 14.09765625 14.18359375 14.09765625 C14.18359375 13.43765625 14.18359375 12.77765625 14.18359375 12.09765625 C15.35921875 11.66453125 15.35921875 11.66453125 16.55859375 11.22265625 C19.28031007 10.24853371 19.28031007 10.24853371 21.18359375 8.09765625 C21.18359375 9.08765625 21.18359375 10.07765625 21.18359375 11.09765625 C35.04359375 11.09765625 48.90359375 11.09765625 63.18359375 11.09765625 C63.18359375 12.74765625 63.18359375 14.39765625 63.18359375 16.09765625 C49.65359375 16.09765625 36.12359375 16.09765625 22.18359375 16.09765625 C21.85359375 17.08765625 21.52359375 18.07765625 21.18359375 19.09765625 C17.03777488 19.12652376 12.89198159 19.14440952 8.74609375 19.16015625 C6.97008789 19.17272461 6.97008789 19.17272461 5.15820312 19.18554688 C4.03349609 19.18876953 2.90878906 19.19199219 1.75 19.1953125 C0.1868103 19.20316772 0.1868103 19.20316772 -1.40795898 19.21118164 C-3.81640625 19.09765625 -3.81640625 19.09765625 -4.81640625 18.09765625 C-4.916276 15.25430577 -4.95518506 12.44068462 -4.94140625 9.59765625 C-4.94527344 8.79972656 -4.94914062 8.00179687 -4.953125 7.1796875 C-4.94115004 0.1264368 -4.94115004 0.1264368 0 0 Z " fill="#43AAE5" transform="translate(37.81640625,85.90234375)"/>
<path d="M0 0 C3.0000624 -0.02721831 5.99987256 -0.04694378 9 -0.0625 C9.83917969 -0.07087891 10.67835937 -0.07925781 11.54296875 -0.08789062 C12.79013672 -0.09272461 12.79013672 -0.09272461 14.0625 -0.09765625 C15.19365234 -0.10551147 15.19365234 -0.10551147 16.34765625 -0.11352539 C19.91451913 0.03914317 23.45744034 0.55718004 27 1 C27 7.93 27 14.86 27 22 C20.07 22 13.14 22 6 22 C6 21.01 6 20.02 6 19 C4.02 19 2.04 19 0 19 C0 18.34 0 17.68 0 17 C1.98 17 3.96 17 6 17 C6 15.68 6 14.36 6 13 C4.02 13 2.04 13 0 13 C0 12.34 0 11.68 0 11 C1.98 11 3.96 11 6 11 C6 9.68 6 8.36 6 7 C4.02 7 2.04 7 0 7 C0 6.34 0 5.68 0 5 C1.98 5 3.96 5 6 5 C6 4.01 6 3.02 6 2 C3.03 1.505 3.03 1.505 0 1 C0 0.67 0 0.34 0 0 Z " fill="#34D7CC" transform="translate(7,58)"/>
<path d="M0 0 C1.32 0 2.64 0 4 0 C4 6.6 4 13.2 4 20 C6.31 20 8.62 20 11 20 C12 21 12 21 12.09765625 24.16015625 C12.08605469 25.44792969 12.07445313 26.73570313 12.0625 28.0625 C12.05347656 29.35285156 12.04445313 30.64320312 12.03515625 31.97265625 C12.02355469 32.97167969 12.01195313 33.97070312 12 35 C11.01 34.01 10.02 33.02 9 32 C8.67 32.33 8.34 32.66 8 33 C5.03705877 33.23856684 2.09281168 33.42302657 -0.875 33.5625 C-1.70386719 33.60568359 -2.53273438 33.64886719 -3.38671875 33.69335938 C-6.59678022 33.85671468 -9.78511452 34 -13 34 C-13.19456705 32.04235617 -13.38044247 30.08384679 -13.5625 28.125 C-13.71912109 26.48917969 -13.71912109 26.48917969 -13.87890625 24.8203125 C-14 22 -14 22 -13 20 C-8.71 20 -4.42 20 0 20 C0 13.4 0 6.8 0 0 Z " fill="#5E49FC" transform="translate(115,63)"/>
<path d="M0 0 C0 1.98 0 3.96 0 6 C3.40320934 6.67673447 3.40320934 6.67673447 7 7 C7.66 6.34 8.32 5.68 9 5 C9.99 5 10.98 5 12 5 C14.25 7.25 14.25 7.25 16 10 C15.875 12.25 15.875 12.25 15 14 C12.64653604 15.17673198 11.1193967 15.16623866 8.5 15.1875 C7.7059375 15.20167969 6.911875 15.21585938 6.09375 15.23046875 C4 15 4 15 2 13 C-3.54235245 12.42765564 -3.54235245 12.42765564 -8.5 14.5 C-10.71177972 18.18629954 -10.34421275 20.73176192 -10 25 C-9.67 25.66 -9.34 26.32 -9 27 C-11.97 27 -14.94 27 -18 27 C-18 24.36 -18 21.72 -18 19 C-19.65 18.67 -21.3 18.34 -23 18 C-22.01 15.03 -21.02 12.06 -20 9 C-18.906875 9.226875 -17.81375 9.45375 -16.6875 9.6875 C-13.17383651 10.32767007 -13.17383651 10.32767007 -11.0625 8.9375 C-9.58206055 6.23787512 -9.79838001 4.02429981 -10 1 C-6.56484998 0.37542727 -3.50935186 0 0 0 Z " fill="#E8EAF1" transform="translate(105,18)"/>
<path d="M0 0 C1.98 0 3.96 0 6 0 C6.33 0.66 6.66 1.32 7 2 C15.25 2 23.5 2 32 2 C32.33 1.34 32.66 0.68 33 0 C35.64 0 38.28 0 41 0 C41.19406478 1.64507218 41.38007935 3.29109594 41.5625 4.9375 C41.71912109 6.31228516 41.71912109 6.31228516 41.87890625 7.71484375 C41.93884766 8.84599609 41.93884766 8.84599609 42 10 C40.10376798 11.89623202 37.33629641 11.12897626 34.8137207 11.13894653 C33.51374146 11.13591019 33.51374146 11.13591019 32.1875 11.1328125 C30.86141724 11.13424759 30.86141724 11.13424759 29.50854492 11.13571167 C27.63557871 11.13639351 25.76261014 11.13453893 23.88964844 11.13037109 C21.01231612 11.12502289 18.13513992 11.13031593 15.2578125 11.13671875 C13.44270799 11.13605797 11.62760357 11.13477681 9.8125 11.1328125 C8.94584717 11.13483673 8.07919434 11.13686096 7.1862793 11.13894653 C1.11495009 11.11495009 1.11495009 11.11495009 0 10 C-0.07205511 8.31391034 -0.08386068 6.62499341 -0.0625 4.9375 C-0.05347656 4.01839844 -0.04445313 3.09929687 -0.03515625 2.15234375 C-0.02355469 1.44207031 -0.01195313 0.73179688 0 0 Z " fill="#BBD5FE" transform="translate(27,102)"/>
<path d="M0 0 C1.58206422 0.00574487 3.16410406 0.01876032 4.74609375 0.03515625 C7.53046875 0.05578125 10.31484375 0.07640625 13.18359375 0.09765625 C13.18359375 6.03765625 13.18359375 11.97765625 13.18359375 18.09765625 C10.39921875 18.11828125 7.61484375 18.13890625 4.74609375 18.16015625 C3.86767822 18.16926025 2.9892627 18.17836426 2.08422852 18.18774414 C0.11713401 18.19488716 -1.84994246 18.14797518 -3.81640625 18.09765625 C-5.63756628 16.27649622 -4.94875705 13.79093861 -4.953125 11.37109375 C-4.94925781 10.62085937 -4.94539063 9.870625 -4.94140625 9.09765625 C-4.94527344 8.34742187 -4.94914062 7.5971875 -4.953125 6.82421875 C-4.94103514 0.12643386 -4.94103514 0.12643386 0 0 Z " fill="#44BFF0" transform="translate(109.81640625,95.90234375)"/>
<path d="M0 0 C3.06192834 3.34799085 3.35882691 5.59977035 3.29296875 10.078125 C3.28330078 11.23828125 3.27363281 12.3984375 3.26367188 13.59375 C3.23853516 14.8003125 3.21339844 16.006875 3.1875 17.25 C3.16719727 19.08304688 3.16719727 19.08304688 3.14648438 20.953125 C3.11114281 23.96893821 3.0573365 26.98452477 3 30 C-5.25 30 -13.5 30 -22 30 C-22 23 -22 23 -20.546875 20.546875 C-16.75052043 18.24111363 -13.55864404 18.79984316 -9.25 19.25 C-8.06083984 19.34861328 -8.06083984 19.34861328 -6.84765625 19.44921875 C-4.89673634 19.61375416 -2.94804503 19.80434482 -1 20 C-1.00785522 19.14450562 -1.00785522 19.14450562 -1.01586914 18.27172852 C-1.03658221 15.70199677 -1.0496419 13.13228253 -1.0625 10.5625 C-1.07087891 9.66466797 -1.07925781 8.76683594 -1.08789062 7.84179688 C-1.09272461 6.56079102 -1.09272461 6.56079102 -1.09765625 5.25390625 C-1.10551147 4.06776733 -1.10551147 4.06776733 -1.11352539 2.85766602 C-1 1 -1 1 0 0 Z " fill="#7181FE" transform="translate(124,94)"/>
<path d="M0 0 C5.61 0 11.22 0 17 0 C17 5.61 17 11.22 17 17 C11.39 17 5.78 17 0 17 C0 11.39 0 5.78 0 0 Z " fill="#3E4E9A" transform="translate(15,34)"/>
<path d="M0 0 C1.25554687 -0.00128906 2.51109375 -0.00257812 3.8046875 -0.00390625 C4.46178711 -0.00181152 5.11888672 0.0002832 5.79589844 0.00244141 C7.80411335 0.00779016 9.81210459 0.00249559 11.8203125 -0.00390625 C13.07585937 -0.00261719 14.33140625 -0.00132813 15.625 0 C16.78644531 0.00112793 17.94789063 0.00225586 19.14453125 0.00341797 C21.8125 0.1328125 21.8125 0.1328125 22.8125 1.1328125 C22.88494053 3.15245449 22.89627188 5.17448374 22.875 7.1953125 C22.86597656 8.30003906 22.85695312 9.40476562 22.84765625 10.54296875 C22.83605469 11.39761719 22.82445312 12.25226562 22.8125 13.1328125 C21.8225 13.6278125 21.8225 13.6278125 20.8125 14.1328125 C20.77125 13.5140625 20.73 12.8953125 20.6875 12.2578125 C20.39875 11.5565625 20.11 10.8553125 19.8125 10.1328125 C16.92931225 8.94945855 16.92931225 8.94945855 13.8125 8.1328125 C12.8225 7.4728125 11.8325 6.8128125 10.8125 6.1328125 C7.73584973 6.21502959 7.73584973 6.21502959 4.8125 7.1328125 C3.8225 8.6178125 3.8225 8.6178125 2.8125 10.1328125 C-0.47666934 11.68769255 -3.73757619 12.9828379 -7.1875 14.1328125 C-7.21435938 11.98704613 -7.23383088 9.84118605 -7.25 7.6953125 C-7.26160156 6.50035156 -7.27320312 5.30539063 -7.28515625 4.07421875 C-7.11114431 -1.16702086 -4.66394941 0.00452936 0 0 Z " fill="#36D2D3" transform="translate(112.1875,32.8671875)"/>
<path d="M0 0 C3.12038993 1.59647857 5.75570477 3.28322157 8 6 C8 6.66 8 7.32 8 8 C5.69 8.33 3.38 8.66 1 9 C0.82984375 9.55429687 0.6596875 10.10859375 0.484375 10.6796875 C-1.51972556 16.67066895 -1.51972556 16.67066895 -4.1875 18.5 C-5.0846875 18.7475 -5.0846875 18.7475 -6 19 C-6.99 17.68 -7.98 16.36 -9 15 C-8.34 15 -7.68 15 -7 15 C-7 13.68 -7 12.36 -7 11 C-13.6 10.67 -20.2 10.34 -27 10 C-27 9.34 -27 8.68 -27 8 C-25.96875 8.0825 -24.9375 8.165 -23.875 8.25 C-19.36428478 7.95898611 -17.61702453 6.57210633 -14 4 C-12.68 4 -11.36 4 -10 4 C-9.71125 3.360625 -9.4225 2.72125 -9.125 2.0625 C-6.87273101 -2.06665982 -4.10748859 -0.9664679 0 0 Z " fill="#79D9DF" transform="translate(125,39)"/>
<path d="M0 0 C2.31 0 4.62 0 7 0 C7.14541967 4.22880411 7.23411527 8.45696413 7.3125 12.6875 C7.3753418 14.48477539 7.3753418 14.48477539 7.43945312 16.31835938 C7.5608921 25.03767802 7.5608921 25.03767802 5.86474609 27.94775391 C4.48046875 29.33203125 4.48046875 29.33203125 2 31 C0.41596476 29.41596476 0.78025065 27.7228362 0.68359375 25.52734375 C0.64169922 24.62822266 0.59980469 23.72910156 0.55664062 22.80273438 C0.51732422 21.85720703 0.47800781 20.91167969 0.4375 19.9375 C0.39431641 18.98810547 0.35113281 18.03871094 0.30664062 17.06054688 C0.20020724 14.70718647 0.09818992 12.35371646 0 10 C-2.64 10 -5.28 10 -8 10 C-8 8.02 -8 6.04 -8 4 C-5.36 4 -2.72 4 0 4 C0 2.68 0 1.36 0 0 Z " fill="#5A38FF" transform="translate(34,49)"/>
<path d="M0 0 C1 1 1 1 1.09765625 3.28515625 C1.08605469 4.20167969 1.07445313 5.11820312 1.0625 6.0625 C1.05347656 6.98160156 1.04445313 7.90070313 1.03515625 8.84765625 C1.02355469 9.55792969 1.01195313 10.26820312 1 11 C0.34 10.67 -0.32 10.34 -1 10 C-2.34977849 10.63270867 -3.68352881 11.30062468 -5 12 C-5.66 12 -6.32 12 -7 12 C-7 12.66 -7 13.32 -7 14 C-7.66 14 -8.32 14 -9 14 C-9 13.01 -9 12.02 -9 11 C-9.99 11 -10.98 11 -12 11 C-12.33 12.65 -12.66 14.3 -13 16 C-13.66 16 -14.32 16 -15 16 C-15 15.34 -15 14.68 -15 14 C-15.598125 13.9175 -16.19625 13.835 -16.8125 13.75 C-19.5966296 12.79544128 -20.43311142 11.42867729 -22 9 C-20.92456217 8.01216806 -19.83926783 7.03506057 -18.75 6.0625 C-18.14671875 5.51722656 -17.5434375 4.97195312 -16.921875 4.41015625 C-14.88322048 2.91431422 -13.43585601 2.54076003 -11 2 C-6.95807022 -0.69461986 -4.7948504 -0.23200889 0 0 Z " fill="#3FC6D7" transform="translate(59,86)"/>
<path d="M0 0 C2.95839355 -0.02689449 5.91654427 -0.04678741 8.875 -0.0625 C9.71675781 -0.07087891 10.55851562 -0.07925781 11.42578125 -0.08789062 C12.23144531 -0.09111328 13.03710938 -0.09433594 13.8671875 -0.09765625 C14.98262939 -0.10551147 14.98262939 -0.10551147 16.12060547 -0.11352539 C18 0 18 0 20 1 C19.690625 2.175625 19.690625 2.175625 19.375 3.375 C19.25125 4.24125 19.1275 5.1075 19 6 C19.66 6.66 20.32 7.32 21 8 C21 9.98 21 11.96 21 14 C16.38 14 11.76 14 7 14 C7 11.03 7 8.06 7 5 C4.69 5 2.38 5 0 5 C0 3.35 0 1.7 0 0 Z " fill="#39C5D7" transform="translate(98,49)"/>
<path d="M0 0 C-0.33 1.65 -0.66 3.3 -1 5 C4.61 5 10.22 5 16 5 C16.495 6.485 16.495 6.485 17 8 C2.81 8 -11.38 8 -26 8 C-25.67 7.01 -25.34 6.02 -25 5 C-23.329375 4.87625 -23.329375 4.87625 -21.625 4.75 C-20.42875 4.5025 -19.2325 4.255 -18 4 C-17.67 3.34 -17.34 2.68 -17 2 C-16.67 1.34 -16.34 0.68 -16 0 C-10.56197276 -1.44274192 -5.47820952 -0.80744585 0 0 Z " fill="#9FC3FE" transform="translate(77,113)"/>
<path d="M0 0 C13.53 0 27.06 0 41 0 C41 1.65 41 3.3 41 5 C27.47 5 13.94 5 0 5 C0 3.35 0 1.7 0 0 Z " fill="#3C3D89" transform="translate(60,97)"/>
<path d="M0 0 C1.98 0 3.96 0 6 0 C7.125 1.625 7.125 1.625 8 4 C7.125 7.25 7.125 7.25 6 10 C6.66 10 7.32 10 8 10 C7.875 11.875 7.875 11.875 7 14 C5.01276732 14.70381157 3.01222047 15.3711811 1 16 C0.67 16.99 0.34 17.98 0 19 C-1.65 19 -3.3 19 -5 19 C-5 18.01 -5 17.02 -5 16 C-7.31 16 -9.62 16 -12 16 C-12.66 14.35 -13.32 12.7 -14 11 C-13.34 10.34 -12.68 9.68 -12 9 C-12.66 7.02 -13.32 5.04 -14 3 C-11.36 3 -8.72 3 -6 3 C-6.20625 4.11375 -6.4125 5.2275 -6.625 6.375 C-6.74875 7.57125 -6.8725 8.7675 -7 10 C-5.10244856 12.34973818 -5.10244856 12.34973818 -1.875 12.125 C-0.451875 12.063125 -0.451875 12.063125 1 12 C1.29562367 6.67829506 1.29562367 6.67829506 -1 2 C-0.67 1.34 -0.34 0.68 0 0 Z " fill="#EAEBF2" transform="translate(135,60)"/>
<path d="M0 0 C0.99 0 1.98 0 3 0 C3 9.57 3 19.14 3 29 C10.19522782 28.9604134 10.19522782 28.9604134 17.39038086 28.90991211 C18.28120361 28.90741455 19.17202637 28.90491699 20.08984375 28.90234375 C21.46450806 28.89448853 21.46450806 28.89448853 22.86694336 28.88647461 C25 29 25 29 26 30 C28.14386657 30.15858842 30.29266838 30.25129298 32.44140625 30.31640625 C33.74658203 30.35830078 35.05175781 30.40019531 36.39648438 30.44335938 C37.7851533 30.48317608 39.17382522 30.52288825 40.5625 30.5625 C41.95509183 30.60567989 43.34767028 30.649294 44.74023438 30.69335938 C48.16004801 30.79985876 51.57993763 30.90186923 55 31 C55 31.33 55 31.66 55 32 C47.48863592 32.05057965 39.97731551 32.08568257 32.46582031 32.10986328 C29.90883747 32.11994038 27.35186621 32.13360226 24.79492188 32.15087891 C21.12627308 32.17505217 17.45777621 32.18646585 13.7890625 32.1953125 C12.0655809 32.21079636 12.0655809 32.21079636 10.30728149 32.22659302 C9.2463327 32.22674408 8.18538391 32.22689514 7.09228516 32.22705078 C6.15518707 32.231492 5.21808899 32.23593323 4.25259399 32.24050903 C2 32 2 32 0 30 C-0.22705078 27.01904297 -0.22705078 27.01904297 -0.1953125 23.2421875 C-0.1924826 22.57913605 -0.18965271 21.91608459 -0.18673706 21.23294067 C-0.17553435 19.11344417 -0.15043051 16.99436896 -0.125 14.875 C-0.11497028 13.43880818 -0.10584441 12.00260975 -0.09765625 10.56640625 C-0.075595 7.04413372 -0.04106494 3.52210797 0 0 Z " fill="#42A6E5" transform="translate(41,49)"/>
<path d="M0 0 C1.98 0 3.96 0 6 0 C6.33 0.66 6.66 1.32 7 2 C9.30428213 2.25635503 11.62091113 2.40592533 13.9375 2.5 C20.77836691 2.77836691 20.77836691 2.77836691 23 5 C22.01 5.33 21.02 5.66 20 6 C20 6.99 20 7.98 20 9 C19.21625 8.95875 18.4325 8.9175 17.625 8.875 C14.83883881 8.71271266 14.83883881 8.71271266 13 11 C10.21484375 11.23046875 10.21484375 11.23046875 6.9375 11.1875 C5.31134766 11.17783203 5.31134766 11.17783203 3.65234375 11.16796875 C1 11 1 11 0 10 C-0.07205511 8.31391034 -0.08386068 6.62499341 -0.0625 4.9375 C-0.05347656 4.01839844 -0.04445313 3.09929687 -0.03515625 2.15234375 C-0.02355469 1.44207031 -0.01195313 0.73179688 0 0 Z " fill="#C5DCFE" transform="translate(27,102)"/>
<path d="M0 0 C3.0000624 -0.02721831 5.99987256 -0.04694378 9 -0.0625 C9.83917969 -0.07087891 10.67835937 -0.07925781 11.54296875 -0.08789062 C16.79319339 -0.10824033 21.80455662 0.23631793 27 1 C27.05402274 3.10388569 27.09280256 5.20816714 27.125 7.3125 C27.14820312 8.48425781 27.17140625 9.65601562 27.1953125 10.86328125 C27 14 27 14 25 17 C21.875 17.6875 21.875 17.6875 19 18 C19 17.34 19 16.68 19 16 C19.99 15.67 20.98 15.34 22 15 C22 12.69 22 10.38 22 8 C20.68 7.67 19.36 7.34 18 7 C18 6.34 18 5.68 18 5 C14.04 5 10.08 5 6 5 C6 4.01 6 3.02 6 2 C3.03 1.505 3.03 1.505 0 1 C0 0.67 0 0.34 0 0 Z " fill="#38C4D4" transform="translate(7,58)"/>
<path d="M0 0 C1.32 0 2.64 0 4 0 C4 6.6 4 13.2 4 20 C6.31 20 8.62 20 11 20 C11.33 20.99 11.66 21.98 12 23 C3.19039858 24.30512614 -5.19039858 24.30512614 -14 23 C-13.505 21.515 -13.505 21.515 -13 20 C-8.71 20 -4.42 20 0 20 C0 13.4 0 6.8 0 0 Z " fill="#4C4CA1" transform="translate(115,63)"/>
<path d="M0 0 C2.3125 1.5625 2.3125 1.5625 4 4 C4.42519574 7.46230815 4.63902633 9.8347167 2.9375 12.9375 C-0.1652833 14.63902633 -2.53769185 14.42519574 -6 14 C-8.5 12.4375 -8.5 12.4375 -10 10 C-10 6.17610254 -9.85254277 3.94388664 -7.25 1.0625 C-4.50508782 -0.23370853 -2.99925788 -0.52487013 0 0 Z " fill="#44D1E2" transform="translate(117,98)"/>
<path d="M0 0 C5.94 0 11.88 0 18 0 C18 0.66 18 1.32 18 2 C20.475 2.495 20.475 2.495 23 3 C23 5.31 23 7.62 23 10 C21.68 10.33 20.36 10.66 19 11 C19 11.99 19 12.98 19 14 C17.68 14 16.36 14 15 14 C14.67 13.34 14.34 12.68 14 12 C11.98330173 10.86649466 11.98330173 10.86649466 10 10 C10 7.69 10 5.38 10 3 C6.7 2.67 3.4 2.34 0 2 C0 1.34 0 0.68 0 0 Z " fill="#E4F6F9" transform="translate(7,63)"/>
<path d="M0 0 C1.31871094 -0.01224609 2.63742188 -0.02449219 3.99609375 -0.03710938 C5.90068359 -0.04000977 5.90068359 -0.04000977 7.84375 -0.04296875 C9.00068359 -0.04707764 10.15761719 -0.05118652 11.34960938 -0.05541992 C14.47736509 0.18575467 16.680892 0.85423629 19.5 2.1875 C18.5 4.1875 18.5 4.1875 16.84521484 4.80200195 C11.99200924 5.59975457 7.04404055 5.37340312 2.13769531 5.37280273 C0.13863013 5.37498512 -1.86039532 5.39349143 -3.859375 5.41210938 C-5.13039063 5.41404297 -6.40140625 5.41597656 -7.7109375 5.41796875 C-8.86899902 5.42207764 -10.02706055 5.42618652 -11.22021484 5.43041992 C-14.61310954 5.17912245 -17.33332989 4.39923908 -20.5 3.1875 C-20.17 2.5275 -19.84 1.8675 -19.5 1.1875 C-13.23640183 -0.60566158 -6.45139424 0.00315317 0 0 Z " fill="#EAEBF2" transform="translate(114.5,125.8125)"/>
<path d="M0 0 C2.43769218 3.65653827 2.23944439 5.69000101 2 10 C1 11 1 11 -1.40844727 11.11352539 C-2.45057373 11.10828857 -3.4927002 11.10305176 -4.56640625 11.09765625 C-5.69111328 11.09443359 -6.81582031 11.09121094 -7.97460938 11.08789062 C-9.15861328 11.07951172 -10.34261719 11.07113281 -11.5625 11.0625 C-12.75037109 11.05798828 -13.93824219 11.05347656 -15.16210938 11.04882812 C-18.10812226 11.03699675 -21.05403681 11.02051287 -24 11 C-24.33 10.01 -24.66 9.02 -25 8 C-21.7 8 -18.4 8 -15 8 C-14.67 7.34 -14.34 6.68 -14 6 C-14 6.66 -14 7.32 -14 8 C-13.34 8 -12.68 8 -12 8 C-11.67 6.35 -11.34 4.7 -11 3 C-10.01 3 -9.02 3 -8 3 C-8 3.99 -8 4.98 -8 6 C-7.34 6 -6.68 6 -6 6 C-6 5.34 -6 4.68 -6 4 C-5.195625 3.71125 -4.39125 3.4225 -3.5625 3.125 C-0.8673532 2.26737432 -0.8673532 2.26737432 0 0 Z " fill="#3AD9C8" transform="translate(58,94)"/>
<path d="M0 0 C0 5.61 0 11.22 0 17 C0.99 17 1.98 17 3 17 C3 18.65 3 20.3 3 22 C0.69 22 -1.62 22 -4 22 C-4 15.73 -4 9.46 -4 3 C-10.27 3 -16.54 3 -23 3 C-23 2.34 -23 1.68 -23 1 C-19.91675903 0.83159521 -16.83339379 0.66558138 -13.75 0.5 C-12.87730469 0.45230469 -12.00460938 0.40460938 -11.10546875 0.35546875 C-10.26113281 0.31035156 -9.41679687 0.26523438 -8.546875 0.21875 C-7.38430176 0.1559082 -7.38430176 0.1559082 -6.19824219 0.09179688 C-4.13373418 0.00558463 -2.0663073 0 0 0 Z " fill="#6E72A9" transform="translate(30,80)"/>
<path d="M0 0 C0.93134766 0.00322266 1.86269531 0.00644531 2.82226562 0.00976562 C4.26182617 0.02233398 4.26182617 0.02233398 5.73046875 0.03515625 C6.70951172 0.03966797 7.68855469 0.04417969 8.69726562 0.04882812 C11.10422986 0.06056941 13.51106732 0.07699206 15.91796875 0.09765625 C16.24796875 1.41765625 16.57796875 2.73765625 16.91796875 4.09765625 C15.92796875 4.09765625 14.93796875 4.09765625 13.91796875 4.09765625 C12.92796875 4.59265625 12.92796875 4.59265625 11.91796875 5.09765625 C10.17752705 5.18215253 8.43387153 5.20488649 6.69140625 5.1953125 C5.66015625 5.19208984 4.62890625 5.18886719 3.56640625 5.18554688 C1.94605469 5.17297852 1.94605469 5.17297852 0.29296875 5.16015625 C-1.33898437 5.15338867 -1.33898437 5.15338867 -3.00390625 5.14648438 C-5.69666914 5.13467401 -8.38932313 5.11820403 -11.08203125 5.09765625 C-10.75203125 3.77765625 -10.42203125 2.45765625 -10.08203125 1.09765625 C-6.65629188 0.32237146 -3.5096388 -0.02153153 0 0 Z " fill="#655CFE" transform="translate(50.08203125,80.90234375)"/>
<path d="M0 0 C3.1415338 1.60729637 5.68716711 3.32198297 8 6 C8 6.33 8 6.66 8 7 C0.41 7 -7.18 7 -15 7 C-14.67 6.01 -14.34 5.02 -14 4 C-12.68 4 -11.36 4 -10 4 C-9.566875 3.0409375 -9.566875 3.0409375 -9.125 2.0625 C-6.87273101 -2.06665982 -4.10748859 -0.9664679 0 0 Z " fill="#F5FCFD" transform="translate(125,39)"/>
<path d="M0 0 C2.31 0 4.62 0 7 0 C7.22151549 1.79008467 7.42682213 3.58218162 7.625 5.375 C7.74101563 6.37273438 7.85703125 7.37046875 7.9765625 8.3984375 C7.98429687 9.25695313 7.99203125 10.11546875 8 11 C6.10307678 12.89692322 4.14126476 14.39405143 2 16 C1.34 16.66 0.68 17.32 0 18 C0 12.06 0 6.12 0 0 Z " fill="#6C74FE" transform="translate(98,54)"/>
<path d="M0 0 C2.64 0 5.28 0 8 0 C8 3.96 8 7.92 8 12 C7.01 11.01 6.02 10.02 5 9 C4.67 9.33 4.34 9.66 4 10 C2.48071962 10.07179964 0.95832518 10.08392007 -0.5625 10.0625 C-1.38878906 10.05347656 -2.21507813 10.04445313 -3.06640625 10.03515625 C-3.70449219 10.02355469 -4.34257813 10.01195313 -5 10 C-4.34 8.68 -3.68 7.36 -3 6 C-2.34 6 -1.68 6 -1 6 C-1 5.34 -1 4.68 -1 4 C-0.01 4 0.98 4 2 4 C2 3.01 2 2.02 2 1 C1.34 0.67 0.68 0.34 0 0 Z " fill="#655BFE" transform="translate(119,86)"/>
<path d="M0 0 C2.95839355 -0.02689449 5.91654427 -0.04678741 8.875 -0.0625 C9.71675781 -0.07087891 10.55851562 -0.07925781 11.42578125 -0.08789062 C12.23144531 -0.09111328 13.03710938 -0.09433594 13.8671875 -0.09765625 C14.98262939 -0.10551147 14.98262939 -0.10551147 16.12060547 -0.11352539 C18 0 18 0 20 1 C20 1.99 20 2.98 20 4 C19.01 4 18.02 4 17 4 C17 4.33 17 4.66 17 5 C11.39 5 5.78 5 0 5 C0 3.35 0 1.7 0 0 Z " fill="#34ADC5" transform="translate(98,49)"/>
<path d="M0 0 C0 0.33 0 0.66 0 1 C-1.98 1 -3.96 1 -6 1 C-6 6.61 -6 12.22 -6 18 C-3.36 18 -0.72 18 2 18 C2 18.66 2 19.32 2 20 C-3.28 20 -8.56 20 -14 20 C-14 19.67 -14 19.34 -14 19 C-12.35 18.67 -10.7 18.34 -9 18 C-8.67 16.68 -8.34 15.36 -8 14 C-9.98 14 -11.96 14 -14 14 C-14 13.67 -14 13.34 -14 13 C-12.35 12.67 -10.7 12.34 -9 12 C-8.67 10.68 -8.34 9.36 -8 8 C-9.98 8 -11.96 8 -14 8 C-14 7.67 -14 7.34 -14 7 C-12.35 6.67 -10.7 6.34 -9 6 C-8.67 4.68 -8.34 3.36 -8 2 C-9.98 2 -11.96 2 -14 2 C-14 1.67 -14 1.34 -14 1 C-9.32798795 -0.20568053 -4.78503708 -0.09382426 0 0 Z " fill="#73DCDB" transform="translate(21,33)"/>
<path d="M0 0 C1.65 0 3.3 0 5 0 C4.93489583 2.01822917 4.86979167 4.03645833 4.8046875 6.0546875 C4.81668311 8.23863645 4.81668311 8.23863645 7 10 C3.68629 12.20914 2.6553979 12.22481553 -1.1875 12.125 C-2.08855469 12.10695313 -2.98960938 12.08890625 -3.91796875 12.0703125 C-4.60503906 12.04710938 -5.29210937 12.02390625 -6 12 C-6 11.34 -6 10.68 -6 10 C-4.02 10 -2.04 10 0 10 C0 8.68 0 7.36 0 6 C-1.98 6 -3.96 6 -6 6 C-6 5.34 -6 4.68 -6 4 C-4.02 4 -2.04 4 0 4 C0 2.68 0 1.36 0 0 Z " fill="#81D8E5" transform="translate(13,65)"/>
<path d="M0 0 C0.98613281 0.13921875 1.97226563 0.2784375 2.98828125 0.421875 C4.47908203 0.61523438 4.47908203 0.61523438 6 0.8125 C6.75925781 0.93109375 7.51851562 1.0496875 8.30078125 1.171875 C7.9609375 3.09375 7.9609375 3.09375 7.30078125 5.171875 C4.73828125 6.421875 4.73828125 6.421875 2.30078125 7.171875 C2.30078125 7.831875 2.30078125 8.491875 2.30078125 9.171875 C-0.03255208 9.171875 -2.36588542 9.171875 -4.69921875 9.171875 C-5.02921875 9.831875 -5.35921875 10.491875 -5.69921875 11.171875 C-6.06230286 4.87841706 -6.06230286 4.87841706 -4.54296875 1.921875 C-2.69921875 0.171875 -2.69921875 0.171875 0 0 Z " fill="#6C71FE" transform="translate(107.69921875,112.828125)"/>
<path d="M0 0 C0.33 0 0.66 0 1 0 C1.09765625 6.15234375 1.09765625 6.15234375 1 8 C0 9 0 9 -2.86743164 9.11352539 C-4.11903076 9.10828857 -5.37062988 9.10305176 -6.66015625 9.09765625 C-7.65685585 9.09553383 -7.65685585 9.09553383 -8.6736908 9.09336853 C-10.80333899 9.08775518 -12.93288339 9.07520054 -15.0625 9.0625 C-16.50325369 9.05748671 -17.94400903 9.05292351 -19.38476562 9.04882812 C-22.92321102 9.03778145 -26.46159539 9.02050792 -30 9 C-30.33 8.34 -30.66 7.68 -31 7 C-21.43 7 -11.86 7 -2 7 C-1.67 5.02 -1.34 3.04 -1 1 C-0.67 0.67 -0.34 0.34 0 0 Z " fill="#37DBC6" transform="translate(97,71)"/>
<path d="M0 0 C1.32 0 2.64 0 4 0 C4 6.6 4 13.2 4 20 C2.68 19.67 1.36 19.34 0 19 C0 12.73 0 6.46 0 0 Z " fill="#3E3E8B" transform="translate(115,63)"/>
<path d="M0 0 C12.87 0 25.74 0 39 0 C39 0.66 39 1.32 39 2 C29.43 2 19.86 2 10 2 C10 2.66 10 3.32 10 4 C9.01 4 8.02 4 7 4 C7 3.34 7 2.68 7 2 C4.69 2 2.38 2 0 2 C0 1.34 0 0.68 0 0 Z " fill="#64D3E1" transform="translate(34,45)"/>
<path d="M0 0 C1.67542976 0.28604898 3.34385343 0.61781233 5 1 C6.00619398 5.3266341 6.36822864 8.12471677 4 12 C1.4140625 13.140625 1.4140625 13.140625 -1 14 C-1.02685938 11.85423363 -1.04633088 9.70837355 -1.0625 7.5625 C-1.07410156 6.36753906 -1.08570312 5.17257813 -1.09765625 3.94140625 C-1 1 -1 1 0 0 Z " fill="#33C6DF" transform="translate(106,33)"/>
<path d="M0 0 C8.58 0 17.16 0 26 0 C25.67 0.99 25.34 1.98 25 3 C17.08 3 9.16 3 1 3 C0.67 2.01 0.34 1.02 0 0 Z " fill="#4C4CA0" transform="translate(101,124)"/>
<path d="M0 0 C0.66 0 1.32 0 2 0 C2 3.63 2 7.26 2 11 C-1.96 11 -5.92 11 -10 11 C-9 9 -9 9 -6 8 C-6 7.01 -6 6.02 -6 5 C-4.6875 3.3125 -4.6875 3.3125 -3 2 C-2.01 2 -1.02 2 0 2 C0 1.34 0 0.68 0 0 Z " fill="#7793FE" transform="translate(125,113)"/>
<path d="M0 0 C0.33 0 0.66 0 1 0 C1 3.3 1 6.6 1 10 C-4.61 10 -10.22 10 -16 10 C-16.33 8.35 -16.66 6.7 -17 5 C-16.34 4.01 -15.68 3.02 -15 2 C-14.484375 2.825 -13.96875 3.65 -13.4375 4.5 C-11.15518339 7.33963148 -11.15518339 7.33963148 -7.4375 7.5625 C-3.98846531 7.33329652 -3.98846531 7.33329652 -2.125 5.1875 C-0.88860105 2.92023801 -0.88860105 2.92023801 0 0 Z " fill="#42D3DF" transform="translate(122,104)"/>
<path d="M0 0 C6.27 0 12.54 0 19 0 C19 2.31 19 4.62 19 7 C18.67 6.34 18.34 5.68 18 5 C14.04 5 10.08 5 6 5 C6 4.01 6 3.02 6 2 C3.03 1.505 3.03 1.505 0 1 C0 0.67 0 0.34 0 0 Z " fill="#87DBE4" transform="translate(7,58)"/>
<path d="M0 0 C3.3 0 6.6 0 10 0 C10 2.31 10 4.62 10 7 C6.7 7 3.4 7 0 7 C0 4.69 0 2.38 0 0 Z " fill="#A1C2FE" transform="translate(81,85)"/>
<path d="M0 0 C0.66 0 1.32 0 2 0 C2.33 1.32 2.66 2.64 3 4 C3 3.01 3 2.02 3 1 C3.66 1 4.32 1 5 1 C6.38232443 2.62626404 7.71937515 4.2925002 9 6 C7.02 6.99 7.02 6.99 5 8 C5 8.66 5 9.32 5 10 C4.34 10 3.68 10 3 10 C3 9.01 3 8.02 3 7 C2.01 7 1.02 7 0 7 C-0.33 8.65 -0.66 10.3 -1 12 C-1.66 12 -2.32 12 -3 12 C-2.14285714 3.42857143 -2.14285714 3.42857143 0 0 Z " fill="#98E0E9" transform="translate(47,90)"/>
<path d="M0 0 C2.3125 1.5625 2.3125 1.5625 4 4 C4.42519574 7.46230815 4.63902633 9.8347167 2.9375 12.9375 C-0.1652833 14.63902633 -2.53769185 14.42519574 -6 14 C-8.5 12.4375 -8.5 12.4375 -10 10 C-10 6.17610254 -9.85254277 3.94388664 -7.25 1.0625 C-4.50508782 -0.23370853 -2.99925788 -0.52487013 0 0 Z M-6.8125 3.1875 C-8.45691281 5.69739323 -8.5875348 7.06232599 -8 10 C-5.89299553 12.09762034 -5.89299553 12.09762034 -3 13 C-0.56971928 12.33719617 1.2010972 11.7989028 3 10 C3.29573841 7.19048514 3.38243085 5.58371024 1.8125 3.1875 C-1.21685772 1.20274839 -3.78314228 1.20274839 -6.8125 3.1875 Z " fill="#C8EEF5" transform="translate(117,98)"/>
<path d="M0 0 C1.65 0.33 3.3 0.66 5 1 C4.54625 1.70125 4.0925 2.4025 3.625 3.125 C1.98313057 6.02984591 0.96322901 8.8139348 0 12 C-2.88575819 11.60196439 -3.82189513 11.20990931 -5.75 8.9375 C-6.1625 8.298125 -6.575 7.65875 -7 7 C-6.4946875 6.57847656 -5.989375 6.15695313 -5.46875 5.72265625 C-4.8190625 5.17480469 -4.169375 4.62695312 -3.5 4.0625 C-2.8503125 3.51722656 -2.200625 2.97195312 -1.53125 2.41015625 C-1.0259375 1.94480469 -0.520625 1.47945313 0 1 C0 0.67 0 0.34 0 0 Z " fill="#4DBBDF" transform="translate(44,88)"/>
<path d="M0 0 C2.31 0 4.62 0 7 0 C7 1.65 7 3.3 7 5 C3.37 5 -0.26 5 -4 5 C-4 6.65 -4 8.3 -4 10 C-5.32 10 -6.64 10 -8 10 C-8 8.02 -8 6.04 -8 4 C-5.36 4 -2.72 4 0 4 C0 2.68 0 1.36 0 0 Z " fill="#3D418D" transform="translate(34,49)"/>
<path d="M0 0 C2.64 0 5.28 0 8 0 C8.75 2.75 8.75 2.75 9 6 C7.3125 8.375 7.3125 8.375 5 10 C3.68 10 2.36 10 1 10 C0.67 6.7 0.34 3.4 0 0 Z " fill="#6DD4E3" transform="translate(110,33)"/>
<path d="M0 0 C1.24716797 0.00322266 2.49433594 0.00644531 3.77929688 0.00976562 C5.07287109 0.01814453 6.36644531 0.02652344 7.69921875 0.03515625 C9.66858398 0.04192383 9.66858398 0.04192383 11.67773438 0.04882812 C14.91410885 0.06059676 18.15039053 0.07703865 21.38671875 0.09765625 C21.05671875 0.75765625 20.72671875 1.41765625 20.38671875 2.09765625 C19.73074707 2.11747559 19.07477539 2.13729492 18.39892578 2.15771484 C15.43610806 2.25278132 12.47401343 2.36253377 9.51171875 2.47265625 C7.96291016 2.5190625 7.96291016 2.5190625 6.3828125 2.56640625 C4.90361328 2.62441406 4.90361328 2.62441406 3.39453125 2.68359375 C2.4833252 2.71501465 1.57211914 2.74643555 0.63330078 2.77880859 C-1.81259311 2.89648136 -1.81259311 2.89648136 -3.61328125 5.09765625 C-6.34197532 5.06478042 -8.90994305 4.53367854 -11.61328125 4.09765625 C-11.61328125 3.10765625 -11.61328125 2.11765625 -11.61328125 1.09765625 C-7.68039761 0.16677716 -4.03673962 -0.0184326 0 0 Z " fill="#D9D9E8" transform="translate(106.61328125,125.90234375)"/>
<path d="M0 0 C3.375 -0.1875 3.375 -0.1875 7 0 C7.66 0.99 8.32 1.98 9 3 C7.02 3.99 7.02 3.99 5 5 C5 5.66 5 6.32 5 7 C4.34 7 3.68 7 3 7 C3 7.66 3 8.32 3 9 C2.34 9 1.68 9 1 9 C0.67 9.66 0.34 10.32 0 11 C0 7.37 0 3.74 0 0 Z " fill="#5935FF" transform="translate(102,86)"/>
<path d="M0 0 C2.43769218 3.65653827 2.23944439 5.69000101 2 10 C1 11 1 11 -0.84765625 11.09765625 C-2.8984375 11.06510417 -4.94921875 11.03255208 -7 11 C-6.505 10.236875 -6.01 9.47375 -5.5 8.6875 C-3.75631692 6.07636249 -3.75631692 6.07636249 -4 3 C-3.01 2.34 -2.02 1.68 -1 1 C-0.67 0.67 -0.34 0.34 0 0 Z " fill="#35DCC1" transform="translate(58,94)"/>
<path d="M0 0 C7.92 0 15.84 0 24 0 C24.33 1.32 24.66 2.64 25 4 C24.01 4 23.02 4 22 4 C22 3.34 22 2.68 22 2 C14.74 2 7.48 2 0 2 C0 1.34 0 0.68 0 0 Z " fill="#47D6D3" transform="translate(73,45)"/>
<path d="M0 0 C1.23556641 0.01740234 1.23556641 0.01740234 2.49609375 0.03515625 C3.32238281 0.04417969 4.14867187 0.05320312 5 0.0625 C5.63808594 0.07410156 6.27617188 0.08570312 6.93359375 0.09765625 C6.93359375 0.75765625 6.93359375 1.41765625 6.93359375 2.09765625 C5.94359375 2.09765625 4.95359375 2.09765625 3.93359375 2.09765625 C3.93359375 2.75765625 3.93359375 3.41765625 3.93359375 4.09765625 C3.29421875 4.20078125 2.65484375 4.30390625 1.99609375 4.41015625 C1.31546875 4.63703125 0.63484375 4.86390625 -0.06640625 5.09765625 C-0.39640625 6.08765625 -0.72640625 7.07765625 -1.06640625 8.09765625 C-1.72640625 8.09765625 -2.38640625 8.09765625 -3.06640625 8.09765625 C-3.10882348 5.7647085 -3.10733562 3.43063058 -3.06640625 1.09765625 C-2.06640625 0.09765625 -2.06640625 0.09765625 0 0 Z " fill="#4697EB" transform="translate(36.06640625,85.90234375)"/>
<path d="M0 0 C0.99 0 1.98 0 3 0 C3 0.66 3 1.32 3 2 C4.65 2.33 6.3 2.66 8 3 C8 5.31 8 7.62 8 10 C6.68 10.33 5.36 10.66 4 11 C4 9 4 7 4 5 C1.525 4.01 1.525 4.01 -1 3 C-0.67 2.01 -0.34 1.02 0 0 Z " fill="#EEF9FB" transform="translate(22,63)"/>
<path d="M0 0 C0.33 0 0.66 0 1 0 C1 2.64 1 5.28 1 8 C-1.64 8 -4.28 8 -7 8 C-6.67 6.35 -6.34 4.7 -6 3 C-5.195625 2.87625 -4.39125 2.7525 -3.5625 2.625 C-2.716875 2.41875 -1.87125 2.2125 -1 2 C-0.67 1.34 -0.34 0.68 0 0 Z " fill="#34D9C4" transform="translate(33,72)"/>
<path d="M0 0 C0.33 0.66 0.66 1.32 1 2 C1.99 2.33 2.98 2.66 4 3 C4 3.66 4 4.32 4 5 C-0.29 5 -4.58 5 -9 5 C-9.33 4.01 -9.66 3.02 -10 2 C-6.7 2 -3.4 2 0 2 C0 1.34 0 0.68 0 0 Z " fill="#4DD4D7" transform="translate(43,100)"/>
<path d="M0 0 C3.3 0 6.6 0 10 0 C8.60804085 2.7839183 6.84424221 2.97898997 4 4 C4 4.99 4 5.98 4 7 C2.02 7.99 2.02 7.99 0 9 C0 6.03 0 3.06 0 0 Z " fill="#3DBBDE" transform="translate(105,54)"/>
<path d="M0 0 C3.36704285 -0.2295711 5.41370268 -0.33943529 8.375 1.375 C8.91125 1.91125 9.4475 2.4475 10 3 C10 3.66 10 4.32 10 5 C6.7 5 3.4 5 0 5 C0 3.35 0 1.7 0 0 Z " fill="#34ABC5" transform="translate(33,97)"/>
<path d="M0 0 C0 0.33 0 0.66 0 1 C-1.98 1 -3.96 1 -6 1 C-6 3.64 -6 6.28 -6 9 C-8.64 8.67 -11.28 8.34 -14 8 C-14 7.67 -14 7.34 -14 7 C-12.35 6.67 -10.7 6.34 -9 6 C-8.67 4.68 -8.34 3.36 -8 2 C-9.98 2 -11.96 2 -14 2 C-14 1.67 -14 1.34 -14 1 C-9.32798795 -0.20568053 -4.78503708 -0.09382426 0 0 Z " fill="#88D8E8" transform="translate(21,33)"/>
<path d="M0 0 C0.66 0 1.32 0 2 0 C2 1.98 2 3.96 2 6 C2.99 6.33 3.98 6.66 5 7 C4.01 7.99 3.02 8.98 2 10 C-1.875 8.25 -1.875 8.25 -3 6 C-2.34 6 -1.68 6 -1 6 C-1.0309375 4.7934375 -1.0309375 4.7934375 -1.0625 3.5625 C-1 1 -1 1 0 0 Z " fill="#DFF5F6" transform="translate(119,48)"/>
<path d="M0 0 C1.32 0.99 2.64 1.98 4 3 C4 3.66 4 4.32 4 5 C4.33 5.33 4.66 5.66 5 6 C5.04080783 7.99958364 5.04254356 10.00045254 5 12 C3.68 12 2.36 12 1 12 C0.67 8.04 0.34 4.08 0 0 Z " fill="#37C1C6" transform="translate(114,51)"/>
<path d="M0 0 C1.32 0.33 2.64 0.66 4 1 C4 2.65 4 4.3 4 6 C2.02 6.99 2.02 6.99 0 8 C0 6.68 0 5.36 0 4 C-1.98 4.99 -1.98 4.99 -4 6 C-4 5.01 -4 4.02 -4 3 C-2.68 2.34 -1.36 1.68 0 1 C0 0.67 0 0.34 0 0 Z " fill="#73E1E2" transform="translate(116,102)"/>
<path d="M0 0 C2.31 0 4.62 0 7 0 C7 1.65 7 3.3 7 5 C4.69 5 2.38 5 0 5 C0 3.35 0 1.7 0 0 Z " fill="#3C3E8A" transform="translate(98,49)"/>
<path d="M0 0 C6.6 0 13.2 0 20 0 C20 0.99 20 1.98 20 3 C13.4 2.34 6.8 1.68 0 1 C0 0.67 0 0.34 0 0 Z " fill="#41D1D8" transform="translate(14,32)"/>
<path d="M0 0 C0.33 0 0.66 0 1 0 C1 3.3 1 6.6 1 10 C-1.64 10 -4.28 10 -7 10 C-6.57847656 9.52949219 -6.15695313 9.05898437 -5.72265625 8.57421875 C-5.17480469 7.95160156 -4.62695312 7.32898438 -4.0625 6.6875 C-3.51722656 6.07261719 -2.97195312 5.45773438 -2.41015625 4.82421875 C-0.79918441 2.94758042 -0.79918441 2.94758042 0 0 Z " fill="#36DAC8" transform="translate(122,104)"/>
<path d="M0 0 C0.25 7.625 0.25 7.625 -2 11 C-2.433125 9.6078125 -2.433125 9.6078125 -2.875 8.1875 C-3.8875 4.90208333 -3.8875 4.90208333 -6 2 C-3 0 -3 0 0 0 Z " fill="#48D2E1" transform="translate(123,96)"/>
<path d="M0 0 C0.99 0 1.98 0 3 0 C3 3.96 3 7.92 3 12 C2.01 11.67 1.02 11.34 0 11 C0 7.37 0 3.74 0 0 Z " fill="#3B95D7" transform="translate(41,49)"/>
<path d="M0 0 C7.92 0.33 15.84 0.66 24 1 C24 1.33 24 1.66 24 2 C19.38 2 14.76 2 10 2 C10 2.66 10 3.32 10 4 C9.01 4 8.02 4 7 4 C7 3.34 7 2.68 7 2 C4.69 2 2.38 2 0 2 C0 1.34 0 0.68 0 0 Z " fill="#8BD7E7" transform="translate(34,45)"/>
<path d="M0 0 C2.05078125 0.03255208 4.1015625 0.06510417 6.15234375 0.09765625 C4.15234375 2.09765625 4.15234375 2.09765625 1.15234375 3.09765625 C0.82234375 3.75765625 0.49234375 4.41765625 0.15234375 5.09765625 C-0.83765625 5.09765625 -1.82765625 5.09765625 -2.84765625 5.09765625 C-2.84765625 6.08765625 -2.84765625 7.07765625 -2.84765625 8.09765625 C-3.50765625 7.76765625 -4.16765625 7.43765625 -4.84765625 7.09765625 C-2.62675581 0.13883487 -2.62675581 0.13883487 0 0 Z " fill="#3DBBDC" transform="translate(52.84765625,85.90234375)"/>
<path d="M0 0 C4.95 0 9.9 0 15 0 C14.67 0.99 14.34 1.98 14 3 C7.07 2.505 7.07 2.505 0 2 C0 1.34 0 0.68 0 0 Z " fill="#9ADDE8" transform="translate(7,63)"/>
<path d="M0 0 C1.65 0 3.3 0 5 0 C5.625 1.875 5.625 1.875 6 4 C5.34 4.66 4.68 5.32 4 6 C1.875 5.625 1.875 5.625 0 5 C0 3.35 0 1.7 0 0 Z " fill="#54D0DE" transform="translate(21,67)"/>
<path d="M0 0 C1.32 0.99 2.64 1.98 4 3 C0.68629 5.20914 -0.3446021 5.22481553 -4.1875 5.125 C-5.08855469 5.10695313 -5.98960938 5.08890625 -6.91796875 5.0703125 C-7.60503906 5.04710938 -8.29210937 5.02390625 -9 5 C-9 4.34 -9 3.68 -9 3 C-5.92382812 2.70703125 -5.92382812 2.70703125 -2.84765625 2.4140625 C-2.23792969 2.27742188 -1.62820312 2.14078125 -1 2 C-0.67 1.34 -0.34 0.68 0 0 Z " fill="#8DDBE5" transform="translate(16,72)"/>
<path d="M0 0 C1.32 0 2.64 0 4 0 C4 0.66 4 1.32 4 2 C4.99 1.67 5.98 1.34 7 1 C7.66 1.33 8.32 1.66 9 2 C9 2.66 9 3.32 9 4 C5.7 4 2.4 4 -1 4 C-0.67 2.68 -0.34 1.36 0 0 Z " fill="#31C7DE" transform="translate(14,59)"/>
<path d="M0 0 C0.66 0 1.32 0 2 0 C1.69106068 1.6256807 1.3777305 3.25052748 1.0625 4.875 C0.88847656 5.77992187 0.71445312 6.68484375 0.53515625 7.6171875 C0 10 0 10 -1 12 C-1.66 12 -2.32 12 -3 12 C-2.14285714 3.42857143 -2.14285714 3.42857143 0 0 Z " fill="#DEF4F7" transform="translate(47,90)"/>
<path d="M0 0 C1.625 1.625 1.625 1.625 3 4 C2.1875 7.25 2.1875 7.25 1 10 C0.34 10 -0.32 10 -1 10 C-1.02689216 8.52093108 -1.04634621 7.04172517 -1.0625 5.5625 C-1.07410156 4.73878906 -1.08570312 3.91507812 -1.09765625 3.06640625 C-1 1 -1 1 0 0 Z " fill="#6C71FE" transform="translate(124,94)"/>
<path d="M0 0 C0.33 0 0.66 0 1 0 C1.08107583 1.93681161 1.13922475 3.8745934 1.1875 5.8125 C1.23970703 7.43091797 1.23970703 7.43091797 1.29296875 9.08203125 C1 12 1 12 -0.51171875 13.88671875 C-1.00285156 14.25410156 -1.49398437 14.62148437 -2 15 C-1.47462276 9.9697924 -0.89405214 4.98114761 0 0 Z " fill="#645DFE" transform="translate(104,102)"/>
<path d="M0 0 C0.66 0 1.32 0 2 0 C2 2.97 2 5.94 2 9 C1.34 9 0.68 9 0 9 C0 7.68 0 6.36 0 5 C-1.98 5 -3.96 5 -6 5 C-6 4.67 -6 4.34 -6 4 C-4.35 3.67 -2.7 3.34 -1 3 C-0.67 2.01 -0.34 1.02 0 0 Z " fill="#69D3E3" transform="translate(13,42)"/>
<path d="M0 0 C1.32 0 2.64 0 4 0 C4 1.98 4 3.96 4 6 C2.68 6 1.36 6 0 6 C0 4.02 0 2.04 0 0 Z " fill="#35AFC6" transform="translate(26,59)"/>
<path d="M0 0 C1.65 0 3.3 0 5 0 C4.375 2.4375 4.375 2.4375 3 5 C-0.125 5.8125 -0.125 5.8125 -3 6 C-3 5.34 -3 4.68 -3 4 C-2.01 3.67 -1.02 3.34 0 3 C0 2.01 0 1.02 0 0 Z " fill="#3FCAD2" transform="translate(29,70)"/>
<path d="M0 0 C1.32 0 2.64 0 4 0 C3.67 1.98 3.34 3.96 3 6 C2.01 6 1.02 6 0 6 C0 4.02 0 2.04 0 0 Z " fill="#3DB3DF" transform="translate(30,59)"/>
<path d="M0 0 C3.3 0 6.6 0 10 0 C10 0.33 10 0.66 10 1 C7.36 1.33 4.72 1.66 2 2 C2 2.66 2 3.32 2 4 C1.01 4 0.02 4 -1 4 C-0.67 2.68 -0.34 1.36 0 0 Z " fill="#46AFF5" transform="translate(106,96)"/>
<path d="M0 0 C0.66 0.33 1.32 0.66 2 1 C2 2.65 2 4.3 2 6 C1.34 5.67 0.68 5.34 0 5 C-0.99 5 -1.98 5 -3 5 C-3 3.68 -3 2.36 -3 1 C-2.01 0.67 -1.02 0.34 0 0 Z " fill="#38D1D2" transform="translate(58,91)"/>
<path d="M0 0 C2.31 0 4.62 0 7 0 C6.67 0.99 6.34 1.98 6 3 C3.69 3 1.38 3 -1 3 C-0.67 2.01 -0.34 1.02 0 0 Z " fill="#B5D2FD" transform="translate(52,118)"/>
<path d="M0 0 C0.33 0 0.66 0 1 0 C1.66 2.31 2.32 4.62 3 7 C1.35 6.67 -0.3 6.34 -2 6 C-1.125 1.125 -1.125 1.125 0 0 Z " fill="#3EADE1" transform="translate(43,73)"/>
<path d="M0 0 C0.66 0.33 1.32 0.66 2 1 C2 1.66 2 2.32 2 3 C-2.455 4.485 -2.455 4.485 -7 6 C-7 5.01 -7 4.02 -7 3 C-4.69631264 1.93347808 -2.35981813 0.93578995 0 0 Z " fill="#3ACDD7" transform="translate(20,74)"/>
<path d="M0 0 C0.99 0 1.98 0 3 0 C3.33 1.32 3.66 2.64 4 4 C2.35 4.33 0.7 4.66 -1 5 C-0.67 3.35 -0.34 1.7 0 0 Z " fill="#35C2C5" transform="translate(47,97)"/>
<path d="M0 0 C2.01822917 0.06510417 4.03645833 0.13020833 6.0546875 0.1953125 C4.9921875 1.7578125 4.9921875 1.7578125 3.0546875 3.1953125 C-0.6328125 2.8828125 -0.6328125 2.8828125 -3.9453125 2.1953125 C-1.9453125 0.1953125 -1.9453125 0.1953125 0 0 Z " fill="#54D0DC" transform="translate(114.9453125,46.8046875)"/>
<path d="M0 0 C0 0.99 0 1.98 0 3 C0.3062434 4.33981486 0.63451555 5.67511887 1 7 C-0.32 6.34 -1.64 5.68 -3 5 C-3 4.01 -3 3.02 -3 2 C-2.01 1.34 -1.02 0.68 0 0 Z " fill="#E7F5F9" transform="translate(41,92)"/>
<path d="M0 0 C1.65 0 3.3 0 5 0 C4.67 1.32 4.34 2.64 4 4 C2.68 4 1.36 4 0 4 C0 2.68 0 1.36 0 0 Z " fill="#32C7DE" transform="translate(13,65)"/>
</svg>
