<?xml version="1.0" encoding="UTF-8"?>
<svg version="1.1" xmlns="http://www.w3.org/2000/svg" width="150" height="150">
<path d="M0 0 C2.97 0.33 5.94 0.66 9 1 C9 2.98 9 4.96 9 7 C13.33927969 8.83695434 13.33927969 8.83695434 17.875 8.125 C18.926875 7.568125 18.926875 7.568125 20 7 C23 12.75 23 12.75 23 15 C23.85464844 14.98839844 24.70929688 14.97679687 25.58984375 14.96484375 C26.69457031 14.95582031 27.79929687 14.94679688 28.9375 14.9375 C30.03964844 14.92589844 31.14179688 14.91429687 32.27734375 14.90234375 C35 15 35 15 36 16 C36.15806531 17.92478813 36.251135 19.8549921 36.31640625 21.78515625 C36.37924805 23.53989258 36.37924805 23.53989258 36.44335938 25.33007812 C36.48267578 26.56177734 36.52199219 27.79347656 36.5625 29.0625 C36.60568359 30.29806641 36.64886719 31.53363281 36.69335938 32.80664062 C36.79984198 35.87097335 36.90185424 38.93539073 37 42 C38.65 42 40.3 42 42 42 C43.60339848 45.11771927 44.18974141 46.39011689 43.125 49.8125 C42.75375 50.534375 42.3825 51.25625 42 52 C42.66 52.33 43.32 52.66 44 53 C43.34 54.65 42.68 56.3 42 58 C39.69 58 37.38 58 35 58 C35 58.99 35 59.98 35 61 C33.35 61 31.7 61 30 61 C29.773125 60.360625 29.54625 59.72125 29.3125 59.0625 C28.14749104 56.72806339 28.14749104 56.72806339 25.375 56.25 C24.59125 56.1675 23.8075 56.085 23 56 C22.505 54.02 22.505 54.02 22 52 C22.66 52 23.32 52 24 52 C23.39816251 49.97954558 22.72693904 47.97888961 22 46 C21.34 45.67 20.68 45.34 20 45 C20 51.6 20 58.2 20 65 C22.31 65 24.62 65 27 65 C28 66 28 66 28.11352539 69.96899414 C28.1133662 71.74105607 28.10766785 73.5131226 28.09765625 75.28515625 C28.0962413 76.21597519 28.09482635 77.14679413 28.09336853 78.1058197 C28.08775172 81.09141191 28.0751964 84.07693029 28.0625 87.0625 C28.05748716 89.08137913 28.05292388 91.10025943 28.04882812 93.11914062 C28.03777683 98.07945572 28.02050095 103.03971532 28 108 C30.31 108.66 32.62 109.32 35 110 C34 112 34 112 32.34521484 112.61450195 C27.49200924 113.41225457 22.54404055 113.18590312 17.63769531 113.18530273 C15.63863013 113.18748512 13.63960468 113.20599143 11.640625 113.22460938 C10.36960937 113.22654297 9.09859375 113.22847656 7.7890625 113.23046875 C6.63100098 113.23457764 5.47293945 113.23868652 4.27978516 113.24291992 C0.88689046 112.99162245 -1.83332989 112.21173908 -5 111 C-4.67 110.34 -4.34 109.68 -4 109 C-1.4375 108.375 -1.4375 108.375 1 108 C0.32142944 107.99191315 -0.35714111 107.98382629 -1.05627441 107.97549438 C-8.19572947 107.88863335 -15.33493245 107.7891071 -22.47412109 107.68261719 C-25.12938188 107.64363425 -27.7845665 107.60971702 -30.43994141 107.578125 C-68.93926359 107.11445232 -68.93926359 107.11445232 -76 103 C-75.67 102.34 -75.34 101.68 -75 101 C-74.34 101 -73.68 101 -73 101 C-73.495 100.01 -73.495 100.01 -74 99 C-76.92713788 98.05065798 -78.42831368 97.76823527 -81.3125 98.9375 C-81.869375 99.288125 -82.42625 99.63875 -83 100 C-85.0625 98.5625 -85.0625 98.5625 -87 96 C-87.05823431 92.92416977 -86.59222907 90.01264352 -86 87 C-87.32 87 -88.64 87 -90 87 C-89.67 84.36 -89.34 81.72 -89 79 C-87.35 79 -85.7 79 -84 79 C-82.58622659 76.36095629 -81.62759865 73.92879371 -81 71 C-78.03 70.505 -78.03 70.505 -75 70 C-74.67 70.99 -74.34 71.98 -74 73 C-73.67 69.37 -73.34 65.74 -73 62 C-77.29 62 -81.58 62 -86 62 C-86 61.01 -86 60.02 -86 59 C-87.98 59 -89.96 59 -92 59 C-92 58.34 -92 57.68 -92 57 C-90.35 57 -88.7 57 -87 57 C-86.67 55.68 -86.34 54.36 -86 53 C-87.98 53 -89.96 53 -92 53 C-92 52.34 -92 51.68 -92 51 C-90.35 51 -88.7 51 -87 51 C-86.67 49.68 -86.34 48.36 -86 47 C-87.98 47 -89.96 47 -92 47 C-92 46.34 -92 45.68 -92 45 C-90.35 45 -88.7 45 -87 45 C-86.34 43.68 -85.68 42.36 -85 41 C-81.04 41 -77.08 41 -73 41 C-73.061875 39.906875 -73.12375 38.81375 -73.1875 37.6875 C-73 34 -73 34 -71.875 32.28125 C-69.1629604 30.42802294 -67.05676436 30.70784631 -63.8125 30.8125 C-62.72582031 30.83957031 -61.63914062 30.86664063 -60.51953125 30.89453125 C-59.27236328 30.94673828 -59.27236328 30.94673828 -58 31 C-57.67 29.68 -57.34 28.36 -57 27 C-55.77893555 26.9906543 -54.55787109 26.98130859 -53.29980469 26.97167969 C-48.76704501 26.93179077 -44.23496485 26.86603507 -39.70263672 26.79248047 C-37.74146253 26.76426447 -35.78017449 26.74305306 -33.81884766 26.72900391 C-30.99843023 26.70758301 -28.17938257 26.66093791 -25.359375 26.609375 C-24.48319519 26.60814636 -23.60701538 26.60691772 -22.70428467 26.60565186 C-17.72477444 26.50417855 -17.72477444 26.50417855 -13.44628906 24.11816406 C-11.84422619 22.06825288 -11.84422619 22.06825288 -11.5 19.5 C-12.14356518 16.28217411 -13.53305753 15.08148271 -16 13 C-14.35 10.69 -12.7 8.38 -11 6 C-10.071875 6.37125 -9.14375 6.7425 -8.1875 7.125 C-7.135625 7.41375 -6.08375 7.7025 -5 8 C-1.39345961 5.59563974 -1.14547068 4.05320393 0 0 Z M-2.9375 14.0625 C-5.53327109 17.7595073 -5.71253588 19.56644342 -5 24 C-3.59121904 26.9901643 -3.59121904 26.9901643 -1 29 C2.64182335 29.89055736 2.64182335 29.89055736 6 30 C6.03738281 29.01257813 6.07476562 28.02515625 6.11328125 27.0078125 C6.17902344 25.72648437 6.24476562 24.44515625 6.3125 23.125 C6.37050781 21.84882812 6.42851563 20.57265625 6.48828125 19.2578125 C6.65714844 18.18273437 6.82601562 17.10765625 7 16 C7.99 15.34 8.98 14.68 10 14 C5.32834072 10.88556048 1.69263351 10.81155519 -2.9375 14.0625 Z M28 47 C27.6366844 49.83386167 27.6431329 51.40522151 29.125 53.875 C31.92151052 55.55290631 33.93690532 54.74875648 37 54 C37.67673447 50.59679066 37.67673447 50.59679066 38 47 C36.11499729 44.68436913 36.11499729 44.68436913 33 44.75 C29.88500271 44.68436913 29.88500271 44.68436913 28 47 Z M-79.25 80.625 C-81.21985834 82.92308586 -81.21985834 82.92308586 -81.5 86 C-81.21376982 89.06575838 -81.21376982 89.06575838 -79.3125 91.375 C-76.61209763 93.27258004 -75.22939919 93.35882213 -72 93 C-71.85024761 85.94348748 -71.85024761 85.94348748 -73 79 C-76.92212225 78.60967296 -76.92212225 78.60967296 -79.25 80.625 Z M-67 95 C-66.34 96.65 -65.68 98.3 -65 100 C-52.13 99.01 -52.13 99.01 -39 98 C-38.67 97.01 -38.34 96.02 -38 95 C-47.57 95 -57.14 95 -67 95 Z M-14 95 C-14 95.99 -14 96.98 -14 98 C-8.72 98.33 -3.44 98.66 2 99 C2 97.68 2 96.36 2 95 C-3.28 95 -8.56 95 -14 95 Z " fill="#5C44F1" transform="translate(99,18)"/>
<path d="M0 0 C2.97 0.33 5.94 0.66 9 1 C9 2.98 9 4.96 9 7 C13.33927969 8.83695434 13.33927969 8.83695434 17.875 8.125 C18.926875 7.568125 18.926875 7.568125 20 7 C23 12.75 23 12.75 23 15 C23.85464844 14.98839844 24.70929688 14.97679687 25.58984375 14.96484375 C26.69457031 14.95582031 27.79929687 14.94679688 28.9375 14.9375 C30.03964844 14.92589844 31.14179688 14.91429687 32.27734375 14.90234375 C35 15 35 15 36 16 C36.15806531 17.92478813 36.251135 19.8549921 36.31640625 21.78515625 C36.37924805 23.53989258 36.37924805 23.53989258 36.44335938 25.33007812 C36.48267578 26.56177734 36.52199219 27.79347656 36.5625 29.0625 C36.60568359 30.29806641 36.64886719 31.53363281 36.69335938 32.80664062 C36.79984198 35.87097335 36.90185424 38.93539073 37 42 C38.65 42 40.3 42 42 42 C43.60339848 45.11771927 44.18974141 46.39011689 43.125 49.8125 C42.75375 50.534375 42.3825 51.25625 42 52 C42.66 52.33 43.32 52.66 44 53 C43.34 54.65 42.68 56.3 42 58 C39.69 58 37.38 58 35 58 C35 58.99 35 59.98 35 61 C33.35 61 31.7 61 30 61 C29.773125 60.360625 29.54625 59.72125 29.3125 59.0625 C28.14749104 56.72806339 28.14749104 56.72806339 25.375 56.25 C24.59125 56.1675 23.8075 56.085 23 56 C22.505 54.02 22.505 54.02 22 52 C22.66 52 23.32 52 24 52 C23.39816251 49.97954558 22.72693904 47.97888961 22 46 C21.34 45.67 20.68 45.34 20 45 C20 51.6 20 58.2 20 65 C22.31 65 24.62 65 27 65 C27.33 65.99 27.66 66.98 28 68 C19.19039858 69.30512614 10.80960142 69.30512614 2 68 C2.495 66.515 2.495 66.515 3 65 C7.29 65 11.58 65 16 65 C16 58.4 16 51.8 16 45 C12.7 45 9.4 45 6 45 C6 42.03 6 39.06 6 36 C3.69 36 1.38 36 -1 36 C-0.98839844 36.92683594 -0.97679688 37.85367188 -0.96484375 38.80859375 C-0.95582031 40.00613281 -0.94679688 41.20367187 -0.9375 42.4375 C-0.92589844 43.63246094 -0.91429688 44.82742187 -0.90234375 46.05859375 C-1 49 -1 49 -2 50 C-4.80976518 50.16017166 -7.59773596 50.25950534 -10.41015625 50.31640625 C-11.67320839 50.3475779 -11.67320839 50.3475779 -12.96177673 50.37937927 C-15.66193179 50.44496812 -18.36218717 50.50380276 -21.0625 50.5625 C-22.88868241 50.60567637 -24.71485454 50.64929036 -26.54101562 50.69335938 C-31.02723992 50.80065894 -35.5135655 50.90189966 -40 51 C-40 51.66 -40 52.32 -40 53 C-41.32 53 -42.64 53 -44 53 C-44.495 53.99 -44.495 53.99 -45 55 C-45.66 55 -46.32 55 -47 55 C-46.938125 55.78375 -46.87625 56.5675 -46.8125 57.375 C-46.9053125 58.674375 -46.9053125 58.674375 -47 60 C-47.99 60.66 -48.98 61.32 -50 62 C-51.32 61.01 -52.64 60.02 -54 59 C-54 59.66 -54 60.32 -54 61 C-54.99 61.495 -54.99 61.495 -56 62 C-56 62.99 -56 63.98 -56 65 C-56 65.66 -56 66.32 -56 67 C-54.85660156 67.06058594 -53.71320312 67.12117188 -52.53515625 67.18359375 C-51.04425695 67.26798428 -49.55337225 67.35263302 -48.0625 67.4375 C-47.30775391 67.47681641 -46.55300781 67.51613281 -45.77539062 67.55664062 C-40.11328125 67.88671875 -40.11328125 67.88671875 -39 69 C-38.90013025 71.84335048 -38.86122119 74.65697163 -38.875 77.5 C-38.86919922 78.69689453 -38.86919922 78.69689453 -38.86328125 79.91796875 C-38.87339233 85.87339233 -38.87339233 85.87339233 -40 87 C-41.85369611 87.08737645 -43.71067541 87.10698153 -45.56640625 87.09765625 C-46.69111328 87.09443359 -47.81582031 87.09121094 -48.97460938 87.08789062 C-50.15861328 87.07951172 -51.34261719 87.07113281 -52.5625 87.0625 C-53.75037109 87.05798828 -54.93824219 87.05347656 -56.16210938 87.04882812 C-59.10812226 87.03699675 -62.05403681 87.02051287 -65 87 C-65.33 86.01 -65.66 85.02 -66 84 C-68.31 84 -70.62 84 -73 84 C-73 76.74 -73 69.48 -73 62 C-77.29 62 -81.58 62 -86 62 C-86 61.01 -86 60.02 -86 59 C-87.98 59 -89.96 59 -92 59 C-92 58.34 -92 57.68 -92 57 C-90.35 57 -88.7 57 -87 57 C-86.67 55.68 -86.34 54.36 -86 53 C-87.98 53 -89.96 53 -92 53 C-92 52.34 -92 51.68 -92 51 C-90.35 51 -88.7 51 -87 51 C-86.67 49.68 -86.34 48.36 -86 47 C-87.98 47 -89.96 47 -92 47 C-92 46.34 -92 45.68 -92 45 C-90.35 45 -88.7 45 -87 45 C-86.34 43.68 -85.68 42.36 -85 41 C-81.04 41 -77.08 41 -73 41 C-73.061875 39.906875 -73.12375 38.81375 -73.1875 37.6875 C-73 34 -73 34 -71.875 32.28125 C-69.1629604 30.42802294 -67.05676436 30.70784631 -63.8125 30.8125 C-62.72582031 30.83957031 -61.63914062 30.86664063 -60.51953125 30.89453125 C-59.27236328 30.94673828 -59.27236328 30.94673828 -58 31 C-57.67 29.68 -57.34 28.36 -57 27 C-55.77893555 26.9906543 -54.55787109 26.98130859 -53.29980469 26.97167969 C-48.76704501 26.93179077 -44.23496485 26.86603507 -39.70263672 26.79248047 C-37.74146253 26.76426447 -35.78017449 26.74305306 -33.81884766 26.72900391 C-30.99843023 26.70758301 -28.17938257 26.66093791 -25.359375 26.609375 C-24.48319519 26.60814636 -23.60701538 26.60691772 -22.70428467 26.60565186 C-17.72477444 26.50417855 -17.72477444 26.50417855 -13.44628906 24.11816406 C-11.84422619 22.06825288 -11.84422619 22.06825288 -11.5 19.5 C-12.14356518 16.28217411 -13.53305753 15.08148271 -16 13 C-14.35 10.69 -12.7 8.38 -11 6 C-10.071875 6.37125 -9.14375 6.7425 -8.1875 7.125 C-7.135625 7.41375 -6.08375 7.7025 -5 8 C-1.39345961 5.59563974 -1.14547068 4.05320393 0 0 Z M-2.9375 14.0625 C-5.53327109 17.7595073 -5.71253588 19.56644342 -5 24 C-3.59121904 26.9901643 -3.59121904 26.9901643 -1 29 C2.64182335 29.89055736 2.64182335 29.89055736 6 30 C6.03738281 29.01257813 6.07476562 28.02515625 6.11328125 27.0078125 C6.17902344 25.72648437 6.24476562 24.44515625 6.3125 23.125 C6.37050781 21.84882812 6.42851563 20.57265625 6.48828125 19.2578125 C6.65714844 18.18273437 6.82601562 17.10765625 7 16 C7.99 15.34 8.98 14.68 10 14 C5.32834072 10.88556048 1.69263351 10.81155519 -2.9375 14.0625 Z M28 47 C27.6366844 49.83386167 27.6431329 51.40522151 29.125 53.875 C31.92151052 55.55290631 33.93690532 54.74875648 37 54 C37.67673447 50.59679066 37.67673447 50.59679066 38 47 C36.11499729 44.68436913 36.11499729 44.68436913 33 44.75 C29.88500271 44.68436913 29.88500271 44.68436913 28 47 Z " fill="#38D0CA" transform="translate(99,18)"/>
<path d="M0 0 C1.85776765 3.13498292 2.20140476 5.37471432 2 9 C1.030625 9.28875 0.06125 9.5775 -0.9375 9.875 C-4.10664203 10.64214682 -4.10664203 10.64214682 -5 13 C-5.0689472 14.37342831 -5.08467708 15.75002102 -5.0625 17.125 C-5.041875 18.40375 -5.02125 19.6825 -5 21 C-2.36 21.66 0.28 22.32 3 23 C3 20.03 3 17.06 3 14 C4.98 14 6.96 14 9 14 C9.33 14.66 9.66 15.32 10 16 C18.25 16 26.5 16 35 16 C35.33 15.34 35.66 14.68 36 14 C49.53 14 63.06 14 77 14 C77 17.63 77 21.26 77 25 C71.72 25 66.44 25 61 25 C61 25.99 61 26.98 61 28 C61.56847656 27.98839844 62.13695313 27.97679688 62.72265625 27.96484375 C67.60670484 27.90776806 72.18503965 28.18043228 77 29 C77 31.64 77 34.28 77 37 C69.71409984 37.04682155 62.42823335 37.08211748 55.14221191 37.10362434 C51.75718789 37.11395864 48.37226851 37.12792229 44.98730469 37.15087891 C6.5625541 37.39227608 6.5625541 37.39227608 -1 33 C-0.67 32.34 -0.34 31.68 0 31 C0.66 31 1.32 31 2 31 C1.67 30.34 1.34 29.68 1 29 C-1.92713788 28.05065798 -3.42831368 27.76823527 -6.3125 28.9375 C-6.869375 29.288125 -7.42625 29.63875 -8 30 C-10.0625 28.5625 -10.0625 28.5625 -12 26 C-12.05823431 22.92416977 -11.59222907 20.01264352 -11 17 C-12.32 17 -13.64 17 -15 17 C-14.67 14.36 -14.34 11.72 -14 9 C-12.35 9 -10.7 9 -9 9 C-7.88158632 6.91229447 -7.0291824 5.14591199 -6.5625 2.8125 C-6.376875 2.214375 -6.19125 1.61625 -6 1 C-3 0 -3 0 0 0 Z M8 25 C8.66 26.65 9.32 28.3 10 30 C22.87 29.01 22.87 29.01 36 28 C36.33 27.01 36.66 26.02 37 25 C27.43 25 17.86 25 8 25 Z " fill="#BAD4FE" transform="translate(24,88)"/>
<path d="M0 0 C0.495 8.91 0.495 8.91 1 18 C4.04213267 19.52106634 7.28047572 19.37429338 10.625 19.5625 C11.33140625 19.60568359 12.0378125 19.64886719 12.765625 19.69335938 C14.51018537 19.79944751 16.25506697 19.90022889 18 20 C18 20.66 18 21.32 18 22 C16.68 22 15.36 22 14 22 C13.67 22.66 13.34 23.32 13 24 C12.34 24 11.68 24 11 24 C11.061875 24.78375 11.12375 25.5675 11.1875 26.375 C11.0946875 27.674375 11.0946875 27.674375 11 29 C10.01 29.66 9.02 30.32 8 31 C6.68 30.01 5.36 29.02 4 28 C4 28.66 4 29.32 4 30 C3.01 30.495 3.01 30.495 2 31 C2 31.99 2 32.98 2 34 C2 34.66 2 35.32 2 36 C3.14339844 36.06058594 4.28679688 36.12117188 5.46484375 36.18359375 C6.95574305 36.26798428 8.44662775 36.35263302 9.9375 36.4375 C10.69224609 36.47681641 11.44699219 36.51613281 12.22460938 36.55664062 C17.88671875 36.88671875 17.88671875 36.88671875 19 38 C19.09986975 40.84335048 19.13877881 43.65697163 19.125 46.5 C19.13080078 47.69689453 19.13080078 47.69689453 19.13671875 48.91796875 C19.12660767 54.87339233 19.12660767 54.87339233 18 56 C16.14630389 56.08737645 14.28932459 56.10698153 12.43359375 56.09765625 C11.30888672 56.09443359 10.18417969 56.09121094 9.02539062 56.08789062 C7.84138672 56.07951172 6.65738281 56.07113281 5.4375 56.0625 C4.24962891 56.05798828 3.06175781 56.05347656 1.83789062 56.04882812 C-1.10812226 56.03699675 -4.05403681 56.02051287 -7 56 C-7.33 55.01 -7.66 54.02 -8 53 C-10.31 53 -12.62 53 -15 53 C-15 45.74 -15 38.48 -15 31 C-19.29 31 -23.58 31 -28 31 C-28 30.01 -28 29.02 -28 28 C-29.98 28 -31.96 28 -34 28 C-34 27.34 -34 26.68 -34 26 C-32.35 26 -30.7 26 -29 26 C-28.67 24.68 -28.34 23.36 -28 22 C-29.98 22 -31.96 22 -34 22 C-34 21.34 -34 20.68 -34 20 C-32.35 20 -30.7 20 -29 20 C-28.67 18.68 -28.34 17.36 -28 16 C-29.98 16 -31.96 16 -34 16 C-34 15.34 -34 14.68 -34 14 C-32.35 14 -30.7 14 -29 14 C-28.34 12.68 -27.68 11.36 -27 10 C-23.04 10 -19.08 10 -15 10 C-15.061875 8.906875 -15.12375 7.81375 -15.1875 6.6875 C-15 3 -15 3 -13.875 1.28125 C-9.98348385 -1.3779527 -4.48681699 -0.14473603 0 0 Z " fill="#5F4FFD" transform="translate(41,49)"/>
<path d="M0 0 C2.97 0.33 5.94 0.66 9 1 C9 2.98 9 4.96 9 7 C13.33927969 8.83695434 13.33927969 8.83695434 17.875 8.125 C18.926875 7.568125 18.926875 7.568125 20 7 C23 12.75 23 12.75 23 15 C24.28197266 14.98259766 24.28197266 14.98259766 25.58984375 14.96484375 C26.69457031 14.95582031 27.79929688 14.94679688 28.9375 14.9375 C30.03964844 14.92589844 31.14179688 14.91429687 32.27734375 14.90234375 C35 15 35 15 36 16 C36.15806531 17.92478813 36.251135 19.8549921 36.31640625 21.78515625 C36.35830078 22.95498047 36.40019531 24.12480469 36.44335938 25.33007812 C36.48267578 26.56177734 36.52199219 27.79347656 36.5625 29.0625 C36.60568359 30.29806641 36.64886719 31.53363281 36.69335938 32.80664062 C36.79984198 35.87097335 36.90185424 38.93539073 37 42 C38.65 42 40.3 42 42 42 C43.60339848 45.11771927 44.18974141 46.39011689 43.125 49.8125 C42.75375 50.534375 42.3825 51.25625 42 52 C42.99 52.495 42.99 52.495 44 53 C43.34 54.65 42.68 56.3 42 58 C39.69 58 37.38 58 35 58 C35 58.99 35 59.98 35 61 C33.35 61 31.7 61 30 61 C29.6596875 60.0409375 29.6596875 60.0409375 29.3125 59.0625 C28.14749104 56.72806339 28.14749104 56.72806339 25.375 56.25 C24.59125 56.1675 23.8075 56.085 23 56 C22.505 54.02 22.505 54.02 22 52 C22.66 52 23.32 52 24 52 C23.39816251 49.97954558 22.72693904 47.97888961 22 46 C21.01 45.505 21.01 45.505 20 45 C19.61250787 42.67504723 19.28241883 40.3400417 19 38 C18.67 37.01 18.34 36.02 18 35 C18.66 35 19.32 35 20 35 C20 33.02 20 31.04 20 29 C19.38511719 29 18.77023438 29 18.13671875 29 C14.09114583 29 10.04557292 29 6 29 C5.91921359 26.87561661 5.86090859 24.7503677 5.8125 22.625 C5.77769531 21.44164063 5.74289063 20.25828125 5.70703125 19.0390625 C5.80371094 18.03617188 5.90039062 17.03328125 6 16 C6.99 15.34 7.98 14.68 9 14 C5.90826248 12.45413124 3.40570448 12.70640479 0 13 C-2.58333333 14.41666667 -2.58333333 14.41666667 -4 17 C-4.33094958 20.77282526 -4.19754817 23.40735548 -3 27 C-7.29 27 -11.58 27 -16 27 C-14.68 25.35 -13.36 23.7 -12 22 C-11.33314062 19.45672892 -11.33314062 19.45672892 -12 17 C-13.89584109 14.68622853 -13.89584109 14.68622853 -16 13 C-14.35 10.69 -12.7 8.38 -11 6 C-10.071875 6.37125 -9.14375 6.7425 -8.1875 7.125 C-6.6096875 7.558125 -6.6096875 7.558125 -5 8 C-1.39345961 5.59563974 -1.14547068 4.05320393 0 0 Z M28 47 C27.6366844 49.83386167 27.6431329 51.40522151 29.125 53.875 C31.92151052 55.55290631 33.93690532 54.74875648 37 54 C37.67673447 50.59679066 37.67673447 50.59679066 38 47 C36.11499729 44.68436913 36.11499729 44.68436913 33 44.75 C29.88500271 44.68436913 29.88500271 44.68436913 28 47 Z " fill="#38D4D2" transform="translate(99,18)"/>
<path d="M0 0 C7.22649432 -0.07587458 14.45288649 -0.12852551 21.6796875 -0.16479492 C24.13968748 -0.17990988 26.59966041 -0.20040227 29.05957031 -0.22631836 C32.58926052 -0.2625823 36.11859544 -0.27969914 39.6484375 -0.29296875 C40.75367767 -0.30845261 41.85891785 -0.32393646 42.99765015 -0.33988953 C44.01855743 -0.34011612 45.03946472 -0.34034271 46.09130859 -0.34057617 C46.99287689 -0.34723801 47.89444519 -0.35389984 48.82333374 -0.36076355 C49.54163361 -0.24171158 50.25993347 -0.12265961 51 0 C51.66 0.99 52.32 1.98 53 3 C51.35 3.33 49.7 3.66 48 4 C48.495 6.475 48.495 6.475 49 9 C48.195625 9.5775 47.39125 10.155 46.5625 10.75 C43.62146796 12.90202155 43.62146796 12.90202155 43 17 C40.03 17.66 37.06 18.32 34 19 C35.32 19.66 36.64 20.32 38 21 C37.360625 21.12375 36.72125 21.2475 36.0625 21.375 C35.381875 21.58125 34.70125 21.7875 34 22 C33.67 22.66 33.34 23.32 33 24 C32.01 24 31.02 24 30 24 C30.495 26.475 30.495 26.475 31 29 C39.58 29 48.16 29 57 29 C57 30.65 57 32.3 57 34 C43.47 34 29.94 34 16 34 C15.67 29.05 15.34 24.1 15 19 C9.06 18.67 3.12 18.34 -3 18 C-2.34 16.35 -1.68 14.7 -1 13 C-1.33 12.34 -1.66 11.68 -2 11 C-1.01 11 -0.02 11 1 11 C1 10.34 1 9.68 1 9 C3.475 9.99 3.475 9.99 6 11 C6.2165625 10.1028125 6.2165625 10.1028125 6.4375 9.1875 C6.8872439 7.43849596 7.42892341 5.71322977 8 4 C11.465 3.505 11.465 3.505 15 3 C15 2.34 15 1.68 15 1 C10.05 1 5.1 1 0 1 C0 0.67 0 0.34 0 0 Z " fill="#6A73FD" transform="translate(44,68)"/>
<path d="M0 0 C2.31 0 4.62 0 7 0 C7 2.97 7 5.94 7 9 C10.3 9 13.6 9 17 9 C17 15.6 17 22.2 17 29 C12.71 29 8.42 29 4 29 C3.67 33.62 3.34 38.24 3 43 C-5.58 43 -14.16 43 -23 43 C-23.33 41.35 -23.66 39.7 -24 38 C-23.34 38 -22.68 38 -22 38 C-21.67 37.34 -21.34 36.68 -21 36 C-20.01 35.505 -20.01 35.505 -19 35 C-19.66 35 -20.32 35 -21 35 C-20.67 33.68 -20.34 32.36 -20 31 C-19.01 31.33 -18.02 31.66 -17 32 C-16.67 31.34 -16.34 30.68 -16 30 C-15.01 30.33 -14.02 30.66 -13 31 C-10.96376557 29.17458408 -10.96376557 29.17458408 -10.0625 27.125 C-9 25 -9 25 -7.3125 22.9375 C-6.879375 22.298125 -6.44625 21.65875 -6 21 C-6.33 20.01 -6.66 19.02 -7 18 C-5.35 17.34 -3.7 16.68 -2 16 C-2.33 15.34 -2.66 14.68 -3 14 C-2.34 13.67 -1.68 13.34 -1 13 C-0.53045739 9.95418731 -0.53045739 9.95418731 -0.375 6.4375 C-0.30023438 5.23996094 -0.22546875 4.04242188 -0.1484375 2.80859375 C-0.09945312 1.88175781 -0.05046875 0.95492187 0 0 Z " fill="#7184FD" transform="translate(98,54)"/>
<path d="M0 0 C16.83 0 33.66 0 51 0 C51 5.28 51 10.56 51 16 C34.17 16 17.34 16 0 16 C0 10.72 0 5.44 0 0 Z " fill="#434388" transform="translate(44,47)"/>
<path d="M0 0 C1.85776765 3.13498292 2.20140476 5.37471432 2 9 C1.030625 9.28875 0.06125 9.5775 -0.9375 9.875 C-4.10664203 10.64214682 -4.10664203 10.64214682 -5 13 C-5.0689472 14.37342831 -5.08467708 15.75002102 -5.0625 17.125 C-5.041875 18.40375 -5.02125 19.6825 -5 21 C-3.58398286 21.48108275 -2.16715563 21.95978141 -0.75 22.4375 C0.03890625 22.70433594 0.8278125 22.97117187 1.640625 23.24609375 C3.9415665 24.04633041 3.9415665 24.04633041 6.171875 24.34765625 C8 25 8 25 10 29 C18.58 28.67 27.16 28.34 36 28 C35.67 28.66 35.34 29.32 35 30 C32.35139573 30.59355614 29.70802678 30.74209269 27 31 C27 31.66 27 32.32 27 33 C41.19 33 55.38 33 70 33 C69.67 32.34 69.34 31.68 69 31 C67.845 30.835 66.69 30.67 65.5 30.5 C64.345 30.335 63.19 30.17 62 30 C61.505 29.01 61.505 29.01 61 28 C66.45769811 27.88861841 71.61509359 28.08342019 77 29 C77 31.64 77 34.28 77 37 C69.71409984 37.04682155 62.42823335 37.08211748 55.14221191 37.10362434 C51.75718789 37.11395864 48.37226851 37.12792229 44.98730469 37.15087891 C6.5625541 37.39227608 6.5625541 37.39227608 -1 33 C-0.67 32.34 -0.34 31.68 0 31 C0.66 31 1.32 31 2 31 C1.67 30.34 1.34 29.68 1 29 C-1.92713788 28.05065798 -3.42831368 27.76823527 -6.3125 28.9375 C-6.869375 29.288125 -7.42625 29.63875 -8 30 C-10.0625 28.5625 -10.0625 28.5625 -12 26 C-12.05823431 22.92416977 -11.59222907 20.01264352 -11 17 C-12.32 17 -13.64 17 -15 17 C-14.67 14.36 -14.34 11.72 -14 9 C-12.35 9 -10.7 9 -9 9 C-7.88158632 6.91229447 -7.0291824 5.14591199 -6.5625 2.8125 C-6.376875 2.214375 -6.19125 1.61625 -6 1 C-3 0 -3 0 0 0 Z " fill="#EAEBF2" transform="translate(24,88)"/>
<path d="M0 0 C1.12019531 -0.00128906 2.24039063 -0.00257812 3.39453125 -0.00390625 C4.57402344 -0.00003906 5.75351562 0.00382812 6.96875 0.0078125 C8.73798828 0.00201172 8.73798828 0.00201172 10.54296875 -0.00390625 C12.22326172 -0.00197266 12.22326172 -0.00197266 13.9375 0 C14.97326172 0.00112793 16.00902344 0.00225586 17.07617188 0.00341797 C19.46875 0.1328125 19.46875 0.1328125 20.46875 1.1328125 C20.56861975 3.97616298 20.60752881 6.78978413 20.59375 9.6328125 C20.59955078 10.82970703 20.59955078 10.82970703 20.60546875 12.05078125 C20.59535767 18.00620483 20.59535767 18.00620483 19.46875 19.1328125 C17.62715977 19.23240871 15.78178033 19.26361661 13.9375 19.265625 C12.81730469 19.26691406 11.69710937 19.26820312 10.54296875 19.26953125 C9.36347656 19.26566406 8.18398438 19.26179688 6.96875 19.2578125 C5.19951172 19.26361328 5.19951172 19.26361328 3.39453125 19.26953125 C1.71423828 19.26759766 1.71423828 19.26759766 0 19.265625 C-1.03576172 19.26449707 -2.07152344 19.26336914 -3.13867188 19.26220703 C-5.53125 19.1328125 -5.53125 19.1328125 -6.53125 18.1328125 C-6.63111975 15.28946202 -6.67002881 12.47584087 -6.65625 9.6328125 C-6.66011719 8.83488281 -6.66398437 8.03695312 -6.66796875 7.21484375 C-6.65573175 0.007248 -6.65573175 0.007248 0 0 Z " fill="#36D7C5" transform="translate(39.53125,85.8671875)"/>
<path d="M0 0 C0 12.54 0 25.08 0 38 C-8.25 38 -16.5 38 -25 38 C-25.125 25.25 -25.125 25.25 -24 23 C-23.34 23 -22.68 23 -22 23 C-21.67 24.32 -21.34 25.64 -21 27 C-15.39 27.33 -9.78 27.66 -4 28 C-4 22.06 -4 16.12 -4 10 C-8.95 10 -13.9 10 -19 10 C-18.67 8.35 -18.34 6.7 -18 5 C-16.68 5 -15.36 5 -14 5 C-14 4.01 -14 3.02 -14 2 C-14.99 1.67 -15.98 1.34 -17 1 C-15.6674398 0.82726071 -14.33388058 0.66222872 -13 0.5 C-12.2575 0.4071875 -11.515 0.314375 -10.75 0.21875 C-7.17721041 -0.06544917 -3.58407514 0 0 0 Z " fill="#7387FE" transform="translate(127,86)"/>
<path d="M0 0 C6.6 0 13.2 0 20 0 C20.02683201 3.47921735 20.0467567 6.95823039 20.0625 10.4375 C20.07087891 11.43072266 20.07925781 12.42394531 20.08789062 13.44726562 C20.09272461 14.86362305 20.09272461 14.86362305 20.09765625 16.30859375 C20.10551147 17.62041626 20.10551147 17.62041626 20.11352539 18.95874023 C20 21 20 21 19 22 C17.5086609 22.01662231 16.01639195 21.963192 14.52734375 21.87890625 C13.62822266 21.83056641 12.72910156 21.78222656 11.80273438 21.73242188 C10.85720703 21.67634766 9.91167969 21.62027344 8.9375 21.5625 C7.98810547 21.51029297 7.03871094 21.45808594 6.06054688 21.40429688 C3.70673048 21.27418642 1.35329301 21.13920888 -1 21 C-1 20.01 -1 19.02 -1 18 C-2.98 18 -4.96 18 -7 18 C-7 17.34 -7 16.68 -7 16 C-5.35 16 -3.7 16 -2 16 C-1.67 14.68 -1.34 13.36 -1 12 C-2.98 12 -4.96 12 -7 12 C-7 11.34 -7 10.68 -7 10 C-5.35 10 -3.7 10 -2 10 C-1.67 8.68 -1.34 7.36 -1 6 C-2.98 6 -4.96 6 -7 6 C-7 5.34 -7 4.68 -7 4 C-5.35 4 -3.7 4 -2 4 C-1.34 2.68 -0.68 1.36 0 0 Z " fill="#5ACFE2" transform="translate(14,59)"/>
<path d="M0 0 C2.62697064 -0.22137393 5.00893964 -0.28162025 7.625 -0.1875 C8.33140625 -0.17396484 9.0378125 -0.16042969 9.765625 -0.14648438 C11.51074128 -0.1111104 13.25546608 -0.05730221 15 0 C15 3.63 15 7.26 15 11 C9.72 11 4.44 11 -1 11 C-0.505 12.98 -0.505 12.98 0 15 C2.31 15.33 4.62 15.66 7 16 C7.495 17.485 7.495 17.485 8 19 C-6.19 19 -20.38 19 -35 19 C-35 18.34 -35 17.68 -35 17 C-32.98177083 16.609375 -30.96354167 16.21875 -28.9453125 15.828125 C-26.80173765 15.17533447 -26.80173765 15.17533447 -26.08203125 12.9609375 C-25.72496094 12.31382813 -25.36789063 11.66671875 -25 11 C-22.50390625 10.4609375 -22.50390625 10.4609375 -19.5625 10.375 C-14.99849252 10.23083205 -14.99849252 10.23083205 -11 8 C-8.3125 7.875 -8.3125 7.875 -6 8 C-5.71125 7.360625 -5.4225 6.72125 -5.125 6.0625 C-4 4 -4 4 -2 3 C-1.34 2.01 -0.68 1.02 0 0 Z " fill="#B1CFFE" transform="translate(86,102)"/>
<path d="M0 0 C0.66 0 1.32 0 2 0 C2.33 4.95 2.66 9.9 3 15 C4.65 15 6.3 15 8 15 C9.60339848 18.11771927 10.18974141 19.39011689 9.125 22.8125 C8.75375 23.534375 8.3825 24.25625 8 25 C8.66 25.33 9.32 25.66 10 26 C9.01 28.475 9.01 28.475 8 31 C5.69 31 3.38 31 1 31 C1 31.99 1 32.98 1 34 C-0.65 34 -2.3 34 -4 34 C-4.3403125 33.0409375 -4.3403125 33.0409375 -4.6875 32.0625 C-5.85250896 29.72806339 -5.85250896 29.72806339 -8.625 29.25 C-9.40875 29.1675 -10.1925 29.085 -11 29 C-11.33 27.68 -11.66 26.36 -12 25 C-11.34 25 -10.68 25 -10 25 C-10.60183749 22.97954558 -11.27306096 20.97888961 -12 19 C-12.66 18.67 -13.32 18.34 -14 18 C-14.36666667 12.5 -14.36666667 12.5 -12.625 10.125 C-11 9 -11 9 -9 9 C-9 8.34 -9 7.68 -9 7 C-9.66 7 -10.32 7 -11 7 C-11 5.35 -11 3.7 -11 2 C-7.37 2 -3.74 2 0 2 C0 1.34 0 0.68 0 0 Z M-6 20 C-6.3633156 22.83386167 -6.3568671 24.40522151 -4.875 26.875 C-2.07848948 28.55290631 -0.06309468 27.74875648 3 27 C3.67673447 23.59679066 3.67673447 23.59679066 4 20 C2.11499729 17.68436913 2.11499729 17.68436913 -1 17.75 C-4.11499729 17.68436913 -4.11499729 17.68436913 -6 20 Z " fill="#36DBC7" transform="translate(133,45)"/>
<path d="M0 0 C2.97 0.33 5.94 0.66 9 1 C9 2.98 9 4.96 9 7 C13.33927969 8.83695434 13.33927969 8.83695434 17.875 8.125 C18.926875 7.568125 18.926875 7.568125 20 7 C23 12.75 23 12.75 23 15 C20.89611431 15.05402274 18.79183286 15.09280256 16.6875 15.125 C14.92986328 15.15980469 14.92986328 15.15980469 13.13671875 15.1953125 C10 15 10 15 7 13 C3.12661246 12.57744863 0.88401391 12.43332442 -2.4375 14.5625 C-4.55418511 17.86452877 -4.35028204 20.14689752 -4 24 C-3.67 24.99 -3.34 25.98 -3 27 C-7.29 27 -11.58 27 -16 27 C-14.68 25.35 -13.36 23.7 -12 22 C-11.33314062 19.45672892 -11.33314062 19.45672892 -12 17 C-13.89584109 14.68622853 -13.89584109 14.68622853 -16 13 C-14.35 10.69 -12.7 8.38 -11 6 C-10.071875 6.37125 -9.14375 6.7425 -8.1875 7.125 C-6.6096875 7.558125 -6.6096875 7.558125 -5 8 C-1.39345961 5.59563974 -1.14547068 4.05320393 0 0 Z " fill="#E8EAF1" transform="translate(99,18)"/>
<path d="M0 0 C5.61 0 11.22 0 17 0 C16.34 2.31 15.68 4.62 15 7 C14.34 7.33 13.68 7.66 13 8 C13 8.99 13 9.98 13 11 C12.34 11 11.68 11 11 11 C10.01 12.485 10.01 12.485 9 14 C7.66666667 14.66666667 6.33333333 15.33333333 5 16 C3.62913085 17.29470975 2.28659163 18.62150897 1 20 C0.67 19.34 0.34 18.68 0 18 C-5.94 17.67 -11.88 17.34 -18 17 C-17.34 15.35 -16.68 13.7 -16 12 C-16.33 11.34 -16.66 10.68 -17 10 C-16.01 10 -15.02 10 -14 10 C-14 9.34 -14 8.68 -14 8 C-11.525 8.99 -11.525 8.99 -9 10 C-8.7834375 9.1028125 -8.7834375 9.1028125 -8.5625 8.1875 C-8.1127561 6.43849596 -7.57107659 4.71322977 -7 3 C-3.535 2.505 -3.535 2.505 0 2 C0 1.34 0 0.68 0 0 Z " fill="#655DFE" transform="translate(59,69)"/>
<path d="M0 0 C2.95887459 -0.08069658 5.9155659 -0.14034665 8.875 -0.1875 C9.71675781 -0.21263672 10.55851562 -0.23777344 11.42578125 -0.26367188 C12.23144531 -0.27333984 13.03710938 -0.28300781 13.8671875 -0.29296875 C14.98262939 -0.31653442 14.98262939 -0.31653442 16.12060547 -0.34057617 C17.05090576 -0.17199097 17.05090576 -0.17199097 18 0 C18.66 0.99 19.32 1.98 20 3 C19.34 3 18.68 3 18 3 C18.48895752 3.53012695 18.97791504 4.06025391 19.48168945 4.60644531 C21.44020753 7.69396922 21.34444238 9.65940544 21.29296875 13.296875 C21.28330078 14.50214844 21.27363281 15.70742187 21.26367188 16.94921875 C21.23853516 18.20347656 21.21339844 19.45773438 21.1875 20.75 C21.16719727 22.65458984 21.16719727 22.65458984 21.14648438 24.59765625 C21.1111324 27.73219844 21.06178248 30.86588545 21 34 C23.31 34 25.62 34 28 34 C28.33 34.99 28.66 35.98 29 37 C20.19039858 38.30512614 11.80960142 38.30512614 3 37 C3.33 36.01 3.66 35.02 4 34 C8.29 34 12.58 34 17 34 C17 27.4 17 20.8 17 14 C13.7 14 10.4 14 7 14 C7 11.03 7 8.06 7 5 C4.69 5 2.38 5 0 5 C0 3.35 0 1.7 0 0 Z " fill="#39C6D7" transform="translate(98,49)"/>
<path d="M0 0 C0.83265381 0.00523682 1.66530762 0.01047363 2.52319336 0.01586914 C3.42231445 0.0190918 4.32143555 0.02231445 5.24780273 0.02563477 C6.66609375 0.03820312 6.66609375 0.03820312 8.11303711 0.05102539 C9.06243164 0.05553711 10.01182617 0.06004883 10.98999023 0.06469727 C13.34356776 0.07652429 15.69702188 0.09300514 18.05053711 0.11352539 C18.07739123 2.42596331 18.09686552 4.73848809 18.11303711 7.05102539 C18.12463867 8.33879883 18.13624023 9.62657227 18.14819336 10.95336914 C18.05053711 14.11352539 18.05053711 14.11352539 17.05053711 15.11352539 C14.06187069 15.21363835 11.10143258 15.25226514 8.11303711 15.23852539 C7.27579102 15.24239258 6.43854492 15.24625977 5.57592773 15.25024414 C4.77477539 15.24895508 3.97362305 15.24766602 3.14819336 15.24633789 C2.41093018 15.24520996 1.67366699 15.24408203 0.9140625 15.24291992 C-0.94946289 15.11352539 -0.94946289 15.11352539 -2.94946289 14.11352539 C-2.94946289 12.46352539 -2.94946289 10.81352539 -2.94946289 9.11352539 C-5.25946289 9.11352539 -7.56946289 9.11352539 -9.94946289 9.11352539 C-9.94946289 8.78352539 -9.94946289 8.45352539 -9.94946289 8.11352539 C-7.63946289 8.11352539 -5.32946289 8.11352539 -2.94946289 8.11352539 C-2.94946289 6.46352539 -2.94946289 4.81352539 -2.94946289 3.11352539 C-5.25946289 3.11352539 -7.56946289 3.11352539 -9.94946289 3.11352539 C-9.94946289 2.78352539 -9.94946289 2.45352539 -9.94946289 2.11352539 C-8.81508789 1.96915039 -7.68071289 1.82477539 -6.51196289 1.67602539 C-3.54403693 1.2074055 -2.6260793 0.1529276 0 0 Z " fill="#35D4D0" transform="translate(15.949462890625,31.886474609375)"/>
<path d="M0 0 C1.58206422 0.00574487 3.16410406 0.01876032 4.74609375 0.03515625 C7.53046875 0.05578125 10.31484375 0.07640625 13.18359375 0.09765625 C13.18359375 6.03765625 13.18359375 11.97765625 13.18359375 18.09765625 C10.39921875 18.11828125 7.61484375 18.13890625 4.74609375 18.16015625 C3.86767822 18.16926025 2.9892627 18.17836426 2.08422852 18.18774414 C0.11713401 18.19488716 -1.84994246 18.14797518 -3.81640625 18.09765625 C-5.63756628 16.27649622 -4.94875705 13.79093861 -4.953125 11.37109375 C-4.94925781 10.62085937 -4.94539063 9.870625 -4.94140625 9.09765625 C-4.94527344 8.34742187 -4.94914062 7.5971875 -4.953125 6.82421875 C-4.94103514 0.12643386 -4.94103514 0.12643386 0 0 Z " fill="#61D6E5" transform="translate(109.81640625,95.90234375)"/>
<path d="M0 0 C1.08667969 0.02707031 2.17335938 0.05414063 3.29296875 0.08203125 C4.54013672 0.13423828 4.54013672 0.13423828 5.8125 0.1875 C5.87308594 1.42886719 5.93367188 2.67023437 5.99609375 3.94921875 C6.08053623 5.59115577 6.16518236 7.23308232 6.25 8.875 C6.28931641 9.69162109 6.32863281 10.50824219 6.36914062 11.34960938 C6.54496465 14.69026585 6.73119631 17.82089427 7.45703125 21.09375 C7.8125 23.1875 7.8125 23.1875 6.0625 26 C3.8125 28.1875 3.8125 28.1875 0.8125 28.1875 C0.4825 28.8475 0.1525 29.5075 -0.1875 30.1875 C-0.5175 23.5875 -0.8475 16.9875 -1.1875 10.1875 C-3.8275 10.1875 -6.4675 10.1875 -9.1875 10.1875 C-9.55218886 3.74466353 -9.55218886 3.74466353 -8.0625 1.46875 C-5.3504604 -0.38447706 -3.24426436 -0.10465369 0 0 Z " fill="#5A38FF" transform="translate(35.1875,48.8125)"/>
<path d="M0 0 C1.01725914 0.00424484 1.01725914 0.00424484 2.05506897 0.00857544 C4.19445391 0.01965834 6.33340055 0.0447389 8.47265625 0.0703125 C9.93423869 0.08035774 11.39582778 0.08948087 12.85742188 0.09765625 C16.41680604 0.11955825 19.97593828 0.15400384 23.53515625 0.1953125 C23.53515625 1.5153125 23.53515625 2.8353125 23.53515625 4.1953125 C17.59515625 4.6903125 17.59515625 4.6903125 11.53515625 5.1953125 C11.53515625 5.8553125 11.53515625 6.5153125 11.53515625 7.1953125 C17.14515625 7.5253125 22.75515625 7.8553125 28.53515625 8.1953125 C28.53515625 8.5253125 28.53515625 8.8553125 28.53515625 9.1953125 C11.70515625 9.1953125 -5.12484375 9.1953125 -22.46484375 9.1953125 C-22.46484375 8.8653125 -22.46484375 8.5353125 -22.46484375 8.1953125 C-16.52484375 7.7003125 -16.52484375 7.7003125 -10.46484375 7.1953125 C-10.13484375 6.2053125 -9.80484375 5.2153125 -9.46484375 4.1953125 C-11.11484375 4.1953125 -12.76484375 4.1953125 -14.46484375 4.1953125 C-14.46484375 3.5353125 -14.46484375 2.8753125 -14.46484375 2.1953125 C-9.46818653 0.56823201 -5.3100298 -0.04406664 0 0 Z " fill="#395EA3" transform="translate(66.46484375,53.8046875)"/>
<path d="M0 0 C2.64 0 5.28 0 8 0 C8.02887814 3.47914941 8.04675687 6.95826831 8.0625 10.4375 C8.07087891 11.43072266 8.07925781 12.42394531 8.08789062 13.44726562 C8.09272461 14.86362305 8.09272461 14.86362305 8.09765625 16.30859375 C8.10551147 17.62041626 8.10551147 17.62041626 8.11352539 18.95874023 C8 21 8 21 7 22 C5.5086609 22.01662231 4.01639195 21.963192 2.52734375 21.87890625 C1.62822266 21.83056641 0.72910156 21.78222656 -0.19726562 21.73242188 C-1.14279297 21.67634766 -2.08832031 21.62027344 -3.0625 21.5625 C-4.01189453 21.51029297 -4.96128906 21.45808594 -5.93945312 21.40429688 C-8.29326952 21.27418642 -10.64670699 21.13920888 -13 21 C-13 20.01 -13 19.02 -13 18 C-12.01 17.67 -11.02 17.34 -10 17 C-10.66 14.69 -11.32 12.38 -12 10 C-10.02 10.495 -10.02 10.495 -8 11 C-8 11.99 -8 12.98 -8 14 C-6.68 14.33 -5.36 14.66 -4 15 C-4 15.99 -4 16.98 -4 18 C-3.01 18 -2.02 18 -1 18 C-0.67 17.01 -0.34 16.02 0 15 C0.99 14.67 1.98 14.34 3 14 C3.33 11.69 3.66 9.38 4 7 C2.68 7 1.36 7 0 7 C0 4.69 0 2.38 0 0 Z " fill="#39D4D1" transform="translate(26,59)"/>
<path d="M0 0 C13.53 0 27.06 0 41 0 C41 1.65 41 3.3 41 5 C27.47 5 13.94 5 0 5 C0 3.35 0 1.7 0 0 Z " fill="#3C3D89" transform="translate(60,97)"/>
<path d="M0 0 C1.98 0 3.96 0 6 0 C7.60339848 3.11771927 8.18974141 4.39011689 7.125 7.8125 C6.75375 8.534375 6.3825 9.25625 6 10 C6.66 10.33 7.32 10.66 8 11 C7.34 12.65 6.68 14.3 6 16 C3.69 16 1.38 16 -1 16 C-1 16.99 -1 17.98 -1 19 C-2.65 19 -4.3 19 -6 19 C-6.226875 18.360625 -6.45375 17.72125 -6.6875 17.0625 C-7.85250896 14.72806339 -7.85250896 14.72806339 -10.625 14.25 C-11.40875 14.1675 -12.1925 14.085 -13 14 C-13.33 12.68 -13.66 11.36 -14 10 C-13.34 10 -12.68 10 -12 10 C-12.66 7.69 -13.32 5.38 -14 3 C-11.36 3 -8.72 3 -6 3 C-6.20625 4.11375 -6.4125 5.2275 -6.625 6.375 C-6.74875 7.57125 -6.8725 8.7675 -7 10 C-5.10244856 12.34973818 -5.10244856 12.34973818 -1.875 12.125 C-0.451875 12.063125 -0.451875 12.063125 1 12 C1.29562367 6.67829506 1.29562367 6.67829506 -1 2 C-0.67 1.34 -0.34 0.68 0 0 Z " fill="#EAEBF2" transform="translate(135,60)"/>
<path d="M0 0 C1.5631897 0.00785522 1.5631897 0.00785522 3.15795898 0.01586914 C4.28266602 0.0190918 5.40737305 0.02231445 6.56616211 0.02563477 C7.75016602 0.03401367 8.93416992 0.04239258 10.15405273 0.05102539 C11.34192383 0.05553711 12.52979492 0.06004883 13.75366211 0.06469727 C16.69967499 0.07652864 19.64558954 0.09301252 22.59155273 0.11352539 C20.65900502 2.13809919 18.95996585 3.53458331 16.59155273 5.11352539 C15.27155273 5.11352539 13.95155273 5.11352539 12.59155273 5.11352539 C12.59155273 4.45352539 12.59155273 3.79352539 12.59155273 3.11352539 C7.63458693 4.35276684 5.47496807 5.89930297 2.59155273 10.11352539 C3.58155273 11.10352539 4.57155273 12.09352539 5.59155273 13.11352539 C6.25155273 12.45352539 6.91155273 11.79352539 7.59155273 11.11352539 C7.26155273 12.76352539 6.93155273 14.41352539 6.59155273 16.11352539 C3.29155273 16.11352539 -0.00844727 16.11352539 -3.40844727 16.11352539 C-3.43529822 13.63428738 -3.45521274 11.15533699 -3.47094727 8.67602539 C-3.48351563 7.61544922 -3.48351563 7.61544922 -3.49633789 6.53344727 C-3.50498314 4.7265898 -3.46064738 2.91964936 -3.40844727 1.11352539 C-2.40844727 0.11352539 -2.40844727 0.11352539 0 0 Z " fill="#40A8E5" transform="translate(36.408447265625,85.886474609375)"/>
<path d="M0 0 C0.99 0 1.98 0 3 0 C3 4.62 3 9.24 3 14 C12.57 14 22.14 14 32 14 C30.68 14.99 29.36 15.98 28 17 C28 17.66 28 18.32 28 19 C23.52084672 19.02886338 19.04171709 19.04675187 14.5625 19.0625 C13.28310547 19.07087891 12.00371094 19.07925781 10.68554688 19.08789062 C8.86313477 19.09272461 8.86313477 19.09272461 7.00390625 19.09765625 C5.87799072 19.10289307 4.7520752 19.10812988 3.59204102 19.11352539 C1 19 1 19 0 18 C-0.08631874 16.65732587 -0.10706473 15.31025678 -0.09765625 13.96484375 C-0.09443359 13.15595703 -0.09121094 12.34707031 -0.08789062 11.51367188 C-0.07951172 10.66353516 -0.07113281 9.81339844 -0.0625 8.9375 C-0.05798828 8.08349609 -0.05347656 7.22949219 -0.04882812 6.34960938 C-0.03700373 4.23304337 -0.01906769 2.11651315 0 0 Z " fill="#3CB5DE" transform="translate(41,49)"/>
<path d="M0 0 C2.12438339 -0.08078641 4.2496323 -0.13909141 6.375 -0.1875 C7.55835937 -0.22230469 8.74171875 -0.25710937 9.9609375 -0.29296875 C11.46527344 -0.14794922 11.46527344 -0.14794922 13 0 C13.66 0.99 14.32 1.98 15 3 C14.67 3.66 14.34 4.32 14 5 C20.27 5.33 26.54 5.66 33 6 C33 6.66 33 7.32 33 8 C18.81 8 4.62 8 -10 8 C-10 7.34 -10 6.68 -10 6 C-7.98177083 5.609375 -5.96354167 5.21875 -3.9453125 4.828125 C-1.80995329 4.14287884 -1.80995329 4.14287884 -0.7421875 1.921875 C-0.49726562 1.28765625 -0.25234375 0.6534375 0 0 Z " fill="#ACCBFE" transform="translate(61,113)"/>
<path d="M0 0 C2.82588048 0.50720932 3.759269 1.14097336 5.4375 3.4375 C5.4375 4.0975 5.4375 4.7575 5.4375 5.4375 C7.0875 5.4375 8.7375 5.4375 10.4375 5.4375 C10.7675 6.7575 11.0975 8.0775 11.4375 9.4375 C7.8075 9.4375 4.1775 9.4375 0.4375 9.4375 C0.4375 11.0875 0.4375 12.7375 0.4375 14.4375 C1.0975 14.4375 1.7575 14.4375 2.4375 14.4375 C2.4375 15.0975 2.4375 15.7575 2.4375 16.4375 C-0.0625 18.0625 -0.0625 18.0625 -2.5625 19.4375 C-3.2225 18.1175 -3.8825 16.7975 -4.5625 15.4375 C-3.9025 15.4375 -3.2425 15.4375 -2.5625 15.4375 C-2.5625 13.4575 -2.5625 11.4775 -2.5625 9.4375 C-5.5325 9.4375 -8.5025 9.4375 -11.5625 9.4375 C-11.2325 8.1175 -10.9025 6.7975 -10.5625 5.4375 C-9.69625 5.31375 -9.69625 5.31375 -8.8125 5.1875 C-6.38570983 4.57645853 -6.38570983 4.57645853 -4.625 2.375 C-2.5625 0.4375 -2.5625 0.4375 0 0 Z " fill="#F8FDFD" transform="translate(121.5625,37.5625)"/>
<path d="M0 0 C1.98 0 3.96 0 6 0 C6.33 0.66 6.66 1.32 7 2 C9.8159849 2.46898963 9.8159849 2.46898963 13.0625 2.625 C14.71958984 2.73714844 14.71958984 2.73714844 16.41015625 2.8515625 C17.26480469 2.90054688 18.11945312 2.94953125 19 3 C19 3.66 19 4.32 19 5 C19.99 5.33 20.98 5.66 22 6 C21.01 6 20.02 6 19 6 C19 6.66 19 7.32 19 8 C18.34 8 17.68 8 17 8 C17 8.99 17 9.98 17 11 C14.35409986 11.02684679 11.70846904 11.04676357 9.0625 11.0625 C7.93038086 11.07506836 7.93038086 11.07506836 6.77539062 11.08789062 C4.85005687 11.09652441 2.92464419 11.05224333 1 11 C0 10 0 10 -0.09765625 7.71484375 C-0.08605469 6.79832031 -0.07445313 5.88179688 -0.0625 4.9375 C-0.05347656 4.01839844 -0.04445313 3.09929687 -0.03515625 2.15234375 C-0.02355469 1.44207031 -0.01195313 0.73179688 0 0 Z " fill="#C4DBFE" transform="translate(27,102)"/>
<path d="M0 0 C1.32 0 2.64 0 4 0 C4 6.6 4 13.2 4 20 C6.31 20 8.62 20 11 20 C11.33 20.99 11.66 21.98 12 23 C3.19039858 24.30512614 -5.19039858 24.30512614 -14 23 C-13.505 21.515 -13.505 21.515 -13 20 C-8.71 20 -4.42 20 0 20 C0 13.4 0 6.8 0 0 Z " fill="#4C4CA1" transform="translate(115,63)"/>
<path d="M0 0 C0 3.96 0 7.92 0 12 C-0.99 11.34 -1.98 10.68 -3 10 C-5.76655324 9.85754103 -8.42653306 9.81230555 -11.1875 9.875 C-12.31188477 9.88853516 -12.31188477 9.88853516 -13.45898438 9.90234375 C-15.30612654 9.92587422 -17.15310412 9.96174439 -19 10 C-18.67 8.35 -18.34 6.7 -18 5 C-16.68 5 -15.36 5 -14 5 C-14 4.01 -14 3.02 -14 2 C-14.99 1.67 -15.98 1.34 -17 1 C-11.29014022 0.25983299 -5.75813575 -0.10469338 0 0 Z " fill="#5F4FFC" transform="translate(127,86)"/>
<path d="M0 0 C1.31871094 -0.01224609 2.63742188 -0.02449219 3.99609375 -0.03710938 C5.90068359 -0.04000977 5.90068359 -0.04000977 7.84375 -0.04296875 C9.00068359 -0.04707764 10.15761719 -0.05118652 11.34960938 -0.05541992 C14.47736509 0.18575467 16.680892 0.85423629 19.5 2.1875 C18.5 4.1875 18.5 4.1875 16.84521484 4.80200195 C11.99200924 5.59975457 7.04404055 5.37340312 2.13769531 5.37280273 C0.13863013 5.37498512 -1.86039532 5.39349143 -3.859375 5.41210938 C-5.13039063 5.41404297 -6.40140625 5.41597656 -7.7109375 5.41796875 C-8.86899902 5.42207764 -10.02706055 5.42618652 -11.22021484 5.43041992 C-14.61310954 5.17912245 -17.33332989 4.39923908 -20.5 3.1875 C-20.17 2.5275 -19.84 1.8675 -19.5 1.1875 C-13.23640183 -0.60566158 -6.45139424 0.00315317 0 0 Z " fill="#EAEBF2" transform="translate(114.5,125.8125)"/>
<path d="M0 0 C0.38218767 1.65614657 0.71395102 3.32457024 1 5 C0 6 0 6 -2.68383789 6.11352539 C-3.85164795 6.10828857 -5.01945801 6.10305176 -6.22265625 6.09765625 C-7.48271484 6.09443359 -8.74277344 6.09121094 -10.04101562 6.08789062 C-11.38151109 6.07953403 -12.72200588 6.07106907 -14.0625 6.0625 C-15.40689942 6.0574866 -16.7513006 6.05292342 -18.09570312 6.04882812 C-21.39717941 6.03699488 -24.69856803 6.02050971 -28 6 C-28.33 5.01 -28.66 4.02 -29 3 C-25.48226591 1.4231256 -22.61555417 0.72283163 -18.76953125 0.5859375 C-17.80208984 0.54726563 -16.83464844 0.50859375 -15.83789062 0.46875 C-14.83951172 0.4378125 -13.84113281 0.406875 -12.8125 0.375 C-11.80251953 0.33632813 -10.79253906 0.29765625 -9.75195312 0.2578125 C-2.86928013 0 -2.86928013 0 0 0 Z " fill="#39C8D3" transform="translate(97,62)"/>
<path d="M0 0 C1.58206422 0.00574487 3.16410406 0.01876032 4.74609375 0.03515625 C7.53046875 0.05578125 10.31484375 0.07640625 13.18359375 0.09765625 C13.18359375 6.03765625 13.18359375 11.97765625 13.18359375 18.09765625 C10.39921875 18.11828125 7.61484375 18.13890625 4.74609375 18.16015625 C3.86767822 18.16926025 2.9892627 18.17836426 2.08422852 18.18774414 C0.11713401 18.19488716 -1.84994246 18.14797518 -3.81640625 18.09765625 C-5.63756628 16.27649622 -4.94875705 13.79093861 -4.953125 11.37109375 C-4.94925781 10.62085937 -4.94539063 9.870625 -4.94140625 9.09765625 C-4.94527344 8.34742187 -4.94914062 7.5971875 -4.953125 6.82421875 C-4.94103514 0.12643386 -4.94103514 0.12643386 0 0 Z M-1.25390625 3.66015625 C-3.43640297 7.06485113 -3.45375087 9.13195637 -2.81640625 13.09765625 C-0.88514523 15.77604198 -0.88514523 15.77604198 2.18359375 17.09765625 C5.99736885 17.09765625 8.20783923 16.94750696 11.12109375 14.41015625 C12.52176913 11.36162748 12.66786695 9.41838673 12.18359375 6.09765625 C10.74698064 3.57758781 10.74698064 3.57758781 8.18359375 2.09765625 C4.24343362 1.53477623 2.12577179 1.49369597 -1.25390625 3.66015625 Z " fill="#42C2ED" transform="translate(109.81640625,95.90234375)"/>
<path d="M0 0 C5.61 0 11.22 0 17 0 C17 2.64 17 5.28 17 8 C11.39 8 5.78 8 0 8 C0 5.36 0 2.72 0 0 Z " fill="#3C3F8B" transform="translate(15,34)"/>
<path d="M0 0 C1.32 0 2.64 0 4 0 C4 0.99 4 1.98 4 3 C5.32 3 6.64 3 8 3 C8.125 6.375 8.125 6.375 8 10 C7.34 10.66 6.68 11.32 6 12 C5.34 12 4.68 12 4 12 C3.67 12.66 3.34 13.32 3 14 C2.01 14 1.02 14 0 14 C0 13.01 0 12.02 0 11 C-1.65 10.67 -3.3 10.34 -5 10 C-5 7.69 -5 5.38 -5 3 C-3.35 2.67 -1.7 2.34 0 2 C0 1.34 0 0.68 0 0 Z " fill="#EEF9FB" transform="translate(22,63)"/>
<path d="M0 0 C0.9075 0.103125 1.815 0.20625 2.75 0.3125 C2.75 0.9725 2.75 1.6325 2.75 2.3125 C3.36875 2.580625 3.9875 2.84875 4.625 3.125 C6.75 4.3125 6.75 4.3125 8.75 7.3125 C7.46034824 8.68812854 6.12310707 10.02016393 4.75 11.3125 C4.09 11.3125 3.43 11.3125 2.75 11.3125 C2.75 10.3225 2.75 9.3325 2.75 8.3125 C2.09 8.3125 1.43 8.3125 0.75 8.3125 C0.42 9.9625 0.09 11.6125 -0.25 13.3125 C-2.25 13.3125 -2.25 13.3125 -4.875 11 C-7.25 8.3125 -7.25 8.3125 -7.25 5.3125 C-5.08299256 1.72860308 -4.2669666 0.41028525 0 0 Z " fill="#56CADB" transform="translate(46.25,88.6875)"/>
<path d="M0 0 C1.01725914 0.00424484 1.01725914 0.00424484 2.05506897 0.00857544 C4.19445391 0.01965834 6.33340055 0.0447389 8.47265625 0.0703125 C9.93423869 0.08035774 11.39582778 0.08948087 12.85742188 0.09765625 C16.41680604 0.11955825 19.97593828 0.15400384 23.53515625 0.1953125 C23.53515625 1.5153125 23.53515625 2.8353125 23.53515625 4.1953125 C10.99515625 4.1953125 -1.54484375 4.1953125 -14.46484375 4.1953125 C-14.46484375 3.5353125 -14.46484375 2.8753125 -14.46484375 2.1953125 C-9.46818653 0.56823201 -5.3100298 -0.04406664 0 0 Z " fill="#3769BD" transform="translate(66.46484375,53.8046875)"/>
<path d="M0 0 C0.66 0 1.32 0 2 0 C2.33 1.32 2.66 2.64 3 4 C6.3 4.33 9.6 4.66 13 5 C12.67 6.32 12.34 7.64 12 9 C9.4375 10.25 9.4375 10.25 7 11 C7 11.66 7 12.32 7 13 C6.01 13 5.02 13 4 13 C3.67 13.66 3.34 14.32 3 15 C1.68 15 0.36 15 -1 15 C-1.02693575 12.87506859 -1.04636628 10.75004088 -1.0625 8.625 C-1.07410156 7.44164063 -1.08570312 6.25828125 -1.09765625 5.0390625 C-1 2 -1 2 0 0 Z " fill="#6C73FE" transform="translate(103,109)"/>
<path d="M0 0 C1.60407328 -0.02708567 3.2082785 -0.04643483 4.8125 -0.0625 C5.70582031 -0.07410156 6.59914063 -0.08570312 7.51953125 -0.09765625 C10 0 10 0 13 1 C13 4.63 13 8.26 13 12 C9.37 12 5.74 12 2 12 C1.67 11.34 1.34 10.68 1 10 C1.66 10 2.32 10 3 10 C3.309375 9.360625 3.61875 8.72125 3.9375 8.0625 C5 6 5 6 6 5 C3.03 4.505 3.03 4.505 0 4 C0 3.67 0 3.34 0 3 C2.64 2.67 5.28 2.34 8 2 C5.36 1.67 2.72 1.34 0 1 C0 0.67 0 0.34 0 0 Z " fill="#7B94FE" transform="translate(102,70)"/>
<path d="M0 0 C1.32 0 2.64 0 4 0 C4 5.28 4 10.56 4 16 C4.99 16 5.98 16 7 16 C7 17.65 7 19.3 7 21 C4.69 21 2.38 21 0 21 C0 14.07 0 7.14 0 0 Z " fill="#41428D" transform="translate(26,81)"/>
<path d="M0 0 C0.99 0 1.98 0 3 0 C3 4.62 3 9.24 3 14 C6.63 14 10.26 14 14 14 C14 14.33 14 14.66 14 15 C12.35 15 10.7 15 9 15 C9.33 16.32 9.66 17.64 10 19 C8.52093108 19.02689216 7.04172517 19.04634621 5.5625 19.0625 C4.32693359 19.07990234 4.32693359 19.07990234 3.06640625 19.09765625 C1 19 1 19 0 18 C-0.08631874 16.65732587 -0.10706473 15.31025678 -0.09765625 13.96484375 C-0.09443359 13.15595703 -0.09121094 12.34707031 -0.08789062 11.51367188 C-0.07951172 10.66353516 -0.07113281 9.81339844 -0.0625 8.9375 C-0.05798828 8.08349609 -0.05347656 7.22949219 -0.04882812 6.34960938 C-0.03700373 4.23304337 -0.01906769 2.11651315 0 0 Z " fill="#3EA7E5" transform="translate(41,49)"/>
<path d="M0 0 C1.08667969 0.02707031 2.17335938 0.05414063 3.29296875 0.08203125 C4.54013672 0.13423828 4.54013672 0.13423828 5.8125 0.1875 C5.8125 1.8375 5.8125 3.4875 5.8125 5.1875 C2.1825 5.1875 -1.4475 5.1875 -5.1875 5.1875 C-5.1875 6.8375 -5.1875 8.4875 -5.1875 10.1875 C-6.5075 10.1875 -7.8275 10.1875 -9.1875 10.1875 C-9.55218886 3.74466353 -9.55218886 3.74466353 -8.0625 1.46875 C-5.3504604 -0.38447706 -3.24426436 -0.10465369 0 0 Z " fill="#3C3D89" transform="translate(35.1875,48.8125)"/>
<path d="M0 0 C2.31 0 4.62 0 7 0 C7.58267717 9.90551181 7.58267717 9.90551181 4 14 C1.8125 14.8125 1.8125 14.8125 0 15 C-1.47193312 12.05613377 -0.84936173 9.62609964 -0.5625 6.375 C-0.46066406 5.18648437 -0.35882813 3.99796875 -0.25390625 2.7734375 C-0.17011719 1.85820313 -0.08632812 0.94296875 0 0 Z " fill="#6B74FD" transform="translate(98,54)"/>
<path d="M0 0 C13.53 0 27.06 0 41 0 C41.495 0.99 41.495 0.99 42 2 C28.8 2 15.6 2 2 2 C2 2.66 2 3.32 2 4 C1.01 4 0.02 4 -1 4 C-0.67 2.68 -0.34 1.36 0 0 Z " fill="#34D0D5" transform="translate(42,45)"/>
<path d="M0 0 C1.49151396 0.05336684 2.98305054 0.10610554 4.47460938 0.15820312 C8.08752862 0.28574144 11.70006918 0.42173107 15.3125 0.5625 C15.3125 1.2225 15.3125 1.8825 15.3125 2.5625 C1.1225 2.5625 -13.0675 2.5625 -27.6875 2.5625 C-27.6875 1.9025 -27.6875 1.2425 -27.6875 0.5625 C-18.42274366 -0.62962415 -9.29994851 -0.36460202 0 0 Z " fill="#94BCFE" transform="translate(78.6875,118.4375)"/>
<path d="M0 0 C2.95887459 -0.08069658 5.9155659 -0.14034665 8.875 -0.1875 C9.71675781 -0.21263672 10.55851562 -0.23777344 11.42578125 -0.26367188 C12.23144531 -0.27333984 13.03710938 -0.28300781 13.8671875 -0.29296875 C14.98262939 -0.31653442 14.98262939 -0.31653442 16.12060547 -0.34057617 C17.05090576 -0.17199097 17.05090576 -0.17199097 18 0 C18.66 0.99 19.32 1.98 20 3 C15.72115394 5.1103435 11.86135858 5.24128739 7.1875 5.125 C6.14819336 5.11146484 6.14819336 5.11146484 5.08789062 5.09765625 C3.39177605 5.07426157 1.69584129 5.03839641 0 5 C0 3.35 0 1.7 0 0 Z " fill="#34ACC5" transform="translate(98,49)"/>
<path d="M0 0 C1.67542976 0.28604898 3.34385343 0.61781233 5 1 C3.68 1.33 2.36 1.66 1 2 C1 4.97 1 7.94 1 11 C4.63 11 8.26 11 12 11 C11.34 12.32 10.68 13.64 10 15 C8.54176788 15.0270043 7.08339325 15.04639787 5.625 15.0625 C4.81289063 15.07410156 4.00078125 15.08570313 3.1640625 15.09765625 C1 15 1 15 -1 14 C-1 12.35 -1 10.7 -1 9 C-3.31 9 -5.62 9 -8 9 C-8 8.67 -8 8.34 -8 8 C-5.69 8 -3.38 8 -1 8 C-1 6.35 -1 4.7 -1 3 C-3.31 3 -5.62 3 -8 3 C-8 2.67 -8 2.34 -8 2 C-6.865625 1.855625 -5.73125 1.71125 -4.5625 1.5625 C-1.19222799 1.38828522 -1.19222799 1.38828522 0 0 Z " fill="#34D1D4" transform="translate(14,32)"/>
<path d="M0 0 C2.64 0 5.28 0 8 0 C8 3.63 8 7.26 8 11 C7.34 11 6.68 11 6 11 C5.67 12.32 5.34 13.64 5 15 C4.34 14.67 3.68 14.34 3 14 C3.33 11.69 3.66 9.38 4 7 C2.68 7 1.36 7 0 7 C0 4.69 0 2.38 0 0 Z " fill="#44C7D8" transform="translate(26,59)"/>
<path d="M0 0 C1.32 0 2.64 0 4 0 C4 6.6 4 13.2 4 20 C2.68 19.67 1.36 19.34 0 19 C0 12.73 0 6.46 0 0 Z " fill="#3E3E8B" transform="translate(115,63)"/>
<path d="M0 0 C1.67542976 0.28604898 3.34385343 0.61781233 5 1 C6.00619398 5.3266341 6.36822864 8.12471677 4 12 C1.4140625 13.140625 1.4140625 13.140625 -1 14 C-1.02685938 11.85423363 -1.04633088 9.70837355 -1.0625 7.5625 C-1.07410156 6.36753906 -1.08570312 5.17257813 -1.09765625 3.94140625 C-1 1 -1 1 0 0 Z " fill="#33C7DF" transform="translate(106,33)"/>
<path d="M0 0 C8.58 0 17.16 0 26 0 C25.67 0.99 25.34 1.98 25 3 C17.08 3 9.16 3 1 3 C0.67 2.01 0.34 1.02 0 0 Z " fill="#4C4CA0" transform="translate(101,124)"/>
<path d="M0 0 C4.29 0 8.58 0 13 0 C11.68 0.99 10.36 1.98 9 3 C8.20376178 5.09415804 8.20376178 5.09415804 8 7 C7.34 7 6.68 7 6 7 C5.67 7.99 5.34 8.98 5 10 C3.68 10 2.36 10 1 10 C1.020625 8.906875 1.04125 7.81375 1.0625 6.6875 C1.18544452 3.05615809 1.18544452 3.05615809 0 0 Z " fill="#71D5E3" transform="translate(110,33)"/>
<path d="M0 0 C0 3.3 0 6.6 0 10 C-1.98 10 -3.96 10 -6 10 C-7.4606285 7.35261084 -8 6.10551666 -8 3 C-5.50752711 -0.54193516 -4.7596806 0 0 0 Z " fill="#39CFD1" transform="translate(60,87)"/>
<path d="M0 0 C1.48828125 1.08203125 1.48828125 1.08203125 3 3 C3.29296875 6.13671875 3.29296875 6.13671875 3.1875 9.6875 C3.14689453 11.45673828 3.14689453 11.45673828 3.10546875 13.26171875 C3.07066406 14.16535156 3.03585938 15.06898437 3 16 C1.68 16.33 0.36 16.66 -1 17 C-1.02684679 14.35409986 -1.04676357 11.70846904 -1.0625 9.0625 C-1.07087891 8.30775391 -1.07925781 7.55300781 -1.08789062 6.77539062 C-1.09652441 4.85005687 -1.05224333 2.92464419 -1 1 C-0.67 0.67 -0.34 0.34 0 0 Z " fill="#707FFE" transform="translate(124,95)"/>
<path d="M0 0 C1.24716797 0.00322266 2.49433594 0.00644531 3.77929688 0.00976562 C5.07287109 0.01814453 6.36644531 0.02652344 7.69921875 0.03515625 C9.66858398 0.04192383 9.66858398 0.04192383 11.67773438 0.04882812 C14.91410885 0.06059676 18.15039053 0.07703865 21.38671875 0.09765625 C21.05671875 0.75765625 20.72671875 1.41765625 20.38671875 2.09765625 C19.73074707 2.11747559 19.07477539 2.13729492 18.39892578 2.15771484 C15.43610806 2.25278132 12.47401343 2.36253377 9.51171875 2.47265625 C7.96291016 2.5190625 7.96291016 2.5190625 6.3828125 2.56640625 C4.90361328 2.62441406 4.90361328 2.62441406 3.39453125 2.68359375 C2.4833252 2.71501465 1.57211914 2.74643555 0.63330078 2.77880859 C-1.81259311 2.89648136 -1.81259311 2.89648136 -3.61328125 5.09765625 C-6.34197532 5.06478042 -8.90994305 4.53367854 -11.61328125 4.09765625 C-11.61328125 3.10765625 -11.61328125 2.11765625 -11.61328125 1.09765625 C-7.68039761 0.16677716 -4.03673962 -0.0184326 0 0 Z " fill="#D9D9E8" transform="translate(106.61328125,125.90234375)"/>
<path d="M0 0 C7.59 0 15.18 0 23 0 C23 0.33 23 0.66 23 1 C19.37 1 15.74 1 12 1 C12 2.65 12 4.3 12 6 C12.66 6 13.32 6 14 6 C14 6.66 14 7.32 14 8 C11.5 9.625 11.5 9.625 9 11 C8.34 9.68 7.68 8.36 7 7 C7.66 7 8.32 7 9 7 C9 5.02 9 3.04 9 1 C6.03 1 3.06 1 0 1 C0 0.67 0 0.34 0 0 Z " fill="#9FE6E8" transform="translate(110,46)"/>
<path d="M0 0 C0.38218767 1.65614657 0.71395102 3.32457024 1 5 C0 6 0 6 -2.72265625 6.09765625 C-4.37587891 6.08025391 -4.37587891 6.08025391 -6.0625 6.0625 C-7.16722656 6.05347656 -8.27195312 6.04445313 -9.41015625 6.03515625 C-10.69212891 6.01775391 -10.69212891 6.01775391 -12 6 C-12 5.34 -12 4.68 -12 4 C-11.34 4 -10.68 4 -10 4 C-10 3.34 -10 2.68 -10 2 C-8.7090864 1.66376204 -7.41723903 1.33110751 -6.125 1 C-5.40570313 0.814375 -4.68640625 0.62875 -3.9453125 0.4375 C-2 0 -2 0 0 0 Z " fill="#37D5CC" transform="translate(97,62)"/>
<path d="M0 0 C0.99 0 1.98 0 3 0 C3 3.63 3 7.26 3 11 C2.01 10.34 1.02 9.68 0 9 C-2.28648848 8.75892674 -2.28648848 8.75892674 -4.6875 8.875 C-5.49574219 8.89304687 -6.30398437 8.91109375 -7.13671875 8.9296875 C-7.75160156 8.95289062 -8.36648437 8.97609375 -9 9 C-8.0409375 8.5978125 -8.0409375 8.5978125 -7.0625 8.1875 C-4.66868314 7.11332248 -4.66868314 7.11332248 -4 4 C-2.35 3.67 -0.7 3.34 1 3 C0.34 2.34 -0.32 1.68 -1 1 C-0.67 0.67 -0.34 0.34 0 0 Z " fill="#6761FF" transform="translate(124,87)"/>
<path d="M0 0 C0.33 0.66 0.66 1.32 1 2 C3.97 2 6.94 2 10 2 C10 3.98 10 5.96 10 8 C9.01 8.33 8.02 8.66 7 9 C7 7.68 7 6.36 7 5 C1.06 4.67 -4.88 4.34 -11 4 C-11 3.34 -11 2.68 -11 2 C-9.39125 2.061875 -9.39125 2.061875 -7.75 2.125 C-4.34252515 2.0114175 -2.79260369 1.78726636 0 0 Z " fill="#6DD5DF" transform="translate(109,45)"/>
<path d="M0 0 C0.33 0 0.66 0 1 0 C1 5.28 1 10.56 1 16 C-3.95 16 -8.9 16 -14 16 C-13.67 15.34 -13.34 14.68 -13 14 C-11.39125 14.061875 -11.39125 14.061875 -9.75 14.125 C-6.34287835 14.01142928 -4.73773233 13.89535315 -2 12 C-0.7018576 9.7763932 -0.7018576 9.7763932 -1 6 C-1 2 -1 2 0 0 Z " fill="#37D9CD" transform="translate(122,98)"/>
<path d="M0 0 C1.32 0.66 2.64 1.32 4 2 C3.01 2.33 2.02 2.66 1 3 C1 3.66 1 4.32 1 5 C-3.29 5 -7.58 5 -12 5 C-12.33 4.01 -12.66 3.02 -13 2 C-11.20909747 1.80533668 -9.41723495 1.61948787 -7.625 1.4375 C-6.12839844 1.28087891 -6.12839844 1.28087891 -4.6015625 1.12109375 C-2 1 -2 1 0 2 C0 1.34 0 0.68 0 0 Z " fill="#47D6D0" transform="translate(46,100)"/>
<path d="M0 0 C3.375 -0.125 3.375 -0.125 7 0 C7.66 0.66 8.32 1.32 9 2 C9.66 1.34 10.32 0.68 11 0 C10.67 1.65 10.34 3.3 10 5 C6.7 5 3.4 5 0 5 C0 3.35 0 1.7 0 0 Z " fill="#36AEC6" transform="translate(33,97)"/>
<path d="M0 0 C3.3 0 6.6 0 10 0 C9 2 9 2 7.0625 2.875 C4.5484857 4.24628053 4.2174555 5.4839253 3 8 C2.01 8.33 1.02 8.66 0 9 C0 6.03 0 3.06 0 0 Z " fill="#3DBBDE" transform="translate(105,54)"/>
<path d="M0 0 C-0.08708669 1.45945288 -0.19526907 2.91765868 -0.3125 4.375 C-0.37050781 5.18710938 -0.42851563 5.99921875 -0.48828125 6.8359375 C-1 9 -1 9 -4 11 C-5.32 9.35 -6.64 7.7 -8 6 C-3.375 0 -3.375 0 0 0 Z " fill="#3EB5DD" transform="translate(46,89)"/>
<path d="M0 0 C1.67542976 0.28604898 3.34385343 0.61781233 5 1 C3.68 1.33 2.36 1.66 1 2 C1 4.97 1 7.94 1 11 C0.01 11.495 0.01 11.495 -1 12 C-1 11.01 -1 10.02 -1 9 C-3.31 9 -5.62 9 -8 9 C-8 8.67 -8 8.34 -8 8 C-5.69 8 -3.38 8 -1 8 C-1 6.35 -1 4.7 -1 3 C-3.31 3 -5.62 3 -8 3 C-8 2.67 -8 2.34 -8 2 C-6.865625 1.855625 -5.73125 1.71125 -4.5625 1.5625 C-1.19222799 1.38828522 -1.19222799 1.38828522 0 0 Z " fill="#6DD2E5" transform="translate(14,32)"/>
<path d="M0 0 C1.23556641 0.01740234 1.23556641 0.01740234 2.49609375 0.03515625 C3.32238281 0.04417969 4.14867187 0.05320312 5 0.0625 C5.63808594 0.07410156 6.27617188 0.08570312 6.93359375 0.09765625 C6.60359375 0.75765625 6.27359375 1.41765625 5.93359375 2.09765625 C4.72703125 2.25234375 4.72703125 2.25234375 3.49609375 2.41015625 C2.65046875 2.63703125 1.80484375 2.86390625 0.93359375 3.09765625 C-0.29930826 5.55470387 -0.29930826 5.55470387 -1.06640625 8.09765625 C-2.05640625 8.59265625 -2.05640625 8.59265625 -3.06640625 9.09765625 C-3.1640625 2.9453125 -3.1640625 2.9453125 -3.06640625 1.09765625 C-2.06640625 0.09765625 -2.06640625 0.09765625 0 0 Z " fill="#4397EA" transform="translate(36.06640625,85.90234375)"/>
<path d="M0 0 C0.66 0 1.32 0 2 0 C2 3.3 2 6.6 2 10 C0.35 10 -1.3 10 -3 10 C-3 5.66905042 -2.03435531 3.72965139 0 0 Z " fill="#35D7C6" transform="translate(32,70)"/>
<path d="M0 0 C5.61 0 11.22 0 17 0 C16.67 1.32 16.34 2.64 16 4 C13.69 4.33 11.38 4.66 9 5 C9.66 3.68 10.32 2.36 11 1 C7.37 1 3.74 1 0 1 C0 0.67 0 0.34 0 0 Z " fill="#34C1C8" transform="translate(15,42)"/>
<path d="M0 0 C0.99 0 1.98 0 3 0 C3 3.96 3 7.92 3 12 C2.34 12 1.68 12 1 12 C0.67 12.66 0.34 13.32 0 14 C0 9.38 0 4.76 0 0 Z " fill="#5F4DFE" transform="translate(102,97)"/>
<path d="M0 0 C2.64 0 5.28 0 8 0 C7.67 1.32 7.34 2.64 7 4 C6.01 4 5.02 4 4 4 C4 4.66 4 5.32 4 6 C2.68 6 1.36 6 0 6 C0 4.02 0 2.04 0 0 Z " fill="#37AFCF" transform="translate(26,59)"/>
<path d="M0 0 C3 0 3 0 4.6875 1.5625 C6.43416783 4.80631168 6.20922503 7.37343285 6 11 C4.68 11 3.36 11 2 11 C2 8.03 2 5.06 2 2 C1.34 2 0.68 2 0 2 C0 1.34 0 0.68 0 0 Z " fill="#34C0C5" transform="translate(113,52)"/>
<path d="M0 0 C3.63 0 7.26 0 11 0 C8 3 8 3 5 5 C3.68 5 2.36 5 1 5 C1 4.34 1 3.68 1 3 C0.01 3.33 -0.98 3.66 -2 4 C-2 3.34 -2 2.68 -2 2 C-1.34 2 -0.68 2 0 2 C0 1.34 0 0.68 0 0 Z " fill="#3EB7DE" transform="translate(48,86)"/>
<path d="M0 0 C0.99 0 1.98 0 3 0 C3.08121924 1.60332791 3.13929134 3.20784026 3.1875 4.8125 C3.23970703 6.15248047 3.23970703 6.15248047 3.29296875 7.51953125 C3 10 3 10 0 13 C0 8.71 0 4.42 0 0 Z " fill="#3A95D8" transform="translate(41,49)"/>
<path d="M0 0 C2.31 0 4.62 0 7 0 C7 1.65 7 3.3 7 5 C4.69 5 2.38 5 0 5 C0 3.35 0 1.7 0 0 Z " fill="#3C3E8A" transform="translate(98,49)"/>
<path d="M0 0 C0 2.97 0 5.94 0 9 C-2.31 9 -4.62 9 -7 9 C-6.505 8.21625 -6.01 7.4325 -5.5 6.625 C-3.83462035 4.21447673 -3.83462035 4.21447673 -4 2 C-1 0 -1 0 0 0 Z " fill="#7998FE" transform="translate(127,115)"/>
<path d="M0 0 C2.6875 -0.3125 2.6875 -0.3125 5 0 C4.34 1.65 3.68 3.3 3 5 C4.32 5.66 5.64 6.32 7 7 C0.375 7.25 0.375 7.25 -3 5 C-1.8125 2.5 -1.8125 2.5 0 0 Z " fill="#39C2C9" transform="translate(26,74)"/>
<path d="M0 0 C4.62 0 9.24 0 14 0 C14.33 1.32 14.66 2.64 15 4 C14.01 4 13.02 4 12 4 C12 3.34 12 2.68 12 2 C8.37 2 4.74 2 1 2 C0.67 1.34 0.34 0.68 0 0 Z " fill="#58DAD4" transform="translate(83,45)"/>
<path d="M0 0 C0.66 0 1.32 0 2 0 C1.69128878 1.79232337 1.37790936 3.58384321 1.0625 5.375 C0.88847656 6.37273437 0.71445312 7.37046875 0.53515625 8.3984375 C0 11 0 11 -1 13 C-1.66 13 -2.32 13 -3 13 C-2.52060632 8.28596212 -2.03165952 4.33420699 0 0 Z " fill="#D6F1F6" transform="translate(47,89)"/>
<path d="M0 0 C3.3 0 6.6 0 10 0 C7 4 7 4 3.8125 4.75 C2.884375 4.8325 1.95625 4.915 1 5 C0.67 3.35 0.34 1.7 0 0 Z " fill="#4465B1" transform="translate(18,37)"/>
<path d="M0 0 C0.33 0 0.66 0 1 0 C1.36521739 5.47826087 1.36521739 5.47826087 -0.3125 7.875 C-2 9 -2 9 -5 9 C-4.38722388 6.03824877 -3.74627478 4.61941217 -2 2 C-1.34 2 -0.68 2 0 2 C0 1.34 0 0.68 0 0 Z " fill="#3AD7D5" transform="translate(119,102)"/>
<path d="M0 0 C-1.87949705 3.57104439 -3.17053157 5.54744301 -7 7 C-7.66 6.01 -8.32 5.02 -9 4 C-6.94469992 -0.11060016 -4.15744224 -0.22472661 0 0 Z " fill="#3AC3D5" transform="translate(60,87)"/>
<path d="M0 0 C1.67542976 0.28604898 3.34385343 0.61781233 5 1 C4.67 2.32 4.34 3.64 4 5 C2.68 5.33 1.36 5.66 0 6 C-0.38218767 4.34385343 -0.71395102 2.67542976 -1 1 C-0.67 0.67 -0.34 0.34 0 0 Z " fill="#49CFDC" transform="translate(22,67)"/>
<path d="M0 0 C4.51617599 -0.07654536 8.59085217 -0.10228696 13 1 C13 1.33 13 1.66 13 2 C9.37 2 5.74 2 2 2 C2 2.66 2 3.32 2 4 C1.01 4 0.02 4 -1 4 C-0.67 2.68 -0.34 1.36 0 0 Z " fill="#31C3DE" transform="translate(42,45)"/>
<path d="M0 0 C-0.66 1.32 -1.32 2.64 -2 4 C-3.98 4 -5.96 4 -8 4 C-7.1875 2.0625 -7.1875 2.0625 -6 0 C-3 -1 -3 -1 0 0 Z " fill="#35CDD9" transform="translate(126,34)"/>
<path d="M0 0 C0.66 0 1.32 0 2 0 C2.66 1.98 3.32 3.96 4 6 C3.34 6.66 2.68 7.32 2 8 C1.01 8 0.02 8 -1 8 C-1.125 2.25 -1.125 2.25 0 0 Z " fill="#6763FF" transform="translate(103,109)"/>
<path d="M0 0 C0.66 0 1.32 0 2 0 C2 1.65 2 3.3 2 5 C2.66 5.33 3.32 5.66 4 6 C2.68 6.99 1.36 7.98 0 9 C-0.66 7.68 -1.32 6.36 -2 5 C-1.34 5 -0.68 5 0 5 C0 3.35 0 1.7 0 0 Z " fill="#F6FCFC" transform="translate(119,48)"/>
<path d="M0 0 C2.97 0 5.94 0 9 0 C9 0.66 9 1.32 9 2 C6.29120665 3.35439668 3.99066732 3.06501451 1 3 C0.67 2.01 0.34 1.02 0 0 Z " fill="#50CFDA" transform="translate(33,102)"/>
<path d="M0 0 C1.32 1.32 2.64 2.64 4 4 C0.37 4 -3.26 4 -7 4 C-7 3.34 -7 2.68 -7 2 C-6.21625 2.04125 -5.4325 2.0825 -4.625 2.125 C-1.83883881 2.28728734 -1.83883881 2.28728734 0 0 Z " fill="#85DAE4" transform="translate(14,73)"/>
<path d="M0 0 C2.33944736 0.28730055 4.6739143 0.61936779 7 1 C6.01 1.66 5.02 2.32 4 3 C3.01 4.485 3.01 4.485 2 6 C1.34 6 0.68 6 0 6 C-0.38218767 4.34385343 -0.71395102 2.67542976 -1 1 C-0.67 0.67 -0.34 0.34 0 0 Z " fill="#DBF2F7" transform="translate(18,65)"/>
<path d="M0 0 C1.5 1.3125 1.5 1.3125 3 3 C3 3.99 3 4.98 3 6 C2.34 6 1.68 6 1 6 C0.67 6.66 0.34 7.32 0 8 C-1 7 -1 7 -1.125 4 C-1 1 -1 1 0 0 Z " fill="#6B72FE" transform="translate(124,95)"/>
<path d="M0 0 C0.66 0.99 1.32 1.98 2 3 C-1.01490557 4.00496852 -3.04181692 4.10335303 -6.1875 4.0625 C-7.53908203 4.04896484 -7.53908203 4.04896484 -8.91796875 4.03515625 C-9.60503906 4.02355469 -10.29210937 4.01195312 -11 4 C-11 3.34 -11 2.68 -11 2 C-9.39125 2.061875 -9.39125 2.061875 -7.75 2.125 C-4.34252515 2.0114175 -2.79260369 1.78726636 0 0 Z " fill="#8DCDE0" transform="translate(109,45)"/>
<path d="M0 0 C1.21346851 3.64040554 1.21346851 5.35959446 0 9 C-1.32 7.35 -2.64 5.7 -4 4 C-2.68 2.68 -1.36 1.36 0 0 Z " fill="#E5F6F9" transform="translate(42,91)"/>
<path d="M0 0 C3.3 0 6.6 0 10 0 C10 0.33 10 0.66 10 1 C7.36 1.33 4.72 1.66 2 2 C2 2.66 2 3.32 2 4 C1.01 4 0.02 4 -1 4 C-0.67 2.68 -0.34 1.36 0 0 Z " fill="#46AFF5" transform="translate(106,96)"/>
<path d="M0 0 C1.65 0 3.3 0 5 0 C5 1.32 5 2.64 5 4 C3.68 4 2.36 4 1 4 C0.67 4.66 0.34 5.32 0 6 C0 4.02 0 2.04 0 0 Z " fill="#3BD0DA" transform="translate(21,59)"/>
<path d="M0 0 C0.33 1.32 0.66 2.64 1 4 C-1.64 4 -4.28 4 -7 4 C-6.34 3.67 -5.68 3.34 -5 3 C-4.67 2.34 -4.34 1.68 -4 1 C-2 0 -2 0 0 0 Z " fill="#BED7FF" transform="translate(85,114)"/>
<path d="M0 0 C1.32 1.32 2.64 2.64 4 4 C2.02 4.99 2.02 4.99 0 6 C-0.38218767 4.34385343 -0.71395102 2.67542976 -1 1 C-0.67 0.67 -0.34 0.34 0 0 Z " fill="#3DCFE4" transform="translate(106,108)"/>
<path d="M0 0 C1.98 0.99 1.98 0.99 4 2 C4 2.99 4 3.98 4 5 C2.02 5.99 2.02 5.99 0 7 C0.2784375 6.1028125 0.2784375 6.1028125 0.5625 5.1875 C1.22093687 2.83591238 1.22093687 2.83591238 0 0 Z " fill="#E5F6F9" transform="translate(50,92)"/>
<path d="M0 0 C0.33 0 0.66 0 1 0 C1.6875 2.8125 1.6875 2.8125 2 6 C0.5625 7.875 0.5625 7.875 -1 9 C-2 8 -2 8 -2.1875 5.625 C-2 3 -2 3 0 0 Z " fill="#4296EA" transform="translate(43,59)"/>
<path d="M0 0 C1.32 0.33 2.64 0.66 4 1 C4 1.99 4 2.98 4 4 C4.99 4.66 5.98 5.32 7 6 C5.35 6.33 3.7 6.66 2 7 C1.34 4.69 0.68 2.38 0 0 Z " fill="#39CCDC" transform="translate(14,69)"/>
<path d="M0 0 C1.65 0 3.3 0 5 0 C5 0.66 5 1.32 5 2 C3.35 2 1.7 2 0 2 C0 1.34 0 0.68 0 0 Z " fill="#EAEAF1" transform="translate(7,81)"/>
<path d="M0 0 C2.31 0 4.62 0 7 0 C7 0.33 7 0.66 7 1 C4.69 1 2.38 1 0 1 C0 0.67 0 0.34 0 0 Z " fill="#EBEBF2" transform="translate(6,58)"/>
<path d="M0 0 C2.31 0 4.62 0 7 0 C7 0.33 7 0.66 7 1 C4.69 1 2.38 1 0 1 C0 0.67 0 0.34 0 0 Z " fill="#EBECF3" transform="translate(6,52)"/>
<path d="M0 0 C2.31 0 4.62 0 7 0 C7 0.33 7 0.66 7 1 C4.69 1 2.38 1 0 1 C0 0.67 0 0.34 0 0 Z " fill="#EAEAF1" transform="translate(6,46)"/>
</svg>
