<?xml version="1.0" encoding="UTF-8"?>
<svg version="1.1" xmlns="http://www.w3.org/2000/svg" width="150" height="150">
<path d="M0 0 C4.455 0.99 4.455 0.99 9 2 C8.9071875 3.3921875 8.9071875 3.3921875 8.8125 4.8125 C8.74760199 7.90747504 8.74760199 7.90747504 10.125 9.875 C12.78034983 11.4682099 14.96789518 11.20214032 18 11 C18.495 12.98 18.495 12.98 19 15 C19.85464844 14.98839844 20.70929688 14.97679687 21.58984375 14.96484375 C22.69457031 14.95582031 23.79929687 14.94679688 24.9375 14.9375 C26.03964844 14.92589844 27.14179688 14.91429687 28.27734375 14.90234375 C31 15 31 15 32 16 C32.08713831 17.70772358 32.10700007 19.41898649 32.09765625 21.12890625 C32.09443359 22.16337891 32.09121094 23.19785156 32.08789062 24.26367188 C32.07951172 25.35228516 32.07113281 26.44089844 32.0625 27.5625 C32.05798828 28.65498047 32.05347656 29.74746094 32.04882812 30.87304688 C32.03699826 33.58208495 32.02051543 36.29101599 32 39 C32.66 39 33.32 39 34 39 C34.2475 39.804375 34.495 40.60875 34.75 41.4375 C35.72238859 44.171081 35.72238859 44.171081 38.125 44.8125 C38.74375 44.874375 39.3625 44.93625 40 45 C40.33 46.32 40.66 47.64 41 49 C40.01 49.66 39.02 50.32 38 51 C38.3403125 52.1446875 38.3403125 52.1446875 38.6875 53.3125 C39 56 39 56 37.9375 57.8125 C35.24448045 59.46306037 33.09429572 59.20628638 30 59 C29.505 59.99 29.505 59.99 29 61 C27.35 60.67 25.7 60.34 24 60 C23.505 58.02 23.505 58.02 23 56 C21.35 55.67 19.7 55.34 18 55 C17.67 53.35 17.34 51.7 17 50 C17.99 50 18.98 50 20 50 C20.33 48.35 20.66 46.7 21 45 C19.35 45 17.7 45 16 45 C16 51.6 16 58.2 16 65 C18.31 65 20.62 65 23 65 C24 66 24 66 24.11352539 69.96899414 C24.1133662 71.74105607 24.10766785 73.5131226 24.09765625 75.28515625 C24.0962413 76.21597519 24.09482635 77.14679413 24.09336853 78.1058197 C24.08775172 81.09141191 24.0751964 84.07693029 24.0625 87.0625 C24.05748716 89.08137913 24.05292388 91.10025943 24.04882812 93.11914062 C24.03777683 98.07945572 24.02050095 103.03971532 24 108 C26.31 108.66 28.62 109.32 31 110 C30 112 30 112 28.34521484 112.61450195 C23.49200924 113.41225457 18.54404055 113.18590312 13.63769531 113.18530273 C11.63863013 113.18748512 9.63960468 113.20599143 7.640625 113.22460938 C6.36960937 113.22654297 5.09859375 113.22847656 3.7890625 113.23046875 C2.63100098 113.23457764 1.47293945 113.23868652 0.27978516 113.24291992 C-3.11310954 112.99162245 -5.83332989 112.21173908 -9 111 C-8.67 110.34 -8.34 109.68 -8 109 C-5.4375 108.375 -5.4375 108.375 -3 108 C-3.67857056 107.99191315 -4.35714111 107.98382629 -5.05627441 107.97549438 C-12.19572947 107.88863335 -19.33493245 107.7891071 -26.47412109 107.68261719 C-29.12938188 107.64363425 -31.7845665 107.60971702 -34.43994141 107.578125 C-72.93926359 107.11445232 -72.93926359 107.11445232 -80 103 C-79.67 101.35 -79.34 99.7 -79 98 C-80.093125 98 -81.18625 98 -82.3125 98 C-89 98 -89 98 -90.6875 96.5 C-91.120625 96.005 -91.55375 95.51 -92 95 C-91.649375 94.071875 -91.29875 93.14375 -90.9375 92.1875 C-89.67617372 89.0197047 -89.67617372 89.0197047 -91 86 C-91.99 85.67 -92.98 85.34 -94 85 C-93.25 79.25 -93.25 79.25 -91 77 C-89.66666667 77.33333333 -88.33333333 77.66666667 -87 78 C-84.71271266 76.16116119 -84.71271266 76.16116119 -84.875 73.375 C-84.91625 72.59125 -84.9575 71.8075 -85 71 C-82.36 70.67 -79.72 70.34 -77 70 C-77 68.35 -77 66.7 -77 65 C-83.27 65 -89.54 65 -96 65 C-96 64.34 -96 63.68 -96 63 C-93.03 62.505 -93.03 62.505 -90 62 C-90 61.01 -90 60.02 -90 59 C-91.98 59 -93.96 59 -96 59 C-96 58.34 -96 57.68 -96 57 C-94.02 57 -92.04 57 -90 57 C-90 55.68 -90 54.36 -90 53 C-91.98 53 -93.96 53 -96 53 C-96 52.34 -96 51.68 -96 51 C-94.02 51 -92.04 51 -90 51 C-90 49.68 -90 48.36 -90 47 C-91.98 47 -93.96 47 -96 47 C-96 46.34 -96 45.68 -96 45 C-94.02 45 -92.04 45 -90 45 C-90 44.01 -90 43.02 -90 42 C-91.98 41.67 -93.96 41.34 -96 41 C-96 40.67 -96 40.34 -96 40 C-89.73 40 -83.46 40 -77 40 C-77 38.35 -77 36.7 -77 35 C-83.27 35 -89.54 35 -96 35 C-96 34.67 -96 34.34 -96 34 C-93.525 33.505 -93.525 33.505 -91 33 C-90.67 31.68 -90.34 30.36 -90 29 C-91.98 29 -93.96 29 -96 29 C-96 28.67 -96 28.34 -96 28 C-94.35 27.67 -92.7 27.34 -91 27 C-90.67 25.68 -90.34 24.36 -90 23 C-91.98 23 -93.96 23 -96 23 C-96 22.67 -96 22.34 -96 22 C-94.35 21.67 -92.7 21.34 -91 21 C-90.67 19.68 -90.34 18.36 -90 17 C-91.98 17 -93.96 17 -96 17 C-96 16.67 -96 16.34 -96 16 C-90.11060037 13.95887931 -84.8280285 13.72721958 -78.625 13.8125 C-77.25408203 13.8134668 -77.25408203 13.8134668 -75.85546875 13.81445312 C-69.14064837 13.85935163 -69.14064837 13.85935163 -68 15 C-65.19023482 15.16017166 -62.40226404 15.25950534 -59.58984375 15.31640625 C-58.74780899 15.33718735 -57.90577423 15.35796844 -57.03822327 15.37937927 C-54.33806821 15.44496812 -51.63781283 15.50380276 -48.9375 15.5625 C-47.11131759 15.60567637 -45.28514546 15.64929036 -43.45898438 15.69335938 C-38.97276008 15.80065894 -34.4864345 15.90189966 -30 16 C-30 16.33 -30 16.66 -30 17 C-42.87 17 -55.74 17 -69 17 C-68.67 18.32 -68.34 19.64 -68 21 C-55.46 21.33 -42.92 21.66 -30 22 C-30 22.33 -30 22.66 -30 23 C-42.87 23 -55.74 23 -69 23 C-68.67 24.32 -68.34 25.64 -68 27 C-52.16 27 -36.32 27 -20 27 C-20.495 24.03 -20.495 24.03 -21 21 C-19.02 20.67 -17.04 20.34 -15 20 C-14.74984127 16.58357241 -14.74984127 16.58357241 -15 13 C-15.99 12.34 -16.98 11.68 -18 11 C-16.50902342 7.2047869 -14.24299151 5.38957269 -11 3 C-10.62875 3.515625 -10.2575 4.03125 -9.875 4.5625 C-7.98870213 6.3105536 -7.98870213 6.3105536 -4.9375 6 C-1.78570429 5.29951799 -1.78570429 5.29951799 -0.625 2.4375 C-0.41875 1.633125 -0.2125 0.82875 0 0 Z M-7 14.0625 C-9.51930235 17.76272533 -9.7066341 19.6031656 -9 24 C-7.59121904 26.9901643 -7.59121904 26.9901643 -5 29 C-1.35817665 29.89055736 -1.35817665 29.89055736 2 30 C2.03738281 29.01257813 2.07476562 28.02515625 2.11328125 27.0078125 C2.17902344 25.72648437 2.24476562 24.44515625 2.3125 23.125 C2.37050781 21.84882812 2.42851563 20.57265625 2.48828125 19.2578125 C2.65714844 18.18273437 2.82601562 17.10765625 3 16 C3.99 15.34 4.98 14.68 6 14 C4.01607489 11.60148679 4.01607489 11.60148679 0.1875 11.5625 C-3.21763815 11.661739 -4.029595 12.02034656 -7 14.0625 Z M-69 29 C-69 29.66 -69 30.32 -69 31 C-66.69 31 -64.38 31 -62 31 C-62 30.34 -62 29.68 -62 29 C-64.31 29 -66.62 29 -69 29 Z M24 47 C23.6366844 49.83386167 23.6431329 51.40522151 25.125 53.875 C27.92151052 55.55290631 29.93690532 54.74875648 33 54 C33.67673447 50.59679066 33.67673447 50.59679066 34 47 C32.11499729 44.68436913 32.11499729 44.68436913 29 44.75 C25.88500271 44.68436913 25.88500271 44.68436913 24 47 Z M-83.25 80.625 C-85.21985834 82.92308586 -85.21985834 82.92308586 -85.5 86 C-85.21376982 89.06575838 -85.21376982 89.06575838 -83.3125 91.375 C-80.61209763 93.27258004 -79.22939919 93.35882213 -76 93 C-75.85024761 85.94348748 -75.85024761 85.94348748 -77 79 C-80.92212225 78.60967296 -80.92212225 78.60967296 -83.25 80.625 Z M-71 95 C-71.33 96.65 -71.66 98.3 -72 100 C-68.85393539 99.85891477 -65.70821132 99.71123864 -62.5625 99.5625 C-61.68400391 99.52318359 -60.80550781 99.48386719 -59.90039062 99.44335938 C-54.23052738 99.17137332 -48.63551047 98.68222355 -43 98 C-42.67 97.01 -42.34 96.02 -42 95 C-51.57 95 -61.14 95 -71 95 Z M-18 95 C-18 95.99 -18 96.98 -18 98 C-12.72 98.33 -7.44 98.66 -2 99 C-2 97.68 -2 96.36 -2 95 C-7.28 95 -12.56 95 -18 95 Z " fill="#6667EE" transform="translate(103,18)"/>
<path d="M0 0 C1.37091797 0.0009668 1.37091797 0.0009668 2.76953125 0.00195312 C9.48435163 0.04685163 9.48435163 0.04685163 10.625 1.1875 C13.43476518 1.34767166 16.22273596 1.44700534 19.03515625 1.50390625 C19.87719101 1.52468735 20.71922577 1.54546844 21.58677673 1.56687927 C24.28693179 1.63246812 26.98718717 1.69130276 29.6875 1.75 C31.51368241 1.79317637 33.33985454 1.83679036 35.16601562 1.88085938 C39.65223992 1.98815894 44.1385655 2.08939966 48.625 2.1875 C48.625 2.5175 48.625 2.8475 48.625 3.1875 C35.755 3.1875 22.885 3.1875 9.625 3.1875 C9.955 4.5075 10.285 5.8275 10.625 7.1875 C23.165 7.5175 35.705 7.8475 48.625 8.1875 C48.625 8.5175 48.625 8.8475 48.625 9.1875 C35.755 9.1875 22.885 9.1875 9.625 9.1875 C9.955 10.5075 10.285 11.8275 10.625 13.1875 C11.80582153 13.22508423 11.80582153 13.22508423 13.01049805 13.26342773 C32.21638732 13.87589409 51.42108919 14.51561157 70.625 15.1875 C70.625 15.8475 70.625 16.5075 70.625 17.1875 C77.555 17.1875 84.485 17.1875 91.625 17.1875 C92.625 20.1875 92.625 20.1875 91.625 23.1875 C93.11 23.6825 93.11 23.6825 94.625 24.1875 C94.295 26.4975 93.965 28.8075 93.625 31.1875 C89.335 31.1875 85.045 31.1875 80.625 31.1875 C80.625 28.2175 80.625 25.2475 80.625 22.1875 C78.315 22.1875 76.005 22.1875 73.625 22.1875 C73.63547363 22.93435059 73.64594727 23.68120117 73.65673828 24.45068359 C73.6982077 27.82125508 73.72429729 31.191773 73.75 34.5625 C73.76675781 35.738125 73.78351563 36.91375 73.80078125 38.125 C73.80722656 39.24648437 73.81367187 40.36796875 73.8203125 41.5234375 C73.83078613 42.56032715 73.84125977 43.5972168 73.85205078 44.66552734 C73.625 47.1875 73.625 47.1875 71.625 49.1875 C69.3125 49.56640625 69.3125 49.56640625 66.625 49.75 C62.98781225 49.95967523 62.98781225 49.95967523 59.625 51.1875 C59.955 51.8475 60.285 52.5075 60.625 53.1875 C59.635 53.1875 58.645 53.1875 57.625 53.1875 C57.625 55.1675 57.625 57.1475 57.625 59.1875 C57.295 59.1875 56.965 59.1875 56.625 59.1875 C56.625 57.2075 56.625 55.2275 56.625 53.1875 C54.315 53.1875 52.005 53.1875 49.625 53.1875 C49.625 55.4975 49.625 57.8075 49.625 60.1875 C50.285 60.5175 50.945 60.8475 51.625 61.1875 C49.645 62.1775 49.645 62.1775 47.625 63.1875 C50.80009982 64.24586661 53.26782383 64.38993789 56.60546875 64.50390625 C57.76884766 64.54580078 58.93222656 64.58769531 60.13085938 64.63085938 C61.34580078 64.67017578 62.56074219 64.70949219 63.8125 64.75 C65.03904297 64.79318359 66.26558594 64.83636719 67.52929688 64.88085938 C70.56108381 64.9870309 73.59295315 65.08907952 76.625 65.1875 C76.625 66.8375 76.625 68.4875 76.625 70.1875 C63.095 70.1875 49.565 70.1875 35.625 70.1875 C35.13 71.6725 35.13 71.6725 34.625 73.1875 C26.375 73.1875 18.125 73.1875 9.625 73.1875 C9.295 72.1975 8.965 71.2075 8.625 70.1875 C6.315 70.1875 4.005 70.1875 1.625 70.1875 C1.625 63.9175 1.625 57.6475 1.625 51.1875 C-4.645 51.1875 -10.915 51.1875 -17.375 51.1875 C-17.375 50.5275 -17.375 49.8675 -17.375 49.1875 C-14.405 48.6925 -14.405 48.6925 -11.375 48.1875 C-11.375 47.1975 -11.375 46.2075 -11.375 45.1875 C-13.355 45.1875 -15.335 45.1875 -17.375 45.1875 C-17.375 44.5275 -17.375 43.8675 -17.375 43.1875 C-15.395 43.1875 -13.415 43.1875 -11.375 43.1875 C-11.375 41.8675 -11.375 40.5475 -11.375 39.1875 C-13.355 39.1875 -15.335 39.1875 -17.375 39.1875 C-17.375 38.5275 -17.375 37.8675 -17.375 37.1875 C-15.395 37.1875 -13.415 37.1875 -11.375 37.1875 C-11.375 35.8675 -11.375 34.5475 -11.375 33.1875 C-13.355 33.1875 -15.335 33.1875 -17.375 33.1875 C-17.375 32.5275 -17.375 31.8675 -17.375 31.1875 C-15.395 31.1875 -13.415 31.1875 -11.375 31.1875 C-11.375 30.1975 -11.375 29.2075 -11.375 28.1875 C-13.355 27.8575 -15.335 27.5275 -17.375 27.1875 C-17.375 26.8575 -17.375 26.5275 -17.375 26.1875 C-11.105 26.1875 -4.835 26.1875 1.625 26.1875 C1.625 24.5375 1.625 22.8875 1.625 21.1875 C-4.645 21.1875 -10.915 21.1875 -17.375 21.1875 C-17.375 20.8575 -17.375 20.5275 -17.375 20.1875 C-15.725 19.8575 -14.075 19.5275 -12.375 19.1875 C-12.045 17.8675 -11.715 16.5475 -11.375 15.1875 C-13.355 15.1875 -15.335 15.1875 -17.375 15.1875 C-17.375 14.8575 -17.375 14.5275 -17.375 14.1875 C-15.725 13.8575 -14.075 13.5275 -12.375 13.1875 C-12.045 11.8675 -11.715 10.5475 -11.375 9.1875 C-13.355 9.1875 -15.335 9.1875 -17.375 9.1875 C-17.375 8.8575 -17.375 8.5275 -17.375 8.1875 C-15.725 7.8575 -14.075 7.5275 -12.375 7.1875 C-12.045 5.8675 -11.715 4.5475 -11.375 3.1875 C-13.355 3.1875 -15.335 3.1875 -17.375 3.1875 C-17.375 2.8575 -17.375 2.5275 -17.375 2.1875 C-11.48560037 0.14637931 -6.2030285 -0.08528042 0 0 Z M9.625 15.1875 C9.625 15.8475 9.625 16.5075 9.625 17.1875 C11.935 17.1875 14.245 17.1875 16.625 17.1875 C16.625 16.5275 16.625 15.8675 16.625 15.1875 C14.315 15.1875 12.005 15.1875 9.625 15.1875 Z " fill="#5F4BFE" transform="translate(24.375,31.8125)"/>
<path d="M0 0 C0 2.97 0 5.94 0 9 C-0.969375 9.28875 -1.93875 9.5775 -2.9375 9.875 C-6.10664203 10.64214682 -6.10664203 10.64214682 -7 13 C-7.40270732 17.1283652 -7.40270732 17.1283652 -5.8125 20.8125 C-3.57968261 22.27538036 -1.62655933 22.64505955 1 23 C1 20.03 1 17.06 1 14 C2.98 14 4.96 14 7 14 C7.33 14.66 7.66 15.32 8 16 C16.25 16 24.5 16 33 16 C33.33 15.34 33.66 14.68 34 14 C47.53 14 61.06 14 75 14 C75 17.63 75 21.26 75 25 C69.72 25 64.44 25 59 25 C59 25.99 59 26.98 59 28 C59.56847656 27.98839844 60.13695313 27.97679688 60.72265625 27.96484375 C65.60670484 27.90776806 70.18503965 28.18043228 75 29 C75 31.64 75 34.28 75 37 C67.71409984 37.04682155 60.42823335 37.08211748 53.14221191 37.10362434 C49.75718789 37.11395864 46.37226851 37.12792229 42.98730469 37.15087891 C4.5625541 37.39227608 4.5625541 37.39227608 -3 33 C-2.67 31.35 -2.34 29.7 -2 28 C-3.093125 28 -4.18625 28 -5.3125 28 C-12 28 -12 28 -13.6875 26.5 C-14.120625 26.005 -14.55375 25.51 -15 25 C-14.649375 24.071875 -14.29875 23.14375 -13.9375 22.1875 C-12.67617372 19.0197047 -12.67617372 19.0197047 -14 16 C-14.99 15.67 -15.98 15.34 -17 15 C-16.25 9.25 -16.25 9.25 -14 7 C-12.66666667 7.33333333 -11.33333333 7.66666667 -10 8 C-7.71271266 6.16116119 -7.71271266 6.16116119 -7.875 3.375 C-7.91625 2.59125 -7.9575 1.8075 -8 1 C-5.07175348 0.02391783 -3.04386724 -0.08226668 0 0 Z M6 25 C5.67 26.65 5.34 28.3 5 30 C8.14606461 29.85891477 11.29178868 29.71123864 14.4375 29.5625 C15.31599609 29.52318359 16.19449219 29.48386719 17.09960938 29.44335938 C22.76947262 29.17137332 28.36448953 28.68222355 34 28 C34.33 27.01 34.66 26.02 35 25 C25.43 25 15.86 25 6 25 Z " fill="#AECDFE" transform="translate(26,88)"/>
<path d="M0 0 C16.83 0 33.66 0 51 0 C51 10.23 51 20.46 51 31 C34.17 31 17.34 31 0 31 C0 20.77 0 10.54 0 0 Z " fill="#474E94" transform="translate(44,47)"/>
<path d="M0 0 C4.455 0.99 4.455 0.99 9 2 C8.9071875 3.3921875 8.9071875 3.3921875 8.8125 4.8125 C8.74760199 7.90747504 8.74760199 7.90747504 10.125 9.875 C12.78034983 11.4682099 14.96789518 11.20214032 18 11 C18.495 12.98 18.495 12.98 19 15 C19.85464844 14.98839844 20.70929688 14.97679687 21.58984375 14.96484375 C22.69457031 14.95582031 23.79929687 14.94679688 24.9375 14.9375 C26.03964844 14.92589844 27.14179688 14.91429687 28.27734375 14.90234375 C31 15 31 15 32 16 C32.08713831 17.70772358 32.10700007 19.41898649 32.09765625 21.12890625 C32.09282227 22.68061523 32.09282227 22.68061523 32.08789062 24.26367188 C32.07532227 25.8965918 32.07532227 25.8965918 32.0625 27.5625 C32.05798828 28.65498047 32.05347656 29.74746094 32.04882812 30.87304688 C32.03699826 33.58208495 32.02051543 36.29101599 32 39 C32.66 39 33.32 39 34 39 C34.2475 39.804375 34.495 40.60875 34.75 41.4375 C35.72238859 44.171081 35.72238859 44.171081 38.125 44.8125 C38.74375 44.874375 39.3625 44.93625 40 45 C40.495 46.98 40.495 46.98 41 49 C40.01 49.66 39.02 50.32 38 51 C38.226875 51.763125 38.45375 52.52625 38.6875 53.3125 C39 56 39 56 37.9375 57.8125 C35.24448045 59.46306037 33.09429572 59.20628638 30 59 C29.505 59.99 29.505 59.99 29 61 C27.35 60.67 25.7 60.34 24 60 C23.505 58.02 23.505 58.02 23 56 C21.35 55.67 19.7 55.34 18 55 C17.67 53.35 17.34 51.7 17 50 C17.99 50 18.98 50 20 50 C20.33 48.35 20.66 46.7 21 45 C19.02 45 17.04 45 15 45 C15 42.69 15 40.38 15 38 C14.34 37.67 13.68 37.34 13 37 C13 35.35 13 33.7 13 32 C6.07 31.67 -0.86 31.34 -8 31 C-8 30.34 -8 29.68 -8 29 C-8.77375977 29.00523682 -9.54751953 29.01047363 -10.34472656 29.01586914 C-25.93250253 29.1070865 -41.44208313 29.01425302 -57 28 C-57 27.67 -57 27.34 -57 27 C-44.79 27 -32.58 27 -20 27 C-20.495 24.03 -20.495 24.03 -21 21 C-19.02 20.67 -17.04 20.34 -15 20 C-14.74984127 16.58357241 -14.74984127 16.58357241 -15 13 C-15.99 12.34 -16.98 11.68 -18 11 C-16.50902342 7.2047869 -14.24299151 5.38957269 -11 3 C-10.62875 3.515625 -10.2575 4.03125 -9.875 4.5625 C-7.98870213 6.3105536 -7.98870213 6.3105536 -4.9375 6 C-1.78570429 5.29951799 -1.78570429 5.29951799 -0.625 2.4375 C-0.41875 1.633125 -0.2125 0.82875 0 0 Z M-7 14.0625 C-9.51930235 17.76272533 -9.7066341 19.6031656 -9 24 C-7.59121904 26.9901643 -7.59121904 26.9901643 -5 29 C-1.35817665 29.89055736 -1.35817665 29.89055736 2 30 C2.03738281 29.01257813 2.07476562 28.02515625 2.11328125 27.0078125 C2.17902344 25.72648437 2.24476562 24.44515625 2.3125 23.125 C2.37050781 21.84882812 2.42851563 20.57265625 2.48828125 19.2578125 C2.65714844 18.18273437 2.82601562 17.10765625 3 16 C3.99 15.34 4.98 14.68 6 14 C4.01607489 11.60148679 4.01607489 11.60148679 0.1875 11.5625 C-3.21763815 11.661739 -4.029595 12.02034656 -7 14.0625 Z M24 47 C23.6366844 49.83386167 23.6431329 51.40522151 25.125 53.875 C27.92151052 55.55290631 29.93690532 54.74875648 33 54 C33.67673447 50.59679066 33.67673447 50.59679066 34 47 C32.11499729 44.68436913 32.11499729 44.68436913 29 44.75 C25.88500271 44.68436913 25.88500271 44.68436913 24 47 Z " fill="#52D5D9" transform="translate(103,18)"/>
<path d="M0 0 C2.31 0 4.62 0 7 0 C7 2.97 7 5.94 7 9 C11.62 9 16.24 9 21 9 C21 15.6 21 22.2 21 29 C23.31 29 25.62 29 28 29 C29 30 29 30 29.09765625 32.28515625 C29.08605469 33.20167969 29.07445312 34.11820313 29.0625 35.0625 C29.05347656 35.98160156 29.04445312 36.90070313 29.03515625 37.84765625 C29.02355469 38.55792969 29.01195312 39.26820312 29 40 C25.04504575 42.61537297 20.83172627 42.44264274 16.25 42.625 C15.06083984 42.68300781 15.06083984 42.68300781 13.84765625 42.7421875 C11.89880584 42.836108 9.94943549 42.91912822 8 43 C7.67 46.96 7.34 50.92 7 55 C6.34 55 5.68 55 5 55 C4.67 55.66 4.34 56.32 4 57 C3.505 44.625 3.505 44.625 3 32 C-0.8138777 30.09306115 -5.6262586 31.11198032 -9.8125 31.2578125 C-10.864375 31.17273438 -11.91625 31.08765625 -13 31 C-13.66 30.01 -14.32 29.02 -15 28 C-13.60974609 27.80083984 -13.60974609 27.80083984 -12.19140625 27.59765625 C-10.99386719 27.42105469 -9.79632813 27.24445313 -8.5625 27.0625 C-7.36753906 26.88847656 -6.17257813 26.71445313 -4.94140625 26.53515625 C-2.12044324 26.31014787 -2.12044324 26.31014787 -1 25 C-0.84213692 23.14825294 -0.74892644 21.2909089 -0.68359375 19.43359375 C-0.64169922 18.30888672 -0.59980469 17.18417969 -0.55664062 16.02539062 C-0.51732422 14.84138672 -0.47800781 13.65738281 -0.4375 12.4375 C-0.39431641 11.24962891 -0.35113281 10.06175781 -0.30664062 8.83789062 C-0.20016454 5.89205216 -0.09815159 2.9461257 0 0 Z " fill="#7184FD" transform="translate(98,54)"/>
<path d="M0 0 C0 2.97 0 5.94 0 9 C-0.969375 9.28875 -1.93875 9.5775 -2.9375 9.875 C-6.10664203 10.64214682 -6.10664203 10.64214682 -7 13 C-7.45565588 17.050918 -7.45565588 17.050918 -5.80859375 20.5859375 C-3.56396384 22.34091812 -1.55436719 22.93971804 1.1875 23.6875 C2.08855469 23.93886719 2.98960938 24.19023438 3.91796875 24.44921875 C4.60503906 24.63097656 5.29210937 24.81273438 6 25 C5.67 26.65 5.34 28.3 5 30 C5.70664795 29.84152588 6.4132959 29.68305176 7.14135742 29.51977539 C10.04175234 28.99240834 12.7938127 28.7938145 15.73828125 28.68359375 C17.33833008 28.62075195 17.33833008 28.62075195 18.97070312 28.55664062 C20.07349609 28.51732422 21.17628906 28.47800781 22.3125 28.4375 C23.43462891 28.39431641 24.55675781 28.35113281 25.71289062 28.30664062 C28.47514569 28.20085213 31.2374863 28.09876328 34 28 C33.67 28.66 33.34 29.32 33 30 C30.35139573 30.59355614 27.70802678 30.74209269 25 31 C25 31.66 25 32.32 25 33 C39.19 33 53.38 33 68 33 C67.67 32.34 67.34 31.68 67 31 C65.845 30.835 64.69 30.67 63.5 30.5 C62.345 30.335 61.19 30.17 60 30 C59.505 29.01 59.505 29.01 59 28 C64.45769811 27.88861841 69.61509359 28.08342019 75 29 C75 31.64 75 34.28 75 37 C67.71409984 37.04682155 60.42823335 37.08211748 53.14221191 37.10362434 C49.75718789 37.11395864 46.37226851 37.12792229 42.98730469 37.15087891 C4.5625541 37.39227608 4.5625541 37.39227608 -3 33 C-2.67 31.35 -2.34 29.7 -2 28 C-3.093125 28 -4.18625 28 -5.3125 28 C-12 28 -12 28 -13.6875 26.5 C-14.120625 26.005 -14.55375 25.51 -15 25 C-14.649375 24.071875 -14.29875 23.14375 -13.9375 22.1875 C-12.67617372 19.0197047 -12.67617372 19.0197047 -14 16 C-14.99 15.67 -15.98 15.34 -17 15 C-16.25 9.25 -16.25 9.25 -14 7 C-12.66666667 7.33333333 -11.33333333 7.66666667 -10 8 C-7.71271266 6.16116119 -7.71271266 6.16116119 -7.875 3.375 C-7.91625 2.59125 -7.9575 1.8075 -8 1 C-5.07175348 0.02391783 -3.04386724 -0.08226668 0 0 Z " fill="#EAEBF2" transform="translate(26,88)"/>
<path d="M0 0 C1.37091797 0.0009668 1.37091797 0.0009668 2.76953125 0.00195312 C9.48435163 0.04685163 9.48435163 0.04685163 10.625 1.1875 C13.43476518 1.34767166 16.22273596 1.44700534 19.03515625 1.50390625 C19.87719101 1.52468735 20.71922577 1.54546844 21.58677673 1.56687927 C24.28693179 1.63246812 26.98718717 1.69130276 29.6875 1.75 C31.51368241 1.79317637 33.33985454 1.83679036 35.16601562 1.88085938 C39.65223992 1.98815894 44.1385655 2.08939966 48.625 2.1875 C48.625 2.5175 48.625 2.8475 48.625 3.1875 C35.755 3.1875 22.885 3.1875 9.625 3.1875 C9.955 4.5075 10.285 5.8275 10.625 7.1875 C23.165 7.5175 35.705 7.8475 48.625 8.1875 C48.625 8.5175 48.625 8.8475 48.625 9.1875 C35.755 9.1875 22.885 9.1875 9.625 9.1875 C9.955 10.5075 10.285 11.8275 10.625 13.1875 C20.855 13.5175 31.085 13.8475 41.625 14.1875 C41.625 14.5175 41.625 14.8475 41.625 15.1875 C34.365 15.1875 27.105 15.1875 19.625 15.1875 C19.625 15.8475 19.625 16.5075 19.625 17.1875 C18.635 17.1875 17.645 17.1875 16.625 17.1875 C16.625 16.5275 16.625 15.8675 16.625 15.1875 C14.315 15.1875 12.005 15.1875 9.625 15.1875 C9.625 17.1675 9.625 19.1475 9.625 21.1875 C0.715 21.1875 -8.195 21.1875 -17.375 21.1875 C-17.375 20.8575 -17.375 20.5275 -17.375 20.1875 C-15.725 19.8575 -14.075 19.5275 -12.375 19.1875 C-12.045 17.8675 -11.715 16.5475 -11.375 15.1875 C-13.355 15.1875 -15.335 15.1875 -17.375 15.1875 C-17.375 14.8575 -17.375 14.5275 -17.375 14.1875 C-15.725 13.8575 -14.075 13.5275 -12.375 13.1875 C-12.045 11.8675 -11.715 10.5475 -11.375 9.1875 C-13.355 9.1875 -15.335 9.1875 -17.375 9.1875 C-17.375 8.8575 -17.375 8.5275 -17.375 8.1875 C-15.725 7.8575 -14.075 7.5275 -12.375 7.1875 C-12.045 5.8675 -11.715 4.5475 -11.375 3.1875 C-13.355 3.1875 -15.335 3.1875 -17.375 3.1875 C-17.375 2.8575 -17.375 2.5275 -17.375 2.1875 C-11.48560037 0.14637931 -6.2030285 -0.08528042 0 0 Z " fill="#9CE4E0" transform="translate(24.375,31.8125)"/>
<path d="M0 0 C0.99 0 1.98 0 3 0 C3 9.57 3 19.14 3 29 C19.83 29 36.66 29 54 29 C54 19.43 54 9.86 54 0 C60.93 0 67.86 0 75 0 C76 3 76 3 75 6 C75.99 6.33 76.98 6.66 78 7 C77.67 9.31 77.34 11.62 77 14 C72.71 14 68.42 14 64 14 C64 11.03 64 8.06 64 5 C61.69 5 59.38 5 57 5 C57.01571045 6.12027588 57.01571045 6.12027588 57.03173828 7.26318359 C57.0732077 10.63375508 57.09929729 14.004273 57.125 17.375 C57.14175781 18.550625 57.15851563 19.72625 57.17578125 20.9375 C57.18544922 22.61972656 57.18544922 22.61972656 57.1953125 24.3359375 C57.21102295 25.89127197 57.21102295 25.89127197 57.22705078 27.47802734 C57 30 57 30 55 32 C52.76086426 32.25396729 52.76086426 32.25396729 49.93945312 32.25878906 C48.35771301 32.26824554 48.35771301 32.26824554 46.74401855 32.27789307 C45.60130493 32.2738446 44.45859131 32.26979614 43.28125 32.265625 C41.52802429 32.26849518 41.52802429 32.26849518 39.73937988 32.27142334 C37.26456487 32.27278626 34.78974274 32.26908241 32.31494141 32.26074219 C28.51578795 32.25004446 24.71710741 32.26063418 20.91796875 32.2734375 C18.51822812 32.27211592 16.11848778 32.26955357 13.71875 32.265625 C12.00467957 32.27169769 12.00467957 32.27169769 10.25598145 32.27789307 C9.20148804 32.27158875 8.14699463 32.26528442 7.06054688 32.25878906 C6.1294812 32.25719788 5.19841553 32.25560669 4.23913574 32.25396729 C2 32 2 32 0 30 C-0.22705078 27.01904297 -0.22705078 27.01904297 -0.1953125 23.2421875 C-0.1924826 22.57913605 -0.18965271 21.91608459 -0.18673706 21.23294067 C-0.17553435 19.11344417 -0.15043051 16.99436896 -0.125 14.875 C-0.11497028 13.43880818 -0.10584441 12.00260975 -0.09765625 10.56640625 C-0.075595 7.04413372 -0.04106494 3.52210797 0 0 Z " fill="#37D2CB" transform="translate(41,49)"/>
<path d="M0 0 C1.81242052 -0.02687279 3.62495233 -0.04633715 5.4375 -0.0625 C6.44683594 -0.07410156 7.45617187 -0.08570313 8.49609375 -0.09765625 C11 0 11 0 12 1 C12.08713831 2.70772358 12.10700007 4.41898649 12.09765625 6.12890625 C12.09443359 7.16337891 12.09121094 8.19785156 12.08789062 9.26367188 C12.07951172 10.35228516 12.07113281 11.44089844 12.0625 12.5625 C12.05798828 13.65498047 12.05347656 14.74746094 12.04882812 15.87304688 C12.03699826 18.58208495 12.02051543 21.29101599 12 24 C12.66 24 13.32 24 14 24 C14.2475 24.804375 14.495 25.60875 14.75 26.4375 C15.72238859 29.171081 15.72238859 29.171081 18.125 29.8125 C19.053125 29.9053125 19.053125 29.9053125 20 30 C20.33 31.32 20.66 32.64 21 34 C20.01 34.66 19.02 35.32 18 36 C18.226875 36.763125 18.45375 37.52625 18.6875 38.3125 C19 41 19 41 17.9375 42.8125 C15.24448045 44.46306037 13.09429572 44.20628638 10 44 C9.67 44.66 9.34 45.32 9 46 C7.35 45.67 5.7 45.34 4 45 C3.67 43.68 3.34 42.36 3 41 C1.35 40.67 -0.3 40.34 -2 40 C-2.33 38.35 -2.66 36.7 -3 35 C-2.01 35 -1.02 35 0 35 C0.33 33.35 0.66 31.7 1 30 C-0.98 30 -2.96 30 -5 30 C-4.6875 27.125 -4.6875 27.125 -4 24 C-3.01 23.34 -2.02 22.68 -1 22 C-1.33 21.67 -1.66 21.34 -2 21 C-2.04080783 19.00041636 -2.04254356 16.99954746 -2 15 C-2.66 14.67 -3.32 14.34 -4 14 C0.95 14 5.9 14 11 14 C10.34 13.01 9.68 12.02 9 11 C8.21625 10.9175 7.4325 10.835 6.625 10.75 C3.53622692 9.86749341 3.25963665 9.29931075 1.6875 6.625 C0 3 0 3 0 0 Z M4 32 C3.6366844 34.83386167 3.6431329 36.40522151 5.125 38.875 C7.92151052 40.55290631 9.93690532 39.74875648 13 39 C13.67673447 35.59679066 13.67673447 35.59679066 14 32 C12.11499729 29.68436913 12.11499729 29.68436913 9 29.75 C5.88500271 29.68436913 5.88500271 29.68436913 4 32 Z " fill="#35DBC8" transform="translate(123,33)"/>
<path d="M0 0 C1.12019531 -0.00128906 2.24039063 -0.00257812 3.39453125 -0.00390625 C4.57402344 -0.00003906 5.75351562 0.00382812 6.96875 0.0078125 C8.73798828 0.00201172 8.73798828 0.00201172 10.54296875 -0.00390625 C12.22326172 -0.00197266 12.22326172 -0.00197266 13.9375 0 C14.97326172 0.00112793 16.00902344 0.00225586 17.07617188 0.00341797 C19.46875 0.1328125 19.46875 0.1328125 20.46875 1.1328125 C20.56861975 3.97616298 20.60752881 6.78978413 20.59375 9.6328125 C20.59955078 10.82970703 20.59955078 10.82970703 20.60546875 12.05078125 C20.59535767 18.00620483 20.59535767 18.00620483 19.46875 19.1328125 C17.62715977 19.23240871 15.78178033 19.26361661 13.9375 19.265625 C12.81730469 19.26691406 11.69710937 19.26820312 10.54296875 19.26953125 C9.36347656 19.26566406 8.18398438 19.26179688 6.96875 19.2578125 C5.19951172 19.26361328 5.19951172 19.26361328 3.39453125 19.26953125 C1.71423828 19.26759766 1.71423828 19.26759766 0 19.265625 C-1.03576172 19.26449707 -2.07152344 19.26336914 -3.13867188 19.26220703 C-5.53125 19.1328125 -5.53125 19.1328125 -6.53125 18.1328125 C-6.63111975 15.28946202 -6.67002881 12.47584087 -6.65625 9.6328125 C-6.66011719 8.83488281 -6.66398437 8.03695312 -6.66796875 7.21484375 C-6.65573175 0.007248 -6.65573175 0.007248 0 0 Z " fill="#42D8CD" transform="translate(39.53125,85.8671875)"/>
<path d="M0 0 C3.0000624 -0.02721831 5.99987256 -0.04694378 9 -0.0625 C9.83917969 -0.07087891 10.67835937 -0.07925781 11.54296875 -0.08789062 C12.79013672 -0.09272461 12.79013672 -0.09272461 14.0625 -0.09765625 C15.19365234 -0.10551147 15.19365234 -0.10551147 16.34765625 -0.11352539 C19.91451913 0.03914317 23.45744034 0.55718004 27 1 C27 7.93 27 14.86 27 22 C20.07 22 13.14 22 6 22 C6 21.01 6 20.02 6 19 C4.02 19 2.04 19 0 19 C0 18.34 0 17.68 0 17 C1.98 17 3.96 17 6 17 C6 15.68 6 14.36 6 13 C4.02 13 2.04 13 0 13 C0 12.34 0 11.68 0 11 C1.98 11 3.96 11 6 11 C6 9.68 6 8.36 6 7 C4.02 7 2.04 7 0 7 C0 6.34 0 5.68 0 5 C1.98 5 3.96 5 6 5 C6 4.01 6 3.02 6 2 C3.03 1.505 3.03 1.505 0 1 C0 0.67 0 0.34 0 0 Z " fill="#A4DFE9" transform="translate(7,58)"/>
<path d="M0 0 C1.23327026 0.0314209 1.23327026 0.0314209 2.49145508 0.06347656 C3.38413086 0.07636719 4.27680664 0.08925781 5.1965332 0.10253906 C6.12530273 0.13605469 7.05407227 0.16957031 8.01098633 0.20410156 C8.95135742 0.22214844 9.89172852 0.24019531 10.8605957 0.25878906 C13.18258522 0.30593606 15.50252322 0.37171925 17.82348633 0.45410156 C17.16348633 1.11410156 16.50348633 1.77410156 15.82348633 2.45410156 C16.15348633 3.11410156 16.48348633 3.77410156 16.82348633 4.45410156 C15.83348633 4.45410156 14.84348633 4.45410156 13.82348633 4.45410156 C13.82348633 6.43410156 13.82348633 8.41410156 13.82348633 10.45410156 C13.49348633 10.45410156 13.16348633 10.45410156 12.82348633 10.45410156 C12.82348633 8.47410156 12.82348633 6.49410156 12.82348633 4.45410156 C10.51348633 4.45410156 8.20348633 4.45410156 5.82348633 4.45410156 C5.82348633 6.76410156 5.82348633 9.07410156 5.82348633 11.45410156 C6.48348633 11.78410156 7.14348633 12.11410156 7.82348633 12.45410156 C5.84348633 13.44410156 5.84348633 13.44410156 3.82348633 14.45410156 C6.99858615 15.51246817 9.46631016 15.65653945 12.80395508 15.77050781 C13.96733398 15.81240234 15.13071289 15.85429688 16.3293457 15.89746094 C17.54428711 15.93677734 18.75922852 15.97609375 20.01098633 16.01660156 C21.2375293 16.05978516 22.46407227 16.10296875 23.7277832 16.14746094 C26.75957014 16.25363246 29.79143948 16.35568109 32.82348633 16.45410156 C32.82348633 18.10410156 32.82348633 19.75410156 32.82348633 21.45410156 C19.29348633 21.45410156 5.76348633 21.45410156 -8.17651367 21.45410156 C-8.50651367 16.17410156 -8.83651367 10.89410156 -9.17651367 5.45410156 C-7.85651367 5.12410156 -6.53651367 4.79410156 -5.17651367 4.45410156 C-4.69529053 3.7815332 -4.21406738 3.10896484 -3.71826172 2.41601562 C-2.17651367 0.45410156 -2.17651367 0.45410156 0 0 Z " fill="#6B72FE" transform="translate(68.176513671875,80.5458984375)"/>
<path d="M0 0 C1.32 0 2.64 0 4 0 C4 6.6 4 13.2 4 20 C6.31 20 8.62 20 11 20 C12 21 12 21 12.09765625 23.28515625 C12.08605469 24.20167969 12.07445313 25.11820313 12.0625 26.0625 C12.05347656 26.98160156 12.04445313 27.90070313 12.03515625 28.84765625 C12.02355469 29.55792969 12.01195313 30.26820312 12 31 C8.04504575 33.61537297 3.83172627 33.44264274 -0.75 33.625 C-1.93916016 33.68300781 -1.93916016 33.68300781 -3.15234375 33.7421875 C-5.10119416 33.836108 -7.05056451 33.91912822 -9 34 C-9.33 37.96 -9.66 41.92 -10 46 C-10.66 46 -11.32 46 -12 46 C-12.33 46.66 -12.66 47.32 -13 48 C-13.19619224 43.70868391 -13.38048583 39.41693898 -13.5625 35.125 C-13.61857422 33.90167969 -13.67464844 32.67835937 -13.73242188 31.41796875 C-13.78076172 30.25136719 -13.82910156 29.08476563 -13.87890625 27.8828125 C-13.9260376 26.80402832 -13.97316895 25.72524414 -14.02172852 24.61376953 C-14 22 -14 22 -13 20 C-8.71 20 -4.42 20 0 20 C0 13.4 0 6.8 0 0 Z " fill="#5A3AFF" transform="translate(115,63)"/>
<path d="M0 0 C2.97 0.66 5.94 1.32 9 2 C8.9071875 3.3921875 8.9071875 3.3921875 8.8125 4.8125 C8.74760199 7.90747504 8.74760199 7.90747504 10.125 9.875 C12.78034983 11.4682099 14.96789518 11.20214032 18 11 C18.495 12.98 18.495 12.98 19 15 C16.87527424 15.05386629 14.75016348 15.09273071 12.625 15.125 C10.84996094 15.15980469 10.84996094 15.15980469 9.0390625 15.1953125 C6 15 6 15 4 13 C-1.56377652 12.41262964 -1.56377652 12.41262964 -6.5 14.5625 C-8.53366895 17.86721204 -8.3468602 20.18453778 -8 24 C-7.67 24.99 -7.34 25.98 -7 27 C-11.29 27 -15.58 27 -20 27 C-20.33 25.02 -20.66 23.04 -21 21 C-19.02 20.67 -17.04 20.34 -15 20 C-14.74984127 16.58357241 -14.74984127 16.58357241 -15 13 C-15.99 12.34 -16.98 11.68 -18 11 C-16.50902342 7.2047869 -14.24299151 5.38957269 -11 3 C-10.443125 3.7734375 -10.443125 3.7734375 -9.875 4.5625 C-7.98870213 6.3105536 -7.98870213 6.3105536 -4.9375 6 C-1.78570429 5.29951799 -1.78570429 5.29951799 -0.625 2.4375 C-0.315625 1.2309375 -0.315625 1.2309375 0 0 Z " fill="#E8EAF1" transform="translate(103,18)"/>
<path d="M0 0 C1.58206057 0.00667536 3.16410534 0.0186375 4.74609375 0.03515625 C5.55240234 0.03966797 6.35871094 0.04417969 7.18945312 0.04882812 C9.18753131 0.06065107 11.18557158 0.07858711 13.18359375 0.09765625 C13.21043687 2.91021906 13.23035563 5.72252866 13.24609375 8.53515625 C13.25447266 9.33759766 13.26285156 10.14003906 13.27148438 10.96679688 C13.28010805 13.01060846 13.23587525 15.05449527 13.18359375 17.09765625 C11.36243372 18.91881628 8.87687611 18.23000705 6.45703125 18.234375 C5.70679687 18.23050781 4.9565625 18.22664063 4.18359375 18.22265625 C3.05824219 18.22845703 3.05824219 18.22845703 1.91015625 18.234375 C-3.68979572 18.22426678 -3.68979572 18.22426678 -4.81640625 17.09765625 C-4.91621839 14.42034245 -4.955205 11.7746145 -4.94140625 9.09765625 C-4.94527344 8.34742187 -4.94914062 7.5971875 -4.953125 6.82421875 C-4.94103514 0.12643386 -4.94103514 0.12643386 0 0 Z " fill="#41D0E3" transform="translate(109.81640625,95.90234375)"/>
<path d="M0 0 C0 3.96 0 7.92 0 12 C-4.20850591 12.05403217 -8.41631531 12.09369204 -12.625 12.125 C-14.40970703 12.15013672 -14.40970703 12.15013672 -16.23046875 12.17578125 C-17.96103516 12.18544922 -17.96103516 12.18544922 -19.7265625 12.1953125 C-21.31331787 12.21102295 -21.31331787 12.21102295 -22.93212891 12.22705078 C-26.23363888 11.98270857 -28.91412763 11.16882977 -32 10 C-32 9.67 -32 9.34 -32 9 C-30.02 8.67 -28.04 8.34 -26 8 C-26.33 7.67 -26.66 7.34 -27 7 C-27.04092937 4.66702567 -27.04241723 2.33294775 -27 0 C-22.87536584 -0.19622046 -18.75028427 -0.38050216 -14.625 -0.5625 C-13.449375 -0.61857422 -12.27375 -0.67464844 -11.0625 -0.73242188 C-9.94101563 -0.78076172 -8.81953125 -0.82910156 -7.6640625 -0.87890625 C-6.10872803 -0.94960327 -6.10872803 -0.94960327 -4.52197266 -1.02172852 C-2 -1 -2 -1 0 0 Z " fill="#758AFE" transform="translate(101,85)"/>
<path d="M0 0 C1.98 0 3.96 0 6 0 C6.33 0.66 6.66 1.32 7 2 C15.25 2 23.5 2 32 2 C32.33 1.34 32.66 0.68 33 0 C35.64 0 38.28 0 41 0 C40.34 0.33 39.68 0.66 39 1 C39 1.66 39 2.32 39 3 C38.34 3.61875 37.68 4.2375 37 4.875 C34.5430902 6.9991076 34.5430902 6.9991076 35 11 C30.33691801 11.02468646 25.67387392 11.04285349 21.01074219 11.05493164 C19.42382139 11.05996588 17.83690523 11.06679369 16.25 11.07543945 C13.97134251 11.08754482 11.69274624 11.09323733 9.4140625 11.09765625 C8.34679428 11.10539818 8.34679428 11.10539818 7.25796509 11.11329651 C2.22774341 11.11387171 2.22774341 11.11387171 0 10 C0 6.7 0 3.4 0 0 Z " fill="#C1D9FE" transform="translate(27,102)"/>
<path d="M0 0 C5.61 0 11.22 0 17 0 C17 5.61 17 11.22 17 17 C11.39 17 5.78 17 0 17 C0 11.39 0 5.78 0 0 Z " fill="#3E4E9A" transform="translate(15,34)"/>
<path d="M0 0 C0.66 0.33 1.32 0.66 2 1 C2 10.9 2 20.8 2 31 C-5.92 31 -13.84 31 -22 31 C-22 30.34 -22 29.68 -22 29 C-20.7934375 28.5359375 -20.7934375 28.5359375 -19.5625 28.0625 C-17.10919595 27.23664655 -17.10919595 27.23664655 -16 26 C-15.01 25.67 -14.02 25.34 -13 25 C-13 24.01 -13 23.02 -13 22 C-10.83909114 19.83909114 -5.7994153 20.27599869 -3 20 C-2.67 14.06 -2.34 8.12 -2 2 C-1.34 2 -0.68 2 0 2 C0 1.34 0 0.68 0 0 Z " fill="#7183FE" transform="translate(125,93)"/>
<path d="M0 0 C5.94 0 11.88 0 18 0 C19 3 19 3 18 6 C18.99 6.33 19.98 6.66 21 7 C20.67 9.31 20.34 11.62 20 14 C15.71 14 11.42 14 7 14 C7 11.03 7 8.06 7 5 C4.69 5 2.38 5 0 5 C0 3.35 0 1.7 0 0 Z " fill="#39C6D7" transform="translate(98,49)"/>
<path d="M0 0 C1.5631897 0.00785522 1.5631897 0.00785522 3.15795898 0.01586914 C4.28266602 0.0190918 5.40737305 0.02231445 6.56616211 0.02563477 C7.75016602 0.03401367 8.93416992 0.04239258 10.15405273 0.05102539 C11.34192383 0.05553711 12.52979492 0.06004883 13.75366211 0.06469727 C16.69967499 0.07652864 19.64558954 0.09301252 22.59155273 0.11352539 C22.92155273 0.77352539 23.25155273 1.43352539 23.59155273 2.11352539 C21.94155273 2.44352539 20.29155273 2.77352539 18.59155273 3.11352539 C18.59155273 3.77352539 18.59155273 4.43352539 18.59155273 5.11352539 C16.94155273 5.11352539 15.29155273 5.11352539 13.59155273 5.11352539 C13.59155273 6.10352539 13.59155273 7.09352539 13.59155273 8.11352539 C12.93155273 7.78352539 12.27155273 7.45352539 11.59155273 7.11352539 C11.92155273 6.12352539 12.25155273 5.13352539 12.59155273 4.11352539 C11.60155273 4.60852539 11.60155273 4.60852539 10.59155273 5.11352539 C10.26155273 6.10352539 9.93155273 7.09352539 9.59155273 8.11352539 C8.60155273 8.11352539 7.61155273 8.11352539 6.59155273 8.11352539 C6.26155273 7.45352539 5.93155273 6.79352539 5.59155273 6.11352539 C4.27155273 7.43352539 2.95155273 8.75352539 1.59155273 10.11352539 C4.06655273 12.09352539 4.06655273 12.09352539 6.59155273 14.11352539 C6.92155273 13.12352539 7.25155273 12.13352539 7.59155273 11.11352539 C7.26155273 12.76352539 6.93155273 14.41352539 6.59155273 16.11352539 C3.29155273 16.11352539 -0.00844727 16.11352539 -3.40844727 16.11352539 C-3.43529822 13.63428738 -3.45521274 11.15533699 -3.47094727 8.67602539 C-3.48351563 7.61544922 -3.48351563 7.61544922 -3.49633789 6.53344727 C-3.50498314 4.7265898 -3.46064738 2.91964936 -3.40844727 1.11352539 C-2.40844727 0.11352539 -2.40844727 0.11352539 0 0 Z " fill="#44AAE5" transform="translate(36.408447265625,85.886474609375)"/>
<path d="M0 0 C13.53 0 27.06 0 41 0 C41 1.65 41 3.3 41 5 C27.47 5 13.94 5 0 5 C0 3.35 0 1.7 0 0 Z " fill="#3C3D89" transform="translate(60,97)"/>
<path d="M0 0 C0.66 0 1.32 0 2 0 C2.2475 0.804375 2.495 1.60875 2.75 2.4375 C3.72238859 5.171081 3.72238859 5.171081 6.125 5.8125 C6.74375 5.874375 7.3625 5.93625 8 6 C8.33 7.32 8.66 8.64 9 10 C8.01 10.66 7.02 11.32 6 12 C6.3403125 13.1446875 6.3403125 13.1446875 6.6875 14.3125 C7 17 7 17 5.9375 18.8125 C3.24448045 20.46306037 1.09429572 20.20628638 -2 20 C-2.33 20.66 -2.66 21.32 -3 22 C-4.65 21.67 -6.3 21.34 -8 21 C-8.33 19.68 -8.66 18.36 -9 17 C-10.65 16.67 -12.3 16.34 -14 16 C-14.33 14.35 -14.66 12.7 -15 11 C-14.01 11 -13.02 11 -12 11 C-11.67 9.35 -11.34 7.7 -11 6 C-9.35 6 -7.7 6 -6 6 C-6.20625 7.11375 -6.4125 8.2275 -6.625 9.375 C-6.74875 10.57125 -6.8725 11.7675 -7 13 C-5.10244856 15.34973818 -5.10244856 15.34973818 -1.875 15.125 C-0.451875 15.063125 -0.451875 15.063125 1 15 C1.29562367 9.67829506 1.29562367 9.67829506 -1 5 C-0.625 2.3125 -0.625 2.3125 0 0 Z " fill="#E9EBF2" transform="translate(135,57)"/>
<path d="M0 0 C2.19921875 1.3671875 2.19921875 1.3671875 3.19921875 4.3671875 C4.84921875 4.3671875 6.49921875 4.3671875 8.19921875 4.3671875 C8.85921875 5.6871875 9.51921875 7.0071875 10.19921875 8.3671875 C3.76421875 8.8621875 3.76421875 8.8621875 -2.80078125 9.3671875 C-2.80078125 11.3471875 -2.80078125 13.3271875 -2.80078125 15.3671875 C-2.14078125 15.6971875 -1.48078125 16.0271875 -0.80078125 16.3671875 C-2.78078125 17.3571875 -2.78078125 17.3571875 -4.80078125 18.3671875 C-5.79078125 17.7071875 -6.78078125 17.0471875 -7.80078125 16.3671875 C-7.98828125 13.7421875 -7.98828125 13.7421875 -7.80078125 11.3671875 C-9.45078125 11.0371875 -11.10078125 10.7071875 -12.80078125 10.3671875 C-13.13078125 8.7171875 -13.46078125 7.0671875 -13.80078125 5.3671875 C-12.08506901 4.30350601 -10.35254524 3.26690578 -8.61328125 2.2421875 C-7.65035156 1.66210938 -6.68742187 1.08203125 -5.6953125 0.484375 C-2.80078125 -0.6328125 -2.80078125 -0.6328125 0 0 Z " fill="#FBFDFE" transform="translate(123.80078125,38.6328125)"/>
<path d="M0 0 C2.64 0 5.28 0 8 0 C8 6.93 8 13.86 8 21 C1.07 21 -5.86 21 -13 21 C-13 20.01 -13 19.02 -13 18 C-9.37 18 -5.74 18 -2 18 C-2 17.34 -2 16.68 -2 16 C-0.68 15.67 0.64 15.34 2 15 C2.66 12.69 3.32 10.38 4 8 C3.01 8 2.02 8 1 8 C0.67 5.36 0.34 2.72 0 0 Z " fill="#34D8C5" transform="translate(26,59)"/>
<path d="M0 0 C1.32 0 2.64 0 4 0 C4 6.6 4 13.2 4 20 C6.31 20 8.62 20 11 20 C11.33 20.99 11.66 21.98 12 23 C3.19039858 24.30512614 -5.19039858 24.30512614 -14 23 C-13.505 21.515 -13.505 21.515 -13 20 C-8.71 20 -4.42 20 0 20 C0 13.4 0 6.8 0 0 Z " fill="#4C4CA1" transform="translate(115,63)"/>
<path d="M0 0 C1.31871094 -0.01224609 2.63742188 -0.02449219 3.99609375 -0.03710938 C5.90068359 -0.04000977 5.90068359 -0.04000977 7.84375 -0.04296875 C9.00068359 -0.04707764 10.15761719 -0.05118652 11.34960938 -0.05541992 C14.47736509 0.18575467 16.680892 0.85423629 19.5 2.1875 C18.5 4.1875 18.5 4.1875 16.84521484 4.80200195 C11.99200924 5.59975457 7.04404055 5.37340312 2.13769531 5.37280273 C0.13863013 5.37498512 -1.86039532 5.39349143 -3.859375 5.41210938 C-5.13039063 5.41404297 -6.40140625 5.41597656 -7.7109375 5.41796875 C-8.86899902 5.42207764 -10.02706055 5.42618652 -11.22021484 5.43041992 C-14.61310954 5.17912245 -17.33332989 4.39923908 -20.5 3.1875 C-20.17 2.5275 -19.84 1.8675 -19.5 1.1875 C-13.23640183 -0.60566158 -6.45139424 0.00315317 0 0 Z " fill="#EAEBF2" transform="translate(114.5,125.8125)"/>
<path d="M0 0 C0.99 0 1.98 0 3 0 C3.02505615 0.87325928 3.0501123 1.74651855 3.07592773 2.64624023 C3.17087709 5.87602552 3.27012029 9.10564154 3.37231445 12.33520508 C3.41571434 13.73489199 3.45738564 15.13463359 3.49731445 16.53442383 C3.55489445 18.54261495 3.61914 20.55061149 3.68359375 22.55859375 C3.72025146 23.76829834 3.75690918 24.97800293 3.79467773 26.22436523 C3.68938266 28.90705456 3.68938266 28.90705456 5 30 C6.56448383 30.12263388 8.13432772 30.17779522 9.70336914 30.20532227 C11.20481224 30.2352401 11.20481224 30.2352401 12.73658752 30.26576233 C14.36937904 30.29083107 14.36937904 30.29083107 16.03515625 30.31640625 C17.14354355 30.33718735 18.25193085 30.35796844 19.39390564 30.37937927 C22.95003808 30.44499623 26.50624703 30.50381596 30.0625 30.5625 C32.46680493 30.60567368 34.87110199 30.64928758 37.27539062 30.69335938 C43.18351185 30.80068992 49.09170991 30.90243331 55 31 C55 31.33 55 31.66 55 32 C47.48863592 32.05057965 39.97731551 32.08568257 32.46582031 32.10986328 C29.90883747 32.11994038 27.35186621 32.13360226 24.79492188 32.15087891 C21.12627308 32.17505217 17.45777621 32.18646585 13.7890625 32.1953125 C12.0655809 32.21079636 12.0655809 32.21079636 10.30728149 32.22659302 C9.2463327 32.22674408 8.18538391 32.22689514 7.09228516 32.22705078 C6.15518707 32.231492 5.21808899 32.23593323 4.25259399 32.24050903 C2 32 2 32 0 30 C-0.22705078 27.01904297 -0.22705078 27.01904297 -0.1953125 23.2421875 C-0.1924826 22.57913605 -0.18965271 21.91608459 -0.18673706 21.23294067 C-0.17553435 19.11344417 -0.15043051 16.99436896 -0.125 14.875 C-0.11497028 13.43880818 -0.10584441 12.00260975 -0.09765625 10.56640625 C-0.075595 7.04413372 -0.04106494 3.52210797 0 0 Z " fill="#469EE9" transform="translate(41,49)"/>
<path d="M0 0 C0 5.61 0 11.22 0 17 C0.99 17 1.98 17 3 17 C3 18.65 3 20.3 3 22 C0.69 22 -1.62 22 -4 22 C-4 15.73 -4 9.46 -4 3 C-10.27 3 -16.54 3 -23 3 C-23 2.34 -23 1.68 -23 1 C-19.91675903 0.83159521 -16.83339379 0.66558138 -13.75 0.5 C-12.87730469 0.45230469 -12.00460938 0.40460938 -11.10546875 0.35546875 C-10.26113281 0.31035156 -9.41679687 0.26523438 -8.546875 0.21875 C-7.38430176 0.1559082 -7.38430176 0.1559082 -6.19824219 0.09179688 C-4.13373418 0.00558463 -2.0663073 0 0 0 Z " fill="#6F72AA" transform="translate(30,80)"/>
<path d="M0 0 C2.31 0 4.62 0 7 0 C7 4.62 7 9.24 7 14 C4.03 13.505 4.03 13.505 1 13 C0.67 12.01 0.34 11.02 0 10 C-2.64 10 -5.28 10 -8 10 C-8 8.02 -8 6.04 -8 4 C-5.36 4 -2.72 4 0 4 C0 2.68 0 1.36 0 0 Z " fill="#5832FF" transform="translate(34,49)"/>
<path d="M0 0 C1.32 0 2.64 0 4 0 C4 1.32 4 2.64 4 4 C4.99 4 5.98 4 7 4 C6.67 6.31 6.34 8.62 6 11 C3.09399739 12.25664978 1.20395416 13 -2 13 C-2.33 12.34 -2.66 11.68 -3 11 C-3.99 10.67 -4.98 10.34 -6 10 C-6 9.01 -6 8.02 -6 7 C-5.34 7 -4.68 7 -4 7 C-4.33 5.35 -4.66 3.7 -5 2 C-4.01 1.67 -3.02 1.34 -2 1 C-1.34 1.33 -0.68 1.66 0 2 C0 1.34 0 0.68 0 0 Z " fill="#E7F6F9" transform="translate(23,63)"/>
<path d="M0 0 C0.33 0 0.66 0 1 0 C1.02685938 2.14576637 1.04633088 4.29162645 1.0625 6.4375 C1.07410156 7.63246094 1.08570312 8.82742187 1.09765625 10.05859375 C1 13 1 13 0 14 C-2.01964199 14.07244053 -4.04167124 14.08377188 -6.0625 14.0625 C-7.16722656 14.05347656 -8.27195312 14.04445313 -9.41015625 14.03515625 C-10.69212891 14.01775391 -10.69212891 14.01775391 -12 14 C-12.234375 11.66015625 -12.234375 11.66015625 -12 9 C-10.390625 7.55859375 -10.390625 7.55859375 -8.25 6.4375 C-4.98434729 4.61104645 -2.56100377 2.76588407 0 0 Z " fill="#39D8D5" transform="translate(122,100)"/>
<path d="M0 0 C0.93779297 0.00322266 1.87558594 0.00644531 2.84179688 0.00976562 C4.30649414 0.02233398 4.30649414 0.02233398 5.80078125 0.03515625 C6.78884766 0.03966797 7.77691406 0.04417969 8.79492188 0.04882812 C11.23443599 0.06061322 13.67382814 0.07706614 16.11328125 0.09765625 C14.98876398 3.06959475 13.89034334 5.43206312 12.11328125 8.09765625 C12.11328125 7.10765625 12.11328125 6.11765625 12.11328125 5.09765625 C5.18328125 5.09765625 -1.74671875 5.09765625 -8.88671875 5.09765625 C-8.55671875 3.77765625 -8.22671875 2.45765625 -7.88671875 1.09765625 C-4.94539984 0.11721661 -3.0617021 -0.01855577 0 0 Z " fill="#655CFF" transform="translate(49.88671875,80.90234375)"/>
<path d="M0 0 C2.64 0 5.28 0 8 0 C8 2.64 8 5.28 8 8 C4.85030499 9.84586777 2.51115326 10.27170838 -1.125 10.25 C-2.42824219 10.25773437 -2.42824219 10.25773437 -3.7578125 10.265625 C-6 10 -6 10 -8 8 C-7.175 7.525625 -6.35 7.05125 -5.5 6.5625 C-4.2625 5.7890625 -4.2625 5.7890625 -3 5 C-3 4.67 -3 4.34 -3 4 C-2.67 3.34 -2.34 2.68 -2 2 C-1.34 2 -0.68 2 0 2 C0 1.34 0 0.68 0 0 Z " fill="#665FFF" transform="translate(119,86)"/>
<path d="M0 0 C0.66 0 1.32 0 2 0 C2.33 1.32 2.66 2.64 3 4 C3.33 3.01 3.66 2.02 4 1 C5.37562854 2.28965176 6.70766393 3.62689293 8 5 C8 7 8 7 6.625 8.625 C5 10 5 10 3 10 C3 9.01 3 8.02 3 7 C2.01 7 1.02 7 0 7 C-0.33 8.65 -0.66 10.3 -1 12 C-1.66 12 -2.32 12 -3 12 C-3.33 11.34 -3.66 10.68 -4 10 C-4.639375 9.690625 -5.27875 9.38125 -5.9375 9.0625 C-8 8 -8 8 -10 5 C-8.02 3.68 -6.04 2.36 -4 1 C-4 1.99 -4 2.98 -4 4 C-3.01 4 -2.02 4 -1 4 C-0.67 2.68 -0.34 1.36 0 0 Z " fill="#99E1E9" transform="translate(47,90)"/>
<path d="M0 0 C1.81242052 -0.02687279 3.62495233 -0.04633715 5.4375 -0.0625 C6.44683594 -0.07410156 7.45617187 -0.08570313 8.49609375 -0.09765625 C11 0 11 0 12 1 C11.4 7.6 11.4 7.6 9 10 C6.375 10.125 6.375 10.125 4 10 C0 3.375 0 3.375 0 0 Z " fill="#3BD4D4" transform="translate(123,33)"/>
<path d="M0 0 C2.31 0 4.62 0 7 0 C7 3.63 7 7.26 7 11 C6.34 11 5.68 11 5 11 C5 11.66 5 12.32 5 13 C3.625 14.5 3.625 14.5 2 16 C1.34 16.66 0.68 17.32 0 18 C0 12.06 0 6.12 0 0 Z " fill="#6B74FD" transform="translate(98,54)"/>
<path d="M0 0 C4.29 0 8.58 0 13 0 C13.33 1.98 13.66 3.96 14 6 C13.113125 6.103125 12.22625 6.20625 11.3125 6.3125 C7.92907415 7.01472046 5.88053577 8.1596577 3 10 C2.34 10 1.68 10 1 10 C0.67 6.7 0.34 3.4 0 0 Z " fill="#67D4E3" transform="translate(110,33)"/>
<path d="M0 0 C1.93166016 0.01740234 1.93166016 0.01740234 3.90234375 0.03515625 C5.19269531 0.04417969 6.48304687 0.05320312 7.8125 0.0625 C8.81152344 0.07410156 9.81054688 0.08570312 10.83984375 0.09765625 C9.90011719 0.78794922 9.90011719 0.78794922 8.94140625 1.4921875 C6.8353093 3.01718874 6.8353093 3.01718874 5.21484375 4.78515625 C3.83984375 6.09765625 3.83984375 6.09765625 1.83984375 6.09765625 C1.83984375 6.75765625 1.83984375 7.41765625 1.83984375 8.09765625 C-0.11942688 9.81201805 -2.11895837 11.48170793 -4.16015625 13.09765625 C-4.18702178 11.11856227 -4.20649 9.13936654 -4.22265625 7.16015625 C-4.23425781 6.05800781 -4.24585937 4.95585938 -4.2578125 3.8203125 C-4.11749553 -0.09172464 -3.97435676 0.12281696 0 0 Z " fill="#40C2EE" transform="translate(109.16015625,95.90234375)"/>
<path d="M0 0 C5.94 0 11.88 0 18 0 C18 3 18 3 17 5 C11.39 5 5.78 5 0 5 C0 3.35 0 1.7 0 0 Z " fill="#34ACC5" transform="translate(98,49)"/>
<path d="M0 0 C0 0.33 0 0.66 0 1 C-1.98 1 -3.96 1 -6 1 C-6 6.61 -6 12.22 -6 18 C-3.69 18.33 -1.38 18.66 1 19 C1 19.33 1 19.66 1 20 C-3.95 20 -8.9 20 -14 20 C-14 19.67 -14 19.34 -14 19 C-12.35 18.67 -10.7 18.34 -9 18 C-8.67 16.68 -8.34 15.36 -8 14 C-9.98 14 -11.96 14 -14 14 C-14 13.67 -14 13.34 -14 13 C-12.35 12.67 -10.7 12.34 -9 12 C-8.67 10.68 -8.34 9.36 -8 8 C-9.98 8 -11.96 8 -14 8 C-14 7.67 -14 7.34 -14 7 C-12.35 6.67 -10.7 6.34 -9 6 C-8.67 4.68 -8.34 3.36 -8 2 C-9.98 2 -11.96 2 -14 2 C-14 1.67 -14 1.34 -14 1 C-9.32798795 -0.20568053 -4.78503708 -0.09382426 0 0 Z " fill="#75D9E1" transform="translate(21,33)"/>
<path d="M0 0 C1.32 0 2.64 0 4 0 C4 6.6 4 13.2 4 20 C2.68 19.67 1.36 19.34 0 19 C0 12.73 0 6.46 0 0 Z " fill="#3E3E8B" transform="translate(115,63)"/>
<path d="M0 0 C0.33 0.66 0.66 1.32 1 2 C8.59 1.67 16.18 1.34 24 1 C24 1.66 24 2.32 24 3 C17.565 3.495 17.565 3.495 11 4 C11 5.98 11 7.96 11 10 C11.66 10.33 12.32 10.66 13 11 C11.02 11.99 11.02 11.99 9 13 C8.01 12.34 7.02 11.68 6 11 C5.8125 8.375 5.8125 8.375 6 6 C4.35 5.67 2.7 5.34 1 5 C0.67 3.35 0.34 1.7 0 0 Z " fill="#85DEE3" transform="translate(110,44)"/>
<path d="M0 0 C1.67542976 0.28604898 3.34385343 0.61781233 5 1 C6.00619398 5.3266341 6.36822864 8.12471677 4 12 C1.4140625 13.140625 1.4140625 13.140625 -1 14 C-1.02685938 11.85423363 -1.04633088 9.70837355 -1.0625 7.5625 C-1.07410156 6.36753906 -1.08570312 5.17257813 -1.09765625 3.94140625 C-1 1 -1 1 0 0 Z " fill="#32C6E0" transform="translate(106,33)"/>
<path d="M0 0 C8.58 0 17.16 0 26 0 C25.67 0.99 25.34 1.98 25 3 C17.08 3 9.16 3 1 3 C0.67 2.01 0.34 1.02 0 0 Z " fill="#4C4CA0" transform="translate(101,124)"/>
<path d="M0 0 C0.66 0.33 1.32 0.66 2 1 C2 7.27 2 13.54 2 20 C0.68 20 -0.64 20 -2 20 C-2 14.06 -2 8.12 -2 2 C-1.34 2 -0.68 2 0 2 C0 1.34 0 0.68 0 0 Z " fill="#7181FE" transform="translate(125,93)"/>
<path d="M0 0 C6.27 0 12.54 0 19 0 C19 1.65 19 3.3 19 5 C14.71 5 10.42 5 6 5 C6 4.01 6 3.02 6 2 C3.03 1.505 3.03 1.505 0 1 C0 0.67 0 0.34 0 0 Z " fill="#82DBE3" transform="translate(7,58)"/>
<path d="M0 0 C1.65 0 3.3 0 5 0 C6 1 6 1 6.09765625 3.28515625 C6.08605469 4.20167969 6.07445312 5.11820312 6.0625 6.0625 C6.05347656 6.98160156 6.04445313 7.90070313 6.03515625 8.84765625 C6.02355469 9.55792969 6.01195312 10.26820312 6 11 C5.01 10.67 4.02 10.34 3 10 C2.01 13.465 2.01 13.465 1 17 C0.67 17 0.34 17 0 17 C0 11.39 0 5.78 0 0 Z " fill="#5B3BFF" transform="translate(35,62)"/>
<path d="M0 0 C0.33 0 0.66 0 1 0 C1 6.27 1 12.54 1 19 C0.67 19 0.34 19 0 19 C0 12.73 0 6.46 0 0 Z M-4 19 C-2.68 19.33 -1.36 19.66 0 20 C-0.165 20.78375 -0.33 21.5675 -0.5 22.375 C-1.12960847 26.93966142 -1.08180527 31.40072601 -1 36 C-1.99 36 -2.98 36 -4 36 C-4 30.39 -4 24.78 -4 19 Z " fill="#5957F9" transform="translate(34,61)"/>
<path d="M0 0 C2.31 0 4.62 0 7 0 C7 1.65 7 3.3 7 5 C3.37 5 -0.26 5 -4 5 C-4 6.65 -4 8.3 -4 10 C-5.32 10 -6.64 10 -8 10 C-8 8.02 -8 6.04 -8 4 C-5.36 4 -2.72 4 0 4 C0 2.68 0 1.36 0 0 Z " fill="#3D418D" transform="translate(34,49)"/>
<path d="M0 0 C1.24716797 0.00322266 2.49433594 0.00644531 3.77929688 0.00976562 C5.07287109 0.01814453 6.36644531 0.02652344 7.69921875 0.03515625 C9.66858398 0.04192383 9.66858398 0.04192383 11.67773438 0.04882812 C14.91410885 0.06059676 18.15039053 0.07703865 21.38671875 0.09765625 C21.05671875 0.75765625 20.72671875 1.41765625 20.38671875 2.09765625 C19.73074707 2.11747559 19.07477539 2.13729492 18.39892578 2.15771484 C15.43610806 2.25278132 12.47401343 2.36253377 9.51171875 2.47265625 C7.96291016 2.5190625 7.96291016 2.5190625 6.3828125 2.56640625 C4.90361328 2.62441406 4.90361328 2.62441406 3.39453125 2.68359375 C2.4833252 2.71501465 1.57211914 2.74643555 0.63330078 2.77880859 C-1.81259311 2.89648136 -1.81259311 2.89648136 -3.61328125 5.09765625 C-6.34197532 5.06478042 -8.90994305 4.53367854 -11.61328125 4.09765625 C-11.61328125 3.10765625 -11.61328125 2.11765625 -11.61328125 1.09765625 C-7.68039761 0.16677716 -4.03673962 -0.0184326 0 0 Z " fill="#D9D9E8" transform="translate(106.61328125,125.90234375)"/>
<path d="M0 0 C2.05078125 0.03255208 4.1015625 0.06510417 6.15234375 0.09765625 C6.48234375 0.75765625 6.81234375 1.41765625 7.15234375 2.09765625 C5.50234375 2.42765625 3.85234375 2.75765625 2.15234375 3.09765625 C2.15234375 3.75765625 2.15234375 4.41765625 2.15234375 5.09765625 C0.50234375 5.09765625 -1.14765625 5.09765625 -2.84765625 5.09765625 C-2.84765625 6.08765625 -2.84765625 7.07765625 -2.84765625 8.09765625 C-3.50765625 7.76765625 -4.16765625 7.43765625 -4.84765625 7.09765625 C-4.51765625 6.10765625 -4.18765625 5.11765625 -3.84765625 4.09765625 C-4.83765625 4.59265625 -4.83765625 4.59265625 -5.84765625 5.09765625 C-6.17765625 6.08765625 -6.50765625 7.07765625 -6.84765625 8.09765625 C-7.83765625 8.09765625 -8.82765625 8.09765625 -9.84765625 8.09765625 C-9.51765625 6.44765625 -9.18765625 4.79765625 -8.84765625 3.09765625 C-7.39359375 2.63359375 -7.39359375 2.63359375 -5.91015625 2.16015625 C-3.52665601 1.3332276 -2.32822326 0.1230562 0 0 Z " fill="#3EBCDB" transform="translate(52.84765625,85.90234375)"/>
<path d="M0 0 C0 2.97 0 5.94 0 9 C-2.25 9.375 -2.25 9.375 -5 9 C-7.3125 6 -7.3125 6 -9 3 C-7.68 3 -6.36 3 -5 3 C-5 2.34 -5 1.68 -5 1 C-5.66 0.67 -6.32 0.34 -7 0 C-3.98968256 -0.93423645 -3.13349732 -1.04449911 0 0 Z " fill="#42CAD8" transform="translate(60,88)"/>
<path d="M0 0 C0.66 0.33 1.32 0.66 2 1 C2 4.63 2 8.26 2 12 C-0.31 12 -2.62 12 -5 12 C-4.34 11.34 -3.68 10.68 -3 10 C-3.185625 9.38125 -3.37125 8.7625 -3.5625 8.125 C-4 6 -4 6 -2.625 3.875 C-2.08875 3.25625 -1.5525 2.6375 -1 2 C-0.67 1.34 -0.34 0.68 0 0 Z " fill="#7794FE" transform="translate(125,112)"/>
<path d="M0 0 C2.92879371 0.62759865 5.36095629 1.58622659 8 3 C8 3.66 8 4.32 8 5 C8.99 5.33 9.98 5.66 11 6 C5.39 6 -0.22 6 -6 6 C-6 5.34 -6 4.68 -6 4 C-4.02 4 -2.04 4 0 4 C0 2.68 0 1.36 0 0 Z " fill="#95DDE4" transform="translate(13,71)"/>
<path d="M0 0 C1.98 0 3.96 0 6 0 C6.04241723 2.33294775 6.04092937 4.66702567 6 7 C5 8 5 8 3.15234375 8.09765625 C1.1015625 8.06510417 -0.94921875 8.03255208 -3 8 C-2.5359375 7.13375 -2.5359375 7.13375 -2.0625 6.25 C-1.07416636 4.15705816 -0.4831387 2.25464725 0 0 Z " fill="#35DCC1" transform="translate(54,97)"/>
<path d="M0 0 C2.31 0 4.62 0 7 0 C7.33 2.31 7.66 4.62 8 7 C5.36 7 2.72 7 0 7 C0 4.69 0 2.38 0 0 Z " fill="#9EBDFE" transform="translate(91,85)"/>
<path d="M0 0 C1.98 0 3.96 0 6 0 C5.3125 2.4375 5.3125 2.4375 4 5 C1.375 5.8125 1.375 5.8125 -1 6 C-1 5.34 -1 4.68 -1 4 C-1.66 3.67 -2.32 3.34 -3 3 C-2.01 2.67 -1.02 2.34 0 2 C0 1.34 0 0.68 0 0 Z M-3 5 C-2.34 5.66 -1.68 6.32 -1 7 C-1.99 8.485 -1.99 8.485 -3 10 C-4.65 9.67 -6.3 9.34 -8 9 C-6 6 -6 6 -3 5 Z " fill="#6154FE" transform="translate(119,86)"/>
<path d="M0 0 C2.64 0 5.28 0 8 0 C8 1.98 8 3.96 8 6 C5.69 6.33 3.38 6.66 1 7 C0.67 4.69 0.34 2.38 0 0 Z " fill="#34ADC5" transform="translate(26,59)"/>
<path d="M0 0 C1.23556641 0.01740234 1.23556641 0.01740234 2.49609375 0.03515625 C3.32238281 0.04417969 4.14867187 0.05320312 5 0.0625 C5.63808594 0.07410156 6.27617188 0.08570312 6.93359375 0.09765625 C7.26359375 0.75765625 7.59359375 1.41765625 7.93359375 2.09765625 C6.61359375 2.09765625 5.29359375 2.09765625 3.93359375 2.09765625 C3.93359375 2.75765625 3.93359375 3.41765625 3.93359375 4.09765625 C2.61359375 4.42765625 1.29359375 4.75765625 -0.06640625 5.09765625 C-0.06640625 6.08765625 -0.06640625 7.07765625 -0.06640625 8.09765625 C-1.05640625 8.09765625 -2.04640625 8.09765625 -3.06640625 8.09765625 C-3.10882348 5.7647085 -3.10733562 3.43063058 -3.06640625 1.09765625 C-2.06640625 0.09765625 -2.06640625 0.09765625 0 0 Z " fill="#4895EC" transform="translate(36.06640625,85.90234375)"/>
<path d="M0 0 C0 1.98 0 3.96 0 6 C-0.99 6 -1.98 6 -3 6 C-3.061875 6.598125 -3.12375 7.19625 -3.1875 7.8125 C-4 10 -4 10 -6.3125 11.8125 C-9 13 -9 13 -11.3125 12.6875 C-11.869375 12.460625 -12.42625 12.23375 -13 12 C-12.01 12 -11.02 12 -10 12 C-10 11.34 -10 10.68 -10 10 C-8.68 9.67 -7.36 9.34 -6 9 C-5.34 6.69 -4.68 4.38 -4 2 C-4.99 1.67 -5.98 1.34 -7 1 C-4 0 -4 0 0 0 Z " fill="#46CCD6" transform="translate(34,65)"/>
<path d="M0 0 C5.41538462 -0.36923077 5.41538462 -0.36923077 8.375 1.5 C8.91125 1.995 9.4475 2.49 10 3 C10.33 2.01 10.66 1.02 11 0 C10.67 1.65 10.34 3.3 10 5 C6.7 5 3.4 5 0 5 C0 3.35 0 1.7 0 0 Z " fill="#34ADC6" transform="translate(33,97)"/>
<path d="M0 0 C3.3 0 6.6 0 10 0 C8.74458443 2.51083114 7.49936512 2.87125446 5 4 C5 4.66 5 5.32 5 6 C2.5 7.625 2.5 7.625 0 9 C0 6.03 0 3.06 0 0 Z " fill="#3DBBDD" transform="translate(105,54)"/>
<path d="M0 0 C2.97 0 5.94 0 9 0 C8.34 0.66 7.68 1.32 7 2 C7 2.99 7 3.98 7 5 C5.35 5.66 3.7 6.32 2 7 C2.33 7.66 2.66 8.32 3 9 C0.69 9 -1.62 9 -4 9 C-2.625 6.5 -2.625 6.5 -1 4 C-0.34 4 0.32 4 1 4 C1.66 3.34 2.32 2.68 3 2 C2.01 1.34 1.02 0.68 0 0 Z " fill="#5E4AF9" transform="translate(110,87)"/>
<path d="M0 0 C10.69220032 -0.19558903 21.32799208 0.40945411 32 1 C32 1.33 32 1.66 32 2 C24.74 2 17.48 2 10 2 C10 2.66 10 3.32 10 4 C9.01 4 8.02 4 7 4 C7 3.34 7 2.68 7 2 C4.69 2 2.38 2 0 2 C0 1.34 0 0.68 0 0 Z " fill="#85D7E6" transform="translate(34,45)"/>
<path d="M0 0 C0.66 0 1.32 0 2 0 C2.09765625 6.15234375 2.09765625 6.15234375 2 8 C1 9 1 9 -2.5625 9.0625 C-3.696875 9.041875 -4.83125 9.02125 -6 9 C-5.67 8.01 -5.34 7.02 -5 6 C-4.34 6 -3.68 6 -3 6 C-2.67 5.01 -2.34 4.02 -2 3 C-1.34 2.01 -0.68 1.02 0 0 Z " fill="#35DDC6" transform="translate(121,105)"/>
<path d="M0 0 C1.37478516 0.01740234 1.37478516 0.01740234 2.77734375 0.03515625 C3.69644531 0.04417969 4.61554688 0.05320312 5.5625 0.0625 C6.27277344 0.07410156 6.98304687 0.08570312 7.71484375 0.09765625 C4.71484375 2.09765625 4.71484375 2.09765625 1.71484375 2.09765625 C1.71484375 2.75765625 1.71484375 3.41765625 1.71484375 4.09765625 C0.04817708 5.76432292 -1.61848958 7.43098958 -3.28515625 9.09765625 C-3.3828125 2.9453125 -3.3828125 2.9453125 -3.28515625 1.09765625 C-2.28515625 0.09765625 -2.28515625 0.09765625 0 0 Z " fill="#45B4F5" transform="translate(108.28515625,95.90234375)"/>
<path d="M0 0 C0.33 0.99 0.66 1.98 1 3 C1.66 3 2.32 3 3 3 C2.49396008 5.16874252 2.00016187 6.99967627 1 9 C-2.16115776 7.63016497 -2.9927092 7.0109362 -5 4 C-3.35 2.68 -1.7 1.36 0 0 Z " fill="#5FC4E2" transform="translate(42,91)"/>
<path d="M0 0 C0 0.33 0 0.66 0 1 C-1.98 1 -3.96 1 -6 1 C-6 3.64 -6 6.28 -6 9 C-8.64 8.67 -11.28 8.34 -14 8 C-14 7.67 -14 7.34 -14 7 C-12.35 6.67 -10.7 6.34 -9 6 C-8.67 4.68 -8.34 3.36 -8 2 C-9.98 2 -11.96 2 -14 2 C-14 1.67 -14 1.34 -14 1 C-9.32798795 -0.20568053 -4.78503708 -0.09382426 0 0 Z " fill="#88D9E8" transform="translate(21,33)"/>
<path d="M0 0 C0.66 0.33 1.32 0.66 2 1 C2 3.64 2 6.28 2 9 C1.01 9.495 1.01 9.495 0 10 C0.33 10.66 0.66 11.32 1 12 C0.01 12 -0.98 12 -2 12 C-2 8.7 -2 5.4 -2 2 C-1.34 2 -0.68 2 0 2 C0 1.34 0 0.68 0 0 Z " fill="#6C70FE" transform="translate(125,93)"/>
<path d="M0 0 C1.98 0 3.96 0 6 0 C6 1.98 6 3.96 6 6 C4.02 6 2.04 6 0 6 C0 4.02 0 2.04 0 0 Z " fill="#A6C7FF" transform="translate(83,85)"/>
<path d="M0 0 C1.98 0 3.96 0 6 0 C6 1.98 6 3.96 6 6 C4.02 6 2.04 6 0 6 C0 4.02 0 2.04 0 0 Z " fill="#A6C7FF" transform="translate(74,85)"/>
<path d="M0 0 C1.485 0.99 1.485 0.99 3 2 C3.29296875 4.3828125 3.29296875 4.3828125 3.1875 7.125 C3.16042969 8.03507812 3.13335937 8.94515625 3.10546875 9.8828125 C3.07066406 10.58148438 3.03585938 11.28015625 3 12 C2.34 12 1.68 12 1 12 C0.67 12.66 0.34 13.32 0 14 C0 9.38 0 4.76 0 0 Z " fill="#5F4DFE" transform="translate(102,97)"/>
<path d="M0 0 C0.99 0 1.98 0 3 0 C3.08121924 1.60332791 3.13929134 3.20784026 3.1875 4.8125 C3.23970703 6.15248047 3.23970703 6.15248047 3.29296875 7.51953125 C3 10 3 10 0 13 C0 8.71 0 4.42 0 0 Z " fill="#3B96D8" transform="translate(41,49)"/>
<path d="M0 0 C2.31 0 4.62 0 7 0 C7 1.65 7 3.3 7 5 C4.69 5 2.38 5 0 5 C0 3.35 0 1.7 0 0 Z " fill="#3C3E8A" transform="translate(98,49)"/>
<path d="M0 0 C6.6 0 13.2 0 20 0 C20 0.99 20 1.98 20 3 C13.4 2.34 6.8 1.68 0 1 C0 0.67 0 0.34 0 0 Z " fill="#41D1D8" transform="translate(14,32)"/>
<path d="M0 0 C0.66 0 1.32 0 2 0 C2 0.99 2 1.98 2 3 C2.99 3.33 3.98 3.66 5 4 C4.67 6.31 4.34 8.62 4 11 C3.01 10.67 2.02 10.34 1 10 C0.67 6.7 0.34 3.4 0 0 Z " fill="#38C2C7" transform="translate(114,52)"/>
<path d="M0 0 C0.66 0 1.32 0 2 0 C1.69106068 1.6256807 1.3777305 3.25052748 1.0625 4.875 C0.88847656 5.77992187 0.71445312 6.68484375 0.53515625 7.6171875 C0 10 0 10 -1 12 C-1.66 12 -2.32 12 -3 12 C-2.14285714 3.42857143 -2.14285714 3.42857143 0 0 Z " fill="#DCF3F7" transform="translate(47,90)"/>
<path d="M0 0 C1.67542976 0.28604898 3.34385343 0.61781233 5 1 C4.67 2.32 4.34 3.64 4 5 C2.68 5.33 1.36 5.66 0 6 C-0.38218767 4.34385343 -0.71395102 2.67542976 -1 1 C-0.67 0.67 -0.34 0.34 0 0 Z " fill="#51D0DC" transform="translate(22,67)"/>
<path d="M0 0 C0.33 0 0.66 0 1 0 C1 1.65 1 3.3 1 5 C1.66 5 2.32 5 3 5 C2.67 6.65 2.34 8.3 2 10 C2.66 10 3.32 10 4 10 C4 10.66 4 11.32 4 12 C2.02 12.33 0.04 12.66 -2 13 C-2 11.68 -2 10.36 -2 9 C-1.01 8.34 -0.02 7.68 1 7 C0.67 6.67 0.34 6.34 0 6 C-0.04080783 4.00041636 -0.04254356 1.99954746 0 0 Z " fill="#59DBD7" transform="translate(121,48)"/>
<path d="M0 0 C2.31 0.33 4.62 0.66 7 1 C7 1.99 7 2.98 7 4 C4.36 4 1.72 4 -1 4 C-0.67 2.68 -0.34 1.36 0 0 Z " fill="#30C5DF" transform="translate(14,59)"/>
<path d="M0 0 C0.33 0.66 0.66 1.32 1 2 C1.99 2.33 2.98 2.66 4 3 C1.11584117 4.44207941 -1.41721528 4.09394887 -4.625 4.0625 C-5.81351562 4.05347656 -7.00203125 4.04445313 -8.2265625 4.03515625 C-9.14179687 4.02355469 -10.05703125 4.01195312 -11 4 C-11 3.34 -11 2.68 -11 2 C-9.39125 2.061875 -9.39125 2.061875 -7.75 2.125 C-4.34252515 2.0114175 -2.79260369 1.78726636 0 0 Z " fill="#80CDDE" transform="translate(109,45)"/>
<path d="M0 0 C0.33 0 0.66 0 1 0 C1 2.97 1 5.94 1 9 C-0.65 9 -2.3 9 -4 9 C-2.68 6.03 -1.36 3.06 0 0 Z " fill="#37D0CF" transform="translate(59,88)"/>
<path d="M0 0 C2.64 0 5.28 0 8 0 C8 0.99 8 1.98 8 3 C5.36 3 2.72 3 0 3 C0 2.01 0 1.02 0 0 Z " fill="#34D3D1" transform="translate(13,77)"/>
<path d="M0 0 C0.433125 0.61875 0.86625 1.2375 1.3125 1.875 C2.99740483 4.2197245 2.99740483 4.2197245 6 6 C5.67 6.66 5.34 7.32 5 8 C4.01 8 3.02 8 2 8 C1.67 7.34 1.34 6.68 1 6 C0.01 5.67 -0.98 5.34 -2 5 C-2 4.01 -2 3.02 -2 2 C-1.34 2 -0.68 2 0 2 C0 1.34 0 0.68 0 0 Z " fill="#F8FCFD" transform="translate(19,68)"/>
<path d="M0 0 C0.66 0 1.32 0 2 0 C2 1.98 2 3.96 2 6 C2.66 6.33 3.32 6.66 4 7 C2.02 7.99 2.02 7.99 0 9 C-0.66 8.01 -1.32 7.02 -2 6 C-1.125 2.8125 -1.125 2.8125 0 0 Z " fill="#F9FDFE" transform="translate(119,48)"/>
<path d="M0 0 C1.32 0 2.64 0 4 0 C4 1.98 4 3.96 4 6 C2.68 6 1.36 6 0 6 C0 4.02 0 2.04 0 0 Z " fill="#3DB4DE" transform="translate(30,59)"/>
<path d="M0 0 C2.97 0 5.94 0 9 0 C9 0.66 9 1.32 9 2 C6.36 2.33 3.72 2.66 1 3 C0.67 2.01 0.34 1.02 0 0 Z " fill="#4FD0DA" transform="translate(33,102)"/>
<path d="M0 0 C3.96 0 7.92 0 12 0 C11 2 11 2 9.375 2.75 C5.96334563 3.10912151 3.22534792 2.05444067 0 1 C0 0.67 0 0.34 0 0 Z " fill="#7ED8E4" transform="translate(110,33)"/>
<path d="M0 0 C2.0625 0.4375 2.0625 0.4375 4 1 C2.6875 3.5 2.6875 3.5 1 6 C0.01 6 -0.98 6 -2 6 C-1.125 1.125 -1.125 1.125 0 0 Z " fill="#4AB8E1" transform="translate(45,88)"/>
<path d="M0 0 C2.38564077 0.57584432 4.66682784 1.22227595 7 2 C7 2.66 7 3.32 7 4 C4.69 4 2.38 4 0 4 C0 2.68 0 1.36 0 0 Z " fill="#33CADB" transform="translate(13,71)"/>
<path d="M0 0 C1.65 0 3.3 0 5 0 C5.33 0.99 5.66 1.98 6 3 C5 4 5 4 2.4375 4.0625 C1.2309375 4.0315625 1.2309375 4.0315625 0 4 C0 2.68 0 1.36 0 0 Z " fill="#35C6DF" transform="translate(13,65)"/>
<path d="M0 0 C0.33 0 0.66 0 1 0 C1 2.64 1 5.28 1 8 C0.01 8.33 -0.98 8.66 -2 9 C-2.25 3.375 -2.25 3.375 0 0 Z " fill="#409AE9" transform="translate(43,59)"/>
<path d="M0 0 C0.99 0 1.98 0 3 0 C3.66 1.32 4.32 2.64 5 4 C2.36 4 -0.28 4 -3 4 C-2.34 3.67 -1.68 3.34 -1 3 C-0.67 2.01 -0.34 1.02 0 0 Z " fill="#BDD7FE" transform="translate(81,114)"/>
<path d="M0 0 C0.66 0 1.32 0 2 0 C2.33 1.98 2.66 3.96 3 6 C2.34 6 1.68 6 1 6 C0.34 6.66 -0.32 7.32 -1 8 C-1.125 2.25 -1.125 2.25 0 0 Z " fill="#665FFF" transform="translate(103,109)"/>
<path d="M0 0 C0.99 0 1.98 0 3 0 C3 0.99 3 1.98 3 3 C3.66 3.33 4.32 3.66 5 4 C3.02 4.33 1.04 4.66 -1 5 C-0.67 3.35 -0.34 1.7 0 0 Z " fill="#36C2C6" transform="translate(47,97)"/>
<path d="M0 0 C0 0.66 0 1.32 0 2 C-1.32 2.33 -2.64 2.66 -4 3 C-4 3.99 -4 4.98 -4 6 C-4.99 6 -5.98 6 -7 6 C-7 5.01 -7 4.02 -7 3 C-2.77777778 0 -2.77777778 0 0 0 Z " fill="#3F9AE9" transform="translate(40,88)"/>
<path d="M0 0 C0.66 0 1.32 0 2 0 C2 2.97 2 5.94 2 9 C1.01 9 0.02 9 -1 9 C-0.67 6.03 -0.34 3.06 0 0 Z " fill="#6155FE" transform="translate(31,88)"/>
<path d="M0 0 C0 0.99 0 1.98 0 3 C0.3062434 4.33981486 0.63451555 5.67511887 1 7 C-0.32 6.34 -1.64 5.68 -3 5 C-3 4.01 -3 3.02 -3 2 C-2.01 1.34 -1.02 0.68 0 0 Z " fill="#E5F5F9" transform="translate(41,92)"/>
</svg>
