<?xml version="1.0" encoding="UTF-8"?>
<svg version="1.1" xmlns="http://www.w3.org/2000/svg" width="150" height="150">
<path d="M0 0 C0.495 2.97 0.495 2.97 1 6 C5.60209225 6.17700355 7.78370866 6.10814567 12 4 C13.98 6.31 15.96 8.62 18 11 C17.01 11.99 16.02 12.98 15 14 C16.14339844 14.06058594 17.28679687 14.12117188 18.46484375 14.18359375 C19.95574305 14.26798428 21.44662775 14.35263302 22.9375 14.4375 C24.06961914 14.49647461 24.06961914 14.49647461 25.22460938 14.55664062 C30.88671875 14.88671875 30.88671875 14.88671875 32 16 C32.08748207 17.92667507 32.10697334 19.85651861 32.09765625 21.78515625 C32.09282227 23.53989258 32.09282227 23.53989258 32.08789062 25.33007812 C32.07532227 27.17762695 32.07532227 27.17762695 32.0625 29.0625 C32.05798828 30.29806641 32.05347656 31.53363281 32.04882812 32.80664062 C32.03699608 35.87114117 32.02051173 38.93554721 32 42 C32.78375 41.79375 33.5675 41.5875 34.375 41.375 C35.24125 41.25125 36.1075 41.1275 37 41 C37.66 41.66 38.32 42.32 39 43 C38.96712417 45.72869407 38.43602229 48.2966618 38 51 C38.66 51 39.32 51 40 51 C39.67 52.65 39.34 54.3 39 56 C36.525 56.495 36.525 56.495 34 57 C33.67 58.32 33.34 59.64 33 61 C30.6875 61.1875 30.6875 61.1875 28 61 C27 60 26 59 25 58 C22.83700789 58.22757731 22.83700789 58.22757731 21 59 C18.875 54.375 18.875 54.375 20 51 C19.34 50.01 18.68 49.02 18 48 C18 47.01 18 46.02 18 45 C17.34 45 16.68 45 16 45 C16 51.6 16 58.2 16 65 C18.31 65 20.62 65 23 65 C24 66 24 66 24.11352539 69.96899414 C24.1133662 71.74105607 24.10766785 73.5131226 24.09765625 75.28515625 C24.0962413 76.21597519 24.09482635 77.14679413 24.09336853 78.1058197 C24.08775172 81.09141191 24.0751964 84.07693029 24.0625 87.0625 C24.05748716 89.08137913 24.05292388 91.10025943 24.04882812 93.11914062 C24.03777683 98.07945572 24.02050095 103.03971532 24 108 C26.31 108.66 28.62 109.32 31 110 C30 112 30 112 28.34521484 112.61450195 C23.49200924 113.41225457 18.54404055 113.18590312 13.63769531 113.18530273 C11.63863013 113.18748512 9.63960468 113.20599143 7.640625 113.22460938 C6.36960937 113.22654297 5.09859375 113.22847656 3.7890625 113.23046875 C2.63100098 113.23457764 1.47293945 113.23868652 0.27978516 113.24291992 C-3.11310954 112.99162245 -5.83332989 112.21173908 -9 111 C-8.67 110.34 -8.34 109.68 -8 109 C-5.4375 108.375 -5.4375 108.375 -3 108 C-3.67857056 107.99191315 -4.35714111 107.98382629 -5.05627441 107.97549438 C-12.19572947 107.88863335 -19.33493245 107.7891071 -26.47412109 107.68261719 C-29.12938188 107.64363425 -31.7845665 107.60971702 -34.43994141 107.578125 C-72.93926359 107.11445232 -72.93926359 107.11445232 -80 103 C-79.505 102.01 -79.505 102.01 -79 101 C-78.01 101 -77.02 101 -76 101 C-76 100.01 -76 99.02 -76 98 C-77.6396875 98.495 -77.6396875 98.495 -79.3125 99 C-83 100 -83 100 -86 100 C-88.25 98.4375 -88.25 98.4375 -90 96 C-89.75 92.25 -89.75 92.25 -89 89 C-90.65 89 -92.3 89 -94 89 C-94 86.36 -94 83.72 -94 81 C-93.030625 80.71125 -92.06125 80.4225 -91.0625 80.125 C-87.89335797 79.35785318 -87.89335797 79.35785318 -87 77 C-87.39938767 74.90178785 -87.39938767 74.90178785 -88 73 C-85.69 72.01 -83.38 71.02 -81 70 C-80.67 71.32 -80.34 72.64 -80 74 C-79.01 74 -78.02 74 -77 74 C-77 70.04 -77 66.08 -77 62 C-81.29 62 -85.58 62 -90 62 C-90.02683436 58.68744674 -90.0467578 55.37510817 -90.0625 52.0625 C-90.07087891 51.11697266 -90.07925781 50.17144531 -90.08789062 49.19726562 C-90.09111328 48.29814453 -90.09433594 47.39902344 -90.09765625 46.47265625 C-90.10289307 45.64000244 -90.10812988 44.80734863 -90.11352539 43.94946289 C-90 42 -90 42 -89 41 C-86.98035801 40.92755947 -84.95832876 40.91622812 -82.9375 40.9375 C-81.28041016 40.95103516 -81.28041016 40.95103516 -79.58984375 40.96484375 C-78.73519531 40.97644531 -77.88054687 40.98804688 -77 41 C-77.061875 39.906875 -77.12375 38.81375 -77.1875 37.6875 C-77 34 -77 34 -75.875 32.28125 C-73.1629604 30.42802294 -71.05676436 30.70784631 -67.8125 30.8125 C-66.72582031 30.83957031 -65.63914062 30.86664063 -64.51953125 30.89453125 C-63.27236328 30.94673828 -63.27236328 30.94673828 -62 31 C-61.67 29.68 -61.34 28.36 -61 27 C-45.82 27 -30.64 27 -15 27 C-15.99 24.03 -15.99 24.03 -17 21 C-18.32 20.34 -19.64 19.68 -21 19 C-20.01 16.03 -19.02 13.06 -18 10 C-17.071875 10.226875 -16.14375 10.45375 -15.1875 10.6875 C-12.10694284 11.29821494 -12.10694284 11.29821494 -10.125 9.9375 C-8.55928889 7.24099753 -8.79608697 5.05869541 -9 2 C-3.375 0 -3.375 0 0 0 Z M-7 14 C-9.2084626 17.31269391 -9.80664241 19.14978851 -9.5546875 23.0625 C-8.4812192 26.81207941 -6.28696911 28.01541488 -3 30 C-0.36163023 30.1672392 -0.36163023 30.1672392 2 30 C2.03738281 29.01257813 2.07476562 28.02515625 2.11328125 27.0078125 C2.17902344 25.72648437 2.24476562 24.44515625 2.3125 23.125 C2.37050781 21.84882812 2.42851563 20.57265625 2.48828125 19.2578125 C2.65714844 18.18273437 2.82601562 17.10765625 3 16 C3.99 15.34 4.98 14.68 6 14 C4.01607489 11.60148679 4.01607489 11.60148679 0.1875 11.5625 C-3.17733329 11.66669338 -4.04370031 12.02913354 -7 14 Z M24 47 C23.6366844 49.83386167 23.6431329 51.40522151 25.125 53.875 C27.92151052 55.55290631 29.93690532 54.74875648 33 54 C33.67673447 50.59679066 33.67673447 50.59679066 34 47 C32.11499729 44.68436913 32.11499729 44.68436913 29 44.75 C25.88500271 44.68436913 25.88500271 44.68436913 24 47 Z M-83.25 80.625 C-85.21985834 82.92308586 -85.21985834 82.92308586 -85.5 86 C-85.21376982 89.06575838 -85.21376982 89.06575838 -83.3125 91.375 C-80.61209763 93.27258004 -79.22939919 93.35882213 -76 93 C-75.85024761 85.94348748 -75.85024761 85.94348748 -77 79 C-80.92212225 78.60967296 -80.92212225 78.60967296 -83.25 80.625 Z M-69 95 C-69 96.65 -69 98.3 -69 100 C-56.13 99.01 -56.13 99.01 -43 98 C-42.67 97.01 -42.34 96.02 -42 95 C-50.91 95 -59.82 95 -69 95 Z M-18 95 C-18 95.99 -18 96.98 -18 98 C-12.72 98.33 -7.44 98.66 -2 99 C-2 97.68 -2 96.36 -2 95 C-7.28 95 -12.56 95 -18 95 Z " fill="#5E4BFE" transform="translate(103,18)"/>
<path d="M0 0 C0.495 2.97 0.495 2.97 1 6 C5.60209225 6.17700355 7.78370866 6.10814567 12 4 C13.98 6.31 15.96 8.62 18 11 C17.01 11.99 16.02 12.98 15 14 C16.14339844 14.06058594 17.28679687 14.12117188 18.46484375 14.18359375 C19.95574305 14.26798428 21.44662775 14.35263302 22.9375 14.4375 C24.06961914 14.49647461 24.06961914 14.49647461 25.22460938 14.55664062 C30.88671875 14.88671875 30.88671875 14.88671875 32 16 C32.08748207 17.92667507 32.10697334 19.85651861 32.09765625 21.78515625 C32.09282227 23.53989258 32.09282227 23.53989258 32.08789062 25.33007812 C32.07532227 27.17762695 32.07532227 27.17762695 32.0625 29.0625 C32.05798828 30.29806641 32.05347656 31.53363281 32.04882812 32.80664062 C32.03699608 35.87114117 32.02051173 38.93554721 32 42 C32.78375 41.79375 33.5675 41.5875 34.375 41.375 C35.24125 41.25125 36.1075 41.1275 37 41 C37.66 41.66 38.32 42.32 39 43 C38.96712417 45.72869407 38.43602229 48.2966618 38 51 C38.66 51 39.32 51 40 51 C39.67 52.65 39.34 54.3 39 56 C36.525 56.495 36.525 56.495 34 57 C33.67 58.32 33.34 59.64 33 61 C30.6875 61.1875 30.6875 61.1875 28 61 C27 60 26 59 25 58 C22.83700789 58.22757731 22.83700789 58.22757731 21 59 C18.875 54.375 18.875 54.375 20 51 C19.34 50.01 18.68 49.02 18 48 C18 47.01 18 46.02 18 45 C17.34 45 16.68 45 16 45 C16 51.6 16 58.2 16 65 C18.31 65 20.62 65 23 65 C24 66 24 66 24.11352539 69.96899414 C24.1133662 71.74105607 24.10766785 73.5131226 24.09765625 75.28515625 C24.0962413 76.21597519 24.09482635 77.14679413 24.09336853 78.1058197 C24.08775172 81.09141191 24.0751964 84.07693029 24.0625 87.0625 C24.05748716 89.08137913 24.05292388 91.10025943 24.04882812 93.11914062 C24.03777683 98.07945572 24.02050095 103.03971532 24 108 C26.31 108.66 28.62 109.32 31 110 C30 112 30 112 28.34521484 112.61450195 C23.49200924 113.41225457 18.54404055 113.18590312 13.63769531 113.18530273 C11.63863013 113.18748512 9.63960468 113.20599143 7.640625 113.22460938 C6.36960937 113.22654297 5.09859375 113.22847656 3.7890625 113.23046875 C2.63100098 113.23457764 1.47293945 113.23868652 0.27978516 113.24291992 C-3.11310954 112.99162245 -5.83332989 112.21173908 -9 111 C-8.67 110.34 -8.34 109.68 -8 109 C-5.4375 108.375 -5.4375 108.375 -3 108 C-3.67857056 107.99191315 -4.35714111 107.98382629 -5.05627441 107.97549438 C-12.19572947 107.88863335 -19.33493245 107.7891071 -26.47412109 107.68261719 C-29.12938188 107.64363425 -31.7845665 107.60971702 -34.43994141 107.578125 C-72.93926359 107.11445232 -72.93926359 107.11445232 -80 103 C-79.505 102.01 -79.505 102.01 -79 101 C-78.01 101 -77.02 101 -76 101 C-76 100.01 -76 99.02 -76 98 C-77.6396875 98.495 -77.6396875 98.495 -79.3125 99 C-83 100 -83 100 -86 100 C-88.25 98.4375 -88.25 98.4375 -90 96 C-89.75 92.25 -89.75 92.25 -89 89 C-90.65 89 -92.3 89 -94 89 C-94 86.36 -94 83.72 -94 81 C-93.030625 80.71125 -92.06125 80.4225 -91.0625 80.125 C-87.89335797 79.35785318 -87.89335797 79.35785318 -87 77 C-87.39938767 74.90178785 -87.39938767 74.90178785 -88 73 C-85.69 72.01 -83.38 71.02 -81 70 C-80.67 71.32 -80.34 72.64 -80 74 C-79.01 74 -78.02 74 -77 74 C-77 75.65 -77 77.3 -77 79 C-77.969375 79.28875 -78.93875 79.5775 -79.9375 79.875 C-83.10664203 80.64214682 -83.10664203 80.64214682 -84 83 C-84.40270732 87.1283652 -84.40270732 87.1283652 -82.8125 90.8125 C-80.57968261 92.27538036 -78.62655933 92.64505955 -76 93 C-76 90.03 -76 87.06 -76 84 C-74.02 84 -72.04 84 -70 84 C-69.505 84.99 -69.505 84.99 -69 86 C-60.75 86 -52.5 86 -44 86 C-43.67 83.69 -43.34 81.38 -43 79 C-29.47 79 -15.94 79 -2 79 C-2 75.04 -2 71.08 -2 67 C-1.67 66.34 -1.34 65.68 -1 65 C3.29 65 7.58 65 12 65 C12 58.4 12 51.8 12 45 C8.7 45 5.4 45 2 45 C2 42.03 2 39.06 2 36 C5.3 36 8.6 36 12 36 C12 36.99 12 37.98 12 39 C12.99 39 13.98 39 15 39 C14.505 35.535 14.505 35.535 14 32 C7.73 31.67 1.46 31.34 -5 31 C-5 30.34 -5 29.68 -5 29 C-2.69 29.33 -0.38 29.66 2 30 C1.94779297 28.51886719 1.94779297 28.51886719 1.89453125 27.0078125 C1.86746094 25.72648437 1.84039062 24.44515625 1.8125 23.125 C1.76029297 21.21074219 1.76029297 21.21074219 1.70703125 19.2578125 C1.80371094 18.18273437 1.90039062 17.10765625 2 16 C2.99 15.34 3.98 14.68 5 14 C3.78410016 12.56844101 3.78410016 12.56844101 0.1875 12.6875 C-2.78617685 12.74622611 -3.87751147 12.92650688 -6.5 14.5 C-8.71177972 18.18629954 -8.34421275 20.73176192 -8 25 C-7.505 25.99 -7.505 25.99 -7 27 C-9.31 27 -11.62 27 -14 27 C-14.4125 26.05125 -14.825 25.1025 -15.25 24.125 C-16.8302645 20.61663189 -16.8302645 20.61663189 -21 19 C-20.01 16.03 -19.02 13.06 -18 10 C-17.071875 10.226875 -16.14375 10.45375 -15.1875 10.6875 C-12.10694284 11.29821494 -12.10694284 11.29821494 -10.125 9.9375 C-8.55928889 7.24099753 -8.79608697 5.05869541 -9 2 C-3.375 0 -3.375 0 0 0 Z M24 47 C23.6366844 49.83386167 23.6431329 51.40522151 25.125 53.875 C27.92151052 55.55290631 29.93690532 54.74875648 33 54 C33.67673447 50.59679066 33.67673447 50.59679066 34 47 C32.11499729 44.68436913 32.11499729 44.68436913 29 44.75 C25.88500271 44.68436913 25.88500271 44.68436913 24 47 Z M-69 95 C-69 96.65 -69 98.3 -69 100 C-56.13 99.01 -56.13 99.01 -43 98 C-42.67 97.01 -42.34 96.02 -42 95 C-50.91 95 -59.82 95 -69 95 Z M-18 95 C-18 95.99 -18 96.98 -18 98 C-12.72 98.33 -7.44 98.66 -2 99 C-2 97.68 -2 96.36 -2 95 C-7.28 95 -12.56 95 -18 95 Z " fill="#5E4EF1" transform="translate(103,18)"/>
<path d="M0 0 C2.31 0 4.62 0 7 0 C7 2.97 7 5.94 7 9 C10.3 9 13.6 9 17 9 C17 15.6 17 22.2 17 29 C12.71 29 8.42 29 4 29 C3.67 33.62 3.34 38.24 3 43 C-10.53 43 -24.06 43 -38 43 C-38.495 38.05 -38.495 38.05 -39 33 C-45.6 32.67 -52.2 32.34 -59 32 C-59 30.02 -59 28.04 -59 26 C-57.68 26 -56.36 26 -55 26 C-54.731875 25.21625 -54.46375 24.4325 -54.1875 23.625 C-53 21 -53 21 -50 19 C-49.835 18.319375 -49.67 17.63875 -49.5 16.9375 C-49.335 16.298125 -49.17 15.65875 -49 15 C-48.01 14.67 -47.02 14.34 -46 14 C-45.34 13.34 -44.68 12.68 -44 12 C-41.375 11.875 -41.375 11.875 -39 12 C-39.12375 10.8553125 -39.12375 10.8553125 -39.25 9.6875 C-39 7 -39 7 -37.47363281 5.36401367 C-34.09172721 3.49915909 -30.94026685 3.52158363 -27.171875 3.48828125 C-26.04836639 3.46135445 -26.04836639 3.46135445 -24.90216064 3.43388367 C-22.51816376 3.37985457 -20.1343662 3.34590997 -17.75 3.3125 C-16.13018064 3.27932025 -14.51038756 3.24482997 -12.890625 3.20898438 C-8.92722734 3.12413284 -4.96388803 3.05728711 -1 3 C-0.67 2.01 -0.34 1.02 0 0 Z " fill="#7285FE" transform="translate(98,54)"/>
<path d="M0 0 C0.66 1.32 1.32 2.64 2 4 C2.99 4 3.98 4 5 4 C5 5.65 5 7.3 5 9 C4.030625 9.28875 3.06125 9.5775 2.0625 9.875 C-1.10664203 10.64214682 -1.10664203 10.64214682 -2 13 C-2.40270732 17.1283652 -2.40270732 17.1283652 -0.8125 20.8125 C1.42031739 22.27538036 3.37344067 22.64505955 6 23 C6 20.03 6 17.06 6 14 C7.98 14 9.96 14 12 14 C12.33 14.66 12.66 15.32 13 16 C21.25 16 29.5 16 38 16 C38.33 15.34 38.66 14.68 39 14 C52.53 14 66.06 14 80 14 C80 17.63 80 21.26 80 25 C74.72 25 69.44 25 64 25 C64 25.99 64 26.98 64 28 C64.56847656 27.98839844 65.13695313 27.97679688 65.72265625 27.96484375 C70.60670484 27.90776806 75.18503965 28.18043228 80 29 C80 31.64 80 34.28 80 37 C72.71409984 37.04682155 65.42823335 37.08211748 58.14221191 37.10362434 C54.75718789 37.11395864 51.37226851 37.12792229 47.98730469 37.15087891 C9.5625541 37.39227608 9.5625541 37.39227608 2 33 C2.33 32.34 2.66 31.68 3 31 C3.99 31 4.98 31 6 31 C6 30.01 6 29.02 6 28 C4.906875 28.33 3.81375 28.66 2.6875 29 C-1 30 -1 30 -4 30 C-6.25 28.4375 -6.25 28.4375 -8 26 C-7.75 22.25 -7.75 22.25 -7 19 C-8.65 19 -10.3 19 -12 19 C-12 16.36 -12 13.72 -12 11 C-11.030625 10.71125 -10.06125 10.4225 -9.0625 10.125 C-5.89335797 9.35785318 -5.89335797 9.35785318 -5 7 C-5.39938767 4.90178785 -5.39938767 4.90178785 -6 3 C-4.02 2.01 -2.04 1.02 0 0 Z M13 25 C13 26.65 13 28.3 13 30 C25.87 29.01 25.87 29.01 39 28 C39.33 27.01 39.66 26.02 40 25 C31.09 25 22.18 25 13 25 Z " fill="#BAD5FE" transform="translate(21,88)"/>
<path d="M0 0 C0.33 1.98 0.66 3.96 1 6 C5.60209225 6.17700355 7.78370866 6.10814567 12 4 C13.98 6.31 15.96 8.62 18 11 C17.01 11.99 16.02 12.98 15 14 C16.14339844 14.06058594 17.28679687 14.12117188 18.46484375 14.18359375 C19.95574305 14.26798428 21.44662775 14.35263302 22.9375 14.4375 C24.06961914 14.49647461 24.06961914 14.49647461 25.22460938 14.55664062 C30.88671875 14.88671875 30.88671875 14.88671875 32 16 C32.08748207 17.92667507 32.10697334 19.85651861 32.09765625 21.78515625 C32.09443359 22.95498047 32.09121094 24.12480469 32.08789062 25.33007812 C32.07532227 27.17762695 32.07532227 27.17762695 32.0625 29.0625 C32.05798828 30.29806641 32.05347656 31.53363281 32.04882812 32.80664062 C32.03699608 35.87114117 32.02051173 38.93554721 32 42 C32.78375 41.79375 33.5675 41.5875 34.375 41.375 C35.674375 41.189375 35.674375 41.189375 37 41 C37.66 41.66 38.32 42.32 39 43 C38.96712417 45.72869407 38.43602229 48.2966618 38 51 C38.66 51 39.32 51 40 51 C39.67 52.65 39.34 54.3 39 56 C36.525 56.495 36.525 56.495 34 57 C33.67 58.32 33.34 59.64 33 61 C30.6875 61.1875 30.6875 61.1875 28 61 C27 60 26 59 25 58 C22.83700789 58.22757731 22.83700789 58.22757731 21 59 C18.875 54.375 18.875 54.375 20 51 C19.34 50.01 18.68 49.02 18 48 C18 47.01 18 46.02 18 45 C12.72 45 7.44 45 2 45 C2 42.03 2 39.06 2 36 C5.3 36 8.6 36 12 36 C12 36.99 12 37.98 12 39 C12.99 39 13.98 39 15 39 C14.505 35.535 14.505 35.535 14 32 C7.73 31.67 1.46 31.34 -5 31 C-5 30.34 -5 29.68 -5 29 C-2.69 29.33 -0.38 29.66 2 30 C1.94779297 28.51886719 1.94779297 28.51886719 1.89453125 27.0078125 C1.86746094 25.72648437 1.84039062 24.44515625 1.8125 23.125 C1.76029297 21.21074219 1.76029297 21.21074219 1.70703125 19.2578125 C1.80371094 18.18273437 1.90039062 17.10765625 2 16 C2.99 15.34 3.98 14.68 5 14 C3.78410016 12.56844101 3.78410016 12.56844101 0.1875 12.6875 C-2.78617685 12.74622611 -3.87751147 12.92650688 -6.5 14.5 C-8.71177972 18.18629954 -8.34421275 20.73176192 -8 25 C-7.67 25.66 -7.34 26.32 -7 27 C-9.31 27 -11.62 27 -14 27 C-14.4125 26.05125 -14.825 25.1025 -15.25 24.125 C-16.8302645 20.61663189 -16.8302645 20.61663189 -21 19 C-20.01 16.03 -19.02 13.06 -18 10 C-17.071875 10.226875 -16.14375 10.45375 -15.1875 10.6875 C-12.10694284 11.29821494 -12.10694284 11.29821494 -10.125 9.9375 C-8.55928889 7.24099753 -8.79608697 5.05869541 -9 2 C-3.375 0 -3.375 0 0 0 Z M24 47 C23.6366844 49.83386167 23.6431329 51.40522151 25.125 53.875 C27.92151052 55.55290631 29.93690532 54.74875648 33 54 C33.67673447 50.59679066 33.67673447 50.59679066 34 47 C32.11499729 44.68436913 32.11499729 44.68436913 29 44.75 C25.88500271 44.68436913 25.88500271 44.68436913 24 47 Z " fill="#37DBC6" transform="translate(103,18)"/>
<path d="M0 0 C0.495 1.98 0.495 1.98 1 4 C1.85549438 3.99214478 1.85549438 3.99214478 2.72827148 3.98413086 C5.29800323 3.96341779 7.86771747 3.9503581 10.4375 3.9375 C11.78424805 3.92493164 11.78424805 3.92493164 13.15820312 3.91210938 C14.01220703 3.90888672 14.86621094 3.90566406 15.74609375 3.90234375 C16.53685303 3.89710693 17.3276123 3.89187012 18.14233398 3.88647461 C20 4 20 4 21 5 C21.04092937 7.33297433 21.04241723 9.66705225 21 12 C20.01 12 19.02 12 18 12 C18 11.01 18 10.02 18 9 C12.39 9 6.78 9 1 9 C0.67 10.32 0.34 11.64 0 13 C-7.81452752 13.02526563 -15.62904458 13.04283105 -23.44360352 13.05493164 C-26.10441481 13.05997383 -28.76522332 13.06680736 -31.42602539 13.07543945 C-35.24105516 13.08751009 -39.05604844 13.09322929 -42.87109375 13.09765625 C-44.66793861 13.10539818 -44.66793861 13.10539818 -46.50108337 13.11329651 C-48.15268211 13.11340981 -48.15268211 13.11340981 -49.83764648 13.11352539 C-50.81249496 13.115746 -51.78734344 13.11796661 -52.79173279 13.12025452 C-55 13 -55 13 -56 12 C-56.09854655 10.35659133 -56.12972411 8.7088539 -56.125 7.0625 C-56.12757812 6.16660156 -56.13015625 5.27070312 -56.1328125 4.34765625 C-56 2 -56 2 -55 0 C-48.61388719 -0.16930751 -42.22758401 -0.32898578 -35.84106445 -0.48217773 C-33.6714135 -0.53533249 -31.50181408 -0.59063852 -29.33227539 -0.64819336 C-26.2020987 -0.73085015 -23.07181427 -0.80560143 -19.94140625 -0.87890625 C-18.98166397 -0.90594131 -18.02192169 -0.93297638 -17.03309631 -0.96083069 C-11.24879531 -1.08714399 -5.73684696 -0.76302891 0 0 Z " fill="#34D1D4" transform="translate(97,45)"/>
<path d="M0 0 C0.99033234 0.00636726 0.99033234 0.00636726 2.00067139 0.01286316 C4.09982891 0.0295944 6.19800996 0.06723324 8.296875 0.10546875 C9.72394442 0.12052291 11.15102896 0.13421004 12.578125 0.14648438 C16.06802317 0.17947874 19.5573537 0.23122132 23.046875 0.29296875 C23.046875 0.95296875 23.046875 1.61296875 23.046875 2.29296875 C22.386875 2.29296875 21.726875 2.29296875 21.046875 2.29296875 C21.046875 2.95296875 21.046875 3.61296875 21.046875 4.29296875 C19.726875 4.62296875 18.406875 4.95296875 17.046875 5.29296875 C17.046875 5.95296875 17.046875 6.61296875 17.046875 7.29296875 C16.386875 7.29296875 15.726875 7.29296875 15.046875 7.29296875 C14.386875 8.61296875 13.726875 9.93296875 13.046875 11.29296875 C12.386875 11.29296875 11.726875 11.29296875 11.046875 11.29296875 C10.716875 13.60296875 10.386875 15.91296875 10.046875 18.29296875 C9.386875 18.29296875 8.726875 18.29296875 8.046875 18.29296875 C7.551875 16.80796875 7.551875 16.80796875 7.046875 15.29296875 C6.9540625 16.22109375 6.9540625 16.22109375 6.859375 17.16796875 C6.59125 17.86921875 6.323125 18.57046875 6.046875 19.29296875 C4.3833271 19.96738006 2.71620558 20.63300085 1.046875 21.29296875 C-2.30877958 24.7245203 -2.30877958 24.7245203 -2.953125 29.29296875 C-4.953125 31.48046875 -4.953125 31.48046875 -6.953125 33.29296875 C-7.283125 32.63296875 -7.613125 31.97296875 -7.953125 31.29296875 C-8.613125 31.29296875 -9.273125 31.29296875 -9.953125 31.29296875 C-10.283125 30.63296875 -10.613125 29.97296875 -10.953125 29.29296875 C-17.553125 28.96296875 -24.153125 28.63296875 -30.953125 28.29296875 C-30.953125 26.31296875 -30.953125 24.33296875 -30.953125 22.29296875 C-29.633125 22.29296875 -28.313125 22.29296875 -26.953125 22.29296875 C-26.685 21.50921875 -26.416875 20.72546875 -26.140625 19.91796875 C-24.953125 17.29296875 -24.953125 17.29296875 -21.953125 15.29296875 C-21.788125 14.61234375 -21.623125 13.93171875 -21.453125 13.23046875 C-21.288125 12.59109375 -21.123125 11.95171875 -20.953125 11.29296875 C-19.963125 10.96296875 -18.973125 10.63296875 -17.953125 10.29296875 C-17.293125 9.63296875 -16.633125 8.97296875 -15.953125 8.29296875 C-13.328125 8.16796875 -13.328125 8.16796875 -10.953125 8.29296875 C-11.076875 7.14828125 -11.076875 7.14828125 -11.203125 5.98046875 C-10.953125 3.29296875 -10.953125 3.29296875 -9.37207031 1.64331055 C-6.11286263 -0.17609576 -3.7210606 -0.04730162 0 0 Z " fill="#6762FF" transform="translate(69.953125,57.70703125)"/>
<path d="M0 0 C0.66 1.32 1.32 2.64 2 4 C2.99 4 3.98 4 5 4 C5 5.65 5 7.3 5 9 C4.030625 9.28875 3.06125 9.5775 2.0625 9.875 C-1.10664203 10.64214682 -1.10664203 10.64214682 -2 13 C-2.43986452 17.03518598 -2.43986452 17.03518598 -0.86328125 20.6015625 C2.39651569 23.0481187 6.35127079 23.30042673 10.28515625 24.05859375 C13 25 13 25 15 29 C22.92 28.67 30.84 28.34 39 28 C38.67 28.66 38.34 29.32 38 30 C35.35139573 30.59355614 32.70802678 30.74209269 30 31 C30 31.66 30 32.32 30 33 C44.19 33 58.38 33 73 33 C72.67 32.34 72.34 31.68 72 31 C70.845 30.835 69.69 30.67 68.5 30.5 C67.345 30.335 66.19 30.17 65 30 C64.505 29.01 64.505 29.01 64 28 C69.45769811 27.88861841 74.61509359 28.08342019 80 29 C80 31.64 80 34.28 80 37 C72.71409984 37.04682155 65.42823335 37.08211748 58.14221191 37.10362434 C54.75718789 37.11395864 51.37226851 37.12792229 47.98730469 37.15087891 C9.5625541 37.39227608 9.5625541 37.39227608 2 33 C2.33 32.34 2.66 31.68 3 31 C3.99 31 4.98 31 6 31 C6 30.01 6 29.02 6 28 C4.906875 28.33 3.81375 28.66 2.6875 29 C-1 30 -1 30 -4 30 C-6.25 28.4375 -6.25 28.4375 -8 26 C-7.75 22.25 -7.75 22.25 -7 19 C-8.65 19 -10.3 19 -12 19 C-12 16.36 -12 13.72 -12 11 C-11.030625 10.71125 -10.06125 10.4225 -9.0625 10.125 C-5.89335797 9.35785318 -5.89335797 9.35785318 -5 7 C-5.39938767 4.90178785 -5.39938767 4.90178785 -6 3 C-4.02 2.01 -2.04 1.02 0 0 Z " fill="#EAEBF2" transform="translate(21,88)"/>
<path d="M0 0 C0.66 0 1.32 0 2 0 C2 12.54 2 25.08 2 38 C-6.25 38 -14.5 38 -23 38 C-23.25 25.375 -23.25 25.375 -21 22 C-20.57922598 19.29404578 -20.57922598 19.29404578 -20.4375 16.375 C-20.09817672 11.09817672 -20.09817672 11.09817672 -19 10 C-16.81707226 9.76518307 -14.62796826 9.58636677 -12.4375 9.4375 C-11.23996094 9.35371094 -10.04242188 9.26992187 -8.80859375 9.18359375 C-7.88175781 9.12300781 -6.95492187 9.06242187 -6 9 C-6.33 8.01 -6.66 7.02 -7 6 C-6.01 6 -5.02 6 -4 6 C-2.34043892 4.08512183 -1.13211641 2.26423282 0 0 Z " fill="#7286FE" transform="translate(125,86)"/>
<path d="M0 0 C2.31 0 4.62 0 7 0 C7 2.97 7 5.94 7 9 C7.99 9.33 8.98 9.66 10 10 C8 13 8 13 6.0546875 13.51171875 C5.33539063 13.56972656 4.61609375 13.62773438 3.875 13.6875 C2.59625 13.790625 1.3175 13.89375 0 14 C0 15.98 0 17.96 0 20 C-5.75 22 -5.75 22 -8 22 C-8.2475 23.11375 -8.495 24.2275 -8.75 25.375 C-10 29 -10 29 -11.9375 30.25 C-12.618125 30.4975 -13.29875 30.745 -14 31 C-14.495 31.515625 -14.99 32.03125 -15.5 32.5625 C-17 34 -17 34 -19 34.4375 C-21.72503485 35.20391605 -22.50258883 36.67901268 -24 39 C-23.67 39.66 -23.34 40.32 -23 41 C-23.66 41 -24.32 41 -25 41 C-25 41.66 -25 42.32 -25 43 C-29.29 43 -33.58 43 -38 43 C-38 40.36 -38 37.72 -38 35 C-37.34 35 -36.68 35 -36 35 C-35.67 34.34 -35.34 33.68 -35 33 C-34.67 33.66 -34.34 34.32 -34 35 C-32.42726432 32.1575146 -32.42726432 32.1575146 -32 29 C-30.828125 27.52734375 -30.828125 27.52734375 -29.25 25.9375 C-28.73953125 25.41027344 -28.2290625 24.88304688 -27.703125 24.33984375 C-26 23 -26 23 -23.859375 22.50390625 C-23.24578125 22.33761719 -22.6321875 22.17132813 -22 22 C-21.67 21.01 -21.34 20.02 -21 19 C-21.66 18.67 -22.32 18.34 -23 18 C-22.01 18 -21.02 18 -20 18 C-20 19.32 -20 20.64 -20 22 C-19.67 21.01 -19.34 20.02 -19 19 C-17.75794193 15.27382578 -15.8889325 13.60708543 -13 11 C-12.34 11 -11.68 11 -11 11 C-11 10.34 -11 9.68 -11 9 C-11.66 8.67 -12.32 8.34 -13 8 C-11.02 8 -9.04 8 -7 8 C-7 7.34 -7 6.68 -7 6 C-6.34 6 -5.68 6 -5 6 C-5 5.34 -5 4.68 -5 4 C-4.0409375 3.8453125 -4.0409375 3.8453125 -3.0625 3.6875 C-2.381875 3.460625 -1.70125 3.23375 -1 3 C-0.67 2.01 -0.34 1.02 0 0 Z " fill="#6C73FE" transform="translate(98,54)"/>
<path d="M0 0 C1.12019531 -0.00128906 2.24039063 -0.00257812 3.39453125 -0.00390625 C4.57402344 -0.00003906 5.75351562 0.00382812 6.96875 0.0078125 C8.73798828 0.00201172 8.73798828 0.00201172 10.54296875 -0.00390625 C12.22326172 -0.00197266 12.22326172 -0.00197266 13.9375 0 C14.97326172 0.00112793 16.00902344 0.00225586 17.07617188 0.00341797 C19.46875 0.1328125 19.46875 0.1328125 20.46875 1.1328125 C20.56861975 3.97616298 20.60752881 6.78978413 20.59375 9.6328125 C20.59955078 10.82970703 20.59955078 10.82970703 20.60546875 12.05078125 C20.59535767 18.00620483 20.59535767 18.00620483 19.46875 19.1328125 C17.62715977 19.23240871 15.78178033 19.26361661 13.9375 19.265625 C12.81730469 19.26691406 11.69710937 19.26820312 10.54296875 19.26953125 C9.36347656 19.26566406 8.18398438 19.26179688 6.96875 19.2578125 C5.19951172 19.26361328 5.19951172 19.26361328 3.39453125 19.26953125 C1.71423828 19.26759766 1.71423828 19.26759766 0 19.265625 C-1.03576172 19.26449707 -2.07152344 19.26336914 -3.13867188 19.26220703 C-5.53125 19.1328125 -5.53125 19.1328125 -6.53125 18.1328125 C-6.63111975 15.28946202 -6.67002881 12.47584087 -6.65625 9.6328125 C-6.66011719 8.83488281 -6.66398437 8.03695312 -6.66796875 7.21484375 C-6.65573175 0.007248 -6.65573175 0.007248 0 0 Z " fill="#37ACC6" transform="translate(39.53125,85.8671875)"/>
<path d="M0 0 C2.62697064 -0.22137393 5.00893964 -0.28162025 7.625 -0.1875 C8.33140625 -0.17396484 9.0378125 -0.16042969 9.765625 -0.14648438 C11.51074128 -0.1111104 13.25546608 -0.05730221 15 0 C15 3.63 15 7.26 15 11 C9.72 11 4.44 11 -1 11 C-0.505 12.98 -0.505 12.98 0 15 C2.31 15.33 4.62 15.66 7 16 C7.495 17.485 7.495 17.485 8 19 C-6.19 19 -20.38 19 -35 19 C-35 18.34 -35 17.68 -35 17 C-33.72125 16.7525 -32.4425 16.505 -31.125 16.25 C-27.73252682 15.48009414 -27.73252682 15.48009414 -25.5 12.875 C-25.335 12.25625 -25.17 11.6375 -25 11 C-23.39125 11.061875 -23.39125 11.061875 -21.75 11.125 C-18.18223639 11.00607455 -16.96201283 10.67847394 -14 9 C-11.20482483 8.31824996 -8.88617726 8 -6 8 C-5.71125 7.360625 -5.4225 6.72125 -5.125 6.0625 C-4 4 -4 4 -2 3 C-1.34 2.01 -0.68 1.02 0 0 Z " fill="#B0CEFE" transform="translate(86,102)"/>
<path d="M0 0 C0.83265381 0.00523682 1.66530762 0.01047363 2.52319336 0.01586914 C3.42231445 0.0190918 4.32143555 0.02231445 5.24780273 0.02563477 C6.66609375 0.03820313 6.66609375 0.03820313 8.11303711 0.05102539 C9.06243164 0.05553711 10.01182617 0.06004883 10.98999023 0.06469727 C13.34356776 0.07652429 15.69702188 0.09300514 18.05053711 0.11352539 C18.07941525 3.5926748 18.09729398 7.0717937 18.11303711 10.55102539 C18.12141602 11.54424805 18.12979492 12.5374707 18.13842773 13.56079102 C18.14326172 14.97714844 18.14326172 14.97714844 18.14819336 16.42211914 C18.15604858 17.73394165 18.15604858 17.73394165 18.1640625 19.07226562 C18.05053711 21.11352539 18.05053711 21.11352539 17.05053711 22.11352539 C15.55919801 22.1301477 14.06692906 22.07671739 12.57788086 21.99243164 C11.67875977 21.9440918 10.77963867 21.89575195 9.85327148 21.84594727 C8.90774414 21.78987305 7.9622168 21.73379883 6.98803711 21.67602539 C6.03864258 21.62381836 5.08924805 21.57161133 4.11108398 21.51782227 C1.75726759 21.38771181 -0.59616988 21.25273427 -2.94946289 21.11352539 C-2.97834436 17.80104352 -2.99622088 14.48859372 -3.01196289 11.17602539 C-3.0203418 10.23049805 -3.0287207 9.2849707 -3.03735352 8.31079102 C-3.04057617 7.41166992 -3.04379883 6.51254883 -3.04711914 5.58618164 C-3.05235596 4.75352783 -3.05759277 3.92087402 -3.06298828 3.06298828 C-2.90876673 0.41468917 -2.64829911 0.15422155 0 0 Z " fill="#3ACCDA" transform="translate(15.949462890625,58.886474609375)"/>
<path d="M0 0 C16.83 0 33.66 0 51 0 C51 2.64 51 5.28 51 8 C34.17 8 17.34 8 0 8 C0 5.36 0 2.72 0 0 Z " fill="#3D3D89" transform="translate(44,47)"/>
<path d="M0 0 C0.33 1.98 0.66 3.96 1 6 C5.60209225 6.17700355 7.78370866 6.10814567 12 4 C13.98 6.31 15.96 8.62 18 11 C16.25971934 13.32037422 14.95863243 14.83707038 12.0234375 15.3359375 C9.875 15.375 9.875 15.375 6 15 C5.34 14.34 4.68 13.68 4 13 C-1.54235245 12.42765564 -1.54235245 12.42765564 -6.5 14.5 C-8.71177972 18.18629954 -8.34421275 20.73176192 -8 25 C-7.67 25.66 -7.34 26.32 -7 27 C-9.31 27 -11.62 27 -14 27 C-14.4125 26.05125 -14.825 25.1025 -15.25 24.125 C-16.8302645 20.61663189 -16.8302645 20.61663189 -21 19 C-20.01 16.03 -19.02 13.06 -18 10 C-17.071875 10.226875 -16.14375 10.45375 -15.1875 10.6875 C-12.10694284 11.29821494 -12.10694284 11.29821494 -10.125 9.9375 C-8.55928889 7.24099753 -8.79608697 5.05869541 -9 2 C-3.375 0 -3.375 0 0 0 Z " fill="#E9EBF2" transform="translate(103,18)"/>
<path d="M0 0 C1.26070312 0.02030273 1.26070312 0.02030273 2.546875 0.04101562 C4.61485938 0.07626536 6.68251271 0.1300698 8.75 0.1875 C8.09 1.5075 7.43 2.8275 6.75 4.1875 C6.255 3.1975 6.255 3.1975 5.75 2.1875 C5.37488281 2.75339844 4.99976563 3.31929687 4.61328125 3.90234375 C0.3818064 9.96710242 0.3818064 9.96710242 -2.9375 11.125 C-4.0821875 11.1559375 -4.0821875 11.1559375 -5.25 11.1875 C-6.24 11.5175 -7.23 11.8475 -8.25 12.1875 C-9.91621616 12.22624921 -11.58394172 12.2325286 -13.25 12.1875 C-13.25 12.8475 -13.25 13.5075 -13.25 14.1875 C-13.91 14.8475 -14.57 15.5075 -15.25 16.1875 C-16.28161608 18.17137708 -17.28523618 20.17026656 -18.25 22.1875 C-18.91 22.1875 -19.57 22.1875 -20.25 22.1875 C-19.92 24.1675 -19.59 26.1475 -19.25 28.1875 C-23.87 28.1875 -28.49 28.1875 -33.25 28.1875 C-33.25 26.2075 -33.25 24.2275 -33.25 22.1875 C-31.93 22.1875 -30.61 22.1875 -29.25 22.1875 C-28.981875 21.40375 -28.71375 20.62 -28.4375 19.8125 C-27.25 17.1875 -27.25 17.1875 -24.25 15.1875 C-24.085 14.506875 -23.92 13.82625 -23.75 13.125 C-23.585 12.485625 -23.42 11.84625 -23.25 11.1875 C-22.26 10.8575 -21.27 10.5275 -20.25 10.1875 C-19.59 9.5275 -18.93 8.8675 -18.25 8.1875 C-15.625 8.0625 -15.625 8.0625 -13.25 8.1875 C-13.37375 7.0428125 -13.37375 7.0428125 -13.5 5.875 C-13.25 3.1875 -13.25 3.1875 -11.8125 1.53125 C-7.93947047 -0.4997289 -4.29950566 -0.13100056 0 0 Z " fill="#6356FE" transform="translate(72.25,57.8125)"/>
<path d="M0 0 C1.58206057 0.00667536 3.16410534 0.0186375 4.74609375 0.03515625 C5.55240234 0.03966797 6.35871094 0.04417969 7.18945312 0.04882812 C9.18753131 0.06065107 11.18557158 0.07858711 13.18359375 0.09765625 C13.21043687 2.91021906 13.23035563 5.72252866 13.24609375 8.53515625 C13.25447266 9.33759766 13.26285156 10.14003906 13.27148438 10.96679688 C13.28010805 13.01060846 13.23587525 15.05449527 13.18359375 17.09765625 C11.36243372 18.91881628 8.87687611 18.23000705 6.45703125 18.234375 C5.70679687 18.23050781 4.9565625 18.22664063 4.18359375 18.22265625 C3.05824219 18.22845703 3.05824219 18.22845703 1.91015625 18.234375 C-3.68979572 18.22426678 -3.68979572 18.22426678 -4.81640625 17.09765625 C-4.91621839 14.42034245 -4.955205 11.7746145 -4.94140625 9.09765625 C-4.94527344 8.34742187 -4.94914062 7.5971875 -4.953125 6.82421875 C-4.94103514 0.12643386 -4.94103514 0.12643386 0 0 Z " fill="#36DDC6" transform="translate(109.81640625,95.90234375)"/>
<path d="M0 0 C2.625 0.25 2.625 0.25 4.4375 1.625 C5.625 3.25 5.625 3.25 5.625 5.25 C7.275 5.25 8.925 5.25 10.625 5.25 C11.8125 6.9375 11.8125 6.9375 12.625 9.25 C10.95697977 13.04937941 8.86426307 14.8205527 5.625 17.25 C5.13 18.136875 4.635 19.02375 4.125 19.9375 C3.63 20.700625 3.135 21.46375 2.625 22.25 C1.305 22.25 -0.015 22.25 -1.375 22.25 C-2.375 20.25 -2.375 20.25 -2.375 12.25 C-8.645 11.92 -14.915 11.59 -21.375 11.25 C-21.375 10.59 -21.375 9.93 -21.375 9.25 C-20.34375 9.353125 -19.3125 9.45625 -18.25 9.5625 C-13.37568643 9.1694102 -11.89007642 7.53583231 -8.375 4.25 C-6.7247306 3.2231657 -5.06256133 2.21432076 -3.375 1.25 C-2.375 0.25 -2.375 0.25 0 0 Z " fill="#44D6D2" transform="translate(119.375,37.75)"/>
<path d="M0 0 C1.08667969 0.02707031 2.17335938 0.05414063 3.29296875 0.08203125 C4.54013672 0.13423828 4.54013672 0.13423828 5.8125 0.1875 C6.1425 2.8275 6.4725 5.4675 6.8125 8.1875 C10.1125 8.5175 13.4125 8.8475 16.8125 9.1875 C15.4925 10.5075 14.1725 11.8275 12.8125 13.1875 C12.8125 12.1975 12.8125 11.2075 12.8125 10.1875 C11.20894899 13.69526784 10.59213136 16.33104879 10.8125 20.1875 C7.8425 20.5175 4.8725 20.8475 1.8125 21.1875 C1.8125 23.4975 1.8125 25.8075 1.8125 28.1875 C1.1525 28.5175 0.4925 28.8475 -0.1875 29.1875 C-0.5175 22.9175 -0.8475 16.6475 -1.1875 10.1875 C-3.8275 10.1875 -6.4675 10.1875 -9.1875 10.1875 C-9.55218886 3.74466353 -9.55218886 3.74466353 -8.0625 1.46875 C-5.3504604 -0.38447706 -3.24426436 -0.10465369 0 0 Z " fill="#5A39FF" transform="translate(35.1875,48.8125)"/>
<path d="M0 0 C13.53 0 27.06 0 41 0 C41 1.65 41 3.3 41 5 C27.47 5 13.94 5 0 5 C0 3.35 0 1.7 0 0 Z " fill="#3C3D89" transform="translate(60,97)"/>
<path d="M0 0 C1.084021 0.00523682 2.16804199 0.01047363 3.28491211 0.01586914 C5.03964844 0.02070312 5.03964844 0.02070312 6.82983398 0.02563477 C8.67738281 0.03820313 8.67738281 0.03820313 10.56225586 0.05102539 C12.41560547 0.05779297 12.41560547 0.05779297 14.30639648 0.06469727 C17.37089703 0.07652931 20.43530307 0.09301366 23.49975586 0.11352539 C23.49975586 1.76352539 23.49975586 3.41352539 23.49975586 5.11352539 C22.88100586 4.92790039 22.26225586 4.74227539 21.62475586 4.55102539 C19.45815408 3.87666363 19.45815408 3.87666363 17.49975586 5.11352539 C17.49975586 6.10352539 17.49975586 7.09352539 17.49975586 8.11352539 C16.94288086 7.78352539 16.38600586 7.45352539 15.81225586 7.11352539 C13.11117257 5.94548937 11.41438372 5.73985515 8.49975586 6.11352539 C6.95808944 7.48838072 6.95808944 7.48838072 5.49975586 9.11352539 C4.23131836 9.60852539 4.23131836 9.60852539 2.93725586 10.11352539 C0.18737264 10.97624948 0.18737264 10.97624948 -1.50024414 14.11352539 C-2.16024414 14.11352539 -2.82024414 14.11352539 -3.50024414 14.11352539 C-3.52710352 11.96775903 -3.54657502 9.82189894 -3.56274414 7.67602539 C-3.5743457 6.48106445 -3.58594727 5.28610352 -3.59790039 4.05493164 C-3.46850325 0.15748989 -3.46850325 0.15748989 0 0 Z " fill="#36CFD7" transform="translate(108.500244140625,32.886474609375)"/>
<path d="M0 0 C0.8971875 0.5259375 0.8971875 0.5259375 1.8125 1.0625 C1.4825 3.7025 1.1525 6.3425 0.8125 9.0625 C1.4725 9.0625 2.1325 9.0625 2.8125 9.0625 C2.4825 10.7125 2.1525 12.3625 1.8125 14.0625 C0.1625 14.3925 -1.4875 14.7225 -3.1875 15.0625 C-3.5175 16.3825 -3.8475 17.7025 -4.1875 19.0625 C-6.5 19.25 -6.5 19.25 -9.1875 19.0625 C-10.1875 18.0625 -11.1875 17.0625 -12.1875 16.0625 C-14.35049211 16.29007731 -14.35049211 16.29007731 -16.1875 17.0625 C-18.3125 12.4375 -18.3125 12.4375 -17.1875 9.0625 C-17.8475 8.0725 -18.5075 7.0825 -19.1875 6.0625 C-19.1875 5.0725 -19.1875 4.0825 -19.1875 3.0625 C-16.5475 3.0625 -13.9075 3.0625 -11.1875 3.0625 C-11.39375 4.17625 -11.6 5.29 -11.8125 6.4375 C-11.998125 8.231875 -11.998125 8.231875 -12.1875 10.0625 C-10.28994856 12.41223818 -10.28994856 12.41223818 -7.0625 12.1875 C-5.639375 12.125625 -5.639375 12.125625 -4.1875 12.0625 C-3.89187633 6.74079506 -3.89187633 6.74079506 -6.1875 2.0625 C-4.66896708 -0.97456585 -3.05066334 -1.30742714 0 0 Z " fill="#EAEBF2" transform="translate(140.1875,59.9375)"/>
<path d="M0 0 C0.83265381 0.00523682 1.66530762 0.01047363 2.52319336 0.01586914 C3.42231445 0.0190918 4.32143555 0.02231445 5.24780273 0.02563477 C6.66609375 0.03820312 6.66609375 0.03820312 8.11303711 0.05102539 C9.06243164 0.05553711 10.01182617 0.06004883 10.98999023 0.06469727 C13.34353242 0.07652411 15.69704243 0.09446018 18.05053711 0.11352539 C18.05053711 3.08352539 18.05053711 6.05352539 18.05053711 9.11352539 C14.73798385 9.14035976 11.42564528 9.16028319 8.11303711 9.17602539 C7.16750977 9.1844043 6.22198242 9.1927832 5.24780273 9.20141602 C3.89912109 9.20625 3.89912109 9.20625 2.52319336 9.21118164 C1.69053955 9.21641846 0.85788574 9.22165527 0 9.22705078 C-1.94946289 9.11352539 -1.94946289 9.11352539 -2.94946289 8.11352539 C-3.07446289 4.61352539 -3.07446289 4.61352539 -2.94946289 1.11352539 C-1.94946289 0.11352539 -1.94946289 0.11352539 0 0 Z " fill="#33CBDB" transform="translate(15.949462890625,31.886474609375)"/>
<path d="M0 0 C0.02685412 2.31243792 0.04632841 4.6249627 0.0625 6.9375 C0.07410156 8.22527344 0.08570312 9.51304688 0.09765625 10.83984375 C0 14 0 14 -1 15 C-2.85369611 15.08737645 -4.71067541 15.10698153 -6.56640625 15.09765625 C-7.69111328 15.09443359 -8.81582031 15.09121094 -9.97460938 15.08789062 C-11.15861328 15.07951172 -12.34261719 15.07113281 -13.5625 15.0625 C-14.75037109 15.05798828 -15.93824219 15.05347656 -17.16210938 15.04882812 C-20.10812226 15.03699675 -23.05403681 15.02051287 -26 15 C-26.33 14.01 -26.66 13.02 -27 12 C-20.73 11.67 -14.46 11.34 -8 11 C-8.33 8.69 -8.66 6.38 -9 4 C-8.67 3.01 -8.34 2.02 -8 1 C-5.07175348 0.02391783 -3.04386724 -0.08226668 0 0 Z " fill="#38D9C5" transform="translate(60,90)"/>
<path d="M0 0 C3.63 0 7.26 0 11 0 C11.33 0.66 11.66 1.32 12 2 C11.67 2.99 11.34 3.98 11 5 C18.26 5.33 25.52 5.66 33 6 C33 6.66 33 7.32 33 8 C18.81 8 4.62 8 -10 8 C-10 7.34 -10 6.68 -10 6 C-7.98177083 5.609375 -5.96354167 5.21875 -3.9453125 4.828125 C-1.47178598 4.02322581 -1.47178598 4.02322581 0 0 Z " fill="#9FC3FE" transform="translate(61,113)"/>
<path d="M0 0 C1.32 0 2.64 0 4 0 C4 6.6 4 13.2 4 20 C6.31 20 8.62 20 11 20 C11.33 20.99 11.66 21.98 12 23 C3.19039858 24.30512614 -5.19039858 24.30512614 -14 23 C-13.505 21.515 -13.505 21.515 -13 20 C-8.71 20 -4.42 20 0 20 C0 13.4 0 6.8 0 0 Z " fill="#4C4CA1" transform="translate(115,63)"/>
<path d="M0 0 C1.31871094 -0.01224609 2.63742188 -0.02449219 3.99609375 -0.03710938 C5.90068359 -0.04000977 5.90068359 -0.04000977 7.84375 -0.04296875 C9.00068359 -0.04707764 10.15761719 -0.05118652 11.34960938 -0.05541992 C14.47736509 0.18575467 16.680892 0.85423629 19.5 2.1875 C18.5 4.1875 18.5 4.1875 16.84521484 4.80200195 C11.99200924 5.59975457 7.04404055 5.37340312 2.13769531 5.37280273 C0.13863013 5.37498512 -1.86039532 5.39349143 -3.859375 5.41210938 C-5.13039063 5.41404297 -6.40140625 5.41597656 -7.7109375 5.41796875 C-8.86899902 5.42207764 -10.02706055 5.42618652 -11.22021484 5.43041992 C-14.61310954 5.17912245 -17.33332989 4.39923908 -20.5 3.1875 C-20.17 2.5275 -19.84 1.8675 -19.5 1.1875 C-13.23640183 -0.60566158 -6.45139424 0.00315317 0 0 Z " fill="#EAEBF2" transform="translate(114.5,125.8125)"/>
<path d="M0 0 C1.98 0 3.96 0 6 0 C6.33 0.66 6.66 1.32 7 2 C8.89533342 2.46523063 8.89533342 2.46523063 11.0625 2.625 C12.361875 2.74875 13.66125 2.8725 15 3 C15 3.99 15 4.98 15 6 C15.88214887 8.88214887 15.88214887 8.88214887 17 11 C14.35409986 11.02684679 11.70846904 11.04676357 9.0625 11.0625 C7.93038086 11.07506836 7.93038086 11.07506836 6.77539062 11.08789062 C4.85005687 11.09652441 2.92464419 11.05224333 1 11 C0 10 0 10 -0.09765625 7.71484375 C-0.08605469 6.79832031 -0.07445313 5.88179688 -0.0625 4.9375 C-0.05347656 4.01839844 -0.04445313 3.09929687 -0.03515625 2.15234375 C-0.02355469 1.44207031 -0.01195313 0.73179688 0 0 Z " fill="#C5DCFE" transform="translate(27,102)"/>
<path d="M0 0 C0.33 0 0.66 0 1 0 C1.02685095 2.47923801 1.04676547 4.9581884 1.0625 7.4375 C1.07087891 8.14455078 1.07925781 8.85160156 1.08789062 9.58007812 C1.09653588 11.38693559 1.05220011 13.19387603 1 15 C0 16 0 16 -1.94946289 16.02172852 C-2.7821167 15.97459717 -3.61477051 15.92746582 -4.47265625 15.87890625 C-5.37177734 15.83056641 -6.27089844 15.78222656 -7.19726562 15.73242188 C-8.14279297 15.67634766 -9.08832031 15.62027344 -10.0625 15.5625 C-11.01189453 15.51029297 -11.96128906 15.45808594 -12.93945312 15.40429688 C-15.29326952 15.27418642 -17.64670699 15.13920888 -20 15 C-20 14.01 -20 13.02 -20 12 C-16.71023192 10.90341064 -15.28696233 11.20046862 -12 12 C-12 11.34 -12 10.68 -12 10 C-11.34 10 -10.68 10 -10 10 C-10 10.66 -10 11.32 -10 12 C-9.01 12 -8.02 12 -7 12 C-6.67 10.68 -6.34 9.36 -6 8 C-5.01 8 -4.02 8 -3 8 C-2.87625 7.236875 -2.7525 6.47375 -2.625 5.6875 C-2 3 -2 3 0 0 Z " fill="#37C4C5" transform="translate(33,65)"/>
<path d="M0 0 C1.58206057 0.00667536 3.16410534 0.0186375 4.74609375 0.03515625 C5.55240234 0.03966797 6.35871094 0.04417969 7.18945312 0.04882812 C9.18753131 0.06065107 11.18557158 0.07858711 13.18359375 0.09765625 C13.18359375 1.41765625 13.18359375 2.73765625 13.18359375 4.09765625 C12.19359375 4.42765625 11.20359375 4.75765625 10.18359375 5.09765625 C9.52359375 5.75765625 8.86359375 6.41765625 8.18359375 7.09765625 C6.82234375 6.69546875 6.82234375 6.69546875 5.43359375 6.28515625 C2.21695056 5.71817107 2.21695056 5.71817107 0.4921875 7.58203125 C-0.57787854 8.87126744 -1.61569975 10.18804727 -2.6171875 11.53125 C-3.21080078 12.30662109 -3.21080078 12.30662109 -3.81640625 13.09765625 C-4.14640625 13.09765625 -4.47640625 13.09765625 -4.81640625 13.09765625 C-4.84327178 11.11856227 -4.86274 9.13936654 -4.87890625 7.16015625 C-4.89050781 6.05800781 -4.90210937 4.95585938 -4.9140625 3.8203125 C-4.76201869 -0.41866885 -4.42989555 0.11335454 0 0 Z " fill="#40C2EE" transform="translate(109.81640625,95.90234375)"/>
<path d="M0 0 C3.14737182 0.69941596 6.02588876 1.76078698 9 3 C9 5.31 9 7.62 9 10 C8.01 10.33 7.02 10.66 6 11 C5.67 11.99 5.34 12.98 5 14 C4.01 14 3.02 14 2 14 C1.67 13.34 1.34 12.68 1 12 C-1.02463255 11.34786708 -1.02463255 11.34786708 -3 11 C-3.33 8.36 -3.66 5.72 -4 3 C-2.68 3 -1.36 3 0 3 C0 2.01 0 1.02 0 0 Z " fill="#F1FBFC" transform="translate(21,63)"/>
<path d="M0 0 C2.5625 0.3125 2.5625 0.3125 4.375 1.6875 C5.5625 3.3125 5.5625 3.3125 5.5625 5.3125 C7.2125 5.3125 8.8625 5.3125 10.5625 5.3125 C10.8925 6.3025 11.2225 7.2925 11.5625 8.3125 C3.9725 8.3125 -3.6175 8.3125 -11.4375 8.3125 C-10.4375 5.3125 -10.4375 5.3125 -7.5 3.75 C-6.489375 3.275625 -5.47875 2.80125 -4.4375 2.3125 C-2.4375 0.3125 -2.4375 0.3125 0 0 Z " fill="#F7FCFD" transform="translate(119.4375,37.6875)"/>
<path d="M0 0 C3.14581423 -0.02888514 6.29159469 -0.04675923 9.4375 -0.0625 C10.33533203 -0.07087891 11.23316406 -0.07925781 12.15820312 -0.08789062 C13.01220703 -0.09111328 13.86621094 -0.09433594 14.74609375 -0.09765625 C15.93223267 -0.10551147 15.93223267 -0.10551147 17.14233398 -0.11352539 C19 0 19 0 20 1 C20.04092937 3.33297433 20.04241723 5.66705225 20 8 C19.01 8 18.02 8 17 8 C17 7.01 17 6.02 17 5 C11.39 5 5.78 5 0 5 C0 3.35 0 1.7 0 0 Z " fill="#34ACC6" transform="translate(98,49)"/>
<path d="M0 0 C0.66 0.33 1.32 0.66 2 1 C2.33 2.32 2.66 3.64 3 5 C5.97 5.33 8.94 5.66 12 6 C11.67 7.32 11.34 8.64 11 10 C10.34 10 9.68 10 9 10 C9 10.66 9 11.32 9 12 C8.01 12 7.02 12 6 12 C6.33 12.66 6.66 13.32 7 14 C6.01 14 5.02 14 4 14 C3.67 14.66 3.34 15.32 3 16 C1.68 16 0.36 16 -1 16 C-1.02701408 13.89590361 -1.04640223 11.79170822 -1.0625 9.6875 C-1.07410156 8.51574219 -1.08570312 7.34398438 -1.09765625 6.13671875 C-1 3 -1 3 0 0 Z " fill="#6C72FE" transform="translate(103,108)"/>
<path d="M0 0 C-1.75 3.875 -1.75 3.875 -4 5 C-4.90725434 7.11327425 -4.90725434 7.11327425 -5.625 9.5625 C-5.88539062 10.38878906 -6.14578125 11.21507813 -6.4140625 12.06640625 C-6.60742188 12.70449219 -6.80078125 13.34257813 -7 14 C-7.66 14 -8.32 14 -9 14 C-9 13.01 -9 12.02 -9 11 C-10.32 11 -11.64 11 -13 11 C-13.33 11.99 -13.66 12.98 -14 14 C-15.32 12.35 -16.64 10.7 -18 9 C-15.28165908 5.94186647 -12.75576511 5.05865253 -8.9375 3.84375 C-6.90695783 3.1108377 -6.90695783 3.1108377 -5.5 1.40625 C-4 0 -4 0 0 0 Z " fill="#41B4DF" transform="translate(53,86)"/>
<path d="M0 0 C1.32 0 2.64 0 4 0 C4 5.28 4 10.56 4 16 C4.99 16 5.98 16 7 16 C7 17.65 7 19.3 7 21 C4.69 21 2.38 21 0 21 C0 14.07 0 7.14 0 0 Z " fill="#41428D" transform="translate(26,81)"/>
<path d="M0 0 C1.39456452 0.00667256 2.78911118 0.01863093 4.18359375 0.03515625 C4.89451172 0.03966797 5.60542969 0.04417969 6.33789062 0.04882812 C8.09899388 0.06064761 9.86005411 0.07858362 11.62109375 0.09765625 C6.50079647 5.51810889 6.50079647 5.51810889 2.87109375 6.72265625 C1.79859375 7.17640625 0.72609375 7.63015625 -0.37890625 8.09765625 C-0.70890625 9.08765625 -1.03890625 10.07765625 -1.37890625 11.09765625 C-2.36890625 11.09765625 -3.35890625 11.09765625 -4.37890625 11.09765625 C-4.40578776 9.45191059 -4.42524748 7.80604212 -4.44140625 6.16015625 C-4.45300781 5.24363281 -4.46460938 4.32710938 -4.4765625 3.3828125 C-4.3190922 -0.30199259 -3.80656158 0.11001623 0 0 Z " fill="#48A2E9" transform="translate(37.37890625,85.90234375)"/>
<path d="M0 0 C3.3 0 6.6 0 10 0 C10 0.99 10 1.98 10 3 C10.99 3.33 11.98 3.66 13 4 C12.01 4.495 12.01 4.495 11 5 C10.67 6.32 10.34 7.64 10 9 C6.7 9 3.4 9 0 9 C0 6.03 0 3.06 0 0 Z " fill="#3DBBDD" transform="translate(105,54)"/>
<path d="M0 0 C1.08667969 0.02707031 2.17335938 0.05414063 3.29296875 0.08203125 C4.54013672 0.13423828 4.54013672 0.13423828 5.8125 0.1875 C5.8125 1.8375 5.8125 3.4875 5.8125 5.1875 C2.1825 5.1875 -1.4475 5.1875 -5.1875 5.1875 C-5.1875 6.8375 -5.1875 8.4875 -5.1875 10.1875 C-6.5075 10.1875 -7.8275 10.1875 -9.1875 10.1875 C-9.55218886 3.74466353 -9.55218886 3.74466353 -8.0625 1.46875 C-5.3504604 -0.38447706 -3.24426436 -0.10465369 0 0 Z " fill="#3C3D89" transform="translate(35.1875,48.8125)"/>
<path d="M0 0 C0.99 0 1.98 0 3 0 C3 1.98 3 3.96 3 6 C9.27 6 15.54 6 22 6 C22.33 6.99 22.66 7.98 23 9 C19.35418313 9.02887512 15.70839537 9.04675585 12.0625 9.0625 C10.50112305 9.07506836 10.50112305 9.07506836 8.90820312 9.08789062 C7.91884766 9.09111328 6.92949219 9.09433594 5.91015625 9.09765625 C4.99371338 9.10289307 4.07727051 9.10812988 3.13305664 9.11352539 C1 9 1 9 0 8 C-0.14115161 5.32941149 -0.04247107 2.67567762 0 0 Z " fill="#3DA7E4" transform="translate(41,49)"/>
<path d="M0 0 C0.66 0 1.32 0 2 0 C2 5.61 2 11.22 2 17 C0.66666667 17.66666667 -0.66666667 18.33333333 -2 19 C-2 16.03 -2 13.06 -2 10 C-3.98 10 -5.96 10 -8 10 C-7.34 9.67 -6.68 9.34 -6 9 C-6.33 8.01 -6.66 7.02 -7 6 C-6.01 6 -5.02 6 -4 6 C-2.34043892 4.08512183 -1.13211641 2.26423282 0 0 Z " fill="#6660FF" transform="translate(125,86)"/>
<path d="M0 0 C1.32 0 2.64 0 4 0 C4 6.6 4 13.2 4 20 C2.68 19.67 1.36 19.34 0 19 C0 12.73 0 6.46 0 0 Z " fill="#3E3E8B" transform="translate(115,63)"/>
<path d="M0 0 C0.99 0.33 1.98 0.66 3 1 C3 4.96 3 8.92 3 13 C2.01 13 1.02 13 0 13 C-0.66 12.34 -1.32 11.68 -2 11 C-4.57061311 10.35232207 -4.57061311 10.35232207 -7 10 C-6.34 7.69 -5.68 5.38 -5 3 C-3.68 3.33 -2.36 3.66 -1 4 C-0.67 2.68 -0.34 1.36 0 0 Z " fill="#3BD5D0" transform="translate(132,33)"/>
<path d="M0 0 C8.58 0 17.16 0 26 0 C25.67 0.99 25.34 1.98 25 3 C17.08 3 9.16 3 1 3 C0.67 2.01 0.34 1.02 0 0 Z " fill="#4C4CA0" transform="translate(101,124)"/>
<path d="M0 0 C8.25 0 16.5 0 25 0 C25.33 0.66 25.66 1.32 26 2 C22.99984088 3.00005304 21.02576244 3.11575585 17.89453125 3.09765625 C16.91162109 3.09443359 15.92871094 3.09121094 14.91601562 3.08789062 C13.89185547 3.07951172 12.86769531 3.07113281 11.8125 3.0625 C10.77673828 3.05798828 9.74097656 3.05347656 8.67382812 3.04882812 C6.11582734 3.0370401 3.55794267 3.02058515 1 3 C0.67 2.01 0.34 1.02 0 0 Z " fill="#3BBFDA" transform="translate(63,55)"/>
<path d="M0 0 C1.67542976 0.28604898 3.34385343 0.61781233 5 1 C6.125 6.625 6.125 6.625 5 10 C3.0625 12.1875 3.0625 12.1875 1 14 C0.34 14 -0.32 14 -1 14 C-1.02685938 11.85423363 -1.04633088 9.70837355 -1.0625 7.5625 C-1.07410156 6.36753906 -1.08570312 5.17257813 -1.09765625 3.94140625 C-1 1 -1 1 0 0 Z " fill="#31C6DF" transform="translate(106,33)"/>
<path d="M0 0 C2.31 0 4.62 0 7 0 C7.33 0.66 7.66 1.32 8 2 C7.67 2.33 7.34 2.66 7 3 C7.99 3.99 8.98 4.98 10 6 C9.34 6 8.68 6 8 6 C8 6.66 8 7.32 8 8 C5.36 8.99 2.72 9.98 0 11 C0 7.37 0 3.74 0 0 Z " fill="#5A38FF" transform="translate(102,86)"/>
<path d="M0 0 C0.94875 0.04125 1.8975 0.0825 2.875 0.125 C3.205 1.445 3.535 2.765 3.875 4.125 C1.235 4.455 -1.405 4.785 -4.125 5.125 C-4.0425 5.8675 -3.96 6.61 -3.875 7.375 C-4.125 10.125 -4.125 10.125 -6 12.4375 C-8.125 14.125 -8.125 14.125 -10.125 14.125 C-9.135 11.155 -8.145 8.185 -7.125 5.125 C-7.785 4.795 -8.445 4.465 -9.125 4.125 C-8.135 4.125 -7.145 4.125 -6.125 4.125 C-5.795 3.465 -5.465 2.805 -5.125 2.125 C-3.125 0.125 -3.125 0.125 0 0 Z " fill="#3DC1D7" transform="translate(56.125,85.875)"/>
<path d="M0 0 C5.61 0 11.22 0 17 0 C17 1.32 17 2.64 17 4 C11.39 4 5.78 4 0 4 C0 2.68 0 1.36 0 0 Z " fill="#3C3E8A" transform="translate(15,34)"/>
<path d="M0 0 C3.125 0.375 3.125 0.375 6 1 C6.6875 3.3125 6.6875 3.3125 7 6 C5.875 7.875 5.875 7.875 4 9 C1.3125 8.6875 1.3125 8.6875 -1 8 C-1.625 5.125 -1.625 5.125 -2 2 C-1.34 1.34 -0.68 0.68 0 0 Z " fill="#6FDBE4" transform="translate(112,101)"/>
<path d="M0 0 C1.24716797 0.00322266 2.49433594 0.00644531 3.77929688 0.00976562 C5.07287109 0.01814453 6.36644531 0.02652344 7.69921875 0.03515625 C9.66858398 0.04192383 9.66858398 0.04192383 11.67773438 0.04882812 C14.91410885 0.06059676 18.15039053 0.07703865 21.38671875 0.09765625 C21.05671875 0.75765625 20.72671875 1.41765625 20.38671875 2.09765625 C19.73074707 2.11747559 19.07477539 2.13729492 18.39892578 2.15771484 C15.43610806 2.25278132 12.47401343 2.36253377 9.51171875 2.47265625 C7.96291016 2.5190625 7.96291016 2.5190625 6.3828125 2.56640625 C4.90361328 2.62441406 4.90361328 2.62441406 3.39453125 2.68359375 C2.4833252 2.71501465 1.57211914 2.74643555 0.63330078 2.77880859 C-1.81259311 2.89648136 -1.81259311 2.89648136 -3.61328125 5.09765625 C-6.34197532 5.06478042 -8.90994305 4.53367854 -11.61328125 4.09765625 C-11.61328125 3.10765625 -11.61328125 2.11765625 -11.61328125 1.09765625 C-7.68039761 0.16677716 -4.03673962 -0.0184326 0 0 Z " fill="#D9D9E8" transform="translate(106.61328125,125.90234375)"/>
<path d="M0 0 C1.5 1.375 1.5 1.375 3 3 C3 3.66 3 4.32 3 5 C4.65 5.33 6.3 5.66 8 6 C7.67 6.66 7.34 7.32 7 8 C6.34 8 5.68 8 5 8 C5 8.66 5 9.32 5 10 C2.69 10 0.38 10 -2 10 C-3.06351675 6.61608307 -3.21442982 5.4195366 -1.5625 2.1875 C-1.046875 1.465625 -0.53125 0.74375 0 0 Z " fill="#3ECEE5" transform="translate(108,104)"/>
<path d="M0 0 C1.32 0.33 2.64 0.66 4 1 C3.67 2.65 3.34 4.3 3 6 C1.35 6.33 -0.3 6.66 -2 7 C-2 7.66 -2 8.32 -2 9 C-4.31 9.33 -6.62 9.66 -9 10 C-8.67 8.35 -8.34 6.7 -8 5 C-7.05125 4.731875 -6.1025 4.46375 -5.125 4.1875 C-1.74732727 3.25013412 -1.74732727 3.25013412 0 0 Z " fill="#6254FE" transform="translate(121,86)"/>
<path d="M0 0 C2.64 0 5.28 0 8 0 C8.07427838 3.34252724 8.06546953 5.8035914 7 9 C6.34 9 5.68 9 5 9 C5 9.66 5 10.32 5 11 C4.34 11 3.68 11 3 11 C2.87625 10.030625 2.7525 9.06125 2.625 8.0625 C2.41875 7.051875 2.2125 6.04125 2 5 C1.34 4.67 0.68 4.34 0 4 C0 2.68 0 1.36 0 0 Z " fill="#3CB8DB" transform="translate(26,59)"/>
<path d="M0 0 C-0.15481795 2.70931419 -0.48172081 4.46584039 -2.40234375 6.4453125 C-3.89771708 7.67679642 -5.4462924 8.8429837 -7 10 C-7 9.01 -7 8.02 -7 7 C-7.66 6.67 -8.32 6.34 -9 6 C-8.67 4.35 -8.34 2.7 -8 1 C-5.07175348 0.02391783 -3.04386724 -0.08226668 0 0 Z " fill="#46CFD6" transform="translate(60,90)"/>
<path d="M0 0 C1.65 0 3.3 0 5 0 C5 2.97 5 5.94 5 9 C2.66705225 9.04241723 0.33297433 9.04092937 -2 9 C-2.33 8.67 -2.66 8.34 -3 8 C-4.84891946 7.76636119 -6.70488031 7.58696365 -8.5625 7.4375 C-9.57441406 7.35371094 -10.58632813 7.26992188 -11.62890625 7.18359375 C-12.80259766 7.09271484 -12.80259766 7.09271484 -14 7 C-14 6.67 -14 6.34 -14 6 C-8.39 6 -2.78 6 3 6 C3 4.68 3 3.36 3 2 C2.01 1.67 1.02 1.34 0 1 C0 0.67 0 0.34 0 0 Z " fill="#35C4CB" transform="translate(29,32)"/>
<path d="M0 0 C2.31 0 4.62 0 7 0 C7.75 2.25 7.75 2.25 8 5 C6.25 7.3125 6.25 7.3125 4 9 C3.01 9 2.02 9 1 9 C0.67 6.03 0.34 3.06 0 0 Z " fill="#6FD4E3" transform="translate(110,33)"/>
<path d="M0 0 C5.61 0 11.22 0 17 0 C17 0.99 17 1.98 17 3 C11.72 3 6.44 3 1 3 C0.67 2.01 0.34 1.02 0 0 Z " fill="#43D7D0" transform="translate(33,102)"/>
<path d="M0 0 C0.99 0 1.98 0 3 0 C3.09765625 6.15234375 3.09765625 6.15234375 3 8 C2 9 2 9 -0.50390625 9.09765625 C-2.01791016 9.08025391 -2.01791016 9.08025391 -3.5625 9.0625 C-4.57441406 9.05347656 -5.58632812 9.04445313 -6.62890625 9.03515625 C-7.41136719 9.02355469 -8.19382812 9.01195312 -9 9 C-8.34 8.01 -7.68 7.02 -7 6 C-3.375 5.8125 -3.375 5.8125 0 6 C0 4.02 0 2.04 0 0 Z " fill="#38CACD" transform="translate(95,49)"/>
<path d="M0 0 C0.495 0.99 0.495 0.99 1 2 C0.37955811 2.02505615 -0.24088379 2.0501123 -0.88012695 2.07592773 C-3.69112397 2.19196721 -6.50179241 2.31465759 -9.3125 2.4375 C-10.28896484 2.47681641 -11.26542969 2.51613281 -12.27148438 2.55664062 C-13.20927734 2.59853516 -14.14707031 2.64042969 -15.11328125 2.68359375 C-15.97735596 2.72025146 -16.84143066 2.75690918 -17.73168945 2.79467773 C-20.1647826 2.92747354 -20.1647826 2.92747354 -23 4 C-24.72795352 4.06802967 -26.45835365 4.08495645 -28.1875 4.0625 C-29.53908203 4.04896484 -29.53908203 4.04896484 -30.91796875 4.03515625 C-31.60503906 4.02355469 -32.29210937 4.01195312 -33 4 C-33 3.34 -33 2.68 -33 2 C-31.88625 2.020625 -30.7725 2.04125 -29.625 2.0625 C-26.16784079 2.26380718 -26.16784079 2.26380718 -24 1 C-22.18828902 0.84693099 -20.3716206 0.75053339 -18.5546875 0.68359375 C-17.47832031 0.64169922 -16.40195313 0.59980469 -15.29296875 0.55664062 C-14.16503906 0.51732422 -13.03710938 0.47800781 -11.875 0.4375 C-10.73933594 0.39431641 -9.60367188 0.35113281 -8.43359375 0.30664062 C-5.62252232 0.2003396 -2.81136055 0.09830595 0 0 Z " fill="#A5E7EB" transform="translate(131,45)"/>
<path d="M0 0 C-0.99 0.495 -0.99 0.495 -2 1 C-2.33 2.32 -2.66 3.64 -3 5 C-5.97 5 -8.94 5 -12 5 C-11.01 4.34 -10.02 3.68 -9 3 C-9.33 2.34 -9.66 1.68 -10 1 C-6.54366026 -2.45633974 -4.11562231 -2.49877069 0 0 Z " fill="#3EC8D7" transform="translate(118,58)"/>
<path d="M0 0 C1.98 0 3.96 0 6 0 C2.17819158 4.4008703 -0.47371099 5.80805531 -6 7 C-6 5.68 -6 4.36 -6 3 C-4.02 2.67 -2.04 2.34 0 2 C0 1.34 0 0.68 0 0 Z " fill="#40A7E5" transform="translate(43,86)"/>
<path d="M0 0 C2.60444348 -0.05394705 5.20776998 -0.09364469 7.8125 -0.125 C8.55048828 -0.14175781 9.28847656 -0.15851562 10.04882812 -0.17578125 C13.91246426 -0.21074628 15.70903668 -0.19397555 19 2 C13.39 2 7.78 2 2 2 C2 2.66 2 3.32 2 4 C1.01 4 0.02 4 -1 4 C-0.67 2.68 -0.34 1.36 0 0 Z " fill="#32C7DC" transform="translate(42,45)"/>
<path d="M0 0 C0.66 0 1.32 0 2 0 C2 0.66 2 1.32 2 2 C2.66 2.33 3.32 2.66 4 3 C3.67 3.66 3.34 4.32 3 5 C-0.63 5 -4.26 5 -8 5 C-8 4.01 -8 3.02 -8 2 C-4.71023192 0.90341064 -3.28696233 1.20046862 0 2 C0 1.34 0 0.68 0 0 Z " fill="#35D4D0" transform="translate(21,75)"/>
<path d="M0 0 C1.37478516 0.01740234 1.37478516 0.01740234 2.77734375 0.03515625 C3.69644531 0.04417969 4.61554688 0.05320312 5.5625 0.0625 C6.27277344 0.07410156 6.98304687 0.08570312 7.71484375 0.09765625 C4.71484375 2.09765625 4.71484375 2.09765625 1.71484375 2.09765625 C1.71484375 2.75765625 1.71484375 3.41765625 1.71484375 4.09765625 C0.04817708 5.76432292 -1.61848958 7.43098958 -3.28515625 9.09765625 C-3.3828125 2.9453125 -3.3828125 2.9453125 -3.28515625 1.09765625 C-2.28515625 0.09765625 -2.28515625 0.09765625 0 0 Z " fill="#45B4F5" transform="translate(108.28515625,95.90234375)"/>
<path d="M0 0 C0.99 0.33 1.98 0.66 3 1 C3 3.64 3 6.28 3 9 C1.02 9.33 -0.96 9.66 -3 10 C-2.01 6.7 -1.02 3.4 0 0 Z " fill="#39D9D5" transform="translate(120,99)"/>
<path d="M0 0 C2.31 0.66 4.62 1.32 7 2 C7 2.99 7 3.98 7 5 C3.04 5 -0.92 5 -5 5 C-4 3 -4 3 -1 2 C-0.67 1.34 -0.34 0.68 0 0 Z " fill="#7896FE" transform="translate(120,119)"/>
<path d="M0 0 C2.31 0 4.62 0 7 0 C7 1.65 7 3.3 7 5 C4.69 5 2.38 5 0 5 C0 3.35 0 1.7 0 0 Z " fill="#3C3E8A" transform="translate(98,49)"/>
<path d="M0 0 C0 1.32 0 2.64 0 4 C-0.99 4.33 -1.98 4.66 -3 5 C-3.66 5.66 -4.32 6.32 -5 7 C-6.65 6.01 -8.3 5.02 -10 4 C-4 0 -4 0 0 0 Z " fill="#40CEE4" transform="translate(123,96)"/>
<path d="M0 0 C0.99 0 1.98 0 3 0 C3 1.98 3 3.96 3 6 C3.99 6.33 4.98 6.66 6 7 C6 7.66 6 8.32 6 9 C4.33388095 9.042721 2.66617115 9.04063832 1 9 C0 8 0 8 -0.09765625 6.15234375 C-0.06510417 4.1015625 -0.03255208 2.05078125 0 0 Z " fill="#3D92D8" transform="translate(41,49)"/>
<path d="M0 0 C0.99 0 1.98 0 3 0 C3 2.64 3 5.28 3 8 C1.66666667 8.66666667 0.33333333 9.33333333 -1 10 C-1.02689216 8.52093108 -1.04634621 7.04172517 -1.0625 5.5625 C-1.07410156 4.73878906 -1.08570312 3.91507812 -1.09765625 3.06640625 C-1 1 -1 1 0 0 Z " fill="#6C70FE" transform="translate(124,95)"/>
<path d="M0 0 C1.0625 1.875 1.0625 1.875 2 4 C1.67 4.66 1.34 5.32 1 6 C1.66 6.33 2.32 6.66 3 7 C2.34 7 1.68 7 1 7 C1 9.64 1 12.28 1 15 C0.34 15 -0.32 15 -1 15 C-1.02685412 12.68756208 -1.04632841 10.3750373 -1.0625 8.0625 C-1.07410156 6.77472656 -1.08570313 5.48695312 -1.09765625 4.16015625 C-1 1 -1 1 0 0 Z " fill="#31C5E0" transform="translate(14,61)"/>
<path d="M0 0 C1.67542976 0.28604898 3.34385343 0.61781233 5 1 C4.67 2.32 4.34 3.64 4 5 C2.68 5.33 1.36 5.66 0 6 C-0.38218767 4.34385343 -0.71395102 2.67542976 -1 1 C-0.67 0.67 -0.34 0.34 0 0 Z " fill="#49CFDC" transform="translate(22,67)"/>
<path d="M0 0 C0.33 0 0.66 0 1 0 C1.125 6.75 1.125 6.75 0 9 C-2.3140622 9.73075648 -4.64828869 10.40138258 -7 11 C-6.67 10.01 -6.34 9.02 -6 8 C-5.01 8 -4.02 8 -3 8 C-2.814375 6.8553125 -2.814375 6.8553125 -2.625 5.6875 C-2 3 -2 3 0 0 Z " fill="#44CDD4" transform="translate(33,65)"/>
<path d="M0 0 C2.97 0.495 2.97 0.495 6 1 C5.67 1.66 5.34 2.32 5 3 C4.34 3 3.68 3 3 3 C3 3.66 3 4.32 3 5 C0.69 5 -1.62 5 -4 5 C-4 4.34 -4 3.68 -4 3 C-2.68 3 -1.36 3 0 3 C0 2.01 0 1.02 0 0 Z " fill="#3AD6DB" transform="translate(110,109)"/>
<path d="M0 0 C0.66 0.33 1.32 0.66 2 1 C2.73075648 3.3140622 3.40138258 5.64828869 4 8 C2.35 8.33 0.7 8.66 -1 9 C-0.67 6.03 -0.34 3.06 0 0 Z " fill="#6762FF" transform="translate(103,108)"/>
<path d="M0 0 C2.97 0.33 5.94 0.66 9 1 C9.33 2.32 9.66 3.64 10 5 C9.01 5 8.02 5 7 5 C7 4.34 7 3.68 7 3 C4.36 3 1.72 3 -1 3 C-0.67 2.01 -0.34 1.02 0 0 Z " fill="#56D9D5" transform="translate(88,44)"/>
<path d="M0 0 C0.99 0.33 1.98 0.66 3 1 C2.67 1.99 2.34 2.98 2 4 C-1.47325181 5.1577506 -4.36067448 5.06866652 -8 5 C-8.33 4.34 -8.66 3.68 -9 3 C-4.545 2.505 -4.545 2.505 0 2 C0 1.34 0 0.68 0 0 Z " fill="#34C5C5" transform="translate(50,97)"/>
<path d="M0 0 C2.97 0 5.94 0 9 0 C9 0.99 9 1.98 9 3 C6.36 3 3.72 3 1 3 C0.67 2.01 0.34 1.02 0 0 Z " fill="#3CB2DF" transform="translate(63,55)"/>
<path d="M0 0 C0.33 0.99 0.66 1.98 1 3 C3.31 3.33 5.62 3.66 8 4 C8 4.33 8 4.66 8 5 C6.37509046 5.02698189 4.75005367 5.04638757 3.125 5.0625 C1.76761719 5.07990234 1.76761719 5.07990234 0.3828125 5.09765625 C-2 5 -2 5 -4 4 C-4 3.01 -4 2.02 -4 1 C-2 0 -2 0 0 0 Z " fill="#BCD5FE" transform="translate(85,114)"/>
<path d="M0 0 C0.33 0 0.66 0 1 0 C1 2.64 1 5.28 1 8 C-2 7 -2 7 -4 6 C-4 5.01 -4 4.02 -4 3 C-2.68 2.67 -1.36 2.34 0 2 C0 1.34 0 0.68 0 0 Z " fill="#35D9C5" transform="translate(33,72)"/>
<path d="M0 0 C0.33 0.66 0.66 1.32 1 2 C1.99 2.33 2.98 2.66 4 3 C3.01 3.33 2.02 3.66 1 4 C0.01 5.485 0.01 5.485 -1 7 C-1.99 7.495 -1.99 7.495 -3 8 C-3.33 6.02 -3.66 4.04 -4 2 C-2.68 2 -1.36 2 0 2 C0 1.34 0 0.68 0 0 Z " fill="#DFF4F9" transform="translate(21,64)"/>
<path d="M0 0 C0.66 0 1.32 0 2 0 C2 1.98 2 3.96 2 6 C2.66 6.33 3.32 6.66 4 7 C2.02 7.99 2.02 7.99 0 9 C-0.66 8.01 -1.32 7.02 -2 6 C-1.125 2.8125 -1.125 2.8125 0 0 Z " fill="#F9FDFE" transform="translate(119,52)"/>
<path d="M0 0 C2.97 0 5.94 0 9 0 C9 0.66 9 1.32 9 2 C6.29120665 3.35439668 3.99066732 3.06501451 1 3 C0.67 2.01 0.34 1.02 0 0 Z " fill="#4FD1DC" transform="translate(33,102)"/>
<path d="M0 0 C1.23556641 0.01740234 1.23556641 0.01740234 2.49609375 0.03515625 C3.32238281 0.04417969 4.14867187 0.05320312 5 0.0625 C5.63808594 0.07410156 6.27617188 0.08570312 6.93359375 0.09765625 C6.93359375 0.75765625 6.93359375 1.41765625 6.93359375 2.09765625 C0.30859375 3.34765625 0.30859375 3.34765625 -3.06640625 1.09765625 C-2.06640625 0.09765625 -2.06640625 0.09765625 0 0 Z " fill="#4495EB" transform="translate(36.06640625,85.90234375)"/>
<path d="M0 0 C0.66 0.33 1.32 0.66 2 1 C2 2.65 2 4.3 2 6 C0.02 6.99 0.02 6.99 -2 8 C-2.20086443 4.28400809 -2.1519437 3.22791555 0 0 Z " fill="#707FFE" transform="translate(125,102)"/>
<path d="M0 0 C0.66 0 1.32 0 2 0 C1.01 2.97 0.02 5.94 -1 9 C-1.66 9 -2.32 9 -3 9 C-2.01 6.03 -1.02 3.06 0 0 Z " fill="#E6F6F9" transform="translate(47,91)"/>
<path d="M0 0 C0 2.31 0 4.62 0 7 C-0.99 7 -1.98 7 -3 7 C-3 6.01 -3 5.02 -3 4 C-3.66 3.67 -4.32 3.34 -5 3 C-1.125 0 -1.125 0 0 0 Z " fill="#34BEC6" transform="translate(118,50)"/>
<path d="M0 0 C-0.66 1.65 -1.32 3.3 -2 5 C-1.34 5 -0.68 5 0 5 C-0.33 5.99 -0.66 6.98 -1 8 C-2.32 6.35 -3.64 4.7 -5 3 C-2.25 0 -2.25 0 0 0 Z " fill="#DFF3F6" transform="translate(40,92)"/>
<path d="M0 0 C1.32 0 2.64 0 4 0 C4 1.98 4 3.96 4 6 C2.68 5.34 1.36 4.68 0 4 C0 2.68 0 1.36 0 0 Z " fill="#34ACC5" transform="translate(26,59)"/>
<path d="M0 0 C2.125 0.9375 2.125 0.9375 4 2 C0.98509443 3.00496852 -1.04181692 3.10335303 -4.1875 3.0625 C-5.53908203 3.04896484 -5.53908203 3.04896484 -6.91796875 3.03515625 C-7.60503906 3.02355469 -8.29210937 3.01195312 -9 3 C-9 2.34 -9 1.68 -9 1 C-7.88625 1.020625 -6.7725 1.04125 -5.625 1.0625 C-2.16784079 1.26380718 -2.16784079 1.26380718 0 0 Z " fill="#91CCDF" transform="translate(107,46)"/>
<path d="M0 0 C0.99 0.66 1.98 1.32 3 2 C3 2.99 3 3.98 3 5 C1.35 5 -0.3 5 -2 5 C-1.125 1.125 -1.125 1.125 0 0 Z " fill="#58D2E3" transform="translate(113,102)"/>
<path d="M0 0 C1.65 0.99 3.3 1.98 5 3 C3.35 4.65 1.7 6.3 0 8 C0.185625 7.236875 0.37125 6.47375 0.5625 5.6875 C1.22819173 2.91032625 1.22819173 2.91032625 0 0 Z " fill="#E5F8F9" transform="translate(53,92)"/>
<path d="M0 0 C2.31 0 4.62 0 7 0 C5.8125 1.5625 5.8125 1.5625 4 3 C1.3125 2.6875 1.3125 2.6875 -1 2 C-0.67 1.34 -0.34 0.68 0 0 Z " fill="#3E9BE9" transform="translate(47,55)"/>
</svg>
