<?xml version="1.0" encoding="UTF-8"?>
<svg version="1.1" xmlns="http://www.w3.org/2000/svg" width="150" height="150">
<path d="M0 0 C2.97 0.33 5.94 0.66 9 1 C10.04449911 4.13349732 9.93423645 4.98968256 9 8 C11.75924185 9.80411967 12.88972103 10.0127245 16.25 9.625 C17.1575 9.41875 18.065 9.2125 19 9 C19.99 11.97 19.99 11.97 21 15 C21.85464844 14.98839844 22.70929688 14.97679687 23.58984375 14.96484375 C24.69457031 14.95582031 25.79929687 14.94679688 26.9375 14.9375 C28.03964844 14.92589844 29.14179688 14.91429687 30.27734375 14.90234375 C33 15 33 15 34 16 C34.15806531 17.92478813 34.251135 19.8549921 34.31640625 21.78515625 C34.35830078 22.95498047 34.40019531 24.12480469 34.44335938 25.33007812 C34.48267578 26.56177734 34.52199219 27.79347656 34.5625 29.0625 C34.60568359 30.29806641 34.64886719 31.53363281 34.69335938 32.80664062 C34.79984198 35.87097335 34.90185424 38.93539073 35 42 C35.61875 41.79375 36.2375 41.5875 36.875 41.375 C37.57625 41.25125 38.2775 41.1275 39 41 C39.66 41.66 40.32 42.32 41 43 C40.96712417 45.72869407 40.43602229 48.2966618 40 51 C40.66 51 41.32 51 42 51 C41.67 52.65 41.34 54.3 41 56 C38.525 56.495 38.525 56.495 36 57 C35.67 58.32 35.34 59.64 35 61 C33.35 61 31.7 61 30 61 C29.67 60.01 29.34 59.02 29 58 C27.02 58.33 25.04 58.66 23 59 C22.01 57.35 21.02 55.7 20 54 C20.66 53.67 21.32 53.34 22 53 C21.67 52.236875 21.34 51.47375 21 50.6875 C20 48 20 48 20 45 C19.34 45 18.68 45 18 45 C18 51.6 18 58.2 18 65 C20.31 65 22.62 65 25 65 C26 66 26 66 26.11352539 69.96899414 C26.1133662 71.74105607 26.10766785 73.5131226 26.09765625 75.28515625 C26.0962413 76.21597519 26.09482635 77.14679413 26.09336853 78.1058197 C26.08775172 81.09141191 26.0751964 84.07693029 26.0625 87.0625 C26.05748716 89.08137913 26.05292388 91.10025943 26.04882812 93.11914062 C26.03777683 98.07945572 26.02050095 103.03971532 26 108 C28.31 108.66 30.62 109.32 33 110 C32 112 32 112 30.34521484 112.61450195 C25.49200924 113.41225457 20.54404055 113.18590312 15.63769531 113.18530273 C13.63863013 113.18748512 11.63960468 113.20599143 9.640625 113.22460938 C8.36960937 113.22654297 7.09859375 113.22847656 5.7890625 113.23046875 C4.63100098 113.23457764 3.47293945 113.23868652 2.27978516 113.24291992 C-1.11310954 112.99162245 -3.83332989 112.21173908 -7 111 C-6.67 110.34 -6.34 109.68 -6 109 C-3.4375 108.375 -3.4375 108.375 -1 108 C-1.67857056 107.99191315 -2.35714111 107.98382629 -3.05627441 107.97549438 C-10.19572947 107.88863335 -17.33493245 107.7891071 -24.47412109 107.68261719 C-27.12938188 107.64363425 -29.7845665 107.60971702 -32.43994141 107.578125 C-70.93926359 107.11445232 -70.93926359 107.11445232 -78 103 C-76.60804085 100.2160817 -74.84424221 100.02101003 -72 99 C-73.98 98.67 -75.96 98.34 -78 98 C-78.66 99.32 -79.32 100.64 -80 102 C-81.98 101.01 -83.96 100.02 -86 99 C-85.79375 98.21625 -85.5875 97.4325 -85.375 96.625 C-85.25125 95.75875 -85.1275 94.8925 -85 94 C-87.35953094 91.64046906 -88.77895617 91.50858587 -92 91 C-92 88.69 -92 86.38 -92 84 C-89.525 83.505 -89.525 83.505 -87 83 C-87.268125 81.7625 -87.53625 80.525 -87.8125 79.25 C-88.109375 77.046875 -88.109375 77.046875 -88 75 C-85.5625 72.5 -85.5625 72.5 -83 71 C-82.01 71.66 -81.02 72.32 -80 73 C-78.35 73.33 -76.7 73.66 -75 74 C-75 70.04 -75 66.08 -75 62 C-79.29 62 -83.58 62 -88 62 C-88.02683436 58.68744674 -88.0467578 55.37510817 -88.0625 52.0625 C-88.07087891 51.11697266 -88.07925781 50.17144531 -88.08789062 49.19726562 C-88.09111328 48.29814453 -88.09433594 47.39902344 -88.09765625 46.47265625 C-88.10289307 45.64000244 -88.10812988 44.80734863 -88.11352539 43.94946289 C-88 42 -88 42 -87 41 C-84.98035801 40.92755947 -82.95832876 40.91622812 -80.9375 40.9375 C-79.28041016 40.95103516 -79.28041016 40.95103516 -77.58984375 40.96484375 C-76.73519531 40.97644531 -75.88054687 40.98804688 -75 41 C-75.020625 39.88625 -75.04125 38.7725 -75.0625 37.625 C-75 34 -75 34 -74 32 C-75.39025391 31.90912109 -75.39025391 31.90912109 -76.80859375 31.81640625 C-78.00613281 31.73261719 -79.20367187 31.64882813 -80.4375 31.5625 C-81.63246094 31.48128906 -82.82742187 31.40007813 -84.05859375 31.31640625 C-87 31 -87 31 -88 30 C-88.09975032 27.48863896 -88.13882183 25.01096585 -88.125 22.5 C-88.12886719 21.79746094 -88.13273437 21.09492187 -88.13671875 20.37109375 C-88.12661378 15.12661378 -88.12661378 15.12661378 -87 14 C-85.5112814 13.91330568 -84.018555 13.89296506 -82.52734375 13.90234375 C-81.62822266 13.90556641 -80.72910156 13.90878906 -79.80273438 13.91210938 C-78.85720703 13.92048828 -77.91167969 13.92886719 -76.9375 13.9375 C-75.98810547 13.94201172 -75.03871094 13.94652344 -74.06054688 13.95117188 C-71.70700469 13.96299872 -69.35349468 13.98093479 -67 14 C-67 19.61 -67 25.22 -67 31 C-64.69 31 -62.38 31 -60 31 C-59.67 29.68 -59.34 28.36 -59 27 C-45.47 27 -31.94 27 -18 27 C-18.495 25.02 -18.495 25.02 -19 23 C-17.35 22.67 -15.7 22.34 -14 22 C-13.67 19.36 -13.34 16.72 -13 14 C-14.32 13.34 -15.64 12.68 -17 12 C-15.02 9.36 -13.04 6.72 -11 4 C-9.9171875 4.804375 -9.9171875 4.804375 -8.8125 5.625 C-6.09484369 7.29794199 -6.09484369 7.29794199 -3.25 6.5 C-0.75220206 5.176501 -0.75220206 5.176501 -0.1875 2.375 C-0.0946875 1.199375 -0.0946875 1.199375 0 0 Z M-5 14 C-7.2084626 17.31269391 -7.80664241 19.14978851 -7.5546875 23.0625 C-6.4812192 26.81207941 -4.28696911 28.01541488 -1 30 C1.63836977 30.1672392 1.63836977 30.1672392 4 30 C4.03738281 29.01257813 4.07476562 28.02515625 4.11328125 27.0078125 C4.17902344 25.72648437 4.24476562 24.44515625 4.3125 23.125 C4.37050781 21.84882812 4.42851563 20.57265625 4.48828125 19.2578125 C4.65714844 18.18273437 4.82601562 17.10765625 5 16 C5.99 15.34 6.98 14.68 8 14 C6.01607489 11.60148679 6.01607489 11.60148679 2.1875 11.5625 C-1.17733329 11.66669338 -2.04370031 12.02913354 -5 14 Z M26 47 C25.6366844 49.83386167 25.6431329 51.40522151 27.125 53.875 C29.92151052 55.55290631 31.93690532 54.74875648 35 54 C35.67673447 50.59679066 35.67673447 50.59679066 36 47 C34.11499729 44.68436913 34.11499729 44.68436913 31 44.75 C27.88500271 44.68436913 27.88500271 44.68436913 26 47 Z M-81.25 80.625 C-83.21985834 82.92308586 -83.21985834 82.92308586 -83.5 86 C-83.21376982 89.06575838 -83.21376982 89.06575838 -81.3125 91.375 C-78.61209763 93.27258004 -77.22939919 93.35882213 -74 93 C-73.85024761 85.94348748 -73.85024761 85.94348748 -75 79 C-78.92212225 78.60967296 -78.92212225 78.60967296 -81.25 80.625 Z M-64 95 C-65.485 97.475 -65.485 97.475 -67 100 C-54.13 99.01 -54.13 99.01 -41 98 C-40.67 97.01 -40.34 96.02 -40 95 C-43.93711437 94.85507281 -47.87354625 94.76605463 -51.8125 94.6875 C-52.93205078 94.64560547 -54.05160156 94.60371094 -55.20507812 94.56054688 C-56.81479492 94.53637695 -56.81479492 94.53637695 -58.45703125 94.51171875 C-59.44678955 94.48553467 -60.43654785 94.45935059 -61.45629883 94.43237305 C-62.29572021 94.61968994 -63.1351416 94.80700684 -64 95 Z M-16 95 C-16 95.99 -16 96.98 -16 98 C-10.72 98.33 -5.44 98.66 0 99 C0 97.68 0 96.36 0 95 C-5.28 95 -10.56 95 -16 95 Z " fill="#6C73FE" transform="translate(101,18)"/>
<path d="M0 0 C2.31 0 4.62 0 7 0 C7 2.97 7 5.94 7 9 C11.62 9 16.24 9 21 9 C21 15.6 21 22.2 21 29 C23.31 29 25.62 29 28 29 C29 30 29 30 29.11352539 33.96899414 C29.1133662 35.74105607 29.10766785 37.5131226 29.09765625 39.28515625 C29.0962413 40.21597519 29.09482635 41.14679413 29.09336853 42.1058197 C29.08775172 45.09141191 29.0751964 48.07693029 29.0625 51.0625 C29.05748716 53.08137913 29.05292388 55.10025943 29.04882812 57.11914062 C29.03777683 62.07945572 29.02050095 67.03971532 29 72 C31.31 72.66 33.62 73.32 36 74 C35 76 35 76 33.34521484 76.61450195 C28.49200924 77.41225457 23.54404055 77.18590312 18.63769531 77.18530273 C16.63863013 77.18748512 14.63960468 77.20599143 12.640625 77.22460938 C11.36960937 77.22654297 10.09859375 77.22847656 8.7890625 77.23046875 C7.63100098 77.23457764 6.47293945 77.23868652 5.27978516 77.24291992 C1.88689046 76.99162245 -0.83332989 76.21173908 -4 75 C-3.67 74.34 -3.34 73.68 -3 73 C-0.4375 72.375 -0.4375 72.375 2 72 C1.32142944 71.99191315 0.64285889 71.98382629 -0.05627441 71.97549438 C-7.19572947 71.88863335 -14.33493245 71.7891071 -21.47412109 71.68261719 C-24.12938188 71.64363425 -26.7845665 71.60971702 -29.43994141 71.578125 C-67.93926359 71.11445232 -67.93926359 71.11445232 -75 67 C-73.60804085 64.2160817 -71.84424221 64.02101003 -69 63 C-70.98 62.67 -72.96 62.34 -75 62 C-75.66 63.32 -76.32 64.64 -77 66 C-78.98 65.01 -80.96 64.02 -83 63 C-82.690625 61.824375 -82.690625 61.824375 -82.375 60.625 C-82.189375 59.325625 -82.189375 59.325625 -82 58 C-84.35953094 55.64046906 -85.77895617 55.50858587 -89 55 C-89 52.69 -89 50.38 -89 48 C-86.525 47.505 -86.525 47.505 -84 47 C-84.268125 45.7625 -84.53625 44.525 -84.8125 43.25 C-85.109375 41.046875 -85.109375 41.046875 -85 39 C-82.5625 36.5 -82.5625 36.5 -80 35 C-79.01 35.66 -78.02 36.32 -77 37 C-75.34450469 37.38499891 -73.6777567 37.72793135 -72 38 C-72 39.65 -72 41.3 -72 43 C-72.969375 43.28875 -73.93875 43.5775 -74.9375 43.875 C-78.10664203 44.64214682 -78.10664203 44.64214682 -79 47 C-79.40270732 51.1283652 -79.40270732 51.1283652 -77.8125 54.8125 C-75.57968261 56.27538036 -73.62655933 56.64505955 -71 57 C-71 54.03 -71 51.06 -71 48 C-69.02 48 -67.04 48 -65 48 C-64.67 48.66 -64.34 49.32 -64 50 C-55.75 50 -47.5 50 -39 50 C-38.505 49.01 -38.505 49.01 -38 48 C-24.47 48 -10.94 48 3 48 C3 46.35 3 44.7 3 43 C-6.24 43 -15.48 43 -25 43 C-25 42.34 -25 41.68 -25 41 C-24.01 40.34 -23.02 39.68 -22 39 C-22 38.01 -22 37.02 -22 36 C-20.35 35.67 -18.7 35.34 -17 35 C-16.79375 34.113125 -16.5875 33.22625 -16.375 32.3125 C-14.60544653 28.04948481 -12.62567444 26.79479072 -9 24 C-8.01 22.515 -8.01 22.515 -7 21 C-5 19.875 -5 19.875 -3 19 C-2.01 18.505 -2.01 18.505 -1 18 C-0.67 12.06 -0.34 6.12 0 0 Z M-61 59 C-62.485 61.475 -62.485 61.475 -64 64 C-51.13 63.01 -51.13 63.01 -38 62 C-37.67 61.01 -37.34 60.02 -37 59 C-40.93711437 58.85507281 -44.87354625 58.76605463 -48.8125 58.6875 C-49.93205078 58.64560547 -51.05160156 58.60371094 -52.20507812 58.56054688 C-53.81479492 58.53637695 -53.81479492 58.53637695 -55.45703125 58.51171875 C-56.44678955 58.48553467 -57.43654785 58.45935059 -58.45629883 58.43237305 C-59.29572021 58.61968994 -60.1351416 58.80700684 -61 59 Z M-13 59 C-13 59.99 -13 60.98 -13 62 C-7.72 62.33 -2.44 62.66 3 63 C3 61.68 3 60.36 3 59 C-2.28 59 -7.56 59 -13 59 Z " fill="#7387FE" transform="translate(98,54)"/>
<path d="M0 0 C0.99 0.66 1.98 1.32 3 2 C4.65549531 2.38499891 6.3222433 2.72793135 8 3 C8 4.65 8 6.3 8 8 C7.030625 8.28875 6.06125 8.5775 5.0625 8.875 C1.89335797 9.64214682 1.89335797 9.64214682 1 12 C0.59729268 16.1283652 0.59729268 16.1283652 2.1875 19.8125 C4.42031739 21.27538036 6.37344067 21.64505955 9 22 C9 19.03 9 16.06 9 13 C10.98 13 12.96 13 15 13 C15.33 13.66 15.66 14.32 16 15 C24.25 15 32.5 15 41 15 C41.33 14.34 41.66 13.68 42 13 C55.53 13 69.06 13 83 13 C83 16.63 83 20.26 83 24 C77.72 24 72.44 24 67 24 C67 24.99 67 25.98 67 27 C67.56847656 26.98839844 68.13695313 26.97679688 68.72265625 26.96484375 C73.60670484 26.90776806 78.18503965 27.18043228 83 28 C83 30.64 83 33.28 83 36 C75.71409984 36.04682155 68.42823335 36.08211748 61.14221191 36.10362434 C57.75718789 36.11395864 54.37226851 36.12792229 50.98730469 36.15087891 C12.5625541 36.39227608 12.5625541 36.39227608 5 32 C6.39195915 29.2160817 8.15575779 29.02101003 11 28 C9.02 27.67 7.04 27.34 5 27 C4.34 28.32 3.68 29.64 3 31 C1.02 30.01 -0.96 29.02 -3 28 C-2.79375 27.21625 -2.5875 26.4325 -2.375 25.625 C-2.189375 24.325625 -2.189375 24.325625 -2 23 C-4.35953094 20.64046906 -5.77895617 20.50858587 -9 20 C-9 17.69 -9 15.38 -9 13 C-7.35 12.67 -5.7 12.34 -4 12 C-4.268125 10.7625 -4.53625 9.525 -4.8125 8.25 C-5.109375 6.046875 -5.109375 6.046875 -5 4 C-2.5625 1.5 -2.5625 1.5 0 0 Z M19 24 C17.515 26.475 17.515 26.475 16 29 C28.87 28.01 28.87 28.01 42 27 C42.33 26.01 42.66 25.02 43 24 C39.06288563 23.85507281 35.12645375 23.76605463 31.1875 23.6875 C30.06794922 23.64560547 28.94839844 23.60371094 27.79492188 23.56054688 C26.18520508 23.53637695 26.18520508 23.53637695 24.54296875 23.51171875 C23.55321045 23.48553467 22.56345215 23.45935059 21.54370117 23.43237305 C20.70427979 23.61968994 19.8648584 23.80700684 19 24 Z " fill="#B3D0FE" transform="translate(18,89)"/>
<path d="M0 0 C2.97 0.33 5.94 0.66 9 1 C10.04449911 4.13349732 9.93423645 4.98968256 9 8 C11.75924185 9.80411967 12.88972103 10.0127245 16.25 9.625 C17.1575 9.41875 18.065 9.2125 19 9 C19.66 10.98 20.32 12.96 21 15 C22.28197266 14.98259766 22.28197266 14.98259766 23.58984375 14.96484375 C24.69457031 14.95582031 25.79929688 14.94679688 26.9375 14.9375 C28.03964844 14.92589844 29.14179688 14.91429687 30.27734375 14.90234375 C33 15 33 15 34 16 C34.15806531 17.92478813 34.251135 19.8549921 34.31640625 21.78515625 C34.35830078 22.95498047 34.40019531 24.12480469 34.44335938 25.33007812 C34.48267578 26.56177734 34.52199219 27.79347656 34.5625 29.0625 C34.60568359 30.29806641 34.64886719 31.53363281 34.69335938 32.80664062 C34.79984198 35.87097335 34.90185424 38.93539073 35 42 C35.61875 41.79375 36.2375 41.5875 36.875 41.375 C37.57625 41.25125 38.2775 41.1275 39 41 C39.66 41.66 40.32 42.32 41 43 C40.96712417 45.72869407 40.43602229 48.2966618 40 51 C40.66 51 41.32 51 42 51 C41.67 52.65 41.34 54.3 41 56 C38.525 56.495 38.525 56.495 36 57 C35.67 58.32 35.34 59.64 35 61 C33.35 61 31.7 61 30 61 C29.67 60.01 29.34 59.02 29 58 C26.03 58.495 26.03 58.495 23 59 C22.01 57.35 21.02 55.7 20 54 C20.66 53.67 21.32 53.34 22 53 C21.67 52.236875 21.34 51.47375 21 50.6875 C20 48 20 48 20 45 C19.34 45 18.68 45 18 45 C17.8046875 43.01432292 17.609375 41.02864583 17.4140625 39.04296875 C17.07334609 36.70011858 17.07334609 36.70011858 15 34 C15.66 34 16.32 34 17 34 C17 32.35 17 30.7 17 29 C13.37 29 9.74 29 6 29 C7 25 7 25 8.625 23.625 C10.33802099 21.97244699 10.33802099 21.97244699 9.875 19 C8.87832253 15.25084279 8.87832253 15.25084279 6 13 C0.45114109 12.38115315 0.45114109 12.38115315 -4.5 14.5 C-6.71177972 18.18629954 -6.34421275 20.73176192 -6 25 C-5.67 25.66 -5.34 26.32 -5 27 C-9.29 27 -13.58 27 -18 27 C-18.33 25.68 -18.66 24.36 -19 23 C-17.35 22.67 -15.7 22.34 -14 22 C-13.67 19.36 -13.34 16.72 -13 14 C-14.32 13.34 -15.64 12.68 -17 12 C-15.02 9.36 -13.04 6.72 -11 4 C-10.278125 4.53625 -9.55625 5.0725 -8.8125 5.625 C-6.09484369 7.29794199 -6.09484369 7.29794199 -3.25 6.5 C-0.75220206 5.176501 -0.75220206 5.176501 -0.1875 2.375 C-0.0946875 1.199375 -0.0946875 1.199375 0 0 Z M26 47 C25.6366844 49.83386167 25.6431329 51.40522151 27.125 53.875 C29.92151052 55.55290631 31.93690532 54.74875648 35 54 C35.67673447 50.59679066 35.67673447 50.59679066 36 47 C34.11499729 44.68436913 34.11499729 44.68436913 31 44.75 C27.88500271 44.68436913 27.88500271 44.68436913 26 47 Z " fill="#37DAC8" transform="translate(101,18)"/>
<path d="M0 0 C16.83 0 33.66 0 51 0 C51 7.59 51 15.18 51 23 C34.17 23 17.34 23 0 23 C0 15.41 0 7.82 0 0 Z " fill="#40468F" transform="translate(44,47)"/>
<path d="M0 0 C1.67542976 0.28604898 3.34385343 0.61781233 5 1 C5.75 3.75 5.75 3.75 6 7 C4.125 9.1875 4.125 9.1875 2 11 C1.67 11.99 1.34 12.98 1 14 C4.63 14 8.26 14 12 14 C12 16.33333333 12 18.66666667 12 21 C12.33 21.33 12.66 21.66 13 22 C13.14115161 24.67058851 13.04247107 27.32432238 13 30 C8.38 30 3.76 30 -1 30 C-1 27.03 -1 24.06 -1 21 C-3.31 21 -5.62 21 -8 21 C-7.98839844 22.28777344 -7.97679687 23.57554688 -7.96484375 24.90234375 C-7.9554673 26.58072772 -7.94636695 28.25911326 -7.9375 29.9375 C-7.92912109 30.78763672 -7.92074219 31.63777344 -7.91210938 32.51367188 C-7.90888672 33.32255859 -7.90566406 34.13144531 -7.90234375 34.96484375 C-7.89710693 35.7137085 -7.89187012 36.46257324 -7.88647461 37.23413086 C-8 39 -8 39 -9 40 C-10.71865409 40.0935919 -12.44115744 40.11744611 -14.16235352 40.11352539 C-15.26341934 40.11344986 -16.36448517 40.11337433 -17.49891663 40.11329651 C-18.6968132 40.10813522 -19.89470978 40.10297394 -21.12890625 40.09765625 C-22.34827377 40.0962413 -23.5676413 40.09482635 -24.82395935 40.09336853 C-28.7368307 40.08774967 -32.64964581 40.07519396 -36.5625 40.0625 C-39.20768147 40.05748743 -41.85286383 40.0529241 -44.49804688 40.04882812 C-50.99871726 40.03777411 -57.49935461 40.02101764 -64 40 C-65.29361994 37.41276011 -65.12948949 35.51886997 -65.1328125 32.625 C-65.13410156 31.55765625 -65.13539062 30.4903125 -65.13671875 29.390625 C-65.13285156 28.27171875 -65.12898438 27.1528125 -65.125 26 C-65.12886719 24.88109375 -65.13273437 23.7621875 -65.13671875 22.609375 C-65.13542969 21.54203125 -65.13414063 20.4746875 -65.1328125 19.375 C-65.13168457 18.39273438 -65.13055664 17.41046875 -65.12939453 16.3984375 C-65 14 -65 14 -64 12 C-56.22211479 11.94937835 -48.44427191 11.91429954 -40.66625977 11.89013672 C-38.0191082 11.88006595 -35.37196779 11.86640864 -32.72485352 11.84912109 C-28.92461395 11.82492028 -25.12452119 11.81352772 -21.32421875 11.8046875 C-20.13664474 11.79436493 -18.94907074 11.78404236 -17.72550964 11.77340698 C-16.0741375 11.77318039 -16.0741375 11.77318039 -14.3894043 11.77294922 C-13.41899704 11.768508 -12.44858978 11.76406677 -11.44877625 11.75949097 C-9 12 -9 12 -6 14 C-4.34450469 14.38499891 -2.6777567 14.72793135 -1 15 C-1.01160156 14.00097656 -1.02320313 13.00195312 -1.03515625 11.97265625 C-1.04417969 10.68230469 -1.05320313 9.39195313 -1.0625 8.0625 C-1.07410156 6.77472656 -1.08570313 5.48695312 -1.09765625 4.16015625 C-1 1 -1 1 0 0 Z M-62 14 C-62 21.59 -62 29.18 -62 37 C-45.17 37 -28.34 37 -11 37 C-11 29.41 -11 21.82 -11 14 C-27.83 14 -44.66 14 -62 14 Z " fill="#35D1D4" transform="translate(106,33)"/>
<path d="M0 0 C1.32 0 2.64 0 4 0 C4 6.6 4 13.2 4 20 C6.31 20 8.62 20 11 20 C12 21 12 21 12.11352539 24.78540039 C12.11336622 26.47282729 12.10766917 28.16025905 12.09765625 29.84765625 C12.0962413 30.7340831 12.09482635 31.62050995 12.09336853 32.53379822 C12.08775215 35.37673254 12.07519691 38.21958931 12.0625 41.0625 C12.05748711 42.98502491 12.05292384 44.90755104 12.04882812 46.83007812 C12.03862648 51.55343964 12.01905437 56.27663258 12 61 C3.75 61 -4.5 61 -13 61 C-13.26785714 47.60714286 -13.26785714 47.60714286 -11 44 C-10.67 44 -10.34 44 -10 44 C-9.67 45.98 -9.34 47.96 -9 50 C-3.39 50.33 2.22 50.66 8 51 C8 45.06 8 39.12 8 33 C4.87494304 32.97311136 1.75011575 32.95321538 -1.375 32.9375 C-2.26445313 32.92912109 -3.15390625 32.92074219 -4.0703125 32.91210938 C-4.92109375 32.90888672 -5.771875 32.90566406 -6.6484375 32.90234375 C-7.43395996 32.89710693 -8.21948242 32.89187012 -9.02880859 32.88647461 C-11.07772668 32.87426047 -11.07772668 32.87426047 -13 34 C-13.19456705 32.04235617 -13.38044247 30.08384679 -13.5625 28.125 C-13.71912109 26.48917969 -13.71912109 26.48917969 -13.87890625 24.8203125 C-14 22 -14 22 -13 20 C-8.71 20 -4.42 20 0 20 C0 13.4 0 6.8 0 0 Z " fill="#7691FE" transform="translate(115,63)"/>
<path d="M0 0 C0.99 0.66 1.98 1.32 3 2 C4.65549531 2.38499891 6.3222433 2.72793135 8 3 C8 4.65 8 6.3 8 8 C7.030625 8.28875 6.06125 8.5775 5.0625 8.875 C1.89335797 9.64214682 1.89335797 9.64214682 1 12 C0.59694805 16.08388307 0.59694805 16.08388307 2.125 19.75 C7.22242182 23.14828121 13.0594145 23.49835056 19 24 C18.67 25.32 18.34 26.64 18 28 C25.92 27.67 33.84 27.34 42 27 C41.67 27.66 41.34 28.32 41 29 C38.35139573 29.59355614 35.70802678 29.74209269 33 30 C33 30.66 33 31.32 33 32 C47.19 32 61.38 32 76 32 C75.505 31.01 75.505 31.01 75 30 C73.845 29.835 72.69 29.67 71.5 29.5 C70.345 29.335 69.19 29.17 68 29 C67.505 28.01 67.505 28.01 67 27 C72.45769811 26.88861841 77.61509359 27.08342019 83 28 C83 30.64 83 33.28 83 36 C75.71409984 36.04682155 68.42823335 36.08211748 61.14221191 36.10362434 C57.75718789 36.11395864 54.37226851 36.12792229 50.98730469 36.15087891 C12.5625541 36.39227608 12.5625541 36.39227608 5 32 C6.39195915 29.2160817 8.15575779 29.02101003 11 28 C9.02 27.67 7.04 27.34 5 27 C4.34 28.32 3.68 29.64 3 31 C1.02 30.01 -0.96 29.02 -3 28 C-2.79375 27.21625 -2.5875 26.4325 -2.375 25.625 C-2.189375 24.325625 -2.189375 24.325625 -2 23 C-4.35953094 20.64046906 -5.77895617 20.50858587 -9 20 C-9 17.69 -9 15.38 -9 13 C-7.35 12.67 -5.7 12.34 -4 12 C-4.268125 10.7625 -4.53625 9.525 -4.8125 8.25 C-5.109375 6.046875 -5.109375 6.046875 -5 4 C-2.5625 1.5 -2.5625 1.5 0 0 Z " fill="#EAEBF2" transform="translate(18,89)"/>
<path d="M0 0 C0.83265381 0.00523682 1.66530762 0.01047363 2.52319336 0.01586914 C3.42231445 0.0190918 4.32143555 0.02231445 5.24780273 0.02563477 C6.66609375 0.03820312 6.66609375 0.03820312 8.11303711 0.05102539 C9.06243164 0.05553711 10.01182617 0.06004883 10.98999023 0.06469727 C13.34353242 0.07652411 15.69704243 0.09446018 18.05053711 0.11352539 C18.05053711 5.72352539 18.05053711 11.33352539 18.05053711 17.11352539 C20.36053711 17.11352539 22.67053711 17.11352539 25.05053711 17.11352539 C25.30563873 21.02895556 25.52510603 24.94559348 25.73803711 28.86352539 C25.81086914 29.97469727 25.88370117 31.08586914 25.95874023 32.23071289 C26.01352539 33.30063477 26.06831055 34.37055664 26.12475586 35.47290039 C26.21116333 36.94968262 26.21116333 36.94968262 26.29931641 38.45629883 C26.00487737 41.60121981 25.29542834 42.91585732 23.05053711 45.11352539 C22.06053711 45.11352539 21.07053711 45.11352539 20.05053711 45.11352539 C19.72053711 45.77352539 19.39053711 46.43352539 19.05053711 47.11352539 C18.55553711 37.21352539 18.55553711 37.21352539 18.05053711 27.11352539 C15.41053711 27.11352539 12.77053711 27.11352539 10.05053711 27.11352539 C9.92553711 20.36352539 9.92553711 20.36352539 11.05053711 18.11352539 C9.6602832 18.02264648 9.6602832 18.02264648 8.24194336 17.92993164 C7.0444043 17.84614258 5.84686523 17.76235352 4.61303711 17.67602539 C3.41807617 17.59481445 2.22311523 17.51360352 0.99194336 17.42993164 C-1.94946289 17.11352539 -1.94946289 17.11352539 -2.94946289 16.11352539 C-3.04921321 13.60216435 -3.08828472 11.12449124 -3.07446289 8.61352539 C-3.07833008 7.91098633 -3.08219727 7.20844727 -3.08618164 6.48461914 C-3.07403211 0.17901377 -3.07403211 0.17901377 0 0 Z " fill="#5A38FE" transform="translate(15.949462890625,31.886474609375)"/>
<path d="M0 0 C1.12019531 -0.00128906 2.24039063 -0.00257812 3.39453125 -0.00390625 C4.57402344 -0.00003906 5.75351562 0.00382812 6.96875 0.0078125 C8.73798828 0.00201172 8.73798828 0.00201172 10.54296875 -0.00390625 C12.22326172 -0.00197266 12.22326172 -0.00197266 13.9375 0 C14.97326172 0.00112793 16.00902344 0.00225586 17.07617188 0.00341797 C19.46875 0.1328125 19.46875 0.1328125 20.46875 1.1328125 C20.56861975 3.97616298 20.60752881 6.78978413 20.59375 9.6328125 C20.59955078 10.82970703 20.59955078 10.82970703 20.60546875 12.05078125 C20.59535767 18.00620483 20.59535767 18.00620483 19.46875 19.1328125 C17.62715977 19.23240871 15.78178033 19.26361661 13.9375 19.265625 C12.81730469 19.26691406 11.69710937 19.26820312 10.54296875 19.26953125 C9.36347656 19.26566406 8.18398438 19.26179688 6.96875 19.2578125 C5.19951172 19.26361328 5.19951172 19.26361328 3.39453125 19.26953125 C1.71423828 19.26759766 1.71423828 19.26759766 0 19.265625 C-1.03576172 19.26449707 -2.07152344 19.26336914 -3.13867188 19.26220703 C-5.53125 19.1328125 -5.53125 19.1328125 -6.53125 18.1328125 C-6.63111975 15.28946202 -6.67002881 12.47584087 -6.65625 9.6328125 C-6.66011719 8.83488281 -6.66398437 8.03695312 -6.66796875 7.21484375 C-6.65573175 0.007248 -6.65573175 0.007248 0 0 Z " fill="#35DBC3" transform="translate(39.53125,85.8671875)"/>
<path d="M0 0 C1.98 0 3.96 0 6 0 C6.33 0.66 6.66 1.32 7 2 C15.25 2 23.5 2 32 2 C32.33 1.34 32.66 0.68 33 0 C39.27 0 45.54 0 52 0 C51.67 1.98 51.34 3.96 51 6 C48 8 48 8 44 8 C44.495 9.485 44.495 9.485 45 11 C38.75204325 11.02527124 32.50409959 11.04283344 26.25610352 11.05493164 C24.12881986 11.05997298 22.00153969 11.06680591 19.87426758 11.07543945 C16.82372174 11.08751379 13.77322155 11.09323014 10.72265625 11.09765625 C9.28672874 11.10539818 9.28672874 11.10539818 7.8217926 11.11329651 C6.94095505 11.11337204 6.06011749 11.11344757 5.15258789 11.11352539 C4.37315323 11.115746 3.59371857 11.11796661 2.79066467 11.12025452 C1 11 1 11 0 10 C-0.07205511 8.31391034 -0.08386068 6.62499341 -0.0625 4.9375 C-0.05347656 4.01839844 -0.04445313 3.09929687 -0.03515625 2.15234375 C-0.02355469 1.44207031 -0.01195313 0.73179688 0 0 Z " fill="#BED7FE" transform="translate(27,102)"/>
<path d="M0 0 C0.83265381 0.00523682 1.66530762 0.01047363 2.52319336 0.01586914 C3.42231445 0.0190918 4.32143555 0.02231445 5.24780273 0.02563477 C6.66609375 0.03820313 6.66609375 0.03820313 8.11303711 0.05102539 C9.06243164 0.05553711 10.01182617 0.06004883 10.98999023 0.06469727 C13.34356776 0.07652429 15.69702188 0.09300514 18.05053711 0.11352539 C18.07941525 3.5926748 18.09729398 7.0717937 18.11303711 10.55102539 C18.12141602 11.54424805 18.12979492 12.5374707 18.13842773 13.56079102 C18.14326172 14.97714844 18.14326172 14.97714844 18.14819336 16.42211914 C18.15604858 17.73394165 18.15604858 17.73394165 18.1640625 19.07226562 C18.05053711 21.11352539 18.05053711 21.11352539 17.05053711 22.11352539 C15.55919801 22.1301477 14.06692906 22.07671739 12.57788086 21.99243164 C11.67875977 21.9440918 10.77963867 21.89575195 9.85327148 21.84594727 C8.90774414 21.78987305 7.9622168 21.73379883 6.98803711 21.67602539 C6.03864258 21.62381836 5.08924805 21.57161133 4.11108398 21.51782227 C1.75726759 21.38771181 -0.59616988 21.25273427 -2.94946289 21.11352539 C-2.97834436 17.80104352 -2.99622088 14.48859372 -3.01196289 11.17602539 C-3.0203418 10.23049805 -3.0287207 9.2849707 -3.03735352 8.31079102 C-3.04057617 7.41166992 -3.04379883 6.51254883 -3.04711914 5.58618164 C-3.05235596 4.75352783 -3.05759277 3.92087402 -3.06298828 3.06298828 C-2.90876673 0.41468917 -2.64829911 0.15422155 0 0 Z " fill="#34CBDA" transform="translate(15.949462890625,58.886474609375)"/>
<path d="M0 0 C2.97 0.33 5.94 0.66 9 1 C10.04449911 4.13349732 9.93423645 4.98968256 9 8 C11.75924185 9.80411967 12.88972103 10.0127245 16.25 9.625 C17.1575 9.41875 18.065 9.2125 19 9 C19.66 10.98 20.32 12.96 21 15 C18.87527424 15.05386629 16.75016348 15.09273071 14.625 15.125 C12.84996094 15.15980469 12.84996094 15.15980469 11.0390625 15.1953125 C8 15 8 15 6 13 C0.45764755 12.42765564 0.45764755 12.42765564 -4.5 14.5 C-6.71177972 18.18629954 -6.34421275 20.73176192 -6 25 C-5.67 25.66 -5.34 26.32 -5 27 C-9.29 27 -13.58 27 -18 27 C-18.33 25.68 -18.66 24.36 -19 23 C-17.35 22.67 -15.7 22.34 -14 22 C-13.67 19.36 -13.34 16.72 -13 14 C-14.32 13.34 -15.64 12.68 -17 12 C-15.02 9.36 -13.04 6.72 -11 4 C-10.278125 4.53625 -9.55625 5.0725 -8.8125 5.625 C-6.09484369 7.29794199 -6.09484369 7.29794199 -3.25 6.5 C-0.75220206 5.176501 -0.75220206 5.176501 -0.1875 2.375 C-0.0946875 1.199375 -0.0946875 1.199375 0 0 Z " fill="#E8EAF1" transform="translate(101,18)"/>
<path d="M0 0 C3.97915159 -0.02886984 7.95827653 -0.04675406 11.9375 -0.0625 C13.07380859 -0.07087891 14.21011719 -0.07925781 15.38085938 -0.08789062 C16.46044922 -0.09111328 17.54003906 -0.09433594 18.65234375 -0.09765625 C20.15269165 -0.10551147 20.15269165 -0.10551147 21.68334961 -0.11352539 C24 0 24 0 25 1 C25.44479817 4.91422392 25.35509944 6.51173827 23 9.75 C22.01 10.86375 22.01 10.86375 21 12 C21 12.66 21 13.32 21 14 C17.7 14 14.4 14 11 14 C11 15.65 11 17.3 11 19 C11.99 19.33 12.98 19.66 14 20 C13.01 20.99 12.02 21.98 11 23 C7.125 21.25 7.125 21.25 6 19 C6.66 19 7.32 19 8 19 C8 17.35 8 15.7 8 14 C4.37 14 0.74 14 -3 14 C-2 10 -2 10 -0.375 8.6875 C0.07875 8.130625 0.5325 7.57375 1 7 C0.73108025 4.65836858 0.40092196 2.32267457 0 0 Z " fill="#3AD3D4" transform="translate(110,33)"/>
<path d="M0 0 C1.32 0 2.64 0 4 0 C4 6.6 4 13.2 4 20 C6.31 20 8.62 20 11 20 C11.33 21.32 11.66 22.64 12 24 C11.401875 24.268125 10.80375 24.53625 10.1875 24.8125 C8.02775192 25.98493467 6.64209744 27.19369282 5 29 C5.33 29.66 5.66 30.32 6 31 C2.09268255 32.84171155 -0.88846765 33.19601032 -5.1875 33.0625 C-9.24905471 32.81170645 -9.24905471 32.81170645 -13 34 C-13.19456705 32.04235617 -13.38044247 30.08384679 -13.5625 28.125 C-13.71912109 26.48917969 -13.71912109 26.48917969 -13.87890625 24.8203125 C-14 22 -14 22 -13 20 C-8.71 20 -4.42 20 0 20 C0 13.4 0 6.8 0 0 Z " fill="#604FFC" transform="translate(115,63)"/>
<path d="M0 0 C1.58206422 0.00574487 3.16410406 0.01876032 4.74609375 0.03515625 C7.53046875 0.05578125 10.31484375 0.07640625 13.18359375 0.09765625 C13.18359375 6.03765625 13.18359375 11.97765625 13.18359375 18.09765625 C10.39921875 18.11828125 7.61484375 18.13890625 4.74609375 18.16015625 C3.86767822 18.16926025 2.9892627 18.17836426 2.08422852 18.18774414 C0.11713401 18.19488716 -1.84994246 18.14797518 -3.81640625 18.09765625 C-5.63756628 16.27649622 -4.94875705 13.79093861 -4.953125 11.37109375 C-4.94925781 10.62085937 -4.94539063 9.870625 -4.94140625 9.09765625 C-4.94527344 8.34742187 -4.94914062 7.5971875 -4.953125 6.82421875 C-4.94103514 0.12643386 -4.94103514 0.12643386 0 0 Z " fill="#9CE4F0" transform="translate(109.81640625,95.90234375)"/>
<path d="M0 0 C0.33 0 0.66 0 1 0 C1.33 2.64 1.66 5.28 2 8 C2.99 7.67 3.98 7.34 5 7 C4.88566637 9.25056722 4.75813564 11.50046674 4.625 13.75 C4.55539063 15.00296875 4.48578125 16.2559375 4.4140625 17.546875 C4.02984757 20.75108253 3.41110541 22.22188622 2 25 C1.71306612 27.24133258 1.51033409 29.4944319 1.375 31.75 C1.25125 33.8125 1.1275 35.875 1 38 C9.25 38 17.5 38 26 38 C26 38.66 26 39.32 26 40 C28.31 40.66 30.62 41.32 33 42 C32 44 32 44 30.34521484 44.61450195 C25.49200924 45.41225457 20.54404055 45.18590312 15.63769531 45.18530273 C13.63863013 45.18748512 11.63960468 45.20599143 9.640625 45.22460938 C8.36960937 45.22654297 7.09859375 45.22847656 5.7890625 45.23046875 C4.63100098 45.23457764 3.47293945 45.23868652 2.27978516 45.24291992 C-1.11310954 44.99162245 -3.83332989 44.21173908 -7 43 C-6 41 -6 41 0 39 C0 26.13 0 13.26 0 0 Z " fill="#5E51EA" transform="translate(101,86)"/>
<path d="M0 0 C0.33 0 0.66 0 1 0 C1.33 4.62 1.66 9.24 2 14 C3.65 14 5.3 14 7 14 C7 13.34 7 12.68 7 12 C8.62463842 11.94604522 10.24978541 11.90722805 11.875 11.875 C13.23238281 11.84019531 13.23238281 11.84019531 14.6171875 11.8046875 C17 12 17 12 19 14 C17.68 14 16.36 14 15 14 C14.67 14.66 14.34 15.32 14 16 C14.33 16.33 14.66 16.66 15 17 C14.071875 17.12375 14.071875 17.12375 13.125 17.25 C10.81562433 17.81258459 10.81562433 17.81258459 9.75 20.0625 C9.5025 20.701875 9.255 21.34125 9 22 C9.66 22.66 10.32 23.32 11 24 C9.33657163 25.66342837 7.2174291 25.36048097 4.9375 25.5625 C2.4934375 25.7790625 2.4934375 25.7790625 0 26 C-0.33 30.95 -0.66 35.9 -1 41 C-3.31 41 -5.62 41 -8 41 C-8 34.07 -8 27.14 -8 20 C-4.535 19.505 -4.535 19.505 -1 19 C-0.67 12.73 -0.34 6.46 0 0 Z " fill="#5E50FD" transform="translate(34,61)"/>
<path d="M0 0 C0.98291016 0.00966797 1.96582031 0.01933594 2.97851562 0.02929688 C4.00267578 0.05443359 5.02683594 0.07957031 6.08203125 0.10546875 C7.63567383 0.12577148 7.63567383 0.12577148 9.22070312 0.14648438 C11.77916824 0.18185486 14.33658905 0.23121331 16.89453125 0.29296875 C16.72953125 0.89109375 16.56453125 1.48921875 16.39453125 2.10546875 C15.78311885 4.40641211 15.78311885 4.40641211 15.89453125 7.29296875 C14.96640625 7.51984375 14.03828125 7.74671875 13.08203125 7.98046875 C9.29149596 9.17034056 9.29149596 9.17034056 6.89453125 14.29296875 C0.62453125 13.96296875 -5.64546875 13.63296875 -12.10546875 13.29296875 C-12.43546875 12.63296875 -12.76546875 11.97296875 -13.10546875 11.29296875 C-13.76546875 10.63296875 -14.42546875 9.97296875 -15.10546875 9.29296875 C-14.44546875 9.29296875 -13.78546875 9.29296875 -13.10546875 9.29296875 C-12.44546875 7.97296875 -11.78546875 6.65296875 -11.10546875 5.29296875 C-10.44546875 5.29296875 -9.78546875 5.29296875 -9.10546875 5.29296875 C-8.77546875 4.63296875 -8.44546875 3.97296875 -8.10546875 3.29296875 C-5.65407818 0.1253659 -3.92484593 -0.06806091 0 0 Z " fill="#655CFE" transform="translate(56.10546875,72.70703125)"/>
<path d="M0 0 C1.5631897 0.00785522 1.5631897 0.00785522 3.15795898 0.01586914 C4.28266602 0.0190918 5.40737305 0.02231445 6.56616211 0.02563477 C7.75016602 0.03401367 8.93416992 0.04239258 10.15405273 0.05102539 C11.34192383 0.05553711 12.52979492 0.06004883 13.75366211 0.06469727 C16.69967499 0.07652864 19.64558954 0.09301252 22.59155273 0.11352539 C19.73676948 2.01671423 18.17213965 2.57543529 14.90405273 3.23852539 C14.09581055 3.40610352 13.28756836 3.57368164 12.45483398 3.74633789 C11.83995117 3.86750977 11.22506836 3.98868164 10.59155273 4.11352539 C10.3865918 4.89598633 10.18163086 5.67844727 9.97045898 6.48461914 C9.70104492 7.4965332 9.43163086 8.50844727 9.15405273 9.55102539 C8.8872168 10.56036133 8.62038086 11.56969727 8.34545898 12.60961914 C7.59155273 15.11352539 7.59155273 15.11352539 6.59155273 16.11352539 C4.90546308 16.1855805 3.21654614 16.19738607 1.52905273 16.17602539 C0.60995117 16.16700195 -0.30915039 16.15797852 -1.25610352 16.14868164 C-1.96637695 16.13708008 -2.67665039 16.12547852 -3.40844727 16.11352539 C-3.43529822 13.63428738 -3.45521274 11.15533699 -3.47094727 8.67602539 C-3.48351563 7.61544922 -3.48351563 7.61544922 -3.49633789 6.53344727 C-3.50498314 4.7265898 -3.46064738 2.91964936 -3.40844727 1.11352539 C-2.40844727 0.11352539 -2.40844727 0.11352539 0 0 Z " fill="#43ABE5" transform="translate(36.408447265625,85.886474609375)"/>
<path d="M0 0 C5.61 0 11.22 0 17 0 C17 4.29 17 8.58 17 13 C11.39 13 5.78 13 0 13 C0 8.71 0 4.42 0 0 Z " fill="#3E4B94" transform="translate(15,34)"/>
<path d="M0 0 C2.95887459 -0.08069658 5.9155659 -0.14034665 8.875 -0.1875 C9.71675781 -0.21263672 10.55851562 -0.23777344 11.42578125 -0.26367188 C12.23144531 -0.27333984 13.03710938 -0.28300781 13.8671875 -0.29296875 C14.98262939 -0.31653442 14.98262939 -0.31653442 16.12060547 -0.34057617 C17.05090576 -0.17199097 17.05090576 -0.17199097 18 0 C20 3 20 3 20 5 C20.33 5.33 20.66 5.66 21 6 C21.14115161 8.67058851 21.04247107 11.32432238 21 14 C16.38 14 11.76 14 7 14 C7 11.03 7 8.06 7 5 C4.69 5 2.38 5 0 5 C0 3.35 0 1.7 0 0 Z " fill="#39C5D7" transform="translate(98,49)"/>
<path d="M0 0 C13.53 0 27.06 0 41 0 C41 1.65 41 3.3 41 5 C27.47 5 13.94 5 0 5 C0 3.35 0 1.7 0 0 Z " fill="#3C3D89" transform="translate(60,97)"/>
<path d="M0 0 C2.12438339 -0.08078641 4.2496323 -0.13909141 6.375 -0.1875 C7.55835937 -0.22230469 8.74171875 -0.25710937 9.9609375 -0.29296875 C11.46527344 -0.14794922 11.46527344 -0.14794922 13 0 C13.66 0.99 14.32 1.98 15 3 C14.34 3 13.68 3 13 3 C13 3.66 13 4.32 13 5 C19.27 5 25.54 5 32 5 C32.495 6.485 32.495 6.485 33 8 C18.81 8 4.62 8 -10 8 C-10 7.34 -10 6.68 -10 6 C-7.98177083 5.609375 -5.96354167 5.21875 -3.9453125 4.828125 C-1.80995329 4.14287884 -1.80995329 4.14287884 -0.7421875 1.921875 C-0.49726562 1.28765625 -0.25234375 0.6534375 0 0 Z " fill="#A3C6FE" transform="translate(61,113)"/>
<path d="M0 0 C2.125 0.9375 2.125 0.9375 4 2 C3.67 4.64 3.34 7.28 3 10 C3.66 10 4.32 10 5 10 C4.67 11.65 4.34 13.3 4 15 C2.35 15.33 0.7 15.66 -1 16 C-1.33 17.32 -1.66 18.64 -2 20 C-3.65 20 -5.3 20 -7 20 C-7.33 19.01 -7.66 18.02 -8 17 C-9.98 17.33 -11.96 17.66 -14 18 C-14.99 16.35 -15.98 14.7 -17 13 C-16.34 12.67 -15.68 12.34 -15 12 C-15.495 10.8553125 -15.495 10.8553125 -16 9.6875 C-17 7 -17 7 -17 4 C-14.36 4 -11.72 4 -9 4 C-9.20625 5.11375 -9.4125 6.2275 -9.625 7.375 C-9.810625 9.169375 -9.810625 9.169375 -10 11 C-8.10244856 13.34973818 -8.10244856 13.34973818 -4.875 13.125 C-3.451875 13.063125 -3.451875 13.063125 -2 13 C-1.70437633 7.67829506 -1.70437633 7.67829506 -4 3 C-2 1 -2 1 0 0 Z " fill="#EAEBF2" transform="translate(138,59)"/>
<path d="M0 0 C0.99 0 1.98 0 3 0 C3 6.93 3 13.86 3 21 C13.23 21 23.46 21 34 21 C34 21.66 34 22.32 34 23 C41.26 23 48.52 23 56 23 C56 23.33 56 23.66 56 24 C37.85 24 19.7 24 1 24 C-0.25248502 21.49502996 -0.11374406 19.79146726 -0.09765625 16.9921875 C-0.09443359 16.00605469 -0.09121094 15.01992187 -0.08789062 14.00390625 C-0.07951172 12.97136719 -0.07113281 11.93882813 -0.0625 10.875 C-0.05798828 9.83472656 -0.05347656 8.79445313 -0.04882812 7.72265625 C-0.03701952 5.14838038 -0.02055075 2.57421854 0 0 Z " fill="#40A0E7" transform="translate(41,49)"/>
<path d="M0 0 C2.625 0.25 2.625 0.25 4.4375 1.625 C5.625 3.25 5.625 3.25 5.625 5.25 C7.275 5.25 8.925 5.25 10.625 5.25 C11.285 6.57 11.945 7.89 12.625 9.25 C9.325 9.25 6.025 9.25 2.625 9.25 C2.625 10.9 2.625 12.55 2.625 14.25 C3.615 14.58 4.605 14.91 5.625 15.25 C4.635 16.24 3.645 17.23 2.625 18.25 C-1.25 16.5 -1.25 16.5 -2.375 14.25 C-1.715 14.25 -1.055 14.25 -0.375 14.25 C-0.375 12.6 -0.375 10.95 -0.375 9.25 C-4.005 9.25 -7.635 9.25 -11.375 9.25 C-11.045 7.93 -10.715 6.61 -10.375 5.25 C-8.725 5.25 -7.075 5.25 -5.375 5.25 C-5.065625 4.610625 -4.75625 3.97125 -4.4375 3.3125 C-2.88764755 0.3039629 -2.88764755 0.3039629 0 0 Z " fill="#FAFDFD" transform="translate(118.375,37.75)"/>
<path d="M0 0 C1.32 0 2.64 0 4 0 C4 6.6 4 13.2 4 20 C6.31 20 8.62 20 11 20 C11.33 20.99 11.66 21.98 12 23 C3.19039858 24.30512614 -5.19039858 24.30512614 -14 23 C-13.505 21.515 -13.505 21.515 -13 20 C-8.71 20 -4.42 20 0 20 C0 13.4 0 6.8 0 0 Z " fill="#4C4CA1" transform="translate(115,63)"/>
<path d="M0 0 C1.31871094 -0.01224609 2.63742188 -0.02449219 3.99609375 -0.03710938 C5.90068359 -0.04000977 5.90068359 -0.04000977 7.84375 -0.04296875 C9.00068359 -0.04707764 10.15761719 -0.05118652 11.34960938 -0.05541992 C14.47736509 0.18575467 16.680892 0.85423629 19.5 2.1875 C18.5 4.1875 18.5 4.1875 16.84521484 4.80200195 C11.99200924 5.59975457 7.04404055 5.37340312 2.13769531 5.37280273 C0.13863013 5.37498512 -1.86039532 5.39349143 -3.859375 5.41210938 C-5.13039063 5.41404297 -6.40140625 5.41597656 -7.7109375 5.41796875 C-8.86899902 5.42207764 -10.02706055 5.42618652 -11.22021484 5.43041992 C-14.61310954 5.17912245 -17.33332989 4.39923908 -20.5 3.1875 C-20.17 2.5275 -19.84 1.8675 -19.5 1.1875 C-13.23640183 -0.60566158 -6.45139424 0.00315317 0 0 Z " fill="#EAEBF2" transform="translate(114.5,125.8125)"/>
<path d="M0 0 C2.64 0 5.28 0 8 0 C8.02887814 3.47914941 8.04675687 6.95826831 8.0625 10.4375 C8.07087891 11.43072266 8.07925781 12.42394531 8.08789062 13.44726562 C8.09111328 14.39150391 8.09433594 15.33574219 8.09765625 16.30859375 C8.10289307 17.18314209 8.10812988 18.05769043 8.11352539 18.95874023 C8 21 8 21 7 22 C2.76685233 22.23961213 -0.36736489 22.32488647 -4 20 C-3.67 19.34 -3.34 18.68 -3 18 C-2.01 18 -1.02 18 0 18 C0 17.01 0 16.02 0 15 C1.32 15 2.64 15 4 15 C3.71890887 13.35232753 3.42481474 11.70686855 3.125 10.0625 C2.88136719 8.68771484 2.88136719 8.68771484 2.6328125 7.28515625 C2.42398437 6.53105469 2.21515625 5.77695313 2 5 C1.34 4.67 0.68 4.34 0 4 C0 2.68 0 1.36 0 0 Z " fill="#3CC6D3" transform="translate(26,59)"/>
<path d="M0 0 C1.58206422 0.00574487 3.16410406 0.01876032 4.74609375 0.03515625 C7.53046875 0.05578125 10.31484375 0.07640625 13.18359375 0.09765625 C13.18359375 6.03765625 13.18359375 11.97765625 13.18359375 18.09765625 C10.39921875 18.11828125 7.61484375 18.13890625 4.74609375 18.16015625 C3.86767822 18.16926025 2.9892627 18.17836426 2.08422852 18.18774414 C0.11713401 18.19488716 -1.84994246 18.14797518 -3.81640625 18.09765625 C-5.63756628 16.27649622 -4.94875705 13.79093861 -4.953125 11.37109375 C-4.94925781 10.62085937 -4.94539063 9.870625 -4.94140625 9.09765625 C-4.94527344 8.34742187 -4.94914062 7.5971875 -4.953125 6.82421875 C-4.94103514 0.12643386 -4.94103514 0.12643386 0 0 Z M-1.25390625 3.72265625 C-3.31432396 6.85449117 -3.49316075 8.41310398 -2.81640625 12.09765625 C-0.83674362 15.16073256 -0.83674362 15.16073256 2.18359375 17.09765625 C5.42650531 17.09765625 7.28759101 16.68469252 9.99609375 14.91015625 C11.74848713 12.23545057 12.11970437 10.2921252 12.18359375 7.09765625 C10.84243976 4.08785742 10.84243976 4.08785742 8.18359375 2.09765625 C4.18458677 1.4549587 2.14230218 1.4585173 -1.25390625 3.72265625 Z " fill="#3ED9D1" transform="translate(109.81640625,95.90234375)"/>
<path d="M0 0 C0.83265381 0.00523682 1.66530762 0.01047363 2.52319336 0.01586914 C3.42231445 0.0190918 4.32143555 0.02231445 5.24780273 0.02563477 C6.66609375 0.03820312 6.66609375 0.03820312 8.11303711 0.05102539 C9.06243164 0.05553711 10.01182617 0.06004883 10.98999023 0.06469727 C13.34353242 0.07652411 15.69704243 0.09446018 18.05053711 0.11352539 C18.05053711 5.72352539 18.05053711 11.33352539 18.05053711 17.11352539 C14.73798385 17.14035976 11.42564528 17.16028319 8.11303711 17.17602539 C7.16750977 17.1844043 6.22198242 17.1927832 5.24780273 17.20141602 C3.89912109 17.20625 3.89912109 17.20625 2.52319336 17.21118164 C1.27421265 17.21903687 1.27421265 17.21903687 0 17.22705078 C-1.94946289 17.11352539 -1.94946289 17.11352539 -2.94946289 16.11352539 C-3.04921321 13.60216435 -3.08828472 11.12449124 -3.07446289 8.61352539 C-3.07833008 7.91098633 -3.08219727 7.20844727 -3.08618164 6.48461914 C-3.07403211 0.17901377 -3.07403211 0.17901377 0 0 Z M-0.94946289 2.11352539 C-0.94946289 6.40352539 -0.94946289 10.69352539 -0.94946289 15.11352539 C4.66053711 15.11352539 10.27053711 15.11352539 16.05053711 15.11352539 C16.05053711 10.82352539 16.05053711 6.53352539 16.05053711 2.11352539 C10.44053711 2.11352539 4.83053711 2.11352539 -0.94946289 2.11352539 Z " fill="#34D7CC" transform="translate(15.949462890625,31.886474609375)"/>
<path d="M0 0 C1.32 0 2.64 0 4 0 C4 0.66 4 1.32 4 2 C5.65 2.33 7.3 2.66 9 3 C9 5.64 9 8.28 9 11 C7.68 11 6.36 11 5 11 C5 11.99 5 12.98 5 14 C2.33333333 13.33333333 -0.33333333 12.66666667 -3 12 C-3.54372951 8.94152152 -4 6.11227195 -4 3 C-2.68 3 -1.36 3 0 3 C0 2.01 0 1.02 0 0 Z " fill="#E8F7FA" transform="translate(21,63)"/>
<path d="M0 0 C2.31 0 4.62 0 7 0 C7 2.97 7 5.94 7 9 C8.32 9.33 9.64 9.66 11 10 C10.67 10.99 10.34 11.98 10 13 C7.36 13.33 4.72 13.66 2 14 C1.67 14.99 1.34 15.98 1 17 C0.67 17 0.34 17 0 17 C0 11.39 0 5.78 0 0 Z " fill="#6C75FE" transform="translate(98,54)"/>
<path d="M0 0 C0.99 0 1.98 0 3 0 C3 7.59 3 15.18 3 23 C-4.59 23 -12.18 23 -20 23 C-20 22.34 -20 21.68 -20 21 C-13.4 21 -6.8 21 0 21 C0 14.07 0 7.14 0 0 Z " fill="#37D4CA" transform="translate(95,49)"/>
<path d="M0 0 C0.33 0 0.66 0 1 0 C1.33 1.98 1.66 3.96 2 6 C5.63 6.33 9.26 6.66 13 7 C9.80484472 11.18675519 7.30821404 14.00470987 2 15 C1.01 15 0.02 15 -1 15 C-1.33 15.66 -1.66 16.32 -2 17 C-2.05418326 14.91695462 -2.09287551 12.83350232 -2.125 10.75 C-2.14820312 9.58984375 -2.17140625 8.4296875 -2.1953125 7.234375 C-2.0103949 4.17213954 -1.60823023 2.55797249 0 0 Z " fill="#6C72FE" transform="translate(104,107)"/>
<path d="M0 0 C0.0270203 2.75006608 0.04684883 5.49986546 0.0625 8.25 C0.07087891 9.02730469 0.07925781 9.80460937 0.08789062 10.60546875 C0.09111328 11.35957031 0.09433594 12.11367187 0.09765625 12.890625 C0.10289307 13.58188477 0.10812988 14.27314453 0.11352539 14.98535156 C-0.00562029 17.09973898 -0.42381763 18.96641515 -1 21 C-1.99 21 -2.98 21 -4 21 C-4 17.04 -4 13.08 -4 9 C-6.31 9 -8.62 9 -11 9 C-9.71937515 7.2925002 -8.38232443 5.62626404 -7 4 C-6.34 4 -5.68 4 -5 4 C-4.67 3.01 -4.34 2.02 -4 1 C-2 0 -2 0 0 0 Z " fill="#6660FF" transform="translate(127,87)"/>
<path d="M0 0 C0.98484375 0.02707031 1.9696875 0.05414063 2.984375 0.08203125 C3.73203125 0.11683594 4.4796875 0.15164062 5.25 0.1875 C2.39521674 2.09068884 0.83058692 2.6494099 -2.4375 3.3125 C-3.24574219 3.48007813 -4.05398437 3.64765625 -4.88671875 3.8203125 C-5.50160156 3.94148438 -6.11648437 4.06265625 -6.75 4.1875 C-6.95496094 4.96996094 -7.15992188 5.75242187 -7.37109375 6.55859375 C-7.64050781 7.57050781 -7.90992188 8.58242187 -8.1875 9.625 C-8.45433594 10.63433594 -8.72117187 11.64367187 -8.99609375 12.68359375 C-9.75 15.1875 -9.75 15.1875 -10.75 16.1875 C-12.43608966 16.25955511 -14.12500659 16.27136068 -15.8125 16.25 C-16.73160156 16.24097656 -17.65070312 16.23195313 -18.59765625 16.22265625 C-19.30792969 16.21105469 -20.01820312 16.19945313 -20.75 16.1875 C-20.75 14.5375 -20.75 12.8875 -20.75 11.1875 C-17.375 11.0625 -17.375 11.0625 -13.75 11.1875 C-13.09 11.8475 -12.43 12.5075 -11.75 13.1875 C-11.976875 12.65125 -12.20375 12.115 -12.4375 11.5625 C-12.9022842 8.03014006 -11.58866811 6.16741039 -9.75 3.1875 C-6.55210685 0.13917423 -4.3536305 -0.1554868 0 0 Z " fill="#3FB3DE" transform="translate(53.75,85.8125)"/>
<path d="M0 0 C1.32 0 2.64 0 4 0 C4 5.28 4 10.56 4 16 C4.99 16 5.98 16 7 16 C7 17.65 7 19.3 7 21 C4.69 21 2.38 21 0 21 C0 14.07 0 7.14 0 0 Z " fill="#41428D" transform="translate(26,81)"/>
<path d="M0 0 C2.95887459 -0.08069658 5.9155659 -0.14034665 8.875 -0.1875 C9.71675781 -0.21263672 10.55851562 -0.23777344 11.42578125 -0.26367188 C12.23144531 -0.27333984 13.03710938 -0.28300781 13.8671875 -0.29296875 C14.98262939 -0.31653442 14.98262939 -0.31653442 16.12060547 -0.34057617 C17.05090576 -0.17199097 17.05090576 -0.17199097 18 0 C18.66 0.99 19.32 1.98 20 3 C19.01 3 18.02 3 17 3 C17 3.66 17 4.32 17 5 C11.39 5 5.78 5 0 5 C0 3.35 0 1.7 0 0 Z " fill="#34ADC5" transform="translate(98,49)"/>
<path d="M0 0 C3.0390625 -0.29296875 3.0390625 -0.29296875 6.625 -0.1875 C7.81351563 -0.16042969 9.00203125 -0.13335937 10.2265625 -0.10546875 C11.14179687 -0.07066406 12.05703125 -0.03585938 13 0 C13 1.65 13 3.3 13 5 C9.37 5 5.74 5 2 5 C2 6.65 2 8.3 2 10 C0.68 10 -0.64 10 -2 10 C-2.25 3.375 -2.25 3.375 0 0 Z " fill="#3C3F8A" transform="translate(28,49)"/>
<path d="M0 0 C-1 3 -1 3 -4 5 C-4 5.99 -4 6.98 -4 8 C-7.4766338 10.14336161 -10.21229195 10.21277626 -14.25 10.125 C-15.32765625 10.10695313 -16.4053125 10.08890625 -17.515625 10.0703125 C-18.33546875 10.04710938 -19.1553125 10.02390625 -20 10 C-20 9.34 -20 8.68 -20 8 C-18.35 7.34 -16.7 6.68 -15 6 C-14.67 6.33 -14.34 6.66 -14 7 C-13.67 5.68 -13.34 4.36 -13 3 C-12.67 3.66 -12.34 4.32 -12 5 C-11.13375 4.175 -10.2675 3.35 -9.375 2.5 C-6.25207583 -0.13961448 -4.12269101 -0.49079655 0 0 Z " fill="#7182FE" transform="translate(123,114)"/>
<path d="M0 0 C8.91 0 17.82 0 27 0 C27 0.66 27 1.32 27 2 C34.26 2 41.52 2 49 2 C49 2.33 49 2.66 49 3 C32.29525448 3.11382833 15.67750035 3.02069948 -1 2 C-0.67 1.34 -0.34 0.68 0 0 Z " fill="#3CBBDA" transform="translate(48,70)"/>
<path d="M0 0 C0 1.32 0 2.64 0 4 C0.99 5.485 0.99 5.485 2 7 C0.71034824 8.37562854 -0.62689293 9.70766393 -2 11 C-2.66 11 -3.32 11 -4 11 C-4 10.01 -4 9.02 -4 8 C-4.66 8 -5.32 8 -6 8 C-6.33 9.65 -6.66 11.3 -7 13 C-7.66 13 -8.32 13 -9 13 C-8.0625 3.78125 -8.0625 3.78125 -6 0 C-3 -1 -3 -1 0 0 Z " fill="#55C8DD" transform="translate(53,89)"/>
<path d="M0 0 C1.32 0 2.64 0 4 0 C4 6.6 4 13.2 4 20 C2.68 19.67 1.36 19.34 0 19 C0 12.73 0 6.46 0 0 Z " fill="#3E3E8B" transform="translate(115,63)"/>
<path d="M0 0 C8.58 0 17.16 0 26 0 C25.67 0.99 25.34 1.98 25 3 C17.08 3 9.16 3 1 3 C0.67 2.01 0.34 1.02 0 0 Z " fill="#4C4CA0" transform="translate(101,124)"/>
<path d="M0 0 C1.93166016 0.01740234 1.93166016 0.01740234 3.90234375 0.03515625 C5.19269531 0.04417969 6.48304687 0.05320312 7.8125 0.0625 C8.81152344 0.07410156 9.81054688 0.08570312 10.83984375 0.09765625 C8.83984375 2.09765625 8.83984375 2.09765625 5.40234375 2.53515625 C1.97823906 2.84261091 1.97823906 2.84261091 -0.09765625 4.28515625 C-1.68230869 6.98838688 -1.4741187 9.02082427 -1.16015625 12.09765625 C-0.26184609 14.39996391 -0.26184609 14.39996391 0.83984375 16.09765625 C-0.81015625 16.42765625 -2.46015625 16.75765625 -4.16015625 17.09765625 C-4.18700304 14.45175611 -4.20691982 11.80612529 -4.22265625 9.16015625 C-4.23103516 8.40541016 -4.23941406 7.65066406 -4.24804688 6.87304688 C-4.25668066 4.94771312 -4.21239958 3.02230044 -4.16015625 1.09765625 C-3.16015625 0.09765625 -3.16015625 0.09765625 0 0 Z " fill="#45C3EE" transform="translate(109.16015625,95.90234375)"/>
<path d="M0 0 C6.35051546 -0.36637589 6.35051546 -0.36637589 9.4375 1.375 C11 3 11 3 11 5 C9.68 5 8.36 5 7 5 C6.67 5.99 6.34 6.98 6 8 C5.34 8 4.68 8 4 8 C2.97980427 8.9793879 1.97850195 9.97895449 1 11 C0.67 11 0.34 11 0 11 C0 7.37 0 3.74 0 0 Z " fill="#5A38FF" transform="translate(102,86)"/>
<path d="M0 0 C1.67542976 0.28604898 3.34385343 0.61781233 5 1 C5.75 3.75 5.75 3.75 6 7 C4.125 9.1875 4.125 9.1875 2 11 C1.67 11.99 1.34 12.98 1 14 C0.34 14 -0.32 14 -1 14 C-1.02685938 11.85423363 -1.04633088 9.70837355 -1.0625 7.5625 C-1.07410156 6.36753906 -1.08570312 5.17257813 -1.09765625 3.94140625 C-1 1 -1 1 0 0 Z " fill="#33C6E0" transform="translate(106,33)"/>
<path d="M0 0 C0 3.3 0 6.6 0 10 C-1.98 10 -3.96 10 -6 10 C-7.76462683 6.91190305 -8 5.76687864 -8 2 C-4.91190305 0.23537317 -3.76687864 0 0 0 Z " fill="#38CFCE" transform="translate(60,87)"/>
<path d="M0 0 C4.29 0 8.58 0 13 0 C12.67 1.32 12.34 2.64 12 4 C9.68895182 5.05047644 7.35416349 6.05007438 5 7 C4.01 8.485 4.01 8.485 3 10 C2.01 9.67 1.02 9.34 0 9 C0.185625 8.071875 0.37125 7.14375 0.5625 6.1875 C1.24123881 2.98656229 1.24123881 2.98656229 0 0 Z " fill="#72D5E4" transform="translate(110,33)"/>
<path d="M0 0 C1.39456452 0.00667256 2.78911118 0.01863093 4.18359375 0.03515625 C4.89451172 0.03966797 5.60542969 0.04417969 6.33789062 0.04882812 C8.09899388 0.06064761 9.86005411 0.07858362 11.62109375 0.09765625 C11.95109375 0.75765625 12.28109375 1.41765625 12.62109375 2.09765625 C7.67109375 2.09765625 2.72109375 2.09765625 -2.37890625 2.09765625 C-2.25515625 4.20140625 -2.13140625 6.30515625 -2.00390625 8.47265625 C-1.93429687 9.65601563 -1.8646875 10.839375 -1.79296875 12.05859375 C-1.67673279 15.20327944 -1.67673279 15.20327944 0.62109375 17.09765625 C-1.02890625 16.76765625 -2.67890625 16.43765625 -4.37890625 16.09765625 C-4.4057572 13.61841824 -4.42567172 11.13946785 -4.44140625 8.66015625 C-4.45397461 7.59958008 -4.45397461 7.59958008 -4.46679688 6.51757812 C-4.47544213 4.71072066 -4.43110636 2.90378022 -4.37890625 1.09765625 C-3.37890625 0.09765625 -3.37890625 0.09765625 0 0 Z " fill="#33CADC" transform="translate(17.37890625,31.90234375)"/>
<path d="M0 0 C0.33 0.66 0.66 1.32 1 2 C8.59 1.67 16.18 1.34 24 1 C24 1.66 24 2.32 24 3 C20.7 3 17.4 3 14 3 C14 4.65 14 6.3 14 8 C14.99 8.33 15.98 8.66 17 9 C16.01 9.99 15.02 10.98 14 12 C10.125 10.25 10.125 10.25 9 8 C9.66 8 10.32 8 11 8 C11 6.35 11 4.7 11 3 C7.37 3 3.74 3 0 3 C0 2.01 0 1.02 0 0 Z " fill="#AAE9EC" transform="translate(107,44)"/>
<path d="M0 0 C2.31 0.33 4.62 0.66 7 1 C7.33 2.98 7.66 4.96 8 7 C6.68 7 5.36 7 4 7 C4 7.99 4 8.98 4 10 C3.01 10 2.02 10 1 10 C-0.83691257 6.21812119 -1.15837626 4.05431692 0 0 Z " fill="#E2F5F8" transform="translate(22,67)"/>
<path d="M0 0 C1.24716797 0.00322266 2.49433594 0.00644531 3.77929688 0.00976562 C5.07287109 0.01814453 6.36644531 0.02652344 7.69921875 0.03515625 C9.66858398 0.04192383 9.66858398 0.04192383 11.67773438 0.04882812 C14.91410885 0.06059676 18.15039053 0.07703865 21.38671875 0.09765625 C21.05671875 0.75765625 20.72671875 1.41765625 20.38671875 2.09765625 C19.73074707 2.11747559 19.07477539 2.13729492 18.39892578 2.15771484 C15.43610806 2.25278132 12.47401343 2.36253377 9.51171875 2.47265625 C7.96291016 2.5190625 7.96291016 2.5190625 6.3828125 2.56640625 C4.90361328 2.62441406 4.90361328 2.62441406 3.39453125 2.68359375 C2.4833252 2.71501465 1.57211914 2.74643555 0.63330078 2.77880859 C-1.81259311 2.89648136 -1.81259311 2.89648136 -3.61328125 5.09765625 C-6.34197532 5.06478042 -8.90994305 4.53367854 -11.61328125 4.09765625 C-11.61328125 3.10765625 -11.61328125 2.11765625 -11.61328125 1.09765625 C-7.68039761 0.16677716 -4.03673962 -0.0184326 0 0 Z " fill="#D9D9E8" transform="translate(106.61328125,125.90234375)"/>
<path d="M0 0 C1.32 0.66 2.64 1.32 4 2 C3.01 2.33 2.02 2.66 1 3 C1 3.66 1 4.32 1 5 C-3.29 5 -7.58 5 -12 5 C-12.33 4.01 -12.66 3.02 -13 2 C-11.20909747 1.80533668 -9.41723495 1.61948787 -7.625 1.4375 C-6.12839844 1.28087891 -6.12839844 1.28087891 -4.6015625 1.12109375 C-2 1 -2 1 0 2 C0 1.34 0 0.68 0 0 Z " fill="#47D6D0" transform="translate(46,100)"/>
<path d="M0 0 C3.375 -0.125 3.375 -0.125 7 0 C7.66 0.66 8.32 1.32 9 2 C9.66 1.34 10.32 0.68 11 0 C10.67 1.65 10.34 3.3 10 5 C6.7 5 3.4 5 0 5 C0 3.35 0 1.7 0 0 Z " fill="#36AEC6" transform="translate(33,97)"/>
<path d="M0 0 C0.99 0 1.98 0 3 0 C3.0272415 1.41655793 3.04650467 2.83327045 3.0625 4.25 C3.07410156 5.03890625 3.08570312 5.8278125 3.09765625 6.640625 C3.00385306 8.90691002 2.63241063 10.8288895 2 13 C1.01 13 0.02 13 -1 13 C-1.02686553 11.02090602 -1.04633375 9.04171029 -1.0625 7.0625 C-1.07410156 5.96035156 -1.08570312 4.85820313 -1.09765625 3.72265625 C-1 1 -1 1 0 0 Z " fill="#6D75FE" transform="translate(124,95)"/>
<path d="M0 0 C1.23556641 0.01740234 1.23556641 0.01740234 2.49609375 0.03515625 C3.32238281 0.04417969 4.14867187 0.05320312 5 0.0625 C5.63808594 0.07410156 6.27617188 0.08570312 6.93359375 0.09765625 C5.55859375 1.59765625 5.55859375 1.59765625 3.93359375 3.09765625 C3.27359375 3.09765625 2.61359375 3.09765625 1.93359375 3.09765625 C1.60359375 4.08765625 1.27359375 5.07765625 0.93359375 6.09765625 C-1.12890625 7.28515625 -1.12890625 7.28515625 -3.06640625 8.09765625 C-3.10882348 5.7647085 -3.10733562 3.43063058 -3.06640625 1.09765625 C-2.06640625 0.09765625 -2.06640625 0.09765625 0 0 Z " fill="#4397EA" transform="translate(36.06640625,85.90234375)"/>
<path d="M0 0 C2.5625718 -0.02710123 5.12485365 -0.04688771 7.6875 -0.0625 C8.40873047 -0.07087891 9.12996094 -0.07925781 9.87304688 -0.08789062 C13.71555382 -0.10543632 17.26639526 0.06475779 21 1 C21 1.33 21 1.66 21 2 C14.73 2 8.46 2 2 2 C2 2.66 2 3.32 2 4 C1.01 4 0.02 4 -1 4 C-0.67 2.68 -0.34 1.36 0 0 Z " fill="#32C6DD" transform="translate(42,45)"/>
<path d="M0 0 C3.3 0 6.6 0 10 0 C9 2 9 2 6.5 2.875 C5.675 3.24625 4.85 3.6175 4 4 C3.34786708 6.02463255 3.34786708 6.02463255 3 8 C2.01 8.33 1.02 8.66 0 9 C0 6.03 0 3.06 0 0 Z " fill="#3EBBDD" transform="translate(105,54)"/>
<path d="M0 0 C0.36190476 5.42857143 0.36190476 5.42857143 -1.1875 7.875 C-3.56036279 9.34781139 -5.25913944 9.22223194 -8 9 C-8 8.34 -8 7.68 -8 7 C-7.34 7 -6.68 7 -6 7 C-5.731875 6.401875 -5.46375 5.80375 -5.1875 5.1875 C-2.37142857 0 -2.37142857 0 0 0 Z " fill="#43D9DA" transform="translate(120,102)"/>
<path d="M0 0 C4 3 4 3 4.390625 5.04296875 C4.26041667 7.02864583 4.13020833 9.01432292 4 11 C2.68 11 1.36 11 0 11 C0 7.37 0 3.74 0 0 Z " fill="#37C1C6" transform="translate(115,52)"/>
<path d="M0 0 C6.6 0 13.2 0 20 0 C19.67 1.32 19.34 2.64 19 4 C18.67 3.67 18.34 3.34 18 3 C16.65984779 2.84417697 15.31241097 2.74955858 13.96484375 2.68359375 C13.15595703 2.64169922 12.34707031 2.59980469 11.51367188 2.55664062 C10.66353516 2.51732422 9.81339844 2.47800781 8.9375 2.4375 C8.08349609 2.39431641 7.22949219 2.35113281 6.34960938 2.30664062 C4.23327963 2.20023298 2.11666187 2.09958269 0 2 C0 1.34 0 0.68 0 0 Z " fill="#73CDDC" transform="translate(98,47)"/>
<path d="M0 0 C0 1.98 0 3.96 0 6 C-2.31 6 -4.62 6 -7 6 C-6.67 4.35 -6.34 2.7 -6 1 C-3 0 -3 0 0 0 Z " fill="#34DBC4" transform="translate(34,74)"/>
<path d="M0 0 C0.66 0 1.32 0 2 0 C2 0.99 2 1.98 2 3 C3.65 2.34 5.3 1.68 7 1 C7 2.65 7 4.3 7 6 C4.35261084 7.4606285 3.10551666 8 0 8 C0 5.36 0 2.72 0 0 Z " fill="#36CFC7" transform="translate(47,97)"/>
<path d="M0 0 C0.99 0 1.98 0 3 0 C3.08121924 1.60332791 3.13929134 3.20784026 3.1875 4.8125 C3.23970703 6.15248047 3.23970703 6.15248047 3.29296875 7.51953125 C3 10 3 10 0 13 C0 8.71 0 4.42 0 0 Z " fill="#3A95D8" transform="translate(41,49)"/>
<path d="M0 0 C2.31 0 4.62 0 7 0 C7 1.65 7 3.3 7 5 C4.69 5 2.38 5 0 5 C0 3.35 0 1.7 0 0 Z " fill="#3C3E8A" transform="translate(98,49)"/>
<path d="M0 0 C1.07765625 0.10183594 2.1553125 0.20367187 3.265625 0.30859375 C4.08546875 0.39238281 4.9053125 0.47617188 5.75 0.5625 C5.75 1.2225 5.75 1.8825 5.75 2.5625 C0.47 2.5625 -4.81 2.5625 -10.25 2.5625 C-10.25 1.9025 -10.25 1.2425 -10.25 0.5625 C-6.70049966 -0.60056443 -3.69176052 -0.36115049 0 0 Z " fill="#99C0FE" transform="translate(68.25,118.4375)"/>
<path d="M0 0 C0 0.66 0 1.32 0 2 C-0.99 2.33 -1.98 2.66 -3 3 C-3 3.99 -3 4.98 -3 6 C-3.66 6 -4.32 6 -5 6 C-5.33 6.66 -5.66 7.32 -6 8 C-6.99 7.01 -7.98 6.02 -9 5 C-8.1875 3.0625 -8.1875 3.0625 -7 1 C-4 0 -4 0 0 0 Z " fill="#39C4D7" transform="translate(60,87)"/>
<path d="M0 0 C2.64 0 5.28 0 8 0 C7.67 1.32 7.34 2.64 7 4 C6.01 4 5.02 4 4 4 C3.67 4.66 3.34 5.32 3 6 C2.01 5.34 1.02 4.68 0 4 C0 2.68 0 1.36 0 0 Z " fill="#38ADD0" transform="translate(26,59)"/>
<path d="M0 0 C4.29 0 8.58 0 13 0 C13.33 1.32 13.66 2.64 14 4 C13.01 4 12.02 4 11 4 C11 3.34 11 2.68 11 2 C7.37 2 3.74 2 0 2 C0 1.34 0 0.68 0 0 Z " fill="#57D9D4" transform="translate(84,45)"/>
<path d="M0 0 C0.99 0.33 1.98 0.66 3 1 C2.69078116 2.45903258 2.37751201 3.91720722 2.0625 5.375 C1.88847656 6.18710938 1.71445312 6.99921875 1.53515625 7.8359375 C1 10 1 10 0 12 C-0.66 12 -1.32 12 -2 12 C-1 3.42857143 -1 3.42857143 0 0 Z " fill="#DAF2F7" transform="translate(46,90)"/>
<path d="M0 0 C1.67542976 0.28604898 3.34385343 0.61781233 5 1 C4.67 2.32 4.34 3.64 4 5 C2.68 5.33 1.36 5.66 0 6 C-0.38218767 4.34385343 -0.71395102 2.67542976 -1 1 C-0.67 0.67 -0.34 0.34 0 0 Z " fill="#49CFDC" transform="translate(22,67)"/>
<path d="M0 0 C2.64 0 5.28 0 8 0 C8 1.32 8 2.64 8 4 C8.99 4.33 9.98 4.66 11 5 C9.68 5.33 8.36 5.66 7 6 C7 5.34 7 4.68 7 4 C6.030625 3.71125 5.06125 3.4225 4.0625 3.125 C1 2 1 2 0 0 Z " fill="#3CCCD6" transform="translate(18,59)"/>
<path d="M0 0 C0.66 0 1.32 0 2 0 C2 1.32 2 2.64 2 4 C2.99 4.33 3.98 4.66 5 5 C4.01 5.99 3.02 6.98 2 8 C-1.875 6.25 -1.875 6.25 -3 4 C-2.01 4 -1.02 4 0 4 C0 2.68 0 1.36 0 0 Z " fill="#F4FBFC" transform="translate(119,48)"/>
<path d="M0 0 C2.97 0 5.94 0 9 0 C9 0.66 9 1.32 9 2 C6.29120665 3.35439668 3.99066732 3.06501451 1 3 C0.67 2.01 0.34 1.02 0 0 Z " fill="#50CFDA" transform="translate(33,102)"/>
<path d="M0 0 C0.33 0 0.66 0 1 0 C1 2.97 1 5.94 1 9 C0.01 9.33 -0.98 9.66 -2 10 C-1.85950482 8.52031676 -1.71245174 7.04125484 -1.5625 5.5625 C-1.48128906 4.73878906 -1.40007812 3.91507812 -1.31640625 3.06640625 C-1 1 -1 1 0 0 Z " fill="#665FFF" transform="translate(104,107)"/>
<path d="M0 0 C1.21346851 3.64040554 1.21346851 5.35959446 0 9 C-1.32 7.35 -2.64 5.7 -4 4 C-2.68 2.68 -1.36 1.36 0 0 Z " fill="#E6F7FA" transform="translate(42,91)"/>
<path d="M0 0 C0.33 0 0.66 0 1 0 C1.125 5.75 1.125 5.75 0 8 C-0.99 8 -1.98 8 -3 8 C-2.67 6.02 -2.34 4.04 -2 2 C-1.34 2 -0.68 2 0 2 C0 1.34 0 0.68 0 0 Z " fill="#7284FE" transform="translate(126,104)"/>
<path d="M0 0 C1.98 0.99 1.98 0.99 4 2 C4 2.99 4 3.98 4 5 C2 6.6875 2 6.6875 0 8 C0.185625 7.236875 0.37125 6.47375 0.5625 5.6875 C1.22819173 2.91032625 1.22819173 2.91032625 0 0 Z " fill="#E0F7F8" transform="translate(50,92)"/>
<path d="M0 0 C1.32 0 2.64 0 4 0 C4 0.99 4 1.98 4 3 C5.98 3 7.96 3 10 3 C10 3.33 10 3.66 10 4 C2.57142857 4.28571429 2.57142857 4.28571429 -1 2 C-0.67 1.34 -0.34 0.68 0 0 Z " fill="#3ABCC8" transform="translate(23,77)"/>
<path d="M0 0 C-0.33 1.65 -0.66 3.3 -1 5 C-2.32 4.34 -3.64 3.68 -5 3 C-5 2.34 -5 1.68 -5 1 C-3 0 -3 0 0 0 Z " fill="#3ECCE4" transform="translate(123,96)"/>
<path d="M0 0 C2.31 0 4.62 0 7 0 C6.0409375 0.433125 6.0409375 0.433125 5.0625 0.875 C2.84793921 1.82823451 2.84793921 1.82823451 2 4 C1.01 4 0.02 4 -1 4 C-0.67 2.68 -0.34 1.36 0 0 Z " fill="#46ADF5" transform="translate(106,96)"/>
</svg>
