<?xml version="1.0" encoding="UTF-8"?>
<svg version="1.1" xmlns="http://www.w3.org/2000/svg" width="150" height="150">
<path d="M0 0 C2.97 0.33 5.94 0.66 9 1 C9 3.31 9 5.62 9 8 C12.78187881 9.83691257 14.94568308 10.15837626 19 9 C19.99 11.97 19.99 11.97 21 15 C21.85464844 14.98839844 22.70929688 14.97679687 23.58984375 14.96484375 C24.69457031 14.95582031 25.79929687 14.94679688 26.9375 14.9375 C28.03964844 14.92589844 29.14179688 14.91429687 30.27734375 14.90234375 C33 15 33 15 34 16 C34.08713831 17.70772358 34.10700007 19.41898649 34.09765625 21.12890625 C34.09443359 22.16337891 34.09121094 23.19785156 34.08789062 24.26367188 C34.07951172 25.35228516 34.07113281 26.44089844 34.0625 27.5625 C34.05798828 28.65498047 34.05347656 29.74746094 34.04882812 30.87304688 C34.03699826 33.58208495 34.02051543 36.29101599 34 39 C35.32 39.33 36.64 39.66 38 40 C38.33 42.31 38.66 44.62 39 47 C40.32 47.33 41.64 47.66 43 48 C43 49.32 43 50.64 43 52 C41.68 52 40.36 52 39 52 C39 54.31 39 56.62 39 59 C37.68 59.66 36.36 60.32 35 61 C34.34 60.34 33.68 59.68 33 59 C32.01 59 31.02 59 30 59 C29.505 59.99 29.505 59.99 29 61 C26.5625 60.3125 26.5625 60.3125 24 59 C23.1875 56.375 23.1875 56.375 23 54 C21.515 53.505 21.515 53.505 20 53 C19.67 51.35 19.34 49.7 19 48 C20.32 47.34 21.64 46.68 23 46 C21.35 45.67 19.7 45.34 18 45 C18 51.6 18 58.2 18 65 C20.31 65 22.62 65 25 65 C26 66 26 66 26.11352539 69.96899414 C26.1133662 71.74105607 26.10766785 73.5131226 26.09765625 75.28515625 C26.0962413 76.21597519 26.09482635 77.14679413 26.09336853 78.1058197 C26.08775172 81.09141191 26.0751964 84.07693029 26.0625 87.0625 C26.05748716 89.08137913 26.05292388 91.10025943 26.04882812 93.11914062 C26.03777683 98.07945572 26.02050095 103.03971532 26 108 C28.31 108.66 30.62 109.32 33 110 C32 112 32 112 30.34521484 112.61450195 C25.49200924 113.41225457 20.54404055 113.18590312 15.63769531 113.18530273 C13.63863013 113.18748512 11.63960468 113.20599143 9.640625 113.22460938 C8.36960937 113.22654297 7.09859375 113.22847656 5.7890625 113.23046875 C4.63100098 113.23457764 3.47293945 113.23868652 2.27978516 113.24291992 C-1.11310954 112.99162245 -3.83332989 112.21173908 -7 111 C-6.67 110.34 -6.34 109.68 -6 109 C-3.4375 108.375 -3.4375 108.375 -1 108 C-1.67857056 107.99191315 -2.35714111 107.98382629 -3.05627441 107.97549438 C-10.19572947 107.88863335 -17.33493245 107.7891071 -24.47412109 107.68261719 C-27.12938188 107.64363425 -29.7845665 107.60971702 -32.43994141 107.578125 C-70.93926359 107.11445232 -70.93926359 107.11445232 -78 103 C-77 101 -77 101 -74 100 C-74 99.34 -74 98.68 -74 98 C-76.97065509 98.34227572 -76.97065509 98.34227572 -80 99 C-80.495 99.99 -80.495 99.99 -81 101 C-84.65316671 99.75023244 -85.78065836 99.32901247 -88 96 C-87.625 94 -87.625 94 -87 92 C-87 91.01 -87 90.02 -87 89 C-88.65 89 -90.3 89 -92 89 C-92 86.36 -92 83.72 -92 81 C-89.03 80.01 -89.03 80.01 -86 79 C-86.103125 78.071875 -86.20625 77.14375 -86.3125 76.1875 C-86.209375 75.135625 -86.10625 74.08375 -86 73 C-83.61107499 71.11400657 -82.08148442 70 -79 70 C-78.67 71.32 -78.34 72.64 -78 74 C-77.01 74 -76.02 74 -75 74 C-75 70.04 -75 66.08 -75 62 C-79.29 62 -83.58 62 -88 62 C-88.02683436 58.68744674 -88.0467578 55.37510817 -88.0625 52.0625 C-88.07087891 51.11697266 -88.07925781 50.17144531 -88.08789062 49.19726562 C-88.09111328 48.29814453 -88.09433594 47.39902344 -88.09765625 46.47265625 C-88.10289307 45.64000244 -88.10812988 44.80734863 -88.11352539 43.94946289 C-88 42 -88 42 -87 41 C-84.98035801 40.92755947 -82.95832876 40.91622812 -80.9375 40.9375 C-79.28041016 40.95103516 -79.28041016 40.95103516 -77.58984375 40.96484375 C-76.73519531 40.97644531 -75.88054687 40.98804688 -75 41 C-75 39.02 -75 37.04 -75 35 C-76.28197266 35.01740234 -76.28197266 35.01740234 -77.58984375 35.03515625 C-78.69457031 35.04417969 -79.79929687 35.05320313 -80.9375 35.0625 C-82.03964844 35.07410156 -83.14179687 35.08570313 -84.27734375 35.09765625 C-87 35 -87 35 -88 34 C-88.04063832 32.33382885 -88.042721 30.66611905 -88 29 C-90.31 29 -92.62 29 -95 29 C-95 28.67 -95 28.34 -95 28 C-93.02 27.67 -91.04 27.34 -89 27 C-88.67 25.68 -88.34 24.36 -88 23 C-89.98 23 -91.96 23 -94 23 C-94 22.67 -94 22.34 -94 22 C-92.35 21.67 -90.7 21.34 -89 21 C-88.67 19.68 -88.34 18.36 -88 17 C-89.98 17 -91.96 17 -94 17 C-94 16.67 -94 16.34 -94 16 C-88.11060037 13.95887931 -82.8280285 13.72721958 -76.625 13.8125 C-75.25408203 13.8134668 -75.25408203 13.8134668 -73.85546875 13.81445312 C-67.14064837 13.85935163 -67.14064837 13.85935163 -66 15 C-63.98405418 15.23427778 -61.961526 15.41336124 -59.9375 15.5625 C-58.83277344 15.64628906 -57.72804687 15.73007812 -56.58984375 15.81640625 C-55.30787109 15.90728516 -55.30787109 15.90728516 -54 16 C-54 16.33 -54 16.66 -54 17 C-58.29 17 -62.58 17 -67 17 C-67 21.62 -67 26.24 -67 31 C-64.69 31 -62.38 31 -60 31 C-59.67 29.68 -59.34 28.36 -59 27 C-45.47 27 -31.94 27 -18 27 C-18.495 25.515 -18.495 25.515 -19 24 C-18.360625 23.814375 -17.72125 23.62875 -17.0625 23.4375 C-14.57873787 22.05753944 -14.57873787 22.05753944 -14.25 18.375 C-14.1675 17.26125 -14.085 16.1475 -14 15 C-14.99 14.34 -15.98 13.68 -17 13 C-15.62845496 10.04590299 -14.01136276 7.55991624 -12 5 C-11.484375 5.350625 -10.96875 5.70125 -10.4375 6.0625 C-7.05993333 7.3615641 -4.49531943 6.67217681 -1 6 C-0.67 4.02 -0.34 2.04 0 0 Z M-5 14.0625 C-7.51930235 17.76272533 -7.7066341 19.6031656 -7 24 C-5.59121904 26.9901643 -5.59121904 26.9901643 -3 29 C0.64182335 29.89055736 0.64182335 29.89055736 4 30 C4.03738281 29.01257813 4.07476562 28.02515625 4.11328125 27.0078125 C4.17902344 25.72648437 4.24476562 24.44515625 4.3125 23.125 C4.37050781 21.84882812 4.42851563 20.57265625 4.48828125 19.2578125 C4.65714844 18.18273437 4.82601562 17.10765625 5 16 C5.99 15.34 6.98 14.68 8 14 C6.01607489 11.60148679 6.01607489 11.60148679 2.1875 11.5625 C-1.21763815 11.661739 -2.029595 12.02034656 -5 14.0625 Z M26 47 C25.6366844 49.83386167 25.6431329 51.40522151 27.125 53.875 C29.92151052 55.55290631 31.93690532 54.74875648 35 54 C35.67673447 50.59679066 35.67673447 50.59679066 36 47 C34.11499729 44.68436913 34.11499729 44.68436913 31 44.75 C27.88500271 44.68436913 27.88500271 44.68436913 26 47 Z M-81.25 80.625 C-83.21985834 82.92308586 -83.21985834 82.92308586 -83.5 86 C-83.21376982 89.06575838 -83.21376982 89.06575838 -81.3125 91.375 C-78.61209763 93.27258004 -77.22939919 93.35882213 -74 93 C-73.85024761 85.94348748 -73.85024761 85.94348748 -75 79 C-78.92212225 78.60967296 -78.92212225 78.60967296 -81.25 80.625 Z M-67 95 C-67 96.65 -67 98.3 -67 100 C-54.13 99.01 -54.13 99.01 -41 98 C-40.67 97.01 -40.34 96.02 -40 95 C-48.91 95 -57.82 95 -67 95 Z M-16 95 C-16 95.99 -16 96.98 -16 98 C-10.72 98.33 -5.44 98.66 0 99 C0 97.68 0 96.36 0 95 C-5.28 95 -10.56 95 -16 95 Z " fill="#6B71FE" transform="translate(101,18)"/>
<path d="M0 0 C2.31 0 4.62 0 7 0 C7 2.97 7 5.94 7 9 C11.62 9 16.24 9 21 9 C21 15.6 21 22.2 21 29 C23.31 29 25.62 29 28 29 C29 30 29 30 29.11352539 33.96899414 C29.1133662 35.74105607 29.10766785 37.5131226 29.09765625 39.28515625 C29.0962413 40.21597519 29.09482635 41.14679413 29.09336853 42.1058197 C29.08775172 45.09141191 29.0751964 48.07693029 29.0625 51.0625 C29.05748716 53.08137913 29.05292388 55.10025943 29.04882812 57.11914062 C29.03777683 62.07945572 29.02050095 67.03971532 29 72 C31.31 72.66 33.62 73.32 36 74 C35 76 35 76 33.34521484 76.61450195 C28.49200924 77.41225457 23.54404055 77.18590312 18.63769531 77.18530273 C16.63863013 77.18748512 14.63960468 77.20599143 12.640625 77.22460938 C11.36960937 77.22654297 10.09859375 77.22847656 8.7890625 77.23046875 C7.63100098 77.23457764 6.47293945 77.23868652 5.27978516 77.24291992 C1.88689046 76.99162245 -0.83332989 76.21173908 -4 75 C-3.67 74.34 -3.34 73.68 -3 73 C-0.4375 72.375 -0.4375 72.375 2 72 C1.32142944 71.99191315 0.64285889 71.98382629 -0.05627441 71.97549438 C-7.19572947 71.88863335 -14.33493245 71.7891071 -21.47412109 71.68261719 C-24.12938188 71.64363425 -26.7845665 71.60971702 -29.43994141 71.578125 C-67.93926359 71.11445232 -67.93926359 71.11445232 -75 67 C-74 65 -74 65 -71 64 C-71 63.34 -71 62.68 -71 62 C-73.97065509 62.34227572 -73.97065509 62.34227572 -77 63 C-77.495 63.99 -77.495 63.99 -78 65 C-81.65316671 63.75023244 -82.78065836 63.32901247 -85 60 C-84.625 58 -84.625 58 -84 56 C-84 55.01 -84 54.02 -84 53 C-85.65 53 -87.3 53 -89 53 C-89 50.36 -89 47.72 -89 45 C-87.02 44.34 -85.04 43.68 -83 43 C-83.103125 42.071875 -83.20625 41.14375 -83.3125 40.1875 C-83.209375 39.135625 -83.10625 38.08375 -83 37 C-80.61107499 35.11400657 -79.08148442 34 -76 34 C-75.67 35.32 -75.34 36.64 -75 38 C-74.01 38 -73.02 38 -72 38 C-72 39.65 -72 41.3 -72 43 C-72.969375 43.28875 -73.93875 43.5775 -74.9375 43.875 C-78.10664203 44.64214682 -78.10664203 44.64214682 -79 47 C-79.14375422 50.37822416 -79.07536348 52.77390955 -78 56 C-75.69 56.33 -73.38 56.66 -71 57 C-71 54.03 -71 51.06 -71 48 C-69.02 48 -67.04 48 -65 48 C-64.67 48.66 -64.34 49.32 -64 50 C-55.75 50 -47.5 50 -39 50 C-38.505 49.01 -38.505 49.01 -38 48 C-24.47 48 -10.94 48 3 48 C3 46.35 3 44.7 3 43 C-6.9 43 -16.8 43 -27 43 C-27.33 42.34 -27.66 41.68 -28 41 C-26.02 40.505 -26.02 40.505 -24 40 C-24 39.01 -24 38.02 -24 37 C-23.25 34.875 -23.25 34.875 -22 33 C-19.9375 32.375 -19.9375 32.375 -18 32 C-17.67 31.34 -17.34 30.68 -17 30 C-12.95831005 26.74057262 -9.1088069 26.52155309 -4.109375 26.2109375 C-2.01529958 26.22637885 -2.01529958 26.22637885 -1 25 C-0.84213692 23.14825294 -0.74892644 21.2909089 -0.68359375 19.43359375 C-0.64169922 18.30888672 -0.59980469 17.18417969 -0.55664062 16.02539062 C-0.51732422 14.84138672 -0.47800781 13.65738281 -0.4375 12.4375 C-0.37272461 10.65569336 -0.37272461 10.65569336 -0.30664062 8.83789062 C-0.20016454 5.89205216 -0.09815159 2.9461257 0 0 Z M-64 59 C-64 60.65 -64 62.3 -64 64 C-51.13 63.01 -51.13 63.01 -38 62 C-37.67 61.01 -37.34 60.02 -37 59 C-45.91 59 -54.82 59 -64 59 Z M-13 59 C-13 59.99 -13 60.98 -13 62 C-7.72 62.33 -2.44 62.66 3 63 C3 61.68 3 60.36 3 59 C-2.28 59 -7.56 59 -13 59 Z " fill="#7284FD" transform="translate(98,54)"/>
<path d="M0 0 C0.33 1.32 0.66 2.64 1 4 C1.99 4 2.98 4 4 4 C4 5.65 4 7.3 4 9 C3.030625 9.28875 2.06125 9.5775 1.0625 9.875 C-2.10664203 10.64214682 -2.10664203 10.64214682 -3 13 C-3.14375422 16.37822416 -3.07536348 18.77390955 -2 22 C0.31 22.33 2.62 22.66 5 23 C5 20.03 5 17.06 5 14 C6.98 14 8.96 14 11 14 C11.33 14.66 11.66 15.32 12 16 C20.25 16 28.5 16 37 16 C37.33 15.34 37.66 14.68 38 14 C51.53 14 65.06 14 79 14 C79 17.63 79 21.26 79 25 C73.72 25 68.44 25 63 25 C63 25.99 63 26.98 63 28 C63.56847656 27.98839844 64.13695313 27.97679688 64.72265625 27.96484375 C69.60670484 27.90776806 74.18503965 28.18043228 79 29 C79 31.64 79 34.28 79 37 C71.71409984 37.04682155 64.42823335 37.08211748 57.14221191 37.10362434 C53.75718789 37.11395864 50.37226851 37.12792229 46.98730469 37.15087891 C8.5625541 37.39227608 8.5625541 37.39227608 1 33 C2 31 2 31 5 30 C5 29.34 5 28.68 5 28 C2.02934491 28.34227572 2.02934491 28.34227572 -1 29 C-1.33 29.66 -1.66 30.32 -2 31 C-5.65316671 29.75023244 -6.78065836 29.32901247 -9 26 C-8.625 24 -8.625 24 -8 22 C-8 21.01 -8 20.02 -8 19 C-9.65 19 -11.3 19 -13 19 C-13 16.36 -13 13.72 -13 11 C-11.02 10.34 -9.04 9.68 -7 9 C-7.103125 8.071875 -7.20625 7.14375 -7.3125 6.1875 C-7.209375 5.135625 -7.10625 4.08375 -7 3 C-4.61107499 1.11400657 -3.08148442 0 0 0 Z M12 25 C12 26.65 12 28.3 12 30 C24.87 29.01 24.87 29.01 38 28 C38.33 27.01 38.66 26.02 39 25 C30.09 25 21.18 25 12 25 Z " fill="#B4D1FE" transform="translate(22,88)"/>
<path d="M0 0 C16.83 0 33.66 0 51 0 C51 10.23 51 20.46 51 31 C34.17 31 17.34 31 0 31 C0 20.77 0 10.54 0 0 Z " fill="#464D93" transform="translate(44,47)"/>
<path d="M0 0 C2.97 0.33 5.94 0.66 9 1 C9 3.31 9 5.62 9 8 C12.78187881 9.83691257 14.94568308 10.15837626 19 9 C19.66 10.98 20.32 12.96 21 15 C22.28197266 14.98259766 22.28197266 14.98259766 23.58984375 14.96484375 C24.69457031 14.95582031 25.79929688 14.94679688 26.9375 14.9375 C28.03964844 14.92589844 29.14179688 14.91429687 30.27734375 14.90234375 C33 15 33 15 34 16 C34.08713831 17.70772358 34.10700007 19.41898649 34.09765625 21.12890625 C34.09443359 22.16337891 34.09121094 23.19785156 34.08789062 24.26367188 C34.07532227 25.8965918 34.07532227 25.8965918 34.0625 27.5625 C34.05798828 28.65498047 34.05347656 29.74746094 34.04882812 30.87304688 C34.03699826 33.58208495 34.02051543 36.29101599 34 39 C35.32 39.33 36.64 39.66 38 40 C38.495 43.465 38.495 43.465 39 47 C40.32 47.33 41.64 47.66 43 48 C43 49.32 43 50.64 43 52 C41.68 52 40.36 52 39 52 C39 54.31 39 56.62 39 59 C37.68 59.66 36.36 60.32 35 61 C34.34 60.34 33.68 59.68 33 59 C32.01 59 31.02 59 30 59 C29.505 59.99 29.505 59.99 29 61 C26.5625 60.3125 26.5625 60.3125 24 59 C23.1875 56.375 23.1875 56.375 23 54 C22.01 53.67 21.02 53.34 20 53 C19.67 51.35 19.34 49.7 19 48 C20.32 47.34 21.64 46.68 23 46 C21.02 45.34 19.04 44.68 17 44 C17.04125 43.236875 17.0825 42.47375 17.125 41.6875 C17.22080824 38.77281584 17.22080824 38.77281584 15 36 C15.66 36 16.32 36 17 36 C17 34.35 17 32.7 17 31 C10.4 31 3.8 31 -3 31 C-3 30.34 -3 29.68 -3 29 C-0.69 29.33 1.62 29.66 4 30 C3.94779297 28.51886719 3.94779297 28.51886719 3.89453125 27.0078125 C3.86746094 25.72648437 3.84039062 24.44515625 3.8125 23.125 C3.76029297 21.21074219 3.76029297 21.21074219 3.70703125 19.2578125 C3.80371094 18.18273437 3.90039062 17.10765625 4 16 C4.99 15.34 5.98 14.68 7 14 C5.78410016 12.56844101 5.78410016 12.56844101 2.1875 12.6875 C-0.8307722 12.74168801 -1.86175828 12.91359892 -4.5 14.5625 C-6.53366895 17.86721204 -6.3468602 20.18453778 -6 24 C-5.67 24.99 -5.34 25.98 -5 27 C-9.29 27 -13.58 27 -18 27 C-18.33 26.01 -18.66 25.02 -19 24 C-18.360625 23.814375 -17.72125 23.62875 -17.0625 23.4375 C-14.57873787 22.05753944 -14.57873787 22.05753944 -14.25 18.375 C-14.1675 17.26125 -14.085 16.1475 -14 15 C-14.99 14.34 -15.98 13.68 -17 13 C-15.62845496 10.04590299 -14.01136276 7.55991624 -12 5 C-11.484375 5.350625 -10.96875 5.70125 -10.4375 6.0625 C-7.05993333 7.3615641 -4.49531943 6.67217681 -1 6 C-0.67 4.02 -0.34 2.04 0 0 Z M26 47 C25.6366844 49.83386167 25.6431329 51.40522151 27.125 53.875 C29.92151052 55.55290631 31.93690532 54.74875648 35 54 C35.67673447 50.59679066 35.67673447 50.59679066 36 47 C34.11499729 44.68436913 34.11499729 44.68436913 31 44.75 C27.88500271 44.68436913 27.88500271 44.68436913 26 47 Z " fill="#35DBC7" transform="translate(101,18)"/>
<path d="M0 0 C0.33 0 0.66 0 1 0 C1.33 2.97 1.66 5.94 2 9 C2.66 9 3.32 9 4 9 C4.77772405 6.66682784 5.42415568 4.38564077 6 2 C7.32 2.66 8.64 3.32 10 4 C10 4.99 10 5.98 10 7 C9.01 7.66 8.02 8.32 7 9 C11.95 9.33 16.9 9.66 22 10 C22.33 12.64 22.66 15.28 23 18 C23.66 17.34 24.32 16.68 25 16 C26.25248502 18.50497004 26.11374406 20.20853274 26.09765625 23.0078125 C26.09443359 23.99394531 26.09121094 24.98007813 26.08789062 25.99609375 C26.07532227 27.54490234 26.07532227 27.54490234 26.0625 29.125 C26.05798828 30.16527344 26.05347656 31.20554687 26.04882812 32.27734375 C26.03701952 34.85161962 26.02055075 37.42578146 26 40 C28.31 40.66 30.62 41.32 33 42 C32 44 32 44 30.34521484 44.61450195 C25.49200924 45.41225457 20.54404055 45.18590312 15.63769531 45.18530273 C13.63863013 45.18748512 11.63960468 45.20599143 9.640625 45.22460938 C8.36960937 45.22654297 7.09859375 45.22847656 5.7890625 45.23046875 C4.63100098 45.23457764 3.47293945 45.23868652 2.27978516 45.24291992 C-1.11310954 44.99162245 -3.83332989 44.21173908 -7 43 C-6 41 -6 41 0 39 C0 26.13 0 13.26 0 0 Z " fill="#5E4EEE" transform="translate(101,86)"/>
<path d="M0 0 C0.33 1.32 0.66 2.64 1 4 C1.99 4 2.98 4 4 4 C4 5.65 4 7.3 4 9 C3.030625 9.28875 2.06125 9.5775 1.0625 9.875 C-2.10664203 10.64214682 -2.10664203 10.64214682 -3 13 C-3.14375422 16.37822416 -3.07536348 18.77390955 -2 22 C-0.989375 22.12375 0.02125 22.2475 1.0625 22.375 C4.89132097 22.98274936 8.36514325 23.64583768 12 25 C12.66 26.32 13.32 27.64 14 29 C21.92 28.67 29.84 28.34 38 28 C37.67 28.66 37.34 29.32 37 30 C34.35139573 30.59355614 31.70802678 30.74209269 29 31 C29 31.66 29 32.32 29 33 C43.19 33 57.38 33 72 33 C71.67 32.34 71.34 31.68 71 31 C69.845 30.835 68.69 30.67 67.5 30.5 C66.345 30.335 65.19 30.17 64 30 C63.505 29.01 63.505 29.01 63 28 C68.45769811 27.88861841 73.61509359 28.08342019 79 29 C79 31.64 79 34.28 79 37 C71.71409984 37.04682155 64.42823335 37.08211748 57.14221191 37.10362434 C53.75718789 37.11395864 50.37226851 37.12792229 46.98730469 37.15087891 C8.5625541 37.39227608 8.5625541 37.39227608 1 33 C2 31 2 31 5 30 C5 29.34 5 28.68 5 28 C2.02934491 28.34227572 2.02934491 28.34227572 -1 29 C-1.33 29.66 -1.66 30.32 -2 31 C-5.65316671 29.75023244 -6.78065836 29.32901247 -9 26 C-8.625 24 -8.625 24 -8 22 C-8 21.01 -8 20.02 -8 19 C-9.65 19 -11.3 19 -13 19 C-13 16.36 -13 13.72 -13 11 C-11.02 10.34 -9.04 9.68 -7 9 C-7.103125 8.071875 -7.20625 7.14375 -7.3125 6.1875 C-7.209375 5.135625 -7.10625 4.08375 -7 3 C-4.61107499 1.11400657 -3.08148442 0 0 0 Z " fill="#EAEBF2" transform="translate(22,88)"/>
<path d="M0 0 C1.37091797 0.0009668 1.37091797 0.0009668 2.76953125 0.00195312 C9.48435163 0.04685163 9.48435163 0.04685163 10.625 1.1875 C12.64094582 1.42177778 14.663474 1.60086124 16.6875 1.75 C17.79222656 1.83378906 18.89695313 1.91757812 20.03515625 2.00390625 C20.88980469 2.06449219 21.74445312 2.12507813 22.625 2.1875 C22.625 2.5175 22.625 2.8475 22.625 3.1875 C18.335 3.1875 14.045 3.1875 9.625 3.1875 C9.625 7.8075 9.625 12.4275 9.625 17.1875 C11.935 17.1875 14.245 17.1875 16.625 17.1875 C16.65398816 21.12498458 16.67179464 25.06244179 16.6875 29 C16.69587891 30.11955078 16.70425781 31.23910156 16.71289062 32.39257812 C16.71611328 33.46572266 16.71933594 34.53886719 16.72265625 35.64453125 C16.72789307 36.63428955 16.73312988 37.62404785 16.73852539 38.64379883 C16.53252939 43.25943821 14.88970828 45.13341806 11.625 48.1875 C10.04096476 46.60346476 10.40525065 44.9103362 10.30859375 42.71484375 C10.26669922 41.81572266 10.22480469 40.91660156 10.18164062 39.99023438 C10.14232422 39.04470703 10.10300781 38.09917969 10.0625 37.125 C10.01931641 36.17560547 9.97613281 35.22621094 9.93164062 34.24804688 C9.82520724 31.89468647 9.72318992 29.54121646 9.625 27.1875 C6.985 27.1875 4.345 27.1875 1.625 27.1875 C1.625 25.2075 1.625 23.2275 1.625 21.1875 C0.77035156 21.19910156 -0.08429687 21.21070312 -0.96484375 21.22265625 C-2.06957031 21.23167969 -3.17429687 21.24070312 -4.3125 21.25 C-5.41464844 21.26160156 -6.51679688 21.27320312 -7.65234375 21.28515625 C-10.375 21.1875 -10.375 21.1875 -11.375 20.1875 C-11.41563832 18.52132885 -11.417721 16.85361905 -11.375 15.1875 C-13.685 15.1875 -15.995 15.1875 -18.375 15.1875 C-18.375 14.8575 -18.375 14.5275 -18.375 14.1875 C-16.395 13.8575 -14.415 13.5275 -12.375 13.1875 C-12.045 11.8675 -11.715 10.5475 -11.375 9.1875 C-13.355 9.1875 -15.335 9.1875 -17.375 9.1875 C-17.375 8.8575 -17.375 8.5275 -17.375 8.1875 C-15.725 7.8575 -14.075 7.5275 -12.375 7.1875 C-12.045 5.8675 -11.715 4.5475 -11.375 3.1875 C-13.355 3.1875 -15.335 3.1875 -17.375 3.1875 C-17.375 2.8575 -17.375 2.5275 -17.375 2.1875 C-11.48560037 0.14637931 -6.2030285 -0.08528042 0 0 Z " fill="#5A38FF" transform="translate(24.375,31.8125)"/>
<path d="M0 0 C18.15 0 36.3 0 55 0 C55.495 1.98 55.495 1.98 56 4 C62.6 4 69.2 4 76 4 C76 6.33333333 76 8.66666667 76 11 C76.165 11.825 76.33 12.65 76.5 13.5 C77 16 77 16 77 18 C72.38 18 67.76 18 63 18 C63 15.03 63 12.06 63 9 C60.69 9 58.38 9 56 9 C56.01571045 10.12027588 56.01571045 10.12027588 56.03173828 11.26318359 C56.0732077 14.63375508 56.09929729 18.004273 56.125 21.375 C56.14175781 22.550625 56.15851563 23.72625 56.17578125 24.9375 C56.18544922 26.61972656 56.18544922 26.61972656 56.1953125 28.3359375 C56.21102295 29.89127197 56.21102295 29.89127197 56.22705078 31.47802734 C56 34 56 34 54 36 C51.76086426 36.25396729 51.76086426 36.25396729 48.93945312 36.25878906 C47.35771301 36.26824554 47.35771301 36.26824554 45.74401855 36.27789307 C44.60130493 36.2738446 43.45859131 36.26979614 42.28125 36.265625 C40.52802429 36.26849518 40.52802429 36.26849518 38.73937988 36.27142334 C36.26456487 36.27278626 33.78974274 36.26908241 31.31494141 36.26074219 C27.51578795 36.25004446 23.71710741 36.26063418 19.91796875 36.2734375 C17.51822812 36.27211592 15.11848778 36.26955357 12.71875 36.265625 C11.00467957 36.27169769 11.00467957 36.27169769 9.25598145 36.27789307 C8.20148804 36.27158875 7.14699463 36.26528442 6.06054688 36.25878906 C5.1294812 36.25719788 4.19841553 36.25560669 3.23913574 36.25396729 C1 36 1 36 -1 34 C-1.24291992 30.8671875 -1.24291992 30.8671875 -1.23046875 26.875 C-1.23001053 26.1722998 -1.22955231 25.46959961 -1.2290802 24.74560547 C-1.22605825 23.25942294 -1.21817359 21.77324356 -1.20581055 20.28710938 C-1.18757206 18.00900075 -1.18530075 15.73129896 -1.18554688 13.453125 C-1.14752629 2.29505259 -1.14752629 2.29505259 0 0 Z M2 2 C2 12.23 2 22.46 2 33 C18.83 33 35.66 33 53 33 C53 22.77 53 12.54 53 2 C36.17 2 19.34 2 2 2 Z " fill="#38CCCF" transform="translate(42,45)"/>
<path d="M0 0 C1.12019531 -0.00128906 2.24039063 -0.00257812 3.39453125 -0.00390625 C4.57402344 -0.00003906 5.75351562 0.00382812 6.96875 0.0078125 C8.73798828 0.00201172 8.73798828 0.00201172 10.54296875 -0.00390625 C12.22326172 -0.00197266 12.22326172 -0.00197266 13.9375 0 C14.97326172 0.00112793 16.00902344 0.00225586 17.07617188 0.00341797 C19.46875 0.1328125 19.46875 0.1328125 20.46875 1.1328125 C20.56861975 3.97616298 20.60752881 6.78978413 20.59375 9.6328125 C20.59955078 10.82970703 20.59955078 10.82970703 20.60546875 12.05078125 C20.59535767 18.00620483 20.59535767 18.00620483 19.46875 19.1328125 C17.62715977 19.23240871 15.78178033 19.26361661 13.9375 19.265625 C12.81730469 19.26691406 11.69710937 19.26820312 10.54296875 19.26953125 C9.36347656 19.26566406 8.18398438 19.26179688 6.96875 19.2578125 C5.19951172 19.26361328 5.19951172 19.26361328 3.39453125 19.26953125 C1.71423828 19.26759766 1.71423828 19.26759766 0 19.265625 C-1.03576172 19.26449707 -2.07152344 19.26336914 -3.13867188 19.26220703 C-5.53125 19.1328125 -5.53125 19.1328125 -6.53125 18.1328125 C-6.63111975 15.28946202 -6.67002881 12.47584087 -6.65625 9.6328125 C-6.66011719 8.83488281 -6.66398437 8.03695312 -6.66796875 7.21484375 C-6.65573175 0.007248 -6.65573175 0.007248 0 0 Z " fill="#36DAC4" transform="translate(39.53125,85.8671875)"/>
<path d="M0 0 C0.83265381 0.00523682 1.66530762 0.01047363 2.52319336 0.01586914 C3.33280518 0.0183667 4.14241699 0.02086426 4.9765625 0.0234375 C6.01159912 0.0325415 7.04663574 0.04164551 8.11303711 0.05102539 C11.39241211 0.07165039 14.67178711 0.09227539 18.05053711 0.11352539 C18.05053711 7.04352539 18.05053711 13.97352539 18.05053711 21.11352539 C11.12053711 21.11352539 4.19053711 21.11352539 -2.94946289 21.11352539 C-2.97008789 17.83415039 -2.99071289 14.55477539 -3.01196289 11.17602539 C-3.02106689 10.14098877 -3.0301709 9.10595215 -3.03955078 8.03955078 C-3.04329712 6.82513306 -3.04329712 6.82513306 -3.04711914 5.58618164 C-3.05235596 4.75352783 -3.05759277 3.92087402 -3.06298828 3.06298828 C-2.90876673 0.41468917 -2.64829911 0.15422155 0 0 Z " fill="#35C9DE" transform="translate(15.949462890625,58.886474609375)"/>
<path d="M0 0 C1.32 0 2.64 0 4 0 C4 6.6 4 13.2 4 20 C6.31 20 8.62 20 11 20 C13.30943712 22.30943712 12.23292626 27.83648181 12.25 30.9375 C12.270625 31.87013672 12.29125 32.80277344 12.3125 33.76367188 C12.31765625 34.65505859 12.3228125 35.54644531 12.328125 36.46484375 C12.34214355 37.69642212 12.34214355 37.69642212 12.35644531 38.95288086 C12.23881836 39.62843018 12.12119141 40.30397949 12 41 C11.01 41.66 10.02 42.32 9 43 C8 41 8 41 8 33 C2.72 33 -2.56 33 -8 33 C-6.68 31.35 -5.36 29.7 -4 28 C-4.99 27.34 -5.98 26.68 -7 26 C-7.268125 26.598125 -7.53625 27.19625 -7.8125 27.8125 C-8.99087975 29.98319954 -10.14545086 31.38734857 -12 33 C-12.33 33 -12.66 33 -13 33 C-13.19466332 31.20909747 -13.38051213 29.41723495 -13.5625 27.625 C-13.66691406 26.62726563 -13.77132812 25.62953125 -13.87890625 24.6015625 C-14 22 -14 22 -13 20 C-8.71 20 -4.42 20 0 20 C0 13.4 0 6.8 0 0 Z " fill="#6358FE" transform="translate(115,63)"/>
<path d="M0 0 C2.97 0.33 5.94 0.66 9 1 C9 3.31 9 5.62 9 8 C12.78187881 9.83691257 14.94568308 10.15837626 19 9 C19.66 10.98 20.32 12.96 21 15 C18.87527424 15.05386629 16.75016348 15.09273071 14.625 15.125 C12.84996094 15.15980469 12.84996094 15.15980469 11.0390625 15.1953125 C8 15 8 15 6 13 C0.43622348 12.41262964 0.43622348 12.41262964 -4.5 14.5625 C-6.53366895 17.86721204 -6.3468602 20.18453778 -6 24 C-5.67 24.99 -5.34 25.98 -5 27 C-9.29 27 -13.58 27 -18 27 C-18.33 26.01 -18.66 25.02 -19 24 C-18.360625 23.814375 -17.72125 23.62875 -17.0625 23.4375 C-14.57873787 22.05753944 -14.57873787 22.05753944 -14.25 18.375 C-14.1675 17.26125 -14.085 16.1475 -14 15 C-14.99 14.34 -15.98 13.68 -17 13 C-15.62845496 10.04590299 -14.01136276 7.55991624 -12 5 C-11.484375 5.350625 -10.96875 5.70125 -10.4375 6.0625 C-7.05993333 7.3615641 -4.49531943 6.67217681 -1 6 C-0.67 4.02 -0.34 2.04 0 0 Z " fill="#E8EAF1" transform="translate(101,18)"/>
<path d="M0 0 C1.98 0 3.96 0 6 0 C6.33 0.66 6.66 1.32 7 2 C15.25 2 23.5 2 32 2 C32.33 1.34 32.66 0.68 33 0 C35.64 0 38.28 0 41 0 C40.34 0.33 39.68 0.66 39 1 C39 2.32 39 3.64 39 5 C38.01 5 37.02 5 36 5 C36.495 5.99 36.495 5.99 37 7 C36.34 7 35.68 7 35 7 C35 8.32 35 9.64 35 11 C30.17619198 11.0246519 25.35242033 11.04283693 20.52856445 11.05493164 C18.88630536 11.05997174 17.24405077 11.06680378 15.60180664 11.07543945 C13.24624521 11.08751926 10.89074291 11.09323139 8.53515625 11.09765625 C7.79660904 11.10281754 7.05806183 11.10797882 6.2971344 11.11329651 C4.53101912 11.1134925 2.76502854 11.06194719 1 11 C0 10 0 10 -0.09765625 7.71484375 C-0.08605469 6.79832031 -0.07445313 5.88179688 -0.0625 4.9375 C-0.05347656 4.01839844 -0.04445313 3.09929687 -0.03515625 2.15234375 C-0.02355469 1.44207031 -0.01195313 0.73179688 0 0 Z " fill="#C0D8FE" transform="translate(27,102)"/>
<path d="M0 0 C1.58206057 0.00667536 3.16410534 0.0186375 4.74609375 0.03515625 C5.55240234 0.03966797 6.35871094 0.04417969 7.18945312 0.04882812 C9.18753131 0.06065107 11.18557158 0.07858711 13.18359375 0.09765625 C13.21043687 2.91021906 13.23035563 5.72252866 13.24609375 8.53515625 C13.25447266 9.33759766 13.26285156 10.14003906 13.27148438 10.96679688 C13.28010805 13.01060846 13.23587525 15.05449527 13.18359375 17.09765625 C11.36243372 18.91881628 8.87687611 18.23000705 6.45703125 18.234375 C5.70679687 18.23050781 4.9565625 18.22664063 4.18359375 18.22265625 C3.05824219 18.22845703 3.05824219 18.22845703 1.91015625 18.234375 C-3.68979572 18.22426678 -3.68979572 18.22426678 -4.81640625 17.09765625 C-4.91621839 14.42034245 -4.955205 11.7746145 -4.94140625 9.09765625 C-4.94527344 8.34742187 -4.94914062 7.5971875 -4.953125 6.82421875 C-4.94103514 0.12643386 -4.94103514 0.12643386 0 0 Z " fill="#DEF5F7" transform="translate(109.81640625,95.90234375)"/>
<path d="M0 0 C2 2 2 2 2.22705078 4.06298828 C2.21657715 4.89040527 2.20610352 5.71782227 2.1953125 6.5703125 C2.19031738 7.37742676 2.18532227 8.18454102 2.18017578 9.01611328 C2.15286377 10.55501221 2.15286377 10.55501221 2.125 12.125 C2.08375 15.38375 2.0425 18.6425 2 22 C-6.25 22 -14.5 22 -23 22 C-23.13392857 8.74107143 -23.13392857 8.74107143 -22 4 C-21.34 4 -20.68 4 -20 4 C-19.67 6.31 -19.34 8.62 -19 11 C-13.72 11 -8.44 11 -3 11 C-2.87625 9.55625 -2.7525 8.1125 -2.625 6.625 C-2.25 2.25 -2.25 2.25 0 0 Z " fill="#738AFE" transform="translate(125,102)"/>
<path d="M0 0 C5.61 0 11.22 0 17 0 C17 5.61 17 11.22 17 17 C11.39 17 5.78 17 0 17 C0 11.33333333 0 5.66666667 0 0 Z " fill="#3C4E9C" transform="translate(15,34)"/>
<path d="M0 0 C0.33 0 0.66 0 1 0 C1.33 5.94 1.66 11.88 2 18 C4.8290723 15.1709277 5.37611108 14.61855575 6 11 C6.19335938 11.56589844 6.38671875 12.13179687 6.5859375 12.71484375 C6.84632812 13.44832031 7.10671875 14.18179688 7.375 14.9375 C7.63023438 15.66839844 7.88546875 16.39929688 8.1484375 17.15234375 C8.85271413 19.18682116 8.85271413 19.18682116 11 20 C10.67 20.99 10.34 21.98 10 23 C9.01 22.67 8.02 22.34 7 22 C6.67 22.99 6.34 23.98 6 25 C4.02 25.33 2.04 25.66 0 26 C-0.33 30.95 -0.66 35.9 -1 41 C-3.31 41 -5.62 41 -8 41 C-8 33.74 -8 26.48 -8 19 C-5.36 19 -2.72 19 0 19 C0 12.73 0 6.46 0 0 Z " fill="#5D50FC" transform="translate(34,61)"/>
<path d="M0 0 C2.875 1 2.875 1 4.25 3.0625 C4.45625 3.701875 4.6625 4.34125 4.875 5 C6.525 5 8.175 5 9.875 5 C10.37 6.98 10.37 6.98 10.875 9 C6.915 9 2.955 9 -1.125 9 C-1.125 10.98 -1.125 12.96 -1.125 15 C-0.465 15 0.195 15 0.875 15 C0.875 17 0.875 17 -0.625 18.625 C-1.12 19.07875 -1.615 19.5325 -2.125 20 C-6 18.25 -6 18.25 -7.125 16 C-6.465 16 -5.805 16 -5.125 16 C-5.125 14.35 -5.125 12.7 -5.125 11 C-11.725 11 -18.325 11 -25.125 11 C-25.125 10.34 -25.125 9.68 -25.125 9 C-24.114375 9.0825 -23.10375 9.165 -22.0625 9.25 C-17.17900033 8.93993653 -15.23397487 7.55841831 -11.125 5 C-10.403125 4.835 -9.68125 4.67 -8.9375 4.5 C-6.87701312 4.10936959 -6.87701312 4.10936959 -5.25 1.875 C-3.125 0 -3.125 0 0 0 Z " fill="#89D9E3" transform="translate(123.125,38)"/>
<path d="M0 0 C6.6 0 13.2 0 20 0 C20 2.33333333 20 4.66666667 20 7 C20.2475 8.2375 20.2475 8.2375 20.5 9.5 C21 12 21 12 21 14 C16.38 14 11.76 14 7 14 C7 11.03 7 8.06 7 5 C4.69 5 2.38 5 0 5 C0 3.35 0 1.7 0 0 Z " fill="#39C5D7" transform="translate(98,49)"/>
<path d="M0 0 C13.53 0 27.06 0 41 0 C41 1.65 41 3.3 41 5 C27.47 5 13.94 5 0 5 C0 3.35 0 1.7 0 0 Z " fill="#3C3D89" transform="translate(60,97)"/>
<path d="M0 0 C2.64 0 5.28 0 8 0 C8 6.93 8 13.86 8 21 C1.07 21 -5.86 21 -13 21 C-12.67 18.69 -12.34 16.38 -12 14 C-11.34 13.67 -10.68 13.34 -10 13 C-9.34 13.33 -8.68 13.66 -8 14 C-7.67 13.34 -7.34 12.68 -7 12 C-6.67 13.32 -6.34 14.64 -6 16 C-3.36 16.33 -0.72 16.66 2 17 C2 15.68 2 14.36 2 13 C2.99 13 3.98 13 5 13 C5 11.68 5 10.36 5 9 C4.01 9 3.02 9 2 9 C0.50178941 5.62902617 0 3.79557881 0 0 Z " fill="#39D1D5" transform="translate(26,59)"/>
<path d="M0 0 C1.32 0.33 2.64 0.66 4 1 C4.33 3.31 4.66 5.62 5 8 C6.32 8.33 7.64 8.66 9 9 C9 10.32 9 11.64 9 13 C7.68 13 6.36 13 5 13 C5 15.31 5 17.62 5 20 C3.02 20.99 3.02 20.99 1 22 C0.34 21.34 -0.32 20.68 -1 20 C-1.99 20 -2.98 20 -4 20 C-4.33 20.66 -4.66 21.32 -5 22 C-7.4375 21.3125 -7.4375 21.3125 -10 20 C-10.8125 17.375 -10.8125 17.375 -11 15 C-11.99 14.67 -12.98 14.34 -14 14 C-14.33 12.35 -14.66 10.7 -15 9 C-10.56923077 5.92307692 -10.56923077 5.92307692 -7.6875 6.3125 C-7.130625 6.539375 -6.57375 6.76625 -6 7 C-6.33 7.33 -6.66 7.66 -7 8 C-7.2500773 10.45809998 -7.2500773 10.45809998 -7 13 C-5.10244856 15.34973818 -5.10244856 15.34973818 -1.875 15.125 C-0.451875 15.063125 -0.451875 15.063125 1 15 C1.29562367 9.67829506 1.29562367 9.67829506 -1 5 C-0.625 2.3125 -0.625 2.3125 0 0 Z " fill="#E9EAF2" transform="translate(135,57)"/>
<path d="M0 0 C1.37091797 0.0009668 1.37091797 0.0009668 2.76953125 0.00195312 C9.48435163 0.04685163 9.48435163 0.04685163 10.625 1.1875 C12.64094582 1.42177778 14.663474 1.60086124 16.6875 1.75 C17.79222656 1.83378906 18.89695313 1.91757812 20.03515625 2.00390625 C20.88980469 2.06449219 21.74445312 2.12507813 22.625 2.1875 C22.625 2.5175 22.625 2.8475 22.625 3.1875 C18.335 3.1875 14.045 3.1875 9.625 3.1875 C9.625 9.1275 9.625 15.0675 9.625 21.1875 C6.31244674 21.21433436 3.00010817 21.2342578 -0.3125 21.25 C-1.25802734 21.25837891 -2.20355469 21.26675781 -3.17773438 21.27539062 C-4.52641602 21.28022461 -4.52641602 21.28022461 -5.90234375 21.28515625 C-7.15132446 21.29301147 -7.15132446 21.29301147 -8.42553711 21.30102539 C-10.375 21.1875 -10.375 21.1875 -11.375 20.1875 C-11.41563832 18.52132885 -11.417721 16.85361905 -11.375 15.1875 C-13.685 15.1875 -15.995 15.1875 -18.375 15.1875 C-18.375 14.8575 -18.375 14.5275 -18.375 14.1875 C-16.395 13.8575 -14.415 13.5275 -12.375 13.1875 C-12.045 11.8675 -11.715 10.5475 -11.375 9.1875 C-13.355 9.1875 -15.335 9.1875 -17.375 9.1875 C-17.375 8.8575 -17.375 8.5275 -17.375 8.1875 C-15.725 7.8575 -14.075 7.5275 -12.375 7.1875 C-12.045 5.8675 -11.715 4.5475 -11.375 3.1875 C-13.355 3.1875 -15.335 3.1875 -17.375 3.1875 C-17.375 2.8575 -17.375 2.5275 -17.375 2.1875 C-11.48560037 0.14637931 -6.2030285 -0.08528042 0 0 Z M-9.375 2.1875 C-9.375 4.4975 -9.375 6.8075 -9.375 9.1875 C-9.375 12.52083333 -9.375 15.85416667 -9.375 19.1875 C-3.765 19.1875 1.845 19.1875 7.625 19.1875 C7.625 13.5775 7.625 7.9675 7.625 2.1875 C2.015 2.1875 -3.595 2.1875 -9.375 2.1875 Z " fill="#7BD4E1" transform="translate(24.375,31.8125)"/>
<path d="M0 0 C0.61488281 0.0721875 1.22976562 0.144375 1.86328125 0.21875 C3.07564453 0.35796875 3.07564453 0.35796875 4.3125 0.5 C5.11300781 0.5928125 5.91351563 0.685625 6.73828125 0.78125 C9.11896555 1.04813463 9.11896555 1.04813463 12 1 C12.33 1.99 12.66 2.98 13 4 C16.90061415 5.43158611 21.13503388 5.34075713 25.25 5.5625 C25.99507812 5.60568359 26.74015625 5.64886719 27.5078125 5.69335938 C29.338349 5.79896725 31.16915176 5.89994201 33 6 C33 6.66 33 7.32 33 8 C18.81 8 4.62 8 -10 8 C-10 7.34 -10 6.68 -10 6 C-7.98177083 5.609375 -5.96354167 5.21875 -3.9453125 4.828125 C-1.80995329 4.14287884 -1.80995329 4.14287884 -0.7421875 1.921875 C-0.49726562 1.28765625 -0.25234375 0.6534375 0 0 Z " fill="#9FC3FE" transform="translate(61,113)"/>
<path d="M0 0 C1.32 0 2.64 0 4 0 C4 6.6 4 13.2 4 20 C6.31 20 8.62 20 11 20 C11.33 20.99 11.66 21.98 12 23 C3.19039858 24.30512614 -5.19039858 24.30512614 -14 23 C-13.505 21.515 -13.505 21.515 -13 20 C-8.71 20 -4.42 20 0 20 C0 13.4 0 6.8 0 0 Z " fill="#4C4CA1" transform="translate(115,63)"/>
<path d="M0 0 C1.58206057 0.00667536 3.16410534 0.0186375 4.74609375 0.03515625 C5.55240234 0.03966797 6.35871094 0.04417969 7.18945312 0.04882812 C9.18753131 0.06065107 11.18557158 0.07858711 13.18359375 0.09765625 C13.18359375 1.08765625 13.18359375 2.07765625 13.18359375 3.09765625 C11.53359375 3.42765625 9.88359375 3.75765625 8.18359375 4.09765625 C8.08884766 5.24814453 8.08884766 5.24814453 7.9921875 6.421875 C7.18359375 9.09765625 7.18359375 9.09765625 4.96875 10.6796875 C4.07027344 11.08574219 3.17179687 11.49179687 2.24609375 11.91015625 C1.35019531 12.32910156 0.45429687 12.74804688 -0.46875 13.1796875 C-2.81640625 14.09765625 -2.81640625 14.09765625 -4.81640625 14.09765625 C-4.84326563 11.95188988 -4.86273713 9.8060298 -4.87890625 7.66015625 C-4.89050781 6.46519531 -4.90210937 5.27023438 -4.9140625 4.0390625 C-4.76748251 -0.37592684 -4.58410302 0.11730049 0 0 Z " fill="#6ED5E3" transform="translate(109.81640625,32.90234375)"/>
<path d="M0 0 C1.44856764 4.34570291 0.42444707 7.72665878 -1 12 C-1.99 12.33 -2.98 12.66 -4 13 C-3.67 11.68 -3.34 10.36 -3 9 C-3.99 8.67 -4.98 8.34 -6 8 C-6.99 10.64 -7.98 13.28 -9 16 C-9.66 16 -10.32 16 -11 16 C-11.33 15.34 -11.66 14.68 -12 14 C-12.639375 13.690625 -13.27875 13.38125 -13.9375 13.0625 C-16 12 -16 12 -18 9 C-17.3125 7.125 -17.3125 7.125 -16 5 C-13.625 3.9375 -13.625 3.9375 -11 3 C-10.38125 2.46375 -9.7625 1.9275 -9.125 1.375 C-6.08760717 -0.59037183 -3.53189293 -0.20376305 0 0 Z " fill="#47B8DF" transform="translate(55,86)"/>
<path d="M0 0 C1.31871094 -0.01224609 2.63742188 -0.02449219 3.99609375 -0.03710938 C5.90068359 -0.04000977 5.90068359 -0.04000977 7.84375 -0.04296875 C9.00068359 -0.04707764 10.15761719 -0.05118652 11.34960938 -0.05541992 C14.47736509 0.18575467 16.680892 0.85423629 19.5 2.1875 C18.5 4.1875 18.5 4.1875 16.84521484 4.80200195 C11.99200924 5.59975457 7.04404055 5.37340312 2.13769531 5.37280273 C0.13863013 5.37498512 -1.86039532 5.39349143 -3.859375 5.41210938 C-5.13039063 5.41404297 -6.40140625 5.41597656 -7.7109375 5.41796875 C-8.86899902 5.42207764 -10.02706055 5.42618652 -11.22021484 5.43041992 C-14.61310954 5.17912245 -17.33332989 4.39923908 -20.5 3.1875 C-20.17 2.5275 -19.84 1.8675 -19.5 1.1875 C-13.23640183 -0.60566158 -6.45139424 0.00315317 0 0 Z " fill="#EAEBF2" transform="translate(114.5,125.8125)"/>
<path d="M0 0 C0.99 0 1.98 0 3 0 C3.02505615 0.87325928 3.0501123 1.74651855 3.07592773 2.64624023 C3.17087709 5.87602552 3.27012029 9.10564154 3.37231445 12.33520508 C3.41571434 13.73489199 3.45738564 15.13463359 3.49731445 16.53442383 C3.55489445 18.54261495 3.61914 20.55061149 3.68359375 22.55859375 C3.72025146 23.76829834 3.75690918 24.97800293 3.79467773 26.22436523 C3.68938266 28.90705456 3.68938266 28.90705456 5 30 C6.56448383 30.12263388 8.13432772 30.17779522 9.70336914 30.20532227 C11.20481224 30.2352401 11.20481224 30.2352401 12.73658752 30.26576233 C14.36937904 30.29083107 14.36937904 30.29083107 16.03515625 30.31640625 C17.14354355 30.33718735 18.25193085 30.35796844 19.39390564 30.37937927 C22.95003808 30.44499623 26.50624703 30.50381596 30.0625 30.5625 C32.46680493 30.60567368 34.87110199 30.64928758 37.27539062 30.69335938 C43.18351185 30.80068992 49.09170991 30.90243331 55 31 C55 31.33 55 31.66 55 32 C47.48863592 32.05057965 39.97731551 32.08568257 32.46582031 32.10986328 C29.90883747 32.11994038 27.35186621 32.13360226 24.79492188 32.15087891 C21.12627308 32.17505217 17.45777621 32.18646585 13.7890625 32.1953125 C12.0655809 32.21079636 12.0655809 32.21079636 10.30728149 32.22659302 C9.2463327 32.22674408 8.18538391 32.22689514 7.09228516 32.22705078 C6.15518707 32.231492 5.21808899 32.23593323 4.25259399 32.24050903 C2 32 2 32 0 30 C-0.22705078 27.01904297 -0.22705078 27.01904297 -0.1953125 23.2421875 C-0.1924826 22.57913605 -0.18965271 21.91608459 -0.18673706 21.23294067 C-0.17553435 19.11344417 -0.15043051 16.99436896 -0.125 14.875 C-0.11497028 13.43880818 -0.10584441 12.00260975 -0.09765625 10.56640625 C-0.075595 7.04413372 -0.04106494 3.52210797 0 0 Z " fill="#489DE9" transform="translate(41,49)"/>
<path d="M0 0 C1.58206057 0.00667536 3.16410534 0.0186375 4.74609375 0.03515625 C5.55240234 0.03966797 6.35871094 0.04417969 7.18945312 0.04882812 C9.18753131 0.06065107 11.18557158 0.07858711 13.18359375 0.09765625 C13.21043687 2.91021906 13.23035563 5.72252866 13.24609375 8.53515625 C13.25447266 9.33759766 13.26285156 10.14003906 13.27148438 10.96679688 C13.28010805 13.01060846 13.23587525 15.05449527 13.18359375 17.09765625 C11.36243372 18.91881628 8.87687611 18.23000705 6.45703125 18.234375 C5.70679687 18.23050781 4.9565625 18.22664063 4.18359375 18.22265625 C3.05824219 18.22845703 3.05824219 18.22845703 1.91015625 18.234375 C-3.68979572 18.22426678 -3.68979572 18.22426678 -4.81640625 17.09765625 C-4.91621839 14.42034245 -4.955205 11.7746145 -4.94140625 9.09765625 C-4.94527344 8.34742187 -4.94914062 7.5971875 -4.953125 6.82421875 C-4.94103514 0.12643386 -4.94103514 0.12643386 0 0 Z M-1.25390625 3.72265625 C-3.31432396 6.85449117 -3.49316075 8.41310398 -2.81640625 12.09765625 C-0.83674362 15.16073256 -0.83674362 15.16073256 2.18359375 17.09765625 C5.84801291 17.17244031 7.5827426 16.52457681 10.55859375 14.41015625 C12.69777126 11.3659421 12.79176421 9.74667903 12.18359375 6.09765625 C10.74698064 3.57758781 10.74698064 3.57758781 8.18359375 2.09765625 C4.20871758 1.5298168 2.11870154 1.47425106 -1.25390625 3.72265625 Z " fill="#4AC1EF" transform="translate(109.81640625,95.90234375)"/>
<path d="M0 0 C1.93166016 0.01740234 1.93166016 0.01740234 3.90234375 0.03515625 C5.19269531 0.04417969 6.48304687 0.05320312 7.8125 0.0625 C8.81152344 0.07410156 9.81054688 0.08570312 10.83984375 0.09765625 C8.58984375 2.59765625 8.58984375 2.59765625 5.83984375 5.09765625 C4.51984375 5.09765625 3.19984375 5.09765625 1.83984375 5.09765625 C1.50984375 6.74765625 1.17984375 8.39765625 0.83984375 10.09765625 C3.31484375 12.07765625 3.31484375 12.07765625 5.83984375 14.09765625 C6.16984375 13.10765625 6.49984375 12.11765625 6.83984375 11.09765625 C6.50984375 12.74765625 6.17984375 14.39765625 5.83984375 16.09765625 C2.53984375 16.09765625 -0.76015625 16.09765625 -4.16015625 16.09765625 C-4.1870072 13.61841824 -4.20692172 11.13946785 -4.22265625 8.66015625 C-4.23522461 7.59958008 -4.23522461 7.59958008 -4.24804688 6.51757812 C-4.25669213 4.71072066 -4.21235636 2.90378022 -4.16015625 1.09765625 C-3.16015625 0.09765625 -3.16015625 0.09765625 0 0 Z " fill="#40A8E5" transform="translate(37.16015625,85.90234375)"/>
<path d="M0 0 C5.61 0 11.22 0 17 0 C17 2.64 17 5.28 17 8 C11.39 8 5.78 8 0 8 C0 5.36 0 2.72 0 0 Z " fill="#3F4894" transform="translate(15,43)"/>
<path d="M0 0 C1.81242052 -0.02687279 3.62495233 -0.04633715 5.4375 -0.0625 C6.44683594 -0.07410156 7.45617187 -0.08570313 8.49609375 -0.09765625 C11 0 11 0 12 1 C12.07205511 2.68608966 12.08386068 4.37500659 12.0625 6.0625 C12.05347656 6.98160156 12.04445312 7.90070312 12.03515625 8.84765625 C12.02355469 9.55792969 12.01195312 10.26820312 12 11 C6.60608519 10.58508348 4.73094162 9.73094162 1 6 C-2.167832 5.66551741 -2.167832 5.66551741 -5 6 C-5 5.34 -5 4.68 -5 4 C-3.35 3.67 -1.7 3.34 0 3 C0 2.01 0 1.02 0 0 Z " fill="#38D3D4" transform="translate(123,33)"/>
<path d="M0 0 C0.66 0 1.32 0 2 0 C2.33 2.31 2.66 4.62 3 7 C5.97 7.33 8.94 7.66 12 8 C11.67 8.99 11.34 9.98 11 11 C10.34 11 9.68 11 9 11 C9 11.99 9 12.98 9 14 C8.34 14 7.68 14 7 14 C7 14.66 7 15.32 7 16 C6.01 16 5.02 16 4 16 C3.67 16.66 3.34 17.32 3 18 C1.68 18 0.36 18 -1 18 C-1.02717692 15.93757383 -1.0464758 13.87504297 -1.0625 11.8125 C-1.07410156 10.66394531 -1.08570312 9.51539062 -1.09765625 8.33203125 C-1.01192832 5.40699414 -0.67849023 2.83683709 0 0 Z " fill="#6C73FE" transform="translate(103,106)"/>
<path d="M0 0 C2.875 1 2.875 1 4.25 3.0625 C4.45625 3.701875 4.6625 4.34125 4.875 5 C6.525 5 8.175 5 9.875 5 C9.875 5.99 9.875 6.98 9.875 8 C2.615 8 -4.645 8 -12.125 8 C-11.795 7.01 -11.465 6.02 -11.125 5 C-10.526875 4.855625 -9.92875 4.71125 -9.3125 4.5625 C-6.9166207 4.1646438 -6.9166207 4.1646438 -5.25 1.875 C-3.125 0 -3.125 0 0 0 Z " fill="#F8FDFD" transform="translate(123.125,38)"/>
<path d="M0 0 C0.66 0 1.32 0 2 0 C2 4.29 2 8.58 2 13 C-1.3 13 -4.6 13 -8 13 C-8.33 12.34 -8.66 11.68 -9 11 C-7.68 10.01 -6.36 9.02 -5 8 C-5.33 7.01 -5.66 6.02 -6 5 C-7.65 5 -9.3 5 -11 5 C-11 4.67 -11 4.34 -11 4 C-9.02 3.67 -7.04 3.34 -5 3 C-7.97 2.505 -7.97 2.505 -11 2 C-11 1.67 -11 1.34 -11 1 C-7.37 1 -3.74 1 0 1 C0 0.67 0 0.34 0 0 Z " fill="#758DFE" transform="translate(113,69)"/>
<path d="M0 0 C6.27 0 12.54 0 19 0 C17.97123955 3.08628136 17.43984498 3.99584162 15 6 C13.34183216 6.68753301 11.67540664 7.35561283 10 8 C9.34 8.66 8.68 9.32 8 10 C7.01 9.67 6.02 9.34 5 9 C6.32 7.68 7.64 6.36 9 5 C8.01 4.34 7.02 3.68 6 3 C5.731875 3.598125 5.46375 4.19625 5.1875 4.8125 C4.00912025 6.98319954 2.85454914 8.38734857 1 10 C0.67 10 0.34 10 0 10 C0 6.7 0 3.4 0 0 Z " fill="#5E4AFA" transform="translate(102,86)"/>
<path d="M0 0 C6.93 0 13.86 0 21 0 C20.67 0.66 20.34 1.32 20 2 C19.01 2.33 18.02 2.66 17 3 C17 3.66 17 4.32 17 5 C9.74 5 2.48 5 -5 5 C-4.67 4.01 -4.34 3.02 -4 2 C-3.01 2 -2.02 2 -1 2 C-0.67 1.34 -0.34 0.68 0 0 Z " fill="#655BFE" transform="translate(45,81)"/>
<path d="M0 0 C1.32 0 2.64 0 4 0 C4 5.61 4 11.22 4 17 C4.99 17 5.98 17 7 17 C7 18.65 7 20.3 7 22 C4.69 22 2.38 22 0 22 C0 14.74 0 7.48 0 0 Z " fill="#41448E" transform="translate(26,80)"/>
<path d="M0 0 C1.32 0.66 2.64 1.32 4 2 C3.67 2.99 3.34 3.98 3 5 C3.66 5 4.32 5 5 5 C4.34 7.31 3.68 9.62 3 12 C-2.94 12 -8.88 12 -15 12 C-15.33 11.01 -15.66 10.02 -16 9 C-14.20909747 8.80533668 -12.41723495 8.61948787 -10.625 8.4375 C-9.12839844 8.28087891 -9.12839844 8.28087891 -7.6015625 8.12109375 C-5 8 -5 8 -3 9 C-2.01 6.03 -1.02 3.06 0 0 Z " fill="#40D8CD" transform="translate(49,93)"/>
<path d="M0 0 C2.31 0 4.62 0 7 0 C7.05422947 1.4370809 7.09289723 2.87475462 7.125 4.3125 C7.14820312 5.11300781 7.17140625 5.91351563 7.1953125 6.73828125 C7 9 7 9 5 12 C4.34 12 3.68 12 3 12 C2.67 13.65 2.34 15.3 2 17 C1.34 17 0.68 17 0 17 C0 11.39 0 5.78 0 0 Z " fill="#6C73FE" transform="translate(98,54)"/>
<path d="M0 0 C13.53 0 27.06 0 41 0 C41.495 0.99 41.495 0.99 42 2 C28.8 2 15.6 2 2 2 C2 2.66 2 3.32 2 4 C1.01 4 0.02 4 -1 4 C-0.67 2.68 -0.34 1.36 0 0 Z " fill="#33CCD9" transform="translate(42,45)"/>
<path d="M0 0 C5.94 0 11.88 0 18 0 C18 3 18 3 17 5 C11.39 5 5.78 5 0 5 C0 3.35 0 1.7 0 0 Z " fill="#34ACC5" transform="translate(98,49)"/>
<path d="M0 0 C5.45454545 0.45454545 5.45454545 0.45454545 8 3 C8.33015665 6.10347254 8.50531294 8.15781176 6.875 10.875 C4.21965017 12.4682099 2.03210482 12.20214032 -1 12 C-1.33 11.34 -1.66 10.68 -2 10 C-0.68 10 0.64 10 2 10 C2.66 8.68 3.32 7.36 4 6 C3.1028125 6.2784375 3.1028125 6.2784375 2.1875 6.5625 C0 7 0 7 -3 6 C-2.42655063 3.13275314 -2.1385485 2.1385485 0 0 Z " fill="#46D8D7" transform="translate(112,99)"/>
<path d="M0 0 C2.64 0 5.28 0 8 0 C8 4.62 8 9.24 8 14 C6.02 14.33 4.04 14.66 2 15 C2 14.34 2 13.68 2 13 C2.99 13 3.98 13 5 13 C5 11.68 5 10.36 5 9 C4.01 9 3.02 9 2 9 C0.50178941 5.62902617 0 3.79557881 0 0 Z " fill="#3DB5D9" transform="translate(26,59)"/>
<path d="M0 0 C1.32 0 2.64 0 4 0 C4 6.6 4 13.2 4 20 C2.68 19.67 1.36 19.34 0 19 C0 12.73 0 6.46 0 0 Z " fill="#3E3E8B" transform="translate(115,63)"/>
<path d="M0 0 C1.67542976 0.28604898 3.34385343 0.61781233 5 1 C5.97477898 4.72188336 6.12816587 6.64248468 4.8125 10.3125 C3 13 3 13 0.88671875 13.66796875 C0.26410156 13.77753906 -0.35851562 13.88710938 -1 14 C-1.02685938 11.85423363 -1.04633088 9.70837355 -1.0625 7.5625 C-1.07410156 6.36753906 -1.08570312 5.17257813 -1.09765625 3.94140625 C-1 1 -1 1 0 0 Z " fill="#32C6E0" transform="translate(106,33)"/>
<path d="M0 0 C8.58 0 17.16 0 26 0 C25.67 0.99 25.34 1.98 25 3 C17.08 3 9.16 3 1 3 C0.67 2.01 0.34 1.02 0 0 Z " fill="#4C4CA0" transform="translate(101,124)"/>
<path d="M0 0 C0.66 0 1.32 0 2 0 C2 5.94 2 11.88 2 18 C-4.6 18 -11.2 18 -18 18 C-18.33 17.01 -18.66 16.02 -19 15 C-12.73 15.33 -6.46 15.66 0 16 C0 10.72 0 5.44 0 0 Z " fill="#35DBC7" transform="translate(32,35)"/>
<path d="M0 0 C0.99 0 1.98 0 3 0 C3.02685938 2.14576637 3.04633088 4.29162645 3.0625 6.4375 C3.07410156 7.63246094 3.08570312 8.82742187 3.09765625 10.05859375 C3 13 3 13 2 14 C-0.69654854 14.07319621 -3.36691458 14.09242537 -6.0625 14.0625 C-7.20041992 14.05573242 -7.20041992 14.05573242 -8.36132812 14.04882812 C-10.24091871 14.0370068 -12.12046899 14.01907078 -14 14 C-14.33 12.35 -14.66 10.7 -15 9 C-14.01 8.67 -13.02 8.34 -12 8 C-11.505 8.680625 -11.01 9.36125 -10.5 10.0625 C-8.25732688 12.19795864 -8.25732688 12.19795864 -5.953125 12.04296875 C-3.95610564 11.77740767 -1.97547682 11.39509536 0 11 C0.19491452 9.54263913 0.38069358 8.08405407 0.5625 6.625 C0.66691406 5.81289062 0.77132812 5.00078125 0.87890625 4.1640625 C1.18237328 1.95100814 1.18237328 1.95100814 0 0 Z " fill="#42D5DD" transform="translate(120,100)"/>
<path d="M0 0 C1.32 0.99 2.64 1.98 4 3 C3.01 3 2.02 3 1 3 C1 4.98 1 6.96 1 9 C2.97536745 8.65213292 2.97536745 8.65213292 5 8 C5.33 7.34 5.66 6.68 6 6 C6.99 6 7.98 6 9 6 C9 6.66 9 7.32 9 8 C8.34 8 7.68 8 7 8 C7 9.65 7 11.3 7 13 C4.36 13 1.72 13 -1 13 C-1.33 11.35 -1.66 9.7 -2 8 C-2.66 8 -3.32 8 -4 8 C-4 7.01 -4 6.02 -4 5 C-3.34 5 -2.68 5 -2 5 C-2 3.68 -2 2.36 -2 1 C-1.34 0.67 -0.68 0.34 0 0 Z " fill="#F2FAFC" transform="translate(21,63)"/>
<path d="M0 0 C0.99 0.33 1.98 0.66 3 1 C3.02685095 3.47923801 3.04676547 5.9581884 3.0625 8.4375 C3.07087891 9.14455078 3.07925781 9.85160156 3.08789062 10.58007812 C3.09653588 12.38693559 3.05220011 14.19387603 3 16 C2 17 2 17 -0.28515625 17.09765625 C-1.65994141 17.08025391 -1.65994141 17.08025391 -3.0625 17.0625 C-3.98160156 17.05347656 -4.90070313 17.04445313 -5.84765625 17.03515625 C-6.55792969 17.02355469 -7.26820312 17.01195313 -8 17 C-7.67 16.34 -7.34 15.68 -7 15 C-4.69 15 -2.38 15 0 15 C0 10.05 0 5.1 0 0 Z " fill="#36DEC3" transform="translate(95,63)"/>
<path d="M0 0 C0.08075665 2.29109597 0.13907731 4.58299267 0.1875 6.875 C0.22230469 8.15117188 0.25710937 9.42734375 0.29296875 10.7421875 C0.19628906 11.81726563 0.09960938 12.89234375 0 14 C-0.99 14.66 -1.98 15.32 -3 16 C-4.60725635 12.78548731 -4.05748185 9.56387464 -4 6 C-4.66 5.67 -5.32 5.34 -6 5 C-5.67 4.34 -5.34 3.68 -5 3 C-5.99 2.67 -6.98 2.34 -8 2 C-2.25 0 -2.25 0 0 0 Z " fill="#6C71FE" transform="translate(127,90)"/>
<path d="M0 0 C2.31 0 4.62 0 7 0 C7 1.65 7 3.3 7 5 C3.37 5 -0.26 5 -4 5 C-4 6.65 -4 8.3 -4 10 C-5.32 10 -6.64 10 -8 10 C-8 8.02 -8 6.04 -8 4 C-5.36 4 -2.72 4 0 4 C0 2.68 0 1.36 0 0 Z " fill="#3C408C" transform="translate(34,49)"/>
<path d="M0 0 C0.66 0 1.32 0 2 0 C2.33 0.66 2.66 1.32 3 2 C3.33 1.34 3.66 0.68 4 0 C4.66 0 5.32 0 6 0 C6.66 2.64 7.32 5.28 8 8 C6.02 8.99 6.02 8.99 4 10 C4.33 8.68 4.66 7.36 5 6 C4.01 5.67 3.02 5.34 2 5 C1.01 7.64 0.02 10.28 -1 13 C-1.66 13 -2.32 13 -3 13 C-2.52060632 8.28596212 -2.03165952 4.33420699 0 0 Z " fill="#D8F2F6" transform="translate(47,89)"/>
<path d="M0 0 C1.24716797 0.00322266 2.49433594 0.00644531 3.77929688 0.00976562 C5.07287109 0.01814453 6.36644531 0.02652344 7.69921875 0.03515625 C9.66858398 0.04192383 9.66858398 0.04192383 11.67773438 0.04882812 C14.91410885 0.06059676 18.15039053 0.07703865 21.38671875 0.09765625 C21.05671875 0.75765625 20.72671875 1.41765625 20.38671875 2.09765625 C19.73074707 2.11747559 19.07477539 2.13729492 18.39892578 2.15771484 C15.43610806 2.25278132 12.47401343 2.36253377 9.51171875 2.47265625 C7.96291016 2.5190625 7.96291016 2.5190625 6.3828125 2.56640625 C4.90361328 2.62441406 4.90361328 2.62441406 3.39453125 2.68359375 C2.4833252 2.71501465 1.57211914 2.74643555 0.63330078 2.77880859 C-1.81259311 2.89648136 -1.81259311 2.89648136 -3.61328125 5.09765625 C-6.34197532 5.06478042 -8.90994305 4.53367854 -11.61328125 4.09765625 C-11.61328125 3.10765625 -11.61328125 2.11765625 -11.61328125 1.09765625 C-7.68039761 0.16677716 -4.03673962 -0.0184326 0 0 Z " fill="#D9D9E8" transform="translate(106.61328125,125.90234375)"/>
<path d="M0 0 C0.66 0.33 1.32 0.66 2 1 C2 3.31 2 5.62 2 8 C-2.62 8 -7.24 8 -12 8 C-11.67 7.34 -11.34 6.68 -11 6 C-9.125 5.4375 -9.125 5.4375 -7 5 C-6.01 4.67 -5.02 4.34 -4 4 C-4 3.34 -4 2.68 -4 2 C-2.125 0.9375 -2.125 0.9375 0 0 Z " fill="#35D8C6" transform="translate(32,72)"/>
<path d="M0 0 C0.99 0.33 1.98 0.66 3 1 C3 2.32 3 3.64 3 5 C3.99 5 4.98 5 6 5 C6 6.32 6 7.64 6 9 C5.01 8.67 4.02 8.34 3 8 C3.66 8 4.32 8 5 8 C5 7.34 5 6.68 5 6 C4.01 6 3.02 6 2 6 C1.34 7.32 0.68 8.64 0 10 C-1.32 9.67 -2.64 9.34 -4 9 C-3.38461538 3.46153846 -3.38461538 3.46153846 -1.4375 1.125 C-0.963125 0.75375 -0.48875 0.3825 0 0 Z " fill="#CAEFF3" transform="translate(25,63)"/>
<path d="M0 0 C3.375 -0.1875 3.375 -0.1875 7 0 C7.66 0.99 8.32 1.98 9 3 C8.01 3.33 7.02 3.66 6 4 C5.2575 5.2375 5.2575 5.2375 4.5 6.5 C3 9 3 9 0 10 C0 6.7 0 3.4 0 0 Z " fill="#5934FF" transform="translate(102,86)"/>
<path d="M0 0 C1.23556641 0.01740234 1.23556641 0.01740234 2.49609375 0.03515625 C3.32238281 0.04417969 4.14867187 0.05320312 5 0.0625 C5.63808594 0.07410156 6.27617188 0.08570312 6.93359375 0.09765625 C6.60359375 0.75765625 6.27359375 1.41765625 5.93359375 2.09765625 C5.27359375 2.09765625 4.61359375 2.09765625 3.93359375 2.09765625 C3.93359375 2.75765625 3.93359375 3.41765625 3.93359375 4.09765625 C2.12109375 6.22265625 2.12109375 6.22265625 -0.06640625 8.09765625 C-1.05640625 8.09765625 -2.04640625 8.09765625 -3.06640625 8.09765625 C-3.10882348 5.7647085 -3.10733562 3.43063058 -3.06640625 1.09765625 C-2.06640625 0.09765625 -2.06640625 0.09765625 0 0 Z " fill="#3F9BE9" transform="translate(36.06640625,85.90234375)"/>
<path d="M0 0 C5.41538462 -0.36923077 5.41538462 -0.36923077 8.375 1.5 C8.91125 1.995 9.4475 2.49 10 3 C10.33 2.01 10.66 1.02 11 0 C10.67 1.65 10.34 3.3 10 5 C6.7 5 3.4 5 0 5 C0 3.35 0 1.7 0 0 Z " fill="#34ADC6" transform="translate(33,97)"/>
<path d="M0 0 C1.65 0.33 3.3 0.66 5 1 C5.36923077 6.53846154 5.36923077 6.53846154 3.5 8.875 C2.7575 9.431875 2.7575 9.431875 2 10 C1.01 9.67 0.02 9.34 -1 9 C-0.67 6.03 -0.34 3.06 0 0 Z " fill="#3DC8D4" transform="translate(55,86)"/>
<path d="M0 0 C3.0625 0.25 3.0625 0.25 6 1 C6.33 1.66 6.66 2.32 7 3 C4.8125 5.0625 4.8125 5.0625 2 7 C-0.8125 6.75 -0.8125 6.75 -3 6 C-2.42655063 3.13275314 -2.1385485 2.1385485 0 0 Z " fill="#41CDE7" transform="translate(112,99)"/>
<path d="M0 0 C3.3 0 6.6 0 10 0 C9 2 9 2 6.5 2.875 C5.675 3.24625 4.85 3.6175 4 4 C3.34786708 6.02463255 3.34786708 6.02463255 3 8 C2.01 8.33 1.02 8.66 0 9 C0 6.03 0 3.06 0 0 Z " fill="#3EBBDD" transform="translate(105,54)"/>
<path d="M0 0 C0.66 0 1.32 0 2 0 C2 2.33333333 2 4.66666667 2 7 C2.165 7.825 2.33 8.65 2.5 9.5 C3 12 3 12 3 14 C1.68 13.67 0.36 13.34 -1 13 C-1.22162329 11.37675914 -1.42689803 9.751279 -1.625 8.125 C-1.74101563 7.22007813 -1.85703125 6.31515625 -1.9765625 5.3828125 C-1.98429687 4.59648438 -1.99203125 3.81015625 -2 3 C-1.34 2.34 -0.68 1.68 0 1 C0 0.67 0 0.34 0 0 Z " fill="#38C1C7" transform="translate(116,49)"/>
<path d="M0 0 C0.66 0 1.32 0 2 0 C2 1.32 2 2.64 2 4 C-1.01490557 5.00496852 -3.04181692 5.10335303 -6.1875 5.0625 C-7.53908203 5.04896484 -7.53908203 5.04896484 -8.91796875 5.03515625 C-9.60503906 5.02355469 -10.29210937 5.01195313 -11 5 C-11 4.67 -11 4.34 -11 4 C-9.02 3.67 -7.04 3.34 -5 3 C-7.97 2.505 -7.97 2.505 -11 2 C-11 1.67 -11 1.34 -11 1 C-7.37 1 -3.74 1 0 1 C0 0.67 0 0.34 0 0 Z " fill="#87A1FE" transform="translate(113,69)"/>
<path d="M0 0 C0.99 0 1.98 0 3 0 C3.08121924 1.60332791 3.13929134 3.20784026 3.1875 4.8125 C3.23970703 6.15248047 3.23970703 6.15248047 3.29296875 7.51953125 C3 10 3 10 0 13 C0 8.71 0 4.42 0 0 Z " fill="#3B96D8" transform="translate(41,49)"/>
<path d="M0 0 C2.31 0 4.62 0 7 0 C7 1.65 7 3.3 7 5 C4.69 5 2.38 5 0 5 C0 3.35 0 1.7 0 0 Z " fill="#3C3E8A" transform="translate(98,49)"/>
<path d="M0 0 C0.99 0 1.98 0 3 0 C3.02685938 2.14576637 3.04633088 4.29162645 3.0625 6.4375 C3.07410156 7.63246094 3.08570312 8.82742187 3.09765625 10.05859375 C3 13 3 13 2 14 C0.33382885 14.04063832 -1.33388095 14.042721 -3 14 C-2.67 13.01 -2.34 12.02 -2 11 C-1.34 11 -0.68 11 0 11 C0.19491452 9.54263913 0.38069358 8.08405407 0.5625 6.625 C0.66691406 5.81289062 0.77132812 5.00078125 0.87890625 4.1640625 C1.18237328 1.95100814 1.18237328 1.95100814 0 0 Z " fill="#3ADBCA" transform="translate(120,100)"/>
<path d="M0 0 C4.62 0 9.24 0 14 0 C14.33 1.32 14.66 2.64 15 4 C14.01 4 13.02 4 12 4 C12 3.34 12 2.68 12 2 C8.37 2 4.74 2 1 2 C0.67 1.34 0.34 0.68 0 0 Z " fill="#56DAD4" transform="translate(83,45)"/>
<path d="M0 0 C0 2.97 0 5.94 0 9 C-1.98 9.33 -3.96 9.66 -6 10 C-6 9.34 -6 8.68 -6 8 C-5.01 8 -4.02 8 -3 8 C-3 6.68 -3 5.36 -3 4 C-3.99 3.67 -4.98 3.34 -6 3 C-1.125 0 -1.125 0 0 0 Z " fill="#39C8D1" transform="translate(34,64)"/>
<path d="M0 0 C0.66 0.66 1.32 1.32 2 2 C-1.82989106 3.80230168 -4.78121808 4.19622241 -9 4 C-9.33 3.01 -9.66 2.02 -10 1 C-8.37675914 0.77837671 -6.751279 0.57310197 -5.125 0.375 C-4.22007813 0.25898437 -3.31515625 0.14296875 -2.3828125 0.0234375 C-1.59648438 0.01570313 -0.81015625 0.00796875 0 0 Z " fill="#4FD1D9" transform="translate(43,101)"/>
<path d="M0 0 C0.66 2.64 1.32 5.28 2 8 C0.02 8.99 0.02 8.99 -2 10 C-1.67 8.68 -1.34 7.36 -1 6 C-2.32 5.67 -3.64 5.34 -5 5 C-5 3 -5 3 -3.625 1.375 C-2 0 -2 0 0 0 Z " fill="#9EE1EB" transform="translate(53,89)"/>
<path d="M0 0 C0.33 0.66 0.66 1.32 1 2 C4.62528568 2.20140476 6.86501708 1.85776765 10 0 C8.3125 3 8.3125 3 6 6 C3.25 6.375 3.25 6.375 1 6 C0.67 4.02 0.34 2.04 0 0 Z " fill="#98E3EE" transform="translate(108,103)"/>
<path d="M0 0 C2 2 2 2 2.125 5.125 C2.08375 6.07375 2.0425 7.0225 2 8 C1.34 8 0.68 8 0 8 C0 8.66 0 9.32 0 10 C-0.66 10 -1.32 10 -2 10 C-2.1953125 3.9453125 -2.1953125 3.9453125 -2 2 C-1.34 1.34 -0.68 0.68 0 0 Z " fill="#7080FE" transform="translate(125,102)"/>
<path d="M0 0 C0 2.64 0 5.28 0 8 C-0.763125 7.38125 -1.52625 6.7625 -2.3125 6.125 C-4.99625809 3.94402948 -4.99625809 3.94402948 -8 2 C-2.25 0 -2.25 0 0 0 Z " fill="#6865FF" transform="translate(127,90)"/>
<path d="M0 0 C0.66 0 1.32 0 2 0 C2 3.63 2 7.26 2 11 C1.01 11 0.02 11 -1 11 C-0.67 7.37 -0.34 3.74 0 0 Z " fill="#6761FF" transform="translate(103,106)"/>
<path d="M0 0 C1.32 0 2.64 0 4 0 C4 1.65 4 3.3 4 5 C2.68 5.33 1.36 5.66 0 6 C-0.38218767 4.34385343 -0.71395102 2.67542976 -1 1 C-0.67 0.67 -0.34 0.34 0 0 Z " fill="#3FCDDB" transform="translate(22,67)"/>
<path d="M0 0 C0.66 0 1.32 0 2 0 C2 1.65 2 3.3 2 5 C2.66 5.33 3.32 5.66 4 6 C3.01 7.485 3.01 7.485 2 9 C-1.875 7.25 -1.875 7.25 -3 5 C-2.01 5 -1.02 5 0 5 C0 3.35 0 1.7 0 0 Z " fill="#EFFAFA" transform="translate(119,49)"/>
<path d="M0 0 C0.66 0 1.32 0 2 0 C2 2.64 2 5.28 2 8 C1.34 8 0.68 8 0 8 C0 7.01 0 6.02 0 5 C-2.31 5 -4.62 5 -7 5 C-7 4.67 -7 4.34 -7 4 C-5.02 3.67 -3.04 3.34 -1 3 C-0.67 2.01 -0.34 1.02 0 0 Z " fill="#73D6E3" transform="translate(13,42)"/>
<path d="M0 0 C1.32 0.66 2.64 1.32 4 2 C3.67 2.99 3.34 3.98 3 5 C3.66 5 4.32 5 5 5 C4.67 5.99 4.34 6.98 4 8 C3.01 7.67 2.02 7.34 1 7 C1 6.01 1 5.02 1 4 C0.34 4 -0.32 4 -1 4 C-0.67 2.68 -0.34 1.36 0 0 Z " fill="#51CFD9" transform="translate(49,93)"/>
<path d="M0 0 C1.65 0 3.3 0 5 0 C5 1.98 5 3.96 5 6 C5.66 6 6.32 6 7 6 C6.67 6.66 6.34 7.32 6 8 C5.34 7.67 4.68 7.34 4 7 C4 5.35 4 3.7 4 2 C3.34 2 2.68 2 2 2 C2 3.65 2 5.3 2 7 C1.67 7 1.34 7 1 7 C0.67 4.69 0.34 2.38 0 0 Z " fill="#7ADDE0" transform="translate(117,47)"/>
<path d="M0 0 C2.97 0 5.94 0 9 0 C8.67 0.66 8.34 1.32 8 2 C5.35139573 2.59355614 2.70802678 2.74209269 0 3 C0 2.01 0 1.02 0 0 Z " fill="#4A93EC" transform="translate(34,86)"/>
<path d="M0 0 C3.3 0 6.6 0 10 0 C10 0.33 10 0.66 10 1 C7.36 1.33 4.72 1.66 2 2 C2 2.66 2 3.32 2 4 C1.01 4 0.02 4 -1 4 C-0.67 2.68 -0.34 1.36 0 0 Z " fill="#46AFF5" transform="translate(106,96)"/>
<path d="M0 0 C3.63 0.33 7.26 0.66 11 1 C9 3 9 3 7.0546875 3.1953125 C5.03645833 3.13020833 3.01822917 3.06510417 1 3 C0.67 2.01 0.34 1.02 0 0 Z " fill="#33D4CF" transform="translate(13,50)"/>
<path d="M0 0 C0.99 0 1.98 0 3 0 C2.67 2.97 2.34 5.94 2 9 C1.34 9 0.68 9 0 9 C0 6.03 0 3.06 0 0 Z " fill="#42BEF1" transform="translate(105,100)"/>
<path d="M0 0 C0.99 0 1.98 0 3 0 C3 0.99 3 1.98 3 3 C3.66 3.33 4.32 3.66 5 4 C4 5 4 5 1.4375 5.0625 C0.2309375 5.0315625 0.2309375 5.0315625 -1 5 C-0.67 3.35 -0.34 1.7 0 0 Z " fill="#35C1C5" transform="translate(47,97)"/>
<path d="M0 0 C1.32 0.99 2.64 1.98 4 3 C3.01 3 2.02 3 1 3 C0.67 4.65 0.34 6.3 0 8 C-2 5 -2 5 -2 1 C-1.34 0.67 -0.68 0.34 0 0 Z " fill="#E5F6F9" transform="translate(21,63)"/>
<path d="M0 0 C0.33 0 0.66 0 1 0 C1.66 2.31 2.32 4.62 3 7 C1.35 6.67 -0.3 6.34 -2 6 C-2 4.68 -2 3.36 -2 2 C-1.34 2 -0.68 2 0 2 C0 1.34 0 0.68 0 0 Z " fill="#3EACE2" transform="translate(43,73)"/>
<path d="M0 0 C0.33 0 0.66 0 1 0 C1.1875 3.375 1.1875 3.375 1 7 C0.01 7.66 -0.98 8.32 -2 9 C-2.25 3.375 -2.25 3.375 0 0 Z " fill="#409AE9" transform="translate(43,59)"/>
<path d="M0 0 C0 1.32 0 2.64 0 4 C-1.65 3.67 -3.3 3.34 -5 3 C-5 2.34 -5 1.68 -5 1 C-3 0 -3 0 0 0 Z " fill="#3FCCE4" transform="translate(123,96)"/>
<path d="M0 0 C0 0.99 0 1.98 0 3 C0.3062434 4.33981486 0.63451555 5.67511887 1 7 C-0.32 6.34 -1.64 5.68 -3 5 C-3 4.01 -3 3.02 -3 2 C-2.01 1.34 -1.02 0.68 0 0 Z " fill="#E8F5F9" transform="translate(41,92)"/>
<path d="M0 0 C1.32 0 2.64 0 4 0 C3.67 1.65 3.34 3.3 3 5 C2.01 4.67 1.02 4.34 0 4 C0 2.68 0 1.36 0 0 Z " fill="#34ABC5" transform="translate(26,59)"/>
<path d="M0 0 C2 1 2 1 2 1 Z " fill="#ECEDF4" transform="translate(6,52)"/>
</svg>
