<?xml version="1.0" encoding="UTF-8"?>
<svg version="1.1" xmlns="http://www.w3.org/2000/svg" width="150" height="150">
<path d="M0 0 C4.95 0.495 4.95 0.495 10 1 C10.061875 1.94875 10.12375 2.8975 10.1875 3.875 C10.65715211 7.15510282 10.65715211 7.15510282 13.3125 8.4375 C16.02911288 9.00609339 17.43017905 8.95178554 20 8 C23 12.75 23 12.75 23 15 C23.85464844 14.98839844 24.70929688 14.97679687 25.58984375 14.96484375 C26.69457031 14.95582031 27.79929687 14.94679688 28.9375 14.9375 C30.03964844 14.92589844 31.14179688 14.91429687 32.27734375 14.90234375 C35 15 35 15 36 16 C36.08713831 17.70772358 36.10700007 19.41898649 36.09765625 21.12890625 C36.09443359 22.16337891 36.09121094 23.19785156 36.08789062 24.26367188 C36.07951172 25.35228516 36.07113281 26.44089844 36.0625 27.5625 C36.05798828 28.65498047 36.05347656 29.74746094 36.04882812 30.87304688 C36.03699826 33.58208495 36.02051543 36.29101599 36 39 C36.66 39 37.32 39 38 39 C38.061875 39.61875 38.12375 40.2375 38.1875 40.875 C38.828919 43.27761141 38.828919 43.27761141 41.5625 44.25 C42.366875 44.4975 43.17125 44.745 44 45 C44 46.32 44 47.64 44 49 C43.34 49 42.68 49 42 49 C41.67 50.65 41.34 52.3 41 54 C41.66 54 42.32 54 43 54 C42.34 55.65 41.68 57.3 41 59 C38.69 58.67 36.38 58.34 34 58 C34 58.99 34 59.98 34 61 C32.35 61 30.7 61 29 61 C28.01 58.525 28.01 58.525 27 56 C25.68 56 24.36 56 23 56 C21.84162374 51.94568308 22.16308743 49.78187881 24 46 C22.02 45.505 22.02 45.505 20 45 C20 51.6 20 58.2 20 65 C22.31 65 24.62 65 27 65 C28 66 28 66 28.11352539 69.96899414 C28.1133662 71.74105607 28.10766785 73.5131226 28.09765625 75.28515625 C28.0962413 76.21597519 28.09482635 77.14679413 28.09336853 78.1058197 C28.08775172 81.09141191 28.0751964 84.07693029 28.0625 87.0625 C28.05748716 89.08137913 28.05292388 91.10025943 28.04882812 93.11914062 C28.03777683 98.07945572 28.02050095 103.03971532 28 108 C30.31 108.66 32.62 109.32 35 110 C34 112 34 112 32.34521484 112.61450195 C27.49200924 113.41225457 22.54404055 113.18590312 17.63769531 113.18530273 C15.63863013 113.18748512 13.63960468 113.20599143 11.640625 113.22460938 C10.36960937 113.22654297 9.09859375 113.22847656 7.7890625 113.23046875 C6.63100098 113.23457764 5.47293945 113.23868652 4.27978516 113.24291992 C0.88689046 112.99162245 -1.83332989 112.21173908 -5 111 C-4.67 110.34 -4.34 109.68 -4 109 C-1.4375 108.375 -1.4375 108.375 1 108 C0.32142944 107.99191315 -0.35714111 107.98382629 -1.05627441 107.97549438 C-8.19572947 107.88863335 -15.33493245 107.7891071 -22.47412109 107.68261719 C-25.12938188 107.64363425 -27.7845665 107.60971702 -30.43994141 107.578125 C-69.83630137 107.1036487 -69.83630137 107.1036487 -76 103 C-76.75 100.375 -76.75 100.375 -77 98 C-80.153368 97.29925156 -82.72724974 97 -86 97 C-87.75 94.5 -87.75 94.5 -89 92 C-88.484375 91.5875 -87.96875 91.175 -87.4375 90.75 C-85.76446258 89.11863842 -85.76446258 89.11863842 -86.125 87 C-87.09056431 84.79299586 -88.19372753 83.57067171 -90 82 C-89.01 80.02 -88.02 78.04 -87 76 C-86.21625 76.20625 -85.4325 76.4125 -84.625 76.625 C-83.75875 76.74875 -82.8925 76.8725 -82 77 C-79.77810176 74.77810176 -79.07401108 72.91517292 -78 70 C-76.35 70 -74.7 70 -73 70 C-73 68.35 -73 66.7 -73 65 C-79.27 65 -85.54 65 -92 65 C-92 64.34 -92 63.68 -92 63 C-89.03 62.505 -89.03 62.505 -86 62 C-86 61.01 -86 60.02 -86 59 C-87.98 59 -89.96 59 -92 59 C-92 58.34 -92 57.68 -92 57 C-90.02 57 -88.04 57 -86 57 C-86 55.68 -86 54.36 -86 53 C-87.98 53 -89.96 53 -92 53 C-92 52.34 -92 51.68 -92 51 C-90.02 51 -88.04 51 -86 51 C-86 49.68 -86 48.36 -86 47 C-87.98 47 -89.96 47 -92 47 C-92 46.34 -92 45.68 -92 45 C-90.02 45 -88.04 45 -86 45 C-86 44.01 -86 43.02 -86 42 C-87.98 41.67 -89.96 41.34 -92 41 C-92 40.67 -92 40.34 -92 40 C-85.73 40 -79.46 40 -73 40 C-73 38.35 -73 36.7 -73 35 C-79.27 35 -85.54 35 -92 35 C-92 34.67 -92 34.34 -92 34 C-89.525 33.505 -89.525 33.505 -87 33 C-86.67 31.68 -86.34 30.36 -86 29 C-87.98 29 -89.96 29 -92 29 C-92 28.67 -92 28.34 -92 28 C-90.35 27.67 -88.7 27.34 -87 27 C-86.67 25.68 -86.34 24.36 -86 23 C-87.98 23 -89.96 23 -92 23 C-92 22.67 -92 22.34 -92 22 C-90.35 21.67 -88.7 21.34 -87 21 C-86.67 19.68 -86.34 18.36 -86 17 C-87.98 17 -89.96 17 -92 17 C-92 16.67 -92 16.34 -92 16 C-86.11060037 13.95887931 -80.8280285 13.72721958 -74.625 13.8125 C-73.25408203 13.8134668 -73.25408203 13.8134668 -71.85546875 13.81445312 C-65.14064837 13.85935163 -65.14064837 13.85935163 -64 15 C-61.19023482 15.16017166 -58.40226404 15.25950534 -55.58984375 15.31640625 C-54.74780899 15.33718735 -53.90577423 15.35796844 -53.03822327 15.37937927 C-50.33806821 15.44496812 -47.63781283 15.50380276 -44.9375 15.5625 C-43.11131759 15.60567637 -41.28514546 15.64929036 -39.45898438 15.69335938 C-34.97276008 15.80065894 -30.4864345 15.90189966 -26 16 C-26 16.33 -26 16.66 -26 17 C-38.87 17 -51.74 17 -65 17 C-64.67 18.32 -64.34 19.64 -64 21 C-51.46 21.33 -38.92 21.66 -26 22 C-26 22.33 -26 22.66 -26 23 C-38.87 23 -51.74 23 -65 23 C-64.67 24.32 -64.34 25.64 -64 27 C-48.16 27 -32.32 27 -16 27 C-16 26.34 -16 25.68 -16 25 C-15.360625 24.5875 -14.72125 24.175 -14.0625 23.75 C-11.29641768 21.40302106 -11.31288108 19.51991219 -11 16 C-12.65 15.34 -14.3 14.68 -16 14 C-14.68 11.69 -13.36 9.38 -12 7 C-8 7 -8 7 -5 8 C-2.78508786 7.5596445 -2.78508786 7.5596445 -1 6 C-0.18415432 2.94091587 -0.18415432 2.94091587 0 0 Z M-2.9375 14 C-5.21919434 17.31882813 -5.80916383 19.11063227 -5.5546875 23.0625 C-4.4812192 26.81207941 -2.28696911 28.01541488 1 30 C3.63836977 30.1672392 3.63836977 30.1672392 6 30 C6.03738281 29.01257813 6.07476562 28.02515625 6.11328125 27.0078125 C6.17902344 25.72648437 6.24476562 24.44515625 6.3125 23.125 C6.37050781 21.84882812 6.42851563 20.57265625 6.48828125 19.2578125 C6.65714844 18.18273437 6.82601562 17.10765625 7 16 C7.99 15.34 8.98 14.68 10 14 C5.34546238 10.89697492 1.71823853 10.83013547 -2.9375 14 Z M-65 29 C-65 29.66 -65 30.32 -65 31 C-62.69 31 -60.38 31 -58 31 C-58 30.34 -58 29.68 -58 29 C-60.31 29 -62.62 29 -65 29 Z M28 47 C27.6366844 49.83386167 27.6431329 51.40522151 29.125 53.875 C31.92151052 55.55290631 33.93690532 54.74875648 37 54 C37.67673447 50.59679066 37.67673447 50.59679066 38 47 C36.11499729 44.68436913 36.11499729 44.68436913 33 44.75 C29.88500271 44.68436913 29.88500271 44.68436913 28 47 Z M-79.25 80.625 C-81.21985834 82.92308586 -81.21985834 82.92308586 -81.5 86 C-81.21376982 89.06575838 -81.21376982 89.06575838 -79.3125 91.375 C-76.61209763 93.27258004 -75.22939919 93.35882213 -72 93 C-71.85024761 85.94348748 -71.85024761 85.94348748 -73 79 C-76.92212225 78.60967296 -76.92212225 78.60967296 -79.25 80.625 Z M-69 97 C-69 97.99 -69 98.98 -69 100 C-65.68727224 99.85908107 -62.37488029 99.71134606 -59.0625 99.5625 C-58.13630859 99.52318359 -57.21011719 99.48386719 -56.25585938 99.44335938 C-50.46486581 99.17920879 -44.75460497 98.70235691 -39 98 C-38.67 97.01 -38.34 96.02 -38 95 C-42.09338652 94.95060885 -46.18665798 94.91428499 -50.28027344 94.89013672 C-51.67320781 94.88007123 -53.06612102 94.86641766 -54.45898438 94.84912109 C-56.4595436 94.8248978 -58.46025615 94.81459186 -60.4609375 94.8046875 C-61.66540527 94.79421387 -62.86987305 94.78374023 -64.11083984 94.77294922 C-67.12841495 94.69539186 -67.12841495 94.69539186 -69 97 Z M-14 95 C-14 95.99 -14 96.98 -14 98 C-8.72 98.33 -3.44 98.66 2 99 C2 97.68 2 96.36 2 95 C-3.28 95 -8.56 95 -14 95 Z " fill="#5D51FC" transform="translate(99,18)"/>
<path d="M0 0 C2.31 0 4.62 0 7 0 C7 2.97 7 5.94 7 9 C10.3 9 13.6 9 17 9 C17 15.6 17 22.2 17 29 C12.71 29 8.42 29 4 29 C4.495 34.94 4.495 34.94 5 41 C5.66 41 6.32 41 7 41 C7 39.68 7 38.36 7 37 C7.99 36.67 8.98 36.34 10 36 C10.495 35.01 10.495 35.01 11 34 C12.98 34 14.96 34 17 34 C15.25 36.9375 15.25 36.9375 13 40 C11.68 40.33 10.36 40.66 9 41 C15.27 41 21.54 41 28 41 C29.11911712 44.35735137 29.11365586 46.88205386 29.09765625 50.41796875 C29.09282227 52.29838867 29.09282227 52.29838867 29.08789062 54.21679688 C29.07532227 56.18229492 29.07532227 56.18229492 29.0625 58.1875 C29.05748317 59.52278481 29.05292059 60.85807141 29.04882812 62.19335938 C29.03702695 65.46228473 29.02056297 68.73111991 29 72 C31.31 72.66 33.62 73.32 36 74 C35 76 35 76 33.34521484 76.61450195 C28.49200924 77.41225457 23.54404055 77.18590312 18.63769531 77.18530273 C16.63863013 77.18748512 14.63960468 77.20599143 12.640625 77.22460938 C11.36960937 77.22654297 10.09859375 77.22847656 8.7890625 77.23046875 C7.63100098 77.23457764 6.47293945 77.23868652 5.27978516 77.24291992 C1.88689046 76.99162245 -0.83332989 76.21173908 -4 75 C-3.67 74.34 -3.34 73.68 -3 73 C-0.4375 72.375 -0.4375 72.375 2 72 C1.32142944 71.99191315 0.64285889 71.98382629 -0.05627441 71.97549438 C-7.19572947 71.88863335 -14.33493245 71.7891071 -21.47412109 71.68261719 C-24.12938188 71.64363425 -26.7845665 71.60971702 -29.43994141 71.578125 C-68.83630137 71.1036487 -68.83630137 71.1036487 -75 67 C-75.75 64.375 -75.75 64.375 -76 62 C-79.153368 61.29925156 -81.72724974 61 -85 61 C-86.75 58.5 -86.75 58.5 -88 56 C-87.484375 55.5875 -86.96875 55.175 -86.4375 54.75 C-84.76446258 53.11863842 -84.76446258 53.11863842 -85.125 51 C-86.09056431 48.79299586 -87.19372753 47.57067171 -89 46 C-88.01 44.02 -87.02 42.04 -86 40 C-85.21625 40.20625 -84.4325 40.4125 -83.625 40.625 C-82.75875 40.74875 -81.8925 40.8725 -81 41 C-78.77810176 38.77810176 -78.07401108 36.91517292 -77 34 C-75.35 34 -73.7 34 -72 34 C-72 36.97 -72 39.94 -72 43 C-72.969375 43.28875 -73.93875 43.5775 -74.9375 43.875 C-78.10664203 44.64214682 -78.10664203 44.64214682 -79 47 C-79.40270732 51.1283652 -79.40270732 51.1283652 -77.8125 54.8125 C-75.57968261 56.27538036 -73.62655933 56.64505955 -71 57 C-71 54.03 -71 51.06 -71 48 C-69.02 48 -67.04 48 -65 48 C-64.67 48.66 -64.34 49.32 -64 50 C-55.75 50 -47.5 50 -39 50 C-38.505 49.01 -38.505 49.01 -38 48 C-24.47 48 -10.94 48 3 48 C3 46.35 3 44.7 3 43 C-10.53 43 -24.06 43 -38 43 C-38.33 39.37 -38.66 35.74 -39 32 C-34 30 -34 30 -32 30 C-32 29.01 -32 28.02 -32 27 C-31.09644775 26.97494385 -30.19289551 26.9498877 -29.26196289 26.92407227 C-25.9203572 26.82912683 -22.57893748 26.72988379 -19.23754883 26.62768555 C-17.7893576 26.5842837 -16.34111346 26.54261256 -14.89282227 26.50268555 C-12.81510441 26.44510938 -10.73765427 26.38137972 -8.66015625 26.31640625 C-7.40855713 26.27974854 -6.15695801 26.24309082 -4.86743164 26.20532227 C-2.10369496 26.32196094 -2.10369496 26.32196094 -1 25 C-0.84213692 23.14825294 -0.74892644 21.2909089 -0.68359375 19.43359375 C-0.64169922 18.30888672 -0.59980469 17.18417969 -0.55664062 16.02539062 C-0.51732422 14.84138672 -0.47800781 13.65738281 -0.4375 12.4375 C-0.37272461 10.65569336 -0.37272461 10.65569336 -0.30664062 8.83789062 C-0.20016454 5.89205216 -0.09815159 2.9461257 0 0 Z M-68 61 C-68 61.99 -68 62.98 -68 64 C-64.68727224 63.85908107 -61.37488029 63.71134606 -58.0625 63.5625 C-57.13630859 63.52318359 -56.21011719 63.48386719 -55.25585938 63.44335938 C-49.46486581 63.17920879 -43.75460497 62.70235691 -38 62 C-37.67 61.01 -37.34 60.02 -37 59 C-41.09338652 58.95060885 -45.18665798 58.91428499 -49.28027344 58.89013672 C-50.67320781 58.88007123 -52.06612102 58.86641766 -53.45898438 58.84912109 C-55.4595436 58.8248978 -57.46025615 58.81459186 -59.4609375 58.8046875 C-60.66540527 58.79421387 -61.86987305 58.78374023 -63.11083984 58.77294922 C-66.12841495 58.69539186 -66.12841495 58.69539186 -68 61 Z M-13 59 C-13 59.99 -13 60.98 -13 62 C-7.72 62.33 -2.44 62.66 3 63 C3 61.68 3 60.36 3 59 C-2.28 59 -7.56 59 -13 59 Z " fill="#7184FD" transform="translate(98,54)"/>
<path d="M0 0 C1.65 0 3.3 0 5 0 C5 2.97 5 5.94 5 9 C4.030625 9.28875 3.06125 9.5775 2.0625 9.875 C-1.10664203 10.64214682 -1.10664203 10.64214682 -2 13 C-2.40270732 17.1283652 -2.40270732 17.1283652 -0.8125 20.8125 C1.42031739 22.27538036 3.37344067 22.64505955 6 23 C6 20.03 6 17.06 6 14 C7.98 14 9.96 14 12 14 C12.33 14.66 12.66 15.32 13 16 C21.25 16 29.5 16 38 16 C38.33 15.34 38.66 14.68 39 14 C52.53 14 66.06 14 80 14 C80 17.63 80 21.26 80 25 C74.72 25 69.44 25 64 25 C64 25.99 64 26.98 64 28 C64.56847656 27.98839844 65.13695313 27.97679688 65.72265625 27.96484375 C70.60670484 27.90776806 75.18503965 28.18043228 80 29 C80 31.64 80 34.28 80 37 C72.71409984 37.04682155 65.42823335 37.08211748 58.14221191 37.10362434 C54.75718789 37.11395864 51.37226851 37.12792229 47.98730469 37.15087891 C8.62570011 37.39816171 8.62570011 37.39816171 2 33 C1.25 30.375 1.25 30.375 1 28 C-2.153368 27.29925156 -4.72724974 27 -8 27 C-9.75 24.5 -9.75 24.5 -11 22 C-10.484375 21.5875 -9.96875 21.175 -9.4375 20.75 C-7.76446258 19.11863842 -7.76446258 19.11863842 -8.125 17 C-9.09056431 14.79299586 -10.19372753 13.57067171 -12 12 C-11.01 10.02 -10.02 8.04 -9 6 C-7.824375 6.309375 -7.824375 6.309375 -6.625 6.625 C-5.75875 6.74875 -4.8925 6.8725 -4 7 C-1.77810176 4.77810176 -1.07401108 2.91517292 0 0 Z M9 27 C9 27.99 9 28.98 9 30 C12.31272776 29.85908107 15.62511971 29.71134606 18.9375 29.5625 C19.86369141 29.52318359 20.78988281 29.48386719 21.74414062 29.44335938 C27.53513419 29.17920879 33.24539503 28.70235691 39 28 C39.33 27.01 39.66 26.02 40 25 C35.90661348 24.95060885 31.81334202 24.91428499 27.71972656 24.89013672 C26.32679219 24.88007123 24.93387898 24.86641766 23.54101562 24.84912109 C21.5404564 24.8248978 19.53974385 24.81459186 17.5390625 24.8046875 C16.33459473 24.79421387 15.13012695 24.78374023 13.88916016 24.77294922 C10.87158505 24.69539186 10.87158505 24.69539186 9 27 Z " fill="#B0CEFE" transform="translate(21,88)"/>
<path d="M0 0 C16.83 0 33.66 0 51 0 C51 10.23 51 20.46 51 31 C34.17 31 17.34 31 0 31 C0 20.77 0 10.54 0 0 Z " fill="#474E94" transform="translate(44,47)"/>
<path d="M0 0 C3.3 0.33 6.6 0.66 10 1 C10.061875 1.94875 10.12375 2.8975 10.1875 3.875 C10.65715211 7.15510282 10.65715211 7.15510282 13.3125 8.4375 C16.02911288 9.00609339 17.43017905 8.95178554 20 8 C23 12.75 23 12.75 23 15 C24.28197266 14.98259766 24.28197266 14.98259766 25.58984375 14.96484375 C26.69457031 14.95582031 27.79929688 14.94679688 28.9375 14.9375 C30.03964844 14.92589844 31.14179688 14.91429687 32.27734375 14.90234375 C35 15 35 15 36 16 C36.08713831 17.70772358 36.10700007 19.41898649 36.09765625 21.12890625 C36.09443359 22.16337891 36.09121094 23.19785156 36.08789062 24.26367188 C36.07532227 25.8965918 36.07532227 25.8965918 36.0625 27.5625 C36.05798828 28.65498047 36.05347656 29.74746094 36.04882812 30.87304688 C36.03699826 33.58208495 36.02051543 36.29101599 36 39 C36.66 39 37.32 39 38 39 C38.061875 39.61875 38.12375 40.2375 38.1875 40.875 C38.828919 43.27761141 38.828919 43.27761141 41.5625 44.25 C42.366875 44.4975 43.17125 44.745 44 45 C44 46.32 44 47.64 44 49 C43.34 49 42.68 49 42 49 C41.67 50.65 41.34 52.3 41 54 C41.66 54 42.32 54 43 54 C42.34 55.65 41.68 57.3 41 59 C38.69 58.67 36.38 58.34 34 58 C34 58.99 34 59.98 34 61 C32.35 61 30.7 61 29 61 C28.34 59.35 27.68 57.7 27 56 C25.68 56 24.36 56 23 56 C21.84162374 51.94568308 22.16308743 49.78187881 24 46 C22.68 45.67 21.36 45.34 20 45 C19.690625 43.88625 19.38125 42.7725 19.0625 41.625 C18.17673517 38.2054845 18.17673517 38.2054845 17 36 C17.66 36 18.32 36 19 36 C19 34.35 19 32.7 19 31 C12.4 31 5.8 31 -1 31 C-1 30.34 -1 29.68 -1 29 C1.31 29.33 3.62 29.66 6 30 C5.94779297 28.51886719 5.94779297 28.51886719 5.89453125 27.0078125 C5.86746094 25.72648437 5.84039062 24.44515625 5.8125 23.125 C5.76029297 21.21074219 5.76029297 21.21074219 5.70703125 19.2578125 C5.80371094 18.18273437 5.90039062 17.10765625 6 16 C6.99 15.34 7.98 14.68 9 14 C5.90826248 12.45413124 3.40570448 12.70640479 0 13 C-2.60314994 14.3530128 -2.60314994 14.3530128 -4 17 C-4.48117071 20.47817686 -4.60290203 23.79419594 -3 27 C-7.29 27 -11.58 27 -16 27 C-16 26.34 -16 25.68 -16 25 C-15.360625 24.5875 -14.72125 24.175 -14.0625 23.75 C-11.29641768 21.40302106 -11.31288108 19.51991219 -11 16 C-13.475 15.01 -13.475 15.01 -16 14 C-14.68 11.69 -13.36 9.38 -12 7 C-8 7 -8 7 -5 8 C-2.78508786 7.5596445 -2.78508786 7.5596445 -1 6 C-0.18415432 2.94091587 -0.18415432 2.94091587 0 0 Z M28 47 C27.6366844 49.83386167 27.6431329 51.40522151 29.125 53.875 C31.92151052 55.55290631 33.93690532 54.74875648 37 54 C37.67673447 50.59679066 37.67673447 50.59679066 38 47 C36.11499729 44.68436913 36.11499729 44.68436913 33 44.75 C29.88500271 44.68436913 29.88500271 44.68436913 28 47 Z " fill="#36DDC5" transform="translate(99,18)"/>
<path d="M0 0 C0.33 0 0.66 0 1 0 C1.33 2.97 1.66 5.94 2 9 C2.66 9 3.32 9 4 9 C4 7.68 4 6.36 4 5 C4.99 4.67 5.98 4.34 7 4 C7.33 3.34 7.66 2.68 8 2 C9.98 2 11.96 2 14 2 C12.25 4.9375 12.25 4.9375 10 8 C8.68 8.33 7.36 8.66 6 9 C12.27 9 18.54 9 25 9 C26.11911712 12.35735137 26.11365586 14.88205386 26.09765625 18.41796875 C26.09443359 19.67158203 26.09121094 20.92519531 26.08789062 22.21679688 C26.07532227 24.18229492 26.07532227 24.18229492 26.0625 26.1875 C26.05748317 27.52278481 26.05292059 28.85807141 26.04882812 30.19335938 C26.03702695 33.46228473 26.02056297 36.73111991 26 40 C28.31 40.66 30.62 41.32 33 42 C32 44 32 44 30.34521484 44.61450195 C25.49200924 45.41225457 20.54404055 45.18590312 15.63769531 45.18530273 C13.63863013 45.18748512 11.63960468 45.20599143 9.640625 45.22460938 C8.36960937 45.22654297 7.09859375 45.22847656 5.7890625 45.23046875 C4.63100098 45.23457764 3.47293945 45.23868652 2.27978516 45.24291992 C-1.11310954 44.99162245 -3.83332989 44.21173908 -7 43 C-6 41 -6 41 0 39 C0 26.13 0 13.26 0 0 Z " fill="#5E4CEF" transform="translate(101,86)"/>
<path d="M0 0 C7.92 0 15.84 0 24 0 C24.495 1.98 24.495 1.98 25 4 C31.6 4 38.2 4 45 4 C45 6.33333333 45 8.66666667 45 11 C45.495 11.495 45.495 11.495 46 12 C46.08748207 13.92667507 46.10697334 15.85651861 46.09765625 17.78515625 C46.09282227 19.53989258 46.09282227 19.53989258 46.08789062 21.33007812 C46.07532227 23.17762695 46.07532227 23.17762695 46.0625 25.0625 C46.05798828 26.29806641 46.05347656 27.53363281 46.04882812 28.80664062 C46.03699608 31.87114117 46.02051173 34.93554721 46 38 C47.7015625 37.9690625 47.7015625 37.9690625 49.4375 37.9375 C53 38 53 38 54 39 C54.07271741 41.35313555 54.08370868 43.70833668 54.0625 46.0625 C54.05347656 47.35285156 54.04445313 48.64320312 54.03515625 49.97265625 C54.02355469 50.97167969 54.01195313 51.97070312 54 53 C53.52046875 52.67257813 53.0409375 52.34515625 52.546875 52.0078125 C48.79520582 50.52325629 45.24319259 50.78891127 41.25 50.875 C40.45722656 50.88402344 39.66445312 50.89304688 38.84765625 50.90234375 C36.89830719 50.92582988 34.94911425 50.96169863 33 51 C35.06029645 47.90955532 35.82606287 47.48778303 39 46 C39.99 45.01 39.99 45.01 41 44 C39.35 43.67 37.7 43.34 36 43 C35.67 43.99 35.34 44.98 35 46 C34.01 46 33.02 46 32 46 C32 47.32 32 48.64 32 50 C31.34 50 30.68 50 30 50 C29.505 50.99 29.505 50.99 29 52 C28.80543295 50.04235617 28.61955753 48.08384679 28.4375 46.125 C28.28087891 44.48917969 28.28087891 44.48917969 28.12109375 42.8203125 C28 40 28 40 29 38 C33.29 38 37.58 38 42 38 C42 31.4 42 24.8 42 18 C38.7 18 35.4 18 32 18 C32 15.03 32 12.06 32 9 C29.69 9 27.38 9 25 9 C25.01571045 10.12027588 25.01571045 10.12027588 25.03173828 11.26318359 C25.0732077 14.63375508 25.09929729 18.004273 25.125 21.375 C25.14175781 22.550625 25.15851563 23.72625 25.17578125 24.9375 C25.18544922 26.61972656 25.18544922 26.61972656 25.1953125 28.3359375 C25.21102295 29.89127197 25.21102295 29.89127197 25.22705078 31.47802734 C25 34 25 34 23 36 C20.76086426 36.25396729 20.76086426 36.25396729 17.93945312 36.25878906 C16.35771301 36.26824554 16.35771301 36.26824554 14.74401855 36.27789307 C13.60130493 36.2738446 12.45859131 36.26979614 11.28125 36.265625 C9.52802429 36.26849518 9.52802429 36.26849518 7.73937988 36.27142334 C5.26456487 36.27278626 2.78974274 36.26908241 0.31494141 36.26074219 C-3.48421205 36.25004446 -7.28289259 36.26063418 -11.08203125 36.2734375 C-13.48177188 36.27211592 -15.88151222 36.26955357 -18.28125 36.265625 C-19.99532043 36.27169769 -19.99532043 36.27169769 -21.74401855 36.27789307 C-22.79851196 36.27158875 -23.85300537 36.26528442 -24.93945312 36.25878906 C-25.8705188 36.25719788 -26.80158447 36.25560669 -27.76086426 36.25396729 C-30 36 -30 36 -32 34 C-32.22705078 31.01904297 -32.22705078 31.01904297 -32.1953125 27.2421875 C-32.1924826 26.57913605 -32.18965271 25.91608459 -32.18673706 25.23294067 C-32.17553435 23.11344417 -32.15043051 20.99436896 -32.125 18.875 C-32.11497028 17.43880818 -32.10584441 16.00260975 -32.09765625 14.56640625 C-32.075595 11.04413372 -32.04106494 7.52210797 -32 4 C-31.01 4 -30.02 4 -29 4 C-29 13.57 -29 23.14 -29 33 C-12.17 33 4.66 33 22 33 C22 22.77 22 12.54 22 2 C14.74 2 7.48 2 0 2 C0 1.34 0 0.68 0 0 Z " fill="#38D3CC" transform="translate(73,45)"/>
<path d="M0 0 C1.65 0 3.3 0 5 0 C5 2.97 5 5.94 5 9 C4.030625 9.28875 3.06125 9.5775 2.0625 9.875 C-1.10664203 10.64214682 -1.10664203 10.64214682 -2 13 C-2.45565588 17.050918 -2.45565588 17.050918 -0.80859375 20.5859375 C1.43603616 22.34091812 3.44563281 22.93971804 6.1875 23.6875 C7.08855469 23.93886719 7.98960938 24.19023438 8.91796875 24.44921875 C9.60503906 24.63097656 10.29210937 24.81273438 11 25 C10.01 27.475 10.01 27.475 9 30 C9.88353149 29.90912109 9.88353149 29.90912109 10.78491211 29.81640625 C13.50198983 29.5396151 16.21971686 29.26977324 18.9375 29 C19.86369141 28.90460938 20.78988281 28.80921875 21.74414062 28.7109375 C27.52911107 28.14258953 33.18730276 27.90461215 39 28 C38.67 28.66 38.34 29.32 38 30 C35.35139573 30.59355614 32.70802678 30.74209269 30 31 C30 31.66 30 32.32 30 33 C44.19 33 58.38 33 73 33 C72.67 32.34 72.34 31.68 72 31 C70.845 30.835 69.69 30.67 68.5 30.5 C67.345 30.335 66.19 30.17 65 30 C64.505 29.01 64.505 29.01 64 28 C69.45769811 27.88861841 74.61509359 28.08342019 80 29 C80 31.64 80 34.28 80 37 C72.71409984 37.04682155 65.42823335 37.08211748 58.14221191 37.10362434 C54.75718789 37.11395864 51.37226851 37.12792229 47.98730469 37.15087891 C8.62570011 37.39816171 8.62570011 37.39816171 2 33 C1.25 30.375 1.25 30.375 1 28 C-2.153368 27.29925156 -4.72724974 27 -8 27 C-9.75 24.5 -9.75 24.5 -11 22 C-10.484375 21.5875 -9.96875 21.175 -9.4375 20.75 C-7.76446258 19.11863842 -7.76446258 19.11863842 -8.125 17 C-9.09056431 14.79299586 -10.19372753 13.57067171 -12 12 C-11.01 10.02 -10.02 8.04 -9 6 C-7.824375 6.309375 -7.824375 6.309375 -6.625 6.625 C-5.75875 6.74875 -4.8925 6.8725 -4 7 C-1.77810176 4.77810176 -1.07401108 2.91517292 0 0 Z " fill="#EAEBF2" transform="translate(21,88)"/>
<path d="M0 0 C1.37091797 0.0009668 1.37091797 0.0009668 2.76953125 0.00195312 C9.48435163 0.04685163 9.48435163 0.04685163 10.625 1.1875 C13.43476518 1.34767166 16.22273596 1.44700534 19.03515625 1.50390625 C19.87719101 1.52468735 20.71922577 1.54546844 21.58677673 1.56687927 C24.28693179 1.63246812 26.98718717 1.69130276 29.6875 1.75 C31.51368241 1.79317637 33.33985454 1.83679036 35.16601562 1.88085938 C39.65223992 1.98815894 44.1385655 2.08939966 48.625 2.1875 C48.625 2.5175 48.625 2.8475 48.625 3.1875 C35.755 3.1875 22.885 3.1875 9.625 3.1875 C9.955 4.5075 10.285 5.8275 10.625 7.1875 C23.165 7.5175 35.705 7.8475 48.625 8.1875 C48.625 8.5175 48.625 8.8475 48.625 9.1875 C35.755 9.1875 22.885 9.1875 9.625 9.1875 C9.955 10.5075 10.285 11.8275 10.625 13.1875 C23.165 13.1875 35.705 13.1875 48.625 13.1875 C48.625 13.8475 48.625 14.5075 48.625 15.1875 C39.055 15.1875 29.485 15.1875 19.625 15.1875 C19.625 15.8475 19.625 16.5075 19.625 17.1875 C18.635 17.1875 17.645 17.1875 16.625 17.1875 C16.625 16.5275 16.625 15.8675 16.625 15.1875 C14.315 15.1875 12.005 15.1875 9.625 15.1875 C9.625 17.1675 9.625 19.1475 9.625 21.1875 C0.715 21.1875 -8.195 21.1875 -17.375 21.1875 C-17.375 20.8575 -17.375 20.5275 -17.375 20.1875 C-15.725 19.8575 -14.075 19.5275 -12.375 19.1875 C-12.045 17.8675 -11.715 16.5475 -11.375 15.1875 C-13.355 15.1875 -15.335 15.1875 -17.375 15.1875 C-17.375 14.8575 -17.375 14.5275 -17.375 14.1875 C-15.725 13.8575 -14.075 13.5275 -12.375 13.1875 C-12.045 11.8675 -11.715 10.5475 -11.375 9.1875 C-13.355 9.1875 -15.335 9.1875 -17.375 9.1875 C-17.375 8.8575 -17.375 8.5275 -17.375 8.1875 C-15.725 7.8575 -14.075 7.5275 -12.375 7.1875 C-12.045 5.8675 -11.715 4.5475 -11.375 3.1875 C-13.355 3.1875 -15.335 3.1875 -17.375 3.1875 C-17.375 2.8575 -17.375 2.5275 -17.375 2.1875 C-11.48560037 0.14637931 -6.2030285 -0.08528042 0 0 Z " fill="#92E1E0" transform="translate(24.375,31.8125)"/>
<path d="M0 0 C3.0000624 -0.02721831 5.99987256 -0.04694378 9 -0.0625 C9.83917969 -0.07087891 10.67835937 -0.07925781 11.54296875 -0.08789062 C12.79013672 -0.09272461 12.79013672 -0.09272461 14.0625 -0.09765625 C15.19365234 -0.10551147 15.19365234 -0.10551147 16.34765625 -0.11352539 C19.91451913 0.03914317 23.45744034 0.55718004 27 1 C27 7.93 27 14.86 27 22 C20.07 22 13.14 22 6 22 C6 21.01 6 20.02 6 19 C4.02 19 2.04 19 0 19 C0 18.34 0 17.68 0 17 C1.98 17 3.96 17 6 17 C6 15.68 6 14.36 6 13 C4.02 13 2.04 13 0 13 C0 12.34 0 11.68 0 11 C1.98 11 3.96 11 6 11 C6 9.68 6 8.36 6 7 C4.02 7 2.04 7 0 7 C0 6.34 0 5.68 0 5 C1.98 5 3.96 5 6 5 C6 4.01 6 3.02 6 2 C3.03 1.505 3.03 1.505 0 1 C0 0.67 0 0.34 0 0 Z " fill="#3BCDCD" transform="translate(7,58)"/>
<path d="M0 0 C1.58206057 0.00667536 3.16410534 0.0186375 4.74609375 0.03515625 C5.55240234 0.03966797 6.35871094 0.04417969 7.18945312 0.04882812 C9.18753131 0.06065107 11.18557158 0.07858711 13.18359375 0.09765625 C10.87242121 2.55327708 9.51705505 3.47263226 6.18359375 4.09765625 C5.19359375 4.42765625 4.20359375 4.75765625 3.18359375 5.09765625 C2.85359375 6.08765625 2.52359375 7.07765625 2.18359375 8.09765625 C1.52359375 8.75765625 0.86359375 9.41765625 0.18359375 10.09765625 C2.2359306 12.34545375 3.19026636 13.09988045 6.18359375 14.09765625 C6.18359375 14.75765625 6.18359375 15.41765625 6.18359375 16.09765625 C6.84359375 16.09765625 7.50359375 16.09765625 8.18359375 16.09765625 C8.51359375 14.44765625 8.84359375 12.79765625 9.18359375 11.09765625 C10.17359375 11.09765625 11.16359375 11.09765625 12.18359375 11.09765625 C12.18359375 12.08765625 12.18359375 13.07765625 12.18359375 14.09765625 C12.84359375 14.09765625 13.50359375 14.09765625 14.18359375 14.09765625 C14.18359375 13.43765625 14.18359375 12.77765625 14.18359375 12.09765625 C16.57941721 10.89974452 18.05136913 10.97698185 20.72509766 10.98413086 C21.66592194 10.98420639 22.60674622 10.98428192 23.57608032 10.98435974 C24.59382538 10.98952103 25.61157043 10.99468231 26.66015625 11 C27.70054047 11.00141495 28.74092468 11.0028299 29.81283569 11.00428772 C33.14478396 11.00989759 36.4766657 11.02245178 39.80859375 11.03515625 C42.06380111 11.04016998 44.31900953 11.04473311 46.57421875 11.04882812 C52.11069989 11.05987022 57.64714207 11.07661798 63.18359375 11.09765625 C63.18359375 12.74765625 63.18359375 14.39765625 63.18359375 16.09765625 C49.65359375 16.09765625 36.12359375 16.09765625 22.18359375 16.09765625 C21.85359375 17.08765625 21.52359375 18.07765625 21.18359375 19.09765625 C17.03777488 19.12652376 12.89198159 19.14440952 8.74609375 19.16015625 C6.97008789 19.17272461 6.97008789 19.17272461 5.15820312 19.18554688 C4.03349609 19.18876953 2.90878906 19.19199219 1.75 19.1953125 C0.1868103 19.20316772 0.1868103 19.20316772 -1.40795898 19.21118164 C-3.81640625 19.09765625 -3.81640625 19.09765625 -4.81640625 18.09765625 C-4.916276 15.25430577 -4.95518506 12.44068462 -4.94140625 9.59765625 C-4.94527344 8.79972656 -4.94914062 8.00179687 -4.953125 7.1796875 C-4.94115004 0.1264368 -4.94115004 0.1264368 0 0 Z " fill="#43AAE5" transform="translate(37.81640625,85.90234375)"/>
<path d="M0 0 C1.98 0 3.96 0 6 0 C6.33 0.66 6.66 1.32 7 2 C15.25 2 23.5 2 32 2 C32.33 1.34 32.66 0.68 33 0 C39.27 0 45.54 0 52 0 C51.01 2.97 50.02 5.94 49 9 C47.33388095 9.042721 45.66617115 9.04063832 44 9 C43.505 8.505 43.505 8.505 43 8 C42.45980225 8.72558105 42.45980225 8.72558105 41.90869141 9.46582031 C39.14603862 11.68640232 36.97385801 11.45029001 33.4609375 11.546875 C32.15769531 11.58683594 30.85445312 11.62679687 29.51171875 11.66796875 C28.49150635 11.68802979 28.49150635 11.68802979 27.45068359 11.70849609 C25.40255165 11.7494491 23.35603113 11.81219033 21.30859375 11.87890625 C14.43749999 12.06132467 7.7955218 12.09082129 1 11 C0 10 0 10 -0.09765625 7.71484375 C-0.08605469 6.79832031 -0.07445313 5.88179688 -0.0625 4.9375 C-0.05347656 4.01839844 -0.04445313 3.09929687 -0.03515625 2.15234375 C-0.02355469 1.44207031 -0.01195313 0.73179688 0 0 Z " fill="#BFD8FE" transform="translate(27,102)"/>
<path d="M0 0 C3.3 0.33 6.6 0.66 10 1 C10.061875 1.94875 10.12375 2.8975 10.1875 3.875 C10.65715211 7.15510282 10.65715211 7.15510282 13.3125 8.4375 C16.02911288 9.00609339 17.43017905 8.95178554 20 8 C23 12.75 23 12.75 23 15 C20.89611431 15.05402274 18.79183286 15.09280256 16.6875 15.125 C14.92986328 15.15980469 14.92986328 15.15980469 13.13671875 15.1953125 C10 15 10 15 7 13 C3.16306413 12.58142518 0.88796936 12.45355731 -2.4375 14.5 C-4.7384032 18.18144512 -4.34728373 20.69368174 -4 25 C-3.67 25.66 -3.34 26.32 -3 27 C-7.29 27 -11.58 27 -16 27 C-16 26.34 -16 25.68 -16 25 C-15.360625 24.5875 -14.72125 24.175 -14.0625 23.75 C-11.29641768 21.40302106 -11.31288108 19.51991219 -11 16 C-13.475 15.01 -13.475 15.01 -16 14 C-14.68 11.69 -13.36 9.38 -12 7 C-8 7 -8 7 -5 8 C-2.78508786 7.5596445 -2.78508786 7.5596445 -1 6 C-0.18415432 2.94091587 -0.18415432 2.94091587 0 0 Z " fill="#E8EBF1" transform="translate(99,18)"/>
<path d="M0 0 C1.58206057 0.00667536 3.16410534 0.0186375 4.74609375 0.03515625 C5.55240234 0.03966797 6.35871094 0.04417969 7.18945312 0.04882812 C9.18753131 0.06065107 11.18557158 0.07858711 13.18359375 0.09765625 C11.80859375 1.59765625 11.80859375 1.59765625 10.18359375 3.09765625 C9.52359375 3.09765625 8.86359375 3.09765625 8.18359375 3.09765625 C8.18359375 4.08765625 8.18359375 5.07765625 8.18359375 6.09765625 C9.09109375 5.87078125 9.99859375 5.64390625 10.93359375 5.41015625 C14.18359375 5.09765625 14.18359375 5.09765625 16.55859375 6.41015625 C18.18359375 8.09765625 18.18359375 8.09765625 18.18359375 10.09765625 C19.83359375 10.09765625 21.48359375 10.09765625 23.18359375 10.09765625 C23.67859375 12.07765625 23.67859375 12.07765625 24.18359375 14.09765625 C19.89359375 14.09765625 15.60359375 14.09765625 11.18359375 14.09765625 C11.18359375 16.40765625 11.18359375 18.71765625 11.18359375 21.09765625 C11.84359375 21.42765625 12.50359375 21.75765625 13.18359375 22.09765625 C12.52359375 23.08765625 11.86359375 24.07765625 11.18359375 25.09765625 C7.30859375 23.34765625 7.30859375 23.34765625 6.18359375 21.09765625 C6.84359375 21.09765625 7.50359375 21.09765625 8.18359375 21.09765625 C8.18359375 19.44765625 8.18359375 17.79765625 8.18359375 16.09765625 C1.58359375 16.09765625 -5.01640625 16.09765625 -11.81640625 16.09765625 C-11.81640625 15.43765625 -11.81640625 14.77765625 -11.81640625 14.09765625 C-9.50640625 14.42765625 -7.19640625 14.75765625 -4.81640625 15.09765625 C-4.82800781 14.09863281 -4.83960937 13.09960938 -4.8515625 12.0703125 C-4.86058594 10.77996094 -4.86960937 9.48960938 -4.87890625 8.16015625 C-4.89050781 6.87238281 -4.90210937 5.58460937 -4.9140625 4.2578125 C-4.77221615 -0.33233549 -4.72778272 0.12097704 0 0 Z " fill="#81D8E3" transform="translate(109.81640625,32.90234375)"/>
<path d="M0 0 C1.32 0 2.64 0 4 0 C4 6.6 4 13.2 4 20 C6.31 20 8.62 20 11 20 C12 21 12 21 12.09765625 24.16015625 C12.08605469 25.44792969 12.07445313 26.73570313 12.0625 28.0625 C12.05347656 29.35285156 12.04445313 30.64320312 12.03515625 31.97265625 C12.02355469 32.97167969 12.01195313 33.97070312 12 35 C11.52046875 34.67257813 11.0409375 34.34515625 10.546875 34.0078125 C6.79520582 32.52325629 3.24319259 32.78891127 -0.75 32.875 C-1.93916016 32.88853516 -1.93916016 32.88853516 -3.15234375 32.90234375 C-5.10169281 32.92582988 -7.05088575 32.96169863 -9 33 C-6.93970355 29.90955532 -6.17393713 29.48778303 -3 28 C-2.34 27.34 -1.68 26.68 -1 26 C-2.65 25.67 -4.3 25.34 -6 25 C-6.33 25.99 -6.66 26.98 -7 28 C-7.99 28 -8.98 28 -10 28 C-10 29.32 -10 30.64 -10 32 C-10.66 32 -11.32 32 -12 32 C-12.33 32.66 -12.66 33.32 -13 34 C-13.19456705 32.04235617 -13.38044247 30.08384679 -13.5625 28.125 C-13.71912109 26.48917969 -13.71912109 26.48917969 -13.87890625 24.8203125 C-14 22 -14 22 -13 20 C-8.71 20 -4.42 20 0 20 C0 13.4 0 6.8 0 0 Z " fill="#5E4CFB" transform="translate(115,63)"/>
<path d="M0 0 C0.99 0 1.98 0 3 0 C4.07917226 3.23751678 4.11425601 5.57751771 4.09765625 8.98046875 C4.09443359 10.14384766 4.09121094 11.30722656 4.08789062 12.50585938 C4.07951172 13.72080078 4.07113281 14.93574219 4.0625 16.1875 C4.05798828 17.41404297 4.05347656 18.64058594 4.04882812 19.90429688 C4.03703076 22.93621865 4.01909514 25.9681154 4 29 C-4.25 29 -12.5 29 -21 29 C-21.13392857 15.74107143 -21.13392857 15.74107143 -20 11 C-19.34 11 -18.68 11 -18 11 C-17.67 13.31 -17.34 15.62 -17 18 C-11.72 18 -6.44 18 -1 18 C-0.67 12.06 -0.34 6.12 0 0 Z " fill="#7388FE" transform="translate(123,95)"/>
<path d="M0 0 C1.58206057 0.00667536 3.16410534 0.0186375 4.74609375 0.03515625 C5.55240234 0.03966797 6.35871094 0.04417969 7.18945312 0.04882812 C9.18753131 0.06065107 11.18557158 0.07858711 13.18359375 0.09765625 C13.21043687 2.91021906 13.23035563 5.72252866 13.24609375 8.53515625 C13.25447266 9.33759766 13.26285156 10.14003906 13.27148438 10.96679688 C13.28010805 13.01060846 13.23587525 15.05449527 13.18359375 17.09765625 C11.36243372 18.91881628 8.87687611 18.23000705 6.45703125 18.234375 C5.70679687 18.23050781 4.9565625 18.22664063 4.18359375 18.22265625 C3.05824219 18.22845703 3.05824219 18.22845703 1.91015625 18.234375 C-3.68979572 18.22426678 -3.68979572 18.22426678 -4.81640625 17.09765625 C-4.91621839 14.42034245 -4.955205 11.7746145 -4.94140625 9.09765625 C-4.94527344 8.34742187 -4.94914062 7.5971875 -4.953125 6.82421875 C-4.94103514 0.12643386 -4.94103514 0.12643386 0 0 Z " fill="#41C8EA" transform="translate(109.81640625,95.90234375)"/>
<path d="M0 0 C5.61 0 11.22 0 17 0 C17 5.61 17 11.22 17 17 C11.39 17 5.78 17 0 17 C0 11.39 0 5.78 0 0 Z " fill="#3E4E9A" transform="translate(15,34)"/>
<path d="M0 0 C2.24940295 -0.08119503 4.49964871 -0.13927819 6.75 -0.1875 C8.00296875 -0.22230469 9.2559375 -0.25710937 10.546875 -0.29296875 C14.14109357 0.01197061 15.44725126 0.54394629 18 3 C17.67 3.33 17.34 3.66 17 4 C16.63239269 6.32817964 16.29758419 8.6618385 16 11 C15.67 11 15.34 11 15 11 C15 8.69 15 6.38 15 4 C12.69 4 10.38 4 8 4 C8 6.31 8 8.62 8 11 C8.66 11 9.32 11 10 11 C10 12.66666667 10 14.33333333 10 16 C4.72 16 -0.56 16 -6 16 C-6.33 12.37 -6.66 8.74 -7 5 C-2 3 -2 3 0 3 C0 2.01 0 1.02 0 0 Z M13 11 C13.99 11.495 13.99 11.495 15 12 C14.01 12.495 14.01 12.495 13 13 C13 12.34 13 11.68 13 11 Z " fill="#6C72FE" transform="translate(66,81)"/>
<path d="M0 0 C2.31 0 4.62 0 7 0 C7.14541967 4.22880411 7.23411527 8.45696413 7.3125 12.6875 C7.3753418 14.48477539 7.3753418 14.48477539 7.43945312 16.31835938 C7.5608921 25.03767802 7.5608921 25.03767802 5.86474609 27.94775391 C4.48046875 29.33203125 4.48046875 29.33203125 2 31 C0.41596476 29.41596476 0.78025065 27.7228362 0.68359375 25.52734375 C0.64169922 24.62822266 0.59980469 23.72910156 0.55664062 22.80273438 C0.51732422 21.85720703 0.47800781 20.91167969 0.4375 19.9375 C0.39431641 18.98810547 0.35113281 18.03871094 0.30664062 17.06054688 C0.20020724 14.70718647 0.09818992 12.35371646 0 10 C-2.64 10 -5.28 10 -8 10 C-8 8.02 -8 6.04 -8 4 C-5.36 4 -2.72 4 0 4 C0 2.68 0 1.36 0 0 Z " fill="#5A38FF" transform="translate(34,49)"/>
<path d="M0 0 C7.92 0 15.84 0 24 0 C24 2.31 24 4.62 24 7 C20.7 7.33 17.4 7.66 14 8 C14 8.66 14 9.32 14 10 C14.66 10.33 15.32 10.66 16 11 C12.91701949 12.02766017 10.66869574 12.16598738 7.4375 12.1875 C5.98150391 12.20876953 5.98150391 12.20876953 4.49609375 12.23046875 C2 12 2 12 0 10 C0.66 9.01 1.32 8.02 2 7 C1.34 7 0.68 7 0 7 C0 4.69 0 2.38 0 0 Z M5 7 C5.33 7.66 5.66 8.32 6 9 C6.33 8.34 6.66 7.68 7 7 C6.34 7 5.68 7 5 7 Z " fill="#7385FE" transform="translate(74,85)"/>
<path d="M0 0 C0.721875 0.00257812 1.44375 0.00515625 2.1875 0.0078125 C2.909375 0.00523438 3.63125 0.00265625 4.375 0 C6.1875 0.1328125 6.1875 0.1328125 7.1875 1.1328125 C7.25955511 2.81890216 7.27136068 4.50781909 7.25 6.1953125 C7.24097656 7.11441406 7.23195313 8.03351563 7.22265625 8.98046875 C7.21105469 9.69074219 7.19945313 10.40101562 7.1875 11.1328125 C4.5475 11.4628125 1.9075 11.7928125 -0.8125 12.1328125 C-0.8125 12.7928125 -0.8125 13.4528125 -0.8125 14.1328125 C-1.4725 14.1328125 -2.1325 14.1328125 -2.8125 14.1328125 C-2.8125 13.1428125 -2.8125 12.1528125 -2.8125 11.1328125 C-3.8025 11.1328125 -4.7925 11.1328125 -5.8125 11.1328125 C-6.1425 12.7828125 -6.4725 14.4328125 -6.8125 16.1328125 C-7.4725 16.1328125 -8.1325 16.1328125 -8.8125 16.1328125 C-8.8125 15.4728125 -8.8125 14.8128125 -8.8125 14.1328125 C-9.410625 14.0503125 -10.00875 13.9678125 -10.625 13.8828125 C-13.41420874 12.92651236 -14.15726293 11.50421231 -15.8125 9.1328125 C-14.59442862 7.97519131 -13.36248765 6.8321542 -12.125 5.6953125 C-11.44050781 5.05722656 -10.75601563 4.41914062 -10.05078125 3.76171875 C-7.57971083 1.96340049 -5.79926208 1.57548422 -2.8125 1.1328125 C-1.8125 0.1328125 -1.8125 0.1328125 0 0 Z " fill="#41C9D7" transform="translate(52.8125,85.8671875)"/>
<path d="M0 0 C6.6 0 13.2 0 20 0 C20 2.33333333 20 4.66666667 20 7 C20.33 7.33 20.66 7.66 21 8 C21 9.98 21 11.96 21 14 C16.38 14 11.76 14 7 14 C7 11.03 7 8.06 7 5 C4.69 5 2.38 5 0 5 C0 3.35 0 1.7 0 0 Z " fill="#38C7D7" transform="translate(98,49)"/>
<path d="M0 0 C13.53 0 27.06 0 41 0 C41 1.65 41 3.3 41 5 C27.47 5 13.94 5 0 5 C0 3.35 0 1.7 0 0 Z " fill="#3C3D89" transform="translate(60,97)"/>
<path d="M0 0 C0.66 0 1.32 0 2 0 C2.061875 0.61875 2.12375 1.2375 2.1875 1.875 C2.828919 4.27761141 2.828919 4.27761141 5.5625 5.25 C6.366875 5.4975 7.17125 5.745 8 6 C8 7.32 8 8.64 8 10 C7.34 10 6.68 10 6 10 C5.67 11.65 5.34 13.3 5 15 C5.66 15 6.32 15 7 15 C6.01 17.475 6.01 17.475 5 20 C2.69 19.67 0.38 19.34 -2 19 C-2 19.99 -2 20.98 -2 22 C-3.65 22 -5.3 22 -7 22 C-7.66 20.35 -8.32 18.7 -9 17 C-10.32 17 -11.64 17 -13 17 C-14.1643582 12.92474631 -13.79835859 10.80828877 -12 7 C-12 6.67 -12 6.34 -12 6 C-10.02 6 -8.04 6 -6 6 C-6.20625 7.11375 -6.4125 8.2275 -6.625 9.375 C-6.810625 11.169375 -6.810625 11.169375 -7 13 C-5.10244856 15.34973818 -5.10244856 15.34973818 -1.875 15.125 C-0.451875 15.063125 -0.451875 15.063125 1 15 C1.29562367 9.67829506 1.29562367 9.67829506 -1 5 C-0.625 2.3125 -0.625 2.3125 0 0 Z " fill="#E9EBF2" transform="translate(135,57)"/>
<path d="M0 0 C1.32 0 2.64 0 4 0 C4 6.6 4 13.2 4 20 C6.31 20 8.62 20 11 20 C11.33 20.99 11.66 21.98 12 23 C3.19039858 24.30512614 -5.19039858 24.30512614 -14 23 C-13.505 21.515 -13.505 21.515 -13 20 C-8.71 20 -4.42 20 0 20 C0 13.4 0 6.8 0 0 Z " fill="#4C4CA1" transform="translate(115,63)"/>
<path d="M0 0 C6.27 0 12.54 0 19 0 C19 0.99 19 1.98 19 3 C20.32 3 21.64 3 23 3 C22.67 5.97 22.34 8.94 22 12 C20.35 12 18.7 12 17 12 C17 12.66 17 13.32 17 14 C16.01 13.67 15.02 13.34 14 13 C13.67 12.34 13.34 11.68 13 11 C12.01 10.67 11.02 10.34 10 10 C10 7.69 10 5.38 10 3 C6.7 2.67 3.4 2.34 0 2 C0 1.34 0 0.68 0 0 Z " fill="#C5ECF1" transform="translate(7,63)"/>
<path d="M0 0 C1.31871094 -0.01224609 2.63742188 -0.02449219 3.99609375 -0.03710938 C5.90068359 -0.04000977 5.90068359 -0.04000977 7.84375 -0.04296875 C9.00068359 -0.04707764 10.15761719 -0.05118652 11.34960938 -0.05541992 C14.47736509 0.18575467 16.680892 0.85423629 19.5 2.1875 C18.5 4.1875 18.5 4.1875 16.84521484 4.80200195 C11.99200924 5.59975457 7.04404055 5.37340312 2.13769531 5.37280273 C0.13863013 5.37498512 -1.86039532 5.39349143 -3.859375 5.41210938 C-5.13039063 5.41404297 -6.40140625 5.41597656 -7.7109375 5.41796875 C-8.86899902 5.42207764 -10.02706055 5.42618652 -11.22021484 5.43041992 C-14.61310954 5.17912245 -17.33332989 4.39923908 -20.5 3.1875 C-20.17 2.5275 -19.84 1.8675 -19.5 1.1875 C-13.23640183 -0.60566158 -6.45139424 0.00315317 0 0 Z " fill="#EAEBF2" transform="translate(114.5,125.8125)"/>
<path d="M0 0 C0.99 0 1.98 0 3 0 C3.02505615 0.87325928 3.0501123 1.74651855 3.07592773 2.64624023 C3.17087709 5.87602552 3.27012029 9.10564154 3.37231445 12.33520508 C3.41571434 13.73489199 3.45738564 15.13463359 3.49731445 16.53442383 C3.55489445 18.54261495 3.61914 20.55061149 3.68359375 22.55859375 C3.72025146 23.76829834 3.75690918 24.97800293 3.79467773 26.22436523 C3.68938266 28.90705456 3.68938266 28.90705456 5 30 C6.56448383 30.12263388 8.13432772 30.17779522 9.70336914 30.20532227 C11.20481224 30.2352401 11.20481224 30.2352401 12.73658752 30.26576233 C14.36937904 30.29083107 14.36937904 30.29083107 16.03515625 30.31640625 C17.14354355 30.33718735 18.25193085 30.35796844 19.39390564 30.37937927 C22.95003808 30.44499623 26.50624703 30.50381596 30.0625 30.5625 C32.46680493 30.60567368 34.87110199 30.64928758 37.27539062 30.69335938 C43.18351185 30.80068992 49.09170991 30.90243331 55 31 C55 31.33 55 31.66 55 32 C47.48863592 32.05057965 39.97731551 32.08568257 32.46582031 32.10986328 C29.90883747 32.11994038 27.35186621 32.13360226 24.79492188 32.15087891 C21.12627308 32.17505217 17.45777621 32.18646585 13.7890625 32.1953125 C12.0655809 32.21079636 12.0655809 32.21079636 10.30728149 32.22659302 C9.2463327 32.22674408 8.18538391 32.22689514 7.09228516 32.22705078 C6.15518707 32.231492 5.21808899 32.23593323 4.25259399 32.24050903 C2 32 2 32 0 30 C-0.22705078 27.01904297 -0.22705078 27.01904297 -0.1953125 23.2421875 C-0.1924826 22.57913605 -0.18965271 21.91608459 -0.18673706 21.23294067 C-0.17553435 19.11344417 -0.15043051 16.99436896 -0.125 14.875 C-0.11497028 13.43880818 -0.10584441 12.00260975 -0.09765625 10.56640625 C-0.075595 7.04413372 -0.04106494 3.52210797 0 0 Z " fill="#469FE9" transform="translate(41,49)"/>
<path d="M0 0 C0 5.61 0 11.22 0 17 C0.99 17 1.98 17 3 17 C3 18.65 3 20.3 3 22 C0.69 22 -1.62 22 -4 22 C-4 15.73 -4 9.46 -4 3 C-10.27 3 -16.54 3 -23 3 C-23 2.34 -23 1.68 -23 1 C-19.91675903 0.83159521 -16.83339379 0.66558138 -13.75 0.5 C-12.87730469 0.45230469 -12.00460938 0.40460938 -11.10546875 0.35546875 C-10.26113281 0.31035156 -9.41679687 0.26523438 -8.546875 0.21875 C-7.38430176 0.1559082 -7.38430176 0.1559082 -6.19824219 0.09179688 C-4.13373418 0.00558463 -2.0663073 0 0 0 Z " fill="#6F73AA" transform="translate(30,80)"/>
<path d="M0 0 C0.99 0 1.98 0 3 0 C3 0.99 3 1.98 3 3 C3.66 3 4.32 3 5 3 C5 2.34 5 1.68 5 1 C7.70879335 -0.35439668 10.00933268 -0.06501451 13 0 C13.04241723 2.33294775 13.04092937 4.66702567 13 7 C12 8 12 8 9.59155273 8.11352539 C8.54942627 8.10828857 7.5072998 8.10305176 6.43359375 8.09765625 C5.30888672 8.09443359 4.18417969 8.09121094 3.02539062 8.08789062 C1.84138672 8.07951172 0.65738281 8.07113281 -0.5625 8.0625 C-1.75037109 8.05798828 -2.93824219 8.05347656 -4.16210938 8.04882812 C-7.10812226 8.03699675 -10.05403681 8.02051287 -13 8 C-13.33 7.01 -13.66 6.02 -14 5 C-10.7 5 -7.4 5 -4 5 C-3.67 4.34 -3.34 3.68 -3 3 C-3 3.66 -3 4.32 -3 5 C-2.34 5 -1.68 5 -1 5 C-0.67 3.35 -0.34 1.7 0 0 Z " fill="#36D7C3" transform="translate(47,97)"/>
<path d="M0 0 C0.93134766 0.00322266 1.86269531 0.00644531 2.82226562 0.00976562 C4.26182617 0.02233398 4.26182617 0.02233398 5.73046875 0.03515625 C6.70951172 0.03966797 7.68855469 0.04417969 8.69726562 0.04882812 C11.10422986 0.06056941 13.51106732 0.07699206 15.91796875 0.09765625 C16.24796875 1.41765625 16.57796875 2.73765625 16.91796875 4.09765625 C15.92796875 4.09765625 14.93796875 4.09765625 13.91796875 4.09765625 C12.92796875 4.59265625 12.92796875 4.59265625 11.91796875 5.09765625 C10.17752705 5.18215253 8.43387153 5.20488649 6.69140625 5.1953125 C5.66015625 5.19208984 4.62890625 5.18886719 3.56640625 5.18554688 C1.94605469 5.17297852 1.94605469 5.17297852 0.29296875 5.16015625 C-1.33898437 5.15338867 -1.33898437 5.15338867 -3.00390625 5.14648438 C-5.69666914 5.13467401 -8.38932313 5.11820403 -11.08203125 5.09765625 C-10.75203125 3.77765625 -10.42203125 2.45765625 -10.08203125 1.09765625 C-6.65629188 0.32237146 -3.5096388 -0.02153153 0 0 Z " fill="#655CFE" transform="translate(50.08203125,80.90234375)"/>
<path d="M0 0 C1 1 1 1 1.09765625 3.06640625 C1.08605469 3.89011719 1.07445312 4.71382812 1.0625 5.5625 C1.05347656 6.38878906 1.04445312 7.21507812 1.03515625 8.06640625 C1.02355469 8.70449219 1.01195312 9.34257813 1 10 C-2.25 10.25 -2.25 10.25 -6 10 C-7.35368596 8.68733482 -8.68799596 7.35432675 -10 6 C-13.167832 5.66551741 -13.167832 5.66551741 -16 6 C-16 5.01 -16 4.02 -16 3 C-11.56216277 -1.13177949 -5.68911829 -0.49636603 0 0 Z " fill="#39D3D4" transform="translate(134,33)"/>
<path d="M0 0 C0.66 0 1.32 0 2 0 C2.33 2.31 2.66 4.62 3 7 C6.3 7.33 9.6 7.66 13 8 C12.01 9.98 11.02 11.96 10 14 C9.01 14 8.02 14 7 14 C7 14.66 7 15.32 7 16 C6.01 16 5.02 16 4 16 C3.67 16.66 3.34 17.32 3 18 C1.68 18 0.36 18 -1 18 C-1.02717692 15.93757383 -1.0464758 13.87504297 -1.0625 11.8125 C-1.07410156 10.66394531 -1.08570312 9.51539062 -1.09765625 8.33203125 C-1.01192832 5.40699414 -0.67849023 2.83683709 0 0 Z " fill="#6C72FE" transform="translate(103,106)"/>
<path d="M0 0 C5.28 0 10.56 0 16 0 C16 2.31 16 4.62 16 7 C10.72 7 5.44 7 0 7 C0 4.69 0 2.38 0 0 Z " fill="#8099FE" transform="translate(82,85)"/>
<path d="M0 0 C2.875 1 2.875 1 4.25 3.0625 C4.45625 3.701875 4.6625 4.34125 4.875 5 C6.525 5 8.175 5 9.875 5 C10.205 5.99 10.535 6.98 10.875 8 C3.285 8 -4.305 8 -12.125 8 C-11.795 7.01 -11.465 6.02 -11.125 5 C-10.526875 4.855625 -9.92875 4.71125 -9.3125 4.5625 C-6.9166207 4.1646438 -6.9166207 4.1646438 -5.25 1.875 C-3.125 0 -3.125 0 0 0 Z " fill="#F8FDFD" transform="translate(123.125,38)"/>
<path d="M0 0 C2.31 0 4.62 0 7 0 C7 2.97 7 5.94 7 9 C8.32 9.33 9.64 9.66 11 10 C10.34 10 9.68 10 9 10 C8.79375 10.61875 8.5875 11.2375 8.375 11.875 C6.45224112 14.84653645 4.33405473 15.13024659 1 16 C0 15 0 15 -0.09765625 11.62109375 C-0.09098369 10.22652923 -0.07902532 8.83198257 -0.0625 7.4375 C-0.05798828 6.72658203 -0.05347656 6.01566406 -0.04882812 5.28320312 C-0.03700864 3.52209987 -0.01907263 1.76103964 0 0 Z " fill="#6C74FE" transform="translate(98,54)"/>
<path d="M0 0 C0.721875 0.391875 1.44375 0.78375 2.1875 1.1875 C3.52109073 7.61298263 3.52109073 7.61298263 2.0625 10.125 C-0.44897631 11.54816991 -1.96753228 11.61424516 -4.8125 11.1875 C-6.625 10.0625 -6.625 10.0625 -7.8125 8.1875 C-8.3125 5.1875 -8.3125 5.1875 -7.8125 2.1875 C-4.94701137 -0.43237532 -3.78304028 -1.0928783 0 0 Z " fill="#7FDEE5" transform="translate(116.8125,99.8125)"/>
<path d="M0 0 C2.64 0 5.28 0 8 0 C8 3.96 8 7.92 8 12 C6.68 11.34 5.36 10.68 4 10 C1.40845081 9.75970041 1.40845081 9.75970041 -1.25 9.875 C-2.58804688 9.90207031 -2.58804688 9.90207031 -3.953125 9.9296875 C-4.62859375 9.95289062 -5.3040625 9.97609375 -6 10 C-4.71034824 8.62437146 -3.37310707 7.29233607 -2 6 C-1.34 6 -0.68 6 0 6 C0 5.01 0 4.02 0 3 C0.66 3 1.32 3 2 3 C2 2.34 2 1.68 2 1 C1.34 0.67 0.68 0.34 0 0 Z " fill="#6357FE" transform="translate(119,86)"/>
<path d="M0 0 C1.65 0 3.3 0 5 0 C4.67 2.64 4.34 5.28 4 8 C4.9590625 8.1546875 4.9590625 8.1546875 5.9375 8.3125 C6.9584375 8.6528125 6.9584375 8.6528125 8 9 C8.33 9.99 8.66 10.98 9 12 C4.05 12 -0.9 12 -6 12 C-6 11.34 -6 10.68 -6 10 C-4.02 10 -2.04 10 0 10 C0 8.68 0 7.36 0 6 C-1.98 6 -3.96 6 -6 6 C-6 5.34 -6 4.68 -6 4 C-4.02 4 -2.04 4 0 4 C0 2.68 0 1.36 0 0 Z " fill="#75D7E2" transform="translate(13,65)"/>
<path d="M0 0 C0.02685095 2.47923801 0.04676547 4.9581884 0.0625 7.4375 C0.07087891 8.14455078 0.07925781 8.85160156 0.08789062 9.58007812 C0.09653588 11.38693559 0.05220011 13.19387603 0 15 C-1 16 -1 16 -4.59765625 16.09765625 C-6.08596867 16.0909822 -7.57426432 16.07902183 -9.0625 16.0625 C-9.82111328 16.05798828 -10.57972656 16.05347656 -11.36132812 16.04882812 C-13.24091871 16.0370068 -15.12046899 16.01907078 -17 16 C-17 15.34 -17 14.68 -17 14 C-15.35 14 -13.7 14 -12 14 C-11.67 13.34 -11.34 12.68 -11 12 C-10.21625 12.04125 -9.4325 12.0825 -8.625 12.125 C-5.83883881 12.28728734 -5.83883881 12.28728734 -4 10 C-4.020625 8.865625 -4.04125 7.73125 -4.0625 6.5625 C-4 3 -4 3 -2.5625 1.0625 C-1 0 -1 0 0 0 Z " fill="#37DBCC" transform="translate(123,98)"/>
<path d="M0 0 C5.94 0 11.88 0 18 0 C18 3 18 3 17 5 C11.39 5 5.78 5 0 5 C0 3.35 0 1.7 0 0 Z " fill="#34ACC5" transform="translate(98,49)"/>
<path d="M0 0 C0 1.98 0 3.96 0 6 C-6.93 6 -13.86 6 -21 6 C-21 5.01 -21 4.02 -21 3 C-17.37 3 -13.74 3 -10 3 C-10 2.34 -10 1.68 -10 1 C-8.5209084 0.83266843 -7.04172444 0.66615314 -5.5625 0.5 C-4.73878906 0.4071875 -3.91507813 0.314375 -3.06640625 0.21875 C-1 0 -1 0 0 0 Z " fill="#38D9C6" transform="translate(34,74)"/>
<path d="M0 0 C3.96 0 7.92 0 12 0 C10.02 0.99 10.02 0.99 8 2 C8 2.66 8 3.32 8 4 C8.66 4.33 9.32 4.66 10 5 C9.01 5.66 8.02 6.32 7 7 C6.54625 7.45375 6.0925 7.9075 5.625 8.375 C3.55916544 10.44083456 1.29749931 12.1992573 -1 14 C-1.33 13.01 -1.66 12.02 -2 11 C-1.34 11 -0.68 11 0 11 C0 9.68 0 8.36 0 7 C0 4.66666667 0 2.33333333 0 0 Z " fill="#36D7CD" transform="translate(121,47)"/>
<path d="M0 0 C1.32 0 2.64 0 4 0 C4 6.6 4 13.2 4 20 C2.68 19.67 1.36 19.34 0 19 C0 12.73 0 6.46 0 0 Z " fill="#3E3E8B" transform="translate(115,63)"/>
<path d="M0 0 C12.87 0 25.74 0 39 0 C39 0.66 39 1.32 39 2 C29.43 2 19.86 2 10 2 C10 2.66 10 3.32 10 4 C9.01 4 8.02 4 7 4 C7 3.34 7 2.68 7 2 C4.69 2 2.38 2 0 2 C0 1.34 0 0.68 0 0 Z " fill="#75D5E3" transform="translate(34,45)"/>
<path d="M0 0 C1.67542976 0.28604898 3.34385343 0.61781233 5 1 C5.97477898 4.72188336 6.12816587 6.64248468 4.8125 10.3125 C3 13 3 13 0.88671875 13.66796875 C0.26410156 13.77753906 -0.35851562 13.88710938 -1 14 C-1.02685938 11.85423363 -1.04633088 9.70837355 -1.0625 7.5625 C-1.07410156 6.36753906 -1.08570312 5.17257813 -1.09765625 3.94140625 C-1 1 -1 1 0 0 Z " fill="#31C6E0" transform="translate(106,33)"/>
<path d="M0 0 C8.58 0 17.16 0 26 0 C25.67 0.99 25.34 1.98 25 3 C17.08 3 9.16 3 1 3 C0.67 2.01 0.34 1.02 0 0 Z " fill="#4C4CA0" transform="translate(101,124)"/>
<path d="M0 0 C0.65739166 0.02361099 1.31478333 0.04722198 1.99209595 0.07154846 C4.0705102 0.1474907 6.14848442 0.23180808 8.2265625 0.31640625 C9.64451046 0.36969673 11.06247923 0.42243652 12.48046875 0.47460938 C15.93776353 0.60300991 19.39471528 0.73891822 22.8515625 0.87890625 C22.8515625 1.53890625 22.8515625 2.19890625 22.8515625 2.87890625 C10.6415625 2.87890625 -1.5684375 2.87890625 -14.1484375 2.87890625 C-13.8184375 2.21890625 -13.4884375 1.55890625 -13.1484375 0.87890625 C-8.71748649 -0.19264444 -4.53548982 -0.17444192 0 0 Z " fill="#87B4FE" transform="translate(71.1484375,118.12109375)"/>
<path d="M0 0 C6.27 0 12.54 0 19 0 C19 1.65 19 3.3 19 5 C14.71 5 10.42 5 6 5 C6 4.01 6 3.02 6 2 C3.03 1.505 3.03 1.505 0 1 C0 0.67 0 0.34 0 0 Z " fill="#86DBE4" transform="translate(7,58)"/>
<path d="M0 0 C0.66 0.33 1.32 0.66 2 1 C2 4.3 2 7.6 2 11 C-1.3 11 -4.6 11 -8 11 C-5.81880768 6.63761536 -3.51788014 3.35036203 0 0 Z " fill="#758DFE" transform="translate(113,71)"/>
<path d="M0 0 C0.66 0 1.32 0 2 0 C2.33 1.32 2.66 2.64 3 4 C3 3.01 3 2.02 3 1 C3.66 1 4.32 1 5 1 C6.6875 2.8125 6.6875 2.8125 8 5 C7.67 5.99 7.34 6.98 7 8 C6.34 8 5.68 8 5 8 C5 8.66 5 9.32 5 10 C4.34 10 3.68 10 3 10 C3 9.01 3 8.02 3 7 C2.01 7 1.02 7 0 7 C-0.33 8.65 -0.66 10.3 -1 12 C-1.66 12 -2.32 12 -3 12 C-2.14285714 3.42857143 -2.14285714 3.42857143 0 0 Z " fill="#97E0E9" transform="translate(47,90)"/>
<path d="M0 0 C0.99 0 1.98 0 3 0 C4.14077657 3.42232972 4.09815117 6.08673217 4.0625 9.6875 C4.05347656 10.86699219 4.04445313 12.04648438 4.03515625 13.26171875 C4.02355469 14.16535156 4.01195313 15.06898437 4 16 C2.68 16.33 1.36 16.66 0 17 C0 11.39 0 5.78 0 0 Z " fill="#707FFE" transform="translate(123,95)"/>
<path d="M0 0 C0.57234375 0.23589844 1.1446875 0.47179687 1.734375 0.71484375 C1.280625 1.41609375 0.826875 2.11734375 0.359375 2.83984375 C-1.28249443 5.74468966 -2.30239599 8.52877855 -3.265625 11.71484375 C-6.12688684 11.32018694 -7.05702204 10.97572192 -8.90234375 8.66796875 C-9.35222656 8.0234375 -9.80210938 7.37890625 -10.265625 6.71484375 C-9.03009224 5.51229851 -7.77660161 4.32818143 -6.515625 3.15234375 C-5.81953125 2.49105469 -5.1234375 1.82976562 -4.40625 1.1484375 C-2.265625 -0.28515625 -2.265625 -0.28515625 0 0 Z " fill="#4DBADE" transform="translate(47.265625,88.28515625)"/>
<path d="M0 0 C2.31 0 4.62 0 7 0 C7 1.65 7 3.3 7 5 C3.37 5 -0.26 5 -4 5 C-4 6.65 -4 8.3 -4 10 C-5.32 10 -6.64 10 -8 10 C-8 8.02 -8 6.04 -8 4 C-5.36 4 -2.72 4 0 4 C0 2.68 0 1.36 0 0 Z " fill="#3D418D" transform="translate(34,49)"/>
<path d="M0 0 C0.33 0.66 0.66 1.32 1 2 C4.3 2 7.6 2 11 2 C11 2.66 11 3.32 11 4 C8.703463 5.1482685 7.41686833 5.11561175 4.8671875 5.09765625 C4.06152344 5.09443359 3.25585938 5.09121094 2.42578125 5.08789062 C1.58402344 5.07951172 0.74226563 5.07113281 -0.125 5.0625 C-0.97449219 5.05798828 -1.82398438 5.05347656 -2.69921875 5.04882812 C-4.79950909 5.03702874 -6.8997633 5.01909306 -9 5 C-9.33 4.01 -9.66 3.02 -10 2 C-6.7 2 -3.4 2 0 2 C0 1.34 0 0.68 0 0 Z " fill="#41D8CF" transform="translate(43,100)"/>
<path d="M0 0 C1.24716797 0.00322266 2.49433594 0.00644531 3.77929688 0.00976562 C5.07287109 0.01814453 6.36644531 0.02652344 7.69921875 0.03515625 C9.66858398 0.04192383 9.66858398 0.04192383 11.67773438 0.04882812 C14.91410885 0.06059676 18.15039053 0.07703865 21.38671875 0.09765625 C21.05671875 0.75765625 20.72671875 1.41765625 20.38671875 2.09765625 C19.73074707 2.11747559 19.07477539 2.13729492 18.39892578 2.15771484 C15.43610806 2.25278132 12.47401343 2.36253377 9.51171875 2.47265625 C7.96291016 2.5190625 7.96291016 2.5190625 6.3828125 2.56640625 C4.90361328 2.62441406 4.90361328 2.62441406 3.39453125 2.68359375 C2.4833252 2.71501465 1.57211914 2.74643555 0.63330078 2.77880859 C-1.81259311 2.89648136 -1.81259311 2.89648136 -3.61328125 5.09765625 C-6.34197532 5.06478042 -8.90994305 4.53367854 -11.61328125 4.09765625 C-11.61328125 3.10765625 -11.61328125 2.11765625 -11.61328125 1.09765625 C-7.68039761 0.16677716 -4.03673962 -0.0184326 0 0 Z " fill="#D9D9E8" transform="translate(106.61328125,125.90234375)"/>
<path d="M0 0 C7.92 0 15.84 0 24 0 C24.33 1.32 24.66 2.64 25 4 C24.01 4 23.02 4 22 4 C22 3.34 22 2.68 22 2 C14.74 2 7.48 2 0 2 C0 1.34 0 0.68 0 0 Z " fill="#49D7D3" transform="translate(73,45)"/>
<path d="M0 0 C4.29 0 8.58 0 13 0 C11.515 1.485 11.515 1.485 10 3 C9.34 3 8.68 3 8 3 C8 4.32 8 5.64 8 7 C5.03 6.505 5.03 6.505 2 6 C1.34 4.02 0.68 2.04 0 0 Z " fill="#6FD5E3" transform="translate(110,33)"/>
<path d="M0 0 C2.31 0 4.62 0 7 0 C7.33 0.66 7.66 1.32 8 2 C7.01 3.485 7.01 3.485 6 5 C5.01 5 4.02 5 3 5 C3 6.32 3 7.64 3 9 C2.34 9 1.68 9 1 9 C0.67 9.66 0.34 10.32 0 11 C0 7.37 0 3.74 0 0 Z " fill="#5934FF" transform="translate(102,86)"/>
<path d="M0 0 C1.23556641 0.01740234 1.23556641 0.01740234 2.49609375 0.03515625 C3.32238281 0.04417969 4.14867187 0.05320312 5 0.0625 C5.63808594 0.07410156 6.27617188 0.08570312 6.93359375 0.09765625 C7.26359375 0.75765625 7.59359375 1.41765625 7.93359375 2.09765625 C6.61359375 2.09765625 5.29359375 2.09765625 3.93359375 2.09765625 C3.93359375 2.75765625 3.93359375 3.41765625 3.93359375 4.09765625 C1.62359375 5.41765625 -0.68640625 6.73765625 -3.06640625 8.09765625 C-3.10882348 5.7647085 -3.10733562 3.43063058 -3.06640625 1.09765625 C-2.06640625 0.09765625 -2.06640625 0.09765625 0 0 Z " fill="#4697EB" transform="translate(36.06640625,85.90234375)"/>
<path d="M0 0 C0.99 0 1.98 0 3 0 C3 5.28 3 10.56 3 16 C2.01 16 1.02 16 0 16 C0 10.72 0 5.44 0 0 Z " fill="#38D0CA" transform="translate(95,49)"/>
<path d="M0 0 C2.31 0 4.62 0 7 0 C7 1.98 7 3.96 7 6 C4.69 6 2.38 6 0 6 C0 4.02 0 2.04 0 0 Z " fill="#A2C2FF" transform="translate(74,85)"/>
<path d="M0 0 C2.64 0 5.28 0 8 0 C7.67 1.32 7.34 2.64 7 4 C6.01 4 5.02 4 4 4 C4 4.99 4 5.98 4 7 C2.68 7 1.36 7 0 7 C0 4.69 0 2.38 0 0 Z " fill="#3CB0CF" transform="translate(26,59)"/>
<path d="M0 0 C0.66 0 1.32 0 2 0 C2 2.33333333 2 4.66666667 2 7 C2.33 7.33 2.66 7.66 3 8 C3.04080783 9.99958364 3.04254356 12.00045254 3 14 C1.68 14 0.36 14 -1 14 C-1.22151549 12.20991533 -1.42682213 10.41781838 -1.625 8.625 C-1.74101563 7.62726562 -1.85703125 6.62953125 -1.9765625 5.6015625 C-1.98429687 4.74304687 -1.99203125 3.88453125 -2 3 C-1.34 2.34 -0.68 1.68 0 1 C0 0.67 0 0.34 0 0 Z " fill="#37C1C7" transform="translate(116,49)"/>
<path d="M0 0 C3.3 0 6.6 0 10 0 C10 0.66 10 1.32 10 2 C9.030625 2.2475 8.06125 2.495 7.0625 2.75 C6.051875 3.1625 5.04125 3.575 4 4 C3.26676204 6.01508358 3.26676204 6.01508358 3 8 C2.01 8.33 1.02 8.66 0 9 C0 6.03 0 3.06 0 0 Z " fill="#3DBCDD" transform="translate(105,54)"/>
<path d="M0 0 C3.36704285 -0.2295711 5.41370268 -0.33943529 8.375 1.375 C8.91125 1.91125 9.4475 2.4475 10 3 C10 3.66 10 4.32 10 5 C6.7 5 3.4 5 0 5 C0 3.35 0 1.7 0 0 Z " fill="#34ABC5" transform="translate(33,97)"/>
<path d="M0 0 C1.37478516 0.01740234 1.37478516 0.01740234 2.77734375 0.03515625 C3.69644531 0.04417969 4.61554688 0.05320312 5.5625 0.0625 C6.27277344 0.07410156 6.98304687 0.08570312 7.71484375 0.09765625 C4.71484375 2.09765625 4.71484375 2.09765625 1.71484375 2.09765625 C1.71484375 2.75765625 1.71484375 3.41765625 1.71484375 4.09765625 C0.04817708 5.76432292 -1.61848958 7.43098958 -3.28515625 9.09765625 C-3.3828125 2.9453125 -3.3828125 2.9453125 -3.28515625 1.09765625 C-2.28515625 0.09765625 -2.28515625 0.09765625 0 0 Z " fill="#45B4F5" transform="translate(108.28515625,95.90234375)"/>
<path d="M0 0 C0 0.33 0 0.66 0 1 C-1.98 1 -3.96 1 -6 1 C-6 3.64 -6 6.28 -6 9 C-8.64 8.67 -11.28 8.34 -14 8 C-14 7.67 -14 7.34 -14 7 C-12.35 6.67 -10.7 6.34 -9 6 C-8.67 4.68 -8.34 3.36 -8 2 C-9.98 2 -11.96 2 -14 2 C-14 1.67 -14 1.34 -14 1 C-9.32798795 -0.20568053 -4.78503708 -0.09382426 0 0 Z " fill="#88D8E8" transform="translate(21,33)"/>
<path d="M0 0 C1.98 0 3.96 0 6 0 C6 1.98 6 3.96 6 6 C4.02 6 2.04 6 0 6 C0 4.02 0 2.04 0 0 Z " fill="#A6C7FF" transform="translate(91,85)"/>
<path d="M0 0 C1.98 0 3.96 0 6 0 C6 1.98 6 3.96 6 6 C4.02 6 2.04 6 0 6 C0 4.02 0 2.04 0 0 Z " fill="#A6C7FF" transform="translate(83,85)"/>
<path d="M0 0 C0.99 0 1.98 0 3 0 C3.08121924 1.60332791 3.13929134 3.20784026 3.1875 4.8125 C3.23970703 6.15248047 3.23970703 6.15248047 3.29296875 7.51953125 C3 10 3 10 0 13 C0 8.71 0 4.42 0 0 Z " fill="#3B96D8" transform="translate(41,49)"/>
<path d="M0 0 C2.31 0 4.62 0 7 0 C7 1.65 7 3.3 7 5 C4.69 5 2.38 5 0 5 C0 3.35 0 1.7 0 0 Z " fill="#3C3E8A" transform="translate(98,49)"/>
<path d="M0 0 C6.6 0 13.2 0 20 0 C20 0.99 20 1.98 20 3 C13.4 2.34 6.8 1.68 0 1 C0 0.67 0 0.34 0 0 Z " fill="#41D1D8" transform="translate(14,32)"/>
<path d="M0 0 C0.33 0 0.66 0 1 0 C1 2.97 1 5.94 1 9 C-0.32 8.34 -1.64 7.68 -3 7 C-3.99 7 -4.98 7 -6 7 C-5.67 5.35 -5.34 3.7 -5 2 C-4.360625 1.855625 -3.72125 1.71125 -3.0625 1.5625 C-1.02454854 1.18992819 -1.02454854 1.18992819 0 0 Z " fill="#6763FF" transform="translate(126,89)"/>
<path d="M0 0 C1.9375 0.3125 1.9375 0.3125 4 1 C4.33 1.99 4.66 2.98 5 4 C0.05 4 -4.9 4 -10 4 C-10 3.34 -10 2.68 -10 2 C-6.7 1.67 -3.4 1.34 0 1 C0 0.67 0 0.34 0 0 Z " fill="#88D9E4" transform="translate(17,73)"/>
<path d="M0 0 C0.99 1.32 1.98 2.64 3 4 C5.16874252 3.49396008 6.99967627 3.00016187 9 2 C7.79618552 4.49361571 6.54571278 6.68143083 5 9 C4.01 8.67 3.02 8.34 2 8 C1.67 7.34 1.34 6.68 1 6 C0.01 5.67 -0.98 5.34 -2 5 C-2 4.01 -2 3.02 -2 2 C-1.34 2 -0.68 2 0 2 C0 1.34 0 0.68 0 0 Z " fill="#F5FCFD" transform="translate(19,68)"/>
<path d="M0 0 C0.33 0.66 0.66 1.32 1 2 C-4.61 2 -10.22 2 -16 2 C-15.67 1.34 -15.34 0.68 -15 0 C-10.08930805 -1.35044029 -4.94223317 -1.19654066 0 0 Z " fill="#99C0FE" transform="translate(73,119)"/>
<path d="M0 0 C0.66 0 1.32 0 2 0 C1.69106068 1.6256807 1.3777305 3.25052748 1.0625 4.875 C0.88847656 5.77992187 0.71445312 6.68484375 0.53515625 7.6171875 C0 10 0 10 -1 12 C-1.66 12 -2.32 12 -3 12 C-2.14285714 3.42857143 -2.14285714 3.42857143 0 0 Z " fill="#DCF3F7" transform="translate(47,90)"/>
<path d="M0 0 C1.67542976 0.28604898 3.34385343 0.61781233 5 1 C4.67 2.32 4.34 3.64 4 5 C2.68 5.33 1.36 5.66 0 6 C-0.38218767 4.34385343 -0.71395102 2.67542976 -1 1 C-0.67 0.67 -0.34 0.34 0 0 Z " fill="#51D0DD" transform="translate(22,67)"/>
<path d="M0 0 C0.99 0 1.98 0 3 0 C4.26264601 4.29299643 3.62950412 6.87831311 2 11 C1.34 10.67 0.68 10.34 0 10 C0 6.7 0 3.4 0 0 Z " fill="#6C72FE" transform="translate(123,95)"/>
<path d="M0 0 C3.375 0.3125 3.375 0.3125 7 1 C7.66 1.99 8.32 2.98 9 4 C5.7 4 2.4 4 -1 4 C-0.67 2.68 -0.34 1.36 0 0 Z " fill="#32C7DF" transform="translate(14,59)"/>
<path d="M0 0 C1.67542976 0.28604898 3.34385343 0.61781233 5 1 C4.67 2.32 4.34 3.64 4 5 C3.34 5 2.68 5 2 5 C2 4.34 2 3.68 2 3 C1.34 3 0.68 3 0 3 C-0.33 4.65 -0.66 6.3 -1 8 C-1.66 7.67 -2.32 7.34 -3 7 C-1.125 1.125 -1.125 1.125 0 0 Z " fill="#3EBBDB" transform="translate(51,86)"/>
<path d="M0 0 C3.3 0 6.6 0 10 0 C10 0.66 10 1.32 10 2 C6.78548731 3.60725635 3.56387464 3.05748185 0 3 C0 2.01 0 1.02 0 0 Z " fill="#33D3D1" transform="translate(13,77)"/>
<path d="M0 0 C0.33 0.99 0.66 1.98 1 3 C-2.50776784 4.60355101 -5.14354879 5.22036864 -9 5 C-9.33 4.01 -9.66 3.02 -10 2 C-6.7 2 -3.4 2 0 2 C0 1.34 0 0.68 0 0 Z " fill="#4FCFD8" transform="translate(43,100)"/>
<path d="M0 0 C0.66 0 1.32 0 2 0 C2 1.65 2 3.3 2 5 C2.66 5.33 3.32 5.66 4 6 C3.01 7.485 3.01 7.485 2 9 C-1.875 7.25 -1.875 7.25 -3 5 C-2.01 5 -1.02 5 0 5 C0 3.35 0 1.7 0 0 Z " fill="#EFFAFA" transform="translate(119,49)"/>
<path d="M0 0 C0.78375 0.04125 1.5675 0.0825 2.375 0.125 C2.045 2.105 1.715 4.085 1.375 6.125 C0.055 6.125 -1.265 6.125 -2.625 6.125 C-3.285 4.805 -3.945 3.485 -4.625 2.125 C-2.625 0.125 -2.625 0.125 0 0 Z " fill="#43D0E2" transform="translate(114.625,100.875)"/>
<path d="M0 0 C0.33 0 0.66 0 1 0 C1 2.64 1 5.28 1 8 C-0.32 8 -1.64 8 -3 8 C-3.33 7.01 -3.66 6.02 -4 5 C-2.125 2.3125 -2.125 2.3125 0 0 Z " fill="#37CECD" transform="translate(59,88)"/>
<path d="M0 0 C-0.66 1.65 -1.32 3.3 -2 5 C-4.97 4.505 -4.97 4.505 -8 4 C-5.29881977 1.17603885 -4.05589853 0 0 0 Z " fill="#40CEE4" transform="translate(123,96)"/>
<path d="M0 0 C2 2 2 2 2 6 C0.5 7.75 0.5 7.75 -1 9 C-1.66 8.67 -2.32 8.34 -3 8 C-2.67 6.02 -2.34 4.04 -2 2 C-1.34 2 -0.68 2 0 2 C0 1.34 0 0.68 0 0 Z " fill="#42C3DA" transform="translate(32,61)"/>
<path d="M0 0 C0.66 0 1.32 0 2 0 C2.29296875 5.95703125 2.29296875 5.95703125 2 8 C1.01 8.99 0.02 9.98 -1 11 C-0.67 7.37 -0.34 3.74 0 0 Z " fill="#665FFF" transform="translate(103,106)"/>
<path d="M0 0 C0.5625 1.9375 0.5625 1.9375 1 4 C0 5 0 5 -3.5625 5.0625 C-4.696875 5.041875 -5.83125 5.02125 -7 5 C-5.68 4.34 -4.36 3.68 -3 3 C-3 2.34 -3 1.68 -3 1 C-2.01 0.67 -1.02 0.34 0 0 Z " fill="#36E0C0" transform="translate(59,100)"/>
<path d="M0 0 C1.98 0.66 3.96 1.32 6 2 C5.01 2.66 4.02 3.32 3 4 C2.01 5.485 2.01 5.485 1 7 C-1 6 -1 6 -1.75 4.0625 C-1.8325 3.381875 -1.915 2.70125 -2 2 C-1.34 1.34 -0.68 0.68 0 0 Z " fill="#D9F1F8" transform="translate(19,64)"/>
<path d="M0 0 C0.33 0 0.66 0 1 0 C1 2.64 1 5.28 1 8 C0.01 8.33 -0.98 8.66 -2 9 C-2.25 3.375 -2.25 3.375 0 0 Z " fill="#409AE9" transform="translate(43,59)"/>
<path d="M0 0 C1.32 0.66 2.64 1.32 4 2 C2 4 2 4 -1.625 4.125 C-2.73875 4.08375 -3.8525 4.0425 -5 4 C-5 3.34 -5 2.68 -5 2 C-3.35 2 -1.7 2 0 2 C0 1.34 0 0.68 0 0 Z " fill="#38D6D9" transform="translate(111,110)"/>
<path d="M0 0 C0.99 0 1.98 0 3 0 C3.33 1.65 3.66 3.3 4 5 C2.35 5 0.7 5 -1 5 C-0.67 3.35 -0.34 1.7 0 0 Z " fill="#36C3C6" transform="translate(47,97)"/>
<path d="M0 0 C1.65 0 3.3 0 5 0 C5 1.32 5 2.64 5 4 C3.35 4 1.7 4 0 4 C0 2.68 0 1.36 0 0 Z " fill="#2FC4DF" transform="translate(13,65)"/>
<path d="M0 0 C1.32 0.33 2.64 0.66 4 1 C4 1.99 4 2.98 4 4 C1.69 4 -0.62 4 -3 4 C-2.01 2.68 -1.02 1.36 0 0 Z " fill="#7A9CFE" transform="translate(123,120)"/>
<path d="M0 0 C0 0.99 0 1.98 0 3 C0.3062434 4.33981486 0.63451555 5.67511887 1 7 C-0.32 6.34 -1.64 5.68 -3 5 C-3 4.01 -3 3.02 -3 2 C-2.01 1.34 -1.02 0.68 0 0 Z " fill="#E8F5F9" transform="translate(41,92)"/>
<path d="M0 0 C1.32 0.33 2.64 0.66 4 1 C2.515 3.475 2.515 3.475 1 6 C1.66 6 2.32 6 3 6 C2.67 6.66 2.34 7.32 2 8 C1.34 7.67 0.68 7.34 0 7 C0 4.69 0 2.38 0 0 Z " fill="#52D8D5" transform="translate(121,47)"/>
<path d="M0 0 C1.98 0 3.96 0 6 0 C6 0.66 6 1.32 6 2 C5.34 2 4.68 2 4 2 C4 3.65 4 5.3 4 7 C3.67 7 3.34 7 3 7 C3 5.35 3 3.7 3 2 C2.01 2 1.02 2 0 2 C0 1.34 0 0.68 0 0 Z " fill="#7ADDE3" transform="translate(115,47)"/>
</svg>
