<?xml version="1.0" encoding="UTF-8"?>
<svg version="1.1" xmlns="http://www.w3.org/2000/svg" width="150" height="150">
<path d="M0 0 C2.97 0.33 5.94 0.66 9 1 C9 2.98 9 4.96 9 7 C14.55493924 8.02703748 14.55493924 8.02703748 20 7 C20.433125 8.134375 20.86625 9.26875 21.3125 10.4375 C22.3061169 12.45153786 22.3061169 12.45153786 24 14 C26.93713773 14.71501749 29.6179844 14.87371097 32.63671875 14.9296875 C35 15 35 15 36 16 C36.15806531 17.92478813 36.251135 19.8549921 36.31640625 21.78515625 C36.37924805 23.53989258 36.37924805 23.53989258 36.44335938 25.33007812 C36.48267578 26.56177734 36.52199219 27.79347656 36.5625 29.0625 C36.60568359 30.29806641 36.64886719 31.53363281 36.69335938 32.80664062 C36.79984198 35.87097335 36.90185424 38.93539073 37 42 C38.65 42 40.3 42 42 42 C43.125 43.625 43.125 43.625 44 46 C43.125 49.25 43.125 49.25 42 52 C42.66 52 43.32 52 44 52 C43.875 53.875 43.875 53.875 43 56 C41.01276732 56.70381157 39.01222047 57.3711811 37 58 C36.67 58.99 36.34 59.98 36 61 C34.35 61 32.7 61 31 61 C31 60.01 31 59.02 31 58 C28.69 58 26.38 58 24 58 C23.01 55.525 23.01 55.525 22 53 C22.99 52.01 22.99 52.01 24 51 C23.01 48.03 23.01 48.03 22 45 C21.34 45 20.68 45 20 45 C20 51.6 20 58.2 20 65 C22.31 65 24.62 65 27 65 C28 66 28 66 28.11352539 69.96899414 C28.1133662 71.74105607 28.10766785 73.5131226 28.09765625 75.28515625 C28.0962413 76.21597519 28.09482635 77.14679413 28.09336853 78.1058197 C28.08775172 81.09141191 28.0751964 84.07693029 28.0625 87.0625 C28.05748716 89.08137913 28.05292388 91.10025943 28.04882812 93.11914062 C28.03777683 98.07945572 28.02050095 103.03971532 28 108 C30.31 108.66 32.62 109.32 35 110 C34 112 34 112 32.34521484 112.61450195 C27.49200924 113.41225457 22.54404055 113.18590312 17.63769531 113.18530273 C15.63863013 113.18748512 13.63960468 113.20599143 11.640625 113.22460938 C10.36960937 113.22654297 9.09859375 113.22847656 7.7890625 113.23046875 C6.63100098 113.23457764 5.47293945 113.23868652 4.27978516 113.24291992 C0.88689046 112.99162245 -1.83332989 112.21173908 -5 111 C-4.67 110.34 -4.34 109.68 -4 109 C-1.4375 108.375 -1.4375 108.375 1 108 C0.32142944 107.99191315 -0.35714111 107.98382629 -1.05627441 107.97549438 C-8.19572947 107.88863335 -15.33493245 107.7891071 -22.47412109 107.68261719 C-25.12938188 107.64363425 -27.7845665 107.60971702 -30.43994141 107.578125 C-68.93926359 107.11445232 -68.93926359 107.11445232 -76 103 C-75.67 102.34 -75.34 101.68 -75 101 C-73.68 101 -72.36 101 -71 101 C-71.495 100.01 -71.495 100.01 -72 99 C-75.02934491 98.34227572 -75.02934491 98.34227572 -78 98 C-78.33 98.99 -78.66 99.98 -79 101 C-81.4375 100.25 -81.4375 100.25 -84 99 C-85.46033772 95.85465721 -85.07767332 92.41762598 -85 89 C-86.65 89 -88.3 89 -90 89 C-90 86.36 -90 83.72 -90 81 C-88.35 81.33 -86.7 81.66 -85 82 C-84.99613281 81.07767578 -84.99613281 81.07767578 -84.9921875 80.13671875 C-84.87217945 77.62855042 -84.68225725 75.42008233 -84 73 C-80.9375 70.9375 -80.9375 70.9375 -78 70 C-77.34 70.99 -76.68 71.98 -76 73 C-74.515 73.495 -74.515 73.495 -73 74 C-73 71.03 -73 68.06 -73 65 C-79.27 65 -85.54 65 -92 65 C-92 64.34 -92 63.68 -92 63 C-89.03 62.505 -89.03 62.505 -86 62 C-86 61.01 -86 60.02 -86 59 C-87.98 59 -89.96 59 -92 59 C-92 58.34 -92 57.68 -92 57 C-90.02 57 -88.04 57 -86 57 C-86 55.68 -86 54.36 -86 53 C-87.98 53 -89.96 53 -92 53 C-92 52.34 -92 51.68 -92 51 C-90.02 51 -88.04 51 -86 51 C-86 49.68 -86 48.36 -86 47 C-87.98 47 -89.96 47 -92 47 C-92 46.34 -92 45.68 -92 45 C-90.02 45 -88.04 45 -86 45 C-86 44.01 -86 43.02 -86 42 C-87.98 41.67 -89.96 41.34 -92 41 C-92 40.67 -92 40.34 -92 40 C-85.73 40 -79.46 40 -73 40 C-73 38.35 -73 36.7 -73 35 C-79.27 35 -85.54 35 -92 35 C-92 34.67 -92 34.34 -92 34 C-90.02 34 -88.04 34 -86 34 C-86 32.35 -86 30.7 -86 29 C-87.98 29 -89.96 29 -92 29 C-92 28.67 -92 28.34 -92 28 C-90.35 27.67 -88.7 27.34 -87 27 C-86.67 25.68 -86.34 24.36 -86 23 C-87.98 23 -89.96 23 -92 23 C-92 22.67 -92 22.34 -92 22 C-90.35 21.67 -88.7 21.34 -87 21 C-86.67 19.68 -86.34 18.36 -86 17 C-87.98 17 -89.96 17 -92 17 C-92 16.67 -92 16.34 -92 16 C-86.2296692 14.02428891 -81.07456414 13.69560092 -75 13.75 C-74.13632813 13.74226563 -73.27265625 13.73453125 -72.3828125 13.7265625 C-67.20304803 13.74230646 -62.90380939 14.32097831 -58 16 C-58 16.33 -58 16.66 -58 17 C-60.31 17 -62.62 17 -65 17 C-64.67 18.32 -64.34 19.64 -64 21 C-62.02 21.33 -60.04 21.66 -58 22 C-58 22.33 -58 22.66 -58 23 C-60.31 23 -62.62 23 -65 23 C-64.67 24.32 -64.34 25.64 -64 27 C-62.0085944 27.38133299 -60.00720923 27.71325582 -58 28 C-57.505 27.505 -57.505 27.505 -57 27 C-54.03034051 26.86426923 -51.08072909 26.78931367 -48.109375 26.75390625 C-46.26692255 26.7209558 -44.42447475 26.68774437 -42.58203125 26.65429688 C-39.66784002 26.60694556 -36.75366603 26.56254951 -33.83935547 26.52319336 C-31.03332143 26.48339315 -28.22768748 26.43185292 -25.421875 26.37890625 C-24.1200528 26.36628502 -24.1200528 26.36628502 -22.79193115 26.35340881 C-18.42927701 26.2645698 -14.97197235 26.02911567 -11 24 C-11.18129815 20.56206661 -11.18129815 20.56206661 -12 17 C-13.93597032 15.48705712 -13.93597032 15.48705712 -16 15 C-14.87548273 12.0280615 -13.77706209 9.66559313 -12 7 C-10.906875 7.20625 -9.81375 7.4125 -8.6875 7.625 C-4.9161599 8.40346525 -4.9161599 8.40346525 -2 6 C-0.78715124 2.94570927 -0.78715124 2.94570927 0 0 Z M-3 14.0625 C-5.51930235 17.76272533 -5.7066341 19.6031656 -5 24 C-3.59121904 26.9901643 -3.59121904 26.9901643 -1 29 C2.64182335 29.89055736 2.64182335 29.89055736 6 30 C6.03738281 29.01257813 6.07476562 28.02515625 6.11328125 27.0078125 C6.17902344 25.72648437 6.24476562 24.44515625 6.3125 23.125 C6.37050781 21.84882812 6.42851563 20.57265625 6.48828125 19.2578125 C6.65714844 18.18273437 6.82601562 17.10765625 7 16 C7.99 15.34 8.98 14.68 10 14 C8.01607489 11.60148679 8.01607489 11.60148679 4.1875 11.5625 C0.78236185 11.661739 -0.029595 12.02034656 -3 14.0625 Z M-65 29 C-65 29.66 -65 30.32 -65 31 C-62.69 31 -60.38 31 -58 31 C-58 30.34 -58 29.68 -58 29 C-60.31 29 -62.62 29 -65 29 Z M28 47 C27.6366844 49.83386167 27.6431329 51.40522151 29.125 53.875 C31.92151052 55.55290631 33.93690532 54.74875648 37 54 C37.67673447 50.59679066 37.67673447 50.59679066 38 47 C36.11499729 44.68436913 36.11499729 44.68436913 33 44.75 C29.88500271 44.68436913 29.88500271 44.68436913 28 47 Z M-79.25 80.625 C-81.21985834 82.92308586 -81.21985834 82.92308586 -81.5 86 C-81.21376982 89.06575838 -81.21376982 89.06575838 -79.3125 91.375 C-76.61209763 93.27258004 -75.22939919 93.35882213 -72 93 C-71.85024761 85.94348748 -71.85024761 85.94348748 -73 79 C-76.92212225 78.60967296 -76.92212225 78.60967296 -79.25 80.625 Z M-65 95 C-65 96.65 -65 98.3 -65 100 C-52.13 99.01 -52.13 99.01 -39 98 C-38.67 97.01 -38.34 96.02 -38 95 C-46.91 95 -55.82 95 -65 95 Z M-14 95 C-14 95.99 -14 96.98 -14 98 C-8.72 98.33 -3.44 98.66 2 99 C2 97.68 2 96.36 2 95 C-3.28 95 -8.56 95 -14 95 Z " fill="#5E51FD" transform="translate(99,18)"/>
<path d="M0 0 C3.77859468 3.77859468 1 10.65626015 1 16 C14.53 16 28.06 16 42 16 C42 10.72 42 5.44 42 0 C42.33 0 42.66 0 43 0 C43 3.96 43 7.92 43 12 C44.32 11.34 45.64 10.68 47 10 C49.01464844 9.77294922 49.01464844 9.77294922 51.109375 9.8046875 C52.1298291 9.81218018 52.1298291 9.81218018 53.17089844 9.81982422 C54.02200195 9.83803223 54.87310547 9.85624023 55.75 9.875 C59.83375 9.936875 59.83375 9.936875 64 10 C64 15.94 64 21.88 64 28 C53.605 28.495 53.605 28.495 43 29 C43 31.97 43 34.94 43 38 C51.25 38 59.5 38 68 38 C68 38.66 68 39.32 68 40 C70.31 40.66 72.62 41.32 75 42 C74 44 74 44 72.34521484 44.61450195 C67.49200924 45.41225457 62.54404055 45.18590312 57.63769531 45.18530273 C55.63863013 45.18748512 53.63960468 45.20599143 51.640625 45.22460938 C50.36960937 45.22654297 49.09859375 45.22847656 47.7890625 45.23046875 C46.63100098 45.23457764 45.47293945 45.23868652 44.27978516 45.24291992 C40.88689046 44.99162245 38.16667011 44.21173908 35 43 C35.495 42.01 35.495 42.01 36 41 C38.5625 40.375 38.5625 40.375 41 40 C39.98214417 39.98786972 39.98214417 39.98786972 38.94372559 39.97549438 C31.80427053 39.88863335 24.66506755 39.7891071 17.52587891 39.68261719 C14.87061812 39.64363425 12.2154335 39.60971702 9.56005859 39.578125 C-28.93926359 39.11445232 -28.93926359 39.11445232 -36 35 C-35.67 34.34 -35.34 33.68 -35 33 C-33.68 33 -32.36 33 -31 33 C-31.33 32.34 -31.66 31.68 -32 31 C-35.02934491 30.34227572 -35.02934491 30.34227572 -38 30 C-38.33 30.99 -38.66 31.98 -39 33 C-41.4375 32.25 -41.4375 32.25 -44 31 C-45.46033772 27.85465721 -45.07767332 24.41762598 -45 21 C-46.65 21 -48.3 21 -50 21 C-50 18.36 -50 15.72 -50 13 C-47.525 13.495 -47.525 13.495 -45 14 C-44.99613281 13.07767578 -44.99613281 13.07767578 -44.9921875 12.13671875 C-44.87217945 9.62855042 -44.68225725 7.42008233 -44 5 C-40.9375 2.9375 -40.9375 2.9375 -38 2 C-37.01 3.485 -37.01 3.485 -36 5 C-35.01 5.33 -34.02 5.66 -33 6 C-33 7.65 -33 9.3 -33 11 C-33.969375 11.28875 -34.93875 11.5775 -35.9375 11.875 C-39.10664203 12.64214682 -39.10664203 12.64214682 -40 15 C-40.40270732 19.1283652 -40.40270732 19.1283652 -38.8125 22.8125 C-36.57968261 24.27538036 -34.62655933 24.64505955 -32 25 C-32 22.03 -32 19.06 -32 16 C-30.02 16 -28.04 16 -26 16 C-25.67 16.66 -25.34 17.32 -25 18 C-22.03 18 -19.06 18 -16 18 C-15.81824219 16.98679687 -15.81824219 16.98679687 -15.6328125 15.953125 C-15.46523438 15.06109375 -15.29765625 14.1690625 -15.125 13.25 C-14.96257813 12.36828125 -14.80015625 11.4865625 -14.6328125 10.578125 C-14.03203736 8.13052256 -13.22002883 6.19400143 -12 4 C-11.34 4 -10.68 4 -10 4 C-9.67 3.01 -9.34 2.02 -9 1 C-6.04680226 -0.16018483 -3.14405267 -0.16994879 0 0 Z M-25 27 C-25 28.65 -25 30.3 -25 32 C-12.13 31.01 -12.13 31.01 1 30 C1.33 29.01 1.66 28.02 2 27 C-6.91 27 -15.82 27 -25 27 Z M26 27 C26 27.99 26 28.98 26 30 C31.28 30.33 36.56 30.66 42 31 C42 29.68 42 28.36 42 27 C36.72 27 31.44 27 26 27 Z " fill="#B6D2FE" transform="translate(59,86)"/>
<path d="M0 0 C2.31 0 4.62 0 7 0 C7 2.97 7 5.94 7 9 C11.62 9 16.24 9 21 9 C21 15.6 21 22.2 21 29 C23.31 29 25.62 29 28 29 C29 30 29 30 29.11352539 33.78540039 C29.11336622 35.47282729 29.10766917 37.16025905 29.09765625 38.84765625 C29.0962413 39.7340831 29.09482635 40.62050995 29.09336853 41.53379822 C29.08775215 44.37673254 29.07519691 47.21958931 29.0625 50.0625 C29.05748711 51.98502491 29.05292384 53.90755104 29.04882812 55.83007812 C29.03862648 60.55343964 29.01905437 65.27663258 29 70 C20.75 70 12.5 70 4 70 C4 67.03 4 64.06 4 61 C7.08348282 60.2291293 9.05237286 59.87918464 12.109375 59.90234375 C12.78967773 59.90484131 13.46998047 59.90733887 14.17089844 59.90991211 C15.44755371 59.92356812 15.44755371 59.92356812 16.75 59.9375 C19.4725 59.958125 22.195 59.97875 25 60 C25 54.06 25 48.12 25 42 C22.23625 42.12375 19.4725 42.2475 16.625 42.375 C15.75568848 42.40899902 14.88637695 42.44299805 13.99072266 42.47802734 C9.52456182 42.54791085 9.52456182 42.54791085 6 45 C5.01 44.34 4.02 43.68 3 43 C0.18845285 42.72351446 0.18845285 42.72351446 -2.98046875 42.8046875 C-4.14384766 42.81113281 -5.30722656 42.81757812 -6.50585938 42.82421875 C-7.72080078 42.84097656 -8.93574219 42.85773438 -10.1875 42.875 C-12.02731445 42.88853516 -12.02731445 42.88853516 -13.90429688 42.90234375 C-16.93639295 42.92593983 -19.96809938 42.95886159 -23 43 C-23.23009766 41.83404297 -23.23009766 41.83404297 -23.46484375 40.64453125 C-23.91728582 38.40874088 -24.42769881 36.20744743 -25 34 C-24.67 34.66 -24.34 35.32 -24 36 C-23.34 35.01 -22.68 34.02 -22 33 C-18.875 32.8125 -18.875 32.8125 -16 33 C-15.67 32.01 -15.34 31.02 -15 30 C-14.67 29.67 -14.34 29.34 -14 29 C-14.99 28.67 -15.98 28.34 -17 28 C-12.25 26 -12.25 26 -10 26 C-9.67 25.67 -9.34 25.34 -9 25 C-6.03 24.67 -3.06 24.34 0 24 C0 16.08 0 8.16 0 0 Z " fill="#7286FD" transform="translate(98,54)"/>
<path d="M0 0 C16.83 0 33.66 0 51 0 C51 8.91 51 17.82 51 27 C34.17 27 17.34 27 0 27 C0 18.09 0 9.18 0 0 Z " fill="#454E94" transform="translate(44,47)"/>
<path d="M0 0 C2.97 0.33 5.94 0.66 9 1 C9 2.98 9 4.96 9 7 C14.55493924 8.02703748 14.55493924 8.02703748 20 7 C20.433125 8.134375 20.86625 9.26875 21.3125 10.4375 C22.3061169 12.45153786 22.3061169 12.45153786 24 14 C26.93713773 14.71501749 29.6179844 14.87371097 32.63671875 14.9296875 C35 15 35 15 36 16 C36.15806531 17.92478813 36.251135 19.8549921 36.31640625 21.78515625 C36.35830078 22.95498047 36.40019531 24.12480469 36.44335938 25.33007812 C36.48267578 26.56177734 36.52199219 27.79347656 36.5625 29.0625 C36.60568359 30.29806641 36.64886719 31.53363281 36.69335938 32.80664062 C36.79984198 35.87097335 36.90185424 38.93539073 37 42 C38.65 42 40.3 42 42 42 C43.125 43.625 43.125 43.625 44 46 C43.125 49.25 43.125 49.25 42 52 C42.66 52 43.32 52 44 52 C43.875 53.875 43.875 53.875 43 56 C41.01276732 56.70381157 39.01222047 57.3711811 37 58 C36.67 58.99 36.34 59.98 36 61 C34.35 61 32.7 61 31 61 C31 60.01 31 59.02 31 58 C28.69 58 26.38 58 24 58 C23.34 56.35 22.68 54.7 22 53 C22.66 52.34 23.32 51.68 24 51 C23.34 49.02 22.68 47.04 22 45 C21.01 45 20.02 45 19 45 C19.04125 44.2575 19.0825 43.515 19.125 42.75 C18.99601866 39.91241048 18.42948778 38.41226062 17 36 C17.66 36 18.32 36 19 36 C19 34.35 19 32.7 19 31 C12.4 31 5.8 31 -1 31 C-1 30.34 -1 29.68 -1 29 C1.31 29.33 3.62 29.66 6 30 C5.94779297 28.51886719 5.94779297 28.51886719 5.89453125 27.0078125 C5.86746094 25.72648437 5.84039062 24.44515625 5.8125 23.125 C5.76029297 21.21074219 5.76029297 21.21074219 5.70703125 19.2578125 C5.80371094 18.18273437 5.90039062 17.10765625 6 16 C6.99 15.34 7.98 14.68 9 14 C7.78410016 12.56844101 7.78410016 12.56844101 4.1875 12.6875 C1.1692278 12.74168801 0.13824172 12.91359892 -2.5 14.5625 C-4.53366895 17.86721204 -4.3468602 20.18453778 -4 24 C-3.67 24.99 -3.34 25.98 -3 27 C-7.29 27 -11.58 27 -16 27 C-15.01 26.01 -14.02 25.02 -13 24 C-12.34 24 -11.68 24 -11 24 C-11.18129815 20.56206661 -11.18129815 20.56206661 -12 17 C-13.93597032 15.48705712 -13.93597032 15.48705712 -16 15 C-14.87548273 12.0280615 -13.77706209 9.66559313 -12 7 C-10.906875 7.20625 -9.81375 7.4125 -8.6875 7.625 C-4.9161599 8.40346525 -4.9161599 8.40346525 -2 6 C-0.78715124 2.94570927 -0.78715124 2.94570927 0 0 Z M28 47 C27.6366844 49.83386167 27.6431329 51.40522151 29.125 53.875 C31.92151052 55.55290631 33.93690532 54.74875648 37 54 C37.67673447 50.59679066 37.67673447 50.59679066 38 47 C36.11499729 44.68436913 36.11499729 44.68436913 33 44.75 C29.88500271 44.68436913 29.88500271 44.68436913 28 47 Z " fill="#36DEC4" transform="translate(99,18)"/>
<path d="M0 0 C18.15 0 36.3 0 55 0 C55.495 1.98 55.495 1.98 56 4 C62.6 4 69.2 4 76 4 C76 5.65 76 7.3 76 9 C75.34 9 74.68 9 74 9 C74.515625 9.556875 75.03125 10.11375 75.5625 10.6875 C77 13 77 13 76 18 C71.71 18 67.42 18 63 18 C63 15.03 63 12.06 63 9 C60.69 9 58.38 9 56 9 C56 16.92 56 24.84 56 33 C53.48631211 34.25684394 51.7525626 34.13374676 48.93945312 34.14526367 C47.88495972 34.15164352 46.83046631 34.15802338 45.74401855 34.16459656 C44.60130493 34.16570938 43.45859131 34.1668222 42.28125 34.16796875 C41.11243286 34.17129715 39.94361572 34.17462555 38.73937988 34.17805481 C36.26457107 34.18312445 33.78975541 34.18546312 31.31494141 34.18530273 C27.51583691 34.18749088 23.71702188 34.20565104 19.91796875 34.22460938 C17.51823016 34.22754287 15.11849019 34.22952796 12.71875 34.23046875 C11.00467957 34.24124702 11.00467957 34.24124702 9.25598145 34.25224304 C7.67424133 34.2476281 7.67424133 34.2476281 6.06054688 34.24291992 C5.1294812 34.24434494 4.19841553 34.24576996 3.23913574 34.24723816 C1 34 1 34 -1 32 C-1.24291992 29.05078125 -1.24291992 29.05078125 -1.23046875 25.3125 C-1.23001053 24.65419189 -1.22955231 23.99588379 -1.2290802 23.31762695 C-1.22605881 21.92560016 -1.21817581 20.53357672 -1.20581055 19.14160156 C-1.18757132 17.00834197 -1.18530076 14.87551687 -1.18554688 12.7421875 C-1.14754817 2.29509633 -1.14754817 2.29509633 0 0 Z M2 2 C2 10.91 2 19.82 2 29 C18.83 29 35.66 29 53 29 C53 20.09 53 11.18 53 2 C36.17 2 19.34 2 2 2 Z " fill="#36DDC3" transform="translate(42,45)"/>
<path d="M0 0 C1.32 0 2.64 0 4 0 C4 6.6 4 13.2 4 20 C6.31 20 8.62 20 11 20 C12 21 12 21 12.11352539 24.78540039 C12.11336622 26.47282729 12.10766917 28.16025905 12.09765625 29.84765625 C12.0962413 30.7340831 12.09482635 31.62050995 12.09336853 32.53379822 C12.08775215 35.37673254 12.07519691 38.21958931 12.0625 41.0625 C12.05748711 42.98502491 12.05292384 44.90755104 12.04882812 46.83007812 C12.03862648 51.55343964 12.01905437 56.27663258 12 61 C3.75 61 -4.5 61 -13 61 C-13 58.03 -13 55.06 -13 52 C-9.91651718 51.2291293 -7.94762714 50.87918464 -4.890625 50.90234375 C-4.21032227 50.90484131 -3.53001953 50.90733887 -2.82910156 50.90991211 C-1.97799805 50.91901611 -1.12689453 50.92812012 -0.25 50.9375 C2.4725 50.958125 5.195 50.97875 8 51 C8 45.06 8 39.12 8 33 C5.23625 33.12375 2.4725 33.2475 -0.375 33.375 C-1.24431152 33.40899902 -2.11362305 33.44299805 -3.00927734 33.47802734 C-7.47543818 33.54791085 -7.47543818 33.54791085 -11 36 C-11.66 35.67 -12.32 35.34 -13 35 C-13.44921875 32.12890625 -13.44921875 32.12890625 -13.6875 28.5625 C-13.77386719 27.38816406 -13.86023438 26.21382812 -13.94921875 25.00390625 C-14 22 -14 22 -13 20 C-8.71 20 -4.42 20 0 20 C0 13.4 0 6.8 0 0 Z " fill="#7286FE" transform="translate(115,63)"/>
<path d="M0 0 C0.433125 0.474375 0.86625 0.94875 1.3125 1.4375 C3.02309613 3.23686957 3.02309613 3.23686957 6 4 C6 5.65 6 7.3 6 9 C5.030625 9.28875 4.06125 9.5775 3.0625 9.875 C-0.10664203 10.64214682 -0.10664203 10.64214682 -1 13 C-1.43986452 17.03518598 -1.43986452 17.03518598 0.13671875 20.6015625 C3.39651569 23.0481187 7.35127079 23.30042673 11.28515625 24.05859375 C14 25 14 25 16 29 C23.92 28.67 31.84 28.34 40 28 C39.67 28.66 39.34 29.32 39 30 C36.35139573 30.59355614 33.70802678 30.74209269 31 31 C31 31.66 31 32.32 31 33 C45.19 33 59.38 33 74 33 C73.67 32.34 73.34 31.68 73 31 C71.845 30.835 70.69 30.67 69.5 30.5 C68.345 30.335 67.19 30.17 66 30 C65.505 29.01 65.505 29.01 65 28 C70.45769811 27.88861841 75.61509359 28.08342019 81 29 C81 31.64 81 34.28 81 37 C73.71409984 37.04682155 66.42823335 37.08211748 59.14221191 37.10362434 C55.75718789 37.11395864 52.37226851 37.12792229 48.98730469 37.15087891 C10.5625541 37.39227608 10.5625541 37.39227608 3 33 C3.33 32.34 3.66 31.68 4 31 C5.32 31 6.64 31 8 31 C7.67 30.34 7.34 29.68 7 29 C3.97065509 28.34227572 3.97065509 28.34227572 1 28 C0.67 28.99 0.34 29.98 0 31 C-2.4375 30.25 -2.4375 30.25 -5 29 C-6.46033772 25.85465721 -6.07767332 22.41762598 -6 19 C-7.65 19 -9.3 19 -11 19 C-11 16.36 -11 13.72 -11 11 C-8.525 11.495 -8.525 11.495 -6 12 C-5.98582031 11.38511719 -5.97164062 10.77023438 -5.95703125 10.13671875 C-5.81117256 7.66500527 -5.60506817 5.40322852 -5 3 C-2.4375 0.9375 -2.4375 0.9375 0 0 Z " fill="#EAEBF2" transform="translate(20,88)"/>
<path d="M0 0 C1.32751785 0.00212242 1.32751785 0.00212242 2.68185425 0.00428772 C5.51449941 0.00989485 8.34706614 0.02244854 11.1796875 0.03515625 C13.09765511 0.04017033 15.01562396 0.0447334 16.93359375 0.04882812 C21.64065532 0.05986659 26.3476581 0.077136 31.0546875 0.09765625 C30.3946875 1.08765625 29.7346875 2.07765625 29.0546875 3.09765625 C28.0646875 2.76765625 27.0746875 2.43765625 26.0546875 2.09765625 C26.0546875 2.42765625 26.0546875 2.75765625 26.0546875 3.09765625 C26.0546875 6.09765625 26.0546875 6.09765625 24.8671875 7.78515625 C22.49727028 9.5013032 20.91443084 9.32952733 18.0546875 9.09765625 C18.5496875 9.59265625 18.5496875 9.59265625 19.0546875 10.09765625 C18.0646875 10.75765625 17.0746875 11.41765625 16.0546875 12.09765625 C16.3846875 12.73703125 16.7146875 13.37640625 17.0546875 14.03515625 C18.0546875 16.09765625 18.0546875 16.09765625 18.0546875 17.09765625 C26.3046875 17.42765625 34.5546875 17.75765625 43.0546875 18.09765625 C43.0546875 19.74765625 43.0546875 21.39765625 43.0546875 23.09765625 C29.5246875 23.09765625 15.9946875 23.09765625 2.0546875 23.09765625 C1.7246875 18.14765625 1.3946875 13.19765625 1.0546875 8.09765625 C-4.2253125 7.76765625 -9.5053125 7.43765625 -14.9453125 7.09765625 C-9.83508998 -0.56767752 -8.44379707 -0.05040412 0 0 Z " fill="#6B72FE" transform="translate(57.9453125,78.90234375)"/>
<path d="M0 0 C3.0000624 -0.02721831 5.99987256 -0.04694378 9 -0.0625 C9.83917969 -0.07087891 10.67835937 -0.07925781 11.54296875 -0.08789062 C12.79013672 -0.09272461 12.79013672 -0.09272461 14.0625 -0.09765625 C15.19365234 -0.10551147 15.19365234 -0.10551147 16.34765625 -0.11352539 C19.91451913 0.03914317 23.45744034 0.55718004 27 1 C27 7.93 27 14.86 27 22 C20.07 22 13.14 22 6 22 C6 21.01 6 20.02 6 19 C4.02 19 2.04 19 0 19 C0 18.34 0 17.68 0 17 C1.98 17 3.96 17 6 17 C6 15.68 6 14.36 6 13 C4.02 13 2.04 13 0 13 C0 12.34 0 11.68 0 11 C1.98 11 3.96 11 6 11 C6 9.68 6 8.36 6 7 C4.02 7 2.04 7 0 7 C0 6.34 0 5.68 0 5 C1.98 5 3.96 5 6 5 C6 4.01 6 3.02 6 2 C3.03 1.505 3.03 1.505 0 1 C0 0.67 0 0.34 0 0 Z " fill="#6FD4E4" transform="translate(7,58)"/>
<path d="M0 0 C2.97 0.33 5.94 0.66 9 1 C9 2.98 9 4.96 9 7 C13.20594226 7.72795155 15.80104745 8.04973814 20 7 C21.32 9.64 22.64 12.28 24 15 C21.70858714 15.05384521 19.41681812 15.09272087 17.125 15.125 C15.21074219 15.15980469 15.21074219 15.15980469 13.2578125 15.1953125 C10 15 10 15 8 13 C2.43622348 12.41262964 2.43622348 12.41262964 -2.5 14.5625 C-4.53366895 17.86721204 -4.3468602 20.18453778 -4 24 C-3.67 24.99 -3.34 25.98 -3 27 C-7.29 27 -11.58 27 -16 27 C-15.01 26.01 -14.02 25.02 -13 24 C-12.34 24 -11.68 24 -11 24 C-11.18129815 20.56206661 -11.18129815 20.56206661 -12 17 C-13.93597032 15.48705712 -13.93597032 15.48705712 -16 15 C-14.87548273 12.0280615 -13.77706209 9.66559313 -12 7 C-10.906875 7.20625 -9.81375 7.4125 -8.6875 7.625 C-4.9161599 8.40346525 -4.9161599 8.40346525 -2 6 C-0.78715124 2.94570927 -0.78715124 2.94570927 0 0 Z " fill="#E9EBF1" transform="translate(99,18)"/>
<path d="M0 0 C1.32 0 2.64 0 4 0 C4 6.6 4 13.2 4 20 C6.31 20 8.62 20 11 20 C11.33 20.99 11.66 21.98 12 23 C11.071875 23.12375 11.071875 23.12375 10.125 23.25 C7.84957521 23.79923543 7.84957521 23.79923543 6.875 25.875 C6.58625 26.57625 6.2975 27.2775 6 28 C3.53129783 31.70305325 2.22604956 31.88368502 -2 33 C-3.85625 33.2475 -3.85625 33.2475 -5.75 33.5 C-9.07840049 33.68415804 -9.07840049 33.68415804 -11 36 C-11.66 35.67 -12.32 35.34 -13 35 C-13.44921875 32.12890625 -13.44921875 32.12890625 -13.6875 28.5625 C-13.77386719 27.38816406 -13.86023438 26.21382812 -13.94921875 25.00390625 C-14 22 -14 22 -13 20 C-8.71 20 -4.42 20 0 20 C0 13.4 0 6.8 0 0 Z " fill="#5F4BFC" transform="translate(115,63)"/>
<path d="M0 0 C1.58206422 0.00574487 3.16410406 0.01876032 4.74609375 0.03515625 C7.53046875 0.05578125 10.31484375 0.07640625 13.18359375 0.09765625 C13.18359375 6.03765625 13.18359375 11.97765625 13.18359375 18.09765625 C10.39921875 18.11828125 7.61484375 18.13890625 4.74609375 18.16015625 C3.86767822 18.16926025 2.9892627 18.17836426 2.08422852 18.18774414 C0.11713401 18.19488716 -1.84994246 18.14797518 -3.81640625 18.09765625 C-5.63756628 16.27649622 -4.94875705 13.79093861 -4.953125 11.37109375 C-4.94925781 10.62085937 -4.94539063 9.870625 -4.94140625 9.09765625 C-4.94527344 8.34742187 -4.94914062 7.5971875 -4.953125 6.82421875 C-4.94103514 0.12643386 -4.94103514 0.12643386 0 0 Z " fill="#9BE4F0" transform="translate(109.81640625,95.90234375)"/>
<path d="M0 0 C0.33 0 0.66 0 1 0 C1 3.96 1 7.92 1 12 C1.99 12.33 2.98 12.66 4 13 C4.33 18.28 4.66 23.56 5 29 C3.68 29 2.36 29 1 29 C1 31.97 1 34.94 1 38 C9.25 38 17.5 38 26 38 C26 38.66 26 39.32 26 40 C28.31 40.66 30.62 41.32 33 42 C32 44 32 44 30.34521484 44.61450195 C25.49200924 45.41225457 20.54404055 45.18590312 15.63769531 45.18530273 C13.63863013 45.18748512 11.63960468 45.20599143 9.640625 45.22460938 C8.36960937 45.22654297 7.09859375 45.22847656 5.7890625 45.23046875 C4.63100098 45.23457764 3.47293945 45.23868652 2.27978516 45.24291992 C-1.11310954 44.99162245 -3.83332989 44.21173908 -7 43 C-6 41 -6 41 0 39 C0 26.13 0 13.26 0 0 Z " fill="#5F54E5" transform="translate(101,86)"/>
<path d="M0 0 C0.99 0 1.98 0 3 0 C3 8.25 3 16.5 3 25 C16.53 25 30.06 25 44 25 C44 25.66 44 26.32 44 27 C43.01 27.495 43.01 27.495 42 28 C46.29 28.33 50.58 28.66 55 29 C55 29.33 55 29.66 55 30 C47.48863592 30.05057965 39.97731551 30.08568257 32.46582031 30.10986328 C29.90883747 30.11994038 27.35186621 30.13360226 24.79492188 30.15087891 C21.12627308 30.17505217 17.45777621 30.18646585 13.7890625 30.1953125 C12.0655809 30.21079636 12.0655809 30.21079636 10.30728149 30.22659302 C9.2463327 30.22674408 8.18538391 30.22689514 7.09228516 30.22705078 C6.15518707 30.231492 5.21808899 30.23593323 4.25259399 30.24050903 C2 30 2 30 0 28 C-0.22705078 25.20263672 -0.22705078 25.20263672 -0.1953125 21.6796875 C-0.18886719 20.42285156 -0.18242188 19.16601562 -0.17578125 17.87109375 C-0.15902344 16.55238281 -0.14226563 15.23367187 -0.125 13.875 C-0.11496983 12.53516279 -0.10584404 11.19531848 -0.09765625 9.85546875 C-0.07402075 6.57013427 -0.04107234 3.28515535 0 0 Z " fill="#3ACBD1" transform="translate(41,49)"/>
<path d="M0 0 C1.25554687 -0.00128906 2.51109375 -0.00257812 3.8046875 -0.00390625 C4.46178711 -0.00181152 5.11888672 0.0002832 5.79589844 0.00244141 C7.80411335 0.00779016 9.81210459 0.00249559 11.8203125 -0.00390625 C13.07585937 -0.00261719 14.33140625 -0.00132813 15.625 0 C16.78644531 0.00112793 17.94789063 0.00225586 19.14453125 0.00341797 C21.8125 0.1328125 21.8125 0.1328125 22.8125 1.1328125 C22.91073996 2.60930126 22.94223519 4.09056667 22.9375 5.5703125 C22.94136719 6.77494141 22.94136719 6.77494141 22.9453125 8.00390625 C22.8125 10.1328125 22.8125 10.1328125 21.8125 12.1328125 C21.1525 12.1328125 20.4925 12.1328125 19.8125 12.1328125 C19.4825 12.7928125 19.1525 13.4528125 18.8125 14.1328125 C18.420625 13.5140625 18.02875 12.8953125 17.625 12.2578125 C15.51709272 9.78647293 13.82732972 9.21505907 10.8125 8.1328125 C10.1525 7.4728125 9.4925 6.8128125 8.8125 6.1328125 C6.35508463 5.63266297 6.35508463 5.63266297 3.8125 6.1328125 C2.79221135 7.45068535 1.79278616 8.78491903 0.8125 10.1328125 C-1.875 10.8828125 -1.875 10.8828125 -4.1875 11.1328125 C-4.5175 12.1228125 -4.8475 13.1128125 -5.1875 14.1328125 C-5.8475 14.1328125 -6.5075 14.1328125 -7.1875 14.1328125 C-7.21435938 11.98704613 -7.23383088 9.84118605 -7.25 7.6953125 C-7.26160156 6.50035156 -7.27320312 5.30539063 -7.28515625 4.07421875 C-7.11114431 -1.16702086 -4.66394941 0.00452936 0 0 Z " fill="#35D2D3" transform="translate(112.1875,32.8671875)"/>
<path d="M0 0 C1.32 0.33 2.64 0.66 4 1 C3.34 1.66 2.68 2.32 2 3 C3.65 4.98 5.3 6.96 7 9 C5.35 10.32 3.7 11.64 2 13 C2.20625 12.21625 2.4125 11.4325 2.625 10.625 C2.74875 9.75875 2.8725 8.8925 3 8 C2.34 7.34 1.68 6.68 1 6 C0.01 6.66 -0.98 7.32 -2 8 C-2.03238019 10.00757207 -2.05654686 12.01735762 -1.97265625 14.0234375 C-2.00605256 16.43751338 -2.66747878 18.00121817 -4 20 C-3.34 20.33 -2.68 20.66 -2 21 C-3.48828125 23.4765625 -3.48828125 23.4765625 -6 26 C-8.95129314 26.40068215 -11.26850705 26.5254903 -14.1875 26.375 C-15.29254883 26.35373047 -15.29254883 26.35373047 -16.41992188 26.33203125 C-21.81691994 26.18308006 -21.81691994 26.18308006 -23 25 C-23.07205511 23.31391034 -23.08386068 21.62499341 -23.0625 19.9375 C-23.05347656 19.01839844 -23.04445313 18.09929687 -23.03515625 17.15234375 C-23.02355469 16.44207031 -23.01195313 15.73179688 -23 15 C-21.02 15 -19.04 15 -17 15 C-16.67 15.66 -16.34 16.32 -16 17 C-13.03 17 -10.06 17 -7 17 C-6.87882812 16.32453125 -6.75765625 15.6490625 -6.6328125 14.953125 C-6.46523438 14.06109375 -6.29765625 13.1690625 -6.125 12.25 C-5.96257813 11.36828125 -5.80015625 10.4865625 -5.6328125 9.578125 C-5.03203736 7.13052256 -4.22002883 5.19400143 -3 3 C-2.34 3 -1.68 3 -1 3 C-0.67 2.01 -0.34 1.02 0 0 Z " fill="#C5DCFE" transform="translate(50,87)"/>
<path d="M0 0 C5.61 0 11.22 0 17 0 C17 4.95 17 9.9 17 15 C11.39 15 5.78 15 0 15 C0 10.05 0 5.1 0 0 Z " fill="#3E4A97" transform="translate(15,34)"/>
<path d="M0 0 C0.83265381 0.00523682 1.66530762 0.01047363 2.52319336 0.01586914 C3.42231445 0.0190918 4.32143555 0.02231445 5.24780273 0.02563477 C6.66609375 0.03820312 6.66609375 0.03820312 8.11303711 0.05102539 C9.06243164 0.05553711 10.01182617 0.06004883 10.98999023 0.06469727 C13.34356776 0.07652429 15.69702188 0.09300514 18.05053711 0.11352539 C17.42445557 0.41669678 16.79837402 0.71986816 16.15332031 1.03222656 C12.90360248 2.7033052 11.41762297 4.1542681 10.10131836 7.59399414 C9.85768555 8.48731445 9.61405273 9.38063477 9.36303711 10.30102539 C9.11166992 11.20208008 8.86030273 12.10313477 8.60131836 13.03149414 C8.41956055 13.71856445 8.23780273 14.40563477 8.05053711 15.11352539 C8.71053711 15.44352539 9.37053711 15.77352539 10.05053711 16.11352539 C9.06053711 16.11352539 8.07053711 16.11352539 7.05053711 16.11352539 C7.05053711 16.77352539 7.05053711 17.43352539 7.05053711 18.11352539 C5.5722249 18.3076472 4.09284395 18.4936467 2.61303711 18.67602539 C1.78932617 18.78043945 0.96561523 18.88485352 0.11694336 18.99243164 C-0.5649707 19.03239258 -1.24688477 19.07235352 -1.94946289 19.11352539 C-3.83498819 17.22800009 -3.08192979 14.53583708 -3.08618164 12.03149414 C-3.08231445 11.23356445 -3.07844727 10.43563477 -3.07446289 9.61352539 C-3.07833008 8.8155957 -3.08219727 8.01766602 -3.08618164 7.19555664 C-3.07426903 0.17902756 -3.07426903 0.17902756 0 0 Z " fill="#42B4DF" transform="translate(35.949462890625,85.886474609375)"/>
<path d="M0 0 C0.86367188 -0.00773437 1.72734375 -0.01546875 2.6171875 -0.0234375 C7.79695197 -0.00769354 12.09619061 0.57097831 17 2.25 C17 2.58 17 2.91 17 3.25 C14.69 3.25 12.38 3.25 10 3.25 C10.33 4.57 10.66 5.89 11 7.25 C13.97 7.745 13.97 7.745 17 8.25 C17 8.58 17 8.91 17 9.25 C14.69 9.25 12.38 9.25 10 9.25 C10.33 10.57 10.66 11.89 11 13.25 C13.97 13.745 13.97 13.745 17 14.25 C17 14.58 17 14.91 17 15.25 C14.69 15.25 12.38 15.25 10 15.25 C10 16.9 10 18.55 10 20.25 C7.33821779 21.5808911 5.31260604 21.36268993 2.3359375 21.34765625 C1.21445312 21.34443359 0.09296875 21.34121094 -1.0625 21.33789062 C-2.238125 21.32951172 -3.41375 21.32113281 -4.625 21.3125 C-5.80835938 21.30798828 -6.99171875 21.30347656 -8.2109375 21.29882812 C-11.14067507 21.28701467 -14.07031272 21.27054258 -17 21.25 C-17 20.92 -17 20.59 -17 20.25 C-15.02 20.25 -13.04 20.25 -11 20.25 C-11 18.6 -11 16.95 -11 15.25 C-12.98 15.25 -14.96 15.25 -17 15.25 C-17 14.92 -17 14.59 -17 14.25 C-15.35 13.92 -13.7 13.59 -12 13.25 C-11.67 11.93 -11.34 10.61 -11 9.25 C-12.98 9.25 -14.96 9.25 -17 9.25 C-17 8.92 -17 8.59 -17 8.25 C-15.35 7.92 -13.7 7.59 -12 7.25 C-11.67 5.93 -11.34 4.61 -11 3.25 C-12.98 3.25 -14.96 3.25 -17 3.25 C-17 2.92 -17 2.59 -17 2.25 C-11.2296692 0.27428891 -6.07456414 -0.05439908 0 0 Z M-9 2.25 C-9 7.2 -9 12.15 -9 17.25 C-3.39 17.25 2.22 17.25 8 17.25 C8 12.3 8 7.35 8 2.25 C2.39 2.25 -3.22 2.25 -9 2.25 Z " fill="#68D6E0" transform="translate(24,31.75)"/>
<path d="M0 0 C6.6 0 13.2 0 20 0 C20 1.65 20 3.3 20 5 C19.34 5 18.68 5 18 5 C18.515625 5.556875 19.03125 6.11375 19.5625 6.6875 C21 9 21 9 20 14 C15.71 14 11.42 14 7 14 C7 11.03 7 8.06 7 5 C4.69 5 2.38 5 0 5 C0 3.35 0 1.7 0 0 Z " fill="#3AC6D6" transform="translate(98,49)"/>
<path d="M0 0 C3.15973987 0.30092761 3.54183127 0.99323388 5.625 3.25 C6.470625 3.559375 7.31625 3.86875 8.1875 4.1875 C10.625 5.25 10.625 5.25 12.625 9.25 C9.325 9.58 6.025 9.91 2.625 10.25 C2.625 12.56 2.625 14.87 2.625 17.25 C3.285 17.58 3.945 17.91 4.625 18.25 C3.305 19.24 1.985 20.23 0.625 21.25 C-0.875 19.875 -0.875 19.875 -2.375 18.25 C-2.375 17.59 -2.375 16.93 -2.375 16.25 C-1.715 16.25 -1.055 16.25 -0.375 16.25 C-0.375 14.6 -0.375 12.95 -0.375 11.25 C-6.975 11.25 -13.575 11.25 -20.375 11.25 C-20.375 10.59 -20.375 9.93 -20.375 9.25 C-17.405 9.25 -14.435 9.25 -11.375 9.25 C-11.045 7.93 -10.715 6.61 -10.375 5.25 C-8.725 5.25 -7.075 5.25 -5.375 5.25 C-5.065625 4.610625 -4.75625 3.97125 -4.4375 3.3125 C-2.88764755 0.3039629 -2.88764755 0.3039629 0 0 Z " fill="#F7FCFD" transform="translate(118.375,37.75)"/>
<path d="M0 0 C13.53 0 27.06 0 41 0 C41 1.65 41 3.3 41 5 C27.47 5 13.94 5 0 5 C0 3.35 0 1.7 0 0 Z " fill="#3C3D89" transform="translate(60,97)"/>
<path d="M0 0 C0.66 1.32 1.32 2.64 2 4 C1.34 4 0.68 4 0 4 C0 4.66 0 5.32 0 6 C6.27 6 12.54 6 19 6 C19.495 7.485 19.495 7.485 20 9 C5.81 9 -8.38 9 -23 9 C-23 8.34 -23 7.68 -23 7 C-20.98177083 6.609375 -18.96354167 6.21875 -16.9453125 5.828125 C-14.79787722 5.18182864 -14.79787722 5.18182864 -14.15625 2.96875 C-13.7746875 2.3190625 -13.393125 1.669375 -13 1 C-9.9609375 0.390625 -9.9609375 0.390625 -6.375 0.25 C-5.18648437 0.19328125 -3.99796875 0.1365625 -2.7734375 0.078125 C-1.40058594 0.03945312 -1.40058594 0.03945312 0 0 Z " fill="#A3C6FE" transform="translate(74,112)"/>
<path d="M0 0 C1.98 0 3.96 0 6 0 C7.125 1.625 7.125 1.625 8 4 C7.125 7.25 7.125 7.25 6 10 C6.66 10 7.32 10 8 10 C7.875 11.875 7.875 11.875 7 14 C5.01276732 14.70381157 3.01222047 15.3711811 1 16 C0.67 16.99 0.34 17.98 0 19 C-1.65 19 -3.3 19 -5 19 C-5 18.01 -5 17.02 -5 16 C-7.31 16 -9.62 16 -12 16 C-12.66 14.35 -13.32 12.7 -14 11 C-13.34 10.34 -12.68 9.68 -12 9 C-12.66 7.02 -13.32 5.04 -14 3 C-11.36 3 -8.72 3 -6 3 C-6.20625 4.11375 -6.4125 5.2275 -6.625 6.375 C-6.74875 7.57125 -6.8725 8.7675 -7 10 C-5.10244856 12.34973818 -5.10244856 12.34973818 -1.875 12.125 C-0.451875 12.063125 -0.451875 12.063125 1 12 C1.29562367 6.67829506 1.29562367 6.67829506 -1 2 C-0.67 1.34 -0.34 0.68 0 0 Z " fill="#EAEBF2" transform="translate(135,60)"/>
<path d="M0 0 C2.64453125 0.37890625 2.64453125 0.37890625 5 1 C5.02684312 3.81256281 5.04676188 6.62487241 5.0625 9.4375 C5.07087891 10.23994141 5.07925781 11.04238281 5.08789062 11.86914062 C5.0965143 13.91295221 5.0522815 15.95683902 5 18 C4 19 4 19 0.83984375 19.09765625 C-0.44792969 19.08605469 -1.73570313 19.07445313 -3.0625 19.0625 C-4.35285156 19.05347656 -5.64320312 19.04445313 -6.97265625 19.03515625 C-7.97167969 19.02355469 -8.97070312 19.01195313 -10 19 C-9.34 18.34 -8.68 17.68 -8 17 C-8.0928125 15.0509375 -8.0928125 15.0509375 -8.1875 13.0625 C-8.26171875 10.91015625 -8.26171875 10.91015625 -8 9 C-5.5 7 -5.5 7 -3 6 C-1 9.75 -1 9.75 -1 12 C-0.34 11.01 0.32 10.02 1 9 C-0.65 7.35 -2.3 5.7 -4 4 C-2.3125 1.9375 -2.3125 1.9375 0 0 Z " fill="#39D5C9" transform="translate(55,86)"/>
<path d="M0 0 C2.64 0 5.28 0 8 0 C8 6.93 8 13.86 8 21 C1.07 21 -5.86 21 -13 21 C-13 20.01 -13 19.02 -13 18 C-8.71 18 -4.42 18 0 18 C0 17.01 0 16.02 0 15 C0.99 14.67 1.98 14.34 3 14 C3 11.69 3 9.38 3 7 C2.01 6.67 1.02 6.34 0 6 C0 4.02 0 2.04 0 0 Z " fill="#35D7C5" transform="translate(26,59)"/>
<path d="M0 0 C1.32 0 2.64 0 4 0 C4 6.6 4 13.2 4 20 C6.31 20 8.62 20 11 20 C11.33 20.99 11.66 21.98 12 23 C3.19039858 24.30512614 -5.19039858 24.30512614 -14 23 C-13.505 21.515 -13.505 21.515 -13 20 C-8.71 20 -4.42 20 0 20 C0 13.4 0 6.8 0 0 Z " fill="#4C4CA1" transform="translate(115,63)"/>
<path d="M0 0 C0.99 0 1.98 0 3 0 C3 0.66 3 1.32 3 2 C5.475 2.495 5.475 2.495 8 3 C8 5.31 8 7.62 8 10 C6.68 10.33 5.36 10.66 4 11 C4 11.99 4 12.98 4 14 C-2.27 14 -8.54 14 -15 14 C-15 13.34 -15 12.68 -15 12 C-11.37 12 -7.74 12 -4 12 C-4.185625 10.906875 -4.37125 9.81375 -4.5625 8.6875 C-5 5 -5 5 -4 2 C-3.01 2 -2.02 2 -1 2 C-0.67 1.34 -0.34 0.68 0 0 Z " fill="#E7F7FA" transform="translate(22,63)"/>
<path d="M0 0 C1.31871094 -0.01224609 2.63742188 -0.02449219 3.99609375 -0.03710938 C5.90068359 -0.04000977 5.90068359 -0.04000977 7.84375 -0.04296875 C9.00068359 -0.04707764 10.15761719 -0.05118652 11.34960938 -0.05541992 C14.47736509 0.18575467 16.680892 0.85423629 19.5 2.1875 C18.5 4.1875 18.5 4.1875 16.84521484 4.80200195 C11.99200924 5.59975457 7.04404055 5.37340312 2.13769531 5.37280273 C0.13863013 5.37498512 -1.86039532 5.39349143 -3.859375 5.41210938 C-5.13039063 5.41404297 -6.40140625 5.41597656 -7.7109375 5.41796875 C-8.86899902 5.42207764 -10.02706055 5.42618652 -11.22021484 5.43041992 C-14.61310954 5.17912245 -17.33332989 4.39923908 -20.5 3.1875 C-20.17 2.5275 -19.84 1.8675 -19.5 1.1875 C-13.23640183 -0.60566158 -6.45139424 0.00315317 0 0 Z " fill="#EAEBF2" transform="translate(114.5,125.8125)"/>
<path d="M0 0 C1.58206422 0.00574487 3.16410406 0.01876032 4.74609375 0.03515625 C7.53046875 0.05578125 10.31484375 0.07640625 13.18359375 0.09765625 C13.18359375 6.03765625 13.18359375 11.97765625 13.18359375 18.09765625 C10.39921875 18.11828125 7.61484375 18.13890625 4.74609375 18.16015625 C3.86767822 18.16926025 2.9892627 18.17836426 2.08422852 18.18774414 C0.11713401 18.19488716 -1.84994246 18.14797518 -3.81640625 18.09765625 C-5.63756628 16.27649622 -4.94875705 13.79093861 -4.953125 11.37109375 C-4.94925781 10.62085937 -4.94539063 9.870625 -4.94140625 9.09765625 C-4.94527344 8.34742187 -4.94914062 7.5971875 -4.953125 6.82421875 C-4.94103514 0.12643386 -4.94103514 0.12643386 0 0 Z M-1.25390625 3.72265625 C-3.31432396 6.85449117 -3.49316075 8.41310398 -2.81640625 12.09765625 C-0.83674362 15.16073256 -0.83674362 15.16073256 2.18359375 17.09765625 C5.84801291 17.17244031 7.5827426 16.52457681 10.55859375 14.41015625 C12.69777126 11.3659421 12.79176421 9.74667903 12.18359375 6.09765625 C10.74698064 3.57758781 10.74698064 3.57758781 8.18359375 2.09765625 C4.20871758 1.5298168 2.11870154 1.47425106 -1.25390625 3.72265625 Z " fill="#46C6EB" transform="translate(109.81640625,95.90234375)"/>
<path d="M0 0 C2.31 0 4.62 0 7 0 C7 4.62 7 9.24 7 14 C4.03 13.505 4.03 13.505 1 13 C0.67 12.01 0.34 11.02 0 10 C-2.64 10 -5.28 10 -8 10 C-8 8.02 -8 6.04 -8 4 C-5.36 3.67 -2.72 3.34 0 3 C0 2.01 0 1.02 0 0 Z " fill="#5832FF" transform="translate(34,49)"/>
<path d="M0 0 C0 5.61 0 11.22 0 17 C0.99 17 1.98 17 3 17 C3 18.65 3 20.3 3 22 C0.69 22 -1.62 22 -4 22 C-4 15.73 -4 9.46 -4 3 C-10.27 3 -16.54 3 -23 3 C-23 2.34 -23 1.68 -23 1 C-19.91675903 0.83159521 -16.83339379 0.66558138 -13.75 0.5 C-12.87730469 0.45230469 -12.00460938 0.40460938 -11.10546875 0.35546875 C-10.26113281 0.31035156 -9.41679687 0.26523438 -8.546875 0.21875 C-7.38430176 0.1559082 -7.38430176 0.1559082 -6.19824219 0.09179688 C-4.13373418 0.00558463 -2.0663073 0 0 0 Z " fill="#6F72AA" transform="translate(30,80)"/>
<path d="M0 0 C0.80566406 0.00322266 1.61132812 0.00644531 2.44140625 0.00976562 C3.70404297 0.02233398 3.70404297 0.02233398 4.9921875 0.03515625 C5.84167969 0.03966797 6.69117187 0.04417969 7.56640625 0.04882812 C9.66669659 0.06062751 11.7669508 0.07856319 13.8671875 0.09765625 C13.8671875 0.75765625 13.8671875 1.41765625 13.8671875 2.09765625 C12.8771875 2.42765625 11.8871875 2.75765625 10.8671875 3.09765625 C10.8671875 4.41765625 10.8671875 5.73765625 10.8671875 7.09765625 C8.46283744 8.29983128 7.18337381 8.13662743 4.515625 7.9765625 C3.66484375 7.92822266 2.8140625 7.87988281 1.9375 7.83007812 C1.04804687 7.77400391 0.15859375 7.71792969 -0.7578125 7.66015625 C-1.655 7.60794922 -2.5521875 7.55574219 -3.4765625 7.50195312 C-5.69565262 7.37211275 -7.91431121 7.23714286 -10.1328125 7.09765625 C-5.57732324 -0.03927692 -5.57732324 -0.03927692 0 0 Z " fill="#655DFE" transform="translate(53.1328125,78.90234375)"/>
<path d="M0 0 C0.99 0 1.98 0 3 0 C3 8.25 3 16.5 3 25 C4.65 25 6.3 25 8 25 C8 25.66 8 26.32 8 27 C7.34 27.33 6.68 27.66 6 28 C18.87 28.495 18.87 28.495 32 29 C32 29.33 32 29.66 32 30 C27.76417673 30.04938628 23.52850535 30.08571263 19.29248047 30.10986328 C17.85104453 30.11992963 16.40962905 30.1335838 14.96826172 30.15087891 C12.89806066 30.17510012 10.82812924 30.18647641 8.7578125 30.1953125 C6.88826904 30.21102295 6.88826904 30.21102295 4.98095703 30.22705078 C2 30 2 30 0 28 C-0.22705078 25.20263672 -0.22705078 25.20263672 -0.1953125 21.6796875 C-0.18886719 20.42285156 -0.18242188 19.16601562 -0.17578125 17.87109375 C-0.15902344 16.55238281 -0.14226563 15.23367187 -0.125 13.875 C-0.11496983 12.53516279 -0.10584404 11.19531848 -0.09765625 9.85546875 C-0.07402075 6.57013427 -0.04107234 3.28515535 0 0 Z " fill="#3FA8E3" transform="translate(41,49)"/>
<path d="M0 0 C18.15 0 36.3 0 55 0 C55.495 1.98 55.495 1.98 56 4 C55.01 4 54.02 4 53 4 C53 3.34 53 2.68 53 2 C36.17 2 19.34 2 2 2 C2 2.66 2 3.32 2 4 C1.01 4 0.02 4 -1 4 C-0.67 2.68 -0.34 1.36 0 0 Z " fill="#33D1D3" transform="translate(42,45)"/>
<path d="M0 0 C1.98 0 3.96 0 6 0 C6 5.61 6 11.22 6 17 C5.34 17.33 4.68 17.66 4 18 C4 18.66 4 19.32 4 20 C3.34 20 2.68 20 2 20 C2 16.7 2 13.4 2 10 C-1.3 10 -4.6 10 -8 10 C-7.67 9.34 -7.34 8.68 -7 8 C-5.35 8 -3.7 8 -2 8 C-1.71125 7.401875 -1.4225 6.80375 -1.125 6.1875 C0 4 0 4 2 1 C1.34 0.67 0.68 0.34 0 0 Z " fill="#665EFF" transform="translate(121,86)"/>
<path d="M0 0 C0.33 0 0.66 0 1 0 C1.3125 2.8125 1.3125 2.8125 1 6 C-1.375 7.8125 -1.375 7.8125 -4 9 C-4.99 9.495 -4.99 9.495 -6 10 C-6.33 10.99 -6.66 11.98 -7 13 C-7.66 13 -8.32 13 -9 13 C-9 13.66 -9 14.32 -9 15 C-8.34 15.33 -7.68 15.66 -7 16 C-7.99 16.33 -8.98 16.66 -10 17 C-10 16.34 -10 15.68 -10 15 C-11.32 15.33 -12.64 15.66 -14 16 C-13.34 15.01 -12.68 14.02 -12 13 C-12.61757973 10.65319703 -13.2833793 8.31847874 -14 6 C-13.67 5.34 -13.34 4.68 -13 4 C-9.37 4 -5.74 4 -2 4 C-2 3.34 -2 2.68 -2 2 C-1.34 2 -0.68 2 0 2 C0 1.34 0 0.68 0 0 Z " fill="#34D8CA" transform="translate(134,43)"/>
<path d="M0 0 C0.33 0.66 0.66 1.32 1 2 C8.59 1.67 16.18 1.34 24 1 C24 1.66 24 2.32 24 3 C20.7 3.33 17.4 3.66 14 4 C14 6.31 14 8.62 14 11 C14.66 11.33 15.32 11.66 16 12 C14.68 12.99 13.36 13.98 12 15 C10.5 13.625 10.5 13.625 9 12 C9 11.34 9 10.68 9 10 C9.66 10 10.32 10 11 10 C11 8.35 11 6.7 11 5 C4.4 5 -2.2 5 -9 5 C-9 4.34 -9 3.68 -9 3 C-6.03 3 -3.06 3 0 3 C0 2.01 0 1.02 0 0 Z " fill="#8EDAE4" transform="translate(107,44)"/>
<path d="M0 0 C6.6 0 13.2 0 20 0 C20 1.65 20 3.3 20 5 C13.4 5 6.8 5 0 5 C0 3.35 0 1.7 0 0 Z " fill="#34B0C6" transform="translate(98,49)"/>
<path d="M0 0 C2.31 0 4.62 0 7 0 C7 2.97 7 5.94 7 9 C7.99 9.33 8.98 9.66 10 10 C8.02 10.99 8.02 10.99 6 12 C6 11.34 6 10.68 6 10 C3.75758839 12.24241161 3.03831781 14.03337767 2 17 C2 17.66 2 18.32 2 19 C1.34 19 0.68 19 0 19 C0 12.73 0 6.46 0 0 Z " fill="#6B74FD" transform="translate(98,54)"/>
<path d="M0 0 C1.66611905 -0.042721 3.33382885 -0.04063832 5 0 C6.79309961 1.79309961 6.29807043 4.32375978 6.375 6.75 C6.36158804 12.38302461 6.36158804 12.38302461 4.8828125 14.90625 C3.5 16.25 3.5 16.25 1 18 C0 17 0 17 -0.09765625 13.18359375 C-0.09098089 11.60153318 -0.07901875 10.01948841 -0.0625 8.4375 C-0.05798828 7.63119141 -0.05347656 6.82488281 -0.04882812 5.99414062 C-0.03700518 3.99606244 -0.01906914 1.99802217 0 0 Z " fill="#5C3EFF" transform="translate(35,62)"/>
<path d="M0 0 C1.09570312 0.00902344 2.19140625 0.01804687 3.3203125 0.02734375 C4.16335937 0.03894531 5.00640625 0.05054687 5.875 0.0625 C4.75316502 2.30616996 3.48053445 4.13585866 1.875 6.0625 C1.215 6.0625 0.555 6.0625 -0.125 6.0625 C-0.125 6.7225 -0.125 7.3825 -0.125 8.0625 C-1.115 8.0625 -2.105 8.0625 -3.125 8.0625 C-3.455 8.7225 -3.785 9.3825 -4.125 10.0625 C-5.445 10.0625 -6.765 10.0625 -8.125 10.0625 C-8.125 7.0925 -8.125 4.1225 -8.125 1.0625 C-5.36047967 -0.31976016 -3.0788637 -0.03275387 0 0 Z " fill="#6B72FE" transform="translate(110.125,113.9375)"/>
<path d="M0 0 C1.32 0.33 2.64 0.66 4 1 C3.34 1.66 2.68 2.32 2 3 C4.475 5.97 4.475 5.97 7 9 C5.35 10.32 3.7 11.64 2 13 C2.20625 12.21625 2.4125 11.4325 2.625 10.625 C2.74875 9.75875 2.8725 8.8925 3 8 C2.34 7.34 1.68 6.68 1 6 C0.01 6.66 -0.98 7.32 -2 8 C-2 9.32 -2 10.64 -2 12 C-2 13.32 -2 14.64 -2 16 C-5.22791555 18.1519437 -6.28400809 18.20086443 -10 18 C-9.01 17.67 -8.02 17.34 -7 17 C-6.87882812 16.32453125 -6.75765625 15.6490625 -6.6328125 14.953125 C-6.46523438 14.06109375 -6.29765625 13.1690625 -6.125 12.25 C-5.96257813 11.36828125 -5.80015625 10.4865625 -5.6328125 9.578125 C-5.03203736 7.13052256 -4.22002883 5.19400143 -3 3 C-2.34 3 -1.68 3 -1 3 C-0.67 2.01 -0.34 1.02 0 0 Z " fill="#4FD4D2" transform="translate(50,87)"/>
<path d="M0 0 C2.64 0 5.28 0 8 0 C8 3.96 8 7.92 8 12 C7.01 12 6.02 12 5 12 C4.67 13.32 4.34 14.64 4 16 C2.68 15.67 1.36 15.34 0 15 C0.99 14.67 1.98 14.34 3 14 C3 11.69 3 9.38 3 7 C2.01 6.67 1.02 6.34 0 6 C0 4.02 0 2.04 0 0 Z " fill="#3CB9DA" transform="translate(26,59)"/>
<path d="M0 0 C1.32 0 2.64 0 4 0 C4 6.6 4 13.2 4 20 C2.68 19.67 1.36 19.34 0 19 C0 12.73 0 6.46 0 0 Z " fill="#3E3E8B" transform="translate(115,63)"/>
<path d="M0 0 C5.875 0.875 5.875 0.875 7 2 C7.33 1.34 7.66 0.68 8 0 C8.99 0 9.98 0 11 0 C11 1.32 11 2.64 11 4 C11.66 4.33 12.32 4.66 13 5 C12.01 5 11.02 5 10 5 C10 5.66 10 6.32 10 7 C8.52168779 7.19412181 7.04230684 7.38012131 5.5625 7.5625 C4.73878906 7.66691406 3.91507813 7.77132812 3.06640625 7.87890625 C2.38449219 7.91886719 1.70257813 7.95882812 1 8 C0 7 0 7 -0.0625 3.4375 C-0.041875 2.303125 -0.02125 1.16875 0 0 Z " fill="#37B0C7" transform="translate(33,97)"/>
<path d="M0 0 C8.58 0 17.16 0 26 0 C25.67 0.99 25.34 1.98 25 3 C17.08 3 9.16 3 1 3 C0.67 2.01 0.34 1.02 0 0 Z " fill="#4C4CA0" transform="translate(101,124)"/>
<path d="M0 0 C0.70511719 0.16371094 1.41023438 0.32742187 2.13671875 0.49609375 C5.09658688 1.01699824 7.81061273 1.09866732 10.8125 1.0625 C11.78832031 1.05347656 12.76414062 1.04445312 13.76953125 1.03515625 C14.50558594 1.02355469 15.24164063 1.01195312 16 1 C15.01 1.495 15.01 1.495 14 2 C14 2.66 14 3.32 14 4 C10.7 4 7.4 4 4 4 C4 4.99 4 5.98 4 7 C4.66 7 5.32 7 6 7 C6.33 6.34 6.66 5.68 7 5 C7 5.66 7 6.32 7 7 C10.3 7 13.6 7 17 7 C17 7.33 17 7.66 17 8 C11.39 8 5.78 8 0 8 C0 5.36 0 2.72 0 0 Z " fill="#4063AB" transform="translate(15,41)"/>
<path d="M0 0 C5.19209404 -0.21192221 9.126739 0.4087311 14 2 C12.35 3.65 10.7 5.3 9 7 C9.33 6.01 9.66 5.02 10 4 C7.90334563 3.7797907 7.90334563 3.7797907 6.4375 5.375 C4.91478345 6.95571423 4.91478345 6.95571423 4 9 C2.68 9.33 1.36 9.66 0 10 C0 6.7 0 3.4 0 0 Z " fill="#5A39FF" transform="translate(102,86)"/>
<path d="M0 0 C1.67542976 0.28604898 3.34385343 0.61781233 5 1 C5.75 3.75 5.75 3.75 6 7 C4.125 9.1875 4.125 9.1875 2 11 C1.67 11.99 1.34 12.98 1 14 C0.34 14 -0.32 14 -1 14 C-1.02685938 11.85423363 -1.04633088 9.70837355 -1.0625 7.5625 C-1.07410156 6.36753906 -1.08570312 5.17257813 -1.09765625 3.94140625 C-1 1 -1 1 0 0 Z " fill="#32C6E0" transform="translate(106,33)"/>
<path d="M0 0 C0.33 0.66 0.66 1.32 1 2 C7.27 1.67 13.54 1.34 20 1 C20 2.32 20 3.64 20 5 C17.00364786 6.49817607 14.43819994 5.87986153 11.125 5.625 C9.89007813 5.53476562 8.65515625 5.44453125 7.3828125 5.3515625 C4.79123413 5.08222988 2.48559625 4.73693557 0 4 C0 2.68 0 1.36 0 0 Z " fill="#34D4D1" transform="translate(14,47)"/>
<path d="M0 0 C2.31 0 4.62 0 7 0 C7 1.65 7 3.3 7 5 C3.37 5 -0.26 5 -4 5 C-4 6.65 -4 8.3 -4 10 C-5.32 10 -6.64 10 -8 10 C-8 8.02 -8 6.04 -8 4 C-5.36 3.67 -2.72 3.34 0 3 C0 2.01 0 1.02 0 0 Z " fill="#3D3F8B" transform="translate(34,49)"/>
<path d="M0 0 C0.99 0 1.98 0 3 0 C3 0.66 3 1.32 3 2 C4.65 2.33 6.3 2.66 8 3 C8 5.31 8 7.62 8 10 C6.68 10.33 5.36 10.66 4 11 C4 9 4 7 4 5 C2.68 5 1.36 5 0 5 C-0.99 6.485 -0.99 6.485 -2 8 C-2.66 8 -3.32 8 -4 8 C-4.33 6.35 -4.66 4.7 -5 3 C-4.360625 2.87625 -3.72125 2.7525 -3.0625 2.625 C-2.0415625 2.315625 -2.0415625 2.315625 -1 2 C-0.67 1.34 -0.34 0.68 0 0 Z " fill="#EBF8FA" transform="translate(22,63)"/>
<path d="M0 0 C0.99 0 1.98 0 3 0 C3 6.6 3 13.2 3 20 C2.01 20 1.02 20 0 20 C0 13.4 0 6.8 0 0 Z " fill="#36D2C9" transform="translate(95,49)"/>
<path d="M0 0 C1.24716797 0.00322266 2.49433594 0.00644531 3.77929688 0.00976562 C5.07287109 0.01814453 6.36644531 0.02652344 7.69921875 0.03515625 C9.66858398 0.04192383 9.66858398 0.04192383 11.67773438 0.04882812 C14.91410885 0.06059676 18.15039053 0.07703865 21.38671875 0.09765625 C21.05671875 0.75765625 20.72671875 1.41765625 20.38671875 2.09765625 C19.73074707 2.11747559 19.07477539 2.13729492 18.39892578 2.15771484 C15.43610806 2.25278132 12.47401343 2.36253377 9.51171875 2.47265625 C7.96291016 2.5190625 7.96291016 2.5190625 6.3828125 2.56640625 C4.90361328 2.62441406 4.90361328 2.62441406 3.39453125 2.68359375 C2.4833252 2.71501465 1.57211914 2.74643555 0.63330078 2.77880859 C-1.81259311 2.89648136 -1.81259311 2.89648136 -3.61328125 5.09765625 C-6.34197532 5.06478042 -8.90994305 4.53367854 -11.61328125 4.09765625 C-11.61328125 3.10765625 -11.61328125 2.11765625 -11.61328125 1.09765625 C-7.68039761 0.16677716 -4.03673962 -0.0184326 0 0 Z " fill="#D9D9E8" transform="translate(106.61328125,125.90234375)"/>
<path d="M0 0 C1.65 0 3.3 0 5 0 C5 3.3 5 6.6 5 10 C3.35 10 1.7 10 0 10 C0 8.68 0 7.36 0 6 C-1.98 6 -3.96 6 -6 6 C-6 5.34 -6 4.68 -6 4 C-4.02 4 -2.04 4 0 4 C0 2.68 0 1.36 0 0 Z " fill="#74D6E2" transform="translate(13,65)"/>
<path d="M0 0 C3.96 0 7.92 0 12 0 C9.22237877 3.60062011 6.26008643 6.83047153 3 10 C2.01 9.67 1.02 9.34 0 9 C0.185625 8.2575 0.37125 7.515 0.5625 6.75 C1.22052711 3.77159084 1.22052711 3.77159084 0 0 Z " fill="#72D5E4" transform="translate(110,33)"/>
<path d="M0 0 C0.33 0 0.66 0 1 0 C1 5.28 1 10.56 1 16 C-4.61 16 -10.22 16 -16 16 C-16 15.34 -16 14.68 -16 14 C-15.32453125 14.01160156 -14.6490625 14.02320312 -13.953125 14.03515625 C-13.06109375 14.04417969 -12.1690625 14.05320312 -11.25 14.0625 C-10.36828125 14.07410156 -9.4865625 14.08570312 -8.578125 14.09765625 C-6.2181162 14.00826198 -4.25501476 13.66912821 -2 13 C-1.80508548 11.54263913 -1.61930642 10.08405407 -1.4375 8.625 C-1.33308594 7.81289062 -1.22867188 7.00078125 -1.12109375 6.1640625 C-0.81762672 3.95100814 -0.81762672 3.95100814 -2 2 C-1.34 2 -0.68 2 0 2 C0 1.34 0 0.68 0 0 Z " fill="#3BD8CF" transform="translate(122,98)"/>
<path d="M0 0 C3.63 0 7.26 0 11 0 C10.67 0.99 10.34 1.98 10 3 C6.9375 4.1875 6.9375 4.1875 4 5 C4.66 5.66 5.32 6.32 6 7 C4.02 7.66 2.04 8.32 0 9 C0 6.03 0 3.06 0 0 Z " fill="#3EBCDC" transform="translate(105,54)"/>
<path d="M0 0 C1.23556641 0.01740234 1.23556641 0.01740234 2.49609375 0.03515625 C3.32238281 0.04417969 4.14867187 0.05320312 5 0.0625 C5.63808594 0.07410156 6.27617188 0.08570312 6.93359375 0.09765625 C6.14984375 0.86078125 5.36609375 1.62390625 4.55859375 2.41015625 C1.86101658 5.0065743 1.86101658 5.0065743 -0.06640625 8.09765625 C-1.05640625 8.09765625 -2.04640625 8.09765625 -3.06640625 8.09765625 C-3.10882348 5.7647085 -3.10733562 3.43063058 -3.06640625 1.09765625 C-2.06640625 0.09765625 -2.06640625 0.09765625 0 0 Z " fill="#3E9AE9" transform="translate(36.06640625,85.90234375)"/>
<path d="M0 0 C4.62 0 9.24 0 14 0 C10.86400308 3.13599692 9.64263111 3.94057051 5.30078125 4.09765625 C4.31464844 4.08605469 3.32851563 4.07445313 2.3125 4.0625 C1.31863281 4.05347656 0.32476562 4.04445313 -0.69921875 4.03515625 C-1.83810547 4.01775391 -1.83810547 4.01775391 -3 4 C-2.67 3.34 -2.34 2.68 -2 2 C-1.34 2 -0.68 2 0 2 C0 1.34 0 0.68 0 0 Z " fill="#3DBBDC" transform="translate(49,74)"/>
<path d="M0 0 C1.32 0.33 2.64 0.66 4 1 C3.34 1.66 2.68 2.32 2 3 C4.475 5.97 4.475 5.97 7 9 C5.35 10.32 3.7 11.64 2 13 C2.20625 12.21625 2.4125 11.4325 2.625 10.625 C2.810625 9.325625 2.810625 9.325625 3 8 C2.34 7.34 1.68 6.68 1 6 C0.01 6.33 -0.98 6.66 -2 7 C-2.33 5.68 -2.66 4.36 -3 3 C-2.34 3 -1.68 3 -1 3 C-0.67 2.01 -0.34 1.02 0 0 Z " fill="#48C0DF" transform="translate(50,87)"/>
<path d="M0 0 C0.99 0 1.98 0 3 0 C3 1.65 3 3.3 3 5 C-1.29 5 -5.58 5 -10 5 C-10 4.01 -10 3.02 -10 2 C-6.7 2 -3.4 2 0 2 C0 1.34 0 0.68 0 0 Z " fill="#3C3D89" transform="translate(29,43)"/>
<path d="M0 0 C0.09978121 3.49234244 -0.22157062 6.59437148 -1 10 C-3.31 9.34 -5.62 8.68 -8 8 C-8 7.01 -8 6.02 -8 5 C-7.01 5 -6.02 5 -5 5 C-4.71125 4.360625 -4.4225 3.72125 -4.125 3.0625 C-3.04730781 1.08673098 -2.41677831 0 0 0 Z " fill="#88CBEE" transform="translate(41,89)"/>
<path d="M0 0 C2.60444348 -0.05394705 5.20776998 -0.09364469 7.8125 -0.125 C8.55048828 -0.14175781 9.28847656 -0.15851562 10.04882812 -0.17578125 C13.91246426 -0.21074628 15.70903668 -0.19397555 19 2 C13.39 2 7.78 2 2 2 C2 2.66 2 3.32 2 4 C1.01 4 0.02 4 -1 4 C-0.67 2.68 -0.34 1.36 0 0 Z " fill="#33C6DE" transform="translate(42,45)"/>
<path d="M0 0 C-0.33 1.98 -0.66 3.96 -1 6 C2.96 6.33 6.92 6.66 11 7 C11 7.33 11 7.66 11 8 C4.73 8 -1.54 8 -8 8 C-8 7.67 -8 7.34 -8 7 C-6.02 7 -4.04 7 -2 7 C-2 5.35 -2 3.7 -2 2 C-3.98 2 -5.96 2 -8 2 C-8 1.67 -8 1.34 -8 1 C-5.23735711 0.40267181 -2.83967231 0 0 0 Z " fill="#9CE0E8" transform="translate(15,45)"/>
<path d="M0 0 C2.75 0.25 2.75 0.25 5 1 C5 1.99 5 2.98 5 4 C4.01 4.495 4.01 4.495 3 5 C3 5.66 3 6.32 3 7 C-1.75 6.25 -1.75 6.25 -4 4 C-2.3125 1.9375 -2.3125 1.9375 0 0 Z " fill="#3CC1D8" transform="translate(55,86)"/>
<path d="M0 0 C0.33 0.66 0.66 1.32 1 2 C2.86196946 2.92393164 2.86196946 2.92393164 5 3 C6.77190909 1.64555699 6.77190909 1.64555699 8 0 C8.66 0.33 9.32 0.66 10 1 C8.68 3.31 7.36 5.62 6 8 C4.125 7.6875 4.125 7.6875 2 7 C0 4 0 4 0 0 Z " fill="#88E0EA" transform="translate(108,103)"/>
<path d="M0 0 C0.99 0 1.98 0 3 0 C3.08121924 1.60332791 3.13929134 3.20784026 3.1875 4.8125 C3.23970703 6.15248047 3.23970703 6.15248047 3.29296875 7.51953125 C3 10 3 10 0 13 C0 8.71 0 4.42 0 0 Z " fill="#3B96D8" transform="translate(41,49)"/>
<path d="M0 0 C2.31 0 4.62 0 7 0 C7 1.65 7 3.3 7 5 C4.69 5 2.38 5 0 5 C0 3.35 0 1.7 0 0 Z " fill="#3C3E8A" transform="translate(98,49)"/>
<path d="M0 0 C1.07765625 0.10183594 2.1553125 0.20367187 3.265625 0.30859375 C4.08546875 0.39238281 4.9053125 0.47617188 5.75 0.5625 C5.75 1.2225 5.75 1.8825 5.75 2.5625 C0.47 2.5625 -4.81 2.5625 -10.25 2.5625 C-10.25 1.9025 -10.25 1.2425 -10.25 0.5625 C-6.70049966 -0.60056443 -3.69176052 -0.36115049 0 0 Z " fill="#99C0FE" transform="translate(68.25,118.4375)"/>
<path d="M0 0 C0.99 0 1.98 0 3 0 C3 2.64 3 5.28 3 8 C2.01 8.495 2.01 8.495 1 9 C1 9.66 1 10.32 1 11 C0.34 11 -0.32 11 -1 11 C-1.02688151 9.35425434 -1.04634123 7.70838587 -1.0625 6.0625 C-1.07410156 5.14597656 -1.08570312 4.22945313 -1.09765625 3.28515625 C-1 1 -1 1 0 0 Z " fill="#6B73FE" transform="translate(124,95)"/>
<path d="M0 0 C0 0.99 0 1.98 0 3 C-4.95 3 -9.9 3 -15 3 C-15 2.34 -15 1.68 -15 1 C-13.25021843 0.83105557 -11.50016388 0.66493691 -9.75 0.5 C-8.77546875 0.4071875 -7.8009375 0.314375 -6.796875 0.21875 C-4.53697847 0.04199832 -2.26679807 0 0 0 Z " fill="#87D8E4" transform="translate(22,74)"/>
<path d="M0 0 C4.62 0 9.24 0 14 0 C14.33 1.32 14.66 2.64 15 4 C14.01 4 13.02 4 12 4 C12 3.34 12 2.68 12 2 C8.37 2 4.74 2 1 2 C0.67 1.34 0.34 0.68 0 0 Z " fill="#58DAD4" transform="translate(83,45)"/>
<path d="M0 0 C4.95 0 9.9 0 15 0 C14.67 0.99 14.34 1.98 14 3 C7.07 2.505 7.07 2.505 0 2 C0 1.34 0 0.68 0 0 Z " fill="#99DEE8" transform="translate(7,63)"/>
<path d="M0 0 C0 0.33 0 0.66 0 1 C-2.31 1 -4.62 1 -7 1 C-6.67 2.32 -6.34 3.64 -6 5 C-3.03 5.495 -3.03 5.495 0 6 C0 6.33 0 6.66 0 7 C-4.455 7.495 -4.455 7.495 -9 8 C-9 5.36 -9 2.72 -9 0 C-5.93109813 -1.53445094 -3.29905734 -0.54984289 0 0 Z " fill="#89E2DC" transform="translate(41,40)"/>
<path d="M0 0 C3.3 0 6.6 0 10 0 C10 0.99 10 1.98 10 3 C6.7 3 3.4 3 0 3 C0 2.01 0 1.02 0 0 Z " fill="#33D3D1" transform="translate(13,77)"/>
<path d="M0 0 C1.67542976 0.28604898 3.34385343 0.61781233 5 1 C4.67 2.32 4.34 3.64 4 5 C2.68 5.33 1.36 5.66 0 6 C-0.38218767 4.34385343 -0.71395102 2.67542976 -1 1 C-0.67 0.67 -0.34 0.34 0 0 Z " fill="#51D1DD" transform="translate(22,67)"/>
<path d="M0 0 C0.99 0 1.98 0 3 0 C2.67 1.98 2.34 3.96 2 6 C0.35 6.33 -1.3 6.66 -3 7 C-2.38722388 4.03824877 -1.74627478 2.61941217 0 0 Z " fill="#3CD7D7" transform="translate(117,104)"/>
<path d="M0 0 C1.98 0 3.96 0 6 0 C5.360625 0.598125 4.72125 1.19625 4.0625 1.8125 C1.79689611 3.90810337 1.79689611 3.90810337 1 7 C1.66 7 2.32 7 3 7 C2.67 8.32 2.34 9.64 2 11 C1.01 11 0.02 11 -1 11 C-0.34 10.34 0.32 9.68 1 9 C0.649375 7.88625 0.29875 6.7725 -0.0625 5.625 C-1 2 -1 2 0 0 Z " fill="#50D8D4" transform="translate(121,47)"/>
<path d="M0 0 C0.66 0 1.32 0 2 0 C2.042721 1.66611905 2.04063832 3.33382885 2 5 C1 6 1 6 -2.5625 6.0625 C-3.696875 6.041875 -4.83125 6.02125 -6 6 C-5.34 5.01 -4.68 4.02 -4 3 C-3.34 3.33 -2.68 3.66 -2 4 C-1.34 2.68 -0.68 1.36 0 0 Z " fill="#36DFC2" transform="translate(58,99)"/>
<path d="M0 0 C0.33 0 0.66 0 1 0 C1 2.31 1 4.62 1 7 C-1.31 7 -3.62 7 -6 7 C-5.02433888 5.83040013 -4.044375 4.66438823 -3.0625 3.5 C-2.51722656 2.8503125 -1.97195312 2.200625 -1.41015625 1.53125 C-0.71212891 0.77328125 -0.71212891 0.77328125 0 0 Z " fill="#799AFE" transform="translate(126,117)"/>
<path d="M0 0 C3.3 0 6.6 0 10 0 C10 0.66 10 1.32 10 2 C5.545 2.495 5.545 2.495 1 3 C0.67 2.01 0.34 1.02 0 0 Z " fill="#4ED1D9" transform="translate(33,102)"/>
<path d="M0 0 C0.66 0 1.32 0 2 0 C2 1.65 2 3.3 2 5 C2.66 5.33 3.32 5.66 4 6 C2.68 6.99 1.36 7.98 0 9 C-0.66 7.68 -1.32 6.36 -2 5 C-1.34 5 -0.68 5 0 5 C0 3.35 0 1.7 0 0 Z " fill="#F6FCFC" transform="translate(119,50)"/>
<path d="M0 0 C1.32 0 2.64 0 4 0 C4 1.98 4 3.96 4 6 C2.68 6 1.36 6 0 6 C0 4.02 0 2.04 0 0 Z " fill="#35B0C6" transform="translate(26,59)"/>
<path d="M0 0 C1.32 0.99 2.64 1.98 4 3 C3.67 4.65 3.34 6.3 3 8 C2.01 7.67 1.02 7.34 0 7 C0 4.69 0 2.38 0 0 Z " fill="#34C1C5" transform="translate(115,55)"/>
<path d="M0 0 C0.33 0 0.66 0 1 0 C1.33 2.64 1.66 5.28 2 8 C0.68 8 -0.64 8 -2 8 C-2.125 5.125 -2.125 5.125 -2 2 C-1.34 1.34 -0.68 0.68 0 0 Z " fill="#665EFF" transform="translate(104,107)"/>
<path d="M0 0 C0.99 1.32 1.98 2.64 3 4 C2 5 2 5 -1.0625 5.0625 C-2.5165625 5.0315625 -2.5165625 5.0315625 -4 5 C-2.25 1.125 -2.25 1.125 0 0 Z " fill="#41C5D8" transform="translate(51,92)"/>
<path d="M0 0 C1.65 0 3.3 0 5 0 C5 1.32 5 2.64 5 4 C3.68 4.33 2.36 4.66 1 5 C0.67 3.35 0.34 1.7 0 0 Z " fill="#34C2C5" transform="translate(47,97)"/>
<path d="M0 0 C3.3 0 6.6 0 10 0 C10 0.33 10 0.66 10 1 C7.36 1.33 4.72 1.66 2 2 C2 2.66 2 3.32 2 4 C1.01 4 0.02 4 -1 4 C-0.67 2.68 -0.34 1.36 0 0 Z " fill="#46AFF5" transform="translate(106,96)"/>
<path d="M0 0 C1.65 1.65 3.3 3.3 5 5 C3.35 6.32 1.7 7.64 0 9 C0.185625 8.2575 0.37125 7.515 0.5625 6.75 C0.99203108 4.05009037 0.85122974 2.55368923 0 0 Z " fill="#E6F7FA" transform="translate(52,91)"/>
<path d="M0 0 C0.99 0.33 1.98 0.66 3 1 C1.515 4.96 1.515 4.96 0 9 C-0.66 9 -1.32 9 -2 9 C-1.34 6.03 -0.68 3.06 0 0 Z " fill="#E0F5F7" transform="translate(46,91)"/>
<path d="M0 0 C1.4540625 0.0309375 1.4540625 0.0309375 2.9375 0.0625 C0.32235683 2.18288635 -2.25887616 4.19341744 -5.0625 6.0625 C-3.98897059 0.08140756 -3.98897059 0.08140756 0 0 Z " fill="#41A8E4" transform="translate(46.0625,85.9375)"/>
<path d="M0 0 C1.134375 0.020625 2.26875 0.04125 3.4375 0.0625 C3.1075 0.7225 2.7775 1.3825 2.4375 2.0625 C-0.625 2.6875 -0.625 2.6875 -3.5625 3.0625 C-3.8925 4.3825 -4.2225 5.7025 -4.5625 7.0625 C-4.60504356 5.06295254 -4.60330783 3.06208364 -4.5625 1.0625 C-3.5625 0.0625 -3.5625 0.0625 0 0 Z " fill="#4893EC" transform="translate(37.5625,85.9375)"/>
<path d="M0 0 C0.33 1.32 0.66 2.64 1 4 C0.01 4 -0.98 4 -2 4 C-2.33 5.32 -2.66 6.64 -3 8 C-4.32 7.67 -5.64 7.34 -7 7 C-6.01 6.67 -5.02 6.34 -4 6 C-4 5.01 -4 4.02 -4 3 C-3.34 3 -2.68 3 -2 3 C-2 2.34 -2 1.68 -2 1 C-1.34 0.67 -0.68 0.34 0 0 Z " fill="#3FCBD3" transform="translate(33,67)"/>
<path d="M0 0 C0.33 0 0.66 0 1 0 C1 2.64 1 5.28 1 8 C0.01 8.33 -0.98 8.66 -2 9 C-2.25 3.375 -2.25 3.375 0 0 Z " fill="#409AE9" transform="translate(43,59)"/>
<path d="M0 0 C0.66 0 1.32 0 2 0 C2 1.32 2 2.64 2 4 C-0.70879335 5.35439668 -3.00933268 5.06501451 -6 5 C-5.38125 4.54625 -4.7625 4.0925 -4.125 3.625 C-1.94080167 2.02891081 -1.94080167 2.02891081 0 0 Z " fill="#36C2BB" transform="translate(32,48)"/>
<path d="M0 0 C2.0625 0.4375 2.0625 0.4375 4 1 C4 1.66 4 2.32 4 3 C3.34 3 2.68 3 2 3 C2 4.65 2 6.3 2 8 C1.01 8.33 0.02 8.66 -1 9 C-1 8.34 -1 7.68 -1 7 C-0.34 7 0.32 7 1 7 C1 5.35 1 3.7 1 2 C0.34 1.67 -0.32 1.34 -1 1 C-0.67 0.67 -0.34 0.34 0 0 Z " fill="#7BDBE1" transform="translate(117,47)"/>
<path d="M0 0 C1.11375 0.3403125 1.11375 0.3403125 2.25 0.6875 C1.92 1.3475 1.59 2.0075 1.25 2.6875 C-1.39 2.6875 -4.03 2.6875 -6.75 2.6875 C-4.29511132 0.41445492 -3.41240272 -0.38777304 0 0 Z " fill="#35D9C5" transform="translate(28.75,49.3125)"/>
<path d="M0 0 C1.65 0 3.3 0 5 0 C4.67 1.32 4.34 2.64 4 4 C2.68 4 1.36 4 0 4 C0 2.68 0 1.36 0 0 Z " fill="#33C7DE" transform="translate(13,65)"/>
<path d="M0 0 C1.65 0 3.3 0 5 0 C5 1.98 5 3.96 5 6 C4.67 5.34 4.34 4.68 4 4 C1.98330173 2.86649466 1.98330173 2.86649466 0 2 C0 1.34 0 0.68 0 0 Z " fill="#41D0DA" transform="translate(21,59)"/>
</svg>
