<?xml version="1.0" encoding="UTF-8"?>
<svg version="1.1" xmlns="http://www.w3.org/2000/svg" width="150" height="150">
<path d="M0 0 C3.3 0 6.6 0 10 0 C10 1.98 10 3.96 10 6 C15.55493924 7.02703748 15.55493924 7.02703748 21 6 C21.433125 7.134375 21.86625 8.26875 22.3125 9.4375 C23.3061169 11.45153786 23.3061169 11.45153786 25 13 C27.93713773 13.71501749 30.6179844 13.87371097 33.63671875 13.9296875 C36 14 36 14 37 15 C37.08748207 16.92667507 37.10697334 18.85651861 37.09765625 20.78515625 C37.09282227 22.53989258 37.09282227 22.53989258 37.08789062 24.33007812 C37.07532227 26.17762695 37.07532227 26.17762695 37.0625 28.0625 C37.05798828 29.29806641 37.05347656 30.53363281 37.04882812 31.80664062 C37.03699608 34.87114117 37.02051173 37.93554721 37 41 C38.98 41 40.96 41 43 41 C43.99 43.475 43.99 43.475 45 46 C44.34 46 43.68 46 43 46 C43.5878125 47.8871875 43.5878125 47.8871875 44.1875 49.8125 C44.75390625 52.01953125 44.75390625 52.01953125 45 54 C43.625 56 43.625 56 42 57 C41.01 56.67 40.02 56.34 39 56 C38.34 57.32 37.68 58.64 37 60 C35.02 60 33.04 60 31 60 C30.01 58.02 30.01 58.02 29 56 C27.68 56.33 26.36 56.66 25 57 C23.23937836 53.67438135 22.89215772 52.40826005 23.875 48.6875 C24.431875 47.3571875 24.431875 47.3571875 25 46 C24.34 46 23.68 46 23 46 C23 45.34 23 44.68 23 44 C22.34 44 21.68 44 21 44 C21 50.6 21 57.2 21 64 C23.31 64 25.62 64 28 64 C29 65 29 65 29.11352539 68.96899414 C29.1133662 70.74105607 29.10766785 72.5131226 29.09765625 74.28515625 C29.0962413 75.21597519 29.09482635 76.14679413 29.09336853 77.1058197 C29.08775172 80.09141191 29.0751964 83.07693029 29.0625 86.0625 C29.05748716 88.08137913 29.05292388 90.10025943 29.04882812 92.11914062 C29.03777683 97.07945572 29.02050095 102.03971532 29 107 C31.31 107.66 33.62 108.32 36 109 C35 111 35 111 33.34521484 111.61450195 C28.49200924 112.41225457 23.54404055 112.18590312 18.63769531 112.18530273 C16.63863013 112.18748512 14.63960468 112.20599143 12.640625 112.22460938 C11.36960937 112.22654297 10.09859375 112.22847656 8.7890625 112.23046875 C7.63100098 112.23457764 6.47293945 112.23868652 5.27978516 112.24291992 C1.88689046 111.99162245 -0.83332989 111.21173908 -4 110 C-3.67 109.34 -3.34 108.68 -3 108 C-0.4375 107.375 -0.4375 107.375 2 107 C1.32142944 106.99191315 0.64285889 106.98382629 -0.05627441 106.97549438 C-7.19572947 106.88863335 -14.33493245 106.7891071 -21.47412109 106.68261719 C-24.12938188 106.64363425 -26.7845665 106.60971702 -29.43994141 106.578125 C-67.93926359 106.11445232 -67.93926359 106.11445232 -75 102 C-74.505 101.01 -74.505 101.01 -74 100 C-73.34 100 -72.68 100 -72 100 C-72 99.01 -72 98.02 -72 97 C-73.98 96.67 -75.96 96.34 -78 96 C-78.33 96.99 -78.66 97.98 -79 99 C-81.88575819 98.60196439 -82.82189513 98.20990931 -84.75 95.9375 C-85.36875 94.9784375 -85.36875 94.9784375 -86 94 C-85.34 93.01 -84.68 92.02 -84 91 C-84.66868314 87.88667752 -84.66868314 87.88667752 -87.0625 86.8125 C-87.701875 86.544375 -88.34125 86.27625 -89 86 C-88.67 83.69 -88.34 81.38 -88 79 C-85.03 78.01 -85.03 78.01 -82 77 C-82 75.02 -82 73.04 -82 71 C-78.535 70.01 -78.535 70.01 -75 69 C-74.67 70.32 -74.34 71.64 -74 73 C-73.34 73 -72.68 73 -72 73 C-72 69.04 -72 65.08 -72 61 C-76.29 61 -80.58 61 -85 61 C-85.02683436 57.68744674 -85.0467578 54.37510817 -85.0625 51.0625 C-85.07087891 50.11697266 -85.07925781 49.17144531 -85.08789062 48.19726562 C-85.09111328 47.29814453 -85.09433594 46.39902344 -85.09765625 45.47265625 C-85.10289307 44.64000244 -85.10812988 43.80734863 -85.11352539 42.94946289 C-85 41 -85 41 -84 40 C-81.98035801 39.92755947 -79.95832876 39.91622812 -77.9375 39.9375 C-76.28041016 39.95103516 -76.28041016 39.95103516 -74.58984375 39.96484375 C-73.73519531 39.97644531 -72.88054687 39.98804688 -72 40 C-72.061875 38.906875 -72.12375 37.81375 -72.1875 36.6875 C-72 33 -72 33 -70.875 31.28125 C-68.1629604 29.42802294 -66.05676436 29.70784631 -62.8125 29.8125 C-61.72582031 29.83957031 -60.63914062 29.86664063 -59.51953125 29.89453125 C-58.27236328 29.94673828 -58.27236328 29.94673828 -57 30 C-56.67 28.68 -56.34 27.36 -56 26 C-54.77893555 25.98018066 -53.55787109 25.96036133 -52.29980469 25.93994141 C-47.76720646 25.86383877 -43.2349273 25.77512839 -38.70263672 25.68261719 C-36.7414378 25.64434673 -34.78016916 25.60949046 -32.81884766 25.578125 C-29.99877003 25.5324326 -27.17917162 25.474445 -24.359375 25.4140625 C-23.04510529 25.39673569 -23.04510529 25.39673569 -21.70428467 25.37905884 C-20.88373596 25.35918915 -20.06318726 25.33931946 -19.21777344 25.31884766 C-18.49829529 25.30552399 -17.77881714 25.29220032 -17.03753662 25.2784729 C-14.69844524 24.9587861 -13.04472763 24.15410784 -11 23 C-10.66602213 20.12586875 -10.66602213 20.12586875 -11 17 C-12.88077873 15.08743288 -12.88077873 15.08743288 -15 14 C-13.87548273 11.0280615 -12.77706209 8.66559313 -11 6 C-9.39125 6.2784375 -9.39125 6.2784375 -7.75 6.5625 C-4.59608454 6.9304568 -2.90181508 7.04465343 0 6 C0 4.02 0 2.04 0 0 Z M-2 13 C-4.2084626 16.31269391 -4.80664241 18.14978851 -4.5546875 22.0625 C-3.4812192 25.81207941 -1.28696911 27.01541488 2 29 C4.63836977 29.1672392 4.63836977 29.1672392 7 29 C7.03738281 28.01257813 7.07476562 27.02515625 7.11328125 26.0078125 C7.17902344 24.72648437 7.24476562 23.44515625 7.3125 22.125 C7.37050781 20.84882812 7.42851563 19.57265625 7.48828125 18.2578125 C7.65714844 17.18273437 7.82601562 16.10765625 8 15 C8.99 14.34 9.98 13.68 11 13 C9.01607489 10.60148679 9.01607489 10.60148679 5.1875 10.5625 C1.82266671 10.66669338 0.95629969 11.02913354 -2 13 Z M29 46 C28.6366844 48.83386167 28.6431329 50.40522151 30.125 52.875 C32.92151052 54.55290631 34.93690532 53.74875648 38 53 C38.67673447 49.59679066 38.67673447 49.59679066 39 46 C37.11499729 43.68436913 37.11499729 43.68436913 34 43.75 C30.88500271 43.68436913 30.88500271 43.68436913 29 46 Z M-78.25 79.625 C-80.21985834 81.92308586 -80.21985834 81.92308586 -80.5 85 C-80.21376982 88.06575838 -80.21376982 88.06575838 -78.3125 90.375 C-75.61209763 92.27258004 -74.22939919 92.35882213 -71 92 C-70.85024761 84.94348748 -70.85024761 84.94348748 -72 78 C-75.92212225 77.60967296 -75.92212225 77.60967296 -78.25 79.625 Z M-65 94 C-64.67 95.65 -64.34 97.3 -64 99 C-51.13 98.01 -51.13 98.01 -38 97 C-37.67 96.01 -37.34 95.02 -37 94 C-46.24 94 -55.48 94 -65 94 Z M-13 94 C-13 94.99 -13 95.98 -13 97 C-7.72 97.33 -2.44 97.66 3 98 C3 96.68 3 95.36 3 94 C-2.28 94 -7.56 94 -13 94 Z " fill="#7182FE" transform="translate(98,19)"/>
<path d="M0 0 C18.15 0 36.3 0 55 0 C55.495 1.98 55.495 1.98 56 4 C58.31 4 60.62 4 63 4 C63 5.65 63 7.3 63 9 C61.19196899 9.01401855 61.19196899 9.01401855 59.34741211 9.02832031 C54.85371636 9.06834516 50.36069625 9.13413849 45.86743164 9.20751953 C43.92676506 9.23565685 41.98598543 9.25690726 40.04516602 9.27099609 C37.24697288 9.29252618 34.45012871 9.33922718 31.65234375 9.390625 C30.36129982 9.39246796 30.36129982 9.39246796 29.04417419 9.39434814 C23.23822761 9.53390954 19.81857425 10.73644647 15 14 C15 14.66 15 15.32 15 16 C13.68 16 12.36 16 11 16 C10.67 16.66 10.34 17.32 10 18 C9.01 18 8.02 18 7 18 C6.505 19.485 6.505 19.485 6 21 C5.34 21 4.68 21 4 21 C3.731875 21.556875 3.46375 22.11375 3.1875 22.6875 C1.89877353 25.19712523 0.47073522 27.59334236 -1 30 C1.91517292 28.92598892 3.77810176 28.22189824 6 26 C6.99 26 7.98 26 9 26 C9 25.01 9 24.02 9 23 C10.32 24.32 11.64 25.64 13 27 C10.93967555 30.09048668 8.91117401 31.74384014 6 34 C5.34 34.66 4.68 35.32 4 36 C1.875 36.625 1.875 36.625 0 37 C0 37.99 0 38.98 0 40 C1.21558594 40.06058594 2.43117188 40.12117188 3.68359375 40.18359375 C5.26824228 40.26798332 6.85287702 40.3526321 8.4375 40.4375 C9.23994141 40.47681641 10.04238281 40.51613281 10.86914062 40.55664062 C16.88671875 40.88671875 16.88671875 40.88671875 18 42 C18.09986975 44.84335048 18.13877881 47.65697163 18.125 50.5 C18.13080078 51.69689453 18.13080078 51.69689453 18.13671875 52.91796875 C18.12660767 58.87339233 18.12660767 58.87339233 17 60 C15.14630389 60.08737645 13.28932459 60.10698153 11.43359375 60.09765625 C10.30888672 60.09443359 9.18417969 60.09121094 8.02539062 60.08789062 C6.84138672 60.07951172 5.65738281 60.07113281 4.4375 60.0625 C3.24962891 60.05798828 2.06175781 60.05347656 0.83789062 60.04882812 C-2.10812226 60.03699675 -5.05403681 60.02051287 -8 60 C-8.33 59.01 -8.66 58.02 -9 57 C-11.31 57 -13.62 57 -16 57 C-16 49.74 -16 42.48 -16 35 C-20.29 35 -24.58 35 -29 35 C-29.02683436 31.68744674 -29.0467578 28.37510817 -29.0625 25.0625 C-29.07087891 24.11697266 -29.07925781 23.17144531 -29.08789062 22.19726562 C-29.09111328 21.29814453 -29.09433594 20.39902344 -29.09765625 19.47265625 C-29.10289307 18.64000244 -29.10812988 17.80734863 -29.11352539 16.94946289 C-29 15 -29 15 -28 14 C-25.98035801 13.92755947 -23.95832876 13.91622812 -21.9375 13.9375 C-20.28041016 13.95103516 -20.28041016 13.95103516 -18.58984375 13.96484375 C-17.73519531 13.97644531 -16.88054688 13.98804688 -16 14 C-16.061875 12.906875 -16.12375 11.81375 -16.1875 10.6875 C-16 7 -16 7 -14.875 5.28125 C-12.1629604 3.42802294 -10.05676436 3.70784631 -6.8125 3.8125 C-5.72582031 3.83957031 -4.63914062 3.86664063 -3.51953125 3.89453125 C-2.27236328 3.94673828 -2.27236328 3.94673828 -1 4 C-0.67 2.68 -0.34 1.36 0 0 Z M-3 26 C-3.33 27.65 -3.66 29.3 -4 31 C-2.68 31.33 -1.36 31.66 0 32 C-0.66 30.02 -1.32 28.04 -2 26 C-2.33 26 -2.66 26 -3 26 Z " fill="#5B3DFF" transform="translate(42,45)"/>
<path d="M0 0 C3.3 0 6.6 0 10 0 C10 1.98 10 3.96 10 6 C15.55493924 7.02703748 15.55493924 7.02703748 21 6 C21.433125 7.134375 21.86625 8.26875 22.3125 9.4375 C23.3061169 11.45153786 23.3061169 11.45153786 25 13 C27.93713773 13.71501749 30.6179844 13.87371097 33.63671875 13.9296875 C36 14 36 14 37 15 C37.08748207 16.92667507 37.10697334 18.85651861 37.09765625 20.78515625 C37.09443359 21.95498047 37.09121094 23.12480469 37.08789062 24.33007812 C37.07532227 26.17762695 37.07532227 26.17762695 37.0625 28.0625 C37.05798828 29.29806641 37.05347656 30.53363281 37.04882812 31.80664062 C37.03699608 34.87114117 37.02051173 37.93554721 37 41 C38.98 41 40.96 41 43 41 C43.66 42.65 44.32 44.3 45 46 C44.34 46 43.68 46 43 46 C43.5878125 47.8871875 43.5878125 47.8871875 44.1875 49.8125 C44.75390625 52.01953125 44.75390625 52.01953125 45 54 C43.625 56 43.625 56 42 57 C41.01 56.67 40.02 56.34 39 56 C38.34 57.32 37.68 58.64 37 60 C35.02 60 33.04 60 31 60 C30.34 58.68 29.68 57.36 29 56 C27.02 56.495 27.02 56.495 25 57 C23.23937836 53.67438135 22.89215772 52.40826005 23.875 48.6875 C24.24625 47.800625 24.6175 46.91375 25 46 C24.34 46 23.68 46 23 46 C23 45.34 23 44.68 23 44 C17.72 44 12.44 44 7 44 C7 39.38 7 34.76 7 30 C4.69 30 2.38 30 0 30 C0 29.34 0 28.68 0 28 C2.31 28.33 4.62 28.66 7 29 C6.94779297 27.51886719 6.94779297 27.51886719 6.89453125 26.0078125 C6.86746094 24.72648437 6.84039062 23.44515625 6.8125 22.125 C6.76029297 20.21074219 6.76029297 20.21074219 6.70703125 18.2578125 C6.80371094 17.18273437 6.90039062 16.10765625 7 15 C7.99 14.34 8.98 13.68 10 13 C8.78410016 11.56844101 8.78410016 11.56844101 5.1875 11.6875 C2.21382315 11.74622611 1.12248853 11.92650688 -1.5 13.5 C-3.71177972 17.18629954 -3.34421275 19.73176192 -3 24 C-2.67 24.66 -2.34 25.32 -2 26 C-6.29 26 -10.58 26 -15 26 C-13.68 25.01 -12.36 24.02 -11 23 C-10.33333333 20 -10.33333333 20 -11 17 C-12.88077873 15.08743288 -12.88077873 15.08743288 -15 14 C-13.87548273 11.0280615 -12.77706209 8.66559313 -11 6 C-9.39125 6.2784375 -9.39125 6.2784375 -7.75 6.5625 C-4.59608454 6.9304568 -2.90181508 7.04465343 0 6 C0 4.02 0 2.04 0 0 Z M29 46 C28.6366844 48.83386167 28.6431329 50.40522151 30.125 52.875 C32.92151052 54.55290631 34.93690532 53.74875648 38 53 C38.67673447 49.59679066 38.67673447 49.59679066 39 46 C37.11499729 43.68436913 37.11499729 43.68436913 34 43.75 C30.88500271 43.68436913 30.88500271 43.68436913 29 46 Z " fill="#36DBC8" transform="translate(98,19)"/>
<path d="M0 0 C0.33 1.32 0.66 2.64 1 4 C1.66 4 2.32 4 3 4 C3 5.65 3 7.3 3 9 C2.030625 9.28875 1.06125 9.5775 0.0625 9.875 C-3.10664203 10.64214682 -3.10664203 10.64214682 -4 13 C-4.0689472 14.37342831 -4.08467708 15.75002102 -4.0625 17.125 C-4.041875 18.40375 -4.02125 19.6825 -4 21 C-1.36 21.66 1.28 22.32 4 23 C4 20.03 4 17.06 4 14 C5.98 14 7.96 14 10 14 C10.33 14.66 10.66 15.32 11 16 C19.25 16 27.5 16 36 16 C36.33 15.34 36.66 14.68 37 14 C43.27 14 49.54 14 56 14 C55 21 55 21 53.25 23.3125 C49.2483216 26.3137588 45.98732971 27.28499027 41 27 C41 28.32 41 29.64 41 31 C40.01 31.495 40.01 31.495 39 32 C54.84 32.495 54.84 32.495 71 33 C70.67 32.34 70.34 31.68 70 31 C68.845 30.835 67.69 30.67 66.5 30.5 C65.345 30.335 64.19 30.17 63 30 C62.505 29.01 62.505 29.01 62 28 C67.45769811 27.88861841 72.61509359 28.08342019 78 29 C78 31.64 78 34.28 78 37 C70.71409984 37.04682155 63.42823335 37.08211748 56.14221191 37.10362434 C52.75718789 37.11395864 49.37226851 37.12792229 45.98730469 37.15087891 C7.5625541 37.39227608 7.5625541 37.39227608 0 33 C0.33 32.34 0.66 31.68 1 31 C1.66 31 2.32 31 3 31 C3 30.01 3 29.02 3 28 C1.02 27.67 -0.96 27.34 -3 27 C-3.33 27.99 -3.66 28.98 -4 30 C-6.88575819 29.60196439 -7.82189513 29.20990931 -9.75 26.9375 C-10.1625 26.298125 -10.575 25.65875 -11 25 C-10.34 24.01 -9.68 23.02 -9 22 C-9.66868314 18.88667752 -9.66868314 18.88667752 -12.0625 17.8125 C-12.701875 17.544375 -13.34125 17.27625 -14 17 C-13.67 14.69 -13.34 12.38 -13 10 C-11.02 9.34 -9.04 8.68 -7 8 C-7 6.02 -7 4.04 -7 2 C-2.25 0 -2.25 0 0 0 Z M10 25 C10.33 26.65 10.66 28.3 11 30 C23.87 29.01 23.87 29.01 37 28 C37.33 27.01 37.66 26.02 38 25 C28.76 25 19.52 25 10 25 Z " fill="#EAEBF2" transform="translate(23,88)"/>
<path d="M0 0 C0.33 0 0.66 0 1 0 C1.495 8.91 1.495 8.91 2 18 C2.99 15.36 3.98 12.72 5 10 C10.61 10 16.22 10 22 10 C22.020625 12.784375 22.04125 15.56875 22.0625 18.4375 C22.071604 19.31591553 22.08070801 20.19433105 22.09008789 21.09936523 C22.09723091 23.06645974 22.05031893 25.03353621 22 27 C19.60043729 29.39956271 13.4714488 28.46575982 10.22265625 28.62109375 C6.91423026 28.67263675 6.91423026 28.67263675 5 31 C4.01 31.33 3.02 31.66 2 32 C1.67 33.98 1.34 35.96 1 38 C9.25 38 17.5 38 26 38 C26 38.66 26 39.32 26 40 C28.31 40.66 30.62 41.32 33 42 C32 44 32 44 30.34521484 44.61450195 C25.49200924 45.41225457 20.54404055 45.18590312 15.63769531 45.18530273 C13.63863013 45.18748512 11.63960468 45.20599143 9.640625 45.22460938 C8.36960938 45.22654297 7.09859375 45.22847656 5.7890625 45.23046875 C4.63100098 45.23457764 3.47293945 45.23868652 2.27978516 45.24291992 C-1.11310954 44.99162245 -3.83332989 44.21173908 -7 43 C-6 41 -6 41 -2.9375 39.875 C-1.968125 39.58625 -0.99875 39.2975 0 39 C0 35.04 0 31.08 0 27 C-5.28 27 -10.56 27 -16 27 C-15.67 28.32 -15.34 29.64 -15 31 C-12.69 31.33 -10.38 31.66 -8 32 C-7.67 32.99 -7.34 33.98 -7 35 C-17.56 35 -28.12 35 -39 35 C-39.33 34.34 -39.66 33.68 -40 33 C-39.01 33 -38.02 33 -37 33 C-37.185625 32.360625 -37.37125 31.72125 -37.5625 31.0625 C-37.706875 30.381875 -37.85125 29.70125 -38 29 C-37.67 28.67 -37.34 28.34 -37 28 C-36.0925 28.04125 -35.185 28.0825 -34.25 28.125 C-30.52164964 27.98160191 -28.92206725 27.27271897 -26 25 C-24.74172877 23.15017528 -24.74172877 23.15017528 -24 21 C-23.34 19.35 -22.68 17.7 -22 16 C-14.74 16 -7.48 16 0 16 C0 10.72 0 5.44 0 0 Z " fill="#B1CFFE" transform="translate(101,86)"/>
<path d="M0 0 C0.72680969 0.0028299 1.45361938 0.00565979 2.20245361 0.00857544 C4.51534751 0.01973727 6.82784888 0.04483399 9.140625 0.0703125 C10.71223398 0.08034749 12.28384904 0.08947244 13.85546875 0.09765625 C17.70067122 0.11966346 21.54558164 0.15416535 25.390625 0.1953125 C25.060625 1.5153125 24.730625 2.8353125 24.390625 4.1953125 C23.730625 4.1953125 23.070625 4.1953125 22.390625 4.1953125 C20.34771318 5.46191783 18.34372388 6.79417634 16.390625 8.1953125 C16.390625 8.5253125 16.390625 8.8553125 16.390625 9.1953125 C17.050625 9.5253125 17.710625 9.8553125 18.390625 10.1953125 C15.390625 12.1953125 15.390625 12.1953125 13.203125 11.8203125 C12.605 11.6140625 12.006875 11.4078125 11.390625 11.1953125 C11.885625 12.6803125 11.885625 12.6803125 12.390625 14.1953125 C11.953125 16.8828125 11.953125 16.8828125 11.390625 19.1953125 C10.895625 18.2053125 10.895625 18.2053125 10.390625 17.1953125 C8.44987639 17.47148783 8.44987639 17.47148783 6.390625 18.1953125 C5.730625 19.1853125 5.070625 20.1753125 4.390625 21.1953125 C3.400625 21.5253125 2.410625 21.8553125 1.390625 22.1953125 C1.060625 22.8553125 0.730625 23.5153125 0.390625 24.1953125 C-0.599375 24.1953125 -1.589375 24.1953125 -2.609375 24.1953125 C-2.609375 25.5153125 -2.609375 26.8353125 -2.609375 28.1953125 C-3.54523438 28.31712891 -3.54523438 28.31712891 -4.5 28.44140625 C-6.7586197 28.98960694 -6.7586197 28.98960694 -7.65625 31.04296875 C-7.88828125 31.77386719 -8.1203125 32.50476563 -8.359375 33.2578125 C-8.60171875 33.99128906 -8.8440625 34.72476563 -9.09375 35.48046875 C-9.26390625 36.04636719 -9.4340625 36.61226562 -9.609375 37.1953125 C-9.92519531 36.55078125 -10.24101563 35.90625 -10.56640625 35.2421875 C-13.71557835 32.08699404 -16.99953983 32.522869 -21.296875 32.4453125 C-22.49280273 32.40083984 -22.49280273 32.40083984 -23.71289062 32.35546875 C-25.67784249 32.28487168 -27.64361477 32.23781542 -29.609375 32.1953125 C-29.939375 30.5453125 -30.269375 28.8953125 -30.609375 27.1953125 C-28.629375 26.8653125 -26.649375 26.5353125 -24.609375 26.1953125 C-24.939375 25.5353125 -25.269375 24.8753125 -25.609375 24.1953125 C-24.84625 23.9684375 -24.083125 23.7415625 -23.296875 23.5078125 C-20.06201199 21.92799568 -19.19296142 20.36248533 -17.609375 17.1953125 C-18.599375 16.5353125 -19.589375 15.8753125 -20.609375 15.1953125 C-20.279375 16.1853125 -19.949375 17.1753125 -19.609375 18.1953125 C-20.351875 18.3190625 -21.094375 18.4428125 -21.859375 18.5703125 C-24.42012881 19.152302 -26.29752198 19.99952646 -28.609375 21.1953125 C-29.269375 21.1953125 -29.929375 21.1953125 -30.609375 21.1953125 C-30.921875 19.0078125 -30.921875 19.0078125 -30.609375 16.1953125 C-27.62114249 12.52405541 -25.00831333 10.78381801 -20.609375 9.1953125 C-20.279375 8.5353125 -19.949375 7.8753125 -19.609375 7.1953125 C-17.90234375 5.9765625 -17.90234375 5.9765625 -15.796875 4.6953125 C-15.10980469 4.2725 -14.42273438 3.8496875 -13.71484375 3.4140625 C-13.02003906 3.011875 -12.32523438 2.6096875 -11.609375 2.1953125 C-11.06289307 1.8442041 -10.51641113 1.4930957 -9.95336914 1.13134766 C-6.65740079 -0.1848426 -3.49179482 -0.0514045 0 0 Z M-32.609375 17.1953125 C-31.609375 19.1953125 -30.609375 21.1953125 -29.609375 23.1953125 C-30.929375 22.8653125 -32.249375 22.5353125 -33.609375 22.1953125 C-33.279375 20.5453125 -32.949375 18.8953125 -32.609375 17.1953125 Z " fill="#665EFE" transform="translate(71.609375,53.8046875)"/>
<path d="M0 0 C0.0270043 1.45823212 0.04639787 2.91660675 0.0625 4.375 C0.07410156 5.18710937 0.08570313 5.99921875 0.09765625 6.8359375 C0 9 0 9 -1 11 C-1.66 11 -2.32 11 -3 11 C-2.505 12.485 -2.505 12.485 -2 14 C-2.804375 14.12375 -3.60875 14.2475 -4.4375 14.375 C-5.283125 14.58125 -6.12875 14.7875 -7 15 C-7.33 15.66 -7.66 16.32 -8 17 C-9.2065625 17.680625 -9.2065625 17.680625 -10.4375 18.375 C-13.1588708 20.10074733 -13.97046145 21.00497875 -15 24 C-15 24.99 -15 25.98 -15 27 C-18.3171411 28.4216319 -21.44219804 29.39009109 -25 30 C-24.938125 30.78375 -24.87625 31.5675 -24.8125 32.375 C-24.9053125 33.674375 -24.9053125 33.674375 -25 35 C-25.99 35.66 -26.98 36.32 -28 37 C-28 37.33 -28 37.66 -28 38 C-28.763125 38.0825 -29.52625 38.165 -30.3125 38.25 C-33.52364466 38.8519739 -33.52364466 38.8519739 -36 43 C-25.44 43 -14.88 43 -4 43 C-4 44.65 -4 46.3 -4 48 C-17.53 48 -31.06 48 -45 48 C-45 34.08571429 -45 34.08571429 -39.8125 28.75 C-39.214375 28.1725 -38.61625 27.595 -38 27 C-37.34 27.33 -36.68 27.66 -36 28 C-36 26.68 -36 25.36 -36 24 C-35.01 23.34 -34.02 22.68 -33 22 C-32.34 21.34 -31.68 20.68 -31 20 C-30.34 20 -29.68 20 -29 20 C-28.34 19.01 -27.68 18.02 -27 17 C-25.68 17 -24.36 17 -23 17 C-22.67 15.02 -22.34 13.04 -22 11 C-20.35 11 -18.7 11 -17 11 C-17.33 10.67 -17.66 10.34 -18 10 C-18.33 9.34 -18.66 8.68 -19 8 C-17.03246796 6.45408197 -15.19401516 5.09406796 -12.9375 4 C-10.91792871 3.1313177 -10.91792871 3.1313177 -9.75 1.375 C-6.80758046 -0.93690107 -3.64351176 -0.1791891 0 0 Z " fill="#6B71FE" transform="translate(105,54)"/>
<path d="M0 0 C1.32 0 2.64 0 4 0 C4 6.6 4 13.2 4 20 C6.31 20 8.62 20 11 20 C12 21 12 21 12.11352539 24.78540039 C12.11336622 26.47282729 12.10766917 28.16025905 12.09765625 29.84765625 C12.0962413 30.7340831 12.09482635 31.62050995 12.09336853 32.53379822 C12.08775215 35.37673254 12.07519691 38.21958931 12.0625 41.0625 C12.05748711 42.98502491 12.05292384 44.90755104 12.04882812 46.83007812 C12.03862648 51.55343964 12.01905437 56.27663258 12 61 C3.75 61 -4.5 61 -13 61 C-13 58.69 -13 56.38 -13 54 C-12.195625 53.690625 -11.39125 53.38125 -10.5625 53.0625 C-8.10919595 52.23664655 -8.10919595 52.23664655 -7 51 C-4.65012738 50.76472227 -2.29443961 50.58613583 0.0625 50.4375 C2.351875 50.293125 4.64125 50.14875 7 50 C7.33 44.39 7.66 38.78 8 33 C-0.415 33.495 -0.415 33.495 -9 34 C-10.19147711 38.76590845 -11.27933926 43.19559508 -12 48 C-12.33 48 -12.66 48 -13 48 C-13.19619224 43.70868391 -13.38048583 39.41693898 -13.5625 35.125 C-13.61857422 33.90167969 -13.67464844 32.67835937 -13.73242188 31.41796875 C-13.78076172 30.25136719 -13.82910156 29.08476563 -13.87890625 27.8828125 C-13.9260376 26.80402832 -13.97316895 25.72524414 -14.02172852 24.61376953 C-14 22 -14 22 -13 20 C-8.71 20 -4.42 20 0 20 C0 13.4 0 6.8 0 0 Z " fill="#5D44FE" transform="translate(115,63)"/>
<path d="M0 0 C1.98 0 3.96 0 6 0 C6.33 0.66 6.66 1.32 7 2 C15.25 2 23.5 2 32 2 C32.33 1.34 32.66 0.68 33 0 C39.27 0 45.54 0 52 0 C51 7 51 7 49.25 9.3125 C45.2483216 12.3137588 41.98732971 13.28499027 37 13 C37 14.32 37 15.64 37 17 C35 19 35 19 32.3984375 19.1953125 C31.40070312 19.17210938 30.40296875 19.14890625 29.375 19.125 C27.87066406 19.09792969 27.87066406 19.09792969 26.3359375 19.0703125 C25.56507812 19.04710938 24.79421875 19.02390625 24 19 C24 18.34 24 17.68 24 17 C24.56589844 16.89042969 25.13179687 16.78085938 25.71484375 16.66796875 C26.81505859 16.43013672 26.81505859 16.43013672 27.9375 16.1875 C28.66839844 16.03667969 29.39929688 15.88585937 30.15234375 15.73046875 C31.06693359 15.36888672 31.06693359 15.36888672 32 15 C32.33 14.01 32.66 13.02 33 12 C32.03586182 11.97494385 31.07172363 11.9498877 30.07836914 11.92407227 C26.51312158 11.83014694 22.94807567 11.72989061 19.38305664 11.62768555 C17.83785711 11.58428015 16.29260786 11.54260929 14.74731445 11.50268555 C12.53060904 11.44511801 10.3141552 11.38138576 8.09765625 11.31640625 C7.4028566 11.29969376 6.70805695 11.28298126 5.99220276 11.26576233 C1.11387171 11.11387171 1.11387171 11.11387171 0 10 C-0.07205511 8.31391034 -0.08386068 6.62499341 -0.0625 4.9375 C-0.05347656 4.01839844 -0.04445313 3.09929687 -0.03515625 2.15234375 C-0.02355469 1.44207031 -0.01195313 0.73179688 0 0 Z " fill="#BAD5FE" transform="translate(27,102)"/>
<path d="M0 0 C1.12019531 -0.00128906 2.24039063 -0.00257812 3.39453125 -0.00390625 C4.57402344 -0.00003906 5.75351562 0.00382812 6.96875 0.0078125 C8.73798828 0.00201172 8.73798828 0.00201172 10.54296875 -0.00390625 C12.22326172 -0.00197266 12.22326172 -0.00197266 13.9375 0 C14.97326172 0.00112793 16.00902344 0.00225586 17.07617188 0.00341797 C19.46875 0.1328125 19.46875 0.1328125 20.46875 1.1328125 C20.56861975 3.97616298 20.60752881 6.78978413 20.59375 9.6328125 C20.59955078 10.82970703 20.59955078 10.82970703 20.60546875 12.05078125 C20.59535767 18.00620483 20.59535767 18.00620483 19.46875 19.1328125 C17.62715977 19.23240871 15.78178033 19.26361661 13.9375 19.265625 C12.81730469 19.26691406 11.69710937 19.26820312 10.54296875 19.26953125 C9.36347656 19.26566406 8.18398438 19.26179688 6.96875 19.2578125 C5.19951172 19.26361328 5.19951172 19.26361328 3.39453125 19.26953125 C1.71423828 19.26759766 1.71423828 19.26759766 0 19.265625 C-1.03576172 19.26449707 -2.07152344 19.26336914 -3.13867188 19.26220703 C-5.53125 19.1328125 -5.53125 19.1328125 -6.53125 18.1328125 C-6.63111975 15.28946202 -6.67002881 12.47584087 -6.65625 9.6328125 C-6.66011719 8.83488281 -6.66398437 8.03695312 -6.66796875 7.21484375 C-6.65573175 0.007248 -6.65573175 0.007248 0 0 Z " fill="#3CD6CA" transform="translate(39.53125,85.8671875)"/>
<path d="M0 0 C0.83265381 0.00523682 1.66530762 0.01047363 2.52319336 0.01586914 C3.33280518 0.0183667 4.14241699 0.02086426 4.9765625 0.0234375 C6.01159912 0.0325415 7.04663574 0.04164551 8.11303711 0.05102539 C11.39241211 0.07165039 14.67178711 0.09227539 18.05053711 0.11352539 C18.05053711 7.04352539 18.05053711 13.97352539 18.05053711 21.11352539 C11.12053711 21.11352539 4.19053711 21.11352539 -2.94946289 21.11352539 C-2.97008789 17.83415039 -2.99071289 14.55477539 -3.01196289 11.17602539 C-3.02106689 10.14098877 -3.0301709 9.10595215 -3.03955078 8.03955078 C-3.04329712 6.82513306 -3.04329712 6.82513306 -3.04711914 5.58618164 C-3.05235596 4.75352783 -3.05759277 3.92087402 -3.06298828 3.06298828 C-2.90876673 0.41468917 -2.64829911 0.15422155 0 0 Z " fill="#32C7DE" transform="translate(15.949462890625,58.886474609375)"/>
<path d="M0 0 C3.3 0 6.6 0 10 0 C10 1.98 10 3.96 10 6 C14.20594226 6.72795155 16.80104745 7.04973814 21 6 C22.32 8.64 23.64 11.28 25 14 C22.70858714 14.05384521 20.41681812 14.09272087 18.125 14.125 C16.21074219 14.15980469 16.21074219 14.15980469 14.2578125 14.1953125 C11 14 11 14 9 12 C3.45764755 11.42765564 3.45764755 11.42765564 -1.5 13.5 C-3.71177972 17.18629954 -3.34421275 19.73176192 -3 24 C-2.67 24.66 -2.34 25.32 -2 26 C-6.29 26 -10.58 26 -15 26 C-13.68 25.01 -12.36 24.02 -11 23 C-10.33333333 20 -10.33333333 20 -11 17 C-12.88077873 15.08743288 -12.88077873 15.08743288 -15 14 C-13.87548273 11.0280615 -12.77706209 8.66559313 -11 6 C-9.39125 6.2784375 -9.39125 6.2784375 -7.75 6.5625 C-4.59608454 6.9304568 -2.90181508 7.04465343 0 6 C0 4.02 0 2.04 0 0 Z " fill="#E8EAF1" transform="translate(98,19)"/>
<path d="M0 0 C1.48831242 0.00667405 2.97660807 0.01863442 4.46484375 0.03515625 C5.22345703 0.03966797 5.98207031 0.04417969 6.76367188 0.04882812 C8.64326246 0.06064945 10.52281274 0.07858547 12.40234375 0.09765625 C10.42234375 1.08765625 10.42234375 1.08765625 8.40234375 2.09765625 C8.40234375 3.41765625 8.40234375 4.73765625 8.40234375 6.09765625 C9.49546875 5.87078125 10.58859375 5.64390625 11.71484375 5.41015625 C15.40234375 5.09765625 15.40234375 5.09765625 17.33984375 6.41015625 C18.40234375 8.09765625 18.40234375 8.09765625 18.40234375 10.09765625 C20.05234375 10.09765625 21.70234375 10.09765625 23.40234375 10.09765625 C23.89734375 12.07765625 23.89734375 12.07765625 24.40234375 14.09765625 C18.46234375 14.59265625 18.46234375 14.59265625 12.40234375 15.09765625 C12.40234375 16.74765625 12.40234375 18.39765625 12.40234375 20.09765625 C13.06234375 20.09765625 13.72234375 20.09765625 14.40234375 20.09765625 C14.40234375 22.09765625 14.40234375 22.09765625 12.90234375 23.72265625 C12.40734375 24.17640625 11.91234375 24.63015625 11.40234375 25.09765625 C7.52734375 23.34765625 7.52734375 23.34765625 6.40234375 21.09765625 C7.06234375 21.09765625 7.72234375 21.09765625 8.40234375 21.09765625 C7.90734375 18.62265625 7.90734375 18.62265625 7.40234375 16.09765625 C1.13234375 16.09765625 -5.13765625 16.09765625 -11.59765625 16.09765625 C-11.59765625 15.43765625 -11.59765625 14.77765625 -11.59765625 14.09765625 C-9.28765625 14.42765625 -6.97765625 14.75765625 -4.59765625 15.09765625 C-4.60925781 14.09863281 -4.62085937 13.09960938 -4.6328125 12.0703125 C-4.64183594 10.77996094 -4.65085937 9.48960938 -4.66015625 8.16015625 C-4.67175781 6.87238281 -4.68335937 5.58460937 -4.6953125 4.2578125 C-4.55688549 -0.22168547 -4.56678915 0.12396279 0 0 Z " fill="#6AD3E2" transform="translate(109.59765625,32.90234375)"/>
<path d="M0 0 C18.15 0 36.3 0 55 0 C55.495 1.98 55.495 1.98 56 4 C54 6 54 6 51.74740601 6.24050903 C50.34175888 6.2338472 50.34175888 6.2338472 48.90771484 6.22705078 C47.84676605 6.22689972 46.78581726 6.22674866 45.69271851 6.22659302 C44.54373077 6.21627045 43.39474304 6.20594788 42.2109375 6.1953125 C41.03737701 6.1924826 39.86381653 6.18965271 38.6546936 6.18673706 C34.89469338 6.17551355 31.13492861 6.15040492 27.375 6.125 C24.8307326 6.11497301 22.28646148 6.10584668 19.7421875 6.09765625 C13.4947109 6.07556714 7.24737227 6.04206824 1 6 C-0.0625 4.125 -0.0625 4.125 -1 2 C-0.67 1.34 -0.34 0.68 0 0 Z " fill="#3794BA" transform="translate(42,45)"/>
<path d="M0 0 C1.58206057 0.00667536 3.16410534 0.0186375 4.74609375 0.03515625 C5.55240234 0.03966797 6.35871094 0.04417969 7.18945312 0.04882812 C9.18753131 0.06065107 11.18557158 0.07858711 13.18359375 0.09765625 C13.21043687 2.91021906 13.23035563 5.72252866 13.24609375 8.53515625 C13.25447266 9.33759766 13.26285156 10.14003906 13.27148438 10.96679688 C13.28010805 13.01060846 13.23587525 15.05449527 13.18359375 17.09765625 C11.36243372 18.91881628 8.87687611 18.23000705 6.45703125 18.234375 C5.70679687 18.23050781 4.9565625 18.22664063 4.18359375 18.22265625 C3.05824219 18.22845703 3.05824219 18.22845703 1.91015625 18.234375 C-3.68979572 18.22426678 -3.68979572 18.22426678 -4.81640625 17.09765625 C-4.91621839 14.42034245 -4.955205 11.7746145 -4.94140625 9.09765625 C-4.94527344 8.34742187 -4.94914062 7.5971875 -4.953125 6.82421875 C-4.94103514 0.12643386 -4.94103514 0.12643386 0 0 Z " fill="#3DD0E3" transform="translate(109.81640625,95.90234375)"/>
<path d="M0 0 C0.33 0 0.66 0 1 0 C1.33 5.28 1.66 10.56 2 16 C7.94669633 14.87668013 7.94669633 14.87668013 12.5625 11.375 C14 10 14 10 17 10 C17 9.01 17 8.02 17 7 C18.32 8.32 19.64 9.64 21 11 C18.93967555 14.09048668 16.91117401 15.74384014 14 18 C13.34 18.66 12.68 19.32 12 20 C9.875 20.625 9.875 20.625 8 21 C8 22.32 8 23.64 8 25 C4.04 25.495 4.04 25.495 0 26 C-0.33 30.95 -0.66 35.9 -1 41 C-3.31 41 -5.62 41 -8 41 C-8 33.74 -8 26.48 -8 19 C-5.36 19 -2.72 19 0 19 C0 12.73 0 6.46 0 0 Z " fill="#604EFE" transform="translate(34,61)"/>
<path d="M0 0 C1.32 0 2.64 0 4 0 C4 9.57 4 19.14 4 29 C-4.25 29 -12.5 29 -21 29 C-21 26.69 -21 24.38 -21 22 C-19.7934375 21.5359375 -19.7934375 21.5359375 -18.5625 21.0625 C-16.10919595 20.23664655 -16.10919595 20.23664655 -15 19 C-12.65012738 18.76472227 -10.29443961 18.58613583 -7.9375 18.4375 C-4.5034375 18.2209375 -4.5034375 18.2209375 -1 18 C-0.67 12.06 -0.34 6.12 0 0 Z " fill="#7185FE" transform="translate(123,95)"/>
<path d="M0 0 C1.75183594 0.02320313 1.75183594 0.02320313 3.5390625 0.046875 C6.375 0.25 6.375 0.25 7.375 1.25 C9.02691396 1.34868509 10.68303217 1.37798837 12.33789062 1.37939453 C13.39568726 1.38254669 14.45348389 1.38569885 15.54333496 1.38894653 C16.69434692 1.3869223 17.84535889 1.38489807 19.03125 1.3828125 C20.20385376 1.38376923 21.37645752 1.38472595 22.58459473 1.38571167 C25.06958062 1.3863937 27.55456829 1.38453784 30.03955078 1.38037109 C33.85843887 1.37502319 37.67720935 1.38031536 41.49609375 1.38671875 C43.90364609 1.38605797 46.31119837 1.38477682 48.71875 1.3828125 C50.44526794 1.38584885 50.44526794 1.38584885 52.20666504 1.38894653 C53.79335999 1.38421829 53.79335999 1.38421829 55.41210938 1.37939453 C56.34841187 1.37859894 57.28471436 1.37780334 58.24938965 1.37698364 C60.3593306 1.48689643 60.3593306 1.48689643 61.375 0.25 C64.04558851 0.10884839 66.69932238 0.20752893 69.375 0.25 C69.375 1.9 69.375 3.55 69.375 5.25 C44.625 5.25 19.875 5.25 -5.625 5.25 C-5.625 6.9 -5.625 8.55 -5.625 10.25 C-6.945 10.25 -8.265 10.25 -9.625 10.25 C-9.98903455 3.81872301 -9.98903455 3.81872301 -8.52734375 1.53515625 C-5.69933051 -0.37534961 -3.36964703 -0.07471501 0 0 Z " fill="#3C3D89" transform="translate(35.625,48.75)"/>
<path d="M0 0 C0.33 0 0.66 0 1 0 C1.33 5.94 1.66 11.88 2 18 C2.66 17.67 3.32 17.34 4 17 C4.04898438 17.69867188 4.09796875 18.39734375 4.1484375 19.1171875 C4.22320312 20.02726562 4.29796875 20.93734375 4.375 21.875 C4.44460937 22.77992187 4.51421875 23.68484375 4.5859375 24.6171875 C4.79568132 27.17941903 4.79568132 27.17941903 7 29 C5 31 5 31 2 32 C1.67 33.98 1.34 35.96 1 38 C9.25 38 17.5 38 26 38 C26 38.66 26 39.32 26 40 C28.31 40.66 30.62 41.32 33 42 C32 44 32 44 30.34521484 44.61450195 C25.49200924 45.41225457 20.54404055 45.18590312 15.63769531 45.18530273 C13.63863013 45.18748512 11.63960468 45.20599143 9.640625 45.22460938 C8.36960937 45.22654297 7.09859375 45.22847656 5.7890625 45.23046875 C4.63100098 45.23457764 3.47293945 45.23868652 2.27978516 45.24291992 C-1.11310954 44.99162245 -3.83332989 44.21173908 -7 43 C-6 41 -6 41 0 39 C0 26.13 0 13.26 0 0 Z " fill="#625DE8" transform="translate(101,86)"/>
<path d="M0 0 C0.125 2.875 0.125 2.875 0 6 C-0.66 6.66 -1.32 7.32 -2 8 C-2.61875 8.66 -3.2375 9.32 -3.875 10 C-5.86449538 11.87246624 -7.51018484 12.93293636 -10 14 C-10 15.32 -10 16.64 -10 18 C-13 17 -13 17 -14 16 C-14.66 16.66 -15.32 17.32 -16 18 C-17.32 17.01 -18.64 16.02 -20 15 C-19.67 15.99 -19.34 16.98 -19 18 C-19.7425 18.12375 -20.485 18.2475 -21.25 18.375 C-23.81075381 18.9569895 -25.68814698 19.80421396 -28 21 C-28.66 21 -29.32 21 -30 21 C-30.3125 18.8125 -30.3125 18.8125 -30 16 C-27.01176749 12.32874291 -24.39893833 10.58850551 -20 9 C-19.67 8.34 -19.34 7.68 -19 7 C-17.29296875 5.78125 -17.29296875 5.78125 -15.1875 4.5 C-14.50042969 4.0771875 -13.81335938 3.654375 -13.10546875 3.21875 C-8.38955278 0.48894335 -5.58306522 -0.21473328 0 0 Z M-32 17 C-31 19 -30 21 -29 23 C-30.32 22.67 -31.64 22.34 -33 22 C-32.67 20.35 -32.34 18.7 -32 17 Z " fill="#604EFE" transform="translate(71,54)"/>
<path d="M0 0 C13.53 0 27.06 0 41 0 C41 1.65 41 3.3 41 5 C27.47 5 13.94 5 0 5 C0 3.35 0 1.7 0 0 Z " fill="#3C3D89" transform="translate(60,97)"/>
<path d="M0 0 C1.98 0 3.96 0 6 0 C6.66 1.65 7.32 3.3 8 5 C7.34 5 6.68 5 6 5 C6.391875 6.258125 6.78375 7.51625 7.1875 8.8125 C7.75390625 11.01953125 7.75390625 11.01953125 8 13 C6.625 15 6.625 15 5 16 C4.01 15.67 3.02 15.34 2 15 C1.34 16.32 0.68 17.64 0 19 C-1.98 19 -3.96 19 -6 19 C-6.66 17.68 -7.32 16.36 -8 15 C-9.32 15.33 -10.64 15.66 -12 16 C-13.76062164 12.67438135 -14.10784228 11.40826005 -13.125 7.6875 C-12.568125 6.3571875 -12.568125 6.3571875 -12 5 C-12.66 5 -13.32 5 -14 5 C-14 4.34 -14 3.68 -14 3 C-11.36 3 -8.72 3 -6 3 C-6.20625 4.11375 -6.4125 5.2275 -6.625 6.375 C-6.74875 7.57125 -6.8725 8.7675 -7 10 C-5.10244856 12.34973818 -5.10244856 12.34973818 -1.875 12.125 C-0.451875 12.063125 -0.451875 12.063125 1 12 C1.29562367 6.67829506 1.29562367 6.67829506 -1 2 C-0.67 1.34 -0.34 0.68 0 0 Z " fill="#EAEBF2" transform="translate(135,60)"/>
<path d="M0 0 C2.64 0 5.28 0 8 0 C8 6.93 8 13.86 8 21 C1.07 21 -5.86 21 -13 21 C-12.67 19.68 -12.34 18.36 -12 17 C-11.01 17 -10.02 17 -9 17 C-2.70614175 16.48924204 -2.70614175 16.48924204 3 14 C3 11.69 3 9.38 3 7 C2.01 7 1.02 7 0 7 C0 4.69 0 2.38 0 0 Z " fill="#39D2D0" transform="translate(26,59)"/>
<path d="M0 0 C0 2.66666667 0 5.33333333 0 8 C0.165 8.825 0.33 9.65 0.5 10.5 C1 13 1 13 1 15 C-3.62 15 -8.24 15 -13 15 C-13 10.38 -13 5.76 -13 1 C-1.125 0 -1.125 0 0 0 Z " fill="#3DBFD3" transform="translate(118,48)"/>
<path d="M0 0 C1.98 0 3.96 0 6 0 C6.33 0.66 6.66 1.32 7 2 C12.61 2.33 18.22 2.66 24 3 C22.68 3.99 21.36 4.98 20 6 C20.33 7.65 20.66 9.3 21 11 C17.68751813 11.02888146 14.37506833 11.04675799 11.0625 11.0625 C10.11697266 11.07087891 9.17144531 11.07925781 8.19726562 11.08789062 C6.84858398 11.09272461 6.84858398 11.09272461 5.47265625 11.09765625 C4.64000244 11.10289307 3.80734863 11.10812988 2.94946289 11.11352539 C1 11 1 11 0 10 C-0.07205511 8.31391034 -0.08386068 6.62499341 -0.0625 4.9375 C-0.05347656 4.01839844 -0.04445313 3.09929687 -0.03515625 2.15234375 C-0.02355469 1.44207031 -0.01195313 0.73179688 0 0 Z " fill="#C5DBFE" transform="translate(27,102)"/>
<path d="M0 0 C1.32 0 2.64 0 4 0 C4 6.6 4 13.2 4 20 C6.31 20 8.62 20 11 20 C11.33 20.99 11.66 21.98 12 23 C3.19039858 24.30512614 -5.19039858 24.30512614 -14 23 C-13.505 21.515 -13.505 21.515 -13 20 C-8.71 20 -4.42 20 0 20 C0 13.4 0 6.8 0 0 Z " fill="#4C4CA1" transform="translate(115,63)"/>
<path d="M0 0 C1.5631897 0.00785522 1.5631897 0.00785522 3.15795898 0.01586914 C4.28266602 0.0190918 5.40737305 0.02231445 6.56616211 0.02563477 C7.75016602 0.03401367 8.93416992 0.04239258 10.15405273 0.05102539 C11.34192383 0.05553711 12.52979492 0.06004883 13.75366211 0.06469727 C16.69967499 0.07652864 19.64558954 0.09301252 22.59155273 0.11352539 C22.92155273 0.77352539 23.25155273 1.43352539 23.59155273 2.11352539 C22.93155273 2.11352539 22.27155273 2.11352539 21.59155273 2.11352539 C21.59155273 2.77352539 21.59155273 3.43352539 21.59155273 4.11352539 C19.28155273 3.78352539 16.97155273 3.45352539 14.59155273 3.11352539 C14.26155273 4.10352539 13.93155273 5.09352539 13.59155273 6.11352539 C13.26155273 5.12352539 12.93155273 4.13352539 12.59155273 3.11352539 C11.93155273 3.11352539 11.27155273 3.11352539 10.59155273 3.11352539 C10.26155273 4.76352539 9.93155273 6.41352539 9.59155273 8.11352539 C8.60155273 8.11352539 7.61155273 8.11352539 6.59155273 8.11352539 C6.59155273 7.12352539 6.59155273 6.13352539 6.59155273 5.11352539 C5.93155273 5.11352539 5.27155273 5.11352539 4.59155273 5.11352539 C4.26155273 6.10352539 3.93155273 7.09352539 3.59155273 8.11352539 C2.93155273 8.77352539 2.27155273 9.43352539 1.59155273 10.11352539 C1.59155273 10.44352539 1.59155273 10.77352539 1.59155273 11.11352539 C-0.05844727 11.11352539 -1.70844727 11.11352539 -3.40844727 11.11352539 C-3.43532877 9.46777973 -3.4547885 7.82191126 -3.47094727 6.17602539 C-3.48254883 5.25950195 -3.49415039 4.34297852 -3.50610352 3.39868164 C-3.37081445 0.23291744 -3.1699095 0.14941793 0 0 Z " fill="#44A9E5" transform="translate(36.408447265625,85.886474609375)"/>
<path d="M0 0 C1.31871094 -0.01224609 2.63742188 -0.02449219 3.99609375 -0.03710938 C5.90068359 -0.04000977 5.90068359 -0.04000977 7.84375 -0.04296875 C9.00068359 -0.04707764 10.15761719 -0.05118652 11.34960938 -0.05541992 C14.47736509 0.18575467 16.680892 0.85423629 19.5 2.1875 C18.5 4.1875 18.5 4.1875 16.84521484 4.80200195 C11.99200924 5.59975457 7.04404055 5.37340312 2.13769531 5.37280273 C0.13863013 5.37498512 -1.86039532 5.39349143 -3.859375 5.41210938 C-5.13039063 5.41404297 -6.40140625 5.41597656 -7.7109375 5.41796875 C-8.86899902 5.42207764 -10.02706055 5.42618652 -11.22021484 5.43041992 C-14.61310954 5.17912245 -17.33332989 4.39923908 -20.5 3.1875 C-20.17 2.5275 -19.84 1.8675 -19.5 1.1875 C-13.23640183 -0.60566158 -6.45139424 0.00315317 0 0 Z " fill="#EAEBF2" transform="translate(114.5,125.8125)"/>
<path d="M0 0 C18.15 0 36.3 0 55 0 C55.495 1.98 55.495 1.98 56 4 C51.71 4 47.42 4 43 4 C43 3.67 43 3.34 43 3 C28.48 3 13.96 3 -1 3 C-0.67 2.01 -0.34 1.02 0 0 Z " fill="#33CDD8" transform="translate(42,45)"/>
<path d="M0 0 C1.06605469 0.00644531 2.13210937 0.01289062 3.23046875 0.01953125 C5.8125 0.1875 5.8125 0.1875 6.8125 1.1875 C6.88508946 3.37389453 6.89623783 5.56250389 6.875 7.75 C6.86597656 8.94753906 6.85695312 10.14507812 6.84765625 11.37890625 C6.83605469 12.30574219 6.82445312 13.23257813 6.8125 14.1875 C6.1525 13.1975 5.4925 12.2075 4.8125 11.1875 C4.008125 11.043125 3.20375 10.89875 2.375 10.75 C-0.1875 10.1875 -0.1875 10.1875 -1.5625 8.125 C-2.09875 7.485625 -2.635 6.84625 -3.1875 6.1875 C-6.81313814 5.85369186 -6.81313814 5.85369186 -10.1875 6.1875 C-10.1875 4.8675 -10.1875 3.5475 -10.1875 2.1875 C-6.73589849 0.07308067 -4.00717844 -0.05368936 0 0 Z " fill="#39D4D2" transform="translate(128.1875,32.8125)"/>
<path d="M0 0 C0.99 0 1.98 0 3 0 C3.33 0.66 3.66 1.32 4 2 C6.02463255 2.65213292 6.02463255 2.65213292 8 3 C8.3125 6.3125 8.3125 6.3125 8 10 C5.15739513 12.38164192 3.71594733 13 0 13 C0 12.34 0 11.68 0 11 C-1.65 10.67 -3.3 10.34 -5 10 C-5 7.69 -5 5.38 -5 3 C-3.35 2.67 -1.7 2.34 0 2 C0 1.34 0 0.68 0 0 Z " fill="#F2FAFC" transform="translate(22,63)"/>
<path d="M0 0 C0.02685938 2.14576637 0.04633088 4.29162645 0.0625 6.4375 C0.07410156 7.63246094 0.08570312 8.82742187 0.09765625 10.05859375 C0 13 0 13 -1 14 C-3.01964199 14.07244053 -5.04167124 14.08377188 -7.0625 14.0625 C-8.16722656 14.05347656 -9.27195312 14.04445313 -10.41015625 14.03515625 C-11.69212891 14.01775391 -11.69212891 14.01775391 -13 14 C-13.125 9.25 -13.125 9.25 -12 7 C-11.236875 6.71125 -10.47375 6.4225 -9.6875 6.125 C-6.69556842 4.87256353 -5.19447197 3.34581486 -3 1 C-1 0 -1 0 0 0 Z " fill="#38D7D7" transform="translate(123,100)"/>
<path d="M0 0 C0.66 0 1.32 0 2 0 C2.33 0.66 2.66 1.32 3 2 C3.66 2 4.32 2 5 2 C6.6875 3.8125 6.6875 3.8125 8 6 C7.67 6.99 7.34 7.98 7 9 C6.34 9 5.68 9 5 9 C5 9.66 5 10.32 5 11 C4.34 11 3.68 11 3 11 C3 10.01 3 9.02 3 8 C2.01 8 1.02 8 0 8 C-0.33 9.65 -0.66 11.3 -1 13 C-1.66 13 -2.32 13 -3 13 C-3.33 12.34 -3.66 11.68 -4 11 C-4.639375 10.690625 -5.27875 10.38125 -5.9375 10.0625 C-8 9 -8 9 -10 6 C-8.71034824 4.62437146 -7.37310707 3.29233607 -6 2 C-5.34 2 -4.68 2 -4 2 C-4 2.99 -4 3.98 -4 5 C-3.01 5 -2.02 5 -1 5 C-0.67 3.35 -0.34 1.7 0 0 Z " fill="#53BEDE" transform="translate(47,89)"/>
<path d="M0 0 C2.625 0.25 2.625 0.25 4.4375 1.625 C5.625 3.25 5.625 3.25 5.625 5.25 C7.275 5.25 8.925 5.25 10.625 5.25 C10.955 6.24 11.285 7.23 11.625 8.25 C4.035 8.25 -3.555 8.25 -11.375 8.25 C-11.045 7.26 -10.715 6.27 -10.375 5.25 C-8.725 5.25 -7.075 5.25 -5.375 5.25 C-5.065625 4.610625 -4.75625 3.97125 -4.4375 3.3125 C-2.88764755 0.3039629 -2.88764755 0.3039629 0 0 Z " fill="#F9FDFD" transform="translate(122.375,37.75)"/>
<path d="M0 0 C0.66 0 1.32 0 2 0 C2.02684679 2.64590014 2.04676357 5.29153096 2.0625 7.9375 C2.07087891 8.69224609 2.07925781 9.44699219 2.08789062 10.22460938 C2.09652441 12.14994313 2.05224333 14.07535581 2 16 C1 17 1 17 -2.5625 17.0625 C-3.696875 17.041875 -4.83125 17.02125 -6 17 C-5.34 16.01 -4.68 15.02 -4 14 C-3.53471596 9.0719622 -3.53471596 9.0719622 -5.5 4.6875 C-5.995 4.130625 -6.49 3.57375 -7 3 C-7 2.34 -7 1.68 -7 1 C-4.69 1.33 -2.38 1.66 0 2 C0 1.34 0 0.68 0 0 Z " fill="#41D6CF" transform="translate(58,88)"/>
<path d="M0 0 C1.32 0 2.64 0 4 0 C4 5.61 4 11.22 4 17 C4.99 17 5.98 17 7 17 C7 18.65 7 20.3 7 22 C4.69 22 2.38 22 0 22 C0 14.74 0 7.48 0 0 Z " fill="#41448E" transform="translate(26,80)"/>
<path d="M0 0 C0.83265381 0.00523682 1.66530762 0.01047363 2.52319336 0.01586914 C3.42231445 0.0190918 4.32143555 0.02231445 5.24780273 0.02563477 C6.66609375 0.03820312 6.66609375 0.03820312 8.11303711 0.05102539 C9.06243164 0.05553711 10.01182617 0.06004883 10.98999023 0.06469727 C13.34356776 0.07652429 15.69702188 0.09300514 18.05053711 0.11352539 C18.05053711 1.76352539 18.05053711 3.41352539 18.05053711 5.11352539 C11.45053711 5.11352539 4.85053711 5.11352539 -1.94946289 5.11352539 C-2.27946289 3.79352539 -2.60946289 2.47352539 -2.94946289 1.11352539 C-1.94946289 0.11352539 -1.94946289 0.11352539 0 0 Z " fill="#33C9DD" transform="translate(15.949462890625,31.886474609375)"/>
<path d="M0 0 C0.66 0.66 1.32 1.32 2 2 C1.01 2.99 0.02 3.98 -1 5 C6.92 5.33 14.84 5.66 23 6 C23 6.66 23 7.32 23 8 C12.44 8 1.88 8 -9 8 C-9.33 7.34 -9.66 6.68 -10 6 C-9.01 6 -8.02 6 -7 6 C-7.2784375 5.0409375 -7.2784375 5.0409375 -7.5625 4.0625 C-7.706875 3.381875 -7.85125 2.70125 -8 2 C-7.67 1.67 -7.34 1.34 -7 1 C-5 1 -3 1 -1 1 C-0.67 0.67 -0.34 0.34 0 0 Z " fill="#96BEFE" transform="translate(71,113)"/>
<path d="M0 0 C1.93166016 0.01740234 1.93166016 0.01740234 3.90234375 0.03515625 C5.19269531 0.04417969 6.48304687 0.05320312 7.8125 0.0625 C8.81152344 0.07410156 9.81054688 0.08570312 10.83984375 0.09765625 C9.90011719 0.78794922 9.90011719 0.78794922 8.94140625 1.4921875 C6.8353093 3.01718874 6.8353093 3.01718874 5.21484375 4.78515625 C3.83984375 6.09765625 3.83984375 6.09765625 1.83984375 6.09765625 C1.83984375 6.75765625 1.83984375 7.41765625 1.83984375 8.09765625 C-0.05958703 10.18703011 -1.62456512 11.82986068 -4.16015625 13.09765625 C-4.18702178 11.11856227 -4.20649 9.13936654 -4.22265625 7.16015625 C-4.23425781 6.05800781 -4.24585937 4.95585938 -4.2578125 3.8203125 C-4.11749553 -0.09172464 -3.97435676 0.12281696 0 0 Z " fill="#40C2EE" transform="translate(109.16015625,95.90234375)"/>
<path d="M0 0 C0.99 0 1.98 0 3 0 C3 3.63 3 7.26 3 11 C-0.63 11 -4.26 11 -8 11 C-8.33 10.34 -8.66 9.68 -9 9 C-8.0409375 8.5978125 -8.0409375 8.5978125 -7.0625 8.1875 C-4.66868314 7.11332248 -4.66868314 7.11332248 -4 4 C-5.65 3.67 -7.3 3.34 -9 3 C-5.86501708 1.14223235 -3.62528568 0.79859524 0 1 C0 0.67 0 0.34 0 0 Z " fill="#758EFE" transform="translate(112,71)"/>
<path d="M0 0 C1.32 0 2.64 0 4 0 C4 6.6 4 13.2 4 20 C2.68 19.67 1.36 19.34 0 19 C0 12.73 0 6.46 0 0 Z " fill="#3E3E8B" transform="translate(115,63)"/>
<path d="M0 0 C1.23556641 0.01740234 1.23556641 0.01740234 2.49609375 0.03515625 C3.32238281 0.04417969 4.14867188 0.05320312 5 0.0625 C5.63808594 0.07410156 6.27617188 0.08570312 6.93359375 0.09765625 C4.21260347 3.80809754 2.04387615 6.04251505 -2.06640625 8.09765625 C-2.72640625 8.75765625 -3.38640625 9.41765625 -4.06640625 10.09765625 C-5.38640625 10.09765625 -6.70640625 10.09765625 -8.06640625 10.09765625 C-8.06640625 7.78765625 -8.06640625 5.47765625 -8.06640625 3.09765625 C-7.26203125 2.78828125 -6.45765625 2.47890625 -5.62890625 2.16015625 C-0.47303276 0.02235505 -0.47303276 0.02235505 0 0 Z " fill="#6C73FE" transform="translate(110.06640625,113.90234375)"/>
<path d="M0 0 C1.32 0 2.64 0 4 0 C4 2.97 4 5.94 4 9 C3.34 9 2.68 9 2 9 C2 10.65 2 12.3 2 14 C1.34 12.68 0.68 11.36 0 10 C-2.97 10 -5.94 10 -9 10 C-4.375 5.125 -4.375 5.125 -1 4 C-0.26676204 1.98491642 -0.26676204 1.98491642 0 0 Z " fill="#655CFE" transform="translate(123,86)"/>
<path d="M0 0 C-0.38208524 2.62327183 -0.80424827 3.80469622 -2.70703125 5.703125 C-3.40183594 6.21359375 -4.09664062 6.7240625 -4.8125 7.25 C-5.49957031 7.77078125 -6.18664062 8.2915625 -6.89453125 8.828125 C-9 10 -9 10 -13 10 C-13 9.34 -13 8.68 -13 8 C-13.66 8 -14.32 8 -15 8 C-13.768606 5.53721199 -12.21935077 4.57502313 -10 3 C-10.99 2.34 -11.98 1.68 -13 1 C-11.58366664 0.83052421 -10.16691467 0.66454493 -8.75 0.5 C-7.56664063 0.36078125 -7.56664063 0.36078125 -6.359375 0.21875 C-4 0 -4 0 0 0 Z " fill="#5F4DFB" transform="translate(123,86)"/>
<path d="M0 0 C1.67542976 0.28604898 3.34385343 0.61781233 5 1 C5.97477898 4.72188336 6.12816587 6.64248468 4.8125 10.3125 C3 13 3 13 0.88671875 13.66796875 C0.26410156 13.77753906 -0.35851562 13.88710938 -1 14 C-1.02685938 11.85423363 -1.04633088 9.70837355 -1.0625 7.5625 C-1.07410156 6.36753906 -1.08570312 5.17257813 -1.09765625 3.94140625 C-1 1 -1 1 0 0 Z " fill="#31C6DF" transform="translate(106,33)"/>
<path d="M0 0 C8.58 0 17.16 0 26 0 C25.67 0.99 25.34 1.98 25 3 C17.08 3 9.16 3 1 3 C0.67 2.01 0.34 1.02 0 0 Z " fill="#4C4CA0" transform="translate(101,124)"/>
<path d="M0 0 C7.59 0 15.18 0 23 0 C23 0.33 23 0.66 23 1 C17.06 1.495 17.06 1.495 11 2 C11 3.65 11 5.3 11 7 C11.66 7 12.32 7 13 7 C13 9 13 9 11.5 10.625 C11.005 11.07875 10.51 11.5325 10 12 C6.125 10.25 6.125 10.25 5 8 C5.66 8 6.32 8 7 8 C6.34414811 4.39007621 6.34414811 4.39007621 5 1 C3.35 1 1.7 1 0 1 C0 0.67 0 0.34 0 0 Z " fill="#90E2E5" transform="translate(111,46)"/>
<path d="M0 0 C0.33 0 0.66 0 1 0 C1.05790353 3.29159316 1.09356261 6.58305603 1.125 9.875 C1.14175781 10.81214844 1.15851562 11.74929687 1.17578125 12.71484375 C1.18222656 13.61074219 1.18867187 14.50664063 1.1953125 15.4296875 C1.20578613 16.25710449 1.21625977 17.08452148 1.22705078 17.93701172 C1 20 1 20 -1 22 C-1.24377883 25.35744112 -1.24377883 25.35744112 -1.125 29.125 C-1.10695312 30.40632813 -1.08890625 31.68765625 -1.0703125 33.0078125 C-1.04710937 33.99523437 -1.02390625 34.98265625 -1 36 C-1.99 36 -2.98 36 -4 36 C-4 30.39 -4 24.78 -4 19 C-2.68 19 -1.36 19 0 19 C0 12.73 0 6.46 0 0 Z " fill="#5A55FA" transform="translate(34,61)"/>
<path d="M0 0 C-2 2 -2 2 -4.625 2.125 C-5.40875 2.08375 -6.1925 2.0425 -7 2 C-7 3.32 -7 4.64 -7 6 C-9 8 -9 8 -11.6015625 8.1953125 C-12.59929688 8.17210938 -13.59703125 8.14890625 -14.625 8.125 C-16.12933594 8.09792969 -16.12933594 8.09792969 -17.6640625 8.0703125 C-18.43492188 8.04710938 -19.20578125 8.02390625 -20 8 C-20 7.34 -20 6.68 -20 6 C-18.72125 5.7525 -17.4425 5.505 -16.125 5.25 C-12.77629639 4.52883183 -12.77629639 4.52883183 -10.6875 1.9375 C-10.460625 1.298125 -10.23375 0.65875 -10 0 C-6.30581799 -1.231394 -3.7943739 -0.64432764 0 0 Z " fill="#ADCCFE" transform="translate(71,113)"/>
<path d="M0 0 C1.24716797 0.00322266 2.49433594 0.00644531 3.77929688 0.00976562 C5.07287109 0.01814453 6.36644531 0.02652344 7.69921875 0.03515625 C9.66858398 0.04192383 9.66858398 0.04192383 11.67773438 0.04882812 C14.91410885 0.06059676 18.15039053 0.07703865 21.38671875 0.09765625 C21.05671875 0.75765625 20.72671875 1.41765625 20.38671875 2.09765625 C19.73074707 2.11747559 19.07477539 2.13729492 18.39892578 2.15771484 C15.43610806 2.25278132 12.47401343 2.36253377 9.51171875 2.47265625 C7.96291016 2.5190625 7.96291016 2.5190625 6.3828125 2.56640625 C4.90361328 2.62441406 4.90361328 2.62441406 3.39453125 2.68359375 C2.4833252 2.71501465 1.57211914 2.74643555 0.63330078 2.77880859 C-1.81259311 2.89648136 -1.81259311 2.89648136 -3.61328125 5.09765625 C-6.34197532 5.06478042 -8.90994305 4.53367854 -11.61328125 4.09765625 C-11.61328125 3.10765625 -11.61328125 2.11765625 -11.61328125 1.09765625 C-7.68039761 0.16677716 -4.03673962 -0.0184326 0 0 Z " fill="#D9D9E8" transform="translate(106.61328125,125.90234375)"/>
<path d="M0 0 C0.66 0 1.32 0 2 0 C2 2.97 2 5.94 2 9 C-1.96 9 -5.92 9 -10 9 C-9 7 -9 7 -6 6 C-6.33 5.34 -6.66 4.68 -7 4 C-6.34 3.34 -5.68 2.68 -5 2 C-4.34 2.66 -3.68 3.32 -3 4 C-2.54625 3.34 -2.0925 2.68 -1.625 2 C-1.08875 1.34 -0.5525 0.68 0 0 Z " fill="#7794FE" transform="translate(125,115)"/>
<path d="M0 0 C0.33 0.66 0.66 1.32 1 2 C0.34 2 -0.32 2 -1 2 C-1 2.66 -1 3.32 -1 4 C-3.31 3.67 -5.62 3.34 -8 3 C-8.33 3.99 -8.66 4.98 -9 6 C-9.33 5.01 -9.66 4.02 -10 3 C-10.66 3 -11.32 3 -12 3 C-12.33 4.65 -12.66 6.3 -13 8 C-13.99 8 -14.98 8 -16 8 C-16.625 6.125 -16.625 6.125 -17 4 C-12.31059412 -0.68940588 -6.19513992 -0.2478056 0 0 Z " fill="#40B1DF" transform="translate(59,86)"/>
<path d="M0 0 C0.33 0 0.66 0 1 0 C1 2.97 1 5.94 1 9 C-2.96 9 -6.92 9 -11 9 C-11 8.34 -11 7.68 -11 7 C-9.39125 6.38125 -9.39125 6.38125 -7.75 5.75 C-4.46604495 4.3606344 -2.39778482 2.67445229 0 0 Z " fill="#35D9C5" transform="translate(33,71)"/>
<path d="M0 0 C0.66 0 1.32 0 2 0 C2.09765625 6.15234375 2.09765625 6.15234375 2 8 C1 9 1 9 -0.84765625 9.09765625 C-2.8984375 9.06510417 -4.94921875 9.03255208 -7 9 C-6.34 7.02 -5.68 5.04 -5 3 C-3.35 2.67 -1.7 2.34 0 2 C0 1.34 0 0.68 0 0 Z " fill="#37DEC7" transform="translate(121,105)"/>
<path d="M0 0 C1.65 0 3.3 0 5 0 C5 1.65 5 3.3 5 5 C3.18757948 5.02687279 1.37504767 5.04633715 -0.4375 5.0625 C-1.44683594 5.07410156 -2.45617187 5.08570313 -3.49609375 5.09765625 C-6 5 -6 5 -7 4 C-9.32817964 3.63239269 -11.6618385 3.29758419 -14 3 C-14 2.67 -14 2.34 -14 2 C-9.38 1.67 -4.76 1.34 0 1 C0 0.67 0 0.34 0 0 Z " fill="#35C0CE" transform="translate(29,32)"/>
<path d="M0 0 C3.63 0 7.26 0 11 0 C11.33 0.66 11.66 1.32 12 2 C10.09598862 3.90401138 8.66574314 4.93520439 5.953125 5.19921875 C3.96766727 5.1886578 1.9830086 5.09915043 0 5 C0 3.35 0 1.7 0 0 Z " fill="#34ABC5" transform="translate(105,49)"/>
<path d="M0 0 C5.41538462 -0.36923077 5.41538462 -0.36923077 8.375 1.5 C8.91125 1.995 9.4475 2.49 10 3 C10.33 2.01 10.66 1.02 11 0 C10.67 1.65 10.34 3.3 10 5 C6.7 5 3.4 5 0 5 C0 3.35 0 1.7 0 0 Z " fill="#34ACC5" transform="translate(33,97)"/>
<path d="M0 0 C1.65 0.33 3.3 0.66 5 1 C5.38133299 2.9914056 5.71325582 4.99279077 6 7 C5 8 5 8 1.4375 8.0625 C0.303125 8.041875 -0.83125 8.02125 -2 8 C-1.34 7.01 -0.68 6.02 0 5 C0.16713569 2.37468476 0.16713569 2.37468476 0 0 Z " fill="#36DBC3" transform="translate(54,97)"/>
<path d="M0 0 C2.97 0 5.94 0 9 0 C8.01 0.495 8.01 0.495 7 1 C6.67 1.99 6.34 2.98 6 4 C5.34 4 4.68 4 4 4 C3.896875 4.639375 3.79375 5.27875 3.6875 5.9375 C3.460625 6.618125 3.23375 7.29875 3 8 C2.01 8.33 1.02 8.66 0 9 C0 6.03 0 3.06 0 0 Z " fill="#3EBCDE" transform="translate(105,54)"/>
<path d="M0 0 C4.62 0 9.24 0 14 0 C14.33 1.32 14.66 2.64 15 4 C10.71 4 6.42 4 2 4 C1.34 2.68 0.68 1.36 0 0 Z " fill="#55D8D4" transform="translate(83,45)"/>
<path d="M0 0 C1.32 0 2.64 0 4 0 C4 2.97 4 5.94 4 9 C3.34 9 2.68 9 2 9 C2.33 10.32 2.66 11.64 3 13 C2.01 13 1.02 13 0 13 C0 8.71 0 4.42 0 0 Z " fill="#6C74FE" transform="translate(123,95)"/>
<path d="M0 0 C2.64 0 5.28 0 8 0 C7.67 1.32 7.34 2.64 7 4 C6.01 4 5.02 4 4 4 C4 4.66 4 5.32 4 6 C2.68 6.33 1.36 6.66 0 7 C0 4.69 0 2.38 0 0 Z " fill="#3CAFD0" transform="translate(26,59)"/>
<path d="M0 0 C1.6875 1.8125 1.6875 1.8125 3 4 C2.67 4.99 2.34 5.98 2 7 C1.34 7 0.68 7 0 7 C0 7.66 0 8.32 0 9 C-0.66 9 -1.32 9 -2 9 C-2 8.01 -2 7.02 -2 6 C-2.66 6 -3.32 6 -4 6 C-4 4.35 -4 2.7 -4 1 C-2 0 -2 0 0 0 Z " fill="#8FDDE8" transform="translate(52,91)"/>
<path d="M0 0 C1.23556641 0.01740234 1.23556641 0.01740234 2.49609375 0.03515625 C3.32238281 0.04417969 4.14867187 0.05320312 5 0.0625 C5.63808594 0.07410156 6.27617188 0.08570312 6.93359375 0.09765625 C6.60359375 0.75765625 6.27359375 1.41765625 5.93359375 2.09765625 C4.72703125 2.25234375 4.72703125 2.25234375 3.49609375 2.41015625 C2.65046875 2.63703125 1.80484375 2.86390625 0.93359375 3.09765625 C-0.4410725 5.57401637 -0.4410725 5.57401637 -1.06640625 8.09765625 C-1.72640625 8.09765625 -2.38640625 8.09765625 -3.06640625 8.09765625 C-3.10882348 5.7647085 -3.10733562 3.43063058 -3.06640625 1.09765625 C-2.06640625 0.09765625 -2.06640625 0.09765625 0 0 Z " fill="#4696EB" transform="translate(36.06640625,85.90234375)"/>
<path d="M0 0 C1.37478516 0.01740234 1.37478516 0.01740234 2.77734375 0.03515625 C3.69644531 0.04417969 4.61554688 0.05320312 5.5625 0.0625 C6.27277344 0.07410156 6.98304687 0.08570312 7.71484375 0.09765625 C4.71484375 2.09765625 4.71484375 2.09765625 1.71484375 2.09765625 C1.71484375 2.75765625 1.71484375 3.41765625 1.71484375 4.09765625 C0.04817708 5.76432292 -1.61848958 7.43098958 -3.28515625 9.09765625 C-3.3828125 2.9453125 -3.3828125 2.9453125 -3.28515625 1.09765625 C-2.28515625 0.09765625 -2.28515625 0.09765625 0 0 Z " fill="#45B4F5" transform="translate(108.28515625,95.90234375)"/>
<path d="M0 0 C1.65 0 3.3 0 5 0 C4.54663921 4.87362847 3.2910841 7.39042389 0 11 C0 7.37 0 3.74 0 0 Z " fill="#5934FF" transform="translate(102,86)"/>
<path d="M0 0 C0.99 1.32 1.98 2.64 3 4 C-0.96 4 -4.92 4 -9 4 C-9.33 3.01 -9.66 2.02 -10 1 C-8.40012764 0.72384942 -6.794667 0.47992375 -5.1875 0.25 C-4.29417969 0.11078125 -3.40085937 -0.0284375 -2.48046875 -0.171875 C-1.66191406 -0.11515625 -0.84335937 -0.0584375 0 0 Z " fill="#4ED0D8" transform="translate(43,101)"/>
<path d="M0 0 C0.66 0 1.32 0 2 0 C1.69128878 1.79232337 1.37790936 3.58384321 1.0625 5.375 C0.88847656 6.37273437 0.71445312 7.37046875 0.53515625 8.3984375 C0 11 0 11 -1 13 C-1.66 13 -2.32 13 -3 13 C-2.52060632 8.28596212 -2.03165952 4.33420699 0 0 Z " fill="#D8F2F6" transform="translate(47,89)"/>
<path d="M0 0 C0.33 0 0.66 0 1 0 C1.3669579 6.48292295 1.3669579 6.48292295 -0.375 8.9375 C-2 10 -2 10 -4 10 C-4.125 4.25 -4.125 4.25 -3 2 C-2.01 2 -1.02 2 0 2 C0 1.34 0 0.68 0 0 Z " fill="#3AC2D6" transform="translate(33,61)"/>
<path d="M0 0 C0.33 1.98 0.66 3.96 1 6 C-2.3 6 -5.6 6 -9 6 C-3.30769231 0 -3.30769231 0 0 0 Z " fill="#39C8D6" transform="translate(115,57)"/>
<path d="M0 0 C1.67542976 0.28604898 3.34385343 0.61781233 5 1 C4.67 2.32 4.34 3.64 4 5 C2.68 5.33 1.36 5.66 0 6 C-0.38218767 4.34385343 -0.71395102 2.67542976 -1 1 C-0.67 0.67 -0.34 0.34 0 0 Z " fill="#48CEDC" transform="translate(22,67)"/>
<path d="M0 0 C0.66 0 1.32 0 2 0 C1.67 1.65 1.34 3.3 1 5 C-2 6 -2 6 -4.6875 4.6875 C-5.450625 4.130625 -6.21375 3.57375 -7 3 C-7 2.34 -7 1.68 -7 1 C-4.69 1.33 -2.38 1.66 0 2 C0 1.34 0 0.68 0 0 Z " fill="#38C8D4" transform="translate(58,88)"/>
<path d="M0 0 C3.3 0 6.6 0 10 0 C10 1.98 10 3.96 10 6 C9.67 5.34 9.34 4.68 9 4 C8.01 4 7.02 4 6 4 C5.67 4.66 5.34 5.32 5 6 C5 5.01 5 4.02 5 3 C2.525 2.01 2.525 2.01 0 1 C0 0.67 0 0.34 0 0 Z " fill="#3FD0DA" transform="translate(16,59)"/>
<path d="M0 0 C2 1.125 2 1.125 4 3 C4.25 6.1875 4.25 6.1875 4 9 C2.68 8.67 1.36 8.34 0 8 C0 5.36 0 2.72 0 0 Z " fill="#34C0C5" transform="translate(115,54)"/>
<path d="M0 0 C1.21236328 0.01353516 1.21236328 0.01353516 2.44921875 0.02734375 C3.37154297 0.04474609 3.37154297 0.04474609 4.3125 0.0625 C4.6425 1.0525 4.9725 2.0425 5.3125 3.0625 C1.3525 3.0625 -2.6075 3.0625 -6.6875 3.0625 C-7.0175 2.4025 -7.3475 1.7425 -7.6875 1.0625 C-4.80538698 0.10179566 -2.98899956 -0.04331883 0 0 Z " fill="#98BFFE" transform="translate(68.6875,117.9375)"/>
<path d="M0 0 C-0.99 0.495 -0.99 0.495 -2 1 C-2 1.66 -2 2.32 -2 3 C-4.31 2.67 -6.62 2.34 -9 2 C-9.33 2.99 -9.66 3.98 -10 5 C-10.33 3.68 -10.66 2.36 -11 1 C-6.87831311 -0.62950412 -4.29299643 -1.26264601 0 0 Z " fill="#3DBEDA" transform="translate(60,87)"/>
<path d="M0 0 C0.66 0 1.32 0 2 0 C2 1.65 2 3.3 2 5 C2.66 5.33 3.32 5.66 4 6 C3.01 7.485 3.01 7.485 2 9 C-1.875 7.25 -1.875 7.25 -3 5 C-2.01 5 -1.02 5 0 5 C0 3.35 0 1.7 0 0 Z " fill="#EFFAFA" transform="translate(119,49)"/>
<path d="M0 0 C-0.33 1.65 -0.66 3.3 -1 5 C-2.65 5.33 -4.3 5.66 -6 6 C-6 4.68 -6 3.36 -6 2 C-2.25 0 -2.25 0 0 0 Z " fill="#35CDD9" transform="translate(124,33)"/>
<path d="M0 0 C0.99 0 1.98 0 3 0 C3.33 0.66 3.66 1.32 4 2 C6.02463255 2.65213292 6.02463255 2.65213292 8 3 C8 3.66 8 4.32 8 5 C7.34 5 6.68 5 6 5 C5.67 5.99 5.34 6.98 5 8 C4.7525 7.38125 4.505 6.7625 4.25 6.125 C2.79371361 3.64931313 1.62187494 3.04874998 -1 2 C-0.67 1.34 -0.34 0.68 0 0 Z " fill="#FAFDFE" transform="translate(22,63)"/>
<path d="M0 0 C2.33944736 0.28730055 4.6739143 0.61936779 7 1 C6.01 1.66 5.02 2.32 4 3 C3.01 4.485 3.01 4.485 2 6 C1.34 6 0.68 6 0 6 C-0.38218767 4.34385343 -0.71395102 2.67542976 -1 1 C-0.67 0.67 -0.34 0.34 0 0 Z " fill="#D8F1F7" transform="translate(18,65)"/>
<path d="M0 0 C2.125 0.9375 2.125 0.9375 4 2 C4 2.33 4 2.66 4 3 C-0.29 3 -4.58 3 -9 3 C-9 2.34 -9 1.68 -9 1 C-7.88625 1.020625 -6.7725 1.04125 -5.625 1.0625 C-2.16784079 1.26380718 -2.16784079 1.26380718 0 0 Z " fill="#88CBDE" transform="translate(107,46)"/>
<path d="M0 0 C2.31 0.66 4.62 1.32 7 2 C7 2.66 7 3.32 7 4 C4.625 4.625 4.625 4.625 2 5 C1.34 4.34 0.68 3.68 0 3 C0 2.01 0 1.02 0 0 Z " fill="#3FCCDC" transform="translate(15,72)"/>
<path d="M0 0 C1.98 0 3.96 0 6 0 C5.34 1.32 4.68 2.64 4 4 C2.68 4 1.36 4 0 4 C0 2.68 0 1.36 0 0 Z " fill="#7ED9E6" transform="translate(113,39)"/>
<path d="M0 0 C0.99 0 1.98 0 3 0 C3 1.65 3 3.3 3 5 C1.68 5 0.36 5 -1 5 C-0.67 3.35 -0.34 1.7 0 0 Z " fill="#35C0C6" transform="translate(47,97)"/>
<path d="M0 0 C0 0.99 0 1.98 0 3 C0.3062434 4.33981486 0.63451555 5.67511887 1 7 C-0.32 6.34 -1.64 5.68 -3 5 C-3 4.01 -3 3.02 -3 2 C-2.01 1.34 -1.02 0.68 0 0 Z " fill="#E8F5F9" transform="translate(41,92)"/>
</svg>
