<?xml version="1.0" encoding="UTF-8"?>
<svg version="1.1" xmlns="http://www.w3.org/2000/svg" width="150" height="150">
<path d="M0 0 C2.31 0.66 4.62 1.32 7 2 C7.93423645 5.01031744 8.04449911 5.86650268 7 9 C7.7884826 11.3190006 7.7884826 11.3190006 10 13 C12.86488734 13.62024123 15.70132753 13.65131593 18.625 13.6875 C26.91089421 13.91089421 26.91089421 13.91089421 28 15 C28.08748207 16.92667507 28.10697334 18.85651861 28.09765625 20.78515625 C28.09443359 21.95498047 28.09121094 23.12480469 28.08789062 24.33007812 C28.07951172 25.56177734 28.07113281 26.79347656 28.0625 28.0625 C28.05798828 29.29806641 28.05347656 30.53363281 28.04882812 31.80664062 C28.03699608 34.87114117 28.02051173 37.93554721 28 41 C30.475 40.505 30.475 40.505 33 40 C34.0625 41.8125 34.0625 41.8125 35 44 C34.67 44.99 34.34 45.98 34 47 C35.37168238 49.19038423 35.37168238 49.19038423 37 51 C36.3125 52.9375 36.3125 52.9375 35 55 C32.375 55.75 32.375 55.75 30 56 C29.67 57.32 29.34 58.64 29 60 C27.35 60 25.7 60 24 60 C24 59.01 24 58.02 24 57 C20.535 57.495 20.535 57.495 17 58 C16.01 55.525 16.01 55.525 15 53 C15.66 53 16.32 53 17 53 C16.67 51.35 16.34 49.7 16 48 C15.34 48 14.68 48 14 48 C14 46.68 14 45.36 14 44 C13.34 44 12.68 44 12 44 C12 50.6 12 57.2 12 64 C14.31 64 16.62 64 19 64 C20 65 20 65 20.11352539 68.96899414 C20.1133662 70.74105607 20.10766785 72.5131226 20.09765625 74.28515625 C20.0962413 75.21597519 20.09482635 76.14679413 20.09336853 77.1058197 C20.08775172 80.09141191 20.0751964 83.07693029 20.0625 86.0625 C20.05748716 88.08137913 20.05292388 90.10025943 20.04882812 92.11914062 C20.03777683 97.07945572 20.02050095 102.03971532 20 107 C22.31 107.66 24.62 108.32 27 109 C26 111 26 111 24.34521484 111.61450195 C19.49200924 112.41225457 14.54404055 112.18590312 9.63769531 112.18530273 C7.63863013 112.18748512 5.63960468 112.20599143 3.640625 112.22460938 C2.36960937 112.22654297 1.09859375 112.22847656 -0.2109375 112.23046875 C-1.36899902 112.23457764 -2.52706055 112.23868652 -3.72021484 112.24291992 C-7.11310954 111.99162245 -9.83332989 111.21173908 -13 110 C-12.67 109.34 -12.34 108.68 -12 108 C-9.4375 107.375 -9.4375 107.375 -7 107 C-7.67857056 106.99191315 -8.35714111 106.98382629 -9.05627441 106.97549438 C-16.19572947 106.88863335 -23.33493245 106.7891071 -30.47412109 106.68261719 C-33.12938188 106.64363425 -35.7845665 106.60971702 -38.43994141 106.578125 C-76.71387295 106.11716685 -76.71387295 106.11716685 -86 101 C-86 99.35 -86 97.7 -86 96 C-86.92232422 95.99613281 -86.92232422 95.99613281 -87.86328125 95.9921875 C-90.37144958 95.87217945 -92.57991767 95.68225725 -95 95 C-97.0625 91.9375 -97.0625 91.9375 -98 89 C-96.515 88.01 -96.515 88.01 -95 87 C-94.52553774 83.39408679 -95.16167336 81.10217621 -97 78 C-96.01 76.68 -95.02 75.36 -94 74 C-93.236875 74.20625 -92.47375 74.4125 -91.6875 74.625 C-88.78114056 75.33391203 -88.78114056 75.33391203 -86 73 C-85.27617533 70.94074861 -85.27617533 70.94074861 -85 69 C-83.68 69 -82.36 69 -81 69 C-81 66.36 -81 63.72 -81 61 C-85.29 61 -89.58 61 -94 61 C-94.02683436 57.68744674 -94.0467578 54.37510817 -94.0625 51.0625 C-94.07087891 50.11697266 -94.07925781 49.17144531 -94.08789062 48.19726562 C-94.09111328 47.29814453 -94.09433594 46.39902344 -94.09765625 45.47265625 C-94.10289307 44.64000244 -94.10812988 43.80734863 -94.11352539 42.94946289 C-94 41 -94 41 -93 40 C-90.98035801 39.92755947 -88.95832876 39.91622812 -86.9375 39.9375 C-85.28041016 39.95103516 -85.28041016 39.95103516 -83.58984375 39.96484375 C-82.73519531 39.97644531 -81.88054687 39.98804688 -81 40 C-81 38.02 -81 36.04 -81 34 C-82.28197266 34.01740234 -82.28197266 34.01740234 -83.58984375 34.03515625 C-84.69457031 34.04417969 -85.79929687 34.05320313 -86.9375 34.0625 C-88.03964844 34.07410156 -89.14179687 34.08570313 -90.27734375 34.09765625 C-93 34 -93 34 -94 33 C-94.07226502 31.14712498 -94.0838122 29.29166122 -94.0625 27.4375 C-94.05347656 26.42558594 -94.04445313 25.41367187 -94.03515625 24.37109375 C-94.02355469 23.58863281 -94.01195313 22.80617188 -94 22 C-96.31 22 -98.62 22 -101 22 C-101 21.67 -101 21.34 -101 21 C-99.02 20.67 -97.04 20.34 -95 20 C-94.67 18.68 -94.34 17.36 -94 16 C-95.98 16 -97.96 16 -100 16 C-100 15.67 -100 15.34 -100 15 C-94.08218663 12.93810069 -88.79581786 12.75832162 -82.5625 12.875 C-81.64017578 12.88402344 -80.71785156 12.89304687 -79.76757812 12.90234375 C-77.51160502 12.92572171 -75.25576717 12.9615858 -73 13 C-73 18.61 -73 24.22 -73 30 C-70.69 30 -68.38 30 -66 30 C-65.67 28.68 -65.34 27.36 -65 26 C-51.47 26 -37.94 26 -24 26 C-24.495 21.545 -24.495 21.545 -25 17 C-23.02 16.34 -21.04 15.68 -19 15 C-18.25073929 11.33694766 -17.7619986 8.57644848 -19 5 C-16.1875 2.9375 -16.1875 2.9375 -13 1 C-10 2 -10 2 -9 4 C-6.67843403 4.40729228 -4.3431213 4.74438677 -2 5 C-1.34 3.35 -0.68 1.7 0 0 Z M-11 13 C-13.2084626 16.31269391 -13.80664241 18.14978851 -13.5546875 22.0625 C-12.4812192 25.81207941 -10.28696911 27.01541488 -7 29 C-4.36163023 29.1672392 -4.36163023 29.1672392 -2 29 C-1.96261719 28.01257813 -1.92523438 27.02515625 -1.88671875 26.0078125 C-1.82097656 24.72648437 -1.75523438 23.44515625 -1.6875 22.125 C-1.62949219 20.84882812 -1.57148437 19.57265625 -1.51171875 18.2578125 C-1.34285156 17.18273437 -1.17398438 16.10765625 -1 15 C-0.01 14.34 0.98 13.68 2 13 C0.01607489 10.60148679 0.01607489 10.60148679 -3.8125 10.5625 C-7.17733329 10.66669338 -8.04370031 11.02913354 -11 13 Z M20 46 C19.6366844 48.83386167 19.6431329 50.40522151 21.125 52.875 C23.92151052 54.55290631 25.93690532 53.74875648 29 53 C29.67673447 49.59679066 29.67673447 49.59679066 30 46 C28.11499729 43.68436913 28.11499729 43.68436913 25 43.75 C21.88500271 43.68436913 21.88500271 43.68436913 20 46 Z M-87.25 79.625 C-89.21985834 81.92308586 -89.21985834 81.92308586 -89.5 85 C-89.21376982 88.06575838 -89.21376982 88.06575838 -87.3125 90.375 C-84.61209763 92.27258004 -83.22939919 92.35882213 -80 92 C-79.85024761 84.94348748 -79.85024761 84.94348748 -81 78 C-84.92212225 77.60967296 -84.92212225 77.60967296 -87.25 79.625 Z M-72 95 C-74.33006911 95.35543427 -76.66327016 95.6913753 -79 96 C-79 96.99 -79 97.98 -79 99 C-75.35394698 98.85936717 -71.70821861 98.71153182 -68.0625 98.5625 C-66.53012695 98.50352539 -66.53012695 98.50352539 -64.96679688 98.44335938 C-58.93409791 98.19279999 -52.992295 97.74356945 -47 97 C-46.67 96.01 -46.34 95.02 -46 94 C-49.77081722 93.97100401 -53.54160583 93.95320271 -57.3125 93.9375 C-58.38435547 93.92912109 -59.45621094 93.92074219 -60.56054688 93.91210938 C-61.58857422 93.90888672 -62.61660156 93.90566406 -63.67578125 93.90234375 C-64.62364502 93.89710693 -65.57150879 93.89187012 -66.5480957 93.88647461 C-69.13838681 93.89501146 -69.13838681 93.89501146 -72 95 Z M-22 94 C-22 94.99 -22 95.98 -22 97 C-16.72 97.33 -11.44 97.66 -6 98 C-6 96.68 -6 95.36 -6 94 C-11.28 94 -16.56 94 -22 94 Z " fill="#36D8C5" transform="translate(107,19)"/>
<path d="M0 0 C2.31 0 4.62 0 7 0 C7 2.97 7 5.94 7 9 C10.3 9 13.6 9 17 9 C17 15.6 17 22.2 17 29 C12.71 29 8.42 29 4 29 C4 29.66 4 30.32 4 31 C12.79133718 32.42426407 12.79133718 32.42426407 29 32 C29 45.2 29 58.4 29 72 C31.31 72.66 33.62 73.32 36 74 C35 76 35 76 33.34521484 76.61450195 C28.49200924 77.41225457 23.54404055 77.18590312 18.63769531 77.18530273 C16.63863013 77.18748512 14.63960468 77.20599143 12.640625 77.22460938 C11.36960937 77.22654297 10.09859375 77.22847656 8.7890625 77.23046875 C7.63100098 77.23457764 6.47293945 77.23868652 5.27978516 77.24291992 C1.88689046 76.99162245 -0.83332989 76.21173908 -4 75 C-3.67 74.34 -3.34 73.68 -3 73 C-0.4375 72.375 -0.4375 72.375 2 72 C1.32142944 71.99191315 0.64285889 71.98382629 -0.05627441 71.97549438 C-7.19572947 71.88863335 -14.33493245 71.7891071 -21.47412109 71.68261719 C-24.12938188 71.64363425 -26.7845665 71.60971702 -29.43994141 71.578125 C-67.71387295 71.11716685 -67.71387295 71.11716685 -77 66 C-77 64.35 -77 62.7 -77 61 C-77.92232422 60.99613281 -77.92232422 60.99613281 -78.86328125 60.9921875 C-81.37144958 60.87217945 -83.57991767 60.68225725 -86 60 C-88.0625 56.9375 -88.0625 56.9375 -89 54 C-88.01 53.34 -87.02 52.68 -86 52 C-85.52553774 48.39408679 -86.16167336 46.10217621 -88 43 C-87.01 41.68 -86.02 40.36 -85 39 C-84.236875 39.20625 -83.47375 39.4125 -82.6875 39.625 C-79.78114056 40.33391203 -79.78114056 40.33391203 -77 38 C-76.27617533 35.94074861 -76.27617533 35.94074861 -76 34 C-74.68 34 -73.36 34 -72 34 C-72 36.97 -72 39.94 -72 43 C-72.969375 43.28875 -73.93875 43.5775 -74.9375 43.875 C-78.10664203 44.64214682 -78.10664203 44.64214682 -79 47 C-79.14375422 50.37822416 -79.07536348 52.77390955 -78 56 C-75.69 56.33 -73.38 56.66 -71 57 C-71 54.03 -71 51.06 -71 48 C-69.02 48 -67.04 48 -65 48 C-64.67 48.66 -64.34 49.32 -64 50 C-55.75 50 -47.5 50 -39 50 C-38.505 49.01 -38.505 49.01 -38 48 C-24.47 48 -10.94 48 3 48 C3 46.35 3 44.7 3 43 C-5.58 43 -14.16 43 -23 43 C-22.67 41.35 -22.34 39.7 -22 38 C-22.66 37.01 -23.32 36.02 -24 35 C-22.02 35.495 -22.02 35.495 -20 36 C-19.01 33.69 -18.02 31.38 -17 29 C-14.69 29 -12.38 29 -10 29 C-10 28.34 -10 27.68 -10 27 C-11.485 26.505 -11.485 26.505 -13 26 C-9.04 25.67 -5.08 25.34 -1 25 C-0.67 16.75 -0.34 8.5 0 0 Z M-63 60 C-65.33006911 60.35543427 -67.66327016 60.6913753 -70 61 C-70 61.99 -70 62.98 -70 64 C-66.35394698 63.85936717 -62.70821861 63.71153182 -59.0625 63.5625 C-57.53012695 63.50352539 -57.53012695 63.50352539 -55.96679688 63.44335938 C-49.93409791 63.19279999 -43.992295 62.74356945 -38 62 C-37.67 61.01 -37.34 60.02 -37 59 C-40.77081722 58.97100401 -44.54160583 58.95320271 -48.3125 58.9375 C-49.38435547 58.92912109 -50.45621094 58.92074219 -51.56054688 58.91210938 C-52.58857422 58.90888672 -53.61660156 58.90566406 -54.67578125 58.90234375 C-55.62364502 58.89710693 -56.57150879 58.89187012 -57.5480957 58.88647461 C-60.13838681 58.89501146 -60.13838681 58.89501146 -63 60 Z M-13 59 C-13 59.99 -13 60.98 -13 62 C-7.72 62.33 -2.44 62.66 3 63 C3 61.68 3 60.36 3 59 C-2.28 59 -7.56 59 -13 59 Z " fill="#5E4DF3" transform="translate(98,54)"/>
<path d="M0 0 C0.83265381 0.00523682 1.66530762 0.01047363 2.52319336 0.01586914 C3.42231445 0.0190918 4.32143555 0.02231445 5.24780273 0.02563477 C6.66609375 0.03820313 6.66609375 0.03820313 8.11303711 0.05102539 C9.06243164 0.05553711 10.01182617 0.06004883 10.98999023 0.06469727 C13.34356776 0.07652429 15.69702188 0.09300514 18.05053711 0.11352539 C19.16877526 2.3500017 19.24449772 3.76244068 19.36694336 6.24633789 C19.40883789 7.05200195 19.45073242 7.85766602 19.49389648 8.68774414 C19.53321289 9.52950195 19.5725293 10.37125977 19.61303711 11.23852539 C19.6562207 12.08801758 19.6994043 12.93750977 19.74389648 13.81274414 C19.85007947 15.91280762 19.95082207 18.01314487 20.05053711 20.11352539 C22.07511091 18.18097768 23.47159503 16.48193851 25.05053711 14.11352539 C25.38053711 16.09352539 25.71053711 18.07352539 26.05053711 20.11352539 C27.98086792 20.15110962 27.98086792 20.15110962 29.95019531 20.18945312 C34.71934165 20.28354111 39.48834282 20.38375852 44.25732422 20.48583984 C46.32239387 20.52918342 48.38749923 20.57085891 50.45263672 20.61083984 C53.41897346 20.66855622 56.38513056 20.7322469 59.35131836 20.79711914 C60.73895134 20.82218788 60.73895134 20.82218788 62.15461731 20.84776306 C63.01528305 20.86770828 63.87594879 20.8876535 64.76269531 20.90820312 C65.51992386 20.92374741 66.2771524 20.93929169 67.05732727 20.95530701 C69.05053711 21.11352539 69.05053711 21.11352539 72.05053711 22.11352539 C72.05053711 22.77352539 72.05053711 23.43352539 72.05053711 24.11352539 C69.74053711 24.44352539 67.43053711 24.77352539 65.05053711 25.11352539 C65.05053711 26.10352539 65.05053711 27.09352539 65.05053711 28.11352539 C64.05053711 30.30102539 64.05053711 30.30102539 63.05053711 32.11352539 C62.06053711 32.11352539 61.07053711 32.11352539 60.05053711 32.11352539 C60.38053711 32.77352539 60.71053711 33.43352539 61.05053711 34.11352539 C60.39053711 34.11352539 59.73053711 34.11352539 59.05053711 34.11352539 C59.05053711 35.43352539 59.05053711 36.75352539 59.05053711 38.11352539 C67.63053711 38.11352539 76.21053711 38.11352539 85.05053711 38.11352539 C85.05053711 39.76352539 85.05053711 41.41352539 85.05053711 43.11352539 C71.52053711 43.11352539 57.99053711 43.11352539 44.05053711 43.11352539 C43.72053711 44.10352539 43.39053711 45.09352539 43.05053711 46.11352539 C34.80053711 46.11352539 26.55053711 46.11352539 18.05053711 46.11352539 C17.72053711 45.12352539 17.39053711 44.13352539 17.05053711 43.11352539 C14.74053711 43.11352539 12.43053711 43.11352539 10.05053711 43.11352539 C10.05053711 35.85352539 10.05053711 28.59352539 10.05053711 21.11352539 C5.76053711 21.11352539 1.47053711 21.11352539 -2.94946289 21.11352539 C-2.97629726 17.80097213 -2.99622069 14.48863356 -3.01196289 11.17602539 C-3.0203418 10.23049805 -3.0287207 9.2849707 -3.03735352 8.31079102 C-3.04057617 7.41166992 -3.04379883 6.51254883 -3.04711914 5.58618164 C-3.05235596 4.75352783 -3.05759277 3.92087402 -3.06298828 3.06298828 C-2.90876673 0.41468917 -2.64829911 0.15422155 0 0 Z " fill="#6C72FE" transform="translate(15.949462890625,58.886474609375)"/>
<path d="M0 0 C1.32 0 2.64 0 4 0 C4 2.97 4 5.94 4 9 C3.030625 9.28875 2.06125 9.5775 1.0625 9.875 C-2.10664203 10.64214682 -2.10664203 10.64214682 -3 13 C-3.14375422 16.37822416 -3.07536348 18.77390955 -2 22 C0.31 22.33 2.62 22.66 5 23 C5 20.03 5 17.06 5 14 C6.98 14 8.96 14 11 14 C11.33 14.66 11.66 15.32 12 16 C20.25 16 28.5 16 37 16 C37.33 15.34 37.66 14.68 38 14 C51.53 14 65.06 14 79 14 C79 17.63 79 21.26 79 25 C73.72 25 68.44 25 63 25 C63 25.99 63 26.98 63 28 C63.56847656 27.98839844 64.13695313 27.97679688 64.72265625 27.96484375 C69.60670484 27.90776806 74.18503965 28.18043228 79 29 C79 31.64 79 34.28 79 37 C71.71409984 37.04682155 64.42823335 37.08211748 57.14221191 37.10362434 C53.75718789 37.11395864 50.37226851 37.12792229 46.98730469 37.15087891 C8.80340058 37.390763 8.80340058 37.390763 -1 32 C-1 30.35 -1 28.7 -1 27 C-1.92232422 26.99613281 -1.92232422 26.99613281 -2.86328125 26.9921875 C-5.37144958 26.87217945 -7.57991767 26.68225725 -10 26 C-12.0625 22.9375 -12.0625 22.9375 -13 20 C-12.01 19.34 -11.02 18.68 -10 18 C-9.52553774 14.39408679 -10.16167336 12.10217621 -12 9 C-11.01 7.68 -10.02 6.36 -9 5 C-8.236875 5.20625 -7.47375 5.4125 -6.6875 5.625 C-3.78114056 6.33391203 -3.78114056 6.33391203 -1 4 C-0.27617533 1.94074861 -0.27617533 1.94074861 0 0 Z M13 26 C10.66993089 26.35543427 8.33672984 26.6913753 6 27 C6 27.99 6 28.98 6 30 C9.64605302 29.85936717 13.29178139 29.71153182 16.9375 29.5625 C18.46987305 29.50352539 18.46987305 29.50352539 20.03320312 29.44335938 C26.06590209 29.19279999 32.007705 28.74356945 38 28 C38.33 27.01 38.66 26.02 39 25 C35.22918278 24.97100401 31.45839417 24.95320271 27.6875 24.9375 C26.61564453 24.92912109 25.54378906 24.92074219 24.43945312 24.91210938 C23.41142578 24.90888672 22.38339844 24.90566406 21.32421875 24.90234375 C20.37635498 24.89710693 19.42849121 24.89187012 18.4519043 24.88647461 C15.86161319 24.89501146 15.86161319 24.89501146 13 26 Z " fill="#B3D0FE" transform="translate(22,88)"/>
<path d="M0 0 C16.83 0 33.66 0 51 0 C51 9.9 51 19.8 51 30 C34.17 30 17.34 30 0 30 C0 20.1 0 10.2 0 0 Z " fill="#434A91" transform="translate(44,47)"/>
<path d="M0 0 C2.31 0.66 4.62 1.32 7 2 C7.93423645 5.01031744 8.04449911 5.86650268 7 9 C7.7884826 11.3190006 7.7884826 11.3190006 10 13 C12.86488734 13.62024123 15.70132753 13.65131593 18.625 13.6875 C26.91089421 13.91089421 26.91089421 13.91089421 28 15 C28.08748207 16.92667507 28.10697334 18.85651861 28.09765625 20.78515625 C28.09443359 21.95498047 28.09121094 23.12480469 28.08789062 24.33007812 C28.07532227 26.17762695 28.07532227 26.17762695 28.0625 28.0625 C28.05798828 29.29806641 28.05347656 30.53363281 28.04882812 31.80664062 C28.03699608 34.87114117 28.02051173 37.93554721 28 41 C30.475 40.505 30.475 40.505 33 40 C34.0625 41.8125 34.0625 41.8125 35 44 C34.67 44.99 34.34 45.98 34 47 C35.37168238 49.19038423 35.37168238 49.19038423 37 51 C36.3125 52.9375 36.3125 52.9375 35 55 C32.375 55.75 32.375 55.75 30 56 C29.67 57.32 29.34 58.64 29 60 C27.35 60 25.7 60 24 60 C24 59.01 24 58.02 24 57 C20.535 57.495 20.535 57.495 17 58 C16.34 56.35 15.68 54.7 15 53 C15.66 53 16.32 53 17 53 C16.67 51.35 16.34 49.7 16 48 C15.34 48 14.68 48 14 48 C14 46.68 14 45.36 14 44 C13.34 44 12.68 44 12 44 C11.690625 42.88625 11.38125 41.7725 11.0625 40.625 C10.17673517 37.2054845 10.17673517 37.2054845 9 35 C9.66 35 10.32 35 11 35 C10.505 33.02 10.505 33.02 10 31 C3.73 30.67 -2.54 30.34 -9 30 C-9 29.34 -9 28.68 -9 28 C-6.69 28.33 -4.38 28.66 -2 29 C-2.05220703 27.51886719 -2.05220703 27.51886719 -2.10546875 26.0078125 C-2.13253906 24.72648437 -2.15960938 23.44515625 -2.1875 22.125 C-2.23970703 20.21074219 -2.23970703 20.21074219 -2.29296875 18.2578125 C-2.19628906 17.18273437 -2.09960938 16.10765625 -2 15 C-1.01 14.34 -0.02 13.68 1 13 C-0.21589984 11.56844101 -0.21589984 11.56844101 -3.8125 11.6875 C-6.78617685 11.74622611 -7.87751147 11.92650688 -10.5 13.5 C-12.71177972 17.18629954 -12.34421275 19.73176192 -12 24 C-11.67 24.66 -11.34 25.32 -11 26 C-15.29 26 -19.58 26 -24 26 C-24.33 23.03 -24.66 20.06 -25 17 C-23.02 16.34 -21.04 15.68 -19 15 C-18.25073929 11.33694766 -17.7619986 8.57644848 -19 5 C-16.1875 2.9375 -16.1875 2.9375 -13 1 C-10 2 -10 2 -9 4 C-6.67843403 4.40729228 -4.3431213 4.74438677 -2 5 C-1.34 3.35 -0.68 1.7 0 0 Z M20 46 C19.6366844 48.83386167 19.6431329 50.40522151 21.125 52.875 C23.92151052 54.55290631 25.93690532 53.74875648 29 53 C29.67673447 49.59679066 29.67673447 49.59679066 30 46 C28.11499729 43.68436913 28.11499729 43.68436913 25 43.75 C21.88500271 43.68436913 21.88500271 43.68436913 20 46 Z " fill="#35DCC6" transform="translate(107,19)"/>
<path d="M0 0 C2.31 0 4.62 0 7 0 C7 2.97 7 5.94 7 9 C10.3 9 13.6 9 17 9 C17 15.6 17 22.2 17 29 C12.71 29 8.42 29 4 29 C3.67 33.62 3.34 38.24 3 43 C-5.58 43 -14.16 43 -23 43 C-22.67 41.35 -22.34 39.7 -22 38 C-22.66 37.01 -23.32 36.02 -24 35 C-22.68 35.33 -21.36 35.66 -20 36 C-19.01 33.69 -18.02 31.38 -17 29 C-14.69 29 -12.38 29 -10 29 C-10 28.34 -10 27.68 -10 27 C-10.99 26.67 -11.98 26.34 -13 26 C-9.04 25.67 -5.08 25.34 -1 25 C-0.67 16.75 -0.34 8.5 0 0 Z " fill="#7386FE" transform="translate(98,54)"/>
<path d="M0 0 C1.32 0 2.64 0 4 0 C4 2.97 4 5.94 4 9 C3.030625 9.28875 2.06125 9.5775 1.0625 9.875 C-2.10664203 10.64214682 -2.10664203 10.64214682 -3 13 C-3.14375422 16.37822416 -3.07536348 18.77390955 -2 22 C-0.865625 22.144375 0.26875 22.28875 1.4375 22.4375 C5 23 5 23 6 24 C7.68183948 24.23287008 9.3712416 24.41264166 11.0625 24.5625 C11.98160156 24.64628906 12.90070312 24.73007813 13.84765625 24.81640625 C14.91306641 24.90728516 14.91306641 24.90728516 16 25 C15.67 25.66 15.34 26.32 15 27 C12.03 27 9.06 27 6 27 C6 27.99 6 28.98 6 30 C6.64960693 29.93941406 7.29921387 29.87882812 7.96850586 29.81640625 C10.95779638 29.54003838 13.94762628 29.2699825 16.9375 29 C18.46987305 28.85691406 18.46987305 28.85691406 20.03320312 28.7109375 C26.05177969 28.17253448 31.95763352 27.89918888 38 28 C37.67 28.66 37.34 29.32 37 30 C34.35139573 30.59355614 31.70802678 30.74209269 29 31 C29 31.66 29 32.32 29 33 C43.19 33 57.38 33 72 33 C71.67 32.34 71.34 31.68 71 31 C69.845 30.835 68.69 30.67 67.5 30.5 C66.345 30.335 65.19 30.17 64 30 C63.505 29.01 63.505 29.01 63 28 C68.45769811 27.88861841 73.61509359 28.08342019 79 29 C79 31.64 79 34.28 79 37 C71.71409984 37.04682155 64.42823335 37.08211748 57.14221191 37.10362434 C53.75718789 37.11395864 50.37226851 37.12792229 46.98730469 37.15087891 C8.80340058 37.390763 8.80340058 37.390763 -1 32 C-1 30.35 -1 28.7 -1 27 C-1.92232422 26.99613281 -1.92232422 26.99613281 -2.86328125 26.9921875 C-5.37144958 26.87217945 -7.57991767 26.68225725 -10 26 C-12.0625 22.9375 -12.0625 22.9375 -13 20 C-12.01 19.34 -11.02 18.68 -10 18 C-9.52553774 14.39408679 -10.16167336 12.10217621 -12 9 C-11.01 7.68 -10.02 6.36 -9 5 C-8.236875 5.20625 -7.47375 5.4125 -6.6875 5.625 C-3.78114056 6.33391203 -3.78114056 6.33391203 -1 4 C-0.27617533 1.94074861 -0.27617533 1.94074861 0 0 Z " fill="#E9EBF2" transform="translate(22,88)"/>
<path d="M0 0 C0.92232422 0.00902344 1.84464844 0.01804687 2.79492188 0.02734375 C5.05089498 0.05072171 7.30673283 0.0865858 9.5625 0.125 C9.5625 5.735 9.5625 11.345 9.5625 17.125 C11.8725 17.125 14.1825 17.125 16.5625 17.125 C16.65001413 20.99985635 16.70306435 24.87445643 16.75 28.75 C16.77513672 29.84441406 16.80027344 30.93882813 16.82617188 32.06640625 C16.87940288 37.92181683 16.86233099 42.18824498 13.5625 47.125 C12.5725 47.125 11.5825 47.125 10.5625 47.125 C10.0675 37.225 10.0675 37.225 9.5625 27.125 C6.9225 27.125 4.2825 27.125 1.5625 27.125 C1.5625 25.145 1.5625 23.165 1.5625 21.125 C0.70785156 21.13660156 -0.14679687 21.14820312 -1.02734375 21.16015625 C-2.13207031 21.16917969 -3.23679687 21.17820312 -4.375 21.1875 C-5.47714844 21.19910156 -6.57929688 21.21070312 -7.71484375 21.22265625 C-10.4375 21.125 -10.4375 21.125 -11.4375 20.125 C-11.50976502 18.27212498 -11.5213122 16.41666122 -11.5 14.5625 C-11.49097656 13.55058594 -11.48195313 12.53867187 -11.47265625 11.49609375 C-11.46105469 10.71363281 -11.44945312 9.93117188 -11.4375 9.125 C-13.7475 9.125 -16.0575 9.125 -18.4375 9.125 C-18.4375 8.795 -18.4375 8.465 -18.4375 8.125 C-16.4575 7.795 -14.4775 7.465 -12.4375 7.125 C-12.1075 5.805 -11.7775 4.485 -11.4375 3.125 C-13.4175 3.125 -15.3975 3.125 -17.4375 3.125 C-17.4375 2.795 -17.4375 2.465 -17.4375 2.125 C-11.51968663 0.06310069 -6.23331786 -0.11667838 0 0 Z " fill="#5A38FF" transform="translate(24.4375,31.875)"/>
<path d="M0 0 C1.12019531 -0.00128906 2.24039063 -0.00257812 3.39453125 -0.00390625 C4.57402344 -0.00003906 5.75351562 0.00382812 6.96875 0.0078125 C8.73798828 0.00201172 8.73798828 0.00201172 10.54296875 -0.00390625 C12.22326172 -0.00197266 12.22326172 -0.00197266 13.9375 0 C14.97326172 0.00112793 16.00902344 0.00225586 17.07617188 0.00341797 C19.46875 0.1328125 19.46875 0.1328125 20.46875 1.1328125 C20.56861975 3.97616298 20.60752881 6.78978413 20.59375 9.6328125 C20.59955078 10.82970703 20.59955078 10.82970703 20.60546875 12.05078125 C20.59535767 18.00620483 20.59535767 18.00620483 19.46875 19.1328125 C17.62715977 19.23240871 15.78178033 19.26361661 13.9375 19.265625 C12.81730469 19.26691406 11.69710937 19.26820312 10.54296875 19.26953125 C9.36347656 19.26566406 8.18398438 19.26179688 6.96875 19.2578125 C5.19951172 19.26361328 5.19951172 19.26361328 3.39453125 19.26953125 C1.71423828 19.26759766 1.71423828 19.26759766 0 19.265625 C-1.03576172 19.26449707 -2.07152344 19.26336914 -3.13867188 19.26220703 C-5.53125 19.1328125 -5.53125 19.1328125 -6.53125 18.1328125 C-6.63111975 15.28946202 -6.67002881 12.47584087 -6.65625 9.6328125 C-6.66011719 8.83488281 -6.66398437 8.03695312 -6.66796875 7.21484375 C-6.65573175 0.007248 -6.65573175 0.007248 0 0 Z " fill="#3AD9C8" transform="translate(39.53125,85.8671875)"/>
<path d="M0 0 C1.98 0 3.96 0 6 0 C6.33 0.66 6.66 1.32 7 2 C15.25 2 23.5 2 32 2 C32.33 1.34 32.66 0.68 33 0 C39.27 0 45.54 0 52 0 C51.01 2.31 50.02 4.62 49 7 C48.34 7 47.68 7 47 7 C47 8.32 47 9.64 47 11 C44.14422581 11.82070952 41.67270335 12.10615659 38.70629883 12.03759766 C37.45028618 12.01229477 37.45028618 12.01229477 36.16889954 11.98648071 C34.82652473 11.9506337 34.82652473 11.9506337 33.45703125 11.9140625 C32.53282883 11.89282318 31.6086264 11.87158386 30.65641785 11.84970093 C28.70715941 11.80351334 26.7579641 11.75459132 24.80883789 11.703125 C21.81344678 11.62502469 18.81794894 11.5580105 15.82226562 11.4921875 C13.92967122 11.44597467 12.0370923 11.39912193 10.14453125 11.3515625 C8.79304741 11.32178818 8.79304741 11.32178818 7.41426086 11.29141235 C1.11509565 11.11509565 1.11509565 11.11509565 0 10 C-0.07205511 8.31391034 -0.08386068 6.62499341 -0.0625 4.9375 C-0.05347656 4.01839844 -0.04445313 3.09929687 -0.03515625 2.15234375 C-0.02355469 1.44207031 -0.01195313 0.73179688 0 0 Z " fill="#BAD5FE" transform="translate(27,102)"/>
<path d="M0 0 C0.83265381 0.00523682 1.66530762 0.01047363 2.52319336 0.01586914 C3.33280518 0.0183667 4.14241699 0.02086426 4.9765625 0.0234375 C6.01159912 0.0325415 7.04663574 0.04164551 8.11303711 0.05102539 C11.39241211 0.07165039 14.67178711 0.09227539 18.05053711 0.11352539 C18.05053711 7.04352539 18.05053711 13.97352539 18.05053711 21.11352539 C11.12053711 21.11352539 4.19053711 21.11352539 -2.94946289 21.11352539 C-2.97008789 17.83415039 -2.99071289 14.55477539 -3.01196289 11.17602539 C-3.02106689 10.14098877 -3.0301709 9.10595215 -3.03955078 8.03955078 C-3.04329712 6.82513306 -3.04329712 6.82513306 -3.04711914 5.58618164 C-3.05235596 4.75352783 -3.05759277 3.92087402 -3.06298828 3.06298828 C-2.90876673 0.41468917 -2.64829911 0.15422155 0 0 Z " fill="#35CFD2" transform="translate(15.949462890625,58.886474609375)"/>
<path d="M0 0 C2.64 0 5.28 0 8 0 C8 12.54 8 25.08 8 38 C-0.25 38 -8.5 38 -17 38 C-17.13392857 24.74107143 -17.13392857 24.74107143 -16 20 C-15.34 20 -14.68 20 -14 20 C-13.67 22.31 -13.34 24.62 -13 27 C-7.39 27.33 -1.78 27.66 4 28 C4 22.06 4 16.12 4 10 C1.03 10 -1.94 10 -5 10 C-4.34 8.68 -3.68 7.36 -3 6 C-3.33 5.34 -3.66 4.68 -4 4 C-2.68 4 -1.36 4 0 4 C0 3.01 0 2.02 0 1 C0 0.67 0 0.34 0 0 Z " fill="#7389FE" transform="translate(119,86)"/>
<path d="M0 0 C2.31 0.66 4.62 1.32 7 2 C7.93423645 5.01031744 8.04449911 5.86650268 7 9 C8.37249963 11.67676547 8.37249963 11.67676547 10 14 C3.9453125 14.1953125 3.9453125 14.1953125 2 14 C1.34 13.34 0.68 12.68 0 12 C-5.54235245 11.42765564 -5.54235245 11.42765564 -10.5 13.5 C-12.71177972 17.18629954 -12.34421275 19.73176192 -12 24 C-11.67 24.66 -11.34 25.32 -11 26 C-15.29 26 -19.58 26 -24 26 C-24.33 23.03 -24.66 20.06 -25 17 C-23.02 16.34 -21.04 15.68 -19 15 C-18.25073929 11.33694766 -17.7619986 8.57644848 -19 5 C-16.1875 2.9375 -16.1875 2.9375 -13 1 C-10 2 -10 2 -9 4 C-6.67843403 4.40729228 -4.3431213 4.74438677 -2 5 C-1.34 3.35 -0.68 1.7 0 0 Z " fill="#E8EAF1" transform="translate(107,19)"/>
<path d="M0 0 C6.27 0 12.54 0 19 0 C20 5 20 5 20 7 C20.33 7.33 20.66 7.66 21 8 C21.08748207 9.92667507 21.10697334 11.85651861 21.09765625 13.78515625 C21.09443359 14.95498047 21.09121094 16.12480469 21.08789062 17.33007812 C21.07951172 18.56177734 21.07113281 19.79347656 21.0625 21.0625 C21.05798828 22.29806641 21.05347656 23.53363281 21.04882812 24.80664062 C21.03699608 27.87114117 21.02051173 30.93554721 21 34 C23.31 34 25.62 34 28 34 C28.33 34.99 28.66 35.98 29 37 C20.19039858 38.30512614 11.80960142 38.30512614 3 37 C3.33 36.01 3.66 35.02 4 34 C8.29 34 12.58 34 17 34 C17 27.4 17 20.8 17 14 C13.7 14 10.4 14 7 14 C7 11.03 7 8.06 7 5 C4.69 5 2.38 5 0 5 C0 3.35 0 1.7 0 0 Z " fill="#37C7D7" transform="translate(98,49)"/>
<path d="M0 0 C1.58206422 0.00574487 3.16410406 0.01876032 4.74609375 0.03515625 C7.53046875 0.05578125 10.31484375 0.07640625 13.18359375 0.09765625 C13.18359375 6.03765625 13.18359375 11.97765625 13.18359375 18.09765625 C10.39921875 18.11828125 7.61484375 18.13890625 4.74609375 18.16015625 C3.86767822 18.16926025 2.9892627 18.17836426 2.08422852 18.18774414 C0.11713401 18.19488716 -1.84994246 18.14797518 -3.81640625 18.09765625 C-5.63756628 16.27649622 -4.94875705 13.79093861 -4.953125 11.37109375 C-4.94925781 10.62085937 -4.94539063 9.870625 -4.94140625 9.09765625 C-4.94527344 8.34742187 -4.94914062 7.5971875 -4.953125 6.82421875 C-4.94103514 0.12643386 -4.94103514 0.12643386 0 0 Z " fill="#9DE4F0" transform="translate(109.81640625,95.90234375)"/>
<path d="M0 0 C5.61 0 11.22 0 17 0 C17 5.61 17 11.22 17 17 C11.39 17 5.78 17 0 17 C0 11.39 0 5.78 0 0 Z " fill="#3E4A96" transform="translate(15,34)"/>
<path d="M0 0 C2.875 1 2.875 1 4.25 3.0625 C4.45625 3.701875 4.6625 4.34125 4.875 5 C6.525 5 8.175 5 9.875 5 C10.37 6.98 10.37 6.98 10.875 9 C9.225 9 7.575 9 5.875 9 C5.875 9.66 5.875 10.32 5.875 11 C5.215 11.66 4.555 12.32 3.875 13 C4.205 13.99 4.535 14.98 4.875 16 C0.49212846 20.01763224 0.49212846 20.01763224 -2.3125 19.9375 C-4.125 19 -4.125 19 -6.125 16 C-5.465 16 -4.805 16 -4.125 16 C-4.455 14.68 -4.785 13.36 -5.125 12 C-11.395 11.67 -17.665 11.34 -24.125 11 C-24.125 10.34 -24.125 9.68 -24.125 9 C-23.09375 9.0825 -22.0625 9.165 -21 9.25 C-16.48035748 8.95841016 -14.71787224 7.63477298 -11.125 5 C-10.42375 4.835 -9.7225 4.67 -9 4.5 C-6.8826056 4.12081245 -6.8826056 4.12081245 -5.25 1.875 C-3.125 0 -3.125 0 0 0 Z " fill="#44D6D3" transform="translate(122.125,38)"/>
<path d="M0 0 C0.33 0 0.66 0 1 0 C1.33 5.94 1.66 11.88 2 18 C5.03268602 15.16343011 5.03268602 15.16343011 7 12 C7.33 13.98 7.66 15.96 8 18 C9.65 18.33 11.3 18.66 13 19 C12.360625 19.268125 11.72125 19.53625 11.0625 19.8125 C8.66868314 20.88667752 8.66868314 20.88667752 8 24 C6.1875 24.625 6.1875 24.625 4 25 C2.68 25.33 1.36 25.66 0 26 C-0.33 30.95 -0.66 35.9 -1 41 C-3.31 41 -5.62 41 -8 41 C-8 33.74 -8 26.48 -8 19 C-5.36 19 -2.72 19 0 19 C0 12.73 0 6.46 0 0 Z " fill="#5D50FC" transform="translate(34,61)"/>
<path d="M0 0 C18.15 0 36.3 0 55 0 C55.495 1.98 55.495 1.98 56 4 C55.01 4 54.02 4 53 4 C53 3.34 53 2.68 53 2 C36.17 2 19.34 2 2 2 C2.144375 6.888125 2.28875 11.77625 2.4375 16.8125 C2.48060303 18.35139893 2.52370605 19.89029785 2.56811523 21.47583008 C2.60622314 22.68650146 2.64433105 23.89717285 2.68359375 25.14453125 C2.72025146 26.38565674 2.75690918 27.62678223 2.79467773 28.90551758 C2.87144121 32.03553347 2.87144121 32.03553347 4 35 C2.35 34.67 0.7 34.34 -1 34 C-1.02468857 29.4793335 -1.04285449 24.9587061 -1.05493164 20.43798828 C-1.05996552 18.89956987 -1.06679308 17.36115625 -1.07543945 15.82275391 C-1.08754639 13.61359474 -1.09323769 11.40449874 -1.09765625 9.1953125 C-1.10281754 8.50567413 -1.10797882 7.81603577 -1.11329651 7.10549927 C-1.11387171 2.22774341 -1.11387171 2.22774341 0 0 Z " fill="#34D3D1" transform="translate(42,45)"/>
<path d="M0 0 C13.53 0 27.06 0 41 0 C41 1.65 41 3.3 41 5 C27.47 5 13.94 5 0 5 C0 3.35 0 1.7 0 0 Z " fill="#3C3D89" transform="translate(60,97)"/>
<path d="M0 0 C2.12438339 -0.08078641 4.2496323 -0.13909141 6.375 -0.1875 C7.55835937 -0.22230469 8.74171875 -0.25710937 9.9609375 -0.29296875 C11.46527344 -0.14794922 11.46527344 -0.14794922 13 0 C13.66 0.99 14.32 1.98 15 3 C14.34 3 13.68 3 13 3 C13 3.66 13 4.32 13 5 C19.27 5 25.54 5 32 5 C32.495 6.485 32.495 6.485 33 8 C18.81 8 4.62 8 -10 8 C-10 7.34 -10 6.68 -10 6 C-7.98177083 5.609375 -5.96354167 5.21875 -3.9453125 4.828125 C-1.80995329 4.14287884 -1.80995329 4.14287884 -0.7421875 1.921875 C-0.49726562 1.28765625 -0.25234375 0.6534375 0 0 Z " fill="#A3C6FE" transform="translate(61,113)"/>
<path d="M0 0 C0.8971875 0.5259375 0.8971875 0.5259375 1.8125 1.0625 C1.585625 1.805 1.35875 2.5475 1.125 3.3125 C0.51773302 6.12164993 0.51773302 6.12164993 2.25 8.375 C2.765625 8.931875 3.28125 9.48875 3.8125 10.0625 C3.125 12 3.125 12 1.8125 14.0625 C-0.8125 14.8125 -0.8125 14.8125 -3.1875 15.0625 C-3.5175 16.3825 -3.8475 17.7025 -4.1875 19.0625 C-5.8375 19.0625 -7.4875 19.0625 -9.1875 19.0625 C-9.1875 18.0725 -9.1875 17.0825 -9.1875 16.0625 C-11.4975 16.3925 -13.8075 16.7225 -16.1875 17.0625 C-16.8475 15.4125 -17.5075 13.7625 -18.1875 12.0625 C-17.5275 12.0625 -16.8675 12.0625 -16.1875 12.0625 C-16.5175 10.4125 -16.8475 8.7625 -17.1875 7.0625 C-17.8475 7.0625 -18.5075 7.0625 -19.1875 7.0625 C-19.1875 5.7425 -19.1875 4.4225 -19.1875 3.0625 C-16.5475 3.0625 -13.9075 3.0625 -11.1875 3.0625 C-11.39375 4.17625 -11.6 5.29 -11.8125 6.4375 C-11.998125 8.231875 -11.998125 8.231875 -12.1875 10.0625 C-10.28994856 12.41223818 -10.28994856 12.41223818 -7.0625 12.1875 C-5.639375 12.125625 -5.639375 12.125625 -4.1875 12.0625 C-3.89187633 6.74079506 -3.89187633 6.74079506 -6.1875 2.0625 C-4.66896708 -0.97456585 -3.05066334 -1.30742714 0 0 Z " fill="#E9EAF1" transform="translate(140.1875,59.9375)"/>
<path d="M0 0 C0 0.99 0 1.98 0 3 C-0.474375 3.45375 -0.94875 3.9075 -1.4375 4.375 C-3.44583349 6.46366683 -3.61869524 8.1783448 -4 11 C-4.99 11.33 -5.98 11.66 -7 12 C-7 12.66 -7 13.32 -7 14 C-7.66 14 -8.32 14 -9 14 C-9 13.01 -9 12.02 -9 11 C-9.99 11 -10.98 11 -12 11 C-12.33 12.65 -12.66 14.3 -13 16 C-13.66 16 -14.32 16 -15 16 C-15 15.34 -15 14.68 -15 14 C-15.598125 13.9175 -16.19625 13.835 -16.8125 13.75 C-19.5966296 12.79544128 -20.43311142 11.42867729 -22 9 C-19.17924023 6.02253135 -16.82308932 3.55313004 -13 2 C-12.2575 1.62875 -11.515 1.2575 -10.75 0.875 C-7.03699237 -0.30641152 -3.88911182 -0.1318343 0 0 Z " fill="#49C0DE" transform="translate(59,86)"/>
<path d="M0 0 C0.33 1.98 0.66 3.96 1 6 C0.236875 5.979375 -0.52625 5.95875 -1.3125 5.9375 C-4.10185786 5.87057159 -4.10185786 5.87057159 -7 7 C-7.33 7.99 -7.66 8.98 -8 10 C-10.25 11.0625 -10.25 11.0625 -13 12 C-14.66884513 12.66119449 -16.33584844 13.32707965 -18 14 C-18.02685938 11.85423363 -18.04633088 9.70837355 -18.0625 7.5625 C-18.07410156 6.36753906 -18.08570312 5.17257813 -18.09765625 3.94140625 C-18 1 -18 1 -17 0 C-14.71397321 -0.26309771 -12.4202452 -0.46071865 -10.125 -0.625 C-8.86945313 -0.72039063 -7.61390625 -0.81578125 -6.3203125 -0.9140625 C-3 -1 -3 -1 0 0 Z " fill="#77D8E4" transform="translate(123,33)"/>
<path d="M0 0 C1.98 0 3.96 0 6 0 C6.33 0.66 6.66 1.32 7 2 C9.71446979 2.31241455 12.33909361 2.51336592 15.0625 2.625 C16.20041992 2.68300781 16.20041992 2.68300781 17.36132812 2.7421875 C19.24047195 2.83673562 21.12020336 2.91946756 23 3 C22.34 4.98 21.68 6.96 21 9 C20.071875 8.95875 19.14375 8.9175 18.1875 8.875 C14.84190281 8.72863661 14.84190281 8.72863661 12 11 C9.3359375 11.23046875 9.3359375 11.23046875 6.375 11.1875 C5.39273438 11.18105469 4.41046875 11.17460938 3.3984375 11.16796875 C1 11 1 11 0 10 C-0.07205511 8.31391034 -0.08386068 6.62499341 -0.0625 4.9375 C-0.05347656 4.01839844 -0.04445313 3.09929687 -0.03515625 2.15234375 C-0.02355469 1.44207031 -0.01195313 0.73179688 0 0 Z " fill="#C5DCFE" transform="translate(27,102)"/>
<path d="M0 0 C1.32 0 2.64 0 4 0 C4 6.6 4 13.2 4 20 C6.31 20 8.62 20 11 20 C11.33 20.99 11.66 21.98 12 23 C3.19039858 24.30512614 -5.19039858 24.30512614 -14 23 C-13.505 21.515 -13.505 21.515 -13 20 C-8.71 20 -4.42 20 0 20 C0 13.4 0 6.8 0 0 Z " fill="#4C4CA1" transform="translate(115,63)"/>
<path d="M0 0 C0.92232422 0.00902344 1.84464844 0.01804687 2.79492188 0.02734375 C5.05105809 0.0507234 7.30663684 0.08349084 9.5625 0.125 C9.59138146 3.43748187 9.60925799 6.74993167 9.625 10.0625 C9.63337891 11.00802734 9.64175781 11.95355469 9.65039062 12.92773438 C9.65522461 14.27641602 9.65522461 14.27641602 9.66015625 15.65234375 C9.66801147 16.90132446 9.66801147 16.90132446 9.67602539 18.17553711 C9.5625 20.125 9.5625 20.125 8.5625 21.125 C7.15901265 21.22360131 5.75069523 21.25578937 4.34375 21.2578125 C3.06951172 21.25974609 3.06951172 21.25974609 1.76953125 21.26171875 C0.42955078 21.25591797 0.42955078 21.25591797 -0.9375 21.25 C-1.83082031 21.25386719 -2.72414063 21.25773437 -3.64453125 21.26171875 C-4.49402344 21.26042969 -5.34351563 21.25914063 -6.21875 21.2578125 C-7.00314453 21.25668457 -7.78753906 21.25555664 -8.59570312 21.25439453 C-10.4375 21.125 -10.4375 21.125 -11.4375 20.125 C-11.50976502 18.27212498 -11.5213122 16.41666122 -11.5 14.5625 C-11.49097656 13.55058594 -11.48195313 12.53867187 -11.47265625 11.49609375 C-11.46105469 10.71363281 -11.44945312 9.93117188 -11.4375 9.125 C-13.7475 9.125 -16.0575 9.125 -18.4375 9.125 C-18.4375 8.795 -18.4375 8.465 -18.4375 8.125 C-16.4575 7.795 -14.4775 7.465 -12.4375 7.125 C-12.1075 5.805 -11.7775 4.485 -11.4375 3.125 C-13.4175 3.125 -15.3975 3.125 -17.4375 3.125 C-17.4375 2.795 -17.4375 2.465 -17.4375 2.125 C-11.51968663 0.06310069 -6.23331786 -0.11667838 0 0 Z M-9.4375 2.125 C-9.4375 7.735 -9.4375 13.345 -9.4375 19.125 C-3.8275 19.125 1.7825 19.125 7.5625 19.125 C7.5625 13.515 7.5625 7.905 7.5625 2.125 C1.9525 2.125 -3.6575 2.125 -9.4375 2.125 Z " fill="#35D7CC" transform="translate(24.4375,31.875)"/>
<path d="M0 0 C0.83265381 0.00523682 1.66530762 0.01047363 2.52319336 0.01586914 C3.42231445 0.0190918 4.32143555 0.02231445 5.24780273 0.02563477 C6.66609375 0.03820313 6.66609375 0.03820313 8.11303711 0.05102539 C9.06243164 0.05553711 10.01182617 0.06004883 10.98999023 0.06469727 C13.34356776 0.07652429 15.69702188 0.09300514 18.05053711 0.11352539 C18.05053711 2.75352539 18.05053711 5.39352539 18.05053711 8.11352539 C17.06053711 8.44352539 16.07053711 8.77352539 15.05053711 9.11352539 C15.05053711 9.77352539 15.05053711 10.43352539 15.05053711 11.11352539 C14.39053711 11.11352539 13.73053711 11.11352539 13.05053711 11.11352539 C13.05053711 9.79352539 13.05053711 8.47352539 13.05053711 7.11352539 C11.73053711 6.78352539 10.41053711 6.45352539 9.05053711 6.11352539 C9.05053711 5.45352539 9.05053711 4.79352539 9.05053711 4.11352539 C7.73053711 4.11352539 6.41053711 4.11352539 5.05053711 4.11352539 C5.05053711 5.10352539 5.05053711 6.09352539 5.05053711 7.11352539 C3.73053711 7.11352539 2.41053711 7.11352539 1.05053711 7.11352539 C1.38053711 8.76352539 1.71053711 10.41352539 2.05053711 12.11352539 C0.40053711 11.78352539 -1.24946289 11.45352539 -2.94946289 11.11352539 C-2.9763444 9.46777973 -2.99580412 7.82191126 -3.01196289 6.17602539 C-3.02356445 5.25950195 -3.03516602 4.34297852 -3.04711914 3.39868164 C-2.92474775 0.53519116 -2.85914507 0.16649999 0 0 Z " fill="#32C5E0" transform="translate(15.949462890625,58.886474609375)"/>
<path d="M0 0 C1.31871094 -0.01224609 2.63742188 -0.02449219 3.99609375 -0.03710938 C5.90068359 -0.04000977 5.90068359 -0.04000977 7.84375 -0.04296875 C9.00068359 -0.04707764 10.15761719 -0.05118652 11.34960938 -0.05541992 C14.47736509 0.18575467 16.680892 0.85423629 19.5 2.1875 C18.5 4.1875 18.5 4.1875 16.84521484 4.80200195 C11.99200924 5.59975457 7.04404055 5.37340312 2.13769531 5.37280273 C0.13863013 5.37498512 -1.86039532 5.39349143 -3.859375 5.41210938 C-5.13039063 5.41404297 -6.40140625 5.41597656 -7.7109375 5.41796875 C-8.86899902 5.42207764 -10.02706055 5.42618652 -11.22021484 5.43041992 C-14.61310954 5.17912245 -17.33332989 4.39923908 -20.5 3.1875 C-20.17 2.5275 -19.84 1.8675 -19.5 1.1875 C-13.23640183 -0.60566158 -6.45139424 0.00315317 0 0 Z " fill="#EAEBF2" transform="translate(114.5,125.8125)"/>
<path d="M0 0 C0.89589844 0.00322266 1.79179688 0.00644531 2.71484375 0.00976562 C4.12056641 0.02233398 4.12056641 0.02233398 5.5546875 0.03515625 C6.49957031 0.03966797 7.44445312 0.04417969 8.41796875 0.04882812 C10.75527137 0.06063268 13.09244811 0.07709866 15.4296875 0.09765625 C15.4296875 0.75765625 15.4296875 1.41765625 15.4296875 2.09765625 C16.0896875 2.42765625 16.7496875 2.75765625 17.4296875 3.09765625 C16.6665625 3.53078125 15.9034375 3.96390625 15.1171875 4.41015625 C12.84874982 5.8345241 11.2097152 7.13025722 9.4296875 9.09765625 C8.7696875 8.43765625 8.1096875 7.77765625 7.4296875 7.09765625 C5.20310596 6.72761331 5.20310596 6.72761331 2.640625 6.68359375 C1.22910156 6.62558594 1.22910156 6.62558594 -0.2109375 6.56640625 C-1.19578125 6.53546875 -2.180625 6.50453125 -3.1953125 6.47265625 C-4.18789063 6.43398437 -5.18046875 6.3953125 -6.203125 6.35546875 C-8.65866635 6.26102485 -11.1141966 6.1754575 -13.5703125 6.09765625 C-12.9103125 5.43765625 -12.2503125 4.77765625 -11.5703125 4.09765625 C-10.9103125 4.09765625 -10.2503125 4.09765625 -9.5703125 4.09765625 C-8.54926699 3.1191543 -7.5497004 2.11785198 -6.5703125 1.09765625 C-4.16971433 -0.10264283 -2.67670601 -0.01694118 0 0 Z " fill="#655EFE" transform="translate(51.5703125,79.90234375)"/>
<path d="M0 0 C1.58206057 0.00667536 3.16410534 0.0186375 4.74609375 0.03515625 C5.55240234 0.03966797 6.35871094 0.04417969 7.18945312 0.04882812 C9.18753131 0.06065107 11.18557158 0.07858711 13.18359375 0.09765625 C12.56484375 0.36578125 11.94609375 0.63390625 11.30859375 0.91015625 C8.88407045 2.05322473 8.88407045 2.05322473 7.18359375 5.09765625 C5.86359375 5.09765625 4.54359375 5.09765625 3.18359375 5.09765625 C2.85359375 6.08765625 2.52359375 7.07765625 2.18359375 8.09765625 C1.52359375 8.75765625 0.86359375 9.41765625 0.18359375 10.09765625 C1.00859375 10.71640625 1.83359375 11.33515625 2.68359375 11.97265625 C3.50859375 12.67390625 4.33359375 13.37515625 5.18359375 14.09765625 C5.18359375 14.75765625 5.18359375 15.41765625 5.18359375 16.09765625 C1.88359375 16.09765625 -1.41640625 16.09765625 -4.81640625 16.09765625 C-4.8432572 13.61841824 -4.86317172 11.13946785 -4.87890625 8.66015625 C-4.89147461 7.59958008 -4.89147461 7.59958008 -4.90429688 6.51757812 C-4.91294213 4.71072066 -4.86860636 2.90378022 -4.81640625 1.09765625 C-3.81640625 0.09765625 -3.81640625 0.09765625 0 0 Z " fill="#43A9E6" transform="translate(37.81640625,85.90234375)"/>
<path d="M0 0 C1.58206422 0.00574487 3.16410406 0.01876032 4.74609375 0.03515625 C7.53046875 0.05578125 10.31484375 0.07640625 13.18359375 0.09765625 C13.18359375 6.03765625 13.18359375 11.97765625 13.18359375 18.09765625 C10.39921875 18.11828125 7.61484375 18.13890625 4.74609375 18.16015625 C3.86767822 18.16926025 2.9892627 18.17836426 2.08422852 18.18774414 C0.11713401 18.19488716 -1.84994246 18.14797518 -3.81640625 18.09765625 C-5.63756628 16.27649622 -4.94875705 13.79093861 -4.953125 11.37109375 C-4.94925781 10.62085937 -4.94539063 9.870625 -4.94140625 9.09765625 C-4.94527344 8.34742187 -4.94914062 7.5971875 -4.953125 6.82421875 C-4.94103514 0.12643386 -4.94103514 0.12643386 0 0 Z M-1.25390625 3.66015625 C-3.43640297 7.06485113 -3.45375087 9.13195637 -2.81640625 13.09765625 C-0.88514523 15.77604198 -0.88514523 15.77604198 2.18359375 17.09765625 C5.99736885 17.09765625 8.20783923 16.94750696 11.12109375 14.41015625 C12.52176913 11.36162748 12.66786695 9.41838673 12.18359375 6.09765625 C10.74698064 3.57758781 10.74698064 3.57758781 8.18359375 2.09765625 C4.24343362 1.53477623 2.12577179 1.49369597 -1.25390625 3.66015625 Z " fill="#46AFF5" transform="translate(109.81640625,95.90234375)"/>
<path d="M0 0 C1.32 0 2.64 0 4 0 C4 0.66 4 1.32 4 2 C5.65 2.33 7.3 2.66 9 3 C9 5.31 9 7.62 9 10 C8.01 10.33 7.02 10.66 6 11 C5.67 11.99 5.34 12.98 5 14 C2.33333333 13.33333333 -0.33333333 12.66666667 -3 12 C-3.54372951 8.94152152 -4 6.11227195 -4 3 C-2.68 3 -1.36 3 0 3 C0 2.01 0 1.02 0 0 Z " fill="#E2F5F8" transform="translate(21,63)"/>
<path d="M0 0 C0.99 0 1.98 0 3 0 C3 0.66 3 1.32 3 2 C5.31 2 7.62 2 10 2 C10 1.34 10 0.68 10 0 C12.31 0 14.62 0 17 0 C17 2.64 17 5.28 17 8 C11.39 8 5.78 8 0 8 C0 5.36 0 2.72 0 0 Z " fill="#3D4990" transform="translate(15,43)"/>
<path d="M0 0 C2.875 1 2.875 1 4.25 3.0625 C4.45625 3.701875 4.6625 4.34125 4.875 5 C6.525 5 8.175 5 9.875 5 C10.205 5.99 10.535 6.98 10.875 8 C3.285 8 -4.305 8 -12.125 8 C-11.795 7.01 -11.465 6.02 -11.125 5 C-10.526875 4.855625 -9.92875 4.71125 -9.3125 4.5625 C-6.9166207 4.1646438 -6.9166207 4.1646438 -5.25 1.875 C-3.125 0 -3.125 0 0 0 Z " fill="#F9FDFD" transform="translate(122.125,38)"/>
<path d="M0 0 C0.66 0 1.32 0 2 0 C2.33 2.31 2.66 4.62 3 7 C5.97 7.33 8.94 7.66 12 8 C11.01 8.99 10.02 9.98 9 11 C9.33 11.66 9.66 12.32 10 13 C8.6875 14.5 8.6875 14.5 7 16 C6.01 16 5.02 16 4 16 C3.67 16.66 3.34 17.32 3 18 C1.68 18 0.36 18 -1 18 C-1.02717692 15.93757383 -1.0464758 13.87504297 -1.0625 11.8125 C-1.07410156 10.66394531 -1.08570312 9.51539062 -1.09765625 8.33203125 C-1.01192832 5.40699414 -0.67849023 2.83683709 0 0 Z " fill="#6C72FE" transform="translate(103,106)"/>
<path d="M0 0 C1.81242052 -0.02687279 3.62495233 -0.04633715 5.4375 -0.0625 C6.44683594 -0.07410156 7.45617187 -0.08570313 8.49609375 -0.09765625 C11 0 11 0 12 1 C12.37086093 6.8410596 12.37086093 6.8410596 12 9 C9 11 9 11 6.5625 10.9375 C3.1143018 9.67596407 1.90553895 8.10532273 0 5 C-0.10546875 2.328125 -0.10546875 2.328125 0 0 Z " fill="#38D3D3" transform="translate(123,33)"/>
<path d="M0 0 C1.32 0 2.64 0 4 0 C4 5.61 4 11.22 4 17 C4.99 17 5.98 17 7 17 C7 18.65 7 20.3 7 22 C4.69 22 2.38 22 0 22 C0 14.74 0 7.48 0 0 Z " fill="#42458F" transform="translate(26,80)"/>
<path d="M0 0 C2.64 0 5.28 0 8 0 C8 3.96 8 7.92 8 12 C7.34 11.34 6.68 10.68 6 10 C3.33050591 9.75684344 3.33050591 9.75684344 0.375 9.875 C-0.62789063 9.89304687 -1.63078125 9.91109375 -2.6640625 9.9296875 C-3.82035156 9.96449219 -3.82035156 9.96449219 -5 10 C-4.649375 9.38125 -4.29875 8.7625 -3.9375 8.125 C-3.628125 7.42375 -3.31875 6.7225 -3 6 C-3.33 5.34 -3.66 4.68 -4 4 C-2.68 4 -1.36 4 0 4 C0 3.01 0 2.02 0 1 C0 0.67 0 0.34 0 0 Z " fill="#655CFE" transform="translate(119,86)"/>
<path d="M0 0 C0.99 0 1.98 0 3 0 C3.03758423 1.24873901 3.03758423 1.24873901 3.07592773 2.52270508 C3.17112694 5.61462833 3.27035672 8.70638852 3.37231445 11.7980957 C3.43687006 13.79303319 3.4967783 15.78811929 3.55664062 17.78320312 C3.59853516 19.03681641 3.64042969 20.29042969 3.68359375 21.58203125 C3.72025146 22.73936768 3.75690918 23.8967041 3.79467773 25.08911133 C3.88328509 28.0643446 3.88328509 28.0643446 5 31 C3.35 30.67 1.7 30.34 0 30 C0 20.1 0 10.2 0 0 Z " fill="#3FA7E5" transform="translate(41,49)"/>
<path d="M0 0 C2.31 0 4.62 0 7 0 C7.05395478 1.62463842 7.09277195 3.24978541 7.125 4.875 C7.14820312 5.77992187 7.17140625 6.68484375 7.1953125 7.6171875 C7 10 7 10 5 12 C4.01 12.495 4.01 12.495 3 13 C2.27840576 14.64363134 1.60648579 16.31050386 1 18 C0.67 18 0.34 18 0 18 C0 12.06 0 6.12 0 0 Z " fill="#6C74FE" transform="translate(98,54)"/>
<path d="M0 0 C6.27 0 12.54 0 19 0 C19.33 1.32 19.66 2.64 20 4 C17.29283758 4.90238747 15.76223232 5.11851302 12.98828125 5.09765625 C11.85229492 5.09282227 11.85229492 5.09282227 10.69335938 5.08789062 C9.90767578 5.07951172 9.12199219 5.07113281 8.3125 5.0625 C7.51521484 5.05798828 6.71792969 5.05347656 5.89648438 5.04882812 C3.93095743 5.0370585 1.96546915 5.01912348 0 5 C0 3.35 0 1.7 0 0 Z " fill="#34AEC5" transform="translate(98,49)"/>
<path d="M0 0 C1.32 0 2.64 0 4 0 C4 6.6 4 13.2 4 20 C2.68 19.67 1.36 19.34 0 19 C0 12.73 0 6.46 0 0 Z " fill="#3E3E8B" transform="translate(115,63)"/>
<path d="M0 0 C1.67542976 0.28604898 3.34385343 0.61781233 5 1 C6.00619398 5.3266341 6.36822864 8.12471677 4 12 C1.4140625 13.140625 1.4140625 13.140625 -1 14 C-1.02685938 11.85423363 -1.04633088 9.70837355 -1.0625 7.5625 C-1.07410156 6.36753906 -1.08570312 5.17257813 -1.09765625 3.94140625 C-1 1 -1 1 0 0 Z " fill="#32C6E0" transform="translate(106,33)"/>
<path d="M0 0 C0 3.3 0 6.6 0 10 C-3.63 10 -7.26 10 -11 10 C-11 9.01 -11 8.02 -11 7 C-10.01 7 -9.02 7 -8 7 C-8 6.34 -8 5.68 -8 5 C-7.34 5 -6.68 5 -6 5 C-6 4.34 -6 3.68 -6 3 C-8.31 2.67 -10.62 2.34 -13 2 C-13 1.67 -13 1.34 -13 1 C-11.20843648 0.83222817 -9.4167455 0.66581706 -7.625 0.5 C-6.62726563 0.4071875 -5.62953125 0.314375 -4.6015625 0.21875 C-2 0 -2 0 0 0 Z " fill="#7A94FE" transform="translate(115,72)"/>
<path d="M0 0 C0 5.28 0 10.56 0 16 C-1.65 16.33 -3.3 16.66 -5 17 C-5 15.68 -5 14.36 -5 13 C-5.66 13 -6.32 13 -7 13 C-7 12.34 -7 11.68 -7 11 C-6.34 11 -5.68 11 -5 11 C-5.0825 9.9275 -5.165 8.855 -5.25 7.75 C-5 4 -5 4 -3.0625 1.5625 C-1 0 -1 0 0 0 Z " fill="#35DAC1" transform="translate(60,88)"/>
<path d="M0 0 C8.91 0 17.82 0 27 0 C24 3 24 3 21.5480957 3.34057617 C20.60023193 3.32486572 19.65236816 3.30915527 18.67578125 3.29296875 C17.64775391 3.28330078 16.61972656 3.27363281 15.56054688 3.26367188 C13.95276367 3.2259668 13.95276367 3.2259668 12.3125 3.1875 C11.22904297 3.17396484 10.14558594 3.16042969 9.02929688 3.14648438 C6.35236595 3.11110643 3.67643162 3.06174189 1 3 C0.67 2.01 0.34 1.02 0 0 Z " fill="#38C7D5" transform="translate(45,77)"/>
<path d="M0 0 C8.58 0 17.16 0 26 0 C25.67 0.99 25.34 1.98 25 3 C17.08 3 9.16 3 1 3 C0.67 2.01 0.34 1.02 0 0 Z " fill="#4C4CA0" transform="translate(101,124)"/>
<path d="M0 0 C0.33 0 0.66 0 1 0 C1 5.28 1 10.56 1 16 C-4.61 16 -10.22 16 -16 16 C-16.33 14.35 -16.66 12.7 -17 11 C-16.34 10.01 -15.68 9.02 -15 8 C-14.443125 9.2065625 -14.443125 9.2065625 -13.875 10.4375 C-12.20047814 13.27215129 -12.20047814 13.27215129 -9 13.875 C-5.94816386 14.1801923 -5.94816386 14.1801923 -3 13 C-0.93845593 9.90768389 -0.77605555 9.39241113 -0.9375 5.9375 C-1 2 -1 2 0 0 Z " fill="#3CD9CE" transform="translate(122,98)"/>
<path d="M0 0 C2.64 0 5.28 0 8 0 C8 2.64 8 5.28 8 8 C7.01 8.33 6.02 8.66 5 9 C5 9.66 5 10.32 5 11 C4.34 11 3.68 11 3 11 C3 9.68 3 8.36 3 7 C2.01 6.67 1.02 6.34 0 6 C0 4.02 0 2.04 0 0 Z " fill="#3EBBDA" transform="translate(26,59)"/>
<path d="M0 0 C2.31 0 4.62 0 7 0 C7 1.65 7 3.3 7 5 C3.37 5 -0.26 5 -4 5 C-4 6.65 -4 8.3 -4 10 C-5.32 10 -6.64 10 -8 10 C-8 8.02 -8 6.04 -8 4 C-4.535 3.505 -4.535 3.505 -1 3 C-0.67 2.01 -0.34 1.02 0 0 Z " fill="#3C3F8A" transform="translate(34,49)"/>
<path d="M0 0 C0.66 0 1.32 0 2 0 C1.67 1.98 1.34 3.96 1 6 C1.66 4.35 2.32 2.7 3 1 C3.66 1 4.32 1 5 1 C6.6875 2.8125 6.6875 2.8125 8 5 C7.67 5.99 7.34 6.98 7 8 C6.34 8 5.68 8 5 8 C5 8.66 5 9.32 5 10 C4.34 10 3.68 10 3 10 C3 9.01 3 8.02 3 7 C2.01 7 1.02 7 0 7 C-0.33 8.65 -0.66 10.3 -1 12 C-1.66 12 -2.32 12 -3 12 C-2.14285714 3.42857143 -2.14285714 3.42857143 0 0 Z " fill="#A0E3EB" transform="translate(47,90)"/>
<path d="M0 0 C8.91 0 17.82 0 27 0 C27.33 0.66 27.66 1.32 28 2 C19.42 2 10.84 2 2 2 C2 2.66 2 3.32 2 4 C1.01 4 0.02 4 -1 4 C-0.67 2.68 -0.34 1.36 0 0 Z " fill="#33C9DB" transform="translate(42,45)"/>
<path d="M0 0 C2.32613583 3.48920374 2.24247293 4.94952546 2.1875 9.0625 C2.18105469 10.12597656 2.17460938 11.18945312 2.16796875 12.28515625 C2 15 2 15 1 17 C0.01 17 -0.98 17 -2 17 C-2 11.72 -2 6.44 -2 1 C-1.34 0.67 -0.68 0.34 0 0 Z " fill="#707FFE" transform="translate(125,95)"/>
<path d="M0 0 C1.24716797 0.00322266 2.49433594 0.00644531 3.77929688 0.00976562 C5.07287109 0.01814453 6.36644531 0.02652344 7.69921875 0.03515625 C9.66858398 0.04192383 9.66858398 0.04192383 11.67773438 0.04882812 C14.91410885 0.06059676 18.15039053 0.07703865 21.38671875 0.09765625 C21.05671875 0.75765625 20.72671875 1.41765625 20.38671875 2.09765625 C19.73074707 2.11747559 19.07477539 2.13729492 18.39892578 2.15771484 C15.43610806 2.25278132 12.47401343 2.36253377 9.51171875 2.47265625 C7.96291016 2.5190625 7.96291016 2.5190625 6.3828125 2.56640625 C4.90361328 2.62441406 4.90361328 2.62441406 3.39453125 2.68359375 C2.4833252 2.71501465 1.57211914 2.74643555 0.63330078 2.77880859 C-1.81259311 2.89648136 -1.81259311 2.89648136 -3.61328125 5.09765625 C-6.34197532 5.06478042 -8.90994305 4.53367854 -11.61328125 4.09765625 C-11.61328125 3.10765625 -11.61328125 2.11765625 -11.61328125 1.09765625 C-7.68039761 0.16677716 -4.03673962 -0.0184326 0 0 Z " fill="#D9D9E8" transform="translate(106.61328125,125.90234375)"/>
<path d="M0 0 C1.32 0 2.64 0 4 0 C3.85892253 1.45880109 3.71197585 2.91703551 3.5625 4.375 C3.48128906 5.18710938 3.40007813 5.99921875 3.31640625 6.8359375 C3 9 3 9 2 11 C-0.88575819 10.60196439 -1.82189513 10.20990931 -3.75 7.9375 C-4.1625 7.298125 -4.575 6.65875 -5 6 C-4.175 5.195625 -3.35 4.39125 -2.5 3.5625 C0.11638731 1.47736982 0.11638731 1.47736982 0 0 Z " fill="#49B9DD" transform="translate(42,89)"/>
<path d="M0 0 C1.60488281 0.07734375 1.60488281 0.07734375 3.2421875 0.15625 C4.35335937 0.22070312 5.46453125 0.28515625 6.609375 0.3515625 C7.73601562 0.40828125 8.86265625 0.465 10.0234375 0.5234375 C12.80274028 0.66475798 15.5811191 0.81615658 18.359375 0.9765625 C18.359375 1.3065625 18.359375 1.6365625 18.359375 1.9765625 C12.419375 1.9765625 6.479375 1.9765625 0.359375 1.9765625 C0.359375 2.6365625 0.359375 3.2965625 0.359375 3.9765625 C-5.250625 3.9765625 -10.860625 3.9765625 -16.640625 3.9765625 C-16.640625 3.3165625 -16.640625 2.6565625 -16.640625 1.9765625 C-15.031875 2.0384375 -15.031875 2.0384375 -13.390625 2.1015625 C-9.83601261 2.2602699 -9.83601261 2.2602699 -7.75878906 0.96728516 C-5.00475248 -0.32085228 -3.02575726 -0.16094453 0 0 Z " fill="#8CD9E3" transform="translate(114.640625,45.0234375)"/>
<path d="M0 0 C0.69287109 0.00451172 1.38574219 0.00902344 2.09960938 0.01367188 C3.79561068 0.02536844 5.49156703 0.04330076 7.1875 0.0625 C7.1875 0.3925 7.1875 0.7225 7.1875 1.0625 C3.2275 1.0625 -0.7325 1.0625 -4.8125 1.0625 C-4.791875 2.403125 -4.77125 3.74375 -4.75 5.125 C-4.74353116 9.21330689 -5.12719093 13.03630919 -5.8125 17.0625 C-6.1425 17.0625 -6.4725 17.0625 -6.8125 17.0625 C-6.8125 14.0925 -6.8125 11.1225 -6.8125 8.0625 C-9.1225 8.0625 -11.4325 8.0625 -13.8125 8.0625 C-13.8125 7.7325 -13.8125 7.4025 -13.8125 7.0625 C-11.8325 6.7325 -9.8525 6.4025 -7.8125 6.0625 C-7.4825 4.7425 -7.1525 3.4225 -6.8125 2.0625 C-8.7925 2.0625 -10.7725 2.0625 -12.8125 2.0625 C-12.8125 1.7325 -12.8125 1.4025 -12.8125 1.0625 C-8.52952469 0.00630997 -4.38264354 -0.05452092 0 0 Z " fill="#64D0E4" transform="translate(19.8125,32.9375)"/>
<path d="M0 0 C2.31 0 4.62 0 7 0 C7.33 1.32 7.66 2.64 8 4 C7.401875 4.226875 6.80375 4.45375 6.1875 4.6875 C3.44106051 6.33536369 2.52827786 8.23454483 1 11 C0.67 11 0.34 11 0 11 C0 7.37 0 3.74 0 0 Z " fill="#5935FF" transform="translate(102,86)"/>
<path d="M0 0 C3.3 0 6.6 0 10 0 C10 0.66 10 1.32 10 2 C8.7934375 2.37125 8.7934375 2.37125 7.5625 2.75 C4.828919 3.72238859 4.828919 3.72238859 4.1875 6.125 C4.125625 6.74375 4.06375 7.3625 4 8 C2.68 8.33 1.36 8.66 0 9 C0 6.03 0 3.06 0 0 Z " fill="#3DBCDD" transform="translate(105,54)"/>
<path d="M0 0 C3.63 0 7.26 0 11 0 C11 1.98 11 3.96 11 6 C10.67 5.34 10.34 4.68 10 4 C8.68 4 7.36 4 6 4 C6 4.99 6 5.98 6 7 C5.34 7 4.68 7 4 7 C3.67 6.01 3.34 5.02 3 4 C3.66 4 4.32 4 5 4 C5 3.34 5 2.68 5 2 C3.68 2.33 2.36 2.66 1 3 C0.67 2.01 0.34 1.02 0 0 Z " fill="#39CDDB" transform="translate(15,59)"/>
<path d="M0 0 C0.33 0.66 0.66 1.32 1 2 C1.99 2.33 2.98 2.66 4 3 C3.67 3.66 3.34 4.32 3 5 C-0.96 5 -4.92 5 -9 5 C-9.33 4.01 -9.66 3.02 -10 2 C-6.7 2 -3.4 2 0 2 C0 1.34 0 0.68 0 0 Z " fill="#4ED2DB" transform="translate(43,100)"/>
<path d="M0 0 C3.36704285 -0.2295711 5.41370268 -0.33943529 8.375 1.375 C8.91125 1.91125 9.4475 2.4475 10 3 C10 3.66 10 4.32 10 5 C6.7 5 3.4 5 0 5 C0 3.35 0 1.7 0 0 Z " fill="#34ABC5" transform="translate(33,97)"/>
<path d="M0 0 C1.23556641 0.01740234 1.23556641 0.01740234 2.49609375 0.03515625 C3.32238281 0.04417969 4.14867187 0.05320312 5 0.0625 C5.63808594 0.07410156 6.27617188 0.08570312 6.93359375 0.09765625 C5.5416346 2.88157455 3.77783596 3.07664622 0.93359375 4.09765625 C1.26359375 4.75765625 1.59359375 5.41765625 1.93359375 6.09765625 C0.28359375 6.75765625 -1.36640625 7.41765625 -3.06640625 8.09765625 C-3.10882348 5.7647085 -3.10733562 3.43063058 -3.06640625 1.09765625 C-2.06640625 0.09765625 -2.06640625 0.09765625 0 0 Z " fill="#4297EA" transform="translate(36.06640625,85.90234375)"/>
<path d="M0 0 C0.36 5.4 0.36 5.4 -1.125 7.875 C-3.78034983 9.4682099 -5.96789518 9.20214032 -9 9 C-9 8.34 -9 7.68 -9 7 C-8.01 7 -7.02 7 -6 7 C-5.731875 6.401875 -5.46375 5.80375 -5.1875 5.1875 C-2.37142857 0 -2.37142857 0 0 0 Z " fill="#42D7D7" transform="translate(120,102)"/>
<path d="M0 0 C1.76923828 0.04060547 1.76923828 0.04060547 3.57421875 0.08203125 C4.47785156 0.11683594 5.38148437 0.15164062 6.3125 0.1875 C5.3225 1.6725 5.3225 1.6725 4.3125 3.1875 C1.0546875 3.48046875 1.0546875 3.48046875 -2.8125 3.375 C-4.73449219 3.33439453 -4.73449219 3.33439453 -6.6953125 3.29296875 C-7.68273437 3.25816406 -8.67015625 3.22335938 -9.6875 3.1875 C-6.99455929 -0.5165087 -4.35133403 -0.12924755 0 0 Z " fill="#37D4CB" transform="translate(78.6875,76.8125)"/>
<path d="M0 0 C1.8871875 0.0309375 1.8871875 0.0309375 3.8125 0.0625 C3.8125 1.0525 3.8125 2.0425 3.8125 3.0625 C2.1625 3.7225 0.5125 4.3825 -1.1875 5.0625 C-1.1875 4.4025 -1.1875 3.7425 -1.1875 3.0625 C-3.4975 3.0625 -5.8075 3.0625 -8.1875 3.0625 C-6.45706736 -0.39836529 -3.47359009 -0.0569441 0 0 Z " fill="#3DBADA" transform="translate(55.1875,85.9375)"/>
<path d="M0 0 C0.33 0 0.66 0 1 0 C1 2.64 1 5.28 1 8 C5.95 8 10.9 8 16 8 C16 8.33 16 8.66 16 9 C14.02 9 12.04 9 10 9 C10 9.66 10 10.32 10 11 C7.69 11 5.38 11 3 11 C3 10.34 3 9.68 3 9 C2.01 9 1.02 9 0 9 C0 6.03 0 3.06 0 0 Z " fill="#446EB9" transform="translate(15,34)"/>
<path d="M0 0 C0.33 0.66 0.66 1.32 1 2 C1.66 2.33 2.32 2.66 3 3 C3 3.66 3 4.32 3 5 C3.33 5.33 3.66 5.66 4 6 C4.04080783 7.99958364 4.04254356 10.00045254 4 12 C2.68 12 1.36 12 0 12 C0 8.04 0 4.08 0 0 Z " fill="#34C5C4" transform="translate(115,51)"/>
<path d="M0 0 C0.99 0 1.98 0 3 0 C3.08121924 1.60332791 3.13929134 3.20784026 3.1875 4.8125 C3.23970703 6.15248047 3.23970703 6.15248047 3.29296875 7.51953125 C3 10 3 10 0 13 C0 8.71 0 4.42 0 0 Z " fill="#3A95D8" transform="translate(41,49)"/>
<path d="M0 0 C2.31 0 4.62 0 7 0 C7 1.65 7 3.3 7 5 C4.69 5 2.38 5 0 5 C0 3.35 0 1.7 0 0 Z " fill="#3C3E8A" transform="translate(98,49)"/>
<path d="M0 0 C1.07765625 0.10183594 2.1553125 0.20367187 3.265625 0.30859375 C4.08546875 0.39238281 4.9053125 0.47617188 5.75 0.5625 C5.75 1.2225 5.75 1.8825 5.75 2.5625 C0.47 2.5625 -4.81 2.5625 -10.25 2.5625 C-10.25 1.9025 -10.25 1.2425 -10.25 0.5625 C-6.70049966 -0.60056443 -3.69176052 -0.36115049 0 0 Z " fill="#99C0FE" transform="translate(68.25,118.4375)"/>
<path d="M0 0 C-0.66 1.65 -1.32 3.3 -2 5 C-2.99 4.34 -3.98 3.68 -5 3 C-8.5 2.83333333 -8.5 2.83333333 -12 3 C-12.99 3 -13.98 3 -15 3 C-14.67 2.34 -14.34 1.68 -14 1 C-9.30643695 0.06128739 -4.77567869 -0.09746283 0 0 Z " fill="#49C7E8" transform="translate(123,96)"/>
<path d="M0 0 C0 2.97 0 5.94 0 9 C-1.65 9 -3.3 9 -5 9 C-5.25 6.75 -5.25 6.75 -5 4 C-1.64864865 0 -1.64864865 0 0 0 Z " fill="#37D0D1" transform="translate(60,88)"/>
<path d="M0 0 C0 1.65 0 3.3 0 5 C-3.63 5 -7.26 5 -11 5 C-11 4.34 -11 3.68 -11 3 C-9.02 3 -7.04 3 -5 3 C-4.67 2.34 -4.34 1.68 -4 1 C-1 0 -1 0 0 0 Z " fill="#35DCC5" transform="translate(34,75)"/>
<path d="M0 0 C0.66 0 1.32 0 2 0 C2 1.98 2 3.96 2 6 C2.66 6.33 3.32 6.66 4 7 C3.34 7.66 2.68 8.32 2 9 C-0.0625 8.75 -0.0625 8.75 -2 8 C-2.33 7.34 -2.66 6.68 -3 6 C-2.34 6 -1.68 6 -1 6 C-1.0309375 4.7934375 -1.0309375 4.7934375 -1.0625 3.5625 C-1 1 -1 1 0 0 Z " fill="#E3F7F7" transform="translate(119,48)"/>
<path d="M0 0 C3.63 0 7.26 0 11 0 C11 0.66 11 1.32 11 2 C7.78548731 3.60725635 4.56387464 3.05748185 1 3 C0.67 2.01 0.34 1.02 0 0 Z " fill="#3CB9DC" transform="translate(45,77)"/>
<path d="M0 0 C0.66 0 1.32 0 2 0 C1.69106068 1.6256807 1.3777305 3.25052748 1.0625 4.875 C0.88847656 5.77992187 0.71445312 6.68484375 0.53515625 7.6171875 C0 10 0 10 -1 12 C-1.66 12 -2.32 12 -3 12 C-2.14285714 3.42857143 -2.14285714 3.42857143 0 0 Z " fill="#DEF4F7" transform="translate(47,90)"/>
<path d="M0 0 C1.65 0 3.3 0 5 0 C5.33 0.99 5.66 1.98 6 3 C4.35 4.65 2.7 6.3 1 8 C0.02391783 5.07175348 -0.08226668 3.04386724 0 0 Z " fill="#63D1E3" transform="translate(111,35)"/>
<path d="M0 0 C1.32 0 2.64 0 4 0 C4 0.66 4 1.32 4 2 C5.65 2.33 7.3 2.66 9 3 C8.01 3.99 7.02 4.98 6 6 C4.02 5.01 2.04 4.02 0 3 C0 2.01 0 1.02 0 0 Z " fill="#EDF9FB" transform="translate(21,63)"/>
<path d="M0 0 C1.32 0 2.64 0 4 0 C4 1.65 4 3.3 4 5 C2.68 5.33 1.36 5.66 0 6 C-0.38218767 4.34385343 -0.71395102 2.67542976 -1 1 C-0.67 0.67 -0.34 0.34 0 0 Z " fill="#3FCED9" transform="translate(22,67)"/>
<path d="M0 0 C0.66 0 1.32 0 2 0 C2 3.63 2 7.26 2 11 C1.01 11 0.02 11 -1 11 C-0.67 7.37 -0.34 3.74 0 0 Z " fill="#6661FE" transform="translate(103,106)"/>
<path d="M0 0 C0.33 0 0.66 0 1 0 C1 2.64 1 5.28 1 8 C3.64 8 6.28 8 9 8 C7 10 7 10 3.375 10.125 C2.26125 10.08375 1.1475 10.0425 0 10 C-1.231394 6.30581799 -0.64432764 3.7943739 0 0 Z " fill="#33D2D2" transform="translate(14,43)"/>
<path d="M0 0 C2 3 2 3 1.8125 5.0625 C1 7 1 7 -2 9 C-2 6.36 -2 3.72 -2 1 C-1.34 0.67 -0.68 0.34 0 0 Z " fill="#6B72FE" transform="translate(125,95)"/>
<path d="M0 0 C0.69287109 0.00451172 1.38574219 0.00902344 2.09960938 0.01367188 C3.79561068 0.02536844 5.49156703 0.04330076 7.1875 0.0625 C7.1875 0.3925 7.1875 0.7225 7.1875 1.0625 C3.2275 1.0625 -0.7325 1.0625 -4.8125 1.0625 C-4.8125 1.7225 -4.8125 2.3825 -4.8125 3.0625 C-7.4525 2.7325 -10.0925 2.4025 -12.8125 2.0625 C-12.8125 1.7325 -12.8125 1.4025 -12.8125 1.0625 C-8.52952469 0.00630997 -4.38264354 -0.05452092 0 0 Z " fill="#83D8E6" transform="translate(19.8125,32.9375)"/>
<path d="M0 0 C3.63 0 7.26 0 11 0 C10.34 1.65 9.68 3.3 9 5 C8.67 4.34 8.34 3.68 8 3 C7.01 3 6.02 3 5 3 C5 2.34 5 1.68 5 1 C3.35 1 1.7 1 0 1 C0 0.67 0 0.34 0 0 Z " fill="#5C4CF4" transform="translate(110,87)"/>
<path d="M0 0 C2.64 0 5.28 0 8 0 C8.33 1.32 8.66 2.64 9 4 C8.01 4 7.02 4 6 4 C6 3.34 6 2.68 6 2 C4.02 2 2.04 2 0 2 C0 1.34 0 0.68 0 0 Z " fill="#53D9D3" transform="translate(89,45)"/>
<path d="M0 0 C2.0625 2.3125 2.0625 2.3125 4 5 C3.67 5.99 3.34 6.98 3 8 C1.68 7.67 0.36 7.34 -1 7 C-0.67 4.69 -0.34 2.38 0 0 Z " fill="#3DCFE4" transform="translate(106,106)"/>
<path d="M0 0 C0.93423645 3.01031744 1.04449911 3.86650268 0 7 C-1.98 7 -3.96 7 -6 7 C-5.01 6.67 -4.02 6.34 -3 6 C-2.87625 5.195625 -2.7525 4.39125 -2.625 3.5625 C-2.41875 2.716875 -2.2125 1.87125 -2 1 C-1.34 0.67 -0.68 0.34 0 0 Z " fill="#47D2D5" transform="translate(33,67)"/>
<path d="M0 0 C1.32 0 2.64 0 4 0 C3.67 1.65 3.34 3.3 3 5 C2.01 5.33 1.02 5.66 0 6 C0 4.02 0 2.04 0 0 Z " fill="#34AEC5" transform="translate(26,59)"/>
<path d="M0 0 C0.99 0 1.98 0 3 0 C3.33 1.65 3.66 3.3 4 5 C2.35 5 0.7 5 -1 5 C-0.67 3.35 -0.34 1.7 0 0 Z " fill="#35C3C5" transform="translate(47,97)"/>
<path d="M0 0 C0.33 0 0.66 0 1 0 C0.67 2.97 0.34 5.94 0 9 C-0.66 9 -1.32 9 -2 9 C-2.25 3.375 -2.25 3.375 0 0 Z " fill="#409BE9" transform="translate(43,59)"/>
<path d="M0 0 C1.32 0.33 2.64 0.66 4 1 C2.515 4.96 2.515 4.96 1 9 C0.67 9 0.34 9 0 9 C0 6.03 0 3.06 0 0 Z " fill="#49BFF1" transform="translate(105,100)"/>
<path d="M0 0 C2.475 0.495 2.475 0.495 5 1 C4.67 2.98 4.34 4.96 4 7 C2 5.75 2 5.75 0 4 C0 2.68 0 1.36 0 0 Z " fill="#49CBD8" transform="translate(52,89)"/>
<path d="M0 0 C0.33 0.66 0.66 1.32 1 2 C1.99 2.33 2.98 2.66 4 3 C3.67 3.66 3.34 4.32 3 5 C1.02 5 -0.96 5 -3 5 C-2.34 4.67 -1.68 4.34 -1 4 C-0.34786708 1.97536745 -0.34786708 1.97536745 0 0 Z " fill="#4AD6D1" transform="translate(43,100)"/>
<path d="M0 0 C0 0.99 0 1.98 0 3 C0.3062434 4.33981486 0.63451555 5.67511887 1 7 C-0.32 6.34 -1.64 5.68 -3 5 C-3 4.01 -3 3.02 -3 2 C-2.01 1.34 -1.02 0.68 0 0 Z " fill="#E8F5F9" transform="translate(41,92)"/>
<path d="M0 0 C0.33 0.66 0.66 1.32 1 2 C1.66 2.33 2.32 2.66 3 3 C3 7 3 7 2 9 C1.34 9 0.68 9 0 9 C0 6.03 0 3.06 0 0 Z " fill="#3ABEC8" transform="translate(115,51)"/>
</svg>
