<?xml version="1.0" encoding="UTF-8"?>
<svg version="1.1" xmlns="http://www.w3.org/2000/svg" width="150" height="150">
<path d="M0 0 C0.495 2.97 0.495 2.97 1 6 C5.12148343 7.82660197 5.12148343 7.82660197 9.375 7.125 C9.91125 6.75375 10.4475 6.3825 11 6 C15 11.625 15 11.625 15 15 C15.85464844 14.98839844 16.70929688 14.97679687 17.58984375 14.96484375 C18.69457031 14.95582031 19.79929687 14.94679688 20.9375 14.9375 C22.03964844 14.92589844 23.14179688 14.91429687 24.27734375 14.90234375 C27 15 27 15 28 16 C28.15806531 17.92478813 28.251135 19.8549921 28.31640625 21.78515625 C28.37924805 23.53989258 28.37924805 23.53989258 28.44335938 25.33007812 C28.48267578 26.56177734 28.52199219 27.79347656 28.5625 29.0625 C28.60568359 30.29806641 28.64886719 31.53363281 28.69335938 32.80664062 C28.79984198 35.87097335 28.90185424 38.93539073 29 42 C30.32 41.67 31.64 41.34 33 41 C33.99 42.65 34.98 44.3 36 46 C35.01 46.99 35.01 46.99 34 48 C34.350625 48.928125 34.70125 49.85625 35.0625 50.8125 C36 54 36 54 35 57 C33.35 57 31.7 57 30 57 C29.67 58.32 29.34 59.64 29 61 C27.02 61 25.04 61 23 61 C23 60.01 23 59.02 23 58 C20.69 58 18.38 58 16 58 C15.01 56.02 15.01 56.02 14 54 C14.66 53.01 15.32 52.02 16 51 C16 50.01 16 49.02 16 48 C15.34 48 14.68 48 14 48 C14 47.01 14 46.02 14 45 C13.34 45 12.68 45 12 45 C12 51.6 12 58.2 12 65 C14.31 65 16.62 65 19 65 C20 66 20 66 20.11352539 69.96899414 C20.1133662 71.74105607 20.10766785 73.5131226 20.09765625 75.28515625 C20.0962413 76.21597519 20.09482635 77.14679413 20.09336853 78.1058197 C20.08775172 81.09141191 20.0751964 84.07693029 20.0625 87.0625 C20.05748716 89.08137913 20.05292388 91.10025943 20.04882812 93.11914062 C20.03777683 98.07945572 20.02050095 103.03971532 20 108 C22.31 108.66 24.62 109.32 27 110 C26 112 26 112 24.34521484 112.61450195 C19.49200924 113.41225457 14.54404055 113.18590312 9.63769531 113.18530273 C7.63863013 113.18748512 5.63960468 113.20599143 3.640625 113.22460938 C2.36960937 113.22654297 1.09859375 113.22847656 -0.2109375 113.23046875 C-1.36899902 113.23457764 -2.52706055 113.23868652 -3.72021484 113.24291992 C-7.11310954 112.99162245 -9.83332989 112.21173908 -13 111 C-12.67 110.34 -12.34 109.68 -12 109 C-9.4375 108.375 -9.4375 108.375 -7 108 C-7.67857056 107.99191315 -8.35714111 107.98382629 -9.05627441 107.97549438 C-16.19572947 107.88863335 -23.33493245 107.7891071 -30.47412109 107.68261719 C-33.12938188 107.64363425 -35.7845665 107.60971702 -38.43994141 107.578125 C-76.93926359 107.11445232 -76.93926359 107.11445232 -84 103 C-83.67 102.34 -83.34 101.68 -83 101 C-81.68 101 -80.36 101 -79 101 C-79 100.01 -79 99.02 -79 98 C-81.97065509 98.34227572 -81.97065509 98.34227572 -85 99 C-85.495 99.99 -85.495 99.99 -86 101 C-88.96175123 100.38722388 -90.38058783 99.74627478 -93 98 C-92.814375 97.236875 -92.62875 96.47375 -92.4375 95.6875 C-91.77180827 92.91032625 -91.77180827 92.91032625 -93 90 C-94.65 89.67 -96.3 89.34 -98 89 C-98 86.69 -98 84.38 -98 82 C-96.35 82 -94.7 82 -93 82 C-92.20046862 78.71303767 -91.90341064 77.28976808 -93 74 C-91.02 72.68 -89.04 71.36 -87 70 C-86.34 71.32 -85.68 72.64 -85 74 C-83.68 74 -82.36 74 -81 74 C-81 71.03 -81 68.06 -81 65 C-87.27 65 -93.54 65 -100 65 C-100 64.34 -100 63.68 -100 63 C-97.03 62.505 -97.03 62.505 -94 62 C-94 61.01 -94 60.02 -94 59 C-95.98 59 -97.96 59 -100 59 C-100 58.34 -100 57.68 -100 57 C-98.02 57 -96.04 57 -94 57 C-94 55.68 -94 54.36 -94 53 C-95.98 53 -97.96 53 -100 53 C-100 52.34 -100 51.68 -100 51 C-98.02 51 -96.04 51 -94 51 C-94 49.68 -94 48.36 -94 47 C-95.98 47 -97.96 47 -100 47 C-100 46.34 -100 45.68 -100 45 C-98.02 45 -96.04 45 -94 45 C-94 44.01 -94 43.02 -94 42 C-95.98 41.67 -97.96 41.34 -100 41 C-100 40.67 -100 40.34 -100 40 C-93.73 40 -87.46 40 -81 40 C-81 38.35 -81 36.7 -81 35 C-87.27 35 -93.54 35 -100 35 C-100 34.67 -100 34.34 -100 34 C-97.525 33.505 -97.525 33.505 -95 33 C-94.67 31.68 -94.34 30.36 -94 29 C-95.98 29 -97.96 29 -100 29 C-100 28.67 -100 28.34 -100 28 C-98.35 27.67 -96.7 27.34 -95 27 C-94.67 25.68 -94.34 24.36 -94 23 C-95.98 23 -97.96 23 -100 23 C-100 22.67 -100 22.34 -100 22 C-98.35 21.67 -96.7 21.34 -95 21 C-94.67 19.68 -94.34 18.36 -94 17 C-95.98 17 -97.96 17 -100 17 C-100 16.67 -100 16.34 -100 16 C-94.11060037 13.95887931 -88.8280285 13.72721958 -82.625 13.8125 C-81.25408203 13.8134668 -81.25408203 13.8134668 -79.85546875 13.81445312 C-73.14064837 13.85935163 -73.14064837 13.85935163 -72 15 C-69.47403741 15.23653523 -66.96892793 15.42173692 -64.4375 15.5625 C-63.72658203 15.60568359 -63.01566406 15.64886719 -62.28320312 15.69335938 C-60.52238088 15.79971777 -58.7612168 15.90038846 -57 16 C-57 16.33 -57 16.66 -57 17 C-62.28 17 -67.56 17 -73 17 C-72.67 18.32 -72.34 19.64 -72 21 C-67.05 21.33 -62.1 21.66 -57 22 C-57 22.33 -57 22.66 -57 23 C-62.28 23 -67.56 23 -73 23 C-72.67 24.32 -72.34 25.64 -72 27 C-65.07633132 26.90779083 -58.15301531 26.80049313 -51.22973633 26.68261719 C-48.87367076 26.64429398 -46.517546 26.60944706 -44.16137695 26.578125 C-40.77794213 26.53254726 -37.39491592 26.47454048 -34.01171875 26.4140625 C-32.95538742 26.40251129 -31.89905609 26.39096008 -30.81071472 26.37905884 C-29.82992447 26.35918915 -28.84913422 26.33931946 -27.83862305 26.31884766 C-26.97480515 26.30552399 -26.11098724 26.29220032 -25.22099304 26.2784729 C-22.71415113 26.1321786 -22.71415113 26.1321786 -20 24 C-19.7497843 20.91634129 -19.7497843 20.91634129 -20 18 C-21.32 17.34 -22.64 16.68 -24 16 C-21.91049086 8.76708373 -21.91049086 8.76708373 -19 7 C-16.99363529 7.29259485 -14.99285937 7.62633887 -13 8 C-12.01 7.34 -11.02 6.68 -10 6 C-9.74969023 3.41619823 -9.74969023 3.41619823 -10 1 C-8.5209084 0.83266843 -7.04172444 0.66615314 -5.5625 0.5 C-4.73878906 0.4071875 -3.91507812 0.314375 -3.06640625 0.21875 C-1 0 -1 0 0 0 Z M-11 14 C-13.2084626 17.31269391 -13.80664241 19.14978851 -13.5546875 23.0625 C-12.4812192 26.81207941 -10.28696911 28.01541488 -7 30 C-4.36163023 30.1672392 -4.36163023 30.1672392 -2 30 C-1.96261719 29.01257813 -1.92523438 28.02515625 -1.88671875 27.0078125 C-1.82097656 25.72648437 -1.75523438 24.44515625 -1.6875 23.125 C-1.62949219 21.84882812 -1.57148437 20.57265625 -1.51171875 19.2578125 C-1.34285156 18.18273437 -1.17398438 17.10765625 -1 16 C-0.01 15.34 0.98 14.68 2 14 C0.01607489 11.60148679 0.01607489 11.60148679 -3.8125 11.5625 C-7.17733329 11.66669338 -8.04370031 12.02913354 -11 14 Z M-73 29 C-73 29.66 -73 30.32 -73 31 C-70.69 31 -68.38 31 -66 31 C-66 30.34 -66 29.68 -66 29 C-68.31 29 -70.62 29 -73 29 Z M20 47 C19.6366844 49.83386167 19.6431329 51.40522151 21.125 53.875 C23.92151052 55.55290631 25.93690532 54.74875648 29 54 C29.67673447 50.59679066 29.67673447 50.59679066 30 47 C28.11499729 44.68436913 28.11499729 44.68436913 25 44.75 C21.88500271 44.68436913 21.88500271 44.68436913 20 47 Z M-87.25 80.625 C-89.21985834 82.92308586 -89.21985834 82.92308586 -89.5 86 C-89.21376982 89.06575838 -89.21376982 89.06575838 -87.3125 91.375 C-84.61209763 93.27258004 -83.22939919 93.35882213 -80 93 C-79.85024761 85.94348748 -79.85024761 85.94348748 -81 79 C-84.92212225 78.60967296 -84.92212225 78.60967296 -87.25 80.625 Z M-72 95 C-72.33 96.65 -72.66 98.3 -73 100 C-60.13 99.01 -60.13 99.01 -47 98 C-46.67 97.01 -46.34 96.02 -46 95 C-54.58 95 -63.16 95 -72 95 Z M-22 95 C-22 95.99 -22 96.98 -22 98 C-16.72 98.33 -11.44 98.66 -6 99 C-6 97.68 -6 96.36 -6 95 C-11.28 95 -16.56 95 -22 95 Z " fill="#5D51FC" transform="translate(107,18)"/>
<path d="M0 0 C2.31 0 4.62 0 7 0 C7 2.97 7 5.94 7 9 C10.3 9 13.6 9 17 9 C17 15.6 17 22.2 17 29 C12.71 29 8.42 29 4 29 C4 29.66 4 30.32 4 31 C12.79133718 32.42426407 12.79133718 32.42426407 29 32 C29 45.2 29 58.4 29 72 C31.31 72.66 33.62 73.32 36 74 C35 76 35 76 33.34521484 76.61450195 C28.49200924 77.41225457 23.54404055 77.18590312 18.63769531 77.18530273 C16.63863013 77.18748512 14.63960468 77.20599143 12.640625 77.22460938 C11.36960937 77.22654297 10.09859375 77.22847656 8.7890625 77.23046875 C7.63100098 77.23457764 6.47293945 77.23868652 5.27978516 77.24291992 C1.88689046 76.99162245 -0.83332989 76.21173908 -4 75 C-3.67 74.34 -3.34 73.68 -3 73 C-0.4375 72.375 -0.4375 72.375 2 72 C1.32142944 71.99191315 0.64285889 71.98382629 -0.05627441 71.97549438 C-7.19572947 71.88863335 -14.33493245 71.7891071 -21.47412109 71.68261719 C-24.12938188 71.64363425 -26.7845665 71.60971702 -29.43994141 71.578125 C-67.93926359 71.11445232 -67.93926359 71.11445232 -75 67 C-74.505 66.01 -74.505 66.01 -74 65 C-72.68 65 -71.36 65 -70 65 C-70 64.01 -70 63.02 -70 62 C-72.97065509 62.34227572 -72.97065509 62.34227572 -76 63 C-76.495 63.99 -76.495 63.99 -77 65 C-79.96175123 64.38722388 -81.38058783 63.74627478 -84 62 C-83.814375 61.236875 -83.62875 60.47375 -83.4375 59.6875 C-82.77180827 56.91032625 -82.77180827 56.91032625 -84 54 C-85.65 53.67 -87.3 53.34 -89 53 C-89 50.69 -89 48.38 -89 46 C-87.35 46 -85.7 46 -84 46 C-83.20046862 42.71303767 -82.90341064 41.28976808 -84 38 C-82.02 36.68 -80.04 35.36 -78 34 C-77.34 35.32 -76.68 36.64 -76 38 C-74.68 38 -73.36 38 -72 38 C-72 39.65 -72 41.3 -72 43 C-72.969375 43.28875 -73.93875 43.5775 -74.9375 43.875 C-78.10664203 44.64214682 -78.10664203 44.64214682 -79 47 C-79.14375422 50.37822416 -79.07536348 52.77390955 -78 56 C-75.69 56.33 -73.38 56.66 -71 57 C-71 54.03 -71 51.06 -71 48 C-69.02 48 -67.04 48 -65 48 C-64.67 48.66 -64.34 49.32 -64 50 C-55.75 50 -47.5 50 -39 50 C-38.505 49.01 -38.505 49.01 -38 48 C-24.47 48 -10.94 48 3 48 C3 46.35 3 44.7 3 43 C-5.58 43 -14.16 43 -23 43 C-22.34 41.68 -21.68 40.36 -21 39 C-20.34 39 -19.68 39 -19 39 C-19 38.34 -19 37.68 -19 37 C-18.01 37 -17.02 37 -16 37 C-16.99 35.68 -17.98 34.36 -19 33 C-18.236875 32.731875 -17.47375 32.46375 -16.6875 32.1875 C-14.12619116 31.05575888 -12.80307062 30.08776599 -11 28 C-11.495 27.01 -11.495 27.01 -12 26 C-8.37 25.67 -4.74 25.34 -1 25 C-0.67 16.75 -0.34 8.5 0 0 Z M-63 59 C-63.33 60.65 -63.66 62.3 -64 64 C-51.13 63.01 -51.13 63.01 -38 62 C-37.67 61.01 -37.34 60.02 -37 59 C-45.58 59 -54.16 59 -63 59 Z M-13 59 C-13 59.99 -13 60.98 -13 62 C-7.72 62.33 -2.44 62.66 3 63 C3 61.68 3 60.36 3 59 C-2.28 59 -7.56 59 -13 59 Z " fill="#5E4DF0" transform="translate(98,54)"/>
<path d="M0 0 C0.66 1.32 1.32 2.64 2 4 C3.32 4 4.64 4 6 4 C6 5.65 6 7.3 6 9 C5.030625 9.28875 4.06125 9.5775 3.0625 9.875 C-0.10664203 10.64214682 -0.10664203 10.64214682 -1 13 C-1.14375422 16.37822416 -1.07536348 18.77390955 0 22 C2.31 22.33 4.62 22.66 7 23 C7 20.03 7 17.06 7 14 C8.98 14 10.96 14 13 14 C13.33 14.66 13.66 15.32 14 16 C22.25 16 30.5 16 39 16 C39.33 15.34 39.66 14.68 40 14 C53.53 14 67.06 14 81 14 C81 17.63 81 21.26 81 25 C75.72 25 70.44 25 65 25 C65 25.99 65 26.98 65 28 C65.56847656 27.98839844 66.13695313 27.97679688 66.72265625 27.96484375 C71.60670484 27.90776806 76.18503965 28.18043228 81 29 C81 31.64 81 34.28 81 37 C73.71409984 37.04682155 66.42823335 37.08211748 59.14221191 37.10362434 C55.75718789 37.11395864 52.37226851 37.12792229 48.98730469 37.15087891 C10.5625541 37.39227608 10.5625541 37.39227608 3 33 C3.33 32.34 3.66 31.68 4 31 C5.32 31 6.64 31 8 31 C8 30.01 8 29.02 8 28 C5.02934491 28.34227572 5.02934491 28.34227572 2 29 C1.67 29.66 1.34 30.32 1 31 C-1.96175123 30.38722388 -3.38058783 29.74627478 -6 28 C-5.7215625 26.8553125 -5.7215625 26.8553125 -5.4375 25.6875 C-4.77180827 22.91032625 -4.77180827 22.91032625 -6 20 C-7.65 19.67 -9.3 19.34 -11 19 C-11 16.69 -11 14.38 -11 12 C-9.35 12 -7.7 12 -6 12 C-5.20046862 8.71303767 -4.90341064 7.28976808 -6 4 C-4.02 2.68 -2.04 1.36 0 0 Z M15 25 C14.67 26.65 14.34 28.3 14 30 C26.87 29.01 26.87 29.01 40 28 C40.33 27.01 40.66 26.02 41 25 C32.42 25 23.84 25 15 25 Z " fill="#B6D2FE" transform="translate(20,88)"/>
<path d="M0 0 C16.83 0 33.66 0 51 0 C51 9.9 51 19.8 51 30 C34.83 30.33 18.66 30.66 2 31 C1.67 31.66 1.34 32.32 1 33 C-0.32 32.67 -1.64 32.34 -3 32 C-3 23.75 -3 15.5 -3 7 C-6.63 7 -10.26 7 -14 7 C-14 8.65 -14 10.3 -14 12 C-15.32 12 -16.64 12 -18 12 C-18 10.02 -18 8.04 -18 6 C-14.535 5.505 -14.535 5.505 -11 5 C-10.67 4.01 -10.34 3.02 -10 2 C-6.7 2 -3.4 2 0 2 C0 1.34 0 0.68 0 0 Z " fill="#464D93" transform="translate(44,47)"/>
<path d="M0 0 C0.33 1.98 0.66 3.96 1 6 C5.12148343 7.82660197 5.12148343 7.82660197 9.375 7.125 C9.91125 6.75375 10.4475 6.3825 11 6 C15 11.625 15 11.625 15 15 C16.28197266 14.98259766 16.28197266 14.98259766 17.58984375 14.96484375 C18.69457031 14.95582031 19.79929688 14.94679688 20.9375 14.9375 C22.03964844 14.92589844 23.14179688 14.91429687 24.27734375 14.90234375 C27 15 27 15 28 16 C28.15806531 17.92478813 28.251135 19.8549921 28.31640625 21.78515625 C28.35830078 22.95498047 28.40019531 24.12480469 28.44335938 25.33007812 C28.48267578 26.56177734 28.52199219 27.79347656 28.5625 29.0625 C28.60568359 30.29806641 28.64886719 31.53363281 28.69335938 32.80664062 C28.79984198 35.87097335 28.90185424 38.93539073 29 42 C30.98 41.505 30.98 41.505 33 41 C33.99 42.65 34.98 44.3 36 46 C35.34 46.66 34.68 47.32 34 48 C34.350625 48.928125 34.70125 49.85625 35.0625 50.8125 C36 54 36 54 35 57 C33.35 57 31.7 57 30 57 C29.67 58.32 29.34 59.64 29 61 C27.02 61 25.04 61 23 61 C23 60.01 23 59.02 23 58 C20.69 58 18.38 58 16 58 C15.34 56.68 14.68 55.36 14 54 C14.66 53.01 15.32 52.02 16 51 C16 50.01 16 49.02 16 48 C15.34 48 14.68 48 14 48 C14 47.01 14 46.02 14 45 C13.34 45 12.68 45 12 45 C11.690625 44.21625 11.38125 43.4325 11.0625 42.625 C10.07124962 40.07669872 10.07124962 40.07669872 9 38 C9.66 38 10.32 38 11 38 C10.34 36.02 9.68 34.04 9 32 C3.06 31.67 -2.88 31.34 -9 31 C-9 30.34 -9 29.68 -9 29 C-6.69 29.33 -4.38 29.66 -2 30 C-2.05220703 28.51886719 -2.05220703 28.51886719 -2.10546875 27.0078125 C-2.13253906 25.72648437 -2.15960938 24.44515625 -2.1875 23.125 C-2.23970703 21.21074219 -2.23970703 21.21074219 -2.29296875 19.2578125 C-2.19628906 18.18273437 -2.09960938 17.10765625 -2 16 C-1.01 15.34 -0.02 14.68 1 14 C-0.21589984 12.56844101 -0.21589984 12.56844101 -3.8125 12.6875 C-6.78617685 12.74622611 -7.87751147 12.92650688 -10.5 14.5 C-12.71177972 18.18629954 -12.34421275 20.73176192 -12 25 C-11.67 25.66 -11.34 26.32 -11 27 C-14.96 27 -18.92 27 -23 27 C-22.01 26.01 -21.02 25.02 -20 24 C-19.74951364 20.87450983 -19.74951364 20.87450983 -20 18 C-21.32 17.34 -22.64 16.68 -24 16 C-21.91049086 8.76708373 -21.91049086 8.76708373 -19 7 C-16.99363529 7.29259485 -14.99285937 7.62633887 -13 8 C-12.01 7.34 -11.02 6.68 -10 6 C-9.74969023 3.41619823 -9.74969023 3.41619823 -10 1 C-8.5209084 0.83266843 -7.04172444 0.66615314 -5.5625 0.5 C-4.73878906 0.4071875 -3.91507813 0.314375 -3.06640625 0.21875 C-1 0 -1 0 0 0 Z M20 47 C19.6366844 49.83386167 19.6431329 51.40522151 21.125 53.875 C23.92151052 55.55290631 25.93690532 54.74875648 29 54 C29.67673447 50.59679066 29.67673447 50.59679066 30 47 C28.11499729 44.68436913 28.11499729 44.68436913 25 44.75 C21.88500271 44.68436913 21.88500271 44.68436913 20 47 Z " fill="#3CD0D9" transform="translate(107,18)"/>
<path d="M0 0 C1.37091797 0.0009668 1.37091797 0.0009668 2.76953125 0.00195312 C9.48435163 0.04685163 9.48435163 0.04685163 10.625 1.1875 C13.15096259 1.42403523 15.65607207 1.60923692 18.1875 1.75 C18.89841797 1.79318359 19.60933594 1.83636719 20.34179688 1.88085938 C22.10261912 1.98721777 23.8637832 2.08788846 25.625 2.1875 C25.625 2.5175 25.625 2.8475 25.625 3.1875 C20.345 3.1875 15.065 3.1875 9.625 3.1875 C9.955 4.5075 10.285 5.8275 10.625 7.1875 C15.575 7.5175 20.525 7.8475 25.625 8.1875 C25.625 8.5175 25.625 8.8475 25.625 9.1875 C20.345 9.1875 15.065 9.1875 9.625 9.1875 C9.955 10.5075 10.285 11.8275 10.625 13.1875 C31.085 13.1875 51.545 13.1875 72.625 13.1875 C73.12 15.1675 73.12 15.1675 73.625 17.1875 C74.90117188 17.16429688 76.17734375 17.14109375 77.4921875 17.1171875 C79.1614525 17.09843171 80.8307238 17.08023131 82.5 17.0625 C83.34175781 17.04574219 84.18351562 17.02898438 85.05078125 17.01171875 C86.25927734 17.00205078 86.25927734 17.00205078 87.4921875 16.9921875 C88.23581543 16.98171387 88.97944336 16.97124023 89.74560547 16.96044922 C91.625 17.1875 91.625 17.1875 93.625 19.1875 C93.75 21.6875 93.75 21.6875 93.625 24.1875 C93.625 24.8475 93.625 25.5075 93.625 26.1875 C93.955 26.5175 94.285 26.8475 94.625 27.1875 C94.71226223 28.96821246 94.73199041 30.7523314 94.72265625 32.53515625 C94.71782227 34.15454102 94.71782227 34.15454102 94.71289062 35.80664062 C94.70032227 37.51110352 94.70032227 37.51110352 94.6875 39.25 C94.68298828 40.39017578 94.67847656 41.53035156 94.67382812 42.70507812 C94.66199747 45.53260351 94.6455141 48.3600264 94.625 51.1875 C96.935 51.1875 99.245 51.1875 101.625 51.1875 C101.955 52.1775 102.285 53.1675 102.625 54.1875 C93.81539858 55.49262614 85.43460142 55.49262614 76.625 54.1875 C76.955 53.1975 77.285 52.2075 77.625 51.1875 C81.915 51.1875 86.205 51.1875 90.625 51.1875 C90.625 44.5875 90.625 37.9875 90.625 31.1875 C87.325 31.1875 84.025 31.1875 80.625 31.1875 C80.625 28.2175 80.625 25.2475 80.625 22.1875 C78.315 22.1875 76.005 22.1875 73.625 22.1875 C73.63023682 22.9395874 73.63547363 23.6916748 73.64086914 24.46655273 C73.66157227 27.85269342 73.67463877 31.23882084 73.6875 34.625 C73.69587891 35.80900391 73.70425781 36.99300781 73.71289062 38.21289062 C73.71611328 39.33759766 73.71933594 40.46230469 73.72265625 41.62109375 C73.72789307 42.66322021 73.73312988 43.70534668 73.73852539 44.77905273 C73.625 47.1875 73.625 47.1875 72.625 48.1875 C70.99825222 48.28090434 69.36745949 48.30495171 67.73803711 48.30102539 C66.69703354 48.30094986 65.65602997 48.30087433 64.58348083 48.30079651 C63.4512056 48.29563522 62.31893036 48.29047394 61.15234375 48.28515625 C59.42317467 48.28303383 59.42317467 48.28303383 57.65907288 48.28086853 C53.96018936 48.27525005 50.26136536 48.26269442 46.5625 48.25 C44.06184983 48.24498738 41.56119871 48.24042406 39.06054688 48.23632812 C32.91534412 48.22527462 26.77017631 48.20851852 20.625 48.1875 C20.955 47.1975 21.285 46.2075 21.625 45.1875 C37.795 45.1875 53.965 45.1875 70.625 45.1875 C70.625 35.2875 70.625 25.3875 70.625 15.1875 C53.795 15.1875 36.965 15.1875 19.625 15.1875 C19.625 15.8475 19.625 16.5075 19.625 17.1875 C18.635 17.1875 17.645 17.1875 16.625 17.1875 C16.625 16.5275 16.625 15.8675 16.625 15.1875 C14.315 15.1875 12.005 15.1875 9.625 15.1875 C9.645625 15.991875 9.66625 16.79625 9.6875 17.625 C9.625 20.1875 9.625 20.1875 8.625 21.1875 C6.69832493 21.27498207 4.76848139 21.29447334 2.83984375 21.28515625 C1.67001953 21.28193359 0.50019531 21.27871094 -0.70507812 21.27539062 C-2.55262695 21.26282227 -2.55262695 21.26282227 -4.4375 21.25 C-6.29084961 21.24323242 -6.29084961 21.24323242 -8.18164062 21.23632812 C-11.24614117 21.22449608 -14.31054721 21.20801173 -17.375 21.1875 C-17.375 20.8575 -17.375 20.5275 -17.375 20.1875 C-15.725 19.8575 -14.075 19.5275 -12.375 19.1875 C-12.045 17.8675 -11.715 16.5475 -11.375 15.1875 C-13.355 15.1875 -15.335 15.1875 -17.375 15.1875 C-17.375 14.8575 -17.375 14.5275 -17.375 14.1875 C-15.725 13.8575 -14.075 13.5275 -12.375 13.1875 C-12.045 11.8675 -11.715 10.5475 -11.375 9.1875 C-13.355 9.1875 -15.335 9.1875 -17.375 9.1875 C-17.375 8.8575 -17.375 8.5275 -17.375 8.1875 C-15.725 7.8575 -14.075 7.5275 -12.375 7.1875 C-12.045 5.8675 -11.715 4.5475 -11.375 3.1875 C-13.355 3.1875 -15.335 3.1875 -17.375 3.1875 C-17.375 2.8575 -17.375 2.5275 -17.375 2.1875 C-11.48560037 0.14637931 -6.2030285 -0.08528042 0 0 Z " fill="#36D4C8" transform="translate(24.375,31.8125)"/>
<path d="M0 0 C0.66 1.32 1.32 2.64 2 4 C3.32 4 4.64 4 6 4 C6 5.65 6 7.3 6 9 C5.030625 9.28875 4.06125 9.5775 3.0625 9.875 C-0.10664203 10.64214682 -0.10664203 10.64214682 -1 13 C-1.14375422 16.37822416 -1.07536348 18.77390955 0 22 C1.134375 22.144375 2.26875 22.28875 3.4375 22.4375 C7 23 7 23 8 24 C10.32817964 24.36760731 12.6618385 24.70241581 15 25 C16 28 16 28 16 29 C23.92 28.67 31.84 28.34 40 28 C39.67 28.66 39.34 29.32 39 30 C36.35139573 30.59355614 33.70802678 30.74209269 31 31 C31 31.66 31 32.32 31 33 C45.19 33 59.38 33 74 33 C73.67 32.34 73.34 31.68 73 31 C71.845 30.835 70.69 30.67 69.5 30.5 C68.345 30.335 67.19 30.17 66 30 C65.505 29.01 65.505 29.01 65 28 C70.45769811 27.88861841 75.61509359 28.08342019 81 29 C81 31.64 81 34.28 81 37 C73.71409984 37.04682155 66.42823335 37.08211748 59.14221191 37.10362434 C55.75718789 37.11395864 52.37226851 37.12792229 48.98730469 37.15087891 C10.5625541 37.39227608 10.5625541 37.39227608 3 33 C3.33 32.34 3.66 31.68 4 31 C5.32 31 6.64 31 8 31 C8 30.01 8 29.02 8 28 C5.02934491 28.34227572 5.02934491 28.34227572 2 29 C1.67 29.66 1.34 30.32 1 31 C-1.96175123 30.38722388 -3.38058783 29.74627478 -6 28 C-5.7215625 26.8553125 -5.7215625 26.8553125 -5.4375 25.6875 C-4.77180827 22.91032625 -4.77180827 22.91032625 -6 20 C-7.65 19.67 -9.3 19.34 -11 19 C-11 16.69 -11 14.38 -11 12 C-9.35 12 -7.7 12 -6 12 C-5.20046862 8.71303767 -4.90341064 7.28976808 -6 4 C-4.02 2.68 -2.04 1.36 0 0 Z " fill="#EAEBF2" transform="translate(20,88)"/>
<path d="M0 0 C2.31 0 4.62 0 7 0 C7 2.97 7 5.94 7 9 C10.3 9 13.6 9 17 9 C17 15.6 17 22.2 17 29 C12.71 29 8.42 29 4 29 C3.67 33.62 3.34 38.24 3 43 C-5.58 43 -14.16 43 -23 43 C-22.34 41.68 -21.68 40.36 -21 39 C-20.34 39 -19.68 39 -19 39 C-19 38.34 -19 37.68 -19 37 C-18.01 37 -17.02 37 -16 37 C-16.99 35.68 -17.98 34.36 -19 33 C-18.236875 32.731875 -17.47375 32.46375 -16.6875 32.1875 C-14.12619116 31.05575888 -12.80307062 30.08776599 -11 28 C-11.33 27.34 -11.66 26.68 -12 26 C-8.37 25.67 -4.74 25.34 -1 25 C-0.67 16.75 -0.34 8.5 0 0 Z " fill="#7286FD" transform="translate(98,54)"/>
<path d="M0 0 C4.94790177 -0.0493651 9.89566083 -0.08570269 14.84375 -0.10986328 C16.52769466 -0.11993317 18.21162179 -0.13358988 19.89550781 -0.15087891 C22.31319501 -0.17508426 24.73065143 -0.18647296 27.1484375 -0.1953125 C27.9036972 -0.20563507 28.65895691 -0.21595764 29.43710327 -0.22659302 C31.2929398 -0.22699318 33.1481928 -0.12222716 35 0 C35.66 0.66 36.32 1.32 37 2 C36.01 2.33 35.02 2.66 34 3 C33.67 3.99 33.34 4.98 33 6 C32.01 6.66 31.02 7.32 30 8 C30.33 8.99 30.66 9.98 31 11 C30.01 11 29.02 11 28 11 C28 11.66 28 12.32 28 13 C27.34 13 26.68 13 26 13 C25.67 13.99 25.34 14.98 25 16 C33.25 16.33 41.5 16.66 50 17 C50 18.65 50 20.3 50 22 C36.47 22 22.94 22 9 22 C8.67 16.72 8.34 11.44 8 6 C8.99 5.67 9.98 5.34 11 5 C11.33 5.33 11.66 5.66 12 6 C12.99 5.34 13.98 4.68 15 4 C15 3.01 15 2.02 15 1 C14.33613281 1.08378906 13.67226562 1.16757813 12.98828125 1.25390625 C4.21792619 2.26537786 4.21792619 2.26537786 0 1 C0 0.67 0 0.34 0 0 Z " fill="#6B74FD" transform="translate(51,80)"/>
<path d="M0 0 C8.25 0 16.5 0 25 0 C25 12.54 25 25.08 25 38 C16.75 38 8.5 38 0 38 C-0.125 25.25 -0.125 25.25 1 23 C1.66 23 2.32 23 3 23 C3.33 24.32 3.66 25.64 4 27 C9.28 27 14.56 27 20 27 C20.33 21.39 20.66 15.78 21 10 C15.72 10 10.44 10 5 10 C5 9.34 5 8.68 5 8 C6.64333504 6.96210419 8.31243867 5.96432076 10 5 C10.66 4.34 11.32 3.68 12 3 C10.35 3 8.7 3 7 3 C7 3.66 7 4.32 7 5 C2.68181818 9.65909091 2.68181818 9.65909091 0 11 C0 7.37 0 3.74 0 0 Z " fill="#7286FE" transform="translate(102,86)"/>
<path d="M0 0 C1.64574566 -0.02688151 3.29161413 -0.04634123 4.9375 -0.0625 C5.85402344 -0.07410156 6.77054688 -0.08570313 7.71484375 -0.09765625 C10 0 10 0 11 1 C11.15806531 2.92478813 11.251135 4.8549921 11.31640625 6.78515625 C11.35830078 7.95498047 11.40019531 9.12480469 11.44335938 10.33007812 C11.48267578 11.56177734 11.52199219 12.79347656 11.5625 14.0625 C11.60568359 15.29806641 11.64886719 16.53363281 11.69335938 17.80664062 C11.79984198 20.87097335 11.90185424 23.93539073 12 27 C13.32 26.67 14.64 26.34 16 26 C16.99 27.65 17.98 29.3 19 31 C18.34 31.66 17.68 32.32 17 33 C17.350625 33.928125 17.70125 34.85625 18.0625 35.8125 C19 39 19 39 18 42 C16.35 42 14.7 42 13 42 C12.67 43.32 12.34 44.64 12 46 C10.02 46 8.04 46 6 46 C6 45.01 6 44.02 6 43 C3.69 43 1.38 43 -1 43 C-1.66 41.68 -2.32 40.36 -3 39 C-2.34 38.01 -1.68 37.02 -1 36 C-1 35.01 -1 34.02 -1 33 C-1.66 33 -2.32 33 -3 33 C-3 32.01 -3 31.02 -3 30 C-3.66 30 -4.32 30 -5 30 C-5 29.01 -5 28.02 -5 27 C-3 25.3125 -3 25.3125 -1 24 C-1.66 23.67 -2.32 23.34 -3 23 C-3.44921875 21.1875 -3.44921875 21.1875 -3.6875 19 C-3.77386719 18.278125 -3.86023438 17.55625 -3.94921875 16.8125 C-3.96597656 16.214375 -3.98273438 15.61625 -4 15 C-3 14 -3 14 -0.93359375 13.90234375 C0.30197266 13.91974609 0.30197266 13.91974609 1.5625 13.9375 C2.38878906 13.94652344 3.21507813 13.95554687 4.06640625 13.96484375 C4.70449219 13.97644531 5.34257812 13.98804688 6 14 C4.64062915 11.1394109 3.35479531 9.14072301 1 7 C2.25541557 4.48916886 3.50063488 4.12874554 6 3 C3.03 2.505 3.03 2.505 0 2 C0 1.34 0 0.68 0 0 Z M3 32 C2.6366844 34.83386167 2.6431329 36.40522151 4.125 38.875 C6.92151052 40.55290631 8.93690532 39.74875648 12 39 C12.67673447 35.59679066 12.67673447 35.59679066 13 32 C11.11499729 29.68436913 11.11499729 29.68436913 8 29.75 C4.88500271 29.68436913 4.88500271 29.68436913 3 32 Z " fill="#37D9CA" transform="translate(124,33)"/>
<path d="M0 0 C1.12019531 -0.00128906 2.24039063 -0.00257812 3.39453125 -0.00390625 C4.57402344 -0.00003906 5.75351562 0.00382812 6.96875 0.0078125 C8.73798828 0.00201172 8.73798828 0.00201172 10.54296875 -0.00390625 C12.22326172 -0.00197266 12.22326172 -0.00197266 13.9375 0 C14.97326172 0.00112793 16.00902344 0.00225586 17.07617188 0.00341797 C19.46875 0.1328125 19.46875 0.1328125 20.46875 1.1328125 C20.56861975 3.97616298 20.60752881 6.78978413 20.59375 9.6328125 C20.59955078 10.82970703 20.59955078 10.82970703 20.60546875 12.05078125 C20.59535767 18.00620483 20.59535767 18.00620483 19.46875 19.1328125 C17.62715977 19.23240871 15.78178033 19.26361661 13.9375 19.265625 C12.81730469 19.26691406 11.69710937 19.26820312 10.54296875 19.26953125 C9.36347656 19.26566406 8.18398438 19.26179688 6.96875 19.2578125 C5.19951172 19.26361328 5.19951172 19.26361328 3.39453125 19.26953125 C1.71423828 19.26759766 1.71423828 19.26759766 0 19.265625 C-1.03576172 19.26449707 -2.07152344 19.26336914 -3.13867188 19.26220703 C-5.53125 19.1328125 -5.53125 19.1328125 -6.53125 18.1328125 C-6.63111975 15.28946202 -6.67002881 12.47584087 -6.65625 9.6328125 C-6.66011719 8.83488281 -6.66398437 8.03695312 -6.66796875 7.21484375 C-6.65573175 0.007248 -6.65573175 0.007248 0 0 Z " fill="#38D8C7" transform="translate(39.53125,85.8671875)"/>
<path d="M0 0 C3.0000624 -0.02721831 5.99987256 -0.04694378 9 -0.0625 C9.83917969 -0.07087891 10.67835937 -0.07925781 11.54296875 -0.08789062 C12.79013672 -0.09272461 12.79013672 -0.09272461 14.0625 -0.09765625 C15.19365234 -0.10551147 15.19365234 -0.10551147 16.34765625 -0.11352539 C19.91451913 0.03914317 23.45744034 0.55718004 27 1 C27 7.93 27 14.86 27 22 C20.07 22 13.14 22 6 22 C6 21.01 6 20.02 6 19 C4.02 19 2.04 19 0 19 C0 18.34 0 17.68 0 17 C1.98 17 3.96 17 6 17 C6 15.68 6 14.36 6 13 C4.02 13 2.04 13 0 13 C0 12.34 0 11.68 0 11 C1.98 11 3.96 11 6 11 C6 9.68 6 8.36 6 7 C4.02 7 2.04 7 0 7 C0 6.34 0 5.68 0 5 C1.98 5 3.96 5 6 5 C6 4.01 6 3.02 6 2 C3.03 1.505 3.03 1.505 0 1 C0 0.67 0 0.34 0 0 Z " fill="#3BBADC" transform="translate(7,58)"/>
<path d="M0 0 C0.33 1.98 0.66 3.96 1 6 C5.12148343 7.82660197 5.12148343 7.82660197 9.375 7.125 C9.91125 6.75375 10.4475 6.3825 11 6 C15 11.625 15 11.625 15 15 C12.87527424 15.05386629 10.75016348 15.09273071 8.625 15.125 C6.84996094 15.15980469 6.84996094 15.15980469 5.0390625 15.1953125 C2 15 2 15 0 13 C-5.54235245 12.42765564 -5.54235245 12.42765564 -10.5 14.5 C-12.71177972 18.18629954 -12.34421275 20.73176192 -12 25 C-11.67 25.66 -11.34 26.32 -11 27 C-14.96 27 -18.92 27 -23 27 C-22.01 26.01 -21.02 25.02 -20 24 C-19.74951364 20.87450983 -19.74951364 20.87450983 -20 18 C-21.32 17.34 -22.64 16.68 -24 16 C-21.91049086 8.76708373 -21.91049086 8.76708373 -19 7 C-16.99363529 7.29259485 -14.99285937 7.62633887 -13 8 C-12.01 7.34 -11.02 6.68 -10 6 C-9.74969023 3.41619823 -9.74969023 3.41619823 -10 1 C-8.5209084 0.83266843 -7.04172444 0.66615314 -5.5625 0.5 C-4.73878906 0.4071875 -3.91507813 0.314375 -3.06640625 0.21875 C-1 0 -1 0 0 0 Z " fill="#E8EBF1" transform="translate(107,18)"/>
<path d="M0 0 C2.95857409 -0.05379226 5.91617721 -0.09357093 8.875 -0.125 C9.71675781 -0.14175781 10.55851562 -0.15851562 11.42578125 -0.17578125 C12.23144531 -0.18222656 13.03710938 -0.18867187 13.8671875 -0.1953125 C14.98262939 -0.21102295 14.98262939 -0.21102295 16.12060547 -0.22705078 C18 0 18 0 20 2 C20.125 4.5 20.125 4.5 20 7 C20 7.66 20 8.32 20 9 C20.33 9.33 20.66 9.66 21 10 C21.08726223 11.78071246 21.10699041 13.5648314 21.09765625 15.34765625 C21.09443359 16.42724609 21.09121094 17.50683594 21.08789062 18.61914062 C21.07951172 19.75544922 21.07113281 20.89175781 21.0625 22.0625 C21.05798828 23.20267578 21.05347656 24.34285156 21.04882812 25.51757812 C21.03699747 28.34510351 21.0205141 31.1725264 21 34 C23.31 34 25.62 34 28 34 C28.33 34.99 28.66 35.98 29 37 C20.19039858 38.30512614 11.80960142 38.30512614 3 37 C3.33 36.01 3.66 35.02 4 34 C8.29 34 12.58 34 17 34 C17 27.4 17 20.8 17 14 C13.7 14 10.4 14 7 14 C7 11.03 7 8.06 7 5 C4.69 5 2.38 5 0 5 C0 3.35 0 1.7 0 0 Z " fill="#3AC5D7" transform="translate(98,49)"/>
<path d="M0 0 C1.58206057 0.00667536 3.16410534 0.0186375 4.74609375 0.03515625 C5.55240234 0.03966797 6.35871094 0.04417969 7.18945312 0.04882812 C9.18753131 0.06065107 11.18557158 0.07858711 13.18359375 0.09765625 C13.21043687 2.91021906 13.23035563 5.72252866 13.24609375 8.53515625 C13.25447266 9.33759766 13.26285156 10.14003906 13.27148438 10.96679688 C13.28010805 13.01060846 13.23587525 15.05449527 13.18359375 17.09765625 C11.36243372 18.91881628 8.87687611 18.23000705 6.45703125 18.234375 C5.70679687 18.23050781 4.9565625 18.22664063 4.18359375 18.22265625 C3.05824219 18.22845703 3.05824219 18.22845703 1.91015625 18.234375 C-3.68979572 18.22426678 -3.68979572 18.22426678 -4.81640625 17.09765625 C-4.91621839 14.42034245 -4.955205 11.7746145 -4.94140625 9.09765625 C-4.94527344 8.34742187 -4.94914062 7.5971875 -4.953125 6.82421875 C-4.94103514 0.12643386 -4.94103514 0.12643386 0 0 Z " fill="#DCF5F8" transform="translate(109.81640625,95.90234375)"/>
<path d="M0 0 C5.61 0 11.22 0 17 0 C17 5.28 17 10.56 17 16 C11.39 16 5.78 16 0 16 C0 10.66666667 0 5.33333333 0 0 Z " fill="#3E4C99" transform="translate(15,34)"/>
<path d="M0 0 C1.37091797 0.0009668 1.37091797 0.0009668 2.76953125 0.00195312 C9.48435163 0.04685163 9.48435163 0.04685163 10.625 1.1875 C13.15096259 1.42403523 15.65607207 1.60923692 18.1875 1.75 C18.89841797 1.79318359 19.60933594 1.83636719 20.34179688 1.88085938 C22.10261912 1.98721777 23.8637832 2.08788846 25.625 2.1875 C25.625 2.5175 25.625 2.8475 25.625 3.1875 C20.345 3.1875 15.065 3.1875 9.625 3.1875 C9.955 4.5075 10.285 5.8275 10.625 7.1875 C15.575 7.5175 20.525 7.8475 25.625 8.1875 C25.625 8.5175 25.625 8.8475 25.625 9.1875 C20.345 9.1875 15.065 9.1875 9.625 9.1875 C9.955 10.5075 10.285 11.8275 10.625 13.1875 C15.575 13.1875 20.525 13.1875 25.625 13.1875 C25.625 13.8475 25.625 14.5075 25.625 15.1875 C23.645 15.1875 21.665 15.1875 19.625 15.1875 C19.625 15.8475 19.625 16.5075 19.625 17.1875 C18.635 17.1875 17.645 17.1875 16.625 17.1875 C16.625 16.5275 16.625 15.8675 16.625 15.1875 C14.315 15.1875 12.005 15.1875 9.625 15.1875 C9.645625 15.991875 9.66625 16.79625 9.6875 17.625 C9.625 20.1875 9.625 20.1875 8.625 21.1875 C6.69832493 21.27498207 4.76848139 21.29447334 2.83984375 21.28515625 C1.67001953 21.28193359 0.50019531 21.27871094 -0.70507812 21.27539062 C-2.55262695 21.26282227 -2.55262695 21.26282227 -4.4375 21.25 C-6.29084961 21.24323242 -6.29084961 21.24323242 -8.18164062 21.23632812 C-11.24614117 21.22449608 -14.31054721 21.20801173 -17.375 21.1875 C-17.375 20.8575 -17.375 20.5275 -17.375 20.1875 C-15.725 19.8575 -14.075 19.5275 -12.375 19.1875 C-12.045 17.8675 -11.715 16.5475 -11.375 15.1875 C-13.355 15.1875 -15.335 15.1875 -17.375 15.1875 C-17.375 14.8575 -17.375 14.5275 -17.375 14.1875 C-15.725 13.8575 -14.075 13.5275 -12.375 13.1875 C-12.045 11.8675 -11.715 10.5475 -11.375 9.1875 C-13.355 9.1875 -15.335 9.1875 -17.375 9.1875 C-17.375 8.8575 -17.375 8.5275 -17.375 8.1875 C-15.725 7.8575 -14.075 7.5275 -12.375 7.1875 C-12.045 5.8675 -11.715 4.5475 -11.375 3.1875 C-13.355 3.1875 -15.335 3.1875 -17.375 3.1875 C-17.375 2.8575 -17.375 2.5275 -17.375 2.1875 C-11.48560037 0.14637931 -6.2030285 -0.08528042 0 0 Z M-9.375 2.1875 C-9.375 4.4975 -9.375 6.8075 -9.375 9.1875 C-9.375 12.1875 -9.375 15.1875 -9.375 18.1875 C-3.765 18.1875 1.845 18.1875 7.625 18.1875 C7.625 12.9075 7.625 7.6275 7.625 2.1875 C2.015 2.1875 -3.595 2.1875 -9.375 2.1875 Z " fill="#78DDDD" transform="translate(24.375,31.8125)"/>
<path d="M0 0 C3.3 0 6.6 0 10 0 C10 8.91 10 17.82 10 27 C26.83 27 43.66 27 61 27 C61 27.33 61 27.66 61 28 C44.83 28.33 28.66 28.66 12 29 C11.67 29.66 11.34 30.32 11 31 C9.68 30.67 8.36 30.34 7 30 C7 21.75 7 13.5 7 5 C3.37 5 -0.26 5 -4 5 C-4 6.65 -4 8.3 -4 10 C-5.32 10 -6.64 10 -8 10 C-8 8.02 -8 6.04 -8 4 C-4.535 3.505 -4.535 3.505 -1 3 C-0.67 2.01 -0.34 1.02 0 0 Z " fill="#3C91C5" transform="translate(34,49)"/>
<path d="M0 0 C2.08234592 0.06743348 4.16668557 0.08514472 6.25 0.0625 C7.86648437 0.04896484 7.86648437 0.04896484 9.515625 0.03515625 C10.74539062 0.01775391 10.74539062 0.01775391 12 0 C11.67 1.65 11.34 3.3 11 5 C15.95 5.33 20.9 5.66 26 6 C26 6.66 26 7.32 26 8 C11.81 8 -2.38 8 -17 8 C-17 7.34 -17 6.68 -17 6 C-15.72125 5.7525 -14.4425 5.505 -13.125 5.25 C-9.77629639 4.52883183 -9.77629639 4.52883183 -7.6875 1.9375 C-7.460625 1.298125 -7.23375 0.65875 -7 0 C-3.68605847 -1.10464718 -3.19942339 -0.82254679 0 0 Z " fill="#A2C5FE" transform="translate(68,113)"/>
<path d="M0 0 C13.53 0 27.06 0 41 0 C41 1.65 41 3.3 41 5 C27.47 5 13.94 5 0 5 C0 3.35 0 1.7 0 0 Z " fill="#3C3D89" transform="translate(60,97)"/>
<path d="M0 0 C1.98 0 3.96 0 6 0 C6.33 0.66 6.66 1.32 7 2 C12.61 2.33 18.22 2.66 24 3 C23.67 5.64 23.34 8.28 23 11 C19.35418313 11.02887512 15.70839537 11.04675585 12.0625 11.0625 C10.50112305 11.07506836 10.50112305 11.07506836 8.90820312 11.08789062 C7.91884766 11.09111328 6.92949219 11.09433594 5.91015625 11.09765625 C4.99371338 11.10289307 4.07727051 11.10812988 3.13305664 11.11352539 C1 11 1 11 0 10 C-0.07205511 8.31391034 -0.08386068 6.62499341 -0.0625 4.9375 C-0.05347656 4.01839844 -0.04445313 3.09929687 -0.03515625 2.15234375 C-0.02355469 1.44207031 -0.01195313 0.73179688 0 0 Z " fill="#C4DBFE" transform="translate(27,102)"/>
<path d="M0 0 C1.32 1.32 2.64 2.64 4 4 C3.01 5.485 3.01 5.485 2 7 C2.6288189 9.01222047 3.29618843 11.01276732 4 13 C3.67 13.99 3.34 14.98 3 16 C1.35 16 -0.3 16 -2 16 C-2.33 17.32 -2.66 18.64 -3 20 C-4.98 20 -6.96 20 -9 20 C-9 19.01 -9 18.02 -9 17 C-11.31 17 -13.62 17 -16 17 C-16.66 15.68 -17.32 14.36 -18 13 C-17.34 12.01 -16.68 11.02 -16 10 C-16 9.01 -16 8.02 -16 7 C-16.66 7 -17.32 7 -18 7 C-18 6.01 -18 5.02 -18 4 C-15.36 4 -12.72 4 -10 4 C-10.20625 5.11375 -10.4125 6.2275 -10.625 7.375 C-10.810625 9.169375 -10.810625 9.169375 -11 11 C-9.10244856 13.34973818 -9.10244856 13.34973818 -5.875 13.125 C-4.451875 13.063125 -4.451875 13.063125 -3 13 C-2.70437633 7.67829506 -2.70437633 7.67829506 -5 3 C-3 1 -3 1 0 0 Z " fill="#E9EAF1" transform="translate(139,59)"/>
<path d="M0 0 C3.63 0 7.26 0 11 0 C11.08132642 3.04221065 11.14065374 6.0822238 11.1875 9.125 C11.22520508 10.40890625 11.22520508 10.40890625 11.26367188 11.71875 C11.32398809 16.94615526 10.85261993 20.43281324 8 25 C7.01 25 6.02 25 5 25 C4.67 18.4 4.34 11.8 4 5 C2.68 5 1.36 5 0 5 C0 3.35 0 1.7 0 0 Z " fill="#5A38FF" transform="translate(30,54)"/>
<path d="M0 0 C1.32 0 2.64 0 4 0 C4 6.6 4 13.2 4 20 C6.31 20 8.62 20 11 20 C11.33 20.99 11.66 21.98 12 23 C3.19039858 24.30512614 -5.19039858 24.30512614 -14 23 C-13.505 21.515 -13.505 21.515 -13 20 C-8.71 20 -4.42 20 0 20 C0 13.4 0 6.8 0 0 Z " fill="#4C4CA1" transform="translate(115,63)"/>
<path d="M0 0 C8.25 0 16.5 0 25 0 C25 1.32 25 2.64 25 4 C23.02 4 21.04 4 19 4 C19 5.65 19 7.3 19 9 C15.84493858 9.93619813 13.03413498 10.1057123 9.75 10.0625 C8.85796875 10.05347656 7.9659375 10.04445313 7.046875 10.03515625 C6.37140625 10.02355469 5.6959375 10.01195313 5 10 C5 9.34 5 8.68 5 8 C6.64333504 6.96210419 8.31243867 5.96432076 10 5 C10.66 4.34 11.32 3.68 12 3 C10.35 3 8.7 3 7 3 C7 3.66 7 4.32 7 5 C2.68181818 9.65909091 2.68181818 9.65909091 0 11 C0 7.37 0 3.74 0 0 Z " fill="#5E4CFA" transform="translate(102,86)"/>
<path d="M0 0 C5.94 0 11.88 0 18 0 C18 0.66 18 1.32 18 2 C20.475 2.495 20.475 2.495 23 3 C23 5.64 23 8.28 23 11 C21.68 11 20.36 11 19 11 C19 11.99 19 12.98 19 14 C17.68 14 16.36 14 15 14 C14.34 13.34 13.68 12.68 13 12 C12.34 12 11.68 12 11 12 C10.45627049 8.94152152 10 6.11227195 10 3 C6.7 2.67 3.4 2.34 0 2 C0 1.34 0 0.68 0 0 Z " fill="#E5F6F9" transform="translate(7,63)"/>
<path d="M0 0 C0.99 0.33 1.98 0.66 3 1 C2.67 1.66 2.34 2.32 2 3 C3.11375 3.0928125 3.11375 3.0928125 4.25 3.1875 C7.8185739 4.24185138 8.92245228 5.99909773 11 9 C9.71034824 10.37562854 8.37310707 11.70766393 7 13 C6.34 13 5.68 13 5 13 C5 12.01 5 11.02 5 10 C2.52733235 10.34444881 2.52733235 10.34444881 0 11 C-0.33 11.66 -0.66 12.32 -1 13 C-1.66 13 -2.32 13 -3 13 C-3 12.01 -3 11.02 -3 10 C-4.32 10 -5.64 10 -7 10 C-7.33 10.99 -7.66 11.98 -8 13 C-9.32 11.35 -10.64 9.7 -12 8 C-9.04167154 5.58662678 -6.36049136 3.65963217 -2.9375 2 C-1.04750628 1.148853 -1.04750628 1.148853 0 0 Z " fill="#42B5E0" transform="translate(47,87)"/>
<path d="M0 0 C1.31871094 -0.01224609 2.63742188 -0.02449219 3.99609375 -0.03710938 C5.90068359 -0.04000977 5.90068359 -0.04000977 7.84375 -0.04296875 C9.00068359 -0.04707764 10.15761719 -0.05118652 11.34960938 -0.05541992 C14.47736509 0.18575467 16.680892 0.85423629 19.5 2.1875 C18.5 4.1875 18.5 4.1875 16.84521484 4.80200195 C11.99200924 5.59975457 7.04404055 5.37340312 2.13769531 5.37280273 C0.13863013 5.37498512 -1.86039532 5.39349143 -3.859375 5.41210938 C-5.13039063 5.41404297 -6.40140625 5.41597656 -7.7109375 5.41796875 C-8.86899902 5.42207764 -10.02706055 5.42618652 -11.22021484 5.43041992 C-14.61310954 5.17912245 -17.33332989 4.39923908 -20.5 3.1875 C-20.17 2.5275 -19.84 1.8675 -19.5 1.1875 C-13.23640183 -0.60566158 -6.45139424 0.00315317 0 0 Z " fill="#EAEBF2" transform="translate(114.5,125.8125)"/>
<path d="M0 0 C1.58206057 0.00667536 3.16410534 0.0186375 4.74609375 0.03515625 C5.55240234 0.03966797 6.35871094 0.04417969 7.18945312 0.04882812 C9.18753131 0.06065107 11.18557158 0.07858711 13.18359375 0.09765625 C13.21043687 2.91021906 13.23035563 5.72252866 13.24609375 8.53515625 C13.25447266 9.33759766 13.26285156 10.14003906 13.27148438 10.96679688 C13.28010805 13.01060846 13.23587525 15.05449527 13.18359375 17.09765625 C11.36243372 18.91881628 8.87687611 18.23000705 6.45703125 18.234375 C5.70679687 18.23050781 4.9565625 18.22664063 4.18359375 18.22265625 C3.05824219 18.22845703 3.05824219 18.22845703 1.91015625 18.234375 C-3.68979572 18.22426678 -3.68979572 18.22426678 -4.81640625 17.09765625 C-4.91621839 14.42034245 -4.955205 11.7746145 -4.94140625 9.09765625 C-4.94527344 8.34742187 -4.94914062 7.5971875 -4.953125 6.82421875 C-4.94103514 0.12643386 -4.94103514 0.12643386 0 0 Z M-1.25390625 3.72265625 C-3.31432396 6.85449117 -3.49316075 8.41310398 -2.81640625 12.09765625 C-0.83674362 15.16073256 -0.83674362 15.16073256 2.18359375 17.09765625 C5.84801291 17.17244031 7.5827426 16.52457681 10.55859375 14.41015625 C12.69777126 11.3659421 12.79176421 9.74667903 12.18359375 6.09765625 C10.74698064 3.57758781 10.74698064 3.57758781 8.18359375 2.09765625 C4.20871758 1.5298168 2.11870154 1.47425106 -1.25390625 3.72265625 Z " fill="#3CDCCB" transform="translate(109.81640625,95.90234375)"/>
<path d="M0 0 C0 5.61 0 11.22 0 17 C0.99 17 1.98 17 3 17 C3 18.65 3 20.3 3 22 C0.69 22 -1.62 22 -4 22 C-4 15.73 -4 9.46 -4 3 C-10.27 3 -16.54 3 -23 3 C-23 2.34 -23 1.68 -23 1 C-19.91675903 0.83159521 -16.83339379 0.66558138 -13.75 0.5 C-12.87730469 0.45230469 -12.00460938 0.40460938 -11.10546875 0.35546875 C-10.26113281 0.31035156 -9.41679687 0.26523438 -8.546875 0.21875 C-7.38430176 0.1559082 -7.38430176 0.1559082 -6.19824219 0.09179688 C-4.13373418 0.00558463 -2.0663073 0 0 0 Z " fill="#6F72AA" transform="translate(30,80)"/>
<path d="M0 0 C2.31 0 4.62 0 7 0 C7 2.97 7 5.94 7 9 C8.98 9 10.96 9 13 9 C12 12 12 12 10 13 C8.00039988 13.039992 5.99952758 13.04346799 4 13 C3.87625 13.61875 3.7525 14.2375 3.625 14.875 C3 17 3 17 1 19 C-0.65497356 15.69005287 -0.10084335 12.00877 -0.0625 8.375 C-0.05798828 7.57320312 -0.05347656 6.77140625 -0.04882812 5.9453125 C-0.03703168 3.96350994 -0.01909605 1.98174567 0 0 Z " fill="#6D75FE" transform="translate(98,54)"/>
<path d="M0 0 C7.26418787 -0.12524462 7.26418787 -0.12524462 10.9375 0.5 C14.97499309 1.15918254 18.91906573 1.08161869 23 1 C23.33 2.32 23.66 3.64 24 5 C22.35 5.66 20.7 6.32 19 7 C18.67 6.67 18.34 6.34 18 6 C16.36527118 5.91299658 14.72685945 5.89298937 13.08984375 5.90234375 C11.60581055 5.90717773 11.60581055 5.90717773 10.09179688 5.91210938 C8.53041992 5.92467773 8.53041992 5.92467773 6.9375 5.9375 C5.37032227 5.94426758 5.37032227 5.94426758 3.77148438 5.95117188 C1.1809334 5.96300087 -1.40950559 5.97948311 -4 6 C-4 5.34 -4 4.68 -4 4 C-1.36 3.01 1.28 2.02 4 1 C2.68 0.67 1.36 0.34 0 0 Z " fill="#645DFE" transform="translate(43,80)"/>
<path d="M0 0 C2.875 1 2.875 1 4.25 3.0625 C4.45625 3.701875 4.6625 4.34125 4.875 5 C6.525 5 8.175 5 9.875 5 C10.205 5.99 10.535 6.98 10.875 8 C3.285 8 -4.305 8 -12.125 8 C-11.795 7.01 -11.465 6.02 -11.125 5 C-10.526875 4.855625 -9.92875 4.71125 -9.3125 4.5625 C-6.9166207 4.1646438 -6.9166207 4.1646438 -5.25 1.875 C-3.125 0 -3.125 0 0 0 Z " fill="#F8FDFD" transform="translate(119.125,38)"/>
<path d="M0 0 C0.66 0 1.32 0 2 0 C2.33 1.32 2.66 2.64 3 4 C6.63 4.33 10.26 4.66 14 5 C13.01 5.495 13.01 5.495 12 6 C12 6.99 12 7.98 12 9 C11.01 9 10.02 9 9 9 C9 9.66 9 10.32 9 11 C8.34 11 7.68 11 7 11 C7 11.66 7 12.32 7 13 C6.01 13 5.02 13 4 13 C3.67 13.66 3.34 14.32 3 15 C1.68 15 0.36 15 -1 15 C-1.02693575 12.87506859 -1.04636628 10.75004088 -1.0625 8.625 C-1.07410156 7.44164063 -1.08570312 6.25828125 -1.09765625 5.0390625 C-1 2 -1 2 0 0 Z " fill="#6C73FE" transform="translate(103,109)"/>
<path d="M0 0 C7.92 0.33 15.84 0.66 24 1 C24 1.33 24 1.66 24 2 C19.545 2.495 19.545 2.495 15 3 C15 5.64 15 8.28 15 11 C15.99 11.33 16.98 11.66 18 12 C17.01 12.99 16.02 13.98 15 15 C11.125 13.25 11.125 13.25 10 11 C10.66 11 11.32 11 12 11 C11.34 9.02 10.68 7.04 10 5 C4.06 4.67 -1.88 4.34 -8 4 C-8 3.34 -8 2.68 -8 2 C-5.69 2 -3.38 2 -1 2 C-0.67 1.34 -0.34 0.68 0 0 Z " fill="#7ADBE2" transform="translate(106,45)"/>
<path d="M0 0 C2.95857409 -0.05379226 5.91617721 -0.09357093 8.875 -0.125 C9.71675781 -0.14175781 10.55851562 -0.15851562 11.42578125 -0.17578125 C12.23144531 -0.18222656 13.03710938 -0.18867187 13.8671875 -0.1953125 C14.98262939 -0.21102295 14.98262939 -0.21102295 16.12060547 -0.22705078 C18 0 18 0 20 2 C20.125 4.625 20.125 4.625 20 7 C19.01 7 18.02 7 17 7 C17 6.34 17 5.68 17 5 C11.39 5 5.78 5 0 5 C0 3.35 0 1.7 0 0 Z " fill="#34B0C5" transform="translate(98,49)"/>
<path d="M0 0 C15.51 0 31.02 0 47 0 C47.495 1.98 47.495 1.98 48 4 C47.01 4 46.02 4 45 4 C45 3.34 45 2.68 45 2 C30.15 2 15.3 2 0 2 C0 1.34 0 0.68 0 0 Z " fill="#34CFD7" transform="translate(50,45)"/>
<path d="M0 0 C1.64574566 -0.02688151 3.29161413 -0.04634123 4.9375 -0.0625 C5.85402344 -0.07410156 6.77054688 -0.08570313 7.71484375 -0.09765625 C10 0 10 0 11 1 C11.09879565 2.810285 11.12971514 4.62452727 11.125 6.4375 C11.12757813 7.42621094 11.13015625 8.41492188 11.1328125 9.43359375 C11 12 11 12 10 14 C8.68 14 7.36 14 6 14 C5.731875 13.401875 5.46375 12.80375 5.1875 12.1875 C4.01506533 10.02775192 2.80630718 8.64209744 1 7 C2.25541557 4.48916886 3.50063488 4.12874554 6 3 C3.03 2.505 3.03 2.505 0 2 C0 1.34 0 0.68 0 0 Z " fill="#34D4D0" transform="translate(124,33)"/>
<path d="M0 0 C0.66 0 1.32 0 2 0 C2 2.64 2 5.28 2 8 C4.7920301 7.8595017 7.58349796 7.71284617 10.375 7.5625 C11.1690625 7.52318359 11.963125 7.48386719 12.78125 7.44335938 C17.02601221 7.31106596 17.02601221 7.31106596 21 6 C20.67 7.65 20.34 9.3 20 11 C11.42 11 2.84 11 -6 11 C-6 10.67 -6 10.34 -6 10 C-4.35 9.67 -2.7 9.34 -1 9 C-0.67 7.68 -0.34 6.36 0 5 C-1.98 5 -3.96 5 -6 5 C-6 4.67 -6 4.34 -6 4 C-4.35 3.67 -2.7 3.34 -1 3 C-0.67 2.01 -0.34 1.02 0 0 Z " fill="#73D8E0" transform="translate(13,42)"/>
<path d="M0 0 C1.65 0 3.3 0 5 0 C5 3.3 5 6.6 5 10 C5.99 9.67 6.98 9.34 8 9 C8.33 9.99 8.66 10.98 9 12 C4.05 12 -0.9 12 -6 12 C-6 11.34 -6 10.68 -6 10 C-4.02 10 -2.04 10 0 10 C0 8.68 0 7.36 0 6 C-1.98 6 -3.96 6 -6 6 C-6 5.34 -6 4.68 -6 4 C-4.02 4 -2.04 4 0 4 C0 2.68 0 1.36 0 0 Z " fill="#74D7E3" transform="translate(13,65)"/>
<path d="M0 0 C1.58206057 0.00667536 3.16410534 0.0186375 4.74609375 0.03515625 C5.55240234 0.03966797 6.35871094 0.04417969 7.18945312 0.04882812 C9.18753131 0.06065107 11.18557158 0.07858711 13.18359375 0.09765625 C11.13286979 1.12946705 9.08418644 2.14309959 6.99609375 3.09765625 C5.01157852 3.96910194 5.01157852 3.96910194 4.18359375 6.09765625 C3.54421875 6.22140625 2.90484375 6.34515625 2.24609375 6.47265625 C-0.01491898 6.90705052 -0.01491898 6.90705052 -1.06640625 9.16015625 C-1.31390625 9.79953125 -1.56140625 10.43890625 -1.81640625 11.09765625 C-2.80640625 11.09765625 -3.79640625 11.09765625 -4.81640625 11.09765625 C-4.84328776 9.45191059 -4.86274748 7.80604212 -4.87890625 6.16015625 C-4.89050781 5.24363281 -4.90210938 4.32710938 -4.9140625 3.3828125 C-4.74806315 -0.5015722 -4.08167578 0.10444411 0 0 Z " fill="#42A9E5" transform="translate(37.81640625,85.90234375)"/>
<path d="M0 0 C4.875 0.875 4.875 0.875 6 2 C6.33 1.34 6.66 0.68 7 0 C8.32 0 9.64 0 11 0 C11 0.99 11 1.98 11 3 C11.66 3 12.32 3 13 3 C13.33 2.01 13.66 1.02 14 0 C15.65 0 17.3 0 19 0 C18.67 1.65 18.34 3.3 18 5 C12.06 5 6.12 5 0 5 C0 3.35 0 1.7 0 0 Z " fill="#36ADC6" transform="translate(33,97)"/>
<path d="M0 0 C0.33 0 0.66 0 1 0 C1 2.97 1 5.94 1 9 C-5.93 9 -12.86 9 -20 9 C-20 8.01 -20 7.02 -20 6 C-18.44539063 5.94392578 -18.44539063 5.94392578 -16.859375 5.88671875 C-15.48954816 5.82104212 -14.11975809 5.75459536 -12.75 5.6875 C-12.06808594 5.66494141 -11.38617188 5.64238281 -10.68359375 5.61914062 C-6.55771593 5.39882676 -3.96006438 4.96739127 -1 2 C-0.67 1.34 -0.34 0.68 0 0 Z " fill="#35DAC5" transform="translate(33,71)"/>
<path d="M0 0 C1.32 0 2.64 0 4 0 C4 6.6 4 13.2 4 20 C2.68 19.67 1.36 19.34 0 19 C0 12.73 0 6.46 0 0 Z " fill="#3E3E8B" transform="translate(115,63)"/>
<path d="M0 0 C6.27 0 12.54 0 19 0 C19.33 1.65 19.66 3.3 20 5 C20.66 5.66 21.32 6.32 22 7 C20.68 7 19.36 7 18 7 C18 6.34 18 5.68 18 5 C14.04 5 10.08 5 6 5 C6 4.01 6 3.02 6 2 C3.03 1.505 3.03 1.505 0 1 C0 0.67 0 0.34 0 0 Z " fill="#81D9E2" transform="translate(7,58)"/>
<path d="M0 0 C8.58 0 17.16 0 26 0 C25.67 0.99 25.34 1.98 25 3 C17.08 3 9.16 3 1 3 C0.67 2.01 0.34 1.02 0 0 Z " fill="#4C4CA0" transform="translate(101,124)"/>
<path d="M0 0 C1.98 0 3.96 0 6 0 C6 4.62 6 9.24 6 14 C5.01 14.33 4.02 14.66 3 15 C2 14 2 14 1.90234375 12.15234375 C1.93489583 10.1015625 1.96744792 8.05078125 2 6 C0.02 6 -1.96 6 -4 6 C-3.525625 5.566875 -3.05125 5.13375 -2.5625 4.6875 C-0.76313043 2.97690387 -0.76313043 2.97690387 0 0 Z " fill="#6661FE" transform="translate(121,90)"/>
<path d="M0 0 C6.15234375 -0.09765625 6.15234375 -0.09765625 8 0 C9 1 9 1 9.09765625 2.84765625 C9.04882812 5.92382812 9.04882812 5.92382812 9 9 C7.35 8.67 5.7 8.34 4 8 C3.67 7.01 3.34 6.02 3 5 C2.01 5.33 1.02 5.66 0 6 C0 5.34 0 4.68 0 4 C-0.66 4 -1.32 4 -2 4 C-1.34 2.68 -0.68 1.36 0 0 Z " fill="#3AC3D8" transform="translate(51,86)"/>
<path d="M0 0 C1.58206057 0.00667536 3.16410534 0.0186375 4.74609375 0.03515625 C5.55240234 0.03966797 6.35871094 0.04417969 7.18945312 0.04882812 C9.18753131 0.06065107 11.18557158 0.07858711 13.18359375 0.09765625 C12.85359375 1.41765625 12.52359375 2.73765625 12.18359375 4.09765625 C11.66796875 3.93265625 11.15234375 3.76765625 10.62109375 3.59765625 C6.79748361 2.81332596 2.85620984 2.11715716 -0.62890625 4.16015625 C-2.35297966 6.97311813 -3.03516695 9.9126037 -3.81640625 13.09765625 C-4.14640625 13.09765625 -4.47640625 13.09765625 -4.81640625 13.09765625 C-4.84327178 11.11856227 -4.86274 9.13936654 -4.87890625 7.16015625 C-4.89050781 6.05800781 -4.90210937 4.95585938 -4.9140625 3.8203125 C-4.76201869 -0.41866885 -4.42989555 0.11335454 0 0 Z " fill="#45C2EE" transform="translate(109.81640625,95.90234375)"/>
<path d="M0 0 C3.25 -0.3125 3.25 -0.3125 7 0 C9.4375 2.5 9.4375 2.5 11 5 C9.71034824 6.37562854 8.37310707 7.70766393 7 9 C6.34 9 5.68 9 5 9 C5 8.01 5 7.02 5 6 C2.52733235 6.34444881 2.52733235 6.34444881 0 7 C-0.33 7.66 -0.66 8.32 -1 9 C-1.66 9 -2.32 9 -3 9 C-2.01 6.03 -1.02 3.06 0 0 Z " fill="#84DAE5" transform="translate(47,91)"/>
<path d="M0 0 C0.66 0.33 1.32 0.66 2 1 C2.02688151 2.64574566 2.04634123 4.29161413 2.0625 5.9375 C2.07410156 6.85402344 2.08570313 7.77054688 2.09765625 8.71484375 C2 11 2 11 1 12 C-1.67058851 12.14115161 -4.32432238 12.04247107 -7 12 C-6.67 11.21625 -6.34 10.4325 -6 9.625 C-4.88133489 7.15667503 -4.88133489 7.15667503 -5 5 C-4.34 5 -3.68 5 -3 5 C-2.814375 4.0409375 -2.814375 4.0409375 -2.625 3.0625 C-2.41875 2.381875 -2.2125 1.70125 -2 1 C-1.34 0.67 -0.68 0.34 0 0 Z " fill="#36E0C1" transform="translate(133,51)"/>
<path d="M0 0 C1.67542976 0.28604898 3.34385343 0.61781233 5 1 C5.875 3.5625 5.875 3.5625 6 7 C4.32305393 9.65870248 2.31872993 11.88180887 0 14 C-0.33 14 -0.66 14 -1 14 C-1.02685938 11.85423363 -1.04633088 9.70837355 -1.0625 7.5625 C-1.07410156 6.36753906 -1.08570312 5.17257813 -1.09765625 3.94140625 C-1 1 -1 1 0 0 Z " fill="#32C6E1" transform="translate(106,33)"/>
<path d="M0 0 C2.31 0 4.62 0 7 0 C7 1.65 7 3.3 7 5 C3.37 5 -0.26 5 -4 5 C-4 6.65 -4 8.3 -4 10 C-5.32 10 -6.64 10 -8 10 C-8 8.02 -8 6.04 -8 4 C-4.535 3.505 -4.535 3.505 -1 3 C-0.67 2.01 -0.34 1.02 0 0 Z " fill="#3D418C" transform="translate(34,49)"/>
<path d="M0 0 C7.26 0 14.52 0 22 0 C21.67 0.66 21.34 1.32 21 2 C18.17588235 2.94137255 16.47081968 3.11725382 13.55078125 3.09765625 C12.70322266 3.09443359 11.85566406 3.09121094 10.98242188 3.08789062 C10.10134766 3.07951172 9.22027344 3.07113281 8.3125 3.0625 C7.41982422 3.05798828 6.52714844 3.05347656 5.60742188 3.04882812 C3.40488013 3.03704983 1.20247401 3.02060164 -1 3 C-0.67 2.01 -0.34 1.02 0 0 Z " fill="#39C5D7" transform="translate(46,77)"/>
<path d="M0 0 C1.24716797 0.00322266 2.49433594 0.00644531 3.77929688 0.00976562 C5.07287109 0.01814453 6.36644531 0.02652344 7.69921875 0.03515625 C9.66858398 0.04192383 9.66858398 0.04192383 11.67773438 0.04882812 C14.91410885 0.06059676 18.15039053 0.07703865 21.38671875 0.09765625 C21.05671875 0.75765625 20.72671875 1.41765625 20.38671875 2.09765625 C19.73074707 2.11747559 19.07477539 2.13729492 18.39892578 2.15771484 C15.43610806 2.25278132 12.47401343 2.36253377 9.51171875 2.47265625 C7.96291016 2.5190625 7.96291016 2.5190625 6.3828125 2.56640625 C4.90361328 2.62441406 4.90361328 2.62441406 3.39453125 2.68359375 C2.4833252 2.71501465 1.57211914 2.74643555 0.63330078 2.77880859 C-1.81259311 2.89648136 -1.81259311 2.89648136 -3.61328125 5.09765625 C-6.34197532 5.06478042 -8.90994305 4.53367854 -11.61328125 4.09765625 C-11.61328125 3.10765625 -11.61328125 2.11765625 -11.61328125 1.09765625 C-7.68039761 0.16677716 -4.03673962 -0.0184326 0 0 Z " fill="#D9D9E8" transform="translate(106.61328125,125.90234375)"/>
<path d="M0 0 C0.02687279 1.81242052 0.04633715 3.62495233 0.0625 5.4375 C0.07410156 6.44683594 0.08570312 7.45617187 0.09765625 8.49609375 C0 11 0 11 -1 12 C-2.68608966 12.07205511 -4.37500659 12.08386068 -6.0625 12.0625 C-6.98160156 12.05347656 -7.90070313 12.04445313 -8.84765625 12.03515625 C-9.55792969 12.02355469 -10.26820312 12.01195313 -11 12 C-10.34 11.01 -9.68 10.02 -9 9 C-5.875 8.8125 -5.875 8.8125 -3 9 C-3 6.36 -3 3.72 -3 1 C-1 0 -1 0 0 0 Z " fill="#37DFC2" transform="translate(98,68)"/>
<path d="M0 0 C2.31 0 4.62 0 7 0 C7 5 7 5 4.625 7.5625 C2 10 2 10 0 11 C0 7.37 0 3.74 0 0 Z " fill="#5935FF" transform="translate(102,86)"/>
<path d="M0 0 C2.64 0 5.28 0 8 0 C8 1.32 8 2.64 8 4 C6.02 4 4.04 4 2 4 C2 5.65 2 7.3 2 9 C-0.64 9.33 -3.28 9.66 -6 10 C-4.625 8 -4.625 8 -3 6 C-2.34 6 -1.68 6 -1 6 C-0.67 5.01 -0.34 4.02 0 3 C0.66 2.67 1.32 2.34 2 2 C1.34 1.34 0.68 0.68 0 0 Z " fill="#6357FE" transform="translate(119,86)"/>
<path d="M0 0 C3.63 0 7.26 0 11 0 C9.06187054 3.68244597 7.76207268 5.30099943 4 7 C3.01 8.485 3.01 8.485 2 10 C1.01 9.67 0.02 9.34 -1 9 C-0.34 9 0.32 9 1 9 C0.67 6.03 0.34 3.06 0 0 Z " fill="#71D5E4" transform="translate(110,33)"/>
<path d="M0 0 C0.5625 1.9375 0.5625 1.9375 1 4 C0 5 0 5 -1.78515625 5.1328125 C-6.94580028 5.11510875 -11.89222297 4.74294939 -17 4 C-17 3.34 -17 2.68 -17 2 C-15.85660156 1.93941406 -14.71320312 1.87882812 -13.53515625 1.81640625 C-12.04425695 1.73201572 -10.55337225 1.64736698 -9.0625 1.5625 C-8.30775391 1.52318359 -7.55300781 1.48386719 -6.77539062 1.44335938 C-3.08055813 1.55961976 -3.08055813 1.55961976 0 0 Z " fill="#36D8CD" transform="translate(33,48)"/>
<path d="M0 0 C3.0625 0.25 3.0625 0.25 6 1 C6.33 1.66 6.66 2.32 7 3 C4.8125 5.0625 4.8125 5.0625 2 7 C-0.8125 6.75 -0.8125 6.75 -3 6 C-2.42655063 3.13275314 -2.1385485 2.1385485 0 0 Z " fill="#40CDE6" transform="translate(112,99)"/>
<path d="M0 0 C0 0.33 0 0.66 0 1 C-1.98 1 -3.96 1 -6 1 C-5.73606499 4.43230448 -5.73606499 4.43230448 -5 8 C-4.01 8.66 -3.02 9.32 -2 10 C-5.125 9.47916667 -8.25 8.95833333 -11.375 8.4375 C-12.674375 8.2209375 -12.674375 8.2209375 -14 8 C-14 7.67 -14 7.34 -14 7 C-12.35 6.67 -10.7 6.34 -9 6 C-8.67 4.68 -8.34 3.36 -8 2 C-9.98 2 -11.96 2 -14 2 C-14 1.67 -14 1.34 -14 1 C-9.32798795 -0.20568053 -4.78503708 -0.09382426 0 0 Z " fill="#7BD5E7" transform="translate(21,33)"/>
<path d="M0 0 C3.3 0 6.6 0 10 0 C9 2 9 2 6.5 2.875 C5.675 3.24625 4.85 3.6175 4 4 C3.34786708 6.02463255 3.34786708 6.02463255 3 8 C2.01 8.33 1.02 8.66 0 9 C0 6.03 0 3.06 0 0 Z " fill="#3EBBDD" transform="translate(105,54)"/>
<path d="M0 0 C1.23556641 0.01740234 1.23556641 0.01740234 2.49609375 0.03515625 C3.32238281 0.04417969 4.14867187 0.05320312 5 0.0625 C5.63808594 0.07410156 6.27617188 0.08570312 6.93359375 0.09765625 C6.60359375 0.75765625 6.27359375 1.41765625 5.93359375 2.09765625 C4.72703125 2.25234375 4.72703125 2.25234375 3.49609375 2.41015625 C2.65046875 2.63703125 1.80484375 2.86390625 0.93359375 3.09765625 C-0.29930826 5.55470387 -0.29930826 5.55470387 -1.06640625 8.09765625 C-2.05640625 8.59265625 -2.05640625 8.59265625 -3.06640625 9.09765625 C-3.1640625 2.9453125 -3.1640625 2.9453125 -3.06640625 1.09765625 C-2.06640625 0.09765625 -2.06640625 0.09765625 0 0 Z " fill="#4397EA" transform="translate(36.06640625,85.90234375)"/>
<path d="M0 0 C4.29 0 8.58 0 13 0 C13 0.99 13 1.98 13 3 C9.04 3 5.08 3 1 3 C0.67 2.01 0.34 1.02 0 0 Z " fill="#4DD4D7" transform="translate(33,102)"/>
<path d="M0 0 C0.36190476 5.42857143 0.36190476 5.42857143 -1.1875 7.875 C-3.56036279 9.34781139 -5.25913944 9.22223194 -8 9 C-8 8.34 -8 7.68 -8 7 C-7.34 7 -6.68 7 -6 7 C-5.731875 6.401875 -5.46375 5.80375 -5.1875 5.1875 C-2.37142857 0 -2.37142857 0 0 0 Z " fill="#42D8D7" transform="translate(120,102)"/>
<path d="M0 0 C0.66 0 1.32 0 2 0 C2 3.3 2 6.6 2 10 C1.01 10.33 0.02 10.66 -1 11 C-2.89488952 9.10511048 -2.18019112 6.42860854 -2.23046875 3.91015625 C-2 2 -2 2 0 0 Z " fill="#6B71FE" transform="translate(125,94)"/>
<path d="M0 0 C0.99 0 1.98 0 3 0 C3 1.65 3 3.3 3 5 C3.99 5.33 4.98 5.66 6 6 C5.01 6.99 4.02 7.98 3 9 C-0.875 7.25 -0.875 7.25 -2 5 C-1.34 5 -0.68 5 0 5 C0 3.35 0 1.7 0 0 Z " fill="#E3F6F8" transform="translate(118,51)"/>
<path d="M0 0 C2.31 0 4.62 0 7 0 C7 1.65 7 3.3 7 5 C4.69 5 2.38 5 0 5 C0 3.35 0 1.7 0 0 Z " fill="#3C3E8A" transform="translate(98,49)"/>
<path d="M0 0 C0 0.99 0 1.98 0 3 C-3.96 3 -7.92 3 -12 3 C-9.42852703 -2.14294593 -4.93360395 -0.94876999 0 0 Z " fill="#7896FE" transform="translate(127,121)"/>
<path d="M0 0 C0.66 0.33 1.32 0.66 2 1 C0.38405168 3.04119788 -1.2856382 5.04072937 -3 7 C-3.66 7 -4.32 7 -5 7 C-5.33 7.66 -5.66 8.32 -6 9 C-7.5625 7.25 -7.5625 7.25 -9 5 C-8.6875 2.75 -8.6875 2.75 -8 1 C-8 1.66 -8 2.32 -8 3 C-4.28263359 3.34900558 -4.28263359 3.34900558 -1.1875 1.5 C-0.795625 1.005 -0.40375 0.51 0 0 Z " fill="#91E2EC" transform="translate(117,102)"/>
<path d="M0 0 C3.96 0 7.92 0 12 0 C12 0.99 12 1.98 12 3 C8.04 3 4.08 3 0 3 C0 2.01 0 1.02 0 0 Z " fill="#33D4CF" transform="translate(13,77)"/>
<path d="M0 0 C4.62 0 9.24 0 14 0 C14.33 1.32 14.66 2.64 15 4 C14.01 4 13.02 4 12 4 C12 3.34 12 2.68 12 2 C8.37 2 4.74 2 1 2 C0.67 1.34 0.34 0.68 0 0 Z " fill="#57DAD5" transform="translate(83,45)"/>
<path d="M0 0 C0.66 0 1.32 0 2 0 C1.8125 3.3125 1.8125 3.3125 1 7 C-1.41764576 8.92171842 -2.88467214 10 -6 10 C-6 9.01 -6 8.02 -6 7 C-4.68 7 -3.36 7 -2 7 C-2.33 5.35 -2.66 3.7 -3 2 C-2.01 2 -1.02 2 0 2 C0 1.34 0 0.68 0 0 Z " fill="#3AC9CF" transform="translate(32,67)"/>
<path d="M0 0 C0.99 0 1.98 0 3 0 C3 3.96 3 7.92 3 12 C2.01 11.67 1.02 11.34 0 11 C0 7.37 0 3.74 0 0 Z " fill="#3B95D7" transform="translate(41,49)"/>
<path d="M0 0 C1.65 0 3.3 0 5 0 C4.67 1.65 4.34 3.3 4 5 C1.36 5 -1.28 5 -4 5 C-3.67 4.34 -3.34 3.68 -3 3 C-2.34 3 -1.68 3 -1 3 C-0.67 2.01 -0.34 1.02 0 0 Z " fill="#37C2C6" transform="translate(47,97)"/>
<path d="M0 0 C5.28 0 10.56 0 16 0 C16 0.66 16 1.32 16 2 C14.02 2 12.04 2 10 2 C10 2.66 10 3.32 10 4 C9.01 4 8.02 4 7 4 C7 3.34 7 2.68 7 2 C4.69 2 2.38 2 0 2 C0 1.34 0 0.68 0 0 Z " fill="#87D7E7" transform="translate(34,45)"/>
<path d="M0 0 C0 0.66 0 1.32 0 2 C-4.95 2 -9.9 2 -15 2 C-15 1.34 -15 0.68 -15 0 C-12.87562788 -0.19448477 -10.75046809 -0.38038289 -8.625 -0.5625 C-7.44164062 -0.66691406 -6.25828125 -0.77132812 -5.0390625 -0.87890625 C-2 -1 -2 -1 0 0 Z " fill="#86DAE2" transform="translate(22,75)"/>
<path d="M0 0 C4.62 0 9.24 0 14 0 C14 0.99 14 1.98 14 3 C7.07 2.505 7.07 2.505 0 2 C0 1.34 0 0.68 0 0 Z " fill="#99DDE8" transform="translate(7,63)"/>
<path d="M0 0 C1.67542976 0.28604898 3.34385343 0.61781233 5 1 C4.67 2.32 4.34 3.64 4 5 C2.68 5.33 1.36 5.66 0 6 C-0.38218767 4.34385343 -0.71395102 2.67542976 -1 1 C-0.67 0.67 -0.34 0.34 0 0 Z " fill="#52D0DD" transform="translate(22,67)"/>
<path d="M0 0 C3.02419525 0.58803797 6.01758453 1.22678118 9 2 C9 2.66 9 3.32 9 4 C5.7 4 2.4 4 -1 4 C-0.67 2.68 -0.34 1.36 0 0 Z " fill="#31C6DF" transform="translate(14,59)"/>
<path d="M0 0 C0.61875 0.804375 1.2375 1.60875 1.875 2.4375 C3.74164041 5.03874519 3.74164041 5.03874519 6 6 C6 6.66 6 7.32 6 8 C4.02 8 2.04 8 0 8 C-0.79953138 4.71303767 -1.09658936 3.28976808 0 0 Z " fill="#3ED1E1" transform="translate(106,106)"/>
<path d="M0 0 C0.79921875 0.02707031 1.5984375 0.05414063 2.421875 0.08203125 C3.02515625 0.11683594 3.6284375 0.15164062 4.25 0.1875 C3.92 1.1775 3.59 2.1675 3.25 3.1875 C-0.71 3.1875 -4.67 3.1875 -8.75 3.1875 C-4.25 -0.1875 -4.25 -0.1875 0 0 Z " fill="#38CECE" transform="translate(72.75,76.8125)"/>
<path d="M0 0 C3.3 0 6.6 0 10 0 C10 0.66 10 1.32 10 2 C7.24921116 2.91692961 5.64051087 3.10886083 2.8125 3.0625 C0.9253125 3.0315625 0.9253125 3.0315625 -1 3 C-0.67 2.01 -0.34 1.02 0 0 Z " fill="#3CB9DC" transform="translate(46,77)"/>
<path d="M0 0 C0.66 0 1.32 0 2 0 C2.66 1.98 3.32 3.96 4 6 C3.34 6 2.68 6 2 6 C2 6.66 2 7.32 2 8 C1.01 8 0.02 8 -1 8 C-1.125 2.25 -1.125 2.25 0 0 Z " fill="#6662FE" transform="translate(103,109)"/>
<path d="M0 0 C0.66 0 1.32 0 2 0 C2 2.31 2 4.62 2 7 C0.68 7.33 -0.64 7.66 -2 8 C-2 6.33333333 -2 4.66666667 -2 3 C-1.34 3 -0.68 3 0 3 C0 2.01 0 1.02 0 0 Z " fill="#35DFC0" transform="translate(58,97)"/>
<path d="M0 0 C0.5625 1.9375 0.5625 1.9375 1 4 C0 5 0 5 -3.5625 5.0625 C-4.696875 5.041875 -5.83125 5.02125 -7 5 C-4.78065836 1.67098753 -3.65316671 1.24976756 0 0 Z " fill="#35DDC0" transform="translate(33,48)"/>
<path d="M0 0 C1.65 0.33 3.3 0.66 5 1 C3.33333333 2.66666667 1.66666667 4.33333333 0 6 C0 5.34 0 4.68 0 4 C-0.66 4 -1.32 4 -2 4 C-1.34 2.68 -0.68 1.36 0 0 Z " fill="#3DBBDC" transform="translate(51,86)"/>
<path d="M0 0 C0.66 0.66 1.32 1.32 2 2 C1.7578125 4.1640625 1.7578125 4.1640625 1.125 6.625 C0.92132813 7.44226563 0.71765625 8.25953125 0.5078125 9.1015625 C0.34023438 9.72804688 0.17265625 10.35453125 0 11 C-0.33 11 -0.66 11 -1 11 C-1.02688151 9.35425434 -1.04634123 7.70838587 -1.0625 6.0625 C-1.07410156 5.14597656 -1.08570313 4.22945312 -1.09765625 3.28515625 C-1 1 -1 1 0 0 Z " fill="#3E9BE9" transform="translate(42,59)"/>
<path d="M0 0 C1.32 0.66 2.64 1.32 4 2 C4 3.32 4 4.64 4 6 C2.35 6 0.7 6 -1 6 C-0.67 4.02 -0.34 2.04 0 0 Z " fill="#38C5C6" transform="translate(115,57)"/>
<path d="M0 0 C1.21346851 3.64040554 1.21346851 5.35959446 0 9 C-1.32 7.35 -2.64 5.7 -4 4 C-2.68 2.68 -1.36 1.36 0 0 Z " fill="#E1F2F8" transform="translate(39,91)"/>
<path d="M0 0 C1.32 0 2.64 0 4 0 C4 1.98 4 3.96 4 6 C2.68 5.34 1.36 4.68 0 4 C0 2.68 0 1.36 0 0 Z " fill="#34AEC5" transform="translate(26,59)"/>
<path d="M0 0 C0.33 0.66 0.66 1.32 1 2 C1.99 2.33 2.98 2.66 4 3 C3 4 3 4 0.49609375 4.09765625 C-1.01791016 4.08025391 -1.01791016 4.08025391 -2.5625 4.0625 C-3.57441406 4.05347656 -4.58632812 4.04445313 -5.62890625 4.03515625 C-6.41136719 4.02355469 -7.19382812 4.01195312 -8 4 C-8 3.34 -8 2.68 -8 2 C-5.69 2 -3.38 2 -1 2 C-0.67 1.34 -0.34 0.68 0 0 Z " fill="#8ECCDF" transform="translate(106,45)"/>
<path d="M0 0 C0 2.31 0 4.62 0 7 C-2.4375 6.625 -2.4375 6.625 -5 6 C-5.33 5.34 -5.66 4.68 -6 4 C-4.68 4.33 -3.36 4.66 -2 5 C-2.33 3.68 -2.66 2.36 -3 1 C-1 0 -1 0 0 0 Z " fill="#41D1D3" transform="translate(60,88)"/>
<path d="M0 0 C0.33 0.66 0.66 1.32 1 2 C1.99 2.66 2.98 3.32 4 4 C0.875 3.47916667 -2.25 2.95833333 -5.375 2.4375 C-6.24125 2.293125 -7.1075 2.14875 -8 2 C-8 1.67 -8 1.34 -8 1 C-5.23735711 0.40267181 -2.83967231 0 0 0 Z " fill="#99C8DD" transform="translate(15,39)"/>
<path d="M0 0 C2.31 0 4.62 0 7 0 C6.0409375 0.433125 6.0409375 0.433125 5.0625 0.875 C2.84793921 1.82823451 2.84793921 1.82823451 2 4 C1.01 4 0.02 4 -1 4 C-0.67 2.68 -0.34 1.36 0 0 Z " fill="#46ADF5" transform="translate(106,96)"/>
<path d="M0 0 C1.65 0.99 3.3 1.98 5 3 C3.625 5 3.625 5 2 7 C1.34 7 0.68 7 0 7 C0.2784375 6.1028125 0.2784375 6.1028125 0.5625 5.1875 C1.22093687 2.83591238 1.22093687 2.83591238 0 0 Z " fill="#E9F8F9" transform="translate(53,92)"/>
<path d="M0 0 C1.65 0 3.3 0 5 0 C4.67 1.32 4.34 2.64 4 4 C2.68 4 1.36 4 0 4 C0 2.68 0 1.36 0 0 Z " fill="#33C7DF" transform="translate(13,65)"/>
</svg>
