<?xml version="1.0" encoding="UTF-8"?>
<svg version="1.1" xmlns="http://www.w3.org/2000/svg" width="150" height="150">
<path d="M0 0 C0 1.98 0 3.96 0 6 C3.40320934 6.67673447 3.40320934 6.67673447 7 7 C7.66 6.34 8.32 5.68 9 5 C9.99 5 10.98 5 12 5 C14.25 7.25 14.25 7.25 16 10 C15.609375 12.171875 15.609375 12.171875 15 14 C15.99902344 14.06058594 16.99804688 14.12117188 18.02734375 14.18359375 C19.96287109 14.30927734 19.96287109 14.30927734 21.9375 14.4375 C23.22527344 14.51871094 24.51304687 14.59992187 25.83984375 14.68359375 C29 15 29 15 30 16 C30.08748207 17.92667507 30.10697334 19.85651861 30.09765625 21.78515625 C30.09443359 22.95498047 30.09121094 24.12480469 30.08789062 25.33007812 C30.07951172 26.56177734 30.07113281 27.79347656 30.0625 29.0625 C30.05798828 30.29806641 30.05347656 31.53363281 30.04882812 32.80664062 C30.03699608 35.87114117 30.02051173 38.93554721 30 42 C32.475 41.505 32.475 41.505 35 41 C36.0625 42.8125 36.0625 42.8125 37 45 C36.67 45.99 36.34 46.98 36 48 C37.37168238 50.19038423 37.37168238 50.19038423 39 52 C38.3125 53.9375 38.3125 53.9375 37 56 C34.375 56.75 34.375 56.75 32 57 C31.67 58.32 31.34 59.64 31 61 C29.35 61 27.7 61 26 61 C26 60.01 26 59.02 26 58 C22.535 58.495 22.535 58.495 19 59 C17.16308743 55.21812119 16.84162374 53.05431692 18 49 C17.34 49 16.68 49 16 49 C16 47.68 16 46.36 16 45 C15.34 45 14.68 45 14 45 C14 51.6 14 58.2 14 65 C16.31 65 18.62 65 21 65 C22 66 22 66 22.11352539 69.96899414 C22.1133662 71.74105607 22.10766785 73.5131226 22.09765625 75.28515625 C22.0962413 76.21597519 22.09482635 77.14679413 22.09336853 78.1058197 C22.08775172 81.09141191 22.0751964 84.07693029 22.0625 87.0625 C22.05748716 89.08137913 22.05292388 91.10025943 22.04882812 93.11914062 C22.03777683 98.07945572 22.02050095 103.03971532 22 108 C24.31 108.66 26.62 109.32 29 110 C28 112 28 112 26.34521484 112.61450195 C21.49200924 113.41225457 16.54404055 113.18590312 11.63769531 113.18530273 C9.63863013 113.18748512 7.63960468 113.20599143 5.640625 113.22460938 C4.36960937 113.22654297 3.09859375 113.22847656 1.7890625 113.23046875 C0.63100098 113.23457764 -0.52706055 113.23868652 -1.72021484 113.24291992 C-5.11310954 112.99162245 -7.83332989 112.21173908 -11 111 C-10.67 110.34 -10.34 109.68 -10 109 C-7.4375 108.375 -7.4375 108.375 -5 108 C-5.67857056 107.99191315 -6.35714111 107.98382629 -7.05627441 107.97549438 C-14.19572947 107.88863335 -21.33493245 107.7891071 -28.47412109 107.68261719 C-31.12938188 107.64363425 -33.7845665 107.60971702 -36.43994141 107.578125 C-74.93926359 107.11445232 -74.93926359 107.11445232 -82 103 C-81.67 102.34 -81.34 101.68 -81 101 C-79.68 101 -78.36 101 -77 101 C-77 100.01 -77 99.02 -77 98 C-78.98 98 -80.96 98 -83 98 C-83.33 98.99 -83.66 99.98 -84 101 C-86.35964273 100.59316505 -87.85934088 100.10185661 -89.8125 98.6875 C-90.204375 98.130625 -90.59625 97.57375 -91 97 C-90.625 95 -90.625 95 -90 93 C-90.33 92.01 -90.66 91.02 -91 90 C-92.65 90 -94.3 90 -96 90 C-96 87.36 -96 84.72 -96 82 C-94.35 82 -92.7 82 -91 82 C-90.20046862 78.71303767 -89.90341064 77.28976808 -91 74 C-89.25 72.4375 -89.25 72.4375 -87 71 C-84.75 71.3125 -84.75 71.3125 -83 72 C-83 72.66 -83 73.32 -83 74 C-81.68 74 -80.36 74 -79 74 C-79 71.03 -79 68.06 -79 65 C-85.27 65 -91.54 65 -98 65 C-98 64.34 -98 63.68 -98 63 C-95.03 62.505 -95.03 62.505 -92 62 C-92 61.01 -92 60.02 -92 59 C-93.98 59 -95.96 59 -98 59 C-98 58.34 -98 57.68 -98 57 C-96.02 57 -94.04 57 -92 57 C-92 55.68 -92 54.36 -92 53 C-93.98 53 -95.96 53 -98 53 C-98 52.34 -98 51.68 -98 51 C-96.02 51 -94.04 51 -92 51 C-92 49.68 -92 48.36 -92 47 C-93.98 47 -95.96 47 -98 47 C-98 46.34 -98 45.68 -98 45 C-96.02 45 -94.04 45 -92 45 C-92 44.01 -92 43.02 -92 42 C-93.98 41.67 -95.96 41.34 -98 41 C-98 40.67 -98 40.34 -98 40 C-91.73 40 -85.46 40 -79 40 C-79 38.35 -79 36.7 -79 35 C-85.27 35 -91.54 35 -98 35 C-98 34.67 -98 34.34 -98 34 C-95.525 33.505 -95.525 33.505 -93 33 C-92.67 31.68 -92.34 30.36 -92 29 C-93.98 29 -95.96 29 -98 29 C-98 28.67 -98 28.34 -98 28 C-96.35 27.67 -94.7 27.34 -93 27 C-92.67 25.68 -92.34 24.36 -92 23 C-93.98 23 -95.96 23 -98 23 C-98 22.67 -98 22.34 -98 22 C-96.35 21.67 -94.7 21.34 -93 21 C-92.67 19.68 -92.34 18.36 -92 17 C-93.98 17 -95.96 17 -98 17 C-98 16.67 -98 16.34 -98 16 C-92.11060037 13.95887931 -86.8280285 13.72721958 -80.625 13.8125 C-79.25408203 13.8134668 -79.25408203 13.8134668 -77.85546875 13.81445312 C-71.14064837 13.85935163 -71.14064837 13.85935163 -70 15 C-67.26298822 15.16010481 -64.5483241 15.25946828 -61.80859375 15.31640625 C-60.98875504 15.33718735 -60.16891632 15.35796844 -59.32423401 15.37937927 C-56.69541099 15.44496494 -54.06648496 15.50380126 -51.4375 15.5625 C-49.65949439 15.60567667 -47.88149935 15.64929067 -46.10351562 15.69335938 C-41.73578366 15.80065543 -37.36794773 15.90189704 -33 16 C-33 16.33 -33 16.66 -33 17 C-45.54 17 -58.08 17 -71 17 C-70.67 18.32 -70.34 19.64 -70 21 C-51.685 21.495 -51.685 21.495 -33 22 C-33 22.33 -33 22.66 -33 23 C-45.54 23 -58.08 23 -71 23 C-70.67 24.32 -70.34 25.64 -70 27 C-52.84 26.67 -35.68 26.34 -18 26 C-18 23.69 -18 21.38 -18 19 C-19.65 18.67 -21.3 18.34 -23 18 C-22.01 15.03 -21.02 12.06 -20 9 C-18.906875 9.226875 -17.81375 9.45375 -16.6875 9.6875 C-13.17383651 10.32767007 -13.17383651 10.32767007 -11.0625 8.9375 C-9.58206055 6.23787512 -9.79838001 4.02429981 -10 1 C-6.56484998 0.37542727 -3.50935186 0 0 0 Z M-9 14 C-11.2084626 17.31269391 -11.80664241 19.14978851 -11.5546875 23.0625 C-10.4812192 26.81207941 -8.28696911 28.01541488 -5 30 C-2.36163023 30.1672392 -2.36163023 30.1672392 0 30 C0.03738281 29.01257813 0.07476562 28.02515625 0.11328125 27.0078125 C0.17902344 25.72648437 0.24476562 24.44515625 0.3125 23.125 C0.37050781 21.84882812 0.42851563 20.57265625 0.48828125 19.2578125 C0.65714844 18.18273437 0.82601562 17.10765625 1 16 C1.99 15.34 2.98 14.68 4 14 C2.01607489 11.60148679 2.01607489 11.60148679 -1.8125 11.5625 C-5.17733329 11.66669338 -6.04370031 12.02913354 -9 14 Z M-71 29 C-71 29.66 -71 30.32 -71 31 C-68.69 31 -66.38 31 -64 31 C-64 30.34 -64 29.68 -64 29 C-66.31 29 -68.62 29 -71 29 Z M22 47 C21.6366844 49.83386167 21.6431329 51.40522151 23.125 53.875 C25.92151052 55.55290631 27.93690532 54.74875648 31 54 C31.67673447 50.59679066 31.67673447 50.59679066 32 47 C30.11499729 44.68436913 30.11499729 44.68436913 27 44.75 C23.88500271 44.68436913 23.88500271 44.68436913 22 47 Z M-85.25 80.625 C-87.21985834 82.92308586 -87.21985834 82.92308586 -87.5 86 C-87.21376982 89.06575838 -87.21376982 89.06575838 -85.3125 91.375 C-82.61209763 93.27258004 -81.22939919 93.35882213 -78 93 C-77.85024761 85.94348748 -77.85024761 85.94348748 -79 79 C-82.92212225 78.60967296 -82.92212225 78.60967296 -85.25 80.625 Z M-70 95 C-70.33 96.65 -70.66 98.3 -71 100 C-58.13 99.01 -58.13 99.01 -45 98 C-44.67 97.01 -44.34 96.02 -44 95 C-52.58 95 -61.16 95 -70 95 Z M-20 95 C-20 95.99 -20 96.98 -20 98 C-14.72 98.33 -9.44 98.66 -4 99 C-4 97.68 -4 96.36 -4 95 C-9.28 95 -14.56 95 -20 95 Z " fill="#5E52FD" transform="translate(105,18)"/>
<path d="M0 0 C2.31 0 4.62 0 7 0 C7 2.97 7 5.94 7 9 C10.3 9 13.6 9 17 9 C17 15.6 17 22.2 17 29 C12.71 29 8.42 29 4 29 C4 29.66 4 30.32 4 31 C12.79133718 32.42426407 12.79133718 32.42426407 29 32 C29 45.2 29 58.4 29 72 C31.31 72.66 33.62 73.32 36 74 C35 76 35 76 33.34521484 76.61450195 C28.49200924 77.41225457 23.54404055 77.18590312 18.63769531 77.18530273 C16.63863013 77.18748512 14.63960468 77.20599143 12.640625 77.22460938 C11.36960937 77.22654297 10.09859375 77.22847656 8.7890625 77.23046875 C7.63100098 77.23457764 6.47293945 77.23868652 5.27978516 77.24291992 C1.88689046 76.99162245 -0.83332989 76.21173908 -4 75 C-3.67 74.34 -3.34 73.68 -3 73 C-0.4375 72.375 -0.4375 72.375 2 72 C1.32142944 71.99191315 0.64285889 71.98382629 -0.05627441 71.97549438 C-7.19572947 71.88863335 -14.33493245 71.7891071 -21.47412109 71.68261719 C-24.12938188 71.64363425 -26.7845665 71.60971702 -29.43994141 71.578125 C-67.93926359 71.11445232 -67.93926359 71.11445232 -75 67 C-74.505 66.01 -74.505 66.01 -74 65 C-72.68 65 -71.36 65 -70 65 C-70 64.01 -70 63.02 -70 62 C-71.98 62 -73.96 62 -76 62 C-76.33 62.99 -76.66 63.98 -77 65 C-79.35964273 64.59316505 -80.85934088 64.10185661 -82.8125 62.6875 C-83.204375 62.130625 -83.59625 61.57375 -84 61 C-83.625 59 -83.625 59 -83 57 C-83.495 55.515 -83.495 55.515 -84 54 C-85.65 54 -87.3 54 -89 54 C-89 51.36 -89 48.72 -89 46 C-87.35 46 -85.7 46 -84 46 C-83.20046862 42.71303767 -82.90341064 41.28976808 -84 38 C-82.25 36.4375 -82.25 36.4375 -80 35 C-77.75 35.3125 -77.75 35.3125 -76 36 C-76 36.66 -76 37.32 -76 38 C-74.68 38 -73.36 38 -72 38 C-72 39.65 -72 41.3 -72 43 C-72.969375 43.28875 -73.93875 43.5775 -74.9375 43.875 C-78.10664203 44.64214682 -78.10664203 44.64214682 -79 47 C-79.14375422 50.37822416 -79.07536348 52.77390955 -78 56 C-75.69 56.33 -73.38 56.66 -71 57 C-71 54.03 -71 51.06 -71 48 C-69.02 48 -67.04 48 -65 48 C-64.67 48.66 -64.34 49.32 -64 50 C-55.75 50 -47.5 50 -39 50 C-38.505 49.01 -38.505 49.01 -38 48 C-24.47 48 -10.94 48 3 48 C3 46.35 3 44.7 3 43 C-4.92 43 -12.84 43 -21 43 C-21.33 42.01 -21.66 41.02 -22 40 C-21.34 39.67 -20.68 39.34 -20 39 C-20 38.01 -20 37.02 -20 36 C-19.01 35.01 -19.01 35.01 -18 34 C-17.28072705 31.68234271 -16.6090107 29.34904126 -16 27 C-15.00097656 26.93941406 -14.00195312 26.87882812 -12.97265625 26.81640625 C-11.68230469 26.73261719 -10.39195313 26.64882812 -9.0625 26.5625 C-7.77472656 26.48128906 -6.48695312 26.40007812 -5.16015625 26.31640625 C-2.13976043 26.35080812 -2.13976043 26.35080812 -1 25 C-0.84213692 23.14825294 -0.74892644 21.2909089 -0.68359375 19.43359375 C-0.64169922 18.30888672 -0.59980469 17.18417969 -0.55664062 16.02539062 C-0.51732422 14.84138672 -0.47800781 13.65738281 -0.4375 12.4375 C-0.37272461 10.65569336 -0.37272461 10.65569336 -0.30664062 8.83789062 C-0.20016454 5.89205216 -0.09815159 2.9461257 0 0 Z M-63 59 C-63.33 60.65 -63.66 62.3 -64 64 C-51.13 63.01 -51.13 63.01 -38 62 C-37.67 61.01 -37.34 60.02 -37 59 C-45.58 59 -54.16 59 -63 59 Z M-13 59 C-13 59.99 -13 60.98 -13 62 C-7.72 62.33 -2.44 62.66 3 63 C3 61.68 3 60.36 3 59 C-2.28 59 -7.56 59 -13 59 Z " fill="#7286FD" transform="translate(98,54)"/>
<path d="M0 0 C0.5775 0.226875 1.155 0.45375 1.75 0.6875 C1.75 1.3475 1.75 2.0075 1.75 2.6875 C3.07 2.6875 4.39 2.6875 5.75 2.6875 C5.75 4.3375 5.75 5.9875 5.75 7.6875 C4.780625 7.97625 3.81125 8.265 2.8125 8.5625 C-0.35664203 9.32964682 -0.35664203 9.32964682 -1.25 11.6875 C-1.39375422 15.06572416 -1.32536348 17.46140955 -0.25 20.6875 C2.06 21.0175 4.37 21.3475 6.75 21.6875 C6.75 18.7175 6.75 15.7475 6.75 12.6875 C8.73 12.6875 10.71 12.6875 12.75 12.6875 C13.08 13.3475 13.41 14.0075 13.75 14.6875 C22 14.6875 30.25 14.6875 38.75 14.6875 C39.08 14.0275 39.41 13.3675 39.75 12.6875 C53.28 12.6875 66.81 12.6875 80.75 12.6875 C80.75 16.3175 80.75 19.9475 80.75 23.6875 C75.47 23.6875 70.19 23.6875 64.75 23.6875 C64.75 24.6775 64.75 25.6675 64.75 26.6875 C65.31847656 26.67589844 65.88695313 26.66429688 66.47265625 26.65234375 C71.35670484 26.59526806 75.93503965 26.86793228 80.75 27.6875 C80.75 30.3275 80.75 32.9675 80.75 35.6875 C73.46409984 35.73432155 66.17823335 35.76961748 58.89221191 35.79112434 C55.50718789 35.80145864 52.12226851 35.81542229 48.73730469 35.83837891 C10.3125541 36.07977608 10.3125541 36.07977608 2.75 31.6875 C3.08 31.0275 3.41 30.3675 3.75 29.6875 C5.07 29.6875 6.39 29.6875 7.75 29.6875 C7.75 28.6975 7.75 27.7075 7.75 26.6875 C5.77 26.6875 3.79 26.6875 1.75 26.6875 C1.42 27.6775 1.09 28.6675 0.75 29.6875 C-1.60964273 29.28066505 -3.10934088 28.78935661 -5.0625 27.375 C-5.454375 26.818125 -5.84625 26.26125 -6.25 25.6875 C-5.875 23.6875 -5.875 23.6875 -5.25 21.6875 C-5.58 20.6975 -5.91 19.7075 -6.25 18.6875 C-7.9 18.6875 -9.55 18.6875 -11.25 18.6875 C-11.25 16.0475 -11.25 13.4075 -11.25 10.6875 C-9.6 10.6875 -7.95 10.6875 -6.25 10.6875 C-5.45046862 7.40053767 -5.15341064 5.97726808 -6.25 2.6875 C-2.80384615 -0.38942308 -2.80384615 -0.38942308 0 0 Z M14.75 23.6875 C14.42 25.3375 14.09 26.9875 13.75 28.6875 C26.62 27.6975 26.62 27.6975 39.75 26.6875 C40.08 25.6975 40.41 24.7075 40.75 23.6875 C32.17 23.6875 23.59 23.6875 14.75 23.6875 Z " fill="#ACCCFE" transform="translate(20.25,89.3125)"/>
<path d="M0 0 C16.83 0 33.66 0 51 0 C51 10.23 51 20.46 51 31 C34.17 31 17.34 31 0 31 C0 20.77 0 10.54 0 0 Z " fill="#474E93" transform="translate(44,47)"/>
<path d="M0 0 C0 1.98 0 3.96 0 6 C3.40320934 6.67673447 3.40320934 6.67673447 7 7 C7.66 6.34 8.32 5.68 9 5 C9.99 5 10.98 5 12 5 C14.25 7.25 14.25 7.25 16 10 C15.609375 12.171875 15.609375 12.171875 15 14 C15.99902344 14.06058594 16.99804688 14.12117188 18.02734375 14.18359375 C19.31769531 14.26738281 20.60804687 14.35117187 21.9375 14.4375 C23.86916016 14.55931641 23.86916016 14.55931641 25.83984375 14.68359375 C29 15 29 15 30 16 C30.08748207 17.92667507 30.10697334 19.85651861 30.09765625 21.78515625 C30.09443359 22.95498047 30.09121094 24.12480469 30.08789062 25.33007812 C30.07532227 27.17762695 30.07532227 27.17762695 30.0625 29.0625 C30.05798828 30.29806641 30.05347656 31.53363281 30.04882812 32.80664062 C30.03699608 35.87114117 30.02051173 38.93554721 30 42 C32.475 41.505 32.475 41.505 35 41 C36.0625 42.8125 36.0625 42.8125 37 45 C36.67 45.99 36.34 46.98 36 48 C37.37168238 50.19038423 37.37168238 50.19038423 39 52 C38.3125 53.9375 38.3125 53.9375 37 56 C34.375 56.75 34.375 56.75 32 57 C31.67 58.32 31.34 59.64 31 61 C29.35 61 27.7 61 26 61 C26 60.01 26 59.02 26 58 C22.535 58.495 22.535 58.495 19 59 C17.16308743 55.21812119 16.84162374 53.05431692 18 49 C17.34 49 16.68 49 16 49 C16 47.68 16 46.36 16 45 C15.34 45 14.68 45 14 45 C11 40.61538462 11 40.61538462 11 38 C11.66 38 12.32 38 13 38 C13 36.02 13 34.04 13 32 C6.4 31.67 -0.2 31.34 -7 31 C-7 30.34 -7 29.68 -7 29 C-4.69 29.33 -2.38 29.66 0 30 C-0.05220703 28.51886719 -0.05220703 28.51886719 -0.10546875 27.0078125 C-0.13253906 25.72648437 -0.15960938 24.44515625 -0.1875 23.125 C-0.23970703 21.21074219 -0.23970703 21.21074219 -0.29296875 19.2578125 C-0.19628906 18.18273437 -0.09960938 17.10765625 0 16 C0.99 15.34 1.98 14.68 3 14 C1.78410016 12.56844101 1.78410016 12.56844101 -1.8125 12.6875 C-4.78617685 12.74622611 -5.87751147 12.92650688 -8.5 14.5 C-10.71177972 18.18629954 -10.34421275 20.73176192 -10 25 C-9.67 25.66 -9.34 26.32 -9 27 C-11.97 27 -14.94 27 -18 27 C-18 24.36 -18 21.72 -18 19 C-19.65 18.67 -21.3 18.34 -23 18 C-22.01 15.03 -21.02 12.06 -20 9 C-18.906875 9.226875 -17.81375 9.45375 -16.6875 9.6875 C-13.17383651 10.32767007 -13.17383651 10.32767007 -11.0625 8.9375 C-9.58206055 6.23787512 -9.79838001 4.02429981 -10 1 C-6.56484998 0.37542727 -3.50935186 0 0 0 Z M22 47 C21.6366844 49.83386167 21.6431329 51.40522151 23.125 53.875 C25.92151052 55.55290631 27.93690532 54.74875648 31 54 C31.67673447 50.59679066 31.67673447 50.59679066 32 47 C30.11499729 44.68436913 30.11499729 44.68436913 27 44.75 C23.88500271 44.68436913 23.88500271 44.68436913 22 47 Z " fill="#35DEC3" transform="translate(105,18)"/>
<path d="M0 0 C8.25 0 16.5 0 25 0 C25.495 1.98 25.495 1.98 26 4 C27.27617188 3.98839844 28.55234375 3.97679687 29.8671875 3.96484375 C31.53645687 3.95546583 33.20572783 3.94636563 34.875 3.9375 C36.13763672 3.92493164 36.13763672 3.92493164 37.42578125 3.91210938 C38.23144531 3.90888672 39.03710938 3.90566406 39.8671875 3.90234375 C40.98262939 3.89448853 40.98262939 3.89448853 42.12060547 3.88647461 C44 4 44 4 46 5 C46 6.98 46 8.96 46 11 C45.34 11 44.68 11 44 11 C44.48895752 11.54817383 44.97791504 12.09634766 45.48168945 12.66113281 C47.32607624 15.50230107 47.34896257 17.06224588 47.29296875 20.421875 C47.28330078 21.44667969 47.27363281 22.47148438 47.26367188 23.52734375 C47.23853516 24.59082031 47.21339844 25.65429688 47.1875 26.75 C47.16719727 28.36841797 47.16719727 28.36841797 47.14648438 30.01953125 C47.11116584 32.6801942 47.06184199 35.33984296 47 38 C49.31 38 51.62 38 54 38 C54.33 38.99 54.66 39.98 55 41 C46.19039858 42.30512614 37.80960142 42.30512614 29 41 C29.33 40.01 29.66 39.02 30 38 C34.29 38 38.58 38 43 38 C43 31.4 43 24.8 43 18 C39.7 18 36.4 18 33 18 C33 15.03 33 12.06 33 9 C30.69 9 28.38 9 26 9 C26.01571045 10.12027588 26.01571045 10.12027588 26.03173828 11.26318359 C26.0732077 14.63375508 26.09929729 18.004273 26.125 21.375 C26.14175781 22.550625 26.15851563 23.72625 26.17578125 24.9375 C26.18544922 26.61972656 26.18544922 26.61972656 26.1953125 28.3359375 C26.21102295 29.89127197 26.21102295 29.89127197 26.22705078 31.47802734 C26 34 26 34 24 36 C21.76086426 36.25396729 21.76086426 36.25396729 18.93945312 36.25878906 C17.35771301 36.26824554 17.35771301 36.26824554 15.74401855 36.27789307 C14.60130493 36.2738446 13.45859131 36.26979614 12.28125 36.265625 C10.52802429 36.26849518 10.52802429 36.26849518 8.73937988 36.27142334 C6.26456487 36.27278626 3.78974274 36.26908241 1.31494141 36.26074219 C-2.48421205 36.25004446 -6.28289259 36.26063418 -10.08203125 36.2734375 C-12.48177188 36.27211592 -14.88151222 36.26955357 -17.28125 36.265625 C-18.99532043 36.27169769 -18.99532043 36.27169769 -20.74401855 36.27789307 C-21.79851196 36.27158875 -22.85300537 36.26528442 -23.93945312 36.25878906 C-24.8705188 36.25719788 -25.80158447 36.25560669 -26.76086426 36.25396729 C-29 36 -29 36 -31 34 C-31.22705078 31.01904297 -31.22705078 31.01904297 -31.1953125 27.2421875 C-31.1924826 26.57913605 -31.18965271 25.91608459 -31.18673706 25.23294067 C-31.17553435 23.11344417 -31.15043051 20.99436896 -31.125 18.875 C-31.11497028 17.43880818 -31.10584441 16.00260975 -31.09765625 14.56640625 C-31.075595 11.04413372 -31.04106494 7.52210797 -31 4 C-30.01 4 -29.02 4 -28 4 C-28 13.57 -28 23.14 -28 33 C-11.17 33 5.66 33 23 33 C23 22.77 23 12.54 23 2 C15.41 2 7.82 2 0 2 C0 1.34 0 0.68 0 0 Z " fill="#44AEE2" transform="translate(72,45)"/>
<path d="M0 0 C2.64 0 5.28 0 8 0 C8 12.54 8 25.08 8 38 C-0.25 38 -8.5 38 -17 38 C-17.125 25.25 -17.125 25.25 -16 23 C-15.34 23 -14.68 23 -14 23 C-14 19.04 -14 15.08 -14 11 C-7.25 8 -7.25 8 -5 8 C-5 7.01 -5 6.02 -5 5 C-3.68 4.67 -2.36 4.34 -1 4 C-0.67 2.68 -0.34 1.36 0 0 Z " fill="#7182FE" transform="translate(119,86)"/>
<path d="M0 0 C0.5775 0.226875 1.155 0.45375 1.75 0.6875 C1.75 1.3475 1.75 2.0075 1.75 2.6875 C3.07 2.6875 4.39 2.6875 5.75 2.6875 C5.75 4.3375 5.75 5.9875 5.75 7.6875 C4.780625 7.97625 3.81125 8.265 2.8125 8.5625 C-0.35664203 9.32964682 -0.35664203 9.32964682 -1.25 11.6875 C-1.39375422 15.06572416 -1.32536348 17.46140955 -0.25 20.6875 C4.7 21.6775 9.65 22.6675 14.75 23.6875 C15.08 25.0075 15.41 26.3275 15.75 27.6875 C23.67 27.3575 31.59 27.0275 39.75 26.6875 C39.42 27.3475 39.09 28.0075 38.75 28.6875 C36.10139573 29.28105614 33.45802678 29.42959269 30.75 29.6875 C30.75 30.3475 30.75 31.0075 30.75 31.6875 C44.94 31.6875 59.13 31.6875 73.75 31.6875 C73.255 30.6975 73.255 30.6975 72.75 29.6875 C71.595 29.5225 70.44 29.3575 69.25 29.1875 C68.095 29.0225 66.94 28.8575 65.75 28.6875 C65.255 27.6975 65.255 27.6975 64.75 26.6875 C70.20769811 26.57611841 75.36509359 26.77092019 80.75 27.6875 C80.75 30.3275 80.75 32.9675 80.75 35.6875 C73.46409984 35.73432155 66.17823335 35.76961748 58.89221191 35.79112434 C55.50718789 35.80145864 52.12226851 35.81542229 48.73730469 35.83837891 C10.3125541 36.07977608 10.3125541 36.07977608 2.75 31.6875 C3.08 31.0275 3.41 30.3675 3.75 29.6875 C5.07 29.6875 6.39 29.6875 7.75 29.6875 C7.75 28.6975 7.75 27.7075 7.75 26.6875 C5.77 26.6875 3.79 26.6875 1.75 26.6875 C1.42 27.6775 1.09 28.6675 0.75 29.6875 C-1.60964273 29.28066505 -3.10934088 28.78935661 -5.0625 27.375 C-5.454375 26.818125 -5.84625 26.26125 -6.25 25.6875 C-5.875 23.6875 -5.875 23.6875 -5.25 21.6875 C-5.58 20.6975 -5.91 19.7075 -6.25 18.6875 C-7.9 18.6875 -9.55 18.6875 -11.25 18.6875 C-11.25 16.0475 -11.25 13.4075 -11.25 10.6875 C-9.6 10.6875 -7.95 10.6875 -6.25 10.6875 C-5.45046862 7.40053767 -5.15341064 5.97726808 -6.25 2.6875 C-2.80384615 -0.38942308 -2.80384615 -0.38942308 0 0 Z " fill="#EAEBF2" transform="translate(20.25,89.3125)"/>
<path d="M0 0 C1.37091797 0.0009668 1.37091797 0.0009668 2.76953125 0.00195312 C9.48435163 0.04685163 9.48435163 0.04685163 10.625 1.1875 C13.36201178 1.34760481 16.0766759 1.44696828 18.81640625 1.50390625 C20.04616432 1.5350779 20.04616432 1.5350779 21.30076599 1.56687927 C23.92958901 1.63246494 26.55851504 1.69130126 29.1875 1.75 C30.96550561 1.79317667 32.74350065 1.83679067 34.52148438 1.88085938 C38.88921634 1.98815543 43.25705227 2.08939704 47.625 2.1875 C47.625 2.5175 47.625 2.8475 47.625 3.1875 C35.085 3.1875 22.545 3.1875 9.625 3.1875 C9.955 4.5075 10.285 5.8275 10.625 7.1875 C28.94 7.6825 28.94 7.6825 47.625 8.1875 C47.625 8.5175 47.625 8.8475 47.625 9.1875 C35.085 9.1875 22.545 9.1875 9.625 9.1875 C9.955 10.5075 10.285 11.8275 10.625 13.1875 C22.835 13.1875 35.045 13.1875 47.625 13.1875 C47.625 13.8475 47.625 14.5075 47.625 15.1875 C38.385 15.1875 29.145 15.1875 19.625 15.1875 C19.625 15.8475 19.625 16.5075 19.625 17.1875 C18.635 17.1875 17.645 17.1875 16.625 17.1875 C16.625 16.5275 16.625 15.8675 16.625 15.1875 C14.315 15.1875 12.005 15.1875 9.625 15.1875 C9.625 17.1675 9.625 19.1475 9.625 21.1875 C0.715 21.1875 -8.195 21.1875 -17.375 21.1875 C-17.375 20.8575 -17.375 20.5275 -17.375 20.1875 C-15.725 19.8575 -14.075 19.5275 -12.375 19.1875 C-12.045 17.8675 -11.715 16.5475 -11.375 15.1875 C-13.355 15.1875 -15.335 15.1875 -17.375 15.1875 C-17.375 14.8575 -17.375 14.5275 -17.375 14.1875 C-15.725 13.8575 -14.075 13.5275 -12.375 13.1875 C-12.045 11.8675 -11.715 10.5475 -11.375 9.1875 C-13.355 9.1875 -15.335 9.1875 -17.375 9.1875 C-17.375 8.8575 -17.375 8.5275 -17.375 8.1875 C-15.725 7.8575 -14.075 7.5275 -12.375 7.1875 C-12.045 5.8675 -11.715 4.5475 -11.375 3.1875 C-13.355 3.1875 -15.335 3.1875 -17.375 3.1875 C-17.375 2.8575 -17.375 2.5275 -17.375 2.1875 C-11.48560037 0.14637931 -6.2030285 -0.08528042 0 0 Z " fill="#9BE4DF" transform="translate(24.375,31.8125)"/>
<path d="M0 0 C1.12019531 -0.00128906 2.24039063 -0.00257812 3.39453125 -0.00390625 C4.57402344 -0.00003906 5.75351562 0.00382812 6.96875 0.0078125 C8.73798828 0.00201172 8.73798828 0.00201172 10.54296875 -0.00390625 C12.22326172 -0.00197266 12.22326172 -0.00197266 13.9375 0 C14.97326172 0.00112793 16.00902344 0.00225586 17.07617188 0.00341797 C19.46875 0.1328125 19.46875 0.1328125 20.46875 1.1328125 C20.56861975 3.97616298 20.60752881 6.78978413 20.59375 9.6328125 C20.59955078 10.82970703 20.59955078 10.82970703 20.60546875 12.05078125 C20.59535767 18.00620483 20.59535767 18.00620483 19.46875 19.1328125 C17.62715977 19.23240871 15.78178033 19.26361661 13.9375 19.265625 C12.81730469 19.26691406 11.69710937 19.26820312 10.54296875 19.26953125 C9.36347656 19.26566406 8.18398438 19.26179688 6.96875 19.2578125 C5.19951172 19.26361328 5.19951172 19.26361328 3.39453125 19.26953125 C1.71423828 19.26759766 1.71423828 19.26759766 0 19.265625 C-1.03576172 19.26449707 -2.07152344 19.26336914 -3.13867188 19.26220703 C-5.53125 19.1328125 -5.53125 19.1328125 -6.53125 18.1328125 C-6.63111975 15.28946202 -6.67002881 12.47584087 -6.65625 9.6328125 C-6.66011719 8.83488281 -6.66398437 8.03695312 -6.66796875 7.21484375 C-6.65573175 0.007248 -6.65573175 0.007248 0 0 Z " fill="#37D8C6" transform="translate(39.53125,85.8671875)"/>
<path d="M0 0 C3.0000624 -0.02721831 5.99987256 -0.04694378 9 -0.0625 C9.83917969 -0.07087891 10.67835937 -0.07925781 11.54296875 -0.08789062 C12.79013672 -0.09272461 12.79013672 -0.09272461 14.0625 -0.09765625 C15.19365234 -0.10551147 15.19365234 -0.10551147 16.34765625 -0.11352539 C19.91451913 0.03914317 23.45744034 0.55718004 27 1 C27 7.93 27 14.86 27 22 C20.07 22 13.14 22 6 22 C6 21.01 6 20.02 6 19 C4.02 19 2.04 19 0 19 C0 18.34 0 17.68 0 17 C1.98 17 3.96 17 6 17 C6 15.68 6 14.36 6 13 C4.02 13 2.04 13 0 13 C0 12.34 0 11.68 0 11 C1.98 11 3.96 11 6 11 C6 9.68 6 8.36 6 7 C4.02 7 2.04 7 0 7 C0 6.34 0 5.68 0 5 C1.98 5 3.96 5 6 5 C6 4.01 6 3.02 6 2 C3.03 1.505 3.03 1.505 0 1 C0 0.67 0 0.34 0 0 Z " fill="#97DBE7" transform="translate(7,58)"/>
<path d="M0 0 C1.4539304 0.03304387 2.90746075 0.09241162 4.359375 0.17578125 C5.10445312 0.19833984 5.84953125 0.22089844 6.6171875 0.24414062 C8.448784 0.30284564 10.27934153 0.39252368 12.109375 0.48828125 C12.19324953 4.10686819 12.10025964 6.39134959 10.109375 9.48828125 C9.119375 9.98328125 9.119375 9.98328125 8.109375 10.48828125 C8.109375 11.47828125 8.109375 12.46828125 8.109375 13.48828125 C7.449375 13.48828125 6.789375 13.48828125 6.109375 13.48828125 C6.439375 14.14828125 6.769375 14.80828125 7.109375 15.48828125 C15.029375 15.81828125 22.949375 16.14828125 31.109375 16.48828125 C31.109375 18.13828125 31.109375 19.78828125 31.109375 21.48828125 C17.579375 21.48828125 4.049375 21.48828125 -9.890625 21.48828125 C-9.890625 8.48828125 -9.890625 8.48828125 -7.890625 5.48828125 C-7.09398437 4.16763672 -7.09398437 4.16763672 -6.28125 2.8203125 C-3.890625 0.48828125 -3.890625 0.48828125 0 0 Z " fill="#6C73FE" transform="translate(69.890625,80.51171875)"/>
<path d="M0 0 C5.94 0.33 11.88 0.66 18 1 C17.67 2.32 17.34 3.64 17 5 C16.01 5.33 15.02 5.66 14 6 C13.67 6.99 13.34 7.98 13 9 C11.1875 9.625 11.1875 9.625 9 10 C7.68 10.33 6.36 10.66 5 11 C4.67 14.96 4.34 18.92 4 23 C3.34 23 2.68 23 2 23 C1.67 27.95 1.34 32.9 1 38 C9.25 38 17.5 38 26 38 C26 38.66 26 39.32 26 40 C28.31 40.66 30.62 41.32 33 42 C32 44 32 44 30.34521484 44.61450195 C25.49200924 45.41225457 20.54404055 45.18590312 15.63769531 45.18530273 C13.63863013 45.18748512 11.63960468 45.20599143 9.640625 45.22460938 C8.36960937 45.22654297 7.09859375 45.22847656 5.7890625 45.23046875 C4.63100098 45.23457764 3.47293945 45.23868652 2.27978516 45.24291992 C-1.11310954 44.99162245 -3.83332989 44.21173908 -7 43 C-6 41 -6 41 0 39 C0 26.13 0 13.26 0 0 Z " fill="#5F4EF2" transform="translate(101,86)"/>
<path d="M0 0 C1.98 0 3.96 0 6 0 C6.33 0.66 6.66 1.32 7 2 C15.25 2 23.5 2 32 2 C32.33 1.34 32.66 0.68 33 0 C37.29 0 41.58 0 46 0 C46.495 1.485 46.495 1.485 47 3 C47.65129797 4.34090759 48.31513275 5.67592331 49 7 C48.195625 7.28875 47.39125 7.5775 46.5625 7.875 C43.8673532 8.73262568 43.8673532 8.73262568 43 11 C37.19759432 11.02467332 31.39521902 11.04284724 25.59277344 11.05493164 C23.61783313 11.0599681 21.64289657 11.06679751 19.66796875 11.07543945 C16.83332395 11.08753508 13.99872834 11.0932351 11.1640625 11.09765625 C10.27756012 11.10281754 9.39105774 11.10797882 8.47769165 11.11329651 C2.22774341 11.11387171 2.22774341 11.11387171 0 10 C0 6.7 0 3.4 0 0 Z " fill="#BED7FE" transform="translate(27,102)"/>
<path d="M0 0 C0 1.98 0 3.96 0 6 C3.40320934 6.67673447 3.40320934 6.67673447 7 7 C7.66 6.34 8.32 5.68 9 5 C9.99 5 10.98 5 12 5 C14.25 7.25 14.25 7.25 16 10 C15.875 12.25 15.875 12.25 15 14 C12.64653604 15.17673198 11.1193967 15.16623866 8.5 15.1875 C7.7059375 15.20167969 6.911875 15.21585938 6.09375 15.23046875 C4 15 4 15 2 13 C-3.54235245 12.42765564 -3.54235245 12.42765564 -8.5 14.5 C-10.71177972 18.18629954 -10.34421275 20.73176192 -10 25 C-9.67 25.66 -9.34 26.32 -9 27 C-11.97 27 -14.94 27 -18 27 C-18 24.36 -18 21.72 -18 19 C-19.65 18.67 -21.3 18.34 -23 18 C-22.01 15.03 -21.02 12.06 -20 9 C-18.906875 9.226875 -17.81375 9.45375 -16.6875 9.6875 C-13.17383651 10.32767007 -13.17383651 10.32767007 -11.0625 8.9375 C-9.58206055 6.23787512 -9.79838001 4.02429981 -10 1 C-6.56484998 0.37542727 -3.50935186 0 0 0 Z " fill="#E8EAF1" transform="translate(105,18)"/>
<path d="M0 0 C2.95839355 -0.02689449 5.91654427 -0.04678741 8.875 -0.0625 C9.71675781 -0.07087891 10.55851562 -0.07925781 11.42578125 -0.08789062 C12.23144531 -0.09111328 13.03710938 -0.09433594 13.8671875 -0.09765625 C14.98262939 -0.10551147 14.98262939 -0.10551147 16.12060547 -0.11352539 C18 0 18 0 20 1 C20 2.98 20 4.96 20 7 C19.34 7 18.68 7 18 7 C18.48895752 7.54817383 18.97791504 8.09634766 19.48168945 8.66113281 C21.32607624 11.50230107 21.34896257 13.06224588 21.29296875 16.421875 C21.28330078 17.44667969 21.27363281 18.47148438 21.26367188 19.52734375 C21.23853516 20.59082031 21.21339844 21.65429688 21.1875 22.75 C21.16719727 24.36841797 21.16719727 24.36841797 21.14648438 26.01953125 C21.11116584 28.6801942 21.06184199 31.33984296 21 34 C23.31 34 25.62 34 28 34 C28.33 34.99 28.66 35.98 29 37 C20.19039858 38.30512614 11.80960142 38.30512614 3 37 C3.33 36.01 3.66 35.02 4 34 C8.29 34 12.58 34 17 34 C17 27.4 17 20.8 17 14 C13.7 14 10.4 14 7 14 C7 11.03 7 8.06 7 5 C4.69 5 2.38 5 0 5 C0 3.35 0 1.7 0 0 Z " fill="#3AC6D7" transform="translate(98,49)"/>
<path d="M0 0 C1.58206422 0.00574487 3.16410406 0.01876032 4.74609375 0.03515625 C7.53046875 0.05578125 10.31484375 0.07640625 13.18359375 0.09765625 C13.18359375 6.03765625 13.18359375 11.97765625 13.18359375 18.09765625 C10.39921875 18.11828125 7.61484375 18.13890625 4.74609375 18.16015625 C3.86767822 18.16926025 2.9892627 18.17836426 2.08422852 18.18774414 C0.11713401 18.19488716 -1.84994246 18.14797518 -3.81640625 18.09765625 C-5.63756628 16.27649622 -4.94875705 13.79093861 -4.953125 11.37109375 C-4.94925781 10.62085937 -4.94539063 9.870625 -4.94140625 9.09765625 C-4.94527344 8.34742187 -4.94914062 7.5971875 -4.953125 6.82421875 C-4.94103514 0.12643386 -4.94103514 0.12643386 0 0 Z " fill="#98E3F0" transform="translate(109.81640625,95.90234375)"/>
<path d="M0 0 C4.62 0 9.24 0 14 0 C16 4 16 4 15.625 6.25 C15.41875 6.8275 15.2125 7.405 15 8 C16.32 7.34 17.64 6.68 19 6 C19 9.3 19 12.6 19 16 C11.08 16 3.16 16 -5 16 C-5.33 15.01 -5.66 14.02 -6 13 C-5.34 12.67 -4.68 12.34 -4 12 C-4 11.01 -4 10.02 -4 9 C-3.34 8.34 -2.68 7.68 -2 7 C-1.28072705 4.68234271 -0.6090107 2.34904126 0 0 Z " fill="#7286FE" transform="translate(82,81)"/>
<path d="M0 0 C5.61 0 11.22 0 17 0 C17 5.61 17 11.22 17 17 C11.39 17 5.78 17 0 17 C0 11.33333333 0 5.66666667 0 0 Z " fill="#3D4D9A" transform="translate(15,34)"/>
<path d="M0 0 C0.66 0.99 1.32 1.98 2 3 C2.845625 3.33 3.69125 3.66 4.5625 4 C5.7690625 4.495 5.7690625 4.495 7 5 C7.495 6.485 7.495 6.485 8 8 C6.68 8 5.36 8 4 8 C3.67 9.65 3.34 11.3 3 13 C1.68 13 0.36 13 -1 13 C-1 14.32 -1 15.64 -1 17 C-0.34 17 0.32 17 1 17 C1 17.66 1 18.32 1 19 C-1.5 20.625 -1.5 20.625 -4 22 C-5.5 20.625 -5.5 20.625 -7 19 C-7 18.34 -7 17.68 -7 17 C-6.34 17 -5.68 17 -5 17 C-5 15.02 -5 13.04 -5 11 C-11.6 10.67 -18.2 10.34 -25 10 C-25 9.34 -25 8.68 -25 8 C-22.03 8 -19.06 8 -16 8 C-15.34 6.68 -14.68 5.36 -14 4 C-12.68 4 -11.36 4 -10 4 C-9.71125 3.360625 -9.4225 2.72125 -9.125 2.0625 C-6.88597047 -2.04238748 -4.08343933 -1.02085983 0 0 Z " fill="#6AD7DC" transform="translate(123,39)"/>
<path d="M0 0 C2.31 0 4.62 0 7 0 C7.02898816 3.93748458 7.04679464 7.87494179 7.0625 11.8125 C7.07087891 12.93205078 7.07925781 14.05160156 7.08789062 15.20507812 C7.09111328 16.27822266 7.09433594 17.35136719 7.09765625 18.45703125 C7.10289307 19.44678955 7.10812988 20.43654785 7.11352539 21.45629883 C6.90752939 26.07193821 5.26470828 27.94591806 2 31 C0.41596476 29.41596476 0.78025065 27.7228362 0.68359375 25.52734375 C0.64169922 24.62822266 0.59980469 23.72910156 0.55664062 22.80273438 C0.51732422 21.85720703 0.47800781 20.91167969 0.4375 19.9375 C0.39431641 18.98810547 0.35113281 18.03871094 0.30664062 17.06054688 C0.20020724 14.70718647 0.09818992 12.35371646 0 10 C-2.64 10 -5.28 10 -8 10 C-8 8.02 -8 6.04 -8 4 C-5.36 4 -2.72 4 0 4 C0 2.68 0 1.36 0 0 Z " fill="#5A37FF" transform="translate(34,49)"/>
<path d="M0 0 C13.53 0 27.06 0 41 0 C41 1.65 41 3.3 41 5 C27.47 5 13.94 5 0 5 C0 3.35 0 1.7 0 0 Z " fill="#3C3D89" transform="translate(60,97)"/>
<path d="M0 0 C4.14581887 -0.02886751 8.29161216 -0.04675327 12.4375 -0.0625 C14.21350586 -0.07506836 14.21350586 -0.07506836 16.02539062 -0.08789062 C17.15009766 -0.09111328 18.27480469 -0.09433594 19.43359375 -0.09765625 C20.47572021 -0.10289307 21.51784668 -0.10812988 22.59155273 -0.11352539 C25 0 25 0 26 1 C26.10082764 3.43660446 26.13972603 5.84424701 26.1328125 8.28125 C26.13424759 9.37427429 26.13424759 9.37427429 26.13571167 10.48937988 C26.13639335 12.0327971 26.13453988 13.57621717 26.13037109 15.11962891 C26.12502262 17.489974 26.13031642 19.86012959 26.13671875 22.23046875 C26.13605797 23.72656292 26.1347768 25.22265697 26.1328125 26.71875 C26.13483673 27.43228638 26.13686096 28.14582275 26.13894653 28.88098145 C26.11495191 33.88504809 26.11495191 33.88504809 25 35 C23.07332493 35.08748207 21.14348139 35.10697334 19.21484375 35.09765625 C17.46010742 35.09282227 17.46010742 35.09282227 15.66992188 35.08789062 C13.82237305 35.07532227 13.82237305 35.07532227 11.9375 35.0625 C10.08415039 35.05573242 10.08415039 35.05573242 8.19335938 35.04882812 C5.12885883 35.03699608 2.06445279 35.02051173 -1 35 C-1 34.34 -1 33.68 -1 33 C6.92 33 14.84 33 23 33 C23 22.77 23 12.54 23 2 C15.41 2 7.82 2 0 2 C0 1.34 0 0.68 0 0 Z " fill="#37D2CA" transform="translate(72,45)"/>
<path d="M0 0 C0.8971875 0.5259375 0.8971875 0.5259375 1.8125 1.0625 C1.585625 1.805 1.35875 2.5475 1.125 3.3125 C0.51773302 6.12164993 0.51773302 6.12164993 2.25 8.375 C2.765625 8.931875 3.28125 9.48875 3.8125 10.0625 C3.125 12 3.125 12 1.8125 14.0625 C-0.8125 14.8125 -0.8125 14.8125 -3.1875 15.0625 C-3.5175 16.3825 -3.8475 17.7025 -4.1875 19.0625 C-5.8375 19.0625 -7.4875 19.0625 -9.1875 19.0625 C-9.1875 18.0725 -9.1875 17.0825 -9.1875 16.0625 C-11.4975 16.3925 -13.8075 16.7225 -16.1875 17.0625 C-18.02441257 13.28062119 -18.34587626 11.11681692 -17.1875 7.0625 C-17.8475 7.0625 -18.5075 7.0625 -19.1875 7.0625 C-19.1875 5.7425 -19.1875 4.4225 -19.1875 3.0625 C-16.5475 3.0625 -13.9075 3.0625 -11.1875 3.0625 C-11.39375 4.17625 -11.6 5.29 -11.8125 6.4375 C-11.998125 8.231875 -11.998125 8.231875 -12.1875 10.0625 C-10.28994856 12.41223818 -10.28994856 12.41223818 -7.0625 12.1875 C-5.639375 12.125625 -5.639375 12.125625 -4.1875 12.0625 C-3.89187633 6.74079506 -3.89187633 6.74079506 -6.1875 2.0625 C-4.66896708 -0.97456585 -3.05066334 -1.30742714 0 0 Z " fill="#EAEBF2" transform="translate(140.1875,59.9375)"/>
<path d="M0 0 C2.64 0 5.28 0 8 0 C8 6.93 8 13.86 8 21 C1.07 21 -5.86 21 -13 21 C-13 20.01 -13 19.02 -13 18 C-11.37512529 17.83211627 -9.75009558 17.66573213 -8.125 17.5 C-7.22007813 17.4071875 -6.31515625 17.314375 -5.3828125 17.21875 C-3 17 -3 17 -1 17 C-0.34 16.01 0.32 15.02 1 14 C1.99 14 2.98 14 4 14 C3.67 11.69 3.34 9.38 3 7 C2.01 6.67 1.02 6.34 0 6 C0 4.02 0 2.04 0 0 Z " fill="#40CAD3" transform="translate(26,59)"/>
<path d="M0 0 C0.83265381 0.00523682 1.66530762 0.01047363 2.52319336 0.01586914 C3.42231445 0.0190918 4.32143555 0.02231445 5.24780273 0.02563477 C6.66609375 0.03820313 6.66609375 0.03820313 8.11303711 0.05102539 C9.06243164 0.05553711 10.01182617 0.06004883 10.98999023 0.06469727 C13.34356776 0.07652429 15.69702188 0.09300514 18.05053711 0.11352539 C18.17428711 0.73227539 18.29803711 1.35102539 18.42553711 1.98852539 C18.92251067 4.30473371 18.92251067 4.30473371 21.05053711 6.11352539 C17.67018292 6.837887 15.33352417 7.17578254 11.92553711 6.42602539 C10.50241211 6.27133789 10.50241211 6.27133789 9.05053711 6.11352539 C6.92561873 7.90494879 6.92561873 7.90494879 5.05053711 10.11352539 C3.39470486 10.80666447 1.72942732 11.47826963 0.05053711 12.11352539 C-0.27946289 12.77352539 -0.60946289 13.43352539 -0.94946289 14.11352539 C-1.60946289 14.11352539 -2.26946289 14.11352539 -2.94946289 14.11352539 C-2.97632227 11.96775903 -2.99579377 9.82189894 -3.01196289 7.67602539 C-3.02356445 6.48106445 -3.03516602 5.28610352 -3.04711914 4.05493164 C-2.9181352 0.16993524 -2.9181352 0.16993524 0 0 Z " fill="#34CED9" transform="translate(107.949462890625,32.886474609375)"/>
<path d="M0 0 C1.32 0 2.64 0 4 0 C4 6.6 4 13.2 4 20 C6.31 20 8.62 20 11 20 C11.33 20.99 11.66 21.98 12 23 C3.19039858 24.30512614 -5.19039858 24.30512614 -14 23 C-13.505 21.515 -13.505 21.515 -13 20 C-8.71 20 -4.42 20 0 20 C0 13.4 0 6.8 0 0 Z " fill="#4C4CA1" transform="translate(115,63)"/>
<path d="M0 0 C1.65 0 3.3 0 5 0 C4.731875 0.53625 4.46375 1.0725 4.1875 1.625 C3.95477689 4.57282601 4.5799856 5.04811495 6.4375 7.25 C7.283125 8.1575 8.12875 9.065 9 10 C7.71034824 11.37562854 6.37310707 12.70766393 5 14 C4.34 14 3.68 14 3 14 C3 13.01 3 12.02 3 11 C1.01508358 11.26676204 1.01508358 11.26676204 -1 12 C-1.33 12.99 -1.66 13.98 -2 15 C-2.66 15 -3.32 15 -4 15 C-4 13.68 -4 12.36 -4 11 C-4.99 11 -5.98 11 -7 11 C-7.33 11.99 -7.66 12.98 -8 14 C-9.32 12.35 -10.64 10.7 -12 9 C-10.33784732 7.66104368 -8.67036393 6.32869858 -7 5 C-5.948125 4.13375 -5.948125 4.13375 -4.875 3.25 C-3 2 -3 2 0 2 C0 1.34 0 0.68 0 0 Z " fill="#40B4DE" transform="translate(48,86)"/>
<path d="M0 0 C1.31871094 -0.01224609 2.63742188 -0.02449219 3.99609375 -0.03710938 C5.90068359 -0.04000977 5.90068359 -0.04000977 7.84375 -0.04296875 C9.00068359 -0.04707764 10.15761719 -0.05118652 11.34960938 -0.05541992 C14.47736509 0.18575467 16.680892 0.85423629 19.5 2.1875 C18.5 4.1875 18.5 4.1875 16.84521484 4.80200195 C11.99200924 5.59975457 7.04404055 5.37340312 2.13769531 5.37280273 C0.13863013 5.37498512 -1.86039532 5.39349143 -3.859375 5.41210938 C-5.13039063 5.41404297 -6.40140625 5.41597656 -7.7109375 5.41796875 C-8.86899902 5.42207764 -10.02706055 5.42618652 -11.22021484 5.43041992 C-14.61310954 5.17912245 -17.33332989 4.39923908 -20.5 3.1875 C-20.17 2.5275 -19.84 1.8675 -19.5 1.1875 C-13.23640183 -0.60566158 -6.45139424 0.00315317 0 0 Z " fill="#EAEBF2" transform="translate(114.5,125.8125)"/>
<path d="M0 0 C0 5.61 0 11.22 0 17 C0.99 17 1.98 17 3 17 C3 18.65 3 20.3 3 22 C0.69 22 -1.62 22 -4 22 C-4 15.73 -4 9.46 -4 3 C-10.27 3 -16.54 3 -23 3 C-23 2.34 -23 1.68 -23 1 C-19.91675903 0.83159521 -16.83339379 0.66558138 -13.75 0.5 C-12.87730469 0.45230469 -12.00460938 0.40460938 -11.10546875 0.35546875 C-10.26113281 0.31035156 -9.41679687 0.26523438 -8.546875 0.21875 C-7.38430176 0.1559082 -7.38430176 0.1559082 -6.19824219 0.09179688 C-4.13373418 0.00558463 -2.0663073 0 0 0 Z " fill="#6E72AA" transform="translate(30,80)"/>
<path d="M0 0 C6.15234375 -0.09765625 6.15234375 -0.09765625 8 0 C9.85765668 1.85765668 9.25942629 4.75832889 9.3125 7.25 C9.34988281 8.38953125 9.38726562 9.5290625 9.42578125 10.703125 C8.91802081 14.63477467 7.76859724 16.22120535 5 19 C2.75 19.8125 2.75 19.8125 1 20 C-0.24546405 17.50907189 0.2232422 16.58919267 1 14 C2.32 14 3.64 14 5 14 C2.78065836 10.67098753 1.65316671 10.24976756 -2 9 C-1.67 8.01 -1.34 7.02 -1 6 C-0.34 5.67 0.32 5.34 1 5 C0.67 3.35 0.34 1.7 0 0 Z " fill="#38D5D0" transform="translate(126,33)"/>
<path d="M0 0 C2.64 0 5.28 0 8 0 C8 5.28 8 10.56 8 16 C7.34 16 6.68 16 6 16 C5.67 17.32 5.34 18.64 5 20 C3.39274365 16.78548731 3.94251815 13.56387464 4 10 C-0.29 10 -4.58 10 -9 10 C-8.34 9.34 -7.68 8.68 -7 8 C-6.34 8 -5.68 8 -5 8 C-5 7.01 -5 6.02 -5 5 C-3.68 4.67 -2.36 4.34 -1 4 C-0.67 2.68 -0.34 1.36 0 0 Z " fill="#665EFE" transform="translate(119,86)"/>
<path d="M0 0 C1.58206422 0.00574487 3.16410406 0.01876032 4.74609375 0.03515625 C7.53046875 0.05578125 10.31484375 0.07640625 13.18359375 0.09765625 C13.18359375 6.03765625 13.18359375 11.97765625 13.18359375 18.09765625 C10.39921875 18.11828125 7.61484375 18.13890625 4.74609375 18.16015625 C3.86767822 18.16926025 2.9892627 18.17836426 2.08422852 18.18774414 C0.11713401 18.19488716 -1.84994246 18.14797518 -3.81640625 18.09765625 C-5.63756628 16.27649622 -4.94875705 13.79093861 -4.953125 11.37109375 C-4.94925781 10.62085937 -4.94539063 9.870625 -4.94140625 9.09765625 C-4.94527344 8.34742187 -4.94914062 7.5971875 -4.953125 6.82421875 C-4.94103514 0.12643386 -4.94103514 0.12643386 0 0 Z M-1.25390625 3.66015625 C-3.42036653 7.03983429 -3.37928627 9.15749612 -2.81640625 13.09765625 C-1.33647469 15.66104314 -1.33647469 15.66104314 1.18359375 17.09765625 C4.14051084 17.8478082 4.14051084 17.8478082 7.18359375 17.09765625 C10.54703864 14.61163176 11.98417124 13.18340102 12.74609375 9.03515625 C12.3684543 6.04873369 12.3684543 6.04873369 10.62109375 3.72265625 C6.53362403 0.99767644 2.87655597 1.01242406 -1.25390625 3.66015625 Z " fill="#47B7F3" transform="translate(109.81640625,95.90234375)"/>
<path d="M0 0 C2.31 0 4.62 0 7 0 C7 2.97 7 5.94 7 9 C7.99 9 8.98 9 10 9 C9.67 10.32 9.34 11.64 9 13 C8.4225 13.061875 7.845 13.12375 7.25 13.1875 C4.11309013 14.32027301 2.90832496 16.34197595 1 19 C-0.65497356 15.69005287 -0.10084335 12.00877 -0.0625 8.375 C-0.05798828 7.57320312 -0.05347656 6.77140625 -0.04882812 5.9453125 C-0.03703168 3.96350994 -0.01909605 1.98174567 0 0 Z " fill="#6C75FE" transform="translate(98,54)"/>
<path d="M0 0 C0.99 0 1.98 0 3 0 C3 0.66 3 1.32 3 2 C4.32 1.67 5.64 1.34 7 1 C9.29013653 4.4352048 9.17842973 5.985331 9 10 C8.01 10.33 7.02 10.66 6 11 C5.01 12.485 5.01 12.485 4 14 C3.34 14 2.68 14 2 14 C1.67 13.34 1.34 12.68 1 12 C-1.02463255 11.34786708 -1.02463255 11.34786708 -3 11 C-3.33 8.36 -3.66 5.72 -4 3 C-2.68 3 -1.36 3 0 3 C0 2.01 0 1.02 0 0 Z " fill="#E3F6F9" transform="translate(21,63)"/>
<path d="M0 0 C0.66 0.99 1.32 1.98 2 3 C3.65816784 3.68753301 5.32459336 4.35561283 7 5 C7.33 5.66 7.66 6.32 8 7 C0.41 7 -7.18 7 -15 7 C-14.67 6.01 -14.34 5.02 -14 4 C-12.68 4 -11.36 4 -10 4 C-9.566875 3.0409375 -9.566875 3.0409375 -9.125 2.0625 C-6.88597047 -2.04238748 -4.08343933 -1.02085983 0 0 Z " fill="#F9FDFD" transform="translate(123,39)"/>
<path d="M0 0 C2.95839355 -0.02689449 5.91654427 -0.04678741 8.875 -0.0625 C9.71675781 -0.07087891 10.55851562 -0.07925781 11.42578125 -0.08789062 C12.23144531 -0.09111328 13.03710938 -0.09433594 13.8671875 -0.09765625 C14.98262939 -0.10551147 14.98262939 -0.10551147 16.12060547 -0.11352539 C18 0 18 0 20 1 C20 2.98 20 4.96 20 7 C19.01 7 18.02 7 17 7 C17 6.34 17 5.68 17 5 C11.39 5 5.78 5 0 5 C0 3.35 0 1.7 0 0 Z " fill="#34AFC5" transform="translate(98,49)"/>
<path d="M0 0 C0.66 0 1.32 0 2 0 C2.33 1.32 2.66 2.64 3 4 C5.97 4.33 8.94 4.66 12 5 C11.01 5.495 11.01 5.495 10 6 C10 6.66 10 7.32 10 8 C10.66 8.33 11.32 8.66 12 9 C10.35 9.66 8.7 10.32 7 11 C7 11.66 7 12.32 7 13 C4.66666667 13 2.33333333 13 0 13 C-0.33 13.66 -0.66 14.32 -1 15 C-1.02693575 12.87506859 -1.04636628 10.75004088 -1.0625 8.625 C-1.07410156 7.44164063 -1.08570312 6.25828125 -1.09765625 5.0390625 C-1 2 -1 2 0 0 Z " fill="#6A6DFE" transform="translate(103,109)"/>
<path d="M0 0 C1.93166016 0.01740234 1.93166016 0.01740234 3.90234375 0.03515625 C5.19269531 0.04417969 6.48304687 0.05320312 7.8125 0.0625 C8.81152344 0.07410156 9.81054688 0.08570312 10.83984375 0.09765625 C10.83984375 0.75765625 10.83984375 1.41765625 10.83984375 2.09765625 C8.32930844 3.7474366 5.72649187 5.15948455 3.08984375 6.59765625 C0.54383667 7.96244314 0.54383667 7.96244314 -0.16015625 11.09765625 C-1.48015625 11.09765625 -2.80015625 11.09765625 -4.16015625 11.09765625 C-4.18703776 9.45191059 -4.20649748 7.80604212 -4.22265625 6.16015625 C-4.23425781 5.24363281 -4.24585938 4.32710938 -4.2578125 3.3828125 C-4.10488393 -0.19571608 -3.66636749 0.11329937 0 0 Z " fill="#43AAE4" transform="translate(37.16015625,85.90234375)"/>
<path d="M0 0 C0.33 0 0.66 0 1 0 C1 2.97 1 5.94 1 9 C-5.93 9 -12.86 9 -20 9 C-20 8.01 -20 7.02 -20 6 C-18.41773035 5.80372609 -16.83410729 5.61834462 -15.25 5.4375 C-14.36828125 5.33308594 -13.4865625 5.22867188 -12.578125 5.12109375 C-10.11567549 5.00543324 -8.33461936 5.26361305 -6 6 C-6 5.34 -6 4.68 -6 4 C-4.35 3.67 -2.7 3.34 -1 3 C-0.67 2.01 -0.34 1.02 0 0 Z " fill="#35DAC5" transform="translate(33,71)"/>
<path d="M0 0 C0.99 0 1.98 0 3 0 C3.02688151 1.64574566 3.04634123 3.29161413 3.0625 4.9375 C3.07410156 5.85402344 3.08570312 6.77054687 3.09765625 7.71484375 C3 10 3 10 2 11 C0.07332493 11.08748207 -1.85651861 11.10697334 -3.78515625 11.09765625 C-4.95498047 11.09443359 -6.12480469 11.09121094 -7.33007812 11.08789062 C-9.17762695 11.07532227 -9.17762695 11.07532227 -11.0625 11.0625 C-12.91584961 11.05573242 -12.91584961 11.05573242 -14.80664062 11.04882812 C-17.87114117 11.03699608 -20.93554721 11.02051173 -24 11 C-24 10.34 -24 9.68 -24 9 C-16.08 9 -8.16 9 0 9 C0 6.03 0 3.06 0 0 Z " fill="#37DCC5" transform="translate(95,69)"/>
<path d="M0 0 C1.32 0 2.64 0 4 0 C4 6.6 4 13.2 4 20 C2.68 19.67 1.36 19.34 0 19 C0 12.73 0 6.46 0 0 Z " fill="#3E3E8B" transform="translate(115,63)"/>
<path d="M0 0 C4.05953998 0.180424 5.56501211 0.53067096 8.375 3.5625 C8.91125 4.366875 9.4475 5.17125 10 6 C8.71034824 7.37562854 7.37310707 8.70766393 6 10 C5.34 10 4.68 10 4 10 C4 9.01 4 8.02 4 7 C2.01508358 7.26676204 2.01508358 7.26676204 0 8 C-0.33 8.99 -0.66 9.98 -1 11 C-1.66 11 -2.32 11 -3 11 C-2.69217504 9.35328588 -2.37860766 7.70764424 -2.0625 6.0625 C-1.88847656 5.14597656 -1.71445312 4.22945313 -1.53515625 3.28515625 C-1 1 -1 1 0 0 Z " fill="#4CCADA" transform="translate(47,90)"/>
<path d="M0 0 C4.29 0 8.58 0 13 0 C11.6875 3.4375 11.6875 3.4375 10 7 C9.01 7.33 8.02 7.66 7 8 C6.67 7.34 6.34 6.68 6 6 C2.95418731 5.53045739 2.95418731 5.53045739 -0.5625 5.375 C-1.76003906 5.30023438 -2.95757812 5.22546875 -4.19140625 5.1484375 C-5.11824219 5.09945312 -6.04507813 5.05046875 -7 5 C-6.34 4.34 -5.68 3.68 -5 3 C-3.68 3 -2.36 3 -1 3 C-0.67 2.01 -0.34 1.02 0 0 Z " fill="#6660FE" transform="translate(53,81)"/>
<path d="M0 0 C0.99 0 1.98 0 3 0 C3.02892857 3.95831809 3.04677427 7.91660917 3.0625 11.875 C3.07087891 13.00292969 3.07925781 14.13085938 3.08789062 15.29296875 C3.09111328 16.36933594 3.09433594 17.44570312 3.09765625 18.5546875 C3.10289307 19.54968262 3.10812988 20.54467773 3.11352539 21.56982422 C3 24 3 24 2 26 C1.34 26 0.68 26 0 26 C0 17.42 0 8.84 0 0 Z " fill="#3EA1E7" transform="translate(41,49)"/>
<path d="M0 0 C12.54 0 25.08 0 38 0 C38 0.66 38 1.32 38 2 C28.76 2 19.52 2 10 2 C10 2.66 10 3.32 10 4 C9.01 4 8.02 4 7 4 C7 3.34 7 2.68 7 2 C4.69 2 2.38 2 0 2 C0 1.34 0 0.68 0 0 Z " fill="#76D5E4" transform="translate(34,45)"/>
<path d="M0 0 C8.58 0 17.16 0 26 0 C25.67 0.99 25.34 1.98 25 3 C17.08 3 9.16 3 1 3 C0.67 2.01 0.34 1.02 0 0 Z " fill="#4C4CA0" transform="translate(101,124)"/>
<path d="M0 0 C0.33 0 0.66 0 1 0 C1 4.62 1 9.24 1 14 C-2.96 14 -6.92 14 -11 14 C-10 12 -10 12 -7 11 C-6.6278958 9.67696283 -6.29369827 8.34262065 -6 7 C-4.66666667 6.33333333 -3.33333333 5.66666667 -2 5 C-1.27840576 3.35636866 -0.60648579 1.68949614 0 0 Z " fill="#7792FE" transform="translate(126,110)"/>
<path d="M0 0 C1.67542976 0.28604898 3.34385343 0.61781233 5 1 C5.95020028 3.99678551 6.46463605 6.06886936 5.0234375 8.95703125 C3.76294928 10.76667955 2.56254586 12.44206342 1 14 C0.34 14 -0.32 14 -1 14 C-1.02685938 11.85423363 -1.04633088 9.70837355 -1.0625 7.5625 C-1.07410156 6.36753906 -1.08570312 5.17257813 -1.09765625 3.94140625 C-1 1 -1 1 0 0 Z " fill="#34C7E0" transform="translate(106,33)"/>
<path d="M0 0 C2.31 0 4.62 0 7 0 C7 1.65 7 3.3 7 5 C3.37 5 -0.26 5 -4 5 C-4 6.65 -4 8.3 -4 10 C-5.32 10 -6.64 10 -8 10 C-8 8.02 -8 6.04 -8 4 C-5.36 4 -2.72 4 0 4 C0 2.68 0 1.36 0 0 Z " fill="#3D418D" transform="translate(34,49)"/>
<path d="M0 0 C1.24716797 0.00322266 2.49433594 0.00644531 3.77929688 0.00976562 C5.07287109 0.01814453 6.36644531 0.02652344 7.69921875 0.03515625 C9.66858398 0.04192383 9.66858398 0.04192383 11.67773438 0.04882812 C14.91410885 0.06059676 18.15039053 0.07703865 21.38671875 0.09765625 C21.05671875 0.75765625 20.72671875 1.41765625 20.38671875 2.09765625 C19.73074707 2.11747559 19.07477539 2.13729492 18.39892578 2.15771484 C15.43610806 2.25278132 12.47401343 2.36253377 9.51171875 2.47265625 C7.96291016 2.5190625 7.96291016 2.5190625 6.3828125 2.56640625 C4.90361328 2.62441406 4.90361328 2.62441406 3.39453125 2.68359375 C2.4833252 2.71501465 1.57211914 2.74643555 0.63330078 2.77880859 C-1.81259311 2.89648136 -1.81259311 2.89648136 -3.61328125 5.09765625 C-6.34197532 5.06478042 -8.90994305 4.53367854 -11.61328125 4.09765625 C-11.61328125 3.10765625 -11.61328125 2.11765625 -11.61328125 1.09765625 C-7.68039761 0.16677716 -4.03673962 -0.0184326 0 0 Z " fill="#D9D9E8" transform="translate(106.61328125,125.90234375)"/>
<path d="M0 0 C3.375 -0.1875 3.375 -0.1875 7 0 C7.66 0.99 8.32 1.98 9 3 C7.02 3.99 7.02 3.99 5 5 C5 5.66 5 6.32 5 7 C4.34 7 3.68 7 3 7 C2.34 8.32 1.68 9.64 1 11 C0.67 11 0.34 11 0 11 C0 7.37 0 3.74 0 0 Z " fill="#5935FF" transform="translate(102,86)"/>
<path d="M0 0 C8.25 0 16.5 0 25 0 C25.33 1.32 25.66 2.64 26 4 C25.01 4 24.02 4 23 4 C23 3.34 23 2.68 23 2 C15.41 2 7.82 2 0 2 C0 1.34 0 0.68 0 0 Z " fill="#45D6D3" transform="translate(72,45)"/>
<path d="M0 0 C2.375 -0.125 2.375 -0.125 5 0 C5.66 0.66 6.32 1.32 7 2 C7.33 1.34 7.66 0.68 8 0 C8.99 0 9.98 0 11 0 C11 1.32 11 2.64 11 4 C11.66 4.33 12.32 4.66 13 5 C8.71 5 4.42 5 0 5 C0 3.35 0 1.7 0 0 Z " fill="#35AFC6" transform="translate(33,97)"/>
<path d="M0 0 C2.64 0 5.28 0 8 0 C8.3125 2.1875 8.3125 2.1875 8 5 C5.5 7.8125 5.5 7.8125 3 10 C2.01 9.67 1.02 9.34 0 9 C0.185625 8.2575 0.37125 7.515 0.5625 6.75 C0.99203108 4.05009037 0.85122974 2.55368923 0 0 Z " fill="#6FD4E3" transform="translate(110,33)"/>
<path d="M0 0 C0.33 0 0.66 0 1 0 C1 4.95 1 9.9 1 15 C-4.61 15 -10.22 15 -16 15 C-16 14.34 -16 13.68 -16 13 C-15.25234375 13.04640625 -14.5046875 13.0928125 -13.734375 13.140625 C-7.78198457 13.45936352 -7.78198457 13.45936352 -2.3125 11.5 C-0.4070418 7.8705558 -0.79950612 5.07670881 -1 1 C-0.67 0.67 -0.34 0.34 0 0 Z " fill="#3AD9CF" transform="translate(122,99)"/>
<path d="M0 0 C0.99 0 1.98 0 3 0 C3.66 1.65 4.32 3.3 5 5 C7.86724686 4.42655063 8.8614515 4.1385485 11 2 C11.66 2.33 12.32 2.66 13 3 C13 3.99 13 4.98 13 6 C12.01 6.33 11.02 6.66 10 7 C9.01 8.485 9.01 8.485 8 10 C7.34 10 6.68 10 6 10 C5.67 9.34 5.34 8.68 5 8 C2.97536745 7.34786708 2.97536745 7.34786708 1 7 C0.67 4.69 0.34 2.38 0 0 Z " fill="#F6FCFD" transform="translate(17,67)"/>
<path d="M0 0 C0.66 0 1.32 0 2 0 C2.33 2.97 2.66 5.94 3 9 C5.64 9.33 8.28 9.66 11 10 C11 10.33 11 10.66 11 11 C5.39 11 -0.22 11 -6 11 C-6 10.67 -6 10.34 -6 10 C-4.35 9.67 -2.7 9.34 -1 9 C-0.67 7.68 -0.34 6.36 0 5 C-1.98 5 -3.96 5 -6 5 C-6 4.67 -6 4.34 -6 4 C-4.35 3.67 -2.7 3.34 -1 3 C-0.67 2.01 -0.34 1.02 0 0 Z " fill="#75D9E1" transform="translate(13,42)"/>
<path d="M0 0 C0.66 1.32 1.32 2.64 2 4 C1.01 5.485 1.01 5.485 0 7 C-2.8203125 7.29296875 -2.8203125 7.29296875 -6.125 7.1875 C-7.76855469 7.14689453 -7.76855469 7.14689453 -9.4453125 7.10546875 C-10.70988281 7.05326172 -10.70988281 7.05326172 -12 7 C-12.33 6.01 -12.66 5.02 -13 4 C-8.71 4 -4.42 4 0 4 C0 2.68 0 1.36 0 0 Z " fill="#4ED4D6" transform="translate(46,98)"/>
<path d="M0 0 C1.23556641 0.01740234 1.23556641 0.01740234 2.49609375 0.03515625 C3.32238281 0.04417969 4.14867187 0.05320312 5 0.0625 C5.63808594 0.07410156 6.27617188 0.08570312 6.93359375 0.09765625 C6.93359375 0.75765625 6.93359375 1.41765625 6.93359375 2.09765625 C5.94359375 2.09765625 4.95359375 2.09765625 3.93359375 2.09765625 C3.93359375 2.75765625 3.93359375 3.41765625 3.93359375 4.09765625 C1.59992442 6.10944016 -0.11426139 7.11360796 -3.06640625 8.09765625 C-3.10882348 5.7647085 -3.10733562 3.43063058 -3.06640625 1.09765625 C-2.06640625 0.09765625 -2.06640625 0.09765625 0 0 Z " fill="#4597EB" transform="translate(36.06640625,85.90234375)"/>
<path d="M0 0 C2.31 0 4.62 0 7 0 C3.04376368 6.70459519 3.04376368 6.70459519 -1.3125 7.9375 C-2.199375 7.958125 -3.08625 7.97875 -4 8 C-4.33 7.01 -4.66 6.02 -5 5 C-3.68 4.67 -2.36 4.34 -1 4 C-0.67 2.68 -0.34 1.36 0 0 Z " fill="#6155FE" transform="translate(119,86)"/>
<path d="M0 0 C1.98 0 3.96 0 6 0 C6.33 0.99 6.66 1.98 7 3 C5.68 4.32 4.36 5.64 3 7 C0.525 6.01 0.525 6.01 -2 5 C-1.34 3.35 -0.68 1.7 0 0 Z " fill="#3CC2D8" transform="translate(53,86)"/>
<path d="M0 0 C0 0.33 0 0.66 0 1 C-1.98 1 -3.96 1 -6 1 C-5.73606499 4.43230448 -5.73606499 4.43230448 -5 8 C-4.01 8.66 -3.02 9.32 -2 10 C-5.125 9.47916667 -8.25 8.95833333 -11.375 8.4375 C-12.674375 8.2209375 -12.674375 8.2209375 -14 8 C-14 7.67 -14 7.34 -14 7 C-12.35 6.67 -10.7 6.34 -9 6 C-8.67 4.68 -8.34 3.36 -8 2 C-9.98 2 -11.96 2 -14 2 C-14 1.67 -14 1.34 -14 1 C-9.32798795 -0.20568053 -4.78503708 -0.09382426 0 0 Z " fill="#87D0E3" transform="translate(21,33)"/>
<path d="M0 0 C2.64 0 5.28 0 8 0 C7.67 1.98 7.34 3.96 7 6 C6.401875 5.814375 5.80375 5.62875 5.1875 5.4375 C2.83591238 4.77906313 2.83591238 4.77906313 0 6 C0 4.02 0 2.04 0 0 Z " fill="#3DB3DF" transform="translate(26,59)"/>
<path d="M0 0 C6.27 0 12.54 0 19 0 C19 2.31 19 4.62 19 7 C18.34 7 17.68 7 17 7 C16.67 5.68 16.34 4.36 16 3 C14.68 3 13.36 3 12 3 C12 2.34 12 1.68 12 1 C8.04 1 4.08 1 0 1 C0 0.67 0 0.34 0 0 Z " fill="#8ADCE4" transform="translate(7,58)"/>
<path d="M0 0 C1.5625 1.25 1.5625 1.25 3 3 C2.76979842 6.45302367 1.04733937 9.27021418 -1 12 C-2.32 12 -3.64 12 -5 12 C-4.1875 10.0625 -4.1875 10.0625 -3 8 C-2.01 7.67 -1.02 7.34 0 7 C0 6.34 0 5.68 0 5 C-0.66 5 -1.32 5 -2 5 C-2 3.68 -2 2.36 -2 1 C-1.34 0.67 -0.68 0.34 0 0 Z " fill="#34D8CB" transform="translate(124,51)"/>
<path d="M0 0 C3.3 0 6.6 0 10 0 C9 2 9 2 6.5 2.875 C5.675 3.24625 4.85 3.6175 4 4 C3.34786708 6.02463255 3.34786708 6.02463255 3 8 C2.01 8.33 1.02 8.66 0 9 C0 6.03 0 3.06 0 0 Z " fill="#3EBBDD" transform="translate(105,54)"/>
<path d="M0 0 C0.66 0 1.32 0 2 0 C2 1.65 2 3.3 2 5 C2.99 5 3.98 5 5 5 C5 5.66 5 6.32 5 7 C2.5 8.625 2.5 8.625 0 10 C-1.5 8.625 -1.5 8.625 -3 7 C-3 6.34 -3 5.68 -3 5 C-2.34 5 -1.68 5 -1 5 C-0.67 3.35 -0.34 1.7 0 0 Z " fill="#D8F4F4" transform="translate(119,51)"/>
<path d="M0 0 C0.33 0 0.66 0 1 0 C1.36 5.4 1.36 5.4 -0.125 7.875 C-2.78034983 9.4682099 -4.96789518 9.20214032 -8 9 C-8 8.34 -8 7.68 -8 7 C-7.13375 6.6596875 -7.13375 6.6596875 -6.25 6.3125 C-3.44052002 4.67363668 -1.95774386 2.56531954 0 0 Z " fill="#41D8DB" transform="translate(119,102)"/>
<path d="M0 0 C0.66 0.99 1.32 1.98 2 3 C-0.52475462 4.26237731 -2.31200466 4.09856404 -5.125 4.0625 C-6.03507812 4.05347656 -6.94515625 4.04445313 -7.8828125 4.03515625 C-8.58148438 4.02355469 -9.28015625 4.01195313 -10 4 C-10 3.01 -10 2.02 -10 1 C-6.61292998 0.22581257 -3.47338282 -0.37550085 0 0 Z " fill="#35D3D2" transform="translate(23,76)"/>
<path d="M0 0 C0.66 0.33 1.32 0.66 2 1 C2 3.64 2 6.28 2 9 C1.34 9 0.68 9 0 9 C-0.33 10.32 -0.66 11.64 -1 13 C-2.5635348 9.87293041 -2.39958487 6.42017557 -2 3 C-1.34 2.01 -0.68 1.02 0 0 Z " fill="#6B70FE" transform="translate(125,93)"/>
<path d="M0 0 C2.31 0 4.62 0 7 0 C7 1.65 7 3.3 7 5 C4.69 5 2.38 5 0 5 C0 3.35 0 1.7 0 0 Z " fill="#3C3E8A" transform="translate(98,49)"/>
<path d="M0 0 C6.6 0 13.2 0 20 0 C20 0.99 20 1.98 20 3 C13.4 2.34 6.8 1.68 0 1 C0 0.67 0 0.34 0 0 Z " fill="#41D1D8" transform="translate(14,32)"/>
<path d="M0 0 C0.99 0 1.98 0 3 0 C3 3.96 3 7.92 3 12 C2.01 11.67 1.02 11.34 0 11 C0 7.37 0 3.74 0 0 Z " fill="#3B95D7" transform="translate(41,49)"/>
<path d="M0 0 C3.62528568 -0.20140476 5.86501708 0.14223235 9 2 C9 2.66 9 3.32 9 4 C5.7 4 2.4 4 -1 4 C-0.67 2.68 -0.34 1.36 0 0 Z " fill="#31C6DF" transform="translate(14,59)"/>
<path d="M0 0 C1.98 0 3.96 0 6 0 C6 1.65 6 3.3 6 5 C4.02 5 2.04 5 0 5 C0 3.35 0 1.7 0 0 Z " fill="#A4C4FF" transform="translate(83,81)"/>
<path d="M0 0 C2.0625 0.4375 2.0625 0.4375 4 1 C4 2.32 4 3.64 4 5 C2.68 5.33 1.36 5.66 0 6 C-0.38218767 4.34385343 -0.71395102 2.67542976 -1 1 C-0.67 0.67 -0.34 0.34 0 0 Z " fill="#4BCDDB" transform="translate(22,67)"/>
<path d="M0 0 C0.66 0 1.32 0 2 0 C1.53199289 4.05606165 1.12046792 7.46588679 -1 11 C-1.66 11 -2.32 11 -3 11 C-2.69217504 9.35328588 -2.37860766 7.70764424 -2.0625 6.0625 C-1.88847656 5.14597656 -1.71445312 4.22945313 -1.53515625 3.28515625 C-1 1 -1 1 0 0 Z " fill="#D8F2F7" transform="translate(47,90)"/>
<path d="M0 0 C-0.33 0.66 -0.66 1.32 -1 2 C-4.63 1.67 -8.26 1.34 -12 1 C-12 0.34 -12 -0.32 -12 -1 C-10.56465159 -1.2226746 -9.12654475 -1.42761906 -7.6875 -1.625 C-6.48673828 -1.79902344 -6.48673828 -1.79902344 -5.26171875 -1.9765625 C-3 -2 -3 -2 0 0 Z " fill="#A6DEEA" transform="translate(19,70)"/>
<path d="M0 0 C-0.33 1.32 -0.66 2.64 -1 4 C-4.38023517 4 -6.83468937 3.12544378 -10 2 C-10 1.67 -10 1.34 -10 1 C-3.375 0 -3.375 0 0 0 Z " fill="#51CEE6" transform="translate(123,96)"/>
<path d="M0 0 C1.32 0 2.64 0 4 0 C4.33 1.32 4.66 2.64 5 4 C3.35 4.33 1.7 4.66 0 5 C0 3.35 0 1.7 0 0 Z " fill="#34C1C4" transform="translate(47,97)"/>
<path d="M0 0 C1.21346851 3.64040554 1.21346851 5.35959446 0 9 C-1.32 7.35 -2.64 5.7 -4 4 C-2.68 2.68 -1.36 1.36 0 0 Z " fill="#E5F6F9" transform="translate(40,91)"/>
<path d="M0 0 C2.97 0 5.94 0 9 0 C8.67 1.32 8.34 2.64 8 4 C6.68 3.67 5.36 3.34 4 3 C4.33 2.34 4.66 1.68 5 1 C3.35 1 1.7 1 0 1 C0 0.67 0 0.34 0 0 Z " fill="#5C4BF4" transform="translate(110,87)"/>
<path d="M0 0 C0.33 0 0.66 0 1 0 C1.309375 0.94875 1.61875 1.8975 1.9375 2.875 C2.87394742 5.86080408 2.87394742 5.86080408 4 8 C2.35 8.33 0.7 8.66 -1 9 C-0.67 6.03 -0.34 3.06 0 0 Z " fill="#47CCE8" transform="translate(106,104)"/>
<path d="M0 0 C0.5625 1.9375 0.5625 1.9375 1 4 C0 5 0 5 -2.5625 5.0625 C-3.7690625 5.0315625 -3.7690625 5.0315625 -5 5 C-5 4.01 -5 3.02 -5 2 C-3.35 1.34 -1.7 0.68 0 0 Z " fill="#36E0C1" transform="translate(59,100)"/>
<path d="M0 0 C0.98120464 3.05263664 0.98120464 4.94736336 0 8 C-0.99 7.67 -1.98 7.34 -3 7 C-3.33 6.01 -3.66 5.02 -4 4 C-2.68 2.68 -1.36 1.36 0 0 Z " fill="#3AD0CF" transform="translate(59,89)"/>
<path d="M0 0 C1.65 0 3.3 0 5 0 C5 1.32 5 2.64 5 4 C3.35 4 1.7 4 0 4 C0 2.68 0 1.36 0 0 Z " fill="#3ACFDA" transform="translate(13,71)"/>
<path d="M0 0 C1.32 0 2.64 0 4 0 C3.67 1.65 3.34 3.3 3 5 C2.01 5.33 1.02 5.66 0 6 C0 4.02 0 2.04 0 0 Z " fill="#35AEC6" transform="translate(26,59)"/>
<path d="M0 0 C1.98 0.99 1.98 0.99 4 2 C4 2.99 4 3.98 4 5 C2.02 5.99 2.02 5.99 0 7 C0.2784375 6.1028125 0.2784375 6.1028125 0.5625 5.1875 C1.22093687 2.83591238 1.22093687 2.83591238 0 0 Z " fill="#E3F7F9" transform="translate(52,92)"/>
<path d="M0 0 C0.99 0.33 1.98 0.66 3 1 C2.34 2.32 1.68 3.64 1 5 C-0.32 5 -1.64 5 -3 5 C-1.125 1.125 -1.125 1.125 0 0 Z " fill="#44DDCC" transform="translate(122,58)"/>
<path d="M0 0 C0.66 0.33 1.32 0.66 2 1 C0.68 2.65 -0.64 4.3 -2 6 C-3.65 5.67 -5.3 5.34 -7 5 C-6.67 4.34 -6.34 3.68 -6 3 C-4.66923011 2.65657551 -3.33568021 2.32380126 -2 2 C-1.34 1.34 -0.68 0.68 0 0 Z " fill="#CAF1F5" transform="translate(117,102)"/>
<path d="M0 0 C2.31 0 4.62 0 7 0 C6.01 0.33 5.02 0.66 4 1 C3.67 1.99 3.34 2.98 3 4 C2.01 4 1.02 4 0 4 C0 2.68 0 1.36 0 0 Z " fill="#31C6DE" transform="translate(13,65)"/>
<path d="M0 0 C2 1.3125 2 1.3125 4 3 C4 3.99 4 4.98 4 6 C2.68 5.67 1.36 5.34 0 5 C0 3.35 0 1.7 0 0 Z " fill="#34C2C4" transform="translate(115,57)"/>
</svg>
