<?xml version="1.0" encoding="UTF-8"?>
<svg version="1.1" xmlns="http://www.w3.org/2000/svg" width="150" height="150">
<path d="M0 0 C2.97 0.33 5.94 0.66 9 1 C9 2.98 9 4.96 9 7 C14.55493924 8.02703748 14.55493924 8.02703748 20 7 C20.433125 8.134375 20.86625 9.26875 21.3125 10.4375 C22.3061169 12.45153786 22.3061169 12.45153786 24 14 C26.93713773 14.71501749 29.6179844 14.87371097 32.63671875 14.9296875 C35 15 35 15 36 16 C36.15806531 17.92478813 36.251135 19.8549921 36.31640625 21.78515625 C36.35830078 22.95498047 36.40019531 24.12480469 36.44335938 25.33007812 C36.48267578 26.56177734 36.52199219 27.79347656 36.5625 29.0625 C36.60568359 30.29806641 36.64886719 31.53363281 36.69335938 32.80664062 C36.79984198 35.87097335 36.90185424 38.93539073 37 42 C38.65 42 40.3 42 42 42 C43.60339848 45.11771927 44.18974141 46.39011689 43.125 49.8125 C42.75375 50.534375 42.3825 51.25625 42 52 C42.66 52.33 43.32 52.66 44 53 C43.34 54.65 42.68 56.3 42 58 C39.69 58 37.38 58 35 58 C35 58.99 35 59.98 35 61 C33.35 61 31.7 61 30 61 C29.773125 60.360625 29.54625 59.72125 29.3125 59.0625 C28.14749104 56.72806339 28.14749104 56.72806339 25.375 56.25 C24.59125 56.1675 23.8075 56.085 23 56 C22.505 54.02 22.505 54.02 22 52 C22.66 52 23.32 52 24 52 C23.39816251 49.97954558 22.72693904 47.97888961 22 46 C21.34 45.67 20.68 45.34 20 45 C20 51.6 20 58.2 20 65 C22.31 65 24.62 65 27 65 C28 66 28 66 28.11352539 69.96899414 C28.1133662 71.74105607 28.10766785 73.5131226 28.09765625 75.28515625 C28.0962413 76.21597519 28.09482635 77.14679413 28.09336853 78.1058197 C28.08775172 81.09141191 28.0751964 84.07693029 28.0625 87.0625 C28.05748716 89.08137913 28.05292388 91.10025943 28.04882812 93.11914062 C28.03777683 98.07945572 28.02050095 103.03971532 28 108 C30.31 108.66 32.62 109.32 35 110 C34 112 34 112 32.34521484 112.61450195 C27.49200924 113.41225457 22.54404055 113.18590312 17.63769531 113.18530273 C15.63863013 113.18748512 13.63960468 113.20599143 11.640625 113.22460938 C10.36960937 113.22654297 9.09859375 113.22847656 7.7890625 113.23046875 C6.63100098 113.23457764 5.47293945 113.23868652 4.27978516 113.24291992 C0.88689046 112.99162245 -1.83332989 112.21173908 -5 111 C-4.67 110.34 -4.34 109.68 -4 109 C-1.4375 108.375 -1.4375 108.375 1 108 C0.32142944 107.99191315 -0.35714111 107.98382629 -1.05627441 107.97549438 C-8.19572947 107.88863335 -15.33493245 107.7891071 -22.47412109 107.68261719 C-25.12938188 107.64363425 -27.7845665 107.60971702 -30.43994141 107.578125 C-68.93926359 107.11445232 -68.93926359 107.11445232 -76 103 C-75.505 102.01 -75.505 102.01 -75 101 C-74.34 101 -73.68 101 -73 101 C-73.495 100.01 -73.495 100.01 -74 99 C-76.92713788 98.05065798 -78.42831368 97.76823527 -81.3125 98.9375 C-81.869375 99.288125 -82.42625 99.63875 -83 100 C-85.0625 98.5625 -85.0625 98.5625 -87 96 C-87.05823431 92.92416977 -86.59222907 90.01264352 -86 87 C-87.32 87 -88.64 87 -90 87 C-89.67 84.36 -89.34 81.72 -89 79 C-87.35 79 -85.7 79 -84 79 C-82.58622659 76.36095629 -81.62759865 73.92879371 -81 71 C-78.03 70.505 -78.03 70.505 -75 70 C-74.67 70.99 -74.34 71.98 -74 73 C-73.67 69.37 -73.34 65.74 -73 62 C-77.29 62 -81.58 62 -86 62 C-86.02683436 58.68744674 -86.0467578 55.37510817 -86.0625 52.0625 C-86.07087891 51.11697266 -86.07925781 50.17144531 -86.08789062 49.19726562 C-86.09111328 48.29814453 -86.09433594 47.39902344 -86.09765625 46.47265625 C-86.10289307 45.64000244 -86.10812988 44.80734863 -86.11352539 43.94946289 C-86 42 -86 42 -85 41 C-82.98035801 40.92755947 -80.95832876 40.91622812 -78.9375 40.9375 C-77.28041016 40.95103516 -77.28041016 40.95103516 -75.58984375 40.96484375 C-74.73519531 40.97644531 -73.88054687 40.98804688 -73 41 C-73.061875 39.906875 -73.12375 38.81375 -73.1875 37.6875 C-73 34 -73 34 -71.875 32.28125 C-69.1629604 30.42802294 -67.05676436 30.70784631 -63.8125 30.8125 C-62.72582031 30.83957031 -61.63914062 30.86664063 -60.51953125 30.89453125 C-59.27236328 30.94673828 -59.27236328 30.94673828 -58 31 C-57.67 29.68 -57.34 28.36 -57 27 C-55.17625854 26.970271 -55.17625854 26.970271 -53.31567383 26.93994141 C-48.79609802 26.86375305 -44.2768386 26.77505595 -39.75756836 26.68261719 C-37.80320491 26.64438211 -35.84877241 26.60951973 -33.89428711 26.578125 C-31.08161778 26.53235565 -28.26942161 26.47438077 -25.45703125 26.4140625 C-24.58601273 26.40251129 -23.7149942 26.39096008 -22.81758118 26.37905884 C-18.45198405 26.27333562 -14.97438372 26.02810986 -11 24 C-11.18129815 20.56206661 -11.18129815 20.56206661 -12 17 C-13.93597032 15.48705712 -13.93597032 15.48705712 -16 15 C-14.68775452 11.06326356 -13.08089673 8.77280706 -10 6 C-9.236875 6.37125 -8.47375 6.7425 -7.6875 7.125 C-6.3571875 7.558125 -6.3571875 7.558125 -5 8 C-1.39345961 5.59563974 -1.14547068 4.05320393 0 0 Z M-3 14.0625 C-5.51930235 17.76272533 -5.7066341 19.6031656 -5 24 C-3.59121904 26.9901643 -3.59121904 26.9901643 -1 29 C2.64182335 29.89055736 2.64182335 29.89055736 6 30 C6.03738281 29.01257813 6.07476562 28.02515625 6.11328125 27.0078125 C6.17902344 25.72648437 6.24476562 24.44515625 6.3125 23.125 C6.37050781 21.84882812 6.42851563 20.57265625 6.48828125 19.2578125 C6.65714844 18.18273437 6.82601562 17.10765625 7 16 C7.99 15.34 8.98 14.68 10 14 C8.01607489 11.60148679 8.01607489 11.60148679 4.1875 11.5625 C0.78236185 11.661739 -0.029595 12.02034656 -3 14.0625 Z M28 47 C27.6366844 49.83386167 27.6431329 51.40522151 29.125 53.875 C31.92151052 55.55290631 33.93690532 54.74875648 37 54 C37.67673447 50.59679066 37.67673447 50.59679066 38 47 C36.11499729 44.68436913 36.11499729 44.68436913 33 44.75 C29.88500271 44.68436913 29.88500271 44.68436913 28 47 Z M-79.25 80.625 C-81.21985834 82.92308586 -81.21985834 82.92308586 -81.5 86 C-81.21376982 89.06575838 -81.21376982 89.06575838 -79.3125 91.375 C-76.61209763 93.27258004 -75.22939919 93.35882213 -72 93 C-71.85024761 85.94348748 -71.85024761 85.94348748 -73 79 C-76.92212225 78.60967296 -76.92212225 78.60967296 -79.25 80.625 Z M-66 95 C-66.33 95.66 -66.66 96.32 -67 97 C-66.01 98.485 -66.01 98.485 -65 100 C-52.13 99.01 -52.13 99.01 -39 98 C-38.67 97.01 -38.34 96.02 -38 95 C-47.24 95 -56.48 95 -66 95 Z M-14 95 C-14 95.99 -14 96.98 -14 98 C-8.72 98.33 -3.44 98.66 2 99 C2 97.68 2 96.36 2 95 C-3.28 95 -8.56 95 -14 95 Z " fill="#5E4EF2" transform="translate(99,18)"/>
<path d="M0 0 C2.97 0.33 5.94 0.66 9 1 C9 2.98 9 4.96 9 7 C14.55493924 8.02703748 14.55493924 8.02703748 20 7 C20.433125 8.134375 20.86625 9.26875 21.3125 10.4375 C22.3061169 12.45153786 22.3061169 12.45153786 24 14 C26.93713773 14.71501749 29.6179844 14.87371097 32.63671875 14.9296875 C35 15 35 15 36 16 C36.15806531 17.92478813 36.251135 19.8549921 36.31640625 21.78515625 C36.35830078 22.95498047 36.40019531 24.12480469 36.44335938 25.33007812 C36.48267578 26.56177734 36.52199219 27.79347656 36.5625 29.0625 C36.60568359 30.29806641 36.64886719 31.53363281 36.69335938 32.80664062 C36.79984198 35.87097335 36.90185424 38.93539073 37 42 C38.65 42 40.3 42 42 42 C43.60339848 45.11771927 44.18974141 46.39011689 43.125 49.8125 C42.75375 50.534375 42.3825 51.25625 42 52 C42.66 52.33 43.32 52.66 44 53 C43.34 54.65 42.68 56.3 42 58 C39.69 58 37.38 58 35 58 C35 58.99 35 59.98 35 61 C33.35 61 31.7 61 30 61 C29.773125 60.360625 29.54625 59.72125 29.3125 59.0625 C28.14749104 56.72806339 28.14749104 56.72806339 25.375 56.25 C24.59125 56.1675 23.8075 56.085 23 56 C22.505 54.02 22.505 54.02 22 52 C22.66 52 23.32 52 24 52 C23.39816251 49.97954558 22.72693904 47.97888961 22 46 C21.34 45.67 20.68 45.34 20 45 C20 51.6 20 58.2 20 65 C22.31 65 24.62 65 27 65 C27.33 65.99 27.66 66.98 28 68 C19.19039858 69.30512614 10.80960142 69.30512614 2 68 C2.495 66.515 2.495 66.515 3 65 C7.29 65 11.58 65 16 65 C16 58.4 16 51.8 16 45 C12.7 45 9.4 45 6 45 C6 42.03 6 39.06 6 36 C3.69 36 1.38 36 -1 36 C-0.97679687 36.62648437 -0.95359375 37.25296875 -0.9296875 37.8984375 C-0.91164062 38.71570312 -0.89359375 39.53296875 -0.875 40.375 C-0.85179687 41.18710937 -0.82859375 41.99921875 -0.8046875 42.8359375 C-1 45 -1 45 -3 47 C-5.23913574 47.25396729 -5.23913574 47.25396729 -8.06054688 47.25878906 C-9.64228699 47.26824554 -9.64228699 47.26824554 -11.25598145 47.27789307 C-12.39869507 47.2738446 -13.54140869 47.26979614 -14.71875 47.265625 C-16.47197571 47.26849518 -16.47197571 47.26849518 -18.26062012 47.27142334 C-20.73543513 47.27278626 -23.21025726 47.26908241 -25.68505859 47.26074219 C-29.48421205 47.25004446 -33.28289259 47.26063418 -37.08203125 47.2734375 C-39.48177188 47.27211592 -41.88151222 47.26955357 -44.28125 47.265625 C-45.99532043 47.27169769 -45.99532043 47.27169769 -47.74401855 47.27789307 C-48.79851196 47.27158875 -49.85300537 47.26528442 -50.93945312 47.25878906 C-51.8705188 47.25719788 -52.80158447 47.25560669 -53.76086426 47.25396729 C-56 47 -56 47 -58 45 C-58.1720611 42.29368306 -58.23239017 39.7028606 -58.1875 37 C-58.18685547 36.26265625 -58.18621094 35.5253125 -58.18554688 34.765625 C-58.14050904 29.28101809 -58.14050904 29.28101809 -57 27 C-55.78417236 26.98018066 -54.56834473 26.96036133 -53.31567383 26.93994141 C-48.79609802 26.86375305 -44.2768386 26.77505595 -39.75756836 26.68261719 C-37.80320491 26.64438211 -35.84877241 26.60951973 -33.89428711 26.578125 C-31.08161778 26.53235565 -28.26942161 26.47438077 -25.45703125 26.4140625 C-24.58601273 26.40251129 -23.7149942 26.39096008 -22.81758118 26.37905884 C-18.45198405 26.27333562 -14.97438372 26.02810986 -11 24 C-11.18129815 20.56206661 -11.18129815 20.56206661 -12 17 C-13.93597032 15.48705712 -13.93597032 15.48705712 -16 15 C-14.68775452 11.06326356 -13.08089673 8.77280706 -10 6 C-9.236875 6.37125 -8.47375 6.7425 -7.6875 7.125 C-6.800625 7.41375 -5.91375 7.7025 -5 8 C-1.39345961 5.59563974 -1.14547068 4.05320393 0 0 Z M-3 14.0625 C-5.51930235 17.76272533 -5.7066341 19.6031656 -5 24 C-3.59121904 26.9901643 -3.59121904 26.9901643 -1 29 C2.64182335 29.89055736 2.64182335 29.89055736 6 30 C6.03738281 29.01257813 6.07476562 28.02515625 6.11328125 27.0078125 C6.17902344 25.72648437 6.24476562 24.44515625 6.3125 23.125 C6.37050781 21.84882812 6.42851563 20.57265625 6.48828125 19.2578125 C6.65714844 18.18273437 6.82601562 17.10765625 7 16 C7.99 15.34 8.98 14.68 10 14 C8.01607489 11.60148679 8.01607489 11.60148679 4.1875 11.5625 C0.78236185 11.661739 -0.029595 12.02034656 -3 14.0625 Z M28 47 C27.6366844 49.83386167 27.6431329 51.40522151 29.125 53.875 C31.92151052 55.55290631 33.93690532 54.74875648 37 54 C37.67673447 50.59679066 37.67673447 50.59679066 38 47 C36.11499729 44.68436913 36.11499729 44.68436913 33 44.75 C29.88500271 44.68436913 29.88500271 44.68436913 28 47 Z " fill="#38D0CC" transform="translate(99,18)"/>
<path d="M0 0 C1.85776765 3.13498292 2.20140476 5.37471432 2 9 C1.030625 9.28875 0.06125 9.5775 -0.9375 9.875 C-4.10664203 10.64214682 -4.10664203 10.64214682 -5 13 C-5.0689472 14.37342831 -5.08467708 15.75002102 -5.0625 17.125 C-5.041875 18.40375 -5.02125 19.6825 -5 21 C-2.36 21.66 0.28 22.32 3 23 C3 20.03 3 17.06 3 14 C4.98 14 6.96 14 9 14 C9.33 14.66 9.66 15.32 10 16 C18.25 16 26.5 16 35 16 C35.33 15.34 35.66 14.68 36 14 C49.53 14 63.06 14 77 14 C77 17.63 77 21.26 77 25 C71.72 25 66.44 25 61 25 C61 25.99 61 26.98 61 28 C61.56847656 27.98839844 62.13695313 27.97679688 62.72265625 27.96484375 C67.60670484 27.90776806 72.18503965 28.18043228 77 29 C77 31.64 77 34.28 77 37 C69.71409984 37.04682155 62.42823335 37.08211748 55.14221191 37.10362434 C51.75718789 37.11395864 48.37226851 37.12792229 44.98730469 37.15087891 C6.5625541 37.39227608 6.5625541 37.39227608 -1 33 C-0.67 32.34 -0.34 31.68 0 31 C0.66 31 1.32 31 2 31 C1.67 30.34 1.34 29.68 1 29 C-1.92713788 28.05065798 -3.42831368 27.76823527 -6.3125 28.9375 C-6.869375 29.288125 -7.42625 29.63875 -8 30 C-10.0625 28.5625 -10.0625 28.5625 -12 26 C-12.05823431 22.92416977 -11.59222907 20.01264352 -11 17 C-12.32 17 -13.64 17 -15 17 C-14.67 14.36 -14.34 11.72 -14 9 C-12.35 9 -10.7 9 -9 9 C-7.88158632 6.91229447 -7.0291824 5.14591199 -6.5625 2.8125 C-6.376875 2.214375 -6.19125 1.61625 -6 1 C-3 0 -3 0 0 0 Z M9 25 C8.67 25.66 8.34 26.32 8 27 C8.99 28.485 8.99 28.485 10 30 C22.87 29.01 22.87 29.01 36 28 C36.33 27.01 36.66 26.02 37 25 C27.76 25 18.52 25 9 25 Z " fill="#B2CFFE" transform="translate(24,88)"/>
<path d="M0 0 C1.08667969 0.02707031 2.17335938 0.05414063 3.29296875 0.08203125 C4.54013672 0.13423828 4.54013672 0.13423828 5.8125 0.1875 C5.87308594 1.18652344 5.93367188 2.18554688 5.99609375 3.21484375 C6.12177734 5.15037109 6.12177734 5.15037109 6.25 7.125 C6.33121094 8.41277344 6.41242187 9.70054688 6.49609375 11.02734375 C6.46169188 14.04773957 6.46169188 14.04773957 7.8125 15.1875 C9.22577947 15.34370555 10.6460459 15.43806173 12.06640625 15.50390625 C12.92041016 15.54580078 13.77441406 15.58769531 14.65429688 15.63085938 C15.55212891 15.67017578 16.44996094 15.70949219 17.375 15.75 C18.27669922 15.79318359 19.17839844 15.83636719 20.10742188 15.88085938 C22.34228485 15.98728142 24.57726308 16.08929988 26.8125 16.1875 C26.338125 16.64125 25.86375 17.095 25.375 17.5625 C23.72222192 19.12008204 23.72222192 19.12008204 22.8125 21.1875 C22.1525 21.1875 21.4925 21.1875 20.8125 21.1875 C20.4825 21.8475 20.1525 22.5075 19.8125 23.1875 C19.4825 22.8575 19.1525 22.5275 18.8125 22.1875 C18.214375 22.950625 17.61625 23.71375 17 24.5 C13.47577181 28.82976606 10.46056161 32.01893553 4.8125 33.1875 C5.1425 34.1775 5.4725 35.1675 5.8125 36.1875 C7.74416016 36.27837891 7.74416016 36.27837891 9.71484375 36.37109375 C11.39324159 36.45548247 13.07162636 36.5401313 14.75 36.625 C16.02520508 36.68397461 16.02520508 36.68397461 17.32617188 36.74414062 C18.53950195 36.80698242 18.53950195 36.80698242 19.77734375 36.87109375 C20.90064087 36.92608032 20.90064087 36.92608032 22.04663086 36.98217773 C23.8125 37.1875 23.8125 37.1875 24.8125 38.1875 C24.91236975 41.03085048 24.95127881 43.84447163 24.9375 46.6875 C24.94330078 47.88439453 24.94330078 47.88439453 24.94921875 49.10546875 C24.93910767 55.06089233 24.93910767 55.06089233 23.8125 56.1875 C21.95880389 56.27487645 20.10182459 56.29448153 18.24609375 56.28515625 C17.12138672 56.28193359 15.99667969 56.27871094 14.83789062 56.27539062 C13.65388672 56.26701172 12.46988281 56.25863281 11.25 56.25 C10.06212891 56.24548828 8.87425781 56.24097656 7.65039062 56.23632812 C4.70437774 56.22449675 1.75846319 56.20801287 -1.1875 56.1875 C-1.5175 55.1975 -1.8475 54.2075 -2.1875 53.1875 C-4.4975 53.1875 -6.8075 53.1875 -9.1875 53.1875 C-9.1875 45.9275 -9.1875 38.6675 -9.1875 31.1875 C-13.4775 31.1875 -17.7675 31.1875 -22.1875 31.1875 C-22.21433436 27.87494674 -22.2342578 24.56260817 -22.25 21.25 C-22.25837891 20.30447266 -22.26675781 19.35894531 -22.27539062 18.38476562 C-22.27861328 17.48564453 -22.28183594 16.58652344 -22.28515625 15.66015625 C-22.29039307 14.82750244 -22.29562988 13.99484863 -22.30102539 13.13696289 C-22.1875 11.1875 -22.1875 11.1875 -21.1875 10.1875 C-19.16785801 10.11505947 -17.14582876 10.10372812 -15.125 10.125 C-13.46791016 10.13853516 -13.46791016 10.13853516 -11.77734375 10.15234375 C-10.92269531 10.16394531 -10.06804688 10.17554688 -9.1875 10.1875 C-9.249375 9.094375 -9.31125 8.00125 -9.375 6.875 C-9.1875 3.1875 -9.1875 3.1875 -8.0625 1.46875 C-5.3504604 -0.38447706 -3.24426436 -0.10465369 0 0 Z " fill="#5E4EFD" transform="translate(35.1875,48.8125)"/>
<path d="M0 0 C2.31 0 4.62 0 7 0 C7.05422947 1.4370809 7.09289723 2.87475462 7.125 4.3125 C7.14820312 5.11300781 7.17140625 5.91351563 7.1953125 6.73828125 C7 9 7 9 5 12 C4.01 12 3.02 12 2 12 C2.495 13.98 2.495 13.98 3 16 C0 17.5 0 17.5 -3 19 C-3.495 18.01 -3.495 18.01 -4 17 C-4.495 19.475 -4.495 19.475 -5 22 C-5.66 22 -6.32 22 -7 22 C-7.0825 22.78375 -7.165 23.5675 -7.25 24.375 C-8 27 -8 27 -9.75 28.25 C-12.15143459 29.0504782 -14.50429527 29.58404921 -17 30 C-16.01 30.99 -15.02 31.98 -14 33 C-15.134375 33.45375 -16.26875 33.9075 -17.4375 34.375 C-21.04721692 35.57095806 -21.04721692 35.57095806 -22 38 C-24.32156597 38.40729228 -26.6568787 38.74438677 -29 39 C-28.67 39.66 -28.34 40.32 -28 41 C-21.62499632 42.35010597 -15.05526223 42.32745045 -8.5625 42.5625 C-7.44939453 42.60568359 -6.33628906 42.64886719 -5.18945312 42.69335938 C-2.45974156 42.79879888 0.27005143 42.90092029 3 43 C3 44.65 3 46.3 3 48 C-10.53 48 -24.06 48 -38 48 C-38.33 43.05 -38.66 38.1 -39 33 C-44.94 32.67 -50.88 32.34 -57 32 C-57.66 30.68 -58.32 29.36 -59 28 C-57 26 -57 26 -54.4375 25.5 C-53.2309375 25.2525 -53.2309375 25.2525 -52 25 C-51.67 24.34 -51.34 23.68 -51 23 C-50.34 23 -49.68 23 -49 23 C-48.731875 22.21625 -48.46375 21.4325 -48.1875 20.625 C-47 18 -47 18 -44 16 C-43.34 16 -42.68 16 -42 16 C-40.97803008 15.02246356 -39.98020375 14.0194119 -39 13 C-35.34554842 10.56369895 -32.53595292 10.67019474 -28.3046875 10.62109375 C-27.55663849 10.60409927 -26.80858948 10.5871048 -26.03787231 10.56959534 C-23.65033374 10.51649081 -21.26281264 10.47616806 -18.875 10.4375 C-16.48013325 10.3936125 -14.085403 10.34697059 -11.69070435 10.29469299 C-10.20063522 10.26266482 -8.71044492 10.235797 -7.22018433 10.21446228 C-3.82146577 10.44375088 -3.82146577 10.44375088 -1 9 C-0.76807135 7.48530552 -0.58784762 5.96245438 -0.4375 4.4375 C-0.35371094 3.61121094 -0.26992187 2.78492188 -0.18359375 1.93359375 C-0.09271484 0.97646484 -0.09271484 0.97646484 0 0 Z " fill="#6B72FE" transform="translate(98,54)"/>
<path d="M0 0 C2.97 0.33 5.94 0.66 9 1 C9 2.98 9 4.96 9 7 C14.55493924 8.02703748 14.55493924 8.02703748 20 7 C20.433125 8.134375 20.86625 9.26875 21.3125 10.4375 C22.3061169 12.45153786 22.3061169 12.45153786 24 14 C26.93713773 14.71501749 29.6179844 14.87371097 32.63671875 14.9296875 C35 15 35 15 36 16 C36.15806531 17.92478813 36.251135 19.8549921 36.31640625 21.78515625 C36.35830078 22.95498047 36.40019531 24.12480469 36.44335938 25.33007812 C36.48267578 26.56177734 36.52199219 27.79347656 36.5625 29.0625 C36.60568359 30.29806641 36.64886719 31.53363281 36.69335938 32.80664062 C36.79984198 35.87097335 36.90185424 38.93539073 37 42 C38.65 42 40.3 42 42 42 C43.60339848 45.11771927 44.18974141 46.39011689 43.125 49.8125 C42.75375 50.534375 42.3825 51.25625 42 52 C42.99 52.495 42.99 52.495 44 53 C43.34 54.65 42.68 56.3 42 58 C39.69 58 37.38 58 35 58 C35 58.99 35 59.98 35 61 C33.35 61 31.7 61 30 61 C29.6596875 60.0409375 29.6596875 60.0409375 29.3125 59.0625 C28.14749104 56.72806339 28.14749104 56.72806339 25.375 56.25 C24.59125 56.1675 23.8075 56.085 23 56 C22.505 54.02 22.505 54.02 22 52 C22.66 52 23.32 52 24 52 C23.39816251 49.97954558 22.72693904 47.97888961 22 46 C21.01 45.505 21.01 45.505 20 45 C19.65458149 42.66842508 19.32205743 40.33491639 19 38 C18.34 37.01 17.68 36.02 17 35 C17.66 35 18.32 35 19 35 C17.40733826 31.86729591 17.40733826 31.86729591 15.12060547 31.56762695 C14.37697754 31.54144287 13.63334961 31.51525879 12.8671875 31.48828125 C12.06152344 31.45283203 11.25585938 31.41738281 10.42578125 31.38085938 C9.58402344 31.35830078 8.74226563 31.33574219 7.875 31.3125 C7.02550781 31.27833984 6.17601563 31.24417969 5.30078125 31.20898438 C3.20098895 31.12640827 1.10051436 31.06153022 -1 31 C-1 30.34 -1 29.68 -1 29 C1.31 29.33 3.62 29.66 6 30 C5.94779297 28.51886719 5.94779297 28.51886719 5.89453125 27.0078125 C5.86746094 25.72648437 5.84039062 24.44515625 5.8125 23.125 C5.76029297 21.21074219 5.76029297 21.21074219 5.70703125 19.2578125 C5.80371094 18.18273437 5.90039062 17.10765625 6 16 C6.99 15.34 7.98 14.68 9 14 C7.78410016 12.56844101 7.78410016 12.56844101 4.1875 12.6875 C1.1692278 12.74168801 0.13824172 12.91359892 -2.5 14.5625 C-4.53366895 17.86721204 -4.3468602 20.18453778 -4 24 C-3.67 24.99 -3.34 25.98 -3 27 C-7.29 27 -11.58 27 -16 27 C-15.01 26.01 -14.02 25.02 -13 24 C-12.34 24 -11.68 24 -11 24 C-11.18129815 20.56206661 -11.18129815 20.56206661 -12 17 C-13.93597032 15.48705712 -13.93597032 15.48705712 -16 15 C-14.68775452 11.06326356 -13.08089673 8.77280706 -10 6 C-9.236875 6.37125 -8.47375 6.7425 -7.6875 7.125 C-6.800625 7.41375 -5.91375 7.7025 -5 8 C-1.39345961 5.59563974 -1.14547068 4.05320393 0 0 Z M28 47 C27.6366844 49.83386167 27.6431329 51.40522151 29.125 53.875 C31.92151052 55.55290631 33.93690532 54.74875648 37 54 C37.67673447 50.59679066 37.67673447 50.59679066 38 47 C36.11499729 44.68436913 36.11499729 44.68436913 33 44.75 C29.88500271 44.68436913 29.88500271 44.68436913 28 47 Z " fill="#36D8CB" transform="translate(99,18)"/>
<path d="M0 0 C0 6.6 0 13.2 0 20 C-4.29 20 -8.58 20 -13 20 C-13.33 24.62 -13.66 29.24 -14 34 C-17.85421425 34.02707879 -21.70823638 34.04687762 -25.5625 34.0625 C-26.64853516 34.07087891 -27.73457031 34.07925781 -28.85351562 34.08789062 C-42.73980363 34.13009819 -42.73980363 34.13009819 -47 32 C-46.505 30.515 -46.505 30.515 -46 29 C-45.05125 28.87625 -44.1025 28.7525 -43.125 28.625 C-39.91332809 28.28312823 -39.91332809 28.28312823 -38 26 C-36.34738161 24.97695052 -34.68208635 23.97383946 -33 23 C-33.66 22.67 -34.32 22.34 -35 22 C-34.67 21.34 -34.34 20.68 -34 20 C-32.35 20 -30.7 20 -29 20 C-28.67 19.34 -28.34 18.68 -28 18 C-27.01 17.67 -26.02 17.34 -25 17 C-24.67 15.35 -24.34 13.7 -24 12 C-23.67 12 -23.34 12 -23 12 C-22.67 10.02 -22.34 8.04 -22 6 C-21.01 6.99 -20.02 7.98 -19 9 C-17.62437146 7.71034824 -16.29233607 6.37310707 -15 5 C-15 4.34 -15 3.68 -15 3 C-10.56832137 -1.35781732 -5.86763853 -0.20955852 0 0 Z " fill="#7183FE" transform="translate(115,63)"/>
<path d="M0 0 C1.85776765 3.13498292 2.20140476 5.37471432 2 9 C1.030625 9.28875 0.06125 9.5775 -0.9375 9.875 C-4.10664203 10.64214682 -4.10664203 10.64214682 -5 13 C-5.0689472 14.37342831 -5.08467708 15.75002102 -5.0625 17.125 C-5.041875 18.40375 -5.02125 19.6825 -5 21 C1.88824069 23.40990104 1.88824069 23.40990104 9 25 C9.33 26.32 9.66 27.64 10 29 C18.58 28.67 27.16 28.34 36 28 C35.67 28.66 35.34 29.32 35 30 C32.35139573 30.59355614 29.70802678 30.74209269 27 31 C27 31.66 27 32.32 27 33 C41.19 33 55.38 33 70 33 C69.67 32.34 69.34 31.68 69 31 C67.845 30.835 66.69 30.67 65.5 30.5 C64.345 30.335 63.19 30.17 62 30 C61.505 29.01 61.505 29.01 61 28 C66.45769811 27.88861841 71.61509359 28.08342019 77 29 C77 31.64 77 34.28 77 37 C69.71409984 37.04682155 62.42823335 37.08211748 55.14221191 37.10362434 C51.75718789 37.11395864 48.37226851 37.12792229 44.98730469 37.15087891 C6.5625541 37.39227608 6.5625541 37.39227608 -1 33 C-0.67 32.34 -0.34 31.68 0 31 C0.66 31 1.32 31 2 31 C1.67 30.34 1.34 29.68 1 29 C-1.92713788 28.05065798 -3.42831368 27.76823527 -6.3125 28.9375 C-6.869375 29.288125 -7.42625 29.63875 -8 30 C-10.0625 28.5625 -10.0625 28.5625 -12 26 C-12.05823431 22.92416977 -11.59222907 20.01264352 -11 17 C-12.32 17 -13.64 17 -15 17 C-14.67 14.36 -14.34 11.72 -14 9 C-12.35 9 -10.7 9 -9 9 C-7.88158632 6.91229447 -7.0291824 5.14591199 -6.5625 2.8125 C-6.376875 2.214375 -6.19125 1.61625 -6 1 C-3 0 -3 0 0 0 Z " fill="#EAEBF2" transform="translate(24,88)"/>
<path d="M0 0 C16.83 0 33.66 0 51 0 C51 3.96 51 7.92 51 12 C34.17 12 17.34 12 0 12 C0 8.04 0 4.08 0 0 Z " fill="#41468D" transform="translate(44,47)"/>
<path d="M0 0 C1.12019531 -0.00128906 2.24039063 -0.00257812 3.39453125 -0.00390625 C4.57402344 -0.00003906 5.75351562 0.00382812 6.96875 0.0078125 C8.73798828 0.00201172 8.73798828 0.00201172 10.54296875 -0.00390625 C12.22326172 -0.00197266 12.22326172 -0.00197266 13.9375 0 C14.97326172 0.00112793 16.00902344 0.00225586 17.07617188 0.00341797 C19.46875 0.1328125 19.46875 0.1328125 20.46875 1.1328125 C20.56861975 3.97616298 20.60752881 6.78978413 20.59375 9.6328125 C20.59955078 10.82970703 20.59955078 10.82970703 20.60546875 12.05078125 C20.59535767 18.00620483 20.59535767 18.00620483 19.46875 19.1328125 C17.62715977 19.23240871 15.78178033 19.26361661 13.9375 19.265625 C12.81730469 19.26691406 11.69710937 19.26820312 10.54296875 19.26953125 C9.36347656 19.26566406 8.18398438 19.26179688 6.96875 19.2578125 C5.19951172 19.26361328 5.19951172 19.26361328 3.39453125 19.26953125 C1.71423828 19.26759766 1.71423828 19.26759766 0 19.265625 C-1.03576172 19.26449707 -2.07152344 19.26336914 -3.13867188 19.26220703 C-5.53125 19.1328125 -5.53125 19.1328125 -6.53125 18.1328125 C-6.63111975 15.28946202 -6.67002881 12.47584087 -6.65625 9.6328125 C-6.66011719 8.83488281 -6.66398437 8.03695312 -6.66796875 7.21484375 C-6.65573175 0.007248 -6.65573175 0.007248 0 0 Z " fill="#38D5C9" transform="translate(39.53125,85.8671875)"/>
<path d="M0 0 C1.98 0 3.96 0 6 0 C6.33 0.66 6.66 1.32 7 2 C15.25 2 23.5 2 32 2 C32.33 1.34 32.66 0.68 33 0 C39.93 0 46.86 0 54 0 C54.495 1.485 54.495 1.485 55 3 C54.38125 3.391875 53.7625 3.78375 53.125 4.1875 C50.66180129 6.28846361 50.0891733 8.00232034 49 11 C42.18238106 11.0252689 35.36477411 11.04283244 28.54711914 11.05493164 C26.22582549 11.05997333 23.90453503 11.06680651 21.58325195 11.07543945 C18.25471205 11.08751225 14.92621398 11.09322979 11.59765625 11.09765625 C10.03048607 11.10539818 10.03048607 11.10539818 8.43165588 11.11329651 C7.47073532 11.11337204 6.50981476 11.11344757 5.51977539 11.11352539 C4.66928116 11.115746 3.81878693 11.11796661 2.94252014 11.12025452 C1 11 1 11 0 10 C-0.07205511 8.31391034 -0.08386068 6.62499341 -0.0625 4.9375 C-0.05347656 4.01839844 -0.04445313 3.09929687 -0.03515625 2.15234375 C-0.02355469 1.44207031 -0.01195313 0.73179688 0 0 Z " fill="#BBD5FE" transform="translate(27,102)"/>
<path d="M0 0 C1.27133789 0.00966797 1.27133789 0.00966797 2.56835938 0.01953125 C3.8899707 0.04466797 3.8899707 0.04466797 5.23828125 0.0703125 C6.57729492 0.08384766 6.57729492 0.08384766 7.94335938 0.09765625 C10.14610439 0.12121502 12.34830713 0.15410921 14.55078125 0.1953125 C14.55078125 1.5153125 14.55078125 2.8353125 14.55078125 4.1953125 C11.80078125 6.9453125 11.80078125 6.9453125 8.55078125 9.1953125 C7.23078125 9.1953125 5.91078125 9.1953125 4.55078125 9.1953125 C3.09015275 11.84270166 2.55078125 13.08979584 2.55078125 16.1953125 C1.56078125 16.5253125 0.57078125 16.8553125 -0.44921875 17.1953125 C-0.77921875 17.8553125 -1.10921875 18.5153125 -1.44921875 19.1953125 C-2.43921875 18.8653125 -3.42921875 18.5353125 -4.44921875 18.1953125 C-4.77921875 18.1953125 -5.10921875 18.1953125 -5.44921875 18.1953125 C-5.77921875 19.1853125 -6.10921875 20.1753125 -6.44921875 21.1953125 C-12.71921875 21.1953125 -18.98921875 21.1953125 -25.44921875 21.1953125 C-26.10921875 19.8753125 -26.76921875 18.5553125 -27.44921875 17.1953125 C-25.44921875 15.1953125 -25.44921875 15.1953125 -22.88671875 14.6953125 C-22.08234375 14.5303125 -21.27796875 14.3653125 -20.44921875 14.1953125 C-20.11921875 13.5353125 -19.78921875 12.8753125 -19.44921875 12.1953125 C-18.78921875 12.1953125 -18.12921875 12.1953125 -17.44921875 12.1953125 C-17.18109375 11.4115625 -16.91296875 10.6278125 -16.63671875 9.8203125 C-15.44921875 7.1953125 -15.44921875 7.1953125 -12.44921875 5.1953125 C-11.78921875 5.1953125 -11.12921875 5.1953125 -10.44921875 5.1953125 C-9.42724883 4.21777606 -8.4294225 3.2147244 -7.44921875 2.1953125 C-4.2960709 0.09321393 -3.58818794 -0.0481636 0 0 Z " fill="#655CFE" transform="translate(66.44921875,64.8046875)"/>
<path d="M0 0 C2.64 0 5.28 0 8 0 C8 12.54 8 25.08 8 38 C-0.25 38 -8.5 38 -17 38 C-17.125 25.375 -17.125 25.375 -16 22 C-15.34 22 -14.68 22 -14 22 C-13.67 23.65 -13.34 25.3 -13 27 C-7.39 27.33 -1.78 27.66 4 28 C3.67 22.39 3.34 16.78 3 11 C-2.445 10.505 -2.445 10.505 -8 10 C-7.33333333 8.66666667 -6.66666667 7.33333333 -6 6 C-5.34 6 -4.68 6 -4 6 C-3.67 5.34 -3.34 4.68 -3 4 C-2.01 4 -1.02 4 0 4 C0 2.68 0 1.36 0 0 Z " fill="#7181FE" transform="translate(119,86)"/>
<path d="M0 0 C0.83265381 0.00523682 1.66530762 0.01047363 2.52319336 0.01586914 C3.33280518 0.0183667 4.14241699 0.02086426 4.9765625 0.0234375 C6.01159912 0.0325415 7.04663574 0.04164551 8.11303711 0.05102539 C11.39241211 0.07165039 14.67178711 0.09227539 18.05053711 0.11352539 C18.05053711 7.04352539 18.05053711 13.97352539 18.05053711 21.11352539 C11.12053711 21.11352539 4.19053711 21.11352539 -2.94946289 21.11352539 C-2.97008789 17.83415039 -2.99071289 14.55477539 -3.01196289 11.17602539 C-3.02106689 10.14098877 -3.0301709 9.10595215 -3.03955078 8.03955078 C-3.04329712 6.82513306 -3.04329712 6.82513306 -3.04711914 5.58618164 C-3.05235596 4.75352783 -3.05759277 3.92087402 -3.06298828 3.06298828 C-2.90876673 0.41468917 -2.64829911 0.15422155 0 0 Z " fill="#34C9DD" transform="translate(15.949462890625,58.886474609375)"/>
<path d="M0 0 C2.97 0.33 5.94 0.66 9 1 C9 2.98 9 4.96 9 7 C13.20594226 7.72795155 15.80104745 8.04973814 20 7 C21.32 9.64 22.64 12.28 24 15 C21.70858714 15.05384521 19.41681812 15.09272087 17.125 15.125 C15.21074219 15.15980469 15.21074219 15.15980469 13.2578125 15.1953125 C10 15 10 15 8 13 C2.43622348 12.41262964 2.43622348 12.41262964 -2.5 14.5625 C-4.53366895 17.86721204 -4.3468602 20.18453778 -4 24 C-3.67 24.99 -3.34 25.98 -3 27 C-7.29 27 -11.58 27 -16 27 C-15.01 26.01 -14.02 25.02 -13 24 C-12.34 24 -11.68 24 -11 24 C-11.18129815 20.56206661 -11.18129815 20.56206661 -12 17 C-13.93597032 15.48705712 -13.93597032 15.48705712 -16 15 C-14.68775452 11.06326356 -13.08089673 8.77280706 -10 6 C-9.236875 6.37125 -8.47375 6.7425 -7.6875 7.125 C-6.800625 7.41375 -5.91375 7.7025 -5 8 C-1.39345961 5.59563974 -1.14547068 4.05320393 0 0 Z " fill="#E9EBF1" transform="translate(99,18)"/>
<path d="M0 0 C5.94 0 11.88 0 18 0 C20 4 20 4 20 6 C20.33 6.33 20.66 6.66 21 7 C21.08758003 8.99964982 21.10696576 11.0023611 21.09765625 13.00390625 C21.09443359 14.21884766 21.09121094 15.43378906 21.08789062 16.68554688 C21.07951172 17.96494141 21.07113281 19.24433594 21.0625 20.5625 C21.05798828 21.84576172 21.05347656 23.12902344 21.04882812 24.45117188 C21.03699545 27.63416022 21.02051068 30.81705762 21 34 C23.31 34 25.62 34 28 34 C28.33 34.99 28.66 35.98 29 37 C20.19039858 38.30512614 11.80960142 38.30512614 3 37 C3.33 36.01 3.66 35.02 4 34 C8.29 34 12.58 34 17 34 C17 27.4 17 20.8 17 14 C13.7 14 10.4 14 7 14 C7 11.03 7 8.06 7 5 C4.69 5 2.38 5 0 5 C0 3.35 0 1.7 0 0 Z " fill="#39C5D7" transform="translate(98,49)"/>
<path d="M0 0 C1.12535156 0.00580078 1.12535156 0.00580078 2.2734375 0.01171875 C3.02367188 0.00785156 3.77390625 0.00398438 4.546875 0 C10.14682697 0.01010822 10.14682697 0.01010822 11.2734375 1.13671875 C11.34668918 3.99939442 11.36581955 6.83743775 11.3359375 9.69921875 C11.33142578 10.50552734 11.32691406 11.31183594 11.32226562 12.14257812 C11.31044268 14.14065631 11.29250664 16.13869658 11.2734375 18.13671875 C8.46087469 18.16356187 5.64856509 18.18348063 2.8359375 18.19921875 C2.03349609 18.20759766 1.23105469 18.21597656 0.40429688 18.22460938 C-1.63951471 18.23323305 -3.68340152 18.18900025 -5.7265625 18.13671875 C-7.54772253 16.31555872 -6.8589133 13.83000111 -6.86328125 11.41015625 C-6.85941406 10.65992187 -6.85554688 9.9096875 -6.8515625 9.13671875 C-6.85542969 8.38648437 -6.85929687 7.63625 -6.86328125 6.86328125 C-6.8512779 0.21342273 -6.64985852 0.01200335 0 0 Z " fill="#3DD0E3" transform="translate(111.7265625,95.86328125)"/>
<path d="M0 0 C1.25554687 -0.00128906 2.51109375 -0.00257812 3.8046875 -0.00390625 C4.46178711 -0.00181152 5.11888672 0.0002832 5.79589844 0.00244141 C7.80411335 0.00779016 9.81210459 0.00249559 11.8203125 -0.00390625 C13.07585937 -0.00261719 14.33140625 -0.00132813 15.625 0 C16.78644531 0.00112793 17.94789063 0.00225586 19.14453125 0.00341797 C21.8125 0.1328125 21.8125 0.1328125 22.8125 1.1328125 C22.88455511 2.81890216 22.89636068 4.50781909 22.875 6.1953125 C22.86597656 7.11441406 22.85695312 8.03351562 22.84765625 8.98046875 C22.83605469 9.69074219 22.82445312 10.40101562 22.8125 11.1328125 C19.53486256 11.1328125 17.75231024 10.52922236 14.8125 9.1328125 C14.3175 8.5965625 13.8225 8.0603125 13.3125 7.5078125 C11.8373062 5.89841922 11.8373062 5.89841922 9.3125 5.7578125 C6.28664658 6.21169051 5.91163409 7.01354283 3.8125 9.1328125 C2.32097973 10.0766444 0.79749142 10.97135921 -0.75 11.8203125 C-1.92755859 12.47580078 -1.92755859 12.47580078 -3.12890625 13.14453125 C-5.1875 14.1328125 -5.1875 14.1328125 -7.1875 14.1328125 C-7.21435938 11.98704613 -7.23383088 9.84118605 -7.25 7.6953125 C-7.26160156 6.50035156 -7.27320312 5.30539063 -7.28515625 4.07421875 C-7.11114431 -1.16702086 -4.66394941 0.00452936 0 0 Z " fill="#38D2D4" transform="translate(112.1875,32.8671875)"/>
<path d="M0 0 C0.83265381 0.00523682 1.66530762 0.01047363 2.52319336 0.01586914 C3.42231445 0.0190918 4.32143555 0.02231445 5.24780273 0.02563477 C6.66609375 0.03820312 6.66609375 0.03820312 8.11303711 0.05102539 C9.06243164 0.05553711 10.01182617 0.06004883 10.98999023 0.06469727 C13.34356776 0.07652429 15.69702188 0.09300514 18.05053711 0.11352539 C18.07740264 2.09261937 18.09687086 4.0718151 18.11303711 6.05102539 C18.12463867 7.15317383 18.13624023 8.25532227 18.14819336 9.39086914 C18.05053711 12.11352539 18.05053711 12.11352539 17.05053711 13.11352539 C14.06187069 13.21363835 11.10143258 13.25226514 8.11303711 13.23852539 C7.27579102 13.24239258 6.43854492 13.24625977 5.57592773 13.25024414 C4.77477539 13.24895508 3.97362305 13.24766602 3.14819336 13.24633789 C2.41093018 13.24520996 1.67366699 13.24408203 0.9140625 13.24291992 C-0.94946289 13.11352539 -0.94946289 13.11352539 -2.94946289 12.11352539 C-2.97633568 10.30110487 -2.99580005 8.48857306 -3.01196289 6.67602539 C-3.02356445 5.66668945 -3.03516602 4.65735352 -3.04711914 3.61743164 C-2.91264894 0.16961575 -2.91264894 0.16961575 0 0 Z " fill="#33CDD8" transform="translate(15.949462890625,31.886474609375)"/>
<path d="M0 0 C1.08667969 0.02707031 2.17335938 0.05414063 3.29296875 0.08203125 C4.54013672 0.13423828 4.54013672 0.13423828 5.8125 0.1875 C5.85117187 1.65123047 5.85117187 1.65123047 5.890625 3.14453125 C5.94734375 4.41683594 6.0040625 5.68914063 6.0625 7 C6.10890625 8.26457031 6.1553125 9.52914062 6.203125 10.83203125 C6.48506221 14.25902839 6.48506221 14.25902839 8.859375 16.13671875 C9.50390625 16.48347656 10.1484375 16.83023438 10.8125 17.1875 C10.1525 17.1875 9.4925 17.1875 8.8125 17.1875 C8.8125 17.8475 8.8125 18.5075 8.8125 19.1875 C8.1525 19.1875 7.4925 19.1875 6.8125 19.1875 C6.8125 18.1975 6.8125 17.2075 6.8125 16.1875 C5.8225 17.1775 4.8325 18.1675 3.8125 19.1875 C4.328125 19.6 4.84375 20.0125 5.375 20.4375 C6.0865625 21.30375 6.0865625 21.30375 6.8125 22.1875 C6.5 24.375 6.5 24.375 5.8125 26.1875 C5.1525 26.1875 4.4925 26.1875 3.8125 26.1875 C3.8125 26.8475 3.8125 27.5075 3.8125 28.1875 C2.8225 28.1875 1.8325 28.1875 0.8125 28.1875 C0.4825 28.8475 0.1525 29.5075 -0.1875 30.1875 C-0.5175 23.5875 -0.8475 16.9875 -1.1875 10.1875 C-3.8275 10.1875 -6.4675 10.1875 -9.1875 10.1875 C-9.55218886 3.74466353 -9.55218886 3.74466353 -8.0625 1.46875 C-5.3504604 -0.38447706 -3.24426436 -0.10465369 0 0 Z " fill="#5A38FE" transform="translate(35.1875,48.8125)"/>
<path d="M0 0 C0.99 0 1.98 0 3 0 C3 3.3 3 6.6 3 10 C19.83 10 36.66 10 54 10 C54 10.33 54 10.66 54 11 C42.78 11.33 31.56 11.66 20 12 C20 12.66 20 13.32 20 14 C31.55 14.33 43.1 14.66 55 15 C55 15.33 55 15.66 55 16 C47.48863592 16.05057965 39.97731551 16.08568257 32.46582031 16.10986328 C29.90883747 16.11994038 27.35186621 16.13360226 24.79492188 16.15087891 C21.12627308 16.17505217 17.45777621 16.18646585 13.7890625 16.1953125 C12.0655809 16.21079636 12.0655809 16.21079636 10.30728149 16.22659302 C9.2463327 16.22674408 8.18538391 16.22689514 7.09228516 16.22705078 C6.15518707 16.231492 5.21808899 16.23593323 4.25259399 16.24050903 C2 16 2 16 0 14 C-0.1953125 10.7421875 -0.1953125 10.7421875 -0.125 6.875 C-0.10695312 5.59367187 -0.08890625 4.31234375 -0.0703125 2.9921875 C-0.04710937 2.00476562 -0.02390625 1.01734375 0 0 Z " fill="#409BDD" transform="translate(41,49)"/>
<path d="M0 0 C13.53 0 27.06 0 41 0 C41 1.65 41 3.3 41 5 C27.47 5 13.94 5 0 5 C0 3.35 0 1.7 0 0 Z " fill="#3C3D89" transform="translate(60,97)"/>
<path d="M0 0 C1.98 0 3.96 0 6 0 C7.60339848 3.11771927 8.18974141 4.39011689 7.125 7.8125 C6.75375 8.534375 6.3825 9.25625 6 10 C6.66 10.33 7.32 10.66 8 11 C7.34 12.65 6.68 14.3 6 16 C3.69 16 1.38 16 -1 16 C-1 16.99 -1 17.98 -1 19 C-2.65 19 -4.3 19 -6 19 C-6.226875 18.360625 -6.45375 17.72125 -6.6875 17.0625 C-7.85250896 14.72806339 -7.85250896 14.72806339 -10.625 14.25 C-11.40875 14.1675 -12.1925 14.085 -13 14 C-13.33 12.68 -13.66 11.36 -14 10 C-13.34 10 -12.68 10 -12 10 C-12.66 7.69 -13.32 5.38 -14 3 C-11.36 3 -8.72 3 -6 3 C-6.20625 4.11375 -6.4125 5.2275 -6.625 6.375 C-6.74875 7.57125 -6.8725 8.7675 -7 10 C-5.10244856 12.34973818 -5.10244856 12.34973818 -1.875 12.125 C-0.451875 12.063125 -0.451875 12.063125 1 12 C1.29562367 6.67829506 1.29562367 6.67829506 -1 2 C-0.67 1.34 -0.34 0.68 0 0 Z " fill="#EAEBF2" transform="translate(135,60)"/>
<path d="M0 0 C2.12438339 -0.08078641 4.2496323 -0.13909141 6.375 -0.1875 C7.55835937 -0.22230469 8.74171875 -0.25710937 9.9609375 -0.29296875 C11.46527344 -0.14794922 11.46527344 -0.14794922 13 0 C13.66 0.99 14.32 1.98 15 3 C14.34 3 13.68 3 13 3 C13.33 3.66 13.66 4.32 14 5 C20.27 5.33 26.54 5.66 33 6 C33 6.66 33 7.32 33 8 C18.81 8 4.62 8 -10 8 C-10 7.34 -10 6.68 -10 6 C-7.98177083 5.609375 -5.96354167 5.21875 -3.9453125 4.828125 C-1.80995329 4.14287884 -1.80995329 4.14287884 -0.7421875 1.921875 C-0.49726562 1.28765625 -0.25234375 0.6534375 0 0 Z " fill="#A2C5FE" transform="translate(61,113)"/>
<path d="M0 0 C1.18613892 0.00785522 1.18613892 0.00785522 2.39624023 0.01586914 C3.67724609 0.02070312 3.67724609 0.02070312 4.98413086 0.02563477 C5.88196289 0.03401367 6.77979492 0.04239258 7.70483398 0.05102539 C8.6065332 0.05553711 9.50823242 0.06004883 10.43725586 0.06469727 C12.67234712 0.07652315 14.90730835 0.09300319 17.14233398 0.11352539 C17.47233398 0.77352539 17.80233398 1.43352539 18.14233398 2.11352539 C16.92545898 2.56727539 15.70858398 3.02102539 14.45483398 3.48852539 C13.72522461 3.76567383 12.99561523 4.04282227 12.24389648 4.32836914 C10.61791605 4.9358451 8.97651412 5.50213201 7.32983398 6.05102539 C4.74327241 7.3073553 3.66511971 8.70912688 2.14233398 11.11352539 C2.78170898 11.38165039 3.42108398 11.64977539 4.07983398 11.92602539 C6.14233398 13.11352539 6.14233398 13.11352539 7.14233398 16.11352539 C3.84233398 16.11352539 0.54233398 16.11352539 -2.85766602 16.11352539 C-2.88451697 13.63428738 -2.90443149 11.15533699 -2.92016602 8.67602539 C-2.93273438 7.61544922 -2.93273438 7.61544922 -2.94555664 6.53344727 C-2.95420189 4.7265898 -2.90986613 2.91964936 -2.85766602 1.11352539 C-1.85766602 0.11352539 -1.85766602 0.11352539 0 0 Z " fill="#41ACE4" transform="translate(35.857666015625,85.886474609375)"/>
<path d="M0 0 C1.32 0 2.64 0 4 0 C4 6.6 4 13.2 4 20 C6.31 20 8.62 20 11 20 C11.33 20.99 11.66 21.98 12 23 C3.19039858 24.30512614 -5.19039858 24.30512614 -14 23 C-13.505 21.515 -13.505 21.515 -13 20 C-8.71 20 -4.42 20 0 20 C0 13.4 0 6.8 0 0 Z " fill="#4C4CA1" transform="translate(115,63)"/>
<path d="M0 0 C1.98 0 3.96 0 6 0 C6.33 0.66 6.66 1.32 7 2 C9.8159849 2.46898963 9.8159849 2.46898963 13.0625 2.625 C14.71958984 2.73714844 14.71958984 2.73714844 16.41015625 2.8515625 C17.26480469 2.90054688 18.11945312 2.94953125 19 3 C19 3.66 19 4.32 19 5 C20.32 4.67 21.64 4.34 23 4 C23 4.99 23 5.98 23 7 C22.01 7.66 21.02 8.32 20 9 C19.01 8.01 18.02 7.02 17 6 C16.34 7.65 15.68 9.3 15 11 C12.68756208 11.02685412 10.3750373 11.04632841 8.0625 11.0625 C6.77472656 11.07410156 5.48695312 11.08570312 4.16015625 11.09765625 C1 11 1 11 0 10 C-0.07205511 8.31391034 -0.08386068 6.62499341 -0.0625 4.9375 C-0.05347656 4.01839844 -0.04445313 3.09929687 -0.03515625 2.15234375 C-0.02355469 1.44207031 -0.01195313 0.73179688 0 0 Z " fill="#C5DCFE" transform="translate(27,102)"/>
<path d="M0 0 C1.31871094 -0.01224609 2.63742188 -0.02449219 3.99609375 -0.03710938 C5.90068359 -0.04000977 5.90068359 -0.04000977 7.84375 -0.04296875 C9.00068359 -0.04707764 10.15761719 -0.05118652 11.34960938 -0.05541992 C14.47736509 0.18575467 16.680892 0.85423629 19.5 2.1875 C18.5 4.1875 18.5 4.1875 16.84521484 4.80200195 C11.99200924 5.59975457 7.04404055 5.37340312 2.13769531 5.37280273 C0.13863013 5.37498512 -1.86039532 5.39349143 -3.859375 5.41210938 C-5.13039063 5.41404297 -6.40140625 5.41597656 -7.7109375 5.41796875 C-8.86899902 5.42207764 -10.02706055 5.42618652 -11.22021484 5.43041992 C-14.61310954 5.17912245 -17.33332989 4.39923908 -20.5 3.1875 C-20.17 2.5275 -19.84 1.8675 -19.5 1.1875 C-13.23640183 -0.60566158 -6.45139424 0.00315317 0 0 Z " fill="#EAEBF2" transform="translate(114.5,125.8125)"/>
<path d="M0 0 C2.64 0 5.28 0 8 0 C8 5.61 8 11.22 8 17 C6.68 17.33 5.36 17.66 4 18 C3.67 15.69 3.34 13.38 3 11 C-0.63 10.67 -4.26 10.34 -8 10 C-7.33333333 8.66666667 -6.66666667 7.33333333 -6 6 C-5.34 6 -4.68 6 -4 6 C-3.67 5.34 -3.34 4.68 -3 4 C-2.01 4 -1.02 4 0 4 C0 2.68 0 1.36 0 0 Z " fill="#6355FE" transform="translate(119,86)"/>
<path d="M0 0 C0.99 0.33 1.98 0.66 3 1 C2.484375 1.4125 1.96875 1.825 1.4375 2.25 C0.963125 2.8275 0.48875 3.405 0 4 C0.25723969 6.02919843 0.25723969 6.02919843 1 8 C1 8.99 1 9.98 1 11 C-1 12.6875 -1 12.6875 -3 14 C-3 13.01 -3 12.02 -3 11 C-3.99 11 -4.98 11 -6 11 C-6.33 12.65 -6.66 14.3 -7 16 C-7.66 16 -8.32 16 -9 16 C-9 15.34 -9 14.68 -9 14 C-9.61875 13.690625 -10.2375 13.38125 -10.875 13.0625 C-12.25 12.375 -13.625 11.6875 -15 11 C-14.00355711 8.50889277 -13.42031674 7.24405488 -11.0625 5.875 C-10.381875 5.58625 -9.70125 5.2975 -9 5 C-8.01 4.34 -7.02 3.68 -6 3 C-4.01200182 2.29835358 -2.01301483 1.62627128 0 1 C0 0.67 0 0.34 0 0 Z " fill="#44BADB" transform="translate(53,86)"/>
<path d="M0 0 C1.32 0 2.64 0 4 0 C4 0.99 4 1.98 4 3 C4.99 2.67 5.98 2.34 7 2 C7.91058531 5.07322544 8.08886184 7.80097361 8 11 C7.360625 11.12375 6.72125 11.2475 6.0625 11.375 C5.381875 11.58125 4.70125 11.7875 4 12 C3.67 12.66 3.34 13.32 3 14 C2.01 14 1.02 14 0 14 C0 13.01 0 12.02 0 11 C-1.65 10.67 -3.3 10.34 -5 10 C-5 7.69 -5 5.38 -5 3 C-3.35 2.67 -1.7 2.34 0 2 C0 1.34 0 0.68 0 0 Z " fill="#DEF4F8" transform="translate(22,63)"/>
<path d="M0 0 C1.32 0 2.64 0 4 0 C4 3.96 4 7.92 4 12 C-2.93 12 -9.86 12 -17 12 C-17 11.01 -17 10.02 -17 9 C-12.58311346 6.91424802 -12.58311346 6.91424802 -9.875 7.3125 C-9.25625 7.539375 -8.6375 7.76625 -8 8 C-7.01 8.33 -6.02 8.66 -5 9 C-4.67 8.01 -4.34 7.02 -4 6 C-2.68 6 -1.36 6 0 6 C-0.185625 5.195625 -0.37125 4.39125 -0.5625 3.5625 C-0.706875 2.716875 -0.85125 1.87125 -1 1 C-0.67 0.67 -0.34 0.34 0 0 Z " fill="#35D8C5" transform="translate(30,68)"/>
<path d="M0 0 C0.66 0.33 1.32 0.66 2 1 C2.02685938 3.14576637 2.04633088 5.29162645 2.0625 7.4375 C2.07410156 8.63246094 2.08570313 9.82742187 2.09765625 11.05859375 C2 14 2 14 1 15 C-0.68608966 15.07205511 -2.37500659 15.08386068 -4.0625 15.0625 C-4.98160156 15.05347656 -5.90070313 15.04445313 -6.84765625 15.03515625 C-7.55792969 15.02355469 -8.26820312 15.01195312 -9 15 C-9.75 12.25 -9.75 12.25 -10 9 C-8.1875 6.8125 -8.1875 6.8125 -6 5 C-5.34 4.01 -4.68 3.02 -4 2 C-2.68 2 -1.36 2 0 2 C0 1.34 0 0.68 0 0 Z " fill="#36DEC4" transform="translate(133,48)"/>
<path d="M0 0 C18.15 0 36.3 0 55 0 C55.495 1.98 55.495 1.98 56 4 C55.01 4 54.02 4 53 4 C53 3.34 53 2.68 53 2 C36.17 2 19.34 2 2 2 C2 2.66 2 3.32 2 4 C1.01 4 0.02 4 -1 4 C-0.67 2.68 -0.34 1.36 0 0 Z " fill="#33D1D4" transform="translate(42,45)"/>
<path d="M0 0 C0.66 0.33 1.32 0.66 2 1 C2 7.93 2 14.86 2 22 C-1.96 22 -5.92 22 -10 22 C-9 20 -9 20 -6 19 C-5.67 16.69 -5.34 14.38 -5 12 C-4.01 12 -3.02 12 -2 12 C-2.02320312 11.30132812 -2.04640625 10.60265625 -2.0703125 9.8828125 C-2.09738281 8.51769531 -2.09738281 8.51769531 -2.125 7.125 C-2.14820312 6.22007813 -2.17140625 5.31515625 -2.1953125 4.3828125 C-2 2 -2 2 0 0 Z " fill="#7388FE" transform="translate(125,102)"/>
<path d="M0 0 C5.61 0 11.22 0 17 0 C17 2.31 17 4.62 17 7 C11.39 7 5.78 7 0 7 C0 4.69 0 2.38 0 0 Z " fill="#3C4E96" transform="translate(15,34)"/>
<path d="M0 0 C0 4.62 0 9.24 0 14 C-4.29 14 -8.58 14 -13 14 C-13 9 -13 9 -12 7 C-11.236875 6.71125 -10.47375 6.4225 -9.6875 6.125 C-6.69556842 4.87256353 -5.19447197 3.34581486 -3 1 C-1 0 -1 0 0 0 Z " fill="#38D8D6" transform="translate(123,100)"/>
<path d="M0 0 C3.4375 0.25 3.4375 0.25 7 1 C7.66 1.99 8.32 2.98 9 4 C11.55183404 5.20450304 11.55183404 5.20450304 14 6 C14 6.66 14 7.32 14 8 C6.74 8 -0.52 8 -8 8 C-5.89195563 3.78391126 -4.94914007 3.12646004 -1 1 C-0.67 0.67 -0.34 0.34 0 0 Z " fill="#F6FCFD" transform="translate(119,38)"/>
<path d="M0 0 C1.60407328 -0.02708567 3.2082785 -0.04643483 4.8125 -0.0625 C5.70582031 -0.07410156 6.59914063 -0.08570312 7.51953125 -0.09765625 C10 0 10 0 13 1 C13 4.63 13 8.26 13 12 C9.37 12 5.74 12 2 12 C1.67 10.68 1.34 9.36 1 8 C2.65 7.01 4.3 6.02 6 5 C3.03 4.505 3.03 4.505 0 4 C0 3.67 0 3.34 0 3 C2.31 3 4.62 3 7 3 C7 2.34 7 1.68 7 1 C4.69 1 2.38 1 0 1 C0 0.67 0 0.34 0 0 Z " fill="#758CFE" transform="translate(102,70)"/>
<path d="M0 0 C1.32 0 2.64 0 4 0 C4 5.61 4 11.22 4 17 C4.99 17 5.98 17 7 17 C7 18.65 7 20.3 7 22 C4.69 22 2.38 22 0 22 C0 14.74 0 7.48 0 0 Z " fill="#41458F" transform="translate(26,80)"/>
<path d="M0 0 C7.59 0 15.18 0 23 0 C22.67 1.32 22.34 2.64 22 4 C14.41 4 6.82 4 -1 4 C-0.67 2.68 -0.34 1.36 0 0 Z " fill="#3CBADC" transform="translate(61,60)"/>
<path d="M0 0 C1.08667969 0.02707031 2.17335938 0.05414063 3.29296875 0.08203125 C4.54013672 0.13423828 4.54013672 0.13423828 5.8125 0.1875 C5.8125 1.8375 5.8125 3.4875 5.8125 5.1875 C2.1825 5.1875 -1.4475 5.1875 -5.1875 5.1875 C-5.1875 6.8375 -5.1875 8.4875 -5.1875 10.1875 C-6.5075 10.1875 -7.8275 10.1875 -9.1875 10.1875 C-9.55218886 3.74466353 -9.55218886 3.74466353 -8.0625 1.46875 C-5.3504604 -0.38447706 -3.24426436 -0.10465369 0 0 Z " fill="#3C3D89" transform="translate(35.1875,48.8125)"/>
<path d="M0 0 C0.66 0 1.32 0 2 0 C2.33 1.65 2.66 3.3 3 5 C5.31 5.33 7.62 5.66 10 6 C10 7.32 10 8.64 10 10 C9.01 10.33 8.02 10.66 7 11 C7 11.99 7 12.98 7 14 C4.66666667 14 2.33333333 14 0 14 C-0.33 14.66 -0.66 15.32 -1 16 C-1.02701408 13.89590361 -1.04640223 11.79170822 -1.0625 9.6875 C-1.07410156 8.51574219 -1.08570312 7.34398438 -1.09765625 6.13671875 C-1 3 -1 3 0 0 Z " fill="#6B71FE" transform="translate(103,108)"/>
<path d="M0 0 C5.94 0 11.88 0 18 0 C18 3 18 3 17 5 C11.39 5 5.78 5 0 5 C0 3.35 0 1.7 0 0 Z " fill="#34ACC5" transform="translate(98,49)"/>
<path d="M0 0 C1.93166016 0.01740234 1.93166016 0.01740234 3.90234375 0.03515625 C5.19269531 0.04417969 6.48304687 0.05320312 7.8125 0.0625 C8.81152344 0.07410156 9.81054688 0.08570312 10.83984375 0.09765625 C9.90011719 0.78794922 9.90011719 0.78794922 8.94140625 1.4921875 C6.8353093 3.01718874 6.8353093 3.01718874 5.21484375 4.78515625 C3.83984375 6.09765625 3.83984375 6.09765625 1.83984375 6.09765625 C1.83984375 6.75765625 1.83984375 7.41765625 1.83984375 8.09765625 C-0.05958703 10.18703011 -1.62456512 11.82986068 -4.16015625 13.09765625 C-4.18702178 11.11856227 -4.20649 9.13936654 -4.22265625 7.16015625 C-4.23425781 6.05800781 -4.24585937 4.95585938 -4.2578125 3.8203125 C-4.11749553 -0.09172464 -3.97435676 0.12281696 0 0 Z " fill="#40C2EE" transform="translate(109.16015625,95.90234375)"/>
<path d="M0 0 C1.32 0 2.64 0 4 0 C4 6.6 4 13.2 4 20 C2.68 19.67 1.36 19.34 0 19 C0 12.73 0 6.46 0 0 Z " fill="#3E3E8B" transform="translate(115,63)"/>
<path d="M0 0 C1.67542976 0.28604898 3.34385343 0.61781233 5 1 C5.84098656 5.01804691 6.05404945 8.01803543 5 12 C3.02 12.66 1.04 13.32 -1 14 C-1.02685938 11.85423363 -1.04633088 9.70837355 -1.0625 7.5625 C-1.07410156 6.36753906 -1.08570312 5.17257813 -1.09765625 3.94140625 C-1 1 -1 1 0 0 Z " fill="#33C7DF" transform="translate(106,33)"/>
<path d="M0 0 C8.58 0 17.16 0 26 0 C25.67 0.99 25.34 1.98 25 3 C17.08 3 9.16 3 1 3 C0.67 2.01 0.34 1.02 0 0 Z " fill="#4C4CA0" transform="translate(101,124)"/>
<path d="M0 0 C3.96 0 7.92 0 12 0 C10.515 1.485 10.515 1.485 9 3 C8.731875 3.825 8.46375 4.65 8.1875 5.5 C6.55751259 8.93155244 4.42342187 9.58597792 1 11 C1.03255208 9.01432292 1.06510417 7.02864583 1.09765625 5.04296875 C1.08263217 2.79694539 1.08263217 2.79694539 0 0 Z " fill="#6ED5E3" transform="translate(110,33)"/>
<path d="M0 0 C0 4.62 0 9.24 0 14 C-1.32 14.33 -2.64 14.66 -4 15 C-4.33 12.69 -4.66 10.38 -5 8 C-6.65 7.67 -8.3 7.34 -10 7 C-9.236875 6.401875 -8.47375 5.80375 -7.6875 5.1875 C-5.08664741 3.15995888 -5.08664741 3.15995888 -3.3125 1.25 C-2 0 -2 0 0 0 Z " fill="#6864FF" transform="translate(127,89)"/>
<path d="M0 0 C2.64 0 5.28 0 8 0 C8 2.97 8 5.94 8 9 C6.68 9 5.36 9 4 9 C3.34 8.34 2.68 7.68 2 7 C1.34 7 0.68 7 0 7 C0 4.69 0 2.38 0 0 Z " fill="#3CBADB" transform="translate(26,59)"/>
<path d="M0 0 C1.24716797 0.00322266 2.49433594 0.00644531 3.77929688 0.00976562 C5.07287109 0.01814453 6.36644531 0.02652344 7.69921875 0.03515625 C9.66858398 0.04192383 9.66858398 0.04192383 11.67773438 0.04882812 C14.91410885 0.06059676 18.15039053 0.07703865 21.38671875 0.09765625 C21.05671875 0.75765625 20.72671875 1.41765625 20.38671875 2.09765625 C19.73074707 2.11747559 19.07477539 2.13729492 18.39892578 2.15771484 C15.43610806 2.25278132 12.47401343 2.36253377 9.51171875 2.47265625 C7.96291016 2.5190625 7.96291016 2.5190625 6.3828125 2.56640625 C4.90361328 2.62441406 4.90361328 2.62441406 3.39453125 2.68359375 C2.4833252 2.71501465 1.57211914 2.74643555 0.63330078 2.77880859 C-1.81259311 2.89648136 -1.81259311 2.89648136 -3.61328125 5.09765625 C-6.34197532 5.06478042 -8.90994305 4.53367854 -11.61328125 4.09765625 C-11.61328125 3.10765625 -11.61328125 2.11765625 -11.61328125 1.09765625 C-7.68039761 0.16677716 -4.03673962 -0.0184326 0 0 Z " fill="#D9D9E8" transform="translate(106.61328125,125.90234375)"/>
<path d="M0 0 C1.74506836 0.00966797 1.74506836 0.00966797 3.52539062 0.01953125 C4.74033203 0.03628906 5.95527344 0.05304687 7.20703125 0.0703125 C8.43357422 0.07933594 9.66011719 0.08835938 10.92382812 0.09765625 C13.9559242 0.12125233 16.98763063 0.15417409 20.01953125 0.1953125 C20.01953125 0.8553125 20.01953125 1.5153125 20.01953125 2.1953125 C19.17974731 2.23289673 19.17974731 2.23289673 18.32299805 2.27124023 C15.7841182 2.38734995 13.24559572 2.5100083 10.70703125 2.6328125 C9.82595703 2.67212891 8.94488281 2.71144531 8.03710938 2.75195312 C7.18955078 2.79384766 6.34199219 2.83574219 5.46875 2.87890625 C4.29832153 2.93389282 4.29832153 2.93389282 3.10424805 2.98999023 C0.82624024 3.13656513 0.82624024 3.13656513 -1.98046875 4.1953125 C-4.37537861 4.26501302 -6.77214566 4.27979253 -9.16796875 4.2578125 C-10.44027344 4.24878906 -11.71257812 4.23976563 -13.0234375 4.23046875 C-14.48716797 4.21306641 -14.48716797 4.21306641 -15.98046875 4.1953125 C-15.98046875 3.5353125 -15.98046875 2.8753125 -15.98046875 2.1953125 C-14.34078125 2.2571875 -14.34078125 2.2571875 -12.66796875 2.3203125 C-7.8694536 2.15765097 -5.03785531 -0.04914981 0 0 Z " fill="#90D9E4" transform="translate(113.98046875,44.8046875)"/>
<path d="M0 0 C1.65 0 3.3 0 5 0 C5.02686553 1.97909398 5.04633375 3.95828971 5.0625 5.9375 C5.07410156 7.03964844 5.08570313 8.14179687 5.09765625 9.27734375 C5 12 5 12 4 13 C2.48071962 13.07179964 0.95832518 13.08392007 -0.5625 13.0625 C-1.38878906 13.05347656 -2.21507812 13.04445313 -3.06640625 13.03515625 C-3.70449219 13.02355469 -4.34257812 13.01195312 -5 13 C-3.8125 11 -3.8125 11 -2 9 C0.6875 8.75 0.6875 8.75 3 9 C3 6.69 3 4.38 3 2 C2.01 1.67 1.02 1.34 0 1 C0 0.67 0 0.34 0 0 Z " fill="#35D7CD" transform="translate(29,32)"/>
<path d="M0 0 C1.23556641 0.01740234 1.23556641 0.01740234 2.49609375 0.03515625 C3.32238281 0.04417969 4.14867187 0.05320312 5 0.0625 C5.63808594 0.07410156 6.27617188 0.08570312 6.93359375 0.09765625 C6.93359375 0.75765625 6.93359375 1.41765625 6.93359375 2.09765625 C2.46300551 6.09765625 2.46300551 6.09765625 -0.06640625 6.09765625 C-0.06640625 6.75765625 -0.06640625 7.41765625 -0.06640625 8.09765625 C-1.05640625 8.42765625 -2.04640625 8.75765625 -3.06640625 9.09765625 C-3.1640625 2.9453125 -3.1640625 2.9453125 -3.06640625 1.09765625 C-2.06640625 0.09765625 -2.06640625 0.09765625 0 0 Z " fill="#3F9AE9" transform="translate(36.06640625,85.90234375)"/>
<path d="M0 0 C0.99 0.33 1.98 0.66 3 1 C2.484375 1.4125 1.96875 1.825 1.4375 2.25 C0.963125 2.8275 0.48875 3.405 0 4 C0.25723969 6.02919843 0.25723969 6.02919843 1 8 C1 8.99 1 9.98 1 11 C-1 12.6875 -1 12.6875 -3 14 C-3 13.01 -3 12.02 -3 11 C-3.66 11 -4.32 11 -5 11 C-4.64766839 5.5388601 -4.64766839 5.5388601 -4 3 C-1.9375 1.5 -1.9375 1.5 0 1 C0 0.67 0 0.34 0 0 Z " fill="#3EC0DA" transform="translate(53,86)"/>
<path d="M0 0 C3.375 -0.1875 3.375 -0.1875 7 0 C7.66 0.99 8.32 1.98 9 3 C8.01 3.33 7.02 3.66 6 4 C5.67 4.66 5.34 5.32 5 6 C4.34 6 3.68 6 3 6 C3 6.99 3 7.98 3 9 C2.34 9 1.68 9 1 9 C0.67 9.66 0.34 10.32 0 11 C0 7.37 0 3.74 0 0 Z " fill="#5934FF" transform="translate(102,86)"/>
<path d="M0 0 C0.33 0 0.66 0 1 0 C1 2.97 1 5.94 1 9 C-1.97 9 -4.94 9 -8 9 C-7 6 -7 6 -4.9375 4.8125 C-4.298125 4.544375 -3.65875 4.27625 -3 4 C-3 3.34 -3 2.68 -3 2 C-2.01 2 -1.02 2 0 2 C0 1.34 0 0.68 0 0 Z " fill="#36DCC7" transform="translate(122,105)"/>
<path d="M0 0 C0.33 0.66 0.66 1.32 1 2 C3.02463255 2.65213292 3.02463255 2.65213292 5 3 C4.67 3.66 4.34 4.32 4 5 C-0.29 5 -4.58 5 -9 5 C-9.33 4.01 -9.66 3.02 -10 2 C-6.7 2 -3.4 2 0 2 C0 1.34 0 0.68 0 0 Z " fill="#50CFDA" transform="translate(43,100)"/>
<path d="M0 0 C6.48292295 -0.3669579 6.48292295 -0.3669579 8.9375 1.375 C10 3 10 3 10 5 C6.7 5 3.4 5 0 5 C0 3.35 0 1.7 0 0 Z " fill="#37ACC7" transform="translate(33,97)"/>
<path d="M0 0 C0.4125 0.515625 0.825 1.03125 1.25 1.5625 C2.89081865 3.25326429 2.89081865 3.25326429 5.0625 2.8125 C7.18712526 2.06529664 7.18712526 2.06529664 9 0 C9 0.66 9 1.32 9 2 C9.66 2 10.32 2 11 2 C11 2.99 11 3.98 11 5 C10.360625 5.12375 9.72125 5.2475 9.0625 5.375 C8.381875 5.58125 7.70125 5.7875 7 6 C6.67 6.66 6.34 7.32 6 8 C5.01 8 4.02 8 3 8 C3 7.01 3 6.02 3 5 C1.35 4.67 -0.3 4.34 -2 4 C-2 3.34 -2 2.68 -2 2 C-1.34 2 -0.68 2 0 2 C0 1.34 0 0.68 0 0 Z " fill="#EDF9FA" transform="translate(19,69)"/>
<path d="M0 0 C3.3 0 6.6 0 10 0 C8.60804085 2.7839183 6.84424221 2.97898997 4 4 C4 4.99 4 5.98 4 7 C2.02 7.99 2.02 7.99 0 9 C0 6.03 0 3.06 0 0 Z " fill="#3DBBDE" transform="translate(105,54)"/>
<path d="M0 0 C1.51400391 0.01740234 1.51400391 0.01740234 3.05859375 0.03515625 C4.07050781 0.04417969 5.08242187 0.05320313 6.125 0.0625 C7.29869141 0.07990234 7.29869141 0.07990234 8.49609375 0.09765625 C8.16609375 1.41765625 7.83609375 2.73765625 7.49609375 4.09765625 C4.19609375 4.09765625 0.89609375 4.09765625 -2.50390625 4.09765625 C-2.83390625 3.10765625 -3.16390625 2.11765625 -3.50390625 1.09765625 C-2.50390625 0.09765625 -2.50390625 0.09765625 0 0 Z " fill="#39C4D7" transform="translate(75.50390625,59.90234375)"/>
<path d="M0 0 C14.78132118 -0.18451025 14.78132118 -0.18451025 21 1 C21 1.33 21 1.66 21 2 C14.73 2 8.46 2 2 2 C2 2.66 2 3.32 2 4 C1.01 4 0.02 4 -1 4 C-0.67 2.68 -0.34 1.36 0 0 Z " fill="#33C6DE" transform="translate(42,45)"/>
<path d="M0 0 C0 1.32 0 2.64 0 4 C0.33 4.33 0.66 4.66 1 5 C1.04092937 7.33297433 1.04241723 9.66705225 1 12 C-0.32 12 -1.64 12 -3 12 C-3.33 8.37 -3.66 4.74 -4 1 C-2 0 -2 0 0 0 Z " fill="#36C1C6" transform="translate(118,51)"/>
<path d="M0 0 C1.32 0 2.64 0 4 0 C4 2.31 4 4.62 4 7 C3.071875 7.144375 2.14375 7.28875 1.1875 7.4375 C-2.00725111 7.92100111 -2.00725111 7.92100111 -5 9 C-4.67 8.01 -4.34 7.02 -4 6 C-2.68 6 -1.36 6 0 6 C-0.2784375 4.7934375 -0.2784375 4.7934375 -0.5625 3.5625 C-0.706875 2.716875 -0.85125 1.87125 -1 1 C-0.67 0.67 -0.34 0.34 0 0 Z " fill="#3BCDCF" transform="translate(30,68)"/>
<path d="M0 0 C1.37478516 0.01740234 1.37478516 0.01740234 2.77734375 0.03515625 C3.69644531 0.04417969 4.61554688 0.05320312 5.5625 0.0625 C6.27277344 0.07410156 6.98304687 0.08570312 7.71484375 0.09765625 C4.71484375 2.09765625 4.71484375 2.09765625 1.71484375 2.09765625 C1.71484375 2.75765625 1.71484375 3.41765625 1.71484375 4.09765625 C0.04817708 5.76432292 -1.61848958 7.43098958 -3.28515625 9.09765625 C-3.3828125 2.9453125 -3.3828125 2.9453125 -3.28515625 1.09765625 C-2.28515625 0.09765625 -2.28515625 0.09765625 0 0 Z " fill="#45B4F5" transform="translate(108.28515625,95.90234375)"/>
<path d="M0 0 C1.65 0.33 3.3 0.66 5 1 C4.67 1.66 4.34 2.32 4 3 C3.01 3.33 2.02 3.66 1 4 C1.99 5.32 2.98 6.64 4 8 C1 9 1 9 -1.1875 8.0625 C-1.785625 7.711875 -2.38375 7.36125 -3 7 C-2.42655063 4.13275314 -2.1385485 3.1385485 0 1 C0 0.67 0 0.34 0 0 Z " fill="#3AC4D6" transform="translate(55,86)"/>
<path d="M0 0 C2.31 0.66 4.62 1.32 7 2 C7 2.99 7 3.98 7 5 C3.04 5 -0.92 5 -5 5 C-4 3 -4 3 -1 2 C-0.67 1.34 -0.34 0.68 0 0 Z " fill="#7896FE" transform="translate(120,119)"/>
<path d="M0 0 C3.3 0 6.6 0 10 0 C10.33 1.32 10.66 2.64 11 4 C9.5625 5.75 9.5625 5.75 8 7 C8 6.01 8 5.02 8 4 C5.36 4 2.72 4 0 4 C0 3.67 0 3.34 0 3 C2.31 3 4.62 3 7 3 C7 2.34 7 1.68 7 1 C4.69 1 2.38 1 0 1 C0 0.67 0 0.34 0 0 Z " fill="#839CFE" transform="translate(102,70)"/>
<path d="M0 0 C2.31 0 4.62 0 7 0 C7 1.65 7 3.3 7 5 C4.69 5 2.38 5 0 5 C0 3.35 0 1.7 0 0 Z " fill="#3C3E8A" transform="translate(98,49)"/>
<path d="M0 0 C0.99 0 1.98 0 3 0 C3 1.65 3 3.3 3 5 C3.99 5.33 4.98 5.66 6 6 C5.01 6.99 4.02 7.98 3 9 C-0.875 7.25 -0.875 7.25 -2 5 C-1.34 5 -0.68 5 0 5 C0 3.35 0 1.7 0 0 Z " fill="#E5F8F9" transform="translate(118,48)"/>
<path d="M0 0 C1.07765625 0.10183594 2.1553125 0.20367187 3.265625 0.30859375 C4.08546875 0.39238281 4.9053125 0.47617188 5.75 0.5625 C5.75 1.2225 5.75 1.8825 5.75 2.5625 C0.47 2.5625 -4.81 2.5625 -10.25 2.5625 C-10.25 1.9025 -10.25 1.2425 -10.25 0.5625 C-6.70049966 -0.60056443 -3.69176052 -0.36115049 0 0 Z " fill="#99C0FE" transform="translate(68.25,118.4375)"/>
<path d="M0 0 C-0.33 1.32 -0.66 2.64 -1 4 C-3.64 4 -6.28 4 -9 4 C-9 3.01 -9 2.02 -9 1 C-5.57367167 -0.61798838 -3.61944899 -1.34053666 0 0 Z " fill="#34D3D1" transform="translate(22,76)"/>
<path d="M0 0 C4.62 0 9.24 0 14 0 C14.33 1.32 14.66 2.64 15 4 C14.01 4 13.02 4 12 4 C12 3.34 12 2.68 12 2 C8.37 2 4.74 2 1 2 C0.67 1.34 0.34 0.68 0 0 Z " fill="#58DAD4" transform="translate(83,45)"/>
<path d="M0 0 C0.66 0 1.32 0 2 0 C1.69128878 1.79232337 1.37790936 3.58384321 1.0625 5.375 C0.88847656 6.37273437 0.71445312 7.37046875 0.53515625 8.3984375 C0 11 0 11 -1 13 C-1.66 13 -2.32 13 -3 13 C-2.52060632 8.28596212 -2.03165952 4.33420699 0 0 Z " fill="#D5F1F6" transform="translate(47,89)"/>
<path d="M0 0 C0.99 0 1.98 0 3 0 C3 3.3 3 6.6 3 10 C2.01 10.33 1.02 10.66 0 11 C0 7.37 0 3.74 0 0 Z " fill="#3A95D6" transform="translate(41,49)"/>
<path d="M0 0 C0.66 0.66 1.32 1.32 2 2 C4.06874034 2.6425235 4.06874034 2.6425235 6 3 C5.67 3.66 5.34 4.32 5 5 C4.01 4.67 3.02 4.34 2 4 C1.67 4.66 1.34 5.32 1 6 C-0.32 6 -1.64 6 -3 6 C-3 4.35 -3 2.7 -3 1 C-2.01 0.67 -1.02 0.34 0 0 Z " fill="#3CCCDB" transform="translate(16,71)"/>
<path d="M0 0 C0.66 0 1.32 0 2 0 C2.66 2.31 3.32 4.62 4 7 C3.34 7.66 2.68 8.32 2 9 C1.01 9 0.02 9 -1 9 C-0.67 6.03 -0.34 3.06 0 0 Z " fill="#6762FF" transform="translate(103,108)"/>
<path d="M0 0 C2.475 0.495 2.475 0.495 5 1 C5 2.98 5 4.96 5 7 C3.68 7.33 2.36 7.66 1 8 C0.67 5.36 0.34 2.72 0 0 Z " fill="#6A73FD" transform="translate(122,96)"/>
<path d="M0 0 C1.98 0.495 1.98 0.495 4 1 C3.67 2.65 3.34 4.3 3 6 C1.68 5.67 0.36 5.34 -1 5 C-0.67 3.35 -0.34 1.7 0 0 Z " fill="#3CCCDA" transform="translate(22,67)"/>
<path d="M0 0 C1.32 0 2.64 0 4 0 C4 1.98 4 3.96 4 6 C2.68 6.33 1.36 6.66 0 7 C0 4.69 0 2.38 0 0 Z " fill="#39B1C7" transform="translate(26,59)"/>
<path d="M0 0 C1.49080078 0.02707031 1.49080078 0.02707031 3.01171875 0.0546875 C3.77097656 0.07789063 4.53023437 0.10109375 5.3125 0.125 C4.3225 0.785 3.3325 1.445 2.3125 2.125 C1.12017387 4.17503955 1.12017387 4.17503955 0.3125 6.125 C0.3125 4.475 0.3125 2.825 0.3125 1.125 C-0.6775 1.125 -1.6675 1.125 -2.6875 1.125 C-3.0175 2.115 -3.3475 3.105 -3.6875 4.125 C-6.1625 3.135 -6.1625 3.135 -8.6875 2.125 C-5.26655758 -0.15562828 -4.00562778 -0.09425007 0 0 Z " fill="#51D1D8" transform="translate(120.6875,46.875)"/>
<path d="M0 0 C0.33 0.66 0.66 1.32 1 2 C1.66 2 2.32 2 3 2 C2.67 3.32 2.34 4.64 2 6 C-0.31 6 -2.62 6 -5 6 C-5.33 5.34 -5.66 4.68 -6 4 C-4.02 3.67 -2.04 3.34 0 3 C0 2.01 0 1.02 0 0 Z " fill="#37DFC3" transform="translate(57,99)"/>
<path d="M0 0 C2.31 0.33 4.62 0.66 7 1 C6.67 1.66 6.34 2.32 6 3 C5.01 3 4.02 3 3 3 C3 3.66 3 4.32 3 5 C1.68 4.67 0.36 4.34 -1 4 C-0.67 2.68 -0.34 1.36 0 0 Z " fill="#3F99E9" transform="translate(42,59)"/>
<path d="M0 0 C1.65 1.65 3.3 3.3 5 5 C3.35 6.32 1.7 7.64 0 9 C0.185625 8.2575 0.37125 7.515 0.5625 6.75 C0.99203108 4.05009037 0.85122974 2.55368923 0 0 Z " fill="#E5F7FA" transform="translate(50,91)"/>
<path d="M0 0 C0.33 0.66 0.66 1.32 1 2 C3.02463255 2.65213292 3.02463255 2.65213292 5 3 C4.67 3.66 4.34 4.32 4 5 C1.69 5 -0.62 5 -3 5 C-2.34 4.67 -1.68 4.34 -1 4 C-0.34786708 1.97536745 -0.34786708 1.97536745 0 0 Z " fill="#47D6D1" transform="translate(43,100)"/>
<path d="M0 0 C0.33 0.99 0.66 1.98 1 3 C0.34 3.66 -0.32 4.32 -1 5 C-0.34 5.33 0.32 5.66 1 6 C0.67 6.99 0.34 7.98 0 9 C-1.32 8.01 -2.64 7.02 -4 6 C-2.84826645 3.53199953 -1.95216435 1.95216435 0 0 Z " fill="#DCF3F8" transform="translate(42,91)"/>
<path d="M0 0 C0.99 0 1.98 0 3 0 C3.33 1.32 3.66 2.64 4 4 C2.35 4.33 0.7 4.66 -1 5 C-0.67 3.35 -0.34 1.7 0 0 Z " fill="#35C1C5" transform="translate(47,97)"/>
<path d="M0 0 C2.97 0 5.94 0 9 0 C9 0.99 9 1.98 9 3 C8.01 3.33 7.02 3.66 6 4 C5.67 3.34 5.34 2.68 5 2 C2.47266765 1.34444881 2.47266765 1.34444881 0 1 C0 0.67 0 0.34 0 0 Z " fill="#5B4EF1" transform="translate(110,87)"/>
<path d="M0 0 C2.97 0 5.94 0 9 0 C9 0.33 9 0.66 9 1 C5.7 1.66 2.4 2.32 -1 3 C-0.67 2.01 -0.34 1.02 0 0 Z " fill="#4B92ED" transform="translate(34,86)"/>
<path d="" fill="#EBEBF2" transform="translate(0,0)"/>
<path d="" fill="#EEEFF5" transform="translate(0,0)"/>
<path d="" fill="#EEEFF5" transform="translate(0,0)"/>
<path d="" fill="#E4E8F0" transform="translate(0,0)"/>
<path d="" fill="#EEEFF5" transform="translate(0,0)"/>
<path d="" fill="#EAEAF1" transform="translate(0,0)"/>
<path d="" fill="#EEEFF5" transform="translate(0,0)"/>
<path d="" fill="#EEEFF5" transform="translate(0,0)"/>
<path d="" fill="#E4E8F0" transform="translate(0,0)"/>
</svg>
