<?xml version="1.0" encoding="UTF-8"?>
<svg version="1.1" xmlns="http://www.w3.org/2000/svg" width="150" height="150">
<path d="M0 0 C3.3 0 6.6 0 10 0 C10 1.98 10 3.96 10 6 C15.55493924 7.02703748 15.55493924 7.02703748 21 6 C21.433125 7.134375 21.86625 8.26875 22.3125 9.4375 C23.3061169 11.45153786 23.3061169 11.45153786 25 13 C27.93713773 13.71501749 30.6179844 13.87371097 33.63671875 13.9296875 C36 14 36 14 37 15 C37.08748207 16.92667507 37.10697334 18.85651861 37.09765625 20.78515625 C37.09282227 22.53989258 37.09282227 22.53989258 37.08789062 24.33007812 C37.07532227 26.17762695 37.07532227 26.17762695 37.0625 28.0625 C37.05798828 29.29806641 37.05347656 30.53363281 37.04882812 31.80664062 C37.03699608 34.87114117 37.02051173 37.93554721 37 41 C38.98 41 40.96 41 43 41 C43.99 43.475 43.99 43.475 45 46 C44.34 46 43.68 46 43 46 C43.5878125 47.8871875 43.5878125 47.8871875 44.1875 49.8125 C44.75390625 52.01953125 44.75390625 52.01953125 45 54 C43.625 56 43.625 56 42 57 C41.01 56.67 40.02 56.34 39 56 C38.34 57.32 37.68 58.64 37 60 C35.02 60 33.04 60 31 60 C30.01 58.02 30.01 58.02 29 56 C27.68 56.33 26.36 56.66 25 57 C23.23937836 53.67438135 22.89215772 52.40826005 23.875 48.6875 C24.431875 47.3571875 24.431875 47.3571875 25 46 C24.34 46 23.68 46 23 46 C23 45.34 23 44.68 23 44 C22.34 44 21.68 44 21 44 C21 50.6 21 57.2 21 64 C23.31 64 25.62 64 28 64 C29 65 29 65 29.11352539 68.96899414 C29.1133662 70.74105607 29.10766785 72.5131226 29.09765625 74.28515625 C29.0962413 75.21597519 29.09482635 76.14679413 29.09336853 77.1058197 C29.08775172 80.09141191 29.0751964 83.07693029 29.0625 86.0625 C29.05748716 88.08137913 29.05292388 90.10025943 29.04882812 92.11914062 C29.03777683 97.07945572 29.02050095 102.03971532 29 107 C31.31 107.66 33.62 108.32 36 109 C35 111 35 111 33.34521484 111.61450195 C28.49200924 112.41225457 23.54404055 112.18590312 18.63769531 112.18530273 C16.63863013 112.18748512 14.63960468 112.20599143 12.640625 112.22460938 C11.36960937 112.22654297 10.09859375 112.22847656 8.7890625 112.23046875 C7.63100098 112.23457764 6.47293945 112.23868652 5.27978516 112.24291992 C1.88689046 111.99162245 -0.83332989 111.21173908 -4 110 C-3.67 109.34 -3.34 108.68 -3 108 C-0.4375 107.375 -0.4375 107.375 2 107 C1.32142944 106.99191315 0.64285889 106.98382629 -0.05627441 106.97549438 C-7.19572947 106.88863335 -14.33493245 106.7891071 -21.47412109 106.68261719 C-24.12938188 106.64363425 -26.7845665 106.60971702 -29.43994141 106.578125 C-67.93926359 106.11445232 -67.93926359 106.11445232 -75 102 C-74.505 101.01 -74.505 101.01 -74 100 C-73.34 100 -72.68 100 -72 100 C-72 99.01 -72 98.02 -72 97 C-73.98 96.67 -75.96 96.34 -78 96 C-78.33 96.99 -78.66 97.98 -79 99 C-81.88575819 98.60196439 -82.82189513 98.20990931 -84.75 95.9375 C-85.36875 94.9784375 -85.36875 94.9784375 -86 94 C-85.34 93.01 -84.68 92.02 -84 91 C-84.66868314 87.88667752 -84.66868314 87.88667752 -87.0625 86.8125 C-87.701875 86.544375 -88.34125 86.27625 -89 86 C-88.67 83.69 -88.34 81.38 -88 79 C-85.03 78.01 -85.03 78.01 -82 77 C-82 75.02 -82 73.04 -82 71 C-78.535 70.01 -78.535 70.01 -75 69 C-74.67 70.32 -74.34 71.64 -74 73 C-73.34 73 -72.68 73 -72 73 C-72 69.04 -72 65.08 -72 61 C-76.29 61 -80.58 61 -85 61 C-85.02683436 57.68744674 -85.0467578 54.37510817 -85.0625 51.0625 C-85.07087891 50.11697266 -85.07925781 49.17144531 -85.08789062 48.19726562 C-85.09111328 47.29814453 -85.09433594 46.39902344 -85.09765625 45.47265625 C-85.10289307 44.64000244 -85.10812988 43.80734863 -85.11352539 42.94946289 C-85 41 -85 41 -84 40 C-81.98035801 39.92755947 -79.95832876 39.91622812 -77.9375 39.9375 C-76.28041016 39.95103516 -76.28041016 39.95103516 -74.58984375 39.96484375 C-73.73519531 39.97644531 -72.88054687 39.98804688 -72 40 C-72.061875 38.906875 -72.12375 37.81375 -72.1875 36.6875 C-72 33 -72 33 -70.875 31.28125 C-68.1629604 29.42802294 -66.05676436 29.70784631 -62.8125 29.8125 C-61.72582031 29.83957031 -60.63914062 29.86664063 -59.51953125 29.89453125 C-58.27236328 29.94673828 -58.27236328 29.94673828 -57 30 C-56.67 28.68 -56.34 27.36 -56 26 C-54.77893555 25.98018066 -53.55787109 25.96036133 -52.29980469 25.93994141 C-47.76720646 25.86383877 -43.2349273 25.77512839 -38.70263672 25.68261719 C-36.7414378 25.64434673 -34.78016916 25.60949046 -32.81884766 25.578125 C-29.99877003 25.5324326 -27.17917162 25.474445 -24.359375 25.4140625 C-23.04510529 25.39673569 -23.04510529 25.39673569 -21.70428467 25.37905884 C-20.88373596 25.35918915 -20.06318726 25.33931946 -19.21777344 25.31884766 C-18.49829529 25.30552399 -17.77881714 25.29220032 -17.03753662 25.2784729 C-14.69844524 24.9587861 -13.04472763 24.15410784 -11 23 C-10.66602213 20.12586875 -10.66602213 20.12586875 -11 17 C-12.88077873 15.08743288 -12.88077873 15.08743288 -15 14 C-13.87548273 11.0280615 -12.77706209 8.66559313 -11 6 C-9.39125 6.2784375 -9.39125 6.2784375 -7.75 6.5625 C-4.59608454 6.9304568 -2.90181508 7.04465343 0 6 C0 4.02 0 2.04 0 0 Z M-2 13 C-4.2084626 16.31269391 -4.80664241 18.14978851 -4.5546875 22.0625 C-3.4812192 25.81207941 -1.28696911 27.01541488 2 29 C4.63836977 29.1672392 4.63836977 29.1672392 7 29 C7.03738281 28.01257813 7.07476562 27.02515625 7.11328125 26.0078125 C7.17902344 24.72648437 7.24476562 23.44515625 7.3125 22.125 C7.37050781 20.84882812 7.42851563 19.57265625 7.48828125 18.2578125 C7.65714844 17.18273437 7.82601562 16.10765625 8 15 C8.99 14.34 9.98 13.68 11 13 C9.01607489 10.60148679 9.01607489 10.60148679 5.1875 10.5625 C1.82266671 10.66669338 0.95629969 11.02913354 -2 13 Z M29 46 C28.6366844 48.83386167 28.6431329 50.40522151 30.125 52.875 C32.92151052 54.55290631 34.93690532 53.74875648 38 53 C38.67673447 49.59679066 38.67673447 49.59679066 39 46 C37.11499729 43.68436913 37.11499729 43.68436913 34 43.75 C30.88500271 43.68436913 30.88500271 43.68436913 29 46 Z M-78.25 79.625 C-80.21985834 81.92308586 -80.21985834 81.92308586 -80.5 85 C-80.21376982 88.06575838 -80.21376982 88.06575838 -78.3125 90.375 C-75.61209763 92.27258004 -74.22939919 92.35882213 -71 92 C-70.85024761 84.94348748 -70.85024761 84.94348748 -72 78 C-75.92212225 77.60967296 -75.92212225 77.60967296 -78.25 79.625 Z M-65 94 C-64.67 95.65 -64.34 97.3 -64 99 C-51.13 98.01 -51.13 98.01 -38 97 C-37.67 96.01 -37.34 95.02 -37 94 C-46.24 94 -55.48 94 -65 94 Z M-13 94 C-13 94.99 -13 95.98 -13 97 C-7.72 97.33 -2.44 97.66 3 98 C3 96.68 3 95.36 3 94 C-2.28 94 -7.56 94 -13 94 Z " fill="#6B73FE" transform="translate(98,19)"/>
<path d="M0 0 C0 6.6 0 13.2 0 20 C-4.29 20 -8.58 20 -13 20 C-13 20.66 -13 21.32 -13 22 C-4.20866282 23.42426407 -4.20866282 23.42426407 12 23 C12 36.2 12 49.4 12 63 C14.31 63.66 16.62 64.32 19 65 C18 67 18 67 16.34521484 67.61450195 C11.49200924 68.41225457 6.54404055 68.18590312 1.63769531 68.18530273 C-0.36136987 68.18748512 -2.36039532 68.20599143 -4.359375 68.22460938 C-5.63039063 68.22654297 -6.90140625 68.22847656 -8.2109375 68.23046875 C-9.36899902 68.23457764 -10.52706055 68.23868652 -11.72021484 68.24291992 C-15.11310954 67.99162245 -17.83332989 67.21173908 -21 66 C-20.67 65.34 -20.34 64.68 -20 64 C-17.4375 63.375 -17.4375 63.375 -15 63 C-16.01785583 62.98786972 -16.01785583 62.98786972 -17.05627441 62.97549438 C-24.19572947 62.88863335 -31.33493245 62.7891071 -38.47412109 62.68261719 C-41.12938188 62.64363425 -43.7845665 62.60971702 -46.43994141 62.578125 C-84.93926359 62.11445232 -84.93926359 62.11445232 -92 58 C-91.67 57.34 -91.34 56.68 -91 56 C-90.34 56 -89.68 56 -89 56 C-89 55.01 -89 54.02 -89 53 C-90.98 52.67 -92.96 52.34 -95 52 C-95.33 52.99 -95.66 53.98 -96 55 C-98.88575819 54.60196439 -99.82189513 54.20990931 -101.75 51.9375 C-102.36875 50.9784375 -102.36875 50.9784375 -103 50 C-102.34 49.01 -101.68 48.02 -101 47 C-101.66868314 43.88667752 -101.66868314 43.88667752 -104.0625 42.8125 C-104.701875 42.544375 -105.34125 42.27625 -106 42 C-105.67 39.69 -105.34 37.38 -105 35 C-103.02 34.34 -101.04 33.68 -99 33 C-99 31.02 -99 29.04 -99 27 C-96.69 26.34 -94.38 25.68 -92 25 C-91.67 26.32 -91.34 27.64 -91 29 C-90.34 29 -89.68 29 -89 29 C-89 30.65 -89 32.3 -89 34 C-89.969375 34.28875 -90.93875 34.5775 -91.9375 34.875 C-95.10664203 35.64214682 -95.10664203 35.64214682 -96 38 C-96.0689472 39.37342831 -96.08467708 40.75002102 -96.0625 42.125 C-96.041875 43.40375 -96.02125 44.6825 -96 46 C-93.36 46.66 -90.72 47.32 -88 48 C-88 45.03 -88 42.06 -88 39 C-86.02 39 -84.04 39 -82 39 C-81.67 39.66 -81.34 40.32 -81 41 C-72.75 41 -64.5 41 -56 41 C-55.505 40.01 -55.505 40.01 -55 39 C-41.47 39 -27.94 39 -14 39 C-14 37.35 -14 35.7 -14 34 C-21.92 34 -29.84 34 -38 34 C-37.67 33.01 -37.34 32.02 -37 31 C-36.01 30.67 -35.02 30.34 -34 30 C-34.495 28.515 -34.495 28.515 -35 27 C-34.154375 26.34 -33.30875 25.68 -32.4375 25 C-29.81089794 22.3696504 -29.81089794 22.3696504 -29.890625 19.88671875 C-30.15774969 17.90788716 -30.57033783 15.95000525 -31 14 C-30.34 14 -29.68 14 -29 14 C-29 14.99 -29 15.98 -29 17 C-27.35 16.67 -25.7 16.34 -24 16 C-23.31292445 13.50935112 -23 11.62113708 -23 9 C-23 8.01 -23 7.02 -23 6 C-22.34 6 -21.68 6 -21 6 C-21 6.99 -21 7.98 -21 9 C-18.36 9 -15.72 9 -13 9 C-13 7.68 -13 6.36 -13 5 C-12.34 5 -11.68 5 -11 5 C-10.71125 4.360625 -10.4225 3.72125 -10.125 3.0625 C-7.70997105 -1.36505307 -5.44793201 0 0 0 Z M-82 50 C-81.67 51.65 -81.34 53.3 -81 55 C-68.13 54.01 -68.13 54.01 -55 53 C-54.67 52.01 -54.34 51.02 -54 50 C-63.24 50 -72.48 50 -82 50 Z M-30 50 C-30 50.99 -30 51.98 -30 53 C-24.72 53.33 -19.44 53.66 -14 54 C-14 52.68 -14 51.36 -14 50 C-19.28 50 -24.56 50 -30 50 Z " fill="#5E4DF1" transform="translate(115,63)"/>
<path d="M0 0 C14.19 0 28.38 0 43 0 C42.01 0.33 41.02 0.66 40 1 C40 1.66 40 2.32 40 3 C40.66 3.33 41.32 3.66 42 4 C40.60247786 6.65529207 39.49183974 8.63508664 37.0625 10.4375 C35 11 35 11 32.75 10.125 C32.1725 9.75375 31.595 9.3825 31 9 C29.5393715 11.64738916 29 12.89448334 29 16 C26.62927102 18.79407345 24.36295835 20.55873214 21 22 C20.505 20.515 20.505 20.515 20 19 C20 20.32 20 21.64 20 23 C20 23.99 20 24.98 20 26 C19.01 25.67 18.02 25.34 17 25 C16.505 23.515 16.505 23.515 16 22 C15.855625 22.804375 15.71125 23.60875 15.5625 24.4375 C15 27 15 27 14 28 C14 28.99 14 29.98 14 31 C15.60681641 31.09087891 15.60681641 31.09087891 17.24609375 31.18359375 C18.64324391 31.26798537 20.04037857 31.35263406 21.4375 31.4375 C22.14455078 31.47681641 22.85160156 31.51613281 23.58007812 31.55664062 C28.88671875 31.88671875 28.88671875 31.88671875 30 33 C30.09986975 35.84335048 30.13877881 38.65697163 30.125 41.5 C30.13080078 42.69689453 30.13080078 42.69689453 30.13671875 43.91796875 C30.12660767 49.87339233 30.12660767 49.87339233 29 51 C27.14630389 51.08737645 25.28932459 51.10698153 23.43359375 51.09765625 C22.30888672 51.09443359 21.18417969 51.09121094 20.02539062 51.08789062 C18.84138672 51.07951172 17.65738281 51.07113281 16.4375 51.0625 C15.24962891 51.05798828 14.06175781 51.05347656 12.83789062 51.04882812 C9.89187774 51.03699675 6.94596319 51.02051287 4 51 C3.67 50.01 3.34 49.02 3 48 C0.69 48 -1.62 48 -4 48 C-4 40.74 -4 33.48 -4 26 C-8.29 26 -12.58 26 -17 26 C-17.02683436 22.68744674 -17.0467578 19.37510817 -17.0625 16.0625 C-17.07087891 15.11697266 -17.07925781 14.17144531 -17.08789062 13.19726562 C-17.09111328 12.29814453 -17.09433594 11.39902344 -17.09765625 10.47265625 C-17.10289307 9.64000244 -17.10812988 8.80734863 -17.11352539 7.94946289 C-17 6 -17 6 -16 5 C-13.30345146 4.92680379 -10.63308542 4.90757463 -7.9375 4.9375 C-7.17888672 4.94201172 -6.42027344 4.94652344 -5.63867188 4.95117188 C-3.75908129 4.9629932 -1.87953101 4.98092922 0 5 C0 3.35 0 1.7 0 0 Z " fill="#604EFE" transform="translate(30,54)"/>
<path d="M0 0 C0 0.99 0 1.98 0 3 C0.66 3 1.32 3 2 3 C2 4.65 2 6.3 2 8 C1.030625 8.28875 0.06125 8.5775 -0.9375 8.875 C-4.10664203 9.64214682 -4.10664203 9.64214682 -5 12 C-5.0689472 13.37342831 -5.08467708 14.75002102 -5.0625 16.125 C-5.041875 17.40375 -5.02125 18.6825 -5 20 C-2.36 20.66 0.28 21.32 3 22 C3 19.03 3 16.06 3 13 C4.98 13 6.96 13 9 13 C9.33 13.66 9.66 14.32 10 15 C18.25 15 26.5 15 35 15 C35.33 14.34 35.66 13.68 36 13 C49.53 13 63.06 13 77 13 C77 16.63 77 20.26 77 24 C71.72 24 66.44 24 61 24 C61 24.99 61 25.98 61 27 C61.56847656 26.98839844 62.13695313 26.97679688 62.72265625 26.96484375 C67.60670484 26.90776806 72.18503965 27.18043228 77 28 C77 30.64 77 33.28 77 36 C69.71409984 36.04682155 62.42823335 36.08211748 55.14221191 36.10362434 C51.75718789 36.11395864 48.37226851 36.12792229 44.98730469 36.15087891 C6.5625541 36.39227608 6.5625541 36.39227608 -1 32 C-0.67 31.34 -0.34 30.68 0 30 C0.66 30 1.32 30 2 30 C2 29.01 2 28.02 2 27 C0.02 26.67 -1.96 26.34 -4 26 C-4.33 26.99 -4.66 27.98 -5 29 C-7.88575819 28.60196439 -8.82189513 28.20990931 -10.75 25.9375 C-11.1625 25.298125 -11.575 24.65875 -12 24 C-11.34 23.01 -10.68 22.02 -10 21 C-10.66868314 17.88667752 -10.66868314 17.88667752 -13.0625 16.8125 C-13.701875 16.544375 -14.34125 16.27625 -15 16 C-14.67 13.69 -14.34 11.38 -14 9 C-12.02 8.34 -10.04 7.68 -8 7 C-8 5.02 -8 3.04 -8 1 C-3.375 -1.125 -3.375 -1.125 0 0 Z M9 24 C9.33 25.65 9.66 27.3 10 29 C22.87 28.01 22.87 28.01 36 27 C36.33 26.01 36.66 25.02 37 24 C27.76 24 18.52 24 9 24 Z " fill="#A9CAFE" transform="translate(24,89)"/>
<path d="M0 0 C3.3 0 6.6 0 10 0 C10 1.98 10 3.96 10 6 C15.55493924 7.02703748 15.55493924 7.02703748 21 6 C21.433125 7.134375 21.86625 8.26875 22.3125 9.4375 C23.3061169 11.45153786 23.3061169 11.45153786 25 13 C27.93713773 13.71501749 30.6179844 13.87371097 33.63671875 13.9296875 C36 14 36 14 37 15 C37.08748207 16.92667507 37.10697334 18.85651861 37.09765625 20.78515625 C37.09282227 22.53989258 37.09282227 22.53989258 37.08789062 24.33007812 C37.07532227 26.17762695 37.07532227 26.17762695 37.0625 28.0625 C37.05798828 29.29806641 37.05347656 30.53363281 37.04882812 31.80664062 C37.03699608 34.87114117 37.02051173 37.93554721 37 41 C38.98 41 40.96 41 43 41 C43.99 43.475 43.99 43.475 45 46 C44.34 46 43.68 46 43 46 C43.5878125 47.8871875 43.5878125 47.8871875 44.1875 49.8125 C44.75390625 52.01953125 44.75390625 52.01953125 45 54 C43.625 56 43.625 56 42 57 C40.515 56.505 40.515 56.505 39 56 C38.34 57.32 37.68 58.64 37 60 C35.02 60 33.04 60 31 60 C30.01 58.02 30.01 58.02 29 56 C27.68 56.33 26.36 56.66 25 57 C23.23937836 53.67438135 22.89215772 52.40826005 23.875 48.6875 C24.431875 47.3571875 24.431875 47.3571875 25 46 C24.34 46 23.68 46 23 46 C23 45.34 23 44.68 23 44 C21.515 43.505 21.515 43.505 20 43 C20.04125 42.236875 20.0825 41.47375 20.125 40.6875 C20.22080824 37.77281584 20.22080824 37.77281584 18 35 C18.66 35 19.32 35 20 35 C19.67 33.35 19.34 31.7 19 30 C15.85378318 30.13822199 12.70814434 30.28685084 9.5625 30.4375 C8.21575195 30.49647461 8.21575195 30.49647461 6.84179688 30.55664062 C5.98779297 30.59853516 5.13378906 30.64042969 4.25390625 30.68359375 C3.06776733 30.73858032 3.06776733 30.73858032 1.85766602 30.79467773 C-0.01401441 30.80563257 -0.01401441 30.80563257 -1 32 C-3.44830426 32.08843793 -5.86820599 32.11528752 -8.31640625 32.09765625 C-9.04746078 32.0962413 -9.77851532 32.09482635 -10.53172302 32.09336853 C-12.87535632 32.08775408 -15.21889539 32.07519922 -17.5625 32.0625 C-19.14778508 32.05748686 -20.73307166 32.05292363 -22.31835938 32.04882812 C-26.2122761 32.03777997 -30.10612205 32.02050572 -34 32 C-33.67 31.34 -33.34 30.68 -33 30 C-23.1 29.505 -23.1 29.505 -13 29 C-33.295 28.505 -33.295 28.505 -54 28 C-54 28.66 -54 29.32 -54 30 C-54.99 30 -55.98 30 -57 30 C-56.67 28.68 -56.34 27.36 -56 26 C-54.77893555 25.98018066 -53.55787109 25.96036133 -52.29980469 25.93994141 C-47.76720646 25.86383877 -43.2349273 25.77512839 -38.70263672 25.68261719 C-36.7414378 25.64434673 -34.78016916 25.60949046 -32.81884766 25.578125 C-29.99877003 25.5324326 -27.17917162 25.474445 -24.359375 25.4140625 C-23.48319519 25.40251129 -22.60701538 25.39096008 -21.70428467 25.37905884 C-20.88373596 25.35918915 -20.06318726 25.33931946 -19.21777344 25.31884766 C-18.49829529 25.30552399 -17.77881714 25.29220032 -17.03753662 25.2784729 C-14.69844524 24.9587861 -13.04472763 24.15410784 -11 23 C-10.66602213 20.12586875 -10.66602213 20.12586875 -11 17 C-12.88077873 15.08743288 -12.88077873 15.08743288 -15 14 C-13.87548273 11.0280615 -12.77706209 8.66559313 -11 6 C-9.9275 6.185625 -8.855 6.37125 -7.75 6.5625 C-4.59608454 6.9304568 -2.90181508 7.04465343 0 6 C0 4.02 0 2.04 0 0 Z M-2 13 C-4.2084626 16.31269391 -4.80664241 18.14978851 -4.5546875 22.0625 C-3.4812192 25.81207941 -1.28696911 27.01541488 2 29 C4.63836977 29.1672392 4.63836977 29.1672392 7 29 C7.03738281 28.01257813 7.07476562 27.02515625 7.11328125 26.0078125 C7.17902344 24.72648437 7.24476562 23.44515625 7.3125 22.125 C7.37050781 20.84882812 7.42851563 19.57265625 7.48828125 18.2578125 C7.65714844 17.18273437 7.82601562 16.10765625 8 15 C8.99 14.34 9.98 13.68 11 13 C9.01607489 10.60148679 9.01607489 10.60148679 5.1875 10.5625 C1.82266671 10.66669338 0.95629969 11.02913354 -2 13 Z M29 46 C28.6366844 48.83386167 28.6431329 50.40522151 30.125 52.875 C32.92151052 54.55290631 34.93690532 53.74875648 38 53 C38.67673447 49.59679066 38.67673447 49.59679066 39 46 C37.11499729 43.68436913 37.11499729 43.68436913 34 43.75 C30.88500271 43.68436913 30.88500271 43.68436913 29 46 Z " fill="#69D3E2" transform="translate(98,19)"/>
<path d="M0 0 C16.83 0 33.66 0 51 0 C51 0.33 51 0.66 51 1 C41.1 1.66 31.2 2.32 21 3 C25.53904366 3.02291161 30.07788802 3.04283781 34.61694336 3.05493164 C36.16219766 3.0599714 37.70744716 3.0668032 39.25268555 3.07543945 C41.46925029 3.08752076 43.68575218 3.09323173 45.90234375 3.09765625 C46.94454323 3.10539818 46.94454323 3.10539818 48.00779724 3.11329651 C49.6722933 3.11349277 51.33665499 3.06189129 53 3 C53.33 2.67 53.66 2.34 54 2 C55.48638992 1.84344973 56.97949127 1.74933057 58.47265625 1.68359375 C59.37177734 1.64169922 60.27089844 1.59980469 61.19726562 1.55664062 C62.14279297 1.51732422 63.08832031 1.47800781 64.0625 1.4375 C65.01189453 1.39431641 65.96128906 1.35113281 66.93945312 1.30664062 C69.29281353 1.20020724 71.64628354 1.09818992 74 1 C74 3.66666667 74 6.33333333 74 9 C74.16298584 9.75692139 74.32597168 10.51384277 74.49389648 11.29370117 C75.00669693 14.03581067 75.11395063 16.51444219 75.09765625 19.30078125 C75.09282227 20.76547852 75.09282227 20.76547852 75.08789062 22.25976562 C75.07532227 23.77086914 75.07532227 23.77086914 75.0625 25.3125 C75.05798828 26.33923828 75.05347656 27.36597656 75.04882812 28.42382812 C75.03708184 30.94927882 75.02065565 33.47460905 75 36 C77.31 36 79.62 36 82 36 C82.33 36.99 82.66 37.98 83 39 C74.19039858 40.30512614 65.80960142 40.30512614 57 39 C57.33 38.01 57.66 37.02 58 36 C62.29 36 66.58 36 71 36 C71 29.4 71 22.8 71 16 C67.7 16 64.4 16 61 16 C61 13.03 61 10.06 61 7 C36.25 7 11.5 7 -14 7 C-14 8.65 -14 10.3 -14 12 C-15.32 12 -16.64 12 -18 12 C-18.36206897 5.60344828 -18.36206897 5.60344828 -16.96875 3.28125 C-13.92872758 1.30282271 -10.80886916 1.68518123 -7.3125 1.8125 C-6.61060547 1.82603516 -5.90871094 1.83957031 -5.18554688 1.85351562 C-3.45670171 1.88879818 -1.72825235 1.94260417 0 2 C0 1.34 0 0.68 0 0 Z " fill="#3C418C" transform="translate(44,47)"/>
<path d="M0 0 C0 0.99 0 1.98 0 3 C0.66 3 1.32 3 2 3 C2 4.65 2 6.3 2 8 C1.030625 8.28875 0.06125 8.5775 -0.9375 8.875 C-4.10664203 9.64214682 -4.10664203 9.64214682 -5 12 C-5.0689472 13.37342831 -5.08467708 14.75002102 -5.0625 16.125 C-5.041875 17.40375 -5.02125 18.6825 -5 20 C1.88824069 22.40990104 1.88824069 22.40990104 9 24 C9.33 25.65 9.66 27.3 10 29 C10.66 28.67 11.32 28.34 12 28 C13.81171098 27.84693099 15.6283794 27.75053339 17.4453125 27.68359375 C18.52167969 27.64169922 19.59804688 27.59980469 20.70703125 27.55664062 C21.83496094 27.51732422 22.96289062 27.47800781 24.125 27.4375 C25.26066406 27.39431641 26.39632812 27.35113281 27.56640625 27.30664062 C30.37747768 27.2003396 33.18863945 27.09830595 36 27 C35.67 27.66 35.34 28.32 35 29 C32.66666667 29.33333333 30.33333333 29.66666667 28 30 C27.67 30.66 27.34 31.32 27 32 C41.19 32 55.38 32 70 32 C69.67 31.34 69.34 30.68 69 30 C67.845 29.835 66.69 29.67 65.5 29.5 C64.345 29.335 63.19 29.17 62 29 C61.505 28.01 61.505 28.01 61 27 C66.45769811 26.88861841 71.61509359 27.08342019 77 28 C77 30.64 77 33.28 77 36 C69.71409984 36.04682155 62.42823335 36.08211748 55.14221191 36.10362434 C51.75718789 36.11395864 48.37226851 36.12792229 44.98730469 36.15087891 C6.5625541 36.39227608 6.5625541 36.39227608 -1 32 C-0.67 31.34 -0.34 30.68 0 30 C0.66 30 1.32 30 2 30 C2 29.01 2 28.02 2 27 C0.02 26.67 -1.96 26.34 -4 26 C-4.33 26.99 -4.66 27.98 -5 29 C-7.88575819 28.60196439 -8.82189513 28.20990931 -10.75 25.9375 C-11.1625 25.298125 -11.575 24.65875 -12 24 C-11.34 23.01 -10.68 22.02 -10 21 C-10.66868314 17.88667752 -10.66868314 17.88667752 -13.0625 16.8125 C-13.701875 16.544375 -14.34125 16.27625 -15 16 C-14.67 13.69 -14.34 11.38 -14 9 C-12.02 8.34 -10.04 7.68 -8 7 C-8 5.02 -8 3.04 -8 1 C-3.375 -1.125 -3.375 -1.125 0 0 Z " fill="#EAEBF2" transform="translate(24,89)"/>
<path d="M0 0 C0.89267578 0.00322266 1.78535156 0.00644531 2.70507812 0.00976562 C3.63384766 0.01814453 4.56261719 0.02652344 5.51953125 0.03515625 C6.93008789 0.04192383 6.93008789 0.04192383 8.36914062 0.04882812 C10.69016837 0.06060999 13.01106769 0.07706067 15.33203125 0.09765625 C14.95703125 2.53515625 14.95703125 2.53515625 14.33203125 5.09765625 C13.67203125 5.42765625 13.01203125 5.75765625 12.33203125 6.09765625 C11.67203125 7.08765625 11.01203125 8.07765625 10.33203125 9.09765625 C7.20703125 10.28515625 7.20703125 10.28515625 4.33203125 11.09765625 C4.82703125 13.07765625 4.82703125 13.07765625 5.33203125 15.09765625 C3.35203125 15.75765625 1.37203125 16.41765625 -0.66796875 17.09765625 C-0.66796875 17.75765625 -0.66796875 18.41765625 -0.66796875 19.09765625 C-1.32796875 19.09765625 -1.98796875 19.09765625 -2.66796875 19.09765625 C-2.89484375 19.67515625 -3.12171875 20.25265625 -3.35546875 20.84765625 C-4.99538159 23.65893541 -7.14013556 25.0753897 -9.66796875 27.09765625 C-11.2715798 29.66343393 -12.03609061 32.1488916 -12.66796875 35.09765625 C-13.32796875 35.09765625 -13.98796875 35.09765625 -14.66796875 35.09765625 C-14.99796875 34.43765625 -15.32796875 33.77765625 -15.66796875 33.09765625 C-15.99796875 34.41765625 -16.32796875 35.73765625 -16.66796875 37.09765625 C-16.84070313 36.453125 -17.0134375 35.80859375 -17.19140625 35.14453125 C-18.59779503 32.69319743 -18.59779503 32.69319743 -22.14453125 32.48828125 C-23.52654175 32.42183844 -24.90964685 32.37573105 -26.29296875 32.34765625 C-27.35257813 32.30318359 -27.35257813 32.30318359 -28.43359375 32.2578125 C-30.17776922 32.18710268 -31.92287702 32.1401159 -33.66796875 32.09765625 C-34.32796875 30.11765625 -34.98796875 28.13765625 -35.66796875 26.09765625 C-34.67796875 25.76765625 -33.68796875 25.43765625 -32.66796875 25.09765625 C-32.66796875 23.44765625 -32.66796875 21.79765625 -32.66796875 20.09765625 C-29.66796875 22.09765625 -29.66796875 22.09765625 -28.66796875 25.09765625 C-28.99796875 23.11765625 -29.32796875 21.13765625 -29.66796875 19.09765625 C-29.00796875 19.09765625 -28.34796875 19.09765625 -27.66796875 19.09765625 C-27.00796875 19.75765625 -26.34796875 20.41765625 -25.66796875 21.09765625 C-24.67796875 20.33453125 -23.68796875 19.57140625 -22.66796875 18.78515625 C-22.11109375 18.35589844 -21.55421875 17.92664063 -20.98046875 17.484375 C-19.3242667 16.05274488 -19.3242667 16.05274488 -19.66796875 13.09765625 C-18.16796875 10.91015625 -18.16796875 10.91015625 -16.66796875 9.09765625 C-15.92546875 9.34515625 -15.18296875 9.59265625 -14.41796875 9.84765625 C-11.55360095 10.41913402 -11.55360095 10.41913402 -9.35546875 8.34765625 C-7.36796875 6.16640625 -7.36796875 6.16640625 -7.66796875 3.09765625 C-7.66796875 2.43765625 -7.66796875 1.77765625 -7.66796875 1.09765625 C-4.78531726 0.13677242 -2.99134604 -0.01905316 0 0 Z " fill="#655DFE" transform="translate(77.66796875,53.90234375)"/>
<path d="M0 0 C0 6.6 0 13.2 0 20 C-4.29 20 -8.58 20 -13 20 C-13.33 24.62 -13.66 29.24 -14 34 C-21.92 34 -29.84 34 -38 34 C-37.67 33.01 -37.34 32.02 -37 31 C-36.01 30.67 -35.02 30.34 -34 30 C-34.33 29.01 -34.66 28.02 -35 27 C-34.154375 26.34 -33.30875 25.68 -32.4375 25 C-29.81089794 22.3696504 -29.81089794 22.3696504 -29.890625 19.88671875 C-30.15774969 17.90788716 -30.57033783 15.95000525 -31 14 C-30.34 14 -29.68 14 -29 14 C-29 14.99 -29 15.98 -29 17 C-27.35 16.67 -25.7 16.34 -24 16 C-23.31292445 13.50935112 -23 11.62113708 -23 9 C-23 8.01 -23 7.02 -23 6 C-22.34 6 -21.68 6 -21 6 C-21 6.99 -21 7.98 -21 9 C-18.36 9 -15.72 9 -13 9 C-13 7.68 -13 6.36 -13 5 C-12.34 5 -11.68 5 -11 5 C-10.71125 4.360625 -10.4225 3.72125 -10.125 3.0625 C-7.70997105 -1.36505307 -5.44793201 0 0 0 Z " fill="#7184FD" transform="translate(115,63)"/>
<path d="M0 0 C1.06605469 0.00644531 2.13210937 0.01289062 3.23046875 0.01953125 C5.8125 0.1875 5.8125 0.1875 6.8125 1.1875 C6.89998207 3.11417507 6.91947334 5.04401861 6.91015625 6.97265625 C6.90693359 8.14248047 6.90371094 9.31230469 6.90039062 10.51757812 C6.89201172 11.74927734 6.88363281 12.98097656 6.875 14.25 C6.87048828 15.48556641 6.86597656 16.72113281 6.86132812 17.99414062 C6.84949608 21.05864117 6.83301173 24.12304721 6.8125 27.1875 C8.7925 27.1875 10.7725 27.1875 12.8125 27.1875 C13.4725 28.8375 14.1325 30.4875 14.8125 32.1875 C14.1525 32.1875 13.4925 32.1875 12.8125 32.1875 C13.204375 33.445625 13.59625 34.70375 14 36 C14.56640625 38.20703125 14.56640625 38.20703125 14.8125 40.1875 C13.4375 42.1875 13.4375 42.1875 11.8125 43.1875 C10.3275 42.6925 10.3275 42.6925 8.8125 42.1875 C8.1525 43.5075 7.4925 44.8275 6.8125 46.1875 C4.8325 46.1875 2.8525 46.1875 0.8125 46.1875 C0.1525 44.8675 -0.5075 43.5475 -1.1875 42.1875 C-3.1675 42.6825 -3.1675 42.6825 -5.1875 43.1875 C-6.94812164 39.86188135 -7.29534228 38.59576005 -6.3125 34.875 C-5.94125 33.988125 -5.57 33.10125 -5.1875 32.1875 C-5.8475 32.1875 -6.5075 32.1875 -7.1875 32.1875 C-7.1875 31.5275 -7.1875 30.8675 -7.1875 30.1875 C-8.1775 29.8575 -9.1675 29.5275 -10.1875 29.1875 C-10 26.8125 -10 26.8125 -9.1875 24.1875 C-6.625 22.875 -6.625 22.875 -4.1875 22.1875 C-4.1875 21.5275 -4.1875 20.8675 -4.1875 20.1875 C-4.8475 20.1875 -5.5075 20.1875 -6.1875 20.1875 C-6.5175 18.2075 -6.8475 16.2275 -7.1875 14.1875 C-2.8975 14.1875 1.3925 14.1875 5.8125 14.1875 C5.4825 13.1975 5.1525 12.2075 4.8125 11.1875 C4.049375 11.105 3.28625 11.0225 2.5 10.9375 C-0.1875 10.1875 -0.1875 10.1875 -1.5625 8.125 C-2.09875 7.485625 -2.635 6.84625 -3.1875 6.1875 C-6.81313814 5.85369186 -6.81313814 5.85369186 -10.1875 6.1875 C-10.1875 4.8675 -10.1875 3.5475 -10.1875 2.1875 C-6.73589849 0.07308067 -4.00717844 -0.05368936 0 0 Z M-1.1875 32.1875 C-1.5508156 35.02136167 -1.5443671 36.59272151 -0.0625 39.0625 C2.73401052 40.74040631 4.74940532 39.93625648 7.8125 39.1875 C8.48923447 35.78429066 8.48923447 35.78429066 8.8125 32.1875 C6.92749729 29.87186913 6.92749729 29.87186913 3.8125 29.9375 C0.69750271 29.87186913 0.69750271 29.87186913 -1.1875 32.1875 Z " fill="#36DEC4" transform="translate(128.1875,32.8125)"/>
<path d="M0 0 C1.12019531 -0.00128906 2.24039063 -0.00257812 3.39453125 -0.00390625 C4.57402344 -0.00003906 5.75351562 0.00382812 6.96875 0.0078125 C8.73798828 0.00201172 8.73798828 0.00201172 10.54296875 -0.00390625 C12.22326172 -0.00197266 12.22326172 -0.00197266 13.9375 0 C14.97326172 0.00112793 16.00902344 0.00225586 17.07617188 0.00341797 C19.46875 0.1328125 19.46875 0.1328125 20.46875 1.1328125 C20.56861975 3.97616298 20.60752881 6.78978413 20.59375 9.6328125 C20.59955078 10.82970703 20.59955078 10.82970703 20.60546875 12.05078125 C20.59535767 18.00620483 20.59535767 18.00620483 19.46875 19.1328125 C17.62715977 19.23240871 15.78178033 19.26361661 13.9375 19.265625 C12.81730469 19.26691406 11.69710937 19.26820312 10.54296875 19.26953125 C9.36347656 19.26566406 8.18398438 19.26179688 6.96875 19.2578125 C5.19951172 19.26361328 5.19951172 19.26361328 3.39453125 19.26953125 C1.71423828 19.26759766 1.71423828 19.26759766 0 19.265625 C-1.03576172 19.26449707 -2.07152344 19.26336914 -3.13867188 19.26220703 C-5.53125 19.1328125 -5.53125 19.1328125 -6.53125 18.1328125 C-6.63111975 15.28946202 -6.67002881 12.47584087 -6.65625 9.6328125 C-6.66011719 8.83488281 -6.66398437 8.03695312 -6.66796875 7.21484375 C-6.65573175 0.007248 -6.65573175 0.007248 0 0 Z " fill="#37D4C7" transform="translate(39.53125,85.8671875)"/>
<path d="M0 0 C1.98 0 3.96 0 6 0 C6.33 0.66 6.66 1.32 7 2 C15.25 2 23.5 2 32 2 C32.33 1.34 32.66 0.68 33 0 C39.93 0 46.86 0 54 0 C54.495 1.485 54.495 1.485 55 3 C53.03617993 4.50559539 51.21736634 5.89131683 49 7 C47.86649466 9.01669827 47.86649466 9.01669827 47 11 C40.46721214 11.02527002 33.93443679 11.04283292 27.40161133 11.05493164 C25.17732268 11.05997317 22.95303737 11.06680623 20.72875977 11.07543945 C17.53921691 11.08751298 14.34971771 11.09322996 11.16015625 11.09765625 C9.65860741 11.10539818 9.65860741 11.10539818 8.12672424 11.11329651 C7.20584518 11.11337204 6.28496613 11.11344757 5.33618164 11.11352539 C4.11373497 11.11685631 4.11373497 11.11685631 2.86659241 11.12025452 C1 11 1 11 0 10 C-0.07205511 8.31391034 -0.08386068 6.62499341 -0.0625 4.9375 C-0.05347656 4.01839844 -0.04445313 3.09929687 -0.03515625 2.15234375 C-0.02355469 1.44207031 -0.01195313 0.73179688 0 0 Z " fill="#BED7FE" transform="translate(27,102)"/>
<path d="M0 0 C0.83265381 0.00523682 1.66530762 0.01047363 2.52319336 0.01586914 C3.33280518 0.0183667 4.14241699 0.02086426 4.9765625 0.0234375 C6.01159912 0.0325415 7.04663574 0.04164551 8.11303711 0.05102539 C11.39241211 0.07165039 14.67178711 0.09227539 18.05053711 0.11352539 C18.05053711 7.04352539 18.05053711 13.97352539 18.05053711 21.11352539 C11.12053711 21.11352539 4.19053711 21.11352539 -2.94946289 21.11352539 C-2.97008789 17.83415039 -2.99071289 14.55477539 -3.01196289 11.17602539 C-3.02106689 10.14098877 -3.0301709 9.10595215 -3.03955078 8.03955078 C-3.04329712 6.82513306 -3.04329712 6.82513306 -3.04711914 5.58618164 C-3.05235596 4.75352783 -3.05759277 3.92087402 -3.06298828 3.06298828 C-2.90876673 0.41468917 -2.64829911 0.15422155 0 0 Z " fill="#31C7DD" transform="translate(15.949462890625,58.886474609375)"/>
<path d="M0 0 C0.66 0 1.32 0 2 0 C2 12.54 2 25.08 2 38 C-6.25 38 -14.5 38 -23 38 C-23.15384615 23.07692308 -23.15384615 23.07692308 -22 18 C-21.34 17.67 -20.68 17.34 -20 17 C-19.67 20.3 -19.34 23.6 -19 27 C-13.39 27.33 -7.78 27.66 -2 28 C-2 22.06 -2 16.12 -2 10 C-3.65 10 -5.3 10 -7 10 C-5.44279986 6.17778149 -2.92607416 3.84907221 0 1 C0 0.67 0 0.34 0 0 Z " fill="#7286FE" transform="translate(125,86)"/>
<path d="M0 0 C3.3 0 6.6 0 10 0 C10 1.98 10 3.96 10 6 C14.20594226 6.72795155 16.80104745 7.04973814 21 6 C22.32 8.64 23.64 11.28 25 14 C22.70858714 14.05384521 20.41681812 14.09272087 18.125 14.125 C16.21074219 14.15980469 16.21074219 14.15980469 14.2578125 14.1953125 C11 14 11 14 9 12 C3.45764755 11.42765564 3.45764755 11.42765564 -1.5 13.5 C-3.71177972 17.18629954 -3.34421275 19.73176192 -3 24 C-2.67 24.66 -2.34 25.32 -2 26 C-6.29 26 -10.58 26 -15 26 C-13.68 25.01 -12.36 24.02 -11 23 C-10.33333333 20 -10.33333333 20 -11 17 C-12.88077873 15.08743288 -12.88077873 15.08743288 -15 14 C-13.87548273 11.0280615 -12.77706209 8.66559313 -11 6 C-9.39125 6.2784375 -9.39125 6.2784375 -7.75 6.5625 C-4.59608454 6.9304568 -2.90181508 7.04465343 0 6 C0 4.02 0 2.04 0 0 Z " fill="#E8EAF1" transform="translate(98,19)"/>
<path d="M0 0 C11.22 0 22.44 0 34 0 C31.30894369 2.69105631 29.05961254 3.80286278 25.3125 4.5 C24.549375 4.665 23.78625 4.83 23 5 C22.67 5.66 22.34 6.32 22 7 C21.01 7.33 20.02 7.66 19 8 C17.77479736 11.00847418 17.77479736 11.00847418 17 14 C17.66 14.33 18.32 14.66 19 15 C14.375 19.875 14.375 19.875 11 21 C10.67 21.66 10.34 22.32 10 23 C9 24 9 24 5 25 C4.67 18.4 4.34 11.8 4 5 C2.68 5 1.36 5 0 5 C0 3.35 0 1.7 0 0 Z " fill="#5C3EFF" transform="translate(30,54)"/>
<path d="M0 0 C0 2.66666667 0 5.33333333 0 8 C0.24447876 9.13538208 0.24447876 9.13538208 0.49389648 10.29370117 C1.00669693 13.03581067 1.11395063 15.51444219 1.09765625 18.30078125 C1.09443359 19.27724609 1.09121094 20.25371094 1.08789062 21.25976562 C1.07951172 22.26716797 1.07113281 23.27457031 1.0625 24.3125 C1.05798828 25.33923828 1.05347656 26.36597656 1.04882812 27.42382812 C1.03708184 29.94927882 1.02065565 32.47460905 1 35 C3.31 35 5.62 35 8 35 C8.33 35.99 8.66 36.98 9 38 C0.19039858 39.30512614 -8.19039858 39.30512614 -17 38 C-16.67 37.01 -16.34 36.02 -16 35 C-11.71 35 -7.42 35 -3 35 C-3 28.4 -3 21.8 -3 15 C-6.3 15 -9.6 15 -13 15 C-13 10.38 -13 5.76 -13 1 C-1.125 0 -1.125 0 0 0 Z " fill="#39C6D6" transform="translate(118,48)"/>
<path d="M0 0 C1.58206422 0.00574487 3.16410406 0.01876032 4.74609375 0.03515625 C7.53046875 0.05578125 10.31484375 0.07640625 13.18359375 0.09765625 C13.18359375 6.03765625 13.18359375 11.97765625 13.18359375 18.09765625 C10.39921875 18.11828125 7.61484375 18.13890625 4.74609375 18.16015625 C3.86767822 18.16926025 2.9892627 18.17836426 2.08422852 18.18774414 C0.11713401 18.19488716 -1.84994246 18.14797518 -3.81640625 18.09765625 C-5.63756628 16.27649622 -4.94875705 13.79093861 -4.953125 11.37109375 C-4.94925781 10.62085937 -4.94539063 9.870625 -4.94140625 9.09765625 C-4.94527344 8.34742187 -4.94914062 7.5971875 -4.953125 6.82421875 C-4.94103514 0.12643386 -4.94103514 0.12643386 0 0 Z " fill="#3DCFE4" transform="translate(109.81640625,95.90234375)"/>
<path d="M0 0 C0.33 0 0.66 0 1 0 C1 5.94 1 11.88 1 18 C2.32 18 3.64 18 5 18 C5.33 20.31 5.66 22.62 6 25 C4.02 25.33 2.04 25.66 0 26 C-0.33 30.95 -0.66 35.9 -1 41 C-3.31 41 -5.62 41 -8 41 C-8 33.74 -8 26.48 -8 19 C-5.36 19 -2.72 19 0 19 C0 12.73 0 6.46 0 0 Z " fill="#5B56FB" transform="translate(34,61)"/>
<path d="M0 0 C13.53 0 27.06 0 41 0 C41 1.65 41 3.3 41 5 C27.47 5 13.94 5 0 5 C0 3.35 0 1.7 0 0 Z " fill="#3C3D89" transform="translate(60,97)"/>
<path d="M0 0 C5.28 0 10.56 0 16 0 C16 3.63 16 7.26 16 11 C10.72 11 5.44 11 0 11 C0.33 12.65 0.66 14.3 1 16 C-1.64 16 -4.28 16 -7 16 C-6.65066406 15.52949219 -6.30132812 15.05898437 -5.94140625 14.57421875 C-5.25884766 13.64029297 -5.25884766 13.64029297 -4.5625 12.6875 C-4.11003906 12.07261719 -3.65757813 11.45773438 -3.19140625 10.82421875 C-1.82663692 8.90322899 -1.82663692 8.90322899 -1 6 C-0.01979625 4.9805881 0.97803008 3.97753644 2 3 C2 2.67 2 2.34 2 2 C1.34 1.34 0.68 0.68 0 0 Z " fill="#B1CFFE" transform="translate(85,102)"/>
<path d="M0 0 C1.98 0 3.96 0 6 0 C6.66 1.65 7.32 3.3 8 5 C7.34 5 6.68 5 6 5 C6.391875 6.258125 6.78375 7.51625 7.1875 8.8125 C7.75390625 11.01953125 7.75390625 11.01953125 8 13 C6.625 15 6.625 15 5 16 C4.01 15.67 3.02 15.34 2 15 C1.34 16.32 0.68 17.64 0 19 C-1.98 19 -3.96 19 -6 19 C-6.66 17.68 -7.32 16.36 -8 15 C-9.32 15.33 -10.64 15.66 -12 16 C-13.76062164 12.67438135 -14.10784228 11.40826005 -13.125 7.6875 C-12.568125 6.3571875 -12.568125 6.3571875 -12 5 C-12.66 5 -13.32 5 -14 5 C-14 4.34 -14 3.68 -14 3 C-11.36 3 -8.72 3 -6 3 C-6.20625 4.11375 -6.4125 5.2275 -6.625 6.375 C-6.74875 7.57125 -6.8725 8.7675 -7 10 C-5.10244856 12.34973818 -5.10244856 12.34973818 -1.875 12.125 C-0.451875 12.063125 -0.451875 12.063125 1 12 C1.29562367 6.67829506 1.29562367 6.67829506 -1 2 C-0.67 1.34 -0.34 0.68 0 0 Z " fill="#EAEBF2" transform="translate(135,60)"/>
<path d="M0 0 C0.79921875 0.01804687 1.5984375 0.03609375 2.421875 0.0546875 C3.02515625 0.07789062 3.6284375 0.10109375 4.25 0.125 C4.58 0.785 4.91 1.445 5.25 2.125 C4.59 2.125 3.93 2.125 3.25 2.125 C3.25 3.445 3.25 4.765 3.25 6.125 C1.375 9.375 1.375 9.375 -0.75 12.125 C-1.41 12.125 -2.07 12.125 -2.75 12.125 C-2.75 12.785 -2.75 13.445 -2.75 14.125 C-3.41 14.125 -4.07 14.125 -4.75 14.125 C-4.75 13.135 -4.75 12.145 -4.75 11.125 C-5.74 11.125 -6.73 11.125 -7.75 11.125 C-8.08 12.775 -8.41 14.425 -8.75 16.125 C-9.41 16.125 -10.07 16.125 -10.75 16.125 C-11.08 15.465 -11.41 14.805 -11.75 14.125 C-12.389375 13.815625 -13.02875 13.50625 -13.6875 13.1875 C-15.75 12.125 -15.75 12.125 -17.75 9.125 C-15.5 6.625 -15.5 6.625 -12.75 4.125 C-11.43 4.125 -10.11 4.125 -8.75 4.125 C-8.75 3.465 -8.75 2.805 -8.75 2.125 C-5.68753253 0.34090198 -3.52920727 -0.10380021 0 0 Z " fill="#3DBBDB" transform="translate(54.75,85.875)"/>
<path d="M0 0 C2.625 0.25 2.625 0.25 4.4375 1.625 C5.625 3.25 5.625 3.25 5.625 5.25 C7.275 5.25 8.925 5.25 10.625 5.25 C10.955 6.57 11.285 7.89 11.625 9.25 C5.685 9.745 5.685 9.745 -0.375 10.25 C-0.375 11.9 -0.375 13.55 -0.375 15.25 C0.285 15.25 0.945 15.25 1.625 15.25 C1.625 15.91 1.625 16.57 1.625 17.25 C-1.375 19.25 -1.375 19.25 -3.5 19 C-5.375 18.25 -5.375 18.25 -6.375 16.25 C-5.715 16.25 -5.055 16.25 -4.375 16.25 C-5.03085189 12.64007621 -5.03085189 12.64007621 -6.375 9.25 C-8.025 9.25 -9.675 9.25 -11.375 9.25 C-11.045 7.93 -10.715 6.61 -10.375 5.25 C-8.725 5.25 -7.075 5.25 -5.375 5.25 C-5.065625 4.610625 -4.75625 3.97125 -4.4375 3.3125 C-2.88764755 0.3039629 -2.88764755 0.3039629 0 0 Z " fill="#F9FDFD" transform="translate(122.375,37.75)"/>
<path d="M0 0 C1.32 0 2.64 0 4 0 C4 6.6 4 13.2 4 20 C6.31 20 8.62 20 11 20 C11.33 20.99 11.66 21.98 12 23 C3.19039858 24.30512614 -5.19039858 24.30512614 -14 23 C-13.505 21.515 -13.505 21.515 -13 20 C-8.71 20 -4.42 20 0 20 C0 13.4 0 6.8 0 0 Z " fill="#4C4CA1" transform="translate(115,63)"/>
<path d="M0 0 C1.31871094 -0.01224609 2.63742188 -0.02449219 3.99609375 -0.03710938 C5.90068359 -0.04000977 5.90068359 -0.04000977 7.84375 -0.04296875 C9.00068359 -0.04707764 10.15761719 -0.05118652 11.34960938 -0.05541992 C14.47736509 0.18575467 16.680892 0.85423629 19.5 2.1875 C18.5 4.1875 18.5 4.1875 16.84521484 4.80200195 C11.99200924 5.59975457 7.04404055 5.37340312 2.13769531 5.37280273 C0.13863013 5.37498512 -1.86039532 5.39349143 -3.859375 5.41210938 C-5.13039063 5.41404297 -6.40140625 5.41597656 -7.7109375 5.41796875 C-8.86899902 5.42207764 -10.02706055 5.42618652 -11.22021484 5.43041992 C-14.61310954 5.17912245 -17.33332989 4.39923908 -20.5 3.1875 C-20.17 2.5275 -19.84 1.8675 -19.5 1.1875 C-13.23640183 -0.60566158 -6.45139424 0.00315317 0 0 Z " fill="#EAEBF2" transform="translate(114.5,125.8125)"/>
<path d="M0 0 C1.48831242 0.00667405 2.97660807 0.01863442 4.46484375 0.03515625 C5.22345703 0.03966797 5.98207031 0.04417969 6.76367188 0.04882812 C8.64326246 0.06064945 10.52281274 0.07858547 12.40234375 0.09765625 C10.42234375 1.08765625 10.42234375 1.08765625 8.40234375 2.09765625 C8.40234375 2.75765625 8.40234375 3.41765625 8.40234375 4.09765625 C7.53609375 4.19046875 7.53609375 4.19046875 6.65234375 4.28515625 C3.51543388 5.41792926 2.31066871 7.4396322 0.40234375 10.09765625 C2.87734375 12.07765625 2.87734375 12.07765625 5.40234375 14.09765625 C5.73234375 13.10765625 6.06234375 12.11765625 6.40234375 11.09765625 C6.07234375 12.74765625 5.74234375 14.39765625 5.40234375 16.09765625 C2.10234375 16.09765625 -1.19765625 16.09765625 -4.59765625 16.09765625 C-4.6245072 13.61841824 -4.64442172 11.13946785 -4.66015625 8.66015625 C-4.67272461 7.59958008 -4.67272461 7.59958008 -4.68554688 6.51757812 C-4.69419213 4.71072066 -4.64985636 2.90378022 -4.59765625 1.09765625 C-3.59765625 0.09765625 -3.59765625 0.09765625 0 0 Z " fill="#43AAE5" transform="translate(37.59765625,85.90234375)"/>
<path d="M0 0 C16.83 0 33.66 0 51 0 C51 0.33 51 0.66 51 1 C50.09644775 1.05534912 49.19289551 1.11069824 48.26196289 1.16772461 C44.92023893 1.37463117 41.57883036 1.58567294 38.23754883 1.79956055 C36.78941159 1.89139998 35.34116775 1.98157375 33.89282227 2.07006836 C31.81496601 2.19731306 29.73756267 2.33047881 27.66015625 2.46484375 C26.40855713 2.543396 25.15695801 2.62194824 23.86743164 2.70288086 C21.10529235 2.6845537 21.10529235 2.6845537 20 4 C18.36527118 4.08700342 16.72685945 4.10701063 15.08984375 4.09765625 C14.10048828 4.09443359 13.11113281 4.09121094 12.09179688 4.08789062 C11.05087891 4.07951172 10.00996094 4.07113281 8.9375 4.0625 C7.89271484 4.05798828 6.84792969 4.05347656 5.77148438 4.04882812 C3.1809334 4.03699913 0.59049441 4.02051689 -2 4 C-2.33 3.34 -2.66 2.68 -3 2 C-2.01 2 -1.02 2 0 2 C0 1.34 0 0.68 0 0 Z " fill="#3875AC" transform="translate(44,47)"/>
<path d="M0 0 C1.06605469 0.00644531 2.13210937 0.01289062 3.23046875 0.01953125 C5.8125 0.1875 5.8125 0.1875 6.8125 1.1875 C6.88508946 3.37389453 6.89623783 5.56250389 6.875 7.75 C6.86597656 8.94753906 6.85695312 10.14507812 6.84765625 11.37890625 C6.83605469 12.30574219 6.82445312 13.23257813 6.8125 14.1875 C6.1525 13.1975 5.4925 12.2075 4.8125 11.1875 C4.008125 11.043125 3.20375 10.89875 2.375 10.75 C-0.1875 10.1875 -0.1875 10.1875 -1.5625 8.125 C-2.09875 7.485625 -2.635 6.84625 -3.1875 6.1875 C-6.81313814 5.85369186 -6.81313814 5.85369186 -10.1875 6.1875 C-10.1875 4.8675 -10.1875 3.5475 -10.1875 2.1875 C-6.73589849 0.07308067 -4.00717844 -0.05368936 0 0 Z " fill="#3AD5D2" transform="translate(128.1875,32.8125)"/>
<path d="M0 0 C0.99 0 1.98 0 3 0 C3 4.62 3 9.24 3 14 C-1.95 14 -6.9 14 -12 14 C-11.34 13.01 -10.68 12.02 -10 11 C-9.34 11 -8.68 11 -8 11 C-7.9175 10.4225 -7.835 9.845 -7.75 9.25 C-6.774018 6.32205399 -5.36488777 4.94755463 -3 3 C-2.01 3 -1.02 3 0 3 C0 2.01 0 1.02 0 0 Z " fill="#38D8D8" transform="translate(120,100)"/>
<path d="M0 0 C6.6 0 13.2 0 20 0 C20 1.65 20 3.3 20 5 C16.85694562 6.57152719 13.508726 6.14318589 10.0625 6.125 C9.33353516 6.12886719 8.60457031 6.13273437 7.85351562 6.13671875 C4.64142264 6.1308304 2.0678556 6.02261853 -1 5 C-0.67 3.35 -0.34 1.7 0 0 Z " fill="#32C9DD" transform="translate(14,32)"/>
<path d="M0 0 C0.99 0 1.98 0 3 0 C3.33 0.66 3.66 1.32 4 2 C6.02463255 2.65213292 6.02463255 2.65213292 8 3 C8.3125 6.3125 8.3125 6.3125 8 10 C5.15739513 12.38164192 3.71594733 13 0 13 C0 12.34 0 11.68 0 11 C-1.65 10.67 -3.3 10.34 -5 10 C-5 7.69 -5 5.38 -5 3 C-3.35 2.67 -1.7 2.34 0 2 C0 1.34 0 0.68 0 0 Z " fill="#F2FAFC" transform="translate(22,63)"/>
<path d="M0 0 C0.33 0 0.66 0 1 0 C1.33 3.3 1.66 6.6 2 10 C5.3 10.66 8.6 11.32 12 12 C11.01 12.495 11.01 12.495 10 13 C8.86649466 15.01669827 8.86649466 15.01669827 8 17 C7.01 17 6.02 17 5 17 C5.33 17.66 5.66 18.32 6 19 C5.01 19 4.02 19 3 19 C2.67 19.66 2.34 20.32 2 21 C0.68 21 -0.64 21 -2 21 C-2.19181946 6.82667294 -2.19181946 6.82667294 -1 1 C-0.67 0.67 -0.34 0.34 0 0 Z " fill="#696AFE" transform="translate(104,103)"/>
<path d="M0 0 C1.32 0 2.64 0 4 0 C4 5.61 4 11.22 4 17 C4.99 17 5.98 17 7 17 C7 18.65 7 20.3 7 22 C4.69 22 2.38 22 0 22 C0 14.74 0 7.48 0 0 Z " fill="#41448E" transform="translate(26,80)"/>
<path d="M0 0 C3.96 0 7.92 0 12 0 C12.33 0.66 12.66 1.32 13 2 C12.01 2 11.02 2 10 2 C9.67 2.99 9.34 3.98 9 5 C7.68 5 6.36 5 5 5 C5.020625 5.9075 5.04125 6.815 5.0625 7.75 C5.0110245 10.42672588 4.7784983 12.46988052 4 15 C2.02 15.33 0.04 15.66 -2 16 C-3 14 -3 14 -2.875 12 C-2 10 -2 10 0.5625 8.75 C1.366875 8.5025 2.17125 8.255 3 8 C3 7.34 3 6.68 3 6 C2.34 6 1.68 6 1 6 C0.67 4.02 0.34 2.04 0 0 Z " fill="#38D8CD" transform="translate(121,47)"/>
<path d="M0 0 C2.64 0 5.28 0 8 0 C8.05384521 2.29141286 8.09272087 4.58318188 8.125 6.875 C8.14820313 8.15117188 8.17140625 9.42734375 8.1953125 10.7421875 C8 14 8 14 6 16 C2.875 16.125 2.875 16.125 0 16 C0.99 15.34 1.98 14.68 3 14 C3.25015873 10.41642759 3.25015873 10.41642759 3 7 C2.01 7 1.02 7 0 7 C0 4.69 0 2.38 0 0 Z " fill="#3BB1C7" transform="translate(26,59)"/>
<path d="M0 0 C0 2.31 0 4.62 0 7 C-6.93 7 -13.86 7 -21 7 C-21 6.01 -21 5.02 -21 4 C-19.80761719 3.79503906 -18.61523438 3.59007813 -17.38671875 3.37890625 C-15.82029147 3.10689193 -14.25388636 2.83474985 -12.6875 2.5625 C-11.90181641 2.42779297 -11.11613281 2.29308594 -10.30664062 2.15429688 C-9.54931641 2.02216797 -8.79199219 1.89003906 -8.01171875 1.75390625 C-7.31522217 1.63345947 -6.61872559 1.5130127 -5.90112305 1.38891602 C-3.90926719 0.98143863 -2.0235264 0 0 0 Z " fill="#35D8CA" transform="translate(34,73)"/>
<path d="M0 0 C13.53 0 27.06 0 41 0 C41.495 0.99 41.495 0.99 42 2 C28.8 2 15.6 2 2 2 C2 2.66 2 3.32 2 4 C1.01 4 0.02 4 -1 4 C-0.67 2.68 -0.34 1.36 0 0 Z " fill="#33D0D5" transform="translate(42,45)"/>
<path d="M0 0 C1.93166016 0.01740234 1.93166016 0.01740234 3.90234375 0.03515625 C5.19269531 0.04417969 6.48304687 0.05320312 7.8125 0.0625 C8.81152344 0.07410156 9.81054688 0.08570312 10.83984375 0.09765625 C10.24042969 0.54367188 9.64101562 0.9896875 9.0234375 1.44921875 C4.27874576 5.03107906 -0.02466924 8.84053727 -4.16015625 13.09765625 C-4.18702178 11.11856227 -4.20649 9.13936654 -4.22265625 7.16015625 C-4.23425781 6.05800781 -4.24585937 4.95585938 -4.2578125 3.8203125 C-4.11749553 -0.09172464 -3.97435676 0.12281696 0 0 Z " fill="#42BEF2" transform="translate(109.16015625,95.90234375)"/>
<path d="M0 0 C0.66 0 1.32 0 2 0 C2.08089542 2.77141717 2.14044062 5.54047819 2.1875 8.3125 C2.22520508 9.49102539 2.22520508 9.49102539 2.26367188 10.69335938 C2.27817383 11.8293457 2.27817383 11.8293457 2.29296875 12.98828125 C2.31653442 14.03302612 2.31653442 14.03302612 2.34057617 15.09887695 C1.90238443 17.54489783 0.86562642 18.42702086 -1 20 C-2.60725635 16.78548731 -2.05748185 13.56387464 -2 10 C-3.65 10 -5.3 10 -7 10 C-5.44279986 6.17778149 -2.92607416 3.84907221 0 1 C0 0.67 0 0.34 0 0 Z " fill="#6660FF" transform="translate(125,86)"/>
<path d="M0 0 C1.32 0 2.64 0 4 0 C4 6.6 4 13.2 4 20 C2.68 19.67 1.36 19.34 0 19 C0 12.73 0 6.46 0 0 Z " fill="#3E3E8B" transform="translate(115,63)"/>
<path d="M0 0 C0.79744629 -0.01869141 1.59489258 -0.03738281 2.41650391 -0.05664062 C4.5234375 0.15625 4.5234375 0.15625 7.5234375 2.15625 C6.5234375 3.15625 6.5234375 3.15625 3.38061523 3.26977539 C1.98941053 3.26961633 0.59819989 3.26392506 -0.79296875 3.25390625 C-1.52402328 3.2524913 -2.25507782 3.25107635 -3.00828552 3.24961853 C-5.35191882 3.24400408 -7.69545789 3.23144922 -10.0390625 3.21875 C-11.62434758 3.21373686 -13.20963416 3.20917363 -14.79492188 3.20507812 C-18.6888386 3.19402997 -22.58268455 3.17675572 -26.4765625 3.15625 C-26.1465625 2.49625 -25.8165625 1.83625 -25.4765625 1.15625 C-22.35178537 0.98522872 -19.22671458 0.82026507 -16.1015625 0.65625 C-15.23144531 0.60855469 -14.36132812 0.56085937 -13.46484375 0.51171875 C-8.97871059 0.27910444 -4.49133286 0.09142662 0 0 Z " fill="#34B3C5" transform="translate(90.4765625,47.84375)"/>
<path d="M0 0 C1.67542976 0.28604898 3.34385343 0.61781233 5 1 C6.18361314 4.55083942 5.96818526 6.10046759 4.8125 9.75 C3 13 3 13 0.88671875 13.703125 C-0.04720703 13.85007812 -0.04720703 13.85007812 -1 14 C-1.02685938 11.85423363 -1.04633088 9.70837355 -1.0625 7.5625 C-1.07410156 6.36753906 -1.08570312 5.17257813 -1.09765625 3.94140625 C-1 1 -1 1 0 0 Z " fill="#31C6DF" transform="translate(106,33)"/>
<path d="M0 0 C8.58 0 17.16 0 26 0 C25.67 0.99 25.34 1.98 25 3 C17.08 3 9.16 3 1 3 C0.67 2.01 0.34 1.02 0 0 Z " fill="#4C4CA0" transform="translate(101,124)"/>
<path d="M0 0 C1.98 0 3.96 0 6 0 C6 3 6 3 4.625 4.6875 C3 6 3 6 1 6 C0.34 7.32 -0.32 8.64 -1 10 C-3.31 10 -5.62 10 -8 10 C-7 8 -7 8 -5 7 C-4.34786708 4.97536745 -4.34786708 4.97536745 -4 3 C-2.68 2.67 -1.36 2.34 0 2 C0 1.34 0 0.68 0 0 Z " fill="#6153FE" transform="translate(119,86)"/>
<path d="M0 0 C0.66 0 1.32 0 2 0 C2.33 0.66 2.66 1.32 3 2 C3.66 2 4.32 2 5 2 C6.6875 3.8125 6.6875 3.8125 8 6 C7.67 6.99 7.34 7.98 7 9 C6.34 9 5.68 9 5 9 C5 9.66 5 10.32 5 11 C4.34 11 3.68 11 3 11 C3 10.01 3 9.02 3 8 C2.01 8 1.02 8 0 8 C-0.33 9.65 -0.66 11.3 -1 13 C-1.66 13 -2.32 13 -3 13 C-2.52060632 8.28596212 -2.03165952 4.33420699 0 0 Z " fill="#8FDDE8" transform="translate(47,89)"/>
<path d="M0 0 C7.59 0 15.18 0 23 0 C23 0.33 23 0.66 23 1 C17.06 1.495 17.06 1.495 11 2 C11 3.65 11 5.3 11 7 C11.66 7 12.32 7 13 7 C13 7.66 13 8.32 13 9 C10 11 10 11 7.875 10.75 C6 10 6 10 5 8 C5.66 8 6.32 8 7 8 C6.34414811 4.39007621 6.34414811 4.39007621 5 1 C3.35 1 1.7 1 0 1 C0 0.67 0 0.34 0 0 Z " fill="#90E2E5" transform="translate(111,46)"/>
<path d="M0 0 C1.35158203 0.15275391 1.35158203 0.15275391 2.73046875 0.30859375 C3.41753906 0.39238281 4.10460937 0.47617188 4.8125 0.5625 C4.8125 3.5325 4.8125 6.5025 4.8125 9.5625 C1.5125 9.5625 -1.7875 9.5625 -5.1875 9.5625 C-4.5275 9.2325 -3.8675 8.9025 -3.1875 8.5625 C-3.1875 7.9025 -3.1875 7.2425 -3.1875 6.5625 C-2.5275 6.5625 -1.8675 6.5625 -1.1875 6.5625 C-0.8575 5.5725 -0.5275 4.5825 -0.1875 3.5625 C0.8025 3.5625 1.7925 3.5625 2.8125 3.5625 C2.8125 2.9025 2.8125 2.2425 2.8125 1.5625 C1.53375 1.748125 0.255 1.93375 -1.0625 2.125 C-4.9375 2.6875 -4.9375 2.6875 -7.1875 1.5625 C-7.5175 2.5525 -7.8475 3.5425 -8.1875 4.5625 C-8.1875 3.2425 -8.1875 1.9225 -8.1875 0.5625 C-4.98734144 -0.50421952 -3.30205706 -0.38595472 0 0 Z " fill="#7790FE" transform="translate(110.1875,72.4375)"/>
<path d="M0 0 C1.24716797 0.00322266 2.49433594 0.00644531 3.77929688 0.00976562 C5.07287109 0.01814453 6.36644531 0.02652344 7.69921875 0.03515625 C9.66858398 0.04192383 9.66858398 0.04192383 11.67773438 0.04882812 C14.91410885 0.06059676 18.15039053 0.07703865 21.38671875 0.09765625 C21.05671875 0.75765625 20.72671875 1.41765625 20.38671875 2.09765625 C19.73074707 2.11747559 19.07477539 2.13729492 18.39892578 2.15771484 C15.43610806 2.25278132 12.47401343 2.36253377 9.51171875 2.47265625 C7.96291016 2.5190625 7.96291016 2.5190625 6.3828125 2.56640625 C4.90361328 2.62441406 4.90361328 2.62441406 3.39453125 2.68359375 C2.4833252 2.71501465 1.57211914 2.74643555 0.63330078 2.77880859 C-1.81259311 2.89648136 -1.81259311 2.89648136 -3.61328125 5.09765625 C-6.34197532 5.06478042 -8.90994305 4.53367854 -11.61328125 4.09765625 C-11.61328125 3.10765625 -11.61328125 2.11765625 -11.61328125 1.09765625 C-7.68039761 0.16677716 -4.03673962 -0.0184326 0 0 Z " fill="#D9D9E8" transform="translate(106.61328125,125.90234375)"/>
<path d="M0 0 C0.33 0.66 0.66 1.32 1 2 C0.34 2 -0.32 2 -1 2 C-1.09796875 2.62648438 -1.1959375 3.25296875 -1.296875 3.8984375 C-1.44640625 4.71570313 -1.5959375 5.53296875 -1.75 6.375 C-1.88921875 7.18710938 -2.0284375 7.99921875 -2.171875 8.8359375 C-3 11 -3 11 -5.078125 12.2890625 C-6.02945313 12.64097656 -6.02945313 12.64097656 -7 13 C-8.32 11.35 -9.64 9.7 -11 8 C-8.75 5.5 -8.75 5.5 -6 3 C-4.68 3 -3.36 3 -2 3 C-2 2.34 -2 1.68 -2 1 C-1.34 0.67 -0.68 0.34 0 0 Z " fill="#4BBADF" transform="translate(48,87)"/>
<path d="M0 0 C0.66 0.66 1.32 1.32 2 2 C1.34 2 0.68 2 0 2 C-0.66 3.32 -1.32 4.64 -2 6 C-2.99 6 -3.98 6 -5 6 C-4.67 6.66 -4.34 7.32 -4 8 C-7.16115776 6.63016497 -7.9927092 6.0109362 -10 3 C-6.70335635 -0.04305568 -4.44038228 -0.48265025 0 0 Z M-11 8 C-10.01 8 -9.02 8 -8 8 C-8 8.66 -8 9.32 -8 10 C-8.99 10 -9.98 10 -11 10 C-11 9.34 -11 8.68 -11 8 Z " fill="#6C74FE" transform="translate(114,114)"/>
<path d="M0 0 C0.66 0 1.32 0 2 0 C2 2.97 2 5.94 2 9 C-0.97 9 -3.94 9 -7 9 C-6.34 7.02 -5.68 5.04 -5 3 C-3.35 2.67 -1.7 2.34 0 2 C0 1.34 0 0.68 0 0 Z " fill="#37DCC8" transform="translate(121,105)"/>
<path d="M0 0 C3.63 0 7.26 0 11 0 C11 3 11 3 10 5 C6.7 5 3.4 5 0 5 C0 3.35 0 1.7 0 0 Z " fill="#34ACC5" transform="translate(105,49)"/>
<path d="M0 0 C2.31 0 4.62 0 7 0 C7.33 1.32 7.66 2.64 8 4 C7.0409375 4.37125 7.0409375 4.37125 6.0625 4.75 C3.80104993 5.79688294 3.80104993 5.79688294 3.4375 8.0625 C3.293125 8.701875 3.14875 9.34125 3 10 C2.01 10.33 1.02 10.66 0 11 C0 7.37 0 3.74 0 0 Z " fill="#5937FF" transform="translate(102,86)"/>
<path d="M0 0 C3.3 0 6.6 0 10 0 C8.38405168 2.04119788 6.7143618 4.04072937 5 6 C4.34 6 3.68 6 3 6 C3 6.66 3 7.32 3 8 C2.01 8.33 1.02 8.66 0 9 C0 6.03 0 3.06 0 0 Z " fill="#3EBCDE" transform="translate(105,54)"/>
<path d="M0 0 C0.33 0 0.66 0 1 0 C1.05395478 1.62463842 1.09277195 3.24978541 1.125 4.875 C1.14820313 5.77992187 1.17140625 6.68484375 1.1953125 7.6171875 C1 10 1 10 -1 12 C-4.125 12.125 -4.125 12.125 -7 12 C-6.01 11.34 -5.02 10.68 -4 10 C-3.63702064 8.02252878 -3.63702064 8.02252878 -3.8125 5.875 C-3.874375 4.59625 -3.93625 3.3175 -4 2 C-2.68 2 -1.36 2 0 2 C0 1.34 0 0.68 0 0 Z " fill="#3ECFD0" transform="translate(33,63)"/>
<path d="M0 0 C-0.99 0.33 -1.98 0.66 -3 1 C-3 1.66 -3 2.32 -3 3 C-7.29 3 -11.58 3 -16 3 C-16.33 2.01 -16.66 1.02 -17 0 C-11.0885256 -0.77313045 -5.8685408 -1.14819277 0 0 Z " fill="#50CFDA" transform="translate(50,102)"/>
<path d="M0 0 C5.41538462 -0.36923077 5.41538462 -0.36923077 8.375 1.5 C8.91125 1.995 9.4475 2.49 10 3 C10.33 2.01 10.66 1.02 11 0 C10.67 1.65 10.34 3.3 10 5 C6.7 5 3.4 5 0 5 C0 3.35 0 1.7 0 0 Z " fill="#34ADC5" transform="translate(33,97)"/>
<path d="M0 0 C0.99 0.33 1.98 0.66 3 1 C3 5.95 3 10.9 3 16 C2.01 16 1.02 16 0 16 C0 10.72 0 5.44 0 0 Z " fill="#5E4BFE" transform="translate(30,81)"/>
<path d="M0 0 C1.65 0 3.3 0 5 0 C5 1.65 5 3.3 5 5 C3.02 5.33 1.04 5.66 -1 6 C-0.67 5.01 -0.34 4.02 0 3 C-4.62 3 -9.24 3 -14 3 C-14 2.67 -14 2.34 -14 2 C-9.38 1.67 -4.76 1.34 0 1 C0 0.67 0 0.34 0 0 Z " fill="#38B0C2" transform="translate(29,32)"/>
<path d="M0 0 C0.33 0 0.66 0 1 0 C1 2.66666667 1 5.33333333 1 8 C1.165 8.825 1.33 9.65 1.5 10.5 C2 13 2 13 2 15 C0.68 14.67 -0.64 14.34 -2 14 C-3.05128687 10.76470168 -2.91901775 8.60277903 -2.125 5.3125 C-1.94195312 4.52488281 -1.75890625 3.73726562 -1.5703125 2.92578125 C-1 1 -1 1 0 0 Z " fill="#38C1C8" transform="translate(117,48)"/>
<path d="M0 0 C0 0.66 0 1.32 0 2 C-5.94 2 -11.88 2 -18 2 C-18.33 1.34 -18.66 0.68 -19 0 C-12.5510809 -1.31909709 -6.51244208 -0.69508823 0 0 Z " fill="#9BC1FE" transform="translate(74,119)"/>
<path d="M0 0 C5.28 0 10.56 0 16 0 C16.33 0.66 16.66 1.32 17 2 C12.05 2 7.1 2 2 2 C2 2.66 2 3.32 2 4 C1.01 4 0.02 4 -1 4 C-0.67 2.68 -0.34 1.36 0 0 Z " fill="#32C7DC" transform="translate(42,45)"/>
<path d="M0 0 C0.66 0 1.32 0 2 0 C2 2.97 2 5.94 2 9 C-0.31 9 -2.62 9 -5 9 C-4.34 8.34 -3.68 7.68 -3 7 C-3.33 6.01 -3.66 5.02 -4 4 C-3.34 4 -2.68 4 -2 4 C-2 3.34 -2 2.68 -2 2 C-1.34 2 -0.68 2 0 2 C0 1.34 0 0.68 0 0 Z " fill="#7896FE" transform="translate(125,115)"/>
<path d="M0 0 C1.23556641 0.01740234 1.23556641 0.01740234 2.49609375 0.03515625 C3.32238281 0.04417969 4.14867187 0.05320312 5 0.0625 C5.63808594 0.07410156 6.27617188 0.08570312 6.93359375 0.09765625 C6.60359375 0.75765625 6.27359375 1.41765625 5.93359375 2.09765625 C5.12921875 2.22140625 4.32484375 2.34515625 3.49609375 2.47265625 C2.22765625 2.78203125 2.22765625 2.78203125 0.93359375 3.09765625 C-0.29168573 5.04786708 -0.29168573 5.04786708 -1.06640625 7.09765625 C-2.05640625 7.59265625 -2.05640625 7.59265625 -3.06640625 8.09765625 C-3.10882348 5.7647085 -3.10733562 3.43063058 -3.06640625 1.09765625 C-2.06640625 0.09765625 -2.06640625 0.09765625 0 0 Z " fill="#4796EB" transform="translate(36.06640625,85.90234375)"/>
<path d="M0 0 C0.598125 0.268125 1.19625 0.53625 1.8125 0.8125 C2.1425 1.8025 2.4725 2.7925 2.8125 3.8125 C0.8125 5.8125 0.8125 5.8125 -2.8125 5.9375 C-3.92625 5.89625 -5.04 5.855 -6.1875 5.8125 C-6.1875 4.4925 -6.1875 3.1725 -6.1875 1.8125 C-3.93528616 0.44508445 -2.66192242 -0.22816478 0 0 Z " fill="#34CDD8" transform="translate(124.1875,33.1875)"/>
<path d="M0 0 C0.5625 1.9375 0.5625 1.9375 1 4 C0 5 0 5 -2.72265625 5.09765625 C-4.37587891 5.08025391 -4.37587891 5.08025391 -6.0625 5.0625 C-7.16722656 5.05347656 -8.27195313 5.04445313 -9.41015625 5.03515625 C-10.69212891 5.01775391 -10.69212891 5.01775391 -12 5 C-12 4.34 -12 3.68 -12 3 C-10.82630859 2.80083984 -10.82630859 2.80083984 -9.62890625 2.59765625 C-8.61699219 2.42105469 -7.60507812 2.24445313 -6.5625 2.0625 C-5.55316406 1.88847656 -4.54382812 1.71445313 -3.50390625 1.53515625 C-1.0712562 1.25248903 -1.0712562 1.25248903 0 0 Z " fill="#38DEC5" transform="translate(59,100)"/>
<path d="M0 0 C2 2 2 2 2.3125 5.9375 C2.25612142 8.76155426 2.23113287 9.69182284 0.5 12 C0.005 12.33 -0.49 12.66 -1 13 C-2.17673198 10.64653604 -2.16623866 9.1193967 -2.1875 6.5 C-2.20167969 5.7059375 -2.21585937 4.911875 -2.23046875 4.09375 C-2 2 -2 2 0 0 Z " fill="#6C73FE" transform="translate(125,93)"/>
<path d="M0 0 C4.62 0 9.24 0 14 0 C14.33 1.32 14.66 2.64 15 4 C14.01 4 13.02 4 12 4 C12 3.34 12 2.68 12 2 C8.37 2 4.74 2 1 2 C0.67 1.34 0.34 0.68 0 0 Z " fill="#58DAD4" transform="translate(83,45)"/>
<path d="M0 0 C0.99 0 1.98 0 3 0 C3 1.65 3 3.3 3 5 C4.32 5.33 5.64 5.66 7 6 C7 6.66 7 7.32 7 8 C4.36 8.33 1.72 8.66 -1 9 C-0.67 6.03 -0.34 3.06 0 0 Z " fill="#3BCBDC" transform="translate(15,68)"/>
<path d="M0 0 C0.66 0 1.32 0 2 0 C1.69128878 1.79232337 1.37790936 3.58384321 1.0625 5.375 C0.88847656 6.37273437 0.71445312 7.37046875 0.53515625 8.3984375 C0 11 0 11 -1 13 C-1.66 13 -2.32 13 -3 13 C-2.52060632 8.28596212 -2.03165952 4.33420699 0 0 Z " fill="#D8F2F6" transform="translate(47,89)"/>
<path d="M0 0 C1.67542976 0.28604898 3.34385343 0.61781233 5 1 C4.67 2.32 4.34 3.64 4 5 C2.68 5.33 1.36 5.66 0 6 C-0.38218767 4.34385343 -0.71395102 2.67542976 -1 1 C-0.67 0.67 -0.34 0.34 0 0 Z " fill="#48CEDC" transform="translate(22,67)"/>
<path d="M0 0 C-0.54269531 0.33773437 -1.08539063 0.67546875 -1.64453125 1.0234375 C-2.71767578 1.69246094 -2.71767578 1.69246094 -3.8125 2.375 C-4.87404297 3.03628906 -4.87404297 3.03628906 -5.95703125 3.7109375 C-7.65432039 4.78188476 -9.33014358 5.88676239 -11 7 C-10.67 5.02 -10.34 3.04 -10 1 C-6.16112237 -0.48320272 -3.93795909 -1.22419163 0 0 Z " fill="#40C3ED" transform="translate(120,97)"/>
<path d="M0 0 C2.375 0.3125 2.375 0.3125 5 1 C5.66 1.99 6.32 2.98 7 4 C6.01 4.99 5.02 5.98 4 7 C0 2.25 0 2.25 0 0 Z " fill="#44CBD7" transform="translate(51,89)"/>
<path d="M0 0 C0.66 0 1.32 0 2 0 C2 1.65 2 3.3 2 5 C2.66 5.33 3.32 5.66 4 6 C3.34 6.66 2.68 7.32 2 8 C-0.0625 7.75 -0.0625 7.75 -2 7 C-2.33 6.34 -2.66 5.68 -3 5 C-2.01 5 -1.02 5 0 5 C0 3.35 0 1.7 0 0 Z " fill="#F5FBFB" transform="translate(119,49)"/>
<path d="M0 0 C0.99 0.33 1.98 0.66 3 1 C3.6875 3.0625 3.6875 3.0625 4 5 C1.36 5 -1.28 5 -4 5 C-2.68 3.35 -1.36 1.7 0 0 Z " fill="#BDD6FD" transform="translate(82,113)"/>
<path d="M0 0 C0.99 0 1.98 0 3 0 C3.33 0.66 3.66 1.32 4 2 C6.02463255 2.65213292 6.02463255 2.65213292 8 3 C8 3.66 8 4.32 8 5 C7.34 5 6.68 5 6 5 C5.67 5.99 5.34 6.98 5 8 C4.7525 7.38125 4.505 6.7625 4.25 6.125 C2.79371361 3.64931313 1.62187494 3.04874998 -1 2 C-0.67 1.34 -0.34 0.68 0 0 Z " fill="#FAFDFE" transform="translate(22,63)"/>
<path d="M0 0 C2.33944736 0.28730055 4.6739143 0.61936779 7 1 C6.01 1.66 5.02 2.32 4 3 C3.01 4.485 3.01 4.485 2 6 C1.34 6 0.68 6 0 6 C-0.38218767 4.34385343 -0.71395102 2.67542976 -1 1 C-0.67 0.67 -0.34 0.34 0 0 Z " fill="#D8F1F7" transform="translate(18,65)"/>
<path d="M0 0 C3.3 0 6.6 0 10 0 C9.67 0.66 9.34 1.32 9 2 C7.02 2 5.04 2 3 2 C2.67 2.66 2.34 3.32 2 4 C1.01 4 0.02 4 -1 4 C-0.67 2.68 -0.34 1.36 0 0 Z " fill="#46B0F5" transform="translate(106,96)"/>
<path d="M0 0 C1.32 0 2.64 0 4 0 C3.67 1.98 3.34 3.96 3 6 C2.01 6 1.02 6 0 6 C0 4.02 0 2.04 0 0 Z " fill="#3DB3DF" transform="translate(30,59)"/>
<path d="M0 0 C2.125 0.9375 2.125 0.9375 4 2 C4 2.33 4 2.66 4 3 C-0.29 3 -4.58 3 -9 3 C-9 2.34 -9 1.68 -9 1 C-7.88625 1.020625 -6.7725 1.04125 -5.625 1.0625 C-2.16784079 1.26380718 -2.16784079 1.26380718 0 0 Z " fill="#88CBDE" transform="translate(107,46)"/>
<path d="M0 0 C0.33 0 0.66 0 1 0 C1.08090971 1.62418745 1.13914995 3.24951745 1.1875 4.875 C1.22230469 5.77992187 1.25710937 6.68484375 1.29296875 7.6171875 C1.19628906 8.40351562 1.09960938 9.18984375 1 10 C0.01 10.66 -0.98 11.32 -2 12 C-1.85962479 10.18706911 -1.71255111 8.3746557 -1.5625 6.5625 C-1.48128906 5.55316406 -1.40007812 4.54382813 -1.31640625 3.50390625 C-1 1 -1 1 0 0 Z " fill="#655BFF" transform="translate(104,103)"/>
<path d="M0 0 C2.31 0.33 4.62 0.66 7 1 C6.01 1.33 5.02 1.66 4 2 C4 2.66 4 3.32 4 4 C1.69 4 -0.62 4 -3 4 C-2.34 3.67 -1.68 3.34 -1 3 C-0.67 2.01 -0.34 1.02 0 0 Z " fill="#48D7D1" transform="translate(43,101)"/>
<path d="M0 0 C0.33 1.32 0.66 2.64 1 4 C0.01 4.33 -0.98 4.66 -2 5 C-2 5.99 -2 6.98 -2 8 C-2.66 8 -3.32 8 -4 8 C-4 6.02 -4 4.04 -4 2 C-2.68 2 -1.36 2 0 2 C0 1.34 0 0.68 0 0 Z " fill="#3AC3D4" transform="translate(33,63)"/>
<path d="M0 0 C1.65 0 3.3 0 5 0 C5 1.98 5 3.96 5 6 C4.67 5.34 4.34 4.68 4 4 C3.01 4 2.02 4 1 4 C0.67 2.68 0.34 1.36 0 0 Z " fill="#44D0DA" transform="translate(21,59)"/>
<path d="M0 0 C2.31 0 4.62 0 7 0 C6.67 0.99 6.34 1.98 6 3 C4.02 3 2.04 3 0 3 C0 2.01 0 1.02 0 0 Z " fill="#34CED8" transform="translate(22,35)"/>
<path d="M0 0 C0.99 0 1.98 0 3 0 C3.33 1.32 3.66 2.64 4 4 C2.35 4.33 0.7 4.66 -1 5 C-0.67 3.35 -0.34 1.7 0 0 Z " fill="#35C0C6" transform="translate(47,97)"/>
<path d="M0 0 C1.98 0 3.96 0 6 0 C5.34 1.32 4.68 2.64 4 4 C2.68 4 1.36 4 0 4 C0 2.68 0 1.36 0 0 Z " fill="#7ED9E6" transform="translate(113,39)"/>
<path d="M0 0 C0 0.99 0 1.98 0 3 C0.3062434 4.33981486 0.63451555 5.67511887 1 7 C-0.32 6.34 -1.64 5.68 -3 5 C-3 4.01 -3 3.02 -3 2 C-2.01 1.34 -1.02 0.68 0 0 Z " fill="#E8F5F9" transform="translate(41,92)"/>
</svg>
