<?xml version="1.0" encoding="UTF-8"?>
<svg version="1.1" xmlns="http://www.w3.org/2000/svg" width="150" height="150">
<path d="M0 0 C3.34373475 0.55728913 6.03312999 1.35173889 9 3 C8.79375 4.093125 8.5875 5.18625 8.375 6.3125 C7.59653475 10.0838401 7.59653475 10.0838401 10 13 C12.91236971 13.3578138 15.64305105 13.55826974 18.5625 13.625 C26.89578086 13.89578086 26.89578086 13.89578086 28 15 C28.15806531 16.92478813 28.251135 18.8549921 28.31640625 20.78515625 C28.37924805 22.53989258 28.37924805 22.53989258 28.44335938 24.33007812 C28.48267578 25.56177734 28.52199219 26.79347656 28.5625 28.0625 C28.60568359 29.29806641 28.64886719 30.53363281 28.69335938 31.80664062 C28.79984198 34.87097335 28.90185424 37.93539073 29 41 C30.65 41 32.3 41 34 41 C35.8684361 44.84678022 36.05395731 46.8895665 35 51 C35 52.32 35 53.64 35 55 C34.01 55.99 34.01 55.99 33 57 C32.01 56.67 31.02 56.34 30 56 C29.34 57.32 28.68 58.64 28 60 C26.02 60 24.04 60 22 60 C21.01 58.02 21.01 58.02 20 56 C18.68 56.33 17.36 56.66 16 57 C14.23937836 53.67438135 13.89215772 52.40826005 14.875 48.6875 C15.431875 47.3571875 15.431875 47.3571875 16 46 C15.34 46 14.68 46 14 46 C14 45.34 14 44.68 14 44 C13.34 44 12.68 44 12 44 C12 50.6 12 57.2 12 64 C14.31 64 16.62 64 19 64 C20 65 20 65 20.11352539 68.96899414 C20.1133662 70.74105607 20.10766785 72.5131226 20.09765625 74.28515625 C20.0962413 75.21597519 20.09482635 76.14679413 20.09336853 77.1058197 C20.08775172 80.09141191 20.0751964 83.07693029 20.0625 86.0625 C20.05748716 88.08137913 20.05292388 90.10025943 20.04882812 92.11914062 C20.03777683 97.07945572 20.02050095 102.03971532 20 107 C22.31 107.66 24.62 108.32 27 109 C26 111 26 111 24.34521484 111.61450195 C19.49200924 112.41225457 14.54404055 112.18590312 9.63769531 112.18530273 C7.63863013 112.18748512 5.63960468 112.20599143 3.640625 112.22460938 C2.36960937 112.22654297 1.09859375 112.22847656 -0.2109375 112.23046875 C-1.36899902 112.23457764 -2.52706055 112.23868652 -3.72021484 112.24291992 C-7.11310954 111.99162245 -9.83332989 111.21173908 -13 110 C-12.67 109.34 -12.34 108.68 -12 108 C-9.4375 107.375 -9.4375 107.375 -7 107 C-7.67857056 106.99191315 -8.35714111 106.98382629 -9.05627441 106.97549438 C-16.19572947 106.88863335 -23.33493245 106.7891071 -30.47412109 106.68261719 C-33.12938188 106.64363425 -35.7845665 106.60971702 -38.43994141 106.578125 C-77.60123784 106.10647973 -77.60123784 106.10647973 -89 100 C-88.95875 99.21625 -88.9175 98.4325 -88.875 97.625 C-88.71271266 94.83883881 -88.71271266 94.83883881 -91 93 C-93.58354218 92.83312552 -93.58354218 92.83312552 -96 93 C-97.42944945 90.64561267 -98.08661261 89.51967567 -97.625 86.75 C-97.41875 86.1725 -97.2125 85.595 -97 85 C-96.01 85 -95.02 85 -94 85 C-94 83.02 -94 81.04 -94 79 C-94.66 78.67 -95.32 78.34 -96 78 C-95.03558469 75.58896173 -94.31202953 74.22595242 -92.1875 72.6875 C-89.44153385 71.82448207 -87.75206934 72.27577123 -85 73 C-84.34 73 -83.68 73 -83 73 C-82.01 67.06 -82.01 67.06 -81 61 C-85.29 61 -89.58 61 -94 61 C-94 60.01 -94 59.02 -94 58 C-95.98 58 -97.96 58 -100 58 C-100 57.34 -100 56.68 -100 56 C-98.02 56 -96.04 56 -94 56 C-94 54.68 -94 53.36 -94 52 C-95.98 52 -97.96 52 -100 52 C-100 51.34 -100 50.68 -100 50 C-98.02 50 -96.04 50 -94 50 C-94 48.68 -94 47.36 -94 46 C-95.98 46 -97.96 46 -100 46 C-100 45.34 -100 44.68 -100 44 C-98.02 44 -96.04 44 -94 44 C-94 43.01 -94 42.02 -94 41 C-95.98 40.67 -97.96 40.34 -100 40 C-100 39.67 -100 39.34 -100 39 C-93.73 39 -87.46 39 -81 39 C-81 37.35 -81 35.7 -81 34 C-87.27 34 -93.54 34 -100 34 C-100 33.67 -100 33.34 -100 33 C-97.525 32.505 -97.525 32.505 -95 32 C-94.67 30.68 -94.34 29.36 -94 28 C-95.98 28 -97.96 28 -100 28 C-100 27.67 -100 27.34 -100 27 C-98.35 26.67 -96.7 26.34 -95 26 C-94.67 24.68 -94.34 23.36 -94 22 C-95.98 22 -97.96 22 -100 22 C-100 21.67 -100 21.34 -100 21 C-98.35 20.67 -96.7 20.34 -95 20 C-94.67 18.68 -94.34 17.36 -94 16 C-95.98 16 -97.96 16 -100 16 C-100 15.67 -100 15.34 -100 15 C-94.11060037 12.95887931 -88.8280285 12.72721958 -82.625 12.8125 C-81.25408203 12.8134668 -81.25408203 12.8134668 -79.85546875 12.81445312 C-73.14064837 12.85935163 -73.14064837 12.85935163 -72 14 C-69.19023482 14.16017166 -66.40226404 14.25950534 -63.58984375 14.31640625 C-62.74780899 14.33718735 -61.90577423 14.35796844 -61.03822327 14.37937927 C-58.33806821 14.44496812 -55.63781283 14.50380276 -52.9375 14.5625 C-51.11131759 14.60567637 -49.28514546 14.64929036 -47.45898438 14.69335938 C-42.97276008 14.80065894 -38.4864345 14.90189966 -34 15 C-34 15.33 -34 15.66 -34 16 C-46.87 16 -59.74 16 -73 16 C-72.67 17.32 -72.34 18.64 -72 20 C-59.46 20.33 -46.92 20.66 -34 21 C-34 21.33 -34 21.66 -34 22 C-46.87 22 -59.74 22 -73 22 C-72.67 23.32 -72.34 24.64 -72 26 C-56.16 26 -40.32 26 -24 26 C-24.495 24.515 -24.495 24.515 -25 23 C-25.03954234 20.66700175 -25.04401732 18.33291811 -25 16 C-23.02 16 -21.04 16 -19 16 C-17.16304566 11.66072031 -17.16304566 11.66072031 -17.875 7.125 C-18.24625 6.42375 -18.6175 5.7225 -19 5 C-17.02 3.68 -15.04 2.36 -13 1 C-11.68 1.66 -10.36 2.32 -9 3 C-9 3.66 -9 4.32 -9 5 C-6.69 5 -4.38 5 -2 5 C-1.34 3.35 -0.68 1.7 0 0 Z M-11 13 C-13.2084626 16.31269391 -13.80664241 18.14978851 -13.5546875 22.0625 C-12.4812192 25.81207941 -10.28696911 27.01541488 -7 29 C-4.36163023 29.1672392 -4.36163023 29.1672392 -2 29 C-1.96261719 28.01257813 -1.92523438 27.02515625 -1.88671875 26.0078125 C-1.82097656 24.72648437 -1.75523438 23.44515625 -1.6875 22.125 C-1.62949219 20.84882812 -1.57148437 19.57265625 -1.51171875 18.2578125 C-1.34285156 17.18273437 -1.17398438 16.10765625 -1 15 C-0.01 14.34 0.98 13.68 2 13 C0.01607489 10.60148679 0.01607489 10.60148679 -3.8125 10.5625 C-7.17733329 10.66669338 -8.04370031 11.02913354 -11 13 Z M-73 28 C-73 28.66 -73 29.32 -73 30 C-70.69 30 -68.38 30 -66 30 C-66 29.34 -66 28.68 -66 28 C-68.31 28 -70.62 28 -73 28 Z M20 46 C20.32326553 49.59679066 20.32326553 49.59679066 21 53 C25.07079208 54.1508314 25.07079208 54.1508314 28.875 52.875 C30.3568671 50.40522151 30.3633156 48.83386167 30 46 C28.11499729 43.68436913 28.11499729 43.68436913 25 43.75 C21.88500271 43.68436913 21.88500271 43.68436913 20 46 Z M-87.25 79.625 C-89.21985834 81.92308586 -89.21985834 81.92308586 -89.5 85 C-89.21376982 88.06575838 -89.21376982 88.06575838 -87.3125 90.375 C-84.61209763 92.27258004 -83.22939919 92.35882213 -80 92 C-79.85024761 84.94348748 -79.85024761 84.94348748 -81 78 C-84.92212225 77.60967296 -84.92212225 77.60967296 -87.25 79.625 Z M-72 97 C-71.67 97.66 -71.34 98.32 -71 99 C-59.12 98.01 -59.12 98.01 -47 97 C-46.67 96.01 -46.34 95.02 -46 94 C-49.77068832 93.913015 -53.54111932 93.85961421 -57.3125 93.8125 C-58.9202832 93.77479492 -58.9202832 93.77479492 -60.56054688 93.73632812 C-61.58857422 93.72666016 -62.61660156 93.71699219 -63.67578125 93.70703125 C-64.62364502 93.6913208 -65.57150879 93.67561035 -66.5480957 93.65942383 C-69.39771408 94.05524357 -70.24976105 94.77824719 -72 97 Z M-22 94 C-22 94.99 -22 95.98 -22 97 C-16.72 97.33 -11.44 97.66 -6 98 C-6 96.68 -6 95.36 -6 94 C-11.28 94 -16.56 94 -22 94 Z M-81 97 C-81 97.99 -81 98.98 -81 100 C-78.36 99.67 -75.72 99.34 -73 99 C-73.66 98.01 -74.32 97.02 -75 96 C-78.7763932 95.7018576 -78.7763932 95.7018576 -81 97 Z " fill="#6C72FE" transform="translate(107,19)"/>
<path d="M0 0 C2.31 0 4.62 0 7 0 C7 2.97 7 5.94 7 9 C10.3 9 13.6 9 17 9 C17 15.6 17 22.2 17 29 C12.71 29 8.42 29 4 29 C4 29.66 4 30.32 4 31 C12.79133718 32.42426407 12.79133718 32.42426407 29 32 C29 45.2 29 58.4 29 72 C31.31 72.66 33.62 73.32 36 74 C35 76 35 76 33.34521484 76.61450195 C28.49200924 77.41225457 23.54404055 77.18590312 18.63769531 77.18530273 C16.63863013 77.18748512 14.63960468 77.20599143 12.640625 77.22460938 C11.36960937 77.22654297 10.09859375 77.22847656 8.7890625 77.23046875 C7.63100098 77.23457764 6.47293945 77.23868652 5.27978516 77.24291992 C1.88689046 76.99162245 -0.83332989 76.21173908 -4 75 C-3.67 74.34 -3.34 73.68 -3 73 C-0.4375 72.375 -0.4375 72.375 2 72 C1.32142944 71.99191315 0.64285889 71.98382629 -0.05627441 71.97549438 C-7.19572947 71.88863335 -14.33493245 71.7891071 -21.47412109 71.68261719 C-24.12938188 71.64363425 -26.7845665 71.60971702 -29.43994141 71.578125 C-68.60123784 71.10647973 -68.60123784 71.10647973 -80 65 C-79.938125 63.824375 -79.938125 63.824375 -79.875 62.625 C-79.71271266 59.83883881 -79.71271266 59.83883881 -82 58 C-84.58354218 57.83312552 -84.58354218 57.83312552 -87 58 C-88.42944945 55.64561267 -89.08661261 54.51967567 -88.625 51.75 C-88.41875 51.1725 -88.2125 50.595 -88 50 C-87.01 50 -86.02 50 -85 50 C-85 48.02 -85 46.04 -85 44 C-85.66 43.67 -86.32 43.34 -87 43 C-86.03558469 40.58896173 -85.31202953 39.22595242 -83.1875 37.6875 C-80.44153385 36.82448207 -78.75206934 37.27577123 -76 38 C-75.34 38 -74.68 38 -74 38 C-73.67 36.68 -73.34 35.36 -73 34 C-72.67 34 -72.34 34 -72 34 C-72 36.97 -72 39.94 -72 43 C-72.969375 43.28875 -73.93875 43.5775 -74.9375 43.875 C-78.10664203 44.64214682 -78.10664203 44.64214682 -79 47 C-79.40270732 51.1283652 -79.40270732 51.1283652 -77.8125 54.8125 C-75.57968261 56.27538036 -73.62655933 56.64505955 -71 57 C-71 54.03 -71 51.06 -71 48 C-69.02 48 -67.04 48 -65 48 C-64.67 48.66 -64.34 49.32 -64 50 C-55.75 50 -47.5 50 -39 50 C-38.505 49.01 -38.505 49.01 -38 48 C-24.47 48 -10.94 48 3 48 C3 46.35 3 44.7 3 43 C-6.24 43 -15.48 43 -25 43 C-24.67 41.68 -24.34 40.36 -24 39 C-23.93543121 37.58465222 -23.91388961 36.16662311 -23.9375 34.75 C-23.958125 33.5125 -23.97875 32.275 -24 31 C-20.7 30.67 -17.4 30.34 -14 30 C-14.495 29.01 -14.495 29.01 -15 28 C-13.60974609 27.80083984 -13.60974609 27.80083984 -12.19140625 27.59765625 C-10.99386719 27.42105469 -9.79632813 27.24445313 -8.5625 27.0625 C-7.36753906 26.88847656 -6.17257813 26.71445313 -4.94140625 26.53515625 C-2.12044324 26.31014787 -2.12044324 26.31014787 -1 25 C-0.84213692 23.14825294 -0.74892644 21.2909089 -0.68359375 19.43359375 C-0.64169922 18.30888672 -0.59980469 17.18417969 -0.55664062 16.02539062 C-0.51732422 14.84138672 -0.47800781 13.65738281 -0.4375 12.4375 C-0.37272461 10.65569336 -0.37272461 10.65569336 -0.30664062 8.83789062 C-0.20016454 5.89205216 -0.09815159 2.9461257 0 0 Z M-63 62 C-62.67 62.66 -62.34 63.32 -62 64 C-50.12 63.01 -50.12 63.01 -38 62 C-37.67 61.01 -37.34 60.02 -37 59 C-40.77068832 58.913015 -44.54111932 58.85961421 -48.3125 58.8125 C-49.9202832 58.77479492 -49.9202832 58.77479492 -51.56054688 58.73632812 C-52.58857422 58.72666016 -53.61660156 58.71699219 -54.67578125 58.70703125 C-55.62364502 58.6913208 -56.57150879 58.67561035 -57.5480957 58.65942383 C-60.39771408 59.05524357 -61.24976105 59.77824719 -63 62 Z M-13 59 C-13 59.99 -13 60.98 -13 62 C-7.72 62.33 -2.44 62.66 3 63 C3 61.68 3 60.36 3 59 C-2.28 59 -7.56 59 -13 59 Z M-72 62 C-72 62.99 -72 63.98 -72 65 C-69.36 64.67 -66.72 64.34 -64 64 C-64.66 63.01 -65.32 62.02 -66 61 C-69.7763932 60.7018576 -69.7763932 60.7018576 -72 62 Z " fill="#5E4CF4" transform="translate(98,54)"/>
<path d="M0 0 C0.33 0 0.66 0 1 0 C1 2.97 1 5.94 1 9 C0.030625 9.28875 -0.93875 9.5775 -1.9375 9.875 C-5.10664203 10.64214682 -5.10664203 10.64214682 -6 13 C-6.40270732 17.1283652 -6.40270732 17.1283652 -4.8125 20.8125 C-2.57968261 22.27538036 -0.62655933 22.64505955 2 23 C2 20.03 2 17.06 2 14 C3.98 14 5.96 14 8 14 C8.33 14.66 8.66 15.32 9 16 C17.25 16 25.5 16 34 16 C34.33 15.34 34.66 14.68 35 14 C48.53 14 62.06 14 76 14 C76 17.63 76 21.26 76 25 C70.72 25 65.44 25 60 25 C60 25.99 60 26.98 60 28 C60.56847656 27.98839844 61.13695313 27.97679688 61.72265625 27.96484375 C66.60670484 27.90776806 71.18503965 28.18043228 76 29 C76 31.64 76 34.28 76 37 C68.71409984 37.04682155 61.42823335 37.08211748 54.14221191 37.10362434 C50.75718789 37.11395864 47.37226851 37.12792229 43.98730469 37.15087891 C4.93955462 37.39618997 4.93955462 37.39618997 -7 31 C-6.95875 30.21625 -6.9175 29.4325 -6.875 28.625 C-6.71271266 25.83883881 -6.71271266 25.83883881 -9 24 C-11.58354218 23.83312552 -11.58354218 23.83312552 -14 24 C-15.42944945 21.64561267 -16.08661261 20.51967567 -15.625 17.75 C-15.41875 17.1725 -15.2125 16.595 -15 16 C-14.01 16 -13.02 16 -12 16 C-12 14.02 -12 12.04 -12 10 C-12.66 9.67 -13.32 9.34 -14 9 C-13.03558469 6.58896173 -12.31202953 5.22595242 -10.1875 3.6875 C-7.44153385 2.82448207 -5.75206934 3.27577123 -3 4 C-2.34 4 -1.68 4 -1 4 C-0.67 2.68 -0.34 1.36 0 0 Z M10 28 C10.33 28.66 10.66 29.32 11 30 C22.88 29.01 22.88 29.01 35 28 C35.33 27.01 35.66 26.02 36 25 C32.22931168 24.913015 28.45888068 24.85961421 24.6875 24.8125 C23.0797168 24.77479492 23.0797168 24.77479492 21.43945312 24.73632812 C20.41142578 24.72666016 19.38339844 24.71699219 18.32421875 24.70703125 C17.37635498 24.6913208 16.42849121 24.67561035 15.4519043 24.65942383 C12.60228592 25.05524357 11.75023895 25.77824719 10 28 Z M1 28 C1 28.99 1 29.98 1 31 C3.64 30.67 6.28 30.34 9 30 C8.34 29.01 7.68 28.02 7 27 C3.2236068 26.7018576 3.2236068 26.7018576 1 28 Z " fill="#B3D0FE" transform="translate(25,88)"/>
<path d="M0 0 C16.83 0 33.66 0 51 0 C51 10.23 51 20.46 51 31 C34.17 31 17.34 31 0 31 C0 20.77 0 10.54 0 0 Z " fill="#484C90" transform="translate(44,47)"/>
<path d="M0 0 C3.34373475 0.55728913 6.03312999 1.35173889 9 3 C8.79375 4.093125 8.5875 5.18625 8.375 6.3125 C7.59653475 10.0838401 7.59653475 10.0838401 10 13 C12.91236971 13.3578138 15.64305105 13.55826974 18.5625 13.625 C26.89578086 13.89578086 26.89578086 13.89578086 28 15 C28.15806531 16.92478813 28.251135 18.8549921 28.31640625 20.78515625 C28.35830078 21.95498047 28.40019531 23.12480469 28.44335938 24.33007812 C28.48267578 25.56177734 28.52199219 26.79347656 28.5625 28.0625 C28.60568359 29.29806641 28.64886719 30.53363281 28.69335938 31.80664062 C28.79984198 34.87097335 28.90185424 37.93539073 29 41 C30.65 41 32.3 41 34 41 C35.8684361 44.84678022 36.05395731 46.8895665 35 51 C35 52.32 35 53.64 35 55 C34.34 55.66 33.68 56.32 33 57 C32.01 56.67 31.02 56.34 30 56 C29.34 57.32 28.68 58.64 28 60 C26.02 60 24.04 60 22 60 C21.34 58.68 20.68 57.36 20 56 C18.02 56.495 18.02 56.495 16 57 C14.23937836 53.67438135 13.89215772 52.40826005 14.875 48.6875 C15.24625 47.800625 15.6175 46.91375 16 46 C15.34 46 14.68 46 14 46 C14 45.34 14 44.68 14 44 C13.34 44 12.68 44 12 44 C12 43.34 12 42.68 12 42 C13.53125 40.4921875 13.53125 40.4921875 15.5 38.875 C16.1496875 38.33617187 16.799375 37.79734375 17.46875 37.2421875 C17.9740625 36.83226562 18.479375 36.42234375 19 36 C18.34 35.01 17.68 34.02 17 33 C17.99 32.67 18.98 32.34 20 32 C20.99 31.01 21.98 30.02 23 29 C15.41 28.67 7.82 28.34 0 28 C0.33 26.68 0.66 25.36 1 24 C1.99 23.67 2.98 23.34 4 23 C3.67367555 17.80168175 3.67367555 17.80168175 1.9375 13 C-1.29013365 11.33412457 -4.50858471 11.3888267 -8 12 C-10.66666667 13.33333333 -10.66666667 13.33333333 -12 16 C-12.47462745 19.4806013 -12.60420518 22.79158965 -11 26 C-15.29 26 -19.58 26 -24 26 C-25.1577506 22.52674819 -25.06866652 19.63932552 -25 16 C-23.02 16 -21.04 16 -19 16 C-17.16304566 11.66072031 -17.16304566 11.66072031 -17.875 7.125 C-18.24625 6.42375 -18.6175 5.7225 -19 5 C-17.02 3.68 -15.04 2.36 -13 1 C-11.68 1.66 -10.36 2.32 -9 3 C-9 3.66 -9 4.32 -9 5 C-6.69 5 -4.38 5 -2 5 C-1.34 3.35 -0.68 1.7 0 0 Z M20 46 C20.32326553 49.59679066 20.32326553 49.59679066 21 53 C25.07079208 54.1508314 25.07079208 54.1508314 28.875 52.875 C30.3568671 50.40522151 30.3633156 48.83386167 30 46 C28.11499729 43.68436913 28.11499729 43.68436913 25 43.75 C21.88500271 43.68436913 21.88500271 43.68436913 20 46 Z " fill="#E8EAF1" transform="translate(107,19)"/>
<path d="M0 0 C1.67542976 0.28604898 3.34385343 0.61781233 5 1 C5.75 3.75 5.75 3.75 6 7 C4.125 9.1875 4.125 9.1875 2 11 C1.67 11.99 1.34 12.98 1 14 C8.59 14 16.18 14 24 14 C24.495 14.99 24.495 14.99 25 16 C24.01 16 23.02 16 22 16 C21.505 17.485 21.505 17.485 21 19 C20.34 19.33 19.68 19.66 19 20 C19.99 20.66 20.98 21.32 22 22 C21.38125 22.0825 20.7625 22.165 20.125 22.25 C17.82027141 22.79394438 17.82027141 22.79394438 16.9375 25 C16.4734375 25.99 16.4734375 25.99 16 27 C14.515 27.495 14.515 27.495 13 28 C13 35.26 13 42.52 13 50 C15.31 50 17.62 50 20 50 C20.33 50.99 20.66 51.98 21 53 C12.19039858 54.30512614 3.80960142 54.30512614 -5 53 C-4.67 52.01 -4.34 51.02 -4 50 C0.29 50 4.58 50 9 50 C9 43.4 9 36.8 9 30 C5.7 30 2.4 30 -1 30 C-1 27.03 -1 24.06 -1 21 C-3.31 21 -5.62 21 -8 21 C-7.98428955 22.12027588 -7.98428955 22.12027588 -7.96826172 23.26318359 C-7.9267923 26.63375508 -7.90070271 30.004273 -7.875 33.375 C-7.85824219 34.550625 -7.84148437 35.72625 -7.82421875 36.9375 C-7.81455078 38.61972656 -7.81455078 38.61972656 -7.8046875 40.3359375 C-7.78897705 41.89127197 -7.78897705 41.89127197 -7.77294922 43.47802734 C-8 46 -8 46 -10 48 C-12.23913574 48.25396729 -12.23913574 48.25396729 -15.06054688 48.25878906 C-16.64228699 48.26824554 -16.64228699 48.26824554 -18.25598145 48.27789307 C-19.39869507 48.2738446 -20.54140869 48.26979614 -21.71875 48.265625 C-23.47197571 48.26849518 -23.47197571 48.26849518 -25.26062012 48.27142334 C-27.73543513 48.27278626 -30.21025726 48.26908241 -32.68505859 48.26074219 C-36.48421205 48.25004446 -40.28289259 48.26063418 -44.08203125 48.2734375 C-46.48177188 48.27211592 -48.88151222 48.26955357 -51.28125 48.265625 C-52.99532043 48.27169769 -52.99532043 48.27169769 -54.74401855 48.27789307 C-55.79851196 48.27158875 -56.85300537 48.26528442 -57.93945312 48.25878906 C-58.8705188 48.25719788 -59.80158447 48.25560669 -60.76086426 48.25396729 C-63 48 -63 48 -65 46 C-65.22705078 43.01904297 -65.22705078 43.01904297 -65.1953125 39.2421875 C-65.1924826 38.57913605 -65.18965271 37.91608459 -65.18673706 37.23294067 C-65.17553435 35.11344417 -65.15043051 32.99436896 -65.125 30.875 C-65.11497028 29.43880818 -65.10584441 28.00260975 -65.09765625 26.56640625 C-65.075595 23.04413372 -65.04106494 19.52210797 -65 16 C-64.01 16 -63.02 16 -62 16 C-62 25.57 -62 35.14 -62 45 C-45.17 45 -28.34 45 -11 45 C-11 34.77 -11 24.54 -11 14 C-18.26 14 -25.52 14 -33 14 C-33 13.34 -33 12.68 -33 12 C-29.06256167 11.94202435 -25.12523281 11.90641211 -21.1875 11.875 C-20.06794922 11.85824219 -18.94839844 11.84148438 -17.79492188 11.82421875 C-16.72177734 11.81777344 -15.64863281 11.81132813 -14.54296875 11.8046875 C-13.0583313 11.78897705 -13.0583313 11.78897705 -11.54370117 11.77294922 C-9 12 -9 12 -6 14 C-4.34450469 14.38499891 -2.6777567 14.72793135 -1 15 C-1.01160156 14.00097656 -1.02320313 13.00195312 -1.03515625 11.97265625 C-1.04417969 10.68230469 -1.05320313 9.39195313 -1.0625 8.0625 C-1.07410156 6.77472656 -1.08570313 5.48695312 -1.09765625 4.16015625 C-1 1 -1 1 0 0 Z " fill="#41D6D2" transform="translate(106,33)"/>
<path d="M0 0 C2.31 0 4.62 0 7 0 C7 2.97 7 5.94 7 9 C10.3 9 13.6 9 17 9 C17 15.6 17 22.2 17 29 C12.71 29 8.42 29 4 29 C3.67 33.62 3.34 38.24 3 43 C-6.24 43 -15.48 43 -25 43 C-24.67 41.68 -24.34 40.36 -24 39 C-23.93543121 37.58465222 -23.91388961 36.16662311 -23.9375 34.75 C-23.958125 33.5125 -23.97875 32.275 -24 31 C-20.7 30.67 -17.4 30.34 -14 30 C-14.33 29.34 -14.66 28.68 -15 28 C-13.60974609 27.80083984 -13.60974609 27.80083984 -12.19140625 27.59765625 C-10.39509766 27.33275391 -10.39509766 27.33275391 -8.5625 27.0625 C-7.36753906 26.88847656 -6.17257813 26.71445313 -4.94140625 26.53515625 C-2.12044324 26.31014787 -2.12044324 26.31014787 -1 25 C-0.84213692 23.14825294 -0.74892644 21.2909089 -0.68359375 19.43359375 C-0.64169922 18.30888672 -0.59980469 17.18417969 -0.55664062 16.02539062 C-0.51732422 14.84138672 -0.47800781 13.65738281 -0.4375 12.4375 C-0.39431641 11.24962891 -0.35113281 10.06175781 -0.30664062 8.83789062 C-0.20016454 5.89205216 -0.09815159 2.9461257 0 0 Z " fill="#7082FC" transform="translate(98,54)"/>
<path d="M0 0 C0.33 0 0.66 0 1 0 C1 2.97 1 5.94 1 9 C0.030625 9.28875 -0.93875 9.5775 -1.9375 9.875 C-5.10664203 10.64214682 -5.10664203 10.64214682 -6 13 C-6.40305195 17.08388307 -6.40305195 17.08388307 -4.875 20.75 C0.51168037 24.34112025 6.72864793 24.5290289 13 25 C12.34 26.32 11.68 27.64 11 29 C18.92 28.67 26.84 28.34 35 28 C34.505 29.485 34.505 29.485 34 31 C31.36 31 28.72 31 26 31 C26 31.66 26 32.32 26 33 C40.19 33 54.38 33 69 33 C68.67 32.34 68.34 31.68 68 31 C66.845 30.835 65.69 30.67 64.5 30.5 C63.345 30.335 62.19 30.17 61 30 C60.505 29.01 60.505 29.01 60 28 C65.45769811 27.88861841 70.61509359 28.08342019 76 29 C76 31.64 76 34.28 76 37 C68.71409984 37.04682155 61.42823335 37.08211748 54.14221191 37.10362434 C50.75718789 37.11395864 47.37226851 37.12792229 43.98730469 37.15087891 C4.93955462 37.39618997 4.93955462 37.39618997 -7 31 C-6.95875 30.21625 -6.9175 29.4325 -6.875 28.625 C-6.71271266 25.83883881 -6.71271266 25.83883881 -9 24 C-11.58354218 23.83312552 -11.58354218 23.83312552 -14 24 C-15.42944945 21.64561267 -16.08661261 20.51967567 -15.625 17.75 C-15.41875 17.1725 -15.2125 16.595 -15 16 C-14.01 16 -13.02 16 -12 16 C-12 14.02 -12 12.04 -12 10 C-12.66 9.67 -13.32 9.34 -14 9 C-13.03558469 6.58896173 -12.31202953 5.22595242 -10.1875 3.6875 C-7.44153385 2.82448207 -5.75206934 3.27577123 -3 4 C-2.34 4 -1.68 4 -1 4 C-0.67 2.68 -0.34 1.36 0 0 Z M1 28 C1 28.99 1 29.98 1 31 C3.64 30.67 6.28 30.34 9 30 C8.34 29.01 7.68 28.02 7 27 C3.2236068 26.7018576 3.2236068 26.7018576 1 28 Z " fill="#E9EBF2" transform="translate(25,88)"/>
<path d="M0 0 C1.37091797 0.0009668 1.37091797 0.0009668 2.76953125 0.00195312 C9.48435163 0.04685163 9.48435163 0.04685163 10.625 1.1875 C13.43476518 1.34767166 16.22273596 1.44700534 19.03515625 1.50390625 C19.87719101 1.52468735 20.71922577 1.54546844 21.58677673 1.56687927 C24.28693179 1.63246812 26.98718717 1.69130276 29.6875 1.75 C31.51368241 1.79317637 33.33985454 1.83679036 35.16601562 1.88085938 C39.65223992 1.98815894 44.1385655 2.08939966 48.625 2.1875 C48.625 2.5175 48.625 2.8475 48.625 3.1875 C35.755 3.1875 22.885 3.1875 9.625 3.1875 C9.955 4.5075 10.285 5.8275 10.625 7.1875 C23.165 7.5175 35.705 7.8475 48.625 8.1875 C48.625 8.5175 48.625 8.8475 48.625 9.1875 C35.755 9.1875 22.885 9.1875 9.625 9.1875 C9.955 10.5075 10.285 11.8275 10.625 13.1875 C23.165 13.1875 35.705 13.1875 48.625 13.1875 C48.625 13.8475 48.625 14.5075 48.625 15.1875 C39.055 15.1875 29.485 15.1875 19.625 15.1875 C19.625 15.8475 19.625 16.5075 19.625 17.1875 C18.635 17.1875 17.645 17.1875 16.625 17.1875 C16.625 16.5275 16.625 15.8675 16.625 15.1875 C14.315 15.1875 12.005 15.1875 9.625 15.1875 C9.625 17.1675 9.625 19.1475 9.625 21.1875 C0.715 21.1875 -8.195 21.1875 -17.375 21.1875 C-17.375 20.8575 -17.375 20.5275 -17.375 20.1875 C-15.725 19.8575 -14.075 19.5275 -12.375 19.1875 C-12.045 17.8675 -11.715 16.5475 -11.375 15.1875 C-13.355 15.1875 -15.335 15.1875 -17.375 15.1875 C-17.375 14.8575 -17.375 14.5275 -17.375 14.1875 C-15.725 13.8575 -14.075 13.5275 -12.375 13.1875 C-12.045 11.8675 -11.715 10.5475 -11.375 9.1875 C-13.355 9.1875 -15.335 9.1875 -17.375 9.1875 C-17.375 8.8575 -17.375 8.5275 -17.375 8.1875 C-15.725 7.8575 -14.075 7.5275 -12.375 7.1875 C-12.045 5.8675 -11.715 4.5475 -11.375 3.1875 C-13.355 3.1875 -15.335 3.1875 -17.375 3.1875 C-17.375 2.8575 -17.375 2.5275 -17.375 2.1875 C-11.48560037 0.14637931 -6.2030285 -0.08528042 0 0 Z " fill="#A1E4E0" transform="translate(24.375,31.8125)"/>
<path d="M0 0 C1.12019531 -0.00128906 2.24039063 -0.00257812 3.39453125 -0.00390625 C4.57402344 -0.00003906 5.75351562 0.00382812 6.96875 0.0078125 C8.73798828 0.00201172 8.73798828 0.00201172 10.54296875 -0.00390625 C12.22326172 -0.00197266 12.22326172 -0.00197266 13.9375 0 C14.97326172 0.00112793 16.00902344 0.00225586 17.07617188 0.00341797 C19.46875 0.1328125 19.46875 0.1328125 20.46875 1.1328125 C20.56861975 3.97616298 20.60752881 6.78978413 20.59375 9.6328125 C20.59955078 10.82970703 20.59955078 10.82970703 20.60546875 12.05078125 C20.59535767 18.00620483 20.59535767 18.00620483 19.46875 19.1328125 C17.62715977 19.23240871 15.78178033 19.26361661 13.9375 19.265625 C12.81730469 19.26691406 11.69710937 19.26820312 10.54296875 19.26953125 C9.36347656 19.26566406 8.18398438 19.26179688 6.96875 19.2578125 C5.19951172 19.26361328 5.19951172 19.26361328 3.39453125 19.26953125 C1.71423828 19.26759766 1.71423828 19.26759766 0 19.265625 C-1.03576172 19.26449707 -2.07152344 19.26336914 -3.13867188 19.26220703 C-5.53125 19.1328125 -5.53125 19.1328125 -6.53125 18.1328125 C-6.63111975 15.28946202 -6.67002881 12.47584087 -6.65625 9.6328125 C-6.66011719 8.83488281 -6.66398437 8.03695312 -6.66796875 7.21484375 C-6.65573175 0.007248 -6.65573175 0.007248 0 0 Z " fill="#37DAC5" transform="translate(39.53125,85.8671875)"/>
<path d="M0 0 C3.0000624 -0.02721831 5.99987256 -0.04694378 9 -0.0625 C9.83917969 -0.07087891 10.67835937 -0.07925781 11.54296875 -0.08789062 C12.79013672 -0.09272461 12.79013672 -0.09272461 14.0625 -0.09765625 C15.19365234 -0.10551147 15.19365234 -0.10551147 16.34765625 -0.11352539 C19.91451913 0.03914317 23.45744034 0.55718004 27 1 C27 7.93 27 14.86 27 22 C20.07 22 13.14 22 6 22 C6 21.01 6 20.02 6 19 C4.02 19 2.04 19 0 19 C0 18.34 0 17.68 0 17 C1.98 17 3.96 17 6 17 C6 15.68 6 14.36 6 13 C4.02 13 2.04 13 0 13 C0 12.34 0 11.68 0 11 C1.98 11 3.96 11 6 11 C6 9.68 6 8.36 6 7 C4.02 7 2.04 7 0 7 C0 6.34 0 5.68 0 5 C1.98 5 3.96 5 6 5 C6 4.01 6 3.02 6 2 C3.03 1.505 3.03 1.505 0 1 C0 0.67 0 0.34 0 0 Z " fill="#35D1D0" transform="translate(7,58)"/>
<path d="M0 0 C1.81242052 -0.02687279 3.62495233 -0.04633715 5.4375 -0.0625 C6.44683594 -0.07410156 7.45617187 -0.08570313 8.49609375 -0.09765625 C11 0 11 0 12 1 C12.15806531 2.92478813 12.251135 4.8549921 12.31640625 6.78515625 C12.35830078 7.95498047 12.40019531 9.12480469 12.44335938 10.33007812 C12.48267578 11.56177734 12.52199219 12.79347656 12.5625 14.0625 C12.60568359 15.29806641 12.64886719 16.53363281 12.69335938 17.80664062 C12.79984198 20.87097335 12.90185424 23.93539073 13 27 C14.65 27 16.3 27 18 27 C19.8684361 30.84678022 20.05395731 32.8895665 19 37 C19 38.32 19 39.64 19 41 C18.34 41.66 17.68 42.32 17 43 C15.515 42.505 15.515 42.505 14 42 C13.34 43.32 12.68 44.64 12 46 C10.02 46 8.04 46 6 46 C5.34 44.68 4.68 43.36 4 42 C2.02 42.495 2.02 42.495 0 43 C-1.76062164 39.67438135 -2.10784228 38.40826005 -1.125 34.6875 C-0.75375 33.800625 -0.3825 32.91375 0 32 C-0.66 32 -1.32 32 -2 32 C-2 31.34 -2 30.68 -2 30 C-2.66 30 -3.32 30 -4 30 C-4 29.34 -4 28.68 -4 28 C-2.46875 26.4921875 -2.46875 26.4921875 -0.5 24.875 C0.1496875 24.33617188 0.799375 23.79734375 1.46875 23.2421875 C1.9740625 22.83226563 2.479375 22.42234375 3 22 C2.34 21.01 1.68 20.02 1 19 C1.99 18.67 2.98 18.34 4 18 C5.81299492 16.77045984 5.81299492 16.77045984 7 15 C6.77242269 12.83700789 6.77242269 12.83700789 6 11 C5.195625 10.87625 4.39125 10.7525 3.5625 10.625 C2.716875 10.41875 1.87125 10.2125 1 10 C-0.60725635 6.78548731 -0.05748185 3.56387464 0 0 Z M4 32 C4.32326553 35.59679066 4.32326553 35.59679066 5 39 C9.07079208 40.1508314 9.07079208 40.1508314 12.875 38.875 C14.3568671 36.40522151 14.3633156 34.83386167 14 32 C12.11499729 29.68436913 12.11499729 29.68436913 9 29.75 C5.88500271 29.68436913 5.88500271 29.68436913 4 32 Z " fill="#35DBC6" transform="translate(123,33)"/>
<path d="M0 0 C2.31 0 4.62 0 7 0 C7.01458252 0.89307861 7.02916504 1.78615723 7.04418945 2.70629883 C7.10527077 6.02217278 7.17942478 9.33721899 7.26245117 12.65258789 C7.29569001 14.08704628 7.32372535 15.52163513 7.34643555 16.95629883 C7.38000271 19.01960807 7.43231413 21.08172303 7.48828125 23.14453125 C7.51446533 24.38565674 7.54064941 25.62678223 7.56762695 26.90551758 C7.73288164 29.99878317 7.73288164 29.99878317 9.53198242 31.9284668 C10.25865112 32.45887573 10.25865112 32.45887573 11 33 C10.34 33.66 9.68 34.32 9 35 C8.01 35 7.02 35 6 35 C6 35.66 6 36.32 6 37 C3.03 37.495 3.03 37.495 0 38 C-0.33 42.95 -0.66 47.9 -1 53 C-3.31 53 -5.62 53 -8 53 C-8 45.74 -8 38.48 -8 31 C-5.36 31 -2.72 31 0 31 C0 24.07 0 17.14 0 10 C-2.64 10 -5.28 10 -8 10 C-8 8.02 -8 6.04 -8 4 C-5.36 4 -2.72 4 0 4 C0 2.68 0 1.36 0 0 Z " fill="#5D51FC" transform="translate(34,49)"/>
<path d="M0 0 C2.64 0 5.28 0 8 0 C8 12.54 8 25.08 8 38 C-0.25 38 -8.5 38 -17 38 C-17.125 25.375 -17.125 25.375 -16 22 C-15.34 22 -14.68 22 -14 22 C-13.67 23.65 -13.34 25.3 -13 27 C-7.39 27.33 -1.78 27.66 4 28 C4 22.06 4 16.12 4 10 C1.03 10 -1.94 10 -5 10 C-3.02 7.36 -1.04 4.72 1 2 C0.67 1.34 0.34 0.68 0 0 Z " fill="#6F7DFE" transform="translate(119,86)"/>
<path d="M0 0 C3.14581423 -0.02888514 6.29159469 -0.04675923 9.4375 -0.0625 C10.33533203 -0.07087891 11.23316406 -0.07925781 12.15820312 -0.08789062 C13.01220703 -0.09111328 13.86621094 -0.09433594 14.74609375 -0.09765625 C15.93223267 -0.10551147 15.93223267 -0.10551147 17.14233398 -0.11352539 C19 0 19 0 20 1 C20.04241723 3.33294775 20.04092937 5.66702567 20 8 C20 8.66 20 9.32 20 10 C20.33 10.33 20.66 10.66 21 11 C21.08713831 12.70772358 21.10700007 14.41898649 21.09765625 16.12890625 C21.09443359 17.16337891 21.09121094 18.19785156 21.08789062 19.26367188 C21.07951172 20.35228516 21.07113281 21.44089844 21.0625 22.5625 C21.05798828 23.65498047 21.05347656 24.74746094 21.04882812 25.87304688 C21.03699826 28.58208495 21.02051543 31.29101599 21 34 C23.31 34 25.62 34 28 34 C28.33 34.99 28.66 35.98 29 37 C20.19039858 38.30512614 11.80960142 38.30512614 3 37 C3.33 36.01 3.66 35.02 4 34 C8.29 34 12.58 34 17 34 C17 27.4 17 20.8 17 14 C13.7 14 10.4 14 7 14 C7 11.03 7 8.06 7 5 C4.69 5 2.38 5 0 5 C0 3.35 0 1.7 0 0 Z " fill="#38C5D2" transform="translate(98,49)"/>
<path d="M0 0 C1.98 0 3.96 0 6 0 C6.33 0.66 6.66 1.32 7 2 C15.25 2 23.5 2 32 2 C32.33 1.34 32.66 0.68 33 0 C35.64 0 38.28 0 41 0 C40.34 0.33 39.68 0.66 39 1 C39 1.99 39 2.98 39 4 C39.66 4.33 40.32 4.66 41 5 C40.67 5.66 40.34 6.32 40 7 C40.99 6.67 41.98 6.34 43 6 C43 6.99 43 7.98 43 9 C40.33103569 11.66896431 38.32876593 11.23824462 34.70042419 11.25224304 C33.83893265 11.24505753 32.9774411 11.23787201 32.08984375 11.23046875 C31.20720352 11.23001053 30.32456329 11.22955231 29.41517639 11.2290802 C27.54817359 11.22605687 25.68117333 11.21816817 23.81420898 11.20581055 C20.94571061 11.18755226 18.07753479 11.18530084 15.20898438 11.18554688 C13.39843469 11.18063188 11.58788721 11.17480364 9.77734375 11.16796875 C8.91382797 11.16685593 8.05031219 11.1657431 7.16062927 11.16459656 C1.11604615 11.11604615 1.11604615 11.11604615 0 10 C-0.07205511 8.31391034 -0.08386068 6.62499341 -0.0625 4.9375 C-0.05347656 4.01839844 -0.04445313 3.09929687 -0.03515625 2.15234375 C-0.02355469 1.44207031 -0.01195313 0.73179688 0 0 Z " fill="#BFD8FE" transform="translate(27,102)"/>
<path d="M0 0 C2.09231398 4.18462795 1 9.32144372 1 14 C-8.24 14 -17.48 14 -27 14 C-26.67 12.68 -26.34 11.36 -26 10 C-25.93543121 8.58465222 -25.91388961 7.16662311 -25.9375 5.75 C-25.958125 4.5125 -25.97875 3.275 -26 2 C-20.64650569 1.15471142 -16.3921546 1.02941217 -11 2 C-8.71383216 2.09157371 -8.71383216 2.09157371 -5.5 1 C-2 0 -2 0 0 0 Z " fill="#768BFE" transform="translate(100,83)"/>
<path d="M0 0 C1.58206422 0.00574487 3.16410406 0.01876032 4.74609375 0.03515625 C7.53046875 0.05578125 10.31484375 0.07640625 13.18359375 0.09765625 C13.18359375 6.03765625 13.18359375 11.97765625 13.18359375 18.09765625 C10.39921875 18.11828125 7.61484375 18.13890625 4.74609375 18.16015625 C3.86767822 18.16926025 2.9892627 18.17836426 2.08422852 18.18774414 C0.11713401 18.19488716 -1.84994246 18.14797518 -3.81640625 18.09765625 C-5.63756628 16.27649622 -4.94875705 13.79093861 -4.953125 11.37109375 C-4.94925781 10.62085937 -4.94539063 9.870625 -4.94140625 9.09765625 C-4.94527344 8.34742187 -4.94914062 7.5971875 -4.953125 6.82421875 C-4.94103514 0.12643386 -4.94103514 0.12643386 0 0 Z " fill="#3DD0E3" transform="translate(109.81640625,95.90234375)"/>
<path d="M0 0 C5.61 0 11.22 0 17 0 C17 5.61 17 11.22 17 17 C11.39 17 5.78 17 0 17 C0 11.39 0 5.78 0 0 Z " fill="#3E4E9A" transform="translate(15,34)"/>
<path d="M0 0 C6.27 0 12.54 0 19 0 C19 0.99 19 1.98 19 3 C20.32 3 21.64 3 23 3 C23 5.31 23 7.62 23 10 C22.360625 10.28875 21.72125 10.5775 21.0625 10.875 C18.84793921 11.82823451 18.84793921 11.82823451 18 14 C12.06 14 6.12 14 0 14 C0 13.34 0 12.68 0 12 C1.98 12 3.96 12 6 12 C6 10.68 6 9.36 6 8 C4.02 8 2.04 8 0 8 C0 7.34 0 6.68 0 6 C1.98 6 3.96 6 6 6 C6 4.68 6 3.36 6 2 C4.02 2 2.04 2 0 2 C0 1.34 0 0.68 0 0 Z " fill="#B4E7ED" transform="translate(7,63)"/>
<path d="M0 0 C2.31 0 4.62 0 7 0 C7.14541967 4.22880411 7.23411527 8.45696413 7.3125 12.6875 C7.3753418 14.48477539 7.3753418 14.48477539 7.43945312 16.31835938 C7.5608921 25.03767802 7.5608921 25.03767802 5.86474609 27.94775391 C4.48046875 29.33203125 4.48046875 29.33203125 2 31 C0.41596476 29.41596476 0.78025065 27.7228362 0.68359375 25.52734375 C0.64169922 24.62822266 0.59980469 23.72910156 0.55664062 22.80273438 C0.51732422 21.85720703 0.47800781 20.91167969 0.4375 19.9375 C0.39431641 18.98810547 0.35113281 18.03871094 0.30664062 17.06054688 C0.20020724 14.70718647 0.09818992 12.35371646 0 10 C-2.64 10 -5.28 10 -8 10 C-8 8.02 -8 6.04 -8 4 C-5.36 4 -2.72 4 0 4 C0 2.68 0 1.36 0 0 Z " fill="#5A38FF" transform="translate(34,49)"/>
<path d="M0 0 C4.29 0 8.58 0 13 0 C13.33 3.3 13.66 6.6 14 10 C15.65 10 17.3 10 19 10 C19.33 11.32 19.66 12.64 20 14 C12.41 14 4.82 14 -3 14 C-2.67 12.68 -2.34 11.36 -2 10 C-1.01 9.67 -0.02 9.34 1 9 C0.67 6.03 0.34 3.06 0 0 Z " fill="#82DBE6" transform="translate(110,33)"/>
<path d="M0 0 C13.53 0 27.06 0 41 0 C41 1.65 41 3.3 41 5 C27.47 5 13.94 5 0 5 C0 3.35 0 1.7 0 0 Z " fill="#3C3D89" transform="translate(60,97)"/>
<path d="M0 0 C1.98 0 3.96 0 6 0 C7.8684361 3.84678022 8.05395731 5.8895665 7 10 C7 11.32 7 12.64 7 14 C6.34 14.66 5.68 15.32 5 16 C4.01 15.67 3.02 15.34 2 15 C1.34 16.32 0.68 17.64 0 19 C-1.98 19 -3.96 19 -6 19 C-6.66 17.68 -7.32 16.36 -8 15 C-9.32 15.33 -10.64 15.66 -12 16 C-13.76062164 12.67438135 -14.10784228 11.40826005 -13.125 7.6875 C-12.568125 6.3571875 -12.568125 6.3571875 -12 5 C-12.66 5 -13.32 5 -14 5 C-14 4.34 -14 3.68 -14 3 C-11.36 3 -8.72 3 -6 3 C-6.165 4.11375 -6.33 5.2275 -6.5 6.375 C-7.0455458 9.72032033 -7.0455458 9.72032033 -7 12 C-4.36 12 -1.72 12 1 12 C1.29562367 6.67829506 1.29562367 6.67829506 -1 2 C-0.67 1.34 -0.34 0.68 0 0 Z " fill="#EAEBF2" transform="translate(135,60)"/>
<path d="M0 0 C3.63 0 7.26 0 11 0 C11 6.27 11 12.54 11 19 C3 19 3 19 0 17 C-0.6875 13.375 -0.6875 13.375 -1 10 C0.65 10 2.3 10 4 10 C3.01 11.485 3.01 11.485 2 13 C2.33 13.33 2.66 13.66 3 14 C3.66 12.68 4.32 11.36 5 10 C3.824375 9.62875 3.824375 9.62875 2.625 9.25 C0 8 0 8 -1.4375 6.125 C-2 4 -2 4 0 0 Z " fill="#768BFE" transform="translate(104,63)"/>
<path d="M0 0 C2.12438339 -0.08078641 4.2496323 -0.13909141 6.375 -0.1875 C7.55835937 -0.22230469 8.74171875 -0.25710937 9.9609375 -0.29296875 C11.46527344 -0.14794922 11.46527344 -0.14794922 13 0 C13.66 0.99 14.32 1.98 15 3 C14.01 3.495 14.01 3.495 13 4 C19.27 4.33 25.54 4.66 32 5 C32.495 6.485 32.495 6.485 33 8 C18.81 8 4.62 8 -10 8 C-10 7.34 -10 6.68 -10 6 C-7.36 6 -4.72 6 -2 6 C-1.34 4.02 -0.68 2.04 0 0 Z " fill="#9FC3FE" transform="translate(61,113)"/>
<path d="M0 0 C0.99 0 1.98 0 3 0 C3 9.57 3 19.14 3 29 C9.93 29 16.86 29 24 29 C24 29.33 24 29.66 24 30 C34.23 30.33 44.46 30.66 55 31 C55 31.33 55 31.66 55 32 C47.48863592 32.05057965 39.97731551 32.08568257 32.46582031 32.10986328 C29.90883747 32.11994038 27.35186621 32.13360226 24.79492188 32.15087891 C21.12627308 32.17505217 17.45777621 32.18646585 13.7890625 32.1953125 C12.0655809 32.21079636 12.0655809 32.21079636 10.30728149 32.22659302 C9.2463327 32.22674408 8.18538391 32.22689514 7.09228516 32.22705078 C6.15518707 32.231492 5.21808899 32.23593323 4.25259399 32.24050903 C2 32 2 32 0 30 C-0.22705078 27.01904297 -0.22705078 27.01904297 -0.1953125 23.2421875 C-0.1924826 22.57913605 -0.18965271 21.91608459 -0.18673706 21.23294067 C-0.17553435 19.11344417 -0.15043051 16.99436896 -0.125 14.875 C-0.11497028 13.43880818 -0.10584441 12.00260975 -0.09765625 10.56640625 C-0.075595 7.04413372 -0.04106494 3.52210797 0 0 Z " fill="#43A8E4" transform="translate(41,49)"/>
<path d="M0 0 C1.32 0 2.64 0 4 0 C4 6.6 4 13.2 4 20 C6.31 20 8.62 20 11 20 C11.33 20.99 11.66 21.98 12 23 C3.19039858 24.30512614 -5.19039858 24.30512614 -14 23 C-13.505 21.515 -13.505 21.515 -13 20 C-8.71 20 -4.42 20 0 20 C0 13.4 0 6.8 0 0 Z " fill="#4C4CA1" transform="translate(115,63)"/>
<path d="M0 0 C0.99 0 1.98 0 3 0 C3.02465622 4.25414623 3.04283899 8.50825498 3.05493164 12.76245117 C3.05997101 14.21070073 3.06680253 15.65894517 3.07543945 17.10717773 C3.08752247 19.18474588 3.09323211 21.26224697 3.09765625 23.33984375 C3.10289307 24.59144287 3.10812988 25.84304199 3.11352539 27.13256836 C3 30 3 30 2 31 C-0.59359322 31.08851529 -3.16039691 31.11525945 -5.75390625 31.09765625 C-6.52935287 31.0962413 -7.3047995 31.09482635 -8.10374451 31.09336853 C-10.59003494 31.08775345 -13.0762366 31.07519846 -15.5625 31.0625 C-17.24413933 31.05748694 -18.92578006 31.0529237 -20.60742188 31.04882812 C-24.73831566 31.03777913 -28.86914276 31.02050445 -33 31 C-29.32070555 28.54713704 -27.52622093 28.76771122 -23.14453125 28.8046875 C-22.48289474 28.8075174 -21.82125824 28.81034729 -21.13957214 28.81326294 C-19.03036263 28.82444082 -16.92158075 28.84954019 -14.8125 28.875 C-13.38086552 28.88503293 -11.94922436 28.89415824 -10.51757812 28.90234375 C-7.01142222 28.92266929 -3.5061887 28.96182009 0 29 C0 19.43 0 9.86 0 0 Z " fill="#37D6C8" transform="translate(95,49)"/>
<path d="M0 0 C1.31871094 -0.01224609 2.63742188 -0.02449219 3.99609375 -0.03710938 C5.90068359 -0.04000977 5.90068359 -0.04000977 7.84375 -0.04296875 C9.00068359 -0.04707764 10.15761719 -0.05118652 11.34960938 -0.05541992 C14.47736509 0.18575467 16.680892 0.85423629 19.5 2.1875 C18.5 4.1875 18.5 4.1875 16.84521484 4.80200195 C11.99200924 5.59975457 7.04404055 5.37340312 2.13769531 5.37280273 C0.13863013 5.37498512 -1.86039532 5.39349143 -3.859375 5.41210938 C-5.13039063 5.41404297 -6.40140625 5.41597656 -7.7109375 5.41796875 C-8.86899902 5.42207764 -10.02706055 5.42618652 -11.22021484 5.43041992 C-14.61310954 5.17912245 -17.33332989 4.39923908 -20.5 3.1875 C-20.17 2.5275 -19.84 1.8675 -19.5 1.1875 C-13.23640183 -0.60566158 -6.45139424 0.00315317 0 0 Z " fill="#EAEBF2" transform="translate(114.5,125.8125)"/>
<path d="M0 0 C0.66 0.33 1.32 0.66 2 1 C1.34 1.66 0.68 2.32 0 3 C0.33 3.99 0.66 4.98 1 6 C1.99 6 2.98 6 4 6 C4 5.34 4 4.68 4 4 C7.16115776 5.36983503 7.9927092 5.9890638 10 9 C8.71034824 10.37562854 7.37310707 11.70766393 6 13 C5.34 13 4.68 13 4 13 C4 12.01 4 11.02 4 10 C1.52733235 10.34444881 1.52733235 10.34444881 -1 11 C-1.33 11.66 -1.66 12.32 -2 13 C-2.66 13 -3.32 13 -4 13 C-4 12.01 -4 11.02 -4 10 C-5.32 10 -6.64 10 -8 10 C-8.33 10.99 -8.66 11.98 -9 13 C-10.32 11.35 -11.64 9.7 -13 8 C-10.10978227 5.59148523 -7.43063179 3.54931758 -4 2 C-3.29875 1.608125 -2.5975 1.21625 -1.875 0.8125 C-1.25625 0.544375 -0.6375 0.27625 0 0 Z " fill="#42B5E0" transform="translate(48,87)"/>
<path d="M0 0 C6.6 0 13.2 0 20 0 C20.33 0.66 20.66 1.32 21 2 C20.01 2 19.02 2 18 2 C17.67 2.99 17.34 3.98 17 5 C16.01 5.495 16.01 5.495 15 6 C15.99 6.66 16.98 7.32 18 8 C17.071875 8.12375 17.071875 8.12375 16.125 8.25 C13.81562433 8.81258459 13.81562433 8.81258459 12.75 11.0625 C12.5025 11.701875 12.255 12.34125 12 13 C10.68 13 9.36 13 8 13 C7.34 12.01 6.68 11.02 6 10 C6.66 10 7.32 10 8 10 C7.67 7.69 7.34 5.38 7 3 C4.69 2.67 2.38 2.34 0 2 C0 1.34 0 0.68 0 0 Z " fill="#3FD4D3" transform="translate(110,47)"/>
<path d="M0 0 C0.92683594 0.00451172 1.85367188 0.00902344 2.80859375 0.01367188 C5.08079709 0.02538426 7.35286388 0.04178628 9.625 0.0625 C8.965 2.7025 8.305 5.3425 7.625 8.0625 C7.295 7.0725 6.965 6.0825 6.625 5.0625 C-0.635 5.0625 -7.895 5.0625 -15.375 5.0625 C-15.705 3.7425 -16.035 2.4225 -16.375 1.0625 C-10.89230931 -0.09414737 -5.57160726 -0.05166255 0 0 Z " fill="#655CFE" transform="translate(55.375,80.9375)"/>
<path d="M0 0 C1.81242052 -0.02687279 3.62495233 -0.04633715 5.4375 -0.0625 C6.44683594 -0.07410156 7.45617187 -0.08570313 8.49609375 -0.09765625 C11 0 11 0 12 1 C12.04092937 3.33297433 12.04241723 5.66705225 12 8 C11.01 8.33 10.02 8.66 9 9 C8.67 10.65 8.34 12.3 8 14 C7.34 13.01 6.68 12.02 6 11 C4.33985384 10.63557767 2.67293936 10.30027117 1 10 C-0.60725635 6.78548731 -0.05748185 3.56387464 0 0 Z " fill="#39D3D3" transform="translate(123,33)"/>
<path d="M0 0 C0 4.62 0 9.24 0 14 C-4.29 14 -8.58 14 -13 14 C-13.33 13.34 -13.66 12.68 -14 12 C-11.92490495 8.88735743 -9.91983264 7.29415422 -7 5 C-5.9171875 3.9171875 -5.9171875 3.9171875 -4.8125 2.8125 C-2 0 -2 0 0 0 Z " fill="#38D7D6" transform="translate(123,100)"/>
<path d="M0 0 C1.01725914 0.00424484 1.01725914 0.00424484 2.05506897 0.00857544 C4.19445391 0.01965834 6.33340055 0.0447389 8.47265625 0.0703125 C9.93423869 0.08035774 11.39582778 0.08948087 12.85742188 0.09765625 C16.41680604 0.11955825 19.97593828 0.15400384 23.53515625 0.1953125 C23.53515625 1.5153125 23.53515625 2.8353125 23.53515625 4.1953125 C10.99515625 4.1953125 -1.54484375 4.1953125 -14.46484375 4.1953125 C-14.46484375 3.5353125 -14.46484375 2.8753125 -14.46484375 2.1953125 C-9.46818653 0.56823201 -5.3100298 -0.04406664 0 0 Z " fill="#376ABD" transform="translate(66.46484375,53.8046875)"/>
<path d="M0 0 C3.14581423 -0.02888514 6.29159469 -0.04675923 9.4375 -0.0625 C10.33533203 -0.07087891 11.23316406 -0.07925781 12.15820312 -0.08789062 C13.01220703 -0.09111328 13.86621094 -0.09433594 14.74609375 -0.09765625 C15.93223267 -0.10551147 15.93223267 -0.10551147 17.14233398 -0.11352539 C19 0 19 0 20 1 C20.04092937 3.33297433 20.04241723 5.66705225 20 8 C19.01 8 18.02 8 17 8 C17 7.01 17 6.02 17 5 C11.39 5 5.78 5 0 5 C0 3.35 0 1.7 0 0 Z " fill="#34B1C5" transform="translate(98,49)"/>
<path d="M0 0 C2.625 0.25 2.625 0.25 4.4375 1.625 C5.625 3.25 5.625 3.25 5.625 5.25 C7.275 5.25 8.925 5.25 10.625 5.25 C10.955 6.24 11.285 7.23 11.625 8.25 C4.365 8.25 -2.895 8.25 -10.375 8.25 C-9.715 7.26 -9.055 6.27 -8.375 5.25 C-7.385 5.25 -6.395 5.25 -5.375 5.25 C-5.065625 4.610625 -4.75625 3.97125 -4.4375 3.3125 C-2.88764755 0.3039629 -2.88764755 0.3039629 0 0 Z " fill="#FAFDFE" transform="translate(118.375,37.75)"/>
<path d="M0 0 C1.32 0 2.64 0 4 0 C4 5.61 4 11.22 4 17 C4.99 17 5.98 17 7 17 C7 18.65 7 20.3 7 22 C4.69 22 2.38 22 0 22 C0 14.74 0 7.48 0 0 Z " fill="#41468F" transform="translate(26,80)"/>
<path d="M0 0 C2.31 0 4.62 0 7 0 C7 3.63 7 7.26 7 11 C6.34 11 5.68 11 5 11 C5 11.66 5 12.32 5 13 C3.41039672 14.80636736 2.16147703 15.91926148 0 17 C0 11.39 0 5.78 0 0 Z " fill="#6B74FD" transform="translate(98,54)"/>
<path d="M0 0 C0 0.33 0 0.66 0 1 C-1.98 1 -3.96 1 -6 1 C-6 6.61 -6 12.22 -6 18 C-3.36 18 -0.72 18 2 18 C2.33 18.66 2.66 19.32 3 20 C-2.61 20 -8.22 20 -14 20 C-14 19.67 -14 19.34 -14 19 C-12.35 18.67 -10.7 18.34 -9 18 C-8.67 16.68 -8.34 15.36 -8 14 C-9.98 14 -11.96 14 -14 14 C-14 13.67 -14 13.34 -14 13 C-12.35 12.67 -10.7 12.34 -9 12 C-8.67 10.68 -8.34 9.36 -8 8 C-9.98 8 -11.96 8 -14 8 C-14 7.67 -14 7.34 -14 7 C-12.35 6.67 -10.7 6.34 -9 6 C-8.67 4.68 -8.34 3.36 -8 2 C-9.98 2 -11.96 2 -14 2 C-14 1.67 -14 1.34 -14 1 C-9.32798795 -0.20568053 -4.78503708 -0.09382426 0 0 Z " fill="#70DBDB" transform="translate(21,33)"/>
<path d="M0 0 C1.58206057 0.00667536 3.16410534 0.0186375 4.74609375 0.03515625 C5.55240234 0.03966797 6.35871094 0.04417969 7.18945312 0.04882812 C9.18753131 0.06065107 11.18557158 0.07858711 13.18359375 0.09765625 C6.23237424 4.73180259 6.23237424 4.73180259 2.49609375 6.03515625 C0.02822212 6.91058423 0.02822212 6.91058423 -1.12890625 9.22265625 C-1.35578125 9.84140625 -1.58265625 10.46015625 -1.81640625 11.09765625 C-2.80640625 11.09765625 -3.79640625 11.09765625 -4.81640625 11.09765625 C-4.84328776 9.45191059 -4.86274748 7.80604212 -4.87890625 6.16015625 C-4.89050781 5.24363281 -4.90210938 4.32710938 -4.9140625 3.3828125 C-4.74806315 -0.5015722 -4.08167578 0.10444411 0 0 Z " fill="#42A5E6" transform="translate(37.81640625,85.90234375)"/>
<path d="M0 0 C1.93166016 0.01740234 1.93166016 0.01740234 3.90234375 0.03515625 C5.19269531 0.04417969 6.48304687 0.05320312 7.8125 0.0625 C8.81152344 0.07410156 9.81054688 0.08570312 10.83984375 0.09765625 C9.90011719 0.78794922 9.90011719 0.78794922 8.94140625 1.4921875 C6.8353093 3.01718874 6.8353093 3.01718874 5.21484375 4.78515625 C3.83984375 6.09765625 3.83984375 6.09765625 1.83984375 6.09765625 C1.83984375 6.75765625 1.83984375 7.41765625 1.83984375 8.09765625 C0.8613418 9.11870176 -0.13996052 10.11826835 -1.16015625 11.09765625 C-1.49015625 11.75765625 -1.82015625 12.41765625 -2.16015625 13.09765625 C-2.82015625 13.09765625 -3.48015625 13.09765625 -4.16015625 13.09765625 C-4.18702178 11.11856227 -4.20649 9.13936654 -4.22265625 7.16015625 C-4.23425781 6.05800781 -4.24585937 4.95585938 -4.2578125 3.8203125 C-4.11749553 -0.09172464 -3.97435676 0.12281696 0 0 Z " fill="#40C2EE" transform="translate(109.16015625,95.90234375)"/>
<path d="M0 0 C2.64 0 5.28 0 8 0 C8.2170174 3.18292189 8.35502854 5.34600006 6.8125 8.1875 C5 10 5 10 2.51953125 10.390625 C0.01302083 10.26041667 -2.49348958 10.13020833 -5 10 C-3.02 7.36 -1.04 4.72 1 2 C0.67 1.34 0.34 0.68 0 0 Z " fill="#645AFE" transform="translate(119,86)"/>
<path d="M0 0 C4.875 0.875 4.875 0.875 6 2 C6.33 1.34 6.66 0.68 7 0 C8.32 0 9.64 0 11 0 C11 0.99 11 1.98 11 3 C11.66 3 12.32 3 13 3 C13.33 2.01 13.66 1.02 14 0 C15.65 0 17.3 0 19 0 C18.125 3.875 18.125 3.875 17 5 C14.13732433 5.07325168 11.299281 5.09238205 8.4375 5.0625 C7.63119141 5.05798828 6.82488281 5.05347656 5.99414062 5.04882812 C3.99606244 5.03700518 1.99802217 5.01906914 0 5 C0 3.35 0 1.7 0 0 Z " fill="#36AEC6" transform="translate(33,97)"/>
<path d="M0 0 C1.32 0 2.64 0 4 0 C4 6.6 4 13.2 4 20 C2.68 19.67 1.36 19.34 0 19 C0 12.73 0 6.46 0 0 Z " fill="#3E3E8B" transform="translate(115,63)"/>
<path d="M0 0 C12.87 0 25.74 0 39 0 C39 0.66 39 1.32 39 2 C29.43 2 19.86 2 10 2 C10 2.66 10 3.32 10 4 C9.01 4 8.02 4 7 4 C7 3.34 7 2.68 7 2 C4.69 2 2.38 2 0 2 C0 1.34 0 0.68 0 0 Z " fill="#65D4E1" transform="translate(34,45)"/>
<path d="M0 0 C1 1 1 1 1.125 3.9375 C1 7 1 7 0 9 C-2.49361571 7.79618552 -4.68143083 6.54571278 -7 5 C-7 5.66 -7 6.32 -7 7 C-7.99 7 -8.98 7 -10 7 C-10 6.34 -10 5.68 -10 5 C-10.66 4.67 -11.32 4.34 -12 4 C-8.41466389 -0.78044814 -5.59074961 -0.45825816 0 0 Z " fill="#3CBDDA" transform="translate(59,86)"/>
<path d="M0 0 C8.58 0 17.16 0 26 0 C25.67 0.99 25.34 1.98 25 3 C17.08 3 9.16 3 1 3 C0.67 2.01 0.34 1.02 0 0 Z " fill="#4C4CA0" transform="translate(101,124)"/>
<path d="M0 0 C0 6.6 0 13.2 0 20 C-1.32 20 -2.64 20 -4 20 C-4.08112454 17.41603321 -4.14054748 14.83462432 -4.1875 12.25 C-4.21263672 11.52039063 -4.23777344 10.79078125 -4.26367188 10.0390625 C-4.30928324 6.69422902 -4.23971148 4.41610294 -2.55078125 1.484375 C-1 0 -1 0 0 0 Z " fill="#707FFE" transform="translate(127,92)"/>
<path d="M0 0 C0.66 0 1.32 0 2 0 C2 0.66 2 1.32 2 2 C2.99 2 3.98 2 5 2 C5 1.34 5 0.68 5 0 C8.16115776 1.36983503 8.9927092 1.9890638 11 5 C9.71034824 6.37562854 8.37310707 7.70766393 7 9 C6.34 9 5.68 9 5 9 C5 8.01 5 7.02 5 6 C2.52733235 6.34444881 2.52733235 6.34444881 0 7 C-0.33 7.66 -0.66 8.32 -1 9 C-1.66 9 -2.32 9 -3 9 C-2.01 6.03 -1.02 3.06 0 0 Z " fill="#4DCCDA" transform="translate(47,91)"/>
<path d="M0 0 C6.27 0 12.54 0 19 0 C19 1.65 19 3.3 19 5 C14.71 5 10.42 5 6 5 C6 4.01 6 3.02 6 2 C3.03 1.505 3.03 1.505 0 1 C0 0.67 0 0.34 0 0 Z " fill="#8ADCE3" transform="translate(7,58)"/>
<path d="M0 0 C1.67542976 0.28604898 3.34385343 0.61781233 5 1 C5.875 3.5625 5.875 3.5625 6 7 C4.32305393 9.65870248 2.31872993 11.88180887 0 14 C-0.33 14 -0.66 14 -1 14 C-1.02685938 11.85423363 -1.04633088 9.70837355 -1.0625 7.5625 C-1.07410156 6.36753906 -1.08570312 5.17257813 -1.09765625 3.94140625 C-1 1 -1 1 0 0 Z " fill="#33C6E0" transform="translate(106,33)"/>
<path d="M0 0 C2.31 0 4.62 0 7 0 C7 1.65 7 3.3 7 5 C3.37 5 -0.26 5 -4 5 C-4 6.65 -4 8.3 -4 10 C-5.32 10 -6.64 10 -8 10 C-8 8.02 -8 6.04 -8 4 C-5.36 4 -2.72 4 0 4 C0 2.68 0 1.36 0 0 Z " fill="#3D418D" transform="translate(34,49)"/>
<path d="M0 0 C1.65 0 3.3 0 5 0 C4.90234375 2.01822917 4.8046875 4.03645833 4.70703125 6.0546875 C4.80371094 6.69664063 4.90039062 7.33859375 5 8 C5.99 8.66 6.98 9.32 8 10 C5.36 10 2.72 10 0 10 C0 8.68 0 7.36 0 6 C-1.98 6 -3.96 6 -6 6 C-6 5.34 -6 4.68 -6 4 C-4.02 4 -2.04 4 0 4 C0 2.68 0 1.36 0 0 Z " fill="#70D5E2" transform="translate(13,65)"/>
<path d="M0 0 C1.24716797 0.00322266 2.49433594 0.00644531 3.77929688 0.00976562 C5.07287109 0.01814453 6.36644531 0.02652344 7.69921875 0.03515625 C9.66858398 0.04192383 9.66858398 0.04192383 11.67773438 0.04882812 C14.91410885 0.06059676 18.15039053 0.07703865 21.38671875 0.09765625 C21.05671875 0.75765625 20.72671875 1.41765625 20.38671875 2.09765625 C19.73074707 2.11747559 19.07477539 2.13729492 18.39892578 2.15771484 C15.43610806 2.25278132 12.47401343 2.36253377 9.51171875 2.47265625 C7.96291016 2.5190625 7.96291016 2.5190625 6.3828125 2.56640625 C4.90361328 2.62441406 4.90361328 2.62441406 3.39453125 2.68359375 C2.4833252 2.71501465 1.57211914 2.74643555 0.63330078 2.77880859 C-1.81259311 2.89648136 -1.81259311 2.89648136 -3.61328125 5.09765625 C-6.34197532 5.06478042 -8.90994305 4.53367854 -11.61328125 4.09765625 C-11.61328125 3.10765625 -11.61328125 2.11765625 -11.61328125 1.09765625 C-7.68039761 0.16677716 -4.03673962 -0.0184326 0 0 Z " fill="#D9D9E8" transform="translate(106.61328125,125.90234375)"/>
<path d="M0 0 C0.99 0 1.98 0 3 0 C3 4.29 3 8.58 3 13 C0.03 13 -2.94 13 -6 13 C-4.38405168 10.95880212 -2.7143618 8.95927063 -1 7 C-0.34 7 0.32 7 1 7 C0.67 4.69 0.34 2.38 0 0 Z " fill="#34DAC2" transform="translate(31,67)"/>
<path d="M0 0 C1.32 0 2.64 0 4 0 C4 0.99 4 1.98 4 3 C5.32 3 6.64 3 8 3 C8 5.31 8 7.62 8 10 C2.25 13 2.25 13 0 13 C0 12.01 0 11.02 0 10 C0.99 9.67 1.98 9.34 3 9 C3 7.35 3 5.7 3 4 C1.68 3.34 0.36 2.68 -1 2 C-0.67 1.34 -0.34 0.68 0 0 Z " fill="#E6F7F9" transform="translate(22,63)"/>
<path d="M0 0 C0.33 0 0.66 0 1 0 C1 2.64 1 5.28 1 8 C-2.96 8 -6.92 8 -11 8 C-9.72613866 5.45227732 -8.61394504 5.18113912 -6.0625 4 C-3.51384512 2.81586997 -2.01242841 2.01242841 0 0 Z " fill="#7895FE" transform="translate(126,116)"/>
<path d="M0 0 C2.29013653 3.4352048 2.17842973 4.985331 2 9 C-1.3 9 -4.6 9 -8 9 C-8 8.34 -8 7.68 -8 7 C-6.68 6.67 -5.36 6.34 -4 6 C-4 5.34 -4 4.68 -4 4 C-2.70766393 2.62689293 -1.37562854 1.28965176 0 0 Z " fill="#38DDC8" transform="translate(121,105)"/>
<path d="M0 0 C2.64 0 5.28 0 8 0 C7.67 1.98 7.34 3.96 7 6 C4.69 6 2.38 6 0 6 C0 4.02 0 2.04 0 0 Z " fill="#34B0C5" transform="translate(26,59)"/>
<path d="M0 0 C3.3 0 6.6 0 10 0 C8.60804085 2.7839183 6.84424221 2.97898997 4 4 C4 4.99 4 5.98 4 7 C2.02 7.99 2.02 7.99 0 9 C0 6.03 0 3.06 0 0 Z " fill="#3DBBDD" transform="translate(105,54)"/>
<path d="M0 0 C2.31 0 4.62 0 7 0 C7.33 0.66 7.66 1.32 8 2 C6.625 3.5 6.625 3.5 5 5 C4.34 5 3.68 5 3 5 C3 5.66 3 6.32 3 7 C2.34 7 1.68 7 1 7 C0.67 8.32 0.34 9.64 0 11 C0 7.37 0 3.74 0 0 Z " fill="#5934FF" transform="translate(102,86)"/>
<path d="M0 0 C2.31 0 4.62 0 7 0 C7 1.98 7 3.96 7 6 C4.69 6 2.38 6 0 6 C0 4.02 0 2.04 0 0 Z " fill="#A2C2FE" transform="translate(91,85)"/>
<path d="M0 0 C1.37478516 0.01740234 1.37478516 0.01740234 2.77734375 0.03515625 C3.69644531 0.04417969 4.61554688 0.05320312 5.5625 0.0625 C6.27277344 0.07410156 6.98304687 0.08570312 7.71484375 0.09765625 C4.71484375 2.09765625 4.71484375 2.09765625 1.71484375 2.09765625 C1.71484375 2.75765625 1.71484375 3.41765625 1.71484375 4.09765625 C0.04817708 5.76432292 -1.61848958 7.43098958 -3.28515625 9.09765625 C-3.3828125 2.9453125 -3.3828125 2.9453125 -3.28515625 1.09765625 C-2.28515625 0.09765625 -2.28515625 0.09765625 0 0 Z " fill="#45B4F5" transform="translate(108.28515625,95.90234375)"/>
<path d="M0 0 C0 0.33 0 0.66 0 1 C-1.98 1 -3.96 1 -6 1 C-6 3.64 -6 6.28 -6 9 C-8.64 8.67 -11.28 8.34 -14 8 C-14 7.67 -14 7.34 -14 7 C-12.35 6.67 -10.7 6.34 -9 6 C-8.67 4.68 -8.34 3.36 -8 2 C-9.98 2 -11.96 2 -14 2 C-14 1.67 -14 1.34 -14 1 C-9.32798795 -0.20568053 -4.78503708 -0.09382426 0 0 Z " fill="#89D9E8" transform="translate(21,33)"/>
<path d="M0 0 C1.95803507 -0.05389087 3.91648909 -0.09274217 5.875 -0.125 C7.51082031 -0.15980469 7.51082031 -0.15980469 9.1796875 -0.1953125 C12 0 12 0 14 2 C10.98509443 3.00496852 8.95818308 3.10335303 5.8125 3.0625 C4.91144531 3.05347656 4.01039062 3.04445313 3.08203125 3.03515625 C2.39496094 3.02355469 1.70789062 3.01195313 1 3 C0.67 2.01 0.34 1.02 0 0 Z " fill="#4ED3D7" transform="translate(33,102)"/>
<path d="M0 0 C0 3.3 0 6.6 0 10 C-1.98 10.99 -1.98 10.99 -4 12 C-4.368 4.64 -4.368 4.64 -2.5625 1.5 C-1 0 -1 0 0 0 Z " fill="#6B70FE" transform="translate(127,92)"/>
<path d="M0 0 C1.98 0 3.96 0 6 0 C6 1.98 6 3.96 6 6 C4.02 6 2.04 6 0 6 C0 4.02 0 2.04 0 0 Z " fill="#A7C7FF" transform="translate(83,85)"/>
<path d="M0 0 C1.98 0 3.96 0 6 0 C6 1.98 6 3.96 6 6 C4.02 6 2.04 6 0 6 C0 4.02 0 2.04 0 0 Z " fill="#A6C7FF" transform="translate(74,85)"/>
<path d="M0 0 C0.99 0 1.98 0 3 0 C3.08121924 1.60332791 3.13929134 3.20784026 3.1875 4.8125 C3.23970703 6.15248047 3.23970703 6.15248047 3.29296875 7.51953125 C3 10 3 10 0 13 C0 8.71 0 4.42 0 0 Z " fill="#3B96D8" transform="translate(41,49)"/>
<path d="M0 0 C2.31 0 4.62 0 7 0 C7 1.65 7 3.3 7 5 C4.69 5 2.38 5 0 5 C0 3.35 0 1.7 0 0 Z " fill="#3C3E8A" transform="translate(98,49)"/>
<path d="M0 0 C6.6 0 13.2 0 20 0 C20 0.99 20 1.98 20 3 C13.4 2.34 6.8 1.68 0 1 C0 0.67 0 0.34 0 0 Z " fill="#41D1D8" transform="translate(14,32)"/>
<path d="M0 0 C7.92 0.33 15.84 0.66 24 1 C24 1.33 24 1.66 24 2 C19.38 2 14.76 2 10 2 C10 2.66 10 3.32 10 4 C9.01 4 8.02 4 7 4 C7 3.34 7 2.68 7 2 C4.69 2 2.38 2 0 2 C0 1.34 0 0.68 0 0 Z " fill="#8CD7E7" transform="translate(34,45)"/>
<path d="M0 0 C1.23556641 0.01740234 1.23556641 0.01740234 2.49609375 0.03515625 C3.32238281 0.04417969 4.14867187 0.05320312 5 0.0625 C5.63808594 0.07410156 6.27617188 0.08570312 6.93359375 0.09765625 C7.26359375 0.75765625 7.59359375 1.41765625 7.93359375 2.09765625 C6.67546875 2.36578125 5.41734375 2.63390625 4.12109375 2.91015625 C0.93910574 3.69298162 -1.06884936 4.35101553 -3.06640625 7.09765625 C-3.10894981 5.09810879 -3.10721408 3.09723989 -3.06640625 1.09765625 C-2.06640625 0.09765625 -2.06640625 0.09765625 0 0 Z " fill="#4895EC" transform="translate(36.06640625,85.90234375)"/>
<path d="M0 0 C0.33 1.32 0.66 2.64 1 4 C0.01 4 -0.98 4 -2 4 C-1.67 6.31 -1.34 8.62 -1 11 C-2.65 11.33 -4.3 11.66 -6 12 C-5.34 11.01 -4.68 10.02 -4 9 C-3.60986284 7.0103005 -3.26797351 5.00980131 -3 3 C-4.32 2.67 -5.64 2.34 -7 2 C-4.69 2 -2.38 2 0 2 C0 1.34 0 0.68 0 0 Z " fill="#49C9D5" transform="translate(33,63)"/>
<path d="M0 0 C1.65 0 3.3 0 5 0 C4.125 3.875 4.125 3.875 3 5 C0.66055264 4.71269945 -1.6739143 4.38063221 -4 4 C-3.67 3.34 -3.34 2.68 -3 2 C-2.34 2.33 -1.68 2.66 -1 3 C-0.67 2.01 -0.34 1.02 0 0 Z " fill="#38C2C6" transform="translate(47,97)"/>
<path d="M0 0 C3.71599191 -0.20086443 4.77208445 -0.1519437 8 2 C8 2.66 8 3.32 8 4 C5.03 4 2.06 4 -1 4 C-0.67 2.68 -0.34 1.36 0 0 Z " fill="#32C7DE" transform="translate(14,59)"/>
<path d="M0 0 C0.66 0 1.32 0 2 0 C2 1.65 2 3.3 2 5 C2.99 5.33 3.98 5.66 5 6 C4.01 6.99 3.02 7.98 2 9 C-1.875 7.25 -1.875 7.25 -3 5 C-2.01 5 -1.02 5 0 5 C0 3.35 0 1.7 0 0 Z " fill="#F5FCFD" transform="translate(119,52)"/>
<path d="M0 0 C4.62 0 9.24 0 14 0 C14 0.66 14 1.32 14 2 C9.38 2 4.76 2 0 2 C0 1.34 0 0.68 0 0 Z " fill="#EAEBF2" transform="translate(7,81)"/>
<path d="M0 0 C1.32 0 2.64 0 4 0 C4 1.65 4 3.3 4 5 C2.68 5.33 1.36 5.66 0 6 C-0.38218767 4.34385343 -0.71395102 2.67542976 -1 1 C-0.67 0.67 -0.34 0.34 0 0 Z " fill="#49CEDA" transform="translate(22,67)"/>
<path d="M0 0 C0.66 0 1.32 0 2 0 C2 2.97 2 5.94 2 9 C1.34 9 0.68 9 0 9 C0 7.68 0 6.36 0 5 C-1.98 5 -3.96 5 -6 5 C-6 4.67 -6 4.34 -6 4 C-4.35 3.67 -2.7 3.34 -1 3 C-0.67 2.01 -0.34 1.02 0 0 Z " fill="#69D4E3" transform="translate(13,42)"/>
<path d="M0 0 C0.66 0 1.32 0 2 0 C1.67 2.31 1.34 4.62 1 7 C-2.875 5.25 -2.875 5.25 -4 3 C-3.01 2.67 -2.02 2.34 -1 2 C-0.67 1.34 -0.34 0.68 0 0 Z " fill="#39CCD1" transform="translate(58,88)"/>
<path d="M0 0 C1.32 0 2.64 0 4 0 C3.67 1.98 3.34 3.96 3 6 C2.01 6 1.02 6 0 6 C0 4.02 0 2.04 0 0 Z " fill="#3DB3DF" transform="translate(30,59)"/>
<path d="M0 0 C1.32 0 2.64 0 4 0 C4.33 1.32 4.66 2.64 5 4 C2.36 4 -0.28 4 -3 4 C-1.75 2 -1.75 2 0 0 Z " fill="#BDD7FF" transform="translate(81,114)"/>
<path d="M0 0 C0.33 0.66 0.66 1.32 1 2 C1.99 2 2.98 2 4 2 C4 2.66 4 3.32 4 4 C0.04 4 -3.92 4 -8 4 C-8 3.34 -8 2.68 -8 2 C-5.69 2 -3.38 2 -1 2 C-0.67 1.34 -0.34 0.68 0 0 Z " fill="#89CCDD" transform="translate(106,45)"/>
<path d="M0 0 C0.66 0 1.32 0 2 0 C2 2.64 2 5.28 2 8 C1.01 8.33 0.02 8.66 -1 9 C-1.07427838 5.65747276 -1.06546953 3.1964086 0 0 Z " fill="#665FFF" transform="translate(103,108)"/>
<path d="M0 0 C0.33 0.99 0.66 1.98 1 3 C0.01 4.485 0.01 4.485 -1 6 C-0.34 6 0.32 6 1 6 C0.67 6.99 0.34 7.98 0 9 C-1.32 7.35 -2.64 5.7 -4 4 C-2.68 2.68 -1.36 1.36 0 0 Z " fill="#E5F5F8" transform="translate(39,91)"/>
<path d="M0 0 C1.98 0.99 1.98 0.99 4 2 C4 2.99 4 3.98 4 5 C2 6.6875 2 6.6875 0 8 C0.185625 7.236875 0.37125 6.47375 0.5625 5.6875 C1.22819173 2.91032625 1.22819173 2.91032625 0 0 Z " fill="#DFF5F7" transform="translate(53,92)"/>
<path d="M0 0 C0.99 0 1.98 0 3 0 C3 2.64 3 5.28 3 8 C2.01 7.67 1.02 7.34 0 7 C0 4.69 0 2.38 0 0 Z " fill="#38D0CE" transform="translate(31,67)"/>
<path d="M0 0 C0.33 0 0.66 0 1 0 C1 2.64 1 5.28 1 8 C0.01 8.33 -0.98 8.66 -2 9 C-2.25 3.375 -2.25 3.375 0 0 Z " fill="#409AE9" transform="translate(43,59)"/>
<path d="M0 0 C0.66 0 1.32 0 2 0 C1.01 2.97 0.02 5.94 -1 9 C-1.66 9 -2.32 9 -3 9 C-2.01 6.03 -1.02 3.06 0 0 Z " fill="#E7F6F9" transform="translate(47,91)"/>
<path d="M0 0 C-0.33 0.66 -0.66 1.32 -1 2 C-3.3140622 2.73075648 -5.64828869 3.40138258 -8 4 C-8 3.01 -8 2.02 -8 1 C-5.07175348 0.02391783 -3.04386724 -0.08226668 0 0 Z " fill="#F9FDFD" transform="translate(30,72)"/>
<path d="M0 0 C1.65 0 3.3 0 5 0 C5 1.32 5 2.64 5 4 C3.35 4 1.7 4 0 4 C0 2.68 0 1.36 0 0 Z " fill="#30C5DF" transform="translate(13,65)"/>
</svg>
