<?xml version="1.0" encoding="UTF-8"?>
<svg version="1.1" xmlns="http://www.w3.org/2000/svg" width="150" height="150">
<path d="M0 0 C0.625 2.5625 0.625 2.5625 1 5 C6.64358182 4.53196233 6.64358182 4.53196233 11 1 C13.31 2.65 15.62 4.3 18 6 C17.67 6.598125 17.34 7.19625 17 7.8125 C15.79212012 10.05386471 15.79212012 10.05386471 16 13 C17.82337891 13.09087891 17.82337891 13.09087891 19.68359375 13.18359375 C21.26824228 13.26798332 22.85287702 13.3526321 24.4375 13.4375 C25.64116211 13.49647461 25.64116211 13.49647461 26.86914062 13.55664062 C32.88671875 13.88671875 32.88671875 13.88671875 34 15 C34.08748207 16.92667507 34.10697334 18.85651861 34.09765625 20.78515625 C34.09443359 21.95498047 34.09121094 23.12480469 34.08789062 24.33007812 C34.07951172 25.56177734 34.07113281 26.79347656 34.0625 28.0625 C34.05798828 29.29806641 34.05347656 30.53363281 34.04882812 31.80664062 C34.03699608 34.87114117 34.02051173 37.93554721 34 41 C35.98 41 37.96 41 40 41 C41.8684361 44.84678022 42.05395731 46.8895665 41 51 C41 52.32 41 53.64 41 55 C40.01 55.99 40.01 55.99 39 57 C38.01 56.67 37.02 56.34 36 56 C35.34 57.32 34.68 58.64 34 60 C32.02 60 30.04 60 28 60 C27.773125 59.360625 27.54625 58.72125 27.3125 58.0625 C26.14749104 55.72806339 26.14749104 55.72806339 23.375 55.25 C22.59125 55.1675 21.8075 55.085 21 55 C19.7922442 51.37673261 20.45688872 50.35853631 22 47 C21.34 46.67 20.68 46.34 20 46 C20 45.34 20 44.68 20 44 C19.34 44 18.68 44 18 44 C18 50.6 18 57.2 18 64 C20.31 64 22.62 64 25 64 C26 65 26 65 26.11352539 68.96899414 C26.1133662 70.74105607 26.10766785 72.5131226 26.09765625 74.28515625 C26.0962413 75.21597519 26.09482635 76.14679413 26.09336853 77.1058197 C26.08775172 80.09141191 26.0751964 83.07693029 26.0625 86.0625 C26.05748716 88.08137913 26.05292388 90.10025943 26.04882812 92.11914062 C26.03777683 97.07945572 26.02050095 102.03971532 26 107 C28.31 107.66 30.62 108.32 33 109 C32 111 32 111 30.34521484 111.61450195 C25.49200924 112.41225457 20.54404055 112.18590312 15.63769531 112.18530273 C13.63863013 112.18748512 11.63960468 112.20599143 9.640625 112.22460938 C8.36960937 112.22654297 7.09859375 112.22847656 5.7890625 112.23046875 C4.63100098 112.23457764 3.47293945 112.23868652 2.27978516 112.24291992 C-1.11310954 111.99162245 -3.83332989 111.21173908 -7 110 C-6.67 109.34 -6.34 108.68 -6 108 C-3.4375 107.375 -3.4375 107.375 -1 107 C-1.67857056 106.99191315 -2.35714111 106.98382629 -3.05627441 106.97549438 C-10.19572947 106.88863335 -17.33493245 106.7891071 -24.47412109 106.68261719 C-27.12938188 106.64363425 -29.7845665 106.60971702 -32.43994141 106.578125 C-71.60123784 106.10647973 -71.60123784 106.10647973 -83 100 C-83 98.35 -83 96.7 -83 95 C-85.63904371 93.58622659 -88.07120629 92.62759865 -91 92 C-91.495 89.03 -91.495 89.03 -92 86 C-90.02 85.505 -90.02 85.505 -88 85 C-87.79859524 81.37471432 -88.14223235 79.13498292 -90 76 C-88.5625 73.9375 -88.5625 73.9375 -86 72 C-82.92416977 71.94176569 -80.01264352 72.40777093 -77 73 C-77 71.68 -77 70.36 -77 69 C-76.34 69 -75.68 69 -75 69 C-75 66.36 -75 63.72 -75 61 C-79.29 61 -83.58 61 -88 61 C-88.02683436 57.68744674 -88.0467578 54.37510817 -88.0625 51.0625 C-88.07087891 50.11697266 -88.07925781 49.17144531 -88.08789062 48.19726562 C-88.09111328 47.29814453 -88.09433594 46.39902344 -88.09765625 45.47265625 C-88.10289307 44.64000244 -88.10812988 43.80734863 -88.11352539 42.94946289 C-88 41 -88 41 -87 40 C-84.98035801 39.92755947 -82.95832876 39.91622812 -80.9375 39.9375 C-79.28041016 39.95103516 -79.28041016 39.95103516 -77.58984375 39.96484375 C-76.73519531 39.97644531 -75.88054687 39.98804688 -75 40 C-75 38.02 -75 36.04 -75 34 C-76.28197266 34.01740234 -76.28197266 34.01740234 -77.58984375 34.03515625 C-78.69457031 34.04417969 -79.79929687 34.05320313 -80.9375 34.0625 C-82.03964844 34.07410156 -83.14179687 34.08570313 -84.27734375 34.09765625 C-87 34 -87 34 -88 33 C-88.07226502 31.14712498 -88.0838122 29.29166122 -88.0625 27.4375 C-88.05347656 26.42558594 -88.04445313 25.41367187 -88.03515625 24.37109375 C-88.02355469 23.58863281 -88.01195313 22.80617188 -88 22 C-90.31 22 -92.62 22 -95 22 C-95 21.67 -95 21.34 -95 21 C-93.02 20.67 -91.04 20.34 -89 20 C-88.67 18.68 -88.34 17.36 -88 16 C-89.98 16 -91.96 16 -94 16 C-94 15.67 -94 15.34 -94 15 C-88.08218663 12.93810069 -82.79581786 12.75832162 -76.5625 12.875 C-75.64017578 12.88402344 -74.71785156 12.89304687 -73.76757812 12.90234375 C-71.51160502 12.92572171 -69.25576717 12.9615858 -67 13 C-67 18.61 -67 24.22 -67 30 C-64.69 30 -62.38 30 -60 30 C-59.67 28.68 -59.34 27.36 -59 26 C-36.23 25.505 -36.23 25.505 -13 25 C-13 24.01 -13 23.02 -13 22 C-14.65 22 -16.3 22 -18 22 C-18.95024979 18.30458414 -18.95024979 15.69541586 -18 12 C-17.071875 12.061875 -16.14375 12.12375 -15.1875 12.1875 C-12.09896253 12.23425746 -12.09896253 12.23425746 -10.0625 10.9375 C-8.38323093 7.87530347 -9.31378875 5.30629059 -10 2 C-8.71211992 1.46987262 -7.41953322 0.9511671 -6.125 0.4375 C-5.40570313 0.14746094 -4.68640625 -0.14257812 -3.9453125 -0.44140625 C-2 -1 -2 -1 0 0 Z M-5 13 C-7.2084626 16.31269391 -7.80664241 18.14978851 -7.5546875 22.0625 C-6.4812192 25.81207941 -4.28696911 27.01541488 -1 29 C1.63836977 29.1672392 1.63836977 29.1672392 4 29 C4.03738281 28.01257813 4.07476562 27.02515625 4.11328125 26.0078125 C4.17902344 24.72648437 4.24476562 23.44515625 4.3125 22.125 C4.37050781 20.84882812 4.42851563 19.57265625 4.48828125 18.2578125 C4.65714844 17.18273437 4.82601562 16.10765625 5 15 C5.99 14.34 6.98 13.68 8 13 C6.01607489 10.60148679 6.01607489 10.60148679 2.1875 10.5625 C-1.17733329 10.66669338 -2.04370031 11.02913354 -5 13 Z M26 46 C26.32326553 49.59679066 26.32326553 49.59679066 27 53 C31.07079208 54.1508314 31.07079208 54.1508314 34.875 52.875 C36.3568671 50.40522151 36.3633156 48.83386167 36 46 C34.11499729 43.68436913 34.11499729 43.68436913 31 43.75 C27.88500271 43.68436913 27.88500271 43.68436913 26 46 Z M-81.25 79.625 C-83.21985834 81.92308586 -83.21985834 81.92308586 -83.5 85 C-83.21376982 88.06575838 -83.21376982 88.06575838 -81.3125 90.375 C-78.61209763 92.27258004 -77.22939919 92.35882213 -74 92 C-73.85024761 84.94348748 -73.85024761 84.94348748 -75 78 C-78.92212225 77.60967296 -78.92212225 77.60967296 -81.25 79.625 Z M-66 97 C-65.67 97.66 -65.34 98.32 -65 99 C-53.12 98.01 -53.12 98.01 -41 97 C-40.67 96.01 -40.34 95.02 -40 94 C-43.77068832 93.913015 -47.54111932 93.85961421 -51.3125 93.8125 C-52.9202832 93.77479492 -52.9202832 93.77479492 -54.56054688 93.73632812 C-55.58857422 93.72666016 -56.61660156 93.71699219 -57.67578125 93.70703125 C-58.62364502 93.6913208 -59.57150879 93.67561035 -60.5480957 93.65942383 C-63.39771408 94.05524357 -64.24976105 94.77824719 -66 97 Z M-16 94 C-16 94.99 -16 95.98 -16 97 C-10.72 97.33 -5.44 97.66 0 98 C0 96.68 0 95.36 0 94 C-5.28 94 -10.56 94 -16 94 Z M-75 97 C-75 97.99 -75 98.98 -75 100 C-72.36 99.67 -69.72 99.34 -67 99 C-67.66 98.01 -68.32 97.02 -69 96 C-72.7763932 95.7018576 -72.7763932 95.7018576 -75 97 Z " fill="#5D50FC" transform="translate(101,19)"/>
<path d="M0 0 C0.625 2.5625 0.625 2.5625 1 5 C6.64358182 4.53196233 6.64358182 4.53196233 11 1 C13.31 2.65 15.62 4.3 18 6 C17.67 6.598125 17.34 7.19625 17 7.8125 C15.79212012 10.05386471 15.79212012 10.05386471 16 13 C17.82337891 13.09087891 17.82337891 13.09087891 19.68359375 13.18359375 C21.26824228 13.26798332 22.85287702 13.3526321 24.4375 13.4375 C25.64116211 13.49647461 25.64116211 13.49647461 26.86914062 13.55664062 C32.88671875 13.88671875 32.88671875 13.88671875 34 15 C34.08748207 16.92667507 34.10697334 18.85651861 34.09765625 20.78515625 C34.09282227 22.53989258 34.09282227 22.53989258 34.08789062 24.33007812 C34.07532227 26.17762695 34.07532227 26.17762695 34.0625 28.0625 C34.05798828 29.29806641 34.05347656 30.53363281 34.04882812 31.80664062 C34.03699608 34.87114117 34.02051173 37.93554721 34 41 C35.98 41 37.96 41 40 41 C41.8684361 44.84678022 42.05395731 46.8895665 41 51 C41 52.32 41 53.64 41 55 C40.01 55.99 40.01 55.99 39 57 C37.515 56.505 37.515 56.505 36 56 C35.34 57.32 34.68 58.64 34 60 C32.02 60 30.04 60 28 60 C27.773125 59.360625 27.54625 58.72125 27.3125 58.0625 C26.14749104 55.72806339 26.14749104 55.72806339 23.375 55.25 C22.59125 55.1675 21.8075 55.085 21 55 C19.7922442 51.37673261 20.45688872 50.35853631 22 47 C21.34 46.67 20.68 46.34 20 46 C20 45.34 20 44.68 20 44 C14.72 44 9.44 44 4 44 C4 41.03 4 38.06 4 35 C1.69 35 -0.62 35 -3 35 C-2.99476318 35.7520874 -2.98952637 36.5041748 -2.98413086 37.27905273 C-2.96342773 40.66519342 -2.95036123 44.05132084 -2.9375 47.4375 C-2.92912109 48.62150391 -2.92074219 49.80550781 -2.91210938 51.02539062 C-2.90888672 52.15009766 -2.90566406 53.27480469 -2.90234375 54.43359375 C-2.89710693 55.47572021 -2.89187012 56.51784668 -2.88647461 57.59155273 C-3 60 -3 60 -4 61 C-5.71318946 61.09881593 -7.43044803 61.12798969 -9.14648438 61.12939453 C-10.24432251 61.13254669 -11.34216064 61.13569885 -12.4732666 61.13894653 C-13.66802612 61.1369223 -14.86278564 61.13489807 -16.09375 61.1328125 C-17.31074585 61.13376923 -18.5277417 61.13472595 -19.78161621 61.13571167 C-22.36075899 61.13639372 -24.93990347 61.13453772 -27.51904297 61.13037109 C-31.48278636 61.12502322 -35.44641642 61.13031529 -39.41015625 61.13671875 C-41.90885442 61.13605797 -44.40755252 61.13477682 -46.90625 61.1328125 C-48.69838928 61.13584885 -48.69838928 61.13584885 -50.5267334 61.13894653 C-51.62457153 61.13579437 -52.72240967 61.13264221 -53.85351562 61.12939453 C-55.31126404 61.12820114 -55.31126404 61.12820114 -56.79846191 61.12698364 C-59 61 -59 61 -60 60 C-60.10081087 57.64768301 -60.13972939 55.32538053 -60.1328125 52.97265625 C-60.13376923 52.26854111 -60.13472595 51.56442596 -60.13571167 50.838974 C-60.13639341 49.34683137 -60.13453952 47.85468579 -60.13037109 46.36254883 C-60.12503063 44.07561582 -60.1303121 41.78887992 -60.13671875 39.50195312 C-60.13605781 38.05468707 -60.13477632 36.60742113 -60.1328125 35.16015625 C-60.13483673 34.47365494 -60.13686096 33.78715363 -60.13894653 33.07984924 C-60.11495764 28.22991527 -60.11495764 28.22991527 -59 26 C-36.23 25.505 -36.23 25.505 -13 25 C-13 24.01 -13 23.02 -13 22 C-14.65 22 -16.3 22 -18 22 C-18.95024979 18.30458414 -18.95024979 15.69541586 -18 12 C-17.071875 12.061875 -16.14375 12.12375 -15.1875 12.1875 C-12.09896253 12.23425746 -12.09896253 12.23425746 -10.0625 10.9375 C-8.38323093 7.87530347 -9.31378875 5.30629059 -10 2 C-8.71211992 1.46987262 -7.41953322 0.9511671 -6.125 0.4375 C-5.40570313 0.14746094 -4.68640625 -0.14257812 -3.9453125 -0.44140625 C-2 -1 -2 -1 0 0 Z M-5 13 C-7.2084626 16.31269391 -7.80664241 18.14978851 -7.5546875 22.0625 C-6.4812192 25.81207941 -4.28696911 27.01541488 -1 29 C1.63836977 29.1672392 1.63836977 29.1672392 4 29 C4.03738281 28.01257813 4.07476562 27.02515625 4.11328125 26.0078125 C4.17902344 24.72648437 4.24476562 23.44515625 4.3125 22.125 C4.37050781 20.84882812 4.42851563 19.57265625 4.48828125 18.2578125 C4.65714844 17.18273437 4.82601562 16.10765625 5 15 C5.99 14.34 6.98 13.68 8 13 C6.01607489 10.60148679 6.01607489 10.60148679 2.1875 10.5625 C-1.17733329 10.66669338 -2.04370031 11.02913354 -5 13 Z M26 46 C26.32326553 49.59679066 26.32326553 49.59679066 27 53 C31.07079208 54.1508314 31.07079208 54.1508314 34.875 52.875 C36.3568671 50.40522151 36.3633156 48.83386167 36 46 C34.11499729 43.68436913 34.11499729 43.68436913 31 43.75 C27.88500271 43.68436913 27.88500271 43.68436913 26 46 Z " fill="#39C7D7" transform="translate(101,19)"/>
<path d="M0 0 C0.66 0 1.32 0 2 0 C2 2.97 2 5.94 2 9 C1.030625 9.28875 0.06125 9.5775 -0.9375 9.875 C-4.10664203 10.64214682 -4.10664203 10.64214682 -5 13 C-5.14375422 16.37822416 -5.07536348 18.77390955 -4 22 C-1.69 22.33 0.62 22.66 3 23 C3 20.03 3 17.06 3 14 C4.98 14 6.96 14 9 14 C9.33 14.66 9.66 15.32 10 16 C18.25 16 26.5 16 35 16 C35.33 15.34 35.66 14.68 36 14 C49.53 14 63.06 14 77 14 C77 17.63 77 21.26 77 25 C71.72 25 66.44 25 61 25 C61 25.99 61 26.98 61 28 C61.56847656 27.98839844 62.13695313 27.97679688 62.72265625 27.96484375 C67.60670484 27.90776806 72.18503965 28.18043228 77 29 C77 31.64 77 34.28 77 37 C69.71409984 37.04682155 62.42823335 37.08211748 55.14221191 37.10362434 C51.75718789 37.11395864 48.37226851 37.12792229 44.98730469 37.15087891 C5.93955462 37.39618997 5.93955462 37.39618997 -6 31 C-6 29.35 -6 27.7 -6 26 C-8.63904371 24.58622659 -11.07120629 23.62759865 -14 23 C-14.33 21.02 -14.66 19.04 -15 17 C-13.68 16.67 -12.36 16.34 -11 16 C-10.79859524 12.37471432 -11.14223235 10.13498292 -13 7 C-11.5625 4.9375 -11.5625 4.9375 -9 3 C-5.92416977 2.94176569 -3.01264352 3.40777093 0 4 C0 2.68 0 1.36 0 0 Z M11 28 C11.33 28.66 11.66 29.32 12 30 C23.88 29.01 23.88 29.01 36 28 C36.33 27.01 36.66 26.02 37 25 C33.22931168 24.913015 29.45888068 24.85961421 25.6875 24.8125 C24.0797168 24.77479492 24.0797168 24.77479492 22.43945312 24.73632812 C21.41142578 24.72666016 20.38339844 24.71699219 19.32421875 24.70703125 C18.37635498 24.6913208 17.42849121 24.67561035 16.4519043 24.65942383 C13.60228592 25.05524357 12.75023895 25.77824719 11 28 Z M2 28 C2 28.99 2 29.98 2 31 C4.64 30.67 7.28 30.34 10 30 C9.34 29.01 8.68 28.02 8 27 C4.2236068 26.7018576 4.2236068 26.7018576 2 28 Z " fill="#B7D2FE" transform="translate(24,88)"/>
<path d="M0 0 C16.83 0 33.66 0 51 0 C51 9.9 51 19.8 51 30 C34.17 30 17.34 30 0 30 C0 20.1 0 10.2 0 0 Z " fill="#444B92" transform="translate(44,47)"/>
<path d="M0 0 C4.28357759 -0.36716379 6.50348319 0.54298819 10 3 C12.58926331 5.58926331 12.37398043 7.02705279 12.625 10.625 C12.69976562 11.62789062 12.77453125 12.63078125 12.8515625 13.6640625 C12.92503906 14.82035156 12.92503906 14.82035156 13 16 C13.66 16 14.32 16 15 16 C15.33 15.67 15.66 15.34 16 15 C19.82533783 14.76256524 23.64419229 14.60332034 27.47460938 14.48242188 C28.27576172 14.44826172 29.07691406 14.41410156 29.90234375 14.37890625 C31.00823853 14.34132202 31.00823853 14.34132202 32.13647461 14.30297852 C34.24279269 14.14685298 34.24279269 14.14685298 36 12 C37 13 37 13 37.11352539 16.05102539 C37.11336634 17.39991271 37.10767612 18.74880614 37.09765625 20.09765625 C37.0962413 20.80651474 37.09482635 21.51537323 37.09336853 22.24571228 C37.08775443 24.51801712 37.07519963 26.79022475 37.0625 29.0625 C37.05748681 30.59960796 37.05292359 32.13671745 37.04882812 33.67382812 C37.03778042 37.44925642 37.02050641 41.22461171 37 45 C39.31 45.66 41.62 46.32 44 47 C43 49 43 49 41.34521484 49.61450195 C36.49200924 50.41225457 31.54404055 50.18590312 26.63769531 50.18530273 C24.63863013 50.18748512 22.63960468 50.20599143 20.640625 50.22460938 C19.36960938 50.22654297 18.09859375 50.22847656 16.7890625 50.23046875 C15.63100098 50.23457764 14.47293945 50.23868652 13.27978516 50.24291992 C9.88689046 49.99162245 7.16667011 49.21173908 4 48 C5 46 5 46 11 44 C11 34.76 11 25.52 11 16 C2.5334153 16.03955825 2.5334153 16.03955825 -5.93310547 16.09008789 C-6.98385254 16.09258545 -8.03459961 16.09508301 -9.1171875 16.09765625 C-10.73536377 16.10551147 -10.73536377 16.10551147 -12.38623047 16.11352539 C-15 16 -15 16 -17 15 C-17 14.34 -17 13.68 -17 13 C-15.68 13 -14.36 13 -13 13 C-13.66 11.35 -14.32 9.7 -15 8 C-14.01 7.34 -13.02 6.68 -12 6 C-11.67 6.33 -11.34 6.66 -11 7 C-8.9837767 6.28436734 -8.9837767 6.28436734 -7 5 C-6.19471111 2.94999129 -6.19471111 2.94999129 -6 1 C-3.03 1.495 -3.03 1.495 0 2 C0 1.34 0 0.68 0 0 Z " fill="#7285FE" transform="translate(90,81)"/>
<path d="M0 0 C0.625 2.5625 0.625 2.5625 1 5 C6.64358182 4.53196233 6.64358182 4.53196233 11 1 C13.31 2.65 15.62 4.3 18 6 C17.67 6.598125 17.34 7.19625 17 7.8125 C15.79212012 10.05386471 15.79212012 10.05386471 16 13 C17.21558594 13.06058594 18.43117187 13.12117188 19.68359375 13.18359375 C21.26824228 13.26798332 22.85287702 13.3526321 24.4375 13.4375 C25.64116211 13.49647461 25.64116211 13.49647461 26.86914062 13.55664062 C32.88671875 13.88671875 32.88671875 13.88671875 34 15 C34.15313272 17.4942965 34.23156517 19.94188493 34.25 22.4375 C34.270625 23.13166016 34.29125 23.82582031 34.3125 24.54101562 C34.328125 26.55859375 34.328125 26.55859375 34 30 C31 32 31 32 29 33 C29 33.66 29 34.32 29 35 C27.5882217 35.53394179 26.17029756 36.05165104 24.75 36.5625 C23.96109375 36.85253906 23.1721875 37.14257812 22.359375 37.44140625 C19.78033567 38.05200662 18.44252247 37.98889737 16 37 C15.67 36.34 15.34 35.68 15 35 C15.66 35 16.32 35 17 35 C16.505 33.02 16.505 33.02 16 31 C9.73 30.67 3.46 30.34 -3 30 C-3 29.34 -3 28.68 -3 28 C-0.69 28.33 1.62 28.66 4 29 C3.94779297 27.51886719 3.94779297 27.51886719 3.89453125 26.0078125 C3.86746094 24.72648437 3.84039062 23.44515625 3.8125 22.125 C3.76029297 20.21074219 3.76029297 20.21074219 3.70703125 18.2578125 C3.80371094 17.18273437 3.90039062 16.10765625 4 15 C4.99 14.34 5.98 13.68 7 13 C5.78410016 11.56844101 5.78410016 11.56844101 2.1875 11.6875 C-0.78617685 11.74622611 -1.87751147 11.92650688 -4.5 13.5 C-6.71177972 17.18629954 -6.34421275 19.73176192 -6 24 C-5.67 24.66 -5.34 25.32 -5 26 C-7.31 26 -9.62 26 -12 26 C-12.33 24.68 -12.66 23.36 -13 22 C-14.65 22 -16.3 22 -18 22 C-18.95024979 18.30458414 -18.95024979 15.69541586 -18 12 C-17.071875 12.061875 -16.14375 12.12375 -15.1875 12.1875 C-12.09896253 12.23425746 -12.09896253 12.23425746 -10.0625 10.9375 C-8.38323093 7.87530347 -9.31378875 5.30629059 -10 2 C-8.71211992 1.46987262 -7.41953322 0.9511671 -6.125 0.4375 C-5.40570313 0.14746094 -4.68640625 -0.14257812 -3.9453125 -0.44140625 C-2 -1 -2 -1 0 0 Z " fill="#33D6CC" transform="translate(101,19)"/>
<path d="M0 0 C2.31 0 4.62 0 7 0 C7 2.97 7 5.94 7 9 C11.62 9 16.24 9 21 9 C21 15.6 21 22.2 21 29 C23.31 29 25.62 29 28 29 C29.66684015 30.66684015 29.21072764 32.65643069 29.25 34.9375 C29.27578125 35.83339844 29.3015625 36.72929688 29.328125 37.65234375 C29.21984375 38.42707031 29.1115625 39.20179687 29 40 C25.96854667 42.02096889 25.26240256 42.25559261 21.83984375 42.34375 C21.04642578 42.37339844 20.25300781 42.40304688 19.43554688 42.43359375 C17.7662788 42.47796835 16.09700794 42.5222387 14.42773438 42.56640625 C13.63560547 42.59605469 12.84347656 42.62570313 12.02734375 42.65625 C10.94054321 42.68428711 10.94054321 42.68428711 9.83178711 42.71289062 C7.75279512 42.8544817 7.75279512 42.8544817 6 45 C2.97931271 41.97931271 3.66009625 38.76055841 3.5390625 34.62890625 C3.23946329 31.87772947 3.23946329 31.87772947 1.0859375 30.21484375 C-2.20516424 28.29811596 -4.09773794 27.86038383 -7.90869141 27.79467773 C-9.44005234 27.7647599 -9.44005234 27.7647599 -11.00234985 27.73423767 C-12.10759003 27.71752518 -13.2128302 27.70081268 -14.3515625 27.68359375 C-15.4807309 27.66281265 -16.60989929 27.64203156 -17.77328491 27.62062073 C-21.39045972 27.55508665 -25.00770881 27.49622226 -28.625 27.4375 C-31.07292444 27.39431846 -33.52084128 27.35070429 -35.96875 27.30664062 C-41.9790875 27.19940133 -47.98949935 27.09764213 -54 27 C-54 26.67 -54 26.34 -54 26 C-36.51 25.67 -19.02 25.34 -1 25 C-0.67 16.75 -0.34 8.5 0 0 Z " fill="#6B83FA" transform="translate(98,54)"/>
<path d="M0 0 C0.66 0 1.32 0 2 0 C2 2.97 2 5.94 2 9 C1.030625 9.28875 0.06125 9.5775 -0.9375 9.875 C-4.10664203 10.64214682 -4.10664203 10.64214682 -5 13 C-5.14375422 16.37822416 -5.07536348 18.77390955 -4 22 C-2.865625 22.144375 -1.73125 22.28875 -0.5625 22.4375 C3 23 3 23 4 24 C5.68183948 24.23287008 7.3712416 24.41264166 9.0625 24.5625 C9.98160156 24.64628906 10.90070312 24.73007813 11.84765625 24.81640625 C12.91306641 24.90728516 12.91306641 24.90728516 14 25 C13.34 26.32 12.68 27.64 12 29 C19.92 28.67 27.84 28.34 36 28 C35.67 28.66 35.34 29.32 35 30 C32.35139573 30.59355614 29.70802678 30.74209269 27 31 C27 31.66 27 32.32 27 33 C41.19 33 55.38 33 70 33 C69.67 32.34 69.34 31.68 69 31 C67.845 30.835 66.69 30.67 65.5 30.5 C64.345 30.335 63.19 30.17 62 30 C61.505 29.01 61.505 29.01 61 28 C66.45769811 27.88861841 71.61509359 28.08342019 77 29 C77 31.64 77 34.28 77 37 C69.71409984 37.04682155 62.42823335 37.08211748 55.14221191 37.10362434 C51.75718789 37.11395864 48.37226851 37.12792229 44.98730469 37.15087891 C5.93955462 37.39618997 5.93955462 37.39618997 -6 31 C-6 29.35 -6 27.7 -6 26 C-8.63904371 24.58622659 -11.07120629 23.62759865 -14 23 C-14.33 21.02 -14.66 19.04 -15 17 C-13.68 16.67 -12.36 16.34 -11 16 C-10.79859524 12.37471432 -11.14223235 10.13498292 -13 7 C-11.5625 4.9375 -11.5625 4.9375 -9 3 C-5.92416977 2.94176569 -3.01264352 3.40777093 0 4 C0 2.68 0 1.36 0 0 Z M2 28 C2 28.99 2 29.98 2 31 C4.64 30.67 7.28 30.34 10 30 C9.34 29.01 8.68 28.02 8 27 C4.2236068 26.7018576 4.2236068 26.7018576 2 28 Z " fill="#E9EBF2" transform="translate(24,88)"/>
<path d="M0 0 C1.12019531 -0.00128906 2.24039063 -0.00257812 3.39453125 -0.00390625 C4.57402344 -0.00003906 5.75351562 0.00382812 6.96875 0.0078125 C8.73798828 0.00201172 8.73798828 0.00201172 10.54296875 -0.00390625 C12.22326172 -0.00197266 12.22326172 -0.00197266 13.9375 0 C14.97326172 0.00112793 16.00902344 0.00225586 17.07617188 0.00341797 C19.46875 0.1328125 19.46875 0.1328125 20.46875 1.1328125 C20.56861975 3.97616298 20.60752881 6.78978413 20.59375 9.6328125 C20.59955078 10.82970703 20.59955078 10.82970703 20.60546875 12.05078125 C20.59535767 18.00620483 20.59535767 18.00620483 19.46875 19.1328125 C17.62715977 19.23240871 15.78178033 19.26361661 13.9375 19.265625 C12.81730469 19.26691406 11.69710937 19.26820312 10.54296875 19.26953125 C9.36347656 19.26566406 8.18398438 19.26179688 6.96875 19.2578125 C5.19951172 19.26361328 5.19951172 19.26361328 3.39453125 19.26953125 C1.71423828 19.26759766 1.71423828 19.26759766 0 19.265625 C-1.03576172 19.26449707 -2.07152344 19.26336914 -3.13867188 19.26220703 C-5.53125 19.1328125 -5.53125 19.1328125 -6.53125 18.1328125 C-6.63111975 15.28946202 -6.67002881 12.47584087 -6.65625 9.6328125 C-6.66011719 8.83488281 -6.66398437 8.03695312 -6.66796875 7.21484375 C-6.65573175 0.007248 -6.65573175 0.007248 0 0 Z " fill="#38D6C7" transform="translate(39.53125,85.8671875)"/>
<path d="M0 0 C1.00023193 0.00523682 2.00046387 0.01047363 3.03100586 0.01586914 C4.1105957 0.0190918 5.19018555 0.02231445 6.30249023 0.02563477 C8.00695312 0.03820312 8.00695312 0.03820312 9.74584961 0.05102539 C11.45611328 0.05779297 11.45611328 0.05779297 13.20092773 0.06469727 C16.02845312 0.07652792 18.85587601 0.09301129 21.68334961 0.11352539 C21.68334961 0.77352539 21.68334961 1.43352539 21.68334961 2.11352539 C18.71334961 1.61852539 18.71334961 1.61852539 15.68334961 1.11352539 C15.68334961 2.76352539 15.68334961 4.41352539 15.68334961 6.11352539 C9.93334961 8.11352539 9.93334961 8.11352539 7.68334961 8.11352539 C8.01334961 9.76352539 8.34334961 11.41352539 8.68334961 13.11352539 C7.36334961 13.11352539 6.04334961 13.11352539 4.68334961 13.11352539 C8.07140122 15.37222647 9.45685702 15.40611953 13.44506836 15.52758789 C14.56333008 15.56625977 15.6815918 15.60493164 16.83374023 15.64477539 C18.00098633 15.67571289 19.16823242 15.70665039 20.37084961 15.73852539 C21.54969727 15.77719727 22.72854492 15.81586914 23.94311523 15.85571289 C26.85636938 15.9500693 29.76961568 16.035657 32.68334961 16.11352539 C32.68334961 17.76352539 32.68334961 19.41352539 32.68334961 21.11352539 C19.15334961 21.11352539 5.62334961 21.11352539 -8.31665039 21.11352539 C-8.64665039 15.50352539 -8.97665039 9.89352539 -9.31665039 4.11352539 C-7.96662467 3.43851253 -6.61230699 2.77202556 -5.25415039 2.11352539 C-1.28080121 0.06276452 -1.28080121 0.06276452 0 0 Z " fill="#6B72FE" transform="translate(68.316650390625,80.886474609375)"/>
<path d="M0 0 C7.81452752 -0.02526563 15.62904458 -0.04283105 23.44360352 -0.05493164 C26.10441481 -0.05997383 28.76522332 -0.06680736 31.42602539 -0.07543945 C35.24105516 -0.08751009 39.05604844 -0.09322929 42.87109375 -0.09765625 C44.66793861 -0.10539818 44.66793861 -0.10539818 46.50108337 -0.11329651 C48.15268211 -0.11340981 48.15268211 -0.11340981 49.83764648 -0.11352539 C50.81249496 -0.115746 51.78734344 -0.11796661 52.79173279 -0.12025452 C55 0 55 0 56 1 C56.10082764 3.43660446 56.13972603 5.84424701 56.1328125 8.28125 C56.13376923 9.00993286 56.13472595 9.73861572 56.13571167 10.48937988 C56.13639335 12.0327971 56.13453988 13.57621717 56.13037109 15.11962891 C56.12502262 17.489974 56.13031642 19.86012959 56.13671875 22.23046875 C56.13605797 23.72656292 56.1347768 25.22265697 56.1328125 26.71875 C56.13483673 27.43228638 56.13686096 28.14582275 56.13894653 28.88098145 C56.11495191 33.88504809 56.11495191 33.88504809 55 35 C53.28681054 35.09881593 51.56955197 35.12798969 49.85351562 35.12939453 C48.75567749 35.13254669 47.65783936 35.13569885 46.5267334 35.13894653 C45.33197388 35.1369223 44.13721436 35.13489807 42.90625 35.1328125 C41.68925415 35.13376923 40.4722583 35.13472595 39.21838379 35.13571167 C36.63924101 35.13639372 34.06009653 35.13453772 31.48095703 35.13037109 C27.51721364 35.12502322 23.55358358 35.13031529 19.58984375 35.13671875 C17.09114558 35.13605797 14.59244748 35.13477682 12.09375 35.1328125 C10.30161072 35.13584885 10.30161072 35.13584885 8.4732666 35.13894653 C7.37542847 35.13579437 6.27759033 35.13264221 5.14648438 35.12939453 C3.68873596 35.12820114 3.68873596 35.12820114 2.20153809 35.12698364 C0 35 0 35 -1 34 C-1.10081087 31.64768301 -1.13972939 29.32538053 -1.1328125 26.97265625 C-1.13376923 26.26854111 -1.13472595 25.56442596 -1.13571167 24.838974 C-1.13639341 23.34683137 -1.13453952 21.85468579 -1.13037109 20.36254883 C-1.12503063 18.07561582 -1.1303121 15.78887992 -1.13671875 13.50195312 C-1.13605781 12.05468707 -1.13477632 10.60742113 -1.1328125 9.16015625 C-1.13483673 8.47365494 -1.13686096 7.78715363 -1.13894653 7.07984924 C-1.11495764 2.22991527 -1.11495764 2.22991527 0 0 Z M2 2 C2 11.9 2 21.8 2 32 C18.83 32 35.66 32 53 32 C53 22.1 53 12.2 53 2 C36.17 2 19.34 2 2 2 Z " fill="#37D6C9" transform="translate(42,45)"/>
<path d="M0 0 C0.83265381 0.00523682 1.66530762 0.01047363 2.52319336 0.01586914 C3.33280518 0.0183667 4.14241699 0.02086426 4.9765625 0.0234375 C6.01159912 0.0325415 7.04663574 0.04164551 8.11303711 0.05102539 C11.39241211 0.07165039 14.67178711 0.09227539 18.05053711 0.11352539 C18.05053711 7.04352539 18.05053711 13.97352539 18.05053711 21.11352539 C11.12053711 21.11352539 4.19053711 21.11352539 -2.94946289 21.11352539 C-2.97008789 17.83415039 -2.99071289 14.55477539 -3.01196289 11.17602539 C-3.02106689 10.14098877 -3.0301709 9.10595215 -3.03955078 8.03955078 C-3.04329712 6.82513306 -3.04329712 6.82513306 -3.04711914 5.58618164 C-3.05235596 4.75352783 -3.05759277 3.92087402 -3.06298828 3.06298828 C-2.90876673 0.41468917 -2.64829911 0.15422155 0 0 Z " fill="#36C9DD" transform="translate(15.949462890625,58.886474609375)"/>
<path d="M0 0 C1.32 0 2.64 0 4 0 C4 6.6 4 13.2 4 20 C6.31 20 8.62 20 11 20 C12.66684015 21.66684015 12.21072764 23.65643069 12.25 25.9375 C12.27578125 26.83339844 12.3015625 27.72929688 12.328125 28.65234375 C12.21984375 29.42707031 12.1115625 30.20179687 12 31 C8.96854667 33.02096889 8.26240256 33.25559261 4.83984375 33.34375 C4.04642578 33.37339844 3.25300781 33.40304688 2.43554688 33.43359375 C0.7662788 33.47796835 -0.90299206 33.5222387 -2.57226562 33.56640625 C-3.36439453 33.59605469 -4.15652344 33.62570313 -4.97265625 33.65625 C-5.69718994 33.67494141 -6.42172363 33.69363281 -7.16821289 33.71289062 C-9.24720488 33.8544817 -9.24720488 33.8544817 -11 36 C-13.65450267 33.34549733 -13.41639121 31.69774614 -13.6875 28 C-13.77386719 26.9275 -13.86023438 25.855 -13.94921875 24.75 C-14 22 -14 22 -13 20 C-8.71 20 -4.42 20 0 20 C0 13.4 0 6.8 0 0 Z " fill="#5D47FC" transform="translate(115,63)"/>
<path d="M0 0 C0.625 2.5625 0.625 2.5625 1 5 C6.64358182 4.53196233 6.64358182 4.53196233 11 1 C13.31 2.65 15.62 4.3 18 6 C17.67 6.5775 17.34 7.155 17 7.75 C15.72924102 10.19883862 15.72924102 10.19883862 16 14 C9.9453125 14.1953125 9.9453125 14.1953125 8 14 C7.34 13.34 6.68 12.68 6 12 C0.45764755 11.42765564 0.45764755 11.42765564 -4.5 13.5 C-6.71177972 17.18629954 -6.34421275 19.73176192 -6 24 C-5.67 24.66 -5.34 25.32 -5 26 C-7.31 26 -9.62 26 -12 26 C-12.33 24.68 -12.66 23.36 -13 22 C-14.65 22 -16.3 22 -18 22 C-18.95024979 18.30458414 -18.95024979 15.69541586 -18 12 C-17.071875 12.061875 -16.14375 12.12375 -15.1875 12.1875 C-12.09896253 12.23425746 -12.09896253 12.23425746 -10.0625 10.9375 C-8.38323093 7.87530347 -9.31378875 5.30629059 -10 2 C-8.71211992 1.46987262 -7.41953322 0.9511671 -6.125 0.4375 C-5.40570313 0.14746094 -4.68640625 -0.14257812 -3.9453125 -0.44140625 C-2 -1 -2 -1 0 0 Z " fill="#E9EAF1" transform="translate(101,19)"/>
<path d="M0 0 C0.66 0.33 1.32 0.66 2 1 C2 10.9 2 20.8 2 31 C-6.25 31 -14.5 31 -23 31 C-23 24 -23 24 -21.546875 21.546875 C-17.75052043 19.24111363 -14.55864404 19.79984316 -10.25 20.25 C-9.06083984 20.34861328 -9.06083984 20.34861328 -7.84765625 20.44921875 C-5.89673634 20.61375416 -3.94804503 20.80434482 -2 21 C-2.02320312 19.73542969 -2.04640625 18.47085938 -2.0703125 17.16796875 C-2.08907126 15.5078184 -2.10727135 13.84766167 -2.125 12.1875 C-2.14175781 11.35412109 -2.15851563 10.52074219 -2.17578125 9.66210938 C-2.18222656 8.85966797 -2.18867187 8.05722656 -2.1953125 7.23046875 C-2.20578613 6.49207764 -2.21625977 5.75368652 -2.22705078 4.99291992 C-2 3 -2 3 0 0 Z " fill="#7387FE" transform="translate(125,93)"/>
<path d="M0 0 C1.58206422 0.00574487 3.16410406 0.01876032 4.74609375 0.03515625 C7.53046875 0.05578125 10.31484375 0.07640625 13.18359375 0.09765625 C13.18359375 6.03765625 13.18359375 11.97765625 13.18359375 18.09765625 C10.39921875 18.11828125 7.61484375 18.13890625 4.74609375 18.16015625 C3.86767822 18.16926025 2.9892627 18.17836426 2.08422852 18.18774414 C0.11713401 18.19488716 -1.84994246 18.14797518 -3.81640625 18.09765625 C-5.63756628 16.27649622 -4.94875705 13.79093861 -4.953125 11.37109375 C-4.94925781 10.62085937 -4.94539063 9.870625 -4.94140625 9.09765625 C-4.94527344 8.34742187 -4.94914062 7.5971875 -4.953125 6.82421875 C-4.94103514 0.12643386 -4.94103514 0.12643386 0 0 Z " fill="#DDF5F8" transform="translate(109.81640625,95.90234375)"/>
<path d="M0 0 C0.33 0 0.66 0 1 0 C1.07347656 1.15628906 1.07347656 1.15628906 1.1484375 2.3359375 C1.22320312 3.33882813 1.29796875 4.34171875 1.375 5.375 C1.44460937 6.37273437 1.51421875 7.37046875 1.5859375 8.3984375 C1.76363964 11.15508879 1.76363964 11.15508879 4 13 C4.14517744 15.9093558 4.18630796 18.719946 4.125 21.625 C4.11597656 22.42679688 4.10695313 23.22859375 4.09765625 24.0546875 C4.07406223 26.03658523 4.03819065 28.01832981 4 30 C3.34 30.33 2.68 30.66 2 31 C1.67 33.31 1.34 35.62 1 38 C9.25 38 17.5 38 26 38 C26 38.66 26 39.32 26 40 C28.31 40.66 30.62 41.32 33 42 C32 44 32 44 30.34521484 44.61450195 C25.49200924 45.41225457 20.54404055 45.18590312 15.63769531 45.18530273 C13.63863013 45.18748512 11.63960468 45.20599143 9.640625 45.22460938 C8.36960937 45.22654297 7.09859375 45.22847656 5.7890625 45.23046875 C4.63100098 45.23457764 3.47293945 45.23868652 2.27978516 45.24291992 C-1.11310954 44.99162245 -3.83332989 44.21173908 -7 43 C-6 41 -6 41 0 39 C0 26.13 0 13.26 0 0 Z " fill="#5F54E7" transform="translate(101,86)"/>
<path d="M0 0 C5.61 0 11.22 0 17 0 C17 5.61 17 11.22 17 17 C11.39 17 5.78 17 0 17 C0 11.39 0 5.78 0 0 Z " fill="#3E519C" transform="translate(15,34)"/>
<path d="M0 0 C1.25554687 -0.00128906 2.51109375 -0.00257812 3.8046875 -0.00390625 C4.46178711 -0.00181152 5.11888672 0.0002832 5.79589844 0.00244141 C7.80411335 0.00779016 9.81210459 0.00249559 11.8203125 -0.00390625 C13.07585937 -0.00261719 14.33140625 -0.00132813 15.625 0 C16.78644531 0.00112793 17.94789063 0.00225586 19.14453125 0.00341797 C21.8125 0.1328125 21.8125 0.1328125 22.8125 1.1328125 C23 4.0703125 23 4.0703125 22.8125 7.1328125 C22.1525 7.7928125 21.4925 8.4528125 20.8125 9.1328125 C20.4825 8.4728125 20.1525 7.8128125 19.8125 7.1328125 C19.19375 7.3390625 18.575 7.5453125 17.9375 7.7578125 C17.23625 7.8815625 16.535 8.0053125 15.8125 8.1328125 C15.1525 7.4728125 14.4925 6.8128125 13.8125 6.1328125 C10.35449641 5.71608043 10.35449641 5.71608043 6.8125 6.1328125 C5.18764541 7.4240479 5.18764541 7.4240479 3.8125 9.1328125 C0.23702394 11.07600601 -3.40741518 12.63999934 -7.1875 14.1328125 C-7.21435938 11.98704613 -7.23383088 9.84118605 -7.25 7.6953125 C-7.26160156 6.50035156 -7.27320312 5.30539063 -7.28515625 4.07421875 C-7.11114431 -1.16702086 -4.66394941 0.00452936 0 0 Z " fill="#34D1D4" transform="translate(112.1875,32.8671875)"/>
<path d="M0 0 C1.5631897 0.00785522 1.5631897 0.00785522 3.15795898 0.01586914 C4.28266602 0.0190918 5.40737305 0.02231445 6.56616211 0.02563477 C7.75016602 0.03401367 8.93416992 0.04239258 10.15405273 0.05102539 C11.34192383 0.05553711 12.52979492 0.06004883 13.75366211 0.06469727 C16.69967499 0.07652864 19.64558954 0.09301252 22.59155273 0.11352539 C22.92155273 0.77352539 23.25155273 1.43352539 23.59155273 2.11352539 C21.94155273 2.44352539 20.29155273 2.77352539 18.59155273 3.11352539 C18.77717773 3.89727539 18.96280273 4.68102539 19.15405273 5.48852539 C19.59155273 8.11352539 19.59155273 8.11352539 18.59155273 10.11352539 C17.09155273 8.73852539 17.09155273 8.73852539 15.59155273 7.11352539 C15.59155273 6.45352539 15.59155273 5.79352539 15.59155273 5.11352539 C14.93155273 5.11352539 14.27155273 5.11352539 13.59155273 5.11352539 C13.59155273 6.76352539 13.59155273 8.41352539 13.59155273 10.11352539 C12.93155273 10.11352539 12.27155273 10.11352539 11.59155273 10.11352539 C11.92155273 8.13352539 12.25155273 6.15352539 12.59155273 4.11352539 C11.60155273 4.60852539 11.60155273 4.60852539 10.59155273 5.11352539 C10.26155273 6.10352539 9.93155273 7.09352539 9.59155273 8.11352539 C8.60155273 8.11352539 7.61155273 8.11352539 6.59155273 8.11352539 C6.59155273 7.12352539 6.59155273 6.13352539 6.59155273 5.11352539 C5.93155273 5.11352539 5.27155273 5.11352539 4.59155273 5.11352539 C4.26155273 6.10352539 3.93155273 7.09352539 3.59155273 8.11352539 C2.93155273 8.77352539 2.27155273 9.43352539 1.59155273 10.11352539 C2.41655273 10.73227539 3.24155273 11.35102539 4.09155273 11.98852539 C4.91655273 12.68977539 5.74155273 13.39102539 6.59155273 14.11352539 C6.59155273 14.77352539 6.59155273 15.43352539 6.59155273 16.11352539 C3.29155273 16.11352539 -0.00844727 16.11352539 -3.40844727 16.11352539 C-3.43529822 13.63428738 -3.45521274 11.15533699 -3.47094727 8.67602539 C-3.48351563 7.61544922 -3.48351563 7.61544922 -3.49633789 6.53344727 C-3.50498314 4.7265898 -3.46064738 2.91964936 -3.40844727 1.11352539 C-2.40844727 0.11352539 -2.40844727 0.11352539 0 0 Z " fill="#41AAE4" transform="translate(36.408447265625,85.886474609375)"/>
<path d="M0 0 C13.53 0 27.06 0 41 0 C41 1.65 41 3.3 41 5 C27.47 5 13.94 5 0 5 C0 3.35 0 1.7 0 0 Z " fill="#3C3D89" transform="translate(60,97)"/>
<path d="M0 0 C-0.33 1.32 -0.66 2.64 -1 4 C4.61 4.33 10.22 4.66 16 5 C16 5.66 16 6.32 16 7 C1.81 7 -12.38 7 -27 7 C-27 6.34 -27 5.68 -27 5 C-24.98177083 4.609375 -22.96354167 4.21875 -20.9453125 3.828125 C-18.80062921 3.18082209 -18.80062921 3.18082209 -18.140625 0.9765625 C-17.76421875 0.32429688 -17.3878125 -0.32796875 -17 -1 C-14.1015625 -1.6796875 -14.1015625 -1.6796875 -10.625 -1.875 C-9.48289062 -1.95492187 -8.34078125 -2.03484375 -7.1640625 -2.1171875 C-4.10083627 -2.00373468 -2.54939104 -1.62005637 0 0 Z " fill="#A3C6FE" transform="translate(78,114)"/>
<path d="M0 0 C1.98 0 3.96 0 6 0 C7.8684361 3.84678022 8.05395731 5.8895665 7 10 C7 11.32 7 12.64 7 14 C6.34 14.66 5.68 15.32 5 16 C4.01 15.67 3.02 15.34 2 15 C1.34 16.32 0.68 17.64 0 19 C-1.98 19 -3.96 19 -6 19 C-6.226875 18.360625 -6.45375 17.72125 -6.6875 17.0625 C-7.85250896 14.72806339 -7.85250896 14.72806339 -10.625 14.25 C-11.40875 14.1675 -12.1925 14.085 -13 14 C-14.2077558 10.37673261 -13.54311128 9.35853631 -12 6 C-12.66 5.67 -13.32 5.34 -14 5 C-14 4.34 -14 3.68 -14 3 C-11.36 3 -8.72 3 -6 3 C-6.165 4.11375 -6.33 5.2275 -6.5 6.375 C-7.0455458 9.72032033 -7.0455458 9.72032033 -7 12 C-4.36 12 -1.72 12 1 12 C1.29562367 6.67829506 1.29562367 6.67829506 -1 2 C-0.67 1.34 -0.34 0.68 0 0 Z " fill="#EAEBF2" transform="translate(135,60)"/>
<path d="M0 0 C1.98 0 3.96 0 6 0 C6.33 0.66 6.66 1.32 7 2 C9.8159849 2.46898963 9.8159849 2.46898963 13.0625 2.625 C14.71958984 2.73714844 14.71958984 2.73714844 16.41015625 2.8515625 C17.26480469 2.90054688 18.11945312 2.94953125 19 3 C19 3.66 19 4.32 19 5 C19.66 5.33 20.32 5.66 21 6 C20.525625 6.45375 20.05125 6.9075 19.5625 7.375 C17.90972192 8.93258204 17.90972192 8.93258204 17 11 C14.35409986 11.02684679 11.70846904 11.04676357 9.0625 11.0625 C7.93038086 11.07506836 7.93038086 11.07506836 6.77539062 11.08789062 C4.85005687 11.09652441 2.92464419 11.05224333 1 11 C0 10 0 10 -0.09765625 7.71484375 C-0.08605469 6.79832031 -0.07445313 5.88179688 -0.0625 4.9375 C-0.05347656 4.01839844 -0.04445313 3.09929687 -0.03515625 2.15234375 C-0.02355469 1.44207031 -0.01195313 0.73179688 0 0 Z " fill="#C5DCFE" transform="translate(27,102)"/>
<path d="M0 0 C1.32 0 2.64 0 4 0 C4 6.6 4 13.2 4 20 C6.31 20 8.62 20 11 20 C11.33 20.99 11.66 21.98 12 23 C3.19039858 24.30512614 -5.19039858 24.30512614 -14 23 C-13.505 21.515 -13.505 21.515 -13 20 C-8.71 20 -4.42 20 0 20 C0 13.4 0 6.8 0 0 Z " fill="#4C4CA1" transform="translate(115,63)"/>
<path d="M0 0 C0.99 0 1.98 0 3 0 C3 9.24 3 18.48 3 28 C19.83 28 36.66 28 54 28 C54 28.33 54 28.66 54 29 C52.82904785 29.02505615 51.6580957 29.0501123 50.45166016 29.07592773 C46.11674622 29.16993703 41.78199496 29.27017341 37.44726562 29.37231445 C35.56937458 29.41568789 33.69144348 29.45736118 31.81347656 29.49731445 C29.1177156 29.55495876 26.42215673 29.61866981 23.7265625 29.68359375 C22.88380768 29.70030624 22.04105286 29.71701874 21.17276001 29.73423767 C16.9513339 29.73236144 16.9513339 29.73236144 13 31 C10.98103136 31.0962762 8.9587571 31.12981825 6.9375 31.125 C5.31134766 31.12886719 5.31134766 31.12886719 3.65234375 31.1328125 C1 31 1 31 0 30 C-0.08783542 27.78144736 -0.10694609 25.56011504 -0.09765625 23.33984375 C-0.0962413 22.67537735 -0.09482635 22.01091095 -0.09336853 21.3263092 C-0.08775518 19.19666101 -0.07520054 17.06711661 -0.0625 14.9375 C-0.05748671 13.49674631 -0.05292351 12.05599097 -0.04882812 10.61523438 C-0.03778145 7.07678898 -0.02050792 3.53840461 0 0 Z " fill="#3C8EC7" transform="translate(41,49)"/>
<path d="M0 0 C4.7334375 0.061875 4.7334375 0.061875 9.5625 0.125 C9.5625 7.055 9.5625 13.985 9.5625 21.125 C6.283125 21.145625 3.00375 21.16625 -0.375 21.1875 C-1.41003662 21.196604 -2.44507324 21.20570801 -3.51147461 21.21508789 C-4.32108643 21.21758545 -5.13069824 21.22008301 -5.96484375 21.22265625 C-7.21382446 21.23051147 -7.21382446 21.23051147 -8.48803711 21.23852539 C-10.4375 21.125 -10.4375 21.125 -11.4375 20.125 C-11.50976502 18.27212498 -11.5213122 16.41666122 -11.5 14.5625 C-11.49097656 13.55058594 -11.48195313 12.53867187 -11.47265625 11.49609375 C-11.46105469 10.71363281 -11.44945312 9.93117188 -11.4375 9.125 C-13.7475 9.125 -16.0575 9.125 -18.4375 9.125 C-18.4375 8.795 -18.4375 8.465 -18.4375 8.125 C-16.4575 7.795 -14.4775 7.465 -12.4375 7.125 C-12.1075 5.805 -11.7775 4.485 -11.4375 3.125 C-13.4175 3.125 -15.3975 3.125 -17.4375 3.125 C-17.4375 2.795 -17.4375 2.465 -17.4375 2.125 C-11.52106192 0.06357987 -6.22803864 -0.11566577 0 0 Z M-9.4375 2.125 C-9.4375 7.735 -9.4375 13.345 -9.4375 19.125 C-3.8275 19.125 1.7825 19.125 7.5625 19.125 C7.5625 13.515 7.5625 7.905 7.5625 2.125 C1.9525 2.125 -3.6575 2.125 -9.4375 2.125 Z " fill="#35DAC7" transform="translate(24.4375,31.875)"/>
<path d="M0 0 C0.66 0.33 1.32 0.66 2 1 C2.02685938 3.14576637 2.04633088 5.29162645 2.0625 7.4375 C2.07410156 8.63246094 2.08570313 9.82742187 2.09765625 11.05859375 C2 14 2 14 1 15 C-1.53049402 15.07313567 -4.03304837 15.09247527 -6.5625 15.0625 C-7.62887695 15.05573242 -7.62887695 15.05573242 -8.71679688 15.04882812 C-10.47790013 15.03700864 -12.23896036 15.01907263 -14 15 C-14 13.02 -14 11.04 -14 9 C-13.44570312 8.74605469 -12.89140625 8.49210937 -12.3203125 8.23046875 C-11.59585938 7.88628906 -10.87140625 7.54210938 -10.125 7.1875 C-9.40570313 6.85105469 -8.68640625 6.51460937 -7.9453125 6.16796875 C-5.69457194 5.00532903 -5.69457194 5.00532903 -4 2 C-3.01 2 -2.02 2 -1 2 C-0.67 1.34 -0.34 0.68 0 0 Z " fill="#38DDC6" transform="translate(133,48)"/>
<path d="M0 0 C1.31871094 -0.01224609 2.63742188 -0.02449219 3.99609375 -0.03710938 C5.90068359 -0.04000977 5.90068359 -0.04000977 7.84375 -0.04296875 C9.00068359 -0.04707764 10.15761719 -0.05118652 11.34960938 -0.05541992 C14.47736509 0.18575467 16.680892 0.85423629 19.5 2.1875 C18.5 4.1875 18.5 4.1875 16.84521484 4.80200195 C11.99200924 5.59975457 7.04404055 5.37340312 2.13769531 5.37280273 C0.13863013 5.37498512 -1.86039532 5.39349143 -3.859375 5.41210938 C-5.13039063 5.41404297 -6.40140625 5.41597656 -7.7109375 5.41796875 C-8.86899902 5.42207764 -10.02706055 5.42618652 -11.22021484 5.43041992 C-14.61310954 5.17912245 -17.33332989 4.39923908 -20.5 3.1875 C-20.17 2.5275 -19.84 1.8675 -19.5 1.1875 C-13.23640183 -0.60566158 -6.45139424 0.00315317 0 0 Z " fill="#EAEBF2" transform="translate(114.5,125.8125)"/>
<path d="M0 0 C1.58206422 0.00574487 3.16410406 0.01876032 4.74609375 0.03515625 C7.53046875 0.05578125 10.31484375 0.07640625 13.18359375 0.09765625 C13.18359375 6.03765625 13.18359375 11.97765625 13.18359375 18.09765625 C10.39921875 18.11828125 7.61484375 18.13890625 4.74609375 18.16015625 C3.86767822 18.16926025 2.9892627 18.17836426 2.08422852 18.18774414 C0.11713401 18.19488716 -1.84994246 18.14797518 -3.81640625 18.09765625 C-5.63756628 16.27649622 -4.94875705 13.79093861 -4.953125 11.37109375 C-4.94925781 10.62085937 -4.94539063 9.870625 -4.94140625 9.09765625 C-4.94527344 8.34742187 -4.94914062 7.5971875 -4.953125 6.82421875 C-4.94103514 0.12643386 -4.94103514 0.12643386 0 0 Z M-1.19140625 3.72265625 C-3.29177895 6.79243173 -3.3493446 8.44322186 -2.81640625 12.09765625 C-1.89496705 14.52069993 -1.89496705 14.52069993 0.18359375 16.09765625 C3.5945429 17.26350816 3.5945429 17.26350816 7.18359375 17.09765625 C10.5152956 14.9934235 11.10111851 13.36933939 12.24609375 9.59765625 C12.55095197 6.01095241 12.55095197 6.01095241 10.12109375 3.66015625 C5.81838621 1.37148203 2.93104031 0.90203492 -1.19140625 3.72265625 Z " fill="#3ADBCA" transform="translate(109.81640625,95.90234375)"/>
<path d="M0 0 C2.31 0 4.62 0 7 0 C7 4.62 7 9.24 7 14 C4.03 13.505 4.03 13.505 1 13 C0.67 12.01 0.34 11.02 0 10 C-2.64 10 -5.28 10 -8 10 C-8 8.02 -8 6.04 -8 4 C-5.36 4 -2.72 4 0 4 C0 2.68 0 1.36 0 0 Z " fill="#5832FF" transform="translate(34,49)"/>
<path d="M0 0 C1.32 0 2.64 0 4 0 C4.33 0.66 4.66 1.32 5 2 C5.99 2.33 6.98 2.66 8 3 C8.125 9.75 8.125 9.75 7 12 C6.01 12 5.02 12 4 12 C3.67 12.66 3.34 13.32 3 14 C1.68 14 0.36 14 -1 14 C-1 13.01 -1 12.02 -1 11 C-2.32 10.67 -3.64 10.34 -5 10 C-5 7.69 -5 5.38 -5 3 C-3.35 2.67 -1.7 2.34 0 2 C0 1.34 0 0.68 0 0 Z " fill="#E1F5F9" transform="translate(22,63)"/>
<path d="M0 0 C2.5625 0.3125 2.5625 0.3125 4.375 1.6875 C5.5625 3.3125 5.5625 3.3125 5.5625 5.3125 C7.2125 5.3125 8.8625 5.3125 10.5625 5.3125 C10.8925 6.3025 11.2225 7.2925 11.5625 8.3125 C4.3025 8.3125 -2.9575 8.3125 -10.4375 8.3125 C-10.4375 7.3225 -10.4375 6.3325 -10.4375 5.3125 C-9.48875 4.85875 -8.54 4.405 -7.5625 3.9375 C-4.64161161 2.41863804 -3.19529058 0.40965264 0 0 Z " fill="#F8FDFD" transform="translate(121.4375,37.6875)"/>
<path d="M0 0 C5.28 0 10.56 0 16 0 C16 2.31 16 4.62 16 7 C10.72 7 5.44 7 0 7 C0 4.69 0 2.38 0 0 Z " fill="#404591" transform="translate(16,43)"/>
<path d="M0 0 C0.66 0 1.32 0 2 0 C1.67 1.98 1.34 3.96 1 6 C1.66 6 2.32 6 3 6 C3 4.35 3 2.7 3 1 C3.66 1 4.32 1 5 1 C6.6875 2.8125 6.6875 2.8125 8 5 C7.67 5.99 7.34 6.98 7 8 C6.34 8 5.68 8 5 8 C5 8.66 5 9.32 5 10 C4.34 10 3.68 10 3 10 C3 9.01 3 8.02 3 7 C2.01 7 1.02 7 0 7 C-0.33 8.65 -0.66 10.3 -1 12 C-1.66 12 -2.32 12 -3 12 C-3 11.34 -3 10.68 -3 10 C-3.598125 9.9175 -4.19625 9.835 -4.8125 9.75 C-7.5966296 8.79544128 -8.43311142 7.42867729 -10 5 C-8.71034824 3.62437146 -7.37310707 2.29233607 -6 1 C-5.34 1 -4.68 1 -4 1 C-4 1.99 -4 2.98 -4 4 C-3.01 4 -2.02 4 -1 4 C-0.67 2.68 -0.34 1.36 0 0 Z " fill="#A2E4EB" transform="translate(47,90)"/>
<path d="M0 0 C1.32 0 2.64 0 4 0 C4 5.61 4 11.22 4 17 C4.99 17 5.98 17 7 17 C7 18.65 7 20.3 7 22 C4.69 22 2.38 22 0 22 C0 14.74 0 7.48 0 0 Z " fill="#424690" transform="translate(26,80)"/>
<path d="M0 0 C1.30517578 0.02030273 1.30517578 0.02030273 2.63671875 0.04101562 C4.75808627 0.07598322 6.87912974 0.1297747 9 0.1875 C6.65085711 3.71121434 5.9208589 3.88054703 2 5.1875 C0.51876453 5.2681622 -0.96582204 5.29511193 -2.44921875 5.28515625 C-3.29677734 5.28193359 -4.14433594 5.27871094 -5.01757812 5.27539062 C-5.89865234 5.26701172 -6.77972656 5.25863281 -7.6875 5.25 C-8.58017578 5.24548828 -9.47285156 5.24097656 -10.39257812 5.23632812 C-12.59511987 5.22454983 -14.79752599 5.20810164 -17 5.1875 C-17.33 4.5275 -17.66 3.8675 -18 3.1875 C-11.75047564 0.43163336 -6.78716692 -0.20330223 0 0 Z " fill="#655CFE" transform="translate(57,80.8125)"/>
<path d="M0 0 C2.64 0 5.28 0 8 0 C8.29296875 6.0546875 8.29296875 6.0546875 8 8 C4.47320901 10.35119399 2.97120515 10.21443452 -1.1875 10.125 C-2.27417969 10.10695313 -3.36085938 10.08890625 -4.48046875 10.0703125 C-5.72763672 10.03550781 -5.72763672 10.03550781 -7 10 C-5.35 8.35 -3.7 6.7 -2 5 C-2.66 4.67 -3.32 4.34 -4 4 C-2.68 3.67 -1.36 3.34 0 3 C-0.66 2.67 -1.32 2.34 -2 2 C-1.34 2 -0.68 2 0 2 C0 1.34 0 0.68 0 0 Z " fill="#6459FE" transform="translate(119,86)"/>
<path d="M0 0 C2.31 0 4.62 0 7 0 C7.05395478 1.62463842 7.09277195 3.24978541 7.125 4.875 C7.14820312 5.77992187 7.17140625 6.68484375 7.1953125 7.6171875 C7 10 7 10 5 12 C4.01 12.495 4.01 12.495 3 13 C2.34786708 15.02463255 2.34786708 15.02463255 2 17 C1.34 17 0.68 17 0 17 C0 11.39 0 5.78 0 0 Z " fill="#6B74FD" transform="translate(98,54)"/>
<path d="M0 0 C6.27 0 12.54 0 19 0 C19.33 1.32 19.66 2.64 20 4 C17.29283758 4.90238747 15.76223232 5.11851302 12.98828125 5.09765625 C11.85229492 5.09282227 11.85229492 5.09282227 10.69335938 5.08789062 C9.90767578 5.07951172 9.12199219 5.07113281 8.3125 5.0625 C7.51521484 5.05798828 6.71792969 5.05347656 5.89648438 5.04882812 C3.93095743 5.0370585 1.96546915 5.01912348 0 5 C0 3.35 0 1.7 0 0 Z " fill="#34AEC5" transform="translate(98,49)"/>
<path d="M0 0 C2.64 0 5.28 0 8 0 C8 4.95 8 9.9 8 15 C6.35 15.33 4.7 15.66 3 16 C3.33 13.03 3.66 10.06 4 7 C2.68 6.67 1.36 6.34 0 6 C0 4.02 0 2.04 0 0 Z " fill="#3DCAD3" transform="translate(26,59)"/>
<path d="M0 0 C1.66611905 -0.042721 3.33382885 -0.04063832 5 0 C6.87077602 1.87077602 6.30246057 4.80430971 6.375 7.3125 C6.42398438 8.46363281 6.47296875 9.61476563 6.5234375 10.80078125 C6 14 6 14 3.4765625 16.41796875 C2.65929688 16.94003906 1.84203125 17.46210937 1 18 C0 17 0 17 -0.09765625 13.18359375 C-0.09098089 11.60153318 -0.07901875 10.01948841 -0.0625 8.4375 C-0.05798828 7.63119141 -0.05347656 6.82488281 -0.04882812 5.99414062 C-0.03700518 3.99606244 -0.01906914 1.99802217 0 0 Z " fill="#5C3EFF" transform="translate(35,62)"/>
<path d="M0 0 C0.98613281 0.13921875 1.97226563 0.2784375 2.98828125 0.421875 C4.47908203 0.61523438 4.47908203 0.61523438 6 0.8125 C6.75925781 0.93109375 7.51851562 1.0496875 8.30078125 1.171875 C4.951088 7.07371549 4.951088 7.07371549 2.30078125 9.171875 C1.31078125 9.171875 0.32078125 9.171875 -0.69921875 9.171875 C-1.02921875 9.831875 -1.35921875 10.491875 -1.69921875 11.171875 C-3.01921875 11.171875 -4.33921875 11.171875 -5.69921875 11.171875 C-6.06230286 4.87841706 -6.06230286 4.87841706 -4.54296875 1.921875 C-2.69921875 0.171875 -2.69921875 0.171875 0 0 Z " fill="#6C73FE" transform="translate(107.69921875,112.828125)"/>
<path d="M0 0 C0.99 0.33 1.98 0.66 3 1 C3 4.3 3 7.6 3 11 C-0.96 11 -4.92 11 -9 11 C-9 10.01 -9 9.02 -9 8 C-6.69 7.34 -4.38 6.68 -2 6 C-2 5.34 -2 4.68 -2 4 C-4.64 3.67 -7.28 3.34 -10 3 C-10 2.67 -10 2.34 -10 2 C-6.7 1.67 -3.4 1.34 0 1 C0 0.67 0 0.34 0 0 Z " fill="#768FFE" transform="translate(112,71)"/>
<path d="M0 0 C1.32 0 2.64 0 4 0 C4 6.6 4 13.2 4 20 C2.68 19.67 1.36 19.34 0 19 C0 12.73 0 6.46 0 0 Z " fill="#3E3E8B" transform="translate(115,63)"/>
<path d="M0 0 C1.67542976 0.28604898 3.34385343 0.61781233 5 1 C6.00619398 5.3266341 6.36822864 8.12471677 4 12 C1.4140625 13.140625 1.4140625 13.140625 -1 14 C-1.02685938 11.85423363 -1.04633088 9.70837355 -1.0625 7.5625 C-1.07410156 6.36753906 -1.08570312 5.17257813 -1.09765625 3.94140625 C-1 1 -1 1 0 0 Z " fill="#32C6E0" transform="translate(106,33)"/>
<path d="M0 0 C11.55 0 23.1 0 35 0 C35.495 0.99 35.495 0.99 36 2 C24.78 2 13.56 2 2 2 C2 2.66 2 3.32 2 4 C1.01 4 0.02 4 -1 4 C-0.67 2.68 -0.34 1.36 0 0 Z " fill="#34CFD7" transform="translate(42,45)"/>
<path d="M0 0 C8.58 0 17.16 0 26 0 C25.67 0.99 25.34 1.98 25 3 C17.08 3 9.16 3 1 3 C0.67 2.01 0.34 1.02 0 0 Z " fill="#4C4CA0" transform="translate(101,124)"/>
<path d="M0 0 C1.58206057 0.00667536 3.16410534 0.0186375 4.74609375 0.03515625 C5.55240234 0.03966797 6.35871094 0.04417969 7.18945312 0.04882812 C9.18753131 0.06065107 11.18557158 0.07858711 13.18359375 0.09765625 C12.52359375 1.41765625 11.86359375 2.73765625 11.18359375 4.09765625 C10.49652344 3.99066406 9.80945313 3.88367188 9.1015625 3.7734375 C8.20050781 3.65355469 7.29945312 3.53367187 6.37109375 3.41015625 C5.47777344 3.28253906 4.58445312 3.15492187 3.6640625 3.0234375 C1.16188117 2.86797807 1.16188117 2.86797807 -0.56640625 4.34765625 C-2.47559699 7.02052329 -3.04198267 9.94039089 -3.81640625 13.09765625 C-4.14640625 13.09765625 -4.47640625 13.09765625 -4.81640625 13.09765625 C-4.84327178 11.11856227 -4.86274 9.13936654 -4.87890625 7.16015625 C-4.89050781 6.05800781 -4.90210937 4.95585938 -4.9140625 3.8203125 C-4.76201869 -0.41866885 -4.42989555 0.11335454 0 0 Z " fill="#48BFF2" transform="translate(109.81640625,95.90234375)"/>
<path d="M0 0 C2.31 0 4.62 0 7 0 C7.33 0.99 7.66 1.98 8 3 C10.97 3.495 10.97 3.495 14 4 C14 4.33 14 4.66 14 5 C13.113125 5.268125 12.22625 5.53625 11.3125 5.8125 C8.2285477 6.9180678 5.7801557 8.30101596 3 10 C2.34 10 1.68 10 1 10 C0.67 6.7 0.34 3.4 0 0 Z " fill="#62D2E1" transform="translate(110,33)"/>
<path d="M0 0 C0.33 0.66 0.66 1.32 1 2 C-0.65 2.33 -2.3 2.66 -4 3 C-3.814375 3.78375 -3.62875 4.5675 -3.4375 5.375 C-3 8 -3 8 -4 10 C-5.5 8.625 -5.5 8.625 -7 7 C-7 6.34 -7 5.68 -7 5 C-7.66 5 -8.32 5 -9 5 C-9 6.65 -9 8.3 -9 10 C-9.66 10 -10.32 10 -11 10 C-10.67 8.02 -10.34 6.04 -10 4 C-10.99 4.33 -11.98 4.66 -13 5 C-12.67 3.68 -12.34 2.36 -12 1 C-8.0186217 -0.3271261 -4.14954773 -0.06915913 0 0 Z " fill="#45C1DB" transform="translate(59,86)"/>
<path d="M0 0 C0.66 0.33 1.32 0.66 2 1 C2 6.28 2 11.56 2 17 C1.34 17 0.68 17 0 17 C-0.33 17.66 -0.66 18.32 -1 19 C-2.97299514 17.02700486 -2.18499989 13.31511482 -2.1875 10.625 C-2.19974609 9.93921875 -2.21199219 9.2534375 -2.22460938 8.546875 C-2.23552331 4.80703203 -2.1266842 3.1900263 0 0 Z " fill="#707EFE" transform="translate(125,93)"/>
<path d="M0 0 C2.31 0 4.62 0 7 0 C7 1.65 7 3.3 7 5 C3.37 5 -0.26 5 -4 5 C-4 6.65 -4 8.3 -4 10 C-5.32 10 -6.64 10 -8 10 C-8 8.02 -8 6.04 -8 4 C-5.36 4 -2.72 4 0 4 C0 2.68 0 1.36 0 0 Z " fill="#3C3F8B" transform="translate(34,49)"/>
<path d="M0 0 C1.24716797 0.00322266 2.49433594 0.00644531 3.77929688 0.00976562 C5.07287109 0.01814453 6.36644531 0.02652344 7.69921875 0.03515625 C9.66858398 0.04192383 9.66858398 0.04192383 11.67773438 0.04882812 C14.91410885 0.06059676 18.15039053 0.07703865 21.38671875 0.09765625 C21.05671875 0.75765625 20.72671875 1.41765625 20.38671875 2.09765625 C19.73074707 2.11747559 19.07477539 2.13729492 18.39892578 2.15771484 C15.43610806 2.25278132 12.47401343 2.36253377 9.51171875 2.47265625 C7.96291016 2.5190625 7.96291016 2.5190625 6.3828125 2.56640625 C4.90361328 2.62441406 4.90361328 2.62441406 3.39453125 2.68359375 C2.4833252 2.71501465 1.57211914 2.74643555 0.63330078 2.77880859 C-1.81259311 2.89648136 -1.81259311 2.89648136 -3.61328125 5.09765625 C-6.34197532 5.06478042 -8.90994305 4.53367854 -11.61328125 4.09765625 C-11.61328125 3.10765625 -11.61328125 2.11765625 -11.61328125 1.09765625 C-7.68039761 0.16677716 -4.03673962 -0.0184326 0 0 Z " fill="#D9D9E8" transform="translate(106.61328125,125.90234375)"/>
<path d="M0 0 C0.33 0.66 0.66 1.32 1 2 C8.59 1.67 16.18 1.34 24 1 C24 1.66 24 2.32 24 3 C23.14450562 3.03758423 23.14450562 3.03758423 22.27172852 3.07592773 C19.70173843 3.19156549 17.13214473 3.31443624 14.5625 3.4375 C13.66466797 3.47681641 12.76683594 3.51613281 11.84179688 3.55664062 C10.98779297 3.59853516 10.13378906 3.64042969 9.25390625 3.68359375 C8.46314697 3.72025146 7.6723877 3.75690918 6.85766602 3.79467773 C4.98598559 3.80563257 4.98598559 3.80563257 4 5 C1.30345146 5.07319621 -1.36691458 5.09242537 -4.0625 5.0625 C-4.82111328 5.05798828 -5.57972656 5.05347656 -6.36132812 5.04882812 C-8.24091871 5.0370068 -10.12046899 5.01907078 -12 5 C-12 4.34 -12 3.68 -12 3 C-10.948125 3.061875 -9.89625 3.12375 -8.8125 3.1875 C-4.84183507 2.9922214 -3.15803031 2.29674932 0 0 Z " fill="#8EDAE4" transform="translate(110,44)"/>
<path d="M0 0 C2.64 0 5.28 0 8 0 C8 1.98 8 3.96 8 6 C3.71 6 -0.58 6 -5 6 C-4.34 5.34 -3.68 4.68 -3 4 C-2.01 4 -1.02 4 0 4 C0 2.68 0 1.36 0 0 Z " fill="#35D7C5" transform="translate(26,74)"/>
<path d="M0 0 C2.31 0 4.62 0 7 0 C7.33 0.66 7.66 1.32 8 2 C7.0625 4.625 7.0625 4.625 6 7 C5.34 6.67 4.68 6.34 4 6 C3.67 6.99 3.34 7.98 3 9 C2.01 9 1.02 9 0 9 C0 6.03 0 3.06 0 0 Z " fill="#5935FF" transform="translate(102,86)"/>
<path d="M0 0 C3.3 0 6.6 0 10 0 C10 0.66 10 1.32 10 2 C8.7934375 2.37125 8.7934375 2.37125 7.5625 2.75 C4.828919 3.72238859 4.828919 3.72238859 4.1875 6.125 C4.125625 6.74375 4.06375 7.3625 4 8 C2.68 8.33 1.36 8.66 0 9 C0 6.03 0 3.06 0 0 Z " fill="#3DBCDD" transform="translate(105,54)"/>
<path d="M0 0 C1.65 0 3.3 0 5 0 C5 0.99 5 1.98 5 3 C6.32 3 7.64 3 9 3 C9.33 2.34 9.66 1.68 10 1 C10 1.99 10 2.98 10 4 C5.50343896 6.24828052 1.92127034 6.16682272 -3 6 C-2.01 4.02 -1.02 2.04 0 0 Z " fill="#32D1D3" transform="translate(16,74)"/>
<path d="M0 0 C6.6 0 13.2 0 20 0 C20.33 1.32 20.66 2.64 21 4 C20.01 4 19.02 4 18 4 C18 3.34 18 2.68 18 2 C12.39 2 6.78 2 1 2 C0.67 1.34 0.34 0.68 0 0 Z " fill="#34D4CF" transform="translate(77,45)"/>
<path d="M0 0 C1.23556641 0.01740234 1.23556641 0.01740234 2.49609375 0.03515625 C3.32238281 0.04417969 4.14867187 0.05320312 5 0.0625 C5.63808594 0.07410156 6.27617188 0.08570312 6.93359375 0.09765625 C6.93359375 0.75765625 6.93359375 1.41765625 6.93359375 2.09765625 C5.94359375 2.09765625 4.95359375 2.09765625 3.93359375 2.09765625 C3.93359375 2.75765625 3.93359375 3.41765625 3.93359375 4.09765625 C1.61502458 5.64336903 -0.57279054 6.89384177 -3.06640625 8.09765625 C-3.10882348 5.7647085 -3.10733562 3.43063058 -3.06640625 1.09765625 C-2.06640625 0.09765625 -2.06640625 0.09765625 0 0 Z " fill="#4497EB" transform="translate(36.06640625,85.90234375)"/>
<path d="M0 0 C3.0625 0.25 3.0625 0.25 6 1 C6.33 1.66 6.66 2.32 7 3 C4.8125 5.0625 4.8125 5.0625 2 7 C-0.8125 6.75 -0.8125 6.75 -3 6 C-2.42655063 3.13275314 -2.1385485 2.1385485 0 0 Z " fill="#40CEE6" transform="translate(112,99)"/>
<path d="M0 0 C0 0.99 0 1.98 0 3 C0.66 3 1.32 3 2 3 C1.67 4.98 1.34 6.96 1 9 C-1.88575819 8.60196439 -2.82189513 8.20990931 -4.75 5.9375 C-5.1625 5.298125 -5.575 4.65875 -6 4 C-2.25 0 -2.25 0 0 0 Z " fill="#4FBEDB" transform="translate(43,91)"/>
<path d="M0 0 C1.98 0 3.96 0 6 0 C6 2.97 6 5.94 6 9 C4.35 9 2.7 9 1 9 C1.020625 7.88625 1.04125 6.7725 1.0625 5.625 C1.26380718 2.16784079 1.26380718 2.16784079 0 0 Z " fill="#38CDD2" transform="translate(54,88)"/>
<path d="M0 0 C3.63 0 7.26 0 11 0 C11 1.32 11 2.64 11 4 C7.04 4 3.08 4 -1 4 C-0.67 2.68 -0.34 1.36 0 0 Z " fill="#829AFE" transform="translate(101,67)"/>
<path d="M0 0 C3.36704285 -0.2295711 5.41370268 -0.33943529 8.375 1.375 C8.91125 1.91125 9.4475 2.4475 10 3 C10 3.66 10 4.32 10 5 C6.7 5 3.4 5 0 5 C0 3.35 0 1.7 0 0 Z " fill="#34ABC5" transform="translate(33,97)"/>
<path d="M0 0 C0.33 0.66 0.66 1.32 1 2 C1.99 2.33 2.98 2.66 4 3 C2 5 2 5 -0.6015625 5.1953125 C-1.59929688 5.17210938 -2.59703125 5.14890625 -3.625 5.125 C-5.12933594 5.09792969 -5.12933594 5.09792969 -6.6640625 5.0703125 C-7.43492188 5.04710938 -8.20578125 5.02390625 -9 5 C-9.33 4.01 -9.66 3.02 -10 2 C-6.7 2 -3.4 2 0 2 C0 1.34 0 0.68 0 0 Z " fill="#4CD3D8" transform="translate(43,100)"/>
<path d="M0 0 C0 0.66 0 1.32 0 2 C-5.94 2 -11.88 2 -18 2 C-18.33 1.34 -18.66 0.68 -19 0 C-12.5510809 -1.31909709 -6.51244208 -0.69508823 0 0 Z " fill="#9BC1FE" transform="translate(74,119)"/>
<path d="M0 0 C0 0.33 0 0.66 0 1 C-1.98 1 -3.96 1 -6 1 C-6 3.64 -6 6.28 -6 9 C-8.97 8.67 -11.94 8.34 -15 8 C-15 7.67 -15 7.34 -15 7 C-13.02 6.67 -11.04 6.34 -9 6 C-8.67 4.68 -8.34 3.36 -8 2 C-9.98 2 -11.96 2 -14 2 C-14 1.67 -14 1.34 -14 1 C-9.32798795 -0.20568053 -4.78503708 -0.09382426 0 0 Z " fill="#8BD9E8" transform="translate(21,33)"/>
<path d="M0 0 C0.36190476 5.42857143 0.36190476 5.42857143 -1.1875 7.875 C-3.56036279 9.34781139 -5.25913944 9.22223194 -8 9 C-8 8.34 -8 7.68 -8 7 C-7.34 7 -6.68 7 -6 7 C-5.731875 6.401875 -5.46375 5.80375 -5.1875 5.1875 C-2.37142857 0 -2.37142857 0 0 0 Z " fill="#43D9DA" transform="translate(120,102)"/>
<path d="M0 0 C0.66 0 1.32 0 2 0 C2 1.32 2 2.64 2 4 C5.96 4 9.92 4 14 4 C12 6 12 6 9.1796875 6.1953125 C8.08914062 6.17210938 6.99859375 6.14890625 5.875 6.125 C4.77929688 6.10695313 3.68359375 6.08890625 2.5546875 6.0703125 C1.71164063 6.04710938 0.86859375 6.02390625 0 6 C-0.38218767 4.34385343 -0.71395102 2.67542976 -1 1 C-0.67 0.67 -0.34 0.34 0 0 Z " fill="#3DB1DF" transform="translate(42,74)"/>
<path d="M0 0 C0.66 0 1.32 0 2 0 C2 2.97 2 5.94 2 9 C4.97 9 7.94 9 11 9 C10.67 9.66 10.34 10.32 10 11 C8.52093108 11.02689216 7.04172517 11.04634621 5.5625 11.0625 C4.32693359 11.07990234 4.32693359 11.07990234 3.06640625 11.09765625 C1 11 1 11 0 10 C-0.07205511 8.31391034 -0.08386068 6.62499341 -0.0625 4.9375 C-0.05347656 4.01839844 -0.04445313 3.09929688 -0.03515625 2.15234375 C-0.02355469 1.44207031 -0.01195312 0.73179688 0 0 Z " fill="#32CFD4" transform="translate(13,42)"/>
<path d="M0 0 C5.28 0 10.56 0 16 0 C16 0.66 16 1.32 16 2 C11.38 2 6.76 2 2 2 C2 2.66 2 3.32 2 4 C1.01 4 0.02 4 -1 4 C-0.67 2.68 -0.34 1.36 0 0 Z " fill="#32C5DD" transform="translate(42,45)"/>
<path d="M0 0 C0.33 0.66 0.66 1.32 1 2 C1.66 2.33 2.32 2.66 3 3 C3 3.66 3 4.32 3 5 C3.33 5.33 3.66 5.66 4 6 C4.04080783 7.99958364 4.04254356 10.00045254 4 12 C2.68 12 1.36 12 0 12 C0 8.04 0 4.08 0 0 Z " fill="#34C5C4" transform="translate(115,51)"/>
<path d="M0 0 C0.99 0 1.98 0 3 0 C3.08121924 1.60332791 3.13929134 3.20784026 3.1875 4.8125 C3.23970703 6.15248047 3.23970703 6.15248047 3.29296875 7.51953125 C3 10 3 10 0 13 C0 8.71 0 4.42 0 0 Z " fill="#3B95D8" transform="translate(41,49)"/>
<path d="M0 0 C2.31 0 4.62 0 7 0 C7 1.65 7 3.3 7 5 C4.69 5 2.38 5 0 5 C0 3.35 0 1.7 0 0 Z " fill="#3C3E8A" transform="translate(98,49)"/>
<path d="M0 0 C6.6 0 13.2 0 20 0 C20 0.99 20 1.98 20 3 C13.4 2.34 6.8 1.68 0 1 C0 0.67 0 0.34 0 0 Z " fill="#40D1D8" transform="translate(14,32)"/>
<path d="M0 0 C0.66 0.33 1.32 0.66 2 1 C0.38405168 3.04119788 -1.2856382 5.04072937 -3 7 C-3.66 7 -4.32 7 -5 7 C-5.33 7.66 -5.66 8.32 -6 9 C-7.5625 7.1875 -7.5625 7.1875 -9 5 C-8.67 4.01 -8.34 3.02 -8 2 C-6.8553125 2.3403125 -6.8553125 2.3403125 -5.6875 2.6875 C-4.800625 2.790625 -3.91375 2.89375 -3 3 C-1.1645201 1.66621425 -1.1645201 1.66621425 0 0 Z " fill="#92E1ED" transform="translate(117,102)"/>
<path d="M0 0 C0.66 0.33 1.32 0.66 2 1 C2.25 4.3125 2.25 4.3125 2 8 C0 9.9375 0 9.9375 -2 11 C-2.25 3.375 -2.25 3.375 0 0 Z " fill="#6B70FE" transform="translate(125,93)"/>
<path d="M0 0 C1.32 0 2.64 0 4 0 C4.33 0.66 4.66 1.32 5 2 C5.99 2.33 6.98 2.66 8 3 C7.625 4.9375 7.625 4.9375 7 7 C6.01 7.495 6.01 7.495 5 8 C5 7.01 5 6.02 5 5 C3.35 4.67 1.7 4.34 0 4 C0 2.68 0 1.36 0 0 Z " fill="#E7F7FA" transform="translate(22,63)"/>
<path d="M0 0 C0.66 0 1.32 0 2 0 C2 1.98 2 3.96 2 6 C2.66 6.33 3.32 6.66 4 7 C3.34 7.66 2.68 8.32 2 9 C-0.0625 8.75 -0.0625 8.75 -2 8 C-2.33 7.34 -2.66 6.68 -3 6 C-2.34 6 -1.68 6 -1 6 C-1.0309375 4.7934375 -1.0309375 4.7934375 -1.0625 3.5625 C-1 1 -1 1 0 0 Z " fill="#E3F7F8" transform="translate(119,48)"/>
<path d="M0 0 C0.99 0 1.98 0 3 0 C3 3.3 3 6.6 3 10 C2.01 10.33 1.02 10.66 0 11 C0 7.37 0 3.74 0 0 Z " fill="#35CCC9" transform="translate(95,49)"/>
<path d="M0 0 C0.66 0.33 1.32 0.66 2 1 C2 1.66 2 2.32 2 3 C2.99 3 3.98 3 5 3 C5.33 2.34 5.66 1.68 6 1 C6.99 1.33 7.98 1.66 9 2 C9 3.65 9 5.3 9 7 C1.36923077 5.52307692 1.36923077 5.52307692 -0.5 2.875 C-0.665 2.25625 -0.83 1.6375 -1 1 C-0.67 0.67 -0.34 0.34 0 0 Z " fill="#4AD7D4" transform="translate(126,38)"/>
<path d="M0 0 C0.66 0 1.32 0 2 0 C1.01 3.96 0.02 7.92 -1 12 C-1.66 12 -2.32 12 -3 12 C-2.14285714 3.42857143 -2.14285714 3.42857143 0 0 Z " fill="#E1F5F8" transform="translate(47,90)"/>
<path d="M0 0 C0.598125 0.61875 1.19625 1.2375 1.8125 1.875 C4.00811144 4.13676954 4.00811144 4.13676954 7 6 C4.69 6.33 2.38 6.66 0 7 C-1.125 2.25 -1.125 2.25 0 0 Z " fill="#43D1E2" transform="translate(106,107)"/>
<path d="M0 0 C1.98 0.495 1.98 0.495 4 1 C3.67 2.65 3.34 4.3 3 6 C1.68 5.67 0.36 5.34 -1 5 C-0.67 3.35 -0.34 1.7 0 0 Z " fill="#3BCCD8" transform="translate(22,67)"/>
<path d="M0 0 C2.31 0 4.62 0 7 0 C6.67 1.32 6.34 2.64 6 4 C4.68 4.33 3.36 4.66 2 5 C1.34 3.35 0.68 1.7 0 0 Z " fill="#73D5E4" transform="translate(110,33)"/>
<path d="M0 0 C1.32 0 2.64 0 4 0 C4 1.98 4 3.96 4 6 C3.01 6.33 2.02 6.66 1 7 C0 6 0 6 -0.0625 2.9375 C-0.041875 1.968125 -0.02125 0.99875 0 0 Z " fill="#34AEC5" transform="translate(26,59)"/>
<path d="M0 0 C2.05078125 0.03255208 4.1015625 0.06510417 6.15234375 0.09765625 C5.82234375 2.07765625 5.49234375 4.05765625 5.15234375 6.09765625 C5.81234375 6.09765625 6.47234375 6.09765625 7.15234375 6.09765625 C7.15234375 7.08765625 7.15234375 8.07765625 7.15234375 9.09765625 C5.15234375 8.09765625 5.15234375 8.09765625 4.15234375 7.09765625 C4.11153592 5.09807261 4.10980019 3.09720371 4.15234375 1.09765625 C2.17234375 2.08765625 2.17234375 2.08765625 0.15234375 3.09765625 C-0.83765625 2.43765625 -1.82765625 1.77765625 -2.84765625 1.09765625 C-1.84765625 0.09765625 -1.84765625 0.09765625 0 0 Z " fill="#4FD5D8" transform="translate(116.84765625,46.90234375)"/>
<path d="M0 0 C0.99 0.495 0.99 0.495 2 1 C4.09821215 0.60061233 4.09821215 0.60061233 6 0 C5.67 1.65 5.34 3.3 5 5 C3.35 4.67 1.7 4.34 0 4 C0 2.68 0 1.36 0 0 Z " fill="#36DFC2" transform="translate(54,100)"/>
<path d="M0 0 C1.670625 0.061875 1.670625 0.061875 3.375 0.125 C2.715 1.445 2.055 2.765 1.375 4.125 C-0.935 3.465 -3.245 2.805 -5.625 2.125 C-3.625 0.125 -3.625 0.125 0 0 Z " fill="#47C9E8" transform="translate(119.625,95.875)"/>
<path d="M0 0 C0.33 0 0.66 0 1 0 C1 2.31 1 4.62 1 7 C-1.31 7 -3.62 7 -6 7 C-5.071875 6.1028125 -5.071875 6.1028125 -4.125 5.1875 C-1.86323046 2.99188856 -1.86323046 2.99188856 0 0 Z " fill="#7A9BFE" transform="translate(126,117)"/>
<path d="M0 0 C0.99 0.33 1.98 0.66 3 1 C2.34 2.32 1.68 3.64 1 5 C0.34 4.67 -0.32 4.34 -1 4 C-2.53668865 3.77532169 -4.07968054 3.59203195 -5.625 3.4375 C-6.44226563 3.35371094 -7.25953125 3.26992187 -8.1015625 3.18359375 C-8.72804688 3.12300781 -9.35453125 3.06242187 -10 3 C-10 2.67 -10 2.34 -10 2 C-6.7 1.67 -3.4 1.34 0 1 C0 0.67 0 0.34 0 0 Z " fill="#849EFE" transform="translate(112,71)"/>
<path d="M0 0 C1.32 0 2.64 0 4 0 C3.67 1.98 3.34 3.96 3 6 C2.01 6 1.02 6 0 6 C0 4.02 0 2.04 0 0 Z " fill="#3DB3DF" transform="translate(30,59)"/>
<path d="M0 0 C2.64 0 5.28 0 8 0 C8.33 1.32 8.66 2.64 9 4 C8.01 4 7.02 4 6 4 C6 3.34 6 2.68 6 2 C4.35 2 2.7 2 1 2 C0.67 1.34 0.34 0.68 0 0 Z " fill="#55D9D4" transform="translate(89,45)"/>
<path d="M0 0 C3.3 0 6.6 0 10 0 C7 2 7 2 3 2 C2.67 2.66 2.34 3.32 2 4 C1.01 4 0.02 4 -1 4 C-0.67 2.68 -0.34 1.36 0 0 Z " fill="#46AFF5" transform="translate(106,96)"/>
<path d="M0 0 C0.66 0 1.32 0 2 0 C2 2.64 2 5.28 2 8 C1.01 8.33 0.02 8.66 -1 9 C-1.07427838 5.65747276 -1.06546953 3.1964086 0 0 Z " fill="#665FFF" transform="translate(103,108)"/>
<path d="M0 0 C0.33 0 0.66 0 1 0 C1.08086147 1.79093191 1.13912702 3.58289628 1.1875 5.375 C1.22230469 6.37273437 1.25710937 7.37046875 1.29296875 8.3984375 C1.19628906 9.25695312 1.09960938 10.11546875 1 11 C0.01 11.66 -0.98 12.32 -2 13 C-1.9278125 12.38511719 -1.855625 11.77023438 -1.78125 11.13671875 C-1.64203125 9.92435547 -1.64203125 9.92435547 -1.5 8.6875 C-1.4071875 7.88699219 -1.314375 7.08648437 -1.21875 6.26171875 C-0.95186537 3.88103445 -0.95186537 3.88103445 -1 1 C-0.67 0.67 -0.34 0.34 0 0 Z " fill="#41D9D4" transform="translate(122,98)"/>
<path d="M0 0 C1.32 1.32 2.64 2.64 4 4 C3.67 4.99 3.34 5.98 3 7 C1.68 7 0.36 7 -1 7 C-0.67 4.69 -0.34 2.38 0 0 Z " fill="#D9F2F6" transform="translate(26,68)"/>
<path d="M0 0 C0.99 0 1.98 0 3 0 C3.33 1.32 3.66 2.64 4 4 C2.35 4.33 0.7 4.66 -1 5 C-0.67 3.35 -0.34 1.7 0 0 Z " fill="#35C2C5" transform="translate(47,97)"/>
<path d="M0 0 C0 0.99 0 1.98 0 3 C0.3062434 4.33981486 0.63451555 5.67511887 1 7 C-0.32 6.34 -1.64 5.68 -3 5 C-3 4.01 -3 3.02 -3 2 C-2.01 1.34 -1.02 0.68 0 0 Z " fill="#E8F5F9" transform="translate(41,92)"/>
<path d="M0 0 C0.33 0.66 0.66 1.32 1 2 C1.66 2.33 2.32 2.66 3 3 C3 7 3 7 2 9 C1.34 9 0.68 9 0 9 C0 6.03 0 3.06 0 0 Z " fill="#3ABEC8" transform="translate(115,51)"/>
<path d="M0 0 C3 1 3 1 3 1 Z " fill="#EAEAF1" transform="translate(6,46)"/>
</svg>
