<?xml version="1.0" encoding="UTF-8"?>
<svg version="1.1" xmlns="http://www.w3.org/2000/svg" width="150" height="150">
<path d="M0 0 C4.95 0.99 4.95 0.99 10 2 C9.9175 2.928125 9.835 3.85625 9.75 4.8125 C9.68349716 8.02507792 9.68349716 8.02507792 11.6875 9.9375 C14.56502006 11.25960381 16.02211118 10.90991047 19 10 C19.495 12.475 19.495 12.475 20 15 C20.85464844 14.98839844 21.70929688 14.97679687 22.58984375 14.96484375 C23.69457031 14.95582031 24.79929687 14.94679688 25.9375 14.9375 C27.03964844 14.92589844 28.14179688 14.91429687 29.27734375 14.90234375 C32 15 32 15 33 16 C33.15764405 17.77869726 33.25100677 19.56318476 33.31640625 21.34765625 C33.37924805 22.96704102 33.37924805 22.96704102 33.44335938 24.61914062 C33.48267578 25.75544922 33.52199219 26.89175781 33.5625 28.0625 C33.60568359 29.20267578 33.64886719 30.34285156 33.69335938 31.51757812 C33.79982839 34.34492195 33.90184207 37.17235738 34 40 C34.9590625 40.185625 34.9590625 40.185625 35.9375 40.375 C36.9584375 40.684375 36.9584375 40.684375 38 41 C39.33332095 43.6666419 38.67102033 45.16680303 38 48 C39.32 48.33 40.64 48.66 42 49 C41.67 50.65 41.34 52.3 41 54 C39.68 54.33 38.36 54.66 37 55 C36.67 56.65 36.34 58.3 36 60 C34.35 60.33 32.7 60.66 31 61 C30.67 60.34 30.34 59.68 30 59 C29.071875 59.20625 28.14375 59.4125 27.1875 59.625 C24 60 24 60 21 58 C21.2784375 57.071875 21.2784375 57.071875 21.5625 56.125 C22.23686176 53.95839822 22.23686176 53.95839822 21 52 C19.515 51.505 19.515 51.505 18 51 C18.33 49.35 18.66 47.7 19 46 C18.34 45.67 17.68 45.34 17 45 C17 51.6 17 58.2 17 65 C19.31 65 21.62 65 24 65 C25 66 25 66 25.11352539 69.96899414 C25.1133662 71.74105607 25.10766785 73.5131226 25.09765625 75.28515625 C25.0962413 76.21597519 25.09482635 77.14679413 25.09336853 78.1058197 C25.08775172 81.09141191 25.0751964 84.07693029 25.0625 87.0625 C25.05748716 89.08137913 25.05292388 91.10025943 25.04882812 93.11914062 C25.03777683 98.07945572 25.02050095 103.03971532 25 108 C27.31 108.66 29.62 109.32 32 110 C31 112 31 112 29.34521484 112.61450195 C24.49200924 113.41225457 19.54404055 113.18590312 14.63769531 113.18530273 C12.63863013 113.18748512 10.63960468 113.20599143 8.640625 113.22460938 C7.36960937 113.22654297 6.09859375 113.22847656 4.7890625 113.23046875 C3.63100098 113.23457764 2.47293945 113.23868652 1.27978516 113.24291992 C-2.11310954 112.99162245 -4.83332989 112.21173908 -8 111 C-7.67 110.34 -7.34 109.68 -7 109 C-4.4375 108.375 -4.4375 108.375 -2 108 C-2.67857056 107.99191315 -3.35714111 107.98382629 -4.05627441 107.97549438 C-11.19572947 107.88863335 -18.33493245 107.7891071 -25.47412109 107.68261719 C-28.12938188 107.64363425 -30.7845665 107.60971702 -33.43994141 107.578125 C-72.83630137 107.1036487 -72.83630137 107.1036487 -79 103 C-79.75 100.375 -79.75 100.375 -80 98 C-83.153368 97.29925156 -85.72724974 97 -89 97 C-90.75 94.5 -90.75 94.5 -92 92 C-91.484375 91.5875 -90.96875 91.175 -90.4375 90.75 C-88.76446258 89.11863842 -88.76446258 89.11863842 -89.125 87 C-90.09056431 84.79299586 -91.19372753 83.57067171 -93 82 C-92.34 80.35 -91.68 78.7 -91 77 C-90.05125 77.04125 -89.1025 77.0825 -88.125 77.125 C-84.89755144 77.34973818 -84.89755144 77.34973818 -83 75 C-83 73.68 -83 72.36 -83 71 C-79.535 70.505 -79.535 70.505 -76 70 C-76 67.36 -76 64.72 -76 62 C-80.29 62 -84.58 62 -89 62 C-89.02683436 58.68744674 -89.0467578 55.37510817 -89.0625 52.0625 C-89.07087891 51.11697266 -89.07925781 50.17144531 -89.08789062 49.19726562 C-89.09111328 48.29814453 -89.09433594 47.39902344 -89.09765625 46.47265625 C-89.10289307 45.64000244 -89.10812988 44.80734863 -89.11352539 43.94946289 C-89 42 -89 42 -88 41 C-85.98035801 40.92755947 -83.95832876 40.91622812 -81.9375 40.9375 C-80.28041016 40.95103516 -80.28041016 40.95103516 -78.58984375 40.96484375 C-77.73519531 40.97644531 -76.88054687 40.98804688 -76 41 C-76 39.02 -76 37.04 -76 35 C-76.77085938 35.01160156 -77.54171875 35.02320313 -78.3359375 35.03515625 C-79.84027344 35.04869141 -79.84027344 35.04869141 -81.375 35.0625 C-82.37273437 35.07410156 -83.37046875 35.08570313 -84.3984375 35.09765625 C-87 35 -87 35 -89 34 C-89 28.39 -89 22.78 -89 17 C-90.98 17 -92.96 17 -95 17 C-95 16.67 -95 16.34 -95 16 C-89.08218663 13.93810069 -83.79581786 13.75832162 -77.5625 13.875 C-76.64017578 13.88402344 -75.71785156 13.89304687 -74.76757812 13.90234375 C-72.51160502 13.92572171 -70.25576717 13.9615858 -68 14 C-68 19.61 -68 25.22 -68 31 C-65.69 31 -63.38 31 -61 31 C-60.67 29.68 -60.34 28.36 -60 27 C-46.47 27 -32.94 27 -19 27 C-19.33 25.35 -19.66 23.7 -20 22 C-19.195625 21.79375 -18.39125 21.5875 -17.5625 21.375 C-16.716875 20.92125 -15.87125 20.4675 -15 20 C-14.10169161 16.94727535 -14.10169161 16.94727535 -14 14 C-14.99 13.34 -15.98 12.68 -17 12 C-15.8141763 8.62496331 -14.72426311 6.35277269 -12 4 C-11.2265625 4.495 -11.2265625 4.495 -10.4375 5 C-7.21973488 6.32010877 -4.4429472 6.13242105 -1 6 C-0.67 4.02 -0.34 2.04 0 0 Z M-6 14 C-8.2084626 17.31269391 -8.80664241 19.14978851 -8.5546875 23.0625 C-7.4812192 26.81207941 -5.28696911 28.01541488 -2 30 C0.63836977 30.1672392 0.63836977 30.1672392 3 30 C3.03738281 29.01257813 3.07476562 28.02515625 3.11328125 27.0078125 C3.17902344 25.72648437 3.24476562 24.44515625 3.3125 23.125 C3.37050781 21.84882812 3.42851563 20.57265625 3.48828125 19.2578125 C3.65714844 18.18273437 3.82601562 17.10765625 4 16 C4.99 15.34 5.98 14.68 7 14 C5.01607489 11.60148679 5.01607489 11.60148679 1.1875 11.5625 C-2.17733329 11.66669338 -3.04370031 12.02913354 -6 14 Z M27 45 C24.70362221 47.75895635 24.70362221 47.75895635 25.25 50.5625 C25.83808052 53.15000567 25.83808052 53.15000567 28 55 C31.09926819 54.67801034 31.09926819 54.67801034 34 54 C34.67673447 50.59679066 34.67673447 50.59679066 35 47 C33.11340125 44.69337401 33.11340125 44.69337401 30 44.6875 C29.01 44.790625 28.02 44.89375 27 45 Z M-82.25 80.625 C-84.21985834 82.92308586 -84.21985834 82.92308586 -84.5 86 C-84.21376982 89.06575838 -84.21376982 89.06575838 -82.3125 91.375 C-79.61209763 93.27258004 -78.22939919 93.35882213 -75 93 C-74.85024761 85.94348748 -74.85024761 85.94348748 -76 79 C-79.92212225 78.60967296 -79.92212225 78.60967296 -82.25 80.625 Z M-72 97 C-72 97.99 -72 98.98 -72 100 C-68.68727224 99.85908107 -65.37488029 99.71134606 -62.0625 99.5625 C-61.13630859 99.52318359 -60.21011719 99.48386719 -59.25585938 99.44335938 C-53.46486581 99.17920879 -47.75460497 98.70235691 -42 98 C-41.67 97.01 -41.34 96.02 -41 95 C-45.09338652 94.95060885 -49.18665798 94.91428499 -53.28027344 94.89013672 C-54.67320781 94.88007123 -56.06612102 94.86641766 -57.45898438 94.84912109 C-59.4595436 94.8248978 -61.46025615 94.81459186 -63.4609375 94.8046875 C-64.66540527 94.79421387 -65.86987305 94.78374023 -67.11083984 94.77294922 C-70.12841495 94.69539186 -70.12841495 94.69539186 -72 97 Z M-17 95 C-17 95.99 -17 96.98 -17 98 C-11.72 98.33 -6.44 98.66 -1 99 C-1 97.68 -1 96.36 -1 95 C-6.28 95 -11.56 95 -17 95 Z " fill="#38C5D2" transform="translate(102,18)"/>
<path d="M0 0 C2.31 0 4.62 0 7 0 C7 2.97 7 5.94 7 9 C10.3 9 13.6 9 17 9 C17 15.6 17 22.2 17 29 C12.71 29 8.42 29 4 29 C4 29.66 4 30.32 4 31 C12.79133718 32.42426407 12.79133718 32.42426407 29 32 C29 45.2 29 58.4 29 72 C31.31 72.66 33.62 73.32 36 74 C35 76 35 76 33.34521484 76.61450195 C28.49200924 77.41225457 23.54404055 77.18590312 18.63769531 77.18530273 C16.63863013 77.18748512 14.63960468 77.20599143 12.640625 77.22460938 C11.36960937 77.22654297 10.09859375 77.22847656 8.7890625 77.23046875 C7.63100098 77.23457764 6.47293945 77.23868652 5.27978516 77.24291992 C1.88689046 76.99162245 -0.83332989 76.21173908 -4 75 C-3.67 74.34 -3.34 73.68 -3 73 C-0.4375 72.375 -0.4375 72.375 2 72 C1.32142944 71.99191315 0.64285889 71.98382629 -0.05627441 71.97549438 C-7.19572947 71.88863335 -14.33493245 71.7891071 -21.47412109 71.68261719 C-24.12938188 71.64363425 -26.7845665 71.60971702 -29.43994141 71.578125 C-68.83630137 71.1036487 -68.83630137 71.1036487 -75 67 C-75.75 64.375 -75.75 64.375 -76 62 C-79.153368 61.29925156 -81.72724974 61 -85 61 C-86.75 58.5 -86.75 58.5 -88 56 C-87.484375 55.5875 -86.96875 55.175 -86.4375 54.75 C-84.76446258 53.11863842 -84.76446258 53.11863842 -85.125 51 C-86.09056431 48.79299586 -87.19372753 47.57067171 -89 46 C-88.34 44.35 -87.68 42.7 -87 41 C-86.05125 41.04125 -85.1025 41.0825 -84.125 41.125 C-80.89755144 41.34973818 -80.89755144 41.34973818 -79 39 C-79 37.68 -79 36.36 -79 35 C-75.535 34.505 -75.535 34.505 -72 34 C-72 36.97 -72 39.94 -72 43 C-72.969375 43.28875 -73.93875 43.5775 -74.9375 43.875 C-78.10664203 44.64214682 -78.10664203 44.64214682 -79 47 C-79.40270732 51.1283652 -79.40270732 51.1283652 -77.8125 54.8125 C-75.57968261 56.27538036 -73.62655933 56.64505955 -71 57 C-71 54.03 -71 51.06 -71 48 C-69.02 48 -67.04 48 -65 48 C-64.67 48.66 -64.34 49.32 -64 50 C-55.75 50 -47.5 50 -39 50 C-38.505 49.01 -38.505 49.01 -38 48 C-24.47 48 -10.94 48 3 48 C3 46.35 3 44.7 3 43 C-7.89 43 -18.78 43 -30 43 C-28 39 -28 39 -25.875 38.25 C-25.25625 38.1675 -24.6375 38.085 -24 38 C-24.66 36.68 -25.32 35.36 -26 34 C-19.25 32 -19.25 32 -17 32 C-17.33 30.35 -17.66 28.7 -18 27 C-24.93 26.505 -24.93 26.505 -32 26 C-32 25.67 -32 25.34 -32 25 C-16.655 24.505 -16.655 24.505 -1 24 C-0.67 16.08 -0.34 8.16 0 0 Z M-68 61 C-68 61.99 -68 62.98 -68 64 C-64.68727224 63.85908107 -61.37488029 63.71134606 -58.0625 63.5625 C-57.13630859 63.52318359 -56.21011719 63.48386719 -55.25585938 63.44335938 C-49.46486581 63.17920879 -43.75460497 62.70235691 -38 62 C-37.67 61.01 -37.34 60.02 -37 59 C-41.09338652 58.95060885 -45.18665798 58.91428499 -49.28027344 58.89013672 C-50.67320781 58.88007123 -52.06612102 58.86641766 -53.45898438 58.84912109 C-55.4595436 58.8248978 -57.46025615 58.81459186 -59.4609375 58.8046875 C-60.66540527 58.79421387 -61.86987305 58.78374023 -63.11083984 58.77294922 C-66.12841495 58.69539186 -66.12841495 58.69539186 -68 61 Z M-13 59 C-13 59.99 -13 60.98 -13 62 C-7.72 62.33 -2.44 62.66 3 63 C3 61.68 3 60.36 3 59 C-2.28 59 -7.56 59 -13 59 Z " fill="#7184FD" transform="translate(98,54)"/>
<path d="M0 0 C3.63 0 7.26 0 11 0 C11.33 7.92 11.66 15.84 12 24 C24.87 24.66 37.74 25.32 51 26 C51 27.98 51 29.96 51 32 C48.36 32.99 45.72 33.98 43 35 C43.66 36.32 44.32 37.64 45 39 C44.030625 39.28875 43.06125 39.5775 42.0625 39.875 C38.89335797 40.64214682 38.89335797 40.64214682 38 43 C48.89 43 59.78 43 71 43 C71 44.65 71 46.3 71 48 C57.47 48 43.94 48 30 48 C29.67 48.99 29.34 49.98 29 51 C20.75 51 12.5 51 4 51 C3.67 50.01 3.34 49.02 3 48 C0.69 48 -1.62 48 -4 48 C-4 40.74 -4 33.48 -4 26 C-8.29 26 -12.58 26 -17 26 C-17.02683436 22.68744674 -17.0467578 19.37510817 -17.0625 16.0625 C-17.07087891 15.11697266 -17.07925781 14.17144531 -17.08789062 13.19726562 C-17.09111328 12.29814453 -17.09433594 11.39902344 -17.09765625 10.47265625 C-17.10289307 9.64000244 -17.10812988 8.80734863 -17.11352539 7.94946289 C-17 6 -17 6 -16 5 C-13.30345146 4.92680379 -10.63308542 4.90757463 -7.9375 4.9375 C-7.17888672 4.94201172 -6.42027344 4.94652344 -5.63867188 4.95117188 C-3.75908129 4.9629932 -1.87953101 4.98092922 0 5 C0 3.35 0 1.7 0 0 Z " fill="#6B71FE" transform="translate(30,54)"/>
<path d="M0 0 C0 2.97 0 5.94 0 9 C-0.969375 9.28875 -1.93875 9.5775 -2.9375 9.875 C-6.10664203 10.64214682 -6.10664203 10.64214682 -7 13 C-7.40270732 17.1283652 -7.40270732 17.1283652 -5.8125 20.8125 C-3.57968261 22.27538036 -1.62655933 22.64505955 1 23 C1 20.03 1 17.06 1 14 C2.98 14 4.96 14 7 14 C7.33 14.66 7.66 15.32 8 16 C16.25 16 24.5 16 33 16 C33.33 15.34 33.66 14.68 34 14 C47.53 14 61.06 14 75 14 C75 17.63 75 21.26 75 25 C69.72 25 64.44 25 59 25 C59 25.99 59 26.98 59 28 C59.56847656 27.98839844 60.13695313 27.97679688 60.72265625 27.96484375 C65.60670484 27.90776806 70.18503965 28.18043228 75 29 C75 31.64 75 34.28 75 37 C67.71409984 37.04682155 60.42823335 37.08211748 53.14221191 37.10362434 C49.75718789 37.11395864 46.37226851 37.12792229 42.98730469 37.15087891 C3.62570011 37.39816171 3.62570011 37.39816171 -3 33 C-3.75 30.375 -3.75 30.375 -4 28 C-7.153368 27.29925156 -9.72724974 27 -13 27 C-14.75 24.5 -14.75 24.5 -16 22 C-15.484375 21.5875 -14.96875 21.175 -14.4375 20.75 C-12.76446258 19.11863842 -12.76446258 19.11863842 -13.125 17 C-14.09056431 14.79299586 -15.19372753 13.57067171 -17 12 C-16.34 10.35 -15.68 8.7 -15 7 C-14.05125 7.04125 -13.1025 7.0825 -12.125 7.125 C-8.89755144 7.34973818 -8.89755144 7.34973818 -7 5 C-7 3.68 -7 2.36 -7 1 C-4.53721199 -0.231394 -2.7204945 -0.07159196 0 0 Z M4 27 C4 27.99 4 28.98 4 30 C7.31272776 29.85908107 10.62511971 29.71134606 13.9375 29.5625 C14.86369141 29.52318359 15.78988281 29.48386719 16.74414062 29.44335938 C22.53513419 29.17920879 28.24539503 28.70235691 34 28 C34.33 27.01 34.66 26.02 35 25 C30.90661348 24.95060885 26.81334202 24.91428499 22.71972656 24.89013672 C21.32679219 24.88007123 19.93387898 24.86641766 18.54101562 24.84912109 C16.5404564 24.8248978 14.53974385 24.81459186 12.5390625 24.8046875 C11.33459473 24.79421387 10.13012695 24.78374023 8.88916016 24.77294922 C5.87158505 24.69539186 5.87158505 24.69539186 4 27 Z " fill="#B2D0FE" transform="translate(26,88)"/>
<path d="M0 0 C16.83 0 33.66 0 51 0 C51 9.57 51 19.14 51 29 C34.17 29 17.34 29 0 29 C0 19.43 0 9.86 0 0 Z " fill="#44488E" transform="translate(44,47)"/>
<path d="M0 0 C3.3 0.66 6.6 1.32 10 2 C9.9175 2.928125 9.835 3.85625 9.75 4.8125 C9.68349716 8.02507792 9.68349716 8.02507792 11.6875 9.9375 C14.56502006 11.25960381 16.02211118 10.90991047 19 10 C19.495 12.475 19.495 12.475 20 15 C21.28197266 14.98259766 21.28197266 14.98259766 22.58984375 14.96484375 C23.69457031 14.95582031 24.79929688 14.94679688 25.9375 14.9375 C27.03964844 14.92589844 28.14179688 14.91429687 29.27734375 14.90234375 C32 15 32 15 33 16 C33.15764405 17.77869726 33.25100677 19.56318476 33.31640625 21.34765625 C33.35830078 22.42724609 33.40019531 23.50683594 33.44335938 24.61914062 C33.48267578 25.75544922 33.52199219 26.89175781 33.5625 28.0625 C33.60568359 29.20267578 33.64886719 30.34285156 33.69335938 31.51757812 C33.79982839 34.34492195 33.90184207 37.17235738 34 40 C34.9590625 40.185625 34.9590625 40.185625 35.9375 40.375 C36.618125 40.58125 37.29875 40.7875 38 41 C39.33332095 43.6666419 38.67102033 45.16680303 38 48 C39.32 48.33 40.64 48.66 42 49 C41.67 50.65 41.34 52.3 41 54 C39.02 54.495 39.02 54.495 37 55 C36.67 56.65 36.34 58.3 36 60 C33.525 60.495 33.525 60.495 31 61 C30.67 60.34 30.34 59.68 30 59 C29.071875 59.20625 28.14375 59.4125 27.1875 59.625 C24 60 24 60 21 58 C21.2784375 57.071875 21.2784375 57.071875 21.5625 56.125 C22.23686176 53.95839822 22.23686176 53.95839822 21 52 C20.01 51.67 19.02 51.34 18 51 C18.226875 50.236875 18.45375 49.47375 18.6875 48.6875 C18.790625 47.800625 18.89375 46.91375 19 46 C18.02149805 44.97895449 17.02019573 43.9793879 16 43 C15.875 40.4375 15.875 40.4375 16 38 C15.67 37.34 15.34 36.68 15 36 C15.33 34.35 15.66 32.7 16 31 C9.4 31 2.8 31 -4 31 C-4 30.34 -4 29.68 -4 29 C-1.69 29.33 0.62 29.66 3 30 C2.94779297 28.51886719 2.94779297 28.51886719 2.89453125 27.0078125 C2.86746094 25.72648437 2.84039062 24.44515625 2.8125 23.125 C2.76029297 21.21074219 2.76029297 21.21074219 2.70703125 19.2578125 C2.80371094 18.18273437 2.90039062 17.10765625 3 16 C3.99 15.34 4.98 14.68 6 14 C4.78410016 12.56844101 4.78410016 12.56844101 1.1875 12.6875 C-1.78617685 12.74622611 -2.87751147 12.92650688 -5.5 14.5 C-7.71177972 18.18629954 -7.34421275 20.73176192 -7 25 C-6.67 25.66 -6.34 26.32 -6 27 C-10.29 27 -14.58 27 -19 27 C-19.33 25.35 -19.66 23.7 -20 22 C-19.195625 21.79375 -18.39125 21.5875 -17.5625 21.375 C-16.2940625 20.694375 -16.2940625 20.694375 -15 20 C-14.10169161 16.94727535 -14.10169161 16.94727535 -14 14 C-14.99 13.34 -15.98 12.68 -17 12 C-15.8141763 8.62496331 -14.72426311 6.35277269 -12 4 C-11.2265625 4.495 -11.2265625 4.495 -10.4375 5 C-7.21973488 6.32010877 -4.4429472 6.13242105 -1 6 C-0.67 4.02 -0.34 2.04 0 0 Z M27 45 C24.70362221 47.75895635 24.70362221 47.75895635 25.25 50.5625 C25.83808052 53.15000567 25.83808052 53.15000567 28 55 C31.09926819 54.67801034 31.09926819 54.67801034 34 54 C34.67673447 50.59679066 34.67673447 50.59679066 35 47 C33.11340125 44.69337401 33.11340125 44.69337401 30 44.6875 C29.01 44.790625 28.02 44.89375 27 45 Z " fill="#36DBC7" transform="translate(102,18)"/>
<path d="M0 0 C2.64 0 5.28 0 8 0 C8 12.54 8 25.08 8 38 C-0.25 38 -8.5 38 -17 38 C-17.25 25.375 -17.25 25.375 -15 22 C-14.57922598 19.29404578 -14.57922598 19.29404578 -14.4375 16.375 C-14.09817672 11.09817672 -14.09817672 11.09817672 -13 10 C-10.32941149 9.85884839 -7.67567762 9.95752893 -5 10 C-5 9.34 -5 8.68 -5 8 C-4.34 8 -3.68 8 -3 8 C-3 7.34 -3 6.68 -3 6 C-2.01 6 -1.02 6 0 6 C0 5.01 0 4.02 0 3 C0.66 2.67 1.32 2.34 2 2 C1.34 1.34 0.68 0.68 0 0 Z " fill="#7287FE" transform="translate(119,86)"/>
<path d="M0 0 C0 2.97 0 5.94 0 9 C-0.969375 9.28875 -1.93875 9.5775 -2.9375 9.875 C-6.10664203 10.64214682 -6.10664203 10.64214682 -7 13 C-7.45565588 17.050918 -7.45565588 17.050918 -5.80859375 20.5859375 C-3.56396384 22.34091812 -1.55436719 22.93971804 1.1875 23.6875 C2.08855469 23.93886719 2.98960938 24.19023438 3.91796875 24.44921875 C4.60503906 24.63097656 5.29210937 24.81273438 6 25 C5.01 27.475 5.01 27.475 4 30 C4.88353149 29.90912109 4.88353149 29.90912109 5.78491211 29.81640625 C8.50198983 29.5396151 11.21971686 29.26977324 13.9375 29 C14.86369141 28.90460938 15.78988281 28.80921875 16.74414062 28.7109375 C22.52911107 28.14258953 28.18730276 27.90461215 34 28 C33.67 28.66 33.34 29.32 33 30 C30.35139573 30.59355614 27.70802678 30.74209269 25 31 C25 31.66 25 32.32 25 33 C39.19 33 53.38 33 68 33 C67.67 32.34 67.34 31.68 67 31 C65.845 30.835 64.69 30.67 63.5 30.5 C62.345 30.335 61.19 30.17 60 30 C59.505 29.01 59.505 29.01 59 28 C64.45769811 27.88861841 69.61509359 28.08342019 75 29 C75 31.64 75 34.28 75 37 C67.71409984 37.04682155 60.42823335 37.08211748 53.14221191 37.10362434 C49.75718789 37.11395864 46.37226851 37.12792229 42.98730469 37.15087891 C3.62570011 37.39816171 3.62570011 37.39816171 -3 33 C-3.75 30.375 -3.75 30.375 -4 28 C-7.153368 27.29925156 -9.72724974 27 -13 27 C-14.75 24.5 -14.75 24.5 -16 22 C-15.484375 21.5875 -14.96875 21.175 -14.4375 20.75 C-12.76446258 19.11863842 -12.76446258 19.11863842 -13.125 17 C-14.09056431 14.79299586 -15.19372753 13.57067171 -17 12 C-16.34 10.35 -15.68 8.7 -15 7 C-14.05125 7.04125 -13.1025 7.0825 -12.125 7.125 C-8.89755144 7.34973818 -8.89755144 7.34973818 -7 5 C-7 3.68 -7 2.36 -7 1 C-4.53721199 -0.231394 -2.7204945 -0.07159196 0 0 Z " fill="#EAEBF2" transform="translate(26,88)"/>
<path d="M0 0 C0.92232422 0.00902344 1.84464844 0.01804687 2.79492188 0.02734375 C5.05089498 0.05072171 7.30673283 0.0865858 9.5625 0.125 C9.5625 5.735 9.5625 11.345 9.5625 17.125 C12.8625 17.125 16.1625 17.125 19.5625 17.125 C19.5625 26.035 19.5625 34.945 19.5625 44.125 C36.3925 44.125 53.2225 44.125 70.5625 44.125 C70.5625 44.455 70.5625 44.785 70.5625 45.125 C53.4025 45.125 36.2425 45.125 18.5625 45.125 C18.0675 46.115 18.0675 46.115 17.5625 47.125 C16.5625 46.125 16.5625 46.125 16.44897461 43.80834961 C16.45421143 42.80811768 16.45944824 41.80788574 16.46484375 40.77734375 C16.46806641 39.69775391 16.47128906 38.61816406 16.47460938 37.50585938 C16.48717773 35.80139648 16.48717773 35.80139648 16.5 34.0625 C16.50451172 32.92232422 16.50902344 31.78214844 16.51367188 30.60742188 C16.5255024 27.77992582 16.5434385 24.95245655 16.5625 22.125 C12.9325 22.125 9.3025 22.125 5.5625 22.125 C5.5625 23.775 5.5625 25.425 5.5625 27.125 C4.2425 27.125 2.9225 27.125 1.5625 27.125 C1.5625 25.145 1.5625 23.165 1.5625 21.125 C0.40621094 21.14240234 0.40621094 21.14240234 -0.7734375 21.16015625 C-2.27777344 21.17369141 -2.27777344 21.17369141 -3.8125 21.1875 C-4.81023438 21.19910156 -5.80796875 21.21070312 -6.8359375 21.22265625 C-9.4375 21.125 -9.4375 21.125 -11.4375 20.125 C-11.4375 14.515 -11.4375 8.905 -11.4375 3.125 C-13.4175 3.125 -15.3975 3.125 -17.4375 3.125 C-17.4375 2.795 -17.4375 2.465 -17.4375 2.125 C-11.51968663 0.06310069 -6.23331786 -0.11667838 0 0 Z " fill="#3C90CA" transform="translate(24.4375,31.875)"/>
<path d="M0 0 C1.12019531 -0.00128906 2.24039063 -0.00257812 3.39453125 -0.00390625 C4.57402344 -0.00003906 5.75351562 0.00382812 6.96875 0.0078125 C8.73798828 0.00201172 8.73798828 0.00201172 10.54296875 -0.00390625 C12.22326172 -0.00197266 12.22326172 -0.00197266 13.9375 0 C14.97326172 0.00112793 16.00902344 0.00225586 17.07617188 0.00341797 C19.46875 0.1328125 19.46875 0.1328125 20.46875 1.1328125 C20.56861975 3.97616298 20.60752881 6.78978413 20.59375 9.6328125 C20.59955078 10.82970703 20.59955078 10.82970703 20.60546875 12.05078125 C20.59535767 18.00620483 20.59535767 18.00620483 19.46875 19.1328125 C17.62715977 19.23240871 15.78178033 19.26361661 13.9375 19.265625 C12.81730469 19.26691406 11.69710937 19.26820312 10.54296875 19.26953125 C9.36347656 19.26566406 8.18398438 19.26179688 6.96875 19.2578125 C5.19951172 19.26361328 5.19951172 19.26361328 3.39453125 19.26953125 C1.71423828 19.26759766 1.71423828 19.26759766 0 19.265625 C-1.03576172 19.26449707 -2.07152344 19.26336914 -3.13867188 19.26220703 C-5.53125 19.1328125 -5.53125 19.1328125 -6.53125 18.1328125 C-6.63111975 15.28946202 -6.67002881 12.47584087 -6.65625 9.6328125 C-6.66011719 8.83488281 -6.66398437 8.03695312 -6.66796875 7.21484375 C-6.65573175 0.007248 -6.65573175 0.007248 0 0 Z " fill="#39D9C7" transform="translate(39.53125,85.8671875)"/>
<path d="M0 0 C1.98 0 3.96 0 6 0 C6.33 0.66 6.66 1.32 7 2 C15.25 2 23.5 2 32 2 C32.33 1.34 32.66 0.68 33 0 C39.93 0 46.86 0 54 0 C54.495 1.485 54.495 1.485 55 3 C54.38125 3.45375 53.7625 3.9075 53.125 4.375 C50.94080167 5.97108919 50.94080167 5.97108919 49 8 C47.68 8 46.36 8 45 8 C44.67 8.99 44.34 9.98 44 11 C39.32292433 11.16907864 34.64565623 11.32946391 29.96801758 11.48217773 C28.38037311 11.53519053 26.79280287 11.59048174 25.20532227 11.64819336 C8.38242445 12.25675997 8.38242445 12.25675997 1 11 C0 10 0 10 -0.09765625 7.71484375 C-0.08605469 6.79832031 -0.07445313 5.88179688 -0.0625 4.9375 C-0.05347656 4.01839844 -0.04445313 3.09929687 -0.03515625 2.15234375 C-0.02355469 1.44207031 -0.01195313 0.73179688 0 0 Z " fill="#BAD5FE" transform="translate(27,102)"/>
<path d="M0 0 C7.59 0.33 15.18 0.66 23 1 C20 3 20 3 18 3 C18 3.99 18 4.98 18 6 C17.01 6 16.02 6 15 6 C15 6.66 15 7.32 15 8 C14.34 8 13.68 8 13 8 C13 8.66 13 9.32 13 10 C10.36 10.33 7.72 10.66 5 11 C4.95101562 11.84304687 4.90203125 12.68609375 4.8515625 13.5546875 C4.77679688 14.65039062 4.70203125 15.74609375 4.625 16.875 C4.55539063 17.96554688 4.48578125 19.05609375 4.4140625 20.1796875 C4 23 4 23 2 25 C1.53513282 28.12196336 1.53513282 28.12196336 1.375 31.625 C1.25125 33.72875 1.1275 35.8325 1 38 C9.25 38 17.5 38 26 38 C26 38.66 26 39.32 26 40 C28.31 40.66 30.62 41.32 33 42 C32 44 32 44 30.34521484 44.61450195 C25.49200924 45.41225457 20.54404055 45.18590312 15.63769531 45.18530273 C13.63863013 45.18748512 11.63960468 45.20599143 9.640625 45.22460938 C8.36960937 45.22654297 7.09859375 45.22847656 5.7890625 45.23046875 C4.63100098 45.23457764 3.47293945 45.23868652 2.27978516 45.24291992 C-1.11310954 44.99162245 -3.83332989 44.21173908 -7 43 C-6 41 -6 41 0 39 C0 26.13 0 13.26 0 0 Z " fill="#5E4EF2" transform="translate(101,86)"/>
<path d="M0 0 C0.83265381 0.00523682 1.66530762 0.01047363 2.52319336 0.01586914 C3.33280518 0.0183667 4.14241699 0.02086426 4.9765625 0.0234375 C6.01159912 0.0325415 7.04663574 0.04164551 8.11303711 0.05102539 C11.39241211 0.07165039 14.67178711 0.09227539 18.05053711 0.11352539 C18.05053711 7.04352539 18.05053711 13.97352539 18.05053711 21.11352539 C11.12053711 21.11352539 4.19053711 21.11352539 -2.94946289 21.11352539 C-2.97008789 17.83415039 -2.99071289 14.55477539 -3.01196289 11.17602539 C-3.02106689 10.14098877 -3.0301709 9.10595215 -3.03955078 8.03955078 C-3.04329712 6.82513306 -3.04329712 6.82513306 -3.04711914 5.58618164 C-3.05235596 4.75352783 -3.05759277 3.92087402 -3.06298828 3.06298828 C-2.90876673 0.41468917 -2.64829911 0.15422155 0 0 Z " fill="#38CADD" transform="translate(15.949462890625,58.886474609375)"/>
<path d="M0 0 C3.63 0 7.26 0 11 0 C11.33 7.92 11.66 15.84 12 24 C13.65 24.66 15.3 25.32 17 26 C12.62795753 30.52280256 10.50214124 31.91630979 4 33 C3.67 37.95 3.34 42.9 3 48 C0.69 48 -1.62 48 -4 48 C-4 40.74 -4 33.48 -4 26 C-1.36 26 1.28 26 4 26 C4 19.07 4 12.14 4 5 C2.68 5 1.36 5 0 5 C0 3.35 0 1.7 0 0 Z " fill="#5D50FC" transform="translate(30,54)"/>
<path d="M0 0 C3.3 0.66 6.6 1.32 10 2 C9.9175 2.928125 9.835 3.85625 9.75 4.8125 C9.68349716 8.02507792 9.68349716 8.02507792 11.6875 9.9375 C14.56502006 11.25960381 16.02211118 10.90991047 19 10 C19.495 12.475 19.495 12.475 20 15 C17.87527424 15.05386629 15.75016348 15.09273071 13.625 15.125 C11.84996094 15.15980469 11.84996094 15.15980469 10.0390625 15.1953125 C7 15 7 15 5 13 C-0.54235245 12.42765564 -0.54235245 12.42765564 -5.5 14.5 C-7.71177972 18.18629954 -7.34421275 20.73176192 -7 25 C-6.67 25.66 -6.34 26.32 -6 27 C-10.29 27 -14.58 27 -19 27 C-19.33 25.35 -19.66 23.7 -20 22 C-19.195625 21.79375 -18.39125 21.5875 -17.5625 21.375 C-16.2940625 20.694375 -16.2940625 20.694375 -15 20 C-14.10169161 16.94727535 -14.10169161 16.94727535 -14 14 C-14.99 13.34 -15.98 12.68 -17 12 C-15.8141763 8.62496331 -14.72426311 6.35277269 -12 4 C-11.2265625 4.495 -11.2265625 4.495 -10.4375 5 C-7.21973488 6.32010877 -4.4429472 6.13242105 -1 6 C-0.67 4.02 -0.34 2.04 0 0 Z " fill="#E8EAF1" transform="translate(102,18)"/>
<path d="M0 0 C1.58206057 0.00667536 3.16410534 0.0186375 4.74609375 0.03515625 C5.55240234 0.03966797 6.35871094 0.04417969 7.18945312 0.04882812 C9.18753131 0.06065107 11.18557158 0.07858711 13.18359375 0.09765625 C14.30859375 3.84765625 14.30859375 3.84765625 13.18359375 6.09765625 C13.74046875 6.36578125 14.29734375 6.63390625 14.87109375 6.91015625 C22.00968071 10.57591712 22.00968071 10.57591712 23.18359375 14.09765625 C18.72859375 14.59265625 18.72859375 14.59265625 14.18359375 15.09765625 C13.19359375 17.57265625 13.19359375 17.57265625 12.18359375 20.09765625 C12.84359375 20.09765625 13.50359375 20.09765625 14.18359375 20.09765625 C13.85359375 21.41765625 13.52359375 22.73765625 13.18359375 24.09765625 C10.74609375 23.72265625 10.74609375 23.72265625 8.18359375 23.09765625 C7.18359375 21.09765625 7.18359375 21.09765625 8.18359375 16.09765625 C1.58359375 16.09765625 -5.01640625 16.09765625 -11.81640625 16.09765625 C-11.81640625 15.43765625 -11.81640625 14.77765625 -11.81640625 14.09765625 C-9.50640625 14.42765625 -7.19640625 14.75765625 -4.81640625 15.09765625 C-4.82800781 14.09863281 -4.83960937 13.09960938 -4.8515625 12.0703125 C-4.86058594 10.77996094 -4.86960937 9.48960938 -4.87890625 8.16015625 C-4.89050781 6.87238281 -4.90210937 5.58460937 -4.9140625 4.2578125 C-4.77221615 -0.33233549 -4.72778272 0.12097704 0 0 Z " fill="#65D2E3" transform="translate(109.81640625,32.90234375)"/>
<path d="M0 0 C1.58206057 0.00667536 3.16410534 0.0186375 4.74609375 0.03515625 C5.55240234 0.03966797 6.35871094 0.04417969 7.18945312 0.04882812 C9.18753131 0.06065107 11.18557158 0.07858711 13.18359375 0.09765625 C13.21043687 2.91021906 13.23035563 5.72252866 13.24609375 8.53515625 C13.25447266 9.33759766 13.26285156 10.14003906 13.27148438 10.96679688 C13.28010805 13.01060846 13.23587525 15.05449527 13.18359375 17.09765625 C11.36243372 18.91881628 8.87687611 18.23000705 6.45703125 18.234375 C5.70679687 18.23050781 4.9565625 18.22664063 4.18359375 18.22265625 C3.05824219 18.22845703 3.05824219 18.22845703 1.91015625 18.234375 C-3.68979572 18.22426678 -3.68979572 18.22426678 -4.81640625 17.09765625 C-4.91621839 14.42034245 -4.955205 11.7746145 -4.94140625 9.09765625 C-4.94527344 8.34742187 -4.94914062 7.5971875 -4.953125 6.82421875 C-4.94103514 0.12643386 -4.94103514 0.12643386 0 0 Z " fill="#43CDE7" transform="translate(109.81640625,95.90234375)"/>
<path d="M0 0 C7.81452752 -0.02526563 15.62904458 -0.04283105 23.44360352 -0.05493164 C26.10441481 -0.05997383 28.76522332 -0.06680736 31.42602539 -0.07543945 C35.24105516 -0.08751009 39.05604844 -0.09322929 42.87109375 -0.09765625 C44.66793861 -0.10539818 44.66793861 -0.10539818 46.50108337 -0.11329651 C48.15268211 -0.11340981 48.15268211 -0.11340981 49.83764648 -0.11352539 C50.81249496 -0.115746 51.78734344 -0.11796661 52.79173279 -0.12025452 C55 0 55 0 56 1 C56.1007812 3.36398468 56.13973215 5.69811311 56.1328125 8.0625 C56.13376923 8.76898682 56.13472595 9.47547363 56.13571167 10.20336914 C56.13639333 11.69970793 56.13454005 13.19604967 56.13037109 14.69238281 C56.12502257 16.99030157 56.13031651 19.28802486 56.13671875 21.5859375 C56.13605797 23.03645877 56.1347768 24.48697991 56.1328125 25.9375 C56.13483673 26.6291626 56.13686096 27.3208252 56.13894653 28.03344727 C56.11495224 32.88504776 56.11495224 32.88504776 55 34 C53.31198015 34.09353163 51.62004793 34.11744791 49.92944336 34.11352539 C48.84839828 34.11344986 47.76735321 34.11337433 46.65354919 34.11329651 C44.889515 34.10555458 44.889515 34.10555458 43.08984375 34.09765625 C41.89267227 34.0962413 40.69550079 34.09482635 39.46205139 34.09336853 C35.62050934 34.08774979 31.77902457 34.07519411 27.9375 34.0625 C25.34049563 34.05748741 22.74349035 34.05292409 20.14648438 34.04882812 C13.76430321 34.03777427 7.3821557 34.02101792 1 34 C1 33.34 1 32.68 1 32 C18.16 32 35.32 32 53 32 C53 22.1 53 12.2 53 2 C36.17 2 19.34 2 2 2 C2 2.66 2 3.32 2 4 C1.01 4 0.02 4 -1 4 C-0.67 2.68 -0.34 1.36 0 0 Z " fill="#37D0CE" transform="translate(42,45)"/>
<path d="M0 0 C5.61 0 11.22 0 17 0 C17 5.28 17 10.56 17 16 C11.39 16 5.78 16 0 16 C0 10.72 0 5.44 0 0 Z " fill="#3F519D" transform="translate(15,34)"/>
<path d="M0 0 C13.53 0 27.06 0 41 0 C41 1.65 41 3.3 41 5 C27.47 5 13.94 5 0 5 C0 3.35 0 1.7 0 0 Z " fill="#3C3D89" transform="translate(60,97)"/>
<path d="M0 0 C1.9375 0.375 1.9375 0.375 4 1 C5.33332095 3.6666419 4.67102033 5.16680303 4 8 C5.32 8.33 6.64 8.66 8 9 C7.67 10.65 7.34 12.3 7 14 C5.68 14.33 4.36 14.66 3 15 C2.67 16.65 2.34 18.3 2 20 C0.35 20.33 -1.3 20.66 -3 21 C-3.33 20.34 -3.66 19.68 -4 19 C-4.928125 19.20625 -5.85625 19.4125 -6.8125 19.625 C-10 20 -10 20 -13 18 C-12.814375 17.38125 -12.62875 16.7625 -12.4375 16.125 C-11.76313824 13.95839822 -11.76313824 13.95839822 -13 12 C-13.99 11.67 -14.98 11.34 -16 11 C-15.67 9.35 -15.34 7.7 -15 6 C-12.36 5.67 -9.72 5.34 -7 5 C-7.20625 6.11375 -7.4125 7.2275 -7.625 8.375 C-7.74875 9.57125 -7.8725 10.7675 -8 12 C-6.10244856 14.34973818 -6.10244856 14.34973818 -2.875 14.125 C-1.451875 14.063125 -1.451875 14.063125 0 14 C0.29562367 8.67829506 0.29562367 8.67829506 -2 4 C-1.34 2.68 -0.68 1.36 0 0 Z " fill="#E9EAF2" transform="translate(136,58)"/>
<path d="M0 0 C1.93681161 -0.08107583 3.8745934 -0.13922475 5.8125 -0.1875 C6.89144531 -0.22230469 7.97039062 -0.25710937 9.08203125 -0.29296875 C12 0 12 0 13.88671875 1.51171875 C14.25410156 2.00285156 14.62148437 2.49398437 15 3 C14.34 3 13.68 3 13 3 C13.33 3.66 13.66 4.32 14 5 C20.27 5.33 26.54 5.66 33 6 C33 6.66 33 7.32 33 8 C18.81 8 4.62 8 -10 8 C-10 7.34 -10 6.68 -10 6 C-7.98177083 5.609375 -5.96354167 5.21875 -3.9453125 4.828125 C-1.80995329 4.14287884 -1.80995329 4.14287884 -0.7421875 1.921875 C-0.49726562 1.28765625 -0.25234375 0.6534375 0 0 Z " fill="#A2C5FE" transform="translate(61,113)"/>
<path d="M0 0 C1.98 0 3.96 0 6 0 C6.33 0.66 6.66 1.32 7 2 C9.54941373 2.31241371 12.00361513 2.51303421 14.5625 2.625 C15.62887695 2.68300781 15.62887695 2.68300781 16.71679688 2.7421875 C18.47742425 2.83671783 20.23867728 2.91945817 22 3 C19.59501845 9.2103321 19.59501845 9.2103321 17 11 C11.6036923 12.29511385 6.4153471 12.04588249 1 11 C0 10 0 10 -0.09765625 7.71484375 C-0.08605469 6.79832031 -0.07445313 5.88179688 -0.0625 4.9375 C-0.05347656 4.01839844 -0.04445313 3.09929687 -0.03515625 2.15234375 C-0.02355469 1.44207031 -0.01195313 0.73179688 0 0 Z " fill="#C5DCFE" transform="translate(27,102)"/>
<path d="M0 0 C1.18613892 0.00785522 1.18613892 0.00785522 2.39624023 0.01586914 C3.67724609 0.02070312 3.67724609 0.02070312 4.98413086 0.02563477 C5.88196289 0.03401367 6.77979492 0.04239258 7.70483398 0.05102539 C8.6065332 0.05553711 9.50823242 0.06004883 10.43725586 0.06469727 C12.67234712 0.07652315 14.90730835 0.09300319 17.14233398 0.11352539 C16.81233398 0.77352539 16.48233398 1.43352539 16.14233398 2.11352539 C13.57983398 2.73852539 13.57983398 2.73852539 11.14233398 3.11352539 C10.81233398 4.76352539 10.48233398 6.41352539 10.14233398 8.11352539 C9.15233398 8.11352539 8.16233398 8.11352539 7.14233398 8.11352539 C7.14233398 7.12352539 7.14233398 6.13352539 7.14233398 5.11352539 C6.48233398 5.11352539 5.82233398 5.11352539 5.14233398 5.11352539 C4.81233398 6.10352539 4.48233398 7.09352539 4.14233398 8.11352539 C3.48233398 8.77352539 2.82233398 9.43352539 2.14233398 10.11352539 C4.61733398 12.09352539 4.61733398 12.09352539 7.14233398 14.11352539 C7.47233398 13.12352539 7.80233398 12.13352539 8.14233398 11.11352539 C7.81233398 12.76352539 7.48233398 14.41352539 7.14233398 16.11352539 C3.84233398 16.11352539 0.54233398 16.11352539 -2.85766602 16.11352539 C-2.88451697 13.63428738 -2.90443149 11.15533699 -2.92016602 8.67602539 C-2.93273438 7.61544922 -2.93273438 7.61544922 -2.94555664 6.53344727 C-2.95420189 4.7265898 -2.90986613 2.91964936 -2.85766602 1.11352539 C-1.85766602 0.11352539 -1.85766602 0.11352539 0 0 Z " fill="#42ACE3" transform="translate(35.857666015625,85.886474609375)"/>
<path d="M0 0 C0.92232422 0.00902344 1.84464844 0.01804687 2.79492188 0.02734375 C5.05105809 0.0507234 7.30663684 0.08349084 9.5625 0.125 C9.59138146 3.43748187 9.60925799 6.74993167 9.625 10.0625 C9.63337891 11.00802734 9.64175781 11.95355469 9.65039062 12.92773438 C9.65522461 14.27641602 9.65522461 14.27641602 9.66015625 15.65234375 C9.66801147 16.90132446 9.66801147 16.90132446 9.67602539 18.17553711 C9.5625 20.125 9.5625 20.125 8.5625 21.125 C5.57383358 21.22511296 2.61339547 21.26373975 -0.375 21.25 C-1.21224609 21.25386719 -2.04949219 21.25773437 -2.91210938 21.26171875 C-3.71326172 21.26042969 -4.51441406 21.25914063 -5.33984375 21.2578125 C-6.07710693 21.25668457 -6.81437012 21.25555664 -7.57397461 21.25439453 C-9.4375 21.125 -9.4375 21.125 -11.4375 20.125 C-11.4375 14.515 -11.4375 8.905 -11.4375 3.125 C-13.4175 3.125 -15.3975 3.125 -17.4375 3.125 C-17.4375 2.795 -17.4375 2.465 -17.4375 2.125 C-11.51968663 0.06310069 -6.23331786 -0.11667838 0 0 Z M-9.4375 2.125 C-9.4375 7.405 -9.4375 12.685 -9.4375 18.125 C-3.8275 18.125 1.7825 18.125 7.5625 18.125 C7.5625 12.845 7.5625 7.565 7.5625 2.125 C1.9525 2.125 -3.6575 2.125 -9.4375 2.125 Z " fill="#33CFD4" transform="translate(24.4375,31.875)"/>
<path d="M0 0 C3.63 0 7.26 0 11 0 C11.13516583 3.39716777 11.23419231 6.78894608 11.3125 10.1875 C11.3753418 11.62706055 11.3753418 11.62706055 11.43945312 13.09570312 C11.5608921 20.11487607 11.5608921 20.11487607 9.86474609 22.79150391 C8.48046875 24.17578125 8.48046875 24.17578125 6 26 C4.41596476 24.41596476 4.78025065 22.7228362 4.68359375 20.52734375 C4.62075195 19.17866211 4.62075195 19.17866211 4.55664062 17.80273438 C4.51732422 16.85720703 4.47800781 15.91167969 4.4375 14.9375 C4.39431641 13.98810547 4.35113281 13.03871094 4.30664062 12.06054688 C4.20020724 9.70718647 4.09818992 7.35371646 4 5 C2.68 5 1.36 5 0 5 C0 3.35 0 1.7 0 0 Z " fill="#5A39FF" transform="translate(30,54)"/>
<path d="M0 0 C0.33 0.66 0.66 1.32 1 2 C0.67 2.99 0.34 3.98 0 5 C-2.0625 5.6875 -2.0625 5.6875 -4 6 C-4 7.65 -4 9.3 -4 11 C-4.99 11.33 -5.98 11.66 -7 12 C-7 12.66 -7 13.32 -7 14 C-7.66 14 -8.32 14 -9 14 C-9 13.01 -9 12.02 -9 11 C-9.99 11 -10.98 11 -12 11 C-12.33 12.65 -12.66 14.3 -13 16 C-13.66 16 -14.32 16 -15 16 C-15.33 15.34 -15.66 14.68 -16 14 C-16.639375 13.690625 -17.27875 13.38125 -17.9375 13.0625 C-20 12 -20 12 -22 9 C-20.71034824 7.62437146 -19.37310707 6.29233607 -18 5 C-17.34 5 -16.68 5 -16 5 C-16 5.99 -16 6.98 -16 8 C-15.01 8 -14.02 8 -13 8 C-12.95875 7.236875 -12.9175 6.47375 -12.875 5.6875 C-12 3 -12 3 -9.3125 1.1875 C-5.94519627 -0.01964662 -3.54251095 -0.2530365 0 0 Z " fill="#3EC2DA" transform="translate(59,86)"/>
<path d="M0 0 C1.32 0 2.64 0 4 0 C4 6.6 4 13.2 4 20 C6.31 20 8.62 20 11 20 C11.33 20.99 11.66 21.98 12 23 C3.19039858 24.30512614 -5.19039858 24.30512614 -14 23 C-13.505 21.515 -13.505 21.515 -13 20 C-8.71 20 -4.42 20 0 20 C0 13.4 0 6.8 0 0 Z " fill="#4C4CA1" transform="translate(115,63)"/>
<path d="M0 0 C7.59 0 15.18 0 23 0 C23.33 0.99 23.66 1.98 24 3 C24.66 3.33 25.32 3.66 26 4 C25.030625 4.268125 24.06125 4.53625 23.0625 4.8125 C22.051875 5.204375 21.04125 5.59625 20 6 C19.67 6.99 19.34 7.98 19 9 C18.34 8.34 17.68 7.68 17 7 C14.86747907 6.72285104 14.86747907 6.72285104 12.4296875 6.8046875 C11.53378906 6.81113281 10.63789062 6.81757812 9.71484375 6.82421875 C8.30912109 6.84935547 8.30912109 6.84935547 6.875 6.875 C5.45767578 6.88853516 5.45767578 6.88853516 4.01171875 6.90234375 C1.67422708 6.92595478 -0.66276123 6.95888484 -3 7 C-2.67 5.68 -2.34 4.36 -2 3 C-0.68 2.67 0.64 2.34 2 2 C1.34 1.34 0.68 0.68 0 0 Z " fill="#645AFF" transform="translate(43,79)"/>
<path d="M0 0 C1.31871094 -0.01224609 2.63742188 -0.02449219 3.99609375 -0.03710938 C5.90068359 -0.04000977 5.90068359 -0.04000977 7.84375 -0.04296875 C9.00068359 -0.04707764 10.15761719 -0.05118652 11.34960938 -0.05541992 C14.47736509 0.18575467 16.680892 0.85423629 19.5 2.1875 C18.5 4.1875 18.5 4.1875 16.84521484 4.80200195 C11.99200924 5.59975457 7.04404055 5.37340312 2.13769531 5.37280273 C0.13863013 5.37498512 -1.86039532 5.39349143 -3.859375 5.41210938 C-5.13039063 5.41404297 -6.40140625 5.41597656 -7.7109375 5.41796875 C-8.86899902 5.42207764 -10.02706055 5.42618652 -11.22021484 5.43041992 C-14.61310954 5.17912245 -17.33332989 4.39923908 -20.5 3.1875 C-20.17 2.5275 -19.84 1.8675 -19.5 1.1875 C-13.23640183 -0.60566158 -6.45139424 0.00315317 0 0 Z " fill="#EAEBF2" transform="translate(114.5,125.8125)"/>
<path d="M0 0 C1.58206057 0.00667536 3.16410534 0.0186375 4.74609375 0.03515625 C5.55240234 0.03966797 6.35871094 0.04417969 7.18945312 0.04882812 C9.18753131 0.06065107 11.18557158 0.07858711 13.18359375 0.09765625 C13.21043687 2.91021906 13.23035563 5.72252866 13.24609375 8.53515625 C13.25447266 9.33759766 13.26285156 10.14003906 13.27148438 10.96679688 C13.28010805 13.01060846 13.23587525 15.05449527 13.18359375 17.09765625 C11.36243372 18.91881628 8.87687611 18.23000705 6.45703125 18.234375 C5.70679687 18.23050781 4.9565625 18.22664063 4.18359375 18.22265625 C3.05824219 18.22845703 3.05824219 18.22845703 1.91015625 18.234375 C-3.68979572 18.22426678 -3.68979572 18.22426678 -4.81640625 17.09765625 C-4.91621839 14.42034245 -4.955205 11.7746145 -4.94140625 9.09765625 C-4.94527344 8.34742187 -4.94914062 7.5971875 -4.953125 6.82421875 C-4.94103514 0.12643386 -4.94103514 0.12643386 0 0 Z M-1.25390625 3.66015625 C-3.43640297 7.06485113 -3.45375087 9.13195637 -2.81640625 13.09765625 C-0.88514523 15.77604198 -0.88514523 15.77604198 2.18359375 17.09765625 C5.99736885 17.09765625 8.20783923 16.94750696 11.12109375 14.41015625 C12.52176913 11.36162748 12.66786695 9.41838673 12.18359375 6.09765625 C10.74698064 3.57758781 10.74698064 3.57758781 8.18359375 2.09765625 C4.24343362 1.53477623 2.12577179 1.49369597 -1.25390625 3.66015625 Z " fill="#45B5F4" transform="translate(109.81640625,95.90234375)"/>
<path d="M0 0 C1.02787125 0.00212242 1.02787125 0.00212242 2.07650757 0.00428772 C4.26719511 0.0098895 6.4577808 0.02244219 8.6484375 0.03515625 C10.13281102 0.04017103 11.61718615 0.04473397 13.1015625 0.04882812 C16.74222065 0.05985948 20.38281914 0.07712526 24.0234375 0.09765625 C24.0234375 1.41765625 24.0234375 2.73765625 24.0234375 4.09765625 C13.4634375 4.09765625 2.9034375 4.09765625 -7.9765625 4.09765625 C-8.3065625 3.10765625 -8.6365625 2.11765625 -8.9765625 1.09765625 C-6.00296801 -0.389141 -3.31357071 -0.0134698 0 0 Z " fill="#325EB3" transform="translate(65.9765625,53.90234375)"/>
<path d="M0 0 C2.64 0.33 5.28 0.66 8 1 C9.49821059 4.37097383 10 6.20442119 10 10 C9.01 10 8.02 10 7 10 C6.67 11.32 6.34 12.64 6 14 C5.34 14 4.68 14 4 14 C4 13.34 4 12.68 4 12 C2.35 12 0.7 12 -1 12 C-2.25664978 9.09399739 -3 7.20395416 -3 4 C-2.01 4 -1.02 4 0 4 C0 2.68 0 1.36 0 0 Z " fill="#DBF3F6" transform="translate(20,63)"/>
<path d="M0 0 C5.61 0 11.22 0 17 0 C17 2.31 17 4.62 17 7 C11.39 7 5.78 7 0 7 C0 4.69 0 2.38 0 0 Z " fill="#3E418D" transform="translate(15,43)"/>
<path d="M0 0 C2.841067 1.79355129 5.49365159 3.76082579 8 6 C8 6.33 8 6.66 8 7 C0.41 7 -7.18 7 -15 7 C-15 6.34 -15 5.68 -15 5 C-13.824375 4.87625 -13.824375 4.87625 -12.625 4.75 C-9.85955198 4.28474077 -9.85955198 4.28474077 -8.8125 2 C-8.544375 1.34 -8.27625 0.68 -8 0 C-4.93256346 -1.53371827 -3.29840304 -0.91622307 0 0 Z " fill="#F5FCFC" transform="translate(125,39)"/>
<path d="M0 0 C1.60488281 0.07734375 1.60488281 0.07734375 3.2421875 0.15625 C4.35335937 0.22070312 5.46453125 0.28515625 6.609375 0.3515625 C7.73601562 0.40828125 8.86265625 0.465 10.0234375 0.5234375 C12.80274028 0.66475798 15.5811191 0.81615658 18.359375 0.9765625 C18.359375 1.3065625 18.359375 1.6365625 18.359375 1.9765625 C13.904375 2.4715625 13.904375 2.4715625 9.359375 2.9765625 C8.699375 4.6265625 8.039375 6.2765625 7.359375 7.9765625 C8.019375 7.9765625 8.679375 7.9765625 9.359375 7.9765625 C9.029375 9.2965625 8.699375 10.6165625 8.359375 11.9765625 C5.921875 11.6015625 5.921875 11.6015625 3.359375 10.9765625 C2.359375 8.9765625 2.359375 8.9765625 3.359375 3.9765625 C-3.240625 3.9765625 -9.840625 3.9765625 -16.640625 3.9765625 C-16.640625 3.3165625 -16.640625 2.6565625 -16.640625 1.9765625 C-15.031875 2.0384375 -15.031875 2.0384375 -13.390625 2.1015625 C-9.83601261 2.2602699 -9.83601261 2.2602699 -7.75878906 0.96728516 C-5.00475248 -0.32085228 -3.02575726 -0.16094453 0 0 Z " fill="#80DEE2" transform="translate(114.640625,45.0234375)"/>
<path d="M0 0 C2.64 0 5.28 0 8 0 C8 5.61 8 11.22 8 17 C5 15 5 15 4.3125 12.375 C4.209375 11.59125 4.10625 10.8075 4 10 C1.03 10 -1.94 10 -5 10 C-5 9.34 -5 8.68 -5 8 C-4.34 8 -3.68 8 -3 8 C-3 7.34 -3 6.68 -3 6 C-2.01 6 -1.02 6 0 6 C0 5.01 0 4.02 0 3 C0.66 2.67 1.32 2.34 2 2 C1.34 1.34 0.68 0.68 0 0 Z " fill="#6459FF" transform="translate(119,86)"/>
<path d="M0 0 C0.66 0 1.32 0 2 0 C2 4.29 2 8.58 2 13 C-4.93 13 -11.86 13 -19 13 C-15.72220127 9.72220127 -15.1639187 9.59505966 -10.8125 9.3125 C-9.91144531 9.24675781 -9.01039062 9.18101563 -8.08203125 9.11328125 C-7.05142578 9.05720703 -7.05142578 9.05720703 -6 9 C-5.67 8.01 -5.34 7.02 -5 6 C-4.01 6 -3.02 6 -2 6 C-1.855625 5.38125 -1.71125 4.7625 -1.5625 4.125 C-1 2 -1 2 0 0 Z " fill="#35D5C8" transform="translate(32,67)"/>
<path d="M0 0 C1.32 0 2.64 0 4 0 C4 5.61 4 11.22 4 17 C4.99 17 5.98 17 7 17 C7 18.65 7 20.3 7 22 C4.69 22 2.38 22 0 22 C0 14.74 0 7.48 0 0 Z " fill="#42458F" transform="translate(26,80)"/>
<path d="M0 0 C1.81242052 -0.02687279 3.62495233 -0.04633715 5.4375 -0.0625 C6.44683594 -0.07410156 7.45617187 -0.08570313 8.49609375 -0.09765625 C11 0 11 0 12 1 C12.3709602 5.91522262 12.15164348 8.24290923 9 12 C5.80672254 10.21328523 2.7720515 8.39920247 0 6 C-0.5625 2.625 -0.5625 2.625 0 0 Z " fill="#35D2D2" transform="translate(123,33)"/>
<path d="M0 0 C0.66 0.33 1.32 0.66 2 1 C2.33 2.32 2.66 3.64 3 5 C5.97 5.33 8.94 5.66 12 6 C12 6.99 12 7.98 12 9 C11.34 9 10.68 9 10 9 C9.67 9.66 9.34 10.32 9 11 C8.34 11 7.68 11 7 11 C7 11.99 7 12.98 7 14 C6.01 14 5.02 14 4 14 C3.67 14.66 3.34 15.32 3 16 C1.68 16 0.36 16 -1 16 C-1.02701408 13.89590361 -1.04640223 11.79170822 -1.0625 9.6875 C-1.07410156 8.51574219 -1.08570312 7.34398438 -1.09765625 6.13671875 C-1 3 -1 3 0 0 Z " fill="#6C72FE" transform="translate(103,108)"/>
<path d="M0 0 C5.94 0 11.88 0 18 0 C18 3 18 3 17 5 C11.39 5 5.78 5 0 5 C0 3.35 0 1.7 0 0 Z " fill="#34ACC5" transform="translate(98,49)"/>
<path d="M0 0 C2.31 0 4.62 0 7 0 C7 3.63 7 7.26 7 11 C6.34 11 5.68 11 5 11 C5 11.66 5 12.32 5 13 C4.01 12.67 3.02 12.34 2 12 C1.34 12.99 0.68 13.98 0 15 C0 10.05 0 5.1 0 0 Z " fill="#6B74FD" transform="translate(98,54)"/>
<path d="M0 0 C1.32 0 2.64 0 4 0 C4 6.6 4 13.2 4 20 C2.68 19.67 1.36 19.34 0 19 C0 12.73 0 6.46 0 0 Z " fill="#3E3E8B" transform="translate(115,63)"/>
<path d="M0 0 C0.33 0 0.66 0 1 0 C1 3.63 1 7.26 1 11 C-2.3 11 -5.6 11 -9 11 C-8.484375 10.21625 -7.96875 9.4325 -7.4375 8.625 C-6.963125 7.75875 -6.48875 6.8925 -6 6 C-6.33 5.34 -6.66 4.68 -7 4 C-9.52733235 3.34444881 -9.52733235 3.34444881 -12 3 C-12 2.67 -12 2.34 -12 2 C-11.21753906 1.93941406 -10.43507813 1.87882812 -9.62890625 1.81640625 C-8.61699219 1.73261719 -7.60507813 1.64882812 -6.5625 1.5625 C-5.55316406 1.48128906 -4.54382813 1.40007812 -3.50390625 1.31640625 C-1.06359221 1.26788532 -1.06359221 1.26788532 0 0 Z " fill="#7991FE" transform="translate(114,71)"/>
<path d="M0 0 C1.67542976 0.28604898 3.34385343 0.61781233 5 1 C5.97477898 4.72188336 6.12816587 6.64248468 4.8125 10.3125 C3 13 3 13 0.88671875 13.66796875 C0.26410156 13.77753906 -0.35851562 13.88710938 -1 14 C-1.02685938 11.85423363 -1.04633088 9.70837355 -1.0625 7.5625 C-1.07410156 6.36753906 -1.08570312 5.17257813 -1.09765625 3.94140625 C-1 1 -1 1 0 0 Z " fill="#32C6E0" transform="translate(106,33)"/>
<path d="M0 0 C8.58 0 17.16 0 26 0 C25.67 0.99 25.34 1.98 25 3 C17.08 3 9.16 3 1 3 C0.67 2.01 0.34 1.02 0 0 Z " fill="#4C4CA0" transform="translate(101,124)"/>
<path d="M0 0 C0.66 0 1.32 0 2 0 C1.69128878 1.79232337 1.37790936 3.58384321 1.0625 5.375 C0.88847656 6.37273437 0.71445312 7.37046875 0.53515625 8.3984375 C0 11 0 11 -1 13 C-1.66 13 -2.32 13 -3 13 C-3.33 12.34 -3.66 11.68 -4 11 C-4.639375 10.690625 -5.27875 10.38125 -5.9375 10.0625 C-8 9 -8 9 -10 6 C-8.71034824 4.62437146 -7.37310707 3.29233607 -6 2 C-5.34 2 -4.68 2 -4 2 C-4 2.99 -4 3.98 -4 5 C-3.01 5 -2.02 5 -1 5 C-0.67 3.35 -0.34 1.7 0 0 Z " fill="#52BDDE" transform="translate(47,89)"/>
<path d="M0 0 C4.82360189 -0.19294408 8.49646738 0.24252386 13 2 C11.68 3.32 10.36 4.64 9 6 C8.34 5.67 7.68 5.34 7 5 C7 5.66 7 6.32 7 7 C6.01 7 5.02 7 4 7 C3.67 7.66 3.34 8.32 3 9 C2.34 9 1.68 9 1 9 C0.67 9.66 0.34 10.32 0 11 C0 7.37 0 3.74 0 0 Z " fill="#5A38FF" transform="translate(102,86)"/>
<path d="M0 0 C7.59 0 15.18 0 23 0 C23.33 0.99 23.66 1.98 24 3 C24.66 3.33 25.32 3.66 26 4 C25.030625 4.268125 24.06125 4.53625 23.0625 4.8125 C22.051875 5.204375 21.04125 5.59625 20 6 C19.67 6.99 19.34 7.98 19 9 C18.34 8.34 17.68 7.68 17 7 C14.93125966 6.3574765 14.93125966 6.3574765 13 6 C14.32 4.68 15.64 3.36 17 2 C11.39 1.67 5.78 1.34 0 1 C0 0.67 0 0.34 0 0 Z " fill="#6468FC" transform="translate(43,79)"/>
<path d="M0 0 C2.4375 1.625 2.4375 1.625 4 4 C4.5625 6.9375 4.5625 6.9375 4 10 C1.9375 12.9375 1.9375 12.9375 -1 15 C-4.54361243 15 -6.86591591 14.65850044 -9.9375 12.875 C-11.6712306 9.81547541 -11.42145216 7.43182475 -11 4 C-8.11188513 -0.5054592 -5.11821063 -0.73117295 0 0 Z M-8.375 2.625 C-10.31351084 4.95095516 -10.31351084 4.95095516 -9.875 8.125 C-9.21691176 11.09681373 -9.21691176 11.09681373 -7 13 C-3.89652746 13.33015665 -1.84218824 13.50531294 0.875 11.875 C2.52854531 9.11909116 2.39365568 7.14924548 2 4 C0.93654948 2.01970318 0.93654948 2.01970318 -1 1 C-4.3225955 0.40363671 -5.57455503 0.70890607 -8.375 2.625 Z " fill="#DEF5F8" transform="translate(118,98)"/>
<path d="M0 0 C2.31 0 4.62 0 7 0 C7 1.65 7 3.3 7 5 C3.37 5 -0.26 5 -4 5 C-4 6.65 -4 8.3 -4 10 C-5.32 10 -6.64 10 -8 10 C-8 8.02 -8 6.04 -8 4 C-4.535 3.505 -4.535 3.505 -1 3 C-0.67 2.01 -0.34 1.02 0 0 Z " fill="#3C3E8A" transform="translate(34,49)"/>
<path d="M0 0 C2.64 0 5.28 0 8 0 C8 2.64 8 5.28 8 8 C7.34 8 6.68 8 6 8 C5.67 8.99 5.34 9.98 5 11 C2.16439414 9.58219707 2.00641321 7.95214542 1 5 C0.63128912 3.34080104 0.28718326 1.6752357 0 0 Z " fill="#3CBAD9" transform="translate(26,59)"/>
<path d="M0 0 C1.65 0 3.3 0 5 0 C5.02888146 3.31248187 5.04675799 6.62493167 5.0625 9.9375 C5.07087891 10.88302734 5.07925781 11.82855469 5.08789062 12.80273438 C5.09111328 13.70185547 5.09433594 14.60097656 5.09765625 15.52734375 C5.10289307 16.35999756 5.10812988 17.19265137 5.11352539 18.05053711 C5 20 5 20 4 21 C1.66702567 21.04092937 -0.66705225 21.04241723 -3 21 C-2.505 19.515 -2.505 19.515 -2 18 C-0.35 18 1.3 18 3 18 C3 12.72 3 7.44 3 2 C2.01 1.67 1.02 1.34 0 1 C0 0.67 0 0.34 0 0 Z " fill="#35D5C8" transform="translate(29,32)"/>
<path d="M0 0 C1.24716797 0.00322266 2.49433594 0.00644531 3.77929688 0.00976562 C5.07287109 0.01814453 6.36644531 0.02652344 7.69921875 0.03515625 C9.66858398 0.04192383 9.66858398 0.04192383 11.67773438 0.04882812 C14.91410885 0.06059676 18.15039053 0.07703865 21.38671875 0.09765625 C21.05671875 0.75765625 20.72671875 1.41765625 20.38671875 2.09765625 C19.73074707 2.11747559 19.07477539 2.13729492 18.39892578 2.15771484 C15.43610806 2.25278132 12.47401343 2.36253377 9.51171875 2.47265625 C7.96291016 2.5190625 7.96291016 2.5190625 6.3828125 2.56640625 C4.90361328 2.62441406 4.90361328 2.62441406 3.39453125 2.68359375 C2.4833252 2.71501465 1.57211914 2.74643555 0.63330078 2.77880859 C-1.81259311 2.89648136 -1.81259311 2.89648136 -3.61328125 5.09765625 C-6.34197532 5.06478042 -8.90994305 4.53367854 -11.61328125 4.09765625 C-11.61328125 3.10765625 -11.61328125 2.11765625 -11.61328125 1.09765625 C-7.68039761 0.16677716 -4.03673962 -0.0184326 0 0 Z " fill="#D9D9E8" transform="translate(106.61328125,125.90234375)"/>
<path d="M0 0 C6.15234375 0.5859375 6.15234375 0.5859375 8 1 C8.33 1.66 8.66 2.32 9 3 C8.01 4.485 8.01 4.485 7 6 C5.35 5.67 3.7 5.34 2 5 C2.33 6.98 2.66 8.96 3 11 C1.68 11.33 0.36 11.66 -1 12 C-2.25664978 9.09399739 -3 7.20395416 -3 4 C-2.01 4 -1.02 4 0 4 C0 2.68 0 1.36 0 0 Z " fill="#F2FAFC" transform="translate(20,63)"/>
<path d="M0 0 C0.99 0 1.98 0 3 0 C3.02691685 2.45840605 3.04679802 4.91651882 3.0625 7.375 C3.07087891 8.07367188 3.07925781 8.77234375 3.08789062 9.4921875 C3.11328125 14.7734375 3.11328125 14.7734375 2 17 C1.34 17 0.68 17 0 17 C0 11.39 0 5.78 0 0 Z " fill="#37D0CA" transform="translate(95,49)"/>
<path d="M0 0 C-0.99 1.485 -0.99 1.485 -2 3 C-5.2578125 3.29296875 -5.2578125 3.29296875 -9.125 3.1875 C-11.04699219 3.14689453 -11.04699219 3.14689453 -13.0078125 3.10546875 C-13.99523438 3.07066406 -14.98265625 3.03585938 -16 3 C-16.33 2.01 -16.66 1.02 -17 0 C-11.0885256 -0.77313045 -5.8685408 -1.14819277 0 0 Z " fill="#47D7D0" transform="translate(50,102)"/>
<path d="M0 0 C5.41538462 -0.36923077 5.41538462 -0.36923077 8.375 1.5 C8.91125 1.995 9.4475 2.49 10 3 C10.33 2.01 10.66 1.02 11 0 C10.67 1.65 10.34 3.3 10 5 C6.7 5 3.4 5 0 5 C0 3.35 0 1.7 0 0 Z " fill="#34ADC6" transform="translate(33,97)"/>
<path d="M0 0 C0.66 0.33 1.32 0.66 2 1 C2.02689216 2.47906892 2.04634621 3.95827483 2.0625 5.4375 C2.07410156 6.26121094 2.08570313 7.08492188 2.09765625 7.93359375 C2 10 2 10 1 11 C-0.66617115 11.04063832 -2.33388095 11.042721 -4 11 C-2.25 3.375 -2.25 3.375 0 0 Z " fill="#34DBC1" transform="translate(58,94)"/>
<path d="M0 0 C3.3 0 6.6 0 10 0 C9 2 9 2 6.5 2.875 C5.675 3.24625 4.85 3.6175 4 4 C3.34786708 6.02463255 3.34786708 6.02463255 3 8 C2.01 8.33 1.02 8.66 0 9 C0 6.03 0 3.06 0 0 Z " fill="#3DBBDD" transform="translate(105,54)"/>
<path d="M0 0 C2.5625718 -0.02710123 5.12485365 -0.04688771 7.6875 -0.0625 C8.40873047 -0.07087891 9.12996094 -0.07925781 9.87304688 -0.08789062 C13.71555382 -0.10543632 17.26639526 0.06475779 21 1 C21 1.33 21 1.66 21 2 C14.73 2 8.46 2 2 2 C2 2.66 2 3.32 2 4 C1.01 4 0.02 4 -1 4 C-0.67 2.68 -0.34 1.36 0 0 Z " fill="#32C7DD" transform="translate(42,45)"/>
<path d="M0 0 C0.66 0 1.32 0 2 0 C2.02685938 2.14576637 2.04633088 4.29162645 2.0625 6.4375 C2.07410156 7.63246094 2.08570312 8.82742187 2.09765625 10.05859375 C2 13 2 13 1 14 C-1.18639453 14.07258946 -3.37500389 14.08373783 -5.5625 14.0625 C-7.35880859 14.04896484 -7.35880859 14.04896484 -9.19140625 14.03515625 C-10.11824219 14.02355469 -11.04507813 14.01195313 -12 14 C-11.67 13.34 -11.34 12.68 -11 12 C-9.9275 12.0825 -8.855 12.165 -7.75 12.25 C-4.05751395 12.29655773 -4.05751395 12.29655773 -1.5625 10.5 C0.71029038 6.86353539 0.28281164 4.24217465 0 0 Z " fill="#3ADBCC" transform="translate(121,100)"/>
<path d="M0 0 C3 1 3 1 4 3 C4.13415472 5.6723621 4.04318541 8.32250488 4 11 C2.68 11.33 1.36 11.66 0 12 C0 8.04 0 4.08 0 0 Z " fill="#707FFE" transform="translate(123,100)"/>
<path d="M0 0 C0.66 0 1.32 0 2 0 C2 4.29 2 8.58 2 13 C-1 11 -1 11 -1.6875 8.375 C-1.790625 7.59125 -1.89375 6.8075 -2 6 C-2.66 6 -3.32 6 -4 6 C-2.87816502 3.75633004 -1.60553445 1.92664134 0 0 Z " fill="#6A6AFE" transform="translate(125,90)"/>
<path d="M0 0 C1.23556641 0.01740234 1.23556641 0.01740234 2.49609375 0.03515625 C3.32238281 0.04417969 4.14867187 0.05320312 5 0.0625 C5.63808594 0.07410156 6.27617188 0.08570312 6.93359375 0.09765625 C6.93359375 0.75765625 6.93359375 1.41765625 6.93359375 2.09765625 C4.95359375 2.42765625 2.97359375 2.75765625 0.93359375 3.09765625 C0.83046875 3.73703125 0.72734375 4.37640625 0.62109375 5.03515625 C0.39421875 5.71578125 0.16734375 6.39640625 -0.06640625 7.09765625 C-1.05640625 7.42765625 -2.04640625 7.75765625 -3.06640625 8.09765625 C-3.10882348 5.7647085 -3.10733562 3.43063058 -3.06640625 1.09765625 C-2.06640625 0.09765625 -2.06640625 0.09765625 0 0 Z " fill="#4497EB" transform="translate(36.06640625,85.90234375)"/>
<path d="M0 0 C0.68384766 0.00902344 1.36769531 0.01804687 2.07226562 0.02734375 C3.73583287 0.05061042 5.39921631 0.08646833 7.0625 0.125 C7.3925 0.785 7.7225 1.445 8.0625 2.125 C0.4725 2.455 -7.1175 2.785 -14.9375 3.125 C-14.9375 2.795 -14.9375 2.465 -14.9375 2.125 C-9.77803135 0.4208322 -5.4949667 -0.09725605 0 0 Z " fill="#5ED3E0" transform="translate(21.9375,31.875)"/>
<path d="M0 0 C0.33 0 0.66 0 1 0 C1.36190476 5.42857143 1.36190476 5.42857143 -0.1875 7.875 C-2.54923705 9.34090576 -4.26753076 9.08049828 -7 9 C-6.02180976 7.68677212 -5.0424189 6.37443848 -4.0625 5.0625 C-3.51722656 4.33160156 -2.97195312 3.60070312 -2.41015625 2.84765625 C-1 1 -1 1 0 0 Z " fill="#3FD8DA" transform="translate(119,102)"/>
<path d="M0 0 C0.99 0 1.98 0 3 0 C3.08121924 1.60332791 3.13929134 3.20784026 3.1875 4.8125 C3.23970703 6.15248047 3.23970703 6.15248047 3.29296875 7.51953125 C3 10 3 10 0 13 C0 8.71 0 4.42 0 0 Z " fill="#3B96D8" transform="translate(41,49)"/>
<path d="M0 0 C2.31 0 4.62 0 7 0 C7 1.65 7 3.3 7 5 C4.69 5 2.38 5 0 5 C0 3.35 0 1.7 0 0 Z " fill="#3C3E8A" transform="translate(98,49)"/>
<path d="M0 0 C1.07765625 0.10183594 2.1553125 0.20367187 3.265625 0.30859375 C4.08546875 0.39238281 4.9053125 0.47617188 5.75 0.5625 C5.75 1.2225 5.75 1.8825 5.75 2.5625 C0.47 2.5625 -4.81 2.5625 -10.25 2.5625 C-10.25 1.9025 -10.25 1.2425 -10.25 0.5625 C-6.70049966 -0.60056443 -3.69176052 -0.36115049 0 0 Z " fill="#99C0FE" transform="translate(68.25,118.4375)"/>
<path d="M0 0 C4.29 0 8.58 0 13 0 C13.33 1.32 13.66 2.64 14 4 C13.01 4 12.02 4 11 4 C11 3.34 11 2.68 11 2 C7.37 2 3.74 2 0 2 C0 1.34 0 0.68 0 0 Z " fill="#56DAD4" transform="translate(84,45)"/>
<path d="M0 0 C0.66 0 1.32 0 2 0 C1.69128878 1.79232337 1.37790936 3.58384321 1.0625 5.375 C0.88847656 6.37273437 0.71445312 7.37046875 0.53515625 8.3984375 C0 11 0 11 -1 13 C-1.66 13 -2.32 13 -3 13 C-2.52060632 8.28596212 -2.03165952 4.33420699 0 0 Z " fill="#D8F2F6" transform="translate(47,89)"/>
<path d="M0 0 C0 1.32 0 2.64 0 4 C-0.99 4.33 -1.98 4.66 -3 5 C-3.66 4.34 -4.32 3.68 -5 3 C-7.68839385 2.73008094 -10.29141936 2.91262643 -13 3 C-13 2.34 -13 1.68 -13 1 C-8.60563789 0.14256349 -4.47427924 -0.08948558 0 0 Z " fill="#4BCAE8" transform="translate(123,96)"/>
<path d="M0 0 C0.66 0 1.32 0 2 0 C3.6875 1.8125 3.6875 1.8125 5 4 C4.67 4.99 4.34 5.98 4 7 C3.34 7 2.68 7 2 7 C2 7.66 2 8.32 2 9 C1.34 9 0.68 9 0 9 C-0.84454356 5.62182575 -1.10844919 3.32534757 0 0 Z " fill="#A4E4EB" transform="translate(50,91)"/>
<path d="M0 0 C3.3 0 6.6 0 10 0 C10.33 1.65 10.66 3.3 11 5 C7 5 7 5 5.5 3.625 C5.005 3.08875 4.51 2.5525 4 2 C2.68 1.34 1.36 0.68 0 0 Z " fill="#3CCFDA" transform="translate(16,59)"/>
<path d="M0 0 C0.66 0 1.32 0 2 0 C2 2.31 2 4.62 2 7 C-0.31 7 -2.62 7 -5 7 C-4.34 6.34 -3.68 5.68 -3 5 C-3.33 4.34 -3.66 3.68 -4 3 C-2.68 2.34 -1.36 1.68 0 1 C0 0.67 0 0.34 0 0 Z " fill="#7999FE" transform="translate(125,117)"/>
<path d="M0 0 C0.66 0 1.32 0 2 0 C2 9 2 9 1 11 C0.34 11 -0.32 11 -1 11 C-1.9765625 4.9453125 -1.9765625 4.9453125 -2 3 C-1.34 2.34 -0.68 1.68 0 1 C0 0.67 0 0.34 0 0 Z " fill="#45C3CC" transform="translate(116,49)"/>
<path d="M0 0 C0.66 1.32 1.32 2.64 2 4 C-0.97 5.32 -3.94 6.64 -7 8 C-6.875 5.6875 -6.875 5.6875 -6 3 C-2.9375 1.1875 -2.9375 1.1875 0 0 Z " fill="#60D3E1" transform="translate(122,33)"/>
<path d="M0 0 C1.32 0 2.64 0 4 0 C4 1.65 4 3.3 4 5 C2.68 5.33 1.36 5.66 0 6 C-0.38218767 4.34385343 -0.71395102 2.67542976 -1 1 C-0.67 0.67 -0.34 0.34 0 0 Z " fill="#40CCDB" transform="translate(22,67)"/>
<path d="M0 0 C2 1 2 1 3.125 4.0625 C3.41375 5.031875 3.7025 6.00125 4 7 C3.34 7 2.68 7 2 7 C2 7.66 2 8.32 2 9 C1.01 9 0.02 9 -1 9 C-0.67 6.03 -0.34 3.06 0 0 Z " fill="#6763FF" transform="translate(103,108)"/>
<path d="M0 0 C0.33 0 0.66 0 1 0 C1 2.31 1 4.62 1 7 C-1 8 -1 8 -4 9 C-4.33 8.01 -4.66 7.02 -5 6 C-3.625 4.5 -3.625 4.5 -2 3 C-1.34 3 -0.68 3 0 3 C0 2.01 0 1.02 0 0 Z " fill="#3FD2D3" transform="translate(59,88)"/>
<path d="M0 0 C0.66 0 1.32 0 2 0 C2 2.64 2 5.28 2 8 C0.68 7.67 -0.64 7.34 -2 7 C-2.125 4.625 -2.125 4.625 -2 2 C-1.34 1.34 -0.68 0.68 0 0 Z " fill="#40D1D1" transform="translate(32,67)"/>
<path d="M0 0 C0.33 0 0.66 0 1 0 C2.31626692 3.61973402 3 6.09567131 3 10 C1.68 9.67 0.36 9.34 -1 9 C-0.67 6.03 -0.34 3.06 0 0 Z " fill="#43CFE5" transform="translate(106,104)"/>
<path d="M0 0 C2.97 0 5.94 0 9 0 C9 0.66 9 1.32 9 2 C6.36 2.33 3.72 2.66 1 3 C0.67 2.01 0.34 1.02 0 0 Z " fill="#51D2DB" transform="translate(33,102)"/>
<path d="M0 0 C0.66 0 1.32 0 2 0 C2 1.65 2 3.3 2 5 C2.66 5.33 3.32 5.66 4 6 C2.02 6.99 2.02 6.99 0 8 C-0.66 7.01 -1.32 6.02 -2 5 C-1.125 2.3125 -1.125 2.3125 0 0 Z " fill="#FCFEFE" transform="translate(119,49)"/>
<path d="M0 0 C3.96 0 7.92 0 12 0 C11 2 11 2 9.375 2.75 C5.96334563 3.10912151 3.22534792 2.05444067 0 1 C0 0.67 0 0.34 0 0 Z " fill="#7ED8E4" transform="translate(110,33)"/>
<path d="M0 0 C2.125 0.9375 2.125 0.9375 4 2 C3 3 3 3 0.27734375 3.09765625 C-1.37587891 3.08025391 -1.37587891 3.08025391 -3.0625 3.0625 C-4.16722656 3.05347656 -5.27195312 3.04445312 -6.41015625 3.03515625 C-7.69212891 3.01775391 -7.69212891 3.01775391 -9 3 C-9 2.34 -9 1.68 -9 1 C-7.88625 1.020625 -6.7725 1.04125 -5.625 1.0625 C-2.16784079 1.26380718 -2.16784079 1.26380718 0 0 Z " fill="#88CBDE" transform="translate(107,46)"/>
<path d="M0 0 C0.66 0.33 1.32 0.66 2 1 C0.68 2.65 -0.64 4.3 -2 6 C-3.65 5.67 -5.3 5.34 -7 5 C-7 4.34 -7 3.68 -7 3 C-4.525 3.495 -4.525 3.495 -2 4 C-1.34 2.68 -0.68 1.36 0 0 Z " fill="#C6EFF4" transform="translate(117,102)"/>
<path d="M0 0 C0.99 0 1.98 0 3 0 C3 0.99 3 1.98 3 3 C3.66 3.33 4.32 3.66 5 4 C3.02 4.33 1.04 4.66 -1 5 C-0.67 3.35 -0.34 1.7 0 0 Z " fill="#35C2C5" transform="translate(47,97)"/>
<path d="M0 0 C1.32 0 2.64 0 4 0 C3.67 1.65 3.34 3.3 3 5 C2.01 4.67 1.02 4.34 0 4 C0 2.68 0 1.36 0 0 Z " fill="#34ACC5" transform="translate(26,59)"/>
<path d="M0 0 C0.433125 0.61875 0.86625 1.2375 1.3125 1.875 C2.99740483 4.2197245 2.99740483 4.2197245 6 6 C5.01 6.66 4.02 7.32 3 8 C0.37613513 4.93882432 0 4.26826873 0 0 Z " fill="#55D4E1" transform="translate(108,103)"/>
<path d="M0 0 C0 0.99 0 1.98 0 3 C0.3062434 4.33981486 0.63451555 5.67511887 1 7 C-0.32 6.34 -1.64 5.68 -3 5 C-3 4.01 -3 3.02 -3 2 C-2.01 1.34 -1.02 0.68 0 0 Z " fill="#E7F5F9" transform="translate(41,92)"/>
<path d="M0 0 C0.99 0 1.98 0 3 0 C3 1.32 3 2.64 3 4 C1.35 4.33 -0.3 4.66 -2 5 C-1.34 3.35 -0.68 1.7 0 0 Z " fill="#7CD8E6" transform="translate(112,39)"/>
<path d="M0 0 C4 1 4 1 4 1 Z " fill="#ECECF3" transform="translate(6,40)"/>
</svg>
