<?xml version="1.0" encoding="UTF-8"?>
<svg version="1.1" xmlns="http://www.w3.org/2000/svg" width="150" height="150">
<path d="M0 0 C2.97 0.99 5.94 1.98 9 3 C8.9071875 4.3921875 8.9071875 4.3921875 8.8125 5.8125 C8.74760199 8.90747504 8.74760199 8.90747504 10.125 10.875 C12.78034983 12.4682099 14.96789518 12.20214032 18 12 C18 12.99 18 13.98 18 15 C18.85464844 14.98839844 19.70929688 14.97679687 20.58984375 14.96484375 C21.69457031 14.95582031 22.79929687 14.94679688 23.9375 14.9375 C25.03964844 14.92589844 26.14179688 14.91429687 27.27734375 14.90234375 C30 15 30 15 31 16 C31.08748207 17.92667507 31.10697334 19.85651861 31.09765625 21.78515625 C31.09443359 22.95498047 31.09121094 24.12480469 31.08789062 25.33007812 C31.07951172 26.56177734 31.07113281 27.79347656 31.0625 29.0625 C31.05798828 30.29806641 31.05347656 31.53363281 31.04882812 32.80664062 C31.03699608 35.87114117 31.02051173 38.93554721 31 42 C33.475 41.505 33.475 41.505 36 41 C37.0625 42.8125 37.0625 42.8125 38 45 C37.67 45.99 37.34 46.98 37 48 C38.37168238 50.19038423 38.37168238 50.19038423 40 52 C39.3125 53.9375 39.3125 53.9375 38 56 C35.375 56.75 35.375 56.75 33 57 C32.67 58.32 32.34 59.64 32 61 C30.35 61 28.7 61 27 61 C27 60.01 27 59.02 27 58 C23.535 58.495 23.535 58.495 20 59 C18.16308743 55.21812119 17.84162374 53.05431692 19 49 C18.34 49 17.68 49 17 49 C17 47.68 17 46.36 17 45 C16.34 45 15.68 45 15 45 C15 51.6 15 58.2 15 65 C17.31 65 19.62 65 22 65 C23 66 23 66 23.11352539 69.96899414 C23.1133662 71.74105607 23.10766785 73.5131226 23.09765625 75.28515625 C23.0962413 76.21597519 23.09482635 77.14679413 23.09336853 78.1058197 C23.08775172 81.09141191 23.0751964 84.07693029 23.0625 87.0625 C23.05748716 89.08137913 23.05292388 91.10025943 23.04882812 93.11914062 C23.03777683 98.07945572 23.02050095 103.03971532 23 108 C25.31 108.66 27.62 109.32 30 110 C29 112 29 112 27.34521484 112.61450195 C22.49200924 113.41225457 17.54404055 113.18590312 12.63769531 113.18530273 C10.63863013 113.18748512 8.63960468 113.20599143 6.640625 113.22460938 C5.36960937 113.22654297 4.09859375 113.22847656 2.7890625 113.23046875 C1.63100098 113.23457764 0.47293945 113.23868652 -0.72021484 113.24291992 C-4.11310954 112.99162245 -6.83332989 112.21173908 -10 111 C-9.67 110.34 -9.34 109.68 -9 109 C-6.4375 108.375 -6.4375 108.375 -4 108 C-4.67857056 107.99191315 -5.35714111 107.98382629 -6.05627441 107.97549438 C-13.19572947 107.88863335 -20.33493245 107.7891071 -27.47412109 107.68261719 C-30.12938188 107.64363425 -32.7845665 107.60971702 -35.43994141 107.578125 C-73.71387295 107.11716685 -73.71387295 107.11716685 -83 102 C-83 100.35 -83 98.7 -83 97 C-86.05847848 96.45627049 -88.88772805 96 -92 96 C-92.99 94.02 -93.98 92.04 -95 90 C-93.02 89.505 -93.02 89.505 -91 89 C-91.34227572 86.02934491 -91.34227572 86.02934491 -92 83 C-92.66 82.67 -93.32 82.34 -94 82 C-93.75 79.625 -93.75 79.625 -93 77 C-89.74538479 74.64320967 -86.93179735 75 -83 75 C-83 73.35 -83 71.7 -83 70 C-81.35 70 -79.7 70 -78 70 C-78 67.36 -78 64.72 -78 62 C-82.29 62 -86.58 62 -91 62 C-91 61.01 -91 60.02 -91 59 C-92.98 59 -94.96 59 -97 59 C-97 58.34 -97 57.68 -97 57 C-95.02 57 -93.04 57 -91 57 C-91 55.68 -91 54.36 -91 53 C-92.98 53 -94.96 53 -97 53 C-97 52.34 -97 51.68 -97 51 C-95.02 51 -93.04 51 -91 51 C-91 49.68 -91 48.36 -91 47 C-92.98 47 -94.96 47 -97 47 C-97 46.34 -97 45.68 -97 45 C-95.02 45 -93.04 45 -91 45 C-91 44.01 -91 43.02 -91 42 C-92.98 41.67 -94.96 41.34 -97 41 C-97 40.67 -97 40.34 -97 40 C-90.73 40 -84.46 40 -78 40 C-78 38.35 -78 36.7 -78 35 C-84.27 35 -90.54 35 -97 35 C-97 34.67 -97 34.34 -97 34 C-94.525 33.505 -94.525 33.505 -92 33 C-91.67 31.68 -91.34 30.36 -91 29 C-92.98 29 -94.96 29 -97 29 C-97 28.67 -97 28.34 -97 28 C-95.35 27.67 -93.7 27.34 -92 27 C-91.67 25.68 -91.34 24.36 -91 23 C-92.98 23 -94.96 23 -97 23 C-97 22.67 -97 22.34 -97 22 C-95.35 21.67 -93.7 21.34 -92 21 C-91.67 19.68 -91.34 18.36 -91 17 C-92.98 17 -94.96 17 -97 17 C-97 16.67 -97 16.34 -97 16 C-91.11060037 13.95887931 -85.8280285 13.72721958 -79.625 13.8125 C-78.25408203 13.8134668 -78.25408203 13.8134668 -76.85546875 13.81445312 C-70.14064837 13.85935163 -70.14064837 13.85935163 -69 15 C-66.19023482 15.16017166 -63.40226404 15.25950534 -60.58984375 15.31640625 C-59.74780899 15.33718735 -58.90577423 15.35796844 -58.03822327 15.37937927 C-55.33806821 15.44496812 -52.63781283 15.50380276 -49.9375 15.5625 C-48.11131759 15.60567637 -46.28514546 15.64929036 -44.45898438 15.69335938 C-39.97276008 15.80065894 -35.4864345 15.90189966 -31 16 C-31 16.33 -31 16.66 -31 17 C-43.87 17 -56.74 17 -70 17 C-69.67 18.32 -69.34 19.64 -69 21 C-56.46 21.33 -43.92 21.66 -31 22 C-31 22.33 -31 22.66 -31 23 C-43.87 23 -56.74 23 -70 23 C-69.67 24.32 -69.34 25.64 -69 27 C-53.16 27 -37.32 27 -21 27 C-21.495 23.535 -21.495 23.535 -22 20 C-20.02 19.67 -18.04 19.34 -16 19 C-15.75571657 13.2025577 -15.75571657 13.2025577 -18 8 C-13.60546875 3.99609375 -13.60546875 3.99609375 -12 3 C-9 4 -9 4 -8 6 C-5.05272465 5.89830839 -5.05272465 5.89830839 -2 5 C-0.54708727 2.53744315 -0.54708727 2.53744315 0 0 Z M-8 14 C-10.2084626 17.31269391 -10.80664241 19.14978851 -10.5546875 23.0625 C-9.4812192 26.81207941 -7.28696911 28.01541488 -4 30 C-1.36163023 30.1672392 -1.36163023 30.1672392 1 30 C1.03738281 29.01257813 1.07476562 28.02515625 1.11328125 27.0078125 C1.17902344 25.72648437 1.24476562 24.44515625 1.3125 23.125 C1.37050781 21.84882812 1.42851563 20.57265625 1.48828125 19.2578125 C1.65714844 18.18273437 1.82601562 17.10765625 2 16 C2.99 15.34 3.98 14.68 5 14 C3.01607489 11.60148679 3.01607489 11.60148679 -0.8125 11.5625 C-4.17733329 11.66669338 -5.04370031 12.02913354 -8 14 Z M-70 29 C-70 29.66 -70 30.32 -70 31 C-67.69 31 -65.38 31 -63 31 C-63 30.34 -63 29.68 -63 29 C-65.31 29 -67.62 29 -70 29 Z M23 47 C23.32326553 50.59679066 23.32326553 50.59679066 24 54 C28.07079208 55.1508314 28.07079208 55.1508314 31.875 53.875 C33.3568671 51.40522151 33.3633156 49.83386167 33 47 C31.11499729 44.68436913 31.11499729 44.68436913 28 44.75 C24.88500271 44.68436913 24.88500271 44.68436913 23 47 Z M-84.25 80.625 C-86.21985834 82.92308586 -86.21985834 82.92308586 -86.5 86 C-86.21376982 89.06575838 -86.21376982 89.06575838 -84.3125 91.375 C-81.61209763 93.27258004 -80.22939919 93.35882213 -77 93 C-76.85024761 85.94348748 -76.85024761 85.94348748 -78 79 C-81.92212225 78.60967296 -81.92212225 78.60967296 -84.25 80.625 Z M-72 95 C-72.99 95.66 -73.98 96.32 -75 97 C-75 97.99 -75 98.98 -75 100 C-71.52060949 99.85923111 -68.04154941 99.71144333 -64.5625 99.5625 C-63.58861328 99.52318359 -62.61472656 99.48386719 -61.61132812 99.44335938 C-55.69938401 99.18631833 -49.87354003 98.72280379 -44 98 C-43.67 97.01 -43.34 96.02 -43 95 C-46.77081722 94.97100401 -50.54160583 94.95320271 -54.3125 94.9375 C-55.38435547 94.92912109 -56.45621094 94.92074219 -57.56054688 94.91210938 C-58.58857422 94.90888672 -59.61660156 94.90566406 -60.67578125 94.90234375 C-61.62364502 94.89710693 -62.57150879 94.89187012 -63.5480957 94.88647461 C-66.13838681 94.89501146 -66.13838681 94.89501146 -69 96 C-69.99 95.67 -70.98 95.34 -72 95 Z M-19 95 C-19 95.99 -19 96.98 -19 98 C-13.72 98.33 -8.44 98.66 -3 99 C-3 97.68 -3 96.36 -3 95 C-8.28 95 -13.56 95 -19 95 Z " fill="#6B71FE" transform="translate(104,18)"/>
<path d="M0 0 C2.31 0 4.62 0 7 0 C7 2.97 7 5.94 7 9 C11.62 9 16.24 9 21 9 C21 15.6 21 22.2 21 29 C23.31 29 25.62 29 28 29 C29 30 29 30 29.11352539 33.96899414 C29.1133662 35.74105607 29.10766785 37.5131226 29.09765625 39.28515625 C29.0962413 40.21597519 29.09482635 41.14679413 29.09336853 42.1058197 C29.08775172 45.09141191 29.0751964 48.07693029 29.0625 51.0625 C29.05748716 53.08137913 29.05292388 55.10025943 29.04882812 57.11914062 C29.03777683 62.07945572 29.02050095 67.03971532 29 72 C31.31 72.66 33.62 73.32 36 74 C35 76 35 76 33.34521484 76.61450195 C28.49200924 77.41225457 23.54404055 77.18590312 18.63769531 77.18530273 C16.63863013 77.18748512 14.63960468 77.20599143 12.640625 77.22460938 C11.36960937 77.22654297 10.09859375 77.22847656 8.7890625 77.23046875 C7.63100098 77.23457764 6.47293945 77.23868652 5.27978516 77.24291992 C1.88689046 76.99162245 -0.83332989 76.21173908 -4 75 C-3.67 74.34 -3.34 73.68 -3 73 C-0.4375 72.375 -0.4375 72.375 2 72 C1.32142944 71.99191315 0.64285889 71.98382629 -0.05627441 71.97549438 C-7.19572947 71.88863335 -14.33493245 71.7891071 -21.47412109 71.68261719 C-24.12938188 71.64363425 -26.7845665 71.60971702 -29.43994141 71.578125 C-67.71387295 71.11716685 -67.71387295 71.11716685 -77 66 C-77 64.35 -77 62.7 -77 61 C-80.05847848 60.45627049 -82.88772805 60 -86 60 C-86.99 58.02 -87.98 56.04 -89 54 C-87.02 53.505 -87.02 53.505 -85 53 C-85.34227572 50.02934491 -85.34227572 50.02934491 -86 47 C-86.66 46.67 -87.32 46.34 -88 46 C-87.75 43.625 -87.75 43.625 -87 41 C-83.74538479 38.64320967 -80.93179735 39 -77 39 C-77 37.35 -77 35.7 -77 34 C-75.35 34 -73.7 34 -72 34 C-72 36.97 -72 39.94 -72 43 C-72.969375 43.28875 -73.93875 43.5775 -74.9375 43.875 C-78.10664203 44.64214682 -78.10664203 44.64214682 -79 47 C-79.40270732 51.1283652 -79.40270732 51.1283652 -77.8125 54.8125 C-75.57968261 56.27538036 -73.62655933 56.64505955 -71 57 C-71 54.03 -71 51.06 -71 48 C-69.02 48 -67.04 48 -65 48 C-64.67 48.66 -64.34 49.32 -64 50 C-55.75 50 -47.5 50 -39 50 C-38.505 49.01 -38.505 49.01 -38 48 C-24.47 48 -10.94 48 3 48 C3 46.35 3 44.7 3 43 C2.30438965 43.00523682 1.6087793 43.01047363 0.89208984 43.01586914 C-2.28026413 43.03674337 -5.45260361 43.04969332 -8.625 43.0625 C-10.26662109 43.07506836 -10.26662109 43.07506836 -11.94140625 43.08789062 C-13.53662109 43.09272461 -13.53662109 43.09272461 -15.1640625 43.09765625 C-16.62513428 43.10551147 -16.62513428 43.10551147 -18.11572266 43.11352539 C-21.14875321 42.99414506 -24.01915268 42.55866724 -27 42 C-27 40 -27 40 -25 38 C-24.59952556 35.67724823 -24.2602896 33.34260643 -24 31 C-22.02 30.67 -20.04 30.34 -18 30 C-18 29.01 -18 28.02 -18 27 C-16.85660156 26.93941406 -15.71320313 26.87882812 -14.53515625 26.81640625 C-13.04425695 26.73201572 -11.55337225 26.64736698 -10.0625 26.5625 C-9.30775391 26.52318359 -8.55300781 26.48386719 -7.77539062 26.44335938 C-4.08055813 26.55961976 -4.08055813 26.55961976 -1 25 C-0.84213692 23.14825294 -0.74892644 21.2909089 -0.68359375 19.43359375 C-0.64169922 18.30888672 -0.59980469 17.18417969 -0.55664062 16.02539062 C-0.51732422 14.84138672 -0.47800781 13.65738281 -0.4375 12.4375 C-0.37272461 10.65569336 -0.37272461 10.65569336 -0.30664062 8.83789062 C-0.20016454 5.89205216 -0.09815159 2.9461257 0 0 Z M-66 59 C-66.99 59.66 -67.98 60.32 -69 61 C-69 61.99 -69 62.98 -69 64 C-65.52060949 63.85923111 -62.04154941 63.71144333 -58.5625 63.5625 C-57.58861328 63.52318359 -56.61472656 63.48386719 -55.61132812 63.44335938 C-49.69938401 63.18631833 -43.87354003 62.72280379 -38 62 C-37.67 61.01 -37.34 60.02 -37 59 C-40.77081722 58.97100401 -44.54160583 58.95320271 -48.3125 58.9375 C-49.38435547 58.92912109 -50.45621094 58.92074219 -51.56054688 58.91210938 C-52.58857422 58.90888672 -53.61660156 58.90566406 -54.67578125 58.90234375 C-55.62364502 58.89710693 -56.57150879 58.89187012 -57.5480957 58.88647461 C-60.13838681 58.89501146 -60.13838681 58.89501146 -63 60 C-63.99 59.67 -64.98 59.34 -66 59 Z M-13 59 C-13 59.99 -13 60.98 -13 62 C-7.72 62.33 -2.44 62.66 3 63 C3 61.68 3 60.36 3 59 C-2.28 59 -7.56 59 -13 59 Z " fill="#5E4DF0" transform="translate(98,54)"/>
<path d="M0 0 C1.65 0 3.3 0 5 0 C5 2.97 5 5.94 5 9 C4.030625 9.28875 3.06125 9.5775 2.0625 9.875 C-1.10664203 10.64214682 -1.10664203 10.64214682 -2 13 C-2.40270732 17.1283652 -2.40270732 17.1283652 -0.8125 20.8125 C1.42031739 22.27538036 3.37344067 22.64505955 6 23 C6 20.03 6 17.06 6 14 C7.98 14 9.96 14 12 14 C12.33 14.66 12.66 15.32 13 16 C21.25 16 29.5 16 38 16 C38.33 15.34 38.66 14.68 39 14 C52.53 14 66.06 14 80 14 C80 17.63 80 21.26 80 25 C74.72 25 69.44 25 64 25 C64 25.99 64 26.98 64 28 C64.56847656 27.98839844 65.13695313 27.97679688 65.72265625 27.96484375 C70.60670484 27.90776806 75.18503965 28.18043228 80 29 C80 31.64 80 34.28 80 37 C72.71409984 37.04682155 65.42823335 37.08211748 58.14221191 37.10362434 C54.75718789 37.11395864 51.37226851 37.12792229 47.98730469 37.15087891 C9.80340058 37.390763 9.80340058 37.390763 0 32 C0 30.35 0 28.7 0 27 C-3.05847848 26.45627049 -5.88772805 26 -9 26 C-9.99 24.02 -10.98 22.04 -12 20 C-10.68 19.67 -9.36 19.34 -8 19 C-8.34227572 16.02934491 -8.34227572 16.02934491 -9 13 C-9.66 12.67 -10.32 12.34 -11 12 C-10.75 9.625 -10.75 9.625 -10 7 C-6.74538479 4.64320967 -3.93179735 5 0 5 C0 3.35 0 1.7 0 0 Z M11 25 C10.01 25.66 9.02 26.32 8 27 C8 27.99 8 28.98 8 30 C11.47939051 29.85923111 14.95845059 29.71144333 18.4375 29.5625 C19.41138672 29.52318359 20.38527344 29.48386719 21.38867188 29.44335938 C27.30061599 29.18631833 33.12645997 28.72280379 39 28 C39.33 27.01 39.66 26.02 40 25 C36.22918278 24.97100401 32.45839417 24.95320271 28.6875 24.9375 C27.61564453 24.92912109 26.54378906 24.92074219 25.43945312 24.91210938 C24.41142578 24.90888672 23.38339844 24.90566406 22.32421875 24.90234375 C21.37635498 24.89710693 20.42849121 24.89187012 19.4519043 24.88647461 C16.86161319 24.89501146 16.86161319 24.89501146 14 26 C13.01 25.67 12.02 25.34 11 25 Z " fill="#B1CFFE" transform="translate(21,88)"/>
<path d="M0 0 C16.83 0 33.66 0 51 0 C51 10.23 51 20.46 51 31 C34.17 31 17.34 31 0 31 C0 20.77 0 10.54 0 0 Z " fill="#474E93" transform="translate(44,47)"/>
<path d="M0 0 C2.97 0.99 5.94 1.98 9 3 C8.9071875 4.3921875 8.9071875 4.3921875 8.8125 5.8125 C8.74760199 8.90747504 8.74760199 8.90747504 10.125 10.875 C12.78034983 12.4682099 14.96789518 12.20214032 18 12 C18 12.99 18 13.98 18 15 C19.28197266 14.98259766 19.28197266 14.98259766 20.58984375 14.96484375 C21.69457031 14.95582031 22.79929688 14.94679688 23.9375 14.9375 C25.03964844 14.92589844 26.14179688 14.91429687 27.27734375 14.90234375 C30 15 30 15 31 16 C31.08748207 17.92667507 31.10697334 19.85651861 31.09765625 21.78515625 C31.09443359 22.95498047 31.09121094 24.12480469 31.08789062 25.33007812 C31.07532227 27.17762695 31.07532227 27.17762695 31.0625 29.0625 C31.05798828 30.29806641 31.05347656 31.53363281 31.04882812 32.80664062 C31.03699608 35.87114117 31.02051173 38.93554721 31 42 C33.475 41.505 33.475 41.505 36 41 C37.0625 42.8125 37.0625 42.8125 38 45 C37.67 45.99 37.34 46.98 37 48 C38.37168238 50.19038423 38.37168238 50.19038423 40 52 C39.3125 53.9375 39.3125 53.9375 38 56 C35.375 56.75 35.375 56.75 33 57 C32.67 58.32 32.34 59.64 32 61 C30.35 61 28.7 61 27 61 C27 60.01 27 59.02 27 58 C23.535 58.495 23.535 58.495 20 59 C18.16308743 55.21812119 17.84162374 53.05431692 19 49 C18.34 49 17.68 49 17 49 C17.33 46.69 17.66 44.38 18 42 C16.68 42 15.36 42 14 42 C13.34 41.01 12.68 40.02 12 39 C12.66 39 13.32 39 14 39 C14 36.69 14 34.38 14 32 C7.4 31.67 0.8 31.34 -6 31 C-6 30.34 -6 29.68 -6 29 C-3.69 29.33 -1.38 29.66 1 30 C0.94779297 28.51886719 0.94779297 28.51886719 0.89453125 27.0078125 C0.86746094 25.72648437 0.84039062 24.44515625 0.8125 23.125 C0.76029297 21.21074219 0.76029297 21.21074219 0.70703125 19.2578125 C0.80371094 18.18273437 0.90039062 17.10765625 1 16 C1.99 15.34 2.98 14.68 4 14 C2.78410016 12.56844101 2.78410016 12.56844101 -0.8125 12.6875 C-3.78617685 12.74622611 -4.87751147 12.92650688 -7.5 14.5 C-9.71177972 18.18629954 -9.34421275 20.73176192 -9 25 C-8.67 25.66 -8.34 26.32 -8 27 C-12.29 27 -16.58 27 -21 27 C-21.33 24.69 -21.66 22.38 -22 20 C-20.02 19.67 -18.04 19.34 -16 19 C-15.75571657 13.2025577 -15.75571657 13.2025577 -18 8 C-13.60546875 3.99609375 -13.60546875 3.99609375 -12 3 C-9 4 -9 4 -8 6 C-5.05272465 5.89830839 -5.05272465 5.89830839 -2 5 C-0.54708727 2.53744315 -0.54708727 2.53744315 0 0 Z M23 47 C23.32326553 50.59679066 23.32326553 50.59679066 24 54 C28.07079208 55.1508314 28.07079208 55.1508314 31.875 53.875 C33.3568671 51.40522151 33.3633156 49.83386167 33 47 C31.11499729 44.68436913 31.11499729 44.68436913 28 44.75 C24.88500271 44.68436913 24.88500271 44.68436913 23 47 Z " fill="#36DDC5" transform="translate(104,18)"/>
<path d="M0 0 C2.31 0 4.62 0 7 0 C7 2.97 7 5.94 7 9 C10.3 9 13.6 9 17 9 C17 15.6 17 22.2 17 29 C12.71 29 8.42 29 4 29 C3.67 33.62 3.34 38.24 3 43 C-0.87504701 43.02703521 -4.74990427 43.04685659 -8.625 43.0625 C-10.26662109 43.07506836 -10.26662109 43.07506836 -11.94140625 43.08789062 C-13.53662109 43.09272461 -13.53662109 43.09272461 -15.1640625 43.09765625 C-16.62513428 43.10551147 -16.62513428 43.10551147 -18.11572266 43.11352539 C-21.14875321 42.99414506 -24.01915268 42.55866724 -27 42 C-27 40 -27 40 -25 38 C-24.59952556 35.67724823 -24.2602896 33.34260643 -24 31 C-22.02 30.67 -20.04 30.34 -18 30 C-18 29.01 -18 28.02 -18 27 C-16.85660156 26.93941406 -15.71320313 26.87882812 -14.53515625 26.81640625 C-13.04425695 26.73201572 -11.55337225 26.64736698 -10.0625 26.5625 C-9.30775391 26.52318359 -8.55300781 26.48386719 -7.77539062 26.44335938 C-4.08055813 26.55961976 -4.08055813 26.55961976 -1 25 C-0.84213692 23.14825294 -0.74892644 21.2909089 -0.68359375 19.43359375 C-0.64169922 18.30888672 -0.59980469 17.18417969 -0.55664062 16.02539062 C-0.51732422 14.84138672 -0.47800781 13.65738281 -0.4375 12.4375 C-0.39431641 11.24962891 -0.35113281 10.06175781 -0.30664062 8.83789062 C-0.20016454 5.89205216 -0.09815159 2.9461257 0 0 Z " fill="#7183FD" transform="translate(98,54)"/>
<path d="M0 0 C1.65 0 3.3 0 5 0 C5 2.97 5 5.94 5 9 C4.030625 9.28875 3.06125 9.5775 2.0625 9.875 C-1.10664203 10.64214682 -1.10664203 10.64214682 -2 13 C-2.45565588 17.050918 -2.45565588 17.050918 -0.80859375 20.5859375 C1.43603616 22.34091812 3.44563281 22.93971804 6.1875 23.6875 C7.08855469 23.93886719 7.98960938 24.19023438 8.91796875 24.44921875 C9.60503906 24.63097656 10.29210937 24.81273438 11 25 C10.67 25.66 10.34 26.32 10 27 C9.34 27 8.68 27 8 27 C8 27.99 8 28.98 8 30 C8.61931396 29.93941406 9.23862793 29.87882812 9.87670898 29.81640625 C12.72989582 29.53983674 15.5836732 29.26988266 18.4375 29 C19.41138672 28.90460938 20.38527344 28.80921875 21.38867188 28.7109375 C27.29048849 28.15825902 33.07255678 27.90192441 39 28 C38.67 28.66 38.34 29.32 38 30 C35.35139573 30.59355614 32.70802678 30.74209269 30 31 C30 31.66 30 32.32 30 33 C44.19 33 58.38 33 73 33 C72.67 32.34 72.34 31.68 72 31 C70.845 30.835 69.69 30.67 68.5 30.5 C67.345 30.335 66.19 30.17 65 30 C64.505 29.01 64.505 29.01 64 28 C69.45769811 27.88861841 74.61509359 28.08342019 80 29 C80 31.64 80 34.28 80 37 C72.71409984 37.04682155 65.42823335 37.08211748 58.14221191 37.10362434 C54.75718789 37.11395864 51.37226851 37.12792229 47.98730469 37.15087891 C9.80340058 37.390763 9.80340058 37.390763 0 32 C0 30.35 0 28.7 0 27 C-3.05847848 26.45627049 -5.88772805 26 -9 26 C-9.99 24.02 -10.98 22.04 -12 20 C-10.68 19.67 -9.36 19.34 -8 19 C-8.34227572 16.02934491 -8.34227572 16.02934491 -9 13 C-9.66 12.67 -10.32 12.34 -11 12 C-10.75 9.625 -10.75 9.625 -10 7 C-6.74538479 4.64320967 -3.93179735 5 0 5 C0 3.35 0 1.7 0 0 Z " fill="#EAEBF2" transform="translate(21,88)"/>
<path d="M0 0 C17.49 0 34.98 0 53 0 C53.495 1.98 53.495 1.98 54 4 C55.27617188 3.98839844 56.55234375 3.97679687 57.8671875 3.96484375 C59.53645687 3.95546583 61.20572783 3.94636563 62.875 3.9375 C64.13763672 3.92493164 64.13763672 3.92493164 65.42578125 3.91210938 C66.23144531 3.90888672 67.03710938 3.90566406 67.8671875 3.90234375 C68.98262939 3.89448853 68.98262939 3.89448853 70.12060547 3.88647461 C72 4 72 4 74 5 C74 8 74 11 74 14 C75.32 14 76.64 14 78 14 C78.495 14.99 78.495 14.99 79 16 C78.67 16.66 78.34 17.32 78 18 C72.39 18 66.78 18 61 18 C61 15.03 61 12.06 61 9 C58.69 9 56.38 9 54 9 C54.01571045 10.12027588 54.01571045 10.12027588 54.03173828 11.26318359 C54.0732077 14.63375508 54.09929729 18.004273 54.125 21.375 C54.14175781 22.550625 54.15851563 23.72625 54.17578125 24.9375 C54.18544922 26.61972656 54.18544922 26.61972656 54.1953125 28.3359375 C54.21102295 29.89127197 54.21102295 29.89127197 54.22705078 31.47802734 C54 34 54 34 52 36 C49.76086426 36.25396729 49.76086426 36.25396729 46.93945312 36.25878906 C45.35771301 36.26824554 45.35771301 36.26824554 43.74401855 36.27789307 C42.60130493 36.2738446 41.45859131 36.26979614 40.28125 36.265625 C38.52802429 36.26849518 38.52802429 36.26849518 36.73937988 36.27142334 C34.26456487 36.27278626 31.78974274 36.26908241 29.31494141 36.26074219 C25.51578795 36.25004446 21.71710741 36.26063418 17.91796875 36.2734375 C15.51822812 36.27211592 13.11848778 36.26955357 10.71875 36.265625 C9.00467957 36.27169769 9.00467957 36.27169769 7.25598145 36.27789307 C6.20148804 36.27158875 5.14699463 36.26528442 4.06054688 36.25878906 C3.1294812 36.25719788 2.19841553 36.25560669 1.23913574 36.25396729 C-1 36 -1 36 -3 34 C-3.22705078 31.01904297 -3.22705078 31.01904297 -3.1953125 27.2421875 C-3.1924826 26.57913605 -3.18965271 25.91608459 -3.18673706 25.23294067 C-3.17553435 23.11344417 -3.15043051 20.99436896 -3.125 18.875 C-3.11497028 17.43880818 -3.10584441 16.00260975 -3.09765625 14.56640625 C-3.075595 11.04413372 -3.04106494 7.52210797 -3 4 C-2.01 4 -1.02 4 0 4 C0 13.57 0 23.14 0 33 C16.83 33 33.66 33 51 33 C51 22.77 51 12.54 51 2 C44.503125 2.0309375 44.503125 2.0309375 37.875 2.0625 C25.22372976 2.09192323 12.63054654 1.72843523 0 1 C0 0.67 0 0.34 0 0 Z " fill="#36D9C7" transform="translate(44,45)"/>
<path d="M0 0 C1.37091797 0.0009668 1.37091797 0.0009668 2.76953125 0.00195312 C9.48435163 0.04685163 9.48435163 0.04685163 10.625 1.1875 C13.43476518 1.34767166 16.22273596 1.44700534 19.03515625 1.50390625 C19.87719101 1.52468735 20.71922577 1.54546844 21.58677673 1.56687927 C24.28693179 1.63246812 26.98718717 1.69130276 29.6875 1.75 C31.51368241 1.79317637 33.33985454 1.83679036 35.16601562 1.88085938 C39.65223992 1.98815894 44.1385655 2.08939966 48.625 2.1875 C48.625 2.5175 48.625 2.8475 48.625 3.1875 C35.755 3.1875 22.885 3.1875 9.625 3.1875 C9.955 4.5075 10.285 5.8275 10.625 7.1875 C23.165 7.5175 35.705 7.8475 48.625 8.1875 C48.625 8.5175 48.625 8.8475 48.625 9.1875 C35.755 9.1875 22.885 9.1875 9.625 9.1875 C9.955 10.5075 10.285 11.8275 10.625 13.1875 C20.855 13.5175 31.085 13.8475 41.625 14.1875 C41.625 14.5175 41.625 14.8475 41.625 15.1875 C34.365 15.1875 27.105 15.1875 19.625 15.1875 C19.625 15.8475 19.625 16.5075 19.625 17.1875 C18.635 17.1875 17.645 17.1875 16.625 17.1875 C16.625 16.5275 16.625 15.8675 16.625 15.1875 C14.315 15.1875 12.005 15.1875 9.625 15.1875 C9.625 17.1675 9.625 19.1475 9.625 21.1875 C0.715 21.1875 -8.195 21.1875 -17.375 21.1875 C-17.375 20.8575 -17.375 20.5275 -17.375 20.1875 C-15.725 19.8575 -14.075 19.5275 -12.375 19.1875 C-12.045 17.8675 -11.715 16.5475 -11.375 15.1875 C-13.355 15.1875 -15.335 15.1875 -17.375 15.1875 C-17.375 14.8575 -17.375 14.5275 -17.375 14.1875 C-15.725 13.8575 -14.075 13.5275 -12.375 13.1875 C-12.045 11.8675 -11.715 10.5475 -11.375 9.1875 C-13.355 9.1875 -15.335 9.1875 -17.375 9.1875 C-17.375 8.8575 -17.375 8.5275 -17.375 8.1875 C-15.725 7.8575 -14.075 7.5275 -12.375 7.1875 C-12.045 5.8675 -11.715 4.5475 -11.375 3.1875 C-13.355 3.1875 -15.335 3.1875 -17.375 3.1875 C-17.375 2.8575 -17.375 2.5275 -17.375 2.1875 C-11.48560037 0.14637931 -6.2030285 -0.08528042 0 0 Z " fill="#9DE4E0" transform="translate(24.375,31.8125)"/>
<path d="M0 0 C1.12019531 -0.00128906 2.24039063 -0.00257812 3.39453125 -0.00390625 C4.57402344 -0.00003906 5.75351562 0.00382812 6.96875 0.0078125 C8.73798828 0.00201172 8.73798828 0.00201172 10.54296875 -0.00390625 C12.22326172 -0.00197266 12.22326172 -0.00197266 13.9375 0 C14.97326172 0.00112793 16.00902344 0.00225586 17.07617188 0.00341797 C19.46875 0.1328125 19.46875 0.1328125 20.46875 1.1328125 C20.56861975 3.97616298 20.60752881 6.78978413 20.59375 9.6328125 C20.59955078 10.82970703 20.59955078 10.82970703 20.60546875 12.05078125 C20.59535767 18.00620483 20.59535767 18.00620483 19.46875 19.1328125 C17.62715977 19.23240871 15.78178033 19.26361661 13.9375 19.265625 C12.81730469 19.26691406 11.69710937 19.26820312 10.54296875 19.26953125 C9.36347656 19.26566406 8.18398438 19.26179688 6.96875 19.2578125 C5.19951172 19.26361328 5.19951172 19.26361328 3.39453125 19.26953125 C1.71423828 19.26759766 1.71423828 19.26759766 0 19.265625 C-1.03576172 19.26449707 -2.07152344 19.26336914 -3.13867188 19.26220703 C-5.53125 19.1328125 -5.53125 19.1328125 -6.53125 18.1328125 C-6.63111975 15.28946202 -6.67002881 12.47584087 -6.65625 9.6328125 C-6.66011719 8.83488281 -6.66398437 8.03695312 -6.66796875 7.21484375 C-6.65573175 0.007248 -6.65573175 0.007248 0 0 Z " fill="#3FB5DF" transform="translate(39.53125,85.8671875)"/>
<path d="M0 0 C3.0000624 -0.02721831 5.99987256 -0.04694378 9 -0.0625 C9.83917969 -0.07087891 10.67835937 -0.07925781 11.54296875 -0.08789062 C12.79013672 -0.09272461 12.79013672 -0.09272461 14.0625 -0.09765625 C15.19365234 -0.10551147 15.19365234 -0.10551147 16.34765625 -0.11352539 C19.91451913 0.03914317 23.45744034 0.55718004 27 1 C27 7.93 27 14.86 27 22 C20.07 22 13.14 22 6 22 C6 21.01 6 20.02 6 19 C4.02 19 2.04 19 0 19 C0 18.34 0 17.68 0 17 C1.98 17 3.96 17 6 17 C6 15.68 6 14.36 6 13 C4.02 13 2.04 13 0 13 C0 12.34 0 11.68 0 11 C1.98 11 3.96 11 6 11 C6 9.68 6 8.36 6 7 C4.02 7 2.04 7 0 7 C0 6.34 0 5.68 0 5 C1.98 5 3.96 5 6 5 C6 4.01 6 3.02 6 2 C3.03 1.505 3.03 1.505 0 1 C0 0.67 0 0.34 0 0 Z " fill="#7FD8E4" transform="translate(7,58)"/>
<path d="M0 0 C1.98 0 3.96 0 6 0 C6.33 0.66 6.66 1.32 7 2 C15.25 2 23.5 2 32 2 C32.33 1.34 32.66 0.68 33 0 C39.27 0 45.54 0 52 0 C50.66666667 2.66666667 49.33333333 5.33333333 48 8 C48.495 9.485 48.495 9.485 49 11 C40.83902914 12.06266965 32.78166757 12.08557176 24.5625 12 C22.06384492 11.97454249 19.56513984 11.95349189 17.06640625 11.9375 C15.97271729 11.92589844 14.87902832 11.91429688 13.75219727 11.90234375 C10.90871965 11.87354461 10.90871965 11.87354461 8 13 C5.21981212 12.23983391 2.67425894 11.09600776 0 10 C0 6.7 0 3.4 0 0 Z " fill="#BBD5FE" transform="translate(27,102)"/>
<path d="M0 0 C2.31 0 4.62 0 7 0 C7.01458252 0.89307861 7.02916504 1.78615723 7.04418945 2.70629883 C7.10527077 6.02217278 7.17942478 9.33721899 7.26245117 12.65258789 C7.29569001 14.08704628 7.32372535 15.52163513 7.34643555 16.95629883 C7.38000271 19.01960807 7.43231413 21.08172303 7.48828125 23.14453125 C7.51446533 24.38565674 7.54064941 25.62678223 7.56762695 26.90551758 C7.73288164 29.99878317 7.73288164 29.99878317 9.53198242 31.9284668 C10.25865112 32.45887573 10.25865112 32.45887573 11 33 C10.34 33.66 9.68 34.32 9 35 C8.01 35 7.02 35 6 35 C6 35.66 6 36.32 6 37 C3.03 37.495 3.03 37.495 0 38 C-0.33 42.95 -0.66 47.9 -1 53 C-3.31 53 -5.62 53 -8 53 C-8 45.74 -8 38.48 -8 31 C-5.36 31 -2.72 31 0 31 C0 24.07 0 17.14 0 10 C-2.64 10 -5.28 10 -8 10 C-8 8.02 -8 6.04 -8 4 C-5.36 4 -2.72 4 0 4 C0 2.68 0 1.36 0 0 Z " fill="#5D52FC" transform="translate(34,49)"/>
<path d="M0 0 C2.97 0.99 5.94 1.98 9 3 C8.9071875 4.3921875 8.9071875 4.3921875 8.8125 5.8125 C8.74760199 8.90747504 8.74760199 8.90747504 10.125 10.875 C12.78034983 12.4682099 14.96789518 12.20214032 18 12 C18 12.99 18 13.98 18 15 C15.87527424 15.05386629 13.75016348 15.09273071 11.625 15.125 C9.84996094 15.15980469 9.84996094 15.15980469 8.0390625 15.1953125 C5 15 5 15 3 13 C-2.54235245 12.42765564 -2.54235245 12.42765564 -7.5 14.5 C-9.71177972 18.18629954 -9.34421275 20.73176192 -9 25 C-8.67 25.66 -8.34 26.32 -8 27 C-12.29 27 -16.58 27 -21 27 C-21.33 24.69 -21.66 22.38 -22 20 C-20.02 19.67 -18.04 19.34 -16 19 C-15.75571657 13.2025577 -15.75571657 13.2025577 -18 8 C-13.60546875 3.99609375 -13.60546875 3.99609375 -12 3 C-9 4 -9 4 -8 6 C-5.05272465 5.89830839 -5.05272465 5.89830839 -2 5 C-0.54708727 2.53744315 -0.54708727 2.53744315 0 0 Z " fill="#E8EAF1" transform="translate(104,18)"/>
<path d="M0 0 C1.32 0 2.64 0 4 0 C4 6.6 4 13.2 4 20 C6.31 20 8.62 20 11 20 C12 21 12 21 12.09765625 23.50390625 C12.08605469 24.51324219 12.07445313 25.52257812 12.0625 26.5625 C12.05347656 27.57441406 12.04445313 28.58632812 12.03515625 29.62890625 C12.02355469 30.41136719 12.01195313 31.19382812 12 32 C7.90996141 33.14982602 3.96822949 33.11094256 -0.25 33.0625 C-0.99507812 33.05798828 -1.74015625 33.05347656 -2.5078125 33.04882812 C-4.3385764 33.03709246 -6.16929873 33.0191585 -8 33 C-5.42215154 30.35247996 -3.08351902 28.05567935 0 26 C-1.98 26 -3.96 26 -6 26 C-6 26.66 -6 27.32 -6 28 C-7.32 28.33 -8.64 28.66 -10 29 C-10 29.99 -10 30.98 -10 32 C-10.66 32 -11.32 32 -12 32 C-12.33 32.66 -12.66 33.32 -13 34 C-13.19456705 32.04235617 -13.38044247 30.08384679 -13.5625 28.125 C-13.71912109 26.48917969 -13.71912109 26.48917969 -13.87890625 24.8203125 C-14 22 -14 22 -13 20 C-8.71 20 -4.42 20 0 20 C0 13.4 0 6.8 0 0 Z " fill="#5F4FFB" transform="translate(115,63)"/>
<path d="M0 0 C2 2 2 2 2.22705078 4.88916016 C2.21657715 6.09362793 2.20610352 7.2980957 2.1953125 8.5390625 C2.18886719 9.84101562 2.18242188 11.14296875 2.17578125 12.484375 C2.15906929 13.86458595 2.14213939 15.24479429 2.125 16.625 C2.11497006 18.01301452 2.10584423 19.40103589 2.09765625 20.7890625 C2.07401931 24.19278192 2.03814731 27.59641228 2 31 C-6.25 31 -14.5 31 -23 31 C-23.26785714 17.74107143 -23.26785714 17.74107143 -21 13 C-20.67 13 -20.34 13 -20 13 C-19.67 15.31 -19.34 17.62 -19 20 C-13.72 20 -8.44 20 -3 20 C-2.95101562 18.72382812 -2.90203125 17.44765625 -2.8515625 16.1328125 C-2.77653809 14.46351928 -2.70099012 12.79424954 -2.625 11.125 C-2.57859375 9.86236328 -2.57859375 9.86236328 -2.53125 8.57421875 C-2.49257812 7.76855469 -2.45390625 6.96289062 -2.4140625 6.1328125 C-2.3826416 5.38918457 -2.3512207 4.64555664 -2.31884766 3.87939453 C-2 2 -2 2 0 0 Z " fill="#7284FE" transform="translate(125,93)"/>
<path d="M0 0 C1.58206057 0.00667536 3.16410534 0.0186375 4.74609375 0.03515625 C5.55240234 0.03966797 6.35871094 0.04417969 7.18945312 0.04882812 C9.18753131 0.06065107 11.18557158 0.07858711 13.18359375 0.09765625 C13.21043687 2.91021906 13.23035563 5.72252866 13.24609375 8.53515625 C13.25447266 9.33759766 13.26285156 10.14003906 13.27148438 10.96679688 C13.28010805 13.01060846 13.23587525 15.05449527 13.18359375 17.09765625 C11.36243372 18.91881628 8.87687611 18.23000705 6.45703125 18.234375 C5.70679687 18.23050781 4.9565625 18.22664063 4.18359375 18.22265625 C3.05824219 18.22845703 3.05824219 18.22845703 1.91015625 18.234375 C-3.68979572 18.22426678 -3.68979572 18.22426678 -4.81640625 17.09765625 C-4.91621839 14.42034245 -4.955205 11.7746145 -4.94140625 9.09765625 C-4.94527344 8.34742187 -4.94914062 7.5971875 -4.953125 6.82421875 C-4.94103514 0.12643386 -4.94103514 0.12643386 0 0 Z " fill="#3DCFE4" transform="translate(109.81640625,95.90234375)"/>
<path d="M0 0 C9 0 18 0 27 0 C27 3.96 27 7.92 27 12 C23.12495299 12.02703521 19.25009573 12.04685659 15.375 12.0625 C13.73337891 12.07506836 13.73337891 12.07506836 12.05859375 12.08789062 C10.46337891 12.09272461 10.46337891 12.09272461 8.8359375 12.09765625 C7.86188965 12.10289307 6.8878418 12.10812988 5.88427734 12.11352539 C2.85124679 11.99414506 -0.01915268 11.55866724 -3 11 C-3 9 -3 9 -1 7 C-0.59952556 4.67724823 -0.2602896 2.34260643 0 0 Z " fill="#778CFE" transform="translate(74,85)"/>
<path d="M0 0 C5.61 0 11.22 0 17 0 C17 5.61 17 11.22 17 17 C11.39 17 5.78 17 0 17 C0 11.39 0 5.78 0 0 Z " fill="#3E4E9A" transform="translate(15,34)"/>
<path d="M0 0 C3.15973987 0.30092761 3.54183127 0.99323388 5.625 3.25 C6.470625 3.559375 7.31625 3.86875 8.1875 4.1875 C10.625 5.25 10.625 5.25 11.9375 7.375 C12.2778125 8.303125 12.2778125 8.303125 12.625 9.25 C11.965 9.58 11.305 9.91 10.625 10.25 C10.955 10.91 11.285 11.57 11.625 12.25 C10.965 12.25 10.305 12.25 9.625 12.25 C9.625 12.91 9.625 13.57 9.625 14.25 C7.975 14.91 6.325 15.57 4.625 16.25 C4.851875 16.848125 5.07875 17.44625 5.3125 18.0625 C5.415625 18.784375 5.51875 19.50625 5.625 20.25 C4.1875 22 4.1875 22 2.625 23.25 C-1.25 21.5 -1.25 21.5 -2.375 19.25 C-1.715 19.25 -1.055 19.25 -0.375 19.25 C-0.375 16.94 -0.375 14.63 -0.375 12.25 C-6.975 11.92 -13.575 11.59 -20.375 11.25 C-20.375 10.59 -20.375 9.93 -20.375 9.25 C-17.405 9.25 -14.435 9.25 -11.375 9.25 C-11.045 7.93 -10.715 6.61 -10.375 5.25 C-8.725 5.25 -7.075 5.25 -5.375 5.25 C-5.065625 4.610625 -4.75625 3.97125 -4.4375 3.3125 C-2.88764755 0.3039629 -2.88764755 0.3039629 0 0 Z " fill="#3ED5D1" transform="translate(118.375,37.75)"/>
<path d="M0 0 C2.475 0.495 2.475 0.495 5 1 C5.02684312 3.81256281 5.04676188 6.62487241 5.0625 9.4375 C5.07087891 10.23994141 5.07925781 11.04238281 5.08789062 11.86914062 C5.0965143 13.91295221 5.0522815 15.95683902 5 18 C4 19 4 19 1.59155273 19.11352539 C0.54942627 19.10828857 -0.4927002 19.10305176 -1.56640625 19.09765625 C-2.69111328 19.09443359 -3.81582031 19.09121094 -4.97460938 19.08789062 C-6.15861328 19.07951172 -7.34261719 19.07113281 -8.5625 19.0625 C-9.75037109 19.05798828 -10.93824219 19.05347656 -12.16210938 19.04882812 C-15.10812226 19.03699675 -18.05403681 19.02051287 -21 19 C-21.33 18.01 -21.66 17.02 -22 16 C-16.39 16 -10.78 16 -5 16 C-5 15.34 -5 14.68 -5 14 C-4.34 14 -3.68 14 -3 14 C-3 13.01 -3 12.02 -3 11 C-5.47266765 11.34444881 -5.47266765 11.34444881 -8 12 C-8.33 12.66 -8.66 13.32 -9 14 C-9.66 14 -10.32 14 -11 14 C-10.44271087 10.65626525 -9.64826111 7.96687001 -8 5 C-7.34 5 -6.68 5 -6 5 C-6 5.66 -6 6.32 -6 7 C-5.54625 6.54625 -5.0925 6.0925 -4.625 5.625 C-3.41666667 4.41666667 -2.20833333 3.20833333 -1 2 C-0.67 1.34 -0.34 0.68 0 0 Z " fill="#37D8C6" transform="translate(55,86)"/>
<path d="M0 0 C2.31 0 4.62 0 7 0 C7.14541967 4.22880411 7.23411527 8.45696413 7.3125 12.6875 C7.3753418 14.48477539 7.3753418 14.48477539 7.43945312 16.31835938 C7.5608921 25.03767802 7.5608921 25.03767802 5.86474609 27.94775391 C4.48046875 29.33203125 4.48046875 29.33203125 2 31 C0.41596476 29.41596476 0.78025065 27.7228362 0.68359375 25.52734375 C0.64169922 24.62822266 0.59980469 23.72910156 0.55664062 22.80273438 C0.51732422 21.85720703 0.47800781 20.91167969 0.4375 19.9375 C0.39431641 18.98810547 0.35113281 18.03871094 0.30664062 17.06054688 C0.20020724 14.70718647 0.09818992 12.35371646 0 10 C-2.64 10 -5.28 10 -8 10 C-8 8.02 -8 6.04 -8 4 C-5.36 4 -2.72 4 0 4 C0 2.68 0 1.36 0 0 Z " fill="#5A38FF" transform="translate(34,49)"/>
<path d="M0 0 C2.95839355 -0.02689449 5.91654427 -0.04678741 8.875 -0.0625 C9.71675781 -0.07087891 10.55851562 -0.07925781 11.42578125 -0.08789062 C12.23144531 -0.09111328 13.03710938 -0.09433594 13.8671875 -0.09765625 C14.98262939 -0.10551147 14.98262939 -0.10551147 16.12060547 -0.11352539 C18 0 18 0 20 1 C20 4 20 7 20 10 C21.32 10 22.64 10 24 10 C24.33 10.66 24.66 11.32 25 12 C24.67 12.66 24.34 13.32 24 14 C18.39 14 12.78 14 7 14 C7 11.03 7 8.06 7 5 C4.69 5 2.38 5 0 5 C0 3.35 0 1.7 0 0 Z " fill="#3AC5D7" transform="translate(98,49)"/>
<path d="M0 0 C13.53 0 27.06 0 41 0 C41 1.65 41 3.3 41 5 C27.47 5 13.94 5 0 5 C0 3.35 0 1.7 0 0 Z " fill="#3C3D89" transform="translate(60,97)"/>
<path d="M0 0 C0.8971875 0.5259375 0.8971875 0.5259375 1.8125 1.0625 C1.585625 1.805 1.35875 2.5475 1.125 3.3125 C0.51773302 6.12164993 0.51773302 6.12164993 2.25 8.375 C2.765625 8.931875 3.28125 9.48875 3.8125 10.0625 C3.125 12 3.125 12 1.8125 14.0625 C-0.8125 14.8125 -0.8125 14.8125 -3.1875 15.0625 C-3.5175 16.3825 -3.8475 17.7025 -4.1875 19.0625 C-5.8375 19.0625 -7.4875 19.0625 -9.1875 19.0625 C-9.1875 18.0725 -9.1875 17.0825 -9.1875 16.0625 C-11.4975 16.3925 -13.8075 16.7225 -16.1875 17.0625 C-18.02441257 13.28062119 -18.34587626 11.11681692 -17.1875 7.0625 C-17.8475 7.0625 -18.5075 7.0625 -19.1875 7.0625 C-19.1875 5.7425 -19.1875 4.4225 -19.1875 3.0625 C-16.5475 3.0625 -13.9075 3.0625 -11.1875 3.0625 C-11.3525 4.17625 -11.5175 5.29 -11.6875 6.4375 C-12.2330458 9.78282033 -12.2330458 9.78282033 -12.1875 12.0625 C-9.27097826 12.22931109 -9.27097826 12.22931109 -6.1875 12.0625 C-3.94682778 10.24267538 -3.94682778 10.24267538 -3.9375 7.625 C-4.00782184 4.82145635 -4.00782184 4.82145635 -6.1875 2.0625 C-4.66896708 -0.97456585 -3.05066334 -1.30742714 0 0 Z " fill="#E9EAF2" transform="translate(140.1875,59.9375)"/>
<path d="M0 0 C0.99 0 1.98 0 3 0 C3 9.57 3 19.14 3 29 C9.93 29 16.86 29 24 29 C24 29.33 24 29.66 24 30 C34.23 30.33 44.46 30.66 55 31 C55 31.33 55 31.66 55 32 C47.48863592 32.05057965 39.97731551 32.08568257 32.46582031 32.10986328 C29.90883747 32.11994038 27.35186621 32.13360226 24.79492188 32.15087891 C21.12627308 32.17505217 17.45777621 32.18646585 13.7890625 32.1953125 C12.0655809 32.21079636 12.0655809 32.21079636 10.30728149 32.22659302 C9.2463327 32.22674408 8.18538391 32.22689514 7.09228516 32.22705078 C6.15518707 32.231492 5.21808899 32.23593323 4.25259399 32.24050903 C2 32 2 32 0 30 C-0.22705078 27.01904297 -0.22705078 27.01904297 -0.1953125 23.2421875 C-0.1924826 22.57913605 -0.18965271 21.91608459 -0.18673706 21.23294067 C-0.17553435 19.11344417 -0.15043051 16.99436896 -0.125 14.875 C-0.11497028 13.43880818 -0.10584441 12.00260975 -0.09765625 10.56640625 C-0.075595 7.04413372 -0.04106494 3.52210797 0 0 Z " fill="#43A5E6" transform="translate(41,49)"/>
<path d="M0 0 C2.64 0 5.28 0 8 0 C8 6.93 8 13.86 8 21 C1.07 21 -5.86 21 -13 21 C-13 20.01 -13 19.02 -13 18 C-11.88625 17.855625 -10.7725 17.71125 -9.625 17.5625 C-6.17857953 17.21627965 -6.17857953 17.21627965 -4 16 C-4 16.66 -4 17.32 -4 18 C-2.68 18 -1.36 18 0 18 C0 17.01 0 16.02 0 15 C1.32 15 2.64 15 4 15 C3.67 12.36 3.34 9.72 3 7 C2.01 6.67 1.02 6.34 0 6 C0 4.02 0 2.04 0 0 Z " fill="#34D3D0" transform="translate(26,59)"/>
<path d="M0 0 C4.62 0 9.24 0 14 0 C14.33 0.99 14.66 1.98 15 3 C13.02 3.99 13.02 3.99 11 5 C18.26 5.33 25.52 5.66 33 6 C33 6.66 33 7.32 33 8 C18.81 8 4.62 8 -10 8 C-10 7.34 -10 6.68 -10 6 C-7.98177083 5.609375 -5.96354167 5.21875 -3.9453125 4.828125 C-1.47178598 4.02322581 -1.47178598 4.02322581 0 0 Z " fill="#9EC3FE" transform="translate(61,113)"/>
<path d="M0 0 C1.98 0 3.96 0 6 0 C6.33 0.66 6.66 1.32 7 2 C10.40614199 2.26404201 13.77106462 2.36689272 17.18554688 2.390625 C19.33984375 2.4609375 19.33984375 2.4609375 23 3 C24.50390625 5.0390625 24.50390625 5.0390625 25 7 C23.18702114 7 21.37309963 6.96785126 19.5625 6.875 C16.7358459 7.01288557 15.34366415 7.43755723 13 9 C11.26574227 11.03317007 11.26574227 11.03317007 10 13 C8.51988629 12.69201674 7.04092675 12.378482 5.5625 12.0625 C4.73878906 11.88847656 3.91507813 11.71445313 3.06640625 11.53515625 C1 11 1 11 0 10 C-0.07205511 8.31391034 -0.08386068 6.62499341 -0.0625 4.9375 C-0.05347656 4.01839844 -0.04445313 3.09929687 -0.03515625 2.15234375 C-0.02355469 1.44207031 -0.01195313 0.73179688 0 0 Z " fill="#C6DCFE" transform="translate(27,102)"/>
<path d="M0 0 C1.32 0 2.64 0 4 0 C4 6.6 4 13.2 4 20 C6.31 20 8.62 20 11 20 C11.33 20.99 11.66 21.98 12 23 C3.19039858 24.30512614 -5.19039858 24.30512614 -14 23 C-13.505 21.515 -13.505 21.515 -13 20 C-8.71 20 -4.42 20 0 20 C0 13.4 0 6.8 0 0 Z " fill="#4C4CA1" transform="translate(115,63)"/>
<path d="M0 0 C1.31871094 -0.01224609 2.63742188 -0.02449219 3.99609375 -0.03710938 C5.90068359 -0.04000977 5.90068359 -0.04000977 7.84375 -0.04296875 C9.00068359 -0.04707764 10.15761719 -0.05118652 11.34960938 -0.05541992 C14.47736509 0.18575467 16.680892 0.85423629 19.5 2.1875 C18.5 4.1875 18.5 4.1875 16.84521484 4.80200195 C11.99200924 5.59975457 7.04404055 5.37340312 2.13769531 5.37280273 C0.13863013 5.37498512 -1.86039532 5.39349143 -3.859375 5.41210938 C-5.13039063 5.41404297 -6.40140625 5.41597656 -7.7109375 5.41796875 C-8.86899902 5.42207764 -10.02706055 5.42618652 -11.22021484 5.43041992 C-14.61310954 5.17912245 -17.33332989 4.39923908 -20.5 3.1875 C-20.17 2.5275 -19.84 1.8675 -19.5 1.1875 C-13.23640183 -0.60566158 -6.45139424 0.00315317 0 0 Z " fill="#EAEBF2" transform="translate(114.5,125.8125)"/>
<path d="M0 0 C1.58206057 0.00667536 3.16410534 0.0186375 4.74609375 0.03515625 C5.55240234 0.03966797 6.35871094 0.04417969 7.18945312 0.04882812 C9.18753131 0.06065107 11.18557158 0.07858711 13.18359375 0.09765625 C13.18359375 2.40765625 13.18359375 4.71765625 13.18359375 7.09765625 C10.87359375 6.76765625 8.56359375 6.43765625 6.18359375 6.09765625 C5.79171875 6.73703125 5.39984375 7.37640625 4.99609375 8.03515625 C2.79887079 10.53544444 1.42567942 10.7471605 -1.81640625 11.09765625 C-2.14640625 12.08765625 -2.47640625 13.07765625 -2.81640625 14.09765625 C-3.47640625 14.09765625 -4.13640625 14.09765625 -4.81640625 14.09765625 C-4.84326563 11.95188988 -4.86273713 9.8060298 -4.87890625 7.66015625 C-4.89050781 6.46519531 -4.90210937 5.27023438 -4.9140625 4.0390625 C-4.76748251 -0.37592684 -4.58410302 0.11730049 0 0 Z " fill="#6BD4E2" transform="translate(109.81640625,32.90234375)"/>
<path d="M0 0 C1.81242052 -0.02687279 3.62495233 -0.04633715 5.4375 -0.0625 C6.44683594 -0.07410156 7.45617187 -0.08570313 8.49609375 -0.09765625 C11 0 11 0 12 1 C12.09886353 2.62252492 12.12971167 4.24947273 12.125 5.875 C12.12757813 6.75929688 12.13015625 7.64359375 12.1328125 8.5546875 C12 11 12 11 11 14 C10.01 14 9.02 14 8 14 C7.54625 13.38125 7.0925 12.7625 6.625 12.125 C4.67293461 9.5722991 3.01102279 8.97654793 0 8 C0 5.36 0 2.72 0 0 Z " fill="#35D3D2" transform="translate(123,33)"/>
<path d="M0 0 C1.32 0 2.64 0 4 0 C4 0.66 4 1.32 4 2 C5.65 2.33 7.3 2.66 9 3 C9 5.64 9 8.28 9 11 C7.68 11 6.36 11 5 11 C5 11.99 5 12.98 5 14 C3.68 14 2.36 14 1 14 C1 13.01 1 12.02 1 11 C-0.65 10.67 -2.3 10.34 -4 10 C-4 7.69 -4 5.38 -4 3 C-2.68 3 -1.36 3 0 3 C0 2.01 0 1.02 0 0 Z " fill="#E7F7FA" transform="translate(21,63)"/>
<path d="M0 0 C0.02685938 2.14576637 0.04633088 4.29162645 0.0625 6.4375 C0.07410156 7.63246094 0.08570312 8.82742187 0.09765625 10.05859375 C0 13 0 13 -1 14 C-3.35313555 14.07271741 -5.70833668 14.08370868 -8.0625 14.0625 C-9.35285156 14.05347656 -10.64320312 14.04445313 -11.97265625 14.03515625 C-12.97167969 14.02355469 -13.97070312 14.01195313 -15 14 C-15 13.34 -15 12.68 -15 12 C-14.34 12 -13.68 12 -13 12 C-12.67 11.01 -12.34 10.02 -12 9 C-11.34 8.01 -10.68 7.02 -10 6 C-9.34 6 -8.68 6 -8 6 C-6.31237149 4.3545622 -4.6459651 2.68711423 -3 1 C-1 0 -1 0 0 0 Z " fill="#38D7D7" transform="translate(123,100)"/>
<path d="M0 0 C0.92683594 0.00451172 1.85367188 0.00902344 2.80859375 0.01367188 C5.08079709 0.02538426 7.35286388 0.04178628 9.625 0.0625 C8.965 2.7025 8.305 5.3425 7.625 8.0625 C7.295 7.0725 6.965 6.0825 6.625 5.0625 C-0.635 5.0625 -7.895 5.0625 -15.375 5.0625 C-15.705 3.7425 -16.035 2.4225 -16.375 1.0625 C-10.89230931 -0.09414737 -5.57160726 -0.05166255 0 0 Z " fill="#655CFE" transform="translate(55.375,80.9375)"/>
<path d="M0 0 C3.15973987 0.30092761 3.54183127 0.99323388 5.625 3.25 C6.49125 3.58 7.3575 3.91 8.25 4.25 C9.03375 4.58 9.8175 4.91 10.625 5.25 C10.955 6.24 11.285 7.23 11.625 8.25 C4.365 8.25 -2.895 8.25 -10.375 8.25 C-10.375 7.26 -10.375 6.27 -10.375 5.25 C-8.725 5.25 -7.075 5.25 -5.375 5.25 C-5.065625 4.610625 -4.75625 3.97125 -4.4375 3.3125 C-2.88764755 0.3039629 -2.88764755 0.3039629 0 0 Z " fill="#F6FCFD" transform="translate(118.375,37.75)"/>
<path d="M0 0 C1.58206057 0.00667536 3.16410534 0.0186375 4.74609375 0.03515625 C5.55240234 0.03966797 6.35871094 0.04417969 7.18945312 0.04882812 C9.18753131 0.06065107 11.18557158 0.07858711 13.18359375 0.09765625 C12.56484375 0.38640625 11.94609375 0.67515625 11.30859375 0.97265625 C9.0503361 2.03485667 9.0503361 2.03485667 7.18359375 4.09765625 C6.19359375 4.09765625 5.20359375 4.09765625 4.18359375 4.09765625 C4.18359375 4.75765625 4.18359375 5.41765625 4.18359375 6.09765625 C3.52359375 6.09765625 2.86359375 6.09765625 2.18359375 6.09765625 C1.52359375 7.74765625 0.86359375 9.39765625 0.18359375 11.09765625 C0.84359375 11.09765625 1.50359375 11.09765625 2.18359375 11.09765625 C1.85359375 12.08765625 1.52359375 13.07765625 1.18359375 14.09765625 C0.52359375 13.43765625 -0.13640625 12.77765625 -0.81640625 12.09765625 C-2.88514659 11.45513275 -2.88514659 11.45513275 -4.81640625 11.09765625 C-4.84328776 9.45191059 -4.86274748 7.80604212 -4.87890625 6.16015625 C-4.89050781 5.24363281 -4.90210938 4.32710938 -4.9140625 3.3828125 C-4.74806315 -0.5015722 -4.08167578 0.10444411 0 0 Z " fill="#41A8E5" transform="translate(37.81640625,85.90234375)"/>
<path d="M0 0 C2.95839355 -0.02689449 5.91654427 -0.04678741 8.875 -0.0625 C9.71675781 -0.07087891 10.55851562 -0.07925781 11.42578125 -0.08789062 C12.23144531 -0.09111328 13.03710938 -0.09433594 13.8671875 -0.09765625 C14.98262939 -0.10551147 14.98262939 -0.10551147 16.12060547 -0.11352539 C18 0 18 0 20 1 C20 3.31 20 5.62 20 8 C19.01 8 18.02 8 17 8 C17 7.01 17 6.02 17 5 C11.39 5 5.78 5 0 5 C0 3.35 0 1.7 0 0 Z " fill="#34ACC5" transform="translate(98,49)"/>
<path d="M0 0 C1.32 0 2.64 0 4 0 C4 5.61 4 11.22 4 17 C4.99 17 5.98 17 7 17 C7 18.65 7 20.3 7 22 C4.69 22 2.38 22 0 22 C0 14.74 0 7.48 0 0 Z " fill="#41468F" transform="translate(26,80)"/>
<path d="M0 0 C2.31 0 4.62 0 7 0 C7.33 0.66 7.66 1.32 8 2 C9.32 2 10.64 2 12 2 C12 5.3 12 8.6 12 12 C8.37 12 4.74 12 1 12 C1 9 1 9 3 6.8125 C3.66 6.214375 4.32 5.61625 5 5 C3.35 5.66 1.7 6.32 0 7 C0.66 5.68 1.32 4.36 2 3 C2.99 3 3.98 3 5 3 C5 2.34 5 1.68 5 1 C3.35 1 1.7 1 0 1 C0 0.67 0 0.34 0 0 Z " fill="#788FFE" transform="translate(103,70)"/>
<path d="M0 0 C0.33 0 0.66 0 1 0 C1.33 2.31 1.66 4.62 2 7 C4.31 7.33 6.62 7.66 9 8 C8.67 8.99 8.34 9.98 8 11 C8.33 11.66 8.66 12.32 9 13 C7.6875 14.5 7.6875 14.5 6 16 C5.01 16 4.02 16 3 16 C2.67 16.66 2.34 17.32 2 18 C0.68 18 -0.64 18 -2 18 C-2.054348 15.9377952 -2.09294961 13.87517184 -2.125 11.8125 C-2.14820312 10.66394531 -2.17140625 9.51539062 -2.1953125 8.33203125 C-2.00484152 5.08259628 -1.39360127 2.91339479 0 0 Z " fill="#6C71FE" transform="translate(104,106)"/>
<path d="M0 0 C2.31 0 4.62 0 7 0 C7.05395478 1.62463842 7.09277195 3.24978541 7.125 4.875 C7.14820312 5.77992187 7.17140625 6.68484375 7.1953125 7.6171875 C7 10 7 10 5 12 C4.01 12.495 4.01 12.495 3 13 C3 14.32 3 15.64 3 17 C2.01 17.33 1.02 17.66 0 18 C0 12.06 0 6.12 0 0 Z " fill="#6C74FE" transform="translate(98,54)"/>
<path d="M0 0 C17.49 0 34.98 0 53 0 C53.495 1.98 53.495 1.98 54 4 C53.01 4 52.02 4 51 4 C51 3.34 51 2.68 51 2 C49.8550708 2.00785522 49.8550708 2.00785522 48.68701172 2.01586914 C32.42146108 2.11217993 16.24305287 1.93677751 0 1 C0 0.67 0 0.34 0 0 Z " fill="#52D5D8" transform="translate(44,45)"/>
<path d="M0 0 C1.93166016 0.01740234 1.93166016 0.01740234 3.90234375 0.03515625 C5.19269531 0.04417969 6.48304687 0.05320312 7.8125 0.0625 C8.81152344 0.07410156 9.81054688 0.08570312 10.83984375 0.09765625 C9.90011719 0.78794922 9.90011719 0.78794922 8.94140625 1.4921875 C6.8353093 3.01718874 6.8353093 3.01718874 5.21484375 4.78515625 C3.83984375 6.09765625 3.83984375 6.09765625 1.83984375 6.09765625 C1.83984375 6.75765625 1.83984375 7.41765625 1.83984375 8.09765625 C-0.14015625 9.08765625 -0.14015625 9.08765625 -2.16015625 10.09765625 C-2.16015625 11.08765625 -2.16015625 12.07765625 -2.16015625 13.09765625 C-2.82015625 13.09765625 -3.48015625 13.09765625 -4.16015625 13.09765625 C-4.18702178 11.11856227 -4.20649 9.13936654 -4.22265625 7.16015625 C-4.23425781 6.05800781 -4.24585937 4.95585938 -4.2578125 3.8203125 C-4.11749553 -0.09172464 -3.97435676 0.12281696 0 0 Z " fill="#40C2EE" transform="translate(109.16015625,95.90234375)"/>
<path d="M0 0 C0 0.33 0 0.66 0 1 C-1.98 1 -3.96 1 -6 1 C-6 6.61 -6 12.22 -6 18 C-3.03 18.33 -0.06 18.66 3 19 C3 19.33 3 19.66 3 20 C-2.61 20 -8.22 20 -14 20 C-14 19.67 -14 19.34 -14 19 C-12.35 18.67 -10.7 18.34 -9 18 C-8.67 16.68 -8.34 15.36 -8 14 C-9.98 14 -11.96 14 -14 14 C-14 13.67 -14 13.34 -14 13 C-12.35 12.67 -10.7 12.34 -9 12 C-8.67 10.68 -8.34 9.36 -8 8 C-9.98 8 -11.96 8 -14 8 C-14 7.67 -14 7.34 -14 7 C-12.35 6.67 -10.7 6.34 -9 6 C-8.67 4.68 -8.34 3.36 -8 2 C-9.98 2 -11.96 2 -14 2 C-14 1.67 -14 1.34 -14 1 C-9.32798795 -0.20568053 -4.78503708 -0.09382426 0 0 Z " fill="#74D9E0" transform="translate(21,33)"/>
<path d="M0 0 C1.32 0 2.64 0 4 0 C4 6.6 4 13.2 4 20 C2.68 19.67 1.36 19.34 0 19 C0 12.73 0 6.46 0 0 Z " fill="#3E3E8B" transform="translate(115,63)"/>
<path d="M0 0 C4.875 0.875 4.875 0.875 6 2 C6.33 1.34 6.66 0.68 7 0 C8.32 0 9.64 0 11 0 C11 0.99 11 1.98 11 3 C11.66 3 12.32 3 13 3 C13.33 2.01 13.66 1.02 14 0 C15.65 0 17.3 0 19 0 C19 0.99 19 1.98 19 3 C18.34 3 17.68 3 17 3 C17 3.66 17 4.32 17 5 C11.39 5 5.78 5 0 5 C0 3.35 0 1.7 0 0 Z " fill="#36ADC6" transform="translate(33,97)"/>
<path d="M0 0 C0.99 0 1.98 0 3 0 C3 2.97 3 5.94 3 9 C-0.26881973 9.81720493 -2.46999069 10.11073543 -5.75 10.0625 C-6.54921875 10.05347656 -7.3484375 10.04445313 -8.171875 10.03515625 C-8.77515625 10.02355469 -9.3784375 10.01195313 -10 10 C-9.375 7.5625 -9.375 7.5625 -8 5 C-6.00714063 4.62633887 -4.00636471 4.29259485 -2 4 C-0.56362302 2.04836882 -0.56362302 2.04836882 0 0 Z " fill="#655BFF" transform="translate(124,86)"/>
<path d="M0 0 C8.58 0 17.16 0 26 0 C25.67 0.99 25.34 1.98 25 3 C17.08 3 9.16 3 1 3 C0.67 2.01 0.34 1.02 0 0 Z " fill="#4C4CA0" transform="translate(101,124)"/>
<path d="M0 0 C0.66 0 1.32 0 2 0 C2 0.66 2 1.32 2 2 C3.65 1.34 5.3 0.68 7 0 C8.32 1.65 9.64 3.3 11 5 C9.71034824 6.37562854 8.37310707 7.70766393 7 9 C6.34 9 5.68 9 5 9 C5 8.01 5 7.02 5 6 C2.52733235 6.34444881 2.52733235 6.34444881 0 7 C-0.33 7.66 -0.66 8.32 -1 9 C-1.66 9 -2.32 9 -3 9 C-2.44271087 5.65626525 -1.64826111 2.96687001 0 0 Z " fill="#4CCCDA" transform="translate(47,91)"/>
<path d="M0 0 C2 2 2 2 2.1953125 5.9140625 C2.18200376 7.48449351 2.15813602 9.05486221 2.125 10.625 C2.11597656 11.42679688 2.10695313 12.22859375 2.09765625 13.0546875 C2.07406223 15.03658523 2.03819065 17.01832981 2 19 C0.68 19.33 -0.64 19.66 -2 20 C-2.05379226 17.04142591 -2.09357093 14.08382279 -2.125 11.125 C-2.14175781 10.28324219 -2.15851563 9.44148438 -2.17578125 8.57421875 C-2.18222656 7.76855469 -2.18867187 6.96289062 -2.1953125 6.1328125 C-2.21102295 5.01737061 -2.21102295 5.01737061 -2.22705078 3.87939453 C-2 2 -2 2 0 0 Z " fill="#707FFE" transform="translate(125,93)"/>
<path d="M0 0 C1.67542976 0.28604898 3.34385343 0.61781233 5 1 C5.75 3.75 5.75 3.75 6 7 C4.125 9.1875 4.125 9.1875 2 11 C1.67 11.99 1.34 12.98 1 14 C0.34 14 -0.32 14 -1 14 C-1.02685938 11.85423363 -1.04633088 9.70837355 -1.0625 7.5625 C-1.07410156 6.36753906 -1.08570312 5.17257813 -1.09765625 3.94140625 C-1 1 -1 1 0 0 Z " fill="#32C6E0" transform="translate(106,33)"/>
<path d="M0 0 C0.33 0.66 0.66 1.32 1 2 C8.59 1.67 16.18 1.34 24 1 C24 1.66 24 2.32 24 3 C17.565 3.495 17.565 3.495 11 4 C11.99 5.485 11.99 5.485 13 7 C12.42926758 6.84152588 11.85853516 6.68305176 11.27050781 6.51977539 C9.02789812 6.00638657 6.96682085 5.79834104 4.671875 5.68359375 C3.87265625 5.64169922 3.0734375 5.59980469 2.25 5.55664062 C1.0125 5.49766602 1.0125 5.49766602 -0.25 5.4375 C-1.09046875 5.39431641 -1.9309375 5.35113281 -2.796875 5.30664062 C-4.86440671 5.20091457 -6.93218281 5.09998705 -9 5 C-9 4.34 -9 3.68 -9 3 C-6.03 3 -3.06 3 0 3 C0 2.01 0 1.02 0 0 Z " fill="#86D8E2" transform="translate(107,44)"/>
<path d="M0 0 C2.31 0 4.62 0 7 0 C7 1.65 7 3.3 7 5 C3.37 5 -0.26 5 -4 5 C-4 6.65 -4 8.3 -4 10 C-5.32 10 -6.64 10 -8 10 C-8 8.02 -8 6.04 -8 4 C-5.36 4 -2.72 4 0 4 C0 2.68 0 1.36 0 0 Z " fill="#3D418D" transform="translate(34,49)"/>
<path d="M0 0 C2.64 0 5.28 0 8 0 C8 2.64 8 5.28 8 8 C6.35 8.33 4.7 8.66 3 9 C3 8.34 3 7.68 3 7 C2.01 6.67 1.02 6.34 0 6 C0 4.02 0 2.04 0 0 Z " fill="#3FBBDB" transform="translate(26,59)"/>
<path d="M0 0 C1.24716797 0.00322266 2.49433594 0.00644531 3.77929688 0.00976562 C5.07287109 0.01814453 6.36644531 0.02652344 7.69921875 0.03515625 C9.66858398 0.04192383 9.66858398 0.04192383 11.67773438 0.04882812 C14.91410885 0.06059676 18.15039053 0.07703865 21.38671875 0.09765625 C21.05671875 0.75765625 20.72671875 1.41765625 20.38671875 2.09765625 C19.73074707 2.11747559 19.07477539 2.13729492 18.39892578 2.15771484 C15.43610806 2.25278132 12.47401343 2.36253377 9.51171875 2.47265625 C7.96291016 2.5190625 7.96291016 2.5190625 6.3828125 2.56640625 C4.90361328 2.62441406 4.90361328 2.62441406 3.39453125 2.68359375 C2.4833252 2.71501465 1.57211914 2.74643555 0.63330078 2.77880859 C-1.81259311 2.89648136 -1.81259311 2.89648136 -3.61328125 5.09765625 C-6.34197532 5.06478042 -8.90994305 4.53367854 -11.61328125 4.09765625 C-11.61328125 3.10765625 -11.61328125 2.11765625 -11.61328125 1.09765625 C-7.68039761 0.16677716 -4.03673962 -0.0184326 0 0 Z " fill="#D9D9E8" transform="translate(106.61328125,125.90234375)"/>
<path d="M0 0 C0.99 0.33 1.98 0.66 3 1 C3 4.96 3 8.92 3 13 C0.69 13 -1.62 13 -4 13 C-3.34 12.34 -2.68 11.68 -2 11 C-2.31229724 9.66158328 -2.64830932 8.32860925 -3 7 C-2.6875 4.8125 -2.6875 4.8125 -2 3 C-1.34 2.67 -0.68 2.34 0 2 C0 1.34 0 0.68 0 0 Z " fill="#748FFD" transform="translate(124,111)"/>
<path d="M0 0 C1.65 0.33 3.3 0.66 5 1 C5 4.3 5 7.6 5 11 C0.8575633 9.61918777 -0.32203099 7.40174442 -3 4 C-2.34 3.34 -1.68 2.68 -1 2 C-0.67 1.34 -0.34 0.68 0 0 Z " fill="#3AC5D5" transform="translate(55,86)"/>
<path d="M0 0 C0.66 0 1.32 0 2 0 C2.09765625 6.15234375 2.09765625 6.15234375 2 8 C1 9 1 9 -1.06640625 9.09765625 C-1.89011719 9.08605469 -2.71382813 9.07445313 -3.5625 9.0625 C-4.38878906 9.05347656 -5.21507813 9.04445313 -6.06640625 9.03515625 C-6.70449219 9.02355469 -7.34257813 9.01195313 -8 9 C-8 8.34 -8 7.68 -8 7 C-7.38125 6.9175 -6.7625 6.835 -6.125 6.75 C-3.81562433 6.18741541 -3.81562433 6.18741541 -2.75 3.9375 C-2.5025 3.298125 -2.255 2.65875 -2 2 C-1.34 2 -0.68 2 0 2 C0 1.34 0 0.68 0 0 Z " fill="#37DDC8" transform="translate(121,105)"/>
<path d="M0 0 C2.31 0 4.62 0 7 0 C7 1.66666667 7 3.33333333 7 5 C5.68 5.33 4.36 5.66 3 6 C3 6.99 3 7.98 3 9 C2.34 9 1.68 9 1 9 C0.67 9.66 0.34 10.32 0 11 C0 7.37 0 3.74 0 0 Z " fill="#5934FF" transform="translate(102,86)"/>
<path d="M0 0 C0.99 0 1.98 0 3 0 C3 5.28 3 10.56 3 16 C2.01 16 1.02 16 0 16 C0 10.72 0 5.44 0 0 Z " fill="#37CFCA" transform="translate(95,49)"/>
<path d="M0 0 C1.23556641 0.01740234 1.23556641 0.01740234 2.49609375 0.03515625 C3.32238281 0.04417969 4.14867187 0.05320312 5 0.0625 C5.63808594 0.07410156 6.27617188 0.08570312 6.93359375 0.09765625 C6.93359375 0.75765625 6.93359375 1.41765625 6.93359375 2.09765625 C5.94359375 2.09765625 4.95359375 2.09765625 3.93359375 2.09765625 C3.93359375 2.75765625 3.93359375 3.41765625 3.93359375 4.09765625 C2.61359375 4.42765625 1.29359375 4.75765625 -0.06640625 5.09765625 C-0.06640625 5.75765625 -0.06640625 6.41765625 -0.06640625 7.09765625 C-1.05640625 7.42765625 -2.04640625 7.75765625 -3.06640625 8.09765625 C-3.10882348 5.7647085 -3.10733562 3.43063058 -3.06640625 1.09765625 C-2.06640625 0.09765625 -2.06640625 0.09765625 0 0 Z " fill="#4696EB" transform="translate(36.06640625,85.90234375)"/>
<path d="M0 0 C2.31 0 4.62 0 7 0 C7 1.98 7 3.96 7 6 C4.69 6 2.38 6 0 6 C0 4.02 0 2.04 0 0 Z " fill="#A2C2FE" transform="translate(91,85)"/>
<path d="M0 0 C15.84 0.495 15.84 0.495 32 1 C32 1.33 32 1.66 32 2 C24.74 2 17.48 2 10 2 C10 2.66 10 3.32 10 4 C9.01 4 8.02 4 7 4 C7 3.34 7 2.68 7 2 C4.69 2 2.38 2 0 2 C0 1.34 0 0.68 0 0 Z " fill="#86D7E6" transform="translate(34,45)"/>
<path d="M0 0 C3.3 0 6.6 0 10 0 C9 2 9 2 6.5 2.875 C5.675 3.24625 4.85 3.6175 4 4 C3.34786708 6.02463255 3.34786708 6.02463255 3 8 C2.01 8.33 1.02 8.66 0 9 C0 6.03 0 3.06 0 0 Z " fill="#3EBBDD" transform="translate(105,54)"/>
<path d="M0 0 C0 2.31 0 4.62 0 7 C-5.75 10 -5.75 10 -8 10 C-8 9.01 -8 8.02 -8 7 C-6.68 7 -5.36 7 -4 7 C-4.33 5.02 -4.66 3.04 -5 1 C-1.125 0 -1.125 0 0 0 Z " fill="#3ECBD2" transform="translate(34,67)"/>
<path d="M0 0 C0 1.98 0 3.96 0 6 C-3.63 6 -7.26 6 -11 6 C-4 0 -4 0 0 0 Z " fill="#35DCC4" transform="translate(34,74)"/>
<path d="M0 0 C1.37478516 0.01740234 1.37478516 0.01740234 2.77734375 0.03515625 C3.69644531 0.04417969 4.61554688 0.05320312 5.5625 0.0625 C6.27277344 0.07410156 6.98304687 0.08570312 7.71484375 0.09765625 C4.71484375 2.09765625 4.71484375 2.09765625 1.71484375 2.09765625 C1.71484375 2.75765625 1.71484375 3.41765625 1.71484375 4.09765625 C0.04817708 5.76432292 -1.61848958 7.43098958 -3.28515625 9.09765625 C-3.3828125 2.9453125 -3.3828125 2.9453125 -3.28515625 1.09765625 C-2.28515625 0.09765625 -2.28515625 0.09765625 0 0 Z " fill="#45B4F5" transform="translate(108.28515625,95.90234375)"/>
<path d="M0 0 C0 0.33 0 0.66 0 1 C-1.98 1 -3.96 1 -6 1 C-6 3.64 -6 6.28 -6 9 C-8.64 8.67 -11.28 8.34 -14 8 C-14 7.67 -14 7.34 -14 7 C-12.35 6.67 -10.7 6.34 -9 6 C-8.67 4.68 -8.34 3.36 -8 2 C-9.98 2 -11.96 2 -14 2 C-14 1.67 -14 1.34 -14 1 C-9.32798795 -0.20568053 -4.78503708 -0.09382426 0 0 Z " fill="#88D8E8" transform="translate(21,33)"/>
<path d="M0 0 C1.98 0 3.96 0 6 0 C6 1.98 6 3.96 6 6 C4.02 6 2.04 6 0 6 C0 4.02 0 2.04 0 0 Z " fill="#A7C7FF" transform="translate(83,85)"/>
<path d="M0 0 C1.98 0 3.96 0 6 0 C6 1.98 6 3.96 6 6 C4.02 6 2.04 6 0 6 C0 4.02 0 2.04 0 0 Z " fill="#A6C7FF" transform="translate(74,85)"/>
<path d="M0 0 C2.31 0 4.62 0 7 0 C7 1.65 7 3.3 7 5 C4.69 5 2.38 5 0 5 C0 3.35 0 1.7 0 0 Z " fill="#3C3E8A" transform="translate(98,49)"/>
<path d="M0 0 C6.6 0 13.2 0 20 0 C20 0.99 20 1.98 20 3 C13.4 2.34 6.8 1.68 0 1 C0 0.67 0 0.34 0 0 Z " fill="#41D1D8" transform="translate(14,32)"/>
<path d="M0 0 C2 2 2 2 2.1953125 3.9453125 C2.13020833 5.96354167 2.06510417 7.98177083 2 10 C0.68 10.33 -0.64 10.66 -2 11 C-2.05399736 9.54207116 -2.09279177 8.08357288 -2.125 6.625 C-2.15980469 5.40683594 -2.15980469 5.40683594 -2.1953125 4.1640625 C-2 2 -2 2 0 0 Z " fill="#6B70FE" transform="translate(125,93)"/>
<path d="M0 0 C1.65 0.33 3.3 0.66 5 1 C4.01 2.485 4.01 2.485 3 4 C-0.0390625 4.29296875 -0.0390625 4.29296875 -3.625 4.1875 C-4.81351563 4.16042969 -6.00203125 4.13335937 -7.2265625 4.10546875 C-8.59941406 4.05326172 -8.59941406 4.05326172 -10 4 C-10 3.34 -10 2.68 -10 2 C-6.7 2 -3.4 2 0 2 C0 1.34 0 0.68 0 0 Z " fill="#8DDBE5" transform="translate(17,73)"/>
<path d="M0 0 C0.99 0 1.98 0 3 0 C3 3.96 3 7.92 3 12 C2.01 11.67 1.02 11.34 0 11 C0 7.37 0 3.74 0 0 Z " fill="#3B95D7" transform="translate(41,49)"/>
<path d="M0 0 C1.65 0 3.3 0 5 0 C5 0.99 5 1.98 5 3 C4.34 3 3.68 3 3 3 C3 3.66 3 4.32 3 5 C0.36 5 -2.28 5 -5 5 C-4.360625 4.731875 -3.72125 4.46375 -3.0625 4.1875 C-0.66868314 3.11332248 -0.66868314 3.11332248 0 0 Z " fill="#37C2C6" transform="translate(47,97)"/>
<path d="M0 0 C4.62 0 9.24 0 14 0 C14 0.99 14 1.98 14 3 C7.07 2.505 7.07 2.505 0 2 C0 1.34 0 0.68 0 0 Z " fill="#99DDE8" transform="translate(7,63)"/>
<path d="M0 0 C6.75 0.875 6.75 0.875 9 2 C9 2.66 9 3.32 9 4 C5.7 4 2.4 4 -1 4 C-0.67 2.68 -0.34 1.36 0 0 Z " fill="#32C7DF" transform="translate(14,59)"/>
<path d="M0 0 C1.67542976 0.28604898 3.34385343 0.61781233 5 1 C4.67 2.32 4.34 3.64 4 5 C2.68 5.33 1.36 5.66 0 6 C-0.38218767 4.34385343 -0.71395102 2.67542976 -1 1 C-0.67 0.67 -0.34 0.34 0 0 Z " fill="#51D0DD" transform="translate(22,67)"/>
<path d="M0 0 C0.66 0 1.32 0 2 0 C2 1.65 2 3.3 2 5 C2.99 5.33 3.98 5.66 5 6 C4.01 6.99 3.02 7.98 2 9 C-1.875 7.25 -1.875 7.25 -3 5 C-2.01 5 -1.02 5 0 5 C0 3.35 0 1.7 0 0 Z " fill="#F2FBFC" transform="translate(119,52)"/>
<path d="M0 0 C0.33 0 0.66 0 1 0 C1.19491452 1.45736087 1.38069358 2.91594593 1.5625 4.375 C1.66691406 5.18710938 1.77132812 5.99921875 1.87890625 6.8359375 C2 9 2 9 1 11 C0.01 11 -0.98 11 -2 11 C-1.85892253 9.54119891 -1.71197585 8.08296449 -1.5625 6.625 C-1.48128906 5.81289062 -1.40007812 5.00078125 -1.31640625 4.1640625 C-1 2 -1 2 0 0 Z " fill="#6762FE" transform="translate(104,106)"/>
<path d="M0 0 C0.94875 0.350625 1.8975 0.70125 2.875 1.0625 C5.87060172 2.35026777 5.87060172 2.35026777 8 1 C7.67 2.32 7.34 3.64 7 5 C4.69 5 2.38 5 0 5 C0 3.35 0 1.7 0 0 Z " fill="#44D0CC" transform="translate(115,58)"/>
<path d="M0 0 C0.5625 1.9375 0.5625 1.9375 1 4 C0 5 0 5 -3.5625 5.0625 C-4.696875 5.041875 -5.83125 5.02125 -7 5 C-7 4.34 -7 3.68 -7 3 C-4.69 2.01 -2.38 1.02 0 0 Z " fill="#36E0C1" transform="translate(59,100)"/>
<path d="M0 0 C3.96 0 7.92 0 12 0 C11.67 0.66 11.34 1.32 11 2 C5.40508021 3.17312834 5.40508021 3.17312834 3 3 C2.01 2.01 1.02 1.02 0 0 Z " fill="#7ED8E4" transform="translate(110,33)"/>
<path d="M0 0 C2.97 0 5.94 0 9 0 C9 0.66 9 1.32 9 2 C6.36 2.33 3.72 2.66 1 3 C0.67 2.01 0.34 1.02 0 0 Z " fill="#50D0DA" transform="translate(33,102)"/>
<path d="M0 0 C2.64 0 5.28 0 8 0 C7.01 0.33 6.02 0.66 5 1 C5 1.66 5 2.32 5 3 C2.36 3 -0.28 3 -3 3 C-2.01 2.67 -1.02 2.34 0 2 C0 1.34 0 0.68 0 0 Z " fill="#46D8D1" transform="translate(42,102)"/>
<path d="M0 0 C0 1.65 0 3.3 0 5 C-3.39914975 3.86695008 -4.05254451 2.87481525 -6 0 C-3 -1 -3 -1 0 0 Z " fill="#45D5D3" transform="translate(60,92)"/>
<path d="M0 0 C0.66 1.32 1.32 2.64 2 4 C-0.97 4 -3.94 4 -7 4 C-6.01 3.67 -5.02 3.34 -4 3 C-4 2.34 -4 1.68 -4 1 C-2 0 -2 0 0 0 Z " fill="#BED7FE" transform="translate(84,114)"/>
<path d="M0 0 C0.66 0 1.32 0 2 0 C1.01 2.97 0.02 5.94 -1 9 C-1.66 9 -2.32 9 -3 9 C-2.44271087 5.65626525 -1.64826111 2.96687001 0 0 Z " fill="#E4F5F8" transform="translate(47,91)"/>
<path d="M0 0 C0.33 0 0.66 0 1 0 C1.66 2.31 2.32 4.62 3 7 C1.35 6.67 -0.3 6.34 -2 6 C-1.125 1.125 -1.125 1.125 0 0 Z " fill="#3EADE1" transform="translate(43,73)"/>
<path d="M0 0 C1.32 0 2.64 0 4 0 C3.67 1.65 3.34 3.3 3 5 C2.01 5.33 1.02 5.66 0 6 C0 4.02 0 2.04 0 0 Z " fill="#34AEC6" transform="translate(26,59)"/>
<path d="M0 0 C-0.66 1.65 -1.32 3.3 -2 5 C-1.34 5 -0.68 5 0 5 C-0.33 5.99 -0.66 6.98 -1 8 C-2.32 6.35 -3.64 4.7 -5 3 C-2.25 0 -2.25 0 0 0 Z " fill="#DFF3F7" transform="translate(40,92)"/>
<path d="M0 0 C1.32 0 2.64 0 4 0 C3.67 0.99 3.34 1.98 3 3 C-0.5625 4.1875 -0.5625 4.1875 -4 5 C-4 4.01 -4 3.02 -4 2 C-2.68 2 -1.36 2 0 2 C0 1.34 0 0.68 0 0 Z " fill="#36C9CB" transform="translate(30,72)"/>
<path d="M0 0 C0 2.31 0 4.62 0 7 C-0.99 7 -1.98 7 -3 7 C-3.33 5.35 -3.66 3.7 -4 2 C-1 0 -1 0 0 0 Z " fill="#34BEC6" transform="translate(118,50)"/>
<path d="M0 0 C1.65 0.99 3.3 1.98 5 3 C3.35 4.65 1.7 6.3 0 8 C0.185625 7.236875 0.37125 6.47375 0.5625 5.6875 C1.22819173 2.91032625 1.22819173 2.91032625 0 0 Z " fill="#E5F7F9" transform="translate(53,92)"/>
<path d="M0 0 C2.97 0 5.94 0 9 0 C9 0.66 9 1.32 9 2 C6.03 2 3.06 2 0 2 C0 1.34 0 0.68 0 0 Z " fill="#EAEAF1" transform="translate(7,81)"/>
<path d="M0 0 C1.32 0.33 2.64 0.66 4 1 C4 1.99 4 2.98 4 4 C1.69 4 -0.62 4 -3 4 C-2.01 2.68 -1.02 1.36 0 0 Z " fill="#7A9CFE" transform="translate(123,120)"/>
<path d="M0 0 C1.32 0.33 2.64 0.66 4 1 C1.63707344 3.52588702 0.33537489 4.88820837 -3 6 C-2.67 4.68 -2.34 3.36 -2 2 C-1.34 2 -0.68 2 0 2 C0 1.34 0 0.68 0 0 Z " fill="#4EB0E7" transform="translate(36,91)"/>
<path d="M0 0 C1.65 0 3.3 0 5 0 C4.67 1.32 4.34 2.64 4 4 C2.68 4 1.36 4 0 4 C0 2.68 0 1.36 0 0 Z " fill="#33CDD9" transform="translate(13,71)"/>
</svg>
