<?xml version="1.0" encoding="UTF-8"?>
<svg version="1.1" xmlns="http://www.w3.org/2000/svg" width="150" height="150">
<path d="M0 0 C0 1.98 0 3.96 0 6 C5.64503554 7.0967298 5.64503554 7.0967298 11 5 C12.65 7.64 14.3 10.28 16 13 C15.67 13.33 15.34 13.66 15 14 C15.92683594 14.06058594 16.85367188 14.12117188 17.80859375 14.18359375 C19.00613281 14.26738281 20.20367187 14.35117187 21.4375 14.4375 C22.63246094 14.51871094 23.82742187 14.59992187 25.05859375 14.68359375 C28 15 28 15 29 16 C29.08748207 17.92667507 29.10697334 19.85651861 29.09765625 21.78515625 C29.09443359 22.95498047 29.09121094 24.12480469 29.08789062 25.33007812 C29.07951172 26.56177734 29.07113281 27.79347656 29.0625 29.0625 C29.05798828 30.29806641 29.05347656 31.53363281 29.04882812 32.80664062 C29.03699608 35.87114117 29.02051173 38.93554721 29 42 C29.78375 41.79375 30.5675 41.5875 31.375 41.375 C32.24125 41.25125 33.1075 41.1275 34 41 C34.66 41.66 35.32 42.32 36 43 C35.96712417 45.72869407 35.43602229 48.2966618 35 51 C35.66 51 36.32 51 37 51 C36.67 52.65 36.34 54.3 36 56 C33.525 56.495 33.525 56.495 31 57 C30.67 58.32 30.34 59.64 30 61 C27.6875 61.1875 27.6875 61.1875 25 61 C24 60 23 59 22 58 C19.83700789 58.22757731 19.83700789 58.22757731 18 59 C15.875 54.375 15.875 54.375 17 51 C16.34 50.01 15.68 49.02 15 48 C15 47.01 15 46.02 15 45 C14.34 45 13.68 45 13 45 C13 51.6 13 58.2 13 65 C15.31 65 17.62 65 20 65 C21 66 21 66 21.11352539 69.96899414 C21.1133662 71.74105607 21.10766785 73.5131226 21.09765625 75.28515625 C21.0962413 76.21597519 21.09482635 77.14679413 21.09336853 78.1058197 C21.08775172 81.09141191 21.0751964 84.07693029 21.0625 87.0625 C21.05748716 89.08137913 21.05292388 91.10025943 21.04882812 93.11914062 C21.03777683 98.07945572 21.02050095 103.03971532 21 108 C23.31 108.66 25.62 109.32 28 110 C27 112 27 112 25.34521484 112.61450195 C20.49200924 113.41225457 15.54404055 113.18590312 10.63769531 113.18530273 C8.63863013 113.18748512 6.63960468 113.20599143 4.640625 113.22460938 C3.36960937 113.22654297 2.09859375 113.22847656 0.7890625 113.23046875 C-0.36899902 113.23457764 -1.52706055 113.23868652 -2.72021484 113.24291992 C-6.11310954 112.99162245 -8.83332989 112.21173908 -12 111 C-11.67 110.34 -11.34 109.68 -11 109 C-8.4375 108.375 -8.4375 108.375 -6 108 C-6.67857056 107.99191315 -7.35714111 107.98382629 -8.05627441 107.97549438 C-15.19572947 107.88863335 -22.33493245 107.7891071 -29.47412109 107.68261719 C-32.12938188 107.64363425 -34.7845665 107.60971702 -37.43994141 107.578125 C-75.93926359 107.11445232 -75.93926359 107.11445232 -83 103 C-81.74458443 100.48916886 -80.49936512 100.12874554 -78 99 C-79.98 98.67 -81.96 98.34 -84 98 C-84.33 98.99 -84.66 99.98 -85 101 C-87.35964273 100.59316505 -88.85934088 100.10185661 -90.8125 98.6875 C-91.204375 98.130625 -91.59625 97.57375 -92 97 C-91.625 95 -91.625 95 -91 93 C-91.33 92.01 -91.66 91.02 -92 90 C-93.65 90 -95.3 90 -97 90 C-97 87.69 -97 85.38 -97 83 C-96.38125 82.938125 -95.7625 82.87625 -95.125 82.8125 C-92.77107651 82.1770915 -92.77107651 82.1770915 -91.75 79.6875 C-90.82080069 76.82290068 -90.82080069 76.82290068 -91 73 C-88 71 -88 71 -85 71 C-84.67 71.66 -84.34 72.32 -84 73 C-82.68 73.33 -81.36 73.66 -80 74 C-80 71.03 -80 68.06 -80 65 C-86.27 65 -92.54 65 -99 65 C-99 64.34 -99 63.68 -99 63 C-96.03 62.505 -96.03 62.505 -93 62 C-93 61.01 -93 60.02 -93 59 C-94.98 59 -96.96 59 -99 59 C-99 58.34 -99 57.68 -99 57 C-97.02 57 -95.04 57 -93 57 C-93 55.68 -93 54.36 -93 53 C-94.98 53 -96.96 53 -99 53 C-99 52.34 -99 51.68 -99 51 C-97.02 51 -95.04 51 -93 51 C-93 49.68 -93 48.36 -93 47 C-94.98 47 -96.96 47 -99 47 C-99 46.34 -99 45.68 -99 45 C-97.02 45 -95.04 45 -93 45 C-93 44.01 -93 43.02 -93 42 C-94.98 41.67 -96.96 41.34 -99 41 C-99 40.67 -99 40.34 -99 40 C-92.73 40 -86.46 40 -80 40 C-80 38.35 -80 36.7 -80 35 C-86.27 35 -92.54 35 -99 35 C-99 34.67 -99 34.34 -99 34 C-96.525 33.505 -96.525 33.505 -94 33 C-93.67 31.68 -93.34 30.36 -93 29 C-94.98 29 -96.96 29 -99 29 C-99 28.67 -99 28.34 -99 28 C-97.35 27.67 -95.7 27.34 -94 27 C-93.67 25.68 -93.34 24.36 -93 23 C-94.98 23 -96.96 23 -99 23 C-99 22.67 -99 22.34 -99 22 C-97.35 21.67 -95.7 21.34 -94 21 C-93.67 19.68 -93.34 18.36 -93 17 C-94.98 17 -96.96 17 -99 17 C-99 16.67 -99 16.34 -99 16 C-93.11060037 13.95887931 -87.8280285 13.72721958 -81.625 13.8125 C-80.25408203 13.8134668 -80.25408203 13.8134668 -78.85546875 13.81445312 C-72.14064837 13.85935163 -72.14064837 13.85935163 -71 15 C-69.00217874 15.15825258 -66.99911166 15.25119171 -64.99609375 15.31640625 C-63.78115234 15.35830078 -62.56621094 15.40019531 -61.31445312 15.44335938 C-60.03505859 15.48267578 -58.75566406 15.52199219 -57.4375 15.5625 C-56.15423828 15.60568359 -54.87097656 15.64886719 -53.54882812 15.69335938 C-50.36600147 15.799848 -47.18309326 15.90185962 -44 16 C-44 16.33 -44 16.66 -44 17 C-53.24 17 -62.48 17 -72 17 C-71.67 18.32 -71.34 19.64 -71 21 C-57.635 21.495 -57.635 21.495 -44 22 C-44 22.33 -44 22.66 -44 23 C-53.24 23 -62.48 23 -72 23 C-71.67 24.32 -71.34 25.64 -71 27 C-53.51 26.67 -36.02 26.34 -18 26 C-19.15551726 19.09524241 -19.15551726 19.09524241 -23 17 C-22.44271087 13.65626525 -21.64826111 10.96687001 -20 8 C-18.9275 8.20625 -17.855 8.4125 -16.75 8.625 C-13.12380904 8.9876191 -11.91708924 8.98362069 -9 7 C-9.495 4.03 -9.495 4.03 -10 1 C-6.56484998 0.37542727 -3.50935186 0 0 0 Z M-10 14 C-12.2084626 17.31269391 -12.80664241 19.14978851 -12.5546875 23.0625 C-11.4812192 26.81207941 -9.28696911 28.01541488 -6 30 C-3.36163023 30.1672392 -3.36163023 30.1672392 -1 30 C-0.96261719 29.01257813 -0.92523438 28.02515625 -0.88671875 27.0078125 C-0.82097656 25.72648437 -0.75523438 24.44515625 -0.6875 23.125 C-0.62949219 21.84882812 -0.57148437 20.57265625 -0.51171875 19.2578125 C-0.34285156 18.18273437 -0.17398438 17.10765625 0 16 C0.99 15.34 1.98 14.68 3 14 C1.01607489 11.60148679 1.01607489 11.60148679 -2.8125 11.5625 C-6.17733329 11.66669338 -7.04370031 12.02913354 -10 14 Z M-72 29 C-72 29.66 -72 30.32 -72 31 C-69.69 31 -67.38 31 -65 31 C-65 30.34 -65 29.68 -65 29 C-67.31 29 -69.62 29 -72 29 Z M21 47 C20.6366844 49.83386167 20.6431329 51.40522151 22.125 53.875 C24.92151052 55.55290631 26.93690532 54.74875648 30 54 C30.67673447 50.59679066 30.67673447 50.59679066 31 47 C29.11499729 44.68436913 29.11499729 44.68436913 26 44.75 C22.88500271 44.68436913 22.88500271 44.68436913 21 47 Z M-86.25 80.625 C-88.21985834 82.92308586 -88.21985834 82.92308586 -88.5 86 C-88.21376982 89.06575838 -88.21376982 89.06575838 -86.3125 91.375 C-83.61209763 93.27258004 -82.22939919 93.35882213 -79 93 C-78.85024761 85.94348748 -78.85024761 85.94348748 -80 79 C-83.92212225 78.60967296 -83.92212225 78.60967296 -86.25 80.625 Z M-71 95 C-71.33 96.65 -71.66 98.3 -72 100 C-59.13 99.01 -59.13 99.01 -46 98 C-45.67 97.01 -45.34 96.02 -45 95 C-53.58 95 -62.16 95 -71 95 Z M-21 95 C-21 95.99 -21 96.98 -21 98 C-15.72 98.33 -10.44 98.66 -5 99 C-5 97.68 -5 96.36 -5 95 C-10.28 95 -15.56 95 -21 95 Z " fill="#5D46F4" transform="translate(106,18)"/>
<path d="M0 0 C1.37091797 0.0009668 1.37091797 0.0009668 2.76953125 0.00195312 C9.48435163 0.04685163 9.48435163 0.04685163 10.625 1.1875 C12.62282126 1.34575258 14.62588834 1.43869171 16.62890625 1.50390625 C17.84384766 1.54580078 19.05878906 1.58769531 20.31054688 1.63085938 C21.58994141 1.67017578 22.86933594 1.70949219 24.1875 1.75 C25.47076172 1.79318359 26.75402344 1.83636719 28.07617188 1.88085938 C31.25899853 1.987348 34.44190674 2.08935962 37.625 2.1875 C37.625 2.5175 37.625 2.8475 37.625 3.1875 C28.385 3.1875 19.145 3.1875 9.625 3.1875 C9.955 4.5075 10.285 5.8275 10.625 7.1875 C23.99 7.6825 23.99 7.6825 37.625 8.1875 C37.625 8.5175 37.625 8.8475 37.625 9.1875 C28.385 9.1875 19.145 9.1875 9.625 9.1875 C9.955 10.5075 10.285 11.8275 10.625 13.1875 C19.535 13.1875 28.445 13.1875 37.625 13.1875 C37.625 13.8475 37.625 14.5075 37.625 15.1875 C48.515 15.1875 59.405 15.1875 70.625 15.1875 C70.625 25.4175 70.625 35.6475 70.625 46.1875 C53.795 46.1875 36.965 46.1875 19.625 46.1875 C19.625 36.6175 19.625 27.0475 19.625 17.1875 C18.635 17.1875 17.645 17.1875 16.625 17.1875 C16.7429762 21.44185079 16.8672037 25.69595821 16.99731445 29.94995117 C17.0407163 31.3981424 17.08238744 32.84638654 17.12231445 34.29467773 C17.17989062 36.37239559 17.24362028 38.44984573 17.30859375 40.52734375 C17.36358032 42.40474243 17.36358032 42.40474243 17.41967773 44.32006836 C17.30303906 47.08380504 17.30303906 47.08380504 18.625 48.1875 C20.33063778 48.34490605 22.04227244 48.43843392 23.75390625 48.50390625 C25.30561523 48.56674805 25.30561523 48.56674805 26.88867188 48.63085938 C27.97728516 48.67017578 29.06589844 48.70949219 30.1875 48.75 C31.27998047 48.79318359 32.37246094 48.83636719 33.49804688 48.88085938 C36.20689564 48.98732068 38.91583992 49.08933516 41.625 49.1875 C42.12 51.1675 42.12 51.1675 42.625 53.1875 C41.635 53.1875 40.645 53.1875 39.625 53.1875 C38.305 53.8475 36.985 54.5075 35.625 55.1875 C35.625 58.4875 35.625 61.7875 35.625 65.1875 C49.155 65.1875 62.685 65.1875 76.625 65.1875 C76.625 66.8375 76.625 68.4875 76.625 70.1875 C63.095 70.1875 49.565 70.1875 35.625 70.1875 C35.13 71.6725 35.13 71.6725 34.625 73.1875 C26.375 73.1875 18.125 73.1875 9.625 73.1875 C9.295 72.1975 8.965 71.2075 8.625 70.1875 C6.315 70.1875 4.005 70.1875 1.625 70.1875 C1.625 63.9175 1.625 57.6475 1.625 51.1875 C-4.645 51.1875 -10.915 51.1875 -17.375 51.1875 C-17.375 50.5275 -17.375 49.8675 -17.375 49.1875 C-14.405 48.6925 -14.405 48.6925 -11.375 48.1875 C-11.375 47.1975 -11.375 46.2075 -11.375 45.1875 C-13.355 45.1875 -15.335 45.1875 -17.375 45.1875 C-17.375 44.5275 -17.375 43.8675 -17.375 43.1875 C-15.395 43.1875 -13.415 43.1875 -11.375 43.1875 C-11.375 41.8675 -11.375 40.5475 -11.375 39.1875 C-13.355 39.1875 -15.335 39.1875 -17.375 39.1875 C-17.375 38.5275 -17.375 37.8675 -17.375 37.1875 C-15.395 37.1875 -13.415 37.1875 -11.375 37.1875 C-11.375 35.8675 -11.375 34.5475 -11.375 33.1875 C-13.355 33.1875 -15.335 33.1875 -17.375 33.1875 C-17.375 32.5275 -17.375 31.8675 -17.375 31.1875 C-15.395 31.1875 -13.415 31.1875 -11.375 31.1875 C-11.375 30.1975 -11.375 29.2075 -11.375 28.1875 C-13.355 27.8575 -15.335 27.5275 -17.375 27.1875 C-17.375 26.8575 -17.375 26.5275 -17.375 26.1875 C-11.105 26.1875 -4.835 26.1875 1.625 26.1875 C1.625 24.5375 1.625 22.8875 1.625 21.1875 C-4.645 21.1875 -10.915 21.1875 -17.375 21.1875 C-17.375 20.8575 -17.375 20.5275 -17.375 20.1875 C-15.725 19.8575 -14.075 19.5275 -12.375 19.1875 C-12.045 17.8675 -11.715 16.5475 -11.375 15.1875 C-13.355 15.1875 -15.335 15.1875 -17.375 15.1875 C-17.375 14.8575 -17.375 14.5275 -17.375 14.1875 C-15.725 13.8575 -14.075 13.5275 -12.375 13.1875 C-12.045 11.8675 -11.715 10.5475 -11.375 9.1875 C-13.355 9.1875 -15.335 9.1875 -17.375 9.1875 C-17.375 8.8575 -17.375 8.5275 -17.375 8.1875 C-15.725 7.8575 -14.075 7.5275 -12.375 7.1875 C-12.045 5.8675 -11.715 4.5475 -11.375 3.1875 C-13.355 3.1875 -15.335 3.1875 -17.375 3.1875 C-17.375 2.8575 -17.375 2.5275 -17.375 2.1875 C-11.48560037 0.14637931 -6.2030285 -0.08528042 0 0 Z M9.625 15.1875 C9.625 15.8475 9.625 16.5075 9.625 17.1875 C11.935 17.1875 14.245 17.1875 16.625 17.1875 C16.625 16.5275 16.625 15.8675 16.625 15.1875 C14.315 15.1875 12.005 15.1875 9.625 15.1875 Z " fill="#5E47FE" transform="translate(24.375,31.8125)"/>
<path d="M0 0 C0 1.98 0 3.96 0 6 C5.64503554 7.0967298 5.64503554 7.0967298 11 5 C12.65 7.64 14.3 10.28 16 13 C15.67 13.33 15.34 13.66 15 14 C15.92683594 14.06058594 16.85367188 14.12117188 17.80859375 14.18359375 C19.00613281 14.26738281 20.20367187 14.35117187 21.4375 14.4375 C22.63246094 14.51871094 23.82742187 14.59992187 25.05859375 14.68359375 C28 15 28 15 29 16 C29.08748207 17.92667507 29.10697334 19.85651861 29.09765625 21.78515625 C29.09282227 23.53989258 29.09282227 23.53989258 29.08789062 25.33007812 C29.07532227 27.17762695 29.07532227 27.17762695 29.0625 29.0625 C29.05798828 30.29806641 29.05347656 31.53363281 29.04882812 32.80664062 C29.03699608 35.87114117 29.02051173 38.93554721 29 42 C29.78375 41.79375 30.5675 41.5875 31.375 41.375 C32.24125 41.25125 33.1075 41.1275 34 41 C34.66 41.66 35.32 42.32 36 43 C35.96712417 45.72869407 35.43602229 48.2966618 35 51 C35.66 51 36.32 51 37 51 C36.67 52.65 36.34 54.3 36 56 C34.35 56.33 32.7 56.66 31 57 C30.67 58.32 30.34 59.64 30 61 C27.6875 61.1875 27.6875 61.1875 25 61 C24 60 23 59 22 58 C19.83700789 58.22757731 19.83700789 58.22757731 18 59 C15.875 54.375 15.875 54.375 17 51 C16.34 50.01 15.68 49.02 15 48 C15 47.01 15 46.02 15 45 C14.34 45 13.68 45 13 45 C13 51.6 13 58.2 13 65 C15.31 65 17.62 65 20 65 C20.33 65.99 20.66 66.98 21 68 C12.19039858 69.30512614 3.80960142 69.30512614 -5 68 C-4.505 66.515 -4.505 66.515 -4 65 C0.29 65 4.58 65 9 65 C9 58.4 9 51.8 9 45 C5.7 45 2.4 45 -1 45 C-1 42.03 -1 39.06 -1 36 C-3.31 36 -5.62 36 -8 36 C-7.98428955 37.12027588 -7.98428955 37.12027588 -7.96826172 38.26318359 C-7.9267923 41.63375508 -7.90070271 45.004273 -7.875 48.375 C-7.85824219 49.550625 -7.84148437 50.72625 -7.82421875 51.9375 C-7.81455078 53.61972656 -7.81455078 53.61972656 -7.8046875 55.3359375 C-7.78897705 56.89127197 -7.78897705 56.89127197 -7.77294922 58.47802734 C-8 61 -8 61 -10 63 C-12.23913574 63.25396729 -12.23913574 63.25396729 -15.06054688 63.25878906 C-16.64228699 63.26824554 -16.64228699 63.26824554 -18.25598145 63.27789307 C-19.39869507 63.2738446 -20.54140869 63.26979614 -21.71875 63.265625 C-23.47197571 63.26849518 -23.47197571 63.26849518 -25.26062012 63.27142334 C-27.73543513 63.27278626 -30.21025726 63.26908241 -32.68505859 63.26074219 C-36.48421205 63.25004446 -40.28289259 63.26063418 -44.08203125 63.2734375 C-46.48177188 63.27211592 -48.88151222 63.26955357 -51.28125 63.265625 C-52.99532043 63.27169769 -52.99532043 63.27169769 -54.74401855 63.27789307 C-55.79851196 63.27158875 -56.85300537 63.26528442 -57.93945312 63.25878906 C-58.8705188 63.25719788 -59.80158447 63.25560669 -60.76086426 63.25396729 C-63 63 -63 63 -65 61 C-65.22705078 58.01904297 -65.22705078 58.01904297 -65.1953125 54.2421875 C-65.1924826 53.57913605 -65.18965271 52.91608459 -65.18673706 52.23294067 C-65.17553435 50.11344417 -65.15043051 47.99436896 -65.125 45.875 C-65.11497028 44.43880818 -65.10584441 43.00260975 -65.09765625 41.56640625 C-65.075595 38.04413372 -65.04106494 34.52210797 -65 31 C-64.01 31 -63.02 31 -62 31 C-62 40.57 -62 50.14 -62 60 C-45.17 60 -28.34 60 -11 60 C-11 49.77 -11 39.54 -11 29 C-21.89 29 -32.78 29 -44 29 C-44 28.34 -44 27.68 -44 27 C-35.42 26.67 -26.84 26.34 -18 26 C-19.15551726 19.09524241 -19.15551726 19.09524241 -23 17 C-22.44271087 13.65626525 -21.64826111 10.96687001 -20 8 C-18.9275 8.20625 -17.855 8.4125 -16.75 8.625 C-13.12380904 8.9876191 -11.91708924 8.98362069 -9 7 C-9.495 4.03 -9.495 4.03 -10 1 C-6.56484998 0.37542727 -3.50935186 0 0 0 Z M-10 14 C-12.2084626 17.31269391 -12.80664241 19.14978851 -12.5546875 23.0625 C-11.4812192 26.81207941 -9.28696911 28.01541488 -6 30 C-3.36163023 30.1672392 -3.36163023 30.1672392 -1 30 C-0.96261719 29.01257813 -0.92523438 28.02515625 -0.88671875 27.0078125 C-0.82097656 25.72648437 -0.75523438 24.44515625 -0.6875 23.125 C-0.62949219 21.84882812 -0.57148437 20.57265625 -0.51171875 19.2578125 C-0.34285156 18.18273437 -0.17398438 17.10765625 0 16 C0.99 15.34 1.98 14.68 3 14 C1.01607489 11.60148679 1.01607489 11.60148679 -2.8125 11.5625 C-6.17733329 11.66669338 -7.04370031 12.02913354 -10 14 Z M21 47 C20.6366844 49.83386167 20.6431329 51.40522151 22.125 53.875 C24.92151052 55.55290631 26.93690532 54.74875648 30 54 C30.67673447 50.59679066 30.67673447 50.59679066 31 47 C29.11499729 44.68436913 29.11499729 44.68436913 26 44.75 C22.88500271 44.68436913 22.88500271 44.68436913 21 47 Z " fill="#41C7D1" transform="translate(106,18)"/>
<path d="M0 0 C0.33 0.66 0.66 1.32 1 2 C3.02463255 2.65213292 3.02463255 2.65213292 5 3 C5 4.65 5 6.3 5 8 C4.030625 8.28875 3.06125 8.5775 2.0625 8.875 C-1.10664203 9.64214682 -1.10664203 9.64214682 -2 12 C-2.14375422 15.37822416 -2.07536348 17.77390955 -1 21 C1.31 21.33 3.62 21.66 6 22 C6 19.03 6 16.06 6 13 C7.98 13 9.96 13 12 13 C12.33 13.66 12.66 14.32 13 15 C21.25 15 29.5 15 38 15 C38.33 14.34 38.66 13.68 39 13 C52.53 13 66.06 13 80 13 C80 16.63 80 20.26 80 24 C74.72 24 69.44 24 64 24 C64 24.99 64 25.98 64 27 C64.56847656 26.98839844 65.13695313 26.97679688 65.72265625 26.96484375 C70.60670484 26.90776806 75.18503965 27.18043228 80 28 C80 30.64 80 33.28 80 36 C72.71409984 36.04682155 65.42823335 36.08211748 58.14221191 36.10362434 C54.75718789 36.11395864 51.37226851 36.12792229 47.98730469 36.15087891 C9.5625541 36.39227608 9.5625541 36.39227608 2 32 C3.25541557 29.48916886 4.50063488 29.12874554 7 28 C5.02 27.67 3.04 27.34 1 27 C0.67 27.99 0.34 28.98 0 30 C-2.35964273 29.59316505 -3.85934088 29.10185661 -5.8125 27.6875 C-6.204375 27.130625 -6.59625 26.57375 -7 26 C-6.625 24 -6.625 24 -6 22 C-6.33 21.01 -6.66 20.02 -7 19 C-8.65 19 -10.3 19 -12 19 C-12 16.69 -12 14.38 -12 12 C-11.38125 11.938125 -10.7625 11.87625 -10.125 11.8125 C-7.77107651 11.1770915 -7.77107651 11.1770915 -6.75 8.6875 C-5.82080069 5.82290068 -5.82080069 5.82290068 -6 2 C-3 0 -3 0 0 0 Z M14 24 C13.67 25.65 13.34 27.3 13 29 C25.87 28.01 25.87 28.01 39 27 C39.33 26.01 39.66 25.02 40 24 C31.42 24 22.84 24 14 24 Z " fill="#B6D2FE" transform="translate(21,89)"/>
<path d="M0 0 C16.83 0 33.66 0 51 0 C51 10.23 51 20.46 51 31 C34.17 31 17.34 31 0 31 C0 20.77 0 10.54 0 0 Z " fill="#474E93" transform="translate(44,47)"/>
<path d="M0 0 C2.31 0 4.62 0 7 0 C7 2.97 7 5.94 7 9 C10.3 9 13.6 9 17 9 C17 15.6 17 22.2 17 29 C12.71 29 8.42 29 4 29 C3.67 33.62 3.34 38.24 3 43 C-10.53 43 -24.06 43 -38 43 C-38.33 39.37 -38.66 35.74 -39 32 C-34 30 -34 30 -32 30 C-32 29.01 -32 28.02 -32 27 C-31.09644775 26.97494385 -30.19289551 26.9498877 -29.26196289 26.92407227 C-25.9203572 26.82912683 -22.57893748 26.72988379 -19.23754883 26.62768555 C-17.7893576 26.5842837 -16.34111346 26.54261256 -14.89282227 26.50268555 C-12.81510441 26.44510938 -10.73765427 26.38137972 -8.66015625 26.31640625 C-7.40855713 26.27974854 -6.15695801 26.24309082 -4.86743164 26.20532227 C-2.10369496 26.32196094 -2.10369496 26.32196094 -1 25 C-0.84213692 23.14825294 -0.74892644 21.2909089 -0.68359375 19.43359375 C-0.62075195 17.7465332 -0.62075195 17.7465332 -0.55664062 16.02539062 C-0.51732422 14.84138672 -0.47800781 13.65738281 -0.4375 12.4375 C-0.37272461 10.65569336 -0.37272461 10.65569336 -0.30664062 8.83789062 C-0.20016454 5.89205216 -0.09815159 2.9461257 0 0 Z " fill="#7286FE" transform="translate(98,54)"/>
<path d="M0 0 C0 1.98 0 3.96 0 6 C5.64503554 7.0967298 5.64503554 7.0967298 11 5 C13.475 8.96 13.475 8.96 16 13 C15.67 13.33 15.34 13.66 15 14 C15.92683594 14.06058594 16.85367188 14.12117188 17.80859375 14.18359375 C19.00613281 14.26738281 20.20367187 14.35117187 21.4375 14.4375 C22.63246094 14.51871094 23.82742187 14.59992187 25.05859375 14.68359375 C28 15 28 15 29 16 C29.07244053 18.01964199 29.08377188 20.04167124 29.0625 22.0625 C29.05347656 23.16722656 29.04445312 24.27195312 29.03515625 25.41015625 C29.02355469 26.26480469 29.01195312 27.11945312 29 28 C28.34 28 27.68 28 27 28 C27 29.32 27 30.64 27 32 C26.05125 32.45375 25.1025 32.9075 24.125 33.375 C20.99686321 34.80238254 20.99686321 34.80238254 19 37 C18.34 37 17.68 37 17 37 C16.505 37.99 16.505 37.99 16 39 C16.99 39.33 17.98 39.66 19 40 C17.75 42 17.75 42 16 44 C14.68 44 13.36 44 12 44 C11 40 11 40 14 31 C6.74 31 -0.52 31 -8 31 C-8 30.34 -8 29.68 -8 29 C-5.69 29.33 -3.38 29.66 -1 30 C-1.05220703 28.51886719 -1.05220703 28.51886719 -1.10546875 27.0078125 C-1.13253906 25.72648437 -1.15960938 24.44515625 -1.1875 23.125 C-1.23970703 21.21074219 -1.23970703 21.21074219 -1.29296875 19.2578125 C-1.19628906 18.18273437 -1.09960938 17.10765625 -1 16 C-0.01 15.34 0.98 14.68 2 14 C0.78410016 12.56844101 0.78410016 12.56844101 -2.8125 12.6875 C-5.78617685 12.74622611 -6.87751147 12.92650688 -9.5 14.5 C-11.71177972 18.18629954 -11.34421275 20.73176192 -11 25 C-10.67 25.66 -10.34 26.32 -10 27 C-13.3 27 -16.6 27 -20 27 C-19.34 26.67 -18.68 26.34 -18 26 C-19.09786425 20.59212615 -19.09786425 20.59212615 -23 17 C-22.44271087 13.65626525 -21.64826111 10.96687001 -20 8 C-18.9275 8.20625 -17.855 8.4125 -16.75 8.625 C-13.12380904 8.9876191 -11.91708924 8.98362069 -9 7 C-9.33 5.02 -9.66 3.04 -10 1 C-6.56484998 0.37542727 -3.50935186 0 0 0 Z " fill="#39D6D0" transform="translate(106,18)"/>
<path d="M0 0 C0.33 0.66 0.66 1.32 1 2 C3.02463255 2.65213292 3.02463255 2.65213292 5 3 C5 4.65 5 6.3 5 8 C4.030625 8.28875 3.06125 8.5775 2.0625 8.875 C-1.10664203 9.64214682 -1.10664203 9.64214682 -2 12 C-2.14375422 15.37822416 -2.07536348 17.77390955 -1 21 C0.134375 21.144375 1.26875 21.28875 2.4375 21.4375 C6 22 6 22 7 23 C9.32817964 23.36760731 11.6618385 23.70241581 14 24 C14.33 25.32 14.66 26.64 15 28 C22.92 27.67 30.84 27.34 39 27 C38.67 27.66 38.34 28.32 38 29 C35.35139573 29.59355614 32.70802678 29.74209269 30 30 C30 30.66 30 31.32 30 32 C44.19 32 58.38 32 73 32 C72.505 31.01 72.505 31.01 72 30 C70.845 29.835 69.69 29.67 68.5 29.5 C67.345 29.335 66.19 29.17 65 29 C64.505 28.01 64.505 28.01 64 27 C69.45769811 26.88861841 74.61509359 27.08342019 80 28 C80 30.64 80 33.28 80 36 C72.71409984 36.04682155 65.42823335 36.08211748 58.14221191 36.10362434 C54.75718789 36.11395864 51.37226851 36.12792229 47.98730469 36.15087891 C9.5625541 36.39227608 9.5625541 36.39227608 2 32 C3.25541557 29.48916886 4.50063488 29.12874554 7 28 C5.02 27.67 3.04 27.34 1 27 C0.67 27.99 0.34 28.98 0 30 C-2.35964273 29.59316505 -3.85934088 29.10185661 -5.8125 27.6875 C-6.204375 27.130625 -6.59625 26.57375 -7 26 C-6.625 24 -6.625 24 -6 22 C-6.33 21.01 -6.66 20.02 -7 19 C-8.65 19 -10.3 19 -12 19 C-12 16.69 -12 14.38 -12 12 C-11.38125 11.938125 -10.7625 11.87625 -10.125 11.8125 C-7.77107651 11.1770915 -7.77107651 11.1770915 -6.75 8.6875 C-5.82080069 5.82290068 -5.82080069 5.82290068 -6 2 C-3 0 -3 0 0 0 Z " fill="#EAEBF2" transform="translate(21,89)"/>
<path d="M0 0 C1.37091797 0.0009668 1.37091797 0.0009668 2.76953125 0.00195312 C9.48435163 0.04685163 9.48435163 0.04685163 10.625 1.1875 C12.62282126 1.34575258 14.62588834 1.43869171 16.62890625 1.50390625 C17.84384766 1.54580078 19.05878906 1.58769531 20.31054688 1.63085938 C21.58994141 1.67017578 22.86933594 1.70949219 24.1875 1.75 C25.47076172 1.79318359 26.75402344 1.83636719 28.07617188 1.88085938 C31.25899853 1.987348 34.44190674 2.08935962 37.625 2.1875 C37.625 2.5175 37.625 2.8475 37.625 3.1875 C28.385 3.1875 19.145 3.1875 9.625 3.1875 C9.955 4.5075 10.285 5.8275 10.625 7.1875 C23.99 7.6825 23.99 7.6825 37.625 8.1875 C37.625 8.5175 37.625 8.8475 37.625 9.1875 C28.385 9.1875 19.145 9.1875 9.625 9.1875 C9.955 10.5075 10.285 11.8275 10.625 13.1875 C19.535 13.1875 28.445 13.1875 37.625 13.1875 C37.625 13.8475 37.625 14.5075 37.625 15.1875 C31.685 15.1875 25.745 15.1875 19.625 15.1875 C19.625 15.8475 19.625 16.5075 19.625 17.1875 C18.635 17.1875 17.645 17.1875 16.625 17.1875 C16.625 16.5275 16.625 15.8675 16.625 15.1875 C14.315 15.1875 12.005 15.1875 9.625 15.1875 C9.625 17.1675 9.625 19.1475 9.625 21.1875 C0.715 21.1875 -8.195 21.1875 -17.375 21.1875 C-17.375 20.8575 -17.375 20.5275 -17.375 20.1875 C-15.725 19.8575 -14.075 19.5275 -12.375 19.1875 C-12.045 17.8675 -11.715 16.5475 -11.375 15.1875 C-13.355 15.1875 -15.335 15.1875 -17.375 15.1875 C-17.375 14.8575 -17.375 14.5275 -17.375 14.1875 C-15.725 13.8575 -14.075 13.5275 -12.375 13.1875 C-12.045 11.8675 -11.715 10.5475 -11.375 9.1875 C-13.355 9.1875 -15.335 9.1875 -17.375 9.1875 C-17.375 8.8575 -17.375 8.5275 -17.375 8.1875 C-15.725 7.8575 -14.075 7.5275 -12.375 7.1875 C-12.045 5.8675 -11.715 4.5475 -11.375 3.1875 C-13.355 3.1875 -15.335 3.1875 -17.375 3.1875 C-17.375 2.8575 -17.375 2.5275 -17.375 2.1875 C-11.48560037 0.14637931 -6.2030285 -0.08528042 0 0 Z " fill="#70E0D5" transform="translate(24.375,31.8125)"/>
<path d="M0 0 C3.0000624 -0.02721831 5.99987256 -0.04694378 9 -0.0625 C9.83917969 -0.07087891 10.67835937 -0.07925781 11.54296875 -0.08789062 C12.79013672 -0.09272461 12.79013672 -0.09272461 14.0625 -0.09765625 C15.19365234 -0.10551147 15.19365234 -0.10551147 16.34765625 -0.11352539 C19.91451913 0.03914317 23.45744034 0.55718004 27 1 C27 7.93 27 14.86 27 22 C20.07 22 13.14 22 6 22 C6 21.01 6 20.02 6 19 C4.02 19 2.04 19 0 19 C0 18.34 0 17.68 0 17 C1.98 17 3.96 17 6 17 C6 15.68 6 14.36 6 13 C4.02 13 2.04 13 0 13 C0 12.34 0 11.68 0 11 C1.98 11 3.96 11 6 11 C6 9.68 6 8.36 6 7 C4.02 7 2.04 7 0 7 C0 6.34 0 5.68 0 5 C1.98 5 3.96 5 6 5 C6 4.01 6 3.02 6 2 C3.03 1.505 3.03 1.505 0 1 C0 0.67 0 0.34 0 0 Z " fill="#35D7C4" transform="translate(7,58)"/>
<path d="M0 0 C2.60341656 2.60341656 1 7.31821299 1 11 C14.53 11 28.06 11 42 11 C42 12.65 42 14.3 42 16 C28.47 16 14.94 16 1 16 C0.67 16.99 0.34 17.98 0 19 C-4.14581887 19.02886751 -8.29161216 19.04675327 -12.4375 19.0625 C-14.21350586 19.07506836 -14.21350586 19.07506836 -16.02539062 19.08789062 C-17.15009766 19.09111328 -18.27480469 19.09433594 -19.43359375 19.09765625 C-20.99678345 19.10551147 -20.99678345 19.10551147 -22.59155273 19.11352539 C-25 19 -25 19 -26 18 C-26.04092937 15.66702567 -26.04241723 13.33294775 -26 11 C-21.125 11.875 -21.125 11.875 -20 13 C-19.67 12.34 -19.34 11.68 -19 11 C-17.68 11 -16.36 11 -15 11 C-15 11.99 -15 12.98 -15 14 C-14.34 14 -13.68 14 -13 14 C-12.67 13.01 -12.34 12.02 -12 11 C-10.35 11 -8.7 11 -7 11 C-7 11.99 -7 12.98 -7 14 C-5.35 12.35 -3.7 10.7 -2 9 C-2.99 8.34 -3.98 7.68 -5 7 C-5 6.34 -5 5.68 -5 5 C-7.31 5 -9.62 5 -12 5 C-12 4.01 -12 3.02 -12 2 C-8.09121666 -0.60585556 -4.53878034 -0.22321871 0 0 Z " fill="#36D7C4" transform="translate(59,86)"/>
<path d="M0 0 C2.64 0 5.28 0 8 0 C8 12.54 8 25.08 8 38 C-0.25 38 -8.5 38 -17 38 C-17.125 25.375 -17.125 25.375 -16 22 C-15.34 22 -14.68 22 -14 22 C-13.67 23.65 -13.34 25.3 -13 27 C-7.39 27.33 -1.78 27.66 4 28 C4 22.06 4 16.12 4 10 C0.7 10 -2.6 10 -6 10 C-4.71034824 8.62437146 -3.37310707 7.29233607 -2 6 C-1.34 6 -0.68 6 0 6 C0 5.01 0 4.02 0 3 C0.66 3 1.32 3 2 3 C2 2.34 2 1.68 2 1 C1.34 0.67 0.68 0.34 0 0 Z " fill="#7183FE" transform="translate(119,86)"/>
<path d="M0 0 C4.96622349 -0.02465098 9.93241166 -0.04283649 14.89868164 -0.05493164 C16.58944316 -0.0599719 18.28020029 -0.06680405 19.97094727 -0.07543945 C22.39600707 -0.08751857 24.82100944 -0.09323123 27.24609375 -0.09765625 C28.38672523 -0.10539818 28.38672523 -0.10539818 29.55039978 -0.11329651 C31.3673257 -0.11349238 33.18413127 -0.06197277 35 0 C36.94043742 1.94043742 36.16382173 5.59873735 36.16796875 8.24609375 C36.17296135 9.33556053 36.17296135 9.33556053 36.17805481 10.44703674 C36.18312675 11.98625046 36.18546305 13.5254752 36.18530273 15.06469727 C36.18748766 17.42417471 36.20563565 19.78318361 36.22460938 22.14257812 C36.22754352 23.63541506 36.22952817 25.12825423 36.23046875 26.62109375 C36.23765427 27.32946884 36.24483978 28.03784393 36.25224304 28.76768494 C36.22882337 33.77117663 36.22882337 33.77117663 34 36 C31.76086426 36.25396729 31.76086426 36.25396729 28.93945312 36.25878906 C27.35771301 36.26824554 27.35771301 36.26824554 25.74401855 36.27789307 C24.60130493 36.2738446 23.45859131 36.26979614 22.28125 36.265625 C20.52802429 36.26849518 20.52802429 36.26849518 18.73937988 36.27142334 C16.26456487 36.27278626 13.78974274 36.26908241 11.31494141 36.26074219 C7.51578795 36.25004446 3.71710741 36.26063418 -0.08203125 36.2734375 C-2.48177188 36.27211592 -4.88151222 36.26955357 -7.28125 36.265625 C-8.99532043 36.27169769 -8.99532043 36.27169769 -10.74401855 36.27789307 C-11.79851196 36.27158875 -12.85300537 36.26528442 -13.93945312 36.25878906 C-14.8705188 36.25719788 -15.80158447 36.25560669 -16.76086426 36.25396729 C-19 36 -19 36 -21 34 C-21.22705078 31.01904297 -21.22705078 31.01904297 -21.1953125 27.2421875 C-21.1924826 26.57913605 -21.18965271 25.91608459 -21.18673706 25.23294067 C-21.17553435 23.11344417 -21.15043051 20.99436896 -21.125 18.875 C-21.11497028 17.43880818 -21.10584441 16.00260975 -21.09765625 14.56640625 C-21.075595 11.04413372 -21.04106494 7.52210797 -21 4 C-20.01 4 -19.02 4 -18 4 C-18 13.57 -18 23.14 -18 33 C-1.17 33 15.66 33 33 33 C33 22.77 33 12.54 33 2 C22.11 2 11.22 2 0 2 C0 1.34 0 0.68 0 0 Z " fill="#36DDC4" transform="translate(62,45)"/>
<path d="M0 0 C0 1.98 0 3.96 0 6 C5.64503554 7.0967298 5.64503554 7.0967298 11 5 C13.475 8.96 13.475 8.96 16 13 C14 15 14 15 11.46875 15.265625 C10.4890625 15.26046875 9.509375 15.2553125 8.5 15.25 C7.5203125 15.25515625 6.540625 15.2603125 5.53125 15.265625 C3 15 3 15 1 13 C-4.54235245 12.42765564 -4.54235245 12.42765564 -9.5 14.5 C-11.71177972 18.18629954 -11.34421275 20.73176192 -11 25 C-10.67 25.66 -10.34 26.32 -10 27 C-13.3 27 -16.6 27 -20 27 C-19.34 26.67 -18.68 26.34 -18 26 C-19.09786425 20.59212615 -19.09786425 20.59212615 -23 17 C-22.44271087 13.65626525 -21.64826111 10.96687001 -20 8 C-18.9275 8.20625 -17.855 8.4125 -16.75 8.625 C-13.12380904 8.9876191 -11.91708924 8.98362069 -9 7 C-9.33 5.02 -9.66 3.04 -10 1 C-6.56484998 0.37542727 -3.50935186 0 0 0 Z " fill="#E9EBF2" transform="translate(106,18)"/>
<path d="M0 0 C1.58206422 0.00574487 3.16410406 0.01876032 4.74609375 0.03515625 C7.53046875 0.05578125 10.31484375 0.07640625 13.18359375 0.09765625 C13.18359375 6.03765625 13.18359375 11.97765625 13.18359375 18.09765625 C10.39921875 18.11828125 7.61484375 18.13890625 4.74609375 18.16015625 C3.86767822 18.16926025 2.9892627 18.17836426 2.08422852 18.18774414 C0.11713401 18.19488716 -1.84994246 18.14797518 -3.81640625 18.09765625 C-5.63756628 16.27649622 -4.94875705 13.79093861 -4.953125 11.37109375 C-4.94925781 10.62085937 -4.94539063 9.870625 -4.94140625 9.09765625 C-4.94527344 8.34742187 -4.94914062 7.5971875 -4.953125 6.82421875 C-4.94103514 0.12643386 -4.94103514 0.12643386 0 0 Z " fill="#44CEE7" transform="translate(109.81640625,95.90234375)"/>
<path d="M0 0 C5.61 0 11.22 0 17 0 C17 5.61 17 11.22 17 17 C11.39 17 5.78 17 0 17 C0 11.39 0 5.78 0 0 Z " fill="#3E4E9A" transform="translate(15,34)"/>
<path d="M0 0 C2.39652528 -0.08139142 4.79025436 -0.14067009 7.1875 -0.1875 C7.86103516 -0.21263672 8.53457031 -0.23777344 9.22851562 -0.26367188 C13.70864748 -0.32923478 16.39440999 0.33256351 20 3 C18 6 18 6 15 8 C14.67 8.66 14.34 9.32 14 10 C13.67 9.01 13.34 8.02 13 7 C12.34 7 11.68 7 11 7 C9.49667449 11.41169202 9.49667449 11.41169202 9 16 C4.05 16 -0.9 16 -6 16 C-6.33 12.37 -6.66 8.74 -7 5 C-2 3 -2 3 0 3 C0 2.01 0 1.02 0 0 Z " fill="#6C73FE" transform="translate(66,81)"/>
<path d="M0 0 C1.58206057 0.00667536 3.16410534 0.0186375 4.74609375 0.03515625 C5.55240234 0.03966797 6.35871094 0.04417969 7.18945312 0.04882812 C9.18753131 0.06065107 11.18557158 0.07858711 13.18359375 0.09765625 C11.86359375 1.41765625 10.54359375 2.73765625 9.18359375 4.09765625 C10.25609375 4.15953125 11.32859375 4.22140625 12.43359375 4.28515625 C16.18359375 5.09765625 16.18359375 5.09765625 18.62109375 7.66015625 C19.13671875 8.46453125 19.65234375 9.26890625 20.18359375 10.09765625 C18.89394199 11.47328479 17.55670082 12.80532018 16.18359375 14.09765625 C15.52359375 14.09765625 14.86359375 14.09765625 14.18359375 14.09765625 C14.18359375 13.10765625 14.18359375 12.11765625 14.18359375 11.09765625 C11.7109261 11.44210506 11.7109261 11.44210506 9.18359375 12.09765625 C8.85359375 12.75765625 8.52359375 13.41765625 8.18359375 14.09765625 C7.52359375 14.09765625 6.86359375 14.09765625 6.18359375 14.09765625 C6.18359375 13.10765625 6.18359375 12.11765625 6.18359375 11.09765625 C4.86359375 11.09765625 3.54359375 11.09765625 2.18359375 11.09765625 C1.85359375 12.08765625 1.52359375 13.07765625 1.18359375 14.09765625 C0.52359375 13.43765625 -0.13640625 12.77765625 -0.81640625 12.09765625 C-2.88514659 11.45513275 -2.88514659 11.45513275 -4.81640625 11.09765625 C-4.84328776 9.45191059 -4.86274748 7.80604212 -4.87890625 6.16015625 C-4.89050781 5.24363281 -4.90210938 4.32710938 -4.9140625 3.3828125 C-4.74806315 -0.5015722 -4.08167578 0.10444411 0 0 Z " fill="#43AFE2" transform="translate(37.81640625,85.90234375)"/>
<path d="M0 0 C1.16781006 0.00523682 2.33562012 0.01047363 3.53881836 0.01586914 C4.79887695 0.0190918 6.05893555 0.02231445 7.35717773 0.02563477 C8.6976732 0.03399136 10.03816799 0.04245632 11.37866211 0.05102539 C12.72306153 0.05603879 14.06746271 0.06060197 15.41186523 0.06469727 C18.71334151 0.07653051 22.01473014 0.09301568 25.31616211 0.11352539 C24.51977539 3.95532227 24.51977539 3.95532227 22.68725586 5.37915039 C20.89689128 6.29060872 19.10652669 7.20206706 17.31616211 8.11352539 C17.64616211 8.77352539 17.97616211 9.43352539 18.31616211 10.11352539 C17.32616211 10.11352539 16.33616211 10.11352539 15.31616211 10.11352539 C14.71803711 9.43290039 14.11991211 8.75227539 13.50366211 8.05102539 C11.41312499 5.75838686 11.41312499 5.75838686 8.19116211 6.17602539 C5.02441279 6.88047226 5.02441279 6.88047226 3.31616211 10.11352539 C1.66411755 10.81564433 -0.00307558 11.48323952 -1.68383789 12.11352539 C-2.34383789 12.77352539 -3.00383789 13.43352539 -3.68383789 14.11352539 C-3.71069727 11.96775903 -3.73016877 9.82189894 -3.74633789 7.67602539 C-3.75793945 6.48106445 -3.76954102 5.28610352 -3.78149414 4.05493164 C-3.65199701 0.15447818 -3.65199701 0.15447818 0 0 Z " fill="#3CD0D9" transform="translate(108.683837890625,32.886474609375)"/>
<path d="M0 0 C13.53 0 27.06 0 41 0 C41 1.65 41 3.3 41 5 C27.47 5 13.94 5 0 5 C0 3.35 0 1.7 0 0 Z " fill="#3C3D89" transform="translate(60,97)"/>
<path d="M0 0 C0.99 0 1.98 0 3 0 C3 9.57 3 19.14 3 29 C12.24 29 21.48 29 31 29 C31 29.33 31 29.66 31 30 C38.92 30.33 46.84 30.66 55 31 C55 31.33 55 31.66 55 32 C47.48863592 32.05057965 39.97731551 32.08568257 32.46582031 32.10986328 C29.90883747 32.11994038 27.35186621 32.13360226 24.79492188 32.15087891 C21.12627308 32.17505217 17.45777621 32.18646585 13.7890625 32.1953125 C12.0655809 32.21079636 12.0655809 32.21079636 10.30728149 32.22659302 C9.2463327 32.22674408 8.18538391 32.22689514 7.09228516 32.22705078 C6.15518707 32.231492 5.21808899 32.23593323 4.25259399 32.24050903 C2 32 2 32 0 30 C-0.22705078 27.01904297 -0.22705078 27.01904297 -0.1953125 23.2421875 C-0.1924826 22.57913605 -0.18965271 21.91608459 -0.18673706 21.23294067 C-0.17553435 19.11344417 -0.15043051 16.99436896 -0.125 14.875 C-0.11497028 13.43880818 -0.10584441 12.00260975 -0.09765625 10.56640625 C-0.075595 7.04413372 -0.04106494 3.52210797 0 0 Z " fill="#43ADE2" transform="translate(41,49)"/>
<path d="M0 0 C2.12438339 -0.08078641 4.2496323 -0.13909141 6.375 -0.1875 C7.55835937 -0.22230469 8.74171875 -0.25710937 9.9609375 -0.29296875 C11.46527344 -0.14794922 11.46527344 -0.14794922 13 0 C13.66 0.99 14.32 1.98 15 3 C14.34 3 13.68 3 13 3 C13 3.66 13 4.32 13 5 C19.27 5 25.54 5 32 5 C32.495 6.485 32.495 6.485 33 8 C18.81 8 4.62 8 -10 8 C-10 7.34 -10 6.68 -10 6 C-7.98177083 5.609375 -5.96354167 5.21875 -3.9453125 4.828125 C-1.80995329 4.14287884 -1.80995329 4.14287884 -0.7421875 1.921875 C-0.49726562 1.28765625 -0.25234375 0.6534375 0 0 Z " fill="#A3C6FE" transform="translate(61,113)"/>
<path d="M0 0 C0.8971875 0.5259375 0.8971875 0.5259375 1.8125 1.0625 C1.4825 3.7025 1.1525 6.3425 0.8125 9.0625 C1.4725 9.0625 2.1325 9.0625 2.8125 9.0625 C2.4825 10.7125 2.1525 12.3625 1.8125 14.0625 C0.1625 14.3925 -1.4875 14.7225 -3.1875 15.0625 C-3.5175 16.3825 -3.8475 17.7025 -4.1875 19.0625 C-6.5 19.25 -6.5 19.25 -9.1875 19.0625 C-10.1875 18.0625 -11.1875 17.0625 -12.1875 16.0625 C-14.35049211 16.29007731 -14.35049211 16.29007731 -16.1875 17.0625 C-18.3125 12.4375 -18.3125 12.4375 -17.1875 9.0625 C-17.8475 8.0725 -18.5075 7.0825 -19.1875 6.0625 C-19.1875 5.0725 -19.1875 4.0825 -19.1875 3.0625 C-16.5475 3.0625 -13.9075 3.0625 -11.1875 3.0625 C-11.39375 4.17625 -11.6 5.29 -11.8125 6.4375 C-11.998125 8.231875 -11.998125 8.231875 -12.1875 10.0625 C-10.28994856 12.41223818 -10.28994856 12.41223818 -7.0625 12.1875 C-5.639375 12.125625 -5.639375 12.125625 -4.1875 12.0625 C-3.89187633 6.74079506 -3.89187633 6.74079506 -6.1875 2.0625 C-4.66896708 -0.97456585 -3.05066334 -1.30742714 0 0 Z " fill="#EAEBF2" transform="translate(140.1875,59.9375)"/>
<path d="M0 0 C1.98 0 3.96 0 6 0 C6.33 0.66 6.66 1.32 7 2 C12.61 2.33 18.22 2.66 24 3 C24.33 4.32 24.66 5.64 25 7 C24.01 7 23.02 7 22 7 C21.67 7.33 21.34 7.66 21 8 C21 8.99 21 9.98 21 11 C17.68751813 11.02888146 14.37506833 11.04675799 11.0625 11.0625 C10.11697266 11.07087891 9.17144531 11.07925781 8.19726562 11.08789062 C6.84858398 11.09272461 6.84858398 11.09272461 5.47265625 11.09765625 C4.64000244 11.10289307 3.80734863 11.10812988 2.94946289 11.11352539 C1 11 1 11 0 10 C-0.07205511 8.31391034 -0.08386068 6.62499341 -0.0625 4.9375 C-0.05347656 4.01839844 -0.04445313 3.09929687 -0.03515625 2.15234375 C-0.02355469 1.44207031 -0.01195313 0.73179688 0 0 Z " fill="#C3DAFE" transform="translate(27,102)"/>
<path d="M0 0 C2.64 0 5.28 0 8 0 C8 11.55 8 23.1 8 35 C6.68 34.67 5.36 34.34 4 34 C4.20625 33.38125 4.4125 32.7625 4.625 32.125 C4.74875 31.42375 4.8725 30.7225 5 30 C4.34 29.34 3.68 28.68 3 28 C2.86474609 26.12060547 2.86474609 26.12060547 3.0234375 23.8671875 C3.075 23.06152344 3.1265625 22.25585938 3.1796875 21.42578125 C3.24414062 20.58402344 3.30859375 19.74226563 3.375 18.875 C3.43171875 18.02550781 3.4884375 17.17601563 3.546875 16.30078125 C3.68850977 14.1998655 3.84304326 12.09982666 4 10 C0.7 10 -2.6 10 -6 10 C-4.71034824 8.62437146 -3.37310707 7.29233607 -2 6 C-1.34 6 -0.68 6 0 6 C0 5.01 0 4.02 0 3 C0.66 3 1.32 3 2 3 C2 2.34 2 1.68 2 1 C1.34 0.67 0.68 0.34 0 0 Z " fill="#768FFE" transform="translate(119,86)"/>
<path d="M0 0 C2.31 0 4.62 0 7 0 C7 6.27 7 12.54 7 19 C5.68 18.01 4.36 17.02 3 16 C3.02320313 16.84304687 3.04640625 17.68609375 3.0703125 18.5546875 C3.09738281 20.19824219 3.09738281 20.19824219 3.125 21.875 C3.14820313 22.96554688 3.17140625 24.05609375 3.1953125 25.1796875 C3 28 3 28 1 30 C0.67 23.4 0.34 16.8 0 10 C-2.64 10 -5.28 10 -8 10 C-8 8.02 -8 6.04 -8 4 C-5.36 4 -2.72 4 0 4 C0 2.68 0 1.36 0 0 Z " fill="#5935FF" transform="translate(34,49)"/>
<path d="M0 0 C1.32 0 2.64 0 4 0 C4 6.6 4 13.2 4 20 C6.31 20 8.62 20 11 20 C11.33 20.99 11.66 21.98 12 23 C3.19039858 24.30512614 -5.19039858 24.30512614 -14 23 C-13.505 21.515 -13.505 21.515 -13 20 C-8.71 20 -4.42 20 0 20 C0 13.4 0 6.8 0 0 Z " fill="#4C4CA1" transform="translate(115,63)"/>
<path d="M0 0 C3.0000624 -0.02721831 5.99987256 -0.04694378 9 -0.0625 C9.83917969 -0.07087891 10.67835937 -0.07925781 11.54296875 -0.08789062 C16.79319339 -0.10824033 21.80455662 0.23631793 27 1 C27.08107583 2.93681161 27.13922475 4.8745934 27.1875 6.8125 C27.23970703 8.43091797 27.23970703 8.43091797 27.29296875 10.08203125 C27 13 27 13 25.65625 14.8125 C23.56445614 16.31227673 21.42016259 17.1496726 19 18 C19.33 17.01 19.66 16.02 20 15 C20.99 15 21.98 15 23 15 C22.67 12.69 22.34 10.38 22 8 C20.68 7.67 19.36 7.34 18 7 C18 6.34 18 5.68 18 5 C14.04 5 10.08 5 6 5 C6 4.01 6 3.02 6 2 C3.03 1.505 3.03 1.505 0 1 C0 0.67 0 0.34 0 0 Z " fill="#43C7D4" transform="translate(7,58)"/>
<path d="M0 0 C1.31871094 -0.01224609 2.63742188 -0.02449219 3.99609375 -0.03710938 C5.90068359 -0.04000977 5.90068359 -0.04000977 7.84375 -0.04296875 C9.00068359 -0.04707764 10.15761719 -0.05118652 11.34960938 -0.05541992 C14.47736509 0.18575467 16.680892 0.85423629 19.5 2.1875 C18.5 4.1875 18.5 4.1875 16.84521484 4.80200195 C11.99200924 5.59975457 7.04404055 5.37340312 2.13769531 5.37280273 C0.13863013 5.37498512 -1.86039532 5.39349143 -3.859375 5.41210938 C-5.13039063 5.41404297 -6.40140625 5.41597656 -7.7109375 5.41796875 C-8.86899902 5.42207764 -10.02706055 5.42618652 -11.22021484 5.43041992 C-14.61310954 5.17912245 -17.33332989 4.39923908 -20.5 3.1875 C-20.17 2.5275 -19.84 1.8675 -19.5 1.1875 C-13.23640183 -0.60566158 -6.45139424 0.00315317 0 0 Z " fill="#EAEBF2" transform="translate(114.5,125.8125)"/>
<path d="M0 0 C5.94 0 11.88 0 18 0 C18 0.66 18 1.32 18 2 C20.475 2.495 20.475 2.495 23 3 C23 5.31 23 7.62 23 10 C22.01 10.33 21.02 10.66 20 11 C19.67 11.99 19.34 12.98 19 14 C18.01 14 17.02 14 16 14 C15.67 13.34 15.34 12.68 15 12 C12.97536745 11.34786708 12.97536745 11.34786708 11 11 C10.40267181 8.23735711 10 5.83967231 10 3 C6.7 2.67 3.4 2.34 0 2 C0 1.34 0 0.68 0 0 Z " fill="#CAEDF3" transform="translate(7,63)"/>
<path d="M0 0 C0.66 0 1.32 0 2 0 C2.02684679 2.64590014 2.04676357 5.29153096 2.0625 7.9375 C2.07087891 8.69224609 2.07925781 9.44699219 2.08789062 10.22460938 C2.09652441 12.14994313 2.05224333 14.07535581 2 16 C1 17 1 17 -2.37890625 17.09765625 C-3.77347077 17.09098369 -5.16801743 17.07902532 -6.5625 17.0625 C-7.27341797 17.05798828 -7.98433594 17.05347656 -8.71679688 17.04882812 C-10.47790013 17.03700864 -12.23896036 17.01907263 -14 17 C-12.35 15.35 -10.7 13.7 -9 12 C-9.66 11.67 -10.32 11.34 -11 11 C-10 8 -10 8 -8.125 6.9375 C-7.42375 6.628125 -6.7225 6.31875 -6 6 C-5.01 5.34 -4.02 4.68 -3 4 C-2.01 4 -1.02 4 0 4 C0 2.68 0 1.36 0 0 Z " fill="#35DDC4" transform="translate(133,46)"/>
<path d="M0 0 C0 5.61 0 11.22 0 17 C0.99 17 1.98 17 3 17 C3 18.65 3 20.3 3 22 C0.69 22 -1.62 22 -4 22 C-4 15.73 -4 9.46 -4 3 C-10.27 3 -16.54 3 -23 3 C-23 2.34 -23 1.68 -23 1 C-19.91675903 0.83159521 -16.83339379 0.66558138 -13.75 0.5 C-12.87730469 0.45230469 -12.00460938 0.40460938 -11.10546875 0.35546875 C-10.26113281 0.31035156 -9.41679687 0.26523438 -8.546875 0.21875 C-7.38430176 0.1559082 -7.38430176 0.1559082 -6.19824219 0.09179688 C-4.13373418 0.00558463 -2.0663073 0 0 0 Z " fill="#6F72AA" transform="translate(30,80)"/>
<path d="M0 0 C1.58206422 0.00574487 3.16410406 0.01876032 4.74609375 0.03515625 C7.53046875 0.05578125 10.31484375 0.07640625 13.18359375 0.09765625 C13.18359375 6.03765625 13.18359375 11.97765625 13.18359375 18.09765625 C10.39921875 18.11828125 7.61484375 18.13890625 4.74609375 18.16015625 C3.86767822 18.16926025 2.9892627 18.17836426 2.08422852 18.18774414 C0.11713401 18.19488716 -1.84994246 18.14797518 -3.81640625 18.09765625 C-5.63756628 16.27649622 -4.94875705 13.79093861 -4.953125 11.37109375 C-4.94925781 10.62085937 -4.94539063 9.870625 -4.94140625 9.09765625 C-4.94527344 8.34742187 -4.94914062 7.5971875 -4.953125 6.82421875 C-4.94103514 0.12643386 -4.94103514 0.12643386 0 0 Z M-1.25390625 3.66015625 C-3.43640297 7.06485113 -3.45375087 9.13195637 -2.81640625 13.09765625 C-0.88514523 15.77604198 -0.88514523 15.77604198 2.18359375 17.09765625 C5.99736885 17.09765625 8.20783923 16.94750696 11.12109375 14.41015625 C12.52176913 11.36162748 12.66786695 9.41838673 12.18359375 6.09765625 C10.74698064 3.57758781 10.74698064 3.57758781 8.18359375 2.09765625 C4.24343362 1.53477623 2.12577179 1.49369597 -1.25390625 3.66015625 Z " fill="#47B5F4" transform="translate(109.81640625,95.90234375)"/>
<path d="M0 0 C0.93134766 0.00322266 1.86269531 0.00644531 2.82226562 0.00976562 C4.26182617 0.02233398 4.26182617 0.02233398 5.73046875 0.03515625 C6.70951172 0.03966797 7.68855469 0.04417969 8.69726562 0.04882812 C11.10422986 0.06056941 13.51106732 0.07699206 15.91796875 0.09765625 C16.24796875 1.41765625 16.57796875 2.73765625 16.91796875 4.09765625 C15.92796875 4.09765625 14.93796875 4.09765625 13.91796875 4.09765625 C12.92796875 4.59265625 12.92796875 4.59265625 11.91796875 5.09765625 C10.17752705 5.18215253 8.43387153 5.20488649 6.69140625 5.1953125 C5.66015625 5.19208984 4.62890625 5.18886719 3.56640625 5.18554688 C1.94605469 5.17297852 1.94605469 5.17297852 0.29296875 5.16015625 C-1.33898437 5.15338867 -1.33898437 5.15338867 -3.00390625 5.14648438 C-5.69666914 5.13467401 -8.38932313 5.11820403 -11.08203125 5.09765625 C-10.75203125 3.77765625 -10.42203125 2.45765625 -10.08203125 1.09765625 C-6.65629188 0.32237146 -3.5096388 -0.02153153 0 0 Z " fill="#655CFE" transform="translate(50.08203125,80.90234375)"/>
<path d="M0 0 C2.875 1 2.875 1 4.25 3.0625 C4.45625 3.701875 4.6625 4.34125 4.875 5 C6.525 5 8.175 5 9.875 5 C10.205 5.99 10.535 6.98 10.875 8 C3.285 8 -4.305 8 -12.125 8 C-11.795 7.01 -11.465 6.02 -11.125 5 C-10.526875 4.855625 -9.92875 4.71125 -9.3125 4.5625 C-6.9166207 4.1646438 -6.9166207 4.1646438 -5.25 1.875 C-3.125 0 -3.125 0 0 0 Z " fill="#F8FDFD" transform="translate(119.125,38)"/>
<path d="M0 0 C0.66 0 1.32 0 2 0 C2.33 1.65 2.66 3.3 3 5 C4.11375 5.103125 5.2275 5.20625 6.375 5.3125 C8.169375 5.6528125 8.169375 5.6528125 10 6 C10.99 7.485 10.99 7.485 12 9 C11.34 9 10.68 9 10 9 C9.67 9.99 9.34 10.98 9 12 C8.34 12 7.68 12 7 12 C7 12.66 7 13.32 7 14 C6.01 14 5.02 14 4 14 C3.67 14.66 3.34 15.32 3 16 C1.68 16 0.36 16 -1 16 C-1.02701408 13.89590361 -1.04640223 11.79170822 -1.0625 9.6875 C-1.07410156 8.51574219 -1.08570312 7.34398438 -1.09765625 6.13671875 C-1 3 -1 3 0 0 Z " fill="#6C73FE" transform="translate(103,108)"/>
<path d="M0 0 C1.37091797 0.0009668 1.37091797 0.0009668 2.76953125 0.00195312 C9.48435163 0.04685163 9.48435163 0.04685163 10.625 1.1875 C12.62282126 1.34575258 14.62588834 1.43869171 16.62890625 1.50390625 C17.84384766 1.54580078 19.05878906 1.58769531 20.31054688 1.63085938 C21.58994141 1.67017578 22.86933594 1.70949219 24.1875 1.75 C25.47076172 1.79318359 26.75402344 1.83636719 28.07617188 1.88085938 C31.25899853 1.987348 34.44190674 2.08935962 37.625 2.1875 C37.625 2.5175 37.625 2.8475 37.625 3.1875 C5.31710102 3.39388953 5.31710102 3.39388953 -9.375 2.1875 C-9.375 4.8275 -9.375 7.4675 -9.375 10.1875 C-12.015 9.8575 -14.655 9.5275 -17.375 9.1875 C-17.375 8.8575 -17.375 8.5275 -17.375 8.1875 C-15.725 7.8575 -14.075 7.5275 -12.375 7.1875 C-12.045 5.8675 -11.715 4.5475 -11.375 3.1875 C-13.355 3.1875 -15.335 3.1875 -17.375 3.1875 C-17.375 2.8575 -17.375 2.5275 -17.375 2.1875 C-11.48560037 0.14637931 -6.2030285 -0.08528042 0 0 Z " fill="#8BDBE5" transform="translate(24.375,31.8125)"/>
<path d="M0 0 C2.31 0 4.62 0 7 0 C7 2.97 7 5.94 7 9 C7.66 9.33 8.32 9.66 9 10 C8.01 10.33 7.02 10.66 6 11 C4.79117904 13.00016466 4.79117904 13.00016466 4 15 C2.68 15 1.36 15 0 15 C0 10.05 0 5.1 0 0 Z " fill="#6B74FD" transform="translate(98,54)"/>
<path d="M0 0 C5.94 0 11.88 0 18 0 C18 3 18 3 17 5 C11.39 5 5.78 5 0 5 C0 3.35 0 1.7 0 0 Z " fill="#34ACC5" transform="translate(98,49)"/>
<path d="M0 0 C2.64 0 5.28 0 8 0 C8.21578568 3.1648567 8.34519007 5.3469377 6.84375 8.1875 C5 10 5 10 2.30078125 10.390625 C0.82158203 10.32101563 0.82158203 10.32101563 -0.6875 10.25 C-1.68136719 10.21390625 -2.67523438 10.1778125 -3.69921875 10.140625 C-4.83810547 10.07101563 -4.83810547 10.07101563 -6 10 C-4.71034824 8.62437146 -3.37310707 7.29233607 -2 6 C-1.34 6 -0.68 6 0 6 C0 5.01 0 4.02 0 3 C0.66 3 1.32 3 2 3 C2 2.34 2 1.68 2 1 C1.34 0.67 0.68 0.34 0 0 Z " fill="#645AFE" transform="translate(119,86)"/>
<path d="M0 0 C2.31 0 4.62 0 7 0 C6.01 0.33 5.02 0.66 4 1 C4.165 2.093125 4.33 3.18625 4.5 4.3125 C5 8 5 8 5 11 C4 12 4 12 1.71484375 12.09765625 C0.34005859 12.08025391 0.34005859 12.08025391 -1.0625 12.0625 C-1.98160156 12.05347656 -2.90070312 12.04445313 -3.84765625 12.03515625 C-4.55792969 12.02355469 -5.26820313 12.01195313 -6 12 C-6 11.34 -6 10.68 -6 10 C-4.02 10 -2.04 10 0 10 C0 8.68 0 7.36 0 6 C-1.98 6 -3.96 6 -6 6 C-6 5.34 -6 4.68 -6 4 C-4.02 4 -2.04 4 0 4 C0 2.68 0 1.36 0 0 Z " fill="#78D8E3" transform="translate(13,65)"/>
<path d="M0 0 C1.32 0 2.64 0 4 0 C4 6.6 4 13.2 4 20 C2.68 19.67 1.36 19.34 0 19 C0 12.73 0 6.46 0 0 Z " fill="#3E3E8B" transform="translate(115,63)"/>
<path d="M0 0 C11.55 0 23.1 0 35 0 C35.495 1.98 35.495 1.98 36 4 C35.01 4 34.02 4 33 4 C33 3.34 33 2.68 33 2 C22.11 2 11.22 2 0 2 C0 1.34 0 0.68 0 0 Z " fill="#35D1D4" transform="translate(62,45)"/>
<path d="M0 0 C3.25 -0.3125 3.25 -0.3125 7 0 C9.4375 2.5 9.4375 2.5 11 5 C9.71034824 6.37562854 8.37310707 7.70766393 7 9 C6.34 9 5.68 9 5 9 C5 8.01 5 7.02 5 6 C2.52733235 6.34444881 2.52733235 6.34444881 0 7 C-0.33 7.66 -0.66 8.32 -1 9 C-1.66 9 -2.32 9 -3 9 C-2.44271087 5.65626525 -1.64826111 2.96687001 0 0 Z " fill="#4FCBDB" transform="translate(47,91)"/>
<path d="M0 0 C8.58 0 17.16 0 26 0 C25.67 0.99 25.34 1.98 25 3 C17.08 3 9.16 3 1 3 C0.67 2.01 0.34 1.02 0 0 Z " fill="#4C4CA0" transform="translate(101,124)"/>
<path d="M0 0 C1 1 1 1 1.0625 4.0625 C1.041875 5.031875 1.02125 6.00125 1 7 C-0.65 7.33 -2.3 7.66 -4 8 C-4.33 7.01 -4.66 6.02 -5 5 C-7.31 5 -9.62 5 -12 5 C-12 4.01 -12 3.02 -12 2 C-8.09121666 -0.60585556 -4.53878034 -0.22321871 0 0 Z " fill="#3CC2D6" transform="translate(59,86)"/>
<path d="M0 0 C6.27 0 12.54 0 19 0 C19 2.31 19 4.62 19 7 C18.67 6.34 18.34 5.68 18 5 C14.04 5 10.08 5 6 5 C6 4.01 6 3.02 6 2 C3.03 1.505 3.03 1.505 0 1 C0 0.67 0 0.34 0 0 Z " fill="#85DBE3" transform="translate(7,58)"/>
<path d="M0 0 C2.4375 1.625 2.4375 1.625 4 4 C4.5625 6.9375 4.5625 6.9375 4 10 C1.9375 12.9375 1.9375 12.9375 -1 15 C-4.54361243 15 -6.86591591 14.65850044 -9.9375 12.875 C-11.6712306 9.81547541 -11.42145216 7.43182475 -11 4 C-8.11188513 -0.5054592 -5.11821063 -0.73117295 0 0 Z M-8.375 2.625 C-10.31351084 4.95095516 -10.31351084 4.95095516 -9.875 8.125 C-9.21691176 11.09681373 -9.21691176 11.09681373 -7 13 C-3.89652746 13.33015665 -1.84218824 13.50531294 0.875 11.875 C2.52854531 9.11909116 2.39365568 7.14924548 2 4 C0.93654948 2.01970318 0.93654948 2.01970318 -1 1 C-4.3225955 0.40363671 -5.57455503 0.70890607 -8.375 2.625 Z " fill="#DEF5F8" transform="translate(118,98)"/>
<path d="M0 0 C4.875 0.875 4.875 0.875 6 2 C6.33 1.34 6.66 0.68 7 0 C8.32 0 9.64 0 11 0 C11 0.99 11 1.98 11 3 C11.66 3 12.32 3 13 3 C13.33 2.01 13.66 1.02 14 0 C14.99 0 15.98 0 17 0 C16.625 1.9375 16.625 1.9375 16 4 C12.99686252 5.50156874 10.20932478 5.09281204 6.875 5.0625 C5.59367187 5.05347656 4.31234375 5.04445313 2.9921875 5.03515625 C1.51105469 5.01775391 1.51105469 5.01775391 0 5 C0 3.35 0 1.7 0 0 Z " fill="#36ADC6" transform="translate(33,97)"/>
<path d="M0 0 C0.33 0 0.66 0 1 0 C1 6.27 1 12.54 1 19 C0.67 19 0.34 19 0 19 C0 12.73 0 6.46 0 0 Z M-4 19 C-2.68 19.33 -1.36 19.66 0 20 C-0.165 20.78375 -0.33 21.5675 -0.5 22.375 C-1.12960847 26.93966142 -1.08180527 31.40072601 -1 36 C-1.99 36 -2.98 36 -4 36 C-4 30.39 -4 24.78 -4 19 Z " fill="#5957F9" transform="translate(34,61)"/>
<path d="M0 0 C-0.66 1.32 -1.32 2.64 -2 4 C-2.66 4 -3.32 4 -4 4 C-4.98120464 7.05263664 -4.98120464 8.94736336 -4 12 C-6.31 11.01 -8.62 10.02 -11 9 C-11.3125 6.1875 -11.3125 6.1875 -11 3 C-7.49047762 -0.09663739 -4.5654558 -0.31852017 0 0 Z " fill="#44A4E7" transform="translate(44,88)"/>
<path d="M0 0 C1.67542976 0.28604898 3.34385343 0.61781233 5 1 C5.875 3.5625 5.875 3.5625 6 7 C4.32305393 9.65870248 2.31872993 11.88180887 0 14 C-0.33 14 -0.66 14 -1 14 C-1.02685938 11.85423363 -1.04633088 9.70837355 -1.0625 7.5625 C-1.07410156 6.36753906 -1.08570312 5.17257813 -1.09765625 3.94140625 C-1 1 -1 1 0 0 Z " fill="#33C6E0" transform="translate(106,33)"/>
<path d="M0 0 C7.92 0.33 15.84 0.66 24 1 C24 1.33 24 1.66 24 2 C23.04287109 2.09087891 23.04287109 2.09087891 22.06640625 2.18359375 C21.24011719 2.26738281 20.41382812 2.35117187 19.5625 2.4375 C18.32693359 2.55931641 18.32693359 2.55931641 17.06640625 2.68359375 C15.01337975 2.78930815 15.01337975 2.78930815 14 4 C12.36527118 4.08700342 10.72685945 4.10701063 9.08984375 4.09765625 C8.10048828 4.09443359 7.11113281 4.09121094 6.09179688 4.08789062 C5.05087891 4.07951172 4.00996094 4.07113281 2.9375 4.0625 C1.89271484 4.05798828 0.84792969 4.05347656 -0.22851562 4.04882812 C-2.8190666 4.03699913 -5.40950559 4.02051689 -8 4 C-8 3.34 -8 2.68 -8 2 C-5.69 2 -3.38 2 -1 2 C-0.67 1.34 -0.34 0.68 0 0 Z " fill="#81DCE4" transform="translate(106,45)"/>
<path d="M0 0 C2.31 0 4.62 0 7 0 C7 1.65 7 3.3 7 5 C3.37 5 -0.26 5 -4 5 C-4 6.65 -4 8.3 -4 10 C-5.32 10 -6.64 10 -8 10 C-8 8.02 -8 6.04 -8 4 C-5.36 4 -2.72 4 0 4 C0 2.68 0 1.36 0 0 Z " fill="#3D418D" transform="translate(34,49)"/>
<path d="M0 0 C0.99 0 1.98 0 3 0 C3 6.6 3 13.2 3 20 C2.01 20 1.02 20 0 20 C0 13.4 0 6.8 0 0 Z " fill="#37D2C9" transform="translate(95,49)"/>
<path d="M0 0 C1.24716797 0.00322266 2.49433594 0.00644531 3.77929688 0.00976562 C5.07287109 0.01814453 6.36644531 0.02652344 7.69921875 0.03515625 C9.66858398 0.04192383 9.66858398 0.04192383 11.67773438 0.04882812 C14.91410885 0.06059676 18.15039053 0.07703865 21.38671875 0.09765625 C21.05671875 0.75765625 20.72671875 1.41765625 20.38671875 2.09765625 C19.73074707 2.11747559 19.07477539 2.13729492 18.39892578 2.15771484 C15.43610806 2.25278132 12.47401343 2.36253377 9.51171875 2.47265625 C7.96291016 2.5190625 7.96291016 2.5190625 6.3828125 2.56640625 C4.90361328 2.62441406 4.90361328 2.62441406 3.39453125 2.68359375 C2.4833252 2.71501465 1.57211914 2.74643555 0.63330078 2.77880859 C-1.81259311 2.89648136 -1.81259311 2.89648136 -3.61328125 5.09765625 C-6.34197532 5.06478042 -8.90994305 4.53367854 -11.61328125 4.09765625 C-11.61328125 3.10765625 -11.61328125 2.11765625 -11.61328125 1.09765625 C-7.68039761 0.16677716 -4.03673962 -0.0184326 0 0 Z " fill="#D9D9E8" transform="translate(106.61328125,125.90234375)"/>
<path d="M0 0 C9.24 0 18.48 0 28 0 C28 0.66 28 1.32 28 2 C22.06 2 16.12 2 10 2 C10 2.66 10 3.32 10 4 C9.01 4 8.02 4 7 4 C7 3.34 7 2.68 7 2 C4.69 2 2.38 2 0 2 C0 1.34 0 0.68 0 0 Z " fill="#7DD6E5" transform="translate(34,45)"/>
<path d="M0 0 C2.97 0 5.94 0 9 0 C8.75 2.375 8.75 2.375 8 5 C6.0625 6.125 6.0625 6.125 4 7 C3.01 8.485 3.01 8.485 2 10 C1.01 9.67 0.02 9.34 -1 9 C-0.34 9 0.32 9 1 9 C0.67 6.03 0.34 3.06 0 0 Z " fill="#71D5E4" transform="translate(110,33)"/>
<path d="M0 0 C0.66 0 1.32 0 2 0 C2 2.97 2 5.94 2 9 C4.97 9.33 7.94 9.66 11 10 C11 10.33 11 10.66 11 11 C5.39 11 -0.22 11 -6 11 C-6 10.67 -6 10.34 -6 10 C-4.35 9.67 -2.7 9.34 -1 9 C-0.67 7.68 -0.34 6.36 0 5 C-1.98 5 -3.96 5 -6 5 C-6 4.67 -6 4.34 -6 4 C-4.35 3.67 -2.7 3.34 -1 3 C-0.67 2.01 -0.34 1.02 0 0 Z " fill="#74D8E1" transform="translate(13,42)"/>
<path d="M0 0 C3.3 0 6.6 0 10 0 C9 2 9 2 7 2.9375 C4.65391779 3.8891846 4.65391779 3.8891846 4 7 C2.02 7.99 2.02 7.99 0 9 C0 6.03 0 3.06 0 0 Z " fill="#3DBBDE" transform="translate(105,54)"/>
<path d="M0 0 C2.97 0 5.94 0 9 0 C8 4 8 4 5.625 5.75 C3 7 3 7 0 7 C0 4.69 0 2.38 0 0 Z " fill="#33D2D2" transform="translate(125,33)"/>
<path d="M0 0 C4.95 0 9.9 0 15 0 C15 0.99 15 1.98 15 3 C10.38 3 5.76 3 1 3 C0.67 2.01 0.34 1.02 0 0 Z " fill="#4BD4D6" transform="translate(33,102)"/>
<path d="M0 0 C3 1 3 1 3 1 Z M-5 1 C-1.37471432 0.79859524 0.86501708 1.14223235 4 3 C4 3.99 4 4.98 4 6 C0.04 6 -3.92 6 -8 6 C-7 4 -7 4 -4 3 C-4.33 2.34 -4.66 1.68 -5 1 Z " fill="#7895FE" transform="translate(123,118)"/>
<path d="M0 0 C0 4.29 0 8.58 0 13 C-1.32 13 -2.64 13 -4 13 C-4.47081122 4.83927218 -4.47081122 4.83927218 -2.5625 1.4375 C-1 0 -1 0 0 0 Z " fill="#6C72FE" transform="translate(127,92)"/>
<path d="M0 0 C2.64 0 5.28 0 8 0 C8 1.98 8 3.96 8 6 C7.236875 5.814375 6.47375 5.62875 5.6875 5.4375 C2.91032625 4.77180827 2.91032625 4.77180827 0 6 C0 4.02 0 2.04 0 0 Z " fill="#3DB3DE" transform="translate(26,59)"/>
<path d="M0 0 C-0.33 1.65 -0.66 3.3 -1 5 C-3.97 5 -6.94 5 -10 5 C-10 4.01 -10 3.02 -10 2 C-3.375 -1.125 -3.375 -1.125 0 0 Z " fill="#3DD3D4" transform="translate(23,75)"/>
<path d="M0 0 C0.33 0 0.66 0 1 0 C1 5.61 1 11.22 1 17 C-2.63 17 -6.26 17 -10 17 C-10 16.67 -10 16.34 -10 16 C-8.329375 15.5978125 -8.329375 15.5978125 -6.625 15.1875 C-2.78159049 14.34190981 -2.78159049 14.34190981 -1 11 C-0.7961692 9.04319004 -0.7961692 9.04319004 -0.9375 7 C-1.06063177 4.17332281 -0.92549006 2.77647019 0 0 Z " fill="#39DACC" transform="translate(122,97)"/>
<path d="M0 0 C0.99 0.33 1.98 0.66 3 1 C3 1.99 3 2.98 3 4 C2.01 4.33 1.02 4.66 0 5 C-0.33 5.99 -0.66 6.98 -1 8 C-1.99 8 -2.98 8 -4 8 C-4.33 7.34 -4.66 6.68 -5 6 C-5.66 5.835 -6.32 5.67 -7 5.5 C-7.66 5.335 -8.32 5.17 -9 5 C-9.33 4.34 -9.66 3.68 -10 3 C-9.34 3 -8.68 3 -8 3 C-7.67 2.34 -7.34 1.68 -7 1 C-6.34 1.66 -5.68 2.32 -5 3 C-2.91666667 2.83333333 -2.91666667 2.83333333 -1 2 C-0.67 1.34 -0.34 0.68 0 0 Z " fill="#F1FAFC" transform="translate(27,69)"/>
<path d="M0 0 C-3 2 -3 2 -5 2 C-5.33 2.99 -5.66 3.98 -6 5 C-7.98 5 -9.96 5 -12 5 C-12 4.01 -12 3.02 -12 2 C-8.09971775 -0.60018816 -4.52565431 -0.15085514 0 0 Z " fill="#3CB8DD" transform="translate(59,86)"/>
<path d="M0 0 C0.33 0 0.66 0 1 0 C1.36190476 5.42857143 1.36190476 5.42857143 -0.1875 7.875 C-2.54923705 9.34090576 -4.26753076 9.08049828 -7 9 C-6.02180976 7.68677212 -5.0424189 6.37443848 -4.0625 5.0625 C-3.51722656 4.33160156 -2.97195312 3.60070312 -2.41015625 2.84765625 C-1 1 -1 1 0 0 Z " fill="#3FD7D8" transform="translate(119,102)"/>
<path d="M0 0 C0.99 0 1.98 0 3 0 C3.08121924 1.60332791 3.13929134 3.20784026 3.1875 4.8125 C3.23970703 6.15248047 3.23970703 6.15248047 3.29296875 7.51953125 C3 10 3 10 0 13 C0 8.71 0 4.42 0 0 Z " fill="#3B96D8" transform="translate(41,49)"/>
<path d="M0 0 C2.31 0 4.62 0 7 0 C7 1.65 7 3.3 7 5 C4.69 5 2.38 5 0 5 C0 3.35 0 1.7 0 0 Z " fill="#3C3E8A" transform="translate(98,49)"/>
<path d="M0 0 C1.07765625 0.10183594 2.1553125 0.20367187 3.265625 0.30859375 C4.08546875 0.39238281 4.9053125 0.47617188 5.75 0.5625 C5.75 1.2225 5.75 1.8825 5.75 2.5625 C0.47 2.5625 -4.81 2.5625 -10.25 2.5625 C-10.25 1.9025 -10.25 1.2425 -10.25 0.5625 C-6.70049966 -0.60056443 -3.69176052 -0.36115049 0 0 Z " fill="#99C0FE" transform="translate(68.25,118.4375)"/>
<path d="M0 0 C0.33 0 0.66 0 1 0 C1.268125 0.94875 1.53625 1.8975 1.8125 2.875 C2.74986588 6.25267273 2.74986588 6.25267273 6 8 C6 8.66 6 9.32 6 10 C4.00045254 10.04254356 1.99958364 10.04080783 0 10 C-1 9 -1 9 -1.1328125 7.1875 C-1.13023438 6.465625 -1.12765625 5.74375 -1.125 5 C-1.12757812 4.278125 -1.13015625 3.55625 -1.1328125 2.8125 C-1 1 -1 1 0 0 Z " fill="#43CFE4" transform="translate(106,104)"/>
<path d="M0 0 C1.485 0.99 1.485 0.99 3 2 C3.29296875 4.1640625 3.29296875 4.1640625 3.1875 6.625 C3.16042969 7.44226563 3.13335937 8.25953125 3.10546875 9.1015625 C3.07066406 9.72804688 3.03585938 10.35453125 3 11 C2.34 11 1.68 11 1 11 C0.67 11.99 0.34 12.98 0 14 C0 9.38 0 4.76 0 0 Z " fill="#5F4DFE" transform="translate(102,97)"/>
<path d="M0 0 C3 3.625 3 3.625 3 7 C1.02 7 -0.96 7 -3 7 C-3 4 -3 4 -2 2 C-1.34 2 -0.68 2 0 2 C0 1.34 0 0.68 0 0 Z " fill="#3EB1E0" transform="translate(42,90)"/>
<path d="M0 0 C2.97 0 5.94 0 9 0 C9.33 0.66 9.66 1.32 10 2 C8.01432292 2.48828125 6.02864583 2.9765625 4.04296875 3.46484375 C2.34316798 3.91010705 0.66698046 4.44433985 -1 5 C-0.67 3.35 -0.34 1.7 0 0 Z " fill="#4895EC" transform="translate(34,86)"/>
<path d="M0 0 C3.63 0 7.26 0 11 0 C11.33 1.32 11.66 2.64 12 4 C11.01 4 10.02 4 9 4 C9 3.34 9 2.68 9 2 C5.7 2 2.4 2 -1 2 C-0.67 1.34 -0.34 0.68 0 0 Z " fill="#57D9D6" transform="translate(86,45)"/>
<path d="M0 0 C3.34373475 0.55728913 6.03312999 1.35173889 9 3 C9 3.33 9 3.66 9 4 C5.7 4 2.4 4 -1 4 C-0.67 2.68 -0.34 1.36 0 0 Z " fill="#32C6E0" transform="translate(14,59)"/>
<path d="M0 0 C1.32 0 2.64 0 4 0 C4 2.31 4 4.62 4 7 C2.68 7 1.36 7 0 7 C0 4.69 0 2.38 0 0 Z " fill="#7181FE" transform="translate(123,105)"/>
<path d="M0 0 C2.0625 0.4375 2.0625 0.4375 4 1 C4 2.32 4 3.64 4 5 C2.68 5.33 1.36 5.66 0 6 C-0.38218767 4.34385343 -0.71395102 2.67542976 -1 1 C-0.67 0.67 -0.34 0.34 0 0 Z " fill="#4CCFDB" transform="translate(22,67)"/>
<path d="M0 0 C0.66 0 1.32 0 2 0 C2.66 2.31 3.32 4.62 4 7 C3.34 7 2.68 7 2 7 C2 7.66 2 8.32 2 9 C1.01 9 0.02 9 -1 9 C-0.67 6.03 -0.34 3.06 0 0 Z " fill="#6763FF" transform="translate(103,108)"/>
<path d="M0 0 C0.99 0.33 1.98 0.66 3 1 C2.01 2.485 2.01 2.485 1 4 C-1.3828125 4.29296875 -1.3828125 4.29296875 -4.125 4.1875 C-5.03507813 4.16042969 -5.94515625 4.13335937 -6.8828125 4.10546875 C-7.58148438 4.07066406 -8.28015625 4.03585938 -9 4 C-9 3.34 -9 2.68 -9 2 C-6.03 2 -3.06 2 0 2 C0 1.34 0 0.68 0 0 Z " fill="#95DCE5" transform="translate(16,73)"/>
<path d="M0 0 C0.99 0 1.98 0 3 0 C2.625 1.9375 2.625 1.9375 2 4 C-0.70879335 5.35439668 -3.00933268 5.06501451 -6 5 C-5 3 -5 3 -3 2 C-2.34 2.33 -1.68 2.66 -1 3 C-0.67 2.01 -0.34 1.02 0 0 Z " fill="#3DC0CA" transform="translate(47,97)"/>
<path d="M0 0 C0.66 0 1.32 0 2 0 C2 1.98 2 3.96 2 6 C2.66 6.33 3.32 6.66 4 7 C2.02 7.99 2.02 7.99 0 9 C-0.66 8.01 -1.32 7.02 -2 6 C-1.125 2.8125 -1.125 2.8125 0 0 Z " fill="#F9FDFE" transform="translate(119,52)"/>
<path d="M0 0 C-0.66 1.65 -1.32 3.3 -2 5 C-2.99 4.34 -3.98 3.68 -5 3 C-6.65549531 2.61500109 -8.3222433 2.27206865 -10 2 C-6.3558226 -0.4294516 -4.28758728 -0.16179575 0 0 Z " fill="#4FCBE7" transform="translate(123,96)"/>
<path d="M0 0 C0.33 0 0.66 0 1 0 C1 2.64 1 5.28 1 8 C0.01 8.33 -0.98 8.66 -2 9 C-2.25 3.375 -2.25 3.375 0 0 Z " fill="#409AE9" transform="translate(43,59)"/>
<path d="M0 0 C-0.185625 0.5775 -0.37125 1.155 -0.5625 1.75 C-1.04023546 4.20692525 -0.75729364 5.64397534 0 8 C-1.65 6.35 -3.3 4.7 -5 3 C-2.25 0 -2.25 0 0 0 Z " fill="#E3F2F8" transform="translate(40,92)"/>
<path d="M0 0 C0.33 0.66 0.66 1.32 1 2 C1.99 2.33 2.98 2.66 4 3 C3 4 3 4 0.49609375 4.09765625 C-1.01791016 4.08025391 -1.01791016 4.08025391 -2.5625 4.0625 C-3.57441406 4.05347656 -4.58632812 4.04445313 -5.62890625 4.03515625 C-6.41136719 4.02355469 -7.19382812 4.01195312 -8 4 C-8 3.34 -8 2.68 -8 2 C-5.69 2 -3.38 2 -1 2 C-0.67 1.34 -0.34 0.68 0 0 Z " fill="#8ECCDF" transform="translate(106,45)"/>
<path d="M0 0 C0.66 0.33 1.32 0.66 2 1 C0.68 2.65 -0.64 4.3 -2 6 C-3.65 5.67 -5.3 5.34 -7 5 C-7 4.34 -7 3.68 -7 3 C-4.525 3.495 -4.525 3.495 -2 4 C-1.34 2.68 -0.68 1.36 0 0 Z " fill="#C6F0F4" transform="translate(117,102)"/>
<path d="M0 0 C0.66 0 1.32 0 2 0 C2 2.97 2 5.94 2 9 C1.01 9 0.02 9 -1 9 C-0.67 6.03 -0.34 3.06 0 0 Z " fill="#6055FE" transform="translate(31,88)"/>
<path d="M0 0 C0.66 0.33 1.32 0.66 2 1 C0.515 4.96 0.515 4.96 -1 9 C-1.66 9 -2.32 9 -3 9 C-2.44271087 5.65626525 -1.64826111 2.96687001 0 0 Z " fill="#E9F8F9" transform="translate(47,91)"/>
<path d="M0 0 C1.32 0 2.64 0 4 0 C3.67 1.65 3.34 3.3 3 5 C2.01 5.33 1.02 5.66 0 6 C0 4.02 0 2.04 0 0 Z " fill="#34AFC6" transform="translate(26,59)"/>
<path d="M0 0 C2.31 0 4.62 0 7 0 C6.01 0.33 5.02 0.66 4 1 C3.67 1.99 3.34 2.98 3 4 C2.01 4 1.02 4 0 4 C0 2.68 0 1.36 0 0 Z " fill="#33C7DE" transform="translate(13,65)"/>
<path d="M0 0 C0.433125 0.61875 0.86625 1.2375 1.3125 1.875 C2.99740483 4.2197245 2.99740483 4.2197245 6 6 C5.01 6.66 4.02 7.32 3 8 C0.37613513 4.93882432 0 4.26826873 0 0 Z " fill="#54D5E2" transform="translate(108,103)"/>
<path d="M0 0 C1.65 0.99 3.3 1.98 5 3 C3.625 5 3.625 5 2 7 C1.34 7 0.68 7 0 7 C0.2784375 6.1028125 0.2784375 6.1028125 0.5625 5.1875 C1.22093687 2.83591238 1.22093687 2.83591238 0 0 Z " fill="#E7F8F9" transform="translate(53,92)"/>
<path d="M0 0 C0.66 0 1.32 0 2 0 C2 1.32 2 2.64 2 4 C0.35 4.33 -1.3 4.66 -3 5 C-3.33 4.34 -3.66 3.68 -4 3 C-3.01 3 -2.02 3 -1 3 C-0.67 2.01 -0.34 1.02 0 0 Z " fill="#42CFD5" transform="translate(58,89)"/>
</svg>
