<?xml version="1.0" encoding="UTF-8"?>
<svg version="1.1" xmlns="http://www.w3.org/2000/svg" width="150" height="150">
<path d="M0 0 C0.99 1.98 0.99 1.98 2 4 C4.91634129 4.2502157 4.91634129 4.2502157 8 4 C8.66 3.01 9.32 2.02 10 1 C13.93673644 2.31224548 16.22719294 3.91910327 19 7 C18.34 7.66 17.68 8.32 17 9 C17 10.32 17 11.64 17 13 C18.82337891 13.09087891 18.82337891 13.09087891 20.68359375 13.18359375 C22.26824228 13.26798332 23.85287702 13.3526321 25.4375 13.4375 C26.64116211 13.49647461 26.64116211 13.49647461 27.86914062 13.55664062 C33.88671875 13.88671875 33.88671875 13.88671875 35 15 C35.08713831 16.70772358 35.10700007 18.41898649 35.09765625 20.12890625 C35.09282227 21.68061523 35.09282227 21.68061523 35.08789062 23.26367188 C35.07532227 24.8965918 35.07532227 24.8965918 35.0625 26.5625 C35.05798828 27.65498047 35.05347656 28.74746094 35.04882812 29.87304688 C35.03699826 32.58208495 35.02051543 35.29101599 35 38 C35.66 38 36.32 38 37 38 C37.061875 38.61875 37.12375 39.2375 37.1875 39.875 C37.828919 42.27761141 37.828919 42.27761141 40.5625 43.25 C41.366875 43.4975 42.17125 43.745 43 44 C43 45.32 43 46.64 43 48 C42.34 48 41.68 48 41 48 C41.20625 49.093125 41.4125 50.18625 41.625 51.3125 C42 55 42 55 40 58 C37.69 57.67 35.38 57.34 33 57 C33 57.99 33 58.98 33 60 C31.35 60 29.7 60 28 60 C27.01 57.525 27.01 57.525 26 55 C24.68 55 23.36 55 22 55 C20.84162374 50.94568308 21.16308743 48.78187881 23 45 C21.02 44.505 21.02 44.505 19 44 C19 50.6 19 57.2 19 64 C21.31 64 23.62 64 26 64 C27 65 27 65 27.11352539 68.96899414 C27.1133662 70.74105607 27.10766785 72.5131226 27.09765625 74.28515625 C27.0962413 75.21597519 27.09482635 76.14679413 27.09336853 77.1058197 C27.08775172 80.09141191 27.0751964 83.07693029 27.0625 86.0625 C27.05748716 88.08137913 27.05292388 90.10025943 27.04882812 92.11914062 C27.03777683 97.07945572 27.02050095 102.03971532 27 107 C29.31 107.66 31.62 108.32 34 109 C33 111 33 111 31.34521484 111.61450195 C26.49200924 112.41225457 21.54404055 112.18590312 16.63769531 112.18530273 C14.63863013 112.18748512 12.63960468 112.20599143 10.640625 112.22460938 C9.36960937 112.22654297 8.09859375 112.22847656 6.7890625 112.23046875 C5.63100098 112.23457764 4.47293945 112.23868652 3.27978516 112.24291992 C-0.11310954 111.99162245 -2.83332989 111.21173908 -6 110 C-5.67 109.34 -5.34 108.68 -5 108 C-2.4375 107.375 -2.4375 107.375 0 107 C-0.67857056 106.99191315 -1.35714111 106.98382629 -2.05627441 106.97549438 C-9.19572947 106.88863335 -16.33493245 106.7891071 -23.47412109 106.68261719 C-26.12938188 106.64363425 -28.7845665 106.60971702 -31.43994141 106.578125 C-69.93926359 106.11445232 -69.93926359 106.11445232 -77 102 C-76 100 -76 100 -73 99 C-73 98.34 -73 97.68 -73 97 C-75.97065509 97.34227572 -75.97065509 97.34227572 -79 98 C-79.495 98.99 -79.495 98.99 -80 100 C-83.65316671 98.75023244 -84.78065836 98.32901247 -87 95 C-86.625 93 -86.625 93 -86 91 C-86 90.01 -86 89.02 -86 88 C-87.65 88 -89.3 88 -91 88 C-91 85.36 -91 82.72 -91 80 C-88.525 79.505 -88.525 79.505 -86 79 C-85.855625 78.236875 -85.71125 77.47375 -85.5625 76.6875 C-85 74 -85 74 -84 71 C-80.9375 69.8125 -80.9375 69.8125 -78 69 C-77.67 70.32 -77.34 71.64 -77 73 C-76.01 73 -75.02 73 -74 73 C-74 69.04 -74 65.08 -74 61 C-78.29 61 -82.58 61 -87 61 C-87.02683436 57.68744674 -87.0467578 54.37510817 -87.0625 51.0625 C-87.07087891 50.11697266 -87.07925781 49.17144531 -87.08789062 48.19726562 C-87.09111328 47.29814453 -87.09433594 46.39902344 -87.09765625 45.47265625 C-87.10289307 44.64000244 -87.10812988 43.80734863 -87.11352539 42.94946289 C-87 41 -87 41 -86 40 C-83.98035801 39.92755947 -81.95832876 39.91622812 -79.9375 39.9375 C-78.28041016 39.95103516 -78.28041016 39.95103516 -76.58984375 39.96484375 C-75.73519531 39.97644531 -74.88054687 39.98804688 -74 40 C-74 37.69 -74 35.38 -74 33 C-74.85464844 32.93941406 -75.70929688 32.87882812 -76.58984375 32.81640625 C-77.69457031 32.73261719 -78.79929687 32.64882813 -79.9375 32.5625 C-81.03964844 32.48128906 -82.14179687 32.40007813 -83.27734375 32.31640625 C-86 32 -86 32 -87 31 C-87.09986975 28.15664952 -87.13877881 25.34302837 -87.125 22.5 C-87.12886719 21.70207031 -87.13273437 20.90414062 -87.13671875 20.08203125 C-87.12660767 14.12660767 -87.12660767 14.12660767 -86 13 C-84.5112814 12.91330568 -83.018555 12.89296506 -81.52734375 12.90234375 C-80.62822266 12.90556641 -79.72910156 12.90878906 -78.80273438 12.91210938 C-77.85720703 12.92048828 -76.91167969 12.92886719 -75.9375 12.9375 C-74.98810547 12.94201172 -74.03871094 12.94652344 -73.06054688 12.95117188 C-70.70700469 12.96299872 -68.35349468 12.98093479 -66 13 C-66 18.61 -66 24.22 -66 30 C-63.69 30 -61.38 30 -59 30 C-58.67 28.68 -58.34 27.36 -58 26 C-42.82 26 -27.64 26 -12 26 C-12 25.01 -12 24.02 -12 23 C-13.98 22.67 -15.96 22.34 -18 22 C-17.67 19.03 -17.34 16.06 -17 13 C-14.69 12.34 -12.38 11.68 -10 11 C-9.855625 10.2575 -9.71125 9.515 -9.5625 8.75 C-9.376875 7.8425 -9.19125 6.935 -9 6 C-8.896875 5.278125 -8.79375 4.55625 -8.6875 3.8125 C-8 2 -8 2 -6.1875 0.75 C-4 0 -4 0 0 0 Z M-4 13.0625 C-6.51930235 16.76272533 -6.7066341 18.6031656 -6 23 C-4.59121904 25.9901643 -4.59121904 25.9901643 -2 28 C1.64182335 28.89055736 1.64182335 28.89055736 5 29 C5.03738281 28.01257813 5.07476562 27.02515625 5.11328125 26.0078125 C5.17902344 24.72648437 5.24476562 23.44515625 5.3125 22.125 C5.37050781 20.84882812 5.42851563 19.57265625 5.48828125 18.2578125 C5.65714844 17.18273437 5.82601562 16.10765625 6 15 C6.99 14.34 7.98 13.68 9 13 C7.01607489 10.60148679 7.01607489 10.60148679 3.1875 10.5625 C-0.21763815 10.661739 -1.029595 11.02034656 -4 13.0625 Z M27 46 C26.6366844 48.83386167 26.6431329 50.40522151 28.125 52.875 C30.92151052 54.55290631 32.93690532 53.74875648 36 53 C36.67673447 49.59679066 36.67673447 49.59679066 37 46 C35.11499729 43.68436913 35.11499729 43.68436913 32 43.75 C28.88500271 43.68436913 28.88500271 43.68436913 27 46 Z M-80.25 79.625 C-82.21985834 81.92308586 -82.21985834 81.92308586 -82.5 85 C-82.21376982 88.06575838 -82.21376982 88.06575838 -80.3125 90.375 C-77.61209763 92.27258004 -76.22939919 92.35882213 -73 92 C-72.85024761 84.94348748 -72.85024761 84.94348748 -74 78 C-77.92212225 77.60967296 -77.92212225 77.60967296 -80.25 79.625 Z M-66 94 C-66 95.65 -66 97.3 -66 99 C-53.13 98.01 -53.13 98.01 -40 97 C-39.67 96.01 -39.34 95.02 -39 94 C-47.91 94 -56.82 94 -66 94 Z M-15 94 C-15 94.99 -15 95.98 -15 97 C-9.72 97.33 -4.44 97.66 1 98 C1 96.68 1 95.36 1 94 C-4.28 94 -9.56 94 -15 94 Z " fill="#5833FF" transform="translate(100,19)"/>
<path d="M0 0 C2.31 0 4.62 0 7 0 C7 2.97 7 5.94 7 9 C10.3 9 13.6 9 17 9 C17 15.6 17 22.2 17 29 C12.71 29 8.42 29 4 29 C4 29.66 4 30.32 4 31 C12.79133718 32.42426407 12.79133718 32.42426407 29 32 C29 45.2 29 58.4 29 72 C31.31 72.66 33.62 73.32 36 74 C35 76 35 76 33.34521484 76.61450195 C28.49200924 77.41225457 23.54404055 77.18590312 18.63769531 77.18530273 C16.63863013 77.18748512 14.63960468 77.20599143 12.640625 77.22460938 C11.36960937 77.22654297 10.09859375 77.22847656 8.7890625 77.23046875 C7.63100098 77.23457764 6.47293945 77.23868652 5.27978516 77.24291992 C1.88689046 76.99162245 -0.83332989 76.21173908 -4 75 C-3.67 74.34 -3.34 73.68 -3 73 C-0.4375 72.375 -0.4375 72.375 2 72 C1.32142944 71.99191315 0.64285889 71.98382629 -0.05627441 71.97549438 C-7.19572947 71.88863335 -14.33493245 71.7891071 -21.47412109 71.68261719 C-24.12938188 71.64363425 -26.7845665 71.60971702 -29.43994141 71.578125 C-67.93926359 71.11445232 -67.93926359 71.11445232 -75 67 C-74 65 -74 65 -71 64 C-71 63.34 -71 62.68 -71 62 C-73.97065509 62.34227572 -73.97065509 62.34227572 -77 63 C-77.495 63.99 -77.495 63.99 -78 65 C-81.65316671 63.75023244 -82.78065836 63.32901247 -85 60 C-84.625 58 -84.625 58 -84 56 C-84 55.01 -84 54.02 -84 53 C-85.65 53 -87.3 53 -89 53 C-89 50.36 -89 47.72 -89 45 C-86.525 44.505 -86.525 44.505 -84 44 C-83.855625 43.236875 -83.71125 42.47375 -83.5625 41.6875 C-83 39 -83 39 -82 36 C-78.9375 34.8125 -78.9375 34.8125 -76 34 C-75.67 35.32 -75.34 36.64 -75 38 C-74.01 38 -73.02 38 -72 38 C-72 39.65 -72 41.3 -72 43 C-72.969375 43.28875 -73.93875 43.5775 -74.9375 43.875 C-78.10664203 44.64214682 -78.10664203 44.64214682 -79 47 C-79.40270732 51.1283652 -79.40270732 51.1283652 -77.8125 54.8125 C-75.57968261 56.27538036 -73.62655933 56.64505955 -71 57 C-71 54.03 -71 51.06 -71 48 C-69.02 48 -67.04 48 -65 48 C-64.67 48.66 -64.34 49.32 -64 50 C-55.75 50 -47.5 50 -39 50 C-38.505 49.01 -38.505 49.01 -38 48 C-24.47 48 -10.94 48 3 48 C3 46.35 3 44.7 3 43 C-3.45981404 43.09242858 -9.91925812 43.19975504 -16.37866211 43.31738281 C-18.57554526 43.3556374 -20.7724903 43.3904964 -22.96948242 43.421875 C-26.12961932 43.4676016 -29.2893315 43.52558418 -32.44921875 43.5859375 C-33.42960617 43.59748871 -34.40999359 43.60903992 -35.42008972 43.62094116 C-41.92789726 43.75926044 -41.92789726 43.75926044 -48 46 C-47.79375 45.21625 -47.5875 44.4325 -47.375 43.625 C-47.189375 42.325625 -47.189375 42.325625 -47 41 C-47.66 40.34 -48.32 39.68 -49 39 C-49.99 41.97 -50.98 44.94 -52 48 C-54 48 -54 48 -56 46.0625 C-56.66 45.381875 -57.32 44.70125 -58 44 C-58.66 43.67 -59.32 43.34 -60 43 C-57.88071605 38.23161112 -55.70280642 34.68767182 -50.75 32.6875 C-49.8425 32.460625 -48.935 32.23375 -48 32 C-48.66 31.34 -49.32 30.68 -50 30 C-49.34 29.34 -48.68 28.68 -48 28 C-47.67 27.34 -47.34 26.68 -47 26 C-46.01 26 -45.02 26 -44 26 C-44 25.01 -44 24.02 -44 23 C-42.73293213 22.97494385 -41.46586426 22.9498877 -40.16040039 22.92407227 C-35.47702221 22.83018004 -30.7937987 22.72991565 -26.1105957 22.62768555 C-24.08035896 22.58426759 -22.05008408 22.54259774 -20.01977539 22.50268555 C-17.10811849 22.44514854 -14.19665486 22.38140722 -11.28515625 22.31640625 C-9.91485008 22.29133751 -9.91485008 22.29133751 -8.51686096 22.26576233 C-4.43210684 22.5769315 -4.43210684 22.5769315 -1 21 C-0.84313751 19.44051458 -0.74923361 17.87457332 -0.68359375 16.30859375 C-0.64169922 15.36435547 -0.59980469 14.42011719 -0.55664062 13.44726562 C-0.51732422 12.45404297 -0.47800781 11.46082031 -0.4375 10.4375 C-0.37272461 8.94186523 -0.37272461 8.94186523 -0.30664062 7.41601562 C-0.20019702 4.9441585 -0.09818072 2.4721969 0 0 Z M-64 59 C-64 60.65 -64 62.3 -64 64 C-51.13 63.01 -51.13 63.01 -38 62 C-37.67 61.01 -37.34 60.02 -37 59 C-45.91 59 -54.82 59 -64 59 Z M-13 59 C-13 59.99 -13 60.98 -13 62 C-7.72 62.33 -2.44 62.66 3 63 C3 61.68 3 60.36 3 59 C-2.28 59 -7.56 59 -13 59 Z " fill="#7284FD" transform="translate(98,54)"/>
<path d="M0 0 C0.33 1.32 0.66 2.64 1 4 C1.99 4 2.98 4 4 4 C4 5.65 4 7.3 4 9 C3.030625 9.28875 2.06125 9.5775 1.0625 9.875 C-2.10664203 10.64214682 -2.10664203 10.64214682 -3 13 C-3.40270732 17.1283652 -3.40270732 17.1283652 -1.8125 20.8125 C0.42031739 22.27538036 2.37344067 22.64505955 5 23 C5 20.03 5 17.06 5 14 C6.98 14 8.96 14 11 14 C11.33 14.66 11.66 15.32 12 16 C20.25 16 28.5 16 37 16 C37.33 15.34 37.66 14.68 38 14 C51.53 14 65.06 14 79 14 C79 17.63 79 21.26 79 25 C73.72 25 68.44 25 63 25 C63 25.99 63 26.98 63 28 C63.56847656 27.98839844 64.13695313 27.97679688 64.72265625 27.96484375 C69.60670484 27.90776806 74.18503965 28.18043228 79 29 C79 31.64 79 34.28 79 37 C71.71409984 37.04682155 64.42823335 37.08211748 57.14221191 37.10362434 C53.75718789 37.11395864 50.37226851 37.12792229 46.98730469 37.15087891 C8.5625541 37.39227608 8.5625541 37.39227608 1 33 C2 31 2 31 5 30 C5 29.34 5 28.68 5 28 C2.02934491 28.34227572 2.02934491 28.34227572 -1 29 C-1.33 29.66 -1.66 30.32 -2 31 C-5.65316671 29.75023244 -6.78065836 29.32901247 -9 26 C-8.625 24 -8.625 24 -8 22 C-8 21.01 -8 20.02 -8 19 C-9.65 19 -11.3 19 -13 19 C-13 16.36 -13 13.72 -13 11 C-11.35 10.67 -9.7 10.34 -8 10 C-7.855625 9.236875 -7.71125 8.47375 -7.5625 7.6875 C-7 5 -7 5 -6 2 C-3.85412616 0.684787 -2.52986895 0 0 0 Z M12 25 C12 26.65 12 28.3 12 30 C24.87 29.01 24.87 29.01 38 28 C38.33 27.01 38.66 26.02 39 25 C30.09 25 21.18 25 12 25 Z " fill="#B5D1FE" transform="translate(22,88)"/>
<path d="M0 0 C16.83 0 33.66 0 51 0 C51 8.91 51 17.82 51 27 C34.17 27 17.34 27 0 27 C0 18.09 0 9.18 0 0 Z " fill="#404991" transform="translate(44,47)"/>
<path d="M0 0 C0.66 1.32 1.32 2.64 2 4 C4.91634129 4.2502157 4.91634129 4.2502157 8 4 C8.66 3.01 9.32 2.02 10 1 C13.93673644 2.31224548 16.22719294 3.91910327 19 7 C18.34 7.66 17.68 8.32 17 9 C17 10.32 17 11.64 17 13 C18.21558594 13.06058594 19.43117187 13.12117188 20.68359375 13.18359375 C22.26824228 13.26798332 23.85287702 13.3526321 25.4375 13.4375 C26.64116211 13.49647461 26.64116211 13.49647461 27.86914062 13.55664062 C33.88671875 13.88671875 33.88671875 13.88671875 35 15 C35.08713831 16.70772358 35.10700007 18.41898649 35.09765625 20.12890625 C35.09443359 21.16337891 35.09121094 22.19785156 35.08789062 23.26367188 C35.07532227 24.8965918 35.07532227 24.8965918 35.0625 26.5625 C35.05798828 27.65498047 35.05347656 28.74746094 35.04882812 29.87304688 C35.03699826 32.58208495 35.02051543 35.29101599 35 38 C35.66 38 36.32 38 37 38 C37.061875 38.61875 37.12375 39.2375 37.1875 39.875 C37.828919 42.27761141 37.828919 42.27761141 40.5625 43.25 C41.366875 43.4975 42.17125 43.745 43 44 C43 45.32 43 46.64 43 48 C42.34 48 41.68 48 41 48 C41.20625 49.093125 41.4125 50.18625 41.625 51.3125 C42 55 42 55 40 58 C37.69 57.67 35.38 57.34 33 57 C33 57.99 33 58.98 33 60 C31.35 60 29.7 60 28 60 C27.34 58.35 26.68 56.7 26 55 C24.68 55 23.36 55 22 55 C20.84162374 50.94568308 21.16308743 48.78187881 23 45 C21.68 44.67 20.36 44.34 19 44 C18.87625 42.906875 18.7525 41.81375 18.625 40.6875 C18.24535199 36.92618198 18.24535199 36.92618198 16 34 C16.66 34 17.32 34 18 34 C17.67 33.01 17.34 32.02 17 31 C10.73 30.67 4.46 30.34 -2 30 C-2 29.34 -2 28.68 -2 28 C0.31 28.33 2.62 28.66 5 29 C4.94779297 27.51886719 4.94779297 27.51886719 4.89453125 26.0078125 C4.86746094 24.72648437 4.84039062 23.44515625 4.8125 22.125 C4.76029297 20.21074219 4.76029297 20.21074219 4.70703125 18.2578125 C4.80371094 17.18273437 4.90039062 16.10765625 5 15 C5.99 14.34 6.98 13.68 8 13 C6.78410016 11.56844101 6.78410016 11.56844101 3.1875 11.6875 C0.1692278 11.74168801 -0.86175828 11.91359892 -3.5 13.5625 C-5.53366895 16.86721204 -5.3468602 19.18453778 -5 23 C-4.67 23.99 -4.34 24.98 -4 26 C-6.31 26 -8.62 26 -11 26 C-11.33 25.01 -11.66 24.02 -12 23 C-13.98 22.67 -15.96 22.34 -18 22 C-17.505 17.545 -17.505 17.545 -17 13 C-14.69 12.34 -12.38 11.68 -10 11 C-9.855625 10.2575 -9.71125 9.515 -9.5625 8.75 C-9.376875 7.8425 -9.19125 6.935 -9 6 C-8.8453125 4.9171875 -8.8453125 4.9171875 -8.6875 3.8125 C-8 2 -8 2 -6.1875 0.75 C-4 0 -4 0 0 0 Z M27 46 C26.6366844 48.83386167 26.6431329 50.40522151 28.125 52.875 C30.92151052 54.55290631 32.93690532 53.74875648 36 53 C36.67673447 49.59679066 36.67673447 49.59679066 37 46 C35.11499729 43.68436913 35.11499729 43.68436913 32 43.75 C28.88500271 43.68436913 28.88500271 43.68436913 27 46 Z " fill="#38D2D3" transform="translate(100,19)"/>
<path d="M0 0 C8.58 0 17.16 0 26 0 C26 13.2 26 26.4 26 40 C28.31 40.66 30.62 41.32 33 42 C32 44 32 44 30.34521484 44.61450195 C25.49200924 45.41225457 20.54404055 45.18590312 15.63769531 45.18530273 C13.63863013 45.18748512 11.63960468 45.20599143 9.640625 45.22460938 C8.36960937 45.22654297 7.09859375 45.22847656 5.7890625 45.23046875 C4.63100098 45.23457764 3.47293945 45.23868652 2.27978516 45.24291992 C-1.11310954 44.99162245 -3.83332989 44.21173908 -7 43 C-6 41 -6 41 0 39 C0 26.13 0 13.26 0 0 Z " fill="#5E4CF2" transform="translate(101,86)"/>
<path d="M0 0 C0.495 1.98 0.495 1.98 1 4 C7.27 4 13.54 4 20 4 C21 8 21 8 21 10 C21.495 10.495 21.495 10.495 22 11 C22.08758003 12.99964982 22.10696576 15.0023611 22.09765625 17.00390625 C22.09282227 18.82631836 22.09282227 18.82631836 22.08789062 20.68554688 C22.07532227 22.60463867 22.07532227 22.60463867 22.0625 24.5625 C22.05798828 25.84576172 22.05347656 27.12902344 22.04882812 28.45117188 C22.03699545 31.63416022 22.02051068 34.81705762 22 38 C24.31 38 26.62 38 29 38 C29.33 38.99 29.66 39.98 30 41 C21.19039858 42.30512614 12.80960142 42.30512614 4 41 C4.33 40.01 4.66 39.02 5 38 C9.29 38 13.58 38 18 38 C18 31.4 18 24.8 18 18 C14.7 18 11.4 18 8 18 C8 15.03 8 12.06 8 9 C5.69 9 3.38 9 1 9 C1.01571045 9.93851807 1.01571045 9.93851807 1.03173828 10.89599609 C1.07323191 13.7222901 1.09930473 16.54852011 1.125 19.375 C1.14175781 20.35984375 1.15851563 21.3446875 1.17578125 22.359375 C1.18544922 23.77089844 1.18544922 23.77089844 1.1953125 25.2109375 C1.21102295 26.51490479 1.21102295 26.51490479 1.22705078 27.84521484 C1 30 1 30 -1 32 C-3.23913574 32.25396729 -3.23913574 32.25396729 -6.06054688 32.25878906 C-7.64228699 32.26824554 -7.64228699 32.26824554 -9.25598145 32.27789307 C-10.39869507 32.2738446 -11.54140869 32.26979614 -12.71875 32.265625 C-14.47197571 32.26849518 -14.47197571 32.26849518 -16.26062012 32.27142334 C-18.73543513 32.27278626 -21.21025726 32.26908241 -23.68505859 32.26074219 C-27.48421205 32.25004446 -31.28289259 32.26063418 -35.08203125 32.2734375 C-37.48177188 32.27211592 -39.88151222 32.26955357 -42.28125 32.265625 C-43.99532043 32.27169769 -43.99532043 32.27169769 -45.74401855 32.27789307 C-46.79851196 32.27158875 -47.85300537 32.26528442 -48.93945312 32.25878906 C-49.8705188 32.25719788 -50.80158447 32.25560669 -51.76086426 32.25396729 C-54 32 -54 32 -56 30 C-56.24291992 27.234375 -56.24291992 27.234375 -56.23046875 23.75 C-56.22853516 22.5021875 -56.22660156 21.254375 -56.22460938 19.96875 C-56.21236328 18.6590625 -56.20011719 17.349375 -56.1875 16 C-56.18685547 14.6903125 -56.18621094 13.380625 -56.18554688 12.03125 C-56.14021767 2.28043535 -56.14021767 2.28043535 -55 0 C-48.61388719 -0.16930751 -42.22758401 -0.32898578 -35.84106445 -0.48217773 C-33.6714135 -0.53533249 -31.50181408 -0.59063852 -29.33227539 -0.64819336 C-26.2020987 -0.73085015 -23.07181427 -0.80560143 -19.94140625 -0.87890625 C-18.98166397 -0.90594131 -18.02192169 -0.93297638 -17.03309631 -0.96083069 C-11.24879531 -1.08714399 -5.73684696 -0.76302891 0 0 Z M-53 2 C-53 10.91 -53 19.82 -53 29 C-36.17 29 -19.34 29 -2 29 C-2 20.09 -2 11.18 -2 2 C-18.83 2 -35.66 2 -53 2 Z " fill="#37CFCF" transform="translate(97,45)"/>
<path d="M0 0 C0.33 1.32 0.66 2.64 1 4 C1.99 4 2.98 4 4 4 C4 5.65 4 7.3 4 9 C3.030625 9.28875 2.06125 9.5775 1.0625 9.875 C-2.10664203 10.64214682 -2.10664203 10.64214682 -3 13 C-3.43986452 17.03518598 -3.43986452 17.03518598 -1.86328125 20.6015625 C1.39651569 23.0481187 5.35127079 23.30042673 9.28515625 24.05859375 C12 25 12 25 14 29 C21.92 28.67 29.84 28.34 38 28 C37.67 28.66 37.34 29.32 37 30 C34.35139573 30.59355614 31.70802678 30.74209269 29 31 C29 31.66 29 32.32 29 33 C43.19 33 57.38 33 72 33 C71.67 32.34 71.34 31.68 71 31 C69.845 30.835 68.69 30.67 67.5 30.5 C66.345 30.335 65.19 30.17 64 30 C63.505 29.01 63.505 29.01 63 28 C68.45769811 27.88861841 73.61509359 28.08342019 79 29 C79 31.64 79 34.28 79 37 C71.71409984 37.04682155 64.42823335 37.08211748 57.14221191 37.10362434 C53.75718789 37.11395864 50.37226851 37.12792229 46.98730469 37.15087891 C8.5625541 37.39227608 8.5625541 37.39227608 1 33 C2 31 2 31 5 30 C5 29.34 5 28.68 5 28 C2.02934491 28.34227572 2.02934491 28.34227572 -1 29 C-1.33 29.66 -1.66 30.32 -2 31 C-5.65316671 29.75023244 -6.78065836 29.32901247 -9 26 C-8.625 24 -8.625 24 -8 22 C-8 21.01 -8 20.02 -8 19 C-9.65 19 -11.3 19 -13 19 C-13 16.36 -13 13.72 -13 11 C-11.35 10.67 -9.7 10.34 -8 10 C-7.855625 9.236875 -7.71125 8.47375 -7.5625 7.6875 C-7 5 -7 5 -6 2 C-3.85412616 0.684787 -2.52986895 0 0 0 Z " fill="#EAEBF2" transform="translate(22,88)"/>
<path d="M0 0 C12.87 0 25.74 0 39 0 C39 0.66 39 1.32 39 2 C38.01 2.33 37.02 2.66 36 3 C36 2.34 36 1.68 36 1 C34.02 1.99 32.04 2.98 30 4 C30.99 4.66 31.98 5.32 33 6 C33 6.66 33 7.32 33 8 C32.34 8 31.68 8 31 8 C30.67 8.66 30.34 9.32 30 10 C28.68 9.67 27.36 9.34 26 9 C26 9.66 26 10.32 26 11 C24.35 11.33 22.7 11.66 21 12 C20.67 12.99 20.34 13.98 20 15 C20.99 15.33 21.98 15.66 23 16 C22.34 17.32 21.68 18.64 21 20 C20.42032471 20.01981934 19.84064941 20.03963867 19.2434082 20.06005859 C16.59934063 20.15572601 13.9560183 20.26523453 11.3125 20.375 C10.40048828 20.4059375 9.48847656 20.436875 8.54882812 20.46875 C3.98796369 20.66776954 0.13809725 20.85690122 -4 23 C-3.690625 21.824375 -3.690625 21.824375 -3.375 20.625 C-3.25125 19.75875 -3.1275 18.8925 -3 18 C-3.66 17.34 -4.32 16.68 -5 16 C-5.99 18.97 -6.98 21.94 -8 25 C-10 25 -10 25 -12 23.0625 C-12.66 22.381875 -13.32 21.70125 -14 21 C-14.66 20.67 -15.32 20.34 -16 20 C-13.88071605 15.23161112 -11.70280642 11.68767182 -6.75 9.6875 C-5.38875 9.3471875 -5.38875 9.3471875 -4 9 C-4.66 8.34 -5.32 7.68 -6 7 C-5.34 6.34 -4.68 5.68 -4 5 C-3.67 4.34 -3.34 3.68 -3 3 C-2.01 3 -1.02 3 0 3 C0 2.01 0 1.02 0 0 Z " fill="#6C72FE" transform="translate(54,77)"/>
<path d="M0 0 C1.58206057 0.00667536 3.16410534 0.0186375 4.74609375 0.03515625 C5.55240234 0.03966797 6.35871094 0.04417969 7.18945312 0.04882812 C9.18753131 0.06065107 11.18557158 0.07858711 13.18359375 0.09765625 C10.18359375 2.09765625 10.18359375 2.09765625 7.80859375 2.78515625 C4.05604351 4.66143137 2.37581546 7.60875873 0.18359375 11.09765625 C1.50359375 11.75765625 2.82359375 12.41765625 4.18359375 13.09765625 C4.84359375 12.43765625 5.50359375 11.77765625 6.18359375 11.09765625 C6.18359375 12.74765625 6.18359375 14.39765625 6.18359375 16.09765625 C6.84359375 16.09765625 7.50359375 16.09765625 8.18359375 16.09765625 C8.30476563 15.45957031 8.4259375 14.82148437 8.55078125 14.1640625 C8.71835937 13.33777344 8.8859375 12.51148437 9.05859375 11.66015625 C9.22101562 10.83644531 9.3834375 10.01273438 9.55078125 9.1640625 C9.75960937 8.48214844 9.9684375 7.80023438 10.18359375 7.09765625 C10.84359375 6.76765625 11.50359375 6.43765625 12.18359375 6.09765625 C13.24609375 7.91015625 13.24609375 7.91015625 14.18359375 10.09765625 C13.85359375 11.08765625 13.52359375 12.07765625 13.18359375 13.09765625 C14.02890656 12.60968063 14.02890656 12.60968063 14.89129639 12.11184692 C17.4328075 10.98739557 19.09544813 10.85541369 21.86035156 10.87060547 C22.78100403 10.87075653 23.70165649 10.87090759 24.65020752 10.87106323 C26.12853058 10.88654709 26.12853058 10.88654709 27.63671875 10.90234375 C29.15975616 10.90658859 29.15975616 10.90658859 30.71356201 10.91091919 C33.95369291 10.92210624 37.19354651 10.94720834 40.43359375 10.97265625 C42.63150642 10.98268795 44.82942343 10.99181347 47.02734375 11 C52.41285489 11.02204074 57.79820451 11.05550374 63.18359375 11.09765625 C63.18359375 12.74765625 63.18359375 14.39765625 63.18359375 16.09765625 C49.65359375 16.09765625 36.12359375 16.09765625 22.18359375 16.09765625 C21.85359375 17.08765625 21.52359375 18.07765625 21.18359375 19.09765625 C17.03777488 19.12652376 12.89198159 19.14440952 8.74609375 19.16015625 C6.97008789 19.17272461 6.97008789 19.17272461 5.15820312 19.18554688 C4.03349609 19.18876953 2.90878906 19.19199219 1.75 19.1953125 C0.1868103 19.20316772 0.1868103 19.20316772 -1.40795898 19.21118164 C-3.81640625 19.09765625 -3.81640625 19.09765625 -4.81640625 18.09765625 C-4.916276 15.25430577 -4.95518506 12.44068462 -4.94140625 9.59765625 C-4.94527344 8.79972656 -4.94914062 8.00179687 -4.953125 7.1796875 C-4.94115004 0.1264368 -4.94115004 0.1264368 0 0 Z " fill="#36D7C5" transform="translate(37.81640625,85.90234375)"/>
<path d="M0 0 C0.83265381 0.00523682 1.66530762 0.01047363 2.52319336 0.01586914 C3.33280518 0.0183667 4.14241699 0.02086426 4.9765625 0.0234375 C6.01159912 0.0325415 7.04663574 0.04164551 8.11303711 0.05102539 C11.39241211 0.07165039 14.67178711 0.09227539 18.05053711 0.11352539 C18.05053711 7.04352539 18.05053711 13.97352539 18.05053711 21.11352539 C11.12053711 21.11352539 4.19053711 21.11352539 -2.94946289 21.11352539 C-2.97008789 17.83415039 -2.99071289 14.55477539 -3.01196289 11.17602539 C-3.02106689 10.14098877 -3.0301709 9.10595215 -3.03955078 8.03955078 C-3.04329712 6.82513306 -3.04329712 6.82513306 -3.04711914 5.58618164 C-3.05235596 4.75352783 -3.05759277 3.92087402 -3.06298828 3.06298828 C-2.90876673 0.41468917 -2.64829911 0.15422155 0 0 Z " fill="#34C9DC" transform="translate(15.949462890625,58.886474609375)"/>
<path d="M0 0 C0.33 0 0.66 0 1 0 C1.33 1.98 1.66 3.96 2 6 C2.66 5.67 3.32 5.34 4 5 C3.34 3.68 2.68 2.36 2 1 C3.65 1.33 5.3 1.66 7 2 C7.06058594 2.85464844 7.12117188 3.70929688 7.18359375 4.58984375 C7.26738281 5.69457031 7.35117187 6.79929687 7.4375 7.9375 C7.51871094 9.03964844 7.59992187 10.14179687 7.68359375 11.27734375 C7.70418084 13.91109903 7.70418084 13.91109903 9 15 C10.84891946 15.23363881 12.70488031 15.41303635 14.5625 15.5625 C15.57441406 15.64628906 16.58632813 15.73007813 17.62890625 15.81640625 C18.41136719 15.87699219 19.19382812 15.93757813 20 16 C20 16.99 20 17.98 20 19 C19.01 19 18.02 19 17 19 C17.20625 19.61875 17.4125 20.2375 17.625 20.875 C17.74875 21.57625 17.8725 22.2775 18 23 C15.06552643 25.93447357 11.81740544 25.46158423 7.875 25.625 C6.74384766 25.68300781 6.74384766 25.68300781 5.58984375 25.7421875 C3.72696816 25.83651031 1.86351745 25.91934662 0 26 C-0.33 30.95 -0.66 35.9 -1 41 C-3.31 41 -5.62 41 -8 41 C-8 33.74 -8 26.48 -8 19 C-5.36 19 -2.72 19 0 19 C0 12.73 0 6.46 0 0 Z " fill="#5F53FD" transform="translate(34,61)"/>
<path d="M0 0 C0 12.21 0 24.42 0 37 C-8.25 37 -16.5 37 -25 37 C-25.26785714 23.875 -25.26785714 23.875 -23 18 C-22.67 18 -22.34 18 -22 18 C-21.67 20.64 -21.34 23.28 -21 26 C-15.72 26 -10.44 26 -5 26 C-4.67 20.39 -4.34 14.78 -4 9 C-6.31 9 -8.62 9 -11 9 C-11 7 -11 7 -9.35546875 5.2734375 C-8.64003906 4.64695312 -7.92460938 4.02046875 -7.1875 3.375 C-6.47980469 2.74335937 -5.77210937 2.11171875 -5.04296875 1.4609375 C-3 0 -3 0 0 0 Z " fill="#7183FE" transform="translate(127,87)"/>
<path d="M0 0 C0.66 1.32 1.32 2.64 2 4 C4.91634129 4.2502157 4.91634129 4.2502157 8 4 C8.66 3.01 9.32 2.02 10 1 C13.93673644 2.31224548 16.22719294 3.91910327 19 7 C18.34 7.66 17.68 8.32 17 9 C16.83312552 11.58354218 16.83312552 11.58354218 17 14 C10.9453125 14.1953125 10.9453125 14.1953125 9 14 C8.34 13.34 7.68 12.68 7 12 C1.43622348 11.41262964 1.43622348 11.41262964 -3.5 13.5625 C-5.53366895 16.86721204 -5.3468602 19.18453778 -5 23 C-4.67 23.99 -4.34 24.98 -4 26 C-6.31 26 -8.62 26 -11 26 C-11.33 25.01 -11.66 24.02 -12 23 C-13.98 22.67 -15.96 22.34 -18 22 C-17.505 17.545 -17.505 17.545 -17 13 C-14.69 12.34 -12.38 11.68 -10 11 C-9.855625 10.2575 -9.71125 9.515 -9.5625 8.75 C-9.376875 7.8425 -9.19125 6.935 -9 6 C-8.8453125 4.9171875 -8.8453125 4.9171875 -8.6875 3.8125 C-8 2 -8 2 -6.1875 0.75 C-4 0 -4 0 0 0 Z " fill="#E9EBF2" transform="translate(100,19)"/>
<path d="M0 0 C6.27 0 12.54 0 19 0 C20 4 20 4 20 6 C20.33 6.33 20.66 6.66 21 7 C21.08758003 8.99964982 21.10696576 11.0023611 21.09765625 13.00390625 C21.09443359 14.21884766 21.09121094 15.43378906 21.08789062 16.68554688 C21.07951172 17.96494141 21.07113281 19.24433594 21.0625 20.5625 C21.05798828 21.84576172 21.05347656 23.12902344 21.04882812 24.45117188 C21.03699545 27.63416022 21.02051068 30.81705762 21 34 C23.31 34 25.62 34 28 34 C28.33 34.99 28.66 35.98 29 37 C20.19039858 38.30512614 11.80960142 38.30512614 3 37 C3.33 36.01 3.66 35.02 4 34 C8.29 34 12.58 34 17 34 C17 27.4 17 20.8 17 14 C13.7 14 10.4 14 7 14 C7 11.03 7 8.06 7 5 C4.69 5 2.38 5 0 5 C0 3.35 0 1.7 0 0 Z " fill="#3DBBDD" transform="translate(98,49)"/>
<path d="M0 0 C1.58206057 0.00667536 3.16410534 0.0186375 4.74609375 0.03515625 C5.55240234 0.03966797 6.35871094 0.04417969 7.18945312 0.04882812 C9.18753131 0.06065107 11.18557158 0.07858711 13.18359375 0.09765625 C13.21043687 2.91021906 13.23035563 5.72252866 13.24609375 8.53515625 C13.25447266 9.33759766 13.26285156 10.14003906 13.27148438 10.96679688 C13.28010805 13.01060846 13.23587525 15.05449527 13.18359375 17.09765625 C11.36243372 18.91881628 8.87687611 18.23000705 6.45703125 18.234375 C5.70679687 18.23050781 4.9565625 18.22664063 4.18359375 18.22265625 C3.05824219 18.22845703 3.05824219 18.22845703 1.91015625 18.234375 C-3.68979572 18.22426678 -3.68979572 18.22426678 -4.81640625 17.09765625 C-4.91621839 14.42034245 -4.955205 11.7746145 -4.94140625 9.09765625 C-4.94527344 8.34742187 -4.94914062 7.5971875 -4.953125 6.82421875 C-4.94103514 0.12643386 -4.94103514 0.12643386 0 0 Z " fill="#9FE5F0" transform="translate(109.81640625,95.90234375)"/>
<path d="M0 0 C1.98 0 3.96 0 6 0 C6.33 0.66 6.66 1.32 7 2 C15.25 2 23.5 2 32 2 C32.33 1.34 32.66 0.68 33 0 C34.98 0 36.96 0 39 0 C38.01 0.33 37.02 0.66 36 1 C35.3121764 3.35367713 35.3121764 3.35367713 35 6 C35.66 6.99 36.32 7.98 37 9 C34.50257597 11.49742403 33.02282389 11.23676464 29.61521912 11.25224304 C28.88497025 11.24505753 28.15472137 11.23787201 27.40234375 11.23046875 C26.27814781 11.22978142 26.27814781 11.22978142 25.13124084 11.2290802 C23.54670631 11.22605811 21.96217474 11.21817306 20.37768555 11.20581055 C17.94374142 11.18754683 15.51017738 11.18530089 13.07617188 11.18554688 C11.53905919 11.18063201 10.0019491 11.17480382 8.46484375 11.16796875 C7.73257065 11.16685593 7.00029755 11.1657431 6.24583435 11.16459656 C1.11605238 11.11605238 1.11605238 11.11605238 0 10 C-0.07205511 8.31391034 -0.08386068 6.62499341 -0.0625 4.9375 C-0.05347656 4.01839844 -0.04445313 3.09929687 -0.03515625 2.15234375 C-0.02355469 1.44207031 -0.01195313 0.73179688 0 0 Z " fill="#C1D9FE" transform="translate(27,102)"/>
<path d="M0 0 C3.4375 0.25 3.4375 0.25 7 1 C7.66 1.99 8.32 2.98 9 4 C10.64551962 4.71727778 12.31422289 5.38325228 14 6 C14.99 6.66 15.98 7.32 17 8 C16.67 8.99 16.34 9.98 16 11 C15.34 10.67 14.68 10.34 14 10 C14 11.32 14 12.64 14 14 C12.68 14.33 11.36 14.66 10 15 C9.87625 15.639375 9.7525 16.27875 9.625 16.9375 C9.315625 17.9584375 9.315625 17.9584375 9 19 C8.34 19.33 7.68 19.66 7 20 C6.34 20.66 5.68 21.32 5 22 C4.01 22 3.02 22 2 22 C1.690625 21.21625 1.38125 20.4325 1.0625 19.625 C0.07124962 17.07669872 0.07124962 17.07669872 -1 15 C-0.34 15 0.32 15 1 15 C0.67 14.01 0.34 13.02 0 12 C-6.27 11.67 -12.54 11.34 -19 11 C-19 10.34 -19 9.68 -19 9 C-17.96875 9.103125 -16.9375 9.20625 -15.875 9.3125 C-11.00068643 8.9194102 -9.51507642 7.28583231 -6 4 C-4.3497306 2.9731657 -2.68756133 1.96432076 -1 1 C-0.67 0.67 -0.34 0.34 0 0 Z " fill="#38D6CF" transform="translate(117,38)"/>
<path d="M0 0 C5.61 0 11.22 0 17 0 C17 4.95 17 9.9 17 15 C11.39 15 5.78 15 0 15 C0 10.05 0 5.1 0 0 Z " fill="#3E4C96" transform="translate(15,34)"/>
<path d="M0 0 C1 1 1 1 1.09765625 3.28515625 C1.06510417 5.85677083 1.03255208 8.42838542 1 11 C-3.95 12.485 -3.95 12.485 -9 14 C-8.67 12.35 -8.34 10.7 -8 9 C-8.66 8.34 -9.32 7.68 -10 7 C-10.99 9.97 -11.98 12.94 -13 16 C-15 16 -15 16 -17 14.0625 C-17.66 13.381875 -18.32 12.70125 -19 12 C-19.66 11.67 -20.32 11.34 -21 11 C-18.86626398 6.19909397 -16.74767888 2.7057934 -11.75 0.6875 C-7.6461861 -0.06486588 -4.16026028 -0.21518588 0 0 Z " fill="#43B9DF" transform="translate(59,86)"/>
<path d="M0 0 C13.53 0 27.06 0 41 0 C41 1.65 41 3.3 41 5 C27.47 5 13.94 5 0 5 C0 3.35 0 1.7 0 0 Z " fill="#3C3D89" transform="translate(60,97)"/>
<path d="M0 0 C0.90492187 0.02320313 1.80984375 0.04640625 2.7421875 0.0703125 C5.1553125 0.1321875 5.1553125 0.1321875 7.6171875 0.1953125 C7.6171875 6.4653125 7.6171875 12.7353125 7.6171875 19.1953125 C4.6471875 19.1953125 1.6771875 19.1953125 -1.3828125 19.1953125 C-1.7128125 18.2053125 -2.0428125 17.2153125 -2.3828125 16.1953125 C-1.7228125 16.1953125 -1.0628125 16.1953125 -0.3828125 16.1953125 C-0.3828125 14.8753125 -0.3828125 13.5553125 -0.3828125 12.1953125 C-2.0328125 11.8653125 -3.6828125 11.5353125 -5.3828125 11.1953125 C-4.7228125 10.5353125 -4.0628125 9.8753125 -3.3828125 9.1953125 C-4.0428125 8.5353125 -4.7028125 7.8753125 -5.3828125 7.1953125 C-4.98444833 3.21167081 -4.47086161 0.36646407 0 0 Z " fill="#788DFE" transform="translate(107.3828125,62.8046875)"/>
<path d="M0 0 C0.66 0 1.32 0 2 0 C2.061875 0.61875 2.12375 1.2375 2.1875 1.875 C2.828919 4.27761141 2.828919 4.27761141 5.5625 5.25 C6.366875 5.4975 7.17125 5.745 8 6 C8 7.32 8 8.64 8 10 C7.34 10 6.68 10 6 10 C6.20625 11.093125 6.4125 12.18625 6.625 13.3125 C7 17 7 17 5 20 C2.69 19.67 0.38 19.34 -2 19 C-2 19.99 -2 20.98 -2 22 C-3.65 22 -5.3 22 -7 22 C-7.66 20.35 -8.32 18.7 -9 17 C-10.32 17 -11.64 17 -13 17 C-14.1643582 12.92474631 -13.79835859 10.80828877 -12 7 C-12 6.67 -12 6.34 -12 6 C-10.02 6 -8.04 6 -6 6 C-6.20625 7.11375 -6.4125 8.2275 -6.625 9.375 C-6.810625 11.169375 -6.810625 11.169375 -7 13 C-5.10244856 15.34973818 -5.10244856 15.34973818 -1.875 15.125 C-0.451875 15.063125 -0.451875 15.063125 1 15 C1.29562367 9.67829506 1.29562367 9.67829506 -1 5 C-0.625 2.3125 -0.625 2.3125 0 0 Z " fill="#E9EAF1" transform="translate(135,57)"/>
<path d="M0 0 C0.66 0.99 1.32 1.98 2 3 C1.67 3.66 1.34 4.32 1 5 C3.23647631 6.11823815 4.64891529 6.19396061 7.1328125 6.31640625 C7.93847656 6.35830078 8.74414062 6.40019531 9.57421875 6.44335938 C10.41597656 6.48267578 11.25773437 6.52199219 12.125 6.5625 C12.97449219 6.60568359 13.82398438 6.64886719 14.69921875 6.69335938 C16.79928223 6.79954236 18.89961948 6.90028497 21 7 C21 7.66 21 8.32 21 9 C6.81 9 -7.38 9 -22 9 C-22 8.34 -22 7.68 -22 7 C-20.72125 6.7525 -19.4425 6.505 -18.125 6.25 C-15.92551978 5.76108886 -15.92551978 5.76108886 -14 5 C-12.79117904 2.99983534 -12.79117904 2.99983534 -12 1 C-8.11557241 -0.33180375 -4.06893592 -0.3070895 0 0 Z " fill="#9EC2FE" transform="translate(73,112)"/>
<path d="M0 0 C1.32 0 2.64 0 4 0 C4 6.6 4 13.2 4 20 C6.31 20 8.62 20 11 20 C11.33 20.99 11.66 21.98 12 23 C3.19039858 24.30512614 -5.19039858 24.30512614 -14 23 C-13.505 21.515 -13.505 21.515 -13 20 C-8.71 20 -4.42 20 0 20 C0 13.4 0 6.8 0 0 Z " fill="#4C4CA1" transform="translate(115,63)"/>
<path d="M0 0 C1.31871094 -0.01224609 2.63742188 -0.02449219 3.99609375 -0.03710938 C5.90068359 -0.04000977 5.90068359 -0.04000977 7.84375 -0.04296875 C9.00068359 -0.04707764 10.15761719 -0.05118652 11.34960938 -0.05541992 C14.47736509 0.18575467 16.680892 0.85423629 19.5 2.1875 C18.5 4.1875 18.5 4.1875 16.84521484 4.80200195 C11.99200924 5.59975457 7.04404055 5.37340312 2.13769531 5.37280273 C0.13863013 5.37498512 -1.86039532 5.39349143 -3.859375 5.41210938 C-5.13039063 5.41404297 -6.40140625 5.41597656 -7.7109375 5.41796875 C-8.86899902 5.42207764 -10.02706055 5.42618652 -11.22021484 5.43041992 C-14.61310954 5.17912245 -17.33332989 4.39923908 -20.5 3.1875 C-20.17 2.5275 -19.84 1.8675 -19.5 1.1875 C-13.23640183 -0.60566158 -6.45139424 0.00315317 0 0 Z " fill="#EAEBF2" transform="translate(114.5,125.8125)"/>
<path d="M0 0 C0.33 0 0.66 0 1 0 C1.02684679 2.64590014 1.04676357 5.29153096 1.0625 7.9375 C1.07087891 8.69224609 1.07925781 9.44699219 1.08789062 10.22460938 C1.09652441 12.14994313 1.05224333 14.07535581 1 16 C0 17 0 17 -3.37890625 17.09765625 C-4.77347077 17.09098369 -6.16801743 17.07902532 -7.5625 17.0625 C-8.27341797 17.05798828 -8.98433594 17.05347656 -9.71679688 17.04882812 C-11.47790013 17.03700864 -13.23896036 17.01907263 -15 17 C-15 16.01 -15 15.02 -15 14 C-14.38125 13.71125 -13.7625 13.4225 -13.125 13.125 C-10.86674235 12.06279958 -10.86674235 12.06279958 -9 10 C-8.6278958 8.67696283 -8.29369827 7.34262065 -8 6 C-7.67 5.34 -7.34 4.68 -7 4 C-5.68 4 -4.36 4 -3 4 C-3 3.34 -3 2.68 -3 2 C-2.34 2 -1.68 2 -1 2 C-0.67 1.34 -0.34 0.68 0 0 Z " fill="#36DDC5" transform="translate(134,46)"/>
<path d="M0 0 C0.83265381 0.00523682 1.66530762 0.01047363 2.52319336 0.01586914 C3.42231445 0.0190918 4.32143555 0.02231445 5.24780273 0.02563477 C6.66609375 0.03820312 6.66609375 0.03820312 8.11303711 0.05102539 C9.06243164 0.05553711 10.01182617 0.06004883 10.98999023 0.06469727 C13.34353242 0.07652411 15.69704243 0.09446018 18.05053711 0.11352539 C18.05053711 6.38352539 18.05053711 12.65352539 18.05053711 19.11352539 C14.73798385 19.14035976 11.42564528 19.16028319 8.11303711 19.17602539 C7.16750977 19.1844043 6.22198242 19.1927832 5.24780273 19.20141602 C3.89912109 19.20625 3.89912109 19.20625 2.52319336 19.21118164 C1.27421265 19.21903687 1.27421265 19.21903687 0 19.22705078 C-1.94946289 19.11352539 -1.94946289 19.11352539 -2.94946289 18.11352539 C-3.04933264 15.27017491 -3.0882417 12.45655376 -3.07446289 9.61352539 C-3.07833008 8.8155957 -3.08219727 8.01766602 -3.08618164 7.19555664 C-3.07426903 0.17902756 -3.07426903 0.17902756 0 0 Z M-0.94946289 2.11352539 C-0.94946289 7.06352539 -0.94946289 12.01352539 -0.94946289 17.11352539 C4.66053711 17.11352539 10.27053711 17.11352539 16.05053711 17.11352539 C16.05053711 12.16352539 16.05053711 7.21352539 16.05053711 2.11352539 C10.44053711 2.11352539 4.83053711 2.11352539 -0.94946289 2.11352539 Z " fill="#34D6CC" transform="translate(15.949462890625,31.886474609375)"/>
<path d="M0 0 C1.58206057 0.00667536 3.16410534 0.0186375 4.74609375 0.03515625 C5.55240234 0.03966797 6.35871094 0.04417969 7.18945312 0.04882812 C9.18753131 0.06065107 11.18557158 0.07858711 13.18359375 0.09765625 C13.21043687 2.91021906 13.23035563 5.72252866 13.24609375 8.53515625 C13.25447266 9.33759766 13.26285156 10.14003906 13.27148438 10.96679688 C13.28010805 13.01060846 13.23587525 15.05449527 13.18359375 17.09765625 C11.36243372 18.91881628 8.87687611 18.23000705 6.45703125 18.234375 C5.70679687 18.23050781 4.9565625 18.22664063 4.18359375 18.22265625 C3.05824219 18.22845703 3.05824219 18.22845703 1.91015625 18.234375 C-3.68979572 18.22426678 -3.68979572 18.22426678 -4.81640625 17.09765625 C-4.91621839 14.42034245 -4.955205 11.7746145 -4.94140625 9.09765625 C-4.94527344 8.34742187 -4.94914062 7.5971875 -4.953125 6.82421875 C-4.94103514 0.12643386 -4.94103514 0.12643386 0 0 Z M-1.25390625 3.66015625 C-3.42036653 7.03983429 -3.37928627 9.15749612 -2.81640625 13.09765625 C-1.33647469 15.66104314 -1.33647469 15.66104314 1.18359375 17.09765625 C4.14051084 17.8478082 4.14051084 17.8478082 7.18359375 17.09765625 C10.54703864 14.61163176 11.98417124 13.18340102 12.74609375 9.03515625 C12.3684543 6.04873369 12.3684543 6.04873369 10.62109375 3.72265625 C6.53362403 0.99767644 2.87655597 1.01242406 -1.25390625 3.66015625 Z " fill="#45B5F4" transform="translate(109.81640625,95.90234375)"/>
<path d="M0 0 C0.99 0 1.98 0 3 0 C3.33 8.91 3.66 17.82 4 27 C20.83 27 37.66 27 55 27 C55 27.33 55 27.66 55 28 C47.48863592 28.05057965 39.97731551 28.08568257 32.46582031 28.10986328 C29.90883747 28.11994038 27.35186621 28.13360226 24.79492188 28.15087891 C21.12627308 28.17505217 17.45777621 28.18646585 13.7890625 28.1953125 C12.0655809 28.21079636 12.0655809 28.21079636 10.30728149 28.22659302 C9.2463327 28.22674408 8.18538391 28.22689514 7.09228516 28.22705078 C6.15518707 28.231492 5.21808899 28.23593323 4.25259399 28.24050903 C2 28 2 28 0 26 C-0.22705078 23.38623047 -0.22705078 23.38623047 -0.1953125 20.1171875 C-0.18886719 18.95058594 -0.18242188 17.78398438 -0.17578125 16.58203125 C-0.15902344 15.35871094 -0.14226563 14.13539062 -0.125 12.875 C-0.11597656 11.64394531 -0.10695312 10.41289063 -0.09765625 9.14453125 C-0.07402548 6.09616185 -0.04108054 3.04817618 0 0 Z " fill="#489CEA" transform="translate(41,49)"/>
<path d="M0 0 C5.28 0 10.56 0 16 0 C15.34 1.32 14.68 2.64 14 4 C13.34 4 12.68 4 12 4 C11.01 5.98 10.02 7.96 9 10 C6.87436897 9.88623383 4.7494739 9.75864369 2.625 9.625 C1.44164062 9.55539063 0.25828125 9.48578125 -0.9609375 9.4140625 C-4 9 -4 9 -6 7 C-5.34 6.34 -4.68 5.68 -4 5 C-3.67 4.34 -3.34 3.68 -3 3 C-2.01 3 -1.02 3 0 3 C0 2.01 0 1.02 0 0 Z " fill="#665FFF" transform="translate(54,77)"/>
<path d="M0 0 C1.32 0 2.64 0 4 0 C4 0.99 4 1.98 4 3 C4.99 3 5.98 3 7 3 C6.67 5.97 6.34 8.94 6 12 C4.35 12 2.7 12 1 12 C1 12.66 1 13.32 1 14 C-0.32 13.67 -1.64 13.34 -3 13 C-3 12.34 -3 11.68 -3 11 C-3.99 10.67 -4.98 10.34 -6 10 C-5.4140625 3.84765625 -5.4140625 3.84765625 -5 2 C-4.34 1.67 -3.68 1.34 -3 1 C-2.01 1.33 -1.02 1.66 0 2 C0 1.34 0 0.68 0 0 Z " fill="#EBF8FA" transform="translate(23,63)"/>
<path d="M0 0 C8.25 0 16.5 0 25 0 C23 2 23 2 21 2.3125 C20.34 2.539375 19.68 2.76625 19 3 C17.70339566 5.49034386 17.70339566 5.49034386 17 8 C16.01 8 15.02 8 14 8 C14 8.66 14 9.32 14 10 C12.02 10 10.04 10 8 10 C8.7115625 9.1028125 8.7115625 9.1028125 9.4375 8.1875 C11.16465744 5.99617076 11.16465744 5.99617076 12 3 C10.35 2.67 8.7 2.34 7 2 C6.67 2.99 6.34 3.98 6 5 C5.01 5 4.02 5 3 5 C3 5.99 3 6.98 3 8 C2.34 8 1.68 8 1 8 C0.67 8.99 0.34 9.98 0 11 C0 7.37 0 3.74 0 0 Z " fill="#6154FE" transform="translate(102,86)"/>
<path d="M0 0 C3.5 0.1875 3.5 0.1875 7 1 C7.66 1.99 8.32 2.98 9 4 C11.55183404 5.20450304 11.55183404 5.20450304 14 6 C14 6.66 14 7.32 14 8 C6.41 8 -1.18 8 -9 8 C-8 5 -8 5 -5.0625 3.4375 C-4.051875 2.963125 -3.04125 2.48875 -2 2 C-1.34 1.34 -0.68 0.68 0 0 Z " fill="#F7FCFD" transform="translate(117,38)"/>
<path d="M0 0 C1.65 0 3.3 0 5 0 C5 2.97 5 5.94 5 9 C-1.93 9 -8.86 9 -16 9 C-16 8.01 -16 7.02 -16 6 C-12.25 4.875 -12.25 4.875 -10 6 C-10 5.01 -10 4.02 -10 3 C-8 4 -8 4 -5 6 C-5 5.34 -5 4.68 -5 4 C-3.35 4 -1.7 4 0 4 C0 2.68 0 1.36 0 0 Z " fill="#37D4CE" transform="translate(29,71)"/>
<path d="M0 0 C1.32 0 2.64 0 4 0 C4 5.61 4 11.22 4 17 C4.99 17 5.98 17 7 17 C7 18.65 7 20.3 7 22 C4.69 22 2.38 22 0 22 C0 14.74 0 7.48 0 0 Z " fill="#41458E" transform="translate(26,80)"/>
<path d="M0 0 C1.58206057 0.00667536 3.16410534 0.0186375 4.74609375 0.03515625 C5.55240234 0.03966797 6.35871094 0.04417969 7.18945312 0.04882812 C9.18753131 0.06065107 11.18557158 0.07858711 13.18359375 0.09765625 C10.18359375 2.09765625 10.18359375 2.09765625 7.80859375 2.78515625 C4.4889928 4.44495672 3.39867697 6.47126062 1.58984375 9.63671875 C0.18359375 11.09765625 0.18359375 11.09765625 -2.47265625 11.30859375 C-3.24609375 11.23898438 -4.01953125 11.169375 -4.81640625 11.09765625 C-4.84328776 9.45191059 -4.86274748 7.80604212 -4.87890625 6.16015625 C-4.89050781 5.24363281 -4.90210938 4.32710938 -4.9140625 3.3828125 C-4.74806315 -0.5015722 -4.08167578 0.10444411 0 0 Z " fill="#43A9E5" transform="translate(37.81640625,85.90234375)"/>
<path d="M0 0 C1.65 0.33 3.3 0.66 5 1 C5.02712153 2.916588 5.04645097 4.8332873 5.0625 6.75 C5.07410156 7.81734375 5.08570313 8.8846875 5.09765625 9.984375 C4.97782496 13.6847653 4.16451117 16.5064665 3 20 C0.9375 20.6875 0.9375 20.6875 -1 21 C-2.11707194 17.64878418 -2.00566557 15.44437936 -1.75 11.9375 C-1.68296875 10.87402344 -1.6159375 9.81054688 -1.546875 8.71484375 C-1 6 -1 6 2 4 C1.34 2.68 0.68 1.36 0 0 Z " fill="#5C41FE" transform="translate(36,62)"/>
<path d="M0 0 C0.1079859 2.43868168 0.18726589 4.87259133 0.25 7.3125 C0.30027344 8.34793945 0.30027344 8.34793945 0.3515625 9.40429688 C0.390625 11.42578125 0.390625 11.42578125 0 15 C-2.015625 16.98046875 -2.015625 16.98046875 -4 18 C-4 15.03 -4 12.06 -4 9 C-6.31 9 -8.62 9 -11 9 C-11 7 -11 7 -9.35546875 5.2734375 C-8.64003906 4.64695312 -7.92460938 4.02046875 -7.1875 3.375 C-6.47980469 2.74335937 -5.77210937 2.11171875 -5.04296875 1.4609375 C-3 0 -3 0 0 0 Z " fill="#665FFF" transform="translate(127,87)"/>
<path d="M0 0 C2.31 0 4.62 0 7 0 C7.05416188 1.60379341 7.09286638 3.20811406 7.125 4.8125 C7.14820312 5.70582031 7.17140625 6.59914063 7.1953125 7.51953125 C7 10 7 10 5 13 C4.34 13 3.68 13 3 13 C3 13.66 3 14.32 3 15 C2.34 15 1.68 15 1 15 C0.67 15.66 0.34 16.32 0 17 C0 11.39 0 5.78 0 0 Z " fill="#6B74FD" transform="translate(98,54)"/>
<path d="M0 0 C0.33 0 0.66 0 1 0 C1.33 2.64 1.66 5.28 2 8 C4.97 8.33 7.94 8.66 11 9 C10.01 9.33 9.02 9.66 8 10 C8.33 11.32 8.66 12.64 9 14 C2.375 17 2.375 17 -1 17 C-1.33 17.66 -1.66 18.32 -2 19 C-2.05451714 16.95863605 -2.09302485 14.91684144 -2.125 12.875 C-2.14820312 11.73804687 -2.17140625 10.60109375 -2.1953125 9.4296875 C-1.99672109 5.94242233 -1.2524801 3.2446138 0 0 Z " fill="#6B70FE" transform="translate(104,105)"/>
<path d="M0 0 C1.32 0 2.64 0 4 0 C4 6.6 4 13.2 4 20 C2.68 19.67 1.36 19.34 0 19 C0 12.73 0 6.46 0 0 Z " fill="#3E3E8B" transform="translate(115,63)"/>
<path d="M0 0 C2.31 0 4.62 0 7 0 C7 1.65 7 3.3 7 5 C3.37 5 -0.26 5 -4 5 C-4 6.65 -4 8.3 -4 10 C-5.32 10 -6.64 10 -8 10 C-8.04241723 7.66705225 -8.04092937 5.33297433 -8 3 C-7 2 -7 2 -3.4375 1.9375 C-2.303125 1.958125 -1.16875 1.97875 0 2 C0 1.34 0 0.68 0 0 Z " fill="#3C408B" transform="translate(34,49)"/>
<path d="M0 0 C5.28 0 10.56 0 16 0 C15.67 1.65 15.34 3.3 15 5 C10.05 5 5.1 5 0 5 C0 3.35 0 1.7 0 0 Z " fill="#34ABC5" transform="translate(98,49)"/>
<path d="M0 0 C8.58 0 17.16 0 26 0 C25.67 0.99 25.34 1.98 25 3 C17.08 3 9.16 3 1 3 C0.67 2.01 0.34 1.02 0 0 Z " fill="#4C4CA0" transform="translate(101,124)"/>
<path d="M0 0 C2.64 0 5.28 0 8 0 C8 3.96 8 7.92 8 12 C6.35 12 4.7 12 3 12 C3.33 10.35 3.66 8.7 4 7 C3.01 7 2.02 7 1 7 C0.67 4.69 0.34 2.38 0 0 Z " fill="#41C9D7" transform="translate(26,59)"/>
<path d="M0 0 C1.67542976 0.28604898 3.34385343 0.61781233 5 1 C6.125 6.625 6.125 6.625 5 10 C4.34 10 3.68 10 3 10 C2.34 11.32 1.68 12.64 1 14 C0.34 14 -0.32 14 -1 14 C-1.02685938 11.85423363 -1.04633088 9.70837355 -1.0625 7.5625 C-1.07410156 6.36753906 -1.08570312 5.17257813 -1.09765625 3.94140625 C-1 1 -1 1 0 0 Z " fill="#32C6DF" transform="translate(106,33)"/>
<path d="M0 0 C3.375 -0.125 3.375 -0.125 7 0 C7.66 0.66 8.32 1.32 9 2 C11.06874034 2.6425235 11.06874034 2.6425235 13 3 C12.67 3.99 12.34 4.98 12 6 C10.8553125 5.9071875 10.8553125 5.9071875 9.6875 5.8125 C6.49347163 6.03533919 6.0779007 6.73319924 4 9 C3.01 9 2.02 9 1 9 C0.67 6.03 0.34 3.06 0 0 Z " fill="#6AD3E2" transform="translate(110,33)"/>
<path d="M0 0 C1.24716797 0.00322266 2.49433594 0.00644531 3.77929688 0.00976562 C5.07287109 0.01814453 6.36644531 0.02652344 7.69921875 0.03515625 C9.66858398 0.04192383 9.66858398 0.04192383 11.67773438 0.04882812 C14.91410885 0.06059676 18.15039053 0.07703865 21.38671875 0.09765625 C21.05671875 0.75765625 20.72671875 1.41765625 20.38671875 2.09765625 C19.73074707 2.11747559 19.07477539 2.13729492 18.39892578 2.15771484 C15.43610806 2.25278132 12.47401343 2.36253377 9.51171875 2.47265625 C7.96291016 2.5190625 7.96291016 2.5190625 6.3828125 2.56640625 C4.90361328 2.62441406 4.90361328 2.62441406 3.39453125 2.68359375 C2.4833252 2.71501465 1.57211914 2.74643555 0.63330078 2.77880859 C-1.81259311 2.89648136 -1.81259311 2.89648136 -3.61328125 5.09765625 C-6.34197532 5.06478042 -8.90994305 4.53367854 -11.61328125 4.09765625 C-11.61328125 3.10765625 -11.61328125 2.11765625 -11.61328125 1.09765625 C-7.68039761 0.16677716 -4.03673962 -0.0184326 0 0 Z " fill="#D9D9E8" transform="translate(106.61328125,125.90234375)"/>
<path d="M0 0 C1.39456452 0.00667256 2.78911118 0.01863093 4.18359375 0.03515625 C4.89451172 0.03966797 5.60542969 0.04417969 6.33789062 0.04882812 C8.09899388 0.06064761 9.86005411 0.07858362 11.62109375 0.09765625 C11.95109375 0.75765625 12.28109375 1.41765625 12.62109375 2.09765625 C7.67109375 2.09765625 2.72109375 2.09765625 -2.37890625 2.09765625 C-2.35828125 3.62390625 -2.33765625 5.15015625 -2.31640625 6.72265625 C-2.31086193 10.62585472 -2.57187896 14.2642766 -3.37890625 18.09765625 C-3.70890625 18.09765625 -4.03890625 18.09765625 -4.37890625 18.09765625 C-4.40574937 15.28509344 -4.42566813 12.47278384 -4.44140625 9.66015625 C-4.44978516 8.85771484 -4.45816406 8.05527344 -4.46679688 7.22851562 C-4.47542055 5.18470404 -4.43118775 3.14081723 -4.37890625 1.09765625 C-3.37890625 0.09765625 -3.37890625 0.09765625 0 0 Z " fill="#33C8DE" transform="translate(17.37890625,31.90234375)"/>
<path d="M0 0 C1.99954746 -0.04254356 4.00041636 -0.04080783 6 0 C6.33 0.33 6.66 0.66 7 1 C6.71269945 3.33944736 6.38063221 5.6739143 6 8 C4.02 8 2.04 8 0 8 C-0.79953138 4.71303767 -1.09658936 3.28976808 0 0 Z " fill="#39C8D4" transform="translate(53,86)"/>
<path d="M0 0 C1.32 0.33 2.64 0.66 4 1 C4 3.31 4 5.62 4 8 C0.04 8 -3.92 8 -8 8 C-7 6 -7 6 -4 5 C-3.67 4.34 -3.34 3.68 -3 3 C-2.34 3 -1.68 3 -1 3 C-0.67 2.01 -0.34 1.02 0 0 Z " fill="#7895FE" transform="translate(123,116)"/>
<path d="M0 0 C0.495 0.99 0.495 0.99 1 2 C-0.82337891 2.09087891 -0.82337891 2.09087891 -2.68359375 2.18359375 C-4.26824228 2.26798332 -5.85287702 2.3526321 -7.4375 2.4375 C-8.23994141 2.47681641 -9.04238281 2.51613281 -9.86914062 2.55664062 C-13.75239561 2.4054296 -13.75239561 2.4054296 -17 4 C-19.69654854 4.07319621 -22.36691458 4.09242537 -25.0625 4.0625 C-25.82111328 4.05798828 -26.57972656 4.05347656 -27.36132812 4.04882812 C-29.24091871 4.0370068 -31.12046899 4.01907078 -33 4 C-33 3.34 -33 2.68 -33 2 C-31.88625 2.020625 -30.7725 2.04125 -29.625 2.0625 C-26.16784079 2.26380718 -26.16784079 2.26380718 -24 1 C-22.18828902 0.84693099 -20.3716206 0.75053339 -18.5546875 0.68359375 C-17.47832031 0.64169922 -16.40195313 0.59980469 -15.29296875 0.55664062 C-14.16503906 0.51732422 -13.03710938 0.47800781 -11.875 0.4375 C-10.73933594 0.39431641 -9.60367188 0.35113281 -8.43359375 0.30664062 C-5.62252232 0.2003396 -2.81136055 0.09830595 0 0 Z " fill="#8FD9E4" transform="translate(131,45)"/>
<path d="M0 0 C1.98 0.495 1.98 0.495 4 1 C3.79375 1.61875 3.5875 2.2375 3.375 2.875 C3.25125 3.57625 3.1275 4.2775 3 5 C3.66 5.66 4.32 6.32 5 7 C5.125 10.625 5.125 10.625 5 14 C3.68 14 2.36 14 1 14 C1 11.03 1 8.06 1 5 C0.34 5 -0.32 5 -1 5 C-0.67 3.35 -0.34 1.7 0 0 Z " fill="#34BEC5" transform="translate(114,49)"/>
<path d="M0 0 C0.33 0 0.66 0 1 0 C1.02685095 2.47923801 1.04676547 4.9581884 1.0625 7.4375 C1.07087891 8.14455078 1.07925781 8.85160156 1.08789062 9.58007812 C1.09653588 11.38693559 1.05220011 13.19387603 1 15 C0 16 0 16 -3.59765625 16.09765625 C-5.08596867 16.0909822 -6.57426432 16.07902183 -8.0625 16.0625 C-8.82111328 16.05798828 -9.57972656 16.05347656 -10.36132812 16.04882812 C-12.24091871 16.0370068 -14.12046899 16.01907078 -16 16 C-16 15.34 -16 14.68 -16 14 C-15.25234375 14.04640625 -14.5046875 14.0928125 -13.734375 14.140625 C-7.78198457 14.45936352 -7.78198457 14.45936352 -2.3125 12.5 C-0.40271633 8.86231682 -0.80201695 6.09164965 -1 2 C-0.67 1.34 -0.34 0.68 0 0 Z " fill="#3BDACF" transform="translate(122,98)"/>
<path d="M0 0 C1.23556641 0.01740234 1.23556641 0.01740234 2.49609375 0.03515625 C3.32238281 0.04417969 4.14867187 0.05320312 5 0.0625 C5.63808594 0.07410156 6.27617188 0.08570312 6.93359375 0.09765625 C6.93359375 0.75765625 6.93359375 1.41765625 6.93359375 2.09765625 C2.46300551 6.09765625 2.46300551 6.09765625 -0.06640625 6.09765625 C-0.39640625 7.08765625 -0.72640625 8.07765625 -1.06640625 9.09765625 C-1.72640625 8.76765625 -2.38640625 8.43765625 -3.06640625 8.09765625 C-3.10882348 5.7647085 -3.10733562 3.43063058 -3.06640625 1.09765625 C-2.06640625 0.09765625 -2.06640625 0.09765625 0 0 Z " fill="#3F9BE9" transform="translate(36.06640625,85.90234375)"/>
<path d="M0 0 C3.375 -0.125 3.375 -0.125 7 0 C7.66 0.66 8.32 1.32 9 2 C9.66 1.34 10.32 0.68 11 0 C10.67 1.65 10.34 3.3 10 5 C6.7 5 3.4 5 0 5 C0 3.35 0 1.7 0 0 Z " fill="#37AFC7" transform="translate(33,97)"/>
<path d="M0 0 C2.31 0 4.62 0 7 0 C7.33 0.66 7.66 1.32 8 2 C7.01 3.485 7.01 3.485 6 5 C5.01 5 4.02 5 3 5 C3 5.99 3 6.98 3 8 C2.34 8 1.68 8 1 8 C0.67 8.99 0.34 9.98 0 11 C0 7.37 0 3.74 0 0 Z " fill="#5934FF" transform="translate(102,86)"/>
<path d="M0 0 C1.485 0.99 1.485 0.99 3 2 C4.9896995 2.39013716 6.99019869 2.73202649 9 3 C9.33 2.34 9.66 1.68 10 1 C10 2.65 10 4.3 10 6 C5.05 7.485 5.05 7.485 0 9 C0.33 7.35 0.66 5.7 1 4 C0.63143136 1.76832815 0.63143136 1.76832815 0 0 Z " fill="#3FD5CF" transform="translate(50,91)"/>
<path d="M0 0 C0 2.64 0 5.28 0 8 C-2.97 8 -5.94 8 -9 8 C-8.01 7.67 -7.02 7.34 -6 7 C-5.9175 6.21625 -5.835 5.4325 -5.75 4.625 C-5 2 -5 2 -3 0.6875 C-1 0 -1 0 0 0 Z " fill="#39C6D7" transform="translate(115,55)"/>
<path d="M0 0 C2.37507855 -0.02719556 4.74983964 -0.04693247 7.125 -0.0625 C8.12273438 -0.07506836 8.12273438 -0.07506836 9.140625 -0.08789062 C13.20681354 -0.10782292 17.0120092 0.21109839 21 1 C21 1.33 21 1.66 21 2 C14.73 2 8.46 2 2 2 C2 2.66 2 3.32 2 4 C1.01 4 0.02 4 -1 4 C-0.67 2.68 -0.34 1.36 0 0 Z " fill="#32C6DD" transform="translate(42,45)"/>
<path d="M0 0 C0.33 0 0.66 0 1 0 C1.36 5.4 1.36 5.4 -0.125 7.875 C-2.78034983 9.4682099 -4.96789518 9.20214032 -8 9 C-8 8.34 -8 7.68 -8 7 C-7.13375 6.6596875 -7.13375 6.6596875 -6.25 6.3125 C-3.44052002 4.67363668 -1.95774386 2.56531954 0 0 Z " fill="#41D8D9" transform="translate(119,102)"/>
<path d="M0 0 C1.32 0.33 2.64 0.66 4 1 C4 1.99 4 2.98 4 4 C2.68 4 1.36 4 0 4 C-0.33 5.65 -0.66 7.3 -1 9 C-1.99 8.67 -2.98 8.34 -4 8 C-4 5.69 -4 3.38 -4 1 C-2.68 1.33 -1.36 1.66 0 2 C0 1.34 0 0.68 0 0 Z " fill="#3DC8E1" transform="translate(19,61)"/>
<path d="M0 0 C0.99 0 1.98 0 3 0 C3.08121924 1.60332791 3.13929134 3.20784026 3.1875 4.8125 C3.23970703 6.15248047 3.23970703 6.15248047 3.29296875 7.51953125 C3 10 3 10 0 13 C0 8.71 0 4.42 0 0 Z " fill="#3B95D8" transform="translate(41,49)"/>
<path d="M0 0 C2.31 0 4.62 0 7 0 C7 1.65 7 3.3 7 5 C4.69 5 2.38 5 0 5 C0 3.35 0 1.7 0 0 Z " fill="#3C3E8A" transform="translate(98,49)"/>
<path d="M0 0 C0.99 0 1.98 0 3 0 C3 1.65 3 3.3 3 5 C3.99 5.33 4.98 5.66 6 6 C5.01 6.99 4.02 7.98 3 9 C-0.875 7.25 -0.875 7.25 -2 5 C-1.34 5 -0.68 5 0 5 C0 3.35 0 1.7 0 0 Z " fill="#E4F8F8" transform="translate(118,48)"/>
<path d="M0 0 C0.99 0 1.98 0 3 0 C3.25 3.3125 3.25 3.3125 3 7 C1 8.9375 1 8.9375 -1 10 C-1.02689216 8.52093108 -1.04634621 7.04172517 -1.0625 5.5625 C-1.07410156 4.73878906 -1.08570312 3.91507812 -1.09765625 3.06640625 C-1 1 -1 1 0 0 Z " fill="#6C71FE" transform="translate(124,95)"/>
<path d="M0 0 C0.99 0 1.98 0 3 0 C3.04241723 2.33294775 3.04092937 4.66702567 3 7 C2 8 2 8 0.15234375 8.09765625 C-1.8984375 8.06510417 -3.94921875 8.03255208 -6 8 C-5.360625 7.71125 -4.72125 7.4225 -4.0625 7.125 C-1.84793921 6.17176549 -1.84793921 6.17176549 -1 4 C-0.34 3.67 0.32 3.34 1 3 C0.67 2.01 0.34 1.02 0 0 Z " fill="#37DFC2" transform="translate(57,97)"/>
<path d="M0 0 C1.5625 1.75 1.5625 1.75 3 4 C2.6875 6.125 2.6875 6.125 2 8 C2 8.66 2 9.32 2 10 C0.35 10 -1.3 10 -3 10 C-2.69201674 8.51988629 -2.378482 7.04092675 -2.0625 5.5625 C-1.88847656 4.73878906 -1.71445312 3.91507812 -1.53515625 3.06640625 C-1 1 -1 1 0 0 Z " fill="#37C2CD" transform="translate(49,92)"/>
<path d="M0 0 C0.66 0 1.32 0 2 0 C1.69106068 1.6256807 1.3777305 3.25052748 1.0625 4.875 C0.88847656 5.77992187 0.71445312 6.68484375 0.53515625 7.6171875 C0 10 0 10 -1 12 C-1.66 12 -2.32 12 -3 12 C-2.14285714 3.42857143 -2.14285714 3.42857143 0 0 Z " fill="#D9F3F6" transform="translate(47,90)"/>
<path d="M0 0 C1.67542976 0.28604898 3.34385343 0.61781233 5 1 C4.67 2.32 4.34 3.64 4 5 C2.68 5.33 1.36 5.66 0 6 C-0.38218767 4.34385343 -0.71395102 2.67542976 -1 1 C-0.67 0.67 -0.34 0.34 0 0 Z " fill="#49CFDD" transform="translate(22,67)"/>
<path d="M0 0 C-0.66 1.65 -1.32 3.3 -2 5 C-2.99 4.34 -3.98 3.68 -5 3 C-7.05709596 2.75944532 -7.05709596 2.75944532 -9.1875 2.875 C-10.445625 2.91625 -11.70375 2.9575 -13 3 C-13 2.34 -13 1.68 -13 1 C-8.60563789 0.14256349 -4.47427924 -0.08948558 0 0 Z " fill="#50CBE8" transform="translate(123,96)"/>
<path d="M0 0 C0 0.99 0 1.98 0 3 C-4.455 3.495 -4.455 3.495 -9 4 C-9.33 3.01 -9.66 2.02 -10 1 C-6.7 0.67 -3.4 0.34 0 0 Z " fill="#4FD0D9" transform="translate(43,101)"/>
<path d="M0 0 C3.96 0 7.92 0 12 0 C10.35 1.65 8.7 3.3 7 5 C6.01 4.67 5.02 4.34 4 4 C4 3.34 4 2.68 4 2 C2.68 1.34 1.36 0.68 0 0 Z " fill="#5D4EF6" transform="translate(110,87)"/>
<path d="M0 0 C3.3 0 6.6 0 10 0 C10 1.32 10 2.64 10 4 C8.02 4 6.04 4 4 4 C3.67 3.34 3.34 2.68 3 2 C2.01 1.34 1.02 0.68 0 0 Z " fill="#36CED9" transform="translate(16,59)"/>
<path d="M0 0 C0.33 0 0.66 0 1 0 C1 1.65 1 3.3 1 5 C-0.65 5 -2.3 5 -4 5 C-4 5.66 -4 6.32 -4 7 C-5.32 6.67 -6.64 6.34 -8 6 C-7.67 5.01 -7.34 4.02 -7 3 C-6.21625 3.061875 -5.4325 3.12375 -4.625 3.1875 C-3.75875 3.125625 -2.8925 3.06375 -2 3 C-1.34 2.01 -0.68 1.02 0 0 Z " fill="#DAF4F7" transform="translate(28,70)"/>
<path d="M0 0 C0.33 0 0.66 0 1 0 C1 3.96 1 7.92 1 12 C0.01 12 -0.98 12 -2 12 C-1.85831863 10.56208484 -1.71148957 9.1246763 -1.5625 7.6875 C-1.48128906 6.88699219 -1.40007812 6.08648437 -1.31640625 5.26171875 C-1 3 -1 3 0 0 Z " fill="#665FFF" transform="translate(104,105)"/>
<path d="M0 0 C1.32 0 2.64 0 4 0 C4 2.31 4 4.62 4 7 C3.01 7 2.02 7 1 7 C0.67 4.69 0.34 2.38 0 0 Z " fill="#34AEC5" transform="translate(26,59)"/>
<path d="M0 0 C1.98 0 3.96 0 6 0 C6.33 0.66 6.66 1.32 7 2 C6.4225 2.0825 5.845 2.165 5.25 2.25 C2.3840696 3.20531013 1.0009236 4.78469173 -1 7 C-0.67 4.69 -0.34 2.38 0 0 Z " fill="#3DBFD9" transform="translate(53,86)"/>
<path d="M0 0 C3 1 3 1 5 2 C5 2.99 5 3.98 5 5 C2.69 5 0.38 5 -2 5 C-1.34 3.35 -0.68 1.7 0 0 Z " fill="#34DAC2" transform="translate(29,75)"/>
<path d="M0 0 C2.97 0.33 5.94 0.66 9 1 C9.33 2.32 9.66 3.64 10 5 C9.01 5 8.02 5 7 5 C7 4.34 7 3.68 7 3 C4.69 2.67 2.38 2.34 0 2 C0 1.34 0 0.68 0 0 Z " fill="#54D9D4" transform="translate(88,44)"/>
<path d="M0 0 C1.32 0 2.64 0 4 0 C3.67 1.98 3.34 3.96 3 6 C2.01 6 1.02 6 0 6 C0 4.02 0 2.04 0 0 Z " fill="#3DB3DF" transform="translate(30,59)"/>
<path d="M0 0 C0.33 0.99 0.66 1.98 1 3 C0.67 3.66 0.34 4.32 0 5 C0.39938767 7.09821215 0.39938767 7.09821215 1 9 C-0.65 8.01 -2.3 7.02 -4 6 C-2.84826645 3.53199953 -1.95216435 1.95216435 0 0 Z " fill="#D8F1F6" transform="translate(42,91)"/>
<path d="M0 0 C1.65 1.65 3.3 3.3 5 5 C3.35 6.32 1.7 7.64 0 9 C0.185625 8.2575 0.37125 7.515 0.5625 6.75 C0.99203108 4.05009037 0.85122974 2.55368923 0 0 Z " fill="#E4F7F9" transform="translate(50,91)"/>
<path d="M0 0 C0.33 0 0.66 0 1 0 C1 2.64 1 5.28 1 8 C0.01 8.33 -0.98 8.66 -2 9 C-2.25 3.375 -2.25 3.375 0 0 Z " fill="#409AE9" transform="translate(43,59)"/>
<path d="M0 0 C-0.33 0.99 -0.66 1.98 -1 3 C-3.31 3 -5.62 3 -8 3 C-8 2.34 -8 1.68 -8 1 C-5.29120665 -0.35439668 -2.99066732 -0.06501451 0 0 Z " fill="#B4D1FE" transform="translate(59,118)"/>
<path d="M0 0 C-0.99 0.495 -0.99 0.495 -2 1 C-2 1.66 -2 2.32 -2 3 C-4.64 3 -7.28 3 -10 3 C-6.68152292 -0.06320961 -4.44849969 -0.3033068 0 0 Z " fill="#44D7D0" transform="translate(50,102)"/>
<path d="M0 0 C0.33 0 0.66 0 1 0 C1.309375 0.94875 1.61875 1.8975 1.9375 2.875 C2.87394742 5.86080408 2.87394742 5.86080408 4 8 C2.35 8.33 0.7 8.66 -1 9 C-0.67 6.03 -0.34 3.06 0 0 Z " fill="#49CDE6" transform="translate(106,104)"/>
<path d="M0 0 C2.97 0 5.94 0 9 0 C9 0.33 9 0.66 9 1 C5.7 1.66 2.4 2.32 -1 3 C-0.67 2.01 -0.34 1.02 0 0 Z " fill="#4B92ED" transform="translate(34,86)"/>
<path d="M0 0 C3 1 3 1 3 1 Z " fill="#E9EBF2" transform="translate(6,34)"/>
</svg>
