<?xml version="1.0" encoding="UTF-8"?>
<svg version="1.1" xmlns="http://www.w3.org/2000/svg" width="150" height="150">
<path d="M0 0 C1.4800841 0.11362262 2.95910074 0.24122908 4.4375 0.375 C5.26121094 0.44460937 6.08492188 0.51421875 6.93359375 0.5859375 C7.95646484 0.79089844 7.95646484 0.79089844 9 1 C10.33332095 3.6666419 9.67102033 5.16680303 9 8 C13.94749352 9.95031608 13.94749352 9.95031608 19 9 C19.99 11.97 19.99 11.97 21 15 C21.85464844 14.98839844 22.70929688 14.97679687 23.58984375 14.96484375 C24.69457031 14.95582031 25.79929687 14.94679688 26.9375 14.9375 C28.03964844 14.92589844 29.14179688 14.91429687 30.27734375 14.90234375 C33 15 33 15 34 16 C34.15764405 17.77869726 34.25100677 19.56318476 34.31640625 21.34765625 C34.37924805 22.96704102 34.37924805 22.96704102 34.44335938 24.61914062 C34.48267578 25.75544922 34.52199219 26.89175781 34.5625 28.0625 C34.60568359 29.20267578 34.64886719 30.34285156 34.69335938 31.51757812 C34.79982839 34.34492195 34.90184207 37.17235738 35 40 C36.32 40.33 37.64 40.66 39 41 C39 42.32 39 43.64 39 45 C39.33 45.99 39.66 46.98 40 48 C40.99 48.33 41.98 48.66 43 49 C42.67 50.65 42.34 52.3 42 54 C40.68 54.33 39.36 54.66 38 55 C37.67 56.65 37.34 58.3 37 60 C35.35 60.33 33.7 60.66 32 61 C31.67 60.34 31.34 59.68 31 59 C30.071875 59.20625 29.14375 59.4125 28.1875 59.625 C25 60 25 60 22 58 C22.33 55.69 22.66 53.38 23 51 C21.02 50.505 21.02 50.505 19 50 C19.33 48.35 19.66 46.7 20 45 C19.34 45 18.68 45 18 45 C18 51.6 18 58.2 18 65 C20.31 65 22.62 65 25 65 C26 66 26 66 26.11352539 69.96899414 C26.1133662 71.74105607 26.10766785 73.5131226 26.09765625 75.28515625 C26.0962413 76.21597519 26.09482635 77.14679413 26.09336853 78.1058197 C26.08775172 81.09141191 26.0751964 84.07693029 26.0625 87.0625 C26.05748716 89.08137913 26.05292388 91.10025943 26.04882812 93.11914062 C26.03777683 98.07945572 26.02050095 103.03971532 26 108 C28.31 108.66 30.62 109.32 33 110 C32 112 32 112 30.34521484 112.61450195 C25.49200924 113.41225457 20.54404055 113.18590312 15.63769531 113.18530273 C13.63863013 113.18748512 11.63960468 113.20599143 9.640625 113.22460938 C8.36960937 113.22654297 7.09859375 113.22847656 5.7890625 113.23046875 C4.63100098 113.23457764 3.47293945 113.23868652 2.27978516 113.24291992 C-1.11310954 112.99162245 -3.83332989 112.21173908 -7 111 C-6.67 110.34 -6.34 109.68 -6 109 C-3.4375 108.375 -3.4375 108.375 -1 108 C-1.67857056 107.99191315 -2.35714111 107.98382629 -3.05627441 107.97549438 C-10.19572947 107.88863335 -17.33493245 107.7891071 -24.47412109 107.68261719 C-27.12938188 107.64363425 -29.7845665 107.60971702 -32.43994141 107.578125 C-70.93926359 107.11445232 -70.93926359 107.11445232 -78 103 C-77.67 101.35 -77.34 99.7 -77 98 C-78.093125 98 -79.18625 98 -80.3125 98 C-87 98 -87 98 -88.6875 96.5 C-89.120625 96.005 -89.55375 95.51 -90 95 C-89.649375 94.071875 -89.29875 93.14375 -88.9375 92.1875 C-87.67617372 89.0197047 -87.67617372 89.0197047 -89 86 C-89.99 85.67 -90.98 85.34 -92 85 C-91.25 79.25 -91.25 79.25 -89 77 C-87.66666667 77.33333333 -86.33333333 77.66666667 -85 78 C-82.71271266 76.16116119 -82.71271266 76.16116119 -82.875 73.375 C-82.91625 72.59125 -82.9575 71.8075 -83 71 C-80.36 70.67 -77.72 70.34 -75 70 C-75 67.36 -75 64.72 -75 62 C-79.29 62 -83.58 62 -88 62 C-88 61.01 -88 60.02 -88 59 C-89.98 59 -91.96 59 -94 59 C-94 58.34 -94 57.68 -94 57 C-92.02 57 -90.04 57 -88 57 C-88 55.68 -88 54.36 -88 53 C-89.98 53 -91.96 53 -94 53 C-94 52.34 -94 51.68 -94 51 C-92.02 51 -90.04 51 -88 51 C-88 49.68 -88 48.36 -88 47 C-89.98 47 -91.96 47 -94 47 C-94 46.34 -94 45.68 -94 45 C-92.02 45 -90.04 45 -88 45 C-88 44.01 -88 43.02 -88 42 C-89.98 41.67 -91.96 41.34 -94 41 C-94 40.67 -94 40.34 -94 40 C-87.73 40 -81.46 40 -75 40 C-75 38.35 -75 36.7 -75 35 C-81.27 35 -87.54 35 -94 35 C-94 34.67 -94 34.34 -94 34 C-91.525 33.505 -91.525 33.505 -89 33 C-88.67 31.68 -88.34 30.36 -88 29 C-89.98 29 -91.96 29 -94 29 C-94 28.67 -94 28.34 -94 28 C-92.35 27.67 -90.7 27.34 -89 27 C-88.67 25.68 -88.34 24.36 -88 23 C-89.98 23 -91.96 23 -94 23 C-94 22.67 -94 22.34 -94 22 C-92.35 21.67 -90.7 21.34 -89 21 C-88.67 19.68 -88.34 18.36 -88 17 C-89.98 17 -91.96 17 -94 17 C-94 16.67 -94 16.34 -94 16 C-88.11060037 13.95887931 -82.8280285 13.72721958 -76.625 13.8125 C-75.25408203 13.8134668 -75.25408203 13.8134668 -73.85546875 13.81445312 C-67.14064837 13.85935163 -67.14064837 13.85935163 -66 15 C-63.19023482 15.16017166 -60.40226404 15.25950534 -57.58984375 15.31640625 C-56.74780899 15.33718735 -55.90577423 15.35796844 -55.03822327 15.37937927 C-52.33806821 15.44496812 -49.63781283 15.50380276 -46.9375 15.5625 C-45.11131759 15.60567637 -43.28514546 15.64929036 -41.45898438 15.69335938 C-36.97276008 15.80065894 -32.4864345 15.90189966 -28 16 C-28 16.33 -28 16.66 -28 17 C-40.87 17 -53.74 17 -67 17 C-66.67 18.32 -66.34 19.64 -66 21 C-53.46 21.33 -40.92 21.66 -28 22 C-28 22.33 -28 22.66 -28 23 C-40.87 23 -53.74 23 -67 23 C-66.67 24.32 -66.34 25.64 -66 27 C-50.16 27 -34.32 27 -18 27 C-18.495 25.02 -18.495 25.02 -19 23 C-17.35 22.67 -15.7 22.34 -14 22 C-13.64393187 17.03448675 -13.64393187 17.03448675 -15.5 12.5625 C-15.995 12.046875 -16.49 11.53125 -17 11 C-15.35 9.02 -13.7 7.04 -12 5 C-9.61435923 5.57584432 -7.33317216 6.22227595 -5 7 C-2.85744207 6.61067144 -2.85744207 6.61067144 -1 6 C-0.67 4.02 -0.34 2.04 0 0 Z M-5 14 C-7.2084626 17.31269391 -7.80664241 19.14978851 -7.5546875 23.0625 C-6.4812192 26.81207941 -4.28696911 28.01541488 -1 30 C1.63836977 30.1672392 1.63836977 30.1672392 4 30 C4.03738281 29.01257813 4.07476562 28.02515625 4.11328125 27.0078125 C4.17902344 25.72648437 4.24476562 24.44515625 4.3125 23.125 C4.37050781 21.84882812 4.42851563 20.57265625 4.48828125 19.2578125 C4.65714844 18.18273437 4.82601562 17.10765625 5 16 C5.99 15.34 6.98 14.68 8 14 C6.01607489 11.60148679 6.01607489 11.60148679 2.1875 11.5625 C-1.17733329 11.66669338 -2.04370031 12.02913354 -5 14 Z M-67 29 C-67 29.66 -67 30.32 -67 31 C-64.69 31 -62.38 31 -60 31 C-60 30.34 -60 29.68 -60 29 C-62.31 29 -64.62 29 -67 29 Z M26 47 C26.32326553 50.59679066 26.32326553 50.59679066 27 54 C31.07079208 55.1508314 31.07079208 55.1508314 34.875 53.875 C36.3568671 51.40522151 36.3633156 49.83386167 36 47 C34.11499729 44.68436913 34.11499729 44.68436913 31 44.75 C27.88500271 44.68436913 27.88500271 44.68436913 26 47 Z M-81.25 80.625 C-83.21985834 82.92308586 -83.21985834 82.92308586 -83.5 86 C-83.21376982 89.06575838 -83.21376982 89.06575838 -81.3125 91.375 C-78.61209763 93.27258004 -77.22939919 93.35882213 -74 93 C-73.85024761 85.94348748 -73.85024761 85.94348748 -75 79 C-78.92212225 78.60967296 -78.92212225 78.60967296 -81.25 80.625 Z M-69 95 C-69.33 96.32 -69.66 97.64 -70 99 C-66.25001029 99.91280675 -63.0983194 100.00893813 -59.26171875 99.66015625 C-58.19501953 99.56669922 -57.12832031 99.47324219 -56.02929688 99.37695312 C-54.92650391 99.27318359 -53.82371094 99.16941406 -52.6875 99.0625 C-51.00430664 98.91264648 -51.00430664 98.91264648 -49.28710938 98.75976562 C-46.52410179 98.51285856 -43.76185892 98.25939059 -41 98 C-40.67 97.01 -40.34 96.02 -40 95 C-49.57 95 -59.14 95 -69 95 Z M-16 95 C-16 95.99 -16 96.98 -16 98 C-10.72 98.33 -5.44 98.66 0 99 C0 97.68 0 96.36 0 95 C-5.28 95 -10.56 95 -16 95 Z " fill="#5E52FD" transform="translate(101,18)"/>
<path d="M0 0 C2.31 0 4.62 0 7 0 C7 2.97 7 5.94 7 9 C10.3 9 13.6 9 17 9 C17 15.6 17 22.2 17 29 C12.71 29 8.42 29 4 29 C4 29.66 4 30.32 4 31 C12.79133718 32.42426407 12.79133718 32.42426407 29 32 C29 45.2 29 58.4 29 72 C31.31 72.66 33.62 73.32 36 74 C35 76 35 76 33.34521484 76.61450195 C28.49200924 77.41225457 23.54404055 77.18590312 18.63769531 77.18530273 C16.63863013 77.18748512 14.63960468 77.20599143 12.640625 77.22460938 C11.36960937 77.22654297 10.09859375 77.22847656 8.7890625 77.23046875 C7.63100098 77.23457764 6.47293945 77.23868652 5.27978516 77.24291992 C1.88689046 76.99162245 -0.83332989 76.21173908 -4 75 C-3.67 74.34 -3.34 73.68 -3 73 C-0.4375 72.375 -0.4375 72.375 2 72 C1.32142944 71.99191315 0.64285889 71.98382629 -0.05627441 71.97549438 C-7.19572947 71.88863335 -14.33493245 71.7891071 -21.47412109 71.68261719 C-24.12938188 71.64363425 -26.7845665 71.60971702 -29.43994141 71.578125 C-67.93926359 71.11445232 -67.93926359 71.11445232 -75 67 C-74.67 65.35 -74.34 63.7 -74 62 C-75.093125 62 -76.18625 62 -77.3125 62 C-84 62 -84 62 -85.6875 60.5 C-86.120625 60.005 -86.55375 59.51 -87 59 C-86.649375 58.071875 -86.29875 57.14375 -85.9375 56.1875 C-84.67617372 53.0197047 -84.67617372 53.0197047 -86 50 C-86.99 49.67 -87.98 49.34 -89 49 C-88.25 43.25 -88.25 43.25 -86 41 C-84.66666667 41.33333333 -83.33333333 41.66666667 -82 42 C-79.71271266 40.16116119 -79.71271266 40.16116119 -79.875 37.375 C-79.91625 36.59125 -79.9575 35.8075 -80 35 C-77.36 34.67 -74.72 34.34 -72 34 C-72 36.97 -72 39.94 -72 43 C-72.969375 43.28875 -73.93875 43.5775 -74.9375 43.875 C-78.10664203 44.64214682 -78.10664203 44.64214682 -79 47 C-79.40270732 51.1283652 -79.40270732 51.1283652 -77.8125 54.8125 C-75.57968261 56.27538036 -73.62655933 56.64505955 -71 57 C-71 54.03 -71 51.06 -71 48 C-69.02 48 -67.04 48 -65 48 C-64.67 48.66 -64.34 49.32 -64 50 C-55.75 50 -47.5 50 -39 50 C-38.505 49.01 -38.505 49.01 -38 48 C-24.47 48 -10.94 48 3 48 C3 46.35 3 44.7 3 43 C2.16227051 43.01571045 1.32454102 43.0314209 0.46142578 43.04760742 C-2.64336877 43.09870007 -5.74794931 43.13633234 -8.85302734 43.16479492 C-10.85919374 43.18732251 -12.86516526 43.2254357 -14.87109375 43.26367188 C-16.12792969 43.27333984 -17.38476562 43.28300781 -18.6796875 43.29296875 C-20.42354736 43.31653442 -20.42354736 43.31653442 -22.20263672 43.34057617 C-23.58733154 43.17199097 -23.58733154 43.17199097 -25 43 C-25.66 42.01 -26.32 41.02 -27 40 C-26.34 39.67 -25.68 39.34 -25 39 C-25 38.01 -25 37.02 -25 36 C-24.68911632 34.32900023 -24.35919668 32.66128463 -24 31 C-22.7625 31.0825 -21.525 31.165 -20.25 31.25 C-18.04091883 31.31178611 -18.04091883 31.31178611 -16 31 C-15.38125 30.360625 -14.7625 29.72125 -14.125 29.0625 C-11.08594169 26.11282576 -8.25572414 26.38645731 -4.14453125 26.17578125 C-2.0186686 26.23432775 -2.0186686 26.23432775 -1 25 C-0.84213692 23.14825294 -0.74892644 21.2909089 -0.68359375 19.43359375 C-0.64169922 18.30888672 -0.59980469 17.18417969 -0.55664062 16.02539062 C-0.51732422 14.84138672 -0.47800781 13.65738281 -0.4375 12.4375 C-0.37272461 10.65569336 -0.37272461 10.65569336 -0.30664062 8.83789062 C-0.20016454 5.89205216 -0.09815159 2.9461257 0 0 Z M-66 59 C-66.33 60.32 -66.66 61.64 -67 63 C-63.25001029 63.91280675 -60.0983194 64.00893813 -56.26171875 63.66015625 C-55.19501953 63.56669922 -54.12832031 63.47324219 -53.02929688 63.37695312 C-51.92650391 63.27318359 -50.82371094 63.16941406 -49.6875 63.0625 C-48.00430664 62.91264648 -48.00430664 62.91264648 -46.28710938 62.75976562 C-43.52410179 62.51285856 -40.76185892 62.25939059 -38 62 C-37.67 61.01 -37.34 60.02 -37 59 C-46.57 59 -56.14 59 -66 59 Z M-13 59 C-13 59.99 -13 60.98 -13 62 C-7.72 62.33 -2.44 62.66 3 63 C3 61.68 3 60.36 3 59 C-2.28 59 -7.56 59 -13 59 Z " fill="#5F50F4" transform="translate(98,54)"/>
<path d="M0 0 C0 2.97 0 5.94 0 9 C-0.969375 9.28875 -1.93875 9.5775 -2.9375 9.875 C-6.10664203 10.64214682 -6.10664203 10.64214682 -7 13 C-7.40270732 17.1283652 -7.40270732 17.1283652 -5.8125 20.8125 C-3.57968261 22.27538036 -1.62655933 22.64505955 1 23 C1 20.03 1 17.06 1 14 C2.98 14 4.96 14 7 14 C7.33 14.66 7.66 15.32 8 16 C16.25 16 24.5 16 33 16 C33.33 15.34 33.66 14.68 34 14 C47.53 14 61.06 14 75 14 C75 17.63 75 21.26 75 25 C69.72 25 64.44 25 59 25 C59 25.99 59 26.98 59 28 C59.56847656 27.98839844 60.13695313 27.97679688 60.72265625 27.96484375 C65.60670484 27.90776806 70.18503965 28.18043228 75 29 C75 31.64 75 34.28 75 37 C67.71409984 37.04682155 60.42823335 37.08211748 53.14221191 37.10362434 C49.75718789 37.11395864 46.37226851 37.12792229 42.98730469 37.15087891 C4.5625541 37.39227608 4.5625541 37.39227608 -3 33 C-2.67 31.35 -2.34 29.7 -2 28 C-3.093125 28 -4.18625 28 -5.3125 28 C-12 28 -12 28 -13.6875 26.5 C-14.120625 26.005 -14.55375 25.51 -15 25 C-14.649375 24.071875 -14.29875 23.14375 -13.9375 22.1875 C-12.67617372 19.0197047 -12.67617372 19.0197047 -14 16 C-14.99 15.67 -15.98 15.34 -17 15 C-16.25 9.25 -16.25 9.25 -14 7 C-12.66666667 7.33333333 -11.33333333 7.66666667 -10 8 C-7.71271266 6.16116119 -7.71271266 6.16116119 -7.875 3.375 C-7.91625 2.59125 -7.9575 1.8075 -8 1 C-5.07175348 0.02391783 -3.04386724 -0.08226668 0 0 Z M6 25 C5.67 26.32 5.34 27.64 5 29 C8.74998971 29.91280675 11.9016806 30.00893813 15.73828125 29.66015625 C16.80498047 29.56669922 17.87167969 29.47324219 18.97070312 29.37695312 C20.07349609 29.27318359 21.17628906 29.16941406 22.3125 29.0625 C23.99569336 28.91264648 23.99569336 28.91264648 25.71289062 28.75976562 C28.47589821 28.51285856 31.23814108 28.25939059 34 28 C34.33 27.01 34.66 26.02 35 25 C25.43 25 15.86 25 6 25 Z " fill="#BAD4FE" transform="translate(26,88)"/>
<path d="M0 0 C16.83 0 33.66 0 51 0 C51 10.23 51 20.46 51 31 C34.17 31 17.34 31 0 31 C0 20.77 0 10.54 0 0 Z " fill="#484C90" transform="translate(44,47)"/>
<path d="M0 0 C1.4800841 0.11362262 2.95910074 0.24122908 4.4375 0.375 C5.26121094 0.44460937 6.08492187 0.51421875 6.93359375 0.5859375 C7.61550781 0.72257812 8.29742187 0.85921875 9 1 C10.33332095 3.6666419 9.67102033 5.16680303 9 8 C13.94749352 9.95031608 13.94749352 9.95031608 19 9 C19.66 10.98 20.32 12.96 21 15 C22.28197266 14.98259766 22.28197266 14.98259766 23.58984375 14.96484375 C24.69457031 14.95582031 25.79929688 14.94679688 26.9375 14.9375 C28.03964844 14.92589844 29.14179688 14.91429687 30.27734375 14.90234375 C33 15 33 15 34 16 C34.15764405 17.77869726 34.25100677 19.56318476 34.31640625 21.34765625 C34.35830078 22.42724609 34.40019531 23.50683594 34.44335938 24.61914062 C34.48267578 25.75544922 34.52199219 26.89175781 34.5625 28.0625 C34.60568359 29.20267578 34.64886719 30.34285156 34.69335938 31.51757812 C34.79982839 34.34492195 34.90184207 37.17235738 35 40 C36.32 40.33 37.64 40.66 39 41 C39 42.32 39 43.64 39 45 C39.33 45.99 39.66 46.98 40 48 C40.99 48.33 41.98 48.66 43 49 C42.67 50.65 42.34 52.3 42 54 C40.02 54.495 40.02 54.495 38 55 C37.67 56.65 37.34 58.3 37 60 C34.525 60.495 34.525 60.495 32 61 C31.67 60.34 31.34 59.68 31 59 C30.071875 59.20625 29.14375 59.4125 28.1875 59.625 C25 60 25 60 22 58 C22.33 55.69 22.66 53.38 23 51 C21.68 50.67 20.36 50.34 19 50 C19.33 48.35 19.66 46.7 20 45 C19.01 44.67 18.02 44.34 17 44 C15.8125 41.4375 15.8125 41.4375 15 39 C15.66 39 16.32 39 17 39 C16.34 36.69 15.68 34.38 15 32 C9.06 31.67 3.12 31.34 -3 31 C-3 30.34 -3 29.68 -3 29 C-0.69 29.33 1.62 29.66 4 30 C3.94779297 28.51886719 3.94779297 28.51886719 3.89453125 27.0078125 C3.86746094 25.72648437 3.84039062 24.44515625 3.8125 23.125 C3.76029297 21.21074219 3.76029297 21.21074219 3.70703125 19.2578125 C3.80371094 18.18273437 3.90039062 17.10765625 4 16 C4.99 15.34 5.98 14.68 7 14 C5.78410016 12.56844101 5.78410016 12.56844101 2.1875 12.6875 C-0.78617685 12.74622611 -1.87751147 12.92650688 -4.5 14.5 C-6.71177972 18.18629954 -6.34421275 20.73176192 -6 25 C-5.67 25.66 -5.34 26.32 -5 27 C-9.29 27 -13.58 27 -18 27 C-18.33 25.68 -18.66 24.36 -19 23 C-17.35 22.67 -15.7 22.34 -14 22 C-13.64393187 17.03448675 -13.64393187 17.03448675 -15.5 12.5625 C-15.995 12.046875 -16.49 11.53125 -17 11 C-15.35 9.02 -13.7 7.04 -12 5 C-9.61435923 5.57584432 -7.33317216 6.22227595 -5 7 C-2.85744207 6.61067144 -2.85744207 6.61067144 -1 6 C-0.67 4.02 -0.34 2.04 0 0 Z M26 47 C26.32326553 50.59679066 26.32326553 50.59679066 27 54 C31.07079208 55.1508314 31.07079208 55.1508314 34.875 53.875 C36.3568671 51.40522151 36.3633156 49.83386167 36 47 C34.11499729 44.68436913 34.11499729 44.68436913 31 44.75 C27.88500271 44.68436913 27.88500271 44.68436913 26 47 Z " fill="#37D6CF" transform="translate(101,18)"/>
<path d="M0 0 C2.31 0 4.62 0 7 0 C7 2.97 7 5.94 7 9 C10.3 9 13.6 9 17 9 C17 15.6 17 22.2 17 29 C12.71 29 8.42 29 4 29 C3.67 33.62 3.34 38.24 3 43 C-0.95142546 43.06883128 -4.90132632 43.1285718 -8.85302734 43.16479492 C-10.85919374 43.18732251 -12.86516526 43.2254357 -14.87109375 43.26367188 C-16.12792969 43.27333984 -17.38476562 43.28300781 -18.6796875 43.29296875 C-20.42354736 43.31653442 -20.42354736 43.31653442 -22.20263672 43.34057617 C-23.58733154 43.17199097 -23.58733154 43.17199097 -25 43 C-25.66 42.01 -26.32 41.02 -27 40 C-26.01 39.505 -26.01 39.505 -25 39 C-25 38.01 -25 37.02 -25 36 C-24.68911632 34.32900023 -24.35919668 32.66128463 -24 31 C-22.7625 31.0825 -21.525 31.165 -20.25 31.25 C-18.04091883 31.31178611 -18.04091883 31.31178611 -16 31 C-15.38125 30.360625 -14.7625 29.72125 -14.125 29.0625 C-11.08594169 26.11282576 -8.25572414 26.38645731 -4.14453125 26.17578125 C-2.0186686 26.23432775 -2.0186686 26.23432775 -1 25 C-0.84213692 23.14825294 -0.74892644 21.2909089 -0.68359375 19.43359375 C-0.64169922 18.30888672 -0.59980469 17.18417969 -0.55664062 16.02539062 C-0.51732422 14.84138672 -0.47800781 13.65738281 -0.4375 12.4375 C-0.39431641 11.24962891 -0.35113281 10.06175781 -0.30664062 8.83789062 C-0.20016454 5.89205216 -0.09815159 2.9461257 0 0 Z " fill="#7283FE" transform="translate(98,54)"/>
<path d="M0 0 C7.92 0 15.84 0 24 0 C24.495 1.98 24.495 1.98 25 4 C26.91425781 3.96519531 26.91425781 3.96519531 28.8671875 3.9296875 C30.5364525 3.91093171 32.2057238 3.89273131 33.875 3.875 C34.71675781 3.85824219 35.55851562 3.84148438 36.42578125 3.82421875 C37.23144531 3.81777344 38.03710938 3.81132813 38.8671875 3.8046875 C39.61081543 3.79421387 40.35444336 3.78374023 41.12060547 3.77294922 C43 4 43 4 45 6 C45.125 9 45.125 9 45 12 C44.89459074 14.21081851 44.89459074 14.21081851 46 17 C46.08143855 18.62719482 46.1075302 20.25751719 46.09765625 21.88671875 C46.09282227 23.2934082 46.09282227 23.2934082 46.08789062 24.72851562 C46.07532227 26.19321289 46.07532227 26.19321289 46.0625 27.6875 C46.05798828 28.67556641 46.05347656 29.66363281 46.04882812 30.68164062 C46.03704303 33.12115474 46.02059011 35.56054689 46 38 C48.31 38 50.62 38 53 38 C53.33 38.99 53.66 39.98 54 41 C45.19039858 42.30512614 36.80960142 42.30512614 28 41 C28.33 40.01 28.66 39.02 29 38 C33.29 38 37.58 38 42 38 C42 31.4 42 24.8 42 18 C38.7 18 35.4 18 32 18 C32 15.03 32 12.06 32 9 C29.69 9 27.38 9 25 9 C25.01571045 10.12027588 25.01571045 10.12027588 25.03173828 11.26318359 C25.0732077 14.63375508 25.09929729 18.004273 25.125 21.375 C25.14175781 22.550625 25.15851563 23.72625 25.17578125 24.9375 C25.18544922 26.61972656 25.18544922 26.61972656 25.1953125 28.3359375 C25.21102295 29.89127197 25.21102295 29.89127197 25.22705078 31.47802734 C25 34 25 34 23 36 C20.76086426 36.25396729 20.76086426 36.25396729 17.93945312 36.25878906 C16.35771301 36.26824554 16.35771301 36.26824554 14.74401855 36.27789307 C13.60130493 36.2738446 12.45859131 36.26979614 11.28125 36.265625 C9.52802429 36.26849518 9.52802429 36.26849518 7.73937988 36.27142334 C5.26456487 36.27278626 2.78974274 36.26908241 0.31494141 36.26074219 C-3.48421205 36.25004446 -7.28289259 36.26063418 -11.08203125 36.2734375 C-13.48177188 36.27211592 -15.88151222 36.26955357 -18.28125 36.265625 C-19.99532043 36.27169769 -19.99532043 36.27169769 -21.74401855 36.27789307 C-22.79851196 36.27158875 -23.85300537 36.26528442 -24.93945312 36.25878906 C-25.8705188 36.25719788 -26.80158447 36.25560669 -27.76086426 36.25396729 C-30 36 -30 36 -32 34 C-32.22705078 31.01904297 -32.22705078 31.01904297 -32.1953125 27.2421875 C-32.1924826 26.57913605 -32.18965271 25.91608459 -32.18673706 25.23294067 C-32.17553435 23.11344417 -32.15043051 20.99436896 -32.125 18.875 C-32.11497028 17.43880818 -32.10584441 16.00260975 -32.09765625 14.56640625 C-32.075595 11.04413372 -32.04106494 7.52210797 -32 4 C-31.01 4 -30.02 4 -29 4 C-29 13.57 -29 23.14 -29 33 C-12.17 33 4.66 33 22 33 C22 22.77 22 12.54 22 2 C14.74 2 7.48 2 0 2 C0 1.34 0 0.68 0 0 Z " fill="#37D4C9" transform="translate(73,45)"/>
<path d="M0 0 C0 2.97 0 5.94 0 9 C-0.969375 9.28875 -1.93875 9.5775 -2.9375 9.875 C-6.10664203 10.64214682 -6.10664203 10.64214682 -7 13 C-7.45565588 17.050918 -7.45565588 17.050918 -5.80859375 20.5859375 C-3.56396384 22.34091812 -1.55436719 22.93971804 1.1875 23.6875 C2.08855469 23.93886719 2.98960938 24.19023438 3.91796875 24.44921875 C4.60503906 24.63097656 5.29210937 24.81273438 6 25 C6 26.32 6 27.64 6 29 C15.24 28.67 24.48 28.34 34 28 C33.67 28.66 33.34 29.32 33 30 C30.35139573 30.59355614 27.70802678 30.74209269 25 31 C25 31.66 25 32.32 25 33 C39.19 33 53.38 33 68 33 C67.67 32.34 67.34 31.68 67 31 C65.845 30.835 64.69 30.67 63.5 30.5 C62.345 30.335 61.19 30.17 60 30 C59.505 29.01 59.505 29.01 59 28 C64.45769811 27.88861841 69.61509359 28.08342019 75 29 C75 31.64 75 34.28 75 37 C67.71409984 37.04682155 60.42823335 37.08211748 53.14221191 37.10362434 C49.75718789 37.11395864 46.37226851 37.12792229 42.98730469 37.15087891 C4.5625541 37.39227608 4.5625541 37.39227608 -3 33 C-2.67 31.35 -2.34 29.7 -2 28 C-3.093125 28 -4.18625 28 -5.3125 28 C-12 28 -12 28 -13.6875 26.5 C-14.120625 26.005 -14.55375 25.51 -15 25 C-14.649375 24.071875 -14.29875 23.14375 -13.9375 22.1875 C-12.67617372 19.0197047 -12.67617372 19.0197047 -14 16 C-14.99 15.67 -15.98 15.34 -17 15 C-16.25 9.25 -16.25 9.25 -14 7 C-12.66666667 7.33333333 -11.33333333 7.66666667 -10 8 C-7.71271266 6.16116119 -7.71271266 6.16116119 -7.875 3.375 C-7.91625 2.59125 -7.9575 1.8075 -8 1 C-5.07175348 0.02391783 -3.04386724 -0.08226668 0 0 Z " fill="#EAEBF2" transform="translate(26,88)"/>
<path d="M0 0 C1.37091797 0.0009668 1.37091797 0.0009668 2.76953125 0.00195312 C9.48435163 0.04685163 9.48435163 0.04685163 10.625 1.1875 C13.43476518 1.34767166 16.22273596 1.44700534 19.03515625 1.50390625 C19.87719101 1.52468735 20.71922577 1.54546844 21.58677673 1.56687927 C24.28693179 1.63246812 26.98718717 1.69130276 29.6875 1.75 C31.51368241 1.79317637 33.33985454 1.83679036 35.16601562 1.88085938 C39.65223992 1.98815894 44.1385655 2.08939966 48.625 2.1875 C48.625 2.5175 48.625 2.8475 48.625 3.1875 C35.755 3.1875 22.885 3.1875 9.625 3.1875 C9.955 4.5075 10.285 5.8275 10.625 7.1875 C23.165 7.5175 35.705 7.8475 48.625 8.1875 C48.625 8.5175 48.625 8.8475 48.625 9.1875 C35.755 9.1875 22.885 9.1875 9.625 9.1875 C9.955 10.5075 10.285 11.8275 10.625 13.1875 C23.165 13.1875 35.705 13.1875 48.625 13.1875 C48.625 13.8475 48.625 14.5075 48.625 15.1875 C39.055 15.1875 29.485 15.1875 19.625 15.1875 C19.625 15.8475 19.625 16.5075 19.625 17.1875 C18.635 17.1875 17.645 17.1875 16.625 17.1875 C16.625 16.5275 16.625 15.8675 16.625 15.1875 C14.315 15.1875 12.005 15.1875 9.625 15.1875 C9.625 17.1675 9.625 19.1475 9.625 21.1875 C0.715 21.1875 -8.195 21.1875 -17.375 21.1875 C-17.375 20.8575 -17.375 20.5275 -17.375 20.1875 C-15.725 19.8575 -14.075 19.5275 -12.375 19.1875 C-12.045 17.8675 -11.715 16.5475 -11.375 15.1875 C-13.355 15.1875 -15.335 15.1875 -17.375 15.1875 C-17.375 14.8575 -17.375 14.5275 -17.375 14.1875 C-15.725 13.8575 -14.075 13.5275 -12.375 13.1875 C-12.045 11.8675 -11.715 10.5475 -11.375 9.1875 C-13.355 9.1875 -15.335 9.1875 -17.375 9.1875 C-17.375 8.8575 -17.375 8.5275 -17.375 8.1875 C-15.725 7.8575 -14.075 7.5275 -12.375 7.1875 C-12.045 5.8675 -11.715 4.5475 -11.375 3.1875 C-13.355 3.1875 -15.335 3.1875 -17.375 3.1875 C-17.375 2.8575 -17.375 2.5275 -17.375 2.1875 C-11.48560037 0.14637931 -6.2030285 -0.08528042 0 0 Z " fill="#97E3DF" transform="translate(24.375,31.8125)"/>
<path d="M0 0 C1.12019531 -0.00128906 2.24039063 -0.00257812 3.39453125 -0.00390625 C4.57402344 -0.00003906 5.75351562 0.00382812 6.96875 0.0078125 C8.73798828 0.00201172 8.73798828 0.00201172 10.54296875 -0.00390625 C12.22326172 -0.00197266 12.22326172 -0.00197266 13.9375 0 C14.97326172 0.00112793 16.00902344 0.00225586 17.07617188 0.00341797 C19.46875 0.1328125 19.46875 0.1328125 20.46875 1.1328125 C20.56861975 3.97616298 20.60752881 6.78978413 20.59375 9.6328125 C20.59955078 10.82970703 20.59955078 10.82970703 20.60546875 12.05078125 C20.59535767 18.00620483 20.59535767 18.00620483 19.46875 19.1328125 C17.62715977 19.23240871 15.78178033 19.26361661 13.9375 19.265625 C12.81730469 19.26691406 11.69710937 19.26820312 10.54296875 19.26953125 C9.36347656 19.26566406 8.18398438 19.26179688 6.96875 19.2578125 C5.19951172 19.26361328 5.19951172 19.26361328 3.39453125 19.26953125 C1.71423828 19.26759766 1.71423828 19.26759766 0 19.265625 C-1.03576172 19.26449707 -2.07152344 19.26336914 -3.13867188 19.26220703 C-5.53125 19.1328125 -5.53125 19.1328125 -6.53125 18.1328125 C-6.63111975 15.28946202 -6.67002881 12.47584087 -6.65625 9.6328125 C-6.66011719 8.83488281 -6.66398437 8.03695312 -6.66796875 7.21484375 C-6.65573175 0.007248 -6.65573175 0.007248 0 0 Z " fill="#37D6C8" transform="translate(39.53125,85.8671875)"/>
<path d="M0 0 C3.0000624 -0.02721831 5.99987256 -0.04694378 9 -0.0625 C9.83917969 -0.07087891 10.67835937 -0.07925781 11.54296875 -0.08789062 C12.79013672 -0.09272461 12.79013672 -0.09272461 14.0625 -0.09765625 C15.19365234 -0.10551147 15.19365234 -0.10551147 16.34765625 -0.11352539 C19.91451913 0.03914317 23.45744034 0.55718004 27 1 C27 7.93 27 14.86 27 22 C20.07 22 13.14 22 6 22 C6 21.01 6 20.02 6 19 C4.02 19 2.04 19 0 19 C0 18.34 0 17.68 0 17 C1.98 17 3.96 17 6 17 C6 15.68 6 14.36 6 13 C4.02 13 2.04 13 0 13 C0 12.34 0 11.68 0 11 C1.98 11 3.96 11 6 11 C6 9.68 6 8.36 6 7 C4.02 7 2.04 7 0 7 C0 6.34 0 5.68 0 5 C1.98 5 3.96 5 6 5 C6 4.01 6 3.02 6 2 C3.03 1.505 3.03 1.505 0 1 C0 0.67 0 0.34 0 0 Z " fill="#90DBE7" transform="translate(7,58)"/>
<path d="M0 0 C0.83265381 0.00523682 1.66530762 0.01047363 2.52319336 0.01586914 C3.42231445 0.0190918 4.32143555 0.02231445 5.24780273 0.02563477 C6.66609375 0.03820312 6.66609375 0.03820312 8.11303711 0.05102539 C9.06243164 0.05553711 10.01182617 0.06004883 10.98999023 0.06469727 C13.34356776 0.07652429 15.69702188 0.09300514 18.05053711 0.11352539 C17.39053711 0.77352539 16.73053711 1.43352539 16.05053711 2.11352539 C16.71053711 2.77352539 17.37053711 3.43352539 18.05053711 4.11352539 C16.73053711 4.11352539 15.41053711 4.11352539 14.05053711 4.11352539 C13.72053711 4.77352539 13.39053711 5.43352539 13.05053711 6.11352539 C13.05053711 5.45352539 13.05053711 4.79352539 13.05053711 4.11352539 C10.74053711 4.11352539 8.43053711 4.11352539 6.05053711 4.11352539 C6.05053711 4.87665039 6.05053711 5.63977539 6.05053711 6.42602539 C6.05053711 8.32185872 6.05053711 10.21769206 6.05053711 12.11352539 C6.38053711 13.10352539 6.71053711 14.09352539 7.05053711 15.11352539 C19.92053711 15.60852539 19.92053711 15.60852539 33.05053711 16.11352539 C33.05053711 17.76352539 33.05053711 19.41352539 33.05053711 21.11352539 C19.52053711 21.11352539 5.99053711 21.11352539 -7.94946289 21.11352539 C-8.27946289 15.83352539 -8.60946289 10.55352539 -8.94946289 5.11352539 C-6.98693674 3.15099924 -5.41089868 2.30454271 -2.94946289 1.11352539 C-1.94946289 0.11352539 -1.94946289 0.11352539 0 0 Z " fill="#6B71FE" transform="translate(67.949462890625,80.886474609375)"/>
<path d="M0 0 C1.4800841 0.11362262 2.95910074 0.24122908 4.4375 0.375 C5.26121094 0.44460937 6.08492187 0.51421875 6.93359375 0.5859375 C7.61550781 0.72257812 8.29742187 0.85921875 9 1 C10.33332095 3.6666419 9.67102033 5.16680303 9 8 C13.94749352 9.95031608 13.94749352 9.95031608 19 9 C19.66 10.98 20.32 12.96 21 15 C18.87527424 15.05386629 16.75016348 15.09273071 14.625 15.125 C12.84996094 15.15980469 12.84996094 15.15980469 11.0390625 15.1953125 C8 15 8 15 6 13 C0.45764755 12.42765564 0.45764755 12.42765564 -4.5 14.5 C-6.71177972 18.18629954 -6.34421275 20.73176192 -6 25 C-5.67 25.66 -5.34 26.32 -5 27 C-9.29 27 -13.58 27 -18 27 C-18.33 25.68 -18.66 24.36 -19 23 C-17.35 22.67 -15.7 22.34 -14 22 C-13.64393187 17.03448675 -13.64393187 17.03448675 -15.5 12.5625 C-15.995 12.046875 -16.49 11.53125 -17 11 C-15.35 9.02 -13.7 7.04 -12 5 C-9.61435923 5.57584432 -7.33317216 6.22227595 -5 7 C-2.85744207 6.61067144 -2.85744207 6.61067144 -1 6 C-0.67 4.02 -0.34 2.04 0 0 Z " fill="#E8EAF1" transform="translate(101,18)"/>
<path d="M0 0 C1.32 0 2.64 0 4 0 C4 11.55 4 23.1 4 35 C-4.25 35 -12.5 35 -21 35 C-21.125 22.25 -21.125 22.25 -20 20 C-19.34 20 -18.68 20 -18 20 C-17.67 21.32 -17.34 22.64 -17 24 C-11.72 24 -6.44 24 -1 24 C-0.67 18.39 -0.34 12.78 0 7 C-2.31 7 -4.62 7 -7 7 C-5.9024777 4.00675737 -5.32317108 3.15389099 -2.375 1.75 C-1.199375 1.37875 -1.199375 1.37875 0 1 C0 0.67 0 0.34 0 0 Z " fill="#7184FE" transform="translate(123,89)"/>
<path d="M0 0 C2.95857409 -0.05379226 5.91617721 -0.09357093 8.875 -0.125 C9.71675781 -0.14175781 10.55851562 -0.15851562 11.42578125 -0.17578125 C12.23144531 -0.18222656 13.03710938 -0.18867187 13.8671875 -0.1953125 C14.98262939 -0.21102295 14.98262939 -0.21102295 16.12060547 -0.22705078 C18 0 18 0 20 2 C20.125 5 20.125 5 20 8 C19.89459074 10.21081851 19.89459074 10.21081851 21 13 C21.08143855 14.62719482 21.1075302 16.25751719 21.09765625 17.88671875 C21.09443359 18.82451172 21.09121094 19.76230469 21.08789062 20.72851562 C21.07951172 21.70498047 21.07113281 22.68144531 21.0625 23.6875 C21.05798828 24.67556641 21.05347656 25.66363281 21.04882812 26.68164062 C21.03704303 29.12115474 21.02059011 31.56054689 21 34 C23.31 34 25.62 34 28 34 C28.33 34.99 28.66 35.98 29 37 C20.19039858 38.30512614 11.80960142 38.30512614 3 37 C3.33 36.01 3.66 35.02 4 34 C8.29 34 12.58 34 17 34 C17 27.4 17 20.8 17 14 C13.7 14 10.4 14 7 14 C7 11.03 7 8.06 7 5 C4.69 5 2.38 5 0 5 C0 3.35 0 1.7 0 0 Z " fill="#3AC6D3" transform="translate(98,49)"/>
<path d="M0 0 C8.91 0 17.82 0 27 0 C27 3.96 27 7.92 27 12 C23.04907941 12.07409401 19.09842706 12.12857406 15.14697266 12.16479492 C13.14080626 12.18732251 11.13483474 12.2254357 9.12890625 12.26367188 C7.87207031 12.27333984 6.61523438 12.28300781 5.3203125 12.29296875 C3.57645264 12.31653442 3.57645264 12.31653442 1.79736328 12.34057617 C0.8742334 12.22818604 -0.04889648 12.1157959 -1 12 C-1.66 11.01 -2.32 10.02 -3 9 C-2.34 8.67 -1.68 8.34 -1 8 C-1 7.01 -1 6.02 -1 5 C-0.67 3.35 -0.34 1.7 0 0 Z " fill="#7891FE" transform="translate(74,85)"/>
<path d="M0 0 C1.58206057 0.00667536 3.16410534 0.0186375 4.74609375 0.03515625 C5.55240234 0.03966797 6.35871094 0.04417969 7.18945312 0.04882812 C9.18753131 0.06065107 11.18557158 0.07858711 13.18359375 0.09765625 C13.21043687 2.91021906 13.23035563 5.72252866 13.24609375 8.53515625 C13.25447266 9.33759766 13.26285156 10.14003906 13.27148438 10.96679688 C13.28010805 13.01060846 13.23587525 15.05449527 13.18359375 17.09765625 C11.36243372 18.91881628 8.87687611 18.23000705 6.45703125 18.234375 C5.70679687 18.23050781 4.9565625 18.22664063 4.18359375 18.22265625 C3.05824219 18.22845703 3.05824219 18.22845703 1.91015625 18.234375 C-3.68979572 18.22426678 -3.68979572 18.22426678 -4.81640625 17.09765625 C-4.91621839 14.42034245 -4.955205 11.7746145 -4.94140625 9.09765625 C-4.94527344 8.34742187 -4.94914062 7.5971875 -4.953125 6.82421875 C-4.94103514 0.12643386 -4.94103514 0.12643386 0 0 Z " fill="#3DCFE4" transform="translate(109.81640625,95.90234375)"/>
<path d="M0 0 C5.61 0 11.22 0 17 0 C17 5.61 17 11.22 17 17 C11.39 17 5.78 17 0 17 C0 11.39 0 5.78 0 0 Z " fill="#3E4E9A" transform="translate(15,34)"/>
<path d="M0 0 C0.99 0 1.98 0 3 0 C2.32902328 4.19360449 0.1441606 7.40334352 -2 11 C2.29 11.33 6.58 11.66 11 12 C11.495 13.485 11.495 13.485 12 15 C-2.19 15 -16.38 15 -31 15 C-31 14.34 -31 13.68 -31 13 C-28.98177083 12.609375 -26.96354167 12.21875 -24.9453125 11.828125 C-22.80995329 11.14287884 -22.80995329 11.14287884 -21.7421875 8.921875 C-21.49726562 8.28765625 -21.25234375 7.6534375 -21 7 C-19.86111328 7.01740234 -19.86111328 7.01740234 -18.69921875 7.03515625 C-17.70535156 7.04417969 -16.71148437 7.05320312 -15.6875 7.0625 C-14.70136719 7.07410156 -13.71523437 7.08570312 -12.69921875 7.09765625 C-9.18594425 6.97054791 -7.50600314 6.50600314 -5 4 C-4.01 4 -3.02 4 -2 4 C-1.34 2.68 -0.68 1.36 0 0 Z " fill="#ADCCFE" transform="translate(82,106)"/>
<path d="M0 0 C0.66 0.99 1.32 1.98 2 3 C2.845625 3.33 3.69125 3.66 4.5625 4 C5.7690625 4.495 5.7690625 4.495 7 5 C7.495 6.485 7.495 6.485 8 8 C6.865625 8.12375 5.73125 8.2475 4.5625 8.375 C2.7990625 8.684375 2.7990625 8.684375 1 9 C-0.44197868 11.88395737 -0.58833581 14.82430479 -1 18 C-0.34 18.33 0.32 18.66 1 19 C0.01 19.99 -0.98 20.98 -2 22 C-5.875 20.25 -5.875 20.25 -7 18 C-6.34 18 -5.68 18 -5 18 C-5.66 15.69 -6.32 13.38 -7 11 C-12.94 10.67 -18.88 10.34 -25 10 C-25 9.34 -25 8.68 -25 8 C-22.03 8 -19.06 8 -16 8 C-15.34 6.68 -14.68 5.36 -14 4 C-12.68 4 -11.36 4 -10 4 C-9.71125 3.360625 -9.4225 2.72125 -9.125 2.0625 C-6.88597047 -2.04238748 -4.08343933 -1.02085983 0 0 Z " fill="#75D8DE" transform="translate(123,39)"/>
<path d="M0 0 C2.31 0 4.62 0 7 0 C7.14509751 4.41632177 7.23400818 8.83203193 7.3125 13.25 C7.3753418 15.13138672 7.3753418 15.13138672 7.43945312 17.05078125 C7.45556641 18.25605469 7.47167969 19.46132812 7.48828125 20.703125 C7.51446533 21.81333008 7.54064941 22.92353516 7.56762695 24.06738281 C7 27 7 27 4.46948242 29.39355469 C3.65455322 29.92368164 2.83962402 30.45380859 2 31 C0.41596476 29.41596476 0.78025065 27.7228362 0.68359375 25.52734375 C0.64169922 24.62822266 0.59980469 23.72910156 0.55664062 22.80273438 C0.51732422 21.85720703 0.47800781 20.91167969 0.4375 19.9375 C0.39431641 18.98810547 0.35113281 18.03871094 0.30664062 17.06054688 C0.20020724 14.70718647 0.09818992 12.35371646 0 10 C-2.64 10 -5.28 10 -8 10 C-8 8.02 -8 6.04 -8 4 C-5.36 4 -2.72 4 0 4 C0 2.68 0 1.36 0 0 Z " fill="#5A38FF" transform="translate(34,49)"/>
<path d="M0 0 C1.38294718 0.01329757 2.76582404 0.03715018 4.1484375 0.0703125 C4.85484375 0.07933594 5.56125 0.08835937 6.2890625 0.09765625 C8.03399848 0.12123647 9.77876045 0.15710789 11.5234375 0.1953125 C11.5234375 3.8253125 11.5234375 7.4553125 11.5234375 11.1953125 C6.2434375 11.1953125 0.9634375 11.1953125 -4.4765625 11.1953125 C-4.1465625 12.8453125 -3.8165625 14.4953125 -3.4765625 16.1953125 C-6.1165625 16.1953125 -8.7565625 16.1953125 -11.4765625 16.1953125 C-10.8165625 15.8653125 -10.1565625 15.5353125 -9.4765625 15.1953125 C-8.79717076 13.19959927 -8.13094691 11.19936477 -7.4765625 9.1953125 C-6.8165625 8.5353125 -6.1565625 7.8753125 -5.4765625 7.1953125 C-5.4765625 6.3703125 -5.4765625 5.5453125 -5.4765625 4.6953125 C-5.4765625 0.49485385 -3.97972639 0.22358013 0 0 Z " fill="#B0CFFE" transform="translate(89.4765625,101.8046875)"/>
<path d="M0 0 C13.53 0 27.06 0 41 0 C41 1.65 41 3.3 41 5 C27.47 5 13.94 5 0 5 C0 3.35 0 1.7 0 0 Z " fill="#3C3D89" transform="translate(60,97)"/>
<path d="M0 0 C1.32 0.33 2.64 0.66 4 1 C4 2.32 4 3.64 4 5 C4.33 5.99 4.66 6.98 5 8 C5.99 8.33 6.98 8.66 8 9 C7.67 10.65 7.34 12.3 7 14 C5.68 14.33 4.36 14.66 3 15 C2.67 16.65 2.34 18.3 2 20 C0.35 20.33 -1.3 20.66 -3 21 C-3.33 20.34 -3.66 19.68 -4 19 C-4.928125 19.20625 -5.85625 19.4125 -6.8125 19.625 C-10 20 -10 20 -13 18 C-12.67 15.69 -12.34 13.38 -12 11 C-13.32 10.67 -14.64 10.34 -16 10 C-15.67 8.35 -15.34 6.7 -15 5 C-12.36 5 -9.72 5 -7 5 C-7.165 6.11375 -7.33 7.2275 -7.5 8.375 C-8.0455458 11.72032033 -8.0455458 11.72032033 -8 14 C-5.08347826 14.16681109 -5.08347826 14.16681109 -2 14 C0.24067222 12.18017538 0.24067222 12.18017538 0.25 9.5625 C0.17967816 6.75895635 0.17967816 6.75895635 -2 4 C-1.34 2.68 -0.68 1.36 0 0 Z " fill="#E9EAF2" transform="translate(136,58)"/>
<path d="M0 0 C2.64 0 5.28 0 8 0 C8 6.93 8 13.86 8 21 C1.07 21 -5.86 21 -13 21 C-13 20.01 -13 19.02 -13 18 C-8.38 17.67 -3.76 17.34 1 17 C1 16.01 1 15.02 1 14 C1.99 14 2.98 14 4 14 C3.67 13.05125 3.34 12.1025 3 11.125 C2 8 2 8 2 6 C1.34 5.67 0.68 5.34 0 5 C0 3.35 0 1.7 0 0 Z " fill="#36D0CF" transform="translate(26,59)"/>
<path d="M0 0 C1.98 0 3.96 0 6 0 C6.33 0.66 6.66 1.32 7 2 C10.27555608 2.47001033 10.27555608 2.47001033 14.0625 2.625 C15.99802734 2.73714844 15.99802734 2.73714844 17.97265625 2.8515625 C19.47119141 2.92503906 19.47119141 2.92503906 21 3 C21.33 3.99 21.66 4.98 22 6 C21.01 7.485 21.01 7.485 20 9 C19.01 8.01 18.02 7.02 17 6 C17.33 7.32 17.66 8.64 18 10 C14.46615441 11.17794853 11.59722447 11.13264317 7.875 11.125 C5.98394531 11.12886719 5.98394531 11.12886719 4.0546875 11.1328125 C1 11 1 11 0 10 C-0.07205511 8.31391034 -0.08386068 6.62499341 -0.0625 4.9375 C-0.05347656 4.01839844 -0.04445313 3.09929687 -0.03515625 2.15234375 C-0.02355469 1.44207031 -0.01195313 0.73179688 0 0 Z " fill="#C4DBFE" transform="translate(27,102)"/>
<path d="M0 0 C0.99 0 1.98 0 3 0 C3 9.57 3 19.14 3 29 C7.29 29 11.58 29 16 29 C16 29.33 16 29.66 16 30 C35.305 30.495 35.305 30.495 55 31 C55 31.33 55 31.66 55 32 C47.48863592 32.05057965 39.97731551 32.08568257 32.46582031 32.10986328 C29.90883747 32.11994038 27.35186621 32.13360226 24.79492188 32.15087891 C21.12627308 32.17505217 17.45777621 32.18646585 13.7890625 32.1953125 C12.0655809 32.21079636 12.0655809 32.21079636 10.30728149 32.22659302 C9.2463327 32.22674408 8.18538391 32.22689514 7.09228516 32.22705078 C6.15518707 32.231492 5.21808899 32.23593323 4.25259399 32.24050903 C2 32 2 32 0 30 C-0.22705078 27.01904297 -0.22705078 27.01904297 -0.1953125 23.2421875 C-0.1924826 22.57913605 -0.18965271 21.91608459 -0.18673706 21.23294067 C-0.17553435 19.11344417 -0.15043051 16.99436896 -0.125 14.875 C-0.11497028 13.43880818 -0.10584441 12.00260975 -0.09765625 10.56640625 C-0.075595 7.04413372 -0.04106494 3.52210797 0 0 Z " fill="#459BEA" transform="translate(41,49)"/>
<path d="M0 0 C1.32 0 2.64 0 4 0 C4 6.6 4 13.2 4 20 C6.31 20 8.62 20 11 20 C11.33 20.99 11.66 21.98 12 23 C3.19039858 24.30512614 -5.19039858 24.30512614 -14 23 C-13.505 21.515 -13.505 21.515 -13 20 C-8.71 20 -4.42 20 0 20 C0 13.4 0 6.8 0 0 Z " fill="#4C4CA1" transform="translate(115,63)"/>
<path d="M0 0 C2.64 0 5.28 0 8 0 C6.68 0.33 5.36 0.66 4 1 C4 2.32 4 3.64 4 5 C6.11785113 6.11785113 6.11785113 6.11785113 9 7 C9 6.34 9 5.68 9 5 C9.66 5 10.32 5 11 5 C12.38232443 6.62626404 13.71937515 8.2925002 15 10 C13.71034824 11.37562854 12.37310707 12.70766393 11 14 C10.34 14 9.68 14 9 14 C9 13.01 9 12.02 9 11 C6.52733235 11.34444881 6.52733235 11.34444881 4 12 C3.67 12.66 3.34 13.32 3 14 C2.34 14 1.68 14 1 14 C1 13.01 1 12.02 1 11 C-0.32 11 -1.64 11 -3 11 C-3.33 11.99 -3.66 12.98 -4 14 C-5.32 12.35 -6.64 10.7 -8 9 C-6.35 7.68 -4.7 6.36 -3 5 C-2.34 5.33 -1.68 5.66 -1 6 C-0.67 4.02 -0.34 2.04 0 0 Z " fill="#40B1E1" transform="translate(43,86)"/>
<path d="M0 0 C1.23556641 0.01740234 1.23556641 0.01740234 2.49609375 0.03515625 C3.32238281 0.04417969 4.14867187 0.05320312 5 0.0625 C5.63808594 0.07410156 6.27617188 0.08570312 6.93359375 0.09765625 C6.60359375 2.07765625 6.27359375 4.05765625 5.93359375 6.09765625 C5.31484375 6.20078125 4.69609375 6.30390625 4.05859375 6.41015625 C1.56832891 6.97290998 1.56832891 6.97290998 -0.06640625 10.09765625 C0.92359375 11.08765625 1.91359375 12.07765625 2.93359375 13.09765625 C3.26359375 12.43765625 3.59359375 11.77765625 3.93359375 11.09765625 C5.25359375 11.09765625 6.57359375 11.09765625 7.93359375 11.09765625 C7.93359375 12.08765625 7.93359375 13.07765625 7.93359375 14.09765625 C8.59359375 14.09765625 9.25359375 14.09765625 9.93359375 14.09765625 C10.26359375 13.10765625 10.59359375 12.11765625 10.93359375 11.09765625 C12.58359375 11.09765625 14.23359375 11.09765625 15.93359375 11.09765625 C15.93359375 12.41765625 15.93359375 13.73765625 15.93359375 15.09765625 C12.62364662 16.75262981 8.94236375 16.1984996 5.30859375 16.16015625 C4.50679687 16.15564453 3.705 16.15113281 2.87890625 16.14648438 C0.89710369 16.13468793 -1.08466058 16.1167523 -3.06640625 16.09765625 C-3.0932572 13.61841824 -3.11317172 11.13946785 -3.12890625 8.66015625 C-3.14147461 7.59958008 -3.14147461 7.59958008 -3.15429688 6.51757812 C-3.16294213 4.71072066 -3.11860636 2.90378022 -3.06640625 1.09765625 C-2.06640625 0.09765625 -2.06640625 0.09765625 0 0 Z " fill="#36ADC6" transform="translate(36.06640625,85.90234375)"/>
<path d="M0 0 C1.31871094 -0.01224609 2.63742188 -0.02449219 3.99609375 -0.03710938 C5.90068359 -0.04000977 5.90068359 -0.04000977 7.84375 -0.04296875 C9.00068359 -0.04707764 10.15761719 -0.05118652 11.34960938 -0.05541992 C14.47736509 0.18575467 16.680892 0.85423629 19.5 2.1875 C18.5 4.1875 18.5 4.1875 16.84521484 4.80200195 C11.99200924 5.59975457 7.04404055 5.37340312 2.13769531 5.37280273 C0.13863013 5.37498512 -1.86039532 5.39349143 -3.859375 5.41210938 C-5.13039063 5.41404297 -6.40140625 5.41597656 -7.7109375 5.41796875 C-8.86899902 5.42207764 -10.02706055 5.42618652 -11.22021484 5.43041992 C-14.61310954 5.17912245 -17.33332989 4.39923908 -20.5 3.1875 C-20.17 2.5275 -19.84 1.8675 -19.5 1.1875 C-13.23640183 -0.60566158 -6.45139424 0.00315317 0 0 Z " fill="#EAEBF2" transform="translate(114.5,125.8125)"/>
<path d="M0 0 C1.58206057 0.00667536 3.16410534 0.0186375 4.74609375 0.03515625 C5.55240234 0.03966797 6.35871094 0.04417969 7.18945312 0.04882812 C9.18753131 0.06065107 11.18557158 0.07858711 13.18359375 0.09765625 C12.796875 2.02294922 12.796875 2.02294922 12.18359375 4.09765625 C10.37109375 5.29296875 10.37109375 5.29296875 8.18359375 6.22265625 C5.02597177 7.43565413 5.02597177 7.43565413 3.18359375 10.09765625 C1.51692708 10.76432292 -0.14973958 11.43098958 -1.81640625 12.09765625 C-2.14640625 12.75765625 -2.47640625 13.41765625 -2.81640625 14.09765625 C-3.47640625 14.09765625 -4.13640625 14.09765625 -4.81640625 14.09765625 C-4.84326563 11.95188988 -4.86273713 9.8060298 -4.87890625 7.66015625 C-4.89050781 6.46519531 -4.90210937 5.27023438 -4.9140625 4.0390625 C-4.76748251 -0.37592684 -4.58410302 0.11730049 0 0 Z " fill="#6FD5E3" transform="translate(109.81640625,32.90234375)"/>
<path d="M0 0 C2.97 0 5.94 0 9 0 C9 2.31 9 4.62 9 7 C10.98 7 12.96 7 15 7 C14.125 10.875 14.125 10.875 13 12 C10.69098304 12.15179378 8.37632931 12.22181122 6.0625 12.25 C4.79535156 12.27578125 3.52820313 12.3015625 2.22265625 12.328125 C0.62744141 12.16570312 0.62744141 12.16570312 -1 12 C-1.66 11.01 -2.32 10.02 -3 9 C-2.34 8.67 -1.68 8.34 -1 8 C-1 7.01 -1 6.02 -1 5 C-0.68911632 3.32900023 -0.35919668 1.66128463 0 0 Z " fill="#7283FE" transform="translate(74,85)"/>
<path d="M0 0 C0.33 0 0.66 0 1 0 C1 4.62 1 9.24 1 14 C-3.62 14.33 -8.24 14.66 -13 15 C-13 14.01 -13 13.02 -13 12 C-13.99 12.495 -13.99 12.495 -15 13 C-15 9 -15 9 -12.8125 6.8125 C-10.06077695 5.03916737 -8.21628063 4.36757493 -5 4 C-6.32 5.32 -7.64 6.64 -9 8 C-6.49034386 7.29660434 -6.49034386 7.29660434 -4 6 C-3.11306697 3.95894361 -3.11306697 3.95894361 -3 2 C-5.64 2 -8.28 2 -11 2 C-11 1.67 -11 1.34 -11 1 C-9.54176788 0.9729957 -8.08339325 0.95360213 -6.625 0.9375 C-5.81289062 0.92589844 -5.00078125 0.91429688 -4.1640625 0.90234375 C-2 1 -2 1 0 2 C0 1.34 0 0.68 0 0 Z " fill="#768EFC" transform="translate(114,69)"/>
<path d="M0 0 C0.02685938 2.14576637 0.04633088 4.29162645 0.0625 6.4375 C0.07410156 7.63246094 0.08570312 8.82742187 0.09765625 10.05859375 C0 13 0 13 -1 14 C-3.35313555 14.07271741 -5.70833668 14.08370868 -8.0625 14.0625 C-9.35285156 14.05347656 -10.64320312 14.04445313 -11.97265625 14.03515625 C-12.97167969 14.02355469 -13.97070312 14.01195313 -15 14 C-15 13.34 -15 12.68 -15 12 C-14.34 12 -13.68 12 -13 12 C-12.87625 11.38125 -12.7525 10.7625 -12.625 10.125 C-12 8 -12 8 -10 6 C-9.34 6 -8.68 6 -8 6 C-6.31237149 4.3545622 -4.6459651 2.68711423 -3 1 C-1 0 -1 0 0 0 Z " fill="#39D7D7" transform="translate(123,100)"/>
<path d="M0 0 C1.32 0 2.64 0 4 0 C4 0.66 4 1.32 4 2 C5.32 1.67 6.64 1.34 8 1 C10 6.625 10 6.625 10 10 C9.01 10 8.02 10 7 10 C7 10.99 7 11.98 7 13 C6.01 13.33 5.02 13.66 4 14 C4 13.34 4 12.68 4 12 C2.35 12 0.7 12 -1 12 C-1.33 11.34 -1.66 10.68 -2 10 C-1.67 9.01 -1.34 8.02 -1 7 C-1.66 7 -2.32 7 -3 7 C-3 6.01 -3 5.02 -3 4 C-2.01 4 -1.02 4 0 4 C0 2.68 0 1.36 0 0 Z " fill="#EAF8FA" transform="translate(20,63)"/>
<path d="M0 0 C1.65 0.33 3.3 0.66 5 1 C5.02687279 2.81242052 5.04633715 4.62495233 5.0625 6.4375 C5.07410156 7.44683594 5.08570313 8.45617187 5.09765625 9.49609375 C5 12 5 12 4 13 C1.46950598 13.07313567 -1.03304837 13.09247527 -3.5625 13.0625 C-4.62887695 13.05573242 -4.62887695 13.05573242 -5.71679688 13.04882812 C-7.47790013 13.03700864 -9.23896036 13.01907263 -11 13 C-10.36449219 12.70738281 -9.72898437 12.41476563 -9.07421875 12.11328125 C-6.48923192 10.72585894 -6.01081589 9.72142741 -5 7 C-4.62331656 5.34259285 -4.27942455 3.67654729 -4 2 C-3.67 2.66 -3.34 3.32 -3 4 C-2.01 4 -1.02 4 0 4 C0 2.68 0 1.36 0 0 Z " fill="#36DEC4" transform="translate(130,50)"/>
<path d="M0 0 C1.01725914 0.00424484 1.01725914 0.00424484 2.05506897 0.00857544 C4.19445391 0.01965834 6.33340055 0.0447389 8.47265625 0.0703125 C9.93423869 0.08035774 11.39582778 0.08948087 12.85742188 0.09765625 C16.41680604 0.11955825 19.97593828 0.15400384 23.53515625 0.1953125 C23.53515625 1.5153125 23.53515625 2.8353125 23.53515625 4.1953125 C10.99515625 4.1953125 -1.54484375 4.1953125 -14.46484375 4.1953125 C-14.46484375 3.5353125 -14.46484375 2.8753125 -14.46484375 2.1953125 C-9.46818653 0.56823201 -5.3100298 -0.04406664 0 0 Z " fill="#3769BC" transform="translate(66.46484375,53.8046875)"/>
<path d="M0 0 C0.66 0.99 1.32 1.98 2 3 C3.65816784 3.68753301 5.32459336 4.35561283 7 5 C7.33 5.66 7.66 6.32 8 7 C0.41 7 -7.18 7 -15 7 C-14.67 6.01 -14.34 5.02 -14 4 C-12.68 4 -11.36 4 -10 4 C-9.566875 3.0409375 -9.566875 3.0409375 -9.125 2.0625 C-6.88597047 -2.04238748 -4.08343933 -1.02085983 0 0 Z " fill="#F9FDFD" transform="translate(123,39)"/>
<path d="M0 0 C2.95857409 -0.05379226 5.91617721 -0.09357093 8.875 -0.125 C9.71675781 -0.14175781 10.55851562 -0.15851562 11.42578125 -0.17578125 C12.23144531 -0.18222656 13.03710938 -0.18867187 13.8671875 -0.1953125 C14.98262939 -0.21102295 14.98262939 -0.21102295 16.12060547 -0.22705078 C18 0 18 0 20 2 C20.125 5.125 20.125 5.125 20 8 C19.01 8 18.02 8 17 8 C17 7.01 17 6.02 17 5 C11.39 5 5.78 5 0 5 C0 3.35 0 1.7 0 0 Z " fill="#34ACC5" transform="translate(98,49)"/>
<path d="M0 0 C1.32 0 2.64 0 4 0 C4 5.61 4 11.22 4 17 C4.99 17 5.98 17 7 17 C7 18.65 7 20.3 7 22 C4.69 22 2.38 22 0 22 C0 14.74 0 7.48 0 0 Z " fill="#41458F" transform="translate(26,80)"/>
<path d="M0 0 C0.66 0 1.32 0 2 0 C2.33 1.32 2.66 2.64 3 4 C5.97 4.33 8.94 4.66 12 5 C12 5.99 12 6.98 12 8 C11.34 8.66 10.68 9.32 10 10 C8.68 10 7.36 10 6 10 C6.33 10.99 6.66 11.98 7 13 C6.01 13 5.02 13 4 13 C3.67 13.66 3.34 14.32 3 15 C1.68 15 0.36 15 -1 15 C-1.02693575 12.87506859 -1.04636628 10.75004088 -1.0625 8.625 C-1.07410156 7.44164063 -1.08570312 6.25828125 -1.09765625 5.0390625 C-1 2 -1 2 0 0 Z " fill="#6C72FE" transform="translate(103,109)"/>
<path d="M0 0 C2.31 0 4.62 0 7 0 C7 2.97 7 5.94 7 9 C7.66 9.33 8.32 9.66 9 10 C7.7934375 10.3403125 7.7934375 10.3403125 6.5625 10.6875 C5.716875 11.120625 4.87125 11.55375 4 12 C3.10613836 14.54775306 3.10613836 14.54775306 3 17 C2.01 17.33 1.02 17.66 0 18 C0 12.06 0 6.12 0 0 Z " fill="#6B74FD" transform="translate(98,54)"/>
<path d="M0 0 C1.93166016 0.01740234 1.93166016 0.01740234 3.90234375 0.03515625 C5.19269531 0.04417969 6.48304687 0.05320312 7.8125 0.0625 C8.81152344 0.07410156 9.81054688 0.08570312 10.83984375 0.09765625 C9.90011719 0.78794922 9.90011719 0.78794922 8.94140625 1.4921875 C6.8353093 3.01718874 6.8353093 3.01718874 5.21484375 4.78515625 C3.83984375 6.09765625 3.83984375 6.09765625 1.83984375 6.09765625 C1.83984375 6.75765625 1.83984375 7.41765625 1.83984375 8.09765625 C1.20046875 8.36578125 0.56109375 8.63390625 -0.09765625 8.91015625 C-2.49147311 9.98433377 -2.49147311 9.98433377 -3.16015625 13.09765625 C-3.49015625 13.09765625 -3.82015625 13.09765625 -4.16015625 13.09765625 C-4.18702178 11.11856227 -4.20649 9.13936654 -4.22265625 7.16015625 C-4.23425781 6.05800781 -4.24585937 4.95585938 -4.2578125 3.8203125 C-4.11749553 -0.09172464 -3.97435676 0.12281696 0 0 Z " fill="#40C2EE" transform="translate(109.16015625,95.90234375)"/>
<path d="M0 0 C1.32 0 2.64 0 4 0 C4 6.6 4 13.2 4 20 C2.68 19.67 1.36 19.34 0 19 C0 12.73 0 6.46 0 0 Z " fill="#3E3E8B" transform="translate(115,63)"/>
<path d="M0 0 C1.32 0 2.64 0 4 0 C4 4.29 4 8.58 4 13 C2.02 13.99 2.02 13.99 0 15 C0 12.36 0 9.72 0 7 C-2.31 7 -4.62 7 -7 7 C-5.9024777 4.00675737 -5.32317108 3.15389099 -2.375 1.75 C-1.59125 1.5025 -0.8075 1.255 0 1 C0 0.67 0 0.34 0 0 Z " fill="#6761FF" transform="translate(123,89)"/>
<path d="M0 0 C0.33 1.32 0.66 2.64 1 4 C0.34 4 -0.32 4 -1 4 C-1 5.65 -1 7.3 -1 9 C-2.32 8.34 -3.64 7.68 -5 7 C-5 6.34 -5 5.68 -5 5 C-5.66 5 -6.32 5 -7 5 C-7 5.66 -7 6.32 -7 7 C-8.32 7.33 -9.64 7.66 -11 8 C-11.33 5.69 -11.66 3.38 -12 1 C-8.0186217 -0.3271261 -4.14954773 -0.06915913 0 0 Z " fill="#41BBDD" transform="translate(59,86)"/>
<path d="M0 0 C12.87 0 25.74 0 39 0 C39 0.66 39 1.32 39 2 C29.43 2 19.86 2 10 2 C10 2.66 10 3.32 10 4 C9.01 4 8.02 4 7 4 C7 3.34 7 2.68 7 2 C4.69 2 2.38 2 0 2 C0 1.34 0 0.68 0 0 Z " fill="#64D4E1" transform="translate(34,45)"/>
<path d="M0 0 C0 0.33 0 0.66 0 1 C-1.98 1 -3.96 1 -6 1 C-5.67 7.27 -5.34 13.54 -5 20 C-7.97 20 -10.94 20 -14 20 C-14 19.67 -14 19.34 -14 19 C-12.35 18.67 -10.7 18.34 -9 18 C-8.67 16.68 -8.34 15.36 -8 14 C-9.98 14 -11.96 14 -14 14 C-14 13.67 -14 13.34 -14 13 C-12.35 12.67 -10.7 12.34 -9 12 C-8.67 10.68 -8.34 9.36 -8 8 C-9.98 8 -11.96 8 -14 8 C-14 7.67 -14 7.34 -14 7 C-12.35 6.67 -10.7 6.34 -9 6 C-8.67 4.68 -8.34 3.36 -8 2 C-9.98 2 -11.96 2 -14 2 C-14 1.67 -14 1.34 -14 1 C-9.32798795 -0.20568053 -4.78503708 -0.09382426 0 0 Z " fill="#83D8E6" transform="translate(21,33)"/>
<path d="M0 0 C8.58 0 17.16 0 26 0 C25.67 0.99 25.34 1.98 25 3 C17.08 3 9.16 3 1 3 C0.67 2.01 0.34 1.02 0 0 Z " fill="#4C4CA0" transform="translate(101,124)"/>
<path d="M0 0 C1.23556641 0.01740234 1.23556641 0.01740234 2.49609375 0.03515625 C3.32238281 0.04417969 4.14867187 0.05320312 5 0.0625 C5.63808594 0.07410156 6.27617188 0.08570312 6.93359375 0.09765625 C6.60359375 2.07765625 6.27359375 4.05765625 5.93359375 6.09765625 C5.00546875 6.22140625 5.00546875 6.22140625 4.05859375 6.34765625 C1.74921808 6.91024084 1.74921808 6.91024084 0.68359375 9.16015625 C0.43609375 9.79953125 0.18859375 10.43890625 -0.06640625 11.09765625 C-1.05640625 11.09765625 -2.04640625 11.09765625 -3.06640625 11.09765625 C-3.09328776 9.45191059 -3.11274748 7.80604212 -3.12890625 6.16015625 C-3.14050781 5.24363281 -3.15210938 4.32710938 -3.1640625 3.3828125 C-3.03823137 0.4383641 -2.94124983 0.13900046 0 0 Z " fill="#4696EB" transform="translate(36.06640625,85.90234375)"/>
<path d="M0 0 C1.67542976 0.28604898 3.34385343 0.61781233 5 1 C5.95020028 3.99678551 6.46463605 6.06886936 5.0234375 8.95703125 C3.76294928 10.76667955 2.56254586 12.44206342 1 14 C0.34 14 -0.32 14 -1 14 C-1.02685938 11.85423363 -1.04633088 9.70837355 -1.0625 7.5625 C-1.07410156 6.36753906 -1.08570312 5.17257813 -1.09765625 3.94140625 C-1 1 -1 1 0 0 Z " fill="#34C6E0" transform="translate(106,33)"/>
<path d="M0 0 C0.66 0.33 1.32 0.66 2 1 C2.99 1.33 3.98 1.66 5 2 C5 1.34 5 0.68 5 0 C5.66 0 6.32 0 7 0 C8.38232443 1.62626404 9.71937515 3.2925002 11 5 C9.71034824 6.37562854 8.37310707 7.70766393 7 9 C6.34 9 5.68 9 5 9 C5 8.01 5 7.02 5 6 C2.52733235 6.34444881 2.52733235 6.34444881 0 7 C-0.33 7.66 -0.66 8.32 -1 9 C-1.66 9 -2.32 9 -3 9 C-2.01 6.03 -1.02 3.06 0 0 Z " fill="#4BCCD9" transform="translate(47,91)"/>
<path d="M0 0 C2.31 0 4.62 0 7 0 C7 1.65 7 3.3 7 5 C3.37 5 -0.26 5 -4 5 C-4 6.65 -4 8.3 -4 10 C-5.32 10 -6.64 10 -8 10 C-8 8.02 -8 6.04 -8 4 C-5.36 4 -2.72 4 0 4 C0 2.68 0 1.36 0 0 Z " fill="#3D418D" transform="translate(34,49)"/>
<path d="M0 0 C1.65322266 0.01740234 1.65322266 0.01740234 3.33984375 0.03515625 C4.99693359 0.04869141 4.99693359 0.04869141 6.6875 0.0625 C7.54214844 0.07410156 8.39679688 0.08570312 9.27734375 0.09765625 C8.27734375 2.09765625 8.27734375 2.09765625 5.27734375 4.09765625 C4.94734375 4.42765625 4.61734375 4.75765625 4.27734375 5.09765625 C2.09094922 5.17024571 -0.09766014 5.18139408 -2.28515625 5.16015625 C-4.08146484 5.14662109 -4.08146484 5.14662109 -5.9140625 5.1328125 C-6.84089844 5.12121094 -7.76773438 5.10960938 -8.72265625 5.09765625 C-8.72265625 4.43765625 -8.72265625 3.77765625 -8.72265625 3.09765625 C-7.91828125 2.78828125 -7.11390625 2.47890625 -6.28515625 2.16015625 C-1.1772017 0.04222388 -1.1772017 0.04222388 0 0 Z " fill="#665FFF" transform="translate(56.72265625,80.90234375)"/>
<path d="M0 0 C1.24716797 0.00322266 2.49433594 0.00644531 3.77929688 0.00976562 C5.07287109 0.01814453 6.36644531 0.02652344 7.69921875 0.03515625 C9.66858398 0.04192383 9.66858398 0.04192383 11.67773438 0.04882812 C14.91410885 0.06059676 18.15039053 0.07703865 21.38671875 0.09765625 C21.05671875 0.75765625 20.72671875 1.41765625 20.38671875 2.09765625 C19.73074707 2.11747559 19.07477539 2.13729492 18.39892578 2.15771484 C15.43610806 2.25278132 12.47401343 2.36253377 9.51171875 2.47265625 C7.96291016 2.5190625 7.96291016 2.5190625 6.3828125 2.56640625 C4.90361328 2.62441406 4.90361328 2.62441406 3.39453125 2.68359375 C2.4833252 2.71501465 1.57211914 2.74643555 0.63330078 2.77880859 C-1.81259311 2.89648136 -1.81259311 2.89648136 -3.61328125 5.09765625 C-6.34197532 5.06478042 -8.90994305 4.53367854 -11.61328125 4.09765625 C-11.61328125 3.10765625 -11.61328125 2.11765625 -11.61328125 1.09765625 C-7.68039761 0.16677716 -4.03673962 -0.0184326 0 0 Z " fill="#D9D9E8" transform="translate(106.61328125,125.90234375)"/>
<path d="M0 0 C3.375 -0.1875 3.375 -0.1875 7 0 C7.66 0.99 8.32 1.98 9 3 C8.27683594 3.61488281 8.27683594 3.61488281 7.5390625 4.2421875 C6.90742187 4.78101562 6.27578125 5.31984375 5.625 5.875 C4.99851562 6.40867187 4.37203125 6.94234375 3.7265625 7.4921875 C2.44163349 8.61432007 1.20628025 9.79371975 0 11 C0 7.37 0 3.74 0 0 Z " fill="#5935FF" transform="translate(102,86)"/>
<path d="M0 0 C7.92 0 15.84 0 24 0 C24.33 1.32 24.66 2.64 25 4 C24.01 4 23.02 4 22 4 C22 3.34 22 2.68 22 2 C14.74 2 7.48 2 0 2 C0 1.34 0 0.68 0 0 Z " fill="#49D6D3" transform="translate(73,45)"/>
<path d="M0 0 C0.66 0 1.32 0 2 0 C2.09765625 6.15234375 2.09765625 6.15234375 2 8 C1 9 1 9 -1.06640625 9.09765625 C-1.89011719 9.08605469 -2.71382813 9.07445313 -3.5625 9.0625 C-4.38878906 9.05347656 -5.21507813 9.04445313 -6.06640625 9.03515625 C-6.70449219 9.02355469 -7.34257813 9.01195313 -8 9 C-8 8.34 -8 7.68 -8 7 C-7.01 7 -6.02 7 -5 7 C-5 6.01 -5 5.02 -5 4 C-4.01 4 -3.02 4 -2 4 C-2 3.34 -2 2.68 -2 2 C-1.34 2 -0.68 2 0 2 C0 1.34 0 0.68 0 0 Z " fill="#37DEC7" transform="translate(121,105)"/>
<path d="M0 0 C0.99 0.33 1.98 0.66 3 1 C3 3.97 3 6.94 3 10 C0.69 10 -1.62 10 -4 10 C-3.34 9.34 -2.68 8.68 -2 8 C-2.3185177 5.89179203 -2.3185177 5.89179203 -3 4 C-2.34 4 -1.68 4 -1 4 C-0.67 2.68 -0.34 1.36 0 0 Z " fill="#7795FE" transform="translate(124,114)"/>
<path d="M0 0 C1.4540625 0.0309375 1.4540625 0.0309375 2.9375 0.0625 C4.9375 5.6875 4.9375 5.6875 4.9375 9.0625 C3.9475 9.0625 2.9575 9.0625 1.9375 9.0625 C1.9375 10.0525 1.9375 11.0425 1.9375 12.0625 C0.9475 12.3925 -0.0425 12.7225 -1.0625 13.0625 C-1.0625 12.4025 -1.0625 11.7425 -1.0625 11.0625 C-2.0525 10.7325 -3.0425 10.4025 -4.0625 10.0625 C-2.4125 9.0725 -0.7625 8.0825 0.9375 7.0625 C0.74278889 5.11250871 0.74278889 5.11250871 -0.0625 3.0625 C-2.0462767 1.77813266 -2.0462767 1.77813266 -4.0625 1.0625 C-3.0625 0.0625 -3.0625 0.0625 0 0 Z " fill="#EEF9FB" transform="translate(25.0625,63.9375)"/>
<path d="M0 0 C6.27 0 12.54 0 19 0 C19.33 2.31 19.66 4.62 20 7 C19.01 7 18.02 7 17 7 C17 6.34 17 5.68 17 5 C16.34 4.67 15.68 4.34 15 4 C14.41734375 3.66226563 13.8346875 3.32453125 13.234375 2.9765625 C10.52258452 1.79133939 8.19586807 1.58541915 5.25 1.375 C3.77273438 1.26285156 3.77273438 1.26285156 2.265625 1.1484375 C1.51796875 1.09945312 0.7703125 1.05046875 0 1 C0 0.67 0 0.34 0 0 Z " fill="#86DBE4" transform="translate(7,58)"/>
<path d="M0 0 C3.3 0 6.6 0 10 0 C8.74458443 2.51083114 7.49936512 2.87125446 5 4 C5 4.66 5 5.32 5 6 C2.5 7.625 2.5 7.625 0 9 C0 6.03 0 3.06 0 0 Z " fill="#3DBBDD" transform="translate(105,54)"/>
<path d="M0 0 C2.31 0 4.62 0 7 0 C7 1.98 7 3.96 7 6 C4.69 6 2.38 6 0 6 C0 4.02 0 2.04 0 0 Z " fill="#A2C3FE" transform="translate(91,85)"/>
<path d="M0 0 C2.31 0 4.62 0 7 0 C7 1.98 7 3.96 7 6 C4.69 6 2.38 6 0 6 C0 4.02 0 2.04 0 0 Z " fill="#A2C2FF" transform="translate(74,85)"/>
<path d="M0 0 C0 1.98 0 3.96 0 6 C-3.96 6 -7.92 6 -12 6 C-10.58912765 3.17825529 -8.92133047 3.06230199 -6 2 C-5.0925 1.62875 -4.185 1.2575 -3.25 0.875 C-1 0 -1 0 0 0 Z " fill="#35DBC4" transform="translate(34,74)"/>
<path d="M0 0 C2.64 0 5.28 0 8 0 C7.67 1.98 7.34 3.96 7 6 C4.69 5.67 2.38 5.34 0 5 C0 3.35 0 1.7 0 0 Z " fill="#3DB3DF" transform="translate(26,59)"/>
<path d="M0 0 C0.80566406 0.04833984 1.61132812 0.09667969 2.44140625 0.14648438 C3.28316406 0.20255859 4.12492187 0.25863281 4.9921875 0.31640625 C6.26642578 0.3947168 6.26642578 0.3947168 7.56640625 0.47460938 C9.66697874 0.60442003 11.76712941 0.74102365 13.8671875 0.87890625 C13.8671875 1.53890625 13.8671875 2.19890625 13.8671875 2.87890625 C7.2671875 2.87890625 0.6671875 2.87890625 -6.1328125 2.87890625 C-6.1328125 2.21890625 -6.1328125 1.55890625 -6.1328125 0.87890625 C-3.77622853 -0.29938574 -2.60708014 -0.16523747 0 0 Z " fill="#87B4FE" transform="translate(80.1328125,118.12109375)"/>
<path d="M0 0 C0.7734375 0.7115625 0.7734375 0.7115625 1.5625 1.4375 C4.66782675 3.42809407 7.36632504 3.65060818 11 4 C11 4.66 11 5.32 11 6 C5.39 6 -0.22 6 -6 6 C-6 5.34 -6 4.68 -6 4 C-4.02 4 -2.04 4 0 4 C0 2.68 0 1.36 0 0 Z " fill="#7BD8E1" transform="translate(13,71)"/>
<path d="M0 0 C3.625 0.125 3.625 0.125 6.625 1.125 C6.625 1.785 6.625 2.445 6.625 3.125 C3.66642591 3.17879226 0.70882279 3.21857093 -2.25 3.25 C-3.51263672 3.27513672 -3.51263672 3.27513672 -4.80078125 3.30078125 C-5.60644531 3.30722656 -6.41210938 3.31367187 -7.2421875 3.3203125 C-7.98581543 3.33078613 -8.72944336 3.34125977 -9.49560547 3.35205078 C-11.375 3.125 -11.375 3.125 -13.375 1.125 C-12.73691406 1.13660156 -12.09882812 1.14820312 -11.44140625 1.16015625 C-10.61511719 1.16917969 -9.78882813 1.17820312 -8.9375 1.1875 C-7.70193359 1.20490234 -7.70193359 1.20490234 -6.44140625 1.22265625 C-3.46104525 1.08180743 -3.44933027 0.12775297 0 0 Z " fill="#A0C4FE" transform="translate(67.375,117.875)"/>
<path d="M0 0 C4.29 0 8.58 0 13 0 C13 0.99 13 1.98 13 3 C9.04 3 5.08 3 1 3 C0.67 2.01 0.34 1.02 0 0 Z " fill="#4DD3D6" transform="translate(33,102)"/>
<path d="M0 0 C1.65 0 3.3 0 5 0 C5 1.32 5 2.64 5 4 C2.59454362 5.20272819 1.05003047 5.10071472 -1.625 5.0625 C-2.85089844 5.04896484 -2.85089844 5.04896484 -4.1015625 5.03515625 C-5.04128906 5.01775391 -5.04128906 5.01775391 -6 5 C-6 4.34 -6 3.68 -6 3 C-5.01 2.67 -4.02 2.34 -3 2 C-2.34 2.33 -1.68 2.66 -1 3 C-0.67 2.01 -0.34 1.02 0 0 Z " fill="#37C2C6" transform="translate(47,97)"/>
<path d="M0 0 C1.37478516 0.01740234 1.37478516 0.01740234 2.77734375 0.03515625 C3.69644531 0.04417969 4.61554688 0.05320312 5.5625 0.0625 C6.27277344 0.07410156 6.98304687 0.08570312 7.71484375 0.09765625 C4.71484375 2.09765625 4.71484375 2.09765625 1.71484375 2.09765625 C1.71484375 2.75765625 1.71484375 3.41765625 1.71484375 4.09765625 C0.04817708 5.76432292 -1.61848958 7.43098958 -3.28515625 9.09765625 C-3.3828125 2.9453125 -3.3828125 2.9453125 -3.28515625 1.09765625 C-2.28515625 0.09765625 -2.28515625 0.09765625 0 0 Z " fill="#45B4F5" transform="translate(108.28515625,95.90234375)"/>
<path d="M0 0 C0.33 0 0.66 0 1 0 C1 1.65 1 3.3 1 5 C5.29 5 9.58 5 14 5 C14 5.33 14 5.66 14 6 C9.03926578 7.32286246 4.08888488 7.08893197 -1 7 C-1.33 5.35 -1.66 3.7 -2 2 C-1.34 2 -0.68 2 0 2 C0 1.34 0 0.68 0 0 Z " fill="#3DB3DF" transform="translate(43,73)"/>
<path d="M0 0 C1.98 0 3.96 0 6 0 C6 1.98 6 3.96 6 6 C4.02 6 2.04 6 0 6 C0 4.02 0 2.04 0 0 Z " fill="#A6C7FF" transform="translate(83,85)"/>
<path d="M0 0 C2.31 0 4.62 0 7 0 C7 1.65 7 3.3 7 5 C4.69 5 2.38 5 0 5 C0 3.35 0 1.7 0 0 Z " fill="#3C3E8A" transform="translate(98,49)"/>
<path d="M0 0 C6.6 0 13.2 0 20 0 C20 0.99 20 1.98 20 3 C13.4 2.34 6.8 1.68 0 1 C0 0.67 0 0.34 0 0 Z " fill="#41D1D8" transform="translate(14,32)"/>
<path d="M0 0 C1.32 0 2.64 0 4 0 C4 1.32 4 2.64 4 4 C3.071875 4.12375 3.071875 4.12375 2.125 4.25 C-0.18437567 4.81258459 -0.18437567 4.81258459 -1.25 7.0625 C-1.4975 7.701875 -1.745 8.34125 -2 9 C-2.99 9 -3.98 9 -5 9 C-4.42558597 5.12270528 -2.70745361 2.78480942 0 0 Z " fill="#43A9E6" transform="translate(38,88)"/>
<path d="M0 0 C0.33 0 0.66 0 1 0 C1 2.31 1 4.62 1 7 C0.01 7 -0.98 7 -2 7 C-2.33 7.66 -2.66 8.32 -3 9 C-4.25664978 6.09399739 -5 4.20395416 -5 1 C-2.525 1.495 -2.525 1.495 0 2 C0 1.34 0 0.68 0 0 Z " fill="#47C9D6" transform="translate(33,63)"/>
<path d="M0 0 C0.99 0 1.98 0 3 0 C3 3.96 3 7.92 3 12 C2.01 11.67 1.02 11.34 0 11 C0 7.37 0 3.74 0 0 Z " fill="#3B95D7" transform="translate(41,49)"/>
<path d="M0 0 C7.92 0.33 15.84 0.66 24 1 C24 1.33 24 1.66 24 2 C19.38 2 14.76 2 10 2 C10 2.66 10 3.32 10 4 C9.01 4 8.02 4 7 4 C7 3.34 7 2.68 7 2 C4.69 2 2.38 2 0 2 C0 1.34 0 0.68 0 0 Z " fill="#8CD7E7" transform="translate(34,45)"/>
<path d="M0 0 C0 0.66 0 1.32 0 2 C-0.66 2 -1.32 2 -2 2 C-2 3.65 -2 5.3 -2 7 C-3.32 6.34 -4.64 5.68 -6 5 C-6 4.01 -6 3.02 -6 2 C-6.66 1.67 -7.32 1.34 -8 1 C-3.375 -1.125 -3.375 -1.125 0 0 Z " fill="#40C8D6" transform="translate(60,88)"/>
<path d="M0 0 C0.99 0.99 1.98 1.98 3 3 C3.99 2.67 4.98 2.34 6 2 C5.34 3.65 4.68 5.3 4 7 C-1.75 6.25 -1.75 6.25 -4 4 C-3.01 3.67 -2.02 3.34 -1 3 C-0.67 2.01 -0.34 1.02 0 0 Z " fill="#35CED8" transform="translate(123,33)"/>
<path d="M0 0 C0 2.97 0 5.94 0 9 C-1.98 9.99 -1.98 9.99 -4 11 C-4.3682455 3.51234156 -4.3682455 3.51234156 -2.5625 1 C-1 0 -1 0 0 0 Z " fill="#6B70FE" transform="translate(127,93)"/>
<path d="M0 0 C0.66 0 1.32 0 2 0 C2.04241723 2.33294775 2.04092937 4.66702567 2 7 C1 8 1 8 -2.0625 8.0625 C-3.031875 8.041875 -4.00125 8.02125 -5 8 C-4.360625 7.236875 -3.72125 6.47375 -3.0625 5.6875 C-0.85767219 3.11753287 -0.85767219 3.11753287 0 0 Z " fill="#36E0C0" transform="translate(58,97)"/>
<path d="M0 0 C1.67542976 0.28604898 3.34385343 0.61781233 5 1 C4.67 2.32 4.34 3.64 4 5 C2.68 5.33 1.36 5.66 0 6 C-0.38218767 4.34385343 -0.71395102 2.67542976 -1 1 C-0.67 0.67 -0.34 0.34 0 0 Z " fill="#51D1DC" transform="translate(22,67)"/>
<path d="M0 0 C6.75 0.75 6.75 0.75 9 3 C8 4 8 4 5.93359375 4.09765625 C5.10988281 4.08605469 4.28617188 4.07445312 3.4375 4.0625 C2.61121094 4.05347656 1.78492188 4.04445313 0.93359375 4.03515625 C0.29550781 4.02355469 -0.34257812 4.01195312 -1 4 C-0.67 2.68 -0.34 1.36 0 0 Z " fill="#32C7DE" transform="translate(14,59)"/>
<path d="M0 0 C0.66 0 1.32 0 2 0 C2 1.65 2 3.3 2 5 C2.99 5.33 3.98 5.66 5 6 C4.01 6.99 3.02 7.98 2 9 C-1.875 7.25 -1.875 7.25 -3 5 C-2.01 5 -1.02 5 0 5 C0 3.35 0 1.7 0 0 Z " fill="#F2FBFC" transform="translate(119,52)"/>
<path d="M0 0 C0.99 0 1.98 0 3 0 C2.125 4.875 2.125 4.875 1 6 C-0.99958364 6.04080783 -3.00045254 6.04254356 -5 6 C-4.34 5.01 -3.68 4.02 -3 3 C-2.01 3 -1.02 3 0 3 C0 2.01 0 1.02 0 0 Z " fill="#6153FE" transform="translate(115,90)"/>
<path d="M0 0 C0.99 0.33 1.98 0.66 3 1 C3.6875 3.0625 3.6875 3.0625 4 5 C1.36 5 -1.28 5 -4 5 C-3.34 4.67 -2.68 4.34 -2 4 C-0.86649466 1.98330173 -0.86649466 1.98330173 0 0 Z " fill="#BDD6FE" transform="translate(82,113)"/>
<path d="M0 0 C0.66 0 1.32 0 2 0 C2.79953138 3.28696233 3.09658936 4.71023192 2 8 C1.01 8 0.02 8 -1 8 C-1.125 2.25 -1.125 2.25 0 0 Z " fill="#6762FF" transform="translate(103,109)"/>
<path d="M0 0 C2.31 0 4.62 0 7 0 C7 0.66 7 1.32 7 2 C6.01 2 5.02 2 4 2 C4 2.66 4 3.32 4 4 C2.68 4 1.36 4 0 4 C0 2.68 0 1.36 0 0 Z " fill="#3ECAE0" transform="translate(13,65)"/>
<path d="M0 0 C0.66 0 1.32 0 2 0 C2.6875 1.8125 2.6875 1.8125 3 4 C1.875 5.75 1.875 5.75 0 7 C-2.6875 7.1875 -2.6875 7.1875 -5 7 C-3.74458443 4.48916886 -2.49936512 4.12874554 0 3 C0 2.01 0 1.02 0 0 Z " fill="#42D7D1" transform="translate(123,55)"/>
<path d="M0 0 C1.21346851 3.64040554 1.21346851 5.35959446 0 9 C-1.32 7.35 -2.64 5.7 -4 4 C-2.68 2.68 -1.36 1.36 0 0 Z " fill="#E1F2F8" transform="translate(39,91)"/>
<path d="M0 0 C1.32 0 2.64 0 4 0 C4 1.65 4 3.3 4 5 C2.68 5 1.36 5 0 5 C0 3.35 0 1.7 0 0 Z " fill="#35ADC6" transform="translate(26,59)"/>
<path d="M0 0 C0.66 0.33 1.32 0.66 2 1 C0.515 4.96 0.515 4.96 -1 9 C-1.66 9 -2.32 9 -3 9 C-2.01 6.03 -1.02 3.06 0 0 Z " fill="#EEF8FA" transform="translate(47,91)"/>
<path d="M0 0 C2.97 0 5.94 0 9 0 C9 1.65 9 3.3 9 5 C8.67 4.34 8.34 3.68 8 3 C7.01 3 6.02 3 5 3 C5 2.34 5 1.68 5 1 C3.35 1 1.7 1 0 1 C0 0.67 0 0.34 0 0 Z " fill="#5B4CF2" transform="translate(110,87)"/>
<path d="M0 0 C0 0.66 0 1.32 0 2 C-2.64 2 -5.28 2 -8 2 C-8.33 1.34 -8.66 0.68 -9 0 C-5.62182575 -0.84454356 -3.32534757 -1.10844919 0 0 Z " fill="#95BDFE" transform="translate(74,119)"/>
<path d="M0 0 C1.4540625 0.0309375 1.4540625 0.0309375 2.9375 0.0625 C3.2675 1.0525 3.5975 2.0425 3.9375 3.0625 C3.2775 3.7225 2.6175 4.3825 1.9375 5.0625 C1.2775 4.4025 0.6175 3.7425 -0.0625 3.0625 C-1.37997324 2.36501417 -2.71164193 1.69290043 -4.0625 1.0625 C-3.0625 0.0625 -3.0625 0.0625 0 0 Z " fill="#FBFDFD" transform="translate(25.0625,63.9375)"/>
<path d="M0 0 C0 1.98 0 3.96 0 6 C-0.99 6 -1.98 6 -3 6 C-3.33 4.35 -3.66 2.7 -4 1 C-2 0 -2 0 0 0 Z " fill="#34BEC6" transform="translate(118,51)"/>
<path d="M0 0 C1.65 0.99 3.3 1.98 5 3 C3.625 5 3.625 5 2 7 C1.34 7 0.68 7 0 7 C0.2784375 6.1028125 0.2784375 6.1028125 0.5625 5.1875 C1.22093687 2.83591238 1.22093687 2.83591238 0 0 Z " fill="#EAF8FA" transform="translate(53,92)"/>
<path d="M0 0 C2.475 0.495 2.475 0.495 5 1 C5 1.33 5 1.66 5 2 C3.35 2 1.7 2 0 2 C0 1.34 0 0.68 0 0 Z " fill="#EAEAF1" transform="translate(7,81)"/>
</svg>
