<?xml version="1.0" encoding="UTF-8"?>
<svg version="1.1" xmlns="http://www.w3.org/2000/svg" width="150" height="150">
<path d="M0 0 C3.3 0 6.6 0 10 0 C10 1.98 10 3.96 10 6 C15.55493924 7.02703748 15.55493924 7.02703748 21 6 C21.433125 7.134375 21.86625 8.26875 22.3125 9.4375 C23.3061169 11.45153786 23.3061169 11.45153786 25 13 C27.93713773 13.71501749 30.6179844 13.87371097 33.63671875 13.9296875 C36 14 36 14 37 15 C37.08748207 16.92667507 37.10697334 18.85651861 37.09765625 20.78515625 C37.09282227 22.53989258 37.09282227 22.53989258 37.08789062 24.33007812 C37.07532227 26.17762695 37.07532227 26.17762695 37.0625 28.0625 C37.05798828 29.29806641 37.05347656 30.53363281 37.04882812 31.80664062 C37.03699608 34.87114117 37.02051173 37.93554721 37 41 C38.98 41 40.96 41 43 41 C43.99 43.475 43.99 43.475 45 46 C44.34 46 43.68 46 43 46 C43.5878125 47.8871875 43.5878125 47.8871875 44.1875 49.8125 C44.75390625 52.01953125 44.75390625 52.01953125 45 54 C43.625 56 43.625 56 42 57 C41.01 56.67 40.02 56.34 39 56 C38.34 57.32 37.68 58.64 37 60 C35.02 60 33.04 60 31 60 C30.01 58.02 30.01 58.02 29 56 C27.68 56.33 26.36 56.66 25 57 C23.23937836 53.67438135 22.89215772 52.40826005 23.875 48.6875 C24.431875 47.3571875 24.431875 47.3571875 25 46 C24.34 46 23.68 46 23 46 C23 45.34 23 44.68 23 44 C22.34 44 21.68 44 21 44 C21 50.6 21 57.2 21 64 C23.31 64 25.62 64 28 64 C29 65 29 65 29.11352539 68.96899414 C29.1133662 70.74105607 29.10766785 72.5131226 29.09765625 74.28515625 C29.0962413 75.21597519 29.09482635 76.14679413 29.09336853 77.1058197 C29.08775172 80.09141191 29.0751964 83.07693029 29.0625 86.0625 C29.05748716 88.08137913 29.05292388 90.10025943 29.04882812 92.11914062 C29.03777683 97.07945572 29.02050095 102.03971532 29 107 C31.31 107.66 33.62 108.32 36 109 C35 111 35 111 33.34521484 111.61450195 C28.49200924 112.41225457 23.54404055 112.18590312 18.63769531 112.18530273 C16.63863013 112.18748512 14.63960468 112.20599143 12.640625 112.22460938 C11.36960937 112.22654297 10.09859375 112.22847656 8.7890625 112.23046875 C7.63100098 112.23457764 6.47293945 112.23868652 5.27978516 112.24291992 C1.88689046 111.99162245 -0.83332989 111.21173908 -4 110 C-3.67 109.34 -3.34 108.68 -3 108 C-0.4375 107.375 -0.4375 107.375 2 107 C1.32142944 106.99191315 0.64285889 106.98382629 -0.05627441 106.97549438 C-7.19572947 106.88863335 -14.33493245 106.7891071 -21.47412109 106.68261719 C-24.12938188 106.64363425 -26.7845665 106.60971702 -29.43994141 106.578125 C-67.93926359 106.11445232 -67.93926359 106.11445232 -75 102 C-74.505 101.54625 -74.01 101.0925 -73.5 100.625 C-71.77390663 99.12364481 -71.77390663 99.12364481 -72 97 C-74.41645782 96.83312552 -74.41645782 96.83312552 -77 97 C-77.99 97.99 -77.99 97.99 -79 99 C-80.9375 98.875 -80.9375 98.875 -83 98 C-84.75 95.9375 -84.75 95.9375 -86 94 C-85.34 93.01 -84.68 92.02 -84 91 C-84.66868314 87.88667752 -84.66868314 87.88667752 -87.0625 86.8125 C-87.701875 86.544375 -88.34125 86.27625 -89 86 C-88.67 83.69 -88.34 81.38 -88 79 C-85.03 78.01 -85.03 78.01 -82 77 C-82 75.02 -82 73.04 -82 71 C-78.535 70.01 -78.535 70.01 -75 69 C-74.67 70.32 -74.34 71.64 -74 73 C-73.34 73 -72.68 73 -72 73 C-72 69.04 -72 65.08 -72 61 C-76.29 61 -80.58 61 -85 61 C-85.02683436 57.68744674 -85.0467578 54.37510817 -85.0625 51.0625 C-85.07087891 50.11697266 -85.07925781 49.17144531 -85.08789062 48.19726562 C-85.09111328 47.29814453 -85.09433594 46.39902344 -85.09765625 45.47265625 C-85.10289307 44.64000244 -85.10812988 43.80734863 -85.11352539 42.94946289 C-85 41 -85 41 -84 40 C-81.98035801 39.92755947 -79.95832876 39.91622812 -77.9375 39.9375 C-76.28041016 39.95103516 -76.28041016 39.95103516 -74.58984375 39.96484375 C-73.73519531 39.97644531 -72.88054687 39.98804688 -72 40 C-72.061875 38.906875 -72.12375 37.81375 -72.1875 36.6875 C-72 33 -72 33 -70.90625 31.28125 C-68.05864657 29.36728704 -65.69628509 29.71199153 -62.3125 29.8125 C-61.13300781 29.83957031 -59.95351563 29.86664063 -58.73828125 29.89453125 C-57.83464844 29.92933594 -56.93101563 29.96414062 -56 30 C-56 28.68 -56 27.36 -56 26 C-54.77893555 25.98018066 -53.55787109 25.96036133 -52.29980469 25.93994141 C-47.76720646 25.86383877 -43.2349273 25.77512839 -38.70263672 25.68261719 C-36.7414378 25.64434673 -34.78016916 25.60949046 -32.81884766 25.578125 C-29.99877003 25.5324326 -27.17917162 25.474445 -24.359375 25.4140625 C-23.04510529 25.39673569 -23.04510529 25.39673569 -21.70428467 25.37905884 C-20.88373596 25.35918915 -20.06318726 25.33931946 -19.21777344 25.31884766 C-18.49829529 25.30552399 -17.77881714 25.29220032 -17.03753662 25.2784729 C-14.69844524 24.9587861 -13.04472763 24.15410784 -11 23 C-10.66602213 20.12586875 -10.66602213 20.12586875 -11 17 C-12.88077873 15.08743288 -12.88077873 15.08743288 -15 14 C-13.87548273 11.0280615 -12.77706209 8.66559313 -11 6 C-9.39125 6.2784375 -9.39125 6.2784375 -7.75 6.5625 C-4.59608454 6.9304568 -2.90181508 7.04465343 0 6 C0 4.02 0 2.04 0 0 Z M-2 13 C-4.2084626 16.31269391 -4.80664241 18.14978851 -4.5546875 22.0625 C-3.4812192 25.81207941 -1.28696911 27.01541488 2 29 C4.63836977 29.1672392 4.63836977 29.1672392 7 29 C7.03738281 28.01257813 7.07476562 27.02515625 7.11328125 26.0078125 C7.17902344 24.72648437 7.24476562 23.44515625 7.3125 22.125 C7.37050781 20.84882812 7.42851563 19.57265625 7.48828125 18.2578125 C7.65714844 17.18273437 7.82601562 16.10765625 8 15 C8.99 14.34 9.98 13.68 11 13 C9.01607489 10.60148679 9.01607489 10.60148679 5.1875 10.5625 C1.82266671 10.66669338 0.95629969 11.02913354 -2 13 Z M29 46 C28.6366844 48.83386167 28.6431329 50.40522151 30.125 52.875 C32.92151052 54.55290631 34.93690532 53.74875648 38 53 C38.67673447 49.59679066 38.67673447 49.59679066 39 46 C37.11499729 43.68436913 37.11499729 43.68436913 34 43.75 C30.88500271 43.68436913 30.88500271 43.68436913 29 46 Z M-78.25 79.625 C-80.21985834 81.92308586 -80.21985834 81.92308586 -80.5 85 C-80.21376982 88.06575838 -80.21376982 88.06575838 -78.3125 90.375 C-75.61209763 92.27258004 -74.22939919 92.35882213 -71 92 C-70.85024761 84.94348748 -70.85024761 84.94348748 -72 78 C-75.92212225 77.60967296 -75.92212225 77.60967296 -78.25 79.625 Z M-65 94 C-64.67 95.65 -64.34 97.3 -64 99 C-51.13 98.01 -51.13 98.01 -38 97 C-37.67 96.01 -37.34 95.02 -37 94 C-46.24 94 -55.48 94 -65 94 Z M-13 94 C-13 94.99 -13 95.98 -13 97 C-7.72 97.33 -2.44 97.66 3 98 C3 96.68 3 95.36 3 94 C-2.28 94 -7.56 94 -13 94 Z " fill="#7182FE" transform="translate(98,19)"/>
<path d="M0 0 C0.74170944 -0.00043808 1.48341888 -0.00087616 2.24760437 -0.00132751 C4.69894749 0.00076235 7.14960646 0.02410198 9.60083008 0.04760742 C11.30047736 0.05320269 13.00012948 0.05747312 14.69978333 0.06047058 C19.17318074 0.07192483 23.64628592 0.1013969 28.11956787 0.13458252 C32.68424527 0.16527096 37.24896988 0.17897329 41.8137207 0.1940918 C50.7702293 0.22626612 59.72652101 0.27746943 68.68286133 0.34057617 C68.73685119 2.61114994 68.77564874 4.88208905 68.80786133 7.15307617 C68.83106445 8.41764648 68.85426758 9.6822168 68.87817383 10.98510742 C68.68286133 14.34057617 68.68286133 14.34057617 66.68286133 17.34057617 C64.80786133 17.90307617 64.80786133 17.90307617 62.68286133 18.34057617 C59.5068358 19.55008459 59.5068358 19.55008459 57.74536133 22.34057617 C56.68286133 24.34057617 56.68286133 24.34057617 54.12036133 25.34057617 C53.31598633 25.67057617 52.51161133 26.00057617 51.68286133 26.34057617 C50.92055338 28.22236827 50.92055338 28.22236827 50.68286133 30.34057617 C49.87036133 32.52807617 49.87036133 32.52807617 48.68286133 34.34057617 C46.55786133 35.09057617 46.55786133 35.09057617 44.68286133 35.34057617 C44.35286133 37.32057617 44.02286133 39.30057617 43.68286133 41.34057617 C42.66192383 41.43338867 42.66192383 41.43338867 41.62036133 41.52807617 C37.71437418 42.42753689 37.71437418 42.42753689 31.68286133 47.34057617 C48.01786133 47.83557617 48.01786133 47.83557617 64.68286133 48.34057617 C64.68286133 49.99057617 64.68286133 51.64057617 64.68286133 53.34057617 C51.15286133 53.34057617 37.62286133 53.34057617 23.68286133 53.34057617 C23.35286133 54.33057617 23.02286133 55.32057617 22.68286133 56.34057617 C14.43286133 56.34057617 6.18286133 56.34057617 -2.31713867 56.34057617 C-2.64713867 55.35057617 -2.97713867 54.36057617 -3.31713867 53.34057617 C-5.62713867 53.34057617 -7.93713867 53.34057617 -10.31713867 53.34057617 C-10.31713867 46.08057617 -10.31713867 38.82057617 -10.31713867 31.34057617 C-14.60713867 31.34057617 -18.89713867 31.34057617 -23.31713867 31.34057617 C-23.34397304 28.02802291 -23.36389647 24.71568434 -23.37963867 21.40307617 C-23.38801758 20.45754883 -23.39639648 19.51202148 -23.4050293 18.5378418 C-23.40825195 17.6387207 -23.41147461 16.73959961 -23.41479492 15.81323242 C-23.42003174 14.98057861 -23.42526855 14.1479248 -23.43066406 13.29003906 C-23.31713867 11.34057617 -23.31713867 11.34057617 -22.31713867 10.34057617 C-20.29749668 10.26813564 -18.27546744 10.25680429 -16.25463867 10.27807617 C-14.59754883 10.29161133 -14.59754883 10.29161133 -12.90698242 10.30541992 C-12.05233398 10.31702148 -11.19768555 10.32862305 -10.31713867 10.34057617 C-10.37901367 9.24745117 -10.44088867 8.15432617 -10.50463867 7.02807617 C-10.31713867 3.34057617 -10.31713867 3.34057617 -9.26274109 1.63139343 C-6.32767959 -0.31588419 -3.40261504 -0.05243832 0 0 Z " fill="#604FFE" transform="translate(36.317138671875,48.659423828125)"/>
<path d="M0 0 C3.3 0 6.6 0 10 0 C10 1.98 10 3.96 10 6 C15.55493924 7.02703748 15.55493924 7.02703748 21 6 C21.433125 7.134375 21.86625 8.26875 22.3125 9.4375 C23.3061169 11.45153786 23.3061169 11.45153786 25 13 C27.93713773 13.71501749 30.6179844 13.87371097 33.63671875 13.9296875 C36 14 36 14 37 15 C37.08748207 16.92667507 37.10697334 18.85651861 37.09765625 20.78515625 C37.09282227 22.53989258 37.09282227 22.53989258 37.08789062 24.33007812 C37.07532227 26.17762695 37.07532227 26.17762695 37.0625 28.0625 C37.05798828 29.29806641 37.05347656 30.53363281 37.04882812 31.80664062 C37.03699608 34.87114117 37.02051173 37.93554721 37 41 C38.98 41 40.96 41 43 41 C43.99 43.475 43.99 43.475 45 46 C44.34 46 43.68 46 43 46 C43.5878125 47.8871875 43.5878125 47.8871875 44.1875 49.8125 C44.75390625 52.01953125 44.75390625 52.01953125 45 54 C43.625 56 43.625 56 42 57 C40.515 56.505 40.515 56.505 39 56 C38.34 57.32 37.68 58.64 37 60 C35.02 60 33.04 60 31 60 C30.01 58.02 30.01 58.02 29 56 C27.68 56.33 26.36 56.66 25 57 C23.23937836 53.67438135 22.89215772 52.40826005 23.875 48.6875 C24.431875 47.3571875 24.431875 47.3571875 25 46 C24.34 46 23.68 46 23 46 C23 45.34 23 44.68 23 44 C17.72 44 12.44 44 7 44 C7 39.38 7 34.76 7 30 C5.41638672 30.24447876 5.41638672 30.24447876 3.80078125 30.49389648 C-2.06093279 31.22219486 -7.91447709 31.12385889 -13.8125 31.09765625 C-15.02196289 31.0962413 -16.23142578 31.09482635 -17.47753906 31.09336853 C-21.31838515 31.08779709 -25.1591717 31.07524984 -29 31.0625 C-31.6132804 31.05748131 -34.22656173 31.05291905 -36.83984375 31.04882812 C-43.22658261 31.03783702 -49.61328705 31.02112743 -56 31 C-56 29.35 -56 27.7 -56 26 C-54.77893555 25.98018066 -53.55787109 25.96036133 -52.29980469 25.93994141 C-47.76720646 25.86383877 -43.2349273 25.77512839 -38.70263672 25.68261719 C-36.7414378 25.64434673 -34.78016916 25.60949046 -32.81884766 25.578125 C-29.99877003 25.5324326 -27.17917162 25.474445 -24.359375 25.4140625 C-23.48319519 25.40251129 -22.60701538 25.39096008 -21.70428467 25.37905884 C-20.88373596 25.35918915 -20.06318726 25.33931946 -19.21777344 25.31884766 C-18.49829529 25.30552399 -17.77881714 25.29220032 -17.03753662 25.2784729 C-14.69844524 24.9587861 -13.04472763 24.15410784 -11 23 C-10.66602213 20.12586875 -10.66602213 20.12586875 -11 17 C-12.88077873 15.08743288 -12.88077873 15.08743288 -15 14 C-13.87548273 11.0280615 -12.77706209 8.66559313 -11 6 C-9.9275 6.185625 -8.855 6.37125 -7.75 6.5625 C-4.59608454 6.9304568 -2.90181508 7.04465343 0 6 C0 4.02 0 2.04 0 0 Z M-2 13 C-4.2084626 16.31269391 -4.80664241 18.14978851 -4.5546875 22.0625 C-3.4812192 25.81207941 -1.28696911 27.01541488 2 29 C4.63836977 29.1672392 4.63836977 29.1672392 7 29 C7.03738281 28.01257813 7.07476562 27.02515625 7.11328125 26.0078125 C7.17902344 24.72648437 7.24476562 23.44515625 7.3125 22.125 C7.37050781 20.84882812 7.42851563 19.57265625 7.48828125 18.2578125 C7.65714844 17.18273437 7.82601562 16.10765625 8 15 C8.99 14.34 9.98 13.68 11 13 C9.01607489 10.60148679 9.01607489 10.60148679 5.1875 10.5625 C1.82266671 10.66669338 0.95629969 11.02913354 -2 13 Z M29 46 C28.6366844 48.83386167 28.6431329 50.40522151 30.125 52.875 C32.92151052 54.55290631 34.93690532 53.74875648 38 53 C38.67673447 49.59679066 38.67673447 49.59679066 39 46 C37.11499729 43.68436913 37.11499729 43.68436913 34 43.75 C30.88500271 43.68436913 30.88500271 43.68436913 29 46 Z " fill="#5DD1E0" transform="translate(98,19)"/>
<path d="M0 0 C0.33 1.32 0.66 2.64 1 4 C1.66 4 2.32 4 3 4 C3 5.65 3 7.3 3 9 C2.030625 9.28875 1.06125 9.5775 0.0625 9.875 C-3.10664203 10.64214682 -3.10664203 10.64214682 -4 13 C-4.0689472 14.37342831 -4.08467708 15.75002102 -4.0625 17.125 C-4.041875 18.40375 -4.02125 19.6825 -4 21 C-1.36 21.66 1.28 22.32 4 23 C4 20.03 4 17.06 4 14 C5.98 14 7.96 14 10 14 C10.33 14.66 10.66 15.32 11 16 C19.25 16 27.5 16 36 16 C36.33 15.34 36.66 14.68 37 14 C50.53 14 64.06 14 78 14 C78 17.63 78 21.26 78 25 C72.72 25 67.44 25 62 25 C62 25.99 62 26.98 62 28 C62.56847656 27.98839844 63.13695313 27.97679688 63.72265625 27.96484375 C68.60670484 27.90776806 73.18503965 28.18043228 78 29 C78 31.64 78 34.28 78 37 C70.71409984 37.04682155 63.42823335 37.08211748 56.14221191 37.10362434 C52.75718789 37.11395864 49.37226851 37.12792229 45.98730469 37.15087891 C7.5625541 37.39227608 7.5625541 37.39227608 0 33 C0.495 32.54625 0.99 32.0925 1.5 31.625 C3.22609337 30.12364481 3.22609337 30.12364481 3 28 C0.58354218 27.83312552 0.58354218 27.83312552 -2 28 C-2.66 28.66 -3.32 29.32 -4 30 C-5.9375 29.875 -5.9375 29.875 -8 29 C-9.75 26.9375 -9.75 26.9375 -11 25 C-10.34 24.01 -9.68 23.02 -9 22 C-9.66868314 18.88667752 -9.66868314 18.88667752 -12.0625 17.8125 C-12.701875 17.544375 -13.34125 17.27625 -14 17 C-13.67 14.69 -13.34 12.38 -13 10 C-11.02 9.34 -9.04 8.68 -7 8 C-7 6.02 -7 4.04 -7 2 C-2.25 0 -2.25 0 0 0 Z M10 25 C10.33 26.65 10.66 28.3 11 30 C23.87 29.01 23.87 29.01 37 28 C37.33 27.01 37.66 26.02 38 25 C28.76 25 19.52 25 10 25 Z " fill="#B9D4FE" transform="translate(23,88)"/>
<path d="M0 0 C0.74170944 -0.00043808 1.48341888 -0.00087616 2.24760437 -0.00132751 C4.69894749 0.00076235 7.14960646 0.02410198 9.60083008 0.04760742 C11.30047736 0.05320269 13.00012948 0.05747312 14.69978333 0.06047058 C19.17318074 0.07192483 23.64628592 0.1013969 28.11956787 0.13458252 C32.68424527 0.16527096 37.24896988 0.17897329 41.8137207 0.1940918 C50.7702293 0.22626612 59.72652101 0.27746943 68.68286133 0.34057617 C68.73685119 2.61114994 68.77564874 4.88208905 68.80786133 7.15307617 C68.83106445 8.41764648 68.85426758 9.6822168 68.87817383 10.98510742 C68.68286133 14.34057617 68.68286133 14.34057617 66.68286133 17.34057617 C64.80786133 17.90307617 64.80786133 17.90307617 62.68286133 18.34057617 C59.5068358 19.55008459 59.5068358 19.55008459 57.74536133 22.34057617 C56.68286133 24.34057617 56.68286133 24.34057617 54.12036133 25.34057617 C53.31598633 25.67057617 52.51161133 26.00057617 51.68286133 26.34057617 C50.92055338 28.22236827 50.92055338 28.22236827 50.68286133 30.34057617 C49.87036133 32.52807617 49.87036133 32.52807617 48.68286133 34.34057617 C46.55786133 35.09057617 46.55786133 35.09057617 44.68286133 35.34057617 C44.35286133 37.32057617 44.02286133 39.30057617 43.68286133 41.34057617 C43.00223633 41.40245117 42.32161133 41.46432617 41.62036133 41.52807617 C37.71437418 42.42753689 37.71437418 42.42753689 31.68286133 47.34057617 C48.01786133 47.83557617 48.01786133 47.83557617 64.68286133 48.34057617 C64.68286133 49.99057617 64.68286133 51.64057617 64.68286133 53.34057617 C51.15286133 53.34057617 37.62286133 53.34057617 23.68286133 53.34057617 C23.68286133 49.05057617 23.68286133 44.76057617 23.68286133 40.34057617 C24.01286133 41.00057617 24.34286133 41.66057617 24.68286133 42.34057617 C25.67286133 42.34057617 26.66286133 42.34057617 27.68286133 42.34057617 C28.01286133 40.69057617 28.34286133 39.04057617 28.68286133 37.34057617 C29.67286133 37.67057617 30.66286133 38.00057617 31.68286133 38.34057617 C31.90973633 37.55682617 32.13661133 36.77307617 32.37036133 35.96557617 C33.68286133 33.34057617 33.68286133 33.34057617 36.30786133 32.02807617 C37.09161133 31.80120117 37.87536133 31.57432617 38.68286133 31.34057617 C38.18786133 29.85557617 38.18786133 29.85557617 37.68286133 28.34057617 C38.67286133 28.01057617 39.66286133 27.68057617 40.68286133 27.34057617 C41.13661133 26.86620117 41.59036133 26.39182617 42.05786133 25.90307617 C44.50396527 23.55105315 47.27738212 22.34057617 50.68286133 22.34057617 C50.68286133 20.69057617 50.68286133 19.04057617 50.68286133 17.34057617 C51.67286133 17.34057617 52.66286133 17.34057617 53.68286133 17.34057617 C54.67286133 16.68057617 55.66286133 16.02057617 56.68286133 15.34057617 C56.68286133 16.00057617 56.68286133 16.66057617 56.68286133 17.34057617 C58.66286133 15.69057617 60.64286133 14.04057617 62.68286133 12.34057617 C62.18786133 10.36057617 62.18786133 10.36057617 61.68286133 8.34057617 C62.34286133 8.01057617 63.00286133 7.68057617 63.68286133 7.34057617 C61.82260212 5.48031696 58.72256413 6.16685189 56.23535156 6.13525391 C55.56220917 6.12535431 54.88906677 6.11545471 54.19552612 6.10525513 C51.96087208 6.07355779 49.72619675 6.04885043 47.49145508 6.02416992 C45.94588149 6.00360748 44.40031361 5.98261121 42.85475159 5.9611969 C38.77935401 5.9059028 34.70390507 5.85652604 30.62841797 5.80834961 C26.47269093 5.75818801 22.31703881 5.70247413 18.16137695 5.6472168 C10.00193503 5.53954554 1.84243057 5.43812065 -6.31713867 5.34057617 C-6.31713867 6.99057617 -6.31713867 8.64057617 -6.31713867 10.34057617 C-7.63713867 10.34057617 -8.95713867 10.34057617 -10.31713867 10.34057617 C-10.68006482 3.92888092 -10.68006482 3.92888092 -9.26274109 1.63139343 C-6.32767959 -0.31588419 -3.40261504 -0.05243832 0 0 Z " fill="#6B73FD" transform="translate(36.317138671875,48.659423828125)"/>
<path d="M0 0 C1.32 0 2.64 0 4 0 C4 6.6 4 13.2 4 20 C6.31 20 8.62 20 11 20 C12 21 12 21 12.11352539 24.78540039 C12.11336622 26.47282729 12.10766917 28.16025905 12.09765625 29.84765625 C12.0962413 30.7340831 12.09482635 31.62050995 12.09336853 32.53379822 C12.08775215 35.37673254 12.07519691 38.21958931 12.0625 41.0625 C12.05748711 42.98502491 12.05292384 44.90755104 12.04882812 46.83007812 C12.03862648 51.55343964 12.01905437 56.27663258 12 61 C3.75 61 -4.5 61 -13 61 C-13.1953125 51.0390625 -13.1953125 51.0390625 -13 48 C-12.34 47.34 -11.68 46.68 -11 46 C-10.57354771 43.1404923 -10.57354771 43.1404923 -10.4375 39.9375 C-10.09722222 34.09722222 -10.09722222 34.09722222 -9 33 C-7.31391034 32.92794489 -5.62499341 32.91613932 -3.9375 32.9375 C-3.01839844 32.94652344 -2.09929687 32.95554688 -1.15234375 32.96484375 C-0.44207031 32.97644531 0.26820312 32.98804688 1 33 C1.66 31.02 2.32 29.04 3 27 C3.99 27.33 4.98 27.66 6 28 C6.33 27.01 6.66 26.02 7 25 C7.66 24.67 8.32 24.34 9 24 C8.01 24.01160156 7.02 24.02320312 6 24.03515625 C-0.73800533 24.0897219 -7.32999603 24.08898024 -14 23 C-13.505 21.515 -13.505 21.515 -13 20 C-8.71 20 -4.42 20 0 20 C0 13.4 0 6.8 0 0 Z " fill="#7287FE" transform="translate(115,63)"/>
<path d="M0 0 C0.97066406 -0.00386719 1.94132812 -0.00773437 2.94140625 -0.01171875 C3.94816406 -0.00011719 4.95492187 0.01148438 5.9921875 0.0234375 C7.00667969 0.01183594 8.02117187 0.00023437 9.06640625 -0.01171875 C10.03449219 -0.00785156 11.00257812 -0.00398438 12 0 C12.88574707 0.00338379 13.77149414 0.00676758 14.68408203 0.01025391 C15.76471924 0.20240479 15.76471924 0.20240479 16.8671875 0.3984375 C17.5271875 1.3884375 18.1871875 2.3784375 18.8671875 3.3984375 C17.8771875 4.3884375 16.8871875 5.3784375 15.8671875 6.3984375 C16.5271875 6.7284375 17.1871875 7.0584375 17.8671875 7.3984375 C17.2278125 7.6665625 16.5884375 7.9346875 15.9296875 8.2109375 C13.53587064 9.28511502 13.53587064 9.28511502 12.8671875 12.3984375 C11.5471875 12.3984375 10.2271875 12.3984375 8.8671875 12.3984375 C6.4155435 14.30527172 5.87390436 15.37828693 4.8671875 18.3984375 C3.8771875 18.7284375 2.8871875 19.0584375 1.8671875 19.3984375 C1.5371875 19.0684375 1.2071875 18.7384375 0.8671875 18.3984375 C0.2071875 19.0584375 -0.4528125 19.7184375 -1.1328125 20.3984375 C-2.1228125 20.3984375 -3.1128125 20.3984375 -4.1328125 20.3984375 C-5.70554818 23.2409229 -5.70554818 23.2409229 -6.1328125 26.3984375 C-9.1328125 28.3984375 -9.1328125 28.3984375 -12.1328125 29.3984375 C-12.72351264 31.34447024 -12.72351264 31.34447024 -13.1328125 33.3984375 C-13.7928125 34.0584375 -14.4528125 34.7184375 -15.1328125 35.3984375 C-15.4628125 34.7384375 -15.7928125 34.0784375 -16.1328125 33.3984375 C-16.7928125 34.7184375 -17.4528125 36.0384375 -18.1328125 37.3984375 C-19.1228125 37.3984375 -20.1128125 37.3984375 -21.1328125 37.3984375 C-21.37128906 36.74746094 -21.60976563 36.09648438 -21.85546875 35.42578125 C-22.27699219 34.75675781 -22.69851562 34.08773437 -23.1328125 33.3984375 C-25.22875224 32.88370234 -25.22875224 32.88370234 -27.5703125 32.9609375 C-31.88401325 32.66918962 -31.88401325 32.66918962 -34.2578125 30.0859375 C-35.17389882 27.2722438 -35.23321313 26.09942085 -34.1328125 23.3984375 C-32.8128125 24.0584375 -31.4928125 24.7184375 -30.1328125 25.3984375 C-27.1628125 21.9334375 -27.1628125 21.9334375 -24.1328125 18.3984375 C-25.4528125 18.0684375 -26.7728125 17.7384375 -28.1328125 17.3984375 C-27.8028125 16.7384375 -27.4728125 16.0784375 -27.1328125 15.3984375 C-24.79947917 14.73177083 -22.46614583 14.06510417 -20.1328125 13.3984375 C-19.8028125 12.7384375 -19.4728125 12.0784375 -19.1328125 11.3984375 C-18.4728125 11.3984375 -17.8128125 11.3984375 -17.1328125 11.3984375 C-16.9265625 10.8209375 -16.7203125 10.2434375 -16.5078125 9.6484375 C-14.62230054 6.5630543 -12.18227058 5.28910151 -9.1328125 3.3984375 C-8.51422363 2.87169434 -7.89563477 2.34495117 -7.25830078 1.80224609 C-4.65130901 0.08042176 -3.10328047 0.01182524 0 0 Z " fill="#665EFF" transform="translate(82.1328125,53.6015625)"/>
<path d="M0 0 C0.33 1.32 0.66 2.64 1 4 C1.66 4 2.32 4 3 4 C3 5.65 3 7.3 3 9 C2.030625 9.28875 1.06125 9.5775 0.0625 9.875 C-3.10664203 10.64214682 -3.10664203 10.64214682 -4 13 C-4.0689472 14.37342831 -4.08467708 15.75002102 -4.0625 17.125 C-4.041875 18.40375 -4.02125 19.6825 -4 21 C2.88824069 23.40990104 2.88824069 23.40990104 10 25 C10.33 26.65 10.66 28.3 11 30 C11.66 29.67 12.32 29.34 13 29 C14.81171098 28.84693099 16.6283794 28.75053339 18.4453125 28.68359375 C19.52167969 28.64169922 20.59804688 28.59980469 21.70703125 28.55664062 C22.83496094 28.51732422 23.96289062 28.47800781 25.125 28.4375 C26.26066406 28.39431641 27.39632812 28.35113281 28.56640625 28.30664062 C31.37747768 28.2003396 34.18863945 28.09830595 37 28 C36.67 28.66 36.34 29.32 36 30 C33.35139573 30.59355614 30.70802678 30.74209269 28 31 C28 31.66 28 32.32 28 33 C42.19 33 56.38 33 71 33 C70.67 32.34 70.34 31.68 70 31 C68.845 30.835 67.69 30.67 66.5 30.5 C65.345 30.335 64.19 30.17 63 30 C62.505 29.01 62.505 29.01 62 28 C67.45769811 27.88861841 72.61509359 28.08342019 78 29 C78 31.64 78 34.28 78 37 C70.71409984 37.04682155 63.42823335 37.08211748 56.14221191 37.10362434 C52.75718789 37.11395864 49.37226851 37.12792229 45.98730469 37.15087891 C7.5625541 37.39227608 7.5625541 37.39227608 0 33 C0.495 32.54625 0.99 32.0925 1.5 31.625 C3.22609337 30.12364481 3.22609337 30.12364481 3 28 C0.58354218 27.83312552 0.58354218 27.83312552 -2 28 C-2.66 28.66 -3.32 29.32 -4 30 C-5.9375 29.875 -5.9375 29.875 -8 29 C-9.75 26.9375 -9.75 26.9375 -11 25 C-10.34 24.01 -9.68 23.02 -9 22 C-9.66868314 18.88667752 -9.66868314 18.88667752 -12.0625 17.8125 C-12.701875 17.544375 -13.34125 17.27625 -14 17 C-13.67 14.69 -13.34 12.38 -13 10 C-11.02 9.34 -9.04 8.68 -7 8 C-7 6.02 -7 4.04 -7 2 C-2.25 0 -2.25 0 0 0 Z " fill="#EAEBF2" transform="translate(23,88)"/>
<path d="M0 0 C1.06605469 0.00644531 2.13210937 0.01289062 3.23046875 0.01953125 C5.8125 0.1875 5.8125 0.1875 6.8125 1.1875 C6.89998207 3.11417507 6.91947334 5.04401861 6.91015625 6.97265625 C6.90693359 8.14248047 6.90371094 9.31230469 6.90039062 10.51757812 C6.89201172 11.74927734 6.88363281 12.98097656 6.875 14.25 C6.87048828 15.48556641 6.86597656 16.72113281 6.86132812 17.99414062 C6.84949608 21.05864117 6.83301173 24.12304721 6.8125 27.1875 C8.7925 27.1875 10.7725 27.1875 12.8125 27.1875 C13.4725 28.8375 14.1325 30.4875 14.8125 32.1875 C14.1525 32.1875 13.4925 32.1875 12.8125 32.1875 C13.4003125 34.0746875 13.4003125 34.0746875 14 36 C14.56640625 38.20703125 14.56640625 38.20703125 14.8125 40.1875 C13.4375 42.1875 13.4375 42.1875 11.8125 43.1875 C10.8225 42.8575 9.8325 42.5275 8.8125 42.1875 C8.1525 43.5075 7.4925 44.8275 6.8125 46.1875 C4.8325 46.1875 2.8525 46.1875 0.8125 46.1875 C0.1525 44.8675 -0.5075 43.5475 -1.1875 42.1875 C-3.1675 42.6825 -3.1675 42.6825 -5.1875 43.1875 C-6.94812164 39.86188135 -7.29534228 38.59576005 -6.3125 34.875 C-5.94125 33.988125 -5.57 33.10125 -5.1875 32.1875 C-5.8475 32.1875 -6.5075 32.1875 -7.1875 32.1875 C-7.1875 31.5275 -7.1875 30.8675 -7.1875 30.1875 C-12.4675 30.1875 -17.7475 30.1875 -23.1875 30.1875 C-23.1875 25.5675 -23.1875 20.9475 -23.1875 16.1875 C-14.7890625 15.9921875 -14.7890625 15.9921875 -12.1875 16.1875 C-11.5275 16.8475 -10.8675 17.5075 -10.1875 18.1875 C-10.5625 20.3125 -10.5625 20.3125 -11.1875 22.1875 C-9.8675 23.1775 -8.5475 24.1675 -7.1875 25.1875 C-6.8575 24.1975 -6.5275 23.2075 -6.1875 22.1875 C-5.5275 22.1875 -4.8675 22.1875 -4.1875 22.1875 C-4.1875 21.5275 -4.1875 20.8675 -4.1875 20.1875 C-4.8475 20.1875 -5.5075 20.1875 -6.1875 20.1875 C-6.5175 18.2075 -6.8475 16.2275 -7.1875 14.1875 C-2.8975 14.1875 1.3925 14.1875 5.8125 14.1875 C5.4825 13.1975 5.1525 12.2075 4.8125 11.1875 C4.049375 11.105 3.28625 11.0225 2.5 10.9375 C-0.1875 10.1875 -0.1875 10.1875 -1.5625 8.125 C-2.09875 7.485625 -2.635 6.84625 -3.1875 6.1875 C-6.81313814 5.85369186 -6.81313814 5.85369186 -10.1875 6.1875 C-10.1875 4.8675 -10.1875 3.5475 -10.1875 2.1875 C-6.73589849 0.07308067 -4.00717844 -0.05368936 0 0 Z M-1.1875 32.1875 C-1.5508156 35.02136167 -1.5443671 36.59272151 -0.0625 39.0625 C2.73401052 40.74040631 4.74940532 39.93625648 7.8125 39.1875 C8.48923447 35.78429066 8.48923447 35.78429066 8.8125 32.1875 C6.92749729 29.87186913 6.92749729 29.87186913 3.8125 29.9375 C0.69750271 29.87186913 0.69750271 29.87186913 -1.1875 32.1875 Z " fill="#37D6CF" transform="translate(128.1875,32.8125)"/>
<path d="M0 0 C1.12019531 -0.00128906 2.24039063 -0.00257812 3.39453125 -0.00390625 C4.57402344 -0.00003906 5.75351562 0.00382812 6.96875 0.0078125 C8.73798828 0.00201172 8.73798828 0.00201172 10.54296875 -0.00390625 C12.22326172 -0.00197266 12.22326172 -0.00197266 13.9375 0 C14.97326172 0.00112793 16.00902344 0.00225586 17.07617188 0.00341797 C19.46875 0.1328125 19.46875 0.1328125 20.46875 1.1328125 C20.56861975 3.97616298 20.60752881 6.78978413 20.59375 9.6328125 C20.59955078 10.82970703 20.59955078 10.82970703 20.60546875 12.05078125 C20.59535767 18.00620483 20.59535767 18.00620483 19.46875 19.1328125 C17.62715977 19.23240871 15.78178033 19.26361661 13.9375 19.265625 C12.81730469 19.26691406 11.69710937 19.26820312 10.54296875 19.26953125 C9.36347656 19.26566406 8.18398438 19.26179688 6.96875 19.2578125 C5.19951172 19.26361328 5.19951172 19.26361328 3.39453125 19.26953125 C1.71423828 19.26759766 1.71423828 19.26759766 0 19.265625 C-1.03576172 19.26449707 -2.07152344 19.26336914 -3.13867188 19.26220703 C-5.53125 19.1328125 -5.53125 19.1328125 -6.53125 18.1328125 C-6.63111975 15.28946202 -6.67002881 12.47584087 -6.65625 9.6328125 C-6.66011719 8.83488281 -6.66398437 8.03695312 -6.66796875 7.21484375 C-6.65573175 0.007248 -6.65573175 0.007248 0 0 Z " fill="#37D4C8" transform="translate(39.53125,85.8671875)"/>
<path d="M0 0 C7.92 0 15.84 0 24 0 C20 5 20 5 17 6 C17 6.66 17 7.32 17 8 C16.34 8 15.68 8 15 8 C15 8.66 15 9.32 15 10 C11.7 10.33 8.4 10.66 5 11 C4.95101562 11.84304687 4.90203125 12.68609375 4.8515625 13.5546875 C4.77679688 14.65039062 4.70203125 15.74609375 4.625 16.875 C4.55539063 17.96554688 4.48578125 19.05609375 4.4140625 20.1796875 C4 23 4 23 2 25 C1.53513282 28.12196336 1.53513282 28.12196336 1.375 31.625 C1.25125 33.72875 1.1275 35.8325 1 38 C9.25 38 17.5 38 26 38 C26 38.66 26 39.32 26 40 C28.31 40.66 30.62 41.32 33 42 C32 44 32 44 30.34521484 44.61450195 C25.49200924 45.41225457 20.54404055 45.18590312 15.63769531 45.18530273 C13.63863013 45.18748512 11.63960468 45.20599143 9.640625 45.22460938 C8.36960937 45.22654297 7.09859375 45.22847656 5.7890625 45.23046875 C4.63100098 45.23457764 3.47293945 45.23868652 2.27978516 45.24291992 C-1.11310954 44.99162245 -3.83332989 44.21173908 -7 43 C-6 41 -6 41 0 39 C0 26.13 0 13.26 0 0 Z " fill="#5E4DF2" transform="translate(101,86)"/>
<path d="M0 0 C0.83265381 0.00523682 1.66530762 0.01047363 2.52319336 0.01586914 C3.33280518 0.0183667 4.14241699 0.02086426 4.9765625 0.0234375 C6.01159912 0.0325415 7.04663574 0.04164551 8.11303711 0.05102539 C11.39241211 0.07165039 14.67178711 0.09227539 18.05053711 0.11352539 C18.05053711 7.04352539 18.05053711 13.97352539 18.05053711 21.11352539 C11.12053711 21.11352539 4.19053711 21.11352539 -2.94946289 21.11352539 C-2.97008789 17.83415039 -2.99071289 14.55477539 -3.01196289 11.17602539 C-3.02106689 10.14098877 -3.0301709 9.10595215 -3.03955078 8.03955078 C-3.04329712 6.82513306 -3.04329712 6.82513306 -3.04711914 5.58618164 C-3.05235596 4.75352783 -3.05759277 3.92087402 -3.06298828 3.06298828 C-2.90876673 0.41468917 -2.64829911 0.15422155 0 0 Z " fill="#32C7DD" transform="translate(15.949462890625,58.886474609375)"/>
<path d="M0 0 C1.0528418 0.02030273 1.0528418 0.02030273 2.12695312 0.04101562 C3.85579829 0.07629818 5.58424765 0.13010417 7.3125 0.1875 C7.3125 3.8175 7.3125 7.4475 7.3125 11.1875 C2.0325 11.1875 -3.2475 11.1875 -8.6875 11.1875 C-8.3575 12.5075 -8.0275 13.8275 -7.6875 15.1875 C-5.3775 15.5175 -3.0675 15.8475 -0.6875 16.1875 C-0.1925 17.6725 -0.1925 17.6725 0.3125 19.1875 C-11.5675 19.1875 -23.4475 19.1875 -35.6875 19.1875 C-36.0175 18.5275 -36.3475 17.8675 -36.6875 17.1875 C-33.7175 16.8575 -30.7475 16.5275 -27.6875 16.1875 C-28.0175 15.1975 -28.3475 14.2075 -28.6875 13.1875 C-25.82636033 10.32636033 -23.0933966 9.28792119 -19.0625 9 C-16.6875 9.1875 -16.6875 9.1875 -13.6875 10.1875 C-11.09972792 7.13169026 -11.09972792 7.13169026 -10.6875 3.1875 C-8.21262873 -0.88039186 -4.24305676 -0.15450907 0 0 Z " fill="#B0CFFE" transform="translate(93.6875,101.8125)"/>
<path d="M0 0 C3.3 0 6.6 0 10 0 C10 1.98 10 3.96 10 6 C14.20594226 6.72795155 16.80104745 7.04973814 21 6 C22.32 8.64 23.64 11.28 25 14 C22.70858714 14.05384521 20.41681812 14.09272087 18.125 14.125 C16.21074219 14.15980469 16.21074219 14.15980469 14.2578125 14.1953125 C11 14 11 14 9 12 C3.45764755 11.42765564 3.45764755 11.42765564 -1.5 13.5 C-3.71177972 17.18629954 -3.34421275 19.73176192 -3 24 C-2.67 24.66 -2.34 25.32 -2 26 C-6.29 26 -10.58 26 -15 26 C-13.68 25.01 -12.36 24.02 -11 23 C-10.33333333 20 -10.33333333 20 -11 17 C-12.88077873 15.08743288 -12.88077873 15.08743288 -15 14 C-13.87548273 11.0280615 -12.77706209 8.66559313 -11 6 C-9.39125 6.2784375 -9.39125 6.2784375 -7.75 6.5625 C-4.59608454 6.9304568 -2.90181508 7.04465343 0 6 C0 4.02 0 2.04 0 0 Z " fill="#E8EAF1" transform="translate(98,19)"/>
<path d="M0 0 C0.74170944 -0.00043808 1.48341888 -0.00087616 2.24760437 -0.00132751 C4.69894749 0.00076235 7.14960646 0.02410198 9.60083008 0.04760742 C11.30047736 0.05320269 13.00012948 0.05747312 14.69978333 0.06047058 C19.17318074 0.07192483 23.64628592 0.1013969 28.11956787 0.13458252 C32.68424527 0.16527096 37.24896988 0.17897329 41.8137207 0.1940918 C50.7702293 0.22626612 59.72652101 0.27746943 68.68286133 0.34057617 C68.68286133 1.99057617 68.68286133 3.64057617 68.68286133 5.34057617 C43.93286133 5.34057617 19.18286133 5.34057617 -6.31713867 5.34057617 C-6.31713867 6.99057617 -6.31713867 8.64057617 -6.31713867 10.34057617 C-7.63713867 10.34057617 -8.95713867 10.34057617 -10.31713867 10.34057617 C-10.68006482 3.92888092 -10.68006482 3.92888092 -9.26274109 1.63139343 C-6.32767959 -0.31588419 -3.40261504 -0.05243832 0 0 Z " fill="#3C408C" transform="translate(36.317138671875,48.659423828125)"/>
<path d="M0 0 C8.25 0 16.5 0 25 0 C25 7 25 7 23.125 8.9375 C21 10 21 10 19 10 C18.7525 10.804375 18.505 11.60875 18.25 12.4375 C17 15 17 15 14.875 15.8125 C14.25625 15.874375 13.6375 15.93625 13 16 C13 16.99 13 17.98 13 19 C13.66 19.66 14.32 20.32 15 21 C8.375 25 8.375 25 5 25 C4.67 18.4 4.34 11.8 4 5 C2.68 5 1.36 5 0 5 C0 3.35 0 1.7 0 0 Z " fill="#5C3EFE" transform="translate(30,54)"/>
<path d="M0 0 C1.58206057 0.00667536 3.16410534 0.0186375 4.74609375 0.03515625 C5.55240234 0.03966797 6.35871094 0.04417969 7.18945312 0.04882812 C9.18753131 0.06065107 11.18557158 0.07858711 13.18359375 0.09765625 C13.21043687 2.91021906 13.23035563 5.72252866 13.24609375 8.53515625 C13.25447266 9.33759766 13.26285156 10.14003906 13.27148438 10.96679688 C13.28010805 13.01060846 13.23587525 15.05449527 13.18359375 17.09765625 C11.36243372 18.91881628 8.87687611 18.23000705 6.45703125 18.234375 C5.70679687 18.23050781 4.9565625 18.22664063 4.18359375 18.22265625 C3.05824219 18.22845703 3.05824219 18.22845703 1.91015625 18.234375 C-3.68979572 18.22426678 -3.68979572 18.22426678 -4.81640625 17.09765625 C-4.91621839 14.42034245 -4.955205 11.7746145 -4.94140625 9.09765625 C-4.94527344 8.34742187 -4.94914062 7.5971875 -4.953125 6.82421875 C-4.94103514 0.12643386 -4.94103514 0.12643386 0 0 Z " fill="#3DCFE4" transform="translate(109.81640625,95.90234375)"/>
<path d="M0 0 C0.33 0 0.66 0 1 0 C1 5.94 1 11.88 1 18 C2.98 17.34 4.96 16.68 7 16 C7.33 16.99 7.66 17.98 8 19 C8.66 18.67 9.32 18.34 10 18 C10.66 18.66 11.32 19.32 12 20 C12.99 20.33 13.98 20.66 15 21 C15.33 22.32 15.66 23.64 16 25 C10.72 25.33 5.44 25.66 0 26 C-0.33 30.95 -0.66 35.9 -1 41 C-3.31 41 -5.62 41 -8 41 C-8 33.74 -8 26.48 -8 19 C-5.36 19 -2.72 19 0 19 C0 12.73 0 6.46 0 0 Z " fill="#5E53FD" transform="translate(34,61)"/>
<path d="M0 0 C1.95766281 -0.08082094 3.91626728 -0.13910778 5.875 -0.1875 C7.51082031 -0.23970703 7.51082031 -0.23970703 9.1796875 -0.29296875 C10.11039063 -0.19628906 11.04109375 -0.09960938 12 0 C12.66 0.99 13.32 1.98 14 3 C13.01 3.99 12.02 4.98 11 6 C11.66 6.33 12.32 6.66 13 7 C12.360625 7.268125 11.72125 7.53625 11.0625 7.8125 C8.66868314 8.88667752 8.66868314 8.88667752 8 12 C6.68 12 5.36 12 4 12 C1.548356 13.90683422 1.00671686 14.97984943 0 18 C-0.99 18.33 -1.98 18.66 -3 19 C-3.66 17.35 -4.32 15.7 -5 14 C-4.34 13.34 -3.68 12.68 -3 12 C-3.0309375 10.7934375 -3.0309375 10.7934375 -3.0625 9.5625 C-2.98528865 6.39683464 -2.19076412 6.09948228 0 4 C0 2.68 0 1.36 0 0 Z M-8 17 C-7.01 17.33 -6.02 17.66 -5 18 C-5.33 18.66 -5.66 19.32 -6 20 C-6.99 19.67 -7.98 19.34 -9 19 C-8.67 18.34 -8.34 17.68 -8 17 Z M-9 20 C-9.33 20.61875 -9.66 21.2375 -10 21.875 C-11.14193235 23.91018344 -11.14193235 23.91018344 -11 26 C-14 28 -14 28 -16.0625 27.8125 C-18 27 -18 27 -20 24 C-19.34 24 -18.68 24 -18 24 C-17.67 23.01 -17.34 22.02 -17 21 C-14.23735711 20.40267181 -11.83967231 20 -9 20 Z M-20 28 C-19.01 28.99 -18.02 29.98 -17 31 C-17.99 32.32 -18.98 33.64 -20 35 C-20.66 33.35 -21.32 31.7 -22 30 C-21.34 29.34 -20.68 28.68 -20 28 Z M-25 31 C-24.01 31.33 -23.02 31.66 -22 32 C-22.33 33.65 -22.66 35.3 -23 37 C-23.66 37 -24.32 37 -25 37 C-25.38218767 35.34385343 -25.71395102 33.67542976 -26 32 C-25.67 31.67 -25.34 31.34 -25 31 Z " fill="#6A6AFE" transform="translate(87,54)"/>
<path d="M0 0 C13.53 0 27.06 0 41 0 C41 1.65 41 3.3 41 5 C27.47 5 13.94 5 0 5 C0 3.35 0 1.7 0 0 Z " fill="#3C3D89" transform="translate(60,97)"/>
<path d="M0 0 C1.5631897 0.00785522 1.5631897 0.00785522 3.15795898 0.01586914 C4.28266602 0.0190918 5.40737305 0.02231445 6.56616211 0.02563477 C7.75016602 0.03401367 8.93416992 0.04239258 10.15405273 0.05102539 C11.34192383 0.05553711 12.52979492 0.06004883 13.75366211 0.06469727 C16.69967499 0.07652864 19.64558954 0.09301252 22.59155273 0.11352539 C22.92155273 0.77352539 23.25155273 1.43352539 23.59155273 2.11352539 C22.93155273 2.11352539 22.27155273 2.11352539 21.59155273 2.11352539 C21.59155273 2.77352539 21.59155273 3.43352539 21.59155273 4.11352539 C19.28155273 3.78352539 16.97155273 3.45352539 14.59155273 3.11352539 C14.26155273 4.10352539 13.93155273 5.09352539 13.59155273 6.11352539 C13.26155273 5.12352539 12.93155273 4.13352539 12.59155273 3.11352539 C11.93155273 3.11352539 11.27155273 3.11352539 10.59155273 3.11352539 C10.26155273 4.76352539 9.93155273 6.41352539 9.59155273 8.11352539 C8.60155273 8.11352539 7.61155273 8.11352539 6.59155273 8.11352539 C6.59155273 7.12352539 6.59155273 6.13352539 6.59155273 5.11352539 C5.93155273 5.11352539 5.27155273 5.11352539 4.59155273 5.11352539 C4.26155273 6.10352539 3.93155273 7.09352539 3.59155273 8.11352539 C2.93155273 8.77352539 2.27155273 9.43352539 1.59155273 10.11352539 C4.06655273 12.09352539 4.06655273 12.09352539 6.59155273 14.11352539 C6.92155273 13.12352539 7.25155273 12.13352539 7.59155273 11.11352539 C7.26155273 12.76352539 6.93155273 14.41352539 6.59155273 16.11352539 C3.29155273 16.11352539 -0.00844727 16.11352539 -3.40844727 16.11352539 C-3.43529822 13.63428738 -3.45521274 11.15533699 -3.47094727 8.67602539 C-3.48351563 7.61544922 -3.48351563 7.61544922 -3.49633789 6.53344727 C-3.50498314 4.7265898 -3.46064738 2.91964936 -3.40844727 1.11352539 C-2.40844727 0.11352539 -2.40844727 0.11352539 0 0 Z " fill="#44A9E5" transform="translate(36.408447265625,85.886474609375)"/>
<path d="M0 0 C1.98 0 3.96 0 6 0 C6.33 0.66 6.66 1.32 7 2 C12.94 2.33 18.88 2.66 25 3 C25 4.32 25 5.64 25 7 C24.34 7 23.68 7 23 7 C22.67 7.66 22.34 8.32 22 9 C21.67 9.66 21.34 10.32 21 11 C17.68751813 11.02888146 14.37506833 11.04675799 11.0625 11.0625 C10.11697266 11.07087891 9.17144531 11.07925781 8.19726562 11.08789062 C6.84858398 11.09272461 6.84858398 11.09272461 5.47265625 11.09765625 C4.64000244 11.10289307 3.80734863 11.10812988 2.94946289 11.11352539 C1 11 1 11 0 10 C-0.07205511 8.31391034 -0.08386068 6.62499341 -0.0625 4.9375 C-0.05347656 4.01839844 -0.04445313 3.09929687 -0.03515625 2.15234375 C-0.02355469 1.44207031 -0.01195313 0.73179688 0 0 Z " fill="#C3DBFE" transform="translate(27,102)"/>
<path d="M0 0 C1.98 0 3.96 0 6 0 C6.66 1.65 7.32 3.3 8 5 C7.34 5 6.68 5 6 5 C6.391875 6.258125 6.78375 7.51625 7.1875 8.8125 C7.75390625 11.01953125 7.75390625 11.01953125 8 13 C6.625 15 6.625 15 5 16 C4.01 15.67 3.02 15.34 2 15 C1.34 16.32 0.68 17.64 0 19 C-1.98 19 -3.96 19 -6 19 C-6.66 17.68 -7.32 16.36 -8 15 C-9.32 15.33 -10.64 15.66 -12 16 C-13.76062164 12.67438135 -14.10784228 11.40826005 -13.125 7.6875 C-12.568125 6.3571875 -12.568125 6.3571875 -12 5 C-12.66 5 -13.32 5 -14 5 C-14 4.34 -14 3.68 -14 3 C-11.36 3 -8.72 3 -6 3 C-6.20625 4.11375 -6.4125 5.2275 -6.625 6.375 C-6.74875 7.57125 -6.8725 8.7675 -7 10 C-5.10244856 12.34973818 -5.10244856 12.34973818 -1.875 12.125 C-0.451875 12.063125 -0.451875 12.063125 1 12 C1.29562367 6.67829506 1.29562367 6.67829506 -1 2 C-0.67 1.34 -0.34 0.68 0 0 Z " fill="#EAEBF2" transform="translate(135,60)"/>
<path d="M0 0 C0.33 1.65 0.66 3.3 1 5 C6.445 5.495 6.445 5.495 12 6 C12.495 7.485 12.495 7.485 13 9 C1.12 9 -10.76 9 -23 9 C-23.33 8.34 -23.66 7.68 -24 7 C-19.545 6.505 -19.545 6.505 -15 6 C-15.33 5.01 -15.66 4.02 -16 3 C-11.31683407 -1.68316593 -6.21172057 -1.91129864 0 0 Z " fill="#A3C6FE" transform="translate(81,112)"/>
<path d="M0 0 C2.625 0.25 2.625 0.25 4.4375 1.625 C5.625 3.25 5.625 3.25 5.625 5.25 C7.275 5.25 8.925 5.25 10.625 5.25 C10.955 6.57 11.285 7.89 11.625 9.25 C5.685 9.745 5.685 9.745 -0.375 10.25 C-0.375 11.9 -0.375 13.55 -0.375 15.25 C0.285 15.25 0.945 15.25 1.625 15.25 C1.625 17.25 1.625 17.25 0.125 18.875 C-0.37 19.32875 -0.865 19.7825 -1.375 20.25 C-5.25 18.5 -5.25 18.5 -6.375 16.25 C-5.715 16.25 -5.055 16.25 -4.375 16.25 C-4.705 15.651875 -5.035 15.05375 -5.375 14.4375 C-6.375 12.25 -6.375 12.25 -6.375 9.25 C-8.025 9.25 -9.675 9.25 -11.375 9.25 C-11.045 7.93 -10.715 6.61 -10.375 5.25 C-8.725 5.25 -7.075 5.25 -5.375 5.25 C-5.065625 4.610625 -4.75625 3.97125 -4.4375 3.3125 C-2.88764755 0.3039629 -2.88764755 0.3039629 0 0 Z " fill="#F9FDFD" transform="translate(122.375,37.75)"/>
<path d="M0 0 C1.32 0 2.64 0 4 0 C4 6.6 4 13.2 4 20 C6.31 20 8.62 20 11 20 C11.33 20.99 11.66 21.98 12 23 C3.19039858 24.30512614 -5.19039858 24.30512614 -14 23 C-13.505 21.515 -13.505 21.515 -13 20 C-8.71 20 -4.42 20 0 20 C0 13.4 0 6.8 0 0 Z " fill="#4C4CA1" transform="translate(115,63)"/>
<path d="M0 0 C7.22649432 -0.07587458 14.45288649 -0.12852551 21.6796875 -0.16479492 C24.13968748 -0.17990988 26.59966041 -0.20040227 29.05957031 -0.22631836 C32.58926052 -0.2625823 36.11859544 -0.27969914 39.6484375 -0.29296875 C40.75367767 -0.30845261 41.85891785 -0.32393646 42.99765015 -0.33988953 C44.01855743 -0.34011612 45.03946472 -0.34034271 46.09130859 -0.34057617 C46.99287689 -0.34723801 47.89444519 -0.35389984 48.82333374 -0.36076355 C49.54163361 -0.24171158 50.25993347 -0.12265961 51 0 C51.66 0.99 52.32 1.98 53 3 C34.85 3 16.7 3 -2 3 C-1.34 2.67 -0.68 2.34 0 2 C0 1.34 0 0.68 0 0 Z " fill="#36BACB" transform="translate(44,47)"/>
<path d="M0 0 C1.31871094 -0.01224609 2.63742188 -0.02449219 3.99609375 -0.03710938 C5.90068359 -0.04000977 5.90068359 -0.04000977 7.84375 -0.04296875 C9.00068359 -0.04707764 10.15761719 -0.05118652 11.34960938 -0.05541992 C14.47736509 0.18575467 16.680892 0.85423629 19.5 2.1875 C18.5 4.1875 18.5 4.1875 16.84521484 4.80200195 C11.99200924 5.59975457 7.04404055 5.37340312 2.13769531 5.37280273 C0.13863013 5.37498512 -1.86039532 5.39349143 -3.859375 5.41210938 C-5.13039063 5.41404297 -6.40140625 5.41597656 -7.7109375 5.41796875 C-8.86899902 5.42207764 -10.02706055 5.42618652 -11.22021484 5.43041992 C-14.61310954 5.17912245 -17.33332989 4.39923908 -20.5 3.1875 C-20.17 2.5275 -19.84 1.8675 -19.5 1.1875 C-13.23640183 -0.60566158 -6.45139424 0.00315317 0 0 Z " fill="#EAEBF2" transform="translate(114.5,125.8125)"/>
<path d="M0 0 C0.02685938 2.14576637 0.04633088 4.29162645 0.0625 6.4375 C0.07410156 7.63246094 0.08570312 8.82742187 0.09765625 10.05859375 C0 13 0 13 -1 14 C-3.69654854 14.07319621 -6.36691458 14.09242537 -9.0625 14.0625 C-10.20041992 14.05573242 -10.20041992 14.05573242 -11.36132812 14.04882812 C-13.24091871 14.0370068 -15.12046899 14.01907078 -17 14 C-17 13.34 -17 12.68 -17 12 C-15.68 12 -14.36 12 -13 12 C-12.67 11.01 -12.34 10.02 -12 9 C-10.3603279 7.63360658 -8.68889872 6.3050581 -7 5 C-5.6696875 3.63875 -5.6696875 3.63875 -4.3125 2.25 C-2 0 -2 0 0 0 Z " fill="#3AD8D9" transform="translate(123,100)"/>
<path d="M0 0 C8.3984375 -0.1953125 8.3984375 -0.1953125 11 0 C13 2 13 2 13 5 C11.03163355 6.78942404 9.11074621 8.40267855 7 10 C6.278125 10.5775 5.55625 11.155 4.8125 11.75 C3 13 3 13 0 14 C0 9.38 0 4.76 0 0 Z " fill="#3FBDDC" transform="translate(105,49)"/>
<path d="M0 0 C0.99 0 1.98 0 3 0 C3.33 0.66 3.66 1.32 4 2 C6.02463255 2.65213292 6.02463255 2.65213292 8 3 C8.3125 6.3125 8.3125 6.3125 8 10 C5.15739513 12.38164192 3.71594733 13 0 13 C0 12.34 0 11.68 0 11 C-1.65 10.67 -3.3 10.34 -5 10 C-5 7.69 -5 5.38 -5 3 C-3.35 2.67 -1.7 2.34 0 2 C0 1.34 0 0.68 0 0 Z " fill="#F2FAFC" transform="translate(22,63)"/>
<path d="M0 0 C0.66 0 1.32 0 2 0 C2.33 0.66 2.66 1.32 3 2 C3.66 2 4.32 2 5 2 C6.6875 3.8125 6.6875 3.8125 8 6 C7.67 6.99 7.34 7.98 7 9 C6.34 9 5.68 9 5 9 C5 9.66 5 10.32 5 11 C4.34 11 3.68 11 3 11 C3 10.01 3 9.02 3 8 C2.01 8 1.02 8 0 8 C-0.33 9.65 -0.66 11.3 -1 13 C-1.66 13 -2.32 13 -3 13 C-3.33 12.34 -3.66 11.68 -4 11 C-4.639375 10.690625 -5.27875 10.38125 -5.9375 10.0625 C-8 9 -8 9 -10 6 C-8.71034824 4.62437146 -7.37310707 3.29233607 -6 2 C-5.34 2 -4.68 2 -4 2 C-4 2.99 -4 3.98 -4 5 C-3.01 5 -2.02 5 -1 5 C-0.67 3.35 -0.34 1.7 0 0 Z " fill="#53BEDE" transform="translate(47,89)"/>
<path d="M0 0 C0.22429687 0.64453125 0.44859375 1.2890625 0.6796875 1.953125 C1.82889456 4.24388852 1.82889456 4.24388852 4.3828125 4.609375 C5.74019531 4.67898437 5.74019531 4.67898437 7.125 4.75 C8.03507812 4.80671875 8.94515625 4.8634375 9.8828125 4.921875 C10.58148438 4.94765625 11.28015625 4.9734375 12 5 C11.01 5.33 10.02 5.66 9 6 C9.33 7.65 9.66 9.3 10 11 C8.68 11 7.36 11 6 11 C6 11.66 6 12.32 6 13 C5.01 13 4.02 13 3 13 C2.67 13.66 2.34 14.32 2 15 C0.68 15 -0.64 15 -2 15 C-2.05386629 12.87527424 -2.09273071 10.75016348 -2.125 8.625 C-2.14820312 7.44164063 -2.17140625 6.25828125 -2.1953125 5.0390625 C-2 2 -2 2 0 0 Z " fill="#6B6FFE" transform="translate(104,109)"/>
<path d="M0 0 C0.33 0 0.66 0 1 0 C1 3.96 1 7.92 1 12 C-5.93 12 -12.86 12 -20 12 C-20 11.01 -20 10.02 -20 9 C-18.35 9 -16.7 9 -15 9 C-14.67 8.34 -14.34 7.68 -14 7 C-13.34 7.66 -12.68 8.32 -12 9 C-11.45730469 8.72285156 -10.91460937 8.44570312 -10.35546875 8.16015625 C-9.64003906 7.79792969 -8.92460937 7.43570313 -8.1875 7.0625 C-7.47980469 6.70285156 -6.77210937 6.34320313 -6.04296875 5.97265625 C-4 5 -4 5 -1 4 C-0.26676204 1.98491642 -0.26676204 1.98491642 0 0 Z " fill="#38D7C8" transform="translate(33,68)"/>
<path d="M0 0 C1.32 0 2.64 0 4 0 C4 5.61 4 11.22 4 17 C4.99 17 5.98 17 7 17 C7 18.65 7 20.3 7 22 C4.69 22 2.38 22 0 22 C0 14.74 0 7.48 0 0 Z " fill="#41448E" transform="translate(26,80)"/>
<path d="M0 0 C0.83265381 0.00523682 1.66530762 0.01047363 2.52319336 0.01586914 C3.42231445 0.0190918 4.32143555 0.02231445 5.24780273 0.02563477 C6.66609375 0.03820312 6.66609375 0.03820312 8.11303711 0.05102539 C9.06243164 0.05553711 10.01182617 0.06004883 10.98999023 0.06469727 C13.34356776 0.07652429 15.69702188 0.09300514 18.05053711 0.11352539 C17.72053711 1.76352539 17.39053711 3.41352539 17.05053711 5.11352539 C10.78053711 5.11352539 4.51053711 5.11352539 -1.94946289 5.11352539 C-2.27946289 3.79352539 -2.60946289 2.47352539 -2.94946289 1.11352539 C-1.94946289 0.11352539 -1.94946289 0.11352539 0 0 Z " fill="#34D0D5" transform="translate(15.949462890625,31.886474609375)"/>
<path d="M0 0 C0.02685095 2.47923801 0.04676547 4.9581884 0.0625 7.4375 C0.07087891 8.14455078 0.07925781 8.85160156 0.08789062 9.58007812 C0.09653588 11.38693559 0.05220011 13.19387603 0 15 C-1 16 -1 16 -3.50390625 16.09765625 C-4.51324219 16.08605469 -5.52257812 16.07445313 -6.5625 16.0625 C-7.57441406 16.05347656 -8.58632812 16.04445313 -9.62890625 16.03515625 C-10.41136719 16.02355469 -11.19382812 16.01195313 -12 16 C-11.67 13.69 -11.34 11.38 -11 9 C-7.98968256 8.06576355 -7.13349732 7.95550089 -4 9 C-3.87625 7.700625 -3.7525 6.40125 -3.625 5.0625 C-3.4140625 2.84765625 -3.4140625 2.84765625 -3 1 C-1 0 -1 0 0 0 Z " fill="#35DEC3" transform="translate(135,47)"/>
<path d="M0 0 C1.93166016 0.01740234 1.93166016 0.01740234 3.90234375 0.03515625 C5.19269531 0.04417969 6.48304687 0.05320312 7.8125 0.0625 C8.81152344 0.07410156 9.81054688 0.08570312 10.83984375 0.09765625 C9.90011719 0.78794922 9.90011719 0.78794922 8.94140625 1.4921875 C6.8353093 3.01718874 6.8353093 3.01718874 5.21484375 4.78515625 C3.83984375 6.09765625 3.83984375 6.09765625 1.83984375 6.09765625 C1.83984375 6.75765625 1.83984375 7.41765625 1.83984375 8.09765625 C0.8613418 9.11870176 -0.13996052 10.11826835 -1.16015625 11.09765625 C-1.49015625 11.75765625 -1.82015625 12.41765625 -2.16015625 13.09765625 C-2.82015625 13.09765625 -3.48015625 13.09765625 -4.16015625 13.09765625 C-4.18702178 11.11856227 -4.20649 9.13936654 -4.22265625 7.16015625 C-4.23425781 6.05800781 -4.24585937 4.95585938 -4.2578125 3.8203125 C-4.11749553 -0.09172464 -3.97435676 0.12281696 0 0 Z " fill="#40C2EE" transform="translate(109.16015625,95.90234375)"/>
<path d="M0 0 C13.53 0 27.06 0 41 0 C41.495 0.99 41.495 0.99 42 2 C28.8 2 15.6 2 2 2 C2 2.66 2 3.32 2 4 C1.34 4 0.68 4 0 4 C0 2.68 0 1.36 0 0 Z " fill="#33D1D4" transform="translate(42,45)"/>
<path d="M0 0 C2.64 0 5.28 0 8 0 C8.3690205 9.41002278 8.3690205 9.41002278 6 14 C5.34 14 4.68 14 4 14 C3.67 11.69 3.34 9.38 3 7 C2.01 7 1.02 7 0 7 C0 4.69 0 2.38 0 0 Z " fill="#39C3D4" transform="translate(26,59)"/>
<path d="M0 0 C1.32 0 2.64 0 4 0 C4 6.6 4 13.2 4 20 C2.68 19.67 1.36 19.34 0 19 C0 12.73 0 6.46 0 0 Z " fill="#3E3E8B" transform="translate(115,63)"/>
<path d="M0 0 C7.59 0 15.18 0 23 0 C23 0.33 23 0.66 23 1 C17.06 1.495 17.06 1.495 11 2 C11 3.65 11 5.3 11 7 C11.66 7 12.32 7 13 7 C13 9 13 9 11.5 10.625 C11.005 11.07875 10.51 11.5325 10 12 C6.125 10.25 6.125 10.25 5 8 C5.66 8 6.32 8 7 8 C6.67 7.401875 6.34 6.80375 6 6.1875 C5 4 5 4 5 1 C3.35 1 1.7 1 0 1 C0 0.67 0 0.34 0 0 Z " fill="#8AE0E4" transform="translate(111,46)"/>
<path d="M0 0 C1.67542976 0.28604898 3.34385343 0.61781233 5 1 C5.97477898 4.72188336 6.12816587 6.64248468 4.8125 10.3125 C3 13 3 13 0.88671875 13.66796875 C0.26410156 13.77753906 -0.35851562 13.88710938 -1 14 C-1.02685938 11.85423363 -1.04633088 9.70837355 -1.0625 7.5625 C-1.07410156 6.36753906 -1.08570312 5.17257813 -1.09765625 3.94140625 C-1 1 -1 1 0 0 Z " fill="#32C6DF" transform="translate(106,33)"/>
<path d="M0 0 C0.08153933 1.58246707 0.13943557 3.16616273 0.1875 4.75 C0.22230469 5.63171875 0.25710937 6.5134375 0.29296875 7.421875 C-0.05076316 10.44671583 -1.00227459 11.75583602 -3 14 C-3 12.68 -3 11.36 -3 10 C-5.64 10 -8.28 10 -11 10 C-10.34 8.02 -9.68 6.04 -9 4 C-8.01 4.33 -7.02 4.66 -6 5 C-5.67 4.01 -5.34 3.02 -5 2 C-2 0 -2 0 0 0 Z " fill="#655DFF" transform="translate(127,86)"/>
<path d="M0 0 C8.58 0 17.16 0 26 0 C25.67 0.99 25.34 1.98 25 3 C17.08 3 9.16 3 1 3 C0.67 2.01 0.34 1.02 0 0 Z " fill="#4C4CA0" transform="translate(101,124)"/>
<path d="M0 0 C0.99 0.33 1.98 0.66 3 1 C3 4.3 3 7.6 3 11 C1.4325 11.061875 -0.135 11.12375 -1.75 11.1875 C-2.63171875 11.22230469 -3.5134375 11.25710937 -4.421875 11.29296875 C-7.44671583 10.94923684 -8.75583602 9.99772541 -11 8 C-8.35261084 6.5393715 -7.10551666 6 -4 6 C-3.67 5.34 -3.34 4.68 -3 4 C-2.01 4 -1.02 4 0 4 C0 2.68 0 1.36 0 0 Z " fill="#758DFE" transform="translate(112,71)"/>
<path d="M0 0 C13.53 0 27.06 0 41 0 C41 0.33 41 0.66 41 1 C33.08 1.33 25.16 1.66 17 2 C17 2.33 17 2.66 17 3 C10.73 3 4.46 3 -2 3 C-1.34 2.67 -0.68 2.34 0 2 C0 1.34 0 0.68 0 0 Z " fill="#359DC4" transform="translate(44,47)"/>
<path d="M0 0 C3.96 0 7.92 0 12 0 C10.02 0.99 10.02 0.99 8 2 C8.20625 2.763125 8.4125 3.52625 8.625 4.3125 C9 7 9 7 7 10 C5.35 9.67 3.7 9.34 2 9 C1.34 6.03 0.68 3.06 0 0 Z " fill="#70D4E3" transform="translate(110,33)"/>
<path d="M0 0 C-3.625 4.875 -3.625 4.875 -7 6 C-7 6.66 -7 7.32 -7 8 C-7.66 8 -8.32 8 -9 8 C-9 8.66 -9 9.32 -9 10 C-10.32 10 -11.64 10 -13 10 C-12.49396008 7.83125748 -12.00016187 6.00032373 -11 4 C-12.32 3.34 -13.64 2.68 -15 2 C-15 1.67 -15 1.34 -15 1 C-9.9752761 0.37470103 -5.07471573 -0.13012092 0 0 Z " fill="#5F4FFB" transform="translate(125,86)"/>
<path d="M0 0 C0.66 0.33 1.32 0.66 2 1 C2 6.28 2 11.56 2 17 C0.68 17 -0.64 17 -2 17 C-2 11.72 -2 6.44 -2 1 C-1.34 0.67 -0.68 0.34 0 0 Z " fill="#6E7BFE" transform="translate(125,95)"/>
<path d="M0 0 C1.24716797 0.00322266 2.49433594 0.00644531 3.77929688 0.00976562 C5.07287109 0.01814453 6.36644531 0.02652344 7.69921875 0.03515625 C9.66858398 0.04192383 9.66858398 0.04192383 11.67773438 0.04882812 C14.91410885 0.06059676 18.15039053 0.07703865 21.38671875 0.09765625 C21.05671875 0.75765625 20.72671875 1.41765625 20.38671875 2.09765625 C19.73074707 2.11747559 19.07477539 2.13729492 18.39892578 2.15771484 C15.43610806 2.25278132 12.47401343 2.36253377 9.51171875 2.47265625 C7.96291016 2.5190625 7.96291016 2.5190625 6.3828125 2.56640625 C4.90361328 2.62441406 4.90361328 2.62441406 3.39453125 2.68359375 C2.4833252 2.71501465 1.57211914 2.74643555 0.63330078 2.77880859 C-1.81259311 2.89648136 -1.81259311 2.89648136 -3.61328125 5.09765625 C-6.34197532 5.06478042 -8.90994305 4.53367854 -11.61328125 4.09765625 C-11.61328125 3.10765625 -11.61328125 2.11765625 -11.61328125 1.09765625 C-7.68039761 0.16677716 -4.03673962 -0.0184326 0 0 Z " fill="#D9D9E8" transform="translate(106.61328125,125.90234375)"/>
<path d="M0 0 C0.33 0.66 0.66 1.32 1 2 C0.34 2 -0.32 2 -1 2 C-1 2.66 -1 3.32 -1 4 C-3.31 3.67 -5.62 3.34 -8 3 C-8.33 3.99 -8.66 4.98 -9 6 C-9.33 5.01 -9.66 4.02 -10 3 C-10.66 3 -11.32 3 -12 3 C-12.33 4.65 -12.66 6.3 -13 8 C-13.99 8 -14.98 8 -16 8 C-16.625 6.125 -16.625 6.125 -17 4 C-12.31059412 -0.68940588 -6.19513992 -0.2478056 0 0 Z " fill="#40B1DF" transform="translate(59,86)"/>
<path d="M0 0 C1.32 0.66 2.64 1.32 4 2 C4 3.98 4 5.96 4 8 C-0.29 8 -4.58 8 -9 8 C-4.375 3.125 -4.375 3.125 -1 2 C-0.67 1.34 -0.34 0.68 0 0 Z " fill="#39C7D7" transform="translate(115,55)"/>
<path d="M0 0 C3.63 0 7.26 0 11 0 C11.66 1.32 12.32 2.64 13 4 C9.98509443 5.00496852 7.95818308 5.10335303 4.8125 5.0625 C3.46091797 5.04896484 3.46091797 5.04896484 2.08203125 5.03515625 C1.39496094 5.02355469 0.70789063 5.01195312 0 5 C0 3.35 0 1.7 0 0 Z " fill="#35ADC5" transform="translate(105,49)"/>
<path d="M0 0 C1.65 0 3.3 0 5 0 C5 1.65 5 3.3 5 5 C5.66 5.33 6.32 5.66 7 6 C3.7 6.33 0.4 6.66 -3 7 C-3 7.33 -3 7.66 -3 8 C-5.31 8 -7.62 8 -10 8 C-10 7.34 -10 6.68 -10 6 C-8.72125 5.7525 -7.4425 5.505 -6.125 5.25 C-2.73252682 4.48009414 -2.73252682 4.48009414 -0.5 1.875 C-0.335 1.25625 -0.17 0.6375 0 0 Z " fill="#AECCFE" transform="translate(61,113)"/>
<path d="M0 0 C0.66 0 1.32 0 2 0 C2.02689216 1.47906892 2.04634621 2.95827483 2.0625 4.4375 C2.07410156 5.26121094 2.08570312 6.08492188 2.09765625 6.93359375 C2 9 2 9 1 10 C-0.51928038 10.07179964 -2.04167482 10.08392007 -3.5625 10.0625 C-4.38878906 10.05347656 -5.21507813 10.04445313 -6.06640625 10.03515625 C-6.70449219 10.02355469 -7.34257813 10.01195313 -8 10 C-8 9.34 -8 8.68 -8 8 C-6.68 7.67 -5.36 7.34 -4 7 C-4 6.34 -4 5.68 -4 5 C-3.01 4.34 -2.02 3.68 -1 3 C-0.67 2.01 -0.34 1.02 0 0 Z " fill="#37DCC8" transform="translate(121,104)"/>
<path d="M0 0 C2.31 0 4.62 0 7 0 C7 2.31 7 4.62 7 7 C5.02 7.33 3.04 7.66 1 8 C0.67 8.99 0.34 9.98 0 11 C0 7.37 0 3.74 0 0 Z " fill="#5936FF" transform="translate(102,86)"/>
<path d="M0 0 C0 0.99 0 1.98 0 3 C-5.28 3 -10.56 3 -16 3 C-16.33 2.01 -16.66 1.02 -17 0 C-11.0885256 -0.77313045 -5.8685408 -1.14819277 0 0 Z " fill="#44D6D0" transform="translate(50,102)"/>
<path d="M0 0 C5.41538462 -0.36923077 5.41538462 -0.36923077 8.375 1.5 C8.91125 1.995 9.4475 2.49 10 3 C10.33 2.01 10.66 1.02 11 0 C10.67 1.65 10.34 3.3 10 5 C6.7 5 3.4 5 0 5 C0 3.35 0 1.7 0 0 Z " fill="#34ACC5" transform="translate(33,97)"/>
<path d="M0 0 C0.99 0 1.98 0 3 0 C3.04241723 2.33294775 3.04092937 4.66702567 3 7 C2 8 2 8 0.15234375 8.09765625 C-1.8984375 8.06510417 -3.94921875 8.03255208 -6 8 C-6 7.34 -6 6.68 -6 6 C-5.195625 5.525625 -4.39125 5.05125 -3.5625 4.5625 C-0.7081924 3.20016328 -0.7081924 3.20016328 0 0 Z " fill="#36DEC2" transform="translate(57,97)"/>
<path d="M0 0 C4.62 0 9.24 0 14 0 C14.33 1.32 14.66 2.64 15 4 C12.03 4 9.06 4 6 4 C6 3.67 6 3.34 6 3 C4.02 2.34 2.04 1.68 0 1 C0 0.67 0 0.34 0 0 Z " fill="#5EDAD6" transform="translate(83,45)"/>
<path d="M0 0 C1.6875 1.8125 1.6875 1.8125 3 4 C2.67 4.99 2.34 5.98 2 7 C1.34 7 0.68 7 0 7 C0 7.66 0 8.32 0 9 C-0.66 9 -1.32 9 -2 9 C-2 8.01 -2 7.02 -2 6 C-2.66 6 -3.32 6 -4 6 C-4 4.35 -4 2.7 -4 1 C-2 0 -2 0 0 0 Z " fill="#8FDDE8" transform="translate(52,91)"/>
<path d="M0 0 C1.23556641 0.01740234 1.23556641 0.01740234 2.49609375 0.03515625 C3.32238281 0.04417969 4.14867187 0.05320312 5 0.0625 C5.63808594 0.07410156 6.27617188 0.08570312 6.93359375 0.09765625 C6.60359375 0.75765625 6.27359375 1.41765625 5.93359375 2.09765625 C4.72703125 2.25234375 4.72703125 2.25234375 3.49609375 2.41015625 C2.65046875 2.63703125 1.80484375 2.86390625 0.93359375 3.09765625 C-0.4410725 5.57401637 -0.4410725 5.57401637 -1.06640625 8.09765625 C-1.72640625 8.09765625 -2.38640625 8.09765625 -3.06640625 8.09765625 C-3.10882348 5.7647085 -3.10733562 3.43063058 -3.06640625 1.09765625 C-2.06640625 0.09765625 -2.06640625 0.09765625 0 0 Z " fill="#4696EB" transform="translate(36.06640625,85.90234375)"/>
<path d="M0 0 C1.37478516 0.01740234 1.37478516 0.01740234 2.77734375 0.03515625 C3.69644531 0.04417969 4.61554688 0.05320312 5.5625 0.0625 C6.27277344 0.07410156 6.98304687 0.08570312 7.71484375 0.09765625 C4.71484375 2.09765625 4.71484375 2.09765625 1.71484375 2.09765625 C1.71484375 2.75765625 1.71484375 3.41765625 1.71484375 4.09765625 C0.04817708 5.76432292 -1.61848958 7.43098958 -3.28515625 9.09765625 C-3.3828125 2.9453125 -3.3828125 2.9453125 -3.28515625 1.09765625 C-2.28515625 0.09765625 -2.28515625 0.09765625 0 0 Z " fill="#45B4F5" transform="translate(108.28515625,95.90234375)"/>
<path d="M0 0 C2.64 0 5.28 0 8 0 C6.76210371 3.71368887 5.14775123 4.77354181 2 7 C1.34 7 0.68 7 0 7 C0 4.69 0 2.38 0 0 Z " fill="#3CAFCF" transform="translate(26,59)"/>
<path d="M0 0 C2.69082872 0.17635452 5.32851446 0.61835921 8 1 C8 2.32 8 3.64 8 5 C5.36 5 2.72 5 0 5 C-0.5625 3.0625 -0.5625 3.0625 -1 1 C-0.67 0.67 -0.34 0.34 0 0 Z " fill="#31C7DE" transform="translate(14,32)"/>
<path d="M0 0 C2.64 0 5.28 0 8 0 C8 1.98 8 3.96 8 6 C7.67 5.34 7.34 4.68 7 4 C6.01 4 5.02 4 4 4 C4 4.66 4 5.32 4 6 C3.01 6 2.02 6 1 6 C0.67 4.02 0.34 2.04 0 0 Z " fill="#3CCCDC" transform="translate(18,59)"/>
<path d="M0 0 C0.97582031 0.00902344 1.95164062 0.01804687 2.95703125 0.02734375 C3.69308594 0.03894531 4.42914063 0.05054687 5.1875 0.0625 C5.5175 1.0525 5.8475 2.0425 6.1875 3.0625 C0.9075 3.0625 -4.3725 3.0625 -9.8125 3.0625 C-10.1425 2.4025 -10.4725 1.7425 -10.8125 1.0625 C-7.13862505 0.20951624 -3.7677607 -0.04539471 0 0 Z " fill="#9AC0FE" transform="translate(67.8125,117.9375)"/>
<path d="M0 0 C6.43255401 -0.12086218 12.61773055 0.17648136 19 1 C19 1.33 19 1.66 19 2 C13.39 2 7.78 2 2 2 C2 2.66 2 3.32 2 4 C1.34 4 0.68 4 0 4 C0 2.68 0 1.36 0 0 Z " fill="#31C4DE" transform="translate(42,45)"/>
<path d="M0 0 C0.66 0 1.32 0 2 0 C1.69128878 1.79232337 1.37790936 3.58384321 1.0625 5.375 C0.88847656 6.37273437 0.71445312 7.37046875 0.53515625 8.3984375 C0 11 0 11 -1 13 C-1.66 13 -2.32 13 -3 13 C-2.52060632 8.28596212 -2.03165952 4.33420699 0 0 Z " fill="#D8F2F6" transform="translate(47,89)"/>
<path d="M0 0 C-0.625 2.4375 -0.625 2.4375 -2 5 C-5.125 5.8125 -5.125 5.8125 -8 6 C-8 4.68 -8 3.36 -8 2 C-4.91190305 0.23537317 -3.76687864 0 0 0 Z " fill="#34CDD8" transform="translate(126,33)"/>
<path d="M0 0 C1.67542976 0.28604898 3.34385343 0.61781233 5 1 C4.67 2.32 4.34 3.64 4 5 C2.68 5.33 1.36 5.66 0 6 C-0.38218767 4.34385343 -0.71395102 2.67542976 -1 1 C-0.67 0.67 -0.34 0.34 0 0 Z " fill="#49CFDB" transform="translate(22,67)"/>
<path d="M0 0 C1.98 0.99 1.98 0.99 4 2 C4 3.98 4 5.96 4 8 C2.68 7.67 1.36 7.34 0 7 C0 4.69 0 2.38 0 0 Z " fill="#34C1C5" transform="translate(115,55)"/>
<path d="M0 0 C3.68754757 0.49831724 5.60490662 1.10067643 8 4 C7.01 4 6.02 4 5 4 C4.67 4.99 4.34 5.98 4 7 C0 2.25 0 2.25 0 0 Z " fill="#43CBD8" transform="translate(51,89)"/>
<path d="M0 0 C-0.99 0.495 -0.99 0.495 -2 1 C-2 1.66 -2 2.32 -2 3 C-4.31 2.67 -6.62 2.34 -9 2 C-9.33 2.99 -9.66 3.98 -10 5 C-10.33 3.68 -10.66 2.36 -11 1 C-6.87831311 -0.62950412 -4.29299643 -1.26264601 0 0 Z " fill="#3DBEDA" transform="translate(60,87)"/>
<path d="M0 0 C0.66 0 1.32 0 2 0 C2 1.65 2 3.3 2 5 C2.66 5.33 3.32 5.66 4 6 C3.01 7.485 3.01 7.485 2 9 C-1.875 7.25 -1.875 7.25 -3 5 C-2.01 5 -1.02 5 0 5 C0 3.35 0 1.7 0 0 Z " fill="#EFFAFA" transform="translate(119,49)"/>
<path d="M0 0 C1.32 1.32 2.64 2.64 4 4 C3 5 3 5 1.15234375 5.09765625 C-0.8984375 5.06510417 -2.94921875 5.03255208 -5 5 C-5 4.01 -5 3.02 -5 2 C-3.35 2 -1.7 2 0 2 C0 1.34 0 0.68 0 0 Z " fill="#34D4D0" transform="translate(18,75)"/>
<path d="M0 0 C0.99 0 1.98 0 3 0 C3.33 0.66 3.66 1.32 4 2 C6.02463255 2.65213292 6.02463255 2.65213292 8 3 C8 3.66 8 4.32 8 5 C7.34 5 6.68 5 6 5 C5.67 5.99 5.34 6.98 5 8 C4.7525 7.38125 4.505 6.7625 4.25 6.125 C2.79371361 3.64931313 1.62187494 3.04874998 -1 2 C-0.67 1.34 -0.34 0.68 0 0 Z " fill="#FAFDFE" transform="translate(22,63)"/>
<path d="M0 0 C2.97 0 5.94 0 9 0 C8.01 1.485 8.01 1.485 7 3 C3.875 3.1875 3.875 3.1875 1 3 C0.67 2.01 0.34 1.02 0 0 Z " fill="#50CFDA" transform="translate(33,102)"/>
<path d="M0 0 C2.33944736 0.28730055 4.6739143 0.61936779 7 1 C6.01 1.66 5.02 2.32 4 3 C3.01 4.485 3.01 4.485 2 6 C1.34 6 0.68 6 0 6 C-0.38218767 4.34385343 -0.71395102 2.67542976 -1 1 C-0.67 0.67 -0.34 0.34 0 0 Z " fill="#D8F1F7" transform="translate(18,65)"/>
<path d="M0 0 C0.99 0.99 1.98 1.98 3 3 C1.68 3 0.36 3 -1 3 C-1 3.66 -1 4.32 -1 5 C-1.99 4.67 -2.98 4.34 -4 4 C-2.68 2.68 -1.36 1.36 0 0 Z M-8 5 C-7.01 5 -6.02 5 -5 5 C-5 5.66 -5 6.32 -5 7 C-5.99 7 -6.98 7 -8 7 C-8 6.34 -8 5.68 -8 5 Z " fill="#6E79FE" transform="translate(111,117)"/>
<path d="M0 0 C1.125 1.6875 1.125 1.6875 2 4 C1.125 6.75 1.125 6.75 0 9 C-0.66 8.67 -1.32 8.34 -2 8 C-2.125 5.125 -2.125 5.125 -2 2 C-1.34 1.34 -0.68 0.68 0 0 Z " fill="#6661FF" transform="translate(104,109)"/>
<path d="M0 0 C2.125 0.9375 2.125 0.9375 4 2 C4 2.33 4 2.66 4 3 C-0.29 3 -4.58 3 -9 3 C-9 2.34 -9 1.68 -9 1 C-7.88625 1.020625 -6.7725 1.04125 -5.625 1.0625 C-2.16784079 1.26380718 -2.16784079 1.26380718 0 0 Z " fill="#88CBDE" transform="translate(107,46)"/>
<path d="M0 0 C0.66 0.33 1.32 0.66 2 1 C2 2.65 2 4.3 2 6 C-0.31 6 -2.62 6 -5 6 C-4.360625 5.38125 -3.72125 4.7625 -3.0625 4.125 C-0.96116416 2.17402388 -0.96116416 2.17402388 0 0 Z " fill="#7A9BFE" transform="translate(125,118)"/>
<path d="M0 0 C2.97 0.495 2.97 0.495 6 1 C5.67 2.32 5.34 3.64 5 5 C2.03 4.505 2.03 4.505 -1 4 C-0.67 2.68 -0.34 1.36 0 0 Z " fill="#40CEDA" transform="translate(16,73)"/>
<path d="M0 0 C0.99 0 1.98 0 3 0 C3.33 1.32 3.66 2.64 4 4 C2.35 4.66 0.7 5.32 -1 6 C-0.67 4.02 -0.34 2.04 0 0 Z " fill="#36C2C6" transform="translate(47,97)"/>
<path d="M0 0 C0.66 0.33 1.32 0.66 2 1 C2 1.99 2 2.98 2 4 C-0.97 4 -3.94 4 -7 4 C-4.61426621 2.10786631 -2.92824652 0.97608217 0 0 Z " fill="#4DD8D3" transform="translate(96,45)"/>
<path d="M0 0 C1.98 0 3.96 0 6 0 C5.34 1.32 4.68 2.64 4 4 C2.68 4 1.36 4 0 4 C0 2.68 0 1.36 0 0 Z " fill="#7ED9E6" transform="translate(113,39)"/>
<path d="M0 0 C0.99 0.33 1.98 0.66 3 1 C3.6875 3.0625 3.6875 3.0625 4 5 C2.35 4.67 0.7 4.34 -1 4 C-0.67 2.68 -0.34 1.36 0 0 Z " fill="#BED7FF" transform="translate(82,113)"/>
<path d="M0 0 C0 0.99 0 1.98 0 3 C0.3062434 4.33981486 0.63451555 5.67511887 1 7 C-0.32 6.34 -1.64 5.68 -3 5 C-3 4.01 -3 3.02 -3 2 C-2.01 1.34 -1.02 0.68 0 0 Z " fill="#E8F5F9" transform="translate(41,92)"/>
</svg>
