<?xml version="1.0" encoding="UTF-8"?>
<svg version="1.1" xmlns="http://www.w3.org/2000/svg" width="150" height="150">
<path d="M0 0 C4.95 0.99 4.95 0.99 10 2 C9.9071875 3.3921875 9.9071875 3.3921875 9.8125 4.8125 C9.75470649 7.91254753 9.75470649 7.91254753 11.125 9.9375 C13.92670027 11.52513015 15.96985644 10.74070176 19 10 C19.495 12.475 19.495 12.475 20 15 C20.85464844 14.98839844 21.70929688 14.97679687 22.58984375 14.96484375 C23.69457031 14.95582031 24.79929687 14.94679688 25.9375 14.9375 C27.03964844 14.92589844 28.14179688 14.91429687 29.27734375 14.90234375 C32 15 32 15 33 16 C33.15825258 17.99782126 33.25119171 20.00088834 33.31640625 22.00390625 C33.37924805 23.82631836 33.37924805 23.82631836 33.44335938 25.68554688 C33.48267578 26.96494141 33.52199219 28.24433594 33.5625 29.5625 C33.60568359 30.84576172 33.64886719 32.12902344 33.69335938 33.45117188 C33.799848 36.63399853 33.90185962 39.81690674 34 43 C35.98 43 37.96 43 40 43 C41.06351675 46.38391693 41.21442982 47.5804634 39.5625 50.8125 C39.046875 51.534375 38.53125 52.25625 38 53 C38.99 53.33 39.98 53.66 41 54 C40.34 55.32 39.68 56.64 39 58 C36.69 58 34.38 58 32 58 C32 58.99 32 59.98 32 61 C30.02 61 28.04 61 26 61 C25.505 59.02 25.505 59.02 25 57 C23.35 56.67 21.7 56.34 20 56 C18.9673198 53.21176345 18.95490707 52.1322726 19.9375 49.25 C20.288125 48.5075 20.63875 47.765 21 47 C19.68 46.34 18.36 45.68 17 45 C17 51.6 17 58.2 17 65 C19.31 65 21.62 65 24 65 C25 66 25 66 25.11352539 69.96899414 C25.1133662 71.74105607 25.10766785 73.5131226 25.09765625 75.28515625 C25.0962413 76.21597519 25.09482635 77.14679413 25.09336853 78.1058197 C25.08775172 81.09141191 25.0751964 84.07693029 25.0625 87.0625 C25.05748716 89.08137913 25.05292388 91.10025943 25.04882812 93.11914062 C25.03777683 98.07945572 25.02050095 103.03971532 25 108 C27.31 108.66 29.62 109.32 32 110 C31 112 31 112 29.34521484 112.61450195 C24.49200924 113.41225457 19.54404055 113.18590312 14.63769531 113.18530273 C12.63863013 113.18748512 10.63960468 113.20599143 8.640625 113.22460938 C7.36960937 113.22654297 6.09859375 113.22847656 4.7890625 113.23046875 C3.63100098 113.23457764 2.47293945 113.23868652 1.27978516 113.24291992 C-2.11310954 112.99162245 -4.83332989 112.21173908 -8 111 C-7.67 110.34 -7.34 109.68 -7 109 C-4.4375 108.375 -4.4375 108.375 -2 108 C-2.67857056 107.99191315 -3.35714111 107.98382629 -4.05627441 107.97549438 C-11.19572947 107.88863335 -18.33493245 107.7891071 -25.47412109 107.68261719 C-28.12938188 107.64363425 -30.7845665 107.60971702 -33.43994141 107.578125 C-71.93926359 107.11445232 -71.93926359 107.11445232 -79 103 C-78.67 102.34 -78.34 101.68 -78 101 C-77.01 101 -76.02 101 -75 101 C-75 100.01 -75 99.02 -75 98 C-76.6396875 98.495 -76.6396875 98.495 -78.3125 99 C-82 100 -82 100 -85 100 C-87.25 98.4375 -87.25 98.4375 -89 96 C-88.75 92.25 -88.75 92.25 -88 89 C-89.65 88.67 -91.3 88.34 -93 88 C-93 85.69 -93 83.38 -93 81 C-92.030625 80.71125 -91.06125 80.4225 -90.0625 80.125 C-86.89335797 79.35785318 -86.89335797 79.35785318 -86 77 C-86.39938767 74.90178785 -86.39938767 74.90178785 -87 73 C-84.69 72.01 -82.38 71.02 -80 70 C-79.67 71.32 -79.34 72.64 -79 74 C-78.01 74 -77.02 74 -76 74 C-76 71.03 -76 68.06 -76 65 C-82.27 65 -88.54 65 -95 65 C-95 64.34 -95 63.68 -95 63 C-92.03 62.505 -92.03 62.505 -89 62 C-89 61.01 -89 60.02 -89 59 C-90.98 59 -92.96 59 -95 59 C-95 58.34 -95 57.68 -95 57 C-93.02 57 -91.04 57 -89 57 C-89 55.68 -89 54.36 -89 53 C-90.98 53 -92.96 53 -95 53 C-95 52.34 -95 51.68 -95 51 C-93.02 51 -91.04 51 -89 51 C-89 49.68 -89 48.36 -89 47 C-90.98 47 -92.96 47 -95 47 C-95 46.34 -95 45.68 -95 45 C-93.02 45 -91.04 45 -89 45 C-89 44.01 -89 43.02 -89 42 C-90.98 41.67 -92.96 41.34 -95 41 C-95 40.67 -95 40.34 -95 40 C-88.73 40 -82.46 40 -76 40 C-76 38.35 -76 36.7 -76 35 C-82.27 35 -88.54 35 -95 35 C-95 34.67 -95 34.34 -95 34 C-92.525 33.505 -92.525 33.505 -90 33 C-89.67 31.68 -89.34 30.36 -89 29 C-90.98 29 -92.96 29 -95 29 C-95 28.67 -95 28.34 -95 28 C-93.35 27.67 -91.7 27.34 -90 27 C-89.67 25.68 -89.34 24.36 -89 23 C-90.98 23 -92.96 23 -95 23 C-95 22.67 -95 22.34 -95 22 C-93.35 21.67 -91.7 21.34 -90 21 C-89.67 19.68 -89.34 18.36 -89 17 C-90.98 17 -92.96 17 -95 17 C-95 16.67 -95 16.34 -95 16 C-89.11060037 13.95887931 -83.8280285 13.72721958 -77.625 13.8125 C-76.25408203 13.8134668 -76.25408203 13.8134668 -74.85546875 13.81445312 C-68.14064837 13.85935163 -68.14064837 13.85935163 -67 15 C-64.19023482 15.16017166 -61.40226404 15.25950534 -58.58984375 15.31640625 C-57.74780899 15.33718735 -56.90577423 15.35796844 -56.03822327 15.37937927 C-53.33806821 15.44496812 -50.63781283 15.50380276 -47.9375 15.5625 C-46.11131759 15.60567637 -44.28514546 15.64929036 -42.45898438 15.69335938 C-37.97276008 15.80065894 -33.4864345 15.90189966 -29 16 C-29 16.33 -29 16.66 -29 17 C-41.87 17 -54.74 17 -68 17 C-67.67 18.32 -67.34 19.64 -67 21 C-54.46 21.33 -41.92 21.66 -29 22 C-29 22.33 -29 22.66 -29 23 C-41.87 23 -54.74 23 -68 23 C-67.67 24.32 -67.34 25.64 -67 27 C-51.16 27 -35.32 27 -19 27 C-19.33 25.35 -19.66 23.7 -20 22 C-19.195625 21.79375 -18.39125 21.5875 -17.5625 21.375 C-14.70048201 20.21429571 -14.70048201 20.21429571 -14 17.0625 C-13.6894464 14.01129787 -13.6894464 14.01129787 -15.4375 12.125 C-15.953125 11.75375 -16.46875 11.3825 -17 11 C-15.70700306 8.11562221 -14.34058637 6.12780579 -12 4 C-11.484375 4.350625 -10.96875 4.70125 -10.4375 5.0625 C-7.05993333 6.3615641 -4.49531943 5.67217681 -1 5 C-0.67 3.35 -0.34 1.7 0 0 Z M-6 14.0625 C-8.51930235 17.76272533 -8.7066341 19.6031656 -8 24 C-6.59121904 26.9901643 -6.59121904 26.9901643 -4 29 C-0.35817665 29.89055736 -0.35817665 29.89055736 3 30 C3.03738281 29.01257813 3.07476562 28.02515625 3.11328125 27.0078125 C3.17902344 25.72648437 3.24476562 24.44515625 3.3125 23.125 C3.37050781 21.84882812 3.42851563 20.57265625 3.48828125 19.2578125 C3.65714844 18.18273437 3.82601562 17.10765625 4 16 C4.99 15.34 5.98 14.68 7 14 C5.01607489 11.60148679 5.01607489 11.60148679 1.1875 11.5625 C-2.21763815 11.661739 -3.029595 12.02034656 -6 14.0625 Z M-68 29 C-68 29.66 -68 30.32 -68 31 C-65.69 31 -63.38 31 -61 31 C-61 30.34 -61 29.68 -61 29 C-63.31 29 -65.62 29 -68 29 Z M25 47 C24.6366844 49.83386167 24.6431329 51.40522151 26.125 53.875 C28.92151052 55.55290631 30.93690532 54.74875648 34 54 C34.67673447 50.59679066 34.67673447 50.59679066 35 47 C33.11499729 44.68436913 33.11499729 44.68436913 30 44.75 C26.88500271 44.68436913 26.88500271 44.68436913 25 47 Z M-82.25 80.625 C-84.21985834 82.92308586 -84.21985834 82.92308586 -84.5 86 C-84.21376982 89.06575838 -84.21376982 89.06575838 -82.3125 91.375 C-79.61209763 93.27258004 -78.22939919 93.35882213 -75 93 C-74.85024761 85.94348748 -74.85024761 85.94348748 -76 79 C-79.92212225 78.60967296 -79.92212225 78.60967296 -82.25 80.625 Z M-68 95 C-68 96.65 -68 98.3 -68 100 C-55.13 99.01 -55.13 99.01 -42 98 C-41.67 97.01 -41.34 96.02 -41 95 C-49.91 95 -58.82 95 -68 95 Z M-17 95 C-17 95.99 -17 96.98 -17 98 C-11.72 98.33 -6.44 98.66 -1 99 C-1 97.68 -1 96.36 -1 95 C-6.28 95 -11.56 95 -17 95 Z " fill="#5E4FFD" transform="translate(102,18)"/>
<path d="M0 0 C2.31 0 4.62 0 7 0 C7 2.97 7 5.94 7 9 C10.3 9 13.6 9 17 9 C17 15.6 17 22.2 17 29 C12.71 29 8.42 29 4 29 C4.495 34.94 4.495 34.94 5 41 C5.99 40.01 6.98 39.02 8 38 C8.33 38.99 8.66 39.98 9 41 C11.58361518 41.05407567 14.16609255 41.093707 16.75 41.125 C17.84441406 41.15013672 17.84441406 41.15013672 18.9609375 41.17578125 C23.13521398 41.21372922 25.16970546 40.91514727 29 39 C29 49.89 29 60.78 29 72 C31.31 72.66 33.62 73.32 36 74 C35 76 35 76 33.34521484 76.61450195 C28.49200924 77.41225457 23.54404055 77.18590312 18.63769531 77.18530273 C16.63863013 77.18748512 14.63960468 77.20599143 12.640625 77.22460938 C11.36960937 77.22654297 10.09859375 77.22847656 8.7890625 77.23046875 C7.63100098 77.23457764 6.47293945 77.23868652 5.27978516 77.24291992 C1.88689046 76.99162245 -0.83332989 76.21173908 -4 75 C-3.67 74.34 -3.34 73.68 -3 73 C-0.4375 72.375 -0.4375 72.375 2 72 C1.32142944 71.99191315 0.64285889 71.98382629 -0.05627441 71.97549438 C-7.19572947 71.88863335 -14.33493245 71.7891071 -21.47412109 71.68261719 C-24.12938188 71.64363425 -26.7845665 71.60971702 -29.43994141 71.578125 C-67.93926359 71.11445232 -67.93926359 71.11445232 -75 67 C-74.505 66.01 -74.505 66.01 -74 65 C-73.01 65 -72.02 65 -71 65 C-71 64.01 -71 63.02 -71 62 C-72.6396875 62.495 -72.6396875 62.495 -74.3125 63 C-78 64 -78 64 -81 64 C-83.25 62.4375 -83.25 62.4375 -85 60 C-84.75 56.25 -84.75 56.25 -84 53 C-85.65 52.67 -87.3 52.34 -89 52 C-89 49.69 -89 47.38 -89 45 C-88.030625 44.71125 -87.06125 44.4225 -86.0625 44.125 C-82.89335797 43.35785318 -82.89335797 43.35785318 -82 41 C-82.39938767 38.90178785 -82.39938767 38.90178785 -83 37 C-80.69 36.01 -78.38 35.02 -76 34 C-75.67 35.32 -75.34 36.64 -75 38 C-74.01 38 -73.02 38 -72 38 C-72 39.65 -72 41.3 -72 43 C-72.969375 43.28875 -73.93875 43.5775 -74.9375 43.875 C-78.10664203 44.64214682 -78.10664203 44.64214682 -79 47 C-79.40270732 51.1283652 -79.40270732 51.1283652 -77.8125 54.8125 C-75.57968261 56.27538036 -73.62655933 56.64505955 -71 57 C-71 54.03 -71 51.06 -71 48 C-69.02 48 -67.04 48 -65 48 C-64.67 48.66 -64.34 49.32 -64 50 C-55.75 50 -47.5 50 -39 50 C-38.505 49.01 -38.505 49.01 -38 48 C-24.47 48 -10.94 48 3 48 C3 46.35 3 44.7 3 43 C-4.92 43 -12.84 43 -21 43 C-21 41.68 -21 40.36 -21 39 C-22.485 38.505 -22.485 38.505 -24 38 C-24 35.69 -24 33.38 -24 31 C-21.02148438 31.04882812 -21.02148438 31.04882812 -18.04296875 31.09765625 C-15.79694539 31.08263217 -15.79694539 31.08263217 -13 30 C-13.99 29.01 -13.99 29.01 -15 28 C-13.60974609 27.80083984 -13.60974609 27.80083984 -12.19140625 27.59765625 C-10.99386719 27.42105469 -9.79632813 27.24445313 -8.5625 27.0625 C-7.36753906 26.88847656 -6.17257813 26.71445313 -4.94140625 26.53515625 C-2.12044324 26.31014787 -2.12044324 26.31014787 -1 25 C-0.84213692 23.14825294 -0.74892644 21.2909089 -0.68359375 19.43359375 C-0.64169922 18.30888672 -0.59980469 17.18417969 -0.55664062 16.02539062 C-0.51732422 14.84138672 -0.47800781 13.65738281 -0.4375 12.4375 C-0.37272461 10.65569336 -0.37272461 10.65569336 -0.30664062 8.83789062 C-0.20016454 5.89205216 -0.09815159 2.9461257 0 0 Z M-64 59 C-64 60.65 -64 62.3 -64 64 C-51.13 63.01 -51.13 63.01 -38 62 C-37.67 61.01 -37.34 60.02 -37 59 C-45.91 59 -54.82 59 -64 59 Z M-13 59 C-13 59.99 -13 60.98 -13 62 C-7.72 62.33 -2.44 62.66 3 63 C3 61.68 3 60.36 3 59 C-2.28 59 -7.56 59 -13 59 Z " fill="#7285FD" transform="translate(98,54)"/>
<path d="M0 0 C0.66 1.32 1.32 2.64 2 4 C2.99 4 3.98 4 5 4 C5 5.65 5 7.3 5 9 C4.030625 9.28875 3.06125 9.5775 2.0625 9.875 C-1.10664203 10.64214682 -1.10664203 10.64214682 -2 13 C-2.40270732 17.1283652 -2.40270732 17.1283652 -0.8125 20.8125 C1.42031739 22.27538036 3.37344067 22.64505955 6 23 C6 20.03 6 17.06 6 14 C7.98 14 9.96 14 12 14 C12.33 14.66 12.66 15.32 13 16 C21.25 16 29.5 16 38 16 C38.33 15.34 38.66 14.68 39 14 C52.53 14 66.06 14 80 14 C80 17.63 80 21.26 80 25 C74.72 25 69.44 25 64 25 C64 25.99 64 26.98 64 28 C64.56847656 27.98839844 65.13695313 27.97679688 65.72265625 27.96484375 C70.60670484 27.90776806 75.18503965 28.18043228 80 29 C80 31.64 80 34.28 80 37 C72.71409984 37.04682155 65.42823335 37.08211748 58.14221191 37.10362434 C54.75718789 37.11395864 51.37226851 37.12792229 47.98730469 37.15087891 C9.5625541 37.39227608 9.5625541 37.39227608 2 33 C2.33 32.34 2.66 31.68 3 31 C3.99 31 4.98 31 6 31 C6 30.01 6 29.02 6 28 C4.906875 28.33 3.81375 28.66 2.6875 29 C-1 30 -1 30 -4 30 C-6.25 28.4375 -6.25 28.4375 -8 26 C-7.75 22.25 -7.75 22.25 -7 19 C-8.65 18.67 -10.3 18.34 -12 18 C-12 15.69 -12 13.38 -12 11 C-11.030625 10.71125 -10.06125 10.4225 -9.0625 10.125 C-5.89335797 9.35785318 -5.89335797 9.35785318 -5 7 C-5.39938767 4.90178785 -5.39938767 4.90178785 -6 3 C-4.02 2.01 -2.04 1.02 0 0 Z M13 25 C13 26.65 13 28.3 13 30 C25.87 29.01 25.87 29.01 39 28 C39.33 27.01 39.66 26.02 40 25 C31.09 25 22.18 25 13 25 Z " fill="#BAD5FE" transform="translate(21,88)"/>
<path d="M0 0 C16.83 0 33.66 0 51 0 C51 10.23 51 20.46 51 31 C34.17 31 17.34 31 0 31 C0 20.77 0 10.54 0 0 Z " fill="#474E94" transform="translate(44,47)"/>
<path d="M0 0 C4.95 0.99 4.95 0.99 10 2 C9.9071875 3.3921875 9.9071875 3.3921875 9.8125 4.8125 C9.75470649 7.91254753 9.75470649 7.91254753 11.125 9.9375 C13.92670027 11.52513015 15.96985644 10.74070176 19 10 C19.495 12.475 19.495 12.475 20 15 C21.28197266 14.98259766 21.28197266 14.98259766 22.58984375 14.96484375 C23.69457031 14.95582031 24.79929688 14.94679688 25.9375 14.9375 C27.03964844 14.92589844 28.14179688 14.91429687 29.27734375 14.90234375 C32 15 32 15 33 16 C33.15825258 17.99782126 33.25119171 20.00088834 33.31640625 22.00390625 C33.35830078 23.21884766 33.40019531 24.43378906 33.44335938 25.68554688 C33.48267578 26.96494141 33.52199219 28.24433594 33.5625 29.5625 C33.60568359 30.84576172 33.64886719 32.12902344 33.69335938 33.45117188 C33.799848 36.63399853 33.90185962 39.81690674 34 43 C35.98 43 37.96 43 40 43 C41.06351675 46.38391693 41.21442982 47.5804634 39.5625 50.8125 C39.046875 51.534375 38.53125 52.25625 38 53 C39.485 53.495 39.485 53.495 41 54 C40.34 55.32 39.68 56.64 39 58 C36.69 58 34.38 58 32 58 C32 58.99 32 59.98 32 61 C30.02 61 28.04 61 26 61 C25.505 59.02 25.505 59.02 25 57 C23.35 56.67 21.7 56.34 20 56 C18.9673198 53.21176345 18.95490707 52.1322726 19.9375 49.25 C20.4634375 48.13625 20.4634375 48.13625 21 47 C19.35 46.34 17.7 45.68 16 45 C16 42.36 16 39.72 16 37 C15.01 36.505 15.01 36.505 14 36 C14 34.68 14 33.36 14 32 C7.07 31.67 0.14 31.34 -7 31 C-7 30.34 -7 29.68 -7 29 C-14.26 29 -21.52 29 -29 29 C-29 28.34 -29 27.68 -29 27 C-25.7 27 -22.4 27 -19 27 C-19.33 25.35 -19.66 23.7 -20 22 C-19.195625 21.79375 -18.39125 21.5875 -17.5625 21.375 C-14.70048201 20.21429571 -14.70048201 20.21429571 -14 17.0625 C-13.6894464 14.01129787 -13.6894464 14.01129787 -15.4375 12.125 C-15.953125 11.75375 -16.46875 11.3825 -17 11 C-15.70700306 8.11562221 -14.34058637 6.12780579 -12 4 C-11.484375 4.350625 -10.96875 4.70125 -10.4375 5.0625 C-7.05993333 6.3615641 -4.49531943 5.67217681 -1 5 C-0.67 3.35 -0.34 1.7 0 0 Z M-6 14.0625 C-8.51930235 17.76272533 -8.7066341 19.6031656 -8 24 C-6.59121904 26.9901643 -6.59121904 26.9901643 -4 29 C-0.35817665 29.89055736 -0.35817665 29.89055736 3 30 C3.03738281 29.01257813 3.07476562 28.02515625 3.11328125 27.0078125 C3.17902344 25.72648437 3.24476562 24.44515625 3.3125 23.125 C3.37050781 21.84882812 3.42851563 20.57265625 3.48828125 19.2578125 C3.65714844 18.18273437 3.82601562 17.10765625 4 16 C4.99 15.34 5.98 14.68 7 14 C5.01607489 11.60148679 5.01607489 11.60148679 1.1875 11.5625 C-2.21763815 11.661739 -3.029595 12.02034656 -6 14.0625 Z M25 47 C24.6366844 49.83386167 24.6431329 51.40522151 26.125 53.875 C28.92151052 55.55290631 30.93690532 54.74875648 34 54 C34.67673447 50.59679066 34.67673447 50.59679066 35 47 C33.11499729 44.68436913 33.11499729 44.68436913 30 44.75 C26.88500271 44.68436913 26.88500271 44.68436913 25 47 Z " fill="#49D6D4" transform="translate(102,18)"/>
<path d="M0 0 C0.99 0 1.98 0 3 0 C3 9.57 3 19.14 3 29 C19.83 29 36.66 29 54 29 C54 19.43 54 9.86 54 0 C57.42375 -0.061875 60.8475 -0.12375 64.375 -0.1875 C65.45313965 -0.21481201 66.5312793 -0.24212402 67.64208984 -0.27026367 C68.91366943 -0.28150269 68.91366943 -0.28150269 70.2109375 -0.29296875 C71.51490479 -0.31653442 71.51490479 -0.31653442 72.84521484 -0.34057617 C73.55629395 -0.22818604 74.26737305 -0.1157959 75 0 C75.99 1.485 75.99 1.485 77 3 C76.34 3 75.68 3 75 3 C75 3.66 75 4.32 75 5 C75.99 5.33 76.98 5.66 78 6 C78 15.24 78 24.48 78 34 C80.31 34 82.62 34 85 34 C86.57897833 35.57897833 86.24543509 37.19362572 86.3125 39.375 C86.36857422 40.56222656 86.36857422 40.56222656 86.42578125 41.7734375 C86 44 86 44 84.49609375 45.77734375 C80.95251249 47.51308856 77.60016366 47.32014698 73.75 47.1875 C73.00492187 47.17396484 72.25984375 47.16042969 71.4921875 47.14648438 C69.66114584 47.11127204 67.83047831 47.05746851 66 47 C65.67 46.01 65.34 45.02 65 44 C64.34 44.99 63.68 45.98 63 47 C62.01 47.495 62.01 47.495 61 48 C60.80543295 46.04235617 60.61955753 44.08384679 60.4375 42.125 C60.28087891 40.48917969 60.28087891 40.48917969 60.12109375 38.8203125 C60 36 60 36 61 34 C65.29 34 69.58 34 74 34 C74 27.4 74 20.8 74 14 C70.7 14 67.4 14 64 14 C64 11.03 64 8.06 64 5 C61.69 5 59.38 5 57 5 C57.01571045 6.12027588 57.01571045 6.12027588 57.03173828 7.26318359 C57.0732077 10.63375508 57.09929729 14.004273 57.125 17.375 C57.14175781 18.550625 57.15851563 19.72625 57.17578125 20.9375 C57.18544922 22.61972656 57.18544922 22.61972656 57.1953125 24.3359375 C57.21102295 25.89127197 57.21102295 25.89127197 57.22705078 27.47802734 C57 30 57 30 55 32 C52.76086426 32.25396729 52.76086426 32.25396729 49.93945312 32.25878906 C48.35771301 32.26824554 48.35771301 32.26824554 46.74401855 32.27789307 C45.60130493 32.2738446 44.45859131 32.26979614 43.28125 32.265625 C41.52802429 32.26849518 41.52802429 32.26849518 39.73937988 32.27142334 C37.26456487 32.27278626 34.78974274 32.26908241 32.31494141 32.26074219 C28.51578795 32.25004446 24.71710741 32.26063418 20.91796875 32.2734375 C18.51822812 32.27211592 16.11848778 32.26955357 13.71875 32.265625 C12.00467957 32.27169769 12.00467957 32.27169769 10.25598145 32.27789307 C9.20148804 32.27158875 8.14699463 32.26528442 7.06054688 32.25878906 C6.1294812 32.25719788 5.19841553 32.25560669 4.23913574 32.25396729 C2 32 2 32 0 30 C-0.22705078 27.01904297 -0.22705078 27.01904297 -0.1953125 23.2421875 C-0.1924826 22.57913605 -0.18965271 21.91608459 -0.18673706 21.23294067 C-0.17553435 19.11344417 -0.15043051 16.99436896 -0.125 14.875 C-0.11497028 13.43880818 -0.10584441 12.00260975 -0.09765625 10.56640625 C-0.075595 7.04413372 -0.04106494 3.52210797 0 0 Z " fill="#38CDCF" transform="translate(41,49)"/>
<path d="M0 0 C0.66 1.32 1.32 2.64 2 4 C2.99 4 3.98 4 5 4 C5 5.65 5 7.3 5 9 C4.030625 9.28875 3.06125 9.5775 2.0625 9.875 C-1.10664203 10.64214682 -1.10664203 10.64214682 -2 13 C-2.43986452 17.03518598 -2.43986452 17.03518598 -0.86328125 20.6015625 C2.39651569 23.0481187 6.35127079 23.30042673 10.28515625 24.05859375 C13 25 13 25 15 29 C22.92 28.67 30.84 28.34 39 28 C38.67 28.66 38.34 29.32 38 30 C35.35139573 30.59355614 32.70802678 30.74209269 30 31 C30 31.66 30 32.32 30 33 C44.19 33 58.38 33 73 33 C72.67 32.34 72.34 31.68 72 31 C70.845 30.835 69.69 30.67 68.5 30.5 C67.345 30.335 66.19 30.17 65 30 C64.505 29.01 64.505 29.01 64 28 C69.45769811 27.88861841 74.61509359 28.08342019 80 29 C80 31.64 80 34.28 80 37 C72.71409984 37.04682155 65.42823335 37.08211748 58.14221191 37.10362434 C54.75718789 37.11395864 51.37226851 37.12792229 47.98730469 37.15087891 C9.5625541 37.39227608 9.5625541 37.39227608 2 33 C2.33 32.34 2.66 31.68 3 31 C3.99 31 4.98 31 6 31 C6 30.01 6 29.02 6 28 C4.906875 28.33 3.81375 28.66 2.6875 29 C-1 30 -1 30 -4 30 C-6.25 28.4375 -6.25 28.4375 -8 26 C-7.75 22.25 -7.75 22.25 -7 19 C-8.65 18.67 -10.3 18.34 -12 18 C-12 15.69 -12 13.38 -12 11 C-11.030625 10.71125 -10.06125 10.4225 -9.0625 10.125 C-5.89335797 9.35785318 -5.89335797 9.35785318 -5 7 C-5.39938767 4.90178785 -5.39938767 4.90178785 -6 3 C-4.02 2.01 -2.04 1.02 0 0 Z " fill="#E9EBF2" transform="translate(21,88)"/>
<path d="M0 0 C1.37091797 0.0009668 1.37091797 0.0009668 2.76953125 0.00195312 C9.48435163 0.04685163 9.48435163 0.04685163 10.625 1.1875 C13.43476518 1.34767166 16.22273596 1.44700534 19.03515625 1.50390625 C19.87719101 1.52468735 20.71922577 1.54546844 21.58677673 1.56687927 C24.28693179 1.63246812 26.98718717 1.69130276 29.6875 1.75 C31.51368241 1.79317637 33.33985454 1.83679036 35.16601562 1.88085938 C39.65223992 1.98815894 44.1385655 2.08939966 48.625 2.1875 C48.625 2.5175 48.625 2.8475 48.625 3.1875 C35.755 3.1875 22.885 3.1875 9.625 3.1875 C9.955 4.5075 10.285 5.8275 10.625 7.1875 C23.165 7.5175 35.705 7.8475 48.625 8.1875 C48.625 8.5175 48.625 8.8475 48.625 9.1875 C35.755 9.1875 22.885 9.1875 9.625 9.1875 C9.955 10.5075 10.285 11.8275 10.625 13.1875 C23.165 13.1875 35.705 13.1875 48.625 13.1875 C48.625 13.8475 48.625 14.5075 48.625 15.1875 C39.055 15.1875 29.485 15.1875 19.625 15.1875 C19.625 15.8475 19.625 16.5075 19.625 17.1875 C18.635 17.1875 17.645 17.1875 16.625 17.1875 C16.625 16.5275 16.625 15.8675 16.625 15.1875 C14.315 15.1875 12.005 15.1875 9.625 15.1875 C9.625 17.1675 9.625 19.1475 9.625 21.1875 C0.715 21.1875 -8.195 21.1875 -17.375 21.1875 C-17.375 20.8575 -17.375 20.5275 -17.375 20.1875 C-15.725 19.8575 -14.075 19.5275 -12.375 19.1875 C-12.045 17.8675 -11.715 16.5475 -11.375 15.1875 C-13.355 15.1875 -15.335 15.1875 -17.375 15.1875 C-17.375 14.8575 -17.375 14.5275 -17.375 14.1875 C-15.725 13.8575 -14.075 13.5275 -12.375 13.1875 C-12.045 11.8675 -11.715 10.5475 -11.375 9.1875 C-13.355 9.1875 -15.335 9.1875 -17.375 9.1875 C-17.375 8.8575 -17.375 8.5275 -17.375 8.1875 C-15.725 7.8575 -14.075 7.5275 -12.375 7.1875 C-12.045 5.8675 -11.715 4.5475 -11.375 3.1875 C-13.355 3.1875 -15.335 3.1875 -17.375 3.1875 C-17.375 2.8575 -17.375 2.5275 -17.375 2.1875 C-11.48560037 0.14637931 -6.2030285 -0.08528042 0 0 Z " fill="#9DE4E0" transform="translate(24.375,31.8125)"/>
<path d="M0 0 C1.81242052 -0.02687279 3.62495233 -0.04633715 5.4375 -0.0625 C6.44683594 -0.07410156 7.45617187 -0.08570313 8.49609375 -0.09765625 C11 0 11 0 12 1 C12.15825258 2.99782126 12.25119171 5.00088834 12.31640625 7.00390625 C12.35830078 8.21884766 12.40019531 9.43378906 12.44335938 10.68554688 C12.48267578 11.96494141 12.52199219 13.24433594 12.5625 14.5625 C12.60568359 15.84576172 12.64886719 17.12902344 12.69335938 18.45117188 C12.799848 21.63399853 12.90185962 24.81690674 13 28 C14.98 28 16.96 28 19 28 C20.06351675 31.38391693 20.21442982 32.5804634 18.5625 35.8125 C18.046875 36.534375 17.53125 37.25625 17 38 C18.485 38.495 18.485 38.495 20 39 C19.34 40.32 18.68 41.64 18 43 C15.69 43 13.38 43 11 43 C11 43.99 11 44.98 11 46 C9.02 46 7.04 46 5 46 C4.67 44.68 4.34 43.36 4 42 C2.35 41.67 0.7 41.34 -1 41 C-2.0326802 38.21176345 -2.04509293 37.1322726 -1.0625 34.25 C-0.711875 33.5075 -0.36125 32.765 0 32 C-2.475 31.01 -2.475 31.01 -5 30 C-4.67 27.69 -4.34 25.38 -4 23 C-2.35 22.34 -0.7 21.68 1 21 C1 20.34 1 19.68 1 19 C0.34 19 -0.32 19 -1 19 C-1 17.35 -1 15.7 -1 14 C2.3 14 5.6 14 9 14 C8.67 13.01 8.34 12.02 8 11 C7.236875 10.9175 6.47375 10.835 5.6875 10.75 C3 10 3 10 1.1875 8.3125 C-0.3082321 5.39975854 -0.22022756 3.23000416 0 0 Z M4 32 C3.6366844 34.83386167 3.6431329 36.40522151 5.125 38.875 C7.92151052 40.55290631 9.93690532 39.74875648 13 39 C13.67673447 35.59679066 13.67673447 35.59679066 14 32 C12.11499729 29.68436913 12.11499729 29.68436913 9 29.75 C5.88500271 29.68436913 5.88500271 29.68436913 4 32 Z " fill="#36DEC4" transform="translate(123,33)"/>
<path d="M0 0 C1.12019531 -0.00128906 2.24039063 -0.00257812 3.39453125 -0.00390625 C4.57402344 -0.00003906 5.75351562 0.00382812 6.96875 0.0078125 C8.73798828 0.00201172 8.73798828 0.00201172 10.54296875 -0.00390625 C12.22326172 -0.00197266 12.22326172 -0.00197266 13.9375 0 C14.97326172 0.00112793 16.00902344 0.00225586 17.07617188 0.00341797 C19.46875 0.1328125 19.46875 0.1328125 20.46875 1.1328125 C20.56861975 3.97616298 20.60752881 6.78978413 20.59375 9.6328125 C20.59955078 10.82970703 20.59955078 10.82970703 20.60546875 12.05078125 C20.59535767 18.00620483 20.59535767 18.00620483 19.46875 19.1328125 C17.62715977 19.23240871 15.78178033 19.26361661 13.9375 19.265625 C12.81730469 19.26691406 11.69710937 19.26820312 10.54296875 19.26953125 C9.36347656 19.26566406 8.18398438 19.26179688 6.96875 19.2578125 C5.19951172 19.26361328 5.19951172 19.26361328 3.39453125 19.26953125 C1.71423828 19.26759766 1.71423828 19.26759766 0 19.265625 C-1.03576172 19.26449707 -2.07152344 19.26336914 -3.13867188 19.26220703 C-5.53125 19.1328125 -5.53125 19.1328125 -6.53125 18.1328125 C-6.63111975 15.28946202 -6.67002881 12.47584087 -6.65625 9.6328125 C-6.66011719 8.83488281 -6.66398437 8.03695312 -6.66796875 7.21484375 C-6.65573175 0.007248 -6.65573175 0.007248 0 0 Z " fill="#40AFE1" transform="translate(39.53125,85.8671875)"/>
<path d="M0 0 C3.0000624 -0.02721831 5.99987256 -0.04694378 9 -0.0625 C9.83917969 -0.07087891 10.67835937 -0.07925781 11.54296875 -0.08789062 C16.79319339 -0.10824033 21.80455662 0.23631793 27 1 C27.02887814 4.47914941 27.04675687 7.95826831 27.0625 11.4375 C27.07087891 12.43072266 27.07925781 13.42394531 27.08789062 14.44726562 C27.09272461 15.86362305 27.09272461 15.86362305 27.09765625 17.30859375 C27.10551147 18.62041626 27.10551147 18.62041626 27.11352539 19.95874023 C27 22 27 22 26 23 C24.5086609 23.01662231 23.01639195 22.963192 21.52734375 22.87890625 C20.62822266 22.83056641 19.72910156 22.78222656 18.80273438 22.73242188 C17.85720703 22.67634766 16.91167969 22.62027344 15.9375 22.5625 C14.98810547 22.51029297 14.03871094 22.45808594 13.06054688 22.40429688 C10.70673048 22.27418642 8.35329301 22.13920888 6 22 C6 21.01 6 20.02 6 19 C4.02 19 2.04 19 0 19 C0 18.34 0 17.68 0 17 C1.98 17 3.96 17 6 17 C6 15.68 6 14.36 6 13 C4.02 13 2.04 13 0 13 C0 12.34 0 11.68 0 11 C1.98 11 3.96 11 6 11 C6 9.68 6 8.36 6 7 C4.02 7 2.04 7 0 7 C0 6.34 0 5.68 0 5 C1.98 5 3.96 5 6 5 C6 4.01 6 3.02 6 2 C3.03 1.505 3.03 1.505 0 1 C0 0.67 0 0.34 0 0 Z " fill="#6FD4E2" transform="translate(7,58)"/>
<path d="M0 0 C6.6 0 13.2 0 20 0 C20 0.99 20 1.98 20 3 C18.68 3.33 17.36 3.66 16 4 C16 5.98 16 7.96 16 10 C15.67 10 15.34 10 15 10 C15 8.02 15 6.04 15 4 C12.69 4 10.38 4 8 4 C8 6.31 8 8.62 8 11 C9.65 11 11.3 11 13 11 C12.01 11.495 12.01 11.495 11 12 C11 13.32 11 14.64 11 16 C18.92 16 26.84 16 35 16 C35 17.65 35 19.3 35 21 C21.47 21 7.94 21 -6 21 C-6.33 15.72 -6.66 10.44 -7 5 C-2 3 -2 3 0 3 C0 2.01 0 1.02 0 0 Z " fill="#6C73FE" transform="translate(66,81)"/>
<path d="M0 0 C3.3 0.66 6.6 1.32 10 2 C9.9071875 3.3921875 9.9071875 3.3921875 9.8125 4.8125 C9.75470649 7.91254753 9.75470649 7.91254753 11.125 9.9375 C13.92670027 11.52513015 15.96985644 10.74070176 19 10 C19.495 12.475 19.495 12.475 20 15 C17.87527424 15.05386629 15.75016348 15.09273071 13.625 15.125 C11.84996094 15.15980469 11.84996094 15.15980469 10.0390625 15.1953125 C7 15 7 15 5 13 C-0.56377652 12.41262964 -0.56377652 12.41262964 -5.5 14.5625 C-7.53366895 17.86721204 -7.3468602 20.18453778 -7 24 C-6.67 24.99 -6.34 25.98 -6 27 C-10.29 27 -14.58 27 -19 27 C-19.33 25.35 -19.66 23.7 -20 22 C-19.195625 21.79375 -18.39125 21.5875 -17.5625 21.375 C-14.70048201 20.21429571 -14.70048201 20.21429571 -14 17.0625 C-13.6894464 14.01129787 -13.6894464 14.01129787 -15.4375 12.125 C-15.953125 11.75375 -16.46875 11.3825 -17 11 C-15.70700306 8.11562221 -14.34058637 6.12780579 -12 4 C-11.484375 4.350625 -10.96875 4.70125 -10.4375 5.0625 C-7.05993333 6.3615641 -4.49531943 5.67217681 -1 5 C-0.67 3.35 -0.34 1.7 0 0 Z " fill="#E7EAF1" transform="translate(102,18)"/>
<path d="M0 0 C1.32 0 2.64 0 4 0 C4 6.6 4 13.2 4 20 C6.31 20 8.62 20 11 20 C12.57897833 21.57897833 12.24543509 23.19362572 12.3125 25.375 C12.34988281 26.16648437 12.38726562 26.95796875 12.42578125 27.7734375 C12 30 12 30 10.49609375 31.77734375 C6.95251249 33.51308856 3.60016366 33.32014698 -0.25 33.1875 C-0.99507812 33.17396484 -1.74015625 33.16042969 -2.5078125 33.14648438 C-4.33885416 33.11127204 -6.16952169 33.05746851 -8 33 C-8.495 31.515 -8.495 31.515 -9 30 C-9.66 30.99 -10.32 31.98 -11 33 C-11.99 33.495 -11.99 33.495 -13 34 C-13.19456705 32.04235617 -13.38044247 30.08384679 -13.5625 28.125 C-13.71912109 26.48917969 -13.71912109 26.48917969 -13.87890625 24.8203125 C-14 22 -14 22 -13 20 C-8.71 20 -4.42 20 0 20 C0 13.4 0 6.8 0 0 Z " fill="#645AFE" transform="translate(115,63)"/>
<path d="M0 0 C0.66 0 1.32 0 2 0 C2 10.23 2 20.46 2 31 C-6.25 31 -14.5 31 -23 31 C-23.125 18.25 -23.125 18.25 -22 16 C-21.34 16 -20.68 16 -20 16 C-19.67 17.32 -19.34 18.64 -19 20 C-13.72 20 -8.44 20 -3 20 C-2.95101562 18.72382812 -2.90203125 17.44765625 -2.8515625 16.1328125 C-2.77653809 14.46351928 -2.70099012 12.79424954 -2.625 11.125 C-2.57859375 9.86236328 -2.57859375 9.86236328 -2.53125 8.57421875 C-2.49257812 7.76855469 -2.45390625 6.96289062 -2.4140625 6.1328125 C-2.3826416 5.38918457 -2.3512207 4.64555664 -2.31884766 3.87939453 C-2 2 -2 2 0 0 Z " fill="#738AFE" transform="translate(125,93)"/>
<path d="M0 0 C1.58206057 0.00667536 3.16410534 0.0186375 4.74609375 0.03515625 C5.55240234 0.03966797 6.35871094 0.04417969 7.18945312 0.04882812 C9.18753131 0.06065107 11.18557158 0.07858711 13.18359375 0.09765625 C13.21043687 2.91021906 13.23035563 5.72252866 13.24609375 8.53515625 C13.25447266 9.33759766 13.26285156 10.14003906 13.27148438 10.96679688 C13.28010805 13.01060846 13.23587525 15.05449527 13.18359375 17.09765625 C11.36243372 18.91881628 8.87687611 18.23000705 6.45703125 18.234375 C5.70679687 18.23050781 4.9565625 18.22664063 4.18359375 18.22265625 C3.05824219 18.22845703 3.05824219 18.22845703 1.91015625 18.234375 C-3.68979572 18.22426678 -3.68979572 18.22426678 -4.81640625 17.09765625 C-4.91621839 14.42034245 -4.955205 11.7746145 -4.94140625 9.09765625 C-4.94527344 8.34742187 -4.94914062 7.5971875 -4.953125 6.82421875 C-4.94103514 0.12643386 -4.94103514 0.12643386 0 0 Z " fill="#3DCFE4" transform="translate(109.81640625,95.90234375)"/>
<path d="M0 0 C0.33 0 0.66 0 1 0 C1.33 2.97 1.66 5.94 2 9 C2.99 8.01 3.98 7.02 5 6 C5.5625 7.9375 5.5625 7.9375 6 10 C5.67 10.33 5.34 10.66 5 11 C4.76572222 13.01594582 4.58663876 15.038474 4.4375 17.0625 C4.35371094 18.16722656 4.26992187 19.27195312 4.18359375 20.41015625 C4.12300781 21.26480469 4.06242187 22.11945313 4 23 C3.34 23 2.68 23 2 23 C1.67 27.95 1.34 32.9 1 38 C9.25 38 17.5 38 26 38 C26 38.66 26 39.32 26 40 C28.31 40.66 30.62 41.32 33 42 C32 44 32 44 30.34521484 44.61450195 C25.49200924 45.41225457 20.54404055 45.18590312 15.63769531 45.18530273 C13.63863013 45.18748512 11.63960468 45.20599143 9.640625 45.22460938 C8.36960937 45.22654297 7.09859375 45.22847656 5.7890625 45.23046875 C4.63100098 45.23457764 3.47293945 45.23868652 2.27978516 45.24291992 C-1.11310954 44.99162245 -3.83332989 44.21173908 -7 43 C-6 41 -6 41 0 39 C0 26.13 0 13.26 0 0 Z " fill="#5F52EB" transform="translate(101,86)"/>
<path d="M0 0 C5.61 0 11.22 0 17 0 C17 5.61 17 11.22 17 17 C11.39 17 5.78 17 0 17 C0 11.39 0 5.78 0 0 Z " fill="#3E4E9A" transform="translate(15,34)"/>
<path d="M0 0 C0.99 0 1.98 0 3 0 C2.49873196 5.38863145 1.68592539 6.39259326 -2 11 C2.29 11.33 6.58 11.66 11 12 C11.495 13.485 11.495 13.485 12 15 C-2.19 15 -16.38 15 -31 15 C-31 14.34 -31 13.68 -31 13 C-29.72125 12.7525 -28.4425 12.505 -27.125 12.25 C-24.91698682 11.76331009 -24.91698682 11.76331009 -23 11 C-22.67 10.319375 -22.34 9.63875 -22 8.9375 C-21.505 7.9784375 -21.505 7.9784375 -21 7 C-17.38831837 6.0236553 -13.72103635 6 -10 6 C-9.34 5.34 -8.68 4.68 -8 4 C-4.875 3.875 -4.875 3.875 -2 4 C-1.34 2.68 -0.68 1.36 0 0 Z " fill="#ACCBFE" transform="translate(82,106)"/>
<path d="M0 0 C2.31 0 4.62 0 7 0 C7 8.58 7 17.16 7 26 C6.34 26 5.68 26 5 26 C5 26.66 5 27.32 5 28 C4.01 28 3.02 28 2 28 C1.67 28.66 1.34 29.32 1 30 C0.67 23.4 0.34 16.8 0 10 C-2.64 10 -5.28 10 -8 10 C-8 8.02 -8 6.04 -8 4 C-5.36 4 -2.72 4 0 4 C0 2.68 0 1.36 0 0 Z " fill="#5A38FF" transform="translate(34,49)"/>
<path d="M0 0 C2.95887459 -0.08069658 5.9155659 -0.14034665 8.875 -0.1875 C9.71675781 -0.21263672 10.55851562 -0.23777344 11.42578125 -0.26367188 C12.23144531 -0.27333984 13.03710938 -0.28300781 13.8671875 -0.29296875 C14.98262939 -0.31653442 14.98262939 -0.31653442 16.12060547 -0.34057617 C17.05090576 -0.17199097 17.05090576 -0.17199097 18 0 C18.66 0.99 19.32 1.98 20 3 C19.34 3 18.68 3 18 3 C18 3.66 18 4.32 18 5 C18.99 5.33 19.98 5.66 21 6 C21.125 11.75 21.125 11.75 20 14 C15.71 14 11.42 14 7 14 C7 11.03 7 8.06 7 5 C4.69 5 2.38 5 0 5 C0 3.35 0 1.7 0 0 Z " fill="#39C6D7" transform="translate(98,49)"/>
<path d="M0 0 C1.38294718 0.01329757 2.76582404 0.03715018 4.1484375 0.0703125 C4.85484375 0.07933594 5.56125 0.08835937 6.2890625 0.09765625 C8.03399848 0.12123647 9.77876045 0.15710789 11.5234375 0.1953125 C11.5234375 3.8253125 11.5234375 7.4553125 11.5234375 11.1953125 C6.2434375 11.1953125 0.9634375 11.1953125 -4.4765625 11.1953125 C-4.1465625 12.8453125 -3.8165625 14.4953125 -3.4765625 16.1953125 C-6.1165625 16.1953125 -8.7565625 16.1953125 -11.4765625 16.1953125 C-10.8165625 15.8653125 -10.1565625 15.5353125 -9.4765625 15.1953125 C-8.42635147 13.34559554 -8.42635147 13.34559554 -7.4765625 11.1953125 C-6.9196875 10.23625 -6.9196875 10.23625 -6.3515625 9.2578125 C-5.30569694 7.16596314 -5.30569694 7.16596314 -5.4765625 4.5703125 C-5.4765625 0.44476443 -3.86741729 0.21727063 0 0 Z " fill="#B1CFFE" transform="translate(89.4765625,101.8046875)"/>
<path d="M0 0 C13.53 0 27.06 0 41 0 C41 1.65 41 3.3 41 5 C27.47 5 13.94 5 0 5 C0 3.35 0 1.7 0 0 Z " fill="#3C3D89" transform="translate(60,97)"/>
<path d="M0 0 C0.33 1.32 0.66 2.64 1 4 C2.98 4 4.96 4 7 4 C8.06351675 7.38391693 8.21442982 8.5804634 6.5625 11.8125 C6.046875 12.534375 5.53125 13.25625 5 14 C5.99 14.33 6.98 14.66 8 15 C7.34 16.32 6.68 17.64 6 19 C3.69 19 1.38 19 -1 19 C-1 19.99 -1 20.98 -1 22 C-2.98 22 -4.96 22 -7 22 C-7.33 20.68 -7.66 19.36 -8 18 C-9.65 17.67 -11.3 17.34 -13 17 C-14.35852368 13.33198605 -13.47642805 11.50651662 -12 8 C-12.33 7.34 -12.66 6.68 -13 6 C-10.69 6 -8.38 6 -6 6 C-6.20625 7.11375 -6.4125 8.2275 -6.625 9.375 C-6.810625 11.169375 -6.810625 11.169375 -7 13 C-5.10244856 15.34973818 -5.10244856 15.34973818 -1.875 15.125 C-0.451875 15.063125 -0.451875 15.063125 1 15 C1.29562367 9.67829506 1.29562367 9.67829506 -1 5 C-0.625 2.3125 -0.625 2.3125 0 0 Z " fill="#E9EAF2" transform="translate(135,57)"/>
<path d="M0 0 C2.64 0 5.28 0 8 0 C8.02887814 3.47914941 8.04675687 6.95826831 8.0625 10.4375 C8.07087891 11.43072266 8.07925781 12.42394531 8.08789062 13.44726562 C8.09272461 14.86362305 8.09272461 14.86362305 8.09765625 16.30859375 C8.10551147 17.62041626 8.10551147 17.62041626 8.11352539 18.95874023 C8 21 8 21 7 22 C5.5086609 22.01662231 4.01639195 21.963192 2.52734375 21.87890625 C1.62822266 21.83056641 0.72910156 21.78222656 -0.19726562 21.73242188 C-1.14279297 21.67634766 -2.08832031 21.62027344 -3.0625 21.5625 C-4.01189453 21.51029297 -4.96128906 21.45808594 -5.93945312 21.40429688 C-8.29326952 21.27418642 -10.64670699 21.13920888 -13 21 C-13 20.01 -13 19.02 -13 18 C-9.04 18 -5.08 18 -1 18 C-0.67 17.01 -0.34 16.02 0 15 C0.99 15.33 1.98 15.66 3 16 C3.33 13.03 3.66 10.06 4 7 C2.68 6.67 1.36 6.34 0 6 C0 4.02 0 2.04 0 0 Z " fill="#36CFCB" transform="translate(26,59)"/>
<path d="M0 0 C2.875 1 2.875 1 4.25 3.0625 C4.45625 3.701875 4.6625 4.34125 4.875 5 C6.525 5 8.175 5 9.875 5 C10.205 6.32 10.535 7.64 10.875 9 C7.575 9 4.275 9 0.875 9 C0.875 10.65 0.875 12.3 0.875 14 C1.535 14 2.195 14 2.875 14 C2.875 14.66 2.875 15.32 2.875 16 C0.5625 17.125 0.5625 17.125 -2.125 18 C-3.115 17.34 -4.105 16.68 -5.125 16 C-5.125 15.34 -5.125 14.68 -5.125 14 C-4.465 14 -3.805 14 -3.125 14 C-3.125 12.35 -3.125 10.7 -3.125 9 C-6.425 9 -9.725 9 -13.125 9 C-12.465 7.68 -11.805 6.36 -11.125 5 C-9.79703709 4.64587656 -8.46283393 4.31478446 -7.125 4 C-6.50625 3.29875 -5.8875 2.5975 -5.25 1.875 C-3.125 0 -3.125 0 0 0 Z " fill="#F8FDFD" transform="translate(121.125,38)"/>
<path d="M0 0 C1.32 0 2.64 0 4 0 C4 6.6 4 13.2 4 20 C6.31 20 8.62 20 11 20 C11.33 20.99 11.66 21.98 12 23 C3.19039858 24.30512614 -5.19039858 24.30512614 -14 23 C-13.505 21.515 -13.505 21.515 -13 20 C-8.71 20 -4.42 20 0 20 C0 13.4 0 6.8 0 0 Z " fill="#4C4CA1" transform="translate(115,63)"/>
<path d="M0 0 C8 0 16 0 24 0 C24 2.31 24 4.62 24 7 C22.02 7 20.04 7 18 7 C17.67 7.66 17.34 8.32 17 9 C16.34 8.67 15.68 8.34 15 8 C12.45384991 7.76827173 9.92603775 7.58105471 7.375 7.4375 C6.66859375 7.39431641 5.9621875 7.35113281 5.234375 7.30664062 C3.48981463 7.20055249 1.74493303 7.09977111 0 7 C0 4.69 0 2.38 0 0 Z " fill="#90ABFE" transform="translate(74,85)"/>
<path d="M0 0 C1.31871094 -0.01224609 2.63742188 -0.02449219 3.99609375 -0.03710938 C5.90068359 -0.04000977 5.90068359 -0.04000977 7.84375 -0.04296875 C9.00068359 -0.04707764 10.15761719 -0.05118652 11.34960938 -0.05541992 C14.47736509 0.18575467 16.680892 0.85423629 19.5 2.1875 C18.5 4.1875 18.5 4.1875 16.84521484 4.80200195 C11.99200924 5.59975457 7.04404055 5.37340312 2.13769531 5.37280273 C0.13863013 5.37498512 -1.86039532 5.39349143 -3.859375 5.41210938 C-5.13039063 5.41404297 -6.40140625 5.41597656 -7.7109375 5.41796875 C-8.86899902 5.42207764 -10.02706055 5.42618652 -11.22021484 5.43041992 C-14.61310954 5.17912245 -17.33332989 4.39923908 -20.5 3.1875 C-20.17 2.5275 -19.84 1.8675 -19.5 1.1875 C-13.23640183 -0.60566158 -6.45139424 0.00315317 0 0 Z " fill="#EAEBF2" transform="translate(114.5,125.8125)"/>
<path d="M0 0 C0.99 0 1.98 0 3 0 C3.02505615 0.87325928 3.0501123 1.74651855 3.07592773 2.64624023 C3.17087709 5.87602552 3.27012029 9.10564154 3.37231445 12.33520508 C3.41571434 13.73489199 3.45738564 15.13463359 3.49731445 16.53442383 C3.55489445 18.54261495 3.61914 20.55061149 3.68359375 22.55859375 C3.72025146 23.76829834 3.75690918 24.97800293 3.79467773 26.22436523 C3.68938266 28.90705456 3.68938266 28.90705456 5 30 C6.56448383 30.12263388 8.13432772 30.17779522 9.70336914 30.20532227 C11.20481224 30.2352401 11.20481224 30.2352401 12.73658752 30.26576233 C14.36937904 30.29083107 14.36937904 30.29083107 16.03515625 30.31640625 C17.14354355 30.33718735 18.25193085 30.35796844 19.39390564 30.37937927 C22.95003808 30.44499623 26.50624703 30.50381596 30.0625 30.5625 C32.46680493 30.60567368 34.87110199 30.64928758 37.27539062 30.69335938 C43.18351185 30.80068992 49.09170991 30.90243331 55 31 C55 31.33 55 31.66 55 32 C47.48863592 32.05057965 39.97731551 32.08568257 32.46582031 32.10986328 C29.90883747 32.11994038 27.35186621 32.13360226 24.79492188 32.15087891 C21.12627308 32.17505217 17.45777621 32.18646585 13.7890625 32.1953125 C12.0655809 32.21079636 12.0655809 32.21079636 10.30728149 32.22659302 C9.2463327 32.22674408 8.18538391 32.22689514 7.09228516 32.22705078 C6.15518707 32.231492 5.21808899 32.23593323 4.25259399 32.24050903 C2 32 2 32 0 30 C-0.22705078 27.01904297 -0.22705078 27.01904297 -0.1953125 23.2421875 C-0.1924826 22.57913605 -0.18965271 21.91608459 -0.18673706 21.23294067 C-0.17553435 19.11344417 -0.15043051 16.99436896 -0.125 14.875 C-0.11497028 13.43880818 -0.10584441 12.00260975 -0.09765625 10.56640625 C-0.075595 7.04413372 -0.04106494 3.52210797 0 0 Z " fill="#469FE9" transform="translate(41,49)"/>
<path d="M0 0 C0.66 0 1.32 0 2 0 C2 0.66 2 1.32 2 2 C2.66 2 3.32 2 4 2 C5.38232443 3.62626404 6.71937515 5.2925002 8 7 C7.484375 7.5775 6.96875 8.155 6.4375 8.75 C4.73494807 10.87827523 4.73494807 10.87827523 5.3125 13.25 C5.539375 13.8275 5.76625 14.405 6 15 C2.69005287 16.65497356 -0.99123 16.10084335 -4.625 16.0625 C-5.42679688 16.05798828 -6.22859375 16.05347656 -7.0546875 16.04882812 C-9.03649006 16.03703168 -11.01825433 16.01909605 -13 16 C-13.33 15.01 -13.66 14.02 -14 13 C-10.7 12.67 -7.4 12.34 -4 12 C-3.79503906 11.21753906 -3.59007812 10.43507813 -3.37890625 9.62890625 C-3.10949219 8.61699219 -2.84007812 7.60507813 -2.5625 6.5625 C-2.29566406 5.55316406 -2.02882813 4.54382813 -1.75390625 3.50390625 C-1 1 -1 1 0 0 Z " fill="#3ED9CC" transform="translate(47,89)"/>
<path d="M0 0 C1.98 0 3.96 0 6 0 C6.33 0.66 6.66 1.32 7 2 C8.89533342 2.46523063 8.89533342 2.46523063 11.0625 2.625 C12.361875 2.74875 13.66125 2.8725 15 3 C15 3.99 15 4.98 15 6 C15.88214887 8.88214887 15.88214887 8.88214887 17 11 C14.35409986 11.02684679 11.70846904 11.04676357 9.0625 11.0625 C7.93038086 11.07506836 7.93038086 11.07506836 6.77539062 11.08789062 C4.85005687 11.09652441 2.92464419 11.05224333 1 11 C0 10 0 10 -0.09765625 7.71484375 C-0.08605469 6.79832031 -0.07445313 5.88179688 -0.0625 4.9375 C-0.05347656 4.01839844 -0.04445313 3.09929687 -0.03515625 2.15234375 C-0.02355469 1.44207031 -0.01195313 0.73179688 0 0 Z " fill="#C5DCFE" transform="translate(27,102)"/>
<path d="M0 0 C7.59 0 15.18 0 23 0 C23 5.28 23 10.56 23 16 C23.99 16 24.98 16 26 16 C26 17.65 26 19.3 26 21 C23.69 21 21.38 21 19 21 C19 14.73 19 8.46 19 2 C12.73 2 6.46 2 0 2 C0 1.34 0 0.68 0 0 Z " fill="#7071A9" transform="translate(7,81)"/>
<path d="M0 0 C0.02685938 2.14576637 0.04633088 4.29162645 0.0625 6.4375 C0.07410156 7.63246094 0.08570312 8.82742187 0.09765625 10.05859375 C0 13 0 13 -1 14 C-3.35313555 14.07271741 -5.70833668 14.08370868 -8.0625 14.0625 C-9.35285156 14.05347656 -10.64320312 14.04445313 -11.97265625 14.03515625 C-12.97167969 14.02355469 -13.97070312 14.01195313 -15 14 C-15 13.34 -15 12.68 -15 12 C-14.34 12 -13.68 12 -13 12 C-12.87625 11.38125 -12.7525 10.7625 -12.625 10.125 C-12 8 -12 8 -10 6 C-9.34 6 -8.68 6 -8 6 C-6.31237149 4.3545622 -4.6459651 2.68711423 -3 1 C-1 0 -1 0 0 0 Z " fill="#39D7D7" transform="translate(123,100)"/>
<path d="M0 0 C1.81242052 -0.02687279 3.62495233 -0.04633715 5.4375 -0.0625 C6.44683594 -0.07410156 7.45617187 -0.08570313 8.49609375 -0.09765625 C11 0 11 0 12 1 C12.07244053 3.01964199 12.08377188 5.04167124 12.0625 7.0625 C12.05347656 8.16722656 12.04445312 9.27195312 12.03515625 10.41015625 C12.02355469 11.26480469 12.01195312 12.11945312 12 13 C11.01 13.33 10.02 13.66 9 14 C8.67 13.01 8.34 12.02 8 11 C7.236875 10.9175 6.47375 10.835 5.6875 10.75 C3 10 3 10 1.1875 8.3125 C-0.3082321 5.39975854 -0.22022756 3.23000416 0 0 Z " fill="#37D4D2" transform="translate(123,33)"/>
<path d="M0 0 C0.93134766 0.00322266 1.86269531 0.00644531 2.82226562 0.00976562 C4.26182617 0.02233398 4.26182617 0.02233398 5.73046875 0.03515625 C6.70951172 0.03966797 7.68855469 0.04417969 8.69726562 0.04882812 C11.10422986 0.06056941 13.51106732 0.07699206 15.91796875 0.09765625 C16.24796875 1.41765625 16.57796875 2.73765625 16.91796875 4.09765625 C15.92796875 4.09765625 14.93796875 4.09765625 13.91796875 4.09765625 C12.92796875 4.59265625 12.92796875 4.59265625 11.91796875 5.09765625 C10.17752705 5.18215253 8.43387153 5.20488649 6.69140625 5.1953125 C5.66015625 5.19208984 4.62890625 5.18886719 3.56640625 5.18554688 C1.94605469 5.17297852 1.94605469 5.17297852 0.29296875 5.16015625 C-1.33898437 5.15338867 -1.33898437 5.15338867 -3.00390625 5.14648438 C-5.69666914 5.13467401 -8.38932313 5.11820403 -11.08203125 5.09765625 C-10.75203125 3.77765625 -10.42203125 2.45765625 -10.08203125 1.09765625 C-6.65629188 0.32237146 -3.5096388 -0.02153153 0 0 Z " fill="#655CFE" transform="translate(50.08203125,80.90234375)"/>
<path d="M0 0 C0.99 0 1.98 0 3 0 C3.33 0.66 3.66 1.32 4 2 C4.99 2.33 5.98 2.66 7 3 C7.125 9.75 7.125 9.75 6 12 C4.22265625 12.484375 4.22265625 12.484375 2.0625 12.75 C1.35222656 12.84796875 0.64195313 12.9459375 -0.08984375 13.046875 C-2 13 -2 13 -4 11 C-4.66 10.67 -5.32 10.34 -6 10 C-6.04241723 7.66705225 -6.04092937 5.33297433 -6 3 C-5 2 -5 2 -2.4375 1.9375 C-1.2309375 1.9684375 -1.2309375 1.9684375 0 2 C0 1.34 0 0.68 0 0 Z " fill="#ECF9FA" transform="translate(23,63)"/>
<path d="M0 0 C0.66 0 1.32 0 2 0 C2.33 1.32 2.66 2.64 3 4 C5.97 4.33 8.94 4.66 12 5 C12 5.99 12 6.98 12 8 C11.01 8.495 11.01 8.495 10 9 C10 9.66 10 10.32 10 11 C8 11.66666667 6 12.33333333 4 13 C3.67 13.66 3.34 14.32 3 15 C1.68 15 0.36 15 -1 15 C-1.02693575 12.87506859 -1.04636628 10.75004088 -1.0625 8.625 C-1.07410156 7.44164063 -1.08570312 6.25828125 -1.09765625 5.0390625 C-1 2 -1 2 0 0 Z " fill="#6C73FE" transform="translate(103,109)"/>
<path d="M0 0 C2.31 0 4.62 0 7 0 C7 2.97 7 5.94 7 9 C7.66 9.33 8.32 9.66 9 10 C8.01 10.33 7.02 10.66 6 11 C4.79117904 13.00016466 4.79117904 13.00016466 4 15 C2.68 15 1.36 15 0 15 C0 10.05 0 5.1 0 0 Z " fill="#6B74FD" transform="translate(98,54)"/>
<path d="M0 0 C0.02684679 2.64590014 0.04676357 5.29153096 0.0625 7.9375 C0.07087891 8.69224609 0.07925781 9.44699219 0.08789062 10.22460938 C0.09652441 12.14994313 0.05224333 14.07535581 0 16 C-1 17 -1 17 -2.84765625 17.09765625 C-4.8984375 17.06510417 -6.94921875 17.03255208 -9 17 C-8.67 16.34 -8.34 15.68 -8 15 C-8.20625 14.38125 -8.4125 13.7625 -8.625 13.125 C-9 11 -9 11 -7.6875 9 C-7.130625 8.34 -6.57375 7.68 -6 7 C-5.505 5.9790625 -5.505 5.9790625 -5 4.9375 C-2.4516129 0 -2.4516129 0 0 0 Z " fill="#35D9C2" transform="translate(60,88)"/>
<path d="M0 0 C3.3 0 6.6 0 10 0 C10.33 0.99 10.66 1.98 11 3 C8.34771188 4.07525194 5.71631546 5.09456151 3 6 C3.33 6.99 3.66 7.98 4 9 C3.01 9.33 2.02 9.66 1 10 C1.99 11.485 1.99 11.485 3 13 C3 13.99 3 14.98 3 16 C0.69 16 -1.62 16 -4 16 C-3.67 13.69 -3.34 11.38 -3 9 C-1.35 8.34 0.3 7.68 2 7 C2 6.34 2 5.68 2 5 C1.34 5 0.68 5 0 5 C0 3.35 0 1.7 0 0 Z " fill="#34D7CC" transform="translate(122,47)"/>
<path d="M0 0 C2.95887459 -0.08069658 5.9155659 -0.14034665 8.875 -0.1875 C9.71675781 -0.21263672 10.55851562 -0.23777344 11.42578125 -0.26367188 C12.23144531 -0.27333984 13.03710938 -0.28300781 13.8671875 -0.29296875 C14.98262939 -0.31653442 14.98262939 -0.31653442 16.12060547 -0.34057617 C17.05090576 -0.17199097 17.05090576 -0.17199097 18 0 C18.66 0.99 19.32 1.98 20 3 C19.01 3 18.02 3 17 3 C17 3.66 17 4.32 17 5 C11.39 5 5.78 5 0 5 C0 3.35 0 1.7 0 0 Z " fill="#34ADC5" transform="translate(98,49)"/>
<path d="M0 0 C1.93166016 0.01740234 1.93166016 0.01740234 3.90234375 0.03515625 C5.19269531 0.04417969 6.48304687 0.05320312 7.8125 0.0625 C8.81152344 0.07410156 9.81054688 0.08570312 10.83984375 0.09765625 C9.90011719 0.78794922 9.90011719 0.78794922 8.94140625 1.4921875 C6.8353093 3.01718874 6.8353093 3.01718874 5.21484375 4.78515625 C3.83984375 6.09765625 3.83984375 6.09765625 1.83984375 6.09765625 C1.83984375 6.75765625 1.83984375 7.41765625 1.83984375 8.09765625 C1.20046875 8.36578125 0.56109375 8.63390625 -0.09765625 8.91015625 C-2.49147311 9.98433377 -2.49147311 9.98433377 -3.16015625 13.09765625 C-3.49015625 13.09765625 -3.82015625 13.09765625 -4.16015625 13.09765625 C-4.18702178 11.11856227 -4.20649 9.13936654 -4.22265625 7.16015625 C-4.23425781 6.05800781 -4.24585937 4.95585938 -4.2578125 3.8203125 C-4.11749553 -0.09172464 -3.97435676 0.12281696 0 0 Z " fill="#40C2EE" transform="translate(109.16015625,95.90234375)"/>
<path d="M0 0 C0 0.33 0 0.66 0 1 C-1.98 1 -3.96 1 -6 1 C-6 6.61 -6 12.22 -6 18 C-3.03 18.33 -0.06 18.66 3 19 C3 19.33 3 19.66 3 20 C-2.61 20 -8.22 20 -14 20 C-14 19.67 -14 19.34 -14 19 C-12.35 18.67 -10.7 18.34 -9 18 C-8.67 16.68 -8.34 15.36 -8 14 C-9.98 14 -11.96 14 -14 14 C-14 13.67 -14 13.34 -14 13 C-12.35 12.67 -10.7 12.34 -9 12 C-8.67 10.68 -8.34 9.36 -8 8 C-9.98 8 -11.96 8 -14 8 C-14 7.67 -14 7.34 -14 7 C-12.35 6.67 -10.7 6.34 -9 6 C-8.67 4.68 -8.34 3.36 -8 2 C-9.98 2 -11.96 2 -14 2 C-14 1.67 -14 1.34 -14 1 C-9.32798795 -0.20568053 -4.78503708 -0.09382426 0 0 Z " fill="#87D8E8" transform="translate(21,33)"/>
<path d="M0 0 C1.32 0 2.64 0 4 0 C4 6.6 4 13.2 4 20 C2.68 19.67 1.36 19.34 0 19 C0 12.73 0 6.46 0 0 Z " fill="#3E3E8B" transform="translate(115,63)"/>
<path d="M0 0 C4.29 0 8.58 0 13 0 C13.33 1.32 13.66 2.64 14 4 C12 6 12 6 9 6.4375 C8.01 6.623125 7.02 6.80875 6 7 C5.01 8.485 5.01 8.485 4 10 C3.01 9.67 2.02 9.34 1 9 C1.66 9 2.32 9 3 9 C2.01 6.03 1.02 3.06 0 0 Z " fill="#6ED5E4" transform="translate(110,33)"/>
<path d="M0 0 C1.67542976 0.28604898 3.34385343 0.61781233 5 1 C5.66 3.64 6.32 6.28 7 9 C1.25 14 1.25 14 -1 14 C-1.02685938 11.85423363 -1.04633088 9.70837355 -1.0625 7.5625 C-1.07410156 6.36753906 -1.08570312 5.17257813 -1.09765625 3.94140625 C-1 1 -1 1 0 0 Z " fill="#35C7E0" transform="translate(106,33)"/>
<path d="M0 0 C12.87 0 25.74 0 39 0 C39 0.66 39 1.32 39 2 C29.43 2 19.86 2 10 2 C10 2.66 10 3.32 10 4 C9.01 4 8.02 4 7 4 C7 3.34 7 2.68 7 2 C4.69 2 2.38 2 0 2 C0 1.34 0 0.68 0 0 Z " fill="#65D4E1" transform="translate(34,45)"/>
<path d="M0 0 C0.66 0 1.32 0 2 0 C2.08103404 2.91722548 2.14051081 5.83219516 2.1875 8.75 C2.21263672 9.575 2.23777344 10.4 2.26367188 11.25 C2.33834499 17.42297754 2.33834499 17.42297754 0.48828125 20.578125 C-0.24841797 21.28195313 -0.24841797 21.28195313 -1 22 C-2.70913373 18.58173253 -2.18458479 14.76645237 -2.1875 11 C-2.19974609 10.16726562 -2.21199219 9.33453125 -2.22460938 8.4765625 C-2.22654297 7.67992188 -2.22847656 6.88328125 -2.23046875 6.0625 C-2.23457764 5.33160156 -2.23868652 4.60070312 -2.24291992 3.84765625 C-2 2 -2 2 0 0 Z " fill="#7080FE" transform="translate(125,93)"/>
<path d="M0 0 C8.58 0 17.16 0 26 0 C25.67 0.99 25.34 1.98 25 3 C17.08 3 9.16 3 1 3 C0.67 2.01 0.34 1.02 0 0 Z " fill="#4C4CA0" transform="translate(101,124)"/>
<path d="M0 0 C6.4 -0.36923077 6.4 -0.36923077 9.4375 1.5 C9.953125 1.995 10.46875 2.49 11 3 C10.67 3.99 10.34 4.98 10 6 C9.05125 6.103125 8.1025 6.20625 7.125 6.3125 C3.70892499 6.68539295 3.70892499 6.68539295 2 10 C1.01 10.495 1.01 10.495 0 11 C0 7.37 0 3.74 0 0 Z " fill="#5A37FF" transform="translate(102,86)"/>
<path d="M0 0 C0.66 0 1.32 0 2 0 C2 0.66 2 1.32 2 2 C2.66 2 3.32 2 4 2 C5.38232443 3.62626404 6.71937515 5.2925002 8 7 C6.71034824 8.37562854 5.37310707 9.70766393 4 11 C3.34 11 2.68 11 2 11 C2 10.01 2 9.02 2 8 C1.34 8 0.68 8 0 8 C-0.33 9.65 -0.66 11.3 -1 13 C-1.66 13 -2.32 13 -3 13 C-2.52060632 8.28596212 -2.03165952 4.33420699 0 0 Z " fill="#57CCDC" transform="translate(47,89)"/>
<path d="M0 0 C0.66305145 0.02361099 1.32610291 0.04722198 2.00924683 0.07154846 C4.12877879 0.14817441 6.24794435 0.23220268 8.3671875 0.31640625 C9.80336744 0.36962806 11.2395653 0.42236845 12.67578125 0.47460938 C16.19814186 0.60378769 19.72021102 0.73960655 23.2421875 0.87890625 C23.2421875 1.53890625 23.2421875 2.19890625 23.2421875 2.87890625 C12.0221875 2.87890625 0.8021875 2.87890625 -10.7578125 2.87890625 C-7.2277257 -0.65118055 -4.88047604 -0.18455582 0 0 Z " fill="#87B4FE" transform="translate(70.7578125,118.12109375)"/>
<path d="M0 0 C3.63 0 7.26 0 11 0 C10.67 0.99 10.34 1.98 10 3 C9.34 3 8.68 3 8 3 C8 3.66 8 4.32 8 5 C5.18236593 7.81763407 3.71433365 8.94608803 -0.3125 9.25 C-1.199375 9.1675 -2.08625 9.085 -3 9 C-3 8.01 -3 7.02 -3 6 C-1.35 5.34 0.3 4.68 2 4 C2 3.34 2 2.68 2 2 C1.34 1.34 0.68 0.68 0 0 Z " fill="#5E4BFB" transform="translate(110,87)"/>
<path d="M0 0 C2.64 0 5.28 0 8 0 C8.25 7.625 8.25 7.625 6 11 C5.01 10.67 4.02 10.34 3 10 C3.33 9.01 3.66 8.02 4 7 C2.68 6.67 1.36 6.34 0 6 C0 4.02 0 2.04 0 0 Z " fill="#3EBBDB" transform="translate(26,59)"/>
<path d="M0 0 C7.92 0.33 15.84 0.66 24 1 C24 1.33 24 1.66 24 2 C20.7 2 17.4 2 14 2 C14 3.65 14 5.3 14 7 C14.66 7 15.32 7 16 7 C16 7.66 16 8.32 16 9 C13.6875 10.125 13.6875 10.125 11 11 C10.01 10.34 9.02 9.68 8 9 C8 8.34 8 7.68 8 7 C8.66 7 9.32 7 10 7 C10 5.35 10 3.7 10 2 C6.7 2 3.4 2 0 2 C0 1.34 0 0.68 0 0 Z " fill="#A0E6E9" transform="translate(108,45)"/>
<path d="M0 0 C2.31 0 4.62 0 7 0 C7 1.65 7 3.3 7 5 C3.37 5 -0.26 5 -4 5 C-4 6.65 -4 8.3 -4 10 C-5.32 10 -6.64 10 -8 10 C-8 8.02 -8 6.04 -8 4 C-5.36 4 -2.72 4 0 4 C0 2.68 0 1.36 0 0 Z " fill="#3D418D" transform="translate(34,49)"/>
<path d="M0 0 C1.24716797 0.00322266 2.49433594 0.00644531 3.77929688 0.00976562 C5.07287109 0.01814453 6.36644531 0.02652344 7.69921875 0.03515625 C9.66858398 0.04192383 9.66858398 0.04192383 11.67773438 0.04882812 C14.91410885 0.06059676 18.15039053 0.07703865 21.38671875 0.09765625 C21.05671875 0.75765625 20.72671875 1.41765625 20.38671875 2.09765625 C19.73074707 2.11747559 19.07477539 2.13729492 18.39892578 2.15771484 C15.43610806 2.25278132 12.47401343 2.36253377 9.51171875 2.47265625 C7.96291016 2.5190625 7.96291016 2.5190625 6.3828125 2.56640625 C4.90361328 2.62441406 4.90361328 2.62441406 3.39453125 2.68359375 C2.4833252 2.71501465 1.57211914 2.74643555 0.63330078 2.77880859 C-1.81259311 2.89648136 -1.81259311 2.89648136 -3.61328125 5.09765625 C-6.34197532 5.06478042 -8.90994305 4.53367854 -11.61328125 4.09765625 C-11.61328125 3.10765625 -11.61328125 2.11765625 -11.61328125 1.09765625 C-7.68039761 0.16677716 -4.03673962 -0.0184326 0 0 Z " fill="#D9D9E8" transform="translate(106.61328125,125.90234375)"/>
<path d="M0 0 C0.66 0 1.32 0 2 0 C2 0.66 2 1.32 2 2 C1.34 2 0.68 2 0 2 C0 1.34 0 0.68 0 0 Z M0 2 C0.33 2.66 0.66 3.32 1 4 C1.66 3.67 2.32 3.34 3 3 C2.814375 3.7425 2.62875 4.485 2.4375 5.25 C2.00796892 7.94990963 2.14877026 9.44631077 3 12 C2.01 11.34 1.02 10.68 0 10 C-2.32387947 9.60612212 -4.65793749 9.26513915 -7 9 C-7 8.01 -7 7.02 -7 6 C-2.65714286 2 -2.65714286 2 0 2 Z " fill="#43ABE5" transform="translate(40,88)"/>
<path d="M0 0 C0.66 0 1.32 0 2 0 C2.09765625 6.15234375 2.09765625 6.15234375 2 8 C1 9 1 9 -1.06640625 9.09765625 C-1.89011719 9.08605469 -2.71382813 9.07445313 -3.5625 9.0625 C-4.38878906 9.05347656 -5.21507813 9.04445313 -6.06640625 9.03515625 C-6.70449219 9.02355469 -7.34257813 9.01195313 -8 9 C-8 8.34 -8 7.68 -8 7 C-7.01 7 -6.02 7 -5 7 C-5 6.01 -5 5.02 -5 4 C-4.01 4 -3.02 4 -2 4 C-2 3.34 -2 2.68 -2 2 C-1.34 2 -0.68 2 0 2 C0 1.34 0 0.68 0 0 Z " fill="#37DEC8" transform="translate(121,105)"/>
<path d="M0 0 C0.33 0 0.66 0 1 0 C1.02687279 1.81242052 1.04633715 3.62495233 1.0625 5.4375 C1.07410156 6.44683594 1.08570312 7.45617187 1.09765625 8.49609375 C1 11 1 11 0 12 C-1.85287502 12.07226502 -3.70833878 12.0838122 -5.5625 12.0625 C-6.57441406 12.05347656 -7.58632812 12.04445313 -8.62890625 12.03515625 C-9.41136719 12.02355469 -10.19382812 12.01195313 -11 12 C-11.33 11.34 -11.66 10.68 -12 10 C-8.7 10 -5.4 10 -2 10 C-2.04125 8.906875 -2.0825 7.81375 -2.125 6.6875 C-2 3 -2 3 0 0 Z " fill="#36E0C1" transform="translate(97,68)"/>
<path d="M0 0 C3.375 -0.125 3.375 -0.125 7 0 C7.66 0.66 8.32 1.32 9 2 C9.66 1.34 10.32 0.68 11 0 C10.67 1.65 10.34 3.3 10 5 C6.7 5 3.4 5 0 5 C0 3.35 0 1.7 0 0 Z " fill="#35AEC6" transform="translate(33,97)"/>
<path d="M0 0 C1.23556641 0.01740234 1.23556641 0.01740234 2.49609375 0.03515625 C3.32238281 0.04417969 4.14867187 0.05320312 5 0.0625 C5.63808594 0.07410156 6.27617188 0.08570312 6.93359375 0.09765625 C6.93359375 0.75765625 6.93359375 1.41765625 6.93359375 2.09765625 C5.94359375 2.09765625 4.95359375 2.09765625 3.93359375 2.09765625 C3.93359375 2.75765625 3.93359375 3.41765625 3.93359375 4.09765625 C3.29421875 4.20078125 2.65484375 4.30390625 1.99609375 4.41015625 C1.31546875 4.63703125 0.63484375 4.86390625 -0.06640625 5.09765625 C-0.39640625 6.08765625 -0.72640625 7.07765625 -1.06640625 8.09765625 C-1.72640625 8.09765625 -2.38640625 8.09765625 -3.06640625 8.09765625 C-3.10882348 5.7647085 -3.10733562 3.43063058 -3.06640625 1.09765625 C-2.06640625 0.09765625 -2.06640625 0.09765625 0 0 Z " fill="#4697EB" transform="translate(36.06640625,85.90234375)"/>
<path d="M0 0 C3.3 0 6.6 0 10 0 C9 2 9 2 7 2.9375 C4.65391779 3.8891846 4.65391779 3.8891846 4 7 C2.02 7.99 2.02 7.99 0 9 C0 6.03 0 3.06 0 0 Z " fill="#3DBBDE" transform="translate(105,54)"/>
<path d="M0 0 C1.65 0.33 3.3 0.66 5 1 C5 1.66 5 2.32 5 3 C6.32 2.67 7.64 2.34 9 2 C9 2.66 9 3.32 9 4 C3.06 4 -2.88 4 -9 4 C-9 3.34 -9 2.68 -9 2 C-6.03 2 -3.06 2 0 2 C0 1.34 0 0.68 0 0 Z " fill="#81D9E3" transform="translate(16,73)"/>
<path d="M0 0 C1.00289062 0.10183594 2.00578125 0.20367187 3.0390625 0.30859375 C3.80992188 0.39238281 4.58078125 0.47617187 5.375 0.5625 C5.045 1.8825 4.715 3.2025 4.375 4.5625 C4.045 4.2325 3.715 3.9025 3.375 3.5625 C2.03484779 3.40667697 0.68741097 3.31205858 -0.66015625 3.24609375 C-1.46904297 3.20419922 -2.27792969 3.16230469 -3.11132812 3.11914062 C-3.96146484 3.07982422 -4.81160156 3.04050781 -5.6875 3 C-6.54150391 2.95681641 -7.39550781 2.91363281 -8.27539062 2.86914062 C-10.39172037 2.76273298 -12.50833813 2.66208269 -14.625 2.5625 C-14.625 1.9025 -14.625 1.2425 -14.625 0.5625 C-13.51125 0.583125 -12.3975 0.60375 -11.25 0.625 C-7.0798345 0.55310059 -4.2832428 -0.44824634 0 0 Z " fill="#71CEDC" transform="translate(112.625,46.4375)"/>
<path d="M0 0 C1.37478516 0.01740234 1.37478516 0.01740234 2.77734375 0.03515625 C3.69644531 0.04417969 4.61554688 0.05320312 5.5625 0.0625 C6.27277344 0.07410156 6.98304687 0.08570312 7.71484375 0.09765625 C4.71484375 2.09765625 4.71484375 2.09765625 1.71484375 2.09765625 C1.71484375 2.75765625 1.71484375 3.41765625 1.71484375 4.09765625 C0.04817708 5.76432292 -1.61848958 7.43098958 -3.28515625 9.09765625 C-3.3828125 2.9453125 -3.3828125 2.9453125 -3.28515625 1.09765625 C-2.28515625 0.09765625 -2.28515625 0.09765625 0 0 Z " fill="#45B4F5" transform="translate(108.28515625,95.90234375)"/>
<path d="M0 0 C8.07029553 -0.11547323 15.97667603 0.09958689 24 1 C24 1.33 24 1.66 24 2 C19.38 2 14.76 2 10 2 C10 2.66 10 3.32 10 4 C9.01 4 8.02 4 7 4 C7 3.34 7 2.68 7 2 C4.69 2 2.38 2 0 2 C0 1.34 0 0.68 0 0 Z " fill="#88D7E7" transform="translate(34,45)"/>
<path d="M0 0 C0.66 0 1.32 0 2 0 C2 2.97 2 5.94 2 9 C0.02 9.99 0.02 9.99 -2 11 C-2.05399736 9.54207116 -2.09279177 8.08357288 -2.125 6.625 C-2.15980469 5.40683594 -2.15980469 5.40683594 -2.1953125 4.1640625 C-2 2 -2 2 0 0 Z " fill="#6B6EFE" transform="translate(125,93)"/>
<path d="M0 0 C1.98 0 3.96 0 6 0 C6 1.98 6 3.96 6 6 C4.02 6 2.04 6 0 6 C0 4.02 0 2.04 0 0 Z " fill="#A6C7FF" transform="translate(83,85)"/>
<path d="M0 0 C1.98 0 3.96 0 6 0 C6 1.98 6 3.96 6 6 C4.02 6 2.04 6 0 6 C0 4.02 0 2.04 0 0 Z " fill="#A6C7FF" transform="translate(74,85)"/>
<path d="M0 0 C2.31 0 4.62 0 7 0 C7 1.65 7 3.3 7 5 C4.69 5 2.38 5 0 5 C0 3.35 0 1.7 0 0 Z " fill="#3C3E8A" transform="translate(98,49)"/>
<path d="M0 0 C6.6 0 13.2 0 20 0 C20 0.99 20 1.98 20 3 C13.4 2.34 6.8 1.68 0 1 C0 0.67 0 0.34 0 0 Z " fill="#41D1D8" transform="translate(14,32)"/>
<path d="M0 0 C-1.14018002 3.42054006 -1.92458518 4.2426201 -5 6 C-7.25 5.6875 -7.25 5.6875 -9 5 C-8.3125 2.5625 -8.3125 2.5625 -7 0 C-4.11143484 -1.01099781 -2.76813517 -1.38406758 0 0 Z " fill="#41C6D8" transform="translate(60,88)"/>
<path d="M0 0 C0.33 0.66 0.66 1.32 1 2 C1.99 2.33 2.98 2.66 4 3 C4.125 8.75 4.125 8.75 3 11 C2.01 10.67 1.02 10.34 0 10 C0 6.7 0 3.4 0 0 Z " fill="#39C2C7" transform="translate(115,52)"/>
<path d="M0 0 C0.33 0 0.66 0 1 0 C1 2.97 1 5.94 1 9 C-0.98 9 -2.96 9 -5 9 C-4.42680151 5.13091017 -2.56186024 2.88209277 0 0 Z " fill="#39D0CF" transform="translate(59,88)"/>
<path d="M0 0 C0.99 0 1.98 0 3 0 C3 3.96 3 7.92 3 12 C2.01 11.67 1.02 11.34 0 11 C0 7.37 0 3.74 0 0 Z " fill="#3B95D7" transform="translate(41,49)"/>
<path d="M0 0 C0 0.66 0 1.32 0 2 C-5.94 2.495 -5.94 2.495 -12 3 C-12.33 2.01 -12.66 1.02 -13 0 C-11.39679026 -0.19551338 -9.79237014 -0.38111983 -8.1875 -0.5625 C-7.29417969 -0.66691406 -6.40085937 -0.77132812 -5.48046875 -0.87890625 C-3 -1 -3 -1 0 0 Z " fill="#4ED2D8" transform="translate(46,102)"/>
<path d="M0 0 C0.66 0 1.32 0 2 0 C1.69128878 1.79232337 1.37790936 3.58384321 1.0625 5.375 C0.88847656 6.37273437 0.71445312 7.37046875 0.53515625 8.3984375 C0 11 0 11 -1 13 C-1.66 13 -2.32 13 -3 13 C-2.52060632 8.28596212 -2.03165952 4.33420699 0 0 Z " fill="#D6F1F6" transform="translate(47,89)"/>
<path d="M0 0 C0.66 0 1.32 0 2 0 C2 1.32 2 2.64 2 4 C4.97 4.33 7.94 4.66 11 5 C11 5.33 11 5.66 11 6 C5.39 6 -0.22 6 -6 6 C-6 5.67 -6 5.34 -6 5 C-4.35 4.67 -2.7 4.34 -1 4 C-0.67 2.68 -0.34 1.36 0 0 Z " fill="#69D8DD" transform="translate(13,47)"/>
<path d="M0 0 C2.0625 0.4375 2.0625 0.4375 4 1 C4 2.32 4 3.64 4 5 C2.68 5.33 1.36 5.66 0 6 C-0.38218767 4.34385343 -0.71395102 2.67542976 -1 1 C-0.67 0.67 -0.34 0.34 0 0 Z " fill="#4BCFDC" transform="translate(22,67)"/>
<path d="M0 0 C0.91007812 0.10183594 1.82015625 0.20367187 2.7578125 0.30859375 C3.45648438 0.39238281 4.15515625 0.47617188 4.875 0.5625 C4.875 1.2225 4.875 1.8825 4.875 2.5625 C0.255 2.5625 -4.365 2.5625 -9.125 2.5625 C-5.92868638 -0.63381362 -4.35745525 -0.5027833 0 0 Z " fill="#98BFFE" transform="translate(69.125,118.4375)"/>
<path d="M0 0 C2.05078125 0.03255208 4.1015625 0.06510417 6.15234375 0.09765625 C5.82234375 0.75765625 5.49234375 1.41765625 5.15234375 2.09765625 C2.58984375 2.72265625 2.58984375 2.72265625 0.15234375 3.09765625 C0.15234375 3.75765625 0.15234375 4.41765625 0.15234375 5.09765625 C-1.16765625 5.09765625 -2.48765625 5.09765625 -3.84765625 5.09765625 C-2.72914438 0.14424653 -2.72914438 0.14424653 0 0 Z " fill="#3DBADC" transform="translate(52.84765625,85.90234375)"/>
<path d="M0 0 C0.66 0 1.32 0 2 0 C2.66 1.98 3.32 3.96 4 6 C3.34 6 2.68 6 2 6 C2 6.66 2 7.32 2 8 C1.01 8 0.02 8 -1 8 C-1.125 2.25 -1.125 2.25 0 0 Z " fill="#6763FF" transform="translate(103,109)"/>
<path d="M0 0 C0.433125 0.639375 0.86625 1.27875 1.3125 1.9375 C2.91239177 4.26746003 2.91239177 4.26746003 6 5 C5.67 5.99 5.34 6.98 5 8 C4.01 8 3.02 8 2 8 C1.34 7.34 0.68 6.68 0 6 C-0.66 5.67 -1.32 5.34 -2 5 C-2 4.34 -2 3.68 -2 3 C-1.34 3 -0.68 3 0 3 C0 2.01 0 1.02 0 0 Z " fill="#F6FBFD" transform="translate(19,68)"/>
<path d="M0 0 C1.32 0 2.64 0 4 0 C4 1.98 4 3.96 4 6 C3.01 6.33 2.02 6.66 1 7 C0 6 0 6 -0.0625 2.9375 C-0.041875 1.968125 -0.02125 0.99875 0 0 Z " fill="#34B0C5" transform="translate(26,59)"/>
<path d="M0 0 C2.31 0.33 4.62 0.66 7 1 C6.01 1.66 5.02 2.32 4 3 C3.01 4.485 3.01 4.485 2 6 C1.01 5.67 0.02 5.34 -1 5 C-0.67 3.35 -0.34 1.7 0 0 Z " fill="#DAF3F8" transform="translate(18,65)"/>
<path d="M0 0 C0.66 1.32 1.32 2.64 2 4 C1.34 4.66 0.68 5.32 0 6 C-1.98 5.34 -3.96 4.68 -6 4 C-4.03617993 2.49440461 -2.21736634 1.10868317 0 0 Z " fill="#5ED3E0" transform="translate(122,33)"/>
<path d="M0 0 C3.96 0 7.92 0 12 0 C11 2 11 2 9.375 2.75 C5.96334563 3.10912151 3.22534792 2.05444067 0 1 C0 0.67 0 0.34 0 0 Z " fill="#7ED8E4" transform="translate(110,33)"/>
<path d="M0 0 C0.66 0.66 1.32 1.32 2 2 C1.7578125 4.1640625 1.7578125 4.1640625 1.125 6.625 C0.92132813 7.44226563 0.71765625 8.25953125 0.5078125 9.1015625 C0.34023438 9.72804688 0.17265625 10.35453125 0 11 C-0.33 11 -0.66 11 -1 11 C-1.02688151 9.35425434 -1.04634123 7.70838587 -1.0625 6.0625 C-1.07410156 5.14597656 -1.08570313 4.22945312 -1.09765625 3.28515625 C-1 1 -1 1 0 0 Z " fill="#3E9BE9" transform="translate(42,59)"/>
<path d="M0 0 C0.66 0 1.32 0 2 0 C2 1.65 2 3.3 2 5 C2.66 5.33 3.32 5.66 4 6 C2.02 6.99 2.02 6.99 0 8 C-0.66 7.01 -1.32 6.02 -2 5 C-1.34 5 -0.68 5 0 5 C0 3.35 0 1.7 0 0 Z " fill="#FFFFFF" transform="translate(119,48)"/>
<path d="M0 0 C1.21346851 3.64040554 1.21346851 5.35959446 0 9 C-1.32 7.35 -2.64 5.7 -4 4 C-2.68 2.68 -1.36 1.36 0 0 Z " fill="#E4F6F9" transform="translate(42,91)"/>
<path d="M0 0 C1.32 0 2.64 0 4 0 C4.33 1.32 4.66 2.64 5 4 C2.36 4 -0.28 4 -3 4 C-2.34 3.67 -1.68 3.34 -1 3 C-0.67 2.01 -0.34 1.02 0 0 Z " fill="#BED7FF" transform="translate(81,114)"/>
<path d="M0 0 C1.65 0.99 3.3 1.98 5 3 C3.35 4.65 1.7 6.3 0 8 C0.185625 7.236875 0.37125 6.47375 0.5625 5.6875 C1.22819173 2.91032625 1.22819173 2.91032625 0 0 Z " fill="#E8F8FA" transform="translate(50,92)"/>
<path d="M0 0 C0.66 0 1.32 0 2 0 C2 0.99 2 1.98 2 3 C2.66 3 3.32 3 4 3 C3.67 3.99 3.34 4.98 3 6 C1.68 5.67 0.36 5.34 -1 5 C-0.67 3.35 -0.34 1.7 0 0 Z " fill="#36C3C5" transform="translate(47,97)"/>
<path d="M0 0 C0.598125 0.20625 1.19625 0.4125 1.8125 0.625 C1.4825 1.285 1.1525 1.945 0.8125 2.625 C0.1525 2.625 -0.5075 2.625 -1.1875 2.625 C-1.5175 3.615 -1.8475 4.605 -2.1875 5.625 C-2.1875 4.635 -2.1875 3.645 -2.1875 2.625 C-3.1775 2.295 -4.1675 1.965 -5.1875 1.625 C-2.1875 -0.375 -2.1875 -0.375 0 0 Z " fill="#49DAD1" transform="translate(124.1875,54.375)"/>
</svg>
