<?xml version="1.0" encoding="UTF-8"?>
<svg version="1.1" xmlns="http://www.w3.org/2000/svg" width="150" height="150">
<path d="M0 0 C0.6875 2.0625 0.6875 2.0625 1 4 C3.80764728 4.77426109 3.80764728 4.77426109 7 5 C9.36290685 3.68864588 9.36290685 3.68864588 11 2 C12.98 3.98 14.96 5.96 17 8 C15.5 11 15.5 11 14 14 C15.82337891 13.98259766 15.82337891 13.98259766 17.68359375 13.96484375 C19.26822764 13.95546722 20.85286318 13.94636687 22.4375 13.9375 C23.23994141 13.92912109 24.04238281 13.92074219 24.86914062 13.91210938 C26.91295221 13.9034857 28.95683902 13.9477185 31 14 C32 15 32 15 32.11352539 17.50024414 C32.10567017 19.12627563 32.10567017 19.12627563 32.09765625 20.78515625 C32.09282227 22.53989258 32.09282227 22.53989258 32.08789062 24.33007812 C32.07532227 26.17762695 32.07532227 26.17762695 32.0625 28.0625 C32.05798828 29.29806641 32.05347656 30.53363281 32.04882812 31.80664062 C32.03699608 34.87114117 32.02051173 37.93554721 32 41 C33.98 40.01 33.98 40.01 36 39 C37.5625 40.75 37.5625 40.75 39 43 C38.6875 45.125 38.6875 45.125 38 47 C38 47.66 38 48.32 38 49 C38.99 49.33 39.98 49.66 41 50 C40.67 51.32 40.34 52.64 40 54 C38.824375 54.0928125 38.824375 54.0928125 37.625 54.1875 C36.75875 54.455625 35.8925 54.72375 35 55 C33.62533375 57.47636012 33.62533375 57.47636012 33 60 C31.68 60 30.36 60 29 60 C28.67 59.34 28.34 58.68 28 58 C27.071875 58.0825 26.14375 58.165 25.1875 58.25 C22 58 22 58 20.0625 56.25 C18.78226842 53.53892135 19.27972737 52.79105644 20 50 C18.64555699 48.22809091 18.64555699 48.22809091 17 47 C17.33 46.01 17.66 45.02 18 44 C17.34 44 16.68 44 16 44 C16 50.6 16 57.2 16 64 C18.31 64 20.62 64 23 64 C24 65 24 65 24.11352539 68.96899414 C24.1133662 70.74105607 24.10766785 72.5131226 24.09765625 74.28515625 C24.0962413 75.21597519 24.09482635 76.14679413 24.09336853 77.1058197 C24.08775172 80.09141191 24.0751964 83.07693029 24.0625 86.0625 C24.05748716 88.08137913 24.05292388 90.10025943 24.04882812 92.11914062 C24.03777683 97.07945572 24.02050095 102.03971532 24 107 C26.31 107.66 28.62 108.32 31 109 C30 111 30 111 28.34521484 111.61450195 C23.49200924 112.41225457 18.54404055 112.18590312 13.63769531 112.18530273 C11.63863013 112.18748512 9.63960468 112.20599143 7.640625 112.22460938 C6.36960937 112.22654297 5.09859375 112.22847656 3.7890625 112.23046875 C2.63100098 112.23457764 1.47293945 112.23868652 0.27978516 112.24291992 C-3.11310954 111.99162245 -5.83332989 111.21173908 -9 110 C-8.67 109.34 -8.34 108.68 -8 108 C-5.4375 107.375 -5.4375 107.375 -3 107 C-3.67857056 106.99191315 -4.35714111 106.98382629 -5.05627441 106.97549438 C-12.19572947 106.88863335 -19.33493245 106.7891071 -26.47412109 106.68261719 C-29.12938188 106.64363425 -31.7845665 106.60971702 -34.43994141 106.578125 C-72.93926359 106.11445232 -72.93926359 106.11445232 -80 102 C-78.74458443 99.48916886 -77.49936512 99.12874554 -75 98 C-78.71736641 97.65099442 -78.71736641 97.65099442 -81.8125 99.5 C-82.204375 99.995 -82.59625 100.49 -83 101 C-84.98 99.68 -86.96 98.36 -89 97 C-88.814375 96.236875 -88.62875 95.47375 -88.4375 94.6875 C-87.77180827 91.91032625 -87.77180827 91.91032625 -89 89 C-90.65 89 -92.3 89 -94 89 C-94 86.69 -94 84.38 -94 82 C-93.38125 81.9175 -92.7625 81.835 -92.125 81.75 C-89.86857414 81.18006505 -89.86857414 81.18006505 -88.6875 79.1875 C-87.89848673 76.67700322 -88.12675738 75.44507934 -89 73 C-87.68 72.01 -86.36 71.02 -85 70 C-84.13375 70.4640625 -84.13375 70.4640625 -83.25 70.9375 C-80.78094132 72.19285032 -80.78094132 72.19285032 -77 73 C-77 69.04 -77 65.08 -77 61 C-81.29 61 -85.58 61 -90 61 C-90.02683436 57.68744674 -90.0467578 54.37510817 -90.0625 51.0625 C-90.07087891 50.11697266 -90.07925781 49.17144531 -90.08789062 48.19726562 C-90.09111328 47.29814453 -90.09433594 46.39902344 -90.09765625 45.47265625 C-90.10289307 44.64000244 -90.10812988 43.80734863 -90.11352539 42.94946289 C-90 41 -90 41 -89 40 C-86.98035801 39.92755947 -84.95832876 39.91622812 -82.9375 39.9375 C-81.28041016 39.95103516 -81.28041016 39.95103516 -79.58984375 39.96484375 C-78.73519531 39.97644531 -77.88054687 39.98804688 -77 40 C-77.061875 38.906875 -77.12375 37.81375 -77.1875 36.6875 C-77 33 -77 33 -75.875 31.28125 C-73.1629604 29.42802294 -71.05676436 29.70784631 -67.8125 29.8125 C-66.72582031 29.83957031 -65.63914062 29.86664063 -64.51953125 29.89453125 C-63.27236328 29.94673828 -63.27236328 29.94673828 -62 30 C-61.67 28.68 -61.34 27.36 -61 26 C-45.82 26 -30.64 26 -15 26 C-15.33 24.35 -15.66 22.7 -16 21 C-18.47636012 19.62533375 -18.47636012 19.62533375 -21 19 C-20.01 14.545 -20.01 14.545 -19 10 C-17.329375 10.061875 -17.329375 10.061875 -15.625 10.125 C-11.95633975 10.41121859 -11.95633975 10.41121859 -10 8 C-9.83322718 4.41656024 -9.83322718 4.41656024 -10 1 C-3.375 -1.125 -3.375 -1.125 0 0 Z M-7 13 C-9.2084626 16.31269391 -9.80664241 18.14978851 -9.5546875 22.0625 C-8.4812192 25.81207941 -6.28696911 27.01541488 -3 29 C-0.36163023 29.1672392 -0.36163023 29.1672392 2 29 C2.03738281 28.01257813 2.07476562 27.02515625 2.11328125 26.0078125 C2.17902344 24.72648437 2.24476562 23.44515625 2.3125 22.125 C2.37050781 20.84882812 2.42851563 19.57265625 2.48828125 18.2578125 C2.65714844 17.18273437 2.82601562 16.10765625 3 15 C3.99 14.34 4.98 13.68 6 13 C4.01607489 10.60148679 4.01607489 10.60148679 0.1875 10.5625 C-3.17733329 10.66669338 -4.04370031 11.02913354 -7 13 Z M24 46 C23.6366844 48.83386167 23.6431329 50.40522151 25.125 52.875 C27.92151052 54.55290631 29.93690532 53.74875648 33 53 C33.67673447 49.59679066 33.67673447 49.59679066 34 46 C32.11499729 43.68436913 32.11499729 43.68436913 29 43.75 C25.88500271 43.68436913 25.88500271 43.68436913 24 46 Z M-83.25 79.625 C-85.21985834 81.92308586 -85.21985834 81.92308586 -85.5 85 C-85.21376982 88.06575838 -85.21376982 88.06575838 -83.3125 90.375 C-80.61209763 92.27258004 -79.22939919 92.35882213 -76 92 C-75.85024761 84.94348748 -75.85024761 84.94348748 -77 78 C-80.92212225 77.60967296 -80.92212225 77.60967296 -83.25 79.625 Z M-68 94 C-68.33 95.65 -68.66 97.3 -69 99 C-56.13 98.01 -56.13 98.01 -43 97 C-42.67 96.01 -42.34 95.02 -42 94 C-50.58 94 -59.16 94 -68 94 Z M-18 94 C-18 94.99 -18 95.98 -18 97 C-12.72 97.33 -7.44 97.66 -2 98 C-2 96.68 -2 95.36 -2 94 C-7.28 94 -12.56 94 -18 94 Z " fill="#7386FE" transform="translate(103,19)"/>
<path d="M0 0 C0.6875 2.0625 0.6875 2.0625 1 4 C3.80764728 4.77426109 3.80764728 4.77426109 7 5 C9.36290685 3.68864588 9.36290685 3.68864588 11 2 C12.98 3.98 14.96 5.96 17 8 C16 10 15 12 14 14 C15.82337891 13.98259766 15.82337891 13.98259766 17.68359375 13.96484375 C19.26822764 13.95546722 20.85286318 13.94636687 22.4375 13.9375 C23.23994141 13.92912109 24.04238281 13.92074219 24.86914062 13.91210938 C26.91295221 13.9034857 28.95683902 13.9477185 31 14 C32 15 32 15 32.11352539 17.50024414 C32.10567017 19.12627563 32.10567017 19.12627563 32.09765625 20.78515625 C32.09282227 22.53989258 32.09282227 22.53989258 32.08789062 24.33007812 C32.07532227 26.17762695 32.07532227 26.17762695 32.0625 28.0625 C32.05798828 29.29806641 32.05347656 30.53363281 32.04882812 31.80664062 C32.03699608 34.87114117 32.02051173 37.93554721 32 41 C33.32 40.34 34.64 39.68 36 39 C37.5625 40.75 37.5625 40.75 39 43 C38.6875 45.125 38.6875 45.125 38 47 C38 47.66 38 48.32 38 49 C39.485 49.495 39.485 49.495 41 50 C40.67 51.32 40.34 52.64 40 54 C38.824375 54.0928125 38.824375 54.0928125 37.625 54.1875 C36.325625 54.5896875 36.325625 54.5896875 35 55 C33.62533375 57.47636012 33.62533375 57.47636012 33 60 C31.68 60 30.36 60 29 60 C28.67 59.34 28.34 58.68 28 58 C27.071875 58.0825 26.14375 58.165 25.1875 58.25 C22 58 22 58 20.0625 56.25 C18.78226842 53.53892135 19.27972737 52.79105644 20 50 C18.64555699 48.22809091 18.64555699 48.22809091 17 47 C17.33 46.01 17.66 45.02 18 44 C17.34 44 16.68 44 16 44 C16 50.6 16 57.2 16 64 C18.31 64 20.62 64 23 64 C23.33 64.99 23.66 65.98 24 67 C15.19039858 68.30512614 6.80960142 68.30512614 -2 67 C-1.505 65.515 -1.505 65.515 -1 64 C3.29 64 7.58 64 12 64 C12 57.4 12 50.8 12 44 C8.7 44 5.4 44 2 44 C2 41.03 2 38.06 2 35 C-0.31 35 -2.62 35 -5 35 C-4.98839844 35.63808594 -4.97679687 36.27617188 -4.96484375 36.93359375 C-4.95582031 37.75988281 -4.94679687 38.58617187 -4.9375 39.4375 C-4.92589844 40.26121094 -4.91429687 41.08492187 -4.90234375 41.93359375 C-5 44 -5 44 -6 45 C-7.71318946 45.09881593 -9.43044803 45.12798969 -11.14648438 45.12939453 C-12.24432251 45.13254669 -13.34216064 45.13569885 -14.4732666 45.13894653 C-15.66802612 45.1369223 -16.86278564 45.13489807 -18.09375 45.1328125 C-19.31074585 45.13376923 -20.5277417 45.13472595 -21.78161621 45.13571167 C-24.36075899 45.13639372 -26.93990347 45.13453772 -29.51904297 45.13037109 C-33.48278636 45.12502322 -37.44641642 45.13031529 -41.41015625 45.13671875 C-43.90885442 45.13605797 -46.40755252 45.13477682 -48.90625 45.1328125 C-50.69838928 45.13584885 -50.69838928 45.13584885 -52.5267334 45.13894653 C-53.62457153 45.13579437 -54.72240967 45.13264221 -55.85351562 45.12939453 C-57.31126404 45.12820114 -57.31126404 45.12820114 -58.79846191 45.12698364 C-61 45 -61 45 -62 44 C-62.10002455 41.34346557 -62.13877463 38.71870728 -62.125 36.0625 C-62.12886719 35.32064453 -62.13273437 34.57878906 -62.13671875 33.81445312 C-62.12663501 28.25327002 -62.12663501 28.25327002 -61 26 C-45.82 26 -30.64 26 -15 26 C-15.33 24.35 -15.66 22.7 -16 21 C-18.47636012 19.62533375 -18.47636012 19.62533375 -21 19 C-20.34 16.03 -19.68 13.06 -19 10 C-17.329375 10.061875 -17.329375 10.061875 -15.625 10.125 C-11.95633975 10.41121859 -11.95633975 10.41121859 -10 8 C-9.83322718 4.41656024 -9.83322718 4.41656024 -10 1 C-3.375 -1.125 -3.375 -1.125 0 0 Z M-7 13 C-9.2084626 16.31269391 -9.80664241 18.14978851 -9.5546875 22.0625 C-8.4812192 25.81207941 -6.28696911 27.01541488 -3 29 C-0.36163023 29.1672392 -0.36163023 29.1672392 2 29 C2.03738281 28.01257813 2.07476562 27.02515625 2.11328125 26.0078125 C2.17902344 24.72648437 2.24476562 23.44515625 2.3125 22.125 C2.37050781 20.84882812 2.42851563 19.57265625 2.48828125 18.2578125 C2.65714844 17.18273437 2.82601562 16.10765625 3 15 C3.99 14.34 4.98 13.68 6 13 C4.01607489 10.60148679 4.01607489 10.60148679 0.1875 10.5625 C-3.17733329 10.66669338 -4.04370031 11.02913354 -7 13 Z M24 46 C23.6366844 48.83386167 23.6431329 50.40522151 25.125 52.875 C27.92151052 54.55290631 29.93690532 53.74875648 33 53 C33.67673447 49.59679066 33.67673447 49.59679066 34 46 C32.11499729 43.68436913 32.11499729 43.68436913 29 43.75 C25.88500271 43.68436913 25.88500271 43.68436913 24 46 Z " fill="#3AC5D1" transform="translate(103,19)"/>
<path d="M0 0 C0.5775 0.309375 1.155 0.61875 1.75 0.9375 C3.84294184 1.92583364 5.74535275 2.5168613 8 3 C8 4.65 8 6.3 8 8 C7.030625 8.28875 6.06125 8.5775 5.0625 8.875 C1.89335797 9.64214682 1.89335797 9.64214682 1 12 C0.85624578 15.37822416 0.92463652 17.77390955 2 21 C4.31 21.33 6.62 21.66 9 22 C9 19.03 9 16.06 9 13 C10.98 13 12.96 13 15 13 C15.33 13.66 15.66 14.32 16 15 C24.25 15 32.5 15 41 15 C41.33 14.34 41.66 13.68 42 13 C55.53 13 69.06 13 83 13 C83 16.63 83 20.26 83 24 C77.72 24 72.44 24 67 24 C67 24.99 67 25.98 67 27 C67.56847656 26.98839844 68.13695313 26.97679688 68.72265625 26.96484375 C73.60670484 26.90776806 78.18503965 27.18043228 83 28 C83 30.64 83 33.28 83 36 C75.71409984 36.04682155 68.42823335 36.08211748 61.14221191 36.10362434 C57.75718789 36.11395864 54.37226851 36.12792229 50.98730469 36.15087891 C12.5625541 36.39227608 12.5625541 36.39227608 5 32 C6.25541557 29.48916886 7.50063488 29.12874554 10 28 C6.28263359 27.65099442 6.28263359 27.65099442 3.1875 29.5 C2.795625 29.995 2.40375 30.49 2 31 C0.02 29.68 -1.96 28.36 -4 27 C-3.7215625 25.8553125 -3.7215625 25.8553125 -3.4375 24.6875 C-2.77180827 21.91032625 -2.77180827 21.91032625 -4 19 C-5.65 19 -7.3 19 -9 19 C-9 16.69 -9 14.38 -9 12 C-8.071875 11.87625 -8.071875 11.87625 -7.125 11.75 C-4.86857414 11.18006505 -4.86857414 11.18006505 -3.6875 9.1875 C-2.89848673 6.67700322 -3.12675738 5.44507934 -4 3 C-2.68 2.01 -1.36 1.02 0 0 Z M17 24 C16.67 25.65 16.34 27.3 16 29 C28.87 28.01 28.87 28.01 42 27 C42.33 26.01 42.66 25.02 43 24 C34.42 24 25.84 24 17 24 Z " fill="#BAD4FE" transform="translate(18,89)"/>
<path d="M0 0 C0.495 6.93 0.495 6.93 1 14 C7.93 14.33 14.86 14.66 22 15 C20.21398196 18.57203608 18.93313183 20.43350965 16 23 C15.34 23 14.68 23 14 23 C13.67 23.66 13.34 24.32 13 25 C10.63158361 26.97368032 8.95847985 28.01384005 6 29 C5.525625 29.495 5.05125 29.99 4.5625 30.5 C2.74806281 32.24185971 1.44440923 32.57855013 -1 33 C-1 33.99 -1 34.98 -1 36 C-0.14450562 36.03758423 -0.14450562 36.03758423 0.72827148 36.07592773 C3.29826157 36.19156549 5.86785527 36.31443624 8.4375 36.4375 C9.33533203 36.47681641 10.23316406 36.51613281 11.15820312 36.55664062 C12.01220703 36.59853516 12.86621094 36.64042969 13.74609375 36.68359375 C14.53685303 36.72025146 15.3276123 36.75690918 16.14233398 36.79467773 C18 37 18 37 19 38 C19.09986975 40.84335048 19.13877881 43.65697163 19.125 46.5 C19.13080078 47.69689453 19.13080078 47.69689453 19.13671875 48.91796875 C19.12660767 54.87339233 19.12660767 54.87339233 18 56 C16.14630389 56.08737645 14.28932459 56.10698153 12.43359375 56.09765625 C11.30888672 56.09443359 10.18417969 56.09121094 9.02539062 56.08789062 C7.84138672 56.07951172 6.65738281 56.07113281 5.4375 56.0625 C4.24962891 56.05798828 3.06175781 56.05347656 1.83789062 56.04882812 C-1.10812226 56.03699675 -4.05403681 56.02051287 -7 56 C-7.33 55.01 -7.66 54.02 -8 53 C-10.31 53 -12.62 53 -15 53 C-15 45.74 -15 38.48 -15 31 C-19.29 31 -23.58 31 -28 31 C-28.02683436 27.68744674 -28.0467578 24.37510817 -28.0625 21.0625 C-28.07087891 20.11697266 -28.07925781 19.17144531 -28.08789062 18.19726562 C-28.09111328 17.29814453 -28.09433594 16.39902344 -28.09765625 15.47265625 C-28.10289307 14.64000244 -28.10812988 13.80734863 -28.11352539 12.94946289 C-28 11 -28 11 -27 10 C-24.98035801 9.92755947 -22.95832876 9.91622812 -20.9375 9.9375 C-19.28041016 9.95103516 -19.28041016 9.95103516 -17.58984375 9.96484375 C-16.73519531 9.97644531 -15.88054688 9.98804688 -15 10 C-15.061875 8.906875 -15.12375 7.81375 -15.1875 6.6875 C-15 3 -15 3 -13.875 1.28125 C-9.98348385 -1.3779527 -4.48681699 -0.14473603 0 0 Z " fill="#5E4BFE" transform="translate(41,49)"/>
<path d="M0 0 C0.6875 2.0625 0.6875 2.0625 1 4 C3.80764728 4.77426109 3.80764728 4.77426109 7 5 C9.36290685 3.68864588 9.36290685 3.68864588 11 2 C12.98 3.98 14.96 5.96 17 8 C16 10 15 12 14 14 C15.82337891 13.98259766 15.82337891 13.98259766 17.68359375 13.96484375 C19.26822764 13.95546722 20.85286318 13.94636687 22.4375 13.9375 C23.23994141 13.92912109 24.04238281 13.92074219 24.86914062 13.91210938 C26.91295221 13.9034857 28.95683902 13.9477185 31 14 C32 15 32 15 32.11352539 17.50024414 C32.10828857 18.58426514 32.10305176 19.66828613 32.09765625 20.78515625 C32.09443359 21.95498047 32.09121094 23.12480469 32.08789062 24.33007812 C32.07532227 26.17762695 32.07532227 26.17762695 32.0625 28.0625 C32.05798828 29.29806641 32.05347656 30.53363281 32.04882812 31.80664062 C32.03699608 34.87114117 32.02051173 37.93554721 32 41 C33.32 40.34 34.64 39.68 36 39 C37.5625 40.75 37.5625 40.75 39 43 C38.6875 45.125 38.6875 45.125 38 47 C38 47.66 38 48.32 38 49 C38.99 49.33 39.98 49.66 41 50 C40.67 51.32 40.34 52.64 40 54 C38.824375 54.0928125 38.824375 54.0928125 37.625 54.1875 C36.75875 54.455625 35.8925 54.72375 35 55 C33.62533375 57.47636012 33.62533375 57.47636012 33 60 C31.68 60 30.36 60 29 60 C28.67 59.34 28.34 58.68 28 58 C27.071875 58.0825 26.14375 58.165 25.1875 58.25 C22 58 22 58 20.0625 56.25 C18.78226842 53.53892135 19.27972737 52.79105644 20 50 C18.64555699 48.22809091 18.64555699 48.22809091 17 47 C17.33 46.01 17.66 45.02 18 44 C17.34 44 16.68 44 16 44 C15.87625 43.195625 15.7525 42.39125 15.625 41.5625 C15.41875 40.716875 15.2125 39.87125 15 39 C14.01 38.505 14.01 38.505 13 38 C13 37.34 13 36.68 13 36 C13.66 36 14.32 36 15 36 C14.67 34.35 14.34 32.7 14 31 C7.73 30.67 1.46 30.34 -5 30 C-5 29.34 -5 28.68 -5 28 C-2.69 28.33 -0.38 28.66 2 29 C1.94779297 27.51886719 1.94779297 27.51886719 1.89453125 26.0078125 C1.86746094 24.72648437 1.84039062 23.44515625 1.8125 22.125 C1.76029297 20.21074219 1.76029297 20.21074219 1.70703125 18.2578125 C1.80371094 17.18273437 1.90039062 16.10765625 2 15 C2.99 14.34 3.98 13.68 5 13 C3.78410016 11.56844101 3.78410016 11.56844101 0.1875 11.6875 C-2.78617685 11.74622611 -3.87751147 11.92650688 -6.5 13.5 C-8.71177972 17.18629954 -8.34421275 19.73176192 -8 24 C-7.67 24.66 -7.34 25.32 -7 26 C-9.64 26 -12.28 26 -15 26 C-15.0928125 24.824375 -15.0928125 24.824375 -15.1875 23.625 C-15.455625 22.75875 -15.72375 21.8925 -16 21 C-18.47636012 19.62533375 -18.47636012 19.62533375 -21 19 C-20.34 16.03 -19.68 13.06 -19 10 C-17.329375 10.061875 -17.329375 10.061875 -15.625 10.125 C-11.95633975 10.41121859 -11.95633975 10.41121859 -10 8 C-9.83322718 4.41656024 -9.83322718 4.41656024 -10 1 C-3.375 -1.125 -3.375 -1.125 0 0 Z M24 46 C23.6366844 48.83386167 23.6431329 50.40522151 25.125 52.875 C27.92151052 54.55290631 29.93690532 53.74875648 33 53 C33.67673447 49.59679066 33.67673447 49.59679066 34 46 C32.11499729 43.68436913 32.11499729 43.68436913 29 43.75 C25.88500271 43.68436913 25.88500271 43.68436913 24 46 Z " fill="#39D4D2" transform="translate(103,19)"/>
<path d="M0 0 C0.74900574 0.0028299 1.49801147 0.00565979 2.26971436 0.00857544 C4.65393276 0.0197399 7.03777079 0.04483719 9.421875 0.0703125 C11.04166123 0.08034715 12.66145336 0.08947215 14.28125 0.09765625 C18.24493746 0.11966695 22.20834181 0.15417075 26.171875 0.1953125 C25.828125 2.1328125 25.828125 2.1328125 25.171875 4.1953125 C23.50520833 4.86197917 21.83854167 5.52864583 20.171875 6.1953125 C20.0275 6.80117187 19.883125 7.40703125 19.734375 8.03125 C19.01237031 10.8089625 17.75644695 11.88097712 15.671875 13.8203125 C13.05380854 16.23142166 13.05380854 16.23142166 11.171875 19.1953125 C12.491875 19.1953125 13.811875 19.1953125 15.171875 19.1953125 C14.676875 20.6803125 14.676875 20.6803125 14.171875 22.1953125 C12.851875 21.8653125 11.531875 21.5353125 10.171875 21.1953125 C8.83854167 24.1953125 8.83854167 24.1953125 10.171875 27.1953125 C6.546875 30.1953125 6.546875 30.1953125 3.171875 30.1953125 C5.81178768 32.83522518 7.15133796 32.49772047 10.8359375 32.609375 C11.95742187 32.64804688 13.07890625 32.68671875 14.234375 32.7265625 C15.41 32.7575 16.585625 32.7884375 17.796875 32.8203125 C18.98023438 32.85898438 20.16359375 32.89765625 21.3828125 32.9375 C24.31234191 33.03200095 27.24186097 33.11755808 30.171875 33.1953125 C30.171875 34.8453125 30.171875 36.4953125 30.171875 38.1953125 C16.641875 38.1953125 3.111875 38.1953125 -10.828125 38.1953125 C-11.158125 33.2453125 -11.488125 28.2953125 -11.828125 23.1953125 C-18.098125 22.8653125 -24.368125 22.5353125 -30.828125 22.1953125 C-31.158125 20.5453125 -31.488125 18.8953125 -31.828125 17.1953125 C-30.466875 17.0715625 -30.466875 17.0715625 -29.078125 16.9453125 C-25.37054049 16.08971607 -24.32579739 14.95136479 -21.828125 12.1953125 C-20.838125 11.8653125 -19.848125 11.5353125 -18.828125 11.1953125 C-18.498125 9.5453125 -18.168125 7.8953125 -17.828125 6.1953125 C-16.508125 6.8553125 -15.188125 7.5153125 -13.828125 8.1953125 C-13.580625 7.2465625 -13.333125 6.2978125 -13.078125 5.3203125 C-11.828125 2.1953125 -11.828125 2.1953125 -10.23925781 1.01220703 C-6.83646147 -0.14066423 -3.54861503 -0.05066061 0 0 Z " fill="#6B71FE" transform="translate(70.828125,63.8046875)"/>
<path d="M0 0 C0.5775 0.309375 1.155 0.61875 1.75 0.9375 C3.84294184 1.92583364 5.74535275 2.5168613 8 3 C8 4.65 8 6.3 8 8 C7.030625 8.28875 6.06125 8.5775 5.0625 8.875 C1.89335797 9.64214682 1.89335797 9.64214682 1 12 C0.85624578 15.37822416 0.92463652 17.77390955 2 21 C3.134375 21.144375 4.26875 21.28875 5.4375 21.4375 C9 22 9 22 10 23 C12.32817964 23.36760731 14.6618385 23.70241581 17 24 C17.33 25.32 17.66 26.64 18 28 C25.92 27.67 33.84 27.34 42 27 C41.67 27.66 41.34 28.32 41 29 C38.35139573 29.59355614 35.70802678 29.74209269 33 30 C33 30.66 33 31.32 33 32 C47.19 32 61.38 32 76 32 C75.505 31.01 75.505 31.01 75 30 C73.845 29.835 72.69 29.67 71.5 29.5 C70.345 29.335 69.19 29.17 68 29 C67.505 28.01 67.505 28.01 67 27 C72.45769811 26.88861841 77.61509359 27.08342019 83 28 C83 30.64 83 33.28 83 36 C75.71409984 36.04682155 68.42823335 36.08211748 61.14221191 36.10362434 C57.75718789 36.11395864 54.37226851 36.12792229 50.98730469 36.15087891 C12.5625541 36.39227608 12.5625541 36.39227608 5 32 C6.25541557 29.48916886 7.50063488 29.12874554 10 28 C6.28263359 27.65099442 6.28263359 27.65099442 3.1875 29.5 C2.795625 29.995 2.40375 30.49 2 31 C0.02 29.68 -1.96 28.36 -4 27 C-3.7215625 25.8553125 -3.7215625 25.8553125 -3.4375 24.6875 C-2.77180827 21.91032625 -2.77180827 21.91032625 -4 19 C-5.65 19 -7.3 19 -9 19 C-9 16.69 -9 14.38 -9 12 C-8.071875 11.87625 -8.071875 11.87625 -7.125 11.75 C-4.86857414 11.18006505 -4.86857414 11.18006505 -3.6875 9.1875 C-2.89848673 6.67700322 -3.12675738 5.44507934 -4 3 C-2.68 2.01 -1.36 1.02 0 0 Z " fill="#EAEBF2" transform="translate(18,89)"/>
<path d="M0 0 C16.83 0 33.66 0 51 0 C51 4.62 51 9.24 51 14 C34.17 14 17.34 14 0 14 C0 9.38 0 4.76 0 0 Z " fill="#3F3F89" transform="translate(44,47)"/>
<path d="M0 0 C0.33 0 0.66 0 1 0 C1 10.23 1 20.46 1 31 C-7.25 31 -15.5 31 -24 31 C-24.25 18.375 -24.25 18.375 -22 15 C-21.57922598 12.29404578 -21.57922598 12.29404578 -21.4375 9.375 C-21.09817672 4.09817672 -21.09817672 4.09817672 -20 3 C-16.17466217 2.76256524 -12.35580771 2.60332034 -8.52539062 2.48242188 C-7.72423828 2.44826172 -6.92308594 2.41410156 -6.09765625 2.37890625 C-4.99176147 2.34132202 -4.99176147 2.34132202 -3.86352539 2.30297852 C-1.75720731 2.14685298 -1.75720731 2.14685298 0 0 Z " fill="#748BFE" transform="translate(126,93)"/>
<path d="M0 0 C8.58 0 17.16 0 26 0 C26 7 26 7 24.7644043 8.90551758 C22.63296591 10.22767591 21.26960231 10.42306375 18.76953125 10.51171875 C17.96708984 10.54716797 17.16464844 10.58261719 16.33789062 10.61914062 C15.50451172 10.64169922 14.67113281 10.66425781 13.8125 10.6875 C12.96751953 10.72166016 12.12253906 10.75582031 11.25195312 10.79101562 C9.16843351 10.87341471 7.08423784 10.93838645 5 11 C4.95101562 11.84304687 4.90203125 12.68609375 4.8515625 13.5546875 C4.77679688 14.65039062 4.70203125 15.74609375 4.625 16.875 C4.55539063 17.96554688 4.48578125 19.05609375 4.4140625 20.1796875 C4 23 4 23 2 25 C1.53513282 28.12196336 1.53513282 28.12196336 1.375 31.625 C1.25125 33.72875 1.1275 35.8325 1 38 C9.25 38 17.5 38 26 38 C26 38.66 26 39.32 26 40 C28.31 40.66 30.62 41.32 33 42 C32 44 32 44 30.34521484 44.61450195 C25.49200924 45.41225457 20.54404055 45.18590312 15.63769531 45.18530273 C13.63863013 45.18748512 11.63960468 45.20599143 9.640625 45.22460938 C8.36960937 45.22654297 7.09859375 45.22847656 5.7890625 45.23046875 C4.63100098 45.23457764 3.47293945 45.23868652 2.27978516 45.24291992 C-1.11310954 44.99162245 -3.83332989 44.21173908 -7 43 C-6 41 -6 41 0 39 C0 26.13 0 13.26 0 0 Z " fill="#5E4CF4" transform="translate(101,86)"/>
<path d="M0 0 C1.12019531 -0.00128906 2.24039063 -0.00257812 3.39453125 -0.00390625 C4.57402344 -0.00003906 5.75351562 0.00382812 6.96875 0.0078125 C8.73798828 0.00201172 8.73798828 0.00201172 10.54296875 -0.00390625 C12.22326172 -0.00197266 12.22326172 -0.00197266 13.9375 0 C14.97326172 0.00112793 16.00902344 0.00225586 17.07617188 0.00341797 C19.46875 0.1328125 19.46875 0.1328125 20.46875 1.1328125 C20.56861975 3.97616298 20.60752881 6.78978413 20.59375 9.6328125 C20.59955078 10.82970703 20.59955078 10.82970703 20.60546875 12.05078125 C20.59535767 18.00620483 20.59535767 18.00620483 19.46875 19.1328125 C17.62715977 19.23240871 15.78178033 19.26361661 13.9375 19.265625 C12.81730469 19.26691406 11.69710937 19.26820312 10.54296875 19.26953125 C9.36347656 19.26566406 8.18398438 19.26179688 6.96875 19.2578125 C5.19951172 19.26361328 5.19951172 19.26361328 3.39453125 19.26953125 C1.71423828 19.26759766 1.71423828 19.26759766 0 19.265625 C-1.03576172 19.26449707 -2.07152344 19.26336914 -3.13867188 19.26220703 C-5.53125 19.1328125 -5.53125 19.1328125 -6.53125 18.1328125 C-6.63111975 15.28946202 -6.67002881 12.47584087 -6.65625 9.6328125 C-6.66011719 8.83488281 -6.66398437 8.03695312 -6.66796875 7.21484375 C-6.65573175 0.007248 -6.65573175 0.007248 0 0 Z " fill="#3DB2DF" transform="translate(39.53125,85.8671875)"/>
<path d="M0 0 C1.26328125 0.01804688 2.5265625 0.03609375 3.828125 0.0546875 C4.79234375 0.07789063 5.7565625 0.10109375 6.75 0.125 C7.75 3.125 7.75 3.125 7 5.75 C5.75 8.125 5.75 8.125 2.75 9.125 C3.245 10.61 3.245 10.61 3.75 12.125 C2.7909375 12.4653125 2.7909375 12.4653125 1.8125 12.8125 C1.131875 13.245625 0.45125 13.67875 -0.25 14.125 C-0.59153937 15.79000443 -0.92449498 17.45678677 -1.25 19.125 C-4.08583342 21.77177786 -6.66101023 23.11037084 -10.61010742 23.14672852 C-11.51607666 23.09959717 -12.4220459 23.05246582 -13.35546875 23.00390625 C-14.33837891 22.95556641 -15.32128906 22.90722656 -16.33398438 22.85742188 C-17.35814453 22.80134766 -18.38230469 22.74527344 -19.4375 22.6875 C-20.47326172 22.63529297 -21.50902344 22.58308594 -22.57617188 22.52929688 C-25.13442049 22.39961607 -27.69227938 22.26465022 -30.25 22.125 C-30.58 20.475 -30.91 18.825 -31.25 17.125 C-29.88875 17.00125 -29.88875 17.00125 -28.5 16.875 C-24.79241549 16.01940357 -23.74767239 14.88105229 -21.25 12.125 C-20.26 11.795 -19.27 11.465 -18.25 11.125 C-17.92 9.475 -17.59 7.825 -17.25 6.125 C-15.93 6.785 -14.61 7.445 -13.25 8.125 C-13.0025 7.17625 -12.755 6.2275 -12.5 5.25 C-11.25 2.125 -11.25 2.125 -9.625 0.9375 C-6.35232278 -0.1821001 -3.44878515 -0.06386639 0 0 Z " fill="#655CFE" transform="translate(70.25,63.875)"/>
<path d="M0 0 C2.62697064 -0.22137393 5.00893964 -0.28162025 7.625 -0.1875 C8.33140625 -0.17396484 9.0378125 -0.16042969 9.765625 -0.14648438 C11.51074128 -0.1111104 13.25546608 -0.05730221 15 0 C15 3.63 15 7.26 15 11 C9.72 11 4.44 11 -1 11 C-0.505 12.98 -0.505 12.98 0 15 C2.31 15.33 4.62 15.66 7 16 C7.495 17.485 7.495 17.485 8 19 C-6.19 19 -20.38 19 -35 19 C-35 18.34 -35 17.68 -35 17 C-32.98177083 16.609375 -30.96354167 16.21875 -28.9453125 15.828125 C-26.80995329 15.14287884 -26.80995329 15.14287884 -25.7421875 12.921875 C-25.49726562 12.28765625 -25.25234375 11.6534375 -25 11 C-24.26394531 11.03480469 -23.52789062 11.06960937 -22.76953125 11.10546875 C-15.41314383 11.34467273 -15.41314383 11.34467273 -9 8 C-8.01 8 -7.02 8 -6 8 C-5.71125 7.360625 -5.4225 6.72125 -5.125 6.0625 C-4 4 -4 4 -2 3 C-1.34 2.01 -0.68 1.02 0 0 Z " fill="#B1CFFE" transform="translate(86,102)"/>
<path d="M0 0 C0.83265381 0.00523682 1.66530762 0.01047363 2.52319336 0.01586914 C3.42231445 0.0190918 4.32143555 0.02231445 5.24780273 0.02563477 C6.66609375 0.03820313 6.66609375 0.03820313 8.11303711 0.05102539 C9.06243164 0.05553711 10.01182617 0.06004883 10.98999023 0.06469727 C13.34356776 0.07652429 15.69702188 0.09300514 18.05053711 0.11352539 C18.07941525 3.5926748 18.09729398 7.0717937 18.11303711 10.55102539 C18.12141602 11.54424805 18.12979492 12.5374707 18.13842773 13.56079102 C18.14326172 14.97714844 18.14326172 14.97714844 18.14819336 16.42211914 C18.15604858 17.73394165 18.15604858 17.73394165 18.1640625 19.07226562 C18.05053711 21.11352539 18.05053711 21.11352539 17.05053711 22.11352539 C15.55919801 22.1301477 14.06692906 22.07671739 12.57788086 21.99243164 C11.67875977 21.9440918 10.77963867 21.89575195 9.85327148 21.84594727 C8.90774414 21.78987305 7.9622168 21.73379883 6.98803711 21.67602539 C6.03864258 21.62381836 5.08924805 21.57161133 4.11108398 21.51782227 C1.75726759 21.38771181 -0.59616988 21.25273427 -2.94946289 21.11352539 C-2.97834436 17.80104352 -2.99622088 14.48859372 -3.01196289 11.17602539 C-3.0203418 10.23049805 -3.0287207 9.2849707 -3.03735352 8.31079102 C-3.04057617 7.41166992 -3.04379883 6.51254883 -3.04711914 5.58618164 C-3.05235596 4.75352783 -3.05759277 3.92087402 -3.06298828 3.06298828 C-2.90876673 0.41468917 -2.64829911 0.15422155 0 0 Z " fill="#31C7DD" transform="translate(15.949462890625,58.886474609375)"/>
<path d="M0 0 C0.99 0 1.98 0 3 0 C3 5.28 3 10.56 3 16 C4.32 15.34 5.64 14.68 7 14 C8.5625 15.75 8.5625 15.75 10 18 C9.6875 20.125 9.6875 20.125 9 22 C9 22.66 9 23.32 9 24 C9.99 24.33 10.98 24.66 12 25 C11.67 26.32 11.34 27.64 11 29 C9.824375 29.0928125 9.824375 29.0928125 8.625 29.1875 C7.75875 29.455625 6.8925 29.72375 6 30 C4.62533375 32.47636012 4.62533375 32.47636012 4 35 C2.68 35 1.36 35 0 35 C-0.33 34.34 -0.66 33.68 -1 33 C-1.928125 33.0825 -2.85625 33.165 -3.8125 33.25 C-7 33 -7 33 -8.9375 31.25 C-10.21773158 28.53892135 -9.72027263 27.79105644 -9 25 C-10.35444301 23.22809091 -10.35444301 23.22809091 -12 22 C-11.67 21.01 -11.34 20.02 -11 19 C-11.66 19 -12.32 19 -13 19 C-13 17.68 -13 16.36 -13 15 C-12.01 14.34 -11.02 13.68 -10 13 C-10.66 10.69 -11.32 8.38 -12 6 C-11.34 5.67 -10.68 5.34 -10 5 C-10 4.34 -10 3.68 -10 3 C-7.03 3 -4.06 3 -1 3 C-0.67 2.01 -0.34 1.02 0 0 Z M-5 21 C-5.3633156 23.83386167 -5.3568671 25.40522151 -3.875 27.875 C-1.07848948 29.55290631 0.93690532 28.74875648 4 28 C4.67673447 24.59679066 4.67673447 24.59679066 5 21 C3.11499729 18.68436913 3.11499729 18.68436913 0 18.75 C-3.11499729 18.68436913 -3.11499729 18.68436913 -5 21 Z " fill="#35DCC5" transform="translate(132,44)"/>
<path d="M0 0 C0.6875 2.0625 0.6875 2.0625 1 4 C3.80764728 4.77426109 3.80764728 4.77426109 7 5 C9.36290685 3.68864588 9.36290685 3.68864588 11 2 C12.98 3.98 14.96 5.96 17 8 C16 10 15 12 14 14 C7.9453125 14.1953125 7.9453125 14.1953125 6 14 C5.34 13.34 4.68 12.68 4 12 C-1.54235245 11.42765564 -1.54235245 11.42765564 -6.5 13.5 C-8.71177972 17.18629954 -8.34421275 19.73176192 -8 24 C-7.67 24.66 -7.34 25.32 -7 26 C-9.64 26 -12.28 26 -15 26 C-15.0928125 24.824375 -15.0928125 24.824375 -15.1875 23.625 C-15.455625 22.75875 -15.72375 21.8925 -16 21 C-18.47636012 19.62533375 -18.47636012 19.62533375 -21 19 C-20.34 16.03 -19.68 13.06 -19 10 C-17.329375 10.061875 -17.329375 10.061875 -15.625 10.125 C-11.95633975 10.41121859 -11.95633975 10.41121859 -10 8 C-9.83322718 4.41656024 -9.83322718 4.41656024 -10 1 C-3.375 -1.125 -3.375 -1.125 0 0 Z " fill="#E9EBF1" transform="translate(103,19)"/>
<path d="M0 0 C7.81452752 -0.02526563 15.62904458 -0.04283105 23.44360352 -0.05493164 C26.10441481 -0.05997383 28.76522332 -0.06680736 31.42602539 -0.07543945 C35.24105516 -0.08751009 39.05604844 -0.09322929 42.87109375 -0.09765625 C44.66793861 -0.10539818 44.66793861 -0.10539818 46.50108337 -0.11329651 C48.15268211 -0.11340981 48.15268211 -0.11340981 49.83764648 -0.11352539 C50.81249496 -0.115746 51.78734344 -0.11796661 52.79173279 -0.12025452 C55 0 55 0 56 1 C56.09986975 3.84335048 56.13877881 6.65697163 56.125 9.5 C56.13080078 10.69689453 56.13080078 10.69689453 56.13671875 11.91796875 C56.12660767 17.87339233 56.12660767 17.87339233 55 19 C53.28681054 19.09881593 51.56955197 19.12798969 49.85351562 19.12939453 C48.75567749 19.13254669 47.65783936 19.13569885 46.5267334 19.13894653 C45.33197388 19.1369223 44.13721436 19.13489807 42.90625 19.1328125 C41.68925415 19.13376923 40.4722583 19.13472595 39.21838379 19.13571167 C36.63924101 19.13639372 34.06009653 19.13453772 31.48095703 19.13037109 C27.51721364 19.12502322 23.55358358 19.13031529 19.58984375 19.13671875 C17.09114558 19.13605797 14.59244748 19.13477682 12.09375 19.1328125 C10.30161072 19.13584885 10.30161072 19.13584885 8.4732666 19.13894653 C7.37542847 19.13579437 6.27759033 19.13264221 5.14648438 19.12939453 C3.68873596 19.12820114 3.68873596 19.12820114 2.20153809 19.12698364 C0 19 0 19 -1 18 C-1.10002455 15.34346557 -1.13877463 12.71870728 -1.125 10.0625 C-1.12886719 9.32064453 -1.13273437 8.57878906 -1.13671875 7.81445312 C-1.12663501 2.25327002 -1.12663501 2.25327002 0 0 Z M2 2 C2 6.62 2 11.24 2 16 C18.83 16 35.66 16 53 16 C53 11.38 53 6.76 53 2 C36.17 2 19.34 2 2 2 Z " fill="#37CECD" transform="translate(42,45)"/>
<path d="M0 0 C1.58206057 0.00667536 3.16410534 0.0186375 4.74609375 0.03515625 C5.55240234 0.03966797 6.35871094 0.04417969 7.18945312 0.04882812 C9.18753131 0.06065107 11.18557158 0.07858711 13.18359375 0.09765625 C13.21043687 2.91021906 13.23035563 5.72252866 13.24609375 8.53515625 C13.25447266 9.33759766 13.26285156 10.14003906 13.27148438 10.96679688 C13.28010805 13.01060846 13.23587525 15.05449527 13.18359375 17.09765625 C11.36243372 18.91881628 8.87687611 18.23000705 6.45703125 18.234375 C5.70679687 18.23050781 4.9565625 18.22664063 4.18359375 18.22265625 C3.05824219 18.22845703 3.05824219 18.22845703 1.91015625 18.234375 C-3.68979572 18.22426678 -3.68979572 18.22426678 -4.81640625 17.09765625 C-4.91621839 14.42034245 -4.955205 11.7746145 -4.94140625 9.09765625 C-4.94527344 8.34742187 -4.94914062 7.5971875 -4.953125 6.82421875 C-4.94103514 0.12643386 -4.94103514 0.12643386 0 0 Z " fill="#45B4F4" transform="translate(109.81640625,95.90234375)"/>
<path d="M0 0 C0.66 0.66 1.32 1.32 2 2 C4.15634036 2 5.92446352 1.5534764 8 1 C8.02685412 3.31243792 8.04632841 5.6249627 8.0625 7.9375 C8.07410156 9.22527344 8.08570312 10.51304688 8.09765625 11.83984375 C8 15 8 15 7 16 C5.14630389 16.08737645 3.28932459 16.10698153 1.43359375 16.09765625 C0.30888672 16.09443359 -0.81582031 16.09121094 -1.97460938 16.08789062 C-3.15861328 16.07951172 -4.34261719 16.07113281 -5.5625 16.0625 C-6.75037109 16.05798828 -7.93824219 16.05347656 -9.16210938 16.04882812 C-12.10812226 16.03699675 -15.05403681 16.02051287 -18 16 C-18.33 15.01 -18.66 14.02 -19 13 C-15.7 13 -12.4 13 -9 13 C-8.85304688 12.22914062 -8.70609375 11.45828125 -8.5546875 10.6640625 C-7.88054393 7.64978836 -7.17988722 4.85679652 -6 2 C-2.8125 0.3125 -2.8125 0.3125 0 0 Z " fill="#35D6C4" transform="translate(52,89)"/>
<path d="M0 0 C0.83265381 0.00523682 1.66530762 0.01047363 2.52319336 0.01586914 C3.42231445 0.0190918 4.32143555 0.02231445 5.24780273 0.02563477 C6.66609375 0.03820312 6.66609375 0.03820312 8.11303711 0.05102539 C9.06243164 0.05553711 10.01182617 0.06004883 10.98999023 0.06469727 C13.34353242 0.07652411 15.69704243 0.09446018 18.05053711 0.11352539 C18.05053711 4.07352539 18.05053711 8.03352539 18.05053711 12.11352539 C14.73798385 12.14035976 11.42564528 12.16028319 8.11303711 12.17602539 C7.16750977 12.1844043 6.22198242 12.1927832 5.24780273 12.20141602 C3.89912109 12.20625 3.89912109 12.20625 2.52319336 12.21118164 C1.69053955 12.21641846 0.85788574 12.22165527 0 12.22705078 C-1.94946289 12.11352539 -1.94946289 12.11352539 -2.94946289 11.11352539 C-3.04770226 9.44923488 -3.0791992 7.78070608 -3.07446289 6.11352539 C-3.07704102 5.20602539 -3.07961914 4.29852539 -3.08227539 3.36352539 C-2.91486901 0.52746438 -2.83630675 0.16517002 0 0 Z " fill="#3D4991" transform="translate(15.949462890625,31.886474609375)"/>
<path d="M0 0 C2.31 0 4.62 0 7 0 C7 2.97 7 5.94 7 9 C8.65 9 10.3 9 12 9 C11.01 9.33 10.02 9.66 9 10 C8.67 10.99 8.34 11.98 8 13 C6.68 13 5.36 13 4 13 C4 13.66 4 14.32 4 15 C4.99 15.33 5.98 15.66 7 16 C5.35 16.33 3.7 16.66 2 17 C2 17.66 2 18.32 2 19 C1.34 19 0.68 19 0 19 C0 19.99 0 20.98 0 22 C-1.65 21.67 -3.3 21.34 -5 21 C-4.67 21.99 -4.34 22.98 -4 24 C-4.66 24 -5.32 24 -6 24 C-6.33 24.99 -6.66 25.98 -7 27 C-7.33 27 -7.66 27 -8 27 C-8 27.66 -8 28.32 -8 29 C-8.66 29 -9.32 29 -10 29 C-10.33 29.99 -10.66 30.98 -11 32 C-12.65 31.01 -14.3 30.02 -16 29 C-14.57544351 25.29615312 -12.19560275 23.09716929 -9.33984375 20.46484375 C-7.74891301 18.92498332 -7.74891301 18.92498332 -7 16 C-6.34 16 -5.68 16 -5 16 C-4.67 15.34 -4.34 14.68 -4 14 C-3.34 13.34 -2.68 12.68 -2 12 C-1.3162387 9.11282395 -1.3162387 9.11282395 -0.875 5.875 C-0.62363281 4.23144531 -0.62363281 4.23144531 -0.3671875 2.5546875 C-0.24601562 1.71164063 -0.12484375 0.86859375 0 0 Z " fill="#6D77FE" transform="translate(98,54)"/>
<path d="M0 0 C1.08667969 0.02707031 2.17335938 0.05414063 3.29296875 0.08203125 C4.54013672 0.13423828 4.54013672 0.13423828 5.8125 0.1875 C5.98048051 2.45823652 6.14684113 4.72909293 6.3125 7 C6.4053125 8.26457031 6.498125 9.52914062 6.59375 10.83203125 C6.99234112 16.94613429 6.99234112 16.94613429 4.4375 20.375 C3.57125 21.303125 2.705 22.23125 1.8125 23.1875 C1.1525 23.1875 0.4925 23.1875 -0.1875 23.1875 C-0.5175 18.8975 -0.8475 14.6075 -1.1875 10.1875 C-3.8275 10.1875 -6.4675 10.1875 -9.1875 10.1875 C-9.55218886 3.74466353 -9.55218886 3.74466353 -8.0625 1.46875 C-5.3504604 -0.38447706 -3.24426436 -0.10465369 0 0 Z " fill="#5935FF" transform="translate(35.1875,48.8125)"/>
<path d="M0 0 C13.53 0 27.06 0 41 0 C41 1.65 41 3.3 41 5 C27.47 5 13.94 5 0 5 C0 3.35 0 1.7 0 0 Z " fill="#3C3D89" transform="translate(60,97)"/>
<path d="M0 0 C2.0625 1.75 2.0625 1.75 4 4 C3.75 6.125 3.75 6.125 3 8 C3 8.66 3 9.32 3 10 C3.99 10.33 4.98 10.66 6 11 C5.67 12.32 5.34 13.64 5 15 C3.824375 15.0928125 3.824375 15.0928125 2.625 15.1875 C1.75875 15.455625 0.8925 15.72375 0 16 C-1.37466625 18.47636012 -1.37466625 18.47636012 -2 21 C-3.32 21 -4.64 21 -6 21 C-6.33 20.34 -6.66 19.68 -7 19 C-8.3921875 19.12375 -8.3921875 19.12375 -9.8125 19.25 C-13 19 -13 19 -14.9375 17.25 C-16.21773158 14.53892135 -15.72027263 13.79105644 -15 11 C-16.35444301 9.22809091 -16.35444301 9.22809091 -18 8 C-17.67 7.01 -17.34 6.02 -17 5 C-14.36 5 -11.72 5 -9 5 C-9.20625 6.11375 -9.4125 7.2275 -9.625 8.375 C-9.74875 9.57125 -9.8725 10.7675 -10 12 C-8.10244856 14.34973818 -8.10244856 14.34973818 -4.875 14.125 C-3.451875 14.063125 -3.451875 14.063125 -2 14 C-1.70437633 8.67829506 -1.70437633 8.67829506 -4 4 C-2.68 2.68 -1.36 1.36 0 0 Z " fill="#E9EBF2" transform="translate(138,58)"/>
<path d="M0 0 C2.12438339 -0.08078641 4.2496323 -0.13909141 6.375 -0.1875 C7.55835937 -0.22230469 8.74171875 -0.25710937 9.9609375 -0.29296875 C11.46527344 -0.14794922 11.46527344 -0.14794922 13 0 C13.66 0.99 14.32 1.98 15 3 C14.34 3 13.68 3 13 3 C13.33 3.66 13.66 4.32 14 5 C20.27 5.33 26.54 5.66 33 6 C33 6.66 33 7.32 33 8 C18.81 8 4.62 8 -10 8 C-10 7.34 -10 6.68 -10 6 C-7.98177083 5.609375 -5.96354167 5.21875 -3.9453125 4.828125 C-1.80995329 4.14287884 -1.80995329 4.14287884 -0.7421875 1.921875 C-0.49726562 1.28765625 -0.25234375 0.6534375 0 0 Z " fill="#A2C5FE" transform="translate(61,113)"/>
<path d="M0 0 C1.98 0 3.96 0 6 0 C6.33 0.66 6.66 1.32 7 2 C10.27555608 2.47001033 10.27555608 2.47001033 14.0625 2.625 C15.99802734 2.73714844 15.99802734 2.73714844 17.97265625 2.8515625 C19.47119141 2.92503906 19.47119141 2.92503906 21 3 C21.33 3.99 21.66 4.98 22 6 C18.62712358 9.60548859 16.73780066 10.93048797 11.6796875 11.1328125 C10.42414062 11.13023438 9.16859375 11.12765625 7.875 11.125 C5.98394531 11.12886719 5.98394531 11.12886719 4.0546875 11.1328125 C1 11 1 11 0 10 C-0.07205511 8.31391034 -0.08386068 6.62499341 -0.0625 4.9375 C-0.05347656 4.01839844 -0.04445313 3.09929687 -0.03515625 2.15234375 C-0.02355469 1.44207031 -0.01195313 0.73179688 0 0 Z " fill="#C4DBFE" transform="translate(27,102)"/>
<path d="M0 0 C1.32 0 2.64 0 4 0 C4 6.6 4 13.2 4 20 C6.31 20 8.62 20 11 20 C11.33 20.99 11.66 21.98 12 23 C3.19039858 24.30512614 -5.19039858 24.30512614 -14 23 C-13.505 21.515 -13.505 21.515 -13 20 C-8.71 20 -4.42 20 0 20 C0 13.4 0 6.8 0 0 Z " fill="#4C4CA1" transform="translate(115,63)"/>
<path d="M0 0 C1.31871094 -0.01224609 2.63742188 -0.02449219 3.99609375 -0.03710938 C5.90068359 -0.04000977 5.90068359 -0.04000977 7.84375 -0.04296875 C9.00068359 -0.04707764 10.15761719 -0.05118652 11.34960938 -0.05541992 C14.47736509 0.18575467 16.680892 0.85423629 19.5 2.1875 C18.5 4.1875 18.5 4.1875 16.84521484 4.80200195 C11.99200924 5.59975457 7.04404055 5.37340312 2.13769531 5.37280273 C0.13863013 5.37498512 -1.86039532 5.39349143 -3.859375 5.41210938 C-5.13039063 5.41404297 -6.40140625 5.41597656 -7.7109375 5.41796875 C-8.86899902 5.42207764 -10.02706055 5.42618652 -11.22021484 5.43041992 C-14.61310954 5.17912245 -17.33332989 4.39923908 -20.5 3.1875 C-20.17 2.5275 -19.84 1.8675 -19.5 1.1875 C-13.23640183 -0.60566158 -6.45139424 0.00315317 0 0 Z " fill="#EAEBF2" transform="translate(114.5,125.8125)"/>
<path d="M0 0 C2.7912125 1.98322993 3.82597224 3.12986121 4.5 6.5 C3.83247946 9.8376027 2.73251347 11.00600369 0 13 C-2.5 13.5 -2.5 13.5 -5 13 C-7.3125 11.375 -7.3125 11.375 -9 9 C-9.45742277 5.79804064 -9.55468045 3.92446741 -7.875 1.125 C-5.07553259 -0.55468045 -3.20195936 -0.45742277 0 0 Z " fill="#94E0E9" transform="translate(117,99)"/>
<path d="M0 0 C0.99 0 1.98 0 3 0 C3.02685938 2.14576637 3.04633088 4.29162645 3.0625 6.4375 C3.07410156 7.63246094 3.08570312 8.82742187 3.09765625 10.05859375 C3 13 3 13 2 14 C0.5086609 14.01662231 -0.98360805 13.963192 -2.47265625 13.87890625 C-3.37177734 13.83056641 -4.27089844 13.78222656 -5.19726562 13.73242188 C-6.14279297 13.67634766 -7.08832031 13.62027344 -8.0625 13.5625 C-9.01189453 13.51029297 -9.96128906 13.45808594 -10.93945312 13.40429688 C-13.29326952 13.27418642 -15.64670699 13.13920888 -18 13 C-18 12.01 -18 11.02 -18 10 C-14.98509443 8.99503148 -12.95818308 8.89664697 -9.8125 8.9375 C-8.91144531 8.94652344 -8.01039062 8.95554687 -7.08203125 8.96484375 C-6.39496094 8.97644531 -5.70789062 8.98804687 -5 9 C-4.67 8.01 -4.34 7.02 -4 6 C-3.01 6 -2.02 6 -1 6 C-1.33 4.68 -1.66 3.36 -2 2 C-1.34 2 -0.68 2 0 2 C0 1.34 0 0.68 0 0 Z " fill="#38D1CA" transform="translate(31,67)"/>
<path d="M0 0 C1.32 0 2.64 0 4 0 C4 0.66 4 1.32 4 2 C5.32 1.67 6.64 1.34 8 1 C10 6.625 10 6.625 10 10 C9.01 10 8.02 10 7 10 C7 10.99 7 11.98 7 13 C4.36 12.67 1.72 12.34 -1 12 C-2.49821059 8.62902617 -3 6.79557881 -3 3 C-2.01 3 -1.02 3 0 3 C0 2.01 0 1.02 0 0 Z " fill="#DDF3F8" transform="translate(20,63)"/>
<path d="M0 0 C2.5625 0.3125 2.5625 0.3125 4.375 1.6875 C5.5625 3.3125 5.5625 3.3125 5.5625 5.3125 C7.2125 5.3125 8.8625 5.3125 10.5625 5.3125 C10.8925 6.3025 11.2225 7.2925 11.5625 8.3125 C3.9725 8.3125 -3.6175 8.3125 -11.4375 8.3125 C-9.20382602 3.84515204 -8.79933089 3.83914081 -4.4375 2.3125 C-2.4375 0.3125 -2.4375 0.3125 0 0 Z " fill="#F6FCFD" transform="translate(118.4375,37.6875)"/>
<path d="M0 0 C0.83265381 0.00523682 1.66530762 0.01047363 2.52319336 0.01586914 C3.42231445 0.0190918 4.32143555 0.02231445 5.24780273 0.02563477 C6.66609375 0.03820312 6.66609375 0.03820312 8.11303711 0.05102539 C9.06243164 0.05553711 10.01182617 0.06004883 10.98999023 0.06469727 C13.34353242 0.07652411 15.69704243 0.09446018 18.05053711 0.11352539 C18.05053711 4.07352539 18.05053711 8.03352539 18.05053711 12.11352539 C14.73798385 12.14035976 11.42564528 12.16028319 8.11303711 12.17602539 C7.16750977 12.1844043 6.22198242 12.1927832 5.24780273 12.20141602 C3.89912109 12.20625 3.89912109 12.20625 2.52319336 12.21118164 C1.69053955 12.21641846 0.85788574 12.22165527 0 12.22705078 C-1.94946289 12.11352539 -1.94946289 12.11352539 -2.94946289 11.11352539 C-3.04770226 9.44923488 -3.0791992 7.78070608 -3.07446289 6.11352539 C-3.07704102 5.20602539 -3.07961914 4.29852539 -3.08227539 3.36352539 C-2.91486901 0.52746438 -2.83630675 0.16517002 0 0 Z M-0.94946289 2.11352539 C-0.94946289 4.75352539 -0.94946289 7.39352539 -0.94946289 10.11352539 C4.66053711 10.11352539 10.27053711 10.11352539 16.05053711 10.11352539 C16.05053711 7.47352539 16.05053711 4.83352539 16.05053711 2.11352539 C10.44053711 2.11352539 4.83053711 2.11352539 -0.94946289 2.11352539 Z " fill="#34D4D0" transform="translate(15.949462890625,31.886474609375)"/>
<path d="M0 0 C0.66 0.33 1.32 0.66 2 1 C2.33 2.32 2.66 3.64 3 5 C7.29 5.33 11.58 5.66 16 6 C14.35 7.32 12.7 8.64 11 10 C10.67 10.66 10.34 11.32 10 12 C8.68 11.67 7.36 11.34 6 11 C6.33 11.99 6.66 12.98 7 14 C6.01 14 5.02 14 4 14 C3.67 14.66 3.34 15.32 3 16 C1.68 16 0.36 16 -1 16 C-1.02701408 13.89590361 -1.04640223 11.79170822 -1.0625 9.6875 C-1.07410156 8.51574219 -1.08570312 7.34398438 -1.09765625 6.13671875 C-1 3 -1 3 0 0 Z " fill="#6C73FE" transform="translate(103,108)"/>
<path d="M0 0 C1.39456452 0.00667256 2.78911118 0.01863093 4.18359375 0.03515625 C4.89451172 0.03966797 5.60542969 0.04417969 6.33789062 0.04882812 C8.09899388 0.06064761 9.86005411 0.07858362 11.62109375 0.09765625 C9.25816719 2.62354327 7.95646864 3.98586462 4.62109375 5.09765625 C2.91254353 8.09772896 2.91254353 8.09772896 1.62109375 11.09765625 C2.28109375 11.09765625 2.94109375 11.09765625 3.62109375 11.09765625 C3.29109375 12.08765625 2.96109375 13.07765625 2.62109375 14.09765625 C1.96109375 13.43765625 1.30109375 12.77765625 0.62109375 12.09765625 C-1.94951936 11.44997832 -1.94951936 11.44997832 -4.37890625 11.09765625 C-4.40578776 9.45191059 -4.42524748 7.80604212 -4.44140625 6.16015625 C-4.45300781 5.24363281 -4.46460938 4.32710938 -4.4765625 3.3828125 C-4.3190922 -0.30199259 -3.80656158 0.11001623 0 0 Z " fill="#43A9E5" transform="translate(37.37890625,85.90234375)"/>
<path d="M0 0 C7.92 0.33 15.84 0.66 24 1 C24 1.33 24 1.66 24 2 C21.36 2 18.72 2 16 2 C15.67 4.97 15.34 7.94 15 11 C15.66 11.33 16.32 11.66 17 12 C15.02 12.99 15.02 12.99 13 14 C12.01 13.34 11.02 12.68 10 12 C10 11.34 10 10.68 10 10 C10.66 10 11.32 10 12 10 C11.67 8.35 11.34 6.7 11 5 C4.73 4.67 -1.54 4.34 -8 4 C-8 3.34 -8 2.68 -8 2 C-5.69 2 -3.38 2 -1 2 C-0.67 1.34 -0.34 0.68 0 0 Z " fill="#7FD8E1" transform="translate(106,45)"/>
<path d="M0 0 C3.14581423 -0.02888514 6.29159469 -0.04675923 9.4375 -0.0625 C10.33533203 -0.07087891 11.23316406 -0.07925781 12.15820312 -0.08789062 C13.01220703 -0.09111328 13.86621094 -0.09433594 14.74609375 -0.09765625 C15.93223267 -0.10551147 15.93223267 -0.10551147 17.14233398 -0.11352539 C19 0 19 0 20 1 C20 2.65 20 4.3 20 6 C13.4 5.67 6.8 5.34 0 5 C0 3.35 0 1.7 0 0 Z " fill="#34B0C5" transform="translate(98,49)"/>
<path d="M0 0 C1.32 0 2.64 0 4 0 C4 5.28 4 10.56 4 16 C4.99 16 5.98 16 7 16 C7 17.65 7 19.3 7 21 C4.69 21 2.38 21 0 21 C0 14.07 0 7.14 0 0 Z " fill="#41428D" transform="translate(26,81)"/>
<path d="M0 0 C0.66 0.33 1.32 0.66 2 1 C2.02686553 2.97909398 2.04633375 4.95828971 2.0625 6.9375 C2.07410156 8.03964844 2.08570312 9.14179687 2.09765625 10.27734375 C2 13 2 13 1 14 C-1.69654854 14.07319621 -4.36691458 14.09242537 -7.0625 14.0625 C-8.20041992 14.05573242 -8.20041992 14.05573242 -9.36132812 14.04882812 C-11.24091871 14.0370068 -13.12046899 14.01907078 -15 14 C-15.33 12.35 -15.66 10.7 -16 9 C-15.01 8.34 -14.02 7.68 -13 7 C-12.1646875 7.99 -12.1646875 7.99 -11.3125 9 C-9.17459305 11.19766188 -9.17459305 11.19766188 -6.4375 11.4375 C-4.01141807 11.14687075 -4.01141807 11.14687075 -2.1875 9.9375 C-0.40266737 7.02540466 -0.87625189 4.34119888 -1 1 C-0.67 0.67 -0.34 0.34 0 0 Z " fill="#37DBC9" transform="translate(121,100)"/>
<path d="M0 0 C1.08667969 0.02707031 2.17335938 0.05414063 3.29296875 0.08203125 C4.54013672 0.13423828 4.54013672 0.13423828 5.8125 0.1875 C5.8125 1.8375 5.8125 3.4875 5.8125 5.1875 C2.1825 5.1875 -1.4475 5.1875 -5.1875 5.1875 C-5.1875 6.8375 -5.1875 8.4875 -5.1875 10.1875 C-6.5075 10.1875 -7.8275 10.1875 -9.1875 10.1875 C-9.55218886 3.74466353 -9.55218886 3.74466353 -8.0625 1.46875 C-5.3504604 -0.38447706 -3.24426436 -0.10465369 0 0 Z " fill="#3C3D89" transform="translate(35.1875,48.8125)"/>
<path d="M0 0 C1.32 0 2.64 0 4 0 C4.36386139 6.42821782 4.36386139 6.42821782 2.90625 8.71875 C0.05864657 10.63271296 -2.30371491 10.28800847 -5.6875 10.1875 C-7.45673828 10.14689453 -7.45673828 10.14689453 -9.26171875 10.10546875 C-10.16535156 10.07066406 -11.06898437 10.03585938 -12 10 C-11.34 9.34 -10.68 8.68 -10 8 C-9.34 8.33 -8.68 8.66 -8 9 C-7.7525 8.21625 -7.505 7.4325 -7.25 6.625 C-6 4 -6 4 -4 2.6875 C-2 2 -2 2 0 2 C0 1.34 0 0.68 0 0 Z " fill="#645AFF" transform="translate(123,86)"/>
<path d="M0 0 C0.99 0 1.98 0 3 0 C3 3.96 3 7.92 3 12 C7.29 12 11.58 12 16 12 C16.33 12.99 16.66 13.98 17 15 C14.35409986 15.02684679 11.70846904 15.04676357 9.0625 15.0625 C7.93038086 15.07506836 7.93038086 15.07506836 6.77539062 15.08789062 C4.85005687 15.09652441 2.92464419 15.05224333 1 15 C0 14 0 14 -0.09765625 10.83984375 C-0.08025391 8.90818359 -0.08025391 8.90818359 -0.0625 6.9375 C-0.05347656 5.64714844 -0.04445312 4.35679688 -0.03515625 3.02734375 C-0.02355469 2.02832031 -0.01195312 1.02929688 0 0 Z " fill="#3D95DE" transform="translate(41,49)"/>
<path d="M0 0 C1.32 0 2.64 0 4 0 C4 6.6 4 13.2 4 20 C2.68 19.67 1.36 19.34 0 19 C0 12.73 0 6.46 0 0 Z " fill="#3E3E8B" transform="translate(115,63)"/>
<path d="M0 0 C2.15634036 2.15634036 3.47793991 4.37098712 5 7 C3.35 8.32 1.7 9.64 0 11 C0 10.01 0 9.02 0 8 C-2.47266765 8.34444881 -2.47266765 8.34444881 -5 9 C-5.33 9.66 -5.66 10.32 -6 11 C-6.66 11 -7.32 11 -8 11 C-7.62705566 7.87498361 -7.15929788 4.93581453 -6 2 C-2.875 0.4375 -2.875 0.4375 0 0 Z " fill="#4BC6DD" transform="translate(52,89)"/>
<path d="M0 0 C8.58 0 17.16 0 26 0 C25.67 0.99 25.34 1.98 25 3 C17.08 3 9.16 3 1 3 C0.67 2.01 0.34 1.02 0 0 Z " fill="#4C4CA0" transform="translate(101,124)"/>
<path d="M0 0 C11.22 0 22.44 0 34 0 C34 0.66 34 1.32 34 2 C23.44 2 12.88 2 2 2 C2 2.66 2 3.32 2 4 C1.01 4 0.02 4 -1 4 C-0.67 2.68 -0.34 1.36 0 0 Z " fill="#33CED7" transform="translate(42,45)"/>
<path d="M0 0 C6.625 -0.25 6.625 -0.25 10 2 C9.01 2.495 9.01 2.495 8 3 C8 4.65 8 6.3 8 8 C7.67 7.01 7.34 6.02 7 5 C6.34 5 5.68 5 5 5 C4.67 5.66 4.34 6.32 4 7 C4 6.34 4 5.68 4 5 C2.68 5 1.36 5 0 5 C0 5.99 0 6.98 0 8 C0.99 8.33 1.98 8.66 3 9 C1.68 11.31 0.36 13.62 -1 16 C-1.66 16 -2.32 16 -3 16 C-3 14.68 -3 13.36 -3 12 C-2.01 11.34 -1.02 10.68 0 10 C-0.66 7.69 -1.32 5.38 -2 3 C-1.34 2.67 -0.68 2.34 0 2 C0 1.34 0 0.68 0 0 Z " fill="#34D6CE" transform="translate(122,47)"/>
<path d="M0 0 C8.25 0 16.5 0 25 0 C25 0.99 25 1.98 25 3 C17.08 3 9.16 3 1 3 C0.67 2.01 0.34 1.02 0 0 Z " fill="#3CB5DD" transform="translate(57,61)"/>
<path d="M0 0 C4.5 3.375 4.5 3.375 5.25 7.6875 C5.39953125 8.49574219 5.5490625 9.30398437 5.703125 10.13671875 C5.80109375 10.75160156 5.8990625 11.36648437 6 12 C8.31 12.66 10.62 13.32 13 14 C9.98509443 15.00496852 7.95818308 15.10335303 4.8125 15.0625 C3.224375 15.041875 1.63625 15.02125 0 15 C0 10.05 0 5.1 0 0 Z " fill="#31C6DE" transform="translate(13,62)"/>
<path d="M0 0 C0.02690104 2.79173055 0.04679053 5.58320348 0.0625 8.375 C0.07087891 9.1690625 0.07925781 9.963125 0.08789062 10.78125 C0.11328125 16.7734375 0.11328125 16.7734375 -1 19 C-1.99 19 -2.98 19 -4 19 C-4.0809313 16.39521117 -4.14045434 13.79293347 -4.1875 11.1875 C-4.22520508 10.08051758 -4.22520508 10.08051758 -4.26367188 8.95117188 C-4.33808627 3.46931114 -4.33808627 3.46931114 -2.55078125 0.98828125 C-1 0 -1 0 0 0 Z " fill="#6C71FE" transform="translate(127,93)"/>
<path d="M0 0 C1.67542976 0.28604898 3.34385343 0.61781233 5 1 C5.875 3.5625 5.875 3.5625 6 7 C4.32305393 9.65870248 2.31872993 11.88180887 0 14 C-0.33 14 -0.66 14 -1 14 C-1.02685938 11.85423363 -1.04633088 9.70837355 -1.0625 7.5625 C-1.07410156 6.36753906 -1.08570312 5.17257813 -1.09765625 3.94140625 C-1 1 -1 1 0 0 Z " fill="#31C5DF" transform="translate(106,33)"/>
<path d="M0 0 C2.64 0 5.28 0 8 0 C8 2.64 8 5.28 8 8 C7.01 8 6.02 8 5 8 C5 8.66 5 9.32 5 10 C4.34 10 3.68 10 3 10 C2.87625 9.360625 2.7525 8.72125 2.625 8.0625 C2.315625 7.0415625 2.315625 7.0415625 2 6 C1.34 5.67 0.68 5.34 0 5 C0 3.35 0 1.7 0 0 Z " fill="#3DBADA" transform="translate(26,59)"/>
<path d="M0 0 C1.24716797 0.00322266 2.49433594 0.00644531 3.77929688 0.00976562 C5.07287109 0.01814453 6.36644531 0.02652344 7.69921875 0.03515625 C9.66858398 0.04192383 9.66858398 0.04192383 11.67773438 0.04882812 C14.91410885 0.06059676 18.15039053 0.07703865 21.38671875 0.09765625 C21.05671875 0.75765625 20.72671875 1.41765625 20.38671875 2.09765625 C19.73074707 2.11747559 19.07477539 2.13729492 18.39892578 2.15771484 C15.43610806 2.25278132 12.47401343 2.36253377 9.51171875 2.47265625 C7.96291016 2.5190625 7.96291016 2.5190625 6.3828125 2.56640625 C4.90361328 2.62441406 4.90361328 2.62441406 3.39453125 2.68359375 C2.4833252 2.71501465 1.57211914 2.74643555 0.63330078 2.77880859 C-1.81259311 2.89648136 -1.81259311 2.89648136 -3.61328125 5.09765625 C-6.34197532 5.06478042 -8.90994305 4.53367854 -11.61328125 4.09765625 C-11.61328125 3.10765625 -11.61328125 2.11765625 -11.61328125 1.09765625 C-7.68039761 0.16677716 -4.03673962 -0.0184326 0 0 Z " fill="#D9D9E8" transform="translate(106.61328125,125.90234375)"/>
<path d="M0 0 C0.66 0.33 1.32 0.66 2 1 C2.59355614 3.64860427 2.74209269 6.29197322 3 9 C2.01 9 1.02 9 0 9 C0 9.99 0 10.98 0 12 C-2.64 11.67 -5.28 11.34 -8 11 C-8.33 10.01 -8.66 9.02 -9 8 C-8.34 7.34 -7.68 6.68 -7 6 C-6.34 6.66 -5.68 7.32 -5 8 C-2.89179203 7.6814823 -2.89179203 7.6814823 -1 7 C-1.33 5.02 -1.66 3.04 -2 1 C-1.34 0.67 -0.68 0.34 0 0 Z " fill="#F1FAFC" transform="translate(27,64)"/>
<path d="M0 0 C1.39456452 0.00667256 2.78911118 0.01863093 4.18359375 0.03515625 C4.89451172 0.03966797 5.60542969 0.04417969 6.33789062 0.04882812 C8.09899388 0.06064761 9.86005411 0.07858362 11.62109375 0.09765625 C11.95109375 0.75765625 12.28109375 1.41765625 12.62109375 2.09765625 C7.67109375 2.09765625 2.72109375 2.09765625 -2.37890625 2.09765625 C-2.37890625 5.39765625 -2.37890625 8.69765625 -2.37890625 12.09765625 C-3.03890625 11.76765625 -3.69890625 11.43765625 -4.37890625 11.09765625 C-4.40578776 9.45191059 -4.42524748 7.80604212 -4.44140625 6.16015625 C-4.45300781 5.24363281 -4.46460938 4.32710937 -4.4765625 3.3828125 C-4.3190922 -0.30199259 -3.80656158 0.11001623 0 0 Z " fill="#33C9DD" transform="translate(17.37890625,31.90234375)"/>
<path d="M0 0 C0.68707555 2.49064888 1 4.37886292 1 7 C-3.29 7 -7.58 7 -12 7 C-12.33 6.01 -12.66 5.02 -13 4 C-9.7 4 -6.4 4 -3 4 C-3 3.34 -3 2.68 -3 2 C-2.01 2 -1.02 2 0 2 C0 1.34 0 0.68 0 0 Z " fill="#4ED2D7" transform="translate(46,98)"/>
<path d="M0 0 C6.93 0 13.86 0 21 0 C21.33 1.32 21.66 2.64 22 4 C21.01 4 20.02 4 19 4 C19 3.34 19 2.68 19 2 C12.73 2 6.46 2 0 2 C0 1.34 0 0.68 0 0 Z " fill="#34D3D0" transform="translate(76,45)"/>
<path d="M0 0 C2.375 -0.125 2.375 -0.125 5 0 C5.66 0.66 6.32 1.32 7 2 C7.33 1.34 7.66 0.68 8 0 C8.99 0 9.98 0 11 0 C10.67 1.65 10.34 3.3 10 5 C6.7 5 3.4 5 0 5 C0 3.35 0 1.7 0 0 Z " fill="#36AFC6" transform="translate(33,97)"/>
<path d="M0 0 C2.31 0 4.62 0 7 0 C7.33 0.66 7.66 1.32 8 2 C7.01 2.495 7.01 2.495 6 3 C6.33 3.66 6.66 4.32 7 5 C6.01 5.33 5.02 5.66 4 6 C2.61423077 7.62332967 1.27358732 9.28724465 0 11 C0 7.37 0 3.74 0 0 Z " fill="#5934FF" transform="translate(102,86)"/>
<path d="M0 0 C2.31 0 4.62 0 7 0 C7.33 1.65 7.66 3.3 8 5 C3.25 9 3.25 9 1 9 C0.67 6.03 0.34 3.06 0 0 Z " fill="#6FD4E4" transform="translate(110,33)"/>
<path d="M0 0 C0.99 0.66 1.98 1.32 3 2 C1 4 1 4 -1.6015625 4.1953125 C-2.59929688 4.17210938 -3.59703125 4.14890625 -4.625 4.125 C-6.12933594 4.09792969 -6.12933594 4.09792969 -7.6640625 4.0703125 C-8.43492188 4.04710938 -9.20578125 4.02390625 -10 4 C-10 3.01 -10 2.02 -10 1 C-6.47005387 -0.17664871 -3.70544587 -0.19850603 0 0 Z " fill="#34D3D0" transform="translate(23,76)"/>
<path d="M0 0 C3.3 0 6.6 0 10 0 C10 0.99 10 1.98 10 3 C9.071875 3.061875 8.14375 3.12375 7.1875 3.1875 C3.80967689 3.68162299 3.80967689 3.68162299 2.1875 6.5625 C1.795625 7.366875 1.40375 8.17125 1 9 C0.67 9 0.34 9 0 9 C0 6.03 0 3.06 0 0 Z " fill="#3EBCDD" transform="translate(105,54)"/>
<path d="M0 0 C1.23556641 0.01740234 1.23556641 0.01740234 2.49609375 0.03515625 C3.32238281 0.04417969 4.14867187 0.05320312 5 0.0625 C5.63808594 0.07410156 6.27617188 0.08570312 6.93359375 0.09765625 C6.60359375 0.75765625 6.27359375 1.41765625 5.93359375 2.09765625 C3.37109375 2.72265625 3.37109375 2.72265625 0.93359375 3.09765625 C0.60359375 4.74765625 0.27359375 6.39765625 -0.06640625 8.09765625 C-1.05640625 8.09765625 -2.04640625 8.09765625 -3.06640625 8.09765625 C-3.10882348 5.7647085 -3.10733562 3.43063058 -3.06640625 1.09765625 C-2.06640625 0.09765625 -2.06640625 0.09765625 0 0 Z " fill="#4397EA" transform="translate(36.06640625,85.90234375)"/>
<path d="M0 0 C0.763125 0.61875 1.52625 1.2375 2.3125 1.875 C4.99625809 4.05597052 4.99625809 4.05597052 8 6 C7 7 7 7 5.15234375 7.09765625 C3.1015625 7.06510417 1.05078125 7.03255208 -1 7 C-1.625 4.625 -1.625 4.625 -2 2 C-1.34 1.34 -0.68 0.68 0 0 Z " fill="#3AD5D8" transform="translate(107,107)"/>
<path d="M0 0 C0.33 1.32 0.66 2.64 1 4 C1.99 4 2.98 4 4 4 C3.67 4.99 3.34 5.98 3 7 C4.98 7.66 6.96 8.32 9 9 C8.67 9.66 8.34 10.32 8 11 C4.77060081 11.35882213 3.38790237 11.27258004 0.6875 9.375 C-1.44262507 6.3770462 -1.40030877 4.60277895 -1 1 C-0.67 0.67 -0.34 0.34 0 0 Z " fill="#98E3EA" transform="translate(109,101)"/>
<path d="M0 0 C1.65 0 3.3 0 5 0 C5.625 2.375 5.625 2.375 6 5 C5.34 5.66 4.68 6.32 4 7 C1.375 6.625 1.375 6.625 -1 6 C-0.67 5.34 -0.34 4.68 0 4 C-0.33 3.67 -0.66 3.34 -1 3 C-0.67 2.01 -0.34 1.02 0 0 Z " fill="#41D2E0" transform="translate(112,102)"/>
<path d="M0 0 C3.94727588 -0.17942163 6.5980513 -0.09350689 10 2 C8.3125 4.0625 8.3125 4.0625 6 6 C3.25 5.75 3.25 5.75 1 5 C0.67 3.35 0.34 1.7 0 0 Z " fill="#34CDD8" transform="translate(117,33)"/>
<path d="M0 0 C0 1.65 0 3.3 0 5 C-3.37705625 4.46274105 -6.696686 3.88935377 -10 3 C-10 2.34 -10 1.68 -10 1 C-6.52674819 -0.1577506 -3.63932552 -0.06866652 0 0 Z " fill="#44CCE5" transform="translate(123,96)"/>
<path d="M0 0 C2.31 0 4.62 0 7 0 C7 1.65 7 3.3 7 5 C4.69 5 2.38 5 0 5 C0 3.35 0 1.7 0 0 Z " fill="#3C3E8A" transform="translate(98,49)"/>
<path d="M0 0 C1.07765625 0.10183594 2.1553125 0.20367187 3.265625 0.30859375 C4.08546875 0.39238281 4.9053125 0.47617188 5.75 0.5625 C5.75 1.2225 5.75 1.8825 5.75 2.5625 C0.47 2.5625 -4.81 2.5625 -10.25 2.5625 C-10.25 1.9025 -10.25 1.2425 -10.25 0.5625 C-6.70049966 -0.60056443 -3.69176052 -0.36115049 0 0 Z " fill="#99C0FE" transform="translate(68.25,118.4375)"/>
<path d="M0 0 C3 3.75 3 3.75 3 6 C5.31 6.66 7.62 7.32 10 8 C7.24921116 8.91692961 5.64051087 9.10886083 2.8125 9.0625 C0.9253125 9.0315625 0.9253125 9.0315625 -1 9 C-2.0326802 6.21176345 -2.04509293 5.1322726 -1.0625 2.25 C-0.711875 1.5075 -0.36125 0.765 0 0 Z " fill="#4CD0DE" transform="translate(16,68)"/>
<path d="M0 0 C0.99 0 1.98 0 3 0 C3.25 6.625 3.25 6.625 1 10 C0.67 9.34 0.34 8.68 0 8 C-0.66 7.67 -1.32 7.34 -2 7 C-2 3.89448334 -1.4606285 2.64738916 0 0 Z " fill="#3AD2D0" transform="translate(57,90)"/>
<path d="M0 0 C0 0.99 0 1.98 0 3 C-1.98 3.99 -3.96 4.98 -6 6 C-7 3 -7 3 -7 0 C-4.3333581 -1.33332095 -2.83319697 -0.67102033 0 0 Z " fill="#3CC1D8" transform="translate(60,87)"/>
<path d="M0 0 C2.97 0 5.94 0 9 0 C9.33 0.99 9.66 1.98 10 3 C5.71 3 1.42 3 -3 3 C-2.67 2.34 -2.34 1.68 -2 1 C-1.34 1.33 -0.68 1.66 0 2 C0 1.34 0 0.68 0 0 Z " fill="#3DA7E4" transform="translate(48,61)"/>
<path d="M0 0 C0.99 0 1.98 0 3 0 C3.125 6.75 3.125 6.75 2 9 C1.01 9 0.02 9 -1 9 C-1.125 2.25 -1.125 2.25 0 0 Z " fill="#707FFE" transform="translate(124,103)"/>
<path d="M0 0 C0.53625 0.391875 1.0725 0.78375 1.625 1.1875 C1.295 2.1775 0.965 3.1675 0.625 4.1875 C-2.75 4.3125 -2.75 4.3125 -6.375 4.1875 C-7.035 3.5275 -7.695 2.8675 -8.375 2.1875 C-2.95961538 -1.0125 -2.95961538 -1.0125 0 0 Z " fill="#38C7C4" transform="translate(32.375,76.8125)"/>
<path d="M0 0 C1.67542976 0.28604898 3.34385343 0.61781233 5 1 C4.67 2.32 4.34 3.64 4 5 C2.68 5.33 1.36 5.66 0 6 C-0.38218767 4.34385343 -0.71395102 2.67542976 -1 1 C-0.67 0.67 -0.34 0.34 0 0 Z " fill="#48CEDC" transform="translate(22,67)"/>
<path d="M0 0 C0.66 0 1.32 0 2 0 C2.33 0.66 2.66 1.32 3 2 C3.66 2 4.32 2 5 2 C4.67 3.32 4.34 4.64 4 6 C1.69 6 -0.62 6 -3 6 C-2.01 4.02 -1.02 2.04 0 0 Z " fill="#35DFC1" transform="translate(55,99)"/>
<path d="M0 0 C1.65 0 3.3 0 5 0 C4.5504955 1.31554985 4.09010284 2.62738358 3.625 3.9375 C3.36976562 4.66839844 3.11453125 5.39929688 2.8515625 6.15234375 C2 8 2 8 0 9 C0 6.03 0 3.06 0 0 Z " fill="#42BEF0" transform="translate(105,100)"/>
<path d="M0 0 C3.3 0 6.6 0 10 0 C10.33 1.98 10.66 3.96 11 6 C10.01 6 9.02 6 8 6 C7.54625 5.360625 7.0925 4.72125 6.625 4.0625 C5.1337227 1.75235447 5.1337227 1.75235447 2.3125 1.25 C1.1678125 1.12625 1.1678125 1.12625 0 1 C0 0.67 0 0.34 0 0 Z " fill="#3CD0D9" transform="translate(16,59)"/>
<path d="M0 0 C4.95 0.33 9.9 0.66 15 1 C15 1.33 15 1.66 15 2 C10.71 2 6.42 2 2 2 C2 2.66 2 3.32 2 4 C1.01 4 0.02 4 -1 4 C-0.67 2.68 -0.34 1.36 0 0 Z " fill="#32C4DE" transform="translate(42,45)"/>
<path d="M0 0 C3.3 0 6.6 0 10 0 C10 0.99 10 1.98 10 3 C6.7 3 3.4 3 0 3 C0 2.01 0 1.02 0 0 Z " fill="#3BC3D7" transform="translate(72,61)"/>
<path d="M0 0 C0.33 0 0.66 0 1 0 C1 1.65 1 3.3 1 5 C1.99 5.33 2.98 5.66 4 6 C2.68 8.31 1.36 10.62 0 13 C-0.66 13 -1.32 13 -2 13 C-2 11.68 -2 10.36 -2 9 C-1.01 8.34 -0.02 7.68 1 7 C0.67 6.67 0.34 6.34 0 6 C-0.04080783 4.00041636 -0.04254356 1.99954746 0 0 Z " fill="#56DBD5" transform="translate(121,50)"/>
<path d="M0 0 C0.66 0.33 1.32 0.66 2 1 C2.95067299 4.28414305 3.10102197 5.69693408 2 9 C1.01 9 0.02 9 -1 9 C-0.67 6.03 -0.34 3.06 0 0 Z " fill="#6762FF" transform="translate(103,108)"/>
<path d="M0 0 C0.66 0 1.32 0 2 0 C2 1.98 2 3.96 2 6 C2.66 6.33 3.32 6.66 4 7 C2.02 7.99 2.02 7.99 0 9 C-0.66 8.01 -1.32 7.02 -2 6 C-1.34 6 -0.68 6 0 6 C0 4.02 0 2.04 0 0 Z " fill="#FAFDFE" transform="translate(119,50)"/>
<path d="M0 0 C2.64 0 5.28 0 8 0 C8.33 1.32 8.66 2.64 9 4 C8.01 4 7.02 4 6 4 C6 3.34 6 2.68 6 2 C3.69 2 1.38 2 -1 2 C-0.67 1.34 -0.34 0.68 0 0 Z " fill="#53D9D4" transform="translate(89,45)"/>
<path d="M0 0 C1.65 0 3.3 0 5 0 C4.67 1.65 4.34 3.3 4 5 C2.68 5 1.36 5 0 5 C0 3.35 0 1.7 0 0 Z " fill="#34C2C4" transform="translate(47,97)"/>
<path d="M0 0 C0.99 0 1.98 0 3 0 C2.67 2.31 2.34 4.62 2 7 C1.01 7 0.02 7 -1 7 C-1.33 5.35 -1.66 3.7 -2 2 C-1.34 2 -0.68 2 0 2 C0 1.34 0 0.68 0 0 Z " fill="#41CDD4" transform="translate(31,67)"/>
<path d="M0 0 C0.99 0.33 1.98 0.66 3 1 C1.515 4.96 1.515 4.96 0 9 C-0.66 9 -1.32 9 -2 9 C-1.34 6.03 -0.68 3.06 0 0 Z " fill="#E0F5F7" transform="translate(46,91)"/>
<path d="M0 0 C1.32 1.32 2.64 2.64 4 4 C2.02 4.66 0.04 5.32 -2 6 C-1.125 1.125 -1.125 1.125 0 0 Z " fill="#3FCFE5" transform="translate(107,107)"/>
<path d="M0 0 C-0.33 0.99 -0.66 1.98 -1 3 C-2.65 3 -4.3 3 -6 3 C-6.33 2.01 -6.66 1.02 -7 0 C-2.25 -1.125 -2.25 -1.125 0 0 Z " fill="#3DD8CC" transform="translate(53,102)"/>
<path d="M0 0 C0.33 0.99 0.66 1.98 1 3 C0.01 4.485 0.01 4.485 -1 6 C-0.34 6 0.32 6 1 6 C0.67 6.99 0.34 7.98 0 9 C-1.32 7.35 -2.64 5.7 -4 4 C-2.68 2.68 -1.36 1.36 0 0 Z " fill="#DBF2F7" transform="translate(40,91)"/>
<path d="M0 0 C1.98 0.99 1.98 0.99 4 2 C4 2.99 4 3.98 4 5 C2 6.6875 2 6.6875 0 8 C0.185625 7.236875 0.37125 6.47375 0.5625 5.6875 C1.22819173 2.91032625 1.22819173 2.91032625 0 0 Z " fill="#E4F6F9" transform="translate(52,92)"/>
<path d="M0 0 C1.32 0 2.64 0 4 0 C3.67 1.65 3.34 3.3 3 5 C2.01 5 1.02 5 0 5 C0 3.35 0 1.7 0 0 Z " fill="#34AEC5" transform="translate(26,59)"/>
</svg>
