<?xml version="1.0" encoding="UTF-8"?>
<svg version="1.1" xmlns="http://www.w3.org/2000/svg" width="150" height="150">
<path d="M0 0 C2.97 0.33 5.94 0.66 9 1 C9 2.98 9 4.96 9 7 C13.33927969 8.83695434 13.33927969 8.83695434 17.875 8.125 C18.926875 7.568125 18.926875 7.568125 20 7 C23 12.75 23 12.75 23 15 C23.85464844 14.98839844 24.70929688 14.97679687 25.58984375 14.96484375 C26.69457031 14.95582031 27.79929687 14.94679688 28.9375 14.9375 C30.03964844 14.92589844 31.14179688 14.91429687 32.27734375 14.90234375 C35 15 35 15 36 16 C36.15806531 17.92478813 36.251135 19.8549921 36.31640625 21.78515625 C36.37924805 23.53989258 36.37924805 23.53989258 36.44335938 25.33007812 C36.48267578 26.56177734 36.52199219 27.79347656 36.5625 29.0625 C36.60568359 30.29806641 36.64886719 31.53363281 36.69335938 32.80664062 C36.79984198 35.87097335 36.90185424 38.93539073 37 42 C38.65 42 40.3 42 42 42 C42.99 44.475 42.99 44.475 44 47 C43.34 47 42.68 47 42 47 C42.99 50.96 42.99 50.96 44 55 C41.66785852 56.20628008 39.50357861 57.1654738 37 58 C36.67 58.99 36.34 59.98 36 61 C34.02 61 32.04 61 30 61 C29.01 59.02 29.01 59.02 28 57 C26.68 57.33 25.36 57.66 24 58 C22.12401005 54.13766774 22.02228464 52.12813154 23 48 C22.67 47.01 22.34 46.02 22 45 C21.34 45 20.68 45 20 45 C20 51.6 20 58.2 20 65 C22.31 65 24.62 65 27 65 C28 66 28 66 28.11352539 69.96899414 C28.1133662 71.74105607 28.10766785 73.5131226 28.09765625 75.28515625 C28.0962413 76.21597519 28.09482635 77.14679413 28.09336853 78.1058197 C28.08775172 81.09141191 28.0751964 84.07693029 28.0625 87.0625 C28.05748716 89.08137913 28.05292388 91.10025943 28.04882812 93.11914062 C28.03777683 98.07945572 28.02050095 103.03971532 28 108 C30.31 108.66 32.62 109.32 35 110 C34 112 34 112 32.34521484 112.61450195 C27.49200924 113.41225457 22.54404055 113.18590312 17.63769531 113.18530273 C15.63863013 113.18748512 13.63960468 113.20599143 11.640625 113.22460938 C10.36960937 113.22654297 9.09859375 113.22847656 7.7890625 113.23046875 C6.63100098 113.23457764 5.47293945 113.23868652 4.27978516 113.24291992 C0.88689046 112.99162245 -1.83332989 112.21173908 -5 111 C-4.67 110.34 -4.34 109.68 -4 109 C-1.4375 108.375 -1.4375 108.375 1 108 C0.32142944 107.99191315 -0.35714111 107.98382629 -1.05627441 107.97549438 C-8.19572947 107.88863335 -15.33493245 107.7891071 -22.47412109 107.68261719 C-25.12938188 107.64363425 -27.7845665 107.60971702 -30.43994141 107.578125 C-68.93926359 107.11445232 -68.93926359 107.11445232 -76 103 C-75.67 102.34 -75.34 101.68 -75 101 C-74.01 101 -73.02 101 -72 101 C-72 100.01 -72 99.02 -72 98 C-74.97065509 98.34227572 -74.97065509 98.34227572 -78 99 C-78.495 99.99 -78.495 99.99 -79 101 C-82.65316671 99.75023244 -83.78065836 99.32901247 -86 96 C-85.625 94 -85.625 94 -85 92 C-85 91.01 -85 90.02 -85 89 C-86.65 89 -88.3 89 -90 89 C-90 86.36 -90 83.72 -90 81 C-89.030625 80.71125 -88.06125 80.4225 -87.0625 80.125 C-83.89335797 79.35785318 -83.89335797 79.35785318 -83 77 C-83.39938767 74.90178785 -83.39938767 74.90178785 -84 73 C-79.25 70 -79.25 70 -77 70 C-76.67 71.32 -76.34 72.64 -76 74 C-75.01 74 -74.02 74 -73 74 C-73 71.03 -73 68.06 -73 65 C-79.27 65 -85.54 65 -92 65 C-92 64.34 -92 63.68 -92 63 C-89.03 62.505 -89.03 62.505 -86 62 C-86 61.01 -86 60.02 -86 59 C-87.98 59 -89.96 59 -92 59 C-92 58.34 -92 57.68 -92 57 C-90.02 57 -88.04 57 -86 57 C-86 55.68 -86 54.36 -86 53 C-87.98 53 -89.96 53 -92 53 C-92 52.34 -92 51.68 -92 51 C-90.02 51 -88.04 51 -86 51 C-86 49.68 -86 48.36 -86 47 C-87.98 47 -89.96 47 -92 47 C-92 46.34 -92 45.68 -92 45 C-90.02 45 -88.04 45 -86 45 C-86 44.01 -86 43.02 -86 42 C-87.98 41.67 -89.96 41.34 -92 41 C-92 40.67 -92 40.34 -92 40 C-85.73 40 -79.46 40 -73 40 C-73 38.35 -73 36.7 -73 35 C-79.27 35 -85.54 35 -92 35 C-92 34.67 -92 34.34 -92 34 C-90.02 34 -88.04 34 -86 34 C-86 32.35 -86 30.7 -86 29 C-87.98 29 -89.96 29 -92 29 C-92 28.67 -92 28.34 -92 28 C-90.35 27.67 -88.7 27.34 -87 27 C-86.67 25.68 -86.34 24.36 -86 23 C-87.98 23 -89.96 23 -92 23 C-92 22.67 -92 22.34 -92 22 C-90.35 21.67 -88.7 21.34 -87 21 C-86.67 19.68 -86.34 18.36 -86 17 C-87.98 17 -89.96 17 -92 17 C-92 16.67 -92 16.34 -92 16 C-86.16745684 14.00004326 -80.89184246 13.66505175 -74.75 13.6875 C-73.8528125 13.67138672 -72.955625 13.65527344 -72.03125 13.63867188 C-71.17015625 13.63802734 -70.3090625 13.63738281 -69.421875 13.63671875 C-68.64424805 13.63373779 -67.86662109 13.63075684 -67.06542969 13.62768555 C-64.5130589 14.08777603 -63.62728763 15.03537161 -62 17 C-62.99 17 -63.98 17 -65 17 C-64.42655063 19.86724686 -64.1385485 20.8614515 -62 23 C-62.99 23 -63.98 23 -65 23 C-64.42655063 25.86724686 -64.1385485 26.8614515 -62 29 C-62.99 29 -63.98 29 -65 29 C-65 29.66 -65 30.32 -65 31 C-62.69 31 -60.38 31 -58 31 C-57.67 29.68 -57.34 28.36 -57 27 C-43.47 27 -29.94 27 -16 27 C-16 26.34 -16 25.68 -16 25 C-15.34 24.566875 -14.68 24.13375 -14 23.6875 C-11.77068002 22.15980408 -11.77068002 22.15980408 -11.5 19.5625 C-12.13723312 16.29668024 -13.49855724 15.11059233 -16 13 C-14.35 10.69 -12.7 8.38 -11 6 C-10.113125 6.37125 -9.22625 6.7425 -8.3125 7.125 C-4.59173995 8.10784228 -3.32561865 7.76062164 0 6 C0 4.02 0 2.04 0 0 Z M-2.9375 14.0625 C-5.53327109 17.7595073 -5.71253588 19.56644342 -5 24 C-3.59121904 26.9901643 -3.59121904 26.9901643 -1 29 C2.64182335 29.89055736 2.64182335 29.89055736 6 30 C6.03738281 29.01257813 6.07476562 28.02515625 6.11328125 27.0078125 C6.17902344 25.72648437 6.24476562 24.44515625 6.3125 23.125 C6.37050781 21.84882812 6.42851563 20.57265625 6.48828125 19.2578125 C6.65714844 18.18273437 6.82601562 17.10765625 7 16 C7.99 15.34 8.98 14.68 10 14 C5.32834072 10.88556048 1.69263351 10.81155519 -2.9375 14.0625 Z M28 47 C27.6366844 49.83386167 27.6431329 51.40522151 29.125 53.875 C31.92151052 55.55290631 33.93690532 54.74875648 37 54 C37.67673447 50.59679066 37.67673447 50.59679066 38 47 C36.11499729 44.68436913 36.11499729 44.68436913 33 44.75 C29.88500271 44.68436913 29.88500271 44.68436913 28 47 Z M-79.25 80.625 C-81.21985834 82.92308586 -81.21985834 82.92308586 -81.5 86 C-81.21376982 89.06575838 -81.21376982 89.06575838 -79.3125 91.375 C-76.61209763 93.27258004 -75.22939919 93.35882213 -72 93 C-71.85024761 85.94348748 -71.85024761 85.94348748 -73 79 C-76.92212225 78.60967296 -76.92212225 78.60967296 -79.25 80.625 Z M-65 95 C-65 96.65 -65 98.3 -65 100 C-52.13 99.01 -52.13 99.01 -39 98 C-38.67 97.01 -38.34 96.02 -38 95 C-46.91 95 -55.82 95 -65 95 Z M-14 95 C-14 95.99 -14 96.98 -14 98 C-8.72 98.33 -3.44 98.66 2 99 C2 97.68 2 96.36 2 95 C-3.28 95 -8.56 95 -14 95 Z " fill="#6768FD" transform="translate(99,18)"/>
<path d="M0 0 C2.31 0 4.62 0 7 0 C7 2.97 7 5.94 7 9 C10.3 9 13.6 9 17 9 C17 15.6 17 22.2 17 29 C12.71 29 8.42 29 4 29 C4 29.66 4 30.32 4 31 C12.79133718 32.42426407 12.79133718 32.42426407 29 32 C29 45.2 29 58.4 29 72 C31.31 72.66 33.62 73.32 36 74 C35 76 35 76 33.34521484 76.61450195 C28.49200924 77.41225457 23.54404055 77.18590312 18.63769531 77.18530273 C16.63863013 77.18748512 14.63960468 77.20599143 12.640625 77.22460938 C11.36960937 77.22654297 10.09859375 77.22847656 8.7890625 77.23046875 C7.63100098 77.23457764 6.47293945 77.23868652 5.27978516 77.24291992 C1.88689046 76.99162245 -0.83332989 76.21173908 -4 75 C-3.67 74.34 -3.34 73.68 -3 73 C-0.4375 72.375 -0.4375 72.375 2 72 C1.32142944 71.99191315 0.64285889 71.98382629 -0.05627441 71.97549438 C-7.19572947 71.88863335 -14.33493245 71.7891071 -21.47412109 71.68261719 C-24.12938188 71.64363425 -26.7845665 71.60971702 -29.43994141 71.578125 C-67.93926359 71.11445232 -67.93926359 71.11445232 -75 67 C-74.505 66.01 -74.505 66.01 -74 65 C-73.01 65 -72.02 65 -71 65 C-71 64.01 -71 63.02 -71 62 C-73.97065509 62.34227572 -73.97065509 62.34227572 -77 63 C-77.495 63.99 -77.495 63.99 -78 65 C-81.65316671 63.75023244 -82.78065836 63.32901247 -85 60 C-84.625 58 -84.625 58 -84 56 C-84 55.01 -84 54.02 -84 53 C-85.65 53 -87.3 53 -89 53 C-89 50.36 -89 47.72 -89 45 C-88.030625 44.71125 -87.06125 44.4225 -86.0625 44.125 C-82.89335797 43.35785318 -82.89335797 43.35785318 -82 41 C-82.39938767 38.90178785 -82.39938767 38.90178785 -83 37 C-78.25 34 -78.25 34 -76 34 C-75.67 35.32 -75.34 36.64 -75 38 C-74.01 38 -73.02 38 -72 38 C-72 39.65 -72 41.3 -72 43 C-72.969375 43.28875 -73.93875 43.5775 -74.9375 43.875 C-78.10664203 44.64214682 -78.10664203 44.64214682 -79 47 C-79.40270732 51.1283652 -79.40270732 51.1283652 -77.8125 54.8125 C-75.57968261 56.27538036 -73.62655933 56.64505955 -71 57 C-71 54.03 -71 51.06 -71 48 C-69.02 48 -67.04 48 -65 48 C-64.67 48.66 -64.34 49.32 -64 50 C-55.75 50 -47.5 50 -39 50 C-38.505 49.01 -38.505 49.01 -38 48 C-24.47 48 -10.94 48 3 48 C3 46.35 3 44.7 3 43 C-5.91 43 -14.82 43 -24 43 C-24 42.01 -24 41.02 -24 40 C-24.33 39.34 -24.66 38.68 -25 38 C-24.01 38 -23.02 38 -22 38 C-22 37.34 -22 36.68 -22 36 C-20.35 36 -18.7 36 -17 36 C-16.8509288 33.9254644 -16.8509288 33.9254644 -18 32 C-16.02 31.01 -14.04 30.02 -12 29 C-13.1490712 27.7018576 -13.1490712 27.7018576 -16 27 C-14.35 26.67 -12.7 26.34 -11 26 C-11 25.34 -11 24.68 -11 24 C-10.36191406 23.93941406 -9.72382812 23.87882812 -9.06640625 23.81640625 C-7.82697266 23.69072266 -7.82697266 23.69072266 -6.5625 23.5625 C-5.73878906 23.48128906 -4.91507812 23.40007812 -4.06640625 23.31640625 C-2.01337975 23.21069185 -2.01337975 23.21069185 -1 22 C-0.84285346 20.36743242 -0.74914586 18.72864662 -0.68359375 17.08984375 C-0.64169922 16.10048828 -0.59980469 15.11113281 -0.55664062 14.09179688 C-0.51732422 13.05087891 -0.47800781 12.00996094 -0.4375 10.9375 C-0.37272461 9.37032227 -0.37272461 9.37032227 -0.30664062 7.77148438 C-0.20018775 5.18113116 -0.0981724 2.59067814 0 0 Z M-64 59 C-64 60.65 -64 62.3 -64 64 C-51.13 63.01 -51.13 63.01 -38 62 C-37.67 61.01 -37.34 60.02 -37 59 C-45.91 59 -54.82 59 -64 59 Z M-13 59 C-13 59.99 -13 60.98 -13 62 C-7.72 62.33 -2.44 62.66 3 63 C3 61.68 3 60.36 3 59 C-2.28 59 -7.56 59 -13 59 Z " fill="#5D47F5" transform="translate(98,54)"/>
<path d="M0 0 C0.33 1.32 0.66 2.64 1 4 C1.99 4 2.98 4 4 4 C4 5.65 4 7.3 4 9 C3.030625 9.28875 2.06125 9.5775 1.0625 9.875 C-2.10664203 10.64214682 -2.10664203 10.64214682 -3 13 C-3.40270732 17.1283652 -3.40270732 17.1283652 -1.8125 20.8125 C0.42031739 22.27538036 2.37344067 22.64505955 5 23 C5 20.03 5 17.06 5 14 C6.98 14 8.96 14 11 14 C11.33 14.66 11.66 15.32 12 16 C20.25 16 28.5 16 37 16 C37.33 15.34 37.66 14.68 38 14 C51.53 14 65.06 14 79 14 C79 17.63 79 21.26 79 25 C73.72 25 68.44 25 63 25 C63 25.99 63 26.98 63 28 C63.56847656 27.98839844 64.13695313 27.97679688 64.72265625 27.96484375 C69.60670484 27.90776806 74.18503965 28.18043228 79 29 C79 31.64 79 34.28 79 37 C71.71409984 37.04682155 64.42823335 37.08211748 57.14221191 37.10362434 C53.75718789 37.11395864 50.37226851 37.12792229 46.98730469 37.15087891 C8.5625541 37.39227608 8.5625541 37.39227608 1 33 C1.33 32.34 1.66 31.68 2 31 C2.99 31 3.98 31 5 31 C5 30.01 5 29.02 5 28 C2.02934491 28.34227572 2.02934491 28.34227572 -1 29 C-1.33 29.66 -1.66 30.32 -2 31 C-5.65316671 29.75023244 -6.78065836 29.32901247 -9 26 C-8.625 24 -8.625 24 -8 22 C-8 21.01 -8 20.02 -8 19 C-9.65 19 -11.3 19 -13 19 C-13 16.36 -13 13.72 -13 11 C-12.030625 10.71125 -11.06125 10.4225 -10.0625 10.125 C-6.89335797 9.35785318 -6.89335797 9.35785318 -6 7 C-6.39938767 4.90178785 -6.39938767 4.90178785 -7 3 C-2.25 0 -2.25 0 0 0 Z M12 25 C12 26.65 12 28.3 12 30 C24.87 29.01 24.87 29.01 38 28 C38.33 27.01 38.66 26.02 39 25 C30.09 25 21.18 25 12 25 Z " fill="#BAD4FE" transform="translate(22,88)"/>
<path d="M0 0 C2.97 0.33 5.94 0.66 9 1 C9 2.98 9 4.96 9 7 C13.33927969 8.83695434 13.33927969 8.83695434 17.875 8.125 C18.926875 7.568125 18.926875 7.568125 20 7 C23 12.75 23 12.75 23 15 C24.28197266 14.98259766 24.28197266 14.98259766 25.58984375 14.96484375 C26.69457031 14.95582031 27.79929688 14.94679688 28.9375 14.9375 C30.03964844 14.92589844 31.14179688 14.91429687 32.27734375 14.90234375 C35 15 35 15 36 16 C36.15806531 17.92478813 36.251135 19.8549921 36.31640625 21.78515625 C36.35830078 22.95498047 36.40019531 24.12480469 36.44335938 25.33007812 C36.48267578 26.56177734 36.52199219 27.79347656 36.5625 29.0625 C36.60568359 30.29806641 36.64886719 31.53363281 36.69335938 32.80664062 C36.79984198 35.87097335 36.90185424 38.93539073 37 42 C38.65 42 40.3 42 42 42 C42.66 43.65 43.32 45.3 44 47 C43.34 47 42.68 47 42 47 C42.66 49.64 43.32 52.28 44 55 C41.66785852 56.20628008 39.50357861 57.1654738 37 58 C36.67 58.99 36.34 59.98 36 61 C34.02 61 32.04 61 30 61 C29.34 59.68 28.68 58.36 28 57 C26.02 57.495 26.02 57.495 24 58 C22.12401005 54.13766774 22.02228464 52.12813154 23 48 C22.67 47.01 22.34 46.02 22 45 C21.01 44.67 20.02 44.34 19 44 C19.04125 43.236875 19.0825 42.47375 19.125 41.6875 C19.22080824 38.77281584 19.22080824 38.77281584 17 36 C17.66 36 18.32 36 19 36 C18.34 34.68 17.68 33.36 17 32 C11.06 31.67 5.12 31.34 -1 31 C-1 30.34 -1 29.68 -1 29 C1.31 29.33 3.62 29.66 6 30 C5.94779297 28.51886719 5.94779297 28.51886719 5.89453125 27.0078125 C5.86746094 25.72648437 5.84039062 24.44515625 5.8125 23.125 C5.76029297 21.21074219 5.76029297 21.21074219 5.70703125 19.2578125 C5.80371094 18.18273437 5.90039062 17.10765625 6 16 C6.99 15.34 7.98 14.68 9 14 C5.90826248 12.45413124 3.40570448 12.70640479 0 13 C-2.58333333 14.41666667 -2.58333333 14.41666667 -4 17 C-4.33094958 20.77282526 -4.19754817 23.40735548 -3 27 C-7.29 27 -11.58 27 -16 27 C-16 26.34 -16 25.68 -16 25 C-15.34 24.566875 -14.68 24.13375 -14 23.6875 C-11.77068002 22.15980408 -11.77068002 22.15980408 -11.5 19.5625 C-12.13723312 16.29668024 -13.49855724 15.11059233 -16 13 C-14.35 10.69 -12.7 8.38 -11 6 C-10.113125 6.37125 -9.22625 6.7425 -8.3125 7.125 C-4.59173995 8.10784228 -3.32561865 7.76062164 0 6 C0 4.02 0 2.04 0 0 Z M28 47 C27.6366844 49.83386167 27.6431329 51.40522151 29.125 53.875 C31.92151052 55.55290631 33.93690532 54.74875648 37 54 C37.67673447 50.59679066 37.67673447 50.59679066 38 47 C36.11499729 44.68436913 36.11499729 44.68436913 33 44.75 C29.88500271 44.68436913 29.88500271 44.68436913 28 47 Z " fill="#35D2D3" transform="translate(99,18)"/>
<path d="M0 0 C16.83 0 33.66 0 51 0 C51 8.25 51 16.5 51 25 C34.17 25 17.34 25 0 25 C0 16.75 0 8.5 0 0 Z " fill="#444D93" transform="translate(44,47)"/>
<path d="M0 0 C18.15 0 36.3 0 55 0 C55.495 1.98 55.495 1.98 56 4 C57.91425781 3.96519531 57.91425781 3.96519531 59.8671875 3.9296875 C61.5364525 3.91093171 63.2057238 3.89273131 64.875 3.875 C65.71675781 3.85824219 66.55851562 3.84148438 67.42578125 3.82421875 C68.23144531 3.81777344 69.03710938 3.81132813 69.8671875 3.8046875 C70.61081543 3.79421387 71.35444336 3.78374023 72.12060547 3.77294922 C74 4 74 4 76 6 C75.66666667 7.33333333 75.33333333 8.66666667 75 10 C75.99 10.99 75.99 10.99 77 12 C77.22705078 14.61376953 77.22705078 14.61376953 77.1953125 17.8828125 C77.18886719 19.04941406 77.18242188 20.21601562 77.17578125 21.41796875 C77.15064453 23.25294922 77.15064453 23.25294922 77.125 25.125 C77.11597656 26.35605469 77.10695313 27.58710937 77.09765625 28.85546875 C77.07402548 31.90383815 77.04108054 34.95182382 77 38 C79.31 38 81.62 38 84 38 C84.33 38.99 84.66 39.98 85 41 C76.19039858 42.30512614 67.80960142 42.30512614 59 41 C59.33 40.01 59.66 39.02 60 38 C64.29 38 68.58 38 73 38 C73 31.4 73 24.8 73 18 C69.7 18 66.4 18 63 18 C63 15.03 63 12.06 63 9 C60.69 9 58.38 9 56 9 C56.01571045 9.98395752 56.01571045 9.98395752 56.03173828 10.98779297 C56.07322503 13.95015658 56.09930262 16.91245916 56.125 19.875 C56.14175781 20.90753906 56.15851563 21.94007812 56.17578125 23.00390625 C56.18544922 24.48310547 56.18544922 24.48310547 56.1953125 25.9921875 C56.21102295 27.35899658 56.21102295 27.35899658 56.22705078 28.75341797 C56 31 56 31 54 33 C51.76086426 33.25396729 51.76086426 33.25396729 48.93945312 33.25878906 C47.35771301 33.26824554 47.35771301 33.26824554 45.74401855 33.27789307 C44.60130493 33.2738446 43.45859131 33.26979614 42.28125 33.265625 C40.52802429 33.26849518 40.52802429 33.26849518 38.73937988 33.27142334 C36.26456487 33.27278626 33.78974274 33.26908241 31.31494141 33.26074219 C27.51578795 33.25004446 23.71710741 33.26063418 19.91796875 33.2734375 C17.51822812 33.27211592 15.11848778 33.26955357 12.71875 33.265625 C11.00467957 33.27169769 11.00467957 33.27169769 9.25598145 33.27789307 C8.20148804 33.27158875 7.14699463 33.26528442 6.06054688 33.25878906 C5.1294812 33.25719788 4.19841553 33.25560669 3.23913574 33.25396729 C1 33 1 33 -1 31 C-1.24291992 28.14257812 -1.24291992 28.14257812 -1.23046875 24.53125 C-1.22853516 23.23832031 -1.22660156 21.94539063 -1.22460938 20.61328125 C-1.21840576 19.93861816 -1.21220215 19.26395508 -1.20581055 18.56884766 C-1.18757091 16.50801218 -1.18530077 14.44762647 -1.18554688 12.38671875 C-1.14020451 2.28040902 -1.14020451 2.28040902 0 0 Z M2 2 C2 10.25 2 18.5 2 27 C18.83 27 35.66 27 53 27 C53 18.75 53 10.5 53 2 C36.17 2 19.34 2 2 2 Z " fill="#37D2C9" transform="translate(42,45)"/>
<path d="M0 0 C2.31 0 4.62 0 7 0 C7 2.97 7 5.94 7 9 C10.3 9 13.6 9 17 9 C17 15.6 17 22.2 17 29 C12.71 29 8.42 29 4 29 C3.67 33.62 3.34 38.24 3 43 C-5.91 43 -14.82 43 -24 43 C-24 42.01 -24 41.02 -24 40 C-24.33 39.34 -24.66 38.68 -25 38 C-24.01 38 -23.02 38 -22 38 C-22 37.34 -22 36.68 -22 36 C-20.35 36 -18.7 36 -17 36 C-16.8509288 33.9254644 -16.8509288 33.9254644 -18 32 C-16.02 31.01 -14.04 30.02 -12 29 C-13.1490712 27.7018576 -13.1490712 27.7018576 -16 27 C-14.35 26.67 -12.7 26.34 -11 26 C-11 25.34 -11 24.68 -11 24 C-10.36191406 23.93941406 -9.72382812 23.87882812 -9.06640625 23.81640625 C-7.82697266 23.69072266 -7.82697266 23.69072266 -6.5625 23.5625 C-5.73878906 23.48128906 -4.91507813 23.40007812 -4.06640625 23.31640625 C-2.01337975 23.21069185 -2.01337975 23.21069185 -1 22 C-0.84285346 20.36743242 -0.74914586 18.72864662 -0.68359375 17.08984375 C-0.64169922 16.10048828 -0.59980469 15.11113281 -0.55664062 14.09179688 C-0.51732422 13.05087891 -0.47800781 12.00996094 -0.4375 10.9375 C-0.39431641 9.89271484 -0.35113281 8.84792969 -0.30664062 7.77148438 C-0.20018775 5.18113116 -0.0981724 2.59067814 0 0 Z " fill="#7285FE" transform="translate(98,54)"/>
<path d="M0 0 C0.33 1.32 0.66 2.64 1 4 C1.99 4 2.98 4 4 4 C4 5.65 4 7.3 4 9 C3.030625 9.28875 2.06125 9.5775 1.0625 9.875 C-2.10664203 10.64214682 -2.10664203 10.64214682 -3 13 C-3.43986452 17.03518598 -3.43986452 17.03518598 -1.86328125 20.6015625 C1.39651569 23.0481187 5.35127079 23.30042673 9.28515625 24.05859375 C12 25 12 25 14 29 C21.92 28.67 29.84 28.34 38 28 C37.67 28.66 37.34 29.32 37 30 C34.35139573 30.59355614 31.70802678 30.74209269 29 31 C29 31.66 29 32.32 29 33 C43.19 33 57.38 33 72 33 C71.67 32.34 71.34 31.68 71 31 C69.845 30.835 68.69 30.67 67.5 30.5 C66.345 30.335 65.19 30.17 64 30 C63.505 29.01 63.505 29.01 63 28 C68.45769811 27.88861841 73.61509359 28.08342019 79 29 C79 31.64 79 34.28 79 37 C71.71409984 37.04682155 64.42823335 37.08211748 57.14221191 37.10362434 C53.75718789 37.11395864 50.37226851 37.12792229 46.98730469 37.15087891 C8.5625541 37.39227608 8.5625541 37.39227608 1 33 C1.33 32.34 1.66 31.68 2 31 C2.99 31 3.98 31 5 31 C5 30.01 5 29.02 5 28 C2.02934491 28.34227572 2.02934491 28.34227572 -1 29 C-1.33 29.66 -1.66 30.32 -2 31 C-5.65316671 29.75023244 -6.78065836 29.32901247 -9 26 C-8.625 24 -8.625 24 -8 22 C-8 21.01 -8 20.02 -8 19 C-9.65 19 -11.3 19 -13 19 C-13 16.36 -13 13.72 -13 11 C-12.030625 10.71125 -11.06125 10.4225 -10.0625 10.125 C-6.89335797 9.35785318 -6.89335797 9.35785318 -6 7 C-6.39938767 4.90178785 -6.39938767 4.90178785 -7 3 C-2.25 0 -2.25 0 0 0 Z " fill="#EAEBF2" transform="translate(22,88)"/>
<path d="M0 0 C0.8971875 -0.01611328 1.794375 -0.03222656 2.71875 -0.04882812 C3.57984375 -0.04947266 4.4409375 -0.05011719 5.328125 -0.05078125 C6.10575195 -0.05376221 6.88337891 -0.05674316 7.68457031 -0.05981445 C10.2369411 0.40027603 11.12271237 1.34787161 12.75 3.3125 C11.76 3.3125 10.77 3.3125 9.75 3.3125 C10.32344937 6.17974686 10.6114515 7.1739515 12.75 9.3125 C11.76 9.3125 10.77 9.3125 9.75 9.3125 C10.32344937 12.17974686 10.6114515 13.1739515 12.75 15.3125 C11.76 15.3125 10.77 15.3125 9.75 15.3125 C9.75 15.9725 9.75 16.6325 9.75 17.3125 C12.06 17.3125 14.37 17.3125 16.75 17.3125 C16.87368591 21.24495085 16.96437336 25.17664798 17.0246582 29.1105957 C17.06214374 31.10603555 17.12567535 33.10093052 17.18945312 35.09570312 C17.20556641 36.34931641 17.22167969 37.60292969 17.23828125 38.89453125 C17.26446533 40.05186768 17.29064941 41.2092041 17.31762695 42.40161133 C16.75 45.3125 16.75 45.3125 14.21948242 47.21362305 C13.40455322 47.57625244 12.58962402 47.93888184 11.75 48.3125 C10.16596476 46.72846476 10.53025065 45.0353362 10.43359375 42.83984375 C10.39169922 41.94072266 10.34980469 41.04160156 10.30664062 40.11523438 C10.26732422 39.16970703 10.22800781 38.22417969 10.1875 37.25 C10.14431641 36.30060547 10.10113281 35.35121094 10.05664062 34.37304688 C9.95020724 32.01968647 9.84818992 29.66621646 9.75 27.3125 C7.11 27.3125 4.47 27.3125 1.75 27.3125 C1.75 25.3325 1.75 23.3525 1.75 21.3125 C-4.52 21.3125 -10.79 21.3125 -17.25 21.3125 C-17.25 20.9825 -17.25 20.6525 -17.25 20.3125 C-15.27 20.3125 -13.29 20.3125 -11.25 20.3125 C-11.25 18.6625 -11.25 17.0125 -11.25 15.3125 C-13.23 15.3125 -15.21 15.3125 -17.25 15.3125 C-17.25 14.9825 -17.25 14.6525 -17.25 14.3125 C-15.6 13.9825 -13.95 13.6525 -12.25 13.3125 C-11.92 11.9925 -11.59 10.6725 -11.25 9.3125 C-13.23 9.3125 -15.21 9.3125 -17.25 9.3125 C-17.25 8.9825 -17.25 8.6525 -17.25 8.3125 C-15.6 7.9825 -13.95 7.6525 -12.25 7.3125 C-11.92 5.9925 -11.59 4.6725 -11.25 3.3125 C-13.23 3.3125 -15.21 3.3125 -17.25 3.3125 C-17.25 2.9825 -17.25 2.6525 -17.25 2.3125 C-11.41745684 0.31254326 -6.14184246 -0.02244825 0 0 Z " fill="#5934FF" transform="translate(24.25,31.6875)"/>
<path d="M0 0 C1.12019531 -0.00128906 2.24039063 -0.00257812 3.39453125 -0.00390625 C4.57402344 -0.00003906 5.75351562 0.00382812 6.96875 0.0078125 C8.73798828 0.00201172 8.73798828 0.00201172 10.54296875 -0.00390625 C12.22326172 -0.00197266 12.22326172 -0.00197266 13.9375 0 C14.97326172 0.00112793 16.00902344 0.00225586 17.07617188 0.00341797 C19.46875 0.1328125 19.46875 0.1328125 20.46875 1.1328125 C20.56861975 3.97616298 20.60752881 6.78978413 20.59375 9.6328125 C20.59955078 10.82970703 20.59955078 10.82970703 20.60546875 12.05078125 C20.59535767 18.00620483 20.59535767 18.00620483 19.46875 19.1328125 C17.62715977 19.23240871 15.78178033 19.26361661 13.9375 19.265625 C12.81730469 19.26691406 11.69710937 19.26820312 10.54296875 19.26953125 C9.36347656 19.26566406 8.18398438 19.26179688 6.96875 19.2578125 C5.19951172 19.26361328 5.19951172 19.26361328 3.39453125 19.26953125 C1.71423828 19.26759766 1.71423828 19.26759766 0 19.265625 C-1.03576172 19.26449707 -2.07152344 19.26336914 -3.13867188 19.26220703 C-5.53125 19.1328125 -5.53125 19.1328125 -6.53125 18.1328125 C-6.63111975 15.28946202 -6.67002881 12.47584087 -6.65625 9.6328125 C-6.66011719 8.83488281 -6.66398437 8.03695312 -6.66796875 7.21484375 C-6.65573175 0.007248 -6.65573175 0.007248 0 0 Z " fill="#37D8C7" transform="translate(39.53125,85.8671875)"/>
<path d="M0 0 C3.0000624 -0.02721831 5.99987256 -0.04694378 9 -0.0625 C9.83917969 -0.07087891 10.67835937 -0.07925781 11.54296875 -0.08789062 C12.79013672 -0.09272461 12.79013672 -0.09272461 14.0625 -0.09765625 C15.19365234 -0.10551147 15.19365234 -0.10551147 16.34765625 -0.11352539 C19.91451913 0.03914317 23.45744034 0.55718004 27 1 C27 7.93 27 14.86 27 22 C20.07 22 13.14 22 6 22 C6 21.01 6 20.02 6 19 C4.02 19 2.04 19 0 19 C0 18.34 0 17.68 0 17 C1.98 17 3.96 17 6 17 C6 15.68 6 14.36 6 13 C4.02 13 2.04 13 0 13 C0 12.34 0 11.68 0 11 C1.98 11 3.96 11 6 11 C6 9.68 6 8.36 6 7 C4.02 7 2.04 7 0 7 C0 6.34 0 5.68 0 5 C1.98 5 3.96 5 6 5 C6 4.01 6 3.02 6 2 C3.03 1.505 3.03 1.505 0 1 C0 0.67 0 0.34 0 0 Z " fill="#60D1E1" transform="translate(7,58)"/>
<path d="M0 0 C2.62697064 -0.22137393 5.00893964 -0.28162025 7.625 -0.1875 C8.33140625 -0.17396484 9.0378125 -0.16042969 9.765625 -0.14648438 C11.51074128 -0.1111104 13.25546608 -0.05730221 15 0 C15 3.63 15 7.26 15 11 C9.72 11 4.44 11 -1 11 C-0.505 12.98 -0.505 12.98 0 15 C2.31 15.33 4.62 15.66 7 16 C7.495 17.485 7.495 17.485 8 19 C-6.19 19 -20.38 19 -35 19 C-35 18.34 -35 17.68 -35 17 C-32.98177083 16.609375 -30.96354167 16.21875 -28.9453125 15.828125 C-26.80226553 15.17466257 -26.80226553 15.17466257 -26.07421875 12.9609375 C-25.54248047 11.99027344 -25.54248047 11.99027344 -25 11 C-22.57421875 10.4609375 -22.57421875 10.4609375 -19.6875 10.375 C-15.62480179 10.23089338 -12.74021253 9.56625315 -9 8 C-8.01 8 -7.02 8 -6 8 C-5.71125 7.360625 -5.4225 6.72125 -5.125 6.0625 C-4 4 -4 4 -2 3 C-1.34 2.01 -0.68 1.02 0 0 Z " fill="#B1CFFE" transform="translate(86,102)"/>
<path d="M0 0 C1.98 0 3.96 0 6 0 C6 12.54 6 25.08 6 38 C-2.25 38 -10.5 38 -19 38 C-19.29296875 28.0390625 -19.29296875 28.0390625 -19 25 C-18.01 24.34 -17.02 23.68 -16 23 C-15.67 24.32 -15.34 25.64 -15 27 C-9.39 27.33 -3.78 27.66 2 28 C2 22.06 2 16.12 2 10 C-0.97 10 -3.94 10 -7 10 C-6.67 8.68 -6.34 7.36 -6 6 C-4.67532254 5.3162955 -3.34136367 4.65035814 -2 4 C-0.73195434 1.9664052 -0.73195434 1.9664052 0 0 Z " fill="#707EFE" transform="translate(121,86)"/>
<path d="M0 0 C2.97 0.33 5.94 0.66 9 1 C9 2.98 9 4.96 9 7 C13.33927969 8.83695434 13.33927969 8.83695434 17.875 8.125 C18.926875 7.568125 18.926875 7.568125 20 7 C23 12.75 23 12.75 23 15 C20.89611431 15.05402274 18.79183286 15.09280256 16.6875 15.125 C14.92986328 15.15980469 14.92986328 15.15980469 13.13671875 15.1953125 C10 15 10 15 7 13 C3.12661246 12.57744863 0.88401391 12.43332442 -2.4375 14.5625 C-4.55418511 17.86452877 -4.35028204 20.14689752 -4 24 C-3.67 24.99 -3.34 25.98 -3 27 C-7.29 27 -11.58 27 -16 27 C-16 26.34 -16 25.68 -16 25 C-15.34 24.566875 -14.68 24.13375 -14 23.6875 C-11.77068002 22.15980408 -11.77068002 22.15980408 -11.5 19.5625 C-12.13723312 16.29668024 -13.49855724 15.11059233 -16 13 C-14.35 10.69 -12.7 8.38 -11 6 C-10.113125 6.37125 -9.22625 6.7425 -8.3125 7.125 C-4.59173995 8.10784228 -3.32561865 7.76062164 0 6 C0 4.02 0 2.04 0 0 Z " fill="#E9EBF2" transform="translate(99,18)"/>
<path d="M0 0 C2.95857409 -0.05379226 5.91617721 -0.09357093 8.875 -0.125 C9.71675781 -0.14175781 10.55851562 -0.15851562 11.42578125 -0.17578125 C12.23144531 -0.18222656 13.03710938 -0.18867187 13.8671875 -0.1953125 C14.98262939 -0.21102295 14.98262939 -0.21102295 16.12060547 -0.22705078 C18 0 18 0 20 2 C19.66666667 3.33333333 19.33333333 4.66666667 19 6 C19.66 6.66 20.32 7.32 21 8 C21.22705078 10.61376953 21.22705078 10.61376953 21.1953125 13.8828125 C21.18886719 15.04941406 21.18242188 16.21601562 21.17578125 17.41796875 C21.15902344 18.64128906 21.14226562 19.86460938 21.125 21.125 C21.11597656 22.35605469 21.10695313 23.58710937 21.09765625 24.85546875 C21.07402548 27.90383815 21.04108054 30.95182382 21 34 C23.31 34 25.62 34 28 34 C28.33 34.99 28.66 35.98 29 37 C20.19039858 38.30512614 11.80960142 38.30512614 3 37 C3.33 36.01 3.66 35.02 4 34 C8.29 34 12.58 34 17 34 C17 27.4 17 20.8 17 14 C13.7 14 10.4 14 7 14 C7 11.03 7 8.06 7 5 C4.69 5 2.38 5 0 5 C0 3.35 0 1.7 0 0 Z " fill="#39C6D6" transform="translate(98,49)"/>
<path d="M0 0 C1.58206422 0.00574487 3.16410406 0.01876032 4.74609375 0.03515625 C7.53046875 0.05578125 10.31484375 0.07640625 13.18359375 0.09765625 C13.18359375 6.03765625 13.18359375 11.97765625 13.18359375 18.09765625 C10.39921875 18.11828125 7.61484375 18.13890625 4.74609375 18.16015625 C3.86767822 18.16926025 2.9892627 18.17836426 2.08422852 18.18774414 C0.11713401 18.19488716 -1.84994246 18.14797518 -3.81640625 18.09765625 C-5.63756628 16.27649622 -4.94875705 13.79093861 -4.953125 11.37109375 C-4.94925781 10.62085937 -4.94539063 9.870625 -4.94140625 9.09765625 C-4.94527344 8.34742187 -4.94914062 7.5971875 -4.953125 6.82421875 C-4.94103514 0.12643386 -4.94103514 0.12643386 0 0 Z " fill="#DCF4F7" transform="translate(109.81640625,95.90234375)"/>
<path d="M0 0 C0.99 0 1.98 0 3 0 C3 7.59 3 15.18 3 23 C19.83 23 36.66 23 54 23 C54 23.33 54 23.66 54 24 C44.76 24.33 35.52 24.66 26 25 C26 25.66 26 26.32 26 27 C35.57 27.33 45.14 27.66 55 28 C55 28.33 55 28.66 55 29 C47.48863592 29.05057965 39.97731551 29.08568257 32.46582031 29.10986328 C29.90883747 29.11994038 27.35186621 29.13360226 24.79492188 29.15087891 C21.12627308 29.17505217 17.45777621 29.18646585 13.7890625 29.1953125 C12.0655809 29.21079636 12.0655809 29.21079636 10.30728149 29.22659302 C9.2463327 29.22674408 8.18538391 29.22689514 7.09228516 29.22705078 C6.15518707 29.231492 5.21808899 29.23593323 4.25259399 29.24050903 C2 29 2 29 0 27 C-0.22705078 24.29443359 -0.22705078 24.29443359 -0.1953125 20.8984375 C-0.18886719 19.68671875 -0.18242188 18.475 -0.17578125 17.2265625 C-0.15902344 15.95554687 -0.14226563 14.68453125 -0.125 13.375 C-0.11146484 11.456875 -0.11146484 11.456875 -0.09765625 9.5 C-0.07402303 6.33314833 -0.04107629 3.16666576 0 0 Z " fill="#3AA5D5" transform="translate(41,49)"/>
<path d="M0 0 C4.44105716 1.35950729 8.0639346 3.33922152 11.0625 6.9375 C12.2702558 10.56076739 11.60561128 11.57896369 10.0625 14.9375 C7.5875 14.4425 7.5875 14.4425 5.0625 13.9375 C4.815 14.55625 4.5675 15.175 4.3125 15.8125 C2.85621361 18.28818687 1.68437494 18.88875002 -0.9375 19.9375 C-1.9275 18.6175 -2.9175 17.2975 -3.9375 15.9375 C-3.2775 15.9375 -2.6175 15.9375 -1.9375 15.9375 C-2.5975 14.6175 -3.2575 13.2975 -3.9375 11.9375 C-9.8775 11.6075 -15.8175 11.2775 -21.9375 10.9375 C-21.9375 10.2775 -21.9375 9.6175 -21.9375 8.9375 C-18.9675 8.9375 -15.9975 8.9375 -12.9375 8.9375 C-12.2775 7.6175 -11.6175 6.2975 -10.9375 4.9375 C-9.60953709 4.58337656 -8.27533393 4.25228446 -6.9375 3.9375 C-6.31875 3.23625 -5.7 2.535 -5.0625 1.8125 C-2.9375 -0.0625 -2.9375 -0.0625 0 0 Z " fill="#33D7CD" transform="translate(119.9375,38.0625)"/>
<path d="M0 0 C5.61 0 11.22 0 17 0 C17 4.62 17 9.24 17 14 C11.39 14 5.78 14 0 14 C0 9.38 0 4.76 0 0 Z " fill="#3E4A97" transform="translate(15,34)"/>
<path d="M0 0 C0.8971875 -0.01611328 1.794375 -0.03222656 2.71875 -0.04882812 C3.57984375 -0.04947266 4.4409375 -0.05011719 5.328125 -0.05078125 C6.10575195 -0.05376221 6.88337891 -0.05674316 7.68457031 -0.05981445 C10.2369411 0.40027603 11.12271237 1.34787161 12.75 3.3125 C11.76 3.3125 10.77 3.3125 9.75 3.3125 C10.32344937 6.17974686 10.6114515 7.1739515 12.75 9.3125 C11.76 9.3125 10.77 9.3125 9.75 9.3125 C10.32344937 12.17974686 10.6114515 13.1739515 12.75 15.3125 C11.76 15.3125 10.77 15.3125 9.75 15.3125 C9.42 16.9625 9.09 18.6125 8.75 20.3125 C3.26730931 21.46914737 -2.05339274 21.42666255 -7.625 21.375 C-8.55183594 21.37048828 -9.47867187 21.36597656 -10.43359375 21.36132812 C-12.70579709 21.34961574 -14.97786388 21.33321372 -17.25 21.3125 C-17.25 20.9825 -17.25 20.6525 -17.25 20.3125 C-15.27 20.3125 -13.29 20.3125 -11.25 20.3125 C-11.25 18.6625 -11.25 17.0125 -11.25 15.3125 C-13.23 15.3125 -15.21 15.3125 -17.25 15.3125 C-17.25 14.9825 -17.25 14.6525 -17.25 14.3125 C-15.6 13.9825 -13.95 13.6525 -12.25 13.3125 C-11.92 11.9925 -11.59 10.6725 -11.25 9.3125 C-13.23 9.3125 -15.21 9.3125 -17.25 9.3125 C-17.25 8.9825 -17.25 8.6525 -17.25 8.3125 C-15.6 7.9825 -13.95 7.6525 -12.25 7.3125 C-11.92 5.9925 -11.59 4.6725 -11.25 3.3125 C-13.23 3.3125 -15.21 3.3125 -17.25 3.3125 C-17.25 2.9825 -17.25 2.6525 -17.25 2.3125 C-11.41745684 0.31254326 -6.14184246 -0.02244825 0 0 Z M-9.25 2.3125 C-9.25 6.9325 -9.25 11.5525 -9.25 16.3125 C-3.64 16.3125 1.97 16.3125 7.75 16.3125 C7.75 11.6925 7.75 7.0725 7.75 2.3125 C2.14 2.3125 -3.47 2.3125 -9.25 2.3125 Z " fill="#67D6DF" transform="translate(24.25,31.6875)"/>
<path d="M0 0 C13.53 0 27.06 0 41 0 C41 1.65 41 3.3 41 5 C27.47 5 13.94 5 0 5 C0 3.35 0 1.7 0 0 Z " fill="#3C3D89" transform="translate(60,97)"/>
<path d="M0 0 C1.98 0 3.96 0 6 0 C6.66 1.65 7.32 3.3 8 5 C7.34 5 6.68 5 6 5 C6.66 7.64 7.32 10.28 8 13 C5.66785852 14.20628008 3.50357861 15.1654738 1 16 C0.67 16.99 0.34 17.98 0 19 C-1.98 19 -3.96 19 -6 19 C-6.66 17.68 -7.32 16.36 -8 15 C-9.32 15.33 -10.64 15.66 -12 16 C-13.87598995 12.13766774 -13.97771536 10.12813154 -13 6 C-13.33 5.01 -13.66 4.02 -14 3 C-11.36 3 -8.72 3 -6 3 C-6.20625 4.11375 -6.4125 5.2275 -6.625 6.375 C-6.74875 7.57125 -6.8725 8.7675 -7 10 C-5.10244856 12.34973818 -5.10244856 12.34973818 -1.875 12.125 C-0.451875 12.063125 -0.451875 12.063125 1 12 C1.29562367 6.67829506 1.29562367 6.67829506 -1 2 C-0.67 1.34 -0.34 0.68 0 0 Z " fill="#EAEBF2" transform="translate(135,60)"/>
<path d="M0 0 C2.64 0 5.28 0 8 0 C8 6.93 8 13.86 8 21 C1.07 21 -5.86 21 -13 21 C-13 20.01 -13 19.02 -13 18 C-11.02 18 -9.04 18 -7 18 C-7 17.01 -7 16.02 -7 15 C-6.01 15 -5.02 15 -4 15 C-4 15.66 -4 16.32 -4 17 C-3.01 17 -2.02 17 -1 17 C-1 16.34 -1 15.68 -1 15 C0.32 14.67 1.64 14.34 3 14 C3 11.69 3 9.38 3 7 C2.01 6.67 1.02 6.34 0 6 C0 4.02 0 2.04 0 0 Z " fill="#35D8C4" transform="translate(26,59)"/>
<path d="M0 0 C2.12438339 -0.08078641 4.2496323 -0.13909141 6.375 -0.1875 C7.55835937 -0.22230469 8.74171875 -0.25710937 9.9609375 -0.29296875 C11.46527344 -0.14794922 11.46527344 -0.14794922 13 0 C13.66 0.99 14.32 1.98 15 3 C14.34 3 13.68 3 13 3 C13.33 3.66 13.66 4.32 14 5 C20.27 5.33 26.54 5.66 33 6 C33 6.66 33 7.32 33 8 C18.81 8 4.62 8 -10 8 C-10 7.34 -10 6.68 -10 6 C-7.98177083 5.609375 -5.96354167 5.21875 -3.9453125 4.828125 C-1.80995329 4.14287884 -1.80995329 4.14287884 -0.7421875 1.921875 C-0.49726562 1.28765625 -0.25234375 0.6534375 0 0 Z " fill="#A2C5FE" transform="translate(61,113)"/>
<path d="M0 0 C0.33 0 0.66 0 1 0 C1.02684312 2.81256281 1.04676188 5.62487241 1.0625 8.4375 C1.07087891 9.23994141 1.07925781 10.04238281 1.08789062 10.86914062 C1.0965143 12.91295221 1.0522815 14.95683902 1 17 C0 18 0 18 -3.59765625 18.09765625 C-5.08596867 18.0909822 -6.57426432 18.07902183 -8.0625 18.0625 C-8.82111328 18.05798828 -9.57972656 18.05347656 -10.36132812 18.04882812 C-12.24091871 18.0370068 -14.12046899 18.01907078 -16 18 C-15.3125 13.2734375 -15.3125 13.2734375 -12.5 10.8125 C-11.675 10.214375 -10.85 9.61625 -10 9 C-9.67 8.34 -9.34 7.68 -9 7 C-7.68 7 -6.36 7 -5 7 C-3.3553326 4.53673288 -3.3553326 4.53673288 -2 2 C-1.34 2 -0.68 2 0 2 C0 1.34 0 0.68 0 0 Z " fill="#35DCC5" transform="translate(134,45)"/>
<path d="M0 0 C1.32 0 2.64 0 4 0 C4 6.6 4 13.2 4 20 C6.31 20 8.62 20 11 20 C11.33 20.99 11.66 21.98 12 23 C3.19039858 24.30512614 -5.19039858 24.30512614 -14 23 C-13.505 21.515 -13.505 21.515 -13 20 C-8.71 20 -4.42 20 0 20 C0 13.4 0 6.8 0 0 Z " fill="#4C4CA1" transform="translate(115,63)"/>
<path d="M0 0 C0.74507812 0.00451172 1.49015625 0.00902344 2.2578125 0.01367188 C4.0885764 0.02540754 5.91929873 0.0433415 7.75 0.0625 C7.75 0.7225 7.75 1.3825 7.75 2.0625 C6.2890625 3.140625 6.2890625 3.140625 4.375 4.3125 C0.80231333 6.73037886 -0.34930379 8.75917366 -1.25 13.0625 C-5.125 11.3125 -5.125 11.3125 -6.25 9.0625 C-8.37576782 8.59598793 -8.37576782 8.59598793 -10.8125 8.4375 C-11.63878906 8.36273438 -12.46507812 8.28796875 -13.31640625 8.2109375 C-13.95449219 8.16195312 -14.59257813 8.11296875 -15.25 8.0625 C-15.25 5.0625 -15.25 5.0625 -14.25 3.0625 C-13.59 3.0625 -12.93 3.0625 -12.25 3.0625 C-12.25 2.4025 -12.25 1.7425 -12.25 1.0625 C-8.15996141 -0.08732602 -4.21822949 -0.04844256 0 0 Z " fill="#6763FF" transform="translate(65.25,77.9375)"/>
<path d="M0 0 C-1.32 1.32 -2.64 2.64 -4 4 C-3.34 4.33 -2.68 4.66 -2 5 C-2 5.66 -2 6.32 -2 7 C-0.68 7.66 0.64 8.32 2 9 C0.71937515 10.7074998 -0.61767557 12.37373596 -2 14 C-2.66 14 -3.32 14 -4 14 C-4 13.01 -4 12.02 -4 11 C-5.98491642 11.26676204 -5.98491642 11.26676204 -8 12 C-8.33 12.99 -8.66 13.98 -9 15 C-9.66 15 -10.32 15 -11 15 C-11 13.68 -11 12.36 -11 11 C-11.99 11 -12.98 11 -14 11 C-14.33 11.99 -14.66 12.98 -15 14 C-16.32 12.35 -17.64 10.7 -19 9 C-17.25 7 -17.25 7 -15 5 C-13.68 5 -12.36 5 -11 5 C-10.67 4.01 -10.34 3.02 -10 2 C-6.58442859 0.19733731 -3.83134499 -0.218934 0 0 Z " fill="#40B3DF" transform="translate(55,86)"/>
<path d="M0 0 C1.98 0 3.96 0 6 0 C6.33 0.66 6.66 1.32 7 2 C12.61 2.33 18.22 2.66 24 3 C23.67 4.32 23.34 5.64 23 7 C21.906875 6.835 20.81375 6.67 19.6875 6.5 C16.12474127 5.93281816 16.12474127 5.93281816 13 6 C13.66 7.65 14.32 9.3 15 11 C12.87506859 11.02693575 10.75004088 11.04636628 8.625 11.0625 C7.44164062 11.07410156 6.25828125 11.08570312 5.0390625 11.09765625 C2 11 2 11 0 10 C0 6.7 0 3.4 0 0 Z " fill="#C5DCFE" transform="translate(27,102)"/>
<path d="M0 0 C1.31871094 -0.01224609 2.63742188 -0.02449219 3.99609375 -0.03710938 C5.90068359 -0.04000977 5.90068359 -0.04000977 7.84375 -0.04296875 C9.00068359 -0.04707764 10.15761719 -0.05118652 11.34960938 -0.05541992 C14.47736509 0.18575467 16.680892 0.85423629 19.5 2.1875 C18.5 4.1875 18.5 4.1875 16.84521484 4.80200195 C11.99200924 5.59975457 7.04404055 5.37340312 2.13769531 5.37280273 C0.13863013 5.37498512 -1.86039532 5.39349143 -3.859375 5.41210938 C-5.13039063 5.41404297 -6.40140625 5.41597656 -7.7109375 5.41796875 C-8.86899902 5.42207764 -10.02706055 5.42618652 -11.22021484 5.43041992 C-14.61310954 5.17912245 -17.33332989 4.39923908 -20.5 3.1875 C-20.17 2.5275 -19.84 1.8675 -19.5 1.1875 C-13.23640183 -0.60566158 -6.45139424 0.00315317 0 0 Z " fill="#EAEBF2" transform="translate(114.5,125.8125)"/>
<path d="M0 0 C1.58206422 0.00574487 3.16410406 0.01876032 4.74609375 0.03515625 C7.53046875 0.05578125 10.31484375 0.07640625 13.18359375 0.09765625 C13.18359375 6.03765625 13.18359375 11.97765625 13.18359375 18.09765625 C10.39921875 18.11828125 7.61484375 18.13890625 4.74609375 18.16015625 C3.86767822 18.16926025 2.9892627 18.17836426 2.08422852 18.18774414 C0.11713401 18.19488716 -1.84994246 18.14797518 -3.81640625 18.09765625 C-5.63756628 16.27649622 -4.94875705 13.79093861 -4.953125 11.37109375 C-4.94925781 10.62085937 -4.94539063 9.870625 -4.94140625 9.09765625 C-4.94527344 8.34742187 -4.94914062 7.5971875 -4.953125 6.82421875 C-4.94103514 0.12643386 -4.94103514 0.12643386 0 0 Z M-1.25390625 3.72265625 C-3.31432396 6.85449117 -3.49316075 8.41310398 -2.81640625 12.09765625 C-0.89973958 15.18098958 -0.89973958 15.18098958 2.18359375 17.09765625 C5.82766512 17.4342577 5.82766512 17.4342577 9.18359375 16.09765625 C11.36085175 13.5692276 12.06293497 11.80437195 12.62109375 8.53515625 C12.33249541 5.98181768 12.33249541 5.98181768 10.62109375 3.78515625 C6.55002135 0.96672151 2.8612359 0.97922815 -1.25390625 3.72265625 Z " fill="#47BEF2" transform="translate(109.81640625,95.90234375)"/>
<path d="M0 0 C0 5.61 0 11.22 0 17 C0.99 17 1.98 17 3 17 C3 18.65 3 20.3 3 22 C0.69 22 -1.62 22 -4 22 C-4 15.73 -4 9.46 -4 3 C-10.27 3 -16.54 3 -23 3 C-23 2.34 -23 1.68 -23 1 C-19.91675903 0.83159521 -16.83339379 0.66558138 -13.75 0.5 C-12.87730469 0.45230469 -12.00460938 0.40460938 -11.10546875 0.35546875 C-10.26113281 0.31035156 -9.41679687 0.26523438 -8.546875 0.21875 C-7.38430176 0.1559082 -7.38430176 0.1559082 -6.19824219 0.09179688 C-4.13373418 0.00558463 -2.0663073 0 0 0 Z " fill="#6F72AA" transform="translate(30,80)"/>
<path d="M0 0 C18.15 0 36.3 0 55 0 C55.495 1.98 55.495 1.98 56 4 C55.01 4 54.02 4 53 4 C53 3.34 53 2.68 53 2 C36.17 2 19.34 2 2 2 C2 2.66 2 3.32 2 4 C1.01 4 0.02 4 -1 4 C-0.67 2.68 -0.34 1.36 0 0 Z " fill="#34D1D4" transform="translate(42,45)"/>
<path d="M0 0 C0.99 0 1.98 0 3 0 C3 0.66 3 1.32 3 2 C4.65 2.33 6.3 2.66 8 3 C8 5.31 8 7.62 8 10 C6.35 10.33 4.7 10.66 3 11 C3 11.66 3 12.32 3 13 C2.01 13 1.02 13 0 13 C0 12.34 0 11.68 0 11 C-1.65 10.67 -3.3 10.34 -5 10 C-5 7.69 -5 5.38 -5 3 C-4.360625 2.87625 -3.72125 2.7525 -3.0625 2.625 C-2.0415625 2.315625 -2.0415625 2.315625 -1 2 C-0.67 1.34 -0.34 0.68 0 0 Z " fill="#F0FAFB" transform="translate(22,63)"/>
<path d="M0 0 C4.48363255 1.37254058 7.98093698 3.3693744 11.0625 6.9375 C11.0625 7.2675 11.0625 7.5975 11.0625 7.9375 C3.4725 7.9375 -4.1175 7.9375 -11.9375 7.9375 C-11.6075 6.9475 -11.2775 5.9575 -10.9375 4.9375 C-10.339375 4.793125 -9.74125 4.64875 -9.125 4.5 C-6.7291207 4.1021438 -6.7291207 4.1021438 -5.0625 1.8125 C-2.9375 -0.0625 -2.9375 -0.0625 0 0 Z " fill="#F5FCFD" transform="translate(119.9375,38.0625)"/>
<path d="M0 0 C1.4370809 -0.05422947 2.87475462 -0.09289723 4.3125 -0.125 C5.11300781 -0.14820312 5.91351563 -0.17140625 6.73828125 -0.1953125 C9 0 9 0 12 2 C12.29296875 4.3828125 12.29296875 4.3828125 12.1875 7.125 C12.16042969 8.03507812 12.13335937 8.94515625 12.10546875 9.8828125 C12.07066406 10.58148438 12.03585938 11.28015625 12 12 C9.36 12 6.72 12 4 12 C3.67 11.34 3.34 10.68 3 10 C3.33 9.34 3.66 8.68 4 8 C4.66 8 5.32 8 6 8 C6 7.34 6 6.68 6 6 C4.35 6 2.7 6 1 6 C0.67 4.02 0.34 2.04 0 0 Z " fill="#778EFE" transform="translate(103,70)"/>
<path d="M0 0 C2.31 0 4.62 0 7 0 C7.2493357 1.60115576 7.47378648 3.20620159 7.6875 4.8125 C7.81511719 5.70582031 7.94273438 6.59914063 8.07421875 7.51953125 C8 10 8 10 6.58203125 11.69140625 C6.05996094 12.12324219 5.53789063 12.55507812 5 13 C4.67 13.70125 4.34 14.4025 4 15.125 C3 17 3 17 0 18 C0 12.06 0 6.12 0 0 Z " fill="#6C75FE" transform="translate(98,54)"/>
<path d="M0 0 C1.05960938 0.2475 1.05960938 0.2475 2.140625 0.5 C5.08916292 1.01559133 7.76141659 1.06461802 10.75 1 C12.49959978 0.96257541 14.25063026 0.95303705 16 1 C17 2 17 2 17 7 C11.39 7 5.78 7 0 7 C0 4.69 0 2.38 0 0 Z " fill="#3E57A1" transform="translate(15,41)"/>
<path d="M0 0 C5.94 0 11.88 0 18 0 C18.66 1.32 19.32 2.64 20 4 C17.29283758 4.90238747 15.76223232 5.11851302 12.98828125 5.09765625 C11.85229492 5.09282227 11.85229492 5.09282227 10.69335938 5.08789062 C9.90767578 5.07951172 9.12199219 5.07113281 8.3125 5.0625 C7.51521484 5.05798828 6.71792969 5.05347656 5.89648438 5.04882812 C3.93095743 5.0370585 1.96546915 5.01912348 0 5 C0 3.35 0 1.7 0 0 Z " fill="#34ADC5" transform="translate(98,49)"/>
<path d="M0 0 C1.48831242 0.00667405 2.97660807 0.01863442 4.46484375 0.03515625 C5.22345703 0.03966797 5.98207031 0.04417969 6.76367188 0.04882812 C8.64326246 0.06064945 10.52281274 0.07858547 12.40234375 0.09765625 C11.41234375 0.75765625 10.42234375 1.41765625 9.40234375 2.09765625 C8.94859375 2.59265625 8.49484375 3.08765625 8.02734375 3.59765625 C6.40234375 5.09765625 6.40234375 5.09765625 3.83984375 6.03515625 C1.2536268 6.88694786 1.2536268 6.88694786 0.08984375 9.22265625 C-0.13703125 9.84140625 -0.36390625 10.46015625 -0.59765625 11.09765625 C-1.91765625 11.09765625 -3.23765625 11.09765625 -4.59765625 11.09765625 C-4.62453776 9.45191059 -4.64399748 7.80604212 -4.66015625 6.16015625 C-4.67175781 5.24363281 -4.68335938 4.32710938 -4.6953125 3.3828125 C-4.53349483 -0.403721 -3.94500857 0.10708492 0 0 Z " fill="#43A7E5" transform="translate(37.59765625,85.90234375)"/>
<path d="M0 0 C1.98 0 3.96 0 6 0 C6.36622304 6.46994034 6.36622304 6.46994034 4.8125 8.71875 C2.37282766 10.44334597 0.76872728 10.30267769 -2.1875 10.1875 C-3.08855469 10.16042969 -3.98960938 10.13335937 -4.91796875 10.10546875 C-5.60503906 10.07066406 -6.29210937 10.03585938 -7 10 C-6.62109375 8.0625 -6.62109375 8.0625 -6 6 C-4.67532254 5.3162955 -3.34136367 4.65035814 -2 4 C-0.73195434 1.9664052 -0.73195434 1.9664052 0 0 Z " fill="#655BFE" transform="translate(121,86)"/>
<path d="M0 0 C5.45454545 0.45454545 5.45454545 0.45454545 8 3 C8.33015665 6.10347254 8.50531294 8.15781176 6.875 10.875 C4.21965017 12.4682099 2.03210482 12.20214032 -1 12 C-1 11.34 -1 10.68 -1 10 C-0.0409375 9.5978125 -0.0409375 9.5978125 0.9375 9.1875 C3.33131686 8.11332248 3.33131686 8.11332248 4 5 C3.401875 5.350625 2.80375 5.70125 2.1875 6.0625 C0 7 0 7 -3 6 C-2.42655063 3.13275314 -2.1385485 2.1385485 0 0 Z " fill="#46CFE5" transform="translate(112,99)"/>
<path d="M0 0 C7.59 0 15.18 0 23 0 C23 0.66 23 1.32 23 2 C18.02988327 3.99118241 13.87666865 4.24845695 8.625 4.125 C7.52091797 4.11146484 7.52091797 4.11146484 6.39453125 4.09765625 C4.5962112 4.07430144 2.79806089 4.03843836 1 4 C0.67 2.68 0.34 1.36 0 0 Z " fill="#38D5CA" transform="translate(66,73)"/>
<path d="M0 0 C1.32 0 2.64 0 4 0 C4 6.6 4 13.2 4 20 C2.68 19.67 1.36 19.34 0 19 C0 12.73 0 6.46 0 0 Z " fill="#3E3E8B" transform="translate(115,63)"/>
<path d="M0 0 C6.27 0.33 12.54 0.66 19 1 C19 2.32 19 3.64 19 5 C12.5510809 6.31909709 6.51244208 5.69508823 0 5 C0 3.35 0 1.7 0 0 Z " fill="#3DD4D0" transform="translate(14,47)"/>
<path d="M0 0 C2.00720923 0.28674418 4.0085944 0.61866701 6 1 C6 1.66 6 2.32 6 3 C7.32 3.66 8.64 4.32 10 5 C8.71937515 6.7074998 7.38232443 8.37373596 6 10 C5.34 10 4.68 10 4 10 C4 9.01 4 8.02 4 7 C2.01508358 7.26676204 2.01508358 7.26676204 0 8 C-0.33 8.99 -0.66 9.98 -1 11 C-1.66 11 -2.32 11 -3 11 C-2.69217504 9.35328588 -2.37860766 7.70764424 -2.0625 6.0625 C-1.88847656 5.14597656 -1.71445312 4.22945313 -1.53515625 3.28515625 C-1 1 -1 1 0 0 Z " fill="#51CADB" transform="translate(47,90)"/>
<path d="M0 0 C0.33 0.99 0.66 1.98 1 3 C10.57 3.33 20.14 3.66 30 4 C30 4.33 30 4.66 30 5 C25.80485403 5.02507213 21.60974994 5.04303239 17.41455078 5.05493164 C15.99299356 5.05990212 14.57144128 5.06668084 13.14990234 5.07543945 C4.38565643 5.12801256 -4.27266264 4.92025062 -13 4 C-12.67 3.01 -12.34 2.02 -12 1 C-8.32433144 -0.61729417 -3.92760325 -0.06546005 0 0 Z " fill="#3DBFD8" transform="translate(66,73)"/>
<path d="M0 0 C8.58 0 17.16 0 26 0 C25.67 0.99 25.34 1.98 25 3 C17.08 3 9.16 3 1 3 C0.67 2.01 0.34 1.02 0 0 Z " fill="#4C4CA0" transform="translate(101,124)"/>
<path d="M0 0 C6.27 0 12.54 0 19 0 C19 2.31 19 4.62 19 7 C18.67 6.34 18.34 5.68 18 5 C14.04 5 10.08 5 6 5 C6 4.01 6 3.02 6 2 C3.03 1.505 3.03 1.505 0 1 C0 0.67 0 0.34 0 0 Z " fill="#66D3E2" transform="translate(7,58)"/>
<path d="M0 0 C0 5.94 0 11.88 0 18 C-5.61 18 -11.22 18 -17 18 C-17 17.34 -17 16.68 -17 16 C-16.31292969 16.01160156 -15.62585938 16.02320312 -14.91796875 16.03515625 C-13.56638672 16.04869141 -13.56638672 16.04869141 -12.1875 16.0625 C-10.84751953 16.07990234 -10.84751953 16.07990234 -9.48046875 16.09765625 C-6.86586209 16.11009967 -6.86586209 16.11009967 -4 15 C-1.98260705 12.02699986 -1.54483486 9.55028808 -2 6 C-3.43750191 4.31201173 -3.43750191 4.31201173 -5 3 C-5 2.34 -5 1.68 -5 1 C-3 0 -3 0 0 0 Z " fill="#39DACD" transform="translate(123,96)"/>
<path d="M0 0 C2.31 0 4.62 0 7 0 C7 1.65 7 3.3 7 5 C3.37 5 -0.26 5 -4 5 C-4 6.65 -4 8.3 -4 10 C-5.32 10 -6.64 10 -8 10 C-8 8.02 -8 6.04 -8 4 C-6.865625 3.71125 -5.73125 3.4225 -4.5625 3.125 C-3.386875 2.75375 -2.21125 2.3825 -1 2 C-0.67 1.34 -0.34 0.68 0 0 Z " fill="#3D3F8A" transform="translate(34,49)"/>
<path d="M0 0 C1.67542976 0.28604898 3.34385343 0.61781233 5 1 C5.95020028 3.99678551 6.46463605 6.06886936 5.0234375 8.95703125 C3.76294928 10.76667955 2.56254586 12.44206342 1 14 C0.34 14 -0.32 14 -1 14 C-1.02685938 11.85423363 -1.04633088 9.70837355 -1.0625 7.5625 C-1.07410156 6.36753906 -1.08570312 5.17257813 -1.09765625 3.94140625 C-1 1 -1 1 0 0 Z " fill="#34C7DF" transform="translate(106,33)"/>
<path d="M0 0 C0.1875 3.375 0.1875 3.375 0 7 C-0.99 7.66 -1.98 8.32 -3 9 C-5 7.625 -5 7.625 -7 6 C-7 5.34 -7 4.68 -7 4 C-7.99 3.67 -8.98 3.34 -10 3 C-7.00991906 -1.48512141 -4.87831759 -1.18661779 0 0 Z " fill="#3FC1D8" transform="translate(60,87)"/>
<path d="M0 0 C2.475 0.495 2.475 0.495 5 1 C5.13489391 3.26921536 5.23193995 5.5407067 5.3125 7.8125 C5.37050781 9.07707031 5.42851563 10.34164062 5.48828125 11.64453125 C5.32714844 12.75183594 5.16601562 13.85914062 5 15 C2.525 16.485 2.525 16.485 0 18 C0 13.71 0 9.42 0 5 C0.66 4.67 1.32 4.34 2 4 C1.34 2.68 0.68 1.36 0 0 Z " fill="#5D41FF" transform="translate(36,62)"/>
<path d="M0 0 C2.64 0 5.28 0 8 0 C8 2.64 8 5.28 8 8 C6.35 8.66 4.7 9.32 3 10 C3 9.01 3 8.02 3 7 C2.01 6.67 1.02 6.34 0 6 C0 4.02 0 2.04 0 0 Z " fill="#3DB9DB" transform="translate(26,59)"/>
<path d="M0 0 C0.66 0 1.32 0 2 0 C2.02721176 1.89575251 2.04649136 3.79161979 2.0625 5.6875 C2.07410156 6.74324219 2.08570313 7.79898438 2.09765625 8.88671875 C2 12 2 12 1 17 C4.96 17 8.92 17 13 17 C13 17.33 13 17.66 13 18 C6.73 18 0.46 18 -6 18 C-6 17.67 -6 17.34 -6 17 C-4.02 17 -2.04 17 0 17 C0 15.35 0 13.7 0 12 C-1.98 12 -3.96 12 -6 12 C-6 11.67 -6 11.34 -6 11 C-4.35 10.67 -2.7 10.34 -1 10 C-0.67 8.68 -0.34 7.36 0 6 C-1.98 6 -3.96 6 -6 6 C-6 5.67 -6 5.34 -6 5 C-4.35 4.67 -2.7 4.34 -1 4 C-0.67 2.68 -0.34 1.36 0 0 Z " fill="#9BDCEA" transform="translate(13,35)"/>
<path d="M0 0 C4.29 0 8.58 0 13 0 C9.66666667 3.33333333 6.33333333 6.66666667 3 10 C2.01 9.67 1.02 9.34 0 9 C0.185625 8.2575 0.37125 7.515 0.5625 6.75 C1.22052711 3.77159084 1.22052711 3.77159084 0 0 Z " fill="#72D5E4" transform="translate(110,33)"/>
<path d="M0 0 C1.24716797 0.00322266 2.49433594 0.00644531 3.77929688 0.00976562 C5.07287109 0.01814453 6.36644531 0.02652344 7.69921875 0.03515625 C9.66858398 0.04192383 9.66858398 0.04192383 11.67773438 0.04882812 C14.91410885 0.06059676 18.15039053 0.07703865 21.38671875 0.09765625 C21.05671875 0.75765625 20.72671875 1.41765625 20.38671875 2.09765625 C19.73074707 2.11747559 19.07477539 2.13729492 18.39892578 2.15771484 C15.43610806 2.25278132 12.47401343 2.36253377 9.51171875 2.47265625 C7.96291016 2.5190625 7.96291016 2.5190625 6.3828125 2.56640625 C4.90361328 2.62441406 4.90361328 2.62441406 3.39453125 2.68359375 C2.4833252 2.71501465 1.57211914 2.74643555 0.63330078 2.77880859 C-1.81259311 2.89648136 -1.81259311 2.89648136 -3.61328125 5.09765625 C-6.34197532 5.06478042 -8.90994305 4.53367854 -11.61328125 4.09765625 C-11.61328125 3.10765625 -11.61328125 2.11765625 -11.61328125 1.09765625 C-7.68039761 0.16677716 -4.03673962 -0.0184326 0 0 Z " fill="#D9D9E8" transform="translate(106.61328125,125.90234375)"/>
<path d="M0 0 C7.92 0.33 15.84 0.66 24 1 C24 1.33 24 1.66 24 2 C23.00097656 2.06058594 22.00195312 2.12117188 20.97265625 2.18359375 C19.68230469 2.26738281 18.39195313 2.35117187 17.0625 2.4375 C15.77472656 2.51871094 14.48695312 2.59992187 13.16015625 2.68359375 C10.13976043 2.64919188 10.13976043 2.64919188 9 4 C7.65732587 4.08631874 6.31025678 4.10706473 4.96484375 4.09765625 C4.15595703 4.09443359 3.34707031 4.09121094 2.51367188 4.08789062 C1.66353516 4.07951172 0.81339844 4.07113281 -0.0625 4.0625 C-0.91650391 4.05798828 -1.77050781 4.05347656 -2.65039062 4.04882812 C-4.76695663 4.03700373 -6.88348685 4.01906769 -9 4 C-9 3.34 -9 2.68 -9 2 C-6.03 2 -3.06 2 0 2 C0 1.34 0 0.68 0 0 Z " fill="#8DD9E4" transform="translate(107,45)"/>
<path d="M0 0 C0.33 0 0.66 0 1 0 C1.09765625 6.15234375 1.09765625 6.15234375 1 8 C0 9 0 9 -3.16015625 9.09765625 C-5.09181641 9.08025391 -5.09181641 9.08025391 -7.0625 9.0625 C-8.35285156 9.05347656 -9.64320312 9.04445313 -10.97265625 9.03515625 C-11.97167969 9.02355469 -12.97070312 9.01195313 -14 9 C-10.25 7 -10.25 7 -8 7 C-8 6.34 -8 5.68 -8 5 C-6.02 5 -4.04 5 -2 5 C-1.855625 4.360625 -1.71125 3.72125 -1.5625 3.0625 C-1 1 -1 1 0 0 Z " fill="#36DFC3" transform="translate(97,68)"/>
<path d="M0 0 C-2.52956528 3.0916909 -5.22454612 3.90931332 -9 5 C-8.34 5.66 -7.68 6.32 -7 7 C-8.98 7.66 -10.96 8.32 -13 9 C-13 6.03 -13 3.06 -13 0 C-11.39679026 -0.19551338 -9.79237014 -0.38111983 -8.1875 -0.5625 C-7.29417969 -0.66691406 -6.40085937 -0.77132812 -5.48046875 -0.87890625 C-3 -1 -3 -1 0 0 Z " fill="#3FBCDC" transform="translate(118,54)"/>
<path d="M0 0 C0.66 0 1.32 0 2 0 C2 3.96 2 7.92 2 12 C-0.31 12 -2.62 12 -5 12 C-4.34 11.34 -3.68 10.68 -3 10 C-3.185625 9.360625 -3.37125 8.72125 -3.5625 8.0625 C-3.7790625 7.0415625 -3.7790625 7.0415625 -4 6 C-2.625 4.4375 -2.625 4.4375 -1 3 C-0.67 2.01 -0.34 1.02 0 0 Z " fill="#7894FE" transform="translate(125,112)"/>
<path d="M0 0 C2.375 -0.125 2.375 -0.125 5 0 C5.66 0.66 6.32 1.32 7 2 C7.33 1.34 7.66 0.68 8 0 C8.99 0 9.98 0 11 0 C10.67 1.65 10.34 3.3 10 5 C6.7 5 3.4 5 0 5 C0 3.35 0 1.7 0 0 Z " fill="#35ACC6" transform="translate(33,97)"/>
<path d="M0 0 C0.99 0 1.98 0 3 0 C3 0.66 3 1.32 3 2 C3.99 2 4.98 2 6 2 C6.33 1.34 6.66 0.68 7 0 C7 0.99 7 1.98 7 3 C6.34 3 5.68 3 5 3 C4.67 3.99 4.34 4.98 4 6 C0.7 6 -2.6 6 -6 6 C-6 5.01 -6 4.02 -6 3 C-4.02 3 -2.04 3 0 3 C0 2.01 0 1.02 0 0 Z " fill="#3ED4D4" transform="translate(19,74)"/>
<path d="M0 0 C0.99 0.33 1.98 0.66 3 1 C3 5.95 3 10.9 3 16 C2.01 16 1.02 16 0 16 C0 10.72 0 5.44 0 0 Z " fill="#5E4BFE" transform="translate(30,81)"/>
<path d="M0 0 C0 3.96 0 7.92 0 12 C-1.32 12 -2.64 12 -4 12 C-4.08131463 10.56344146 -4.13933559 9.1255517 -4.1875 7.6875 C-4.22230469 6.88699219 -4.25710937 6.08648437 -4.29296875 5.26171875 C-3.98428663 2.87869278 -2.85980321 0 0 0 Z " fill="#6C73FE" transform="translate(127,93)"/>
<path d="M0 0 C1.134375 0.020625 2.26875 0.04125 3.4375 0.0625 C2.4375 3.0625 2.4375 3.0625 -0.5625 5.0625 C-0.8925 6.0525 -1.2225 7.0425 -1.5625 8.0625 C-2.5525 8.3925 -3.5425 8.7225 -4.5625 9.0625 C-4.66015625 2.91015625 -4.66015625 2.91015625 -4.5625 1.0625 C-3.5625 0.0625 -3.5625 0.0625 0 0 Z " fill="#4397EA" transform="translate(37.5625,85.9375)"/>
<path d="M0 0 C2.60444348 -0.05394705 5.20776998 -0.09364469 7.8125 -0.125 C8.55048828 -0.14175781 9.28847656 -0.15851562 10.04882812 -0.17578125 C13.91246426 -0.21074628 15.70903668 -0.19397555 19 2 C13.39 2 7.78 2 2 2 C2 2.66 2 3.32 2 4 C1.01 4 0.02 4 -1 4 C-0.67 2.68 -0.34 1.36 0 0 Z " fill="#31C5DE" transform="translate(42,45)"/>
<path d="M0 0 C4.29 0 8.58 0 13 0 C13 0.99 13 1.98 13 3 C9.04 3 5.08 3 1 3 C0.67 2.01 0.34 1.02 0 0 Z " fill="#4DD4D6" transform="translate(33,102)"/>
<path d="M0 0 C3.63 0 7.26 0 11 0 C10.34 1.32 9.68 2.64 9 4 C6.36 4 3.72 4 1 4 C0.67 2.68 0.34 1.36 0 0 Z " fill="#38CAD0" transform="translate(66,73)"/>
<path d="M0 0 C0.66 0 1.32 0 2 0 C2.04254356 1.99954746 2.04080783 4.00041636 2 6 C1 7 1 7 -1.06640625 7.09765625 C-1.89011719 7.08605469 -2.71382812 7.07445313 -3.5625 7.0625 C-4.38878906 7.05347656 -5.21507812 7.04445313 -6.06640625 7.03515625 C-6.70449219 7.02355469 -7.34257813 7.01195313 -8 7 C-5.63707344 4.47411298 -4.33537489 3.11179163 -1 2 C-0.67 1.34 -0.34 0.68 0 0 Z " fill="#35DEC2" transform="translate(58,98)"/>
<path d="M0 0 C2.97 0 5.94 0 9 0 C9.33 0.66 9.66 1.32 10 2 C8.35 2 6.7 2 5 2 C4.67 2.66 4.34 3.32 4 4 C7.96 4 11.92 4 16 4 C16 4.33 16 4.66 16 5 C13.89611431 5.05402274 11.79183286 5.09280256 9.6875 5.125 C7.92986328 5.15980469 7.92986328 5.15980469 6.13671875 5.1953125 C3 5 3 5 0 3 C0 2.01 0 1.02 0 0 Z " fill="#3FB1DF" transform="translate(49,73)"/>
<path d="M0 0 C1.485 0.99 1.485 0.99 3 2 C3.3984375 4.3125 3.3984375 4.3125 3.375 7 C3.38273437 7.886875 3.39046875 8.77375 3.3984375 9.6875 C3.26695313 10.450625 3.13546875 11.21375 3 12 C2.01 12.66 1.02 13.32 0 14 C0 9.38 0 4.76 0 0 Z " fill="#5F4EFE" transform="translate(102,97)"/>
<path d="M0 0 C0.66 0 1.32 0 2 0 C2.12375 0.61875 2.2475 1.2375 2.375 1.875 C2.87197356 4.19120832 2.87197356 4.19120832 5 6 C4.01 6 3.02 6 2 6 C2.57344937 8.86724686 2.8614515 9.8614515 5 12 C4.01 12 3.02 12 2 12 C1.67 12.66 1.34 13.32 1 14 C0 13 0 13 -0.09765625 10.05859375 C-0.08605469 8.86363281 -0.07445313 7.66867188 -0.0625 6.4375 C-0.05347656 5.23996094 -0.04445313 4.04242188 -0.03515625 2.80859375 C-0.02355469 1.88175781 -0.01195313 0.95492187 0 0 Z " fill="#58DDD1" transform="translate(32,35)"/>
<path d="M0 0 C0.99 0 1.98 0 3 0 C3.08121924 1.60332791 3.13929134 3.20784026 3.1875 4.8125 C3.23970703 6.15248047 3.23970703 6.15248047 3.29296875 7.51953125 C3 10 3 10 0 13 C0 8.71 0 4.42 0 0 Z " fill="#3B95D8" transform="translate(41,49)"/>
<path d="M0 0 C0.99 0 1.98 0 3 0 C3 1.65 3 3.3 3 5 C3.99 5.33 4.98 5.66 6 6 C5.01 6.99 4.02 7.98 3 9 C-0.875 7.25 -0.875 7.25 -2 5 C-1.34 5 -0.68 5 0 5 C0 3.35 0 1.7 0 0 Z " fill="#E6F8F9" transform="translate(118,49)"/>
<path d="M0 0 C2.31 0 4.62 0 7 0 C7 1.65 7 3.3 7 5 C4.69 5 2.38 5 0 5 C0 3.35 0 1.7 0 0 Z " fill="#3C3E8A" transform="translate(98,49)"/>
<path d="M0 0 C1.07765625 0.10183594 2.1553125 0.20367187 3.265625 0.30859375 C4.08546875 0.39238281 4.9053125 0.47617188 5.75 0.5625 C5.75 1.2225 5.75 1.8825 5.75 2.5625 C0.47 2.5625 -4.81 2.5625 -10.25 2.5625 C-10.25 1.9025 -10.25 1.2425 -10.25 0.5625 C-6.70049966 -0.60056443 -3.69176052 -0.36115049 0 0 Z " fill="#99C0FE" transform="translate(68.25,118.4375)"/>
<path d="M0 0 C4.62 0 9.24 0 14 0 C14.33 1.32 14.66 2.64 15 4 C14.01 4 13.02 4 12 4 C12 3.34 12 2.68 12 2 C8.37 2 4.74 2 1 2 C0.67 1.34 0.34 0.68 0 0 Z " fill="#58DAD4" transform="translate(83,45)"/>
<path d="M0 0 C0.6875 1.8125 0.6875 1.8125 1 4 C-0.0625 5.75 -0.0625 5.75 -2 7 C-5.1875 7.1875 -5.1875 7.1875 -8 7 C-8 6.34 -8 5.68 -8 5 C-7.360625 4.71125 -6.72125 4.4225 -6.0625 4.125 C-3.84793921 3.17176549 -3.84793921 3.17176549 -3 1 C-2.01 0.67 -1.02 0.34 0 0 Z " fill="#3DD9D6" transform="translate(119,104)"/>
<path d="M0 0 C0.33 0.66 0.66 1.32 1 2 C4.62528568 2.20140476 6.86501708 1.85776765 10 0 C6.55384615 5.78461538 6.55384615 5.78461538 3.75 6.875 C3.1725 6.91625 2.595 6.9575 2 7 C0 4 0 4 0 0 Z " fill="#94E2ED" transform="translate(108,103)"/>
<path d="M0 0 C0.02694851 1.95825873 0.04637218 3.91662226 0.0625 5.875 C0.07410156 6.96554688 0.08570312 8.05609375 0.09765625 9.1796875 C0 12 0 12 -1 14 C-1.66 13.67 -2.32 13.34 -3 13 C-2.6596875 11.3603125 -2.6596875 11.3603125 -2.3125 9.6875 C-1.5841746 6.09907033 -1.5841746 6.09907033 -3.4375 4.1875 C-3.953125 3.795625 -4.46875 3.40375 -5 3 C-5 2.34 -5 1.68 -5 1 C-3 0 -3 0 0 0 Z " fill="#41D1DD" transform="translate(123,96)"/>
<path d="M0 0 C4.95 0 9.9 0 15 0 C14.67 0.99 14.34 1.98 14 3 C7.07 2.505 7.07 2.505 0 2 C0 1.34 0 0.68 0 0 Z " fill="#98DCE8" transform="translate(7,63)"/>
<path d="M0 0 C1.67542976 0.28604898 3.34385343 0.61781233 5 1 C4.67 2.32 4.34 3.64 4 5 C2.68 5.33 1.36 5.66 0 6 C-0.38218767 4.34385343 -0.71395102 2.67542976 -1 1 C-0.67 0.67 -0.34 0.34 0 0 Z " fill="#51CFDD" transform="translate(22,67)"/>
<path d="M0 0 C0.125 2.875 0.125 2.875 0 6 C-0.66 6.66 -1.32 7.32 -2 8 C-4.125 7.625 -4.125 7.625 -6 7 C-5.75 4.625 -5.75 4.625 -5 2 C-1.95238095 0 -1.95238095 0 0 0 Z " fill="#3CCDCE" transform="translate(34,67)"/>
<path d="M0 0 C3.3 0 6.6 0 10 0 C9.01 0.495 9.01 0.495 8 1 C7.67 1.99 7.34 2.98 7 4 C7 3.01 7 2.02 7 1 C6.34 1 5.68 1 5 1 C5 2.65 5 4.3 5 6 C5.99 6.33 6.98 6.66 8 7 C6.68 7 5.36 7 4 7 C4 5.35 4 3.7 4 2 C3.01 2 2.02 2 1 2 C0.67 2.66 0.34 3.32 0 4 C0 2.68 0 1.36 0 0 Z " fill="#53D6D7" transform="translate(117,47)"/>
<path d="M0 0 C1.32 0 2.64 0 4 0 C4 1.65 4 3.3 4 5 C1.36 5 -1.28 5 -4 5 C-3.67 4.34 -3.34 3.68 -3 3 C-2.34 3.33 -1.68 3.66 -1 4 C-0.67 2.68 -0.34 1.36 0 0 Z " fill="#3CC4C7" transform="translate(47,97)"/>
<path d="M0 0 C0.66 0.33 1.32 0.66 2 1 C2 1.99 2 2.98 2 4 C-1.96 4 -5.92 4 -10 4 C-10 3.34 -10 2.68 -10 2 C-6.7 2 -3.4 2 0 2 C0 1.34 0 0.68 0 0 Z " fill="#95DCE6" transform="translate(17,73)"/>
<path d="M0 0 C1.98 0.99 1.98 0.99 4 2 C4 3.65 4 5.3 4 7 C2.68 7.33 1.36 7.66 0 8 C0 5.36 0 2.72 0 0 Z " fill="#34C3C5" transform="translate(115,55)"/>
<path d="M0 0 C0.99 0 1.98 0 3 0 C3.1875 2.375 3.1875 2.375 3 5 C2.01 5.66 1.02 6.32 0 7 C-0.99 5.68 -1.98 4.36 -3 3 C-2.34 3 -1.68 3 -1 3 C-0.67 2.01 -0.34 1.02 0 0 Z " fill="#38CBD1" transform="translate(57,89)"/>
<path d="M0 0 C0.4125 0.45375 0.825 0.9075 1.25 1.375 C3.06408095 3.05950374 4.75285627 3.99265971 7 5 C6.67 5.66 6.34 6.32 6 7 C5.01 7 4.02 7 3 7 C3 6.34 3 5.68 3 5 C1.35 4.67 -0.3 4.34 -2 4 C-2 3.34 -2 2.68 -2 2 C-1.34 2 -0.68 2 0 2 C0 1.34 0 0.68 0 0 Z " fill="#F9FDFD" transform="translate(19,69)"/>
<path d="M0 0 C1.32 0 2.64 0 4 0 C4 1.98 4 3.96 4 6 C2.68 6 1.36 6 0 6 C0 4.02 0 2.04 0 0 Z " fill="#34AEC5" transform="translate(26,59)"/>
<path d="M0 0 C0.33 0 0.66 0 1 0 C1 1.98 1 3.96 1 6 C1.66 6.33 2.32 6.66 3 7 C1.35 7.33 -0.3 7.66 -2 8 C-2.125 5.125 -2.125 5.125 -2 2 C-1.34 1.34 -0.68 0.68 0 0 Z " fill="#6762FF" transform="translate(104,109)"/>
<path d="M0 0 C1.33333333 2.66666667 2.66666667 5.33333333 4 8 C2.35 8.33 0.7 8.66 -1 9 C-1.09765625 2.84765625 -1.09765625 2.84765625 -1 1 C-0.67 0.67 -0.34 0.34 0 0 Z " fill="#41CBE8" transform="translate(106,104)"/>
<path d="M0 0 C0.66 0 1.32 0 2 0 C0.515 5.445 0.515 5.445 -1 11 C-1.66 11 -2.32 11 -3 11 C-2.69217504 9.35328588 -2.37860766 7.70764424 -2.0625 6.0625 C-1.88847656 5.14597656 -1.71445312 4.22945313 -1.53515625 3.28515625 C-1 1 -1 1 0 0 Z " fill="#DEF4F8" transform="translate(47,90)"/>
<path d="M0 0 C1.21346851 3.64040554 1.21346851 5.35959446 0 9 C-1.32 7.35 -2.64 5.7 -4 4 C-2.68 2.68 -1.36 1.36 0 0 Z " fill="#E4F5F9" transform="translate(40,91)"/>
<path d="M0 0 C2.33944736 0.28730055 4.6739143 0.61936779 7 1 C6.01 1.66 5.02 2.32 4 3 C3.01 4.485 3.01 4.485 2 6 C1.34 6 0.68 6 0 6 C-0.38218767 4.34385343 -0.71395102 2.67542976 -1 1 C-0.67 0.67 -0.34 0.34 0 0 Z " fill="#DDF3F8" transform="translate(18,65)"/>
<path d="M0 0 C0.33 0 0.66 0 1 0 C1 2.64 1 5.28 1 8 C0.01 8.33 -0.98 8.66 -2 9 C-2.25 3.375 -2.25 3.375 0 0 Z " fill="#409AE9" transform="translate(43,59)"/>
<path d="M0 0 C1.32 0.33 2.64 0.66 4 1 C3.67 1.99 3.34 2.98 3 4 C1.02 4 -0.96 4 -3 4 C-3.33 3.34 -3.66 2.68 -4 2 C-2.68 2 -1.36 2 0 2 C0 1.34 0 0.68 0 0 Z " fill="#34CEC3" transform="translate(30,48)"/>
<path d="M0 0 C1.65 0.99 3.3 1.98 5 3 C3.625 5 3.625 5 2 7 C1.34 7 0.68 7 0 7 C0.2784375 6.1028125 0.2784375 6.1028125 0.5625 5.1875 C1.22093687 2.83591238 1.22093687 2.83591238 0 0 Z " fill="#E4F7F9" transform="translate(52,92)"/>
<path d="M0 0 C2.31 0 4.62 0 7 0 C6.0409375 0.433125 6.0409375 0.433125 5.0625 0.875 C2.84793921 1.82823451 2.84793921 1.82823451 2 4 C1.01 4 0.02 4 -1 4 C-0.67 2.68 -0.34 1.36 0 0 Z " fill="#46ADF5" transform="translate(106,96)"/>
</svg>
