<?xml version="1.0" encoding="UTF-8"?>
<svg version="1.1" xmlns="http://www.w3.org/2000/svg" width="150" height="150">
<path d="M0 0 C2.97 0.99 5.94 1.98 9 3 C8.9071875 4.3921875 8.9071875 4.3921875 8.8125 5.8125 C8.74760199 8.90747504 8.74760199 8.90747504 10.125 10.875 C12.78034983 12.4682099 14.96789518 12.20214032 18 12 C18 12.99 18 13.98 18 15 C18.85464844 14.98839844 19.70929688 14.97679687 20.58984375 14.96484375 C21.69457031 14.95582031 22.79929687 14.94679688 23.9375 14.9375 C25.03964844 14.92589844 26.14179688 14.91429687 27.27734375 14.90234375 C30 15 30 15 31 16 C31.15806531 17.92478813 31.251135 19.8549921 31.31640625 21.78515625 C31.35830078 22.95498047 31.40019531 24.12480469 31.44335938 25.33007812 C31.48267578 26.56177734 31.52199219 27.79347656 31.5625 29.0625 C31.60568359 30.29806641 31.64886719 31.53363281 31.69335938 32.80664062 C31.79984198 35.87097335 31.90185424 38.93539073 32 42 C33.65 42 35.3 42 37 42 C38.125 43.625 38.125 43.625 39 46 C38.125 49.25 38.125 49.25 37 52 C37.66 52 38.32 52 39 52 C38.875 53.875 38.875 53.875 38 56 C36.01276732 56.70381157 34.01222047 57.3711811 32 58 C31.67 58.99 31.34 59.98 31 61 C29.35 61 27.7 61 26 61 C26 60.01 26 59.02 26 58 C23.69 58 21.38 58 19 58 C18.01 55.525 18.01 55.525 17 53 C17.99 52.01 17.99 52.01 19 51 C18.01 48.03 18.01 48.03 17 45 C16.34 45 15.68 45 15 45 C15 51.6 15 58.2 15 65 C17.31 65 19.62 65 22 65 C23 66 23 66 23.11352539 69.96899414 C23.1133662 71.74105607 23.10766785 73.5131226 23.09765625 75.28515625 C23.0962413 76.21597519 23.09482635 77.14679413 23.09336853 78.1058197 C23.08775172 81.09141191 23.0751964 84.07693029 23.0625 87.0625 C23.05748716 89.08137913 23.05292388 91.10025943 23.04882812 93.11914062 C23.03777683 98.07945572 23.02050095 103.03971532 23 108 C25.31 108.66 27.62 109.32 30 110 C29 112 29 112 27.34521484 112.61450195 C22.49200924 113.41225457 17.54404055 113.18590312 12.63769531 113.18530273 C10.63863013 113.18748512 8.63960468 113.20599143 6.640625 113.22460938 C5.36960937 113.22654297 4.09859375 113.22847656 2.7890625 113.23046875 C1.63100098 113.23457764 0.47293945 113.23868652 -0.72021484 113.24291992 C-4.11310954 112.99162245 -6.83332989 112.21173908 -10 111 C-9.67 110.34 -9.34 109.68 -9 109 C-6.4375 108.375 -6.4375 108.375 -4 108 C-4.67857056 107.99191315 -5.35714111 107.98382629 -6.05627441 107.97549438 C-13.19572947 107.88863335 -20.33493245 107.7891071 -27.47412109 107.68261719 C-30.12938188 107.64363425 -32.7845665 107.60971702 -35.43994141 107.578125 C-73.93926359 107.11445232 -73.93926359 107.11445232 -81 103 C-80.505 102.01 -80.505 102.01 -80 101 C-78.66666667 100.66666667 -77.33333333 100.33333333 -76 100 C-75.67 99.34 -75.34 98.68 -75 98 C-79.2787981 98.41586354 -79.2787981 98.41586354 -82.875 100.5625 C-83.24625 101.036875 -83.6175 101.51125 -84 102 C-86.5 100.875 -86.5 100.875 -89 99 C-89.3125 95.8125 -89.3125 95.8125 -89 93 C-90.98 92.34 -92.96 91.68 -95 91 C-95 88.36 -95 85.72 -95 83 C-93.35 83 -91.7 83 -90 83 C-89.92572162 79.65747276 -89.93453047 77.1964086 -91 74 C-88.6875 72.4375 -88.6875 72.4375 -86 71 C-85.01 71.33 -84.02 71.66 -83 72 C-83 72.66 -83 73.32 -83 74 C-81.35 74 -79.7 74 -78 74 C-78 70.04 -78 66.08 -78 62 C-82.29 62 -86.58 62 -91 62 C-91.02683436 58.68744674 -91.0467578 55.37510817 -91.0625 52.0625 C-91.07087891 51.11697266 -91.07925781 50.17144531 -91.08789062 49.19726562 C-91.09111328 48.29814453 -91.09433594 47.39902344 -91.09765625 46.47265625 C-91.10289307 45.64000244 -91.10812988 44.80734863 -91.11352539 43.94946289 C-91 42 -91 42 -90 41 C-87.98035801 40.92755947 -85.95832876 40.91622812 -83.9375 40.9375 C-82.28041016 40.95103516 -82.28041016 40.95103516 -80.58984375 40.96484375 C-79.73519531 40.97644531 -78.88054687 40.98804688 -78 41 C-78.020625 39.88625 -78.04125 38.7725 -78.0625 37.625 C-78 34 -78 34 -77 32 C-78.39025391 32.01740234 -78.39025391 32.01740234 -79.80859375 32.03515625 C-81.00613281 32.04417969 -82.20367187 32.05320313 -83.4375 32.0625 C-84.63246094 32.07410156 -85.82742187 32.08570313 -87.05859375 32.09765625 C-90 32 -90 32 -91 31 C-91.09981214 28.3226862 -91.13879875 25.67695825 -91.125 23 C-91.12886719 22.24976562 -91.13273437 21.49953125 -91.13671875 20.7265625 C-91.12661053 15.12661053 -91.12661053 15.12661053 -90 14 C-88.5112814 13.91330568 -87.018555 13.89296506 -85.52734375 13.90234375 C-84.62822266 13.90556641 -83.72910156 13.90878906 -82.80273438 13.91210938 C-81.85720703 13.92048828 -80.91167969 13.92886719 -79.9375 13.9375 C-78.98810547 13.94201172 -78.03871094 13.94652344 -77.06054688 13.95117188 C-74.70700469 13.96299872 -72.35349468 13.98093479 -70 14 C-70 19.61 -70 25.22 -70 31 C-67.69 31 -65.38 31 -63 31 C-62.67 29.68 -62.34 28.36 -62 27 C-48.47 27 -34.94 27 -21 27 C-21.495 23.535 -21.495 23.535 -22 20 C-20.02 19.67 -18.04 19.34 -16 19 C-15.75571657 13.2025577 -15.75571657 13.2025577 -18 8 C-16.02 6.35 -14.04 4.7 -12 3 C-11.46375 3.515625 -10.9275 4.03125 -10.375 4.5625 C-8.01711938 6.2696889 -8.01711938 6.2696889 -4.875 6 C-1.78209069 5.28780614 -1.78209069 5.28780614 -0.625 2.4375 C-0.41875 1.633125 -0.2125 0.82875 0 0 Z M-8 14 C-10.2084626 17.31269391 -10.80664241 19.14978851 -10.5546875 23.0625 C-9.4812192 26.81207941 -7.28696911 28.01541488 -4 30 C-1.36163023 30.1672392 -1.36163023 30.1672392 1 30 C1.03738281 29.01257813 1.07476562 28.02515625 1.11328125 27.0078125 C1.17902344 25.72648437 1.24476562 24.44515625 1.3125 23.125 C1.37050781 21.84882812 1.42851563 20.57265625 1.48828125 19.2578125 C1.65714844 18.18273437 1.82601562 17.10765625 2 16 C2.99 15.34 3.98 14.68 5 14 C3.01607489 11.60148679 3.01607489 11.60148679 -0.8125 11.5625 C-4.17733329 11.66669338 -5.04370031 12.02913354 -8 14 Z M23 47 C22.6366844 49.83386167 22.6431329 51.40522151 24.125 53.875 C26.92151052 55.55290631 28.93690532 54.74875648 32 54 C32.67673447 50.59679066 32.67673447 50.59679066 33 47 C31.11499729 44.68436913 31.11499729 44.68436913 28 44.75 C24.88500271 44.68436913 24.88500271 44.68436913 23 47 Z M-84.25 80.625 C-86.21985834 82.92308586 -86.21985834 82.92308586 -86.5 86 C-86.21376982 89.06575838 -86.21376982 89.06575838 -84.3125 91.375 C-81.61209763 93.27258004 -80.22939919 93.35882213 -77 93 C-76.85024761 85.94348748 -76.85024761 85.94348748 -78 79 C-81.92212225 78.60967296 -81.92212225 78.60967296 -84.25 80.625 Z M-68 95 C-68.66 96.65 -69.32 98.3 -70 100 C-57.13 99.01 -57.13 99.01 -44 98 C-43.67 97.01 -43.34 96.02 -43 95 C-51.25 95 -59.5 95 -68 95 Z M-19 95 C-19 95.99 -19 96.98 -19 98 C-13.72 98.33 -8.44 98.66 -3 99 C-3 97.68 -3 96.36 -3 95 C-8.28 95 -13.56 95 -19 95 Z " fill="#6A73FD" transform="translate(104,18)"/>
<path d="M0 0 C0.83265381 0.00523682 1.66530762 0.01047363 2.52319336 0.01586914 C3.42231445 0.0190918 4.32143555 0.02231445 5.24780273 0.02563477 C6.66609375 0.03820312 6.66609375 0.03820312 8.11303711 0.05102539 C9.06243164 0.05553711 10.01182617 0.06004883 10.98999023 0.06469727 C13.34353242 0.07652411 15.69704243 0.09446018 18.05053711 0.11352539 C18.05053711 5.72352539 18.05053711 11.33352539 18.05053711 17.11352539 C21.35053711 17.11352539 24.65053711 17.11352539 28.05053711 17.11352539 C28.05053711 16.45352539 28.05053711 15.79352539 28.05053711 15.11352539 C44.88053711 15.11352539 61.71053711 15.11352539 79.05053711 15.11352539 C79.05053711 23.36352539 79.05053711 31.61352539 79.05053711 40.11352539 C68.65553711 40.60852539 68.65553711 40.60852539 58.05053711 41.11352539 C58.05053711 41.44352539 58.05053711 41.77352539 58.05053711 42.11352539 C57.09687256 42.09781494 56.14320801 42.08210449 55.16064453 42.06591797 C51.62166798 42.01160861 48.08272825 41.97717206 44.54345703 41.94873047 C43.01181849 41.93364603 41.48022313 41.91317561 39.94873047 41.88720703 C37.74688057 41.85080692 35.54560178 41.83379626 33.34350586 41.82055664 C32.31679024 41.79733086 32.31679024 41.79733086 31.26933289 41.77363586 C27.46982662 41.70987179 27.46982662 41.70987179 24.34472656 43.63183594 C23.91764404 44.12079346 23.49056152 44.60975098 23.05053711 45.11352539 C21.73053711 45.11352539 20.41053711 45.11352539 19.05053711 45.11352539 C18.72053711 39.17352539 18.39053711 33.23352539 18.05053711 27.11352539 C15.41053711 27.11352539 12.77053711 27.11352539 10.05053711 27.11352539 C9.92553711 20.36352539 9.92553711 20.36352539 11.05053711 18.11352539 C9.6602832 18.13092773 9.6602832 18.13092773 8.24194336 18.14868164 C7.0444043 18.15770508 5.84686523 18.16672852 4.61303711 18.17602539 C3.41807617 18.18762695 2.22311523 18.19922852 0.99194336 18.21118164 C-1.94946289 18.11352539 -1.94946289 18.11352539 -2.94946289 17.11352539 C-3.04927503 14.43621159 -3.08826164 11.79048365 -3.07446289 9.11352539 C-3.07833008 8.36329102 -3.08219727 7.61305664 -3.08618164 6.84008789 C-3.07415805 0.1790211 -3.07415805 0.1790211 0 0 Z " fill="#404790" transform="translate(15.949462890625,31.886474609375)"/>
<path d="M0 0 C0.99 0.33 1.98 0.66 3 1 C3 1.66 3 2.32 3 3 C4.65 3 6.3 3 8 3 C8 4.65 8 6.3 8 8 C7.030625 8.28875 6.06125 8.5775 5.0625 8.875 C1.89335797 9.64214682 1.89335797 9.64214682 1 12 C0.85624578 15.37822416 0.92463652 17.77390955 2 21 C4.31 21.33 6.62 21.66 9 22 C9 19.03 9 16.06 9 13 C10.98 13 12.96 13 15 13 C15.33 13.66 15.66 14.32 16 15 C24.25 15 32.5 15 41 15 C41.33 14.34 41.66 13.68 42 13 C55.53 13 69.06 13 83 13 C83 16.63 83 20.26 83 24 C77.72 24 72.44 24 67 24 C67 24.99 67 25.98 67 27 C67.56847656 26.98839844 68.13695313 26.97679688 68.72265625 26.96484375 C73.60670484 26.90776806 78.18503965 27.18043228 83 28 C83 30.64 83 33.28 83 36 C75.71409984 36.04682155 68.42823335 36.08211748 61.14221191 36.10362434 C57.75718789 36.11395864 54.37226851 36.12792229 50.98730469 36.15087891 C12.5625541 36.39227608 12.5625541 36.39227608 5 32 C5.33 31.34 5.66 30.68 6 30 C7.33333333 29.66666667 8.66666667 29.33333333 10 29 C10.33 28.34 10.66 27.68 11 27 C6.7212019 27.41586354 6.7212019 27.41586354 3.125 29.5625 C2.75375 30.036875 2.3825 30.51125 2 31 C-0.5 29.875 -0.5 29.875 -3 28 C-3.3125 24.8125 -3.3125 24.8125 -3 22 C-4.98 21.34 -6.96 20.68 -9 20 C-9 17.36 -9 14.72 -9 12 C-7.35 12 -5.7 12 -4 12 C-3.92572162 8.65747276 -3.93453047 6.1964086 -5 3 C-2.6875 1.4375 -2.6875 1.4375 0 0 Z M18 24 C17.34 25.65 16.68 27.3 16 29 C28.87 28.01 28.87 28.01 42 27 C42.33 26.01 42.66 25.02 43 24 C34.75 24 26.5 24 18 24 Z " fill="#B4D1FE" transform="translate(18,89)"/>
<path d="M0 0 C2.97 0.99 5.94 1.98 9 3 C8.9071875 4.3921875 8.9071875 4.3921875 8.8125 5.8125 C8.74760199 8.90747504 8.74760199 8.90747504 10.125 10.875 C12.78034983 12.4682099 14.96789518 12.20214032 18 12 C18 12.99 18 13.98 18 15 C18.85464844 14.98839844 19.70929688 14.97679687 20.58984375 14.96484375 C21.69457031 14.95582031 22.79929687 14.94679688 23.9375 14.9375 C25.03964844 14.92589844 26.14179688 14.91429687 27.27734375 14.90234375 C30 15 30 15 31 16 C31.15806531 17.92478813 31.251135 19.8549921 31.31640625 21.78515625 C31.35830078 22.95498047 31.40019531 24.12480469 31.44335938 25.33007812 C31.48267578 26.56177734 31.52199219 27.79347656 31.5625 29.0625 C31.60568359 30.29806641 31.64886719 31.53363281 31.69335938 32.80664062 C31.79984198 35.87097335 31.90185424 38.93539073 32 42 C33.65 42 35.3 42 37 42 C38.125 43.625 38.125 43.625 39 46 C38.125 49.25 38.125 49.25 37 52 C37.66 52 38.32 52 39 52 C38.875 53.875 38.875 53.875 38 56 C36.01276732 56.70381157 34.01222047 57.3711811 32 58 C31.67 58.99 31.34 59.98 31 61 C29.35 61 27.7 61 26 61 C26 60.01 26 59.02 26 58 C23.69 58 21.38 58 19 58 C18.01 55.525 18.01 55.525 17 53 C17.99 52.01 17.99 52.01 19 51 C18.22520264 48.00847418 18.22520264 48.00847418 17 45 C15.515 44.505 15.515 44.505 14 44 C14 41.69 14 39.38 14 37 C13.34 36.67 12.68 36.34 12 36 C12 34.68 12 33.36 12 32 C6.06 31.67 0.12 31.34 -6 31 C-5.98839844 32.72089844 -5.97679687 34.44179688 -5.96484375 36.21484375 C-5.95546766 38.45572809 -5.94636727 40.69661359 -5.9375 42.9375 C-5.92912109 44.07380859 -5.92074219 45.21011719 -5.91210938 46.38085938 C-5.90888672 47.46044922 -5.90566406 48.54003906 -5.90234375 49.65234375 C-5.89710693 50.65257568 -5.89187012 51.65280762 -5.88647461 52.68334961 C-6 55 -6 55 -7 56 C-8.70772358 56.08713831 -10.41898649 56.10700007 -12.12890625 56.09765625 C-13.16337891 56.09443359 -14.19785156 56.09121094 -15.26367188 56.08789062 C-16.35228516 56.07951172 -17.44089844 56.07113281 -18.5625 56.0625 C-20.2012207 56.05573242 -20.2012207 56.05573242 -21.87304688 56.04882812 C-24.58208495 56.03699826 -27.29101599 56.02051543 -30 56 C-30.33 55.34 -30.66 54.68 -31 54 C-23.74 54 -16.48 54 -9 54 C-9 45.75 -9 37.5 -9 29 C-25.83 29 -42.66 29 -60 29 C-60 29.66 -60 30.32 -60 31 C-60.99 31 -61.98 31 -63 31 C-62.67 29.68 -62.34 28.36 -62 27 C-48.47 27 -34.94 27 -21 27 C-21.495 23.535 -21.495 23.535 -22 20 C-20.02 19.67 -18.04 19.34 -16 19 C-15.75571657 13.2025577 -15.75571657 13.2025577 -18 8 C-16.02 6.35 -14.04 4.7 -12 3 C-11.46375 3.515625 -10.9275 4.03125 -10.375 4.5625 C-8.01711938 6.2696889 -8.01711938 6.2696889 -4.875 6 C-1.78209069 5.28780614 -1.78209069 5.28780614 -0.625 2.4375 C-0.41875 1.633125 -0.2125 0.82875 0 0 Z M-8 14 C-10.2084626 17.31269391 -10.80664241 19.14978851 -10.5546875 23.0625 C-9.4812192 26.81207941 -7.28696911 28.01541488 -4 30 C-1.36163023 30.1672392 -1.36163023 30.1672392 1 30 C1.03738281 29.01257813 1.07476562 28.02515625 1.11328125 27.0078125 C1.17902344 25.72648437 1.24476562 24.44515625 1.3125 23.125 C1.37050781 21.84882812 1.42851563 20.57265625 1.48828125 19.2578125 C1.65714844 18.18273437 1.82601562 17.10765625 2 16 C2.99 15.34 3.98 14.68 5 14 C3.01607489 11.60148679 3.01607489 11.60148679 -0.8125 11.5625 C-4.17733329 11.66669338 -5.04370031 12.02913354 -8 14 Z M23 47 C22.6366844 49.83386167 22.6431329 51.40522151 24.125 53.875 C26.92151052 55.55290631 28.93690532 54.74875648 32 54 C32.67673447 50.59679066 32.67673447 50.59679066 33 47 C31.11499729 44.68436913 31.11499729 44.68436913 28 44.75 C24.88500271 44.68436913 24.88500271 44.68436913 23 47 Z " fill="#33D0D4" transform="translate(104,18)"/>
<path d="M0 0 C5.94 0 11.88 0 18 0 C18.33 0.99 18.66 1.98 19 3 C18.67 3.66 18.34 4.32 18 5 C18.99 5.33 19.98 5.66 21 6 C21 15.24 21 24.48 21 34 C23.31 34 25.62 34 28 34 C29 35 29 35 29.11352539 38.78540039 C29.11336622 40.47282729 29.10766917 42.16025905 29.09765625 43.84765625 C29.0962413 44.7340831 29.09482635 45.62050995 29.09336853 46.53379822 C29.08775215 49.37673254 29.07519691 52.21958931 29.0625 55.0625 C29.05748711 56.98502491 29.05292384 58.90755104 29.04882812 60.83007812 C29.03862648 65.55343964 29.01905437 70.27663258 29 75 C20.75 75 12.5 75 4 75 C3.875 62.375 3.875 62.375 5 59 C5.66 59 6.32 59 7 59 C7.33 60.65 7.66 62.3 8 64 C13.61 64.33 19.22 64.66 25 65 C25 59.06 25 53.12 25 47 C19.39 47 13.78 47 8 47 C8.99 46.01 9.98 45.02 11 44 C11 43.34 11 42.68 11 42 C12.32 42 13.64 42 15 42 C15 41.34 15 40.68 15 40 C11.17482487 37.60926555 7.40334476 37.44033448 3 37 C3.33 36.01 3.66 35.02 4 34 C8.29 34 12.58 34 17 34 C17 27.4 17 20.8 17 14 C13.7 14 10.4 14 7 14 C7 11.03 7 8.06 7 5 C4.69 5 2.38 5 0 5 C0 3.35 0 1.7 0 0 Z " fill="#7389FE" transform="translate(98,49)"/>
<path d="M0 0 C0.83265381 0.00523682 1.66530762 0.01047363 2.52319336 0.01586914 C3.42231445 0.0190918 4.32143555 0.02231445 5.24780273 0.02563477 C6.66609375 0.03820312 6.66609375 0.03820312 8.11303711 0.05102539 C9.06243164 0.05553711 10.01182617 0.06004883 10.98999023 0.06469727 C13.34353242 0.07652411 15.69704243 0.09446018 18.05053711 0.11352539 C18.05053711 5.72352539 18.05053711 11.33352539 18.05053711 17.11352539 C21.35053711 17.11352539 24.65053711 17.11352539 28.05053711 17.11352539 C28.05053711 24.37352539 28.05053711 31.63352539 28.05053711 39.11352539 C44.88053711 39.11352539 61.71053711 39.11352539 79.05053711 39.11352539 C79.05053711 39.44352539 79.05053711 39.77352539 79.05053711 40.11352539 C68.65553711 40.60852539 68.65553711 40.60852539 58.05053711 41.11352539 C58.05053711 41.44352539 58.05053711 41.77352539 58.05053711 42.11352539 C57.09687256 42.09781494 56.14320801 42.08210449 55.16064453 42.06591797 C51.62166798 42.01160861 48.08272825 41.97717206 44.54345703 41.94873047 C43.01181849 41.93364603 41.48022313 41.91317561 39.94873047 41.88720703 C37.74688057 41.85080692 35.54560178 41.83379626 33.34350586 41.82055664 C32.31679024 41.79733086 32.31679024 41.79733086 31.26933289 41.77363586 C27.46982662 41.70987179 27.46982662 41.70987179 24.34472656 43.63183594 C23.91764404 44.12079346 23.49056152 44.60975098 23.05053711 45.11352539 C21.73053711 45.11352539 20.41053711 45.11352539 19.05053711 45.11352539 C18.72053711 39.17352539 18.39053711 33.23352539 18.05053711 27.11352539 C15.41053711 27.11352539 12.77053711 27.11352539 10.05053711 27.11352539 C9.92553711 20.36352539 9.92553711 20.36352539 11.05053711 18.11352539 C9.6602832 18.13092773 9.6602832 18.13092773 8.24194336 18.14868164 C7.0444043 18.15770508 5.84686523 18.16672852 4.61303711 18.17602539 C3.41807617 18.18762695 2.22311523 18.19922852 0.99194336 18.21118164 C-1.94946289 18.11352539 -1.94946289 18.11352539 -2.94946289 17.11352539 C-3.04927503 14.43621159 -3.08826164 11.79048365 -3.07446289 9.11352539 C-3.07833008 8.36329102 -3.08219727 7.61305664 -3.08618164 6.84008789 C-3.07415805 0.1790211 -3.07415805 0.1790211 0 0 Z " fill="#5A37FF" transform="translate(15.949462890625,31.886474609375)"/>
<path d="M0 0 C2.31 0 4.62 0 7 0 C7 2.97 7 5.94 7 9 C10.3 9 13.6 9 17 9 C17 15.6 17 22.2 17 29 C12.71 29 8.42 29 4 29 C3.67 33.62 3.34 38.24 3 43 C-4.59 43 -12.18 43 -20 43 C-20 42.01 -20 41.02 -20 40 C-20.350625 39.34 -20.70125 38.68 -21.0625 38 C-22 36 -22 36 -21 33 C-18.9375 32.3125 -18.9375 32.3125 -17 32 C-17.33 31.01 -17.66 30.02 -18 29 C-16.68 28.67 -15.36 28.34 -14 28 C-13.34 28.99 -12.68 29.98 -12 31 C-11.731875 30.360625 -11.46375 29.72125 -11.1875 29.0625 C-10 27 -10 27 -7 26 C-6.690625 25.01 -6.38125 24.02 -6.0625 23 C-5.711875 22.01 -5.36125 21.02 -5 20 C-3.68 19.67 -2.36 19.34 -1 19 C-0.67 12.73 -0.34 6.46 0 0 Z " fill="#7387FE" transform="translate(98,54)"/>
<path d="M0 0 C0.99 0.33 1.98 0.66 3 1 C3 1.66 3 2.32 3 3 C4.65 3 6.3 3 8 3 C8 4.65 8 6.3 8 8 C7.030625 8.28875 6.06125 8.5775 5.0625 8.875 C1.89335797 9.64214682 1.89335797 9.64214682 1 12 C0.85624578 15.37822416 0.92463652 17.77390955 2 21 C3.134375 21.144375 4.26875 21.28875 5.4375 21.4375 C9 22 9 22 10 23 C11.34747084 23.23075082 12.70377565 23.41153063 14.0625 23.5625 C15.361875 23.706875 16.66125 23.85125 18 24 C18 25.33333333 18 26.66666667 18 28 C25.92 27.67 33.84 27.34 42 27 C41.67 27.66 41.34 28.32 41 29 C38.35139573 29.59355614 35.70802678 29.74209269 33 30 C33 30.66 33 31.32 33 32 C47.19 32 61.38 32 76 32 C75.505 31.01 75.505 31.01 75 30 C73.845 29.835 72.69 29.67 71.5 29.5 C70.345 29.335 69.19 29.17 68 29 C67.505 28.01 67.505 28.01 67 27 C72.45769811 26.88861841 77.61509359 27.08342019 83 28 C83 30.64 83 33.28 83 36 C75.71409984 36.04682155 68.42823335 36.08211748 61.14221191 36.10362434 C57.75718789 36.11395864 54.37226851 36.12792229 50.98730469 36.15087891 C12.5625541 36.39227608 12.5625541 36.39227608 5 32 C5.33 31.34 5.66 30.68 6 30 C7.33333333 29.66666667 8.66666667 29.33333333 10 29 C10.33 28.34 10.66 27.68 11 27 C6.7212019 27.41586354 6.7212019 27.41586354 3.125 29.5625 C2.75375 30.036875 2.3825 30.51125 2 31 C-0.5 29.875 -0.5 29.875 -3 28 C-3.3125 24.8125 -3.3125 24.8125 -3 22 C-4.98 21.34 -6.96 20.68 -9 20 C-9 17.36 -9 14.72 -9 12 C-7.35 12 -5.7 12 -4 12 C-3.92572162 8.65747276 -3.93453047 6.1964086 -5 3 C-2.6875 1.4375 -2.6875 1.4375 0 0 Z " fill="#EAEBF2" transform="translate(18,89)"/>
<path d="M0 0 C9 0 9 0 13 2 C12.67 2.99 12.34 3.98 12 5 C10.68 5 9.36 5 8 5 C8.33 5.99 8.66 6.98 9 8 C8.01 8.33 7.02 8.66 6 9 C11.28 9.33 16.56 9.66 22 10 C22 15.94 22 21.88 22 28 C19.215625 28.020625 16.43125 28.04125 13.5625 28.0625 C12.68408447 28.071604 11.80566895 28.08070801 10.90063477 28.09008789 C8.93354026 28.09723091 6.96646379 28.05031893 5 28 C4 27 4 27 3.9375 24.4375 C3.958125 23.633125 3.97875 22.82875 4 22 C1.65229357 25.52155964 1.62330386 27.50771843 1.375 31.6875 C1.25125 33.770625 1.1275 35.85375 1 38 C9.25 38 17.5 38 26 38 C26 38.66 26 39.32 26 40 C28.31 40.66 30.62 41.32 33 42 C32 44 32 44 30.34521484 44.61450195 C25.49200924 45.41225457 20.54404055 45.18590312 15.63769531 45.18530273 C13.63863013 45.18748512 11.63960468 45.20599143 9.640625 45.22460938 C8.36960937 45.22654297 7.09859375 45.22847656 5.7890625 45.23046875 C4.63100098 45.23457764 3.47293945 45.23868652 2.27978516 45.24291992 C-1.11310954 44.99162245 -3.83332989 44.21173908 -7 43 C-6 41 -6 41 0 39 C0 26.13 0 13.26 0 0 Z " fill="#5C43F1" transform="translate(101,86)"/>
<path d="M0 0 C1.81242052 -0.02687279 3.62495233 -0.04633715 5.4375 -0.0625 C6.44683594 -0.07410156 7.45617187 -0.08570313 8.49609375 -0.09765625 C11 0 11 0 12 1 C12.15806531 2.92478813 12.251135 4.8549921 12.31640625 6.78515625 C12.35830078 7.95498047 12.40019531 9.12480469 12.44335938 10.33007812 C12.48267578 11.56177734 12.52199219 12.79347656 12.5625 14.0625 C12.60568359 15.29806641 12.64886719 16.53363281 12.69335938 17.80664062 C12.79984198 20.87097335 12.90185424 23.93539073 13 27 C14.65 27 16.3 27 18 27 C19.125 28.625 19.125 28.625 20 31 C19.125 34.25 19.125 34.25 18 37 C18.66 37 19.32 37 20 37 C19.875 38.875 19.875 38.875 19 41 C17.01276732 41.70381157 15.01222047 42.3711811 13 43 C12.67 43.99 12.34 44.98 12 46 C10.35 46 8.7 46 7 46 C7 45.01 7 44.02 7 43 C4.69 43 2.38 43 0 43 C-0.66 41.35 -1.32 39.7 -2 38 C-1.34 37.34 -0.68 36.68 0 36 C-0.77479736 33.00847418 -0.77479736 33.00847418 -2 30 C-2.99 29.67 -3.98 29.34 -5 29 C-4.50769231 23.46153846 -4.50769231 23.46153846 -1.9375 21.125 C-0.9784375 20.568125 -0.9784375 20.568125 0 20 C-0.33 19.67 -0.66 19.34 -1 19 C-1.04063832 17.33382885 -1.042721 15.66611905 -1 14 C1.97 14 4.94 14 8 14 C7.67 12.68 7.34 11.36 7 10 C4.00384054 8.6954344 4.00384054 8.6954344 1 8 C0.67 5.36 0.34 2.72 0 0 Z M4 32 C3.6366844 34.83386167 3.6431329 36.40522151 5.125 38.875 C7.92151052 40.55290631 9.93690532 39.74875648 13 39 C13.67673447 35.59679066 13.67673447 35.59679066 14 32 C12.11499729 29.68436913 12.11499729 29.68436913 9 29.75 C5.88500271 29.68436913 5.88500271 29.68436913 4 32 Z " fill="#35D5CF" transform="translate(123,33)"/>
<path d="M0 0 C1.12019531 -0.00128906 2.24039063 -0.00257812 3.39453125 -0.00390625 C4.57402344 -0.00003906 5.75351562 0.00382812 6.96875 0.0078125 C8.73798828 0.00201172 8.73798828 0.00201172 10.54296875 -0.00390625 C12.22326172 -0.00197266 12.22326172 -0.00197266 13.9375 0 C14.97326172 0.00112793 16.00902344 0.00225586 17.07617188 0.00341797 C19.46875 0.1328125 19.46875 0.1328125 20.46875 1.1328125 C20.56861975 3.97616298 20.60752881 6.78978413 20.59375 9.6328125 C20.59955078 10.82970703 20.59955078 10.82970703 20.60546875 12.05078125 C20.59535767 18.00620483 20.59535767 18.00620483 19.46875 19.1328125 C17.62715977 19.23240871 15.78178033 19.26361661 13.9375 19.265625 C12.81730469 19.26691406 11.69710937 19.26820312 10.54296875 19.26953125 C9.36347656 19.26566406 8.18398438 19.26179688 6.96875 19.2578125 C5.19951172 19.26361328 5.19951172 19.26361328 3.39453125 19.26953125 C1.71423828 19.26759766 1.71423828 19.26759766 0 19.265625 C-1.03576172 19.26449707 -2.07152344 19.26336914 -3.13867188 19.26220703 C-5.53125 19.1328125 -5.53125 19.1328125 -6.53125 18.1328125 C-6.63111975 15.28946202 -6.67002881 12.47584087 -6.65625 9.6328125 C-6.66011719 8.83488281 -6.66398437 8.03695312 -6.66796875 7.21484375 C-6.65573175 0.007248 -6.65573175 0.007248 0 0 Z " fill="#3FB2DF" transform="translate(39.53125,85.8671875)"/>
<path d="M0 0 C0.83265381 0.00523682 1.66530762 0.01047363 2.52319336 0.01586914 C3.42231445 0.0190918 4.32143555 0.02231445 5.24780273 0.02563477 C6.66609375 0.03820313 6.66609375 0.03820313 8.11303711 0.05102539 C9.06243164 0.05553711 10.01182617 0.06004883 10.98999023 0.06469727 C13.34356776 0.07652429 15.69702188 0.09300514 18.05053711 0.11352539 C18.07941525 3.5926748 18.09729398 7.0717937 18.11303711 10.55102539 C18.12141602 11.54424805 18.12979492 12.5374707 18.13842773 13.56079102 C18.14326172 14.97714844 18.14326172 14.97714844 18.14819336 16.42211914 C18.15604858 17.73394165 18.15604858 17.73394165 18.1640625 19.07226562 C18.05053711 21.11352539 18.05053711 21.11352539 17.05053711 22.11352539 C15.55919801 22.1301477 14.06692906 22.07671739 12.57788086 21.99243164 C11.67875977 21.9440918 10.77963867 21.89575195 9.85327148 21.84594727 C8.90774414 21.78987305 7.9622168 21.73379883 6.98803711 21.67602539 C6.03864258 21.62381836 5.08924805 21.57161133 4.11108398 21.51782227 C1.75726759 21.38771181 -0.59616988 21.25273427 -2.94946289 21.11352539 C-2.97834436 17.80104352 -2.99622088 14.48859372 -3.01196289 11.17602539 C-3.0203418 10.23049805 -3.0287207 9.2849707 -3.03735352 8.31079102 C-3.04057617 7.41166992 -3.04379883 6.51254883 -3.04711914 5.58618164 C-3.05235596 4.75352783 -3.05759277 3.92087402 -3.06298828 3.06298828 C-2.90876673 0.41468917 -2.64829911 0.15422155 0 0 Z " fill="#35C9DD" transform="translate(15.949462890625,58.886474609375)"/>
<path d="M0 0 C2.97 0.99 5.94 1.98 9 3 C8.9071875 4.3921875 8.9071875 4.3921875 8.8125 5.8125 C8.74760199 8.90747504 8.74760199 8.90747504 10.125 10.875 C12.78034983 12.4682099 14.96789518 12.20214032 18 12 C18 12.99 18 13.98 18 15 C15.87527424 15.05386629 13.75016348 15.09273071 11.625 15.125 C9.84996094 15.15980469 9.84996094 15.15980469 8.0390625 15.1953125 C5 15 5 15 3 13 C-2.54235245 12.42765564 -2.54235245 12.42765564 -7.5 14.5 C-9.71177972 18.18629954 -9.34421275 20.73176192 -9 25 C-8.67 25.66 -8.34 26.32 -8 27 C-12.29 27 -16.58 27 -21 27 C-21.33 24.69 -21.66 22.38 -22 20 C-20.02 19.67 -18.04 19.34 -16 19 C-15.75571657 13.2025577 -15.75571657 13.2025577 -18 8 C-15.03 5.525 -15.03 5.525 -12 3 C-11.46375 3.515625 -10.9275 4.03125 -10.375 4.5625 C-8.01711938 6.2696889 -8.01711938 6.2696889 -4.875 6 C-1.78209069 5.28780614 -1.78209069 5.28780614 -0.625 2.4375 C-0.315625 1.2309375 -0.315625 1.2309375 0 0 Z " fill="#E9EBF2" transform="translate(104,18)"/>
<path d="M0 0 C5.94 0 11.88 0 18 0 C18.33 0.99 18.66 1.98 19 3 C18.67 3.66 18.34 4.32 18 5 C18.99 5.33 19.98 5.66 21 6 C21 15.24 21 24.48 21 34 C23.31 34 25.62 34 28 34 C28.33 34.99 28.66 35.98 29 37 C20.19039858 38.30512614 11.80960142 38.30512614 3 37 C3.33 36.01 3.66 35.02 4 34 C8.29 34 12.58 34 17 34 C17 27.4 17 20.8 17 14 C13.7 14 10.4 14 7 14 C7 11.03 7 8.06 7 5 C4.69 5 2.38 5 0 5 C0 3.35 0 1.7 0 0 Z " fill="#39C5D7" transform="translate(98,49)"/>
<path d="M0 0 C1.98 0 3.96 0 6 0 C6.33 0.66 6.66 1.32 7 2 C15.25 2 23.5 2 32 2 C32.33 1.34 32.66 0.68 33 0 C35.64 0 38.28 0 41 0 C40.34 0.33 39.68 0.66 39 1 C39 1.99 39 2.98 39 4 C39.66 4.33 40.32 4.66 41 5 C40.195625 5.2475 39.39125 5.495 38.5625 5.75 C37.716875 6.1625 36.87125 6.575 36 7 C35.30464127 9.03028196 35.30464127 9.03028196 35 11 C30.17619198 11.0246519 25.35242033 11.04283693 20.52856445 11.05493164 C18.88630536 11.05997174 17.24405077 11.06680378 15.60180664 11.07543945 C13.24624521 11.08751926 10.89074291 11.09323139 8.53515625 11.09765625 C7.79660904 11.10281754 7.05806183 11.10797882 6.2971344 11.11329651 C4.53101912 11.1134925 2.76502854 11.06194719 1 11 C0 10 0 10 -0.09765625 7.71484375 C-0.08605469 6.79832031 -0.07445313 5.88179688 -0.0625 4.9375 C-0.05347656 4.01839844 -0.04445313 3.09929687 -0.03515625 2.15234375 C-0.02355469 1.44207031 -0.01195313 0.73179688 0 0 Z " fill="#C0D8FE" transform="translate(27,102)"/>
<path d="M0 0 C1.58206422 0.00574487 3.16410406 0.01876032 4.74609375 0.03515625 C7.53046875 0.05578125 10.31484375 0.07640625 13.18359375 0.09765625 C13.18359375 6.03765625 13.18359375 11.97765625 13.18359375 18.09765625 C10.39921875 18.11828125 7.61484375 18.13890625 4.74609375 18.16015625 C3.86767822 18.16926025 2.9892627 18.17836426 2.08422852 18.18774414 C0.11713401 18.19488716 -1.84994246 18.14797518 -3.81640625 18.09765625 C-5.63756628 16.27649622 -4.94875705 13.79093861 -4.953125 11.37109375 C-4.94925781 10.62085937 -4.94539063 9.870625 -4.94140625 9.09765625 C-4.94527344 8.34742187 -4.94914062 7.5971875 -4.953125 6.82421875 C-4.94103514 0.12643386 -4.94103514 0.12643386 0 0 Z " fill="#96E3F0" transform="translate(109.81640625,95.90234375)"/>
<path d="M0 0 C0.33 0 0.66 0 1 0 C1 5.28 1 10.56 1 16 C1.33 15.34 1.66 14.68 2 14 C3.65 14 5.3 14 7 14 C7.33 13.34 7.66 12.68 8 12 C9.48206495 12.254496 10.96068615 12.52911762 12.4375 12.8125 C13.26121094 12.96332031 14.08492187 13.11414063 14.93359375 13.26953125 C15.61550781 13.51058594 16.29742187 13.75164062 17 14 C17.33 14.99 17.66 15.98 18 17 C13.25 19.875 13.25 19.875 11 21 C11 21.99 11 22.98 11 24 C9.33657163 25.66342837 7.2174291 25.36048097 4.9375 25.5625 C2.4934375 25.7790625 2.4934375 25.7790625 0 26 C-0.33 30.95 -0.66 35.9 -1 41 C-3.31 41 -5.62 41 -8 41 C-8 34.07 -8 27.14 -8 20 C-4.535 19.505 -4.535 19.505 -1 19 C-0.67 12.73 -0.34 6.46 0 0 Z M18 14 C20 15 20 15 20 15 Z " fill="#5F50FD" transform="translate(34,61)"/>
<path d="M0 0 C0.66 0.33 1.32 0.66 2 1 C5.86061033 2.28687011 8.94150283 2.13757618 13 2 C13.02686553 3.97909398 13.04633375 5.95828971 13.0625 7.9375 C13.07410156 9.03964844 13.08570312 10.14179687 13.09765625 11.27734375 C13 14 13 14 12 15 C10.14630389 15.08737645 8.28932459 15.10698153 6.43359375 15.09765625 C5.30888672 15.09443359 4.18417969 15.09121094 3.02539062 15.08789062 C1.84138672 15.07951172 0.65738281 15.07113281 -0.5625 15.0625 C-1.75037109 15.05798828 -2.93824219 15.05347656 -4.16210938 15.04882812 C-7.10812226 15.03699675 -10.05403681 15.02051287 -13 15 C-13.33 14.01 -13.66 13.02 -14 12 C-10.7 11.67 -7.4 11.34 -4 11 C-3.79503906 10.28972656 -3.59007812 9.57945313 -3.37890625 8.84765625 C-3.10949219 7.92855469 -2.84007812 7.00945312 -2.5625 6.0625 C-2.29566406 5.14597656 -2.02882813 4.22945313 -1.75390625 3.28515625 C-1 1 -1 1 0 0 Z " fill="#38D5C5" transform="translate(47,90)"/>
<path d="M0 0 C5.61 0 11.22 0 17 0 C17 4.29 17 8.58 17 13 C11.39 13 5.78 13 0 13 C0 8.71 0 4.42 0 0 Z " fill="#3F4792" transform="translate(15,34)"/>
<path d="M0 0 C0.80179688 0.00451172 1.60359375 0.00902344 2.4296875 0.01367188 C4.41149006 0.02546832 6.39325433 0.04340395 8.375 0.0625 C8.705 1.0525 9.035 2.0425 9.375 3.0625 C7.17268833 4.85697617 5.36793314 6.06512953 2.6875 7.0625 C1.924375 7.3925 1.16125 7.7225 0.375 8.0625 C0.045 9.0525 -0.285 10.0425 -0.625 11.0625 C-6.565 11.0625 -12.505 11.0625 -18.625 11.0625 C-18.625 8.0625 -18.625 8.0625 -17.25 6.5 C-16.71375 6.025625 -16.1775 5.55125 -15.625 5.0625 C-14.965 4.4025 -14.305 3.7425 -13.625 3.0625 C-12.635 3.0625 -11.645 3.0625 -10.625 3.0625 C-10.625 2.4025 -10.625 1.7425 -10.625 1.0625 C-7.31505287 -0.59247356 -3.63377 -0.03834335 0 0 Z " fill="#655DFE" transform="translate(62.625,74.9375)"/>
<path d="M0 0 C13.53 0 27.06 0 41 0 C41 1.65 41 3.3 41 5 C27.47 5 13.94 5 0 5 C0 3.35 0 1.7 0 0 Z " fill="#3C3D89" transform="translate(60,97)"/>
<path d="M0 0 C0.33 0.66 0.66 1.32 1 2 C3.64 2 6.28 2 9 2 C9.33 2.99 9.66 3.98 10 5 C9.34 5 8.68 5 8 5 C8 5.66 8 6.32 8 7 C14.27 7 20.54 7 27 7 C27.495 8.485 27.495 8.485 28 10 C13.81 10 -0.38 10 -15 10 C-15 9.34 -15 8.68 -15 8 C-13.72125 7.7525 -12.4425 7.505 -11.125 7.25 C-7.73252682 6.48009414 -7.73252682 6.48009414 -5.5 3.875 C-5.335 3.25625 -5.17 2.6375 -5 2 C-3.35 2 -1.7 2 0 2 C0 1.34 0 0.68 0 0 Z " fill="#A3C6FE" transform="translate(66,111)"/>
<path d="M0 0 C1.98 0 3.96 0 6 0 C7.125 1.625 7.125 1.625 8 4 C7.125 7.25 7.125 7.25 6 10 C6.66 10 7.32 10 8 10 C7.875 11.875 7.875 11.875 7 14 C5.01276732 14.70381157 3.01222047 15.3711811 1 16 C0.67 16.99 0.34 17.98 0 19 C-1.65 19 -3.3 19 -5 19 C-5 18.01 -5 17.02 -5 16 C-7.31 16 -9.62 16 -12 16 C-12.66 14.35 -13.32 12.7 -14 11 C-13.34 10.34 -12.68 9.68 -12 9 C-12.66 7.02 -13.32 5.04 -14 3 C-11.36 3 -8.72 3 -6 3 C-6.20625 4.11375 -6.4125 5.2275 -6.625 6.375 C-6.74875 7.57125 -6.8725 8.7675 -7 10 C-5.10244856 12.34973818 -5.10244856 12.34973818 -1.875 12.125 C-0.451875 12.063125 -0.451875 12.063125 1 12 C1.29562367 6.67829506 1.29562367 6.67829506 -1 2 C-0.67 1.34 -0.34 0.68 0 0 Z " fill="#EAEBF2" transform="translate(135,60)"/>
<path d="M0 0 C0.99 0 1.98 0 3 0 C3 7.26 3 14.52 3 22 C19.83 22 36.66 22 54 22 C54 22.33 54 22.66 54 23 C43.605 23.495 43.605 23.495 33 24 C33 24.33 33 24.66 33 25 C28.46102295 25.02465392 23.92208457 25.04283789 19.38305664 25.05493164 C17.83780234 25.0599714 16.29255284 25.0668032 14.74731445 25.07543945 C12.53074971 25.08752076 10.31424782 25.09323173 8.09765625 25.09765625 C7.05545677 25.10539818 7.05545677 25.10539818 5.99220276 25.11329651 C4.3277067 25.11349277 2.66334501 25.06189129 1 25 C0 24 0 24 -0.11352539 21.68334961 C-0.10828857 20.68311768 -0.10305176 19.68288574 -0.09765625 18.65234375 C-0.09443359 17.57275391 -0.09121094 16.49316406 -0.08789062 15.38085938 C-0.07951172 14.24455078 -0.07113281 13.10824219 -0.0625 11.9375 C-0.05798828 10.79732422 -0.05347656 9.65714844 -0.04882812 8.48242188 C-0.03699747 5.65489649 -0.0205141 2.8274736 0 0 Z " fill="#3AABD7" transform="translate(41,49)"/>
<path d="M0 0 C4.42806394 1.35552978 8.08284709 3.33055174 11.0625 6.9375 C11.0625 7.5975 11.0625 8.2575 11.0625 8.9375 C8.0925 8.9375 5.1225 8.9375 2.0625 8.9375 C2.0625 10.5875 2.0625 12.2375 2.0625 13.9375 C2.7225 14.2675 3.3825 14.5975 4.0625 14.9375 C3.0725 15.9275 2.0825 16.9175 1.0625 17.9375 C-1.4125 16.9475 -1.4125 16.9475 -3.9375 15.9375 C-3.9375 15.2775 -3.9375 14.6175 -3.9375 13.9375 C-3.2775 13.9375 -2.6175 13.9375 -1.9375 13.9375 C-1.9375 12.2875 -1.9375 10.6375 -1.9375 8.9375 C-5.5675 8.9375 -9.1975 8.9375 -12.9375 8.9375 C-12.2775 7.6175 -11.6175 6.2975 -10.9375 4.9375 C-9.60953709 4.58337656 -8.27533393 4.25228446 -6.9375 3.9375 C-6.31875 3.23625 -5.7 2.535 -5.0625 1.8125 C-2.9375 -0.0625 -2.9375 -0.0625 0 0 Z " fill="#F6FCFD" transform="translate(119.9375,38.0625)"/>
<path d="M0 0 C1.32 0 2.64 0 4 0 C4 6.6 4 13.2 4 20 C6.31 20 8.62 20 11 20 C11.33 20.99 11.66 21.98 12 23 C3.19039858 24.30512614 -5.19039858 24.30512614 -14 23 C-13.505 21.515 -13.505 21.515 -13 20 C-8.71 20 -4.42 20 0 20 C0 13.4 0 6.8 0 0 Z " fill="#4C4CA1" transform="translate(115,63)"/>
<path d="M0 0 C0 3.96 0 7.92 0 12 C-0.66 11.34 -1.32 10.68 -2 10 C-4.03467434 9.72313935 -4.03467434 9.72313935 -6.3515625 9.8046875 C-7.20234375 9.81113281 -8.053125 9.81757812 -8.9296875 9.82421875 C-9.81914063 9.84097656 -10.70859375 9.85773438 -11.625 9.875 C-12.97078125 9.88853516 -12.97078125 9.88853516 -14.34375 9.90234375 C-16.56276586 9.9259503 -18.78125077 9.9588769 -21 10 C-20.505 9.54625 -20.01 9.0925 -19.5 8.625 C-17.77390663 7.12364481 -17.77390663 7.12364481 -18 5 C-16.68 5 -15.36 5 -14 5 C-14 4.34 -14 3.68 -14 3 C-14.99 2.34 -15.98 1.68 -17 1 C-11.29014022 0.25983299 -5.75813575 -0.10469338 0 0 Z " fill="#604FFC" transform="translate(127,86)"/>
<path d="M0 0 C0.83265381 0.00523682 1.66530762 0.01047363 2.52319336 0.01586914 C3.42231445 0.0190918 4.32143555 0.02231445 5.24780273 0.02563477 C6.66609375 0.03820312 6.66609375 0.03820312 8.11303711 0.05102539 C9.06243164 0.05553711 10.01182617 0.06004883 10.98999023 0.06469727 C13.34356776 0.07652429 15.69702188 0.09300514 18.05053711 0.11352539 C18.07738023 2.9260882 18.09729899 5.7383978 18.11303711 8.55102539 C18.12141602 9.3534668 18.12979492 10.1559082 18.13842773 10.98266602 C18.14705141 13.0264776 18.10281861 15.07036441 18.05053711 17.11352539 C16.4944696 18.6695929 14.9909634 18.24323308 12.83178711 18.24633789 C11.55754883 18.24827148 11.55754883 18.24827148 10.25756836 18.25024414 C8.91758789 18.24444336 8.91758789 18.24444336 7.55053711 18.23852539 C6.6572168 18.24239258 5.76389648 18.24625977 4.84350586 18.25024414 C3.99401367 18.24895508 3.14452148 18.24766602 2.26928711 18.24633789 C1.48489258 18.24520996 0.70049805 18.24408203 -0.10766602 18.24291992 C-1.94946289 18.11352539 -1.94946289 18.11352539 -2.94946289 17.11352539 C-3.04927503 14.43621159 -3.08826164 11.79048365 -3.07446289 9.11352539 C-3.07833008 8.36329102 -3.08219727 7.61305664 -3.08618164 6.84008789 C-3.07415805 0.1790211 -3.07415805 0.1790211 0 0 Z M-0.94946289 2.11352539 C-0.94946289 6.40352539 -0.94946289 10.69352539 -0.94946289 15.11352539 C4.66053711 15.11352539 10.27053711 15.11352539 16.05053711 15.11352539 C16.05053711 10.82352539 16.05053711 6.53352539 16.05053711 2.11352539 C10.44053711 2.11352539 4.83053711 2.11352539 -0.94946289 2.11352539 Z " fill="#34CDC9" transform="translate(15.949462890625,31.886474609375)"/>
<path d="M0 0 C1.31871094 -0.01224609 2.63742188 -0.02449219 3.99609375 -0.03710938 C5.90068359 -0.04000977 5.90068359 -0.04000977 7.84375 -0.04296875 C9.00068359 -0.04707764 10.15761719 -0.05118652 11.34960938 -0.05541992 C14.47736509 0.18575467 16.680892 0.85423629 19.5 2.1875 C18.5 4.1875 18.5 4.1875 16.84521484 4.80200195 C11.99200924 5.59975457 7.04404055 5.37340312 2.13769531 5.37280273 C0.13863013 5.37498512 -1.86039532 5.39349143 -3.859375 5.41210938 C-5.13039063 5.41404297 -6.40140625 5.41597656 -7.7109375 5.41796875 C-8.86899902 5.42207764 -10.02706055 5.42618652 -11.22021484 5.43041992 C-14.61310954 5.17912245 -17.33332989 4.39923908 -20.5 3.1875 C-20.17 2.5275 -19.84 1.8675 -19.5 1.1875 C-13.23640183 -0.60566158 -6.45139424 0.00315317 0 0 Z " fill="#EAEBF2" transform="translate(114.5,125.8125)"/>
<path d="M0 0 C1.58206422 0.00574487 3.16410406 0.01876032 4.74609375 0.03515625 C7.53046875 0.05578125 10.31484375 0.07640625 13.18359375 0.09765625 C13.18359375 6.03765625 13.18359375 11.97765625 13.18359375 18.09765625 C10.39921875 18.11828125 7.61484375 18.13890625 4.74609375 18.16015625 C3.86767822 18.16926025 2.9892627 18.17836426 2.08422852 18.18774414 C0.11713401 18.19488716 -1.84994246 18.14797518 -3.81640625 18.09765625 C-5.63756628 16.27649622 -4.94875705 13.79093861 -4.953125 11.37109375 C-4.94925781 10.62085937 -4.94539063 9.870625 -4.94140625 9.09765625 C-4.94527344 8.34742187 -4.94914062 7.5971875 -4.953125 6.82421875 C-4.94103514 0.12643386 -4.94103514 0.12643386 0 0 Z M-1.25390625 3.66015625 C-3.43640297 7.06485113 -3.45375087 9.13195637 -2.81640625 13.09765625 C-0.88514523 15.77604198 -0.88514523 15.77604198 2.18359375 17.09765625 C5.99736885 17.09765625 8.20783923 16.94750696 11.12109375 14.41015625 C12.52176913 11.36162748 12.66786695 9.41838673 12.18359375 6.09765625 C10.74698064 3.57758781 10.74698064 3.57758781 8.18359375 2.09765625 C4.24343362 1.53477623 2.12577179 1.49369597 -1.25390625 3.66015625 Z " fill="#4DC0F0" transform="translate(109.81640625,95.90234375)"/>
<path d="M0 0 C1.18613892 0.00785522 1.18613892 0.00785522 2.39624023 0.01586914 C3.67724609 0.02070312 3.67724609 0.02070312 4.98413086 0.02563477 C5.88196289 0.03401367 6.77979492 0.04239258 7.70483398 0.05102539 C8.6065332 0.05553711 9.50823242 0.06004883 10.43725586 0.06469727 C12.67234712 0.07652315 14.90730835 0.09300319 17.14233398 0.11352539 C17.14233398 0.77352539 17.14233398 1.43352539 17.14233398 2.11352539 C11.39233398 3.11352539 11.39233398 3.11352539 9.14233398 3.11352539 C8.15233398 3.60852539 8.15233398 3.60852539 7.14233398 4.11352539 C6.2513995 7.75825739 5.90567352 10.5409507 7.14233398 14.11352539 C6.15233398 13.45352539 5.16233398 12.79352539 4.14233398 12.11352539 C1.81845452 11.71964751 -0.51560351 11.37866454 -2.85766602 11.11352539 C-2.88454752 9.46777973 -2.90400725 7.82191126 -2.92016602 6.17602539 C-2.93176758 5.25950195 -2.94336914 4.34297852 -2.95532227 3.39868164 C-2.83580216 0.60191113 -2.79636442 0.17089098 0 0 Z " fill="#41ABE4" transform="translate(35.857666015625,85.886474609375)"/>
<path d="M0 0 C0.02686553 1.97909398 0.04633375 3.95828971 0.0625 5.9375 C0.07410156 7.03964844 0.08570312 8.14179687 0.09765625 9.27734375 C0 12 0 12 -1 13 C-2.4913391 13.01662231 -3.98360805 12.963192 -5.47265625 12.87890625 C-6.37177734 12.83056641 -7.27089844 12.78222656 -8.19726562 12.73242188 C-9.14279297 12.67634766 -10.08832031 12.62027344 -11.0625 12.5625 C-12.01189453 12.51029297 -12.96128906 12.45808594 -13.93945312 12.40429688 C-16.29326952 12.27418642 -18.64670699 12.13920888 -21 12 C-21 11.01 -21 10.02 -21 9 C-20.39671875 8.86722656 -19.7934375 8.73445313 -19.171875 8.59765625 C-18.37265625 8.42105469 -17.5734375 8.24445313 -16.75 8.0625 C-15.96109375 7.88847656 -15.1721875 7.71445313 -14.359375 7.53515625 C-11.17566431 6.8130232 -8.09944454 6.03314818 -5 5 C-5 3.68 -5 2.36 -5 1 C-3 0 -3 0 0 0 Z " fill="#3ACFCC" transform="translate(34,68)"/>
<path d="M0 0 C1.65 0.33 3.3 0.66 5 1 C5.02685938 3.14576637 5.04633088 5.29162645 5.0625 7.4375 C5.07410156 8.63246094 5.08570313 9.82742187 5.09765625 11.05859375 C5 14 5 14 4 15 C2.35659133 15.09854655 0.7088539 15.12972411 -0.9375 15.125 C-1.83339844 15.12757812 -2.72929688 15.13015625 -3.65234375 15.1328125 C-6 15 -6 15 -8 14 C-8 12.35 -8 10.7 -8 9 C-7.01 9 -6.02 9 -5 9 C-5 8.34 -5 7.68 -5 7 C-4.0409375 6.6596875 -4.0409375 6.6596875 -3.0625 6.3125 C-0.72806339 5.14749104 -0.72806339 5.14749104 -0.25 2.375 C-0.1675 1.59125 -0.085 0.8075 0 0 Z " fill="#35DDC4" transform="translate(130,48)"/>
<path d="M0 0 C0.99 0 1.98 0 3 0 C3 0.66 3 1.32 3 2 C4.65 2.33 6.3 2.66 8 3 C8.3125 6.3125 8.3125 6.3125 8 10 C5.15739513 12.38164192 3.71594733 13 0 13 C0 12.34 0 11.68 0 11 C-1.65 10.67 -3.3 10.34 -5 10 C-5 7.69 -5 5.38 -5 3 C-3.35 2.67 -1.7 2.34 0 2 C0 1.34 0 0.68 0 0 Z " fill="#F0FAFB" transform="translate(22,63)"/>
<path d="M0 0 C0.99 0 1.98 0 3 0 C3.02886984 3.97915159 3.04675406 7.95827653 3.0625 11.9375 C3.07087891 13.07380859 3.07925781 14.21011719 3.08789062 15.38085938 C3.09272461 17.00024414 3.09272461 17.00024414 3.09765625 18.65234375 C3.10551147 20.15269165 3.10551147 20.15269165 3.11352539 21.68334961 C3 24 3 24 2 25 C0.29227642 25.08713831 -1.41898649 25.10700007 -3.12890625 25.09765625 C-4.68061523 25.09282227 -4.68061523 25.09282227 -6.26367188 25.08789062 C-7.35228516 25.07951172 -8.44089844 25.07113281 -9.5625 25.0625 C-11.2012207 25.05573242 -11.2012207 25.05573242 -12.87304688 25.04882812 C-15.58208495 25.03699826 -18.29101599 25.02051543 -21 25 C-21.33 24.34 -21.66 23.68 -22 23 C-14.74 23 -7.48 23 0 23 C0 15.41 0 7.82 0 0 Z " fill="#37D4C9" transform="translate(95,49)"/>
<path d="M0 0 C2.31 0 4.62 0 7 0 C7 2.97 7 5.94 7 9 C8.32 9.33 9.64 9.66 11 10 C10.34 10 9.68 10 9 10 C8.67 10.99 8.34 11.98 8 13 C6.68 13 5.36 13 4 13 C2.99983813 15.00032373 2.50603992 16.83125748 2 19 C1.34 19 0.68 19 0 19 C0 12.73 0 6.46 0 0 Z " fill="#6C75FE" transform="translate(98,54)"/>
<path d="M0 0 C1.32 0 2.64 0 4 0 C4 5.28 4 10.56 4 16 C4.99 16 5.98 16 7 16 C7 17.65 7 19.3 7 21 C4.69 21 2.38 21 0 21 C0 14.07 0 7.14 0 0 Z " fill="#41428D" transform="translate(26,81)"/>
<path d="M0 0 C0.66 0 1.32 0 2 0 C2.33 1.65 2.66 3.3 3 5 C5.97 5.33 8.94 5.66 12 6 C11 10 11 10 9.1875 11.6875 C6.0011265 13.5993241 3.69970887 14 0 14 C-0.33 14.66 -0.66 15.32 -1 16 C-1.02701408 13.89590361 -1.04640223 11.79170822 -1.0625 9.6875 C-1.07410156 8.51574219 -1.08570312 7.34398438 -1.09765625 6.13671875 C-1 3 -1 3 0 0 Z " fill="#6B72FE" transform="translate(103,108)"/>
<path d="M0 0 C5.94 0 11.88 0 18 0 C18.33 0.99 18.66 1.98 19 3 C18.34 3 17.68 3 17 3 C17 3.66 17 4.32 17 5 C11.39 5 5.78 5 0 5 C0 3.35 0 1.7 0 0 Z " fill="#34ACC5" transform="translate(98,49)"/>
<path d="M0 0 C0 1.65 0 3.3 0 5 C-3.63 5 -7.26 5 -11 5 C-11 6.65 -11 8.3 -11 10 C-12.32 10 -13.64 10 -15 10 C-15.125 3.25 -15.125 3.25 -14 1 C-9.31604754 -0.14242743 -4.78644729 -0.08252495 0 0 Z " fill="#3C3D89" transform="translate(41,49)"/>
<path d="M0 0 C4.29 0 8.58 0 13 0 C13.33 2.31 13.66 4.62 14 7 C12.9275 6.7525 11.855 6.505 10.75 6.25 C6.97254504 5.57571378 6.97254504 5.57571378 4.5625 7.9375 C3.7890625 8.9584375 3.7890625 8.9584375 3 10 C2.01 9.67 1.02 9.34 0 9 C0.185625 8.071875 0.37125 7.14375 0.5625 6.1875 C1.24123881 2.98656229 1.24123881 2.98656229 0 0 Z " fill="#6FD5E3" transform="translate(110,33)"/>
<path d="M0 0 C1.32 0 2.64 0 4 0 C4 6.6 4 13.2 4 20 C2.68 19.67 1.36 19.34 0 19 C0 12.73 0 6.46 0 0 Z " fill="#3E3E8B" transform="translate(115,63)"/>
<path d="M0 0 C8.58 0 17.16 0 26 0 C25.67 0.99 25.34 1.98 25 3 C17.08 3 9.16 3 1 3 C0.67 2.01 0.34 1.02 0 0 Z " fill="#4C4CA0" transform="translate(101,124)"/>
<path d="M0 0 C1.67542976 0.28604898 3.34385343 0.61781233 5 1 C5.95020028 3.99678551 6.46463605 6.06886936 5.0234375 8.95703125 C3.76294928 10.76667955 2.56254586 12.44206342 1 14 C0.34 14 -0.32 14 -1 14 C-1.02685938 11.85423363 -1.04633088 9.70837355 -1.0625 7.5625 C-1.07410156 6.36753906 -1.08570312 5.17257813 -1.09765625 3.94140625 C-1 1 -1 1 0 0 Z " fill="#34C7E0" transform="translate(106,33)"/>
<path d="M0 0 C3.91402949 1.26941497 5.79072873 2.51167694 8 6 C6.71034824 7.37562854 5.37310707 8.70766393 4 10 C3.34 10 2.68 10 2 10 C2 9.01 2 8.02 2 7 C1.34 7 0.68 7 0 7 C-0.33 8.65 -0.66 10.3 -1 12 C-1.66 12 -2.32 12 -3 12 C-2.14285714 3.42857143 -2.14285714 3.42857143 0 0 Z " fill="#57CBDD" transform="translate(47,90)"/>
<path d="M0 0 C1.39456452 0.00667256 2.78911118 0.01863093 4.18359375 0.03515625 C4.89451172 0.03966797 5.60542969 0.04417969 6.33789062 0.04882812 C8.09899388 0.06064761 9.86005411 0.07858362 11.62109375 0.09765625 C11.95109375 0.75765625 12.28109375 1.41765625 12.62109375 2.09765625 C7.67109375 2.09765625 2.72109375 2.09765625 -2.37890625 2.09765625 C-2.37890625 6.71765625 -2.37890625 11.33765625 -2.37890625 16.09765625 C-1.38890625 16.42765625 -0.39890625 16.75765625 0.62109375 17.09765625 C-1.31640625 17.66015625 -1.31640625 17.66015625 -3.37890625 18.09765625 C-5.20006628 16.27649622 -4.51125705 13.79093861 -4.515625 11.37109375 C-4.51175781 10.62085938 -4.50789062 9.870625 -4.50390625 9.09765625 C-4.50777344 8.34742188 -4.51164063 7.5971875 -4.515625 6.82421875 C-4.50354186 0.13016017 -4.50354186 0.13016017 0 0 Z " fill="#33CADC" transform="translate(17.37890625,31.90234375)"/>
<path d="M0 0 C7.92 0.33 15.84 0.66 24 1 C24 1.33 24 1.66 24 2 C21.03 2 18.06 2 15 2 C15 3.65 15 5.3 15 7 C15.66 7.33 16.32 7.66 17 8 C16.01 8.99 15.02 9.98 14 11 C11.525 10.01 11.525 10.01 9 9 C9 8.34 9 7.68 9 7 C9.66 7 10.32 7 11 7 C11 5.35 11 3.7 11 2 C7.37 2 3.74 2 0 2 C0 1.34 0 0.68 0 0 Z " fill="#9EE6E9" transform="translate(107,45)"/>
<path d="M0 0 C0.66 0 1.32 0 2 0 C2 4.62 2 9.24 2 14 C-3.61 14 -9.22 14 -15 14 C-15.33 12.35 -15.66 10.7 -16 9 C-13.03824877 9.61277612 -11.61941217 10.25372522 -9 12 C-5.42823885 11.91832511 -5.42823885 11.91832511 -2 11 C0.05925681 7.91111478 0.2390374 7.29064073 0.125 3.8125 C0.08375 2.554375 0.0425 1.29625 0 0 Z " fill="#3BDACD" transform="translate(121,100)"/>
<path d="M0 0 C2.64 0 5.28 0 8 0 C8 2.97 8 5.94 8 9 C6.35 9.33 4.7 9.66 3 10 C3 9.01 3 8.02 3 7 C2.01 6.67 1.02 6.34 0 6 C0 4.02 0 2.04 0 0 Z " fill="#3DBADC" transform="translate(26,59)"/>
<path d="M0 0 C2.49118953 3.7367843 2.2065226 5.74451819 2.125 10.1875 C2.10695313 11.45980469 2.08890625 12.73210937 2.0703125 14.04296875 C2.03550781 15.50669922 2.03550781 15.50669922 2 17 C0.68 17 -0.64 17 -2 17 C-2 11.72 -2 6.44 -2 1 C-1.34 0.67 -0.68 0.34 0 0 Z " fill="#707FFE" transform="translate(125,95)"/>
<path d="M0 0 C0.43489791 5.30575444 0.43489791 5.30575444 0 8 C-2.3125 10.0625 -2.3125 10.0625 -5 11 C-5.99 10.67 -6.98 10.34 -8 10 C-8.33 9.01 -8.66 8.02 -9 7 C-7.5625 4.8125 -7.5625 4.8125 -6 3 C-6.33 2.34 -6.66 1.68 -7 1 C-1.125 0 -1.125 0 0 0 Z " fill="#34D4C3" transform="translate(60,92)"/>
<path d="M0 0 C1.24716797 0.00322266 2.49433594 0.00644531 3.77929688 0.00976562 C5.07287109 0.01814453 6.36644531 0.02652344 7.69921875 0.03515625 C9.66858398 0.04192383 9.66858398 0.04192383 11.67773438 0.04882812 C14.91410885 0.06059676 18.15039053 0.07703865 21.38671875 0.09765625 C21.05671875 0.75765625 20.72671875 1.41765625 20.38671875 2.09765625 C19.73074707 2.11747559 19.07477539 2.13729492 18.39892578 2.15771484 C15.43610806 2.25278132 12.47401343 2.36253377 9.51171875 2.47265625 C7.96291016 2.5190625 7.96291016 2.5190625 6.3828125 2.56640625 C4.90361328 2.62441406 4.90361328 2.62441406 3.39453125 2.68359375 C2.4833252 2.71501465 1.57211914 2.74643555 0.63330078 2.77880859 C-1.81259311 2.89648136 -1.81259311 2.89648136 -3.61328125 5.09765625 C-6.34197532 5.06478042 -8.90994305 4.53367854 -11.61328125 4.09765625 C-11.61328125 3.10765625 -11.61328125 2.11765625 -11.61328125 1.09765625 C-7.68039761 0.16677716 -4.03673962 -0.0184326 0 0 Z " fill="#D9D9E8" transform="translate(106.61328125,125.90234375)"/>
<path d="M0 0 C0.66 0.33 1.32 0.66 2 1 C2 3.97 2 6.94 2 10 C1.34 9.34 0.68 8.68 0 8 C-2.21072977 7.75746187 -2.21072977 7.75746187 -4.625 7.875 C-5.85089844 7.90207031 -5.85089844 7.90207031 -7.1015625 7.9296875 C-8.04128906 7.96449219 -8.04128906 7.96449219 -9 8 C-7.625 6 -7.625 6 -6 4 C-5.34 4 -4.68 4 -4 4 C-4 3.34 -4 2.68 -4 2 C-2.125 0.9375 -2.125 0.9375 0 0 Z " fill="#6761FF" transform="translate(125,88)"/>
<path d="M0 0 C0 0.99 0 1.98 0 3 C-5.28 3 -10.56 3 -16 3 C-16.33 2.01 -16.66 1.02 -17 0 C-11.0885256 -0.77313045 -5.8685408 -1.14819277 0 0 Z " fill="#46D8D0" transform="translate(50,102)"/>
<path d="M0 0 C3.375 -0.125 3.375 -0.125 7 0 C7.66 0.66 8.32 1.32 9 2 C9.66 1.34 10.32 0.68 11 0 C10.67 1.65 10.34 3.3 10 5 C6.7 5 3.4 5 0 5 C0 3.35 0 1.7 0 0 Z " fill="#37B3C7" transform="translate(33,97)"/>
<path d="M0 0 C0.042721 1.66611905 0.04063832 3.33382885 0 5 C-1 6 -1 6 -4.5625 6.0625 C-5.696875 6.041875 -6.83125 6.02125 -8 6 C-8 4.68 -8 3.36 -8 2 C-4.91190305 0.23537317 -3.76687864 0 0 0 Z " fill="#39C4D6" transform="translate(60,87)"/>
<path d="M0 0 C1.23556641 0.01740234 1.23556641 0.01740234 2.49609375 0.03515625 C3.32238281 0.04417969 4.14867187 0.05320312 5 0.0625 C5.63808594 0.07410156 6.27617188 0.08570312 6.93359375 0.09765625 C6.93359375 0.75765625 6.93359375 1.41765625 6.93359375 2.09765625 C5.51046875 2.19046875 5.51046875 2.19046875 4.05859375 2.28515625 C2.51171875 2.68734375 2.51171875 2.68734375 0.93359375 3.09765625 C-0.51931898 5.5602131 -0.51931898 5.5602131 -1.06640625 8.09765625 C-1.72640625 8.09765625 -2.38640625 8.09765625 -3.06640625 8.09765625 C-3.10882348 5.7647085 -3.10733562 3.43063058 -3.06640625 1.09765625 C-2.06640625 0.09765625 -2.06640625 0.09765625 0 0 Z " fill="#4397EA" transform="translate(36.06640625,85.90234375)"/>
<path d="M0 0 C3.3 0 6.6 0 10 0 C9 2 9 2 6.5 2.875 C5.675 3.24625 4.85 3.6175 4 4 C3.34786708 6.02463255 3.34786708 6.02463255 3 8 C2.01 8.33 1.02 8.66 0 9 C0 6.03 0 3.06 0 0 Z " fill="#3EBBDD" transform="translate(105,54)"/>
<path d="M0 0 C0.33 0 0.66 0 1 0 C1.36 5.4 1.36 5.4 -0.125 7.875 C-2.78034983 9.4682099 -4.96789518 9.20214032 -8 9 C-7.67 8.01 -7.34 7.02 -7 6 C-6.01 5.67 -5.02 5.34 -4 5 C-2.63755204 3.35704805 -1.30135125 1.69175663 0 0 Z " fill="#42D9D8" transform="translate(119,102)"/>
<path d="M0 0 C6.6 0 13.2 0 20 0 C20 1.65 20 3.3 20 5 C19.34 4.34 18.68 3.68 18 3 C16.06742145 2.63168919 16.06742145 2.63168919 13.8671875 2.5859375 C13.06152344 2.54726563 12.25585938 2.50859375 11.42578125 2.46875 C10.58402344 2.4378125 9.74226563 2.406875 8.875 2.375 C8.02550781 2.33632813 7.17601563 2.29765625 6.30078125 2.2578125 C4.20088316 2.16343506 2.10047109 2.08062414 0 2 C0 1.34 0 0.68 0 0 Z " fill="#8ACCDE" transform="translate(98,47)"/>
<path d="M0 0 C0.33 0.99 0.66 1.98 1 3 C0 4 0 4 -2.28515625 4.09765625 C-3.65994141 4.08025391 -3.65994141 4.08025391 -5.0625 4.0625 C-5.98160156 4.05347656 -6.90070312 4.04445313 -7.84765625 4.03515625 C-8.55792969 4.02355469 -9.26820312 4.01195313 -10 4 C-10 3.01 -10 2.02 -10 1 C-3.375 -1.125 -3.375 -1.125 0 0 Z " fill="#33D3D1" transform="translate(23,76)"/>
<path d="M0 0 C0.99 0 1.98 0 3 0 C3.08114106 1.77007714 3.13925505 3.54122098 3.1875 5.3125 C3.23970703 6.79169922 3.23970703 6.79169922 3.29296875 8.30078125 C3 11 3 11 0 14 C0 9.38 0 4.76 0 0 Z " fill="#5F4DFE" transform="translate(102,97)"/>
<path d="M0 0 C2.06242617 -0.02717692 4.12495703 -0.0464758 6.1875 -0.0625 C7.33605469 -0.07410156 8.48460937 -0.08570313 9.66796875 -0.09765625 C12.59300586 -0.01192832 15.16316291 0.32150977 18 1 C18 1.33 18 1.66 18 2 C12.72 2 7.44 2 2 2 C2 2.66 2 3.32 2 4 C1.01 4 0.02 4 -1 4 C-0.67 2.68 -0.34 1.36 0 0 Z " fill="#33C6DD" transform="translate(42,45)"/>
<path d="M0 0 C0.99 0 1.98 0 3 0 C3.08121924 1.60332791 3.13929134 3.20784026 3.1875 4.8125 C3.23970703 6.15248047 3.23970703 6.15248047 3.29296875 7.51953125 C3 10 3 10 0 13 C0 8.71 0 4.42 0 0 Z " fill="#3A95D8" transform="translate(41,49)"/>
<path d="M0 0 C0.33 0.66 0.66 1.32 1 2 C1.99 2.33 2.98 2.66 4 3 C4 5.64 4 8.28 4 11 C2.68 10.67 1.36 10.34 0 10 C0 6.7 0 3.4 0 0 Z " fill="#39C2C7" transform="translate(115,52)"/>
<path d="M0 0 C2.31 0 4.62 0 7 0 C7 1.65 7 3.3 7 5 C4.69 5 2.38 5 0 5 C0 3.35 0 1.7 0 0 Z " fill="#3C3E8A" transform="translate(98,49)"/>
<path d="M0 0 C4.62 0 9.24 0 14 0 C14.33 1.32 14.66 2.64 15 4 C14.01 4 13.02 4 12 4 C12 3.34 12 2.68 12 2 C8.04 2 4.08 2 0 2 C0 1.34 0 0.68 0 0 Z " fill="#55DAD4" transform="translate(83,45)"/>
<path d="M0 0 C1.07765625 0.10183594 2.1553125 0.20367187 3.265625 0.30859375 C4.08546875 0.39238281 4.9053125 0.47617188 5.75 0.5625 C5.75 1.2225 5.75 1.8825 5.75 2.5625 C0.47 2.5625 -4.81 2.5625 -10.25 2.5625 C-10.25 1.9025 -10.25 1.2425 -10.25 0.5625 C-6.70049966 -0.60056443 -3.69176052 -0.36115049 0 0 Z " fill="#99C0FE" transform="translate(68.25,118.4375)"/>
<path d="M0 0 C2.64 0 5.28 0 8 0 C8 1.98 8 3.96 8 6 C7.67 5.34 7.34 4.68 7 4 C5.68 4.33 4.36 4.66 3 5 C2.67 4.01 2.34 3.02 2 2 C1.34 2 0.68 2 0 2 C0 1.34 0 0.68 0 0 Z " fill="#3DCFD9" transform="translate(18,59)"/>
<path d="M0 0 C2.29013653 3.4352048 2.17842973 4.985331 2 9 C1.01 9.33 0.02 9.66 -1 10 C-2 9 -2 9 -2.09765625 7.15234375 C-2.06510417 5.1015625 -2.03255208 3.05078125 -2 1 C-1.34 0.67 -0.68 0.34 0 0 Z " fill="#6C72FE" transform="translate(125,95)"/>
<path d="M0 0 C1.67542976 0.28604898 3.34385343 0.61781233 5 1 C4.67 2.32 4.34 3.64 4 5 C2.68 5.33 1.36 5.66 0 6 C-0.38218767 4.34385343 -0.71395102 2.67542976 -1 1 C-0.67 0.67 -0.34 0.34 0 0 Z " fill="#49CFDC" transform="translate(22,67)"/>
<path d="M0 0 C0.66 0 1.32 0 2 0 C1.01 3.96 0.02 7.92 -1 12 C-1.66 12 -2.32 12 -3 12 C-2.14285714 3.42857143 -2.14285714 3.42857143 0 0 Z " fill="#E1F5F8" transform="translate(47,90)"/>
<path d="M0 0 C0.66 0 1.32 0 2 0 C2.66 2.31 3.32 4.62 4 7 C3.34 7 2.68 7 2 7 C2 7.66 2 8.32 2 9 C1.01 9 0.02 9 -1 9 C-1.07427838 5.65747276 -1.06546953 3.1964086 0 0 Z " fill="#6763FF" transform="translate(103,108)"/>
<path d="M0 0 C1.98 0 3.96 0 6 0 C2.08944645 3.30892993 -1.84482685 5 -7 5 C-7 3.68 -7 2.36 -7 1 C-4.69 1.33 -2.38 1.66 0 2 C0 1.34 0 0.68 0 0 Z " fill="#49BBDF" transform="translate(53,86)"/>
<path d="M0 0 C0.4125 0.474375 0.825 0.94875 1.25 1.4375 C3.182185 3.16266518 4.48192275 3.56584875 7 4 C6.67 4.99 6.34 5.98 6 7 C5.01 7 4.02 7 3 7 C3 6.34 3 5.68 3 5 C1.35 4.67 -0.3 4.34 -2 4 C-2 3.34 -2 2.68 -2 2 C-1.34 2 -0.68 2 0 2 C0 1.34 0 0.68 0 0 Z " fill="#F7FCFD" transform="translate(19,69)"/>
<path d="M0 0 C2.97 0 5.94 0 9 0 C9 0.66 9 1.32 9 2 C6.29120665 3.35439668 3.99066732 3.06501451 1 3 C0.67 2.01 0.34 1.02 0 0 Z " fill="#50CFDA" transform="translate(33,102)"/>
<path d="M0 0 C2.31 0 4.62 0 7 0 C7 1.32 7 2.64 7 4 C6.01 4.33 5.02 4.66 4 5 C1.8125 3.6875 1.8125 3.6875 0 2 C0 1.34 0 0.68 0 0 Z " fill="#43CBE6" transform="translate(116,96)"/>
<path d="M0 0 C0 1.65 0 3.3 0 5 C-1.98 5 -3.96 5 -6 5 C-6.33 3.68 -6.66 2.36 -7 1 C-1.125 0 -1.125 0 0 0 Z " fill="#38D1CE" transform="translate(60,92)"/>
<path d="M0 0 C1.32 0 2.64 0 4 0 C4 1.98 4 3.96 4 6 C2.68 6 1.36 6 0 6 C0 4.02 0 2.04 0 0 Z " fill="#34ADC5" transform="translate(26,59)"/>
<path d="M0 0 C0.66 0 1.32 0 2 0 C2 1.98 2 3.96 2 6 C2.66 6.33 3.32 6.66 4 7 C2.02 7.99 2.02 7.99 0 9 C-0.66 8.01 -1.32 7.02 -2 6 C-1.34 6 -0.68 6 0 6 C0 4.02 0 2.04 0 0 Z " fill="#FBFDFE" transform="translate(119,47)"/>
<path d="M0 0 C2.33944736 0.28730055 4.6739143 0.61936779 7 1 C6.01 1.66 5.02 2.32 4 3 C3.01 4.485 3.01 4.485 2 6 C1.34 6 0.68 6 0 6 C-0.38218767 4.34385343 -0.71395102 2.67542976 -1 1 C-0.67 0.67 -0.34 0.34 0 0 Z " fill="#D7F2F7" transform="translate(18,65)"/>
<path d="M0 0 C1.65 0 3.3 0 5 0 C4.67 1.65 4.34 3.3 4 5 C2.68 5 1.36 5 0 5 C0 3.35 0 1.7 0 0 Z " fill="#34A6C5" transform="translate(33,97)"/>
<path d="M0 0 C1.21346851 3.64040554 1.21346851 5.35959446 0 9 C-1.32 7.35 -2.64 5.7 -4 4 C-2.68 2.68 -1.36 1.36 0 0 Z " fill="#E7F6FA" transform="translate(42,91)"/>
<path d="M0 0 C3.465 1.98 3.465 1.98 7 4 C7 4.33 7 4.66 7 5 C0.375 5.25 0.375 5.25 -3 3 C-2.01 2.01 -1.02 1.02 0 0 Z " fill="#3ABFC6" transform="translate(26,76)"/>
<path d="M0 0 C1.65 0 3.3 0 5 0 C5 2.64 5 5.28 5 8 C4.34 8 3.68 8 3 8 C3 6.02 3 4.04 3 2 C2.01 1.67 1.02 1.34 0 1 C0 0.67 0 0.34 0 0 Z " fill="#35D5CF" transform="translate(29,32)"/>
<path d="M0 0 C1.32 0.33 2.64 0.66 4 1 C4 2.32 4 3.64 4 5 C2.68 4.67 1.36 4.34 0 4 C0 2.68 0 1.36 0 0 Z " fill="#3DD0E4" transform="translate(105,109)"/>
<path d="M0 0 C0.66 0.33 1.32 0.66 2 1 C0.68 2.65 -0.64 4.3 -2 6 C-3.65 5.67 -5.3 5.34 -7 5 C-7 4.34 -7 3.68 -7 3 C-6.21625 2.87625 -5.4325 2.7525 -4.625 2.625 C-1.85942178 2.20882007 -1.85942178 2.20882007 0 0 Z " fill="#BFEFF3" transform="translate(117,102)"/>
<path d="M0 0 C3.3 0 6.6 0 10 0 C10 0.33 10 0.66 10 1 C8.865625 1.12375 7.73125 1.2475 6.5625 1.375 C4.7990625 1.684375 4.7990625 1.684375 3 2 C2.67 2.66 2.34 3.32 2 4 C1.01 4 0.02 4 -1 4 C-0.67 2.68 -0.34 1.36 0 0 Z " fill="#46AFF5" transform="translate(106,96)"/>
<path d="M0 0 C1.98 0.99 1.98 0.99 4 2 C4 2.99 4 3.98 4 5 C2 6.6875 2 6.6875 0 8 C0.185625 7.236875 0.37125 6.47375 0.5625 5.6875 C1.22819173 2.91032625 1.22819173 2.91032625 0 0 Z " fill="#DFF6F8" transform="translate(50,92)"/>
<path d="M0 0 C0.33 0.99 0.66 1.98 1 3 C1.66 3 2.32 3 3 3 C3 3.66 3 4.32 3 5 C1.35 5 -0.3 5 -2 5 C-2.66 3.68 -3.32 2.36 -4 1 C-2.68 0.67 -1.36 0.34 0 0 Z " fill="#34D9C2" transform="translate(31,75)"/>
<path d="M0 0 C2.31 0 4.62 0 7 0 C7 1.65 7 3.3 7 5 C6.34 4.34 5.68 3.68 5 3 C2.42938689 2.35232207 2.42938689 2.35232207 0 2 C0 1.34 0 0.68 0 0 Z " fill="#52CFDA" transform="translate(111,47)"/>
</svg>
