<?xml version="1.0" encoding="UTF-8"?>
<svg version="1.1" xmlns="http://www.w3.org/2000/svg" width="150" height="150">
<path d="M0 0 C0.99 1.98 0.99 1.98 2 4 C6.42664564 4.30495485 6.42664564 4.30495485 10.375 2.5 C10.91125 2.005 11.4475 1.51 12 1 C14.31 2.65 16.62 4.3 19 6 C18.67 6.598125 18.34 7.19625 18 7.8125 C16.79212012 10.05386471 16.79212012 10.05386471 17 13 C18.82337891 13.09087891 18.82337891 13.09087891 20.68359375 13.18359375 C22.26824228 13.26798332 23.85287702 13.3526321 25.4375 13.4375 C26.64116211 13.49647461 26.64116211 13.49647461 27.86914062 13.55664062 C33.88671875 13.88671875 33.88671875 13.88671875 35 15 C35.08748207 16.92667507 35.10697334 18.85651861 35.09765625 20.78515625 C35.09443359 21.95498047 35.09121094 23.12480469 35.08789062 24.33007812 C35.07951172 25.56177734 35.07113281 26.79347656 35.0625 28.0625 C35.05798828 29.29806641 35.05347656 30.53363281 35.04882812 31.80664062 C35.03699608 34.87114117 35.02051173 37.93554721 35 41 C37.475 40.505 37.475 40.505 40 40 C40.99 41.65 41.98 43.3 43 45 C42.01 45.99 42.01 45.99 41 47 C41.350625 47.928125 41.70125 48.85625 42.0625 49.8125 C43 53 43 53 42 56 C40.35 56 38.7 56 37 56 C36.67 57.32 36.34 58.64 36 60 C34.02 60 32.04 60 30 60 C30 59.01 30 58.02 30 57 C27.69 57 25.38 57 23 57 C22.01 55.02 22.01 55.02 21 53 C21.66 52.01 22.32 51.02 23 50 C23 49.01 23 48.02 23 47 C22.34 47 21.68 47 21 47 C21 46.01 21 45.02 21 44 C20.34 44 19.68 44 19 44 C19 50.6 19 57.2 19 64 C21.31 64 23.62 64 26 64 C27 65 27 65 27.11352539 68.96899414 C27.1133662 70.74105607 27.10766785 72.5131226 27.09765625 74.28515625 C27.0962413 75.21597519 27.09482635 76.14679413 27.09336853 77.1058197 C27.08775172 80.09141191 27.0751964 83.07693029 27.0625 86.0625 C27.05748716 88.08137913 27.05292388 90.10025943 27.04882812 92.11914062 C27.03777683 97.07945572 27.02050095 102.03971532 27 107 C29.31 107.66 31.62 108.32 34 109 C33 111 33 111 31.34521484 111.61450195 C26.49200924 112.41225457 21.54404055 112.18590312 16.63769531 112.18530273 C14.63863013 112.18748512 12.63960468 112.20599143 10.640625 112.22460938 C9.36960937 112.22654297 8.09859375 112.22847656 6.7890625 112.23046875 C5.63100098 112.23457764 4.47293945 112.23868652 3.27978516 112.24291992 C-0.11310954 111.99162245 -2.83332989 111.21173908 -6 110 C-5.67 109.34 -5.34 108.68 -5 108 C-2.4375 107.375 -2.4375 107.375 0 107 C-0.67857056 106.99191315 -1.35714111 106.98382629 -2.05627441 106.97549438 C-9.19572947 106.88863335 -16.33493245 106.7891071 -23.47412109 106.68261719 C-26.12938188 106.64363425 -28.7845665 106.60971702 -31.43994141 106.578125 C-69.71387295 106.11716685 -69.71387295 106.11716685 -79 101 C-79 99.35 -79 97.7 -79 96 C-82.153368 95.29925156 -84.72724974 95 -88 95 C-90 92 -90 92 -90 89 C-89.01 88.505 -89.01 88.505 -88 88 C-87.34227572 84.97065509 -87.34227572 84.97065509 -87 82 C-87.99 81.67 -88.98 81.34 -90 81 C-89.6875 78.625 -89.6875 78.625 -89 76 C-87.515 75.01 -87.515 75.01 -86 74 C-84.65737935 74.29369827 -83.32303717 74.6278958 -82 75 C-80.515 74.505 -80.515 74.505 -79 74 C-79 72.35 -79 70.7 -79 69 C-77.35 69 -75.7 69 -74 69 C-74 66.36 -74 63.72 -74 61 C-78.29 61 -82.58 61 -87 61 C-87.02683436 57.68744674 -87.0467578 54.37510817 -87.0625 51.0625 C-87.07087891 50.11697266 -87.07925781 49.17144531 -87.08789062 48.19726562 C-87.09111328 47.29814453 -87.09433594 46.39902344 -87.09765625 45.47265625 C-87.10289307 44.64000244 -87.10812988 43.80734863 -87.11352539 42.94946289 C-87 41 -87 41 -86 40 C-83.98035801 39.92755947 -81.95832876 39.91622812 -79.9375 39.9375 C-78.28041016 39.95103516 -78.28041016 39.95103516 -76.58984375 39.96484375 C-75.73519531 39.97644531 -74.88054687 39.98804688 -74 40 C-74 38.02 -74 36.04 -74 34 C-80.6 34 -87.2 34 -94 34 C-94 33.67 -94 33.34 -94 33 C-91.03 32.505 -91.03 32.505 -88 32 C-87.67 30.68 -87.34 29.36 -87 28 C-88.98 28 -90.96 28 -93 28 C-93 27.67 -93 27.34 -93 27 C-91.35 26.67 -89.7 26.34 -88 26 C-87.67 24.68 -87.34 23.36 -87 22 C-88.98 22 -90.96 22 -93 22 C-93 21.67 -93 21.34 -93 21 C-91.35 20.67 -89.7 20.34 -88 20 C-87.67 18.68 -87.34 17.36 -87 16 C-88.98 16 -90.96 16 -93 16 C-93 15.67 -93 15.34 -93 15 C-87.11060037 12.95887931 -81.8280285 12.72721958 -75.625 12.8125 C-74.25408203 12.8134668 -74.25408203 12.8134668 -72.85546875 12.81445312 C-66.14064837 12.85935163 -66.14064837 12.85935163 -65 14 C-63.22130274 14.15764405 -61.43681524 14.25100677 -59.65234375 14.31640625 C-58.57275391 14.35830078 -57.49316406 14.40019531 -56.38085938 14.44335938 C-54.67639648 14.50233398 -54.67639648 14.50233398 -52.9375 14.5625 C-51.79732422 14.60568359 -50.65714844 14.64886719 -49.48242188 14.69335938 C-46.65507805 14.79982839 -43.82764262 14.90184207 -41 15 C-41 15.33 -41 15.66 -41 16 C-49.25 16 -57.5 16 -66 16 C-65.67 17.32 -65.34 18.64 -65 20 C-62.36 20.33 -59.72 20.66 -57 21 C-57 21.33 -57 21.66 -57 22 C-59.97 22 -62.94 22 -66 22 C-66 24.64 -66 27.28 -66 30 C-63.69 30 -61.38 30 -59 30 C-58.67 28.68 -58.34 27.36 -58 26 C-35.23 25.505 -35.23 25.505 -12 25 C-12 24.34 -12 23.68 -12 23 C-13.98 22.67 -15.96 22.34 -18 22 C-17.67 19.03 -17.34 16.06 -17 13 C-15.88625 12.731875 -14.7725 12.46375 -13.625 12.1875 C-9.78159049 11.34190981 -9.78159049 11.34190981 -8 8 C-8.31506627 4.85778033 -8.31506627 4.85778033 -9 2 C-5.62902617 0.50178941 -3.79557881 0 0 0 Z M-4 13 C-6.2084626 16.31269391 -6.80664241 18.14978851 -6.5546875 22.0625 C-5.4812192 25.81207941 -3.28696911 27.01541488 0 29 C2.63836977 29.1672392 2.63836977 29.1672392 5 29 C5.03738281 28.01257813 5.07476562 27.02515625 5.11328125 26.0078125 C5.17902344 24.72648437 5.24476562 23.44515625 5.3125 22.125 C5.37050781 20.84882812 5.42851563 19.57265625 5.48828125 18.2578125 C5.65714844 17.18273437 5.82601562 16.10765625 6 15 C6.99 14.34 7.98 13.68 9 13 C7.01607489 10.60148679 7.01607489 10.60148679 3.1875 10.5625 C-0.17733329 10.66669338 -1.04370031 11.02913354 -4 13 Z M27 46 C26.6366844 48.83386167 26.6431329 50.40522151 28.125 52.875 C30.92151052 54.55290631 32.93690532 53.74875648 36 53 C36.67673447 49.59679066 36.67673447 49.59679066 37 46 C35.11499729 43.68436913 35.11499729 43.68436913 32 43.75 C28.88500271 43.68436913 28.88500271 43.68436913 27 46 Z M-80.25 79.625 C-82.21985834 81.92308586 -82.21985834 81.92308586 -82.5 85 C-82.21376982 88.06575838 -82.21376982 88.06575838 -80.3125 90.375 C-77.61209763 92.27258004 -76.22939919 92.35882213 -73 92 C-72.85024761 84.94348748 -72.85024761 84.94348748 -74 78 C-77.92212225 77.60967296 -77.92212225 77.60967296 -80.25 79.625 Z M-68 94 C-68.99 94.66 -69.98 95.32 -71 96 C-71 96.99 -71 97.98 -71 99 C-67.52060949 98.85923111 -64.04154941 98.71144333 -60.5625 98.5625 C-59.58861328 98.52318359 -58.61472656 98.48386719 -57.61132812 98.44335938 C-51.69938401 98.18631833 -45.87354003 97.72280379 -40 97 C-39.67 96.01 -39.34 95.02 -39 94 C-42.79165074 93.9710663 -46.58327327 93.95322399 -50.375 93.9375 C-51.99535156 93.92493164 -51.99535156 93.92493164 -53.6484375 93.91210938 C-54.6796875 93.90888672 -55.7109375 93.90566406 -56.7734375 93.90234375 C-58.20308838 93.89448853 -58.20308838 93.89448853 -59.66162109 93.88647461 C-62.02324406 93.84357401 -62.02324406 93.84357401 -64 95 C-64.9590625 94.7215625 -64.9590625 94.7215625 -65.9375 94.4375 C-66.9584375 94.2209375 -66.9584375 94.2209375 -68 94 Z M-15 94 C-15 94.99 -15 95.98 -15 97 C-9.72 97.33 -4.44 97.66 1 98 C1 96.68 1 95.36 1 94 C-4.28 94 -9.56 94 -15 94 Z " fill="#5934FF" transform="translate(100,19)"/>
<path d="M0 0 C2.31 0 4.62 0 7 0 C7 2.97 7 5.94 7 9 C10.3 9 13.6 9 17 9 C17 15.6 17 22.2 17 29 C12.71 29 8.42 29 4 29 C4 29.66 4 30.32 4 31 C12.79133718 32.42426407 12.79133718 32.42426407 29 32 C29 45.2 29 58.4 29 72 C31.31 72.66 33.62 73.32 36 74 C35 76 35 76 33.34521484 76.61450195 C28.49200924 77.41225457 23.54404055 77.18590312 18.63769531 77.18530273 C16.63863013 77.18748512 14.63960468 77.20599143 12.640625 77.22460938 C11.36960937 77.22654297 10.09859375 77.22847656 8.7890625 77.23046875 C7.63100098 77.23457764 6.47293945 77.23868652 5.27978516 77.24291992 C1.88689046 76.99162245 -0.83332989 76.21173908 -4 75 C-3.67 74.34 -3.34 73.68 -3 73 C-0.4375 72.375 -0.4375 72.375 2 72 C1.32142944 71.99191315 0.64285889 71.98382629 -0.05627441 71.97549438 C-7.19572947 71.88863335 -14.33493245 71.7891071 -21.47412109 71.68261719 C-24.12938188 71.64363425 -26.7845665 71.60971702 -29.43994141 71.578125 C-67.71387295 71.11716685 -67.71387295 71.11716685 -77 66 C-77 64.35 -77 62.7 -77 61 C-80.153368 60.29925156 -82.72724974 60 -86 60 C-88 57 -88 57 -88 54 C-87.01 53.505 -87.01 53.505 -86 53 C-85.34227572 49.97065509 -85.34227572 49.97065509 -85 47 C-85.99 46.67 -86.98 46.34 -88 46 C-87.6875 43.625 -87.6875 43.625 -87 41 C-86.01 40.34 -85.02 39.68 -84 39 C-82.65737935 39.29369827 -81.32303717 39.6278958 -80 40 C-78.515 39.505 -78.515 39.505 -77 39 C-77 37.35 -77 35.7 -77 34 C-75.35 34 -73.7 34 -72 34 C-72 36.97 -72 39.94 -72 43 C-72.969375 43.28875 -73.93875 43.5775 -74.9375 43.875 C-78.10664203 44.64214682 -78.10664203 44.64214682 -79 47 C-79.40270732 51.1283652 -79.40270732 51.1283652 -77.8125 54.8125 C-75.57968261 56.27538036 -73.62655933 56.64505955 -71 57 C-71 54.03 -71 51.06 -71 48 C-65.72 48 -60.44 48 -55 48 C-55 47.34 -55 46.68 -55 46 C-55.61875 45.731875 -56.2375 45.46375 -56.875 45.1875 C-59 44 -59 44 -61 41 C-57.90347804 37.72653393 -55.04980088 35.02490044 -51 33 C-50.01 33 -49.02 33 -48 33 C-48 34.32 -48 35.64 -48 37 C-47.34 37 -46.68 37 -46 37 C-44.25 38.4375 -44.25 38.4375 -43 41 C-43.34633022 44.09565935 -44.11434914 47.01809638 -45 50 C-43.02 50 -41.04 50 -39 50 C-38.505 49.01 -38.505 49.01 -38 48 C-24.47 48 -10.94 48 3 48 C3 46.35 3 44.7 3 43 C-10.53 43 -24.06 43 -38 43 C-38 35 -38 35 -36 32 C-35.44143311 31.12698242 -34.88286621 30.25396484 -34.30737305 29.35449219 C-32 27 -32 27 -28.80786133 26.35644531 C-27.5783374 26.34709961 -26.34881348 26.33775391 -25.08203125 26.328125 C-24.09525642 26.30900055 -24.09525642 26.30900055 -23.08854675 26.28948975 C-20.9960892 26.25326371 -18.90524322 26.25048126 -16.8125 26.25 C-14.70964503 26.22840272 -12.60703406 26.19999357 -10.50431824 26.16766357 C-8.60432267 26.14178011 -6.70411217 26.13346782 -4.80395508 26.12597656 C-2.09531789 26.32020362 -2.09531789 26.32020362 -1 25 C-0.84213692 23.14825294 -0.74892644 21.2909089 -0.68359375 19.43359375 C-0.64169922 18.30888672 -0.59980469 17.18417969 -0.55664062 16.02539062 C-0.51732422 14.84138672 -0.47800781 13.65738281 -0.4375 12.4375 C-0.37272461 10.65569336 -0.37272461 10.65569336 -0.30664062 8.83789062 C-0.20016454 5.89205216 -0.09815159 2.9461257 0 0 Z M-66 59 C-66.99 59.66 -67.98 60.32 -69 61 C-69 61.99 -69 62.98 -69 64 C-65.52060949 63.85923111 -62.04154941 63.71144333 -58.5625 63.5625 C-57.58861328 63.52318359 -56.61472656 63.48386719 -55.61132812 63.44335938 C-49.69938401 63.18631833 -43.87354003 62.72280379 -38 62 C-37.67 61.01 -37.34 60.02 -37 59 C-40.79165074 58.9710663 -44.58327327 58.95322399 -48.375 58.9375 C-49.99535156 58.92493164 -49.99535156 58.92493164 -51.6484375 58.91210938 C-52.6796875 58.90888672 -53.7109375 58.90566406 -54.7734375 58.90234375 C-56.20308838 58.89448853 -56.20308838 58.89448853 -57.66162109 58.88647461 C-60.02324406 58.84357401 -60.02324406 58.84357401 -62 60 C-62.9590625 59.7215625 -62.9590625 59.7215625 -63.9375 59.4375 C-64.9584375 59.2209375 -64.9584375 59.2209375 -66 59 Z M-13 59 C-13 59.99 -13 60.98 -13 62 C-7.72 62.33 -2.44 62.66 3 63 C3 61.68 3 60.36 3 59 C-2.28 59 -7.56 59 -13 59 Z " fill="#5E4EF1" transform="translate(98,54)"/>
<path d="M0 0 C0 1.32 0 2.64 0 4 C0.66 4 1.32 4 2 4 C3.75 5.4375 3.75 5.4375 5 8 C4.65366978 11.09565935 3.88565086 14.01809638 3 17 C4.98 17 6.96 17 9 17 C9.33 16.34 9.66 15.68 10 15 C23.53 15 37.06 15 51 15 C51 18.63 51 22.26 51 26 C45.72 26 40.44 26 35 26 C35 26.99 35 27.98 35 29 C35.56847656 28.98839844 36.13695313 28.97679688 36.72265625 28.96484375 C41.60670484 28.90776806 46.18503965 29.18043228 51 30 C51 32.64 51 35.28 51 38 C43.71409984 38.04682155 36.42823335 38.08211748 29.14221191 38.10362434 C25.75718789 38.11395864 22.37226851 38.12792229 18.98730469 38.15087891 C-19.19659942 38.390763 -19.19659942 38.390763 -29 33 C-29 31.35 -29 29.7 -29 28 C-32.153368 27.29925156 -34.72724974 27 -38 27 C-40 24 -40 24 -40 21 C-39.34 20.67 -38.68 20.34 -38 20 C-37.34227572 16.97065509 -37.34227572 16.97065509 -37 14 C-37.99 13.67 -38.98 13.34 -40 13 C-39.6875 10.625 -39.6875 10.625 -39 8 C-38.01 7.34 -37.02 6.68 -36 6 C-34.65737935 6.29369827 -33.32303717 6.6278958 -32 7 C-31.01 6.67 -30.02 6.34 -29 6 C-29 4.35 -29 2.7 -29 1 C-27.35 1 -25.7 1 -24 1 C-24 3.97 -24 6.94 -24 10 C-24.969375 10.28875 -25.93875 10.5775 -26.9375 10.875 C-30.10664203 11.64214682 -30.10664203 11.64214682 -31 14 C-31.40270732 18.1283652 -31.40270732 18.1283652 -29.8125 21.8125 C-27.57968261 23.27538036 -25.62655933 23.64505955 -23 24 C-23 21.03 -23 18.06 -23 15 C-17.72 15 -12.44 15 -7 15 C-7 14.34 -7 13.68 -7 13 C-7.928125 12.5978125 -7.928125 12.5978125 -8.875 12.1875 C-11 11 -11 11 -13 8 C-5.43243243 0 -5.43243243 0 0 0 Z M-18 26 C-18.99 26.66 -19.98 27.32 -21 28 C-21 28.99 -21 29.98 -21 31 C-17.52060949 30.85923111 -14.04154941 30.71144333 -10.5625 30.5625 C-9.58861328 30.52318359 -8.61472656 30.48386719 -7.61132812 30.44335938 C-1.69938401 30.18631833 4.12645997 29.72280379 10 29 C10.33 28.01 10.66 27.02 11 26 C7.20834926 25.9710663 3.41672673 25.95322399 -0.375 25.9375 C-1.99535156 25.92493164 -1.99535156 25.92493164 -3.6484375 25.91210938 C-4.6796875 25.90888672 -5.7109375 25.90566406 -6.7734375 25.90234375 C-8.20308838 25.89448853 -8.20308838 25.89448853 -9.66162109 25.88647461 C-12.02324406 25.84357401 -12.02324406 25.84357401 -14 27 C-14.9590625 26.7215625 -14.9590625 26.7215625 -15.9375 26.4375 C-16.9584375 26.2209375 -16.9584375 26.2209375 -18 26 Z " fill="#BBD5FE" transform="translate(50,87)"/>
<path d="M0 0 C16.83 0 33.66 0 51 0 C51 10.23 51 20.46 51 31 C34.17 31 17.34 31 0 31 C0 20.77 0 10.54 0 0 Z " fill="#484B90" transform="translate(44,47)"/>
<path d="M0 0 C0.66 1.32 1.32 2.64 2 4 C6.42664564 4.30495485 6.42664564 4.30495485 10.375 2.5 C10.91125 2.005 11.4475 1.51 12 1 C14.31 2.65 16.62 4.3 19 6 C18.67 6.598125 18.34 7.19625 18 7.8125 C16.79212012 10.05386471 16.79212012 10.05386471 17 13 C18.21558594 13.06058594 19.43117187 13.12117188 20.68359375 13.18359375 C22.26824228 13.26798332 23.85287702 13.3526321 25.4375 13.4375 C26.64116211 13.49647461 26.64116211 13.49647461 27.86914062 13.55664062 C33.88671875 13.88671875 33.88671875 13.88671875 35 15 C35.08748207 16.92667507 35.10697334 18.85651861 35.09765625 20.78515625 C35.09443359 21.95498047 35.09121094 23.12480469 35.08789062 24.33007812 C35.07532227 26.17762695 35.07532227 26.17762695 35.0625 28.0625 C35.05798828 29.29806641 35.05347656 30.53363281 35.04882812 31.80664062 C35.03699608 34.87114117 35.02051173 37.93554721 35 41 C37.475 40.505 37.475 40.505 40 40 C40.99 41.65 41.98 43.3 43 45 C42.34 45.66 41.68 46.32 41 47 C41.350625 47.928125 41.70125 48.85625 42.0625 49.8125 C43 53 43 53 42 56 C40.35 56 38.7 56 37 56 C36.67 57.32 36.34 58.64 36 60 C34.02 60 32.04 60 30 60 C30 59.01 30 58.02 30 57 C27.69 57 25.38 57 23 57 C22.34 55.68 21.68 54.36 21 53 C21.66 52.01 22.32 51.02 23 50 C23 49.01 23 48.02 23 47 C22.34 47 21.68 47 21 47 C21 46.01 21 45.02 21 44 C20.34 44 19.68 44 19 44 C18.690625 42.88625 18.38125 41.7725 18.0625 40.625 C17.17673517 37.2054845 17.17673517 37.2054845 16 35 C16.66 35 17.32 35 18 35 C17.505 33.02 17.505 33.02 17 31 C10.73 30.67 4.46 30.34 -2 30 C-2 29.34 -2 28.68 -2 28 C0.31 28.33 2.62 28.66 5 29 C4.94779297 27.51886719 4.94779297 27.51886719 4.89453125 26.0078125 C4.86746094 24.72648437 4.84039062 23.44515625 4.8125 22.125 C4.76029297 20.21074219 4.76029297 20.21074219 4.70703125 18.2578125 C4.80371094 17.18273437 4.90039062 16.10765625 5 15 C5.99 14.34 6.98 13.68 8 13 C6.78410016 11.56844101 6.78410016 11.56844101 3.1875 11.6875 C0.21382315 11.74622611 -0.87751147 11.92650688 -3.5 13.5 C-5.71177972 17.18629954 -5.34421275 19.73176192 -5 24 C-4.67 24.66 -4.34 25.32 -4 26 C-6.31 26 -8.62 26 -11 26 C-11.33 25.01 -11.66 24.02 -12 23 C-13.98 22.67 -15.96 22.34 -18 22 C-17.505 17.545 -17.505 17.545 -17 13 C-15.329375 12.5978125 -15.329375 12.5978125 -13.625 12.1875 C-9.78159049 11.34190981 -9.78159049 11.34190981 -8 8 C-8.31506627 4.85778033 -8.31506627 4.85778033 -9 2 C-5.62902617 0.50178941 -3.79557881 0 0 0 Z M27 46 C26.6366844 48.83386167 26.6431329 50.40522151 28.125 52.875 C30.92151052 54.55290631 32.93690532 53.74875648 36 53 C36.67673447 49.59679066 36.67673447 49.59679066 37 46 C35.11499729 43.68436913 35.11499729 43.68436913 32 43.75 C28.88500271 43.68436913 28.88500271 43.68436913 27 46 Z " fill="#35D6CD" transform="translate(100,19)"/>
<path d="M0 0 C2.31 0 4.62 0 7 0 C7 2.97 7 5.94 7 9 C10.3 9 13.6 9 17 9 C17 15.6 17 22.2 17 29 C12.71 29 8.42 29 4 29 C3.67 33.62 3.34 38.24 3 43 C-10.53 43 -24.06 43 -38 43 C-38 35 -38 35 -36 32 C-35.44143311 31.12698242 -34.88286621 30.25396484 -34.30737305 29.35449219 C-32 27 -32 27 -28.80786133 26.35644531 C-27.5783374 26.34709961 -26.34881348 26.33775391 -25.08203125 26.328125 C-24.09525642 26.30900055 -24.09525642 26.30900055 -23.08854675 26.28948975 C-20.9960892 26.25326371 -18.90524322 26.25048126 -16.8125 26.25 C-14.70964503 26.22840272 -12.60703406 26.19999357 -10.50431824 26.16766357 C-8.60432267 26.14178011 -6.70411217 26.13346782 -4.80395508 26.12597656 C-2.09531789 26.32020362 -2.09531789 26.32020362 -1 25 C-0.84213692 23.14825294 -0.74892644 21.2909089 -0.68359375 19.43359375 C-0.62075195 17.7465332 -0.62075195 17.7465332 -0.55664062 16.02539062 C-0.51732422 14.84138672 -0.47800781 13.65738281 -0.4375 12.4375 C-0.37272461 10.65569336 -0.37272461 10.65569336 -0.30664062 8.83789062 C-0.20016454 5.89205216 -0.09815159 2.9461257 0 0 Z " fill="#7386FD" transform="translate(98,54)"/>
<path d="M0 0 C18.15 0 36.3 0 55 0 C55.495 1.98 55.495 1.98 56 4 C62.27 4 68.54 4 75 4 C76 9 76 9 76 11 C76.495 11.495 76.495 11.495 77 12 C77.08748207 13.92667507 77.10697334 15.85651861 77.09765625 17.78515625 C77.09282227 19.53989258 77.09282227 19.53989258 77.08789062 21.33007812 C77.07532227 23.17762695 77.07532227 23.17762695 77.0625 25.0625 C77.05798828 26.29806641 77.05347656 27.53363281 77.04882812 28.80664062 C77.03699608 31.87114117 77.02051173 34.93554721 77 38 C79.31 38 81.62 38 84 38 C84.33 38.99 84.66 39.98 85 41 C76.19039858 42.30512614 67.80960142 42.30512614 59 41 C59.33 40.01 59.66 39.02 60 38 C64.29 38 68.58 38 73 38 C73 31.4 73 24.8 73 18 C69.7 18 66.4 18 63 18 C63 15.03 63 12.06 63 9 C60.69 9 58.38 9 56 9 C56.01571045 10.12027588 56.01571045 10.12027588 56.03173828 11.26318359 C56.0732077 14.63375508 56.09929729 18.004273 56.125 21.375 C56.14175781 22.550625 56.15851563 23.72625 56.17578125 24.9375 C56.18544922 26.61972656 56.18544922 26.61972656 56.1953125 28.3359375 C56.21102295 29.89127197 56.21102295 29.89127197 56.22705078 31.47802734 C56 34 56 34 54 36 C51.76086426 36.25396729 51.76086426 36.25396729 48.93945312 36.25878906 C47.35771301 36.26824554 47.35771301 36.26824554 45.74401855 36.27789307 C44.60130493 36.2738446 43.45859131 36.26979614 42.28125 36.265625 C40.52802429 36.26849518 40.52802429 36.26849518 38.73937988 36.27142334 C36.26456487 36.27278626 33.78974274 36.26908241 31.31494141 36.26074219 C27.51578795 36.25004446 23.71710741 36.26063418 19.91796875 36.2734375 C17.51822812 36.27211592 15.11848778 36.26955357 12.71875 36.265625 C11.00467957 36.27169769 11.00467957 36.27169769 9.25598145 36.27789307 C8.20148804 36.27158875 7.14699463 36.26528442 6.06054688 36.25878906 C5.1294812 36.25719788 4.19841553 36.25560669 3.23913574 36.25396729 C1 36 1 36 -1 34 C-1.24291992 30.8671875 -1.24291992 30.8671875 -1.23046875 26.875 C-1.23001053 26.1722998 -1.22955231 25.46959961 -1.2290802 24.74560547 C-1.22605825 23.25942294 -1.21817359 21.77324356 -1.20581055 20.28710938 C-1.18757206 18.00900075 -1.18530075 15.73129896 -1.18554688 13.453125 C-1.14752629 2.29505259 -1.14752629 2.29505259 0 0 Z M2 2 C2 12.23 2 22.46 2 33 C18.83 33 35.66 33 53 33 C53 22.77 53 12.54 53 2 C36.17 2 19.34 2 2 2 Z " fill="#37D7C7" transform="translate(42,45)"/>
<path d="M0 0 C1.65 0 3.3 0 5 0 C5 2.97 5 5.94 5 9 C4.030625 9.28875 3.06125 9.5775 2.0625 9.875 C-1.10664203 10.64214682 -1.10664203 10.64214682 -2 13 C-2.45565588 17.050918 -2.45565588 17.050918 -0.80859375 20.5859375 C1.43603616 22.34091812 3.44563281 22.93971804 6.1875 23.6875 C7.08855469 23.93886719 7.98960938 24.19023438 8.91796875 24.44921875 C9.60503906 24.63097656 10.29210937 24.81273438 11 25 C10.67 25.66 10.34 26.32 10 27 C9.34 27 8.68 27 8 27 C8 27.99 8 28.98 8 30 C8.61931396 29.93941406 9.23862793 29.87882812 9.87670898 29.81640625 C12.72989582 29.53983674 15.5836732 29.26988266 18.4375 29 C19.41138672 28.90460938 20.38527344 28.80921875 21.38867188 28.7109375 C27.29048849 28.15825902 33.07255678 27.90192441 39 28 C38.67 28.66 38.34 29.32 38 30 C35.35139573 30.59355614 32.70802678 30.74209269 30 31 C30 31.66 30 32.32 30 33 C44.19 33 58.38 33 73 33 C72.67 32.34 72.34 31.68 72 31 C70.845 30.835 69.69 30.67 68.5 30.5 C67.345 30.335 66.19 30.17 65 30 C64.505 29.01 64.505 29.01 64 28 C69.45769811 27.88861841 74.61509359 28.08342019 80 29 C80 31.64 80 34.28 80 37 C72.71409984 37.04682155 65.42823335 37.08211748 58.14221191 37.10362434 C54.75718789 37.11395864 51.37226851 37.12792229 47.98730469 37.15087891 C9.80340058 37.390763 9.80340058 37.390763 0 32 C0 30.35 0 28.7 0 27 C-3.153368 26.29925156 -5.72724974 26 -9 26 C-11 23 -11 23 -11 20 C-10.34 19.67 -9.68 19.34 -9 19 C-8.34227572 15.97065509 -8.34227572 15.97065509 -8 13 C-8.99 12.67 -9.98 12.34 -11 12 C-10.6875 9.625 -10.6875 9.625 -10 7 C-9.01 6.34 -8.02 5.68 -7 5 C-5.65737935 5.29369827 -4.32303717 5.6278958 -3 6 C-2.01 5.67 -1.02 5.34 0 5 C0 3.35 0 1.7 0 0 Z " fill="#EAEBF2" transform="translate(21,88)"/>
<path d="M0 0 C9.24 0 18.48 0 28 0 C28 3.63 28 7.26 28 11 C22.72 11 17.44 11 12 11 C12.495 12.98 12.495 12.98 13 15 C15.31 15.33 17.62 15.66 20 16 C20.495 17.485 20.495 17.485 21 19 C6.81 19 -7.38 19 -22 19 C-22 18.34 -22 17.68 -22 17 C-19.98177083 16.609375 -17.96354167 16.21875 -15.9453125 15.828125 C-13.80018534 15.17507573 -13.80018534 15.17507573 -13.08203125 12.953125 C-12.72496094 12.30859375 -12.36789063 11.6640625 -12 11 C-9.50390625 10.53125 -9.50390625 10.53125 -6.5625 10.5 C-3.6652377 10.54984008 -3.6652377 10.54984008 -1 10 C0.87230856 8.08246104 0.87230856 8.08246104 2 6 C1.01 5.34 0.02 4.68 -1 4 C-0.67 2.68 -0.34 1.36 0 0 Z " fill="#B2CFFE" transform="translate(73,102)"/>
<path d="M0 0 C1.12019531 -0.00128906 2.24039063 -0.00257812 3.39453125 -0.00390625 C4.57402344 -0.00003906 5.75351562 0.00382812 6.96875 0.0078125 C8.73798828 0.00201172 8.73798828 0.00201172 10.54296875 -0.00390625 C12.22326172 -0.00197266 12.22326172 -0.00197266 13.9375 0 C14.97326172 0.00112793 16.00902344 0.00225586 17.07617188 0.00341797 C19.46875 0.1328125 19.46875 0.1328125 20.46875 1.1328125 C20.46875 4.4328125 20.46875 7.7328125 20.46875 11.1328125 C33.99875 11.1328125 47.52875 11.1328125 61.46875 11.1328125 C61.46875 12.7828125 61.46875 14.4328125 61.46875 16.1328125 C47.93875 16.1328125 34.40875 16.1328125 20.46875 16.1328125 C20.13875 17.1228125 19.80875 18.1128125 19.46875 19.1328125 C17.15875 19.1328125 14.84875 19.1328125 12.46875 19.1328125 C12.97749912 16.5890669 13.48373676 14.07695277 14.15625 11.5703125 C14.52189624 8.71827181 13.97698205 7.52823987 12.46875 5.1328125 C11.47875 5.4628125 10.48875 5.7928125 9.46875 6.1328125 C9.79875 4.4828125 10.12875 2.8328125 10.46875 1.1328125 C4.71540785 3.16340385 2.07653414 5.21310686 -1.53125 10.1328125 C-0.70625 10.7515625 0.11875 11.3703125 0.96875 12.0078125 C1.79375 12.7090625 2.61875 13.4103125 3.46875 14.1328125 C3.46875 14.7928125 3.46875 15.4528125 3.46875 16.1328125 C0.16875 16.1328125 -3.13125 16.1328125 -6.53125 16.1328125 C-6.55810095 13.65357449 -6.57801547 11.1746241 -6.59375 8.6953125 C-6.60631836 7.63473633 -6.60631836 7.63473633 -6.61914062 6.55273438 C-6.62778588 4.74587691 -6.58345011 2.93893647 -6.53125 1.1328125 C-4.78579395 -0.61264355 -2.37000783 0.0025809 0 0 Z " fill="#43A9E5" transform="translate(39.53125,85.8671875)"/>
<path d="M0 0 C2.64 0 5.28 0 8 0 C8 12.54 8 25.08 8 38 C-0.25 38 -8.5 38 -17 38 C-17.13392857 24.74107143 -17.13392857 24.74107143 -16 20 C-15.34 20 -14.68 20 -14 20 C-13.67 22.31 -13.34 24.62 -13 27 C-7.39 27.33 -1.78 27.66 4 28 C4 22.06 4 16.12 4 10 C0.7 10 -2.6 10 -6 10 C-4.68 8.35 -3.36 6.7 -2 5 C-2.33 4.67 -2.66 4.34 -3 4 C-2.67 3.34 -2.34 2.68 -2 2 C-1.34 2 -0.68 2 0 2 C0 1.34 0 0.68 0 0 Z " fill="#7285FE" transform="translate(119,86)"/>
<path d="M0 0 C0.83265381 0.00523682 1.66530762 0.01047363 2.52319336 0.01586914 C3.33280518 0.0183667 4.14241699 0.02086426 4.9765625 0.0234375 C6.01159912 0.0325415 7.04663574 0.04164551 8.11303711 0.05102539 C11.39241211 0.07165039 14.67178711 0.09227539 18.05053711 0.11352539 C18.05053711 7.04352539 18.05053711 13.97352539 18.05053711 21.11352539 C11.12053711 21.11352539 4.19053711 21.11352539 -2.94946289 21.11352539 C-2.97008789 17.83415039 -2.99071289 14.55477539 -3.01196289 11.17602539 C-3.02106689 10.14098877 -3.0301709 9.10595215 -3.03955078 8.03955078 C-3.04329712 6.82513306 -3.04329712 6.82513306 -3.04711914 5.58618164 C-3.05235596 4.75352783 -3.05759277 3.92087402 -3.06298828 3.06298828 C-2.90876673 0.41468917 -2.64829911 0.15422155 0 0 Z " fill="#36C9DD" transform="translate(15.949462890625,58.886474609375)"/>
<path d="M0 0 C0.66 1.32 1.32 2.64 2 4 C6.42664564 4.30495485 6.42664564 4.30495485 10.375 2.5 C10.91125 2.005 11.4475 1.51 12 1 C14.31 2.65 16.62 4.3 19 6 C18.67 6.5775 18.34 7.155 18 7.75 C16.72924102 10.19883862 16.72924102 10.19883862 17 14 C10.9453125 14.1953125 10.9453125 14.1953125 9 14 C8.34 13.34 7.68 12.68 7 12 C1.45764755 11.42765564 1.45764755 11.42765564 -3.5 13.5 C-5.71177972 17.18629954 -5.34421275 19.73176192 -5 24 C-4.67 24.66 -4.34 25.32 -4 26 C-6.31 26 -8.62 26 -11 26 C-11.33 25.01 -11.66 24.02 -12 23 C-13.98 22.67 -15.96 22.34 -18 22 C-17.505 17.545 -17.505 17.545 -17 13 C-15.329375 12.5978125 -15.329375 12.5978125 -13.625 12.1875 C-9.78159049 11.34190981 -9.78159049 11.34190981 -8 8 C-8.31506627 4.85778033 -8.31506627 4.85778033 -9 2 C-5.62902617 0.50178941 -3.79557881 0 0 0 Z " fill="#E9EBF2" transform="translate(100,19)"/>
<path d="M0 0 C6.27 0 12.54 0 19 0 C20 5 20 5 20 7 C20.33 7.33 20.66 7.66 21 8 C21.08748207 9.92667507 21.10697334 11.85651861 21.09765625 13.78515625 C21.09443359 14.95498047 21.09121094 16.12480469 21.08789062 17.33007812 C21.07951172 18.56177734 21.07113281 19.79347656 21.0625 21.0625 C21.05798828 22.29806641 21.05347656 23.53363281 21.04882812 24.80664062 C21.03699608 27.87114117 21.02051173 30.93554721 21 34 C23.31 34 25.62 34 28 34 C28.33 34.99 28.66 35.98 29 37 C20.19039858 38.30512614 11.80960142 38.30512614 3 37 C3.33 36.01 3.66 35.02 4 34 C8.29 34 12.58 34 17 34 C17 27.4 17 20.8 17 14 C13.7 14 10.4 14 7 14 C7 11.03 7 8.06 7 5 C4.69 5 2.38 5 0 5 C0 3.35 0 1.7 0 0 Z " fill="#39C5D7" transform="translate(98,49)"/>
<path d="M0 0 C0.33 0 0.66 0 1 0 C1.33 5.94 1.66 11.88 2 18 C3.65 17.01 5.3 16.02 7 15 C7.66 16.32 8.32 17.64 9 19 C16.59 19.33 24.18 19.66 32 20 C31.01 22.31 30.02 24.62 29 27 C28.01 27.33 27.02 27.66 26 28 C25.505 27.01 25.505 27.01 25 26 C16.75 26 8.5 26 0 26 C-0.33 30.95 -0.66 35.9 -1 41 C-3.31 41 -5.62 41 -8 41 C-8 33.74 -8 26.48 -8 19 C-5.36 19 -2.72 19 0 19 C0 12.73 0 6.46 0 0 Z " fill="#5E52FD" transform="translate(34,61)"/>
<path d="M0 0 C1.51400391 0.01740234 1.51400391 0.01740234 3.05859375 0.03515625 C4.07050781 0.04417969 5.08242187 0.05320313 6.125 0.0625 C7.29869141 0.07990234 7.29869141 0.07990234 8.49609375 0.09765625 C8.82609375 1.08765625 9.15609375 2.07765625 9.49609375 3.09765625 C10.21796875 3.18015625 10.93984375 3.26265625 11.68359375 3.34765625 C15.08536243 4.25479456 16.95075459 5.69776504 19.49609375 8.09765625 C19.49609375 8.75765625 19.49609375 9.41765625 19.49609375 10.09765625 C21.14609375 10.09765625 22.79609375 10.09765625 24.49609375 10.09765625 C24.99109375 12.07765625 24.99109375 12.07765625 25.49609375 14.09765625 C24.64059937 14.13524048 24.64059937 14.13524048 23.76782227 14.17358398 C21.19783218 14.28922174 18.62823848 14.41209249 16.05859375 14.53515625 C15.16076172 14.57447266 14.26292969 14.61378906 13.33789062 14.65429688 C12.05688477 14.71713867 12.05688477 14.71713867 10.75 14.78125 C9.95924072 14.81790771 9.16848145 14.85456543 8.35375977 14.89233398 C6.48207934 14.90328882 6.48207934 14.90328882 5.49609375 16.09765625 C2.79954521 16.17085246 0.12917917 16.19008162 -2.56640625 16.16015625 C-3.32501953 16.15564453 -4.08363281 16.15113281 -4.86523438 16.14648438 C-6.74482496 16.13466305 -8.62437524 16.11672703 -10.50390625 16.09765625 C-10.50390625 15.43765625 -10.50390625 14.77765625 -10.50390625 14.09765625 C-8.19390625 14.42765625 -5.88390625 14.75765625 -3.50390625 15.09765625 C-3.51550781 14.09863281 -3.52710937 13.09960938 -3.5390625 12.0703125 C-3.54808594 10.77996094 -3.55710937 9.48960938 -3.56640625 8.16015625 C-3.57800781 6.87238281 -3.58960937 5.58460937 -3.6015625 4.2578125 C-3.47417331 0.13549818 -3.47417331 0.13549818 0 0 Z " fill="#6DD4E3" transform="translate(108.50390625,32.90234375)"/>
<path d="M0 0 C1.58206422 0.00574487 3.16410406 0.01876032 4.74609375 0.03515625 C7.53046875 0.05578125 10.31484375 0.07640625 13.18359375 0.09765625 C13.18359375 6.03765625 13.18359375 11.97765625 13.18359375 18.09765625 C10.39921875 18.11828125 7.61484375 18.13890625 4.74609375 18.16015625 C3.86767822 18.16926025 2.9892627 18.17836426 2.08422852 18.18774414 C0.11713401 18.19488716 -1.84994246 18.14797518 -3.81640625 18.09765625 C-5.63756628 16.27649622 -4.94875705 13.79093861 -4.953125 11.37109375 C-4.94925781 10.62085937 -4.94539063 9.870625 -4.94140625 9.09765625 C-4.94527344 8.34742187 -4.94914062 7.5971875 -4.953125 6.82421875 C-4.94103514 0.12643386 -4.94103514 0.12643386 0 0 Z " fill="#DEF4F8" transform="translate(109.81640625,95.90234375)"/>
<path d="M0 0 C5.61 0 11.22 0 17 0 C17 5.61 17 11.22 17 17 C11.39 17 5.78 17 0 17 C0 11.39 0 5.78 0 0 Z " fill="#3F4D99" transform="translate(15,34)"/>
<path d="M0 0 C1.54763107 0.03306904 3.09488416 0.09247018 4.640625 0.17578125 C5.82978516 0.20961914 5.82978516 0.20961914 7.04296875 0.24414062 C8.9930012 0.30287654 10.94205812 0.39255471 12.890625 0.48828125 C12.560625 1.14828125 12.230625 1.80828125 11.890625 2.48828125 C11.58125 3.14828125 11.271875 3.80828125 10.953125 4.48828125 C9.22463702 7.74190569 7.13601682 8.97376507 3.890625 10.48828125 C4.880625 10.81828125 5.870625 11.14828125 6.890625 11.48828125 C6.560625 12.14828125 6.230625 12.80828125 5.890625 13.48828125 C5.230625 13.48828125 4.570625 13.48828125 3.890625 13.48828125 C4.220625 14.47828125 4.550625 15.46828125 4.890625 16.48828125 C-0.059375 16.48828125 -5.009375 16.48828125 -10.109375 16.48828125 C-10.359375 8.86328125 -10.359375 8.86328125 -8.109375 5.48828125 C-7.58859375 4.60785156 -7.0678125 3.72742188 -6.53125 2.8203125 C-3.88852422 0.27562332 -3.45846172 0.13781493 0 0 Z " fill="#6C72FE" transform="translate(70.109375,80.51171875)"/>
<path d="M0 0 C0 1.32 0 2.64 0 4 C0.66 4 1.32 4 2 4 C3.75 5.4375 3.75 5.4375 5 8 C4.24031008 15.75968992 4.24031008 15.75968992 2 18 C0.65732587 18.08631874 -0.68974322 18.10706473 -2.03515625 18.09765625 C-2.84404297 18.09443359 -3.65292969 18.09121094 -4.48632812 18.08789062 C-5.33646484 18.07951172 -6.18660156 18.07113281 -7.0625 18.0625 C-7.91650391 18.05798828 -8.77050781 18.05347656 -9.65039062 18.04882812 C-11.76695663 18.03700373 -13.88348685 18.01906769 -16 18 C-16.33 17.01 -16.66 16.02 -17 15 C-13.7 15 -10.4 15 -7 15 C-7 14.34 -7 13.68 -7 13 C-7.61875 12.731875 -8.2375 12.46375 -8.875 12.1875 C-11 11 -11 11 -13 8 C-5.43243243 0 -5.43243243 0 0 0 Z " fill="#41D9CD" transform="translate(50,87)"/>
<path d="M0 0 C1.37091797 0.0009668 1.37091797 0.0009668 2.76953125 0.00195312 C9.48435163 0.04685163 9.48435163 0.04685163 10.625 1.1875 C12.40369726 1.34514405 14.18818476 1.43850677 15.97265625 1.50390625 C17.05224609 1.54580078 18.13183594 1.58769531 19.24414062 1.63085938 C20.94860352 1.68983398 20.94860352 1.68983398 22.6875 1.75 C23.82767578 1.79318359 24.96785156 1.83636719 26.14257812 1.88085938 C28.96992195 1.98732839 31.79735738 2.08934207 34.625 2.1875 C34.625 2.5175 34.625 2.8475 34.625 3.1875 C26.375 3.1875 18.125 3.1875 9.625 3.1875 C9.955 4.5075 10.285 5.8275 10.625 7.1875 C13.265 7.5175 15.905 7.8475 18.625 8.1875 C18.625 8.5175 18.625 8.8475 18.625 9.1875 C15.655 9.1875 12.685 9.1875 9.625 9.1875 C9.625 13.1475 9.625 17.1075 9.625 21.1875 C0.385 21.1875 -8.855 21.1875 -18.375 21.1875 C-18.375 20.8575 -18.375 20.5275 -18.375 20.1875 C-16.395 19.8575 -14.415 19.5275 -12.375 19.1875 C-12.045 17.8675 -11.715 16.5475 -11.375 15.1875 C-13.355 15.1875 -15.335 15.1875 -17.375 15.1875 C-17.375 14.8575 -17.375 14.5275 -17.375 14.1875 C-15.725 13.8575 -14.075 13.5275 -12.375 13.1875 C-12.045 11.8675 -11.715 10.5475 -11.375 9.1875 C-13.355 9.1875 -15.335 9.1875 -17.375 9.1875 C-17.375 8.8575 -17.375 8.5275 -17.375 8.1875 C-15.725 7.8575 -14.075 7.5275 -12.375 7.1875 C-12.045 5.8675 -11.715 4.5475 -11.375 3.1875 C-13.355 3.1875 -15.335 3.1875 -17.375 3.1875 C-17.375 2.8575 -17.375 2.5275 -17.375 2.1875 C-11.48560037 0.14637931 -6.2030285 -0.08528042 0 0 Z M-9.375 2.1875 C-9.375 7.7975 -9.375 13.4075 -9.375 19.1875 C-3.765 19.1875 1.845 19.1875 7.625 19.1875 C7.625 13.5775 7.625 7.9675 7.625 2.1875 C2.015 2.1875 -3.595 2.1875 -9.375 2.1875 Z " fill="#88DCE3" transform="translate(24.375,31.8125)"/>
<path d="M0 0 C13.53 0 27.06 0 41 0 C41 1.65 41 3.3 41 5 C27.47 5 13.94 5 0 5 C0 3.35 0 1.7 0 0 Z " fill="#3C3D89" transform="translate(60,97)"/>
<path d="M0 0 C0.5775 0.680625 1.155 1.36125 1.75 2.0625 C0.76 3.5475 0.76 3.5475 -0.25 5.0625 C0.3788189 7.07472047 1.04618843 9.07526732 1.75 11.0625 C1.42 12.0525 1.09 13.0425 0.75 14.0625 C-0.9 14.0625 -2.55 14.0625 -4.25 14.0625 C-4.58 15.3825 -4.91 16.7025 -5.25 18.0625 C-7.23 18.0625 -9.21 18.0625 -11.25 18.0625 C-11.25 17.0725 -11.25 16.0825 -11.25 15.0625 C-13.56 15.0625 -15.87 15.0625 -18.25 15.0625 C-18.91 13.7425 -19.57 12.4225 -20.25 11.0625 C-19.59 10.0725 -18.93 9.0825 -18.25 8.0625 C-18.25 7.0725 -18.25 6.0825 -18.25 5.0625 C-18.91 5.0625 -19.57 5.0625 -20.25 5.0625 C-20.25 4.0725 -20.25 3.0825 -20.25 2.0625 C-17.61 2.0625 -14.97 2.0625 -12.25 2.0625 C-12.45625 3.17625 -12.6625 4.29 -12.875 5.4375 C-13.060625 7.231875 -13.060625 7.231875 -13.25 9.0625 C-11.35244856 11.41223818 -11.35244856 11.41223818 -8.125 11.1875 C-6.701875 11.125625 -6.701875 11.125625 -5.25 11.0625 C-4.95437633 5.74079506 -4.95437633 5.74079506 -7.25 1.0625 C-6.25 -0.9375 -6.25 -0.9375 -4.4375 -1.8125 C-2.25 -1.9375 -2.25 -1.9375 0 0 Z " fill="#EAEBF2" transform="translate(141.25,60.9375)"/>
<path d="M0 0 C0.99 0 1.98 0 3 0 C3 9.57 3 19.14 3 29 C11.25 29 19.5 29 28 29 C28 29.33 28 29.66 28 30 C41.365 30.495 41.365 30.495 55 31 C55 31.33 55 31.66 55 32 C47.48863592 32.05057965 39.97731551 32.08568257 32.46582031 32.10986328 C29.90883747 32.11994038 27.35186621 32.13360226 24.79492188 32.15087891 C21.12627308 32.17505217 17.45777621 32.18646585 13.7890625 32.1953125 C12.0655809 32.21079636 12.0655809 32.21079636 10.30728149 32.22659302 C9.2463327 32.22674408 8.18538391 32.22689514 7.09228516 32.22705078 C6.15518707 32.231492 5.21808899 32.23593323 4.25259399 32.24050903 C2 32 2 32 0 30 C-0.22705078 27.01904297 -0.22705078 27.01904297 -0.1953125 23.2421875 C-0.1924826 22.57913605 -0.18965271 21.91608459 -0.18673706 21.23294067 C-0.17553435 19.11344417 -0.15043051 16.99436896 -0.125 14.875 C-0.11497028 13.43880818 -0.10584441 12.00260975 -0.09765625 10.56640625 C-0.075595 7.04413372 -0.04106494 3.52210797 0 0 Z " fill="#43ABE3" transform="translate(41,49)"/>
<path d="M0 0 C1.98 0 3.96 0 6 0 C6.33 0.66 6.66 1.32 7 2 C9.71446979 2.31241455 12.33909361 2.51336592 15.0625 2.625 C16.20041992 2.68300781 16.20041992 2.68300781 17.36132812 2.7421875 C19.24047195 2.83673562 21.12020336 2.91946756 23 3 C21.203125 8.84375 21.203125 8.84375 19.375 10.25 C18.59125 10.4975 17.8075 10.745 17 11 C15.783125 11.433125 14.56625 11.86625 13.3125 12.3125 C8.27116844 13.55621833 4.70728939 11.91233632 0 10 C0 6.7 0 3.4 0 0 Z " fill="#C5DCFE" transform="translate(27,102)"/>
<path d="M0 0 C0.33 0.66 0.66 1.32 1 2 C0.67 2.99 0.34 3.98 0 5 C7.26 5.33 14.52 5.66 22 6 C22 6.66 22 7.32 22 8 C7.81 8 -6.38 8 -21 8 C-21 7.34 -21 6.68 -21 6 C-19.72125 5.7525 -18.4425 5.505 -17.125 5.25 C-14.91983176 4.76256896 -14.91983176 4.76256896 -13 4 C-12.31731862 2.67479497 -11.6492959 1.34187818 -11 0 C-7.18426398 -0.91860312 -3.70172441 -1.56611417 0 0 Z " fill="#9FC3FE" transform="translate(72,113)"/>
<path d="M0 0 C1.32 0 2.64 0 4 0 C4 6.6 4 13.2 4 20 C6.31 20 8.62 20 11 20 C11.33 20.99 11.66 21.98 12 23 C3.19039858 24.30512614 -5.19039858 24.30512614 -14 23 C-13.505 21.515 -13.505 21.515 -13 20 C-8.71 20 -4.42 20 0 20 C0 13.4 0 6.8 0 0 Z " fill="#4C4CA1" transform="translate(115,63)"/>
<path d="M0 0 C2.31 0 4.62 0 7 0 C7 2.97 7 5.94 7 9 C10.3 9 13.6 9 17 9 C17 11.97 17 14.94 17 18 C14.525 17.01 14.525 17.01 12 16 C12.66 15.67 13.32 15.34 14 15 C14 14.34 14 13.68 14 13 C10.7 13 7.4 13 4 13 C3.67 14.32 3.34 15.64 3 17 C2.01 17.33 1.02 17.66 0 18 C0 12.06 0 6.12 0 0 Z " fill="#6E79FE" transform="translate(98,54)"/>
<path d="M0 0 C1.31871094 -0.01224609 2.63742188 -0.02449219 3.99609375 -0.03710938 C5.90068359 -0.04000977 5.90068359 -0.04000977 7.84375 -0.04296875 C9.00068359 -0.04707764 10.15761719 -0.05118652 11.34960938 -0.05541992 C14.47736509 0.18575467 16.680892 0.85423629 19.5 2.1875 C18.5 4.1875 18.5 4.1875 16.84521484 4.80200195 C11.99200924 5.59975457 7.04404055 5.37340312 2.13769531 5.37280273 C0.13863013 5.37498512 -1.86039532 5.39349143 -3.859375 5.41210938 C-5.13039063 5.41404297 -6.40140625 5.41597656 -7.7109375 5.41796875 C-8.86899902 5.42207764 -10.02706055 5.42618652 -11.22021484 5.43041992 C-14.61310954 5.17912245 -17.33332989 4.39923908 -20.5 3.1875 C-20.17 2.5275 -19.84 1.8675 -19.5 1.1875 C-13.23640183 -0.60566158 -6.45139424 0.00315317 0 0 Z " fill="#EAEBF2" transform="translate(114.5,125.8125)"/>
<path d="M0 0 C1.58206422 0.00574487 3.16410406 0.01876032 4.74609375 0.03515625 C7.53046875 0.05578125 10.31484375 0.07640625 13.18359375 0.09765625 C13.18359375 6.03765625 13.18359375 11.97765625 13.18359375 18.09765625 C10.39921875 18.11828125 7.61484375 18.13890625 4.74609375 18.16015625 C3.86767822 18.16926025 2.9892627 18.17836426 2.08422852 18.18774414 C0.11713401 18.19488716 -1.84994246 18.14797518 -3.81640625 18.09765625 C-5.63756628 16.27649622 -4.94875705 13.79093861 -4.953125 11.37109375 C-4.94925781 10.62085937 -4.94539063 9.870625 -4.94140625 9.09765625 C-4.94527344 8.34742187 -4.94914062 7.5971875 -4.953125 6.82421875 C-4.94103514 0.12643386 -4.94103514 0.12643386 0 0 Z M-1.25390625 3.72265625 C-3.31432396 6.85449117 -3.49316075 8.41310398 -2.81640625 12.09765625 C-0.83674362 15.16073256 -0.83674362 15.16073256 2.18359375 17.09765625 C5.84801291 17.17244031 7.5827426 16.52457681 10.55859375 14.41015625 C12.69777126 11.3659421 12.79176421 9.74667903 12.18359375 6.09765625 C10.74698064 3.57758781 10.74698064 3.57758781 8.18359375 2.09765625 C4.20871758 1.5298168 2.11870154 1.47425106 -1.25390625 3.72265625 Z " fill="#46C6EA" transform="translate(109.81640625,95.90234375)"/>
<path d="M0 0 C2.64 0 5.28 0 8 0 C8.10792837 2.60527105 8.18724878 5.20608311 8.25 7.8125 C8.30027344 8.91948242 8.30027344 8.91948242 8.3515625 10.04882812 C8.390625 12.20703125 8.390625 12.20703125 8 16 C5.984375 18.01171875 5.984375 18.01171875 4 19 C4 16.03 4 13.06 4 10 C0.7 10 -2.6 10 -6 10 C-4.68 8.35 -3.36 6.7 -2 5 C-2.33 4.67 -2.66 4.34 -3 4 C-2.67 3.34 -2.34 2.68 -2 2 C-1.34 2 -0.68 2 0 2 C0 1.34 0 0.68 0 0 Z " fill="#665FFF" transform="translate(119,86)"/>
<path d="M0 0 C0.99 0 1.98 0 3 0 C3.02685412 2.31243792 3.04632841 4.6249627 3.0625 6.9375 C3.07410156 8.22527344 3.08570313 9.51304688 3.09765625 10.83984375 C3 14 3 14 2 15 C-0.53049402 15.07313567 -3.03304837 15.09247527 -5.5625 15.0625 C-6.62887695 15.05573242 -6.62887695 15.05573242 -7.71679688 15.04882812 C-9.47790013 15.03700864 -11.23896036 15.01907263 -13 15 C-13 14.34 -13 13.68 -13 13 C-6.95833333 8 -6.95833333 8 -4 8 C-3.71125 7.05125 -3.4225 6.1025 -3.125 5.125 C-2 2 -2 2 0 0 Z " fill="#35DDC4" transform="translate(132,48)"/>
<path d="M0 0 C0.99 0 1.98 0 3 0 C3 0.66 3 1.32 3 2 C4.65 2.33 6.3 2.66 8 3 C8 5.31 8 7.62 8 10 C7.360625 10.28875 6.72125 10.5775 6.0625 10.875 C3.84793921 11.82823451 3.84793921 11.82823451 3 14 C2.01 14 1.02 14 0 14 C0 13.01 0 12.02 0 11 C-1.65 10.67 -3.3 10.34 -5 10 C-5 7.69 -5 5.38 -5 3 C-3.35 2.67 -1.7 2.34 0 2 C0 1.34 0 0.68 0 0 Z " fill="#DFF4F7" transform="translate(22,63)"/>
<path d="M0 0 C0.99 0 1.98 0 3 0 C3 4.29 3 8.58 3 13 C-3.93 13 -10.86 13 -18 13 C-18 12.01 -18 11.02 -18 10 C-16.35 10 -14.7 10 -13 10 C-12.67 9.34 -12.34 8.68 -12 8 C-12 8.66 -12 9.32 -12 10 C-11.01 9.67 -10.02 9.34 -9 9 C-8.01 9.33 -7.02 9.66 -6 10 C-5.67 9.01 -5.34 8.02 -5 7 C-4.01 6.67 -3.02 6.34 -2 6 C-2 4.68 -2 3.36 -2 2 C-1.34 2 -0.68 2 0 2 C0 1.34 0 0.68 0 0 Z " fill="#36D1CF" transform="translate(31,67)"/>
<path d="M0 0 C1.60379341 -0.05416188 3.20811406 -0.09286638 4.8125 -0.125 C5.70582031 -0.14820312 6.59914063 -0.17140625 7.51953125 -0.1953125 C10 0 10 0 13 2 C13.41394695 5.36676852 13.13087567 8.59723255 13 12 C8.71 12 4.42 12 0 12 C1 8 1 8 4 6 C4.33 6.66 4.66 7.32 5 8 C6.32 7.34 7.64 6.68 9 6 C9 5.34 9 4.68 9 4 C6.03 4 3.06 4 0 4 C0.66 3.34 1.32 2.68 2 2 C1.34 1.34 0.68 0.68 0 0 Z " fill="#758DFE" transform="translate(102,70)"/>
<path d="M0 0 C1.8125 1.375 1.8125 1.375 3 3 C3 3.66 3 4.32 3 5 C4.65 5 6.3 5 8 5 C8.33 5.99 8.66 6.98 9 8 C1.41 8 -6.18 8 -14 8 C-13.67 7.01 -13.34 6.02 -13 5 C-11.35 5 -9.7 5 -8 5 C-7.814375 4.0409375 -7.814375 4.0409375 -7.625 3.0625 C-7.41875 2.381875 -7.2125 1.70125 -7 1 C-4.45132831 -0.27433584 -2.82594567 -0.27570202 0 0 Z " fill="#F8FDFD" transform="translate(125,38)"/>
<path d="M0 0 C2.81256281 -0.02684312 5.62487241 -0.04676188 8.4375 -0.0625 C9.23994141 -0.07087891 10.04238281 -0.07925781 10.86914062 -0.08789062 C12.91295221 -0.0965143 14.95683902 -0.0522815 17 0 C18 1 18 1 18.1875 3.875 C18 7 18 7 16 10 C13.6875 10.5 13.6875 10.5 11 10 C9.29115995 8.37660195 7.62553283 6.70680947 6 5 C4.33859237 4.32033324 2.67299959 3.65061095 1 3 C0.67 2.01 0.34 1.02 0 0 Z " fill="#38D2D4" transform="translate(117,33)"/>
<path d="M0 0 C1.01725914 0.00424484 1.01725914 0.00424484 2.05506897 0.00857544 C4.19445391 0.01965834 6.33340055 0.0447389 8.47265625 0.0703125 C9.93423869 0.08035774 11.39582778 0.08948087 12.85742188 0.09765625 C16.41680604 0.11955825 19.97593828 0.15400384 23.53515625 0.1953125 C23.53515625 1.5153125 23.53515625 2.8353125 23.53515625 4.1953125 C10.99515625 4.1953125 -1.54484375 4.1953125 -14.46484375 4.1953125 C-14.46484375 3.5353125 -14.46484375 2.8753125 -14.46484375 2.1953125 C-9.46818653 0.56823201 -5.3100298 -0.04406664 0 0 Z " fill="#376ABD" transform="translate(66.46484375,53.8046875)"/>
<path d="M0 0 C1.32 0 2.64 0 4 0 C4 5.61 4 11.22 4 17 C4.99 17 5.98 17 7 17 C7 18.65 7 20.3 7 22 C4.69 22 2.38 22 0 22 C0 14.74 0 7.48 0 0 Z " fill="#41458F" transform="translate(26,80)"/>
<path d="M0 0 C0.66 0 1.32 0 2 0 C2.33 2.31 2.66 4.62 3 7 C6.63 7.33 10.26 7.66 14 8 C13.01 8.33 12.02 8.66 11 9 C11 9.99 11 10.98 11 12 C7.54721936 15.20615345 4.6253482 16 0 16 C-0.33 16.66 -0.66 17.32 -1 18 C-1.02717692 15.93757383 -1.0464758 13.87504297 -1.0625 11.8125 C-1.07410156 10.66394531 -1.08570312 9.51539062 -1.09765625 8.33203125 C-1.01192832 5.40699414 -0.67849023 2.83683709 0 0 Z " fill="#6C72FE" transform="translate(103,106)"/>
<path d="M0 0 C6.27 0 12.54 0 19 0 C19.33 1.32 19.66 2.64 20 4 C17.29283758 4.90238747 15.76223232 5.11851302 12.98828125 5.09765625 C11.85229492 5.09282227 11.85229492 5.09282227 10.69335938 5.08789062 C9.90767578 5.07951172 9.12199219 5.07113281 8.3125 5.0625 C7.51521484 5.05798828 6.71792969 5.05347656 5.89648438 5.04882812 C3.93095743 5.0370585 1.96546915 5.01912348 0 5 C0 3.35 0 1.7 0 0 Z " fill="#34AEC5" transform="translate(98,49)"/>
<path d="M0 0 C5.45454545 0.45454545 5.45454545 0.45454545 8 3 C8.33015665 6.10347254 8.50531294 8.15781176 6.875 10.875 C4.21965017 12.4682099 2.03210482 12.20214032 -1 12 C-1.33 11.34 -1.66 10.68 -2 10 C-0.68 10 0.64 10 2 10 C2.66 8.68 3.32 7.36 4 6 C3.1028125 6.2784375 3.1028125 6.2784375 2.1875 6.5625 C0 7 0 7 -3 6 C-2.42655063 3.13275314 -2.1385485 2.1385485 0 0 Z " fill="#3FD8D5" transform="translate(112,99)"/>
<path d="M0 0 C1.32 0 2.64 0 4 0 C4 6.6 4 13.2 4 20 C2.68 19.67 1.36 19.34 0 19 C0 12.73 0 6.46 0 0 Z " fill="#3E3E8B" transform="translate(115,63)"/>
<path d="M0 0 C0.02685938 2.14576637 0.04633088 4.29162645 0.0625 6.4375 C0.07410156 7.63246094 0.08570313 8.82742187 0.09765625 10.05859375 C0 13 0 13 -1 14 C-3.33297433 14.04092937 -5.66705225 14.04241723 -8 14 C-7.32768418 10.19021034 -6.22185266 6.66555798 -5 3 C-5 2.34 -5 1.68 -5 1 C-1.125 0 -1.125 0 0 0 Z " fill="#34D9C3" transform="translate(60,91)"/>
<path d="M0 0 C4.29 0 8.58 0 13 0 C11.6875 3.4375 11.6875 3.4375 10 7 C9.01 7.33 8.02 7.66 7 8 C6.67 7.34 6.34 6.68 6 6 C2.95418731 5.53045739 2.95418731 5.53045739 -0.5625 5.375 C-1.76003906 5.30023438 -2.95757812 5.22546875 -4.19140625 5.1484375 C-5.11824219 5.09945312 -6.04507813 5.05046875 -7 5 C-6.34 4.34 -5.68 3.68 -5 3 C-3.68 3 -2.36 3 -1 3 C-0.67 2.01 -0.34 1.02 0 0 Z " fill="#6660FE" transform="translate(53,81)"/>
<path d="M0 0 C0 0.33 0 0.66 0 1 C-1.98 1 -3.96 1 -6 1 C-5.67 7.27 -5.34 13.54 -5 20 C-8.3 20 -11.6 20 -15 20 C-15 19.67 -15 19.34 -15 19 C-13.02 18.67 -11.04 18.34 -9 18 C-8.67 16.68 -8.34 15.36 -8 14 C-9.98 14 -11.96 14 -14 14 C-14 13.67 -14 13.34 -14 13 C-12.35 12.67 -10.7 12.34 -9 12 C-8.67 10.68 -8.34 9.36 -8 8 C-9.98 8 -11.96 8 -14 8 C-14 7.67 -14 7.34 -14 7 C-12.35 6.67 -10.7 6.34 -9 6 C-8.67 4.68 -8.34 3.36 -8 2 C-9.98 2 -11.96 2 -14 2 C-14 1.67 -14 1.34 -14 1 C-9.32798795 -0.20568053 -4.78503708 -0.09382426 0 0 Z " fill="#87D9E7" transform="translate(21,33)"/>
<path d="M0 0 C1.67542976 0.28604898 3.34385343 0.61781233 5 1 C5.97477898 4.72188336 6.12816587 6.64248468 4.8125 10.3125 C3 13 3 13 0.88671875 13.66796875 C0.26410156 13.77753906 -0.35851562 13.88710938 -1 14 C-1.02685938 11.85423363 -1.04633088 9.70837355 -1.0625 7.5625 C-1.07410156 6.36753906 -1.08570312 5.17257813 -1.09765625 3.94140625 C-1 1 -1 1 0 0 Z " fill="#31C6DF" transform="translate(106,33)"/>
<path d="M0 0 C8.58 0 17.16 0 26 0 C25.67 0.99 25.34 1.98 25 3 C17.08 3 9.16 3 1 3 C0.67 2.01 0.34 1.02 0 0 Z " fill="#4C4CA0" transform="translate(101,124)"/>
<path d="M0 0 C0.33 0 0.66 0 1 0 C1 5.28 1 10.56 1 16 C-4.61 16 -10.22 16 -16 16 C-16.33 14.35 -16.66 12.7 -17 11 C-16.01 10.67 -15.02 10.34 -14 10 C-13.505 10.680625 -13.01 11.36125 -12.5 12.0625 C-10.25732688 14.19795864 -10.25732688 14.19795864 -7.953125 14.04296875 C-5.95610564 13.77740767 -3.97547682 13.39509536 -2 13 C-1.80508548 11.54263913 -1.61930642 10.08405407 -1.4375 8.625 C-1.33308594 7.81289062 -1.22867188 7.00078125 -1.12109375 6.1640625 C-0.81762672 3.95100814 -0.81762672 3.95100814 -2 2 C-1.34 2 -0.68 2 0 2 C0 1.34 0 0.68 0 0 Z " fill="#3AD9CC" transform="translate(122,98)"/>
<path d="M0 0 C0.66 0 1.32 0 2 0 C2.33 0.66 2.66 1.32 3 2 C3.66 2 4.32 2 5 2 C6.6875 3.8125 6.6875 3.8125 8 6 C7.67 6.99 7.34 7.98 7 9 C6.34 9 5.68 9 5 9 C5 9.66 5 10.32 5 11 C4.34 11 3.68 11 3 11 C3 10.01 3 9.02 3 8 C2.01 8 1.02 8 0 8 C-0.33 9.65 -0.66 11.3 -1 13 C-1.66 13 -2.32 13 -3 13 C-2.52060632 8.28596212 -2.03165952 4.33420699 0 0 Z " fill="#8FDDE8" transform="translate(47,89)"/>
<path d="M0 0 C0 0.66 0 1.32 0 2 C-0.99 2 -1.98 2 -3 2 C-3.99 5.63 -4.98 9.26 -6 13 C-10.29425875 11.92643531 -10.74740471 11.4915227 -13 8 C-5.43243243 0 -5.43243243 0 0 0 Z " fill="#47B7DE" transform="translate(50,87)"/>
<path d="M0 0 C2.05078125 0.03255208 4.1015625 0.06510417 6.15234375 0.09765625 C6.48234375 1.74765625 6.81234375 3.39765625 7.15234375 5.09765625 C5.50234375 5.42765625 3.85234375 5.75765625 2.15234375 6.09765625 C2.48234375 7.41765625 2.81234375 8.73765625 3.15234375 10.09765625 C1.15234375 8.72265625 1.15234375 8.72265625 -0.84765625 7.09765625 C-0.84765625 6.43765625 -0.84765625 5.77765625 -0.84765625 5.09765625 C-1.83765625 5.42765625 -2.82765625 5.75765625 -3.84765625 6.09765625 C-2.77957394 0.14691194 -2.77957394 0.14691194 0 0 Z " fill="#42C8D7" transform="translate(52.84765625,85.90234375)"/>
<path d="M0 0 C0.66 0.99 1.32 1.98 2 3 C1.01 4.485 1.01 4.485 0 6 C7.59 6 15.18 6 23 6 C23 6.33 23 6.66 23 7 C22.14450562 7.03758423 22.14450562 7.03758423 21.27172852 7.07592773 C18.70173843 7.19156549 16.13214473 7.31443624 13.5625 7.4375 C12.66466797 7.47681641 11.76683594 7.51613281 10.84179688 7.55664062 C9.98779297 7.59853516 9.13378906 7.64042969 8.25390625 7.68359375 C7.46314697 7.72025146 6.6723877 7.75690918 5.85766602 7.79467773 C3.98598559 7.80563257 3.98598559 7.80563257 3 9 C0.30345146 9.07319621 -2.36691458 9.09242537 -5.0625 9.0625 C-6.20041992 9.05573242 -6.20041992 9.05573242 -7.36132812 9.04882812 C-9.24091871 9.0370068 -11.12046899 9.01907078 -13 9 C-13 8.34 -13 7.68 -13 7 C-11.9275 7.020625 -10.855 7.04125 -9.75 7.0625 C-5.70006704 7.17172646 -5.70006704 7.17172646 -2 6 C-0.6954344 3.00384054 -0.6954344 3.00384054 0 0 Z " fill="#80DDE5" transform="translate(111,40)"/>
<path d="M0 0 C4.82360189 -0.19294408 8.49646738 0.24252386 13 2 C11 5 11 5 9 6 C6.99199544 5.71887936 4.98985949 5.38932033 3 5 C3 6.32 3 7.64 3 9 C2.34 9 1.68 9 1 9 C0.67 9.66 0.34 10.32 0 11 C0 7.37 0 3.74 0 0 Z " fill="#5A37FF" transform="translate(102,86)"/>
<path d="M0 0 C2.31 0 4.62 0 7 0 C7 1.65 7 3.3 7 5 C3.37 5 -0.26 5 -4 5 C-4 6.65 -4 8.3 -4 10 C-5.32 10 -6.64 10 -8 10 C-8 8.02 -8 6.04 -8 4 C-5.36 4 -2.72 4 0 4 C0 2.68 0 1.36 0 0 Z " fill="#3C408C" transform="translate(34,49)"/>
<path d="M0 0 C2.475 0.495 2.475 0.495 5 1 C5.13536022 3.08153935 5.23215465 5.16561206 5.3125 7.25 C5.37050781 8.41015625 5.42851563 9.5703125 5.48828125 10.765625 C5 14 5 14 0 18 C0 13.71 0 9.42 0 5 C0.66 4.67 1.32 4.34 2 4 C1.34 2.68 0.68 1.36 0 0 Z " fill="#5D41FF" transform="translate(36,62)"/>
<path d="M0 0 C9.24 0 18.48 0 28 0 C28 0.66 28 1.32 28 2 C19.42 2 10.84 2 2 2 C2 2.66 2 3.32 2 4 C1.01 4 0.02 4 -1 4 C-0.67 2.68 -0.34 1.36 0 0 Z " fill="#33CADB" transform="translate(42,45)"/>
<path d="M0 0 C8.91 0 17.82 0 27 0 C27.33 1.32 27.66 2.64 28 4 C27.01 4 26.02 4 25 4 C25 3.34 25 2.68 25 2 C16.75 2 8.5 2 0 2 C0 1.34 0 0.68 0 0 Z " fill="#33D3D1" transform="translate(70,45)"/>
<path d="M0 0 C2.64 0 5.28 0 8 0 C8 2.64 8 5.28 8 8 C7.01 8 6.02 8 5 8 C5 8.66 5 9.32 5 10 C4.34 9.67 3.68 9.34 3 9 C3 8.34 3 7.68 3 7 C2.01 6.67 1.02 6.34 0 6 C0 4.02 0 2.04 0 0 Z " fill="#3EBADC" transform="translate(26,59)"/>
<path d="M0 0 C1.24716797 0.00322266 2.49433594 0.00644531 3.77929688 0.00976562 C5.07287109 0.01814453 6.36644531 0.02652344 7.69921875 0.03515625 C9.66858398 0.04192383 9.66858398 0.04192383 11.67773438 0.04882812 C14.91410885 0.06059676 18.15039053 0.07703865 21.38671875 0.09765625 C21.05671875 0.75765625 20.72671875 1.41765625 20.38671875 2.09765625 C19.73074707 2.11747559 19.07477539 2.13729492 18.39892578 2.15771484 C15.43610806 2.25278132 12.47401343 2.36253377 9.51171875 2.47265625 C7.96291016 2.5190625 7.96291016 2.5190625 6.3828125 2.56640625 C4.90361328 2.62441406 4.90361328 2.62441406 3.39453125 2.68359375 C2.4833252 2.71501465 1.57211914 2.74643555 0.63330078 2.77880859 C-1.81259311 2.89648136 -1.81259311 2.89648136 -3.61328125 5.09765625 C-6.34197532 5.06478042 -8.90994305 4.53367854 -11.61328125 4.09765625 C-11.61328125 3.10765625 -11.61328125 2.11765625 -11.61328125 1.09765625 C-7.68039761 0.16677716 -4.03673962 -0.0184326 0 0 Z " fill="#D9D9E8" transform="translate(106.61328125,125.90234375)"/>
<path d="M0 0 C0.66 0.33 1.32 0.66 2 1 C2 4.3 2 7.6 2 11 C-3.94 11 -9.88 11 -16 11 C-16 10.34 -16 9.68 -16 9 C-10.72 9 -5.44 9 0 9 C0 6.03 0 3.06 0 0 Z " fill="#34DBC7" transform="translate(32,42)"/>
<path d="M0 0 C1.98 0 3.96 0 6 0 C5.34 1.65 4.68 3.3 4 5 C3.34 5 2.68 5 2 5 C2.66 5.66 3.32 6.32 4 7 C0.48812804 9.40814077 -1.72656908 10.36629408 -6 10 C-4.68 8.35 -3.36 6.7 -2 5 C-2.33 4.67 -2.66 4.34 -3 4 C-2.67 3.34 -2.34 2.68 -2 2 C-1.34 2 -0.68 2 0 2 C0 1.34 0 0.68 0 0 Z " fill="#6256FE" transform="translate(119,86)"/>
<path d="M0 0 C3.0625 0.25 3.0625 0.25 6 1 C6.33 1.66 6.66 2.32 7 3 C4.8125 5.0625 4.8125 5.0625 2 7 C-0.8125 6.75 -0.8125 6.75 -3 6 C-2.42655063 3.13275314 -2.1385485 2.1385485 0 0 Z " fill="#41CDE7" transform="translate(112,99)"/>
<path d="M0 0 C0.4125 0.515625 0.825 1.03125 1.25 1.5625 C2.89081865 3.25326429 2.89081865 3.25326429 5.0625 2.8125 C7.18712526 2.06529664 7.18712526 2.06529664 9 0 C9 0.66 9 1.32 9 2 C9.66 2 10.32 2 11 2 C10.67 2.99 10.34 3.98 10 5 C9.01 5.33 8.02 5.66 7 6 C6.67 6.66 6.34 7.32 6 8 C5.01 8 4.02 8 3 8 C3 7.01 3 6.02 3 5 C1.35 4.67 -0.3 4.34 -2 4 C-2 3.34 -2 2.68 -2 2 C-1.34 2 -0.68 2 0 2 C0 1.34 0 0.68 0 0 Z " fill="#F0FAFB" transform="translate(19,69)"/>
<path d="M0 0 C1.23556641 0.01740234 1.23556641 0.01740234 2.49609375 0.03515625 C3.32238281 0.04417969 4.14867187 0.05320312 5 0.0625 C5.63808594 0.07410156 6.27617188 0.08570312 6.93359375 0.09765625 C6.60359375 0.75765625 6.27359375 1.41765625 5.93359375 2.09765625 C5.27359375 2.09765625 4.61359375 2.09765625 3.93359375 2.09765625 C3.93359375 2.75765625 3.93359375 3.41765625 3.93359375 4.09765625 C2.94359375 4.42765625 1.95359375 4.75765625 0.93359375 5.09765625 C-0.08581815 6.07786 -1.08886981 7.07568633 -2.06640625 8.09765625 C-2.39640625 8.09765625 -2.72640625 8.09765625 -3.06640625 8.09765625 C-3.10882348 5.7647085 -3.10733562 3.43063058 -3.06640625 1.09765625 C-2.06640625 0.09765625 -2.06640625 0.09765625 0 0 Z " fill="#4596EB" transform="translate(36.06640625,85.90234375)"/>
<path d="M0 0 C3.3 0 6.6 0 10 0 C8.60804085 2.7839183 6.84424221 2.97898997 4 4 C4 4.99 4 5.98 4 7 C2.02 7.99 2.02 7.99 0 9 C0 6.03 0 3.06 0 0 Z " fill="#3DBBDE" transform="translate(105,54)"/>
<path d="M0 0 C3.36704285 -0.2295711 5.41370268 -0.33943529 8.375 1.375 C8.91125 1.91125 9.4475 2.4475 10 3 C10 3.66 10 4.32 10 5 C6.7 5 3.4 5 0 5 C0 3.35 0 1.7 0 0 Z " fill="#34ABC5" transform="translate(33,97)"/>
<path d="M0 0 C0 1.65 0 3.3 0 5 C-4.29 5 -8.58 5 -13 5 C-13 4.34 -13 3.68 -13 3 C-2.6 0 -2.6 0 0 0 Z " fill="#35DCC6" transform="translate(34,75)"/>
<path d="M0 0 C1.62463842 -0.05395478 3.24978541 -0.09277195 4.875 -0.125 C5.77992187 -0.14820312 6.68484375 -0.17140625 7.6171875 -0.1953125 C10 0 10 0 12 2 C10 4 10 4 7.6171875 4.1953125 C6.71226563 4.17210938 5.80734375 4.14890625 4.875 4.125 C3.50988281 4.09792969 3.50988281 4.09792969 2.1171875 4.0703125 C1.41851562 4.04710938 0.71984375 4.02390625 0 4 C0.66 3.34 1.32 2.68 2 2 C1.34 1.34 0.68 0.68 0 0 Z " fill="#859EFE" transform="translate(102,70)"/>
<path d="M0 0 C0.66 0.33 1.32 0.66 2 1 C2.35233161 6.37305699 2.35233161 6.37305699 2 9 C0 11 0 11 -2 12 C-2.05422947 10.5629191 -2.09289723 9.12524538 -2.125 7.6875 C-2.14820312 6.88699219 -2.17140625 6.08648437 -2.1953125 5.26171875 C-2 3 -2 3 0 0 Z " fill="#6C72FE" transform="translate(125,93)"/>
<path d="M0 0 C0.33 0.66 0.66 1.32 1 2 C1.66 2.33 2.32 2.66 3 3 C3 3.66 3 4.32 3 5 C3.33 5.33 3.66 5.66 4 6 C4.04080783 7.99958364 4.04254356 10.00045254 4 12 C2.68 12 1.36 12 0 12 C0 8.04 0 4.08 0 0 Z " fill="#3ABEC8" transform="translate(115,51)"/>
<path d="M0 0 C0.99 0 1.98 0 3 0 C3.08121924 1.60332791 3.13929134 3.20784026 3.1875 4.8125 C3.23970703 6.15248047 3.23970703 6.15248047 3.29296875 7.51953125 C3 10 3 10 0 13 C0 8.71 0 4.42 0 0 Z " fill="#3B96D8" transform="translate(41,49)"/>
<path d="M0 0 C2.31 0 4.62 0 7 0 C7 1.65 7 3.3 7 5 C4.69 5 2.38 5 0 5 C0 3.35 0 1.7 0 0 Z " fill="#3C3E8A" transform="translate(98,49)"/>
<path d="M0 0 C1.051875 0.99 1.051875 0.99 2.125 2 C5.43460229 4.30233203 7.06225823 4.36630156 11 4 C10.67 4.66 10.34 5.32 10 6 C6.37 6 2.74 6 -1 6 C-1.33 4.35 -1.66 2.7 -2 1 C-1.34 0.67 -0.68 0.34 0 0 Z " fill="#43D6DD" transform="translate(107,108)"/>
<path d="M0 0 C0.66 0 1.32 0 2 0 C2 1.98 2 3.96 2 6 C2.66 6.33 3.32 6.66 4 7 C3.01 8.485 3.01 8.485 2 10 C-1.875 8.25 -1.875 8.25 -3 6 C-2.34 6 -1.68 6 -1 6 C-1.0309375 4.7934375 -1.0309375 4.7934375 -1.0625 3.5625 C-1 1 -1 1 0 0 Z " fill="#DFF6F6" transform="translate(119,48)"/>
<path d="M0 0 C0.66 0 1.32 0 2 0 C1.69128878 1.79232337 1.37790936 3.58384321 1.0625 5.375 C0.88847656 6.37273437 0.71445312 7.37046875 0.53515625 8.3984375 C0 11 0 11 -1 13 C-1.66 13 -2.32 13 -3 13 C-2.52060632 8.28596212 -2.03165952 4.33420699 0 0 Z " fill="#D8F2F6" transform="translate(47,89)"/>
<path d="M0 0 C2.05078125 0.03255208 4.1015625 0.06510417 6.15234375 0.09765625 C3.42755601 3.46357052 0.08377583 4.53991901 -3.84765625 6.09765625 C-2.77957394 0.14691194 -2.77957394 0.14691194 0 0 Z " fill="#3DBCDB" transform="translate(52.84765625,85.90234375)"/>
<path d="M0 0 C0.33 1.32 0.66 2.64 1 4 C-2.3 4.33 -5.6 4.66 -9 5 C-9.33 4.01 -9.66 3.02 -10 2 C-6.7 2 -3.4 2 0 2 C0 1.34 0 0.68 0 0 Z " fill="#4ED2DA" transform="translate(43,100)"/>
<path d="M0 0 C0.33 0.66 0.66 1.32 1 2 C4.62528568 2.20140476 6.86501708 1.85776765 10 0 C8.3125 3 8.3125 3 6 6 C3.25 6.375 3.25 6.375 1 6 C0.67 4.02 0.34 2.04 0 0 Z " fill="#99E3EE" transform="translate(108,103)"/>
<path d="M0 0 C0.66 0 1.32 0 2 0 C3.125 7.625 3.125 7.625 2 11 C1.01 11 0.02 11 -1 11 C-0.67 7.37 -0.34 3.74 0 0 Z " fill="#6661FE" transform="translate(103,106)"/>
<path d="M0 0 C0.33 0 0.66 0 1 0 C1 2.64 1 5.28 1 8 C-0.65 8.33 -2.3 8.66 -4 9 C-4 5 -4 5 -2.5625 3.375 C-2.046875 2.92125 -1.53125 2.4675 -1 2 C-0.67 1.34 -0.34 0.68 0 0 Z " fill="#35DFC2" transform="translate(59,96)"/>
<path d="M0 0 C1.98 0.495 1.98 0.495 4 1 C3.67 2.65 3.34 4.3 3 6 C1.68 5.67 0.36 5.34 -1 5 C-0.67 3.35 -0.34 1.7 0 0 Z " fill="#3CCCDA" transform="translate(22,67)"/>
<path d="M0 0 C0.66 0 1.32 0 2 0 C2.33 1.32 2.66 2.64 3 4 C5.64 4.33 8.28 4.66 11 5 C11 5.33 11 5.66 11 6 C8.03 6 5.06 6 2 6 C1.67 6.66 1.34 7.32 1 8 C0 7 0 7 -0.0625 3.4375 C-0.041875 2.303125 -0.02125 1.16875 0 0 Z " fill="#7BDFDB" transform="translate(32,35)"/>
<path d="M0 0 C0.66 0.33 1.32 0.66 2 1 C2 2.65 2 4.3 2 6 C-0.31 6 -2.62 6 -5 6 C-3.35 4.02 -1.7 2.04 0 0 Z " fill="#7999FE" transform="translate(125,118)"/>
<path d="M0 0 C1.32 0 2.64 0 4 0 C4 1.98 4 3.96 4 6 C2.68 6 1.36 6 0 6 C0 4.02 0 2.04 0 0 Z " fill="#34AEC5" transform="translate(26,59)"/>
<path d="M0 0 C0.99 0 1.98 0 3 0 C2.37240135 2.92879371 1.41377341 5.36095629 0 8 C-0.99 7.67 -1.98 7.34 -3 7 C-2.67 5.35 -2.34 3.7 -2 2 C-1.34 2 -0.68 2 0 2 C0 1.34 0 0.68 0 0 Z " fill="#3ECAD3" transform="translate(31,67)"/>
<path d="M0 0 C2.05078125 0.03255208 4.1015625 0.06510417 6.15234375 0.09765625 C5.82234375 2.07765625 5.49234375 4.05765625 5.15234375 6.09765625 C5.81234375 6.09765625 6.47234375 6.09765625 7.15234375 6.09765625 C6.82234375 6.75765625 6.49234375 7.41765625 6.15234375 8.09765625 C5.49234375 7.76765625 4.83234375 7.43765625 4.15234375 7.09765625 C4.15234375 5.11765625 4.15234375 3.13765625 4.15234375 1.09765625 C2.17234375 2.08765625 2.17234375 2.08765625 0.15234375 3.09765625 C-0.83765625 2.43765625 -1.82765625 1.77765625 -2.84765625 1.09765625 C-1.84765625 0.09765625 -1.84765625 0.09765625 0 0 Z " fill="#4ED5D8" transform="translate(116.84765625,46.90234375)"/>
<path d="M0 0 C2.64 0 5.28 0 8 0 C8.33 1.32 8.66 2.64 9 4 C8.01 4 7.02 4 6 4 C6 3.34 6 2.68 6 2 C4.02 2 2.04 2 0 2 C0 1.34 0 0.68 0 0 Z " fill="#53D9D2" transform="translate(89,45)"/>
<path d="M0 0 C0 1.65 0 3.3 0 5 C-1.65 5.33 -3.3 5.66 -5 6 C-5 4.35 -5 2.7 -5 1 C-1.125 0 -1.125 0 0 0 Z " fill="#37D2D0" transform="translate(60,91)"/>
<path d="M0 0 C0.66 0 1.32 0 2 0 C2.33 1.98 2.66 3.96 3 6 C-0.3 6 -3.6 6 -7 6 C-7 5.67 -7 5.34 -7 5 C-5.02 4.67 -3.04 4.34 -1 4 C-0.67 2.68 -0.34 1.36 0 0 Z " fill="#79D9E1" transform="translate(13,47)"/>
<path d="M0 0 C3.3 0 6.6 0 10 0 C10 0.33 10 0.66 10 1 C7.36 1.33 4.72 1.66 2 2 C2 2.66 2 3.32 2 4 C1.01 4 0.02 4 -1 4 C-0.67 2.68 -0.34 1.36 0 0 Z " fill="#46AFF5" transform="translate(106,96)"/>
<path d="M0 0 C0.99 0 1.98 0 3 0 C2.67 2.97 2.34 5.94 2 9 C1.34 9 0.68 9 0 9 C0 6.03 0 3.06 0 0 Z " fill="#41BDF0" transform="translate(105,100)"/>
<path d="M0 0 C0.33 0 0.66 0 1 0 C1 2.64 1 5.28 1 8 C0.01 8.33 -0.98 8.66 -2 9 C-2.25 3.375 -2.25 3.375 0 0 Z " fill="#409AE9" transform="translate(43,59)"/>
<path d="M0 0 C0.99 0.33 1.98 0.66 3 1 C3.6875 3.0625 3.6875 3.0625 4 5 C2.35 5 0.7 5 -1 5 C-1.33 4.01 -1.66 3.02 -2 2 C-1.34 1.34 -0.68 0.68 0 0 Z " fill="#BFD8FF" transform="translate(82,113)"/>
<path d="M0 0 C0.99 0 1.98 0 3 0 C3 1.32 3 2.64 3 4 C2.34 4 1.68 4 1 4 C1 4.66 1 5.32 1 6 C-0.32 5.67 -1.64 5.34 -3 5 C-2.505 4.360625 -2.01 3.72125 -1.5 3.0625 C0.09802862 1.29025661 0.09802862 1.29025661 0 0 Z " fill="#53DADC" transform="translate(117,102)"/>
<path d="M0 0 C0.99 0 1.98 0 3 0 C3 0.99 3 1.98 3 3 C3.66 3.33 4.32 3.66 5 4 C3.02 4.33 1.04 4.66 -1 5 C-0.67 3.35 -0.34 1.7 0 0 Z " fill="#36C3C6" transform="translate(47,97)"/>
<path d="M0 0 C0.99 0.99 1.98 1.98 3 3 C-0.96 3 -4.92 3 -9 3 C-9 2.34 -9 1.68 -9 1 C-7.88625 1.020625 -6.7725 1.04125 -5.625 1.0625 C-2.16784079 1.26380718 -2.16784079 1.26380718 0 0 Z " fill="#8DCBDD" transform="translate(107,46)"/>
<path d="M0 0 C0 0.99 0 1.98 0 3 C0.3062434 4.33981486 0.63451555 5.67511887 1 7 C-0.32 6.34 -1.64 5.68 -3 5 C-3 4.01 -3 3.02 -3 2 C-2.01 1.34 -1.02 0.68 0 0 Z " fill="#E7F5F8" transform="translate(41,92)"/>
<path d="M0 0 C0.66 0 1.32 0 2 0 C2 1.98 2 3.96 2 6 C0.68 6 -0.64 6 -2 6 C-2 3 -2 3 0 1 C0 0.67 0 0.34 0 0 Z " fill="#34C5C4" transform="translate(117,57)"/>
</svg>
