<?xml version="1.0" encoding="UTF-8"?>
<svg version="1.1" xmlns="http://www.w3.org/2000/svg" width="150" height="150">
<path d="M0 0 C2.97 0.33 5.94 0.66 9 1 C9 2.98 9 4.96 9 7 C13.33927969 8.83695434 13.33927969 8.83695434 17.875 8.125 C18.926875 7.568125 18.926875 7.568125 20 7 C20.433125 8.134375 20.86625 9.26875 21.3125 10.4375 C22.3061169 12.45153786 22.3061169 12.45153786 24 14 C26.93713773 14.71501749 29.6179844 14.87371097 32.63671875 14.9296875 C35 15 35 15 36 16 C36.15806531 17.92478813 36.251135 19.8549921 36.31640625 21.78515625 C36.35830078 22.95498047 36.40019531 24.12480469 36.44335938 25.33007812 C36.48267578 26.56177734 36.52199219 27.79347656 36.5625 29.0625 C36.60568359 30.29806641 36.64886719 31.53363281 36.69335938 32.80664062 C36.79984198 35.87097335 36.90185424 38.93539073 37 42 C38.65 42 40.3 42 42 42 C43.60339848 45.11771927 44.18974141 46.39011689 43.125 49.8125 C42.75375 50.534375 42.3825 51.25625 42 52 C42.66 52.33 43.32 52.66 44 53 C43.34 54.65 42.68 56.3 42 58 C39.69 58 37.38 58 35 58 C35 58.99 35 59.98 35 61 C33.35 61 31.7 61 30 61 C29.773125 60.360625 29.54625 59.72125 29.3125 59.0625 C28.14749104 56.72806339 28.14749104 56.72806339 25.375 56.25 C24.59125 56.1675 23.8075 56.085 23 56 C22.505 54.02 22.505 54.02 22 52 C22.66 52 23.32 52 24 52 C23.39816251 49.97954558 22.72693904 47.97888961 22 46 C21.34 45.67 20.68 45.34 20 45 C20 51.6 20 58.2 20 65 C22.31 65 24.62 65 27 65 C28 66 28 66 28.11352539 69.96899414 C28.1133662 71.74105607 28.10766785 73.5131226 28.09765625 75.28515625 C28.0962413 76.21597519 28.09482635 77.14679413 28.09336853 78.1058197 C28.08775172 81.09141191 28.0751964 84.07693029 28.0625 87.0625 C28.05748716 89.08137913 28.05292388 91.10025943 28.04882812 93.11914062 C28.03777683 98.07945572 28.02050095 103.03971532 28 108 C30.31 108.66 32.62 109.32 35 110 C34 112 34 112 32.34521484 112.61450195 C27.49200924 113.41225457 22.54404055 113.18590312 17.63769531 113.18530273 C15.63863013 113.18748512 13.63960468 113.20599143 11.640625 113.22460938 C10.36960937 113.22654297 9.09859375 113.22847656 7.7890625 113.23046875 C6.63100098 113.23457764 5.47293945 113.23868652 4.27978516 113.24291992 C0.88689046 112.99162245 -1.83332989 112.21173908 -5 111 C-4.67 110.34 -4.34 109.68 -4 109 C-1.4375 108.375 -1.4375 108.375 1 108 C0.32142944 107.99191315 -0.35714111 107.98382629 -1.05627441 107.97549438 C-8.19572947 107.88863335 -15.33493245 107.7891071 -22.47412109 107.68261719 C-25.12938188 107.64363425 -27.7845665 107.60971702 -30.43994141 107.578125 C-68.93926359 107.11445232 -68.93926359 107.11445232 -76 103 C-75.505 102.01 -75.505 102.01 -75 101 C-74.34 101 -73.68 101 -73 101 C-73.495 100.01 -73.495 100.01 -74 99 C-76.92713788 98.05065798 -78.42831368 97.76823527 -81.3125 98.9375 C-81.869375 99.288125 -82.42625 99.63875 -83 100 C-85.0625 98.5625 -85.0625 98.5625 -87 96 C-87.05823431 92.92416977 -86.59222907 90.01264352 -86 87 C-87.32 87 -88.64 87 -90 87 C-89.67 84.36 -89.34 81.72 -89 79 C-87.35 79 -85.7 79 -84 79 C-82.58622659 76.36095629 -81.62759865 73.92879371 -81 71 C-78.03 70.505 -78.03 70.505 -75 70 C-74.67 70.99 -74.34 71.98 -74 73 C-73.67 69.37 -73.34 65.74 -73 62 C-77.29 62 -81.58 62 -86 62 C-86.02683436 58.68744674 -86.0467578 55.37510817 -86.0625 52.0625 C-86.07087891 51.11697266 -86.07925781 50.17144531 -86.08789062 49.19726562 C-86.09111328 48.29814453 -86.09433594 47.39902344 -86.09765625 46.47265625 C-86.10289307 45.64000244 -86.10812988 44.80734863 -86.11352539 43.94946289 C-86 42 -86 42 -85 41 C-82.98035801 40.92755947 -80.95832876 40.91622812 -78.9375 40.9375 C-77.28041016 40.95103516 -77.28041016 40.95103516 -75.58984375 40.96484375 C-74.73519531 40.97644531 -73.88054687 40.98804688 -73 41 C-73.061875 39.906875 -73.12375 38.81375 -73.1875 37.6875 C-73 34 -73 34 -71.875 32.28125 C-69.1629604 30.42802294 -67.05676436 30.70784631 -63.8125 30.8125 C-62.72582031 30.83957031 -61.63914062 30.86664063 -60.51953125 30.89453125 C-59.27236328 30.94673828 -59.27236328 30.94673828 -58 31 C-57.67 29.68 -57.34 28.36 -57 27 C-55.77893555 26.9906543 -54.55787109 26.98130859 -53.29980469 26.97167969 C-48.76704501 26.93179077 -44.23496485 26.86603507 -39.70263672 26.79248047 C-37.74146253 26.76426447 -35.78017449 26.74305306 -33.81884766 26.72900391 C-30.99843023 26.70758301 -28.17938257 26.66093791 -25.359375 26.609375 C-24.48319519 26.60814636 -23.60701538 26.60691772 -22.70428467 26.60565186 C-17.72477444 26.50417855 -17.72477444 26.50417855 -13.44628906 24.11816406 C-11.84422619 22.06825288 -11.84422619 22.06825288 -11.5 19.5 C-12.14356518 16.28217411 -13.53305753 15.08148271 -16 13 C-14.35 10.69 -12.7 8.38 -11 6 C-10.071875 6.37125 -9.14375 6.7425 -8.1875 7.125 C-7.135625 7.41375 -6.08375 7.7025 -5 8 C-1.39345961 5.59563974 -1.14547068 4.05320393 0 0 Z M-3 14.0625 C-5.51930235 17.76272533 -5.7066341 19.6031656 -5 24 C-3.59121904 26.9901643 -3.59121904 26.9901643 -1 29 C2.64182335 29.89055736 2.64182335 29.89055736 6 30 C6.03738281 29.01257813 6.07476562 28.02515625 6.11328125 27.0078125 C6.17902344 25.72648437 6.24476562 24.44515625 6.3125 23.125 C6.37050781 21.84882812 6.42851563 20.57265625 6.48828125 19.2578125 C6.65714844 18.18273437 6.82601562 17.10765625 7 16 C7.99 15.34 8.98 14.68 10 14 C8.01607489 11.60148679 8.01607489 11.60148679 4.1875 11.5625 C0.78236185 11.661739 -0.029595 12.02034656 -3 14.0625 Z M28 47 C27.6366844 49.83386167 27.6431329 51.40522151 29.125 53.875 C31.92151052 55.55290631 33.93690532 54.74875648 37 54 C37.67673447 50.59679066 37.67673447 50.59679066 38 47 C36.11499729 44.68436913 36.11499729 44.68436913 33 44.75 C29.88500271 44.68436913 29.88500271 44.68436913 28 47 Z M-79.25 80.625 C-81.21985834 82.92308586 -81.21985834 82.92308586 -81.5 86 C-81.21376982 89.06575838 -81.21376982 89.06575838 -79.3125 91.375 C-76.61209763 93.27258004 -75.22939919 93.35882213 -72 93 C-71.85024761 85.94348748 -71.85024761 85.94348748 -73 79 C-76.92212225 78.60967296 -76.92212225 78.60967296 -79.25 80.625 Z M-67 95 C-66.34 96.65 -65.68 98.3 -65 100 C-52.13 99.01 -52.13 99.01 -39 98 C-38.67 97.01 -38.34 96.02 -38 95 C-47.57 95 -57.14 95 -67 95 Z M-14 95 C-14 95.99 -14 96.98 -14 98 C-8.72 98.33 -3.44 98.66 2 99 C2 97.68 2 96.36 2 95 C-3.28 95 -8.56 95 -14 95 Z " fill="#5E4BFE" transform="translate(99,18)"/>
<path d="M0 0 C2.31 0 4.62 0 7 0 C7 2.97 7 5.94 7 9 C11.62 9 16.24 9 21 9 C21 15.6 21 22.2 21 29 C23.31 29 25.62 29 28 29 C29 30 29 30 29.11352539 33.96899414 C29.1133662 35.74105607 29.10766785 37.5131226 29.09765625 39.28515625 C29.0962413 40.21597519 29.09482635 41.14679413 29.09336853 42.1058197 C29.08775172 45.09141191 29.0751964 48.07693029 29.0625 51.0625 C29.05748716 53.08137913 29.05292388 55.10025943 29.04882812 57.11914062 C29.03777683 62.07945572 29.02050095 67.03971532 29 72 C31.31 72.66 33.62 73.32 36 74 C35 76 35 76 33.34521484 76.61450195 C28.49200924 77.41225457 23.54404055 77.18590312 18.63769531 77.18530273 C16.63863013 77.18748512 14.63960468 77.20599143 12.640625 77.22460938 C11.36960937 77.22654297 10.09859375 77.22847656 8.7890625 77.23046875 C7.63100098 77.23457764 6.47293945 77.23868652 5.27978516 77.24291992 C1.88689046 76.99162245 -0.83332989 76.21173908 -4 75 C-3 73 -3 73 3 71 C3 63.41 3 55.82 3 48 C-10.53 48 -24.06 48 -38 48 C-38.33 43.05 -38.66 38.1 -39 33 C-45.27 32.67 -51.54 32.34 -58 32 C-58 31.01 -58 30.02 -58 29 C-57.01 28.67 -56.02 28.34 -55 28 C-54.67 27.34 -54.34 26.68 -54 26 C-53.01 25.67 -52.02 25.34 -51 25 C-51 24.01 -51 23.02 -51 22 C-50.34 22 -49.68 22 -49 22 C-48.31292445 19.50935112 -48 17.62113708 -48 15 C-46 15 -44 15 -42 15 C-41.67 14.67 -41.34 14.34 -41 14 C-47.93 13.505 -47.93 13.505 -55 13 C-55 12.67 -55 12.34 -55 12 C-28.27 11.505 -28.27 11.505 -1 11 C-0.67 7.37 -0.34 3.74 0 0 Z " fill="#7183FE" transform="translate(98,54)"/>
<path d="M0 0 C1.85776765 3.13498292 2.20140476 5.37471432 2 9 C1.030625 9.28875 0.06125 9.5775 -0.9375 9.875 C-4.10664203 10.64214682 -4.10664203 10.64214682 -5 13 C-5.0689472 14.37342831 -5.08467708 15.75002102 -5.0625 17.125 C-5.041875 18.40375 -5.02125 19.6825 -5 21 C-2.36 21.66 0.28 22.32 3 23 C3 20.03 3 17.06 3 14 C4.98 14 6.96 14 9 14 C9.33 14.66 9.66 15.32 10 16 C18.25 16 26.5 16 35 16 C35.33 15.34 35.66 14.68 36 14 C49.53 14 63.06 14 77 14 C77 17.63 77 21.26 77 25 C71.72 25 66.44 25 61 25 C61 25.99 61 26.98 61 28 C61.56847656 27.98839844 62.13695313 27.97679688 62.72265625 27.96484375 C67.60670484 27.90776806 72.18503965 28.18043228 77 29 C77 31.64 77 34.28 77 37 C69.71409984 37.04682155 62.42823335 37.08211748 55.14221191 37.10362434 C51.75718789 37.11395864 48.37226851 37.12792229 44.98730469 37.15087891 C6.5625541 37.39227608 6.5625541 37.39227608 -1 33 C-0.67 32.34 -0.34 31.68 0 31 C0.66 31 1.32 31 2 31 C1.67 30.34 1.34 29.68 1 29 C-1.92713788 28.05065798 -3.42831368 27.76823527 -6.3125 28.9375 C-6.869375 29.288125 -7.42625 29.63875 -8 30 C-10.0625 28.5625 -10.0625 28.5625 -12 26 C-12.05823431 22.92416977 -11.59222907 20.01264352 -11 17 C-12.32 17 -13.64 17 -15 17 C-14.67 14.36 -14.34 11.72 -14 9 C-12.35 9 -10.7 9 -9 9 C-7.88158632 6.91229447 -7.0291824 5.14591199 -6.5625 2.8125 C-6.376875 2.214375 -6.19125 1.61625 -6 1 C-3 0 -3 0 0 0 Z M8 25 C8.66 26.65 9.32 28.3 10 30 C22.87 29.01 22.87 29.01 36 28 C36.33 27.01 36.66 26.02 37 25 C27.43 25 17.86 25 8 25 Z " fill="#B2D0FE" transform="translate(24,88)"/>
<path d="M0 0 C2.31 0 4.62 0 7 0 C7.22162329 1.62324086 7.42689803 3.248721 7.625 4.875 C7.74101563 5.77992187 7.85703125 6.68484375 7.9765625 7.6171875 C7.98816406 8.79667969 7.98816406 8.79667969 8 10 C6 12 6 12 3.375 12.125 C2.59125 12.08375 1.8075 12.0425 1 12 C0.79375 12.61875 0.5875 13.2375 0.375 13.875 C-1.54775888 16.84653645 -3.66594527 17.13024659 -7 18 C-7 18.66 -7 19.32 -7 20 C-5.68 20.33 -4.36 20.66 -3 21 C-3 21.66 -3 22.32 -3 23 C-3.66 23 -4.32 23 -5 23 C-5 23.66 -5 24.32 -5 25 C-5.69867188 25.33773437 -6.39734375 25.67546875 -7.1171875 26.0234375 C-8.02726562 26.46945313 -8.93734375 26.91546875 -9.875 27.375 C-10.77992187 27.81585938 -11.68484375 28.25671875 -12.6171875 28.7109375 C-16.41602843 30.76604817 -17.36891985 32.62838134 -18.625 36.625 C-18.88539062 37.44226563 -19.14578125 38.25953125 -19.4140625 39.1015625 C-19.60742188 39.72804687 -19.80078125 40.35453125 -20 41 C-20.33 40.34 -20.66 39.68 -21 39 C-21.99 39.495 -21.99 39.495 -23 40 C-22.67 40.66 -22.34 41.32 -22 42 C-13.75 42.33 -5.5 42.66 3 43 C3 44.65 3 46.3 3 48 C-10.53 48 -24.06 48 -38 48 C-38.33 43.05 -38.66 38.1 -39 33 C-45.27 32.67 -51.54 32.34 -58 32 C-58 31.01 -58 30.02 -58 29 C-57.01 28.67 -56.02 28.34 -55 28 C-54.67 27.34 -54.34 26.68 -54 26 C-53.01 25.67 -52.02 25.34 -51 25 C-51 24.01 -51 23.02 -51 22 C-50.34 22 -49.68 22 -49 22 C-48.31292445 19.50935112 -48 17.62113708 -48 15 C-46 15 -44 15 -42 15 C-41.67 14.67 -41.34 14.34 -41 14 C-47.93 13.505 -47.93 13.505 -55 13 C-55 12.67 -55 12.34 -55 12 C-28.27 11.505 -28.27 11.505 -1 11 C-0.67 7.37 -0.34 3.74 0 0 Z " fill="#6A72FD" transform="translate(98,54)"/>
<path d="M0 0 C2.97 0.33 5.94 0.66 9 1 C9 2.98 9 4.96 9 7 C13.33927969 8.83695434 13.33927969 8.83695434 17.875 8.125 C18.926875 7.568125 18.926875 7.568125 20 7 C20.433125 8.134375 20.86625 9.26875 21.3125 10.4375 C22.3061169 12.45153786 22.3061169 12.45153786 24 14 C26.93713773 14.71501749 29.6179844 14.87371097 32.63671875 14.9296875 C35 15 35 15 36 16 C36.15806531 17.92478813 36.251135 19.8549921 36.31640625 21.78515625 C36.35830078 22.95498047 36.40019531 24.12480469 36.44335938 25.33007812 C36.48267578 26.56177734 36.52199219 27.79347656 36.5625 29.0625 C36.60568359 30.29806641 36.64886719 31.53363281 36.69335938 32.80664062 C36.79984198 35.87097335 36.90185424 38.93539073 37 42 C38.65 42 40.3 42 42 42 C43.60339848 45.11771927 44.18974141 46.39011689 43.125 49.8125 C42.75375 50.534375 42.3825 51.25625 42 52 C42.99 52.495 42.99 52.495 44 53 C43.34 54.65 42.68 56.3 42 58 C39.69 58 37.38 58 35 58 C35 58.99 35 59.98 35 61 C33.35 61 31.7 61 30 61 C29.6596875 60.0409375 29.6596875 60.0409375 29.3125 59.0625 C28.14749104 56.72806339 28.14749104 56.72806339 25.375 56.25 C24.59125 56.1675 23.8075 56.085 23 56 C22.505 54.02 22.505 54.02 22 52 C22.66 52 23.32 52 24 52 C22.89368917 47.82079989 22.89368917 47.82079989 20.375 44.4375 C19 43 19 43 18.9375 40.5 C18.958125 39.675 18.97875 38.85 19 38 C18.34 37.01 17.68 36.02 17 35 C17.66 35 18.32 35 19 35 C19 33.35 19 31.7 19 30 C18.01 30.495 18.01 30.495 17 31 C15.62451844 31.08308638 14.24514204 31.10736016 12.8671875 31.09765625 C12.06152344 31.09443359 11.25585938 31.09121094 10.42578125 31.08789062 C9.58402344 31.07951172 8.74226563 31.07113281 7.875 31.0625 C7.02550781 31.05798828 6.17601563 31.05347656 5.30078125 31.04882812 C3.20049091 31.03702874 1.1002367 31.01909306 -1 31 C-1 30.34 -1 29.68 -1 29 C1.31 29.33 3.62 29.66 6 30 C5.94779297 28.51886719 5.94779297 28.51886719 5.89453125 27.0078125 C5.86746094 25.72648437 5.84039062 24.44515625 5.8125 23.125 C5.76029297 21.21074219 5.76029297 21.21074219 5.70703125 19.2578125 C5.80371094 18.18273437 5.90039062 17.10765625 6 16 C6.99 15.34 7.98 14.68 9 14 C7.78410016 12.56844101 7.78410016 12.56844101 4.1875 12.6875 C1.1692278 12.74168801 0.13824172 12.91359892 -2.5 14.5625 C-4.53366895 17.86721204 -4.3468602 20.18453778 -4 24 C-3.67 24.99 -3.34 25.98 -3 27 C-7.29 27 -11.58 27 -16 27 C-14.68 25.35 -13.36 23.7 -12 22 C-11.33314062 19.45672892 -11.33314062 19.45672892 -12 17 C-13.89584109 14.68622853 -13.89584109 14.68622853 -16 13 C-14.35 10.69 -12.7 8.38 -11 6 C-10.071875 6.37125 -9.14375 6.7425 -8.1875 7.125 C-6.6096875 7.558125 -6.6096875 7.558125 -5 8 C-1.39345961 5.59563974 -1.14547068 4.05320393 0 0 Z M28 47 C27.6366844 49.83386167 27.6431329 51.40522151 29.125 53.875 C31.92151052 55.55290631 33.93690532 54.74875648 37 54 C37.67673447 50.59679066 37.67673447 50.59679066 38 47 C36.11499729 44.68436913 36.11499729 44.68436913 33 44.75 C29.88500271 44.68436913 29.88500271 44.68436913 28 47 Z " fill="#36DCC5" transform="translate(99,18)"/>
<path d="M0 0 C1.85776765 3.13498292 2.20140476 5.37471432 2 9 C1.030625 9.28875 0.06125 9.5775 -0.9375 9.875 C-4.10664203 10.64214682 -4.10664203 10.64214682 -5 13 C-5.0689472 14.37342831 -5.08467708 15.75002102 -5.0625 17.125 C-5.041875 18.40375 -5.02125 19.6825 -5 21 C-3.58398286 21.48108275 -2.16715563 21.95978141 -0.75 22.4375 C0.03890625 22.70433594 0.8278125 22.97117187 1.640625 23.24609375 C3.9415665 24.04633041 3.9415665 24.04633041 6.171875 24.34765625 C8 25 8 25 10 29 C18.58 28.67 27.16 28.34 36 28 C35.67 28.66 35.34 29.32 35 30 C32.35139573 30.59355614 29.70802678 30.74209269 27 31 C27 31.66 27 32.32 27 33 C41.19 33 55.38 33 70 33 C69.67 32.34 69.34 31.68 69 31 C67.845 30.835 66.69 30.67 65.5 30.5 C64.345 30.335 63.19 30.17 62 30 C61.505 29.01 61.505 29.01 61 28 C66.45769811 27.88861841 71.61509359 28.08342019 77 29 C77 31.64 77 34.28 77 37 C69.71409984 37.04682155 62.42823335 37.08211748 55.14221191 37.10362434 C51.75718789 37.11395864 48.37226851 37.12792229 44.98730469 37.15087891 C6.5625541 37.39227608 6.5625541 37.39227608 -1 33 C-0.67 32.34 -0.34 31.68 0 31 C0.66 31 1.32 31 2 31 C1.67 30.34 1.34 29.68 1 29 C-1.92713788 28.05065798 -3.42831368 27.76823527 -6.3125 28.9375 C-6.869375 29.288125 -7.42625 29.63875 -8 30 C-10.0625 28.5625 -10.0625 28.5625 -12 26 C-12.05823431 22.92416977 -11.59222907 20.01264352 -11 17 C-12.32 17 -13.64 17 -15 17 C-14.67 14.36 -14.34 11.72 -14 9 C-12.35 9 -10.7 9 -9 9 C-7.88158632 6.91229447 -7.0291824 5.14591199 -6.5625 2.8125 C-6.376875 2.214375 -6.19125 1.61625 -6 1 C-3 0 -3 0 0 0 Z " fill="#EAEBF2" transform="translate(24,88)"/>
<path d="M0 0 C16.83 0 33.66 0 51 0 C51 4.62 51 9.24 51 14 C34.17 14 17.34 14 0 14 C0 9.38 0 4.76 0 0 Z " fill="#404991" transform="translate(44,47)"/>
<path d="M0 0 C18.15 0 36.3 0 55 0 C55.495 1.98 55.495 1.98 56 4 C65.9 3.505 65.9 3.505 76 3 C76 5.33333333 76 7.66666667 76 10 C76.495 10.495 76.495 10.495 77 11 C77 13.31 77 15.62 77 18 C72.38 18 67.76 18 63 18 C63 15.03 63 12.06 63 9 C60.69 9 58.38 9 56 9 C56.01160156 9.78246094 56.02320313 10.56492187 56.03515625 11.37109375 C56.04417969 12.38300781 56.05320313 13.39492188 56.0625 14.4375 C56.07410156 15.44683594 56.08570313 16.45617187 56.09765625 17.49609375 C56 20 56 20 55 21 C53.28681054 21.09881593 51.56955197 21.12798969 49.85351562 21.12939453 C48.75567749 21.13254669 47.65783936 21.13569885 46.5267334 21.13894653 C45.33197388 21.1369223 44.13721436 21.13489807 42.90625 21.1328125 C41.68925415 21.13376923 40.4722583 21.13472595 39.21838379 21.13571167 C36.63924101 21.13639372 34.06009653 21.13453772 31.48095703 21.13037109 C27.51721364 21.12502322 23.55358358 21.13031529 19.58984375 21.13671875 C17.09114558 21.13605797 14.59244748 21.13477682 12.09375 21.1328125 C10.30161072 21.13584885 10.30161072 21.13584885 8.4732666 21.13894653 C7.37542847 21.13579437 6.27759033 21.13264221 5.14648438 21.12939453 C3.68873596 21.12820114 3.68873596 21.12820114 2.20153809 21.12698364 C0 21 0 21 -1 20 C-1.10011296 17.01133358 -1.13873975 14.05089547 -1.125 11.0625 C-1.12886719 10.22525391 -1.13273437 9.38800781 -1.13671875 8.52539062 C-1.13542969 7.72423828 -1.13414063 6.92308594 -1.1328125 6.09765625 C-1.13168457 5.36039307 -1.13055664 4.62312988 -1.12939453 3.86352539 C-1 2 -1 2 0 0 Z M2 2 C2 6.62 2 11.24 2 16 C18.83 16 35.66 16 53 16 C53 11.38 53 6.76 53 2 C36.17 2 19.34 2 2 2 Z " fill="#39C6D4" transform="translate(42,45)"/>
<path d="M0 0 C1.12019531 -0.00128906 2.24039063 -0.00257812 3.39453125 -0.00390625 C4.57402344 -0.00003906 5.75351562 0.00382812 6.96875 0.0078125 C8.73798828 0.00201172 8.73798828 0.00201172 10.54296875 -0.00390625 C12.22326172 -0.00197266 12.22326172 -0.00197266 13.9375 0 C14.97326172 0.00112793 16.00902344 0.00225586 17.07617188 0.00341797 C19.46875 0.1328125 19.46875 0.1328125 20.46875 1.1328125 C20.56861975 3.97616298 20.60752881 6.78978413 20.59375 9.6328125 C20.59955078 10.82970703 20.59955078 10.82970703 20.60546875 12.05078125 C20.59535767 18.00620483 20.59535767 18.00620483 19.46875 19.1328125 C17.62715977 19.23240871 15.78178033 19.26361661 13.9375 19.265625 C12.81730469 19.26691406 11.69710937 19.26820312 10.54296875 19.26953125 C9.36347656 19.26566406 8.18398438 19.26179688 6.96875 19.2578125 C5.19951172 19.26361328 5.19951172 19.26361328 3.39453125 19.26953125 C1.71423828 19.26759766 1.71423828 19.26759766 0 19.265625 C-1.03576172 19.26449707 -2.07152344 19.26336914 -3.13867188 19.26220703 C-5.53125 19.1328125 -5.53125 19.1328125 -6.53125 18.1328125 C-6.63111975 15.28946202 -6.67002881 12.47584087 -6.65625 9.6328125 C-6.66011719 8.83488281 -6.66398437 8.03695312 -6.66796875 7.21484375 C-6.65573175 0.007248 -6.65573175 0.007248 0 0 Z " fill="#3BC1D8" transform="translate(39.53125,85.8671875)"/>
<path d="M0 0 C0.88494141 -0.01224609 1.76988281 -0.02449219 2.68164062 -0.03710938 C3.52791016 -0.03904297 4.37417969 -0.04097656 5.24609375 -0.04296875 C6.02525146 -0.04707764 6.80440918 -0.05118652 7.60717773 -0.05541992 C9.5625 0.1875 9.5625 0.1875 11.5625 2.1875 C12.2225 1.8575 12.8825 1.5275 13.5625 1.1875 C13.5625 2.1775 13.5625 3.1675 13.5625 4.1875 C12.44875 4.6 11.335 5.0125 10.1875 5.4375 C6.8775023 6.85417901 5.9482097 7.82220501 4.5625 11.1875 C0.71326524 15.33282974 -2.77135826 19.00401535 -8.70581055 19.30102539 C-9.56988525 19.29578857 -10.43395996 19.29055176 -11.32421875 19.28515625 C-12.26201172 19.28193359 -13.19980469 19.27871094 -14.16601562 19.27539062 C-15.14248047 19.26701172 -16.11894531 19.25863281 -17.125 19.25 C-18.11306641 19.24548828 -19.10113281 19.24097656 -20.11914062 19.23632812 C-22.55865474 19.22454303 -24.99804689 19.20809011 -27.4375 19.1875 C-27.4375 18.1975 -27.4375 17.2075 -27.4375 16.1875 C-26.4475 15.8575 -25.4575 15.5275 -24.4375 15.1875 C-24.1075 14.5275 -23.7775 13.8675 -23.4375 13.1875 C-22.4475 12.8575 -21.4575 12.5275 -20.4375 12.1875 C-20.4375 11.1975 -20.4375 10.2075 -20.4375 9.1875 C-19.7775 9.1875 -19.1175 9.1875 -18.4375 9.1875 C-17.75042445 6.69685112 -17.4375 4.80863708 -17.4375 2.1875 C-15.4375 2.1875 -13.4375 2.1875 -11.4375 2.1875 C-11.1075 1.8575 -10.7775 1.5275 -10.4375 1.1875 C-8.1977852 -1.0522148 -3.00852512 0.00218167 0 0 Z " fill="#655CFE" transform="translate(67.4375,66.8125)"/>
<path d="M0 0 C1.98 0 3.96 0 6 0 C6.33 0.66 6.66 1.32 7 2 C15.25 2 23.5 2 32 2 C32.33 1.34 32.66 0.68 33 0 C38.94 0 44.88 0 51 0 C51 2.31 51 4.62 51 7 C49.35 7.33 47.7 7.66 46 8 C46.495 9.485 46.495 9.485 47 11 C40.46721214 11.02527002 33.93443679 11.04283292 27.40161133 11.05493164 C25.17732268 11.05997317 22.95303737 11.06680623 20.72875977 11.07543945 C17.53921691 11.08751298 14.34971771 11.09322996 11.16015625 11.09765625 C9.65860741 11.10539818 9.65860741 11.10539818 8.12672424 11.11329651 C7.20584518 11.11337204 6.28496613 11.11344757 5.33618164 11.11352539 C4.11373497 11.11685631 4.11373497 11.11685631 2.86659241 11.12025452 C1 11 1 11 0 10 C-0.07205511 8.31391034 -0.08386068 6.62499341 -0.0625 4.9375 C-0.05347656 4.01839844 -0.04445313 3.09929687 -0.03515625 2.15234375 C-0.02355469 1.44207031 -0.01195313 0.73179688 0 0 Z " fill="#BED7FE" transform="translate(27,102)"/>
<path d="M0 0 C0.83265381 0.00523682 1.66530762 0.01047363 2.52319336 0.01586914 C3.42231445 0.0190918 4.32143555 0.02231445 5.24780273 0.02563477 C6.66609375 0.03820313 6.66609375 0.03820313 8.11303711 0.05102539 C9.06243164 0.05553711 10.01182617 0.06004883 10.98999023 0.06469727 C13.34356776 0.07652429 15.69702188 0.09300514 18.05053711 0.11352539 C18.07941525 3.5926748 18.09729398 7.0717937 18.11303711 10.55102539 C18.12141602 11.54424805 18.12979492 12.5374707 18.13842773 13.56079102 C18.14326172 14.97714844 18.14326172 14.97714844 18.14819336 16.42211914 C18.15604858 17.73394165 18.15604858 17.73394165 18.1640625 19.07226562 C18.05053711 21.11352539 18.05053711 21.11352539 17.05053711 22.11352539 C15.55919801 22.1301477 14.06692906 22.07671739 12.57788086 21.99243164 C11.67875977 21.9440918 10.77963867 21.89575195 9.85327148 21.84594727 C8.90774414 21.78987305 7.9622168 21.73379883 6.98803711 21.67602539 C6.03864258 21.62381836 5.08924805 21.57161133 4.11108398 21.51782227 C1.75726759 21.38771181 -0.59616988 21.25273427 -2.94946289 21.11352539 C-2.97834436 17.80104352 -2.99622088 14.48859372 -3.01196289 11.17602539 C-3.0203418 10.23049805 -3.0287207 9.2849707 -3.03735352 8.31079102 C-3.04057617 7.41166992 -3.04379883 6.51254883 -3.04711914 5.58618164 C-3.05235596 4.75352783 -3.05759277 3.92087402 -3.06298828 3.06298828 C-2.90876673 0.41468917 -2.64829911 0.15422155 0 0 Z " fill="#38CDCE" transform="translate(15.949462890625,58.886474609375)"/>
<path d="M0 0 C1.32 0 2.64 0 4 0 C4 6.6 4 13.2 4 20 C6.31 20 8.62 20 11 20 C12 21 12 21 12.09765625 24.16015625 C12.08605469 25.44792969 12.07445313 26.73570313 12.0625 28.0625 C12.05347656 29.35285156 12.04445313 30.64320312 12.03515625 31.97265625 C12.02355469 32.97167969 12.01195313 33.97070312 12 35 C11.67 34.34 11.34 33.68 11 33 C7.37501666 32.97106068 3.75006287 32.95322208 0.125 32.9375 C-0.90753906 32.92912109 -1.94007812 32.92074219 -3.00390625 32.91210938 C-3.99003906 32.90888672 -4.97617188 32.90566406 -5.9921875 32.90234375 C-7.35899658 32.89448853 -7.35899658 32.89448853 -8.75341797 32.88647461 C-11.03687509 32.85114435 -11.03687509 32.85114435 -13 34 C-13.19456705 32.04235617 -13.38044247 30.08384679 -13.5625 28.125 C-13.71912109 26.48917969 -13.71912109 26.48917969 -13.87890625 24.8203125 C-14 22 -14 22 -13 20 C-8.71 20 -4.42 20 0 20 C0 13.4 0 6.8 0 0 Z " fill="#5F4DFC" transform="translate(115,63)"/>
<path d="M0 0 C2.97 0.33 5.94 0.66 9 1 C9 2.98 9 4.96 9 7 C13.33927969 8.83695434 13.33927969 8.83695434 17.875 8.125 C18.926875 7.568125 18.926875 7.568125 20 7 C21.32 9.64 22.64 12.28 24 15 C21.70858714 15.05384521 19.41681812 15.09272087 17.125 15.125 C15.21074219 15.15980469 15.21074219 15.15980469 13.2578125 15.1953125 C10 15 10 15 8 13 C2.43622348 12.41262964 2.43622348 12.41262964 -2.5 14.5625 C-4.53366895 17.86721204 -4.3468602 20.18453778 -4 24 C-3.67 24.99 -3.34 25.98 -3 27 C-7.29 27 -11.58 27 -16 27 C-14.68 25.35 -13.36 23.7 -12 22 C-11.33314062 19.45672892 -11.33314062 19.45672892 -12 17 C-13.89584109 14.68622853 -13.89584109 14.68622853 -16 13 C-14.35 10.69 -12.7 8.38 -11 6 C-10.071875 6.37125 -9.14375 6.7425 -8.1875 7.125 C-6.6096875 7.558125 -6.6096875 7.558125 -5 8 C-1.39345961 5.59563974 -1.14547068 4.05320393 0 0 Z " fill="#E9EAF1" transform="translate(99,18)"/>
<path d="M0 0 C3 1 3 1 4 3 C4.08510205 4.9593604 4.10717656 6.92162794 4.09765625 8.8828125 C4.09443359 10.04941406 4.09121094 11.21601562 4.08789062 12.41796875 C4.07951172 13.64128906 4.07113281 14.86460938 4.0625 16.125 C4.05798828 17.35605469 4.05347656 18.58710937 4.04882812 19.85546875 C4.03701341 22.90366639 4.0190775 25.95183916 4 29 C-4.25 29 -12.5 29 -21 29 C-21.125 16.375 -21.125 16.375 -20 13 C-19.34 13 -18.68 13 -18 13 C-17.67 14.65 -17.34 16.3 -17 18 C-11.39 18.33 -5.78 18.66 0 19 C0 12.73 0 6.46 0 0 Z " fill="#7183FE" transform="translate(123,95)"/>
<path d="M0 0 C1.58206422 0.00574487 3.16410406 0.01876032 4.74609375 0.03515625 C7.53046875 0.05578125 10.31484375 0.07640625 13.18359375 0.09765625 C13.18359375 6.03765625 13.18359375 11.97765625 13.18359375 18.09765625 C10.39921875 18.11828125 7.61484375 18.13890625 4.74609375 18.16015625 C3.86767822 18.16926025 2.9892627 18.17836426 2.08422852 18.18774414 C0.11713401 18.19488716 -1.84994246 18.14797518 -3.81640625 18.09765625 C-5.63756628 16.27649622 -4.94875705 13.79093861 -4.953125 11.37109375 C-4.94925781 10.62085937 -4.94539063 9.870625 -4.94140625 9.09765625 C-4.94527344 8.34742187 -4.94914062 7.5971875 -4.953125 6.82421875 C-4.94103514 0.12643386 -4.94103514 0.12643386 0 0 Z " fill="#4BD0E3" transform="translate(109.81640625,95.90234375)"/>
<path d="M0 0 C0.33 0 0.66 0 1 0 C1.03738281 0.62648438 1.07476562 1.25296875 1.11328125 1.8984375 C1.21189453 3.12433594 1.21189453 3.12433594 1.3125 4.375 C1.39951172 5.59316406 1.39951172 5.59316406 1.48828125 6.8359375 C1.82990528 9.37921338 1.82990528 9.37921338 5 11 C4.67 14.63 4.34 18.26 4 22 C3.34 22 2.68 22 2 22 C1.67 27.28 1.34 32.56 1 38 C9.25 38 17.5 38 26 38 C26 38.66 26 39.32 26 40 C28.31 40.66 30.62 41.32 33 42 C32 44 32 44 30.34521484 44.61450195 C25.49200924 45.41225457 20.54404055 45.18590312 15.63769531 45.18530273 C13.63863013 45.18748512 11.63960468 45.20599143 9.640625 45.22460938 C8.36960937 45.22654297 7.09859375 45.22847656 5.7890625 45.23046875 C4.63100098 45.23457764 3.47293945 45.23868652 2.27978516 45.24291992 C-1.11310954 44.99162245 -3.83332989 44.21173908 -7 43 C-6 41 -6 41 0 39 C0 26.13 0 13.26 0 0 Z " fill="#5F52E9" transform="translate(101,86)"/>
<path d="M0 0 C0.83265381 0.00523682 1.66530762 0.01047363 2.52319336 0.01586914 C3.42231445 0.0190918 4.32143555 0.02231445 5.24780273 0.02563477 C6.66609375 0.03820312 6.66609375 0.03820312 8.11303711 0.05102539 C9.06243164 0.05553711 10.01182617 0.06004883 10.98999023 0.06469727 C13.34356776 0.07652429 15.69702188 0.09300514 18.05053711 0.11352539 C18.07739649 2.25929176 18.09686799 4.40515184 18.11303711 6.55102539 C18.12463867 7.74598633 18.13624023 8.94094727 18.14819336 10.17211914 C18.05053711 13.11352539 18.05053711 13.11352539 17.05053711 14.11352539 C14.06187069 14.21363835 11.10143258 14.25226514 8.11303711 14.23852539 C7.27579102 14.24239258 6.43854492 14.24625977 5.57592773 14.25024414 C4.77477539 14.24895508 3.97362305 14.24766602 3.14819336 14.24633789 C2.41093018 14.24520996 1.67366699 14.24408203 0.9140625 14.24291992 C-0.94946289 14.11352539 -0.94946289 14.11352539 -2.94946289 13.11352539 C-2.97632842 11.13443141 -2.99579665 9.15523568 -3.01196289 7.17602539 C-3.02356445 6.07387695 -3.03516602 4.97172852 -3.04711914 3.83618164 C-2.91561293 0.16978835 -2.91561293 0.16978835 0 0 Z " fill="#33CDD9" transform="translate(15.949462890625,31.886474609375)"/>
<path d="M0 0 C1.25554687 -0.00128906 2.51109375 -0.00257812 3.8046875 -0.00390625 C4.46178711 -0.00181152 5.11888672 0.0002832 5.79589844 0.00244141 C7.80411335 0.00779016 9.81210459 0.00249559 11.8203125 -0.00390625 C13.07585937 -0.00261719 14.33140625 -0.00132813 15.625 0 C16.78644531 0.00112793 17.94789063 0.00225586 19.14453125 0.00341797 C21.8125 0.1328125 21.8125 0.1328125 22.8125 1.1328125 C22.88476502 2.98568752 22.8963122 4.84115128 22.875 6.6953125 C22.86597656 7.70722656 22.85695312 8.71914063 22.84765625 9.76171875 C22.83605469 10.54417969 22.82445312 11.32664062 22.8125 12.1328125 C14.92656844 10.5814817 14.92656844 10.5814817 11.8125 6.1328125 C9.3125 5.54947917 9.3125 5.54947917 6.8125 6.1328125 C5.31235609 7.46570904 5.31235609 7.46570904 3.8125 9.1328125 C0.23702394 11.07600601 -3.40741518 12.63999934 -7.1875 14.1328125 C-7.21435938 11.98704613 -7.23383088 9.84118605 -7.25 7.6953125 C-7.26160156 6.50035156 -7.27320312 5.30539063 -7.28515625 4.07421875 C-7.11114431 -1.16702086 -4.66394941 0.00452936 0 0 Z " fill="#3AD4D3" transform="translate(112.1875,32.8671875)"/>
<path d="M0 0 C0 2.33333333 0 4.66666667 0 7 C0.33 7.33 0.66 7.66 1 8 C1 10.31 1 12.62 1 15 C-3.62 15 -8.24 15 -13 15 C-13 12.03 -13 9.06 -13 6 C-15.31 6 -17.62 6 -20 6 C-20 4.35 -20 2.7 -20 1 C-17.04170322 0.832662 -14.08336635 0.66609948 -11.125 0.5 C-9.86236328 0.42845703 -9.86236328 0.42845703 -8.57421875 0.35546875 C-7.76855469 0.31035156 -6.96289062 0.26523437 -6.1328125 0.21875 C-5.38918457 0.17685547 -4.64555664 0.13496094 -3.87939453 0.09179688 C-2.58744125 0.0286929 -1.29349349 0 0 0 Z " fill="#37C6D8" transform="translate(118,48)"/>
<path d="M0 0 C7.81452752 -0.02526563 15.62904458 -0.04283105 23.44360352 -0.05493164 C26.10441481 -0.05997383 28.76522332 -0.06680736 31.42602539 -0.07543945 C35.24105516 -0.08751009 39.05604844 -0.09322929 42.87109375 -0.09765625 C44.66793861 -0.10539818 44.66793861 -0.10539818 46.50108337 -0.11329651 C48.15268211 -0.11340981 48.15268211 -0.11340981 49.83764648 -0.11352539 C50.81249496 -0.115746 51.78734344 -0.11796661 52.79173279 -0.12025452 C55 0 55 0 56 1 C56.09860131 2.40348735 56.13078937 3.81180477 56.1328125 5.21875 C56.13474609 6.49298828 56.13474609 6.49298828 56.13671875 7.79296875 C56.13285156 8.68628906 56.12898438 9.57960938 56.125 10.5 C56.13080078 11.83998047 56.13080078 11.83998047 56.13671875 13.20703125 C56.13542969 14.05652344 56.13414063 14.90601563 56.1328125 15.78125 C56.13168457 16.56564453 56.13055664 17.35003906 56.12939453 18.15820312 C56 20 56 20 55 21 C52.64686445 21.07271741 50.29166332 21.08370868 47.9375 21.0625 C46.64714844 21.05347656 45.35679688 21.04445313 44.02734375 21.03515625 C43.02832031 21.02355469 42.02929688 21.01195313 41 21 C43.21574667 18.78425333 45.20950178 17.42769676 48 16 C49.65 16 51.3 16 53 16 C53 11.38 53 6.76 53 2 C36.17 2 19.34 2 2 2 C2 2.66 2 3.32 2 4 C1.01 4 0.02 4 -1 4 C-0.67 2.68 -0.34 1.36 0 0 Z " fill="#34D1D4" transform="translate(42,45)"/>
<path d="M0 0 C2.625 0.25 2.625 0.25 4.4375 1.625 C5.625 3.25 5.625 3.25 5.625 5.25 C7.275 5.25 8.925 5.25 10.625 5.25 C11.285 6.57 11.945 7.89 12.625 9.25 C8.335 9.25 4.045 9.25 -0.375 9.25 C-0.375 11.23 -0.375 13.21 -0.375 15.25 C0.615 15.58 1.605 15.91 2.625 16.25 C1.635 17.24 0.645 18.23 -0.375 19.25 C-4.25 17.5 -4.25 17.5 -5.375 15.25 C-4.715 15.25 -4.055 15.25 -3.375 15.25 C-3.375 13.6 -3.375 11.95 -3.375 10.25 C-4.365 10.745 -4.365 10.745 -5.375 11.25 C-6.75048156 11.33308638 -8.12985796 11.35736016 -9.5078125 11.34765625 C-10.31347656 11.34443359 -11.11914062 11.34121094 -11.94921875 11.33789062 C-12.79097656 11.32951172 -13.63273437 11.32113281 -14.5 11.3125 C-15.34949219 11.30798828 -16.19898437 11.30347656 -17.07421875 11.29882812 C-19.17450909 11.28702874 -21.2747633 11.26909306 -23.375 11.25 C-23.375 10.59 -23.375 9.93 -23.375 9.25 C-22.385 9.353125 -21.395 9.45625 -20.375 9.5625 C-15.44479834 9.58246033 -12.27728209 6.99059644 -8.375 4.25 C-7.405625 3.6725 -6.43625 3.095 -5.4375 2.5 C-1.5883758 0.16719745 -1.5883758 0.16719745 0 0 Z " fill="#F8FDFD" transform="translate(121.375,37.75)"/>
<path d="M0 0 C13.53 0 27.06 0 41 0 C41 1.65 41 3.3 41 5 C27.47 5 13.94 5 0 5 C0 3.35 0 1.7 0 0 Z " fill="#3C3D89" transform="translate(60,97)"/>
<path d="M0 0 C1.08667969 0.02707031 2.17335938 0.05414063 3.29296875 0.08203125 C4.54013672 0.13423828 4.54013672 0.13423828 5.8125 0.1875 C5.89325665 2.47859597 5.95157731 4.77049267 6 7.0625 C6.03480469 8.33867188 6.06960937 9.61484375 6.10546875 10.9296875 C6.00878906 12.00476563 5.91210938 13.07984375 5.8125 14.1875 C4.8225 14.8475 3.8325 15.5075 2.8125 16.1875 C2.30247326 19.00881393 2.30247326 19.00881393 2.25 22.1875 C2.0202597 27.9797403 2.0202597 27.9797403 -0.1875 30.1875 C-0.5175 23.5875 -0.8475 16.9875 -1.1875 10.1875 C-3.8275 10.1875 -6.4675 10.1875 -9.1875 10.1875 C-9.55218886 3.74466353 -9.55218886 3.74466353 -8.0625 1.46875 C-5.3504604 -0.38447706 -3.24426436 -0.10465369 0 0 Z " fill="#5935FF" transform="translate(35.1875,48.8125)"/>
<path d="M0 0 C1.98 0 3.96 0 6 0 C7.60339848 3.11771927 8.18974141 4.39011689 7.125 7.8125 C6.75375 8.534375 6.3825 9.25625 6 10 C6.66 10.33 7.32 10.66 8 11 C7.34 12.65 6.68 14.3 6 16 C3.69 16 1.38 16 -1 16 C-1 16.99 -1 17.98 -1 19 C-2.65 19 -4.3 19 -6 19 C-6.226875 18.360625 -6.45375 17.72125 -6.6875 17.0625 C-7.85250896 14.72806339 -7.85250896 14.72806339 -10.625 14.25 C-11.40875 14.1675 -12.1925 14.085 -13 14 C-13.33 12.68 -13.66 11.36 -14 10 C-13.34 10 -12.68 10 -12 10 C-12.66 7.69 -13.32 5.38 -14 3 C-11.36 3 -8.72 3 -6 3 C-6.20625 4.11375 -6.4125 5.2275 -6.625 6.375 C-6.74875 7.57125 -6.8725 8.7675 -7 10 C-5.10244856 12.34973818 -5.10244856 12.34973818 -1.875 12.125 C-0.451875 12.063125 -0.451875 12.063125 1 12 C1.29562367 6.67829506 1.29562367 6.67829506 -1 2 C-0.67 1.34 -0.34 0.68 0 0 Z " fill="#EAEBF2" transform="translate(135,60)"/>
<path d="M0 0 C-0.99 0.495 -0.99 0.495 -2 1 C-1.67 1.66 -1.34 2.32 -1 3 C5.27 3.33 11.54 3.66 18 4 C18 4.66 18 5.32 18 6 C3.81 6 -10.38 6 -25 6 C-25 5.34 -25 4.68 -25 4 C-23.72125 3.7525 -22.4425 3.505 -21.125 3.25 C-18.91983176 2.76256896 -18.91983176 2.76256896 -17 2 C-16.31731862 0.67479497 -15.6492959 -0.65812182 -15 -2 C-9.07297286 -3.77810814 -5.42932078 -2.38128105 0 0 Z " fill="#A2C5FE" transform="translate(76,115)"/>
<path d="M0 0 C1.18613892 0.00785522 1.18613892 0.00785522 2.39624023 0.01586914 C3.67724609 0.02070312 3.67724609 0.02070312 4.98413086 0.02563477 C5.88196289 0.03401367 6.77979492 0.04239258 7.70483398 0.05102539 C8.6065332 0.05553711 9.50823242 0.06004883 10.43725586 0.06469727 C12.67234712 0.07652315 14.90730835 0.09300319 17.14233398 0.11352539 C16.81233398 1.10352539 16.48233398 2.09352539 16.14233398 3.11352539 C13.83233398 3.11352539 11.52233398 3.11352539 9.14233398 3.11352539 C9.14233398 3.77352539 9.14233398 4.43352539 9.14233398 5.11352539 C8.31733398 5.58790039 7.49233398 6.06227539 6.64233398 6.55102539 C5.81733398 7.06665039 4.99233398 7.58227539 4.14233398 8.11352539 C4.14233398 9.10352539 4.14233398 10.09352539 4.14233398 11.11352539 C4.80233398 11.77352539 5.46233398 12.43352539 6.14233398 13.11352539 C6.80233398 12.45352539 7.46233398 11.79352539 8.14233398 11.11352539 C7.81233398 12.76352539 7.48233398 14.41352539 7.14233398 16.11352539 C3.84233398 16.11352539 0.54233398 16.11352539 -2.85766602 16.11352539 C-2.88451697 13.63428738 -2.90443149 11.15533699 -2.92016602 8.67602539 C-2.93273438 7.61544922 -2.93273438 7.61544922 -2.94555664 6.53344727 C-2.95420189 4.7265898 -2.90986613 2.91964936 -2.85766602 1.11352539 C-1.85766602 0.11352539 -1.85766602 0.11352539 0 0 Z " fill="#41A8E5" transform="translate(35.857666015625,85.886474609375)"/>
<path d="M0 0 C1.32 0 2.64 0 4 0 C4 6.6 4 13.2 4 20 C6.31 20 8.62 20 11 20 C11.33 20.99 11.66 21.98 12 23 C3.19039858 24.30512614 -5.19039858 24.30512614 -14 23 C-13.505 21.515 -13.505 21.515 -13 20 C-8.71 20 -4.42 20 0 20 C0 13.4 0 6.8 0 0 Z " fill="#4C4CA1" transform="translate(115,63)"/>
<path d="M0 0 C1.31871094 -0.01224609 2.63742188 -0.02449219 3.99609375 -0.03710938 C5.90068359 -0.04000977 5.90068359 -0.04000977 7.84375 -0.04296875 C9.00068359 -0.04707764 10.15761719 -0.05118652 11.34960938 -0.05541992 C14.47736509 0.18575467 16.680892 0.85423629 19.5 2.1875 C18.5 4.1875 18.5 4.1875 16.84521484 4.80200195 C11.99200924 5.59975457 7.04404055 5.37340312 2.13769531 5.37280273 C0.13863013 5.37498512 -1.86039532 5.39349143 -3.859375 5.41210938 C-5.13039063 5.41404297 -6.40140625 5.41597656 -7.7109375 5.41796875 C-8.86899902 5.42207764 -10.02706055 5.42618652 -11.22021484 5.43041992 C-14.61310954 5.17912245 -17.33332989 4.39923908 -20.5 3.1875 C-20.17 2.5275 -19.84 1.8675 -19.5 1.1875 C-13.23640183 -0.60566158 -6.45139424 0.00315317 0 0 Z " fill="#EAEBF2" transform="translate(114.5,125.8125)"/>
<path d="M0 0 C5.61 0 11.22 0 17 0 C17 2.64 17 5.28 17 8 C11.39 8 5.78 8 0 8 C0 5.36 0 2.72 0 0 Z " fill="#3D4D95" transform="translate(15,34)"/>
<path d="M0 0 C1.32 0 2.64 0 4 0 C4 0.99 4 1.98 4 3 C4.99 2.67 5.98 2.34 7 2 C8.2380014 5.57644848 7.74926071 8.33694766 7 12 C6.01 12 5.02 12 4 12 C3.67 12.66 3.34 13.32 3 14 C2.01 14 1.02 14 0 14 C0 13.01 0 12.02 0 11 C-1.65 10.67 -3.3 10.34 -5 10 C-5 7.69 -5 5.38 -5 3 C-3.35 2.67 -1.7 2.34 0 2 C0 1.34 0 0.68 0 0 Z " fill="#DFF4F8" transform="translate(22,63)"/>
<path d="M0 0 C1.64574566 -0.02688151 3.29161413 -0.04634123 4.9375 -0.0625 C5.85402344 -0.07410156 6.77054687 -0.08570312 7.71484375 -0.09765625 C10 0 10 0 11 1 C11.66 0.67 12.32 0.34 13 0 C13 3.96 13 7.92 13 12 C8.71 12 4.42 12 0 12 C0.66 10.68 1.32 9.36 2 8 C1.67 7.34 1.34 6.68 1 6 C2.98 6.495 2.98 6.495 5 7 C5 6.01 5 5.02 5 4 C3.35 4 1.7 4 0 4 C0 3.67 0 3.34 0 3 C1.65 2.67 3.3 2.34 5 2 C3.35 1.67 1.7 1.34 0 1 C0 0.67 0 0.34 0 0 Z " fill="#758CFE" transform="translate(102,70)"/>
<path d="M0 0 C1.65322266 0.01740234 1.65322266 0.01740234 3.33984375 0.03515625 C4.99693359 0.04869141 4.99693359 0.04869141 6.6875 0.0625 C7.54214844 0.07410156 8.39679687 0.08570313 9.27734375 0.09765625 C9.27734375 1.41765625 9.27734375 2.73765625 9.27734375 4.09765625 C7.95734375 4.09765625 6.63734375 4.09765625 5.27734375 4.09765625 C5.27734375 4.75765625 5.27734375 5.41765625 5.27734375 6.09765625 C3.95734375 6.42765625 2.63734375 6.75765625 1.27734375 7.09765625 C1.15359375 8.17015625 1.02984375 9.24265625 0.90234375 10.34765625 C0.38090439 13.4762924 -0.12353879 15.43246049 -1.72265625 18.09765625 C-2.38265625 18.09765625 -3.04265625 18.09765625 -3.72265625 18.09765625 C-3.74949937 15.28509344 -3.76941813 12.47278384 -3.78515625 9.66015625 C-3.79353516 8.85771484 -3.80191406 8.05527344 -3.81054688 7.22851562 C-3.81917055 5.18470404 -3.77493775 3.14081723 -3.72265625 1.09765625 C-2.72265625 0.09765625 -2.72265625 0.09765625 0 0 Z " fill="#31C7DD" transform="translate(16.72265625,58.90234375)"/>
<path d="M0 0 C0.99 0 1.98 0 3 0 C3.02685095 2.47923801 3.04676547 4.9581884 3.0625 7.4375 C3.07087891 8.14455078 3.07925781 8.85160156 3.08789062 9.58007812 C3.09653588 11.38693559 3.05220011 13.19387603 3 15 C2 16 2 16 -0.72265625 16.09765625 C-1.82480469 16.08605469 -2.92695312 16.07445313 -4.0625 16.0625 C-5.16722656 16.05347656 -6.27195313 16.04445313 -7.41015625 16.03515625 C-8.69212891 16.01775391 -8.69212891 16.01775391 -10 16 C-9 13 -9 13 -6.625 10.6875 C-3.9284224 7.92671817 -2.55646715 5.50205109 -1 2 C-0.67 1.34 -0.34 0.68 0 0 Z " fill="#35D4C5" transform="translate(57,89)"/>
<path d="M0 0 C0.99 0 1.98 0 3 0 C3 3.96 3 7.92 3 12 C7.29 12 11.58 12 16 12 C16.33 12.99 16.66 13.98 17 15 C13.3924497 17.40503353 11.65163611 17.2396541 7.375 17.1875 C6.20710938 17.18105469 5.03921875 17.17460938 3.8359375 17.16796875 C1 17 1 17 0 16 C-0.07319621 13.30345146 -0.09242537 10.63308542 -0.0625 7.9375 C-0.05798828 7.17888672 -0.05347656 6.42027344 -0.04882812 5.63867188 C-0.0370068 3.75908129 -0.01907078 1.87953101 0 0 Z " fill="#3EA8E4" transform="translate(41,49)"/>
<path d="M0 0 C0.99 0 1.98 0 3 0 C4.82089479 3.64178957 4.05121113 8.00553148 4 12 C-1.61 12 -7.22 12 -13 12 C-13 11.34 -13 10.68 -13 10 C-12.01 9.67 -11.02 9.34 -10 9 C-10.33 8.01 -10.66 7.02 -11 6 C-10.34 6 -9.68 6 -9 6 C-9 6.66 -9 7.32 -9 8 C-7.68 8.33 -6.36 8.66 -5 9 C-5 7.68 -5 6.36 -5 5 C-3.625 3.25 -3.625 3.25 -2 2 C-1.34 2 -0.68 2 0 2 C0 1.34 0 0.68 0 0 Z " fill="#57D8D6" transform="translate(119,102)"/>
<path d="M0 0 C0.33 0.66 0.66 1.32 1 2 C8.59 1.67 16.18 1.34 24 1 C24 1.66 24 2.32 24 3 C19.71 3 15.42 3 11 3 C11 4.98 11 6.96 11 9 C11.99 9.33 12.98 9.66 14 10 C13.01 10.99 12.02 11.98 11 13 C7.125 11.25 7.125 11.25 6 9 C6.66 9 7.32 9 8 9 C8 7.35 8 5.7 8 4 C7.01 4.495 7.01 4.495 6 5 C4.62451844 5.08308638 3.24514204 5.10736016 1.8671875 5.09765625 C1.06152344 5.09443359 0.25585938 5.09121094 -0.57421875 5.08789062 C-1.41597656 5.07951172 -2.25773437 5.07113281 -3.125 5.0625 C-3.97449219 5.05798828 -4.82398437 5.05347656 -5.69921875 5.04882812 C-7.79950909 5.03702874 -9.8997633 5.01909306 -12 5 C-12 4.34 -12 3.68 -12 3 C-10.948125 3.061875 -9.89625 3.12375 -8.8125 3.1875 C-4.84183507 2.9922214 -3.15803031 2.29674932 0 0 Z " fill="#8CD9E4" transform="translate(110,44)"/>
<path d="M0 0 C1.32 0 2.64 0 4 0 C4 5.28 4 10.56 4 16 C4.99 16 5.98 16 7 16 C7 17.65 7 19.3 7 21 C4.69 21 2.38 21 0 21 C0 14.07 0 7.14 0 0 Z " fill="#41428D" transform="translate(26,81)"/>
<path d="M0 0 C0.66 0 1.32 0 2 0 C2.33 1.65 2.66 3.3 3 5 C6.63 5.33 10.26 5.66 14 6 C11.49183541 8.50816459 10.09162264 9.61410019 7 11 C7 11.99 7 12.98 7 14 C4.66666667 14 2.33333333 14 0 14 C-0.33 14.66 -0.66 15.32 -1 16 C-1.02701408 13.89590361 -1.04640223 11.79170822 -1.0625 9.6875 C-1.07410156 8.51574219 -1.08570312 7.34398438 -1.09765625 6.13671875 C-1 3 -1 3 0 0 Z " fill="#6B72FE" transform="translate(103,108)"/>
<path d="M0 0 C0.99 0 1.98 0 3 0 C3.02684679 2.64590014 3.04676357 5.29153096 3.0625 7.9375 C3.07087891 8.69224609 3.07925781 9.44699219 3.08789062 10.22460938 C3.09652441 12.14994313 3.05224333 14.07535581 3 16 C2 17 2 17 -1.16015625 17.09765625 C-2.44792969 17.08605469 -3.73570313 17.07445313 -5.0625 17.0625 C-6.35285156 17.05347656 -7.64320312 17.04445313 -8.97265625 17.03515625 C-9.97167969 17.02355469 -10.97070312 17.01195313 -12 17 C-9.78425333 14.78425333 -7.79049822 13.42769676 -5 12 C-3.35 12 -1.7 12 0 12 C0 8.04 0 4.08 0 0 Z " fill="#37D2CA" transform="translate(95,49)"/>
<path d="M0 0 C1.08667969 0.02707031 2.17335938 0.05414063 3.29296875 0.08203125 C4.54013672 0.13423828 4.54013672 0.13423828 5.8125 0.1875 C5.8125 1.8375 5.8125 3.4875 5.8125 5.1875 C2.1825 5.1875 -1.4475 5.1875 -5.1875 5.1875 C-5.1875 6.8375 -5.1875 8.4875 -5.1875 10.1875 C-6.5075 10.1875 -7.8275 10.1875 -9.1875 10.1875 C-9.55218886 3.74466353 -9.55218886 3.74466353 -8.0625 1.46875 C-5.3504604 -0.38447706 -3.24426436 -0.10465369 0 0 Z " fill="#3C3D89" transform="translate(35.1875,48.8125)"/>
<path d="M0 0 C5.94 0 11.88 0 18 0 C18 3 18 3 17 5 C11.39 5 5.78 5 0 5 C0 3.35 0 1.7 0 0 Z " fill="#34ACC5" transform="translate(98,49)"/>
<path d="M0 0 C1.32 0 2.64 0 4 0 C4 6.6 4 13.2 4 20 C2.68 19.67 1.36 19.34 0 19 C0 12.73 0 6.46 0 0 Z " fill="#3E3E8B" transform="translate(115,63)"/>
<path d="M0 0 C1.67542976 0.28604898 3.34385343 0.61781233 5 1 C6.00619398 5.3266341 6.36822864 8.12471677 4 12 C1.4140625 13.140625 1.4140625 13.140625 -1 14 C-1.02685938 11.85423363 -1.04633088 9.70837355 -1.0625 7.5625 C-1.07410156 6.36753906 -1.08570312 5.17257813 -1.09765625 3.94140625 C-1 1 -1 1 0 0 Z " fill="#33C7E0" transform="translate(106,33)"/>
<path d="M0 0 C8.58 0 17.16 0 26 0 C25.67 0.99 25.34 1.98 25 3 C17.08 3 9.16 3 1 3 C0.67 2.01 0.34 1.02 0 0 Z " fill="#4C4CA0" transform="translate(101,124)"/>
<path d="M0 0 C1.32 0 2.64 0 4 0 C3.69128878 1.79232337 3.37790936 3.58384321 3.0625 5.375 C2.88847656 6.37273437 2.71445312 7.37046875 2.53515625 8.3984375 C2 11 2 11 1 13 C-1 13 -1 13 -3.625 10.6875 C-6 8 -6 8 -6 5 C-4.6875 3.3125 -4.6875 3.3125 -3 2 C-2.01 2 -1.02 2 0 2 C0 1.34 0 0.68 0 0 Z " fill="#46B8DF" transform="translate(45,89)"/>
<path d="M0 0 C1.93166016 0.01740234 1.93166016 0.01740234 3.90234375 0.03515625 C5.19269531 0.04417969 6.48304687 0.05320312 7.8125 0.0625 C8.81152344 0.07410156 9.81054688 0.08570312 10.83984375 0.09765625 C8.27438435 2.66311565 6.36297707 2.63811712 2.83984375 3.09765625 C3.82984375 3.42765625 4.81984375 3.75765625 5.83984375 4.09765625 C5.22109375 4.51015625 4.60234375 4.92265625 3.96484375 5.34765625 C1.77216094 7.15339504 0.91195958 8.50670965 -0.16015625 11.09765625 C-0.49015625 9.44765625 -0.82015625 7.79765625 -1.16015625 6.09765625 C-2.15015625 9.56265625 -2.15015625 9.56265625 -3.16015625 13.09765625 C-3.49015625 13.09765625 -3.82015625 13.09765625 -4.16015625 13.09765625 C-4.18702178 11.11856227 -4.20649 9.13936654 -4.22265625 7.16015625 C-4.23425781 6.05800781 -4.24585937 4.95585938 -4.2578125 3.8203125 C-4.11749553 -0.09172464 -3.97435676 0.12281696 0 0 Z " fill="#43C0EF" transform="translate(109.16015625,95.90234375)"/>
<path d="M0 0 C4.95 0 9.9 0 15 0 C15 0.99 15 1.98 15 3 C11.40537669 5.25998595 8.43404325 5.20868087 4.25 5.125 C3.07953125 5.10695313 1.9090625 5.08890625 0.703125 5.0703125 C-0.63492188 5.03550781 -0.63492188 5.03550781 -2 5 C-1.34 4.01 -0.68 3.02 0 2 C0 1.34 0 0.68 0 0 Z " fill="#3CB6DD" transform="translate(57,61)"/>
<path d="M0 0 C3.3 0 6.6 0 10 0 C10 0.99 10 1.98 10 3 C8.68 3 7.36 3 6 3 C6 4.98 6 6.96 6 9 C2.04 10.98 2.04 10.98 -2 13 C-2 12.01 -2 11.02 -2 10 C0 8.3125 0 8.3125 2 7 C1.34 6.67 0.68 6.34 0 6 C0 4.02 0 2.04 0 0 Z " fill="#38D6CE" transform="translate(121,47)"/>
<path d="M0 0 C1.32 0 2.64 0 4 0 C4 3.96 4 7.92 4 12 C3.67 11.34 3.34 10.68 3 10 C0.03 10 -2.94 10 -6 10 C-5.67 9.01 -5.34 8.02 -5 7 C-4.34 6.67 -3.68 6.34 -3 6 C-2.29788106 4.34795544 -1.63028587 2.68076231 -1 1 C-0.67 0.67 -0.34 0.34 0 0 Z " fill="#665EFF" transform="translate(123,86)"/>
<path d="M0 0 C4.29 0 8.58 0 13 0 C11.68 0.99 10.36 1.98 9 3 C8.71125 3.845625 8.4225 4.69125 8.125 5.5625 C7 8 7 8 3.875 9.3125 C2.92625 9.539375 1.9775 9.76625 1 10 C1.020625 8.906875 1.04125 7.81375 1.0625 6.6875 C1.18544452 3.05615809 1.18544452 3.05615809 0 0 Z " fill="#6DD4E3" transform="translate(110,33)"/>
<path d="M0 0 C1.60725635 3.21451269 1.05748185 6.43612536 1 10 C-2.96 10 -6.92 10 -11 10 C-10 8 -10 8 -7 7 C-6.31867549 5.33927151 -5.65257873 3.672233 -5 2 C-2 0 -2 0 0 0 Z " fill="#7793FE" transform="translate(126,114)"/>
<path d="M0 0 C2.64 0 5.28 0 8 0 C8 2.64 8 5.28 8 8 C6.02 8.99 6.02 8.99 4 10 C3.34 9.01 2.68 8.02 2 7 C1.34 7 0.68 7 0 7 C0 4.69 0 2.38 0 0 Z " fill="#3CB9DC" transform="translate(26,59)"/>
<path d="M0 0 C2.31 0 4.62 0 7 0 C7.75 1.625 7.75 1.625 8 4 C6.3125 7.1875 6.3125 7.1875 4 10 C2.68 10.33 1.36 10.66 0 11 C0 7.37 0 3.74 0 0 Z " fill="#5936FF" transform="translate(102,86)"/>
<path d="M0 0 C1.24716797 0.00322266 2.49433594 0.00644531 3.77929688 0.00976562 C5.07287109 0.01814453 6.36644531 0.02652344 7.69921875 0.03515625 C9.66858398 0.04192383 9.66858398 0.04192383 11.67773438 0.04882812 C14.91410885 0.06059676 18.15039053 0.07703865 21.38671875 0.09765625 C21.05671875 0.75765625 20.72671875 1.41765625 20.38671875 2.09765625 C19.73074707 2.11747559 19.07477539 2.13729492 18.39892578 2.15771484 C15.43610806 2.25278132 12.47401343 2.36253377 9.51171875 2.47265625 C7.96291016 2.5190625 7.96291016 2.5190625 6.3828125 2.56640625 C4.90361328 2.62441406 4.90361328 2.62441406 3.39453125 2.68359375 C2.4833252 2.71501465 1.57211914 2.74643555 0.63330078 2.77880859 C-1.81259311 2.89648136 -1.81259311 2.89648136 -3.61328125 5.09765625 C-6.34197532 5.06478042 -8.90994305 4.53367854 -11.61328125 4.09765625 C-11.61328125 3.10765625 -11.61328125 2.11765625 -11.61328125 1.09765625 C-7.68039761 0.16677716 -4.03673962 -0.0184326 0 0 Z " fill="#D9D9E8" transform="translate(106.61328125,125.90234375)"/>
<path d="M0 0 C1.64574566 -0.02688151 3.29161413 -0.04634123 4.9375 -0.0625 C5.85402344 -0.07410156 6.77054687 -0.08570312 7.71484375 -0.09765625 C10 0 10 0 11 1 C11.66 0.67 12.32 0.34 13 0 C13 2.64 13 5.28 13 8 C12.34 8 11.68 8 11 8 C11 8.99 11 9.98 11 11 C10.34 11 9.68 11 9 11 C8.67 9.02 8.34 7.04 8 5 C5.36 4.67 2.72 4.34 0 4 C0 3.67 0 3.34 0 3 C1.65 2.67 3.3 2.34 5 2 C3.35 1.67 1.7 1.34 0 1 C0 0.67 0 0.34 0 0 Z " fill="#7E97FE" transform="translate(102,70)"/>
<path d="M0 0 C0.99 0 1.98 0 3 0 C3 3.96 3 7.92 3 12 C4.32 12 5.64 12 7 12 C7 12.66 7 13.32 7 14 C5.68 14 4.36 14 3 14 C3 14.99 3 15.98 3 17 C2.01 16.67 1.02 16.34 0 16 C0 10.72 0 5.44 0 0 Z " fill="#3D96DF" transform="translate(41,49)"/>
<path d="M0 0 C1.65 0 3.3 0 5 0 C5.02685938 2.14576637 5.04633088 4.29162645 5.0625 6.4375 C5.07410156 7.63246094 5.08570313 8.82742187 5.09765625 10.05859375 C5 13 5 13 4 14 C2.00041636 14.04080783 -0.00045254 14.04254356 -2 14 C-2.33 13.01 -2.66 12.02 -3 11 C-2 10 -2 10 0.5625 9.9375 C1.366875 9.958125 2.17125 9.97875 3 10 C3 7.36 3 4.72 3 2 C2.01 1.67 1.02 1.34 0 1 C0 0.67 0 0.34 0 0 Z " fill="#35D7CC" transform="translate(29,32)"/>
<path d="M0 0 C7.26 0 14.52 0 22 0 C21.67 0.66 21.34 1.32 21 2 C14.73 2 8.46 2 2 2 C2 2.66 2 3.32 2 4 C1.01 4 0.02 4 -1 4 C-0.67 2.68 -0.34 1.36 0 0 Z " fill="#32C8DC" transform="translate(42,45)"/>
<path d="M0 0 C3.375 -0.125 3.375 -0.125 7 0 C7.66 0.66 8.32 1.32 9 2 C9.66 1.34 10.32 0.68 11 0 C10.67 1.65 10.34 3.3 10 5 C6.7 5 3.4 5 0 5 C0 3.35 0 1.7 0 0 Z " fill="#36ADC6" transform="translate(33,97)"/>
<path d="M0 0 C0.66 0.33 1.32 0.66 2 1 C1.67 2.65 1.34 4.3 1 6 C-2.96 6 -6.92 6 -11 6 C-10 3 -10 3 -7.9375 1.8125 C-7.298125 1.544375 -6.65875 1.27625 -6 1 C-6 1.99 -6 2.98 -6 4 C-3.00667261 3.0022242 -2.05233685 2.2477975 0 0 Z " fill="#37DDC5" transform="translate(58,99)"/>
<path d="M0 0 C0.33 0 0.66 0 1 0 C1 2.64 1 5.28 1 8 C-4.61 8 -10.22 8 -16 8 C-16 7.34 -16 6.68 -16 6 C-15.31292969 6.01160156 -14.62585938 6.02320312 -13.91796875 6.03515625 C-12.56638672 6.04869141 -12.56638672 6.04869141 -11.1875 6.0625 C-9.84751953 6.07990234 -9.84751953 6.07990234 -8.48046875 6.09765625 C-5.86586209 6.11009967 -5.86586209 6.11009967 -3 5 C-1.9590934 3.35857037 -0.95495674 1.69287785 0 0 Z " fill="#37DACC" transform="translate(122,106)"/>
<path d="M0 0 C-0.33 0.99 -0.66 1.98 -1 3 C-5.29 3 -9.58 3 -14 3 C-14.33 2.01 -14.66 1.02 -15 0 C-4.44191344 -1.33257403 -4.44191344 -1.33257403 0 0 Z " fill="#50CFDA" transform="translate(48,102)"/>
<path d="M0 0 C0.4125 0.515625 0.825 1.03125 1.25 1.5625 C2.89081865 3.25326429 2.89081865 3.25326429 5.0625 2.8125 C7.18712526 2.06529664 7.18712526 2.06529664 9 0 C9.66 1.32 10.32 2.64 11 4 C10.34 4.66 9.68 5.32 9 6 C8.34 6 7.68 6 7 6 C6.67 6.66 6.34 7.32 6 8 C5.01 8 4.02 8 3 8 C3 7.01 3 6.02 3 5 C1.35 4.67 -0.3 4.34 -2 4 C-2 3.34 -2 2.68 -2 2 C-1.34 2 -0.68 2 0 2 C0 1.34 0 0.68 0 0 Z " fill="#EFFAFB" transform="translate(19,69)"/>
<path d="M0 0 C0.66 0 1.32 0 2 0 C2 2.33333333 2 4.66666667 2 7 C2.33 7.33 2.66 7.66 3 8 C3.04092937 10.33297433 3.04241723 12.66705225 3 15 C1.68 14.67 0.36 14.34 -1 14 C-1.22162329 12.37675914 -1.42689803 10.751279 -1.625 9.125 C-1.74101563 8.22007813 -1.85703125 7.31515625 -1.9765625 6.3828125 C-1.98429687 5.59648438 -1.99203125 4.81015625 -2 4 C-1.34 3.34 -0.68 2.68 0 2 C0 1.34 0 0.68 0 0 Z " fill="#36C1C7" transform="translate(116,48)"/>
<path d="M0 0 C3 1 3 1 4 3 C4.25797575 6.95562822 4.09440189 9.59659693 2 13 C1.34 13 0.68 13 0 13 C0 8.71 0 4.42 0 0 Z " fill="#6D75FE" transform="translate(123,95)"/>
<path d="M0 0 C3.3 0 6.6 0 10 0 C10 0.66 10 1.32 10 2 C8.6078125 2.3403125 8.6078125 2.3403125 7.1875 2.6875 C3.47418434 4.21651233 2.75211095 5.4957781 1 9 C0.67 9 0.34 9 0 9 C0 6.03 0 3.06 0 0 Z " fill="#3DBBDD" transform="translate(105,54)"/>
<path d="M0 0 C1.23556641 0.01740234 1.23556641 0.01740234 2.49609375 0.03515625 C3.32238281 0.04417969 4.14867187 0.05320312 5 0.0625 C5.63808594 0.07410156 6.27617188 0.08570312 6.93359375 0.09765625 C6.60359375 0.75765625 6.27359375 1.41765625 5.93359375 2.09765625 C2.87109375 2.72265625 2.87109375 2.72265625 -0.06640625 3.09765625 C-0.06640625 4.41765625 -0.06640625 5.73765625 -0.06640625 7.09765625 C-1.05640625 7.42765625 -2.04640625 7.75765625 -3.06640625 8.09765625 C-3.10882348 5.7647085 -3.10733562 3.43063058 -3.06640625 1.09765625 C-2.06640625 0.09765625 -2.06640625 0.09765625 0 0 Z " fill="#4396EA" transform="translate(36.06640625,85.90234375)"/>
<path d="M0 0 C2.31 0 4.62 0 7 0 C7 1.65 7 3.3 7 5 C4.69 5 2.38 5 0 5 C0 3.35 0 1.7 0 0 Z " fill="#3C3E8A" transform="translate(98,49)"/>
<path d="M0 0 C1.07765625 0.10183594 2.1553125 0.20367187 3.265625 0.30859375 C4.08546875 0.39238281 4.9053125 0.47617188 5.75 0.5625 C5.75 1.2225 5.75 1.8825 5.75 2.5625 C0.47 2.5625 -4.81 2.5625 -10.25 2.5625 C-10.25 1.9025 -10.25 1.2425 -10.25 0.5625 C-6.70049966 -0.60056443 -3.69176052 -0.36115049 0 0 Z " fill="#99C0FE" transform="translate(68.25,118.4375)"/>
<path d="M0 0 C4.62 0 9.24 0 14 0 C14.33 1.32 14.66 2.64 15 4 C14.01 4 13.02 4 12 4 C12 3.34 12 2.68 12 2 C8.37 2 4.74 2 1 2 C0.67 1.34 0.34 0.68 0 0 Z " fill="#57D9D5" transform="translate(83,45)"/>
<path d="M0 0 C0.33 0.66 0.66 1.32 1 2 C0.67 2.99 0.34 3.98 0 5 C-2.64 5 -5.28 5 -8 5 C-7.75 3.125 -7.75 3.125 -7 1 C-4.09342573 -1.03460199 -3.47133392 -1.15711131 0 0 Z " fill="#33CDD7" transform="translate(126,34)"/>
<path d="M0 0 C0.66 0 1.32 0 2 0 C1.69128878 1.79232337 1.37790936 3.58384321 1.0625 5.375 C0.88847656 6.37273437 0.71445312 7.37046875 0.53515625 8.3984375 C0 11 0 11 -1 13 C-1.66 13 -2.32 13 -3 13 C-2.52060632 8.28596212 -2.03165952 4.33420699 0 0 Z " fill="#D9F3F6" transform="translate(47,89)"/>
<path d="M0 0 C2.64 0 5.28 0 8 0 C8 1.32 8 2.64 8 4 C6.68 4 5.36 4 4 4 C4 4.66 4 5.32 4 6 C2.68 5.67 1.36 5.34 0 5 C0.66 4.34 1.32 3.68 2 3 C1.34 2.01 0.68 1.02 0 0 Z " fill="#39CEDA" transform="translate(18,59)"/>
<path d="M0 0 C0.99 0 1.98 0 3 0 C3 1.98 3 3.96 3 6 C2.34 6 1.68 6 1 6 C1 6.66 1 7.32 1 8 C-0.32 7.67 -1.64 7.34 -3 7 C-2.01 4.69 -1.02 2.38 0 0 Z " fill="#3ACED1" transform="translate(57,89)"/>
<path d="M0 0 C0.99 0 1.98 0 3 0 C3 2.31 3 4.62 3 7 C1.35 7.33 -0.3 7.66 -2 8 C-2.125 5.125 -2.125 5.125 -2 2 C-1.34 1.34 -0.68 0.68 0 0 Z " fill="#3DCCD2" transform="translate(31,67)"/>
<path d="M0 0 C0.66 0 1.32 0 2 0 C2 1.65 2 3.3 2 5 C2.99 5.33 3.98 5.66 5 6 C4.01 6.99 3.02 7.98 2 9 C-1.875 7.25 -1.875 7.25 -3 5 C-2.01 5 -1.02 5 0 5 C0 3.35 0 1.7 0 0 Z " fill="#F0FAFB" transform="translate(119,48)"/>
<path d="M0 0 C0.6875 1.6875 0.6875 1.6875 1 4 C-0.25 6.75 -0.25 6.75 -2 9 C-2.99 9 -3.98 9 -5 9 C-5 5 -5 5 -3.625 3.25 C-2 2 -2 2 0 2 C0 1.34 0 0.68 0 0 Z " fill="#37D6D5" transform="translate(119,102)"/>
<path d="M0 0 C0.66 0 1.32 0 2 0 C2.66 2.31 3.32 4.62 4 7 C3.34 7.66 2.68 8.32 2 9 C1.01 9 0.02 9 -1 9 C-0.67 6.03 -0.34 3.06 0 0 Z " fill="#6762FF" transform="translate(103,108)"/>
<path d="M0 0 C1.32 0 2.64 0 4 0 C4 1.65 4 3.3 4 5 C2.68 5.33 1.36 5.66 0 6 C-0.38218767 4.34385343 -0.71395102 2.67542976 -1 1 C-0.67 0.67 -0.34 0.34 0 0 Z " fill="#40CCDC" transform="translate(22,67)"/>
<path d="M0 0 C1.32 0 2.64 0 4 0 C4 1.98 4 3.96 4 6 C2.68 6.33 1.36 6.66 0 7 C0 4.69 0 2.38 0 0 Z " fill="#39B2C7" transform="translate(26,59)"/>
<path d="M0 0 C0 2.64 0 5.28 0 8 C-1.70884005 6.37660195 -3.37446717 4.70680947 -5 3 C-5 2.34 -5 1.68 -5 1 C-3 0 -3 0 0 0 Z " fill="#3CCFE0" transform="translate(123,96)"/>
<path d="M0 0 C3.3 0 6.6 0 10 0 C10 0.33 10 0.66 10 1 C7.36 1.33 4.72 1.66 2 2 C2 2.66 2 3.32 2 4 C1.01 4 0.02 4 -1 4 C-0.67 2.68 -0.34 1.36 0 0 Z " fill="#46AFF5" transform="translate(106,96)"/>
<path d="M0 0 C1.98 0.99 1.98 0.99 4 2 C4 2.99 4 3.98 4 5 C2 6.6875 2 6.6875 0 8 C0.185625 7.236875 0.37125 6.47375 0.5625 5.6875 C1.22819173 2.91032625 1.22819173 2.91032625 0 0 Z " fill="#E4F7F9" transform="translate(50,92)"/>
<path d="M0 0 C1.65 0.33 3.3 0.66 5 1 C4.67 1.99 4.34 2.98 4 4 C1.69 4 -0.62 4 -3 4 C-2.34 3.67 -1.68 3.34 -1 3 C-0.67 2.01 -0.34 1.02 0 0 Z " fill="#48D7D1" transform="translate(43,101)"/>
<path d="M0 0 C-0.66 1.65 -1.32 3.3 -2 5 C-1.34 5 -0.68 5 0 5 C-0.33 5.99 -0.66 6.98 -1 8 C-2.32 6.35 -3.64 4.7 -5 3 C-2.25 0 -2.25 0 0 0 Z " fill="#E1F4F8" transform="translate(43,92)"/>
<path d="M0 0 C1.98 0 3.96 0 6 0 C5.67 0.99 5.34 1.98 5 3 C2.69 3 0.38 3 -2 3 C-1.34 2.67 -0.68 2.34 0 2 C0 1.34 0 0.68 0 0 Z " fill="#3CAFE0" transform="translate(47,86)"/>
<path d="M0 0 C0.99 0 1.98 0 3 0 C3.33 1.32 3.66 2.64 4 4 C2.35 4.33 0.7 4.66 -1 5 C-0.67 3.35 -0.34 1.7 0 0 Z " fill="#3CC4C8" transform="translate(47,97)"/>
<path d="M0 0 C0.66 0.33 1.32 0.66 2 1 C2.625 3.0625 2.625 3.0625 3 5 C1.35 5.33 -0.3 5.66 -2 6 C-1.34 4.02 -0.68 2.04 0 0 Z " fill="#55CADD" transform="translate(49,91)"/>
<path d="M0 0 C0.66 0 1.32 0 2 0 C2 1.98 2 3.96 2 6 C0.02 6 -1.96 6 -4 6 C-4 5.34 -4 4.68 -4 4 C-2.68 3.67 -1.36 3.34 0 3 C0 2.01 0 1.02 0 0 Z " fill="#36DEC4" transform="translate(32,74)"/>
<path d="M0 0 C0.66 0 1.32 0 2 0 C2 0.66 2 1.32 2 2 C1.01 1.67 0.02 1.34 -1 1 C-0.67 0.67 -0.34 0.34 0 0 Z " fill="#E8EAF1" transform="translate(7,81)"/>
<path d="M0 0 C0.66 0 1.32 0 2 0 C2 0.66 2 1.32 2 2 C1.01 1.67 0.02 1.34 -1 1 C-0.67 0.67 -0.34 0.34 0 0 Z " fill="#EDEEF4" transform="translate(7,75)"/>
<path d="M0 0 C0.66 0 1.32 0 2 0 C2 0.66 2 1.32 2 2 C1.01 1.67 0.02 1.34 -1 1 C-0.67 0.67 -0.34 0.34 0 0 Z " fill="#EBECF3" transform="translate(7,69)"/>
<path d="M0 0 C0.66 0 1.32 0 2 0 C2 0.66 2 1.32 2 2 C1.01 1.67 0.02 1.34 -1 1 C-0.67 0.67 -0.34 0.34 0 0 Z " fill="#EBECF2" transform="translate(7,63)"/>
<path d="M0 0 C3 1 3 1 3 1 Z " fill="#ECEDF3" transform="translate(6,58)"/>
<path d="M0 0 C3 1 3 1 3 1 Z " fill="#ECEDF3" transform="translate(6,52)"/>
<path d="M0 0 C3 1 3 1 3 1 Z " fill="#EBEBF2" transform="translate(6,46)"/>
<path d="M0 0 C3 1 3 1 3 1 Z " fill="#E8E9F1" transform="translate(6,40)"/>
<path d="M0 0 C3 1 3 1 3 1 Z " fill="#E9EBF2" transform="translate(6,34)"/>
</svg>
