<?xml version="1.0" encoding="UTF-8"?>
<svg version="1.1" xmlns="http://www.w3.org/2000/svg" width="150" height="150">
<path d="M0 0 C0.495 2.475 0.495 2.475 1 5 C5.77762638 6.01687046 5.77762638 6.01687046 10.4375 5.0625 C10.953125 4.711875 11.46875 4.36125 12 4 C17 9.75 17 9.75 17 12 C16.01 12.66 15.02 13.32 14 14 C15.14339844 14.06058594 16.28679687 14.12117188 17.46484375 14.18359375 C18.95574305 14.26798428 20.44662775 14.35263302 21.9375 14.4375 C23.06961914 14.49647461 23.06961914 14.49647461 24.22460938 14.55664062 C29.88671875 14.88671875 29.88671875 14.88671875 31 16 C31.15806531 17.92478813 31.251135 19.8549921 31.31640625 21.78515625 C31.35830078 22.95498047 31.40019531 24.12480469 31.44335938 25.33007812 C31.48267578 26.56177734 31.52199219 27.79347656 31.5625 29.0625 C31.60568359 30.29806641 31.64886719 31.53363281 31.69335938 32.80664062 C31.79984198 35.87097335 31.90185424 38.93539073 32 42 C32.61875 41.79375 33.2375 41.5875 33.875 41.375 C34.57625 41.25125 35.2775 41.1275 36 41 C36.66 41.66 37.32 42.32 38 43 C37.96712417 45.72869407 37.43602229 48.2966618 37 51 C37.66 51 38.32 51 39 51 C38.67 52.65 38.34 54.3 38 56 C35.525 56.495 35.525 56.495 33 57 C32.67 58.32 32.34 59.64 32 61 C30.02 61 28.04 61 26 61 C26 60.01 26 59.02 26 58 C24.02 58.33 22.04 58.66 20 59 C19.01 57.35 18.02 55.7 17 54 C17.99 53.67 18.98 53.34 20 53 C19.505 52.236875 19.01 51.47375 18.5 50.6875 C17 48 17 48 17 45 C16.34 45 15.68 45 15 45 C15 51.6 15 58.2 15 65 C17.31 65 19.62 65 22 65 C23 66 23 66 23.11352539 69.96899414 C23.1133662 71.74105607 23.10766785 73.5131226 23.09765625 75.28515625 C23.0962413 76.21597519 23.09482635 77.14679413 23.09336853 78.1058197 C23.08775172 81.09141191 23.0751964 84.07693029 23.0625 87.0625 C23.05748716 89.08137913 23.05292388 91.10025943 23.04882812 93.11914062 C23.03777683 98.07945572 23.02050095 103.03971532 23 108 C25.31 108.66 27.62 109.32 30 110 C29 112 29 112 27.34521484 112.61450195 C22.49200924 113.41225457 17.54404055 113.18590312 12.63769531 113.18530273 C10.63863013 113.18748512 8.63960468 113.20599143 6.640625 113.22460938 C5.36960937 113.22654297 4.09859375 113.22847656 2.7890625 113.23046875 C1.63100098 113.23457764 0.47293945 113.23868652 -0.72021484 113.24291992 C-4.11310954 112.99162245 -6.83332989 112.21173908 -10 111 C-9.67 110.34 -9.34 109.68 -9 109 C-6.4375 108.375 -6.4375 108.375 -4 108 C-4.67857056 107.99191315 -5.35714111 107.98382629 -6.05627441 107.97549438 C-13.19572947 107.88863335 -20.33493245 107.7891071 -27.47412109 107.68261719 C-30.12938188 107.64363425 -32.7845665 107.60971702 -35.43994141 107.578125 C-73.93926359 107.11445232 -73.93926359 107.11445232 -81 103 C-80.505 102.01 -80.505 102.01 -80 101 C-79.01 101 -78.02 101 -77 101 C-77.83447997 98.74644234 -77.83447997 98.74644234 -80.375 98.1875 C-83.04092403 97.69997735 -83.04092403 97.69997735 -84.8125 99.4375 C-85.204375 99.953125 -85.59625 100.46875 -86 101 C-87.65 99.68 -89.3 98.36 -91 97 C-90.814375 96.236875 -90.62875 95.47375 -90.4375 94.6875 C-89.77180827 91.91032625 -89.77180827 91.91032625 -91 89 C-93.01508358 88.26676204 -93.01508358 88.26676204 -95 88 C-95 85.69 -95 83.38 -95 81 C-93.5459375 80.5978125 -93.5459375 80.5978125 -92.0625 80.1875 C-90.5465625 79.5996875 -90.5465625 79.5996875 -89 79 C-87.66666667 76 -87.66666667 76 -89 73 C-86.69 72.01 -84.38 71.02 -82 70 C-80.68 71.32 -79.36 72.64 -78 74 C-78 70.04 -78 66.08 -78 62 C-82.29 62 -86.58 62 -91 62 C-91.02683436 58.68744674 -91.0467578 55.37510817 -91.0625 52.0625 C-91.07087891 51.11697266 -91.07925781 50.17144531 -91.08789062 49.19726562 C-91.09111328 48.29814453 -91.09433594 47.39902344 -91.09765625 46.47265625 C-91.10289307 45.64000244 -91.10812988 44.80734863 -91.11352539 43.94946289 C-91 42 -91 42 -90 41 C-87.98035801 40.92755947 -85.95832876 40.91622812 -83.9375 40.9375 C-82.28041016 40.95103516 -82.28041016 40.95103516 -80.58984375 40.96484375 C-79.73519531 40.97644531 -78.88054687 40.98804688 -78 41 C-78.061875 39.906875 -78.12375 38.81375 -78.1875 37.6875 C-78 34 -78 34 -76.875 32.28125 C-74.1629604 30.42802294 -72.05676436 30.70784631 -68.8125 30.8125 C-67.72582031 30.83957031 -66.63914062 30.86664063 -65.51953125 30.89453125 C-64.27236328 30.94673828 -64.27236328 30.94673828 -63 31 C-62.67 29.68 -62.34 28.36 -62 27 C-46.82 27 -31.64 27 -16 27 C-16.495 23.535 -16.495 23.535 -17 20 C-18.65 19.67 -20.3 19.34 -22 19 C-21.01 16.03 -20.02 13.06 -19 10 C-17.329375 10.061875 -17.329375 10.061875 -15.625 10.125 C-11.95633975 10.41121859 -11.95633975 10.41121859 -10 8 C-9.83318891 4.91652174 -9.83318891 4.91652174 -10 2 C-3.375 0 -3.375 0 0 0 Z M-8 14 C-10.2084626 17.31269391 -10.80664241 19.14978851 -10.5546875 23.0625 C-9.4812192 26.81207941 -7.28696911 28.01541488 -4 30 C-1.36163023 30.1672392 -1.36163023 30.1672392 1 30 C1.03738281 29.01257813 1.07476562 28.02515625 1.11328125 27.0078125 C1.17902344 25.72648437 1.24476562 24.44515625 1.3125 23.125 C1.37050781 21.84882812 1.42851563 20.57265625 1.48828125 19.2578125 C1.65714844 18.18273437 1.82601562 17.10765625 2 16 C2.99 15.34 3.98 14.68 5 14 C3.01607489 11.60148679 3.01607489 11.60148679 -0.8125 11.5625 C-4.17733329 11.66669338 -5.04370031 12.02913354 -8 14 Z M23 47 C22.6366844 49.83386167 22.6431329 51.40522151 24.125 53.875 C26.92151052 55.55290631 28.93690532 54.74875648 32 54 C32.67673447 50.59679066 32.67673447 50.59679066 33 47 C31.11499729 44.68436913 31.11499729 44.68436913 28 44.75 C24.88500271 44.68436913 24.88500271 44.68436913 23 47 Z M-84.25 80.625 C-86.21985834 82.92308586 -86.21985834 82.92308586 -86.5 86 C-86.21376982 89.06575838 -86.21376982 89.06575838 -84.3125 91.375 C-81.61209763 93.27258004 -80.22939919 93.35882213 -77 93 C-76.85024761 85.94348748 -76.85024761 85.94348748 -78 79 C-81.92212225 78.60967296 -81.92212225 78.60967296 -84.25 80.625 Z M-70 95 C-69.67 96.65 -69.34 98.3 -69 100 C-56.625 99.01 -56.625 99.01 -44 98 C-43.67 97.01 -43.34 96.02 -43 95 C-51.91 95 -60.82 95 -70 95 Z M-19 95 C-19 95.99 -19 96.98 -19 98 C-13.72 98.33 -8.44 98.66 -3 99 C-3 97.68 -3 96.36 -3 95 C-8.28 95 -13.56 95 -19 95 Z " fill="#5F4EFE" transform="translate(104,18)"/>
<path d="M0 0 C1.670625 0.061875 1.670625 0.061875 3.375 0.125 C3.375 3.095 3.375 6.065 3.375 9.125 C7.995 9.125 12.615 9.125 17.375 9.125 C17.375 15.725 17.375 22.325 17.375 29.125 C19.685 29.125 21.995 29.125 24.375 29.125 C25.375 30.125 25.375 30.125 25.48852539 34.09399414 C25.4883662 35.86605607 25.48266785 37.6381226 25.47265625 39.41015625 C25.4712413 40.34097519 25.46982635 41.27179413 25.46836853 42.2308197 C25.46275172 45.21641191 25.4501964 48.20193029 25.4375 51.1875 C25.43248716 53.20637913 25.42792388 55.22525943 25.42382812 57.24414062 C25.41277683 62.20445572 25.39550095 67.16471532 25.375 72.125 C27.685 72.785 29.995 73.445 32.375 74.125 C31.375 76.125 31.375 76.125 29.72021484 76.73950195 C24.86700924 77.53725457 19.91904055 77.31090312 15.01269531 77.31030273 C13.01363013 77.31248512 11.01460468 77.33099143 9.015625 77.34960938 C7.74460937 77.35154297 6.47359375 77.35347656 5.1640625 77.35546875 C4.00600098 77.35957764 2.84793945 77.36368652 1.65478516 77.36791992 C-1.73810954 77.11662245 -4.45832989 76.33673908 -7.625 75.125 C-6.625 73.125 -6.625 73.125 -0.625 71.125 C-0.625 63.535 -0.625 55.945 -0.625 48.125 C-14.155 48.125 -27.685 48.125 -41.625 48.125 C-41.955 43.175 -42.285 38.225 -42.625 33.125 C-48.565 32.795 -54.505 32.465 -60.625 32.125 C-61.625 28.125 -61.625 28.125 -61.625 26.125 C-59.645 26.125 -57.665 26.125 -55.625 26.125 C-54.965 24.805 -54.305 23.485 -53.625 22.125 C-52.965 22.125 -52.305 22.125 -51.625 22.125 C-50.635 19.815 -49.645 17.505 -48.625 15.125 C-46.975 15.455 -45.325 15.785 -43.625 16.125 C-43.315625 15.50625 -43.00625 14.8875 -42.6875 14.25 C-40.625 10.125 -40.625 10.125 -37.625 8.125 C-36.94231862 6.79979497 -36.2742959 5.46687818 -35.625 4.125 C-32.84328925 2.73414462 -30.4837082 2.9435984 -27.375 2.87890625 C-26.1271875 2.84603516 -24.879375 2.81316406 -23.59375 2.77929688 C-20.94800409 2.71810098 -18.302165 2.66080894 -15.65625 2.60742188 C-14.4084375 2.57326172 -13.160625 2.53910156 -11.875 2.50390625 C-10.72515625 2.4788501 -9.5753125 2.45379395 -8.390625 2.42797852 C-4.45311862 1.99661857 -4.24602298 0.14641459 0 0 Z " fill="#7285FE" transform="translate(101.625,53.875)"/>
<path d="M0 0 C2.5 1.6875 2.5 1.6875 5 4 C5.3125 6.75 5.3125 6.75 5 9 C4.030625 9.28875 3.06125 9.5775 2.0625 9.875 C-1.10664203 10.64214682 -1.10664203 10.64214682 -2 13 C-2.0689472 14.37342831 -2.08467708 15.75002102 -2.0625 17.125 C-2.041875 18.40375 -2.02125 19.6825 -2 21 C0.64 21.66 3.28 22.32 6 23 C6 20.03 6 17.06 6 14 C7.98 14 9.96 14 12 14 C12.33 14.66 12.66 15.32 13 16 C21.25 16 29.5 16 38 16 C38.33 15.34 38.66 14.68 39 14 C52.53 14 66.06 14 80 14 C80 17.63 80 21.26 80 25 C74.72 25 69.44 25 64 25 C64 25.99 64 26.98 64 28 C64.56847656 27.98839844 65.13695313 27.97679688 65.72265625 27.96484375 C70.60670484 27.90776806 75.18503965 28.18043228 80 29 C80 31.64 80 34.28 80 37 C72.71409984 37.04682155 65.42823335 37.08211748 58.14221191 37.10362434 C54.75718789 37.11395864 51.37226851 37.12792229 47.98730469 37.15087891 C9.5625541 37.39227608 9.5625541 37.39227608 2 33 C2.33 32.34 2.66 31.68 3 31 C3.99 31 4.98 31 6 31 C5.16552003 28.74644234 5.16552003 28.74644234 2.625 28.1875 C-0.04092403 27.69997735 -0.04092403 27.69997735 -1.8125 29.4375 C-2.204375 29.953125 -2.59625 30.46875 -3 31 C-4.65 29.68 -6.3 28.36 -8 27 C-7.7215625 25.8553125 -7.7215625 25.8553125 -7.4375 24.6875 C-6.77180827 21.91032625 -6.77180827 21.91032625 -8 19 C-10.01508358 18.26676204 -10.01508358 18.26676204 -12 18 C-12 15.69 -12 13.38 -12 11 C-11.030625 10.731875 -10.06125 10.46375 -9.0625 10.1875 C-8.051875 9.795625 -7.04125 9.40375 -6 9 C-4.66666667 6 -4.66666667 6 -6 3 C-4.02 2.01 -2.04 1.02 0 0 Z M13 25 C13.33 26.65 13.66 28.3 14 30 C26.375 29.01 26.375 29.01 39 28 C39.33 27.01 39.66 26.02 40 25 C31.09 25 22.18 25 13 25 Z " fill="#B8D3FE" transform="translate(21,88)"/>
<path d="M0 0 C1.670625 0.061875 1.670625 0.061875 3.375 0.125 C3.66859745 3.1784135 3.8201258 6.08243422 3.375 9.125 C0.875 11.6875 0.875 11.6875 -1.625 13.125 C-1.13 14.115 -1.13 14.115 -0.625 15.125 C-1.285 15.455 -1.945 15.785 -2.625 16.125 C-3.12 17.61 -3.12 17.61 -3.625 19.125 C-6.595 19.62 -6.595 19.62 -9.625 20.125 C-9.13 21.61 -9.13 21.61 -8.625 23.125 C-9.945 23.455 -11.265 23.785 -12.625 24.125 C-12.625 24.785 -12.625 25.445 -12.625 26.125 C-13.615 26.455 -14.605 26.785 -15.625 27.125 C-15.13 28.115 -15.13 28.115 -14.625 29.125 C-17.01073379 31.01713369 -18.69675348 32.14891783 -21.625 33.125 C-21.955 34.115 -22.285 35.105 -22.625 36.125 C-24.28032623 37.14366229 -25.94760138 38.14310813 -27.625 39.125 C-28.285 40.115 -28.945 41.105 -29.625 42.125 C-20.055 42.455 -10.485 42.785 -0.625 43.125 C-0.625 44.775 -0.625 46.425 -0.625 48.125 C-14.155 48.125 -27.685 48.125 -41.625 48.125 C-41.955 43.175 -42.285 38.225 -42.625 33.125 C-48.565 32.795 -54.505 32.465 -60.625 32.125 C-61.625 28.125 -61.625 28.125 -61.625 26.125 C-59.645 26.125 -57.665 26.125 -55.625 26.125 C-54.965 24.805 -54.305 23.485 -53.625 22.125 C-52.965 22.125 -52.305 22.125 -51.625 22.125 C-50.635 19.815 -49.645 17.505 -48.625 15.125 C-46.975 15.455 -45.325 15.785 -43.625 16.125 C-43.315625 15.50625 -43.00625 14.8875 -42.6875 14.25 C-40.625 10.125 -40.625 10.125 -37.625 8.125 C-36.94231862 6.79979497 -36.2742959 5.46687818 -35.625 4.125 C-32.84328925 2.73414462 -30.4837082 2.9435984 -27.375 2.87890625 C-26.1271875 2.84603516 -24.879375 2.81316406 -23.59375 2.77929688 C-20.94800409 2.71810098 -18.302165 2.66080894 -15.65625 2.60742188 C-14.4084375 2.57326172 -13.160625 2.53910156 -11.875 2.50390625 C-10.72515625 2.4788501 -9.5753125 2.45379395 -8.390625 2.42797852 C-4.45311862 1.99661857 -4.24602298 0.14641459 0 0 Z " fill="#6B72FE" transform="translate(101.625,53.875)"/>
<path d="M0 0 C0.33 1.65 0.66 3.3 1 5 C5.77762638 6.01687046 5.77762638 6.01687046 10.4375 5.0625 C10.953125 4.711875 11.46875 4.36125 12 4 C17 9.75 17 9.75 17 12 C16.01 12.66 15.02 13.32 14 14 C15.14339844 14.06058594 16.28679687 14.12117188 17.46484375 14.18359375 C18.95574305 14.26798428 20.44662775 14.35263302 21.9375 14.4375 C23.06961914 14.49647461 23.06961914 14.49647461 24.22460938 14.55664062 C29.88671875 14.88671875 29.88671875 14.88671875 31 16 C31.15806531 17.92478813 31.251135 19.8549921 31.31640625 21.78515625 C31.35830078 22.95498047 31.40019531 24.12480469 31.44335938 25.33007812 C31.48267578 26.56177734 31.52199219 27.79347656 31.5625 29.0625 C31.60568359 30.29806641 31.64886719 31.53363281 31.69335938 32.80664062 C31.79984198 35.87097335 31.90185424 38.93539073 32 42 C32.61875 41.79375 33.2375 41.5875 33.875 41.375 C34.57625 41.25125 35.2775 41.1275 36 41 C36.66 41.66 37.32 42.32 38 43 C37.96712417 45.72869407 37.43602229 48.2966618 37 51 C37.66 51 38.32 51 39 51 C38.67 52.65 38.34 54.3 38 56 C35.525 56.495 35.525 56.495 33 57 C32.67 58.32 32.34 59.64 32 61 C30.02 61 28.04 61 26 61 C26 60.01 26 59.02 26 58 C23.03 58.495 23.03 58.495 20 59 C19.01 57.35 18.02 55.7 17 54 C17.99 53.67 18.98 53.34 20 53 C19.505 52.236875 19.01 51.47375 18.5 50.6875 C17 48 17 48 17 45 C16.34 45 15.68 45 15 45 C14.01 43.02 13.02 41.04 12 39 C12.66 39 13.32 39 14 39 C13.505 35.535 13.505 35.535 13 32 C5.74 31.67 -1.52 31.34 -9 31 C-9 30.34 -9 29.68 -9 29 C-11.64 29 -14.28 29 -17 29 C-17 26.03 -17 23.06 -17 20 C-18.65 19.67 -20.3 19.34 -22 19 C-21.01 16.03 -20.02 13.06 -19 10 C-17.329375 10.061875 -17.329375 10.061875 -15.625 10.125 C-11.95633975 10.41121859 -11.95633975 10.41121859 -10 8 C-9.83318891 4.91652174 -9.83318891 4.91652174 -10 2 C-3.375 0 -3.375 0 0 0 Z M-8 14 C-10.2084626 17.31269391 -10.80664241 19.14978851 -10.5546875 23.0625 C-9.4812192 26.81207941 -7.28696911 28.01541488 -4 30 C-1.36163023 30.1672392 -1.36163023 30.1672392 1 30 C1.03738281 29.01257813 1.07476562 28.02515625 1.11328125 27.0078125 C1.17902344 25.72648437 1.24476562 24.44515625 1.3125 23.125 C1.37050781 21.84882812 1.42851563 20.57265625 1.48828125 19.2578125 C1.65714844 18.18273437 1.82601562 17.10765625 2 16 C2.99 15.34 3.98 14.68 5 14 C3.01607489 11.60148679 3.01607489 11.60148679 -0.8125 11.5625 C-4.17733329 11.66669338 -5.04370031 12.02913354 -8 14 Z M23 47 C22.6366844 49.83386167 22.6431329 51.40522151 24.125 53.875 C26.92151052 55.55290631 28.93690532 54.74875648 32 54 C32.67673447 50.59679066 32.67673447 50.59679066 33 47 C31.11499729 44.68436913 31.11499729 44.68436913 28 44.75 C24.88500271 44.68436913 24.88500271 44.68436913 23 47 Z " fill="#35D1D3" transform="translate(104,18)"/>
<path d="M0 0 C15.18 0 30.36 0 46 0 C46 0.33 46 0.66 46 1 C47.11375 1.144375 48.2275 1.28875 49.375 1.4375 C53 2 53 2 55 3 C56.50817808 3.13957617 58.02156316 3.22540553 59.53515625 3.28125 C60.42654297 3.31863281 61.31792969 3.35601562 62.23632812 3.39453125 C64.12434353 3.46498932 66.0123644 3.53530122 67.90039062 3.60546875 C69.23553711 3.66154297 69.23553711 3.66154297 70.59765625 3.71875 C71.41758057 3.74904297 72.23750488 3.77933594 73.08227539 3.81054688 C75 4 75 4 76 5 C76.04241723 7.33294775 76.04092937 9.66702567 76 12 C75.91915479 14.36380344 75.91915479 14.36380344 77 18 C72.38 18 67.76 18 63 18 C63 15.03 63 12.06 63 9 C57.98464948 9.32960216 57.98464948 9.32960216 54 12 C51.76086426 12.26069641 51.76086426 12.26069641 48.93945312 12.2746582 C47.88495972 12.28419022 46.83046631 12.29372223 45.74401855 12.30354309 C44.02994812 12.30217598 44.02994812 12.30217598 42.28125 12.30078125 C40.52802429 12.30720894 40.52802429 12.30720894 38.73937988 12.31376648 C36.26457366 12.31951757 33.78975052 12.32000434 31.31494141 12.31567383 C27.51565923 12.31251303 23.71715459 12.33596739 19.91796875 12.36132812 C17.51823015 12.36360083 15.11848945 12.36430475 12.71875 12.36328125 C11.57603638 12.372491 10.43332275 12.38170074 9.25598145 12.39118958 C7.67424133 12.38184639 7.67424133 12.38184639 6.06054688 12.37231445 C4.66394836 12.37325859 4.66394836 12.37325859 3.23913574 12.3742218 C2.50022095 12.25072861 1.76130615 12.12723541 1 12 C-1.44576827 8.33134759 -1.23607254 6.32799657 -1 2 C-0.67 1.34 -0.34 0.68 0 0 Z " fill="#4498E9" transform="translate(42,45)"/>
<path d="M0 0 C1.32 0 2.64 0 4 0 C4 6.6 4 13.2 4 20 C6.31 20 8.62 20 11 20 C12 21 12 21 12.11352539 24.78540039 C12.11336622 26.47282729 12.10766917 28.16025905 12.09765625 29.84765625 C12.0962413 30.7340831 12.09482635 31.62050995 12.09336853 32.53379822 C12.08775215 35.37673254 12.07519691 38.21958931 12.0625 41.0625 C12.05748711 42.98502491 12.05292384 44.90755104 12.04882812 46.83007812 C12.03862648 51.55343964 12.01905437 56.27663258 12 61 C3.75 61 -4.5 61 -13 61 C-13.26785714 47.60714286 -13.26785714 47.60714286 -11 44 C-10.67 44 -10.34 44 -10 44 C-9.67 45.98 -9.34 47.96 -9 50 C-3.72 50 1.56 50 7 50 C7.33 44.39 7.66 38.78 8 33 C2.91449584 33.03939764 2.91449584 33.03939764 -2.17089844 33.09008789 C-5.62893138 33.10358903 -8.678497 32.93376884 -12 32 C-12.33 32.66 -12.66 33.32 -13 34 C-13.19456705 32.04235617 -13.38044247 30.08384679 -13.5625 28.125 C-13.71912109 26.48917969 -13.71912109 26.48917969 -13.87890625 24.8203125 C-14 22 -14 22 -13 20 C-8.71 20 -4.42 20 0 20 C0 13.4 0 6.8 0 0 Z " fill="#7387FE" transform="translate(115,63)"/>
<path d="M0 0 C2.5 1.6875 2.5 1.6875 5 4 C5.3125 6.75 5.3125 6.75 5 9 C4.030625 9.28875 3.06125 9.5775 2.0625 9.875 C-1.10664203 10.64214682 -1.10664203 10.64214682 -2 13 C-2.0689472 14.37342831 -2.08467708 15.75002102 -2.0625 17.125 C-2.041875 18.40375 -2.02125 19.6825 -2 21 C4.10298993 23.17274599 4.10298993 23.17274599 10.4375 24.4375 C11.283125 24.623125 12.12875 24.80875 13 25 C13.66 26.32 14.32 27.64 15 29 C22.92 28.67 30.84 28.34 39 28 C38.67 28.66 38.34 29.32 38 30 C35.35139573 30.59355614 32.70802678 30.74209269 30 31 C30 31.66 30 32.32 30 33 C44.19 33 58.38 33 73 33 C72.67 32.34 72.34 31.68 72 31 C70.845 30.835 69.69 30.67 68.5 30.5 C67.345 30.335 66.19 30.17 65 30 C64.505 29.01 64.505 29.01 64 28 C69.45769811 27.88861841 74.61509359 28.08342019 80 29 C80 31.64 80 34.28 80 37 C72.71409984 37.04682155 65.42823335 37.08211748 58.14221191 37.10362434 C54.75718789 37.11395864 51.37226851 37.12792229 47.98730469 37.15087891 C9.5625541 37.39227608 9.5625541 37.39227608 2 33 C2.33 32.34 2.66 31.68 3 31 C3.99 31 4.98 31 6 31 C5.16552003 28.74644234 5.16552003 28.74644234 2.625 28.1875 C-0.04092403 27.69997735 -0.04092403 27.69997735 -1.8125 29.4375 C-2.204375 29.953125 -2.59625 30.46875 -3 31 C-4.65 29.68 -6.3 28.36 -8 27 C-7.7215625 25.8553125 -7.7215625 25.8553125 -7.4375 24.6875 C-6.77180827 21.91032625 -6.77180827 21.91032625 -8 19 C-10.01508358 18.26676204 -10.01508358 18.26676204 -12 18 C-12 15.69 -12 13.38 -12 11 C-11.030625 10.731875 -10.06125 10.46375 -9.0625 10.1875 C-8.051875 9.795625 -7.04125 9.40375 -6 9 C-4.66666667 6 -4.66666667 6 -6 3 C-4.02 2.01 -2.04 1.02 0 0 Z " fill="#EAEBF2" transform="translate(21,88)"/>
<path d="M0 0 C0.94101563 0.00322266 1.88203125 0.00644531 2.8515625 0.00976562 C3.83640625 0.01814453 4.82125 0.02652344 5.8359375 0.03515625 C6.82851562 0.03966797 7.82109375 0.04417969 8.84375 0.04882812 C11.2995391 0.0606348 13.75520854 0.07710225 16.2109375 0.09765625 C15.88867188 0.87753906 15.56640625 1.65742187 15.234375 2.4609375 C14.15673879 4.9778742 14.15673879 4.9778742 13.8359375 7.28515625 C13.2109375 9.09765625 13.2109375 9.09765625 11.4609375 10.16015625 C10.7184375 10.46953125 9.9759375 10.77890625 9.2109375 11.09765625 C5.5331853 13.02409788 3.81771968 14.26609874 2.2109375 18.09765625 C1.5509375 18.75765625 0.8909375 19.41765625 0.2109375 20.09765625 C-0.7790625 20.09765625 -1.7690625 20.09765625 -2.7890625 20.09765625 C-3.1190625 20.75765625 -3.4490625 21.41765625 -3.7890625 22.09765625 C-4.4490625 22.09765625 -5.1090625 22.09765625 -5.7890625 22.09765625 C-7.55368933 25.1857532 -7.7890625 26.33077761 -7.7890625 30.09765625 C-8.98402344 29.85208984 -8.98402344 29.85208984 -10.203125 29.6015625 C-14.55701849 28.98974087 -18.7754567 28.98966034 -23.1640625 29.03515625 C-23.99550781 29.03966797 -24.82695313 29.04417969 -25.68359375 29.04882812 C-27.71878147 29.06052461 -29.75393173 29.0784569 -31.7890625 29.09765625 C-32.3425389 27.02211977 -32.7890625 25.25399661 -32.7890625 23.09765625 C-30.8090625 23.09765625 -28.8290625 23.09765625 -26.7890625 23.09765625 C-26.1290625 21.77765625 -25.4690625 20.45765625 -24.7890625 19.09765625 C-24.1290625 19.09765625 -23.4690625 19.09765625 -22.7890625 19.09765625 C-21.7990625 16.78765625 -20.8090625 14.47765625 -19.7890625 12.09765625 C-18.1390625 12.42765625 -16.4890625 12.75765625 -14.7890625 13.09765625 C-14.4796875 12.47890625 -14.1703125 11.86015625 -13.8515625 11.22265625 C-11.7890625 7.09765625 -11.7890625 7.09765625 -8.7890625 5.09765625 C-8.10638112 3.77245122 -7.4383584 2.43953443 -6.7890625 1.09765625 C-4.33631109 -0.12871945 -2.7384844 -0.01649689 0 0 Z " fill="#655CFE" transform="translate(72.7890625,56.90234375)"/>
<path d="M0 0 C1.12019531 -0.00128906 2.24039063 -0.00257812 3.39453125 -0.00390625 C4.57402344 -0.00003906 5.75351562 0.00382812 6.96875 0.0078125 C8.73798828 0.00201172 8.73798828 0.00201172 10.54296875 -0.00390625 C12.22326172 -0.00197266 12.22326172 -0.00197266 13.9375 0 C14.97326172 0.00112793 16.00902344 0.00225586 17.07617188 0.00341797 C19.46875 0.1328125 19.46875 0.1328125 20.46875 1.1328125 C20.56861975 3.97616298 20.60752881 6.78978413 20.59375 9.6328125 C20.59955078 10.82970703 20.59955078 10.82970703 20.60546875 12.05078125 C20.59535767 18.00620483 20.59535767 18.00620483 19.46875 19.1328125 C17.62715977 19.23240871 15.78178033 19.26361661 13.9375 19.265625 C12.81730469 19.26691406 11.69710937 19.26820312 10.54296875 19.26953125 C9.36347656 19.26566406 8.18398438 19.26179688 6.96875 19.2578125 C5.19951172 19.26361328 5.19951172 19.26361328 3.39453125 19.26953125 C1.71423828 19.26759766 1.71423828 19.26759766 0 19.265625 C-1.03576172 19.26449707 -2.07152344 19.26336914 -3.13867188 19.26220703 C-5.53125 19.1328125 -5.53125 19.1328125 -6.53125 18.1328125 C-6.63111975 15.28946202 -6.67002881 12.47584087 -6.65625 9.6328125 C-6.66011719 8.83488281 -6.66398437 8.03695312 -6.66796875 7.21484375 C-6.65573175 0.007248 -6.65573175 0.007248 0 0 Z " fill="#35DAC3" transform="translate(39.53125,85.8671875)"/>
<path d="M0 0 C0.91644287 0.00523682 1.83288574 0.01047363 2.77709961 0.01586914 C4.26113281 0.02070312 4.26113281 0.02070312 5.77514648 0.02563477 C6.81606445 0.03401367 7.85698242 0.04239258 8.92944336 0.05102539 C10.49662109 0.05779297 10.49662109 0.05779297 12.09545898 0.06469727 C14.6859779 0.07652612 17.27646758 0.0944622 19.86694336 0.11352539 C19.86694336 3.74352539 19.86694336 7.37352539 19.86694336 11.11352539 C14.58694336 11.11352539 9.30694336 11.11352539 3.86694336 11.11352539 C4.36194336 13.09352539 4.36194336 13.09352539 4.86694336 15.11352539 C7.17694336 15.44352539 9.48694336 15.77352539 11.86694336 16.11352539 C12.36194336 17.59852539 12.36194336 17.59852539 12.86694336 19.11352539 C-1.32305664 19.11352539 -15.51305664 19.11352539 -30.13305664 19.11352539 C-30.13305664 18.45352539 -30.13305664 17.79352539 -30.13305664 17.11352539 C-25.18305664 16.78352539 -20.23305664 16.45352539 -15.13305664 16.11352539 C-15.13305664 15.45352539 -15.13305664 14.79352539 -15.13305664 14.11352539 C-13.13305664 15.11352539 -13.13305664 15.11352539 -12.13305664 16.11352539 C-11.45243164 15.15446289 -11.45243164 15.15446289 -10.75805664 14.17602539 C-9.13305664 12.11352539 -9.13305664 12.11352539 -7.13305664 11.11352539 C-6.47533236 8.08418049 -6.47533236 8.08418049 -6.13305664 5.11352539 C-5.47305664 5.11352539 -4.81305664 5.11352539 -4.13305664 5.11352539 C-3.98868164 4.47415039 -3.84430664 3.83477539 -3.69555664 3.17602539 C-2.94829547 0.43606778 -2.86496837 0.15247915 0 0 Z " fill="#B1CFFE" transform="translate(81.133056640625,101.886474609375)"/>
<path d="M0 0 C0.83265381 0.00523682 1.66530762 0.01047363 2.52319336 0.01586914 C3.42231445 0.0190918 4.32143555 0.02231445 5.24780273 0.02563477 C6.66609375 0.03820313 6.66609375 0.03820313 8.11303711 0.05102539 C9.06243164 0.05553711 10.01182617 0.06004883 10.98999023 0.06469727 C13.34356776 0.07652429 15.69702188 0.09300514 18.05053711 0.11352539 C18.07941525 3.5926748 18.09729398 7.0717937 18.11303711 10.55102539 C18.12141602 11.54424805 18.12979492 12.5374707 18.13842773 13.56079102 C18.14326172 14.97714844 18.14326172 14.97714844 18.14819336 16.42211914 C18.15604858 17.73394165 18.15604858 17.73394165 18.1640625 19.07226562 C18.05053711 21.11352539 18.05053711 21.11352539 17.05053711 22.11352539 C15.55919801 22.1301477 14.06692906 22.07671739 12.57788086 21.99243164 C11.67875977 21.9440918 10.77963867 21.89575195 9.85327148 21.84594727 C8.90774414 21.78987305 7.9622168 21.73379883 6.98803711 21.67602539 C6.03864258 21.62381836 5.08924805 21.57161133 4.11108398 21.51782227 C1.75726759 21.38771181 -0.59616988 21.25273427 -2.94946289 21.11352539 C-2.97834436 17.80104352 -2.99622088 14.48859372 -3.01196289 11.17602539 C-3.0203418 10.23049805 -3.0287207 9.2849707 -3.03735352 8.31079102 C-3.04057617 7.41166992 -3.04379883 6.51254883 -3.04711914 5.58618164 C-3.05235596 4.75352783 -3.05759277 3.92087402 -3.06298828 3.06298828 C-2.90876673 0.41468917 -2.64829911 0.15422155 0 0 Z " fill="#37CFD4" transform="translate(15.949462890625,58.886474609375)"/>
<path d="M0 0 C0.33 1.65 0.66 3.3 1 5 C5.77762638 6.01687046 5.77762638 6.01687046 10.4375 5.0625 C10.953125 4.711875 11.46875 4.36125 12 4 C17 9.75 17 9.75 17 12 C15.16921502 13.9833504 13.71712156 14.90504517 11.0234375 15.26171875 C8.875 15.3125 8.875 15.3125 5 15 C4.34 14.34 3.68 13.68 3 13 C-2.54235245 12.42765564 -2.54235245 12.42765564 -7.5 14.5 C-9.71177972 18.18629954 -9.34421275 20.73176192 -9 25 C-8.67 25.66 -8.34 26.32 -8 27 C-10.31 27 -12.62 27 -15 27 C-15.66 24.69 -16.32 22.38 -17 20 C-18.65 19.67 -20.3 19.34 -22 19 C-21.01 16.03 -20.02 13.06 -19 10 C-17.329375 10.061875 -17.329375 10.061875 -15.625 10.125 C-11.95633975 10.41121859 -11.95633975 10.41121859 -10 8 C-9.83318891 4.91652174 -9.83318891 4.91652174 -10 2 C-3.375 0 -3.375 0 0 0 Z " fill="#E9EAF1" transform="translate(104,18)"/>
<path d="M0 0 C16.83 0 33.66 0 51 0 C51 2.31 51 4.62 51 7 C34.17 7 17.34 7 0 7 C0 4.69 0 2.38 0 0 Z " fill="#3C418C" transform="translate(44,47)"/>
<path d="M0 0 C1.58206057 0.00667536 3.16410534 0.0186375 4.74609375 0.03515625 C5.55240234 0.03966797 6.35871094 0.04417969 7.18945312 0.04882812 C9.18753131 0.06065107 11.18557158 0.07858711 13.18359375 0.09765625 C13.21043687 2.91021906 13.23035563 5.72252866 13.24609375 8.53515625 C13.25447266 9.33759766 13.26285156 10.14003906 13.27148438 10.96679688 C13.28010805 13.01060846 13.23587525 15.05449527 13.18359375 17.09765625 C11.36243372 18.91881628 8.87687611 18.23000705 6.45703125 18.234375 C5.70679687 18.23050781 4.9565625 18.22664063 4.18359375 18.22265625 C3.05824219 18.22845703 3.05824219 18.22845703 1.91015625 18.234375 C-3.68979572 18.22426678 -3.68979572 18.22426678 -4.81640625 17.09765625 C-4.91621839 14.42034245 -4.955205 11.7746145 -4.94140625 9.09765625 C-4.94527344 8.34742187 -4.94914062 7.5971875 -4.953125 6.82421875 C-4.94103514 0.12643386 -4.94103514 0.12643386 0 0 Z " fill="#40CEE5" transform="translate(109.81640625,95.90234375)"/>
<path d="M0 0 C6.53740377 0.1334164 10.10984232 2.8465414 15 7 C14.67 8.65 14.34 10.3 14 12 C13.34 12 12.68 12 12 12 C11.67 12.66 11.34 13.32 11 14 C9.68 14 8.36 14 7 14 C6.67 14.99 6.34 15.98 6 17 C5.67 17.66 5.34 18.32 5 19 C5.66 19.33 6.32 19.66 7 20 C6.01 20.99 5.02 21.98 4 23 C0.125 21.25 0.125 21.25 -1 19 C-0.34 19 0.32 19 1 19 C0.67 16.69 0.34 14.38 0 12 C-7.26 11.67 -14.52 11.34 -22 11 C-22 10.34 -22 9.68 -22 9 C-24.64 9 -27.28 9 -30 9 C-29.34 8.01 -28.68 7.02 -28 6 C-26.741875 6.12375 -25.48375 6.2475 -24.1875 6.375 C-23.12595703 6.47941406 -23.12595703 6.47941406 -22.04296875 6.5859375 C-20 7 -20 7 -17 9 C-12.4098067 8.75409679 -10.07805419 8.37120221 -7 5 C-5.68 5 -4.36 5 -3 5 C-2.690625 4.360625 -2.38125 3.72125 -2.0625 3.0625 C-1 1 -1 1 0 0 Z " fill="#60D7D9" transform="translate(117,38)"/>
<path d="M0 0 C0.33 0 0.66 0 1 0 C1.33 2.97 1.66 5.94 2 9 C3.32 9.33 4.64 9.66 6 10 C5.67 10.33 5.34 10.66 5 11 C4.71515469 13.48222341 4.55193447 15.96468855 4.37890625 18.45703125 C4 21 4 21 3.00390625 22.90234375 C1.60159497 25.83246498 1.56866294 28.52228427 1.375 31.75 C1.25125 33.8125 1.1275 35.875 1 38 C9.25 38 17.5 38 26 38 C26 38.66 26 39.32 26 40 C28.31 40.66 30.62 41.32 33 42 C32 44 32 44 30.34521484 44.61450195 C25.49200924 45.41225457 20.54404055 45.18590312 15.63769531 45.18530273 C13.63863013 45.18748512 11.63960468 45.20599143 9.640625 45.22460938 C8.36960937 45.22654297 7.09859375 45.22847656 5.7890625 45.23046875 C4.63100098 45.23457764 3.47293945 45.23868652 2.27978516 45.24291992 C-1.11310954 44.99162245 -3.83332989 44.21173908 -7 43 C-6 41 -6 41 0 39 C0 26.13 0 13.26 0 0 Z " fill="#5E51E9" transform="translate(101,86)"/>
<path d="M0 0 C13.53 0 27.06 0 41 0 C41 1.65 41 3.3 41 5 C27.47 5 13.94 5 0 5 C0 3.35 0 1.7 0 0 Z " fill="#3C3D89" transform="translate(60,97)"/>
<path d="M0 0 C0.99 0.66 1.98 1.32 3 2 C2.67 4.64 2.34 7.28 2 10 C2.66 10 3.32 10 4 10 C3.67 11.65 3.34 13.3 3 15 C1.35 15.33 -0.3 15.66 -2 16 C-2.33 17.32 -2.66 18.64 -3 20 C-4.98 20 -6.96 20 -9 20 C-9 19.01 -9 18.02 -9 17 C-10.98 17.33 -12.96 17.66 -15 18 C-15.99 16.35 -16.98 14.7 -18 13 C-17.01 12.67 -16.02 12.34 -15 12 C-15.7425 10.8553125 -15.7425 10.8553125 -16.5 9.6875 C-18 7 -18 7 -18 4 C-15.36 4 -12.72 4 -10 4 C-10.20625 5.11375 -10.4125 6.2275 -10.625 7.375 C-10.810625 9.169375 -10.810625 9.169375 -11 11 C-9.10244856 13.34973818 -9.10244856 13.34973818 -5.875 13.125 C-4.451875 13.063125 -4.451875 13.063125 -3 13 C-2.70437633 7.67829506 -2.70437633 7.67829506 -5 3 C-3 1 -3 1 0 0 Z " fill="#EAEBF2" transform="translate(139,59)"/>
<path d="M0 0 C6.93 0.495 6.93 0.495 14 1 C14 1.33 14 1.66 14 2 C11.69 2 9.38 2 7 2 C8.06645115 3.29633621 8.06645115 3.29633621 10.5625 3.0625 C11.366875 3.041875 12.17125 3.02125 13 3 C13 3.66 13 4.32 13 5 C10.09451118 7.04169485 8.59857954 8 5 8 C5.66 8.33 6.32 8.66 7 9 C7 9.66 7 10.32 7 11 C4.36 11.33 1.72 11.66 -1 12 C0.32 12.66 1.64 13.32 3 14 C2.01 14.495 2.01 14.495 1 15 C1 15.66 1 16.32 1 17 C0.34 17 -0.32 17 -1 17 C-1 17.66 -1 18.32 -1 19 C-1.66 19 -2.32 19 -3 19 C-3 19.66 -3 20.32 -3 21 C-4.32 21.33 -5.64 21.66 -7 22 C-7 17.38 -7 12.76 -7 8 C-5.35 7.34 -3.7 6.68 -2 6 C-2 5.34 -2 4.68 -2 4 C-1.34 2.68 -0.68 1.36 0 0 Z " fill="#5C3FFE" transform="translate(42,56)"/>
<path d="M0 0 C1.08667969 0.02707031 2.17335938 0.05414063 3.29296875 0.08203125 C4.54013672 0.13423828 4.54013672 0.13423828 5.8125 0.1875 C5.84988281 0.81398437 5.88726562 1.44046875 5.92578125 2.0859375 C6.02439453 3.31183594 6.02439453 3.31183594 6.125 4.5625 C6.21201172 5.78066406 6.21201172 5.78066406 6.30078125 7.0234375 C6.64240528 9.56671338 6.64240528 9.56671338 9.8125 11.1875 C8.4925 11.5175 7.1725 11.8475 5.8125 12.1875 C5.8125 13.1775 5.8125 14.1675 5.8125 15.1875 C3.8125 15.1875 1.8125 15.1875 -0.1875 15.1875 C-0.5175 13.5375 -0.8475 11.8875 -1.1875 10.1875 C-3.8275 10.1875 -6.4675 10.1875 -9.1875 10.1875 C-9.55218886 3.74466353 -9.55218886 3.74466353 -8.0625 1.46875 C-5.3504604 -0.38447706 -3.24426436 -0.10465369 0 0 Z " fill="#5935FE" transform="translate(35.1875,48.8125)"/>
<path d="M0 0 C1.98 0 3.96 0 6 0 C6.33 0.66 6.66 1.32 7 2 C9.71446979 2.31241455 12.33909361 2.51336592 15.0625 2.625 C16.20041992 2.68300781 16.20041992 2.68300781 17.36132812 2.7421875 C19.24047195 2.83673562 21.12020336 2.91946756 23 3 C19.3356228 9.45628365 19.3356228 9.45628365 17 11 C14.20553898 11.24400699 11.65900564 11.32828487 8.875 11.25 C8.13378906 11.24484375 7.39257812 11.2396875 6.62890625 11.234375 C1.15430775 11.15430775 1.15430775 11.15430775 0 10 C-0.07205511 8.31391034 -0.08386068 6.62499341 -0.0625 4.9375 C-0.05347656 4.01839844 -0.04445313 3.09929687 -0.03515625 2.15234375 C-0.02355469 1.44207031 -0.01195313 0.73179688 0 0 Z " fill="#C5DCFE" transform="translate(27,102)"/>
<path d="M0 0 C0.33 0 0.66 0 1 0 C1.02888514 3.14581423 1.04675923 6.29159469 1.0625 9.4375 C1.07087891 10.33533203 1.07925781 11.23316406 1.08789062 12.15820312 C1.09272461 13.43920898 1.09272461 13.43920898 1.09765625 14.74609375 C1.10551147 15.93223267 1.10551147 15.93223267 1.11352539 17.14233398 C1 19 1 19 0 20 C-2.53049402 20.07313567 -5.03304837 20.09247527 -7.5625 20.0625 C-8.27341797 20.05798828 -8.98433594 20.05347656 -9.71679688 20.04882812 C-11.47790013 20.03700864 -13.23896036 20.01907263 -15 20 C-15 19.34 -15 18.68 -15 18 C-13 16.375 -13 16.375 -11 15 C-11.33 13.68 -11.66 12.36 -12 11 C-9.61686091 9.54363723 -7.27704527 8.13082693 -4.75 6.9375 C-2.81946715 6.11996415 -2.81946715 6.11996415 -2 4 C-1.34 4 -0.68 4 0 4 C0 2.68 0 1.36 0 0 Z " fill="#36DCC6" transform="translate(134,43)"/>
<path d="M0 0 C0.83265381 0.00523682 1.66530762 0.01047363 2.52319336 0.01586914 C3.42231445 0.0190918 4.32143555 0.02231445 5.24780273 0.02563477 C6.66609375 0.03820312 6.66609375 0.03820312 8.11303711 0.05102539 C9.06243164 0.05553711 10.01182617 0.06004883 10.98999023 0.06469727 C13.34356776 0.07652429 15.69702188 0.09300514 18.05053711 0.11352539 C18.05053711 2.75352539 18.05053711 5.39352539 18.05053711 8.11352539 C11.12053711 8.11352539 4.19053711 8.11352539 -2.94946289 8.11352539 C-2.94946289 0.17175958 -2.94946289 0.17175958 0 0 Z " fill="#33CADC" transform="translate(15.949462890625,31.886474609375)"/>
<path d="M0 0 C1.32 0 2.64 0 4 0 C4 6.6 4 13.2 4 20 C6.31 20 8.62 20 11 20 C11.33 20.99 11.66 21.98 12 23 C3.19039858 24.30512614 -5.19039858 24.30512614 -14 23 C-13.505 21.515 -13.505 21.515 -13 20 C-8.71 20 -4.42 20 0 20 C0 13.4 0 6.8 0 0 Z " fill="#4C4CA1" transform="translate(115,63)"/>
<path d="M0 0 C7.59 0 15.18 0 23 0 C22.67 0.99 22.34 1.98 22 3 C21.01 3 20.02 3 19 3 C18.67 3.99 18.34 4.98 18 6 C16.67696283 6.3721042 15.34262065 6.70630173 14 7 C13.67 7.66 13.34 8.32 13 9 C4.89667897 10.46125461 4.89667897 10.46125461 1 9 C0.67 9.66 0.34 10.32 0 11 C0 7.37 0 3.74 0 0 Z " fill="#5F4BFC" transform="translate(102,86)"/>
<path d="M0 0 C1.31871094 -0.01224609 2.63742188 -0.02449219 3.99609375 -0.03710938 C5.90068359 -0.04000977 5.90068359 -0.04000977 7.84375 -0.04296875 C9.00068359 -0.04707764 10.15761719 -0.05118652 11.34960938 -0.05541992 C14.47736509 0.18575467 16.680892 0.85423629 19.5 2.1875 C18.5 4.1875 18.5 4.1875 16.84521484 4.80200195 C11.99200924 5.59975457 7.04404055 5.37340312 2.13769531 5.37280273 C0.13863013 5.37498512 -1.86039532 5.39349143 -3.859375 5.41210938 C-5.13039063 5.41404297 -6.40140625 5.41597656 -7.7109375 5.41796875 C-8.86899902 5.42207764 -10.02706055 5.42618652 -11.22021484 5.43041992 C-14.61310954 5.17912245 -17.33332989 4.39923908 -20.5 3.1875 C-20.17 2.5275 -19.84 1.8675 -19.5 1.1875 C-13.23640183 -0.60566158 -6.45139424 0.00315317 0 0 Z " fill="#EAEBF2" transform="translate(114.5,125.8125)"/>
<path d="M0 0 C2.68345751 1.34172876 4.76671858 3.00180084 7 5 C7 8 7 8 5.625 9.6875 C4 11 4 11 2 11 C2 10.01 2 9.02 2 8 C-0.47266765 8.34444881 -0.47266765 8.34444881 -3 9 C-3.33 9.66 -3.66 10.32 -4 11 C-4.66 11 -5.32 11 -6 11 C-6 10.01 -6 9.02 -6 8 C-7.32 8 -8.64 8 -10 8 C-10.33 8.99 -10.66 9.98 -11 11 C-12.32 10.01 -13.64 9.02 -15 8 C-13.63016497 4.83884224 -13.0109362 4.0072908 -10 2 C-9.01 2.33 -8.02 2.66 -7 3 C-6.67 2.34 -6.34 1.68 -6 1 C-5.01 1 -4.02 1 -3 1 C-2.01 0.67 -1.02 0.34 0 0 Z " fill="#7CD6E4" transform="translate(50,89)"/>
<path d="M0 0 C1.5631897 0.00785522 1.5631897 0.00785522 3.15795898 0.01586914 C4.28266602 0.0190918 5.40737305 0.02231445 6.56616211 0.02563477 C7.75016602 0.03401367 8.93416992 0.04239258 10.15405273 0.05102539 C11.34192383 0.05553711 12.52979492 0.06004883 13.75366211 0.06469727 C16.69967499 0.07652864 19.64558954 0.09301252 22.59155273 0.11352539 C22.92155273 0.77352539 23.25155273 1.43352539 23.59155273 2.11352539 C20.82751984 2.8123328 18.05912671 3.48146594 15.27905273 4.11352539 C14.49401367 4.29270508 13.70897461 4.47188477 12.90014648 4.65649414 C10.59155273 5.11352539 10.59155273 5.11352539 6.84155273 5.42602539 C2.76532819 6.28830366 1.32476516 8.06794584 -1.40844727 11.11352539 C-2.06844727 11.11352539 -2.72844727 11.11352539 -3.40844727 11.11352539 C-3.43532877 9.46777973 -3.4547885 7.82191126 -3.47094727 6.17602539 C-3.48254883 5.25950195 -3.49415039 4.34297852 -3.50610352 3.39868164 C-3.37081445 0.23291744 -3.1699095 0.14941793 0 0 Z " fill="#42A8E5" transform="translate(36.408447265625,85.886474609375)"/>
<path d="M0 0 C1.51400391 0.01740234 1.51400391 0.01740234 3.05859375 0.03515625 C4.07050781 0.04417969 5.08242187 0.05320313 6.125 0.0625 C7.29869141 0.07990234 7.29869141 0.07990234 8.49609375 0.09765625 C9.09765625 2.4296875 9.09765625 2.4296875 9.49609375 5.09765625 C7.08049195 9.09268999 4.87567868 10.67429115 0.49609375 12.09765625 C-0.84396769 12.75069344 -2.17852806 13.41531112 -3.50390625 14.09765625 C-3.53076563 11.95188988 -3.55023713 9.8060298 -3.56640625 7.66015625 C-3.57800781 6.46519531 -3.58960937 5.27023438 -3.6015625 4.0390625 C-3.47195922 0.13541183 -3.47195922 0.13541183 0 0 Z " fill="#34C7E0" transform="translate(108.50390625,32.90234375)"/>
<path d="M0 0 C1.32 0 2.64 0 4 0 C4 0.66 4 1.32 4 2 C5.65 2.33 7.3 2.66 9 3 C9 5.31 9 7.62 9 10 C8.01 10.33 7.02 10.66 6 11 C5.67 11.99 5.34 12.98 5 14 C4.01 14 3.02 14 2 14 C2 13.34 2 12.68 2 12 C0.35 12 -1.3 12 -3 12 C-3.54372951 8.94152152 -4 6.11227195 -4 3 C-2.68 3 -1.36 3 0 3 C0 2.01 0 1.02 0 0 Z " fill="#EAF8FA" transform="translate(21,63)"/>
<path d="M0 0 C6.19977835 0.24799113 9.37669013 2.13151624 14 6 C14 6.66 14 7.32 14 8 C6.74 8 -0.52 8 -8 8 C-7.67 7.01 -7.34 6.02 -7 5 C-5.68 5 -4.36 5 -3 5 C-2.690625 4.360625 -2.38125 3.72125 -2.0625 3.0625 C-1 1 -1 1 0 0 Z " fill="#F4FCFC" transform="translate(117,38)"/>
<path d="M0 0 C0.66 0 1.32 0 2 0 C2 5.61 2 11.22 2 17 C0.02 17.99 0.02 17.99 -2 19 C-2 16.03 -2 13.06 -2 10 C-5.96 10 -9.92 10 -14 10 C-12.68 9.34 -11.36 8.68 -10 8 C-10.66 7.34 -11.32 6.68 -12 6 C-10.865625 5.87625 -9.73125 5.7525 -8.5625 5.625 C-6.7990625 5.315625 -6.7990625 5.315625 -5 5 C-4.67 4.34 -4.34 3.68 -4 3 C-3.01 3 -2.02 3 -1 3 C-0.67 2.01 -0.34 1.02 0 0 Z " fill="#655BFF" transform="translate(125,86)"/>
<path d="M0 0 C3.3787361 -0.28525915 6.63080122 -0.44016952 10 0 C12.68522527 2.92933666 13.02843115 5.11372458 14 9 C9.38 9 4.76 9 0 9 C0 6.03 0 3.06 0 0 Z " fill="#39C6D3" transform="translate(105,54)"/>
<path d="M0 0 C3.14581423 -0.02888514 6.29159469 -0.04675923 9.4375 -0.0625 C10.33533203 -0.07087891 11.23316406 -0.07925781 12.15820312 -0.08789062 C13.01220703 -0.09111328 13.86621094 -0.09433594 14.74609375 -0.09765625 C15.93223267 -0.10551147 15.93223267 -0.10551147 17.14233398 -0.11352539 C19 0 19 0 20 1 C20.04092937 3.33297433 20.04241723 5.66705225 20 8 C19.01 8 18.02 8 17 8 C17 7.01 17 6.02 17 5 C11.39 5 5.78 5 0 5 C0 3.35 0 1.7 0 0 Z " fill="#34B1C5" transform="translate(98,49)"/>
<path d="M0 0 C0.02685412 2.31243792 0.04632841 4.6249627 0.0625 6.9375 C0.07410156 8.22527344 0.08570312 9.51304688 0.09765625 10.83984375 C0 14 0 14 -1 15 C-3.35313555 15.07271741 -5.70833668 15.08370868 -8.0625 15.0625 C-9.35285156 15.05347656 -10.64320312 15.04445313 -11.97265625 15.03515625 C-12.97167969 15.02355469 -13.97070312 15.01195313 -15 15 C-14.67 14.34 -14.34 13.68 -14 13 C-13.34 13 -12.68 13 -12 13 C-12 12.01 -12 11.02 -12 10 C-11.071875 9.814375 -10.14375 9.62875 -9.1875 9.4375 C-5.65391504 8.25111631 -5.65391504 8.25111631 -4.25 4.4375 C-3.8375 3.303125 -3.425 2.16875 -3 1 C-1 0 -1 0 0 0 Z " fill="#37DDC8" transform="translate(123,99)"/>
<path d="M0 0 C0.33 0 0.66 0 1 0 C1.33 1.98 1.66 3.96 2 6 C4.97 6.33 7.94 6.66 11 7 C9.02 7.99 9.02 7.99 7 9 C7.66 9.33 8.32 9.66 9 10 C9 10.99 9 11.98 9 13 C7.68 13 6.36 13 5 13 C5.33 13.66 5.66 14.32 6 15 C5.01 15 4.02 15 3 15 C2.67 15.66 2.34 16.32 2 17 C0.68 17 -0.64 17 -2 17 C-2.05418326 14.91695462 -2.09287551 12.83350232 -2.125 10.75 C-2.14820312 9.58984375 -2.17140625 8.4296875 -2.1953125 7.234375 C-2.0103949 4.17213954 -1.60823023 2.55797249 0 0 Z " fill="#6B71FE" transform="translate(104,107)"/>
<path d="M0 0 C1.65322266 0.01740234 1.65322266 0.01740234 3.33984375 0.03515625 C4.99693359 0.04869141 4.99693359 0.04869141 6.6875 0.0625 C7.54214844 0.07410156 8.39679687 0.08570313 9.27734375 0.09765625 C9.27734375 2.07765625 9.27734375 4.05765625 9.27734375 6.09765625 C8.94734375 5.43765625 8.61734375 4.77765625 8.27734375 4.09765625 C6.95734375 4.09765625 5.63734375 4.09765625 4.27734375 4.09765625 C4.27734375 5.08765625 4.27734375 6.07765625 4.27734375 7.09765625 C2.95734375 7.09765625 1.63734375 7.09765625 0.27734375 7.09765625 C0.27734375 7.75765625 0.27734375 8.41765625 0.27734375 9.09765625 C-0.38265625 9.09765625 -1.04265625 9.09765625 -1.72265625 9.09765625 C-1.72265625 11.73765625 -1.72265625 14.37765625 -1.72265625 17.09765625 C-2.38265625 17.42765625 -3.04265625 17.75765625 -3.72265625 18.09765625 C-3.74949937 15.28509344 -3.76941813 12.47278384 -3.78515625 9.66015625 C-3.79353516 8.85771484 -3.80191406 8.05527344 -3.81054688 7.22851562 C-3.81917055 5.18470404 -3.77493775 3.14081723 -3.72265625 1.09765625 C-2.72265625 0.09765625 -2.72265625 0.09765625 0 0 Z " fill="#31C6DF" transform="translate(16.72265625,58.90234375)"/>
<path d="M0 0 C1.32 0 2.64 0 4 0 C4 5.28 4 10.56 4 16 C4.99 16 5.98 16 7 16 C7 17.65 7 19.3 7 21 C4.69 21 2.38 21 0 21 C0 14.07 0 7.14 0 0 Z " fill="#41428D" transform="translate(26,81)"/>
<path d="M0 0 C15.18 0 30.36 0 46 0 C45.67 0.66 45.34 1.32 45 2 C30.81 2 16.62 2 2 2 C2 2.66 2 3.32 2 4 C1.01 4 0.02 4 -1 4 C-0.67 2.68 -0.34 1.36 0 0 Z " fill="#33D0D5" transform="translate(42,45)"/>
<path d="M0 0 C2 1 2 1 3 2 C4.85174706 2.15786308 6.7090911 2.25107356 8.56640625 2.31640625 C10.2534668 2.37924805 10.2534668 2.37924805 11.97460938 2.44335938 C13.75061523 2.50233398 13.75061523 2.50233398 15.5625 2.5625 C16.75037109 2.60568359 17.93824219 2.64886719 19.16210938 2.69335938 C22.10794784 2.79983546 25.0538743 2.90184841 28 3 C28 3.66 28 4.32 28 5 C13.81 5 -0.38 5 -15 5 C-15 4.34 -15 3.68 -15 3 C-10.05 2.67 -5.1 2.34 0 2 C0 1.34 0 0.68 0 0 Z " fill="#95BDFE" transform="translate(66,116)"/>
<path d="M0 0 C1.08667969 0.02707031 2.17335938 0.05414063 3.29296875 0.08203125 C4.54013672 0.13423828 4.54013672 0.13423828 5.8125 0.1875 C5.8125 1.8375 5.8125 3.4875 5.8125 5.1875 C2.1825 5.1875 -1.4475 5.1875 -5.1875 5.1875 C-5.1875 6.8375 -5.1875 8.4875 -5.1875 10.1875 C-6.5075 10.1875 -7.8275 10.1875 -9.1875 10.1875 C-9.55218886 3.74466353 -9.55218886 3.74466353 -8.0625 1.46875 C-5.3504604 -0.38447706 -3.24426436 -0.10465369 0 0 Z " fill="#3C3D89" transform="translate(35.1875,48.8125)"/>
<path d="M0 0 C1.3303125 0.4021875 1.3303125 0.4021875 2.6875 0.8125 C1.8125 5.6875 1.8125 5.6875 0.6875 6.8125 C-0.97867115 6.85313832 -2.64638095 6.855221 -4.3125 6.8125 C-4.3125 7.8025 -4.3125 8.7925 -4.3125 9.8125 C-5.9625 10.4725 -7.6125 11.1325 -9.3125 11.8125 C-9.9375 9.4375 -9.9375 9.4375 -10.3125 6.8125 C-9.6525 6.1525 -8.9925 5.4925 -8.3125 4.8125 C-7.57 3.925625 -6.8275 3.03875 -6.0625 2.125 C-3.3125 -0.1875 -3.3125 -0.1875 0 0 Z " fill="#3DCFE5" transform="translate(115.3125,102.1875)"/>
<path d="M0 0 C4.875 0.875 4.875 0.875 6 2 C6.33 1.34 6.66 0.68 7 0 C8.32 0 9.64 0 11 0 C11 0.99 11 1.98 11 3 C11.66 3 12.32 3 13 3 C13.33 2.01 13.66 1.02 14 0 C15.65 0 17.3 0 19 0 C19 1.32 19 2.64 19 4 C15.69005287 5.65497356 12.00877 5.10084335 8.375 5.0625 C7.57320312 5.05798828 6.77140625 5.05347656 5.9453125 5.04882812 C3.96350994 5.03703168 1.98174567 5.01909605 0 5 C0 3.35 0 1.7 0 0 Z " fill="#36AFC6" transform="translate(33,97)"/>
<path d="M0 0 C1.32 0 2.64 0 4 0 C4 6.6 4 13.2 4 20 C2.68 19.67 1.36 19.34 0 19 C0 12.73 0 6.46 0 0 Z " fill="#3E3E8B" transform="translate(115,63)"/>
<path d="M0 0 C8.58 0 17.16 0 26 0 C25.67 0.99 25.34 1.98 25 3 C17.08 3 9.16 3 1 3 C0.67 2.01 0.34 1.02 0 0 Z " fill="#4C4CA0" transform="translate(101,124)"/>
<path d="M0 0 C5.61 0 11.22 0 17 0 C17 1.32 17 2.64 17 4 C11.39 4 5.78 4 0 4 C0 2.68 0 1.36 0 0 Z " fill="#3B4E92" transform="translate(15,34)"/>
<path d="M0 0 C2.64 0 5.28 0 8 0 C8 2.97 8 5.94 8 9 C7.01 9 6.02 9 5 9 C5 9.66 5 10.32 5 11 C4.34 11 3.68 11 3 11 C3 9.68 3 8.36 3 7 C2.01 6.67 1.02 6.34 0 6 C0 4.02 0 2.04 0 0 Z " fill="#3EBBD9" transform="translate(26,59)"/>
<path d="M0 0 C0.66 0.33 1.32 0.66 2 1 C2.04254356 2.99954746 2.04080783 5.00041636 2 7 C1 8 1 8 -1.31665039 8.11352539 C-2.31688232 8.10828857 -3.31711426 8.10305176 -4.34765625 8.09765625 C-5.42724609 8.09443359 -6.50683594 8.09121094 -7.61914062 8.08789062 C-8.75544922 8.07951172 -9.89175781 8.07113281 -11.0625 8.0625 C-12.20267578 8.05798828 -13.34285156 8.05347656 -14.51757812 8.04882812 C-17.34510351 8.03699747 -20.1725264 8.0205141 -23 8 C-21 6 -21 6 -18.93701172 5.77294922 C-18.10959473 5.78342285 -17.28217773 5.79389648 -16.4296875 5.8046875 C-15.53378906 5.81113281 -14.63789062 5.81757812 -13.71484375 5.82421875 C-12.30912109 5.84935547 -12.30912109 5.84935547 -10.875 5.875 C-9.93011719 5.88402344 -8.98523438 5.89304687 -8.01171875 5.90234375 C-5.67422708 5.92595478 -3.33723877 5.95888484 -1 6 C-1.020625 5.195625 -1.04125 4.39125 -1.0625 3.5625 C-1 1 -1 1 0 0 Z " fill="#38C5D1" transform="translate(96,48)"/>
<path d="M0 0 C1.37478516 0.01740234 1.37478516 0.01740234 2.77734375 0.03515625 C3.69644531 0.04417969 4.61554688 0.05320312 5.5625 0.0625 C6.27277344 0.07410156 6.98304687 0.08570312 7.71484375 0.09765625 C7.38484375 0.75765625 7.05484375 1.41765625 6.71484375 2.09765625 C5.06484375 2.09765625 3.41484375 2.09765625 1.71484375 2.09765625 C1.66585937 2.72414063 1.616875 3.350625 1.56640625 3.99609375 C1.49164063 4.81335938 1.416875 5.630625 1.33984375 6.47265625 C1.27023438 7.28476563 1.200625 8.096875 1.12890625 8.93359375 C0.71484375 11.09765625 0.71484375 11.09765625 -1.28515625 13.09765625 C-1.94515625 13.09765625 -2.60515625 13.09765625 -3.28515625 13.09765625 C-3.31202178 11.11856227 -3.33149 9.13936654 -3.34765625 7.16015625 C-3.35925781 6.05800781 -3.37085937 4.95585938 -3.3828125 3.8203125 C-3.25076835 0.13892172 -3.25076835 0.13892172 0 0 Z " fill="#43BAF4" transform="translate(108.28515625,95.90234375)"/>
<path d="M0 0 C1.24716797 0.00322266 2.49433594 0.00644531 3.77929688 0.00976562 C5.07287109 0.01814453 6.36644531 0.02652344 7.69921875 0.03515625 C9.66858398 0.04192383 9.66858398 0.04192383 11.67773438 0.04882812 C14.91410885 0.06059676 18.15039053 0.07703865 21.38671875 0.09765625 C21.05671875 0.75765625 20.72671875 1.41765625 20.38671875 2.09765625 C19.73074707 2.11747559 19.07477539 2.13729492 18.39892578 2.15771484 C15.43610806 2.25278132 12.47401343 2.36253377 9.51171875 2.47265625 C7.96291016 2.5190625 7.96291016 2.5190625 6.3828125 2.56640625 C4.90361328 2.62441406 4.90361328 2.62441406 3.39453125 2.68359375 C2.4833252 2.71501465 1.57211914 2.74643555 0.63330078 2.77880859 C-1.81259311 2.89648136 -1.81259311 2.89648136 -3.61328125 5.09765625 C-6.34197532 5.06478042 -8.90994305 4.53367854 -11.61328125 4.09765625 C-11.61328125 3.10765625 -11.61328125 2.11765625 -11.61328125 1.09765625 C-7.68039761 0.16677716 -4.03673962 -0.0184326 0 0 Z " fill="#D9D9E8" transform="translate(106.61328125,125.90234375)"/>
<path d="M0 0 C1.32 0.66 2.64 1.32 4 2 C3.34 3.98 2.68 5.96 2 8 C0.35 7.67 -1.3 7.34 -3 7 C-3.33 7.99 -3.66 8.98 -4 10 C-5.32 9.01 -6.64 8.02 -8 7 C-6.63016497 3.83884224 -6.0109362 3.0072908 -3 1 C-2.01 1.33 -1.02 1.66 0 2 C0 1.34 0 0.68 0 0 Z " fill="#41B5E0" transform="translate(43,90)"/>
<path d="M0 0 C2.31 0 4.62 0 7 0 C7 1.65 7 3.3 7 5 C7.66 5.33 8.32 5.66 9 6 C3.25 9 3.25 9 1 9 C0.67 9.66 0.34 10.32 0 11 C0 7.37 0 3.74 0 0 Z " fill="#5936FF" transform="translate(102,86)"/>
<path d="M0 0 C5.61 0 11.22 0 17 0 C17 0.66 17 1.32 17 2 C17.66 2.33 18.32 2.66 19 3 C13.06 3 7.12 3 1 3 C0.67 2.01 0.34 1.02 0 0 Z " fill="#42D8CF" transform="translate(33,102)"/>
<path d="M0 0 C2.31 0 4.62 0 7 0 C7.75 2.1875 7.75 2.1875 8 5 C6.25 7.8125 6.25 7.8125 4 10 C3.01 10 2.02 10 1 10 C1.020625 8.906875 1.04125 7.81375 1.0625 6.6875 C1.18544452 3.05615809 1.18544452 3.05615809 0 0 Z " fill="#70D4E4" transform="translate(110,33)"/>
<path d="M0 0 C0.763125 0.20625 1.52625 0.4125 2.3125 0.625 C2.3125 3.595 2.3125 6.565 2.3125 9.625 C-0.68443138 8.62602287 -1.71459413 7.97369747 -3.6875 5.625 C-3.6875 4.965 -3.6875 4.305 -3.6875 3.625 C-4.6775 3.955 -5.6675 4.285 -6.6875 4.625 C-5.39900677 0.7595203 -4.17039106 -0.58191503 0 0 Z " fill="#40D1D2" transform="translate(57.6875,87.375)"/>
<path d="M0 0 C1.09054688 0.02320313 2.18109375 0.04640625 3.3046875 0.0703125 C4.40039062 0.08835938 5.49609375 0.10640625 6.625 0.125 C7.46804687 0.14820313 8.31109375 0.17140625 9.1796875 0.1953125 C9.1796875 0.5253125 9.1796875 0.8553125 9.1796875 1.1953125 C16.1096875 1.5253125 23.0396875 1.8553125 30.1796875 2.1953125 C30.1796875 2.5253125 30.1796875 2.8553125 30.1796875 3.1953125 C26.22137017 3.22471714 22.26308153 3.24224578 18.3046875 3.2578125 C17.19609375 3.26619141 16.0875 3.27457031 14.9453125 3.28320312 C8.28917261 3.30278001 1.7857758 3.02411028 -4.8203125 2.1953125 C-2.8203125 0.1953125 -2.8203125 0.1953125 0 0 Z " fill="#3FADE1" transform="translate(65.8203125,53.8046875)"/>
<path d="M0 0 C2.64 0 5.28 0 8 0 C8 1.98 8 3.96 8 6 C7.67 5.34 7.34 4.68 7 4 C5.68 4 4.36 4 3 4 C3 4.99 3 5.98 3 7 C1.68 6.67 0.36 6.34 -1 6 C-0.67 4.02 -0.34 2.04 0 0 Z " fill="#39CDDB" transform="translate(18,59)"/>
<path d="M0 0 C1.23556641 0.01740234 1.23556641 0.01740234 2.49609375 0.03515625 C3.32238281 0.04417969 4.14867187 0.05320312 5 0.0625 C5.63808594 0.07410156 6.27617188 0.08570312 6.93359375 0.09765625 C6.60359375 0.75765625 6.27359375 1.41765625 5.93359375 2.09765625 C4.94359375 2.42765625 3.95359375 2.75765625 2.93359375 3.09765625 C1.54017409 4.50096999 1.54017409 4.50096999 0.30859375 6.16015625 C-0.47515625 7.12953125 -1.25890625 8.09890625 -2.06640625 9.09765625 C-2.39640625 9.09765625 -2.72640625 9.09765625 -3.06640625 9.09765625 C-3.1640625 2.9453125 -3.1640625 2.9453125 -3.06640625 1.09765625 C-2.06640625 0.09765625 -2.06640625 0.09765625 0 0 Z " fill="#4497EB" transform="translate(36.06640625,85.90234375)"/>
<path d="M0 0 C2.97 0.495 2.97 0.495 6 1 C5.67 2.65 5.34 4.3 5 6 C3.125 6.625 3.125 6.625 1 7 C0.34 6.34 -0.32 5.68 -1 5 C-0.625 2.375 -0.625 2.375 0 0 Z " fill="#65D7E3" transform="translate(112,102)"/>
<path d="M0 0 C0.99 0.33 1.98 0.66 3 1 C3 3.97 3 6.94 3 10 C1.02 10.99 1.02 10.99 -1 12 C-1.02698189 10.37509046 -1.04638757 8.75005367 -1.0625 7.125 C-1.07410156 6.22007813 -1.08570312 5.31515625 -1.09765625 4.3828125 C-1 2 -1 2 0 0 Z " fill="#6B6FFE" transform="translate(124,93)"/>
<path d="M0 0 C2.31 0 4.62 0 7 0 C7 0.99 7 1.98 7 3 C5.68662604 4.0260734 4.35335895 5.02727325 3 6 C3 6.66 3 7.32 3 8 C2.01 8.33 1.02 8.66 0 9 C0 6.03 0 3.06 0 0 Z " fill="#3DBCDD" transform="translate(105,54)"/>
<path d="M0 0 C0.99 0 1.98 0 3 0 C3 1.65 3 3.3 3 5 C6.96 5 10.92 5 15 5 C11.13209997 6.93395001 9.8499541 7.23289353 5.75 7.125 C4.85796875 7.10695313 3.9659375 7.08890625 3.046875 7.0703125 C2.03367187 7.03550781 2.03367187 7.03550781 1 7 C0.67 4.69 0.34 2.38 0 0 Z " fill="#3B96DA" transform="translate(41,49)"/>
<path d="M0 0 C0.99773438 0.02320312 1.99546875 0.04640625 3.0234375 0.0703125 C4.52777344 0.09738281 4.52777344 0.09738281 6.0625 0.125 C6.83335938 0.14820312 7.60421875 0.17140625 8.3984375 0.1953125 C8.7284375 0.8553125 9.0584375 1.5153125 9.3984375 2.1953125 C6.33292151 2.99034118 3.25520594 3.64463452 0.1484375 4.2578125 C-0.74359375 4.43441406 -1.635625 4.61101562 -2.5546875 4.79296875 C-3.56789063 4.99212891 -3.56789063 4.99212891 -4.6015625 5.1953125 C-4.6015625 1.30364798 -3.92889502 0.29496209 0 0 Z " fill="#3EB4DE" transform="translate(50.6015625,85.8046875)"/>
<path d="M0 0 C2.31 0 4.62 0 7 0 C7 1.65 7 3.3 7 5 C4.69 5 2.38 5 0 5 C0 3.35 0 1.7 0 0 Z " fill="#3C3E8A" transform="translate(98,49)"/>
<path d="M0 0 C1.65 0 3.3 0 5 0 C5 2.64 5 5.28 5 8 C2.03 8 -0.94 8 -4 8 C-3.67 7.34 -3.34 6.68 -3 6 C-1.02 6 0.96 6 3 6 C3 4.68 3 3.36 3 2 C2.01 1.67 1.02 1.34 0 1 C0 0.67 0 0.34 0 0 Z " fill="#34D4D0" transform="translate(29,32)"/>
<path d="M0 0 C1.65 0 3.3 0 5 0 C5 1.32 5 2.64 5 4 C-1.75 5.125 -1.75 5.125 -4 4 C-3.67 3.34 -3.34 2.68 -3 2 C-2.34 2.33 -1.68 2.66 -1 3 C-0.67 2.01 -0.34 1.02 0 0 Z " fill="#38C1C6" transform="translate(47,97)"/>
<path d="M0 0 C0 1.98 0 3.96 0 6 C-0.66 6 -1.32 6 -2 6 C-2.66 7.32 -3.32 8.64 -4 10 C-4.66 10 -5.32 10 -6 10 C-3.54716981 0 -3.54716981 0 0 0 Z " fill="#39D9D9" transform="translate(123,99)"/>
<path d="M0 0 C0.66 0 1.32 0 2 0 C2 1.65 2 3.3 2 5 C2.99 5.33 3.98 5.66 5 6 C4.01 6.99 3.02 7.98 2 9 C-1.875 7.25 -1.875 7.25 -3 5 C-2.01 5 -1.02 5 0 5 C0 3.35 0 1.7 0 0 Z " fill="#F1FAFB" transform="translate(119,52)"/>
<path d="M0 0 C-1.36125 0.61875 -1.36125 0.61875 -2.75 1.25 C-5.79665618 2.89050718 -7.71126806 4.44718361 -10 7 C-10.6875 5.1875 -10.6875 5.1875 -11 3 C-9.55840936 0.95142382 -8.39224627 0.15183726 -6.0625 -0.75 C-3.77207663 -1.02762708 -2.18293021 -0.70165614 0 0 Z " fill="#40C3ED" transform="translate(120,97)"/>
<path d="M0 0 C0.99 0.33 1.98 0.66 3 1 C2.67 2.65 2.34 4.3 2 6 C-0.97 6 -3.94 6 -7 6 C-6 4 -6 4 -2.9375 2.875 C-1.4834375 2.441875 -1.4834375 2.441875 0 2 C0 1.34 0 0.68 0 0 Z " fill="#34D7C4" transform="translate(30,74)"/>
<path d="M0 0 C2.0625 0.4375 2.0625 0.4375 4 1 C4 2.32 4 3.64 4 5 C2.68 5.33 1.36 5.66 0 6 C-0.38218767 4.34385343 -0.71395102 2.67542976 -1 1 C-0.67 0.67 -0.34 0.34 0 0 Z " fill="#43CEDA" transform="translate(22,67)"/>
<path d="M0 0 C1.62463842 -0.05395478 3.24978541 -0.09277195 4.875 -0.125 C5.77992187 -0.14820313 6.68484375 -0.17140625 7.6171875 -0.1953125 C10 0 10 0 12 2 C8.7 2 5.4 2 2 2 C2 2.66 2 3.32 2 4 C1.01 4 0.02 4 -1 4 C-0.67 2.68 -0.34 1.36 0 0 Z " fill="#31C4DF" transform="translate(42,45)"/>
<path d="M0 0 C0.99 0 1.98 0 3 0 C3.02689216 1.47906892 3.04634621 2.95827483 3.0625 4.4375 C3.07410156 5.26121094 3.08570313 6.08492188 3.09765625 6.93359375 C3 9 3 9 2 10 C-0.33297433 10.04092937 -2.66705225 10.04241723 -5 10 C-5 9.67 -5 9.34 -5 9 C-3.02 9 -1.04 9 1 9 C0.67 8.01 0.34 7.02 0 6 C0.9375 3.8125 0.9375 3.8125 2 2 C1.34 2 0.68 2 0 2 C0 1.34 0 0.68 0 0 Z " fill="#38C0C7" transform="translate(31,71)"/>
<path d="M0 0 C2.97 0.33 5.94 0.66 9 1 C9.33 2.32 9.66 3.64 10 5 C9.01 5 8.02 5 7 5 C7 4.34 7 3.68 7 3 C4.36 3 1.72 3 -1 3 C-0.67 2.01 -0.34 1.02 0 0 Z " fill="#59DAD5" transform="translate(88,44)"/>
<path d="M0 0 C0.33 0.99 0.66 1.98 1 3 C3.31 3.33 5.62 3.66 8 4 C8 4.33 8 4.66 8 5 C6.37509046 5.02698189 4.75005367 5.04638757 3.125 5.0625 C1.76761719 5.07990234 1.76761719 5.07990234 0.3828125 5.09765625 C-2 5 -2 5 -4 4 C-4 3.01 -4 2.02 -4 1 C-2 0 -2 0 0 0 Z " fill="#BCD5FE" transform="translate(85,114)"/>
<path d="M0 0 C2.97 0 5.94 0 9 0 C9 0.66 9 1.32 9 2 C6.36 2.33 3.72 2.66 1 3 C0.67 2.01 0.34 1.02 0 0 Z " fill="#4FD2DD" transform="translate(33,102)"/>
<path d="M0 0 C0.763125 0.20625 1.52625 0.4125 2.3125 0.625 C2.3125 1.285 2.3125 1.945 2.3125 2.625 C-3.3125 4.625 -3.3125 4.625 -6.6875 4.625 C-5.39900677 0.7595203 -4.17039106 -0.58191503 0 0 Z " fill="#39C3D7" transform="translate(57.6875,87.375)"/>
<path d="M0 0 C1.21346851 3.64040554 1.21346851 5.35959446 0 9 C-1.32 8.01 -2.64 7.02 -4 6 C-2.84826645 3.53199953 -1.95216435 1.95216435 0 0 Z " fill="#DEF0F8" transform="translate(39,91)"/>
<path d="M0 0 C3.3 0 6.6 0 10 0 C9.67 0.66 9.34 1.32 9 2 C7.02 2 5.04 2 3 2 C2.67 2.66 2.34 3.32 2 4 C1.01 4 0.02 4 -1 4 C-0.67 2.68 -0.34 1.36 0 0 Z " fill="#46B0F5" transform="translate(106,96)"/>
<path d="M0 0 C0.99 0 1.98 0 3 0 C3 0.99 3 1.98 3 3 C2.01 3 1.02 3 0 3 C0 3.66 0 4.32 0 5 C0.66 5.33 1.32 5.66 2 6 C0.68 6.99 -0.64 7.98 -2 9 C-2 8.01 -2 7.02 -2 6 C-2.66 5.67 -3.32 5.34 -4 5 C-3.01 5 -2.02 5 -1 5 C-0.67 3.35 -0.34 1.7 0 0 Z " fill="#48D0D4" transform="translate(31,68)"/>
<path d="M0 0 C0.33 0 0.66 0 1 0 C1.37211538 6.57403846 1.37211538 6.57403846 -0.51171875 8.73046875 C-1.00285156 9.14941406 -1.49398437 9.56835938 -2 10 C-1.85950482 8.52031676 -1.71245174 7.04125484 -1.5625 5.5625 C-1.48128906 4.73878906 -1.40007812 3.91507812 -1.31640625 3.06640625 C-1 1 -1 1 0 0 Z " fill="#665FFF" transform="translate(104,107)"/>
<path d="M0 0 C1.32 0 2.64 0 4 0 C3.67 1.65 3.34 3.3 3 5 C2.01 5.33 1.02 5.66 0 6 C0 4.02 0 2.04 0 0 Z " fill="#34AEC5" transform="translate(26,59)"/>
<path d="M0 0 C2.475 0.495 2.475 0.495 5 1 C3.25 4.875 3.25 4.875 1 6 C0.67 4.02 0.34 2.04 0 0 Z " fill="#DEF2F9" transform="translate(17,66)"/>
<path d="M0 0 C1.65 0 3.3 0 5 0 C3.35 1.65 1.7 3.3 0 5 C-0.99 4.67 -1.98 4.34 -3 4 C-2.01 3.67 -1.02 3.34 0 3 C0 2.01 0 1.02 0 0 Z " fill="#3ADADA" transform="translate(111,109)"/>
<path d="M0 0 C1.32 0.33 2.64 0.66 4 1 C4 1.99 4 2.98 4 4 C1.69 4 -0.62 4 -3 4 C-2.01 2.68 -1.02 1.36 0 0 Z " fill="#7A9CFE" transform="translate(123,120)"/>
<path d="M0 0 C0.66 0.66 1.32 1.32 2 2 C1.625 4.625 1.625 4.625 1 7 C0.01 7 -0.98 7 -2 7 C-1.125 2.25 -1.125 2.25 0 0 Z " fill="#3FC3EE" transform="translate(107,102)"/>
<path d="M0 0 C0.66 0.33 1.32 0.66 2 1 C2 2.65 2 4.3 2 6 C0.68 6 -0.64 6 -2 6 C-2 5.01 -2 4.02 -2 3 C-1.34 3 -0.68 3 0 3 C0 2.01 0 1.02 0 0 Z " fill="#707EFE" transform="translate(125,102)"/>
<path d="M0 0 C1.65 0.99 3.3 1.98 5 3 C3.625 5 3.625 5 2 7 C1.34 7 0.68 7 0 7 C0.2784375 6.1028125 0.2784375 6.1028125 0.5625 5.1875 C1.22093687 2.83591238 1.22093687 2.83591238 0 0 Z " fill="#EAF9FB" transform="translate(53,92)"/>
</svg>
