<?xml version="1.0" encoding="UTF-8"?>
<svg version="1.1" xmlns="http://www.w3.org/2000/svg" width="150" height="150">
<path d="M0 0 C1.6875 0.875 1.6875 0.875 2.6875 3.875 C4.9975 4.205 7.3075 4.535 9.6875 4.875 C10.3475 3.555 11.0075 2.235 11.6875 0.875 C14.6594385 1.99951727 17.02190687 3.09793791 19.6875 4.875 C19.336875 5.82375 18.98625 6.7725 18.625 7.75 C17.33723223 10.74560172 17.33723223 10.74560172 18.6875 12.875 C20.51087891 12.96587891 20.51087891 12.96587891 22.37109375 13.05859375 C23.95574228 13.14298332 25.54037702 13.2276321 27.125 13.3125 C28.32866211 13.37147461 28.32866211 13.37147461 29.55664062 13.43164062 C35.57421875 13.76171875 35.57421875 13.76171875 36.6875 14.875 C36.84556531 16.79978813 36.938635 18.7299921 37.00390625 20.66015625 C37.06674805 22.41489258 37.06674805 22.41489258 37.13085938 24.20507812 C37.17017578 25.43677734 37.20949219 26.66847656 37.25 27.9375 C37.29318359 29.17306641 37.33636719 30.40863281 37.38085938 31.68164062 C37.48734198 34.74597335 37.58935424 37.81039073 37.6875 40.875 C38.30625 40.66875 38.925 40.4625 39.5625 40.25 C40.26375 40.12625 40.965 40.0025 41.6875 39.875 C42.3475 40.535 43.0075 41.195 43.6875 41.875 C43.65462417 44.60369407 43.12352229 47.1716618 42.6875 49.875 C43.3475 49.875 44.0075 49.875 44.6875 49.875 C44.3575 51.525 44.0275 53.175 43.6875 54.875 C41.2125 55.37 41.2125 55.37 38.6875 55.875 C38.3575 57.195 38.0275 58.515 37.6875 59.875 C35.7075 59.875 33.7275 59.875 31.6875 59.875 C31.6875 58.885 31.6875 57.895 31.6875 56.875 C29.3775 56.875 27.0675 56.875 24.6875 56.875 C23.6975 54.895 23.6975 54.895 22.6875 52.875 C23.6775 52.545 24.6675 52.215 25.6875 51.875 C25.1925 51.111875 24.6975 50.34875 24.1875 49.5625 C22.6875 46.875 22.6875 46.875 22.6875 43.875 C22.0275 43.875 21.3675 43.875 20.6875 43.875 C20.6875 50.475 20.6875 57.075 20.6875 63.875 C22.9975 63.875 25.3075 63.875 27.6875 63.875 C28.6875 64.875 28.6875 64.875 28.80102539 68.84399414 C28.8008662 70.61605607 28.79516785 72.3881226 28.78515625 74.16015625 C28.7837413 75.09097519 28.78232635 76.02179413 28.78086853 76.9808197 C28.77525172 79.96641191 28.7626964 82.95193029 28.75 85.9375 C28.74498716 87.95637913 28.74042388 89.97525943 28.73632812 91.99414062 C28.72527683 96.95445572 28.70800095 101.91471532 28.6875 106.875 C30.9975 107.535 33.3075 108.195 35.6875 108.875 C34.6875 110.875 34.6875 110.875 33.03271484 111.48950195 C28.17950924 112.28725457 23.23154055 112.06090312 18.32519531 112.06030273 C16.32613013 112.06248512 14.32710468 112.08099143 12.328125 112.09960938 C11.05710937 112.10154297 9.78609375 112.10347656 8.4765625 112.10546875 C7.31850098 112.10957764 6.16043945 112.11368652 4.96728516 112.11791992 C1.57439046 111.86662245 -1.14582989 111.08673908 -4.3125 109.875 C-3.9825 109.215 -3.6525 108.555 -3.3125 107.875 C-0.75 107.25 -0.75 107.25 1.6875 106.875 C1.00892944 106.86691315 0.33035889 106.85882629 -0.36877441 106.85049438 C-7.50822947 106.76363335 -14.64743245 106.6641071 -21.78662109 106.55761719 C-24.44188188 106.51863425 -27.0970665 106.48471702 -29.75244141 106.453125 C-69.55576285 105.9737474 -69.55576285 105.9737474 -76.3125 100.875 C-76.625 98.1875 -76.625 98.1875 -76.3125 95.875 C-77.240625 95.875 -78.16875 95.875 -79.125 95.875 C-81.1875 95.875 -83.25 95.875 -85.3125 95.875 C-88.3125 92.54166667 -88.3125 92.54166667 -88.3125 89.875 C-87.3225 89.38 -87.3225 89.38 -86.3125 88.875 C-85.65477572 85.84565509 -85.65477572 85.84565509 -85.3125 82.875 C-86.6325 82.545 -87.9525 82.215 -89.3125 81.875 C-88.5 78.9375 -88.5 78.9375 -87.3125 75.875 C-84.6385876 74.98369587 -82.07526177 74.39768466 -79.3125 73.875 C-78.9825 72.225 -78.6525 70.575 -78.3125 68.875 C-76.3325 68.875 -74.3525 68.875 -72.3125 68.875 C-72.3125 66.235 -72.3125 63.595 -72.3125 60.875 C-76.6025 60.875 -80.8925 60.875 -85.3125 60.875 C-85.3125 54.275 -85.3125 47.675 -85.3125 40.875 C-87.2925 40.545 -89.2725 40.215 -91.3125 39.875 C-91.3125 39.545 -91.3125 39.215 -91.3125 38.875 C-89.08340129 38.84785265 -86.85420633 38.82853746 -84.625 38.8125 C-83.38363281 38.80089844 -82.14226562 38.78929687 -80.86328125 38.77734375 C-77.85014546 38.86021327 -75.22974661 39.16660551 -72.3125 39.875 C-72.3125 37.895 -72.3125 35.915 -72.3125 33.875 C-78.5825 33.875 -84.8525 33.875 -91.3125 33.875 C-91.3125 33.545 -91.3125 33.215 -91.3125 32.875 C-88.8375 32.38 -88.8375 32.38 -86.3125 31.875 C-85.9825 30.555 -85.6525 29.235 -85.3125 27.875 C-87.2925 27.875 -89.2725 27.875 -91.3125 27.875 C-91.3125 27.545 -91.3125 27.215 -91.3125 26.875 C-89.6625 26.545 -88.0125 26.215 -86.3125 25.875 C-85.9825 24.555 -85.6525 23.235 -85.3125 21.875 C-87.2925 21.875 -89.2725 21.875 -91.3125 21.875 C-91.3125 21.545 -91.3125 21.215 -91.3125 20.875 C-89.6625 20.545 -88.0125 20.215 -86.3125 19.875 C-85.9825 18.555 -85.6525 17.235 -85.3125 15.875 C-87.2925 15.875 -89.2725 15.875 -91.3125 15.875 C-91.3125 15.545 -91.3125 15.215 -91.3125 14.875 C-85.42310037 12.83387931 -80.1405285 12.60221958 -73.9375 12.6875 C-72.56658203 12.6884668 -72.56658203 12.6884668 -71.16796875 12.68945312 C-64.45314837 12.73435163 -64.45314837 12.73435163 -63.3125 13.875 C-60.50273482 14.03517166 -57.71476404 14.13450534 -54.90234375 14.19140625 C-54.06030899 14.21218735 -53.21827423 14.23296844 -52.35072327 14.25437927 C-49.65056821 14.31996812 -46.95031283 14.37880276 -44.25 14.4375 C-42.42381759 14.48067637 -40.59764546 14.52429036 -38.77148438 14.56835938 C-34.28526008 14.67565894 -29.7989345 14.77689966 -25.3125 14.875 C-25.3125 15.205 -25.3125 15.535 -25.3125 15.875 C-38.1825 15.875 -51.0525 15.875 -64.3125 15.875 C-63.9825 17.195 -63.6525 18.515 -63.3125 19.875 C-53.0825 20.205 -42.8525 20.535 -32.3125 20.875 C-32.3125 21.205 -32.3125 21.535 -32.3125 21.875 C-42.8725 21.875 -53.4325 21.875 -64.3125 21.875 C-63.9825 23.195 -63.6525 24.515 -63.3125 25.875 C-45.8225 25.875 -28.3325 25.875 -10.3125 25.875 C-10.3125 24.885 -10.3125 23.895 -10.3125 22.875 C-12.2925 22.875 -14.2725 22.875 -16.3125 22.875 C-15.9825 19.575 -15.6525 16.275 -15.3125 12.875 C-12.3425 13.37 -12.3425 13.37 -9.3125 13.875 C-7.32887931 10.95791076 -7.3248809 9.75119096 -7.6875 6.125 C-7.996875 4.51625 -7.996875 4.51625 -8.3125 2.875 C-2.96995311 -0.16053801 -2.96995311 -0.16053801 0 0 Z M-2.3125 12.875 C-4.5209626 16.18769391 -5.11914241 18.02478851 -4.8671875 21.9375 C-3.7937192 25.68707941 -1.59946911 26.89041488 1.6875 28.875 C4.32586977 29.0422392 4.32586977 29.0422392 6.6875 28.875 C6.72488281 27.88757813 6.76226562 26.90015625 6.80078125 25.8828125 C6.86652344 24.60148437 6.93226562 23.32015625 7 22 C7.05800781 20.72382812 7.11601563 19.44765625 7.17578125 18.1328125 C7.34464844 17.05773437 7.51351562 15.98265625 7.6875 14.875 C8.6775 14.215 9.6675 13.555 10.6875 12.875 C8.70357489 10.47648679 8.70357489 10.47648679 4.875 10.4375 C1.51016671 10.54169338 0.64379969 10.90413354 -2.3125 12.875 Z M-64.3125 27.875 C-64.3125 28.535 -64.3125 29.195 -64.3125 29.875 C-62.0025 29.875 -59.6925 29.875 -57.3125 29.875 C-57.3125 29.215 -57.3125 28.555 -57.3125 27.875 C-59.6225 27.875 -61.9325 27.875 -64.3125 27.875 Z M28.6875 45.875 C28.3241844 48.70886167 28.3306329 50.28022151 29.8125 52.75 C32.60901052 54.42790631 34.62440532 53.62375648 37.6875 52.875 C38.36423447 49.47179066 38.36423447 49.47179066 38.6875 45.875 C36.80249729 43.55936913 36.80249729 43.55936913 33.6875 43.625 C30.57250271 43.55936913 30.57250271 43.55936913 28.6875 45.875 Z M-78.5625 79.5 C-80.53235834 81.79808586 -80.53235834 81.79808586 -80.8125 84.875 C-80.52626982 87.94075838 -80.52626982 87.94075838 -78.625 90.25 C-75.92459763 92.14758004 -74.54189919 92.23382213 -71.3125 91.875 C-71.16274761 84.81848748 -71.16274761 84.81848748 -72.3125 77.875 C-76.23462225 77.48467296 -76.23462225 77.48467296 -78.5625 79.5 Z M-68.3125 95.875 C-68.3125 96.865 -68.3125 97.855 -68.3125 98.875 C-64.99977224 98.73408107 -61.68738029 98.58634606 -58.375 98.4375 C-57.44880859 98.39818359 -56.52261719 98.35886719 -55.56835938 98.31835938 C-49.77736581 98.05420879 -44.06710497 97.57735691 -38.3125 96.875 C-37.9825 95.885 -37.6525 94.895 -37.3125 93.875 C-41.40588652 93.82560885 -45.49915798 93.78928499 -49.59277344 93.76513672 C-50.98570781 93.75507123 -52.37862102 93.74141766 -53.77148438 93.72412109 C-55.7720436 93.6998978 -57.77275615 93.68959186 -59.7734375 93.6796875 C-60.97790527 93.66921387 -62.18237305 93.65874023 -63.42333984 93.64794922 C-66.44091495 93.57039186 -66.44091495 93.57039186 -68.3125 95.875 Z M-13.3125 93.875 C-13.3125 94.865 -13.3125 95.855 -13.3125 96.875 C-8.0325 97.205 -2.7525 97.535 2.6875 97.875 C2.6875 96.555 2.6875 95.235 2.6875 93.875 C-2.5925 93.875 -7.8725 93.875 -13.3125 93.875 Z " fill="#5D51FC" transform="translate(98.3125,19.125)"/>
<path d="M0 0 C1.98 0 3.96 0 6 0 C6 2.97 6 5.94 6 9 C5.030625 9.28875 4.06125 9.5775 3.0625 9.875 C-0.10664203 10.64214682 -0.10664203 10.64214682 -1 13 C-1.14375422 16.37822416 -1.07536348 18.77390955 0 22 C2.31 22.33 4.62 22.66 7 23 C7 20.03 7 17.06 7 14 C8.98 14 10.96 14 13 14 C13.33 14.66 13.66 15.32 14 16 C22.25 16 30.5 16 39 16 C39.33 15.34 39.66 14.68 40 14 C53.53 14 67.06 14 81 14 C81 17.63 81 21.26 81 25 C75.72 25 70.44 25 65 25 C65 25.99 65 26.98 65 28 C65.56847656 27.98839844 66.13695313 27.97679688 66.72265625 27.96484375 C71.60670484 27.90776806 76.18503965 28.18043228 81 29 C81 31.64 81 34.28 81 37 C73.71409984 37.04682155 66.42823335 37.08211748 59.14221191 37.10362434 C55.75718789 37.11395864 52.37226851 37.12792229 48.98730469 37.15087891 C9.17267069 37.4010078 9.17267069 37.4010078 2 32 C1.6875 29.3125 1.6875 29.3125 2 27 C1.071875 27 0.14375 27 -0.8125 27 C-2.875 27 -4.9375 27 -7 27 C-10 23.66666667 -10 23.66666667 -10 21 C-9.34 20.67 -8.68 20.34 -8 20 C-7.34227572 16.97065509 -7.34227572 16.97065509 -7 14 C-8.32 13.67 -9.64 13.34 -11 13 C-10.1875 10.0625 -10.1875 10.0625 -9 7 C-6.3260876 6.10869587 -3.76276177 5.52268466 -1 5 C-0.67 3.35 -0.34 1.7 0 0 Z M10 27 C10 27.99 10 28.98 10 30 C13.31272776 29.85908107 16.62511971 29.71134606 19.9375 29.5625 C20.86369141 29.52318359 21.78988281 29.48386719 22.74414062 29.44335938 C28.53513419 29.17920879 34.24539503 28.70235691 40 28 C40.33 27.01 40.66 26.02 41 25 C36.90661348 24.95060885 32.81334202 24.91428499 28.71972656 24.89013672 C27.32679219 24.88007123 25.93387898 24.86641766 24.54101562 24.84912109 C22.5404564 24.8248978 20.53974385 24.81459186 18.5390625 24.8046875 C17.33459473 24.79421387 16.13012695 24.78374023 14.88916016 24.77294922 C11.87158505 24.69539186 11.87158505 24.69539186 10 27 Z " fill="#B3D0FE" transform="translate(20,88)"/>
<path d="M0 0 C2.31 0 4.62 0 7 0 C7 2.97 7 5.94 7 9 C10.3 9 13.6 9 17 9 C17 15.6 17 22.2 17 29 C12.71 29 8.42 29 4 29 C4 33.29 4 37.58 4 42 C5.485 41.505 5.485 41.505 7 41 C8.99291992 40.97827148 8.99291992 40.97827148 11.23046875 41.12109375 C12.03291016 41.16943359 12.83535156 41.21777344 13.66210938 41.26757812 C14.91217773 41.35168945 14.91217773 41.35168945 16.1875 41.4375 C17.03248047 41.48970703 17.87746094 41.54191406 18.74804688 41.59570312 C20.83236299 41.72523689 22.91623182 41.86193177 25 42 C25.495 45.465 25.495 45.465 26 49 C26.33 48.01 26.66 47.02 27 46 C27.66 46 28.32 46 29 46 C29 54.58 29 63.16 29 72 C31.31 72.66 33.62 73.32 36 74 C35 76 35 76 33.34521484 76.61450195 C28.49200924 77.41225457 23.54404055 77.18590312 18.63769531 77.18530273 C16.63863013 77.18748512 14.63960468 77.20599143 12.640625 77.22460938 C11.36960937 77.22654297 10.09859375 77.22847656 8.7890625 77.23046875 C7.63100098 77.23457764 6.47293945 77.23868652 5.27978516 77.24291992 C1.88689046 76.99162245 -0.83332989 76.21173908 -4 75 C-3 73 -3 73 3 71 C3 61.76 3 52.52 3 43 C-0.96 43 -4.92 43 -9 43 C-10 41 -10 41 -10 40 C-10.32380126 38.66431979 -10.65657551 37.33076989 -11 36 C-12.65 36 -14.3 36 -16 36 C-16 33.69 -16 31.38 -16 29 C-15.41992188 28.96261719 -14.83984375 28.92523438 -14.2421875 28.88671875 C-13.07042969 28.78810547 -13.07042969 28.78810547 -11.875 28.6875 C-11.10929687 28.62949219 -10.34359375 28.57148437 -9.5546875 28.51171875 C-6.2921371 27.97461071 -6.2921371 27.97461071 -1 25 C-0.67 16.75 -0.34 8.5 0 0 Z " fill="#758BFD" transform="translate(98,54)"/>
<path d="M0 0 C16.83 0 33.66 0 51 0 C51 10.23 51 20.46 51 31 C34.17 31 17.34 31 0 31 C0 20.77 0 10.54 0 0 Z " fill="#474E94" transform="translate(44,47)"/>
<path d="M0 0 C1.6875 0.875 1.6875 0.875 2.6875 3.875 C4.9975 4.205 7.3075 4.535 9.6875 4.875 C10.3475 3.555 11.0075 2.235 11.6875 0.875 C14.6594385 1.99951727 17.02190687 3.09793791 19.6875 4.875 C19.1615625 6.298125 19.1615625 6.298125 18.625 7.75 C17.33723223 10.74560172 17.33723223 10.74560172 18.6875 12.875 C19.90308594 12.93558594 21.11867187 12.99617188 22.37109375 13.05859375 C23.95574228 13.14298332 25.54037702 13.2276321 27.125 13.3125 C28.32866211 13.37147461 28.32866211 13.37147461 29.55664062 13.43164062 C35.57421875 13.76171875 35.57421875 13.76171875 36.6875 14.875 C36.84556531 16.79978813 36.938635 18.7299921 37.00390625 20.66015625 C37.04580078 21.82998047 37.08769531 22.99980469 37.13085938 24.20507812 C37.17017578 25.43677734 37.20949219 26.66847656 37.25 27.9375 C37.29318359 29.17306641 37.33636719 30.40863281 37.38085938 31.68164062 C37.48734198 34.74597335 37.58935424 37.81039073 37.6875 40.875 C38.30625 40.66875 38.925 40.4625 39.5625 40.25 C40.26375 40.12625 40.965 40.0025 41.6875 39.875 C42.3475 40.535 43.0075 41.195 43.6875 41.875 C43.65462417 44.60369407 43.12352229 47.1716618 42.6875 49.875 C43.3475 49.875 44.0075 49.875 44.6875 49.875 C44.3575 51.525 44.0275 53.175 43.6875 54.875 C41.2125 55.37 41.2125 55.37 38.6875 55.875 C38.3575 57.195 38.0275 58.515 37.6875 59.875 C35.7075 59.875 33.7275 59.875 31.6875 59.875 C31.6875 58.885 31.6875 57.895 31.6875 56.875 C29.3775 56.875 27.0675 56.875 24.6875 56.875 C24.0275 55.555 23.3675 54.235 22.6875 52.875 C23.6775 52.545 24.6675 52.215 25.6875 51.875 C25.1925 51.111875 24.6975 50.34875 24.1875 49.5625 C22.6875 46.875 22.6875 46.875 22.6875 43.875 C22.0275 43.875 21.3675 43.875 20.6875 43.875 C19.6975 40.905 18.7075 37.935 17.6875 34.875 C18.3475 34.875 19.0075 34.875 19.6875 34.875 C19.6875 32.565 19.6875 30.255 19.6875 27.875 C18.95273438 28.36613281 18.95273438 28.36613281 18.203125 28.8671875 C14.64480437 30.29272589 11.20546989 30.08654348 7.4375 30 C6.69242188 29.99097656 5.94734375 29.98195313 5.1796875 29.97265625 C3.34881941 29.94918358 1.51811762 29.91331525 -0.3125 29.875 C-0.3125 29.215 -0.3125 28.555 -0.3125 27.875 C1.9975 28.205 4.3075 28.535 6.6875 28.875 C6.63529297 27.39386719 6.63529297 27.39386719 6.58203125 25.8828125 C6.55496094 24.60148437 6.52789062 23.32015625 6.5 22 C6.44779297 20.08574219 6.44779297 20.08574219 6.39453125 18.1328125 C6.49121094 17.05773437 6.58789062 15.98265625 6.6875 14.875 C7.6775 14.215 8.6675 13.555 9.6875 12.875 C8.47160016 11.44344101 8.47160016 11.44344101 4.875 11.5625 C1.90132315 11.62122611 0.80998853 11.80150688 -1.8125 13.375 C-4.02427972 17.06129954 -3.65671275 19.60676192 -3.3125 23.875 C-2.9825 24.535 -2.6525 25.195 -2.3125 25.875 C-4.9525 25.875 -7.5925 25.875 -10.3125 25.875 C-10.3125 24.885 -10.3125 23.895 -10.3125 22.875 C-12.2925 22.875 -14.2725 22.875 -16.3125 22.875 C-15.9825 19.575 -15.6525 16.275 -15.3125 12.875 C-12.3425 13.37 -12.3425 13.37 -9.3125 13.875 C-7.32887931 10.95791076 -7.3248809 9.75119096 -7.6875 6.125 C-7.89375 5.0525 -8.1 3.98 -8.3125 2.875 C-2.96995311 -0.16053801 -2.96995311 -0.16053801 0 0 Z M28.6875 45.875 C28.3241844 48.70886167 28.3306329 50.28022151 29.8125 52.75 C32.60901052 54.42790631 34.62440532 53.62375648 37.6875 52.875 C38.36423447 49.47179066 38.36423447 49.47179066 38.6875 45.875 C36.80249729 43.55936913 36.80249729 43.55936913 33.6875 43.625 C30.57250271 43.55936913 30.57250271 43.55936913 28.6875 45.875 Z " fill="#35DCC5" transform="translate(98.3125,19.125)"/>
<path d="M0 0 C14.52 0 29.04 0 44 0 C44.495 1.98 44.495 1.98 45 4 C47.58366245 3.85879984 50.16682885 3.71221667 52.75 3.5625 C53.84441406 3.50352539 53.84441406 3.50352539 54.9609375 3.44335938 C58.4272973 3.23852902 61.65333026 2.9147998 65 2 C65 5.66666667 65 9.33333333 65 13 C65.495 13.495 65.495 13.495 66 14 C66.08726223 15.78071246 66.10699041 17.5648314 66.09765625 19.34765625 C66.09282227 20.96704102 66.09282227 20.96704102 66.08789062 22.61914062 C66.07532227 24.32360352 66.07532227 24.32360352 66.0625 26.0625 C66.05798828 27.20267578 66.05347656 28.34285156 66.04882812 29.51757812 C66.03699747 32.34510351 66.0205141 35.1725264 66 38 C67.7015625 37.9690625 67.7015625 37.9690625 69.4375 37.9375 C73 38 73 38 74 39 C74.18062277 41.62051074 74.27807881 44.18960526 74.3125 46.8125 C74.35600586 47.90014648 74.35600586 47.90014648 74.40039062 49.00976562 C74.44428418 52.70020035 74.32911559 54.59067442 71.98046875 57.51171875 C71.32691406 58.00285156 70.67335938 58.49398437 70 59 C70 56.36 70 53.72 70 51 C63.07 51 56.14 51 49 51 C47.875 40.25 47.875 40.25 49 38 C53.29 38 57.58 38 62 38 C62 31.4 62 24.8 62 18 C58.7 18 55.4 18 52 18 C52 15.03 52 12.06 52 9 C49.69 9 47.38 9 45 9 C45.01571045 10.12027588 45.01571045 10.12027588 45.03173828 11.26318359 C45.0732077 14.63375508 45.09929729 18.004273 45.125 21.375 C45.14175781 22.550625 45.15851563 23.72625 45.17578125 24.9375 C45.18544922 26.61972656 45.18544922 26.61972656 45.1953125 28.3359375 C45.21102295 29.89127197 45.21102295 29.89127197 45.22705078 31.47802734 C45 34 45 34 43 36 C40.76086426 36.25396729 40.76086426 36.25396729 37.93945312 36.25878906 C36.35771301 36.26824554 36.35771301 36.26824554 34.74401855 36.27789307 C33.60130493 36.2738446 32.45859131 36.26979614 31.28125 36.265625 C29.52802429 36.26849518 29.52802429 36.26849518 27.73937988 36.27142334 C25.26456487 36.27278626 22.78974274 36.26908241 20.31494141 36.26074219 C16.51578795 36.25004446 12.71710741 36.26063418 8.91796875 36.2734375 C6.51822812 36.27211592 4.11848778 36.26955357 1.71875 36.265625 C0.00467957 36.27169769 0.00467957 36.27169769 -1.74401855 36.27789307 C-2.79851196 36.27158875 -3.85300537 36.26528442 -4.93945312 36.25878906 C-5.8705188 36.25719788 -6.80158447 36.25560669 -7.76086426 36.25396729 C-10 36 -10 36 -12 34 C-12.22705078 31.01904297 -12.22705078 31.01904297 -12.1953125 27.2421875 C-12.1924826 26.57913605 -12.18965271 25.91608459 -12.18673706 25.23294067 C-12.17553435 23.11344417 -12.15043051 20.99436896 -12.125 18.875 C-12.11497028 17.43880818 -12.10584441 16.00260975 -12.09765625 14.56640625 C-12.075595 11.04413372 -12.04106494 7.52210797 -12 4 C-11.01 4 -10.02 4 -9 4 C-9 13.57 -9 23.14 -9 33 C7.83 33 24.66 33 42 33 C42 22.77 42 12.54 42 2 C28.14 2 14.28 2 0 2 C0 1.34 0 0.68 0 0 Z " fill="#36D7C7" transform="translate(53,45)"/>
<path d="M0 0 C1.98 0 3.96 0 6 0 C6 2.97 6 5.94 6 9 C5.030625 9.28875 4.06125 9.5775 3.0625 9.875 C-0.10664203 10.64214682 -0.10664203 10.64214682 -1 13 C-1.14375422 16.37822416 -1.07536348 18.77390955 0 22 C1.051875 22.12375 2.10375 22.2475 3.1875 22.375 C6.45958771 22.91140782 9.00536076 23.63880035 12 25 C11.01 27.475 11.01 27.475 10 30 C10.88353149 29.90912109 10.88353149 29.90912109 11.78491211 29.81640625 C14.50198983 29.5396151 17.21971686 29.26977324 19.9375 29 C20.86369141 28.90460938 21.78988281 28.80921875 22.74414062 28.7109375 C28.52911107 28.14258953 34.18730276 27.90461215 40 28 C39.67 28.66 39.34 29.32 39 30 C36.35139573 30.59355614 33.70802678 30.74209269 31 31 C31 31.66 31 32.32 31 33 C45.19 33 59.38 33 74 33 C73.67 32.34 73.34 31.68 73 31 C71.845 30.835 70.69 30.67 69.5 30.5 C68.345 30.335 67.19 30.17 66 30 C65.505 29.01 65.505 29.01 65 28 C70.45769811 27.88861841 75.61509359 28.08342019 81 29 C81 31.64 81 34.28 81 37 C73.71409984 37.04682155 66.42823335 37.08211748 59.14221191 37.10362434 C55.75718789 37.11395864 52.37226851 37.12792229 48.98730469 37.15087891 C9.17267069 37.4010078 9.17267069 37.4010078 2 32 C1.6875 29.3125 1.6875 29.3125 2 27 C1.071875 27 0.14375 27 -0.8125 27 C-2.875 27 -4.9375 27 -7 27 C-10 23.66666667 -10 23.66666667 -10 21 C-9.34 20.67 -8.68 20.34 -8 20 C-7.34227572 16.97065509 -7.34227572 16.97065509 -7 14 C-8.32 13.67 -9.64 13.34 -11 13 C-10.1875 10.0625 -10.1875 10.0625 -9 7 C-6.3260876 6.10869587 -3.76276177 5.52268466 -1 5 C-0.67 3.35 -0.34 1.7 0 0 Z " fill="#EAEBF2" transform="translate(20,88)"/>
<path d="M0 0 C1.03472443 0.00141495 2.06944885 0.0028299 3.13552856 0.00428772 C6.42631982 0.00986586 9.71704196 0.02241437 13.0078125 0.03515625 C15.24479068 0.04017407 17.48176993 0.04473649 19.71875 0.04882812 C25.19012758 0.05982813 30.6614651 0.07654448 36.1328125 0.09765625 C35.8028125 0.75765625 35.4728125 1.41765625 35.1328125 2.09765625 C32.1628125 2.09765625 29.1928125 2.09765625 26.1328125 2.09765625 C26.1328125 4.40765625 26.1328125 6.71765625 26.1328125 9.09765625 C26.9165625 9.03578125 27.7003125 8.97390625 28.5078125 8.91015625 C29.3740625 8.97203125 30.2403125 9.03390625 31.1328125 9.09765625 C31.7928125 10.08765625 32.4528125 11.07765625 33.1328125 12.09765625 C33.7928125 12.75765625 34.4528125 13.41765625 35.1328125 14.09765625 C34.4728125 14.42765625 33.8128125 14.75765625 33.1328125 15.09765625 C37.0928125 15.42765625 41.0528125 15.75765625 45.1328125 16.09765625 C45.1328125 17.74765625 45.1328125 19.39765625 45.1328125 21.09765625 C31.6028125 21.09765625 18.0728125 21.09765625 4.1328125 21.09765625 C3.8028125 16.14765625 3.4728125 11.19765625 3.1328125 6.09765625 C-3.7971875 5.76765625 -10.7271875 5.43765625 -17.8671875 5.09765625 C-17.5371875 3.77765625 -17.2071875 2.45765625 -16.8671875 1.09765625 C-11.2335212 -0.10126095 -5.72839011 -0.02965185 0 0 Z " fill="#6C72FE" transform="translate(55.8671875,80.90234375)"/>
<path d="M0 0 C1.37091797 0.0009668 1.37091797 0.0009668 2.76953125 0.00195312 C9.48435163 0.04685163 9.48435163 0.04685163 10.625 1.1875 C13.43476518 1.34767166 16.22273596 1.44700534 19.03515625 1.50390625 C19.87719101 1.52468735 20.71922577 1.54546844 21.58677673 1.56687927 C24.28693179 1.63246812 26.98718717 1.69130276 29.6875 1.75 C31.51368241 1.79317637 33.33985454 1.83679036 35.16601562 1.88085938 C39.65223992 1.98815894 44.1385655 2.08939966 48.625 2.1875 C48.625 2.5175 48.625 2.8475 48.625 3.1875 C35.755 3.1875 22.885 3.1875 9.625 3.1875 C9.955 4.5075 10.285 5.8275 10.625 7.1875 C20.855 7.5175 31.085 7.8475 41.625 8.1875 C41.625 8.5175 41.625 8.8475 41.625 9.1875 C31.065 9.1875 20.505 9.1875 9.625 9.1875 C9.955 10.5075 10.285 11.8275 10.625 13.1875 C16.565 13.1875 22.505 13.1875 28.625 13.1875 C28.625 13.8475 28.625 14.5075 28.625 15.1875 C25.655 15.1875 22.685 15.1875 19.625 15.1875 C19.625 15.8475 19.625 16.5075 19.625 17.1875 C18.635 17.1875 17.645 17.1875 16.625 17.1875 C16.625 16.5275 16.625 15.8675 16.625 15.1875 C14.315 15.1875 12.005 15.1875 9.625 15.1875 C9.625 17.1675 9.625 19.1475 9.625 21.1875 C0.715 21.1875 -8.195 21.1875 -17.375 21.1875 C-17.375 20.8575 -17.375 20.5275 -17.375 20.1875 C-15.725 19.8575 -14.075 19.5275 -12.375 19.1875 C-12.045 17.8675 -11.715 16.5475 -11.375 15.1875 C-13.355 15.1875 -15.335 15.1875 -17.375 15.1875 C-17.375 14.8575 -17.375 14.5275 -17.375 14.1875 C-15.725 13.8575 -14.075 13.5275 -12.375 13.1875 C-12.045 11.8675 -11.715 10.5475 -11.375 9.1875 C-13.355 9.1875 -15.335 9.1875 -17.375 9.1875 C-17.375 8.8575 -17.375 8.5275 -17.375 8.1875 C-15.725 7.8575 -14.075 7.5275 -12.375 7.1875 C-12.045 5.8675 -11.715 4.5475 -11.375 3.1875 C-13.355 3.1875 -15.335 3.1875 -17.375 3.1875 C-17.375 2.8575 -17.375 2.5275 -17.375 2.1875 C-11.48560037 0.14637931 -6.2030285 -0.08528042 0 0 Z " fill="#9DE4DF" transform="translate(24.375,31.8125)"/>
<path d="M0 0 C1.12019531 -0.00128906 2.24039063 -0.00257812 3.39453125 -0.00390625 C4.57402344 -0.00003906 5.75351562 0.00382812 6.96875 0.0078125 C8.73798828 0.00201172 8.73798828 0.00201172 10.54296875 -0.00390625 C12.22326172 -0.00197266 12.22326172 -0.00197266 13.9375 0 C14.97326172 0.00112793 16.00902344 0.00225586 17.07617188 0.00341797 C19.46875 0.1328125 19.46875 0.1328125 20.46875 1.1328125 C20.56861975 3.97616298 20.60752881 6.78978413 20.59375 9.6328125 C20.59955078 10.82970703 20.59955078 10.82970703 20.60546875 12.05078125 C20.59535767 18.00620483 20.59535767 18.00620483 19.46875 19.1328125 C17.62715977 19.23240871 15.78178033 19.26361661 13.9375 19.265625 C12.81730469 19.26691406 11.69710937 19.26820312 10.54296875 19.26953125 C9.36347656 19.26566406 8.18398438 19.26179688 6.96875 19.2578125 C5.19951172 19.26361328 5.19951172 19.26361328 3.39453125 19.26953125 C1.71423828 19.26759766 1.71423828 19.26759766 0 19.265625 C-1.03576172 19.26449707 -2.07152344 19.26336914 -3.13867188 19.26220703 C-5.53125 19.1328125 -5.53125 19.1328125 -6.53125 18.1328125 C-6.63111975 15.28946202 -6.67002881 12.47584087 -6.65625 9.6328125 C-6.66011719 8.83488281 -6.66398437 8.03695312 -6.66796875 7.21484375 C-6.65573175 0.007248 -6.65573175 0.007248 0 0 Z " fill="#35DAC3" transform="translate(39.53125,85.8671875)"/>
<path d="M0 0 C1.98 0 3.96 0 6 0 C6.33 0.66 6.66 1.32 7 2 C15.25 2 23.5 2 32 2 C32.33 1.34 32.66 0.68 33 0 C39.27 0 45.54 0 52 0 C51.34 2.31 50.68 4.62 50 7 C50 7.99 50 8.98 50 10 C47.07914607 11.94723595 45.40667322 12.55175352 42 13 C41.505 12.505 41.505 12.505 41 12 C38.72903522 11.92415581 36.455732 11.91697764 34.18359375 11.9375 C33.49370865 11.94128662 32.80382355 11.94507324 32.09303284 11.94897461 C29.13543439 11.96531482 26.177973 11.99315056 23.22045898 12.02050781 C21.06234395 12.03878266 18.9042528 12.05076825 16.74609375 12.0625 C15.45372803 12.07410156 14.1613623 12.08570312 12.82983398 12.09765625 C1.81683784 11.81683784 1.81683784 11.81683784 0 10 C-0.07205511 8.31391034 -0.08386068 6.62499341 -0.0625 4.9375 C-0.05347656 4.01839844 -0.04445313 3.09929687 -0.03515625 2.15234375 C-0.02355469 1.44207031 -0.01195313 0.73179688 0 0 Z " fill="#BAD5FE" transform="translate(27,102)"/>
<path d="M0 0 C9.06941681 -0.12237594 17.96444261 0.19683934 27 1 C27 7.93 27 14.86 27 22 C20.07 22 13.14 22 6 22 C6 15.4 6 8.8 6 2 C3.03 1.505 3.03 1.505 0 1 C0 0.67 0 0.34 0 0 Z " fill="#31C6DE" transform="translate(7,58)"/>
<path d="M0 0 C1.32 0 2.64 0 4 0 C4 6.6 4 13.2 4 20 C6.31 20 8.62 20 11 20 C13.0417918 22.0417918 12.27587083 26.02135762 12.3125 28.8125 C12.34150391 29.53759766 12.37050781 30.26269531 12.40039062 31.00976562 C12.44428418 34.70020035 12.32911559 36.59067442 9.98046875 39.51171875 C9.32691406 40.00285156 8.67335938 40.49398437 8 41 C8 38.36 8 35.72 8 33 C1.07 33 -5.86 33 -13 33 C-14.125 22.25 -14.125 22.25 -13 20 C-8.71 20 -4.42 20 0 20 C0 13.4 0 6.8 0 0 Z " fill="#5E4AFB" transform="translate(115,63)"/>
<path d="M0 0 C1.6875 0.875 1.6875 0.875 2.6875 3.875 C4.9975 4.205 7.3075 4.535 9.6875 4.875 C10.3475 3.555 11.0075 2.235 11.6875 0.875 C14.6594385 1.99951727 17.02190687 3.09793791 19.6875 4.875 C19.336875 5.803125 18.98625 6.73125 18.625 7.6875 C17.36367372 10.8552953 17.36367372 10.8552953 18.6875 13.875 C12.6328125 14.0703125 12.6328125 14.0703125 10.6875 13.875 C10.0275 13.215 9.3675 12.555 8.6875 11.875 C3.14514755 11.30265564 3.14514755 11.30265564 -1.8125 13.375 C-4.02427972 17.06129954 -3.65671275 19.60676192 -3.3125 23.875 C-2.9825 24.535 -2.6525 25.195 -2.3125 25.875 C-4.9525 25.875 -7.5925 25.875 -10.3125 25.875 C-10.3125 24.885 -10.3125 23.895 -10.3125 22.875 C-12.2925 22.875 -14.2725 22.875 -16.3125 22.875 C-15.9825 19.575 -15.6525 16.275 -15.3125 12.875 C-12.3425 13.37 -12.3425 13.37 -9.3125 13.875 C-7.32887931 10.95791076 -7.3248809 9.75119096 -7.6875 6.125 C-7.89375 5.0525 -8.1 3.98 -8.3125 2.875 C-2.96995311 -0.16053801 -2.96995311 -0.16053801 0 0 Z " fill="#E9EBF1" transform="translate(98.3125,19.125)"/>
<path d="M0 0 C1.58206422 0.00574487 3.16410406 0.01876032 4.74609375 0.03515625 C7.53046875 0.05578125 10.31484375 0.07640625 13.18359375 0.09765625 C13.18359375 6.03765625 13.18359375 11.97765625 13.18359375 18.09765625 C10.39921875 18.11828125 7.61484375 18.13890625 4.74609375 18.16015625 C3.86767822 18.16926025 2.9892627 18.17836426 2.08422852 18.18774414 C0.11713401 18.19488716 -1.84994246 18.14797518 -3.81640625 18.09765625 C-5.63756628 16.27649622 -4.94875705 13.79093861 -4.953125 11.37109375 C-4.94925781 10.62085937 -4.94539063 9.870625 -4.94140625 9.09765625 C-4.94527344 8.34742187 -4.94914062 7.5971875 -4.953125 6.82421875 C-4.94103514 0.12643386 -4.94103514 0.12643386 0 0 Z " fill="#CCF0F4" transform="translate(109.81640625,95.90234375)"/>
<path d="M0 0 C0.66 0 1.32 0 2 0 C2 7.92 2 15.84 2 24 C-6.25 24 -14.5 24 -23 24 C-23.125 11.375 -23.125 11.375 -22 8 C-21.34 8 -20.68 8 -20 8 C-19.67 9.65 -19.34 11.3 -19 13 C-13.39 13.33 -7.78 13.66 -2 14 C-2.04125 12.4325 -2.0825 10.865 -2.125 9.25 C-2.22266247 5.53882603 -1.90608098 3.21182149 0 0 Z " fill="#7183FE" transform="translate(125,100)"/>
<path d="M0 0 C0.33 0 0.66 0 1 0 C1 3.3 1 6.6 1 10 C1.99 9.67 2.98 9.34 4 9 C5.36421031 11.72842061 4.87807211 13.60953318 4.5625 16.625 C4.46066406 17.62789062 4.35882813 18.63078125 4.25390625 19.6640625 C4.17011719 20.43492188 4.08632812 21.20578125 4 22 C3.34 22 2.68 22 2 22 C1.67 27.28 1.34 32.56 1 38 C9.25 38 17.5 38 26 38 C26 38.66 26 39.32 26 40 C28.31 40.66 30.62 41.32 33 42 C32 44 32 44 30.34521484 44.61450195 C25.49200924 45.41225457 20.54404055 45.18590312 15.63769531 45.18530273 C13.63863013 45.18748512 11.63960468 45.20599143 9.640625 45.22460938 C8.36960937 45.22654297 7.09859375 45.22847656 5.7890625 45.23046875 C4.63100098 45.23457764 3.47293945 45.23868652 2.27978516 45.24291992 C-1.11310954 44.99162245 -3.83332989 44.21173908 -7 43 C-6 41 -6 41 0 39 C0 26.13 0 13.26 0 0 Z " fill="#5E52E9" transform="translate(101,86)"/>
<path d="M0 0 C2.625 0.25 2.625 0.25 4.4375 1.625 C5.625 3.25 5.625 3.25 5.625 5.25 C7.275 5.25 8.925 5.25 10.625 5.25 C11.285 6.57 11.945 7.89 12.625 9.25 C11.965 9.25 11.305 9.25 10.625 9.25 C10.295 11.56 9.965 13.87 9.625 16.25 C8.635 16.25 7.645 16.25 6.625 16.25 C5.965 17.24 5.305 18.23 4.625 19.25 C1 19.9375 1 19.9375 -2.375 20.25 C-3.365 18.93 -4.355 17.61 -5.375 16.25 C-4.715 16.25 -4.055 16.25 -3.375 16.25 C-3.375 13.94 -3.375 11.63 -3.375 9.25 C-3.86484375 9.57742187 -4.3546875 9.90484375 -4.859375 10.2421875 C-8.41769563 11.66772589 -11.85703011 11.46154348 -15.625 11.375 C-16.37007813 11.36597656 -17.11515625 11.35695313 -17.8828125 11.34765625 C-19.71368059 11.32418358 -21.54438238 11.28831525 -23.375 11.25 C-23.375 10.59 -23.375 9.93 -23.375 9.25 C-22.34375 9.3325 -21.3125 9.415 -20.25 9.5 C-15.72857812 9.20829536 -14.0256402 7.78957579 -10.375 5.25 C-7.5 5 -7.5 5 -5.375 5.25 C-5.065625 4.610625 -4.75625 3.97125 -4.4375 3.3125 C-2.88764755 0.3039629 -2.88764755 0.3039629 0 0 Z " fill="#39D6CE" transform="translate(121.375,37.75)"/>
<path d="M0 0 C5.61 0 11.22 0 17 0 C17 5.61 17 11.22 17 17 C11.39 17 5.78 17 0 17 C0 11.33333333 0 5.66666667 0 0 Z " fill="#3D4D9A" transform="translate(15,34)"/>
<path d="M0 0 C2.31 0 4.62 0 7 0 C7.14541967 4.22880411 7.23411527 8.45696413 7.3125 12.6875 C7.3753418 14.48477539 7.3753418 14.48477539 7.43945312 16.31835938 C7.5608921 25.03767802 7.5608921 25.03767802 5.86474609 27.94775391 C4.48046875 29.33203125 4.48046875 29.33203125 2 31 C0.41596476 29.41596476 0.78025065 27.7228362 0.68359375 25.52734375 C0.64169922 24.62822266 0.59980469 23.72910156 0.55664062 22.80273438 C0.51732422 21.85720703 0.47800781 20.91167969 0.4375 19.9375 C0.39431641 18.98810547 0.35113281 18.03871094 0.30664062 17.06054688 C0.20020724 14.70718647 0.09818992 12.35371646 0 10 C-2.64 10 -5.28 10 -8 10 C-8 8.02 -8 6.04 -8 4 C-5.36 4 -2.72 4 0 4 C0 2.68 0 1.36 0 0 Z " fill="#5A38FF" transform="translate(34,49)"/>
<path d="M0 0 C0.99 0 1.98 0 3 0 C3 3.66666667 3 7.33333333 3 11 C3.33 12.65 3.66 14.3 4 16 C-0.62 16 -5.24 16 -10 16 C-10 13.03 -10 10.06 -10 7 C-12.31 7 -14.62 7 -17 7 C-17 5.35 -17 3.7 -17 2 C-15.85660156 1.93941406 -14.71320313 1.87882812 -13.53515625 1.81640625 C-12.04425695 1.73201572 -10.55337225 1.64736698 -9.0625 1.5625 C-8.30775391 1.52318359 -7.55300781 1.48386719 -6.77539062 1.44335938 C-3.08055813 1.55961976 -3.08055813 1.55961976 0 0 Z " fill="#39C6D7" transform="translate(115,47)"/>
<path d="M0 0 C13.53 0 27.06 0 41 0 C41 1.65 41 3.3 41 5 C27.47 5 13.94 5 0 5 C0 3.35 0 1.7 0 0 Z " fill="#3C3D89" transform="translate(60,97)"/>
<path d="M0 0 C0.99 0.66 1.98 1.32 3 2 C2.67 4.64 2.34 7.28 2 10 C2.66 10 3.32 10 4 10 C3.67 11.65 3.34 13.3 3 15 C1.35 15.33 -0.3 15.66 -2 16 C-2.33 17.32 -2.66 18.64 -3 20 C-4.98 20 -6.96 20 -9 20 C-9 19.01 -9 18.02 -9 17 C-11.31 17 -13.62 17 -16 17 C-16.66 15.68 -17.32 14.36 -18 13 C-17.01 12.67 -16.02 12.34 -15 12 C-15.7425 10.8553125 -15.7425 10.8553125 -16.5 9.6875 C-18 7 -18 7 -18 4 C-15.36 4 -12.72 4 -10 4 C-10.20625 5.11375 -10.4125 6.2275 -10.625 7.375 C-10.810625 9.169375 -10.810625 9.169375 -11 11 C-9.10244856 13.34973818 -9.10244856 13.34973818 -5.875 13.125 C-4.451875 13.063125 -4.451875 13.063125 -3 13 C-2.70437633 7.67829506 -2.70437633 7.67829506 -5 3 C-3 1 -3 1 0 0 Z " fill="#E9EBF2" transform="translate(139,59)"/>
<path d="M0 0 C0.99 0 1.98 0 3 0 C3 9.57 3 19.14 3 29 C11.25 29 19.5 29 28 29 C28 29.33 28 29.66 28 30 C41.365 30.495 41.365 30.495 55 31 C55 31.33 55 31.66 55 32 C47.48863592 32.05057965 39.97731551 32.08568257 32.46582031 32.10986328 C29.90883747 32.11994038 27.35186621 32.13360226 24.79492188 32.15087891 C21.12627308 32.17505217 17.45777621 32.18646585 13.7890625 32.1953125 C12.0655809 32.21079636 12.0655809 32.21079636 10.30728149 32.22659302 C9.2463327 32.22674408 8.18538391 32.22689514 7.09228516 32.22705078 C6.15518707 32.231492 5.21808899 32.23593323 4.25259399 32.24050903 C2 32 2 32 0 30 C-0.22705078 27.01904297 -0.22705078 27.01904297 -0.1953125 23.2421875 C-0.1924826 22.57913605 -0.18965271 21.91608459 -0.18673706 21.23294067 C-0.17553435 19.11344417 -0.15043051 16.99436896 -0.125 14.875 C-0.11497028 13.43880818 -0.10584441 12.00260975 -0.09765625 10.56640625 C-0.075595 7.04413372 -0.04106494 3.52210797 0 0 Z " fill="#42AAE3" transform="translate(41,49)"/>
<path d="M0 0 C2.64 0 5.28 0 8 0 C8 6.93 8 13.86 8 21 C1.07 21 -5.86 21 -13 21 C-13 20.01 -13 19.02 -13 18 C-11.35 18 -9.7 18 -8 18 C-7.67 17.34 -7.34 16.68 -7 16 C-6.67 16.33 -6.34 16.66 -6 17 C-4.33382885 17.04063832 -2.66611905 17.042721 -1 17 C-1 16.34 -1 15.68 -1 15 C0.32 14.67 1.64 14.34 3 14 C3 11.69 3 9.38 3 7 C2.01 6.67 1.02 6.34 0 6 C0 4.02 0 2.04 0 0 Z " fill="#3AD2CF" transform="translate(26,59)"/>
<path d="M0 0 C6.75 -0.125 6.75 -0.125 9 1 C11.09821215 0.60061233 11.09821215 0.60061233 13 0 C13.33 0.99 13.66 1.98 14 3 C13.67 3.66 13.34 4.32 13 5 C13.60585937 4.98839844 14.21171875 4.97679688 14.8359375 4.96484375 C20.95924948 4.89890039 26.92093331 5.27568567 33 6 C33 6.66 33 7.32 33 8 C18.81 8 4.62 8 -10 8 C-10 7.34 -10 6.68 -10 6 C-8.72125 5.7525 -7.4425 5.505 -6.125 5.25 C-2.73252682 4.48009414 -2.73252682 4.48009414 -0.5 1.875 C-0.335 1.25625 -0.17 0.6375 0 0 Z " fill="#9FC3FE" transform="translate(61,113)"/>
<path d="M0 0 C1.98 0 3.96 0 6 0 C6.33 0.66 6.66 1.32 7 2 C10.27555608 2.47001033 10.27555608 2.47001033 14.0625 2.625 C15.99802734 2.73714844 15.99802734 2.73714844 17.97265625 2.8515625 C19.47119141 2.92503906 19.47119141 2.92503906 21 3 C21.33 3.99 21.66 4.98 22 6 C21.01 7.485 21.01 7.485 20 9 C19.01 8.67 18.02 8.34 17 8 C17 8.99 17 9.98 17 11 C11.32146663 11.91262143 6.67405866 11.99544889 1 11 C0 10 0 10 -0.09765625 7.71484375 C-0.08605469 6.79832031 -0.07445313 5.88179688 -0.0625 4.9375 C-0.05347656 4.01839844 -0.04445313 3.09929687 -0.03515625 2.15234375 C-0.02355469 1.44207031 -0.01195313 0.73179688 0 0 Z " fill="#C5DBFE" transform="translate(27,102)"/>
<path d="M0 0 C2.31 0 4.62 0 7 0 C7 2.97 7 5.94 7 9 C10.3 9 13.6 9 17 9 C17 12.3 17 15.6 17 19 C16.34 19.33 15.68 19.66 15 20 C14.01 19.67 13.02 19.34 12 19 C12 18.34 12 17.68 12 17 C10.35 16.67 8.7 16.34 7 16 C7 15.67 7 15.34 7 15 C9.31 15 11.62 15 14 15 C14 14.34 14 13.68 14 13 C12.20739868 13.05995322 10.41574205 13.1487241 8.625 13.25 C7.62726563 13.29640625 6.62953125 13.3428125 5.6015625 13.390625 C2.8473523 13.72160885 2.8473523 13.72160885 1.6484375 16.046875 C1.43445313 16.69140625 1.22046875 17.3359375 1 18 C0.67 18 0.34 18 0 18 C0 12.06 0 6.12 0 0 Z " fill="#6C75FE" transform="translate(98,54)"/>
<path d="M0 0 C1.32 0 2.64 0 4 0 C4 6.6 4 13.2 4 20 C6.31 20 8.62 20 11 20 C11.33 20.99 11.66 21.98 12 23 C3.19039858 24.30512614 -5.19039858 24.30512614 -14 23 C-13.505 21.515 -13.505 21.515 -13 20 C-8.71 20 -4.42 20 0 20 C0 13.4 0 6.8 0 0 Z " fill="#4C4CA1" transform="translate(115,63)"/>
<path d="M0 0 C4.3172224 0.02810692 7.80092503 0.45276488 11.8125 2.1875 C11.8125 3.1775 11.8125 4.1675 11.8125 5.1875 C11.02875 5.455625 10.245 5.72375 9.4375 6 C6.53135077 7.03564432 6.53135077 7.03564432 4.8125 10.1875 C2 11.25 2 11.25 -1.1875 12.1875 C-2.85863192 12.84289327 -4.5261373 13.50772341 -6.1875 14.1875 C-6.21435938 12.04173363 -6.23383088 9.89587355 -6.25 7.75 C-6.26160156 6.55503906 -6.27320312 5.36007813 -6.28515625 4.12890625 C-6.12363485 -0.73611845 -4.39190354 0.02963498 0 0 Z " fill="#70D5E4" transform="translate(111.1875,32.8125)"/>
<path d="M0 0 C1.31871094 -0.01224609 2.63742188 -0.02449219 3.99609375 -0.03710938 C5.90068359 -0.04000977 5.90068359 -0.04000977 7.84375 -0.04296875 C9.00068359 -0.04707764 10.15761719 -0.05118652 11.34960938 -0.05541992 C14.47736509 0.18575467 16.680892 0.85423629 19.5 2.1875 C18.5 4.1875 18.5 4.1875 16.84521484 4.80200195 C11.99200924 5.59975457 7.04404055 5.37340312 2.13769531 5.37280273 C0.13863013 5.37498512 -1.86039532 5.39349143 -3.859375 5.41210938 C-5.13039063 5.41404297 -6.40140625 5.41597656 -7.7109375 5.41796875 C-8.86899902 5.42207764 -10.02706055 5.42618652 -11.22021484 5.43041992 C-14.61310954 5.17912245 -17.33332989 4.39923908 -20.5 3.1875 C-20.17 2.5275 -19.84 1.8675 -19.5 1.1875 C-13.23640183 -0.60566158 -6.45139424 0.00315317 0 0 Z " fill="#EAEBF2" transform="translate(114.5,125.8125)"/>
<path d="M0 0 C1.58206422 0.00574487 3.16410406 0.01876032 4.74609375 0.03515625 C7.53046875 0.05578125 10.31484375 0.07640625 13.18359375 0.09765625 C13.18359375 6.03765625 13.18359375 11.97765625 13.18359375 18.09765625 C10.39921875 18.11828125 7.61484375 18.13890625 4.74609375 18.16015625 C3.86767822 18.16926025 2.9892627 18.17836426 2.08422852 18.18774414 C0.11713401 18.19488716 -1.84994246 18.14797518 -3.81640625 18.09765625 C-5.63756628 16.27649622 -4.94875705 13.79093861 -4.953125 11.37109375 C-4.94925781 10.62085937 -4.94539063 9.870625 -4.94140625 9.09765625 C-4.94527344 8.34742187 -4.94914062 7.5971875 -4.953125 6.82421875 C-4.94103514 0.12643386 -4.94103514 0.12643386 0 0 Z M-1.25390625 3.72265625 C-3.31432396 6.85449117 -3.49316075 8.41310398 -2.81640625 12.09765625 C-0.83674362 15.16073256 -0.83674362 15.16073256 2.18359375 17.09765625 C5.84801291 17.17244031 7.5827426 16.52457681 10.55859375 14.41015625 C12.69777126 11.3659421 12.79176421 9.74667903 12.18359375 6.09765625 C10.74698064 3.57758781 10.74698064 3.57758781 8.18359375 2.09765625 C4.20871758 1.5298168 2.11870154 1.47425106 -1.25390625 3.72265625 Z " fill="#46C6EA" transform="translate(109.81640625,95.90234375)"/>
<path d="M0 0 C1.58206057 0.00667536 3.16410534 0.0186375 4.74609375 0.03515625 C5.55240234 0.03966797 6.35871094 0.04417969 7.18945312 0.04882812 C9.18753131 0.06065107 11.18557158 0.07858711 13.18359375 0.09765625 C5.68359375 5.09765625 5.68359375 5.09765625 3.18359375 5.09765625 C3.18359375 5.75765625 3.18359375 6.41765625 3.18359375 7.09765625 C1.68359375 8.72265625 1.68359375 8.72265625 0.18359375 10.09765625 C1.00859375 10.71640625 1.83359375 11.33515625 2.68359375 11.97265625 C3.50859375 12.67390625 4.33359375 13.37515625 5.18359375 14.09765625 C5.18359375 14.75765625 5.18359375 15.41765625 5.18359375 16.09765625 C1.88359375 16.09765625 -1.41640625 16.09765625 -4.81640625 16.09765625 C-4.8432572 13.61841824 -4.86317172 11.13946785 -4.87890625 8.66015625 C-4.89147461 7.59958008 -4.89147461 7.59958008 -4.90429688 6.51757812 C-4.91294213 4.71072066 -4.86860636 2.90378022 -4.81640625 1.09765625 C-3.81640625 0.09765625 -3.81640625 0.09765625 0 0 Z " fill="#41A8E5" transform="translate(37.81640625,85.90234375)"/>
<path d="M0 0 C0 2.31 0 4.62 0 7 C0.78375 6.938125 1.5675 6.87625 2.375 6.8125 C3.674375 6.9053125 3.674375 6.9053125 5 7 C5.99 8.485 5.99 8.485 7 10 C7.66 10.66 8.32 11.32 9 12 C7 14 7 14 4.93701172 14.22705078 C3.69588623 14.21134033 3.69588623 14.21134033 2.4296875 14.1953125 C1.53378906 14.18886719 0.63789062 14.18242188 -0.28515625 14.17578125 C-1.22230469 14.15902344 -2.15945312 14.14226562 -3.125 14.125 C-4.06988281 14.11597656 -5.01476562 14.10695313 -5.98828125 14.09765625 C-8.32577292 14.07404522 -10.66276123 14.04111516 -13 14 C-12.34 13.67 -11.68 13.34 -11 13 C-10.34444881 10.47266765 -10.34444881 10.47266765 -10 8 C-9.34 8 -8.68 8 -8 8 C-8 7.34 -8 6.68 -8 6 C-6.68 6.33 -5.36 6.66 -4 7 C-3.87625 6.030625 -3.7525 5.06125 -3.625 4.0625 C-3.41875 3.051875 -3.2125 2.04125 -3 1 C-1 0 -1 0 0 0 Z " fill="#707EFE" transform="translate(82,83)"/>
<path d="M0 0 C0.92683594 0.00451172 1.85367188 0.00902344 2.80859375 0.01367188 C5.08079709 0.02538426 7.35286388 0.04178628 9.625 0.0625 C9.3702486 1.37821603 9.09565859 2.69010376 8.8125 4 C8.66167969 4.73089844 8.51085937 5.46179688 8.35546875 6.21484375 C8.11441406 6.82457031 7.87335937 7.43429688 7.625 8.0625 C6.635 8.3925 5.645 8.7225 4.625 9.0625 C4.295 8.0725 3.965 7.0825 3.625 6.0625 C-3.305 5.7325 -10.235 5.4025 -17.375 5.0625 C-17.045 3.7425 -16.715 2.4225 -16.375 1.0625 C-10.89230931 -0.09414737 -5.57160726 -0.05166255 0 0 Z " fill="#655DFF" transform="translate(55.375,80.9375)"/>
<path d="M0 0 C0.66 0.33 1.32 0.66 2 1 C2 1.99 2 2.98 2 4 C4.43750025 6.68767578 4.43750025 6.68767578 7 9 C6.67 9.66 6.34 10.32 6 11 C5.34 11 4.68 11 4 11 C4 11.66 4 12.32 4 13 C3.34 13 2.68 13 2 13 C2 12.01 2 11.02 2 10 C1.01 10 0.02 10 -1 10 C-1.33 11.32 -1.66 12.64 -2 14 C-6.35535069 12.83857315 -8.64619703 11.92300495 -11 8 C-9.68 7.34 -8.36 6.68 -7 6 C-7 5.34 -7 4.68 -7 4 C-1.7265625 0.77734375 -1.7265625 0.77734375 0 0 Z " fill="#48B8DE" transform="translate(48,87)"/>
<path d="M0 0 C2.81256281 -0.02684312 5.62487241 -0.04676188 8.4375 -0.0625 C9.23994141 -0.07087891 10.04238281 -0.07925781 10.86914062 -0.08789062 C12.91295221 -0.0965143 14.95683902 -0.0522815 17 0 C18 1 18 1 18.09765625 3.50390625 C18.08605469 4.51324219 18.07445312 5.52257813 18.0625 6.5625 C18.05347656 7.57441406 18.04445312 8.58632813 18.03515625 9.62890625 C18.02355469 10.41136719 18.01195312 11.19382812 18 12 C10.67368421 10.65684211 10.67368421 10.65684211 7.5 7.5625 C6 5 6 5 6 2 C4.35 2 2.7 2 1 2 C0.67 1.34 0.34 0.68 0 0 Z " fill="#33D3D1" transform="translate(117,33)"/>
<path d="M0 0 C0.99 0 1.98 0 3 0 C3 0.66 3 1.32 3 2 C4.65 2.33 6.3 2.66 8 3 C8 5.31 8 7.62 8 10 C6.35 10.33 4.7 10.66 3 11 C3 11.66 3 12.32 3 13 C2.01 13 1.02 13 0 13 C0 12.34 0 11.68 0 11 C-1.65 10.67 -3.3 10.34 -5 10 C-5 7.69 -5 5.38 -5 3 C-3.35 2.67 -1.7 2.34 0 2 C0 1.34 0 0.68 0 0 Z " fill="#EEF8FB" transform="translate(22,63)"/>
<path d="M0 0 C2.625 0.25 2.625 0.25 4.4375 1.625 C5.625 3.25 5.625 3.25 5.625 5.25 C7.275 5.25 8.925 5.25 10.625 5.25 C10.955 6.24 11.285 7.23 11.625 8.25 C4.365 8.25 -2.895 8.25 -10.375 8.25 C-10.375 7.26 -10.375 6.27 -10.375 5.25 C-8.725 5.25 -7.075 5.25 -5.375 5.25 C-5.065625 4.610625 -4.75625 3.97125 -4.4375 3.3125 C-2.88764755 0.3039629 -2.88764755 0.3039629 0 0 Z " fill="#FAFDFE" transform="translate(121.375,37.75)"/>
<path d="M0 0 C0.66 0 1.32 0 2 0 C2.33 1.65 2.66 3.3 3 5 C6.63 5.33 10.26 5.66 14 6 C13.01 6.495 13.01 6.495 12 7 C12 7.66 12 8.32 12 9 C11.34 9 10.68 9 10 9 C9.67 9.66 9.34 10.32 9 11 C8.01 11 7.02 11 6 11 C6.33 11.99 6.66 12.98 7 14 C6.01 14 5.02 14 4 14 C3.67 14.66 3.34 15.32 3 16 C1.68 16 0.36 16 -1 16 C-1.02701408 13.89590361 -1.04640223 11.79170822 -1.0625 9.6875 C-1.07410156 8.51574219 -1.08570312 7.34398438 -1.09765625 6.13671875 C-1 3 -1 3 0 0 Z " fill="#6C73FE" transform="translate(103,108)"/>
<path d="M0 0 C0.99 0 1.98 0 3 0 C3 2.31 3 4.62 3 7 C-3.6 7 -10.2 7 -17 7 C-17 5.35 -17 3.7 -17 2 C-15.85660156 1.93941406 -14.71320313 1.87882812 -13.53515625 1.81640625 C-12.04425695 1.73201572 -10.55337225 1.64736698 -9.0625 1.5625 C-8.30775391 1.52318359 -7.55300781 1.48386719 -6.77539062 1.44335938 C-3.08055813 1.55961976 -3.08055813 1.55961976 0 0 Z " fill="#34ABC5" transform="translate(115,47)"/>
<path d="M0 0 C1.32 0 2.64 0 4 0 C4 5.61 4 11.22 4 17 C4.99 17 5.98 17 7 17 C7 18.65 7 20.3 7 22 C4.69 22 2.38 22 0 22 C0 14.74 0 7.48 0 0 Z " fill="#42468F" transform="translate(26,80)"/>
<path d="M0 0 C14.52 0 29.04 0 44 0 C44.495 1.98 44.495 1.98 45 4 C44.01 4 43.02 4 42 4 C42 3.34 42 2.68 42 2 C28.14 2 14.28 2 0 2 C0 1.34 0 0.68 0 0 Z " fill="#33D0D5" transform="translate(53,45)"/>
<path d="M0 0 C0.721875 0.00257812 1.44375 0.00515625 2.1875 0.0078125 C2.909375 0.00523438 3.63125 0.00265625 4.375 0 C6.1875 0.1328125 6.1875 0.1328125 7.1875 1.1328125 C7.5 4.5078125 7.5 4.5078125 7.1875 8.1328125 C5.1875 10.0703125 5.1875 10.0703125 3.1875 11.1328125 C0.72471199 9.9014185 -0.23747687 8.35216327 -1.8125 6.1328125 C-2.4725 7.4528125 -3.1325 8.7728125 -3.8125 10.1328125 C-4.82386941 7.40211509 -4.85807718 6.27279957 -3.9375 3.4453125 C-2.34499577 0.17183159 -2.34499577 0.17183159 0 0 Z " fill="#3FBFDA" transform="translate(52.8125,85.8671875)"/>
<path d="M0 0 C5.45454545 0.45454545 5.45454545 0.45454545 8 3 C8.33015665 6.10347254 8.50531294 8.15781176 6.875 10.875 C4.21965017 12.4682099 2.03210482 12.20214032 -1 12 C-1.33 11.01 -1.66 10.02 -2 9 C-0.2984375 8.5978125 -0.2984375 8.5978125 1.4375 8.1875 C2.613125 7.795625 3.78875 7.40375 5 7 C5.33 6.01 5.66 5.02 6 4 C4.35 5.32 2.7 6.64 1 8 C-0.32 7.34 -1.64 6.68 -3 6 C-2.42655063 3.13275314 -2.1385485 2.1385485 0 0 Z " fill="#45CEE5" transform="translate(112,99)"/>
<path d="M0 0 C1.32 0 2.64 0 4 0 C4 6.6 4 13.2 4 20 C2.68 19.67 1.36 19.34 0 19 C0 12.73 0 6.46 0 0 Z " fill="#3E3E8B" transform="translate(115,63)"/>
<path d="M0 0 C1.67542976 0.28604898 3.34385343 0.61781233 5 1 C6.00619398 5.3266341 6.36822864 8.12471677 4 12 C1.4140625 13.140625 1.4140625 13.140625 -1 14 C-1.02685938 11.85423363 -1.04633088 9.70837355 -1.0625 7.5625 C-1.07410156 6.36753906 -1.08570312 5.17257813 -1.09765625 3.94140625 C-1 1 -1 1 0 0 Z " fill="#31C6E0" transform="translate(106,33)"/>
<path d="M0 0 C8.58 0 17.16 0 26 0 C25.67 0.99 25.34 1.98 25 3 C17.08 3 9.16 3 1 3 C0.67 2.01 0.34 1.02 0 0 Z " fill="#4C4CA0" transform="translate(101,124)"/>
<path d="M0 0 C6.48292295 -0.3669579 6.48292295 -0.3669579 8.9375 1.375 C10 3 10 3 10 5 C6.8000997 8.01704885 4.38462134 9.49890042 0 10 C0 6.7 0 3.4 0 0 Z " fill="#5A38FF" transform="translate(102,86)"/>
<path d="M0 0 C2.97 0 5.94 0 9 0 C9 3.3 9 6.6 9 10 C8.01 10.495 8.01 10.495 7 11 C6.01 10.67 5.02 10.34 4 10 C4 9.34 4 8.68 4 8 C2.35 7.67 0.7 7.34 -1 7 C-1 6.67 -1 6.34 -1 6 C1.31 6 3.62 6 6 6 C6 5.34 6 4.68 6 4 C3.69 4 1.38 4 -1 4 C-0.67 2.68 -0.34 1.36 0 0 Z " fill="#7182FE" transform="translate(106,63)"/>
<path d="M0 0 C2.64 0 5.28 0 8 0 C8.49230769 7.38461538 8.49230769 7.38461538 6 10.5 C5.34 10.995 4.68 11.49 4 12 C3 9 3 9 3 7 C2.01 6.67 1.02 6.34 0 6 C0 4.02 0 2.04 0 0 Z " fill="#3CBAD9" transform="translate(26,59)"/>
<path d="M0 0 C0.63019694 10.15317287 0.63019694 10.15317287 -2 13.6875 C-2.66 14.120625 -3.32 14.55375 -4 15 C-4 12.36 -4 9.72 -4 7 C-5.32 6.67 -6.64 6.34 -8 6 C-8 5.34 -8 4.68 -8 4 C-3.64705882 0 -3.64705882 0 0 0 Z " fill="#6761FF" transform="translate(127,89)"/>
<path d="M0 0 C2.31 0 4.62 0 7 0 C7 1.65 7 3.3 7 5 C3.37 5 -0.26 5 -4 5 C-4 6.65 -4 8.3 -4 10 C-5.32 10 -6.64 10 -8 10 C-8 8.02 -8 6.04 -8 4 C-5.36 4 -2.72 4 0 4 C0 2.68 0 1.36 0 0 Z " fill="#3C408C" transform="translate(34,49)"/>
<path d="M0 0 C2.64 0 5.28 0 8 0 C8 0.99 8 1.98 8 3 C2.74285714 7 2.74285714 7 0 7 C0.33 7.99 0.66 8.98 1 10 C-1.97 10 -4.94 10 -8 10 C-8 9.34 -8 8.68 -8 8 C-6.68 8 -5.36 8 -4 8 C-2.36323743 6.0399719 -2.36323743 6.0399719 -1 4 C-0.34 4 0.32 4 1 4 C0.67 2.68 0.34 1.36 0 0 Z " fill="#6356FE" transform="translate(119,86)"/>
<path d="M0 0 C1.24716797 0.00322266 2.49433594 0.00644531 3.77929688 0.00976562 C5.07287109 0.01814453 6.36644531 0.02652344 7.69921875 0.03515625 C9.66858398 0.04192383 9.66858398 0.04192383 11.67773438 0.04882812 C14.91410885 0.06059676 18.15039053 0.07703865 21.38671875 0.09765625 C21.05671875 0.75765625 20.72671875 1.41765625 20.38671875 2.09765625 C19.73074707 2.11747559 19.07477539 2.13729492 18.39892578 2.15771484 C15.43610806 2.25278132 12.47401343 2.36253377 9.51171875 2.47265625 C7.96291016 2.5190625 7.96291016 2.5190625 6.3828125 2.56640625 C4.90361328 2.62441406 4.90361328 2.62441406 3.39453125 2.68359375 C2.4833252 2.71501465 1.57211914 2.74643555 0.63330078 2.77880859 C-1.81259311 2.89648136 -1.81259311 2.89648136 -3.61328125 5.09765625 C-6.34197532 5.06478042 -8.90994305 4.53367854 -11.61328125 4.09765625 C-11.61328125 3.10765625 -11.61328125 2.11765625 -11.61328125 1.09765625 C-7.68039761 0.16677716 -4.03673962 -0.0184326 0 0 Z " fill="#D9D9E8" transform="translate(106.61328125,125.90234375)"/>
<path d="M0 0 C0.66 0 1.32 0 2 0 C2 1.98 2 3.96 2 6 C2.66 4.68 3.32 3.36 4 2 C5.32 3.65 6.64 5.3 8 7 C7.67 7.66 7.34 8.32 7 9 C6.34 9 5.68 9 5 9 C5 9.66 5 10.32 5 11 C4.34 11 3.68 11 3 11 C3 10.01 3 9.02 3 8 C2.01 8 1.02 8 0 8 C-0.33 9.32 -0.66 10.64 -1 12 C-1.66 12 -2.32 12 -3 12 C-2.69106068 10.3743193 -2.3777305 8.74947252 -2.0625 7.125 C-1.88847656 6.22007813 -1.71445312 5.31515625 -1.53515625 4.3828125 C-1 2 -1 2 0 0 Z " fill="#A1E3EB" transform="translate(47,89)"/>
<path d="M0 0 C0.33 0.66 0.66 1.32 1 2 C8.59 1.67 16.18 1.34 24 1 C24 1.66 24 2.32 24 3 C23.14450562 3.03758423 23.14450562 3.03758423 22.27172852 3.07592773 C19.70173843 3.19156549 17.13214473 3.31443624 14.5625 3.4375 C13.66466797 3.47681641 12.76683594 3.51613281 11.84179688 3.55664062 C10.98779297 3.59853516 10.13378906 3.64042969 9.25390625 3.68359375 C8.46314697 3.72025146 7.6723877 3.75690918 6.85766602 3.79467773 C4.98598559 3.80563257 4.98598559 3.80563257 4 5 C1.30345146 5.07319621 -1.36691458 5.09242537 -4.0625 5.0625 C-4.82111328 5.05798828 -5.57972656 5.05347656 -6.36132812 5.04882812 C-8.24091871 5.0370068 -10.12046899 5.01907078 -12 5 C-12 4.34 -12 3.68 -12 3 C-10.948125 3.061875 -9.89625 3.12375 -8.8125 3.1875 C-4.84183507 2.9922214 -3.15803031 2.29674932 0 0 Z " fill="#8DDAE4" transform="translate(110,44)"/>
<path d="M0 0 C2.64 0 5.28 0 8 0 C8 0.99 8 1.98 8 3 C9.98 2.67 11.96 2.34 14 2 C13.01 2.33 12.02 2.66 11 3 C11 4.98 11 6.96 11 9 C13.97065509 8.65772428 13.97065509 8.65772428 17 8 C17.33 7.34 17.66 6.68 18 6 C18 7.98 18 9.96 18 12 C10.67368421 10.65684211 10.67368421 10.65684211 7.5 7.5625 C6 5 6 5 6 2 C4.35 2 2.7 2 1 2 C0.67 1.34 0.34 0.68 0 0 Z " fill="#34CFD8" transform="translate(117,33)"/>
<path d="M0 0 C0.66 0 1.32 0 2 0 C2 2.97 2 5.94 2 9 C-1.96 9 -5.92 9 -10 9 C-8.13117747 5.26235493 -3.65712004 3.76083557 0 2 C0 1.34 0 0.68 0 0 Z " fill="#7894FE" transform="translate(125,115)"/>
<path d="M0 0 C0.33 0 0.66 0 1 0 C1 5.28 1 10.56 1 16 C-4.61 16 -10.22 16 -16 16 C-15.67 15.34 -15.34 14.68 -15 14 C-14.39671875 14.01160156 -13.7934375 14.02320312 -13.171875 14.03515625 C-12.37265625 14.04417969 -11.5734375 14.05320312 -10.75 14.0625 C-9.96109375 14.07410156 -9.1721875 14.08570312 -8.359375 14.09765625 C-6.09308998 14.00385306 -4.1711105 13.63241063 -2 13 C-1.80508548 11.54263913 -1.61930642 10.08405407 -1.4375 8.625 C-1.33308594 7.81289062 -1.22867188 7.00078125 -1.12109375 6.1640625 C-0.81762672 3.95100814 -0.81762672 3.95100814 -2 2 C-1.34 2 -0.68 2 0 2 C0 1.34 0 0.68 0 0 Z " fill="#3AD8CF" transform="translate(122,98)"/>
<path d="M0 0 C2.64 0 5.28 0 8 0 C8.04254356 1.99954746 8.04080783 4.00041636 8 6 C7 7 7 7 3.4375 7.0625 C2.303125 7.041875 1.16875 7.02125 0 7 C0 4.69 0 2.38 0 0 Z " fill="#A0BFFF" transform="translate(82,83)"/>
<path d="M0 0 C3.63 0 7.26 0 11 0 C10.67 0.99 10.34 1.98 10 3 C6.9375 4.1875 6.9375 4.1875 4 5 C4.66 5.66 5.32 6.32 6 7 C4.02 7.66 2.04 8.32 0 9 C0 6.03 0 3.06 0 0 Z " fill="#3EBCDC" transform="translate(105,54)"/>
<path d="M0 0 C0.66 0 1.32 0 2 0 C2 2.97 2 5.94 2 9 C5.63 9.33 9.26 9.66 13 10 C13 10.33 13 10.66 13 11 C6.73 11 0.46 11 -6 11 C-6 10.67 -6 10.34 -6 10 C-4.35 9.67 -2.7 9.34 -1 9 C-0.67 7.68 -0.34 6.36 0 5 C-1.98 5 -3.96 5 -6 5 C-6 4.67 -6 4.34 -6 4 C-4.35 3.67 -2.7 3.34 -1 3 C-0.67 2.01 -0.34 1.02 0 0 Z " fill="#71DCDB" transform="translate(13,42)"/>
<path d="M0 0 C2.37851717 2.37851717 2 2.75638271 2 6 C-2.62 6 -7.24 6 -12 6 C-12.33 5.01 -12.66 4.02 -13 3 C-9.7 3 -6.4 3 -3 3 C-2.67 2.34 -2.34 1.68 -2 1 C-1.34 1.33 -0.68 1.66 0 2 C0 1.34 0 0.68 0 0 Z " fill="#50D4D7" transform="translate(46,99)"/>
<path d="M0 0 C1.23556641 0.01740234 1.23556641 0.01740234 2.49609375 0.03515625 C3.32238281 0.04417969 4.14867187 0.05320312 5 0.0625 C5.63808594 0.07410156 6.27617188 0.08570312 6.93359375 0.09765625 C7.26359375 0.75765625 7.59359375 1.41765625 7.93359375 2.09765625 C6.61359375 2.09765625 5.29359375 2.09765625 3.93359375 2.09765625 C3.93359375 2.75765625 3.93359375 3.41765625 3.93359375 4.09765625 C-0.53699449 8.09765625 -0.53699449 8.09765625 -3.06640625 8.09765625 C-3.10882348 5.7647085 -3.10733562 3.43063058 -3.06640625 1.09765625 C-2.06640625 0.09765625 -2.06640625 0.09765625 0 0 Z " fill="#4597EB" transform="translate(36.06640625,85.90234375)"/>
<path d="M0 0 C0.99 0 1.98 0 3 0 C3 1.65 3 3.3 3 5 C4.32 5.33 5.64 5.66 7 6 C7 6.66 7 7.32 7 8 C3.92677456 8.91058531 1.19902639 9.08886184 -2 9 C-2.125 5.625 -2.125 5.625 -2 2 C-1.34 1.34 -0.68 0.68 0 0 Z " fill="#3ACCDB" transform="translate(15,68)"/>
<path d="M0 0 C0.99 0 1.98 0 3 0 C3 0.99 3 1.98 3 3 C3.66 3 4.32 3 5 3 C5 2.34 5 1.68 5 1 C5.66 1 6.32 1 7 1 C7 2.98 7 4.96 7 7 C5.02 7.33 3.04 7.66 1 8 C-1 5 -1 5 -0.625 2.3125 C-0.41875 1.549375 -0.2125 0.78625 0 0 Z " fill="#3AD2CA" transform="translate(47,97)"/>
<path d="M0 0 C0 0.33 0 0.66 0 1 C-1.98 1 -3.96 1 -6 1 C-5.73606499 4.43230448 -5.73606499 4.43230448 -5 8 C-4.01 8.66 -3.02 9.32 -2 10 C-5.125 9.47916667 -8.25 8.95833333 -11.375 8.4375 C-12.674375 8.2209375 -12.674375 8.2209375 -14 8 C-14 7.67 -14 7.34 -14 7 C-12.35 6.67 -10.7 6.34 -9 6 C-8.67 4.68 -8.34 3.36 -8 2 C-9.98 2 -11.96 2 -14 2 C-14 1.67 -14 1.34 -14 1 C-9.32798795 -0.20568053 -4.78503708 -0.09382426 0 0 Z " fill="#7AD5E6" transform="translate(21,33)"/>
<path d="M0 0 C3.36704285 -0.2295711 5.41370268 -0.33943529 8.375 1.375 C8.91125 1.91125 9.4475 2.4475 10 3 C10 3.66 10 4.32 10 5 C6.7 5 3.4 5 0 5 C0 3.35 0 1.7 0 0 Z " fill="#34ABC5" transform="translate(33,97)"/>
<path d="M0 0 C0.66 0 1.32 0 2 0 C2 1.98 2 3.96 2 6 C-1.96 6 -5.92 6 -10 6 C-6 2 -6 2 -3.25 1.75 C-2.5075 1.8325 -1.765 1.915 -1 2 C-0.67 1.34 -0.34 0.68 0 0 Z " fill="#35DAC4" transform="translate(32,74)"/>
<path d="M0 0 C2.22909871 -0.02714735 4.45829367 -0.04646254 6.6875 -0.0625 C7.92886719 -0.07410156 9.17023437 -0.08570313 10.44921875 -0.09765625 C13.46235454 -0.01478673 16.08275339 0.29160551 19 1 C19 2.98 19 4.96 19 7 C18.67 6.34 18.34 5.68 18 5 C17.01 4.67 16.02 4.34 15 4 C14.319375 3.67 13.63875 3.34 12.9375 3 C8.7047676 1.55906982 4.44065547 1.32766001 0 1 C0 0.67 0 0.34 0 0 Z " fill="#7BD9E2" transform="translate(7,58)"/>
<path d="M0 0 C6.27 0 12.54 0 19 0 C19 0.66 19 1.32 19 2 C16.03 2 13.06 2 10 2 C10 2.66 10 3.32 10 4 C9.01 4 8.02 4 7 4 C7 3.34 7 2.68 7 2 C4.69 2 2.38 2 0 2 C0 1.34 0 0.68 0 0 Z " fill="#85D6E7" transform="translate(34,45)"/>
<path d="M0 0 C0.66 0 1.32 0 2 0 C1.625 2.9375 1.625 2.9375 1 6 C-1.70879335 7.35439668 -4.00933268 7.06501451 -7 7 C-7.33 6.01 -7.66 5.02 -8 4 C-6.865625 3.71125 -5.73125 3.4225 -4.5625 3.125 C-3.386875 2.75375 -2.21125 2.3825 -1 2 C-0.67 1.34 -0.34 0.68 0 0 Z " fill="#3FD7D6" transform="translate(118,104)"/>
<path d="M0 0 C0.99 0 1.98 0 3 0 C2.95875 1.2375 2.9175 2.475 2.875 3.75 C2.86341709 7.01637962 3.1431298 9.2146947 5 12 C3.35 12.33 1.7 12.66 0 13 C0 8.71 0 4.42 0 0 Z " fill="#41C6EC" transform="translate(105,100)"/>
<path d="M0 0 C0.99 0 1.98 0 3 0 C3.08121924 1.60332791 3.13929134 3.20784026 3.1875 4.8125 C3.23970703 6.15248047 3.23970703 6.15248047 3.29296875 7.51953125 C3 10 3 10 0 13 C0 8.71 0 4.42 0 0 Z " fill="#3B96D8" transform="translate(41,49)"/>
<path d="M0 0 C0.99 0 1.98 0 3 0 C3 1.65 3 3.3 3 5 C3.99 5.33 4.98 5.66 6 6 C5.01 6.99 4.02 7.98 3 9 C-0.875 7.25 -0.875 7.25 -2 5 C-1.34 5 -0.68 5 0 5 C0 3.35 0 1.7 0 0 Z " fill="#E5F8F8" transform="translate(118,49)"/>
<path d="M0 0 C2.31 0 4.62 0 7 0 C7 1.65 7 3.3 7 5 C4.69 5 2.38 5 0 5 C0 3.35 0 1.7 0 0 Z " fill="#3C3E8A" transform="translate(98,49)"/>
<path d="M0 0 C6.6 0 13.2 0 20 0 C20 0.99 20 1.98 20 3 C13.4 2.34 6.8 1.68 0 1 C0 0.67 0 0.34 0 0 Z " fill="#41D1D8" transform="translate(14,32)"/>
<path d="M0 0 C0.33 0.66 0.66 1.32 1 2 C2.86196946 2.92393164 2.86196946 2.92393164 5 3 C6.64594139 1.60411246 6.64594139 1.60411246 8 0 C8.66 0 9.32 0 10 0 C9.67 1.32 9.34 2.64 9 4 C6.69 4.66 4.38 5.32 2 6 C1.34 5.34 0.68 4.68 0 4 C0 2.68 0 1.36 0 0 Z " fill="#8DE1EB" transform="translate(108,103)"/>
<path d="M0 0 C0.99 0 1.98 0 3 0 C3 2.31 3 4.62 3 7 C1.35 7 -0.3 7 -2 7 C-1.125 1.125 -1.125 1.125 0 0 Z " fill="#34BECA" transform="translate(115,47)"/>
<path d="M0 0 C0.99 0.33 1.98 0.66 3 1 C3.25 3.25 3.25 3.25 3 6 C1 8.3125 1 8.3125 -1 10 C-1.02689216 8.52093108 -1.04634621 7.04172517 -1.0625 5.5625 C-1.07410156 4.73878906 -1.08570312 3.91507812 -1.09765625 3.06640625 C-1 1 -1 1 0 0 Z " fill="#6B70FE" transform="translate(124,94)"/>
<path d="M0 0 C1.67542976 0.28604898 3.34385343 0.61781233 5 1 C4.67 2.32 4.34 3.64 4 5 C2.68 5.33 1.36 5.66 0 6 C-0.38218767 4.34385343 -0.71395102 2.67542976 -1 1 C-0.67 0.67 -0.34 0.34 0 0 Z " fill="#46CFDA" transform="translate(22,67)"/>
<path d="M0 0 C0.25 2.8125 0.25 2.8125 0 6 C-2 7.875 -2 7.875 -4 9 C-4.66 8.67 -5.32 8.34 -6 8 C-3.73913043 0 -3.73913043 0 0 0 Z " fill="#41CFD3" transform="translate(60,88)"/>
<path d="M0 0 C0.66 0 1.32 0 2 0 C2.66 2.31 3.32 4.62 4 7 C3.34 7 2.68 7 2 7 C2 7.66 2 8.32 2 9 C1.01 9 0.02 9 -1 9 C-0.67 6.03 -0.34 3.06 0 0 Z " fill="#6762FF" transform="translate(103,108)"/>
<path d="M0 0 C0.66 0 1.32 0 2 0 C1.69106068 1.6256807 1.3777305 3.25052748 1.0625 4.875 C0.88847656 5.77992187 0.71445312 6.68484375 0.53515625 7.6171875 C0 10 0 10 -1 12 C-1.66 12 -2.32 12 -3 12 C-2.69106068 10.3743193 -2.3777305 8.74947252 -2.0625 7.125 C-1.88847656 6.22007813 -1.71445312 5.31515625 -1.53515625 4.3828125 C-1 2 -1 2 0 0 Z " fill="#E1F5F9" transform="translate(47,89)"/>
<path d="M0 0 C0.66 0 1.32 0 2 0 C3.76462683 3.08809695 4 4.23312136 4 8 C2.35 8 0.7 8 -1 8 C-0.67 5.36 -0.34 2.72 0 0 Z " fill="#34C2C5" transform="translate(115,55)"/>
<path d="M0 0 C0.4125 0.45375 0.825 0.9075 1.25 1.375 C3.06408095 3.05950374 4.75285627 3.99265971 7 5 C6.67 5.66 6.34 6.32 6 7 C5.01 7 4.02 7 3 7 C3 6.34 3 5.68 3 5 C1.35 4.67 -0.3 4.34 -2 4 C-2 3.34 -2 2.68 -2 2 C-1.34 2 -0.68 2 0 2 C0 1.34 0 0.68 0 0 Z " fill="#F8FDFD" transform="translate(19,69)"/>
<path d="M0 0 C0.66 0 1.32 0 2 0 C2 2.97 2 5.94 2 9 C1.34 9 0.68 9 0 9 C0 7.68 0 6.36 0 5 C-1.98 5 -3.96 5 -6 5 C-6 4.67 -6 4.34 -6 4 C-4.35 3.67 -2.7 3.34 -1 3 C-0.67 2.01 -0.34 1.02 0 0 Z " fill="#69D3E2" transform="translate(13,42)"/>
<path d="M0 0 C0.66 0.33 1.32 0.66 2 1 C2 1.99 2 2.98 2 4 C4.97065509 3.65772428 4.97065509 3.65772428 8 3 C8.33 2.34 8.66 1.68 9 1 C9 2.98 9 4.96 9 7 C1.36923077 5.52307692 1.36923077 5.52307692 -0.5 2.875 C-0.665 2.25625 -0.83 1.6375 -1 1 C-0.67 0.67 -0.34 0.34 0 0 Z " fill="#51D9D6" transform="translate(126,38)"/>
<path d="M0 0 C1.32 0 2.64 0 4 0 C4 1.98 4 3.96 4 6 C2.68 6 1.36 6 0 6 C0 4.02 0 2.04 0 0 Z " fill="#34B0C5" transform="translate(26,59)"/>
<path d="M0 0 C2.33944736 0.28730055 4.6739143 0.61936779 7 1 C6.01 1.66 5.02 2.32 4 3 C3.01 4.485 3.01 4.485 2 6 C1.34 6 0.68 6 0 6 C-0.38218767 4.34385343 -0.71395102 2.67542976 -1 1 C-0.67 0.67 -0.34 0.34 0 0 Z " fill="#D7F2F7" transform="translate(18,65)"/>
<path d="M0 0 C2.64 0 5.28 0 8 0 C8.33 1.32 8.66 2.64 9 4 C8.01 4 7.02 4 6 4 C6 3.34 6 2.68 6 2 C4.02 2 2.04 2 0 2 C0 1.34 0 0.68 0 0 Z " fill="#52D9D3" transform="translate(89,45)"/>
<path d="M0 0 C0.763125 0.0825 1.52625 0.165 2.3125 0.25 C2.3125 1.24 2.3125 2.23 2.3125 3.25 C-2.3125 5.375 -2.3125 5.375 -5.6875 4.25 C-3.34903846 0.31153846 -3.34903846 0.31153846 0 0 Z " fill="#5ED3E1" transform="translate(120.6875,34.75)"/>
<path d="M0 0 C3.3 0 6.6 0 10 0 C10 0.33 10 0.66 10 1 C7.36 1.33 4.72 1.66 2 2 C2 2.66 2 3.32 2 4 C1.01 4 0.02 4 -1 4 C-0.67 2.68 -0.34 1.36 0 0 Z " fill="#46AFF5" transform="translate(106,96)"/>
<path d="M0 0 C1.32 1.32 2.64 2.64 4 4 C3.01 4.495 3.01 4.495 2 5 C1.67 5.66 1.34 6.32 1 7 C-0.5 5.6875 -0.5 5.6875 -2 4 C-2 3.01 -2 2.02 -2 1 C-1.34 0.67 -0.68 0.34 0 0 Z " fill="#46C8D9" transform="translate(53,88)"/>
<path d="M0 0 C0.33 0 0.66 0 1 0 C1 2.64 1 5.28 1 8 C0.01 8.33 -0.98 8.66 -2 9 C-2.25 3.375 -2.25 3.375 0 0 Z " fill="#409AE9" transform="translate(43,59)"/>
<path d="M0 0 C0 0.99 0 1.98 0 3 C0.3062434 4.33981486 0.63451555 5.67511887 1 7 C-0.32 6.34 -1.64 5.68 -3 5 C-3 4.01 -3 3.02 -3 2 C-2.01 1.34 -1.02 0.68 0 0 Z " fill="#E6F4F9" transform="translate(41,92)"/>
<path d="M0 0 C0.33 0.66 0.66 1.32 1 2 C1.99 2.66 2.98 3.32 4 4 C0.875 3.47916667 -2.25 2.95833333 -5.375 2.4375 C-6.24125 2.293125 -7.1075 2.14875 -8 2 C-8 1.67 -8 1.34 -8 1 C-5.23735711 0.40267181 -2.83967231 0 0 0 Z " fill="#99C8DD" transform="translate(15,39)"/>
<path d="M0 0 C0.99 0 1.98 0 3 0 C3 0.66 3 1.32 3 2 C1.68 1.67 0.36 1.34 -1 1 C-0.67 0.67 -0.34 0.34 0 0 Z " fill="#EAEBF2" transform="translate(7,63)"/>
</svg>
