<?xml version="1.0" encoding="UTF-8"?>
<svg version="1.1" xmlns="http://www.w3.org/2000/svg" width="150" height="150">
<path d="M0 0 C3.3 0 6.6 0 10 0 C10 1.98 10 3.96 10 6 C15.55493924 7.02703748 15.55493924 7.02703748 21 6 C21.433125 7.134375 21.86625 8.26875 22.3125 9.4375 C23.3061169 11.45153786 23.3061169 11.45153786 25 13 C27.93713773 13.71501749 30.6179844 13.87371097 33.63671875 13.9296875 C36 14 36 14 37 15 C37.15825258 16.99782126 37.25119171 19.00088834 37.31640625 21.00390625 C37.37924805 22.82631836 37.37924805 22.82631836 37.44335938 24.68554688 C37.48267578 25.96494141 37.52199219 27.24433594 37.5625 28.5625 C37.60568359 29.84576172 37.64886719 31.12902344 37.69335938 32.45117188 C37.799848 35.63399853 37.90185962 38.81690674 38 42 C39.98 42 41.96 42 44 42 C44.33 43.98 44.66 45.96 45 48 C44.34 48 43.68 48 43 48 C43.226875 49.093125 43.45375 50.18625 43.6875 51.3125 C44 55 44 55 42.5625 56.9375 C42.046875 57.288125 41.53125 57.63875 41 58 C40.01 57.67 39.02 57.34 38 57 C37.608125 57.495 37.21625 57.99 36.8125 58.5 C34.44908285 60.45593143 32.98564997 60.24207973 30 60 C29.01 57.525 29.01 57.525 28 55 C26.68 55 25.36 55 24 55 C23.67 53.35 23.34 51.7 23 50 C23.66 50 24.32 50 25 50 C25.33 48.35 25.66 46.7 26 45 C24.35 44.67 22.7 44.34 21 44 C21 50.6 21 57.2 21 64 C23.31 64 25.62 64 28 64 C29 65 29 65 29.11352539 68.96899414 C29.1133662 70.74105607 29.10766785 72.5131226 29.09765625 74.28515625 C29.0962413 75.21597519 29.09482635 76.14679413 29.09336853 77.1058197 C29.08775172 80.09141191 29.0751964 83.07693029 29.0625 86.0625 C29.05748716 88.08137913 29.05292388 90.10025943 29.04882812 92.11914062 C29.03777683 97.07945572 29.02050095 102.03971532 29 107 C31.31 107.66 33.62 108.32 36 109 C35 111 35 111 33.34521484 111.61450195 C28.49200924 112.41225457 23.54404055 112.18590312 18.63769531 112.18530273 C16.63863013 112.18748512 14.63960468 112.20599143 12.640625 112.22460938 C11.36960937 112.22654297 10.09859375 112.22847656 8.7890625 112.23046875 C7.63100098 112.23457764 6.47293945 112.23868652 5.27978516 112.24291992 C1.88689046 111.99162245 -0.83332989 111.21173908 -4 110 C-3.67 109.34 -3.34 108.68 -3 108 C-0.4375 107.375 -0.4375 107.375 2 107 C1.32142944 106.99191315 0.64285889 106.98382629 -0.05627441 106.97549438 C-7.19572947 106.88863335 -14.33493245 106.7891071 -21.47412109 106.68261719 C-24.12938188 106.64363425 -26.7845665 106.60971702 -29.43994141 106.578125 C-68.83630137 106.1036487 -68.83630137 106.1036487 -75 102 C-75.75 99.375 -75.75 99.375 -76 97 C-79.153368 96.29925156 -81.72724974 96 -85 96 C-86.75 93.5 -86.75 93.5 -88 91 C-87.484375 90.5875 -86.96875 90.175 -86.4375 89.75 C-84.75264314 88.10265318 -84.75264314 88.10265318 -85.125 85.875 C-85.41375 85.25625 -85.7025 84.6375 -86 84 C-86.99 83.67 -87.98 83.34 -89 83 C-88.34 80.69 -87.68 78.38 -87 76 C-86.05125 76.061875 -85.1025 76.12375 -84.125 76.1875 C-82.578125 76.0946875 -82.578125 76.0946875 -81 76 C-78.7226499 73.18490007 -78.7226499 73.18490007 -79 70 C-75.535 69.505 -75.535 69.505 -72 69 C-72 67.35 -72 65.7 -72 64 C-78.27 64 -84.54 64 -91 64 C-91 63.34 -91 62.68 -91 62 C-88.03 61.505 -88.03 61.505 -85 61 C-85 60.01 -85 59.02 -85 58 C-86.98 58 -88.96 58 -91 58 C-91 57.34 -91 56.68 -91 56 C-89.02 56 -87.04 56 -85 56 C-85 54.68 -85 53.36 -85 52 C-86.98 52 -88.96 52 -91 52 C-91 51.34 -91 50.68 -91 50 C-89.02 50 -87.04 50 -85 50 C-85 48.68 -85 47.36 -85 46 C-86.98 46 -88.96 46 -91 46 C-91 45.34 -91 44.68 -91 44 C-89.02 44 -87.04 44 -85 44 C-85 43.01 -85 42.02 -85 41 C-86.98 40.67 -88.96 40.34 -91 40 C-91 39.67 -91 39.34 -91 39 C-84.73 39 -78.46 39 -72 39 C-72 37.35 -72 35.7 -72 34 C-78.27 34 -84.54 34 -91 34 C-91 33.67 -91 33.34 -91 33 C-88.525 32.505 -88.525 32.505 -86 32 C-85.67 30.68 -85.34 29.36 -85 28 C-86.98 28 -88.96 28 -91 28 C-91 27.67 -91 27.34 -91 27 C-89.35 26.67 -87.7 26.34 -86 26 C-85.67 24.68 -85.34 23.36 -85 22 C-86.98 22 -88.96 22 -91 22 C-91 21.67 -91 21.34 -91 21 C-89.35 20.67 -87.7 20.34 -86 20 C-85.67 18.68 -85.34 17.36 -85 16 C-86.98 16 -88.96 16 -91 16 C-91 15.67 -91 15.34 -91 15 C-85.11060037 12.95887931 -79.8280285 12.72721958 -73.625 12.8125 C-72.25408203 12.8134668 -72.25408203 12.8134668 -70.85546875 12.81445312 C-64.14064837 12.85935163 -64.14064837 12.85935163 -63 14 C-60.19023482 14.16017166 -57.40226404 14.25950534 -54.58984375 14.31640625 C-53.74780899 14.33718735 -52.90577423 14.35796844 -52.03822327 14.37937927 C-49.33806821 14.44496812 -46.63781283 14.50380276 -43.9375 14.5625 C-42.11131759 14.60567637 -40.28514546 14.64929036 -38.45898438 14.69335938 C-33.97276008 14.80065894 -29.4864345 14.90189966 -25 15 C-25 15.33 -25 15.66 -25 16 C-37.87 16 -50.74 16 -64 16 C-63.67 17.32 -63.34 18.64 -63 20 C-50.46 20.33 -37.92 20.66 -25 21 C-25 21.33 -25 21.66 -25 22 C-37.87 22 -50.74 22 -64 22 C-63.67 23.32 -63.34 24.64 -63 26 C-56.25536573 25.90759277 -49.51108654 25.80026892 -42.7668457 25.68261719 C-40.47295504 25.64435595 -38.17900497 25.60949811 -35.88500977 25.578125 C-32.5858844 25.53241294 -29.28716704 25.47442778 -25.98828125 25.4140625 C-24.45207878 25.39673569 -24.45207878 25.39673569 -22.88484192 25.37905884 C-21.92422348 25.35918915 -20.96360504 25.33931946 -19.97387695 25.31884766 C-18.71145927 25.29886215 -18.71145927 25.29886215 -17.42353821 25.2784729 C-14.68201016 24.96346187 -12.50937391 24.12344362 -10 23 C-10.185625 22.401875 -10.37125 21.80375 -10.5625 21.1875 C-11 19 -11 19 -10 16 C-11.65 15.34 -13.3 14.68 -15 14 C-13.87548273 11.0280615 -12.77706209 8.66559313 -11 6 C-9.906875 6.20625 -8.81375 6.4125 -7.6875 6.625 C-3.9161599 7.40346525 -3.9161599 7.40346525 -1 5 C-0.27034634 2.43717258 -0.27034634 2.43717258 0 0 Z M-2 13 C-4.2084626 16.31269391 -4.80664241 18.14978851 -4.5546875 22.0625 C-3.4812192 25.81207941 -1.28696911 27.01541488 2 29 C4.63836977 29.1672392 4.63836977 29.1672392 7 29 C7.03738281 28.01257813 7.07476562 27.02515625 7.11328125 26.0078125 C7.17902344 24.72648437 7.24476562 23.44515625 7.3125 22.125 C7.37050781 20.84882812 7.42851563 19.57265625 7.48828125 18.2578125 C7.65714844 17.18273437 7.82601562 16.10765625 8 15 C8.99 14.34 9.98 13.68 11 13 C9.01607489 10.60148679 9.01607489 10.60148679 5.1875 10.5625 C1.82266671 10.66669338 0.95629969 11.02913354 -2 13 Z M-64 28 C-64 28.66 -64 29.32 -64 30 C-61.69 30 -59.38 30 -57 30 C-57 29.34 -57 28.68 -57 28 C-59.31 28 -61.62 28 -64 28 Z M29 46 C28.6366844 48.83386167 28.6431329 50.40522151 30.125 52.875 C32.92151052 54.55290631 34.93690532 53.74875648 38 53 C38.67673447 49.59679066 38.67673447 49.59679066 39 46 C37.11499729 43.68436913 37.11499729 43.68436913 34 43.75 C30.88500271 43.68436913 30.88500271 43.68436913 29 46 Z M-78.25 79.625 C-80.21985834 81.92308586 -80.21985834 81.92308586 -80.5 85 C-80.21376982 88.06575838 -80.21376982 88.06575838 -78.3125 90.375 C-75.61209763 92.27258004 -74.22939919 92.35882213 -71 92 C-70.85024761 84.94348748 -70.85024761 84.94348748 -72 78 C-75.92212225 77.60967296 -75.92212225 77.60967296 -78.25 79.625 Z M-66 94 C-66.66 95.32 -67.32 96.64 -68 98 C-67.0226905 99.20805665 -67.0226905 99.20805665 -65.19335938 99.03759766 C-64.03030273 98.97644775 -64.03030273 98.97644775 -62.84375 98.9140625 C-61.98523438 98.87023437 -61.12671875 98.82640625 -60.2421875 98.78125 C-59.33726563 98.7296875 -58.43234375 98.678125 -57.5 98.625 C-56.62601563 98.58117187 -55.75203125 98.53734375 -54.8515625 98.4921875 C-49.20337732 98.19050402 -43.61587427 97.67344834 -38 97 C-37.67 96.01 -37.34 95.02 -37 94 C-46.57 94 -56.14 94 -66 94 Z M-13 94 C-13 94.99 -13 95.98 -13 97 C-7.72 97.33 -2.44 97.66 3 98 C3 96.68 3 95.36 3 94 C-2.28 94 -7.56 94 -13 94 Z " fill="#5D50FC" transform="translate(98,19)"/>
<path d="M0 0 C2.31 0 4.62 0 7 0 C7 2.97 7 5.94 7 9 C10.3 9 13.6 9 17 9 C17 15.6 17 22.2 17 29 C12.71 29 8.42 29 4 29 C4 29.66 4 30.32 4 31 C12.79133718 32.42426407 12.79133718 32.42426407 29 32 C29 45.2 29 58.4 29 72 C31.31 72.66 33.62 73.32 36 74 C35 76 35 76 33.34521484 76.61450195 C28.49200924 77.41225457 23.54404055 77.18590312 18.63769531 77.18530273 C16.63863013 77.18748512 14.63960468 77.20599143 12.640625 77.22460938 C11.36960937 77.22654297 10.09859375 77.22847656 8.7890625 77.23046875 C7.63100098 77.23457764 6.47293945 77.23868652 5.27978516 77.24291992 C1.88689046 76.99162245 -0.83332989 76.21173908 -4 75 C-3.67 74.34 -3.34 73.68 -3 73 C-0.4375 72.375 -0.4375 72.375 2 72 C1.32142944 71.99191315 0.64285889 71.98382629 -0.05627441 71.97549438 C-7.19572947 71.88863335 -14.33493245 71.7891071 -21.47412109 71.68261719 C-24.12938188 71.64363425 -26.7845665 71.60971702 -29.43994141 71.578125 C-68.83630137 71.1036487 -68.83630137 71.1036487 -75 67 C-75.75 64.375 -75.75 64.375 -76 62 C-79.153368 61.29925156 -81.72724974 61 -85 61 C-86.75 58.5 -86.75 58.5 -88 56 C-87.484375 55.5875 -86.96875 55.175 -86.4375 54.75 C-84.75264314 53.10265318 -84.75264314 53.10265318 -85.125 50.875 C-85.41375 50.25625 -85.7025 49.6375 -86 49 C-86.99 48.67 -87.98 48.34 -89 48 C-88.34 45.69 -87.68 43.38 -87 41 C-85.576875 41.0928125 -85.576875 41.0928125 -84.125 41.1875 C-82.578125 41.0946875 -82.578125 41.0946875 -81 41 C-78.7226499 38.18490007 -78.7226499 38.18490007 -79 35 C-75.535 34.505 -75.535 34.505 -72 34 C-72 36.97 -72 39.94 -72 43 C-72.969375 43.28875 -73.93875 43.5775 -74.9375 43.875 C-78.10664203 44.64214682 -78.10664203 44.64214682 -79 47 C-79.40270732 51.1283652 -79.40270732 51.1283652 -77.8125 54.8125 C-75.57968261 56.27538036 -73.62655933 56.64505955 -71 57 C-71 54.03 -71 51.06 -71 48 C-69.02 48 -67.04 48 -65 48 C-64.67 48.66 -64.34 49.32 -64 50 C-55.75 50 -47.5 50 -39 50 C-38.505 49.01 -38.505 49.01 -38 48 C-24.47 48 -10.94 48 3 48 C3 46.35 3 44.7 3 43 C-6.24 43 -15.48 43 -25 43 C-24.67 42.01 -24.34 41.02 -24 40 C-23.01 39.67 -22.02 39.34 -21 39 C-21.66 38.34 -22.32 37.68 -23 37 C-23.125 33.875 -23.125 33.875 -23 31 C-19.7 30.67 -16.4 30.34 -13 30 C-13.99 29.01 -13.99 29.01 -15 28 C-13.60974609 27.80083984 -13.60974609 27.80083984 -12.19140625 27.59765625 C-10.99386719 27.42105469 -9.79632813 27.24445313 -8.5625 27.0625 C-7.36753906 26.88847656 -6.17257813 26.71445313 -4.94140625 26.53515625 C-2.12044324 26.31014787 -2.12044324 26.31014787 -1 25 C-0.84213692 23.14825294 -0.74892644 21.2909089 -0.68359375 19.43359375 C-0.64169922 18.30888672 -0.59980469 17.18417969 -0.55664062 16.02539062 C-0.51732422 14.84138672 -0.47800781 13.65738281 -0.4375 12.4375 C-0.37272461 10.65569336 -0.37272461 10.65569336 -0.30664062 8.83789062 C-0.20016454 5.89205216 -0.09815159 2.9461257 0 0 Z M-66 59 C-66.66 60.32 -67.32 61.64 -68 63 C-67.0226905 64.20805665 -67.0226905 64.20805665 -65.19335938 64.03759766 C-64.03030273 63.97644775 -64.03030273 63.97644775 -62.84375 63.9140625 C-61.98523438 63.87023437 -61.12671875 63.82640625 -60.2421875 63.78125 C-59.33726563 63.7296875 -58.43234375 63.678125 -57.5 63.625 C-56.62601563 63.58117187 -55.75203125 63.53734375 -54.8515625 63.4921875 C-49.20337732 63.19050402 -43.61587427 62.67344834 -38 62 C-37.67 61.01 -37.34 60.02 -37 59 C-46.57 59 -56.14 59 -66 59 Z M-13 59 C-13 59.99 -13 60.98 -13 62 C-7.72 62.33 -2.44 62.66 3 63 C3 61.68 3 60.36 3 59 C-2.28 59 -7.56 59 -13 59 Z " fill="#5D46F4" transform="translate(98,54)"/>
<path d="M0 0 C0 2.97 0 5.94 0 9 C-0.969375 9.28875 -1.93875 9.5775 -2.9375 9.875 C-6.10664203 10.64214682 -6.10664203 10.64214682 -7 13 C-7.40270732 17.1283652 -7.40270732 17.1283652 -5.8125 20.8125 C-3.57968261 22.27538036 -1.62655933 22.64505955 1 23 C1 20.03 1 17.06 1 14 C2.98 14 4.96 14 7 14 C7.33 14.66 7.66 15.32 8 16 C16.25 16 24.5 16 33 16 C33.33 15.34 33.66 14.68 34 14 C47.53 14 61.06 14 75 14 C75 17.63 75 21.26 75 25 C69.72 25 64.44 25 59 25 C59 25.99 59 26.98 59 28 C59.56847656 27.98839844 60.13695313 27.97679688 60.72265625 27.96484375 C65.60670484 27.90776806 70.18503965 28.18043228 75 29 C75 31.64 75 34.28 75 37 C67.71409984 37.04682155 60.42823335 37.08211748 53.14221191 37.10362434 C49.75718789 37.11395864 46.37226851 37.12792229 42.98730469 37.15087891 C3.62570011 37.39816171 3.62570011 37.39816171 -3 33 C-3.75 30.375 -3.75 30.375 -4 28 C-7.153368 27.29925156 -9.72724974 27 -13 27 C-14.75 24.5 -14.75 24.5 -16 22 C-15.484375 21.5875 -14.96875 21.175 -14.4375 20.75 C-12.75264314 19.10265318 -12.75264314 19.10265318 -13.125 16.875 C-13.41375 16.25625 -13.7025 15.6375 -14 15 C-14.99 14.67 -15.98 14.34 -17 14 C-16.34 11.69 -15.68 9.38 -15 7 C-13.576875 7.0928125 -13.576875 7.0928125 -12.125 7.1875 C-10.578125 7.0946875 -10.578125 7.0946875 -9 7 C-6.7226499 4.18490007 -6.7226499 4.18490007 -7 1 C-4.53721199 -0.231394 -2.7204945 -0.07159196 0 0 Z M6 25 C5.34 26.32 4.68 27.64 4 29 C4.9773095 30.20805665 4.9773095 30.20805665 6.80664062 30.03759766 C7.96969727 29.97644775 7.96969727 29.97644775 9.15625 29.9140625 C10.01476562 29.87023437 10.87328125 29.82640625 11.7578125 29.78125 C12.66273437 29.7296875 13.56765625 29.678125 14.5 29.625 C15.37398437 29.58117187 16.24796875 29.53734375 17.1484375 29.4921875 C22.79662268 29.19050402 28.38412573 28.67344834 34 28 C34.33 27.01 34.66 26.02 35 25 C25.43 25 15.86 25 6 25 Z " fill="#B6D2FE" transform="translate(26,88)"/>
<path d="M0 0 C16.83 0 33.66 0 51 0 C51 10.23 51 20.46 51 31 C34.17 31 17.34 31 0 31 C0 20.77 0 10.54 0 0 Z " fill="#474E94" transform="translate(44,47)"/>
<path d="M0 0 C3.3 0 6.6 0 10 0 C10 1.98 10 3.96 10 6 C15.55493924 7.02703748 15.55493924 7.02703748 21 6 C21.433125 7.134375 21.86625 8.26875 22.3125 9.4375 C23.3061169 11.45153786 23.3061169 11.45153786 25 13 C27.93713773 13.71501749 30.6179844 13.87371097 33.63671875 13.9296875 C36 14 36 14 37 15 C37.15825258 16.99782126 37.25119171 19.00088834 37.31640625 21.00390625 C37.35830078 22.21884766 37.40019531 23.43378906 37.44335938 24.68554688 C37.48267578 25.96494141 37.52199219 27.24433594 37.5625 28.5625 C37.60568359 29.84576172 37.64886719 31.12902344 37.69335938 32.45117188 C37.799848 35.63399853 37.90185962 38.81690674 38 42 C39.98 42 41.96 42 44 42 C44.495 44.97 44.495 44.97 45 48 C44.34 48 43.68 48 43 48 C43.3403125 49.6396875 43.3403125 49.6396875 43.6875 51.3125 C44 55 44 55 42.5625 56.9375 C42.046875 57.288125 41.53125 57.63875 41 58 C40.01 57.67 39.02 57.34 38 57 C37.608125 57.495 37.21625 57.99 36.8125 58.5 C34.44908285 60.45593143 32.98564997 60.24207973 30 60 C29.34 58.35 28.68 56.7 28 55 C26.68 55 25.36 55 24 55 C23.67 53.35 23.34 51.7 23 50 C23.66 50 24.32 50 25 50 C25.33 48.35 25.66 46.7 26 45 C24.02 44.34 22.04 43.68 20 43 C20.04125 42.236875 20.0825 41.47375 20.125 40.6875 C20.22080824 37.77281584 20.22080824 37.77281584 18 35 C18.66 35 19.32 35 20 35 C20 33.35 20 31.7 20 30 C13.4 30 6.8 30 0 30 C0 29.34 0 28.68 0 28 C2.31 28.33 4.62 28.66 7 29 C6.94779297 27.51886719 6.94779297 27.51886719 6.89453125 26.0078125 C6.86746094 24.72648437 6.84039062 23.44515625 6.8125 22.125 C6.76029297 20.21074219 6.76029297 20.21074219 6.70703125 18.2578125 C6.80371094 17.18273437 6.90039062 16.10765625 7 15 C7.99 14.34 8.98 13.68 10 13 C8.78410016 11.56844101 8.78410016 11.56844101 5.1875 11.6875 C2.21382315 11.74622611 1.12248853 11.92650688 -1.5 13.5 C-3.71177972 17.18629954 -3.34421275 19.73176192 -3 24 C-2.67 24.66 -2.34 25.32 -2 26 C-6.29 26 -10.58 26 -15 26 C-14.01 25.01 -13.02 24.02 -12 23 C-11.34 23 -10.68 23 -10 23 C-10.185625 22.401875 -10.37125 21.80375 -10.5625 21.1875 C-11 19 -11 19 -10 16 C-12.475 15.01 -12.475 15.01 -15 14 C-13.87548273 11.0280615 -12.77706209 8.66559313 -11 6 C-9.906875 6.20625 -8.81375 6.4125 -7.6875 6.625 C-3.9161599 7.40346525 -3.9161599 7.40346525 -1 5 C-0.27034634 2.43717258 -0.27034634 2.43717258 0 0 Z M29 46 C28.6366844 48.83386167 28.6431329 50.40522151 30.125 52.875 C32.92151052 54.55290631 34.93690532 53.74875648 38 53 C38.67673447 49.59679066 38.67673447 49.59679066 39 46 C37.11499729 43.68436913 37.11499729 43.68436913 34 43.75 C30.88500271 43.68436913 30.88500271 43.68436913 29 46 Z " fill="#35D2D3" transform="translate(98,19)"/>
<path d="M0 0 C7.92 0 15.84 0 24 0 C24.495 1.98 24.495 1.98 25 4 C31.6 4 38.2 4 45 4 C45 6.33333333 45 8.66666667 45 11 C45.16298584 11.75692139 45.32597168 12.51384277 45.49389648 13.29370117 C46.00669693 16.03581067 46.11395063 18.51444219 46.09765625 21.30078125 C46.09282227 22.76547852 46.09282227 22.76547852 46.08789062 24.25976562 C46.07532227 25.77086914 46.07532227 25.77086914 46.0625 27.3125 C46.05798828 28.33923828 46.05347656 29.36597656 46.04882812 30.42382812 C46.03708184 32.94927882 46.02065565 35.47460905 46 38 C48.31 38 50.62 38 53 38 C53.33 38.99 53.66 39.98 54 41 C45.19039858 42.30512614 36.80960142 42.30512614 28 41 C28.33 40.01 28.66 39.02 29 38 C33.29 38 37.58 38 42 38 C42 31.4 42 24.8 42 18 C38.7 18 35.4 18 32 18 C32 15.03 32 12.06 32 9 C29.69 9 27.38 9 25 9 C25.01571045 10.12027588 25.01571045 10.12027588 25.03173828 11.26318359 C25.0732077 14.63375508 25.09929729 18.004273 25.125 21.375 C25.14175781 22.550625 25.15851563 23.72625 25.17578125 24.9375 C25.18544922 26.61972656 25.18544922 26.61972656 25.1953125 28.3359375 C25.21102295 29.89127197 25.21102295 29.89127197 25.22705078 31.47802734 C25 34 25 34 23 36 C20.76086426 36.25396729 20.76086426 36.25396729 17.93945312 36.25878906 C16.35771301 36.26824554 16.35771301 36.26824554 14.74401855 36.27789307 C13.60130493 36.2738446 12.45859131 36.26979614 11.28125 36.265625 C9.52802429 36.26849518 9.52802429 36.26849518 7.73937988 36.27142334 C5.26456487 36.27278626 2.78974274 36.26908241 0.31494141 36.26074219 C-3.48421205 36.25004446 -7.28289259 36.26063418 -11.08203125 36.2734375 C-13.48177188 36.27211592 -15.88151222 36.26955357 -18.28125 36.265625 C-19.99532043 36.27169769 -19.99532043 36.27169769 -21.74401855 36.27789307 C-22.79851196 36.27158875 -23.85300537 36.26528442 -24.93945312 36.25878906 C-25.8705188 36.25719788 -26.80158447 36.25560669 -27.76086426 36.25396729 C-30 36 -30 36 -32 34 C-32.22705078 31.01904297 -32.22705078 31.01904297 -32.1953125 27.2421875 C-32.1924826 26.57913605 -32.18965271 25.91608459 -32.18673706 25.23294067 C-32.17553435 23.11344417 -32.15043051 20.99436896 -32.125 18.875 C-32.11497028 17.43880818 -32.10584441 16.00260975 -32.09765625 14.56640625 C-32.075595 11.04413372 -32.04106494 7.52210797 -32 4 C-31.01 4 -30.02 4 -29 4 C-29 13.57 -29 23.14 -29 33 C-12.17 33 4.66 33 22 33 C22 22.77 22 12.54 22 2 C14.74 2 7.48 2 0 2 C0 1.34 0 0.68 0 0 Z " fill="#37D2C9" transform="translate(73,45)"/>
<path d="M0 0 C2.31 0 4.62 0 7 0 C7 2.97 7 5.94 7 9 C10.3 9 13.6 9 17 9 C17 15.6 17 22.2 17 29 C12.71 29 8.42 29 4 29 C3.67 33.62 3.34 38.24 3 43 C-6.24 43 -15.48 43 -25 43 C-24.67 42.01 -24.34 41.02 -24 40 C-22.515 39.505 -22.515 39.505 -21 39 C-21.66 38.34 -22.32 37.68 -23 37 C-23.125 33.875 -23.125 33.875 -23 31 C-19.7 30.67 -16.4 30.34 -13 30 C-13.66 29.34 -14.32 28.68 -15 28 C-13.60974609 27.80083984 -13.60974609 27.80083984 -12.19140625 27.59765625 C-10.39509766 27.33275391 -10.39509766 27.33275391 -8.5625 27.0625 C-7.36753906 26.88847656 -6.17257813 26.71445313 -4.94140625 26.53515625 C-2.12044324 26.31014787 -2.12044324 26.31014787 -1 25 C-0.84213692 23.14825294 -0.74892644 21.2909089 -0.68359375 19.43359375 C-0.64169922 18.30888672 -0.59980469 17.18417969 -0.55664062 16.02539062 C-0.51732422 14.84138672 -0.47800781 13.65738281 -0.4375 12.4375 C-0.39431641 11.24962891 -0.35113281 10.06175781 -0.30664062 8.83789062 C-0.20016454 5.89205216 -0.09815159 2.9461257 0 0 Z " fill="#7387FD" transform="translate(98,54)"/>
<path d="M0 0 C0 2.97 0 5.94 0 9 C-0.969375 9.28875 -1.93875 9.5775 -2.9375 9.875 C-6.10664203 10.64214682 -6.10664203 10.64214682 -7 13 C-7.45565588 17.050918 -7.45565588 17.050918 -5.80859375 20.5859375 C-3.56396384 22.34091812 -1.55436719 22.93971804 1.1875 23.6875 C2.08855469 23.93886719 2.98960938 24.19023438 3.91796875 24.44921875 C4.60503906 24.63097656 5.29210937 24.81273438 6 25 C5.67 26.32 5.34 27.64 5 29 C14.57 28.67 24.14 28.34 34 28 C33.505 29.485 33.505 29.485 33 31 C30.36 31 27.72 31 25 31 C25 31.66 25 32.32 25 33 C39.19 33 53.38 33 68 33 C67.67 32.34 67.34 31.68 67 31 C65.845 30.835 64.69 30.67 63.5 30.5 C62.345 30.335 61.19 30.17 60 30 C59.505 29.01 59.505 29.01 59 28 C64.45769811 27.88861841 69.61509359 28.08342019 75 29 C75 31.64 75 34.28 75 37 C67.71409984 37.04682155 60.42823335 37.08211748 53.14221191 37.10362434 C49.75718789 37.11395864 46.37226851 37.12792229 42.98730469 37.15087891 C3.62570011 37.39816171 3.62570011 37.39816171 -3 33 C-3.75 30.375 -3.75 30.375 -4 28 C-7.153368 27.29925156 -9.72724974 27 -13 27 C-14.75 24.5 -14.75 24.5 -16 22 C-15.484375 21.5875 -14.96875 21.175 -14.4375 20.75 C-12.75264314 19.10265318 -12.75264314 19.10265318 -13.125 16.875 C-13.41375 16.25625 -13.7025 15.6375 -14 15 C-14.99 14.67 -15.98 14.34 -17 14 C-16.34 11.69 -15.68 9.38 -15 7 C-13.576875 7.0928125 -13.576875 7.0928125 -12.125 7.1875 C-10.578125 7.0946875 -10.578125 7.0946875 -9 7 C-6.7226499 4.18490007 -6.7226499 4.18490007 -7 1 C-4.53721199 -0.231394 -2.7204945 -0.07159196 0 0 Z " fill="#EAEBF2" transform="translate(26,88)"/>
<path d="M0 0 C1.37091797 0.0009668 1.37091797 0.0009668 2.76953125 0.00195312 C9.48435163 0.04685163 9.48435163 0.04685163 10.625 1.1875 C13.43476518 1.34767166 16.22273596 1.44700534 19.03515625 1.50390625 C19.87719101 1.52468735 20.71922577 1.54546844 21.58677673 1.56687927 C24.28693179 1.63246812 26.98718717 1.69130276 29.6875 1.75 C31.51368241 1.79317637 33.33985454 1.83679036 35.16601562 1.88085938 C39.65223992 1.98815894 44.1385655 2.08939966 48.625 2.1875 C48.625 2.5175 48.625 2.8475 48.625 3.1875 C35.755 3.1875 22.885 3.1875 9.625 3.1875 C9.955 4.5075 10.285 5.8275 10.625 7.1875 C23.165 7.5175 35.705 7.8475 48.625 8.1875 C48.625 8.5175 48.625 8.8475 48.625 9.1875 C35.755 9.1875 22.885 9.1875 9.625 9.1875 C9.955 10.5075 10.285 11.8275 10.625 13.1875 C23.165 13.1875 35.705 13.1875 48.625 13.1875 C48.625 13.8475 48.625 14.5075 48.625 15.1875 C39.055 15.1875 29.485 15.1875 19.625 15.1875 C19.625 15.8475 19.625 16.5075 19.625 17.1875 C18.635 17.1875 17.645 17.1875 16.625 17.1875 C16.625 16.5275 16.625 15.8675 16.625 15.1875 C14.315 15.1875 12.005 15.1875 9.625 15.1875 C9.625 17.1675 9.625 19.1475 9.625 21.1875 C0.715 21.1875 -8.195 21.1875 -17.375 21.1875 C-17.375 20.8575 -17.375 20.5275 -17.375 20.1875 C-15.725 19.8575 -14.075 19.5275 -12.375 19.1875 C-12.045 17.8675 -11.715 16.5475 -11.375 15.1875 C-13.355 15.1875 -15.335 15.1875 -17.375 15.1875 C-17.375 14.8575 -17.375 14.5275 -17.375 14.1875 C-15.725 13.8575 -14.075 13.5275 -12.375 13.1875 C-12.045 11.8675 -11.715 10.5475 -11.375 9.1875 C-13.355 9.1875 -15.335 9.1875 -17.375 9.1875 C-17.375 8.8575 -17.375 8.5275 -17.375 8.1875 C-15.725 7.8575 -14.075 7.5275 -12.375 7.1875 C-12.045 5.8675 -11.715 4.5475 -11.375 3.1875 C-13.355 3.1875 -15.335 3.1875 -17.375 3.1875 C-17.375 2.8575 -17.375 2.5275 -17.375 2.1875 C-11.48560037 0.14637931 -6.2030285 -0.08528042 0 0 Z " fill="#9EE4E0" transform="translate(24.375,31.8125)"/>
<path d="M0 0 C1.12019531 -0.00128906 2.24039063 -0.00257812 3.39453125 -0.00390625 C4.57402344 -0.00003906 5.75351562 0.00382812 6.96875 0.0078125 C8.73798828 0.00201172 8.73798828 0.00201172 10.54296875 -0.00390625 C12.22326172 -0.00197266 12.22326172 -0.00197266 13.9375 0 C14.97326172 0.00112793 16.00902344 0.00225586 17.07617188 0.00341797 C19.46875 0.1328125 19.46875 0.1328125 20.46875 1.1328125 C20.56861975 3.97616298 20.60752881 6.78978413 20.59375 9.6328125 C20.59955078 10.82970703 20.59955078 10.82970703 20.60546875 12.05078125 C20.59535767 18.00620483 20.59535767 18.00620483 19.46875 19.1328125 C17.62715977 19.23240871 15.78178033 19.26361661 13.9375 19.265625 C12.81730469 19.26691406 11.69710937 19.26820312 10.54296875 19.26953125 C9.36347656 19.26566406 8.18398438 19.26179688 6.96875 19.2578125 C5.19951172 19.26361328 5.19951172 19.26361328 3.39453125 19.26953125 C1.71423828 19.26759766 1.71423828 19.26759766 0 19.265625 C-1.03576172 19.26449707 -2.07152344 19.26336914 -3.13867188 19.26220703 C-5.53125 19.1328125 -5.53125 19.1328125 -6.53125 18.1328125 C-6.63111975 15.28946202 -6.67002881 12.47584087 -6.65625 9.6328125 C-6.66011719 8.83488281 -6.66398437 8.03695312 -6.66796875 7.21484375 C-6.65573175 0.007248 -6.65573175 0.007248 0 0 Z " fill="#37D5CA" transform="translate(39.53125,85.8671875)"/>
<path d="M0 0 C3.0000624 -0.02721831 5.99987256 -0.04694378 9 -0.0625 C9.83917969 -0.07087891 10.67835937 -0.07925781 11.54296875 -0.08789062 C12.79013672 -0.09272461 12.79013672 -0.09272461 14.0625 -0.09765625 C15.19365234 -0.10551147 15.19365234 -0.10551147 16.34765625 -0.11352539 C19.91451913 0.03914317 23.45744034 0.55718004 27 1 C27 7.93 27 14.86 27 22 C20.07 22 13.14 22 6 22 C6 21.01 6 20.02 6 19 C4.02 19 2.04 19 0 19 C0 18.34 0 17.68 0 17 C1.98 17 3.96 17 6 17 C6 15.68 6 14.36 6 13 C4.02 13 2.04 13 0 13 C0 12.34 0 11.68 0 11 C1.98 11 3.96 11 6 11 C6 9.68 6 8.36 6 7 C4.02 7 2.04 7 0 7 C0 6.34 0 5.68 0 5 C1.98 5 3.96 5 6 5 C6 4.01 6 3.02 6 2 C3.03 1.505 3.03 1.505 0 1 C0 0.67 0 0.34 0 0 Z " fill="#35D7C7" transform="translate(7,58)"/>
<path d="M0 0 C6.6 0 13.2 0 20 0 C20 1.33333333 20 2.66666667 20 4 C16.37 4 12.74 4 9 4 C9.26656572 6.93443402 9.26656572 6.93443402 10 10 C10.99 10.66 11.98 11.32 13 12 C11.68 12.99 10.36 13.98 9 15 C21.87 15.495 21.87 15.495 35 16 C35 17.65 35 19.3 35 21 C21.47 21 7.94 21 -6 21 C-6.33 15.72 -6.66 10.44 -7 5 C-2 3 -2 3 0 3 C0 2.01 0 1.02 0 0 Z " fill="#6C73FE" transform="translate(66,81)"/>
<path d="M0 0 C2.64 0 5.28 0 8 0 C8 12.54 8 25.08 8 38 C-0.25 38 -8.5 38 -17 38 C-17.125 25.25 -17.125 25.25 -16 23 C-15.34 23 -14.68 23 -14 23 C-13.67 24.32 -13.34 25.64 -13 27 C-7.72 27 -2.44 27 3 27 C3.33 21.39 3.66 15.78 4 10 C0.7 10 -2.6 10 -6 10 C-5.01 8.68 -4.02 7.36 -3 6 C-2.01 6 -1.02 6 0 6 C0 5.01 0 4.02 0 3 C0.66 3 1.32 3 2 3 C2 2.34 2 1.68 2 1 C1.34 0.67 0.68 0.34 0 0 Z " fill="#6E7AFE" transform="translate(119,86)"/>
<path d="M0 0 C4.62 0 9.24 0 14 0 C14.495 6.93 14.495 6.93 15 14 C16.98 14 18.96 14 21 14 C21.33 15.98 21.66 17.96 22 20 C21.34 20 20.68 20 20 20 C20.3403125 21.6396875 20.3403125 21.6396875 20.6875 23.3125 C21 27 21 27 19.5625 28.9375 C19.046875 29.288125 18.53125 29.63875 18 30 C17.01 29.67 16.02 29.34 15 29 C14.608125 29.495 14.21625 29.99 13.8125 30.5 C11.44908285 32.45593143 9.98564997 32.24207973 7 32 C6.34 30.35 5.68 28.7 5 27 C3.68 27 2.36 27 1 27 C0.67 25.35 0.34 23.7 0 22 C0.66 22 1.32 22 2 22 C2.33 20.35 2.66 18.7 3 17 C1.02 16.34 -0.96 15.68 -3 15 C-2.67 13.68 -2.34 12.36 -2 11 C-1.34 11 -0.68 11 0 11 C0 9.68 0 8.36 0 7 C0 4.69 0 2.38 0 0 Z M6 18 C5.6366844 20.83386167 5.6431329 22.40522151 7.125 24.875 C9.92151052 26.55290631 11.93690532 25.74875648 15 25 C15.67673447 21.59679066 15.67673447 21.59679066 16 18 C14.11499729 15.68436913 14.11499729 15.68436913 11 15.75 C7.88500271 15.68436913 7.88500271 15.68436913 6 18 Z " fill="#36DEC4" transform="translate(121,47)"/>
<path d="M0 0 C3.3 0 6.6 0 10 0 C10 1.98 10 3.96 10 6 C14.20594226 6.72795155 16.80104745 7.04973814 21 6 C22.32 8.64 23.64 11.28 25 14 C22.70858714 14.05384521 20.41681812 14.09272087 18.125 14.125 C16.21074219 14.15980469 16.21074219 14.15980469 14.2578125 14.1953125 C11 14 11 14 9 12 C3.45764755 11.42765564 3.45764755 11.42765564 -1.5 13.5 C-3.71177972 17.18629954 -3.34421275 19.73176192 -3 24 C-2.67 24.66 -2.34 25.32 -2 26 C-6.29 26 -10.58 26 -15 26 C-14.01 25.01 -13.02 24.02 -12 23 C-11.34 23 -10.68 23 -10 23 C-10.185625 22.401875 -10.37125 21.80375 -10.5625 21.1875 C-11 19 -11 19 -10 16 C-12.475 15.01 -12.475 15.01 -15 14 C-13.87548273 11.0280615 -12.77706209 8.66559313 -11 6 C-9.906875 6.20625 -8.81375 6.4125 -7.6875 6.625 C-3.9161599 7.40346525 -3.9161599 7.40346525 -1 5 C-0.27034634 2.43717258 -0.27034634 2.43717258 0 0 Z " fill="#E8EAF1" transform="translate(98,19)"/>
<path d="M0 0 C6.6 0 13.2 0 20 0 C20 2.33333333 20 4.66666667 20 7 C20.24447876 8.13538208 20.24447876 8.13538208 20.49389648 9.29370117 C21.00669693 12.03581067 21.11395063 14.51444219 21.09765625 17.30078125 C21.09443359 18.27724609 21.09121094 19.25371094 21.08789062 20.25976562 C21.07951172 21.26716797 21.07113281 22.27457031 21.0625 23.3125 C21.05798828 24.33923828 21.05347656 25.36597656 21.04882812 26.42382812 C21.03708184 28.94927882 21.02065565 31.47460905 21 34 C23.31 34 25.62 34 28 34 C28.33 34.99 28.66 35.98 29 37 C20.19039858 38.30512614 11.80960142 38.30512614 3 37 C3.33 36.01 3.66 35.02 4 34 C8.29 34 12.58 34 17 34 C17 27.4 17 20.8 17 14 C13.7 14 10.4 14 7 14 C7 11.03 7 8.06 7 5 C4.69 5 2.38 5 0 5 C0 3.35 0 1.7 0 0 Z " fill="#39C6D7" transform="translate(98,49)"/>
<path d="M0 0 C1.58206057 0.00667536 3.16410534 0.0186375 4.74609375 0.03515625 C5.55240234 0.03966797 6.35871094 0.04417969 7.18945312 0.04882812 C9.18753131 0.06065107 11.18557158 0.07858711 13.18359375 0.09765625 C13.21043687 2.91021906 13.23035563 5.72252866 13.24609375 8.53515625 C13.25447266 9.33759766 13.26285156 10.14003906 13.27148438 10.96679688 C13.28010805 13.01060846 13.23587525 15.05449527 13.18359375 17.09765625 C11.36243372 18.91881628 8.87687611 18.23000705 6.45703125 18.234375 C5.70679687 18.23050781 4.9565625 18.22664063 4.18359375 18.22265625 C3.05824219 18.22845703 3.05824219 18.22845703 1.91015625 18.234375 C-3.68979572 18.22426678 -3.68979572 18.22426678 -4.81640625 17.09765625 C-4.91621839 14.42034245 -4.955205 11.7746145 -4.94140625 9.09765625 C-4.94527344 8.34742187 -4.94914062 7.5971875 -4.953125 6.82421875 C-4.94103514 0.12643386 -4.94103514 0.12643386 0 0 Z " fill="#39DACD" transform="translate(109.81640625,95.90234375)"/>
<path d="M0 0 C2.31 0 4.62 0 7 0 C7 2.97 7 5.94 7 9 C10.3 9 13.6 9 17 9 C17 12.63 17 16.26 17 20 C16.34 20 15.68 20 15 20 C14.34 21.32 13.68 22.64 13 24 C12.34 24 11.68 24 11 24 C11 24.66 11 25.32 11 26 C10.01 25.67 9.02 25.34 8 25 C8.33 23.68 8.66 22.36 9 21 C8.01 21 7.02 21 6 21 C5.505 21.495 5.01 21.99 4.5 22.5 C4.005 22.995 3.51 23.49 3 24 C2.01 24 1.02 24 0 24 C0 16.08 0 8.16 0 0 Z " fill="#7182FE" transform="translate(98,54)"/>
<path d="M0 0 C5.61 0 11.22 0 17 0 C17 5.61 17 11.22 17 17 C11.39 17 5.78 17 0 17 C0 11.39 0 5.78 0 0 Z " fill="#3E4E9A" transform="translate(15,34)"/>
<path d="M0 0 C1.5631897 0.00785522 1.5631897 0.00785522 3.15795898 0.01586914 C4.28266602 0.0190918 5.40737305 0.02231445 6.56616211 0.02563477 C7.75016602 0.03401367 8.93416992 0.04239258 10.15405273 0.05102539 C11.34192383 0.05553711 12.52979492 0.06004883 13.75366211 0.06469727 C16.69967499 0.07652864 19.64558954 0.09301252 22.59155273 0.11352539 C22.92155273 1.76352539 23.25155273 3.41352539 23.59155273 5.11352539 C21.94155273 5.44352539 20.29155273 5.77352539 18.59155273 6.11352539 C18.26155273 7.10352539 17.93155273 8.09352539 17.59155273 9.11352539 C16.93155273 7.79352539 16.27155273 6.47352539 15.59155273 5.11352539 C14.93155273 5.11352539 14.27155273 5.11352539 13.59155273 5.11352539 C13.26155273 6.43352539 12.93155273 7.75352539 12.59155273 9.11352539 C11.34608868 6.62259728 11.81479493 5.70271806 12.59155273 3.11352539 C11.93155273 3.11352539 11.27155273 3.11352539 10.59155273 3.11352539 C10.26155273 4.76352539 9.93155273 6.41352539 9.59155273 8.11352539 C8.60155273 8.11352539 7.61155273 8.11352539 6.59155273 8.11352539 C6.59155273 7.12352539 6.59155273 6.13352539 6.59155273 5.11352539 C5.93155273 5.11352539 5.27155273 5.11352539 4.59155273 5.11352539 C4.26155273 6.10352539 3.93155273 7.09352539 3.59155273 8.11352539 C2.93155273 8.77352539 2.27155273 9.43352539 1.59155273 10.11352539 C2.41655273 10.73227539 3.24155273 11.35102539 4.09155273 11.98852539 C4.91655273 12.68977539 5.74155273 13.39102539 6.59155273 14.11352539 C6.59155273 14.77352539 6.59155273 15.43352539 6.59155273 16.11352539 C3.29155273 16.11352539 -0.00844727 16.11352539 -3.40844727 16.11352539 C-3.43529822 13.63428738 -3.45521274 11.15533699 -3.47094727 8.67602539 C-3.48351563 7.61544922 -3.48351563 7.61544922 -3.49633789 6.53344727 C-3.50498314 4.7265898 -3.46064738 2.91964936 -3.40844727 1.11352539 C-2.40844727 0.11352539 -2.40844727 0.11352539 0 0 Z " fill="#42ACE4" transform="translate(36.408447265625,85.886474609375)"/>
<path d="M0 0 C13.53 0 27.06 0 41 0 C41 1.65 41 3.3 41 5 C27.47 5 13.94 5 0 5 C0 3.35 0 1.7 0 0 Z " fill="#3C3D89" transform="translate(60,97)"/>
<path d="M0 0 C0.99 0 1.98 0 3 0 C3 9.57 3 19.14 3 29 C9.86612807 28.96041531 9.86612807 28.96041531 16.73217773 28.90991211 C18.00750366 28.90616577 18.00750366 28.90616577 19.30859375 28.90234375 C20.62041626 28.89448853 20.62041626 28.89448853 21.95874023 28.88647461 C24 29 24 29 25 30 C27.21687994 30.15873955 29.43855298 30.25133837 31.66015625 30.31640625 C32.65685585 30.3475779 32.65685585 30.3475779 33.6736908 30.37937927 C35.80318543 30.44493658 37.93280668 30.50378785 40.0625 30.5625 C41.50326847 30.60567939 42.94402399 30.64929349 44.38476562 30.69335938 C47.9230404 30.80062393 51.46145869 30.90187371 55 31 C55 31.33 55 31.66 55 32 C47.48863592 32.05057965 39.97731551 32.08568257 32.46582031 32.10986328 C29.90883747 32.11994038 27.35186621 32.13360226 24.79492188 32.15087891 C21.12627308 32.17505217 17.45777621 32.18646585 13.7890625 32.1953125 C12.0655809 32.21079636 12.0655809 32.21079636 10.30728149 32.22659302 C9.2463327 32.22674408 8.18538391 32.22689514 7.09228516 32.22705078 C6.15518707 32.231492 5.21808899 32.23593323 4.25259399 32.24050903 C2 32 2 32 0 30 C-0.22705078 27.01904297 -0.22705078 27.01904297 -0.1953125 23.2421875 C-0.1924826 22.57913605 -0.18965271 21.91608459 -0.18673706 21.23294067 C-0.17553435 19.11344417 -0.15043051 16.99436896 -0.125 14.875 C-0.11497028 13.43880818 -0.10584441 12.00260975 -0.09765625 10.56640625 C-0.075595 7.04413372 -0.04106494 3.52210797 0 0 Z " fill="#42A9E4" transform="translate(41,49)"/>
<path d="M0 0 C0.33 1.32 0.66 2.64 1 4 C2.98 4 4.96 4 7 4 C7.33 5.98 7.66 7.96 8 10 C7.34 10 6.68 10 6 10 C6.3403125 11.6396875 6.3403125 11.6396875 6.6875 13.3125 C7 17 7 17 5.5625 18.9375 C5.046875 19.288125 4.53125 19.63875 4 20 C3.01 19.67 2.02 19.34 1 19 C0.608125 19.495 0.21625 19.99 -0.1875 20.5 C-2.55091715 22.45593143 -4.01435003 22.24207973 -7 22 C-7.66 20.35 -8.32 18.7 -9 17 C-10.32 17 -11.64 17 -13 17 C-13.33 15.35 -13.66 13.7 -14 12 C-13.34 12 -12.68 12 -12 12 C-11.67 10.35 -11.34 8.7 -11 7 C-11.66 6.67 -12.32 6.34 -13 6 C-10.69 6 -8.38 6 -6 6 C-6.20625 7.11375 -6.4125 8.2275 -6.625 9.375 C-6.810625 11.169375 -6.810625 11.169375 -7 13 C-5.10244856 15.34973818 -5.10244856 15.34973818 -1.875 15.125 C-0.451875 15.063125 -0.451875 15.063125 1 15 C1.29562367 9.67829506 1.29562367 9.67829506 -1 5 C-0.625 2.3125 -0.625 2.3125 0 0 Z " fill="#EAEBF2" transform="translate(135,57)"/>
<path d="M0 0 C1.41623216 -0.05447047 2.83308191 -0.09300508 4.25 -0.125 C5.03890625 -0.14820312 5.8278125 -0.17140625 6.640625 -0.1953125 C9.20731941 0.0171622 10.7916067 0.71345895 13 2 C12.67 2.99 12.34 3.98 12 5 C18.6 5 25.2 5 32 5 C32.495 6.485 32.495 6.485 33 8 C18.81 8 4.62 8 -10 8 C-10 7.34 -10 6.68 -10 6 C-7.36 6 -4.72 6 -2 6 C-1.34 4.02 -0.68 2.04 0 0 Z " fill="#9FC3FE" transform="translate(61,113)"/>
<path d="M0 0 C1.32 0 2.64 0 4 0 C4 6.6 4 13.2 4 20 C6.31 20 8.62 20 11 20 C11.33 20.99 11.66 21.98 12 23 C3.19039858 24.30512614 -5.19039858 24.30512614 -14 23 C-13.505 21.515 -13.505 21.515 -13 20 C-8.71 20 -4.42 20 0 20 C0 13.4 0 6.8 0 0 Z " fill="#4C4CA1" transform="translate(115,63)"/>
<path d="M0 0 C1.98 0 3.96 0 6 0 C6.33 0.66 6.66 1.32 7 2 C10.27555608 2.47001033 10.27555608 2.47001033 14.0625 2.625 C15.99802734 2.73714844 15.99802734 2.73714844 17.97265625 2.8515625 C19.47119141 2.92503906 19.47119141 2.92503906 21 3 C20.525625 3.763125 20.05125 4.52625 19.5625 5.3125 C17.89893903 7.96410548 17.89893903 7.96410548 17 11 C14.35409986 11.02684679 11.70846904 11.04676357 9.0625 11.0625 C7.93038086 11.07506836 7.93038086 11.07506836 6.77539062 11.08789062 C4.85005687 11.09652441 2.92464419 11.05224333 1 11 C0 10 0 10 -0.09765625 7.71484375 C-0.08605469 6.79832031 -0.07445313 5.88179688 -0.0625 4.9375 C-0.05347656 4.01839844 -0.04445313 3.09929687 -0.03515625 2.15234375 C-0.02355469 1.44207031 -0.01195313 0.73179688 0 0 Z " fill="#C4DBFE" transform="translate(27,102)"/>
<path d="M0 0 C6.27 0 12.54 0 19 0 C19.33 0.66 19.66 1.32 20 2 C20.99 2.33 21.98 2.66 23 3 C23.125 9.75 23.125 9.75 22 12 C21.01 12 20.02 12 19 12 C18.67 12.66 18.34 13.32 18 14 C16.68 14 15.36 14 14 14 C13.67 13.01 13.34 12.02 13 11 C12.01 10.67 11.02 10.34 10 10 C10 7.69 10 5.38 10 3 C6.7 2.67 3.4 2.34 0 2 C0 1.34 0 0.68 0 0 Z " fill="#C6ECF2" transform="translate(7,63)"/>
<path d="M0 0 C7.26 0 14.52 0 22 0 C22 2.31 22 4.62 22 7 C18.52085059 7.02887814 15.04173169 7.04675687 11.5625 7.0625 C10.07266602 7.07506836 10.07266602 7.07506836 8.55273438 7.08789062 C7.60849609 7.09111328 6.66425781 7.09433594 5.69140625 7.09765625 C4.37958374 7.10551147 4.37958374 7.10551147 3.04125977 7.11352539 C1 7 1 7 0 6 C0 4.02 0 2.04 0 0 Z " fill="#95B1FE" transform="translate(75,85)"/>
<path d="M0 0 C1.31871094 -0.01224609 2.63742188 -0.02449219 3.99609375 -0.03710938 C5.90068359 -0.04000977 5.90068359 -0.04000977 7.84375 -0.04296875 C9.00068359 -0.04707764 10.15761719 -0.05118652 11.34960938 -0.05541992 C14.47736509 0.18575467 16.680892 0.85423629 19.5 2.1875 C18.5 4.1875 18.5 4.1875 16.84521484 4.80200195 C11.99200924 5.59975457 7.04404055 5.37340312 2.13769531 5.37280273 C0.13863013 5.37498512 -1.86039532 5.39349143 -3.859375 5.41210938 C-5.13039063 5.41404297 -6.40140625 5.41597656 -7.7109375 5.41796875 C-8.86899902 5.42207764 -10.02706055 5.42618652 -11.22021484 5.43041992 C-14.61310954 5.17912245 -17.33332989 4.39923908 -20.5 3.1875 C-20.17 2.5275 -19.84 1.8675 -19.5 1.1875 C-13.23640183 -0.60566158 -6.45139424 0.00315317 0 0 Z " fill="#EAEBF2" transform="translate(114.5,125.8125)"/>
<path d="M0 0 C0 5.61 0 11.22 0 17 C0.99 17 1.98 17 3 17 C3 18.65 3 20.3 3 22 C0.69 22 -1.62 22 -4 22 C-4 15.73 -4 9.46 -4 3 C-10.27 3 -16.54 3 -23 3 C-23 2.34 -23 1.68 -23 1 C-19.91675903 0.83159521 -16.83339379 0.66558138 -13.75 0.5 C-12.87730469 0.45230469 -12.00460938 0.40460938 -11.10546875 0.35546875 C-10.26113281 0.31035156 -9.41679687 0.26523438 -8.546875 0.21875 C-7.38430176 0.1559082 -7.38430176 0.1559082 -6.19824219 0.09179688 C-4.13373418 0.00558463 -2.0663073 0 0 0 Z " fill="#6F73AA" transform="translate(30,80)"/>
<path d="M0 0 C2.31 0 4.62 0 7 0 C7 4.62 7 9.24 7 14 C4.03 13.505 4.03 13.505 1 13 C0.67 12.01 0.34 11.02 0 10 C-2.64 10 -5.28 10 -8 10 C-8 8.02 -8 6.04 -8 4 C-5.36 4 -2.72 4 0 4 C0 2.68 0 1.36 0 0 Z " fill="#5832FF" transform="translate(34,49)"/>
<path d="M0 0 C0.93134766 0.00322266 1.86269531 0.00644531 2.82226562 0.00976562 C4.26182617 0.02233398 4.26182617 0.02233398 5.73046875 0.03515625 C6.70951172 0.03966797 7.68855469 0.04417969 8.69726562 0.04882812 C11.10422986 0.06056941 13.51106732 0.07699206 15.91796875 0.09765625 C16.24796875 1.41765625 16.57796875 2.73765625 16.91796875 4.09765625 C15.92796875 4.09765625 14.93796875 4.09765625 13.91796875 4.09765625 C12.92796875 4.59265625 12.92796875 4.59265625 11.91796875 5.09765625 C10.17752705 5.18215253 8.43387153 5.20488649 6.69140625 5.1953125 C5.66015625 5.19208984 4.62890625 5.18886719 3.56640625 5.18554688 C1.94605469 5.17297852 1.94605469 5.17297852 0.29296875 5.16015625 C-1.33898437 5.15338867 -1.33898437 5.15338867 -3.00390625 5.14648438 C-5.69666914 5.13467401 -8.38932313 5.11820403 -11.08203125 5.09765625 C-10.75203125 3.77765625 -10.42203125 2.45765625 -10.08203125 1.09765625 C-6.65629188 0.32237146 -3.5096388 -0.02153153 0 0 Z " fill="#655CFE" transform="translate(50.08203125,80.90234375)"/>
<path d="M0 0 C2.70313576 -0.21917317 4.43958382 -0.32851983 6.8125 1.0625 C8.66501934 4.08503156 8.37643703 6.54932719 8 10 C4.53076119 12.31282587 3.07794425 12.42478586 -1 12 C-2.875 10.8125 -2.875 10.8125 -4 9 C-4.1875 6.3125 -4.1875 6.3125 -4 4 C-2.68 3.67 -1.36 3.34 0 3 C0 2.01 0 1.02 0 0 Z " fill="#77DEE3" transform="translate(112,99)"/>
<path d="M0 0 C4.29 0 8.58 0 13 0 C11.73046875 1.7578125 10.4609375 3.515625 9.19140625 5.2734375 C7.94469283 6.99402639 7.94469283 6.99402639 7 9 C4.9375 10.125 4.9375 10.125 3 11 C3 12.65 3 14.3 3 16 C1.35 16 -0.3 16 -2 16 C-2.33 15.34 -2.66 14.68 -3 14 C-2.67 13.01 -2.34 12.02 -2 11 C-1.34 11 -0.68 11 0 11 C0 9.68 0 8.36 0 7 C0 4.66666667 0 2.33333333 0 0 Z " fill="#3AD8CD" transform="translate(121,47)"/>
<path d="M0 0 C0.66 0 1.32 0 2 0 C2 1.65 2 3.3 2 5 C2.33 4.01 2.66 3.02 3 2 C3.66 2 4.32 2 5 2 C6.38232443 3.62626404 7.71937515 5.2925002 9 7 C7.02 7.99 7.02 7.99 5 9 C5 9.66 5 10.32 5 11 C4.34 11 3.68 11 3 11 C3 10.01 3 9.02 3 8 C2.01 8 1.02 8 0 8 C-0.33 9.65 -0.66 11.3 -1 13 C-1.66 13 -2.32 13 -3 13 C-3 12.34 -3 11.68 -3 11 C-3.598125 10.9175 -4.19625 10.835 -4.8125 10.75 C-7.5966296 9.79544128 -8.43311142 8.42867729 -10 6 C-8.71034824 4.62437146 -7.37310707 3.29233607 -6 2 C-5.34 2 -4.68 2 -4 2 C-4 2.99 -4 3.98 -4 5 C-3.01 5 -2.02 5 -1 5 C-0.67 3.35 -0.34 1.7 0 0 Z " fill="#9BE2EA" transform="translate(47,89)"/>
<path d="M0 0 C2.875 1 2.875 1 4.25 3.0625 C4.45625 3.701875 4.6625 4.34125 4.875 5 C6.525 5 8.175 5 9.875 5 C9.875 5.99 9.875 6.98 9.875 8 C2.615 8 -4.645 8 -12.125 8 C-11.795 7.01 -11.465 6.02 -11.125 5 C-10.526875 4.855625 -9.92875 4.71125 -9.3125 4.5625 C-6.9166207 4.1646438 -6.9166207 4.1646438 -5.25 1.875 C-3.125 0 -3.125 0 0 0 Z " fill="#F8FDFD" transform="translate(123.125,38)"/>
<path d="M0 0 C0.495 1.485 0.495 1.485 1 3 C-3.29 3 -7.58 3 -12 3 C-12 5.31 -12 7.62 -12 10 C-11.34 10.33 -10.68 10.66 -10 11 C-10.99 12.485 -10.99 12.485 -12 14 C-15.875 12.25 -15.875 12.25 -17 10 C-16.34 10 -15.68 10 -15 10 C-15 8.35 -15 6.7 -15 5 C-21.6 5 -28.2 5 -35 5 C-35 4.34 -35 3.68 -35 3 C-33.96875 3.04125 -32.9375 3.0825 -31.875 3.125 C-28.14310614 3.22911035 -28.14310614 3.22911035 -25.46875 1.96875 C-20.4588315 0.56958357 -15.77796101 1.0425509 -10.625 1.375 C-9.09166016 1.46007813 -9.09166016 1.46007813 -7.52734375 1.546875 C-5.01744665 1.68761689 -2.50866226 1.83895165 0 2 C0 1.34 0 0.68 0 0 Z " fill="#89DFE6" transform="translate(133,44)"/>
<path d="M0 0 C2.31 0 4.62 0 7 0 C7 2.97 7 5.94 7 9 C7.66 9.33 8.32 9.66 9 10 C8.01 10.33 7.02 10.66 6 11 C4.79117904 13.00016466 4.79117904 13.00016466 4 15 C2.68 15 1.36 15 0 15 C0 10.05 0 5.1 0 0 Z " fill="#6B74FD" transform="translate(98,54)"/>
<path d="M0 0 C0.02687279 1.81242052 0.04633715 3.62495233 0.0625 5.4375 C0.07410156 6.44683594 0.08570313 7.45617187 0.09765625 8.49609375 C0 11 0 11 -1 12 C-3.29151417 12.08790975 -5.58572524 12.10694038 -7.87890625 12.09765625 C-8.90889992 12.09553383 -8.90889992 12.09553383 -9.95970154 12.09336853 C-12.16067801 12.08775479 -14.36155409 12.07520007 -16.5625 12.0625 C-18.05143083 12.05748676 -19.54036324 12.05292355 -21.02929688 12.04882812 C-24.68623075 12.03778093 -28.34310558 12.02050713 -32 12 C-32.33 11.34 -32.66 10.68 -33 10 C-23.1 10 -13.2 10 -3 10 C-3 7.03 -3 4.06 -3 1 C-1 0 -1 0 0 0 Z " fill="#37DAC6" transform="translate(98,68)"/>
<path d="M0 0 C1.65 0 3.3 0 5 0 C4.67 2.64 4.34 5.28 4 8 C5.32 8.33 6.64 8.66 8 9 C7.67 9.99 7.34 10.98 7 12 C2.71 12 -1.58 12 -6 12 C-6 11.34 -6 10.68 -6 10 C-4.02 10 -2.04 10 0 10 C0 8.68 0 7.36 0 6 C-1.98 6 -3.96 6 -6 6 C-6 5.34 -6 4.68 -6 4 C-4.02 4 -2.04 4 0 4 C0 2.68 0 1.36 0 0 Z " fill="#7ED7E4" transform="translate(13,65)"/>
<path d="M0 0 C5.94 0 11.88 0 18 0 C18 3 18 3 17 5 C11.39 5 5.78 5 0 5 C0 3.35 0 1.7 0 0 Z " fill="#34ACC5" transform="translate(98,49)"/>
<path d="M0 0 C0 0.33 0 0.66 0 1 C-1.98 1 -3.96 1 -6 1 C-6 6.61 -6 12.22 -6 18 C-2.7 18.33 0.6 18.66 4 19 C4 19.33 4 19.66 4 20 C-1.94 20 -7.88 20 -14 20 C-14 19.67 -14 19.34 -14 19 C-12.35 18.67 -10.7 18.34 -9 18 C-8.67 16.68 -8.34 15.36 -8 14 C-9.98 14 -11.96 14 -14 14 C-14 13.67 -14 13.34 -14 13 C-12.35 12.67 -10.7 12.34 -9 12 C-8.67 10.68 -8.34 9.36 -8 8 C-9.98 8 -11.96 8 -14 8 C-14 7.67 -14 7.34 -14 7 C-12.35 6.67 -10.7 6.34 -9 6 C-8.67 4.68 -8.34 3.36 -8 2 C-9.98 2 -11.96 2 -14 2 C-14 1.67 -14 1.34 -14 1 C-9.32798795 -0.20568053 -4.78503708 -0.09382426 0 0 Z " fill="#8CD8E9" transform="translate(21,33)"/>
<path d="M0 0 C2.64 0 5.28 0 8 0 C8.21578568 3.1648567 8.34519007 5.3469377 6.84375 8.1875 C5 10 5 10 2.30078125 10.390625 C0.82158203 10.32101563 0.82158203 10.32101563 -0.6875 10.25 C-1.68136719 10.21390625 -2.67523438 10.1778125 -3.69921875 10.140625 C-4.83810547 10.07101563 -4.83810547 10.07101563 -6 10 C-4.6875 8 -4.6875 8 -3 6 C-2.01 6 -1.02 6 0 6 C0 5.01 0 4.02 0 3 C0.66 3 1.32 3 2 3 C2 2.34 2 1.68 2 1 C1.34 0.67 0.68 0.34 0 0 Z " fill="#645AFE" transform="translate(119,86)"/>
<path d="M0 0 C1.66611905 -0.042721 3.33382885 -0.04063832 5 0 C6.64745596 1.64745596 6.1709616 3.55335451 6.1875 5.8125 C6.20167969 6.68519531 6.21585938 7.55789062 6.23046875 8.45703125 C5.84520457 12.70799699 4.10435255 15.17786132 1 18 C0 17 0 17 -0.09765625 13.18359375 C-0.09098089 11.60153318 -0.07901875 10.01948841 -0.0625 8.4375 C-0.05798828 7.63119141 -0.05347656 6.82488281 -0.04882812 5.99414062 C-0.03700518 3.99606244 -0.01906914 1.99802217 0 0 Z " fill="#5C3DFF" transform="translate(35,62)"/>
<path d="M0 0 C1.93166016 0.01740234 1.93166016 0.01740234 3.90234375 0.03515625 C5.19269531 0.04417969 6.48304687 0.05320312 7.8125 0.0625 C8.81152344 0.07410156 9.81054688 0.08570312 10.83984375 0.09765625 C8.16240187 2.1957357 6.21794487 3.49442391 2.83984375 4.09765625 C2.83984375 5.08765625 2.83984375 6.07765625 2.83984375 7.09765625 C1.84984375 7.09765625 0.85984375 7.09765625 -0.16015625 7.09765625 C-1.15015625 9.07765625 -2.14015625 11.05765625 -3.16015625 13.09765625 C-3.49015625 13.09765625 -3.82015625 13.09765625 -4.16015625 13.09765625 C-4.18702178 11.11856227 -4.20649 9.13936654 -4.22265625 7.16015625 C-4.23425781 6.05800781 -4.24585937 4.95585938 -4.2578125 3.8203125 C-4.11749553 -0.09172464 -3.97435676 0.12281696 0 0 Z " fill="#47C4EC" transform="translate(109.16015625,95.90234375)"/>
<path d="M0 0 C1.32 0 2.64 0 4 0 C4 6.6 4 13.2 4 20 C2.68 19.67 1.36 19.34 0 19 C0 12.73 0 6.46 0 0 Z " fill="#3E3E8B" transform="translate(115,63)"/>
<path d="M0 0 C12.87 0 25.74 0 39 0 C39 0.66 39 1.32 39 2 C29.43 2 19.86 2 10 2 C10 2.66 10 3.32 10 4 C9.01 4 8.02 4 7 4 C7 3.34 7 2.68 7 2 C4.69 2 2.38 2 0 2 C0 1.34 0 0.68 0 0 Z " fill="#76D5E4" transform="translate(34,45)"/>
<path d="M0 0 C1.67542976 0.28604898 3.34385343 0.61781233 5 1 C5.97477898 4.72188336 6.12816587 6.64248468 4.8125 10.3125 C3 13 3 13 0.88671875 13.66796875 C0.26410156 13.77753906 -0.35851562 13.88710938 -1 14 C-1.02685938 11.85423363 -1.04633088 9.70837355 -1.0625 7.5625 C-1.07410156 6.36753906 -1.08570312 5.17257813 -1.09765625 3.94140625 C-1 1 -1 1 0 0 Z " fill="#32C6E0" transform="translate(106,33)"/>
<path d="M0 0 C0 6.93 0 13.86 0 21 C-1.32 21 -2.64 21 -4 21 C-4.08107646 18.24940619 -4.14052813 15.50120979 -4.1875 12.75 C-4.21263672 11.97269531 -4.23777344 11.19539063 -4.26367188 10.39453125 C-4.33803676 4.59407 -4.33803676 4.59407 -2.55078125 1.453125 C-1 0 -1 0 0 0 Z " fill="#6C71FE" transform="translate(127,92)"/>
<path d="M0 0 C8.58 0 17.16 0 26 0 C25.67 0.99 25.34 1.98 25 3 C17.08 3 9.16 3 1 3 C0.67 2.01 0.34 1.02 0 0 Z " fill="#4C4CA0" transform="translate(101,124)"/>
<path d="M0 0 C1.65 0 3.3 0 5 0 C5 3.63 5 7.26 5 11 C1.04 11 -2.92 11 -7 11 C-5.49336217 7.98672434 -2.96833589 7.38943382 0 6 C-0.2784375 4.7934375 -0.2784375 4.7934375 -0.5625 3.5625 C-0.706875 2.716875 -0.85125 1.87125 -1 1 C-0.67 0.67 -0.34 0.34 0 0 Z " fill="#7693FE" transform="translate(122,113)"/>
<path d="M0 0 C3.96 0 7.92 0 12 0 C10.515 1.485 10.515 1.485 9 3 C8.566875 4.175625 8.13375 5.35125 7.6875 6.5625 C6 10 6 10 2.8125 11.4375 C1.884375 11.623125 0.95625 11.80875 0 12 C0.29296875 10.046875 0.5859375 8.09375 0.87890625 6.140625 C1.12547949 3.66058453 1.12547949 3.66058453 0 0 Z " fill="#6ED5E3" transform="translate(110,33)"/>
<path d="M0 0 C6.27 0 12.54 0 19 0 C19 1.65 19 3.3 19 5 C14.71 5 10.42 5 6 5 C6 4.01 6 3.02 6 2 C3.03 1.505 3.03 1.505 0 1 C0 0.67 0 0.34 0 0 Z " fill="#8BDCE4" transform="translate(7,58)"/>
<path d="M0 0 C2.05078125 0.03255208 4.1015625 0.06510417 6.15234375 0.09765625 C6.48234375 1.74765625 6.81234375 3.39765625 7.15234375 5.09765625 C5.50234375 5.42765625 3.85234375 5.75765625 2.15234375 6.09765625 C1.82234375 7.08765625 1.49234375 8.07765625 1.15234375 9.09765625 C0.49234375 7.77765625 -0.16765625 6.45765625 -0.84765625 5.09765625 C-1.50765625 5.09765625 -2.16765625 5.09765625 -2.84765625 5.09765625 C-3.17765625 6.41765625 -3.50765625 7.73765625 -3.84765625 9.09765625 C-4.84765625 7.09765625 -4.84765625 7.09765625 -3.97265625 4.03515625 C-2.47742531 0.13094214 -2.47742531 0.13094214 0 0 Z " fill="#40C7D7" transform="translate(52.84765625,85.90234375)"/>
<path d="M0 0 C2.31 0 4.62 0 7 0 C7 1.65 7 3.3 7 5 C3.37 5 -0.26 5 -4 5 C-4 6.65 -4 8.3 -4 10 C-5.32 10 -6.64 10 -8 10 C-8 8.02 -8 6.04 -8 4 C-5.36 4 -2.72 4 0 4 C0 2.68 0 1.36 0 0 Z " fill="#3D418D" transform="translate(34,49)"/>
<path d="M0 0 C2.64 0 5.28 0 8 0 C8 2.64 8 5.28 8 8 C7.01 8 6.02 8 5 8 C4.67 8.66 4.34 9.32 4 10 C4 9.01 4 8.02 4 7 C2.68 6.67 1.36 6.34 0 6 C0 4.02 0 2.04 0 0 Z " fill="#3FB9DC" transform="translate(26,59)"/>
<path d="M0 0 C1.24716797 0.00322266 2.49433594 0.00644531 3.77929688 0.00976562 C5.07287109 0.01814453 6.36644531 0.02652344 7.69921875 0.03515625 C9.66858398 0.04192383 9.66858398 0.04192383 11.67773438 0.04882812 C14.91410885 0.06059676 18.15039053 0.07703865 21.38671875 0.09765625 C21.05671875 0.75765625 20.72671875 1.41765625 20.38671875 2.09765625 C19.73074707 2.11747559 19.07477539 2.13729492 18.39892578 2.15771484 C15.43610806 2.25278132 12.47401343 2.36253377 9.51171875 2.47265625 C7.96291016 2.5190625 7.96291016 2.5190625 6.3828125 2.56640625 C4.90361328 2.62441406 4.90361328 2.62441406 3.39453125 2.68359375 C2.4833252 2.71501465 1.57211914 2.74643555 0.63330078 2.77880859 C-1.81259311 2.89648136 -1.81259311 2.89648136 -3.61328125 5.09765625 C-6.34197532 5.06478042 -8.90994305 4.53367854 -11.61328125 4.09765625 C-11.61328125 3.10765625 -11.61328125 2.11765625 -11.61328125 1.09765625 C-7.68039761 0.16677716 -4.03673962 -0.0184326 0 0 Z " fill="#D9D9E8" transform="translate(106.61328125,125.90234375)"/>
<path d="M0 0 C7.92 0 15.84 0 24 0 C24.33 1.32 24.66 2.64 25 4 C24.01 4 23.02 4 22 4 C22 3.34 22 2.68 22 2 C14.74 2 7.48 2 0 2 C0 1.34 0 0.68 0 0 Z " fill="#4AD6D5" transform="translate(73,45)"/>
<path d="M0 0 C0.33 0.66 0.66 1.32 1 2 C2.98 2 4.96 2 7 2 C6 4 6 4 5 5 C2.64686445 5.07271741 0.29166332 5.08370868 -2.0625 5.0625 C-3.35285156 5.05347656 -4.64320312 5.04445313 -5.97265625 5.03515625 C-6.97167969 5.02355469 -7.97070312 5.01195313 -9 5 C-9.33 4.01 -9.66 3.02 -10 2 C-6.7 2 -3.4 2 0 2 C0 1.34 0 0.68 0 0 Z " fill="#4ED1D9" transform="translate(43,100)"/>
<path d="M0 0 C1.23556641 0.01740234 1.23556641 0.01740234 2.49609375 0.03515625 C3.32238281 0.04417969 4.14867187 0.05320312 5 0.0625 C5.63808594 0.07410156 6.27617188 0.08570312 6.93359375 0.09765625 C7.26359375 0.75765625 7.59359375 1.41765625 7.93359375 2.09765625 C6.61359375 2.09765625 5.29359375 2.09765625 3.93359375 2.09765625 C3.93359375 2.75765625 3.93359375 3.41765625 3.93359375 4.09765625 C2.94359375 4.09765625 1.95359375 4.09765625 0.93359375 4.09765625 C0.60359375 5.41765625 0.27359375 6.73765625 -0.06640625 8.09765625 C-1.05640625 8.09765625 -2.04640625 8.09765625 -3.06640625 8.09765625 C-3.10882348 5.7647085 -3.10733562 3.43063058 -3.06640625 1.09765625 C-2.06640625 0.09765625 -2.06640625 0.09765625 0 0 Z " fill="#4597EB" transform="translate(36.06640625,85.90234375)"/>
<path d="M0 0 C3.3 0 6.6 0 10 0 C9 2 9 2 7 2.9375 C4.65391779 3.8891846 4.65391779 3.8891846 4 7 C2.02 7.99 2.02 7.99 0 9 C0 6.03 0 3.06 0 0 Z " fill="#3DBBDE" transform="translate(105,54)"/>
<path d="M0 0 C0 2.97 0 5.94 0 9 C-0.66 9 -1.32 9 -2 9 C-2.33 9.99 -2.66 10.98 -3 12 C-3.433125 10.3603125 -3.433125 10.3603125 -3.875 8.6875 C-4.81893204 4.95986155 -4.81893204 4.95986155 -7 2 C-4.35261084 0.5393715 -3.10551666 0 0 0 Z " fill="#3ECDE4" transform="translate(123,96)"/>
<path d="M0 0 C0 0.99 0 1.98 0 3 C0.66 3 1.32 3 2 3 C1.67 4.98 1.34 6.96 1 9 C-1.88575819 8.60196439 -2.82189513 8.20990931 -4.75 5.9375 C-5.1625 5.298125 -5.575 4.65875 -6 4 C-2.25 0 -2.25 0 0 0 Z " fill="#4FBDDB" transform="translate(43,91)"/>
<path d="M0 0 C3.36704285 -0.2295711 5.41370268 -0.33943529 8.375 1.375 C8.91125 1.91125 9.4475 2.4475 10 3 C10 3.66 10 4.32 10 5 C6.7 5 3.4 5 0 5 C0 3.35 0 1.7 0 0 Z " fill="#34ABC5" transform="translate(33,97)"/>
<path d="M0 0 C0.66 0 1.32 0 2 0 C2 2.33333333 2 4.66666667 2 7 C2.165 7.825 2.33 8.65 2.5 9.5 C3 12 3 12 3 14 C1.68 13.67 0.36 13.34 -1 13 C-1.22162329 11.37675914 -1.42689803 9.751279 -1.625 8.125 C-1.74101563 7.22007813 -1.85703125 6.31515625 -1.9765625 5.3828125 C-1.98429687 4.59648438 -1.99203125 3.81015625 -2 3 C-1.34 2.34 -0.68 1.68 0 1 C0 0.67 0 0.34 0 0 Z " fill="#38C1C7" transform="translate(116,49)"/>
<path d="M0 0 C1.37478516 0.01740234 1.37478516 0.01740234 2.77734375 0.03515625 C3.69644531 0.04417969 4.61554688 0.05320312 5.5625 0.0625 C6.27277344 0.07410156 6.98304687 0.08570312 7.71484375 0.09765625 C4.71484375 2.09765625 4.71484375 2.09765625 1.71484375 2.09765625 C1.71484375 2.75765625 1.71484375 3.41765625 1.71484375 4.09765625 C0.04817708 5.76432292 -1.61848958 7.43098958 -3.28515625 9.09765625 C-3.3828125 2.9453125 -3.3828125 2.9453125 -3.28515625 1.09765625 C-2.28515625 0.09765625 -2.28515625 0.09765625 0 0 Z " fill="#45B4F5" transform="translate(108.28515625,95.90234375)"/>
<path d="M0 0 C0.66 0 1.32 0 2 0 C2 3.3 2 6.6 2 10 C0.68 10 -0.64 10 -2 10 C-2.1953125 3.9453125 -2.1953125 3.9453125 -2 2 C-1.34 1.34 -0.68 0.68 0 0 Z " fill="#7182FE" transform="translate(125,103)"/>
<path d="M0 0 C0.99 0 1.98 0 3 0 C3.33 0.66 3.66 1.32 4 2 C4.99 2.33 5.98 2.66 7 3 C6.625 4.9375 6.625 4.9375 6 7 C5.01 7.495 5.01 7.495 4 8 C3.67 7.01 3.34 6.02 3 5 C1.35 4.67 -0.3 4.34 -2 4 C-2 4.66 -2 5.32 -2 6 C-2.66 6 -3.32 6 -4 6 C-4 5.01 -4 4.02 -4 3 C-2.68 2.67 -1.36 2.34 0 2 C0 1.34 0 0.68 0 0 Z " fill="#F4FBFC" transform="translate(23,63)"/>
<path d="M0 0 C1.98 0 3.96 0 6 0 C6 1.98 6 3.96 6 6 C4.02 6 2.04 6 0 6 C0 4.02 0 2.04 0 0 Z " fill="#A6C7FF" transform="translate(90,85)"/>
<path d="M0 0 C1.98 0 3.96 0 6 0 C6 1.98 6 3.96 6 6 C4.02 6 2.04 6 0 6 C0 4.02 0 2.04 0 0 Z " fill="#A7C7FF" transform="translate(83,85)"/>
<path d="M0 0 C0.99 0 1.98 0 3 0 C3 2.64 3 5.28 3 8 C2.01 8.495 2.01 8.495 1 9 C0.01 8.67 -0.98 8.34 -2 8 C-2 6.02 -2 4.04 -2 2 C-1.34 2 -0.68 2 0 2 C0 1.34 0 0.68 0 0 Z " fill="#39CCCF" transform="translate(31,67)"/>
<path d="M0 0 C1.485 0.99 1.485 0.99 3 2 C3.29296875 4.3828125 3.29296875 4.3828125 3.1875 7.125 C3.16042969 8.03507812 3.13335937 8.94515625 3.10546875 9.8828125 C3.07066406 10.58148438 3.03585938 11.28015625 3 12 C2.34 12 1.68 12 1 12 C0.67 12.66 0.34 13.32 0 14 C0 9.38 0 4.76 0 0 Z " fill="#5F4EFE" transform="translate(102,97)"/>
<path d="M0 0 C0.99 0 1.98 0 3 0 C3.08121924 1.60332791 3.13929134 3.20784026 3.1875 4.8125 C3.23970703 6.15248047 3.23970703 6.15248047 3.29296875 7.51953125 C3 10 3 10 0 13 C0 8.71 0 4.42 0 0 Z " fill="#3B96D8" transform="translate(41,49)"/>
<path d="M0 0 C2.31 0 4.62 0 7 0 C7 1.65 7 3.3 7 5 C4.69 5 2.38 5 0 5 C0 3.35 0 1.7 0 0 Z " fill="#3C3E8A" transform="translate(98,49)"/>
<path d="M0 0 C6.6 0 13.2 0 20 0 C20 0.99 20 1.98 20 3 C13.4 2.34 6.8 1.68 0 1 C0 0.67 0 0.34 0 0 Z " fill="#41D1D8" transform="translate(14,32)"/>
<path d="M0 0 C2.05078125 0.03255208 4.1015625 0.06510417 6.15234375 0.09765625 C5.82234375 0.75765625 5.49234375 1.41765625 5.15234375 2.09765625 C3.50234375 2.09765625 1.85234375 2.09765625 0.15234375 2.09765625 C0.15234375 3.08765625 0.15234375 4.07765625 0.15234375 5.09765625 C-0.83765625 5.09765625 -1.82765625 5.09765625 -2.84765625 5.09765625 C-3.17765625 6.41765625 -3.50765625 7.73765625 -3.84765625 9.09765625 C-4.84765625 7.09765625 -4.84765625 7.09765625 -3.97265625 4.03515625 C-2.47742531 0.13094214 -2.47742531 0.13094214 0 0 Z " fill="#3EBBDC" transform="translate(52.84765625,85.90234375)"/>
<path d="M0 0 C0.66 0 1.32 0 2 0 C2 1.32 2 2.64 2 4 C5.3 4.33 8.6 4.66 12 5 C12 5.33 12 5.66 12 6 C6.06 6 0.12 6 -6 6 C-6 5.67 -6 5.34 -6 5 C-4.35 4.67 -2.7 4.34 -1 4 C-0.67 2.68 -0.34 1.36 0 0 Z " fill="#69D8DD" transform="translate(13,47)"/>
<path d="M0 0 C0.66 0 1.32 0 2 0 C1.343621 4.48525648 0.29925791 8.66914029 -1 13 C-1.66 13 -2.32 13 -3 13 C-2.52060632 8.28596212 -2.03165952 4.33420699 0 0 Z " fill="#D9F2F6" transform="translate(47,89)"/>
<path d="M0 0 C6.75 0.875 6.75 0.875 9 2 C9 2.66 9 3.32 9 4 C5.7 4 2.4 4 -1 4 C-0.67 2.68 -0.34 1.36 0 0 Z " fill="#32C7DF" transform="translate(14,59)"/>
<path d="M0 0 C0.99 0 1.98 0 3 0 C5 5.75 5 5.75 5 8 C4.01 8 3.02 8 2 8 C-0.1875 5.5 -0.1875 5.5 -2 3 C-1.34 2.01 -0.68 1.02 0 0 Z " fill="#41D4D7" transform="translate(126,35)"/>
<path d="M0 0 C-0.639375 0.309375 -1.27875 0.61875 -1.9375 0.9375 C-3.93610821 1.8345163 -3.93610821 1.8345163 -5 3 C-7.33297433 3.04092937 -9.66705225 3.04241723 -12 3 C-12 2.01 -12 1.02 -12 0 C-7.6835078 -0.76173392 -4.25566547 -1.16063604 0 0 Z " fill="#34D2D2" transform="translate(25,77)"/>
<path d="M0 0 C1.65 0 3.3 0 5 0 C5 1.65 5 3.3 5 5 C3.0625 5.5625 3.0625 5.5625 1 6 C0 5 0 5 -0.0625 2.4375 C-0.041875 1.633125 -0.02125 0.82875 0 0 Z " fill="#4CD0DB" transform="translate(21,67)"/>
<path d="M0 0 C0.66 0 1.32 0 2 0 C2.04254356 1.99954746 2.04080783 4.00041636 2 6 C1 7 1 7 -1.5625 7.0625 C-2.7690625 7.0315625 -2.7690625 7.0315625 -4 7 C-4 5.35 -4 3.7 -4 2 C-3.67 2.66 -3.34 3.32 -3 4 C-2.01 3.34 -1.02 2.68 0 2 C0 1.34 0 0.68 0 0 Z " fill="#36E0C1" transform="translate(58,98)"/>
<path d="M0 0 C0.66 0 1.32 0 2 0 C2 1.65 2 3.3 2 5 C2.66 5.33 3.32 5.66 4 6 C3.01 7.485 3.01 7.485 2 9 C-1.875 7.25 -1.875 7.25 -3 5 C-2.01 5 -1.02 5 0 5 C0 3.35 0 1.7 0 0 Z " fill="#EFFAFA" transform="translate(119,49)"/>
<path d="M0 0 C0.99 0.33 1.98 0.66 3 1 C2.67 2.65 2.34 4.3 2 6 C3.98 6.66 5.96 7.32 8 8 C8 8.33 8 8.66 8 9 C2.57142857 9.36190476 2.57142857 9.36190476 0.125 7.8125 C-1.36366316 5.41409825 -1.29178308 3.77193929 -1 1 C-0.67 0.67 -0.34 0.34 0 0 Z " fill="#98E2EC" transform="translate(109,102)"/>
<path d="M0 0 C1.32 0 2.64 0 4 0 C4 1.98 4 3.96 4 6 C3.01 6.33 2.02 6.66 1 7 C0 6 0 6 -0.0625 2.9375 C-0.041875 1.968125 -0.02125 0.99875 0 0 Z " fill="#34B0C5" transform="translate(26,59)"/>
<path d="M0 0 C0.33 0.66 0.66 1.32 1 2 C2.98 2 4.96 2 7 2 C6 4 6 4 5 5 C2.32941149 5.14115161 -0.32432238 5.04247107 -3 5 C-2.01 4.67 -1.02 4.34 0 4 C0 2.68 0 1.36 0 0 Z " fill="#47D7D0" transform="translate(43,100)"/>
<path d="M0 0 C1.65 0 3.3 0 5 0 C4.67 1.65 4.34 3.3 4 5 C2.68 4.67 1.36 4.34 0 4 C0 2.68 0 1.36 0 0 Z " fill="#3BD2E0" transform="translate(112,103)"/>
<path d="M0 0 C1.5 1.3125 1.5 1.3125 3 3 C3 3.99 3 4.98 3 6 C1.35 6.33 -0.3 6.66 -2 7 C-1.125 2.25 -1.125 2.25 0 0 Z " fill="#3DCFE5" transform="translate(107,106)"/>
<path d="M0 0 C0.33 0 0.66 0 1 0 C1 2.64 1 5.28 1 8 C0.01 8.33 -0.98 8.66 -2 9 C-2.25 3.375 -2.25 3.375 0 0 Z " fill="#409AE9" transform="translate(43,59)"/>
<path d="M0 0 C2.31 0 4.62 0 7 0 C6.67 0.99 6.34 1.98 6 3 C3.69 3 1.38 3 -1 3 C-0.67 2.01 -0.34 1.02 0 0 Z " fill="#DEE6F5" transform="translate(53,116)"/>
<path d="M0 0 C1.2065625 0.0309375 1.2065625 0.0309375 2.4375 0.0625 C2.4375 1.39583333 2.4375 2.72916667 2.4375 4.0625 C0.7875 4.0625 -0.8625 4.0625 -2.5625 4.0625 C-2.8925 3.0725 -3.2225 2.0825 -3.5625 1.0625 C-2.5625 0.0625 -2.5625 0.0625 0 0 Z " fill="#94DEED" transform="translate(114.5625,98.9375)"/>
<path d="M0 0 C0.33 0.99 0.66 1.98 1 3 C-2.96 3 -6.92 3 -11 3 C-11 2.34 -11 1.68 -11 1 C-9.88625 1.020625 -8.7725 1.04125 -7.625 1.0625 C-4.58237918 1.01004102 -2.83730029 0 0 0 Z " fill="#8BCBDD" transform="translate(109,46)"/>
<path d="M0 0 C0.99 0 1.98 0 3 0 C3 1.65 3 3.3 3 5 C2.34 5 1.68 5 1 5 C0.67 5.99 0.34 6.98 0 8 C-0.38063221 5.6739143 -0.71269945 3.33944736 -1 1 C-0.67 0.67 -0.34 0.34 0 0 Z " fill="#3ED5D7" transform="translate(120,100)"/>
<path d="M0 0 C0.99 0 1.98 0 3 0 C3 0.99 3 1.98 3 3 C3.66 3.33 4.32 3.66 5 4 C3.02 4.33 1.04 4.66 -1 5 C-0.67 3.35 -0.34 1.7 0 0 Z " fill="#36C1C6" transform="translate(47,97)"/>
<path d="M0 0 C0.66 0 1.32 0 2 0 C2 1.98 2 3.96 2 6 C-0.64 6 -3.28 6 -6 6 C-6 5.67 -6 5.34 -6 5 C-4.35 4.67 -2.7 4.34 -1 4 C-0.67 2.68 -0.34 1.36 0 0 Z " fill="#7CD8E5" transform="translate(13,41)"/>
<path d="M0 0 C1.65 0 3.3 0 5 0 C4.67 1.32 4.34 2.64 4 4 C2.68 4 1.36 4 0 4 C0 2.68 0 1.36 0 0 Z " fill="#32C5E0" transform="translate(13,65)"/>
<path d="M0 0 C0.66 0 1.32 0 2 0 C2.36923077 4.55384615 2.36923077 4.55384615 0.5 6.8125 C0.005 7.204375 -0.49 7.59625 -1 8 C-1.125 2.25 -1.125 2.25 0 0 Z " fill="#665FFF" transform="translate(103,109)"/>
<path d="M0 0 C0 0.99 0 1.98 0 3 C0.3062434 4.33981486 0.63451555 5.67511887 1 7 C-0.32 6.34 -1.64 5.68 -3 5 C-3 4.01 -3 3.02 -3 2 C-2.01 1.34 -1.02 0.68 0 0 Z " fill="#E8F6F9" transform="translate(41,92)"/>
</svg>
