<?xml version="1.0" encoding="UTF-8"?>
<svg version="1.1" xmlns="http://www.w3.org/2000/svg" width="150" height="150">
<path d="M0 0 C3.3 0 6.6 0 10 0 C10 1.98 10 3.96 10 6 C14.01804691 6.84098656 17.01803543 7.05404945 21 6 C24 10.625 24 10.625 24 14 C24.85464844 13.98839844 25.70929688 13.97679687 26.58984375 13.96484375 C27.69457031 13.95582031 28.79929687 13.94679688 29.9375 13.9375 C31.03964844 13.92589844 32.14179688 13.91429687 33.27734375 13.90234375 C36 14 36 14 37 15 C37.08713831 16.70772358 37.10700007 18.41898649 37.09765625 20.12890625 C37.09443359 21.16337891 37.09121094 22.19785156 37.08789062 23.26367188 C37.07951172 24.35228516 37.07113281 25.44089844 37.0625 26.5625 C37.05798828 27.65498047 37.05347656 28.74746094 37.04882812 29.87304688 C37.03699826 32.58208495 37.02051543 35.29101599 37 38 C38.65 38.66 40.3 39.32 42 40 C41.67 40.99 41.34 41.98 41 43 C41.33 43.66 41.66 44.32 42 45 C44.02463255 45.65213292 44.02463255 45.65213292 46 46 C46 47.65 46 49.3 46 51 C44.68 51 43.36 51 42 51 C42 53.31 42 55.62 42 58 C37.48571429 59.12857143 37.48571429 59.12857143 34.875 58.4375 C34.25625 58.293125 33.6375 58.14875 33 58 C32.01 58.66 31.02 59.32 30 60 C28.68 59.01 27.36 58.02 26 57 C26.33 56.01 26.66 55.02 27 54 C26.360625 53.773125 25.72125 53.54625 25.0625 53.3125 C23 52 23 52 22.25 49.375 C22.1675 48.59125 22.085 47.8075 22 47 C23.32 46.34 24.64 45.68 26 45 C24.35 44.67 22.7 44.34 21 44 C21 50.6 21 57.2 21 64 C23.31 64 25.62 64 28 64 C29 65 29 65 29.11352539 68.96899414 C29.1133662 70.74105607 29.10766785 72.5131226 29.09765625 74.28515625 C29.0962413 75.21597519 29.09482635 76.14679413 29.09336853 77.1058197 C29.08775172 80.09141191 29.0751964 83.07693029 29.0625 86.0625 C29.05748716 88.08137913 29.05292388 90.10025943 29.04882812 92.11914062 C29.03777683 97.07945572 29.02050095 102.03971532 29 107 C31.31 107.66 33.62 108.32 36 109 C35 111 35 111 33.34521484 111.61450195 C28.49200924 112.41225457 23.54404055 112.18590312 18.63769531 112.18530273 C16.63863013 112.18748512 14.63960468 112.20599143 12.640625 112.22460938 C11.36960937 112.22654297 10.09859375 112.22847656 8.7890625 112.23046875 C7.63100098 112.23457764 6.47293945 112.23868652 5.27978516 112.24291992 C1.88689046 111.99162245 -0.83332989 111.21173908 -4 110 C-3.67 109.34 -3.34 108.68 -3 108 C-0.4375 107.375 -0.4375 107.375 2 107 C1.32142944 106.99191315 0.64285889 106.98382629 -0.05627441 106.97549438 C-7.19572947 106.88863335 -14.33493245 106.7891071 -21.47412109 106.68261719 C-24.12938188 106.64363425 -26.7845665 106.60971702 -29.43994141 106.578125 C-67.93926359 106.11445232 -67.93926359 106.11445232 -75 102 C-74.67 100.68 -74.34 99.36 -74 98 C-77.43515002 97.37542727 -80.49064814 97 -84 97 C-85.75 95 -85.75 95 -87 93 C-86.01 92.01 -86.01 92.01 -85 91 C-84.83318891 87.91652174 -84.83318891 87.91652174 -85 85 C-86.32 84.67 -87.64 84.34 -89 84 C-88.625 81.0625 -88.625 81.0625 -88 78 C-85.6921509 76.84607545 -83.52769669 76.46562834 -81 76 C-80.67 74.02 -80.34 72.04 -80 70 C-76.535 69.505 -76.535 69.505 -73 69 C-72.67 66.36 -72.34 63.72 -72 61 C-76.29 61 -80.58 61 -85 61 C-85.02683436 57.68744674 -85.0467578 54.37510817 -85.0625 51.0625 C-85.07087891 50.11697266 -85.07925781 49.17144531 -85.08789062 48.19726562 C-85.09111328 47.29814453 -85.09433594 46.39902344 -85.09765625 45.47265625 C-85.10289307 44.64000244 -85.10812988 43.80734863 -85.11352539 42.94946289 C-85 41 -85 41 -84 40 C-81.98035801 39.92755947 -79.95832876 39.91622812 -77.9375 39.9375 C-76.28041016 39.95103516 -76.28041016 39.95103516 -74.58984375 39.96484375 C-73.73519531 39.97644531 -72.88054687 39.98804688 -72 40 C-72 37.69 -72 35.38 -72 33 C-73.28197266 33.01740234 -73.28197266 33.01740234 -74.58984375 33.03515625 C-75.69457031 33.04417969 -76.79929687 33.05320313 -77.9375 33.0625 C-79.03964844 33.07410156 -80.14179687 33.08570313 -81.27734375 33.09765625 C-84 33 -84 33 -85 32 C-85.07319621 29.30345146 -85.09242537 26.63308542 -85.0625 23.9375 C-85.05798828 23.17888672 -85.05347656 22.42027344 -85.04882812 21.63867188 C-85.0370068 19.75908129 -85.01907078 17.87953101 -85 16 C-87.31 16 -89.62 16 -92 16 C-92 15.67 -92 15.34 -92 15 C-85.68911704 13.12737819 -80.06038603 12.75103922 -73.5 12.875 C-72.5821875 12.88402344 -71.664375 12.89304687 -70.71875 12.90234375 C-68.47905162 12.92567394 -66.23948959 12.96153548 -64 13 C-64 18.61 -64 24.22 -64 30 C-61.69 30 -59.38 30 -57 30 C-56.67 28.68 -56.34 27.36 -56 26 C-54.77893555 25.98018066 -53.55787109 25.96036133 -52.29980469 25.93994141 C-47.76720646 25.86383877 -43.2349273 25.77512839 -38.70263672 25.68261719 C-36.7414378 25.64434673 -34.78016916 25.60949046 -32.81884766 25.578125 C-29.99877003 25.5324326 -27.17917162 25.474445 -24.359375 25.4140625 C-23.04510529 25.39673569 -23.04510529 25.39673569 -21.70428467 25.37905884 C-20.88373596 25.35918915 -20.06318726 25.33931946 -19.21777344 25.31884766 C-18.49829529 25.30552399 -17.77881714 25.29220032 -17.03753662 25.2784729 C-14.69844524 24.9587861 -13.04472763 24.15410784 -11 23 C-10.66602213 20.12586875 -10.66602213 20.12586875 -11 17 C-12.88077873 15.08743288 -12.88077873 15.08743288 -15 14 C-13.87548273 11.0280615 -12.77706209 8.66559313 -11 6 C-9.39125 6.2784375 -9.39125 6.2784375 -7.75 6.5625 C-4.59608454 6.9304568 -2.90181508 7.04465343 0 6 C0 4.02 0 2.04 0 0 Z M-2 13.0625 C-4.51930235 16.76272533 -4.7066341 18.6031656 -4 23 C-2.59121904 25.9901643 -2.59121904 25.9901643 0 28 C3.64182335 28.89055736 3.64182335 28.89055736 7 29 C7.03738281 28.01257813 7.07476562 27.02515625 7.11328125 26.0078125 C7.17902344 24.72648437 7.24476562 23.44515625 7.3125 22.125 C7.37050781 20.84882812 7.42851563 19.57265625 7.48828125 18.2578125 C7.65714844 17.18273437 7.82601562 16.10765625 8 15 C8.99 14.34 9.98 13.68 11 13 C9.01607489 10.60148679 9.01607489 10.60148679 5.1875 10.5625 C1.78236185 10.661739 0.970405 11.02034656 -2 13.0625 Z M29 46 C28.6366844 48.83386167 28.6431329 50.40522151 30.125 52.875 C32.92151052 54.55290631 34.93690532 53.74875648 38 53 C38.67673447 49.59679066 38.67673447 49.59679066 39 46 C37.11499729 43.68436913 37.11499729 43.68436913 34 43.75 C30.88500271 43.68436913 30.88500271 43.68436913 29 46 Z M-78.25 79.625 C-80.21985834 81.92308586 -80.21985834 81.92308586 -80.5 85 C-80.21376982 88.06575838 -80.21376982 88.06575838 -78.3125 90.375 C-75.61209763 92.27258004 -74.22939919 92.35882213 -71 92 C-70.85024761 84.94348748 -70.85024761 84.94348748 -72 78 C-75.92212225 77.60967296 -75.92212225 77.60967296 -78.25 79.625 Z M-66 94 C-66 95.65 -66 97.3 -66 99 C-56.76 98.34 -47.52 97.68 -38 97 C-37.67 96.01 -37.34 95.02 -37 94 C-46.57 94 -56.14 94 -66 94 Z M-13 94 C-13 94.99 -13 95.98 -13 97 C-7.72 97.33 -2.44 97.66 3 98 C3 96.68 3 95.36 3 94 C-2.28 94 -7.56 94 -13 94 Z " fill="#6C72FE" transform="translate(98,19)"/>
<path d="M0 0 C2.31 0 4.62 0 7 0 C7 2.97 7 5.94 7 9 C11.62 9 16.24 9 21 9 C21 15.6 21 22.2 21 29 C23.31 29 25.62 29 28 29 C29 30 29 30 29.11352539 33.96899414 C29.1133662 35.74105607 29.10766785 37.5131226 29.09765625 39.28515625 C29.0962413 40.21597519 29.09482635 41.14679413 29.09336853 42.1058197 C29.08775172 45.09141191 29.0751964 48.07693029 29.0625 51.0625 C29.05748716 53.08137913 29.05292388 55.10025943 29.04882812 57.11914062 C29.03777683 62.07945572 29.02050095 67.03971532 29 72 C31.31 72.66 33.62 73.32 36 74 C35 76 35 76 33.34521484 76.61450195 C28.49200924 77.41225457 23.54404055 77.18590312 18.63769531 77.18530273 C16.63863013 77.18748512 14.63960468 77.20599143 12.640625 77.22460938 C11.36960937 77.22654297 10.09859375 77.22847656 8.7890625 77.23046875 C7.63100098 77.23457764 6.47293945 77.23868652 5.27978516 77.24291992 C1.88689046 76.99162245 -0.83332989 76.21173908 -4 75 C-3.67 74.34 -3.34 73.68 -3 73 C-0.4375 72.375 -0.4375 72.375 2 72 C1.32142944 71.99191315 0.64285889 71.98382629 -0.05627441 71.97549438 C-7.19572947 71.88863335 -14.33493245 71.7891071 -21.47412109 71.68261719 C-24.12938188 71.64363425 -26.7845665 71.60971702 -29.43994141 71.578125 C-67.93926359 71.11445232 -67.93926359 71.11445232 -75 67 C-74.67 65.68 -74.34 64.36 -74 63 C-77.43515002 62.37542727 -80.49064814 62 -84 62 C-85.75 60 -85.75 60 -87 58 C-86.34 57.34 -85.68 56.68 -85 56 C-84.83318891 52.91652174 -84.83318891 52.91652174 -85 50 C-86.32 49.67 -87.64 49.34 -89 49 C-88.625 46.0625 -88.625 46.0625 -88 43 C-85.6921509 41.84607545 -83.52769669 41.46562834 -81 41 C-80.505 38.03 -80.505 38.03 -80 35 C-76.535 34.505 -76.535 34.505 -73 34 C-72.67 36.97 -72.34 39.94 -72 43 C-72.969375 43.28875 -73.93875 43.5775 -74.9375 43.875 C-78.10664203 44.64214682 -78.10664203 44.64214682 -79 47 C-79.40270732 51.1283652 -79.40270732 51.1283652 -77.8125 54.8125 C-75.57968261 56.27538036 -73.62655933 56.64505955 -71 57 C-71 54.03 -71 51.06 -71 48 C-69.02 48 -67.04 48 -65 48 C-64.67 48.66 -64.34 49.32 -64 50 C-55.75 50 -47.5 50 -39 50 C-38.505 49.01 -38.505 49.01 -38 48 C-24.47 48 -10.94 48 3 48 C3 46.35 3 44.7 3 43 C2.29915283 43.02618408 1.59830566 43.05236816 0.8762207 43.0793457 C-2.3114565 43.1835354 -5.49877526 43.24839583 -8.6875 43.3125 C-9.79029297 43.35439453 -10.89308594 43.39628906 -12.02929688 43.43945312 C-20.06855724 43.5608921 -20.06855724 43.5608921 -22.88525391 41.86474609 C-24.26953125 40.48046875 -24.26953125 40.48046875 -26 38 C-25.360625 37.855625 -24.72125 37.71125 -24.0625 37.5625 C-22.02454854 37.18992819 -22.02454854 37.18992819 -21 36 C-20.505 35.01 -20.505 35.01 -20 34 C-19.01 33.67 -18.02 33.34 -17 33 C-16.855625 32.360625 -16.71125 31.72125 -16.5625 31.0625 C-16 29 -16 29 -14.1875 27.875 C-13.465625 27.58625 -12.74375 27.2975 -12 27 C-11.401875 26.67 -10.80375 26.34 -10.1875 26 C-7.25750884 24.66057547 -4.09767535 23.8850501 -1 23 C-0.67 15.41 -0.34 7.82 0 0 Z M-66 59 C-66 60.65 -66 62.3 -66 64 C-56.76 63.34 -47.52 62.68 -38 62 C-37.67 61.01 -37.34 60.02 -37 59 C-46.57 59 -56.14 59 -66 59 Z M-13 59 C-13 59.99 -13 60.98 -13 62 C-7.72 62.33 -2.44 62.66 3 63 C3 61.68 3 60.36 3 59 C-2.28 59 -7.56 59 -13 59 Z " fill="#7387FE" transform="translate(98,54)"/>
<path d="M0 0 C0.33 2.97 0.66 5.94 1 9 C0.030625 9.28875 -0.93875 9.5775 -1.9375 9.875 C-5.10664203 10.64214682 -5.10664203 10.64214682 -6 13 C-6.40270732 17.1283652 -6.40270732 17.1283652 -4.8125 20.8125 C-2.57968261 22.27538036 -0.62655933 22.64505955 2 23 C2 20.03 2 17.06 2 14 C3.98 14 5.96 14 8 14 C8.33 14.66 8.66 15.32 9 16 C17.25 16 25.5 16 34 16 C34.33 15.34 34.66 14.68 35 14 C48.53 14 62.06 14 76 14 C76 17.63 76 21.26 76 25 C70.72 25 65.44 25 60 25 C60 25.99 60 26.98 60 28 C60.56847656 27.98839844 61.13695313 27.97679688 61.72265625 27.96484375 C66.60670484 27.90776806 71.18503965 28.18043228 76 29 C76 31.64 76 34.28 76 37 C68.71409984 37.04682155 61.42823335 37.08211748 54.14221191 37.10362434 C50.75718789 37.11395864 47.37226851 37.12792229 43.98730469 37.15087891 C5.5625541 37.39227608 5.5625541 37.39227608 -2 33 C-1.67 31.68 -1.34 30.36 -1 29 C-4.43515002 28.37542727 -7.49064814 28 -11 28 C-12.75 26 -12.75 26 -14 24 C-13.34 23.34 -12.68 22.68 -12 22 C-11.83318891 18.91652174 -11.83318891 18.91652174 -12 16 C-13.32 15.67 -14.64 15.34 -16 15 C-15.625 12.0625 -15.625 12.0625 -15 9 C-12.6921509 7.84607545 -10.52769669 7.46562834 -8 7 C-7.67 5.02 -7.34 3.04 -7 1 C-4 0 -4 0 0 0 Z M7 25 C7 26.65 7 28.3 7 30 C16.24 29.34 25.48 28.68 35 28 C35.33 27.01 35.66 26.02 36 25 C26.43 25 16.86 25 7 25 Z " fill="#B9D4FE" transform="translate(25,88)"/>
<path d="M0 0 C16.83 0 33.66 0 51 0 C51 9.57 51 19.14 51 29 C34.17 29 17.34 29 0 29 C0 19.43 0 9.86 0 0 Z " fill="#43488E" transform="translate(44,47)"/>
<path d="M0 0 C3.3 0 6.6 0 10 0 C10 1.98 10 3.96 10 6 C14.01804691 6.84098656 17.01803543 7.05404945 21 6 C24 10.625 24 10.625 24 14 C25.28197266 13.98259766 25.28197266 13.98259766 26.58984375 13.96484375 C27.69457031 13.95582031 28.79929688 13.94679688 29.9375 13.9375 C31.03964844 13.92589844 32.14179688 13.91429687 33.27734375 13.90234375 C36 14 36 14 37 15 C37.07258946 17.18639453 37.08373783 19.37500389 37.0625 21.5625 C37.05347656 22.76003906 37.04445312 23.95757812 37.03515625 25.19140625 C37.02355469 26.11824219 37.01195312 27.04507813 37 28 C35.02 28.99 35.02 28.99 33 30 C33 31.32 33 32.64 33 34 C32.2575 34.28875 31.515 34.5775 30.75 34.875 C26.06457516 36.49368005 26.06457516 36.49368005 23 40 C19.39760962 36.86243419 19.0042756 36.02137798 18 31 C12.06 30.67 6.12 30.34 0 30 C0 29.34 0 28.68 0 28 C2.31 28.33 4.62 28.66 7 29 C6.94779297 27.51886719 6.94779297 27.51886719 6.89453125 26.0078125 C6.86746094 24.72648437 6.84039062 23.44515625 6.8125 22.125 C6.76029297 20.21074219 6.76029297 20.21074219 6.70703125 18.2578125 C6.80371094 17.18273437 6.90039062 16.10765625 7 15 C7.99 14.34 8.98 13.68 10 13 C8.78410016 11.56844101 8.78410016 11.56844101 5.1875 11.6875 C2.1692278 11.74168801 1.13824172 11.91359892 -1.5 13.5625 C-3.53366895 16.86721204 -3.3468602 19.18453778 -3 23 C-2.67 23.99 -2.34 24.98 -2 26 C-6.29 26 -10.58 26 -15 26 C-13.68 25.01 -12.36 24.02 -11 23 C-10.33333333 20 -10.33333333 20 -11 17 C-12.88077873 15.08743288 -12.88077873 15.08743288 -15 14 C-13.87548273 11.0280615 -12.77706209 8.66559313 -11 6 C-9.39125 6.2784375 -9.39125 6.2784375 -7.75 6.5625 C-4.59608454 6.9304568 -2.90181508 7.04465343 0 6 C0 4.02 0 2.04 0 0 Z " fill="#35D2D3" transform="translate(98,19)"/>
<path d="M0 0 C18.15 0 36.3 0 55 0 C55.495 1.98 55.495 1.98 56 4 C57.91425781 3.96519531 57.91425781 3.96519531 59.8671875 3.9296875 C61.5364525 3.91093171 63.2057238 3.89273131 64.875 3.875 C65.71675781 3.85824219 66.55851562 3.84148438 67.42578125 3.82421875 C68.23144531 3.81777344 69.03710938 3.81132813 69.8671875 3.8046875 C70.61081543 3.79421387 71.35444336 3.78374023 72.12060547 3.77294922 C74 4 74 4 76 6 C76.40047444 8.32275177 76.7397104 10.65739357 77 13 C82.92378337 11.12929104 82.92378337 11.12929104 87 7 C87.99 7.495 87.99 7.495 89 8 C89 6.68 89 5.36 89 4 C90.32 3.34 91.64 2.68 93 2 C93 5.3 93 8.6 93 12 C94.65 12.66 96.3 13.32 98 14 C97.67 14.99 97.34 15.98 97 17 C97.495 17.99 97.495 17.99 98 19 C100.02463255 19.65213292 100.02463255 19.65213292 102 20 C102 21.65 102 23.3 102 25 C100.68 25 99.36 25 98 25 C98 27.31 98 29.62 98 32 C93.48571429 33.12857143 93.48571429 33.12857143 90.875 32.4375 C90.25625 32.293125 89.6375 32.14875 89 32 C88.01 32.66 87.02 33.32 86 34 C84.68 33.01 83.36 32.02 82 31 C82.495 29.515 82.495 29.515 83 28 C82.360625 27.773125 81.72125 27.54625 81.0625 27.3125 C79 26 79 26 78.25 23.375 C78.1675 22.59125 78.085 21.8075 78 21 C79.32 20.34 80.64 19.68 82 19 C75.73 18.67 69.46 18.34 63 18 C63 15.03 63 12.06 63 9 C60.69 9 58.38 9 56 9 C56.00523682 9.69150146 56.01047363 10.38300293 56.01586914 11.09545898 C56.036575 14.20946352 56.04963963 17.32345361 56.0625 20.4375 C56.07087891 21.52611328 56.07925781 22.61472656 56.08789062 23.73632812 C56.09111328 24.77080078 56.09433594 25.80527344 56.09765625 26.87109375 C56.10289307 27.82943115 56.10812988 28.78776855 56.11352539 29.77514648 C56 32 56 32 55 33 C53.00035018 33.08758003 50.9976389 33.10696576 48.99609375 33.09765625 C47.78115234 33.09443359 46.56621094 33.09121094 45.31445312 33.08789062 C44.03505859 33.07951172 42.75566406 33.07113281 41.4375 33.0625 C40.15423828 33.05798828 38.87097656 33.05347656 37.54882812 33.04882812 C34.36583978 33.03699545 31.18294238 33.02051068 28 33 C28 32.34 28 31.68 28 31 C36.25 31 44.5 31 53 31 C53 21.43 53 11.86 53 2 C36.17 2 19.34 2 2 2 C2 2.66 2 3.32 2 4 C1.01 4 0.02 4 -1 4 C-0.67 2.68 -0.34 1.36 0 0 Z M85 20 C84.6366844 22.83386167 84.6431329 24.40522151 86.125 26.875 C88.92151052 28.55290631 90.93690532 27.74875648 94 27 C94.67673447 23.59679066 94.67673447 23.59679066 95 20 C93.11499729 17.68436913 93.11499729 17.68436913 90 17.75 C86.88500271 17.68436913 86.88500271 17.68436913 85 20 Z " fill="#38C5D2" transform="translate(42,45)"/>
<path d="M0 0 C0.9178125 0.00902344 1.835625 0.01804687 2.78125 0.02734375 C5.02094838 0.05067394 7.26051041 0.08653548 9.5 0.125 C9.5 5.735 9.5 11.345 9.5 17.125 C12.8 17.125 16.1 17.125 19.5 17.125 C19.5 26.035 19.5 34.945 19.5 44.125 C28.08 44.125 36.66 44.125 45.5 44.125 C45.5 44.785 45.5 45.445 45.5 46.125 C54.08 46.125 62.66 46.125 71.5 46.125 C71.5 46.455 71.5 46.785 71.5 47.125 C63.98863592 47.17557965 56.47731551 47.21068257 48.96582031 47.23486328 C46.40883747 47.24494038 43.85186621 47.25860226 41.29492188 47.27587891 C37.62627308 47.30005217 33.95777621 47.31146585 30.2890625 47.3203125 C28.5655809 47.33579636 28.5655809 47.33579636 26.80728149 47.35159302 C25.7463327 47.35174408 24.68538391 47.35189514 23.59228516 47.35205078 C22.65518707 47.356492 21.71808899 47.36093323 20.75259399 47.36550903 C18.5 47.125 18.5 47.125 16.5 45.125 C16.0859375 42.0859375 16.0859375 42.0859375 15.875 38.5 C15.80023438 37.31148437 15.72546875 36.12296875 15.6484375 34.8984375 C15.59945312 33.98320313 15.55046875 33.06796875 15.5 32.125 C13.85 32.785 12.2 33.445 10.5 34.125 C10.17 31.815 9.84 29.505 9.5 27.125 C6.86 27.125 4.22 27.125 1.5 27.125 C1.5 24.815 1.5 22.505 1.5 20.125 C0.64535156 20.13660156 -0.20929687 20.14820312 -1.08984375 20.16015625 C-2.19457031 20.16917969 -3.29929687 20.17820312 -4.4375 20.1875 C-5.53964844 20.19910156 -6.64179688 20.21070312 -7.77734375 20.22265625 C-10.5 20.125 -10.5 20.125 -11.5 19.125 C-11.57319621 16.42845146 -11.59242537 13.75808542 -11.5625 11.0625 C-11.55798828 10.30388672 -11.55347656 9.54527344 -11.54882812 8.76367188 C-11.5370068 6.88408129 -11.51907078 5.00453101 -11.5 3.125 C-13.81 3.125 -16.12 3.125 -18.5 3.125 C-18.5 2.795 -18.5 2.465 -18.5 2.125 C-12.18911704 0.25237819 -6.56038603 -0.12396078 0 0 Z " fill="#5833FF" transform="translate(24.5,31.875)"/>
<path d="M0 0 C0.33 2.97 0.66 5.94 1 9 C0.030625 9.28875 -0.93875 9.5775 -1.9375 9.875 C-5.10664203 10.64214682 -5.10664203 10.64214682 -6 13 C-6.45565588 17.050918 -6.45565588 17.050918 -4.80859375 20.5859375 C-2.56396384 22.34091812 -0.55436719 22.93971804 2.1875 23.6875 C3.08855469 23.93886719 3.98960938 24.19023438 4.91796875 24.44921875 C5.60503906 24.63097656 6.29210937 24.81273438 7 25 C7 26.65 7 28.3 7 30 C7.54366211 29.84152588 8.08732422 29.68305176 8.64746094 29.51977539 C11.34402563 28.92399019 13.88069895 28.78635695 16.640625 28.68359375 C18.24550781 28.62075195 18.24550781 28.62075195 19.8828125 28.55664062 C20.99398437 28.51732422 22.10515625 28.47800781 23.25 28.4375 C24.37664063 28.39431641 25.50328125 28.35113281 26.6640625 28.30664062 C29.44258954 28.20067985 32.22120391 28.09860858 35 28 C34.67 28.66 34.34 29.32 34 30 C31.35139573 30.59355614 28.70802678 30.74209269 26 31 C26 31.66 26 32.32 26 33 C40.19 33 54.38 33 69 33 C68.67 32.34 68.34 31.68 68 31 C66.845 30.835 65.69 30.67 64.5 30.5 C63.345 30.335 62.19 30.17 61 30 C60.505 29.01 60.505 29.01 60 28 C65.45769811 27.88861841 70.61509359 28.08342019 76 29 C76 31.64 76 34.28 76 37 C68.71409984 37.04682155 61.42823335 37.08211748 54.14221191 37.10362434 C50.75718789 37.11395864 47.37226851 37.12792229 43.98730469 37.15087891 C5.5625541 37.39227608 5.5625541 37.39227608 -2 33 C-1.67 31.68 -1.34 30.36 -1 29 C-4.43515002 28.37542727 -7.49064814 28 -11 28 C-12.75 26 -12.75 26 -14 24 C-13.34 23.34 -12.68 22.68 -12 22 C-11.83318891 18.91652174 -11.83318891 18.91652174 -12 16 C-13.32 15.67 -14.64 15.34 -16 15 C-15.625 12.0625 -15.625 12.0625 -15 9 C-12.6921509 7.84607545 -10.52769669 7.46562834 -8 7 C-7.67 5.02 -7.34 3.04 -7 1 C-4 0 -4 0 0 0 Z " fill="#EAEBF2" transform="translate(25,88)"/>
<path d="M0 0 C1.12019531 -0.00128906 2.24039063 -0.00257812 3.39453125 -0.00390625 C4.57402344 -0.00003906 5.75351562 0.00382812 6.96875 0.0078125 C8.73798828 0.00201172 8.73798828 0.00201172 10.54296875 -0.00390625 C12.22326172 -0.00197266 12.22326172 -0.00197266 13.9375 0 C14.97326172 0.00112793 16.00902344 0.00225586 17.07617188 0.00341797 C19.46875 0.1328125 19.46875 0.1328125 20.46875 1.1328125 C20.56861975 3.97616298 20.60752881 6.78978413 20.59375 9.6328125 C20.59955078 10.82970703 20.59955078 10.82970703 20.60546875 12.05078125 C20.59535767 18.00620483 20.59535767 18.00620483 19.46875 19.1328125 C17.62715977 19.23240871 15.78178033 19.26361661 13.9375 19.265625 C12.81730469 19.26691406 11.69710937 19.26820312 10.54296875 19.26953125 C9.36347656 19.26566406 8.18398438 19.26179688 6.96875 19.2578125 C5.19951172 19.26361328 5.19951172 19.26361328 3.39453125 19.26953125 C1.71423828 19.26759766 1.71423828 19.26759766 0 19.265625 C-1.03576172 19.26449707 -2.07152344 19.26336914 -3.13867188 19.26220703 C-5.53125 19.1328125 -5.53125 19.1328125 -6.53125 18.1328125 C-6.63111975 15.28946202 -6.67002881 12.47584087 -6.65625 9.6328125 C-6.66011719 8.83488281 -6.66398437 8.03695312 -6.66796875 7.21484375 C-6.65573175 0.007248 -6.65573175 0.007248 0 0 Z " fill="#40D6CD" transform="translate(39.53125,85.8671875)"/>
<path d="M0 0 C0.83265381 0.00523682 1.66530762 0.01047363 2.52319336 0.01586914 C3.33280518 0.0183667 4.14241699 0.02086426 4.9765625 0.0234375 C6.01159912 0.0325415 7.04663574 0.04164551 8.11303711 0.05102539 C11.39241211 0.07165039 14.67178711 0.09227539 18.05053711 0.11352539 C18.05053711 7.04352539 18.05053711 13.97352539 18.05053711 21.11352539 C11.12053711 21.11352539 4.19053711 21.11352539 -2.94946289 21.11352539 C-2.97008789 17.83415039 -2.99071289 14.55477539 -3.01196289 11.17602539 C-3.02106689 10.14098877 -3.0301709 9.10595215 -3.03955078 8.03955078 C-3.04329712 6.82513306 -3.04329712 6.82513306 -3.04711914 5.58618164 C-3.05235596 4.75352783 -3.05759277 3.92087402 -3.06298828 3.06298828 C-2.90876673 0.41468917 -2.64829911 0.15422155 0 0 Z " fill="#37D2D3" transform="translate(15.949462890625,58.886474609375)"/>
<path d="M0 0 C4.29 0 8.58 0 13 0 C13 3.63 13 7.26 13 11 C7.72 11 2.44 11 -3 11 C-2.505 12.98 -2.505 12.98 -2 15 C0.31 15.33 2.62 15.66 5 16 C5.495 17.485 5.495 17.485 6 19 C-8.19 19 -22.38 19 -37 19 C-37 18.34 -37 17.68 -37 17 C-34.98177083 16.609375 -32.96354167 16.21875 -30.9453125 15.828125 C-28.80560662 15.17252612 -28.80560662 15.17252612 -28.046875 12.96875 C-27.70140625 12.3190625 -27.3559375 11.669375 -27 11 C-24.7578125 10.390625 -24.7578125 10.390625 -22.125 10.25 C-21.26132813 10.19328125 -20.39765625 10.1365625 -19.5078125 10.078125 C-16.33816326 9.97938203 -13.17093748 10 -10 10 C-8.97895449 9.02149805 -7.9793879 8.02019573 -7 7 C-6.01 6.67 -5.02 6.34 -4 6 C-3.34 5.01 -2.68 4.02 -2 3 C-1.01 2.67 -0.02 2.34 1 2 C0.505 1.01 0.505 1.01 0 0 Z " fill="#B1CFFE" transform="translate(88,102)"/>
<path d="M0 0 C1.32 0 2.64 0 4 0 C4 6.6 4 13.2 4 20 C6.31 20 8.62 20 11 20 C12 21 12 21 12.09765625 23.50390625 C12.08605469 24.51324219 12.07445313 25.52257812 12.0625 26.5625 C12.05347656 27.57441406 12.04445313 28.58632812 12.03515625 29.62890625 C12.02355469 30.41136719 12.01195313 31.19382812 12 32 C9.27863114 32.75466851 6.7807832 33.1466525 3.9609375 33.24609375 C3.21585938 33.27896484 2.47078125 33.31183594 1.703125 33.34570312 C0.1433894 33.40720277 -1.41651919 33.46445373 -2.9765625 33.51757812 C-7.45923497 33.54805111 -7.45923497 33.54805111 -11 36 C-13.65450267 33.34549733 -13.41639121 31.69774614 -13.6875 28 C-13.77386719 26.9275 -13.86023438 25.855 -13.94921875 24.75 C-14 22 -14 22 -13 20 C-8.71 20 -4.42 20 0 20 C0 13.4 0 6.8 0 0 Z " fill="#655CFE" transform="translate(115,63)"/>
<path d="M0 0 C0.66 1.32 1.32 2.64 2 4 C3.65 3.34 5.3 2.68 7 2 C7.06058594 2.99902344 7.12117188 3.99804688 7.18359375 5.02734375 C7.26738281 6.31769531 7.35117187 7.60804687 7.4375 8.9375 C7.51871094 10.22527344 7.59992187 11.51304688 7.68359375 12.83984375 C7.64919188 15.86023957 7.64919188 15.86023957 9 17 C11.18292774 17.23481693 13.37203174 17.41363323 15.5625 17.5625 C16.76003906 17.64628906 17.95757812 17.73007813 19.19140625 17.81640625 C20.58166016 17.90728516 20.58166016 17.90728516 22 18 C20.6875 19.5 20.6875 19.5 19 21 C18.01 21 17.02 21 16 21 C16 22.32 16 23.64 16 25 C10.72 25.33 5.44 25.66 0 26 C-0.33 30.95 -0.66 35.9 -1 41 C-3.31 41 -5.62 41 -8 41 C-8 33.74 -8 26.48 -8 19 C-5.36 19 -2.72 19 0 19 C0 12.73 0 6.46 0 0 Z " fill="#5F52FD" transform="translate(34,61)"/>
<path d="M0 0 C3.3 0 6.6 0 10 0 C10 1.98 10 3.96 10 6 C14.01804691 6.84098656 17.01803543 7.05404945 21 6 C24 10.625 24 10.625 24 14 C21.87527424 14.05386629 19.75016348 14.09273071 17.625 14.125 C15.84996094 14.15980469 15.84996094 14.15980469 14.0390625 14.1953125 C11 14 11 14 9 12 C3.43622348 11.41262964 3.43622348 11.41262964 -1.5 13.5625 C-3.53366895 16.86721204 -3.3468602 19.18453778 -3 23 C-2.67 23.99 -2.34 24.98 -2 26 C-6.29 26 -10.58 26 -15 26 C-13.68 25.01 -12.36 24.02 -11 23 C-10.33333333 20 -10.33333333 20 -11 17 C-12.88077873 15.08743288 -12.88077873 15.08743288 -15 14 C-13.87548273 11.0280615 -12.77706209 8.66559313 -11 6 C-9.39125 6.2784375 -9.39125 6.2784375 -7.75 6.5625 C-4.59608454 6.9304568 -2.90181508 7.04465343 0 6 C0 4.02 0 2.04 0 0 Z " fill="#E8EAF1" transform="translate(98,19)"/>
<path d="M0 0 C1.32 0 2.64 0 4 0 C4 9.57 4 19.14 4 29 C-4.25 29 -12.5 29 -21 29 C-21 25.7 -21 22.4 -21 19 C-20.01 19 -19.02 19 -18 19 C-16.66233238 18.93540991 -15.3250912 18.86165962 -13.98828125 18.78125 C-13.30548096 18.74064453 -12.62268066 18.70003906 -11.91918945 18.65820312 C-10.62887817 18.57989258 -10.62887817 18.57989258 -9.3125 18.5 C-5.1978125 18.2525 -5.1978125 18.2525 -1 18 C-0.67 12.06 -0.34 6.12 0 0 Z " fill="#7285FE" transform="translate(123,95)"/>
<path d="M0 0 C1.58206057 0.00667536 3.16410534 0.0186375 4.74609375 0.03515625 C5.55240234 0.03966797 6.35871094 0.04417969 7.18945312 0.04882812 C9.18753131 0.06065107 11.18557158 0.07858711 13.18359375 0.09765625 C13.21043687 2.91021906 13.23035563 5.72252866 13.24609375 8.53515625 C13.25447266 9.33759766 13.26285156 10.14003906 13.27148438 10.96679688 C13.28010805 13.01060846 13.23587525 15.05449527 13.18359375 17.09765625 C11.36243372 18.91881628 8.87687611 18.23000705 6.45703125 18.234375 C5.70679687 18.23050781 4.9565625 18.22664063 4.18359375 18.22265625 C3.05824219 18.22845703 3.05824219 18.22845703 1.91015625 18.234375 C-3.68979572 18.22426678 -3.68979572 18.22426678 -4.81640625 17.09765625 C-4.91621839 14.42034245 -4.955205 11.7746145 -4.94140625 9.09765625 C-4.94527344 8.34742187 -4.94914062 7.5971875 -4.953125 6.82421875 C-4.94103514 0.12643386 -4.94103514 0.12643386 0 0 Z " fill="#9FE5F1" transform="translate(109.81640625,95.90234375)"/>
<path d="M0 0 C0.33 0 0.66 0 1 0 C1.07347656 1.15628906 1.07347656 1.15628906 1.1484375 2.3359375 C1.22320312 3.33882813 1.29796875 4.34171875 1.375 5.375 C1.44460937 6.37273437 1.51421875 7.37046875 1.5859375 8.3984375 C1.76363964 11.15508879 1.76363964 11.15508879 4 13 C4.3063859 15.73434962 4.5113336 18.38279821 4.625 21.125 C4.66367188 21.87910156 4.70234375 22.63320312 4.7421875 23.41015625 C4.83651031 25.27303184 4.91934662 27.13648255 5 29 C4.01 28.67 3.02 28.34 2 28 C1.67 31.3 1.34 34.6 1 38 C9.25 38 17.5 38 26 38 C26 38.66 26 39.32 26 40 C28.31 40.66 30.62 41.32 33 42 C32 44 32 44 30.34521484 44.61450195 C25.49200924 45.41225457 20.54404055 45.18590312 15.63769531 45.18530273 C13.63863013 45.18748512 11.63960468 45.20599143 9.640625 45.22460938 C8.36960937 45.22654297 7.09859375 45.22847656 5.7890625 45.23046875 C4.63100098 45.23457764 3.47293945 45.23868652 2.27978516 45.24291992 C-1.11310954 44.99162245 -3.83332989 44.21173908 -7 43 C-6 41 -6 41 0 39 C0 26.13 0 13.26 0 0 Z " fill="#5F54E4" transform="translate(101,86)"/>
<path d="M0 0 C5.61 0 11.22 0 17 0 C17 5.28 17 10.56 17 16 C11.39 16 5.78 16 0 16 C0 10.72 0 5.44 0 0 Z " fill="#3E4B96" transform="translate(15,34)"/>
<path d="M0 0 C7.81452752 -0.02526563 15.62904458 -0.04283105 23.44360352 -0.05493164 C26.10441481 -0.05997383 28.76522332 -0.06680736 31.42602539 -0.07543945 C35.24105516 -0.08751009 39.05604844 -0.09322929 42.87109375 -0.09765625 C44.66793861 -0.10539818 44.66793861 -0.10539818 46.50108337 -0.11329651 C48.15268211 -0.11340981 48.15268211 -0.11340981 49.83764648 -0.11352539 C50.81249496 -0.115746 51.78734344 -0.11796661 52.79173279 -0.12025452 C55 0 55 0 56 1 C56.1002093 3.27947792 56.13081303 5.56207135 56.1328125 7.84375 C56.13376923 8.52804077 56.13472595 9.21233154 56.13571167 9.9173584 C56.1363933 11.36661877 56.13454023 12.81588218 56.13037109 14.26513672 C56.12502252 16.49062928 56.1303166 18.71592001 56.13671875 20.94140625 C56.13605797 22.34635461 56.1347768 23.75130285 56.1328125 25.15625 C56.13168457 26.44337891 56.13055664 27.73050781 56.12939453 29.05664062 C56 32 56 32 55 33 C53.00035018 33.08758003 50.9976389 33.10696576 48.99609375 33.09765625 C47.78115234 33.09443359 46.56621094 33.09121094 45.31445312 33.08789062 C44.03505859 33.07951172 42.75566406 33.07113281 41.4375 33.0625 C40.15423828 33.05798828 38.87097656 33.05347656 37.54882812 33.04882812 C34.36583978 33.03699545 31.18294238 33.02051068 28 33 C28 32.34 28 31.68 28 31 C36.25 31 44.5 31 53 31 C53 21.43 53 11.86 53 2 C36.17 2 19.34 2 2 2 C2 2.66 2 3.32 2 4 C1.01 4 0.02 4 -1 4 C-0.67 2.68 -0.34 1.36 0 0 Z " fill="#37DAC6" transform="translate(42,45)"/>
<path d="M0 0 C1.12019531 -0.00128906 2.24039063 -0.00257812 3.39453125 -0.00390625 C4.57402344 -0.00003906 5.75351562 0.00382812 6.96875 0.0078125 C8.73798828 0.00201172 8.73798828 0.00201172 10.54296875 -0.00390625 C12.22326172 -0.00197266 12.22326172 -0.00197266 13.9375 0 C14.97326172 0.00112793 16.00902344 0.00225586 17.07617188 0.00341797 C19.46875 0.1328125 19.46875 0.1328125 20.46875 1.1328125 C20.50938832 2.79898365 20.511471 4.46669345 20.46875 6.1328125 C19.829375 6.2359375 19.19 6.3390625 18.53125 6.4453125 C17.5103125 6.785625 17.5103125 6.785625 16.46875 7.1328125 C16.13875 8.1228125 15.80875 9.1128125 15.46875 10.1328125 C15.035625 9.6584375 14.6025 9.1840625 14.15625 8.6953125 C12.44565387 6.89594293 12.44565387 6.89594293 9.46875 6.1328125 C9.46875 5.1428125 9.46875 4.1528125 9.46875 3.1328125 C8.80875 3.1328125 8.14875 3.1328125 7.46875 3.1328125 C7.13875 4.7828125 6.80875 6.4328125 6.46875 8.1328125 C5.47875 8.1328125 4.48875 8.1328125 3.46875 8.1328125 C3.46875 7.1428125 3.46875 6.1528125 3.46875 5.1328125 C2.80875 5.1328125 2.14875 5.1328125 1.46875 5.1328125 C1.13875 6.1228125 0.80875 7.1128125 0.46875 8.1328125 C-0.19125 8.7928125 -0.85125 9.4528125 -1.53125 10.1328125 C-0.70625 10.7515625 0.11875 11.3703125 0.96875 12.0078125 C1.79375 12.7090625 2.61875 13.4103125 3.46875 14.1328125 C3.46875 14.7928125 3.46875 15.4528125 3.46875 16.1328125 C0.16875 16.1328125 -3.13125 16.1328125 -6.53125 16.1328125 C-6.55810095 13.65357449 -6.57801547 11.1746241 -6.59375 8.6953125 C-6.60631836 7.63473633 -6.60631836 7.63473633 -6.61914062 6.55273438 C-6.62778588 4.74587691 -6.58345011 2.93893647 -6.53125 1.1328125 C-4.78579395 -0.61264355 -2.37000783 0.0025809 0 0 Z " fill="#42ACE4" transform="translate(39.53125,85.8671875)"/>
<path d="M0 0 C13.53 0 27.06 0 41 0 C41 1.65 41 3.3 41 5 C27.47 5 13.94 5 0 5 C0 3.35 0 1.7 0 0 Z " fill="#3C3D89" transform="translate(60,97)"/>
<path d="M0 0 C1.65 0.66 3.3 1.32 5 2 C4.67 2.99 4.34 3.98 4 5 C4.33 5.66 4.66 6.32 5 7 C7.02463255 7.65213292 7.02463255 7.65213292 9 8 C9 9.65 9 11.3 9 13 C7.68 13 6.36 13 5 13 C5 15.31 5 17.62 5 20 C0.48571429 21.12857143 0.48571429 21.12857143 -2.125 20.4375 C-3.053125 20.2209375 -3.053125 20.2209375 -4 20 C-4.99 20.66 -5.98 21.32 -7 22 C-8.32 21.01 -9.64 20.02 -11 19 C-10.67 18.01 -10.34 17.02 -10 16 C-10.639375 15.773125 -11.27875 15.54625 -11.9375 15.3125 C-14 14 -14 14 -14.75 11.375 C-14.8325 10.59125 -14.915 9.8075 -15 9 C-10.56923077 5.92307692 -10.56923077 5.92307692 -7.6875 6.3125 C-7.130625 6.539375 -6.57375 6.76625 -6 7 C-6.33 7.33 -6.66 7.66 -7 8 C-7.2500773 10.45809998 -7.2500773 10.45809998 -7 13 C-5.10244856 15.34973818 -5.10244856 15.34973818 -1.875 15.125 C-0.451875 15.063125 -0.451875 15.063125 1 15 C1.29562367 9.67829506 1.29562367 9.67829506 -1 5 C-0.625 2.3125 -0.625 2.3125 0 0 Z " fill="#EAEBF2" transform="translate(135,57)"/>
<path d="M0 0 C0.99 0 1.98 0 3 0 C3 8.91 3 17.82 3 27 C11.58 27 20.16 27 29 27 C29 27.66 29 28.32 29 29 C37.58 29 46.16 29 55 29 C55 29.33 55 29.66 55 30 C47.48863592 30.05057965 39.97731551 30.08568257 32.46582031 30.10986328 C29.90883747 30.11994038 27.35186621 30.13360226 24.79492188 30.15087891 C21.12627308 30.17505217 17.45777621 30.18646585 13.7890625 30.1953125 C12.0655809 30.21079636 12.0655809 30.21079636 10.30728149 30.22659302 C9.2463327 30.22674408 8.18538391 30.22689514 7.09228516 30.22705078 C6.15518707 30.231492 5.21808899 30.23593323 4.25259399 30.24050903 C2 30 2 30 0 28 C-0.22705078 25.20263672 -0.22705078 25.20263672 -0.1953125 21.6796875 C-0.18886719 20.42285156 -0.18242188 19.16601562 -0.17578125 17.87109375 C-0.15902344 16.55238281 -0.14226563 15.23367187 -0.125 13.875 C-0.11496983 12.53516279 -0.10584404 11.19531848 -0.09765625 9.85546875 C-0.07402075 6.57013427 -0.04107234 3.28515535 0 0 Z " fill="#42ABE3" transform="translate(41,49)"/>
<path d="M0 0 C0 0.66 0 1.32 0 2 C2.475 2.495 2.475 2.495 5 3 C4.01 3.495 4.01 3.495 3 4 C3.33 4.66 3.66 5.32 4 6 C10.27 6.33 16.54 6.66 23 7 C23 7.66 23 8.32 23 9 C8.81 9 -5.38 9 -20 9 C-20 8.34 -20 7.68 -20 7 C-18.72125 6.7525 -17.4425 6.505 -16.125 6.25 C-13.91983176 5.76256896 -13.91983176 5.76256896 -12 5 C-11.31731862 3.67479497 -10.6492959 2.34187818 -10 1 C-6.5881679 0.25560027 -3.48605314 0 0 0 Z " fill="#A2C5FE" transform="translate(71,112)"/>
<path d="M0 0 C1.98 0 3.96 0 6 0 C6.33 0.66 6.66 1.32 7 2 C10.56073004 2.35971569 14.10322357 2.44476379 17.6796875 2.55859375 C21 3 21 3 22.9453125 4.53515625 C23.29335938 5.01855469 23.64140625 5.50195312 24 6 C23.01 6.495 23.01 6.495 22 7 C21.01 6.67 20.02 6.34 19 6 C18.855625 6.639375 18.71125 7.27875 18.5625 7.9375 C18 10 18 10 17 11 C14.3226862 11.09981214 11.67695825 11.13879875 9 11.125 C7.87464844 11.13080078 7.87464844 11.13080078 6.7265625 11.13671875 C1.12661053 11.12661053 1.12661053 11.12661053 0 10 C-0.07205511 8.31391034 -0.08386068 6.62499341 -0.0625 4.9375 C-0.05347656 4.01839844 -0.04445313 3.09929687 -0.03515625 2.15234375 C-0.02355469 1.44207031 -0.01195313 0.73179688 0 0 Z " fill="#C5DCFE" transform="translate(27,102)"/>
<path d="M0 0 C1.32 0 2.64 0 4 0 C4 6.6 4 13.2 4 20 C6.31 20 8.62 20 11 20 C11.33 20.99 11.66 21.98 12 23 C3.19039858 24.30512614 -5.19039858 24.30512614 -14 23 C-13.505 21.515 -13.505 21.515 -13 20 C-8.71 20 -4.42 20 0 20 C0 13.4 0 6.8 0 0 Z " fill="#4C4CA1" transform="translate(115,63)"/>
<path d="M0 0 C3.135 0.04125 6.27 0.0825 9.5 0.125 C9.5 6.725 9.5 13.325 9.5 20.125 C6.220625 20.145625 2.94125 20.16625 -0.4375 20.1875 C-1.47253662 20.196604 -2.50757324 20.20570801 -3.57397461 20.21508789 C-4.38358643 20.21758545 -5.19319824 20.22008301 -6.02734375 20.22265625 C-7.27632446 20.23051147 -7.27632446 20.23051147 -8.55053711 20.23852539 C-10.5 20.125 -10.5 20.125 -11.5 19.125 C-11.57319621 16.42845146 -11.59242537 13.75808542 -11.5625 11.0625 C-11.55798828 10.30388672 -11.55347656 9.54527344 -11.54882812 8.76367188 C-11.5370068 6.88408129 -11.51907078 5.00453101 -11.5 3.125 C-13.81 3.125 -16.12 3.125 -18.5 3.125 C-18.5 2.795 -18.5 2.465 -18.5 2.125 C-12.19074893 0.25286242 -6.55535459 -0.12288571 0 0 Z M-9.5 2.125 C-9.5 7.405 -9.5 12.685 -9.5 18.125 C-3.89 18.125 1.72 18.125 7.5 18.125 C7.5 12.845 7.5 7.565 7.5 2.125 C1.89 2.125 -3.72 2.125 -9.5 2.125 Z " fill="#33D4CE" transform="translate(24.5,31.875)"/>
<path d="M0 0 C1.31871094 -0.01224609 2.63742188 -0.02449219 3.99609375 -0.03710938 C5.90068359 -0.04000977 5.90068359 -0.04000977 7.84375 -0.04296875 C9.00068359 -0.04707764 10.15761719 -0.05118652 11.34960938 -0.05541992 C14.47736509 0.18575467 16.680892 0.85423629 19.5 2.1875 C18.5 4.1875 18.5 4.1875 16.84521484 4.80200195 C11.99200924 5.59975457 7.04404055 5.37340312 2.13769531 5.37280273 C0.13863013 5.37498512 -1.86039532 5.39349143 -3.859375 5.41210938 C-5.13039063 5.41404297 -6.40140625 5.41597656 -7.7109375 5.41796875 C-8.86899902 5.42207764 -10.02706055 5.42618652 -11.22021484 5.43041992 C-14.61310954 5.17912245 -17.33332989 4.39923908 -20.5 3.1875 C-20.17 2.5275 -19.84 1.8675 -19.5 1.1875 C-13.23640183 -0.60566158 -6.45139424 0.00315317 0 0 Z " fill="#EAEBF2" transform="translate(114.5,125.8125)"/>
<path d="M0 0 C0.02685095 2.47923801 0.04676547 4.9581884 0.0625 7.4375 C0.07087891 8.14455078 0.07925781 8.85160156 0.08789062 9.58007812 C0.09653588 11.38693559 0.05220011 13.19387603 0 15 C-1 16 -1 16 -4.37890625 16.09765625 C-5.77347077 16.09098369 -7.16801743 16.07902532 -8.5625 16.0625 C-9.27341797 16.05798828 -9.98433594 16.05347656 -10.71679688 16.04882812 C-12.47790013 16.03700864 -14.23896036 16.01907263 -16 16 C-16 14.35 -16 12.7 -16 11 C-15.2575 10.71125 -14.515 10.4225 -13.75 10.125 C-9.06457516 8.50631995 -9.06457516 8.50631995 -6 5 C-5.34 5.33 -4.68 5.66 -4 6 C-4 4.68 -4 3.36 -4 2 C-1 0 -1 0 0 0 Z " fill="#35DDC4" transform="translate(135,47)"/>
<path d="M0 0 C1.58206057 0.00667536 3.16410534 0.0186375 4.74609375 0.03515625 C5.55240234 0.03966797 6.35871094 0.04417969 7.18945312 0.04882812 C9.18753131 0.06065107 11.18557158 0.07858711 13.18359375 0.09765625 C13.21043687 2.91021906 13.23035563 5.72252866 13.24609375 8.53515625 C13.25447266 9.33759766 13.26285156 10.14003906 13.27148438 10.96679688 C13.28010805 13.01060846 13.23587525 15.05449527 13.18359375 17.09765625 C11.36243372 18.91881628 8.87687611 18.23000705 6.45703125 18.234375 C5.70679687 18.23050781 4.9565625 18.22664063 4.18359375 18.22265625 C3.05824219 18.22845703 3.05824219 18.22845703 1.91015625 18.234375 C-3.68979572 18.22426678 -3.68979572 18.22426678 -4.81640625 17.09765625 C-4.91621839 14.42034245 -4.955205 11.7746145 -4.94140625 9.09765625 C-4.94527344 8.34742187 -4.94914062 7.5971875 -4.953125 6.82421875 C-4.94103514 0.12643386 -4.94103514 0.12643386 0 0 Z M-1.25390625 3.66015625 C-3.42036653 7.03983429 -3.37928627 9.15749612 -2.81640625 13.09765625 C-1.33647469 15.66104314 -1.33647469 15.66104314 1.18359375 17.09765625 C4.14051084 17.8478082 4.14051084 17.8478082 7.18359375 17.09765625 C10.54703864 14.61163176 11.98417124 13.18340102 12.74609375 9.03515625 C12.3684543 6.04873369 12.3684543 6.04873369 10.62109375 3.72265625 C6.53362403 0.99767644 2.87655597 1.01242406 -1.25390625 3.66015625 Z " fill="#4AC0F0" transform="translate(109.81640625,95.90234375)"/>
<path d="M0 0 C1.02787125 0.00212242 1.02787125 0.00212242 2.07650757 0.00428772 C4.26719511 0.0098895 6.4577808 0.02244219 8.6484375 0.03515625 C10.13281102 0.04017103 11.61718615 0.04473397 13.1015625 0.04882812 C16.74222065 0.05985948 20.38281914 0.07712526 24.0234375 0.09765625 C24.0234375 1.41765625 24.0234375 2.73765625 24.0234375 4.09765625 C13.4634375 4.09765625 2.9034375 4.09765625 -7.9765625 4.09765625 C-8.3065625 3.10765625 -8.6365625 2.11765625 -8.9765625 1.09765625 C-6.00296801 -0.389141 -3.31357071 -0.0134698 0 0 Z " fill="#325EB3" transform="translate(65.9765625,53.90234375)"/>
<path d="M0 0 C2.31 0 4.62 0 7 0 C7.33 1.65 7.66 3.3 8 5 C8.99 5 9.98 5 11 5 C11 6.32 11 7.64 11 9 C10.01 9 9.02 9 8 9 C8 10.32 8 11.64 8 13 C5.36 13 2.72 13 0 13 C-0.33 11.35 -0.66 9.7 -1 8 C-1.66 8 -2.32 8 -3 8 C-3 7.01 -3 6.02 -3 5 C-2.34 5 -1.68 5 -1 5 C-0.67 3.35 -0.34 1.7 0 0 Z " fill="#E1F6F9" transform="translate(20,63)"/>
<path d="M0 0 C1.65322266 0.01740234 1.65322266 0.01740234 3.33984375 0.03515625 C4.99693359 0.04869141 4.99693359 0.04869141 6.6875 0.0625 C7.54214844 0.07410156 8.39679687 0.08570313 9.27734375 0.09765625 C8.94734375 1.74765625 8.61734375 3.39765625 8.27734375 5.09765625 C6.62734375 5.09765625 4.97734375 5.09765625 3.27734375 5.09765625 C2.94734375 6.41765625 2.61734375 7.73765625 2.27734375 9.09765625 C1.28734375 9.09765625 0.29734375 9.09765625 -0.72265625 9.09765625 C-0.72265625 12.06765625 -0.72265625 15.03765625 -0.72265625 18.09765625 C-1.71265625 18.09765625 -2.70265625 18.09765625 -3.72265625 18.09765625 C-3.74949937 15.28509344 -3.76941813 12.47278384 -3.78515625 9.66015625 C-3.79353516 8.85771484 -3.80191406 8.05527344 -3.81054688 7.22851562 C-3.81917055 5.18470404 -3.77493775 3.14081723 -3.72265625 1.09765625 C-2.72265625 0.09765625 -2.72265625 0.09765625 0 0 Z " fill="#32C8DD" transform="translate(16.72265625,58.90234375)"/>
<path d="M0 0 C0.66 0 1.32 0 2 0 C2 0.99 2 1.98 2 3 C2.928125 3.12375 2.928125 3.12375 3.875 3.25 C6 4 6 4 7.25 6.0625 C7.4975 6.701875 7.745 7.34125 8 8 C7.01 8.33 6.02 8.66 5 9 C5 9.66 5 10.32 5 11 C4.34 11 3.68 11 3 11 C3 10.01 3 9.02 3 8 C2.01 8 1.02 8 0 8 C-0.33 9.65 -0.66 11.3 -1 13 C-1.66 13 -2.32 13 -3 13 C-3 12.34 -3 11.68 -3 11 C-3.598125 10.9175 -4.19625 10.835 -4.8125 10.75 C-7.5966296 9.79544128 -8.43311142 8.42867729 -10 6 C-8.71034824 4.62437146 -7.37310707 3.29233607 -6 2 C-5.34 2 -4.68 2 -4 2 C-4 2.99 -4 3.98 -4 5 C-3.01 5 -2.02 5 -1 5 C-0.67 3.35 -0.34 1.7 0 0 Z " fill="#93DEE9" transform="translate(47,89)"/>
<path d="M0 0 C3.375 -0.125 3.375 -0.125 7 0 C7.66 0.66 8.32 1.32 9 2 C9.845625 2.309375 10.69125 2.61875 11.5625 2.9375 C12.366875 3.288125 13.17125 3.63875 14 4 C14.33 4.99 14.66 5.98 15 7 C7.41 7 -0.18 7 -8 7 C-7.67 6.01 -7.34 5.02 -7 4 C-5.35 4 -3.7 4 -2 4 C-1.34 2.68 -0.68 1.36 0 0 Z " fill="#F9FDFD" transform="translate(117,39)"/>
<path d="M0 0 C1.32 0 2.64 0 4 0 C4 5.61 4 11.22 4 17 C4.99 17 5.98 17 7 17 C7 18.65 7 20.3 7 22 C4.69 22 2.38 22 0 22 C0 14.74 0 7.48 0 0 Z " fill="#41448E" transform="translate(26,80)"/>
<path d="M0 0 C1.12148437 0.00322266 2.24296875 0.00644531 3.3984375 0.00976562 C4.5740625 0.01814453 5.7496875 0.02652344 6.9609375 0.03515625 C8.14429687 0.03966797 9.32765625 0.04417969 10.546875 0.04882812 C13.47661257 0.06064158 16.40625022 0.07711367 19.3359375 0.09765625 C19.3359375 0.42765625 19.3359375 0.75765625 19.3359375 1.09765625 C15.7059375 1.09765625 12.0759375 1.09765625 8.3359375 1.09765625 C8.3359375 3.40765625 8.3359375 5.71765625 8.3359375 8.09765625 C8.9959375 8.42765625 9.6559375 8.75765625 10.3359375 9.09765625 C8.3559375 10.08765625 8.3559375 10.08765625 6.3359375 11.09765625 C4.3359375 8.09765625 4.3359375 8.09765625 3.3359375 4.09765625 C-2.6040625 3.76765625 -8.5440625 3.43765625 -14.6640625 3.09765625 C-14.6640625 2.43765625 -14.6640625 1.77765625 -14.6640625 1.09765625 C-13.5503125 1.11828125 -12.4365625 1.13890625 -11.2890625 1.16015625 C-7.28427131 1.09110813 -4.1123019 -0.0207692 0 0 Z " fill="#85D8E3" transform="translate(112.6640625,45.90234375)"/>
<path d="M0 0 C5.94 0 11.88 0 18 0 C18.66 1.32 19.32 2.64 20 4 C17.703463 5.1482685 16.41686833 5.11561175 13.8671875 5.09765625 C13.06152344 5.09443359 12.25585938 5.09121094 11.42578125 5.08789062 C10.58402344 5.07951172 9.74226563 5.07113281 8.875 5.0625 C8.02550781 5.05798828 7.17601563 5.05347656 6.30078125 5.04882812 C4.20049091 5.03702874 2.1002367 5.01909306 0 5 C0 3.35 0 1.7 0 0 Z " fill="#34AEC6" transform="translate(98,49)"/>
<path d="M0 0 C2.31 0 4.62 0 7 0 C7.56862745 9.66666667 7.56862745 9.66666667 4 14 C2.68 14.99 1.36 15.98 0 17 C0 11.39 0 5.78 0 0 Z " fill="#6C74FE" transform="translate(98,54)"/>
<path d="M0 0 C1.65322266 0.01740234 1.65322266 0.01740234 3.33984375 0.03515625 C4.44457031 0.04417969 5.54929687 0.05320312 6.6875 0.0625 C7.54214844 0.07410156 8.39679688 0.08570312 9.27734375 0.09765625 C8.61734375 1.41765625 7.95734375 2.73765625 7.27734375 4.09765625 C6.61734375 4.09765625 5.95734375 4.09765625 5.27734375 4.09765625 C3.11067708 4.93098958 3.11067708 4.93098958 2.27734375 7.09765625 C0.50684686 7.15176312 -1.26412474 7.19049744 -3.03515625 7.22265625 C-4.51435547 7.25746094 -4.51435547 7.25746094 -6.0234375 7.29296875 C-8.72265625 7.09765625 -8.72265625 7.09765625 -11.72265625 5.09765625 C-10.73265625 5.09765625 -9.74265625 5.09765625 -8.72265625 5.09765625 C-8.72265625 4.43765625 -8.72265625 3.77765625 -8.72265625 3.09765625 C-7.91828125 2.78828125 -7.11390625 2.47890625 -6.28515625 2.16015625 C-1.1772017 0.04222388 -1.1772017 0.04222388 0 0 Z " fill="#6660FF" transform="translate(58.72265625,78.90234375)"/>
<path d="M0 0 C13.53 0 27.06 0 41 0 C41.495 0.99 41.495 0.99 42 2 C28.8 2 15.6 2 2 2 C2 2.66 2 3.32 2 4 C1.01 4 0.02 4 -1 4 C-0.67 2.68 -0.34 1.36 0 0 Z " fill="#33CFD5" transform="translate(42,45)"/>
<path d="M0 0 C0.66 0.33 1.32 0.66 2 1 C1.67 1.99 1.34 2.98 1 4 C0.34 4 -0.32 4 -1 4 C-1 5.32 -1 6.64 -1 8 C-1.7425 8.28875 -2.485 8.5775 -3.25 8.875 C-7.93542484 10.49368005 -7.93542484 10.49368005 -11 14 C-11.66 13.34 -12.32 12.68 -13 12 C-12.01 11.34 -11.02 10.68 -10 10 C-10.33 9.67 -10.66 9.34 -11 9 C-11.04092937 6.66702567 -11.04241723 4.33294775 -11 2 C-7.37 2 -3.74 2 0 2 C0 1.34 0 0.68 0 0 Z " fill="#36D7CD" transform="translate(132,45)"/>
<path d="M0 0 C7.42857143 -0.28571429 7.42857143 -0.28571429 11 2 C10.67 3.32 10.34 4.64 10 6 C8.35 6.33 6.7 6.66 5 7 C4.34 8.98 3.68 10.96 3 13 C2.01 12.34 1.02 11.68 0 11 C-0.29296875 8.3984375 -0.29296875 8.3984375 -0.1875 5.375 C-0.16042969 4.37210937 -0.13335937 3.36921875 -0.10546875 2.3359375 C-0.07066406 1.56507812 -0.03585938 0.79421875 0 0 Z " fill="#5A39FF" transform="translate(102,86)"/>
<path d="M0 0 C0.13489391 2.26921536 0.23193995 4.5407067 0.3125 6.8125 C0.37050781 8.07707031 0.42851563 9.34164062 0.48828125 10.64453125 C0 14 0 14 -2.51953125 15.94921875 C-3.33808594 16.29597656 -4.15664063 16.64273438 -5 17 C-6.87900728 15.12099272 -6.30277505 12.14176175 -6.375 9.625 C-6.42398438 8.46226563 -6.47296875 7.29953125 -6.5234375 6.1015625 C-6 3 -6 3 -3.5390625 1.0859375 C-1 0 -1 0 0 0 Z " fill="#5C3EFF" transform="translate(41,63)"/>
<path d="M0 0 C2.31243792 -0.02685412 4.6249627 -0.04632841 6.9375 -0.0625 C8.22527344 -0.07410156 9.51304688 -0.08570313 10.83984375 -0.09765625 C14 0 14 0 15 1 C15.12667764 3.99018161 15.18520838 6.94694108 15.1875 9.9375 C15.19974609 10.77474609 15.21199219 11.61199219 15.22460938 12.47460938 C15.22750977 13.67633789 15.22750977 13.67633789 15.23046875 14.90234375 C15.23457764 15.63960693 15.23868652 16.37687012 15.24291992 17.13647461 C15 19 15 19 13 21 C12 20 12 20 11.88647461 18.23413086 C11.89171143 17.48526611 11.89694824 16.73640137 11.90234375 15.96484375 C11.90556641 15.15595703 11.90878906 14.34707031 11.91210938 13.51367188 C11.92048828 12.66353516 11.92886719 11.81339844 11.9375 10.9375 C11.94201172 10.08349609 11.94652344 9.22949219 11.95117188 8.34960938 C11.96299627 6.23304337 11.98093231 4.11651315 12 2 C8.37 2 4.74 2 1 2 C0.67 1.34 0.34 0.68 0 0 Z " fill="#38D0CA" transform="translate(83,45)"/>
<path d="M0 0 C0.99 0.33 1.98 0.66 3 1 C5.33299825 1.03954234 7.66708189 1.04401732 10 1 C9.01 1.495 9.01 1.495 8 2 C8 2.99 8 3.98 8 5 C8.66 5.33 9.32 5.66 10 6 C7 8 7 8 4 9 C3.67 9.66 3.34 10.32 3 11 C1.68 11 0.36 11 -1 11 C-1.02688151 9.35425434 -1.04634123 7.70838587 -1.0625 6.0625 C-1.07410156 5.14597656 -1.08570312 4.22945313 -1.09765625 3.28515625 C-1 1 -1 1 0 0 Z " fill="#6B70FE" transform="translate(103,113)"/>
<path d="M0 0 C1.32 0 2.64 0 4 0 C4 6.6 4 13.2 4 20 C2.68 19.67 1.36 19.34 0 19 C0 12.73 0 6.46 0 0 Z " fill="#3E3E8B" transform="translate(115,63)"/>
<path d="M0 0 C2.64 0 5.28 0 8 0 C8 3.63 8 7.26 8 11 C7.34 11 6.68 11 6 11 C6 12.32 6 13.64 6 15 C4.68 15 3.36 15 2 15 C2 14.34 2 13.68 2 13 C2.99 13 3.98 13 5 13 C5 11.68 5 10.36 5 9 C4.01 9 3.02 9 2 9 C0.50178941 5.62902617 0 3.79557881 0 0 Z " fill="#3DB3DF" transform="translate(26,59)"/>
<path d="M0 0 C1.67542976 0.28604898 3.34385343 0.61781233 5 1 C5.97477898 4.72188336 6.12816587 6.64248468 4.8125 10.3125 C3 13 3 13 0.88671875 13.66796875 C0.26410156 13.77753906 -0.35851562 13.88710938 -1 14 C-1.02685938 11.85423363 -1.04633088 9.70837355 -1.0625 7.5625 C-1.07410156 6.36753906 -1.08570312 5.17257813 -1.09765625 3.94140625 C-1 1 -1 1 0 0 Z " fill="#31C6DF" transform="translate(106,33)"/>
<path d="M0 0 C8.58 0 17.16 0 26 0 C25.67 0.99 25.34 1.98 25 3 C17.08 3 9.16 3 1 3 C0.67 2.01 0.34 1.02 0 0 Z " fill="#4C4CA0" transform="translate(101,124)"/>
<path d="M0 0 C0.721875 0.00257812 1.44375 0.00515625 2.1875 0.0078125 C2.909375 0.00523438 3.63125 0.00265625 4.375 0 C6.1875 0.1328125 6.1875 0.1328125 7.1875 1.1328125 C7.22813832 2.79898365 7.230221 4.46669345 7.1875 6.1328125 C6.548125 6.2359375 5.90875 6.3390625 5.25 6.4453125 C4.569375 6.6721875 3.88875 6.8990625 3.1875 7.1328125 C2.8575 8.1228125 2.5275 9.1128125 2.1875 10.1328125 C1.754375 9.6584375 1.32125 9.1840625 0.875 8.6953125 C-0.83559613 6.89594293 -0.83559613 6.89594293 -3.8125 6.1328125 C-2.7478791 0.20135321 -2.7478791 0.20135321 0 0 Z " fill="#3DBADC" transform="translate(52.8125,85.8671875)"/>
<path d="M0 0 C-7.72159091 7.93607955 -7.72159091 7.93607955 -12.75 8.1875 C-14.35875 8.0946875 -14.35875 8.0946875 -16 8 C-15 5 -15 5 -13.0625 4 C-12.0415625 3.505 -12.0415625 3.505 -11 3 C-10.34 2.01 -9.68 1.02 -9 0 C-9.99 -0.33 -10.98 -0.66 -12 -1 C-10.56465159 -1.2226746 -9.12654475 -1.42761906 -7.6875 -1.625 C-6.48673828 -1.79902344 -6.48673828 -1.79902344 -5.26171875 -1.9765625 C-3 -2 -3 -2 0 0 Z " fill="#5F4BFB" transform="translate(122,88)"/>
<path d="M0 0 C2.31 0 4.62 0 7 0 C7 1.65 7 3.3 7 5 C3.37 5 -0.26 5 -4 5 C-4 6.65 -4 8.3 -4 10 C-5.32 10 -6.64 10 -8 10 C-8 7.69 -8 5.38 -8 3 C-5.36 3 -2.72 3 0 3 C0 2.01 0 1.02 0 0 Z " fill="#3C418B" transform="translate(34,49)"/>
<path d="M0 0 C0.02686553 1.97909398 0.04633375 3.95828971 0.0625 5.9375 C0.07410156 7.03964844 0.08570313 8.14179687 0.09765625 9.27734375 C0 12 0 12 -1 13 C-3.33297433 13.04092937 -5.66705225 13.04241723 -8 13 C-7.33333333 11 -6.66666667 9 -6 7 C-5.67 5.906875 -5.34 4.81375 -5 3.6875 C-3.83182938 0.54804146 -3.32217882 0 0 0 Z " fill="#36D3C8" transform="translate(60,92)"/>
<path d="M0 0 C3.63 0 7.26 0 11 0 C10.67 0.66 10.34 1.32 10 2 C9.34 2 8.68 2 8 2 C8 2.99 8 3.98 8 5 C9.65 5 11.3 5 13 5 C13 5.33 13 5.66 13 6 C11.865625 6.28875 10.73125 6.5775 9.5625 6.875 C8.386875 7.24625 7.21125 7.6175 6 8 C5.67 8.66 5.34 9.32 5 10 C3.68 10 2.36 10 1 10 C0.67 6.7 0.34 3.4 0 0 Z " fill="#77D7E4" transform="translate(110,33)"/>
<path d="M0 0 C1.32 0 2.64 0 4 0 C4.02691685 2.45840605 4.04679802 4.91651882 4.0625 7.375 C4.07087891 8.07367188 4.07925781 8.77234375 4.08789062 9.4921875 C4.11328125 14.7734375 4.11328125 14.7734375 3 17 C2.01 17 1.02 17 0 17 C0 11.39 0 5.78 0 0 Z " fill="#7080FE" transform="translate(123,95)"/>
<path d="M0 0 C0.66 0 1.32 0 2 0 C2 3.3 2 6.6 2 10 C-1.63 10 -5.26 10 -9 10 C-9 9.01 -9 8.02 -9 7 C-7.35 6.67 -5.7 6.34 -4 6 C-4 5.34 -4 4.68 -4 4 C-2.68 4 -1.36 4 0 4 C0 2.68 0 1.36 0 0 Z " fill="#35D6C7" transform="translate(32,70)"/>
<path d="M0 0 C1.24716797 0.00322266 2.49433594 0.00644531 3.77929688 0.00976562 C5.07287109 0.01814453 6.36644531 0.02652344 7.69921875 0.03515625 C9.66858398 0.04192383 9.66858398 0.04192383 11.67773438 0.04882812 C14.91410885 0.06059676 18.15039053 0.07703865 21.38671875 0.09765625 C21.05671875 0.75765625 20.72671875 1.41765625 20.38671875 2.09765625 C19.73074707 2.11747559 19.07477539 2.13729492 18.39892578 2.15771484 C15.43610806 2.25278132 12.47401343 2.36253377 9.51171875 2.47265625 C7.96291016 2.5190625 7.96291016 2.5190625 6.3828125 2.56640625 C4.90361328 2.62441406 4.90361328 2.62441406 3.39453125 2.68359375 C2.4833252 2.71501465 1.57211914 2.74643555 0.63330078 2.77880859 C-1.81259311 2.89648136 -1.81259311 2.89648136 -3.61328125 5.09765625 C-6.34197532 5.06478042 -8.90994305 4.53367854 -11.61328125 4.09765625 C-11.61328125 3.10765625 -11.61328125 2.11765625 -11.61328125 1.09765625 C-7.68039761 0.16677716 -4.03673962 -0.0184326 0 0 Z " fill="#D9D9E8" transform="translate(106.61328125,125.90234375)"/>
<path d="M0 0 C0.33 0.66 0.66 1.32 1 2 C-3.95 2 -8.9 2 -14 2 C-14.33 3.98 -14.66 5.96 -15 8 C-15.33 8 -15.66 8 -16 8 C-16 6.35 -16 4.7 -16 3 C-18.31 3 -20.62 3 -23 3 C-23 2.67 -23 2.34 -23 2 C-15.39701733 -0.48260659 -7.89688807 -0.18508331 0 0 Z " fill="#34CCDB" transform="translate(29,32)"/>
<path d="M0 0 C3.3 0 6.6 0 10 0 C9 2 9 2 7.0625 2.875 C4.5484857 4.24628053 4.2174555 5.4839253 3 8 C2.01 8.33 1.02 8.66 0 9 C0 6.03 0 3.06 0 0 Z " fill="#3DBBDE" transform="translate(105,54)"/>
<path d="M0 0 C0.33 0 0.66 0 1 0 C1.02685095 2.47923801 1.04676547 4.9581884 1.0625 7.4375 C1.07087891 8.14455078 1.07925781 8.85160156 1.08789062 9.58007812 C1.09653588 11.38693559 1.05220011 13.19387603 1 15 C0 16 0 16 -3.16015625 16.09765625 C-4.44792969 16.08605469 -5.73570313 16.07445313 -7.0625 16.0625 C-8.35285156 16.05347656 -9.64320312 16.04445313 -10.97265625 16.03515625 C-11.97167969 16.02355469 -12.97070312 16.01195313 -14 16 C-13.67 15.34 -13.34 14.68 -13 14 C-11.7625 14.0825 -10.525 14.165 -9.25 14.25 C-6.23747924 14.2286346 -5.15651183 14.0939071 -2.5 12.5 C-0.32021253 8.86702089 -0.79631801 6.20942782 -1 2 C-0.67 1.34 -0.34 0.68 0 0 Z " fill="#3ADBCD" transform="translate(122,98)"/>
<path d="M0 0 C1.23556641 0.01740234 1.23556641 0.01740234 2.49609375 0.03515625 C3.32238281 0.04417969 4.14867187 0.05320312 5 0.0625 C5.63808594 0.07410156 6.27617188 0.08570312 6.93359375 0.09765625 C6.93359375 0.75765625 6.93359375 1.41765625 6.93359375 2.09765625 C5.94359375 2.09765625 4.95359375 2.09765625 3.93359375 2.09765625 C3.93359375 2.75765625 3.93359375 3.41765625 3.93359375 4.09765625 C2.61359375 4.09765625 1.29359375 4.09765625 -0.06640625 4.09765625 C-0.39640625 5.41765625 -0.72640625 6.73765625 -1.06640625 8.09765625 C-1.72640625 8.09765625 -2.38640625 8.09765625 -3.06640625 8.09765625 C-3.10882348 5.7647085 -3.10733562 3.43063058 -3.06640625 1.09765625 C-2.06640625 0.09765625 -2.06640625 0.09765625 0 0 Z " fill="#4497EB" transform="translate(36.06640625,85.90234375)"/>
<path d="M0 0 C0 0.99 0 1.98 0 3 C0.66 3 1.32 3 2 3 C1.67 4.98 1.34 6.96 1 9 C-1.88575819 8.60196439 -2.82189513 8.20990931 -4.75 5.9375 C-5.1625 5.298125 -5.575 4.65875 -6 4 C-2.25 0 -2.25 0 0 0 Z " fill="#4EBEDB" transform="translate(43,91)"/>
<path d="M0 0 C3.36704285 -0.2295711 5.41370268 -0.33943529 8.375 1.375 C8.91125 1.91125 9.4475 2.4475 10 3 C10 3.66 10 4.32 10 5 C6.7 5 3.4 5 0 5 C0 3.35 0 1.7 0 0 Z " fill="#34ABC5" transform="translate(33,97)"/>
<path d="M0 0 C0.33 0 0.66 0 1 0 C1 2.31 1 4.62 1 7 C-2.96 7 -6.92 7 -11 7 C-10 5 -10 5 -7.125 3.875 C-4 3 -4 3 -1 3 C-0.67 2.01 -0.34 1.02 0 0 Z " fill="#7896FE" transform="translate(126,117)"/>
<path d="M0 0 C0.33 0 0.66 0 1 0 C1.125 3.375 1.125 3.375 1 7 C-1 9 -1 9 -4.625 9.125 C-5.73875 9.08375 -6.8525 9.0425 -8 9 C-8 8.34 -8 7.68 -8 7 C-7.13375 6.6596875 -7.13375 6.6596875 -6.25 6.3125 C-3.44052002 4.67363668 -1.95774386 2.56531954 0 0 Z " fill="#45D9DB" transform="translate(119,102)"/>
<path d="M0 0 C1.32 0.66 2.64 1.32 4 2 C4.33 1.34 4.66 0.68 5 0 C5 2.31 5 4.62 5 7 C4.34 7 3.68 7 3 7 C3 8.32 3 9.64 3 11 C1.68 11 0.36 11 -1 11 C-1 10.34 -1 9.68 -1 9 C-0.01 9 0.98 9 2 9 C2 7.68 2 6.36 2 5 C1.01 5 0.02 5 -1 5 C-0.67 3.35 -0.34 1.7 0 0 Z " fill="#3AC4D1" transform="translate(29,63)"/>
<path d="M0 0 C0.99 0 1.98 0 3 0 C3.08121924 1.60332791 3.13929134 3.20784026 3.1875 4.8125 C3.23970703 6.15248047 3.23970703 6.15248047 3.29296875 7.51953125 C3 10 3 10 0 13 C0 8.71 0 4.42 0 0 Z " fill="#3A95D8" transform="translate(41,49)"/>
<path d="M0 0 C2.31 0 4.62 0 7 0 C7 1.65 7 3.3 7 5 C4.69 5 2.38 5 0 5 C0 3.35 0 1.7 0 0 Z " fill="#3C3E8A" transform="translate(98,49)"/>
<path d="M0 0 C1.07765625 0.10183594 2.1553125 0.20367187 3.265625 0.30859375 C4.08546875 0.39238281 4.9053125 0.47617188 5.75 0.5625 C5.75 1.2225 5.75 1.8825 5.75 2.5625 C0.47 2.5625 -4.81 2.5625 -10.25 2.5625 C-10.25 1.9025 -10.25 1.2425 -10.25 0.5625 C-6.70049966 -0.60056443 -3.69176052 -0.36115049 0 0 Z " fill="#99C0FE" transform="translate(68.25,118.4375)"/>
<path d="M0 0 C0.99 0 1.98 0 3 0 C3.04241723 2.33294775 3.04092937 4.66702567 3 7 C2 8 2 8 -1.5625 8.0625 C-2.696875 8.041875 -3.83125 8.02125 -5 8 C-5 7.34 -5 6.68 -5 6 C-3.68 5.67 -2.36 5.34 -1 5 C-0.67 3.35 -0.34 1.7 0 0 Z " fill="#35DEC1" transform="translate(57,97)"/>
<path d="M0 0 C4.62 0 9.24 0 14 0 C14.33 1.32 14.66 2.64 15 4 C14.01 4 13.02 4 12 4 C12 3.34 12 2.68 12 2 C8.37 2 4.74 2 1 2 C0.67 1.34 0.34 0.68 0 0 Z " fill="#58DAD4" transform="translate(83,45)"/>
<path d="M0 0 C0.66 0 1.32 0 2 0 C1.69128878 1.79232337 1.37790936 3.58384321 1.0625 5.375 C0.88847656 6.37273437 0.71445312 7.37046875 0.53515625 8.3984375 C0 11 0 11 -1 13 C-1.66 13 -2.32 13 -3 13 C-2.52060632 8.28596212 -2.03165952 4.33420699 0 0 Z " fill="#D8F2F6" transform="translate(47,89)"/>
<path d="M0 0 C1.79133978 -0.05391993 3.58313899 -0.09275571 5.375 -0.125 C6.37273438 -0.14820313 7.37046875 -0.17140625 8.3984375 -0.1953125 C11 0 11 0 13 2 C9.37 2 5.74 2 2 2 C2 2.66 2 3.32 2 4 C1.01 4 0.02 4 -1 4 C-0.67 2.68 -0.34 1.36 0 0 Z " fill="#31C3DF" transform="translate(42,45)"/>
<path d="M0 0 C1.32 0 2.64 0 4 0 C4 1.98 4 3.96 4 6 C3.34 6 2.68 6 2 6 C2 6.99 2 7.98 2 9 C1.34 9 0.68 9 0 9 C0 6.03 0 3.06 0 0 Z " fill="#6B71FE" transform="translate(123,95)"/>
<path d="M0 0 C-0.66 1.65 -1.32 3.3 -2 5 C-2.99 4.34 -3.98 3.68 -5 3 C-7.05709596 2.75944532 -7.05709596 2.75944532 -9.1875 2.875 C-10.445625 2.91625 -11.70375 2.9575 -13 3 C-13 2.34 -13 1.68 -13 1 C-8.60563789 0.14256349 -4.47427924 -0.08948558 0 0 Z " fill="#4FCBE8" transform="translate(123,96)"/>
<path d="M0 0 C2.475 0.495 2.475 0.495 5 1 C5 2.32 5 3.64 5 5 C3.0625 5.5625 3.0625 5.5625 1 6 C0 5 0 5 -0.0625 2.4375 C-0.041875 1.633125 -0.02125 0.82875 0 0 Z " fill="#45CDDC" transform="translate(21,67)"/>
<path d="M0 0 C0.86625 0.556875 0.86625 0.556875 1.75 1.125 C1.75 1.785 1.75 2.445 1.75 3.125 C1.09 3.125 0.43 3.125 -0.25 3.125 C-0.58 4.115 -0.91 5.105 -1.25 6.125 C-2.9 4.475 -4.55 2.825 -6.25 1.125 C-2.80384615 -1.09038462 -2.80384615 -1.09038462 0 0 Z " fill="#47CCD9" transform="translate(56.25,89.875)"/>
<path d="M0 0 C0.99 0 1.98 0 3 0 C3.268125 0.61875 3.53625 1.2375 3.8125 1.875 C4.95556848 4.2995233 4.95556848 4.2995233 8 6 C7.01 6 6.02 6 5 6 C5 6.66 5 7.32 5 8 C4.01 7.67 3.02 7.34 2 7 C2 5.68 2 4.36 2 3 C1.34 3 0.68 3 0 3 C0 2.01 0 1.02 0 0 Z " fill="#F8FCFD" transform="translate(17,68)"/>
<path d="M0 0 C0.66 0 1.32 0 2 0 C2 1.98 2 3.96 2 6 C2.66 6.33 3.32 6.66 4 7 C2.02 7.99 2.02 7.99 0 9 C-0.66 8.01 -1.32 7.02 -2 6 C-1.125 2.8125 -1.125 2.8125 0 0 Z " fill="#F9FDFE" transform="translate(119,48)"/>
<path d="M0 0 C2.97 0 5.94 0 9 0 C9.33 0.66 9.66 1.32 10 2 C5.545 2.495 5.545 2.495 1 3 C0.67 2.01 0.34 1.02 0 0 Z " fill="#4ED2DC" transform="translate(33,102)"/>
<path d="M0 0 C3.3 0 6.6 0 10 0 C10 0.33 10 0.66 10 1 C8.02 1 6.04 1 4 1 C3.67 1.99 3.34 2.98 3 4 C1.68 4 0.36 4 -1 4 C-0.67 2.68 -0.34 1.36 0 0 Z " fill="#46B0F5" transform="translate(106,96)"/>
<path d="M0 0 C0.33 0 0.66 0 1 0 C1 1.65 1 3.3 1 5 C2.65 5 4.3 5 6 5 C4.625 7 4.625 7 3 9 C2.34 9 1.68 9 1 9 C0.67 9.66 0.34 10.32 0 11 C-0.66 10.34 -1.32 9.68 -2 9 C-1.01 8.34 -0.02 7.68 1 7 C0.67 6.67 0.34 6.34 0 6 C-0.04080783 4.00041636 -0.04254356 1.99954746 0 0 Z " fill="#57DAD6" transform="translate(121,48)"/>
<path d="M0 0 C0.33 1.32 0.66 2.64 1 4 C0.01 4 -0.98 4 -2 4 C-2 5.32 -2 6.64 -2 8 C-4.97 7.505 -4.97 7.505 -8 7 C-7.01 6.67 -6.02 6.34 -5 6 C-4.67 5.01 -4.34 4.02 -4 3 C-2.68 3 -1.36 3 0 3 C0 2.01 0 1.02 0 0 Z " fill="#D2F0F4" transform="translate(30,68)"/>
<path d="M0 0 C0.99 0 1.98 0 3 0 C3.33 2.64 3.66 5.28 4 8 C2.68 7.67 1.36 7.34 0 7 C0 4.69 0 2.38 0 0 Z " fill="#645CFE" transform="translate(102,107)"/>
<path d="M0 0 C1.65 0 3.3 0 5 0 C5 2.64 5 5.28 5 8 C4.01 8.495 4.01 8.495 3 9 C3 6.69 3 4.38 3 2 C2.01 1.67 1.02 1.34 0 1 C0 0.67 0 0.34 0 0 Z " fill="#34D5CF" transform="translate(29,32)"/>
<path d="M0 0 C0.66 0.33 1.32 0.66 2 1 C2.625 3.5625 2.625 3.5625 3 6 C1.68 6.33 0.36 6.66 -1 7 C-1.04254356 5.00045254 -1.04080783 2.99958364 -1 1 C-0.67 0.67 -0.34 0.34 0 0 Z " fill="#48C5CC" transform="translate(116,53)"/>
<path d="M0 0 C-0.66 1.98 -1.32 3.96 -2 6 C-2.33 6 -2.66 6 -3 6 C-3 4.35 -3 2.7 -3 1 C-5.31 1 -7.62 1 -10 1 C-10 0.67 -10 0.34 -10 0 C-6.33694766 -0.74926071 -3.57644848 -1.2380014 0 0 Z " fill="#86D7E9" transform="translate(16,34)"/>
<path d="M0 0 C0.99 0 1.98 0 3 0 C3 0.99 3 1.98 3 3 C3.66 3.33 4.32 3.66 5 4 C4 5 4 5 1.4375 5.0625 C0.2309375 5.0315625 0.2309375 5.0315625 -1 5 C-0.67 3.35 -0.34 1.7 0 0 Z " fill="#35C1C5" transform="translate(47,97)"/>
<path d="M0 0 C0.33 0.99 0.66 1.98 1 3 C1.66 3 2.32 3 3 3 C3.33 4.65 3.66 6.3 4 8 C3.01 8.33 2.02 8.66 1 9 C-0.4783226 6.04335481 -0.06032783 3.25770263 0 0 Z " fill="#4DD0DD" transform="translate(16,68)"/>
<path d="M0 0 C0.33 0 0.66 0 1 0 C0.67 2.97 0.34 5.94 0 9 C-0.66 9 -1.32 9 -2 9 C-2.25 3.375 -2.25 3.375 0 0 Z " fill="#409BE9" transform="translate(43,59)"/>
<path d="M0 0 C1.32 0.33 2.64 0.66 4 1 C4 1.99 4 2.98 4 4 C2.68 4 1.36 4 0 4 C0 2.68 0 1.36 0 0 Z " fill="#41CFE4" transform="translate(105,109)"/>
<path d="M0 0 C0.99 0 1.98 0 3 0 C3 1.65 3 3.3 3 5 C0.525 4.01 0.525 4.01 -2 3 C-1.34 2.01 -0.68 1.02 0 0 Z " fill="#39C5D4" transform="translate(57,87)"/>
<path d="M0 0 C1.32 0 2.64 0 4 0 C3.67 1.65 3.34 3.3 3 5 C2.01 4.67 1.02 4.34 0 4 C0 2.68 0 1.36 0 0 Z " fill="#34ACC5" transform="translate(26,59)"/>
<path d="M0 0 C0 0.99 0 1.98 0 3 C0.3062434 4.33981486 0.63451555 5.67511887 1 7 C-0.32 6.34 -1.64 5.68 -3 5 C-3 4.01 -3 3.02 -3 2 C-2.01 1.34 -1.02 0.68 0 0 Z " fill="#E5F4F9" transform="translate(41,92)"/>
<path d="M0 0 C2 1 2 1 2 1 Z " fill="#ECECF3" transform="translate(6,40)"/>
</svg>
