<?xml version="1.0" encoding="UTF-8"?>
<svg version="1.1" xmlns="http://www.w3.org/2000/svg" width="150" height="150">
<path d="M0 0 C0.495 2.475 0.495 2.475 1 5 C5.77762638 6.01687046 5.77762638 6.01687046 10.4375 5.0625 C10.953125 4.711875 11.46875 4.36125 12 4 C13.65 6.31 15.3 8.62 17 11 C16.01 11.99 15.02 12.98 14 14 C15.14339844 14.06058594 16.28679687 14.12117188 17.46484375 14.18359375 C18.95574305 14.26798428 20.44662775 14.35263302 21.9375 14.4375 C23.06961914 14.49647461 23.06961914 14.49647461 24.22460938 14.55664062 C29.88671875 14.88671875 29.88671875 14.88671875 31 16 C31.15786308 17.85174706 31.25107356 19.7090911 31.31640625 21.56640625 C31.35830078 22.69111328 31.40019531 23.81582031 31.44335938 24.97460938 C31.48267578 26.15861328 31.52199219 27.34261719 31.5625 28.5625 C31.60568359 29.75037109 31.64886719 30.93824219 31.69335938 32.16210938 C31.79983546 35.10794784 31.90184841 38.0538743 32 41 C33.32 41 34.64 41 36 41 C38 44 38 44 37.625 46.0625 C37.41875 46.701875 37.2125 47.34125 37 48 C37 48.66 37 49.32 37 50 C37.99 50.33 38.98 50.66 40 51 C39.67 52.32 39.34 53.64 39 55 C37.824375 55.0928125 37.824375 55.0928125 36.625 55.1875 C35.75875 55.455625 34.8925 55.72375 34 56 C32.62533375 58.47636012 32.62533375 58.47636012 32 61 C30.68 61 29.36 61 28 61 C27.67 60.34 27.34 59.68 27 59 C26.071875 59.0825 25.14375 59.165 24.1875 59.25 C21 59 21 59 19.0625 57.25 C17.78226842 54.53892135 18.27972737 53.79105644 19 51 C17.64555699 49.22809091 17.64555699 49.22809091 16 48 C16.33 47.01 16.66 46.02 17 45 C16.34 45 15.68 45 15 45 C15 51.6 15 58.2 15 65 C17.31 65 19.62 65 22 65 C23 66 23 66 23.11352539 69.96899414 C23.1133662 71.74105607 23.10766785 73.5131226 23.09765625 75.28515625 C23.0962413 76.21597519 23.09482635 77.14679413 23.09336853 78.1058197 C23.08775172 81.09141191 23.0751964 84.07693029 23.0625 87.0625 C23.05748716 89.08137913 23.05292388 91.10025943 23.04882812 93.11914062 C23.03777683 98.07945572 23.02050095 103.03971532 23 108 C25.31 108.66 27.62 109.32 30 110 C29 112 29 112 27.34521484 112.61450195 C22.49200924 113.41225457 17.54404055 113.18590312 12.63769531 113.18530273 C10.63863013 113.18748512 8.63960468 113.20599143 6.640625 113.22460938 C5.36960937 113.22654297 4.09859375 113.22847656 2.7890625 113.23046875 C1.63100098 113.23457764 0.47293945 113.23868652 -0.72021484 113.24291992 C-4.11310954 112.99162245 -6.83332989 112.21173908 -10 111 C-9.67 110.34 -9.34 109.68 -9 109 C-6.4375 108.375 -6.4375 108.375 -4 108 C-4.67857056 107.99191315 -5.35714111 107.98382629 -6.05627441 107.97549438 C-13.19572947 107.88863335 -20.33493245 107.7891071 -27.47412109 107.68261719 C-30.12938188 107.64363425 -32.7845665 107.60971702 -35.43994141 107.578125 C-73.93926359 107.11445232 -73.93926359 107.11445232 -81 103 C-79.60804085 100.2160817 -77.84424221 100.02101003 -75 99 C-76.98 98.67 -78.96 98.34 -81 98 C-81.66 99.32 -82.32 100.64 -83 102 C-84.98 101.01 -86.96 100.02 -89 99 C-89 97.02 -89 95.04 -89 93 C-90.98 92.34 -92.96 91.68 -95 91 C-95 88.36 -95 85.72 -95 83 C-93.35 83 -91.7 83 -90 83 C-90 82.071875 -90 81.14375 -90 80.1875 C-90 78.125 -90 76.0625 -90 74 C-86.66666667 71 -86.66666667 71 -84 71 C-83.67 71.66 -83.34 72.32 -83 73 C-81.35 73.33 -79.7 73.66 -78 74 C-78 70.04 -78 66.08 -78 62 C-82.29 62 -86.58 62 -91 62 C-91.02683436 58.68744674 -91.0467578 55.37510817 -91.0625 52.0625 C-91.07087891 51.11697266 -91.07925781 50.17144531 -91.08789062 49.19726562 C-91.09111328 48.29814453 -91.09433594 47.39902344 -91.09765625 46.47265625 C-91.10289307 45.64000244 -91.10812988 44.80734863 -91.11352539 43.94946289 C-91 42 -91 42 -90 41 C-87.98035801 40.92755947 -85.95832876 40.91622812 -83.9375 40.9375 C-82.28041016 40.95103516 -82.28041016 40.95103516 -80.58984375 40.96484375 C-79.73519531 40.97644531 -78.88054687 40.98804688 -78 41 C-78.061875 39.906875 -78.12375 38.81375 -78.1875 37.6875 C-78 34 -78 34 -76.875 32.28125 C-74.1629604 30.42802294 -72.05676436 30.70784631 -68.8125 30.8125 C-67.72582031 30.83957031 -66.63914062 30.86664063 -65.51953125 30.89453125 C-64.27236328 30.94673828 -64.27236328 30.94673828 -63 31 C-62.67 29.68 -62.34 28.36 -62 27 C-46.82 27 -31.64 27 -16 27 C-16.495 23.535 -16.495 23.535 -17 20 C-18.65 19.67 -20.3 19.34 -22 19 C-21.01 16.03 -20.02 13.06 -19 10 C-17.329375 10.061875 -17.329375 10.061875 -15.625 10.125 C-11.95633975 10.41121859 -11.95633975 10.41121859 -10 8 C-9.83318891 4.91652174 -9.83318891 4.91652174 -10 2 C-3.375 0 -3.375 0 0 0 Z M-8 14 C-10.2084626 17.31269391 -10.80664241 19.14978851 -10.5546875 23.0625 C-9.4812192 26.81207941 -7.28696911 28.01541488 -4 30 C-1.36163023 30.1672392 -1.36163023 30.1672392 1 30 C1.03738281 29.01257813 1.07476562 28.02515625 1.11328125 27.0078125 C1.17902344 25.72648437 1.24476562 24.44515625 1.3125 23.125 C1.37050781 21.84882812 1.42851563 20.57265625 1.48828125 19.2578125 C1.65714844 18.18273437 1.82601562 17.10765625 2 16 C2.99 15.34 3.98 14.68 5 14 C3.01607489 11.60148679 3.01607489 11.60148679 -0.8125 11.5625 C-4.17733329 11.66669338 -5.04370031 12.02913354 -8 14 Z M23 47 C22.6366844 49.83386167 22.6431329 51.40522151 24.125 53.875 C26.92151052 55.55290631 28.93690532 54.74875648 32 54 C32.67673447 50.59679066 32.67673447 50.59679066 33 47 C31.11499729 44.68436913 31.11499729 44.68436913 28 44.75 C24.88500271 44.68436913 24.88500271 44.68436913 23 47 Z M-84.25 80.625 C-86.21985834 82.92308586 -86.21985834 82.92308586 -86.5 86 C-86.21376982 89.06575838 -86.21376982 89.06575838 -84.3125 91.375 C-81.61209763 93.27258004 -80.22939919 93.35882213 -77 93 C-76.85024761 85.94348748 -76.85024761 85.94348748 -78 79 C-81.92212225 78.60967296 -81.92212225 78.60967296 -84.25 80.625 Z M-68 95 C-68.66 96.65 -69.32 98.3 -70 100 C-57.13 99.01 -57.13 99.01 -44 98 C-43.67 97.01 -43.34 96.02 -43 95 C-51.25 95 -59.5 95 -68 95 Z M-19 95 C-19 95.99 -19 96.98 -19 98 C-13.72 98.33 -8.44 98.66 -3 99 C-3 97.68 -3 96.36 -3 95 C-8.28 95 -13.56 95 -19 95 Z " fill="#7386FE" transform="translate(104,18)"/>
<path d="M0 0 C0.495 2.475 0.495 2.475 1 5 C5.77762638 6.01687046 5.77762638 6.01687046 10.4375 5.0625 C10.953125 4.711875 11.46875 4.36125 12 4 C13.65 6.31 15.3 8.62 17 11 C16.01 11.99 15.02 12.98 14 14 C15.14339844 14.06058594 16.28679687 14.12117188 17.46484375 14.18359375 C18.95574305 14.26798428 20.44662775 14.35263302 21.9375 14.4375 C23.06961914 14.49647461 23.06961914 14.49647461 24.22460938 14.55664062 C29.88671875 14.88671875 29.88671875 14.88671875 31 16 C31.15786308 17.85174706 31.25107356 19.7090911 31.31640625 21.56640625 C31.35830078 22.69111328 31.40019531 23.81582031 31.44335938 24.97460938 C31.48267578 26.15861328 31.52199219 27.34261719 31.5625 28.5625 C31.60568359 29.75037109 31.64886719 30.93824219 31.69335938 32.16210938 C31.79983546 35.10794784 31.90184841 38.0538743 32 41 C33.32 41 34.64 41 36 41 C38 44 38 44 37.625 46.0625 C37.41875 46.701875 37.2125 47.34125 37 48 C37 48.66 37 49.32 37 50 C37.99 50.33 38.98 50.66 40 51 C39.67 52.32 39.34 53.64 39 55 C37.824375 55.0928125 37.824375 55.0928125 36.625 55.1875 C35.325625 55.5896875 35.325625 55.5896875 34 56 C32.62533375 58.47636012 32.62533375 58.47636012 32 61 C30.68 61 29.36 61 28 61 C27.67 60.34 27.34 59.68 27 59 C26.071875 59.0825 25.14375 59.165 24.1875 59.25 C21 59 21 59 19.0625 57.25 C17.78226842 54.53892135 18.27972737 53.79105644 19 51 C17.64555699 49.22809091 17.64555699 49.22809091 16 48 C16.33 47.01 16.66 46.02 17 45 C16.34 45 15.68 45 15 45 C15 51.6 15 58.2 15 65 C17.31 65 19.62 65 22 65 C23 66 23 66 23.09765625 68.50390625 C23.08605469 69.51324219 23.07445313 70.52257812 23.0625 71.5625 C23.05347656 72.57441406 23.04445313 73.58632812 23.03515625 74.62890625 C23.02355469 75.41136719 23.01195313 76.19382812 23 77 C20.0804957 77.9731681 17.94555049 78.1929546 14.89453125 78.31640625 C13.91162109 78.35830078 12.92871094 78.40019531 11.91601562 78.44335938 C10.89185547 78.48267578 9.86769531 78.52199219 8.8125 78.5625 C7.77673828 78.60568359 6.74097656 78.64886719 5.67382812 78.69335938 C3.1160181 78.79944366 0.55811155 78.90150146 -2 79 C-2.19456705 77.04235617 -2.38044247 75.08384679 -2.5625 73.125 C-2.71912109 71.48917969 -2.71912109 71.48917969 -2.87890625 69.8203125 C-3 67 -3 67 -2 65 C2.29 65 6.58 65 11 65 C11 58.4 11 51.8 11 45 C7.7 45 4.4 45 1 45 C1 42.03 1 39.06 1 36 C-1.31 36 -3.62 36 -6 36 C-5.98839844 36.85464844 -5.97679688 37.70929687 -5.96484375 38.58984375 C-5.95582031 39.69457031 -5.94679688 40.79929688 -5.9375 41.9375 C-5.92589844 43.03964844 -5.91429688 44.14179687 -5.90234375 45.27734375 C-6 48 -6 48 -7 49 C-8.33412727 49.11665477 -9.67415145 49.16716369 -11.01318359 49.18945312 C-11.86431732 49.20617065 -12.71545105 49.22288818 -13.59237671 49.2401123 C-14.51837677 49.25368774 -15.44437683 49.26726318 -16.3984375 49.28125 C-17.81728745 49.30886414 -17.81728745 49.30886414 -19.26480103 49.33703613 C-22.30146873 49.39598537 -25.33819402 49.44869936 -28.375 49.5 C-32.36210015 49.56758867 -36.34901791 49.64131188 -40.3359375 49.71875 C-41.2578891 49.73232544 -42.1798407 49.74590088 -43.12973022 49.7598877 C-44.4158873 49.78496399 -44.4158873 49.78496399 -45.72802734 49.81054688 C-46.85934586 49.82933899 -46.85934586 49.82933899 -48.01351929 49.84851074 C-50.21051821 49.93507553 -50.21051821 49.93507553 -53 51 C-53 51.66 -53 52.32 -53 53 C-53.66 53 -54.32 53 -55 53 C-55 53.66 -55 54.32 -55 55 C-56.98 55.99 -58.96 56.98 -61 58 C-60.67 58.66 -60.34 59.32 -60 60 C-60.495 60.433125 -60.99 60.86625 -61.5 61.3125 C-63.33218192 62.99740483 -63.33218192 62.99740483 -63 66 C-64.485 65.505 -64.485 65.505 -66 65 C-66.99 65.495 -66.99 65.495 -68 66 C-67.505 66.99 -67.505 66.99 -67 68 C-68.485 68.495 -68.485 68.495 -70 69 C-70.33 72.3 -70.66 75.6 -71 79 C-70.05125 78.95875 -69.1025 78.9175 -68.125 78.875 C-65 79 -65 79 -63 81 C-62.67 80.34 -62.34 79.68 -62 79 C-61.34 79 -60.68 79 -60 79 C-60 80.32 -60 81.64 -60 83 C-59.01 82.505 -59.01 82.505 -58 82 C-57.505 80.515 -57.505 80.515 -57 79 C-55.68 79 -54.36 79 -53 79 C-52.67 79.66 -52.34 80.32 -52 81 C-51.01 79.68 -50.02 78.36 -49 77 C-49.515625 76.443125 -50.03125 75.88625 -50.5625 75.3125 C-52 73 -52 73 -51.6875 70.25 C-51.460625 69.5075 -51.23375 68.765 -51 68 C-49.00045254 67.95745644 -46.99958364 67.95919217 -45 68 C-42.39658344 70.60341656 -44 75.31821299 -44 79 C-30.47 79 -16.94 79 -3 79 C-3 80.65 -3 82.3 -3 84 C-16.53 84 -30.06 84 -44 84 C-44.495 85.485 -44.495 85.485 -45 87 C-53.25 87 -61.5 87 -70 87 C-70.33 86.01 -70.66 85.02 -71 84 C-73.31 84 -75.62 84 -78 84 C-78 76.74 -78 69.48 -78 62 C-82.29 62 -86.58 62 -91 62 C-91.02683436 58.68744674 -91.0467578 55.37510817 -91.0625 52.0625 C-91.07087891 51.11697266 -91.07925781 50.17144531 -91.08789062 49.19726562 C-91.09111328 48.29814453 -91.09433594 47.39902344 -91.09765625 46.47265625 C-91.10289307 45.64000244 -91.10812988 44.80734863 -91.11352539 43.94946289 C-91 42 -91 42 -90 41 C-87.98035801 40.92755947 -85.95832876 40.91622812 -83.9375 40.9375 C-82.28041016 40.95103516 -82.28041016 40.95103516 -80.58984375 40.96484375 C-79.73519531 40.97644531 -78.88054687 40.98804688 -78 41 C-78.061875 39.906875 -78.12375 38.81375 -78.1875 37.6875 C-78 34 -78 34 -76.875 32.28125 C-74.1629604 30.42802294 -72.05676436 30.70784631 -68.8125 30.8125 C-67.72582031 30.83957031 -66.63914062 30.86664063 -65.51953125 30.89453125 C-64.27236328 30.94673828 -64.27236328 30.94673828 -63 31 C-62.67 29.68 -62.34 28.36 -62 27 C-46.82 27 -31.64 27 -16 27 C-16.495 23.535 -16.495 23.535 -17 20 C-18.65 19.67 -20.3 19.34 -22 19 C-21.01 16.03 -20.02 13.06 -19 10 C-17.329375 10.061875 -17.329375 10.061875 -15.625 10.125 C-11.95633975 10.41121859 -11.95633975 10.41121859 -10 8 C-9.83318891 4.91652174 -9.83318891 4.91652174 -10 2 C-3.375 0 -3.375 0 0 0 Z M-8 14 C-10.2084626 17.31269391 -10.80664241 19.14978851 -10.5546875 23.0625 C-9.4812192 26.81207941 -7.28696911 28.01541488 -4 30 C-1.36163023 30.1672392 -1.36163023 30.1672392 1 30 C1.03738281 29.01257813 1.07476562 28.02515625 1.11328125 27.0078125 C1.17902344 25.72648437 1.24476562 24.44515625 1.3125 23.125 C1.37050781 21.84882812 1.42851563 20.57265625 1.48828125 19.2578125 C1.65714844 18.18273437 1.82601562 17.10765625 2 16 C2.99 15.34 3.98 14.68 5 14 C3.01607489 11.60148679 3.01607489 11.60148679 -0.8125 11.5625 C-4.17733329 11.66669338 -5.04370031 12.02913354 -8 14 Z M23 47 C22.6366844 49.83386167 22.6431329 51.40522151 24.125 53.875 C26.92151052 55.55290631 28.93690532 54.74875648 32 54 C32.67673447 50.59679066 32.67673447 50.59679066 33 47 C31.11499729 44.68436913 31.11499729 44.68436913 28 44.75 C24.88500271 44.68436913 24.88500271 44.68436913 23 47 Z " fill="#38D0CC" transform="translate(104,18)"/>
<path d="M0 0 C0.33 0.66 0.66 1.32 1 2 C3.52733235 2.65555119 3.52733235 2.65555119 6 3 C6 4.65 6 6.3 6 8 C5.030625 8.28875 4.06125 8.5775 3.0625 8.875 C-0.10664203 9.64214682 -0.10664203 9.64214682 -1 12 C-1.40270732 16.1283652 -1.40270732 16.1283652 0.1875 19.8125 C2.42031739 21.27538036 4.37344067 21.64505955 7 22 C7 19.03 7 16.06 7 13 C8.98 13 10.96 13 13 13 C13.33 13.66 13.66 14.32 14 15 C22.25 15 30.5 15 39 15 C39.33 14.34 39.66 13.68 40 13 C53.53 13 67.06 13 81 13 C81 16.63 81 20.26 81 24 C75.72 24 70.44 24 65 24 C65 24.99 65 25.98 65 27 C65.56847656 26.98839844 66.13695313 26.97679688 66.72265625 26.96484375 C71.60670484 26.90776806 76.18503965 27.18043228 81 28 C81 30.64 81 33.28 81 36 C73.71409984 36.04682155 66.42823335 36.08211748 59.14221191 36.10362434 C55.75718789 36.11395864 52.37226851 36.12792229 48.98730469 36.15087891 C10.5625541 36.39227608 10.5625541 36.39227608 3 32 C4.39195915 29.2160817 6.15575779 29.02101003 9 28 C7.02 27.67 5.04 27.34 3 27 C2.34 28.32 1.68 29.64 1 31 C-0.98 30.01 -2.96 29.02 -5 28 C-5 26.02 -5 24.04 -5 22 C-6.98 21.34 -8.96 20.68 -11 20 C-11 17.36 -11 14.72 -11 12 C-9.35 12 -7.7 12 -6 12 C-6 11.071875 -6 10.14375 -6 9.1875 C-6 7.125 -6 5.0625 -6 3 C-2.66666667 0 -2.66666667 0 0 0 Z M16 24 C15.34 25.65 14.68 27.3 14 29 C26.87 28.01 26.87 28.01 40 27 C40.33 26.01 40.66 25.02 41 24 C32.75 24 24.5 24 16 24 Z " fill="#B5D1FE" transform="translate(20,89)"/>
<path d="M0 0 C0.495 8.415 0.495 8.415 1 17 C4.96 17.33 8.92 17.66 13 18 C12.34 18.66 11.68 19.32 11 20 C10.67 20.66 10.34 21.32 10 22 C9.34 22 8.68 22 8 22 C8 22.66 8 23.32 8 24 C6.02 24.99 4.04 25.98 2 27 C2.33 27.66 2.66 28.32 3 29 C2.505 29.433125 2.01 29.86625 1.5 30.3125 C-0.33218192 31.99740483 -0.33218192 31.99740483 0 35 C-1.485 34.505 -1.485 34.505 -3 34 C-3.99 34.495 -3.99 34.495 -5 35 C-4.67 35.66 -4.34 36.32 -4 37 C-5.485 37.495 -5.485 37.495 -7 38 C-7.33 41.3 -7.66 44.6 -8 48 C-7.05125 47.95875 -6.1025 47.9175 -5.125 47.875 C-2 48 -2 48 0 50 C0.33 49.34 0.66 48.68 1 48 C1.66 48 2.32 48 3 48 C3 49.32 3 50.64 3 52 C3.99 51.505 3.99 51.505 5 51 C5.33 50.01 5.66 49.02 6 48 C7.32 48 8.64 48 10 48 C10.33 48.66 10.66 49.32 11 50 C11.99 48.68 12.98 47.36 14 46 C13.484375 45.443125 12.96875 44.88625 12.4375 44.3125 C11 42 11 42 11.3125 39.25 C11.539375 38.5075 11.76625 37.765 12 37 C13.99954746 36.95745644 16.00041636 36.95919217 18 37 C20.60341656 39.60341656 19 44.31821299 19 48 C32.53 48 46.06 48 60 48 C60 49.65 60 51.3 60 53 C46.47 53 32.94 53 19 53 C18.67 53.99 18.34 54.98 18 56 C9.75 56 1.5 56 -7 56 C-7.33 55.01 -7.66 54.02 -8 53 C-10.31 53 -12.62 53 -15 53 C-15 45.74 -15 38.48 -15 31 C-19.29 31 -23.58 31 -28 31 C-28.02683436 27.68744674 -28.0467578 24.37510817 -28.0625 21.0625 C-28.07087891 20.11697266 -28.07925781 19.17144531 -28.08789062 18.19726562 C-28.09111328 17.29814453 -28.09433594 16.39902344 -28.09765625 15.47265625 C-28.10289307 14.64000244 -28.10812988 13.80734863 -28.11352539 12.94946289 C-28 11 -28 11 -27 10 C-24.98035801 9.92755947 -22.95832876 9.91622812 -20.9375 9.9375 C-19.28041016 9.95103516 -19.28041016 9.95103516 -17.58984375 9.96484375 C-16.73519531 9.97644531 -15.88054688 9.98804688 -15 10 C-15.061875 8.906875 -15.12375 7.81375 -15.1875 6.6875 C-15 3 -15 3 -13.875 1.28125 C-9.98348385 -1.3779527 -4.48681699 -0.14473603 0 0 Z " fill="#5E4DFD" transform="translate(41,49)"/>
<path d="M0 0 C2.31 0 4.62 0 7 0 C7 2.97 7 5.94 7 9 C8.32 9.33 9.64 9.66 11 10 C10.67 10.99 10.34 11.98 10 13 C8.39125 13.0928125 8.39125 13.0928125 6.75 13.1875 C2.86468039 13.66145959 2.86468039 13.66145959 0.5625 16.5625 C0.046875 17.366875 -0.46875 18.17125 -1 19 C-1.495 18.01 -1.495 18.01 -2 17 C-2.33 17.66 -2.66 18.32 -3 19 C-3.66 19 -4.32 19 -5 19 C-5.66 20.32 -6.32 21.64 -7 23 C-7.99 23 -8.98 23 -10 23 C-10.33 23.66 -10.66 24.32 -11 25 C-10.34 25 -9.68 25 -9 25 C-10.36726968 29.10180903 -12.62642791 29.71255801 -16.28515625 31.71875 C-16.85105469 32.1415625 -17.41695312 32.564375 -18 33 C-18 33.99 -18 34.98 -18 36 C-18.99 36.495 -18.99 36.495 -20 37 C-19.34 38.65 -18.68 40.3 -18 42 C-19 43 -19 43 -20.85766602 43.11352539 C-22.04380493 43.10567017 -22.04380493 43.10567017 -23.25390625 43.09765625 C-24.10791016 43.09443359 -24.96191406 43.09121094 -25.84179688 43.08789062 C-26.73962891 43.07951172 -27.63746094 43.07113281 -28.5625 43.0625 C-29.46419922 43.05798828 -30.36589844 43.05347656 -31.29492188 43.04882812 C-33.52997589 43.03700244 -35.76499602 43.01906638 -38 43 C-38.495 38.05 -38.495 38.05 -39 33 C-40.65 33 -42.3 33 -44 33 C-44 33.99 -44 34.98 -44 36 C-44 36.99 -44 37.98 -44 39 C-43.34 39.99 -42.68 40.98 -42 42 C-43.65 43.32 -45.3 44.64 -47 46 C-47 45.01 -47 44.02 -47 43 C-48.32 43 -49.64 43 -51 43 C-51.33 44.32 -51.66 45.64 -52 47 C-52.66 47 -53.32 47 -54 47 C-54 45.68 -54 44.36 -54 43 C-54.66 43 -55.32 43 -56 43 C-56.33 43.99 -56.66 44.98 -57 46 C-57.66 45.34 -58.32 44.68 -59 44 C-60.98821313 43.60235737 -62.98944339 43.26224651 -65 43 C-65.47617251 36.30713088 -65.39973696 32.22468764 -61 27 C-59.68 27.66 -58.36 28.32 -57 29 C-57.33 28.01 -57.66 27.02 -58 26 C-57.01 26 -56.02 26 -55 26 C-55.33 24.68 -55.66 23.36 -56 22 C-51.25 19 -51.25 19 -49 19 C-49 18.34 -49 17.68 -49 17 C-48.34 17 -47.68 17 -47 17 C-47.33 16.01 -47.66 15.02 -48 14 C-45.1456004 13.19383235 -42.56093946 12.8556664 -39.59863281 12.79467773 C-38.7380426 12.77473251 -37.87745239 12.75478729 -36.99078369 12.73423767 C-36.07085632 12.71752518 -35.15092896 12.70081268 -34.203125 12.68359375 C-33.25435486 12.66281265 -32.30558472 12.64203156 -31.32806396 12.62062073 C-28.30211518 12.55532066 -25.2760808 12.49633112 -22.25 12.4375 C-20.19660579 12.3942962 -18.14322018 12.35068131 -16.08984375 12.30664062 C-11.0599832 12.19965927 -6.03003668 12.09833677 -1 12 C-0.67 8.04 -0.34 4.08 0 0 Z " fill="#665EFE" transform="translate(98,54)"/>
<path d="M0 0 C0.33 1.65 0.66 3.3 1 5 C5.77762638 6.01687046 5.77762638 6.01687046 10.4375 5.0625 C10.953125 4.711875 11.46875 4.36125 12 4 C14.475 7.465 14.475 7.465 17 11 C16.01 11.99 15.02 12.98 14 14 C15.14339844 14.06058594 16.28679687 14.12117188 17.46484375 14.18359375 C18.95574305 14.26798428 20.44662775 14.35263302 21.9375 14.4375 C23.06961914 14.49647461 23.06961914 14.49647461 24.22460938 14.55664062 C29.88671875 14.88671875 29.88671875 14.88671875 31 16 C31.15786308 17.85174706 31.25107356 19.7090911 31.31640625 21.56640625 C31.35830078 22.69111328 31.40019531 23.81582031 31.44335938 24.97460938 C31.48267578 26.15861328 31.52199219 27.34261719 31.5625 28.5625 C31.60568359 29.75037109 31.64886719 30.93824219 31.69335938 32.16210938 C31.79983546 35.10794784 31.90184841 38.0538743 32 41 C33.32 41 34.64 41 36 41 C38 44 38 44 37.625 46.0625 C37.41875 46.701875 37.2125 47.34125 37 48 C37 48.66 37 49.32 37 50 C37.99 50.33 38.98 50.66 40 51 C39.67 52.32 39.34 53.64 39 55 C37.824375 55.0928125 37.824375 55.0928125 36.625 55.1875 C35.75875 55.455625 34.8925 55.72375 34 56 C32.62533375 58.47636012 32.62533375 58.47636012 32 61 C30.68 61 29.36 61 28 61 C27.67 60.34 27.34 59.68 27 59 C26.071875 59.0825 25.14375 59.165 24.1875 59.25 C21 59 21 59 19.0625 57.25 C17.78226842 54.53892135 18.27972737 53.79105644 19 51 C17.64555699 49.22809091 17.64555699 49.22809091 16 48 C16.33 47.01 16.66 46.02 17 45 C16.01 45 15.02 45 14 45 C14.04125 44.071875 14.0825 43.14375 14.125 42.1875 C14.27136339 38.84190281 14.27136339 38.84190281 12 36 C12.66 36 13.32 36 14 36 C14 34.35 14 32.7 14 31 C7.4 31 0.8 31 -6 31 C-6 30.34 -6 29.68 -6 29 C-3.69 29.33 -1.38 29.66 1 30 C0.94779297 28.51886719 0.94779297 28.51886719 0.89453125 27.0078125 C0.86746094 25.72648437 0.84039062 24.44515625 0.8125 23.125 C0.76029297 21.21074219 0.76029297 21.21074219 0.70703125 19.2578125 C0.80371094 18.18273437 0.90039062 17.10765625 1 16 C1.99 15.34 2.98 14.68 4 14 C2.78410016 12.56844101 2.78410016 12.56844101 -0.8125 12.6875 C-3.78617685 12.74622611 -4.87751147 12.92650688 -7.5 14.5 C-9.71177972 18.18629954 -9.34421275 20.73176192 -9 25 C-8.67 25.66 -8.34 26.32 -8 27 C-10.31 27 -12.62 27 -15 27 C-15.66 24.69 -16.32 22.38 -17 20 C-18.65 19.67 -20.3 19.34 -22 19 C-21.01 16.03 -20.02 13.06 -19 10 C-17.329375 10.061875 -17.329375 10.061875 -15.625 10.125 C-11.95633975 10.41121859 -11.95633975 10.41121859 -10 8 C-9.83318891 4.91652174 -9.83318891 4.91652174 -10 2 C-3.375 0 -3.375 0 0 0 Z M23 47 C22.6366844 49.83386167 22.6431329 51.40522151 24.125 53.875 C26.92151052 55.55290631 28.93690532 54.74875648 32 54 C32.67673447 50.59679066 32.67673447 50.59679066 33 47 C31.11499729 44.68436913 31.11499729 44.68436913 28 44.75 C24.88500271 44.68436913 24.88500271 44.68436913 23 47 Z " fill="#35DBC7" transform="translate(104,18)"/>
<path d="M0 0 C16.83 0 33.66 0 51 0 C51 5.61 51 11.22 51 17 C34.17 17 17.34 17 0 17 C0 11.39 0 5.78 0 0 Z " fill="#40428A" transform="translate(44,47)"/>
<path d="M0 0 C0.33 0.66 0.66 1.32 1 2 C3.52733235 2.65555119 3.52733235 2.65555119 6 3 C6 4.65 6 6.3 6 8 C5.030625 8.28875 4.06125 8.5775 3.0625 8.875 C-0.10664203 9.64214682 -0.10664203 9.64214682 -1 12 C-1.40305195 16.08388307 -1.40305195 16.08388307 0.125 19.75 C4.95043226 22.96695484 10.37826404 23.41844111 16 24 C16 25.33333333 16 26.66666667 16 28 C23.92 27.67 31.84 27.34 40 27 C39.67 27.66 39.34 28.32 39 29 C36.35139573 29.59355614 33.70802678 29.74209269 31 30 C31 30.66 31 31.32 31 32 C45.19 32 59.38 32 74 32 C73.505 31.01 73.505 31.01 73 30 C71.845 29.835 70.69 29.67 69.5 29.5 C68.345 29.335 67.19 29.17 66 29 C65.505 28.01 65.505 28.01 65 27 C70.45769811 26.88861841 75.61509359 27.08342019 81 28 C81 30.64 81 33.28 81 36 C73.71409984 36.04682155 66.42823335 36.08211748 59.14221191 36.10362434 C55.75718789 36.11395864 52.37226851 36.12792229 48.98730469 36.15087891 C10.5625541 36.39227608 10.5625541 36.39227608 3 32 C4.39195915 29.2160817 6.15575779 29.02101003 9 28 C7.02 27.67 5.04 27.34 3 27 C2.34 28.32 1.68 29.64 1 31 C-0.98 30.01 -2.96 29.02 -5 28 C-5 26.02 -5 24.04 -5 22 C-6.98 21.34 -8.96 20.68 -11 20 C-11 17.36 -11 14.72 -11 12 C-9.35 12 -7.7 12 -6 12 C-6 11.071875 -6 10.14375 -6 9.1875 C-6 7.125 -6 5.0625 -6 3 C-2.66666667 0 -2.66666667 0 0 0 Z " fill="#EAEBF2" transform="translate(20,89)"/>
<path d="M0 0 C2.31 0 4.62 0 7 0 C7 2.97 7 5.94 7 9 C8.32 9.33 9.64 9.66 11 10 C10.67 10.99 10.34 11.98 10 13 C8.39125 13.0928125 8.39125 13.0928125 6.75 13.1875 C2.86468039 13.66145959 2.86468039 13.66145959 0.5625 16.5625 C0.046875 17.366875 -0.46875 18.17125 -1 19 C-1.495 18.01 -1.495 18.01 -2 17 C-2.33 17.66 -2.66 18.32 -3 19 C-3.66 19 -4.32 19 -5 19 C-5.66 20.32 -6.32 21.64 -7 23 C-7.99 23 -8.98 23 -10 23 C-10.33 23.66 -10.66 24.32 -11 25 C-10.34 25 -9.68 25 -9 25 C-10.36726968 29.10180903 -12.62642791 29.71255801 -16.28515625 31.71875 C-17.13400391 32.35296875 -17.13400391 32.35296875 -18 33 C-18 33.99 -18 34.98 -18 36 C-18.99 36.495 -18.99 36.495 -20 37 C-19.34 38.65 -18.68 40.3 -18 42 C-19 43 -19 43 -20.85766602 43.11352539 C-21.64842529 43.10828857 -22.43918457 43.10305176 -23.25390625 43.09765625 C-24.10791016 43.09443359 -24.96191406 43.09121094 -25.84179688 43.08789062 C-26.73962891 43.07951172 -27.63746094 43.07113281 -28.5625 43.0625 C-29.46419922 43.05798828 -30.36589844 43.05347656 -31.29492188 43.04882812 C-33.52997589 43.03700244 -35.76499602 43.01906638 -38 43 C-38.33 39.04 -38.66 35.08 -39 31 C-37.68 31.33 -36.36 31.66 -35 32 C-34.34 31.67 -33.68 31.34 -33 31 C-33 30.34 -33 29.68 -33 29 C-30.68143083 27.45428722 -28.49361571 26.20381448 -26 25 C-26.33 24.01 -26.66 23.02 -27 22 C-24.65625 20.19335938 -24.65625 20.19335938 -22.3125 18.38671875 C-20.65629795 16.95508863 -20.65629795 16.95508863 -21 14 C-21 13.67 -21 13.34 -21 13 C-11.1 12.505 -11.1 12.505 -1 12 C-0.67 8.04 -0.34 4.08 0 0 Z " fill="#6C73FE" transform="translate(98,54)"/>
<path d="M0 0 C1.99954746 -0.04254356 4.00041636 -0.04080783 6 0 C8.60341656 2.60341656 7 7.31821299 7 11 C20.53 11 34.06 11 48 11 C48 12.65 48 14.3 48 16 C34.47 16 20.94 16 7 16 C6.67 16.99 6.34 17.98 6 19 C1.85418113 19.02886751 -2.29161216 19.04675327 -6.4375 19.0625 C-8.21350586 19.07506836 -8.21350586 19.07506836 -10.02539062 19.08789062 C-11.15009766 19.09111328 -12.27480469 19.09433594 -13.43359375 19.09765625 C-14.99678345 19.10551147 -14.99678345 19.10551147 -16.59155273 19.11352539 C-19 19 -19 19 -20 18 C-20.04092937 15.66702567 -20.04241723 13.33294775 -20 11 C-17.125 10.875 -17.125 10.875 -14 11 C-13.34 11.66 -12.68 12.32 -12 13 C-11.67 12.34 -11.34 11.68 -11 11 C-10.34 11 -9.68 11 -9 11 C-9 12.32 -9 13.64 -9 15 C-8.34 14.67 -7.68 14.34 -7 14 C-6.67 13.01 -6.34 12.02 -6 11 C-4.68 11 -3.36 11 -2 11 C-1.67 11.66 -1.34 12.32 -1 13 C-0.01 11.68 0.98 10.36 2 9 C1.484375 8.443125 0.96875 7.88625 0.4375 7.3125 C-1 5 -1 5 -0.6875 2.25 C-0.460625 1.5075 -0.23375 0.765 0 0 Z " fill="#39D7C9" transform="translate(53,86)"/>
<path d="M0 0 C0.83265381 0.00523682 1.66530762 0.01047363 2.52319336 0.01586914 C3.42231445 0.0190918 4.32143555 0.02231445 5.24780273 0.02563477 C6.66609375 0.03820313 6.66609375 0.03820313 8.11303711 0.05102539 C9.06243164 0.05553711 10.01182617 0.06004883 10.98999023 0.06469727 C13.34356776 0.07652429 15.69702188 0.09300514 18.05053711 0.11352539 C18.07941525 3.5926748 18.09729398 7.0717937 18.11303711 10.55102539 C18.12141602 11.54424805 18.12979492 12.5374707 18.13842773 13.56079102 C18.14326172 14.97714844 18.14326172 14.97714844 18.14819336 16.42211914 C18.15604858 17.73394165 18.15604858 17.73394165 18.1640625 19.07226562 C18.05053711 21.11352539 18.05053711 21.11352539 17.05053711 22.11352539 C15.55919801 22.1301477 14.06692906 22.07671739 12.57788086 21.99243164 C11.67875977 21.9440918 10.77963867 21.89575195 9.85327148 21.84594727 C8.90774414 21.78987305 7.9622168 21.73379883 6.98803711 21.67602539 C6.03864258 21.62381836 5.08924805 21.57161133 4.11108398 21.51782227 C1.75726759 21.38771181 -0.59616988 21.25273427 -2.94946289 21.11352539 C-2.97834436 17.80104352 -2.99622088 14.48859372 -3.01196289 11.17602539 C-3.0203418 10.23049805 -3.0287207 9.2849707 -3.03735352 8.31079102 C-3.04057617 7.41166992 -3.04379883 6.51254883 -3.04711914 5.58618164 C-3.05235596 4.75352783 -3.05759277 3.92087402 -3.06298828 3.06298828 C-2.90876673 0.41468917 -2.64829911 0.15422155 0 0 Z " fill="#32C8DC" transform="translate(15.949462890625,58.886474609375)"/>
<path d="M0 0 C1.32 0 2.64 0 4 0 C4 6.6 4 13.2 4 20 C6.31 20 8.62 20 11 20 C12 21 12 21 12.09765625 23.50390625 C12.08605469 24.51324219 12.07445313 25.52257812 12.0625 26.5625 C12.05347656 27.57441406 12.04445313 28.58632812 12.03515625 29.62890625 C12.02355469 30.41136719 12.01195313 31.19382812 12 32 C9.0804957 32.9731681 6.94555049 33.1929546 3.89453125 33.31640625 C2.91162109 33.35830078 1.92871094 33.40019531 0.91601562 33.44335938 C-0.62022461 33.50233398 -0.62022461 33.50233398 -2.1875 33.5625 C-3.22326172 33.60568359 -4.25902344 33.64886719 -5.32617188 33.69335938 C-7.8839819 33.79944366 -10.44188845 33.90150146 -13 34 C-13.19456705 32.04235617 -13.38044247 30.08384679 -13.5625 28.125 C-13.71912109 26.48917969 -13.71912109 26.48917969 -13.87890625 24.8203125 C-14 22 -14 22 -13 20 C-8.71 20 -4.42 20 0 20 C0 13.4 0 6.8 0 0 Z " fill="#5A3AFF" transform="translate(115,63)"/>
<path d="M0 0 C0.33 1.65 0.66 3.3 1 5 C5.77762638 6.01687046 5.77762638 6.01687046 10.4375 5.0625 C10.953125 4.711875 11.46875 4.36125 12 4 C14.475 7.465 14.475 7.465 17 11 C15.25971934 13.32037422 13.95863243 14.83707038 11.0234375 15.3359375 C8.875 15.375 8.875 15.375 5 15 C4.34 14.34 3.68 13.68 3 13 C-2.54235245 12.42765564 -2.54235245 12.42765564 -7.5 14.5 C-9.71177972 18.18629954 -9.34421275 20.73176192 -9 25 C-8.67 25.66 -8.34 26.32 -8 27 C-10.31 27 -12.62 27 -15 27 C-15.66 24.69 -16.32 22.38 -17 20 C-18.65 19.67 -20.3 19.34 -22 19 C-21.01 16.03 -20.02 13.06 -19 10 C-17.329375 10.061875 -17.329375 10.061875 -15.625 10.125 C-11.95633975 10.41121859 -11.95633975 10.41121859 -10 8 C-9.83318891 4.91652174 -9.83318891 4.91652174 -10 2 C-3.375 0 -3.375 0 0 0 Z " fill="#E9EBF1" transform="translate(104,18)"/>
<path d="M0 0 C0.99 0 1.98 0 3 0 C3 9.57 3 19.14 3 29 C-5.25 29 -13.5 29 -22 29 C-22.125 16.25 -22.125 16.25 -21 14 C-20.34 14 -19.68 14 -19 14 C-18.67 15.32 -18.34 16.64 -18 18 C-12.72 18 -7.44 18 -2 18 C-1.90912109 16.17662109 -1.90912109 16.17662109 -1.81640625 14.31640625 C-1.73201668 12.73175772 -1.6473679 11.14712298 -1.5625 9.5625 C-1.52318359 8.76005859 -1.48386719 7.95761719 -1.44335938 7.13085938 C-1.11328125 1.11328125 -1.11328125 1.11328125 0 0 Z " fill="#7286FE" transform="translate(124,95)"/>
<path d="M0 0 C1.58206057 0.00667536 3.16410534 0.0186375 4.74609375 0.03515625 C5.55240234 0.03966797 6.35871094 0.04417969 7.18945312 0.04882812 C9.18753131 0.06065107 11.18557158 0.07858711 13.18359375 0.09765625 C13.21043687 2.91021906 13.23035563 5.72252866 13.24609375 8.53515625 C13.25447266 9.33759766 13.26285156 10.14003906 13.27148438 10.96679688 C13.28010805 13.01060846 13.23587525 15.05449527 13.18359375 17.09765625 C11.36243372 18.91881628 8.87687611 18.23000705 6.45703125 18.234375 C5.70679687 18.23050781 4.9565625 18.22664063 4.18359375 18.22265625 C3.05824219 18.22845703 3.05824219 18.22845703 1.91015625 18.234375 C-3.68979572 18.22426678 -3.68979572 18.22426678 -4.81640625 17.09765625 C-4.91621839 14.42034245 -4.955205 11.7746145 -4.94140625 9.09765625 C-4.94527344 8.34742187 -4.94914062 7.5971875 -4.953125 6.82421875 C-4.94103514 0.12643386 -4.94103514 0.12643386 0 0 Z " fill="#3FD3DF" transform="translate(109.81640625,95.90234375)"/>
<path d="M0 0 C0.33 0 0.66 0 1 0 C1 3.63 1 7.26 1 11 C1.99 11 2.98 11 4 11 C4 14.96 4 18.92 4 23 C3.34 23 2.68 23 2 23 C1.67 27.95 1.34 32.9 1 38 C9.25 38 17.5 38 26 38 C26 38.66 26 39.32 26 40 C28.31 40.66 30.62 41.32 33 42 C32 44 32 44 30.34521484 44.61450195 C25.49200924 45.41225457 20.54404055 45.18590312 15.63769531 45.18530273 C13.63863013 45.18748512 11.63960468 45.20599143 9.640625 45.22460938 C8.36960937 45.22654297 7.09859375 45.22847656 5.7890625 45.23046875 C4.63100098 45.23457764 3.47293945 45.23868652 2.27978516 45.24291992 C-1.11310954 44.99162245 -3.83332989 44.21173908 -7 43 C-6 41 -6 41 0 39 C0 26.13 0 13.26 0 0 Z " fill="#5F53E8" transform="translate(101,86)"/>
<path d="M0 0 C0.83265381 0.00523682 1.66530762 0.01047363 2.52319336 0.01586914 C3.42231445 0.0190918 4.32143555 0.02231445 5.24780273 0.02563477 C6.66609375 0.03820312 6.66609375 0.03820312 8.11303711 0.05102539 C9.06243164 0.05553711 10.01182617 0.06004883 10.98999023 0.06469727 C13.34356776 0.07652429 15.69702188 0.09300514 18.05053711 0.11352539 C18.07739649 2.25929176 18.09686799 4.40515184 18.11303711 6.55102539 C18.12463867 7.74598633 18.13624023 8.94094727 18.14819336 10.17211914 C18.05053711 13.11352539 18.05053711 13.11352539 17.05053711 14.11352539 C15.64704976 14.2121267 14.23873234 14.24431476 12.83178711 14.24633789 C11.55754883 14.24827148 11.55754883 14.24827148 10.25756836 14.25024414 C8.91758789 14.24444336 8.91758789 14.24444336 7.55053711 14.23852539 C6.6572168 14.24239258 5.76389648 14.24625977 4.84350586 14.25024414 C3.99401367 14.24895508 3.14452148 14.24766602 2.26928711 14.24633789 C1.48489258 14.24520996 0.70049805 14.24408203 -0.10766602 14.24291992 C-1.94946289 14.11352539 -1.94946289 14.11352539 -2.94946289 13.11352539 C-3.04820105 11.11552967 -3.07918088 9.11395381 -3.07446289 7.11352539 C-3.07704102 6.02040039 -3.07961914 4.92727539 -3.08227539 3.80102539 C-2.90278781 0.16904149 -2.90278781 0.16904149 0 0 Z " fill="#3F448F" transform="translate(15.949462890625,31.886474609375)"/>
<path d="M0 0 C0.33 5.61 0.66 11.22 1 17 C2.65 17.33 4.3 17.66 6 18 C6 18.66 6 19.32 6 20 C4.02 20 2.04 20 0 20 C0.66 20.99 1.32 21.98 2 23 C1.525625 23.45375 1.05125 23.9075 0.5625 24.375 C-1.09027808 25.93258204 -1.09027808 25.93258204 -2 28 C-2.99 28 -3.98 28 -5 28 C-5.33 28.66 -5.66 29.32 -6 30 C-6.33 23.4 -6.66 16.8 -7 10 C-9.64 10 -12.28 10 -15 10 C-15.36468886 3.55716353 -15.36468886 3.55716353 -13.875 1.28125 C-9.98348385 -1.3779527 -4.48681699 -0.14473603 0 0 Z " fill="#5A39FF" transform="translate(41,49)"/>
<path d="M0 0 C1.25554687 -0.00128906 2.51109375 -0.00257812 3.8046875 -0.00390625 C4.46178711 -0.00181152 5.11888672 0.0002832 5.79589844 0.00244141 C7.80411335 0.00779016 9.81210459 0.00249559 11.8203125 -0.00390625 C13.07585937 -0.00261719 14.33140625 -0.00132813 15.625 0 C16.78644531 0.00112793 17.94789063 0.00225586 19.14453125 0.00341797 C21.8125 0.1328125 21.8125 0.1328125 22.8125 1.1328125 C23.31202696 6.29459112 23.31202696 6.29459112 22.8125 9.1328125 C20.6875 11.2578125 20.6875 11.2578125 17.8125 12.1328125 C14.14916443 11.45995495 12.33616931 10.7055758 9.8125 7.9453125 C7.87625265 5.77399765 7.87625265 5.77399765 4.6875 6.1953125 C1.52075068 6.89975937 1.52075068 6.89975937 -0.1875 10.1328125 C-1.83954456 10.83493144 -3.50673769 11.50252663 -5.1875 12.1328125 C-5.8475 12.7928125 -6.5075 13.4528125 -7.1875 14.1328125 C-7.21435938 11.98704613 -7.23383088 9.84118605 -7.25 7.6953125 C-7.26160156 6.50035156 -7.27320312 5.30539063 -7.28515625 4.07421875 C-7.11114431 -1.16702086 -4.66394941 0.00452936 0 0 Z " fill="#37D2D4" transform="translate(112.1875,32.8671875)"/>
<path d="M0 0 C1.18613892 0.00785522 1.18613892 0.00785522 2.39624023 0.01586914 C3.67724609 0.02070312 3.67724609 0.02070312 4.98413086 0.02563477 C5.88196289 0.03401367 6.77979492 0.04239258 7.70483398 0.05102539 C8.6065332 0.05553711 9.50823242 0.06004883 10.43725586 0.06469727 C12.67234712 0.07652315 14.90730835 0.09300319 17.14233398 0.11352539 C18.14233398 4.86352539 18.14233398 4.86352539 18.14233398 7.11352539 C19.13233398 8.59852539 19.13233398 8.59852539 20.14233398 10.11352539 C18.49233398 11.43352539 16.84233398 12.75352539 15.14233398 14.11352539 C15.14233398 13.12352539 15.14233398 12.13352539 15.14233398 11.11352539 C13.82233398 11.11352539 12.50233398 11.11352539 11.14233398 11.11352539 C10.81233398 12.43352539 10.48233398 13.75352539 10.14233398 15.11352539 C9.48233398 15.11352539 8.82233398 15.11352539 8.14233398 15.11352539 C8.14233398 13.79352539 8.14233398 12.47352539 8.14233398 11.11352539 C7.48233398 11.11352539 6.82233398 11.11352539 6.14233398 11.11352539 C5.81233398 12.10352539 5.48233398 13.09352539 5.14233398 14.11352539 C4.48233398 13.45352539 3.82233398 12.79352539 3.14233398 12.11352539 C1.15412085 11.71588276 -0.84710941 11.3757719 -2.85766602 11.11352539 C-2.88454752 9.46777973 -2.90400725 7.82191126 -2.92016602 6.17602539 C-2.93176758 5.25950195 -2.94336914 4.34297852 -2.95532227 3.39868164 C-2.83580216 0.60191113 -2.79636442 0.17089098 0 0 Z " fill="#43A9E5" transform="translate(35.857666015625,85.886474609375)"/>
<path d="M0 0 C6.6 0 13.2 0 20 0 C20 2.33333333 20 4.66666667 20 7 C20.185625 7.825 20.37125 8.65 20.5625 9.5 C21 12 21 12 20 14 C15.71 14 11.42 14 7 14 C7 11.03 7 8.06 7 5 C4.69 5 2.38 5 0 5 C0 3.35 0 1.7 0 0 Z " fill="#3AC5D5" transform="translate(98,49)"/>
<path d="M0 0 C2.875 1 2.875 1 4.25 3.0625 C4.45625 3.701875 4.6625 4.34125 4.875 5 C6.525 5 8.175 5 9.875 5 C10.205 6.32 10.535 7.64 10.875 9 C7.905 9 4.935 9 1.875 9 C1.875 11.31 1.875 13.62 1.875 16 C2.865 16.33 3.855 16.66 4.875 17 C3.885 17.99 2.895 18.98 1.875 20 C-2 18.25 -2 18.25 -3.125 16 C-2.465 16 -1.805 16 -1.125 16 C-1.125 14.35 -1.125 12.7 -1.125 11 C-7.725 11 -14.325 11 -21.125 11 C-21.125 10.34 -21.125 9.68 -21.125 9 C-20.031875 9.0825 -18.93875 9.165 -17.8125 9.25 C-15.9871875 9.12625 -15.9871875 9.12625 -14.125 9 C-12.39979815 7.11652637 -12.39979815 7.11652637 -11.125 5 C-9.79423011 4.65657551 -8.46068021 4.32380126 -7.125 4 C-6.50625 3.29875 -5.8875 2.5975 -5.25 1.875 C-3.125 0 -3.125 0 0 0 Z " fill="#F8FDFD" transform="translate(119.125,38)"/>
<path d="M0 0 C13.53 0 27.06 0 41 0 C41 1.65 41 3.3 41 5 C27.47 5 13.94 5 0 5 C0 3.35 0 1.7 0 0 Z " fill="#3C3D89" transform="translate(60,97)"/>
<path d="M0 0 C1.32 0.66 2.64 1.32 4 2 C4 4.66666667 4 7.33333333 4 10 C4.99 10.33 5.98 10.66 7 11 C6.67 12.32 6.34 13.64 6 15 C4.824375 15.0928125 4.824375 15.0928125 3.625 15.1875 C2.75875 15.455625 1.8925 15.72375 1 16 C-0.37466625 18.47636012 -0.37466625 18.47636012 -1 21 C-2.32 21 -3.64 21 -5 21 C-5.33 20.34 -5.66 19.68 -6 19 C-7.3921875 19.12375 -7.3921875 19.12375 -8.8125 19.25 C-12 19 -12 19 -13.9375 17.25 C-15.21773158 14.53892135 -14.72027263 13.79105644 -14 11 C-15.35444301 9.22809091 -15.35444301 9.22809091 -17 8 C-16.67 7.01 -16.34 6.02 -16 5 C-13.36 5 -10.72 5 -8 5 C-8.20625 6.11375 -8.4125 7.2275 -8.625 8.375 C-8.74875 9.57125 -8.8725 10.7675 -9 12 C-7.10244856 14.34973818 -7.10244856 14.34973818 -3.875 14.125 C-2.451875 14.063125 -2.451875 14.063125 -1 14 C-0.70437633 8.67829506 -0.70437633 8.67829506 -3 4 C-2.01 2.68 -1.02 1.36 0 0 Z " fill="#EAEBF2" transform="translate(137,58)"/>
<path d="M0 0 C2.64 0 5.28 0 8 0 C8.02887814 3.47914941 8.04675687 6.95826831 8.0625 10.4375 C8.07087891 11.43072266 8.07925781 12.42394531 8.08789062 13.44726562 C8.09272461 14.86362305 8.09272461 14.86362305 8.09765625 16.30859375 C8.10551147 17.62041626 8.10551147 17.62041626 8.11352539 18.95874023 C8 21 8 21 7 22 C5.5086609 22.01662231 4.01639195 21.963192 2.52734375 21.87890625 C1.62822266 21.83056641 0.72910156 21.78222656 -0.19726562 21.73242188 C-1.14279297 21.67634766 -2.08832031 21.62027344 -3.0625 21.5625 C-4.01189453 21.51029297 -4.96128906 21.45808594 -5.93945312 21.40429688 C-8.29326952 21.27418642 -10.64670699 21.13920888 -13 21 C-13 20.01 -13 19.02 -13 18 C-11.23103898 17.63659714 -9.45973374 17.28459117 -7.6875 16.9375 C-6.20830078 16.64166016 -6.20830078 16.64166016 -4.69921875 16.33984375 C-2 16 -2 16 1 17 C1 16.01 1 15.02 1 14 C1.99 14 2.98 14 4 14 C3.71848913 12.68528432 3.42446661 11.37324233 3.125 10.0625 C2.96257813 9.33160156 2.80015625 8.60070312 2.6328125 7.84765625 C2.17038477 5.79299706 2.17038477 5.79299706 0 5 C0 3.35 0 1.7 0 0 Z " fill="#36CDC9" transform="translate(26,59)"/>
<path d="M0 0 C-0.33 0.66 -0.66 1.32 -1 2 C-1.61875 2.12375 -2.2375 2.2475 -2.875 2.375 C-5.72682293 3.21377145 -6.51602551 4.47724337 -8 7 C-8 7.99 -8 8.98 -8 10 C-8.33 10.99 -8.66 11.98 -9 13 C-9.66 13 -10.32 13 -11 13 C-10.34 14.32 -9.68 15.64 -9 17 C-11 19 -11 19 -14.1875 19.265625 C-16.0746875 19.25789063 -16.0746875 19.25789063 -18 19.25 C-19.258125 19.25515625 -20.51625 19.2603125 -21.8125 19.265625 C-25 19 -25 19 -27 17 C-26.01 16.01 -25.02 15.02 -24 14 C-23.67 14.66 -23.34 15.32 -23 16 C-22.34 15.67 -21.68 15.34 -21 15 C-21.33 14.34 -21.66 13.68 -22 13 C-21.01 13 -20.02 13 -19 13 C-19.33 11.68 -19.66 10.36 -20 9 C-15.25 6 -15.25 6 -13 6 C-13 5.34 -13 4.68 -13 4 C-12.34 4 -11.68 4 -11 4 C-11.33 3.01 -11.66 2.02 -12 1 C-8.0186217 -0.3271261 -4.14954773 -0.06915913 0 0 Z M-11 9 C-10 11 -10 11 -10 11 Z " fill="#6152FE" transform="translate(62,67)"/>
<path d="M0 0 C1.98 0 3.96 0 6 0 C6.33 0.66 6.66 1.32 7 2 C9.54941373 2.31241371 12.00361513 2.51303421 14.5625 2.625 C15.62887695 2.68300781 15.62887695 2.68300781 16.71679688 2.7421875 C18.47742425 2.83671783 20.23867728 2.91945817 22 3 C22.3125 5.3125 22.3125 5.3125 22 8 C18.06115801 11.56666795 13.79711316 11.39524067 8.75 11.25 C8.0178125 11.24484375 7.285625 11.2396875 6.53125 11.234375 C1.15472274 11.15472274 1.15472274 11.15472274 0 10 C-0.07205511 8.31391034 -0.08386068 6.62499341 -0.0625 4.9375 C-0.05347656 4.01839844 -0.04445313 3.09929687 -0.03515625 2.15234375 C-0.02355469 1.44207031 -0.01195313 0.73179688 0 0 Z " fill="#C4DBFE" transform="translate(27,102)"/>
<path d="M0 0 C1.32 0 2.64 0 4 0 C4 6.6 4 13.2 4 20 C6.31 20 8.62 20 11 20 C11.33 20.99 11.66 21.98 12 23 C3.19039858 24.30512614 -5.19039858 24.30512614 -14 23 C-13.505 21.515 -13.505 21.515 -13 20 C-8.71 20 -4.42 20 0 20 C0 13.4 0 6.8 0 0 Z " fill="#4C4CA1" transform="translate(115,63)"/>
<path d="M0 0 C1.875 1.1875 1.875 1.1875 3 3 C3.54068562 6.63031776 3.46379841 8.32214079 1.375 11.375 C-1 13 -1 13 -4 13.5625 C-7 13 -7 13 -9.4375 10.875 C-11 8 -11 8 -11 4.875 C-10 2 -10 2 -8.3125 0.0625 C-5.12702876 -1.40109489 -3.32118677 -0.98928968 0 0 Z " fill="#A7E6F0" transform="translate(118,99)"/>
<path d="M0 0 C1.31871094 -0.01224609 2.63742188 -0.02449219 3.99609375 -0.03710938 C5.90068359 -0.04000977 5.90068359 -0.04000977 7.84375 -0.04296875 C9.00068359 -0.04707764 10.15761719 -0.05118652 11.34960938 -0.05541992 C14.47736509 0.18575467 16.680892 0.85423629 19.5 2.1875 C18.5 4.1875 18.5 4.1875 16.84521484 4.80200195 C11.99200924 5.59975457 7.04404055 5.37340312 2.13769531 5.37280273 C0.13863013 5.37498512 -1.86039532 5.39349143 -3.859375 5.41210938 C-5.13039063 5.41404297 -6.40140625 5.41597656 -7.7109375 5.41796875 C-8.86899902 5.42207764 -10.02706055 5.42618652 -11.22021484 5.43041992 C-14.61310954 5.17912245 -17.33332989 4.39923908 -20.5 3.1875 C-20.17 2.5275 -19.84 1.8675 -19.5 1.1875 C-13.23640183 -0.60566158 -6.45139424 0.00315317 0 0 Z " fill="#EAEBF2" transform="translate(114.5,125.8125)"/>
<path d="M0 0 C0.99 0 1.98 0 3 0 C3 4.95 3 9.9 3 15 C14.88 15 26.76 15 39 15 C39 15.33 39 15.66 39 16 C37.35 16.33 35.7 16.66 34 17 C34 17.33 34 17.66 34 18 C29.31860746 18.02465288 24.63725241 18.04283739 19.95581055 18.05493164 C18.36205386 18.05997157 16.76830181 18.0668035 15.17456055 18.07543945 C12.88849747 18.08751999 10.60249533 18.09323155 8.31640625 18.09765625 C7.59973282 18.10281754 6.88305939 18.10797882 6.14466858 18.11329651 C4.42936328 18.11349263 2.71418734 18.06192007 1 18 C0 17 0 17 -0.09765625 13.18359375 C-0.09098089 11.60153318 -0.07901875 10.01948841 -0.0625 8.4375 C-0.05798828 7.63119141 -0.05347656 6.82488281 -0.04882812 5.99414062 C-0.03700518 3.99606244 -0.01906914 1.99802217 0 0 Z " fill="#3CBEDA" transform="translate(41,49)"/>
<path d="M0 0 C-0.61277612 2.96175123 -1.25372522 4.38058783 -3 7 C3.6 7 10.2 7 17 7 C17 7.66 17 8.32 17 9 C4.46 9 -8.08 9 -21 9 C-21.33 8.34 -21.66 7.68 -22 7 C-21.37351563 6.97421875 -20.74703125 6.9484375 -20.1015625 6.921875 C-19.28429688 6.86515625 -18.46703125 6.8084375 -17.625 6.75 C-16.81289063 6.70359375 -16.00078125 6.6571875 -15.1640625 6.609375 C-14.44992188 6.40828125 -13.73578125 6.2071875 -13 6 C-12.31099497 4.67807175 -11.64524255 3.34383193 -11 2 C-8.90625 0.91796875 -8.90625 0.91796875 -6.5 0.1875 C-5.7059375 -0.06644531 -4.911875 -0.32039063 -4.09375 -0.58203125 C-2 -1 -2 -1 0 0 Z " fill="#9DC2FE" transform="translate(77,112)"/>
<path d="M0 0 C0.83265381 0.00523682 1.66530762 0.01047363 2.52319336 0.01586914 C3.42231445 0.0190918 4.32143555 0.02231445 5.24780273 0.02563477 C6.66609375 0.03820312 6.66609375 0.03820312 8.11303711 0.05102539 C9.06243164 0.05553711 10.01182617 0.06004883 10.98999023 0.06469727 C13.34356776 0.07652429 15.69702188 0.09300514 18.05053711 0.11352539 C18.07739649 2.25929176 18.09686799 4.40515184 18.11303711 6.55102539 C18.12463867 7.74598633 18.13624023 8.94094727 18.14819336 10.17211914 C18.05053711 13.11352539 18.05053711 13.11352539 17.05053711 14.11352539 C15.64704976 14.2121267 14.23873234 14.24431476 12.83178711 14.24633789 C11.55754883 14.24827148 11.55754883 14.24827148 10.25756836 14.25024414 C8.91758789 14.24444336 8.91758789 14.24444336 7.55053711 14.23852539 C6.6572168 14.24239258 5.76389648 14.24625977 4.84350586 14.25024414 C3.99401367 14.24895508 3.14452148 14.24766602 2.26928711 14.24633789 C1.48489258 14.24520996 0.70049805 14.24408203 -0.10766602 14.24291992 C-1.94946289 14.11352539 -1.94946289 14.11352539 -2.94946289 13.11352539 C-3.04820105 11.11552967 -3.07918088 9.11395381 -3.07446289 7.11352539 C-3.07704102 6.02040039 -3.07961914 4.92727539 -3.08227539 3.80102539 C-2.90278781 0.16904149 -2.90278781 0.16904149 0 0 Z M-0.94946289 2.11352539 C-0.94946289 5.08352539 -0.94946289 8.05352539 -0.94946289 11.11352539 C4.66053711 11.11352539 10.27053711 11.11352539 16.05053711 11.11352539 C16.05053711 8.14352539 16.05053711 5.17352539 16.05053711 2.11352539 C10.44053711 2.11352539 4.83053711 2.11352539 -0.94946289 2.11352539 Z " fill="#33CCDA" transform="translate(15.949462890625,31.886474609375)"/>
<path d="M0 0 C1.32 0 2.64 0 4 0 C4 0.66 4 1.32 4 2 C5.32 1.67 6.64 1.34 8 1 C10 6.625 10 6.625 10 10 C9.01 10 8.02 10 7 10 C7 10.99 7 11.98 7 13 C0.84765625 12.4140625 0.84765625 12.4140625 -1 12 C-1.33 11.34 -1.66 10.68 -2 10 C-1.67 9.01 -1.34 8.02 -1 7 C-1.66 7 -2.32 7 -3 7 C-3 6.01 -3 5.02 -3 4 C-2.01 4 -1.02 4 0 4 C0 2.68 0 1.36 0 0 Z " fill="#ECF8FB" transform="translate(20,63)"/>
<path d="M0 0 C0.66 0 1.32 0 2 0 C2.33 1.32 2.66 2.64 3 4 C5.64 4.33 8.28 4.66 11 5 C11.33 5.99 11.66 6.98 12 8 C9.31158141 10.25245881 7.35358125 11.88213958 4 13 C3.67 13.66 3.34 14.32 3 15 C1.68 15 0.36 15 -1 15 C-1.02693575 12.87506859 -1.04636628 10.75004088 -1.0625 8.625 C-1.07410156 7.44164063 -1.08570312 6.25828125 -1.09765625 5.0390625 C-1 2 -1 2 0 0 Z " fill="#6C73FE" transform="translate(103,109)"/>
<path d="M0 0 C7.92 0.33 15.84 0.66 24 1 C24 1.33 24 1.66 24 2 C21.03 2 18.06 2 15 2 C15 4.31 15 6.62 15 9 C15.99 9.33 16.98 9.66 18 10 C17.01 10.99 16.02 11.98 15 13 C11.125 11.25 11.125 11.25 10 9 C10.66 9 11.32 9 12 9 C12 7.35 12 5.7 12 4 C5.4 4 -1.2 4 -8 4 C-8 3.34 -8 2.68 -8 2 C-5.69 2 -3.38 2 -1 2 C-0.67 1.34 -0.34 0.68 0 0 Z " fill="#88D9E3" transform="translate(106,45)"/>
<path d="M0 0 C1.32 0 2.64 0 4 0 C4 5.28 4 10.56 4 16 C4.99 16 5.98 16 7 16 C7 17.65 7 19.3 7 21 C4.69 21 2.38 21 0 21 C0 14.07 0 7.14 0 0 Z " fill="#41428D" transform="translate(26,81)"/>
<path d="M0 0 C6.6 0 13.2 0 20 0 C20 1.32 20 2.64 20 4 C17.29283758 4.90238747 15.76223232 5.11851302 12.98828125 5.09765625 C11.85229492 5.09282227 11.85229492 5.09282227 10.69335938 5.08789062 C9.90767578 5.07951172 9.12199219 5.07113281 8.3125 5.0625 C7.51521484 5.05798828 6.71792969 5.05347656 5.89648438 5.04882812 C3.93095743 5.0370585 1.96546915 5.01912348 0 5 C0 3.35 0 1.7 0 0 Z " fill="#35ADC5" transform="translate(98,49)"/>
<path d="M0 0 C1.65 0 3.3 0 5 0 C5 2.97 5 5.94 5 9 C1.57767028 10.14077657 -1.08673217 10.09815117 -4.6875 10.0625 C-6.45673828 10.04896484 -6.45673828 10.04896484 -8.26171875 10.03515625 C-9.16535156 10.02355469 -10.06898437 10.01195313 -11 10 C-9.04783565 8.04783565 -7.46800047 7.15173355 -5 6 C-5 5.34 -5 4.68 -5 4 C-4.34 4 -3.68 4 -3 4 C-3 3.34 -3 2.68 -3 2 C-2.01 2 -1.02 2 0 2 C0 1.34 0 0.68 0 0 Z " fill="#655BFF" transform="translate(122,86)"/>
<path d="M0 0 C1.08667969 0.02707031 2.17335938 0.05414063 3.29296875 0.08203125 C4.54013672 0.13423828 4.54013672 0.13423828 5.8125 0.1875 C5.8125 1.8375 5.8125 3.4875 5.8125 5.1875 C2.1825 5.1875 -1.4475 5.1875 -5.1875 5.1875 C-5.1875 6.8375 -5.1875 8.4875 -5.1875 10.1875 C-6.5075 10.1875 -7.8275 10.1875 -9.1875 10.1875 C-9.55218886 3.74466353 -9.55218886 3.74466353 -8.0625 1.46875 C-5.3504604 -0.38447706 -3.24426436 -0.10465369 0 0 Z " fill="#3C3D89" transform="translate(35.1875,48.8125)"/>
<path d="M0 0 C1.5 1.3125 1.5 1.3125 3 3 C3 3.99 3 4.98 3 6 C3.99 7.485 3.99 7.485 5 9 C3.35 10.32 1.7 11.64 0 13 C0 12.01 0 11.02 0 10 C-1.32 10 -2.64 10 -4 10 C-4.33 11.32 -4.66 12.64 -5 14 C-5.66 14 -6.32 14 -7 14 C-6.34 10.7 -5.68 7.4 -5 4 C-4.01 3.67 -3.02 3.34 -2 3 C-2 2.34 -2 1.68 -2 1 C-1.34 0.67 -0.68 0.34 0 0 Z " fill="#3FC2DB" transform="translate(51,87)"/>
<path d="M0 0 C1.32 0 2.64 0 4 0 C4 6.6 4 13.2 4 20 C2.68 19.67 1.36 19.34 0 19 C0 12.73 0 6.46 0 0 Z " fill="#3E3E8B" transform="translate(115,63)"/>
<path d="M0 0 C8.58 0 17.16 0 26 0 C25.67 0.99 25.34 1.98 25 3 C17.08 3 9.16 3 1 3 C0.67 2.01 0.34 1.02 0 0 Z " fill="#4C4CA0" transform="translate(101,124)"/>
<path d="M0 0 C1.65 0 3.3 0 5 0 C5.33 0.66 5.66 1.32 6 2 C4.35 2 2.7 2 1 2 C1 2.66 1 3.32 1 4 C0.01 4.495 0.01 4.495 -1 5 C-1.68472665 6.88764903 -1.68472665 6.88764903 -2.125 9.0625 C-2.37636719 10.16271484 -2.37636719 10.16271484 -2.6328125 11.28515625 C-2.75398438 11.85105469 -2.87515625 12.41695312 -3 13 C-3.33 12.34 -3.66 11.68 -4 11 C-4.66 11 -5.32 11 -6 11 C-6.33 11.99 -6.66 12.98 -7 14 C-8.32 13.01 -9.64 12.02 -11 11 C-9.46417132 7.54438548 -7.64236851 4.71786475 -5 2 C-2.25 1.6875 -2.25 1.6875 0 2 C0 1.34 0 0.68 0 0 Z " fill="#6CC5E7" transform="translate(48,86)"/>
<path d="M0 0 C2.875 -0.125 2.875 -0.125 6 0 C6.66 0.66 7.32 1.32 8 2 C8.33 1.34 8.66 0.68 9 0 C9.66 0 10.32 0 11 0 C11 1.32 11 2.64 11 4 C11.66 3.67 12.32 3.34 13 3 C13.33 2.01 13.66 1.02 14 0 C15.32 0 16.64 0 18 0 C18.33 1.32 18.66 2.64 19 4 C15.69005287 5.65497356 12.00877 5.10084335 8.375 5.0625 C7.57320312 5.05798828 6.77140625 5.05347656 5.9453125 5.04882812 C3.96350994 5.03703168 1.98174567 5.01909605 0 5 C0 3.35 0 1.7 0 0 Z " fill="#38ADC6" transform="translate(33,97)"/>
<path d="M0 0 C0.99 0 1.98 0 3 0 C3 4.95 3 9.9 3 15 C5.64 15 8.28 15 11 15 C10.67 15.66 10.34 16.32 10 17 C7.96875 17.44921875 7.96875 17.44921875 5.5 17.6875 C4.6853125 17.77386719 3.870625 17.86023438 3.03125 17.94921875 C2.3609375 17.96597656 1.690625 17.98273438 1 18 C0 17 0 17 -0.09765625 13.18359375 C-0.09098089 11.60153318 -0.07901875 10.01948841 -0.0625 8.4375 C-0.05798828 7.63119141 -0.05347656 6.82488281 -0.04882812 5.99414062 C-0.03700518 3.99606244 -0.01906914 1.99802217 0 0 Z " fill="#409EE8" transform="translate(41,49)"/>
<path d="M0 0 C1.67542976 0.28604898 3.34385343 0.61781233 5 1 C5.875 3.5625 5.875 3.5625 6 7 C4.32305393 9.65870248 2.31872993 11.88180887 0 14 C-0.33 14 -0.66 14 -1 14 C-1.02685938 11.85423363 -1.04633088 9.70837355 -1.0625 7.5625 C-1.07410156 6.36753906 -1.08570312 5.17257813 -1.09765625 3.94140625 C-1 1 -1 1 0 0 Z " fill="#32C6E0" transform="translate(106,33)"/>
<path d="M0 0 C0.99 0 1.98 0 3 0 C3.02691685 2.45840605 3.04679802 4.91651882 3.0625 7.375 C3.07087891 8.07367188 3.07925781 8.77234375 3.08789062 9.4921875 C3.11328125 14.7734375 3.11328125 14.7734375 2 17 C1.01 17 0.02 17 -1 17 C-1.02684679 14.35409986 -1.04676357 11.70846904 -1.0625 9.0625 C-1.07087891 8.30775391 -1.07925781 7.55300781 -1.08789062 6.77539062 C-1.09652441 4.85005687 -1.05224333 2.92464419 -1 1 C-0.67 0.67 -0.34 0.34 0 0 Z " fill="#6F7EFE" transform="translate(124,95)"/>
<path d="M0 0 C9.24 0 18.48 0 28 0 C28.33 0.66 28.66 1.32 29 2 C20.09 2 11.18 2 2 2 C2 2.66 2 3.32 2 4 C1.01 4 0.02 4 -1 4 C-0.67 2.68 -0.34 1.36 0 0 Z " fill="#33CDD8" transform="translate(42,45)"/>
<path d="M0 0 C0 0.66 0 1.32 0 2 C-0.99 2 -1.98 2 -3 2 C-3.20625 2.94875 -3.4125 3.8975 -3.625 4.875 C-5 8 -5 8 -7.875 9.375 C-11 10 -11 10 -15 10 C-13.63016497 6.83884224 -13.0109362 6.0072908 -10 4 C-10.66 3.01 -11.32 2.02 -12 1 C-10.56274129 0.83126522 -9.12518162 0.66509263 -7.6875 0.5 C-6.88699219 0.4071875 -6.08648437 0.314375 -5.26171875 0.21875 C-3 0 -3 0 0 0 Z " fill="#5E4CFB" transform="translate(122,86)"/>
<path d="M0 0 C0.33 1.32 0.66 2.64 1 4 C0.01 4 -0.98 4 -2 4 C-2 3.34 -2 2.68 -2 2 C-9.92 2 -17.84 2 -26 2 C-26.33 1.34 -26.66 0.68 -27 0 C-7.99544419 -1.33257403 -7.99544419 -1.33257403 0 0 Z " fill="#34D2D2" transform="translate(97,45)"/>
<path d="M0 0 C1.24716797 0.00322266 2.49433594 0.00644531 3.77929688 0.00976562 C5.07287109 0.01814453 6.36644531 0.02652344 7.69921875 0.03515625 C9.66858398 0.04192383 9.66858398 0.04192383 11.67773438 0.04882812 C14.91410885 0.06059676 18.15039053 0.07703865 21.38671875 0.09765625 C21.05671875 0.75765625 20.72671875 1.41765625 20.38671875 2.09765625 C19.73074707 2.11747559 19.07477539 2.13729492 18.39892578 2.15771484 C15.43610806 2.25278132 12.47401343 2.36253377 9.51171875 2.47265625 C7.96291016 2.5190625 7.96291016 2.5190625 6.3828125 2.56640625 C4.90361328 2.62441406 4.90361328 2.62441406 3.39453125 2.68359375 C2.4833252 2.71501465 1.57211914 2.74643555 0.63330078 2.77880859 C-1.81259311 2.89648136 -1.81259311 2.89648136 -3.61328125 5.09765625 C-6.34197532 5.06478042 -8.90994305 4.53367854 -11.61328125 4.09765625 C-11.61328125 3.10765625 -11.61328125 2.11765625 -11.61328125 1.09765625 C-7.68039761 0.16677716 -4.03673962 -0.0184326 0 0 Z " fill="#D9D9E8" transform="translate(106.61328125,125.90234375)"/>
<path d="M0 0 C2.875 -0.125 2.875 -0.125 6 0 C8 2 8 2 8.25 4.5 C8 7 8 7 6 9 C3.375 9.125 3.375 9.125 1 9 C1 8.34 1 7.68 1 7 C1.66 6.67 2.32 6.34 3 6 C1.68 5.34 0.36 4.68 -1 4 C-0.67 2.68 -0.34 1.36 0 0 Z " fill="#42D1E4" transform="translate(111,101)"/>
<path d="M0 0 C1.93166016 0.01740234 1.93166016 0.01740234 3.90234375 0.03515625 C5.19269531 0.04417969 6.48304687 0.05320312 7.8125 0.0625 C8.81152344 0.07410156 9.81054688 0.08570312 10.83984375 0.09765625 C8.83984375 2.09765625 8.83984375 2.09765625 4.96484375 2.66015625 C2.02950418 3.29525699 1.11419124 3.68461929 -0.57421875 6.2265625 C-1.56043387 8.49343825 -2.42246022 10.73897025 -3.16015625 13.09765625 C-3.49015625 13.09765625 -3.82015625 13.09765625 -4.16015625 13.09765625 C-4.18702178 11.11856227 -4.20649 9.13936654 -4.22265625 7.16015625 C-4.23425781 6.05800781 -4.24585937 4.95585938 -4.2578125 3.8203125 C-4.11749553 -0.09172464 -3.97435676 0.12281696 0 0 Z " fill="#42BDF2" transform="translate(109.16015625,95.90234375)"/>
<path d="M0 0 C-1.94936128 2.38255267 -3.11691913 3.03741412 -6.125 4 C-7.548125 4.495 -7.548125 4.495 -9 5 C-9.33 5.99 -9.66 6.98 -10 8 C-10.99 8.33 -11.98 8.66 -13 9 C-13 6.03 -13 3.06 -13 0 C-11.39679026 -0.19551338 -9.79237014 -0.38111983 -8.1875 -0.5625 C-7.29417969 -0.66691406 -6.40085937 -0.77132812 -5.48046875 -0.87890625 C-3 -1 -3 -1 0 0 Z " fill="#40BCDC" transform="translate(118,54)"/>
<path d="M0 0 C1.98 0 3.96 0 6 0 C6.79953138 3.28696233 7.09658936 4.71023192 6 8 C3.69 7.34 1.38 6.68 -1 6 C-0.67 4.02 -0.34 2.04 0 0 Z " fill="#3BC3D6" transform="translate(53,86)"/>
<path d="M0 0 C5.61 0 11.22 0 17 0 C16.67 0.99 16.34 1.98 16 3 C11.05 3 6.1 3 1 3 C0.67 2.01 0.34 1.02 0 0 Z " fill="#47D8D0" transform="translate(33,102)"/>
<path d="M0 0 C2.31 0 4.62 0 7 0 C7.33 1.65 7.66 3.3 8 5 C7.38125 5.268125 6.7625 5.53625 6.125 5.8125 C3.7004767 6.95556848 3.7004767 6.95556848 2 10 C1.01 9.67 0.02 9.34 -1 9 C-0.34 9 0.32 9 1 9 C1.07427838 5.65747276 1.06546953 3.1964086 0 0 Z " fill="#72D5E4" transform="translate(110,33)"/>
<path d="M0 0 C1.32 0.66 2.64 1.32 4 2 C4 3.65 4 5.3 4 7 C0.04 7 -3.92 7 -8 7 C-7.67 6.34 -7.34 5.68 -7 5 C-6.01 4.690625 -5.02 4.38125 -4 4.0625 C-2.515 3.5365625 -2.515 3.5365625 -1 3 C-0.67 2.01 -0.34 1.02 0 0 Z " fill="#7896FE" transform="translate(123,117)"/>
<path d="M0 0 C2.64 0 5.28 0 8 0 C8 1.98 8 3.96 8 6 C5.36 5.67 2.72 5.34 0 5 C0 3.35 0 1.7 0 0 Z " fill="#3DB4DE" transform="translate(26,59)"/>
<path d="M0 0 C0.66 0.33 1.32 0.66 2 1 C2.59355614 3.64860427 2.74209269 6.29197322 3 9 C2.01 9 1.02 9 0 9 C0 9.99 0 10.98 0 12 C-1.32 11.67 -2.64 11.34 -4 11 C-4 10.34 -4 9.68 -4 9 C-3.01 8.34 -2.02 7.68 -1 7 C-1 6.01 -1 5.02 -1 4 C-2.32 3.34 -3.64 2.68 -5 2 C-2.625 0.9375 -2.625 0.9375 0 0 Z " fill="#EEFAFB" transform="translate(27,64)"/>
<path d="M0 0 C-0.99 0.66 -1.98 1.32 -3 2 C-3.33 2.66 -3.66 3.32 -4 4 C-6.97 4 -9.94 4 -13 4 C-13 3.01 -13 2.02 -13 1 C-4.57142857 -1.42857143 -4.57142857 -1.42857143 0 0 Z " fill="#45D3D6" transform="translate(26,76)"/>
<path d="M0 0 C0 0.66 0 1.32 0 2 C-5.94 2 -11.88 2 -18 2 C-18.33 1.34 -18.66 0.68 -19 0 C-12.5510809 -1.31909709 -6.51244208 -0.69508823 0 0 Z " fill="#9BC1FE" transform="translate(74,119)"/>
<path d="M0 0 C0.02708567 1.60407328 0.04643483 3.2082785 0.0625 4.8125 C0.07410156 5.70582031 0.08570312 6.59914063 0.09765625 7.51953125 C0 10 0 10 -1 13 C-1.66 12.67 -2.32 12.34 -3 12 C-2.9175 11.0925 -2.835 10.185 -2.75 9.25 C-2.68975201 5.89958592 -2.68975201 5.89958592 -5 3.625 C-5.66 3.08875 -6.32 2.5525 -7 2 C-4.35261084 0.5393715 -3.10551666 0 0 0 Z " fill="#43D2DE" transform="translate(123,96)"/>
<path d="M0 0 C1.23556641 0.01740234 1.23556641 0.01740234 2.49609375 0.03515625 C3.32238281 0.04417969 4.14867187 0.05320312 5 0.0625 C5.63808594 0.07410156 6.27617188 0.08570312 6.93359375 0.09765625 C6.60359375 0.75765625 6.27359375 1.41765625 5.93359375 2.09765625 C3.37109375 2.72265625 3.37109375 2.72265625 0.93359375 3.09765625 C0.83046875 3.73703125 0.72734375 4.37640625 0.62109375 5.03515625 C0.39421875 5.71578125 0.16734375 6.39640625 -0.06640625 7.09765625 C-1.05640625 7.42765625 -2.04640625 7.75765625 -3.06640625 8.09765625 C-3.10882348 5.7647085 -3.10733562 3.43063058 -3.06640625 1.09765625 C-2.06640625 0.09765625 -2.06640625 0.09765625 0 0 Z " fill="#4397EA" transform="translate(36.06640625,85.90234375)"/>
<path d="M0 0 C0.33 0 0.66 0 1 0 C1.042721 1.66611905 1.04063832 3.33382885 1 5 C0 6 0 6 -3.0625 6.0625 C-4.031875 6.041875 -5.00125 6.02125 -6 6 C-6 5.34 -6 4.68 -6 4 C-9.96 4 -13.92 4 -18 4 C-18 3.67 -18 3.34 -18 3 C-9.585 2.505 -9.585 2.505 -1 2 C-0.67 1.34 -0.34 0.68 0 0 Z " fill="#35C0C6" transform="translate(33,40)"/>
<path d="M0 0 C0.99 0 1.98 0 3 0 C3.08121924 1.60332791 3.13929134 3.20784026 3.1875 4.8125 C3.23970703 6.15248047 3.23970703 6.15248047 3.29296875 7.51953125 C3 10 3 10 0 13 C0 8.71 0 4.42 0 0 Z " fill="#3A95D8" transform="translate(41,49)"/>
<path d="M0 0 C2.31 0 4.62 0 7 0 C7 1.65 7 3.3 7 5 C4.69 5 2.38 5 0 5 C0 3.35 0 1.7 0 0 Z " fill="#3C3E8A" transform="translate(98,49)"/>
<path d="M0 0 C0.33 0 0.66 0 1 0 C1.04241723 2.33294775 1.04092937 4.66702567 1 7 C0 8 0 8 -3.5625 8.0625 C-4.696875 8.041875 -5.83125 8.02125 -7 8 C-5.37660195 6.29115995 -3.70680947 4.62553283 -2 3 C-1.34 3 -0.68 3 0 3 C0 2.01 0 1.02 0 0 Z " fill="#37DBC7" transform="translate(122,106)"/>
<path d="M0 0 C1.67542976 0.28604898 3.34385343 0.61781233 5 1 C4.67 2.32 4.34 3.64 4 5 C2.68 5.33 1.36 5.66 0 6 C-0.38218767 4.34385343 -0.71395102 2.67542976 -1 1 C-0.67 0.67 -0.34 0.34 0 0 Z " fill="#48CEDB" transform="translate(22,67)"/>
<path d="M0 0 C0.66 0 1.32 0 2 0 C2 1.65 2 3.3 2 5 C2.99 5.33 3.98 5.66 5 6 C4.01 6.99 3.02 7.98 2 9 C-1.875 7.25 -1.875 7.25 -3 5 C-2.01 5 -1.02 5 0 5 C0 3.35 0 1.7 0 0 Z " fill="#F1FBFB" transform="translate(119,49)"/>
<path d="M0 0 C0.66 0 1.32 0 2 0 C2.103125 0.61875 2.20625 1.2375 2.3125 1.875 C2.87525373 4.36526484 2.87525373 4.36526484 6 6 C3.35261084 7.4606285 2.10551666 8 -1 8 C-1.125 2.25 -1.125 2.25 0 0 Z " fill="#6864FF" transform="translate(103,109)"/>
<path d="M0 0 C1.60379341 -0.05416188 3.20811406 -0.09286638 4.8125 -0.125 C5.70582031 -0.14820313 6.59914063 -0.17140625 7.51953125 -0.1953125 C10 0 10 0 13 2 C9.37 2 5.74 2 2 2 C2 2.66 2 3.32 2 4 C1.01 4 0.02 4 -1 4 C-0.67 2.68 -0.34 1.36 0 0 Z " fill="#33C4E0" transform="translate(42,45)"/>
<path d="M0 0 C2.97 0.495 2.97 0.495 6 1 C6 2.65 6 4.3 6 6 C5.01 5.67 4.02 5.34 3 5 C2.67 5.99 2.34 6.98 2 8 C1.34 5.36 0.68 2.72 0 0 Z " fill="#44C7D5" transform="translate(28,64)"/>
<path d="M0 0 C0.33 0.99 0.66 1.98 1 3 C-2.96 3 -6.92 3 -11 3 C-6.577168 -0.317124 -5.28089024 -0.30466674 0 0 Z " fill="#3DB1E0" transform="translate(59,64)"/>
<path d="M0 0 C0.125 2.375 0.125 2.375 0 5 C-2 7 -2 7 -4.625 7.125 C-5.40875 7.08375 -6.1925 7.0425 -7 7 C-7 6.34 -7 5.68 -7 5 C-1.4047619 0 -1.4047619 0 0 0 Z " fill="#3CD7D8" transform="translate(119,103)"/>
<path d="M0 0 C0.66 0 1.32 0 2 0 C1.34 3.3 0.68 6.6 0 10 C-0.99 10.33 -1.98 10.66 -3 11 C-2.69217504 9.35328588 -2.37860766 7.70764424 -2.0625 6.0625 C-1.88847656 5.14597656 -1.71445312 4.22945313 -1.53515625 3.28515625 C-1 1 -1 1 0 0 Z " fill="#DEF4F7" transform="translate(47,90)"/>
<path d="M0 0 C2.97 0.33 5.94 0.66 9 1 C9.33 2.32 9.66 3.64 10 5 C9.01 5 8.02 5 7 5 C7 4.34 7 3.68 7 3 C4.36 3 1.72 3 -1 3 C-0.67 2.01 -0.34 1.02 0 0 Z " fill="#57DAD4" transform="translate(88,44)"/>
<path d="M0 0 C0.66 0 1.32 0 2 0 C1.6875 3.375 1.6875 3.375 1 7 C-2.22791555 9.1519437 -3.28400809 9.20086443 -7 9 C-6.67 8.34 -6.34 7.68 -6 7 C-5.175 6.731875 -4.35 6.46375 -3.5 6.1875 C-2.675 5.795625 -1.85 5.40375 -1 5 C-0.10613836 2.45224694 -0.10613836 2.45224694 0 0 Z " fill="#C4EEF1" transform="translate(119,103)"/>
<path d="M0 0 C1.32 0 2.64 0 4 0 C4.33 1.32 4.66 2.64 5 4 C2.04335481 5.4783226 -0.74229737 5.06032783 -4 5 C-3.67 4.34 -3.34 3.68 -3 3 C-2.34 3 -1.68 3 -1 3 C-0.67 2.01 -0.34 1.02 0 0 Z " fill="#35C2C5" transform="translate(47,97)"/>
<path d="M0 0 C1.32 0.66 2.64 1.32 4 2 C3.67 3.98 3.34 5.96 3 8 C1.68 7.67 0.36 7.34 -1 7 C-0.67 6.01 -0.34 5.02 0 4 C0 2.68 0 1.36 0 0 Z " fill="#34C2C5" transform="translate(115,55)"/>
<path d="M0 0 C0.99 0 1.98 0 3 0 C3 1.65 3 3.3 3 5 C2.01 5.495 2.01 5.495 1 6 C0.67 6.99 0.34 7.98 0 9 C-0.33 9 -0.66 9 -1 9 C-1.09765625 2.84765625 -1.09765625 2.84765625 -1 1 C-0.67 0.67 -0.34 0.34 0 0 Z " fill="#6B70FE" transform="translate(124,95)"/>
<path d="M0 0 C0.66 0 1.32 0 2 0 C2 0.66 2 1.32 2 2 C2.66 2 3.32 2 4 2 C4 3.32 4 4.64 4 6 C4.66 6.66 5.32 7.32 6 8 C4.35 8 2.7 8 1 8 C0.67 5.36 0.34 2.72 0 0 Z " fill="#4ED0DE" transform="translate(15,68)"/>
<path d="M0 0 C0.66 0.33 1.32 0.66 2 1 C1.67 2.65 1.34 4.3 1 6 C-0.65 6 -2.3 6 -4 6 C-2.84826645 3.53199953 -1.95216435 1.95216435 0 0 Z " fill="#35DFC2" transform="translate(58,99)"/>
<path d="M0 0 C2.97 0 5.94 0 9 0 C9 0.66 9 1.32 9 2 C6.36 2.33 3.72 2.66 1 3 C0.67 2.01 0.34 1.02 0 0 Z " fill="#4FD2DD" transform="translate(33,102)"/>
<path d="M0 0 C2.31 0 4.62 0 7 0 C7.33 1.98 7.66 3.96 8 6 C7.01 6 6.02 6 5 6 C5 5.34 5 4.68 5 4 C4.34 3.67 3.68 3.34 3 3 C1.9805881 2.01979625 0.97753644 1.02196992 0 0 Z " fill="#3ED0D9" transform="translate(19,59)"/>
<path d="M0 0 C1.65 0 3.3 0 5 0 C5.1953125 6.0546875 5.1953125 6.0546875 5 8 C4.34 8.66 3.68 9.32 3 10 C3 7.36 3 4.72 3 2 C2.01 1.67 1.02 1.34 0 1 C0 0.67 0 0.34 0 0 Z " fill="#35D5CF" transform="translate(29,32)"/>
<path d="M0 0 C1.65 1.65 3.3 3.3 5 5 C3.35 6.32 1.7 7.64 0 9 C0.185625 8.2575 0.37125 7.515 0.5625 6.75 C0.99203108 4.05009037 0.85122974 2.55368923 0 0 Z " fill="#E2F6F8" transform="translate(51,91)"/>
<path d="M0 0 C0.66 0 1.32 0 2 0 C2.66 0.99 3.32 1.98 4 3 C4.99 3.33 5.98 3.66 7 4 C7 4.66 7 5.32 7 6 C5.00045254 6.04254356 2.99958364 6.04080783 1 6 C0 5 0 5 -0.0625 2.4375 C-0.041875 1.633125 -0.02125 0.82875 0 0 Z " fill="#3FCCDE" transform="translate(13,61)"/>
<path d="M0 0 C1.32 0 2.64 0 4 0 C4 1.65 4 3.3 4 5 C2.68 5 1.36 5 0 5 C0 3.35 0 1.7 0 0 Z " fill="#35ADC4" transform="translate(26,59)"/>
<path d="M0 0 C-0.33 0.99 -0.66 1.98 -1 3 C-2.65 3 -4.3 3 -6 3 C-6 2.01 -6 1.02 -6 0 C-3 -1 -3 -1 0 0 Z " fill="#35D3D0" transform="translate(19,77)"/>
<path d="M0 0 C2.475 0.99 2.475 0.99 5 2 C4.67 3.32 4.34 4.64 4 6 C2.68 5.67 1.36 5.34 0 5 C0 3.35 0 1.7 0 0 Z " fill="#4CD8D2" transform="translate(121,49)"/>
<path d="M0 0 C2.31 0 4.62 0 7 0 C6.0409375 0.433125 6.0409375 0.433125 5.0625 0.875 C2.84793921 1.82823451 2.84793921 1.82823451 2 4 C1.01 4 0.02 4 -1 4 C-0.67 2.68 -0.34 1.36 0 0 Z " fill="#46ADF5" transform="translate(106,96)"/>
</svg>
